<?xml version="1.0" encoding="UTF-8" standalone="no"?>
<!DOCTYPE svg PUBLIC "-//W3C//DTD SVG 1.1//EN"
 "http://www.w3.org/Graphics/SVG/1.1/DTD/svg11.dtd">
<!-- Generated by graphviz version 2.43.0 (0)
 -->
<!-- Title: src/common/state/AAutomateState.hpp Pages: 1 -->
<svg width="451pt" height="173pt"
 viewBox="0.00 0.00 451.00 173.00" xmlns="http://www.w3.org/2000/svg" xmlns:xlink="http://www.w3.org/1999/xlink">
<g id="graph0" class="graph" transform="scale(1 1) rotate(0) translate(4 169)">
<title>src/common/state/AAutomateState.hpp</title>
<polygon fill="white" stroke="transparent" points="-4,4 -4,-169 447,-169 447,4 -4,4"/>
<!-- Node1 -->
<g id="node1" class="node">
<title>Node1</title>
<g id="a_node1"><a xlink:title="Définition de la classe AAutomateState.">
<polygon fill="#bfbfbf" stroke="black" points="139.5,-134.5 139.5,-164.5 301.5,-164.5 301.5,-134.5 139.5,-134.5"/>
<text text-anchor="start" x="147.5" y="-152.5" font-family="Helvetica,sans-Serif" font-size="10.00">src/common/state/AAutomate</text>
<text text-anchor="middle" x="220.5" y="-141.5" font-family="Helvetica,sans-Serif" font-size="10.00">State.hpp</text>
</a>
</g>
</g>
<!-- Node2 -->
<g id="node2" class="node">
<title>Node2</title>
<g id="a_node2"><a xlink:href="O__State__Init_8hpp.html" target="_top" xlink:title="Déclaration de la classe O_State_Init.">
<polygon fill="white" stroke="black" points="79,-67.5 79,-97.5 212,-97.5 212,-67.5 79,-67.5"/>
<text text-anchor="start" x="87" y="-85.5" font-family="Helvetica,sans-Serif" font-size="10.00">src/bot&#45;opos6ul/O_State</text>
<text text-anchor="middle" x="145.5" y="-74.5" font-family="Helvetica,sans-Serif" font-size="10.00">_Init.hpp</text>
</a>
</g>
</g>
<!-- Node1&#45;&gt;Node2 -->
<g id="edge1" class="edge">
<title>Node1&#45;&gt;Node2</title>
<path fill="none" stroke="midnightblue" d="M196.38,-127.6C185.06,-117.78 171.86,-106.34 161.74,-97.58"/>
<polygon fill="midnightblue" stroke="midnightblue" points="194.38,-130.49 204.23,-134.4 198.96,-125.2 194.38,-130.49"/>
</g>
<!-- Node5 -->
<g id="node5" class="node">
<title>Node5</title>
<g id="a_node5"><a xlink:href="O__State__WaitEndOfMatch_8hpp.html" target="_top" xlink:title="Déclaration de la classe O_State_WaitEndOfMatch.">
<polygon fill="white" stroke="black" points="230,-67.5 230,-97.5 363,-97.5 363,-67.5 230,-67.5"/>
<text text-anchor="start" x="238" y="-85.5" font-family="Helvetica,sans-Serif" font-size="10.00">src/bot&#45;opos6ul/O_State</text>
<text text-anchor="middle" x="296.5" y="-74.5" font-family="Helvetica,sans-Serif" font-size="10.00">_WaitEndOfMatch.hpp</text>
</a>
</g>
</g>
<!-- Node1&#45;&gt;Node5 -->
<g id="edge4" class="edge">
<title>Node1&#45;&gt;Node5</title>
<path fill="none" stroke="midnightblue" d="M244.61,-127.88C256.16,-118.01 269.69,-106.43 280.04,-97.58"/>
<polygon fill="midnightblue" stroke="midnightblue" points="242.32,-125.24 236.99,-134.4 246.87,-130.56 242.32,-125.24"/>
</g>
<!-- Node3 -->
<g id="node3" class="node">
<title>Node3</title>
<g id="a_node3"><a xlink:href="O__State__Init_8cpp.html" target="_top" xlink:title="Implémentation de la classe O_State_Init.">
<polygon fill="white" stroke="black" points="0,-0.5 0,-30.5 133,-30.5 133,-0.5 0,-0.5"/>
<text text-anchor="start" x="8" y="-18.5" font-family="Helvetica,sans-Serif" font-size="10.00">src/bot&#45;opos6ul/O_State</text>
<text text-anchor="middle" x="66.5" y="-7.5" font-family="Helvetica,sans-Serif" font-size="10.00">_Init.cpp</text>
</a>
</g>
</g>
<!-- Node2&#45;&gt;Node3 -->
<g id="edge2" class="edge">
<title>Node2&#45;&gt;Node3</title>
<path fill="none" stroke="midnightblue" d="M120.44,-60.88C108.44,-51.01 94.37,-39.43 83.61,-30.58"/>
<polygon fill="midnightblue" stroke="midnightblue" points="118.41,-63.75 128.36,-67.4 122.86,-58.34 118.41,-63.75"/>
</g>
<!-- Node4 -->
<g id="node4" class="node">
<title>Node4</title>
<g id="a_node4"><a xlink:href="OPOS6UL__RobotExtended_8cpp.html" target="_top" xlink:title="Implémentation de la classe OPOS6UL_RobotExtended.">
<polygon fill="white" stroke="black" points="151.5,-0.5 151.5,-30.5 291.5,-30.5 291.5,-0.5 151.5,-0.5"/>
<text text-anchor="start" x="159.5" y="-18.5" font-family="Helvetica,sans-Serif" font-size="10.00">src/bot&#45;opos6ul/OPOS6UL</text>
<text text-anchor="middle" x="221.5" y="-7.5" font-family="Helvetica,sans-Serif" font-size="10.00">_RobotExtended.cpp</text>
</a>
</g>
</g>
<!-- Node2&#45;&gt;Node4 -->
<g id="edge3" class="edge">
<title>Node2&#45;&gt;Node4</title>
<path fill="none" stroke="midnightblue" d="M169.61,-60.88C181.16,-51.01 194.69,-39.43 205.04,-30.58"/>
<polygon fill="midnightblue" stroke="midnightblue" points="167.32,-58.24 161.99,-67.4 171.87,-63.56 167.32,-58.24"/>
</g>
<!-- Node5&#45;&gt;Node4 -->
<g id="edge6" class="edge">
<title>Node5&#45;&gt;Node4</title>
<path fill="none" stroke="midnightblue" d="M272.38,-60.6C261.06,-50.78 247.86,-39.34 237.74,-30.58"/>
<polygon fill="midnightblue" stroke="midnightblue" points="270.38,-63.49 280.23,-67.4 274.96,-58.2 270.38,-63.49"/>
</g>
<!-- Node6 -->
<g id="node6" class="node">
<title>Node6</title>
<g id="a_node6"><a xlink:href="O__State__WaitEndOfMatch_8cpp.html" target="_top" xlink:title="Implémentation de la classe O_State_WaitEndOfMatch.">
<polygon fill="white" stroke="black" points="310,-0.5 310,-30.5 443,-30.5 443,-0.5 310,-0.5"/>
<text text-anchor="start" x="318" y="-18.5" font-family="Helvetica,sans-Serif" font-size="10.00">src/bot&#45;opos6ul/O_State</text>
<text text-anchor="middle" x="376.5" y="-7.5" font-family="Helvetica,sans-Serif" font-size="10.00">_WaitEndOfMatch.cpp</text>
</a>
</g>
</g>
<!-- Node5&#45;&gt;Node6 -->
<g id="edge5" class="edge">
<title>Node5&#45;&gt;Node6</title>
<path fill="none" stroke="midnightblue" d="M321.87,-60.88C334.03,-51.01 348.28,-39.43 359.18,-30.58"/>
<polygon fill="midnightblue" stroke="midnightblue" points="319.41,-58.37 313.86,-67.4 323.83,-63.81 319.41,-58.37"/>
</g>
</g>
</svg>
