<?xml version="1.0" encoding="UTF-8" standalone="no"?>
<!DOCTYPE svg PUBLIC "-//W3C//DTD SVG 1.1//EN"
 "http://www.w3.org/Graphics/SVG/1.1/DTD/svg11.dtd">
<!-- Generated by graphviz version 2.43.0 (0)
 -->
<!-- Title: test/manual/ActionManagerTimerManualTest.hpp Pages: 1 -->
<svg width="670pt" height="330pt"
 viewBox="0.00 0.00 670.22 330.00" xmlns="http://www.w3.org/2000/svg" xmlns:xlink="http://www.w3.org/1999/xlink">
<g id="graph0" class="graph" transform="scale(1 1) rotate(0) translate(4 326)">
<title>test/manual/ActionManagerTimerManualTest.hpp</title>
<polygon fill="white" stroke="transparent" points="-4,4 -4,-326 666.22,-326 666.22,4 -4,4"/>
<!-- Node1 -->
<g id="node1" class="node">
<title>Node1</title>
<g id="a_node1"><a xlink:title="Tests manuels longs de l&#39;ActionManagerTimer.">
<polygon fill="#bfbfbf" stroke="black" points="0,-291.5 0,-321.5 152,-321.5 152,-291.5 0,-291.5"/>
<text text-anchor="start" x="8" y="-309.5" font-family="Helvetica,sans-Serif" font-size="10.00">test/manual/ActionManager</text>
<text text-anchor="middle" x="76" y="-298.5" font-family="Helvetica,sans-Serif" font-size="10.00">TimerManualTest.hpp</text>
</a>
</g>
</g>
<!-- Node2 -->
<g id="node2" class="node">
<title>Node2</title>
<g id="a_node2"><a xlink:href="UnitTest_8hpp.html" target="_top" xlink:title="Définition de la classe DevUnitTest.">
<polygon fill="white" stroke="black" points="19.5,-235.5 19.5,-254.5 132.5,-254.5 132.5,-235.5 19.5,-235.5"/>
<text text-anchor="middle" x="76" y="-242.5" font-family="Helvetica,sans-Serif" font-size="10.00">../suite/UnitTest.hpp</text>
</a>
</g>
</g>
<!-- Node1&#45;&gt;Node2 -->
<g id="edge1" class="edge">
<title>Node1&#45;&gt;Node2</title>
<path fill="none" stroke="midnightblue" d="M76,-291.4C76,-283.47 76,-273.46 76,-264.86"/>
<polygon fill="midnightblue" stroke="midnightblue" points="79.5,-264.66 76,-254.66 72.5,-264.66 79.5,-264.66"/>
</g>
<!-- Node3 -->
<g id="node3" class="node">
<title>Node3</title>
<g id="a_node3"><a xlink:title=" ">
<polygon fill="white" stroke="#bfbfbf" points="213,-0.5 213,-19.5 257,-19.5 257,-0.5 213,-0.5"/>
<text text-anchor="middle" x="235" y="-7.5" font-family="Helvetica,sans-Serif" font-size="10.00">string</text>
</a>
</g>
</g>
<!-- Node2&#45;&gt;Node3 -->
<g id="edge2" class="edge">
<title>Node2&#45;&gt;Node3</title>
<path fill="none" stroke="midnightblue" d="M70.47,-235.44C57.12,-213.62 25.82,-154.6 48,-112 78.59,-53.25 158.23,-27.23 203.09,-16.93"/>
<polygon fill="midnightblue" stroke="midnightblue" points="203.87,-20.34 212.9,-14.8 202.39,-13.5 203.87,-20.34"/>
</g>
<!-- Node4 -->
<g id="node4" class="node">
<title>Node4</title>
<g id="a_node4"><a xlink:href="LoggerFactory_8hpp.html" target="_top" xlink:title="Définition de la classe LoggerFactory.">
<polygon fill="white" stroke="black" points="66.5,-168.5 66.5,-198.5 179.5,-198.5 179.5,-168.5 66.5,-168.5"/>
<text text-anchor="start" x="74.5" y="-186.5" font-family="Helvetica,sans-Serif" font-size="10.00">../../src/common/log</text>
<text text-anchor="middle" x="123" y="-175.5" font-family="Helvetica,sans-Serif" font-size="10.00">/LoggerFactory.hpp</text>
</a>
</g>
</g>
<!-- Node2&#45;&gt;Node4 -->
<g id="edge3" class="edge">
<title>Node2&#45;&gt;Node4</title>
<path fill="none" stroke="midnightblue" d="M82.73,-235.48C88.68,-227.94 97.62,-216.63 105.57,-206.57"/>
<polygon fill="midnightblue" stroke="midnightblue" points="108.47,-208.54 111.92,-198.52 102.98,-204.2 108.47,-208.54"/>
</g>
<!-- Node4&#45;&gt;Node3 -->
<g id="edge5" class="edge">
<title>Node4&#45;&gt;Node3</title>
<path fill="none" stroke="midnightblue" d="M121.15,-168.39C118.64,-143.2 116.98,-89.98 142,-56 156.62,-36.14 182.37,-24.63 203.07,-18.23"/>
<polygon fill="midnightblue" stroke="midnightblue" points="204.09,-21.58 212.75,-15.49 202.18,-14.85 204.09,-21.58"/>
</g>
<!-- Node5 -->
<g id="node5" class="node">
<title>Node5</title>
<g id="a_node5"><a xlink:title=" ">
<polygon fill="white" stroke="#bfbfbf" points="57,-112.5 57,-131.5 95,-131.5 95,-112.5 57,-112.5"/>
<text text-anchor="middle" x="76" y="-119.5" font-family="Helvetica,sans-Serif" font-size="10.00">map</text>
</a>
</g>
</g>
<!-- Node4&#45;&gt;Node5 -->
<g id="edge4" class="edge">
<title>Node4&#45;&gt;Node5</title>
<path fill="none" stroke="midnightblue" d="M111.86,-168.4C105.03,-159.75 96.26,-148.64 89.09,-139.58"/>
<polygon fill="midnightblue" stroke="midnightblue" points="91.78,-137.34 82.84,-131.66 86.29,-141.67 91.78,-137.34"/>
</g>
<!-- Node6 -->
<g id="node6" class="node">
<title>Node6</title>
<g id="a_node6"><a xlink:href="Thread_8hpp.html" target="_top" xlink:title="Définition de la classe Thread.">
<polygon fill="white" stroke="black" points="435.5,-112.5 435.5,-131.5 550.5,-131.5 550.5,-112.5 435.5,-112.5"/>
<text text-anchor="middle" x="493" y="-119.5" font-family="Helvetica,sans-Serif" font-size="10.00">../thread/Thread.hpp</text>
</a>
</g>
</g>
<!-- Node4&#45;&gt;Node6 -->
<g id="edge6" class="edge">
<title>Node4&#45;&gt;Node6</title>
<path fill="none" stroke="midnightblue" d="M179.6,-173.4C247.13,-162.54 359.71,-144.44 429.96,-133.14"/>
<polygon fill="midnightblue" stroke="midnightblue" points="430.69,-136.57 440.01,-131.52 429.58,-129.65 430.69,-136.57"/>
</g>
<!-- Node12 -->
<g id="node12" class="node">
<title>Node12</title>
<g id="a_node12"><a xlink:href="Logger_8hpp.html" target="_top" xlink:title="Définition de la classe Logger.">
<polygon fill="white" stroke="black" points="200,-112.5 200,-131.5 270,-131.5 270,-112.5 200,-112.5"/>
<text text-anchor="middle" x="235" y="-119.5" font-family="Helvetica,sans-Serif" font-size="10.00">Logger.hpp</text>
</a>
</g>
</g>
<!-- Node4&#45;&gt;Node12 -->
<g id="edge14" class="edge">
<title>Node4&#45;&gt;Node12</title>
<path fill="none" stroke="midnightblue" d="M149.54,-168.4C167.66,-158.77 191.54,-146.09 209.44,-136.58"/>
<polygon fill="midnightblue" stroke="midnightblue" points="211.51,-139.44 218.7,-131.66 208.23,-133.26 211.51,-139.44"/>
</g>
<!-- Node6&#45;&gt;Node3 -->
<g id="edge8" class="edge">
<title>Node6&#45;&gt;Node3</title>
<path fill="none" stroke="midnightblue" d="M486.13,-112.35C474.49,-98.29 449.44,-70.59 422,-56 372.01,-29.42 306.2,-18.31 267.47,-13.83"/>
<polygon fill="midnightblue" stroke="midnightblue" points="267.61,-10.33 257.29,-12.74 266.86,-17.29 267.61,-10.33"/>
</g>
<!-- Node7 -->
<g id="node7" class="node">
<title>Node7</title>
<g id="a_node7"><a xlink:title=" ">
<polygon fill="white" stroke="#bfbfbf" points="495.5,-0.5 495.5,-19.5 558.5,-19.5 558.5,-0.5 495.5,-0.5"/>
<text text-anchor="middle" x="527" y="-7.5" font-family="Helvetica,sans-Serif" font-size="10.00">pthread.h</text>
</a>
</g>
</g>
<!-- Node6&#45;&gt;Node7 -->
<g id="edge7" class="edge">
<title>Node6&#45;&gt;Node7</title>
<path fill="none" stroke="midnightblue" d="M550.66,-112.58C592.18,-105.21 643.06,-92.99 656,-76 682.04,-41.8 615.37,-24.25 568.47,-16.4"/>
<polygon fill="midnightblue" stroke="midnightblue" points="568.93,-12.93 558.51,-14.82 567.84,-19.84 568.93,-12.93"/>
</g>
<!-- Node8 -->
<g id="node8" class="node">
<title>Node8</title>
<g id="a_node8"><a xlink:title=" ">
<polygon fill="white" stroke="#bfbfbf" points="469,-56.5 469,-75.5 517,-75.5 517,-56.5 469,-56.5"/>
<text text-anchor="middle" x="493" y="-63.5" font-family="Helvetica,sans-Serif" font-size="10.00">thread</text>
</a>
</g>
</g>
<!-- Node6&#45;&gt;Node8 -->
<g id="edge9" class="edge">
<title>Node6&#45;&gt;Node8</title>
<path fill="none" stroke="midnightblue" d="M493,-112.08C493,-105.01 493,-94.86 493,-85.99"/>
<polygon fill="midnightblue" stroke="midnightblue" points="496.5,-85.75 493,-75.75 489.5,-85.75 496.5,-85.75"/>
</g>
<!-- Node9 -->
<g id="node9" class="node">
<title>Node9</title>
<g id="a_node9"><a xlink:title=" ">
<polygon fill="white" stroke="#bfbfbf" points="535,-56.5 535,-75.5 579,-75.5 579,-56.5 535,-56.5"/>
<text text-anchor="middle" x="557" y="-63.5" font-family="Helvetica,sans-Serif" font-size="10.00">ctime</text>
</a>
</g>
</g>
<!-- Node6&#45;&gt;Node9 -->
<g id="edge10" class="edge">
<title>Node6&#45;&gt;Node9</title>
<path fill="none" stroke="midnightblue" d="M503.28,-112.32C512.84,-104.26 527.28,-92.08 538.78,-82.37"/>
<polygon fill="midnightblue" stroke="midnightblue" points="541.14,-84.96 546.53,-75.83 536.63,-79.61 541.14,-84.96"/>
</g>
<!-- Node10 -->
<g id="node10" class="node">
<title>Node10</title>
<g id="a_node10"><a xlink:href="Mutex_8hpp.html" target="_top" xlink:title="Définition de la classe Mutex.">
<polygon fill="white" stroke="black" points="345,-56.5 345,-75.5 413,-75.5 413,-56.5 345,-56.5"/>
<text text-anchor="middle" x="379" y="-63.5" font-family="Helvetica,sans-Serif" font-size="10.00">Mutex.hpp</text>
</a>
</g>
</g>
<!-- Node6&#45;&gt;Node10 -->
<g id="edge11" class="edge">
<title>Node6&#45;&gt;Node10</title>
<path fill="none" stroke="midnightblue" d="M474.94,-112.44C456.43,-103.68 427.42,-89.94 406.14,-79.86"/>
<polygon fill="midnightblue" stroke="midnightblue" points="407.51,-76.63 396.98,-75.52 404.52,-82.96 407.51,-76.63"/>
</g>
<!-- Node11 -->
<g id="node11" class="node">
<title>Node11</title>
<g id="a_node11"><a xlink:title=" ">
<polygon fill="white" stroke="#bfbfbf" points="597,-56.5 597,-75.5 647,-75.5 647,-56.5 597,-56.5"/>
<text text-anchor="middle" x="622" y="-63.5" font-family="Helvetica,sans-Serif" font-size="10.00">chrono</text>
</a>
</g>
</g>
<!-- Node6&#45;&gt;Node11 -->
<g id="edge13" class="edge">
<title>Node6&#45;&gt;Node11</title>
<path fill="none" stroke="midnightblue" d="M513.44,-112.44C534.67,-103.56 568.1,-89.56 592.25,-79.45"/>
<polygon fill="midnightblue" stroke="midnightblue" points="593.78,-82.61 601.66,-75.52 591.08,-76.15 593.78,-82.61"/>
</g>
<!-- Node10&#45;&gt;Node7 -->
<g id="edge12" class="edge">
<title>Node10&#45;&gt;Node7</title>
<path fill="none" stroke="midnightblue" d="M402.45,-56.44C427.13,-47.44 466.19,-33.19 493.98,-23.05"/>
<polygon fill="midnightblue" stroke="midnightblue" points="495.46,-26.23 503.66,-19.52 493.06,-19.66 495.46,-26.23"/>
</g>
<!-- Node12&#45;&gt;Node3 -->
<g id="edge16" class="edge">
<title>Node12&#45;&gt;Node3</title>
<path fill="none" stroke="midnightblue" d="M235,-112.37C235,-94.62 235,-53.67 235,-29.6"/>
<polygon fill="midnightblue" stroke="midnightblue" points="238.5,-29.59 235,-19.59 231.5,-29.59 238.5,-29.59"/>
</g>
<!-- Node12&#45;&gt;Node10 -->
<g id="edge17" class="edge">
<title>Node12&#45;&gt;Node10</title>
<path fill="none" stroke="midnightblue" d="M257.82,-112.44C281.83,-103.44 319.83,-89.19 346.87,-79.05"/>
<polygon fill="midnightblue" stroke="midnightblue" points="348.16,-82.3 356.29,-75.52 345.7,-75.75 348.16,-82.3"/>
</g>
<!-- Node13 -->
<g id="node13" class="node">
<title>Node13</title>
<g id="a_node13"><a xlink:title=" ">
<polygon fill="white" stroke="#bfbfbf" points="151,-56.5 151,-75.5 207,-75.5 207,-56.5 151,-56.5"/>
<text text-anchor="middle" x="179" y="-63.5" font-family="Helvetica,sans-Serif" font-size="10.00">sstream</text>
</a>
</g>
</g>
<!-- Node12&#45;&gt;Node13 -->
<g id="edge15" class="edge">
<title>Node12&#45;&gt;Node13</title>
<path fill="none" stroke="midnightblue" d="M226,-112.32C217.81,-104.42 205.49,-92.55 195.53,-82.94"/>
<polygon fill="midnightblue" stroke="midnightblue" points="197.79,-80.26 188.16,-75.83 192.93,-85.29 197.79,-80.26"/>
</g>
<!-- Node14 -->
<g id="node14" class="node">
<title>Node14</title>
<g id="a_node14"><a xlink:href="Level_8hpp.html" target="_top" xlink:title="Définition de la classe Level.">
<polygon fill="white" stroke="black" points="263,-56.5 263,-75.5 327,-75.5 327,-56.5 263,-56.5"/>
<text text-anchor="middle" x="295" y="-63.5" font-family="Helvetica,sans-Serif" font-size="10.00">Level.hpp</text>
</a>
</g>
</g>
<!-- Node12&#45;&gt;Node14 -->
<g id="edge18" class="edge">
<title>Node12&#45;&gt;Node14</title>
<path fill="none" stroke="midnightblue" d="M244.64,-112.32C253.51,-104.34 266.87,-92.31 277.61,-82.65"/>
<polygon fill="midnightblue" stroke="midnightblue" points="280.09,-85.13 285.18,-75.83 275.41,-79.92 280.09,-85.13"/>
</g>
<!-- Node14&#45;&gt;Node3 -->
<g id="edge19" class="edge">
<title>Node14&#45;&gt;Node3</title>
<path fill="none" stroke="midnightblue" d="M285.36,-56.32C276.49,-48.34 263.13,-36.31 252.39,-26.65"/>
<polygon fill="midnightblue" stroke="midnightblue" points="254.59,-23.92 244.82,-19.83 249.91,-29.13 254.59,-23.92"/>
</g>
</g>
</svg>
