<?xml version="1.0" encoding="UTF-8" standalone="no"?>
<!DOCTYPE svg PUBLIC "-//W3C//DTD SVG 1.1//EN"
 "http://www.w3.org/Graphics/SVG/1.1/DTD/svg11.dtd">
<!-- Generated by graphviz version 2.43.0 (0)
 -->
<!-- Title: src/common/timer/ActionManagerTimer.hpp Pages: 1 -->
<svg width="2328pt" height="240pt"
 viewBox="0.00 0.00 2328.00 240.00" xmlns="http://www.w3.org/2000/svg" xmlns:xlink="http://www.w3.org/1999/xlink">
<g id="graph0" class="graph" transform="scale(1 1) rotate(0) translate(4 236)">
<title>src/common/timer/ActionManagerTimer.hpp</title>
<polygon fill="white" stroke="transparent" points="-4,4 -4,-236 2324,-236 2324,4 -4,4"/>
<!-- Node1 -->
<g id="node1" class="node">
<title>Node1</title>
<g id="a_node1"><a xlink:title="Definition de la classe ActionManagerTimer.">
<polygon fill="#bfbfbf" stroke="black" points="1795,-201.5 1795,-231.5 1977,-231.5 1977,-201.5 1795,-201.5"/>
<text text-anchor="start" x="1803" y="-219.5" font-family="Helvetica,sans-Serif" font-size="10.00">src/common/timer/ActionManager</text>
<text text-anchor="middle" x="1886" y="-208.5" font-family="Helvetica,sans-Serif" font-size="10.00">Timer.hpp</text>
</a>
</g>
</g>
<!-- Node2 -->
<g id="node2" class="node">
<title>Node2</title>
<g id="a_node2"><a xlink:href="Actions_8hpp.html" target="_top" xlink:title="Définition de la classe Actions.">
<polygon fill="white" stroke="black" points="1410,-140 1410,-159 1580,-159 1580,-140 1410,-140"/>
<text text-anchor="middle" x="1495" y="-147" font-family="Helvetica,sans-Serif" font-size="10.00">src/common/action/Actions.hpp</text>
</a>
</g>
</g>
<!-- Node1&#45;&gt;Node2 -->
<g id="edge1" class="edge">
<title>Node1&#45;&gt;Node2</title>
<path fill="none" stroke="midnightblue" d="M1791.44,-199.78C1714.36,-186.97 1608.45,-169.36 1546.3,-159.03"/>
<polygon fill="midnightblue" stroke="midnightblue" points="1791.2,-203.29 1801.64,-201.48 1792.35,-196.38 1791.2,-203.29"/>
</g>
<!-- Node24 -->
<g id="node24" class="node">
<title>Node24</title>
<g id="a_node24"><a xlink:href="ActionManagerTimer_8cpp.html" target="_top" xlink:title="Implementation de la classe ActionManagerTimer.">
<polygon fill="white" stroke="black" points="1598,-134.5 1598,-164.5 1780,-164.5 1780,-134.5 1598,-134.5"/>
<text text-anchor="start" x="1606" y="-152.5" font-family="Helvetica,sans-Serif" font-size="10.00">src/common/timer/ActionManager</text>
<text text-anchor="middle" x="1689" y="-141.5" font-family="Helvetica,sans-Serif" font-size="10.00">Timer.cpp</text>
</a>
</g>
</g>
<!-- Node1&#45;&gt;Node24 -->
<g id="edge24" class="edge">
<title>Node1&#45;&gt;Node24</title>
<path fill="none" stroke="midnightblue" d="M1833.65,-198.23C1801.78,-187.71 1761.59,-174.45 1731.66,-164.58"/>
<polygon fill="midnightblue" stroke="midnightblue" points="1832.66,-201.59 1843.25,-201.4 1834.85,-194.94 1832.66,-201.59"/>
</g>
<!-- Node25 -->
<g id="node25" class="node">
<title>Node25</title>
<g id="a_node25"><a xlink:href="PosixTimerBench_8cpp.html" target="_top" xlink:title="Benchmark de precision des timers POSIX.">
<polygon fill="white" stroke="black" points="1798,-140 1798,-159 1974,-159 1974,-140 1798,-140"/>
<text text-anchor="middle" x="1886" y="-147" font-family="Helvetica,sans-Serif" font-size="10.00">test/bench/PosixTimerBench.cpp</text>
</a>
</g>
</g>
<!-- Node1&#45;&gt;Node25 -->
<g id="edge25" class="edge">
<title>Node1&#45;&gt;Node25</title>
<path fill="none" stroke="midnightblue" d="M1886,-191.25C1886,-180.02 1886,-167.38 1886,-159.19"/>
<polygon fill="midnightblue" stroke="midnightblue" points="1882.5,-191.4 1886,-201.4 1889.5,-191.4 1882.5,-191.4"/>
</g>
<!-- Node26 -->
<g id="node26" class="node">
<title>Node26</title>
<g id="a_node26"><a xlink:href="ActionManagerTimerTest_8cpp.html" target="_top" xlink:title="Tests unitaires de la classe ActionManagerTimer.">
<polygon fill="white" stroke="black" points="1992,-134.5 1992,-164.5 2150,-164.5 2150,-134.5 1992,-134.5"/>
<text text-anchor="start" x="2000" y="-152.5" font-family="Helvetica,sans-Serif" font-size="10.00">test/common/ActionManager</text>
<text text-anchor="middle" x="2071" y="-141.5" font-family="Helvetica,sans-Serif" font-size="10.00">TimerTest.cpp</text>
</a>
</g>
</g>
<!-- Node1&#45;&gt;Node26 -->
<g id="edge26" class="edge">
<title>Node1&#45;&gt;Node26</title>
<path fill="none" stroke="midnightblue" d="M1935.94,-197.96C1965.74,-187.48 2003.07,-174.37 2030.94,-164.58"/>
<polygon fill="midnightblue" stroke="midnightblue" points="1934.42,-194.78 1926.14,-201.4 1936.74,-201.38 1934.42,-194.78"/>
</g>
<!-- Node27 -->
<g id="node27" class="node">
<title>Node27</title>
<g id="a_node27"><a xlink:href="ActionManagerTimerManualTest_8cpp.html" target="_top" xlink:title="Tests manuels longs de l&#39;ActionManagerTimer.">
<polygon fill="white" stroke="black" points="2168,-134.5 2168,-164.5 2320,-164.5 2320,-134.5 2168,-134.5"/>
<text text-anchor="start" x="2176" y="-152.5" font-family="Helvetica,sans-Serif" font-size="10.00">test/manual/ActionManager</text>
<text text-anchor="middle" x="2244" y="-141.5" font-family="Helvetica,sans-Serif" font-size="10.00">TimerManualTest.cpp</text>
</a>
</g>
</g>
<!-- Node1&#45;&gt;Node27 -->
<g id="edge27" class="edge">
<title>Node1&#45;&gt;Node27</title>
<path fill="none" stroke="midnightblue" d="M1973.37,-199.64C2032.87,-188.83 2110.86,-174.67 2167.82,-164.33"/>
<polygon fill="midnightblue" stroke="midnightblue" points="1972.45,-196.25 1963.24,-201.48 1973.7,-203.13 1972.45,-196.25"/>
</g>
<!-- Node3 -->
<g id="node3" class="node">
<title>Node3</title>
<g id="a_node3"><a xlink:href="O__ActionManagerTimerTest_8cpp.html" target="_top" xlink:title="Implémentation de la classe L_ActionManagerTimerTest.">
<polygon fill="white" stroke="black" points="0,-0.5 0,-30.5 138,-30.5 138,-0.5 0,-0.5"/>
<text text-anchor="start" x="8" y="-18.5" font-family="Helvetica,sans-Serif" font-size="10.00">src/bot&#45;opos6ul/O_Action</text>
<text text-anchor="middle" x="69" y="-7.5" font-family="Helvetica,sans-Serif" font-size="10.00">ManagerTimerTest.cpp</text>
</a>
</g>
</g>
<!-- Node2&#45;&gt;Node3 -->
<g id="edge2" class="edge">
<title>Node2&#45;&gt;Node3</title>
<path fill="none" stroke="midnightblue" d="M1399.64,-143.45C1178.64,-131.05 614.63,-95.29 147,-31 144.13,-30.61 141.21,-30.18 138.27,-29.73"/>
<polygon fill="midnightblue" stroke="midnightblue" points="1399.72,-146.96 1409.9,-144.03 1400.11,-139.97 1399.72,-146.96"/>
</g>
<!-- Node4 -->
<g id="node4" class="node">
<title>Node4</title>
<g id="a_node4"><a xlink:href="OPOS6UL__ActionsExtended_8hpp.html" target="_top" xlink:title="Extension des actions du robot pour la carte OPOS6UL.">
<polygon fill="white" stroke="black" points="903,-67.5 903,-97.5 1043,-97.5 1043,-67.5 903,-67.5"/>
<text text-anchor="start" x="911" y="-85.5" font-family="Helvetica,sans-Serif" font-size="10.00">src/bot&#45;opos6ul/OPOS6UL</text>
<text text-anchor="middle" x="973" y="-74.5" font-family="Helvetica,sans-Serif" font-size="10.00">_ActionsExtended.hpp</text>
</a>
</g>
</g>
<!-- Node2&#45;&gt;Node4 -->
<g id="edge3" class="edge">
<title>Node2&#45;&gt;Node4</title>
<path fill="none" stroke="midnightblue" d="M1399.49,-139.41C1309.81,-130.45 1172,-115.56 1053,-98 1049.79,-97.53 1046.51,-97.02 1043.2,-96.49"/>
<polygon fill="midnightblue" stroke="midnightblue" points="1399.34,-142.92 1409.64,-140.42 1400.03,-135.95 1399.34,-142.92"/>
</g>
<!-- Node17 -->
<g id="node17" class="node">
<title>Node17</title>
<g id="a_node17"><a xlink:href="Actions_8cpp.html" target="_top" xlink:title=" ">
<polygon fill="white" stroke="black" points="1061.5,-73 1061.5,-92 1230.5,-92 1230.5,-73 1061.5,-73"/>
<text text-anchor="middle" x="1146" y="-80" font-family="Helvetica,sans-Serif" font-size="10.00">src/common/action/Actions.cpp</text>
</a>
</g>
</g>
<!-- Node2&#45;&gt;Node17 -->
<g id="edge17" class="edge">
<title>Node2&#45;&gt;Node17</title>
<path fill="none" stroke="midnightblue" d="M1438.82,-138.04C1370.18,-125.25 1255.36,-103.87 1191.81,-92.03"/>
<polygon fill="midnightblue" stroke="midnightblue" points="1438.54,-141.55 1449.02,-139.94 1439.83,-134.66 1438.54,-141.55"/>
</g>
<!-- Node18 -->
<g id="node18" class="node">
<title>Node18</title>
<g id="a_node18"><a xlink:href="ButtonBar_8cpp.html" target="_top" xlink:title=" ">
<polygon fill="white" stroke="black" points="1248.5,-67.5 1248.5,-97.5 1393.5,-97.5 1393.5,-67.5 1248.5,-67.5"/>
<text text-anchor="start" x="1256.5" y="-85.5" font-family="Helvetica,sans-Serif" font-size="10.00">src/common/action/Button</text>
<text text-anchor="middle" x="1321" y="-74.5" font-family="Helvetica,sans-Serif" font-size="10.00">Bar.cpp</text>
</a>
</g>
</g>
<!-- Node2&#45;&gt;Node18 -->
<g id="edge18" class="edge">
<title>Node2&#45;&gt;Node18</title>
<path fill="none" stroke="midnightblue" d="M1462.47,-136.35C1432.97,-125.33 1389.51,-109.09 1358.55,-97.53"/>
<polygon fill="midnightblue" stroke="midnightblue" points="1461.3,-139.65 1471.89,-139.87 1463.75,-133.09 1461.3,-139.65"/>
</g>
<!-- Node19 -->
<g id="node19" class="node">
<title>Node19</title>
<g id="a_node19"><a xlink:href="LedBar_8cpp.html" target="_top" xlink:title=" ">
<polygon fill="white" stroke="black" points="1412,-73 1412,-92 1578,-92 1578,-73 1412,-73"/>
<text text-anchor="middle" x="1495" y="-80" font-family="Helvetica,sans-Serif" font-size="10.00">src/common/action/LedBar.cpp</text>
</a>
</g>
</g>
<!-- Node2&#45;&gt;Node19 -->
<g id="edge19" class="edge">
<title>Node2&#45;&gt;Node19</title>
<path fill="none" stroke="midnightblue" d="M1495,-129.54C1495,-117.17 1495,-101.62 1495,-92.13"/>
<polygon fill="midnightblue" stroke="midnightblue" points="1491.5,-129.73 1495,-139.73 1498.5,-129.73 1491.5,-129.73"/>
</g>
<!-- Node20 -->
<g id="node20" class="node">
<title>Node20</title>
<g id="a_node20"><a xlink:href="Sensors_8cpp.html" target="_top" xlink:title=" ">
<polygon fill="white" stroke="black" points="1596.5,-73 1596.5,-92 1767.5,-92 1767.5,-73 1596.5,-73"/>
<text text-anchor="middle" x="1682" y="-80" font-family="Helvetica,sans-Serif" font-size="10.00">src/common/action/Sensors.cpp</text>
</a>
</g>
</g>
<!-- Node2&#45;&gt;Node20 -->
<g id="edge20" class="edge">
<title>Node2&#45;&gt;Node20</title>
<path fill="none" stroke="midnightblue" d="M1529.71,-136.44C1566.8,-123.54 1624.68,-103.42 1657.36,-92.06"/>
<polygon fill="midnightblue" stroke="midnightblue" points="1528.13,-133.28 1519.83,-139.87 1530.43,-139.89 1528.13,-133.28"/>
</g>
<!-- Node21 -->
<g id="node21" class="node">
<title>Node21</title>
<g id="a_node21"><a xlink:href="ServoObjectsSystem_8cpp.html" target="_top" xlink:title=" ">
<polygon fill="white" stroke="black" points="1785.5,-67.5 1785.5,-97.5 1962.5,-97.5 1962.5,-67.5 1785.5,-67.5"/>
<text text-anchor="start" x="1793.5" y="-85.5" font-family="Helvetica,sans-Serif" font-size="10.00">src/common/action/ServoObjects</text>
<text text-anchor="middle" x="1874" y="-74.5" font-family="Helvetica,sans-Serif" font-size="10.00">System.cpp</text>
</a>
</g>
</g>
<!-- Node2&#45;&gt;Node21 -->
<g id="edge21" class="edge">
<title>Node2&#45;&gt;Node21</title>
<path fill="none" stroke="midnightblue" d="M1554.87,-138.23C1618.83,-127.26 1720.64,-109.8 1792.02,-97.56"/>
<polygon fill="midnightblue" stroke="midnightblue" points="1554.2,-134.8 1544.94,-139.94 1555.39,-141.69 1554.2,-134.8"/>
</g>
<!-- Node22 -->
<g id="node22" class="node">
<title>Node22</title>
<g id="a_node22"><a xlink:href="SoundBar_8cpp.html" target="_top" xlink:title=" ">
<polygon fill="white" stroke="black" points="1980.5,-73 1980.5,-92 2159.5,-92 2159.5,-73 1980.5,-73"/>
<text text-anchor="middle" x="2070" y="-80" font-family="Helvetica,sans-Serif" font-size="10.00">src/common/action/SoundBar.cpp</text>
</a>
</g>
</g>
<!-- Node2&#45;&gt;Node22 -->
<g id="edge22" class="edge">
<title>Node2&#45;&gt;Node22</title>
<path fill="none" stroke="midnightblue" d="M1556.79,-138.43C1567.51,-136.84 1578.57,-135.29 1589,-134 1758.67,-112.96 1802.26,-118.52 1972,-98 1986.26,-96.28 2001.64,-94.13 2015.9,-92.03"/>
<polygon fill="midnightblue" stroke="midnightblue" points="1556,-135.01 1546.64,-139.97 1557.05,-141.93 1556,-135.01"/>
</g>
<!-- Node23 -->
<g id="node23" class="node">
<title>Node23</title>
<g id="a_node23"><a xlink:href="Robot_8cpp.html" target="_top" xlink:title=" ">
<polygon fill="white" stroke="black" points="2178,-73 2178,-92 2306,-92 2306,-73 2178,-73"/>
<text text-anchor="middle" x="2242" y="-80" font-family="Helvetica,sans-Serif" font-size="10.00">src/common/Robot.cpp</text>
</a>
</g>
</g>
<!-- Node2&#45;&gt;Node23 -->
<g id="edge23" class="edge">
<title>Node2&#45;&gt;Node23</title>
<path fill="none" stroke="midnightblue" d="M1554.88,-138.43C1566.19,-136.76 1577.94,-135.19 1589,-134 1845.78,-106.28 1912.87,-131.23 2169,-98 2180.4,-96.52 2192.7,-94.32 2203.89,-92.07"/>
<polygon fill="midnightblue" stroke="midnightblue" points="1554.01,-135.02 1544.65,-139.98 1555.06,-141.94 1554.01,-135.02"/>
</g>
<!-- Node4&#45;&gt;Node3 -->
<g id="edge4" class="edge">
<title>Node4&#45;&gt;Node3</title>
<path fill="none" stroke="midnightblue" d="M892.49,-79.86C744.41,-76.1 419.07,-64.48 147,-31 144.13,-30.65 141.2,-30.25 138.25,-29.83"/>
<polygon fill="midnightblue" stroke="midnightblue" points="892.76,-83.36 902.84,-80.11 892.93,-76.37 892.76,-83.36"/>
</g>
<!-- Node5 -->
<g id="node5" class="node">
<title>Node5</title>
<g id="a_node5"><a xlink:href="O__ButtonBarTest_8cpp.html" target="_top" xlink:title="Implémentation de la classe O_ButtonBarTest.">
<polygon fill="white" stroke="black" points="156,-0.5 156,-30.5 296,-30.5 296,-0.5 156,-0.5"/>
<text text-anchor="start" x="164" y="-18.5" font-family="Helvetica,sans-Serif" font-size="10.00">src/bot&#45;opos6ul/O_Button</text>
<text text-anchor="middle" x="226" y="-7.5" font-family="Helvetica,sans-Serif" font-size="10.00">BarTest.cpp</text>
</a>
</g>
</g>
<!-- Node4&#45;&gt;Node5 -->
<g id="edge5" class="edge">
<title>Node4&#45;&gt;Node5</title>
<path fill="none" stroke="midnightblue" d="M892.23,-78.16C766.35,-72.34 515.92,-58.25 305,-31 302.1,-30.62 299.14,-30.21 296.15,-29.77"/>
<polygon fill="midnightblue" stroke="midnightblue" points="892.39,-81.67 902.54,-78.63 892.71,-74.68 892.39,-81.67"/>
</g>
<!-- Node6 -->
<g id="node6" class="node">
<title>Node6</title>
<g id="a_node6"><a xlink:href="O__IAbyPathTest_8cpp.html" target="_top" xlink:title="Implementation de la classe O_IAByPathTest.">
<polygon fill="white" stroke="black" points="314,-0.5 314,-30.5 464,-30.5 464,-0.5 314,-0.5"/>
<text text-anchor="start" x="322" y="-18.5" font-family="Helvetica,sans-Serif" font-size="10.00">src/bot&#45;opos6ul/O_IAbyPath</text>
<text text-anchor="middle" x="389" y="-7.5" font-family="Helvetica,sans-Serif" font-size="10.00">Test.cpp</text>
</a>
</g>
</g>
<!-- Node4&#45;&gt;Node6 -->
<g id="edge6" class="edge">
<title>Node4&#45;&gt;Node6</title>
<path fill="none" stroke="midnightblue" d="M892.62,-75.13C793.66,-66.89 620.57,-51.16 473,-31 470.07,-30.6 467.08,-30.17 464.07,-29.73"/>
<polygon fill="midnightblue" stroke="midnightblue" points="892.59,-78.64 902.84,-75.98 893.17,-71.67 892.59,-78.64"/>
</g>
<!-- Node7 -->
<g id="node7" class="node">
<title>Node7</title>
<g id="a_node7"><a xlink:href="O__LcdBoardTest_8cpp.html" target="_top" xlink:title="Implémentation de la classe O_LcdBoardTest.">
<polygon fill="white" stroke="black" points="482,-0.5 482,-30.5 634,-30.5 634,-0.5 482,-0.5"/>
<text text-anchor="start" x="490" y="-18.5" font-family="Helvetica,sans-Serif" font-size="10.00">src/bot&#45;opos6ul/O_LcdBoard</text>
<text text-anchor="middle" x="558" y="-7.5" font-family="Helvetica,sans-Serif" font-size="10.00">Test.cpp</text>
</a>
</g>
</g>
<!-- Node4&#45;&gt;Node7 -->
<g id="edge7" class="edge">
<title>Node4&#45;&gt;Node7</title>
<path fill="none" stroke="midnightblue" d="M892.73,-69.61C825.87,-59.61 728.17,-44.78 643,-31 640.19,-30.55 637.33,-30.08 634.45,-29.6"/>
<polygon fill="midnightblue" stroke="midnightblue" points="892.37,-73.09 902.78,-71.11 893.4,-66.17 892.37,-73.09"/>
</g>
<!-- Node8 -->
<g id="node8" class="node">
<title>Node8</title>
<g id="a_node8"><a xlink:href="O__LedBarTest_8cpp.html" target="_top" xlink:title="Implementation de la classe O_LedBarTest.">
<polygon fill="white" stroke="black" points="652.5,-0.5 652.5,-30.5 793.5,-30.5 793.5,-0.5 652.5,-0.5"/>
<text text-anchor="start" x="660.5" y="-18.5" font-family="Helvetica,sans-Serif" font-size="10.00">src/bot&#45;opos6ul/O_LedBar</text>
<text text-anchor="middle" x="723" y="-7.5" font-family="Helvetica,sans-Serif" font-size="10.00">Test.cpp</text>
</a>
</g>
</g>
<!-- Node4&#45;&gt;Node8 -->
<g id="edge8" class="edge">
<title>Node4&#45;&gt;Node8</title>
<path fill="none" stroke="midnightblue" d="M909.22,-64.92C868.42,-54.31 816.07,-40.7 777.27,-30.61"/>
<polygon fill="midnightblue" stroke="midnightblue" points="908.5,-68.35 919.06,-67.48 910.26,-61.57 908.5,-68.35"/>
</g>
<!-- Node9 -->
<g id="node9" class="node">
<title>Node9</title>
<g id="a_node9"><a xlink:href="O__SensorsTest_8cpp.html" target="_top" xlink:title=" ">
<polygon fill="white" stroke="black" points="812,-0.5 812,-30.5 958,-30.5 958,-0.5 812,-0.5"/>
<text text-anchor="start" x="820" y="-18.5" font-family="Helvetica,sans-Serif" font-size="10.00">src/bot&#45;opos6ul/O_Sensors</text>
<text text-anchor="middle" x="885" y="-7.5" font-family="Helvetica,sans-Serif" font-size="10.00">Test.cpp</text>
</a>
</g>
</g>
<!-- Node4&#45;&gt;Node9 -->
<g id="edge9" class="edge">
<title>Node4&#45;&gt;Node9</title>
<path fill="none" stroke="midnightblue" d="M945.86,-61.45C932.32,-51.45 916.27,-39.6 904.06,-30.58"/>
<polygon fill="midnightblue" stroke="midnightblue" points="943.78,-64.27 953.91,-67.4 947.94,-58.64 943.78,-64.27"/>
</g>
<!-- Node10 -->
<g id="node10" class="node">
<title>Node10</title>
<g id="a_node10"><a xlink:href="O__ServoObjectsTest_8cpp.html" target="_top" xlink:title=" ">
<polygon fill="white" stroke="black" points="976,-0.5 976,-30.5 1148,-30.5 1148,-0.5 976,-0.5"/>
<text text-anchor="start" x="984" y="-18.5" font-family="Helvetica,sans-Serif" font-size="10.00">src/bot&#45;opos6ul/O_ServoObjects</text>
<text text-anchor="middle" x="1062" y="-7.5" font-family="Helvetica,sans-Serif" font-size="10.00">Test.cpp</text>
</a>
</g>
</g>
<!-- Node4&#45;&gt;Node10 -->
<g id="edge10" class="edge">
<title>Node4&#45;&gt;Node10</title>
<path fill="none" stroke="midnightblue" d="M1000.45,-61.45C1014.14,-51.45 1030.37,-39.6 1042.73,-30.58"/>
<polygon fill="midnightblue" stroke="midnightblue" points="998.32,-58.67 992.31,-67.4 1002.45,-64.32 998.32,-58.67"/>
</g>
<!-- Node11 -->
<g id="node11" class="node">
<title>Node11</title>
<g id="a_node11"><a xlink:href="O__ServoStepTest_8cpp.html" target="_top" xlink:title=" ">
<polygon fill="white" stroke="black" points="1166.5,-0.5 1166.5,-30.5 1323.5,-30.5 1323.5,-0.5 1166.5,-0.5"/>
<text text-anchor="start" x="1174.5" y="-18.5" font-family="Helvetica,sans-Serif" font-size="10.00">src/bot&#45;opos6ul/O_ServoStep</text>
<text text-anchor="middle" x="1245" y="-7.5" font-family="Helvetica,sans-Serif" font-size="10.00">Test.cpp</text>
</a>
</g>
</g>
<!-- Node4&#45;&gt;Node11 -->
<g id="edge11" class="edge">
<title>Node4&#45;&gt;Node11</title>
<path fill="none" stroke="midnightblue" d="M1041.55,-65.12C1086.06,-54.48 1143.47,-40.76 1185.95,-30.61"/>
<polygon fill="midnightblue" stroke="midnightblue" points="1040.6,-61.75 1031.69,-67.48 1042.22,-68.56 1040.6,-61.75"/>
</g>
<!-- Node12 -->
<g id="node12" class="node">
<title>Node12</title>
<g id="a_node12"><a xlink:href="O__State__Init_8cpp.html" target="_top" xlink:title=" ">
<polygon fill="white" stroke="black" points="1341.5,-0.5 1341.5,-30.5 1474.5,-30.5 1474.5,-0.5 1341.5,-0.5"/>
<text text-anchor="start" x="1349.5" y="-18.5" font-family="Helvetica,sans-Serif" font-size="10.00">src/bot&#45;opos6ul/O_State</text>
<text text-anchor="middle" x="1408" y="-7.5" font-family="Helvetica,sans-Serif" font-size="10.00">_Init.cpp</text>
</a>
</g>
</g>
<!-- Node4&#45;&gt;Node12 -->
<g id="edge12" class="edge">
<title>Node4&#45;&gt;Node12</title>
<path fill="none" stroke="midnightblue" d="M1053.2,-67.03C1178.68,-47.95 1212.27,-50.41 1333,-31 1335.75,-30.56 1338.55,-30.09 1341.38,-29.61"/>
<polygon fill="midnightblue" stroke="midnightblue" points="1052.56,-63.59 1043.21,-68.56 1053.62,-70.51 1052.56,-63.59"/>
</g>
<!-- Node13 -->
<g id="node13" class="node">
<title>Node13</title>
<g id="a_node13"><a xlink:href="O__State__WaitEndOfMatch_8cpp.html" target="_top" xlink:title=" ">
<polygon fill="white" stroke="black" points="1492.5,-0.5 1492.5,-30.5 1625.5,-30.5 1625.5,-0.5 1492.5,-0.5"/>
<text text-anchor="start" x="1500.5" y="-18.5" font-family="Helvetica,sans-Serif" font-size="10.00">src/bot&#45;opos6ul/O_State</text>
<text text-anchor="middle" x="1559" y="-7.5" font-family="Helvetica,sans-Serif" font-size="10.00">_WaitEndOfMatch.cpp</text>
</a>
</g>
</g>
<!-- Node4&#45;&gt;Node13 -->
<g id="edge13" class="edge">
<title>Node4&#45;&gt;Node13</title>
<path fill="none" stroke="midnightblue" d="M1053.32,-67.06C1245.32,-42.35 1296.84,-56.83 1484,-31 1486.76,-30.62 1489.57,-30.2 1492.41,-29.76"/>
<polygon fill="midnightblue" stroke="midnightblue" points="1052.64,-63.62 1043.18,-68.39 1053.55,-70.56 1052.64,-63.62"/>
</g>
<!-- Node14 -->
<g id="node14" class="node">
<title>Node14</title>
<g id="a_node14"><a xlink:href="O__TiretteTest_8cpp.html" target="_top" xlink:title="Implémentation de la classe O_TiretteTest.">
<polygon fill="white" stroke="black" points="1644,-0.5 1644,-30.5 1784,-30.5 1784,-0.5 1644,-0.5"/>
<text text-anchor="start" x="1652" y="-18.5" font-family="Helvetica,sans-Serif" font-size="10.00">src/bot&#45;opos6ul/O_Tirette</text>
<text text-anchor="middle" x="1714" y="-7.5" font-family="Helvetica,sans-Serif" font-size="10.00">Test.cpp</text>
</a>
</g>
</g>
<!-- Node4&#45;&gt;Node14 -->
<g id="edge14" class="edge">
<title>Node4&#45;&gt;Node14</title>
<path fill="none" stroke="midnightblue" d="M1053.25,-67.09C1312.02,-36.5 1381.02,-62.05 1635,-31 1637.91,-30.64 1640.87,-30.25 1643.86,-29.82"/>
<polygon fill="midnightblue" stroke="midnightblue" points="1052.68,-63.63 1043.17,-68.3 1053.51,-70.59 1052.68,-63.63"/>
</g>
<!-- Node15 -->
<g id="node15" class="node">
<title>Node15</title>
<g id="a_node15"><a xlink:href="OPOS6UL__ActionsExtended_8cpp.html" target="_top" xlink:title=" ">
<polygon fill="white" stroke="black" points="1802,-0.5 1802,-30.5 1942,-30.5 1942,-0.5 1802,-0.5"/>
<text text-anchor="start" x="1810" y="-18.5" font-family="Helvetica,sans-Serif" font-size="10.00">src/bot&#45;opos6ul/OPOS6UL</text>
<text text-anchor="middle" x="1872" y="-7.5" font-family="Helvetica,sans-Serif" font-size="10.00">_ActionsExtended.cpp</text>
</a>
</g>
</g>
<!-- Node4&#45;&gt;Node15 -->
<g id="edge15" class="edge">
<title>Node4&#45;&gt;Node15</title>
<path fill="none" stroke="midnightblue" d="M1053.45,-67.08C1381.93,-30.35 1469.25,-68.42 1793,-31 1795.91,-30.66 1798.87,-30.29 1801.86,-29.87"/>
<polygon fill="midnightblue" stroke="midnightblue" points="1052.71,-63.64 1043.16,-68.25 1053.49,-70.6 1052.71,-63.64"/>
</g>
<!-- Node16 -->
<g id="node16" class="node">
<title>Node16</title>
<g id="a_node16"><a xlink:href="OPOS6UL__RobotExtended_8cpp.html" target="_top" xlink:title=" ">
<polygon fill="white" stroke="black" points="1960,-0.5 1960,-30.5 2100,-30.5 2100,-0.5 1960,-0.5"/>
<text text-anchor="start" x="1968" y="-18.5" font-family="Helvetica,sans-Serif" font-size="10.00">src/bot&#45;opos6ul/OPOS6UL</text>
<text text-anchor="middle" x="2030" y="-7.5" font-family="Helvetica,sans-Serif" font-size="10.00">_RobotExtended.cpp</text>
</a>
</g>
</g>
<!-- Node4&#45;&gt;Node16 -->
<g id="edge16" class="edge">
<title>Node4&#45;&gt;Node16</title>
<path fill="none" stroke="midnightblue" d="M1053.23,-67.11C1451.78,-24.13 1557.31,-74.8 1951,-31 1953.91,-30.68 1956.87,-30.31 1959.86,-29.9"/>
<polygon fill="midnightblue" stroke="midnightblue" points="1052.72,-63.65 1043.16,-68.21 1053.48,-70.61 1052.72,-63.65"/>
</g>
</g>
</svg>
