<?xml version="1.0" encoding="UTF-8" standalone="no"?>
<!DOCTYPE svg PUBLIC "-//W3C//DTD SVG 1.1//EN"
 "http://www.w3.org/Graphics/SVG/1.1/DTD/svg11.dtd">
<!-- Generated by graphviz version 2.43.0 (0)
 -->
<!-- Title: src/driver&#45;arm/Adafruit_RGBLCDShield.hpp Pages: 1 -->
<svg width="679pt" height="319pt"
 viewBox="0.00 0.00 679.00 319.00" xmlns="http://www.w3.org/2000/svg" xmlns:xlink="http://www.w3.org/1999/xlink">
<g id="graph0" class="graph" transform="scale(1 1) rotate(0) translate(4 315)">
<title>src/driver&#45;arm/Adafruit_RGBLCDShield.hpp</title>
<polygon fill="white" stroke="transparent" points="-4,4 -4,-315 675,-315 675,4 -4,4"/>
<!-- Node1 -->
<g id="node1" class="node">
<title>Node1</title>
<g id="a_node1"><a xlink:title=" ">
<polygon fill="#bfbfbf" stroke="black" points="39,-280.5 39,-310.5 167,-310.5 167,-280.5 39,-280.5"/>
<text text-anchor="start" x="47" y="-298.5" font-family="Helvetica,sans-Serif" font-size="10.00">src/driver&#45;arm/Adafruit</text>
<text text-anchor="middle" x="103" y="-287.5" font-family="Helvetica,sans-Serif" font-size="10.00">_RGBLCDShield.hpp</text>
</a>
</g>
</g>
<!-- Node2 -->
<g id="node2" class="node">
<title>Node2</title>
<g id="a_node2"><a xlink:title=" ">
<polygon fill="white" stroke="#bfbfbf" points="0,-224.5 0,-243.5 56,-243.5 56,-224.5 0,-224.5"/>
<text text-anchor="middle" x="28" y="-231.5" font-family="Helvetica,sans-Serif" font-size="10.00">stddef.h</text>
</a>
</g>
</g>
<!-- Node1&#45;&gt;Node2 -->
<g id="edge1" class="edge">
<title>Node1&#45;&gt;Node2</title>
<path fill="none" stroke="midnightblue" d="M85.23,-280.4C73.65,-271.22 58.58,-259.26 46.8,-249.92"/>
<polygon fill="midnightblue" stroke="midnightblue" points="48.92,-247.13 38.91,-243.66 44.57,-252.61 48.92,-247.13"/>
</g>
<!-- Node3 -->
<g id="node3" class="node">
<title>Node3</title>
<g id="a_node3"><a xlink:title=" ">
<polygon fill="white" stroke="#bfbfbf" points="23.5,-168.5 23.5,-187.5 76.5,-187.5 76.5,-168.5 23.5,-168.5"/>
<text text-anchor="middle" x="50" y="-175.5" font-family="Helvetica,sans-Serif" font-size="10.00">stdint.h</text>
</a>
</g>
</g>
<!-- Node1&#45;&gt;Node3 -->
<g id="edge2" class="edge">
<title>Node1&#45;&gt;Node3</title>
<path fill="none" stroke="midnightblue" d="M96.5,-280.34C86.87,-259.34 68.79,-219.96 58.24,-196.96"/>
<polygon fill="midnightblue" stroke="midnightblue" points="61.33,-195.3 53.98,-187.67 54.97,-198.22 61.33,-195.3"/>
</g>
<!-- Node4 -->
<g id="node4" class="node">
<title>Node4</title>
<g id="a_node4"><a xlink:href="LoggerFactory_8hpp.html" target="_top" xlink:title="Définition de la classe LoggerFactory.">
<polygon fill="white" stroke="black" points="95,-168.5 95,-187.5 217,-187.5 217,-168.5 95,-168.5"/>
<text text-anchor="middle" x="156" y="-175.5" font-family="Helvetica,sans-Serif" font-size="10.00">log/LoggerFactory.hpp</text>
</a>
</g>
</g>
<!-- Node1&#45;&gt;Node4 -->
<g id="edge3" class="edge">
<title>Node1&#45;&gt;Node4</title>
<path fill="none" stroke="midnightblue" d="M109.5,-280.34C119.13,-259.34 137.21,-219.96 147.76,-196.96"/>
<polygon fill="midnightblue" stroke="midnightblue" points="151.03,-198.22 152.02,-187.67 144.67,-195.3 151.03,-198.22"/>
</g>
<!-- Node16 -->
<g id="node16" class="node">
<title>Node16</title>
<g id="a_node16"><a xlink:href="Adafruit__MCP23017_8hpp.html" target="_top" xlink:title=" ">
<polygon fill="white" stroke="black" points="150,-224.5 150,-243.5 284,-243.5 284,-224.5 150,-224.5"/>
<text text-anchor="middle" x="217" y="-231.5" font-family="Helvetica,sans-Serif" font-size="10.00">Adafruit_MCP23017.hpp</text>
</a>
</g>
</g>
<!-- Node1&#45;&gt;Node16 -->
<g id="edge20" class="edge">
<title>Node1&#45;&gt;Node16</title>
<path fill="none" stroke="midnightblue" d="M130.02,-280.4C148.63,-270.68 173.21,-257.86 191.49,-248.31"/>
<polygon fill="midnightblue" stroke="midnightblue" points="193.17,-251.39 200.41,-243.66 189.93,-245.18 193.17,-251.39"/>
</g>
<!-- Node5 -->
<g id="node5" class="node">
<title>Node5</title>
<g id="a_node5"><a xlink:title=" ">
<polygon fill="white" stroke="#bfbfbf" points="43,-112.5 43,-131.5 81,-131.5 81,-112.5 43,-112.5"/>
<text text-anchor="middle" x="62" y="-119.5" font-family="Helvetica,sans-Serif" font-size="10.00">map</text>
</a>
</g>
</g>
<!-- Node4&#45;&gt;Node5 -->
<g id="edge4" class="edge">
<title>Node4&#45;&gt;Node5</title>
<path fill="none" stroke="midnightblue" d="M140.9,-168.32C126.1,-159.82 103.31,-146.73 86.02,-136.8"/>
<polygon fill="midnightblue" stroke="midnightblue" points="87.48,-133.6 77.07,-131.65 83.99,-139.67 87.48,-133.6"/>
</g>
<!-- Node6 -->
<g id="node6" class="node">
<title>Node6</title>
<g id="a_node6"><a xlink:title=" ">
<polygon fill="white" stroke="#bfbfbf" points="192,-0.5 192,-19.5 236,-19.5 236,-0.5 192,-0.5"/>
<text text-anchor="middle" x="214" y="-7.5" font-family="Helvetica,sans-Serif" font-size="10.00">string</text>
</a>
</g>
</g>
<!-- Node4&#45;&gt;Node6 -->
<g id="edge5" class="edge">
<title>Node4&#45;&gt;Node6</title>
<path fill="none" stroke="midnightblue" d="M153.85,-168.21C149.26,-147.42 140.35,-94.13 159,-56 165.33,-43.06 177.33,-32.56 188.51,-24.97"/>
<polygon fill="midnightblue" stroke="midnightblue" points="190.58,-27.8 197.18,-19.51 186.85,-21.88 190.58,-27.8"/>
</g>
<!-- Node7 -->
<g id="node7" class="node">
<title>Node7</title>
<g id="a_node7"><a xlink:href="Thread_8hpp.html" target="_top" xlink:title="Définition de la classe Thread.">
<polygon fill="white" stroke="black" points="407.5,-112.5 407.5,-131.5 522.5,-131.5 522.5,-112.5 407.5,-112.5"/>
<text text-anchor="middle" x="465" y="-119.5" font-family="Helvetica,sans-Serif" font-size="10.00">../thread/Thread.hpp</text>
</a>
</g>
</g>
<!-- Node4&#45;&gt;Node7 -->
<g id="edge6" class="edge">
<title>Node4&#45;&gt;Node7</title>
<path fill="none" stroke="midnightblue" d="M204.96,-168.44C259.54,-158.9 347.79,-143.48 406.1,-133.29"/>
<polygon fill="midnightblue" stroke="midnightblue" points="407.02,-136.69 416.27,-131.52 405.81,-129.79 407.02,-136.69"/>
</g>
<!-- Node13 -->
<g id="node13" class="node">
<title>Node13</title>
<g id="a_node13"><a xlink:href="Logger_8hpp.html" target="_top" xlink:title="Définition de la classe Logger.">
<polygon fill="white" stroke="black" points="168,-112.5 168,-131.5 238,-131.5 238,-112.5 168,-112.5"/>
<text text-anchor="middle" x="203" y="-119.5" font-family="Helvetica,sans-Serif" font-size="10.00">Logger.hpp</text>
</a>
</g>
</g>
<!-- Node4&#45;&gt;Node13 -->
<g id="edge14" class="edge">
<title>Node4&#45;&gt;Node13</title>
<path fill="none" stroke="midnightblue" d="M163.76,-168.08C170.54,-160.3 180.54,-148.8 188.76,-139.37"/>
<polygon fill="midnightblue" stroke="midnightblue" points="191.46,-141.59 195.38,-131.75 186.18,-137 191.46,-141.59"/>
</g>
<!-- Node7&#45;&gt;Node6 -->
<g id="edge8" class="edge">
<title>Node7&#45;&gt;Node6</title>
<path fill="none" stroke="midnightblue" d="M459.92,-112.29C451.19,-98.15 431.95,-70.34 408,-56 356.94,-25.43 286.84,-15.63 246.39,-12.48"/>
<polygon fill="midnightblue" stroke="midnightblue" points="246.51,-8.98 236.29,-11.79 246.03,-15.97 246.51,-8.98"/>
</g>
<!-- Node8 -->
<g id="node8" class="node">
<title>Node8</title>
<g id="a_node8"><a xlink:title=" ">
<polygon fill="white" stroke="#bfbfbf" points="383.5,-0.5 383.5,-19.5 446.5,-19.5 446.5,-0.5 383.5,-0.5"/>
<text text-anchor="middle" x="415" y="-7.5" font-family="Helvetica,sans-Serif" font-size="10.00">pthread.h</text>
</a>
</g>
</g>
<!-- Node7&#45;&gt;Node8 -->
<g id="edge7" class="edge">
<title>Node7&#45;&gt;Node8</title>
<path fill="none" stroke="midnightblue" d="M462.34,-112.4C458.33,-99.77 450.2,-75.6 441,-56 436.59,-46.61 430.9,-36.57 425.96,-28.37"/>
<polygon fill="midnightblue" stroke="midnightblue" points="428.86,-26.4 420.64,-19.72 422.9,-30.08 428.86,-26.4"/>
</g>
<!-- Node9 -->
<g id="node9" class="node">
<title>Node9</title>
<g id="a_node9"><a xlink:title=" ">
<polygon fill="white" stroke="#bfbfbf" points="493,-56.5 493,-75.5 541,-75.5 541,-56.5 493,-56.5"/>
<text text-anchor="middle" x="517" y="-63.5" font-family="Helvetica,sans-Serif" font-size="10.00">thread</text>
</a>
</g>
</g>
<!-- Node7&#45;&gt;Node9 -->
<g id="edge9" class="edge">
<title>Node7&#45;&gt;Node9</title>
<path fill="none" stroke="midnightblue" d="M473.59,-112.08C481.16,-104.22 492.38,-92.57 501.51,-83.08"/>
<polygon fill="midnightblue" stroke="midnightblue" points="504.16,-85.38 508.57,-75.75 499.12,-80.53 504.16,-85.38"/>
</g>
<!-- Node10 -->
<g id="node10" class="node">
<title>Node10</title>
<g id="a_node10"><a xlink:title=" ">
<polygon fill="white" stroke="#bfbfbf" points="559,-56.5 559,-75.5 603,-75.5 603,-56.5 559,-56.5"/>
<text text-anchor="middle" x="581" y="-63.5" font-family="Helvetica,sans-Serif" font-size="10.00">ctime</text>
</a>
</g>
</g>
<!-- Node7&#45;&gt;Node10 -->
<g id="edge10" class="edge">
<title>Node7&#45;&gt;Node10</title>
<path fill="none" stroke="midnightblue" d="M483.38,-112.44C502.22,-103.68 531.73,-89.94 553.38,-79.86"/>
<polygon fill="midnightblue" stroke="midnightblue" points="555.12,-82.91 562.71,-75.52 552.16,-76.56 555.12,-82.91"/>
</g>
<!-- Node11 -->
<g id="node11" class="node">
<title>Node11</title>
<g id="a_node11"><a xlink:href="Mutex_8hpp.html" target="_top" xlink:title="Définition de la classe Mutex.">
<polygon fill="white" stroke="black" points="331,-56.5 331,-75.5 399,-75.5 399,-56.5 331,-56.5"/>
<text text-anchor="middle" x="365" y="-63.5" font-family="Helvetica,sans-Serif" font-size="10.00">Mutex.hpp</text>
</a>
</g>
</g>
<!-- Node7&#45;&gt;Node11 -->
<g id="edge11" class="edge">
<title>Node7&#45;&gt;Node11</title>
<path fill="none" stroke="midnightblue" d="M448.93,-112.32C433.04,-103.74 408.49,-90.49 390.04,-80.52"/>
<polygon fill="midnightblue" stroke="midnightblue" points="391.49,-77.33 381.03,-75.65 388.16,-83.49 391.49,-77.33"/>
</g>
<!-- Node12 -->
<g id="node12" class="node">
<title>Node12</title>
<g id="a_node12"><a xlink:title=" ">
<polygon fill="white" stroke="#bfbfbf" points="621,-56.5 621,-75.5 671,-75.5 671,-56.5 621,-56.5"/>
<text text-anchor="middle" x="646" y="-63.5" font-family="Helvetica,sans-Serif" font-size="10.00">chrono</text>
</a>
</g>
</g>
<!-- Node7&#45;&gt;Node12 -->
<g id="edge13" class="edge">
<title>Node7&#45;&gt;Node12</title>
<path fill="none" stroke="midnightblue" d="M493.68,-112.44C525.48,-102.96 576.78,-87.65 610.94,-77.46"/>
<polygon fill="midnightblue" stroke="midnightblue" points="612.37,-80.69 620.95,-74.47 610.37,-73.98 612.37,-80.69"/>
</g>
<!-- Node11&#45;&gt;Node8 -->
<g id="edge12" class="edge">
<title>Node11&#45;&gt;Node8</title>
<path fill="none" stroke="midnightblue" d="M373.26,-56.08C380.46,-48.3 391.11,-36.8 399.85,-27.37"/>
<polygon fill="midnightblue" stroke="midnightblue" points="402.67,-29.47 406.9,-19.75 397.53,-24.71 402.67,-29.47"/>
</g>
<!-- Node13&#45;&gt;Node6 -->
<g id="edge16" class="edge">
<title>Node13&#45;&gt;Node6</title>
<path fill="none" stroke="midnightblue" d="M192.23,-112.48C178.29,-100.35 156.81,-77.21 166,-56 171.27,-43.84 181.62,-33.46 191.36,-25.74"/>
<polygon fill="midnightblue" stroke="midnightblue" points="193.64,-28.41 199.63,-19.67 189.5,-22.77 193.64,-28.41"/>
</g>
<!-- Node13&#45;&gt;Node11 -->
<g id="edge17" class="edge">
<title>Node13&#45;&gt;Node11</title>
<path fill="none" stroke="midnightblue" d="M228.67,-112.44C255.92,-103.36 299.18,-88.94 329.65,-78.78"/>
<polygon fill="midnightblue" stroke="midnightblue" points="331.07,-82 339.45,-75.52 328.86,-75.36 331.07,-82"/>
</g>
<!-- Node14 -->
<g id="node14" class="node">
<title>Node14</title>
<g id="a_node14"><a xlink:title=" ">
<polygon fill="white" stroke="#bfbfbf" points="175,-56.5 175,-75.5 231,-75.5 231,-56.5 175,-56.5"/>
<text text-anchor="middle" x="203" y="-63.5" font-family="Helvetica,sans-Serif" font-size="10.00">sstream</text>
</a>
</g>
</g>
<!-- Node13&#45;&gt;Node14 -->
<g id="edge15" class="edge">
<title>Node13&#45;&gt;Node14</title>
<path fill="none" stroke="midnightblue" d="M203,-112.08C203,-105.01 203,-94.86 203,-85.99"/>
<polygon fill="midnightblue" stroke="midnightblue" points="206.5,-85.75 203,-75.75 199.5,-85.75 206.5,-85.75"/>
</g>
<!-- Node15 -->
<g id="node15" class="node">
<title>Node15</title>
<g id="a_node15"><a xlink:href="Level_8hpp.html" target="_top" xlink:title="Définition de la classe Level.">
<polygon fill="white" stroke="black" points="249,-56.5 249,-75.5 313,-75.5 313,-56.5 249,-56.5"/>
<text text-anchor="middle" x="281" y="-63.5" font-family="Helvetica,sans-Serif" font-size="10.00">Level.hpp</text>
</a>
</g>
</g>
<!-- Node13&#45;&gt;Node15 -->
<g id="edge18" class="edge">
<title>Node13&#45;&gt;Node15</title>
<path fill="none" stroke="midnightblue" d="M215.53,-112.32C227.59,-103.98 246.03,-91.21 260.27,-81.35"/>
<polygon fill="midnightblue" stroke="midnightblue" points="262.27,-84.22 268.5,-75.65 258.28,-78.47 262.27,-84.22"/>
</g>
<!-- Node15&#45;&gt;Node6 -->
<g id="edge19" class="edge">
<title>Node15&#45;&gt;Node6</title>
<path fill="none" stroke="midnightblue" d="M270.24,-56.32C260.23,-48.26 245.11,-36.08 233.07,-26.37"/>
<polygon fill="midnightblue" stroke="midnightblue" points="234.94,-23.38 224.96,-19.83 230.55,-28.83 234.94,-23.38"/>
</g>
<!-- Node16&#45;&gt;Node3 -->
<g id="edge21" class="edge">
<title>Node16&#45;&gt;Node3</title>
<path fill="none" stroke="midnightblue" d="M190.54,-224.44C162.32,-215.32 117.46,-200.81 86.03,-190.65"/>
<polygon fill="midnightblue" stroke="midnightblue" points="86.93,-187.26 76.34,-187.52 84.78,-193.92 86.93,-187.26"/>
</g>
<!-- Node16&#45;&gt;Node4 -->
<g id="edge24" class="edge">
<title>Node16&#45;&gt;Node4</title>
<path fill="none" stroke="midnightblue" d="M207.2,-224.32C198.18,-216.34 184.59,-204.31 173.68,-194.65"/>
<polygon fill="midnightblue" stroke="midnightblue" points="175.79,-191.84 165.98,-187.83 171.15,-197.08 175.79,-191.84"/>
</g>
<!-- Node17 -->
<g id="node17" class="node">
<title>Node17</title>
<g id="a_node17"><a xlink:title=" ">
<polygon fill="white" stroke="#bfbfbf" points="235,-168.5 235,-187.5 381,-187.5 381,-168.5 235,-168.5"/>
<text text-anchor="middle" x="308" y="-175.5" font-family="Helvetica,sans-Serif" font-size="10.00">as_devices/cpp/as_i2c.hpp</text>
</a>
</g>
</g>
<!-- Node16&#45;&gt;Node17 -->
<g id="edge22" class="edge">
<title>Node16&#45;&gt;Node17</title>
<path fill="none" stroke="midnightblue" d="M231.62,-224.32C245.95,-215.82 268.01,-202.73 284.75,-192.8"/>
<polygon fill="midnightblue" stroke="midnightblue" points="286.6,-195.77 293.42,-187.65 283.03,-189.75 286.6,-195.77"/>
</g>
<!-- Node18 -->
<g id="node18" class="node">
<title>Node18</title>
<g id="a_node18"><a xlink:title=" ">
<polygon fill="white" stroke="#bfbfbf" points="399.5,-168.5 399.5,-187.5 512.5,-187.5 512.5,-168.5 399.5,-168.5"/>
<text text-anchor="middle" x="456" y="-175.5" font-family="Helvetica,sans-Serif" font-size="10.00">as_devices/as_i2c.h</text>
</a>
</g>
</g>
<!-- Node16&#45;&gt;Node18 -->
<g id="edge23" class="edge">
<title>Node16&#45;&gt;Node18</title>
<path fill="none" stroke="midnightblue" d="M254.87,-224.44C296.48,-215.04 363.37,-199.93 408.47,-189.74"/>
<polygon fill="midnightblue" stroke="midnightblue" points="409.32,-193.13 418.31,-187.52 407.78,-186.31 409.32,-193.13"/>
</g>
</g>
</svg>
