<?xml version="1.0" encoding="UTF-8" standalone="no"?>
<!DOCTYPE svg PUBLIC "-//W3C//DTD SVG 1.1//EN"
 "http://www.w3.org/Graphics/SVG/1.1/DTD/svg11.dtd">
<!-- Generated by graphviz version 2.43.0 (0)
 -->
<!-- Title: src/common/utils/Arguments.hpp Pages: 1 -->
<!--zoomable 285 -->
<svg id="main" version="1.1" xmlns="http://www.w3.org/2000/svg" xmlns:xlink="http://www.w3.org/1999/xlink" xml:space="preserve" onload="init(evt)">
<style type="text/css"><![CDATA[
.edge:hover path { stroke: red; }
.edge:hover polygon { stroke: red; fill: red; }
]]></style>
<script type="text/javascript"><![CDATA[
var edges = document.getElementsByTagName('g');
if (edges && edges.length) {
  for (var i=0;i<edges.length;i++) {
    if (edges[i].id.substr(0,4)=='edge') {
      edges[i].setAttribute('class','edge');
    }
  }
}
]]></script>
        <defs>
                <circle id="rim" cx="0" cy="0" r="7"/>
                <circle id="rim2" cx="0" cy="0" r="3.5"/>
                <g id="zoomPlus">
                        <use xlink:href="#rim" fill="#404040">
                                <set attributeName="fill" to="#808080" begin="zoomplus.mouseover" end="zoomplus.mouseout"/>
                        </use>
                        <path d="M-4,0h8M0,-4v8" fill="none" stroke="white" stroke-width="1.5" pointer-events="none"/>
                </g>
                <g id="zoomMin">
                        <use xlink:href="#rim" fill="#404040">
                                <set attributeName="fill" to="#808080" begin="zoomminus.mouseover" end="zoomminus.mouseout"/>
                        </use>
                        <path d="M-4,0h8" fill="none" stroke="white" stroke-width="1.5" pointer-events="none"/>
                </g>
                <g id="dirArrow">
                        <path fill="none" stroke="white" stroke-width="1.5" d="M0,-3.0v7 M-2.5,-0.5L0,-3.0L2.5,-0.5"/>
                </g>
               <g id="resetDef">
                       <use xlink:href="#rim2" fill="#404040">
                               <set attributeName="fill" to="#808080" begin="reset.mouseover" end="reset.mouseout"/>
                       </use>
               </g>
        </defs>

<script type="text/javascript">
var viewWidth = 2732;
var viewHeight = 285;
var sectionId = 'dynsection-1';
</script>
<script xlink:href="svgpan.js"/>
<svg id="graph" class="graph">
<g id="viewport">
<title>src/common/utils/Arguments.hpp</title>
<polygon fill="white" stroke="transparent" points="-4,4 -4,-281 2728,-281 2728,4 -4,4"/>
<!-- Node1 -->
<g id="node1" class="node">
<title>Node1</title>
<g id="a_node1"><a xlink:title=" ">
<polygon fill="#bfbfbf" stroke="black" points="790.5,-257.5 790.5,-276.5 968.5,-276.5 968.5,-257.5 790.5,-257.5"/>
<text text-anchor="middle" x="879.5" y="-264.5" font-family="Helvetica,sans-Serif" font-size="10.00">src/common/utils/Arguments.hpp</text>
</a>
</g>
</g>
<!-- Node2 -->
<g id="node2" class="node">
<title>Node2</title>
<g id="a_node2"><a xlink:href="O__ServoObjectsTest_8cpp.html" target="_top" xlink:title="Implémentation de la classe O_ServoObjectsTest.">
<polygon fill="white" stroke="black" points="332.5,-0.5 332.5,-30.5 504.5,-30.5 504.5,-0.5 332.5,-0.5"/>
<text text-anchor="start" x="340.5" y="-18.5" font-family="Helvetica,sans-Serif" font-size="10.00">src/bot&#45;opos6ul/O_ServoObjects</text>
<text text-anchor="middle" x="418.5" y="-7.5" font-family="Helvetica,sans-Serif" font-size="10.00">Test.cpp</text>
</a>
</g>
</g>
<!-- Node1&#45;&gt;Node2 -->
<g id="edge1" class="edge">
<title>Node1&#45;&gt;Node2</title>
<path fill="none" stroke="midnightblue" d="M854.78,-252.62C775.16,-209.53 525.79,-74.57 444.45,-30.54"/>
<polygon fill="midnightblue" stroke="midnightblue" points="853.17,-255.73 863.63,-257.41 856.5,-249.57 853.17,-255.73"/>
</g>
<!-- Node3 -->
<g id="node3" class="node">
<title>Node3</title>
<g id="a_node3"><a xlink:href="O__ServoStepTest_8cpp.html" target="_top" xlink:title="Implémentation de la classe O_ServoStepTest.">
<polygon fill="white" stroke="black" points="157,-0.5 157,-30.5 314,-30.5 314,-0.5 157,-0.5"/>
<text text-anchor="start" x="165" y="-18.5" font-family="Helvetica,sans-Serif" font-size="10.00">src/bot&#45;opos6ul/O_ServoStep</text>
<text text-anchor="middle" x="235.5" y="-7.5" font-family="Helvetica,sans-Serif" font-size="10.00">Test.cpp</text>
</a>
</g>
</g>
<!-- Node1&#45;&gt;Node3 -->
<g id="edge2" class="edge">
<title>Node1&#45;&gt;Node3</title>
<path fill="none" stroke="midnightblue" d="M842.92,-254.37C762.97,-228.66 567.05,-164 407.5,-98 355.59,-76.53 296.78,-47.63 263.12,-30.64"/>
<polygon fill="midnightblue" stroke="midnightblue" points="841.94,-257.73 852.53,-257.46 844.08,-251.07 841.94,-257.73"/>
</g>
<!-- Node4 -->
<g id="node4" class="node">
<title>Node4</title>
<g id="a_node4"><a xlink:href="Robot_8hpp.html" target="_top" xlink:title=" ">
<polygon fill="white" stroke="black" points="1387,-201.5 1387,-220.5 1516,-220.5 1516,-201.5 1387,-201.5"/>
<text text-anchor="middle" x="1451.5" y="-208.5" font-family="Helvetica,sans-Serif" font-size="10.00">src/common/Robot.hpp</text>
</a>
</g>
</g>
<!-- Node1&#45;&gt;Node4 -->
<g id="edge3" class="edge">
<title>Node1&#45;&gt;Node4</title>
<path fill="none" stroke="midnightblue" d="M978.6,-256.64C1095.66,-245.59 1287.03,-227.53 1386.64,-218.12"/>
<polygon fill="midnightblue" stroke="midnightblue" points="978.19,-253.17 968.56,-257.59 978.85,-260.14 978.19,-253.17"/>
</g>
<!-- Node31 -->
<g id="node31" class="node">
<title>Node31</title>
<g id="a_node31"><a xlink:href="Arguments_8cpp.html" target="_top" xlink:title=" ">
<polygon fill="white" stroke="black" points="1534,-201.5 1534,-220.5 1711,-220.5 1711,-201.5 1534,-201.5"/>
<text text-anchor="middle" x="1622.5" y="-208.5" font-family="Helvetica,sans-Serif" font-size="10.00">src/common/utils/Arguments.cpp</text>
</a>
</g>
</g>
<!-- Node1&#45;&gt;Node31 -->
<g id="edge64" class="edge">
<title>Node1&#45;&gt;Node31</title>
<path fill="none" stroke="midnightblue" d="M978.72,-259.8C1105.57,-251.71 1331.98,-236.72 1525.5,-221 1528.28,-220.77 1531.11,-220.54 1533.96,-220.3"/>
<polygon fill="midnightblue" stroke="midnightblue" points="978.39,-256.31 968.63,-260.44 978.83,-263.3 978.39,-256.31"/>
</g>
<!-- Node4&#45;&gt;Node2 -->
<g id="edge8" class="edge">
<title>Node4&#45;&gt;Node2</title>
<path fill="none" stroke="midnightblue" d="M1376.75,-206.94C1281.72,-202.14 1112.86,-190.62 970.5,-165 777.11,-130.2 552.66,-60.4 460.88,-30.55"/>
<polygon fill="midnightblue" stroke="midnightblue" points="1376.68,-210.44 1386.84,-207.43 1377.03,-203.44 1376.68,-210.44"/>
</g>
<!-- Node4&#45;&gt;Node3 -->
<g id="edge9" class="edge">
<title>Node4&#45;&gt;Node3</title>
<path fill="none" stroke="midnightblue" d="M1376.98,-208.87C1259.02,-206.13 1022.38,-196.79 824.5,-165 617.82,-131.79 377.53,-60.8 280.01,-30.58"/>
<polygon fill="midnightblue" stroke="midnightblue" points="1376.91,-212.37 1386.99,-209.09 1377.07,-205.37 1376.91,-212.37"/>
</g>
<!-- Node5 -->
<g id="node5" class="node">
<title>Node5</title>
<g id="a_node5"><a xlink:href="src_2bot-opos6ul_2Main_8cpp.html" target="_top" xlink:title=" ">
<polygon fill="white" stroke="black" points="0,-6 0,-25 139,-25 139,-6 0,-6"/>
<text text-anchor="middle" x="69.5" y="-13" font-family="Helvetica,sans-Serif" font-size="10.00">src/bot&#45;opos6ul/Main.cpp</text>
</a>
</g>
</g>
<!-- Node4&#45;&gt;Node5 -->
<g id="edge4" class="edge">
<title>Node4&#45;&gt;Node5</title>
<path fill="none" stroke="midnightblue" d="M1376.8,-210.28C1237.1,-209.8 927.1,-203.95 669.5,-165 444.29,-130.95 180.08,-51.28 96.35,-25.05"/>
<polygon fill="midnightblue" stroke="midnightblue" points="1376.96,-213.78 1386.97,-210.31 1376.98,-206.78 1376.96,-213.78"/>
</g>
<!-- Node6 -->
<g id="node6" class="node">
<title>Node6</title>
<g id="a_node6"><a xlink:href="O__IAbyPathTest_8cpp.html" target="_top" xlink:title="Implementation de la classe O_IAByPathTest.">
<polygon fill="white" stroke="black" points="2264.5,-0.5 2264.5,-30.5 2414.5,-30.5 2414.5,-0.5 2264.5,-0.5"/>
<text text-anchor="start" x="2272.5" y="-18.5" font-family="Helvetica,sans-Serif" font-size="10.00">src/bot&#45;opos6ul/O_IAbyPath</text>
<text text-anchor="middle" x="2339.5" y="-7.5" font-family="Helvetica,sans-Serif" font-size="10.00">Test.cpp</text>
</a>
</g>
</g>
<!-- Node4&#45;&gt;Node6 -->
<g id="edge5" class="edge">
<title>Node4&#45;&gt;Node6</title>
<path fill="none" stroke="midnightblue" d="M1526.16,-201.07C1654.83,-190.94 1935.85,-206.05 2039.5,-165 2059.76,-156.97 2059.58,-146.41 2077.5,-134 2126.12,-100.31 2138.71,-91.62 2192.5,-67 2224.4,-52.4 2261.81,-39.61 2290.9,-30.55"/>
<polygon fill="midnightblue" stroke="midnightblue" points="1525.71,-197.6 1516.05,-201.95 1526.32,-204.57 1525.71,-197.6"/>
</g>
<!-- Node7 -->
<g id="node7" class="node">
<title>Node7</title>
<g id="a_node7"><a xlink:href="O__LedBarTest_8cpp.html" target="_top" xlink:title="Implementation de la classe O_LedBarTest.">
<polygon fill="white" stroke="black" points="523,-0.5 523,-30.5 664,-30.5 664,-0.5 523,-0.5"/>
<text text-anchor="start" x="531" y="-18.5" font-family="Helvetica,sans-Serif" font-size="10.00">src/bot&#45;opos6ul/O_LedBar</text>
<text text-anchor="middle" x="593.5" y="-7.5" font-family="Helvetica,sans-Serif" font-size="10.00">Test.cpp</text>
</a>
</g>
</g>
<!-- Node4&#45;&gt;Node7 -->
<g id="edge6" class="edge">
<title>Node4&#45;&gt;Node7</title>
<path fill="none" stroke="midnightblue" d="M1376.95,-204.21C1304.13,-197.72 1190.4,-185.34 1093.5,-165 918.69,-128.31 716.42,-60 632.79,-30.58"/>
<polygon fill="midnightblue" stroke="midnightblue" points="1376.68,-207.7 1386.95,-205.09 1377.3,-200.73 1376.68,-207.7"/>
</g>
<!-- Node8 -->
<g id="node8" class="node">
<title>Node8</title>
<g id="a_node8"><a xlink:href="O__SensorsTest_8cpp.html" target="_top" xlink:title="Implémentation de la classe O_SensorsTest.">
<polygon fill="white" stroke="black" points="1626.5,-0.5 1626.5,-30.5 1772.5,-30.5 1772.5,-0.5 1626.5,-0.5"/>
<text text-anchor="start" x="1634.5" y="-18.5" font-family="Helvetica,sans-Serif" font-size="10.00">src/bot&#45;opos6ul/O_Sensors</text>
<text text-anchor="middle" x="1699.5" y="-7.5" font-family="Helvetica,sans-Serif" font-size="10.00">Test.cpp</text>
</a>
</g>
</g>
<!-- Node4&#45;&gt;Node8 -->
<g id="edge7" class="edge">
<title>Node4&#45;&gt;Node8</title>
<path fill="none" stroke="midnightblue" d="M1453.82,-191.1C1456.64,-174.63 1462.71,-150.83 1475.5,-134 1517.62,-78.59 1593.45,-46.75 1645.1,-30.54"/>
<polygon fill="midnightblue" stroke="midnightblue" points="1450.34,-190.74 1452.35,-201.15 1457.26,-191.76 1450.34,-190.74"/>
</g>
<!-- Node9 -->
<g id="node9" class="node">
<title>Node9</title>
<g id="a_node9"><a xlink:href="O__State__DecisionMakerIA_8cpp.html" target="_top" xlink:title="Implémentation de la classe O_State_DecisionMakerIA.">
<polygon fill="white" stroke="black" points="2591,-0.5 2591,-30.5 2724,-30.5 2724,-0.5 2591,-0.5"/>
<text text-anchor="start" x="2599" y="-18.5" font-family="Helvetica,sans-Serif" font-size="10.00">src/bot&#45;opos6ul/O_State</text>
<text text-anchor="middle" x="2657.5" y="-7.5" font-family="Helvetica,sans-Serif" font-size="10.00">_DecisionMakerIA.cpp</text>
</a>
</g>
</g>
<!-- Node4&#45;&gt;Node9 -->
<g id="edge10" class="edge">
<title>Node4&#45;&gt;Node9</title>
<path fill="none" stroke="midnightblue" d="M1526.48,-201.16C1681.64,-193.14 2471.82,-215.81 2573.5,-165 2626.49,-138.52 2647.95,-62.78 2654.81,-30.91"/>
<polygon fill="midnightblue" stroke="midnightblue" points="1525.8,-197.69 1516.04,-201.82 1526.24,-204.68 1525.8,-197.69"/>
</g>
<!-- Node10 -->
<g id="node10" class="node">
<title>Node10</title>
<g id="a_node10"><a xlink:href="O__State__Init_8cpp.html" target="_top" xlink:title="Implémentation de la classe O_State_Init.">
<polygon fill="white" stroke="black" points="682,-0.5 682,-30.5 815,-30.5 815,-0.5 682,-0.5"/>
<text text-anchor="start" x="690" y="-18.5" font-family="Helvetica,sans-Serif" font-size="10.00">src/bot&#45;opos6ul/O_State</text>
<text text-anchor="middle" x="748.5" y="-7.5" font-family="Helvetica,sans-Serif" font-size="10.00">_Init.cpp</text>
</a>
</g>
</g>
<!-- Node4&#45;&gt;Node10 -->
<g id="edge11" class="edge">
<title>Node4&#45;&gt;Node10</title>
<path fill="none" stroke="midnightblue" d="M1383.18,-199.93C1333.74,-192.04 1265.53,-179.92 1206.5,-165 1047.66,-124.85 863.57,-59.13 786.01,-30.53"/>
<polygon fill="midnightblue" stroke="midnightblue" points="1382.69,-203.4 1393.12,-201.5 1383.79,-196.48 1382.69,-203.4"/>
</g>
<!-- Node11 -->
<g id="node11" class="node">
<title>Node11</title>
<g id="a_node11"><a xlink:href="O__State__WaitEndOfMatch_8cpp.html" target="_top" xlink:title="Implémentation de la classe O_State_WaitEndOfMatch.">
<polygon fill="white" stroke="black" points="833,-0.5 833,-30.5 966,-30.5 966,-0.5 833,-0.5"/>
<text text-anchor="start" x="841" y="-18.5" font-family="Helvetica,sans-Serif" font-size="10.00">src/bot&#45;opos6ul/O_State</text>
<text text-anchor="middle" x="899.5" y="-7.5" font-family="Helvetica,sans-Serif" font-size="10.00">_WaitEndOfMatch.cpp</text>
</a>
</g>
</g>
<!-- Node4&#45;&gt;Node11 -->
<g id="edge12" class="edge">
<title>Node4&#45;&gt;Node11</title>
<path fill="none" stroke="midnightblue" d="M1409.81,-198.8C1378.46,-190.15 1334.55,-177.59 1296.5,-165 1160.96,-120.17 1002.86,-58 934.23,-30.52"/>
<polygon fill="midnightblue" stroke="midnightblue" points="1408.96,-202.19 1419.53,-201.46 1410.81,-195.44 1408.96,-202.19"/>
</g>
<!-- Node12 -->
<g id="node12" class="node">
<title>Node12</title>
<g id="a_node12"><a xlink:href="OPOS6UL__ActionsExtended_8cpp.html" target="_top" xlink:title="Implémentation de la classe OPOS6UL_ActionsExtended.">
<polygon fill="white" stroke="black" points="2106.5,-0.5 2106.5,-30.5 2246.5,-30.5 2246.5,-0.5 2106.5,-0.5"/>
<text text-anchor="start" x="2114.5" y="-18.5" font-family="Helvetica,sans-Serif" font-size="10.00">src/bot&#45;opos6ul/OPOS6UL</text>
<text text-anchor="middle" x="2176.5" y="-7.5" font-family="Helvetica,sans-Serif" font-size="10.00">_ActionsExtended.cpp</text>
</a>
</g>
</g>
<!-- Node4&#45;&gt;Node12 -->
<g id="edge13" class="edge">
<title>Node4&#45;&gt;Node12</title>
<path fill="none" stroke="midnightblue" d="M1462.13,-193.02C1483.65,-160.57 1535.94,-90.81 1601.5,-67 1705.37,-29.27 1987.88,-45 2097.5,-31 2100.4,-30.63 2103.36,-30.22 2106.35,-29.79"/>
<polygon fill="midnightblue" stroke="midnightblue" points="1459.17,-191.17 1456.68,-201.47 1465.05,-194.97 1459.17,-191.17"/>
</g>
<!-- Node13 -->
<g id="node13" class="node">
<title>Node13</title>
<g id="a_node13"><a xlink:href="OPOS6UL__RobotExtended_8hpp.html" target="_top" xlink:title="Extension de la classe Robot pour la carte OPOS6UL.">
<polygon fill="white" stroke="black" points="1125.5,-67.5 1125.5,-97.5 1265.5,-97.5 1265.5,-67.5 1125.5,-67.5"/>
<text text-anchor="start" x="1133.5" y="-85.5" font-family="Helvetica,sans-Serif" font-size="10.00">src/bot&#45;opos6ul/OPOS6UL</text>
<text text-anchor="middle" x="1195.5" y="-74.5" font-family="Helvetica,sans-Serif" font-size="10.00">_RobotExtended.hpp</text>
</a>
</g>
</g>
<!-- Node4&#45;&gt;Node13 -->
<g id="edge14" class="edge">
<title>Node4&#45;&gt;Node13</title>
<path fill="none" stroke="midnightblue" d="M1424.66,-196.74C1376.11,-172.75 1274.09,-122.33 1224.2,-97.68"/>
<polygon fill="midnightblue" stroke="midnightblue" points="1423.39,-200.01 1433.9,-201.31 1426.49,-193.74 1423.39,-200.01"/>
</g>
<!-- Node20 -->
<g id="node20" class="node">
<title>Node20</title>
<g id="a_node20"><a xlink:href="Sensors_8hpp.html" target="_top" xlink:title="Gestion des capteurs de detection et de distance.">
<polygon fill="white" stroke="black" points="1517.5,-140 1517.5,-159 1689.5,-159 1689.5,-140 1517.5,-140"/>
<text text-anchor="middle" x="1603.5" y="-147" font-family="Helvetica,sans-Serif" font-size="10.00">src/common/action/Sensors.hpp</text>
</a>
</g>
</g>
<!-- Node4&#45;&gt;Node20 -->
<g id="edge30" class="edge">
<title>Node4&#45;&gt;Node20</title>
<path fill="none" stroke="midnightblue" d="M1482.71,-197.78C1512.25,-186.22 1555.82,-169.16 1581.76,-159.01"/>
<polygon fill="midnightblue" stroke="midnightblue" points="1481.31,-194.57 1473.28,-201.48 1483.87,-201.09 1481.31,-194.57"/>
</g>
<!-- Node23 -->
<g id="node23" class="node">
<title>Node23</title>
<g id="a_node23"><a xlink:href="Asserv_8cpp.html" target="_top" xlink:title=" ">
<polygon fill="white" stroke="black" points="1708,-140 1708,-159 1875,-159 1875,-140 1708,-140"/>
<text text-anchor="middle" x="1791.5" y="-147" font-family="Helvetica,sans-Serif" font-size="10.00">src/common/asserv/Asserv.cpp</text>
</a>
</g>
</g>
<!-- Node4&#45;&gt;Node23 -->
<g id="edge50" class="edge">
<title>Node4&#45;&gt;Node23</title>
<path fill="none" stroke="midnightblue" d="M1510.43,-199.69C1576.24,-188.17 1681.57,-169.74 1742.88,-159.01"/>
<polygon fill="midnightblue" stroke="midnightblue" points="1509.46,-196.3 1500.21,-201.48 1510.67,-203.2 1509.46,-196.3"/>
</g>
<!-- Node24 -->
<g id="node24" class="node">
<title>Node24</title>
<g id="a_node24"><a xlink:href="AsservEsialR_8cpp.html" target="_top" xlink:title=" ">
<polygon fill="white" stroke="black" points="1893,-134.5 1893,-164.5 2030,-164.5 2030,-134.5 1893,-134.5"/>
<text text-anchor="start" x="1901" y="-152.5" font-family="Helvetica,sans-Serif" font-size="10.00">src/common/asserv.esial</text>
<text text-anchor="middle" x="1961.5" y="-141.5" font-family="Helvetica,sans-Serif" font-size="10.00">/AsservEsialR.cpp</text>
</a>
</g>
</g>
<!-- Node4&#45;&gt;Node24 -->
<g id="edge51" class="edge">
<title>Node4&#45;&gt;Node24</title>
<path fill="none" stroke="midnightblue" d="M1526.29,-200.94C1686.61,-183.49 1729.04,-187.39 1884.5,-165 1887.19,-164.61 1889.93,-164.2 1892.7,-163.76"/>
<polygon fill="midnightblue" stroke="midnightblue" points="1525.62,-197.49 1516.06,-202.07 1526.39,-204.45 1525.62,-197.49"/>
</g>
<!-- Node25 -->
<g id="node25" class="node">
<title>Node25</title>
<g id="a_node25"><a xlink:href="IAbyPath_8hpp.html" target="_top" xlink:title=" ">
<polygon fill="white" stroke="black" points="2409,-140 2409,-159 2564,-159 2564,-140 2409,-140"/>
<text text-anchor="middle" x="2486.5" y="-147" font-family="Helvetica,sans-Serif" font-size="10.00">src/common/ia/IAbyPath.hpp</text>
</a>
</g>
</g>
<!-- Node4&#45;&gt;Node25 -->
<g id="edge52" class="edge">
<title>Node4&#45;&gt;Node25</title>
<path fill="none" stroke="midnightblue" d="M1526.15,-201.03C1914.72,-170.11 2016.1,-204.69 2399.5,-165 2413.36,-163.57 2428.36,-161.32 2441.94,-159.02"/>
<polygon fill="midnightblue" stroke="midnightblue" points="1525.73,-197.55 1516.04,-201.84 1526.29,-204.53 1525.73,-197.55"/>
</g>
<!-- Node29 -->
<g id="node29" class="node">
<title>Node29</title>
<g id="a_node29"><a xlink:href="IAbyZone_8cpp.html" target="_top" xlink:title=" ">
<polygon fill="white" stroke="black" points="2086.5,-140 2086.5,-159 2244.5,-159 2244.5,-140 2086.5,-140"/>
<text text-anchor="middle" x="2165.5" y="-147" font-family="Helvetica,sans-Serif" font-size="10.00">src/common/ia/IAbyZone.cpp</text>
</a>
</g>
</g>
<!-- Node4&#45;&gt;Node29 -->
<g id="edge62" class="edge">
<title>Node4&#45;&gt;Node29</title>
<path fill="none" stroke="midnightblue" d="M1526.28,-200.99C1769.81,-178.65 1833.65,-191.43 2072.5,-165 2086.63,-163.44 2101.9,-161.26 2115.9,-159.07"/>
<polygon fill="midnightblue" stroke="midnightblue" points="1525.68,-197.53 1516.05,-201.94 1526.33,-204.5 1525.68,-197.53"/>
</g>
<!-- Node30 -->
<g id="node30" class="node">
<title>Node30</title>
<g id="a_node30"><a xlink:href="Robot_8cpp.html" target="_top" xlink:title="Implémentation de la classe Robot.">
<polygon fill="white" stroke="black" points="2262.5,-140 2262.5,-159 2390.5,-159 2390.5,-140 2262.5,-140"/>
<text text-anchor="middle" x="2326.5" y="-147" font-family="Helvetica,sans-Serif" font-size="10.00">src/common/Robot.cpp</text>
</a>
</g>
</g>
<!-- Node4&#45;&gt;Node30 -->
<g id="edge63" class="edge">
<title>Node4&#45;&gt;Node30</title>
<path fill="none" stroke="midnightblue" d="M1526.19,-201.02C1850.02,-174.06 1935.28,-204.26 2253.5,-165 2265.17,-163.56 2277.77,-161.31 2289.16,-159.01"/>
<polygon fill="midnightblue" stroke="midnightblue" points="1525.72,-197.54 1516.05,-201.87 1526.3,-204.52 1525.72,-197.54"/>
</g>
<!-- Node13&#45;&gt;Node2 -->
<g id="edge22" class="edge">
<title>Node13&#45;&gt;Node2</title>
<path fill="none" stroke="midnightblue" d="M1115.04,-77.57C987.29,-70.87 730.3,-55.54 513.5,-31 510.6,-30.67 507.65,-30.32 504.67,-29.95"/>
<polygon fill="midnightblue" stroke="midnightblue" points="1114.97,-81.07 1125.13,-78.09 1115.33,-74.08 1114.97,-81.07"/>
</g>
<!-- Node13&#45;&gt;Node3 -->
<g id="edge23" class="edge">
<title>Node13&#45;&gt;Node3</title>
<path fill="none" stroke="midnightblue" d="M1115.19,-79.68C961.2,-75.56 613.93,-63.25 323.5,-31 320.42,-30.66 317.29,-30.28 314.13,-29.88"/>
<polygon fill="midnightblue" stroke="midnightblue" points="1115.4,-83.19 1125.49,-79.95 1115.59,-76.19 1115.4,-83.19"/>
</g>
<!-- Node13&#45;&gt;Node5 -->
<g id="edge15" class="edge">
<title>Node13&#45;&gt;Node5</title>
<path fill="none" stroke="midnightblue" d="M1115.11,-81.33C939.12,-80.16 506.73,-72.85 147.5,-31 135.19,-29.57 121.89,-27.35 109.83,-25.07"/>
<polygon fill="midnightblue" stroke="midnightblue" points="1115.3,-84.84 1125.32,-81.4 1115.35,-77.84 1115.3,-84.84"/>
</g>
<!-- Node13&#45;&gt;Node6 -->
<g id="edge18" class="edge">
<title>Node13&#45;&gt;Node6</title>
<path fill="none" stroke="midnightblue" d="M1275.63,-67C1709.93,-20.35 1824.84,-75.87 2255.5,-31 2258.44,-30.69 2261.44,-30.35 2264.46,-29.97"/>
<polygon fill="midnightblue" stroke="midnightblue" points="1275.2,-63.52 1265.63,-68.08 1275.95,-70.48 1275.2,-63.52"/>
</g>
<!-- Node13&#45;&gt;Node7 -->
<g id="edge20" class="edge">
<title>Node13&#45;&gt;Node7</title>
<path fill="none" stroke="midnightblue" d="M1115.49,-75.91C1012.67,-68.23 828.78,-52.85 672.5,-31 669.74,-30.61 666.93,-30.2 664.09,-29.76"/>
<polygon fill="midnightblue" stroke="midnightblue" points="1115.25,-79.4 1125.49,-76.65 1115.77,-72.42 1115.25,-79.4"/>
</g>
<!-- Node13&#45;&gt;Node8 -->
<g id="edge21" class="edge">
<title>Node13&#45;&gt;Node8</title>
<path fill="none" stroke="midnightblue" d="M1275.85,-66.88C1427.97,-45.44 1468.97,-51.9 1617.5,-31 1620.36,-30.6 1623.28,-30.17 1626.22,-29.72"/>
<polygon fill="midnightblue" stroke="midnightblue" points="1275.07,-63.45 1265.67,-68.33 1276.06,-70.38 1275.07,-63.45"/>
</g>
<!-- Node13&#45;&gt;Node9 -->
<g id="edge24" class="edge">
<title>Node13&#45;&gt;Node9</title>
<path fill="none" stroke="midnightblue" d="M1275.9,-66.98C1854.23,-7.38 2007.16,-93.29 2581.5,-31 2584.57,-30.67 2587.7,-30.28 2590.86,-29.84"/>
<polygon fill="midnightblue" stroke="midnightblue" points="1275.21,-63.53 1265.63,-68.05 1275.94,-70.49 1275.21,-63.53"/>
</g>
<!-- Node13&#45;&gt;Node10 -->
<g id="edge25" class="edge">
<title>Node13&#45;&gt;Node10</title>
<path fill="none" stroke="midnightblue" d="M1115.02,-71.9C1039.54,-62.58 923.62,-47.46 823.5,-31 820.75,-30.55 817.95,-30.07 815.12,-29.58"/>
<polygon fill="midnightblue" stroke="midnightblue" points="1115.04,-75.43 1125.39,-73.17 1115.89,-68.48 1115.04,-75.43"/>
</g>
<!-- Node13&#45;&gt;Node11 -->
<g id="edge26" class="edge">
<title>Node13&#45;&gt;Node11</title>
<path fill="none" stroke="midnightblue" d="M1121.8,-65.32C1073.15,-54.63 1010.04,-40.77 963.5,-30.55"/>
<polygon fill="midnightblue" stroke="midnightblue" points="1121.12,-68.75 1131.64,-67.48 1122.62,-61.91 1121.12,-68.75"/>
</g>
<!-- Node14 -->
<g id="node14" class="node">
<title>Node14</title>
<g id="a_node14"><a xlink:href="O__ActionManagerTimerTest_8cpp.html" target="_top" xlink:title="Implémentation de la classe O_ActionManagerTimerTest.">
<polygon fill="white" stroke="black" points="1142.5,-0.5 1142.5,-30.5 1280.5,-30.5 1280.5,-0.5 1142.5,-0.5"/>
<text text-anchor="start" x="1150.5" y="-18.5" font-family="Helvetica,sans-Serif" font-size="10.00">src/bot&#45;opos6ul/O_Action</text>
<text text-anchor="middle" x="1211.5" y="-7.5" font-family="Helvetica,sans-Serif" font-size="10.00">ManagerTimerTest.cpp</text>
</a>
</g>
</g>
<!-- Node13&#45;&gt;Node14 -->
<g id="edge16" class="edge">
<title>Node13&#45;&gt;Node14</title>
<path fill="none" stroke="midnightblue" d="M1201.43,-57.4C1203.66,-48.37 1206.11,-38.41 1208.04,-30.58"/>
<polygon fill="midnightblue" stroke="midnightblue" points="1197.96,-56.85 1198.97,-67.4 1204.76,-58.52 1197.96,-56.85"/>
</g>
<!-- Node15 -->
<g id="node15" class="node">
<title>Node15</title>
<g id="a_node15"><a xlink:href="O__ButtonBarTest_8cpp.html" target="_top" xlink:title="Implémentation de la classe O_ButtonBarTest.">
<polygon fill="white" stroke="black" points="1298.5,-0.5 1298.5,-30.5 1438.5,-30.5 1438.5,-0.5 1298.5,-0.5"/>
<text text-anchor="start" x="1306.5" y="-18.5" font-family="Helvetica,sans-Serif" font-size="10.00">src/bot&#45;opos6ul/O_Button</text>
<text text-anchor="middle" x="1368.5" y="-7.5" font-family="Helvetica,sans-Serif" font-size="10.00">BarTest.cpp</text>
</a>
</g>
</g>
<!-- Node13&#45;&gt;Node15 -->
<g id="edge17" class="edge">
<title>Node13&#45;&gt;Node15</title>
<path fill="none" stroke="midnightblue" d="M1242.56,-63.82C1270.37,-53.37 1305.09,-40.32 1331.03,-30.58"/>
<polygon fill="midnightblue" stroke="midnightblue" points="1241.17,-60.6 1233.04,-67.4 1243.63,-67.16 1241.17,-60.6"/>
</g>
<!-- Node16 -->
<g id="node16" class="node">
<title>Node16</title>
<g id="a_node16"><a xlink:href="O__LcdBoardTest_8cpp.html" target="_top" xlink:title="Implémentation de la classe O_LcdBoardTest.">
<polygon fill="white" stroke="black" points="1456.5,-0.5 1456.5,-30.5 1608.5,-30.5 1608.5,-0.5 1456.5,-0.5"/>
<text text-anchor="start" x="1464.5" y="-18.5" font-family="Helvetica,sans-Serif" font-size="10.00">src/bot&#45;opos6ul/O_LcdBoard</text>
<text text-anchor="middle" x="1532.5" y="-7.5" font-family="Helvetica,sans-Serif" font-size="10.00">Test.cpp</text>
</a>
</g>
</g>
<!-- Node13&#45;&gt;Node16 -->
<g id="edge19" class="edge">
<title>Node13&#45;&gt;Node16</title>
<path fill="none" stroke="midnightblue" d="M1275.6,-66.05C1331.5,-55.27 1405.52,-40.99 1459.74,-30.53"/>
<polygon fill="midnightblue" stroke="midnightblue" points="1274.89,-62.62 1265.74,-67.95 1276.22,-69.5 1274.89,-62.62"/>
</g>
<!-- Node17 -->
<g id="node17" class="node">
<title>Node17</title>
<g id="a_node17"><a xlink:href="O__TiretteTest_8cpp.html" target="_top" xlink:title="Implémentation de la classe O_TiretteTest.">
<polygon fill="white" stroke="black" points="984.5,-0.5 984.5,-30.5 1124.5,-30.5 1124.5,-0.5 984.5,-0.5"/>
<text text-anchor="start" x="992.5" y="-18.5" font-family="Helvetica,sans-Serif" font-size="10.00">src/bot&#45;opos6ul/O_Tirette</text>
<text text-anchor="middle" x="1054.5" y="-7.5" font-family="Helvetica,sans-Serif" font-size="10.00">Test.cpp</text>
</a>
</g>
</g>
<!-- Node13&#45;&gt;Node17 -->
<g id="edge27" class="edge">
<title>Node13&#45;&gt;Node17</title>
<path fill="none" stroke="midnightblue" d="M1155.65,-63.13C1133.25,-52.8 1105.72,-40.11 1085.04,-30.58"/>
<polygon fill="midnightblue" stroke="midnightblue" points="1154.36,-66.39 1164.91,-67.4 1157.29,-60.03 1154.36,-66.39"/>
</g>
<!-- Node18 -->
<g id="node18" class="node">
<title>Node18</title>
<g id="a_node18"><a xlink:href="OPOS6UL__AsservExtended_8cpp.html" target="_top" xlink:title="Implémentation de la classe OPOS6UL_AsservExtended.">
<polygon fill="white" stroke="black" points="1948.5,-0.5 1948.5,-30.5 2088.5,-30.5 2088.5,-0.5 1948.5,-0.5"/>
<text text-anchor="start" x="1956.5" y="-18.5" font-family="Helvetica,sans-Serif" font-size="10.00">src/bot&#45;opos6ul/OPOS6UL</text>
<text text-anchor="middle" x="2018.5" y="-7.5" font-family="Helvetica,sans-Serif" font-size="10.00">_AsservExtended.cpp</text>
</a>
</g>
</g>
<!-- Node13&#45;&gt;Node18 -->
<g id="edge28" class="edge">
<title>Node13&#45;&gt;Node18</title>
<path fill="none" stroke="midnightblue" d="M1275.76,-66.96C1570.2,-32.96 1648.86,-65.4 1939.5,-31 1942.41,-30.66 1945.37,-30.27 1948.36,-29.85"/>
<polygon fill="midnightblue" stroke="midnightblue" points="1275.17,-63.51 1265.64,-68.15 1275.98,-70.46 1275.17,-63.51"/>
</g>
<!-- Node19 -->
<g id="node19" class="node">
<title>Node19</title>
<g id="a_node19"><a xlink:href="OPOS6UL__RobotExtended_8cpp.html" target="_top" xlink:title="Implémentation de la classe OPOS6UL_RobotExtended.">
<polygon fill="white" stroke="black" points="1790.5,-0.5 1790.5,-30.5 1930.5,-30.5 1930.5,-0.5 1790.5,-0.5"/>
<text text-anchor="start" x="1798.5" y="-18.5" font-family="Helvetica,sans-Serif" font-size="10.00">src/bot&#45;opos6ul/OPOS6UL</text>
<text text-anchor="middle" x="1860.5" y="-7.5" font-family="Helvetica,sans-Serif" font-size="10.00">_RobotExtended.cpp</text>
</a>
</g>
</g>
<!-- Node13&#45;&gt;Node19 -->
<g id="edge29" class="edge">
<title>Node13&#45;&gt;Node19</title>
<path fill="none" stroke="midnightblue" d="M1275.77,-66.94C1500.36,-39.17 1560.68,-59.02 1781.5,-31 1784.41,-30.63 1787.37,-30.23 1790.35,-29.79"/>
<polygon fill="midnightblue" stroke="midnightblue" points="1275.13,-63.49 1265.65,-68.21 1276.01,-70.44 1275.13,-63.49"/>
</g>
<!-- Node20&#45;&gt;Node6 -->
<g id="edge31" class="edge">
<title>Node20&#45;&gt;Node6</title>
<path fill="none" stroke="midnightblue" d="M1602.27,-129.79C1602.15,-110.8 1605.32,-82.11 1623.5,-67 1677.59,-22.04 2185.62,-39 2255.5,-31 2258.44,-30.66 2261.43,-30.29 2264.46,-29.89"/>
<polygon fill="midnightblue" stroke="midnightblue" points="1598.78,-130.05 1602.64,-139.92 1605.77,-129.79 1598.78,-130.05"/>
</g>
<!-- Node20&#45;&gt;Node8 -->
<g id="edge32" class="edge">
<title>Node20&#45;&gt;Node8</title>
<path fill="none" stroke="midnightblue" d="M1593.79,-130.76C1585.63,-113.22 1577.13,-86.3 1589.5,-67 1600.67,-49.58 1619.53,-38.08 1638.51,-30.54"/>
<polygon fill="midnightblue" stroke="midnightblue" points="1590.76,-132.52 1598.39,-139.87 1597,-129.37 1590.76,-132.52"/>
</g>
<!-- Node20&#45;&gt;Node9 -->
<g id="edge33" class="edge">
<title>Node20&#45;&gt;Node9</title>
<path fill="none" stroke="midnightblue" d="M1664.3,-138.43C1675.96,-136.75 1688.09,-135.17 1699.5,-134 1987.75,-104.33 2067.65,-160.95 2350.5,-98 2386.51,-89.99 2392.25,-77.88 2427.5,-67 2457.48,-57.74 2534.2,-41.43 2590.83,-29.85"/>
<polygon fill="midnightblue" stroke="midnightblue" points="1663.58,-135 1654.2,-139.92 1664.61,-141.92 1663.58,-135"/>
</g>
<!-- Node21 -->
<g id="node21" class="node">
<title>Node21</title>
<g id="a_node21"><a xlink:href="OPOS6UL__ActionsExtended_8hpp.html" target="_top" xlink:title="Extension des actions du robot pour la carte OPOS6UL.">
<polygon fill="white" stroke="black" points="1283.5,-67.5 1283.5,-97.5 1423.5,-97.5 1423.5,-67.5 1283.5,-67.5"/>
<text text-anchor="start" x="1291.5" y="-85.5" font-family="Helvetica,sans-Serif" font-size="10.00">src/bot&#45;opos6ul/OPOS6UL</text>
<text text-anchor="middle" x="1353.5" y="-74.5" font-family="Helvetica,sans-Serif" font-size="10.00">_ActionsExtended.hpp</text>
</a>
</g>
</g>
<!-- Node20&#45;&gt;Node21 -->
<g id="edge34" class="edge">
<title>Node20&#45;&gt;Node21</title>
<path fill="none" stroke="midnightblue" d="M1560.84,-137.41C1518.51,-126.4 1453.5,-109.5 1407.57,-97.56"/>
<polygon fill="midnightblue" stroke="midnightblue" points="1560,-140.81 1570.56,-139.94 1561.76,-134.03 1560,-140.81"/>
</g>
<!-- Node22 -->
<g id="node22" class="node">
<title>Node22</title>
<g id="a_node22"><a xlink:href="Sensors_8cpp.html" target="_top" xlink:title=" ">
<polygon fill="white" stroke="black" points="1632,-73 1632,-92 1803,-92 1803,-73 1632,-73"/>
<text text-anchor="middle" x="1717.5" y="-80" font-family="Helvetica,sans-Serif" font-size="10.00">src/common/action/Sensors.cpp</text>
</a>
</g>
</g>
<!-- Node20&#45;&gt;Node22 -->
<g id="edge49" class="edge">
<title>Node20&#45;&gt;Node22</title>
<path fill="none" stroke="midnightblue" d="M1627.85,-134.62C1650.44,-121.74 1683.34,-102.98 1702.37,-92.13"/>
<polygon fill="midnightblue" stroke="midnightblue" points="1625.83,-131.74 1618.87,-139.73 1629.3,-137.82 1625.83,-131.74"/>
</g>
<!-- Node21&#45;&gt;Node2 -->
<g id="edge41" class="edge">
<title>Node21&#45;&gt;Node2</title>
<path fill="none" stroke="midnightblue" d="M1273.32,-66.98C936.38,-29.05 847.14,-64.26 513.5,-31 510.59,-30.71 507.64,-30.39 504.66,-30.05"/>
<polygon fill="midnightblue" stroke="midnightblue" points="1273.03,-70.47 1283.36,-68.12 1273.82,-63.51 1273.03,-70.47"/>
</g>
<!-- Node21&#45;&gt;Node3 -->
<g id="edge42" class="edge">
<title>Node21&#45;&gt;Node3</title>
<path fill="none" stroke="midnightblue" d="M1273.36,-66.99C852.34,-21.52 741.04,-73.14 323.5,-31 320.42,-30.69 317.28,-30.34 314.12,-29.96"/>
<polygon fill="midnightblue" stroke="midnightblue" points="1273.05,-70.48 1283.37,-68.09 1273.8,-63.52 1273.05,-70.48"/>
</g>
<!-- Node21&#45;&gt;Node6 -->
<g id="edge37" class="edge">
<title>Node21&#45;&gt;Node6</title>
<path fill="none" stroke="midnightblue" d="M1433.84,-76.42C1479.48,-73.57 1537.68,-69.99 1589.5,-67 1885.44,-49.91 1960.94,-64.27 2255.5,-31 2258.44,-30.67 2261.44,-30.3 2264.46,-29.9"/>
<polygon fill="midnightblue" stroke="midnightblue" points="1433.47,-72.93 1423.71,-77.05 1433.91,-79.92 1433.47,-72.93"/>
</g>
<!-- Node21&#45;&gt;Node7 -->
<g id="edge39" class="edge">
<title>Node21&#45;&gt;Node7</title>
<path fill="none" stroke="midnightblue" d="M1273.38,-66.97C1006.68,-35.43 935.34,-62.86 672.5,-31 669.73,-30.66 666.91,-30.29 664.07,-29.89"/>
<polygon fill="midnightblue" stroke="midnightblue" points="1273.01,-70.45 1283.36,-68.17 1273.84,-63.5 1273.01,-70.45"/>
</g>
<!-- Node21&#45;&gt;Node8 -->
<g id="edge40" class="edge">
<title>Node21&#45;&gt;Node8</title>
<path fill="none" stroke="midnightblue" d="M1433.41,-66.49C1491.58,-55.56 1569.75,-40.87 1626.3,-30.25"/>
<polygon fill="midnightblue" stroke="midnightblue" points="1432.7,-63.06 1423.52,-68.35 1433.99,-69.94 1432.7,-63.06"/>
</g>
<!-- Node21&#45;&gt;Node9 -->
<g id="edge43" class="edge">
<title>Node21&#45;&gt;Node9</title>
<path fill="none" stroke="midnightblue" d="M1433.84,-76.85C1487.52,-73.82 1559.73,-69.91 1623.5,-67 2049.14,-47.57 2158.14,-79.06 2581.5,-31 2584.57,-30.65 2587.7,-30.25 2590.86,-29.8"/>
<polygon fill="midnightblue" stroke="midnightblue" points="1433.48,-73.36 1423.7,-77.42 1433.88,-80.35 1433.48,-73.36"/>
</g>
<!-- Node21&#45;&gt;Node10 -->
<g id="edge44" class="edge">
<title>Node21&#45;&gt;Node10</title>
<path fill="none" stroke="midnightblue" d="M1273.4,-66.95C1073.4,-41.36 1019.53,-57.69 823.5,-31 820.74,-30.62 817.93,-30.21 815.09,-29.77"/>
<polygon fill="midnightblue" stroke="midnightblue" points="1272.98,-70.42 1283.35,-68.24 1273.88,-63.48 1272.98,-70.42"/>
</g>
<!-- Node21&#45;&gt;Node11 -->
<g id="edge45" class="edge">
<title>Node21&#45;&gt;Node11</title>
<path fill="none" stroke="midnightblue" d="M1273.18,-66.86C1140.43,-47.12 1104.53,-51.05 975.5,-31 972.45,-30.53 969.33,-30.02 966.18,-29.49"/>
<polygon fill="midnightblue" stroke="midnightblue" points="1272.92,-70.36 1283.33,-68.39 1273.96,-63.44 1272.92,-70.36"/>
</g>
<!-- Node21&#45;&gt;Node12 -->
<g id="edge47" class="edge">
<title>Node21&#45;&gt;Node12</title>
<path fill="none" stroke="midnightblue" d="M1433.56,-73.79C1459.1,-71.45 1487.47,-68.98 1513.5,-67 1772.8,-47.26 1839.37,-62.53 2097.5,-31 2100.41,-30.64 2103.37,-30.25 2106.36,-29.83"/>
<polygon fill="midnightblue" stroke="midnightblue" points="1433.2,-70.31 1423.56,-74.71 1433.84,-77.28 1433.2,-70.31"/>
</g>
<!-- Node21&#45;&gt;Node14 -->
<g id="edge35" class="edge">
<title>Node21&#45;&gt;Node14</title>
<path fill="none" stroke="midnightblue" d="M1313.37,-63.13C1290.81,-52.8 1263.08,-40.11 1242.25,-30.58"/>
<polygon fill="midnightblue" stroke="midnightblue" points="1312.14,-66.42 1322.69,-67.4 1315.05,-60.05 1312.14,-66.42"/>
</g>
<!-- Node21&#45;&gt;Node15 -->
<g id="edge36" class="edge">
<title>Node21&#45;&gt;Node15</title>
<path fill="none" stroke="midnightblue" d="M1359.06,-57.4C1361.15,-48.37 1363.44,-38.41 1365.25,-30.58"/>
<polygon fill="midnightblue" stroke="midnightblue" points="1355.59,-56.87 1356.75,-67.4 1362.41,-58.44 1355.59,-56.87"/>
</g>
<!-- Node21&#45;&gt;Node16 -->
<g id="edge38" class="edge">
<title>Node21&#45;&gt;Node16</title>
<path fill="none" stroke="midnightblue" d="M1401.82,-63.96C1430.65,-53.48 1466.78,-40.37 1493.74,-30.58"/>
<polygon fill="midnightblue" stroke="midnightblue" points="1400.55,-60.69 1392.34,-67.4 1402.93,-67.27 1400.55,-60.69"/>
</g>
<!-- Node21&#45;&gt;Node17 -->
<g id="edge46" class="edge">
<title>Node21&#45;&gt;Node17</title>
<path fill="none" stroke="midnightblue" d="M1279.05,-65.32C1229.91,-54.63 1166.16,-40.77 1119.15,-30.55"/>
<polygon fill="midnightblue" stroke="midnightblue" points="1278.47,-68.77 1288.99,-67.48 1279.96,-61.93 1278.47,-68.77"/>
</g>
<!-- Node21&#45;&gt;Node19 -->
<g id="edge48" class="edge">
<title>Node21&#45;&gt;Node19</title>
<path fill="none" stroke="midnightblue" d="M1433.72,-73.59C1519.87,-64.72 1660.69,-49.19 1781.5,-31 1784.4,-30.56 1787.35,-30.1 1790.33,-29.62"/>
<polygon fill="midnightblue" stroke="midnightblue" points="1433.33,-70.11 1423.74,-74.61 1434.05,-77.07 1433.33,-70.11"/>
</g>
<!-- Node25&#45;&gt;Node6 -->
<g id="edge53" class="edge">
<title>Node25&#45;&gt;Node6</title>
<path fill="none" stroke="midnightblue" d="M2468.16,-133.12C2456.43,-123.2 2440.95,-109.98 2427.5,-98 2401.37,-74.74 2371.64,-46.91 2354.28,-30.52"/>
<polygon fill="midnightblue" stroke="midnightblue" points="2466.05,-135.92 2475.95,-139.68 2470.56,-130.56 2466.05,-135.92"/>
</g>
<!-- Node25&#45;&gt;Node9 -->
<g id="edge54" class="edge">
<title>Node25&#45;&gt;Node9</title>
<path fill="none" stroke="midnightblue" d="M2526.64,-136.74C2549.94,-128.53 2578.86,-115.82 2600.5,-98 2623.56,-79.02 2641.48,-48.47 2650.68,-30.66"/>
<polygon fill="midnightblue" stroke="midnightblue" points="2525.39,-133.47 2517.04,-139.99 2527.64,-140.1 2525.39,-133.47"/>
</g>
<!-- Node26 -->
<g id="node26" class="node">
<title>Node26</title>
<g id="a_node26"><a xlink:href="OPOS6UL__IAExtended_8hpp.html" target="_top" xlink:title="Extension de l&#39;intelligence artificielle pour la carte OPOS6UL.">
<polygon fill="white" stroke="black" points="2201.5,-67.5 2201.5,-97.5 2341.5,-97.5 2341.5,-67.5 2201.5,-67.5"/>
<text text-anchor="start" x="2209.5" y="-85.5" font-family="Helvetica,sans-Serif" font-size="10.00">src/bot&#45;opos6ul/OPOS6UL</text>
<text text-anchor="middle" x="2271.5" y="-74.5" font-family="Helvetica,sans-Serif" font-size="10.00">_IAExtended.hpp</text>
</a>
</g>
</g>
<!-- Node25&#45;&gt;Node26 -->
<g id="edge55" class="edge">
<title>Node25&#45;&gt;Node26</title>
<path fill="none" stroke="midnightblue" d="M2448.19,-136.92C2411.73,-125.9 2356.82,-109.29 2317.9,-97.53"/>
<polygon fill="midnightblue" stroke="midnightblue" points="2447.36,-140.32 2457.95,-139.87 2449.39,-133.62 2447.36,-140.32"/>
</g>
<!-- Node28 -->
<g id="node28" class="node">
<title>Node28</title>
<g id="a_node28"><a xlink:href="IAbyPath_8cpp.html" target="_top" xlink:title=" ">
<polygon fill="white" stroke="black" points="2436,-73 2436,-92 2591,-92 2591,-73 2436,-73"/>
<text text-anchor="middle" x="2513.5" y="-80" font-family="Helvetica,sans-Serif" font-size="10.00">src/common/ia/IAbyPath.cpp</text>
</a>
</g>
</g>
<!-- Node25&#45;&gt;Node28 -->
<g id="edge61" class="edge">
<title>Node25&#45;&gt;Node28</title>
<path fill="none" stroke="midnightblue" d="M2494.06,-130.29C2499.25,-117.81 2505.89,-101.81 2509.92,-92.13"/>
<polygon fill="midnightblue" stroke="midnightblue" points="2490.75,-129.16 2490.14,-139.73 2497.21,-131.84 2490.75,-129.16"/>
</g>
<!-- Node26&#45;&gt;Node6 -->
<g id="edge56" class="edge">
<title>Node26&#45;&gt;Node6</title>
<path fill="none" stroke="midnightblue" d="M2293.67,-60.31C2303.87,-50.56 2315.69,-39.26 2324.77,-30.58"/>
<polygon fill="midnightblue" stroke="midnightblue" points="2291.07,-57.96 2286.25,-67.4 2295.9,-63.02 2291.07,-57.96"/>
</g>
<!-- Node26&#45;&gt;Node9 -->
<g id="edge57" class="edge">
<title>Node26&#45;&gt;Node9</title>
<path fill="none" stroke="midnightblue" d="M2351.65,-67.64C2352.94,-67.42 2354.23,-67.21 2355.5,-67 2455.84,-50.35 2481.31,-48.53 2581.5,-31 2584.54,-30.47 2587.65,-29.91 2590.79,-29.35"/>
<polygon fill="midnightblue" stroke="midnightblue" points="2350.9,-64.22 2341.61,-69.33 2352.06,-71.12 2350.9,-64.22"/>
</g>
<!-- Node26&#45;&gt;Node18 -->
<g id="edge58" class="edge">
<title>Node26&#45;&gt;Node18</title>
<path fill="none" stroke="midnightblue" d="M2207.22,-64.98C2165.89,-54.37 2112.77,-40.72 2073.42,-30.61"/>
<polygon fill="midnightblue" stroke="midnightblue" points="2206.36,-68.38 2216.91,-67.48 2208.1,-61.6 2206.36,-68.38"/>
</g>
<!-- Node26&#45;&gt;Node19 -->
<g id="edge60" class="edge">
<title>Node26&#45;&gt;Node19</title>
<path fill="none" stroke="midnightblue" d="M2191.34,-70.01C2124.03,-60.19 2025.36,-45.41 1939.5,-31 1936.61,-30.52 1933.67,-30.01 1930.69,-29.5"/>
<polygon fill="midnightblue" stroke="midnightblue" points="2191.05,-73.5 2201.45,-71.48 2192.06,-66.58 2191.05,-73.5"/>
</g>
<!-- Node27 -->
<g id="node27" class="node">
<title>Node27</title>
<g id="a_node27"><a xlink:href="OPOS6UL__IAExtended_8cpp.html" target="_top" xlink:title="Implémentation de la classe OPOS6UL_IAExtended.">
<polygon fill="white" stroke="black" points="2432.5,-0.5 2432.5,-30.5 2572.5,-30.5 2572.5,-0.5 2432.5,-0.5"/>
<text text-anchor="start" x="2440.5" y="-18.5" font-family="Helvetica,sans-Serif" font-size="10.00">src/bot&#45;opos6ul/OPOS6UL</text>
<text text-anchor="middle" x="2502.5" y="-7.5" font-family="Helvetica,sans-Serif" font-size="10.00">_IAExtended.cpp</text>
</a>
</g>
</g>
<!-- Node26&#45;&gt;Node27 -->
<g id="edge59" class="edge">
<title>Node26&#45;&gt;Node27</title>
<path fill="none" stroke="midnightblue" d="M2331.15,-64.71C2368.74,-54.14 2416.73,-40.63 2452.35,-30.61"/>
<polygon fill="midnightblue" stroke="midnightblue" points="2330.02,-61.4 2321.34,-67.48 2331.91,-68.14 2330.02,-61.4"/>
</g>
</g>
</svg>
        <g id="navigator" transform="translate(0 0)" fill="#404254">
                <rect fill="#f2f5e9" fill-opacity="0.5" stroke="#606060" stroke-width=".5" x="0" y="0" width="60" height="60"/>
                <use id="zoomplus" xlink:href="#zoomPlus" x="17" y="9" onmousedown="handleZoom(evt,'in')"/>
                <use id="zoomminus" xlink:href="#zoomMin" x="42" y="9" onmousedown="handleZoom(evt,'out')"/>
                <use id="reset" xlink:href="#resetDef" x="30" y="36" onmousedown="handleReset()"/>
                <g id="arrowUp" xlink:href="#dirArrow" transform="translate(30 24)" onmousedown="handlePan(0,-1)">
                  <use xlink:href="#rim" fill="#404040">
                        <set attributeName="fill" to="#808080" begin="arrowUp.mouseover" end="arrowUp.mouseout"/>
                  </use>
                  <path fill="none" stroke="white" stroke-width="1.5" d="M0,-3.0v7 M-2.5,-0.5L0,-3.0L2.5,-0.5"/>
                </g>
                <g id="arrowRight" xlink:href="#dirArrow" transform="rotate(90) translate(36 -43)" onmousedown="handlePan(1,0)">
                  <use xlink:href="#rim" fill="#404040">
                        <set attributeName="fill" to="#808080" begin="arrowRight.mouseover" end="arrowRight.mouseout"/>
                  </use>
                  <path fill="none" stroke="white" stroke-width="1.5" d="M0,-3.0v7 M-2.5,-0.5L0,-3.0L2.5,-0.5"/>
                </g>
                <g id="arrowDown" xlink:href="#dirArrow" transform="rotate(180) translate(-30 -48)" onmousedown="handlePan(0,1)">
                  <use xlink:href="#rim" fill="#404040">
                        <set attributeName="fill" to="#808080" begin="arrowDown.mouseover" end="arrowDown.mouseout"/>
                  </use>
                  <path fill="none" stroke="white" stroke-width="1.5" d="M0,-3.0v7 M-2.5,-0.5L0,-3.0L2.5,-0.5"/>
                </g>
                <g id="arrowLeft" xlink:href="#dirArrow" transform="rotate(270) translate(-36 17)" onmousedown="handlePan(-1,0)">
                  <use xlink:href="#rim" fill="#404040">
                        <set attributeName="fill" to="#808080" begin="arrowLeft.mouseover" end="arrowLeft.mouseout"/>
                  </use>
                  <path fill="none" stroke="white" stroke-width="1.5" d="M0,-3.0v7 M-2.5,-0.5L0,-3.0L2.5,-0.5"/>
                </g>
        </g>
        <svg viewBox="0 0 15 15" width="100%" height="30px" preserveAspectRatio="xMaxYMin meet">
         <g id="arrow_out" transform="scale(0.3 0.3)">
          <a xlink:href="Arguments_8hpp__dep__incl_org.svg" target="_base">
           <rect id="button" ry="5" rx="5" y="6" x="6" height="38" width="38"
                fill="#f2f5e9" fill-opacity="0.5" stroke="#606060" stroke-width="1.0"/>
           <path id="arrow"
             d="M 11.500037,31.436501 C 11.940474,20.09759 22.043105,11.32322 32.158766,21.979434 L 37.068811,17.246167 C 37.068811,17.246167 37.088388,32 37.088388,32 L 22.160133,31.978069 C 22.160133,31.978069 26.997745,27.140456 26.997745,27.140456 C 18.528582,18.264221 13.291696,25.230495 11.500037,31.436501 z"
             style="fill:#404040;"/>
          </a>
         </g>
        </svg>
</svg>
