<?xml version="1.0" encoding="UTF-8" standalone="no"?>
<!DOCTYPE svg PUBLIC "-//W3C//DTD SVG 1.1//EN"
 "http://www.w3.org/Graphics/SVG/1.1/DTD/svg11.dtd">
<!-- Generated by graphviz version 2.43.0 (0)
 -->
<!-- Title: src/common/interface/ASensorsDriver.hpp Pages: 1 -->
<!--zoomable 240 -->
<svg id="main" version="1.1" xmlns="http://www.w3.org/2000/svg" xmlns:xlink="http://www.w3.org/1999/xlink" xml:space="preserve" onload="init(evt)">
<style type="text/css"><![CDATA[
.edge:hover path { stroke: red; }
.edge:hover polygon { stroke: red; fill: red; }
]]></style>
<script type="text/javascript"><![CDATA[
var edges = document.getElementsByTagName('g');
if (edges && edges.length) {
  for (var i=0;i<edges.length;i++) {
    if (edges[i].id.substr(0,4)=='edge') {
      edges[i].setAttribute('class','edge');
    }
  }
}
]]></script>
        <defs>
                <circle id="rim" cx="0" cy="0" r="7"/>
                <circle id="rim2" cx="0" cy="0" r="3.5"/>
                <g id="zoomPlus">
                        <use xlink:href="#rim" fill="#404040">
                                <set attributeName="fill" to="#808080" begin="zoomplus.mouseover" end="zoomplus.mouseout"/>
                        </use>
                        <path d="M-4,0h8M0,-4v8" fill="none" stroke="white" stroke-width="1.5" pointer-events="none"/>
                </g>
                <g id="zoomMin">
                        <use xlink:href="#rim" fill="#404040">
                                <set attributeName="fill" to="#808080" begin="zoomminus.mouseover" end="zoomminus.mouseout"/>
                        </use>
                        <path d="M-4,0h8" fill="none" stroke="white" stroke-width="1.5" pointer-events="none"/>
                </g>
                <g id="dirArrow">
                        <path fill="none" stroke="white" stroke-width="1.5" d="M0,-3.0v7 M-2.5,-0.5L0,-3.0L2.5,-0.5"/>
                </g>
               <g id="resetDef">
                       <use xlink:href="#rim2" fill="#404040">
                               <set attributeName="fill" to="#808080" begin="reset.mouseover" end="reset.mouseout"/>
                       </use>
               </g>
        </defs>

<script type="text/javascript">
var viewWidth = 1678;
var viewHeight = 240;
var sectionId = 'dynsection-1';
</script>
<script xlink:href="svgpan.js"/>
<svg id="graph" class="graph">
<g id="viewport">
<title>src/common/interface/ASensorsDriver.hpp</title>
<polygon fill="white" stroke="transparent" points="-4,4 -4,-236 1673.5,-236 1673.5,4 -4,4"/>
<!-- Node1 -->
<g id="node1" class="node">
<title>Node1</title>
<g id="a_node1"><a xlink:title="Interface abstraite du driver de capteurs (balise ToF, IR, ultrasons).">
<polygon fill="#bfbfbf" stroke="black" points="1113.5,-201.5 1113.5,-231.5 1236.5,-231.5 1236.5,-201.5 1113.5,-201.5"/>
<text text-anchor="start" x="1121.5" y="-219.5" font-family="Helvetica,sans-Serif" font-size="10.00">src/common/interface</text>
<text text-anchor="middle" x="1175" y="-208.5" font-family="Helvetica,sans-Serif" font-size="10.00">/ASensorsDriver.hpp</text>
</a>
</g>
</g>
<!-- Node2 -->
<g id="node2" class="node">
<title>Node2</title>
<g id="a_node2"><a xlink:href="Sensors_8hpp.html" target="_top" xlink:title="Gestion des capteurs de detection et de distance.">
<polygon fill="white" stroke="black" points="797,-140 797,-159 969,-159 969,-140 797,-140"/>
<text text-anchor="middle" x="883" y="-147" font-family="Helvetica,sans-Serif" font-size="10.00">src/common/action/Sensors.hpp</text>
</a>
</g>
</g>
<!-- Node1&#45;&gt;Node2 -->
<g id="edge1" class="edge">
<title>Node1&#45;&gt;Node2</title>
<path fill="none" stroke="midnightblue" d="M1103.32,-199.54C1045.83,-186.75 967.4,-169.29 921.28,-159.02"/>
<polygon fill="midnightblue" stroke="midnightblue" points="1102.91,-203.04 1113.43,-201.79 1104.43,-196.21 1102.91,-203.04"/>
</g>
<!-- Node14 -->
<g id="node14" class="node">
<title>Node14</title>
<g id="a_node14"><a xlink:href="driver-arm_2SensorsDriver_8hpp.html" target="_top" xlink:title=" ">
<polygon fill="white" stroke="black" points="987.5,-140 987.5,-159 1164.5,-159 1164.5,-140 987.5,-140"/>
<text text-anchor="middle" x="1076" y="-147" font-family="Helvetica,sans-Serif" font-size="10.00">src/driver&#45;arm/SensorsDriver.hpp</text>
</a>
</g>
</g>
<!-- Node1&#45;&gt;Node14 -->
<g id="edge13" class="edge">
<title>Node1&#45;&gt;Node14</title>
<path fill="none" stroke="midnightblue" d="M1145.01,-195.81C1126.28,-183.51 1103.12,-168.3 1088.96,-159.01"/>
<polygon fill="midnightblue" stroke="midnightblue" points="1143.24,-198.83 1153.52,-201.4 1147.08,-192.98 1143.24,-198.83"/>
</g>
<!-- Node16 -->
<g id="node16" class="node">
<title>Node16</title>
<g id="a_node16"><a xlink:href="driver-simu_2SensorsDriver_8hpp.html" target="_top" xlink:title=" ">
<polygon fill="white" stroke="black" points="1183,-140 1183,-159 1365,-159 1365,-140 1183,-140"/>
<text text-anchor="middle" x="1274" y="-147" font-family="Helvetica,sans-Serif" font-size="10.00">src/driver&#45;simu/SensorsDriver.hpp</text>
</a>
</g>
</g>
<!-- Node1&#45;&gt;Node16 -->
<g id="edge15" class="edge">
<title>Node1&#45;&gt;Node16</title>
<path fill="none" stroke="midnightblue" d="M1204.99,-195.81C1223.72,-183.51 1246.88,-168.3 1261.04,-159.01"/>
<polygon fill="midnightblue" stroke="midnightblue" points="1202.92,-192.98 1196.48,-201.4 1206.76,-198.83 1202.92,-192.98"/>
</g>
<!-- Node18 -->
<g id="node18" class="node">
<title>Node18</title>
<g id="a_node18"><a xlink:href="SensorDriverManualTest_8hpp.html" target="_top" xlink:title="Définition de la classe SensorDriverManualTest.">
<polygon fill="white" stroke="black" points="1383.5,-134.5 1383.5,-164.5 1524.5,-164.5 1524.5,-134.5 1383.5,-134.5"/>
<text text-anchor="start" x="1391.5" y="-152.5" font-family="Helvetica,sans-Serif" font-size="10.00">test/manual/SensorDriver</text>
<text text-anchor="middle" x="1454" y="-141.5" font-family="Helvetica,sans-Serif" font-size="10.00">ManualTest.hpp</text>
</a>
</g>
</g>
<!-- Node1&#45;&gt;Node18 -->
<g id="edge17" class="edge">
<title>Node1&#45;&gt;Node18</title>
<path fill="none" stroke="midnightblue" d="M1245.03,-199.19C1290.72,-188.54 1349.77,-174.78 1393.43,-164.61"/>
<polygon fill="midnightblue" stroke="midnightblue" points="1244.14,-195.8 1235.2,-201.48 1245.73,-202.62 1244.14,-195.8"/>
</g>
<!-- Node3 -->
<g id="node3" class="node">
<title>Node3</title>
<g id="a_node3"><a xlink:href="OPOS6UL__ActionsExtended_8hpp.html" target="_top" xlink:title="Extension des actions du robot pour la carte OPOS6UL.">
<polygon fill="white" stroke="black" points="640,-67.5 640,-97.5 780,-97.5 780,-67.5 640,-67.5"/>
<text text-anchor="start" x="648" y="-85.5" font-family="Helvetica,sans-Serif" font-size="10.00">src/bot&#45;opos6ul/OPOS6UL</text>
<text text-anchor="middle" x="710" y="-74.5" font-family="Helvetica,sans-Serif" font-size="10.00">_ActionsExtended.hpp</text>
</a>
</g>
</g>
<!-- Node2&#45;&gt;Node3 -->
<g id="edge2" class="edge">
<title>Node2&#45;&gt;Node3</title>
<path fill="none" stroke="midnightblue" d="M850.65,-136.35C821.33,-125.33 778.12,-109.09 747.34,-97.53"/>
<polygon fill="midnightblue" stroke="midnightblue" points="849.43,-139.63 860.03,-139.87 851.9,-133.07 849.43,-139.63"/>
</g>
<!-- Node13 -->
<g id="node13" class="node">
<title>Node13</title>
<g id="a_node13"><a xlink:href="Sensors_8cpp.html" target="_top" xlink:title=" ">
<polygon fill="white" stroke="black" points="798.5,-73 798.5,-92 969.5,-92 969.5,-73 798.5,-73"/>
<text text-anchor="middle" x="884" y="-80" font-family="Helvetica,sans-Serif" font-size="10.00">src/common/action/Sensors.cpp</text>
</a>
</g>
</g>
<!-- Node2&#45;&gt;Node13 -->
<g id="edge12" class="edge">
<title>Node2&#45;&gt;Node13</title>
<path fill="none" stroke="midnightblue" d="M883.29,-129.54C883.48,-117.17 883.72,-101.62 883.87,-92.13"/>
<polygon fill="midnightblue" stroke="midnightblue" points="879.79,-129.68 883.13,-139.73 886.79,-129.79 879.79,-129.68"/>
</g>
<!-- Node4 -->
<g id="node4" class="node">
<title>Node4</title>
<g id="a_node4"><a xlink:href="O__ActionManagerTimerTest_8cpp.html" target="_top" xlink:title="Implémentation de la classe L_ActionManagerTimerTest.">
<polygon fill="white" stroke="black" points="0,-0.5 0,-30.5 138,-30.5 138,-0.5 0,-0.5"/>
<text text-anchor="start" x="8" y="-18.5" font-family="Helvetica,sans-Serif" font-size="10.00">src/bot&#45;opos6ul/O_Action</text>
<text text-anchor="middle" x="69" y="-7.5" font-family="Helvetica,sans-Serif" font-size="10.00">ManagerTimerTest.cpp</text>
</a>
</g>
</g>
<!-- Node3&#45;&gt;Node4 -->
<g id="edge3" class="edge">
<title>Node3&#45;&gt;Node4</title>
<path fill="none" stroke="midnightblue" d="M629.68,-76.69C520.21,-69.58 318.18,-54.53 147,-31 144.13,-30.61 141.21,-30.18 138.27,-29.73"/>
<polygon fill="midnightblue" stroke="midnightblue" points="629.78,-80.2 639.98,-77.35 630.23,-73.22 629.78,-80.2"/>
</g>
<!-- Node5 -->
<g id="node5" class="node">
<title>Node5</title>
<g id="a_node5"><a xlink:href="O__ButtonBarTest_8cpp.html" target="_top" xlink:title="Implémentation de la classe O_ButtonBarTest.">
<polygon fill="white" stroke="black" points="156,-0.5 156,-30.5 296,-30.5 296,-0.5 156,-0.5"/>
<text text-anchor="start" x="164" y="-18.5" font-family="Helvetica,sans-Serif" font-size="10.00">src/bot&#45;opos6ul/O_Button</text>
<text text-anchor="middle" x="226" y="-7.5" font-family="Helvetica,sans-Serif" font-size="10.00">BarTest.cpp</text>
</a>
</g>
</g>
<!-- Node3&#45;&gt;Node5 -->
<g id="edge4" class="edge">
<title>Node3&#45;&gt;Node5</title>
<path fill="none" stroke="midnightblue" d="M629.97,-72.9C548.14,-63.77 417.44,-48.31 305,-31 302.11,-30.55 299.15,-30.08 296.18,-29.6"/>
<polygon fill="midnightblue" stroke="midnightblue" points="629.63,-76.38 639.95,-74 630.4,-69.42 629.63,-76.38"/>
</g>
<!-- Node6 -->
<g id="node6" class="node">
<title>Node6</title>
<g id="a_node6"><a xlink:href="O__LcdBoardTest_8cpp.html" target="_top" xlink:title="Implémentation de la classe O_LcdBoardTest.">
<polygon fill="white" stroke="black" points="314,-0.5 314,-30.5 466,-30.5 466,-0.5 314,-0.5"/>
<text text-anchor="start" x="322" y="-18.5" font-family="Helvetica,sans-Serif" font-size="10.00">src/bot&#45;opos6ul/O_LcdBoard</text>
<text text-anchor="middle" x="390" y="-7.5" font-family="Helvetica,sans-Serif" font-size="10.00">Test.cpp</text>
</a>
</g>
</g>
<!-- Node3&#45;&gt;Node6 -->
<g id="edge5" class="edge">
<title>Node3&#45;&gt;Node6</title>
<path fill="none" stroke="midnightblue" d="M630.98,-65.45C578.3,-54.75 509.72,-40.82 459.19,-30.55"/>
<polygon fill="midnightblue" stroke="midnightblue" points="630.46,-68.92 640.96,-67.48 631.86,-62.06 630.46,-68.92"/>
</g>
<!-- Node7 -->
<g id="node7" class="node">
<title>Node7</title>
<g id="a_node7"><a xlink:href="O__LedBarTest_8cpp.html" target="_top" xlink:title="Implementation de la classe O_LedBarTest.">
<polygon fill="white" stroke="black" points="484.5,-0.5 484.5,-30.5 625.5,-30.5 625.5,-0.5 484.5,-0.5"/>
<text text-anchor="start" x="492.5" y="-18.5" font-family="Helvetica,sans-Serif" font-size="10.00">src/bot&#45;opos6ul/O_LedBar</text>
<text text-anchor="middle" x="555" y="-7.5" font-family="Helvetica,sans-Serif" font-size="10.00">Test.cpp</text>
</a>
</g>
</g>
<!-- Node3&#45;&gt;Node7 -->
<g id="edge6" class="edge">
<title>Node3&#45;&gt;Node7</title>
<path fill="none" stroke="midnightblue" d="M666.85,-63.41C642.11,-53.03 611.5,-40.2 588.57,-30.58"/>
<polygon fill="midnightblue" stroke="midnightblue" points="665.79,-66.76 676.37,-67.4 668.5,-60.3 665.79,-66.76"/>
</g>
<!-- Node8 -->
<g id="node8" class="node">
<title>Node8</title>
<g id="a_node8"><a xlink:href="O__State__Init_8cpp.html" target="_top" xlink:title=" ">
<polygon fill="white" stroke="black" points="643.5,-0.5 643.5,-30.5 776.5,-30.5 776.5,-0.5 643.5,-0.5"/>
<text text-anchor="start" x="651.5" y="-18.5" font-family="Helvetica,sans-Serif" font-size="10.00">src/bot&#45;opos6ul/O_State</text>
<text text-anchor="middle" x="710" y="-7.5" font-family="Helvetica,sans-Serif" font-size="10.00">_Init.cpp</text>
</a>
</g>
</g>
<!-- Node3&#45;&gt;Node8 -->
<g id="edge7" class="edge">
<title>Node3&#45;&gt;Node8</title>
<path fill="none" stroke="midnightblue" d="M710,-57.11C710,-48.15 710,-38.32 710,-30.58"/>
<polygon fill="midnightblue" stroke="midnightblue" points="706.5,-57.4 710,-67.4 713.5,-57.4 706.5,-57.4"/>
</g>
<!-- Node9 -->
<g id="node9" class="node">
<title>Node9</title>
<g id="a_node9"><a xlink:href="O__State__WaitEndOfMatch_8cpp.html" target="_top" xlink:title=" ">
<polygon fill="white" stroke="black" points="794.5,-0.5 794.5,-30.5 927.5,-30.5 927.5,-0.5 794.5,-0.5"/>
<text text-anchor="start" x="802.5" y="-18.5" font-family="Helvetica,sans-Serif" font-size="10.00">src/bot&#45;opos6ul/O_State</text>
<text text-anchor="middle" x="861" y="-7.5" font-family="Helvetica,sans-Serif" font-size="10.00">_WaitEndOfMatch.cpp</text>
</a>
</g>
</g>
<!-- Node3&#45;&gt;Node9 -->
<g id="edge8" class="edge">
<title>Node3&#45;&gt;Node9</title>
<path fill="none" stroke="midnightblue" d="M752.03,-63.41C776.14,-53.03 805.95,-40.2 828.3,-30.58"/>
<polygon fill="midnightblue" stroke="midnightblue" points="750.57,-60.23 742.76,-67.4 753.33,-66.66 750.57,-60.23"/>
</g>
<!-- Node10 -->
<g id="node10" class="node">
<title>Node10</title>
<g id="a_node10"><a xlink:href="O__TiretteTest_8cpp.html" target="_top" xlink:title="Implémentation de la classe O_TiretteTest.">
<polygon fill="white" stroke="black" points="946,-0.5 946,-30.5 1086,-30.5 1086,-0.5 946,-0.5"/>
<text text-anchor="start" x="954" y="-18.5" font-family="Helvetica,sans-Serif" font-size="10.00">src/bot&#45;opos6ul/O_Tirette</text>
<text text-anchor="middle" x="1016" y="-7.5" font-family="Helvetica,sans-Serif" font-size="10.00">Test.cpp</text>
</a>
</g>
</g>
<!-- Node3&#45;&gt;Node10 -->
<g id="edge9" class="edge">
<title>Node3&#45;&gt;Node10</title>
<path fill="none" stroke="midnightblue" d="M785.88,-65.38C836.21,-54.69 901.62,-40.8 949.83,-30.55"/>
<polygon fill="midnightblue" stroke="midnightblue" points="785.08,-61.97 776.02,-67.48 786.53,-68.82 785.08,-61.97"/>
</g>
<!-- Node11 -->
<g id="node11" class="node">
<title>Node11</title>
<g id="a_node11"><a xlink:href="OPOS6UL__ActionsExtended_8cpp.html" target="_top" xlink:title=" ">
<polygon fill="white" stroke="black" points="1104,-0.5 1104,-30.5 1244,-30.5 1244,-0.5 1104,-0.5"/>
<text text-anchor="start" x="1112" y="-18.5" font-family="Helvetica,sans-Serif" font-size="10.00">src/bot&#45;opos6ul/OPOS6UL</text>
<text text-anchor="middle" x="1174" y="-7.5" font-family="Helvetica,sans-Serif" font-size="10.00">_ActionsExtended.cpp</text>
</a>
</g>
</g>
<!-- Node3&#45;&gt;Node11 -->
<g id="edge10" class="edge">
<title>Node3&#45;&gt;Node11</title>
<path fill="none" stroke="midnightblue" d="M790.14,-66.89C926.12,-46.84 962.76,-50.89 1095,-31 1097.9,-30.56 1100.85,-30.1 1103.83,-29.62"/>
<polygon fill="midnightblue" stroke="midnightblue" points="789.55,-63.44 780.17,-68.38 790.58,-70.36 789.55,-63.44"/>
</g>
<!-- Node12 -->
<g id="node12" class="node">
<title>Node12</title>
<g id="a_node12"><a xlink:href="OPOS6UL__RobotExtended_8cpp.html" target="_top" xlink:title=" ">
<polygon fill="white" stroke="black" points="1262,-0.5 1262,-30.5 1402,-30.5 1402,-0.5 1262,-0.5"/>
<text text-anchor="start" x="1270" y="-18.5" font-family="Helvetica,sans-Serif" font-size="10.00">src/bot&#45;opos6ul/OPOS6UL</text>
<text text-anchor="middle" x="1332" y="-7.5" font-family="Helvetica,sans-Serif" font-size="10.00">_RobotExtended.cpp</text>
</a>
</g>
</g>
<!-- Node3&#45;&gt;Node12 -->
<g id="edge11" class="edge">
<title>Node3&#45;&gt;Node12</title>
<path fill="none" stroke="midnightblue" d="M790.37,-66.92C995.88,-40.84 1051.19,-57.28 1253,-31 1255.9,-30.62 1258.86,-30.21 1261.85,-29.77"/>
<polygon fill="midnightblue" stroke="midnightblue" points="789.62,-63.48 780.15,-68.23 790.52,-70.43 789.62,-63.48"/>
</g>
<!-- Node15 -->
<g id="node15" class="node">
<title>Node15</title>
<g id="a_node15"><a xlink:href="driver-arm_2SensorsDriver_8cpp.html" target="_top" xlink:title=" ">
<polygon fill="white" stroke="black" points="988,-73 988,-92 1164,-92 1164,-73 988,-73"/>
<text text-anchor="middle" x="1076" y="-80" font-family="Helvetica,sans-Serif" font-size="10.00">src/driver&#45;arm/SensorsDriver.cpp</text>
</a>
</g>
</g>
<!-- Node14&#45;&gt;Node15 -->
<g id="edge14" class="edge">
<title>Node14&#45;&gt;Node15</title>
<path fill="none" stroke="midnightblue" d="M1076,-129.54C1076,-117.17 1076,-101.62 1076,-92.13"/>
<polygon fill="midnightblue" stroke="midnightblue" points="1072.5,-129.73 1076,-139.73 1079.5,-129.73 1072.5,-129.73"/>
</g>
<!-- Node17 -->
<g id="node17" class="node">
<title>Node17</title>
<g id="a_node17"><a xlink:href="driver-simu_2SensorsDriver_8cpp.html" target="_top" xlink:title=" ">
<polygon fill="white" stroke="black" points="1183.5,-73 1183.5,-92 1364.5,-92 1364.5,-73 1183.5,-73"/>
<text text-anchor="middle" x="1274" y="-80" font-family="Helvetica,sans-Serif" font-size="10.00">src/driver&#45;simu/SensorsDriver.cpp</text>
</a>
</g>
</g>
<!-- Node16&#45;&gt;Node17 -->
<g id="edge16" class="edge">
<title>Node16&#45;&gt;Node17</title>
<path fill="none" stroke="midnightblue" d="M1274,-129.54C1274,-117.17 1274,-101.62 1274,-92.13"/>
<polygon fill="midnightblue" stroke="midnightblue" points="1270.5,-129.73 1274,-139.73 1277.5,-129.73 1270.5,-129.73"/>
</g>
<!-- Node19 -->
<g id="node19" class="node">
<title>Node19</title>
<g id="a_node19"><a xlink:href="test_2manual_2Main_8cpp.html" target="_top" xlink:title="Point d&#39;entree des tests manuels (verification visuelle/physique).">
<polygon fill="white" stroke="black" points="1388,-73 1388,-92 1510,-92 1510,-73 1388,-73"/>
<text text-anchor="middle" x="1449" y="-80" font-family="Helvetica,sans-Serif" font-size="10.00">test/manual/Main.cpp</text>
</a>
</g>
</g>
<!-- Node18&#45;&gt;Node19 -->
<g id="edge18" class="edge">
<title>Node18&#45;&gt;Node19</title>
<path fill="none" stroke="midnightblue" d="M1452.13,-124.25C1451.27,-113.02 1450.3,-100.38 1449.67,-92.19"/>
<polygon fill="midnightblue" stroke="midnightblue" points="1448.66,-124.69 1452.92,-134.4 1455.64,-124.16 1448.66,-124.69"/>
</g>
<!-- Node20 -->
<g id="node20" class="node">
<title>Node20</title>
<g id="a_node20"><a xlink:href="SensorDriverManualTest_8cpp.html" target="_top" xlink:title="Implémentation de la classe SensorDriverManualTest.">
<polygon fill="white" stroke="black" points="1528.5,-67.5 1528.5,-97.5 1669.5,-97.5 1669.5,-67.5 1528.5,-67.5"/>
<text text-anchor="start" x="1536.5" y="-85.5" font-family="Helvetica,sans-Serif" font-size="10.00">test/manual/SensorDriver</text>
<text text-anchor="middle" x="1599" y="-74.5" font-family="Helvetica,sans-Serif" font-size="10.00">ManualTest.cpp</text>
</a>
</g>
</g>
<!-- Node18&#45;&gt;Node20 -->
<g id="edge19" class="edge">
<title>Node18&#45;&gt;Node20</title>
<path fill="none" stroke="midnightblue" d="M1494.67,-130.27C1517.76,-119.92 1546.24,-107.15 1567.6,-97.58"/>
<polygon fill="midnightblue" stroke="midnightblue" points="1493.16,-127.11 1485.46,-134.4 1496.02,-133.5 1493.16,-127.11"/>
</g>
</g>
</svg>
        <g id="navigator" transform="translate(0 0)" fill="#404254">
                <rect fill="#f2f5e9" fill-opacity="0.5" stroke="#606060" stroke-width=".5" x="0" y="0" width="60" height="60"/>
                <use id="zoomplus" xlink:href="#zoomPlus" x="17" y="9" onmousedown="handleZoom(evt,'in')"/>
                <use id="zoomminus" xlink:href="#zoomMin" x="42" y="9" onmousedown="handleZoom(evt,'out')"/>
                <use id="reset" xlink:href="#resetDef" x="30" y="36" onmousedown="handleReset()"/>
                <g id="arrowUp" xlink:href="#dirArrow" transform="translate(30 24)" onmousedown="handlePan(0,-1)">
                  <use xlink:href="#rim" fill="#404040">
                        <set attributeName="fill" to="#808080" begin="arrowUp.mouseover" end="arrowUp.mouseout"/>
                  </use>
                  <path fill="none" stroke="white" stroke-width="1.5" d="M0,-3.0v7 M-2.5,-0.5L0,-3.0L2.5,-0.5"/>
                </g>
                <g id="arrowRight" xlink:href="#dirArrow" transform="rotate(90) translate(36 -43)" onmousedown="handlePan(1,0)">
                  <use xlink:href="#rim" fill="#404040">
                        <set attributeName="fill" to="#808080" begin="arrowRight.mouseover" end="arrowRight.mouseout"/>
                  </use>
                  <path fill="none" stroke="white" stroke-width="1.5" d="M0,-3.0v7 M-2.5,-0.5L0,-3.0L2.5,-0.5"/>
                </g>
                <g id="arrowDown" xlink:href="#dirArrow" transform="rotate(180) translate(-30 -48)" onmousedown="handlePan(0,1)">
                  <use xlink:href="#rim" fill="#404040">
                        <set attributeName="fill" to="#808080" begin="arrowDown.mouseover" end="arrowDown.mouseout"/>
                  </use>
                  <path fill="none" stroke="white" stroke-width="1.5" d="M0,-3.0v7 M-2.5,-0.5L0,-3.0L2.5,-0.5"/>
                </g>
                <g id="arrowLeft" xlink:href="#dirArrow" transform="rotate(270) translate(-36 17)" onmousedown="handlePan(-1,0)">
                  <use xlink:href="#rim" fill="#404040">
                        <set attributeName="fill" to="#808080" begin="arrowLeft.mouseover" end="arrowLeft.mouseout"/>
                  </use>
                  <path fill="none" stroke="white" stroke-width="1.5" d="M0,-3.0v7 M-2.5,-0.5L0,-3.0L2.5,-0.5"/>
                </g>
        </g>
        <svg viewBox="0 0 15 15" width="100%" height="30px" preserveAspectRatio="xMaxYMin meet">
         <g id="arrow_out" transform="scale(0.3 0.3)">
          <a xlink:href="ASensorsDriver_8hpp__dep__incl_org.svg" target="_base">
           <rect id="button" ry="5" rx="5" y="6" x="6" height="38" width="38"
                fill="#f2f5e9" fill-opacity="0.5" stroke="#606060" stroke-width="1.0"/>
           <path id="arrow"
             d="M 11.500037,31.436501 C 11.940474,20.09759 22.043105,11.32322 32.158766,21.979434 L 37.068811,17.246167 C 37.068811,17.246167 37.088388,32 37.088388,32 L 22.160133,31.978069 C 22.160133,31.978069 26.997745,27.140456 26.997745,27.140456 C 18.528582,18.264221 13.291696,25.230495 11.500037,31.436501 z"
             style="fill:#404040;"/>
          </a>
         </g>
        </svg>
</svg>
