<?xml version="1.0" encoding="UTF-8" standalone="no"?>
<!DOCTYPE svg PUBLIC "-//W3C//DTD SVG 1.1//EN"
 "http://www.w3.org/Graphics/SVG/1.1/DTD/svg11.dtd">
<!-- Generated by graphviz version 2.43.0 (0)
 -->
<!-- Title: src/driver&#45;arm/old_drivers/AsservDriver_mbed_i2c.cpp Pages: 1 -->
<!--zoomable 330 -->
<svg id="main" version="1.1" xmlns="http://www.w3.org/2000/svg" xmlns:xlink="http://www.w3.org/1999/xlink" xml:space="preserve" onload="init(evt)">
<style type="text/css"><![CDATA[
.edge:hover path { stroke: red; }
.edge:hover polygon { stroke: red; fill: red; }
]]></style>
<script type="text/javascript"><![CDATA[
var edges = document.getElementsByTagName('g');
if (edges && edges.length) {
  for (var i=0;i<edges.length;i++) {
    if (edges[i].id.substr(0,4)=='edge') {
      edges[i].setAttribute('class','edge');
    }
  }
}
]]></script>
        <defs>
                <circle id="rim" cx="0" cy="0" r="7"/>
                <circle id="rim2" cx="0" cy="0" r="3.5"/>
                <g id="zoomPlus">
                        <use xlink:href="#rim" fill="#404040">
                                <set attributeName="fill" to="#808080" begin="zoomplus.mouseover" end="zoomplus.mouseout"/>
                        </use>
                        <path d="M-4,0h8M0,-4v8" fill="none" stroke="white" stroke-width="1.5" pointer-events="none"/>
                </g>
                <g id="zoomMin">
                        <use xlink:href="#rim" fill="#404040">
                                <set attributeName="fill" to="#808080" begin="zoomminus.mouseover" end="zoomminus.mouseout"/>
                        </use>
                        <path d="M-4,0h8" fill="none" stroke="white" stroke-width="1.5" pointer-events="none"/>
                </g>
                <g id="dirArrow">
                        <path fill="none" stroke="white" stroke-width="1.5" d="M0,-3.0v7 M-2.5,-0.5L0,-3.0L2.5,-0.5"/>
                </g>
               <g id="resetDef">
                       <use xlink:href="#rim2" fill="#404040">
                               <set attributeName="fill" to="#808080" begin="reset.mouseover" end="reset.mouseout"/>
                       </use>
               </g>
        </defs>

<script type="text/javascript">
var viewWidth = 1151;
var viewHeight = 330;
var sectionId = 'dynsection-0';
</script>
<script xlink:href="svgpan.js"/>
<svg id="graph" class="graph">
<g id="viewport">
<title>src/driver&#45;arm/old_drivers/AsservDriver_mbed_i2c.cpp</title>
<polygon fill="white" stroke="transparent" points="-4,4 -4,-326 1147.21,-326 1147.21,4 -4,4"/>
<!-- Node1 -->
<g id="node1" class="node">
<title>Node1</title>
<g id="a_node1"><a xlink:title=" ">
<polygon fill="#bfbfbf" stroke="black" points="843.21,-280.5 843.21,-321.5 965.21,-321.5 965.21,-280.5 843.21,-280.5"/>
<text text-anchor="start" x="851.21" y="-309.5" font-family="Helvetica,sans-Serif" font-size="10.00">src/driver&#45;arm/old</text>
<text text-anchor="start" x="851.21" y="-298.5" font-family="Helvetica,sans-Serif" font-size="10.00">_drivers/AsservDriver</text>
<text text-anchor="middle" x="904.21" y="-287.5" font-family="Helvetica,sans-Serif" font-size="10.00">_mbed_i2c.cpp</text>
</a>
</g>
</g>
<!-- Node2 -->
<g id="node2" class="node">
<title>Node2</title>
<g id="a_node2"><a xlink:href="AsservDriver__mbed__i2c_8hpp.html" target="_top" xlink:title="Définition de la classe AsservDriver (OPOS6UL).">
<polygon fill="white" stroke="black" points="331.71,-224.5 331.71,-243.5 484.71,-243.5 484.71,-224.5 331.71,-224.5"/>
<text text-anchor="middle" x="408.21" y="-231.5" font-family="Helvetica,sans-Serif" font-size="10.00">AsservDriver_mbed_i2c.hpp</text>
</a>
</g>
</g>
<!-- Node1&#45;&gt;Node2 -->
<g id="edge1" class="edge">
<title>Node1&#45;&gt;Node2</title>
<path fill="none" stroke="midnightblue" d="M842.89,-291.96C752.02,-280.06 581.78,-257.75 483.47,-244.86"/>
<polygon fill="midnightblue" stroke="midnightblue" points="483.69,-241.36 473.32,-243.53 482.78,-248.3 483.69,-241.36"/>
</g>
<!-- Node6 -->
<g id="node6" class="node">
<title>Node6</title>
<g id="a_node6"><a xlink:title=" ">
<polygon fill="white" stroke="#bfbfbf" points="443.21,-0.5 443.21,-19.5 487.21,-19.5 487.21,-0.5 443.21,-0.5"/>
<text text-anchor="middle" x="465.21" y="-7.5" font-family="Helvetica,sans-Serif" font-size="10.00">string</text>
</a>
</g>
</g>
<!-- Node1&#45;&gt;Node6 -->
<g id="edge32" class="edge">
<title>Node1&#45;&gt;Node6</title>
<path fill="none" stroke="midnightblue" d="M883.22,-280.44C833.54,-235.07 703.32,-121.52 576.21,-56 550.28,-42.64 519.45,-30.41 496.87,-22.09"/>
<polygon fill="midnightblue" stroke="midnightblue" points="498.02,-18.78 487.42,-18.65 495.63,-25.36 498.02,-18.78"/>
</g>
<!-- Node8 -->
<g id="node8" class="node">
<title>Node8</title>
<g id="a_node8"><a xlink:title=" ">
<polygon fill="white" stroke="#bfbfbf" points="882.71,-56.5 882.71,-75.5 929.71,-75.5 929.71,-56.5 882.71,-56.5"/>
<text text-anchor="middle" x="906.21" y="-63.5" font-family="Helvetica,sans-Serif" font-size="10.00">cmath</text>
</a>
</g>
</g>
<!-- Node1&#45;&gt;Node8 -->
<g id="edge33" class="edge">
<title>Node1&#45;&gt;Node8</title>
<path fill="none" stroke="midnightblue" d="M904.38,-280.13C904.76,-235.78 905.67,-129.18 906.04,-85.82"/>
<polygon fill="midnightblue" stroke="midnightblue" points="909.55,-85.62 906.13,-75.59 902.55,-85.56 909.55,-85.62"/>
</g>
<!-- Node9 -->
<g id="node9" class="node">
<title>Node9</title>
<g id="a_node9"><a xlink:href="Chronometer_8hpp.html" target="_top" xlink:title="Définition de la classe Chronometer.">
<polygon fill="white" stroke="black" points="721.71,-56.5 721.71,-75.5 846.71,-75.5 846.71,-56.5 721.71,-56.5"/>
<text text-anchor="middle" x="784.21" y="-63.5" font-family="Helvetica,sans-Serif" font-size="10.00">utils/Chronometer.hpp</text>
</a>
</g>
</g>
<!-- Node1&#45;&gt;Node9 -->
<g id="edge34" class="edge">
<title>Node1&#45;&gt;Node9</title>
<path fill="none" stroke="midnightblue" d="M902.35,-280.48C897.97,-237.98 885.89,-138.76 866.21,-112 855.29,-97.16 837.94,-86.63 822.01,-79.51"/>
<polygon fill="midnightblue" stroke="midnightblue" points="822.92,-76.1 812.34,-75.51 820.25,-82.57 822.92,-76.1"/>
</g>
<!-- Node19 -->
<g id="node19" class="node">
<title>Node19</title>
<g id="a_node19"><a xlink:href="Logger_8hpp.html" target="_top" xlink:title="Définition de la classe Logger.">
<polygon fill="white" stroke="black" points="402.21,-112.5 402.21,-131.5 472.21,-131.5 472.21,-112.5 402.21,-112.5"/>
<text text-anchor="middle" x="437.21" y="-119.5" font-family="Helvetica,sans-Serif" font-size="10.00">Logger.hpp</text>
</a>
</g>
</g>
<!-- Node1&#45;&gt;Node19 -->
<g id="edge35" class="edge">
<title>Node1&#45;&gt;Node19</title>
<path fill="none" stroke="midnightblue" d="M842.9,-287.76C767.48,-271.32 636.72,-238.21 533.21,-188 504.44,-174.05 474.41,-152.38 455.76,-137.95"/>
<polygon fill="midnightblue" stroke="midnightblue" points="457.83,-135.13 447.81,-131.7 453.51,-140.63 457.83,-135.13"/>
</g>
<!-- Node22 -->
<g id="node22" class="node">
<title>Node22</title>
<g id="a_node22"><a xlink:title=" ">
<polygon fill="white" stroke="#bfbfbf" points="951.21,-224.5 951.21,-243.5 1001.21,-243.5 1001.21,-224.5 951.21,-224.5"/>
<text text-anchor="middle" x="976.21" y="-231.5" font-family="Helvetica,sans-Serif" font-size="10.00">stdio.h</text>
</a>
</g>
</g>
<!-- Node1&#45;&gt;Node22 -->
<g id="edge29" class="edge">
<title>Node1&#45;&gt;Node22</title>
<path fill="none" stroke="midnightblue" d="M925.81,-280.5C936.42,-270.92 949.04,-259.53 958.99,-250.54"/>
<polygon fill="midnightblue" stroke="midnightblue" points="961.54,-252.95 966.62,-243.65 956.85,-247.76 961.54,-252.95"/>
</g>
<!-- Node23 -->
<g id="node23" class="node">
<title>Node23</title>
<g id="a_node23"><a xlink:title=" ">
<polygon fill="white" stroke="#bfbfbf" points="1019.21,-224.5 1019.21,-243.5 1075.21,-243.5 1075.21,-224.5 1019.21,-224.5"/>
<text text-anchor="middle" x="1047.21" y="-231.5" font-family="Helvetica,sans-Serif" font-size="10.00">unistd.h</text>
</a>
</g>
</g>
<!-- Node1&#45;&gt;Node23 -->
<g id="edge30" class="edge">
<title>Node1&#45;&gt;Node23</title>
<path fill="none" stroke="midnightblue" d="M947.11,-280.5C970.41,-269.91 998.55,-257.12 1019.05,-247.8"/>
<polygon fill="midnightblue" stroke="midnightblue" points="1020.52,-250.98 1028.17,-243.65 1017.62,-244.6 1020.52,-250.98"/>
</g>
<!-- Node24 -->
<g id="node24" class="node">
<title>Node24</title>
<g id="a_node24"><a xlink:title=" ">
<polygon fill="white" stroke="#bfbfbf" points="1093.21,-224.5 1093.21,-243.5 1143.21,-243.5 1143.21,-224.5 1093.21,-224.5"/>
<text text-anchor="middle" x="1118.21" y="-231.5" font-family="Helvetica,sans-Serif" font-size="10.00">cstring</text>
</a>
</g>
</g>
<!-- Node1&#45;&gt;Node24 -->
<g id="edge31" class="edge">
<title>Node1&#45;&gt;Node24</title>
<path fill="none" stroke="midnightblue" d="M965.24,-281.46C1003.48,-269.85 1051.38,-255.3 1083.3,-245.6"/>
<polygon fill="midnightblue" stroke="midnightblue" points="1084.51,-248.89 1093.06,-242.64 1082.48,-242.19 1084.51,-248.89"/>
</g>
<!-- Node3 -->
<g id="node3" class="node">
<title>Node3</title>
<g id="a_node3"><a xlink:title=" ">
<polygon fill="white" stroke="#bfbfbf" points="339.21,-168.5 339.21,-187.5 485.21,-187.5 485.21,-168.5 339.21,-168.5"/>
<text text-anchor="middle" x="412.21" y="-175.5" font-family="Helvetica,sans-Serif" font-size="10.00">as_devices/cpp/as_i2c.hpp</text>
</a>
</g>
</g>
<!-- Node2&#45;&gt;Node3 -->
<g id="edge2" class="edge">
<title>Node2&#45;&gt;Node3</title>
<path fill="none" stroke="midnightblue" d="M408.87,-224.08C409.39,-217.01 410.14,-206.86 410.8,-197.99"/>
<polygon fill="midnightblue" stroke="midnightblue" points="414.31,-197.98 411.56,-187.75 407.33,-197.47 414.31,-197.98"/>
</g>
<!-- Node4 -->
<g id="node4" class="node">
<title>Node4</title>
<g id="a_node4"><a xlink:href="AAsservDriver_8hpp.html" target="_top" xlink:title="Interface abstraite du driver d&#39;asservissement.">
<polygon fill="white" stroke="black" points="541.71,-168.5 541.71,-187.5 694.71,-187.5 694.71,-168.5 541.71,-168.5"/>
<text text-anchor="middle" x="618.21" y="-175.5" font-family="Helvetica,sans-Serif" font-size="10.00">interface/AAsservDriver.hpp</text>
</a>
</g>
</g>
<!-- Node2&#45;&gt;Node4 -->
<g id="edge3" class="edge">
<title>Node2&#45;&gt;Node4</title>
<path fill="none" stroke="midnightblue" d="M441.48,-224.44C477.65,-215.14 535.58,-200.25 575.19,-190.06"/>
<polygon fill="midnightblue" stroke="midnightblue" points="576.27,-193.4 585.09,-187.52 574.53,-186.62 576.27,-193.4"/>
</g>
<!-- Node11 -->
<g id="node11" class="node">
<title>Node11</title>
<g id="a_node11"><a xlink:href="LoggerFactory_8hpp.html" target="_top" xlink:title="Définition de la classe LoggerFactory.">
<polygon fill="white" stroke="black" points="199.21,-168.5 199.21,-187.5 321.21,-187.5 321.21,-168.5 199.21,-168.5"/>
<text text-anchor="middle" x="260.21" y="-175.5" font-family="Helvetica,sans-Serif" font-size="10.00">log/LoggerFactory.hpp</text>
</a>
</g>
</g>
<!-- Node2&#45;&gt;Node11 -->
<g id="edge11" class="edge">
<title>Node2&#45;&gt;Node11</title>
<path fill="none" stroke="midnightblue" d="M384.76,-224.44C360.07,-215.44 321.02,-201.19 293.23,-191.05"/>
<polygon fill="midnightblue" stroke="midnightblue" points="294.14,-187.66 283.55,-187.52 291.74,-194.23 294.14,-187.66"/>
</g>
<!-- Node13 -->
<g id="node13" class="node">
<title>Node13</title>
<g id="a_node13"><a xlink:href="Thread_8hpp.html" target="_top" xlink:title="Définition de la classe Thread.">
<polygon fill="white" stroke="black" points="110.71,-112.5 110.71,-131.5 225.71,-131.5 225.71,-112.5 110.71,-112.5"/>
<text text-anchor="middle" x="168.21" y="-119.5" font-family="Helvetica,sans-Serif" font-size="10.00">../thread/Thread.hpp</text>
</a>
</g>
</g>
<!-- Node2&#45;&gt;Node13 -->
<g id="edge28" class="edge">
<title>Node2&#45;&gt;Node13</title>
<path fill="none" stroke="midnightblue" d="M331.51,-225.28C277.42,-218.37 211.05,-206.43 190.21,-188 176.98,-176.3 171.69,-156.36 169.59,-141.64"/>
<polygon fill="midnightblue" stroke="midnightblue" points="173.06,-141.2 168.52,-131.63 166.1,-141.94 173.06,-141.2"/>
</g>
<!-- Node5 -->
<g id="node5" class="node">
<title>Node5</title>
<g id="a_node5"><a xlink:title=" ">
<polygon fill="white" stroke="#bfbfbf" points="605.21,-112.5 605.21,-131.5 655.21,-131.5 655.21,-112.5 605.21,-112.5"/>
<text text-anchor="middle" x="630.21" y="-119.5" font-family="Helvetica,sans-Serif" font-size="10.00">cstdint</text>
</a>
</g>
</g>
<!-- Node4&#45;&gt;Node5 -->
<g id="edge4" class="edge">
<title>Node4&#45;&gt;Node5</title>
<path fill="none" stroke="midnightblue" d="M620.19,-168.08C621.78,-160.93 624.06,-150.64 626.05,-141.69"/>
<polygon fill="midnightblue" stroke="midnightblue" points="629.51,-142.27 628.26,-131.75 622.68,-140.75 629.51,-142.27"/>
</g>
<!-- Node4&#45;&gt;Node6 -->
<g id="edge5" class="edge">
<title>Node4&#45;&gt;Node6</title>
<path fill="none" stroke="midnightblue" d="M613.98,-168.39C600.5,-140.92 559.32,-57.1 558.21,-56 541.2,-39.16 516.65,-27.64 497.04,-20.48"/>
<polygon fill="midnightblue" stroke="midnightblue" points="498.19,-17.17 487.59,-17.22 495.9,-23.79 498.19,-17.17"/>
</g>
<!-- Node7 -->
<g id="node7" class="node">
<title>Node7</title>
<g id="a_node7"><a xlink:href="ARobotPositionShared_8hpp.html" target="_top" xlink:title="Position partagee du robot et utilitaires geometriques.">
<polygon fill="white" stroke="black" points="711.21,-112.5 711.21,-131.5 857.21,-131.5 857.21,-112.5 711.21,-112.5"/>
<text text-anchor="middle" x="784.21" y="-119.5" font-family="Helvetica,sans-Serif" font-size="10.00">ARobotPositionShared.hpp</text>
</a>
</g>
</g>
<!-- Node4&#45;&gt;Node7 -->
<g id="edge6" class="edge">
<title>Node4&#45;&gt;Node7</title>
<path fill="none" stroke="midnightblue" d="M644.51,-168.44C672.56,-159.32 717.15,-144.81 748.39,-134.65"/>
<polygon fill="midnightblue" stroke="midnightblue" points="749.6,-137.94 758.03,-131.52 747.43,-131.28 749.6,-137.94"/>
</g>
<!-- Node7&#45;&gt;Node8 -->
<g id="edge7" class="edge">
<title>Node7&#45;&gt;Node8</title>
<path fill="none" stroke="midnightblue" d="M803.54,-112.44C823.53,-103.6 854.95,-89.69 877.77,-79.59"/>
<polygon fill="midnightblue" stroke="midnightblue" points="879.24,-82.76 886.97,-75.52 876.4,-76.36 879.24,-82.76"/>
</g>
<!-- Node7&#45;&gt;Node9 -->
<g id="edge8" class="edge">
<title>Node7&#45;&gt;Node9</title>
<path fill="none" stroke="midnightblue" d="M784.21,-112.08C784.21,-105.01 784.21,-94.86 784.21,-85.99"/>
<polygon fill="midnightblue" stroke="midnightblue" points="787.71,-85.75 784.21,-75.75 780.71,-85.75 787.71,-85.75"/>
</g>
<!-- Node9&#45;&gt;Node6 -->
<g id="edge10" class="edge">
<title>Node9&#45;&gt;Node6</title>
<path fill="none" stroke="midnightblue" d="M733.66,-56.44C667.31,-45.21 552.78,-25.82 497.25,-16.42"/>
<polygon fill="midnightblue" stroke="midnightblue" points="497.72,-12.95 487.28,-14.74 496.55,-19.86 497.72,-12.95"/>
</g>
<!-- Node10 -->
<g id="node10" class="node">
<title>Node10</title>
<g id="a_node10"><a xlink:title=" ">
<polygon fill="white" stroke="#bfbfbf" points="750.21,-0.5 750.21,-19.5 818.21,-19.5 818.21,-0.5 750.21,-0.5"/>
<text text-anchor="middle" x="784.21" y="-7.5" font-family="Helvetica,sans-Serif" font-size="10.00">sys/time.h</text>
</a>
</g>
</g>
<!-- Node9&#45;&gt;Node10 -->
<g id="edge9" class="edge">
<title>Node9&#45;&gt;Node10</title>
<path fill="none" stroke="midnightblue" d="M784.21,-56.08C784.21,-49.01 784.21,-38.86 784.21,-29.99"/>
<polygon fill="midnightblue" stroke="midnightblue" points="787.71,-29.75 784.21,-19.75 780.71,-29.75 787.71,-29.75"/>
</g>
<!-- Node11&#45;&gt;Node6 -->
<g id="edge13" class="edge">
<title>Node11&#45;&gt;Node6</title>
<path fill="none" stroke="midnightblue" d="M266.81,-168.37C285.84,-143.66 340.88,-73.37 364.21,-56 385.11,-40.43 412.26,-28.72 433.14,-21.15"/>
<polygon fill="midnightblue" stroke="midnightblue" points="434.54,-24.37 442.83,-17.77 432.24,-17.76 434.54,-24.37"/>
</g>
<!-- Node12 -->
<g id="node12" class="node">
<title>Node12</title>
<g id="a_node12"><a xlink:title=" ">
<polygon fill="white" stroke="#bfbfbf" points="244.21,-112.5 244.21,-131.5 282.21,-131.5 282.21,-112.5 244.21,-112.5"/>
<text text-anchor="middle" x="263.21" y="-119.5" font-family="Helvetica,sans-Serif" font-size="10.00">map</text>
</a>
</g>
</g>
<!-- Node11&#45;&gt;Node12 -->
<g id="edge12" class="edge">
<title>Node11&#45;&gt;Node12</title>
<path fill="none" stroke="midnightblue" d="M260.7,-168.08C261.09,-161.01 261.66,-150.86 262.15,-141.99"/>
<polygon fill="midnightblue" stroke="midnightblue" points="265.66,-141.93 262.72,-131.75 258.67,-141.54 265.66,-141.93"/>
</g>
<!-- Node11&#45;&gt;Node13 -->
<g id="edge14" class="edge">
<title>Node11&#45;&gt;Node13</title>
<path fill="none" stroke="midnightblue" d="M245.42,-168.32C230.94,-159.82 208.63,-146.73 191.71,-136.8"/>
<polygon fill="midnightblue" stroke="midnightblue" points="193.35,-133.7 182.95,-131.65 189.8,-139.74 193.35,-133.7"/>
</g>
<!-- Node11&#45;&gt;Node19 -->
<g id="edge22" class="edge">
<title>Node11&#45;&gt;Node19</title>
<path fill="none" stroke="midnightblue" d="M288.25,-168.44C318.29,-159.28 366.12,-144.69 399.45,-134.52"/>
<polygon fill="midnightblue" stroke="midnightblue" points="400.75,-137.78 409.29,-131.52 398.7,-131.09 400.75,-137.78"/>
</g>
<!-- Node13&#45;&gt;Node6 -->
<g id="edge16" class="edge">
<title>Node13&#45;&gt;Node6</title>
<path fill="none" stroke="midnightblue" d="M175.13,-112.23C186.89,-98.01 212.22,-70.07 240.21,-56 303.63,-24.11 387.79,-14.81 433.08,-12.11"/>
<polygon fill="midnightblue" stroke="midnightblue" points="433.39,-15.59 443.19,-11.57 433.02,-8.6 433.39,-15.59"/>
</g>
<!-- Node14 -->
<g id="node14" class="node">
<title>Node14</title>
<g id="a_node14"><a xlink:title=" ">
<polygon fill="white" stroke="#bfbfbf" points="103.71,-0.5 103.71,-19.5 166.71,-19.5 166.71,-0.5 103.71,-0.5"/>
<text text-anchor="middle" x="135.21" y="-7.5" font-family="Helvetica,sans-Serif" font-size="10.00">pthread.h</text>
</a>
</g>
</g>
<!-- Node13&#45;&gt;Node14 -->
<g id="edge15" class="edge">
<title>Node13&#45;&gt;Node14</title>
<path fill="none" stroke="midnightblue" d="M110.47,-112.46C69.28,-105.05 19.01,-92.85 6.21,-76 -19.74,-41.87 46.5,-24.34 93.37,-16.45"/>
<polygon fill="midnightblue" stroke="midnightblue" points="94,-19.9 103.33,-14.87 92.9,-12.98 94,-19.9"/>
</g>
<!-- Node15 -->
<g id="node15" class="node">
<title>Node15</title>
<g id="a_node15"><a xlink:title=" ">
<polygon fill="white" stroke="#bfbfbf" points="15.21,-56.5 15.21,-75.5 63.21,-75.5 63.21,-56.5 15.21,-56.5"/>
<text text-anchor="middle" x="39.21" y="-63.5" font-family="Helvetica,sans-Serif" font-size="10.00">thread</text>
</a>
</g>
</g>
<!-- Node13&#45;&gt;Node15 -->
<g id="edge17" class="edge">
<title>Node13&#45;&gt;Node15</title>
<path fill="none" stroke="midnightblue" d="M147.77,-112.44C126.54,-103.56 93.11,-89.56 68.95,-79.45"/>
<polygon fill="midnightblue" stroke="midnightblue" points="70.13,-76.15 59.55,-75.52 67.42,-82.61 70.13,-76.15"/>
</g>
<!-- Node16 -->
<g id="node16" class="node">
<title>Node16</title>
<g id="a_node16"><a xlink:title=" ">
<polygon fill="white" stroke="#bfbfbf" points="81.21,-56.5 81.21,-75.5 125.21,-75.5 125.21,-56.5 81.21,-56.5"/>
<text text-anchor="middle" x="103.21" y="-63.5" font-family="Helvetica,sans-Serif" font-size="10.00">ctime</text>
</a>
</g>
</g>
<!-- Node13&#45;&gt;Node16 -->
<g id="edge18" class="edge">
<title>Node13&#45;&gt;Node16</title>
<path fill="none" stroke="midnightblue" d="M157.76,-112.32C148.06,-104.26 133.39,-92.08 121.71,-82.37"/>
<polygon fill="midnightblue" stroke="midnightblue" points="123.77,-79.53 113.84,-75.83 119.29,-84.92 123.77,-79.53"/>
</g>
<!-- Node17 -->
<g id="node17" class="node">
<title>Node17</title>
<g id="a_node17"><a xlink:href="Mutex_8hpp.html" target="_top" xlink:title="Définition de la classe Mutex.">
<polygon fill="white" stroke="black" points="249.21,-56.5 249.21,-75.5 317.21,-75.5 317.21,-56.5 249.21,-56.5"/>
<text text-anchor="middle" x="283.21" y="-63.5" font-family="Helvetica,sans-Serif" font-size="10.00">Mutex.hpp</text>
</a>
</g>
</g>
<!-- Node13&#45;&gt;Node17 -->
<g id="edge19" class="edge">
<title>Node13&#45;&gt;Node17</title>
<path fill="none" stroke="midnightblue" d="M186.43,-112.44C205.1,-103.68 234.36,-89.94 255.82,-79.86"/>
<polygon fill="midnightblue" stroke="midnightblue" points="257.51,-82.93 265.07,-75.52 254.53,-76.6 257.51,-82.93"/>
</g>
<!-- Node18 -->
<g id="node18" class="node">
<title>Node18</title>
<g id="a_node18"><a xlink:title=" ">
<polygon fill="white" stroke="#bfbfbf" points="143.21,-56.5 143.21,-75.5 193.21,-75.5 193.21,-56.5 143.21,-56.5"/>
<text text-anchor="middle" x="168.21" y="-63.5" font-family="Helvetica,sans-Serif" font-size="10.00">chrono</text>
</a>
</g>
</g>
<!-- Node13&#45;&gt;Node18 -->
<g id="edge21" class="edge">
<title>Node13&#45;&gt;Node18</title>
<path fill="none" stroke="midnightblue" d="M168.21,-112.08C168.21,-105.01 168.21,-94.86 168.21,-85.99"/>
<polygon fill="midnightblue" stroke="midnightblue" points="171.71,-85.75 168.21,-75.75 164.71,-85.75 171.71,-85.75"/>
</g>
<!-- Node17&#45;&gt;Node14 -->
<g id="edge20" class="edge">
<title>Node17&#45;&gt;Node14</title>
<path fill="none" stroke="midnightblue" d="M259.76,-56.44C235.07,-47.44 196.02,-33.19 168.23,-23.05"/>
<polygon fill="midnightblue" stroke="midnightblue" points="169.14,-19.66 158.55,-19.52 166.74,-26.23 169.14,-19.66"/>
</g>
<!-- Node19&#45;&gt;Node6 -->
<g id="edge24" class="edge">
<title>Node19&#45;&gt;Node6</title>
<path fill="none" stroke="midnightblue" d="M439.4,-112.37C443.92,-94.62 454.35,-53.67 460.47,-29.6"/>
<polygon fill="midnightblue" stroke="midnightblue" points="463.94,-30.15 463.02,-19.59 457.16,-28.42 463.94,-30.15"/>
</g>
<!-- Node19&#45;&gt;Node17 -->
<g id="edge25" class="edge">
<title>Node19&#45;&gt;Node17</title>
<path fill="none" stroke="midnightblue" d="M412.8,-112.44C387.01,-103.4 346.13,-89.06 317.19,-78.92"/>
<polygon fill="midnightblue" stroke="midnightblue" points="318.09,-75.52 307.49,-75.52 315.77,-82.13 318.09,-75.52"/>
</g>
<!-- Node20 -->
<g id="node20" class="node">
<title>Node20</title>
<g id="a_node20"><a xlink:title=" ">
<polygon fill="white" stroke="#bfbfbf" points="493.21,-56.5 493.21,-75.5 549.21,-75.5 549.21,-56.5 493.21,-56.5"/>
<text text-anchor="middle" x="521.21" y="-63.5" font-family="Helvetica,sans-Serif" font-size="10.00">sstream</text>
</a>
</g>
</g>
<!-- Node19&#45;&gt;Node20 -->
<g id="edge23" class="edge">
<title>Node19&#45;&gt;Node20</title>
<path fill="none" stroke="midnightblue" d="M450.7,-112.32C463.81,-103.9 483.92,-90.97 499.31,-81.07"/>
<polygon fill="midnightblue" stroke="midnightblue" points="501.22,-84.01 507.74,-75.65 497.44,-78.12 501.22,-84.01"/>
</g>
<!-- Node21 -->
<g id="node21" class="node">
<title>Node21</title>
<g id="a_node21"><a xlink:href="Level_8hpp.html" target="_top" xlink:title="Définition de la classe Level.">
<polygon fill="white" stroke="black" points="373.21,-56.5 373.21,-75.5 437.21,-75.5 437.21,-56.5 373.21,-56.5"/>
<text text-anchor="middle" x="405.21" y="-63.5" font-family="Helvetica,sans-Serif" font-size="10.00">Level.hpp</text>
</a>
</g>
</g>
<!-- Node19&#45;&gt;Node21 -->
<g id="edge26" class="edge">
<title>Node19&#45;&gt;Node21</title>
<path fill="none" stroke="midnightblue" d="M431.92,-112.08C427.5,-104.61 421.04,-93.72 415.59,-84.52"/>
<polygon fill="midnightblue" stroke="midnightblue" points="418.5,-82.57 410.39,-75.75 412.48,-86.14 418.5,-82.57"/>
</g>
<!-- Node21&#45;&gt;Node6 -->
<g id="edge27" class="edge">
<title>Node21&#45;&gt;Node6</title>
<path fill="none" stroke="midnightblue" d="M414.85,-56.32C423.72,-48.34 437.08,-36.31 447.81,-26.65"/>
<polygon fill="midnightblue" stroke="midnightblue" points="450.3,-29.13 455.39,-19.83 445.62,-23.92 450.3,-29.13"/>
</g>
</g>
</svg>
        <g id="navigator" transform="translate(0 0)" fill="#404254">
                <rect fill="#f2f5e9" fill-opacity="0.5" stroke="#606060" stroke-width=".5" x="0" y="0" width="60" height="60"/>
                <use id="zoomplus" xlink:href="#zoomPlus" x="17" y="9" onmousedown="handleZoom(evt,'in')"/>
                <use id="zoomminus" xlink:href="#zoomMin" x="42" y="9" onmousedown="handleZoom(evt,'out')"/>
                <use id="reset" xlink:href="#resetDef" x="30" y="36" onmousedown="handleReset()"/>
                <g id="arrowUp" xlink:href="#dirArrow" transform="translate(30 24)" onmousedown="handlePan(0,-1)">
                  <use xlink:href="#rim" fill="#404040">
                        <set attributeName="fill" to="#808080" begin="arrowUp.mouseover" end="arrowUp.mouseout"/>
                  </use>
                  <path fill="none" stroke="white" stroke-width="1.5" d="M0,-3.0v7 M-2.5,-0.5L0,-3.0L2.5,-0.5"/>
                </g>
                <g id="arrowRight" xlink:href="#dirArrow" transform="rotate(90) translate(36 -43)" onmousedown="handlePan(1,0)">
                  <use xlink:href="#rim" fill="#404040">
                        <set attributeName="fill" to="#808080" begin="arrowRight.mouseover" end="arrowRight.mouseout"/>
                  </use>
                  <path fill="none" stroke="white" stroke-width="1.5" d="M0,-3.0v7 M-2.5,-0.5L0,-3.0L2.5,-0.5"/>
                </g>
                <g id="arrowDown" xlink:href="#dirArrow" transform="rotate(180) translate(-30 -48)" onmousedown="handlePan(0,1)">
                  <use xlink:href="#rim" fill="#404040">
                        <set attributeName="fill" to="#808080" begin="arrowDown.mouseover" end="arrowDown.mouseout"/>
                  </use>
                  <path fill="none" stroke="white" stroke-width="1.5" d="M0,-3.0v7 M-2.5,-0.5L0,-3.0L2.5,-0.5"/>
                </g>
                <g id="arrowLeft" xlink:href="#dirArrow" transform="rotate(270) translate(-36 17)" onmousedown="handlePan(-1,0)">
                  <use xlink:href="#rim" fill="#404040">
                        <set attributeName="fill" to="#808080" begin="arrowLeft.mouseover" end="arrowLeft.mouseout"/>
                  </use>
                  <path fill="none" stroke="white" stroke-width="1.5" d="M0,-3.0v7 M-2.5,-0.5L0,-3.0L2.5,-0.5"/>
                </g>
        </g>
        <svg viewBox="0 0 15 15" width="100%" height="30px" preserveAspectRatio="xMaxYMin meet">
         <g id="arrow_out" transform="scale(0.3 0.3)">
          <a xlink:href="AsservDriver__mbed__i2c_8cpp__incl_org.svg" target="_base">
           <rect id="button" ry="5" rx="5" y="6" x="6" height="38" width="38"
                fill="#f2f5e9" fill-opacity="0.5" stroke="#606060" stroke-width="1.0"/>
           <path id="arrow"
             d="M 11.500037,31.436501 C 11.940474,20.09759 22.043105,11.32322 32.158766,21.979434 L 37.068811,17.246167 C 37.068811,17.246167 37.088388,32 37.088388,32 L 22.160133,31.978069 C 22.160133,31.978069 26.997745,27.140456 26.997745,27.140456 C 18.528582,18.264221 13.291696,25.230495 11.500037,31.436501 z"
             style="fill:#404040;"/>
          </a>
         </g>
        </svg>
</svg>
