<?xml version="1.0" encoding="UTF-8" standalone="no"?>
<!DOCTYPE svg PUBLIC "-//W3C//DTD SVG 1.1//EN"
 "http://www.w3.org/Graphics/SVG/1.1/DTD/svg11.dtd">
<!-- Generated by graphviz version 2.43.0 (0)
 -->
<!-- Title: src/common/asserv/Asserv.cpp Pages: 1 -->
<!--zoomable 375 -->
<svg id="main" version="1.1" xmlns="http://www.w3.org/2000/svg" xmlns:xlink="http://www.w3.org/1999/xlink" xml:space="preserve" onload="init(evt)">
<style type="text/css"><![CDATA[
.edge:hover path { stroke: red; }
.edge:hover polygon { stroke: red; fill: red; }
]]></style>
<script type="text/javascript"><![CDATA[
var edges = document.getElementsByTagName('g');
if (edges && edges.length) {
  for (var i=0;i<edges.length;i++) {
    if (edges[i].id.substr(0,4)=='edge') {
      edges[i].setAttribute('class','edge');
    }
  }
}
]]></script>
        <defs>
                <circle id="rim" cx="0" cy="0" r="7"/>
                <circle id="rim2" cx="0" cy="0" r="3.5"/>
                <g id="zoomPlus">
                        <use xlink:href="#rim" fill="#404040">
                                <set attributeName="fill" to="#808080" begin="zoomplus.mouseover" end="zoomplus.mouseout"/>
                        </use>
                        <path d="M-4,0h8M0,-4v8" fill="none" stroke="white" stroke-width="1.5" pointer-events="none"/>
                </g>
                <g id="zoomMin">
                        <use xlink:href="#rim" fill="#404040">
                                <set attributeName="fill" to="#808080" begin="zoomminus.mouseover" end="zoomminus.mouseout"/>
                        </use>
                        <path d="M-4,0h8" fill="none" stroke="white" stroke-width="1.5" pointer-events="none"/>
                </g>
                <g id="dirArrow">
                        <path fill="none" stroke="white" stroke-width="1.5" d="M0,-3.0v7 M-2.5,-0.5L0,-3.0L2.5,-0.5"/>
                </g>
               <g id="resetDef">
                       <use xlink:href="#rim2" fill="#404040">
                               <set attributeName="fill" to="#808080" begin="reset.mouseover" end="reset.mouseout"/>
                       </use>
               </g>
        </defs>

<script type="text/javascript">
var viewWidth = 1431;
var viewHeight = 375;
var sectionId = 'dynsection-0';
</script>
<script xlink:href="svgpan.js"/>
<svg id="graph" class="graph">
<g id="viewport">
<title>src/common/asserv/Asserv.cpp</title>
<polygon fill="white" stroke="transparent" points="-4,4 -4,-371 1427.46,-371 1427.46,4 -4,4"/>
<!-- Node1 -->
<g id="node1" class="node">
<title>Node1</title>
<g id="a_node1"><a xlink:title=" ">
<polygon fill="#bfbfbf" stroke="black" points="554.46,-347.5 554.46,-366.5 721.46,-366.5 721.46,-347.5 554.46,-347.5"/>
<text text-anchor="middle" x="637.96" y="-354.5" font-family="Helvetica,sans-Serif" font-size="10.00">src/common/asserv/Asserv.cpp</text>
</a>
</g>
</g>
<!-- Node2 -->
<g id="node2" class="node">
<title>Node2</title>
<g id="a_node2"><a xlink:href="Asserv_8hpp.html" target="_top" xlink:title=" ">
<polygon fill="white" stroke="black" points="93.96,-230 93.96,-249 163.96,-249 163.96,-230 93.96,-230"/>
<text text-anchor="middle" x="128.96" y="-237" font-family="Helvetica,sans-Serif" font-size="10.00">Asserv.hpp</text>
</a>
</g>
</g>
<!-- Node1&#45;&gt;Node2 -->
<g id="edge1" class="edge">
<title>Node1&#45;&gt;Node2</title>
<path fill="none" stroke="midnightblue" d="M594.27,-347.49C512.25,-331.28 329.79,-294.08 177.96,-255 174.16,-254.02 170.2,-252.95 166.26,-251.84"/>
<polygon fill="midnightblue" stroke="midnightblue" points="167.17,-248.46 156.59,-249.05 165.23,-255.18 167.17,-248.46"/>
</g>
<!-- Node8 -->
<g id="node8" class="node">
<title>Node8</title>
<g id="a_node8"><a xlink:href="Thread_8hpp.html" target="_top" xlink:title="Définition de la classe Thread.">
<polygon fill="white" stroke="black" points="500.46,-112.5 500.46,-131.5 615.46,-131.5 615.46,-112.5 500.46,-112.5"/>
<text text-anchor="middle" x="557.96" y="-119.5" font-family="Helvetica,sans-Serif" font-size="10.00">../thread/Thread.hpp</text>
</a>
</g>
</g>
<!-- Node1&#45;&gt;Node8 -->
<g id="edge40" class="edge">
<title>Node1&#45;&gt;Node8</title>
<path fill="none" stroke="midnightblue" d="M635.02,-347.43C623.41,-313.61 580.6,-188.95 564.31,-141.5"/>
<polygon fill="midnightblue" stroke="midnightblue" points="567.57,-140.22 561.02,-131.9 560.95,-142.49 567.57,-140.22"/>
</g>
<!-- Node10 -->
<g id="node10" class="node">
<title>Node10</title>
<g id="a_node10"><a xlink:title=" ">
<polygon fill="white" stroke="#bfbfbf" points="533.96,-56.5 533.96,-75.5 581.96,-75.5 581.96,-56.5 533.96,-56.5"/>
<text text-anchor="middle" x="557.96" y="-63.5" font-family="Helvetica,sans-Serif" font-size="10.00">thread</text>
</a>
</g>
</g>
<!-- Node1&#45;&gt;Node10 -->
<g id="edge32" class="edge">
<title>Node1&#45;&gt;Node10</title>
<path fill="none" stroke="midnightblue" d="M721.57,-348.33C781.55,-337.87 858.04,-313.19 894.96,-255 902.34,-243.37 897.73,-237.5 894.96,-224 889.52,-197.47 891.59,-185.54 870.96,-168 820.37,-124.99 789.27,-152.02 725.96,-132 676.37,-116.32 620.32,-93.58 587.12,-79.57"/>
<polygon fill="midnightblue" stroke="midnightblue" points="588.16,-76.21 577.59,-75.52 585.42,-82.65 588.16,-76.21"/>
</g>
<!-- Node14 -->
<g id="node14" class="node">
<title>Node14</title>
<g id="a_node14"><a xlink:href="Logger_8hpp.html" target="_top" xlink:title="Définition de la classe Logger.">
<polygon fill="white" stroke="black" points="734.96,-112.5 734.96,-131.5 804.96,-131.5 804.96,-112.5 734.96,-112.5"/>
<text text-anchor="middle" x="769.96" y="-119.5" font-family="Helvetica,sans-Serif" font-size="10.00">Logger.hpp</text>
</a>
</g>
</g>
<!-- Node1&#45;&gt;Node14 -->
<g id="edge39" class="edge">
<title>Node1&#45;&gt;Node14</title>
<path fill="none" stroke="midnightblue" d="M636,-347.41C629.96,-318.64 614.49,-224.31 656.96,-168 673.04,-146.69 700.8,-135.45 724.78,-129.53"/>
<polygon fill="midnightblue" stroke="midnightblue" points="725.78,-132.9 734.78,-127.31 724.26,-126.06 725.78,-132.9"/>
</g>
<!-- Node22 -->
<g id="node22" class="node">
<title>Node22</title>
<g id="a_node22"><a xlink:title=" ">
<polygon fill="white" stroke="#bfbfbf" points="980.46,-291.5 980.46,-310.5 1033.46,-310.5 1033.46,-291.5 980.46,-291.5"/>
<text text-anchor="middle" x="1006.96" y="-298.5" font-family="Helvetica,sans-Serif" font-size="10.00">stdlib.h</text>
</a>
</g>
</g>
<!-- Node1&#45;&gt;Node22 -->
<g id="edge31" class="edge">
<title>Node1&#45;&gt;Node22</title>
<path fill="none" stroke="midnightblue" d="M712.48,-347.49C779.13,-339.48 879.38,-326.42 965.96,-311 967.25,-310.77 968.57,-310.53 969.89,-310.28"/>
<polygon fill="midnightblue" stroke="midnightblue" points="971.01,-313.62 980.12,-308.21 969.62,-306.76 971.01,-313.62"/>
</g>
<!-- Node23 -->
<g id="node23" class="node">
<title>Node23</title>
<g id="a_node23"><a xlink:href="AsservEsialR_8hpp.html" target="_top" xlink:title=" ">
<polygon fill="white" stroke="black" points="434.96,-224.5 434.96,-254.5 568.96,-254.5 568.96,-224.5 434.96,-224.5"/>
<text text-anchor="start" x="442.96" y="-242.5" font-family="Helvetica,sans-Serif" font-size="10.00">asserv.esial/AsservEsial</text>
<text text-anchor="middle" x="501.96" y="-231.5" font-family="Helvetica,sans-Serif" font-size="10.00">R.hpp</text>
</a>
</g>
</g>
<!-- Node1&#45;&gt;Node23 -->
<g id="edge33" class="edge">
<title>Node1&#45;&gt;Node23</title>
<path fill="none" stroke="midnightblue" d="M627.74,-347.32C606.4,-329.19 556.58,-286.88 526.44,-261.29"/>
<polygon fill="midnightblue" stroke="midnightblue" points="528.39,-258.35 518.5,-254.55 523.86,-263.69 528.39,-258.35"/>
</g>
<!-- Node25 -->
<g id="node25" class="node">
<title>Node25</title>
<g id="a_node25"><a xlink:href="Robot_8hpp.html" target="_top" xlink:title=" ">
<polygon fill="white" stroke="black" points="691.46,-291.5 691.46,-310.5 766.46,-310.5 766.46,-291.5 691.46,-291.5"/>
<text text-anchor="middle" x="728.96" y="-298.5" font-family="Helvetica,sans-Serif" font-size="10.00">../Robot.hpp</text>
</a>
</g>
</g>
<!-- Node1&#45;&gt;Node25 -->
<g id="edge41" class="edge">
<title>Node1&#45;&gt;Node25</title>
<path fill="none" stroke="midnightblue" d="M652.58,-347.32C666.91,-338.82 688.97,-325.73 705.71,-315.8"/>
<polygon fill="midnightblue" stroke="midnightblue" points="707.56,-318.77 714.38,-310.65 703.99,-312.75 707.56,-318.77"/>
</g>
<!-- Node3 -->
<g id="node3" class="node">
<title>Node3</title>
<g id="a_node3"><a xlink:title=" ">
<polygon fill="white" stroke="#bfbfbf" points="1.46,-56.5 1.46,-75.5 48.46,-75.5 48.46,-56.5 1.46,-56.5"/>
<text text-anchor="middle" x="24.96" y="-63.5" font-family="Helvetica,sans-Serif" font-size="10.00">cmath</text>
</a>
</g>
</g>
<!-- Node2&#45;&gt;Node3 -->
<g id="edge2" class="edge">
<title>Node2&#45;&gt;Node3</title>
<path fill="none" stroke="midnightblue" d="M110.88,-229.81C81.74,-214.65 25.39,-180.32 2.96,-132 -4.3,-116.35 3.7,-97.6 12.01,-84.27"/>
<polygon fill="midnightblue" stroke="midnightblue" points="15.16,-85.87 17.91,-75.64 9.38,-81.92 15.16,-85.87"/>
</g>
<!-- Node4 -->
<g id="node4" class="node">
<title>Node4</title>
<g id="a_node4"><a xlink:title=" ">
<polygon fill="white" stroke="#bfbfbf" points="807.96,-0.5 807.96,-19.5 851.96,-19.5 851.96,-0.5 807.96,-0.5"/>
<text text-anchor="middle" x="829.96" y="-7.5" font-family="Helvetica,sans-Serif" font-size="10.00">string</text>
</a>
</g>
</g>
<!-- Node2&#45;&gt;Node4 -->
<g id="edge3" class="edge">
<title>Node2&#45;&gt;Node4</title>
<path fill="none" stroke="midnightblue" d="M134.88,-229.88C157.1,-198.44 239.31,-90.03 338.96,-56 424.37,-26.83 702.23,-15.18 797.53,-11.98"/>
<polygon fill="midnightblue" stroke="midnightblue" points="797.84,-15.48 807.72,-11.65 797.61,-8.48 797.84,-15.48"/>
</g>
<!-- Node5 -->
<g id="node5" class="node">
<title>Node5</title>
<g id="a_node5"><a xlink:title=" ">
<polygon fill="white" stroke="#bfbfbf" points="113.46,-168.5 113.46,-187.5 154.46,-187.5 154.46,-168.5 113.46,-168.5"/>
<text text-anchor="middle" x="133.96" y="-175.5" font-family="Helvetica,sans-Serif" font-size="10.00">tuple</text>
</a>
</g>
</g>
<!-- Node2&#45;&gt;Node5 -->
<g id="edge4" class="edge">
<title>Node2&#45;&gt;Node5</title>
<path fill="none" stroke="midnightblue" d="M129.68,-229.98C130.38,-221.58 131.48,-208.48 132.39,-197.66"/>
<polygon fill="midnightblue" stroke="midnightblue" points="135.9,-197.77 133.25,-187.51 128.92,-197.18 135.9,-197.77"/>
</g>
<!-- Node6 -->
<g id="node6" class="node">
<title>Node6</title>
<g id="a_node6"><a xlink:href="LoggerFactory_8hpp.html" target="_top" xlink:title="Définition de la classe LoggerFactory.">
<polygon fill="white" stroke="black" points="665.96,-168.5 665.96,-187.5 787.96,-187.5 787.96,-168.5 665.96,-168.5"/>
<text text-anchor="middle" x="726.96" y="-175.5" font-family="Helvetica,sans-Serif" font-size="10.00">log/LoggerFactory.hpp</text>
</a>
</g>
</g>
<!-- Node2&#45;&gt;Node6 -->
<g id="edge5" class="edge">
<title>Node2&#45;&gt;Node6</title>
<path fill="none" stroke="midnightblue" d="M164.14,-235C259.93,-225.47 526.89,-198.91 655.68,-186.09"/>
<polygon fill="midnightblue" stroke="midnightblue" points="656.22,-189.56 665.83,-185.08 655.53,-182.59 656.22,-189.56"/>
</g>
<!-- Node17 -->
<g id="node17" class="node">
<title>Node17</title>
<g id="a_node17"><a xlink:href="AAsservDriver_8hpp.html" target="_top" xlink:title="Interface abstraite du driver d&#39;asservissement.">
<polygon fill="white" stroke="black" points="252.46,-168.5 252.46,-187.5 405.46,-187.5 405.46,-168.5 252.46,-168.5"/>
<text text-anchor="middle" x="328.96" y="-175.5" font-family="Helvetica,sans-Serif" font-size="10.00">interface/AAsservDriver.hpp</text>
</a>
</g>
</g>
<!-- Node2&#45;&gt;Node17 -->
<g id="edge22" class="edge">
<title>Node2&#45;&gt;Node17</title>
<path fill="none" stroke="midnightblue" d="M157.62,-229.98C192.52,-219.59 251.61,-202.01 290.46,-190.45"/>
<polygon fill="midnightblue" stroke="midnightblue" points="291.77,-193.72 300.36,-187.51 289.78,-187.01 291.77,-193.72"/>
</g>
<!-- Node19 -->
<g id="node19" class="node">
<title>Node19</title>
<g id="a_node19"><a xlink:href="ARobotPositionShared_8hpp.html" target="_top" xlink:title="Position partagee du robot et utilitaires geometriques.">
<polygon fill="white" stroke="black" points="11.96,-112.5 11.96,-131.5 157.96,-131.5 157.96,-112.5 11.96,-112.5"/>
<text text-anchor="middle" x="84.96" y="-119.5" font-family="Helvetica,sans-Serif" font-size="10.00">ARobotPositionShared.hpp</text>
</a>
</g>
</g>
<!-- Node2&#45;&gt;Node19 -->
<g id="edge30" class="edge">
<title>Node2&#45;&gt;Node19</title>
<path fill="none" stroke="midnightblue" d="M124.05,-229.77C118.62,-219.87 109.87,-203.13 103.96,-188 97.95,-172.6 92.81,-154.5 89.4,-141.32"/>
<polygon fill="midnightblue" stroke="midnightblue" points="92.78,-140.42 86.96,-131.57 85.99,-142.12 92.78,-140.42"/>
</g>
<!-- Node6&#45;&gt;Node4 -->
<g id="edge7" class="edge">
<title>Node6&#45;&gt;Node4</title>
<path fill="none" stroke="midnightblue" d="M753.36,-168.43C788.88,-155.21 850,-125.98 870.96,-76 878.6,-57.8 863.71,-38.92 849.79,-26.23"/>
<polygon fill="midnightblue" stroke="midnightblue" points="851.77,-23.32 841.87,-19.53 847.24,-28.66 851.77,-23.32"/>
</g>
<!-- Node7 -->
<g id="node7" class="node">
<title>Node7</title>
<g id="a_node7"><a xlink:title=" ">
<polygon fill="white" stroke="#bfbfbf" points="955.96,-112.5 955.96,-131.5 993.96,-131.5 993.96,-112.5 955.96,-112.5"/>
<text text-anchor="middle" x="974.96" y="-119.5" font-family="Helvetica,sans-Serif" font-size="10.00">map</text>
</a>
</g>
</g>
<!-- Node6&#45;&gt;Node7 -->
<g id="edge6" class="edge">
<title>Node6&#45;&gt;Node7</title>
<path fill="none" stroke="midnightblue" d="M766.26,-168.44C816.2,-157.57 901.27,-139.05 945.81,-129.35"/>
<polygon fill="midnightblue" stroke="midnightblue" points="946.67,-132.74 955.7,-127.19 945.18,-125.9 946.67,-132.74"/>
</g>
<!-- Node6&#45;&gt;Node8 -->
<g id="edge8" class="edge">
<title>Node6&#45;&gt;Node8</title>
<path fill="none" stroke="midnightblue" d="M700.18,-168.44C671.63,-159.32 626.23,-144.81 594.42,-134.65"/>
<polygon fill="midnightblue" stroke="midnightblue" points="595.21,-131.23 584.62,-131.52 593.08,-137.89 595.21,-131.23"/>
</g>
<!-- Node6&#45;&gt;Node14 -->
<g id="edge16" class="edge">
<title>Node6&#45;&gt;Node14</title>
<path fill="none" stroke="midnightblue" d="M734.06,-168.08C740.2,-160.38 749.23,-149.03 756.7,-139.65"/>
<polygon fill="midnightblue" stroke="midnightblue" points="759.5,-141.75 762.99,-131.75 754.03,-137.39 759.5,-141.75"/>
</g>
<!-- Node8&#45;&gt;Node4 -->
<g id="edge10" class="edge">
<title>Node8&#45;&gt;Node4</title>
<path fill="none" stroke="midnightblue" d="M547.51,-112.22C532.94,-98.93 509.91,-73.44 524.96,-56 559.89,-15.54 726,-10.82 797.31,-10.7"/>
<polygon fill="midnightblue" stroke="midnightblue" points="797.51,-14.2 807.52,-10.72 797.52,-7.2 797.51,-14.2"/>
</g>
<!-- Node9 -->
<g id="node9" class="node">
<title>Node9</title>
<g id="a_node9"><a xlink:title=" ">
<polygon fill="white" stroke="#bfbfbf" points="416.46,-0.5 416.46,-19.5 479.46,-19.5 479.46,-0.5 416.46,-0.5"/>
<text text-anchor="middle" x="447.96" y="-7.5" font-family="Helvetica,sans-Serif" font-size="10.00">pthread.h</text>
</a>
</g>
</g>
<!-- Node8&#45;&gt;Node9 -->
<g id="edge9" class="edge">
<title>Node8&#45;&gt;Node9</title>
<path fill="none" stroke="midnightblue" d="M500.41,-116.02C447.51,-110.1 374.68,-98.12 356.96,-76 338.37,-52.79 374.6,-34.09 406.7,-22.81"/>
<polygon fill="midnightblue" stroke="midnightblue" points="408.09,-26.03 416.47,-19.55 405.88,-19.39 408.09,-26.03"/>
</g>
<!-- Node8&#45;&gt;Node10 -->
<g id="edge11" class="edge">
<title>Node8&#45;&gt;Node10</title>
<path fill="none" stroke="midnightblue" d="M557.96,-112.08C557.96,-105.01 557.96,-94.86 557.96,-85.99"/>
<polygon fill="midnightblue" stroke="midnightblue" points="561.46,-85.75 557.96,-75.75 554.46,-85.75 561.46,-85.75"/>
</g>
<!-- Node11 -->
<g id="node11" class="node">
<title>Node11</title>
<g id="a_node11"><a xlink:title=" ">
<polygon fill="white" stroke="#bfbfbf" points="365.96,-56.5 365.96,-75.5 409.96,-75.5 409.96,-56.5 365.96,-56.5"/>
<text text-anchor="middle" x="387.96" y="-63.5" font-family="Helvetica,sans-Serif" font-size="10.00">ctime</text>
</a>
</g>
</g>
<!-- Node8&#45;&gt;Node11 -->
<g id="edge12" class="edge">
<title>Node8&#45;&gt;Node11</title>
<path fill="none" stroke="midnightblue" d="M531.02,-112.44C500.87,-102.86 452.02,-87.35 419.95,-77.16"/>
<polygon fill="midnightblue" stroke="midnightblue" points="420.76,-73.75 410.17,-74.05 418.64,-80.42 420.76,-73.75"/>
</g>
<!-- Node12 -->
<g id="node12" class="node">
<title>Node12</title>
<g id="a_node12"><a xlink:href="Mutex_8hpp.html" target="_top" xlink:title="Définition de la classe Mutex.">
<polygon fill="white" stroke="black" points="599.96,-56.5 599.96,-75.5 667.96,-75.5 667.96,-56.5 599.96,-56.5"/>
<text text-anchor="middle" x="633.96" y="-63.5" font-family="Helvetica,sans-Serif" font-size="10.00">Mutex.hpp</text>
</a>
</g>
</g>
<!-- Node8&#45;&gt;Node12 -->
<g id="edge13" class="edge">
<title>Node8&#45;&gt;Node12</title>
<path fill="none" stroke="midnightblue" d="M570.17,-112.32C581.74,-104.11 599.34,-91.6 613.12,-81.81"/>
<polygon fill="midnightblue" stroke="midnightblue" points="615.4,-84.48 621.53,-75.83 611.35,-78.77 615.4,-84.48"/>
</g>
<!-- Node13 -->
<g id="node13" class="node">
<title>Node13</title>
<g id="a_node13"><a xlink:title=" ">
<polygon fill="white" stroke="#bfbfbf" points="427.96,-56.5 427.96,-75.5 477.96,-75.5 477.96,-56.5 427.96,-56.5"/>
<text text-anchor="middle" x="452.96" y="-63.5" font-family="Helvetica,sans-Serif" font-size="10.00">chrono</text>
</a>
</g>
</g>
<!-- Node8&#45;&gt;Node13 -->
<g id="edge15" class="edge">
<title>Node8&#45;&gt;Node13</title>
<path fill="none" stroke="midnightblue" d="M541.09,-112.32C524.25,-103.66 498.16,-90.24 478.72,-80.25"/>
<polygon fill="midnightblue" stroke="midnightblue" points="480.28,-77.12 469.79,-75.65 477.08,-83.34 480.28,-77.12"/>
</g>
<!-- Node12&#45;&gt;Node9 -->
<g id="edge14" class="edge">
<title>Node12&#45;&gt;Node9</title>
<path fill="none" stroke="midnightblue" d="M604.49,-56.44C572.79,-47.24 522.23,-32.56 487.19,-22.39"/>
<polygon fill="midnightblue" stroke="midnightblue" points="487.88,-18.94 477.3,-19.52 485.92,-25.67 487.88,-18.94"/>
</g>
<!-- Node14&#45;&gt;Node4 -->
<g id="edge18" class="edge">
<title>Node14&#45;&gt;Node4</title>
<path fill="none" stroke="midnightblue" d="M771.25,-112.09C773.42,-99.09 778.6,-74.45 788.96,-56 795.08,-45.11 804.29,-34.68 812.43,-26.61"/>
<polygon fill="midnightblue" stroke="midnightblue" points="814.92,-29.07 819.78,-19.65 810.11,-23.99 814.92,-29.07"/>
</g>
<!-- Node14&#45;&gt;Node12 -->
<g id="edge19" class="edge">
<title>Node14&#45;&gt;Node12</title>
<path fill="none" stroke="midnightblue" d="M748.41,-112.44C725.93,-103.52 690.47,-89.44 664.98,-79.32"/>
<polygon fill="midnightblue" stroke="midnightblue" points="666,-75.95 655.41,-75.52 663.41,-82.46 666,-75.95"/>
</g>
<!-- Node15 -->
<g id="node15" class="node">
<title>Node15</title>
<g id="a_node15"><a xlink:title=" ">
<polygon fill="white" stroke="#bfbfbf" points="685.96,-56.5 685.96,-75.5 741.96,-75.5 741.96,-56.5 685.96,-56.5"/>
<text text-anchor="middle" x="713.96" y="-63.5" font-family="Helvetica,sans-Serif" font-size="10.00">sstream</text>
</a>
</g>
</g>
<!-- Node14&#45;&gt;Node15 -->
<g id="edge17" class="edge">
<title>Node14&#45;&gt;Node15</title>
<path fill="none" stroke="midnightblue" d="M760.96,-112.32C752.77,-104.42 740.46,-92.55 730.49,-82.94"/>
<polygon fill="midnightblue" stroke="midnightblue" points="732.75,-80.26 723.12,-75.83 727.89,-85.29 732.75,-80.26"/>
</g>
<!-- Node16 -->
<g id="node16" class="node">
<title>Node16</title>
<g id="a_node16"><a xlink:href="Level_8hpp.html" target="_top" xlink:title="Définition de la classe Level.">
<polygon fill="white" stroke="black" points="797.96,-56.5 797.96,-75.5 861.96,-75.5 861.96,-56.5 797.96,-56.5"/>
<text text-anchor="middle" x="829.96" y="-63.5" font-family="Helvetica,sans-Serif" font-size="10.00">Level.hpp</text>
</a>
</g>
</g>
<!-- Node14&#45;&gt;Node16 -->
<g id="edge20" class="edge">
<title>Node14&#45;&gt;Node16</title>
<path fill="none" stroke="midnightblue" d="M779.6,-112.32C788.47,-104.34 801.84,-92.31 812.57,-82.65"/>
<polygon fill="midnightblue" stroke="midnightblue" points="815.05,-85.13 820.15,-75.83 810.37,-79.92 815.05,-85.13"/>
</g>
<!-- Node16&#45;&gt;Node4 -->
<g id="edge21" class="edge">
<title>Node16&#45;&gt;Node4</title>
<path fill="none" stroke="midnightblue" d="M829.96,-56.08C829.96,-49.01 829.96,-38.86 829.96,-29.99"/>
<polygon fill="midnightblue" stroke="midnightblue" points="833.46,-29.75 829.96,-19.75 826.46,-29.75 833.46,-29.75"/>
</g>
<!-- Node17&#45;&gt;Node4 -->
<g id="edge24" class="edge">
<title>Node17&#45;&gt;Node4</title>
<path fill="none" stroke="midnightblue" d="M327.92,-168.3C325.78,-145.78 323.54,-85.26 356.96,-56 390.05,-27.03 696.17,-15.1 797.54,-11.92"/>
<polygon fill="midnightblue" stroke="midnightblue" points="797.89,-15.41 807.78,-11.61 797.68,-8.42 797.89,-15.41"/>
</g>
<!-- Node18 -->
<g id="node18" class="node">
<title>Node18</title>
<g id="a_node18"><a xlink:title=" ">
<polygon fill="white" stroke="#bfbfbf" points="259.96,-112.5 259.96,-131.5 309.96,-131.5 309.96,-112.5 259.96,-112.5"/>
<text text-anchor="middle" x="284.96" y="-119.5" font-family="Helvetica,sans-Serif" font-size="10.00">cstdint</text>
</a>
</g>
</g>
<!-- Node17&#45;&gt;Node18 -->
<g id="edge23" class="edge">
<title>Node17&#45;&gt;Node18</title>
<path fill="none" stroke="midnightblue" d="M321.7,-168.08C315.42,-160.38 306.17,-149.03 298.53,-139.65"/>
<polygon fill="midnightblue" stroke="midnightblue" points="301.12,-137.29 292.09,-131.75 295.7,-141.71 301.12,-137.29"/>
</g>
<!-- Node17&#45;&gt;Node19 -->
<g id="edge25" class="edge">
<title>Node17&#45;&gt;Node19</title>
<path fill="none" stroke="midnightblue" d="M290.3,-168.44C247.82,-159.04 179.53,-143.93 133.49,-133.74"/>
<polygon fill="midnightblue" stroke="midnightblue" points="133.96,-130.26 123.44,-131.52 132.45,-137.09 133.96,-130.26"/>
</g>
<!-- Node19&#45;&gt;Node3 -->
<g id="edge26" class="edge">
<title>Node19&#45;&gt;Node3</title>
<path fill="none" stroke="midnightblue" d="M75.32,-112.32C66.45,-104.34 53.09,-92.31 42.35,-82.65"/>
<polygon fill="midnightblue" stroke="midnightblue" points="44.55,-79.92 34.78,-75.83 39.87,-85.13 44.55,-79.92"/>
</g>
<!-- Node20 -->
<g id="node20" class="node">
<title>Node20</title>
<g id="a_node20"><a xlink:href="Chronometer_8hpp.html" target="_top" xlink:title="Définition de la classe Chronometer.">
<polygon fill="white" stroke="black" points="108.46,-56.5 108.46,-75.5 233.46,-75.5 233.46,-56.5 108.46,-56.5"/>
<text text-anchor="middle" x="170.96" y="-63.5" font-family="Helvetica,sans-Serif" font-size="10.00">utils/Chronometer.hpp</text>
</a>
</g>
</g>
<!-- Node19&#45;&gt;Node20 -->
<g id="edge27" class="edge">
<title>Node19&#45;&gt;Node20</title>
<path fill="none" stroke="midnightblue" d="M98.78,-112.32C112.19,-103.9 132.79,-90.97 148.55,-81.07"/>
<polygon fill="midnightblue" stroke="midnightblue" points="150.57,-83.94 157.18,-75.65 146.85,-78.01 150.57,-83.94"/>
</g>
<!-- Node20&#45;&gt;Node4 -->
<g id="edge29" class="edge">
<title>Node20&#45;&gt;Node4</title>
<path fill="none" stroke="midnightblue" d="M233.55,-59.87C370.86,-48.62 694.49,-22.1 797.72,-13.64"/>
<polygon fill="midnightblue" stroke="midnightblue" points="798.16,-17.12 807.84,-12.81 797.58,-10.14 798.16,-17.12"/>
</g>
<!-- Node21 -->
<g id="node21" class="node">
<title>Node21</title>
<g id="a_node21"><a xlink:title=" ">
<polygon fill="white" stroke="#bfbfbf" points="136.96,-0.5 136.96,-19.5 204.96,-19.5 204.96,-0.5 136.96,-0.5"/>
<text text-anchor="middle" x="170.96" y="-7.5" font-family="Helvetica,sans-Serif" font-size="10.00">sys/time.h</text>
</a>
</g>
</g>
<!-- Node20&#45;&gt;Node21 -->
<g id="edge28" class="edge">
<title>Node20&#45;&gt;Node21</title>
<path fill="none" stroke="midnightblue" d="M170.96,-56.08C170.96,-49.01 170.96,-38.86 170.96,-29.99"/>
<polygon fill="midnightblue" stroke="midnightblue" points="174.46,-29.75 170.96,-19.75 167.46,-29.75 174.46,-29.75"/>
</g>
<!-- Node23&#45;&gt;Node6 -->
<g id="edge37" class="edge">
<title>Node23&#45;&gt;Node6</title>
<path fill="none" stroke="midnightblue" d="M555,-224.47C594.66,-213.99 648.17,-199.84 684.9,-190.12"/>
<polygon fill="midnightblue" stroke="midnightblue" points="686.02,-193.45 694.79,-187.51 684.23,-186.68 686.02,-193.45"/>
</g>
<!-- Node23&#45;&gt;Node8 -->
<g id="edge38" class="edge">
<title>Node23&#45;&gt;Node8</title>
<path fill="none" stroke="midnightblue" d="M516.5,-224.29C525.4,-214.8 536.32,-201.6 542.96,-188 550.11,-173.37 553.93,-155.2 555.92,-141.79"/>
<polygon fill="midnightblue" stroke="midnightblue" points="559.4,-142.2 557.2,-131.83 552.46,-141.31 559.4,-142.2"/>
</g>
<!-- Node23&#45;&gt;Node17 -->
<g id="edge35" class="edge">
<title>Node23&#45;&gt;Node17</title>
<path fill="none" stroke="midnightblue" d="M460.96,-224.4C431.33,-214.21 391.74,-200.59 363.66,-190.93"/>
<polygon fill="midnightblue" stroke="midnightblue" points="364.48,-187.51 353.88,-187.57 362.2,-194.13 364.48,-187.51"/>
</g>
<!-- Node23&#45;&gt;Node20 -->
<g id="edge36" class="edge">
<title>Node23&#45;&gt;Node20</title>
<path fill="none" stroke="midnightblue" d="M485.64,-224.25C468.37,-209.46 440.06,-186.01 413.96,-168 373.62,-140.16 363.84,-131.71 318.96,-112 285.94,-97.49 246.82,-85.82 217.1,-78"/>
<polygon fill="midnightblue" stroke="midnightblue" points="217.96,-74.61 207.41,-75.5 216.22,-81.39 217.96,-74.61"/>
</g>
<!-- Node24 -->
<g id="node24" class="node">
<title>Node24</title>
<g id="a_node24"><a xlink:title=" ">
<polygon fill="white" stroke="#bfbfbf" points="461.96,-168.5 461.96,-187.5 533.96,-187.5 533.96,-168.5 461.96,-168.5"/>
<text text-anchor="middle" x="497.96" y="-175.5" font-family="Helvetica,sans-Serif" font-size="10.00">sys/types.h</text>
</a>
</g>
</g>
<!-- Node23&#45;&gt;Node24 -->
<g id="edge34" class="edge">
<title>Node23&#45;&gt;Node24</title>
<path fill="none" stroke="midnightblue" d="M501.01,-224.4C500.48,-216.47 499.81,-206.46 499.23,-197.86"/>
<polygon fill="midnightblue" stroke="midnightblue" points="502.71,-197.4 498.54,-187.66 495.72,-197.87 502.71,-197.4"/>
</g>
<!-- Node25&#45;&gt;Node4 -->
<g id="edge43" class="edge">
<title>Node25&#45;&gt;Node4</title>
<path fill="none" stroke="midnightblue" d="M766.58,-295.12C810.59,-288.54 879.45,-275.28 894.96,-255 906.76,-239.58 943.62,-168.48 885.96,-56 879.36,-43.13 867.25,-32.68 855.97,-25.1"/>
<polygon fill="midnightblue" stroke="midnightblue" points="857.56,-21.97 847.22,-19.65 853.86,-27.91 857.56,-21.97"/>
</g>
<!-- Node25&#45;&gt;Node6 -->
<g id="edge44" class="edge">
<title>Node25&#45;&gt;Node6</title>
<path fill="none" stroke="midnightblue" d="M719.67,-291.39C711.38,-283.02 699.82,-269.48 694.96,-255 690.58,-241.94 690.77,-237.12 694.96,-224 698.3,-213.54 705.06,-203.43 711.51,-195.45"/>
<polygon fill="midnightblue" stroke="midnightblue" points="714.31,-197.56 718.21,-187.71 709.02,-192.98 714.31,-197.56"/>
</g>
<!-- Node25&#45;&gt;Node17 -->
<g id="edge51" class="edge">
<title>Node25&#45;&gt;Node17</title>
<path fill="none" stroke="midnightblue" d="M691.39,-300.49C632.42,-299.95 515.62,-293.54 425.96,-255 393.24,-240.93 362.05,-213.01 344.24,-195.21"/>
<polygon fill="midnightblue" stroke="midnightblue" points="346.53,-192.55 337.04,-187.83 341.52,-197.44 346.53,-192.55"/>
</g>
<!-- Node25&#45;&gt;Node20 -->
<g id="edge60" class="edge">
<title>Node25&#45;&gt;Node20</title>
<path fill="none" stroke="midnightblue" d="M691.27,-299.47C625.44,-297.61 485.86,-289.54 373.96,-255 311.48,-235.71 290.66,-232.74 242.96,-188 211.14,-158.15 188.69,-111.1 178.01,-85.35"/>
<polygon fill="midnightblue" stroke="midnightblue" points="181.13,-83.71 174.17,-75.73 174.63,-86.31 181.13,-83.71"/>
</g>
<!-- Node26 -->
<g id="node26" class="node">
<title>Node26</title>
<g id="a_node26"><a xlink:title=" ">
<polygon fill="white" stroke="#bfbfbf" points="703.96,-230 703.96,-249 753.96,-249 753.96,-230 703.96,-230"/>
<text text-anchor="middle" x="728.96" y="-237" font-family="Helvetica,sans-Serif" font-size="10.00">stdio.h</text>
</a>
</g>
</g>
<!-- Node25&#45;&gt;Node26 -->
<g id="edge42" class="edge">
<title>Node25&#45;&gt;Node26</title>
<path fill="none" stroke="midnightblue" d="M728.96,-291.48C728.96,-283.08 728.96,-269.98 728.96,-259.16"/>
<polygon fill="midnightblue" stroke="midnightblue" points="732.46,-259.01 728.96,-249.01 725.46,-259.01 732.46,-259.01"/>
</g>
<!-- Node27 -->
<g id="node27" class="node">
<title>Node27</title>
<g id="a_node27"><a xlink:href="Arguments_8hpp.html" target="_top" xlink:title=" ">
<polygon fill="white" stroke="black" points="1032.46,-168.5 1032.46,-187.5 1147.46,-187.5 1147.46,-168.5 1032.46,-168.5"/>
<text text-anchor="middle" x="1089.96" y="-175.5" font-family="Helvetica,sans-Serif" font-size="10.00">utils/Arguments.hpp</text>
</a>
</g>
</g>
<!-- Node25&#45;&gt;Node27 -->
<g id="edge45" class="edge">
<title>Node25&#45;&gt;Node27</title>
<path fill="none" stroke="midnightblue" d="M766.67,-293.98C807.2,-286.94 873.18,-273.79 927.96,-255 978.56,-237.64 1034.38,-209.25 1065.51,-192.52"/>
<polygon fill="midnightblue" stroke="midnightblue" points="1067.22,-195.57 1074.34,-187.73 1063.88,-189.42 1067.22,-195.57"/>
</g>
<!-- Node31 -->
<g id="node31" class="node">
<title>Node31</title>
<g id="a_node31"><a xlink:href="ConsoleManager_8hpp.html" target="_top" xlink:title="Définition de la classe ConsoleManager.">
<polygon fill="white" stroke="black" points="1191.46,-168.5 1191.46,-187.5 1334.46,-187.5 1334.46,-168.5 1191.46,-168.5"/>
<text text-anchor="middle" x="1262.96" y="-175.5" font-family="Helvetica,sans-Serif" font-size="10.00">utils/ConsoleManager.hpp</text>
</a>
</g>
</g>
<!-- Node25&#45;&gt;Node31 -->
<g id="edge52" class="edge">
<title>Node25&#45;&gt;Node31</title>
<path fill="none" stroke="midnightblue" d="M766.7,-294.17C815.65,-286.38 903.58,-271.61 977.96,-255 1066.88,-235.14 1169.87,-206.18 1224.42,-190.35"/>
<polygon fill="midnightblue" stroke="midnightblue" points="1225.4,-193.71 1234.03,-187.56 1223.45,-186.99 1225.4,-193.71"/>
</g>
<!-- Node33 -->
<g id="node33" class="node">
<title>Node33</title>
<g id="a_node33"><a xlink:href="Automate_8hpp.html" target="_top" xlink:title="Définition de la classe Automate.">
<polygon fill="white" stroke="black" points="772.46,-230 772.46,-249 885.46,-249 885.46,-230 772.46,-230"/>
<text text-anchor="middle" x="828.96" y="-237" font-family="Helvetica,sans-Serif" font-size="10.00">state/Automate.hpp</text>
</a>
</g>
</g>
<!-- Node25&#45;&gt;Node33 -->
<g id="edge57" class="edge">
<title>Node25&#45;&gt;Node33</title>
<path fill="none" stroke="midnightblue" d="M743.29,-291.48C759.63,-281.75 786.56,-265.73 805.87,-254.24"/>
<polygon fill="midnightblue" stroke="midnightblue" points="807.86,-257.13 814.66,-249.01 804.28,-251.11 807.86,-257.13"/>
</g>
<!-- Node27&#45;&gt;Node4 -->
<g id="edge49" class="edge">
<title>Node27&#45;&gt;Node4</title>
<path fill="none" stroke="midnightblue" d="M1114.11,-168.48C1142.24,-157.2 1182.74,-135.93 1164.96,-112 1128.2,-62.52 939.17,-28.01 862.42,-15.84"/>
<polygon fill="midnightblue" stroke="midnightblue" points="862.78,-12.35 852.36,-14.27 861.7,-19.27 862.78,-12.35"/>
</g>
<!-- Node27&#45;&gt;Node7 -->
<g id="edge48" class="edge">
<title>Node27&#45;&gt;Node7</title>
<path fill="none" stroke="midnightblue" d="M1071.74,-168.44C1053.07,-159.68 1023.81,-145.94 1002.34,-135.86"/>
<polygon fill="midnightblue" stroke="midnightblue" points="1003.64,-132.6 993.1,-131.52 1000.66,-138.93 1003.64,-132.6"/>
</g>
<!-- Node28 -->
<g id="node28" class="node">
<title>Node28</title>
<g id="a_node28"><a xlink:title=" ">
<polygon fill="white" stroke="#bfbfbf" points="1090.46,-112.5 1090.46,-131.5 1155.46,-131.5 1155.46,-112.5 1090.46,-112.5"/>
<text text-anchor="middle" x="1122.96" y="-119.5" font-family="Helvetica,sans-Serif" font-size="10.00">functional</text>
</a>
</g>
</g>
<!-- Node27&#45;&gt;Node28 -->
<g id="edge46" class="edge">
<title>Node27&#45;&gt;Node28</title>
<path fill="none" stroke="midnightblue" d="M1095.41,-168.08C1099.98,-160.61 1106.63,-149.72 1112.26,-140.52"/>
<polygon fill="midnightblue" stroke="midnightblue" points="1115.39,-142.11 1117.61,-131.75 1109.41,-138.46 1115.39,-142.11"/>
</g>
<!-- Node29 -->
<g id="node29" class="node">
<title>Node29</title>
<g id="a_node29"><a xlink:title=" ">
<polygon fill="white" stroke="#bfbfbf" points="1011.96,-112.5 1011.96,-131.5 1071.96,-131.5 1071.96,-112.5 1011.96,-112.5"/>
<text text-anchor="middle" x="1041.96" y="-119.5" font-family="Helvetica,sans-Serif" font-size="10.00">iostream</text>
</a>
</g>
</g>
<!-- Node27&#45;&gt;Node29 -->
<g id="edge47" class="edge">
<title>Node27&#45;&gt;Node29</title>
<path fill="none" stroke="midnightblue" d="M1082.04,-168.08C1075.12,-160.3 1064.9,-148.8 1056.51,-139.37"/>
<polygon fill="midnightblue" stroke="midnightblue" points="1059,-136.9 1049.74,-131.75 1053.77,-141.55 1059,-136.9"/>
</g>
<!-- Node30 -->
<g id="node30" class="node">
<title>Node30</title>
<g id="a_node30"><a xlink:title=" ">
<polygon fill="white" stroke="#bfbfbf" points="1212.46,-112.5 1212.46,-131.5 1259.46,-131.5 1259.46,-112.5 1212.46,-112.5"/>
<text text-anchor="middle" x="1235.96" y="-119.5" font-family="Helvetica,sans-Serif" font-size="10.00">vector</text>
</a>
</g>
</g>
<!-- Node27&#45;&gt;Node30 -->
<g id="edge50" class="edge">
<title>Node27&#45;&gt;Node30</title>
<path fill="none" stroke="midnightblue" d="M1113.1,-168.44C1137.44,-159.44 1175.97,-145.19 1203.38,-135.05"/>
<polygon fill="midnightblue" stroke="midnightblue" points="1204.77,-138.27 1212.94,-131.52 1202.34,-131.7 1204.77,-138.27"/>
</g>
<!-- Node31&#45;&gt;Node4 -->
<g id="edge53" class="edge">
<title>Node31&#45;&gt;Node4</title>
<path fill="none" stroke="midnightblue" d="M1267.04,-168.46C1272.78,-155.05 1281.26,-128.84 1268.96,-112 1220.51,-45.62 955.71,-20.16 862.46,-13.17"/>
<polygon fill="midnightblue" stroke="midnightblue" points="862.45,-9.66 852.22,-12.42 861.94,-16.64 862.45,-9.66"/>
</g>
<!-- Node31&#45;&gt;Node30 -->
<g id="edge54" class="edge">
<title>Node31&#45;&gt;Node30</title>
<path fill="none" stroke="midnightblue" d="M1258.5,-168.08C1254.81,-160.69 1249.44,-149.95 1244.87,-140.81"/>
<polygon fill="midnightblue" stroke="midnightblue" points="1247.94,-139.13 1240.34,-131.75 1241.68,-142.26 1247.94,-139.13"/>
</g>
<!-- Node32 -->
<g id="node32" class="node">
<title>Node32</title>
<g id="a_node32"><a xlink:href="FunctionalTest_8hpp.html" target="_top" xlink:title="Class definition for functional tests.">
<polygon fill="white" stroke="black" points="1316.46,-56.5 1316.46,-75.5 1423.46,-75.5 1423.46,-56.5 1316.46,-56.5"/>
<text text-anchor="middle" x="1369.96" y="-63.5" font-family="Helvetica,sans-Serif" font-size="10.00">FunctionalTest.hpp</text>
</a>
</g>
</g>
<!-- Node31&#45;&gt;Node32 -->
<g id="edge55" class="edge">
<title>Node31&#45;&gt;Node32</title>
<path fill="none" stroke="midnightblue" d="M1271.36,-168.37C1289.25,-149.97 1331.37,-106.67 1354.35,-83.05"/>
<polygon fill="midnightblue" stroke="midnightblue" points="1357.14,-85.2 1361.6,-75.59 1352.12,-80.32 1357.14,-85.2"/>
</g>
<!-- Node32&#45;&gt;Node4 -->
<g id="edge56" class="edge">
<title>Node32&#45;&gt;Node4</title>
<path fill="none" stroke="midnightblue" d="M1316.16,-57.7C1311.36,-57.1 1306.58,-56.53 1301.96,-56 1137.09,-37.24 939.2,-20.12 862.52,-13.69"/>
<polygon fill="midnightblue" stroke="midnightblue" points="862.37,-10.17 852.11,-12.82 861.78,-17.14 862.37,-10.17"/>
</g>
<!-- Node33&#45;&gt;Node6 -->
<g id="edge59" class="edge">
<title>Node33&#45;&gt;Node6</title>
<path fill="none" stroke="midnightblue" d="M814.35,-229.98C797.61,-220.21 769.96,-204.08 750.24,-192.58"/>
<polygon fill="midnightblue" stroke="midnightblue" points="751.95,-189.52 741.55,-187.51 748.42,-195.57 751.95,-189.52"/>
</g>
<!-- Node34 -->
<g id="node34" class="node">
<title>Node34</title>
<g id="a_node34"><a xlink:title=" ">
<polygon fill="white" stroke="#bfbfbf" points="805.96,-168.5 805.96,-187.5 861.96,-187.5 861.96,-168.5 805.96,-168.5"/>
<text text-anchor="middle" x="833.96" y="-175.5" font-family="Helvetica,sans-Serif" font-size="10.00">stddef.h</text>
</a>
</g>
</g>
<!-- Node33&#45;&gt;Node34 -->
<g id="edge58" class="edge">
<title>Node33&#45;&gt;Node34</title>
<path fill="none" stroke="midnightblue" d="M829.68,-229.98C830.38,-221.58 831.48,-208.48 832.39,-197.66"/>
<polygon fill="midnightblue" stroke="midnightblue" points="835.9,-197.77 833.25,-187.51 828.92,-197.18 835.9,-197.77"/>
</g>
</g>
</svg>
        <g id="navigator" transform="translate(0 0)" fill="#404254">
                <rect fill="#f2f5e9" fill-opacity="0.5" stroke="#606060" stroke-width=".5" x="0" y="0" width="60" height="60"/>
                <use id="zoomplus" xlink:href="#zoomPlus" x="17" y="9" onmousedown="handleZoom(evt,'in')"/>
                <use id="zoomminus" xlink:href="#zoomMin" x="42" y="9" onmousedown="handleZoom(evt,'out')"/>
                <use id="reset" xlink:href="#resetDef" x="30" y="36" onmousedown="handleReset()"/>
                <g id="arrowUp" xlink:href="#dirArrow" transform="translate(30 24)" onmousedown="handlePan(0,-1)">
                  <use xlink:href="#rim" fill="#404040">
                        <set attributeName="fill" to="#808080" begin="arrowUp.mouseover" end="arrowUp.mouseout"/>
                  </use>
                  <path fill="none" stroke="white" stroke-width="1.5" d="M0,-3.0v7 M-2.5,-0.5L0,-3.0L2.5,-0.5"/>
                </g>
                <g id="arrowRight" xlink:href="#dirArrow" transform="rotate(90) translate(36 -43)" onmousedown="handlePan(1,0)">
                  <use xlink:href="#rim" fill="#404040">
                        <set attributeName="fill" to="#808080" begin="arrowRight.mouseover" end="arrowRight.mouseout"/>
                  </use>
                  <path fill="none" stroke="white" stroke-width="1.5" d="M0,-3.0v7 M-2.5,-0.5L0,-3.0L2.5,-0.5"/>
                </g>
                <g id="arrowDown" xlink:href="#dirArrow" transform="rotate(180) translate(-30 -48)" onmousedown="handlePan(0,1)">
                  <use xlink:href="#rim" fill="#404040">
                        <set attributeName="fill" to="#808080" begin="arrowDown.mouseover" end="arrowDown.mouseout"/>
                  </use>
                  <path fill="none" stroke="white" stroke-width="1.5" d="M0,-3.0v7 M-2.5,-0.5L0,-3.0L2.5,-0.5"/>
                </g>
                <g id="arrowLeft" xlink:href="#dirArrow" transform="rotate(270) translate(-36 17)" onmousedown="handlePan(-1,0)">
                  <use xlink:href="#rim" fill="#404040">
                        <set attributeName="fill" to="#808080" begin="arrowLeft.mouseover" end="arrowLeft.mouseout"/>
                  </use>
                  <path fill="none" stroke="white" stroke-width="1.5" d="M0,-3.0v7 M-2.5,-0.5L0,-3.0L2.5,-0.5"/>
                </g>
        </g>
        <svg viewBox="0 0 15 15" width="100%" height="30px" preserveAspectRatio="xMaxYMin meet">
         <g id="arrow_out" transform="scale(0.3 0.3)">
          <a xlink:href="Asserv_8cpp__incl_org.svg" target="_base">
           <rect id="button" ry="5" rx="5" y="6" x="6" height="38" width="38"
                fill="#f2f5e9" fill-opacity="0.5" stroke="#606060" stroke-width="1.0"/>
           <path id="arrow"
             d="M 11.500037,31.436501 C 11.940474,20.09759 22.043105,11.32322 32.158766,21.979434 L 37.068811,17.246167 C 37.068811,17.246167 37.088388,32 37.088388,32 L 22.160133,31.978069 C 22.160133,31.978069 26.997745,27.140456 26.997745,27.140456 C 18.528582,18.264221 13.291696,25.230495 11.500037,31.436501 z"
             style="fill:#404040;"/>
          </a>
         </g>
        </svg>
</svg>
