<?xml version="1.0" encoding="UTF-8" standalone="no"?>
<!DOCTYPE svg PUBLIC "-//W3C//DTD SVG 1.1//EN"
 "http://www.w3.org/Graphics/SVG/1.1/DTD/svg11.dtd">
<!-- Generated by graphviz version 2.43.0 (0)
 -->
<!-- Title: src/common/asserv.esial/AsservEsialR.hpp Pages: 1 -->
<!--zoomable 263 -->
<svg id="main" version="1.1" xmlns="http://www.w3.org/2000/svg" xmlns:xlink="http://www.w3.org/1999/xlink" xml:space="preserve" onload="init(evt)">
<style type="text/css"><![CDATA[
.edge:hover path { stroke: red; }
.edge:hover polygon { stroke: red; fill: red; }
]]></style>
<script type="text/javascript"><![CDATA[
var edges = document.getElementsByTagName('g');
if (edges && edges.length) {
  for (var i=0;i<edges.length;i++) {
    if (edges[i].id.substr(0,4)=='edge') {
      edges[i].setAttribute('class','edge');
    }
  }
}
]]></script>
        <defs>
                <circle id="rim" cx="0" cy="0" r="7"/>
                <circle id="rim2" cx="0" cy="0" r="3.5"/>
                <g id="zoomPlus">
                        <use xlink:href="#rim" fill="#404040">
                                <set attributeName="fill" to="#808080" begin="zoomplus.mouseover" end="zoomplus.mouseout"/>
                        </use>
                        <path d="M-4,0h8M0,-4v8" fill="none" stroke="white" stroke-width="1.5" pointer-events="none"/>
                </g>
                <g id="zoomMin">
                        <use xlink:href="#rim" fill="#404040">
                                <set attributeName="fill" to="#808080" begin="zoomminus.mouseover" end="zoomminus.mouseout"/>
                        </use>
                        <path d="M-4,0h8" fill="none" stroke="white" stroke-width="1.5" pointer-events="none"/>
                </g>
                <g id="dirArrow">
                        <path fill="none" stroke="white" stroke-width="1.5" d="M0,-3.0v7 M-2.5,-0.5L0,-3.0L2.5,-0.5"/>
                </g>
               <g id="resetDef">
                       <use xlink:href="#rim2" fill="#404040">
                               <set attributeName="fill" to="#808080" begin="reset.mouseover" end="reset.mouseout"/>
                       </use>
               </g>
        </defs>

<script type="text/javascript">
var viewWidth = 916;
var viewHeight = 263;
var sectionId = 'dynsection-0';
</script>
<script xlink:href="svgpan.js"/>
<svg id="graph" class="graph">
<g id="viewport">
<title>src/common/asserv.esial/AsservEsialR.hpp</title>
<polygon fill="white" stroke="transparent" points="-4,4 -4,-259 912,-259 912,4 -4,4"/>
<!-- Node1 -->
<g id="node1" class="node">
<title>Node1</title>
<g id="a_node1"><a xlink:title=" ">
<polygon fill="#bfbfbf" stroke="black" points="248.5,-224.5 248.5,-254.5 385.5,-254.5 385.5,-224.5 248.5,-224.5"/>
<text text-anchor="start" x="256.5" y="-242.5" font-family="Helvetica,sans-Serif" font-size="10.00">src/common/asserv.esial</text>
<text text-anchor="middle" x="317" y="-231.5" font-family="Helvetica,sans-Serif" font-size="10.00">/AsservEsialR.hpp</text>
</a>
</g>
</g>
<!-- Node2 -->
<g id="node2" class="node">
<title>Node2</title>
<g id="a_node2"><a xlink:title=" ">
<polygon fill="white" stroke="#bfbfbf" points="0,-168.5 0,-187.5 72,-187.5 72,-168.5 0,-168.5"/>
<text text-anchor="middle" x="36" y="-175.5" font-family="Helvetica,sans-Serif" font-size="10.00">sys/types.h</text>
</a>
</g>
</g>
<!-- Node1&#45;&gt;Node2 -->
<g id="edge1" class="edge">
<title>Node1&#45;&gt;Node2</title>
<path fill="none" stroke="midnightblue" d="M250.76,-224.47C198.87,-213.49 128.01,-198.48 82.13,-188.77"/>
<polygon fill="midnightblue" stroke="midnightblue" points="82.67,-185.31 72.17,-186.66 81.22,-192.15 82.67,-185.31"/>
</g>
<!-- Node3 -->
<g id="node3" class="node">
<title>Node3</title>
<g id="a_node3"><a xlink:href="AAsservDriver_8hpp.html" target="_top" xlink:title="Interface abstraite du driver d&#39;asservissement.">
<polygon fill="white" stroke="black" points="240.5,-168.5 240.5,-187.5 393.5,-187.5 393.5,-168.5 240.5,-168.5"/>
<text text-anchor="middle" x="317" y="-175.5" font-family="Helvetica,sans-Serif" font-size="10.00">interface/AAsservDriver.hpp</text>
</a>
</g>
</g>
<!-- Node1&#45;&gt;Node3 -->
<g id="edge2" class="edge">
<title>Node1&#45;&gt;Node3</title>
<path fill="none" stroke="midnightblue" d="M317,-224.4C317,-216.47 317,-206.46 317,-197.86"/>
<polygon fill="midnightblue" stroke="midnightblue" points="320.5,-197.66 317,-187.66 313.5,-197.66 320.5,-197.66"/>
</g>
<!-- Node8 -->
<g id="node8" class="node">
<title>Node8</title>
<g id="a_node8"><a xlink:href="Chronometer_8hpp.html" target="_top" xlink:title="Définition de la classe Chronometer.">
<polygon fill="white" stroke="black" points="88.5,-56.5 88.5,-75.5 213.5,-75.5 213.5,-56.5 88.5,-56.5"/>
<text text-anchor="middle" x="151" y="-63.5" font-family="Helvetica,sans-Serif" font-size="10.00">utils/Chronometer.hpp</text>
</a>
</g>
</g>
<!-- Node1&#45;&gt;Node8 -->
<g id="edge10" class="edge">
<title>Node1&#45;&gt;Node8</title>
<path fill="none" stroke="midnightblue" d="M257.78,-224.4C211.01,-209.81 148.83,-181.92 119,-132 109.38,-115.91 121.81,-96.52 133.88,-83.13"/>
<polygon fill="midnightblue" stroke="midnightblue" points="136.69,-85.26 141.14,-75.65 131.66,-80.38 136.69,-85.26"/>
</g>
<!-- Node10 -->
<g id="node10" class="node">
<title>Node10</title>
<g id="a_node10"><a xlink:href="LoggerFactory_8hpp.html" target="_top" xlink:title="Définition de la classe LoggerFactory.">
<polygon fill="white" stroke="black" points="485,-168.5 485,-187.5 607,-187.5 607,-168.5 485,-168.5"/>
<text text-anchor="middle" x="546" y="-175.5" font-family="Helvetica,sans-Serif" font-size="10.00">log/LoggerFactory.hpp</text>
</a>
</g>
</g>
<!-- Node1&#45;&gt;Node10 -->
<g id="edge11" class="edge">
<title>Node1&#45;&gt;Node10</title>
<path fill="none" stroke="midnightblue" d="M370.98,-224.47C411.35,-213.99 465.8,-199.84 503.19,-190.12"/>
<polygon fill="midnightblue" stroke="midnightblue" points="504.46,-193.41 513.26,-187.51 502.7,-186.63 504.46,-193.41"/>
</g>
<!-- Node12 -->
<g id="node12" class="node">
<title>Node12</title>
<g id="a_node12"><a xlink:href="Thread_8hpp.html" target="_top" xlink:title="Définition de la classe Thread.">
<polygon fill="white" stroke="black" points="668.5,-112.5 668.5,-131.5 783.5,-131.5 783.5,-112.5 668.5,-112.5"/>
<text text-anchor="middle" x="726" y="-119.5" font-family="Helvetica,sans-Serif" font-size="10.00">../thread/Thread.hpp</text>
</a>
</g>
</g>
<!-- Node1&#45;&gt;Node12 -->
<g id="edge27" class="edge">
<title>Node1&#45;&gt;Node12</title>
<path fill="none" stroke="midnightblue" d="M385.61,-234.07C447.42,-228.42 539.98,-215.79 616,-188 650.09,-175.54 685.54,-152.45 706.68,-137.41"/>
<polygon fill="midnightblue" stroke="midnightblue" points="708.78,-140.22 714.82,-131.52 704.67,-134.55 708.78,-140.22"/>
</g>
<!-- Node4 -->
<g id="node4" class="node">
<title>Node4</title>
<g id="a_node4"><a xlink:title=" ">
<polygon fill="white" stroke="#bfbfbf" points="292,-112.5 292,-131.5 342,-131.5 342,-112.5 292,-112.5"/>
<text text-anchor="middle" x="317" y="-119.5" font-family="Helvetica,sans-Serif" font-size="10.00">cstdint</text>
</a>
</g>
</g>
<!-- Node3&#45;&gt;Node4 -->
<g id="edge3" class="edge">
<title>Node3&#45;&gt;Node4</title>
<path fill="none" stroke="midnightblue" d="M317,-168.08C317,-161.01 317,-150.86 317,-141.99"/>
<polygon fill="midnightblue" stroke="midnightblue" points="320.5,-141.75 317,-131.75 313.5,-141.75 320.5,-141.75"/>
</g>
<!-- Node5 -->
<g id="node5" class="node">
<title>Node5</title>
<g id="a_node5"><a xlink:title=" ">
<polygon fill="white" stroke="#bfbfbf" points="416,-0.5 416,-19.5 460,-19.5 460,-0.5 416,-0.5"/>
<text text-anchor="middle" x="438" y="-7.5" font-family="Helvetica,sans-Serif" font-size="10.00">string</text>
</a>
</g>
</g>
<!-- Node3&#45;&gt;Node5 -->
<g id="edge4" class="edge">
<title>Node3&#45;&gt;Node5</title>
<path fill="none" stroke="midnightblue" d="M323.58,-168.42C330.47,-159.4 341.59,-144.77 351,-132 378.24,-95.04 409.52,-51.19 426.15,-27.75"/>
<polygon fill="midnightblue" stroke="midnightblue" points="429.02,-29.74 431.95,-19.56 423.31,-25.69 429.02,-29.74"/>
</g>
<!-- Node6 -->
<g id="node6" class="node">
<title>Node6</title>
<g id="a_node6"><a xlink:href="ARobotPositionShared_8hpp.html" target="_top" xlink:title="Position partagee du robot et utilitaires geometriques.">
<polygon fill="white" stroke="black" points="128,-112.5 128,-131.5 274,-131.5 274,-112.5 128,-112.5"/>
<text text-anchor="middle" x="201" y="-119.5" font-family="Helvetica,sans-Serif" font-size="10.00">ARobotPositionShared.hpp</text>
</a>
</g>
</g>
<!-- Node3&#45;&gt;Node6 -->
<g id="edge5" class="edge">
<title>Node3&#45;&gt;Node6</title>
<path fill="none" stroke="midnightblue" d="M298.62,-168.44C279.78,-159.68 250.27,-145.94 228.62,-135.86"/>
<polygon fill="midnightblue" stroke="midnightblue" points="229.84,-132.56 219.29,-131.52 226.88,-138.91 229.84,-132.56"/>
</g>
<!-- Node7 -->
<g id="node7" class="node">
<title>Node7</title>
<g id="a_node7"><a xlink:title=" ">
<polygon fill="white" stroke="#bfbfbf" points="231.5,-56.5 231.5,-75.5 278.5,-75.5 278.5,-56.5 231.5,-56.5"/>
<text text-anchor="middle" x="255" y="-63.5" font-family="Helvetica,sans-Serif" font-size="10.00">cmath</text>
</a>
</g>
</g>
<!-- Node6&#45;&gt;Node7 -->
<g id="edge6" class="edge">
<title>Node6&#45;&gt;Node7</title>
<path fill="none" stroke="midnightblue" d="M209.92,-112.08C217.78,-104.22 229.43,-92.57 238.92,-83.08"/>
<polygon fill="midnightblue" stroke="midnightblue" points="241.65,-85.3 246.25,-75.75 236.7,-80.35 241.65,-85.3"/>
</g>
<!-- Node6&#45;&gt;Node8 -->
<g id="edge7" class="edge">
<title>Node6&#45;&gt;Node8</title>
<path fill="none" stroke="midnightblue" d="M192.74,-112.08C185.54,-104.3 174.89,-92.8 166.15,-83.37"/>
<polygon fill="midnightblue" stroke="midnightblue" points="168.47,-80.71 159.1,-75.75 163.33,-85.47 168.47,-80.71"/>
</g>
<!-- Node8&#45;&gt;Node5 -->
<g id="edge9" class="edge">
<title>Node8&#45;&gt;Node5</title>
<path fill="none" stroke="midnightblue" d="M196.48,-56.44C254.89,-45.45 354.8,-26.65 405.88,-17.04"/>
<polygon fill="midnightblue" stroke="midnightblue" points="406.53,-20.48 415.71,-15.19 405.23,-13.6 406.53,-20.48"/>
</g>
<!-- Node9 -->
<g id="node9" class="node">
<title>Node9</title>
<g id="a_node9"><a xlink:title=" ">
<polygon fill="white" stroke="#bfbfbf" points="117,-0.5 117,-19.5 185,-19.5 185,-0.5 117,-0.5"/>
<text text-anchor="middle" x="151" y="-7.5" font-family="Helvetica,sans-Serif" font-size="10.00">sys/time.h</text>
</a>
</g>
</g>
<!-- Node8&#45;&gt;Node9 -->
<g id="edge8" class="edge">
<title>Node8&#45;&gt;Node9</title>
<path fill="none" stroke="midnightblue" d="M151,-56.08C151,-49.01 151,-38.86 151,-29.99"/>
<polygon fill="midnightblue" stroke="midnightblue" points="154.5,-29.75 151,-19.75 147.5,-29.75 154.5,-29.75"/>
</g>
<!-- Node10&#45;&gt;Node5 -->
<g id="edge13" class="edge">
<title>Node10&#45;&gt;Node5</title>
<path fill="none" stroke="midnightblue" d="M528.03,-168.26C500.26,-153.63 447.94,-121.25 427,-76 420.17,-61.25 424.31,-42.86 429.34,-29.41"/>
<polygon fill="midnightblue" stroke="midnightblue" points="432.71,-30.42 433.38,-19.84 426.26,-27.69 432.71,-30.42"/>
</g>
<!-- Node11 -->
<g id="node11" class="node">
<title>Node11</title>
<g id="a_node11"><a xlink:title=" ">
<polygon fill="white" stroke="#bfbfbf" points="599,-112.5 599,-131.5 637,-131.5 637,-112.5 599,-112.5"/>
<text text-anchor="middle" x="618" y="-119.5" font-family="Helvetica,sans-Serif" font-size="10.00">map</text>
</a>
</g>
</g>
<!-- Node10&#45;&gt;Node11 -->
<g id="edge12" class="edge">
<title>Node10&#45;&gt;Node11</title>
<path fill="none" stroke="midnightblue" d="M557.57,-168.32C568.42,-160.18 584.88,-147.84 597.88,-138.09"/>
<polygon fill="midnightblue" stroke="midnightblue" points="600.32,-140.63 606.22,-131.83 596.12,-135.03 600.32,-140.63"/>
</g>
<!-- Node10&#45;&gt;Node12 -->
<g id="edge14" class="edge">
<title>Node10&#45;&gt;Node12</title>
<path fill="none" stroke="midnightblue" d="M574.52,-168.44C605.07,-159.28 653.71,-144.69 687.6,-134.52"/>
<polygon fill="midnightblue" stroke="midnightblue" points="689.04,-137.74 697.61,-131.52 687.03,-131.04 689.04,-137.74"/>
</g>
<!-- Node17 -->
<g id="node17" class="node">
<title>Node17</title>
<g id="a_node17"><a xlink:href="Logger_8hpp.html" target="_top" xlink:title="Définition de la classe Logger.">
<polygon fill="white" stroke="black" points="511,-112.5 511,-131.5 581,-131.5 581,-112.5 511,-112.5"/>
<text text-anchor="middle" x="546" y="-119.5" font-family="Helvetica,sans-Serif" font-size="10.00">Logger.hpp</text>
</a>
</g>
</g>
<!-- Node10&#45;&gt;Node17 -->
<g id="edge21" class="edge">
<title>Node10&#45;&gt;Node17</title>
<path fill="none" stroke="midnightblue" d="M546,-168.08C546,-161.01 546,-150.86 546,-141.99"/>
<polygon fill="midnightblue" stroke="midnightblue" points="549.5,-141.75 546,-131.75 542.5,-141.75 549.5,-141.75"/>
</g>
<!-- Node12&#45;&gt;Node5 -->
<g id="edge16" class="edge">
<title>Node12&#45;&gt;Node5</title>
<path fill="none" stroke="midnightblue" d="M726.18,-112.33C725.97,-98.25 723.35,-70.52 707,-56 672.44,-25.32 534.18,-15.26 470.46,-12.22"/>
<polygon fill="midnightblue" stroke="midnightblue" points="470.33,-8.71 460.18,-11.76 470.02,-15.7 470.33,-8.71"/>
</g>
<!-- Node13 -->
<g id="node13" class="node">
<title>Node13</title>
<g id="a_node13"><a xlink:title=" ">
<polygon fill="white" stroke="#bfbfbf" points="682.5,-0.5 682.5,-19.5 745.5,-19.5 745.5,-0.5 682.5,-0.5"/>
<text text-anchor="middle" x="714" y="-7.5" font-family="Helvetica,sans-Serif" font-size="10.00">pthread.h</text>
</a>
</g>
</g>
<!-- Node12&#45;&gt;Node13 -->
<g id="edge15" class="edge">
<title>Node12&#45;&gt;Node13</title>
<path fill="none" stroke="midnightblue" d="M730.59,-112.1C736.47,-99.52 745.32,-75.85 740,-56 737.35,-46.1 731.93,-36.13 726.73,-28.1"/>
<polygon fill="midnightblue" stroke="midnightblue" points="729.46,-25.91 720.89,-19.68 723.71,-29.89 729.46,-25.91"/>
</g>
<!-- Node14 -->
<g id="node14" class="node">
<title>Node14</title>
<g id="a_node14"><a xlink:title=" ">
<polygon fill="white" stroke="#bfbfbf" points="792,-56.5 792,-75.5 840,-75.5 840,-56.5 792,-56.5"/>
<text text-anchor="middle" x="816" y="-63.5" font-family="Helvetica,sans-Serif" font-size="10.00">thread</text>
</a>
</g>
</g>
<!-- Node12&#45;&gt;Node14 -->
<g id="edge17" class="edge">
<title>Node12&#45;&gt;Node14</title>
<path fill="none" stroke="midnightblue" d="M740.46,-112.32C754.5,-103.9 776.05,-90.97 792.54,-81.07"/>
<polygon fill="midnightblue" stroke="midnightblue" points="794.8,-83.8 801.58,-75.65 791.2,-77.8 794.8,-83.8"/>
</g>
<!-- Node15 -->
<g id="node15" class="node">
<title>Node15</title>
<g id="a_node15"><a xlink:href="Mutex_8hpp.html" target="_top" xlink:title="Définition de la classe Mutex.">
<polygon fill="white" stroke="black" points="630,-56.5 630,-75.5 698,-75.5 698,-56.5 630,-56.5"/>
<text text-anchor="middle" x="664" y="-63.5" font-family="Helvetica,sans-Serif" font-size="10.00">Mutex.hpp</text>
</a>
</g>
</g>
<!-- Node12&#45;&gt;Node15 -->
<g id="edge18" class="edge">
<title>Node12&#45;&gt;Node15</title>
<path fill="none" stroke="midnightblue" d="M716.04,-112.32C706.87,-104.34 693.06,-92.31 681.97,-82.65"/>
<polygon fill="midnightblue" stroke="midnightblue" points="683.98,-79.76 674.14,-75.83 679.38,-85.04 683.98,-79.76"/>
</g>
<!-- Node16 -->
<g id="node16" class="node">
<title>Node16</title>
<g id="a_node16"><a xlink:title=" ">
<polygon fill="white" stroke="#bfbfbf" points="858,-56.5 858,-75.5 908,-75.5 908,-56.5 858,-56.5"/>
<text text-anchor="middle" x="883" y="-63.5" font-family="Helvetica,sans-Serif" font-size="10.00">chrono</text>
</a>
</g>
</g>
<!-- Node12&#45;&gt;Node16 -->
<g id="edge20" class="edge">
<title>Node12&#45;&gt;Node16</title>
<path fill="none" stroke="midnightblue" d="M750.88,-112.44C777.29,-103.36 819.22,-88.94 848.74,-78.78"/>
<polygon fill="midnightblue" stroke="midnightblue" points="849.92,-82.08 858.24,-75.52 847.64,-75.46 849.92,-82.08"/>
</g>
<!-- Node15&#45;&gt;Node13 -->
<g id="edge19" class="edge">
<title>Node15&#45;&gt;Node13</title>
<path fill="none" stroke="midnightblue" d="M672.26,-56.08C679.46,-48.3 690.11,-36.8 698.85,-27.37"/>
<polygon fill="midnightblue" stroke="midnightblue" points="701.67,-29.47 705.9,-19.75 696.53,-24.71 701.67,-29.47"/>
</g>
<!-- Node17&#45;&gt;Node5 -->
<g id="edge23" class="edge">
<title>Node17&#45;&gt;Node5</title>
<path fill="none" stroke="midnightblue" d="M557.26,-112.4C572.67,-99.58 596.94,-74.92 583,-56 557.33,-21.15 504.92,-12.49 470.64,-10.77"/>
<polygon fill="midnightblue" stroke="midnightblue" points="470.32,-7.25 460.21,-10.42 470.09,-14.25 470.32,-7.25"/>
</g>
<!-- Node17&#45;&gt;Node15 -->
<g id="edge24" class="edge">
<title>Node17&#45;&gt;Node15</title>
<path fill="none" stroke="midnightblue" d="M564.7,-112.44C583.94,-103.64 614.15,-89.81 636.2,-79.72"/>
<polygon fill="midnightblue" stroke="midnightblue" points="637.75,-82.86 645.39,-75.52 634.84,-76.5 637.75,-82.86"/>
</g>
<!-- Node18 -->
<g id="node18" class="node">
<title>Node18</title>
<g id="a_node18"><a xlink:title=" ">
<polygon fill="white" stroke="#bfbfbf" points="518,-56.5 518,-75.5 574,-75.5 574,-56.5 518,-56.5"/>
<text text-anchor="middle" x="546" y="-63.5" font-family="Helvetica,sans-Serif" font-size="10.00">sstream</text>
</a>
</g>
</g>
<!-- Node17&#45;&gt;Node18 -->
<g id="edge22" class="edge">
<title>Node17&#45;&gt;Node18</title>
<path fill="none" stroke="midnightblue" d="M546,-112.08C546,-105.01 546,-94.86 546,-85.99"/>
<polygon fill="midnightblue" stroke="midnightblue" points="549.5,-85.75 546,-75.75 542.5,-85.75 549.5,-85.75"/>
</g>
<!-- Node19 -->
<g id="node19" class="node">
<title>Node19</title>
<g id="a_node19"><a xlink:href="Level_8hpp.html" target="_top" xlink:title="Définition de la classe Level.">
<polygon fill="white" stroke="black" points="436,-56.5 436,-75.5 500,-75.5 500,-56.5 436,-56.5"/>
<text text-anchor="middle" x="468" y="-63.5" font-family="Helvetica,sans-Serif" font-size="10.00">Level.hpp</text>
</a>
</g>
</g>
<!-- Node17&#45;&gt;Node19 -->
<g id="edge25" class="edge">
<title>Node17&#45;&gt;Node19</title>
<path fill="none" stroke="midnightblue" d="M533.47,-112.32C521.41,-103.98 502.97,-91.21 488.73,-81.35"/>
<polygon fill="midnightblue" stroke="midnightblue" points="490.72,-78.47 480.5,-75.65 486.73,-84.22 490.72,-78.47"/>
</g>
<!-- Node19&#45;&gt;Node5 -->
<g id="edge26" class="edge">
<title>Node19&#45;&gt;Node5</title>
<path fill="none" stroke="midnightblue" d="M463.05,-56.08C458.9,-48.61 452.85,-37.72 447.73,-28.52"/>
<polygon fill="midnightblue" stroke="midnightblue" points="450.78,-26.79 442.86,-19.75 444.66,-30.19 450.78,-26.79"/>
</g>
</g>
</svg>
        <g id="navigator" transform="translate(0 0)" fill="#404254">
                <rect fill="#f2f5e9" fill-opacity="0.5" stroke="#606060" stroke-width=".5" x="0" y="0" width="60" height="60"/>
                <use id="zoomplus" xlink:href="#zoomPlus" x="17" y="9" onmousedown="handleZoom(evt,'in')"/>
                <use id="zoomminus" xlink:href="#zoomMin" x="42" y="9" onmousedown="handleZoom(evt,'out')"/>
                <use id="reset" xlink:href="#resetDef" x="30" y="36" onmousedown="handleReset()"/>
                <g id="arrowUp" xlink:href="#dirArrow" transform="translate(30 24)" onmousedown="handlePan(0,-1)">
                  <use xlink:href="#rim" fill="#404040">
                        <set attributeName="fill" to="#808080" begin="arrowUp.mouseover" end="arrowUp.mouseout"/>
                  </use>
                  <path fill="none" stroke="white" stroke-width="1.5" d="M0,-3.0v7 M-2.5,-0.5L0,-3.0L2.5,-0.5"/>
                </g>
                <g id="arrowRight" xlink:href="#dirArrow" transform="rotate(90) translate(36 -43)" onmousedown="handlePan(1,0)">
                  <use xlink:href="#rim" fill="#404040">
                        <set attributeName="fill" to="#808080" begin="arrowRight.mouseover" end="arrowRight.mouseout"/>
                  </use>
                  <path fill="none" stroke="white" stroke-width="1.5" d="M0,-3.0v7 M-2.5,-0.5L0,-3.0L2.5,-0.5"/>
                </g>
                <g id="arrowDown" xlink:href="#dirArrow" transform="rotate(180) translate(-30 -48)" onmousedown="handlePan(0,1)">
                  <use xlink:href="#rim" fill="#404040">
                        <set attributeName="fill" to="#808080" begin="arrowDown.mouseover" end="arrowDown.mouseout"/>
                  </use>
                  <path fill="none" stroke="white" stroke-width="1.5" d="M0,-3.0v7 M-2.5,-0.5L0,-3.0L2.5,-0.5"/>
                </g>
                <g id="arrowLeft" xlink:href="#dirArrow" transform="rotate(270) translate(-36 17)" onmousedown="handlePan(-1,0)">
                  <use xlink:href="#rim" fill="#404040">
                        <set attributeName="fill" to="#808080" begin="arrowLeft.mouseover" end="arrowLeft.mouseout"/>
                  </use>
                  <path fill="none" stroke="white" stroke-width="1.5" d="M0,-3.0v7 M-2.5,-0.5L0,-3.0L2.5,-0.5"/>
                </g>
        </g>
        <svg viewBox="0 0 15 15" width="100%" height="30px" preserveAspectRatio="xMaxYMin meet">
         <g id="arrow_out" transform="scale(0.3 0.3)">
          <a xlink:href="AsservEsialR_8hpp__incl_org.svg" target="_base">
           <rect id="button" ry="5" rx="5" y="6" x="6" height="38" width="38"
                fill="#f2f5e9" fill-opacity="0.5" stroke="#606060" stroke-width="1.0"/>
           <path id="arrow"
             d="M 11.500037,31.436501 C 11.940474,20.09759 22.043105,11.32322 32.158766,21.979434 L 37.068811,17.246167 C 37.068811,17.246167 37.088388,32 37.088388,32 L 22.160133,31.978069 C 22.160133,31.978069 26.997745,27.140456 26.997745,27.140456 C 18.528582,18.264221 13.291696,25.230495 11.500037,31.436501 z"
             style="fill:#404040;"/>
          </a>
         </g>
        </svg>
</svg>
