<?xml version="1.0" encoding="UTF-8" standalone="no"?>
<!DOCTYPE svg PUBLIC "-//W3C//DTD SVG 1.1//EN"
 "http://www.w3.org/Graphics/SVG/1.1/DTD/svg11.dtd">
<!-- Generated by graphviz version 2.43.0 (0)
 -->
<!-- Title: test/manual/AsservDriverManualTest.cpp Pages: 1 -->
<svg width="958pt" height="386pt"
 viewBox="0.00 0.00 958.00 386.00" xmlns="http://www.w3.org/2000/svg" xmlns:xlink="http://www.w3.org/1999/xlink">
<g id="graph0" class="graph" transform="scale(1 1) rotate(0) translate(4 382)">
<title>test/manual/AsservDriverManualTest.cpp</title>
<polygon fill="white" stroke="transparent" points="-4,4 -4,-382 954,-382 954,4 -4,4"/>
<!-- Node1 -->
<g id="node1" class="node">
<title>Node1</title>
<g id="a_node1"><a xlink:title="Test manuel du driver d&#39;asservissement.">
<polygon fill="#bfbfbf" stroke="black" points="742.5,-347.5 742.5,-377.5 883.5,-377.5 883.5,-347.5 742.5,-347.5"/>
<text text-anchor="start" x="750.5" y="-365.5" font-family="Helvetica,sans-Serif" font-size="10.00">test/manual/AsservDriver</text>
<text text-anchor="middle" x="813" y="-354.5" font-family="Helvetica,sans-Serif" font-size="10.00">ManualTest.cpp</text>
</a>
</g>
</g>
<!-- Node2 -->
<g id="node2" class="node">
<title>Node2</title>
<g id="a_node2"><a xlink:href="AsservDriverManualTest_8hpp.html" target="_top" xlink:title="Test manuel du driver d&#39;asservissement.">
<polygon fill="white" stroke="black" points="638,-291.5 638,-310.5 794,-310.5 794,-291.5 638,-291.5"/>
<text text-anchor="middle" x="716" y="-298.5" font-family="Helvetica,sans-Serif" font-size="10.00">AsservDriverManualTest.hpp</text>
</a>
</g>
</g>
<!-- Node1&#45;&gt;Node2 -->
<g id="edge1" class="edge">
<title>Node1&#45;&gt;Node2</title>
<path fill="none" stroke="midnightblue" d="M790.01,-347.4C774.61,-337.95 754.41,-325.56 739,-316.11"/>
<polygon fill="midnightblue" stroke="midnightblue" points="740.47,-312.9 730.11,-310.66 736.81,-318.87 740.47,-312.9"/>
</g>
<!-- Node5 -->
<g id="node5" class="node">
<title>Node5</title>
<g id="a_node5"><a xlink:href="Chronometer_8hpp.html" target="_top" xlink:title="Définition de la classe Chronometer.">
<polygon fill="white" stroke="black" points="784.5,-112.5 784.5,-131.5 909.5,-131.5 909.5,-112.5 784.5,-112.5"/>
<text text-anchor="middle" x="847" y="-119.5" font-family="Helvetica,sans-Serif" font-size="10.00">utils/Chronometer.hpp</text>
</a>
</g>
</g>
<!-- Node1&#45;&gt;Node5 -->
<g id="edge31" class="edge">
<title>Node1&#45;&gt;Node5</title>
<path fill="none" stroke="midnightblue" d="M816.82,-347.29C824.17,-319.22 840.05,-254.53 846,-199 848.06,-179.76 848.09,-157.63 847.74,-142.23"/>
<polygon fill="midnightblue" stroke="midnightblue" points="851.23,-141.81 847.42,-131.92 844.23,-142.03 851.23,-141.81"/>
</g>
<!-- Node19 -->
<g id="node19" class="node">
<title>Node19</title>
<g id="a_node19"><a xlink:href="Logger_8hpp.html" target="_top" xlink:title="Définition de la classe Logger.">
<polygon fill="white" stroke="black" points="183,-112.5 183,-131.5 253,-131.5 253,-112.5 183,-112.5"/>
<text text-anchor="middle" x="218" y="-119.5" font-family="Helvetica,sans-Serif" font-size="10.00">Logger.hpp</text>
</a>
</g>
</g>
<!-- Node1&#45;&gt;Node19 -->
<g id="edge32" class="edge">
<title>Node1&#45;&gt;Node19</title>
<path fill="none" stroke="midnightblue" d="M759.28,-347.42C722.49,-337.61 672.65,-324.01 629,-311 551.14,-287.8 530.16,-285.83 455,-255 403.88,-234.03 392.36,-225.73 344,-199 306.93,-178.51 265.02,-152.68 240.09,-137.02"/>
<polygon fill="midnightblue" stroke="midnightblue" points="241.74,-133.92 231.41,-131.55 238.01,-139.84 241.74,-133.92"/>
</g>
<!-- Node22 -->
<g id="node22" class="node">
<title>Node22</title>
<g id="a_node22"><a xlink:title=" ">
<polygon fill="white" stroke="#bfbfbf" points="894,-291.5 894,-310.5 950,-310.5 950,-291.5 894,-291.5"/>
<text text-anchor="middle" x="922" y="-298.5" font-family="Helvetica,sans-Serif" font-size="10.00">unistd.h</text>
</a>
</g>
</g>
<!-- Node1&#45;&gt;Node22 -->
<g id="edge30" class="edge">
<title>Node1&#45;&gt;Node22</title>
<path fill="none" stroke="midnightblue" d="M838.83,-347.4C856.47,-337.77 879.7,-325.09 897.13,-315.58"/>
<polygon fill="midnightblue" stroke="midnightblue" points="899.04,-318.52 906.14,-310.66 895.69,-312.38 899.04,-318.52"/>
</g>
<!-- Node3 -->
<g id="node3" class="node">
<title>Node3</title>
<g id="a_node3"><a xlink:href="ARobotPositionShared_8hpp.html" target="_top" xlink:title="Position partagee du robot et utilitaires geometriques.">
<polygon fill="white" stroke="black" points="700.5,-168.5 700.5,-198.5 837.5,-198.5 837.5,-168.5 700.5,-168.5"/>
<text text-anchor="start" x="708.5" y="-186.5" font-family="Helvetica,sans-Serif" font-size="10.00">interface/ARobotPosition</text>
<text text-anchor="middle" x="769" y="-175.5" font-family="Helvetica,sans-Serif" font-size="10.00">Shared.hpp</text>
</a>
</g>
</g>
<!-- Node2&#45;&gt;Node3 -->
<g id="edge2" class="edge">
<title>Node2&#45;&gt;Node3</title>
<path fill="none" stroke="midnightblue" d="M726.94,-291.23C736.48,-282.94 749.87,-269.63 757,-255 763.96,-240.74 766.96,-223.14 768.22,-209.09"/>
<polygon fill="midnightblue" stroke="midnightblue" points="771.74,-208.93 768.9,-198.72 764.75,-208.47 771.74,-208.93"/>
</g>
<!-- Node8 -->
<g id="node8" class="node">
<title>Node8</title>
<g id="a_node8"><a xlink:href="AAsservDriver_8hpp.html" target="_top" xlink:title="Interface abstraite du driver d&#39;asservissement.">
<polygon fill="white" stroke="black" points="595.5,-235.5 595.5,-254.5 748.5,-254.5 748.5,-235.5 595.5,-235.5"/>
<text text-anchor="middle" x="672" y="-242.5" font-family="Helvetica,sans-Serif" font-size="10.00">interface/AAsservDriver.hpp</text>
</a>
</g>
</g>
<!-- Node2&#45;&gt;Node8 -->
<g id="edge7" class="edge">
<title>Node2&#45;&gt;Node8</title>
<path fill="none" stroke="midnightblue" d="M708.73,-291.08C702.46,-283.38 693.21,-272.03 685.57,-262.65"/>
<polygon fill="midnightblue" stroke="midnightblue" points="688.16,-260.29 679.13,-254.75 682.73,-264.71 688.16,-260.29"/>
</g>
<!-- Node10 -->
<g id="node10" class="node">
<title>Node10</title>
<g id="a_node10"><a xlink:href="UnitTest_8hpp.html" target="_top" xlink:title="Définition de la classe DevUnitTest.">
<polygon fill="white" stroke="black" points="464.5,-235.5 464.5,-254.5 577.5,-254.5 577.5,-235.5 464.5,-235.5"/>
<text text-anchor="middle" x="521" y="-242.5" font-family="Helvetica,sans-Serif" font-size="10.00">../suite/UnitTest.hpp</text>
</a>
</g>
</g>
<!-- Node2&#45;&gt;Node10 -->
<g id="edge11" class="edge">
<title>Node2&#45;&gt;Node10</title>
<path fill="none" stroke="midnightblue" d="M685.1,-291.44C651.73,-282.2 598.41,-267.44 561.65,-257.26"/>
<polygon fill="midnightblue" stroke="midnightblue" points="562.33,-253.81 551.75,-254.52 560.46,-260.56 562.33,-253.81"/>
</g>
<!-- Node4 -->
<g id="node4" class="node">
<title>Node4</title>
<g id="a_node4"><a xlink:title=" ">
<polygon fill="white" stroke="#bfbfbf" points="719.5,-112.5 719.5,-131.5 766.5,-131.5 766.5,-112.5 719.5,-112.5"/>
<text text-anchor="middle" x="743" y="-119.5" font-family="Helvetica,sans-Serif" font-size="10.00">cmath</text>
</a>
</g>
</g>
<!-- Node3&#45;&gt;Node4 -->
<g id="edge3" class="edge">
<title>Node3&#45;&gt;Node4</title>
<path fill="none" stroke="midnightblue" d="M762.84,-168.4C759.26,-160.2 754.7,-149.78 750.86,-140.99"/>
<polygon fill="midnightblue" stroke="midnightblue" points="753.99,-139.42 746.78,-131.66 747.58,-142.22 753.99,-139.42"/>
</g>
<!-- Node3&#45;&gt;Node5 -->
<g id="edge4" class="edge">
<title>Node3&#45;&gt;Node5</title>
<path fill="none" stroke="midnightblue" d="M787.48,-168.4C799.52,-159.22 815.2,-147.26 827.44,-137.92"/>
<polygon fill="midnightblue" stroke="midnightblue" points="829.82,-140.51 835.65,-131.66 825.58,-134.94 829.82,-140.51"/>
</g>
<!-- Node6 -->
<g id="node6" class="node">
<title>Node6</title>
<g id="a_node6"><a xlink:title=" ">
<polygon fill="white" stroke="#bfbfbf" points="751,-56.5 751,-75.5 819,-75.5 819,-56.5 751,-56.5"/>
<text text-anchor="middle" x="785" y="-63.5" font-family="Helvetica,sans-Serif" font-size="10.00">sys/time.h</text>
</a>
</g>
</g>
<!-- Node5&#45;&gt;Node6 -->
<g id="edge5" class="edge">
<title>Node5&#45;&gt;Node6</title>
<path fill="none" stroke="midnightblue" d="M837.04,-112.32C827.87,-104.34 814.06,-92.31 802.97,-82.65"/>
<polygon fill="midnightblue" stroke="midnightblue" points="804.98,-79.76 795.14,-75.83 800.38,-85.04 804.98,-79.76"/>
</g>
<!-- Node7 -->
<g id="node7" class="node">
<title>Node7</title>
<g id="a_node7"><a xlink:title=" ">
<polygon fill="white" stroke="#bfbfbf" points="540,-0.5 540,-19.5 584,-19.5 584,-0.5 540,-0.5"/>
<text text-anchor="middle" x="562" y="-7.5" font-family="Helvetica,sans-Serif" font-size="10.00">string</text>
</a>
</g>
</g>
<!-- Node5&#45;&gt;Node7 -->
<g id="edge6" class="edge">
<title>Node5&#45;&gt;Node7</title>
<path fill="none" stroke="midnightblue" d="M847.18,-112.34C846.97,-98.26 844.34,-70.53 828,-56 793.93,-25.69 657.77,-15.45 594.56,-12.29"/>
<polygon fill="midnightblue" stroke="midnightblue" points="594.51,-8.78 584.35,-11.81 594.18,-15.78 594.51,-8.78"/>
</g>
<!-- Node8&#45;&gt;Node3 -->
<g id="edge10" class="edge">
<title>Node8&#45;&gt;Node3</title>
<path fill="none" stroke="midnightblue" d="M685.9,-235.48C699.28,-227.27 720,-214.56 737.4,-203.88"/>
<polygon fill="midnightblue" stroke="midnightblue" points="739.44,-206.74 746.14,-198.52 735.78,-200.77 739.44,-206.74"/>
</g>
<!-- Node8&#45;&gt;Node7 -->
<g id="edge9" class="edge">
<title>Node8&#45;&gt;Node7</title>
<path fill="none" stroke="midnightblue" d="M670.65,-235.32C668.23,-220.94 662.5,-191.44 653,-168 631.09,-113.96 593.3,-56 574.04,-28.03"/>
<polygon fill="midnightblue" stroke="midnightblue" points="576.86,-25.95 568.27,-19.74 571.11,-29.95 576.86,-25.95"/>
</g>
<!-- Node9 -->
<g id="node9" class="node">
<title>Node9</title>
<g id="a_node9"><a xlink:title=" ">
<polygon fill="white" stroke="#bfbfbf" points="594,-174 594,-193 644,-193 644,-174 594,-174"/>
<text text-anchor="middle" x="619" y="-181" font-family="Helvetica,sans-Serif" font-size="10.00">cstdint</text>
</a>
</g>
</g>
<!-- Node8&#45;&gt;Node9 -->
<g id="edge8" class="edge">
<title>Node8&#45;&gt;Node9</title>
<path fill="none" stroke="midnightblue" d="M664.41,-235.48C656.3,-226.37 643.27,-211.74 633.24,-200.48"/>
<polygon fill="midnightblue" stroke="midnightblue" points="635.84,-198.15 626.58,-193.01 630.62,-202.8 635.84,-198.15"/>
</g>
<!-- Node10&#45;&gt;Node7 -->
<g id="edge12" class="edge">
<title>Node10&#45;&gt;Node7</title>
<path fill="none" stroke="midnightblue" d="M522.51,-235.43C528.45,-201.68 550.3,-77.47 558.69,-29.8"/>
<polygon fill="midnightblue" stroke="midnightblue" points="562.15,-30.35 560.43,-19.9 555.25,-29.14 562.15,-30.35"/>
</g>
<!-- Node11 -->
<g id="node11" class="node">
<title>Node11</title>
<g id="a_node11"><a xlink:href="LoggerFactory_8hpp.html" target="_top" xlink:title="Définition de la classe LoggerFactory.">
<polygon fill="white" stroke="black" points="353.5,-168.5 353.5,-198.5 466.5,-198.5 466.5,-168.5 353.5,-168.5"/>
<text text-anchor="start" x="361.5" y="-186.5" font-family="Helvetica,sans-Serif" font-size="10.00">../../src/common/log</text>
<text text-anchor="middle" x="410" y="-175.5" font-family="Helvetica,sans-Serif" font-size="10.00">/LoggerFactory.hpp</text>
</a>
</g>
</g>
<!-- Node10&#45;&gt;Node11 -->
<g id="edge13" class="edge">
<title>Node10&#45;&gt;Node11</title>
<path fill="none" stroke="midnightblue" d="M505.1,-235.48C489.5,-227.12 465.2,-214.09 445.07,-203.3"/>
<polygon fill="midnightblue" stroke="midnightblue" points="446.63,-200.16 436.16,-198.52 443.32,-206.33 446.63,-200.16"/>
</g>
<!-- Node11&#45;&gt;Node7 -->
<g id="edge15" class="edge">
<title>Node11&#45;&gt;Node7</title>
<path fill="none" stroke="midnightblue" d="M431.39,-168.29C457.76,-149.8 502.46,-115.21 530,-76 540.27,-61.38 548.99,-42.98 554.73,-29.49"/>
<polygon fill="midnightblue" stroke="midnightblue" points="558.11,-30.47 558.65,-19.89 551.63,-27.82 558.11,-30.47"/>
</g>
<!-- Node12 -->
<g id="node12" class="node">
<title>Node12</title>
<g id="a_node12"><a xlink:title=" ">
<polygon fill="white" stroke="#bfbfbf" points="296,-112.5 296,-131.5 334,-131.5 334,-112.5 296,-112.5"/>
<text text-anchor="middle" x="315" y="-119.5" font-family="Helvetica,sans-Serif" font-size="10.00">map</text>
</a>
</g>
</g>
<!-- Node11&#45;&gt;Node12 -->
<g id="edge14" class="edge">
<title>Node11&#45;&gt;Node12</title>
<path fill="none" stroke="midnightblue" d="M387.49,-168.4C372.4,-158.95 352.61,-146.56 337.53,-137.11"/>
<polygon fill="midnightblue" stroke="midnightblue" points="339.16,-134 328.82,-131.66 335.44,-139.93 339.16,-134"/>
</g>
<!-- Node13 -->
<g id="node13" class="node">
<title>Node13</title>
<g id="a_node13"><a xlink:href="Thread_8hpp.html" target="_top" xlink:title="Définition de la classe Thread.">
<polygon fill="white" stroke="black" points="352.5,-112.5 352.5,-131.5 467.5,-131.5 467.5,-112.5 352.5,-112.5"/>
<text text-anchor="middle" x="410" y="-119.5" font-family="Helvetica,sans-Serif" font-size="10.00">../thread/Thread.hpp</text>
</a>
</g>
</g>
<!-- Node11&#45;&gt;Node13 -->
<g id="edge16" class="edge">
<title>Node11&#45;&gt;Node13</title>
<path fill="none" stroke="midnightblue" d="M410,-168.4C410,-160.47 410,-150.46 410,-141.86"/>
<polygon fill="midnightblue" stroke="midnightblue" points="413.5,-141.66 410,-131.66 406.5,-141.66 413.5,-141.66"/>
</g>
<!-- Node11&#45;&gt;Node19 -->
<g id="edge24" class="edge">
<title>Node11&#45;&gt;Node19</title>
<path fill="none" stroke="midnightblue" d="M364.5,-168.4C331.18,-158.07 286.51,-144.23 255.29,-134.56"/>
<polygon fill="midnightblue" stroke="midnightblue" points="256.25,-131.19 245.66,-131.57 254.17,-137.87 256.25,-131.19"/>
</g>
<!-- Node13&#45;&gt;Node7 -->
<g id="edge18" class="edge">
<title>Node13&#45;&gt;Node7</title>
<path fill="none" stroke="midnightblue" d="M434.95,-112.42C455.06,-104.77 483.44,-92.27 505,-76 523.08,-62.35 539.66,-42.2 550.21,-27.96"/>
<polygon fill="midnightblue" stroke="midnightblue" points="553.24,-29.75 556.24,-19.58 547.56,-25.66 553.24,-29.75"/>
</g>
<!-- Node14 -->
<g id="node14" class="node">
<title>Node14</title>
<g id="a_node14"><a xlink:title=" ">
<polygon fill="white" stroke="#bfbfbf" points="148.5,-0.5 148.5,-19.5 211.5,-19.5 211.5,-0.5 148.5,-0.5"/>
<text text-anchor="middle" x="180" y="-7.5" font-family="Helvetica,sans-Serif" font-size="10.00">pthread.h</text>
</a>
</g>
</g>
<!-- Node13&#45;&gt;Node14 -->
<g id="edge17" class="edge">
<title>Node13&#45;&gt;Node14</title>
<path fill="none" stroke="midnightblue" d="M390.13,-112.48C369.67,-103.63 336.92,-89.25 309,-76 272.84,-58.84 231.62,-37.81 205.71,-24.41"/>
<polygon fill="midnightblue" stroke="midnightblue" points="207.06,-21.17 196.57,-19.67 203.84,-27.38 207.06,-21.17"/>
</g>
<!-- Node15 -->
<g id="node15" class="node">
<title>Node15</title>
<g id="a_node15"><a xlink:title=" ">
<polygon fill="white" stroke="#bfbfbf" points="386,-56.5 386,-75.5 434,-75.5 434,-56.5 386,-56.5"/>
<text text-anchor="middle" x="410" y="-63.5" font-family="Helvetica,sans-Serif" font-size="10.00">thread</text>
</a>
</g>
</g>
<!-- Node13&#45;&gt;Node15 -->
<g id="edge19" class="edge">
<title>Node13&#45;&gt;Node15</title>
<path fill="none" stroke="midnightblue" d="M410,-112.08C410,-105.01 410,-94.86 410,-85.99"/>
<polygon fill="midnightblue" stroke="midnightblue" points="413.5,-85.75 410,-75.75 406.5,-85.75 413.5,-85.75"/>
</g>
<!-- Node16 -->
<g id="node16" class="node">
<title>Node16</title>
<g id="a_node16"><a xlink:title=" ">
<polygon fill="white" stroke="#bfbfbf" points="452,-56.5 452,-75.5 496,-75.5 496,-56.5 452,-56.5"/>
<text text-anchor="middle" x="474" y="-63.5" font-family="Helvetica,sans-Serif" font-size="10.00">ctime</text>
</a>
</g>
</g>
<!-- Node13&#45;&gt;Node16 -->
<g id="edge20" class="edge">
<title>Node13&#45;&gt;Node16</title>
<path fill="none" stroke="midnightblue" d="M420.28,-112.32C429.84,-104.26 444.28,-92.08 455.78,-82.37"/>
<polygon fill="midnightblue" stroke="midnightblue" points="458.14,-84.96 463.53,-75.83 453.63,-79.61 458.14,-84.96"/>
</g>
<!-- Node17 -->
<g id="node17" class="node">
<title>Node17</title>
<g id="a_node17"><a xlink:href="Mutex_8hpp.html" target="_top" xlink:title="Définition de la classe Mutex.">
<polygon fill="white" stroke="black" points="74,-56.5 74,-75.5 142,-75.5 142,-56.5 74,-56.5"/>
<text text-anchor="middle" x="108" y="-63.5" font-family="Helvetica,sans-Serif" font-size="10.00">Mutex.hpp</text>
</a>
</g>
</g>
<!-- Node13&#45;&gt;Node17 -->
<g id="edge21" class="edge">
<title>Node13&#45;&gt;Node17</title>
<path fill="none" stroke="midnightblue" d="M357.82,-112.47C307.59,-104.14 229.25,-90.84 152.13,-76.17"/>
<polygon fill="midnightblue" stroke="midnightblue" points="152.73,-72.72 142.25,-74.28 151.41,-79.59 152.73,-72.72"/>
</g>
<!-- Node18 -->
<g id="node18" class="node">
<title>Node18</title>
<g id="a_node18"><a xlink:title=" ">
<polygon fill="white" stroke="#bfbfbf" points="318,-56.5 318,-75.5 368,-75.5 368,-56.5 318,-56.5"/>
<text text-anchor="middle" x="343" y="-63.5" font-family="Helvetica,sans-Serif" font-size="10.00">chrono</text>
</a>
</g>
</g>
<!-- Node13&#45;&gt;Node18 -->
<g id="edge23" class="edge">
<title>Node13&#45;&gt;Node18</title>
<path fill="none" stroke="midnightblue" d="M399.24,-112.32C389.23,-104.26 374.11,-92.08 362.07,-82.37"/>
<polygon fill="midnightblue" stroke="midnightblue" points="363.94,-79.38 353.96,-75.83 359.55,-84.83 363.94,-79.38"/>
</g>
<!-- Node17&#45;&gt;Node14 -->
<g id="edge22" class="edge">
<title>Node17&#45;&gt;Node14</title>
<path fill="none" stroke="midnightblue" d="M119.57,-56.32C130.42,-48.18 146.88,-35.84 159.88,-26.09"/>
<polygon fill="midnightblue" stroke="midnightblue" points="162.32,-28.63 168.22,-19.83 158.12,-23.03 162.32,-28.63"/>
</g>
<!-- Node19&#45;&gt;Node7 -->
<g id="edge26" class="edge">
<title>Node19&#45;&gt;Node7</title>
<path fill="none" stroke="midnightblue" d="M227.22,-112.22C242.76,-97.97 275.71,-70 309,-56 383.9,-24.5 480.29,-15.04 529.67,-12.21"/>
<polygon fill="midnightblue" stroke="midnightblue" points="529.95,-15.7 539.76,-11.69 529.59,-8.71 529.95,-15.7"/>
</g>
<!-- Node19&#45;&gt;Node17 -->
<g id="edge27" class="edge">
<title>Node19&#45;&gt;Node17</title>
<path fill="none" stroke="midnightblue" d="M200.33,-112.32C182.61,-103.62 155.1,-90.12 134.71,-80.11"/>
<polygon fill="midnightblue" stroke="midnightblue" points="136.15,-76.92 125.63,-75.65 133.06,-83.2 136.15,-76.92"/>
</g>
<!-- Node20 -->
<g id="node20" class="node">
<title>Node20</title>
<g id="a_node20"><a xlink:title=" ">
<polygon fill="white" stroke="#bfbfbf" points="0,-56.5 0,-75.5 56,-75.5 56,-56.5 0,-56.5"/>
<text text-anchor="middle" x="28" y="-63.5" font-family="Helvetica,sans-Serif" font-size="10.00">sstream</text>
</a>
</g>
</g>
<!-- Node19&#45;&gt;Node20 -->
<g id="edge25" class="edge">
<title>Node19&#45;&gt;Node20</title>
<path fill="none" stroke="midnightblue" d="M187.89,-112.44C154.8,-103.04 101.58,-87.91 65.73,-77.72"/>
<polygon fill="midnightblue" stroke="midnightblue" points="66.68,-74.36 56.11,-74.99 64.77,-81.09 66.68,-74.36"/>
</g>
<!-- Node21 -->
<g id="node21" class="node">
<title>Node21</title>
<g id="a_node21"><a xlink:href="Level_8hpp.html" target="_top" xlink:title="Définition de la classe Level.">
<polygon fill="white" stroke="black" points="160,-56.5 160,-75.5 224,-75.5 224,-56.5 160,-56.5"/>
<text text-anchor="middle" x="192" y="-63.5" font-family="Helvetica,sans-Serif" font-size="10.00">Level.hpp</text>
</a>
</g>
</g>
<!-- Node19&#45;&gt;Node21 -->
<g id="edge28" class="edge">
<title>Node19&#45;&gt;Node21</title>
<path fill="none" stroke="midnightblue" d="M213.71,-112.08C210.15,-104.69 204.98,-93.95 200.58,-84.81"/>
<polygon fill="midnightblue" stroke="midnightblue" points="203.71,-83.24 196.21,-75.75 197.4,-86.28 203.71,-83.24"/>
</g>
<!-- Node21&#45;&gt;Node7 -->
<g id="edge29" class="edge">
<title>Node21&#45;&gt;Node7</title>
<path fill="none" stroke="midnightblue" d="M224.19,-60.3C294.26,-50.08 459.93,-25.9 529.91,-15.68"/>
<polygon fill="midnightblue" stroke="midnightblue" points="530.51,-19.13 539.9,-14.22 529.5,-12.21 530.51,-19.13"/>
</g>
</g>
</svg>
