<?xml version="1.0" encoding="UTF-8" standalone="no"?>
<!DOCTYPE svg PUBLIC "-//W3C//DTD SVG 1.1//EN"
 "http://www.w3.org/Graphics/SVG/1.1/DTD/svg11.dtd">
<!-- Generated by graphviz version 2.43.0 (0)
 -->
<!-- Title: src/common/state/Automate.hpp Pages: 1 -->
<!--zoomable 285 -->
<svg id="main" version="1.1" xmlns="http://www.w3.org/2000/svg" xmlns:xlink="http://www.w3.org/1999/xlink" xml:space="preserve" onload="init(evt)">
<style type="text/css"><![CDATA[
.edge:hover path { stroke: red; }
.edge:hover polygon { stroke: red; fill: red; }
]]></style>
<script type="text/javascript"><![CDATA[
var edges = document.getElementsByTagName('g');
if (edges && edges.length) {
  for (var i=0;i<edges.length;i++) {
    if (edges[i].id.substr(0,4)=='edge') {
      edges[i].setAttribute('class','edge');
    }
  }
}
]]></script>
        <defs>
                <circle id="rim" cx="0" cy="0" r="7"/>
                <circle id="rim2" cx="0" cy="0" r="3.5"/>
                <g id="zoomPlus">
                        <use xlink:href="#rim" fill="#404040">
                                <set attributeName="fill" to="#808080" begin="zoomplus.mouseover" end="zoomplus.mouseout"/>
                        </use>
                        <path d="M-4,0h8M0,-4v8" fill="none" stroke="white" stroke-width="1.5" pointer-events="none"/>
                </g>
                <g id="zoomMin">
                        <use xlink:href="#rim" fill="#404040">
                                <set attributeName="fill" to="#808080" begin="zoomminus.mouseover" end="zoomminus.mouseout"/>
                        </use>
                        <path d="M-4,0h8" fill="none" stroke="white" stroke-width="1.5" pointer-events="none"/>
                </g>
                <g id="dirArrow">
                        <path fill="none" stroke="white" stroke-width="1.5" d="M0,-3.0v7 M-2.5,-0.5L0,-3.0L2.5,-0.5"/>
                </g>
               <g id="resetDef">
                       <use xlink:href="#rim2" fill="#404040">
                               <set attributeName="fill" to="#808080" begin="reset.mouseover" end="reset.mouseout"/>
                       </use>
               </g>
        </defs>

<script type="text/javascript">
var viewWidth = 2732;
var viewHeight = 285;
var sectionId = 'dynsection-1';
</script>
<script xlink:href="svgpan.js"/>
<svg id="graph" class="graph">
<g id="viewport">
<title>src/common/state/Automate.hpp</title>
<polygon fill="white" stroke="transparent" points="-4,4 -4,-281 2727.5,-281 2727.5,4 -4,4"/>
<!-- Node1 -->
<g id="node1" class="node">
<title>Node1</title>
<g id="a_node1"><a xlink:title="Définition de la classe Automate.">
<polygon fill="#bfbfbf" stroke="black" points="1408.5,-257.5 1408.5,-276.5 1584.5,-276.5 1584.5,-257.5 1408.5,-257.5"/>
<text text-anchor="middle" x="1496.5" y="-264.5" font-family="Helvetica,sans-Serif" font-size="10.00">src/common/state/Automate.hpp</text>
</a>
</g>
</g>
<!-- Node2 -->
<g id="node2" class="node">
<title>Node2</title>
<g id="a_node2"><a xlink:href="Robot_8hpp.html" target="_top" xlink:title=" ">
<polygon fill="white" stroke="black" points="1347,-201.5 1347,-220.5 1476,-220.5 1476,-201.5 1347,-201.5"/>
<text text-anchor="middle" x="1411.5" y="-208.5" font-family="Helvetica,sans-Serif" font-size="10.00">src/common/Robot.hpp</text>
</a>
</g>
</g>
<!-- Node1&#45;&gt;Node2 -->
<g id="edge1" class="edge">
<title>Node1&#45;&gt;Node2</title>
<path fill="none" stroke="midnightblue" d="M1474.31,-251.9C1458.72,-242 1438.37,-229.07 1425.12,-220.65"/>
<polygon fill="midnightblue" stroke="midnightblue" points="1472.53,-254.92 1482.84,-257.32 1476.28,-249.01 1472.53,-254.92"/>
</g>
<!-- Node31 -->
<g id="node31" class="node">
<title>Node31</title>
<g id="a_node31"><a xlink:href="Automate_8cpp.html" target="_top" xlink:title="Implémentation de la classe Automate.">
<polygon fill="white" stroke="black" points="1494.5,-201.5 1494.5,-220.5 1670.5,-220.5 1670.5,-201.5 1494.5,-201.5"/>
<text text-anchor="middle" x="1582.5" y="-208.5" font-family="Helvetica,sans-Serif" font-size="10.00">src/common/state/Automate.cpp</text>
</a>
</g>
</g>
<!-- Node1&#45;&gt;Node31 -->
<g id="edge57" class="edge">
<title>Node1&#45;&gt;Node31</title>
<path fill="none" stroke="midnightblue" d="M1518.95,-251.9C1534.72,-242 1555.31,-229.07 1568.72,-220.65"/>
<polygon fill="midnightblue" stroke="midnightblue" points="1516.93,-249.04 1510.32,-257.32 1520.65,-254.97 1516.93,-249.04"/>
</g>
<!-- Node3 -->
<g id="node3" class="node">
<title>Node3</title>
<g id="a_node3"><a xlink:href="src_2bot-opos6ul_2Main_8cpp.html" target="_top" xlink:title=" ">
<polygon fill="white" stroke="black" points="0,-6 0,-25 139,-25 139,-6 0,-6"/>
<text text-anchor="middle" x="69.5" y="-13" font-family="Helvetica,sans-Serif" font-size="10.00">src/bot&#45;opos6ul/Main.cpp</text>
</a>
</g>
</g>
<!-- Node2&#45;&gt;Node3 -->
<g id="edge2" class="edge">
<title>Node2&#45;&gt;Node3</title>
<path fill="none" stroke="midnightblue" d="M1336.95,-210.45C1199,-210.21 894.95,-204.71 642.5,-165 427.03,-131.11 174.97,-51.34 95.11,-25.06"/>
<polygon fill="midnightblue" stroke="midnightblue" points="1336.99,-213.95 1346.99,-210.46 1336.99,-206.95 1336.99,-213.95"/>
</g>
<!-- Node4 -->
<g id="node4" class="node">
<title>Node4</title>
<g id="a_node4"><a xlink:href="O__IAbyPathTest_8cpp.html" target="_top" xlink:title="Implementation de la classe O_IAByPathTest.">
<polygon fill="white" stroke="black" points="2573.5,-0.5 2573.5,-30.5 2723.5,-30.5 2723.5,-0.5 2573.5,-0.5"/>
<text text-anchor="start" x="2581.5" y="-18.5" font-family="Helvetica,sans-Serif" font-size="10.00">src/bot&#45;opos6ul/O_IAbyPath</text>
<text text-anchor="middle" x="2648.5" y="-7.5" font-family="Helvetica,sans-Serif" font-size="10.00">Test.cpp</text>
</a>
</g>
</g>
<!-- Node2&#45;&gt;Node4 -->
<g id="edge3" class="edge">
<title>Node2&#45;&gt;Node4</title>
<path fill="none" stroke="midnightblue" d="M1486.07,-201.07C1682.72,-186.78 2130.89,-208.87 2304.5,-165 2335.14,-157.26 2339.7,-147.01 2368.5,-134 2455.7,-94.62 2560,-52.02 2613.32,-30.56"/>
<polygon fill="midnightblue" stroke="midnightblue" points="1485.74,-197.59 1476.04,-201.85 1486.29,-204.57 1485.74,-197.59"/>
</g>
<!-- Node5 -->
<g id="node5" class="node">
<title>Node5</title>
<g id="a_node5"><a xlink:href="O__LedBarTest_8cpp.html" target="_top" xlink:title="Implementation de la classe O_LedBarTest.">
<polygon fill="white" stroke="black" points="308,-0.5 308,-30.5 449,-30.5 449,-0.5 308,-0.5"/>
<text text-anchor="start" x="316" y="-18.5" font-family="Helvetica,sans-Serif" font-size="10.00">src/bot&#45;opos6ul/O_LedBar</text>
<text text-anchor="middle" x="378.5" y="-7.5" font-family="Helvetica,sans-Serif" font-size="10.00">Test.cpp</text>
</a>
</g>
</g>
<!-- Node2&#45;&gt;Node5 -->
<g id="edge4" class="edge">
<title>Node2&#45;&gt;Node5</title>
<path fill="none" stroke="midnightblue" d="M1336.64,-206.59C1243.46,-201.48 1079.75,-189.68 941.5,-165 744.71,-129.87 516.01,-60.4 422.12,-30.61"/>
<polygon fill="midnightblue" stroke="midnightblue" points="1336.64,-210.09 1346.81,-207.13 1337.01,-203.1 1336.64,-210.09"/>
</g>
<!-- Node6 -->
<g id="node6" class="node">
<title>Node6</title>
<g id="a_node6"><a xlink:href="O__SensorsTest_8cpp.html" target="_top" xlink:title=" ">
<polygon fill="white" stroke="black" points="2093.5,-0.5 2093.5,-30.5 2239.5,-30.5 2239.5,-0.5 2093.5,-0.5"/>
<text text-anchor="start" x="2101.5" y="-18.5" font-family="Helvetica,sans-Serif" font-size="10.00">src/bot&#45;opos6ul/O_Sensors</text>
<text text-anchor="middle" x="2166.5" y="-7.5" font-family="Helvetica,sans-Serif" font-size="10.00">Test.cpp</text>
</a>
</g>
</g>
<!-- Node2&#45;&gt;Node6 -->
<g id="edge5" class="edge">
<title>Node2&#45;&gt;Node6</title>
<path fill="none" stroke="midnightblue" d="M1453.85,-198.77C1487.64,-189.76 1536.15,-176.74 1578.5,-165 1731.7,-122.54 1768.12,-104.91 1922.5,-67 1979.53,-53 2044.69,-39.64 2093.32,-30.19"/>
<polygon fill="midnightblue" stroke="midnightblue" points="1452.63,-195.47 1443.86,-201.43 1454.43,-202.24 1452.63,-195.47"/>
</g>
<!-- Node7 -->
<g id="node7" class="node">
<title>Node7</title>
<g id="a_node7"><a xlink:href="O__ServoObjectsTest_8cpp.html" target="_top" xlink:title=" ">
<polygon fill="white" stroke="black" points="467.5,-0.5 467.5,-30.5 639.5,-30.5 639.5,-0.5 467.5,-0.5"/>
<text text-anchor="start" x="475.5" y="-18.5" font-family="Helvetica,sans-Serif" font-size="10.00">src/bot&#45;opos6ul/O_ServoObjects</text>
<text text-anchor="middle" x="553.5" y="-7.5" font-family="Helvetica,sans-Serif" font-size="10.00">Test.cpp</text>
</a>
</g>
</g>
<!-- Node2&#45;&gt;Node7 -->
<g id="edge6" class="edge">
<title>Node2&#45;&gt;Node7</title>
<path fill="none" stroke="midnightblue" d="M1336.43,-206.13C1260.63,-201.02 1140.62,-189.59 1039.5,-165 918.29,-135.53 896.04,-102.63 776.5,-67 727.24,-52.32 670.75,-39.56 626.95,-30.55"/>
<polygon fill="midnightblue" stroke="midnightblue" points="1336.62,-209.65 1346.83,-206.82 1337.08,-202.67 1336.62,-209.65"/>
</g>
<!-- Node8 -->
<g id="node8" class="node">
<title>Node8</title>
<g id="a_node8"><a xlink:href="O__ServoStepTest_8cpp.html" target="_top" xlink:title=" ">
<polygon fill="white" stroke="black" points="658,-0.5 658,-30.5 815,-30.5 815,-0.5 658,-0.5"/>
<text text-anchor="start" x="666" y="-18.5" font-family="Helvetica,sans-Serif" font-size="10.00">src/bot&#45;opos6ul/O_ServoStep</text>
<text text-anchor="middle" x="736.5" y="-7.5" font-family="Helvetica,sans-Serif" font-size="10.00">Test.cpp</text>
</a>
</g>
</g>
<!-- Node2&#45;&gt;Node8 -->
<g id="edge7" class="edge">
<title>Node2&#45;&gt;Node8</title>
<path fill="none" stroke="midnightblue" d="M1336.72,-204.87C1276.23,-199.23 1189.43,-187.76 1116.5,-165 1021.63,-135.39 1008.36,-102.41 915.5,-67 876.73,-52.22 831.78,-39.55 796.63,-30.6"/>
<polygon fill="midnightblue" stroke="midnightblue" points="1336.67,-208.38 1346.94,-205.79 1337.3,-201.4 1336.67,-208.38"/>
</g>
<!-- Node9 -->
<g id="node9" class="node">
<title>Node9</title>
<g id="a_node9"><a xlink:href="O__State__DecisionMakerIA_8cpp.html" target="_top" xlink:title=" ">
<polygon fill="white" stroke="black" points="157,-0.5 157,-30.5 290,-30.5 290,-0.5 157,-0.5"/>
<text text-anchor="start" x="165" y="-18.5" font-family="Helvetica,sans-Serif" font-size="10.00">src/bot&#45;opos6ul/O_State</text>
<text text-anchor="middle" x="223.5" y="-7.5" font-family="Helvetica,sans-Serif" font-size="10.00">_DecisionMakerIA.cpp</text>
</a>
</g>
</g>
<!-- Node2&#45;&gt;Node9 -->
<g id="edge8" class="edge">
<title>Node2&#45;&gt;Node9</title>
<path fill="none" stroke="midnightblue" d="M1336.62,-208.96C1219.7,-206.35 987.01,-197.18 792.5,-165 592.56,-131.93 360.58,-60.86 266.46,-30.6"/>
<polygon fill="midnightblue" stroke="midnightblue" points="1336.81,-212.46 1346.88,-209.18 1336.96,-205.46 1336.81,-212.46"/>
</g>
<!-- Node10 -->
<g id="node10" class="node">
<title>Node10</title>
<g id="a_node10"><a xlink:href="O__State__Init_8cpp.html" target="_top" xlink:title=" ">
<polygon fill="white" stroke="black" points="833,-0.5 833,-30.5 966,-30.5 966,-0.5 833,-0.5"/>
<text text-anchor="start" x="841" y="-18.5" font-family="Helvetica,sans-Serif" font-size="10.00">src/bot&#45;opos6ul/O_State</text>
<text text-anchor="middle" x="899.5" y="-7.5" font-family="Helvetica,sans-Serif" font-size="10.00">_Init.cpp</text>
</a>
</g>
</g>
<!-- Node2&#45;&gt;Node10 -->
<g id="edge9" class="edge">
<title>Node2&#45;&gt;Node10</title>
<path fill="none" stroke="midnightblue" d="M1336.78,-200.06C1293.53,-193 1238.52,-181.75 1191.5,-165 1103.11,-133.51 1088.35,-109.12 1004.5,-67 979.37,-54.38 950.58,-40.58 929.5,-30.59"/>
<polygon fill="midnightblue" stroke="midnightblue" points="1336.24,-203.52 1346.67,-201.64 1337.34,-196.61 1336.24,-203.52"/>
</g>
<!-- Node11 -->
<g id="node11" class="node">
<title>Node11</title>
<g id="a_node11"><a xlink:href="O__State__WaitEndOfMatch_8cpp.html" target="_top" xlink:title=" ">
<polygon fill="white" stroke="black" points="984,-0.5 984,-30.5 1117,-30.5 1117,-0.5 984,-0.5"/>
<text text-anchor="start" x="992" y="-18.5" font-family="Helvetica,sans-Serif" font-size="10.00">src/bot&#45;opos6ul/O_State</text>
<text text-anchor="middle" x="1050.5" y="-7.5" font-family="Helvetica,sans-Serif" font-size="10.00">_WaitEndOfMatch.cpp</text>
</a>
</g>
</g>
<!-- Node2&#45;&gt;Node11 -->
<g id="edge10" class="edge">
<title>Node2&#45;&gt;Node11</title>
<path fill="none" stroke="midnightblue" d="M1366.08,-198.73C1307.71,-182.79 1204.91,-149.71 1129.5,-98 1101.38,-78.72 1075.19,-48.28 1061.16,-30.57"/>
<polygon fill="midnightblue" stroke="midnightblue" points="1365.53,-202.2 1376.1,-201.41 1367.35,-195.44 1365.53,-202.2"/>
</g>
<!-- Node12 -->
<g id="node12" class="node">
<title>Node12</title>
<g id="a_node12"><a xlink:href="OPOS6UL__RobotExtended_8hpp.html" target="_top" xlink:title="Extension de la classe Robot pour la carte OPOS6UL.">
<polygon fill="white" stroke="black" points="1138.5,-67.5 1138.5,-97.5 1278.5,-97.5 1278.5,-67.5 1138.5,-67.5"/>
<text text-anchor="start" x="1146.5" y="-85.5" font-family="Helvetica,sans-Serif" font-size="10.00">src/bot&#45;opos6ul/OPOS6UL</text>
<text text-anchor="middle" x="1208.5" y="-74.5" font-family="Helvetica,sans-Serif" font-size="10.00">_RobotExtended.hpp</text>
</a>
</g>
</g>
<!-- Node2&#45;&gt;Node12 -->
<g id="edge11" class="edge">
<title>Node2&#45;&gt;Node12</title>
<path fill="none" stroke="midnightblue" d="M1389,-195.98C1350.03,-171.7 1270.41,-122.08 1231.26,-97.68"/>
<polygon fill="midnightblue" stroke="midnightblue" points="1387.21,-198.99 1397.55,-201.31 1390.91,-193.05 1387.21,-198.99"/>
</g>
<!-- Node19 -->
<g id="node19" class="node">
<title>Node19</title>
<g id="a_node19"><a xlink:href="Sensors_8hpp.html" target="_top" xlink:title="Gestion des capteurs de detection et de distance.">
<polygon fill="white" stroke="black" points="1397.5,-140 1397.5,-159 1569.5,-159 1569.5,-140 1397.5,-140"/>
<text text-anchor="middle" x="1483.5" y="-147" font-family="Helvetica,sans-Serif" font-size="10.00">src/common/action/Sensors.hpp</text>
</a>
</g>
</g>
<!-- Node2&#45;&gt;Node19 -->
<g id="edge27" class="edge">
<title>Node2&#45;&gt;Node19</title>
<path fill="none" stroke="midnightblue" d="M1429.68,-194.97C1443.46,-183.59 1461.88,-168.37 1473.2,-159.01"/>
<polygon fill="midnightblue" stroke="midnightblue" points="1427.29,-192.41 1421.82,-201.48 1431.75,-197.8 1427.29,-192.41"/>
</g>
<!-- Node23 -->
<g id="node23" class="node">
<title>Node23</title>
<g id="a_node23"><a xlink:href="Asserv_8cpp.html" target="_top" xlink:title=" ">
<polygon fill="white" stroke="black" points="1973,-140 1973,-159 2140,-159 2140,-140 1973,-140"/>
<text text-anchor="middle" x="2056.5" y="-147" font-family="Helvetica,sans-Serif" font-size="10.00">src/common/asserv/Asserv.cpp</text>
</a>
</g>
</g>
<!-- Node2&#45;&gt;Node23 -->
<g id="edge45" class="edge">
<title>Node2&#45;&gt;Node23</title>
<path fill="none" stroke="midnightblue" d="M1486.02,-201C1699.65,-180.39 1755.65,-189.27 1964.5,-165 1978.31,-163.4 1993.23,-161.23 2006.95,-159.07"/>
<polygon fill="midnightblue" stroke="midnightblue" points="1485.67,-197.52 1476.05,-201.97 1486.35,-204.48 1485.67,-197.52"/>
</g>
<!-- Node24 -->
<g id="node24" class="node">
<title>Node24</title>
<g id="a_node24"><a xlink:href="AsservEsialR_8cpp.html" target="_top" xlink:title=" ">
<polygon fill="white" stroke="black" points="2158,-134.5 2158,-164.5 2295,-164.5 2295,-134.5 2158,-134.5"/>
<text text-anchor="start" x="2166" y="-152.5" font-family="Helvetica,sans-Serif" font-size="10.00">src/common/asserv.esial</text>
<text text-anchor="middle" x="2226.5" y="-141.5" font-family="Helvetica,sans-Serif" font-size="10.00">/AsservEsialR.cpp</text>
</a>
</g>
</g>
<!-- Node2&#45;&gt;Node24 -->
<g id="edge46" class="edge">
<title>Node2&#45;&gt;Node24</title>
<path fill="none" stroke="midnightblue" d="M1486.2,-201.01C1781.65,-175.7 1859.38,-200.03 2149.5,-165 2152.2,-164.67 2154.95,-164.31 2157.72,-163.92"/>
<polygon fill="midnightblue" stroke="midnightblue" points="1485.71,-197.54 1476.05,-201.89 1486.31,-204.51 1485.71,-197.54"/>
</g>
<!-- Node25 -->
<g id="node25" class="node">
<title>Node25</title>
<g id="a_node25"><a xlink:href="IAbyPath_8hpp.html" target="_top" xlink:title=" ">
<polygon fill="white" stroke="black" points="1800,-140 1800,-159 1955,-159 1955,-140 1800,-140"/>
<text text-anchor="middle" x="1877.5" y="-147" font-family="Helvetica,sans-Serif" font-size="10.00">src/common/ia/IAbyPath.hpp</text>
</a>
</g>
</g>
<!-- Node2&#45;&gt;Node25 -->
<g id="edge47" class="edge">
<title>Node2&#45;&gt;Node25</title>
<path fill="none" stroke="midnightblue" d="M1486.39,-200.44C1576.01,-189 1724.7,-170.01 1810.62,-159.04"/>
<polygon fill="midnightblue" stroke="midnightblue" points="1485.77,-196.99 1476.3,-201.73 1486.66,-203.93 1485.77,-196.99"/>
</g>
<!-- Node29 -->
<g id="node29" class="node">
<title>Node29</title>
<g id="a_node29"><a xlink:href="IAbyZone_8cpp.html" target="_top" xlink:title=" ">
<polygon fill="white" stroke="black" points="2377.5,-140 2377.5,-159 2535.5,-159 2535.5,-140 2377.5,-140"/>
<text text-anchor="middle" x="2456.5" y="-147" font-family="Helvetica,sans-Serif" font-size="10.00">src/common/ia/IAbyZone.cpp</text>
</a>
</g>
</g>
<!-- Node2&#45;&gt;Node29 -->
<g id="edge55" class="edge">
<title>Node2&#45;&gt;Node29</title>
<path fill="none" stroke="midnightblue" d="M1486.2,-201.02C1876.5,-169.97 1978.14,-202.82 2363.5,-165 2378.14,-163.56 2393.98,-161.35 2408.36,-159.07"/>
<polygon fill="midnightblue" stroke="midnightblue" points="1485.73,-197.55 1476.04,-201.84 1486.29,-204.53 1485.73,-197.55"/>
</g>
<!-- Node30 -->
<g id="node30" class="node">
<title>Node30</title>
<g id="a_node30"><a xlink:href="Robot_8cpp.html" target="_top" xlink:title=" ">
<polygon fill="white" stroke="black" points="2553.5,-140 2553.5,-159 2681.5,-159 2681.5,-140 2553.5,-140"/>
<text text-anchor="middle" x="2617.5" y="-147" font-family="Helvetica,sans-Serif" font-size="10.00">src/common/Robot.cpp</text>
</a>
</g>
</g>
<!-- Node2&#45;&gt;Node30 -->
<g id="edge56" class="edge">
<title>Node2&#45;&gt;Node30</title>
<path fill="none" stroke="midnightblue" d="M1486.16,-201.04C1956.76,-165.3 2079.99,-218.67 2544.5,-165 2556.31,-163.64 2569.06,-161.38 2580.55,-159.05"/>
<polygon fill="midnightblue" stroke="midnightblue" points="1485.74,-197.56 1476.04,-201.82 1486.28,-204.54 1485.74,-197.56"/>
</g>
<!-- Node12&#45;&gt;Node3 -->
<g id="edge12" class="edge">
<title>Node12&#45;&gt;Node3</title>
<path fill="none" stroke="midnightblue" d="M1128.37,-81.4C951,-80.38 512.04,-73.36 147.5,-31 135.05,-29.55 121.59,-27.3 109.42,-25"/>
<polygon fill="midnightblue" stroke="midnightblue" points="1128.38,-84.9 1138.4,-81.46 1128.42,-77.9 1128.38,-84.9"/>
</g>
<!-- Node12&#45;&gt;Node4 -->
<g id="edge15" class="edge">
<title>Node12&#45;&gt;Node4</title>
<path fill="none" stroke="midnightblue" d="M1288.99,-67.47C1290.51,-67.31 1292.01,-67.15 1293.5,-67 1855.87,-11.35 2002.19,-87.21 2564.5,-31 2567.45,-30.71 2570.44,-30.37 2573.47,-30"/>
<polygon fill="midnightblue" stroke="midnightblue" points="1288.4,-64.02 1278.9,-68.71 1289.25,-70.97 1288.4,-64.02"/>
</g>
<!-- Node12&#45;&gt;Node5 -->
<g id="edge17" class="edge">
<title>Node12&#45;&gt;Node5</title>
<path fill="none" stroke="midnightblue" d="M1128.43,-79.05C990.96,-74.2 701.41,-61.1 458.5,-31 455.42,-30.62 452.28,-30.19 449.1,-29.74"/>
<polygon fill="midnightblue" stroke="midnightblue" points="1128.34,-82.55 1138.46,-79.4 1128.58,-75.56 1128.34,-82.55"/>
</g>
<!-- Node12&#45;&gt;Node6 -->
<g id="edge18" class="edge">
<title>Node12&#45;&gt;Node6</title>
<path fill="none" stroke="midnightblue" d="M1289,-67.51C1290.51,-67.33 1292.01,-67.16 1293.5,-67 1643.4,-29.34 1734.72,-69.72 2084.5,-31 2087.37,-30.68 2090.3,-30.32 2093.25,-29.94"/>
<polygon fill="midnightblue" stroke="midnightblue" points="1288.38,-64.06 1278.91,-68.8 1289.27,-71 1288.38,-64.06"/>
</g>
<!-- Node12&#45;&gt;Node7 -->
<g id="edge19" class="edge">
<title>Node12&#45;&gt;Node7</title>
<path fill="none" stroke="midnightblue" d="M1127.82,-75.79C1018.84,-67.72 818.65,-51.64 648.5,-31 645.6,-30.65 642.66,-30.28 639.68,-29.89"/>
<polygon fill="midnightblue" stroke="midnightblue" points="1127.84,-79.3 1138.07,-76.55 1128.36,-72.32 1127.84,-79.3"/>
</g>
<!-- Node12&#45;&gt;Node8 -->
<g id="edge20" class="edge">
<title>Node12&#45;&gt;Node8</title>
<path fill="none" stroke="midnightblue" d="M1128.27,-71.8C1050.31,-62.18 928.63,-46.65 823.5,-31 820.77,-30.59 818,-30.17 815.2,-29.74"/>
<polygon fill="midnightblue" stroke="midnightblue" points="1128.14,-75.31 1138.5,-73.06 1129,-68.36 1128.14,-75.31"/>
</g>
<!-- Node12&#45;&gt;Node9 -->
<g id="edge21" class="edge">
<title>Node12&#45;&gt;Node9</title>
<path fill="none" stroke="midnightblue" d="M1128.11,-80.69C969.08,-78.29 603.32,-68.75 298.5,-31 295.74,-30.66 292.92,-30.27 290.08,-29.86"/>
<polygon fill="midnightblue" stroke="midnightblue" points="1128.23,-84.19 1138.28,-80.84 1128.34,-77.19 1128.23,-84.19"/>
</g>
<!-- Node12&#45;&gt;Node10 -->
<g id="edge22" class="edge">
<title>Node12&#45;&gt;Node10</title>
<path fill="none" stroke="midnightblue" d="M1131.86,-65.38C1080.95,-54.67 1014.75,-40.74 966.05,-30.5"/>
<polygon fill="midnightblue" stroke="midnightblue" points="1131.33,-68.84 1141.83,-67.48 1132.77,-61.99 1131.33,-68.84"/>
</g>
<!-- Node12&#45;&gt;Node11 -->
<g id="edge23" class="edge">
<title>Node12&#45;&gt;Node11</title>
<path fill="none" stroke="midnightblue" d="M1164.85,-63.54C1139.57,-53.14 1108.2,-40.24 1084.72,-30.58"/>
<polygon fill="midnightblue" stroke="midnightblue" points="1163.64,-66.83 1174.22,-67.4 1166.3,-60.35 1163.64,-66.83"/>
</g>
<!-- Node13 -->
<g id="node13" class="node">
<title>Node13</title>
<g id="a_node13"><a xlink:href="O__ActionManagerTimerTest_8cpp.html" target="_top" xlink:title="Implémentation de la classe L_ActionManagerTimerTest.">
<polygon fill="white" stroke="black" points="1621.5,-0.5 1621.5,-30.5 1759.5,-30.5 1759.5,-0.5 1621.5,-0.5"/>
<text text-anchor="start" x="1629.5" y="-18.5" font-family="Helvetica,sans-Serif" font-size="10.00">src/bot&#45;opos6ul/O_Action</text>
<text text-anchor="middle" x="1690.5" y="-7.5" font-family="Helvetica,sans-Serif" font-size="10.00">ManagerTimerTest.cpp</text>
</a>
</g>
</g>
<!-- Node12&#45;&gt;Node13 -->
<g id="edge13" class="edge">
<title>Node12&#45;&gt;Node13</title>
<path fill="none" stroke="midnightblue" d="M1289.01,-67.65C1290.52,-67.43 1292.02,-67.21 1293.5,-67 1434.77,-47 1471.38,-52.05 1612.5,-31 1615.36,-30.57 1618.28,-30.12 1621.22,-29.64"/>
<polygon fill="midnightblue" stroke="midnightblue" points="1288.32,-64.21 1278.95,-69.17 1289.36,-71.13 1288.32,-64.21"/>
</g>
<!-- Node14 -->
<g id="node14" class="node">
<title>Node14</title>
<g id="a_node14"><a xlink:href="O__ButtonBarTest_8cpp.html" target="_top" xlink:title="Implémentation de la classe O_ButtonBarTest.">
<polygon fill="white" stroke="black" points="1135.5,-0.5 1135.5,-30.5 1275.5,-30.5 1275.5,-0.5 1135.5,-0.5"/>
<text text-anchor="start" x="1143.5" y="-18.5" font-family="Helvetica,sans-Serif" font-size="10.00">src/bot&#45;opos6ul/O_Button</text>
<text text-anchor="middle" x="1205.5" y="-7.5" font-family="Helvetica,sans-Serif" font-size="10.00">BarTest.cpp</text>
</a>
</g>
</g>
<!-- Node12&#45;&gt;Node14 -->
<g id="edge14" class="edge">
<title>Node12&#45;&gt;Node14</title>
<path fill="none" stroke="midnightblue" d="M1207.39,-57.4C1206.97,-48.37 1206.51,-38.41 1206.15,-30.58"/>
<polygon fill="midnightblue" stroke="midnightblue" points="1203.89,-57.57 1207.85,-67.4 1210.88,-57.25 1203.89,-57.57"/>
</g>
<!-- Node15 -->
<g id="node15" class="node">
<title>Node15</title>
<g id="a_node15"><a xlink:href="O__LcdBoardTest_8cpp.html" target="_top" xlink:title="Implémentation de la classe O_LcdBoardTest.">
<polygon fill="white" stroke="black" points="1293.5,-0.5 1293.5,-30.5 1445.5,-30.5 1445.5,-0.5 1293.5,-0.5"/>
<text text-anchor="start" x="1301.5" y="-18.5" font-family="Helvetica,sans-Serif" font-size="10.00">src/bot&#45;opos6ul/O_LcdBoard</text>
<text text-anchor="middle" x="1369.5" y="-7.5" font-family="Helvetica,sans-Serif" font-size="10.00">Test.cpp</text>
</a>
</g>
</g>
<!-- Node12&#45;&gt;Node15 -->
<g id="edge16" class="edge">
<title>Node12&#45;&gt;Node15</title>
<path fill="none" stroke="midnightblue" d="M1252.98,-63.54C1278.74,-53.14 1310.7,-40.24 1334.63,-30.58"/>
<polygon fill="midnightblue" stroke="midnightblue" points="1251.4,-60.41 1243.43,-67.4 1254.02,-66.9 1251.4,-60.41"/>
</g>
<!-- Node16 -->
<g id="node16" class="node">
<title>Node16</title>
<g id="a_node16"><a xlink:href="O__TiretteTest_8cpp.html" target="_top" xlink:title="Implémentation de la classe O_TiretteTest.">
<polygon fill="white" stroke="black" points="1463.5,-0.5 1463.5,-30.5 1603.5,-30.5 1603.5,-0.5 1463.5,-0.5"/>
<text text-anchor="start" x="1471.5" y="-18.5" font-family="Helvetica,sans-Serif" font-size="10.00">src/bot&#45;opos6ul/O_Tirette</text>
<text text-anchor="middle" x="1533.5" y="-7.5" font-family="Helvetica,sans-Serif" font-size="10.00">Test.cpp</text>
</a>
</g>
</g>
<!-- Node12&#45;&gt;Node16 -->
<g id="edge24" class="edge">
<title>Node12&#45;&gt;Node16</title>
<path fill="none" stroke="midnightblue" d="M1288.75,-65.45C1342.26,-54.75 1411.91,-40.82 1463.23,-30.55"/>
<polygon fill="midnightblue" stroke="midnightblue" points="1287.74,-62.08 1278.62,-67.48 1289.11,-68.95 1287.74,-62.08"/>
</g>
<!-- Node17 -->
<g id="node17" class="node">
<title>Node17</title>
<g id="a_node17"><a xlink:href="OPOS6UL__AsservExtended_8cpp.html" target="_top" xlink:title=" ">
<polygon fill="white" stroke="black" points="2257.5,-0.5 2257.5,-30.5 2397.5,-30.5 2397.5,-0.5 2257.5,-0.5"/>
<text text-anchor="start" x="2265.5" y="-18.5" font-family="Helvetica,sans-Serif" font-size="10.00">src/bot&#45;opos6ul/OPOS6UL</text>
<text text-anchor="middle" x="2327.5" y="-7.5" font-family="Helvetica,sans-Serif" font-size="10.00">_AsservExtended.cpp</text>
</a>
</g>
</g>
<!-- Node12&#45;&gt;Node17 -->
<g id="edge25" class="edge">
<title>Node12&#45;&gt;Node17</title>
<path fill="none" stroke="midnightblue" d="M1289,-67.49C1290.51,-67.32 1292.01,-67.15 1293.5,-67 1715.98,-23.19 1826.3,-77.46 2248.5,-31 2251.41,-30.68 2254.38,-30.31 2257.37,-29.91"/>
<polygon fill="midnightblue" stroke="midnightblue" points="1288.39,-64.04 1278.9,-68.76 1289.26,-70.99 1288.39,-64.04"/>
</g>
<!-- Node18 -->
<g id="node18" class="node">
<title>Node18</title>
<g id="a_node18"><a xlink:href="OPOS6UL__RobotExtended_8cpp.html" target="_top" xlink:title=" ">
<polygon fill="white" stroke="black" points="1935.5,-0.5 1935.5,-30.5 2075.5,-30.5 2075.5,-0.5 1935.5,-0.5"/>
<text text-anchor="start" x="1943.5" y="-18.5" font-family="Helvetica,sans-Serif" font-size="10.00">src/bot&#45;opos6ul/OPOS6UL</text>
<text text-anchor="middle" x="2005.5" y="-7.5" font-family="Helvetica,sans-Serif" font-size="10.00">_RobotExtended.cpp</text>
</a>
</g>
</g>
<!-- Node12&#45;&gt;Node18 -->
<g id="edge26" class="edge">
<title>Node12&#45;&gt;Node18</title>
<path fill="none" stroke="midnightblue" d="M1289,-67.53C1290.51,-67.35 1292.01,-67.17 1293.5,-67 1573.49,-35.26 1646.71,-64.5 1926.5,-31 1929.41,-30.65 1932.37,-30.26 1935.36,-29.84"/>
<polygon fill="midnightblue" stroke="midnightblue" points="1288.37,-64.08 1278.91,-68.86 1289.29,-71.02 1288.37,-64.08"/>
</g>
<!-- Node19&#45;&gt;Node4 -->
<g id="edge28" class="edge">
<title>Node19&#45;&gt;Node4</title>
<path fill="none" stroke="midnightblue" d="M1579.72,-143.42C1736.75,-134.67 2035.24,-115.97 2080.5,-98 2101.08,-89.83 2098.91,-75.13 2119.5,-67 2211.78,-30.55 2466.07,-43.45 2564.5,-31 2567.44,-30.63 2570.43,-30.23 2573.44,-29.8"/>
<polygon fill="midnightblue" stroke="midnightblue" points="1579.37,-139.93 1569.58,-143.98 1579.76,-146.92 1579.37,-139.93"/>
</g>
<!-- Node19&#45;&gt;Node6 -->
<g id="edge29" class="edge">
<title>Node19&#45;&gt;Node6</title>
<path fill="none" stroke="midnightblue" d="M1482.28,-129.81C1482.18,-110.84 1485.36,-82.16 1503.5,-67 1553.14,-25.53 2020.27,-38.64 2084.5,-31 2087.37,-30.66 2090.29,-30.28 2093.24,-29.88"/>
<polygon fill="midnightblue" stroke="midnightblue" points="1478.79,-130.06 1482.65,-139.93 1485.79,-129.8 1478.79,-130.06"/>
</g>
<!-- Node20 -->
<g id="node20" class="node">
<title>Node20</title>
<g id="a_node20"><a xlink:href="OPOS6UL__ActionsExtended_8hpp.html" target="_top" xlink:title="Extension des actions du robot pour la carte OPOS6UL.">
<polygon fill="white" stroke="black" points="1302.5,-67.5 1302.5,-97.5 1442.5,-97.5 1442.5,-67.5 1302.5,-67.5"/>
<text text-anchor="start" x="1310.5" y="-85.5" font-family="Helvetica,sans-Serif" font-size="10.00">src/bot&#45;opos6ul/OPOS6UL</text>
<text text-anchor="middle" x="1372.5" y="-74.5" font-family="Helvetica,sans-Serif" font-size="10.00">_ActionsExtended.hpp</text>
</a>
</g>
</g>
<!-- Node19&#45;&gt;Node20 -->
<g id="edge30" class="edge">
<title>Node19&#45;&gt;Node20</title>
<path fill="none" stroke="midnightblue" d="M1459.77,-134.6C1441.13,-123.69 1415.28,-108.55 1396.56,-97.59"/>
<polygon fill="midnightblue" stroke="midnightblue" points="1458.13,-137.7 1468.53,-139.73 1461.67,-131.66 1458.13,-137.7"/>
</g>
<!-- Node22 -->
<g id="node22" class="node">
<title>Node22</title>
<g id="a_node22"><a xlink:href="Sensors_8cpp.html" target="_top" xlink:title=" ">
<polygon fill="white" stroke="black" points="1512,-73 1512,-92 1683,-92 1683,-73 1512,-73"/>
<text text-anchor="middle" x="1597.5" y="-80" font-family="Helvetica,sans-Serif" font-size="10.00">src/common/action/Sensors.cpp</text>
</a>
</g>
</g>
<!-- Node19&#45;&gt;Node22 -->
<g id="edge44" class="edge">
<title>Node19&#45;&gt;Node22</title>
<path fill="none" stroke="midnightblue" d="M1507.85,-134.62C1530.44,-121.74 1563.34,-102.98 1582.37,-92.13"/>
<polygon fill="midnightblue" stroke="midnightblue" points="1505.83,-131.74 1498.87,-139.73 1509.3,-137.82 1505.83,-131.74"/>
</g>
<!-- Node20&#45;&gt;Node4 -->
<g id="edge33" class="edge">
<title>Node20&#45;&gt;Node4</title>
<path fill="none" stroke="midnightblue" d="M1453.03,-71.61C1469.7,-69.84 1487.15,-68.18 1503.5,-67 1974.1,-33.02 2095.15,-79.24 2564.5,-31 2567.44,-30.7 2570.44,-30.35 2573.46,-29.98"/>
<polygon fill="midnightblue" stroke="midnightblue" points="1452.34,-68.16 1442.77,-72.72 1453.09,-75.12 1452.34,-68.16"/>
</g>
<!-- Node20&#45;&gt;Node5 -->
<g id="edge35" class="edge">
<title>Node20&#45;&gt;Node5</title>
<path fill="none" stroke="midnightblue" d="M1292,-67.5C1290.49,-67.33 1288.99,-67.16 1287.5,-67 920.79,-27.92 825.01,-71.98 458.5,-31 455.41,-30.65 452.27,-30.26 449.09,-29.83"/>
<polygon fill="midnightblue" stroke="midnightblue" points="1291.73,-71 1302.09,-68.79 1292.62,-64.05 1291.73,-71"/>
</g>
<!-- Node20&#45;&gt;Node6 -->
<g id="edge36" class="edge">
<title>Node20&#45;&gt;Node6</title>
<path fill="none" stroke="midnightblue" d="M1452.79,-68.93C1458.43,-68.22 1464.05,-67.57 1469.5,-67 1741.84,-38.73 1812.56,-62.89 2084.5,-31 2087.37,-30.66 2090.3,-30.29 2093.24,-29.89"/>
<polygon fill="midnightblue" stroke="midnightblue" points="1452.07,-65.49 1442.6,-70.26 1452.97,-72.43 1452.07,-65.49"/>
</g>
<!-- Node20&#45;&gt;Node7 -->
<g id="edge37" class="edge">
<title>Node20&#45;&gt;Node7</title>
<path fill="none" stroke="midnightblue" d="M1292,-67.53C1290.49,-67.35 1288.99,-67.17 1287.5,-67 1004.85,-35.03 931.42,-60.49 648.5,-31 645.6,-30.7 642.65,-30.37 639.67,-30.02"/>
<polygon fill="midnightblue" stroke="midnightblue" points="1291.71,-71.02 1302.09,-68.86 1292.63,-64.08 1291.71,-71.02"/>
</g>
<!-- Node20&#45;&gt;Node8 -->
<g id="edge38" class="edge">
<title>Node20&#45;&gt;Node8</title>
<path fill="none" stroke="midnightblue" d="M1291.99,-67.57C1290.48,-67.38 1288.99,-67.18 1287.5,-67 1082.23,-41.58 1028.82,-56.03 823.5,-31 820.76,-30.67 817.98,-30.31 815.18,-29.93"/>
<polygon fill="midnightblue" stroke="midnightblue" points="1291.69,-71.06 1302.07,-68.98 1292.65,-64.13 1291.69,-71.06"/>
</g>
<!-- Node20&#45;&gt;Node10 -->
<g id="edge39" class="edge">
<title>Node20&#45;&gt;Node10</title>
<path fill="none" stroke="midnightblue" d="M1291.98,-67.65C1290.48,-67.43 1288.98,-67.21 1287.5,-67 1148.88,-47.22 1112.9,-52.31 974.5,-31 971.75,-30.58 968.94,-30.12 966.11,-29.65"/>
<polygon fill="midnightblue" stroke="midnightblue" points="1291.63,-71.14 1302.05,-69.18 1292.68,-64.22 1291.63,-71.14"/>
</g>
<!-- Node20&#45;&gt;Node11 -->
<g id="edge40" class="edge">
<title>Node20&#45;&gt;Node11</title>
<path fill="none" stroke="midnightblue" d="M1293.13,-65.48C1239.04,-54.56 1168.24,-40.27 1117.09,-29.94"/>
<polygon fill="midnightblue" stroke="midnightblue" points="1292.53,-68.93 1303.03,-67.48 1293.92,-62.07 1292.53,-68.93"/>
</g>
<!-- Node20&#45;&gt;Node13 -->
<g id="edge31" class="edge">
<title>Node20&#45;&gt;Node13</title>
<path fill="none" stroke="midnightblue" d="M1451.03,-65.45C1503.38,-54.75 1571.53,-40.82 1621.74,-30.55"/>
<polygon fill="midnightblue" stroke="midnightblue" points="1450.21,-62.04 1441.11,-67.48 1451.61,-68.9 1450.21,-62.04"/>
</g>
<!-- Node20&#45;&gt;Node14 -->
<g id="edge32" class="edge">
<title>Node20&#45;&gt;Node14</title>
<path fill="none" stroke="midnightblue" d="M1326.72,-63.68C1299.94,-53.26 1266.6,-40.28 1241.67,-30.58"/>
<polygon fill="midnightblue" stroke="midnightblue" points="1325.67,-67.03 1336.26,-67.4 1328.21,-60.51 1325.67,-67.03"/>
</g>
<!-- Node20&#45;&gt;Node15 -->
<g id="edge34" class="edge">
<title>Node20&#45;&gt;Node15</title>
<path fill="none" stroke="midnightblue" d="M1371.39,-57.4C1370.97,-48.37 1370.51,-38.41 1370.15,-30.58"/>
<polygon fill="midnightblue" stroke="midnightblue" points="1367.89,-57.57 1371.85,-67.4 1374.88,-57.25 1367.89,-57.57"/>
</g>
<!-- Node20&#45;&gt;Node16 -->
<g id="edge41" class="edge">
<title>Node20&#45;&gt;Node16</title>
<path fill="none" stroke="midnightblue" d="M1416.98,-63.54C1442.74,-53.14 1474.7,-40.24 1498.63,-30.58"/>
<polygon fill="midnightblue" stroke="midnightblue" points="1415.4,-60.41 1407.43,-67.4 1418.02,-66.9 1415.4,-60.41"/>
</g>
<!-- Node20&#45;&gt;Node18 -->
<g id="edge43" class="edge">
<title>Node20&#45;&gt;Node18</title>
<path fill="none" stroke="midnightblue" d="M1452.8,-69.05C1458.45,-68.31 1464.05,-67.62 1469.5,-67 1671.93,-43.93 1724.48,-57.43 1926.5,-31 1929.4,-30.62 1932.36,-30.21 1935.35,-29.76"/>
<polygon fill="midnightblue" stroke="midnightblue" points="1452.07,-65.62 1442.62,-70.43 1453,-72.56 1452.07,-65.62"/>
</g>
<!-- Node21 -->
<g id="node21" class="node">
<title>Node21</title>
<g id="a_node21"><a xlink:href="OPOS6UL__ActionsExtended_8cpp.html" target="_top" xlink:title=" ">
<polygon fill="white" stroke="black" points="1777.5,-0.5 1777.5,-30.5 1917.5,-30.5 1917.5,-0.5 1777.5,-0.5"/>
<text text-anchor="start" x="1785.5" y="-18.5" font-family="Helvetica,sans-Serif" font-size="10.00">src/bot&#45;opos6ul/OPOS6UL</text>
<text text-anchor="middle" x="1847.5" y="-7.5" font-family="Helvetica,sans-Serif" font-size="10.00">_ActionsExtended.cpp</text>
</a>
</g>
</g>
<!-- Node20&#45;&gt;Node21 -->
<g id="edge42" class="edge">
<title>Node20&#45;&gt;Node21</title>
<path fill="none" stroke="midnightblue" d="M1452.83,-69.31C1458.47,-68.51 1464.07,-67.73 1469.5,-67 1602.15,-49.1 1636.17,-51.09 1768.5,-31 1771.4,-30.56 1774.35,-30.1 1777.33,-29.61"/>
<polygon fill="midnightblue" stroke="midnightblue" points="1452.07,-65.88 1442.67,-70.77 1453.06,-72.81 1452.07,-65.88"/>
</g>
<!-- Node25&#45;&gt;Node4 -->
<g id="edge48" class="edge">
<title>Node25&#45;&gt;Node4</title>
<path fill="none" stroke="midnightblue" d="M1935.65,-138.35C1945.27,-136.8 1955.16,-135.29 1964.5,-134 2109.77,-113.94 2155.61,-150.62 2292.5,-98 2314.49,-89.55 2313.71,-75.96 2335.5,-67 2430.78,-27.8 2462.85,-47.76 2564.5,-31 2567.42,-30.52 2570.4,-30.02 2573.4,-29.52"/>
<polygon fill="midnightblue" stroke="midnightblue" points="1935.05,-134.9 1925.75,-139.97 1936.18,-141.81 1935.05,-134.9"/>
</g>
<!-- Node26 -->
<g id="node26" class="node">
<title>Node26</title>
<g id="a_node26"><a xlink:href="OPOS6UL__IAExtended_8hpp.html" target="_top" xlink:title="Extension de l&#39;intelligence artificielle pour la carte OPOS6UL.">
<polygon fill="white" stroke="black" points="1931.5,-67.5 1931.5,-97.5 2071.5,-97.5 2071.5,-67.5 1931.5,-67.5"/>
<text text-anchor="start" x="1939.5" y="-85.5" font-family="Helvetica,sans-Serif" font-size="10.00">src/bot&#45;opos6ul/OPOS6UL</text>
<text text-anchor="middle" x="2001.5" y="-74.5" font-family="Helvetica,sans-Serif" font-size="10.00">_IAExtended.hpp</text>
</a>
</g>
</g>
<!-- Node25&#45;&gt;Node26 -->
<g id="edge49" class="edge">
<title>Node25&#45;&gt;Node26</title>
<path fill="none" stroke="midnightblue" d="M1902.88,-135.19C1923.74,-124.26 1953.22,-108.81 1974.5,-97.65"/>
<polygon fill="midnightblue" stroke="midnightblue" points="1901.2,-132.13 1893.97,-139.87 1904.45,-138.33 1901.2,-132.13"/>
</g>
<!-- Node28 -->
<g id="node28" class="node">
<title>Node28</title>
<g id="a_node28"><a xlink:href="IAbyPath_8cpp.html" target="_top" xlink:title=" ">
<polygon fill="white" stroke="black" points="2128,-73 2128,-92 2283,-92 2283,-73 2128,-73"/>
<text text-anchor="middle" x="2205.5" y="-80" font-family="Helvetica,sans-Serif" font-size="10.00">src/common/ia/IAbyPath.cpp</text>
</a>
</g>
</g>
<!-- Node25&#45;&gt;Node28 -->
<g id="edge54" class="edge">
<title>Node25&#45;&gt;Node28</title>
<path fill="none" stroke="midnightblue" d="M1930.7,-137.96C1995.25,-125.16 2102.84,-103.84 2162.45,-92.03"/>
<polygon fill="midnightblue" stroke="midnightblue" points="1929.85,-134.56 1920.72,-139.94 1931.21,-141.42 1929.85,-134.56"/>
</g>
<!-- Node26&#45;&gt;Node4 -->
<g id="edge50" class="edge">
<title>Node26&#45;&gt;Node4</title>
<path fill="none" stroke="midnightblue" d="M2081.63,-67.49C2082.93,-67.32 2084.22,-67.16 2085.5,-67 2297.38,-40.81 2352.62,-57.19 2564.5,-31 2567.44,-30.64 2570.43,-30.24 2573.45,-29.82"/>
<polygon fill="midnightblue" stroke="midnightblue" points="2080.98,-64.05 2071.55,-68.89 2081.94,-70.98 2080.98,-64.05"/>
</g>
<!-- Node26&#45;&gt;Node17 -->
<g id="edge51" class="edge">
<title>Node26&#45;&gt;Node17</title>
<path fill="none" stroke="midnightblue" d="M2081.68,-65.51C2135.49,-54.78 2205.69,-40.79 2257.29,-30.5"/>
<polygon fill="midnightblue" stroke="midnightblue" points="2080.96,-62.09 2071.84,-67.48 2082.33,-68.95 2080.96,-62.09"/>
</g>
<!-- Node26&#45;&gt;Node18 -->
<g id="edge53" class="edge">
<title>Node26&#45;&gt;Node18</title>
<path fill="none" stroke="midnightblue" d="M2002.98,-57.4C2003.54,-48.37 2004.15,-38.41 2004.63,-30.58"/>
<polygon fill="midnightblue" stroke="midnightblue" points="1999.49,-57.2 2002.37,-67.4 2006.48,-57.63 1999.49,-57.2"/>
</g>
<!-- Node27 -->
<g id="node27" class="node">
<title>Node27</title>
<g id="a_node27"><a xlink:href="OPOS6UL__IAExtended_8cpp.html" target="_top" xlink:title=" ">
<polygon fill="white" stroke="black" points="2415.5,-0.5 2415.5,-30.5 2555.5,-30.5 2555.5,-0.5 2415.5,-0.5"/>
<text text-anchor="start" x="2423.5" y="-18.5" font-family="Helvetica,sans-Serif" font-size="10.00">src/bot&#45;opos6ul/OPOS6UL</text>
<text text-anchor="middle" x="2485.5" y="-7.5" font-family="Helvetica,sans-Serif" font-size="10.00">_IAExtended.cpp</text>
</a>
</g>
</g>
<!-- Node26&#45;&gt;Node27 -->
<g id="edge52" class="edge">
<title>Node26&#45;&gt;Node27</title>
<path fill="none" stroke="midnightblue" d="M2081.64,-67.56C2082.93,-67.37 2084.22,-67.18 2085.5,-67 2227.63,-46.78 2264.48,-51.97 2406.5,-31 2409.4,-30.57 2412.35,-30.12 2415.33,-29.64"/>
<polygon fill="midnightblue" stroke="midnightblue" points="2080.94,-64.12 2071.58,-69.08 2081.99,-71.04 2080.94,-64.12"/>
</g>
</g>
</svg>
        <g id="navigator" transform="translate(0 0)" fill="#404254">
                <rect fill="#f2f5e9" fill-opacity="0.5" stroke="#606060" stroke-width=".5" x="0" y="0" width="60" height="60"/>
                <use id="zoomplus" xlink:href="#zoomPlus" x="17" y="9" onmousedown="handleZoom(evt,'in')"/>
                <use id="zoomminus" xlink:href="#zoomMin" x="42" y="9" onmousedown="handleZoom(evt,'out')"/>
                <use id="reset" xlink:href="#resetDef" x="30" y="36" onmousedown="handleReset()"/>
                <g id="arrowUp" xlink:href="#dirArrow" transform="translate(30 24)" onmousedown="handlePan(0,-1)">
                  <use xlink:href="#rim" fill="#404040">
                        <set attributeName="fill" to="#808080" begin="arrowUp.mouseover" end="arrowUp.mouseout"/>
                  </use>
                  <path fill="none" stroke="white" stroke-width="1.5" d="M0,-3.0v7 M-2.5,-0.5L0,-3.0L2.5,-0.5"/>
                </g>
                <g id="arrowRight" xlink:href="#dirArrow" transform="rotate(90) translate(36 -43)" onmousedown="handlePan(1,0)">
                  <use xlink:href="#rim" fill="#404040">
                        <set attributeName="fill" to="#808080" begin="arrowRight.mouseover" end="arrowRight.mouseout"/>
                  </use>
                  <path fill="none" stroke="white" stroke-width="1.5" d="M0,-3.0v7 M-2.5,-0.5L0,-3.0L2.5,-0.5"/>
                </g>
                <g id="arrowDown" xlink:href="#dirArrow" transform="rotate(180) translate(-30 -48)" onmousedown="handlePan(0,1)">
                  <use xlink:href="#rim" fill="#404040">
                        <set attributeName="fill" to="#808080" begin="arrowDown.mouseover" end="arrowDown.mouseout"/>
                  </use>
                  <path fill="none" stroke="white" stroke-width="1.5" d="M0,-3.0v7 M-2.5,-0.5L0,-3.0L2.5,-0.5"/>
                </g>
                <g id="arrowLeft" xlink:href="#dirArrow" transform="rotate(270) translate(-36 17)" onmousedown="handlePan(-1,0)">
                  <use xlink:href="#rim" fill="#404040">
                        <set attributeName="fill" to="#808080" begin="arrowLeft.mouseover" end="arrowLeft.mouseout"/>
                  </use>
                  <path fill="none" stroke="white" stroke-width="1.5" d="M0,-3.0v7 M-2.5,-0.5L0,-3.0L2.5,-0.5"/>
                </g>
        </g>
        <svg viewBox="0 0 15 15" width="100%" height="30px" preserveAspectRatio="xMaxYMin meet">
         <g id="arrow_out" transform="scale(0.3 0.3)">
          <a xlink:href="Automate_8hpp__dep__incl_org.svg" target="_base">
           <rect id="button" ry="5" rx="5" y="6" x="6" height="38" width="38"
                fill="#f2f5e9" fill-opacity="0.5" stroke="#606060" stroke-width="1.0"/>
           <path id="arrow"
             d="M 11.500037,31.436501 C 11.940474,20.09759 22.043105,11.32322 32.158766,21.979434 L 37.068811,17.246167 C 37.068811,17.246167 37.088388,32 37.088388,32 L 22.160133,31.978069 C 22.160133,31.978069 26.997745,27.140456 26.997745,27.140456 C 18.528582,18.264221 13.291696,25.230495 11.500037,31.436501 z"
             style="fill:#404040;"/>
          </a>
         </g>
        </svg>
</svg>
