<?xml version="1.0" encoding="UTF-8" standalone="no"?>
<!DOCTYPE svg PUBLIC "-//W3C//DTD SVG 1.1//EN"
 "http://www.w3.org/Graphics/SVG/1.1/DTD/svg11.dtd">
<!-- Generated by graphviz version 2.43.0 (0)
 -->
<!-- Title: src/common/asserv.esial/codeurs/BotCodeurs.cpp Pages: 1 -->
<svg width="438pt" height="207pt"
 viewBox="0.00 0.00 438.00 207.00" xmlns="http://www.w3.org/2000/svg" xmlns:xlink="http://www.w3.org/1999/xlink">
<g id="graph0" class="graph" transform="scale(1 1) rotate(0) translate(4 203)">
<title>src/common/asserv.esial/codeurs/BotCodeurs.cpp</title>
<polygon fill="white" stroke="transparent" points="-4,4 -4,-203 434,-203 434,4 -4,4"/>
<!-- Node1 -->
<g id="node1" class="node">
<title>Node1</title>
<g id="a_node1"><a xlink:title=" ">
<polygon fill="#bfbfbf" stroke="black" points="73.5,-168.5 73.5,-198.5 210.5,-198.5 210.5,-168.5 73.5,-168.5"/>
<text text-anchor="start" x="81.5" y="-186.5" font-family="Helvetica,sans-Serif" font-size="10.00">src/common/asserv.esial</text>
<text text-anchor="middle" x="142" y="-175.5" font-family="Helvetica,sans-Serif" font-size="10.00">/codeurs/BotCodeurs.cpp</text>
</a>
</g>
</g>
<!-- Node2 -->
<g id="node2" class="node">
<title>Node2</title>
<g id="a_node2"><a xlink:href="Chronometer_8hpp.html" target="_top" xlink:title="Définition de la classe Chronometer.">
<polygon fill="white" stroke="black" points="17.5,-112.5 17.5,-131.5 142.5,-131.5 142.5,-112.5 17.5,-112.5"/>
<text text-anchor="middle" x="80" y="-119.5" font-family="Helvetica,sans-Serif" font-size="10.00">utils/Chronometer.hpp</text>
</a>
</g>
</g>
<!-- Node1&#45;&gt;Node2 -->
<g id="edge1" class="edge">
<title>Node1&#45;&gt;Node2</title>
<path fill="none" stroke="midnightblue" d="M127.31,-168.4C118.02,-159.49 106,-147.95 96.4,-138.74"/>
<polygon fill="midnightblue" stroke="midnightblue" points="98.66,-136.06 89.02,-131.66 93.81,-141.11 98.66,-136.06"/>
</g>
<!-- Node5 -->
<g id="node5" class="node">
<title>Node5</title>
<g id="a_node5"><a xlink:href="Logger_8hpp.html" target="_top" xlink:title="Définition de la classe Logger.">
<polygon fill="white" stroke="black" points="161,-112.5 161,-131.5 249,-131.5 249,-112.5 161,-112.5"/>
<text text-anchor="middle" x="205" y="-119.5" font-family="Helvetica,sans-Serif" font-size="10.00">log/Logger.hpp</text>
</a>
</g>
</g>
<!-- Node1&#45;&gt;Node5 -->
<g id="edge4" class="edge">
<title>Node1&#45;&gt;Node5</title>
<path fill="none" stroke="midnightblue" d="M156.93,-168.4C166.37,-159.49 178.58,-147.95 188.33,-138.74"/>
<polygon fill="midnightblue" stroke="midnightblue" points="190.97,-141.07 195.83,-131.66 186.16,-135.98 190.97,-141.07"/>
</g>
<!-- Node3 -->
<g id="node3" class="node">
<title>Node3</title>
<g id="a_node3"><a xlink:title=" ">
<polygon fill="white" stroke="#bfbfbf" points="0,-56.5 0,-75.5 68,-75.5 68,-56.5 0,-56.5"/>
<text text-anchor="middle" x="34" y="-63.5" font-family="Helvetica,sans-Serif" font-size="10.00">sys/time.h</text>
</a>
</g>
</g>
<!-- Node2&#45;&gt;Node3 -->
<g id="edge2" class="edge">
<title>Node2&#45;&gt;Node3</title>
<path fill="none" stroke="midnightblue" d="M72.4,-112.08C65.77,-104.3 55.98,-92.8 47.94,-83.37"/>
<polygon fill="midnightblue" stroke="midnightblue" points="50.6,-81.09 41.45,-75.75 45.27,-85.63 50.6,-81.09"/>
</g>
<!-- Node4 -->
<g id="node4" class="node">
<title>Node4</title>
<g id="a_node4"><a xlink:title=" ">
<polygon fill="white" stroke="#bfbfbf" points="112,-0.5 112,-19.5 156,-19.5 156,-0.5 112,-0.5"/>
<text text-anchor="middle" x="134" y="-7.5" font-family="Helvetica,sans-Serif" font-size="10.00">string</text>
</a>
</g>
</g>
<!-- Node2&#45;&gt;Node4 -->
<g id="edge3" class="edge">
<title>Node2&#45;&gt;Node4</title>
<path fill="none" stroke="midnightblue" d="M84.24,-112.37C93.07,-94.38 113.6,-52.55 125.35,-28.63"/>
<polygon fill="midnightblue" stroke="midnightblue" points="128.52,-30.11 129.78,-19.59 122.23,-27.03 128.52,-30.11"/>
</g>
<!-- Node5&#45;&gt;Node4 -->
<g id="edge6" class="edge">
<title>Node5&#45;&gt;Node4</title>
<path fill="none" stroke="midnightblue" d="M191.08,-112.31C179.3,-104.27 162.81,-91.27 153,-76 143.97,-61.93 139.11,-43.44 136.57,-29.78"/>
<polygon fill="midnightblue" stroke="midnightblue" points="139.98,-28.96 134.95,-19.64 133.07,-30.07 139.98,-28.96"/>
</g>
<!-- Node6 -->
<g id="node6" class="node">
<title>Node6</title>
<g id="a_node6"><a xlink:title=" ">
<polygon fill="white" stroke="#bfbfbf" points="162,-56.5 162,-75.5 218,-75.5 218,-56.5 162,-56.5"/>
<text text-anchor="middle" x="190" y="-63.5" font-family="Helvetica,sans-Serif" font-size="10.00">sstream</text>
</a>
</g>
</g>
<!-- Node5&#45;&gt;Node6 -->
<g id="edge5" class="edge">
<title>Node5&#45;&gt;Node6</title>
<path fill="none" stroke="midnightblue" d="M202.52,-112.08C200.51,-104.85 197.61,-94.41 195.11,-85.4"/>
<polygon fill="midnightblue" stroke="midnightblue" points="198.48,-84.45 192.43,-75.75 191.74,-86.32 198.48,-84.45"/>
</g>
<!-- Node7 -->
<g id="node7" class="node">
<title>Node7</title>
<g id="a_node7"><a xlink:href="Mutex_8hpp.html" target="_top" xlink:title="Définition de la classe Mutex.">
<polygon fill="white" stroke="black" points="318,-56.5 318,-75.5 430,-75.5 430,-56.5 318,-56.5"/>
<text text-anchor="middle" x="374" y="-63.5" font-family="Helvetica,sans-Serif" font-size="10.00">../thread/Mutex.hpp</text>
</a>
</g>
</g>
<!-- Node5&#45;&gt;Node7 -->
<g id="edge7" class="edge">
<title>Node5&#45;&gt;Node7</title>
<path fill="none" stroke="midnightblue" d="M231.78,-112.44C260.33,-103.32 305.73,-88.81 337.54,-78.65"/>
<polygon fill="midnightblue" stroke="midnightblue" points="338.89,-81.89 347.35,-75.52 336.76,-75.23 338.89,-81.89"/>
</g>
<!-- Node9 -->
<g id="node9" class="node">
<title>Node9</title>
<g id="a_node9"><a xlink:href="Level_8hpp.html" target="_top" xlink:title="Définition de la classe Level.">
<polygon fill="white" stroke="black" points="236,-56.5 236,-75.5 300,-75.5 300,-56.5 236,-56.5"/>
<text text-anchor="middle" x="268" y="-63.5" font-family="Helvetica,sans-Serif" font-size="10.00">Level.hpp</text>
</a>
</g>
</g>
<!-- Node5&#45;&gt;Node9 -->
<g id="edge9" class="edge">
<title>Node5&#45;&gt;Node9</title>
<path fill="none" stroke="midnightblue" d="M215.12,-112.32C224.53,-104.26 238.74,-92.08 250.07,-82.37"/>
<polygon fill="midnightblue" stroke="midnightblue" points="252.38,-85 257.69,-75.83 247.82,-79.68 252.38,-85"/>
</g>
<!-- Node8 -->
<g id="node8" class="node">
<title>Node8</title>
<g id="a_node8"><a xlink:title=" ">
<polygon fill="white" stroke="#bfbfbf" points="342.5,-0.5 342.5,-19.5 405.5,-19.5 405.5,-0.5 342.5,-0.5"/>
<text text-anchor="middle" x="374" y="-7.5" font-family="Helvetica,sans-Serif" font-size="10.00">pthread.h</text>
</a>
</g>
</g>
<!-- Node7&#45;&gt;Node8 -->
<g id="edge8" class="edge">
<title>Node7&#45;&gt;Node8</title>
<path fill="none" stroke="midnightblue" d="M374,-56.08C374,-49.01 374,-38.86 374,-29.99"/>
<polygon fill="midnightblue" stroke="midnightblue" points="377.5,-29.75 374,-19.75 370.5,-29.75 377.5,-29.75"/>
</g>
<!-- Node9&#45;&gt;Node4 -->
<g id="edge10" class="edge">
<title>Node9&#45;&gt;Node4</title>
<path fill="none" stroke="midnightblue" d="M246.77,-56.44C224.62,-47.52 189.68,-33.44 164.56,-23.32"/>
<polygon fill="midnightblue" stroke="midnightblue" points="165.72,-20.01 155.13,-19.52 163.1,-26.5 165.72,-20.01"/>
</g>
</g>
</svg>
