<?xml version="1.0" encoding="UTF-8" standalone="no"?>
<!DOCTYPE svg PUBLIC "-//W3C//DTD SVG 1.1//EN"
 "http://www.w3.org/Graphics/SVG/1.1/DTD/svg11.dtd">
<!-- Generated by graphviz version 2.43.0 (0)
 -->
<!-- Title: test/manual/ButtonDriverManualTest.hpp Pages: 1 -->
<svg width="288pt" height="106pt"
 viewBox="0.00 0.00 288.00 106.00" xmlns="http://www.w3.org/2000/svg" xmlns:xlink="http://www.w3.org/1999/xlink">
<g id="graph0" class="graph" transform="scale(1 1) rotate(0) translate(4 102)">
<title>test/manual/ButtonDriverManualTest.hpp</title>
<polygon fill="white" stroke="transparent" points="-4,4 -4,-102 284,-102 284,4 -4,4"/>
<!-- Node1 -->
<g id="node1" class="node">
<title>Node1</title>
<g id="a_node1"><a xlink:title="Test manuel du driver de boutons.">
<polygon fill="#bfbfbf" stroke="black" points="74,-67.5 74,-97.5 214,-97.5 214,-67.5 74,-67.5"/>
<text text-anchor="start" x="82" y="-85.5" font-family="Helvetica,sans-Serif" font-size="10.00">test/manual/ButtonDriver</text>
<text text-anchor="middle" x="144" y="-74.5" font-family="Helvetica,sans-Serif" font-size="10.00">ManualTest.hpp</text>
</a>
</g>
</g>
<!-- Node2 -->
<g id="node2" class="node">
<title>Node2</title>
<g id="a_node2"><a xlink:href="ButtonDriverManualTest_8cpp.html" target="_top" xlink:title="Test manuel du driver de boutons.">
<polygon fill="white" stroke="black" points="0,-0.5 0,-30.5 140,-30.5 140,-0.5 0,-0.5"/>
<text text-anchor="start" x="8" y="-18.5" font-family="Helvetica,sans-Serif" font-size="10.00">test/manual/ButtonDriver</text>
<text text-anchor="middle" x="70" y="-7.5" font-family="Helvetica,sans-Serif" font-size="10.00">ManualTest.cpp</text>
</a>
</g>
</g>
<!-- Node1&#45;&gt;Node2 -->
<g id="edge1" class="edge">
<title>Node1&#45;&gt;Node2</title>
<path fill="none" stroke="midnightblue" d="M120.2,-60.6C109.03,-50.78 96.01,-39.34 86.03,-30.58"/>
<polygon fill="midnightblue" stroke="midnightblue" points="118.12,-63.43 127.94,-67.4 122.74,-58.17 118.12,-63.43"/>
</g>
<!-- Node3 -->
<g id="node3" class="node">
<title>Node3</title>
<g id="a_node3"><a xlink:href="test_2manual_2Main_8cpp.html" target="_top" xlink:title="Point d&#39;entree des tests manuels (verification visuelle/physique).">
<polygon fill="white" stroke="black" points="158,-6 158,-25 280,-25 280,-6 158,-6"/>
<text text-anchor="middle" x="219" y="-13" font-family="Helvetica,sans-Serif" font-size="10.00">test/manual/Main.cpp</text>
</a>
</g>
</g>
<!-- Node1&#45;&gt;Node3 -->
<g id="edge2" class="edge">
<title>Node1&#45;&gt;Node3</title>
<path fill="none" stroke="midnightblue" d="M168.03,-60.67C181.88,-48.67 198.55,-34.22 208.97,-25.19"/>
<polygon fill="midnightblue" stroke="midnightblue" points="165.54,-58.2 160.27,-67.4 170.12,-63.49 165.54,-58.2"/>
</g>
</g>
</svg>
