<?xml version="1.0" encoding="UTF-8" standalone="no"?>
<!DOCTYPE svg PUBLIC "-//W3C//DTD SVG 1.1//EN"
 "http://www.w3.org/Graphics/SVG/1.1/DTD/svg11.dtd">
<!-- Generated by graphviz version 2.43.0 (0)
 -->
<!-- Title: test/manual/ButtonDriverManualTest.cpp Pages: 1 -->
<!--zoomable 386 -->
<svg id="main" version="1.1" xmlns="http://www.w3.org/2000/svg" xmlns:xlink="http://www.w3.org/1999/xlink" xml:space="preserve" onload="init(evt)">
<style type="text/css"><![CDATA[
.edge:hover path { stroke: red; }
.edge:hover polygon { stroke: red; fill: red; }
]]></style>
<script type="text/javascript"><![CDATA[
var edges = document.getElementsByTagName('g');
if (edges && edges.length) {
  for (var i=0;i<edges.length;i++) {
    if (edges[i].id.substr(0,4)=='edge') {
      edges[i].setAttribute('class','edge');
    }
  }
}
]]></script>
        <defs>
                <circle id="rim" cx="0" cy="0" r="7"/>
                <circle id="rim2" cx="0" cy="0" r="3.5"/>
                <g id="zoomPlus">
                        <use xlink:href="#rim" fill="#404040">
                                <set attributeName="fill" to="#808080" begin="zoomplus.mouseover" end="zoomplus.mouseout"/>
                        </use>
                        <path d="M-4,0h8M0,-4v8" fill="none" stroke="white" stroke-width="1.5" pointer-events="none"/>
                </g>
                <g id="zoomMin">
                        <use xlink:href="#rim" fill="#404040">
                                <set attributeName="fill" to="#808080" begin="zoomminus.mouseover" end="zoomminus.mouseout"/>
                        </use>
                        <path d="M-4,0h8" fill="none" stroke="white" stroke-width="1.5" pointer-events="none"/>
                </g>
                <g id="dirArrow">
                        <path fill="none" stroke="white" stroke-width="1.5" d="M0,-3.0v7 M-2.5,-0.5L0,-3.0L2.5,-0.5"/>
                </g>
               <g id="resetDef">
                       <use xlink:href="#rim2" fill="#404040">
                               <set attributeName="fill" to="#808080" begin="reset.mouseover" end="reset.mouseout"/>
                       </use>
               </g>
        </defs>

<script type="text/javascript">
var viewWidth = 973;
var viewHeight = 386;
var sectionId = 'dynsection-0';
</script>
<script xlink:href="svgpan.js"/>
<svg id="graph" class="graph">
<g id="viewport">
<title>test/manual/ButtonDriverManualTest.cpp</title>
<polygon fill="white" stroke="transparent" points="-4,4 -4,-382 969.24,-382 969.24,4 -4,4"/>
<!-- Node1 -->
<g id="node1" class="node">
<title>Node1</title>
<g id="a_node1"><a xlink:title="Test manuel du driver de boutons.">
<polygon fill="#bfbfbf" stroke="black" points="473.24,-347.5 473.24,-377.5 613.24,-377.5 613.24,-347.5 473.24,-347.5"/>
<text text-anchor="start" x="481.24" y="-365.5" font-family="Helvetica,sans-Serif" font-size="10.00">test/manual/ButtonDriver</text>
<text text-anchor="middle" x="543.24" y="-354.5" font-family="Helvetica,sans-Serif" font-size="10.00">ManualTest.cpp</text>
</a>
</g>
</g>
<!-- Node2 -->
<g id="node2" class="node">
<title>Node2</title>
<g id="a_node2"><a xlink:href="ButtonDriverManualTest_8hpp.html" target="_top" xlink:title="Test manuel du driver de boutons.">
<polygon fill="white" stroke="black" points="303.74,-291.5 303.74,-310.5 458.74,-310.5 458.74,-291.5 303.74,-291.5"/>
<text text-anchor="middle" x="381.24" y="-298.5" font-family="Helvetica,sans-Serif" font-size="10.00">ButtonDriverManualTest.hpp</text>
</a>
</g>
</g>
<!-- Node1&#45;&gt;Node2 -->
<g id="edge1" class="edge">
<title>Node1&#45;&gt;Node2</title>
<path fill="none" stroke="midnightblue" d="M504.85,-347.4C477.3,-337.28 440.57,-323.79 414.32,-314.15"/>
<polygon fill="midnightblue" stroke="midnightblue" points="415.4,-310.82 404.81,-310.66 412.99,-317.39 415.4,-310.82"/>
</g>
<!-- Node14 -->
<g id="node14" class="node">
<title>Node14</title>
<g id="a_node14"><a xlink:href="Logger_8hpp.html" target="_top" xlink:title="Définition de la classe Logger.">
<polygon fill="white" stroke="black" points="446.24,-112.5 446.24,-131.5 516.24,-131.5 516.24,-112.5 446.24,-112.5"/>
<text text-anchor="middle" x="481.24" y="-119.5" font-family="Helvetica,sans-Serif" font-size="10.00">Logger.hpp</text>
</a>
</g>
</g>
<!-- Node1&#45;&gt;Node14 -->
<g id="edge32" class="edge">
<title>Node1&#45;&gt;Node14</title>
<path fill="none" stroke="midnightblue" d="M537.53,-347.24C529.6,-327 515.22,-288.66 506.24,-255 495.65,-215.33 487.8,-167.8 483.93,-141.98"/>
<polygon fill="midnightblue" stroke="midnightblue" points="487.35,-141.14 482.44,-131.75 480.42,-142.15 487.35,-141.14"/>
</g>
<!-- Node17 -->
<g id="node17" class="node">
<title>Node17</title>
<g id="a_node17"><a xlink:title=" ">
<polygon fill="white" stroke="#bfbfbf" points="515.24,-235.5 515.24,-254.5 571.24,-254.5 571.24,-235.5 515.24,-235.5"/>
<text text-anchor="middle" x="543.24" y="-242.5" font-family="Helvetica,sans-Serif" font-size="10.00">unistd.h</text>
</a>
</g>
</g>
<!-- Node1&#45;&gt;Node17 -->
<g id="edge22" class="edge">
<title>Node1&#45;&gt;Node17</title>
<path fill="none" stroke="midnightblue" d="M543.24,-347.34C543.24,-326.62 543.24,-288.02 543.24,-264.9"/>
<polygon fill="midnightblue" stroke="midnightblue" points="546.74,-264.67 543.24,-254.67 539.74,-264.67 546.74,-264.67"/>
</g>
<!-- Node18 -->
<g id="node18" class="node">
<title>Node18</title>
<g id="a_node18"><a xlink:title=" ">
<polygon fill="white" stroke="#bfbfbf" points="589.24,-235.5 589.24,-254.5 635.24,-254.5 635.24,-235.5 589.24,-235.5"/>
<text text-anchor="middle" x="612.24" y="-242.5" font-family="Helvetica,sans-Serif" font-size="10.00">cstdio</text>
</a>
</g>
</g>
<!-- Node1&#45;&gt;Node18 -->
<g id="edge23" class="edge">
<title>Node1&#45;&gt;Node18</title>
<path fill="none" stroke="midnightblue" d="M551.7,-347.34C564.36,-326.15 588.2,-286.24 601.88,-263.34"/>
<polygon fill="midnightblue" stroke="midnightblue" points="604.93,-265.05 607.06,-254.67 598.93,-261.46 604.93,-265.05"/>
</g>
<!-- Node19 -->
<g id="node19" class="node">
<title>Node19</title>
<g id="a_node19"><a xlink:href="ConsoleKeyInput_8hpp.html" target="_top" xlink:title="Classe utilitaire pour la saisie clavier en mode console.">
<polygon fill="white" stroke="black" points="637.74,-291.5 637.74,-310.5 780.74,-310.5 780.74,-291.5 637.74,-291.5"/>
<text text-anchor="middle" x="709.24" y="-298.5" font-family="Helvetica,sans-Serif" font-size="10.00">utils/ConsoleKeyInput.hpp</text>
</a>
</g>
</g>
<!-- Node1&#45;&gt;Node19 -->
<g id="edge24" class="edge">
<title>Node1&#45;&gt;Node19</title>
<path fill="none" stroke="midnightblue" d="M582.58,-347.4C610.8,-337.28 648.44,-323.79 675.34,-314.15"/>
<polygon fill="midnightblue" stroke="midnightblue" points="676.85,-317.33 685.08,-310.66 674.49,-310.74 676.85,-317.33"/>
</g>
<!-- Node3 -->
<g id="node3" class="node">
<title>Node3</title>
<g id="a_node3"><a xlink:href="AButtonDriver_8hpp.html" target="_top" xlink:title="Interface abstraite du driver de boutons.">
<polygon fill="white" stroke="black" points="165.24,-235.5 165.24,-254.5 317.24,-254.5 317.24,-235.5 165.24,-235.5"/>
<text text-anchor="middle" x="241.24" y="-242.5" font-family="Helvetica,sans-Serif" font-size="10.00">interface/AButtonDriver.hpp</text>
</a>
</g>
</g>
<!-- Node2&#45;&gt;Node3 -->
<g id="edge2" class="edge">
<title>Node2&#45;&gt;Node3</title>
<path fill="none" stroke="midnightblue" d="M359.05,-291.44C335.81,-282.48 299.09,-268.31 272.82,-258.18"/>
<polygon fill="midnightblue" stroke="midnightblue" points="273.91,-254.85 263.32,-254.52 271.39,-261.38 273.91,-254.85"/>
</g>
<!-- Node4 -->
<g id="node4" class="node">
<title>Node4</title>
<g id="a_node4"><a xlink:href="UnitTest_8hpp.html" target="_top" xlink:title="Définition de la classe DevUnitTest.">
<polygon fill="white" stroke="black" points="335.74,-235.5 335.74,-254.5 448.74,-254.5 448.74,-235.5 335.74,-235.5"/>
<text text-anchor="middle" x="392.24" y="-242.5" font-family="Helvetica,sans-Serif" font-size="10.00">../suite/UnitTest.hpp</text>
</a>
</g>
</g>
<!-- Node2&#45;&gt;Node4 -->
<g id="edge3" class="edge">
<title>Node2&#45;&gt;Node4</title>
<path fill="none" stroke="midnightblue" d="M383.05,-291.08C384.51,-283.93 386.61,-273.64 388.43,-264.69"/>
<polygon fill="midnightblue" stroke="midnightblue" points="391.89,-265.25 390.46,-254.75 385.03,-263.85 391.89,-265.25"/>
</g>
<!-- Node5 -->
<g id="node5" class="node">
<title>Node5</title>
<g id="a_node5"><a xlink:title=" ">
<polygon fill="white" stroke="#bfbfbf" points="408.24,-0.5 408.24,-19.5 452.24,-19.5 452.24,-0.5 408.24,-0.5"/>
<text text-anchor="middle" x="430.24" y="-7.5" font-family="Helvetica,sans-Serif" font-size="10.00">string</text>
</a>
</g>
</g>
<!-- Node4&#45;&gt;Node5 -->
<g id="edge4" class="edge">
<title>Node4&#45;&gt;Node5</title>
<path fill="none" stroke="midnightblue" d="M374.74,-235.46C361.45,-227.92 344.16,-215.53 336.24,-199 319.53,-164.13 322.08,-147.98 336.24,-112 350.85,-74.84 386.29,-43.25 409.24,-25.73"/>
<polygon fill="midnightblue" stroke="midnightblue" points="411.4,-28.49 417.35,-19.72 407.23,-22.86 411.4,-28.49"/>
</g>
<!-- Node6 -->
<g id="node6" class="node">
<title>Node6</title>
<g id="a_node6"><a xlink:href="LoggerFactory_8hpp.html" target="_top" xlink:title="Définition de la classe LoggerFactory.">
<polygon fill="white" stroke="black" points="345.74,-168.5 345.74,-198.5 458.74,-198.5 458.74,-168.5 345.74,-168.5"/>
<text text-anchor="start" x="353.74" y="-186.5" font-family="Helvetica,sans-Serif" font-size="10.00">../../src/common/log</text>
<text text-anchor="middle" x="402.24" y="-175.5" font-family="Helvetica,sans-Serif" font-size="10.00">/LoggerFactory.hpp</text>
</a>
</g>
</g>
<!-- Node4&#45;&gt;Node6 -->
<g id="edge5" class="edge">
<title>Node4&#45;&gt;Node6</title>
<path fill="none" stroke="midnightblue" d="M393.67,-235.48C394.86,-228.4 396.61,-217.97 398.22,-208.39"/>
<polygon fill="midnightblue" stroke="midnightblue" points="401.68,-208.96 399.88,-198.52 394.77,-207.8 401.68,-208.96"/>
</g>
<!-- Node6&#45;&gt;Node5 -->
<g id="edge7" class="edge">
<title>Node6&#45;&gt;Node5</title>
<path fill="none" stroke="midnightblue" d="M404.53,-168.47C409.55,-137.7 421.53,-64.33 427.18,-29.7"/>
<polygon fill="midnightblue" stroke="midnightblue" points="430.68,-29.99 428.84,-19.56 423.77,-28.87 430.68,-29.99"/>
</g>
<!-- Node7 -->
<g id="node7" class="node">
<title>Node7</title>
<g id="a_node7"><a xlink:title=" ">
<polygon fill="white" stroke="#bfbfbf" points="345.24,-112.5 345.24,-131.5 383.24,-131.5 383.24,-112.5 345.24,-112.5"/>
<text text-anchor="middle" x="364.24" y="-119.5" font-family="Helvetica,sans-Serif" font-size="10.00">map</text>
</a>
</g>
</g>
<!-- Node6&#45;&gt;Node7 -->
<g id="edge6" class="edge">
<title>Node6&#45;&gt;Node7</title>
<path fill="none" stroke="midnightblue" d="M393.23,-168.4C387.82,-159.93 380.91,-149.1 375.18,-140.14"/>
<polygon fill="midnightblue" stroke="midnightblue" points="378.1,-138.2 369.77,-131.66 372.2,-141.97 378.1,-138.2"/>
</g>
<!-- Node8 -->
<g id="node8" class="node">
<title>Node8</title>
<g id="a_node8"><a xlink:href="Thread_8hpp.html" target="_top" xlink:title="Définition de la classe Thread.">
<polygon fill="white" stroke="black" points="113.74,-112.5 113.74,-131.5 228.74,-131.5 228.74,-112.5 113.74,-112.5"/>
<text text-anchor="middle" x="171.24" y="-119.5" font-family="Helvetica,sans-Serif" font-size="10.00">../thread/Thread.hpp</text>
</a>
</g>
</g>
<!-- Node6&#45;&gt;Node8 -->
<g id="edge8" class="edge">
<title>Node6&#45;&gt;Node8</title>
<path fill="none" stroke="midnightblue" d="M347.79,-168.47C307.06,-157.99 252.13,-143.84 214.42,-134.12"/>
<polygon fill="midnightblue" stroke="midnightblue" points="214.82,-130.61 204.26,-131.51 213.07,-137.39 214.82,-130.61"/>
</g>
<!-- Node6&#45;&gt;Node14 -->
<g id="edge16" class="edge">
<title>Node6&#45;&gt;Node14</title>
<path fill="none" stroke="midnightblue" d="M420.96,-168.4C433.15,-159.22 449.03,-147.26 461.43,-137.92"/>
<polygon fill="midnightblue" stroke="midnightblue" points="463.86,-140.47 469.74,-131.66 459.65,-134.88 463.86,-140.47"/>
</g>
<!-- Node8&#45;&gt;Node5 -->
<g id="edge10" class="edge">
<title>Node8&#45;&gt;Node5</title>
<path fill="none" stroke="midnightblue" d="M177.85,-112.33C189.07,-98.25 213.29,-70.52 240.24,-56 291.22,-28.54 358.77,-17.69 398.07,-13.51"/>
<polygon fill="midnightblue" stroke="midnightblue" points="398.53,-16.98 408.14,-12.52 397.84,-10.02 398.53,-16.98"/>
</g>
<!-- Node9 -->
<g id="node9" class="node">
<title>Node9</title>
<g id="a_node9"><a xlink:title=" ">
<polygon fill="white" stroke="#bfbfbf" points="103.74,-0.5 103.74,-19.5 166.74,-19.5 166.74,-0.5 103.74,-0.5"/>
<text text-anchor="middle" x="135.24" y="-7.5" font-family="Helvetica,sans-Serif" font-size="10.00">pthread.h</text>
</a>
</g>
</g>
<!-- Node8&#45;&gt;Node9 -->
<g id="edge9" class="edge">
<title>Node8&#45;&gt;Node9</title>
<path fill="none" stroke="midnightblue" d="M113.31,-112.76C71.21,-105.44 19.39,-93.23 6.24,-76 -19.86,-41.84 46.84,-24.28 93.75,-16.41"/>
<polygon fill="midnightblue" stroke="midnightblue" points="94.39,-19.85 103.72,-14.83 93.29,-12.94 94.39,-19.85"/>
</g>
<!-- Node10 -->
<g id="node10" class="node">
<title>Node10</title>
<g id="a_node10"><a xlink:title=" ">
<polygon fill="white" stroke="#bfbfbf" points="83.24,-56.5 83.24,-75.5 131.24,-75.5 131.24,-56.5 83.24,-56.5"/>
<text text-anchor="middle" x="107.24" y="-63.5" font-family="Helvetica,sans-Serif" font-size="10.00">thread</text>
</a>
</g>
</g>
<!-- Node8&#45;&gt;Node10 -->
<g id="edge11" class="edge">
<title>Node8&#45;&gt;Node10</title>
<path fill="none" stroke="midnightblue" d="M160.96,-112.32C151.4,-104.26 136.96,-92.08 125.45,-82.37"/>
<polygon fill="midnightblue" stroke="midnightblue" points="127.61,-79.61 117.71,-75.83 123.09,-84.96 127.61,-79.61"/>
</g>
<!-- Node11 -->
<g id="node11" class="node">
<title>Node11</title>
<g id="a_node11"><a xlink:title=" ">
<polygon fill="white" stroke="#bfbfbf" points="149.24,-56.5 149.24,-75.5 193.24,-75.5 193.24,-56.5 149.24,-56.5"/>
<text text-anchor="middle" x="171.24" y="-63.5" font-family="Helvetica,sans-Serif" font-size="10.00">ctime</text>
</a>
</g>
</g>
<!-- Node8&#45;&gt;Node11 -->
<g id="edge12" class="edge">
<title>Node8&#45;&gt;Node11</title>
<path fill="none" stroke="midnightblue" d="M171.24,-112.08C171.24,-105.01 171.24,-94.86 171.24,-85.99"/>
<polygon fill="midnightblue" stroke="midnightblue" points="174.74,-85.75 171.24,-75.75 167.74,-85.75 174.74,-85.75"/>
</g>
<!-- Node12 -->
<g id="node12" class="node">
<title>Node12</title>
<g id="a_node12"><a xlink:href="Mutex_8hpp.html" target="_top" xlink:title="Définition de la classe Mutex.">
<polygon fill="white" stroke="black" points="249.24,-56.5 249.24,-75.5 317.24,-75.5 317.24,-56.5 249.24,-56.5"/>
<text text-anchor="middle" x="283.24" y="-63.5" font-family="Helvetica,sans-Serif" font-size="10.00">Mutex.hpp</text>
</a>
</g>
</g>
<!-- Node8&#45;&gt;Node12 -->
<g id="edge13" class="edge">
<title>Node8&#45;&gt;Node12</title>
<path fill="none" stroke="midnightblue" d="M189.23,-112.32C207.28,-103.62 235.28,-90.12 256.04,-80.11"/>
<polygon fill="midnightblue" stroke="midnightblue" points="257.8,-83.15 265.29,-75.65 254.76,-76.84 257.8,-83.15"/>
</g>
<!-- Node13 -->
<g id="node13" class="node">
<title>Node13</title>
<g id="a_node13"><a xlink:title=" ">
<polygon fill="white" stroke="#bfbfbf" points="15.24,-56.5 15.24,-75.5 65.24,-75.5 65.24,-56.5 15.24,-56.5"/>
<text text-anchor="middle" x="40.24" y="-63.5" font-family="Helvetica,sans-Serif" font-size="10.00">chrono</text>
</a>
</g>
</g>
<!-- Node8&#45;&gt;Node13 -->
<g id="edge15" class="edge">
<title>Node8&#45;&gt;Node13</title>
<path fill="none" stroke="midnightblue" d="M150.48,-112.44C128.92,-103.56 94.97,-89.56 70.44,-79.45"/>
<polygon fill="midnightblue" stroke="midnightblue" points="71.48,-76.09 60.9,-75.52 68.81,-82.56 71.48,-76.09"/>
</g>
<!-- Node12&#45;&gt;Node9 -->
<g id="edge14" class="edge">
<title>Node12&#45;&gt;Node9</title>
<path fill="none" stroke="midnightblue" d="M259.79,-56.44C235.11,-47.44 196.05,-33.19 168.26,-23.05"/>
<polygon fill="midnightblue" stroke="midnightblue" points="169.17,-19.66 158.58,-19.52 166.77,-26.23 169.17,-19.66"/>
</g>
<!-- Node14&#45;&gt;Node5 -->
<g id="edge18" class="edge">
<title>Node14&#45;&gt;Node5</title>
<path fill="none" stroke="midnightblue" d="M477.24,-112.37C468.93,-94.46 449.67,-52.92 438.56,-28.95"/>
<polygon fill="midnightblue" stroke="midnightblue" points="441.6,-27.19 434.22,-19.59 435.25,-30.14 441.6,-27.19"/>
</g>
<!-- Node14&#45;&gt;Node12 -->
<g id="edge19" class="edge">
<title>Node14&#45;&gt;Node12</title>
<path fill="none" stroke="midnightblue" d="M449.86,-112.44C415.98,-103.2 361.83,-88.44 324.51,-78.26"/>
<polygon fill="midnightblue" stroke="midnightblue" points="325.03,-74.77 314.46,-75.52 323.19,-81.52 325.03,-74.77"/>
</g>
<!-- Node15 -->
<g id="node15" class="node">
<title>Node15</title>
<g id="a_node15"><a xlink:title=" ">
<polygon fill="white" stroke="#bfbfbf" points="559.24,-56.5 559.24,-75.5 615.24,-75.5 615.24,-56.5 559.24,-56.5"/>
<text text-anchor="middle" x="587.24" y="-63.5" font-family="Helvetica,sans-Serif" font-size="10.00">sstream</text>
</a>
</g>
</g>
<!-- Node14&#45;&gt;Node15 -->
<g id="edge17" class="edge">
<title>Node14&#45;&gt;Node15</title>
<path fill="none" stroke="midnightblue" d="M498.27,-112.32C515.27,-103.66 541.61,-90.24 561.23,-80.25"/>
<polygon fill="midnightblue" stroke="midnightblue" points="562.93,-83.31 570.25,-75.65 559.75,-77.08 562.93,-83.31"/>
</g>
<!-- Node16 -->
<g id="node16" class="node">
<title>Node16</title>
<g id="a_node16"><a xlink:href="Level_8hpp.html" target="_top" xlink:title="Définition de la classe Level.">
<polygon fill="white" stroke="black" points="477.24,-56.5 477.24,-75.5 541.24,-75.5 541.24,-56.5 477.24,-56.5"/>
<text text-anchor="middle" x="509.24" y="-63.5" font-family="Helvetica,sans-Serif" font-size="10.00">Level.hpp</text>
</a>
</g>
</g>
<!-- Node14&#45;&gt;Node16 -->
<g id="edge20" class="edge">
<title>Node14&#45;&gt;Node16</title>
<path fill="none" stroke="midnightblue" d="M485.86,-112.08C489.69,-104.69 495.26,-93.95 500,-84.81"/>
<polygon fill="midnightblue" stroke="midnightblue" points="503.2,-86.24 504.7,-75.75 496.99,-83.02 503.2,-86.24"/>
</g>
<!-- Node16&#45;&gt;Node5 -->
<g id="edge21" class="edge">
<title>Node16&#45;&gt;Node5</title>
<path fill="none" stroke="midnightblue" d="M496.55,-56.32C484.34,-47.98 465.66,-35.21 451.23,-25.35"/>
<polygon fill="midnightblue" stroke="midnightblue" points="453.13,-22.41 442.9,-19.65 449.18,-28.19 453.13,-22.41"/>
</g>
<!-- Node19&#45;&gt;Node5 -->
<g id="edge31" class="edge">
<title>Node19&#45;&gt;Node5</title>
<path fill="none" stroke="midnightblue" d="M703.22,-291.48C690.76,-272.96 663.24,-227.24 663.24,-184.5 663.24,-184.5 663.24,-184.5 663.24,-121 663.24,-33.47 527.1,-15.48 462.95,-11.86"/>
<polygon fill="midnightblue" stroke="midnightblue" points="462.73,-8.35 452.58,-11.37 462.4,-15.34 462.73,-8.35"/>
</g>
<!-- Node19&#45;&gt;Node17 -->
<g id="edge26" class="edge">
<title>Node19&#45;&gt;Node17</title>
<path fill="none" stroke="midnightblue" d="M682.93,-291.44C654.89,-282.32 610.29,-267.81 579.05,-257.65"/>
<polygon fill="midnightblue" stroke="midnightblue" points="580.01,-254.28 569.42,-254.52 577.84,-260.94 580.01,-254.28"/>
</g>
<!-- Node19&#45;&gt;Node18 -->
<g id="edge28" class="edge">
<title>Node19&#45;&gt;Node18</title>
<path fill="none" stroke="midnightblue" d="M693.65,-291.32C678.24,-282.74 654.43,-269.49 636.53,-259.52"/>
<polygon fill="midnightblue" stroke="midnightblue" points="638.22,-256.46 627.78,-254.65 634.82,-262.58 638.22,-256.46"/>
</g>
<!-- Node20 -->
<g id="node20" class="node">
<title>Node20</title>
<g id="a_node20"><a xlink:title=" ">
<polygon fill="white" stroke="#bfbfbf" points="691.74,-235.5 691.74,-254.5 754.74,-254.5 754.74,-235.5 691.74,-235.5"/>
<text text-anchor="middle" x="723.24" y="-242.5" font-family="Helvetica,sans-Serif" font-size="10.00">termios.h</text>
</a>
</g>
</g>
<!-- Node19&#45;&gt;Node20 -->
<g id="edge25" class="edge">
<title>Node19&#45;&gt;Node20</title>
<path fill="none" stroke="midnightblue" d="M711.55,-291.08C713.4,-283.93 716.07,-273.64 718.39,-264.69"/>
<polygon fill="midnightblue" stroke="midnightblue" points="721.85,-265.31 720.97,-254.75 715.07,-263.55 721.85,-265.31"/>
</g>
<!-- Node21 -->
<g id="node21" class="node">
<title>Node21</title>
<g id="a_node21"><a xlink:title=" ">
<polygon fill="white" stroke="#bfbfbf" points="772.74,-235.5 772.74,-254.5 819.74,-254.5 819.74,-235.5 772.74,-235.5"/>
<text text-anchor="middle" x="796.24" y="-242.5" font-family="Helvetica,sans-Serif" font-size="10.00">cmath</text>
</a>
</g>
</g>
<!-- Node19&#45;&gt;Node21 -->
<g id="edge27" class="edge">
<title>Node19&#45;&gt;Node21</title>
<path fill="none" stroke="midnightblue" d="M723.22,-291.32C736.79,-282.9 757.62,-269.97 773.56,-260.07"/>
<polygon fill="midnightblue" stroke="midnightblue" points="775.64,-262.9 782.29,-254.65 771.95,-256.95 775.64,-262.9"/>
</g>
<!-- Node22 -->
<g id="node22" class="node">
<title>Node22</title>
<g id="a_node22"><a xlink:title=" ">
<polygon fill="white" stroke="#bfbfbf" points="837.74,-235.5 837.74,-254.5 886.74,-254.5 886.74,-235.5 837.74,-235.5"/>
<text text-anchor="middle" x="862.24" y="-242.5" font-family="Helvetica,sans-Serif" font-size="10.00">cstdlib</text>
</a>
</g>
</g>
<!-- Node19&#45;&gt;Node22 -->
<g id="edge29" class="edge">
<title>Node19&#45;&gt;Node22</title>
<path fill="none" stroke="midnightblue" d="M733.48,-291.44C759.11,-282.4 799.72,-268.06 828.48,-257.92"/>
<polygon fill="midnightblue" stroke="midnightblue" points="829.84,-261.15 838.11,-254.52 827.51,-254.54 829.84,-261.15"/>
</g>
<!-- Node23 -->
<g id="node23" class="node">
<title>Node23</title>
<g id="a_node23"><a xlink:title=" ">
<polygon fill="white" stroke="#bfbfbf" points="905.24,-235.5 905.24,-254.5 965.24,-254.5 965.24,-235.5 905.24,-235.5"/>
<text text-anchor="middle" x="935.24" y="-242.5" font-family="Helvetica,sans-Serif" font-size="10.00">iostream</text>
</a>
</g>
</g>
<!-- Node19&#45;&gt;Node23 -->
<g id="edge30" class="edge">
<title>Node19&#45;&gt;Node23</title>
<path fill="none" stroke="midnightblue" d="M745.05,-291.44C785.95,-281.67 852.71,-265.72 895.27,-255.55"/>
<polygon fill="midnightblue" stroke="midnightblue" points="896.11,-258.95 905.02,-253.22 894.48,-252.14 896.11,-258.95"/>
</g>
</g>
</svg>
        <g id="navigator" transform="translate(0 0)" fill="#404254">
                <rect fill="#f2f5e9" fill-opacity="0.5" stroke="#606060" stroke-width=".5" x="0" y="0" width="60" height="60"/>
                <use id="zoomplus" xlink:href="#zoomPlus" x="17" y="9" onmousedown="handleZoom(evt,'in')"/>
                <use id="zoomminus" xlink:href="#zoomMin" x="42" y="9" onmousedown="handleZoom(evt,'out')"/>
                <use id="reset" xlink:href="#resetDef" x="30" y="36" onmousedown="handleReset()"/>
                <g id="arrowUp" xlink:href="#dirArrow" transform="translate(30 24)" onmousedown="handlePan(0,-1)">
                  <use xlink:href="#rim" fill="#404040">
                        <set attributeName="fill" to="#808080" begin="arrowUp.mouseover" end="arrowUp.mouseout"/>
                  </use>
                  <path fill="none" stroke="white" stroke-width="1.5" d="M0,-3.0v7 M-2.5,-0.5L0,-3.0L2.5,-0.5"/>
                </g>
                <g id="arrowRight" xlink:href="#dirArrow" transform="rotate(90) translate(36 -43)" onmousedown="handlePan(1,0)">
                  <use xlink:href="#rim" fill="#404040">
                        <set attributeName="fill" to="#808080" begin="arrowRight.mouseover" end="arrowRight.mouseout"/>
                  </use>
                  <path fill="none" stroke="white" stroke-width="1.5" d="M0,-3.0v7 M-2.5,-0.5L0,-3.0L2.5,-0.5"/>
                </g>
                <g id="arrowDown" xlink:href="#dirArrow" transform="rotate(180) translate(-30 -48)" onmousedown="handlePan(0,1)">
                  <use xlink:href="#rim" fill="#404040">
                        <set attributeName="fill" to="#808080" begin="arrowDown.mouseover" end="arrowDown.mouseout"/>
                  </use>
                  <path fill="none" stroke="white" stroke-width="1.5" d="M0,-3.0v7 M-2.5,-0.5L0,-3.0L2.5,-0.5"/>
                </g>
                <g id="arrowLeft" xlink:href="#dirArrow" transform="rotate(270) translate(-36 17)" onmousedown="handlePan(-1,0)">
                  <use xlink:href="#rim" fill="#404040">
                        <set attributeName="fill" to="#808080" begin="arrowLeft.mouseover" end="arrowLeft.mouseout"/>
                  </use>
                  <path fill="none" stroke="white" stroke-width="1.5" d="M0,-3.0v7 M-2.5,-0.5L0,-3.0L2.5,-0.5"/>
                </g>
        </g>
        <svg viewBox="0 0 15 15" width="100%" height="30px" preserveAspectRatio="xMaxYMin meet">
         <g id="arrow_out" transform="scale(0.3 0.3)">
          <a xlink:href="ButtonDriverManualTest_8cpp__incl_org.svg" target="_base">
           <rect id="button" ry="5" rx="5" y="6" x="6" height="38" width="38"
                fill="#f2f5e9" fill-opacity="0.5" stroke="#606060" stroke-width="1.0"/>
           <path id="arrow"
             d="M 11.500037,31.436501 C 11.940474,20.09759 22.043105,11.32322 32.158766,21.979434 L 37.068811,17.246167 C 37.068811,17.246167 37.088388,32 37.088388,32 L 22.160133,31.978069 C 22.160133,31.978069 26.997745,27.140456 26.997745,27.140456 C 18.528582,18.264221 13.291696,25.230495 11.500037,31.436501 z"
             style="fill:#404040;"/>
          </a>
         </g>
        </svg>
</svg>
