<?xml version="1.0" encoding="UTF-8" standalone="no"?>
<!DOCTYPE svg PUBLIC "-//W3C//DTD SVG 1.1//EN"
 "http://www.w3.org/Graphics/SVG/1.1/DTD/svg11.dtd">
<!-- Generated by graphviz version 2.43.0 (0)
 -->
<!-- Title: src/common/action/ButtonBar.hpp Pages: 1 -->
<svg width="1410pt" height="173pt"
 viewBox="0.00 0.00 1410.00 173.00" xmlns="http://www.w3.org/2000/svg" xmlns:xlink="http://www.w3.org/1999/xlink">
<g id="graph0" class="graph" transform="scale(1 1) rotate(0) translate(4 169)">
<title>src/common/action/ButtonBar.hpp</title>
<polygon fill="white" stroke="transparent" points="-4,4 -4,-169 1406,-169 1406,4 -4,4"/>
<!-- Node1 -->
<g id="node1" class="node">
<title>Node1</title>
<g id="a_node1"><a xlink:title="Définition de la classe ButtonBar.">
<polygon fill="#bfbfbf" stroke="black" points="559.5,-134.5 559.5,-164.5 704.5,-164.5 704.5,-134.5 559.5,-134.5"/>
<text text-anchor="start" x="567.5" y="-152.5" font-family="Helvetica,sans-Serif" font-size="10.00">src/common/action/Button</text>
<text text-anchor="middle" x="632" y="-141.5" font-family="Helvetica,sans-Serif" font-size="10.00">Bar.hpp</text>
</a>
</g>
</g>
<!-- Node2 -->
<g id="node2" class="node">
<title>Node2</title>
<g id="a_node2"><a xlink:href="O__ButtonBarTest_8cpp.html" target="_top" xlink:title="Implémentation de la classe O_ButtonBarTest.">
<polygon fill="white" stroke="black" points="0,-0.5 0,-30.5 140,-30.5 140,-0.5 0,-0.5"/>
<text text-anchor="start" x="8" y="-18.5" font-family="Helvetica,sans-Serif" font-size="10.00">src/bot&#45;opos6ul/O_Button</text>
<text text-anchor="middle" x="70" y="-7.5" font-family="Helvetica,sans-Serif" font-size="10.00">BarTest.cpp</text>
</a>
</g>
</g>
<!-- Node1&#45;&gt;Node2 -->
<g id="edge1" class="edge">
<title>Node1&#45;&gt;Node2</title>
<path fill="none" stroke="midnightblue" d="M562.6,-132.2C451.3,-106.06 234.76,-55.2 129.85,-30.56"/>
<polygon fill="midnightblue" stroke="midnightblue" points="561.85,-135.62 572.39,-134.5 563.45,-128.8 561.85,-135.62"/>
</g>
<!-- Node3 -->
<g id="node3" class="node">
<title>Node3</title>
<g id="a_node3"><a xlink:href="OPOS6UL__ActionsExtended_8hpp.html" target="_top" xlink:title="Extension des actions du robot pour la carte OPOS6UL.">
<polygon fill="white" stroke="black" points="562,-67.5 562,-97.5 702,-97.5 702,-67.5 562,-67.5"/>
<text text-anchor="start" x="570" y="-85.5" font-family="Helvetica,sans-Serif" font-size="10.00">src/bot&#45;opos6ul/OPOS6UL</text>
<text text-anchor="middle" x="632" y="-74.5" font-family="Helvetica,sans-Serif" font-size="10.00">_ActionsExtended.hpp</text>
</a>
</g>
</g>
<!-- Node1&#45;&gt;Node3 -->
<g id="edge2" class="edge">
<title>Node1&#45;&gt;Node3</title>
<path fill="none" stroke="midnightblue" d="M632,-124.11C632,-115.15 632,-105.32 632,-97.58"/>
<polygon fill="midnightblue" stroke="midnightblue" points="628.5,-124.4 632,-134.4 635.5,-124.4 628.5,-124.4"/>
</g>
<!-- Node12 -->
<g id="node12" class="node">
<title>Node12</title>
<g id="a_node12"><a xlink:href="ButtonBar_8cpp.html" target="_top" xlink:title=" ">
<polygon fill="white" stroke="black" points="720.5,-67.5 720.5,-97.5 865.5,-97.5 865.5,-67.5 720.5,-67.5"/>
<text text-anchor="start" x="728.5" y="-85.5" font-family="Helvetica,sans-Serif" font-size="10.00">src/common/action/Button</text>
<text text-anchor="middle" x="793" y="-74.5" font-family="Helvetica,sans-Serif" font-size="10.00">Bar.cpp</text>
</a>
</g>
</g>
<!-- Node1&#45;&gt;Node12 -->
<g id="edge12" class="edge">
<title>Node1&#45;&gt;Node12</title>
<path fill="none" stroke="midnightblue" d="M676.48,-130.54C702.24,-120.14 734.2,-107.24 758.13,-97.58"/>
<polygon fill="midnightblue" stroke="midnightblue" points="674.9,-127.41 666.93,-134.4 677.52,-133.9 674.9,-127.41"/>
</g>
<!-- Node3&#45;&gt;Node2 -->
<g id="edge4" class="edge">
<title>Node3&#45;&gt;Node2</title>
<path fill="none" stroke="midnightblue" d="M551.58,-75.01C455.53,-66.81 290.11,-51.3 149,-31 146.1,-30.58 143.15,-30.14 140.17,-29.67"/>
<polygon fill="midnightblue" stroke="midnightblue" points="551.54,-78.52 561.8,-75.87 552.13,-71.54 551.54,-78.52"/>
</g>
<!-- Node4 -->
<g id="node4" class="node">
<title>Node4</title>
<g id="a_node4"><a xlink:href="O__ActionManagerTimerTest_8cpp.html" target="_top" xlink:title="Implémentation de la classe L_ActionManagerTimerTest.">
<polygon fill="white" stroke="black" points="158,-0.5 158,-30.5 296,-30.5 296,-0.5 158,-0.5"/>
<text text-anchor="start" x="166" y="-18.5" font-family="Helvetica,sans-Serif" font-size="10.00">src/bot&#45;opos6ul/O_Action</text>
<text text-anchor="middle" x="227" y="-7.5" font-family="Helvetica,sans-Serif" font-size="10.00">ManagerTimerTest.cpp</text>
</a>
</g>
</g>
<!-- Node3&#45;&gt;Node4 -->
<g id="edge3" class="edge">
<title>Node3&#45;&gt;Node4</title>
<path fill="none" stroke="midnightblue" d="M551.77,-69.81C485.51,-59.99 389.03,-45.3 305,-31 302.15,-30.51 299.24,-30.01 296.3,-29.5"/>
<polygon fill="midnightblue" stroke="midnightblue" points="551.33,-73.28 561.73,-71.28 552.35,-66.36 551.33,-73.28"/>
</g>
<!-- Node5 -->
<g id="node5" class="node">
<title>Node5</title>
<g id="a_node5"><a xlink:href="O__LcdBoardTest_8cpp.html" target="_top" xlink:title="Implémentation de la classe O_LcdBoardTest.">
<polygon fill="white" stroke="black" points="314,-0.5 314,-30.5 466,-30.5 466,-0.5 314,-0.5"/>
<text text-anchor="start" x="322" y="-18.5" font-family="Helvetica,sans-Serif" font-size="10.00">src/bot&#45;opos6ul/O_LcdBoard</text>
<text text-anchor="middle" x="390" y="-7.5" font-family="Helvetica,sans-Serif" font-size="10.00">Test.cpp</text>
</a>
</g>
</g>
<!-- Node3&#45;&gt;Node5 -->
<g id="edge5" class="edge">
<title>Node3&#45;&gt;Node5</title>
<path fill="none" stroke="midnightblue" d="M570.01,-64.85C530.55,-54.25 480.01,-40.68 442.54,-30.61"/>
<polygon fill="midnightblue" stroke="midnightblue" points="569.22,-68.26 579.79,-67.48 571.04,-61.5 569.22,-68.26"/>
</g>
<!-- Node6 -->
<g id="node6" class="node">
<title>Node6</title>
<g id="a_node6"><a xlink:href="O__LedBarTest_8cpp.html" target="_top" xlink:title="Implementation de la classe O_LedBarTest.">
<polygon fill="white" stroke="black" points="484.5,-0.5 484.5,-30.5 625.5,-30.5 625.5,-0.5 484.5,-0.5"/>
<text text-anchor="start" x="492.5" y="-18.5" font-family="Helvetica,sans-Serif" font-size="10.00">src/bot&#45;opos6ul/O_LedBar</text>
<text text-anchor="middle" x="555" y="-7.5" font-family="Helvetica,sans-Serif" font-size="10.00">Test.cpp</text>
</a>
</g>
</g>
<!-- Node3&#45;&gt;Node6 -->
<g id="edge6" class="edge">
<title>Node3&#45;&gt;Node6</title>
<path fill="none" stroke="midnightblue" d="M607.58,-60.88C595.88,-51.01 582.16,-39.43 571.68,-30.58"/>
<polygon fill="midnightblue" stroke="midnightblue" points="605.39,-63.62 615.29,-67.4 609.91,-58.27 605.39,-63.62"/>
</g>
<!-- Node7 -->
<g id="node7" class="node">
<title>Node7</title>
<g id="a_node7"><a xlink:href="O__State__Init_8cpp.html" target="_top" xlink:title=" ">
<polygon fill="white" stroke="black" points="643.5,-0.5 643.5,-30.5 776.5,-30.5 776.5,-0.5 643.5,-0.5"/>
<text text-anchor="start" x="651.5" y="-18.5" font-family="Helvetica,sans-Serif" font-size="10.00">src/bot&#45;opos6ul/O_State</text>
<text text-anchor="middle" x="710" y="-7.5" font-family="Helvetica,sans-Serif" font-size="10.00">_Init.cpp</text>
</a>
</g>
</g>
<!-- Node3&#45;&gt;Node7 -->
<g id="edge7" class="edge">
<title>Node3&#45;&gt;Node7</title>
<path fill="none" stroke="midnightblue" d="M656.74,-60.88C668.59,-51.01 682.48,-39.43 693.11,-30.58"/>
<polygon fill="midnightblue" stroke="midnightblue" points="654.37,-58.31 648.92,-67.4 658.85,-63.68 654.37,-58.31"/>
</g>
<!-- Node8 -->
<g id="node8" class="node">
<title>Node8</title>
<g id="a_node8"><a xlink:href="O__State__WaitEndOfMatch_8cpp.html" target="_top" xlink:title=" ">
<polygon fill="white" stroke="black" points="794.5,-0.5 794.5,-30.5 927.5,-30.5 927.5,-0.5 794.5,-0.5"/>
<text text-anchor="start" x="802.5" y="-18.5" font-family="Helvetica,sans-Serif" font-size="10.00">src/bot&#45;opos6ul/O_State</text>
<text text-anchor="middle" x="861" y="-7.5" font-family="Helvetica,sans-Serif" font-size="10.00">_WaitEndOfMatch.cpp</text>
</a>
</g>
</g>
<!-- Node3&#45;&gt;Node8 -->
<g id="edge8" class="edge">
<title>Node3&#45;&gt;Node8</title>
<path fill="none" stroke="midnightblue" d="M691.14,-64.71C728.4,-54.14 775.97,-40.63 811.29,-30.61"/>
<polygon fill="midnightblue" stroke="midnightblue" points="690.07,-61.38 681.41,-67.48 691.98,-68.11 690.07,-61.38"/>
</g>
<!-- Node9 -->
<g id="node9" class="node">
<title>Node9</title>
<g id="a_node9"><a xlink:href="O__TiretteTest_8cpp.html" target="_top" xlink:title="Implémentation de la classe O_TiretteTest.">
<polygon fill="white" stroke="black" points="946,-0.5 946,-30.5 1086,-30.5 1086,-0.5 946,-0.5"/>
<text text-anchor="start" x="954" y="-18.5" font-family="Helvetica,sans-Serif" font-size="10.00">src/bot&#45;opos6ul/O_Tirette</text>
<text text-anchor="middle" x="1016" y="-7.5" font-family="Helvetica,sans-Serif" font-size="10.00">Test.cpp</text>
</a>
</g>
</g>
<!-- Node3&#45;&gt;Node9 -->
<g id="edge9" class="edge">
<title>Node3&#45;&gt;Node9</title>
<path fill="none" stroke="midnightblue" d="M712.26,-66.98C813.49,-49.84 840.31,-47.61 937,-31 939.89,-30.5 942.83,-29.99 945.8,-29.47"/>
<polygon fill="midnightblue" stroke="midnightblue" points="711.5,-63.56 702.23,-68.69 712.67,-70.46 711.5,-63.56"/>
</g>
<!-- Node10 -->
<g id="node10" class="node">
<title>Node10</title>
<g id="a_node10"><a xlink:href="OPOS6UL__ActionsExtended_8cpp.html" target="_top" xlink:title=" ">
<polygon fill="white" stroke="black" points="1104,-0.5 1104,-30.5 1244,-30.5 1244,-0.5 1104,-0.5"/>
<text text-anchor="start" x="1112" y="-18.5" font-family="Helvetica,sans-Serif" font-size="10.00">src/bot&#45;opos6ul/OPOS6UL</text>
<text text-anchor="middle" x="1174" y="-7.5" font-family="Helvetica,sans-Serif" font-size="10.00">_ActionsExtended.cpp</text>
</a>
</g>
</g>
<!-- Node3&#45;&gt;Node10 -->
<g id="edge10" class="edge">
<title>Node3&#45;&gt;Node10</title>
<path fill="none" stroke="midnightblue" d="M712.28,-67.06C883.11,-44.13 928.87,-54.01 1095,-31 1097.9,-30.6 1100.86,-30.16 1103.84,-29.71"/>
<polygon fill="midnightblue" stroke="midnightblue" points="711.62,-63.61 702.19,-68.43 712.57,-70.55 711.62,-63.61"/>
</g>
<!-- Node11 -->
<g id="node11" class="node">
<title>Node11</title>
<g id="a_node11"><a xlink:href="OPOS6UL__RobotExtended_8cpp.html" target="_top" xlink:title=" ">
<polygon fill="white" stroke="black" points="1262,-0.5 1262,-30.5 1402,-30.5 1402,-0.5 1262,-0.5"/>
<text text-anchor="start" x="1270" y="-18.5" font-family="Helvetica,sans-Serif" font-size="10.00">src/bot&#45;opos6ul/OPOS6UL</text>
<text text-anchor="middle" x="1332" y="-7.5" font-family="Helvetica,sans-Serif" font-size="10.00">_RobotExtended.cpp</text>
</a>
</g>
</g>
<!-- Node3&#45;&gt;Node11 -->
<g id="edge11" class="edge">
<title>Node3&#45;&gt;Node11</title>
<path fill="none" stroke="midnightblue" d="M712.28,-67.08C952.91,-38.09 1017.14,-60.39 1253,-31 1255.91,-30.64 1258.87,-30.24 1261.85,-29.81"/>
<polygon fill="midnightblue" stroke="midnightblue" points="711.67,-63.63 702.17,-68.32 712.52,-70.58 711.67,-63.63"/>
</g>
</g>
</svg>
