<?xml version="1.0" encoding="UTF-8" standalone="no"?>
<!DOCTYPE svg PUBLIC "-//W3C//DTD SVG 1.1//EN"
 "http://www.w3.org/Graphics/SVG/1.1/DTD/svg11.dtd">
<!-- Generated by graphviz version 2.43.0 (0)
 -->
<!-- Title: src/common/action/ButtonBar.hpp Pages: 1 -->
<!--zoomable 173 -->
<svg id="main" version="1.1" xmlns="http://www.w3.org/2000/svg" xmlns:xlink="http://www.w3.org/1999/xlink" xml:space="preserve" onload="init(evt)">
<style type="text/css"><![CDATA[
.edge:hover path { stroke: red; }
.edge:hover polygon { stroke: red; fill: red; }
]]></style>
<script type="text/javascript"><![CDATA[
var edges = document.getElementsByTagName('g');
if (edges && edges.length) {
  for (var i=0;i<edges.length;i++) {
    if (edges[i].id.substr(0,4)=='edge') {
      edges[i].setAttribute('class','edge');
    }
  }
}
]]></script>
        <defs>
                <circle id="rim" cx="0" cy="0" r="7"/>
                <circle id="rim2" cx="0" cy="0" r="3.5"/>
                <g id="zoomPlus">
                        <use xlink:href="#rim" fill="#404040">
                                <set attributeName="fill" to="#808080" begin="zoomplus.mouseover" end="zoomplus.mouseout"/>
                        </use>
                        <path d="M-4,0h8M0,-4v8" fill="none" stroke="white" stroke-width="1.5" pointer-events="none"/>
                </g>
                <g id="zoomMin">
                        <use xlink:href="#rim" fill="#404040">
                                <set attributeName="fill" to="#808080" begin="zoomminus.mouseover" end="zoomminus.mouseout"/>
                        </use>
                        <path d="M-4,0h8" fill="none" stroke="white" stroke-width="1.5" pointer-events="none"/>
                </g>
                <g id="dirArrow">
                        <path fill="none" stroke="white" stroke-width="1.5" d="M0,-3.0v7 M-2.5,-0.5L0,-3.0L2.5,-0.5"/>
                </g>
               <g id="resetDef">
                       <use xlink:href="#rim2" fill="#404040">
                               <set attributeName="fill" to="#808080" begin="reset.mouseover" end="reset.mouseout"/>
                       </use>
               </g>
        </defs>

<script type="text/javascript">
var viewWidth = 2108;
var viewHeight = 173;
var sectionId = 'dynsection-1';
</script>
<script xlink:href="svgpan.js"/>
<svg id="graph" class="graph">
<g id="viewport">
<title>src/common/action/ButtonBar.hpp</title>
<polygon fill="white" stroke="transparent" points="-4,4 -4,-169 2104,-169 2104,4 -4,4"/>
<!-- Node1 -->
<g id="node1" class="node">
<title>Node1</title>
<g id="a_node1"><a xlink:title="Définition de la classe ButtonBar.">
<polygon fill="#bfbfbf" stroke="black" points="634.5,-134.5 634.5,-164.5 779.5,-164.5 779.5,-134.5 634.5,-134.5"/>
<text text-anchor="start" x="642.5" y="-152.5" font-family="Helvetica,sans-Serif" font-size="10.00">src/common/action/Button</text>
<text text-anchor="middle" x="707" y="-141.5" font-family="Helvetica,sans-Serif" font-size="10.00">Bar.hpp</text>
</a>
</g>
</g>
<!-- Node2 -->
<g id="node2" class="node">
<title>Node2</title>
<g id="a_node2"><a xlink:href="O__ButtonBarTest_8cpp.html" target="_top" xlink:title="Implémentation de la classe O_ButtonBarTest.">
<polygon fill="white" stroke="black" points="0,-0.5 0,-30.5 140,-30.5 140,-0.5 0,-0.5"/>
<text text-anchor="start" x="8" y="-18.5" font-family="Helvetica,sans-Serif" font-size="10.00">src/bot&#45;opos6ul/O_Button</text>
<text text-anchor="middle" x="70" y="-7.5" font-family="Helvetica,sans-Serif" font-size="10.00">BarTest.cpp</text>
</a>
</g>
</g>
<!-- Node1&#45;&gt;Node2 -->
<g id="edge1" class="edge">
<title>Node1&#45;&gt;Node2</title>
<path fill="none" stroke="midnightblue" d="M624.44,-134.8C568.12,-125.19 491.89,-111.66 425,-98 319.52,-76.46 197.33,-47.52 127.3,-30.56"/>
<polygon fill="midnightblue" stroke="midnightblue" points="623.92,-138.26 634.37,-136.49 625.1,-131.36 623.92,-138.26"/>
</g>
<!-- Node3 -->
<g id="node3" class="node">
<title>Node3</title>
<g id="a_node3"><a xlink:href="O__ServoStepTest_8cpp.html" target="_top" xlink:title=" ">
<polygon fill="white" stroke="black" points="158.5,-0.5 158.5,-30.5 315.5,-30.5 315.5,-0.5 158.5,-0.5"/>
<text text-anchor="start" x="166.5" y="-18.5" font-family="Helvetica,sans-Serif" font-size="10.00">src/bot&#45;opos6ul/O_ServoStep</text>
<text text-anchor="middle" x="237" y="-7.5" font-family="Helvetica,sans-Serif" font-size="10.00">Test.cpp</text>
</a>
</g>
</g>
<!-- Node1&#45;&gt;Node3 -->
<g id="edge2" class="edge">
<title>Node1&#45;&gt;Node3</title>
<path fill="none" stroke="midnightblue" d="M647.27,-131.72C553.7,-105.45 374.26,-55.05 287.05,-30.56"/>
<polygon fill="midnightblue" stroke="midnightblue" points="646.57,-135.16 657.15,-134.5 648.47,-128.43 646.57,-135.16"/>
</g>
<!-- Node4 -->
<g id="node4" class="node">
<title>Node4</title>
<g id="a_node4"><a xlink:href="OPOS6UL__ActionsExtended_8hpp.html" target="_top" xlink:title="Extension des actions du robot pour la carte OPOS6UL.">
<polygon fill="white" stroke="black" points="794,-67.5 794,-97.5 934,-97.5 934,-67.5 794,-67.5"/>
<text text-anchor="start" x="802" y="-85.5" font-family="Helvetica,sans-Serif" font-size="10.00">src/bot&#45;opos6ul/OPOS6UL</text>
<text text-anchor="middle" x="864" y="-74.5" font-family="Helvetica,sans-Serif" font-size="10.00">_ActionsExtended.hpp</text>
</a>
</g>
</g>
<!-- Node1&#45;&gt;Node4 -->
<g id="edge3" class="edge">
<title>Node1&#45;&gt;Node4</title>
<path fill="none" stroke="midnightblue" d="M750.37,-130.54C775.49,-120.14 806.66,-107.24 830,-97.58"/>
<polygon fill="midnightblue" stroke="midnightblue" points="748.97,-127.34 741.07,-134.4 751.64,-133.8 748.97,-127.34"/>
</g>
<!-- Node16 -->
<g id="node16" class="node">
<title>Node16</title>
<g id="a_node16"><a xlink:href="ButtonBar_8cpp.html" target="_top" xlink:title=" ">
<polygon fill="white" stroke="black" points="952.5,-67.5 952.5,-97.5 1097.5,-97.5 1097.5,-67.5 952.5,-67.5"/>
<text text-anchor="start" x="960.5" y="-85.5" font-family="Helvetica,sans-Serif" font-size="10.00">src/common/action/Button</text>
<text text-anchor="middle" x="1025" y="-74.5" font-family="Helvetica,sans-Serif" font-size="10.00">Bar.cpp</text>
</a>
</g>
</g>
<!-- Node1&#45;&gt;Node16 -->
<g id="edge17" class="edge">
<title>Node1&#45;&gt;Node16</title>
<path fill="none" stroke="midnightblue" d="M785.53,-132.45C837.88,-121.75 906.03,-107.82 956.24,-97.55"/>
<polygon fill="midnightblue" stroke="midnightblue" points="784.71,-129.04 775.61,-134.48 786.11,-135.9 784.71,-129.04"/>
</g>
<!-- Node4&#45;&gt;Node2 -->
<g id="edge5" class="edge">
<title>Node4&#45;&gt;Node2</title>
<path fill="none" stroke="midnightblue" d="M783.9,-78.74C651.39,-73.54 378.36,-60.06 149,-31 146.09,-30.63 143.13,-30.23 140.15,-29.79"/>
<polygon fill="midnightblue" stroke="midnightblue" points="783.84,-82.24 793.97,-79.14 784.11,-75.25 783.84,-82.24"/>
</g>
<!-- Node4&#45;&gt;Node3 -->
<g id="edge11" class="edge">
<title>Node4&#45;&gt;Node3</title>
<path fill="none" stroke="midnightblue" d="M783.65,-75.8C677.99,-67.89 486.66,-52.13 324,-31 321.27,-30.64 318.49,-30.27 315.68,-29.87"/>
<polygon fill="midnightblue" stroke="midnightblue" points="783.69,-79.31 793.92,-76.56 784.21,-72.33 783.69,-79.31"/>
</g>
<!-- Node5 -->
<g id="node5" class="node">
<title>Node5</title>
<g id="a_node5"><a xlink:href="O__ActionManagerTimerTest_8cpp.html" target="_top" xlink:title="Implémentation de la classe L_ActionManagerTimerTest.">
<polygon fill="white" stroke="black" points="1110,-0.5 1110,-30.5 1248,-30.5 1248,-0.5 1110,-0.5"/>
<text text-anchor="start" x="1118" y="-18.5" font-family="Helvetica,sans-Serif" font-size="10.00">src/bot&#45;opos6ul/O_Action</text>
<text text-anchor="middle" x="1179" y="-7.5" font-family="Helvetica,sans-Serif" font-size="10.00">ManagerTimerTest.cpp</text>
</a>
</g>
</g>
<!-- Node4&#45;&gt;Node5 -->
<g id="edge4" class="edge">
<title>Node4&#45;&gt;Node5</title>
<path fill="none" stroke="midnightblue" d="M941.78,-65.45C993.64,-54.75 1061.15,-40.82 1110.89,-30.55"/>
<polygon fill="midnightblue" stroke="midnightblue" points="941.05,-62.03 931.96,-67.48 942.46,-68.88 941.05,-62.03"/>
</g>
<!-- Node6 -->
<g id="node6" class="node">
<title>Node6</title>
<g id="a_node6"><a xlink:href="O__IAbyPathTest_8cpp.html" target="_top" xlink:title="Implementation de la classe O_IAByPathTest.">
<polygon fill="white" stroke="black" points="1266,-0.5 1266,-30.5 1416,-30.5 1416,-0.5 1266,-0.5"/>
<text text-anchor="start" x="1274" y="-18.5" font-family="Helvetica,sans-Serif" font-size="10.00">src/bot&#45;opos6ul/O_IAbyPath</text>
<text text-anchor="middle" x="1341" y="-7.5" font-family="Helvetica,sans-Serif" font-size="10.00">Test.cpp</text>
</a>
</g>
</g>
<!-- Node4&#45;&gt;Node6 -->
<g id="edge6" class="edge">
<title>Node4&#45;&gt;Node6</title>
<path fill="none" stroke="midnightblue" d="M944.44,-67.01C1084.26,-46.7 1121.64,-50.45 1257,-31 1259.93,-30.58 1262.91,-30.14 1265.93,-29.67"/>
<polygon fill="midnightblue" stroke="midnightblue" points="943.58,-63.6 934.2,-68.51 944.6,-70.52 943.58,-63.6"/>
</g>
<!-- Node7 -->
<g id="node7" class="node">
<title>Node7</title>
<g id="a_node7"><a xlink:href="O__LcdBoardTest_8cpp.html" target="_top" xlink:title="Implémentation de la classe O_LcdBoardTest.">
<polygon fill="white" stroke="black" points="1434,-0.5 1434,-30.5 1586,-30.5 1586,-0.5 1434,-0.5"/>
<text text-anchor="start" x="1442" y="-18.5" font-family="Helvetica,sans-Serif" font-size="10.00">src/bot&#45;opos6ul/O_LcdBoard</text>
<text text-anchor="middle" x="1510" y="-7.5" font-family="Helvetica,sans-Serif" font-size="10.00">Test.cpp</text>
</a>
</g>
</g>
<!-- Node4&#45;&gt;Node7 -->
<g id="edge7" class="edge">
<title>Node4&#45;&gt;Node7</title>
<path fill="none" stroke="midnightblue" d="M944.16,-67.09C1158.37,-40.36 1215.43,-56.66 1425,-31 1427.82,-30.65 1430.7,-30.28 1433.59,-29.88"/>
<polygon fill="midnightblue" stroke="midnightblue" points="943.66,-63.62 934.18,-68.35 944.54,-70.57 943.66,-63.62"/>
</g>
<!-- Node8 -->
<g id="node8" class="node">
<title>Node8</title>
<g id="a_node8"><a xlink:href="O__LedBarTest_8cpp.html" target="_top" xlink:title="Implementation de la classe O_LedBarTest.">
<polygon fill="white" stroke="black" points="1604.5,-0.5 1604.5,-30.5 1745.5,-30.5 1745.5,-0.5 1604.5,-0.5"/>
<text text-anchor="start" x="1612.5" y="-18.5" font-family="Helvetica,sans-Serif" font-size="10.00">src/bot&#45;opos6ul/O_LedBar</text>
<text text-anchor="middle" x="1675" y="-7.5" font-family="Helvetica,sans-Serif" font-size="10.00">Test.cpp</text>
</a>
</g>
</g>
<!-- Node4&#45;&gt;Node8 -->
<g id="edge8" class="edge">
<title>Node4&#45;&gt;Node8</title>
<path fill="none" stroke="midnightblue" d="M944.11,-67.11C1233.51,-33.8 1310.45,-64.52 1595,-31 1598.08,-30.64 1601.23,-30.23 1604.4,-29.79"/>
<polygon fill="midnightblue" stroke="midnightblue" points="943.69,-63.64 934.17,-68.27 944.5,-70.59 943.69,-63.64"/>
</g>
<!-- Node9 -->
<g id="node9" class="node">
<title>Node9</title>
<g id="a_node9"><a xlink:href="O__SensorsTest_8cpp.html" target="_top" xlink:title=" ">
<polygon fill="white" stroke="black" points="1764,-0.5 1764,-30.5 1910,-30.5 1910,-0.5 1764,-0.5"/>
<text text-anchor="start" x="1772" y="-18.5" font-family="Helvetica,sans-Serif" font-size="10.00">src/bot&#45;opos6ul/O_Sensors</text>
<text text-anchor="middle" x="1837" y="-7.5" font-family="Helvetica,sans-Serif" font-size="10.00">Test.cpp</text>
</a>
</g>
</g>
<!-- Node4&#45;&gt;Node9 -->
<g id="edge9" class="edge">
<title>Node4&#45;&gt;Node9</title>
<path fill="none" stroke="midnightblue" d="M944.34,-67.1C1304.31,-27.54 1399.7,-70.13 1755,-31 1757.87,-30.68 1760.8,-30.33 1763.75,-29.94"/>
<polygon fill="midnightblue" stroke="midnightblue" points="943.71,-63.65 934.16,-68.23 944.49,-70.6 943.71,-63.65"/>
</g>
<!-- Node10 -->
<g id="node10" class="node">
<title>Node10</title>
<g id="a_node10"><a xlink:href="O__ServoObjectsTest_8cpp.html" target="_top" xlink:title=" ">
<polygon fill="white" stroke="black" points="1928,-0.5 1928,-30.5 2100,-30.5 2100,-0.5 1928,-0.5"/>
<text text-anchor="start" x="1936" y="-18.5" font-family="Helvetica,sans-Serif" font-size="10.00">src/bot&#45;opos6ul/O_ServoObjects</text>
<text text-anchor="middle" x="2014" y="-7.5" font-family="Helvetica,sans-Serif" font-size="10.00">Test.cpp</text>
</a>
</g>
</g>
<!-- Node4&#45;&gt;Node10 -->
<g id="edge10" class="edge">
<title>Node4&#45;&gt;Node10</title>
<path fill="none" stroke="midnightblue" d="M944.11,-67.13C1376.81,-20.99 1490.56,-71.47 1919,-31 1921.91,-30.73 1924.86,-30.42 1927.84,-30.09"/>
<polygon fill="midnightblue" stroke="midnightblue" points="943.73,-63.65 934.16,-68.2 944.48,-70.61 943.73,-63.65"/>
</g>
<!-- Node11 -->
<g id="node11" class="node">
<title>Node11</title>
<g id="a_node11"><a xlink:href="O__State__Init_8cpp.html" target="_top" xlink:title=" ">
<polygon fill="white" stroke="black" points="333.5,-0.5 333.5,-30.5 466.5,-30.5 466.5,-0.5 333.5,-0.5"/>
<text text-anchor="start" x="341.5" y="-18.5" font-family="Helvetica,sans-Serif" font-size="10.00">src/bot&#45;opos6ul/O_State</text>
<text text-anchor="middle" x="400" y="-7.5" font-family="Helvetica,sans-Serif" font-size="10.00">_Init.cpp</text>
</a>
</g>
</g>
<!-- Node4&#45;&gt;Node11 -->
<g id="edge12" class="edge">
<title>Node4&#45;&gt;Node11</title>
<path fill="none" stroke="midnightblue" d="M783.41,-72.42C704.79,-63.23 581.91,-47.98 476,-31 472.95,-30.51 469.83,-29.99 466.69,-29.45"/>
<polygon fill="midnightblue" stroke="midnightblue" points="783.39,-75.94 793.73,-73.62 784.2,-68.99 783.39,-75.94"/>
</g>
<!-- Node12 -->
<g id="node12" class="node">
<title>Node12</title>
<g id="a_node12"><a xlink:href="O__State__WaitEndOfMatch_8cpp.html" target="_top" xlink:title=" ">
<polygon fill="white" stroke="black" points="484.5,-0.5 484.5,-30.5 617.5,-30.5 617.5,-0.5 484.5,-0.5"/>
<text text-anchor="start" x="492.5" y="-18.5" font-family="Helvetica,sans-Serif" font-size="10.00">src/bot&#45;opos6ul/O_State</text>
<text text-anchor="middle" x="551" y="-7.5" font-family="Helvetica,sans-Serif" font-size="10.00">_WaitEndOfMatch.cpp</text>
</a>
</g>
</g>
<!-- Node4&#45;&gt;Node12 -->
<g id="edge13" class="edge">
<title>Node4&#45;&gt;Node12</title>
<path fill="none" stroke="midnightblue" d="M786.64,-65.44C734.75,-54.66 667.1,-40.61 617.6,-30.33"/>
<polygon fill="midnightblue" stroke="midnightblue" points="785.97,-68.87 796.47,-67.48 787.39,-62.02 785.97,-68.87"/>
</g>
<!-- Node13 -->
<g id="node13" class="node">
<title>Node13</title>
<g id="a_node13"><a xlink:href="O__TiretteTest_8cpp.html" target="_top" xlink:title="Implémentation de la classe O_TiretteTest.">
<polygon fill="white" stroke="black" points="636,-0.5 636,-30.5 776,-30.5 776,-0.5 636,-0.5"/>
<text text-anchor="start" x="644" y="-18.5" font-family="Helvetica,sans-Serif" font-size="10.00">src/bot&#45;opos6ul/O_Tirette</text>
<text text-anchor="middle" x="706" y="-7.5" font-family="Helvetica,sans-Serif" font-size="10.00">Test.cpp</text>
</a>
</g>
</g>
<!-- Node4&#45;&gt;Node13 -->
<g id="edge14" class="edge">
<title>Node4&#45;&gt;Node13</title>
<path fill="none" stroke="midnightblue" d="M820.35,-63.54C795.07,-53.14 763.7,-40.24 740.22,-30.58"/>
<polygon fill="midnightblue" stroke="midnightblue" points="819.14,-66.83 829.72,-67.4 821.8,-60.35 819.14,-66.83"/>
</g>
<!-- Node14 -->
<g id="node14" class="node">
<title>Node14</title>
<g id="a_node14"><a xlink:href="OPOS6UL__ActionsExtended_8cpp.html" target="_top" xlink:title=" ">
<polygon fill="white" stroke="black" points="794,-0.5 794,-30.5 934,-30.5 934,-0.5 794,-0.5"/>
<text text-anchor="start" x="802" y="-18.5" font-family="Helvetica,sans-Serif" font-size="10.00">src/bot&#45;opos6ul/OPOS6UL</text>
<text text-anchor="middle" x="864" y="-7.5" font-family="Helvetica,sans-Serif" font-size="10.00">_ActionsExtended.cpp</text>
</a>
</g>
</g>
<!-- Node4&#45;&gt;Node14 -->
<g id="edge15" class="edge">
<title>Node4&#45;&gt;Node14</title>
<path fill="none" stroke="midnightblue" d="M864,-57.11C864,-48.15 864,-38.32 864,-30.58"/>
<polygon fill="midnightblue" stroke="midnightblue" points="860.5,-57.4 864,-67.4 867.5,-57.4 860.5,-57.4"/>
</g>
<!-- Node15 -->
<g id="node15" class="node">
<title>Node15</title>
<g id="a_node15"><a xlink:href="OPOS6UL__RobotExtended_8cpp.html" target="_top" xlink:title=" ">
<polygon fill="white" stroke="black" points="952,-0.5 952,-30.5 1092,-30.5 1092,-0.5 952,-0.5"/>
<text text-anchor="start" x="960" y="-18.5" font-family="Helvetica,sans-Serif" font-size="10.00">src/bot&#45;opos6ul/OPOS6UL</text>
<text text-anchor="middle" x="1022" y="-7.5" font-family="Helvetica,sans-Serif" font-size="10.00">_RobotExtended.cpp</text>
</a>
</g>
</g>
<!-- Node4&#45;&gt;Node15 -->
<g id="edge16" class="edge">
<title>Node4&#45;&gt;Node15</title>
<path fill="none" stroke="midnightblue" d="M907.65,-63.54C932.93,-53.14 964.3,-40.24 987.78,-30.58"/>
<polygon fill="midnightblue" stroke="midnightblue" points="906.2,-60.35 898.28,-67.4 908.86,-66.83 906.2,-60.35"/>
</g>
</g>
</svg>
        <g id="navigator" transform="translate(0 0)" fill="#404254">
                <rect fill="#f2f5e9" fill-opacity="0.5" stroke="#606060" stroke-width=".5" x="0" y="0" width="60" height="60"/>
                <use id="zoomplus" xlink:href="#zoomPlus" x="17" y="9" onmousedown="handleZoom(evt,'in')"/>
                <use id="zoomminus" xlink:href="#zoomMin" x="42" y="9" onmousedown="handleZoom(evt,'out')"/>
                <use id="reset" xlink:href="#resetDef" x="30" y="36" onmousedown="handleReset()"/>
                <g id="arrowUp" xlink:href="#dirArrow" transform="translate(30 24)" onmousedown="handlePan(0,-1)">
                  <use xlink:href="#rim" fill="#404040">
                        <set attributeName="fill" to="#808080" begin="arrowUp.mouseover" end="arrowUp.mouseout"/>
                  </use>
                  <path fill="none" stroke="white" stroke-width="1.5" d="M0,-3.0v7 M-2.5,-0.5L0,-3.0L2.5,-0.5"/>
                </g>
                <g id="arrowRight" xlink:href="#dirArrow" transform="rotate(90) translate(36 -43)" onmousedown="handlePan(1,0)">
                  <use xlink:href="#rim" fill="#404040">
                        <set attributeName="fill" to="#808080" begin="arrowRight.mouseover" end="arrowRight.mouseout"/>
                  </use>
                  <path fill="none" stroke="white" stroke-width="1.5" d="M0,-3.0v7 M-2.5,-0.5L0,-3.0L2.5,-0.5"/>
                </g>
                <g id="arrowDown" xlink:href="#dirArrow" transform="rotate(180) translate(-30 -48)" onmousedown="handlePan(0,1)">
                  <use xlink:href="#rim" fill="#404040">
                        <set attributeName="fill" to="#808080" begin="arrowDown.mouseover" end="arrowDown.mouseout"/>
                  </use>
                  <path fill="none" stroke="white" stroke-width="1.5" d="M0,-3.0v7 M-2.5,-0.5L0,-3.0L2.5,-0.5"/>
                </g>
                <g id="arrowLeft" xlink:href="#dirArrow" transform="rotate(270) translate(-36 17)" onmousedown="handlePan(-1,0)">
                  <use xlink:href="#rim" fill="#404040">
                        <set attributeName="fill" to="#808080" begin="arrowLeft.mouseover" end="arrowLeft.mouseout"/>
                  </use>
                  <path fill="none" stroke="white" stroke-width="1.5" d="M0,-3.0v7 M-2.5,-0.5L0,-3.0L2.5,-0.5"/>
                </g>
        </g>
        <svg viewBox="0 0 15 15" width="100%" height="30px" preserveAspectRatio="xMaxYMin meet">
         <g id="arrow_out" transform="scale(0.3 0.3)">
          <a xlink:href="ButtonBar_8hpp__dep__incl_org.svg" target="_base">
           <rect id="button" ry="5" rx="5" y="6" x="6" height="38" width="38"
                fill="#f2f5e9" fill-opacity="0.5" stroke="#606060" stroke-width="1.0"/>
           <path id="arrow"
             d="M 11.500037,31.436501 C 11.940474,20.09759 22.043105,11.32322 32.158766,21.979434 L 37.068811,17.246167 C 37.068811,17.246167 37.088388,32 37.088388,32 L 22.160133,31.978069 C 22.160133,31.978069 26.997745,27.140456 26.997745,27.140456 C 18.528582,18.264221 13.291696,25.230495 11.500037,31.436501 z"
             style="fill:#404040;"/>
          </a>
         </g>
        </svg>
</svg>
