<?xml version="1.0" encoding="UTF-8" standalone="no"?>
<!DOCTYPE svg PUBLIC "-//W3C//DTD SVG 1.1//EN"
 "http://www.w3.org/Graphics/SVG/1.1/DTD/svg11.dtd">
<!-- Generated by graphviz version 2.43.0 (0)
 -->
<!-- Title: test/common/ChronometerTest.cpp Pages: 1 -->
<svg width="673pt" height="386pt"
 viewBox="0.00 0.00 673.36 386.00" xmlns="http://www.w3.org/2000/svg" xmlns:xlink="http://www.w3.org/1999/xlink">
<g id="graph0" class="graph" transform="scale(1 1) rotate(0) translate(4 382)">
<title>test/common/ChronometerTest.cpp</title>
<polygon fill="white" stroke="transparent" points="-4,4 -4,-382 669.36,-382 669.36,4 -4,4"/>
<!-- Node1 -->
<g id="node1" class="node">
<title>Node1</title>
<g id="a_node1"><a xlink:title="Implémentation des tests de la classe utils::Chronometer.">
<polygon fill="#bfbfbf" stroke="black" points="413.36,-358.5 413.36,-377.5 601.36,-377.5 601.36,-358.5 413.36,-358.5"/>
<text text-anchor="middle" x="507.36" y="-365.5" font-family="Helvetica,sans-Serif" font-size="10.00">test/common/ChronometerTest.cpp</text>
</a>
</g>
</g>
<!-- Node2 -->
<g id="node2" class="node">
<title>Node2</title>
<g id="a_node2"><a xlink:href="ChronometerTest_8hpp.html" target="_top" xlink:title="Définition de la classe ChronometerTest.">
<polygon fill="white" stroke="black" points="147.86,-297 147.86,-316 268.86,-316 268.86,-297 147.86,-297"/>
<text text-anchor="middle" x="208.36" y="-304" font-family="Helvetica,sans-Serif" font-size="10.00">ChronometerTest.hpp</text>
</a>
</g>
</g>
<!-- Node1&#45;&gt;Node2 -->
<g id="edge1" class="edge">
<title>Node1&#45;&gt;Node2</title>
<path fill="none" stroke="midnightblue" d="M464.52,-358.48C410.9,-347.8 319.08,-329.53 261.17,-318.01"/>
<polygon fill="midnightblue" stroke="midnightblue" points="261.61,-314.53 251.12,-316.01 260.25,-321.39 261.61,-314.53"/>
</g>
<!-- Node9 -->
<g id="node9" class="node">
<title>Node9</title>
<g id="a_node9"><a xlink:title=" ">
<polygon fill="white" stroke="#bfbfbf" points="549.36,-56.5 549.36,-75.5 597.36,-75.5 597.36,-56.5 549.36,-56.5"/>
<text text-anchor="middle" x="573.36" y="-63.5" font-family="Helvetica,sans-Serif" font-size="10.00">thread</text>
</a>
</g>
</g>
<!-- Node1&#45;&gt;Node9 -->
<g id="edge24" class="edge">
<title>Node1&#45;&gt;Node9</title>
<path fill="none" stroke="midnightblue" d="M514.94,-358.28C530.67,-339.28 565.36,-292.13 565.36,-246 565.36,-246 565.36,-246 565.36,-182.5 565.36,-148.28 568.9,-108.5 571.27,-85.68"/>
<polygon fill="midnightblue" stroke="midnightblue" points="574.76,-86 572.35,-75.68 567.8,-85.25 574.76,-86"/>
</g>
<!-- Node12 -->
<g id="node12" class="node">
<title>Node12</title>
<g id="a_node12"><a xlink:title=" ">
<polygon fill="white" stroke="#bfbfbf" points="615.36,-56.5 615.36,-75.5 665.36,-75.5 665.36,-56.5 615.36,-56.5"/>
<text text-anchor="middle" x="640.36" y="-63.5" font-family="Helvetica,sans-Serif" font-size="10.00">chrono</text>
</a>
</g>
</g>
<!-- Node1&#45;&gt;Node12 -->
<g id="edge25" class="edge">
<title>Node1&#45;&gt;Node12</title>
<path fill="none" stroke="midnightblue" d="M526.32,-358.4C559.68,-341.82 625.36,-302.04 625.36,-246 625.36,-246 625.36,-246 625.36,-182.5 625.36,-148.08 631.99,-108.36 636.44,-85.61"/>
<polygon fill="midnightblue" stroke="midnightblue" points="639.9,-86.14 638.46,-75.64 633.04,-84.75 639.9,-86.14"/>
</g>
<!-- Node16 -->
<g id="node16" class="node">
<title>Node16</title>
<g id="a_node16"><a xlink:href="Chronometer_8hpp.html" target="_top" xlink:title="Définition de la classe Chronometer.">
<polygon fill="white" stroke="black" points="348.86,-291.5 348.86,-321.5 467.86,-321.5 467.86,-291.5 348.86,-291.5"/>
<text text-anchor="start" x="356.86" y="-309.5" font-family="Helvetica,sans-Serif" font-size="10.00">../../src/common/utils</text>
<text text-anchor="middle" x="408.36" y="-298.5" font-family="Helvetica,sans-Serif" font-size="10.00">/Chronometer.hpp</text>
</a>
</g>
</g>
<!-- Node1&#45;&gt;Node16 -->
<g id="edge21" class="edge">
<title>Node1&#45;&gt;Node16</title>
<path fill="none" stroke="midnightblue" d="M493.18,-358.48C479.52,-350.27 458.37,-337.56 440.61,-326.88"/>
<polygon fill="midnightblue" stroke="midnightblue" points="442.07,-323.67 431.69,-321.52 438.46,-329.67 442.07,-323.67"/>
</g>
<!-- Node3 -->
<g id="node3" class="node">
<title>Node3</title>
<g id="a_node3"><a xlink:href="UnitTest_8hpp.html" target="_top" xlink:title="Définition de la classe DevUnitTest.">
<polygon fill="white" stroke="black" points="63.86,-235.5 63.86,-254.5 176.86,-254.5 176.86,-235.5 63.86,-235.5"/>
<text text-anchor="middle" x="120.36" y="-242.5" font-family="Helvetica,sans-Serif" font-size="10.00">../suite/UnitTest.hpp</text>
</a>
</g>
</g>
<!-- Node2&#45;&gt;Node3 -->
<g id="edge2" class="edge">
<title>Node2&#45;&gt;Node3</title>
<path fill="none" stroke="midnightblue" d="M195.75,-296.98C181.64,-287.43 158.53,-271.81 141.61,-260.37"/>
<polygon fill="midnightblue" stroke="midnightblue" points="143.19,-257.21 132.95,-254.51 139.27,-263.01 143.19,-257.21"/>
</g>
<!-- Node4 -->
<g id="node4" class="node">
<title>Node4</title>
<g id="a_node4"><a xlink:title=" ">
<polygon fill="white" stroke="#bfbfbf" points="148.36,-0.5 148.36,-19.5 192.36,-19.5 192.36,-0.5 148.36,-0.5"/>
<text text-anchor="middle" x="170.36" y="-7.5" font-family="Helvetica,sans-Serif" font-size="10.00">string</text>
</a>
</g>
</g>
<!-- Node3&#45;&gt;Node4 -->
<g id="edge3" class="edge">
<title>Node3&#45;&gt;Node4</title>
<path fill="none" stroke="midnightblue" d="M102.14,-235.4C63.02,-215.7 -23.17,-164.87 6.36,-112 34.56,-61.51 99.51,-33.14 138.68,-20.05"/>
<polygon fill="midnightblue" stroke="midnightblue" points="139.83,-23.36 148.28,-16.98 137.69,-16.69 139.83,-23.36"/>
</g>
<!-- Node5 -->
<g id="node5" class="node">
<title>Node5</title>
<g id="a_node5"><a xlink:href="LoggerFactory_8hpp.html" target="_top" xlink:title="Définition de la classe LoggerFactory.">
<polygon fill="white" stroke="black" points="63.86,-168.5 63.86,-198.5 176.86,-198.5 176.86,-168.5 63.86,-168.5"/>
<text text-anchor="start" x="71.86" y="-186.5" font-family="Helvetica,sans-Serif" font-size="10.00">../../src/common/log</text>
<text text-anchor="middle" x="120.36" y="-175.5" font-family="Helvetica,sans-Serif" font-size="10.00">/LoggerFactory.hpp</text>
</a>
</g>
</g>
<!-- Node3&#45;&gt;Node5 -->
<g id="edge4" class="edge">
<title>Node3&#45;&gt;Node5</title>
<path fill="none" stroke="midnightblue" d="M120.36,-235.48C120.36,-228.47 120.36,-218.19 120.36,-208.7"/>
<polygon fill="midnightblue" stroke="midnightblue" points="123.86,-208.52 120.36,-198.52 116.86,-208.52 123.86,-208.52"/>
</g>
<!-- Node5&#45;&gt;Node4 -->
<g id="edge6" class="edge">
<title>Node5&#45;&gt;Node4</title>
<path fill="none" stroke="midnightblue" d="M115.89,-168.35C109.03,-144.01 98.51,-93.25 116.36,-56 122.52,-43.15 134.3,-32.66 145.29,-25.05"/>
<polygon fill="midnightblue" stroke="midnightblue" points="147.29,-27.92 153.81,-19.57 143.5,-22.03 147.29,-27.92"/>
</g>
<!-- Node6 -->
<g id="node6" class="node">
<title>Node6</title>
<g id="a_node6"><a xlink:title=" ">
<polygon fill="white" stroke="#bfbfbf" points="15.36,-112.5 15.36,-131.5 53.36,-131.5 53.36,-112.5 15.36,-112.5"/>
<text text-anchor="middle" x="34.36" y="-119.5" font-family="Helvetica,sans-Serif" font-size="10.00">map</text>
</a>
</g>
</g>
<!-- Node5&#45;&gt;Node6 -->
<g id="edge5" class="edge">
<title>Node5&#45;&gt;Node6</title>
<path fill="none" stroke="midnightblue" d="M99.98,-168.4C86.45,-159.04 68.75,-146.79 55.14,-137.38"/>
<polygon fill="midnightblue" stroke="midnightblue" points="57.09,-134.47 46.87,-131.66 53.11,-140.23 57.09,-134.47"/>
</g>
<!-- Node7 -->
<g id="node7" class="node">
<title>Node7</title>
<g id="a_node7"><a xlink:href="Thread_8hpp.html" target="_top" xlink:title="Définition de la classe Thread.">
<polygon fill="white" stroke="black" points="413.86,-112.5 413.86,-131.5 528.86,-131.5 528.86,-112.5 413.86,-112.5"/>
<text text-anchor="middle" x="471.36" y="-119.5" font-family="Helvetica,sans-Serif" font-size="10.00">../thread/Thread.hpp</text>
</a>
</g>
</g>
<!-- Node5&#45;&gt;Node7 -->
<g id="edge7" class="edge">
<title>Node5&#45;&gt;Node7</title>
<path fill="none" stroke="midnightblue" d="M177.15,-172.87C241.33,-161.99 345.39,-144.35 411.01,-133.23"/>
<polygon fill="midnightblue" stroke="midnightblue" points="411.93,-136.63 421.2,-131.5 410.76,-129.72 411.93,-136.63"/>
</g>
<!-- Node13 -->
<g id="node13" class="node">
<title>Node13</title>
<g id="a_node13"><a xlink:href="Logger_8hpp.html" target="_top" xlink:title="Définition de la classe Logger.">
<polygon fill="white" stroke="black" points="124.36,-112.5 124.36,-131.5 194.36,-131.5 194.36,-112.5 124.36,-112.5"/>
<text text-anchor="middle" x="159.36" y="-119.5" font-family="Helvetica,sans-Serif" font-size="10.00">Logger.hpp</text>
</a>
</g>
</g>
<!-- Node5&#45;&gt;Node13 -->
<g id="edge15" class="edge">
<title>Node5&#45;&gt;Node13</title>
<path fill="none" stroke="midnightblue" d="M129.6,-168.4C135.15,-159.93 142.25,-149.1 148.13,-140.14"/>
<polygon fill="midnightblue" stroke="midnightblue" points="151.13,-141.94 153.69,-131.66 145.28,-138.1 151.13,-141.94"/>
</g>
<!-- Node7&#45;&gt;Node4 -->
<g id="edge9" class="edge">
<title>Node7&#45;&gt;Node4</title>
<path fill="none" stroke="midnightblue" d="M447.86,-112.5C424.11,-103.78 386.42,-89.6 354.36,-76 334.96,-67.77 331,-63.66 311.36,-56 274.69,-41.69 231.42,-28.39 202.58,-20.02"/>
<polygon fill="midnightblue" stroke="midnightblue" points="203.22,-16.56 192.64,-17.16 201.29,-23.29 203.22,-16.56"/>
</g>
<!-- Node8 -->
<g id="node8" class="node">
<title>Node8</title>
<g id="a_node8"><a xlink:title=" ">
<polygon fill="white" stroke="#bfbfbf" points="427.86,-0.5 427.86,-19.5 490.86,-19.5 490.86,-0.5 427.86,-0.5"/>
<text text-anchor="middle" x="459.36" y="-7.5" font-family="Helvetica,sans-Serif" font-size="10.00">pthread.h</text>
</a>
</g>
</g>
<!-- Node7&#45;&gt;Node8 -->
<g id="edge8" class="edge">
<title>Node7&#45;&gt;Node8</title>
<path fill="none" stroke="midnightblue" d="M480.55,-112.33C492.42,-100.01 510.64,-76.66 502.36,-56 497.68,-44.33 488.37,-33.97 479.61,-26.14"/>
<polygon fill="midnightblue" stroke="midnightblue" points="481.79,-23.4 471.86,-19.7 477.31,-28.78 481.79,-23.4"/>
</g>
<!-- Node7&#45;&gt;Node9 -->
<g id="edge10" class="edge">
<title>Node7&#45;&gt;Node9</title>
<path fill="none" stroke="midnightblue" d="M487.75,-112.32C504.03,-103.7 529.23,-90.36 548.08,-80.39"/>
<polygon fill="midnightblue" stroke="midnightblue" points="549.81,-83.43 557.01,-75.65 546.54,-77.24 549.81,-83.43"/>
</g>
<!-- Node10 -->
<g id="node10" class="node">
<title>Node10</title>
<g id="a_node10"><a xlink:title=" ">
<polygon fill="white" stroke="#bfbfbf" points="449.36,-56.5 449.36,-75.5 493.36,-75.5 493.36,-56.5 449.36,-56.5"/>
<text text-anchor="middle" x="471.36" y="-63.5" font-family="Helvetica,sans-Serif" font-size="10.00">ctime</text>
</a>
</g>
</g>
<!-- Node7&#45;&gt;Node10 -->
<g id="edge11" class="edge">
<title>Node7&#45;&gt;Node10</title>
<path fill="none" stroke="midnightblue" d="M471.36,-112.08C471.36,-105.01 471.36,-94.86 471.36,-85.99"/>
<polygon fill="midnightblue" stroke="midnightblue" points="474.86,-85.75 471.36,-75.75 467.86,-85.75 474.86,-85.75"/>
</g>
<!-- Node11 -->
<g id="node11" class="node">
<title>Node11</title>
<g id="a_node11"><a xlink:href="Mutex_8hpp.html" target="_top" xlink:title="Définition de la classe Mutex.">
<polygon fill="white" stroke="black" points="363.36,-56.5 363.36,-75.5 431.36,-75.5 431.36,-56.5 363.36,-56.5"/>
<text text-anchor="middle" x="397.36" y="-63.5" font-family="Helvetica,sans-Serif" font-size="10.00">Mutex.hpp</text>
</a>
</g>
</g>
<!-- Node7&#45;&gt;Node11 -->
<g id="edge12" class="edge">
<title>Node7&#45;&gt;Node11</title>
<path fill="none" stroke="midnightblue" d="M459.47,-112.32C448.21,-104.11 431.07,-91.6 417.65,-81.81"/>
<polygon fill="midnightblue" stroke="midnightblue" points="419.61,-78.9 409.47,-75.83 415.48,-84.56 419.61,-78.9"/>
</g>
<!-- Node7&#45;&gt;Node12 -->
<g id="edge14" class="edge">
<title>Node7&#45;&gt;Node12</title>
<path fill="none" stroke="midnightblue" d="M498.14,-112.44C527.2,-103.16 573.7,-88.3 605.57,-78.12"/>
<polygon fill="midnightblue" stroke="midnightblue" points="606.9,-81.37 615.36,-74.99 604.77,-74.7 606.9,-81.37"/>
</g>
<!-- Node11&#45;&gt;Node8 -->
<g id="edge13" class="edge">
<title>Node11&#45;&gt;Node8</title>
<path fill="none" stroke="midnightblue" d="M407.32,-56.32C416.49,-48.34 430.3,-36.31 441.39,-26.65"/>
<polygon fill="midnightblue" stroke="midnightblue" points="443.98,-29.04 449.22,-19.83 439.38,-23.76 443.98,-29.04"/>
</g>
<!-- Node13&#45;&gt;Node4 -->
<g id="edge17" class="edge">
<title>Node13&#45;&gt;Node4</title>
<path fill="none" stroke="midnightblue" d="M148.59,-112.48C134.65,-100.35 113.17,-77.21 122.36,-56 127.63,-43.84 137.98,-33.46 147.73,-25.74"/>
<polygon fill="midnightblue" stroke="midnightblue" points="150.01,-28.41 155.99,-19.67 145.86,-22.77 150.01,-28.41"/>
</g>
<!-- Node13&#45;&gt;Node11 -->
<g id="edge18" class="edge">
<title>Node13&#45;&gt;Node11</title>
<path fill="none" stroke="midnightblue" d="M194.48,-113.03C236.67,-103.46 307.5,-87.39 353.31,-76.99"/>
<polygon fill="midnightblue" stroke="midnightblue" points="354.28,-80.36 363.26,-74.74 352.73,-73.54 354.28,-80.36"/>
</g>
<!-- Node14 -->
<g id="node14" class="node">
<title>Node14</title>
<g id="a_node14"><a xlink:title=" ">
<polygon fill="white" stroke="#bfbfbf" points="131.36,-56.5 131.36,-75.5 187.36,-75.5 187.36,-56.5 131.36,-56.5"/>
<text text-anchor="middle" x="159.36" y="-63.5" font-family="Helvetica,sans-Serif" font-size="10.00">sstream</text>
</a>
</g>
</g>
<!-- Node13&#45;&gt;Node14 -->
<g id="edge16" class="edge">
<title>Node13&#45;&gt;Node14</title>
<path fill="none" stroke="midnightblue" d="M159.36,-112.08C159.36,-105.01 159.36,-94.86 159.36,-85.99"/>
<polygon fill="midnightblue" stroke="midnightblue" points="162.86,-85.75 159.36,-75.75 155.86,-85.75 162.86,-85.75"/>
</g>
<!-- Node15 -->
<g id="node15" class="node">
<title>Node15</title>
<g id="a_node15"><a xlink:href="Level_8hpp.html" target="_top" xlink:title="Définition de la classe Level.">
<polygon fill="white" stroke="black" points="205.36,-56.5 205.36,-75.5 269.36,-75.5 269.36,-56.5 205.36,-56.5"/>
<text text-anchor="middle" x="237.36" y="-63.5" font-family="Helvetica,sans-Serif" font-size="10.00">Level.hpp</text>
</a>
</g>
</g>
<!-- Node13&#45;&gt;Node15 -->
<g id="edge19" class="edge">
<title>Node13&#45;&gt;Node15</title>
<path fill="none" stroke="midnightblue" d="M171.89,-112.32C183.95,-103.98 202.39,-91.21 216.63,-81.35"/>
<polygon fill="midnightblue" stroke="midnightblue" points="218.63,-84.22 224.86,-75.65 214.65,-78.47 218.63,-84.22"/>
</g>
<!-- Node15&#45;&gt;Node4 -->
<g id="edge20" class="edge">
<title>Node15&#45;&gt;Node4</title>
<path fill="none" stroke="midnightblue" d="M226.6,-56.32C216.6,-48.26 201.47,-36.08 189.43,-26.37"/>
<polygon fill="midnightblue" stroke="midnightblue" points="191.3,-23.38 181.32,-19.83 186.91,-28.83 191.3,-23.38"/>
</g>
<!-- Node16&#45;&gt;Node4 -->
<g id="edge23" class="edge">
<title>Node16&#45;&gt;Node4</title>
<path fill="none" stroke="midnightblue" d="M381.49,-291.48C348.64,-272.18 297.36,-234.1 297.36,-184.5 297.36,-184.5 297.36,-184.5 297.36,-121 297.36,-90.9 298.44,-78.42 278.36,-56 258.68,-34.02 226.57,-22.49 202.46,-16.64"/>
<polygon fill="midnightblue" stroke="midnightblue" points="203.2,-13.22 192.68,-14.46 201.68,-20.05 203.2,-13.22"/>
</g>
<!-- Node17 -->
<g id="node17" class="node">
<title>Node17</title>
<g id="a_node17"><a xlink:title=" ">
<polygon fill="white" stroke="#bfbfbf" points="374.36,-235.5 374.36,-254.5 442.36,-254.5 442.36,-235.5 374.36,-235.5"/>
<text text-anchor="middle" x="408.36" y="-242.5" font-family="Helvetica,sans-Serif" font-size="10.00">sys/time.h</text>
</a>
</g>
</g>
<!-- Node16&#45;&gt;Node17 -->
<g id="edge22" class="edge">
<title>Node16&#45;&gt;Node17</title>
<path fill="none" stroke="midnightblue" d="M408.36,-291.4C408.36,-283.47 408.36,-273.46 408.36,-264.86"/>
<polygon fill="midnightblue" stroke="midnightblue" points="411.86,-264.66 408.36,-254.66 404.86,-264.66 411.86,-264.66"/>
</g>
</g>
</svg>
