<?xml version="1.0" encoding="UTF-8" standalone="no"?>
<!DOCTYPE svg PUBLIC "-//W3C//DTD SVG 1.1//EN"
 "http://www.w3.org/Graphics/SVG/1.1/DTD/svg11.dtd">
<!-- Generated by graphviz version 2.43.0 (0)
 -->
<!-- Title: AServoDriver::setType Pages: 1 -->
<svg width="478pt" height="39pt"
 viewBox="0.00 0.00 478.00 39.00" xmlns="http://www.w3.org/2000/svg" xmlns:xlink="http://www.w3.org/1999/xlink">
<g id="graph0" class="graph" transform="scale(1 1) rotate(0) translate(4 35)">
<title>AServoDriver::setType</title>
<polygon fill="white" stroke="transparent" points="-4,4 -4,-35 474,-35 474,4 -4,4"/>
<!-- Node1 -->
<g id="node1" class="node">
<title>Node1</title>
<g id="a_node1"><a xlink:title="Definit le type de servo.">
<polygon fill="#bfbfbf" stroke="black" points="345,-6 345,-25 470,-25 470,-6 345,-6"/>
<text text-anchor="middle" x="407.5" y="-13" font-family="Helvetica,sans-Serif" font-size="10.00">AServoDriver::setType</text>
</a>
</g>
</g>
<!-- Node2 -->
<g id="node2" class="node">
<title>Node2</title>
<g id="a_node2"><a xlink:href="classServoObjectsSystem.html#a9c3a5d35163d012d690f80da160b7f25" target="_top" xlink:title="setup 1 servo with type, min, mid, max, inv values.">
<polygon fill="white" stroke="black" points="191,-0.5 191,-30.5 309,-30.5 309,-0.5 191,-0.5"/>
<text text-anchor="start" x="199" y="-18.5" font-family="Helvetica,sans-Serif" font-size="10.00">ServoObjectsSystem</text>
<text text-anchor="middle" x="250" y="-7.5" font-family="Helvetica,sans-Serif" font-size="10.00">::setup</text>
</a>
</g>
</g>
<!-- Node1&#45;&gt;Node2 -->
<g id="edge1" class="edge">
<title>Node1&#45;&gt;Node2</title>
<path fill="none" stroke="midnightblue" d="M334.36,-15.5C325.91,-15.5 317.38,-15.5 309.15,-15.5"/>
<polygon fill="midnightblue" stroke="midnightblue" points="334.6,-19 344.6,-15.5 334.6,-12 334.6,-19"/>
</g>
<!-- Node3 -->
<g id="node3" class="node">
<title>Node3</title>
<g id="a_node3"><a xlink:href="classOPOS6UL__ActionsExtended.html#aced00f2c03b0aa9b9eda54e6874bac75" target="_top" xlink:title=" ">
<polygon fill="white" stroke="black" points="0,-0.5 0,-30.5 155,-30.5 155,-0.5 0,-0.5"/>
<text text-anchor="start" x="8" y="-18.5" font-family="Helvetica,sans-Serif" font-size="10.00">OPOS6UL_ActionsExtended</text>
<text text-anchor="middle" x="77.5" y="-7.5" font-family="Helvetica,sans-Serif" font-size="10.00">::OPOS6UL_ActionsExtended</text>
</a>
</g>
</g>
<!-- Node2&#45;&gt;Node3 -->
<g id="edge2" class="edge">
<title>Node2&#45;&gt;Node3</title>
<path fill="none" stroke="midnightblue" d="M180.69,-15.5C172.28,-15.5 163.65,-15.5 155.13,-15.5"/>
<polygon fill="midnightblue" stroke="midnightblue" points="180.8,-19 190.8,-15.5 180.8,-12 180.8,-19"/>
</g>
</g>
</svg>
