<?xml version="1.0" encoding="UTF-8" standalone="no"?>
<!DOCTYPE svg PUBLIC "-//W3C//DTD SVG 1.1//EN"
 "http://www.w3.org/Graphics/SVG/1.1/DTD/svg11.dtd">
<!-- Generated by graphviz version 2.43.0 (0)
 -->
<!-- Title: AsservEsialR::odo_SetPosition Pages: 1 -->
<svg width="590pt" height="268pt"
 viewBox="0.00 0.00 590.00 267.50" xmlns="http://www.w3.org/2000/svg" xmlns:xlink="http://www.w3.org/1999/xlink">
<g id="graph0" class="graph" transform="scale(1 1) rotate(0) translate(4 263.5)">
<title>AsservEsialR::odo_SetPosition</title>
<polygon fill="white" stroke="transparent" points="-4,4 -4,-263.5 586,-263.5 586,4 -4,4"/>
<!-- Node1 -->
<g id="node1" class="node">
<title>Node1</title>
<g id="a_node1"><a xlink:title="Definit la position courante du robot (recalage).">
<polygon fill="#bfbfbf" stroke="black" points="0,-114.5 0,-133.5 164,-133.5 164,-114.5 0,-114.5"/>
<text text-anchor="middle" x="82" y="-121.5" font-family="Helvetica,sans-Serif" font-size="10.00">AsservEsialR::odo_SetPosition</text>
</a>
</g>
</g>
<!-- Node2 -->
<g id="node2" class="node">
<title>Node2</title>
<g id="a_node2"><a xlink:href="classCommandManagerA.html#a3d4499244b1f7548c0889974a16b402b" target="_top" xlink:title=" ">
<polygon fill="white" stroke="black" points="200,-229 200,-259 388,-259 388,-229 200,-229"/>
<text text-anchor="start" x="208" y="-247" font-family="Helvetica,sans-Serif" font-size="10.00">CommandManagerA::getCommand</text>
<text text-anchor="middle" x="294" y="-236" font-family="Helvetica,sans-Serif" font-size="10.00">Status</text>
</a>
</g>
</g>
<!-- Node1&#45;&gt;Node2 -->
<g id="edge1" class="edge">
<title>Node1&#45;&gt;Node2</title>
<path fill="none" stroke="midnightblue" d="M92.02,-133.66C110.46,-152.82 154.56,-195.79 200,-219 204.54,-221.32 209.31,-223.44 214.2,-225.37"/>
<polygon fill="midnightblue" stroke="midnightblue" points="213.12,-228.71 223.72,-228.88 215.54,-222.14 213.12,-228.71"/>
</g>
<!-- Node3 -->
<g id="node3" class="node">
<title>Node3</title>
<g id="a_node3"><a xlink:href="classutils_1_1Mutex.html#aa584b418a5ef484f76b93e361a1d7e32" target="_top" xlink:title="Verrouille le mutex. Cette méthode doit être appelée avant d&#39;utiliser la ressource associée....">
<polygon fill="white" stroke="black" points="243.5,-190.5 243.5,-209.5 344.5,-209.5 344.5,-190.5 243.5,-190.5"/>
<text text-anchor="middle" x="294" y="-197.5" font-family="Helvetica,sans-Serif" font-size="10.00">utils::Mutex::lock</text>
</a>
</g>
</g>
<!-- Node1&#45;&gt;Node3 -->
<g id="edge2" class="edge">
<title>Node1&#45;&gt;Node3</title>
<path fill="none" stroke="midnightblue" d="M99.48,-133.69C121.63,-146.32 162.56,-168.28 200,-181 210.51,-184.57 221.93,-187.58 233.06,-190.07"/>
<polygon fill="midnightblue" stroke="midnightblue" points="232.64,-193.56 243.15,-192.22 234.1,-186.71 232.64,-193.56"/>
</g>
<!-- Node4 -->
<g id="node4" class="node">
<title>Node4</title>
<g id="a_node4"><a xlink:href="classUtils.html#a6bc578bdb5abe75a1fedab43d909b2b6" target="_top" xlink:title=" ">
<polygon fill="white" stroke="black" points="249,-152.5 249,-171.5 339,-171.5 339,-152.5 249,-152.5"/>
<text text-anchor="middle" x="294" y="-159.5" font-family="Helvetica,sans-Serif" font-size="10.00">Utils::mmToUO</text>
</a>
</g>
</g>
<!-- Node1&#45;&gt;Node4 -->
<g id="edge3" class="edge">
<title>Node1&#45;&gt;Node4</title>
<path fill="none" stroke="midnightblue" d="M135.72,-133.54C167.19,-139.23 207.06,-146.45 238.78,-152.19"/>
<polygon fill="midnightblue" stroke="midnightblue" points="238.31,-155.66 248.78,-154 239.56,-148.77 238.31,-155.66"/>
</g>
<!-- Node6 -->
<g id="node6" class="node">
<title>Node6</title>
<g id="a_node6"><a xlink:href="classOdometrie.html#a1d519f6e29460da12962ad32ed68b600" target="_top" xlink:title=" ">
<polygon fill="white" stroke="black" points="235.5,-114.5 235.5,-133.5 352.5,-133.5 352.5,-114.5 235.5,-114.5"/>
<text text-anchor="middle" x="294" y="-121.5" font-family="Helvetica,sans-Serif" font-size="10.00">Odometrie::setTheta</text>
</a>
</g>
</g>
<!-- Node1&#45;&gt;Node6 -->
<g id="edge5" class="edge">
<title>Node1&#45;&gt;Node6</title>
<path fill="none" stroke="midnightblue" d="M164.19,-124C184.44,-124 205.93,-124 225.44,-124"/>
<polygon fill="midnightblue" stroke="midnightblue" points="225.45,-127.5 235.45,-124 225.45,-120.5 225.45,-127.5"/>
</g>
<!-- Node7 -->
<g id="node7" class="node">
<title>Node7</title>
<g id="a_node7"><a xlink:href="classOdometrie.html#a182a36acd6ada0cc666ffed7cb63ecce" target="_top" xlink:title=" ">
<polygon fill="white" stroke="black" points="246,-76.5 246,-95.5 342,-95.5 342,-76.5 246,-76.5"/>
<text text-anchor="middle" x="294" y="-83.5" font-family="Helvetica,sans-Serif" font-size="10.00">Odometrie::setX</text>
</a>
</g>
</g>
<!-- Node1&#45;&gt;Node7 -->
<g id="edge6" class="edge">
<title>Node1&#45;&gt;Node7</title>
<path fill="none" stroke="midnightblue" d="M135.72,-114.46C166.31,-108.93 204.84,-101.95 236.11,-96.29"/>
<polygon fill="midnightblue" stroke="midnightblue" points="236.77,-99.73 245.99,-94.51 235.53,-92.84 236.77,-99.73"/>
</g>
<!-- Node8 -->
<g id="node8" class="node">
<title>Node8</title>
<g id="a_node8"><a xlink:href="classOdometrie.html#a3543e2a17fce781aae27247a93597c9a" target="_top" xlink:title=" ">
<polygon fill="white" stroke="black" points="246.5,-38.5 246.5,-57.5 341.5,-57.5 341.5,-38.5 246.5,-38.5"/>
<text text-anchor="middle" x="294" y="-45.5" font-family="Helvetica,sans-Serif" font-size="10.00">Odometrie::setY</text>
</a>
</g>
</g>
<!-- Node1&#45;&gt;Node8 -->
<g id="edge7" class="edge">
<title>Node1&#45;&gt;Node8</title>
<path fill="none" stroke="midnightblue" d="M99.48,-114.31C121.63,-101.68 162.56,-79.72 200,-67 211.46,-63.11 224,-59.89 236.05,-57.27"/>
<polygon fill="midnightblue" stroke="midnightblue" points="236.94,-60.66 246.03,-55.21 235.53,-53.8 236.94,-60.66"/>
</g>
<!-- Node9 -->
<g id="node9" class="node">
<title>Node9</title>
<g id="a_node9"><a xlink:href="classutils_1_1Mutex.html#a59b2079dc7f803d49f78ac9c04406cd3" target="_top" xlink:title="Déverrouille le mutex. Cette méthode doit être appelée après avoir utiliser la ressource associée.">
<polygon fill="white" stroke="black" points="237.5,-0.5 237.5,-19.5 350.5,-19.5 350.5,-0.5 237.5,-0.5"/>
<text text-anchor="middle" x="294" y="-7.5" font-family="Helvetica,sans-Serif" font-size="10.00">utils::Mutex::unlock</text>
</a>
</g>
</g>
<!-- Node1&#45;&gt;Node9 -->
<g id="edge8" class="edge">
<title>Node1&#45;&gt;Node9</title>
<path fill="none" stroke="midnightblue" d="M91.63,-114.4C109.69,-94.96 153.64,-50.93 200,-29 208.62,-24.92 218.1,-21.72 227.61,-19.2"/>
<polygon fill="midnightblue" stroke="midnightblue" points="228.59,-22.56 237.49,-16.81 226.95,-15.76 228.59,-22.56"/>
</g>
<!-- Node5 -->
<g id="node5" class="node">
<title>Node5</title>
<g id="a_node5"><a xlink:href="classOdometrie.html#a97f3023787b53a05f789770a56a791be" target="_top" xlink:title=" ">
<polygon fill="white" stroke="black" points="424,-152.5 424,-171.5 582,-171.5 582,-152.5 424,-152.5"/>
<text text-anchor="middle" x="503" y="-159.5" font-family="Helvetica,sans-Serif" font-size="10.00">Odometrie::getFrontParMetre</text>
</a>
</g>
</g>
<!-- Node4&#45;&gt;Node5 -->
<g id="edge4" class="edge">
<title>Node4&#45;&gt;Node5</title>
<path fill="none" stroke="midnightblue" d="M339.15,-162C360.85,-162 387.81,-162 413.5,-162"/>
<polygon fill="midnightblue" stroke="midnightblue" points="413.65,-165.5 423.65,-162 413.65,-158.5 413.65,-165.5"/>
</g>
</g>
</svg>
