<?xml version="1.0" encoding="UTF-8" standalone="no"?>
<!DOCTYPE svg PUBLIC "-//W3C//DTD SVG 1.1//EN"
 "http://www.w3.org/Graphics/SVG/1.1/DTD/svg11.dtd">
<!-- Generated by graphviz version 2.43.0 (0)
 -->
<!-- Title: Robot::logger Pages: 1 -->
<svg width="615pt" height="441pt"
 viewBox="0.00 0.00 615.00 440.50" xmlns="http://www.w3.org/2000/svg" xmlns:xlink="http://www.w3.org/1999/xlink">
<g id="graph0" class="graph" transform="scale(1 1) rotate(0) translate(4 436.5)">
<title>Robot::logger</title>
<polygon fill="white" stroke="transparent" points="-4,4 -4,-436.5 611,-436.5 611,4 -4,4"/>
<!-- Node1 -->
<g id="node1" class="node">
<title>Node1</title>
<g id="a_node1"><a xlink:title="Retourne le Logger associe a la classe Robot. public car utilise dans Main.">
<polygon fill="#bfbfbf" stroke="black" points="525,-233 525,-252 607,-252 607,-233 525,-233"/>
<text text-anchor="middle" x="566" y="-240" font-family="Helvetica,sans-Serif" font-size="10.00">Robot::logger</text>
</a>
</g>
</g>
<!-- Node2 -->
<g id="node2" class="node">
<title>Node2</title>
<g id="a_node2"><a xlink:href="classRobot.html#ae8cede2564e5b9229da095991c064ae4" target="_top" xlink:title="Start the robot (console for tests or main program)..">
<polygon fill="white" stroke="black" points="372.5,-413 372.5,-432 450.5,-432 450.5,-413 372.5,-413"/>
<text text-anchor="middle" x="411.5" y="-420" font-family="Helvetica,sans-Serif" font-size="10.00">Robot::begin</text>
</a>
</g>
</g>
<!-- Node1&#45;&gt;Node2 -->
<g id="edge1" class="edge">
<title>Node1&#45;&gt;Node2</title>
<path fill="none" stroke="midnightblue" d="M561.35,-262.38C554,-296.6 534.1,-366.53 489,-403.5 478.2,-412.35 463.87,-417.16 450.52,-419.75"/>
<polygon fill="midnightblue" stroke="midnightblue" points="564.85,-262.73 563.38,-252.24 557.99,-261.36 564.85,-262.73"/>
</g>
<!-- Node5 -->
<g id="node5" class="node">
<title>Node5</title>
<g id="a_node5"><a xlink:href="classRobot.html#a91607f9ec65e768636015e1e9ed71b3f" target="_top" xlink:title=" ">
<polygon fill="white" stroke="black" points="347,-299 347,-318 476,-318 476,-299 347,-299"/>
<text text-anchor="middle" x="411.5" y="-306" font-family="Helvetica,sans-Serif" font-size="10.00">Robot::displayObstacle</text>
</a>
</g>
</g>
<!-- Node1&#45;&gt;Node5 -->
<g id="edge4" class="edge">
<title>Node1&#45;&gt;Node5</title>
<path fill="none" stroke="midnightblue" d="M543.85,-258.07C529.12,-268.28 508.65,-281.22 489,-289.5 480.05,-293.27 470.17,-296.41 460.58,-298.98"/>
<polygon fill="midnightblue" stroke="midnightblue" points="546.09,-260.77 552.22,-252.14 542.04,-255.06 546.09,-260.77"/>
</g>
<!-- Node7 -->
<g id="node7" class="node">
<title>Node7</title>
<g id="a_node7"><a xlink:href="classRobot.html#a7fbd102d7898ba33eecae47cfec530fa" target="_top" xlink:title=" ">
<polygon fill="white" stroke="black" points="362.5,-375 362.5,-394 460.5,-394 460.5,-375 362.5,-375"/>
<text text-anchor="middle" x="411.5" y="-382" font-family="Helvetica,sans-Serif" font-size="10.00">Robot::displayTS</text>
</a>
</g>
</g>
<!-- Node1&#45;&gt;Node7 -->
<g id="edge6" class="edge">
<title>Node1&#45;&gt;Node7</title>
<path fill="none" stroke="midnightblue" d="M557.65,-261.57C546.64,-287.67 523.41,-334.27 489,-360.5 480.7,-366.83 470.69,-371.51 460.7,-374.96"/>
<polygon fill="midnightblue" stroke="midnightblue" points="561,-262.64 561.51,-252.05 554.51,-260.01 561,-262.64"/>
</g>
<!-- Node8 -->
<g id="node8" class="node">
<title>Node8</title>
<g id="a_node8"><a xlink:href="classRobot.html#a7c2c32badf138c2a26b82068447c3c98" target="_top" xlink:title="Fonctions de motion intelligente en plusieurs essais.">
<polygon fill="white" stroke="black" points="171.5,-345 171.5,-364 282.5,-364 282.5,-345 171.5,-345"/>
<text text-anchor="middle" x="227" y="-352" font-family="Helvetica,sans-Serif" font-size="10.00">Robot::whileDoLine</text>
</a>
</g>
</g>
<!-- Node1&#45;&gt;Node8 -->
<g id="edge20" class="edge">
<title>Node1&#45;&gt;Node8</title>
<path fill="none" stroke="midnightblue" d="M554.42,-260.87C541.7,-281.02 518.37,-312.5 489,-327.5 423.88,-360.75 337.83,-362.92 282.68,-359.91"/>
<polygon fill="midnightblue" stroke="midnightblue" points="557.45,-262.62 559.64,-252.25 551.46,-258.99 557.45,-262.62"/>
</g>
<!-- Node9 -->
<g id="node9" class="node">
<title>Node9</title>
<g id="a_node9"><a xlink:href="classO__State__DecisionMakerIA.html#a96d1f2a7618d607fd10cc51b9111e653" target="_top" xlink:title="Execute l&#39;action.">
<polygon fill="white" stroke="black" points="340.5,-249.5 340.5,-279.5 482.5,-279.5 482.5,-249.5 340.5,-249.5"/>
<text text-anchor="start" x="348.5" y="-267.5" font-family="Helvetica,sans-Serif" font-size="10.00">O_State_DecisionMakerIA</text>
<text text-anchor="middle" x="411.5" y="-256.5" font-family="Helvetica,sans-Serif" font-size="10.00">::execute</text>
</a>
</g>
</g>
<!-- Node1&#45;&gt;Node9 -->
<g id="edge8" class="edge">
<title>Node1&#45;&gt;Node9</title>
<path fill="none" stroke="midnightblue" d="M514.9,-249.73C504.58,-251.22 493.54,-252.81 482.67,-254.38"/>
<polygon fill="midnightblue" stroke="midnightblue" points="515.53,-253.17 524.93,-248.28 514.54,-246.24 515.53,-253.17"/>
</g>
<!-- Node10 -->
<g id="node10" class="node">
<title>Node10</title>
<g id="a_node10"><a xlink:href="classRobot.html#a3a26291a86ba55cd33e173e70bf5ce5d" target="_top" xlink:title="Parse console parameters (console for tests or main program)..">
<polygon fill="white" stroke="black" points="157.5,-173 157.5,-192 296.5,-192 296.5,-173 157.5,-173"/>
<text text-anchor="middle" x="227" y="-180" font-family="Helvetica,sans-Serif" font-size="10.00">Robot::parseConsoleArgs</text>
</a>
</g>
</g>
<!-- Node1&#45;&gt;Node10 -->
<g id="edge9" class="edge">
<title>Node1&#45;&gt;Node10</title>
<path fill="none" stroke="midnightblue" d="M542.72,-227.21C528.12,-218.05 508.24,-207.11 489,-201.5 425.65,-183.03 350.16,-179.4 296.71,-179.72"/>
<polygon fill="midnightblue" stroke="midnightblue" points="541.19,-230.4 551.49,-232.91 545,-224.53 541.19,-230.4"/>
</g>
<!-- Node11 -->
<g id="node11" class="node">
<title>Node11</title>
<g id="a_node11"><a xlink:href="classRobot.html#afcfbfb8298b846a516f749c0bd087610" target="_top" xlink:title=" ">
<polygon fill="white" stroke="black" points="334,-211 334,-230 489,-230 489,-211 334,-211"/>
<text text-anchor="middle" x="411.5" y="-218" font-family="Helvetica,sans-Serif" font-size="10.00">Robot::resetDisplayObstacle</text>
</a>
</g>
</g>
<!-- Node1&#45;&gt;Node11 -->
<g id="edge11" class="edge">
<title>Node1&#45;&gt;Node11</title>
<path fill="none" stroke="midnightblue" d="M514.97,-235.28C503.33,-233.6 490.76,-231.79 478.54,-230.03"/>
<polygon fill="midnightblue" stroke="midnightblue" points="514.54,-238.76 524.93,-236.72 515.53,-231.83 514.54,-238.76"/>
</g>
<!-- Node12 -->
<g id="node12" class="node">
<title>Node12</title>
<g id="a_node12"><a xlink:href="classRobot.html#a460232bc7b2485ccd6bf3006566da322" target="_top" xlink:title=" ">
<polygon fill="white" stroke="black" points="349,-135 349,-154 474,-154 474,-135 349,-135"/>
<text text-anchor="middle" x="411.5" y="-142" font-family="Helvetica,sans-Serif" font-size="10.00">Robot::resetDisplayTS</text>
</a>
</g>
</g>
<!-- Node1&#45;&gt;Node12 -->
<g id="edge13" class="edge">
<title>Node1&#45;&gt;Node12</title>
<path fill="none" stroke="midnightblue" d="M551.2,-224.95C537.19,-208.23 514.05,-183.45 489,-168.5 478.72,-162.37 466.71,-157.64 455.3,-154.08"/>
<polygon fill="midnightblue" stroke="midnightblue" points="548.63,-227.33 557.66,-232.86 554.05,-222.9 548.63,-227.33"/>
</g>
<!-- Node13 -->
<g id="node13" class="node">
<title>Node13</title>
<g id="a_node13"><a xlink:href="classRobot.html#a46c797e9dba7c96927fa881851309bf0" target="_top" xlink:title=" ">
<polygon fill="white" stroke="black" points="335,-85.5 335,-115.5 488,-115.5 488,-85.5 335,-85.5"/>
<text text-anchor="start" x="343" y="-103.5" font-family="Helvetica,sans-Serif" font-size="10.00">Robot::stopMotionTimerAnd</text>
<text text-anchor="middle" x="411.5" y="-92.5" font-family="Helvetica,sans-Serif" font-size="10.00">ActionManager</text>
</a>
</g>
</g>
<!-- Node1&#45;&gt;Node13 -->
<g id="edge14" class="edge">
<title>Node1&#45;&gt;Node13</title>
<path fill="none" stroke="midnightblue" d="M557.4,-223.27C546.22,-197.38 522.93,-151.58 489,-125.5 484.01,-121.67 478.42,-118.41 472.58,-115.65"/>
<polygon fill="midnightblue" stroke="midnightblue" points="554.26,-224.83 561.33,-232.73 560.73,-222.15 554.26,-224.83"/>
</g>
<!-- Node15 -->
<g id="node15" class="node">
<title>Node15</title>
<g id="a_node15"><a xlink:href="classRobot.html#ade84d9257e194f8b04cc9f5f97e184da" target="_top" xlink:title=" ">
<polygon fill="white" stroke="black" points="346.5,-47 346.5,-66 476.5,-66 476.5,-47 346.5,-47"/>
<text text-anchor="middle" x="411.5" y="-54" font-family="Helvetica,sans-Serif" font-size="10.00">Robot::svgPrintPosition</text>
</a>
</g>
</g>
<!-- Node1&#45;&gt;Node15 -->
<g id="edge16" class="edge">
<title>Node1&#45;&gt;Node15</title>
<path fill="none" stroke="midnightblue" d="M561.69,-223.03C554.72,-188.21 535.21,-115.31 489,-76.5 483.85,-72.17 477.87,-68.77 471.56,-66.1"/>
<polygon fill="midnightblue" stroke="midnightblue" points="558.26,-223.71 563.53,-232.9 565.14,-222.43 558.26,-223.71"/>
</g>
<!-- Node3 -->
<g id="node3" class="node">
<title>Node3</title>
<g id="a_node3"><a xlink:href="classOPOS6UL__RobotExtended.html#a3af6cff5115c7ae70f7a797d9e90e66a" target="_top" xlink:title="Initialise l&#39;état du robot et le décisionmaker IA.">
<polygon fill="white" stroke="black" points="156,-399.5 156,-429.5 298,-429.5 298,-399.5 156,-399.5"/>
<text text-anchor="start" x="164" y="-417.5" font-family="Helvetica,sans-Serif" font-size="10.00">OPOS6UL_RobotExtended</text>
<text text-anchor="middle" x="227" y="-406.5" font-family="Helvetica,sans-Serif" font-size="10.00">::begin</text>
</a>
</g>
</g>
<!-- Node2&#45;&gt;Node3 -->
<g id="edge2" class="edge">
<title>Node2&#45;&gt;Node3</title>
<path fill="none" stroke="midnightblue" d="M362.06,-420.38C342.52,-419.52 319.59,-418.51 298.28,-417.58"/>
<polygon fill="midnightblue" stroke="midnightblue" points="362.1,-423.88 372.24,-420.82 362.4,-416.89 362.1,-423.88"/>
</g>
<!-- Node4 -->
<g id="node4" class="node">
<title>Node4</title>
<g id="a_node4"><a xlink:href="src_2bot-opos6ul_2Main_8cpp.html#a3c04138a5bfe5d72780bb7e82a18e627" target="_top" xlink:title=" ">
<polygon fill="white" stroke="black" points="39.5,-285 39.5,-304 80.5,-304 80.5,-285 39.5,-285"/>
<text text-anchor="middle" x="60" y="-292" font-family="Helvetica,sans-Serif" font-size="10.00">main</text>
</a>
</g>
</g>
<!-- Node3&#45;&gt;Node4 -->
<g id="edge3" class="edge">
<title>Node3&#45;&gt;Node4</title>
<path fill="none" stroke="midnightblue" d="M188.9,-394.29C178.07,-387.98 166.36,-380.77 156,-373.5 123.51,-350.71 88.37,-319.6 71.37,-304.1"/>
<polygon fill="midnightblue" stroke="midnightblue" points="187.34,-397.42 197.75,-399.35 190.81,-391.35 187.34,-397.42"/>
</g>
<!-- Node6 -->
<g id="node6" class="node">
<title>Node6</title>
<g id="a_node6"><a xlink:href="classSensorsTimer.html#abc377178c2471f664b31658554963e83" target="_top" xlink:title="Actions à executer pour le timer.">
<polygon fill="white" stroke="black" points="162,-255 162,-274 292,-274 292,-255 162,-255"/>
<text text-anchor="middle" x="227" y="-262" font-family="Helvetica,sans-Serif" font-size="10.00">SensorsTimer::onTimer</text>
</a>
</g>
</g>
<!-- Node5&#45;&gt;Node6 -->
<g id="edge5" class="edge">
<title>Node5&#45;&gt;Node6</title>
<path fill="none" stroke="midnightblue" d="M360.86,-296.53C331.52,-289.46 294.89,-280.63 267.52,-274.03"/>
<polygon fill="midnightblue" stroke="midnightblue" points="360.36,-300.01 370.9,-298.95 362,-293.21 360.36,-300.01"/>
</g>
<!-- Node7&#45;&gt;Node8 -->
<g id="edge7" class="edge">
<title>Node7&#45;&gt;Node8</title>
<path fill="none" stroke="midnightblue" d="M352.1,-374.9C329.88,-371.25 304.66,-367.1 282.78,-363.51"/>
<polygon fill="midnightblue" stroke="midnightblue" points="351.64,-378.37 362.07,-376.54 352.77,-371.46 351.64,-378.37"/>
</g>
<!-- Node10&#45;&gt;Node4 -->
<g id="edge10" class="edge">
<title>Node10&#45;&gt;Node4</title>
<path fill="none" stroke="midnightblue" d="M203.43,-197.82C168.81,-221.32 103.62,-265.57 75.03,-284.98"/>
<polygon fill="midnightblue" stroke="midnightblue" points="205.62,-200.56 211.93,-192.05 201.69,-194.77 205.62,-200.56"/>
</g>
<!-- Node11&#45;&gt;Node6 -->
<g id="edge12" class="edge">
<title>Node11&#45;&gt;Node6</title>
<path fill="none" stroke="midnightblue" d="M360.86,-232.47C331.52,-239.54 294.89,-248.37 267.52,-254.97"/>
<polygon fill="midnightblue" stroke="midnightblue" points="362,-235.79 370.9,-230.05 360.36,-228.99 362,-235.79"/>
</g>
<!-- Node14 -->
<g id="node14" class="node">
<title>Node14</title>
<g id="a_node14"><a xlink:href="classRobot.html#a924320124b09c2f2ac1621aa210d5f38" target="_top" xlink:title="Destructor.">
<polygon fill="white" stroke="black" points="183,-91 183,-110 271,-110 271,-91 183,-91"/>
<text text-anchor="middle" x="227" y="-98" font-family="Helvetica,sans-Serif" font-size="10.00">Robot::~Robot</text>
</a>
</g>
</g>
<!-- Node13&#45;&gt;Node14 -->
<g id="edge15" class="edge">
<title>Node13&#45;&gt;Node14</title>
<path fill="none" stroke="midnightblue" d="M324.94,-100.5C306.27,-100.5 287.28,-100.5 271.12,-100.5"/>
<polygon fill="midnightblue" stroke="midnightblue" points="324.95,-104 334.95,-100.5 324.95,-97 324.95,-104"/>
</g>
<!-- Node16 -->
<g id="node16" class="node">
<title>Node16</title>
<g id="a_node16"><a xlink:href="classOPOS6UL__RobotExtended.html#a4c7e16c32c1eaa463f577c100f63f618" target="_top" xlink:title="Affiche le statut de trajectoire courant.">
<polygon fill="white" stroke="black" points="156,-0.5 156,-30.5 298,-30.5 298,-0.5 156,-0.5"/>
<text text-anchor="start" x="164" y="-18.5" font-family="Helvetica,sans-Serif" font-size="10.00">OPOS6UL_RobotExtended</text>
<text text-anchor="middle" x="227" y="-7.5" font-family="Helvetica,sans-Serif" font-size="10.00">::displayTS</text>
</a>
</g>
</g>
<!-- Node15&#45;&gt;Node16 -->
<g id="edge17" class="edge">
<title>Node15&#45;&gt;Node16</title>
<path fill="none" stroke="midnightblue" d="M358.19,-44.75C338.54,-40.33 315.93,-35.25 295.11,-30.58"/>
<polygon fill="midnightblue" stroke="midnightblue" points="357.65,-48.21 368.17,-46.99 359.18,-41.38 357.65,-48.21"/>
</g>
<!-- Node17 -->
<g id="node17" class="node">
<title>Node17</title>
<g id="a_node17"><a xlink:href="classO__State__Init.html#a1980cd82dcb83e88d61f2e7e14dddfa0" target="_top" xlink:title=" ">
<polygon fill="white" stroke="black" points="170,-50 170,-69 284,-69 284,-50 170,-50"/>
<text text-anchor="middle" x="227" y="-57" font-family="Helvetica,sans-Serif" font-size="10.00">O_State_Init::setPos</text>
</a>
</g>
</g>
<!-- Node15&#45;&gt;Node17 -->
<g id="edge18" class="edge">
<title>Node15&#45;&gt;Node17</title>
<path fill="none" stroke="midnightblue" d="M336.27,-57.72C318.83,-58.01 300.53,-58.31 284.04,-58.58"/>
<polygon fill="midnightblue" stroke="midnightblue" points="336.47,-61.22 346.41,-57.55 336.36,-54.22 336.47,-61.22"/>
</g>
<!-- Node18 -->
<g id="node18" class="node">
<title>Node18</title>
<g id="a_node18"><a xlink:href="classO__State__Init.html#abc19788b7457d1f819245dd28367fe91" target="_top" xlink:title="Exécute l&#39;état d&#39;initialisation.">
<polygon fill="white" stroke="black" points="0,-50 0,-69 120,-69 120,-50 0,-50"/>
<text text-anchor="middle" x="60" y="-57" font-family="Helvetica,sans-Serif" font-size="10.00">O_State_Init::execute</text>
</a>
</g>
</g>
<!-- Node17&#45;&gt;Node18 -->
<g id="edge19" class="edge">
<title>Node17&#45;&gt;Node18</title>
<path fill="none" stroke="midnightblue" d="M159.41,-59.5C146.42,-59.5 132.89,-59.5 120.16,-59.5"/>
<polygon fill="midnightblue" stroke="midnightblue" points="159.68,-63 169.68,-59.5 159.68,-56 159.68,-63"/>
</g>
</g>
</svg>
