<?xml version="1.0" encoding="UTF-8" standalone="no"?>
<!DOCTYPE svg PUBLIC "-//W3C//DTD SVG 1.1//EN"
 "http://www.w3.org/Graphics/SVG/1.1/DTD/svg11.dtd">
<!-- Generated by graphviz version 2.43.0 (0)
 -->
<!-- Title: LedBar::flash Pages: 1 -->
<svg width="803pt" height="393pt"
 viewBox="0.00 0.00 803.00 393.44" xmlns="http://www.w3.org/2000/svg" xmlns:xlink="http://www.w3.org/1999/xlink">
<g id="graph0" class="graph" transform="scale(1 1) rotate(0) translate(4 389.44)">
<title>LedBar::flash</title>
<polygon fill="white" stroke="transparent" points="-4,4 -4,-389.44 799,-389.44 799,4 -4,4"/>
<!-- Node1 -->
<g id="node1" class="node">
<title>Node1</title>
<g id="a_node1"><a xlink:title="Allume/eteint les leds définit par hexValue, max = 0xFF.">
<polygon fill="#bfbfbf" stroke="black" points="715,-283 715,-302 795,-302 795,-283 715,-283"/>
<text text-anchor="middle" x="755" y="-290" font-family="Helvetica,sans-Serif" font-size="10.00">LedBar::flash</text>
</a>
</g>
</g>
<!-- Node2 -->
<g id="node2" class="node">
<title>Node2</title>
<g id="a_node2"><a xlink:href="classLedBar.html#ab34bee22db4d68f6c6057e2fbb3b33cd" target="_top" xlink:title="Clignote toutes les leds nb fois sur les 2 valeurs hex val1 et val2.">
<polygon fill="white" stroke="black" points="566,-359 566,-378 667,-378 667,-359 566,-359"/>
<text text-anchor="middle" x="616.5" y="-366" font-family="Helvetica,sans-Serif" font-size="10.00">LedBar::alternate</text>
</a>
</g>
</g>
<!-- Node1&#45;&gt;Node2 -->
<g id="edge1" class="edge">
<title>Node1&#45;&gt;Node2</title>
<path fill="none" stroke="midnightblue" d="M735.96,-309.12C721.48,-321.71 700.16,-338.63 679,-349.5 671.74,-353.23 663.63,-356.38 655.73,-358.97"/>
<polygon fill="midnightblue" stroke="midnightblue" points="738.49,-311.56 743.63,-302.29 733.84,-306.33 738.49,-311.56"/>
</g>
<!-- Node3 -->
<g id="node3" class="node">
<title>Node3</title>
<g id="a_node3"><a xlink:href="classLedBarAction.html#a67bc2c636064156c80319623b88ec5e8" target="_top" xlink:title="Execution de l&#39;action.">
<polygon fill="white" stroke="black" points="381,-302 381,-321 506,-321 506,-302 381,-302"/>
<text text-anchor="middle" x="443.5" y="-309" font-family="Helvetica,sans-Serif" font-size="10.00">LedBarAction::execute</text>
</a>
</g>
</g>
<!-- Node1&#45;&gt;Node3 -->
<g id="edge2" class="edge">
<title>Node1&#45;&gt;Node3</title>
<path fill="none" stroke="midnightblue" d="M704.8,-295.52C650.91,-298.83 564.39,-304.14 506.04,-307.72"/>
<polygon fill="midnightblue" stroke="midnightblue" points="705.03,-299.01 714.8,-294.91 704.61,-292.03 705.03,-299.01"/>
</g>
<!-- Node4 -->
<g id="node4" class="node">
<title>Node4</title>
<g id="a_node4"><a xlink:href="classLedBar.html#ad91d62f821e6b1eb6689a0d23f021097" target="_top" xlink:title="Allume toutes leds.">
<polygon fill="white" stroke="black" points="570.5,-321 570.5,-340 662.5,-340 662.5,-321 570.5,-321"/>
<text text-anchor="middle" x="616.5" y="-328" font-family="Helvetica,sans-Serif" font-size="10.00">LedBar::flashAll</text>
</a>
</g>
</g>
<!-- Node1&#45;&gt;Node4 -->
<g id="edge3" class="edge">
<title>Node1&#45;&gt;Node4</title>
<path fill="none" stroke="midnightblue" d="M709.75,-304.82C691,-310.04 669.47,-316.03 651.93,-320.91"/>
<polygon fill="midnightblue" stroke="midnightblue" points="710.86,-308.14 719.56,-302.09 708.98,-301.4 710.86,-308.14"/>
</g>
<!-- Node8 -->
<g id="node8" class="node">
<title>Node8</title>
<g id="a_node8"><a xlink:href="classLedBarTimer.html#a508f0c79e394a111d211f457fd589870" target="_top" xlink:title="fonction qui sera executer à chaque traitement du timer.">
<polygon fill="white" stroke="black" points="554,-176 554,-195 679,-195 679,-176 554,-176"/>
<text text-anchor="middle" x="616.5" y="-183" font-family="Helvetica,sans-Serif" font-size="10.00">LedBarTimer::onTimer</text>
</a>
</g>
</g>
<!-- Node1&#45;&gt;Node8 -->
<g id="edge8" class="edge">
<title>Node1&#45;&gt;Node8</title>
<path fill="none" stroke="midnightblue" d="M742.97,-274.22C730.03,-254.29 706.79,-222.8 679,-204.5 673.12,-200.63 666.41,-197.51 659.63,-195.01"/>
<polygon fill="midnightblue" stroke="midnightblue" points="740.03,-276.12 748.32,-282.72 745.96,-272.4 740.03,-276.12"/>
</g>
<!-- Node9 -->
<g id="node9" class="node">
<title>Node9</title>
<g id="a_node9"><a xlink:href="classLedBar.html#aa771bd13ff72b872ec4c34e9ef68ea1b" target="_top" xlink:title="Eteint toutes leds.">
<polygon fill="white" stroke="black" points="569.5,-214 569.5,-233 663.5,-233 663.5,-214 569.5,-214"/>
<text text-anchor="middle" x="616.5" y="-221" font-family="Helvetica,sans-Serif" font-size="10.00">LedBar::resetAll</text>
</a>
</g>
</g>
<!-- Node1&#45;&gt;Node9 -->
<g id="edge9" class="edge">
<title>Node1&#45;&gt;Node9</title>
<path fill="none" stroke="midnightblue" d="M725.78,-278.23C698.99,-264.69 659.47,-244.72 636.32,-233.01"/>
<polygon fill="midnightblue" stroke="midnightblue" points="724.52,-281.52 735.02,-282.91 727.67,-275.27 724.52,-281.52"/>
</g>
<!-- Node4&#45;&gt;Node3 -->
<g id="edge6" class="edge">
<title>Node4&#45;&gt;Node3</title>
<path fill="none" stroke="midnightblue" d="M559.73,-324.3C542.61,-322.4 523.68,-320.3 506.19,-318.35"/>
<polygon fill="midnightblue" stroke="midnightblue" points="559.8,-327.83 570.12,-325.46 560.57,-320.88 559.8,-327.83"/>
</g>
<!-- Node5 -->
<g id="node5" class="node">
<title>Node5</title>
<g id="a_node5"><a xlink:href="classLedBar.html#afad90556b784654b618c527eb19c50dd" target="_top" xlink:title="Clignote toutes les leds nb fois.">
<polygon fill="white" stroke="black" points="403.5,-340 403.5,-359 483.5,-359 483.5,-340 403.5,-340"/>
<text text-anchor="middle" x="443.5" y="-347" font-family="Helvetica,sans-Serif" font-size="10.00">LedBar::blink</text>
</a>
</g>
</g>
<!-- Node4&#45;&gt;Node5 -->
<g id="edge4" class="edge">
<title>Node4&#45;&gt;Node5</title>
<path fill="none" stroke="midnightblue" d="M560.07,-336.66C535.15,-339.43 506.32,-342.63 483.69,-345.15"/>
<polygon fill="midnightblue" stroke="midnightblue" points="560.57,-340.12 570.12,-335.54 559.8,-333.17 560.57,-340.12"/>
</g>
<!-- Node7 -->
<g id="node7" class="node">
<title>Node7</title>
<g id="a_node7"><a xlink:href="classO__State__WaitEndOfMatch.html#aa73613440b37c8dd42181e2e0265ae86" target="_top" xlink:title="Exécute l&#39;état d&#39;attente de fin de match.">
<polygon fill="white" stroke="black" points="0,-268.5 0,-298.5 141,-298.5 141,-268.5 0,-268.5"/>
<text text-anchor="start" x="8" y="-286.5" font-family="Helvetica,sans-Serif" font-size="10.00">O_State_WaitEndOfMatch</text>
<text text-anchor="middle" x="70.5" y="-275.5" font-family="Helvetica,sans-Serif" font-size="10.00">::execute</text>
</a>
</g>
</g>
<!-- Node4&#45;&gt;Node7 -->
<g id="edge7" class="edge">
<title>Node4&#45;&gt;Node7</title>
<path fill="none" stroke="midnightblue" d="M570.98,-343.17C565.21,-345.13 559.42,-347.25 554,-349.5 537.29,-356.42 535.56,-364.15 518,-368.5 369.98,-405.16 322.35,-376.62 177,-330.5 150.43,-322.07 121.61,-308.94 100.82,-298.7"/>
<polygon fill="midnightblue" stroke="midnightblue" points="572.19,-346.46 580.62,-340.04 570.03,-339.8 572.19,-346.46"/>
</g>
<!-- Node6 -->
<g id="node6" class="node">
<title>Node6</title>
<g id="a_node6"><a xlink:href="classO__LedBarTest.html#af9e0e172d13b334cda0fe32bb659b414" target="_top" xlink:title=" ">
<polygon fill="white" stroke="black" points="203,-302 203,-321 307,-321 307,-302 203,-302"/>
<text text-anchor="middle" x="255" y="-309" font-family="Helvetica,sans-Serif" font-size="10.00">O_LedBarTest::run</text>
</a>
</g>
</g>
<!-- Node5&#45;&gt;Node6 -->
<g id="edge5" class="edge">
<title>Node5&#45;&gt;Node6</title>
<path fill="none" stroke="midnightblue" d="M393.4,-339.5C365.32,-333.77 330.29,-326.64 302.63,-321"/>
<polygon fill="midnightblue" stroke="midnightblue" points="392.91,-342.97 403.4,-341.53 394.3,-336.11 392.91,-342.97"/>
</g>
<!-- Node9&#45;&gt;Node3 -->
<g id="edge11" class="edge">
<title>Node9&#45;&gt;Node3</title>
<path fill="none" stroke="midnightblue" d="M596.89,-239.82C578.16,-255.46 547.85,-278.65 518,-292.5 509.87,-296.27 500.87,-299.38 492.04,-301.91"/>
<polygon fill="midnightblue" stroke="midnightblue" points="599.28,-242.38 604.63,-233.24 594.75,-237.05 599.28,-242.38"/>
</g>
<!-- Node9&#45;&gt;Node5 -->
<g id="edge10" class="edge">
<title>Node9&#45;&gt;Node5</title>
<path fill="none" stroke="midnightblue" d="M603.9,-241.76C587.65,-265.81 555.81,-307.71 518,-330.5 507.61,-336.76 495.2,-340.97 483.56,-343.8"/>
<polygon fill="midnightblue" stroke="midnightblue" points="606.95,-243.49 609.52,-233.21 601.1,-239.64 606.95,-243.49"/>
</g>
<!-- Node9&#45;&gt;Node6 -->
<g id="edge17" class="edge">
<title>Node9&#45;&gt;Node6</title>
<path fill="none" stroke="midnightblue" d="M559.16,-220.85C508.26,-220.13 431.9,-223.26 369,-243.5 328.46,-256.55 287.18,-286.53 267.63,-301.95"/>
<polygon fill="midnightblue" stroke="midnightblue" points="559.24,-224.35 569.31,-221.05 559.38,-217.35 559.24,-224.35"/>
</g>
<!-- Node10 -->
<g id="node10" class="node">
<title>Node10</title>
<g id="a_node10"><a xlink:href="classO__State__Init.html#abc19788b7457d1f819245dd28367fe91" target="_top" xlink:title="Exécute l&#39;état d&#39;initialisation.">
<polygon fill="white" stroke="black" points="383.5,-126 383.5,-145 503.5,-145 503.5,-126 383.5,-126"/>
<text text-anchor="middle" x="443.5" y="-133" font-family="Helvetica,sans-Serif" font-size="10.00">O_State_Init::execute</text>
</a>
</g>
</g>
<!-- Node9&#45;&gt;Node10 -->
<g id="edge12" class="edge">
<title>Node9&#45;&gt;Node10</title>
<path fill="none" stroke="midnightblue" d="M562.55,-209.72C559.55,-208.16 556.68,-206.42 554,-204.5 531.76,-188.52 540.6,-169.96 518,-154.5 512.34,-150.63 505.95,-147.55 499.36,-145.1"/>
<polygon fill="midnightblue" stroke="midnightblue" points="561.25,-212.97 571.81,-213.9 564.13,-206.59 561.25,-212.97"/>
</g>
<!-- Node11 -->
<g id="node11" class="node">
<title>Node11</title>
<g id="a_node11"><a xlink:href="classLedBarTimer.html#a7836430e649650253638c3c1c95d20ad" target="_top" xlink:title="fonction qui sera executer en dernière action à faire pour ce timer.">
<polygon fill="white" stroke="black" points="372,-88 372,-107 515,-107 515,-88 372,-88"/>
<text text-anchor="middle" x="443.5" y="-95" font-family="Helvetica,sans-Serif" font-size="10.00">LedBarTimer::onTimerEnd</text>
</a>
</g>
</g>
<!-- Node9&#45;&gt;Node11 -->
<g id="edge13" class="edge">
<title>Node9&#45;&gt;Node11</title>
<path fill="none" stroke="midnightblue" d="M560.29,-209.36C558.06,-207.9 555.95,-206.28 554,-204.5 522.82,-175.97 549.83,-144.29 518,-116.5 513.63,-112.69 508.59,-109.62 503.24,-107.16"/>
<polygon fill="midnightblue" stroke="midnightblue" points="558.91,-212.6 569.37,-214.29 562.25,-206.44 558.91,-212.6"/>
</g>
<!-- Node12 -->
<g id="node12" class="node">
<title>Node12</title>
<g id="a_node12"><a xlink:href="classLedBar.html#a7bb1b0cf26c7202807bdc3e68e1f2e48" target="_top" xlink:title=" ">
<polygon fill="white" stroke="black" points="396,-50 396,-69 491,-69 491,-50 396,-50"/>
<text text-anchor="middle" x="443.5" y="-57" font-family="Helvetica,sans-Serif" font-size="10.00">LedBar::rainbow</text>
</a>
</g>
</g>
<!-- Node9&#45;&gt;Node12 -->
<g id="edge14" class="edge">
<title>Node9&#45;&gt;Node12</title>
<path fill="none" stroke="midnightblue" d="M560.16,-209.7C557.95,-208.15 555.88,-206.42 554,-204.5 513.26,-162.88 559.7,-119.16 518,-78.5 510.64,-71.32 500.94,-66.76 491.01,-63.87"/>
<polygon fill="midnightblue" stroke="midnightblue" points="558.83,-212.97 569.25,-214.88 562.29,-206.89 558.83,-212.97"/>
</g>
<!-- Node13 -->
<g id="node13" class="node">
<title>Node13</title>
<g id="a_node13"><a xlink:href="classOPOS6UL__RobotExtended.html#a819ce5f4225f7082d6ce8cf19466dc33" target="_top" xlink:title="Réinitialise l&#39;affichage de détection d&#39;obstacle.">
<polygon fill="white" stroke="black" points="372.5,-0.5 372.5,-30.5 514.5,-30.5 514.5,-0.5 372.5,-0.5"/>
<text text-anchor="start" x="380.5" y="-18.5" font-family="Helvetica,sans-Serif" font-size="10.00">OPOS6UL_RobotExtended</text>
<text text-anchor="middle" x="443.5" y="-7.5" font-family="Helvetica,sans-Serif" font-size="10.00">::resetDisplayObstacle</text>
</a>
</g>
</g>
<!-- Node9&#45;&gt;Node13 -->
<g id="edge15" class="edge">
<title>Node9&#45;&gt;Node13</title>
<path fill="none" stroke="midnightblue" d="M560.61,-210.28C558.21,-208.58 555.99,-206.66 554,-204.5 503.48,-149.57 567.74,-96.13 518,-40.5 514.59,-36.68 510.57,-33.45 506.2,-30.7"/>
<polygon fill="midnightblue" stroke="midnightblue" points="558.88,-213.32 569.3,-215.26 562.37,-207.25 558.88,-213.32"/>
</g>
<!-- Node14 -->
<g id="node14" class="node">
<title>Node14</title>
<g id="a_node14"><a xlink:href="classOPOS6UL__RobotExtended.html#a5297c0c8c1c9b4f25effe72b71ace570" target="_top" xlink:title="Réinitialise l&#39;affichage du statut de trajectoire.">
<polygon fill="white" stroke="black" points="372.5,-252.5 372.5,-282.5 514.5,-282.5 514.5,-252.5 372.5,-252.5"/>
<text text-anchor="start" x="380.5" y="-270.5" font-family="Helvetica,sans-Serif" font-size="10.00">OPOS6UL_RobotExtended</text>
<text text-anchor="middle" x="443.5" y="-259.5" font-family="Helvetica,sans-Serif" font-size="10.00">::resetDisplayTS</text>
</a>
</g>
</g>
<!-- Node9&#45;&gt;Node14 -->
<g id="edge16" class="edge">
<title>Node9&#45;&gt;Node14</title>
<path fill="none" stroke="midnightblue" d="M568.49,-235.6C548.26,-240.8 524.41,-246.94 503.05,-252.43"/>
<polygon fill="midnightblue" stroke="midnightblue" points="569.58,-238.93 578.4,-233.05 567.84,-232.15 569.58,-238.93"/>
</g>
<!-- Node15 -->
<g id="node15" class="node">
<title>Node15</title>
<g id="a_node15"><a xlink:href="classOPOS6UL__ActionsExtended.html#a87bb61d89759101cac844e7c399f2f61" target="_top" xlink:title="Arrête tous les périphériques supplémentaires (capteurs, LEDs, LCD) et relâche les servos.">
<polygon fill="white" stroke="black" points="369,-164.5 369,-194.5 518,-194.5 518,-164.5 369,-164.5"/>
<text text-anchor="start" x="377" y="-182.5" font-family="Helvetica,sans-Serif" font-size="10.00">OPOS6UL_ActionsExtended</text>
<text text-anchor="middle" x="443.5" y="-171.5" font-family="Helvetica,sans-Serif" font-size="10.00">::stopExtra</text>
</a>
</g>
</g>
<!-- Node9&#45;&gt;Node15 -->
<g id="edge18" class="edge">
<title>Node9&#45;&gt;Node15</title>
<path fill="none" stroke="midnightblue" d="M568.49,-211.4C548.26,-206.2 524.41,-200.06 503.05,-194.57"/>
<polygon fill="midnightblue" stroke="midnightblue" points="567.84,-214.85 578.4,-213.95 569.58,-208.07 567.84,-214.85"/>
</g>
<!-- Node16 -->
<g id="node16" class="node">
<title>Node16</title>
<g id="a_node16"><a xlink:href="classOPOS6UL__RobotExtended.html#ac8ac2be407a78cdd62261f72226162df" target="_top" xlink:title=" ">
<polygon fill="white" stroke="black" points="177,-213.5 177,-243.5 333,-243.5 333,-213.5 177,-213.5"/>
<text text-anchor="start" x="185" y="-231.5" font-family="Helvetica,sans-Serif" font-size="10.00">OPOS6UL_RobotExtended</text>
<text text-anchor="middle" x="255" y="-220.5" font-family="Helvetica,sans-Serif" font-size="10.00">::~OPOS6UL_RobotExtended</text>
</a>
</g>
</g>
<!-- Node15&#45;&gt;Node16 -->
<g id="edge19" class="edge">
<title>Node15&#45;&gt;Node16</title>
<path fill="none" stroke="midnightblue" d="M375.43,-197.12C355.02,-202.48 332.8,-208.32 313.12,-213.49"/>
<polygon fill="midnightblue" stroke="midnightblue" points="376.49,-200.46 385.28,-194.53 374.72,-193.69 376.49,-200.46"/>
</g>
<!-- Node17 -->
<g id="node17" class="node">
<title>Node17</title>
<g id="a_node17"><a xlink:href="classOPOS6UL__RobotExtended.html#a0a997f7fd88abac1efe0083fce633649" target="_top" xlink:title="Arrête toutes les actions supplémentaires (capteurs, LEDs, servos).">
<polygon fill="white" stroke="black" points="184,-164.5 184,-194.5 326,-194.5 326,-164.5 184,-164.5"/>
<text text-anchor="start" x="192" y="-182.5" font-family="Helvetica,sans-Serif" font-size="10.00">OPOS6UL_RobotExtended</text>
<text text-anchor="middle" x="255" y="-171.5" font-family="Helvetica,sans-Serif" font-size="10.00">::stopExtraActions</text>
</a>
</g>
</g>
<!-- Node15&#45;&gt;Node17 -->
<g id="edge20" class="edge">
<title>Node15&#45;&gt;Node17</title>
<path fill="none" stroke="midnightblue" d="M358.49,-179.5C347.68,-179.5 336.69,-179.5 326.13,-179.5"/>
<polygon fill="midnightblue" stroke="midnightblue" points="358.79,-183 368.79,-179.5 358.79,-176 358.79,-183"/>
</g>
<!-- Node17&#45;&gt;Node7 -->
<g id="edge21" class="edge">
<title>Node17&#45;&gt;Node7</title>
<path fill="none" stroke="midnightblue" d="M188.03,-198.36C184.24,-199.96 180.54,-201.68 177,-203.5 142.46,-221.28 107.55,-250.45 87.81,-268.22"/>
<polygon fill="midnightblue" stroke="midnightblue" points="189.56,-201.52 197.57,-194.58 186.99,-195.01 189.56,-201.52"/>
</g>
</g>
</svg>
