<?xml version="1.0" encoding="UTF-8" standalone="no"?>
<!DOCTYPE svg PUBLIC "-//W3C//DTD SVG 1.1//EN"
 "http://www.w3.org/Graphics/SVG/1.1/DTD/svg11.dtd">
<!-- Generated by graphviz version 2.43.0 (0)
 -->
<!-- Title: Robot::resetDisplayTS Pages: 1 -->
<svg width="641pt" height="241pt"
 viewBox="0.00 0.00 641.00 240.50" xmlns="http://www.w3.org/2000/svg" xmlns:xlink="http://www.w3.org/1999/xlink">
<g id="graph0" class="graph" transform="scale(1 1) rotate(0) translate(4 236.5)">
<title>Robot::resetDisplayTS</title>
<polygon fill="white" stroke="transparent" points="-4,4 -4,-236.5 637,-236.5 637,4 -4,4"/>
<!-- Node1 -->
<g id="node1" class="node">
<title>Node1</title>
<g id="a_node1"><a xlink:title="Réinitialise l&#39;affichage de l&#39;état de trajectoire.">
<polygon fill="#bfbfbf" stroke="black" points="0,-137 0,-156 125,-156 125,-137 0,-137"/>
<text text-anchor="middle" x="62.5" y="-144" font-family="Helvetica,sans-Serif" font-size="10.00">Robot::resetDisplayTS</text>
</a>
</g>
</g>
<!-- Node2 -->
<g id="node2" class="node">
<title>Node2</title>
<g id="a_node2"><a xlink:href="namespacelogs.html#ac6f325c6cfe6189bc8e243daa184453b" target="_top" xlink:title="Cette méthode permet de finir les flux de construction par la notation.">
<polygon fill="white" stroke="black" points="171.5,-175 171.5,-194 232.5,-194 232.5,-175 171.5,-175"/>
<text text-anchor="middle" x="202" y="-182" font-family="Helvetica,sans-Serif" font-size="10.00">logs::end</text>
</a>
</g>
</g>
<!-- Node1&#45;&gt;Node2 -->
<g id="edge1" class="edge">
<title>Node1&#45;&gt;Node2</title>
<path fill="none" stroke="midnightblue" d="M98.2,-156.09C117.53,-161.43 141.66,-168.1 161.68,-173.63"/>
<polygon fill="midnightblue" stroke="midnightblue" points="160.87,-177.04 171.44,-176.33 162.73,-170.29 160.87,-177.04"/>
</g>
<!-- Node7 -->
<g id="node7" class="node">
<title>Node7</title>
<g id="a_node7"><a xlink:href="classlogs_1_1Logger.html#a8b6a2019233bc44b3c3c86c653910831" target="_top" xlink:title="Trace un message de niveau ERROR.">
<polygon fill="white" stroke="black" points="310.5,-137 310.5,-156 415.5,-156 415.5,-137 310.5,-137"/>
<text text-anchor="middle" x="363" y="-144" font-family="Helvetica,sans-Serif" font-size="10.00">logs::Logger::error</text>
</a>
</g>
</g>
<!-- Node1&#45;&gt;Node7 -->
<g id="edge6" class="edge">
<title>Node1&#45;&gt;Node7</title>
<path fill="none" stroke="midnightblue" d="M125.35,-146.5C176.47,-146.5 248.72,-146.5 299.91,-146.5"/>
<polygon fill="midnightblue" stroke="midnightblue" points="300.18,-150 310.18,-146.5 300.18,-143 300.18,-150"/>
</g>
<!-- Node8 -->
<g id="node8" class="node">
<title>Node8</title>
<g id="a_node8"><a xlink:href="classRobot.html#ace39678c476c8e8b193d9c8baf7a692b" target="_top" xlink:title="Retourne le Logger associe a la classe Robot. public car utilise dans Main.">
<polygon fill="white" stroke="black" points="161,-96 161,-115 243,-115 243,-96 161,-96"/>
<text text-anchor="middle" x="202" y="-103" font-family="Helvetica,sans-Serif" font-size="10.00">Robot::logger</text>
</a>
</g>
</g>
<!-- Node1&#45;&gt;Node8 -->
<g id="edge8" class="edge">
<title>Node1&#45;&gt;Node8</title>
<path fill="none" stroke="midnightblue" d="M95.39,-136.99C114.34,-131.34 138.6,-124.11 159.09,-118"/>
<polygon fill="midnightblue" stroke="midnightblue" points="160.22,-121.31 168.81,-115.1 158.22,-114.6 160.22,-121.31"/>
</g>
<!-- Node3 -->
<g id="node3" class="node">
<title>Node3</title>
<g id="a_node3"><a xlink:href="classlogs_1_1Logger_1_1LoggerBuffer.html#a0e4fd77693fd899ec1b0670354f93a02" target="_top" xlink:title="Cette méthode valide le message en cours de construction et le transmet au Logger de référence.">
<polygon fill="white" stroke="black" points="279,-175 279,-194 447,-194 447,-175 279,-175"/>
<text text-anchor="middle" x="363" y="-182" font-family="Helvetica,sans-Serif" font-size="10.00">logs::Logger::LoggerBuffer::end</text>
</a>
</g>
</g>
<!-- Node2&#45;&gt;Node3 -->
<g id="edge2" class="edge">
<title>Node2&#45;&gt;Node3</title>
<path fill="none" stroke="midnightblue" d="M232.53,-184.5C243.13,-184.5 255.71,-184.5 268.8,-184.5"/>
<polygon fill="midnightblue" stroke="midnightblue" points="268.89,-188 278.89,-184.5 268.89,-181 268.89,-188"/>
</g>
<!-- Node4 -->
<g id="node4" class="node">
<title>Node4</title>
<g id="a_node4"><a xlink:href="classutils_1_1Mutex.html#aa584b418a5ef484f76b93e361a1d7e32" target="_top" xlink:title="Verrouille le mutex. Cette méthode doit être appelée avant d&#39;utiliser la ressource associée....">
<polygon fill="white" stroke="black" points="507.5,-213 507.5,-232 608.5,-232 608.5,-213 507.5,-213"/>
<text text-anchor="middle" x="558" y="-220" font-family="Helvetica,sans-Serif" font-size="10.00">utils::Mutex::lock</text>
</a>
</g>
</g>
<!-- Node3&#45;&gt;Node4 -->
<g id="edge3" class="edge">
<title>Node3&#45;&gt;Node4</title>
<path fill="none" stroke="midnightblue" d="M412.7,-194.09C438.86,-199.24 471.28,-205.62 498.77,-211.03"/>
<polygon fill="midnightblue" stroke="midnightblue" points="498.16,-214.48 508.65,-212.98 499.51,-207.61 498.16,-214.48"/>
</g>
<!-- Node5 -->
<g id="node5" class="node">
<title>Node5</title>
<g id="a_node5"><a xlink:href="classutils_1_1Mutex.html#a59b2079dc7f803d49f78ac9c04406cd3" target="_top" xlink:title="Déverrouille le mutex. Cette méthode doit être appelée après avoir utiliser la ressource associée.">
<polygon fill="white" stroke="black" points="501.5,-175 501.5,-194 614.5,-194 614.5,-175 501.5,-175"/>
<text text-anchor="middle" x="558" y="-182" font-family="Helvetica,sans-Serif" font-size="10.00">utils::Mutex::unlock</text>
</a>
</g>
</g>
<!-- Node3&#45;&gt;Node5 -->
<g id="edge4" class="edge">
<title>Node3&#45;&gt;Node5</title>
<path fill="none" stroke="midnightblue" d="M447.25,-184.5C461.94,-184.5 477.06,-184.5 491.19,-184.5"/>
<polygon fill="midnightblue" stroke="midnightblue" points="491.29,-188 501.29,-184.5 491.29,-181 491.29,-188"/>
</g>
<!-- Node6 -->
<g id="node6" class="node">
<title>Node6</title>
<g id="a_node6"><a xlink:href="classlogs_1_1Logger.html#afa535aaf4891e02c4ff7f84d372b5b1b" target="_top" xlink:title="Méthode générique de trace d&#39;un message.">
<polygon fill="white" stroke="black" points="483,-137 483,-156 633,-156 633,-137 483,-137"/>
<text text-anchor="middle" x="558" y="-144" font-family="Helvetica,sans-Serif" font-size="10.00">logs::Logger::writeMessage</text>
</a>
</g>
</g>
<!-- Node3&#45;&gt;Node6 -->
<g id="edge5" class="edge">
<title>Node3&#45;&gt;Node6</title>
<path fill="none" stroke="midnightblue" d="M412.7,-174.91C438.86,-169.76 471.28,-163.38 498.77,-157.97"/>
<polygon fill="midnightblue" stroke="midnightblue" points="499.51,-161.39 508.65,-156.02 498.16,-154.52 499.51,-161.39"/>
</g>
<!-- Node7&#45;&gt;Node6 -->
<g id="edge7" class="edge">
<title>Node7&#45;&gt;Node6</title>
<path fill="none" stroke="midnightblue" d="M415.72,-146.5C433.22,-146.5 453.23,-146.5 472.59,-146.5"/>
<polygon fill="midnightblue" stroke="midnightblue" points="472.64,-150 482.64,-146.5 472.64,-143 472.64,-150"/>
</g>
<!-- Node9 -->
<g id="node9" class="node">
<title>Node9</title>
<g id="a_node9"><a xlink:href="classlogs_1_1LoggerFactory.html#a82585b5de73e471e06cafdccc3b3721e" target="_top" xlink:title="Cette méthode statique retourne un Logger en fonction de son nom.">
<polygon fill="white" stroke="black" points="307.5,-68.5 307.5,-98.5 418.5,-98.5 418.5,-68.5 307.5,-68.5"/>
<text text-anchor="start" x="315.5" y="-86.5" font-family="Helvetica,sans-Serif" font-size="10.00">logs::LoggerFactory</text>
<text text-anchor="middle" x="363" y="-75.5" font-family="Helvetica,sans-Serif" font-size="10.00">::logger</text>
</a>
</g>
</g>
<!-- Node8&#45;&gt;Node9 -->
<g id="edge9" class="edge">
<title>Node8&#45;&gt;Node9</title>
<path fill="none" stroke="midnightblue" d="M243.12,-99.95C259.58,-97.67 279.05,-94.98 297.41,-92.44"/>
<polygon fill="midnightblue" stroke="midnightblue" points="298.05,-95.88 307.48,-91.04 297.09,-88.95 298.05,-95.88"/>
</g>
<!-- Node10 -->
<g id="node10" class="node">
<title>Node10</title>
<g id="a_node10"><a xlink:href="classlogs_1_1LoggerFactory.html#ac89f19c0ffd71aa8cdc1c2d44c03809e" target="_top" xlink:title="Cette méthode ajoute un appender au système.">
<polygon fill="white" stroke="black" points="491,-99 491,-118 625,-118 625,-99 491,-99"/>
<text text-anchor="middle" x="558" y="-106" font-family="Helvetica,sans-Serif" font-size="10.00">logs::LoggerFactory::add</text>
</a>
</g>
</g>
<!-- Node9&#45;&gt;Node10 -->
<g id="edge10" class="edge">
<title>Node9&#45;&gt;Node10</title>
<path fill="none" stroke="midnightblue" d="M418.53,-90.56C437.88,-93.07 460.03,-95.94 480.85,-98.64"/>
<polygon fill="midnightblue" stroke="midnightblue" points="480.58,-102.13 490.95,-99.94 481.48,-95.19 480.58,-102.13"/>
</g>
<!-- Node11 -->
<g id="node11" class="node">
<title>Node11</title>
<g id="a_node11"><a xlink:href="classlogs_1_1LoggerFactory.html#a90478b91d7af2ef8841ded21e3521f69" target="_top" xlink:title="Cette méthode statique retourne l&#39;instance unique de la classe LoggerFactory.">
<polygon fill="white" stroke="black" points="502.5,-49.5 502.5,-79.5 613.5,-79.5 613.5,-49.5 502.5,-49.5"/>
<text text-anchor="start" x="510.5" y="-67.5" font-family="Helvetica,sans-Serif" font-size="10.00">logs::LoggerFactory</text>
<text text-anchor="middle" x="558" y="-56.5" font-family="Helvetica,sans-Serif" font-size="10.00">::instance</text>
</a>
</g>
</g>
<!-- Node9&#45;&gt;Node11 -->
<g id="edge11" class="edge">
<title>Node9&#45;&gt;Node11</title>
<path fill="none" stroke="midnightblue" d="M418.53,-78.13C441.45,-75.88 468.3,-73.23 492.22,-70.88"/>
<polygon fill="midnightblue" stroke="midnightblue" points="492.66,-74.35 502.27,-69.89 491.97,-67.38 492.66,-74.35"/>
</g>
<!-- Node12 -->
<g id="node12" class="node">
<title>Node12</title>
<g id="a_node12"><a xlink:href="classlogs_1_1LoggerFactory.html#a212aa623f4b6bee12cb39e8017dde670" target="_top" xlink:title="Cette méthode retourne le Logger principal qui définit le niveau de trace par défaut.">
<polygon fill="white" stroke="black" points="502.5,-0.5 502.5,-30.5 613.5,-30.5 613.5,-0.5 502.5,-0.5"/>
<text text-anchor="start" x="510.5" y="-18.5" font-family="Helvetica,sans-Serif" font-size="10.00">logs::LoggerFactory</text>
<text text-anchor="middle" x="558" y="-7.5" font-family="Helvetica,sans-Serif" font-size="10.00">::rootLogger</text>
</a>
</g>
</g>
<!-- Node9&#45;&gt;Node12 -->
<g id="edge12" class="edge">
<title>Node9&#45;&gt;Node12</title>
<path fill="none" stroke="midnightblue" d="M404.95,-68.46C427.87,-60.11 456.98,-49.6 483,-40.5 489.28,-38.31 495.87,-36.03 502.42,-33.8"/>
<polygon fill="midnightblue" stroke="midnightblue" points="503.61,-37.09 511.95,-30.55 501.35,-30.46 503.61,-37.09"/>
</g>
</g>
</svg>
