<?xml version="1.0" encoding="UTF-8" standalone="no"?>
<!DOCTYPE svg PUBLIC "-//W3C//DTD SVG 1.1//EN"
 "http://www.w3.org/Graphics/SVG/1.1/DTD/svg11.dtd">
<!-- Generated by graphviz version 2.43.0 (0)
 -->
<!-- Title: SvgWriter::writeTextCustom Pages: 1 -->
<svg width="688pt" height="170pt"
 viewBox="0.00 0.00 688.00 170.33" xmlns="http://www.w3.org/2000/svg" xmlns:xlink="http://www.w3.org/1999/xlink">
<g id="graph0" class="graph" transform="scale(1 1) rotate(0) translate(4 166.33)">
<title>SvgWriter::writeTextCustom</title>
<polygon fill="white" stroke="transparent" points="-4,4 -4,-166.33 684,-166.33 684,4 -4,4"/>
<!-- Node1 -->
<g id="node1" class="node">
<title>Node1</title>
<g id="a_node1"><a xlink:title="Écrit un texte avec couleur et taille personnalisées.">
<polygon fill="#bfbfbf" stroke="black" points="0,-76.5 0,-95.5 153,-95.5 153,-76.5 0,-76.5"/>
<text text-anchor="middle" x="76.5" y="-83.5" font-family="Helvetica,sans-Serif" font-size="10.00">SvgWriter::writeTextCustom</text>
</a>
</g>
</g>
<!-- Node2 -->
<g id="node2" class="node">
<title>Node2</title>
<g id="a_node2"><a xlink:href="namespacelogs.html#ac6f325c6cfe6189bc8e243daa184453b" target="_top" xlink:title="Cette méthode permet de finir les flux de construction par la notation.">
<polygon fill="white" stroke="black" points="209,-114.5 209,-133.5 270,-133.5 270,-114.5 209,-114.5"/>
<text text-anchor="middle" x="239.5" y="-121.5" font-family="Helvetica,sans-Serif" font-size="10.00">logs::end</text>
</a>
</g>
</g>
<!-- Node1&#45;&gt;Node2 -->
<g id="edge1" class="edge">
<title>Node1&#45;&gt;Node2</title>
<path fill="none" stroke="midnightblue" d="M118.13,-95.59C142.82,-101.42 174.22,-108.83 198.76,-114.62"/>
<polygon fill="midnightblue" stroke="midnightblue" points="198.28,-118.1 208.81,-116.99 199.88,-111.29 198.28,-118.1"/>
</g>
<!-- Node4 -->
<g id="node4" class="node">
<title>Node4</title>
<g id="a_node4"><a xlink:href="classutils_1_1Mutex.html#aa584b418a5ef484f76b93e361a1d7e32" target="_top" xlink:title="Verrouille le mutex. Cette méthode doit être appelée avant d&#39;utiliser la ressource associée....">
<polygon fill="white" stroke="black" points="554.5,-133.5 554.5,-152.5 655.5,-152.5 655.5,-133.5 554.5,-133.5"/>
<text text-anchor="middle" x="605" y="-140.5" font-family="Helvetica,sans-Serif" font-size="10.00">utils::Mutex::lock</text>
</a>
</g>
</g>
<!-- Node1&#45;&gt;Node4 -->
<g id="edge8" class="edge">
<title>Node1&#45;&gt;Node4</title>
<path fill="none" stroke="midnightblue" d="M91.09,-95.67C111.29,-109.38 150.95,-133.84 189,-143 312.43,-172.72 462.57,-161.53 544.16,-151.66"/>
<polygon fill="midnightblue" stroke="midnightblue" points="544.76,-155.11 554.25,-150.41 543.89,-148.17 544.76,-155.11"/>
</g>
<!-- Node5 -->
<g id="node5" class="node">
<title>Node5</title>
<g id="a_node5"><a xlink:href="classutils_1_1Mutex.html#a59b2079dc7f803d49f78ac9c04406cd3" target="_top" xlink:title="Déverrouille le mutex. Cette méthode doit être appelée après avoir utiliser la ressource associée.">
<polygon fill="white" stroke="black" points="548.5,-76.5 548.5,-95.5 661.5,-95.5 661.5,-76.5 548.5,-76.5"/>
<text text-anchor="middle" x="605" y="-83.5" font-family="Helvetica,sans-Serif" font-size="10.00">utils::Mutex::unlock</text>
</a>
</g>
</g>
<!-- Node1&#45;&gt;Node5 -->
<g id="edge10" class="edge">
<title>Node1&#45;&gt;Node5</title>
<path fill="none" stroke="midnightblue" d="M153.21,-86C256.55,-86 440.08,-86 538.05,-86"/>
<polygon fill="midnightblue" stroke="midnightblue" points="538.13,-89.5 548.13,-86 538.13,-82.5 538.13,-89.5"/>
</g>
<!-- Node7 -->
<g id="node7" class="node">
<title>Node7</title>
<g id="a_node7"><a xlink:href="classlogs_1_1Logger.html#aa381165771d00a6a1e3aa9664bf6467f" target="_top" xlink:title="Trace un message de niveau INFO.">
<polygon fill="white" stroke="black" points="359.5,-38.5 359.5,-57.5 460.5,-57.5 460.5,-38.5 359.5,-38.5"/>
<text text-anchor="middle" x="410" y="-45.5" font-family="Helvetica,sans-Serif" font-size="10.00">logs::Logger::info</text>
</a>
</g>
</g>
<!-- Node1&#45;&gt;Node7 -->
<g id="edge6" class="edge">
<title>Node1&#45;&gt;Node7</title>
<path fill="none" stroke="midnightblue" d="M151.85,-76.49C164.25,-74.96 176.99,-73.41 189,-72 243.16,-65.65 304.9,-58.96 349.16,-54.26"/>
<polygon fill="midnightblue" stroke="midnightblue" points="349.59,-57.74 359.17,-53.2 348.86,-50.78 349.59,-57.74"/>
</g>
<!-- Node8 -->
<g id="node8" class="node">
<title>Node8</title>
<g id="a_node8"><a xlink:href="classSvgWriter.html#a0a4640b661160b29d991116a197f7aaf" target="_top" xlink:title="Retourne le logger principal du SVG.">
<polygon fill="white" stroke="black" points="189,-0.5 189,-19.5 290,-19.5 290,-0.5 189,-0.5"/>
<text text-anchor="middle" x="239.5" y="-7.5" font-family="Helvetica,sans-Serif" font-size="10.00">SvgWriter::logger</text>
</a>
</g>
</g>
<!-- Node1&#45;&gt;Node8 -->
<g id="edge9" class="edge">
<title>Node1&#45;&gt;Node8</title>
<path fill="none" stroke="midnightblue" d="M97.89,-76.37C125.96,-63.13 176.67,-39.19 208.91,-23.97"/>
<polygon fill="midnightblue" stroke="midnightblue" points="210.73,-26.98 218.27,-19.55 207.74,-20.65 210.73,-26.98"/>
</g>
<!-- Node3 -->
<g id="node3" class="node">
<title>Node3</title>
<g id="a_node3"><a xlink:href="classlogs_1_1Logger_1_1LoggerBuffer.html#a0e4fd77693fd899ec1b0670354f93a02" target="_top" xlink:title="Cette méthode valide le message en cours de construction et le transmet au Logger de référence.">
<polygon fill="white" stroke="black" points="326,-114.5 326,-133.5 494,-133.5 494,-114.5 326,-114.5"/>
<text text-anchor="middle" x="410" y="-121.5" font-family="Helvetica,sans-Serif" font-size="10.00">logs::Logger::LoggerBuffer::end</text>
</a>
</g>
</g>
<!-- Node2&#45;&gt;Node3 -->
<g id="edge2" class="edge">
<title>Node2&#45;&gt;Node3</title>
<path fill="none" stroke="midnightblue" d="M270.24,-124C283.15,-124 299.05,-124 315.43,-124"/>
<polygon fill="midnightblue" stroke="midnightblue" points="315.66,-127.5 325.66,-124 315.66,-120.5 315.66,-127.5"/>
</g>
<!-- Node3&#45;&gt;Node4 -->
<g id="edge3" class="edge">
<title>Node3&#45;&gt;Node4</title>
<path fill="none" stroke="midnightblue" d="M494.25,-132.2C511.07,-133.85 528.44,-135.56 544.26,-137.12"/>
<polygon fill="midnightblue" stroke="midnightblue" points="544.12,-140.62 554.41,-138.12 544.8,-133.66 544.12,-140.62"/>
</g>
<!-- Node3&#45;&gt;Node5 -->
<g id="edge4" class="edge">
<title>Node3&#45;&gt;Node5</title>
<path fill="none" stroke="midnightblue" d="M459.7,-114.41C485.86,-109.26 518.28,-102.88 545.77,-97.47"/>
<polygon fill="midnightblue" stroke="midnightblue" points="546.51,-100.89 555.65,-95.52 545.16,-94.02 546.51,-100.89"/>
</g>
<!-- Node6 -->
<g id="node6" class="node">
<title>Node6</title>
<g id="a_node6"><a xlink:href="classlogs_1_1Logger.html#afa535aaf4891e02c4ff7f84d372b5b1b" target="_top" xlink:title="Méthode générique de trace d&#39;un message.">
<polygon fill="white" stroke="black" points="530,-38.5 530,-57.5 680,-57.5 680,-38.5 530,-38.5"/>
<text text-anchor="middle" x="605" y="-45.5" font-family="Helvetica,sans-Serif" font-size="10.00">logs::Logger::writeMessage</text>
</a>
</g>
</g>
<!-- Node3&#45;&gt;Node6 -->
<g id="edge5" class="edge">
<title>Node3&#45;&gt;Node6</title>
<path fill="none" stroke="midnightblue" d="M428.28,-114.4C451.03,-102.06 492.54,-80.63 530,-67 536.77,-64.54 544,-62.26 551.18,-60.21"/>
<polygon fill="midnightblue" stroke="midnightblue" points="552.19,-63.56 560.91,-57.55 550.34,-56.81 552.19,-63.56"/>
</g>
<!-- Node7&#45;&gt;Node6 -->
<g id="edge7" class="edge">
<title>Node7&#45;&gt;Node6</title>
<path fill="none" stroke="midnightblue" d="M460.7,-48C478.66,-48 499.48,-48 519.59,-48"/>
<polygon fill="midnightblue" stroke="midnightblue" points="519.7,-51.5 529.7,-48 519.7,-44.5 519.7,-51.5"/>
</g>
</g>
</svg>
