<?xml version="1.0" encoding="UTF-8" standalone="no"?>
<!DOCTYPE svg PUBLIC "-//W3C//DTD SVG 1.1//EN"
 "http://www.w3.org/Graphics/SVG/1.1/DTD/svg11.dtd">
<!-- Generated by graphviz version 2.43.0 (0)
 -->
<!-- Title: IAbyPath::logger Pages: 1 -->
<svg width="1281pt" height="590pt"
 viewBox="0.00 0.00 1281.00 589.50" xmlns="http://www.w3.org/2000/svg" xmlns:xlink="http://www.w3.org/1999/xlink">
<g id="graph0" class="graph" transform="scale(1 1) rotate(0) translate(4 585.5)">
<title>IAbyPath::logger</title>
<polygon fill="white" stroke="transparent" points="-4,4 -4,-585.5 1277,-585.5 1277,4 -4,4"/>
<!-- Node1 -->
<g id="node1" class="node">
<title>Node1</title>
<g id="a_node1"><a xlink:title="Retourne le Logger associé à la classe IAbyPath.">
<polygon fill="#bfbfbf" stroke="black" points="1177,-339.5 1177,-358.5 1273,-358.5 1273,-339.5 1177,-339.5"/>
<text text-anchor="middle" x="1225" y="-346.5" font-family="Helvetica,sans-Serif" font-size="10.00">IAbyPath::logger</text>
</a>
</g>
</g>
<!-- Node2 -->
<g id="node2" class="node">
<title>Node2</title>
<g id="a_node2"><a xlink:href="classIAbyPath.html#a36763cca0b7005fddde021c35f054dc7" target="_top" xlink:title=" ">
<polygon fill="white" stroke="black" points="984,-529.5 984,-548.5 1141,-548.5 1141,-529.5 984,-529.5"/>
<text text-anchor="middle" x="1062.5" y="-536.5" font-family="Helvetica,sans-Serif" font-size="10.00">IAbyPath::doPathBackwardTo</text>
</a>
</g>
</g>
<!-- Node1&#45;&gt;Node2 -->
<g id="edge1" class="edge">
<title>Node1&#45;&gt;Node2</title>
<path fill="none" stroke="midnightblue" d="M1219.66,-368.3C1210.88,-402.83 1187.77,-475.3 1141,-515 1133.59,-521.29 1124.54,-525.93 1115.28,-529.36"/>
<polygon fill="midnightblue" stroke="midnightblue" points="1223.08,-369.05 1222.01,-358.51 1216.27,-367.41 1223.08,-369.05"/>
</g>
<!-- Node3 -->
<g id="node3" class="node">
<title>Node3</title>
<g id="a_node3"><a xlink:href="classIAbyPath.html#acc586e1ba62ffb7a21087a5ca4d2f131" target="_top" xlink:title=" ">
<polygon fill="white" stroke="black" points="768,-516.5 768,-535.5 945,-535.5 945,-516.5 768,-516.5"/>
<text text-anchor="middle" x="856.5" y="-523.5" font-family="Helvetica,sans-Serif" font-size="10.00">IAbyPath::whileMoveBackwardTo</text>
</a>
</g>
</g>
<!-- Node1&#45;&gt;Node3 -->
<g id="edge43" class="edge">
<title>Node1&#45;&gt;Node3</title>
<path fill="none" stroke="midnightblue" d="M1216.26,-368C1204.3,-394.8 1178.71,-443.19 1141,-468 1108,-489.71 1008.57,-506.63 936.78,-516.46"/>
<polygon fill="midnightblue" stroke="midnightblue" points="1219.57,-369.15 1220.29,-358.58 1213.14,-366.39 1219.57,-369.15"/>
</g>
<!-- Node6 -->
<g id="node6" class="node">
<title>Node6</title>
<g id="a_node6"><a xlink:href="classIAbyPath.html#ab1f1155d4a5565efa55a0c11b8a1abfa" target="_top" xlink:title=" ">
<polygon fill="white" stroke="black" points="988.5,-260.5 988.5,-279.5 1136.5,-279.5 1136.5,-260.5 988.5,-260.5"/>
<text text-anchor="middle" x="1062.5" y="-267.5" font-family="Helvetica,sans-Serif" font-size="10.00">IAbyPath::doPathForwardTo</text>
</a>
</g>
</g>
<!-- Node1&#45;&gt;Node6 -->
<g id="edge5" class="edge">
<title>Node1&#45;&gt;Node6</title>
<path fill="none" stroke="midnightblue" d="M1202.44,-333.6C1186.12,-322.43 1162.86,-307.49 1141,-297 1126.74,-290.16 1110.28,-284.17 1096.2,-279.59"/>
<polygon fill="midnightblue" stroke="midnightblue" points="1200.53,-336.54 1210.73,-339.37 1204.52,-330.79 1200.53,-336.54"/>
</g>
<!-- Node12 -->
<g id="node12" class="node">
<title>Node12</title>
<g id="a_node12"><a xlink:href="classIAbyPath.html#aa2a96904ea74078d56dad53979b1d999" target="_top" xlink:title=" ">
<polygon fill="white" stroke="black" points="772.5,-418.5 772.5,-437.5 940.5,-437.5 940.5,-418.5 772.5,-418.5"/>
<text text-anchor="middle" x="856.5" y="-425.5" font-family="Helvetica,sans-Serif" font-size="10.00">IAbyPath::whileMoveForwardTo</text>
</a>
</g>
</g>
<!-- Node1&#45;&gt;Node12 -->
<g id="edge44" class="edge">
<title>Node1&#45;&gt;Node12</title>
<path fill="none" stroke="midnightblue" d="M1205.87,-365.68C1190.03,-379.15 1165.75,-397.25 1141,-406 1076.42,-428.82 998.56,-433.36 940.79,-432.74"/>
<polygon fill="midnightblue" stroke="midnightblue" points="1208.54,-367.99 1213.75,-358.76 1203.93,-362.73 1208.54,-367.99"/>
</g>
<!-- Node20 -->
<g id="node20" class="node">
<title>Node20</title>
<g id="a_node20"><a xlink:href="classIAbyPath.html#a1201b02e0eaedd1edd2b806b82ec8fad" target="_top" xlink:title=" ">
<polygon fill="white" stroke="black" points="800,-301.5 800,-320.5 913,-320.5 913,-301.5 800,-301.5"/>
<text text-anchor="middle" x="856.5" y="-308.5" font-family="Helvetica,sans-Serif" font-size="10.00">IAbyPath::goToZone</text>
</a>
</g>
</g>
<!-- Node1&#45;&gt;Node20 -->
<g id="edge23" class="edge">
<title>Node1&#45;&gt;Node20</title>
<path fill="none" stroke="midnightblue" d="M1166.72,-338.7C1158.12,-337.34 1149.34,-336.05 1141,-335 1062.1,-325.02 970.31,-318.1 913.05,-314.34"/>
<polygon fill="midnightblue" stroke="midnightblue" points="1166.26,-342.18 1176.7,-340.33 1167.39,-335.27 1166.26,-342.18"/>
</g>
<!-- Node21 -->
<g id="node21" class="node">
<title>Node21</title>
<g id="a_node21"><a xlink:href="classIAbyPath.html#a7677d8a2c19d0c55b7a2dc3682d5b516" target="_top" xlink:title=" ">
<polygon fill="white" stroke="black" points="578,-310.5 578,-329.5 713,-329.5 713,-310.5 578,-310.5"/>
<text text-anchor="middle" x="645.5" y="-317.5" font-family="Helvetica,sans-Serif" font-size="10.00">IAbyPath::ia_createZone</text>
</a>
</g>
</g>
<!-- Node1&#45;&gt;Node21 -->
<g id="edge28" class="edge">
<title>Node1&#45;&gt;Node21</title>
<path fill="none" stroke="midnightblue" d="M1166.54,-347.41C1079.58,-344.83 909.37,-339.08 765,-330 748.21,-328.94 730.1,-327.55 713.21,-326.13"/>
<polygon fill="midnightblue" stroke="midnightblue" points="1166.62,-350.92 1176.72,-347.71 1166.83,-343.92 1166.62,-350.92"/>
</g>
<!-- Node22 -->
<g id="node22" class="node">
<title>Node22</title>
<g id="a_node22"><a xlink:href="classIAbyPath.html#a6cab060ab9536f67d1e7b222c82de780" target="_top" xlink:title=" ">
<polygon fill="white" stroke="black" points="997,-107.5 997,-126.5 1128,-126.5 1128,-107.5 997,-107.5"/>
<text text-anchor="middle" x="1062.5" y="-114.5" font-family="Helvetica,sans-Serif" font-size="10.00">IAbyPath::ia_getZoneAt</text>
</a>
</g>
</g>
<!-- Node1&#45;&gt;Node22 -->
<g id="edge32" class="edge">
<title>Node1&#45;&gt;Node22</title>
<path fill="none" stroke="midnightblue" d="M1220.35,-329.36C1212.34,-291.25 1189.91,-206.5 1141,-155 1128.51,-141.85 1110.52,-132.64 1095.01,-126.59"/>
<polygon fill="midnightblue" stroke="midnightblue" points="1216.92,-330.08 1222.31,-339.21 1223.79,-328.72 1216.92,-330.08"/>
</g>
<!-- Node24 -->
<g id="node24" class="node">
<title>Node24</title>
<g id="a_node24"><a xlink:href="classIAbyPath.html#ac0ec21dccd4242021490415071acd8e1" target="_top" xlink:title=" ">
<polygon fill="white" stroke="black" points="999,-377.5 999,-396.5 1126,-396.5 1126,-377.5 999,-377.5"/>
<text text-anchor="middle" x="1062.5" y="-384.5" font-family="Helvetica,sans-Serif" font-size="10.00">IAbyPath::ia_printZone</text>
</a>
</g>
</g>
<!-- Node1&#45;&gt;Node24 -->
<g id="edge34" class="edge">
<title>Node1&#45;&gt;Node24</title>
<path fill="none" stroke="midnightblue" d="M1173.75,-360.9C1151.19,-366.24 1124.94,-372.45 1103.71,-377.48"/>
<polygon fill="midnightblue" stroke="midnightblue" points="1174.57,-364.3 1183.5,-358.59 1172.96,-357.49 1174.57,-364.3"/>
</g>
<!-- Node25 -->
<g id="node25" class="node">
<title>Node25</title>
<g id="a_node25"><a xlink:href="classIAbyPath.html#a0c7e960bbc87c86d716ac5aaa7da986a" target="_top" xlink:title=" ">
<polygon fill="white" stroke="black" points="1011.5,-164.5 1011.5,-183.5 1113.5,-183.5 1113.5,-164.5 1011.5,-164.5"/>
<text text-anchor="middle" x="1062.5" y="-171.5" font-family="Helvetica,sans-Serif" font-size="10.00">IAbyPath::ia_start</text>
</a>
</g>
</g>
<!-- Node1&#45;&gt;Node25 -->
<g id="edge36" class="edge">
<title>Node1&#45;&gt;Node25</title>
<path fill="none" stroke="midnightblue" d="M1209.86,-331.4C1193.68,-311.48 1166.17,-278.25 1141,-251 1117.84,-225.92 1088.93,-198.04 1073.81,-183.7"/>
<polygon fill="midnightblue" stroke="midnightblue" points="1207.24,-333.73 1216.25,-339.31 1212.69,-329.33 1207.24,-333.73"/>
</g>
<!-- Node27 -->
<g id="node27" class="node">
<title>Node27</title>
<g id="a_node27"><a xlink:href="classIAbyPath.html#af470d678e57b5c6362fdcf70a856a489" target="_top" xlink:title=" ">
<polygon fill="white" stroke="black" points="1015,-44.5 1015,-63.5 1110,-63.5 1110,-44.5 1015,-44.5"/>
<text text-anchor="middle" x="1062.5" y="-51.5" font-family="Helvetica,sans-Serif" font-size="10.00">IAbyPath::toSVG</text>
</a>
</g>
</g>
<!-- Node1&#45;&gt;Node27 -->
<g id="edge39" class="edge">
<title>Node1&#45;&gt;Node27</title>
<path fill="none" stroke="midnightblue" d="M1222.25,-329.08C1217.3,-283.35 1199.49,-169.32 1141,-98 1127.85,-81.97 1107.23,-70.67 1090.57,-63.53"/>
<polygon fill="midnightblue" stroke="midnightblue" points="1218.78,-329.56 1223.25,-339.16 1225.75,-328.87 1218.78,-329.56"/>
</g>
<!-- Node31 -->
<g id="node31" class="node">
<title>Node31</title>
<g id="a_node31"><a xlink:href="classIAbyPath.html#a42570f6bc87216c2ac5d028ad596fe02" target="_top" xlink:title=" ">
<polygon fill="white" stroke="black" points="776,-472.5 776,-491.5 937,-491.5 937,-472.5 776,-472.5"/>
<text text-anchor="middle" x="856.5" y="-479.5" font-family="Helvetica,sans-Serif" font-size="10.00">IAbyPath::whileMoveRotateTo</text>
</a>
</g>
</g>
<!-- Node1&#45;&gt;Node31 -->
<g id="edge45" class="edge">
<title>Node1&#45;&gt;Node31</title>
<path fill="none" stroke="midnightblue" d="M1211.5,-366.86C1196.92,-386.21 1170.96,-416.4 1141,-432 1077.5,-465.06 996.29,-476.78 937.08,-480.69"/>
<polygon fill="midnightblue" stroke="midnightblue" points="1214.47,-368.72 1217.54,-358.58 1208.82,-364.6 1214.47,-368.72"/>
</g>
<!-- Node2&#45;&gt;Node3 -->
<g id="edge2" class="edge">
<title>Node2&#45;&gt;Node3</title>
<path fill="none" stroke="midnightblue" d="M973.65,-533.4C964.23,-532.8 954.64,-532.19 945.22,-531.59"/>
<polygon fill="midnightblue" stroke="midnightblue" points="973.59,-536.91 983.79,-534.05 974.04,-529.92 973.59,-536.91"/>
</g>
<!-- Node4 -->
<g id="node4" class="node">
<title>Node4</title>
<g id="a_node4"><a xlink:href="classO__AsservXYRotateTest.html#a13ccb691e37bdddc94ca53b29311e39a" target="_top" xlink:title=" ">
<polygon fill="white" stroke="black" points="571,-512.5 571,-531.5 720,-531.5 720,-512.5 571,-512.5"/>
<text text-anchor="middle" x="645.5" y="-519.5" font-family="Helvetica,sans-Serif" font-size="10.00">O_AsservXYRotateTest::run</text>
</a>
</g>
</g>
<!-- Node3&#45;&gt;Node4 -->
<g id="edge3" class="edge">
<title>Node3&#45;&gt;Node4</title>
<path fill="none" stroke="midnightblue" d="M757.68,-524.13C745.04,-523.89 732.27,-523.64 720.11,-523.41"/>
<polygon fill="midnightblue" stroke="midnightblue" points="757.71,-527.63 767.77,-524.32 757.84,-520.63 757.71,-527.63"/>
</g>
<!-- Node5 -->
<g id="node5" class="node">
<title>Node5</title>
<g id="a_node5"><a xlink:href="classIAbyPath.html#a9535c82f137778cc6cd4b159fe3d58ea" target="_top" xlink:title=" ">
<polygon fill="white" stroke="black" points="562,-551 562,-581 729,-581 729,-551 562,-551"/>
<text text-anchor="start" x="570" y="-569" font-family="Helvetica,sans-Serif" font-size="10.00">IAbyPath::whileMoveBackward</text>
<text text-anchor="middle" x="645.5" y="-558" font-family="Helvetica,sans-Serif" font-size="10.00">AndRotateTo</text>
</a>
</g>
</g>
<!-- Node3&#45;&gt;Node5 -->
<g id="edge4" class="edge">
<title>Node3&#45;&gt;Node5</title>
<path fill="none" stroke="midnightblue" d="M795.81,-537.42C773.75,-541.65 748.39,-546.5 724.9,-550.99"/>
<polygon fill="midnightblue" stroke="midnightblue" points="796.54,-540.85 805.7,-535.53 795.23,-533.97 796.54,-540.85"/>
</g>
<!-- Node7 -->
<g id="node7" class="node">
<title>Node7</title>
<g id="a_node7"><a xlink:href="classIAbyPath.html#ab95592ae87c3f666835d3fbdac8c5ffd" target="_top" xlink:title=" ">
<polygon fill="white" stroke="black" points="778.5,-252 778.5,-282 934.5,-282 934.5,-252 778.5,-252"/>
<text text-anchor="start" x="786.5" y="-270" font-family="Helvetica,sans-Serif" font-size="10.00">IAbyPath::doPathForwardAnd</text>
<text text-anchor="middle" x="856.5" y="-259" font-family="Helvetica,sans-Serif" font-size="10.00">FaceTo</text>
</a>
</g>
</g>
<!-- Node6&#45;&gt;Node7 -->
<g id="edge6" class="edge">
<title>Node6&#45;&gt;Node7</title>
<path fill="none" stroke="midnightblue" d="M978.05,-268.77C963.66,-268.56 948.76,-268.34 934.54,-268.13"/>
<polygon fill="midnightblue" stroke="midnightblue" points="978.38,-272.28 988.43,-268.93 978.48,-265.28 978.38,-272.28"/>
</g>
<!-- Node8 -->
<g id="node8" class="node">
<title>Node8</title>
<g id="a_node8"><a xlink:href="classIAbyPath.html#a00b7b125584bda7731696dfd5069b17c" target="_top" xlink:title=" ">
<polygon fill="white" stroke="black" points="778.5,-203 778.5,-233 934.5,-233 934.5,-203 778.5,-203"/>
<text text-anchor="start" x="786.5" y="-221" font-family="Helvetica,sans-Serif" font-size="10.00">IAbyPath::doPathForwardAnd</text>
<text text-anchor="middle" x="856.5" y="-210" font-family="Helvetica,sans-Serif" font-size="10.00">RotateTo</text>
</a>
</g>
</g>
<!-- Node6&#45;&gt;Node8 -->
<g id="edge7" class="edge">
<title>Node6&#45;&gt;Node8</title>
<path fill="none" stroke="midnightblue" d="M1014.19,-257.94C985.14,-250.54 947.7,-240.99 916.71,-233.09"/>
<polygon fill="midnightblue" stroke="midnightblue" points="1013.53,-261.38 1024.08,-260.46 1015.26,-254.6 1013.53,-261.38"/>
</g>
<!-- Node6&#45;&gt;Node12 -->
<g id="edge12" class="edge">
<title>Node6&#45;&gt;Node12</title>
<path fill="none" stroke="midnightblue" d="M1040.89,-285.96C998.71,-318.63 903.68,-392.24 869.79,-418.48"/>
<polygon fill="midnightblue" stroke="midnightblue" points="1043.28,-288.54 1049.05,-279.65 1039,-283 1043.28,-288.54"/>
</g>
<!-- Node9 -->
<g id="node9" class="node">
<title>Node9</title>
<g id="a_node9"><a xlink:href="O__IAbyPathTest_8cpp.html#ac1055b8eb7025052d58ebaf15869a480" target="_top" xlink:title=" ">
<polygon fill="white" stroke="black" points="579,-234.5 579,-253.5 712,-253.5 712,-234.5 579,-234.5"/>
<text text-anchor="middle" x="645.5" y="-241.5" font-family="Helvetica,sans-Serif" font-size="10.00">O_IAbyPathTest_action1</text>
</a>
</g>
</g>
<!-- Node8&#45;&gt;Node9 -->
<g id="edge8" class="edge">
<title>Node8&#45;&gt;Node9</title>
<path fill="none" stroke="midnightblue" d="M768.23,-228.86C749.44,-231.19 729.89,-233.63 712.09,-235.84"/>
<polygon fill="midnightblue" stroke="midnightblue" points="768.78,-232.32 778.27,-227.61 767.91,-225.37 768.78,-232.32"/>
</g>
<!-- Node11 -->
<g id="node11" class="node">
<title>Node11</title>
<g id="a_node11"><a xlink:href="O__IAbyPathTest_8cpp.html#aafb960063ea3193551e7ba63626e2561" target="_top" xlink:title=" ">
<polygon fill="white" stroke="black" points="578.5,-196.5 578.5,-215.5 712.5,-215.5 712.5,-196.5 578.5,-196.5"/>
<text text-anchor="middle" x="645.5" y="-203.5" font-family="Helvetica,sans-Serif" font-size="10.00">O_IAByPathTest_action2</text>
</a>
</g>
</g>
<!-- Node8&#45;&gt;Node11 -->
<g id="edge10" class="edge">
<title>Node8&#45;&gt;Node11</title>
<path fill="none" stroke="midnightblue" d="M768.08,-212.98C749.57,-211.92 730.33,-210.81 712.77,-209.8"/>
<polygon fill="midnightblue" stroke="midnightblue" points="768.09,-216.49 778.27,-213.57 768.49,-209.5 768.09,-216.49"/>
</g>
<!-- Node10 -->
<g id="node10" class="node">
<title>Node10</title>
<g id="a_node10"><a xlink:href="classO__IAByPathTest.html#abedd21fde4835d641e6aa3f8e1c6581f" target="_top" xlink:title="Configure les activités de l&#39;IA pour le test.">
<polygon fill="white" stroke="black" points="390,-215.5 390,-234.5 526,-234.5 526,-215.5 390,-215.5"/>
<text text-anchor="middle" x="458" y="-222.5" font-family="Helvetica,sans-Serif" font-size="10.00">O_IAByPathTest::IASetup</text>
</a>
</g>
</g>
<!-- Node9&#45;&gt;Node10 -->
<g id="edge9" class="edge">
<title>Node9&#45;&gt;Node10</title>
<path fill="none" stroke="midnightblue" d="M568.69,-236.23C554.59,-234.79 539.95,-233.29 526.14,-231.88"/>
<polygon fill="midnightblue" stroke="midnightblue" points="568.53,-239.74 578.84,-237.27 569.25,-232.77 568.53,-239.74"/>
</g>
<!-- Node11&#45;&gt;Node10 -->
<g id="edge11" class="edge">
<title>Node11&#45;&gt;Node10</title>
<path fill="none" stroke="midnightblue" d="M568.25,-213.81C554.27,-215.24 539.78,-216.73 526.1,-218.13"/>
<polygon fill="midnightblue" stroke="midnightblue" points="568.72,-217.28 578.32,-212.78 568.01,-210.32 568.72,-217.28"/>
</g>
<!-- Node12&#45;&gt;Node4 -->
<g id="edge15" class="edge">
<title>Node12&#45;&gt;Node4</title>
<path fill="none" stroke="midnightblue" d="M809.99,-440.9C794.91,-446.36 778.54,-453.67 765,-463 745.31,-476.57 749.61,-490.86 729,-503 722.41,-506.88 715.1,-509.96 707.62,-512.42"/>
<polygon fill="midnightblue" stroke="midnightblue" points="811.35,-444.13 819.67,-437.57 809.07,-437.51 811.35,-444.13"/>
</g>
<!-- Node13 -->
<g id="node13" class="node">
<title>Node13</title>
<g id="a_node13"><a xlink:href="O__State__DecisionMakerIA_8cpp.html#a1cbc5f5cba5f72b993c68f4aad4473f7" target="_top" xlink:title="Action de poussée de la prise en zone basse.">
<polygon fill="white" stroke="black" points="406,-424.5 406,-443.5 510,-443.5 510,-424.5 406,-424.5"/>
<text text-anchor="middle" x="458" y="-431.5" font-family="Helvetica,sans-Serif" font-size="10.00">O_push_prise_bas</text>
</a>
</g>
</g>
<!-- Node12&#45;&gt;Node13 -->
<g id="edge13" class="edge">
<title>Node12&#45;&gt;Node13</title>
<path fill="none" stroke="midnightblue" d="M761.98,-429.42C683.31,-430.61 573.79,-432.26 510.25,-433.22"/>
<polygon fill="midnightblue" stroke="midnightblue" points="762.43,-432.91 772.38,-429.26 762.33,-425.91 762.43,-432.91"/>
</g>
<!-- Node14 -->
<g id="node14" class="node">
<title>Node14</title>
<g id="a_node14"><a xlink:href="classO__AsservTest.html#a87e2ffa360e3e12ff5c7b81b1952a04f" target="_top" xlink:title=" ">
<polygon fill="white" stroke="black" points="593.5,-386.5 593.5,-405.5 697.5,-405.5 697.5,-386.5 593.5,-386.5"/>
<text text-anchor="middle" x="645.5" y="-393.5" font-family="Helvetica,sans-Serif" font-size="10.00">O_AsservTest::run</text>
</a>
</g>
</g>
<!-- Node12&#45;&gt;Node14 -->
<g id="edge14" class="edge">
<title>Node12&#45;&gt;Node14</title>
<path fill="none" stroke="midnightblue" d="M783.14,-416.92C754.93,-412.6 723.25,-407.75 697.51,-403.81"/>
<polygon fill="midnightblue" stroke="midnightblue" points="782.94,-420.43 793.36,-418.49 784,-413.51 782.94,-420.43"/>
</g>
<!-- Node15 -->
<g id="node15" class="node">
<title>Node15</title>
<g id="a_node15"><a xlink:href="classIAbyPath.html#a3f27b793f84340c99ca33e12c2380bb4" target="_top" xlink:title=" ">
<polygon fill="white" stroke="black" points="566.5,-463 566.5,-493 724.5,-493 724.5,-463 566.5,-463"/>
<text text-anchor="start" x="574.5" y="-481" font-family="Helvetica,sans-Serif" font-size="10.00">IAbyPath::whileMoveForward</text>
<text text-anchor="middle" x="645.5" y="-470" font-family="Helvetica,sans-Serif" font-size="10.00">AndRotateTo</text>
</a>
</g>
</g>
<!-- Node12&#45;&gt;Node15 -->
<g id="edge16" class="edge">
<title>Node12&#45;&gt;Node15</title>
<path fill="none" stroke="midnightblue" d="M805.85,-439.88C777.02,-446.77 740.43,-455.53 709.58,-462.91"/>
<polygon fill="midnightblue" stroke="midnightblue" points="806.79,-443.25 815.7,-437.52 805.16,-436.45 806.79,-443.25"/>
</g>
<!-- Node15&#45;&gt;Node13 -->
<g id="edge22" class="edge">
<title>Node15&#45;&gt;Node13</title>
<path fill="none" stroke="midnightblue" d="M571.16,-460.6C546.6,-454.78 520.15,-448.5 499.1,-443.51"/>
<polygon fill="midnightblue" stroke="midnightblue" points="570.64,-464.08 581.18,-462.98 572.26,-457.27 570.64,-464.08"/>
</g>
<!-- Node16 -->
<g id="node16" class="node">
<title>Node16</title>
<g id="a_node16"><a xlink:href="O__State__DecisionMakerIA_8cpp.html#a6af4b40e5e676265dd688e0004be0ff6" target="_top" xlink:title="Action de fin de match : rejoint la zone de fin en haut de table.">
<polygon fill="white" stroke="black" points="398.5,-291.5 398.5,-310.5 517.5,-310.5 517.5,-291.5 398.5,-291.5"/>
<text text-anchor="middle" x="458" y="-298.5" font-family="Helvetica,sans-Serif" font-size="10.00">O_end_of_match_top</text>
</a>
</g>
</g>
<!-- Node15&#45;&gt;Node16 -->
<g id="edge17" class="edge">
<title>Node15&#45;&gt;Node16</title>
<path fill="none" stroke="midnightblue" d="M614.11,-456.87C598.05,-445.19 578.33,-430.04 562,-415 523.34,-379.41 483.19,-331.09 466.73,-310.7"/>
<polygon fill="midnightblue" stroke="midnightblue" points="612.45,-459.98 622.62,-462.97 616.53,-454.3 612.45,-459.98"/>
</g>
<!-- Node17 -->
<g id="node17" class="node">
<title>Node17</title>
<g id="a_node17"><a xlink:href="classO__State__DecisionMakerIA.html#a9b35f6bac1a5602ec2a711fa280be4a6" target="_top" xlink:title="Configure les activités pour les zones de jeu du match.">
<polygon fill="white" stroke="black" points="195,-297 195,-327 337,-327 337,-297 195,-297"/>
<text text-anchor="start" x="203" y="-315" font-family="Helvetica,sans-Serif" font-size="10.00">O_State_DecisionMakerIA</text>
<text text-anchor="middle" x="266" y="-304" font-family="Helvetica,sans-Serif" font-size="10.00">::IASetupActivitiesZone</text>
</a>
</g>
</g>
<!-- Node16&#45;&gt;Node17 -->
<g id="edge18" class="edge">
<title>Node16&#45;&gt;Node17</title>
<path fill="none" stroke="midnightblue" d="M388.24,-304.98C371.59,-305.94 353.77,-306.98 337.05,-307.94"/>
<polygon fill="midnightblue" stroke="midnightblue" points="388.66,-308.46 398.44,-304.39 388.26,-301.47 388.66,-308.46"/>
</g>
<!-- Node19 -->
<g id="node19" class="node">
<title>Node19</title>
<g id="a_node19"><a xlink:href="classO__State__DecisionMakerIA.html#a8bd1c4d72bec8768c7c7c15bd2e665d8" target="_top" xlink:title="Configure les activités pour le mode test de la table.">
<polygon fill="white" stroke="black" points="178,-248 178,-278 354,-278 354,-248 178,-248"/>
<text text-anchor="start" x="186" y="-266" font-family="Helvetica,sans-Serif" font-size="10.00">O_State_DecisionMakerIA</text>
<text text-anchor="middle" x="266" y="-255" font-family="Helvetica,sans-Serif" font-size="10.00">::IASetupActivitiesZoneTableTest</text>
</a>
</g>
</g>
<!-- Node16&#45;&gt;Node19 -->
<g id="edge20" class="edge">
<title>Node16&#45;&gt;Node19</title>
<path fill="none" stroke="midnightblue" d="M399.07,-289.41C381.17,-285.83 361.19,-281.84 342.3,-278.06"/>
<polygon fill="midnightblue" stroke="midnightblue" points="398.56,-292.88 409.05,-291.41 399.94,-286.02 398.56,-292.88"/>
</g>
<!-- Node18 -->
<g id="node18" class="node">
<title>Node18</title>
<g id="a_node18"><a xlink:href="classO__State__DecisionMakerIA.html#a96d1f2a7618d607fd10cc51b9111e653" target="_top" xlink:title="Execute l&#39;action.">
<polygon fill="white" stroke="black" points="0,-248 0,-278 142,-278 142,-248 0,-248"/>
<text text-anchor="start" x="8" y="-266" font-family="Helvetica,sans-Serif" font-size="10.00">O_State_DecisionMakerIA</text>
<text text-anchor="middle" x="71" y="-255" font-family="Helvetica,sans-Serif" font-size="10.00">::execute</text>
</a>
</g>
</g>
<!-- Node17&#45;&gt;Node18 -->
<g id="edge19" class="edge">
<title>Node17&#45;&gt;Node18</title>
<path fill="none" stroke="midnightblue" d="M195.88,-294.45C174.68,-289.07 151.57,-283.2 131.11,-278.01"/>
<polygon fill="midnightblue" stroke="midnightblue" points="195.23,-297.9 205.78,-296.97 196.95,-291.11 195.23,-297.9"/>
</g>
<!-- Node19&#45;&gt;Node18 -->
<g id="edge21" class="edge">
<title>Node19&#45;&gt;Node18</title>
<path fill="none" stroke="midnightblue" d="M167.67,-263C159.02,-263 150.38,-263 142.02,-263"/>
<polygon fill="midnightblue" stroke="midnightblue" points="167.82,-266.5 177.82,-263 167.82,-259.5 167.82,-266.5"/>
</g>
<!-- Node20&#45;&gt;Node9 -->
<g id="edge25" class="edge">
<title>Node20&#45;&gt;Node9</title>
<path fill="none" stroke="midnightblue" d="M790.2,-300.42C781.57,-298.12 772.96,-295.34 765,-292 747.27,-284.56 746.43,-276.11 729,-268 716.29,-262.08 701.79,-257.28 688.53,-253.56"/>
<polygon fill="midnightblue" stroke="midnightblue" points="789.38,-303.82 799.92,-302.82 791.05,-297.02 789.38,-303.82"/>
</g>
<!-- Node20&#45;&gt;Node11 -->
<g id="edge26" class="edge">
<title>Node20&#45;&gt;Node11</title>
<path fill="none" stroke="midnightblue" d="M789.88,-304.39C780.96,-301.5 772.36,-297.51 765,-292 737.93,-271.75 755.87,-245.51 729,-225 723.98,-221.16 718.31,-218.08 712.37,-215.61"/>
<polygon fill="midnightblue" stroke="midnightblue" points="789.06,-307.79 799.63,-307.1 790.93,-301.05 789.06,-307.79"/>
</g>
<!-- Node20&#45;&gt;Node13 -->
<g id="edge27" class="edge">
<title>Node20&#45;&gt;Node13</title>
<path fill="none" stroke="midnightblue" d="M802.54,-322.71C719.55,-341.09 567.67,-374.85 562,-377 528.57,-389.71 492.71,-411.68 473.37,-424.31"/>
<polygon fill="midnightblue" stroke="midnightblue" points="803.3,-326.13 812.31,-320.55 801.78,-319.29 803.3,-326.13"/>
</g>
<!-- Node20&#45;&gt;Node16 -->
<g id="edge24" class="edge">
<title>Node20&#45;&gt;Node16</title>
<path fill="none" stroke="midnightblue" d="M789.8,-304.82C770.25,-303.24 748.78,-301.78 729,-301 656.28,-298.13 572.46,-298.74 517.75,-299.67"/>
<polygon fill="midnightblue" stroke="midnightblue" points="789.57,-308.31 799.82,-305.65 790.15,-301.33 789.57,-308.31"/>
</g>
<!-- Node21&#45;&gt;Node10 -->
<g id="edge29" class="edge">
<title>Node21&#45;&gt;Node10</title>
<path fill="none" stroke="midnightblue" d="M621.93,-304.65C598.62,-289.24 560.83,-265.48 526,-249 514.38,-243.5 501.15,-238.51 489.53,-234.52"/>
<polygon fill="midnightblue" stroke="midnightblue" points="620.15,-307.67 630.41,-310.31 624.04,-301.85 620.15,-307.67"/>
</g>
<!-- Node21&#45;&gt;Node17 -->
<g id="edge30" class="edge">
<title>Node21&#45;&gt;Node17</title>
<path fill="none" stroke="midnightblue" d="M567.58,-321.3C517.08,-321.83 449.6,-321.94 390,-320 372.89,-319.44 354.46,-318.45 337.21,-317.36"/>
<polygon fill="midnightblue" stroke="midnightblue" points="567.81,-324.8 577.77,-321.18 567.73,-317.8 567.81,-324.8"/>
</g>
<!-- Node21&#45;&gt;Node19 -->
<g id="edge31" class="edge">
<title>Node21&#45;&gt;Node19</title>
<path fill="none" stroke="midnightblue" d="M610.96,-306.89C587.53,-298.32 555.32,-287.69 526,-282 469.35,-271 404.6,-266.25 354.01,-264.25"/>
<polygon fill="midnightblue" stroke="midnightblue" points="609.84,-310.21 620.43,-310.42 612.28,-303.65 609.84,-310.21"/>
</g>
<!-- Node23 -->
<g id="node23" class="node">
<title>Node23</title>
<g id="a_node23"><a xlink:href="classIAbyPath.html#a64a783a903ae312698ed266f4100ccff" target="_top" xlink:title=" ">
<polygon fill="white" stroke="black" points="765,-88.5 765,-107.5 948,-107.5 948,-88.5 765,-88.5"/>
<text text-anchor="middle" x="856.5" y="-95.5" font-family="Helvetica,sans-Serif" font-size="10.00">IAbyPath::ia_getNearestZoneFrom</text>
</a>
</g>
</g>
<!-- Node22&#45;&gt;Node23 -->
<g id="edge33" class="edge">
<title>Node22&#45;&gt;Node23</title>
<path fill="none" stroke="midnightblue" d="M986.97,-110.06C974.33,-108.88 961.09,-107.65 948.09,-106.44"/>
<polygon fill="midnightblue" stroke="midnightblue" points="986.67,-113.55 996.95,-110.99 987.32,-106.58 986.67,-113.55"/>
</g>
<!-- Node24&#45;&gt;Node21 -->
<g id="edge35" class="edge">
<title>Node24&#45;&gt;Node21</title>
<path fill="none" stroke="midnightblue" d="M988.67,-386.5C928.16,-384.81 840.13,-379.36 765,-363 729.72,-355.32 690.69,-339.67 667.4,-329.52"/>
<polygon fill="midnightblue" stroke="midnightblue" points="988.81,-390.01 998.89,-386.76 988.98,-383.01 988.81,-390.01"/>
</g>
<!-- Node25&#45;&gt;Node18 -->
<g id="edge37" class="edge">
<title>Node25&#45;&gt;Node18</title>
<path fill="none" stroke="midnightblue" d="M1001.45,-162.76C984.24,-159.86 965.42,-157 948,-155 814.61,-139.67 780.77,-136 646.5,-136 646.5,-136 646.5,-136 457,-136 315.53,-136 158.87,-214.29 98.09,-247.93"/>
<polygon fill="midnightblue" stroke="midnightblue" points="1000.92,-166.22 1011.37,-164.47 1002.11,-159.32 1000.92,-166.22"/>
</g>
<!-- Node26 -->
<g id="node26" class="node">
<title>Node26</title>
<g id="a_node26"><a xlink:href="classO__IAByPathTest.html#a3f57f585ff1382a52bf7f79a28d43629" target="_top" xlink:title="Execute le test.">
<polygon fill="white" stroke="black" points="799.5,-164.5 799.5,-183.5 913.5,-183.5 913.5,-164.5 799.5,-164.5"/>
<text text-anchor="middle" x="856.5" y="-171.5" font-family="Helvetica,sans-Serif" font-size="10.00">O_IAByPathTest::run</text>
</a>
</g>
</g>
<!-- Node25&#45;&gt;Node26 -->
<g id="edge38" class="edge">
<title>Node25&#45;&gt;Node26</title>
<path fill="none" stroke="midnightblue" d="M1000.99,-174C973.31,-174 940.71,-174 913.59,-174"/>
<polygon fill="midnightblue" stroke="midnightblue" points="1001.33,-177.5 1011.33,-174 1001.33,-170.5 1001.33,-177.5"/>
</g>
<!-- Node28 -->
<g id="node28" class="node">
<title>Node28</title>
<g id="a_node28"><a xlink:href="classO__IAByPathTest.html#ad010b84a2684b7e16b75c98d6231e5ac" target="_top" xlink:title="Initialise le terrain de jeu (grille de navigation A*).">
<polygon fill="white" stroke="black" points="772,-0.5 772,-19.5 941,-19.5 941,-0.5 772,-0.5"/>
<text text-anchor="middle" x="856.5" y="-7.5" font-family="Helvetica,sans-Serif" font-size="10.00">O_IAByPathTest::initPlayground</text>
</a>
</g>
</g>
<!-- Node27&#45;&gt;Node28 -->
<g id="edge40" class="edge">
<title>Node27&#45;&gt;Node28</title>
<path fill="none" stroke="midnightblue" d="M1007.29,-42.31C974.29,-35.19 932.67,-26.21 901.68,-19.53"/>
<polygon fill="midnightblue" stroke="midnightblue" points="1006.72,-45.77 1017.24,-44.45 1008.2,-38.92 1006.72,-45.77"/>
</g>
<!-- Node29 -->
<g id="node29" class="node">
<title>Node29</title>
<g id="a_node29"><a xlink:href="classOPOS6UL__IAExtended.html#aeaa64a0f2c66aa082fc79e6fa77472ab" target="_top" xlink:title="Initialise le terrain de jeu (zones, obstacles, chemins).">
<polygon fill="white" stroke="black" points="795,-39 795,-69 918,-69 918,-39 795,-39"/>
<text text-anchor="start" x="803" y="-57" font-family="Helvetica,sans-Serif" font-size="10.00">OPOS6UL_IAExtended</text>
<text text-anchor="middle" x="856.5" y="-46" font-family="Helvetica,sans-Serif" font-size="10.00">::initPlayground</text>
</a>
</g>
</g>
<!-- Node27&#45;&gt;Node29 -->
<g id="edge41" class="edge">
<title>Node27&#45;&gt;Node29</title>
<path fill="none" stroke="midnightblue" d="M1004.9,-54C977.93,-54 945.65,-54 918.17,-54"/>
<polygon fill="midnightblue" stroke="midnightblue" points="1004.95,-57.5 1014.95,-54 1004.95,-50.5 1004.95,-57.5"/>
</g>
<!-- Node30 -->
<g id="node30" class="node">
<title>Node30</title>
<g id="a_node30"><a xlink:href="classOPOS6UL__IAExtended.html#a25b80fe3ad16f9481def0b7f939a5a3d" target="_top" xlink:title=" ">
<polygon fill="white" stroke="black" points="581,-39 581,-69 710,-69 710,-39 581,-39"/>
<text text-anchor="start" x="589" y="-57" font-family="Helvetica,sans-Serif" font-size="10.00">OPOS6UL_IAExtended</text>
<text text-anchor="middle" x="645.5" y="-46" font-family="Helvetica,sans-Serif" font-size="10.00">::OPOS6UL_IAExtended</text>
</a>
</g>
</g>
<!-- Node29&#45;&gt;Node30 -->
<g id="edge42" class="edge">
<title>Node29&#45;&gt;Node30</title>
<path fill="none" stroke="midnightblue" d="M784.63,-54C760.54,-54 733.79,-54 710.3,-54"/>
<polygon fill="midnightblue" stroke="midnightblue" points="784.77,-57.5 794.77,-54 784.77,-50.5 784.77,-57.5"/>
</g>
<!-- Node31&#45;&gt;Node4 -->
<g id="edge46" class="edge">
<title>Node31&#45;&gt;Node4</title>
<path fill="none" stroke="midnightblue" d="M795.74,-493.44C764.27,-499.46 726.12,-506.76 696.28,-512.47"/>
<polygon fill="midnightblue" stroke="midnightblue" points="796.54,-496.85 805.7,-491.53 795.23,-489.97 796.54,-496.85"/>
</g>
<!-- Node31&#45;&gt;Node5 -->
<g id="edge47" class="edge">
<title>Node31&#45;&gt;Node5</title>
<path fill="none" stroke="midnightblue" d="M794.31,-494.5C784.18,-497.8 774.04,-501.91 765,-507 745.83,-517.8 748.04,-529.96 729,-541 722.4,-544.83 715.15,-548.12 707.78,-550.95"/>
<polygon fill="midnightblue" stroke="midnightblue" points="795.43,-497.82 803.99,-491.59 793.41,-491.12 795.43,-497.82"/>
</g>
<!-- Node31&#45;&gt;Node15 -->
<g id="edge48" class="edge">
<title>Node31&#45;&gt;Node15</title>
<path fill="none" stroke="midnightblue" d="M765.53,-480.28C751.87,-480.02 737.88,-479.75 724.51,-479.49"/>
<polygon fill="midnightblue" stroke="midnightblue" points="765.82,-483.78 775.89,-480.48 765.96,-476.79 765.82,-483.78"/>
</g>
</g>
</svg>
