<?xml version="1.0" encoding="UTF-8" standalone="no"?>
<!DOCTYPE svg PUBLIC "-//W3C//DTD SVG 1.1//EN"
 "http://www.w3.org/Graphics/SVG/1.1/DTD/svg11.dtd">
<!-- Generated by graphviz version 2.43.0 (0)
 -->
<!-- Title: test::ColorDriverManualTest Pages: 1 -->
<svg width="167pt" height="95pt"
 viewBox="0.00 0.00 166.50 95.00" xmlns="http://www.w3.org/2000/svg" xmlns:xlink="http://www.w3.org/1999/xlink">
<g id="graph0" class="graph" transform="scale(1 1) rotate(0) translate(4 91)">
<title>test::ColorDriverManualTest</title>
<polygon fill="white" stroke="transparent" points="-4,4 -4,-91 162.5,-91 162.5,4 -4,4"/>
<!-- Node1 -->
<g id="node1" class="node">
<title>Node1</title>
<g id="a_node1"><a xlink:title="Teste la classe ColorDriverManualTest.">
<polygon fill="#bfbfbf" stroke="black" points="0,-0.5 0,-19.5 152,-19.5 152,-0.5 0,-0.5"/>
<text text-anchor="middle" x="76" y="-7.5" font-family="Helvetica,sans-Serif" font-size="10.00">test::ColorDriverManualTest</text>
</a>
</g>
</g>
<!-- Node2 -->
<g id="node2" class="node">
<title>Node2</title>
<g id="a_node2"><a xlink:href="classUnitTest.html" target="_top" xlink:title="Cette classe permet de créer des tests unitaires.">
<polygon fill="white" stroke="black" points="5,-67.5 5,-86.5 61,-86.5 61,-67.5 5,-67.5"/>
<text text-anchor="middle" x="33" y="-74.5" font-family="Helvetica,sans-Serif" font-size="10.00">UnitTest</text>
</a>
</g>
</g>
<!-- Node2&#45;&gt;Node1 -->
<g id="edge1" class="edge">
<title>Node2&#45;&gt;Node1</title>
<path fill="none" stroke="midnightblue" d="M44.55,-58.53C52.88,-45.95 63.76,-29.51 70.29,-19.63"/>
<polygon fill="midnightblue" stroke="midnightblue" points="41.4,-56.96 38.8,-67.23 47.24,-60.82 41.4,-56.96"/>
</g>
<!-- Node3 -->
<g id="node3" class="node">
<title>Node3</title>
<g id="a_node3"><a xlink:href="classAColorDriver.html" target="_top" xlink:title="Interface abstraite du driver de capteur couleur.">
<polygon fill="white" stroke="black" points="79.5,-67.5 79.5,-86.5 158.5,-86.5 158.5,-67.5 79.5,-67.5"/>
<text text-anchor="middle" x="119" y="-74.5" font-family="Helvetica,sans-Serif" font-size="10.00">AColorDriver</text>
</a>
</g>
</g>
<!-- Node3&#45;&gt;Node1 -->
<g id="edge2" class="edge">
<title>Node3&#45;&gt;Node1</title>
<path fill="none" stroke="#9a32cd" stroke-dasharray="5,2" d="M107.45,-58.53C99.12,-45.95 88.24,-29.51 81.71,-19.63"/>
<polygon fill="#9a32cd" stroke="#9a32cd" points="104.76,-60.82 113.2,-67.23 110.6,-56.96 104.76,-60.82"/>
<text text-anchor="middle" x="128" y="-41" font-family="Helvetica,sans-Serif" font-size="10.00"> colordriver</text>
</g>
</g>
</svg>
