<?xml version="1.0" encoding="UTF-8" standalone="no"?>
<!DOCTYPE svg PUBLIC "-//W3C//DTD SVG 1.1//EN"
 "http://www.w3.org/Graphics/SVG/1.1/DTD/svg11.dtd">
<!-- Generated by graphviz version 2.43.0 (0)
 -->
<!-- Title: SvgWriterExtended Pages: 1 -->
<svg width="391pt" height="308pt"
 viewBox="0.00 0.00 390.50 308.00" xmlns="http://www.w3.org/2000/svg" xmlns:xlink="http://www.w3.org/1999/xlink">
<g id="graph0" class="graph" transform="scale(1 1) rotate(0) translate(4 304)">
<title>SvgWriterExtended</title>
<polygon fill="white" stroke="transparent" points="-4,4 -4,-304 386.5,-304 386.5,4 -4,4"/>
<!-- Node1 -->
<g id="node1" class="node">
<title>Node1</title>
<g id="a_node1"><a xlink:title=" ">
<polygon fill="#bfbfbf" stroke="black" points="101.5,-0.5 101.5,-19.5 211.5,-19.5 211.5,-0.5 101.5,-0.5"/>
<text text-anchor="middle" x="156.5" y="-7.5" font-family="Helvetica,sans-Serif" font-size="10.00">SvgWriterExtended</text>
</a>
</g>
</g>
<!-- Node2 -->
<g id="node2" class="node">
<title>Node2</title>
<g id="a_node2"><a xlink:href="classSvgWriter.html" target="_top" xlink:title="Wrapper pour la génération de fichier svg via le système de log.">
<polygon fill="white" stroke="black" points="200,-67.5 200,-86.5 265,-86.5 265,-67.5 200,-67.5"/>
<text text-anchor="middle" x="232.5" y="-74.5" font-family="Helvetica,sans-Serif" font-size="10.00">SvgWriter</text>
</a>
</g>
</g>
<!-- Node2&#45;&gt;Node1 -->
<g id="edge1" class="edge">
<title>Node2&#45;&gt;Node1</title>
<path fill="none" stroke="midnightblue" d="M214.73,-60.57C206.73,-53.65 197.16,-45.39 188.5,-38 181.31,-31.86 173.17,-25 166.9,-19.72"/>
<polygon fill="midnightblue" stroke="midnightblue" points="212.54,-63.31 222.39,-67.21 217.13,-58.02 212.54,-63.31"/>
</g>
<!-- Node3 -->
<g id="node3" class="node">
<title>Node3</title>
<g id="a_node3"><a xlink:href="classutils_1_1Mutex.html" target="_top" xlink:title="Implémentation d&#39;une gestion de mutex.">
<polygon fill="white" stroke="black" points="184.5,-151 184.5,-170 258.5,-170 258.5,-151 184.5,-151"/>
<text text-anchor="middle" x="221.5" y="-158" font-family="Helvetica,sans-Serif" font-size="10.00">utils::Mutex</text>
</a>
</g>
</g>
<!-- Node3&#45;&gt;Node2 -->
<g id="edge2" class="edge">
<title>Node3&#45;&gt;Node2</title>
<path fill="none" stroke="midnightblue" d="M228.86,-141.18C230.37,-136.62 231.73,-131.69 232.5,-127 234.79,-113.07 234.11,-96.6 233.35,-86.74"/>
<polygon fill="midnightblue" stroke="midnightblue" points="225.46,-140.28 225.28,-150.87 232.03,-142.7 225.46,-140.28"/>
</g>
<!-- Node9 -->
<g id="node9" class="node">
<title>Node9</title>
<g id="a_node9"><a xlink:href="classlogs_1_1Logger_1_1LoggerBuffer.html" target="_top" xlink:title="Classe de délégation pour faciliter la création des traces.">
<polygon fill="white" stroke="black" points="23.5,-67.5 23.5,-86.5 167.5,-86.5 167.5,-67.5 23.5,-67.5"/>
<text text-anchor="middle" x="95.5" y="-74.5" font-family="Helvetica,sans-Serif" font-size="10.00">logs::Logger::LoggerBuffer</text>
</a>
</g>
</g>
<!-- Node3&#45;&gt;Node9 -->
<g id="edge10" class="edge">
<title>Node3&#45;&gt;Node9</title>
<path fill="none" stroke="midnightblue" d="M221.37,-140.66C220.27,-128.88 216.89,-114.25 207.5,-105 196.67,-94.33 182.4,-87.62 167.69,-83.45"/>
<polygon fill="midnightblue" stroke="midnightblue" points="217.88,-140.98 221.84,-150.8 224.87,-140.65 217.88,-140.98"/>
</g>
<!-- Node4 -->
<g id="node4" class="node">
<title>Node4</title>
<g id="a_node4"><a xlink:href="classlogs_1_1Logger.html" target="_top" xlink:title="Classe de gestion des traces de l&#39;application.">
<polygon fill="white" stroke="black" points="88.5,-151 88.5,-170 164.5,-170 164.5,-151 88.5,-151"/>
<text text-anchor="middle" x="126.5" y="-158" font-family="Helvetica,sans-Serif" font-size="10.00">logs::Logger</text>
</a>
</g>
</g>
<!-- Node4&#45;&gt;Node2 -->
<g id="edge3" class="edge">
<title>Node4&#45;&gt;Node2</title>
<path fill="none" stroke="#9a32cd" stroke-dasharray="5,2" d="M131.23,-141.11C135.14,-129.31 141.81,-114.48 152.5,-105 165.66,-93.33 184.06,-86.67 199.9,-82.88"/>
<polygon fill="#9a32cd" stroke="#9a32cd" points="127.83,-140.27 128.38,-150.85 134.55,-142.24 127.83,-140.27"/>
<text text-anchor="middle" x="190.5" y="-119" font-family="Helvetica,sans-Serif" font-size="10.00"> fLogger</text>
<text text-anchor="middle" x="190.5" y="-108" font-family="Helvetica,sans-Serif" font-size="10.00">fLoggerSensors</text>
</g>
<!-- Node4&#45;&gt;Node9 -->
<g id="edge11" class="edge">
<title>Node4&#45;&gt;Node9</title>
<path fill="none" stroke="#9a32cd" stroke-dasharray="5,2" d="M89.47,-146.36C81.14,-141.59 73.34,-135.26 68.5,-127 63.56,-118.56 64.76,-114.03 68.5,-105 71.54,-97.65 77.67,-91.26 83.31,-86.54"/>
<polygon fill="#9a32cd" stroke="#9a32cd" points="88.09,-149.58 98.6,-150.94 91.23,-143.33 88.09,-149.58"/>
<text text-anchor="middle" x="88.5" y="-113.5" font-family="Helvetica,sans-Serif" font-size="10.00"> logger_</text>
</g>
<!-- Node5 -->
<g id="node5" class="node">
<title>Node5</title>
<g id="a_node5"><a xlink:href="classlogs_1_1Level.html" target="_top" xlink:title="Cette classe représente un niveau de trace.">
<polygon fill="white" stroke="black" points="0,-252 0,-271 69,-271 69,-252 0,-252"/>
<text text-anchor="middle" x="34.5" y="-259" font-family="Helvetica,sans-Serif" font-size="10.00">logs::Level</text>
</a>
</g>
</g>
<!-- Node5&#45;&gt;Node4 -->
<g id="edge4" class="edge">
<title>Node5&#45;&gt;Node4</title>
<path fill="none" stroke="#9a32cd" stroke-dasharray="5,2" d="M49.71,-244.13C69.44,-222.9 103.15,-186.62 118.49,-170.12"/>
<polygon fill="#9a32cd" stroke="#9a32cd" points="46.91,-242.01 42.66,-251.71 52.04,-246.77 46.91,-242.01"/>
<text text-anchor="middle" x="111" y="-197" font-family="Helvetica,sans-Serif" font-size="10.00"> level_</text>
</g>
<!-- Node5&#45;&gt;Node5 -->
<g id="edge5" class="edge">
<title>Node5&#45;&gt;Node5</title>
<path fill="none" stroke="#9a32cd" stroke-dasharray="5,2" d="M62.85,-272.92C75.77,-274.09 87,-270.28 87,-261.5 87,-250.48 69.31,-247.3 52.79,-251.94"/>
<polygon fill="#9a32cd" stroke="#9a32cd" points="63.26,-269.44 52.79,-271.06 61.99,-276.32 63.26,-269.44"/>
<text text-anchor="middle" x="105" y="-292" font-family="Helvetica,sans-Serif" font-size="10.00"> ALL</text>
<text text-anchor="middle" x="105" y="-281" font-family="Helvetica,sans-Serif" font-size="10.00">DEBUG</text>
<text text-anchor="middle" x="105" y="-270" font-family="Helvetica,sans-Serif" font-size="10.00">ERROR</text>
<text text-anchor="middle" x="105" y="-259" font-family="Helvetica,sans-Serif" font-size="10.00">INFO</text>
<text text-anchor="middle" x="105" y="-248" font-family="Helvetica,sans-Serif" font-size="10.00">NONE</text>
<text text-anchor="middle" x="105" y="-237" font-family="Helvetica,sans-Serif" font-size="10.00">TELEM</text>
<text text-anchor="middle" x="105" y="-226" font-family="Helvetica,sans-Serif" font-size="10.00">WARN</text>
</g>
<!-- Node5&#45;&gt;Node9 -->
<g id="edge12" class="edge">
<title>Node5&#45;&gt;Node9</title>
<path fill="none" stroke="#9a32cd" stroke-dasharray="5,2" d="M32.76,-241.74C30.84,-210.33 31.34,-146.43 61.5,-105 66.82,-97.69 74.63,-91.3 81.42,-86.57"/>
<polygon fill="#9a32cd" stroke="#9a32cd" points="29.27,-242.04 33.52,-251.75 36.25,-241.51 29.27,-242.04"/>
<text text-anchor="middle" x="59" y="-158" font-family="Helvetica,sans-Serif" font-size="10.00"> level_</text>
</g>
<!-- Node6 -->
<g id="node6" class="node">
<title>Node6</title>
<g id="a_node6"><a xlink:href="classlogs_1_1Appender.html" target="_top" xlink:title="Classe de gestion des flux de sortie pour les logs.">
<polygon fill="white" stroke="black" points="141,-252 141,-271 230,-271 230,-252 141,-252"/>
<text text-anchor="middle" x="185.5" y="-259" font-family="Helvetica,sans-Serif" font-size="10.00">logs::Appender</text>
</a>
</g>
</g>
<!-- Node6&#45;&gt;Node4 -->
<g id="edge6" class="edge">
<title>Node6&#45;&gt;Node4</title>
<path fill="none" stroke="#9a32cd" stroke-dasharray="5,2" d="M175.07,-242.99C162.33,-221.62 141.3,-186.33 131.64,-170.12"/>
<polygon fill="#9a32cd" stroke="#9a32cd" points="172.14,-244.92 180.26,-251.71 178.15,-241.33 172.14,-244.92"/>
<text text-anchor="middle" x="179" y="-197" font-family="Helvetica,sans-Serif" font-size="10.00"> appender_</text>
</g>
<!-- Node7 -->
<g id="node7" class="node">
<title>Node7</title>
<g id="a_node7"><a xlink:href="classutils_1_1PointerList.html" target="_top" xlink:title=" ">
<polygon fill="white" stroke="black" points="277,-145.5 277,-175.5 372,-175.5 372,-145.5 277,-145.5"/>
<text text-anchor="start" x="285" y="-163.5" font-family="Helvetica,sans-Serif" font-size="10.00">utils::PointerList</text>
<text text-anchor="middle" x="324.5" y="-152.5" font-family="Helvetica,sans-Serif" font-size="10.00">&lt; std::string &gt;</text>
</a>
</g>
</g>
<!-- Node7&#45;&gt;Node2 -->
<g id="edge7" class="edge">
<title>Node7&#45;&gt;Node2</title>
<path fill="none" stroke="#9a32cd" stroke-dasharray="5,2" d="M300.77,-138.48C281.71,-121.59 255.93,-98.75 242.14,-86.54"/>
<polygon fill="#9a32cd" stroke="#9a32cd" points="298.67,-141.29 308.47,-145.3 303.31,-136.05 298.67,-141.29"/>
<text text-anchor="middle" x="320" y="-113.5" font-family="Helvetica,sans-Serif" font-size="10.00"> symbol_list_</text>
</g>
<!-- Node8 -->
<g id="node8" class="node">
<title>Node8</title>
<g id="a_node8"><a xlink:title=" ">
<polygon fill="white" stroke="#bfbfbf" points="266.5,-241 266.5,-282 382.5,-282 382.5,-241 266.5,-241"/>
<text text-anchor="start" x="274.5" y="-270" font-family="Helvetica,sans-Serif" font-size="10.00">std::list&lt; std::string,</text>
<text text-anchor="start" x="274.5" y="-259" font-family="Helvetica,sans-Serif" font-size="10.00"> std::allocator&lt; std::</text>
<text text-anchor="middle" x="324.5" y="-248" font-family="Helvetica,sans-Serif" font-size="10.00">string &gt; &gt;</text>
</a>
</g>
</g>
<!-- Node8&#45;&gt;Node7 -->
<g id="edge8" class="edge">
<title>Node8&#45;&gt;Node7</title>
<path fill="none" stroke="midnightblue" d="M324.5,-230.77C324.5,-212.48 324.5,-189.89 324.5,-175.58"/>
<polygon fill="midnightblue" stroke="midnightblue" points="321,-230.94 324.5,-240.94 328,-230.94 321,-230.94"/>
</g>
<!-- Node9&#45;&gt;Node1 -->
<g id="edge9" class="edge">
<title>Node9&#45;&gt;Node1</title>
<path fill="none" stroke="#9a32cd" stroke-dasharray="5,2" d="M110.86,-59.63C122.79,-46.92 138.86,-29.8 148.4,-19.63"/>
<polygon fill="#9a32cd" stroke="#9a32cd" points="108.02,-57.55 103.73,-67.23 113.12,-62.34 108.02,-57.55"/>
<text text-anchor="middle" x="157.5" y="-41" font-family="Helvetica,sans-Serif" font-size="10.00"> fLogBuffer</text>
</g>
</g>
</svg>
