<?xml version="1.0" encoding="UTF-8" standalone="no"?>
<!DOCTYPE svg PUBLIC "-//W3C//DTD SVG 1.1//EN"
 "http://www.w3.org/Graphics/SVG/1.1/DTD/svg11.dtd">
<!-- Generated by graphviz version 2.43.0 (0)
 -->
<!-- Title: OPOS6UL_ActionsExtended::servos Pages: 1 -->
<svg width="902pt" height="600pt"
 viewBox="0.00 0.00 902.00 600.00" xmlns="http://www.w3.org/2000/svg" xmlns:xlink="http://www.w3.org/1999/xlink">
<g id="graph0" class="graph" transform="scale(1 1) rotate(0) translate(4 596)">
<title>OPOS6UL_ActionsExtended::servos</title>
<polygon fill="white" stroke="transparent" points="-4,4 -4,-596 898,-596 898,4 -4,4"/>
<!-- Node1 -->
<g id="node1" class="node">
<title>Node1</title>
<g id="a_node1"><a xlink:title="Cette methode retourne l&#39;objet servos.">
<polygon fill="#bfbfbf" stroke="black" points="745,-316.5 745,-346.5 894,-346.5 894,-316.5 745,-316.5"/>
<text text-anchor="start" x="753" y="-334.5" font-family="Helvetica,sans-Serif" font-size="10.00">OPOS6UL_ActionsExtended</text>
<text text-anchor="middle" x="819.5" y="-323.5" font-family="Helvetica,sans-Serif" font-size="10.00">::servos</text>
</a>
</g>
</g>
<!-- Node2 -->
<g id="node2" class="node">
<title>Node2</title>
<g id="a_node2"><a xlink:href="classOPOS6UL__ActionsExtended.html#aced00f2c03b0aa9b9eda54e6874bac75" target="_top" xlink:title=" ">
<polygon fill="white" stroke="black" points="554,-561.5 554,-591.5 709,-591.5 709,-561.5 554,-561.5"/>
<text text-anchor="start" x="562" y="-579.5" font-family="Helvetica,sans-Serif" font-size="10.00">OPOS6UL_ActionsExtended</text>
<text text-anchor="middle" x="631.5" y="-568.5" font-family="Helvetica,sans-Serif" font-size="10.00">::OPOS6UL_ActionsExtended</text>
</a>
</g>
</g>
<!-- Node1&#45;&gt;Node2 -->
<g id="edge1" class="edge">
<title>Node1&#45;&gt;Node2</title>
<path fill="none" stroke="midnightblue" d="M812.96,-356.6C801.58,-402.31 771.22,-499.3 709,-552.5 704.98,-555.94 700.47,-558.88 695.7,-561.41"/>
<polygon fill="midnightblue" stroke="midnightblue" points="816.42,-357.19 815.34,-346.65 809.61,-355.56 816.42,-357.19"/>
</g>
<!-- Node3 -->
<g id="node3" class="node">
<title>Node3</title>
<g id="a_node3"><a xlink:href="classOPOS6UL__ActionsExtended.html#a946560d21bc7c1a12be600b16e07c93a" target="_top" xlink:title="Déploie le bras droit en position d&#39;action.">
<polygon fill="white" stroke="black" points="557,-512.5 557,-542.5 706,-542.5 706,-512.5 557,-512.5"/>
<text text-anchor="start" x="565" y="-530.5" font-family="Helvetica,sans-Serif" font-size="10.00">OPOS6UL_ActionsExtended</text>
<text text-anchor="middle" x="631.5" y="-519.5" font-family="Helvetica,sans-Serif" font-size="10.00">::ax12_bras_droit</text>
</a>
</g>
</g>
<!-- Node1&#45;&gt;Node3 -->
<g id="edge2" class="edge">
<title>Node1&#45;&gt;Node3</title>
<path fill="none" stroke="midnightblue" d="M809.25,-356.26C794.04,-393.63 760.23,-464.23 709,-503.5 704.47,-506.97 699.43,-509.95 694.16,-512.5"/>
<polygon fill="midnightblue" stroke="midnightblue" points="812.62,-357.24 813.04,-346.66 806.11,-354.67 812.62,-357.24"/>
</g>
<!-- Node7 -->
<g id="node7" class="node">
<title>Node7</title>
<g id="a_node7"><a xlink:href="classOPOS6UL__ActionsExtended.html#a67daef275b861004d118273c7e2564c2" target="_top" xlink:title="Place le bras droit en position initiale (replié).">
<polygon fill="white" stroke="black" points="557,-463.5 557,-493.5 706,-493.5 706,-463.5 557,-463.5"/>
<text text-anchor="start" x="565" y="-481.5" font-family="Helvetica,sans-Serif" font-size="10.00">OPOS6UL_ActionsExtended</text>
<text text-anchor="middle" x="631.5" y="-470.5" font-family="Helvetica,sans-Serif" font-size="10.00">::ax12_bras_droit_init</text>
</a>
</g>
</g>
<!-- Node1&#45;&gt;Node7 -->
<g id="edge7" class="edge">
<title>Node1&#45;&gt;Node7</title>
<path fill="none" stroke="midnightblue" d="M803.19,-355.42C784.27,-383.12 749.56,-428.29 709,-454.5 703.74,-457.9 697.96,-460.85 692.02,-463.39"/>
<polygon fill="midnightblue" stroke="midnightblue" points="806.33,-357.01 808.98,-346.75 800.51,-353.12 806.33,-357.01"/>
</g>
<!-- Node8 -->
<g id="node8" class="node">
<title>Node8</title>
<g id="a_node8"><a xlink:href="classOPOS6UL__ActionsExtended.html#a5b32b355b6907dda48874f40dc9101eb" target="_top" xlink:title="Déploie le bras gauche en position d&#39;action.">
<polygon fill="white" stroke="black" points="557,-414.5 557,-444.5 706,-444.5 706,-414.5 557,-414.5"/>
<text text-anchor="start" x="565" y="-432.5" font-family="Helvetica,sans-Serif" font-size="10.00">OPOS6UL_ActionsExtended</text>
<text text-anchor="middle" x="631.5" y="-421.5" font-family="Helvetica,sans-Serif" font-size="10.00">::ax12_bras_gauche</text>
</a>
</g>
</g>
<!-- Node1&#45;&gt;Node8 -->
<g id="edge9" class="edge">
<title>Node1&#45;&gt;Node8</title>
<path fill="none" stroke="midnightblue" d="M791.79,-352.8C770.4,-369.03 739.11,-390.99 709,-405.5 702.1,-408.82 694.64,-411.83 687.17,-414.5"/>
<polygon fill="midnightblue" stroke="midnightblue" points="793.96,-355.54 799.76,-346.67 789.7,-350 793.96,-355.54"/>
</g>
<!-- Node9 -->
<g id="node9" class="node">
<title>Node9</title>
<g id="a_node9"><a xlink:href="classOPOS6UL__ActionsExtended.html#ad3b7d5a26040d5780cc43a5a9ead9ad3" target="_top" xlink:title="Place le bras gauche en position initiale (replié).">
<polygon fill="white" stroke="black" points="557,-365.5 557,-395.5 706,-395.5 706,-365.5 557,-365.5"/>
<text text-anchor="start" x="565" y="-383.5" font-family="Helvetica,sans-Serif" font-size="10.00">OPOS6UL_ActionsExtended</text>
<text text-anchor="middle" x="631.5" y="-372.5" font-family="Helvetica,sans-Serif" font-size="10.00">::ax12_bras_gauche_init</text>
</a>
</g>
</g>
<!-- Node1&#45;&gt;Node9 -->
<g id="edge11" class="edge">
<title>Node1&#45;&gt;Node9</title>
<path fill="none" stroke="midnightblue" d="M751.6,-349.12C731.26,-354.48 709.09,-360.32 689.46,-365.49"/>
<polygon fill="midnightblue" stroke="midnightblue" points="752.65,-352.47 761.43,-346.53 750.87,-345.7 752.65,-352.47"/>
</g>
<!-- Node10 -->
<g id="node10" class="node">
<title>Node10</title>
<g id="a_node10"><a xlink:href="classOPOS6UL__ActionsExtended.html#a44856498aa3839098211785a1fe0b6a3" target="_top" xlink:title="Déploie la banderole (action de fin de match).">
<polygon fill="white" stroke="black" points="557,-316.5 557,-346.5 706,-346.5 706,-316.5 557,-316.5"/>
<text text-anchor="start" x="565" y="-334.5" font-family="Helvetica,sans-Serif" font-size="10.00">OPOS6UL_ActionsExtended</text>
<text text-anchor="middle" x="631.5" y="-323.5" font-family="Helvetica,sans-Serif" font-size="10.00">::ax12_GO_banderole</text>
</a>
</g>
</g>
<!-- Node1&#45;&gt;Node10 -->
<g id="edge13" class="edge">
<title>Node1&#45;&gt;Node10</title>
<path fill="none" stroke="midnightblue" d="M734.7,-331.5C725.16,-331.5 715.48,-331.5 706.09,-331.5"/>
<polygon fill="midnightblue" stroke="midnightblue" points="734.99,-335 744.99,-331.5 734.99,-328 734.99,-335"/>
</g>
<!-- Node11 -->
<g id="node11" class="node">
<title>Node11</title>
<g id="a_node11"><a xlink:href="classOPOS6UL__ActionsExtended.html#ae63e06f334f5095383387aa9ff68c8a3" target="_top" xlink:title="Initialise le servo de la banderole à la position repliée.">
<polygon fill="white" stroke="black" points="557,-267.5 557,-297.5 706,-297.5 706,-267.5 557,-267.5"/>
<text text-anchor="start" x="565" y="-285.5" font-family="Helvetica,sans-Serif" font-size="10.00">OPOS6UL_ActionsExtended</text>
<text text-anchor="middle" x="631.5" y="-274.5" font-family="Helvetica,sans-Serif" font-size="10.00">::ax12_init_banderole</text>
</a>
</g>
</g>
<!-- Node1&#45;&gt;Node11 -->
<g id="edge14" class="edge">
<title>Node1&#45;&gt;Node11</title>
<path fill="none" stroke="midnightblue" d="M751.6,-313.88C731.26,-308.52 709.09,-302.68 689.46,-297.51"/>
<polygon fill="midnightblue" stroke="midnightblue" points="750.87,-317.3 761.43,-316.47 752.65,-310.53 750.87,-317.3"/>
</g>
<!-- Node12 -->
<g id="node12" class="node">
<title>Node12</title>
<g id="a_node12"><a xlink:href="classOPOS6UL__ActionsExtended.html#a565acda2ce4cdd1be8263835465d0fdc" target="_top" xlink:title="Initialise le bras gauche (épaule, coude, poignet) à la position de repos.">
<polygon fill="white" stroke="black" points="557,-218.5 557,-248.5 706,-248.5 706,-218.5 557,-218.5"/>
<text text-anchor="start" x="565" y="-236.5" font-family="Helvetica,sans-Serif" font-size="10.00">OPOS6UL_ActionsExtended</text>
<text text-anchor="middle" x="631.5" y="-225.5" font-family="Helvetica,sans-Serif" font-size="10.00">::ax12_init_L</text>
</a>
</g>
</g>
<!-- Node1&#45;&gt;Node12 -->
<g id="edge16" class="edge">
<title>Node1&#45;&gt;Node12</title>
<path fill="none" stroke="midnightblue" d="M791.31,-310.32C769.88,-294.4 738.76,-272.95 709,-258.5 701.46,-254.84 693.25,-251.52 685.1,-248.59"/>
<polygon fill="midnightblue" stroke="midnightblue" points="789.2,-313.12 799.3,-316.33 793.41,-307.52 789.2,-313.12"/>
</g>
<!-- Node13 -->
<g id="node13" class="node">
<title>Node13</title>
<g id="a_node13"><a xlink:href="classOPOS6UL__ActionsExtended.html#a50a3db095faaaf15ec9630d9abcfb5d4" target="_top" xlink:title="Initialise les deux bras (gauche et droit) à la position de repos.">
<polygon fill="white" stroke="black" points="557,-169.5 557,-199.5 706,-199.5 706,-169.5 557,-169.5"/>
<text text-anchor="start" x="565" y="-187.5" font-family="Helvetica,sans-Serif" font-size="10.00">OPOS6UL_ActionsExtended</text>
<text text-anchor="middle" x="631.5" y="-176.5" font-family="Helvetica,sans-Serif" font-size="10.00">::ax12_init_LR</text>
</a>
</g>
</g>
<!-- Node1&#45;&gt;Node13 -->
<g id="edge17" class="edge">
<title>Node1&#45;&gt;Node13</title>
<path fill="none" stroke="midnightblue" d="M803.09,-307.86C784.07,-280.47 749.27,-235.75 709,-209.5 703.15,-205.69 696.66,-202.41 690.02,-199.6"/>
<polygon fill="midnightblue" stroke="midnightblue" points="800.4,-310.13 808.91,-316.43 806.19,-306.2 800.4,-310.13"/>
</g>
<!-- Node14 -->
<g id="node14" class="node">
<title>Node14</title>
<g id="a_node14"><a xlink:href="classOPOS6UL__ActionsExtended.html#a298422faffadf81c4350cd47464d3f0a" target="_top" xlink:title="Initialise le bras droit (épaule, coude, poignet) à la position de repos.">
<polygon fill="white" stroke="black" points="557,-120.5 557,-150.5 706,-150.5 706,-120.5 557,-120.5"/>
<text text-anchor="start" x="565" y="-138.5" font-family="Helvetica,sans-Serif" font-size="10.00">OPOS6UL_ActionsExtended</text>
<text text-anchor="middle" x="631.5" y="-127.5" font-family="Helvetica,sans-Serif" font-size="10.00">::ax12_init_R</text>
</a>
</g>
</g>
<!-- Node1&#45;&gt;Node14 -->
<g id="edge18" class="edge">
<title>Node1&#45;&gt;Node14</title>
<path fill="none" stroke="midnightblue" d="M809.15,-306.95C793.81,-269.9 759.84,-199.84 709,-160.5 704.03,-156.65 698.44,-153.38 692.61,-150.61"/>
<polygon fill="midnightblue" stroke="midnightblue" points="806,-308.51 812.98,-316.48 812.5,-305.89 806,-308.51"/>
</g>
<!-- Node15 -->
<g id="node15" class="node">
<title>Node15</title>
<g id="a_node15"><a xlink:href="classOPOS6UL__ActionsExtended.html#a0bc7d581ad9cbae899f7f244340a5429" target="_top" xlink:title="Relâche tous les servomoteurs AX12 (coupe le maintien en position).">
<polygon fill="white" stroke="black" points="557,-71.5 557,-101.5 706,-101.5 706,-71.5 557,-71.5"/>
<text text-anchor="start" x="565" y="-89.5" font-family="Helvetica,sans-Serif" font-size="10.00">OPOS6UL_ActionsExtended</text>
<text text-anchor="middle" x="631.5" y="-78.5" font-family="Helvetica,sans-Serif" font-size="10.00">::releaseAll</text>
</a>
</g>
</g>
<!-- Node1&#45;&gt;Node15 -->
<g id="edge19" class="edge">
<title>Node1&#45;&gt;Node15</title>
<path fill="none" stroke="midnightblue" d="M812.87,-306.58C801.33,-261.19 770.73,-164.81 709,-111.5 704.56,-107.66 699.52,-104.41 694.19,-101.66"/>
<polygon fill="midnightblue" stroke="midnightblue" points="809.51,-307.58 815.28,-316.46 816.31,-305.92 809.51,-307.58"/>
</g>
<!-- Node4 -->
<g id="node4" class="node">
<title>Node4</title>
<g id="a_node4"><a xlink:href="classOPOS6UL__ActionsExtended.html#af04e19802d90a78d82e67b10061521a2" target="_top" xlink:title="Initialise tous les servomoteurs AX12 à leur position de départ.">
<polygon fill="white" stroke="black" points="369,-414.5 369,-444.5 518,-444.5 518,-414.5 369,-414.5"/>
<text text-anchor="start" x="377" y="-432.5" font-family="Helvetica,sans-Serif" font-size="10.00">OPOS6UL_ActionsExtended</text>
<text text-anchor="middle" x="443.5" y="-421.5" font-family="Helvetica,sans-Serif" font-size="10.00">::ax12_init</text>
</a>
</g>
</g>
<!-- Node3&#45;&gt;Node4 -->
<g id="edge3" class="edge">
<title>Node3&#45;&gt;Node4</title>
<path fill="none" stroke="midnightblue" d="M566.42,-508.94C562.16,-507.24 557.99,-505.42 554,-503.5 519.9,-487.06 484.27,-461.07 463.24,-444.67"/>
<polygon fill="midnightblue" stroke="midnightblue" points="565.24,-512.24 575.83,-512.5 567.71,-505.69 565.24,-512.24"/>
</g>
<!-- Node5 -->
<g id="node5" class="node">
<title>Node5</title>
<g id="a_node5"><a xlink:href="classO__State__Init.html#abc19788b7457d1f819245dd28367fe91" target="_top" xlink:title="Exécute l&#39;état d&#39;initialisation.">
<polygon fill="white" stroke="black" points="10.5,-420 10.5,-439 130.5,-439 130.5,-420 10.5,-420"/>
<text text-anchor="middle" x="70.5" y="-427" font-family="Helvetica,sans-Serif" font-size="10.00">O_State_Init::execute</text>
</a>
</g>
</g>
<!-- Node4&#45;&gt;Node5 -->
<g id="edge4" class="edge">
<title>Node4&#45;&gt;Node5</title>
<path fill="none" stroke="midnightblue" d="M358.72,-429.5C289.3,-429.5 192.35,-429.5 130.75,-429.5"/>
<polygon fill="midnightblue" stroke="midnightblue" points="358.76,-433 368.76,-429.5 358.76,-426 358.76,-433"/>
</g>
<!-- Node6 -->
<g id="node6" class="node">
<title>Node6</title>
<g id="a_node6"><a xlink:href="classO__State__Init.html#a1980cd82dcb83e88d61f2e7e14dddfa0" target="_top" xlink:title=" ">
<polygon fill="white" stroke="black" points="198,-401 198,-420 312,-420 312,-401 198,-401"/>
<text text-anchor="middle" x="255" y="-408" font-family="Helvetica,sans-Serif" font-size="10.00">O_State_Init::setPos</text>
</a>
</g>
</g>
<!-- Node4&#45;&gt;Node6 -->
<g id="edge5" class="edge">
<title>Node4&#45;&gt;Node6</title>
<path fill="none" stroke="midnightblue" d="M358.55,-420.95C342.85,-419.35 326.81,-417.71 312.21,-416.23"/>
<polygon fill="midnightblue" stroke="midnightblue" points="358.49,-424.46 368.79,-421.99 359.2,-417.5 358.49,-424.46"/>
</g>
<!-- Node6&#45;&gt;Node5 -->
<g id="edge6" class="edge">
<title>Node6&#45;&gt;Node5</title>
<path fill="none" stroke="midnightblue" d="M187.59,-417.41C168.98,-419.35 148.88,-421.44 130.72,-423.33"/>
<polygon fill="midnightblue" stroke="midnightblue" points="188.17,-420.87 197.75,-416.36 187.45,-413.91 188.17,-420.87"/>
</g>
<!-- Node7&#45;&gt;Node4 -->
<g id="edge8" class="edge">
<title>Node7&#45;&gt;Node4</title>
<path fill="none" stroke="midnightblue" d="M563.6,-460.88C543.26,-455.52 521.09,-449.68 501.46,-444.51"/>
<polygon fill="midnightblue" stroke="midnightblue" points="562.87,-464.3 573.43,-463.47 564.65,-457.53 562.87,-464.3"/>
</g>
<!-- Node8&#45;&gt;Node4 -->
<g id="edge10" class="edge">
<title>Node8&#45;&gt;Node4</title>
<path fill="none" stroke="midnightblue" d="M546.7,-429.5C537.16,-429.5 527.48,-429.5 518.09,-429.5"/>
<polygon fill="midnightblue" stroke="midnightblue" points="546.99,-433 556.99,-429.5 546.99,-426 546.99,-433"/>
</g>
<!-- Node9&#45;&gt;Node4 -->
<g id="edge12" class="edge">
<title>Node9&#45;&gt;Node4</title>
<path fill="none" stroke="midnightblue" d="M563.6,-398.12C543.26,-403.48 521.09,-409.32 501.46,-414.49"/>
<polygon fill="midnightblue" stroke="midnightblue" points="564.65,-401.47 573.43,-395.53 562.87,-394.7 564.65,-401.47"/>
</g>
<!-- Node11&#45;&gt;Node4 -->
<g id="edge15" class="edge">
<title>Node11&#45;&gt;Node4</title>
<path fill="none" stroke="midnightblue" d="M563.79,-301.87C560.4,-303.6 557.11,-305.47 554,-307.5 509.17,-336.72 471.13,-388.82 454.09,-414.43"/>
<polygon fill="midnightblue" stroke="midnightblue" points="565.39,-304.98 572.98,-297.6 562.44,-298.63 565.39,-304.98"/>
</g>
<!-- Node16 -->
<g id="node16" class="node">
<title>Node16</title>
<g id="a_node16"><a xlink:href="classO__State__WaitEndOfMatch.html#aa73613440b37c8dd42181e2e0265ae86" target="_top" xlink:title="Exécute l&#39;état d&#39;attente de fin de match.">
<polygon fill="white" stroke="black" points="0,-47.5 0,-77.5 141,-77.5 141,-47.5 0,-47.5"/>
<text text-anchor="start" x="8" y="-65.5" font-family="Helvetica,sans-Serif" font-size="10.00">O_State_WaitEndOfMatch</text>
<text text-anchor="middle" x="70.5" y="-54.5" font-family="Helvetica,sans-Serif" font-size="10.00">::execute</text>
</a>
</g>
</g>
<!-- Node15&#45;&gt;Node16 -->
<g id="edge20" class="edge">
<title>Node15&#45;&gt;Node16</title>
<path fill="none" stroke="midnightblue" d="M546.69,-93.62C455.38,-99.86 305.19,-105.64 177,-89.5 157.96,-87.1 137.43,-82.36 119.59,-77.51"/>
<polygon fill="midnightblue" stroke="midnightblue" points="546.98,-97.11 556.71,-92.92 546.49,-90.13 546.98,-97.11"/>
</g>
<!-- Node17 -->
<g id="node17" class="node">
<title>Node17</title>
<g id="a_node17"><a xlink:href="classOPOS6UL__ActionsExtended.html#a87bb61d89759101cac844e7c399f2f61" target="_top" xlink:title="Arrête tous les périphériques supplémentaires (capteurs, LEDs, LCD) et relâche les servos.">
<polygon fill="white" stroke="black" points="369,-49.5 369,-79.5 518,-79.5 518,-49.5 369,-49.5"/>
<text text-anchor="start" x="377" y="-67.5" font-family="Helvetica,sans-Serif" font-size="10.00">OPOS6UL_ActionsExtended</text>
<text text-anchor="middle" x="443.5" y="-56.5" font-family="Helvetica,sans-Serif" font-size="10.00">::stopExtra</text>
</a>
</g>
</g>
<!-- Node15&#45;&gt;Node17 -->
<g id="edge21" class="edge">
<title>Node15&#45;&gt;Node17</title>
<path fill="none" stroke="midnightblue" d="M547.01,-76.62C537.36,-75.48 527.58,-74.33 518.09,-73.2"/>
<polygon fill="midnightblue" stroke="midnightblue" points="546.65,-80.11 556.99,-77.81 547.47,-73.15 546.65,-80.11"/>
</g>
<!-- Node18 -->
<g id="node18" class="node">
<title>Node18</title>
<g id="a_node18"><a xlink:href="classOPOS6UL__RobotExtended.html#ac8ac2be407a78cdd62261f72226162df" target="_top" xlink:title=" ">
<polygon fill="white" stroke="black" points="177,-49.5 177,-79.5 333,-79.5 333,-49.5 177,-49.5"/>
<text text-anchor="start" x="185" y="-67.5" font-family="Helvetica,sans-Serif" font-size="10.00">OPOS6UL_RobotExtended</text>
<text text-anchor="middle" x="255" y="-56.5" font-family="Helvetica,sans-Serif" font-size="10.00">::~OPOS6UL_RobotExtended</text>
</a>
</g>
</g>
<!-- Node17&#45;&gt;Node18 -->
<g id="edge22" class="edge">
<title>Node17&#45;&gt;Node18</title>
<path fill="none" stroke="midnightblue" d="M358.55,-64.5C350.09,-64.5 341.54,-64.5 333.16,-64.5"/>
<polygon fill="midnightblue" stroke="midnightblue" points="358.79,-68 368.79,-64.5 358.79,-61 358.79,-68"/>
</g>
<!-- Node19 -->
<g id="node19" class="node">
<title>Node19</title>
<g id="a_node19"><a xlink:href="classOPOS6UL__RobotExtended.html#a0a997f7fd88abac1efe0083fce633649" target="_top" xlink:title="Arrête toutes les actions supplémentaires (capteurs, LEDs, servos).">
<polygon fill="white" stroke="black" points="184,-0.5 184,-30.5 326,-30.5 326,-0.5 184,-0.5"/>
<text text-anchor="start" x="192" y="-18.5" font-family="Helvetica,sans-Serif" font-size="10.00">OPOS6UL_RobotExtended</text>
<text text-anchor="middle" x="255" y="-7.5" font-family="Helvetica,sans-Serif" font-size="10.00">::stopExtraActions</text>
</a>
</g>
</g>
<!-- Node17&#45;&gt;Node19 -->
<g id="edge23" class="edge">
<title>Node17&#45;&gt;Node19</title>
<path fill="none" stroke="midnightblue" d="M375.43,-46.88C355.02,-41.52 332.8,-35.68 313.12,-30.51"/>
<polygon fill="midnightblue" stroke="midnightblue" points="374.72,-50.31 385.28,-49.47 376.49,-43.54 374.72,-50.31"/>
</g>
<!-- Node19&#45;&gt;Node16 -->
<g id="edge24" class="edge">
<title>Node19&#45;&gt;Node16</title>
<path fill="none" stroke="midnightblue" d="M185.95,-33.02C167.5,-37.78 147.69,-42.88 129.82,-47.48"/>
<polygon fill="midnightblue" stroke="midnightblue" points="186.94,-36.38 195.75,-30.5 185.2,-29.6 186.94,-36.38"/>
</g>
</g>
</svg>
