<?xml version="1.0" encoding="UTF-8" standalone="no"?>
<!DOCTYPE svg PUBLIC "-//W3C//DTD SVG 1.1//EN"
 "http://www.w3.org/Graphics/SVG/1.1/DTD/svg11.dtd">
<!-- Generated by graphviz version 2.43.0 (0)
 -->
<!-- Title: ITimerPosixListener::init Pages: 1 -->
<svg width="568pt" height="275pt"
 viewBox="0.00 0.00 568.00 275.01" xmlns="http://www.w3.org/2000/svg" xmlns:xlink="http://www.w3.org/1999/xlink">
<g id="graph0" class="graph" transform="scale(1 1) rotate(0) translate(4 271.01)">
<title>ITimerPosixListener::init</title>
<polygon fill="white" stroke="transparent" points="-4,4 -4,-271.01 564,-271.01 564,4 -4,4"/>
<!-- Node1 -->
<g id="node1" class="node">
<title>Node1</title>
<g id="a_node1"><a xlink:title=" ">
<polygon fill="#bfbfbf" stroke="black" points="0,-118.88 0,-148.88 113,-148.88 113,-118.88 0,-118.88"/>
<text text-anchor="start" x="8" y="-136.88" font-family="Helvetica,sans-Serif" font-size="10.00">ITimerPosixListener</text>
<text text-anchor="middle" x="56.5" y="-125.88" font-family="Helvetica,sans-Serif" font-size="10.00">::init</text>
</a>
</g>
</g>
<!-- Node2 -->
<g id="node2" class="node">
<title>Node2</title>
<g id="a_node2"><a xlink:href="classITimerPosixListener.html#af06fbcdd0f34a17d4341f896002860af" target="_top" xlink:title=" ">
<polygon fill="white" stroke="black" points="149,-118.88 149,-148.88 262,-148.88 262,-118.88 149,-118.88"/>
<text text-anchor="start" x="157" y="-136.88" font-family="Helvetica,sans-Serif" font-size="10.00">ITimerPosixListener</text>
<text text-anchor="middle" x="205.5" y="-125.88" font-family="Helvetica,sans-Serif" font-size="10.00">::alarmFunction</text>
</a>
</g>
</g>
<!-- Node1&#45;&gt;Node2 -->
<g id="edge1" class="edge">
<title>Node1&#45;&gt;Node2</title>
<path fill="none" stroke="midnightblue" d="M113.07,-133.88C121.49,-133.88 130.24,-133.88 138.84,-133.88"/>
<polygon fill="midnightblue" stroke="midnightblue" points="138.85,-137.38 148.85,-133.88 138.85,-130.38 138.85,-137.38"/>
</g>
<!-- Node3 -->
<g id="node3" class="node">
<title>Node3</title>
<g id="a_node3"><a xlink:href="classutils_1_1Mutex.html#aa584b418a5ef484f76b93e361a1d7e32" target="_top" xlink:title="Verrouille le mutex. Cette méthode doit être appelée avant d&#39;utiliser la ressource associée....">
<polygon fill="white" stroke="black" points="453,-242.38 453,-261.38 554,-261.38 554,-242.38 453,-242.38"/>
<text text-anchor="middle" x="503.5" y="-249.38" font-family="Helvetica,sans-Serif" font-size="10.00">utils::Mutex::lock</text>
</a>
</g>
</g>
<!-- Node1&#45;&gt;Node3 -->
<g id="edge10" class="edge">
<title>Node1&#45;&gt;Node3</title>
<path fill="none" stroke="midnightblue" d="M78,-148.95C117.88,-177.22 209.78,-237.32 298,-258.88 345.72,-270.54 401.55,-267.56 442.81,-262.36"/>
<polygon fill="midnightblue" stroke="midnightblue" points="443.53,-265.79 452.98,-260.99 442.6,-258.85 443.53,-265.79"/>
</g>
<!-- Node7 -->
<g id="node7" class="node">
<title>Node7</title>
<g id="a_node7"><a xlink:href="classutils_1_1Mutex.html#a59b2079dc7f803d49f78ac9c04406cd3" target="_top" xlink:title="Déverrouille le mutex. Cette méthode doit être appelée après avoir utiliser la ressource associée.">
<polygon fill="white" stroke="black" points="447,-7.38 447,-26.38 560,-26.38 560,-7.38 447,-7.38"/>
<text text-anchor="middle" x="503.5" y="-14.38" font-family="Helvetica,sans-Serif" font-size="10.00">utils::Mutex::unlock</text>
</a>
</g>
</g>
<!-- Node1&#45;&gt;Node7 -->
<g id="edge11" class="edge">
<title>Node1&#45;&gt;Node7</title>
<path fill="none" stroke="midnightblue" d="M77.98,-118.69C117.83,-90.2 209.66,-29.62 298,-7.88 346.78,4.12 404.03,0.13 445.53,-5.86"/>
<polygon fill="midnightblue" stroke="midnightblue" points="445.05,-9.33 455.47,-7.37 446.11,-2.41 445.05,-9.33"/>
</g>
<!-- Node2&#45;&gt;Node3 -->
<g id="edge2" class="edge">
<title>Node2&#45;&gt;Node3</title>
<path fill="none" stroke="midnightblue" d="M215.44,-149.19C229.67,-171.94 259.81,-214.02 298,-232.88 342.89,-255.05 400.07,-258.62 442.54,-257.32"/>
<polygon fill="midnightblue" stroke="midnightblue" points="442.88,-260.8 452.73,-256.9 442.6,-253.81 442.88,-260.8"/>
</g>
<!-- Node4 -->
<g id="node4" class="node">
<title>Node4</title>
<g id="a_node4"><a xlink:href="classITimerPosixListener.html#a6f2e614a3dbc1d0eae48c87ee82ae7ee" target="_top" xlink:title="Actions à executer pour le timer.">
<polygon fill="white" stroke="black" points="298,-143.88 298,-173.88 411,-173.88 411,-143.88 298,-143.88"/>
<text text-anchor="start" x="306" y="-161.88" font-family="Helvetica,sans-Serif" font-size="10.00">ITimerPosixListener</text>
<text text-anchor="middle" x="354.5" y="-150.88" font-family="Helvetica,sans-Serif" font-size="10.00">::onTimer</text>
</a>
</g>
</g>
<!-- Node2&#45;&gt;Node4 -->
<g id="edge3" class="edge">
<title>Node2&#45;&gt;Node4</title>
<path fill="none" stroke="midnightblue" d="M262.07,-143.33C270.49,-144.76 279.24,-146.25 287.84,-147.71"/>
<polygon fill="midnightblue" stroke="midnightblue" points="287.4,-151.19 297.85,-149.42 288.58,-144.29 287.4,-151.19"/>
</g>
<!-- Node5 -->
<g id="node5" class="node">
<title>Node5</title>
<g id="a_node5"><a xlink:href="classITimerPosixListener.html#a4df70962b58b13d521f1f7f91ec6fc13" target="_top" xlink:title="Actions de fin à executer pour le timer.">
<polygon fill="white" stroke="black" points="298,-94.88 298,-124.88 411,-124.88 411,-94.88 298,-94.88"/>
<text text-anchor="start" x="306" y="-112.88" font-family="Helvetica,sans-Serif" font-size="10.00">ITimerPosixListener</text>
<text text-anchor="middle" x="354.5" y="-101.88" font-family="Helvetica,sans-Serif" font-size="10.00">::onTimerEnd</text>
</a>
</g>
</g>
<!-- Node2&#45;&gt;Node5 -->
<g id="edge4" class="edge">
<title>Node2&#45;&gt;Node5</title>
<path fill="none" stroke="midnightblue" d="M262.07,-124.81C270.49,-123.43 279.24,-122 287.84,-120.6"/>
<polygon fill="midnightblue" stroke="midnightblue" points="288.54,-124.03 297.85,-118.97 287.41,-117.12 288.54,-124.03"/>
</g>
<!-- Node6 -->
<g id="node6" class="node">
<title>Node6</title>
<g id="a_node6"><a xlink:href="classITimerPosixListener.html#a80bdf978eda3cfa0d9271a3c2e1d3f3a" target="_top" xlink:title=" ">
<polygon fill="white" stroke="black" points="298,-45.88 298,-75.88 411,-75.88 411,-45.88 298,-45.88"/>
<text text-anchor="start" x="306" y="-63.88" font-family="Helvetica,sans-Serif" font-size="10.00">ITimerPosixListener</text>
<text text-anchor="middle" x="354.5" y="-52.88" font-family="Helvetica,sans-Serif" font-size="10.00">::remove</text>
</a>
</g>
</g>
<!-- Node2&#45;&gt;Node6 -->
<g id="edge5" class="edge">
<title>Node2&#45;&gt;Node6</title>
<path fill="none" stroke="midnightblue" d="M234.31,-118.74C252.33,-109.06 276.39,-96.4 298,-85.88 301.85,-84.01 305.87,-82.1 309.91,-80.22"/>
<polygon fill="midnightblue" stroke="midnightblue" points="311.68,-83.26 319.3,-75.9 308.76,-76.9 311.68,-83.26"/>
</g>
<!-- Node2&#45;&gt;Node7 -->
<g id="edge9" class="edge">
<title>Node2&#45;&gt;Node7</title>
<path fill="none" stroke="midnightblue" d="M215.48,-118.73C229.77,-96.2 259.97,-54.54 298,-35.88 340.88,-14.84 394.88,-10.62 436.62,-11.37"/>
<polygon fill="midnightblue" stroke="midnightblue" points="436.58,-14.87 446.68,-11.65 436.78,-7.87 436.58,-14.87"/>
</g>
<!-- Node8 -->
<g id="node8" class="node">
<title>Node8</title>
<g id="a_node8"><a xlink:href="classITimerPosixListener.html#a5d3f9eac245766f6c6f304417870a5ff" target="_top" xlink:title=" ">
<polygon fill="white" stroke="black" points="298,-192.88 298,-222.88 411,-222.88 411,-192.88 298,-192.88"/>
<text text-anchor="start" x="306" y="-210.88" font-family="Helvetica,sans-Serif" font-size="10.00">ITimerPosixListener</text>
<text text-anchor="middle" x="354.5" y="-199.88" font-family="Helvetica,sans-Serif" font-size="10.00">::requestToStop</text>
</a>
</g>
</g>
<!-- Node2&#45;&gt;Node8 -->
<g id="edge8" class="edge">
<title>Node2&#45;&gt;Node8</title>
<path fill="none" stroke="midnightblue" d="M232.59,-148.97C250.72,-159.25 275.55,-172.92 298,-183.88 301.31,-185.5 304.75,-187.12 308.23,-188.72"/>
<polygon fill="midnightblue" stroke="midnightblue" points="306.9,-191.95 317.45,-192.87 309.77,-185.57 306.9,-191.95"/>
</g>
<!-- Node6&#45;&gt;Node3 -->
<g id="edge6" class="edge">
<title>Node6&#45;&gt;Node3</title>
<path fill="none" stroke="midnightblue" d="M397.08,-75.95C402.09,-78.79 406.88,-82.08 411,-85.88 456.83,-128.16 484.95,-198.8 496.46,-232.65"/>
<polygon fill="midnightblue" stroke="midnightblue" points="493.17,-233.86 499.62,-242.27 499.82,-231.67 493.17,-233.86"/>
</g>
<!-- Node6&#45;&gt;Node7 -->
<g id="edge7" class="edge">
<title>Node6&#45;&gt;Node7</title>
<path fill="none" stroke="midnightblue" d="M405.68,-45.86C423.62,-40.49 443.62,-34.5 460.77,-29.37"/>
<polygon fill="midnightblue" stroke="midnightblue" points="461.92,-32.68 470.5,-26.46 459.92,-25.97 461.92,-32.68"/>
</g>
</g>
</svg>
