<?xml version="1.0" encoding="UTF-8" standalone="no"?>
<!DOCTYPE svg PUBLIC "-//W3C//DTD SVG 1.1//EN"
 "http://www.w3.org/Graphics/SVG/1.1/DTD/svg11.dtd">
<!-- Generated by graphviz version 2.43.0 (0)
 -->
<!-- Title: test::ActionManagerTimerTest::testAddRemoveActions Pages: 1 -->
<svg width="1019pt" height="416pt"
 viewBox="0.00 0.00 1019.00 415.50" xmlns="http://www.w3.org/2000/svg" xmlns:xlink="http://www.w3.org/1999/xlink">
<g id="graph0" class="graph" transform="scale(1 1) rotate(0) translate(4 411.5)">
<title>test::ActionManagerTimerTest::testAddRemoveActions</title>
<polygon fill="white" stroke="transparent" points="-4,4 -4,-411.5 1015,-411.5 1015,4 -4,4"/>
<!-- Node1 -->
<g id="node1" class="node">
<title>Node1</title>
<g id="a_node1"><a xlink:title=" ">
<polygon fill="#bfbfbf" stroke="black" points="0,-71 0,-101 156,-101 156,-71 0,-71"/>
<text text-anchor="start" x="8" y="-89" font-family="Helvetica,sans-Serif" font-size="10.00">test::ActionManagerTimer</text>
<text text-anchor="middle" x="78" y="-78" font-family="Helvetica,sans-Serif" font-size="10.00">Test::testAddRemoveActions</text>
</a>
</g>
</g>
<!-- Node2 -->
<g id="node2" class="node">
<title>Node2</title>
<g id="a_node2"><a xlink:href="classActionManagerTimer.html#ad44aa7bf3d361e60d3ed764d833eafc5" target="_top" xlink:title="Ajout d&#39;une action.">
<polygon fill="white" stroke="black" points="192,-131 192,-161 311,-161 311,-131 192,-131"/>
<text text-anchor="start" x="200" y="-149" font-family="Helvetica,sans-Serif" font-size="10.00">ActionManagerTimer</text>
<text text-anchor="middle" x="251.5" y="-138" font-family="Helvetica,sans-Serif" font-size="10.00">::addAction</text>
</a>
</g>
</g>
<!-- Node1&#45;&gt;Node2 -->
<g id="edge1" class="edge">
<title>Node1&#45;&gt;Node2</title>
<path fill="none" stroke="midnightblue" d="M122.28,-101.14C145.21,-109.17 173.58,-119.09 197.79,-127.56"/>
<polygon fill="midnightblue" stroke="midnightblue" points="196.94,-130.97 207.53,-130.97 199.25,-124.36 196.94,-130.97"/>
</g>
<!-- Node5 -->
<g id="node5" class="node">
<title>Node5</title>
<g id="a_node5"><a xlink:href="namespacelogs.html#ac6f325c6cfe6189bc8e243daa184453b" target="_top" xlink:title="Cette méthode permet de finir les flux de construction par la notation.">
<polygon fill="white" stroke="black" points="531,-339.5 531,-358.5 592,-358.5 592,-339.5 531,-339.5"/>
<text text-anchor="middle" x="561.5" y="-346.5" font-family="Helvetica,sans-Serif" font-size="10.00">logs::end</text>
</a>
</g>
</g>
<!-- Node1&#45;&gt;Node5 -->
<g id="edge25" class="edge">
<title>Node1&#45;&gt;Node5</title>
<path fill="none" stroke="midnightblue" d="M98.23,-101.08C120.44,-118.3 158.24,-147.05 192,-170 259.02,-215.55 274.77,-229.28 347,-266 413.29,-299.7 432.35,-302.96 502,-329 508.42,-331.4 515.27,-333.84 521.94,-336.17"/>
<polygon fill="midnightblue" stroke="midnightblue" points="520.93,-339.52 531.52,-339.46 523.2,-332.9 520.93,-339.52"/>
</g>
<!-- Node15 -->
<g id="node15" class="node">
<title>Node15</title>
<g id="a_node15"><a xlink:href="classActionManagerTimer.html#a20bd3b06bc5f9b9fb747bb27d154d88d" target="_top" xlink:title="Vide la liste des actions actuellement enregistrees.">
<polygon fill="white" stroke="black" points="681.5,-39 681.5,-69 800.5,-69 800.5,-39 681.5,-39"/>
<text text-anchor="start" x="689.5" y="-57" font-family="Helvetica,sans-Serif" font-size="10.00">ActionManagerTimer</text>
<text text-anchor="middle" x="741" y="-46" font-family="Helvetica,sans-Serif" font-size="10.00">::clearActions</text>
</a>
</g>
</g>
<!-- Node1&#45;&gt;Node15 -->
<g id="edge19" class="edge">
<title>Node1&#45;&gt;Node15</title>
<path fill="none" stroke="midnightblue" d="M156.12,-82.27C286.13,-75.97 546.88,-63.35 671.12,-57.33"/>
<polygon fill="midnightblue" stroke="midnightblue" points="671.45,-60.82 681.27,-56.84 671.11,-53.83 671.45,-60.82"/>
</g>
<!-- Node16 -->
<g id="node16" class="node">
<title>Node16</title>
<g id="a_node16"><a xlink:href="classActionManagerTimer.html#a6e6db535941463a0e590a6779f111dd2" target="_top" xlink:title="Retourne le nombre d&#39;actions.">
<polygon fill="white" stroke="black" points="681.5,-88 681.5,-118 800.5,-118 800.5,-88 681.5,-88"/>
<text text-anchor="start" x="689.5" y="-106" font-family="Helvetica,sans-Serif" font-size="10.00">ActionManagerTimer</text>
<text text-anchor="middle" x="741" y="-95" font-family="Helvetica,sans-Serif" font-size="10.00">::countActions</text>
</a>
</g>
</g>
<!-- Node1&#45;&gt;Node16 -->
<g id="edge22" class="edge">
<title>Node1&#45;&gt;Node16</title>
<path fill="none" stroke="midnightblue" d="M156.12,-87.98C286.13,-91.33 546.88,-98.03 671.12,-101.23"/>
<polygon fill="midnightblue" stroke="midnightblue" points="671.18,-104.73 681.27,-101.49 671.36,-97.73 671.18,-104.73"/>
</g>
<!-- Node17 -->
<g id="node17" class="node">
<title>Node17</title>
<g id="a_node17"><a xlink:href="classIAction.html#a974d617d71344d64d2af7739a9e88d30" target="_top" xlink:title="Getter sur les infos permettant d&#39;identifier l&#39;action.">
<polygon fill="white" stroke="black" points="214,-0.5 214,-19.5 289,-19.5 289,-0.5 214,-0.5"/>
<text text-anchor="middle" x="251.5" y="-7.5" font-family="Helvetica,sans-Serif" font-size="10.00">IAction::info</text>
</a>
</g>
</g>
<!-- Node1&#45;&gt;Node17 -->
<g id="edge26" class="edge">
<title>Node1&#45;&gt;Node17</title>
<path fill="none" stroke="midnightblue" d="M110.99,-70.85C133.53,-60.28 164.47,-45.97 192,-34 200.1,-30.48 208.9,-26.79 217.14,-23.4"/>
<polygon fill="midnightblue" stroke="midnightblue" points="218.56,-26.6 226.5,-19.58 215.92,-20.12 218.56,-26.6"/>
</g>
<!-- Node3 -->
<g id="node3" class="node">
<title>Node3</title>
<g id="a_node3"><a xlink:href="classutils_1_1Mutex.html#aa584b418a5ef484f76b93e361a1d7e32" target="_top" xlink:title="Verrouille le mutex. Cette méthode doit être appelée avant d&#39;utiliser la ressource associée....">
<polygon fill="white" stroke="black" points="885.5,-137.5 885.5,-156.5 986.5,-156.5 986.5,-137.5 885.5,-137.5"/>
<text text-anchor="middle" x="936" y="-144.5" font-family="Helvetica,sans-Serif" font-size="10.00">utils::Mutex::lock</text>
</a>
</g>
</g>
<!-- Node2&#45;&gt;Node3 -->
<g id="edge2" class="edge">
<title>Node2&#45;&gt;Node3</title>
<path fill="none" stroke="midnightblue" d="M311.28,-146.09C440.04,-146.27 745.81,-146.72 875.36,-146.91"/>
<polygon fill="midnightblue" stroke="midnightblue" points="875.48,-150.41 885.49,-146.93 875.49,-143.41 875.48,-150.41"/>
</g>
<!-- Node4 -->
<g id="node4" class="node">
<title>Node4</title>
<g id="a_node4"><a xlink:href="classActionManagerTimer.html#a39f4cbb5ddbbe6a40980bb59b8b59b05" target="_top" xlink:title=" ">
<polygon fill="white" stroke="black" points="347,-227 347,-257 466,-257 466,-227 347,-227"/>
<text text-anchor="start" x="355" y="-245" font-family="Helvetica,sans-Serif" font-size="10.00">ActionManagerTimer</text>
<text text-anchor="middle" x="406.5" y="-234" font-family="Helvetica,sans-Serif" font-size="10.00">::unblock</text>
</a>
</g>
</g>
<!-- Node2&#45;&gt;Node4 -->
<g id="edge3" class="edge">
<title>Node2&#45;&gt;Node4</title>
<path fill="none" stroke="midnightblue" d="M276.74,-161.21C302.71,-177.5 344.05,-203.44 372.86,-221.52"/>
<polygon fill="midnightblue" stroke="midnightblue" points="371.04,-224.51 381.37,-226.86 374.76,-218.58 371.04,-224.51"/>
</g>
<!-- Node7 -->
<g id="node7" class="node">
<title>Node7</title>
<g id="a_node7"><a xlink:href="classutils_1_1Mutex.html#a59b2079dc7f803d49f78ac9c04406cd3" target="_top" xlink:title="Déverrouille le mutex. Cette méthode doit être appelée après avoir utiliser la ressource associée.">
<polygon fill="white" stroke="black" points="879.5,-93.5 879.5,-112.5 992.5,-112.5 992.5,-93.5 879.5,-93.5"/>
<text text-anchor="middle" x="936" y="-100.5" font-family="Helvetica,sans-Serif" font-size="10.00">utils::Mutex::unlock</text>
</a>
</g>
</g>
<!-- Node2&#45;&gt;Node7 -->
<g id="edge18" class="edge">
<title>Node2&#45;&gt;Node7</title>
<path fill="none" stroke="midnightblue" d="M290.75,-130.99C361.63,-104.08 518.75,-48.59 657,-29 730.93,-18.52 753.58,-7.21 825,-29 861.76,-40.21 897.37,-68.29 917.69,-86.45"/>
<polygon fill="midnightblue" stroke="midnightblue" points="915.44,-89.14 925.18,-93.32 920.18,-83.98 915.44,-89.14"/>
</g>
<!-- Node4&#45;&gt;Node3 -->
<g id="edge11" class="edge">
<title>Node4&#45;&gt;Node3</title>
<path fill="none" stroke="midnightblue" d="M466.05,-242.16C547.89,-240.99 700.42,-233.76 825,-199 855.84,-190.39 888.72,-173.75 910.42,-161.6"/>
<polygon fill="midnightblue" stroke="midnightblue" points="912.32,-164.55 919.27,-156.55 908.85,-158.47 912.32,-164.55"/>
</g>
<!-- Node4&#45;&gt;Node5 -->
<g id="edge4" class="edge">
<title>Node4&#45;&gt;Node5</title>
<path fill="none" stroke="midnightblue" d="M420.4,-257.28C437.35,-276.48 468.85,-309.27 502,-329 507.95,-332.54 514.61,-335.57 521.26,-338.11"/>
<polygon fill="midnightblue" stroke="midnightblue" points="520.29,-341.48 530.89,-341.5 522.62,-334.88 520.29,-341.48"/>
</g>
<!-- Node4&#45;&gt;Node7 -->
<g id="edge17" class="edge">
<title>Node4&#45;&gt;Node7</title>
<path fill="none" stroke="midnightblue" d="M464.45,-226.99C569.69,-199.26 792.63,-140.51 889.02,-115.12"/>
<polygon fill="midnightblue" stroke="midnightblue" points="889.98,-118.48 898.76,-112.55 888.2,-111.71 889.98,-118.48"/>
</g>
<!-- Node9 -->
<g id="node9" class="node">
<title>Node9</title>
<g id="a_node9"><a xlink:href="classlogs_1_1Logger.html#a8b6a2019233bc44b3c3c86c653910831" target="_top" xlink:title="Trace un message de niveau ERROR.">
<polygon fill="white" stroke="black" points="509,-251.5 509,-270.5 614,-270.5 614,-251.5 509,-251.5"/>
<text text-anchor="middle" x="561.5" y="-258.5" font-family="Helvetica,sans-Serif" font-size="10.00">logs::Logger::error</text>
</a>
</g>
</g>
<!-- Node4&#45;&gt;Node9 -->
<g id="edge9" class="edge">
<title>Node4&#45;&gt;Node9</title>
<path fill="none" stroke="midnightblue" d="M466.22,-249.29C476.82,-250.61 487.9,-251.98 498.59,-253.31"/>
<polygon fill="midnightblue" stroke="midnightblue" points="498.33,-256.81 508.69,-254.57 499.2,-249.86 498.33,-256.81"/>
</g>
<!-- Node10 -->
<g id="node10" class="node">
<title>Node10</title>
<g id="a_node10"><a xlink:href="classActionManagerTimer.html#a280846361e5c7e0ebe57972755841c2b" target="_top" xlink:title=" ">
<polygon fill="white" stroke="black" points="502,-290 502,-320 621,-320 621,-290 502,-290"/>
<text text-anchor="start" x="510" y="-308" font-family="Helvetica,sans-Serif" font-size="10.00">ActionManagerTimer</text>
<text text-anchor="middle" x="561.5" y="-297" font-family="Helvetica,sans-Serif" font-size="10.00">::logger</text>
</a>
</g>
</g>
<!-- Node4&#45;&gt;Node10 -->
<g id="edge12" class="edge">
<title>Node4&#45;&gt;Node10</title>
<path fill="none" stroke="midnightblue" d="M444.15,-257.09C465.27,-265.79 492,-276.8 514.52,-286.07"/>
<polygon fill="midnightblue" stroke="midnightblue" points="513.31,-289.35 523.89,-289.92 515.97,-282.88 513.31,-289.35"/>
</g>
<!-- Node6 -->
<g id="node6" class="node">
<title>Node6</title>
<g id="a_node6"><a xlink:href="classlogs_1_1Logger_1_1LoggerBuffer.html#a0e4fd77693fd899ec1b0670354f93a02" target="_top" xlink:title="Cette méthode valide le message en cours de construction et le transmet au Logger de référence.">
<polygon fill="white" stroke="black" points="657,-251.5 657,-270.5 825,-270.5 825,-251.5 657,-251.5"/>
<text text-anchor="middle" x="741" y="-258.5" font-family="Helvetica,sans-Serif" font-size="10.00">logs::Logger::LoggerBuffer::end</text>
</a>
</g>
</g>
<!-- Node5&#45;&gt;Node6 -->
<g id="edge5" class="edge">
<title>Node5&#45;&gt;Node6</title>
<path fill="none" stroke="midnightblue" d="M592.08,-340.1C601.48,-336.95 611.81,-333.15 621,-329 655.65,-313.35 693.41,-290.74 716.89,-275.96"/>
<polygon fill="midnightblue" stroke="midnightblue" points="718.89,-278.84 725.45,-270.52 715.13,-272.93 718.89,-278.84"/>
</g>
<!-- Node6&#45;&gt;Node3 -->
<g id="edge6" class="edge">
<title>Node6&#45;&gt;Node3</title>
<path fill="none" stroke="midnightblue" d="M787.22,-251.49C799.85,-247.89 813.31,-243.14 825,-237 862.22,-217.45 898.62,-184.06 918.81,-163.91"/>
<polygon fill="midnightblue" stroke="midnightblue" points="921.43,-166.23 925.95,-156.65 916.44,-161.32 921.43,-166.23"/>
</g>
<!-- Node6&#45;&gt;Node7 -->
<g id="edge7" class="edge">
<title>Node6&#45;&gt;Node7</title>
<path fill="none" stroke="midnightblue" d="M759.1,-251.48C777.29,-240.67 806.01,-221.58 825,-199 847.77,-171.92 834.25,-151.16 861,-128 866.3,-123.41 872.49,-119.65 878.97,-116.58"/>
<polygon fill="midnightblue" stroke="midnightblue" points="880.75,-119.63 888.63,-112.55 878.06,-113.17 880.75,-119.63"/>
</g>
<!-- Node8 -->
<g id="node8" class="node">
<title>Node8</title>
<g id="a_node8"><a xlink:href="classlogs_1_1Logger.html#afa535aaf4891e02c4ff7f84d372b5b1b" target="_top" xlink:title="Méthode générique de trace d&#39;un message.">
<polygon fill="white" stroke="black" points="861,-251.5 861,-270.5 1011,-270.5 1011,-251.5 861,-251.5"/>
<text text-anchor="middle" x="936" y="-258.5" font-family="Helvetica,sans-Serif" font-size="10.00">logs::Logger::writeMessage</text>
</a>
</g>
</g>
<!-- Node6&#45;&gt;Node8 -->
<g id="edge8" class="edge">
<title>Node6&#45;&gt;Node8</title>
<path fill="none" stroke="midnightblue" d="M825.25,-261C833.66,-261 842.21,-261 850.64,-261"/>
<polygon fill="midnightblue" stroke="midnightblue" points="850.84,-264.5 860.84,-261 850.84,-257.5 850.84,-264.5"/>
</g>
<!-- Node9&#45;&gt;Node8 -->
<g id="edge10" class="edge">
<title>Node9&#45;&gt;Node8</title>
<path fill="none" stroke="midnightblue" d="M600.86,-270.51C617.93,-274.27 638.35,-278.14 657,-280 731.3,-287.4 750.61,-286.38 825,-280 843.08,-278.45 862.65,-275.49 880.2,-272.36"/>
<polygon fill="midnightblue" stroke="midnightblue" points="881.07,-275.76 890.27,-270.51 879.8,-268.88 881.07,-275.76"/>
</g>
<!-- Node11 -->
<g id="node11" class="node">
<title>Node11</title>
<g id="a_node11"><a xlink:href="classlogs_1_1LoggerFactory.html#a82585b5de73e471e06cafdccc3b3721e" target="_top" xlink:title="Cette méthode statique retourne un Logger en fonction de son nom.">
<polygon fill="white" stroke="black" points="685.5,-328 685.5,-358 796.5,-358 796.5,-328 685.5,-328"/>
<text text-anchor="start" x="693.5" y="-346" font-family="Helvetica,sans-Serif" font-size="10.00">logs::LoggerFactory</text>
<text text-anchor="middle" x="741" y="-335" font-family="Helvetica,sans-Serif" font-size="10.00">::logger</text>
</a>
</g>
</g>
<!-- Node10&#45;&gt;Node11 -->
<g id="edge13" class="edge">
<title>Node10&#45;&gt;Node11</title>
<path fill="none" stroke="midnightblue" d="M621.11,-317.55C638.42,-321.25 657.46,-325.33 675.13,-329.11"/>
<polygon fill="midnightblue" stroke="midnightblue" points="674.84,-332.63 685.36,-331.3 676.31,-325.79 674.84,-332.63"/>
</g>
<!-- Node12 -->
<g id="node12" class="node">
<title>Node12</title>
<g id="a_node12"><a xlink:href="classlogs_1_1LoggerFactory.html#ac89f19c0ffd71aa8cdc1c2d44c03809e" target="_top" xlink:title="Cette méthode ajoute un appender au système.">
<polygon fill="white" stroke="black" points="869,-289.5 869,-308.5 1003,-308.5 1003,-289.5 869,-289.5"/>
<text text-anchor="middle" x="936" y="-296.5" font-family="Helvetica,sans-Serif" font-size="10.00">logs::LoggerFactory::add</text>
</a>
</g>
</g>
<!-- Node11&#45;&gt;Node12 -->
<g id="edge14" class="edge">
<title>Node11&#45;&gt;Node12</title>
<path fill="none" stroke="midnightblue" d="M796.53,-330.57C823.71,-324.37 856.41,-316.92 883.21,-310.81"/>
<polygon fill="midnightblue" stroke="midnightblue" points="884.19,-314.17 893.16,-308.54 882.64,-307.35 884.19,-314.17"/>
</g>
<!-- Node13 -->
<g id="node13" class="node">
<title>Node13</title>
<g id="a_node13"><a xlink:href="classlogs_1_1LoggerFactory.html#a90478b91d7af2ef8841ded21e3521f69" target="_top" xlink:title="Cette méthode statique retourne l&#39;instance unique de la classe LoggerFactory.">
<polygon fill="white" stroke="black" points="880.5,-377 880.5,-407 991.5,-407 991.5,-377 880.5,-377"/>
<text text-anchor="start" x="888.5" y="-395" font-family="Helvetica,sans-Serif" font-size="10.00">logs::LoggerFactory</text>
<text text-anchor="middle" x="936" y="-384" font-family="Helvetica,sans-Serif" font-size="10.00">::instance</text>
</a>
</g>
</g>
<!-- Node11&#45;&gt;Node13 -->
<g id="edge15" class="edge">
<title>Node11&#45;&gt;Node13</title>
<path fill="none" stroke="midnightblue" d="M796.53,-356.84C819.56,-362.69 846.54,-369.54 870.54,-375.63"/>
<polygon fill="midnightblue" stroke="midnightblue" points="869.71,-379.04 880.27,-378.1 871.44,-372.25 869.71,-379.04"/>
</g>
<!-- Node14 -->
<g id="node14" class="node">
<title>Node14</title>
<g id="a_node14"><a xlink:href="classlogs_1_1LoggerFactory.html#a212aa623f4b6bee12cb39e8017dde670" target="_top" xlink:title="Cette méthode retourne le Logger principal qui définit le niveau de trace par défaut.">
<polygon fill="white" stroke="black" points="880.5,-328 880.5,-358 991.5,-358 991.5,-328 880.5,-328"/>
<text text-anchor="start" x="888.5" y="-346" font-family="Helvetica,sans-Serif" font-size="10.00">logs::LoggerFactory</text>
<text text-anchor="middle" x="936" y="-335" font-family="Helvetica,sans-Serif" font-size="10.00">::rootLogger</text>
</a>
</g>
</g>
<!-- Node11&#45;&gt;Node14 -->
<g id="edge16" class="edge">
<title>Node11&#45;&gt;Node14</title>
<path fill="none" stroke="midnightblue" d="M796.53,-343C819.45,-343 846.3,-343 870.22,-343"/>
<polygon fill="midnightblue" stroke="midnightblue" points="870.27,-346.5 880.27,-343 870.27,-339.5 870.27,-346.5"/>
</g>
<!-- Node15&#45;&gt;Node3 -->
<g id="edge20" class="edge">
<title>Node15&#45;&gt;Node3</title>
<path fill="none" stroke="midnightblue" d="M800.68,-66.1C809.22,-69.22 817.61,-73.13 825,-78 846.09,-91.92 840.22,-107.62 861,-122 867.97,-126.83 875.95,-130.79 884.04,-134.01"/>
<polygon fill="midnightblue" stroke="midnightblue" points="882.92,-137.33 893.51,-137.48 885.32,-130.76 882.92,-137.33"/>
</g>
<!-- Node15&#45;&gt;Node7 -->
<g id="edge21" class="edge">
<title>Node15&#45;&gt;Node7</title>
<path fill="none" stroke="midnightblue" d="M800.69,-68.9C828.62,-75.99 861.57,-84.36 887.84,-91.03"/>
<polygon fill="midnightblue" stroke="midnightblue" points="887,-94.43 897.56,-93.49 888.73,-87.64 887,-94.43"/>
</g>
<!-- Node16&#45;&gt;Node3 -->
<g id="edge23" class="edge">
<title>Node16&#45;&gt;Node3</title>
<path fill="none" stroke="midnightblue" d="M800.69,-116.38C827.03,-122.38 857.83,-129.41 883.28,-135.21"/>
<polygon fill="midnightblue" stroke="midnightblue" points="882.59,-138.64 893.12,-137.45 884.14,-131.82 882.59,-138.64"/>
</g>
<!-- Node16&#45;&gt;Node7 -->
<g id="edge24" class="edge">
<title>Node16&#45;&gt;Node7</title>
<path fill="none" stroke="midnightblue" d="M800.69,-103C822.33,-103 846.98,-103 869.21,-103"/>
<polygon fill="midnightblue" stroke="midnightblue" points="869.23,-106.5 879.23,-103 869.23,-99.5 869.23,-106.5"/>
</g>
</g>
</svg>
