<?xml version="1.0" encoding="UTF-8" standalone="no"?>
<!DOCTYPE svg PUBLIC "-//W3C//DTD SVG 1.1//EN"
 "http://www.w3.org/Graphics/SVG/1.1/DTD/svg11.dtd">
<!-- Generated by graphviz version 2.43.0 (0)
 -->
<!-- Title: AsservEsialR::resetAsserv Pages: 1 -->
<svg width="880pt" height="241pt"
 viewBox="0.00 0.00 880.00 240.50" xmlns="http://www.w3.org/2000/svg" xmlns:xlink="http://www.w3.org/1999/xlink">
<g id="graph0" class="graph" transform="scale(1 1) rotate(0) translate(4 236.5)">
<title>AsservEsialR::resetAsserv</title>
<polygon fill="white" stroke="transparent" points="-4,4 -4,-236.5 876,-236.5 876,4 -4,4"/>
<!-- Node1 -->
<g id="node1" class="node">
<title>Node1</title>
<g id="a_node1"><a xlink:title=" ">
<polygon fill="#bfbfbf" stroke="black" points="0,-137 0,-156 143,-156 143,-137 0,-137"/>
<text text-anchor="middle" x="71.5" y="-144" font-family="Helvetica,sans-Serif" font-size="10.00">AsservEsialR::resetAsserv</text>
</a>
</g>
</g>
<!-- Node2 -->
<g id="node2" class="node">
<title>Node2</title>
<g id="a_node2"><a xlink:href="classlogs_1_1Logger.html#a7dffc8f610014ec59b63392da16140e4" target="_top" xlink:title="Trace un message de niveau DEBUG.">
<polygon fill="white" stroke="black" points="362.5,-213 362.5,-232 474.5,-232 474.5,-213 362.5,-213"/>
<text text-anchor="middle" x="418.5" y="-220" font-family="Helvetica,sans-Serif" font-size="10.00">logs::Logger::debug</text>
</a>
</g>
</g>
<!-- Node1&#45;&gt;Node2 -->
<g id="edge1" class="edge">
<title>Node1&#45;&gt;Node2</title>
<path fill="none" stroke="midnightblue" d="M94.53,-156.02C115.79,-164.86 149.07,-177.78 179,-185.5 236.77,-200.4 304.05,-210.17 352.39,-215.91"/>
<polygon fill="midnightblue" stroke="midnightblue" points="352.07,-219.4 362.41,-217.07 352.88,-212.44 352.07,-219.4"/>
</g>
<!-- Node4 -->
<g id="node4" class="node">
<title>Node4</title>
<g id="a_node4"><a xlink:href="namespacelogs.html#ac6f325c6cfe6189bc8e243daa184453b" target="_top" xlink:title="Cette méthode permet de finir les flux de construction par la notation.">
<polygon fill="white" stroke="black" points="388,-175 388,-194 449,-194 449,-175 388,-175"/>
<text text-anchor="middle" x="418.5" y="-182" font-family="Helvetica,sans-Serif" font-size="10.00">logs::end</text>
</a>
</g>
</g>
<!-- Node1&#45;&gt;Node4 -->
<g id="edge3" class="edge">
<title>Node1&#45;&gt;Node4</title>
<path fill="none" stroke="midnightblue" d="M120.06,-156C138.42,-159.4 159.63,-163.01 179,-165.5 248.52,-174.45 330.01,-179.86 377.49,-182.5"/>
<polygon fill="midnightblue" stroke="midnightblue" points="377.48,-186.01 387.66,-183.05 377.86,-179.02 377.48,-186.01"/>
</g>
<!-- Node8 -->
<g id="node8" class="node">
<title>Node8</title>
<g id="a_node8"><a xlink:href="classAsservEsialR.html#a558147f3a68a384944652e810e6491cb" target="_top" xlink:title=" ">
<polygon fill="white" stroke="black" points="182,-137 182,-156 316,-156 316,-137 182,-137"/>
<text text-anchor="middle" x="249" y="-144" font-family="Helvetica,sans-Serif" font-size="10.00">AsservEsialR::initAsserv</text>
</a>
</g>
</g>
<!-- Node1&#45;&gt;Node8 -->
<g id="edge8" class="edge">
<title>Node1&#45;&gt;Node8</title>
<path fill="none" stroke="midnightblue" d="M143.12,-146.5C152.5,-146.5 162.14,-146.5 171.61,-146.5"/>
<polygon fill="midnightblue" stroke="midnightblue" points="171.78,-150 181.78,-146.5 171.78,-143 171.78,-150"/>
</g>
<!-- Node9 -->
<g id="node9" class="node">
<title>Node9</title>
<g id="a_node9"><a xlink:href="classAsservEsialR.html#a7d6428bb79534a27e2b8b2e1baae943b" target="_top" xlink:title="Retourne le Logger associe a la classe AsservEsialR.">
<polygon fill="white" stroke="black" points="360.5,-99 360.5,-118 476.5,-118 476.5,-99 360.5,-99"/>
<text text-anchor="middle" x="418.5" y="-106" font-family="Helvetica,sans-Serif" font-size="10.00">AsservEsialR::logger</text>
</a>
</g>
</g>
<!-- Node1&#45;&gt;Node9 -->
<g id="edge16" class="edge">
<title>Node1&#45;&gt;Node9</title>
<path fill="none" stroke="midnightblue" d="M120.06,-137C138.42,-133.6 159.63,-129.99 179,-127.5 236.57,-120.09 302.36,-115.11 350.24,-112.11"/>
<polygon fill="midnightblue" stroke="midnightblue" points="350.71,-115.59 360.48,-111.48 350.28,-108.6 350.71,-115.59"/>
</g>
<!-- Node14 -->
<g id="node14" class="node">
<title>Node14</title>
<g id="a_node14"><a xlink:href="classAsservEsialR.html#a8917d11aef1998736c9e6e16dfe22de0" target="_top" xlink:title=" ">
<polygon fill="white" stroke="black" points="179,-61 179,-80 319,-80 319,-61 179,-61"/>
<text text-anchor="middle" x="249" y="-68" font-family="Helvetica,sans-Serif" font-size="10.00">AsservEsialR::stopAsserv</text>
</a>
</g>
</g>
<!-- Node1&#45;&gt;Node14 -->
<g id="edge17" class="edge">
<title>Node1&#45;&gt;Node14</title>
<path fill="none" stroke="midnightblue" d="M90.66,-136.8C111.62,-125.81 147.28,-107.71 179,-94.5 188.48,-90.55 198.87,-86.7 208.65,-83.28"/>
<polygon fill="midnightblue" stroke="midnightblue" points="209.84,-86.57 218.16,-80.01 207.56,-79.95 209.84,-86.57"/>
</g>
<!-- Node3 -->
<g id="node3" class="node">
<title>Node3</title>
<g id="a_node3"><a xlink:href="classlogs_1_1Logger.html#afa535aaf4891e02c4ff7f84d372b5b1b" target="_top" xlink:title="Méthode générique de trace d&#39;un message.">
<polygon fill="white" stroke="black" points="722,-213 722,-232 872,-232 872,-213 722,-213"/>
<text text-anchor="middle" x="797" y="-220" font-family="Helvetica,sans-Serif" font-size="10.00">logs::Logger::writeMessage</text>
</a>
</g>
</g>
<!-- Node2&#45;&gt;Node3 -->
<g id="edge2" class="edge">
<title>Node2&#45;&gt;Node3</title>
<path fill="none" stroke="midnightblue" d="M474.65,-222.5C537.07,-222.5 639.48,-222.5 711.89,-222.5"/>
<polygon fill="midnightblue" stroke="midnightblue" points="711.9,-226 721.9,-222.5 711.9,-219 711.9,-226"/>
</g>
<!-- Node5 -->
<g id="node5" class="node">
<title>Node5</title>
<g id="a_node5"><a xlink:href="classlogs_1_1Logger_1_1LoggerBuffer.html#a0e4fd77693fd899ec1b0670354f93a02" target="_top" xlink:title="Cette méthode valide le message en cours de construction et le transmet au Logger de référence.">
<polygon fill="white" stroke="black" points="518,-175 518,-194 686,-194 686,-175 518,-175"/>
<text text-anchor="middle" x="602" y="-182" font-family="Helvetica,sans-Serif" font-size="10.00">logs::Logger::LoggerBuffer::end</text>
</a>
</g>
</g>
<!-- Node4&#45;&gt;Node5 -->
<g id="edge4" class="edge">
<title>Node4&#45;&gt;Node5</title>
<path fill="none" stroke="midnightblue" d="M449.07,-184.5C465.28,-184.5 486.38,-184.5 507.66,-184.5"/>
<polygon fill="midnightblue" stroke="midnightblue" points="507.77,-188 517.77,-184.5 507.77,-181 507.77,-188"/>
</g>
<!-- Node5&#45;&gt;Node3 -->
<g id="edge7" class="edge">
<title>Node5&#45;&gt;Node3</title>
<path fill="none" stroke="midnightblue" d="M651.7,-194.09C677.86,-199.24 710.28,-205.62 737.77,-211.03"/>
<polygon fill="midnightblue" stroke="midnightblue" points="737.16,-214.48 747.65,-212.98 738.51,-207.61 737.16,-214.48"/>
</g>
<!-- Node6 -->
<g id="node6" class="node">
<title>Node6</title>
<g id="a_node6"><a xlink:href="classutils_1_1Mutex.html#aa584b418a5ef484f76b93e361a1d7e32" target="_top" xlink:title="Verrouille le mutex. Cette méthode doit être appelée avant d&#39;utiliser la ressource associée....">
<polygon fill="white" stroke="black" points="746.5,-175 746.5,-194 847.5,-194 847.5,-175 746.5,-175"/>
<text text-anchor="middle" x="797" y="-182" font-family="Helvetica,sans-Serif" font-size="10.00">utils::Mutex::lock</text>
</a>
</g>
</g>
<!-- Node5&#45;&gt;Node6 -->
<g id="edge5" class="edge">
<title>Node5&#45;&gt;Node6</title>
<path fill="none" stroke="midnightblue" d="M686.25,-184.5C703.07,-184.5 720.44,-184.5 736.26,-184.5"/>
<polygon fill="midnightblue" stroke="midnightblue" points="736.41,-188 746.41,-184.5 736.41,-181 736.41,-188"/>
</g>
<!-- Node7 -->
<g id="node7" class="node">
<title>Node7</title>
<g id="a_node7"><a xlink:href="classutils_1_1Mutex.html#a59b2079dc7f803d49f78ac9c04406cd3" target="_top" xlink:title="Déverrouille le mutex. Cette méthode doit être appelée après avoir utiliser la ressource associée.">
<polygon fill="white" stroke="black" points="740.5,-137 740.5,-156 853.5,-156 853.5,-137 740.5,-137"/>
<text text-anchor="middle" x="797" y="-144" font-family="Helvetica,sans-Serif" font-size="10.00">utils::Mutex::unlock</text>
</a>
</g>
</g>
<!-- Node5&#45;&gt;Node7 -->
<g id="edge6" class="edge">
<title>Node5&#45;&gt;Node7</title>
<path fill="none" stroke="midnightblue" d="M651.7,-174.91C677.86,-169.76 710.28,-163.38 737.77,-157.97"/>
<polygon fill="midnightblue" stroke="midnightblue" points="738.51,-161.39 747.65,-156.02 737.16,-154.52 738.51,-161.39"/>
</g>
<!-- Node8&#45;&gt;Node2 -->
<g id="edge9" class="edge">
<title>Node8&#45;&gt;Node2</title>
<path fill="none" stroke="midnightblue" d="M265.17,-156.01C285.16,-168.24 321.71,-189.57 355,-203.5 360.43,-205.77 366.22,-207.9 372.02,-209.86"/>
<polygon fill="midnightblue" stroke="midnightblue" points="371.1,-213.24 381.69,-212.97 373.25,-206.58 371.1,-213.24"/>
</g>
<!-- Node8&#45;&gt;Node4 -->
<g id="edge10" class="edge">
<title>Node8&#45;&gt;Node4</title>
<path fill="none" stroke="midnightblue" d="M292.27,-156.09C318.62,-162.07 352.3,-169.71 378.1,-175.56"/>
<polygon fill="midnightblue" stroke="midnightblue" points="377.39,-178.99 387.92,-177.79 378.94,-172.16 377.39,-178.99"/>
</g>
<!-- Node8&#45;&gt;Node9 -->
<g id="edge11" class="edge">
<title>Node8&#45;&gt;Node9</title>
<path fill="none" stroke="midnightblue" d="M292.27,-136.91C314.57,-131.85 342.12,-125.6 365.7,-120.25"/>
<polygon fill="midnightblue" stroke="midnightblue" points="366.56,-123.65 375.54,-118.02 365.01,-116.82 366.56,-123.65"/>
</g>
<!-- Node10 -->
<g id="node10" class="node">
<title>Node10</title>
<g id="a_node10"><a xlink:href="classlogs_1_1LoggerFactory.html#a82585b5de73e471e06cafdccc3b3721e" target="_top" xlink:title="Cette méthode statique retourne un Logger en fonction de son nom.">
<polygon fill="white" stroke="black" points="546.5,-93.5 546.5,-123.5 657.5,-123.5 657.5,-93.5 546.5,-93.5"/>
<text text-anchor="start" x="554.5" y="-111.5" font-family="Helvetica,sans-Serif" font-size="10.00">logs::LoggerFactory</text>
<text text-anchor="middle" x="602" y="-100.5" font-family="Helvetica,sans-Serif" font-size="10.00">::logger</text>
</a>
</g>
</g>
<!-- Node9&#45;&gt;Node10 -->
<g id="edge12" class="edge">
<title>Node9&#45;&gt;Node10</title>
<path fill="none" stroke="midnightblue" d="M476.93,-108.5C495.77,-108.5 516.83,-108.5 536.18,-108.5"/>
<polygon fill="midnightblue" stroke="midnightblue" points="536.42,-112 546.42,-108.5 536.42,-105 536.42,-112"/>
</g>
<!-- Node11 -->
<g id="node11" class="node">
<title>Node11</title>
<g id="a_node11"><a xlink:href="classlogs_1_1LoggerFactory.html#ac89f19c0ffd71aa8cdc1c2d44c03809e" target="_top" xlink:title="Cette méthode ajoute un appender au système.">
<polygon fill="white" stroke="black" points="730,-99 730,-118 864,-118 864,-99 730,-99"/>
<text text-anchor="middle" x="797" y="-106" font-family="Helvetica,sans-Serif" font-size="10.00">logs::LoggerFactory::add</text>
</a>
</g>
</g>
<!-- Node10&#45;&gt;Node11 -->
<g id="edge13" class="edge">
<title>Node10&#45;&gt;Node11</title>
<path fill="none" stroke="midnightblue" d="M657.53,-108.5C676.88,-108.5 699.03,-108.5 719.85,-108.5"/>
<polygon fill="midnightblue" stroke="midnightblue" points="719.95,-112 729.95,-108.5 719.95,-105 719.95,-112"/>
</g>
<!-- Node12 -->
<g id="node12" class="node">
<title>Node12</title>
<g id="a_node12"><a xlink:href="classlogs_1_1LoggerFactory.html#a90478b91d7af2ef8841ded21e3521f69" target="_top" xlink:title="Cette méthode statique retourne l&#39;instance unique de la classe LoggerFactory.">
<polygon fill="white" stroke="black" points="741.5,-49.5 741.5,-79.5 852.5,-79.5 852.5,-49.5 741.5,-49.5"/>
<text text-anchor="start" x="749.5" y="-67.5" font-family="Helvetica,sans-Serif" font-size="10.00">logs::LoggerFactory</text>
<text text-anchor="middle" x="797" y="-56.5" font-family="Helvetica,sans-Serif" font-size="10.00">::instance</text>
</a>
</g>
</g>
<!-- Node10&#45;&gt;Node12 -->
<g id="edge14" class="edge">
<title>Node10&#45;&gt;Node12</title>
<path fill="none" stroke="midnightblue" d="M657.53,-96.07C680.45,-90.84 707.3,-84.72 731.22,-79.27"/>
<polygon fill="midnightblue" stroke="midnightblue" points="732.3,-82.61 741.27,-76.98 730.74,-75.79 732.3,-82.61"/>
</g>
<!-- Node13 -->
<g id="node13" class="node">
<title>Node13</title>
<g id="a_node13"><a xlink:href="classlogs_1_1LoggerFactory.html#a212aa623f4b6bee12cb39e8017dde670" target="_top" xlink:title="Cette méthode retourne le Logger principal qui définit le niveau de trace par défaut.">
<polygon fill="white" stroke="black" points="741.5,-0.5 741.5,-30.5 852.5,-30.5 852.5,-0.5 741.5,-0.5"/>
<text text-anchor="start" x="749.5" y="-18.5" font-family="Helvetica,sans-Serif" font-size="10.00">logs::LoggerFactory</text>
<text text-anchor="middle" x="797" y="-7.5" font-family="Helvetica,sans-Serif" font-size="10.00">::rootLogger</text>
</a>
</g>
</g>
<!-- Node10&#45;&gt;Node13 -->
<g id="edge15" class="edge">
<title>Node10&#45;&gt;Node13</title>
<path fill="none" stroke="midnightblue" d="M625.93,-93.23C649.34,-78.13 687.1,-55.06 722,-39.5 726.14,-37.66 730.46,-35.88 734.85,-34.19"/>
<polygon fill="midnightblue" stroke="midnightblue" points="736.34,-37.37 744.51,-30.64 733.92,-30.8 736.34,-37.37"/>
</g>
<!-- Node15 -->
<g id="node15" class="node">
<title>Node15</title>
<g id="a_node15"><a xlink:href="namespaceutils.html#a4f86fc4c334661a6995538cc080a40c9" target="_top" xlink:title="Met en pause le thread courant pendant usec microsecondes.">
<polygon fill="white" stroke="black" points="355,-61 355,-80 482,-80 482,-61 355,-61"/>
<text text-anchor="middle" x="418.5" y="-68" font-family="Helvetica,sans-Serif" font-size="10.00">utils::sleep_for_micros</text>
</a>
</g>
</g>
<!-- Node14&#45;&gt;Node15 -->
<g id="edge18" class="edge">
<title>Node14&#45;&gt;Node15</title>
<path fill="none" stroke="midnightblue" d="M319.1,-70.5C327.49,-70.5 336.08,-70.5 344.53,-70.5"/>
<polygon fill="midnightblue" stroke="midnightblue" points="344.74,-74 354.74,-70.5 344.74,-67 344.74,-74"/>
</g>
</g>
</svg>
