<?xml version="1.0" encoding="UTF-8" standalone="no"?>
<!DOCTYPE svg PUBLIC "-//W3C//DTD SVG 1.1//EN"
 "http://www.w3.org/Graphics/SVG/1.1/DTD/svg11.dtd">
<!-- Generated by graphviz version 2.43.0 (0)
 -->
<!-- Title: Asserv::doRelativeRotateRad Pages: 1 -->
<!--zoomable 379 -->
<svg id="main" version="1.1" xmlns="http://www.w3.org/2000/svg" xmlns:xlink="http://www.w3.org/1999/xlink" xml:space="preserve" onload="init(evt)">
<style type="text/css"><![CDATA[
.edge:hover path { stroke: red; }
.edge:hover polygon { stroke: red; fill: red; }
]]></style>
<script type="text/javascript"><![CDATA[
var edges = document.getElementsByTagName('g');
if (edges && edges.length) {
  for (var i=0;i<edges.length;i++) {
    if (edges[i].id.substr(0,4)=='edge') {
      edges[i].setAttribute('class','edge');
    }
  }
}
]]></script>
        <defs>
                <circle id="rim" cx="0" cy="0" r="7"/>
                <circle id="rim2" cx="0" cy="0" r="3.5"/>
                <g id="zoomPlus">
                        <use xlink:href="#rim" fill="#404040">
                                <set attributeName="fill" to="#808080" begin="zoomplus.mouseover" end="zoomplus.mouseout"/>
                        </use>
                        <path d="M-4,0h8M0,-4v8" fill="none" stroke="white" stroke-width="1.5" pointer-events="none"/>
                </g>
                <g id="zoomMin">
                        <use xlink:href="#rim" fill="#404040">
                                <set attributeName="fill" to="#808080" begin="zoomminus.mouseover" end="zoomminus.mouseout"/>
                        </use>
                        <path d="M-4,0h8" fill="none" stroke="white" stroke-width="1.5" pointer-events="none"/>
                </g>
                <g id="dirArrow">
                        <path fill="none" stroke="white" stroke-width="1.5" d="M0,-3.0v7 M-2.5,-0.5L0,-3.0L2.5,-0.5"/>
                </g>
               <g id="resetDef">
                       <use xlink:href="#rim2" fill="#404040">
                               <set attributeName="fill" to="#808080" begin="reset.mouseover" end="reset.mouseout"/>
                       </use>
               </g>
        </defs>

<script type="text/javascript">
var viewWidth = 1089;
var viewHeight = 379;
var sectionId = 'dynsection-30';
</script>
<script xlink:href="svgpan.js"/>
<svg id="graph" class="graph">
<g id="viewport">
<title>Asserv::doRelativeRotateRad</title>
<polygon fill="white" stroke="transparent" points="-4,4 -4,-375.23 1085,-375.23 1085,4 -4,4"/>
<!-- Node1 -->
<g id="node1" class="node">
<title>Node1</title>
<g id="a_node1"><a xlink:title=" ">
<polygon fill="#bfbfbf" stroke="black" points="0,-167.73 0,-186.73 158,-186.73 158,-167.73 0,-167.73"/>
<text text-anchor="middle" x="79" y="-174.73" font-family="Helvetica,sans-Serif" font-size="10.00">Asserv::doRelativeRotateRad</text>
</a>
</g>
</g>
<!-- Node2 -->
<g id="node2" class="node">
<title>Node2</title>
<g id="a_node2"><a xlink:href="classAsservEsialR.html#a71a6761ebf937db24c35bd559cd9d836" target="_top" xlink:title="Effectue une rotation sur place.">
<polygon fill="white" stroke="black" points="197.5,-187.23 197.5,-217.23 317.5,-217.23 317.5,-187.23 197.5,-187.23"/>
<text text-anchor="start" x="205.5" y="-205.23" font-family="Helvetica,sans-Serif" font-size="10.00">AsservEsialR::motion</text>
<text text-anchor="middle" x="257.5" y="-194.23" font-family="Helvetica,sans-Serif" font-size="10.00">_DoRotate</text>
</a>
</g>
</g>
<!-- Node1&#45;&gt;Node2 -->
<g id="edge1" class="edge">
<title>Node1&#45;&gt;Node2</title>
<path fill="none" stroke="midnightblue" d="M147.23,-186.75C160.35,-188.61 174.13,-190.56 187.31,-192.43"/>
<polygon fill="midnightblue" stroke="midnightblue" points="186.86,-195.9 197.25,-193.84 187.84,-188.97 186.86,-195.9"/>
</g>
<!-- Node21 -->
<g id="node21" class="node">
<title>Node21</title>
<g id="a_node21"><a xlink:href="classAAsservDriver.html#a2211748fb68a1431096c17ba4f9d7c42" target="_top" xlink:title="Effectue une rotation sur place.">
<polygon fill="white" stroke="black" points="194,-138.23 194,-168.23 321,-168.23 321,-138.23 194,-138.23"/>
<text text-anchor="start" x="202" y="-156.23" font-family="Helvetica,sans-Serif" font-size="10.00">AAsservDriver::motion</text>
<text text-anchor="middle" x="257.5" y="-145.23" font-family="Helvetica,sans-Serif" font-size="10.00">_DoRotate</text>
</a>
</g>
</g>
<!-- Node1&#45;&gt;Node21 -->
<g id="edge27" class="edge">
<title>Node1&#45;&gt;Node21</title>
<path fill="none" stroke="midnightblue" d="M150.01,-167.71C161.06,-166.21 172.52,-164.65 183.63,-163.14"/>
<polygon fill="midnightblue" stroke="midnightblue" points="184.29,-166.58 193.73,-161.77 183.35,-159.65 184.29,-166.58"/>
</g>
<!-- Node3 -->
<g id="node3" class="node">
<title>Node3</title>
<g id="a_node3"><a xlink:href="classCommandManagerA.html#a962381653cece51ae2278284c646d678" target="_top" xlink:title=" ">
<polygon fill="white" stroke="black" points="357,-313.73 357,-332.73 518,-332.73 518,-313.73 357,-313.73"/>
<text text-anchor="middle" x="437.5" y="-320.73" font-family="Helvetica,sans-Serif" font-size="10.00">CommandManagerA::addTurn</text>
</a>
</g>
</g>
<!-- Node2&#45;&gt;Node3 -->
<g id="edge2" class="edge">
<title>Node2&#45;&gt;Node3</title>
<path fill="none" stroke="midnightblue" d="M280.68,-217.31C314.73,-240.46 379.53,-284.5 413.85,-307.84"/>
<polygon fill="midnightblue" stroke="midnightblue" points="412.04,-310.84 422.28,-313.57 415.98,-305.05 412.04,-310.84"/>
</g>
<!-- Node7 -->
<g id="node7" class="node">
<title>Node7</title>
<g id="a_node7"><a xlink:href="classutils_1_1Mutex.html#aa584b418a5ef484f76b93e361a1d7e32" target="_top" xlink:title="Verrouille le mutex. Cette méthode doit être appelée avant d&#39;utiliser la ressource associée....">
<polygon fill="white" stroke="black" points="955.5,-97.73 955.5,-116.73 1056.5,-116.73 1056.5,-97.73 955.5,-97.73"/>
<text text-anchor="middle" x="1006" y="-104.73" font-family="Helvetica,sans-Serif" font-size="10.00">utils::Mutex::lock</text>
</a>
</g>
</g>
<!-- Node2&#45;&gt;Node7 -->
<g id="edge6" class="edge">
<title>Node2&#45;&gt;Node7</title>
<path fill="none" stroke="midnightblue" d="M305.23,-187.08C310.82,-184.26 316.23,-181 321,-177.23 342.78,-160.04 336.62,-145.06 357,-126.23 431.79,-57.11 455.8,-36.19 554,-9.23 598.78,3.06 866.57,3.7 895,-12.23 921.14,-26.88 908.89,-49.01 931,-69.23 941.98,-79.27 956.1,-87.38 969.06,-93.5"/>
<polygon fill="midnightblue" stroke="midnightblue" points="967.67,-96.71 978.23,-97.59 970.53,-90.32 967.67,-96.71"/>
</g>
<!-- Node8 -->
<g id="node8" class="node">
<title>Node8</title>
<g id="a_node8"><a xlink:href="classutils_1_1Mutex.html#a59b2079dc7f803d49f78ac9c04406cd3" target="_top" xlink:title="Déverrouille le mutex. Cette méthode doit être appelée après avoir utiliser la ressource associée.">
<polygon fill="white" stroke="black" points="949.5,-173.73 949.5,-192.73 1062.5,-192.73 1062.5,-173.73 949.5,-173.73"/>
<text text-anchor="middle" x="1006" y="-180.73" font-family="Helvetica,sans-Serif" font-size="10.00">utils::Mutex::unlock</text>
</a>
</g>
</g>
<!-- Node2&#45;&gt;Node8 -->
<g id="edge7" class="edge">
<title>Node2&#45;&gt;Node8</title>
<path fill="none" stroke="midnightblue" d="M317.85,-205.01C430.55,-209.63 683.21,-216.84 895,-200.23 910.88,-198.99 927.94,-196.78 943.78,-194.36"/>
<polygon fill="midnightblue" stroke="midnightblue" points="944.65,-197.77 953.98,-192.75 943.55,-190.85 944.65,-197.77"/>
</g>
<!-- Node9 -->
<g id="node9" class="node">
<title>Node9</title>
<g id="a_node9"><a xlink:href="classAsservEsialR.html#a1cc2e13537bf94f214d94b67a0a39cde" target="_top" xlink:title=" ">
<polygon fill="white" stroke="black" points="361,-135.73 361,-154.73 514,-154.73 514,-135.73 361,-135.73"/>
<text text-anchor="middle" x="437.5" y="-142.73" font-family="Helvetica,sans-Serif" font-size="10.00">AsservEsialR::waitEndOfTraj</text>
</a>
</g>
</g>
<!-- Node2&#45;&gt;Node9 -->
<g id="edge8" class="edge">
<title>Node2&#45;&gt;Node9</title>
<path fill="none" stroke="midnightblue" d="M305.73,-187.11C334.14,-178.01 369.88,-166.57 396.81,-157.94"/>
<polygon fill="midnightblue" stroke="midnightblue" points="398.22,-161.17 406.67,-154.78 396.08,-154.5 398.22,-161.17"/>
</g>
<!-- Node4 -->
<g id="node4" class="node">
<title>Node4</title>
<g id="a_node4"><a xlink:href="classUtils.html#a8f9e98aead350cf853e4b3b611dadd7f" target="_top" xlink:title=" ">
<polygon fill="white" stroke="black" points="573,-313.73 573,-332.73 662,-332.73 662,-313.73 573,-313.73"/>
<text text-anchor="middle" x="617.5" y="-320.73" font-family="Helvetica,sans-Serif" font-size="10.00">Utils::degToUO</text>
</a>
</g>
</g>
<!-- Node3&#45;&gt;Node4 -->
<g id="edge3" class="edge">
<title>Node3&#45;&gt;Node4</title>
<path fill="none" stroke="midnightblue" d="M518.13,-323.23C533.03,-323.23 548.28,-323.23 562.2,-323.23"/>
<polygon fill="midnightblue" stroke="midnightblue" points="562.55,-326.73 572.55,-323.23 562.55,-319.73 562.55,-326.73"/>
</g>
<!-- Node6 -->
<g id="node6" class="node">
<title>Node6</title>
<g id="a_node6"><a xlink:href="classCMDList.html#adc5c7ef68e420eeea3974275b48bb7e8" target="_top" xlink:title=" ">
<polygon fill="white" stroke="black" points="565,-351.73 565,-370.73 670,-370.73 670,-351.73 565,-351.73"/>
<text text-anchor="middle" x="617.5" y="-358.73" font-family="Helvetica,sans-Serif" font-size="10.00">CMDList::enqueue</text>
</a>
</g>
</g>
<!-- Node3&#45;&gt;Node6 -->
<g id="edge5" class="edge">
<title>Node3&#45;&gt;Node6</title>
<path fill="none" stroke="midnightblue" d="M483.42,-332.82C507.33,-337.93 536.92,-344.24 562.12,-349.62"/>
<polygon fill="midnightblue" stroke="midnightblue" points="561.4,-353.05 571.91,-351.71 562.86,-346.2 561.4,-353.05"/>
</g>
<!-- Node5 -->
<g id="node5" class="node">
<title>Node5</title>
<g id="a_node5"><a xlink:href="classOdometrie.html#a883791d5ea44c7d36d8e3ce3766164b4" target="_top" xlink:title=" ">
<polygon fill="white" stroke="black" points="717,-318.73 717,-337.73 895,-337.73 895,-318.73 717,-318.73"/>
<text text-anchor="middle" x="806" y="-325.73" font-family="Helvetica,sans-Serif" font-size="10.00">Odometrie::getDistanceRouesUO</text>
</a>
</g>
</g>
<!-- Node4&#45;&gt;Node5 -->
<g id="edge4" class="edge">
<title>Node4&#45;&gt;Node5</title>
<path fill="none" stroke="midnightblue" d="M662.23,-324.4C675.65,-324.76 691,-325.18 706.55,-325.59"/>
<polygon fill="midnightblue" stroke="midnightblue" points="706.69,-329.1 716.78,-325.87 706.87,-322.1 706.69,-329.1"/>
</g>
<!-- Node9&#45;&gt;Node7 -->
<g id="edge19" class="edge">
<title>Node9&#45;&gt;Node7</title>
<path fill="none" stroke="midnightblue" d="M460.55,-135.64C483.41,-126.25 520.44,-112.61 554,-107.23 692.55,-85.02 858.14,-93.91 945.01,-101.24"/>
<polygon fill="midnightblue" stroke="midnightblue" points="944.94,-104.74 955.21,-102.12 945.55,-97.77 944.94,-104.74"/>
</g>
<!-- Node9&#45;&gt;Node8 -->
<g id="edge26" class="edge">
<title>Node9&#45;&gt;Node8</title>
<path fill="none" stroke="midnightblue" d="M478.38,-154.74C500.54,-159.72 528.67,-165.53 554,-169.23 689.88,-189.11 851.16,-188.33 939.33,-185.86"/>
<polygon fill="midnightblue" stroke="midnightblue" points="939.56,-189.36 949.45,-185.56 939.35,-182.36 939.56,-189.36"/>
</g>
<!-- Node10 -->
<g id="node10" class="node">
<title>Node10</title>
<g id="a_node10"><a xlink:href="classlogs_1_1Logger.html#a7dffc8f610014ec59b63392da16140e4" target="_top" xlink:title="Trace un message de niveau DEBUG.">
<polygon fill="white" stroke="black" points="750,-21.73 750,-40.73 862,-40.73 862,-21.73 750,-21.73"/>
<text text-anchor="middle" x="806" y="-28.73" font-family="Helvetica,sans-Serif" font-size="10.00">logs::Logger::debug</text>
</a>
</g>
</g>
<!-- Node9&#45;&gt;Node10 -->
<g id="edge9" class="edge">
<title>Node9&#45;&gt;Node10</title>
<path fill="none" stroke="midnightblue" d="M444.5,-135.39C459.46,-111.91 501.09,-52.95 554,-31.23 618.25,-4.86 699.78,-11.33 752.18,-19.96"/>
<polygon fill="midnightblue" stroke="midnightblue" points="751.8,-23.45 762.26,-21.71 753,-16.55 751.8,-23.45"/>
</g>
<!-- Node12 -->
<g id="node12" class="node">
<title>Node12</title>
<g id="a_node12"><a xlink:href="namespacelogs.html#ac6f325c6cfe6189bc8e243daa184453b" target="_top" xlink:title="Cette méthode permet de finir les flux de construction par la notation.">
<polygon fill="white" stroke="black" points="587,-116.73 587,-135.73 648,-135.73 648,-116.73 587,-116.73"/>
<text text-anchor="middle" x="617.5" y="-123.73" font-family="Helvetica,sans-Serif" font-size="10.00">logs::end</text>
</a>
</g>
</g>
<!-- Node9&#45;&gt;Node12 -->
<g id="edge11" class="edge">
<title>Node9&#45;&gt;Node12</title>
<path fill="none" stroke="midnightblue" d="M514.25,-137.15C535.7,-134.86 558.21,-132.45 576.63,-130.49"/>
<polygon fill="midnightblue" stroke="midnightblue" points="577.11,-133.96 586.69,-129.41 576.37,-127 577.11,-133.96"/>
</g>
<!-- Node14 -->
<g id="node14" class="node">
<title>Node14</title>
<g id="a_node14"><a xlink:href="classAsservEsialR.html#a97fe4837f83ece0ab268bff773d27f28" target="_top" xlink:title=" ">
<polygon fill="white" stroke="black" points="723.5,-154.73 723.5,-173.73 888.5,-173.73 888.5,-154.73 723.5,-154.73"/>
<text text-anchor="middle" x="806" y="-161.73" font-family="Helvetica,sans-Serif" font-size="10.00">AsservEsialR::getAsservStatus</text>
</a>
</g>
</g>
<!-- Node9&#45;&gt;Node14 -->
<g id="edge16" class="edge">
<title>Node9&#45;&gt;Node14</title>
<path fill="none" stroke="midnightblue" d="M514.44,-149.17C572.23,-152.16 652.02,-156.3 713.36,-159.48"/>
<polygon fill="midnightblue" stroke="midnightblue" points="713.26,-162.98 723.43,-160 713.63,-155.99 713.26,-162.98"/>
</g>
<!-- Node15 -->
<g id="node15" class="node">
<title>Node15</title>
<g id="a_node15"><a xlink:href="classAsservEsialR.html#a7d6428bb79534a27e2b8b2e1baae943b" target="_top" xlink:title="Retourne le Logger associe a la classe AsservEsialR.">
<polygon fill="white" stroke="black" points="559.5,-271.73 559.5,-290.73 675.5,-290.73 675.5,-271.73 559.5,-271.73"/>
<text text-anchor="middle" x="617.5" y="-278.73" font-family="Helvetica,sans-Serif" font-size="10.00">AsservEsialR::logger</text>
</a>
</g>
</g>
<!-- Node9&#45;&gt;Node15 -->
<g id="edge20" class="edge">
<title>Node9&#45;&gt;Node15</title>
<path fill="none" stroke="midnightblue" d="M451.02,-154.79C481.2,-177.86 558.25,-236.73 595.59,-265.25"/>
<polygon fill="midnightblue" stroke="midnightblue" points="593.69,-268.21 603.76,-271.5 597.94,-262.64 593.69,-268.21"/>
</g>
<!-- Node20 -->
<g id="node20" class="node">
<title>Node20</title>
<g id="a_node20"><a xlink:href="namespaceutils.html#a4f86fc4c334661a6995538cc080a40c9" target="_top" xlink:title="Met en pause le thread courant pendant usec microsecondes.">
<polygon fill="white" stroke="black" points="554,-40.73 554,-59.73 681,-59.73 681,-40.73 554,-40.73"/>
<text text-anchor="middle" x="617.5" y="-47.73" font-family="Helvetica,sans-Serif" font-size="10.00">utils::sleep_for_micros</text>
</a>
</g>
</g>
<!-- Node9&#45;&gt;Node20 -->
<g id="edge25" class="edge">
<title>Node9&#45;&gt;Node20</title>
<path fill="none" stroke="midnightblue" d="M452.25,-135.62C473.42,-121.09 515.59,-93.21 554,-74.23 561.86,-70.35 570.52,-66.67 578.83,-63.41"/>
<polygon fill="midnightblue" stroke="midnightblue" points="580.24,-66.62 588.34,-59.79 577.75,-60.07 580.24,-66.62"/>
</g>
<!-- Node11 -->
<g id="node11" class="node">
<title>Node11</title>
<g id="a_node11"><a xlink:href="classlogs_1_1Logger.html#afa535aaf4891e02c4ff7f84d372b5b1b" target="_top" xlink:title="Méthode générique de trace d&#39;un message.">
<polygon fill="white" stroke="black" points="931,-40.73 931,-59.73 1081,-59.73 1081,-40.73 931,-40.73"/>
<text text-anchor="middle" x="1006" y="-47.73" font-family="Helvetica,sans-Serif" font-size="10.00">logs::Logger::writeMessage</text>
</a>
</g>
</g>
<!-- Node10&#45;&gt;Node11 -->
<g id="edge10" class="edge">
<title>Node10&#45;&gt;Node11</title>
<path fill="none" stroke="midnightblue" d="M862.15,-36.52C880.36,-38.27 901.05,-40.26 920.91,-42.16"/>
<polygon fill="midnightblue" stroke="midnightblue" points="920.61,-45.65 930.9,-43.12 921.28,-38.68 920.61,-45.65"/>
</g>
<!-- Node13 -->
<g id="node13" class="node">
<title>Node13</title>
<g id="a_node13"><a xlink:href="classlogs_1_1Logger_1_1LoggerBuffer.html#a0e4fd77693fd899ec1b0670354f93a02" target="_top" xlink:title="Cette méthode valide le message en cours de construction et le transmet au Logger de référence.">
<polygon fill="white" stroke="black" points="722,-116.73 722,-135.73 890,-135.73 890,-116.73 722,-116.73"/>
<text text-anchor="middle" x="806" y="-123.73" font-family="Helvetica,sans-Serif" font-size="10.00">logs::Logger::LoggerBuffer::end</text>
</a>
</g>
</g>
<!-- Node12&#45;&gt;Node13 -->
<g id="edge12" class="edge">
<title>Node12&#45;&gt;Node13</title>
<path fill="none" stroke="midnightblue" d="M648.05,-126.23C665.41,-126.23 688.41,-126.23 711.43,-126.23"/>
<polygon fill="midnightblue" stroke="midnightblue" points="711.63,-129.73 721.63,-126.23 711.63,-122.73 711.63,-129.73"/>
</g>
<!-- Node13&#45;&gt;Node7 -->
<g id="edge13" class="edge">
<title>Node13&#45;&gt;Node7</title>
<path fill="none" stroke="midnightblue" d="M890.11,-118.26C908.69,-116.47 928.03,-114.62 945.43,-112.95"/>
<polygon fill="midnightblue" stroke="midnightblue" points="945.81,-116.43 955.43,-111.99 945.15,-109.46 945.81,-116.43"/>
</g>
<!-- Node13&#45;&gt;Node8 -->
<g id="edge14" class="edge">
<title>Node13&#45;&gt;Node8</title>
<path fill="none" stroke="midnightblue" d="M856.13,-135.75C868.86,-138.51 882.51,-141.74 895,-145.23 920.53,-152.37 948.79,-162.17 970.27,-170.04"/>
<polygon fill="midnightblue" stroke="midnightblue" points="969.34,-173.42 979.93,-173.61 971.77,-166.86 969.34,-173.42"/>
</g>
<!-- Node13&#45;&gt;Node11 -->
<g id="edge15" class="edge">
<title>Node13&#45;&gt;Node11</title>
<path fill="none" stroke="midnightblue" d="M832.08,-116.61C867.19,-103.13 931.12,-78.59 970.64,-63.42"/>
<polygon fill="midnightblue" stroke="midnightblue" points="972.05,-66.63 980.13,-59.78 969.54,-60.09 972.05,-66.63"/>
</g>
<!-- Node14&#45;&gt;Node7 -->
<g id="edge17" class="edge">
<title>Node14&#45;&gt;Node7</title>
<path fill="none" stroke="midnightblue" d="M856.13,-154.71C868.86,-151.95 882.51,-148.72 895,-145.23 920.53,-138.09 948.79,-128.29 970.27,-120.43"/>
<polygon fill="midnightblue" stroke="midnightblue" points="971.77,-123.61 979.93,-116.86 969.34,-117.04 971.77,-123.61"/>
</g>
<!-- Node14&#45;&gt;Node8 -->
<g id="edge18" class="edge">
<title>Node14&#45;&gt;Node8</title>
<path fill="none" stroke="midnightblue" d="M888.68,-172.07C905.46,-173.68 922.92,-175.35 939.06,-176.9"/>
<polygon fill="midnightblue" stroke="midnightblue" points="939.16,-180.43 949.45,-177.9 939.83,-173.46 939.16,-180.43"/>
</g>
<!-- Node16 -->
<g id="node16" class="node">
<title>Node16</title>
<g id="a_node16"><a xlink:href="classlogs_1_1LoggerFactory.html#a82585b5de73e471e06cafdccc3b3721e" target="_top" xlink:title="Cette méthode statique retourne un Logger en fonction de son nom.">
<polygon fill="white" stroke="black" points="750.5,-269.23 750.5,-299.23 861.5,-299.23 861.5,-269.23 750.5,-269.23"/>
<text text-anchor="start" x="758.5" y="-287.23" font-family="Helvetica,sans-Serif" font-size="10.00">logs::LoggerFactory</text>
<text text-anchor="middle" x="806" y="-276.23" font-family="Helvetica,sans-Serif" font-size="10.00">::logger</text>
</a>
</g>
</g>
<!-- Node15&#45;&gt;Node16 -->
<g id="edge21" class="edge">
<title>Node15&#45;&gt;Node16</title>
<path fill="none" stroke="midnightblue" d="M675.72,-282.15C696.15,-282.48 719.31,-282.85 740.32,-283.19"/>
<polygon fill="midnightblue" stroke="midnightblue" points="740.38,-286.69 750.44,-283.35 740.5,-279.69 740.38,-286.69"/>
</g>
<!-- Node17 -->
<g id="node17" class="node">
<title>Node17</title>
<g id="a_node17"><a xlink:href="classlogs_1_1LoggerFactory.html#ac89f19c0ffd71aa8cdc1c2d44c03809e" target="_top" xlink:title="Cette méthode ajoute un appender au système.">
<polygon fill="white" stroke="black" points="939,-230.73 939,-249.73 1073,-249.73 1073,-230.73 939,-230.73"/>
<text text-anchor="middle" x="1006" y="-237.73" font-family="Helvetica,sans-Serif" font-size="10.00">logs::LoggerFactory::add</text>
</a>
</g>
</g>
<!-- Node16&#45;&gt;Node17 -->
<g id="edge22" class="edge">
<title>Node16&#45;&gt;Node17</title>
<path fill="none" stroke="midnightblue" d="M861.63,-272.09C889.87,-265.82 924.18,-258.19 952.16,-251.97"/>
<polygon fill="midnightblue" stroke="midnightblue" points="953.15,-255.34 962.15,-249.75 951.63,-248.51 953.15,-255.34"/>
</g>
<!-- Node18 -->
<g id="node18" class="node">
<title>Node18</title>
<g id="a_node18"><a xlink:href="classlogs_1_1LoggerFactory.html#a90478b91d7af2ef8841ded21e3521f69" target="_top" xlink:title="Cette méthode statique retourne l&#39;instance unique de la classe LoggerFactory.">
<polygon fill="white" stroke="black" points="950.5,-318.23 950.5,-348.23 1061.5,-348.23 1061.5,-318.23 950.5,-318.23"/>
<text text-anchor="start" x="958.5" y="-336.23" font-family="Helvetica,sans-Serif" font-size="10.00">logs::LoggerFactory</text>
<text text-anchor="middle" x="1006" y="-325.23" font-family="Helvetica,sans-Serif" font-size="10.00">::instance</text>
</a>
</g>
</g>
<!-- Node16&#45;&gt;Node18 -->
<g id="edge23" class="edge">
<title>Node16&#45;&gt;Node18</title>
<path fill="none" stroke="midnightblue" d="M861.63,-297.75C885.98,-303.78 914.85,-310.92 940.28,-317.22"/>
<polygon fill="midnightblue" stroke="midnightblue" points="939.66,-320.67 950.21,-319.67 941.34,-313.87 939.66,-320.67"/>
</g>
<!-- Node19 -->
<g id="node19" class="node">
<title>Node19</title>
<g id="a_node19"><a xlink:href="classlogs_1_1LoggerFactory.html#a212aa623f4b6bee12cb39e8017dde670" target="_top" xlink:title="Cette méthode retourne le Logger principal qui définit le niveau de trace par défaut.">
<polygon fill="white" stroke="black" points="950.5,-269.23 950.5,-299.23 1061.5,-299.23 1061.5,-269.23 950.5,-269.23"/>
<text text-anchor="start" x="958.5" y="-287.23" font-family="Helvetica,sans-Serif" font-size="10.00">logs::LoggerFactory</text>
<text text-anchor="middle" x="1006" y="-276.23" font-family="Helvetica,sans-Serif" font-size="10.00">::rootLogger</text>
</a>
</g>
</g>
<!-- Node16&#45;&gt;Node19 -->
<g id="edge24" class="edge">
<title>Node16&#45;&gt;Node19</title>
<path fill="none" stroke="midnightblue" d="M861.63,-284.23C885.87,-284.23 914.6,-284.23 939.94,-284.23"/>
<polygon fill="midnightblue" stroke="midnightblue" points="940.21,-287.73 950.21,-284.23 940.21,-280.73 940.21,-287.73"/>
</g>
</g>
</svg>
        <g id="navigator" transform="translate(0 0)" fill="#404254">
                <rect fill="#f2f5e9" fill-opacity="0.5" stroke="#606060" stroke-width=".5" x="0" y="0" width="60" height="60"/>
                <use id="zoomplus" xlink:href="#zoomPlus" x="17" y="9" onmousedown="handleZoom(evt,'in')"/>
                <use id="zoomminus" xlink:href="#zoomMin" x="42" y="9" onmousedown="handleZoom(evt,'out')"/>
                <use id="reset" xlink:href="#resetDef" x="30" y="36" onmousedown="handleReset()"/>
                <g id="arrowUp" xlink:href="#dirArrow" transform="translate(30 24)" onmousedown="handlePan(0,-1)">
                  <use xlink:href="#rim" fill="#404040">
                        <set attributeName="fill" to="#808080" begin="arrowUp.mouseover" end="arrowUp.mouseout"/>
                  </use>
                  <path fill="none" stroke="white" stroke-width="1.5" d="M0,-3.0v7 M-2.5,-0.5L0,-3.0L2.5,-0.5"/>
                </g>
                <g id="arrowRight" xlink:href="#dirArrow" transform="rotate(90) translate(36 -43)" onmousedown="handlePan(1,0)">
                  <use xlink:href="#rim" fill="#404040">
                        <set attributeName="fill" to="#808080" begin="arrowRight.mouseover" end="arrowRight.mouseout"/>
                  </use>
                  <path fill="none" stroke="white" stroke-width="1.5" d="M0,-3.0v7 M-2.5,-0.5L0,-3.0L2.5,-0.5"/>
                </g>
                <g id="arrowDown" xlink:href="#dirArrow" transform="rotate(180) translate(-30 -48)" onmousedown="handlePan(0,1)">
                  <use xlink:href="#rim" fill="#404040">
                        <set attributeName="fill" to="#808080" begin="arrowDown.mouseover" end="arrowDown.mouseout"/>
                  </use>
                  <path fill="none" stroke="white" stroke-width="1.5" d="M0,-3.0v7 M-2.5,-0.5L0,-3.0L2.5,-0.5"/>
                </g>
                <g id="arrowLeft" xlink:href="#dirArrow" transform="rotate(270) translate(-36 17)" onmousedown="handlePan(-1,0)">
                  <use xlink:href="#rim" fill="#404040">
                        <set attributeName="fill" to="#808080" begin="arrowLeft.mouseover" end="arrowLeft.mouseout"/>
                  </use>
                  <path fill="none" stroke="white" stroke-width="1.5" d="M0,-3.0v7 M-2.5,-0.5L0,-3.0L2.5,-0.5"/>
                </g>
        </g>
        <svg viewBox="0 0 15 15" width="100%" height="30px" preserveAspectRatio="xMaxYMin meet">
         <g id="arrow_out" transform="scale(0.3 0.3)">
          <a xlink:href="classAsserv_a328e426ab105655a7a2c1b8e23612d5a_cgraph_org.svg" target="_base">
           <rect id="button" ry="5" rx="5" y="6" x="6" height="38" width="38"
                fill="#f2f5e9" fill-opacity="0.5" stroke="#606060" stroke-width="1.0"/>
           <path id="arrow"
             d="M 11.500037,31.436501 C 11.940474,20.09759 22.043105,11.32322 32.158766,21.979434 L 37.068811,17.246167 C 37.068811,17.246167 37.088388,32 37.088388,32 L 22.160133,31.978069 C 22.160133,31.978069 26.997745,27.140456 26.997745,27.140456 C 18.528582,18.264221 13.291696,25.230495 11.500037,31.436501 z"
             style="fill:#404040;"/>
          </a>
         </g>
        </svg>
</svg>
