<?xml version="1.0" encoding="UTF-8" standalone="no"?>
<!DOCTYPE svg PUBLIC "-//W3C//DTD SVG 1.1//EN"
 "http://www.w3.org/Graphics/SVG/1.1/DTD/svg11.dtd">
<!-- Generated by graphviz version 2.43.0 (0)
 -->
<!-- Title: Actions::addAction Pages: 1 -->
<!--zoomable 383 -->
<svg id="main" version="1.1" xmlns="http://www.w3.org/2000/svg" xmlns:xlink="http://www.w3.org/1999/xlink" xml:space="preserve" onload="init(evt)">
<style type="text/css"><![CDATA[
.edge:hover path { stroke: red; }
.edge:hover polygon { stroke: red; fill: red; }
]]></style>
<script type="text/javascript"><![CDATA[
var edges = document.getElementsByTagName('g');
if (edges && edges.length) {
  for (var i=0;i<edges.length;i++) {
    if (edges[i].id.substr(0,4)=='edge') {
      edges[i].setAttribute('class','edge');
    }
  }
}
]]></script>
        <defs>
                <circle id="rim" cx="0" cy="0" r="7"/>
                <circle id="rim2" cx="0" cy="0" r="3.5"/>
                <g id="zoomPlus">
                        <use xlink:href="#rim" fill="#404040">
                                <set attributeName="fill" to="#808080" begin="zoomplus.mouseover" end="zoomplus.mouseout"/>
                        </use>
                        <path d="M-4,0h8M0,-4v8" fill="none" stroke="white" stroke-width="1.5" pointer-events="none"/>
                </g>
                <g id="zoomMin">
                        <use xlink:href="#rim" fill="#404040">
                                <set attributeName="fill" to="#808080" begin="zoomminus.mouseover" end="zoomminus.mouseout"/>
                        </use>
                        <path d="M-4,0h8" fill="none" stroke="white" stroke-width="1.5" pointer-events="none"/>
                </g>
                <g id="dirArrow">
                        <path fill="none" stroke="white" stroke-width="1.5" d="M0,-3.0v7 M-2.5,-0.5L0,-3.0L2.5,-0.5"/>
                </g>
               <g id="resetDef">
                       <use xlink:href="#rim2" fill="#404040">
                               <set attributeName="fill" to="#808080" begin="reset.mouseover" end="reset.mouseout"/>
                       </use>
               </g>
        </defs>

<script type="text/javascript">
var viewWidth = 970;
var viewHeight = 383;
var sectionId = 'dynsection-2';
</script>
<script xlink:href="svgpan.js"/>
<svg id="graph" class="graph">
<g id="viewport">
<title>Actions::addAction</title>
<polygon fill="white" stroke="transparent" points="-4,4 -4,-379 966,-379 966,4 -4,4"/>
<!-- Node1 -->
<g id="node1" class="node">
<title>Node1</title>
<g id="a_node1"><a xlink:title="Ajout d&#39;une action.">
<polygon fill="#bfbfbf" stroke="black" points="0,-115.5 0,-134.5 107,-134.5 107,-115.5 0,-115.5"/>
<text text-anchor="middle" x="53.5" y="-122.5" font-family="Helvetica,sans-Serif" font-size="10.00">Actions::addAction</text>
</a>
</g>
</g>
<!-- Node2 -->
<g id="node2" class="node">
<title>Node2</title>
<g id="a_node2"><a xlink:href="classActionManagerTimer.html#ad44aa7bf3d361e60d3ed764d833eafc5" target="_top" xlink:title="Ajout d&#39;une action.">
<polygon fill="white" stroke="black" points="143,-204 143,-234 262,-234 262,-204 143,-204"/>
<text text-anchor="start" x="151" y="-222" font-family="Helvetica,sans-Serif" font-size="10.00">ActionManagerTimer</text>
<text text-anchor="middle" x="202.5" y="-211" font-family="Helvetica,sans-Serif" font-size="10.00">::addAction</text>
</a>
</g>
</g>
<!-- Node1&#45;&gt;Node2 -->
<g id="edge1" class="edge">
<title>Node1&#45;&gt;Node2</title>
<path fill="none" stroke="midnightblue" d="M69.4,-134.53C92.66,-149.4 138.11,-178.46 169.14,-198.3"/>
<polygon fill="midnightblue" stroke="midnightblue" points="167.56,-201.45 177.87,-203.89 171.33,-195.55 167.56,-201.45"/>
</g>
<!-- Node5 -->
<g id="node5" class="node">
<title>Node5</title>
<g id="a_node5"><a xlink:href="namespacelogs.html#ac6f325c6cfe6189bc8e243daa184453b" target="_top" xlink:title="Cette méthode permet de finir les flux de construction par la notation.">
<polygon fill="white" stroke="black" points="482,-115.5 482,-134.5 543,-134.5 543,-115.5 482,-115.5"/>
<text text-anchor="middle" x="512.5" y="-122.5" font-family="Helvetica,sans-Serif" font-size="10.00">logs::end</text>
</a>
</g>
</g>
<!-- Node1&#45;&gt;Node5 -->
<g id="edge19" class="edge">
<title>Node1&#45;&gt;Node5</title>
<path fill="none" stroke="midnightblue" d="M107.37,-125C199.88,-125 389.11,-125 471.59,-125"/>
<polygon fill="midnightblue" stroke="midnightblue" points="471.8,-128.5 481.8,-125 471.8,-121.5 471.8,-128.5"/>
</g>
<!-- Node9 -->
<g id="node9" class="node">
<title>Node9</title>
<g id="a_node9"><a xlink:href="classlogs_1_1Logger.html#a8b6a2019233bc44b3c3c86c653910831" target="_top" xlink:title="Trace un message de niveau ERROR.">
<polygon fill="white" stroke="black" points="460,-77.5 460,-96.5 565,-96.5 565,-77.5 460,-77.5"/>
<text text-anchor="middle" x="512.5" y="-84.5" font-family="Helvetica,sans-Serif" font-size="10.00">logs::Logger::error</text>
</a>
</g>
</g>
<!-- Node1&#45;&gt;Node9 -->
<g id="edge20" class="edge">
<title>Node1&#45;&gt;Node9</title>
<path fill="none" stroke="midnightblue" d="M107.37,-120.6C192.43,-113.53 359.27,-99.66 449.7,-92.14"/>
<polygon fill="midnightblue" stroke="midnightblue" points="450.13,-95.62 459.81,-91.3 449.55,-88.64 450.13,-95.62"/>
</g>
<!-- Node15 -->
<g id="node15" class="node">
<title>Node15</title>
<g id="a_node15"><a xlink:href="classActions.html#a637e05ac19e873621b1e123c2ff29990" target="_top" xlink:title="Indique si le gestionnaire d&#39;actions est démarré.">
<polygon fill="white" stroke="black" points="149,-310.5 149,-329.5 256,-329.5 256,-310.5 149,-310.5"/>
<text text-anchor="middle" x="202.5" y="-317.5" font-family="Helvetica,sans-Serif" font-size="10.00">Actions::is_started</text>
</a>
</g>
</g>
<!-- Node1&#45;&gt;Node15 -->
<g id="edge21" class="edge">
<title>Node1&#45;&gt;Node15</title>
<path fill="none" stroke="midnightblue" d="M61.56,-134.6C76.49,-154.89 112.4,-203.55 143,-244 158.12,-263.98 175.67,-286.73 187.58,-302.09"/>
<polygon fill="midnightblue" stroke="midnightblue" points="184.98,-304.45 193.88,-310.2 190.51,-300.16 184.98,-304.45"/>
</g>
<!-- Node17 -->
<g id="node17" class="node">
<title>Node17</title>
<g id="a_node17"><a xlink:href="classActions.html#a9cc6c9bd885d6e03234b0cf5061a5ca1" target="_top" xlink:title="Return Logger linked to Actions.">
<polygon fill="white" stroke="black" points="313,-39.5 313,-58.5 402,-58.5 402,-39.5 313,-39.5"/>
<text text-anchor="middle" x="357.5" y="-46.5" font-family="Helvetica,sans-Serif" font-size="10.00">Actions::logger</text>
</a>
</g>
</g>
<!-- Node1&#45;&gt;Node17 -->
<g id="edge25" class="edge">
<title>Node1&#45;&gt;Node17</title>
<path fill="none" stroke="midnightblue" d="M66.87,-115.43C83.27,-103.3 113.58,-82.8 143,-73 195.42,-55.54 258.65,-50.25 302.64,-48.89"/>
<polygon fill="midnightblue" stroke="midnightblue" points="302.92,-52.38 312.83,-48.64 302.75,-45.39 302.92,-52.38"/>
</g>
<!-- Node3 -->
<g id="node3" class="node">
<title>Node3</title>
<g id="a_node3"><a xlink:href="classutils_1_1Mutex.html#aa584b418a5ef484f76b93e361a1d7e32" target="_top" xlink:title="Verrouille le mutex. Cette méthode doit être appelée avant d&#39;utiliser la ressource associée....">
<polygon fill="white" stroke="black" points="836.5,-222.5 836.5,-241.5 937.5,-241.5 937.5,-222.5 836.5,-222.5"/>
<text text-anchor="middle" x="887" y="-229.5" font-family="Helvetica,sans-Serif" font-size="10.00">utils::Mutex::lock</text>
</a>
</g>
</g>
<!-- Node2&#45;&gt;Node3 -->
<g id="edge2" class="edge">
<title>Node2&#45;&gt;Node3</title>
<path fill="none" stroke="midnightblue" d="M262.11,-220.7C340.78,-222.93 484.91,-226.81 608,-229 683.19,-230.34 769.83,-231.16 826.13,-231.59"/>
<polygon fill="midnightblue" stroke="midnightblue" points="826.25,-235.1 836.28,-231.67 826.31,-228.1 826.25,-235.1"/>
</g>
<!-- Node4 -->
<g id="node4" class="node">
<title>Node4</title>
<g id="a_node4"><a xlink:href="classActionManagerTimer.html#a39f4cbb5ddbbe6a40980bb59b8b59b05" target="_top" xlink:title=" ">
<polygon fill="white" stroke="black" points="298,-173 298,-203 417,-203 417,-173 298,-173"/>
<text text-anchor="start" x="306" y="-191" font-family="Helvetica,sans-Serif" font-size="10.00">ActionManagerTimer</text>
<text text-anchor="middle" x="357.5" y="-180" font-family="Helvetica,sans-Serif" font-size="10.00">::unblock</text>
</a>
</g>
</g>
<!-- Node2&#45;&gt;Node4 -->
<g id="edge3" class="edge">
<title>Node2&#45;&gt;Node4</title>
<path fill="none" stroke="midnightblue" d="M262.22,-207.1C270.64,-205.4 279.36,-203.63 287.95,-201.89"/>
<polygon fill="midnightblue" stroke="midnightblue" points="288.84,-205.28 297.94,-199.86 287.44,-198.42 288.84,-205.28"/>
</g>
<!-- Node7 -->
<g id="node7" class="node">
<title>Node7</title>
<g id="a_node7"><a xlink:href="classutils_1_1Mutex.html#a59b2079dc7f803d49f78ac9c04406cd3" target="_top" xlink:title="Déverrouille le mutex. Cette méthode doit être appelée après avoir utiliser la ressource associée.">
<polygon fill="white" stroke="black" points="830.5,-298.5 830.5,-317.5 943.5,-317.5 943.5,-298.5 830.5,-298.5"/>
<text text-anchor="middle" x="887" y="-305.5" font-family="Helvetica,sans-Serif" font-size="10.00">utils::Mutex::unlock</text>
</a>
</g>
</g>
<!-- Node2&#45;&gt;Node7 -->
<g id="edge18" class="edge">
<title>Node2&#45;&gt;Node7</title>
<path fill="none" stroke="midnightblue" d="M262.16,-230.59C274,-232.81 286.39,-235.05 298,-237 435.3,-260.03 469.76,-265.51 608,-282 680.39,-290.63 763.67,-298.1 820.06,-302.78"/>
<polygon fill="midnightblue" stroke="midnightblue" points="820.01,-306.29 830.27,-303.63 820.59,-299.32 820.01,-306.29"/>
</g>
<!-- Node4&#45;&gt;Node3 -->
<g id="edge11" class="edge">
<title>Node4&#45;&gt;Node3</title>
<path fill="none" stroke="midnightblue" d="M417.22,-192.9C518.35,-201.33 724.3,-218.51 826.18,-227.01"/>
<polygon fill="midnightblue" stroke="midnightblue" points="826.04,-230.51 836.3,-227.85 826.62,-223.54 826.04,-230.51"/>
</g>
<!-- Node4&#45;&gt;Node5 -->
<g id="edge4" class="edge">
<title>Node4&#45;&gt;Node5</title>
<path fill="none" stroke="midnightblue" d="M389.67,-172.89C407.93,-164.27 431.56,-153.52 453,-145 459.09,-142.58 465.6,-140.18 471.98,-137.92"/>
<polygon fill="midnightblue" stroke="midnightblue" points="473.53,-141.09 481.83,-134.52 471.24,-134.48 473.53,-141.09"/>
</g>
<!-- Node4&#45;&gt;Node7 -->
<g id="edge17" class="edge">
<title>Node4&#45;&gt;Node7</title>
<path fill="none" stroke="midnightblue" d="M411.35,-203.09C424.89,-206.8 439.45,-210.67 453,-214 586.56,-246.84 744.77,-279.66 828.05,-296.47"/>
<polygon fill="midnightblue" stroke="midnightblue" points="827.57,-299.94 838.07,-298.49 828.96,-293.08 827.57,-299.94"/>
</g>
<!-- Node4&#45;&gt;Node9 -->
<g id="edge9" class="edge">
<title>Node4&#45;&gt;Node9</title>
<path fill="none" stroke="midnightblue" d="M372.14,-172.93C389.36,-154.72 420.66,-124.27 453,-106 456.71,-103.9 460.69,-102 464.76,-100.27"/>
<polygon fill="midnightblue" stroke="midnightblue" points="466.27,-103.44 474.34,-96.58 463.75,-96.91 466.27,-103.44"/>
</g>
<!-- Node10 -->
<g id="node10" class="node">
<title>Node10</title>
<g id="a_node10"><a xlink:href="classActionManagerTimer.html#a280846361e5c7e0ebe57972755841c2b" target="_top" xlink:title=" ">
<polygon fill="white" stroke="black" points="453,-154 453,-184 572,-184 572,-154 453,-154"/>
<text text-anchor="start" x="461" y="-172" font-family="Helvetica,sans-Serif" font-size="10.00">ActionManagerTimer</text>
<text text-anchor="middle" x="512.5" y="-161" font-family="Helvetica,sans-Serif" font-size="10.00">::logger</text>
</a>
</g>
</g>
<!-- Node4&#45;&gt;Node10 -->
<g id="edge12" class="edge">
<title>Node4&#45;&gt;Node10</title>
<path fill="none" stroke="midnightblue" d="M417.22,-180.71C425.64,-179.66 434.36,-178.58 442.95,-177.51"/>
<polygon fill="midnightblue" stroke="midnightblue" points="443.45,-180.98 452.94,-176.27 442.59,-174.03 443.45,-180.98"/>
</g>
<!-- Node6 -->
<g id="node6" class="node">
<title>Node6</title>
<g id="a_node6"><a xlink:href="classlogs_1_1Logger_1_1LoggerBuffer.html#a0e4fd77693fd899ec1b0670354f93a02" target="_top" xlink:title="Cette méthode valide le message en cours de construction et le transmet au Logger de référence.">
<polygon fill="white" stroke="black" points="608,-157.5 608,-176.5 776,-176.5 776,-157.5 608,-157.5"/>
<text text-anchor="middle" x="692" y="-164.5" font-family="Helvetica,sans-Serif" font-size="10.00">logs::Logger::LoggerBuffer::end</text>
</a>
</g>
</g>
<!-- Node5&#45;&gt;Node6 -->
<g id="edge5" class="edge">
<title>Node5&#45;&gt;Node6</title>
<path fill="none" stroke="midnightblue" d="M543.21,-132.03C569.75,-138.31 609.17,-147.64 640.63,-155.08"/>
<polygon fill="midnightblue" stroke="midnightblue" points="640,-158.53 650.54,-157.43 641.61,-151.72 640,-158.53"/>
</g>
<!-- Node6&#45;&gt;Node3 -->
<g id="edge6" class="edge">
<title>Node6&#45;&gt;Node3</title>
<path fill="none" stroke="midnightblue" d="M721.48,-176.59C755.07,-187.9 811.04,-206.75 848.23,-219.28"/>
<polygon fill="midnightblue" stroke="midnightblue" points="847.13,-222.6 857.72,-222.48 849.36,-215.97 847.13,-222.6"/>
</g>
<!-- Node6&#45;&gt;Node7 -->
<g id="edge7" class="edge">
<title>Node6&#45;&gt;Node7</title>
<path fill="none" stroke="midnightblue" d="M706.27,-176.69C739.12,-200.7 824.52,-263.09 864.62,-292.38"/>
<polygon fill="midnightblue" stroke="midnightblue" points="862.76,-295.35 872.9,-298.43 866.89,-289.7 862.76,-295.35"/>
</g>
<!-- Node8 -->
<g id="node8" class="node">
<title>Node8</title>
<g id="a_node8"><a xlink:href="classlogs_1_1Logger.html#afa535aaf4891e02c4ff7f84d372b5b1b" target="_top" xlink:title="Méthode générique de trace d&#39;un message.">
<polygon fill="white" stroke="black" points="812,-153.5 812,-172.5 962,-172.5 962,-153.5 812,-153.5"/>
<text text-anchor="middle" x="887" y="-160.5" font-family="Helvetica,sans-Serif" font-size="10.00">logs::Logger::writeMessage</text>
</a>
</g>
</g>
<!-- Node6&#45;&gt;Node8 -->
<g id="edge8" class="edge">
<title>Node6&#45;&gt;Node8</title>
<path fill="none" stroke="midnightblue" d="M776.25,-165.27C784.66,-165.1 793.21,-164.92 801.64,-164.75"/>
<polygon fill="midnightblue" stroke="midnightblue" points="801.91,-168.24 811.84,-164.54 801.77,-161.25 801.91,-168.24"/>
</g>
<!-- Node9&#45;&gt;Node8 -->
<g id="edge10" class="edge">
<title>Node9&#45;&gt;Node8</title>
<path fill="none" stroke="midnightblue" d="M560.3,-96.55C628.7,-110.5 755.8,-136.44 829.38,-151.45"/>
<polygon fill="midnightblue" stroke="midnightblue" points="828.89,-154.92 839.39,-153.49 830.29,-148.06 828.89,-154.92"/>
</g>
<!-- Node11 -->
<g id="node11" class="node">
<title>Node11</title>
<g id="a_node11"><a xlink:href="classlogs_1_1LoggerFactory.html#a82585b5de73e471e06cafdccc3b3721e" target="_top" xlink:title="Cette méthode statique retourne un Logger en fonction de son nom.">
<polygon fill="white" stroke="black" points="636.5,-39 636.5,-69 747.5,-69 747.5,-39 636.5,-39"/>
<text text-anchor="start" x="644.5" y="-57" font-family="Helvetica,sans-Serif" font-size="10.00">logs::LoggerFactory</text>
<text text-anchor="middle" x="692" y="-46" font-family="Helvetica,sans-Serif" font-size="10.00">::logger</text>
</a>
</g>
</g>
<!-- Node10&#45;&gt;Node11 -->
<g id="edge13" class="edge">
<title>Node10&#45;&gt;Node11</title>
<path fill="none" stroke="midnightblue" d="M552.54,-153.89C559.17,-150.88 565.89,-147.55 572,-144 606.67,-123.88 642.91,-95.2 666.15,-75.66"/>
<polygon fill="midnightblue" stroke="midnightblue" points="668.45,-78.3 673.81,-69.16 663.92,-72.96 668.45,-78.3"/>
</g>
<!-- Node12 -->
<g id="node12" class="node">
<title>Node12</title>
<g id="a_node12"><a xlink:href="classlogs_1_1LoggerFactory.html#ac89f19c0ffd71aa8cdc1c2d44c03809e" target="_top" xlink:title="Cette méthode ajoute un appender au système.">
<polygon fill="white" stroke="black" points="820,-0.5 820,-19.5 954,-19.5 954,-0.5 820,-0.5"/>
<text text-anchor="middle" x="887" y="-7.5" font-family="Helvetica,sans-Serif" font-size="10.00">logs::LoggerFactory::add</text>
</a>
</g>
</g>
<!-- Node11&#45;&gt;Node12 -->
<g id="edge14" class="edge">
<title>Node11&#45;&gt;Node12</title>
<path fill="none" stroke="midnightblue" d="M747.53,-41.57C774.71,-35.37 807.41,-27.92 834.21,-21.81"/>
<polygon fill="midnightblue" stroke="midnightblue" points="835.19,-25.17 844.16,-19.54 833.64,-18.35 835.19,-25.17"/>
</g>
<!-- Node13 -->
<g id="node13" class="node">
<title>Node13</title>
<g id="a_node13"><a xlink:href="classlogs_1_1LoggerFactory.html#a90478b91d7af2ef8841ded21e3521f69" target="_top" xlink:title="Cette méthode statique retourne l&#39;instance unique de la classe LoggerFactory.">
<polygon fill="white" stroke="black" points="831.5,-88 831.5,-118 942.5,-118 942.5,-88 831.5,-88"/>
<text text-anchor="start" x="839.5" y="-106" font-family="Helvetica,sans-Serif" font-size="10.00">logs::LoggerFactory</text>
<text text-anchor="middle" x="887" y="-95" font-family="Helvetica,sans-Serif" font-size="10.00">::instance</text>
</a>
</g>
</g>
<!-- Node11&#45;&gt;Node13 -->
<g id="edge15" class="edge">
<title>Node11&#45;&gt;Node13</title>
<path fill="none" stroke="midnightblue" d="M747.53,-67.84C770.56,-73.69 797.54,-80.54 821.54,-86.63"/>
<polygon fill="midnightblue" stroke="midnightblue" points="820.71,-90.04 831.27,-89.1 822.44,-83.25 820.71,-90.04"/>
</g>
<!-- Node14 -->
<g id="node14" class="node">
<title>Node14</title>
<g id="a_node14"><a xlink:href="classlogs_1_1LoggerFactory.html#a212aa623f4b6bee12cb39e8017dde670" target="_top" xlink:title="Cette méthode retourne le Logger principal qui définit le niveau de trace par défaut.">
<polygon fill="white" stroke="black" points="831.5,-39 831.5,-69 942.5,-69 942.5,-39 831.5,-39"/>
<text text-anchor="start" x="839.5" y="-57" font-family="Helvetica,sans-Serif" font-size="10.00">logs::LoggerFactory</text>
<text text-anchor="middle" x="887" y="-46" font-family="Helvetica,sans-Serif" font-size="10.00">::rootLogger</text>
</a>
</g>
</g>
<!-- Node11&#45;&gt;Node14 -->
<g id="edge16" class="edge">
<title>Node11&#45;&gt;Node14</title>
<path fill="none" stroke="midnightblue" d="M747.53,-54C770.45,-54 797.3,-54 821.22,-54"/>
<polygon fill="midnightblue" stroke="midnightblue" points="821.27,-57.5 831.27,-54 821.27,-50.5 821.27,-57.5"/>
</g>
<!-- Node16 -->
<g id="node16" class="node">
<title>Node16</title>
<g id="a_node16"><a xlink:href="classutils_1_1Thread.html#ada9233f3e669c925e9ed518201ad31cd" target="_top" xlink:title="Retourne l&#39;état courant du thread.">
<polygon fill="white" stroke="black" points="638,-355.5 638,-374.5 746,-374.5 746,-355.5 638,-355.5"/>
<text text-anchor="middle" x="692" y="-362.5" font-family="Helvetica,sans-Serif" font-size="10.00">utils::Thread::state</text>
</a>
</g>
</g>
<!-- Node15&#45;&gt;Node16 -->
<g id="edge22" class="edge">
<title>Node15&#45;&gt;Node16</title>
<path fill="none" stroke="midnightblue" d="M240.05,-329.53C257.48,-333.72 278.69,-338.28 298,-341 413.63,-357.28 549.94,-362.52 627.84,-364.2"/>
<polygon fill="midnightblue" stroke="midnightblue" points="627.91,-367.7 637.97,-364.41 628.05,-360.71 627.91,-367.7"/>
</g>
<!-- Node16&#45;&gt;Node3 -->
<g id="edge23" class="edge">
<title>Node16&#45;&gt;Node3</title>
<path fill="none" stroke="midnightblue" d="M706.88,-355.43C739.91,-332.68 823.4,-275.14 863.64,-247.41"/>
<polygon fill="midnightblue" stroke="midnightblue" points="865.74,-250.21 871.99,-241.66 861.77,-244.45 865.74,-250.21"/>
</g>
<!-- Node16&#45;&gt;Node7 -->
<g id="edge24" class="edge">
<title>Node16&#45;&gt;Node7</title>
<path fill="none" stroke="midnightblue" d="M726.14,-355.5C741.34,-351.12 759.6,-345.83 776,-341 798.68,-334.32 823.96,-326.75 844.55,-320.54"/>
<polygon fill="midnightblue" stroke="midnightblue" points="845.69,-323.85 854.26,-317.61 843.67,-317.15 845.69,-323.85"/>
</g>
<!-- Node17&#45;&gt;Node11 -->
<g id="edge26" class="edge">
<title>Node17&#45;&gt;Node11</title>
<path fill="none" stroke="midnightblue" d="M402.31,-49.66C459.47,-50.52 559.97,-52.03 626.02,-53.02"/>
<polygon fill="midnightblue" stroke="midnightblue" points="626.26,-56.53 636.31,-53.18 626.37,-49.53 626.26,-56.53"/>
</g>
</g>
</svg>
        <g id="navigator" transform="translate(0 0)" fill="#404254">
                <rect fill="#f2f5e9" fill-opacity="0.5" stroke="#606060" stroke-width=".5" x="0" y="0" width="60" height="60"/>
                <use id="zoomplus" xlink:href="#zoomPlus" x="17" y="9" onmousedown="handleZoom(evt,'in')"/>
                <use id="zoomminus" xlink:href="#zoomMin" x="42" y="9" onmousedown="handleZoom(evt,'out')"/>
                <use id="reset" xlink:href="#resetDef" x="30" y="36" onmousedown="handleReset()"/>
                <g id="arrowUp" xlink:href="#dirArrow" transform="translate(30 24)" onmousedown="handlePan(0,-1)">
                  <use xlink:href="#rim" fill="#404040">
                        <set attributeName="fill" to="#808080" begin="arrowUp.mouseover" end="arrowUp.mouseout"/>
                  </use>
                  <path fill="none" stroke="white" stroke-width="1.5" d="M0,-3.0v7 M-2.5,-0.5L0,-3.0L2.5,-0.5"/>
                </g>
                <g id="arrowRight" xlink:href="#dirArrow" transform="rotate(90) translate(36 -43)" onmousedown="handlePan(1,0)">
                  <use xlink:href="#rim" fill="#404040">
                        <set attributeName="fill" to="#808080" begin="arrowRight.mouseover" end="arrowRight.mouseout"/>
                  </use>
                  <path fill="none" stroke="white" stroke-width="1.5" d="M0,-3.0v7 M-2.5,-0.5L0,-3.0L2.5,-0.5"/>
                </g>
                <g id="arrowDown" xlink:href="#dirArrow" transform="rotate(180) translate(-30 -48)" onmousedown="handlePan(0,1)">
                  <use xlink:href="#rim" fill="#404040">
                        <set attributeName="fill" to="#808080" begin="arrowDown.mouseover" end="arrowDown.mouseout"/>
                  </use>
                  <path fill="none" stroke="white" stroke-width="1.5" d="M0,-3.0v7 M-2.5,-0.5L0,-3.0L2.5,-0.5"/>
                </g>
                <g id="arrowLeft" xlink:href="#dirArrow" transform="rotate(270) translate(-36 17)" onmousedown="handlePan(-1,0)">
                  <use xlink:href="#rim" fill="#404040">
                        <set attributeName="fill" to="#808080" begin="arrowLeft.mouseover" end="arrowLeft.mouseout"/>
                  </use>
                  <path fill="none" stroke="white" stroke-width="1.5" d="M0,-3.0v7 M-2.5,-0.5L0,-3.0L2.5,-0.5"/>
                </g>
        </g>
        <svg viewBox="0 0 15 15" width="100%" height="30px" preserveAspectRatio="xMaxYMin meet">
         <g id="arrow_out" transform="scale(0.3 0.3)">
          <a xlink:href="classActions_a710f952f5942e626d73e47733a8848b0_cgraph_org.svg" target="_base">
           <rect id="button" ry="5" rx="5" y="6" x="6" height="38" width="38"
                fill="#f2f5e9" fill-opacity="0.5" stroke="#606060" stroke-width="1.0"/>
           <path id="arrow"
             d="M 11.500037,31.436501 C 11.940474,20.09759 22.043105,11.32322 32.158766,21.979434 L 37.068811,17.246167 C 37.068811,17.246167 37.088388,32 37.088388,32 L 22.160133,31.978069 C 22.160133,31.978069 26.997745,27.140456 26.997745,27.140456 C 18.528582,18.264221 13.291696,25.230495 11.500037,31.436501 z"
             style="fill:#404040;"/>
          </a>
         </g>
        </svg>
</svg>
