<?xml version="1.0" encoding="UTF-8" standalone="no"?>
<!DOCTYPE svg PUBLIC "-//W3C//DTD SVG 1.1//EN"
 "http://www.w3.org/Graphics/SVG/1.1/DTD/svg11.dtd">
<!-- Generated by graphviz version 2.43.0 (0)
 -->
<!-- Title: TestTimer Pages: 1 -->
<svg width="366pt" height="162pt"
 viewBox="0.00 0.00 366.00 162.00" xmlns="http://www.w3.org/2000/svg" xmlns:xlink="http://www.w3.org/1999/xlink">
<g id="graph0" class="graph" transform="scale(1 1) rotate(0) translate(4 158)">
<title>TestTimer</title>
<polygon fill="white" stroke="transparent" points="-4,4 -4,-158 362,-158 362,4 -4,4"/>
<!-- Node1 -->
<g id="node1" class="node">
<title>Node1</title>
<g id="a_node1"><a xlink:title="Ce timer.">
<polygon fill="#bfbfbf" stroke="black" points="100,-0.5 100,-19.5 165,-19.5 165,-0.5 100,-0.5"/>
<text text-anchor="middle" x="132.5" y="-7.5" font-family="Helvetica,sans-Serif" font-size="10.00">TestTimer</text>
</a>
</g>
</g>
<!-- Node2 -->
<g id="node2" class="node">
<title>Node2</title>
<g id="a_node2"><a xlink:href="classITimerPosixListener.html" target="_top" xlink:title="Cette interface représente une action executée par un timer lorsqu&#39;il atteint son seuil d&#39;execution.">
<polygon fill="white" stroke="black" points="76,-67.5 76,-86.5 189,-86.5 189,-67.5 76,-67.5"/>
<text text-anchor="middle" x="132.5" y="-74.5" font-family="Helvetica,sans-Serif" font-size="10.00">ITimerPosixListener</text>
</a>
</g>
</g>
<!-- Node2&#45;&gt;Node1 -->
<g id="edge1" class="edge">
<title>Node2&#45;&gt;Node1</title>
<path fill="none" stroke="midnightblue" d="M132.5,-57.04C132.5,-44.67 132.5,-29.12 132.5,-19.63"/>
<polygon fill="midnightblue" stroke="midnightblue" points="129,-57.23 132.5,-67.23 136,-57.23 129,-57.23"/>
</g>
<!-- Node3 -->
<g id="node3" class="node">
<title>Node3</title>
<g id="a_node3"><a xlink:href="classutils_1_1Chronometer.html" target="_top" xlink:title="Gestion d&#39;un chronomètre.">
<polygon fill="white" stroke="black" points="0,-134.5 0,-153.5 107,-153.5 107,-134.5 0,-134.5"/>
<text text-anchor="middle" x="53.5" y="-141.5" font-family="Helvetica,sans-Serif" font-size="10.00">utils::Chronometer</text>
</a>
</g>
</g>
<!-- Node3&#45;&gt;Node1 -->
<g id="edge5" class="edge">
<title>Node3&#45;&gt;Node1</title>
<path fill="none" stroke="#9a32cd" stroke-dasharray="5,2" d="M38.66,-126.17C26.49,-110.22 12.99,-85.94 24.5,-67 40.79,-40.2 74.52,-25.65 99.98,-18.15"/>
<polygon fill="#9a32cd" stroke="#9a32cd" points="36.09,-128.56 45.12,-134.1 41.51,-124.13 36.09,-128.56"/>
<text text-anchor="middle" x="45.5" y="-74.5" font-family="Helvetica,sans-Serif" font-size="10.00"> chrono_</text>
</g>
<!-- Node3&#45;&gt;Node2 -->
<g id="edge2" class="edge">
<title>Node3&#45;&gt;Node2</title>
<path fill="none" stroke="#9a32cd" stroke-dasharray="5,2" d="M72.08,-127.71C87.64,-114.91 109.3,-97.09 122.01,-86.63"/>
<polygon fill="#9a32cd" stroke="#9a32cd" points="69.65,-125.18 64.15,-134.23 74.1,-130.58 69.65,-125.18"/>
<text text-anchor="middle" x="117" y="-108" font-family="Helvetica,sans-Serif" font-size="10.00"> chrono</text>
</g>
<!-- Node4 -->
<g id="node4" class="node">
<title>Node4</title>
<g id="a_node4"><a xlink:href="classO__ActionManagerTimerTest.html" target="_top" xlink:title="Effectue un test de l&#39;action manager avec timer.">
<polygon fill="white" stroke="black" points="207,-67.5 207,-86.5 358,-86.5 358,-67.5 207,-67.5"/>
<text text-anchor="middle" x="282.5" y="-74.5" font-family="Helvetica,sans-Serif" font-size="10.00">O_ActionManagerTimerTest</text>
</a>
</g>
</g>
<!-- Node4&#45;&gt;Node1 -->
<g id="edge3" class="edge">
<title>Node4&#45;&gt;Node1</title>
<path fill="none" stroke="#9a32cd" stroke-dasharray="5,2" d="M253.15,-63.28C223.44,-50.41 178.32,-30.85 152.5,-19.67"/>
<polygon fill="#9a32cd" stroke="#9a32cd" points="252.01,-66.6 262.58,-67.37 254.8,-60.18 252.01,-66.6"/>
<text text-anchor="middle" x="230.5" y="-41" font-family="Helvetica,sans-Serif" font-size="10.00"> amt_</text>
</g>
<!-- Node5 -->
<g id="node5" class="node">
<title>Node5</title>
<g id="a_node5"><a xlink:href="classFunctionalTest.html" target="_top" xlink:title="Abstract class to implement functional tests using ConsoleManager.">
<polygon fill="white" stroke="black" points="239.5,-134.5 239.5,-153.5 325.5,-153.5 325.5,-134.5 239.5,-134.5"/>
<text text-anchor="middle" x="282.5" y="-141.5" font-family="Helvetica,sans-Serif" font-size="10.00">FunctionalTest</text>
</a>
</g>
</g>
<!-- Node5&#45;&gt;Node4 -->
<g id="edge4" class="edge">
<title>Node5&#45;&gt;Node4</title>
<path fill="none" stroke="midnightblue" d="M282.5,-124.04C282.5,-111.67 282.5,-96.12 282.5,-86.63"/>
<polygon fill="midnightblue" stroke="midnightblue" points="279,-124.23 282.5,-134.23 286,-124.23 279,-124.23"/>
</g>
</g>
</svg>
