<?xml version="1.0" encoding="UTF-8" standalone="no"?>
<!DOCTYPE svg PUBLIC "-//W3C//DTD SVG 1.1//EN"
 "http://www.w3.org/Graphics/SVG/1.1/DTD/svg11.dtd">
<!-- Generated by graphviz version 2.43.0 (0)
 -->
<!-- Title: AsservEsialR::motion_setLowSpeedBackward Pages: 1 -->
<svg width="345pt" height="142pt"
 viewBox="0.00 0.00 345.00 142.00" xmlns="http://www.w3.org/2000/svg" xmlns:xlink="http://www.w3.org/1999/xlink">
<g id="graph0" class="graph" transform="scale(1 1) rotate(0) translate(4 138)">
<title>AsservEsialR::motion_setLowSpeedBackward</title>
<polygon fill="white" stroke="transparent" points="-4,4 -4,-138 341,-138 341,4 -4,4"/>
<!-- Node1 -->
<g id="node1" class="node">
<title>Node1</title>
<g id="a_node1"><a xlink:title="Active/desactive la vitesse reduite en marche arriere.">
<polygon fill="#bfbfbf" stroke="black" points="203,-52 203,-82 337,-82 337,-52 203,-52"/>
<text text-anchor="start" x="211" y="-70" font-family="Helvetica,sans-Serif" font-size="10.00">AsservEsialR::motion</text>
<text text-anchor="middle" x="270" y="-59" font-family="Helvetica,sans-Serif" font-size="10.00">_setLowSpeedBackward</text>
</a>
</g>
</g>
<!-- Node2 -->
<g id="node2" class="node">
<title>Node2</title>
<g id="a_node2"><a xlink:href="classAsserv.html#a0ac23995bdebb69bb49304850c951886" target="_top" xlink:title=" ">
<polygon fill="white" stroke="black" points="33,-114.5 33,-133.5 134,-133.5 134,-114.5 33,-114.5"/>
<text text-anchor="middle" x="83.5" y="-121.5" font-family="Helvetica,sans-Serif" font-size="10.00">Asserv::doCalage</text>
</a>
</g>
</g>
<!-- Node1&#45;&gt;Node2 -->
<g id="edge1" class="edge">
<title>Node1&#45;&gt;Node2</title>
<path fill="none" stroke="midnightblue" d="M222.28,-85.86C205.07,-92.42 185.31,-99.51 167,-105 155.32,-108.51 142.54,-111.74 130.6,-114.5"/>
<polygon fill="midnightblue" stroke="midnightblue" points="224.02,-88.94 232.09,-82.07 221.5,-82.41 224.02,-88.94"/>
</g>
<!-- Node3 -->
<g id="node3" class="node">
<title>Node3</title>
<g id="a_node3"><a xlink:href="classAsserv.html#acc891ab26e32320b4f2fac646de93632" target="_top" xlink:title=" ">
<polygon fill="white" stroke="black" points="30,-76.5 30,-95.5 137,-95.5 137,-76.5 30,-76.5"/>
<text text-anchor="middle" x="83.5" y="-83.5" font-family="Helvetica,sans-Serif" font-size="10.00">Asserv::doCalage2</text>
</a>
</g>
</g>
<!-- Node1&#45;&gt;Node3 -->
<g id="edge2" class="edge">
<title>Node1&#45;&gt;Node3</title>
<path fill="none" stroke="midnightblue" d="M192.91,-74.84C174.16,-76.77 154.48,-78.79 137.12,-80.58"/>
<polygon fill="midnightblue" stroke="midnightblue" points="193.32,-78.31 202.91,-73.81 192.61,-71.35 193.32,-78.31"/>
</g>
<!-- Node4 -->
<g id="node4" class="node">
<title>Node4</title>
<g id="a_node4"><a xlink:href="classAsserv.html#aa105905ebc1940adb7c483a14c9ce8fc" target="_top" xlink:title=" ">
<polygon fill="white" stroke="black" points="22.5,-38.5 22.5,-57.5 144.5,-57.5 144.5,-38.5 22.5,-38.5"/>
<text text-anchor="middle" x="83.5" y="-45.5" font-family="Helvetica,sans-Serif" font-size="10.00">Asserv::doCalageNew</text>
</a>
</g>
</g>
<!-- Node1&#45;&gt;Node4 -->
<g id="edge3" class="edge">
<title>Node1&#45;&gt;Node4</title>
<path fill="none" stroke="midnightblue" d="M192.52,-59.12C176.53,-57.48 159.89,-55.76 144.6,-54.19"/>
<polygon fill="midnightblue" stroke="midnightblue" points="192.61,-62.65 202.91,-60.19 193.32,-55.69 192.61,-62.65"/>
</g>
<!-- Node5 -->
<g id="node5" class="node">
<title>Node5</title>
<g id="a_node5"><a xlink:href="classAsserv.html#a21b2a90179e065b7e48e364dd41b0d02" target="_top" xlink:title=" ">
<polygon fill="white" stroke="black" points="0,-0.5 0,-19.5 167,-19.5 167,-0.5 0,-0.5"/>
<text text-anchor="middle" x="83.5" y="-7.5" font-family="Helvetica,sans-Serif" font-size="10.00">Asserv::setLowSpeedBackward</text>
</a>
</g>
</g>
<!-- Node1&#45;&gt;Node5 -->
<g id="edge4" class="edge">
<title>Node1&#45;&gt;Node5</title>
<path fill="none" stroke="midnightblue" d="M222.28,-48.14C205.07,-41.58 185.31,-34.49 167,-29 155.32,-25.49 142.54,-22.26 130.6,-19.5"/>
<polygon fill="midnightblue" stroke="midnightblue" points="221.5,-51.59 232.09,-51.93 224.02,-45.06 221.5,-51.59"/>
</g>
</g>
</svg>
