<?xml version="1.0" encoding="UTF-8" standalone="no"?>
<!DOCTYPE svg PUBLIC "-//W3C//DTD SVG 1.1//EN"
 "http://www.w3.org/Graphics/SVG/1.1/DTD/svg11.dtd">
<!-- Generated by graphviz version 2.43.0 (0)
 -->
<!-- Title: AsservDriverSimu::motion_AssistedHandling Pages: 1 -->
<!--zoomable 331 -->
<svg id="main" version="1.1" xmlns="http://www.w3.org/2000/svg" xmlns:xlink="http://www.w3.org/1999/xlink" xml:space="preserve" onload="init(evt)">
<style type="text/css"><![CDATA[
.edge:hover path { stroke: red; }
.edge:hover polygon { stroke: red; fill: red; }
]]></style>
<script type="text/javascript"><![CDATA[
var edges = document.getElementsByTagName('g');
if (edges && edges.length) {
  for (var i=0;i<edges.length;i++) {
    if (edges[i].id.substr(0,4)=='edge') {
      edges[i].setAttribute('class','edge');
    }
  }
}
]]></script>
        <defs>
                <circle id="rim" cx="0" cy="0" r="7"/>
                <circle id="rim2" cx="0" cy="0" r="3.5"/>
                <g id="zoomPlus">
                        <use xlink:href="#rim" fill="#404040">
                                <set attributeName="fill" to="#808080" begin="zoomplus.mouseover" end="zoomplus.mouseout"/>
                        </use>
                        <path d="M-4,0h8M0,-4v8" fill="none" stroke="white" stroke-width="1.5" pointer-events="none"/>
                </g>
                <g id="zoomMin">
                        <use xlink:href="#rim" fill="#404040">
                                <set attributeName="fill" to="#808080" begin="zoomminus.mouseover" end="zoomminus.mouseout"/>
                        </use>
                        <path d="M-4,0h8" fill="none" stroke="white" stroke-width="1.5" pointer-events="none"/>
                </g>
                <g id="dirArrow">
                        <path fill="none" stroke="white" stroke-width="1.5" d="M0,-3.0v7 M-2.5,-0.5L0,-3.0L2.5,-0.5"/>
                </g>
               <g id="resetDef">
                       <use xlink:href="#rim2" fill="#404040">
                               <set attributeName="fill" to="#808080" begin="reset.mouseover" end="reset.mouseout"/>
                       </use>
               </g>
        </defs>

<script type="text/javascript">
var viewWidth = 1308;
var viewHeight = 331;
var sectionId = 'dynsection-42';
</script>
<script xlink:href="svgpan.js"/>
<svg id="graph" class="graph">
<g id="viewport">
<title>AsservDriverSimu::motion_AssistedHandling</title>
<polygon fill="white" stroke="transparent" points="-4,4 -4,-326.5 1304,-326.5 1304,4 -4,4"/>
<!-- Node1 -->
<g id="node1" class="node">
<title>Node1</title>
<g id="a_node1"><a xlink:title="disable PID">
<polygon fill="#bfbfbf" stroke="black" points="0,-155.5 0,-185.5 145,-185.5 145,-155.5 0,-155.5"/>
<text text-anchor="start" x="8" y="-173.5" font-family="Helvetica,sans-Serif" font-size="10.00">AsservDriverSimu::motion</text>
<text text-anchor="middle" x="72.5" y="-162.5" font-family="Helvetica,sans-Serif" font-size="10.00">_AssistedHandling</text>
</a>
</g>
</g>
<!-- Node2 -->
<g id="node2" class="node">
<title>Node2</title>
<g id="a_node2"><a xlink:href="classAsservDriverSimu.html#af1b13f723a3ccc404cac9c8bf6a65b2b" target="_top" xlink:title="Arrete le moteur gauche.">
<polygon fill="white" stroke="black" points="181,-137 181,-156 359,-156 359,-137 181,-137"/>
<text text-anchor="middle" x="270" y="-144" font-family="Helvetica,sans-Serif" font-size="10.00">AsservDriverSimu::stopMotorLeft</text>
</a>
</g>
</g>
<!-- Node1&#45;&gt;Node2 -->
<g id="edge1" class="edge">
<title>Node1&#45;&gt;Node2</title>
<path fill="none" stroke="midnightblue" d="M145.19,-161.7C156.94,-160.26 169.23,-158.75 181.31,-157.26"/>
<polygon fill="midnightblue" stroke="midnightblue" points="181.9,-160.72 191.4,-156.03 181.04,-153.77 181.9,-160.72"/>
</g>
<!-- Node17 -->
<g id="node17" class="node">
<title>Node17</title>
<g id="a_node17"><a xlink:href="classAsservDriverSimu.html#aa41970e43bf714d0d409df33d0eb902d" target="_top" xlink:title="Arrete le moteur droit.">
<polygon fill="white" stroke="black" points="190,-180.5 190,-210.5 350,-210.5 350,-180.5 190,-180.5"/>
<text text-anchor="start" x="198" y="-198.5" font-family="Helvetica,sans-Serif" font-size="10.00">AsservDriverSimu::stopMotor</text>
<text text-anchor="middle" x="270" y="-187.5" font-family="Helvetica,sans-Serif" font-size="10.00">Right</text>
</a>
</g>
</g>
<!-- Node1&#45;&gt;Node17 -->
<g id="edge20" class="edge">
<title>Node1&#45;&gt;Node17</title>
<path fill="none" stroke="midnightblue" d="M145.19,-179.67C156.4,-181.1 168.1,-182.6 179.65,-184.07"/>
<polygon fill="midnightblue" stroke="midnightblue" points="179.37,-187.57 189.74,-185.36 180.26,-180.62 179.37,-187.57"/>
</g>
<!-- Node3 -->
<g id="node3" class="node">
<title>Node3</title>
<g id="a_node3"><a xlink:href="classAsservDriverSimu.html#ac30d3be71da13b7199b6ef814af26b1a" target="_top" xlink:title=" ">
<polygon fill="white" stroke="black" points="395,-131.5 395,-161.5 548,-161.5 548,-131.5 395,-131.5"/>
<text text-anchor="start" x="403" y="-149.5" font-family="Helvetica,sans-Serif" font-size="10.00">AsservDriverSimu::compute</text>
<text text-anchor="middle" x="471.5" y="-138.5" font-family="Helvetica,sans-Serif" font-size="10.00">CounterL</text>
</a>
</g>
</g>
<!-- Node2&#45;&gt;Node3 -->
<g id="edge2" class="edge">
<title>Node2&#45;&gt;Node3</title>
<path fill="none" stroke="midnightblue" d="M359.08,-146.5C367.54,-146.5 376.12,-146.5 384.56,-146.5"/>
<polygon fill="midnightblue" stroke="midnightblue" points="384.77,-150 394.77,-146.5 384.77,-143 384.77,-150"/>
</g>
<!-- Node5 -->
<g id="node5" class="node">
<title>Node5</title>
<g id="a_node5"><a xlink:href="classlogs_1_1Logger.html#a7dffc8f610014ec59b63392da16140e4" target="_top" xlink:title="Trace un message de niveau DEBUG.">
<polygon fill="white" stroke="black" points="783.5,-191 783.5,-210 895.5,-210 895.5,-191 783.5,-191"/>
<text text-anchor="middle" x="839.5" y="-198" font-family="Helvetica,sans-Serif" font-size="10.00">logs::Logger::debug</text>
</a>
</g>
</g>
<!-- Node2&#45;&gt;Node5 -->
<g id="edge17" class="edge">
<title>Node2&#45;&gt;Node5</title>
<path fill="none" stroke="midnightblue" d="M303.43,-136.97C380.34,-116.02 578.91,-71.72 733,-122.5 769.51,-134.53 803.73,-164.59 822.81,-183.69"/>
<polygon fill="midnightblue" stroke="midnightblue" points="820.32,-186.15 829.8,-190.88 825.34,-181.27 820.32,-186.15"/>
</g>
<!-- Node7 -->
<g id="node7" class="node">
<title>Node7</title>
<g id="a_node7"><a xlink:href="namespacelogs.html#ac6f325c6cfe6189bc8e243daa184453b" target="_top" xlink:title="Cette méthode permet de finir les flux de construction par la notation.">
<polygon fill="white" stroke="black" points="809,-267 809,-286 870,-286 870,-267 809,-267"/>
<text text-anchor="middle" x="839.5" y="-274" font-family="Helvetica,sans-Serif" font-size="10.00">logs::end</text>
</a>
</g>
</g>
<!-- Node2&#45;&gt;Node7 -->
<g id="edge18" class="edge">
<title>Node2&#45;&gt;Node7</title>
<path fill="none" stroke="midnightblue" d="M326.09,-156.13C337.61,-159.75 349.22,-164.71 359,-171.5 381.2,-186.91 371.7,-206.81 395,-220.5 429.49,-240.77 696.16,-264.72 798.6,-273.27"/>
<polygon fill="midnightblue" stroke="midnightblue" points="798.59,-276.78 808.84,-274.12 799.16,-269.8 798.59,-276.78"/>
</g>
<!-- Node11 -->
<g id="node11" class="node">
<title>Node11</title>
<g id="a_node11"><a xlink:href="classAsservDriverSimu.html#ae676ad46e14f6a0547264fdfd5cd399e" target="_top" xlink:title="Retourne le Logger associé à la classe AsservDriverSimu(SIMU).">
<polygon fill="white" stroke="black" points="769,-55 769,-74 910,-74 910,-55 769,-55"/>
<text text-anchor="middle" x="839.5" y="-62" font-family="Helvetica,sans-Serif" font-size="10.00">AsservDriverSimu::logger</text>
</a>
</g>
</g>
<!-- Node2&#45;&gt;Node11 -->
<g id="edge19" class="edge">
<title>Node2&#45;&gt;Node11</title>
<path fill="none" stroke="midnightblue" d="M279.08,-136.95C297.24,-116.31 343.73,-68.03 395,-50.5 533.2,-3.26 709.95,-33.67 792.35,-52.63"/>
<polygon fill="midnightblue" stroke="midnightblue" points="791.62,-56.05 802.16,-54.93 793.23,-49.24 791.62,-56.05"/>
</g>
<!-- Node4 -->
<g id="node4" class="node">
<title>Node4</title>
<g id="a_node4"><a xlink:href="classAsservDriverSimu.html#a947251612114c02b78aeee1b022a12df" target="_top" xlink:title=" ">
<polygon fill="white" stroke="black" points="585,-180.5 585,-210.5 732,-210.5 732,-180.5 585,-180.5"/>
<text text-anchor="start" x="593" y="-198.5" font-family="Helvetica,sans-Serif" font-size="10.00">AsservDriverSimu::convert</text>
<text text-anchor="middle" x="658.5" y="-187.5" font-family="Helvetica,sans-Serif" font-size="10.00">MmToTicks</text>
</a>
</g>
</g>
<!-- Node3&#45;&gt;Node4 -->
<g id="edge3" class="edge">
<title>Node3&#45;&gt;Node4</title>
<path fill="none" stroke="midnightblue" d="M529.26,-161.53C548.8,-166.71 570.84,-172.55 591.08,-177.91"/>
<polygon fill="midnightblue" stroke="midnightblue" points="590.28,-181.32 600.84,-180.49 592.07,-174.55 590.28,-181.32"/>
</g>
<!-- Node16 -->
<g id="node16" class="node">
<title>Node16</title>
<g id="a_node16"><a xlink:href="classutils_1_1Chronometer.html#aecf9f2e3ced9629be0a03b3ecf0ee01a" target="_top" xlink:title="Retourne le temps écoulé en millisecondes.">
<polygon fill="white" stroke="black" points="584,-131.5 584,-161.5 733,-161.5 733,-131.5 584,-131.5"/>
<text text-anchor="start" x="592" y="-149.5" font-family="Helvetica,sans-Serif" font-size="10.00">utils::Chronometer</text>
<text text-anchor="middle" x="658.5" y="-138.5" font-family="Helvetica,sans-Serif" font-size="10.00">::getElapsedTimeInMilliSec</text>
</a>
</g>
</g>
<!-- Node3&#45;&gt;Node16 -->
<g id="edge16" class="edge">
<title>Node3&#45;&gt;Node16</title>
<path fill="none" stroke="midnightblue" d="M548.01,-146.5C556.4,-146.5 564.97,-146.5 573.45,-146.5"/>
<polygon fill="midnightblue" stroke="midnightblue" points="573.72,-150 583.72,-146.5 573.72,-143 573.72,-150"/>
</g>
<!-- Node4&#45;&gt;Node5 -->
<g id="edge4" class="edge">
<title>Node4&#45;&gt;Node5</title>
<path fill="none" stroke="midnightblue" d="M732.05,-197.53C745.72,-197.91 759.93,-198.31 773.36,-198.68"/>
<polygon fill="midnightblue" stroke="midnightblue" points="773.35,-202.18 783.45,-198.96 773.55,-195.18 773.35,-202.18"/>
</g>
<!-- Node4&#45;&gt;Node7 -->
<g id="edge6" class="edge">
<title>Node4&#45;&gt;Node7</title>
<path fill="none" stroke="midnightblue" d="M692.75,-210.55C725.83,-225.51 776.14,-248.28 808.16,-262.77"/>
<polygon fill="midnightblue" stroke="midnightblue" points="806.92,-266.05 817.47,-266.98 809.8,-259.67 806.92,-266.05"/>
</g>
<!-- Node4&#45;&gt;Node11 -->
<g id="edge11" class="edge">
<title>Node4&#45;&gt;Node11</title>
<path fill="none" stroke="midnightblue" d="M715.37,-180.43C721.51,-177.85 727.52,-174.89 733,-171.5 771.95,-147.4 807.1,-106.03 825.34,-82.41"/>
<polygon fill="midnightblue" stroke="midnightblue" points="828.23,-84.39 831.47,-74.3 822.65,-80.17 828.23,-84.39"/>
</g>
<!-- Node6 -->
<g id="node6" class="node">
<title>Node6</title>
<g id="a_node6"><a xlink:href="classlogs_1_1Logger.html#afa535aaf4891e02c4ff7f84d372b5b1b" target="_top" xlink:title="Méthode générique de trace d&#39;un message.">
<polygon fill="white" stroke="black" points="1150,-205 1150,-224 1300,-224 1300,-205 1150,-205"/>
<text text-anchor="middle" x="1225" y="-212" font-family="Helvetica,sans-Serif" font-size="10.00">logs::Logger::writeMessage</text>
</a>
</g>
</g>
<!-- Node5&#45;&gt;Node6 -->
<g id="edge5" class="edge">
<title>Node5&#45;&gt;Node6</title>
<path fill="none" stroke="midnightblue" d="M895.85,-202.52C959.74,-204.85 1065.52,-208.71 1139.67,-211.42"/>
<polygon fill="midnightblue" stroke="midnightblue" points="1139.79,-214.93 1149.91,-211.8 1140.05,-207.93 1139.79,-214.93"/>
</g>
<!-- Node8 -->
<g id="node8" class="node">
<title>Node8</title>
<g id="a_node8"><a xlink:href="classlogs_1_1Logger_1_1LoggerBuffer.html#a0e4fd77693fd899ec1b0670354f93a02" target="_top" xlink:title="Cette méthode valide le message en cours de construction et le transmet au Logger de référence.">
<polygon fill="white" stroke="black" points="946,-266 946,-285 1114,-285 1114,-266 946,-266"/>
<text text-anchor="middle" x="1030" y="-273" font-family="Helvetica,sans-Serif" font-size="10.00">logs::Logger::LoggerBuffer::end</text>
</a>
</g>
</g>
<!-- Node7&#45;&gt;Node8 -->
<g id="edge7" class="edge">
<title>Node7&#45;&gt;Node8</title>
<path fill="none" stroke="midnightblue" d="M870.37,-276.34C888.26,-276.25 912.09,-276.12 935.82,-275.99"/>
<polygon fill="midnightblue" stroke="midnightblue" points="935.99,-279.49 945.97,-275.94 935.95,-272.49 935.99,-279.49"/>
</g>
<!-- Node8&#45;&gt;Node6 -->
<g id="edge10" class="edge">
<title>Node8&#45;&gt;Node6</title>
<path fill="none" stroke="midnightblue" d="M1061.16,-265.97C1094.2,-255.52 1147.36,-238.72 1183.9,-227.17"/>
<polygon fill="midnightblue" stroke="midnightblue" points="1185.26,-230.42 1193.74,-224.06 1183.15,-223.74 1185.26,-230.42"/>
</g>
<!-- Node9 -->
<g id="node9" class="node">
<title>Node9</title>
<g id="a_node9"><a xlink:href="classutils_1_1Mutex.html#aa584b418a5ef484f76b93e361a1d7e32" target="_top" xlink:title="Verrouille le mutex. Cette méthode doit être appelée avant d&#39;utiliser la ressource associée....">
<polygon fill="white" stroke="black" points="1174.5,-303 1174.5,-322 1275.5,-322 1275.5,-303 1174.5,-303"/>
<text text-anchor="middle" x="1225" y="-310" font-family="Helvetica,sans-Serif" font-size="10.00">utils::Mutex::lock</text>
</a>
</g>
</g>
<!-- Node8&#45;&gt;Node9 -->
<g id="edge8" class="edge">
<title>Node8&#45;&gt;Node9</title>
<path fill="none" stroke="midnightblue" d="M1080.7,-285.03C1106.25,-289.93 1137.58,-295.93 1164.42,-301.08"/>
<polygon fill="midnightblue" stroke="midnightblue" points="1163.99,-304.56 1174.47,-303 1165.3,-297.68 1163.99,-304.56"/>
</g>
<!-- Node10 -->
<g id="node10" class="node">
<title>Node10</title>
<g id="a_node10"><a xlink:href="classutils_1_1Mutex.html#a59b2079dc7f803d49f78ac9c04406cd3" target="_top" xlink:title="Déverrouille le mutex. Cette méthode doit être appelée après avoir utiliser la ressource associée.">
<polygon fill="white" stroke="black" points="1168.5,-265 1168.5,-284 1281.5,-284 1281.5,-265 1168.5,-265"/>
<text text-anchor="middle" x="1225" y="-272" font-family="Helvetica,sans-Serif" font-size="10.00">utils::Mutex::unlock</text>
</a>
</g>
</g>
<!-- Node8&#45;&gt;Node10 -->
<g id="edge9" class="edge">
<title>Node8&#45;&gt;Node10</title>
<path fill="none" stroke="midnightblue" d="M1114.25,-275.07C1128.94,-274.99 1144.06,-274.91 1158.19,-274.84"/>
<polygon fill="midnightblue" stroke="midnightblue" points="1158.31,-278.34 1168.29,-274.79 1158.27,-271.34 1158.31,-278.34"/>
</g>
<!-- Node12 -->
<g id="node12" class="node">
<title>Node12</title>
<g id="a_node12"><a xlink:href="classlogs_1_1LoggerFactory.html#a82585b5de73e471e06cafdccc3b3721e" target="_top" xlink:title="Cette méthode statique retourne un Logger en fonction de son nom.">
<polygon fill="white" stroke="black" points="974.5,-49.5 974.5,-79.5 1085.5,-79.5 1085.5,-49.5 974.5,-49.5"/>
<text text-anchor="start" x="982.5" y="-67.5" font-family="Helvetica,sans-Serif" font-size="10.00">logs::LoggerFactory</text>
<text text-anchor="middle" x="1030" y="-56.5" font-family="Helvetica,sans-Serif" font-size="10.00">::logger</text>
</a>
</g>
</g>
<!-- Node11&#45;&gt;Node12 -->
<g id="edge12" class="edge">
<title>Node11&#45;&gt;Node12</title>
<path fill="none" stroke="midnightblue" d="M910.15,-64.5C927.86,-64.5 946.82,-64.5 964.27,-64.5"/>
<polygon fill="midnightblue" stroke="midnightblue" points="964.35,-68 974.35,-64.5 964.35,-61 964.35,-68"/>
</g>
<!-- Node13 -->
<g id="node13" class="node">
<title>Node13</title>
<g id="a_node13"><a xlink:href="classlogs_1_1LoggerFactory.html#ac89f19c0ffd71aa8cdc1c2d44c03809e" target="_top" xlink:title="Cette méthode ajoute un appender au système.">
<polygon fill="white" stroke="black" points="1158,-99 1158,-118 1292,-118 1292,-99 1158,-99"/>
<text text-anchor="middle" x="1225" y="-106" font-family="Helvetica,sans-Serif" font-size="10.00">logs::LoggerFactory::add</text>
</a>
</g>
</g>
<!-- Node12&#45;&gt;Node13 -->
<g id="edge13" class="edge">
<title>Node12&#45;&gt;Node13</title>
<path fill="none" stroke="midnightblue" d="M1085.53,-76.93C1112.71,-83.13 1145.41,-90.58 1172.21,-96.69"/>
<polygon fill="midnightblue" stroke="midnightblue" points="1171.64,-100.15 1182.16,-98.96 1173.19,-93.33 1171.64,-100.15"/>
</g>
<!-- Node14 -->
<g id="node14" class="node">
<title>Node14</title>
<g id="a_node14"><a xlink:href="classlogs_1_1LoggerFactory.html#a90478b91d7af2ef8841ded21e3521f69" target="_top" xlink:title="Cette méthode statique retourne l&#39;instance unique de la classe LoggerFactory.">
<polygon fill="white" stroke="black" points="1169.5,-49.5 1169.5,-79.5 1280.5,-79.5 1280.5,-49.5 1169.5,-49.5"/>
<text text-anchor="start" x="1177.5" y="-67.5" font-family="Helvetica,sans-Serif" font-size="10.00">logs::LoggerFactory</text>
<text text-anchor="middle" x="1225" y="-56.5" font-family="Helvetica,sans-Serif" font-size="10.00">::instance</text>
</a>
</g>
</g>
<!-- Node12&#45;&gt;Node14 -->
<g id="edge14" class="edge">
<title>Node12&#45;&gt;Node14</title>
<path fill="none" stroke="midnightblue" d="M1085.53,-64.5C1108.45,-64.5 1135.3,-64.5 1159.22,-64.5"/>
<polygon fill="midnightblue" stroke="midnightblue" points="1159.27,-68 1169.27,-64.5 1159.27,-61 1159.27,-68"/>
</g>
<!-- Node15 -->
<g id="node15" class="node">
<title>Node15</title>
<g id="a_node15"><a xlink:href="classlogs_1_1LoggerFactory.html#a212aa623f4b6bee12cb39e8017dde670" target="_top" xlink:title="Cette méthode retourne le Logger principal qui définit le niveau de trace par défaut.">
<polygon fill="white" stroke="black" points="1169.5,-0.5 1169.5,-30.5 1280.5,-30.5 1280.5,-0.5 1169.5,-0.5"/>
<text text-anchor="start" x="1177.5" y="-18.5" font-family="Helvetica,sans-Serif" font-size="10.00">logs::LoggerFactory</text>
<text text-anchor="middle" x="1225" y="-7.5" font-family="Helvetica,sans-Serif" font-size="10.00">::rootLogger</text>
</a>
</g>
</g>
<!-- Node12&#45;&gt;Node15 -->
<g id="edge15" class="edge">
<title>Node12&#45;&gt;Node15</title>
<path fill="none" stroke="midnightblue" d="M1085.53,-50.66C1108.56,-44.81 1135.54,-37.96 1159.54,-31.87"/>
<polygon fill="midnightblue" stroke="midnightblue" points="1160.44,-35.25 1169.27,-29.4 1158.71,-28.46 1160.44,-35.25"/>
</g>
<!-- Node17&#45;&gt;Node5 -->
<g id="edge24" class="edge">
<title>Node17&#45;&gt;Node5</title>
<path fill="none" stroke="midnightblue" d="M333.08,-210.53C352.76,-214.62 374.68,-218.47 395,-220.5 544.48,-235.42 583.44,-234.55 733,-220.5 751.08,-218.8 770.67,-215.5 788,-212.06"/>
<polygon fill="midnightblue" stroke="midnightblue" points="788.83,-215.47 797.92,-210.03 787.42,-208.61 788.83,-215.47"/>
</g>
<!-- Node17&#45;&gt;Node7 -->
<g id="edge25" class="edge">
<title>Node17&#45;&gt;Node7</title>
<path fill="none" stroke="midnightblue" d="M310.96,-210.51C335.14,-219.38 366.67,-230.59 395,-239.5 478.11,-265.64 497.66,-279.84 584,-291.5 649.63,-300.36 666.94,-296.17 733,-291.5 754.74,-289.96 778.82,-286.66 798.48,-283.55"/>
<polygon fill="midnightblue" stroke="midnightblue" points="799.3,-286.96 808.61,-281.9 798.17,-280.05 799.3,-286.96"/>
</g>
<!-- Node17&#45;&gt;Node11 -->
<g id="edge26" class="edge">
<title>Node17&#45;&gt;Node11</title>
<path fill="none" stroke="midnightblue" d="M329.95,-180.41C340.11,-176.44 350.21,-171.53 359,-165.5 379.55,-151.4 373.15,-134.49 395,-122.5 509.66,-59.58 665.43,-54.35 758.58,-58.13"/>
<polygon fill="midnightblue" stroke="midnightblue" points="758.64,-61.64 768.78,-58.59 758.95,-54.64 758.64,-61.64"/>
</g>
<!-- Node18 -->
<g id="node18" class="node">
<title>Node18</title>
<g id="a_node18"><a xlink:href="classAsservDriverSimu.html#a93a71da90411a3d79b507ed951f467ab" target="_top" xlink:title=" ">
<polygon fill="white" stroke="black" points="395,-180.5 395,-210.5 548,-210.5 548,-180.5 395,-180.5"/>
<text text-anchor="start" x="403" y="-198.5" font-family="Helvetica,sans-Serif" font-size="10.00">AsservDriverSimu::compute</text>
<text text-anchor="middle" x="471.5" y="-187.5" font-family="Helvetica,sans-Serif" font-size="10.00">CounterR</text>
</a>
</g>
</g>
<!-- Node17&#45;&gt;Node18 -->
<g id="edge21" class="edge">
<title>Node17&#45;&gt;Node18</title>
<path fill="none" stroke="midnightblue" d="M350.13,-195.5C361.49,-195.5 373.23,-195.5 384.71,-195.5"/>
<polygon fill="midnightblue" stroke="midnightblue" points="384.71,-199 394.71,-195.5 384.71,-192 384.71,-199"/>
</g>
<!-- Node18&#45;&gt;Node4 -->
<g id="edge22" class="edge">
<title>Node18&#45;&gt;Node4</title>
<path fill="none" stroke="midnightblue" d="M548.01,-195.5C556.87,-195.5 565.94,-195.5 574.89,-195.5"/>
<polygon fill="midnightblue" stroke="midnightblue" points="574.92,-199 584.92,-195.5 574.92,-192 574.92,-199"/>
</g>
<!-- Node18&#45;&gt;Node16 -->
<g id="edge23" class="edge">
<title>Node18&#45;&gt;Node16</title>
<path fill="none" stroke="midnightblue" d="M529.26,-180.47C548.8,-175.29 570.84,-169.45 591.08,-164.09"/>
<polygon fill="midnightblue" stroke="midnightblue" points="592.07,-167.45 600.84,-161.51 590.28,-160.68 592.07,-167.45"/>
</g>
</g>
</svg>
        <g id="navigator" transform="translate(0 0)" fill="#404254">
                <rect fill="#f2f5e9" fill-opacity="0.5" stroke="#606060" stroke-width=".5" x="0" y="0" width="60" height="60"/>
                <use id="zoomplus" xlink:href="#zoomPlus" x="17" y="9" onmousedown="handleZoom(evt,'in')"/>
                <use id="zoomminus" xlink:href="#zoomMin" x="42" y="9" onmousedown="handleZoom(evt,'out')"/>
                <use id="reset" xlink:href="#resetDef" x="30" y="36" onmousedown="handleReset()"/>
                <g id="arrowUp" xlink:href="#dirArrow" transform="translate(30 24)" onmousedown="handlePan(0,-1)">
                  <use xlink:href="#rim" fill="#404040">
                        <set attributeName="fill" to="#808080" begin="arrowUp.mouseover" end="arrowUp.mouseout"/>
                  </use>
                  <path fill="none" stroke="white" stroke-width="1.5" d="M0,-3.0v7 M-2.5,-0.5L0,-3.0L2.5,-0.5"/>
                </g>
                <g id="arrowRight" xlink:href="#dirArrow" transform="rotate(90) translate(36 -43)" onmousedown="handlePan(1,0)">
                  <use xlink:href="#rim" fill="#404040">
                        <set attributeName="fill" to="#808080" begin="arrowRight.mouseover" end="arrowRight.mouseout"/>
                  </use>
                  <path fill="none" stroke="white" stroke-width="1.5" d="M0,-3.0v7 M-2.5,-0.5L0,-3.0L2.5,-0.5"/>
                </g>
                <g id="arrowDown" xlink:href="#dirArrow" transform="rotate(180) translate(-30 -48)" onmousedown="handlePan(0,1)">
                  <use xlink:href="#rim" fill="#404040">
                        <set attributeName="fill" to="#808080" begin="arrowDown.mouseover" end="arrowDown.mouseout"/>
                  </use>
                  <path fill="none" stroke="white" stroke-width="1.5" d="M0,-3.0v7 M-2.5,-0.5L0,-3.0L2.5,-0.5"/>
                </g>
                <g id="arrowLeft" xlink:href="#dirArrow" transform="rotate(270) translate(-36 17)" onmousedown="handlePan(-1,0)">
                  <use xlink:href="#rim" fill="#404040">
                        <set attributeName="fill" to="#808080" begin="arrowLeft.mouseover" end="arrowLeft.mouseout"/>
                  </use>
                  <path fill="none" stroke="white" stroke-width="1.5" d="M0,-3.0v7 M-2.5,-0.5L0,-3.0L2.5,-0.5"/>
                </g>
        </g>
        <svg viewBox="0 0 15 15" width="100%" height="30px" preserveAspectRatio="xMaxYMin meet">
         <g id="arrow_out" transform="scale(0.3 0.3)">
          <a xlink:href="classAsservDriverSimu_a86866497006102b2830de423d5e832c9_cgraph_org.svg" target="_base">
           <rect id="button" ry="5" rx="5" y="6" x="6" height="38" width="38"
                fill="#f2f5e9" fill-opacity="0.5" stroke="#606060" stroke-width="1.0"/>
           <path id="arrow"
             d="M 11.500037,31.436501 C 11.940474,20.09759 22.043105,11.32322 32.158766,21.979434 L 37.068811,17.246167 C 37.068811,17.246167 37.088388,32 37.088388,32 L 22.160133,31.978069 C 22.160133,31.978069 26.997745,27.140456 26.997745,27.140456 C 18.528582,18.264221 13.291696,25.230495 11.500037,31.436501 z"
             style="fill:#404040;"/>
          </a>
         </g>
        </svg>
</svg>
