<?xml version="1.0" encoding="UTF-8" standalone="no"?>
<!DOCTYPE svg PUBLIC "-//W3C//DTD SVG 1.1//EN"
 "http://www.w3.org/Graphics/SVG/1.1/DTD/svg11.dtd">
<!-- Generated by graphviz version 2.43.0 (0)
 -->
<!-- Title: ASensorsDriver::getvPositionsAdv Pages: 1 -->
<svg width="651pt" height="66pt"
 viewBox="0.00 0.00 651.00 66.00" xmlns="http://www.w3.org/2000/svg" xmlns:xlink="http://www.w3.org/1999/xlink">
<g id="graph0" class="graph" transform="scale(1 1) rotate(0) translate(4 62)">
<title>ASensorsDriver::getvPositionsAdv</title>
<polygon fill="white" stroke="transparent" points="-4,4 -4,-62 647,-62 647,4 -4,4"/>
<!-- Node1 -->
<g id="node1" class="node">
<title>Node1</title>
<g id="a_node1"><a xlink:title="Retourne les positions des adversaires detectes.">
<polygon fill="#bfbfbf" stroke="black" points="461,-19.5 461,-38.5 643,-38.5 643,-19.5 461,-19.5"/>
<text text-anchor="middle" x="552" y="-26.5" font-family="Helvetica,sans-Serif" font-size="10.00">ASensorsDriver::getvPositionsAdv</text>
</a>
</g>
</g>
<!-- Node2 -->
<g id="node2" class="node">
<title>Node2</title>
<g id="a_node2"><a xlink:href="classSensors.html#ae796030d5af64414b0822e5e36940bd4" target="_top" xlink:title=" ">
<polygon fill="white" stroke="black" points="286,-14 286,-44 425,-44 425,-14 286,-14"/>
<text text-anchor="start" x="294" y="-32" font-family="Helvetica,sans-Serif" font-size="10.00">Sensors::setPositionsAdv</text>
<text text-anchor="middle" x="355.5" y="-21" font-family="Helvetica,sans-Serif" font-size="10.00">ByBeacon</text>
</a>
</g>
</g>
<!-- Node1&#45;&gt;Node2 -->
<g id="edge1" class="edge">
<title>Node1&#45;&gt;Node2</title>
<path fill="none" stroke="midnightblue" d="M450.7,-29C442.04,-29 433.42,-29 425.1,-29"/>
<polygon fill="midnightblue" stroke="midnightblue" points="450.87,-32.5 460.87,-29 450.87,-25.5 450.87,-32.5"/>
</g>
<!-- Node3 -->
<g id="node3" class="node">
<title>Node3</title>
<g id="a_node3"><a xlink:href="classSensors.html#a7c1612f78d78562aa12322638a74140f" target="_top" xlink:title=" ">
<polygon fill="white" stroke="black" points="166,-38.5 166,-57.5 250,-57.5 250,-38.5 166,-38.5"/>
<text text-anchor="middle" x="208" y="-45.5" font-family="Helvetica,sans-Serif" font-size="10.00">Sensors::back</text>
</a>
</g>
</g>
<!-- Node2&#45;&gt;Node3 -->
<g id="edge2" class="edge">
<title>Node2&#45;&gt;Node3</title>
<path fill="none" stroke="midnightblue" d="M275.42,-39.33C266.78,-40.46 258.26,-41.57 250.35,-42.6"/>
<polygon fill="midnightblue" stroke="midnightblue" points="276.12,-42.76 285.58,-38 275.22,-35.82 276.12,-42.76"/>
</g>
<!-- Node5 -->
<g id="node5" class="node">
<title>Node5</title>
<g id="a_node5"><a xlink:href="classSensors.html#a6fde663a7fb649742b32c4c56e4b939c" target="_top" xlink:title=" ">
<polygon fill="white" stroke="black" points="166,-0.5 166,-19.5 250,-19.5 250,-0.5 166,-0.5"/>
<text text-anchor="middle" x="208" y="-7.5" font-family="Helvetica,sans-Serif" font-size="10.00">Sensors::front</text>
</a>
</g>
</g>
<!-- Node2&#45;&gt;Node5 -->
<g id="edge4" class="edge">
<title>Node2&#45;&gt;Node5</title>
<path fill="none" stroke="midnightblue" d="M275.42,-18.67C266.78,-17.54 258.26,-16.43 250.35,-15.4"/>
<polygon fill="midnightblue" stroke="midnightblue" points="275.22,-22.18 285.58,-20 276.12,-15.24 275.22,-22.18"/>
</g>
<!-- Node4 -->
<g id="node4" class="node">
<title>Node4</title>
<g id="a_node4"><a xlink:href="classSensorsTimer.html#abc377178c2471f664b31658554963e83" target="_top" xlink:title="Actions à executer pour le timer.">
<polygon fill="white" stroke="black" points="0,-19.5 0,-38.5 130,-38.5 130,-19.5 0,-19.5"/>
<text text-anchor="middle" x="65" y="-26.5" font-family="Helvetica,sans-Serif" font-size="10.00">SensorsTimer::onTimer</text>
</a>
</g>
</g>
<!-- Node3&#45;&gt;Node4 -->
<g id="edge3" class="edge">
<title>Node3&#45;&gt;Node4</title>
<path fill="none" stroke="midnightblue" d="M155.84,-41.11C147.46,-39.98 138.68,-38.79 130.03,-37.63"/>
<polygon fill="midnightblue" stroke="midnightblue" points="155.46,-44.59 165.84,-42.45 156.39,-37.65 155.46,-44.59"/>
</g>
<!-- Node5&#45;&gt;Node4 -->
<g id="edge5" class="edge">
<title>Node5&#45;&gt;Node4</title>
<path fill="none" stroke="midnightblue" d="M155.84,-16.89C147.46,-18.02 138.68,-19.21 130.03,-20.37"/>
<polygon fill="midnightblue" stroke="midnightblue" points="156.39,-20.35 165.84,-15.55 155.46,-13.41 156.39,-20.35"/>
</g>
</g>
</svg>
