<?xml version="1.0" encoding="UTF-8" standalone="no"?>
<!DOCTYPE svg PUBLIC "-//W3C//DTD SVG 1.1//EN"
 "http://www.w3.org/Graphics/SVG/1.1/DTD/svg11.dtd">
<!-- Generated by graphviz version 2.43.0 (0)
 -->
<!-- Title: ServoObjectsSystem::stopTimers Pages: 1 -->
<svg width="1158pt" height="504pt"
 viewBox="0.00 0.00 1158.00 504.00" xmlns="http://www.w3.org/2000/svg" xmlns:xlink="http://www.w3.org/1999/xlink">
<g id="graph0" class="graph" transform="scale(1 1) rotate(0) translate(4 500)">
<title>ServoObjectsSystem::stopTimers</title>
<polygon fill="white" stroke="transparent" points="-4,4 -4,-500 1154,-500 1154,4 -4,4"/>
<!-- Node1 -->
<g id="node1" class="node">
<title>Node1</title>
<g id="a_node1"><a xlink:title="Arrête tous les timers de servomoteurs en cours.">
<polygon fill="#bfbfbf" stroke="black" points="0,-238.5 0,-268.5 118,-268.5 118,-238.5 0,-238.5"/>
<text text-anchor="start" x="8" y="-256.5" font-family="Helvetica,sans-Serif" font-size="10.00">ServoObjectsSystem</text>
<text text-anchor="middle" x="59" y="-245.5" font-family="Helvetica,sans-Serif" font-size="10.00">::stopTimers</text>
</a>
</g>
</g>
<!-- Node2 -->
<g id="node2" class="node">
<title>Node2</title>
<g id="a_node2"><a xlink:href="classAActionsElement.html#a3fbd5b8201049a59602d8b7201a9ef8a" target="_top" xlink:title="Retourne une référence sur le Actions associé.">
<polygon fill="white" stroke="black" points="154,-263 154,-282 295,-282 295,-263 154,-263"/>
<text text-anchor="middle" x="224.5" y="-270" font-family="Helvetica,sans-Serif" font-size="10.00">AActionsElement::actions</text>
</a>
</g>
</g>
<!-- Node1&#45;&gt;Node2 -->
<g id="edge1" class="edge">
<title>Node1&#45;&gt;Node2</title>
<path fill="none" stroke="midnightblue" d="M118.1,-260.25C126.42,-261.22 135.09,-262.23 143.73,-263.23"/>
<polygon fill="midnightblue" stroke="midnightblue" points="143.49,-266.73 153.83,-264.4 144.3,-259.77 143.49,-266.73"/>
</g>
<!-- Node3 -->
<g id="node3" class="node">
<title>Node3</title>
<g id="a_node3"><a xlink:href="classActions.html#a0ae27b3ac9fc5d07e8da95d6b3eb130a" target="_top" xlink:title="Arrête un timer POSIX par son nom.">
<polygon fill="white" stroke="black" points="167.5,-225 167.5,-244 281.5,-244 281.5,-225 167.5,-225"/>
<text text-anchor="middle" x="224.5" y="-232" font-family="Helvetica,sans-Serif" font-size="10.00">Actions::stopPTimer</text>
</a>
</g>
</g>
<!-- Node1&#45;&gt;Node3 -->
<g id="edge2" class="edge">
<title>Node1&#45;&gt;Node3</title>
<path fill="none" stroke="midnightblue" d="M118.1,-246.75C130.71,-245.28 144.13,-243.72 157.02,-242.22"/>
<polygon fill="midnightblue" stroke="midnightblue" points="157.7,-245.67 167.23,-241.04 156.89,-238.72 157.7,-245.67"/>
</g>
<!-- Node4 -->
<g id="node4" class="node">
<title>Node4</title>
<g id="a_node4"><a xlink:href="classActionManagerTimer.html#a77bc841824ad1722363dd29a351a74cf" target="_top" xlink:title="Arrete un timer posix specifique. Permet d&#39;executer son action de fin puis le supprime de la liste.">
<polygon fill="white" stroke="black" points="331,-219.5 331,-249.5 450,-249.5 450,-219.5 331,-219.5"/>
<text text-anchor="start" x="339" y="-237.5" font-family="Helvetica,sans-Serif" font-size="10.00">ActionManagerTimer</text>
<text text-anchor="middle" x="390.5" y="-226.5" font-family="Helvetica,sans-Serif" font-size="10.00">::stopPTimer</text>
</a>
</g>
</g>
<!-- Node3&#45;&gt;Node4 -->
<g id="edge3" class="edge">
<title>Node3&#45;&gt;Node4</title>
<path fill="none" stroke="midnightblue" d="M281.94,-234.5C294.37,-234.5 307.67,-234.5 320.53,-234.5"/>
<polygon fill="midnightblue" stroke="midnightblue" points="320.72,-238 330.72,-234.5 320.72,-231 320.72,-238"/>
</g>
<!-- Node5 -->
<g id="node5" class="node">
<title>Node5</title>
<g id="a_node5"><a xlink:href="classutils_1_1PointerList.html#a501664b90309db885554d35e89739681" target="_top" xlink:title="Returns a read/write iterator that points to the first element in the list. Iteration is done in ordi...">
<polygon fill="white" stroke="black" points="498,-465.5 498,-495.5 593,-495.5 593,-465.5 498,-465.5"/>
<text text-anchor="start" x="506" y="-483.5" font-family="Helvetica,sans-Serif" font-size="10.00">utils::PointerList</text>
<text text-anchor="middle" x="545.5" y="-472.5" font-family="Helvetica,sans-Serif" font-size="10.00">::begin</text>
</a>
</g>
</g>
<!-- Node4&#45;&gt;Node5 -->
<g id="edge4" class="edge">
<title>Node4&#45;&gt;Node5</title>
<path fill="none" stroke="midnightblue" d="M393.95,-249.54C401.06,-288.66 425.21,-394.72 486,-455.5 487.44,-456.93 488.97,-458.29 490.57,-459.58"/>
<polygon fill="midnightblue" stroke="midnightblue" points="488.88,-462.66 499.12,-465.4 492.83,-456.88 488.88,-462.66"/>
</g>
<!-- Node6 -->
<g id="node6" class="node">
<title>Node6</title>
<g id="a_node6"><a xlink:href="classutils_1_1PointerList.html#a9607cdd93b715a838e015452a49f61d5" target="_top" xlink:title="Returns a read/write iterator that points one past the last element in the list. Iteration is done in...">
<polygon fill="white" stroke="black" points="486,-427 486,-446 605,-446 605,-427 486,-427"/>
<text text-anchor="middle" x="545.5" y="-434" font-family="Helvetica,sans-Serif" font-size="10.00">utils::PointerList::end</text>
</a>
</g>
</g>
<!-- Node4&#45;&gt;Node6 -->
<g id="edge5" class="edge">
<title>Node4&#45;&gt;Node6</title>
<path fill="none" stroke="midnightblue" d="M395.64,-249.58C405.63,-283.3 434.14,-365.52 486,-412.5 490.38,-416.47 495.5,-419.82 500.86,-422.66"/>
<polygon fill="midnightblue" stroke="midnightblue" points="499.48,-425.87 510.02,-426.94 502.44,-419.53 499.48,-425.87"/>
</g>
<!-- Node7 -->
<g id="node7" class="node">
<title>Node7</title>
<g id="a_node7"><a xlink:href="namespacelogs.html#ac6f325c6cfe6189bc8e243daa184453b" target="_top" xlink:title="Cette méthode permet de finir les flux de construction par la notation.">
<polygon fill="white" stroke="black" points="670,-225 670,-244 731,-244 731,-225 670,-225"/>
<text text-anchor="middle" x="700.5" y="-232" font-family="Helvetica,sans-Serif" font-size="10.00">logs::end</text>
</a>
</g>
</g>
<!-- Node4&#45;&gt;Node7 -->
<g id="edge6" class="edge">
<title>Node4&#45;&gt;Node7</title>
<path fill="none" stroke="midnightblue" d="M450.16,-234.5C511.68,-234.5 606.68,-234.5 659.89,-234.5"/>
<polygon fill="midnightblue" stroke="midnightblue" points="659.96,-238 669.96,-234.5 659.96,-231 659.96,-238"/>
</g>
<!-- Node9 -->
<g id="node9" class="node">
<title>Node9</title>
<g id="a_node9"><a xlink:href="classutils_1_1Mutex.html#aa584b418a5ef484f76b93e361a1d7e32" target="_top" xlink:title="Verrouille le mutex. Cette méthode doit être appelée avant d&#39;utiliser la ressource associée....">
<polygon fill="white" stroke="black" points="1024.5,-329 1024.5,-348 1125.5,-348 1125.5,-329 1024.5,-329"/>
<text text-anchor="middle" x="1075" y="-336" font-family="Helvetica,sans-Serif" font-size="10.00">utils::Mutex::lock</text>
</a>
</g>
</g>
<!-- Node4&#45;&gt;Node9 -->
<g id="edge11" class="edge">
<title>Node4&#45;&gt;Node9</title>
<path fill="none" stroke="midnightblue" d="M404.87,-249.64C421.81,-267.77 452.84,-297.55 486,-312.5 680.7,-400.24 751.58,-383.47 964,-361.5 985.15,-359.31 1008.24,-354.82 1027.77,-350.38"/>
<polygon fill="midnightblue" stroke="midnightblue" points="1028.69,-353.76 1037.63,-348.07 1027.1,-346.94 1028.69,-353.76"/>
</g>
<!-- Node10 -->
<g id="node10" class="node">
<title>Node10</title>
<g id="a_node10"><a xlink:href="classutils_1_1Mutex.html#a59b2079dc7f803d49f78ac9c04406cd3" target="_top" xlink:title="Déverrouille le mutex. Cette méthode doit être appelée après avoir utiliser la ressource associée.">
<polygon fill="white" stroke="black" points="1018.5,-244 1018.5,-263 1131.5,-263 1131.5,-244 1018.5,-244"/>
<text text-anchor="middle" x="1075" y="-251" font-family="Helvetica,sans-Serif" font-size="10.00">utils::Mutex::unlock</text>
</a>
</g>
</g>
<!-- Node4&#45;&gt;Node10 -->
<g id="edge29" class="edge">
<title>Node4&#45;&gt;Node10</title>
<path fill="none" stroke="midnightblue" d="M450.1,-244.25C461.96,-245.92 474.35,-247.45 486,-248.5 674.87,-265.48 899.24,-260.45 1008.15,-256.41"/>
<polygon fill="midnightblue" stroke="midnightblue" points="1008.46,-259.9 1018.32,-256.03 1008.19,-252.91 1008.46,-259.9"/>
</g>
<!-- Node12 -->
<g id="node12" class="node">
<title>Node12</title>
<g id="a_node12"><a xlink:href="classActionManagerTimer.html#a280846361e5c7e0ebe57972755841c2b" target="_top" xlink:title=" ">
<polygon fill="white" stroke="black" points="641,-61.5 641,-91.5 760,-91.5 760,-61.5 641,-61.5"/>
<text text-anchor="start" x="649" y="-79.5" font-family="Helvetica,sans-Serif" font-size="10.00">ActionManagerTimer</text>
<text text-anchor="middle" x="700.5" y="-68.5" font-family="Helvetica,sans-Serif" font-size="10.00">::logger</text>
</a>
</g>
</g>
<!-- Node4&#45;&gt;Node12 -->
<g id="edge12" class="edge">
<title>Node4&#45;&gt;Node12</title>
<path fill="none" stroke="midnightblue" d="M400.73,-219.22C415.65,-195.91 447.32,-151.73 486,-128.5 510.27,-113.92 578.17,-98.77 630.95,-88.61"/>
<polygon fill="midnightblue" stroke="midnightblue" points="631.78,-92.01 640.95,-86.71 630.47,-85.13 631.78,-92.01"/>
</g>
<!-- Node17 -->
<g id="node17" class="node">
<title>Node17</title>
<g id="a_node17"><a xlink:href="classITimerPosixListener.html#a56abc90e01e315320b855399b2c0096e" target="_top" xlink:title="Getter sur les infos permettant d&#39;identifier le timer.">
<polygon fill="white" stroke="black" points="489,-49.5 489,-79.5 602,-79.5 602,-49.5 489,-49.5"/>
<text text-anchor="start" x="497" y="-67.5" font-family="Helvetica,sans-Serif" font-size="10.00">ITimerPosixListener</text>
<text text-anchor="middle" x="545.5" y="-56.5" font-family="Helvetica,sans-Serif" font-size="10.00">::name</text>
</a>
</g>
</g>
<!-- Node4&#45;&gt;Node17 -->
<g id="edge17" class="edge">
<title>Node4&#45;&gt;Node17</title>
<path fill="none" stroke="midnightblue" d="M398.58,-219.19C412.12,-191.3 444.09,-131.66 486,-94.5 490.06,-90.9 494.62,-87.61 499.37,-84.63"/>
<polygon fill="midnightblue" stroke="midnightblue" points="501.14,-87.65 508.03,-79.6 497.63,-81.59 501.14,-87.65"/>
</g>
<!-- Node18 -->
<g id="node18" class="node">
<title>Node18</title>
<g id="a_node18"><a xlink:href="classITimerPosixListener.html#a4df70962b58b13d521f1f7f91ec6fc13" target="_top" xlink:title="Actions de fin à executer pour le timer.">
<polygon fill="white" stroke="black" points="489,-0.5 489,-30.5 602,-30.5 602,-0.5 489,-0.5"/>
<text text-anchor="start" x="497" y="-18.5" font-family="Helvetica,sans-Serif" font-size="10.00">ITimerPosixListener</text>
<text text-anchor="middle" x="545.5" y="-7.5" font-family="Helvetica,sans-Serif" font-size="10.00">::onTimerEnd</text>
</a>
</g>
</g>
<!-- Node4&#45;&gt;Node18 -->
<g id="edge18" class="edge">
<title>Node4&#45;&gt;Node18</title>
<path fill="none" stroke="midnightblue" d="M394.88,-219.35C403.67,-183.32 430.49,-91.67 486,-39.5 487.12,-38.44 488.3,-37.43 489.52,-36.46"/>
<polygon fill="midnightblue" stroke="midnightblue" points="491.8,-39.14 498.12,-30.64 487.88,-33.34 491.8,-39.14"/>
</g>
<!-- Node19 -->
<g id="node19" class="node">
<title>Node19</title>
<g id="a_node19"><a xlink:href="classITimerPosixListener.html#a80bdf978eda3cfa0d9271a3c2e1d3f3a" target="_top" xlink:title=" ">
<polygon fill="white" stroke="black" points="823.5,-301.5 823.5,-331.5 936.5,-331.5 936.5,-301.5 823.5,-301.5"/>
<text text-anchor="start" x="831.5" y="-319.5" font-family="Helvetica,sans-Serif" font-size="10.00">ITimerPosixListener</text>
<text text-anchor="middle" x="880" y="-308.5" font-family="Helvetica,sans-Serif" font-size="10.00">::remove</text>
</a>
</g>
</g>
<!-- Node4&#45;&gt;Node19 -->
<g id="edge19" class="edge">
<title>Node4&#45;&gt;Node19</title>
<path fill="none" stroke="midnightblue" d="M412.84,-249.74C431.26,-262 459.08,-278.48 486,-286.5 597.24,-319.65 733.62,-322.04 812.97,-319.88"/>
<polygon fill="midnightblue" stroke="midnightblue" points="813.42,-323.37 823.31,-319.56 813.21,-316.37 813.42,-323.37"/>
</g>
<!-- Node20 -->
<g id="node20" class="node">
<title>Node20</title>
<g id="a_node20"><a xlink:href="classActionManagerTimer.html#a39f4cbb5ddbbe6a40980bb59b8b59b05" target="_top" xlink:title=" ">
<polygon fill="white" stroke="black" points="486,-175.5 486,-205.5 605,-205.5 605,-175.5 486,-175.5"/>
<text text-anchor="start" x="494" y="-193.5" font-family="Helvetica,sans-Serif" font-size="10.00">ActionManagerTimer</text>
<text text-anchor="middle" x="545.5" y="-182.5" font-family="Helvetica,sans-Serif" font-size="10.00">::unblock</text>
</a>
</g>
</g>
<!-- Node4&#45;&gt;Node20 -->
<g id="edge22" class="edge">
<title>Node4&#45;&gt;Node20</title>
<path fill="none" stroke="midnightblue" d="M443.73,-219.48C456.21,-215.89 469.66,-212.02 482.54,-208.32"/>
<polygon fill="midnightblue" stroke="midnightblue" points="483.61,-211.65 492.25,-205.53 481.67,-204.93 483.61,-211.65"/>
</g>
<!-- Node22 -->
<g id="node22" class="node">
<title>Node22</title>
<g id="a_node22"><a xlink:href="classlogs_1_1Logger.html#a240e8d7b58195c85bd7b4e4a3417d955" target="_top" xlink:title="Trace un message de niveau WARN.">
<polygon fill="white" stroke="black" points="647.5,-111 647.5,-130 753.5,-130 753.5,-111 647.5,-111"/>
<text text-anchor="middle" x="700.5" y="-118" font-family="Helvetica,sans-Serif" font-size="10.00">logs::Logger::warn</text>
</a>
</g>
</g>
<!-- Node4&#45;&gt;Node22 -->
<g id="edge30" class="edge">
<title>Node4&#45;&gt;Node22</title>
<path fill="none" stroke="midnightblue" d="M407.55,-219.42C425.35,-203.56 455.57,-179.06 486,-165.5 534.31,-143.97 593.43,-132.54 637.2,-126.6"/>
<polygon fill="midnightblue" stroke="midnightblue" points="637.67,-130.07 647.14,-125.31 636.77,-123.12 637.67,-130.07"/>
</g>
<!-- Node8 -->
<g id="node8" class="node">
<title>Node8</title>
<g id="a_node8"><a xlink:href="classlogs_1_1Logger_1_1LoggerBuffer.html#a0e4fd77693fd899ec1b0670354f93a02" target="_top" xlink:title="Cette méthode valide le message en cours de construction et le transmet au Logger de référence.">
<polygon fill="white" stroke="black" points="796,-225 796,-244 964,-244 964,-225 796,-225"/>
<text text-anchor="middle" x="880" y="-232" font-family="Helvetica,sans-Serif" font-size="10.00">logs::Logger::LoggerBuffer::end</text>
</a>
</g>
</g>
<!-- Node7&#45;&gt;Node8 -->
<g id="edge7" class="edge">
<title>Node7&#45;&gt;Node8</title>
<path fill="none" stroke="midnightblue" d="M731.21,-234.5C746.49,-234.5 766.05,-234.5 785.89,-234.5"/>
<polygon fill="midnightblue" stroke="midnightblue" points="785.96,-238 795.96,-234.5 785.96,-231 785.96,-238"/>
</g>
<!-- Node8&#45;&gt;Node9 -->
<g id="edge8" class="edge">
<title>Node8&#45;&gt;Node9</title>
<path fill="none" stroke="midnightblue" d="M898.81,-244.1C932.85,-262.44 1007.3,-302.56 1047.31,-324.12"/>
<polygon fill="midnightblue" stroke="midnightblue" points="1045.77,-327.26 1056.23,-328.93 1049.09,-321.1 1045.77,-327.26"/>
</g>
<!-- Node8&#45;&gt;Node10 -->
<g id="edge9" class="edge">
<title>Node8&#45;&gt;Node10</title>
<path fill="none" stroke="midnightblue" d="M964.25,-242.7C978.94,-244.14 994.06,-245.63 1008.19,-247.02"/>
<polygon fill="midnightblue" stroke="midnightblue" points="1007.99,-250.52 1018.29,-248.02 1008.68,-243.55 1007.99,-250.52"/>
</g>
<!-- Node11 -->
<g id="node11" class="node">
<title>Node11</title>
<g id="a_node11"><a xlink:href="classlogs_1_1Logger.html#afa535aaf4891e02c4ff7f84d372b5b1b" target="_top" xlink:title="Méthode générique de trace d&#39;un message.">
<polygon fill="white" stroke="black" points="1000,-152 1000,-171 1150,-171 1150,-152 1000,-152"/>
<text text-anchor="middle" x="1075" y="-159" font-family="Helvetica,sans-Serif" font-size="10.00">logs::Logger::writeMessage</text>
</a>
</g>
</g>
<!-- Node8&#45;&gt;Node11 -->
<g id="edge10" class="edge">
<title>Node8&#45;&gt;Node11</title>
<path fill="none" stroke="midnightblue" d="M906.23,-224.96C940.19,-212.11 1000.74,-189.21 1039.06,-174.72"/>
<polygon fill="midnightblue" stroke="midnightblue" points="1040.65,-177.86 1048.76,-171.05 1038.17,-171.31 1040.65,-177.86"/>
</g>
<!-- Node13 -->
<g id="node13" class="node">
<title>Node13</title>
<g id="a_node13"><a xlink:href="classlogs_1_1LoggerFactory.html#a82585b5de73e471e06cafdccc3b3721e" target="_top" xlink:title="Cette méthode statique retourne un Logger en fonction de son nom.">
<polygon fill="white" stroke="black" points="824.5,-58.5 824.5,-88.5 935.5,-88.5 935.5,-58.5 824.5,-58.5"/>
<text text-anchor="start" x="832.5" y="-76.5" font-family="Helvetica,sans-Serif" font-size="10.00">logs::LoggerFactory</text>
<text text-anchor="middle" x="880" y="-65.5" font-family="Helvetica,sans-Serif" font-size="10.00">::logger</text>
</a>
</g>
</g>
<!-- Node12&#45;&gt;Node13 -->
<g id="edge13" class="edge">
<title>Node12&#45;&gt;Node13</title>
<path fill="none" stroke="midnightblue" d="M760.11,-75.51C777.42,-75.22 796.46,-74.9 814.13,-74.6"/>
<polygon fill="midnightblue" stroke="midnightblue" points="814.42,-78.09 824.36,-74.42 814.3,-71.09 814.42,-78.09"/>
</g>
<!-- Node14 -->
<g id="node14" class="node">
<title>Node14</title>
<g id="a_node14"><a xlink:href="classlogs_1_1LoggerFactory.html#ac89f19c0ffd71aa8cdc1c2d44c03809e" target="_top" xlink:title="Cette méthode ajoute un appender au système.">
<polygon fill="white" stroke="black" points="1008,-15 1008,-34 1142,-34 1142,-15 1008,-15"/>
<text text-anchor="middle" x="1075" y="-22" font-family="Helvetica,sans-Serif" font-size="10.00">logs::LoggerFactory::add</text>
</a>
</g>
</g>
<!-- Node13&#45;&gt;Node14 -->
<g id="edge14" class="edge">
<title>Node13&#45;&gt;Node14</title>
<path fill="none" stroke="midnightblue" d="M935.53,-59.66C964.22,-52.37 999.06,-43.53 1026.62,-36.53"/>
<polygon fill="midnightblue" stroke="midnightblue" points="1027.58,-39.9 1036.41,-34.04 1025.86,-33.11 1027.58,-39.9"/>
</g>
<!-- Node15 -->
<g id="node15" class="node">
<title>Node15</title>
<g id="a_node15"><a xlink:href="classlogs_1_1LoggerFactory.html#a90478b91d7af2ef8841ded21e3521f69" target="_top" xlink:title="Cette méthode statique retourne l&#39;instance unique de la classe LoggerFactory.">
<polygon fill="white" stroke="black" points="1019.5,-102.5 1019.5,-132.5 1130.5,-132.5 1130.5,-102.5 1019.5,-102.5"/>
<text text-anchor="start" x="1027.5" y="-120.5" font-family="Helvetica,sans-Serif" font-size="10.00">logs::LoggerFactory</text>
<text text-anchor="middle" x="1075" y="-109.5" font-family="Helvetica,sans-Serif" font-size="10.00">::instance</text>
</a>
</g>
</g>
<!-- Node13&#45;&gt;Node15 -->
<g id="edge15" class="edge">
<title>Node13&#45;&gt;Node15</title>
<path fill="none" stroke="midnightblue" d="M935.53,-85.93C958.45,-91.16 985.3,-97.28 1009.22,-102.73"/>
<polygon fill="midnightblue" stroke="midnightblue" points="1008.74,-106.21 1019.27,-105.02 1010.3,-99.39 1008.74,-106.21"/>
</g>
<!-- Node16 -->
<g id="node16" class="node">
<title>Node16</title>
<g id="a_node16"><a xlink:href="classlogs_1_1LoggerFactory.html#a212aa623f4b6bee12cb39e8017dde670" target="_top" xlink:title="Cette méthode retourne le Logger principal qui définit le niveau de trace par défaut.">
<polygon fill="white" stroke="black" points="1019.5,-53.5 1019.5,-83.5 1130.5,-83.5 1130.5,-53.5 1019.5,-53.5"/>
<text text-anchor="start" x="1027.5" y="-71.5" font-family="Helvetica,sans-Serif" font-size="10.00">logs::LoggerFactory</text>
<text text-anchor="middle" x="1075" y="-60.5" font-family="Helvetica,sans-Serif" font-size="10.00">::rootLogger</text>
</a>
</g>
</g>
<!-- Node13&#45;&gt;Node16 -->
<g id="edge16" class="edge">
<title>Node13&#45;&gt;Node16</title>
<path fill="none" stroke="midnightblue" d="M935.53,-72.09C958.45,-71.49 985.3,-70.8 1009.22,-70.18"/>
<polygon fill="midnightblue" stroke="midnightblue" points="1009.36,-73.68 1019.27,-69.92 1009.18,-66.68 1009.36,-73.68"/>
</g>
<!-- Node19&#45;&gt;Node9 -->
<g id="edge20" class="edge">
<title>Node19&#45;&gt;Node9</title>
<path fill="none" stroke="midnightblue" d="M936.56,-322.83C960.94,-325.61 989.58,-328.88 1014.4,-331.71"/>
<polygon fill="midnightblue" stroke="midnightblue" points="1014.08,-335.19 1024.41,-332.85 1014.87,-328.24 1014.08,-335.19"/>
</g>
<!-- Node19&#45;&gt;Node10 -->
<g id="edge21" class="edge">
<title>Node19&#45;&gt;Node10</title>
<path fill="none" stroke="midnightblue" d="M927.23,-301.41C960.13,-290.67 1003.86,-276.4 1035,-266.23"/>
<polygon fill="midnightblue" stroke="midnightblue" points="1036.22,-269.51 1044.64,-263.08 1034.05,-262.86 1036.22,-269.51"/>
</g>
<!-- Node20&#45;&gt;Node7 -->
<g id="edge23" class="edge">
<title>Node20&#45;&gt;Node7</title>
<path fill="none" stroke="midnightblue" d="M598.73,-205.52C618.83,-211.3 641.43,-217.8 660.13,-223.18"/>
<polygon fill="midnightblue" stroke="midnightblue" points="659.22,-226.56 669.79,-225.96 661.15,-219.83 659.22,-226.56"/>
</g>
<!-- Node20&#45;&gt;Node9 -->
<g id="edge26" class="edge">
<title>Node20&#45;&gt;Node9</title>
<path fill="none" stroke="midnightblue" d="M563.32,-205.55C601.37,-238.41 698.34,-315.71 796,-341.5 869.3,-360.86 957.3,-355.33 1014.38,-348.17"/>
<polygon fill="midnightblue" stroke="midnightblue" points="1014.85,-351.64 1024.31,-346.87 1013.94,-344.7 1014.85,-351.64"/>
</g>
<!-- Node20&#45;&gt;Node10 -->
<g id="edge28" class="edge">
<title>Node20&#45;&gt;Node10</title>
<path fill="none" stroke="midnightblue" d="M605.22,-189.01C686.62,-188.08 837.94,-190.44 964,-215.5 991.32,-220.93 1021.12,-231.54 1042.81,-240.16"/>
<polygon fill="midnightblue" stroke="midnightblue" points="1041.58,-243.44 1052.16,-243.96 1044.21,-236.96 1041.58,-243.44"/>
</g>
<!-- Node20&#45;&gt;Node12 -->
<g id="edge27" class="edge">
<title>Node20&#45;&gt;Node12</title>
<path fill="none" stroke="midnightblue" d="M559.57,-175.23C576.69,-155.99 608.38,-122.86 641,-101.5 643.77,-99.69 646.7,-97.95 649.7,-96.31"/>
<polygon fill="midnightblue" stroke="midnightblue" points="651.56,-99.29 658.88,-91.64 648.38,-93.05 651.56,-99.29"/>
</g>
<!-- Node21 -->
<g id="node21" class="node">
<title>Node21</title>
<g id="a_node21"><a xlink:href="classlogs_1_1Logger.html#a8b6a2019233bc44b3c3c86c653910831" target="_top" xlink:title="Trace un message de niveau ERROR.">
<polygon fill="white" stroke="black" points="827.5,-149 827.5,-168 932.5,-168 932.5,-149 827.5,-149"/>
<text text-anchor="middle" x="880" y="-156" font-family="Helvetica,sans-Serif" font-size="10.00">logs::Logger::error</text>
</a>
</g>
</g>
<!-- Node20&#45;&gt;Node21 -->
<g id="edge24" class="edge">
<title>Node20&#45;&gt;Node21</title>
<path fill="none" stroke="midnightblue" d="M605.18,-184.85C664.75,-179.12 756.61,-170.28 817.25,-164.44"/>
<polygon fill="midnightblue" stroke="midnightblue" points="817.84,-167.9 827.45,-163.46 817.17,-160.93 817.84,-167.9"/>
</g>
<!-- Node21&#45;&gt;Node11 -->
<g id="edge25" class="edge">
<title>Node21&#45;&gt;Node11</title>
<path fill="none" stroke="midnightblue" d="M932.72,-159.3C950.22,-159.58 970.23,-159.89 989.59,-160.19"/>
<polygon fill="midnightblue" stroke="midnightblue" points="989.59,-163.69 999.64,-160.34 989.7,-156.69 989.59,-163.69"/>
</g>
<!-- Node22&#45;&gt;Node11 -->
<g id="edge31" class="edge">
<title>Node22&#45;&gt;Node11</title>
<path fill="none" stroke="midnightblue" d="M753.99,-122.37C807.13,-124.71 891.56,-129.67 964,-139.5 983.3,-142.12 1004.3,-146.05 1022.73,-149.86"/>
<polygon fill="midnightblue" stroke="midnightblue" points="1022.17,-153.32 1032.68,-151.96 1023.62,-146.47 1022.17,-153.32"/>
</g>
</g>
</svg>
