<?xml version="1.0" encoding="UTF-8" standalone="no"?>
<!DOCTYPE svg PUBLIC "-//W3C//DTD SVG 1.1//EN"
 "http://www.w3.org/Graphics/SVG/1.1/DTD/svg11.dtd">
<!-- Generated by graphviz version 2.43.0 (0)
 -->
<!-- Title: DynamixelDriver::logger Pages: 1 -->
<svg width="344pt" height="306pt"
 viewBox="0.00 0.00 344.00 305.50" xmlns="http://www.w3.org/2000/svg" xmlns:xlink="http://www.w3.org/1999/xlink">
<g id="graph0" class="graph" transform="scale(1 1) rotate(0) translate(4 301.5)">
<title>DynamixelDriver::logger</title>
<polygon fill="white" stroke="transparent" points="-4,4 -4,-301.5 340,-301.5 340,4 -4,4"/>
<!-- Node1 -->
<g id="node1" class="node">
<title>Node1</title>
<g id="a_node1"><a xlink:title="Retourne le Logger associé à la classe DynamixelDriver(OPOS6UL).">
<polygon fill="#bfbfbf" stroke="black" points="200,-133.5 200,-152.5 336,-152.5 336,-133.5 200,-133.5"/>
<text text-anchor="middle" x="268" y="-140.5" font-family="Helvetica,sans-Serif" font-size="10.00">DynamixelDriver::logger</text>
</a>
</g>
</g>
<!-- Node2 -->
<g id="node2" class="node">
<title>Node2</title>
<g id="a_node2"><a xlink:href="classDynamixelDriver.html#a6652b8534770759128aa2e77ddf4faa8" target="_top" xlink:title="Constructor.">
<polygon fill="white" stroke="black" points="3,-267 3,-297 161,-297 161,-267 3,-267"/>
<text text-anchor="start" x="11" y="-285" font-family="Helvetica,sans-Serif" font-size="10.00">DynamixelDriver::Dynamixel</text>
<text text-anchor="middle" x="82" y="-274" font-family="Helvetica,sans-Serif" font-size="10.00">Driver</text>
</a>
</g>
</g>
<!-- Node1&#45;&gt;Node2 -->
<g id="edge1" class="edge">
<title>Node1&#45;&gt;Node2</title>
<path fill="none" stroke="midnightblue" d="M255.36,-161.09C238.28,-186.21 204.08,-231.44 164,-257 158.04,-260.8 151.47,-264.05 144.73,-266.83"/>
<polygon fill="midnightblue" stroke="midnightblue" points="258.42,-162.8 261.04,-152.53 252.59,-158.93 258.42,-162.8"/>
</g>
<!-- Node3 -->
<g id="node3" class="node">
<title>Node3</title>
<g id="a_node3"><a xlink:href="classDynamixelDriver.html#a142a774bb716628483fa010727b84cdb" target="_top" xlink:title="Verifie si le servo est en mouvement.">
<polygon fill="white" stroke="black" points="3.5,-228.5 3.5,-247.5 160.5,-247.5 160.5,-228.5 3.5,-228.5"/>
<text text-anchor="middle" x="82" y="-235.5" font-family="Helvetica,sans-Serif" font-size="10.00">DynamixelDriver::getMoving</text>
</a>
</g>
</g>
<!-- Node1&#45;&gt;Node3 -->
<g id="edge2" class="edge">
<title>Node1&#45;&gt;Node3</title>
<path fill="none" stroke="midnightblue" d="M249.65,-159.31C230.25,-176.65 197.18,-203.66 164,-219 155.74,-222.82 146.64,-225.91 137.61,-228.4"/>
<polygon fill="midnightblue" stroke="midnightblue" points="252.05,-161.85 257.09,-152.53 247.34,-156.68 252.05,-161.85"/>
</g>
<!-- Node4 -->
<g id="node4" class="node">
<title>Node4</title>
<g id="a_node4"><a xlink:href="classDynamixelDriver.html#a3f431b5c398e201834c7b018a726a7c3" target="_top" xlink:title="Lit le couple courant du servo.">
<polygon fill="white" stroke="black" points="5.5,-190.5 5.5,-209.5 158.5,-209.5 158.5,-190.5 5.5,-190.5"/>
<text text-anchor="middle" x="82" y="-197.5" font-family="Helvetica,sans-Serif" font-size="10.00">DynamixelDriver::getTorque</text>
</a>
</g>
</g>
<!-- Node1&#45;&gt;Node4 -->
<g id="edge3" class="edge">
<title>Node1&#45;&gt;Node4</title>
<path fill="none" stroke="midnightblue" d="M234.24,-156.26C214.17,-164.09 187.84,-173.83 164,-181 152.52,-184.45 139.97,-187.66 128.25,-190.42"/>
<polygon fill="midnightblue" stroke="midnightblue" points="235.53,-159.51 243.55,-152.59 232.97,-153 235.53,-159.51"/>
</g>
<!-- Node5 -->
<g id="node5" class="node">
<title>Node5</title>
<g id="a_node5"><a xlink:href="classDynamixelDriver.html#a158a5d3216643efd306c036eac270752" target="_top" xlink:title="Maintient la position courante du servo (active le couple).">
<polygon fill="white" stroke="black" points="19,-152.5 19,-171.5 145,-171.5 145,-152.5 19,-152.5"/>
<text text-anchor="middle" x="82" y="-159.5" font-family="Helvetica,sans-Serif" font-size="10.00">DynamixelDriver::hold</text>
</a>
</g>
</g>
<!-- Node1&#45;&gt;Node5 -->
<g id="edge4" class="edge">
<title>Node1&#45;&gt;Node5</title>
<path fill="none" stroke="midnightblue" d="M189.62,-150.99C174.78,-152.52 159.42,-154.11 145.14,-155.58"/>
<polygon fill="midnightblue" stroke="midnightblue" points="190.2,-154.45 199.79,-149.94 189.48,-147.49 190.2,-154.45"/>
</g>
<!-- Node6 -->
<g id="node6" class="node">
<title>Node6</title>
<g id="a_node6"><a xlink:href="classDynamixelDriver.html#a16fc2b6f82b30c98bab3d64079f16360" target="_top" xlink:title="Relache le servo (desactive le couple).">
<polygon fill="white" stroke="black" points="11.5,-114.5 11.5,-133.5 152.5,-133.5 152.5,-114.5 11.5,-114.5"/>
<text text-anchor="middle" x="82" y="-121.5" font-family="Helvetica,sans-Serif" font-size="10.00">DynamixelDriver::release</text>
</a>
</g>
</g>
<!-- Node1&#45;&gt;Node6 -->
<g id="edge5" class="edge">
<title>Node1&#45;&gt;Node6</title>
<path fill="none" stroke="midnightblue" d="M189.63,-135.01C177.41,-133.75 164.84,-132.45 152.81,-131.21"/>
<polygon fill="midnightblue" stroke="midnightblue" points="189.48,-138.51 199.79,-136.06 190.2,-131.55 189.48,-138.51"/>
</g>
<!-- Node7 -->
<g id="node7" class="node">
<title>Node7</title>
<g id="a_node7"><a xlink:href="classDynamixelDriver.html#ab9d0e9a3d8ef54d7bd1fee238bfb5278" target="_top" xlink:title=" ">
<polygon fill="white" stroke="black" points="0,-76.5 0,-95.5 164,-95.5 164,-76.5 0,-76.5"/>
<text text-anchor="middle" x="82" y="-83.5" font-family="Helvetica,sans-Serif" font-size="10.00">DynamixelDriver::setPulsePos</text>
</a>
</g>
</g>
<!-- Node1&#45;&gt;Node7 -->
<g id="edge6" class="edge">
<title>Node1&#45;&gt;Node7</title>
<path fill="none" stroke="midnightblue" d="M234.24,-129.74C214.17,-121.91 187.84,-112.17 164,-105 152.52,-101.55 139.97,-98.34 128.25,-95.58"/>
<polygon fill="midnightblue" stroke="midnightblue" points="232.97,-133 243.55,-133.41 235.53,-126.49 232.97,-133"/>
</g>
<!-- Node8 -->
<g id="node8" class="node">
<title>Node8</title>
<g id="a_node8"><a xlink:href="classDynamixelDriver.html#a71ddbc9a7a468231b5334e95e9bd1eb3" target="_top" xlink:title=" ">
<polygon fill="white" stroke="black" points="10.5,-38.5 10.5,-57.5 153.5,-57.5 153.5,-38.5 10.5,-38.5"/>
<text text-anchor="middle" x="82" y="-45.5" font-family="Helvetica,sans-Serif" font-size="10.00">DynamixelDriver::setRate</text>
</a>
</g>
</g>
<!-- Node1&#45;&gt;Node8 -->
<g id="edge7" class="edge">
<title>Node1&#45;&gt;Node8</title>
<path fill="none" stroke="midnightblue" d="M249.65,-126.69C230.25,-109.35 197.18,-82.34 164,-67 155.74,-63.18 146.64,-60.09 137.61,-57.6"/>
<polygon fill="midnightblue" stroke="midnightblue" points="247.34,-129.32 257.09,-133.47 252.05,-124.15 247.34,-129.32"/>
</g>
<!-- Node9 -->
<g id="node9" class="node">
<title>Node9</title>
<g id="a_node9"><a xlink:href="classDynamixelDriver.html#a0dd50e159c075dc8e09a297501a5e23d" target="_top" xlink:title="Fait tourner le servo en mode moteur continu.">
<polygon fill="white" stroke="black" points="19.5,-0.5 19.5,-19.5 144.5,-19.5 144.5,-0.5 19.5,-0.5"/>
<text text-anchor="middle" x="82" y="-7.5" font-family="Helvetica,sans-Serif" font-size="10.00">DynamixelDriver::turn</text>
</a>
</g>
</g>
<!-- Node1&#45;&gt;Node9 -->
<g id="edge8" class="edge">
<title>Node1&#45;&gt;Node9</title>
<path fill="none" stroke="midnightblue" d="M255.59,-124.52C238.8,-98.94 204.94,-53.17 164,-29 157.41,-25.11 150.07,-22.01 142.59,-19.55"/>
<polygon fill="midnightblue" stroke="midnightblue" points="252.84,-126.71 261.17,-133.25 258.74,-122.94 252.84,-126.71"/>
</g>
</g>
</svg>
