<?xml version="1.0" encoding="UTF-8" standalone="no"?>
<!DOCTYPE svg PUBLIC "-//W3C//DTD SVG 1.1//EN"
 "http://www.w3.org/Graphics/SVG/1.1/DTD/svg11.dtd">
<!-- Generated by graphviz version 2.43.0 (0)
 -->
<!-- Title: ConsignController::perform_On Pages: 1 -->
<!--zoomable 374 -->
<svg id="main" version="1.1" xmlns="http://www.w3.org/2000/svg" xmlns:xlink="http://www.w3.org/1999/xlink" xml:space="preserve" onload="init(evt)">
<style type="text/css"><![CDATA[
.edge:hover path { stroke: red; }
.edge:hover polygon { stroke: red; fill: red; }
]]></style>
<script type="text/javascript"><![CDATA[
var edges = document.getElementsByTagName('g');
if (edges && edges.length) {
  for (var i=0;i<edges.length;i++) {
    if (edges[i].id.substr(0,4)=='edge') {
      edges[i].setAttribute('class','edge');
    }
  }
}
]]></script>
        <defs>
                <circle id="rim" cx="0" cy="0" r="7"/>
                <circle id="rim2" cx="0" cy="0" r="3.5"/>
                <g id="zoomPlus">
                        <use xlink:href="#rim" fill="#404040">
                                <set attributeName="fill" to="#808080" begin="zoomplus.mouseover" end="zoomplus.mouseout"/>
                        </use>
                        <path d="M-4,0h8M0,-4v8" fill="none" stroke="white" stroke-width="1.5" pointer-events="none"/>
                </g>
                <g id="zoomMin">
                        <use xlink:href="#rim" fill="#404040">
                                <set attributeName="fill" to="#808080" begin="zoomminus.mouseover" end="zoomminus.mouseout"/>
                        </use>
                        <path d="M-4,0h8" fill="none" stroke="white" stroke-width="1.5" pointer-events="none"/>
                </g>
                <g id="dirArrow">
                        <path fill="none" stroke="white" stroke-width="1.5" d="M0,-3.0v7 M-2.5,-0.5L0,-3.0L2.5,-0.5"/>
                </g>
               <g id="resetDef">
                       <use xlink:href="#rim2" fill="#404040">
                               <set attributeName="fill" to="#808080" begin="reset.mouseover" end="reset.mouseout"/>
                       </use>
               </g>
        </defs>

<script type="text/javascript">
var viewWidth = 827;
var viewHeight = 374;
var sectionId = 'dynsection-14';
</script>
<script xlink:href="svgpan.js"/>
<svg id="graph" class="graph">
<g id="viewport">
<title>ConsignController::perform_On</title>
<polygon fill="white" stroke="transparent" points="-4,4 -4,-369.5 823,-369.5 823,4 -4,4"/>
<!-- Node1 -->
<g id="node1" class="node">
<title>Node1</title>
<g id="a_node1"><a xlink:title=" ">
<polygon fill="#bfbfbf" stroke="black" points="709,-165 709,-195 819,-195 819,-165 709,-165"/>
<text text-anchor="start" x="717" y="-183" font-family="Helvetica,sans-Serif" font-size="10.00">ConsignController::</text>
<text text-anchor="middle" x="764" y="-172" font-family="Helvetica,sans-Serif" font-size="10.00">perform_On</text>
</a>
</g>
</g>
<!-- Node2 -->
<g id="node2" class="node">
<title>Node2</title>
<g id="a_node2"><a xlink:href="classAsservEsialR.html#a6bcff182c51cf9de8c80f38f33267bae" target="_top" xlink:title="just disable PID">
<polygon fill="white" stroke="black" points="553,-141 553,-171 673,-171 673,-141 553,-141"/>
<text text-anchor="start" x="561" y="-159" font-family="Helvetica,sans-Serif" font-size="10.00">AsservEsialR::motion</text>
<text text-anchor="middle" x="613" y="-148" font-family="Helvetica,sans-Serif" font-size="10.00">_AssistedHandling</text>
</a>
</g>
</g>
<!-- Node1&#45;&gt;Node2 -->
<g id="edge1" class="edge">
<title>Node1&#45;&gt;Node2</title>
<path fill="none" stroke="midnightblue" d="M698.89,-169.67C690.36,-168.3 681.65,-166.9 673.21,-165.54"/>
<polygon fill="midnightblue" stroke="midnightblue" points="698.36,-173.13 708.79,-171.27 699.47,-166.22 698.36,-173.13"/>
</g>
<!-- Node17 -->
<g id="node17" class="node">
<title>Node17</title>
<g id="a_node17"><a xlink:href="classAsservEsialR.html#a9f1de45d0cbdbd1d827e467b59fd4bc1" target="_top" xlink:title="Passe en roue libre (aucun asservissement).">
<polygon fill="white" stroke="black" points="553,-209 553,-239 673,-239 673,-209 553,-209"/>
<text text-anchor="start" x="561" y="-227" font-family="Helvetica,sans-Serif" font-size="10.00">AsservEsialR::motion</text>
<text text-anchor="middle" x="613" y="-216" font-family="Helvetica,sans-Serif" font-size="10.00">_FreeMotion</text>
</a>
</g>
</g>
<!-- Node1&#45;&gt;Node17 -->
<g id="edge16" class="edge">
<title>Node1&#45;&gt;Node17</title>
<path fill="none" stroke="midnightblue" d="M702.31,-197.92C689.89,-201.59 676.93,-205.42 664.88,-208.97"/>
<polygon fill="midnightblue" stroke="midnightblue" points="703.54,-201.21 712.14,-195.02 701.56,-194.49 703.54,-201.21"/>
</g>
<!-- Node3 -->
<g id="node3" class="node">
<title>Node3</title>
<g id="a_node3"><a xlink:href="classAsserv.html#a2d4c545965ac32ef54c9b118d3576655" target="_top" xlink:title=" ">
<polygon fill="white" stroke="black" points="374.5,-76.5 374.5,-95.5 513.5,-95.5 513.5,-76.5 374.5,-76.5"/>
<text text-anchor="middle" x="444" y="-83.5" font-family="Helvetica,sans-Serif" font-size="10.00">Asserv::assistedHandling</text>
</a>
</g>
</g>
<!-- Node2&#45;&gt;Node3 -->
<g id="edge2" class="edge">
<title>Node2&#45;&gt;Node3</title>
<path fill="none" stroke="midnightblue" d="M578.9,-135.75C561.05,-125.47 538.36,-113.42 517,-105 507.74,-101.35 497.53,-98.18 487.79,-95.52"/>
<polygon fill="midnightblue" stroke="midnightblue" points="577.36,-138.9 587.76,-140.93 580.9,-132.86 577.36,-138.9"/>
</g>
<!-- Node10 -->
<g id="node10" class="node">
<title>Node10</title>
<g id="a_node10"><a xlink:href="classAsserv.html#a0ac23995bdebb69bb49304850c951886" target="_top" xlink:title=" ">
<polygon fill="white" stroke="black" points="393.5,-38.5 393.5,-57.5 494.5,-57.5 494.5,-38.5 393.5,-38.5"/>
<text text-anchor="middle" x="444" y="-45.5" font-family="Helvetica,sans-Serif" font-size="10.00">Asserv::doCalage</text>
</a>
</g>
</g>
<!-- Node2&#45;&gt;Node10 -->
<g id="edge9" class="edge">
<title>Node2&#45;&gt;Node10</title>
<path fill="none" stroke="midnightblue" d="M593.51,-133.17C575.9,-112.89 547.59,-83.93 517,-67 509.99,-63.12 502.15,-60 494.29,-57.51"/>
<polygon fill="midnightblue" stroke="midnightblue" points="591.02,-135.64 600.16,-141 596.36,-131.11 591.02,-135.64"/>
</g>
<!-- Node12 -->
<g id="node12" class="node">
<title>Node12</title>
<g id="a_node12"><a xlink:href="classAsserv.html#acc891ab26e32320b4f2fac646de93632" target="_top" xlink:title=" ">
<polygon fill="white" stroke="black" points="390.5,-0.5 390.5,-19.5 497.5,-19.5 497.5,-0.5 390.5,-0.5"/>
<text text-anchor="middle" x="444" y="-7.5" font-family="Helvetica,sans-Serif" font-size="10.00">Asserv::doCalage2</text>
</a>
</g>
</g>
<!-- Node2&#45;&gt;Node12 -->
<g id="edge11" class="edge">
<title>Node2&#45;&gt;Node12</title>
<path fill="none" stroke="midnightblue" d="M600.37,-131.85C585.21,-102.98 555.97,-55.28 517,-29 511.1,-25.02 504.42,-21.88 497.56,-19.39"/>
<polygon fill="midnightblue" stroke="midnightblue" points="597.3,-133.54 604.96,-140.86 603.54,-130.36 597.3,-133.54"/>
</g>
<!-- Node13 -->
<g id="node13" class="node">
<title>Node13</title>
<g id="a_node13"><a xlink:href="classAsserv.html#aa105905ebc1940adb7c483a14c9ce8fc" target="_top" xlink:title=" ">
<polygon fill="white" stroke="black" points="383,-114.5 383,-133.5 505,-133.5 505,-114.5 383,-114.5"/>
<text text-anchor="middle" x="444" y="-121.5" font-family="Helvetica,sans-Serif" font-size="10.00">Asserv::doCalageNew</text>
</a>
</g>
</g>
<!-- Node2&#45;&gt;Node13 -->
<g id="edge12" class="edge">
<title>Node2&#45;&gt;Node13</title>
<path fill="none" stroke="midnightblue" d="M542.75,-142.73C526.66,-139.65 509.84,-136.42 494.78,-133.54"/>
<polygon fill="midnightblue" stroke="midnightblue" points="542.17,-146.18 552.65,-144.63 543.49,-139.31 542.17,-146.18"/>
</g>
<!-- Node14 -->
<g id="node14" class="node">
<title>Node14</title>
<g id="a_node14"><a xlink:href="classAsserv.html#a3468d8efb89878c2235dc491c6e7a541" target="_top" xlink:title=" ">
<polygon fill="white" stroke="black" points="380,-240.5 380,-259.5 508,-259.5 508,-240.5 380,-240.5"/>
<text text-anchor="middle" x="444" y="-247.5" font-family="Helvetica,sans-Serif" font-size="10.00">Asserv::doRunPivotLeft</text>
</a>
</g>
</g>
<!-- Node2&#45;&gt;Node14 -->
<g id="edge13" class="edge">
<title>Node2&#45;&gt;Node14</title>
<path fill="none" stroke="midnightblue" d="M582.85,-177.11C573.24,-184.24 562.56,-192.33 553,-200 536.53,-213.21 535.68,-221.17 517,-231 509.68,-234.85 501.52,-237.97 493.39,-240.47"/>
<polygon fill="midnightblue" stroke="midnightblue" points="585,-179.87 590.98,-171.13 580.85,-174.24 585,-179.87"/>
</g>
<!-- Node15 -->
<g id="node15" class="node">
<title>Node15</title>
<g id="a_node15"><a xlink:href="classAsserv.html#a79a9b2ee1d39046119673dc81733bdab" target="_top" xlink:title=" ">
<polygon fill="white" stroke="black" points="376,-202.5 376,-221.5 512,-221.5 512,-202.5 376,-202.5"/>
<text text-anchor="middle" x="444" y="-209.5" font-family="Helvetica,sans-Serif" font-size="10.00">Asserv::doRunPivotRight</text>
</a>
</g>
</g>
<!-- Node2&#45;&gt;Node15 -->
<g id="edge14" class="edge">
<title>Node2&#45;&gt;Node15</title>
<path fill="none" stroke="midnightblue" d="M566.82,-174.8C551.18,-180.99 533.45,-187.65 517,-193 506.55,-196.4 495.1,-199.64 484.47,-202.45"/>
<polygon fill="midnightblue" stroke="midnightblue" points="568.27,-177.99 576.26,-171.03 565.67,-171.49 568.27,-177.99"/>
</g>
<!-- Node16 -->
<g id="node16" class="node">
<title>Node16</title>
<g id="a_node16"><a xlink:href="classOPOS6UL__AsservExtended.html#a1f17c09c76670c49c1272676879ef48a" target="_top" xlink:title="Démarre le timer de mouvement et l&#39;odométrie.">
<polygon fill="white" stroke="black" points="371,-153 371,-183 517,-183 517,-153 371,-153"/>
<text text-anchor="start" x="379" y="-171" font-family="Helvetica,sans-Serif" font-size="10.00">OPOS6UL_AsservExtended</text>
<text text-anchor="middle" x="444" y="-160" font-family="Helvetica,sans-Serif" font-size="10.00">::startMotionTimerAndOdo</text>
</a>
</g>
</g>
<!-- Node2&#45;&gt;Node16 -->
<g id="edge15" class="edge">
<title>Node2&#45;&gt;Node16</title>
<path fill="none" stroke="midnightblue" d="M542.51,-160.99C534.09,-161.6 525.48,-162.22 517.03,-162.82"/>
<polygon fill="midnightblue" stroke="midnightblue" points="542.93,-164.47 552.65,-160.26 542.43,-157.49 542.93,-164.47"/>
</g>
<!-- Node4 -->
<g id="node4" class="node">
<title>Node4</title>
<g id="a_node4"><a xlink:href="classO__AsservCalibrationTest.html#a578ac4b37bd38a475665dc353cb834f5" target="_top" xlink:title=" ">
<polygon fill="white" stroke="black" points="178,-88.5 178,-107.5 335,-107.5 335,-88.5 178,-88.5"/>
<text text-anchor="middle" x="256.5" y="-95.5" font-family="Helvetica,sans-Serif" font-size="10.00">O_AsservCalibrationTest::run</text>
</a>
</g>
</g>
<!-- Node3&#45;&gt;Node4 -->
<g id="edge3" class="edge">
<title>Node3&#45;&gt;Node4</title>
<path fill="none" stroke="midnightblue" d="M364.44,-91.08C354.74,-91.71 344.83,-92.35 335.15,-92.98"/>
<polygon fill="midnightblue" stroke="midnightblue" points="364.7,-94.57 374.45,-90.43 364.25,-87.59 364.7,-94.57"/>
</g>
<!-- Node5 -->
<g id="node5" class="node">
<title>Node5</title>
<g id="a_node5"><a xlink:href="classO__AsservLineRotateTest.html#ac54536863ccc3f6bc0ce3f30e99e1b70" target="_top" xlink:title=" ">
<polygon fill="white" stroke="black" points="178.5,-202.5 178.5,-221.5 334.5,-221.5 334.5,-202.5 178.5,-202.5"/>
<text text-anchor="middle" x="256.5" y="-209.5" font-family="Helvetica,sans-Serif" font-size="10.00">O_AsservLineRotateTest::run</text>
</a>
</g>
</g>
<!-- Node3&#45;&gt;Node5 -->
<g id="edge4" class="edge">
<title>Node3&#45;&gt;Node5</title>
<path fill="none" stroke="midnightblue" d="M376.64,-100.69C374.67,-102.01 372.78,-103.44 371,-105 339.24,-132.87 367.01,-165.41 335,-193 330.59,-196.8 325.55,-199.86 320.19,-202.33"/>
<polygon fill="midnightblue" stroke="midnightblue" points="378.75,-103.53 385.8,-95.63 375.36,-97.4 378.75,-103.53"/>
</g>
<!-- Node6 -->
<g id="node6" class="node">
<title>Node6</title>
<g id="a_node6"><a xlink:href="classO__AsservXYRotateTest.html#a13ccb691e37bdddc94ca53b29311e39a" target="_top" xlink:title=" ">
<polygon fill="white" stroke="black" points="182,-164.5 182,-183.5 331,-183.5 331,-164.5 182,-164.5"/>
<text text-anchor="middle" x="256.5" y="-171.5" font-family="Helvetica,sans-Serif" font-size="10.00">O_AsservXYRotateTest::run</text>
</a>
</g>
</g>
<!-- Node3&#45;&gt;Node6 -->
<g id="edge5" class="edge">
<title>Node3&#45;&gt;Node6</title>
<path fill="none" stroke="midnightblue" d="M380.25,-99.6C377.02,-101.21 373.91,-103 371,-105 348.44,-120.52 357.7,-139.68 335,-155 329.26,-158.87 322.8,-161.96 316.13,-164.42"/>
<polygon fill="midnightblue" stroke="midnightblue" points="381.83,-102.74 389.63,-95.57 379.06,-96.31 381.83,-102.74"/>
</g>
<!-- Node7 -->
<g id="node7" class="node">
<title>Node7</title>
<g id="a_node7"><a xlink:href="classO__IAByPathTest.html#a3f57f585ff1382a52bf7f79a28d43629" target="_top" xlink:title="Execute le test.">
<polygon fill="white" stroke="black" points="199.5,-50.5 199.5,-69.5 313.5,-69.5 313.5,-50.5 199.5,-50.5"/>
<text text-anchor="middle" x="256.5" y="-57.5" font-family="Helvetica,sans-Serif" font-size="10.00">O_IAByPathTest::run</text>
</a>
</g>
</g>
<!-- Node3&#45;&gt;Node7 -->
<g id="edge6" class="edge">
<title>Node3&#45;&gt;Node7</title>
<path fill="none" stroke="midnightblue" d="M364.94,-75.06C347.72,-72.64 329.8,-70.13 313.65,-67.87"/>
<polygon fill="midnightblue" stroke="midnightblue" points="364.59,-78.54 374.98,-76.47 365.56,-71.61 364.59,-78.54"/>
</g>
<!-- Node8 -->
<g id="node8" class="node">
<title>Node8</title>
<g id="a_node8"><a xlink:href="classO__State__Init.html#a1980cd82dcb83e88d61f2e7e14dddfa0" target="_top" xlink:title=" ">
<polygon fill="white" stroke="black" points="199.5,-126.5 199.5,-145.5 313.5,-145.5 313.5,-126.5 199.5,-126.5"/>
<text text-anchor="middle" x="256.5" y="-133.5" font-family="Helvetica,sans-Serif" font-size="10.00">O_State_Init::setPos</text>
</a>
</g>
</g>
<!-- Node3&#45;&gt;Node8 -->
<g id="edge7" class="edge">
<title>Node3&#45;&gt;Node8</title>
<path fill="none" stroke="midnightblue" d="M395.35,-98.12C387.2,-100.32 378.84,-102.66 371,-105 354.84,-109.82 351.2,-112.32 335,-117 323.42,-120.34 310.76,-123.61 299.09,-126.46"/>
<polygon fill="midnightblue" stroke="midnightblue" points="396.37,-101.47 405.13,-95.51 394.57,-94.7 396.37,-101.47"/>
</g>
<!-- Node9 -->
<g id="node9" class="node">
<title>Node9</title>
<g id="a_node9"><a xlink:href="classO__State__Init.html#abc19788b7457d1f819245dd28367fe91" target="_top" xlink:title="Exécute l&#39;état d&#39;initialisation.">
<polygon fill="white" stroke="black" points="11,-199.5 11,-218.5 131,-218.5 131,-199.5 11,-199.5"/>
<text text-anchor="middle" x="71" y="-206.5" font-family="Helvetica,sans-Serif" font-size="10.00">O_State_Init::execute</text>
</a>
</g>
</g>
<!-- Node8&#45;&gt;Node9 -->
<g id="edge8" class="edge">
<title>Node8&#45;&gt;Node9</title>
<path fill="none" stroke="midnightblue" d="M199.26,-148.16C192.03,-150.2 184.79,-152.48 178,-155 144.7,-167.37 108.3,-187.5 87.99,-199.37"/>
<polygon fill="midnightblue" stroke="midnightblue" points="200.32,-151.5 209.07,-145.53 198.51,-144.74 200.32,-151.5"/>
</g>
<!-- Node11 -->
<g id="node11" class="node">
<title>Node11</title>
<g id="a_node11"><a xlink:href="classO__Asserv__CalageTest.html#ad731f64308b62269f060e74c0282e30f" target="_top" xlink:title=" ">
<polygon fill="white" stroke="black" points="185,-12.5 185,-31.5 328,-31.5 328,-12.5 185,-12.5"/>
<text text-anchor="middle" x="256.5" y="-19.5" font-family="Helvetica,sans-Serif" font-size="10.00">O_Asserv_CalageTest::run</text>
</a>
</g>
</g>
<!-- Node10&#45;&gt;Node11 -->
<g id="edge10" class="edge">
<title>Node10&#45;&gt;Node11</title>
<path fill="none" stroke="midnightblue" d="M383.28,-39.63C364.85,-37.05 344.42,-34.18 325.48,-31.53"/>
<polygon fill="midnightblue" stroke="midnightblue" points="382.9,-43.11 393.29,-41.03 383.87,-36.18 382.9,-43.11"/>
</g>
<!-- Node17&#45;&gt;Node14 -->
<g id="edge17" class="edge">
<title>Node17&#45;&gt;Node14</title>
<path fill="none" stroke="midnightblue" d="M542.6,-234.8C530.5,-236.69 517.99,-238.64 506.13,-240.48"/>
<polygon fill="midnightblue" stroke="midnightblue" points="543.31,-238.24 552.65,-233.24 542.23,-231.32 543.31,-238.24"/>
</g>
<!-- Node17&#45;&gt;Node15 -->
<g id="edge18" class="edge">
<title>Node17&#45;&gt;Node15</title>
<path fill="none" stroke="midnightblue" d="M542.67,-219.02C532.57,-218.29 522.18,-217.55 512.12,-216.82"/>
<polygon fill="midnightblue" stroke="midnightblue" points="542.43,-222.51 552.65,-219.74 542.93,-215.53 542.43,-222.51"/>
</g>
<!-- Node17&#45;&gt;Node16 -->
<g id="edge28" class="edge">
<title>Node17&#45;&gt;Node16</title>
<path fill="none" stroke="midnightblue" d="M557.73,-205.8C535.79,-198.44 510.76,-190.05 489.88,-183.05"/>
<polygon fill="midnightblue" stroke="midnightblue" points="556.65,-209.13 567.25,-208.99 558.88,-202.5 556.65,-209.13"/>
</g>
<!-- Node18 -->
<g id="node18" class="node">
<title>Node18</title>
<g id="a_node18"><a xlink:href="classAsserv.html#aef3c037b15172c4cc015c47a33f93634" target="_top" xlink:title=" ">
<polygon fill="white" stroke="black" points="390,-278.5 390,-297.5 498,-297.5 498,-278.5 390,-278.5"/>
<text text-anchor="middle" x="444" y="-285.5" font-family="Helvetica,sans-Serif" font-size="10.00">Asserv::freeMotion</text>
</a>
</g>
</g>
<!-- Node17&#45;&gt;Node18 -->
<g id="edge19" class="edge">
<title>Node17&#45;&gt;Node18</title>
<path fill="none" stroke="midnightblue" d="M574.35,-243.8C557.17,-252.32 536.38,-261.92 517,-269 507.29,-272.55 496.61,-275.73 486.53,-278.44"/>
<polygon fill="midnightblue" stroke="midnightblue" points="576.13,-246.82 583.49,-239.2 572.98,-240.57 576.13,-246.82"/>
</g>
<!-- Node23 -->
<g id="node23" class="node">
<title>Node23</title>
<g id="a_node23"><a xlink:href="classAsservEsialR.html#af41648945c1353b9fc1fb07f77330646" target="_top" xlink:title="Desactive le PID et stoppe les moteurs.">
<polygon fill="white" stroke="black" points="384,-317 384,-347 504,-347 504,-317 384,-317"/>
<text text-anchor="start" x="392" y="-335" font-family="Helvetica,sans-Serif" font-size="10.00">AsservEsialR::motion</text>
<text text-anchor="middle" x="444" y="-324" font-family="Helvetica,sans-Serif" font-size="10.00">_DisablePID</text>
</a>
</g>
</g>
<!-- Node17&#45;&gt;Node23 -->
<g id="edge27" class="edge">
<title>Node17&#45;&gt;Node23</title>
<path fill="none" stroke="midnightblue" d="M591.1,-246.56C573,-264.97 545.34,-290.54 517,-307 510.59,-310.72 503.54,-314.01 496.44,-316.88"/>
<polygon fill="midnightblue" stroke="midnightblue" points="593.82,-248.78 598.25,-239.15 588.78,-243.92 593.82,-248.78"/>
</g>
<!-- Node18&#45;&gt;Node5 -->
<g id="edge25" class="edge">
<title>Node18&#45;&gt;Node5</title>
<path fill="none" stroke="midnightblue" d="M384.22,-275.08C379.64,-273.3 375.18,-271.28 371,-269 351.95,-258.59 353.82,-246.81 335,-236 324.37,-229.9 312.02,-225.17 300.34,-221.59"/>
<polygon fill="midnightblue" stroke="midnightblue" points="383.15,-278.41 393.74,-278.42 385.47,-271.81 383.15,-278.41"/>
</g>
<!-- Node18&#45;&gt;Node6 -->
<g id="edge26" class="edge">
<title>Node18&#45;&gt;Node6</title>
<path fill="none" stroke="midnightblue" d="M380.44,-275.37C377.09,-273.52 373.91,-271.41 371,-269 342.25,-245.12 363.96,-216.63 335,-193 330.28,-189.15 324.89,-186.06 319.2,-183.58"/>
<polygon fill="midnightblue" stroke="midnightblue" points="379.11,-278.61 389.66,-279.66 382.07,-272.27 379.11,-278.61"/>
</g>
<!-- Node18&#45;&gt;Node9 -->
<g id="edge21" class="edge">
<title>Node18&#45;&gt;Node9</title>
<path fill="none" stroke="midnightblue" d="M388.23,-276.34C314.5,-260.64 184.74,-233.01 116.62,-218.5"/>
<polygon fill="midnightblue" stroke="midnightblue" points="387.74,-279.81 398.25,-278.47 389.2,-272.96 387.74,-279.81"/>
</g>
<!-- Node19 -->
<g id="node19" class="node">
<title>Node19</title>
<g id="a_node19"><a xlink:href="classAsserv.html#aa8b9209374a094acf3242d732cdeee5e" target="_top" xlink:title=" ">
<polygon fill="white" stroke="black" points="203,-278.5 203,-297.5 310,-297.5 310,-278.5 203,-278.5"/>
<text text-anchor="middle" x="256.5" y="-285.5" font-family="Helvetica,sans-Serif" font-size="10.00">Asserv::disablePID</text>
</a>
</g>
</g>
<!-- Node18&#45;&gt;Node19 -->
<g id="edge20" class="edge">
<title>Node18&#45;&gt;Node19</title>
<path fill="none" stroke="midnightblue" d="M379.63,-288C356.96,-288 331.68,-288 310.02,-288"/>
<polygon fill="midnightblue" stroke="midnightblue" points="379.84,-291.5 389.84,-288 379.84,-284.5 379.84,-291.5"/>
</g>
<!-- Node20 -->
<g id="node20" class="node">
<title>Node20</title>
<g id="a_node20"><a xlink:href="classRobot.html#ac7a09e8aad44c834c60d55ed96d25d7f" target="_top" xlink:title="Libère les moteurs (roue libre).">
<polygon fill="white" stroke="black" points="204.5,-316.5 204.5,-335.5 308.5,-335.5 308.5,-316.5 204.5,-316.5"/>
<text text-anchor="middle" x="256.5" y="-323.5" font-family="Helvetica,sans-Serif" font-size="10.00">Robot::freeMotion</text>
</a>
</g>
</g>
<!-- Node18&#45;&gt;Node20 -->
<g id="edge22" class="edge">
<title>Node18&#45;&gt;Node20</title>
<path fill="none" stroke="midnightblue" d="M386.33,-299.61C359.94,-305.01 328.95,-311.36 303.97,-316.48"/>
<polygon fill="midnightblue" stroke="midnightblue" points="387.1,-303.02 396.19,-297.59 385.69,-296.17 387.1,-303.02"/>
</g>
<!-- Node21 -->
<g id="node21" class="node">
<title>Node21</title>
<g id="a_node21"><a xlink:href="classO__State__DecisionMakerIA.html#a96d1f2a7618d607fd10cc51b9111e653" target="_top" xlink:title="Execute l&#39;action.">
<polygon fill="white" stroke="black" points="0,-286 0,-316 142,-316 142,-286 0,-286"/>
<text text-anchor="start" x="8" y="-304" font-family="Helvetica,sans-Serif" font-size="10.00">O_State_DecisionMakerIA</text>
<text text-anchor="middle" x="71" y="-293" font-family="Helvetica,sans-Serif" font-size="10.00">::execute</text>
</a>
</g>
</g>
<!-- Node20&#45;&gt;Node21 -->
<g id="edge23" class="edge">
<title>Node20&#45;&gt;Node21</title>
<path fill="none" stroke="midnightblue" d="M194.19,-317.65C177.46,-315.37 159.21,-312.88 142.04,-310.54"/>
<polygon fill="midnightblue" stroke="midnightblue" points="194,-321.15 204.39,-319.04 194.95,-314.22 194,-321.15"/>
</g>
<!-- Node22 -->
<g id="node22" class="node">
<title>Node22</title>
<g id="a_node22"><a xlink:href="classO__State__WaitEndOfMatch.html#aa73613440b37c8dd42181e2e0265ae86" target="_top" xlink:title="Exécute l&#39;état d&#39;attente de fin de match.">
<polygon fill="white" stroke="black" points="0.5,-335 0.5,-365 141.5,-365 141.5,-335 0.5,-335"/>
<text text-anchor="start" x="8.5" y="-353" font-family="Helvetica,sans-Serif" font-size="10.00">O_State_WaitEndOfMatch</text>
<text text-anchor="middle" x="71" y="-342" font-family="Helvetica,sans-Serif" font-size="10.00">::execute</text>
</a>
</g>
</g>
<!-- Node20&#45;&gt;Node22 -->
<g id="edge24" class="edge">
<title>Node20&#45;&gt;Node22</title>
<path fill="none" stroke="midnightblue" d="M194.13,-334.03C177.31,-336.23 158.95,-338.63 141.7,-340.88"/>
<polygon fill="midnightblue" stroke="midnightblue" points="194.92,-337.45 204.39,-332.69 194.02,-330.51 194.92,-337.45"/>
</g>
</g>
</svg>
        <g id="navigator" transform="translate(0 0)" fill="#404254">
                <rect fill="#f2f5e9" fill-opacity="0.5" stroke="#606060" stroke-width=".5" x="0" y="0" width="60" height="60"/>
                <use id="zoomplus" xlink:href="#zoomPlus" x="17" y="9" onmousedown="handleZoom(evt,'in')"/>
                <use id="zoomminus" xlink:href="#zoomMin" x="42" y="9" onmousedown="handleZoom(evt,'out')"/>
                <use id="reset" xlink:href="#resetDef" x="30" y="36" onmousedown="handleReset()"/>
                <g id="arrowUp" xlink:href="#dirArrow" transform="translate(30 24)" onmousedown="handlePan(0,-1)">
                  <use xlink:href="#rim" fill="#404040">
                        <set attributeName="fill" to="#808080" begin="arrowUp.mouseover" end="arrowUp.mouseout"/>
                  </use>
                  <path fill="none" stroke="white" stroke-width="1.5" d="M0,-3.0v7 M-2.5,-0.5L0,-3.0L2.5,-0.5"/>
                </g>
                <g id="arrowRight" xlink:href="#dirArrow" transform="rotate(90) translate(36 -43)" onmousedown="handlePan(1,0)">
                  <use xlink:href="#rim" fill="#404040">
                        <set attributeName="fill" to="#808080" begin="arrowRight.mouseover" end="arrowRight.mouseout"/>
                  </use>
                  <path fill="none" stroke="white" stroke-width="1.5" d="M0,-3.0v7 M-2.5,-0.5L0,-3.0L2.5,-0.5"/>
                </g>
                <g id="arrowDown" xlink:href="#dirArrow" transform="rotate(180) translate(-30 -48)" onmousedown="handlePan(0,1)">
                  <use xlink:href="#rim" fill="#404040">
                        <set attributeName="fill" to="#808080" begin="arrowDown.mouseover" end="arrowDown.mouseout"/>
                  </use>
                  <path fill="none" stroke="white" stroke-width="1.5" d="M0,-3.0v7 M-2.5,-0.5L0,-3.0L2.5,-0.5"/>
                </g>
                <g id="arrowLeft" xlink:href="#dirArrow" transform="rotate(270) translate(-36 17)" onmousedown="handlePan(-1,0)">
                  <use xlink:href="#rim" fill="#404040">
                        <set attributeName="fill" to="#808080" begin="arrowLeft.mouseover" end="arrowLeft.mouseout"/>
                  </use>
                  <path fill="none" stroke="white" stroke-width="1.5" d="M0,-3.0v7 M-2.5,-0.5L0,-3.0L2.5,-0.5"/>
                </g>
        </g>
        <svg viewBox="0 0 15 15" width="100%" height="30px" preserveAspectRatio="xMaxYMin meet">
         <g id="arrow_out" transform="scale(0.3 0.3)">
          <a xlink:href="classConsignController_adfedf459a0ef4d9eeb8aae541a999869_icgraph_org.svg" target="_base">
           <rect id="button" ry="5" rx="5" y="6" x="6" height="38" width="38"
                fill="#f2f5e9" fill-opacity="0.5" stroke="#606060" stroke-width="1.0"/>
           <path id="arrow"
             d="M 11.500037,31.436501 C 11.940474,20.09759 22.043105,11.32322 32.158766,21.979434 L 37.068811,17.246167 C 37.068811,17.246167 37.088388,32 37.088388,32 L 22.160133,31.978069 C 22.160133,31.978069 26.997745,27.140456 26.997745,27.140456 C 18.528582,18.264221 13.291696,25.230495 11.500037,31.436501 z"
             style="fill:#404040;"/>
          </a>
         </g>
        </svg>
</svg>
