<?xml version="1.0" encoding="UTF-8" standalone="no"?>
<!DOCTYPE svg PUBLIC "-//W3C//DTD SVG 1.1//EN"
 "http://www.w3.org/Graphics/SVG/1.1/DTD/svg11.dtd">
<!-- Generated by graphviz version 2.43.0 (0)
 -->
<!-- Title: AsservDriverWrapper::positionLeftThread Pages: 1 -->
<!--zoomable 289 -->
<svg id="main" version="1.1" xmlns="http://www.w3.org/2000/svg" xmlns:xlink="http://www.w3.org/1999/xlink" xml:space="preserve" onload="init(evt)">
<style type="text/css"><![CDATA[
.edge:hover path { stroke: red; }
.edge:hover polygon { stroke: red; fill: red; }
]]></style>
<script type="text/javascript"><![CDATA[
var edges = document.getElementsByTagName('g');
if (edges && edges.length) {
  for (var i=0;i<edges.length;i++) {
    if (edges[i].id.substr(0,4)=='edge') {
      edges[i].setAttribute('class','edge');
    }
  }
}
]]></script>
        <defs>
                <circle id="rim" cx="0" cy="0" r="7"/>
                <circle id="rim2" cx="0" cy="0" r="3.5"/>
                <g id="zoomPlus">
                        <use xlink:href="#rim" fill="#404040">
                                <set attributeName="fill" to="#808080" begin="zoomplus.mouseover" end="zoomplus.mouseout"/>
                        </use>
                        <path d="M-4,0h8M0,-4v8" fill="none" stroke="white" stroke-width="1.5" pointer-events="none"/>
                </g>
                <g id="zoomMin">
                        <use xlink:href="#rim" fill="#404040">
                                <set attributeName="fill" to="#808080" begin="zoomminus.mouseover" end="zoomminus.mouseout"/>
                        </use>
                        <path d="M-4,0h8" fill="none" stroke="white" stroke-width="1.5" pointer-events="none"/>
                </g>
                <g id="dirArrow">
                        <path fill="none" stroke="white" stroke-width="1.5" d="M0,-3.0v7 M-2.5,-0.5L0,-3.0L2.5,-0.5"/>
                </g>
               <g id="resetDef">
                       <use xlink:href="#rim2" fill="#404040">
                               <set attributeName="fill" to="#808080" begin="reset.mouseover" end="reset.mouseout"/>
                       </use>
               </g>
        </defs>

<script type="text/javascript">
var viewWidth = 1226;
var viewHeight = 289;
var sectionId = 'dynsection-9';
</script>
<script xlink:href="svgpan.js"/>
<svg id="graph" class="graph">
<g id="viewport">
<title>AsservDriverWrapper::positionLeftThread</title>
<polygon fill="white" stroke="transparent" points="-4,4 -4,-284.5 1222,-284.5 1222,4 -4,4"/>
<!-- Node1 -->
<g id="node1" class="node">
<title>Node1</title>
<g id="a_node1"><a xlink:title=" ">
<polygon fill="#bfbfbf" stroke="black" points="0,-120 0,-150 121,-150 121,-120 0,-120"/>
<text text-anchor="start" x="8" y="-138" font-family="Helvetica,sans-Serif" font-size="10.00">AsservDriverWrapper</text>
<text text-anchor="middle" x="60.5" y="-127" font-family="Helvetica,sans-Serif" font-size="10.00">::positionLeftThread</text>
</a>
</g>
</g>
<!-- Node2 -->
<g id="node2" class="node">
<title>Node2</title>
<g id="a_node2"><a xlink:href="classAsservDriverWrapper.html#aad45be064ecfd5eed9c687875f0e92e5" target="_top" xlink:title=" ">
<polygon fill="white" stroke="black" points="157,-120 157,-150 278,-150 278,-120 157,-120"/>
<text text-anchor="start" x="165" y="-138" font-family="Helvetica,sans-Serif" font-size="10.00">AsservDriverWrapper</text>
<text text-anchor="middle" x="217.5" y="-127" font-family="Helvetica,sans-Serif" font-size="10.00">::positionLeft</text>
</a>
</g>
</g>
<!-- Node1&#45;&gt;Node2 -->
<g id="edge1" class="edge">
<title>Node1&#45;&gt;Node2</title>
<path fill="none" stroke="midnightblue" d="M121.43,-135C129.72,-135 138.31,-135 146.76,-135"/>
<polygon fill="midnightblue" stroke="midnightblue" points="146.99,-138.5 156.99,-135 146.99,-131.5 146.99,-138.5"/>
</g>
<!-- Node3 -->
<g id="node3" class="node">
<title>Node3</title>
<g id="a_node3"><a xlink:href="classAsservDriver.html#a8b02e6ec0a124ca9178f17c829d48513" target="_top" xlink:title=" ">
<polygon fill="white" stroke="black" points="314,-169.5 314,-188.5 486,-188.5 486,-169.5 314,-169.5"/>
<text text-anchor="middle" x="400" y="-176.5" font-family="Helvetica,sans-Serif" font-size="10.00">AsservDriver::computeCounterL</text>
</a>
</g>
</g>
<!-- Node2&#45;&gt;Node3 -->
<g id="edge2" class="edge">
<title>Node2&#45;&gt;Node3</title>
<path fill="none" stroke="midnightblue" d="M274.47,-150.01C287.43,-153.39 301.18,-156.89 314,-160 323.92,-162.41 334.52,-164.86 344.75,-167.18"/>
<polygon fill="midnightblue" stroke="midnightblue" points="344.29,-170.66 354.81,-169.44 345.82,-163.83 344.29,-170.66"/>
</g>
<!-- Node17 -->
<g id="node17" class="node">
<title>Node17</title>
<g id="a_node17"><a xlink:href="classAsservDriver.html#a01959c5fd48ed61fedfb22a6c3605ea2" target="_top" xlink:title="Lit la valeur de l&#39;encodeur interne gauche.">
<polygon fill="white" stroke="black" points="321.5,-120 321.5,-150 478.5,-150 478.5,-120 321.5,-120"/>
<text text-anchor="start" x="329.5" y="-138" font-family="Helvetica,sans-Serif" font-size="10.00">AsservDriver::getLeftInternal</text>
<text text-anchor="middle" x="400" y="-127" font-family="Helvetica,sans-Serif" font-size="10.00">Encoder</text>
</a>
</g>
</g>
<!-- Node2&#45;&gt;Node17 -->
<g id="edge17" class="edge">
<title>Node2&#45;&gt;Node17</title>
<path fill="none" stroke="midnightblue" d="M278.1,-135C288.72,-135 299.97,-135 311.18,-135"/>
<polygon fill="midnightblue" stroke="midnightblue" points="311.43,-138.5 321.43,-135 311.43,-131.5 311.43,-138.5"/>
</g>
<!-- Node18 -->
<g id="node18" class="node">
<title>Node18</title>
<g id="a_node18"><a xlink:href="classAsservDriver.html#a69fb8c78d0ced7bd7f330c18952c84f4" target="_top" xlink:title="Arrete le moteur gauche.">
<polygon fill="white" stroke="black" points="323.5,-81.5 323.5,-100.5 476.5,-100.5 476.5,-81.5 323.5,-81.5"/>
<text text-anchor="middle" x="400" y="-88.5" font-family="Helvetica,sans-Serif" font-size="10.00">AsservDriver::stopMotorLeft</text>
</a>
</g>
</g>
<!-- Node2&#45;&gt;Node18 -->
<g id="edge18" class="edge">
<title>Node2&#45;&gt;Node18</title>
<path fill="none" stroke="midnightblue" d="M277.81,-119.95C289.79,-116.95 302.29,-113.85 314,-111 324.94,-108.34 336.69,-105.54 347.85,-102.9"/>
<polygon fill="midnightblue" stroke="midnightblue" points="348.97,-106.24 357.9,-100.54 347.36,-99.42 348.97,-106.24"/>
</g>
<!-- Node4 -->
<g id="node4" class="node">
<title>Node4</title>
<g id="a_node4"><a xlink:href="classAsservDriver.html#a05bd91c77a979511dda5d0e901ddf6e6" target="_top" xlink:title=" ">
<polygon fill="white" stroke="black" points="522,-142 522,-172 674,-172 674,-142 522,-142"/>
<text text-anchor="start" x="530" y="-160" font-family="Helvetica,sans-Serif" font-size="10.00">AsservDriver::convertMmTo</text>
<text text-anchor="middle" x="598" y="-149" font-family="Helvetica,sans-Serif" font-size="10.00">Ticks</text>
</a>
</g>
</g>
<!-- Node3&#45;&gt;Node4 -->
<g id="edge3" class="edge">
<title>Node3&#45;&gt;Node4</title>
<path fill="none" stroke="midnightblue" d="M485.83,-169.48C494.45,-168.51 503.22,-167.53 511.85,-166.56"/>
<polygon fill="midnightblue" stroke="midnightblue" points="512.35,-170.02 521.9,-165.43 511.57,-163.07 512.35,-170.02"/>
</g>
<!-- Node16 -->
<g id="node16" class="node">
<title>Node16</title>
<g id="a_node16"><a xlink:href="classutils_1_1Chronometer.html#aecf9f2e3ced9629be0a03b3ecf0ee01a" target="_top" xlink:title="Retourne le temps écoulé en millisecondes.">
<polygon fill="white" stroke="black" points="523.5,-230 523.5,-260 672.5,-260 672.5,-230 523.5,-230"/>
<text text-anchor="start" x="531.5" y="-248" font-family="Helvetica,sans-Serif" font-size="10.00">utils::Chronometer</text>
<text text-anchor="middle" x="598" y="-237" font-family="Helvetica,sans-Serif" font-size="10.00">::getElapsedTimeInMilliSec</text>
</a>
</g>
</g>
<!-- Node3&#45;&gt;Node16 -->
<g id="edge16" class="edge">
<title>Node3&#45;&gt;Node16</title>
<path fill="none" stroke="midnightblue" d="M429.5,-188.6C459.03,-198.54 505.91,-214.33 542.57,-226.67"/>
<polygon fill="midnightblue" stroke="midnightblue" points="541.54,-230.02 552.14,-229.89 543.78,-223.38 541.54,-230.02"/>
</g>
<!-- Node5 -->
<g id="node5" class="node">
<title>Node5</title>
<g id="a_node5"><a xlink:href="classlogs_1_1Logger.html#a7dffc8f610014ec59b63392da16140e4" target="_top" xlink:title="Trace un message de niveau DEBUG.">
<polygon fill="white" stroke="black" points="713,-85.5 713,-104.5 825,-104.5 825,-85.5 713,-85.5"/>
<text text-anchor="middle" x="769" y="-92.5" font-family="Helvetica,sans-Serif" font-size="10.00">logs::Logger::debug</text>
</a>
</g>
</g>
<!-- Node4&#45;&gt;Node5 -->
<g id="edge4" class="edge">
<title>Node4&#45;&gt;Node5</title>
<path fill="none" stroke="midnightblue" d="M636.32,-141.97C657.77,-133.48 685.28,-122.83 710,-114 715.75,-111.94 721.86,-109.85 727.86,-107.84"/>
<polygon fill="midnightblue" stroke="midnightblue" points="729.4,-111.02 737.79,-104.56 727.2,-104.37 729.4,-111.02"/>
</g>
<!-- Node7 -->
<g id="node7" class="node">
<title>Node7</title>
<g id="a_node7"><a xlink:href="namespacelogs.html#ac6f325c6cfe6189bc8e243daa184453b" target="_top" xlink:title="Cette méthode permet de finir les flux de construction par la notation.">
<polygon fill="white" stroke="black" points="738.5,-123.5 738.5,-142.5 799.5,-142.5 799.5,-123.5 738.5,-123.5"/>
<text text-anchor="middle" x="769" y="-130.5" font-family="Helvetica,sans-Serif" font-size="10.00">logs::end</text>
</a>
</g>
</g>
<!-- Node4&#45;&gt;Node7 -->
<g id="edge6" class="edge">
<title>Node4&#45;&gt;Node7</title>
<path fill="none" stroke="midnightblue" d="M674.11,-146.33C692.77,-143.68 712.04,-140.95 728.24,-138.65"/>
<polygon fill="midnightblue" stroke="midnightblue" points="728.99,-142.08 738.4,-137.2 728,-135.14 728.99,-142.08"/>
</g>
<!-- Node11 -->
<g id="node11" class="node">
<title>Node11</title>
<g id="a_node11"><a xlink:href="classAsservDriver.html#a037c58098a47f261e1b2fd97cc818ff5" target="_top" xlink:title="Retourne le Logger associé à la classe AsservDriver(OPOS6UL).">
<polygon fill="white" stroke="black" points="711,-166.5 711,-185.5 827,-185.5 827,-166.5 711,-166.5"/>
<text text-anchor="middle" x="769" y="-173.5" font-family="Helvetica,sans-Serif" font-size="10.00">AsservDriver::logger</text>
</a>
</g>
</g>
<!-- Node4&#45;&gt;Node11 -->
<g id="edge11" class="edge">
<title>Node4&#45;&gt;Node11</title>
<path fill="none" stroke="midnightblue" d="M674.11,-165.44C682.98,-166.44 691.99,-167.45 700.74,-168.44"/>
<polygon fill="midnightblue" stroke="midnightblue" points="700.55,-171.94 710.88,-169.58 701.33,-164.98 700.55,-171.94"/>
</g>
<!-- Node6 -->
<g id="node6" class="node">
<title>Node6</title>
<g id="a_node6"><a xlink:href="classlogs_1_1Logger.html#afa535aaf4891e02c4ff7f84d372b5b1b" target="_top" xlink:title="Méthode générique de trace d&#39;un message.">
<polygon fill="white" stroke="black" points="1068,-47.5 1068,-66.5 1218,-66.5 1218,-47.5 1068,-47.5"/>
<text text-anchor="middle" x="1143" y="-54.5" font-family="Helvetica,sans-Serif" font-size="10.00">logs::Logger::writeMessage</text>
</a>
</g>
</g>
<!-- Node5&#45;&gt;Node6 -->
<g id="edge5" class="edge">
<title>Node5&#45;&gt;Node6</title>
<path fill="none" stroke="midnightblue" d="M825.24,-90.09C878.29,-85.29 960.67,-77.62 1032,-70 1040.31,-69.11 1048.98,-68.15 1057.63,-67.17"/>
<polygon fill="midnightblue" stroke="midnightblue" points="1058.23,-70.62 1067.77,-66 1057.43,-63.67 1058.23,-70.62"/>
</g>
<!-- Node8 -->
<g id="node8" class="node">
<title>Node8</title>
<g id="a_node8"><a xlink:href="classlogs_1_1Logger_1_1LoggerBuffer.html#a0e4fd77693fd899ec1b0670354f93a02" target="_top" xlink:title="Cette méthode valide le message en cours de construction et le transmet au Logger de référence.">
<polygon fill="white" stroke="black" points="864,-121.5 864,-140.5 1032,-140.5 1032,-121.5 864,-121.5"/>
<text text-anchor="middle" x="948" y="-128.5" font-family="Helvetica,sans-Serif" font-size="10.00">logs::Logger::LoggerBuffer::end</text>
</a>
</g>
</g>
<!-- Node7&#45;&gt;Node8 -->
<g id="edge7" class="edge">
<title>Node7&#45;&gt;Node8</title>
<path fill="none" stroke="midnightblue" d="M799.63,-132.67C814.71,-132.49 833.97,-132.28 853.56,-132.06"/>
<polygon fill="midnightblue" stroke="midnightblue" points="853.85,-135.55 863.81,-131.94 853.77,-128.55 853.85,-135.55"/>
</g>
<!-- Node8&#45;&gt;Node6 -->
<g id="edge10" class="edge">
<title>Node8&#45;&gt;Node6</title>
<path fill="none" stroke="midnightblue" d="M992.54,-121.44C1005.66,-117.63 1019.81,-112.56 1032,-106 1050.34,-96.13 1049.46,-85.49 1068,-76 1072.6,-73.64 1077.52,-71.56 1082.56,-69.73"/>
<polygon fill="midnightblue" stroke="midnightblue" points="1083.92,-72.97 1092.31,-66.5 1081.72,-66.32 1083.92,-72.97"/>
</g>
<!-- Node9 -->
<g id="node9" class="node">
<title>Node9</title>
<g id="a_node9"><a xlink:href="classutils_1_1Mutex.html#aa584b418a5ef484f76b93e361a1d7e32" target="_top" xlink:title="Verrouille le mutex. Cette méthode doit être appelée avant d&#39;utiliser la ressource associée....">
<polygon fill="white" stroke="black" points="1092.5,-85.5 1092.5,-104.5 1193.5,-104.5 1193.5,-85.5 1092.5,-85.5"/>
<text text-anchor="middle" x="1143" y="-92.5" font-family="Helvetica,sans-Serif" font-size="10.00">utils::Mutex::lock</text>
</a>
</g>
</g>
<!-- Node8&#45;&gt;Node9 -->
<g id="edge8" class="edge">
<title>Node8&#45;&gt;Node9</title>
<path fill="none" stroke="midnightblue" d="M999.96,-121.49C1025.31,-116.77 1056.1,-111.02 1082.53,-106.09"/>
<polygon fill="midnightblue" stroke="midnightblue" points="1083.23,-109.52 1092.42,-104.25 1081.95,-102.64 1083.23,-109.52"/>
</g>
<!-- Node10 -->
<g id="node10" class="node">
<title>Node10</title>
<g id="a_node10"><a xlink:href="classutils_1_1Mutex.html#a59b2079dc7f803d49f78ac9c04406cd3" target="_top" xlink:title="Déverrouille le mutex. Cette méthode doit être appelée après avoir utiliser la ressource associée.">
<polygon fill="white" stroke="black" points="1086.5,-123.5 1086.5,-142.5 1199.5,-142.5 1199.5,-123.5 1086.5,-123.5"/>
<text text-anchor="middle" x="1143" y="-130.5" font-family="Helvetica,sans-Serif" font-size="10.00">utils::Mutex::unlock</text>
</a>
</g>
</g>
<!-- Node8&#45;&gt;Node10 -->
<g id="edge9" class="edge">
<title>Node8&#45;&gt;Node10</title>
<path fill="none" stroke="midnightblue" d="M1032.25,-131.86C1046.94,-132.01 1062.06,-132.17 1076.19,-132.32"/>
<polygon fill="midnightblue" stroke="midnightblue" points="1076.25,-135.82 1086.29,-132.42 1076.33,-128.82 1076.25,-135.82"/>
</g>
<!-- Node12 -->
<g id="node12" class="node">
<title>Node12</title>
<g id="a_node12"><a xlink:href="classlogs_1_1LoggerFactory.html#a82585b5de73e471e06cafdccc3b3721e" target="_top" xlink:title="Cette méthode statique retourne un Logger en fonction de son nom.">
<polygon fill="white" stroke="black" points="892.5,-166 892.5,-196 1003.5,-196 1003.5,-166 892.5,-166"/>
<text text-anchor="start" x="900.5" y="-184" font-family="Helvetica,sans-Serif" font-size="10.00">logs::LoggerFactory</text>
<text text-anchor="middle" x="948" y="-173" font-family="Helvetica,sans-Serif" font-size="10.00">::logger</text>
</a>
</g>
</g>
<!-- Node11&#45;&gt;Node12 -->
<g id="edge12" class="edge">
<title>Node11&#45;&gt;Node12</title>
<path fill="none" stroke="midnightblue" d="M827.47,-177.62C844.93,-178.12 864.24,-178.66 882.16,-179.17"/>
<polygon fill="midnightblue" stroke="midnightblue" points="882.13,-182.67 892.23,-179.45 882.33,-175.67 882.13,-182.67"/>
</g>
<!-- Node13 -->
<g id="node13" class="node">
<title>Node13</title>
<g id="a_node13"><a xlink:href="classlogs_1_1LoggerFactory.html#ac89f19c0ffd71aa8cdc1c2d44c03809e" target="_top" xlink:title="Cette méthode ajoute un appender au système.">
<polygon fill="white" stroke="black" points="1076,-211.5 1076,-230.5 1210,-230.5 1210,-211.5 1076,-211.5"/>
<text text-anchor="middle" x="1143" y="-218.5" font-family="Helvetica,sans-Serif" font-size="10.00">logs::LoggerFactory::add</text>
</a>
</g>
</g>
<!-- Node12&#45;&gt;Node13 -->
<g id="edge13" class="edge">
<title>Node12&#45;&gt;Node13</title>
<path fill="none" stroke="midnightblue" d="M1003.53,-192.3C1029.31,-197.65 1060.06,-204.02 1086.02,-209.4"/>
<polygon fill="midnightblue" stroke="midnightblue" points="1085.59,-212.88 1096.09,-211.48 1087.01,-206.03 1085.59,-212.88"/>
</g>
<!-- Node14 -->
<g id="node14" class="node">
<title>Node14</title>
<g id="a_node14"><a xlink:href="classlogs_1_1LoggerFactory.html#a90478b91d7af2ef8841ded21e3521f69" target="_top" xlink:title="Cette méthode statique retourne l&#39;instance unique de la classe LoggerFactory.">
<polygon fill="white" stroke="black" points="1087.5,-162 1087.5,-192 1198.5,-192 1198.5,-162 1087.5,-162"/>
<text text-anchor="start" x="1095.5" y="-180" font-family="Helvetica,sans-Serif" font-size="10.00">logs::LoggerFactory</text>
<text text-anchor="middle" x="1143" y="-169" font-family="Helvetica,sans-Serif" font-size="10.00">::instance</text>
</a>
</g>
</g>
<!-- Node12&#45;&gt;Node14 -->
<g id="edge14" class="edge">
<title>Node12&#45;&gt;Node14</title>
<path fill="none" stroke="midnightblue" d="M1003.53,-179.87C1026.45,-179.39 1053.3,-178.84 1077.22,-178.34"/>
<polygon fill="midnightblue" stroke="midnightblue" points="1077.34,-181.84 1087.27,-178.13 1077.2,-174.84 1077.34,-181.84"/>
</g>
<!-- Node15 -->
<g id="node15" class="node">
<title>Node15</title>
<g id="a_node15"><a xlink:href="classlogs_1_1LoggerFactory.html#a212aa623f4b6bee12cb39e8017dde670" target="_top" xlink:title="Cette méthode retourne le Logger principal qui définit le niveau de trace par défaut.">
<polygon fill="white" stroke="black" points="1087.5,-250 1087.5,-280 1198.5,-280 1198.5,-250 1087.5,-250"/>
<text text-anchor="start" x="1095.5" y="-268" font-family="Helvetica,sans-Serif" font-size="10.00">logs::LoggerFactory</text>
<text text-anchor="middle" x="1143" y="-257" font-family="Helvetica,sans-Serif" font-size="10.00">::rootLogger</text>
</a>
</g>
</g>
<!-- Node12&#45;&gt;Node15 -->
<g id="edge15" class="edge">
<title>Node12&#45;&gt;Node15</title>
<path fill="none" stroke="midnightblue" d="M976.88,-196.16C1000.68,-208.77 1036.05,-226.75 1068,-240 1073.38,-242.23 1079.03,-244.41 1084.72,-246.51"/>
<polygon fill="midnightblue" stroke="midnightblue" points="1083.68,-249.85 1094.28,-249.93 1086.04,-243.26 1083.68,-249.85"/>
</g>
<!-- Node18&#45;&gt;Node7 -->
<g id="edge19" class="edge">
<title>Node18&#45;&gt;Node7</title>
<path fill="none" stroke="midnightblue" d="M476.6,-99.65C553.01,-108.4 668.12,-121.57 728.24,-128.45"/>
<polygon fill="midnightblue" stroke="midnightblue" points="728.12,-131.96 738.46,-129.62 728.92,-125 728.12,-131.96"/>
</g>
<!-- Node18&#45;&gt;Node11 -->
<g id="edge22" class="edge">
<title>Node18&#45;&gt;Node11</title>
<path fill="none" stroke="midnightblue" d="M467.69,-100.59C474.26,-103.28 480.52,-106.69 486,-111 513.81,-132.87 491.85,-163.48 522,-182 586.67,-221.72 680.06,-203.42 731.16,-188.5"/>
<polygon fill="midnightblue" stroke="midnightblue" points="732.24,-191.83 740.79,-185.58 730.2,-185.13 732.24,-191.83"/>
</g>
<!-- Node19 -->
<g id="node19" class="node">
<title>Node19</title>
<g id="a_node19"><a xlink:href="classlogs_1_1Logger.html#a8b6a2019233bc44b3c3c86c653910831" target="_top" xlink:title="Trace un message de niveau ERROR.">
<polygon fill="white" stroke="black" points="895.5,-0.5 895.5,-19.5 1000.5,-19.5 1000.5,-0.5 895.5,-0.5"/>
<text text-anchor="middle" x="948" y="-7.5" font-family="Helvetica,sans-Serif" font-size="10.00">logs::Logger::error</text>
</a>
</g>
</g>
<!-- Node18&#45;&gt;Node19 -->
<g id="edge20" class="edge">
<title>Node18&#45;&gt;Node19</title>
<path fill="none" stroke="midnightblue" d="M421.46,-81.32C445.11,-70.58 485.47,-53.63 522,-45 648.57,-15.1 801.56,-9.75 885.11,-9.34"/>
<polygon fill="midnightblue" stroke="midnightblue" points="885.21,-12.84 895.2,-9.32 885.19,-5.84 885.21,-12.84"/>
</g>
<!-- Node20 -->
<g id="node20" class="node">
<title>Node20</title>
<g id="a_node20"><a xlink:href="classAsservDriver.html#ac9f37c4408c0a72913bd57f7f6ffa576" target="_top" xlink:title="Passe en roue libre (aucun asservissement).">
<polygon fill="white" stroke="black" points="538,-54 538,-84 658,-84 658,-54 538,-54"/>
<text text-anchor="start" x="546" y="-72" font-family="Helvetica,sans-Serif" font-size="10.00">AsservDriver::motion</text>
<text text-anchor="middle" x="598" y="-61" font-family="Helvetica,sans-Serif" font-size="10.00">_FreeMotion</text>
</a>
</g>
</g>
<!-- Node18&#45;&gt;Node20 -->
<g id="edge23" class="edge">
<title>Node18&#45;&gt;Node20</title>
<path fill="none" stroke="midnightblue" d="M476.78,-82.49C493.55,-80.61 511.24,-78.63 527.73,-76.77"/>
<polygon fill="midnightblue" stroke="midnightblue" points="528.28,-80.23 537.83,-75.64 527.5,-73.28 528.28,-80.23"/>
</g>
<!-- Node19&#45;&gt;Node6 -->
<g id="edge21" class="edge">
<title>Node19&#45;&gt;Node6</title>
<path fill="none" stroke="midnightblue" d="M988.06,-19.51C1018.3,-26.88 1060.38,-37.12 1092.91,-45.04"/>
<polygon fill="midnightblue" stroke="midnightblue" points="1092.13,-48.46 1102.67,-47.42 1093.78,-41.66 1092.13,-48.46"/>
</g>
<!-- Node20&#45;&gt;Node5 -->
<g id="edge24" class="edge">
<title>Node20&#45;&gt;Node5</title>
<path fill="none" stroke="midnightblue" d="M658.11,-78.09C672.57,-80.32 688.13,-82.71 702.85,-84.98"/>
<polygon fill="midnightblue" stroke="midnightblue" points="702.48,-88.46 712.89,-86.52 703.54,-81.54 702.48,-88.46"/>
</g>
<!-- Node20&#45;&gt;Node7 -->
<g id="edge25" class="edge">
<title>Node20&#45;&gt;Node7</title>
<path fill="none" stroke="midnightblue" d="M636.81,-84C648.73,-88.76 661.93,-94.07 674,-99 690.05,-105.55 693.75,-107.96 710,-114 716,-116.23 722.39,-118.46 728.66,-120.57"/>
<polygon fill="midnightblue" stroke="midnightblue" points="727.75,-123.96 738.34,-123.78 729.95,-117.31 727.75,-123.96"/>
</g>
<!-- Node20&#45;&gt;Node11 -->
<g id="edge26" class="edge">
<title>Node20&#45;&gt;Node11</title>
<path fill="none" stroke="midnightblue" d="M616.5,-84.28C637.6,-102.16 674.65,-131.89 710,-152 716.71,-155.82 724.14,-159.36 731.39,-162.48"/>
<polygon fill="midnightblue" stroke="midnightblue" points="730.49,-165.9 741.07,-166.48 733.16,-159.43 730.49,-165.9"/>
</g>
<!-- Node21 -->
<g id="node21" class="node">
<title>Node21</title>
<g id="a_node21"><a xlink:href="classAsservDriver.html#aa655c511eb60946e7c2e8835af49abca" target="_top" xlink:title=" ">
<polygon fill="white" stroke="black" points="710,-36 710,-66 828,-66 828,-36 710,-36"/>
<text text-anchor="start" x="718" y="-54" font-family="Helvetica,sans-Serif" font-size="10.00">AsservDriver::nucleo</text>
<text text-anchor="middle" x="769" y="-43" font-family="Helvetica,sans-Serif" font-size="10.00">_writeSerialSTR</text>
</a>
</g>
</g>
<!-- Node20&#45;&gt;Node21 -->
<g id="edge27" class="edge">
<title>Node20&#45;&gt;Node21</title>
<path fill="none" stroke="midnightblue" d="M658.11,-62.7C671.46,-61.28 685.74,-59.76 699.44,-58.3"/>
<polygon fill="midnightblue" stroke="midnightblue" points="700.21,-61.74 709.78,-57.2 699.47,-54.78 700.21,-61.74"/>
</g>
<!-- Node22 -->
<g id="node22" class="node">
<title>Node22</title>
<g id="a_node22"><a xlink:href="classserialib.html#a6a32655c718b998e5b63d8cdc483ac6d" target="_top" xlink:title="Write a string on the current serial port.">
<polygon fill="white" stroke="black" points="892,-41.5 892,-60.5 1004,-60.5 1004,-41.5 892,-41.5"/>
<text text-anchor="middle" x="948" y="-48.5" font-family="Helvetica,sans-Serif" font-size="10.00">serialib::writeString</text>
</a>
</g>
</g>
<!-- Node21&#45;&gt;Node22 -->
<g id="edge28" class="edge">
<title>Node21&#45;&gt;Node22</title>
<path fill="none" stroke="midnightblue" d="M828.45,-51C845.53,-51 864.32,-51 881.8,-51"/>
<polygon fill="midnightblue" stroke="midnightblue" points="881.91,-54.5 891.91,-51 881.91,-47.5 881.91,-54.5"/>
</g>
</g>
</svg>
        <g id="navigator" transform="translate(0 0)" fill="#404254">
                <rect fill="#f2f5e9" fill-opacity="0.5" stroke="#606060" stroke-width=".5" x="0" y="0" width="60" height="60"/>
                <use id="zoomplus" xlink:href="#zoomPlus" x="17" y="9" onmousedown="handleZoom(evt,'in')"/>
                <use id="zoomminus" xlink:href="#zoomMin" x="42" y="9" onmousedown="handleZoom(evt,'out')"/>
                <use id="reset" xlink:href="#resetDef" x="30" y="36" onmousedown="handleReset()"/>
                <g id="arrowUp" xlink:href="#dirArrow" transform="translate(30 24)" onmousedown="handlePan(0,-1)">
                  <use xlink:href="#rim" fill="#404040">
                        <set attributeName="fill" to="#808080" begin="arrowUp.mouseover" end="arrowUp.mouseout"/>
                  </use>
                  <path fill="none" stroke="white" stroke-width="1.5" d="M0,-3.0v7 M-2.5,-0.5L0,-3.0L2.5,-0.5"/>
                </g>
                <g id="arrowRight" xlink:href="#dirArrow" transform="rotate(90) translate(36 -43)" onmousedown="handlePan(1,0)">
                  <use xlink:href="#rim" fill="#404040">
                        <set attributeName="fill" to="#808080" begin="arrowRight.mouseover" end="arrowRight.mouseout"/>
                  </use>
                  <path fill="none" stroke="white" stroke-width="1.5" d="M0,-3.0v7 M-2.5,-0.5L0,-3.0L2.5,-0.5"/>
                </g>
                <g id="arrowDown" xlink:href="#dirArrow" transform="rotate(180) translate(-30 -48)" onmousedown="handlePan(0,1)">
                  <use xlink:href="#rim" fill="#404040">
                        <set attributeName="fill" to="#808080" begin="arrowDown.mouseover" end="arrowDown.mouseout"/>
                  </use>
                  <path fill="none" stroke="white" stroke-width="1.5" d="M0,-3.0v7 M-2.5,-0.5L0,-3.0L2.5,-0.5"/>
                </g>
                <g id="arrowLeft" xlink:href="#dirArrow" transform="rotate(270) translate(-36 17)" onmousedown="handlePan(-1,0)">
                  <use xlink:href="#rim" fill="#404040">
                        <set attributeName="fill" to="#808080" begin="arrowLeft.mouseover" end="arrowLeft.mouseout"/>
                  </use>
                  <path fill="none" stroke="white" stroke-width="1.5" d="M0,-3.0v7 M-2.5,-0.5L0,-3.0L2.5,-0.5"/>
                </g>
        </g>
        <svg viewBox="0 0 15 15" width="100%" height="30px" preserveAspectRatio="xMaxYMin meet">
         <g id="arrow_out" transform="scale(0.3 0.3)">
          <a xlink:href="classAsservDriverWrapper_a8c951da2eafa9448971f7f68088edec8_cgraph_org.svg" target="_base">
           <rect id="button" ry="5" rx="5" y="6" x="6" height="38" width="38"
                fill="#f2f5e9" fill-opacity="0.5" stroke="#606060" stroke-width="1.0"/>
           <path id="arrow"
             d="M 11.500037,31.436501 C 11.940474,20.09759 22.043105,11.32322 32.158766,21.979434 L 37.068811,17.246167 C 37.068811,17.246167 37.088388,32 37.088388,32 L 22.160133,31.978069 C 22.160133,31.978069 26.997745,27.140456 26.997745,27.140456 C 18.528582,18.264221 13.291696,25.230495 11.500037,31.436501 z"
             style="fill:#404040;"/>
          </a>
         </g>
        </svg>
</svg>
