<?xml version="1.0" encoding="UTF-8" standalone="no"?>
<!DOCTYPE svg PUBLIC "-//W3C//DTD SVG 1.1//EN"
 "http://www.w3.org/Graphics/SVG/1.1/DTD/svg11.dtd">
<!-- Generated by graphviz version 2.43.0 (0)
 -->
<!-- Title: OPOS6UL_RobotExtended::~OPOS6UL_RobotExtended Pages: 1 -->
<svg width="1642pt" height="920pt"
 viewBox="0.00 0.00 1642.00 919.50" xmlns="http://www.w3.org/2000/svg" xmlns:xlink="http://www.w3.org/1999/xlink">
<g id="graph0" class="graph" transform="scale(1 1) rotate(0) translate(4 915.5)">
<title>OPOS6UL_RobotExtended::~OPOS6UL_RobotExtended</title>
<polygon fill="white" stroke="transparent" points="-4,4 -4,-915.5 1638,-915.5 1638,4 -4,4"/>
<!-- Node1 -->
<g id="node1" class="node">
<title>Node1</title>
<g id="a_node1"><a xlink:title=" ">
<polygon fill="#bfbfbf" stroke="black" points="0,-818 0,-848 156,-848 156,-818 0,-818"/>
<text text-anchor="start" x="8" y="-836" font-family="Helvetica,sans-Serif" font-size="10.00">OPOS6UL_RobotExtended</text>
<text text-anchor="middle" x="78" y="-825" font-family="Helvetica,sans-Serif" font-size="10.00">::~OPOS6UL_RobotExtended</text>
</a>
</g>
</g>
<!-- Node2 -->
<g id="node2" class="node">
<title>Node2</title>
<g id="a_node2"><a xlink:href="classOPOS6UL__RobotExtended.html#a6468a2bb1fc8de815154a322e038b875" target="_top" xlink:title=" ">
<polygon fill="white" stroke="black" points="195.5,-881 195.5,-911 337.5,-911 337.5,-881 195.5,-881"/>
<text text-anchor="start" x="203.5" y="-899" font-family="Helvetica,sans-Serif" font-size="10.00">OPOS6UL_RobotExtended</text>
<text text-anchor="middle" x="266.5" y="-888" font-family="Helvetica,sans-Serif" font-size="10.00">::actions</text>
</a>
</g>
</g>
<!-- Node1&#45;&gt;Node2 -->
<g id="edge1" class="edge">
<title>Node1&#45;&gt;Node2</title>
<path fill="none" stroke="midnightblue" d="M123.67,-848.09C149.99,-856.98 183.47,-868.29 211.29,-877.69"/>
<polygon fill="midnightblue" stroke="midnightblue" points="210.28,-881.04 220.87,-880.92 212.52,-874.41 210.28,-881.04"/>
</g>
<!-- Node3 -->
<g id="node3" class="node">
<title>Node3</title>
<g id="a_node3"><a xlink:href="classRobot.html#ac3663ed46470faec31e0a6b7eeaad3fb" target="_top" xlink:title=" ">
<polygon fill="white" stroke="black" points="225,-842.5 225,-861.5 308,-861.5 308,-842.5 225,-842.5"/>
<text text-anchor="middle" x="266.5" y="-849.5" font-family="Helvetica,sans-Serif" font-size="10.00">Robot::asserv</text>
</a>
</g>
</g>
<!-- Node1&#45;&gt;Node3 -->
<g id="edge2" class="edge">
<title>Node1&#45;&gt;Node3</title>
<path fill="none" stroke="midnightblue" d="M156.2,-840.87C175.98,-842.88 196.75,-845 214.81,-846.84"/>
<polygon fill="midnightblue" stroke="midnightblue" points="214.52,-850.32 224.82,-847.86 215.23,-843.36 214.52,-850.32"/>
</g>
<!-- Node4 -->
<g id="node4" class="node">
<title>Node4</title>
<g id="a_node4"><a xlink:href="classAsserv.html#af08c1dab6683da88f3ceda50065e1a3d" target="_top" xlink:title=" ">
<polygon fill="white" stroke="black" points="576,-829.5 576,-848.5 697,-848.5 697,-829.5 576,-829.5"/>
<text text-anchor="middle" x="636.5" y="-836.5" font-family="Helvetica,sans-Serif" font-size="10.00">Asserv::endWhatTodo</text>
</a>
</g>
</g>
<!-- Node1&#45;&gt;Node4 -->
<g id="edge3" class="edge">
<title>Node1&#45;&gt;Node4</title>
<path fill="none" stroke="midnightblue" d="M156.1,-832.59C208.29,-832.41 278.8,-832.37 341,-833 417.98,-833.78 506.26,-835.72 565.94,-837.18"/>
<polygon fill="midnightblue" stroke="midnightblue" points="565.91,-840.68 576,-837.43 566.09,-833.69 565.91,-840.68"/>
</g>
<!-- Node9 -->
<g id="node9" class="node">
<title>Node9</title>
<g id="a_node9"><a xlink:href="classOPOS6UL__ActionsExtended.html#a87bb61d89759101cac844e7c399f2f61" target="_top" xlink:title="Arrête tous les périphériques supplémentaires (capteurs, LEDs, LCD) et relâche les servos.">
<polygon fill="white" stroke="black" points="192,-630 192,-660 341,-660 341,-630 192,-630"/>
<text text-anchor="start" x="200" y="-648" font-family="Helvetica,sans-Serif" font-size="10.00">OPOS6UL_ActionsExtended</text>
<text text-anchor="middle" x="266.5" y="-637" font-family="Helvetica,sans-Serif" font-size="10.00">::stopExtra</text>
</a>
</g>
</g>
<!-- Node1&#45;&gt;Node9 -->
<g id="edge8" class="edge">
<title>Node1&#45;&gt;Node9</title>
<path fill="none" stroke="midnightblue" d="M93.95,-817.93C126.68,-784.93 204.87,-706.12 243.34,-667.34"/>
<polygon fill="midnightblue" stroke="midnightblue" points="245.92,-669.7 250.48,-660.14 240.95,-664.77 245.92,-669.7"/>
</g>
<!-- Node5 -->
<g id="node5" class="node">
<title>Node5</title>
<g id="a_node5"><a xlink:href="classAsservEsialR.html#af9caf754782c3ccfa468ab983d844c1e" target="_top" xlink:title="Actions de nettoyage avant l&#39;arret du programme.">
<polygon fill="white" stroke="black" points="750,-845.5 750,-864.5 902,-864.5 902,-845.5 750,-845.5"/>
<text text-anchor="middle" x="826" y="-852.5" font-family="Helvetica,sans-Serif" font-size="10.00">AsservEsialR::endWhatTodo</text>
</a>
</g>
</g>
<!-- Node4&#45;&gt;Node5 -->
<g id="edge4" class="edge">
<title>Node4&#45;&gt;Node5</title>
<path fill="none" stroke="midnightblue" d="M697.08,-844.08C710.54,-845.23 725.09,-846.47 739.39,-847.69"/>
<polygon fill="midnightblue" stroke="midnightblue" points="739.47,-851.21 749.73,-848.58 740.07,-844.24 739.47,-851.21"/>
</g>
<!-- Node8 -->
<g id="node8" class="node">
<title>Node8</title>
<g id="a_node8"><a xlink:href="classAAsservDriver.html#a54ee068cec3c9f9f98b9e6b3d8c10f6e" target="_top" xlink:title="Actions de nettoyage avant l&#39;arret du programme.">
<polygon fill="white" stroke="black" points="747,-807.5 747,-826.5 905,-826.5 905,-807.5 747,-807.5"/>
<text text-anchor="middle" x="826" y="-814.5" font-family="Helvetica,sans-Serif" font-size="10.00">AAsservDriver::endWhatTodo</text>
</a>
</g>
</g>
<!-- Node4&#45;&gt;Node8 -->
<g id="edge7" class="edge">
<title>Node4&#45;&gt;Node8</title>
<path fill="none" stroke="midnightblue" d="M697.08,-832.01C709.65,-830.53 723.15,-828.95 736.52,-827.38"/>
<polygon fill="midnightblue" stroke="midnightblue" points="737.17,-830.83 746.7,-826.19 736.36,-823.88 737.17,-830.83"/>
</g>
<!-- Node6 -->
<g id="node6" class="node">
<title>Node6</title>
<g id="a_node6"><a xlink:href="classAsservEsialR.html#a8917d11aef1998736c9e6e16dfe22de0" target="_top" xlink:title=" ">
<polygon fill="white" stroke="black" points="941,-784.5 941,-803.5 1081,-803.5 1081,-784.5 941,-784.5"/>
<text text-anchor="middle" x="1011" y="-791.5" font-family="Helvetica,sans-Serif" font-size="10.00">AsservEsialR::stopAsserv</text>
</a>
</g>
</g>
<!-- Node5&#45;&gt;Node6 -->
<g id="edge5" class="edge">
<title>Node5&#45;&gt;Node6</title>
<path fill="none" stroke="midnightblue" d="M871.03,-845.43C882.2,-842.68 894.11,-839.48 905,-836 930.51,-827.84 958.64,-816.45 979.36,-807.59"/>
<polygon fill="midnightblue" stroke="midnightblue" points="980.82,-810.78 988.61,-803.6 978.04,-804.35 980.82,-810.78"/>
</g>
<!-- Node7 -->
<g id="node7" class="node">
<title>Node7</title>
<g id="a_node7"><a xlink:href="namespaceutils.html#a4f86fc4c334661a6995538cc080a40c9" target="_top" xlink:title="Met en pause le thread courant pendant usec microsecondes.">
<polygon fill="white" stroke="black" points="1117,-741.5 1117,-760.5 1244,-760.5 1244,-741.5 1117,-741.5"/>
<text text-anchor="middle" x="1180.5" y="-748.5" font-family="Helvetica,sans-Serif" font-size="10.00">utils::sleep_for_micros</text>
</a>
</g>
</g>
<!-- Node6&#45;&gt;Node7 -->
<g id="edge6" class="edge">
<title>Node6&#45;&gt;Node7</title>
<path fill="none" stroke="midnightblue" d="M1049.17,-784.46C1073.79,-778.14 1106.27,-769.8 1132.65,-763.03"/>
<polygon fill="midnightblue" stroke="midnightblue" points="1133.61,-766.39 1142.43,-760.52 1131.87,-759.61 1133.61,-766.39"/>
</g>
<!-- Node10 -->
<g id="node10" class="node">
<title>Node10</title>
<g id="a_node10"><a xlink:href="classOPOS6UL__ActionsExtended.html#a0bc7d581ad9cbae899f7f244340a5429" target="_top" xlink:title="Relâche tous les servomoteurs AX12 (coupe le maintien en position).">
<polygon fill="white" stroke="black" points="377,-731 377,-761 526,-761 526,-731 377,-731"/>
<text text-anchor="start" x="385" y="-749" font-family="Helvetica,sans-Serif" font-size="10.00">OPOS6UL_ActionsExtended</text>
<text text-anchor="middle" x="451.5" y="-738" font-family="Helvetica,sans-Serif" font-size="10.00">::releaseAll</text>
</a>
</g>
</g>
<!-- Node9&#45;&gt;Node10 -->
<g id="edge9" class="edge">
<title>Node9&#45;&gt;Node10</title>
<path fill="none" stroke="midnightblue" d="M294.9,-660.12C326.66,-677.65 379.13,-706.61 414.24,-725.99"/>
<polygon fill="midnightblue" stroke="midnightblue" points="412.77,-729.17 423.22,-730.94 416.15,-723.04 412.77,-729.17"/>
</g>
<!-- Node14 -->
<g id="node14" class="node">
<title>Node14</title>
<g id="a_node14"><a xlink:href="classLcdShield.html#a6a7281ea6adf98a4ab23ce79a7a0d323" target="_top" xlink:title="Réinitialise l&#39;écran LCD.">
<polygon fill="white" stroke="black" points="404.5,-654.5 404.5,-673.5 498.5,-673.5 498.5,-654.5 404.5,-654.5"/>
<text text-anchor="middle" x="451.5" y="-661.5" font-family="Helvetica,sans-Serif" font-size="10.00">LcdShield::reset</text>
</a>
</g>
</g>
<!-- Node9&#45;&gt;Node14 -->
<g id="edge13" class="edge">
<title>Node9&#45;&gt;Node14</title>
<path fill="none" stroke="midnightblue" d="M341.14,-652.65C358.83,-654.48 377.43,-656.41 394.19,-658.15"/>
<polygon fill="midnightblue" stroke="midnightblue" points="394.05,-661.66 404.35,-659.21 394.77,-654.69 394.05,-661.66"/>
</g>
<!-- Node19 -->
<g id="node19" class="node">
<title>Node19</title>
<g id="a_node19"><a xlink:href="classLedBar.html#aa771bd13ff72b872ec4c34e9ef68ea1b" target="_top" xlink:title="Eteint toutes leds.">
<polygon fill="white" stroke="black" points="404.5,-616.5 404.5,-635.5 498.5,-635.5 498.5,-616.5 404.5,-616.5"/>
<text text-anchor="middle" x="451.5" y="-623.5" font-family="Helvetica,sans-Serif" font-size="10.00">LedBar::resetAll</text>
</a>
</g>
</g>
<!-- Node9&#45;&gt;Node19 -->
<g id="edge18" class="edge">
<title>Node9&#45;&gt;Node19</title>
<path fill="none" stroke="midnightblue" d="M341.14,-637.35C358.83,-635.52 377.43,-633.59 394.19,-631.85"/>
<polygon fill="midnightblue" stroke="midnightblue" points="394.77,-635.31 404.35,-630.79 394.05,-628.34 394.77,-635.31"/>
</g>
<!-- Node28 -->
<g id="node28" class="node">
<title>Node28</title>
<g id="a_node28"><a xlink:href="classLedBar.html#a0c1e129df2b8cec98a190bf3c9aa18d3" target="_top" xlink:title="Donne l&#39;ordre d&#39;arreter et attend au moins 1 ms.">
<polygon fill="white" stroke="black" points="413,-578.5 413,-597.5 490,-597.5 490,-578.5 413,-578.5"/>
<text text-anchor="middle" x="451.5" y="-585.5" font-family="Helvetica,sans-Serif" font-size="10.00">LedBar::stop</text>
</a>
</g>
</g>
<!-- Node9&#45;&gt;Node28 -->
<g id="edge27" class="edge">
<title>Node9&#45;&gt;Node28</title>
<path fill="none" stroke="midnightblue" d="M308.32,-629.95C328.81,-622.63 354.08,-613.93 377,-607 385.43,-604.45 394.47,-601.94 403.23,-599.62"/>
<polygon fill="midnightblue" stroke="midnightblue" points="404.15,-602.99 412.95,-597.08 402.39,-596.22 404.15,-602.99"/>
</g>
<!-- Node35 -->
<g id="node35" class="node">
<title>Node35</title>
<g id="a_node35"><a xlink:href="classSensors.html#a85be8662515c22a100f45c4ed417fe8d" target="_top" xlink:title=" ">
<polygon fill="white" stroke="black" points="377,-419.5 377,-438.5 526,-438.5 526,-419.5 377,-419.5"/>
<text text-anchor="middle" x="451.5" y="-426.5" font-family="Helvetica,sans-Serif" font-size="10.00">Sensors::stopTimerSensors</text>
</a>
</g>
</g>
<!-- Node9&#45;&gt;Node35 -->
<g id="edge38" class="edge">
<title>Node9&#45;&gt;Node35</title>
<path fill="none" stroke="midnightblue" d="M280.37,-629.81C313.33,-590.9 400.67,-487.82 435.68,-446.49"/>
<polygon fill="midnightblue" stroke="midnightblue" points="438.52,-448.55 442.32,-438.66 433.18,-444.03 438.52,-448.55"/>
</g>
<!-- Node11 -->
<g id="node11" class="node">
<title>Node11</title>
<g id="a_node11"><a xlink:href="classServoObjectsSystem.html#aee9ba86b5c2d9cb07aff947f28812b83" target="_top" xlink:title="Relâche le couple d&#39;un servo (désactive le maintien).">
<polygon fill="white" stroke="black" points="577.5,-780 577.5,-810 695.5,-810 695.5,-780 577.5,-780"/>
<text text-anchor="start" x="585.5" y="-798" font-family="Helvetica,sans-Serif" font-size="10.00">ServoObjectsSystem</text>
<text text-anchor="middle" x="636.5" y="-787" font-family="Helvetica,sans-Serif" font-size="10.00">::release</text>
</a>
</g>
</g>
<!-- Node10&#45;&gt;Node11 -->
<g id="edge10" class="edge">
<title>Node10&#45;&gt;Node11</title>
<path fill="none" stroke="midnightblue" d="M508.9,-761.1C528.04,-766.23 549.59,-772 569.41,-777.3"/>
<polygon fill="midnightblue" stroke="midnightblue" points="568.72,-780.74 579.29,-779.95 570.53,-773.98 568.72,-780.74"/>
</g>
<!-- Node13 -->
<g id="node13" class="node">
<title>Node13</title>
<g id="a_node13"><a xlink:href="classOPOS6UL__ActionsExtended.html#a1a6ccdf4aae1302cdf664d32ae5a67c6" target="_top" xlink:title="Cette methode retourne l&#39;objet servos.">
<polygon fill="white" stroke="black" points="562,-731 562,-761 711,-761 711,-731 562,-731"/>
<text text-anchor="start" x="570" y="-749" font-family="Helvetica,sans-Serif" font-size="10.00">OPOS6UL_ActionsExtended</text>
<text text-anchor="middle" x="636.5" y="-738" font-family="Helvetica,sans-Serif" font-size="10.00">::servos</text>
</a>
</g>
</g>
<!-- Node10&#45;&gt;Node13 -->
<g id="edge12" class="edge">
<title>Node10&#45;&gt;Node13</title>
<path fill="none" stroke="midnightblue" d="M526.14,-746C534.47,-746 543.01,-746 551.46,-746"/>
<polygon fill="midnightblue" stroke="midnightblue" points="551.71,-749.5 561.71,-746 551.71,-742.5 551.71,-749.5"/>
</g>
<!-- Node12 -->
<g id="node12" class="node">
<title>Node12</title>
<g id="a_node12"><a xlink:href="classAServoDriver.html#a9005ceeeecc056474f1ae6e54ce8ba23" target="_top" xlink:title="Relache le servo (desactive le couple).">
<polygon fill="white" stroke="black" points="764.5,-769.5 764.5,-788.5 887.5,-788.5 887.5,-769.5 764.5,-769.5"/>
<text text-anchor="middle" x="826" y="-776.5" font-family="Helvetica,sans-Serif" font-size="10.00">AServoDriver::release</text>
</a>
</g>
</g>
<!-- Node11&#45;&gt;Node12 -->
<g id="edge11" class="edge">
<title>Node11&#45;&gt;Node12</title>
<path fill="none" stroke="midnightblue" d="M695.54,-790.05C714.13,-788.46 734.93,-786.69 754.32,-785.03"/>
<polygon fill="midnightblue" stroke="midnightblue" points="754.65,-788.52 764.31,-784.18 754.05,-781.54 754.65,-788.52"/>
</g>
<!-- Node15 -->
<g id="node15" class="node">
<title>Node15</title>
<g id="a_node15"><a xlink:href="classLcdShield.html#a9a329fba00c24f56f24266225dcb6a16" target="_top" xlink:title="Efface le contenu de l&#39;écran.">
<polygon fill="white" stroke="black" points="590,-692.5 590,-711.5 683,-711.5 683,-692.5 590,-692.5"/>
<text text-anchor="middle" x="636.5" y="-699.5" font-family="Helvetica,sans-Serif" font-size="10.00">LcdShield::clear</text>
</a>
</g>
</g>
<!-- Node14&#45;&gt;Node15 -->
<g id="edge14" class="edge">
<title>Node14&#45;&gt;Node15</title>
<path fill="none" stroke="midnightblue" d="M498.68,-673.59C523.36,-678.71 553.92,-685.06 579.89,-690.45"/>
<polygon fill="midnightblue" stroke="midnightblue" points="579.47,-693.94 589.97,-692.55 580.89,-687.09 579.47,-693.94"/>
</g>
<!-- Node17 -->
<g id="node17" class="node">
<title>Node17</title>
<g id="a_node17"><a xlink:href="classLcdShield.html#afb23b41227f1de62c1ac3ce853da71e4" target="_top" xlink:title="Positionne le curseur à une position donnée.">
<polygon fill="white" stroke="black" points="578.5,-654.5 578.5,-673.5 694.5,-673.5 694.5,-654.5 578.5,-654.5"/>
<text text-anchor="middle" x="636.5" y="-661.5" font-family="Helvetica,sans-Serif" font-size="10.00">LcdShield::setCursor</text>
</a>
</g>
</g>
<!-- Node14&#45;&gt;Node17 -->
<g id="edge16" class="edge">
<title>Node14&#45;&gt;Node17</title>
<path fill="none" stroke="midnightblue" d="M498.68,-664C519.71,-664 545.01,-664 568.11,-664"/>
<polygon fill="midnightblue" stroke="midnightblue" points="568.19,-667.5 578.19,-664 568.19,-660.5 568.19,-667.5"/>
</g>
<!-- Node16 -->
<g id="node16" class="node">
<title>Node16</title>
<g id="a_node16"><a xlink:href="classALcdShieldDriver.html#abffade6296456b829c9ad18571d9e2eb" target="_top" xlink:title="Efface tout le contenu de l&#39;ecran.">
<polygon fill="white" stroke="black" points="761,-692.5 761,-711.5 891,-711.5 891,-692.5 761,-692.5"/>
<text text-anchor="middle" x="826" y="-699.5" font-family="Helvetica,sans-Serif" font-size="10.00">ALcdShieldDriver::clear</text>
</a>
</g>
</g>
<!-- Node15&#45;&gt;Node16 -->
<g id="edge15" class="edge">
<title>Node15&#45;&gt;Node16</title>
<path fill="none" stroke="midnightblue" d="M683.37,-702C703.58,-702 727.85,-702 750.55,-702"/>
<polygon fill="midnightblue" stroke="midnightblue" points="750.85,-705.5 760.85,-702 750.85,-698.5 750.85,-705.5"/>
</g>
<!-- Node18 -->
<g id="node18" class="node">
<title>Node18</title>
<g id="a_node18"><a xlink:href="classALcdShieldDriver.html#a407f5e535c0f8abf95efff43951f4ae4" target="_top" xlink:title="Positionne le curseur.">
<polygon fill="white" stroke="black" points="750,-654.5 750,-673.5 902,-673.5 902,-654.5 750,-654.5"/>
<text text-anchor="middle" x="826" y="-661.5" font-family="Helvetica,sans-Serif" font-size="10.00">ALcdShieldDriver::setCursor</text>
</a>
</g>
</g>
<!-- Node17&#45;&gt;Node18 -->
<g id="edge17" class="edge">
<title>Node17&#45;&gt;Node18</title>
<path fill="none" stroke="midnightblue" d="M694.52,-664C708.84,-664 724.51,-664 739.88,-664"/>
<polygon fill="midnightblue" stroke="midnightblue" points="739.91,-667.5 749.91,-664 739.91,-660.5 739.91,-667.5"/>
</g>
<!-- Node20 -->
<g id="node20" class="node">
<title>Node20</title>
<g id="a_node20"><a xlink:href="classLedBar.html#a31ff074dd2184f11b0fc4858542a8050" target="_top" xlink:title="Allume/eteint les leds définit par hexValue, max = 0xFF.">
<polygon fill="white" stroke="black" points="971,-616.5 971,-635.5 1051,-635.5 1051,-616.5 971,-616.5"/>
<text text-anchor="middle" x="1011" y="-623.5" font-family="Helvetica,sans-Serif" font-size="10.00">LedBar::flash</text>
</a>
</g>
</g>
<!-- Node19&#45;&gt;Node20 -->
<g id="edge19" class="edge">
<title>Node19&#45;&gt;Node20</title>
<path fill="none" stroke="midnightblue" d="M498.6,-626C602.36,-626 853.55,-626 960.48,-626"/>
<polygon fill="midnightblue" stroke="midnightblue" points="960.67,-629.5 970.67,-626 960.67,-622.5 960.67,-629.5"/>
</g>
<!-- Node21 -->
<g id="node21" class="node">
<title>Node21</title>
<g id="a_node21"><a xlink:href="classLedBar.html#a349f726f4e7cd0058f95b6c9d9453b18" target="_top" xlink:title="Retourne le Logger associé à la classe LedBar.">
<polygon fill="white" stroke="black" points="1137,-597.5 1137,-616.5 1224,-616.5 1224,-597.5 1137,-597.5"/>
<text text-anchor="middle" x="1180.5" y="-604.5" font-family="Helvetica,sans-Serif" font-size="10.00">LedBar::logger</text>
</a>
</g>
</g>
<!-- Node20&#45;&gt;Node21 -->
<g id="edge20" class="edge">
<title>Node20&#45;&gt;Node21</title>
<path fill="none" stroke="midnightblue" d="M1051.27,-621.55C1073.78,-618.99 1102.32,-615.75 1126.76,-612.98"/>
<polygon fill="midnightblue" stroke="midnightblue" points="1127.41,-616.43 1136.95,-611.83 1126.62,-609.48 1127.41,-616.43"/>
</g>
<!-- Node26 -->
<g id="node26" class="node">
<title>Node26</title>
<g id="a_node26"><a xlink:href="classlogs_1_1Logger.html#ae55afdeeb1bc9acb6dc02a3e2d06062f" target="_top" xlink:title="Trace un message de niveau TELEM.">
<polygon fill="white" stroke="black" points="1299,-521.5 1299,-540.5 1429,-540.5 1429,-521.5 1299,-521.5"/>
<text text-anchor="middle" x="1364" y="-528.5" font-family="Helvetica,sans-Serif" font-size="10.00">logs::Logger::telemetry</text>
</a>
</g>
</g>
<!-- Node20&#45;&gt;Node26 -->
<g id="edge25" class="edge">
<title>Node20&#45;&gt;Node26</title>
<path fill="none" stroke="midnightblue" d="M1051.16,-620.51C1061.57,-617.7 1072.32,-613.44 1081,-607 1105.07,-589.15 1091.34,-565.46 1117,-550 1170.14,-517.98 1241.9,-516.11 1294.2,-520.52"/>
<polygon fill="midnightblue" stroke="midnightblue" points="1294.1,-524.03 1304.38,-521.48 1294.76,-517.06 1294.1,-524.03"/>
</g>
<!-- Node22 -->
<g id="node22" class="node">
<title>Node22</title>
<g id="a_node22"><a xlink:href="classlogs_1_1LoggerFactory.html#a82585b5de73e471e06cafdccc3b3721e" target="_top" xlink:title="Cette méthode statique retourne un Logger en fonction de son nom.">
<polygon fill="white" stroke="black" points="1308.5,-560 1308.5,-590 1419.5,-590 1419.5,-560 1308.5,-560"/>
<text text-anchor="start" x="1316.5" y="-578" font-family="Helvetica,sans-Serif" font-size="10.00">logs::LoggerFactory</text>
<text text-anchor="middle" x="1364" y="-567" font-family="Helvetica,sans-Serif" font-size="10.00">::logger</text>
</a>
</g>
</g>
<!-- Node21&#45;&gt;Node22 -->
<g id="edge21" class="edge">
<title>Node21&#45;&gt;Node22</title>
<path fill="none" stroke="midnightblue" d="M1224.05,-599.5C1246.16,-595.6 1273.63,-590.76 1298.3,-586.41"/>
<polygon fill="midnightblue" stroke="midnightblue" points="1299.07,-589.82 1308.31,-584.64 1297.86,-582.93 1299.07,-589.82"/>
</g>
<!-- Node23 -->
<g id="node23" class="node">
<title>Node23</title>
<g id="a_node23"><a xlink:href="classlogs_1_1LoggerFactory.html#ac89f19c0ffd71aa8cdc1c2d44c03809e" target="_top" xlink:title="Cette méthode ajoute un appender au système.">
<polygon fill="white" stroke="black" points="1492,-609.5 1492,-628.5 1626,-628.5 1626,-609.5 1492,-609.5"/>
<text text-anchor="middle" x="1559" y="-616.5" font-family="Helvetica,sans-Serif" font-size="10.00">logs::LoggerFactory::add</text>
</a>
</g>
</g>
<!-- Node22&#45;&gt;Node23 -->
<g id="edge22" class="edge">
<title>Node22&#45;&gt;Node23</title>
<path fill="none" stroke="midnightblue" d="M1419.53,-587.43C1446.71,-593.63 1479.41,-601.08 1506.21,-607.19"/>
<polygon fill="midnightblue" stroke="midnightblue" points="1505.64,-610.65 1516.16,-609.46 1507.19,-603.83 1505.64,-610.65"/>
</g>
<!-- Node24 -->
<g id="node24" class="node">
<title>Node24</title>
<g id="a_node24"><a xlink:href="classlogs_1_1LoggerFactory.html#a90478b91d7af2ef8841ded21e3521f69" target="_top" xlink:title="Cette méthode statique retourne l&#39;instance unique de la classe LoggerFactory.">
<polygon fill="white" stroke="black" points="1503.5,-560 1503.5,-590 1614.5,-590 1614.5,-560 1503.5,-560"/>
<text text-anchor="start" x="1511.5" y="-578" font-family="Helvetica,sans-Serif" font-size="10.00">logs::LoggerFactory</text>
<text text-anchor="middle" x="1559" y="-567" font-family="Helvetica,sans-Serif" font-size="10.00">::instance</text>
</a>
</g>
</g>
<!-- Node22&#45;&gt;Node24 -->
<g id="edge23" class="edge">
<title>Node22&#45;&gt;Node24</title>
<path fill="none" stroke="midnightblue" d="M1419.53,-575C1442.45,-575 1469.3,-575 1493.22,-575"/>
<polygon fill="midnightblue" stroke="midnightblue" points="1493.27,-578.5 1503.27,-575 1493.27,-571.5 1493.27,-578.5"/>
</g>
<!-- Node25 -->
<g id="node25" class="node">
<title>Node25</title>
<g id="a_node25"><a xlink:href="classlogs_1_1LoggerFactory.html#a212aa623f4b6bee12cb39e8017dde670" target="_top" xlink:title="Cette méthode retourne le Logger principal qui définit le niveau de trace par défaut.">
<polygon fill="white" stroke="black" points="1503.5,-511 1503.5,-541 1614.5,-541 1614.5,-511 1503.5,-511"/>
<text text-anchor="start" x="1511.5" y="-529" font-family="Helvetica,sans-Serif" font-size="10.00">logs::LoggerFactory</text>
<text text-anchor="middle" x="1559" y="-518" font-family="Helvetica,sans-Serif" font-size="10.00">::rootLogger</text>
</a>
</g>
</g>
<!-- Node22&#45;&gt;Node25 -->
<g id="edge24" class="edge">
<title>Node22&#45;&gt;Node25</title>
<path fill="none" stroke="midnightblue" d="M1419.53,-561.16C1442.56,-555.31 1469.54,-548.46 1493.54,-542.37"/>
<polygon fill="midnightblue" stroke="midnightblue" points="1494.44,-545.75 1503.27,-539.9 1492.71,-538.96 1494.44,-545.75"/>
</g>
<!-- Node27 -->
<g id="node27" class="node">
<title>Node27</title>
<g id="a_node27"><a xlink:href="classlogs_1_1Logger.html#afa535aaf4891e02c4ff7f84d372b5b1b" target="_top" xlink:title="Méthode générique de trace d&#39;un message.">
<polygon fill="white" stroke="black" points="1484,-459.5 1484,-478.5 1634,-478.5 1634,-459.5 1484,-459.5"/>
<text text-anchor="middle" x="1559" y="-466.5" font-family="Helvetica,sans-Serif" font-size="10.00">logs::Logger::writeMessage</text>
</a>
</g>
</g>
<!-- Node26&#45;&gt;Node27 -->
<g id="edge26" class="edge">
<title>Node26&#45;&gt;Node27</title>
<path fill="none" stroke="midnightblue" d="M1399.44,-521.47C1414.42,-517.21 1432.13,-512.03 1448,-507 1472.77,-499.14 1500.42,-489.59 1521.8,-482.03"/>
<polygon fill="midnightblue" stroke="midnightblue" points="1523.2,-485.24 1531.45,-478.6 1520.86,-478.65 1523.2,-485.24"/>
</g>
<!-- Node29 -->
<g id="node29" class="node">
<title>Node29</title>
<g id="a_node29"><a xlink:href="classLedBar.html#a443827fdcb184f64cd2f71861564faed" target="_top" xlink:title="Color de la led a appliquer. ‍/ LedColor color_;.">
<polygon fill="white" stroke="black" points="965,-578.5 965,-597.5 1057,-597.5 1057,-578.5 965,-578.5"/>
<text text-anchor="middle" x="1011" y="-585.5" font-family="Helvetica,sans-Serif" font-size="10.00">LedBar::waiting</text>
</a>
</g>
</g>
<!-- Node28&#45;&gt;Node29 -->
<g id="edge28" class="edge">
<title>Node28&#45;&gt;Node29</title>
<path fill="none" stroke="midnightblue" d="M490.38,-588C586.75,-588 841.59,-588 954.64,-588"/>
<polygon fill="midnightblue" stroke="midnightblue" points="954.81,-591.5 964.81,-588 954.8,-584.5 954.81,-591.5"/>
</g>
<!-- Node29&#45;&gt;Node7 -->
<g id="edge37" class="edge">
<title>Node29&#45;&gt;Node7</title>
<path fill="none" stroke="midnightblue" d="M1057.13,-595.51C1065.55,-598.24 1073.92,-601.95 1081,-607 1126.85,-639.72 1158.07,-700.9 1171.71,-731.92"/>
<polygon fill="midnightblue" stroke="midnightblue" points="1168.53,-733.37 1175.66,-741.2 1174.97,-730.62 1168.53,-733.37"/>
</g>
<!-- Node29&#45;&gt;Node21 -->
<g id="edge36" class="edge">
<title>Node29&#45;&gt;Node21</title>
<path fill="none" stroke="midnightblue" d="M1057.33,-593.14C1078.75,-595.57 1104.46,-598.49 1126.75,-601.02"/>
<polygon fill="midnightblue" stroke="midnightblue" points="1126.4,-604.5 1136.73,-602.15 1127.19,-597.54 1126.4,-604.5"/>
</g>
<!-- Node30 -->
<g id="node30" class="node">
<title>Node30</title>
<g id="a_node30"><a xlink:href="namespacelogs.html#ac6f325c6cfe6189bc8e243daa184453b" target="_top" xlink:title="Cette méthode permet de finir les flux de construction par la notation.">
<polygon fill="white" stroke="black" points="1150,-240.5 1150,-259.5 1211,-259.5 1211,-240.5 1150,-240.5"/>
<text text-anchor="middle" x="1180.5" y="-247.5" font-family="Helvetica,sans-Serif" font-size="10.00">logs::end</text>
</a>
</g>
</g>
<!-- Node29&#45;&gt;Node30 -->
<g id="edge29" class="edge">
<title>Node29&#45;&gt;Node30</title>
<path fill="none" stroke="midnightblue" d="M1028.84,-578.47C1044.7,-568.62 1067.92,-551.78 1081,-531 1116.38,-474.81 1095.04,-448.66 1117,-386 1132.17,-342.7 1156.15,-294.44 1169.56,-268.65"/>
<polygon fill="midnightblue" stroke="midnightblue" points="1172.75,-270.12 1174.3,-259.64 1166.55,-266.86 1172.75,-270.12"/>
</g>
<!-- Node34 -->
<g id="node34" class="node">
<title>Node34</title>
<g id="a_node34"><a xlink:href="classlogs_1_1Logger.html#a8b6a2019233bc44b3c3c86c653910831" target="_top" xlink:title="Trace un message de niveau ERROR.">
<polygon fill="white" stroke="black" points="1128,-445.5 1128,-464.5 1233,-464.5 1233,-445.5 1128,-445.5"/>
<text text-anchor="middle" x="1180.5" y="-452.5" font-family="Helvetica,sans-Serif" font-size="10.00">logs::Logger::error</text>
</a>
</g>
</g>
<!-- Node29&#45;&gt;Node34 -->
<g id="edge34" class="edge">
<title>Node29&#45;&gt;Node34</title>
<path fill="none" stroke="midnightblue" d="M1024.05,-578.43C1052.4,-555.92 1123.61,-499.38 1158.95,-471.32"/>
<polygon fill="midnightblue" stroke="midnightblue" points="1161.46,-473.8 1167.11,-464.84 1157.1,-468.31 1161.46,-473.8"/>
</g>
<!-- Node31 -->
<g id="node31" class="node">
<title>Node31</title>
<g id="a_node31"><a xlink:href="classlogs_1_1Logger_1_1LoggerBuffer.html#a0e4fd77693fd899ec1b0670354f93a02" target="_top" xlink:title="Cette méthode valide le message en cours de construction et le transmet au Logger de référence.">
<polygon fill="white" stroke="black" points="1280,-240.5 1280,-259.5 1448,-259.5 1448,-240.5 1280,-240.5"/>
<text text-anchor="middle" x="1364" y="-247.5" font-family="Helvetica,sans-Serif" font-size="10.00">logs::Logger::LoggerBuffer::end</text>
</a>
</g>
</g>
<!-- Node30&#45;&gt;Node31 -->
<g id="edge30" class="edge">
<title>Node30&#45;&gt;Node31</title>
<path fill="none" stroke="midnightblue" d="M1211.07,-250C1227.28,-250 1248.38,-250 1269.66,-250"/>
<polygon fill="midnightblue" stroke="midnightblue" points="1269.77,-253.5 1279.77,-250 1269.77,-246.5 1269.77,-253.5"/>
</g>
<!-- Node31&#45;&gt;Node27 -->
<g id="edge33" class="edge">
<title>Node31&#45;&gt;Node27</title>
<path fill="none" stroke="midnightblue" d="M1373.54,-259.69C1403.56,-293.75 1504.47,-408.26 1542.93,-451.9"/>
<polygon fill="midnightblue" stroke="midnightblue" points="1540.32,-454.23 1549.56,-459.42 1545.57,-449.6 1540.32,-454.23"/>
</g>
<!-- Node32 -->
<g id="node32" class="node">
<title>Node32</title>
<g id="a_node32"><a xlink:href="classutils_1_1Mutex.html#aa584b418a5ef484f76b93e361a1d7e32" target="_top" xlink:title="Verrouille le mutex. Cette méthode doit être appelée avant d&#39;utiliser la ressource associée....">
<polygon fill="white" stroke="black" points="1508.5,-221.5 1508.5,-240.5 1609.5,-240.5 1609.5,-221.5 1508.5,-221.5"/>
<text text-anchor="middle" x="1559" y="-228.5" font-family="Helvetica,sans-Serif" font-size="10.00">utils::Mutex::lock</text>
</a>
</g>
</g>
<!-- Node31&#45;&gt;Node32 -->
<g id="edge31" class="edge">
<title>Node31&#45;&gt;Node32</title>
<path fill="none" stroke="midnightblue" d="M1448.25,-241.8C1465.07,-240.15 1482.44,-238.44 1498.26,-236.88"/>
<polygon fill="midnightblue" stroke="midnightblue" points="1498.8,-240.34 1508.41,-235.88 1498.12,-233.38 1498.8,-240.34"/>
</g>
<!-- Node33 -->
<g id="node33" class="node">
<title>Node33</title>
<g id="a_node33"><a xlink:href="classutils_1_1Mutex.html#a59b2079dc7f803d49f78ac9c04406cd3" target="_top" xlink:title="Déverrouille le mutex. Cette méthode doit être appelée après avoir utiliser la ressource associée.">
<polygon fill="white" stroke="black" points="1502.5,-136.5 1502.5,-155.5 1615.5,-155.5 1615.5,-136.5 1502.5,-136.5"/>
<text text-anchor="middle" x="1559" y="-143.5" font-family="Helvetica,sans-Serif" font-size="10.00">utils::Mutex::unlock</text>
</a>
</g>
</g>
<!-- Node31&#45;&gt;Node33 -->
<g id="edge32" class="edge">
<title>Node31&#45;&gt;Node33</title>
<path fill="none" stroke="midnightblue" d="M1382.81,-240.4C1416.85,-222.06 1491.3,-181.94 1531.31,-160.38"/>
<polygon fill="midnightblue" stroke="midnightblue" points="1533.09,-163.4 1540.23,-155.57 1529.77,-157.24 1533.09,-163.4"/>
</g>
<!-- Node34&#45;&gt;Node27 -->
<g id="edge35" class="edge">
<title>Node34&#45;&gt;Node27</title>
<path fill="none" stroke="midnightblue" d="M1233.06,-456.92C1295,-459.22 1399.76,-463.12 1473.56,-465.86"/>
<polygon fill="midnightblue" stroke="midnightblue" points="1473.64,-469.37 1483.76,-466.24 1473.9,-462.37 1473.64,-469.37"/>
</g>
<!-- Node35&#45;&gt;Node30 -->
<g id="edge42" class="edge">
<title>Node35&#45;&gt;Node30</title>
<path fill="none" stroke="midnightblue" d="M463.53,-419.41C513.88,-376.37 728.54,-200.62 941,-143 1001.05,-126.71 1024.02,-118.01 1081,-143 1122.42,-161.17 1154.1,-206.29 1169.39,-231.76"/>
<polygon fill="midnightblue" stroke="midnightblue" points="1166.39,-233.57 1174.44,-240.46 1172.45,-230.05 1166.39,-233.57"/>
</g>
<!-- Node36 -->
<g id="node36" class="node">
<title>Node36</title>
<g id="a_node36"><a xlink:href="classAActionsElement.html#a3fbd5b8201049a59602d8b7201a9ef8a" target="_top" xlink:title="Retourne une référence sur le Actions associé.">
<polygon fill="white" stroke="black" points="566,-0.5 566,-19.5 707,-19.5 707,-0.5 566,-0.5"/>
<text text-anchor="middle" x="636.5" y="-7.5" font-family="Helvetica,sans-Serif" font-size="10.00">AActionsElement::actions</text>
</a>
</g>
</g>
<!-- Node35&#45;&gt;Node36 -->
<g id="edge39" class="edge">
<title>Node35&#45;&gt;Node36</title>
<path fill="none" stroke="midnightblue" d="M452.1,-419.44C450.62,-371.03 450.38,-150.78 562,-34 565.67,-30.16 569.97,-26.93 574.61,-24.22"/>
<polygon fill="midnightblue" stroke="midnightblue" points="576.48,-27.19 583.88,-19.61 573.36,-20.93 576.48,-27.19"/>
</g>
<!-- Node37 -->
<g id="node37" class="node">
<title>Node37</title>
<g id="a_node37"><a xlink:href="classlogs_1_1Logger.html#a7dffc8f610014ec59b63392da16140e4" target="_top" xlink:title="Trace un message de niveau DEBUG.">
<polygon fill="white" stroke="black" points="955,-502.5 955,-521.5 1067,-521.5 1067,-502.5 955,-502.5"/>
<text text-anchor="middle" x="1011" y="-509.5" font-family="Helvetica,sans-Serif" font-size="10.00">logs::Logger::debug</text>
</a>
</g>
</g>
<!-- Node35&#45;&gt;Node37 -->
<g id="edge40" class="edge">
<title>Node35&#45;&gt;Node37</title>
<path fill="none" stroke="midnightblue" d="M516.45,-438.52C623.26,-454.42 836.84,-486.22 944.6,-502.26"/>
<polygon fill="midnightblue" stroke="midnightblue" points="944.29,-505.76 954.69,-503.77 945.32,-498.83 944.29,-505.76"/>
</g>
<!-- Node38 -->
<g id="node38" class="node">
<title>Node38</title>
<g id="a_node38"><a xlink:href="classSensors.html#a445b086f263ac98b47cb545d11b73ab1" target="_top" xlink:title=" ">
<polygon fill="white" stroke="black" points="1134.5,-559.5 1134.5,-578.5 1226.5,-578.5 1226.5,-559.5 1134.5,-559.5"/>
<text text-anchor="middle" x="1180.5" y="-566.5" font-family="Helvetica,sans-Serif" font-size="10.00">Sensors::logger</text>
</a>
</g>
</g>
<!-- Node35&#45;&gt;Node38 -->
<g id="edge43" class="edge">
<title>Node35&#45;&gt;Node38</title>
<path fill="none" stroke="midnightblue" d="M473.46,-438.55C495.19,-448.09 530.34,-462.51 562,-471 765.4,-525.5 1015.12,-553.68 1124.16,-564.13"/>
<polygon fill="midnightblue" stroke="midnightblue" points="1123.99,-567.63 1134.27,-565.09 1124.65,-560.66 1123.99,-567.63"/>
</g>
<!-- Node39 -->
<g id="node39" class="node">
<title>Node39</title>
<g id="a_node39"><a xlink:href="classActions.html#a0ae27b3ac9fc5d07e8da95d6b3eb130a" target="_top" xlink:title="Arrête un timer POSIX par son nom.">
<polygon fill="white" stroke="black" points="579.5,-398.5 579.5,-417.5 693.5,-417.5 693.5,-398.5 579.5,-398.5"/>
<text text-anchor="middle" x="636.5" y="-405.5" font-family="Helvetica,sans-Serif" font-size="10.00">Actions::stopPTimer</text>
</a>
</g>
</g>
<!-- Node35&#45;&gt;Node39 -->
<g id="edge45" class="edge">
<title>Node35&#45;&gt;Node39</title>
<path fill="none" stroke="midnightblue" d="M526.14,-420.55C540.45,-418.91 555.36,-417.2 569.4,-415.58"/>
<polygon fill="midnightblue" stroke="midnightblue" points="569.92,-419.05 579.46,-414.43 569.12,-412.09 569.92,-419.05"/>
</g>
<!-- Node37&#45;&gt;Node27 -->
<g id="edge41" class="edge">
<title>Node37&#45;&gt;Node27</title>
<path fill="none" stroke="midnightblue" d="M1067.11,-507.66C1162.91,-500.12 1360.73,-484.54 1473.82,-475.63"/>
<polygon fill="midnightblue" stroke="midnightblue" points="1474.13,-479.12 1483.82,-474.84 1473.58,-472.14 1474.13,-479.12"/>
</g>
<!-- Node38&#45;&gt;Node22 -->
<g id="edge44" class="edge">
<title>Node38&#45;&gt;Node22</title>
<path fill="none" stroke="midnightblue" d="M1226.83,-570.5C1248.33,-571.21 1274.4,-572.07 1297.95,-572.85"/>
<polygon fill="midnightblue" stroke="midnightblue" points="1298.11,-576.36 1308.22,-573.19 1298.34,-569.36 1298.11,-576.36"/>
</g>
<!-- Node40 -->
<g id="node40" class="node">
<title>Node40</title>
<g id="a_node40"><a xlink:href="classActionManagerTimer.html#a77bc841824ad1722363dd29a351a74cf" target="_top" xlink:title="Arrete un timer posix specifique. Permet d&#39;executer son action de fin puis le supprime de la liste.">
<polygon fill="white" stroke="black" points="766.5,-303 766.5,-333 885.5,-333 885.5,-303 766.5,-303"/>
<text text-anchor="start" x="774.5" y="-321" font-family="Helvetica,sans-Serif" font-size="10.00">ActionManagerTimer</text>
<text text-anchor="middle" x="826" y="-310" font-family="Helvetica,sans-Serif" font-size="10.00">::stopPTimer</text>
</a>
</g>
</g>
<!-- Node39&#45;&gt;Node40 -->
<g id="edge46" class="edge">
<title>Node39&#45;&gt;Node40</title>
<path fill="none" stroke="midnightblue" d="M657.57,-398.37C687.74,-383.88 745.42,-356.2 784.55,-337.41"/>
<polygon fill="midnightblue" stroke="midnightblue" points="786.08,-340.56 793.58,-333.08 783.05,-334.25 786.08,-340.56"/>
</g>
<!-- Node40&#45;&gt;Node30 -->
<g id="edge50" class="edge">
<title>Node40&#45;&gt;Node30</title>
<path fill="none" stroke="midnightblue" d="M855.15,-302.82C877.68,-291.43 910.47,-276.56 941,-269 1009.22,-252.11 1091.45,-249.25 1139.37,-249.25"/>
<polygon fill="midnightblue" stroke="midnightblue" points="1139.62,-252.75 1149.63,-249.29 1139.65,-245.75 1139.62,-252.75"/>
</g>
<!-- Node40&#45;&gt;Node32 -->
<g id="edge51" class="edge">
<title>Node40&#45;&gt;Node32</title>
<path fill="none" stroke="midnightblue" d="M845.37,-302.72C866.82,-285.83 904.09,-259.39 941,-247 1136.05,-181.53 1385.6,-205.27 1498.17,-221.23"/>
<polygon fill="midnightblue" stroke="midnightblue" points="1497.91,-224.72 1508.31,-222.7 1498.92,-217.8 1497.91,-224.72"/>
</g>
<!-- Node40&#45;&gt;Node33 -->
<g id="edge65" class="edge">
<title>Node40&#45;&gt;Node33</title>
<path fill="none" stroke="midnightblue" d="M829.69,-302.78C837.81,-261.88 866.34,-149.72 941,-105 1136.46,12.08 1431.91,-93.15 1527.21,-132.55"/>
<polygon fill="midnightblue" stroke="midnightblue" points="1525.99,-135.83 1536.56,-136.47 1528.7,-129.38 1525.99,-135.83"/>
</g>
<!-- Node40&#45;&gt;Node37 -->
<g id="edge48" class="edge">
<title>Node40&#45;&gt;Node37</title>
<path fill="none" stroke="midnightblue" d="M837.13,-333.24C864.7,-374.71 939.17,-486.59 941,-488 946.46,-492.22 952.72,-495.73 959.19,-498.64"/>
<polygon fill="midnightblue" stroke="midnightblue" points="958.17,-502 968.75,-502.49 960.78,-495.51 958.17,-502"/>
</g>
<!-- Node41 -->
<g id="node41" class="node">
<title>Node41</title>
<g id="a_node41"><a xlink:href="classutils_1_1PointerList.html#a501664b90309db885554d35e89739681" target="_top" xlink:title="Returns a read/write iterator that points to the first element in the list. Iteration is done in ordi...">
<polygon fill="white" stroke="black" points="963.5,-153 963.5,-183 1058.5,-183 1058.5,-153 963.5,-153"/>
<text text-anchor="start" x="971.5" y="-171" font-family="Helvetica,sans-Serif" font-size="10.00">utils::PointerList</text>
<text text-anchor="middle" x="1011" y="-160" font-family="Helvetica,sans-Serif" font-size="10.00">::begin</text>
</a>
</g>
</g>
<!-- Node40&#45;&gt;Node41 -->
<g id="edge47" class="edge">
<title>Node40&#45;&gt;Node41</title>
<path fill="none" stroke="midnightblue" d="M838.09,-302.86C856.87,-278.11 897.21,-228.64 941,-198 946.54,-194.13 952.65,-190.59 958.89,-187.42"/>
<polygon fill="midnightblue" stroke="midnightblue" points="960.55,-190.51 968.06,-183.03 957.53,-184.19 960.55,-190.51"/>
</g>
<!-- Node42 -->
<g id="node42" class="node">
<title>Node42</title>
<g id="a_node42"><a xlink:href="classutils_1_1PointerList.html#a9607cdd93b715a838e015452a49f61d5" target="_top" xlink:title="Returns a read/write iterator that points one past the last element in the list. Iteration is done in...">
<polygon fill="white" stroke="black" points="951.5,-426.5 951.5,-445.5 1070.5,-445.5 1070.5,-426.5 951.5,-426.5"/>
<text text-anchor="middle" x="1011" y="-433.5" font-family="Helvetica,sans-Serif" font-size="10.00">utils::PointerList::end</text>
</a>
</g>
</g>
<!-- Node40&#45;&gt;Node42 -->
<g id="edge49" class="edge">
<title>Node40&#45;&gt;Node42</title>
<path fill="none" stroke="midnightblue" d="M840.59,-333.23C860.55,-354.71 899.91,-393.76 941,-416 945.94,-418.67 951.27,-421.02 956.71,-423.08"/>
<polygon fill="midnightblue" stroke="midnightblue" points="955.95,-426.52 966.54,-426.48 958.23,-419.91 955.95,-426.52"/>
</g>
<!-- Node43 -->
<g id="node43" class="node">
<title>Node43</title>
<g id="a_node43"><a xlink:href="classActionManagerTimer.html#a280846361e5c7e0ebe57972755841c2b" target="_top" xlink:title=" ">
<polygon fill="white" stroke="black" points="1121,-396 1121,-426 1240,-426 1240,-396 1121,-396"/>
<text text-anchor="start" x="1129" y="-414" font-family="Helvetica,sans-Serif" font-size="10.00">ActionManagerTimer</text>
<text text-anchor="middle" x="1180.5" y="-403" font-family="Helvetica,sans-Serif" font-size="10.00">::logger</text>
</a>
</g>
</g>
<!-- Node40&#45;&gt;Node43 -->
<g id="edge52" class="edge">
<title>Node40&#45;&gt;Node43</title>
<path fill="none" stroke="midnightblue" d="M834.03,-333.27C848.82,-363.3 886.37,-429.39 941,-455 997.34,-481.41 1020.6,-469.96 1081,-455 1098.56,-450.65 1100.58,-443.59 1117,-436 1121.35,-433.99 1125.9,-431.98 1130.49,-430.03"/>
<polygon fill="midnightblue" stroke="midnightblue" points="1132.01,-433.19 1139.89,-426.11 1129.31,-426.73 1132.01,-433.19"/>
</g>
<!-- Node44 -->
<g id="node44" class="node">
<title>Node44</title>
<g id="a_node44"><a xlink:href="classITimerPosixListener.html#a56abc90e01e315320b855399b2c0096e" target="_top" xlink:title="Getter sur les infos permettant d&#39;identifier le timer.">
<polygon fill="white" stroke="black" points="954.5,-377 954.5,-407 1067.5,-407 1067.5,-377 954.5,-377"/>
<text text-anchor="start" x="962.5" y="-395" font-family="Helvetica,sans-Serif" font-size="10.00">ITimerPosixListener</text>
<text text-anchor="middle" x="1011" y="-384" font-family="Helvetica,sans-Serif" font-size="10.00">::name</text>
</a>
</g>
</g>
<!-- Node40&#45;&gt;Node44 -->
<g id="edge54" class="edge">
<title>Node40&#45;&gt;Node44</title>
<path fill="none" stroke="midnightblue" d="M860.71,-333.1C883.29,-343.07 913.76,-356.22 941,-367 946.39,-369.13 952.04,-371.3 957.69,-373.41"/>
<polygon fill="midnightblue" stroke="midnightblue" points="956.56,-376.73 967.16,-376.92 958.99,-370.16 956.56,-376.73"/>
</g>
<!-- Node45 -->
<g id="node45" class="node">
<title>Node45</title>
<g id="a_node45"><a xlink:href="classITimerPosixListener.html#a4df70962b58b13d521f1f7f91ec6fc13" target="_top" xlink:title="Actions de fin à executer pour le timer.">
<polygon fill="white" stroke="black" points="954.5,-279 954.5,-309 1067.5,-309 1067.5,-279 954.5,-279"/>
<text text-anchor="start" x="962.5" y="-297" font-family="Helvetica,sans-Serif" font-size="10.00">ITimerPosixListener</text>
<text text-anchor="middle" x="1011" y="-286" font-family="Helvetica,sans-Serif" font-size="10.00">::onTimerEnd</text>
</a>
</g>
</g>
<!-- Node40&#45;&gt;Node45 -->
<g id="edge55" class="edge">
<title>Node40&#45;&gt;Node45</title>
<path fill="none" stroke="midnightblue" d="M885.66,-310.31C904.36,-307.85 925.16,-305.13 944.33,-302.61"/>
<polygon fill="midnightblue" stroke="midnightblue" points="945.02,-306.05 954.48,-301.28 944.11,-299.11 945.02,-306.05"/>
</g>
<!-- Node46 -->
<g id="node46" class="node">
<title>Node46</title>
<g id="a_node46"><a xlink:href="classITimerPosixListener.html#a80bdf978eda3cfa0d9271a3c2e1d3f3a" target="_top" xlink:title=" ">
<polygon fill="white" stroke="black" points="1307.5,-153 1307.5,-183 1420.5,-183 1420.5,-153 1307.5,-153"/>
<text text-anchor="start" x="1315.5" y="-171" font-family="Helvetica,sans-Serif" font-size="10.00">ITimerPosixListener</text>
<text text-anchor="middle" x="1364" y="-160" font-family="Helvetica,sans-Serif" font-size="10.00">::remove</text>
</a>
</g>
</g>
<!-- Node40&#45;&gt;Node46 -->
<g id="edge56" class="edge">
<title>Node40&#45;&gt;Node46</title>
<path fill="none" stroke="midnightblue" d="M831.4,-302.85C842.69,-267.12 876.45,-177.99 941,-143 1062.06,-77.38 1232.35,-121.38 1314.67,-149.56"/>
<polygon fill="midnightblue" stroke="midnightblue" points="1313.67,-152.92 1324.27,-152.91 1315.98,-146.31 1313.67,-152.92"/>
</g>
<!-- Node47 -->
<g id="node47" class="node">
<title>Node47</title>
<g id="a_node47"><a xlink:href="classActionManagerTimer.html#a39f4cbb5ddbbe6a40980bb59b8b59b05" target="_top" xlink:title=" ">
<polygon fill="white" stroke="black" points="951.5,-328 951.5,-358 1070.5,-358 1070.5,-328 951.5,-328"/>
<text text-anchor="start" x="959.5" y="-346" font-family="Helvetica,sans-Serif" font-size="10.00">ActionManagerTimer</text>
<text text-anchor="middle" x="1011" y="-335" font-family="Helvetica,sans-Serif" font-size="10.00">::unblock</text>
</a>
</g>
</g>
<!-- Node40&#45;&gt;Node47 -->
<g id="edge59" class="edge">
<title>Node40&#45;&gt;Node47</title>
<path fill="none" stroke="midnightblue" d="M885.66,-326.01C903.39,-328.44 923.01,-331.12 941.34,-333.62"/>
<polygon fill="midnightblue" stroke="midnightblue" points="940.98,-337.1 951.36,-334.99 941.93,-330.17 940.98,-337.1"/>
</g>
<!-- Node43&#45;&gt;Node22 -->
<g id="edge53" class="edge">
<title>Node43&#45;&gt;Node22</title>
<path fill="none" stroke="midnightblue" d="M1231.59,-426.1C1236.17,-428.87 1240.42,-432.15 1244,-436 1280.14,-474.95 1242.18,-512.68 1280,-550 1285.38,-555.3 1291.83,-559.49 1298.74,-562.79"/>
<polygon fill="midnightblue" stroke="midnightblue" points="1297.81,-566.19 1308.39,-566.77 1300.48,-559.72 1297.81,-566.19"/>
</g>
<!-- Node46&#45;&gt;Node32 -->
<g id="edge57" class="edge">
<title>Node46&#45;&gt;Node32</title>
<path fill="none" stroke="midnightblue" d="M1411.23,-183.09C1444.13,-193.83 1487.86,-208.1 1519,-218.27"/>
<polygon fill="midnightblue" stroke="midnightblue" points="1518.05,-221.64 1528.64,-221.42 1520.22,-214.99 1518.05,-221.64"/>
</g>
<!-- Node46&#45;&gt;Node33 -->
<g id="edge58" class="edge">
<title>Node46&#45;&gt;Node33</title>
<path fill="none" stroke="midnightblue" d="M1420.56,-161.67C1442.97,-159.11 1469,-156.15 1492.33,-153.49"/>
<polygon fill="midnightblue" stroke="midnightblue" points="1492.95,-156.94 1502.49,-152.33 1492.16,-149.98 1492.95,-156.94"/>
</g>
<!-- Node47&#45;&gt;Node30 -->
<g id="edge60" class="edge">
<title>Node47&#45;&gt;Node30</title>
<path fill="none" stroke="midnightblue" d="M1058.72,-327.92C1066.31,-324.95 1073.98,-321.62 1081,-318 1109.99,-303.06 1140.46,-280.87 1159.7,-265.95"/>
<polygon fill="midnightblue" stroke="midnightblue" points="1162,-268.59 1167.7,-259.65 1157.68,-263.09 1162,-268.59"/>
</g>
<!-- Node47&#45;&gt;Node32 -->
<g id="edge62" class="edge">
<title>Node47&#45;&gt;Node32</title>
<path fill="none" stroke="midnightblue" d="M1070.82,-336.14C1155.19,-325.6 1315.04,-303 1448,-269 1474.14,-262.31 1502.94,-252.26 1524.52,-244.18"/>
<polygon fill="midnightblue" stroke="midnightblue" points="1525.78,-247.44 1533.88,-240.62 1523.29,-240.9 1525.78,-247.44"/>
</g>
<!-- Node47&#45;&gt;Node33 -->
<g id="edge64" class="edge">
<title>Node47&#45;&gt;Node33</title>
<path fill="none" stroke="midnightblue" d="M1067.25,-327.93C1072.25,-325.16 1076.95,-321.87 1081,-318 1111.24,-289.08 1088.97,-262.07 1117,-231 1172.15,-169.87 1200.18,-163.17 1280,-143 1350.96,-125.07 1435.4,-129.43 1492.45,-135.97"/>
<polygon fill="midnightblue" stroke="midnightblue" points="1492.08,-139.45 1502.42,-137.17 1492.91,-132.5 1492.08,-139.45"/>
</g>
<!-- Node47&#45;&gt;Node34 -->
<g id="edge61" class="edge">
<title>Node47&#45;&gt;Node34</title>
<path fill="none" stroke="midnightblue" d="M1067.56,-358C1072.38,-360.55 1076.96,-363.53 1081,-367 1106.95,-389.27 1090.77,-413.05 1117,-435 1119.7,-437.26 1122.67,-439.27 1125.79,-441.05"/>
<polygon fill="midnightblue" stroke="midnightblue" points="1124.39,-444.26 1134.91,-445.5 1127.45,-437.97 1124.39,-444.26"/>
</g>
<!-- Node47&#45;&gt;Node43 -->
<g id="edge63" class="edge">
<title>Node47&#45;&gt;Node43</title>
<path fill="none" stroke="midnightblue" d="M1057.12,-358.07C1065.12,-360.92 1073.34,-363.96 1081,-367 1099.95,-374.51 1120.59,-383.59 1138.06,-391.55"/>
<polygon fill="midnightblue" stroke="midnightblue" points="1136.86,-394.85 1147.41,-395.83 1139.78,-388.48 1136.86,-394.85"/>
</g>
</g>
</svg>
