<?xml version="1.0" encoding="UTF-8" standalone="no"?>
<!DOCTYPE svg PUBLIC "-//W3C//DTD SVG 1.1//EN"
 "http://www.w3.org/Graphics/SVG/1.1/DTD/svg11.dtd">
<!-- Generated by graphviz version 2.43.0 (0)
 -->
<!-- Title: IAbyPath::ia_start Pages: 1 -->
<svg width="1463pt" height="489pt"
 viewBox="0.00 0.00 1463.00 489.00" xmlns="http://www.w3.org/2000/svg" xmlns:xlink="http://www.w3.org/1999/xlink">
<g id="graph0" class="graph" transform="scale(1 1) rotate(0) translate(4 485)">
<title>IAbyPath::ia_start</title>
<polygon fill="white" stroke="transparent" points="-4,4 -4,-485 1459,-485 1459,4 -4,4"/>
<!-- Node1 -->
<g id="node1" class="node">
<title>Node1</title>
<g id="a_node1"><a xlink:title=" ">
<polygon fill="#bfbfbf" stroke="black" points="0,-248.5 0,-267.5 102,-267.5 102,-248.5 0,-248.5"/>
<text text-anchor="middle" x="51" y="-255.5" font-family="Helvetica,sans-Serif" font-size="10.00">IAbyPath::ia_start</text>
</a>
</g>
</g>
<!-- Node2 -->
<g id="node2" class="node">
<title>Node2</title>
<g id="a_node2"><a xlink:href="namespacelogs.html#ac6f325c6cfe6189bc8e243daa184453b" target="_top" xlink:title="Cette méthode permet de finir les flux de construction par la notation.">
<polygon fill="white" stroke="black" points="932.5,-385.5 932.5,-404.5 993.5,-404.5 993.5,-385.5 932.5,-385.5"/>
<text text-anchor="middle" x="963" y="-392.5" font-family="Helvetica,sans-Serif" font-size="10.00">logs::end</text>
</a>
</g>
</g>
<!-- Node1&#45;&gt;Node2 -->
<g id="edge1" class="edge">
<title>Node1&#45;&gt;Node2</title>
<path fill="none" stroke="midnightblue" d="M102.02,-266.91C169.54,-278.14 293.69,-296 400.5,-296 400.5,-296 400.5,-296 567,-296 585.05,-296 825.87,-359.05 922.39,-384.52"/>
<polygon fill="midnightblue" stroke="midnightblue" points="921.79,-387.98 932.35,-387.15 923.58,-381.21 921.79,-387.98"/>
</g>
<!-- Node7 -->
<g id="node7" class="node">
<title>Node7</title>
<g id="a_node7"><a xlink:href="classlogs_1_1Logger.html#a8b6a2019233bc44b3c3c86c653910831" target="_top" xlink:title="Trace un message de niveau ERROR.">
<polygon fill="white" stroke="black" points="349,-393.5 349,-412.5 454,-412.5 454,-393.5 349,-393.5"/>
<text text-anchor="middle" x="401.5" y="-400.5" font-family="Helvetica,sans-Serif" font-size="10.00">logs::Logger::error</text>
</a>
</g>
</g>
<!-- Node1&#45;&gt;Node7 -->
<g id="edge6" class="edge">
<title>Node1&#45;&gt;Node7</title>
<path fill="none" stroke="midnightblue" d="M57.69,-267.69C69.77,-287.31 99.98,-331.65 138,-353 200.45,-388.07 283.05,-399.02 338.78,-402.2"/>
<polygon fill="midnightblue" stroke="midnightblue" points="338.7,-405.7 348.86,-402.7 339.05,-398.71 338.7,-405.7"/>
</g>
<!-- Node8 -->
<g id="node8" class="node">
<title>Node8</title>
<g id="a_node8"><a xlink:href="classIAbyPath.html#a659be955d17b16795bd842079c9a154d" target="_top" xlink:title=" ">
<polygon fill="white" stroke="black" points="151.5,-324.5 151.5,-343.5 289.5,-343.5 289.5,-324.5 151.5,-324.5"/>
<text text-anchor="middle" x="220.5" y="-331.5" font-family="Helvetica,sans-Serif" font-size="10.00">IAbyPath::ia_checkZones</text>
</a>
</g>
</g>
<!-- Node1&#45;&gt;Node8 -->
<g id="edge8" class="edge">
<title>Node1&#45;&gt;Node8</title>
<path fill="none" stroke="midnightblue" d="M65.41,-267.61C81.84,-279.03 110.86,-298.04 138,-310 148.02,-314.42 159.09,-318.29 169.75,-321.57"/>
<polygon fill="midnightblue" stroke="midnightblue" points="168.81,-324.94 179.39,-324.4 170.78,-318.22 168.81,-324.94"/>
</g>
<!-- Node9 -->
<g id="node9" class="node">
<title>Node9</title>
<g id="a_node9"><a xlink:href="classlogs_1_1Logger.html#aa381165771d00a6a1e3aa9664bf6467f" target="_top" xlink:title="Trace un message de niveau INFO.">
<polygon fill="white" stroke="black" points="515.5,-461.5 515.5,-480.5 616.5,-480.5 616.5,-461.5 515.5,-461.5"/>
<text text-anchor="middle" x="566" y="-468.5" font-family="Helvetica,sans-Serif" font-size="10.00">logs::Logger::info</text>
</a>
</g>
</g>
<!-- Node1&#45;&gt;Node9 -->
<g id="edge9" class="edge">
<title>Node1&#45;&gt;Node9</title>
<path fill="none" stroke="midnightblue" d="M55.2,-267.55C64.03,-292.27 91.19,-358.63 138,-390 251.2,-465.86 417.19,-475 505.15,-473.8"/>
<polygon fill="midnightblue" stroke="midnightblue" points="505.29,-477.3 515.23,-473.61 505.16,-470.3 505.29,-477.3"/>
</g>
<!-- Node10 -->
<g id="node10" class="node">
<title>Node10</title>
<g id="a_node10"><a xlink:href="classIAbyPath.html#a8a3c78c75a2208494e2774b918de3d45" target="_top" xlink:title="Retourne le Logger associé à la classe IAbyPath.">
<polygon fill="white" stroke="black" points="353.5,-229.5 353.5,-248.5 449.5,-248.5 449.5,-229.5 353.5,-229.5"/>
<text text-anchor="middle" x="401.5" y="-236.5" font-family="Helvetica,sans-Serif" font-size="10.00">IAbyPath::logger</text>
</a>
</g>
</g>
<!-- Node1&#45;&gt;Node10 -->
<g id="edge11" class="edge">
<title>Node1&#45;&gt;Node10</title>
<path fill="none" stroke="midnightblue" d="M102.3,-255.26C166.09,-251.78 275.82,-245.8 342.9,-242.14"/>
<polygon fill="midnightblue" stroke="midnightblue" points="343.49,-245.61 353.29,-241.57 343.11,-238.62 343.49,-245.61"/>
</g>
<!-- Node15 -->
<g id="node15" class="node">
<title>Node15</title>
<g id="a_node15"><a xlink:href="classRobot.html#aa569a899d4cc76a25f4e84ca56da2784" target="_top" xlink:title="Retourne un pointeur vers l&#39;asservissement du robot.">
<polygon fill="white" stroke="black" points="176,-210.5 176,-229.5 265,-229.5 265,-210.5 176,-210.5"/>
<text text-anchor="middle" x="220.5" y="-217.5" font-family="Helvetica,sans-Serif" font-size="10.00">Robot::passerv</text>
</a>
</g>
</g>
<!-- Node1&#45;&gt;Node15 -->
<g id="edge16" class="edge">
<title>Node1&#45;&gt;Node15</title>
<path fill="none" stroke="midnightblue" d="M94.27,-248.41C116.57,-243.35 144.12,-237.1 167.7,-231.75"/>
<polygon fill="midnightblue" stroke="midnightblue" points="168.56,-235.15 177.54,-229.52 167.01,-228.32 168.56,-235.15"/>
</g>
<!-- Node16 -->
<g id="node16" class="node">
<title>Node16</title>
<g id="a_node16"><a xlink:href="classAsserv.html#a0c1a1048174322c00dfba79c74193bd1" target="_top" xlink:title=" ">
<polygon fill="white" stroke="black" points="138,-172.5 138,-191.5 303,-191.5 303,-172.5 138,-172.5"/>
<text text-anchor="middle" x="220.5" y="-179.5" font-family="Helvetica,sans-Serif" font-size="10.00">Asserv::pos_getThetaInDegree</text>
</a>
</g>
</g>
<!-- Node1&#45;&gt;Node16 -->
<g id="edge17" class="edge">
<title>Node1&#45;&gt;Node16</title>
<path fill="none" stroke="midnightblue" d="M63.47,-248.44C79.26,-235.74 109.05,-213.48 138,-201 143.78,-198.51 149.93,-196.32 156.17,-194.39"/>
<polygon fill="midnightblue" stroke="midnightblue" points="157.35,-197.7 166.01,-191.59 155.43,-190.96 157.35,-197.7"/>
</g>
<!-- Node31 -->
<g id="node31" class="node">
<title>Node31</title>
<g id="a_node31"><a xlink:href="classAsserv.html#a871088db63d1a0e20ccbf387c6f895db" target="_top" xlink:title=" ">
<polygon fill="white" stroke="black" points="339,-134.5 339,-153.5 464,-153.5 464,-134.5 339,-134.5"/>
<text text-anchor="middle" x="401.5" y="-141.5" font-family="Helvetica,sans-Serif" font-size="10.00">Asserv::pos_getX_mm</text>
</a>
</g>
</g>
<!-- Node1&#45;&gt;Node31 -->
<g id="edge38" class="edge">
<title>Node1&#45;&gt;Node31</title>
<path fill="none" stroke="midnightblue" d="M57.32,-248.25C68.91,-228.11 98.61,-182.21 138,-163 197.54,-133.97 273.83,-131.72 328.8,-135.24"/>
<polygon fill="midnightblue" stroke="midnightblue" points="328.59,-138.73 338.81,-135.96 329.09,-131.75 328.59,-138.73"/>
</g>
<!-- Node32 -->
<g id="node32" class="node">
<title>Node32</title>
<g id="a_node32"><a xlink:href="classAsserv.html#a2cca6401ccf8cfc7cc927177cba14f4a" target="_top" xlink:title=" ">
<polygon fill="white" stroke="black" points="158.5,-96.5 158.5,-115.5 282.5,-115.5 282.5,-96.5 158.5,-96.5"/>
<text text-anchor="middle" x="220.5" y="-103.5" font-family="Helvetica,sans-Serif" font-size="10.00">Asserv::pos_getY_mm</text>
</a>
</g>
</g>
<!-- Node1&#45;&gt;Node32 -->
<g id="edge40" class="edge">
<title>Node1&#45;&gt;Node32</title>
<path fill="none" stroke="midnightblue" d="M55.75,-248.3C65.5,-224.4 93.96,-162.3 138,-130 143.89,-125.68 150.55,-122.14 157.46,-119.23"/>
<polygon fill="midnightblue" stroke="midnightblue" points="158.86,-122.44 166.99,-115.64 156.39,-115.89 158.86,-122.44"/>
</g>
<!-- Node3 -->
<g id="node3" class="node">
<title>Node3</title>
<g id="a_node3"><a xlink:href="classlogs_1_1Logger_1_1LoggerBuffer.html#a0e4fd77693fd899ec1b0670354f93a02" target="_top" xlink:title="Cette méthode valide le message en cours de construction et le transmet au Logger de référence.">
<polygon fill="white" stroke="black" points="1093,-347.5 1093,-366.5 1261,-366.5 1261,-347.5 1093,-347.5"/>
<text text-anchor="middle" x="1177" y="-354.5" font-family="Helvetica,sans-Serif" font-size="10.00">logs::Logger::LoggerBuffer::end</text>
</a>
</g>
</g>
<!-- Node2&#45;&gt;Node3 -->
<g id="edge2" class="edge">
<title>Node2&#45;&gt;Node3</title>
<path fill="none" stroke="midnightblue" d="M993.92,-389.64C1024.69,-384.12 1073.52,-375.37 1112.87,-368.32"/>
<polygon fill="midnightblue" stroke="midnightblue" points="1113.69,-371.72 1122.92,-366.51 1112.46,-364.83 1113.69,-371.72"/>
</g>
<!-- Node4 -->
<g id="node4" class="node">
<title>Node4</title>
<g id="a_node4"><a xlink:href="classutils_1_1Mutex.html#aa584b418a5ef484f76b93e361a1d7e32" target="_top" xlink:title="Verrouille le mutex. Cette méthode doit être appelée avant d&#39;utiliser la ressource associée....">
<polygon fill="white" stroke="black" points="1325.5,-347.5 1325.5,-366.5 1426.5,-366.5 1426.5,-347.5 1325.5,-347.5"/>
<text text-anchor="middle" x="1376" y="-354.5" font-family="Helvetica,sans-Serif" font-size="10.00">utils::Mutex::lock</text>
</a>
</g>
</g>
<!-- Node3&#45;&gt;Node4 -->
<g id="edge3" class="edge">
<title>Node3&#45;&gt;Node4</title>
<path fill="none" stroke="midnightblue" d="M1261.26,-357C1279.35,-357 1298.14,-357 1315.11,-357"/>
<polygon fill="midnightblue" stroke="midnightblue" points="1315.42,-360.5 1325.42,-357 1315.42,-353.5 1315.42,-360.5"/>
</g>
<!-- Node5 -->
<g id="node5" class="node">
<title>Node5</title>
<g id="a_node5"><a xlink:href="classutils_1_1Mutex.html#a59b2079dc7f803d49f78ac9c04406cd3" target="_top" xlink:title="Déverrouille le mutex. Cette méthode doit être appelée après avoir utiliser la ressource associée.">
<polygon fill="white" stroke="black" points="1319.5,-309.5 1319.5,-328.5 1432.5,-328.5 1432.5,-309.5 1319.5,-309.5"/>
<text text-anchor="middle" x="1376" y="-316.5" font-family="Helvetica,sans-Serif" font-size="10.00">utils::Mutex::unlock</text>
</a>
</g>
</g>
<!-- Node3&#45;&gt;Node5 -->
<g id="edge4" class="edge">
<title>Node3&#45;&gt;Node5</title>
<path fill="none" stroke="midnightblue" d="M1227.46,-347.46C1254.15,-342.31 1287.3,-335.92 1315.42,-330.49"/>
<polygon fill="midnightblue" stroke="midnightblue" points="1316.37,-333.87 1325.52,-328.54 1315.04,-327 1316.37,-333.87"/>
</g>
<!-- Node6 -->
<g id="node6" class="node">
<title>Node6</title>
<g id="a_node6"><a xlink:href="classlogs_1_1Logger.html#afa535aaf4891e02c4ff7f84d372b5b1b" target="_top" xlink:title="Méthode générique de trace d&#39;un message.">
<polygon fill="white" stroke="black" points="1301,-404.5 1301,-423.5 1451,-423.5 1451,-404.5 1301,-404.5"/>
<text text-anchor="middle" x="1376" y="-411.5" font-family="Helvetica,sans-Serif" font-size="10.00">logs::Logger::writeMessage</text>
</a>
</g>
</g>
<!-- Node3&#45;&gt;Node6 -->
<g id="edge5" class="edge">
<title>Node3&#45;&gt;Node6</title>
<path fill="none" stroke="midnightblue" d="M1223.43,-366.57C1235.69,-369.37 1248.9,-372.61 1261,-376 1287.3,-383.38 1316.52,-393.15 1338.8,-400.94"/>
<polygon fill="midnightblue" stroke="midnightblue" points="1337.91,-404.33 1348.51,-404.36 1340.24,-397.73 1337.91,-404.33"/>
</g>
<!-- Node7&#45;&gt;Node6 -->
<g id="edge7" class="edge">
<title>Node7&#45;&gt;Node6</title>
<path fill="none" stroke="midnightblue" d="M454.11,-410.26C521.79,-419.14 644.29,-433 749.5,-433 749.5,-433 749.5,-433 964,-433 1077.14,-433 1207.61,-425.73 1290.66,-420.18"/>
<polygon fill="midnightblue" stroke="midnightblue" points="1291.06,-423.66 1300.8,-419.5 1290.59,-416.68 1291.06,-423.66"/>
</g>
<!-- Node9&#45;&gt;Node6 -->
<g id="edge10" class="edge">
<title>Node9&#45;&gt;Node6</title>
<path fill="none" stroke="midnightblue" d="M616.63,-473.46C731.07,-478.21 1022,-485.12 1261,-447 1287.64,-442.75 1316.86,-434.21 1339.04,-426.89"/>
<polygon fill="midnightblue" stroke="midnightblue" points="1340.35,-430.14 1348.7,-423.63 1338.11,-423.51 1340.35,-430.14"/>
</g>
<!-- Node11 -->
<g id="node11" class="node">
<title>Node11</title>
<g id="a_node11"><a xlink:href="classlogs_1_1LoggerFactory.html#a82585b5de73e471e06cafdccc3b3721e" target="_top" xlink:title="Cette méthode statique retourne un Logger en fonction de son nom.">
<polygon fill="white" stroke="black" points="1121.5,-42 1121.5,-72 1232.5,-72 1232.5,-42 1121.5,-42"/>
<text text-anchor="start" x="1129.5" y="-60" font-family="Helvetica,sans-Serif" font-size="10.00">logs::LoggerFactory</text>
<text text-anchor="middle" x="1177" y="-49" font-family="Helvetica,sans-Serif" font-size="10.00">::logger</text>
</a>
</g>
</g>
<!-- Node10&#45;&gt;Node11 -->
<g id="edge12" class="edge">
<title>Node10&#45;&gt;Node11</title>
<path fill="none" stroke="midnightblue" d="M449.52,-231.63C548.23,-215.41 772.89,-174.25 833,-127 859.58,-106.11 840.07,-77.49 869,-60 942.87,-15.34 1046.12,-25.98 1112.03,-39.83"/>
<polygon fill="midnightblue" stroke="midnightblue" points="1111.36,-43.27 1121.88,-41.98 1112.86,-36.43 1111.36,-43.27"/>
</g>
<!-- Node12 -->
<g id="node12" class="node">
<title>Node12</title>
<g id="a_node12"><a xlink:href="classlogs_1_1LoggerFactory.html#ac89f19c0ffd71aa8cdc1c2d44c03809e" target="_top" xlink:title="Cette méthode ajoute un appender au système.">
<polygon fill="white" stroke="black" points="1309,-3.5 1309,-22.5 1443,-22.5 1443,-3.5 1309,-3.5"/>
<text text-anchor="middle" x="1376" y="-10.5" font-family="Helvetica,sans-Serif" font-size="10.00">logs::LoggerFactory::add</text>
</a>
</g>
</g>
<!-- Node11&#45;&gt;Node12 -->
<g id="edge13" class="edge">
<title>Node11&#45;&gt;Node12</title>
<path fill="none" stroke="midnightblue" d="M1232.61,-44.8C1260.6,-38.55 1294.54,-30.97 1322.26,-24.78"/>
<polygon fill="midnightblue" stroke="midnightblue" points="1323.17,-28.16 1332.16,-22.57 1321.64,-21.33 1323.17,-28.16"/>
</g>
<!-- Node13 -->
<g id="node13" class="node">
<title>Node13</title>
<g id="a_node13"><a xlink:href="classlogs_1_1LoggerFactory.html#a90478b91d7af2ef8841ded21e3521f69" target="_top" xlink:title="Cette méthode statique retourne l&#39;instance unique de la classe LoggerFactory.">
<polygon fill="white" stroke="black" points="1320.5,-91 1320.5,-121 1431.5,-121 1431.5,-91 1320.5,-91"/>
<text text-anchor="start" x="1328.5" y="-109" font-family="Helvetica,sans-Serif" font-size="10.00">logs::LoggerFactory</text>
<text text-anchor="middle" x="1376" y="-98" font-family="Helvetica,sans-Serif" font-size="10.00">::instance</text>
</a>
</g>
</g>
<!-- Node11&#45;&gt;Node13 -->
<g id="edge14" class="edge">
<title>Node11&#45;&gt;Node13</title>
<path fill="none" stroke="midnightblue" d="M1232.61,-70.58C1256.74,-76.59 1285.28,-83.68 1310.45,-89.95"/>
<polygon fill="midnightblue" stroke="midnightblue" points="1309.73,-93.37 1320.28,-92.39 1311.42,-86.58 1309.73,-93.37"/>
</g>
<!-- Node14 -->
<g id="node14" class="node">
<title>Node14</title>
<g id="a_node14"><a xlink:href="classlogs_1_1LoggerFactory.html#a212aa623f4b6bee12cb39e8017dde670" target="_top" xlink:title="Cette méthode retourne le Logger principal qui définit le niveau de trace par défaut.">
<polygon fill="white" stroke="black" points="1320.5,-42 1320.5,-72 1431.5,-72 1431.5,-42 1320.5,-42"/>
<text text-anchor="start" x="1328.5" y="-60" font-family="Helvetica,sans-Serif" font-size="10.00">logs::LoggerFactory</text>
<text text-anchor="middle" x="1376" y="-49" font-family="Helvetica,sans-Serif" font-size="10.00">::rootLogger</text>
</a>
</g>
</g>
<!-- Node11&#45;&gt;Node14 -->
<g id="edge15" class="edge">
<title>Node11&#45;&gt;Node14</title>
<path fill="none" stroke="midnightblue" d="M1232.61,-57C1256.63,-57 1285.03,-57 1310.12,-57"/>
<polygon fill="midnightblue" stroke="midnightblue" points="1310.28,-60.5 1320.28,-57 1310.28,-53.5 1310.28,-60.5"/>
</g>
<!-- Node17 -->
<g id="node17" class="node">
<title>Node17</title>
<g id="a_node17"><a xlink:href="classAsserv.html#a11fc2df956a191f42ab34088a7ae9ce0" target="_top" xlink:title=" ">
<polygon fill="white" stroke="black" points="341,-172.5 341,-191.5 462,-191.5 462,-172.5 341,-172.5"/>
<text text-anchor="middle" x="401.5" y="-179.5" font-family="Helvetica,sans-Serif" font-size="10.00">Asserv::pos_getTheta</text>
</a>
</g>
</g>
<!-- Node16&#45;&gt;Node17 -->
<g id="edge18" class="edge">
<title>Node16&#45;&gt;Node17</title>
<path fill="none" stroke="midnightblue" d="M303.14,-182C312.39,-182 321.75,-182 330.82,-182"/>
<polygon fill="midnightblue" stroke="midnightblue" points="330.92,-185.5 340.92,-182 330.92,-178.5 330.92,-185.5"/>
</g>
<!-- Node18 -->
<g id="node18" class="node">
<title>Node18</title>
<g id="a_node18"><a xlink:href="classAsserv.html#a02914fbd6c3d2ee03c896cb7a9f86078" target="_top" xlink:title=" ">
<polygon fill="white" stroke="black" points="500,-96.5 500,-115.5 632,-115.5 632,-96.5 500,-96.5"/>
<text text-anchor="middle" x="566" y="-103.5" font-family="Helvetica,sans-Serif" font-size="10.00">Asserv::pos_getPosition</text>
</a>
</g>
</g>
<!-- Node17&#45;&gt;Node18 -->
<g id="edge19" class="edge">
<title>Node17&#45;&gt;Node18</title>
<path fill="none" stroke="midnightblue" d="M441.83,-172.39C449.41,-169.84 457.12,-166.73 464,-163 482.31,-153.07 482.18,-143.78 500,-133 508.53,-127.83 518.24,-123.22 527.49,-119.33"/>
<polygon fill="midnightblue" stroke="midnightblue" points="528.94,-122.52 536.91,-115.54 526.33,-116.02 528.94,-122.52"/>
</g>
<!-- Node19 -->
<g id="node19" class="node">
<title>Node19</title>
<g id="a_node19"><a xlink:href="classAsservEsialR.html#a18064f0087aa1cd67cbdd131f99720db" target="_top" xlink:title="Lit la position courante du robot.">
<polygon fill="white" stroke="black" points="668,-211.5 668,-230.5 833,-230.5 833,-211.5 668,-211.5"/>
<text text-anchor="middle" x="750.5" y="-218.5" font-family="Helvetica,sans-Serif" font-size="10.00">AsservEsialR::odo_GetPosition</text>
</a>
</g>
</g>
<!-- Node18&#45;&gt;Node19 -->
<g id="edge20" class="edge">
<title>Node18&#45;&gt;Node19</title>
<path fill="none" stroke="midnightblue" d="M582.25,-115.61C613.91,-135.56 687.04,-181.64 725.25,-205.72"/>
<polygon fill="midnightblue" stroke="midnightblue" points="723.84,-208.97 734.17,-211.34 727.57,-203.05 723.84,-208.97"/>
</g>
<!-- Node28 -->
<g id="node28" class="node">
<title>Node28</title>
<g id="a_node28"><a xlink:href="classAAsservDriver.html#a81dea0fa2d154d60d67e9e12b415b265" target="_top" xlink:title="Lit la position courante du robot.">
<polygon fill="white" stroke="black" points="695.5,-88 695.5,-118 805.5,-118 805.5,-88 695.5,-88"/>
<text text-anchor="start" x="703.5" y="-106" font-family="Helvetica,sans-Serif" font-size="10.00">AAsservDriver::odo</text>
<text text-anchor="middle" x="750.5" y="-95" font-family="Helvetica,sans-Serif" font-size="10.00">_GetPosition</text>
</a>
</g>
</g>
<!-- Node18&#45;&gt;Node28 -->
<g id="edge35" class="edge">
<title>Node18&#45;&gt;Node28</title>
<path fill="none" stroke="midnightblue" d="M632.11,-104.93C649.24,-104.65 667.7,-104.34 684.8,-104.06"/>
<polygon fill="midnightblue" stroke="midnightblue" points="685.31,-107.56 695.25,-103.89 685.2,-100.56 685.31,-107.56"/>
</g>
<!-- Node29 -->
<g id="node29" class="node">
<title>Node29</title>
<g id="a_node29"><a xlink:href="classARobotPositionShared.html#a42f840a7c37b33555643005112dc1875" target="_top" xlink:title="Met a jour la position du robot.">
<polygon fill="white" stroke="black" points="688,-39 688,-69 813,-69 813,-39 688,-39"/>
<text text-anchor="start" x="696" y="-57" font-family="Helvetica,sans-Serif" font-size="10.00">ARobotPositionShared</text>
<text text-anchor="middle" x="750.5" y="-46" font-family="Helvetica,sans-Serif" font-size="10.00">::setRobotPosition</text>
</a>
</g>
</g>
<!-- Node18&#45;&gt;Node29 -->
<g id="edge36" class="edge">
<title>Node18&#45;&gt;Node29</title>
<path fill="none" stroke="midnightblue" d="M600.47,-96.46C624.6,-89.59 657.89,-80.1 686.88,-71.84"/>
<polygon fill="midnightblue" stroke="midnightblue" points="687.88,-75.2 696.53,-69.09 685.96,-68.47 687.88,-75.2"/>
</g>
<!-- Node30 -->
<g id="node30" class="node">
<title>Node30</title>
<g id="a_node30"><a xlink:href="classRobot.html#a6a118c509a6d7ab35cdf96203eb0238a" target="_top" xlink:title="Retourne la position partagée du robot (pour communication inter&#45;threads).">
<polygon fill="white" stroke="black" points="689,-0.5 689,-19.5 812,-19.5 812,-0.5 689,-0.5"/>
<text text-anchor="middle" x="750.5" y="-7.5" font-family="Helvetica,sans-Serif" font-size="10.00">Robot::sharedPosition</text>
</a>
</g>
</g>
<!-- Node18&#45;&gt;Node30 -->
<g id="edge37" class="edge">
<title>Node18&#45;&gt;Node30</title>
<path fill="none" stroke="midnightblue" d="M576.66,-96.33C593.61,-79.91 630.5,-46.66 668,-29 673.22,-26.54 678.78,-24.39 684.46,-22.5"/>
<polygon fill="midnightblue" stroke="midnightblue" points="685.52,-25.84 694.07,-19.58 683.48,-19.14 685.52,-25.84"/>
</g>
<!-- Node19&#45;&gt;Node2 -->
<g id="edge23" class="edge">
<title>Node19&#45;&gt;Node2</title>
<path fill="none" stroke="midnightblue" d="M769.67,-230.65C787.88,-241.14 815.64,-259.46 833,-282 859.04,-315.8 836.91,-342.88 869,-371 883.64,-383.83 904.27,-389.95 922.38,-392.81"/>
<polygon fill="midnightblue" stroke="midnightblue" points="922.04,-396.29 932.4,-394.11 922.94,-389.35 922.04,-396.29"/>
</g>
<!-- Node19&#45;&gt;Node4 -->
<g id="edge31" class="edge">
<title>Node19&#45;&gt;Node4</title>
<path fill="none" stroke="midnightblue" d="M833.25,-223.13C968.33,-227.31 1226.7,-238.32 1261,-262 1291.76,-283.24 1268.02,-314.39 1297,-338 1302.44,-342.44 1308.77,-345.86 1315.41,-348.5"/>
<polygon fill="midnightblue" stroke="midnightblue" points="1314.72,-351.96 1325.31,-351.84 1316.96,-345.33 1314.72,-351.96"/>
</g>
<!-- Node19&#45;&gt;Node5 -->
<g id="edge34" class="edge">
<title>Node19&#45;&gt;Node5</title>
<path fill="none" stroke="midnightblue" d="M764.58,-211.38C794.57,-189.34 865.98,-136.98 869,-136 948.49,-110.26 975.35,-118.27 1057,-136 1154.37,-157.15 1189.09,-160.02 1261,-229 1286.53,-253.49 1269.27,-278.02 1297,-300 1300.89,-303.08 1305.21,-305.68 1309.76,-307.86"/>
<polygon fill="midnightblue" stroke="midnightblue" points="1308.79,-311.24 1319.37,-311.78 1311.43,-304.76 1308.79,-311.24"/>
</g>
<!-- Node20 -->
<g id="node20" class="node">
<title>Node20</title>
<g id="a_node20"><a xlink:href="classlogs_1_1Logger.html#a7dffc8f610014ec59b63392da16140e4" target="_top" xlink:title="Trace un message de niveau DEBUG.">
<polygon fill="white" stroke="black" points="1121,-385.5 1121,-404.5 1233,-404.5 1233,-385.5 1121,-385.5"/>
<text text-anchor="middle" x="1177" y="-392.5" font-family="Helvetica,sans-Serif" font-size="10.00">logs::Logger::debug</text>
</a>
</g>
</g>
<!-- Node19&#45;&gt;Node20 -->
<g id="edge21" class="edge">
<title>Node19&#45;&gt;Node20</title>
<path fill="none" stroke="midnightblue" d="M767.54,-230.55C785.01,-241.49 813.13,-260.66 833,-282 853.16,-303.65 844.44,-321.5 869,-338 879.01,-344.72 1023.45,-369.64 1110.59,-384.21"/>
<polygon fill="midnightblue" stroke="midnightblue" points="1110.22,-387.7 1120.66,-385.89 1111.37,-380.79 1110.22,-387.7"/>
</g>
<!-- Node21 -->
<g id="node21" class="node">
<title>Node21</title>
<g id="a_node21"><a xlink:href="classCommandManagerA.html#a3d4499244b1f7548c0889974a16b402b" target="_top" xlink:title=" ">
<polygon fill="white" stroke="black" points="869,-184 869,-214 1057,-214 1057,-184 869,-184"/>
<text text-anchor="start" x="877" y="-202" font-family="Helvetica,sans-Serif" font-size="10.00">CommandManagerA::getCommand</text>
<text text-anchor="middle" x="963" y="-191" font-family="Helvetica,sans-Serif" font-size="10.00">Status</text>
</a>
</g>
</g>
<!-- Node19&#45;&gt;Node21 -->
<g id="edge24" class="edge">
<title>Node19&#45;&gt;Node21</title>
<path fill="none" stroke="midnightblue" d="M833.19,-212.46C841.58,-211.59 850.18,-210.69 858.76,-209.79"/>
<polygon fill="midnightblue" stroke="midnightblue" points="859.23,-213.26 868.81,-208.74 858.5,-206.3 859.23,-213.26"/>
</g>
<!-- Node22 -->
<g id="node22" class="node">
<title>Node22</title>
<g id="a_node22"><a xlink:href="classOdometrie.html#abc6576337993c68f587df8ca4b3602f9" target="_top" xlink:title=" ">
<polygon fill="white" stroke="black" points="904,-145.5 904,-164.5 1022,-164.5 1022,-145.5 904,-145.5"/>
<text text-anchor="middle" x="963" y="-152.5" font-family="Helvetica,sans-Serif" font-size="10.00">Odometrie::getTheta</text>
</a>
</g>
</g>
<!-- Node19&#45;&gt;Node22 -->
<g id="edge25" class="edge">
<title>Node19&#45;&gt;Node22</title>
<path fill="none" stroke="midnightblue" d="M772.79,-211.46C796.05,-201.32 834.6,-185.36 869,-175 879.07,-171.97 889.88,-169.21 900.44,-166.77"/>
<polygon fill="midnightblue" stroke="midnightblue" points="901.46,-170.13 910.46,-164.54 899.93,-163.3 901.46,-170.13"/>
</g>
<!-- Node23 -->
<g id="node23" class="node">
<title>Node23</title>
<g id="a_node23"><a xlink:href="classOdometrie.html#a4e35405c76f7c939f143f2d07a969e23" target="_top" xlink:title=" ">
<polygon fill="white" stroke="black" points="905,-271.5 905,-290.5 1021,-290.5 1021,-271.5 905,-271.5"/>
<text text-anchor="middle" x="963" y="-278.5" font-family="Helvetica,sans-Serif" font-size="10.00">Odometrie::getXmm</text>
</a>
</g>
</g>
<!-- Node19&#45;&gt;Node23 -->
<g id="edge26" class="edge">
<title>Node19&#45;&gt;Node23</title>
<path fill="none" stroke="midnightblue" d="M781.33,-230.54C805.02,-238.02 839.02,-248.54 869,-257 883.47,-261.08 899.29,-265.27 913.71,-268.98"/>
<polygon fill="midnightblue" stroke="midnightblue" points="912.88,-272.38 923.44,-271.46 914.61,-265.59 912.88,-272.38"/>
</g>
<!-- Node26 -->
<g id="node26" class="node">
<title>Node26</title>
<g id="a_node26"><a xlink:href="classOdometrie.html#a349119b93cb97e0ef586fbf78e43b823" target="_top" xlink:title=" ">
<polygon fill="white" stroke="black" points="905,-309.5 905,-328.5 1021,-328.5 1021,-309.5 905,-309.5"/>
<text text-anchor="middle" x="963" y="-316.5" font-family="Helvetica,sans-Serif" font-size="10.00">Odometrie::getYmm</text>
</a>
</g>
</g>
<!-- Node19&#45;&gt;Node26 -->
<g id="edge29" class="edge">
<title>Node19&#45;&gt;Node26</title>
<path fill="none" stroke="midnightblue" d="M762.63,-230.71C782.53,-247.54 826.15,-282.05 869,-300 877.17,-303.42 886.01,-306.25 894.88,-308.57"/>
<polygon fill="midnightblue" stroke="midnightblue" points="894.33,-312.04 904.87,-310.99 895.98,-305.24 894.33,-312.04"/>
</g>
<!-- Node27 -->
<g id="node27" class="node">
<title>Node27</title>
<g id="a_node27"><a xlink:href="classAsservEsialR.html#a7d6428bb79534a27e2b8b2e1baae943b" target="_top" xlink:title="Retourne le Logger associe a la classe AsservEsialR.">
<polygon fill="white" stroke="black" points="905,-69.5 905,-88.5 1021,-88.5 1021,-69.5 905,-69.5"/>
<text text-anchor="middle" x="963" y="-76.5" font-family="Helvetica,sans-Serif" font-size="10.00">AsservEsialR::logger</text>
</a>
</g>
</g>
<!-- Node19&#45;&gt;Node27 -->
<g id="edge32" class="edge">
<title>Node19&#45;&gt;Node27</title>
<path fill="none" stroke="midnightblue" d="M768.26,-211.33C785.84,-200.61 813.57,-182.04 833,-161 853.59,-138.72 844.56,-120.97 869,-103 876.78,-97.28 885.79,-92.92 895.09,-89.6"/>
<polygon fill="midnightblue" stroke="midnightblue" points="896.37,-92.87 904.84,-86.5 894.25,-86.2 896.37,-92.87"/>
</g>
<!-- Node20&#45;&gt;Node6 -->
<g id="edge22" class="edge">
<title>Node20&#45;&gt;Node6</title>
<path fill="none" stroke="midnightblue" d="M1233.14,-400.32C1250.97,-402.04 1271.18,-403.99 1290.63,-405.86"/>
<polygon fill="midnightblue" stroke="midnightblue" points="1290.43,-409.36 1300.72,-406.84 1291.1,-402.39 1290.43,-409.36"/>
</g>
<!-- Node24 -->
<g id="node24" class="node">
<title>Node24</title>
<g id="a_node24"><a xlink:href="classUtils.html#a2609842761c1ddb62fa9e06f92ad9099" target="_top" xlink:title=" ">
<polygon fill="white" stroke="black" points="1132,-271.5 1132,-290.5 1222,-290.5 1222,-271.5 1132,-271.5"/>
<text text-anchor="middle" x="1177" y="-278.5" font-family="Helvetica,sans-Serif" font-size="10.00">Utils::UOTomm</text>
</a>
</g>
</g>
<!-- Node23&#45;&gt;Node24 -->
<g id="edge27" class="edge">
<title>Node23&#45;&gt;Node24</title>
<path fill="none" stroke="midnightblue" d="M1021.09,-281C1052.38,-281 1090.96,-281 1121.79,-281"/>
<polygon fill="midnightblue" stroke="midnightblue" points="1121.92,-284.5 1131.92,-281 1121.92,-277.5 1121.92,-284.5"/>
</g>
<!-- Node25 -->
<g id="node25" class="node">
<title>Node25</title>
<g id="a_node25"><a xlink:href="classOdometrie.html#a97f3023787b53a05f789770a56a791be" target="_top" xlink:title=" ">
<polygon fill="white" stroke="black" points="1297,-271.5 1297,-290.5 1455,-290.5 1455,-271.5 1297,-271.5"/>
<text text-anchor="middle" x="1376" y="-278.5" font-family="Helvetica,sans-Serif" font-size="10.00">Odometrie::getFrontParMetre</text>
</a>
</g>
</g>
<!-- Node24&#45;&gt;Node25 -->
<g id="edge28" class="edge">
<title>Node24&#45;&gt;Node25</title>
<path fill="none" stroke="midnightblue" d="M1222.21,-281C1241.3,-281 1264.33,-281 1286.67,-281"/>
<polygon fill="midnightblue" stroke="midnightblue" points="1286.86,-284.5 1296.86,-281 1286.86,-277.5 1286.86,-284.5"/>
</g>
<!-- Node26&#45;&gt;Node24 -->
<g id="edge30" class="edge">
<title>Node26&#45;&gt;Node24</title>
<path fill="none" stroke="midnightblue" d="M1017.22,-309.46C1049.1,-303.75 1089.52,-296.5 1121.6,-290.75"/>
<polygon fill="midnightblue" stroke="midnightblue" points="1122.48,-294.15 1131.7,-288.94 1121.24,-287.26 1122.48,-294.15"/>
</g>
<!-- Node27&#45;&gt;Node11 -->
<g id="edge33" class="edge">
<title>Node27&#45;&gt;Node11</title>
<path fill="none" stroke="midnightblue" d="M1021.09,-73.08C1048.96,-70.18 1082.6,-66.69 1111.4,-63.7"/>
<polygon fill="midnightblue" stroke="midnightblue" points="1111.78,-67.18 1121.37,-62.67 1111.06,-60.22 1111.78,-67.18"/>
</g>
<!-- Node31&#45;&gt;Node18 -->
<g id="edge39" class="edge">
<title>Node31&#45;&gt;Node18</title>
<path fill="none" stroke="midnightblue" d="M443.51,-134.41C465.05,-129.37 491.63,-123.16 514.44,-117.82"/>
<polygon fill="midnightblue" stroke="midnightblue" points="515.35,-121.21 524.29,-115.52 513.75,-114.39 515.35,-121.21"/>
</g>
<!-- Node32&#45;&gt;Node18 -->
<g id="edge41" class="edge">
<title>Node32&#45;&gt;Node18</title>
<path fill="none" stroke="midnightblue" d="M282.52,-106C340.41,-106 427.56,-106 489.74,-106"/>
<polygon fill="midnightblue" stroke="midnightblue" points="489.88,-109.5 499.88,-106 489.88,-102.5 489.88,-109.5"/>
</g>
</g>
</svg>
