<?xml version="1.0" encoding="UTF-8" standalone="no"?>
<!DOCTYPE svg PUBLIC "-//W3C//DTD SVG 1.1//EN"
 "http://www.w3.org/Graphics/SVG/1.1/DTD/svg11.dtd">
<!-- Generated by graphviz version 2.43.0 (0)
 -->
<!-- Title: utils::Chronometer::setTimer Pages: 1 -->
<svg width="461pt" height="166pt"
 viewBox="0.00 0.00 461.00 165.50" xmlns="http://www.w3.org/2000/svg" xmlns:xlink="http://www.w3.org/1999/xlink">
<g id="graph0" class="graph" transform="scale(1 1) rotate(0) translate(4 161.5)">
<title>utils::Chronometer::setTimer</title>
<polygon fill="white" stroke="transparent" points="-4,4 -4,-161.5 457,-161.5 457,4 -4,4"/>
<!-- Node1 -->
<g id="node1" class="node">
<title>Node1</title>
<g id="a_node1"><a xlink:title="Configure le timer avec une période donnée et lance le chronomètre.">
<polygon fill="#bfbfbf" stroke="black" points="346,-66.5 346,-96.5 453,-96.5 453,-66.5 346,-66.5"/>
<text text-anchor="start" x="354" y="-84.5" font-family="Helvetica,sans-Serif" font-size="10.00">utils::Chronometer</text>
<text text-anchor="middle" x="399.5" y="-73.5" font-family="Helvetica,sans-Serif" font-size="10.00">::setTimer</text>
</a>
</g>
</g>
<!-- Node2 -->
<g id="node2" class="node">
<title>Node2</title>
<g id="a_node2"><a xlink:href="classAsservEsialR.html#abfd3be9bde7bf8ae887688bf8bc0ca43" target="_top" xlink:title="Méthode virtuelle pure à implémenter dans les sous&#45;classes.">
<polygon fill="white" stroke="black" points="173.5,-138 173.5,-157 297.5,-157 297.5,-138 173.5,-138"/>
<text text-anchor="middle" x="235.5" y="-145" font-family="Helvetica,sans-Serif" font-size="10.00">AsservEsialR::execute</text>
</a>
</g>
</g>
<!-- Node1&#45;&gt;Node2 -->
<g id="edge1" class="edge">
<title>Node1&#45;&gt;Node2</title>
<path fill="none" stroke="midnightblue" d="M364.65,-101.89C348.52,-110.97 328.71,-121.23 310,-128.5 300.66,-132.13 290.39,-135.28 280.56,-137.91"/>
<polygon fill="midnightblue" stroke="midnightblue" points="366.75,-104.72 373.69,-96.71 363.27,-98.65 366.75,-104.72"/>
</g>
<!-- Node3 -->
<g id="node3" class="node">
<title>Node3</title>
<g id="a_node3"><a xlink:href="classAsservDriver__mbed__i2c.html#aceeb058d409ef084ae4cc591c21befab" target="_top" xlink:title="Méthode virtuelle pure à implémenter dans les sous&#45;classes.">
<polygon fill="white" stroke="black" points="169.5,-88.5 169.5,-118.5 301.5,-118.5 301.5,-88.5 169.5,-88.5"/>
<text text-anchor="start" x="177.5" y="-106.5" font-family="Helvetica,sans-Serif" font-size="10.00">AsservDriver_mbed_i2c</text>
<text text-anchor="middle" x="235.5" y="-95.5" font-family="Helvetica,sans-Serif" font-size="10.00">::execute</text>
</a>
</g>
</g>
<!-- Node1&#45;&gt;Node3 -->
<g id="edge2" class="edge">
<title>Node1&#45;&gt;Node3</title>
<path fill="none" stroke="midnightblue" d="M335.77,-90.02C324.56,-91.54 312.86,-93.13 301.58,-94.66"/>
<polygon fill="midnightblue" stroke="midnightblue" points="336.47,-93.46 345.9,-88.64 335.52,-86.52 336.47,-93.46"/>
</g>
<!-- Node4 -->
<g id="node4" class="node">
<title>Node4</title>
<g id="a_node4"><a xlink:href="classAsservDriverSimu.html#a733f14167a9d3442e609d3cb0955d0eb" target="_top" xlink:title="Méthode virtuelle pure à implémenter dans les sous&#45;classes.">
<polygon fill="white" stroke="black" points="161,-50 161,-69 310,-69 310,-50 161,-50"/>
<text text-anchor="middle" x="235.5" y="-57" font-family="Helvetica,sans-Serif" font-size="10.00">AsservDriverSimu::execute</text>
</a>
</g>
</g>
<!-- Node1&#45;&gt;Node4 -->
<g id="edge3" class="edge">
<title>Node1&#45;&gt;Node4</title>
<path fill="none" stroke="midnightblue" d="M335.7,-72.97C326.14,-71.67 316.22,-70.33 306.52,-69.01"/>
<polygon fill="midnightblue" stroke="midnightblue" points="335.52,-76.48 345.9,-74.36 336.47,-69.54 335.52,-76.48"/>
</g>
<!-- Node5 -->
<g id="node5" class="node">
<title>Node5</title>
<g id="a_node5"><a xlink:href="classtest_1_1ChronometerTest.html#a7acfac7912eba425f6cc7c80faa017af" target="_top" xlink:title="Vérifie le fonctionnement de setTimer/waitTimer.">
<polygon fill="white" stroke="black" points="172.5,-0.5 172.5,-30.5 298.5,-30.5 298.5,-0.5 172.5,-0.5"/>
<text text-anchor="start" x="180.5" y="-18.5" font-family="Helvetica,sans-Serif" font-size="10.00">test::ChronometerTest</text>
<text text-anchor="middle" x="235.5" y="-7.5" font-family="Helvetica,sans-Serif" font-size="10.00">::testSetTimerAndWait</text>
</a>
</g>
</g>
<!-- Node1&#45;&gt;Node5 -->
<g id="edge4" class="edge">
<title>Node1&#45;&gt;Node5</title>
<path fill="none" stroke="midnightblue" d="M359.03,-62.12C343.86,-54.97 326.27,-47.02 310,-40.5 301.49,-37.09 292.32,-33.73 283.43,-30.63"/>
<polygon fill="midnightblue" stroke="midnightblue" points="357.6,-65.32 368.13,-66.46 360.61,-59 357.6,-65.32"/>
</g>
<!-- Node6 -->
<g id="node6" class="node">
<title>Node6</title>
<g id="a_node6"><a xlink:href="classtest_1_1ChronometerTest.html#a1c7e36190a3c3f415a5547d408883d76" target="_top" xlink:title="Execute les tests associés à la classe.">
<polygon fill="white" stroke="black" points="0,-0.5 0,-30.5 125,-30.5 125,-0.5 0,-0.5"/>
<text text-anchor="start" x="8" y="-18.5" font-family="Helvetica,sans-Serif" font-size="10.00">test::ChronometerTest</text>
<text text-anchor="middle" x="62.5" y="-7.5" font-family="Helvetica,sans-Serif" font-size="10.00">::suite</text>
</a>
</g>
</g>
<!-- Node5&#45;&gt;Node6 -->
<g id="edge5" class="edge">
<title>Node5&#45;&gt;Node6</title>
<path fill="none" stroke="midnightblue" d="M162.06,-15.5C149.76,-15.5 137.09,-15.5 125.1,-15.5"/>
<polygon fill="midnightblue" stroke="midnightblue" points="162.28,-19 172.28,-15.5 162.28,-12 162.28,-19"/>
</g>
</g>
</svg>
