<?xml version="1.0" encoding="UTF-8" standalone="no"?>
<!DOCTYPE svg PUBLIC "-//W3C//DTD SVG 1.1//EN"
 "http://www.w3.org/Graphics/SVG/1.1/DTD/svg11.dtd">
<!-- Generated by graphviz version 2.43.0 (0)
 -->
<!-- Title: AServoDriver::setPulsePos Pages: 1 -->
<!--zoomable 558 -->
<svg id="main" version="1.1" xmlns="http://www.w3.org/2000/svg" xmlns:xlink="http://www.w3.org/1999/xlink" xml:space="preserve" onload="init(evt)">
<style type="text/css"><![CDATA[
.edge:hover path { stroke: red; }
.edge:hover polygon { stroke: red; fill: red; }
]]></style>
<script type="text/javascript"><![CDATA[
var edges = document.getElementsByTagName('g');
if (edges && edges.length) {
  for (var i=0;i<edges.length;i++) {
    if (edges[i].id.substr(0,4)=='edge') {
      edges[i].setAttribute('class','edge');
    }
  }
}
]]></script>
        <defs>
                <circle id="rim" cx="0" cy="0" r="7"/>
                <circle id="rim2" cx="0" cy="0" r="3.5"/>
                <g id="zoomPlus">
                        <use xlink:href="#rim" fill="#404040">
                                <set attributeName="fill" to="#808080" begin="zoomplus.mouseover" end="zoomplus.mouseout"/>
                        </use>
                        <path d="M-4,0h8M0,-4v8" fill="none" stroke="white" stroke-width="1.5" pointer-events="none"/>
                </g>
                <g id="zoomMin">
                        <use xlink:href="#rim" fill="#404040">
                                <set attributeName="fill" to="#808080" begin="zoomminus.mouseover" end="zoomminus.mouseout"/>
                        </use>
                        <path d="M-4,0h8" fill="none" stroke="white" stroke-width="1.5" pointer-events="none"/>
                </g>
                <g id="dirArrow">
                        <path fill="none" stroke="white" stroke-width="1.5" d="M0,-3.0v7 M-2.5,-0.5L0,-3.0L2.5,-0.5"/>
                </g>
               <g id="resetDef">
                       <use xlink:href="#rim2" fill="#404040">
                               <set attributeName="fill" to="#808080" begin="reset.mouseover" end="reset.mouseout"/>
                       </use>
               </g>
        </defs>

<script type="text/javascript">
var viewWidth = 1005;
var viewHeight = 558;
var sectionId = 'dynsection-14';
</script>
<script xlink:href="svgpan.js"/>
<svg id="graph" class="graph">
<g id="viewport">
<title>AServoDriver::setPulsePos</title>
<polygon fill="white" stroke="transparent" points="-4,4 -4,-553.5 1001,-553.5 1001,4 -4,4"/>
<!-- Node1 -->
<g id="node1" class="node">
<title>Node1</title>
<g id="a_node1"><a xlink:title="Definit la position du servo par largeur d&#39;impulsion PWM.">
<polygon fill="#bfbfbf" stroke="black" points="851,-177 851,-196 997,-196 997,-177 851,-177"/>
<text text-anchor="middle" x="924" y="-184" font-family="Helvetica,sans-Serif" font-size="10.00">AServoDriver::setPulsePos</text>
</a>
</g>
</g>
<!-- Node2 -->
<g id="node2" class="node">
<title>Node2</title>
<g id="a_node2"><a xlink:href="classServoObjectsSystem.html#a6df7e1694087d2fa67d41aeef363b3f3" target="_top" xlink:title="Déploie un servo à la position donnée.">
<polygon fill="white" stroke="black" points="697,-433.5 697,-463.5 815,-463.5 815,-433.5 697,-433.5"/>
<text text-anchor="start" x="705" y="-451.5" font-family="Helvetica,sans-Serif" font-size="10.00">ServoObjectsSystem</text>
<text text-anchor="middle" x="756" y="-440.5" font-family="Helvetica,sans-Serif" font-size="10.00">::deploy</text>
</a>
</g>
</g>
<!-- Node1&#45;&gt;Node2 -->
<g id="edge1" class="edge">
<title>Node1&#45;&gt;Node2</title>
<path fill="none" stroke="midnightblue" d="M911.43,-204.76C880.35,-253.81 795.47,-387.78 766.69,-433.2"/>
<polygon fill="midnightblue" stroke="midnightblue" points="914.5,-206.46 916.9,-196.14 908.59,-202.71 914.5,-206.46"/>
</g>
<!-- Node4 -->
<g id="node4" class="node">
<title>Node4</title>
<g id="a_node4"><a xlink:href="classServoObjectsSystem.html#a365a1064fe865a6e081294ed124861bb" target="_top" xlink:title="Déploie un servo avec une vitesse contrôlée.">
<polygon fill="white" stroke="black" points="697,-294.5 697,-324.5 815,-324.5 815,-294.5 697,-294.5"/>
<text text-anchor="start" x="705" y="-312.5" font-family="Helvetica,sans-Serif" font-size="10.00">ServoObjectsSystem</text>
<text text-anchor="middle" x="756" y="-301.5" font-family="Helvetica,sans-Serif" font-size="10.00">::deployWithVelocity</text>
</a>
</g>
</g>
<!-- Node1&#45;&gt;Node4 -->
<g id="edge3" class="edge">
<title>Node1&#45;&gt;Node4</title>
<path fill="none" stroke="midnightblue" d="M907.72,-203.83C888.03,-225.32 851.93,-261.98 815,-285.5 809.85,-288.78 804.18,-291.77 798.46,-294.45"/>
<polygon fill="midnightblue" stroke="midnightblue" points="910.55,-205.92 914.65,-196.15 905.36,-201.23 910.55,-205.92"/>
</g>
<!-- Node5 -->
<g id="node5" class="node">
<title>Node5</title>
<g id="a_node5"><a xlink:href="classServoObjectsSystem.html#a60de17986f65700a7659b22edda2faef" target="_top" xlink:title="move 1 servo.">
<polygon fill="white" stroke="black" points="697,-245.5 697,-275.5 815,-275.5 815,-245.5 697,-245.5"/>
<text text-anchor="start" x="705" y="-263.5" font-family="Helvetica,sans-Serif" font-size="10.00">ServoObjectsSystem</text>
<text text-anchor="middle" x="756" y="-252.5" font-family="Helvetica,sans-Serif" font-size="10.00">::move_1_servo</text>
</a>
</g>
</g>
<!-- Node1&#45;&gt;Node5 -->
<g id="edge4" class="edge">
<title>Node1&#45;&gt;Node5</title>
<path fill="none" stroke="midnightblue" d="M893.51,-200.55C871.89,-210.76 841.75,-224.78 815,-236.5 808.21,-239.47 800.94,-242.56 793.92,-245.49"/>
<polygon fill="midnightblue" stroke="midnightblue" points="895.27,-203.59 902.81,-196.15 892.27,-197.27 895.27,-203.59"/>
</g>
<!-- Node19 -->
<g id="node19" class="node">
<title>Node19</title>
<g id="a_node19"><a xlink:href="classServoObjectsSystem.html#a209d4e6a24c8cd26c76168c08e330655" target="_top" xlink:title="move 2 servos.">
<polygon fill="white" stroke="black" points="697,-196.5 697,-226.5 815,-226.5 815,-196.5 697,-196.5"/>
<text text-anchor="start" x="705" y="-214.5" font-family="Helvetica,sans-Serif" font-size="10.00">ServoObjectsSystem</text>
<text text-anchor="middle" x="756" y="-203.5" font-family="Helvetica,sans-Serif" font-size="10.00">::move_2_servos</text>
</a>
</g>
</g>
<!-- Node1&#45;&gt;Node19 -->
<g id="edge29" class="edge">
<title>Node1&#45;&gt;Node19</title>
<path fill="none" stroke="midnightblue" d="M849.69,-197.54C838.13,-199.28 826.31,-201.06 815.15,-202.74"/>
<polygon fill="midnightblue" stroke="midnightblue" points="850.4,-200.97 859.77,-196.02 849.36,-194.05 850.4,-200.97"/>
</g>
<!-- Node20 -->
<g id="node20" class="node">
<title>Node20</title>
<g id="a_node20"><a xlink:href="classServoObjectsSystem.html#a8d96f5f8ccdfb9ca69a73e523f388191" target="_top" xlink:title="Déplace 3 servos simultanément.">
<polygon fill="white" stroke="black" points="697,-147.5 697,-177.5 815,-177.5 815,-147.5 697,-147.5"/>
<text text-anchor="start" x="705" y="-165.5" font-family="Helvetica,sans-Serif" font-size="10.00">ServoObjectsSystem</text>
<text text-anchor="middle" x="756" y="-154.5" font-family="Helvetica,sans-Serif" font-size="10.00">::move_3_servos</text>
</a>
</g>
</g>
<!-- Node1&#45;&gt;Node20 -->
<g id="edge33" class="edge">
<title>Node1&#45;&gt;Node20</title>
<path fill="none" stroke="midnightblue" d="M846.77,-175.48C836.12,-173.94 825.32,-172.38 815.08,-170.9"/>
<polygon fill="midnightblue" stroke="midnightblue" points="846.52,-178.98 856.92,-176.95 847.52,-172.05 846.52,-178.98"/>
</g>
<!-- Node21 -->
<g id="node21" class="node">
<title>Node21</title>
<g id="a_node21"><a xlink:href="classServoObjectsSystem.html#a885ad7b498315c66de65dae7149b3ea1" target="_top" xlink:title="Déplace 4 servos simultanément.">
<polygon fill="white" stroke="black" points="697,-98.5 697,-128.5 815,-128.5 815,-98.5 697,-98.5"/>
<text text-anchor="start" x="705" y="-116.5" font-family="Helvetica,sans-Serif" font-size="10.00">ServoObjectsSystem</text>
<text text-anchor="middle" x="756" y="-105.5" font-family="Helvetica,sans-Serif" font-size="10.00">::move_4_servos</text>
</a>
</g>
</g>
<!-- Node1&#45;&gt;Node21 -->
<g id="edge34" class="edge">
<title>Node1&#45;&gt;Node21</title>
<path fill="none" stroke="midnightblue" d="M893.09,-172.6C871.47,-162.64 841.54,-149.01 815,-137.5 808.2,-134.55 800.92,-131.48 793.9,-128.55"/>
<polygon fill="midnightblue" stroke="midnightblue" points="891.84,-175.88 902.39,-176.9 894.78,-169.53 891.84,-175.88"/>
</g>
<!-- Node22 -->
<g id="node22" class="node">
<title>Node22</title>
<g id="a_node22"><a xlink:href="classServoObjectsTimer.html#a678b5b8c91a359ee1fc44c314e6d547e" target="_top" xlink:title="fonction qui sera executer à chaque traitement du timer.">
<polygon fill="white" stroke="black" points="698,-49.5 698,-79.5 814,-79.5 814,-49.5 698,-49.5"/>
<text text-anchor="start" x="706" y="-67.5" font-family="Helvetica,sans-Serif" font-size="10.00">ServoObjectsTimer::</text>
<text text-anchor="middle" x="756" y="-56.5" font-family="Helvetica,sans-Serif" font-size="10.00">onTimer</text>
</a>
</g>
</g>
<!-- Node1&#45;&gt;Node22 -->
<g id="edge35" class="edge">
<title>Node1&#45;&gt;Node22</title>
<path fill="none" stroke="midnightblue" d="M907.68,-169.35C887.96,-148.09 851.82,-111.82 815,-88.5 809.84,-85.23 804.17,-82.25 798.45,-79.58"/>
<polygon fill="midnightblue" stroke="midnightblue" points="905.3,-171.94 914.63,-176.96 910.47,-167.22 905.3,-171.94"/>
</g>
<!-- Node23 -->
<g id="node23" class="node">
<title>Node23</title>
<g id="a_node23"><a xlink:href="classServoObjectsSystem.html#ad7eb78526aeee0ce0a3677b711c1b191" target="_top" xlink:title="fonction avec vitesse reglable pos : AX12 : 0 &#45; 512 &#45; 1023">
<polygon fill="white" stroke="black" points="697,-0.5 697,-30.5 815,-30.5 815,-0.5 697,-0.5"/>
<text text-anchor="start" x="705" y="-18.5" font-family="Helvetica,sans-Serif" font-size="10.00">ServoObjectsSystem</text>
<text text-anchor="middle" x="756" y="-7.5" font-family="Helvetica,sans-Serif" font-size="10.00">::setPos</text>
</a>
</g>
</g>
<!-- Node1&#45;&gt;Node23 -->
<g id="edge36" class="edge">
<title>Node1&#45;&gt;Node23</title>
<path fill="none" stroke="midnightblue" d="M913.58,-167.68C897.36,-136.96 861.35,-75.83 815,-39.5 810.71,-36.14 805.89,-33.18 800.9,-30.58"/>
<polygon fill="midnightblue" stroke="midnightblue" points="910.62,-169.57 918.32,-176.85 916.84,-166.36 910.62,-169.57"/>
</g>
<!-- Node3 -->
<g id="node3" class="node">
<title>Node3</title>
<g id="a_node3"><a xlink:href="classO__ServoStepTest.html#aefbe5c17504e0782e71a6ca13ed40518" target="_top" xlink:title="Execute le test.">
<polygon fill="white" stroke="black" points="526.5,-530 526.5,-549 646.5,-549 646.5,-530 526.5,-530"/>
<text text-anchor="middle" x="586.5" y="-537" font-family="Helvetica,sans-Serif" font-size="10.00">O_ServoStepTest::run</text>
</a>
</g>
</g>
<!-- Node2&#45;&gt;Node3 -->
<g id="edge2" class="edge">
<title>Node2&#45;&gt;Node3</title>
<path fill="none" stroke="midnightblue" d="M731.7,-470.65C713.69,-486.64 687.44,-507.62 661,-520.5 653.18,-524.31 644.51,-527.42 635.94,-529.93"/>
<polygon fill="midnightblue" stroke="midnightblue" points="734.31,-473 739.37,-463.69 729.61,-467.82 734.31,-473"/>
</g>
<!-- Node6 -->
<g id="node6" class="node">
<title>Node6</title>
<g id="a_node6"><a xlink:href="classOPOS6UL__ActionsExtended.html#a946560d21bc7c1a12be600b16e07c93a" target="_top" xlink:title="Déploie le bras droit en position d&#39;action.">
<polygon fill="white" stroke="black" points="512,-431.5 512,-461.5 661,-461.5 661,-431.5 512,-431.5"/>
<text text-anchor="start" x="520" y="-449.5" font-family="Helvetica,sans-Serif" font-size="10.00">OPOS6UL_ActionsExtended</text>
<text text-anchor="middle" x="586.5" y="-438.5" font-family="Helvetica,sans-Serif" font-size="10.00">::ax12_bras_droit</text>
</a>
</g>
</g>
<!-- Node5&#45;&gt;Node6 -->
<g id="edge5" class="edge">
<title>Node5&#45;&gt;Node6</title>
<path fill="none" stroke="midnightblue" d="M700.62,-281.75C699.34,-282.94 698.13,-284.19 697,-285.5 655.94,-333.23 704.19,-376.7 661,-422.5 657.78,-425.92 654.06,-428.85 650.05,-431.37"/>
<polygon fill="midnightblue" stroke="midnightblue" points="702.78,-284.51 708.59,-275.65 698.52,-278.96 702.78,-284.51"/>
</g>
<!-- Node11 -->
<g id="node11" class="node">
<title>Node11</title>
<g id="a_node11"><a xlink:href="classOPOS6UL__ActionsExtended.html#a67daef275b861004d118273c7e2564c2" target="_top" xlink:title="Place le bras droit en position initiale (replié).">
<polygon fill="white" stroke="black" points="512,-284.5 512,-314.5 661,-314.5 661,-284.5 512,-284.5"/>
<text text-anchor="start" x="520" y="-302.5" font-family="Helvetica,sans-Serif" font-size="10.00">OPOS6UL_ActionsExtended</text>
<text text-anchor="middle" x="586.5" y="-291.5" font-family="Helvetica,sans-Serif" font-size="10.00">::ax12_bras_droit_init</text>
</a>
</g>
</g>
<!-- Node5&#45;&gt;Node11 -->
<g id="edge12" class="edge">
<title>Node5&#45;&gt;Node11</title>
<path fill="none" stroke="midnightblue" d="M686.91,-276.35C675.41,-279.03 663.5,-281.8 652.1,-284.46"/>
<polygon fill="midnightblue" stroke="midnightblue" points="687.94,-279.71 696.89,-274.03 686.35,-272.89 687.94,-279.71"/>
</g>
<!-- Node12 -->
<g id="node12" class="node">
<title>Node12</title>
<g id="a_node12"><a xlink:href="classOPOS6UL__ActionsExtended.html#a5b32b355b6907dda48874f40dc9101eb" target="_top" xlink:title="Déploie le bras gauche en position d&#39;action.">
<polygon fill="white" stroke="black" points="512,-333.5 512,-363.5 661,-363.5 661,-333.5 512,-333.5"/>
<text text-anchor="start" x="520" y="-351.5" font-family="Helvetica,sans-Serif" font-size="10.00">OPOS6UL_ActionsExtended</text>
<text text-anchor="middle" x="586.5" y="-340.5" font-family="Helvetica,sans-Serif" font-size="10.00">::ax12_bras_gauche</text>
</a>
</g>
</g>
<!-- Node5&#45;&gt;Node12 -->
<g id="edge15" class="edge">
<title>Node5&#45;&gt;Node12</title>
<path fill="none" stroke="midnightblue" d="M704.92,-280.43C702.17,-282.03 699.51,-283.72 697,-285.5 677.75,-299.13 680.85,-311.76 661,-324.5 655.69,-327.91 649.85,-330.87 643.86,-333.44"/>
<polygon fill="midnightblue" stroke="midnightblue" points="706.72,-283.43 713.9,-275.64 703.43,-277.26 706.72,-283.43"/>
</g>
<!-- Node13 -->
<g id="node13" class="node">
<title>Node13</title>
<g id="a_node13"><a xlink:href="classOPOS6UL__ActionsExtended.html#ad3b7d5a26040d5780cc43a5a9ead9ad3" target="_top" xlink:title="Place le bras gauche en position initiale (replié).">
<polygon fill="white" stroke="black" points="512,-480.5 512,-510.5 661,-510.5 661,-480.5 512,-480.5"/>
<text text-anchor="start" x="520" y="-498.5" font-family="Helvetica,sans-Serif" font-size="10.00">OPOS6UL_ActionsExtended</text>
<text text-anchor="middle" x="586.5" y="-487.5" font-family="Helvetica,sans-Serif" font-size="10.00">::ax12_bras_gauche_init</text>
</a>
</g>
</g>
<!-- Node5&#45;&gt;Node13 -->
<g id="edge18" class="edge">
<title>Node5&#45;&gt;Node13</title>
<path fill="none" stroke="midnightblue" d="M700.1,-282.06C699,-283.15 697.97,-284.3 697,-285.5 644.22,-351.1 716.72,-408.37 661,-471.5 657.98,-474.92 654.47,-477.86 650.64,-480.38"/>
<polygon fill="midnightblue" stroke="midnightblue" points="702.48,-284.63 708.05,-275.62 698.08,-279.19 702.48,-284.63"/>
</g>
<!-- Node14 -->
<g id="node14" class="node">
<title>Node14</title>
<g id="a_node14"><a xlink:href="classOPOS6UL__ActionsExtended.html#a44856498aa3839098211785a1fe0b6a3" target="_top" xlink:title="Déploie la banderole (action de fin de match).">
<polygon fill="white" stroke="black" points="327,-240.5 327,-270.5 476,-270.5 476,-240.5 327,-240.5"/>
<text text-anchor="start" x="335" y="-258.5" font-family="Helvetica,sans-Serif" font-size="10.00">OPOS6UL_ActionsExtended</text>
<text text-anchor="middle" x="401.5" y="-247.5" font-family="Helvetica,sans-Serif" font-size="10.00">::ax12_GO_banderole</text>
</a>
</g>
</g>
<!-- Node5&#45;&gt;Node14 -->
<g id="edge21" class="edge">
<title>Node5&#45;&gt;Node14</title>
<path fill="none" stroke="midnightblue" d="M686.58,-259.53C626.1,-258.67 538.1,-257.42 476.11,-256.54"/>
<polygon fill="midnightblue" stroke="midnightblue" points="686.74,-263.03 696.79,-259.67 686.84,-256.03 686.74,-263.03"/>
</g>
<!-- Node15 -->
<g id="node15" class="node">
<title>Node15</title>
<g id="a_node15"><a xlink:href="classOPOS6UL__ActionsExtended.html#ae63e06f334f5095383387aa9ff68c8a3" target="_top" xlink:title="Initialise le servo de la banderole à la position repliée.">
<polygon fill="white" stroke="black" points="512,-382.5 512,-412.5 661,-412.5 661,-382.5 512,-382.5"/>
<text text-anchor="start" x="520" y="-400.5" font-family="Helvetica,sans-Serif" font-size="10.00">OPOS6UL_ActionsExtended</text>
<text text-anchor="middle" x="586.5" y="-389.5" font-family="Helvetica,sans-Serif" font-size="10.00">::ax12_init_banderole</text>
</a>
</g>
</g>
<!-- Node5&#45;&gt;Node15 -->
<g id="edge23" class="edge">
<title>Node5&#45;&gt;Node15</title>
<path fill="none" stroke="midnightblue" d="M701.5,-281.42C699.92,-282.7 698.41,-284.06 697,-285.5 667.4,-315.66 691.95,-344.73 661,-373.5 657.26,-376.97 653.02,-379.94 648.5,-382.49"/>
<polygon fill="midnightblue" stroke="midnightblue" points="703.71,-284.15 709.94,-275.58 699.73,-278.39 703.71,-284.15"/>
</g>
<!-- Node16 -->
<g id="node16" class="node">
<title>Node16</title>
<g id="a_node16"><a xlink:href="classOPOS6UL__ActionsExtended.html#a565acda2ce4cdd1be8263835465d0fdc" target="_top" xlink:title="Initialise le bras gauche (épaule, coude, poignet) à la position de repos.">
<polygon fill="white" stroke="black" points="512,-196.5 512,-226.5 661,-226.5 661,-196.5 512,-196.5"/>
<text text-anchor="start" x="520" y="-214.5" font-family="Helvetica,sans-Serif" font-size="10.00">OPOS6UL_ActionsExtended</text>
<text text-anchor="middle" x="586.5" y="-203.5" font-family="Helvetica,sans-Serif" font-size="10.00">::ax12_init_L</text>
</a>
</g>
</g>
<!-- Node5&#45;&gt;Node16 -->
<g id="edge26" class="edge">
<title>Node5&#45;&gt;Node16</title>
<path fill="none" stroke="midnightblue" d="M693.58,-242.53C675.64,-237.28 656.21,-231.6 638.95,-226.55"/>
<polygon fill="midnightblue" stroke="midnightblue" points="692.8,-245.95 703.38,-245.4 694.76,-239.23 692.8,-245.95"/>
</g>
<!-- Node17 -->
<g id="node17" class="node">
<title>Node17</title>
<g id="a_node17"><a xlink:href="classOPOS6UL__ActionsExtended.html#a50a3db095faaaf15ec9630d9abcfb5d4" target="_top" xlink:title="Initialise les deux bras (gauche et droit) à la position de repos.">
<polygon fill="white" stroke="black" points="512,-147.5 512,-177.5 661,-177.5 661,-147.5 512,-147.5"/>
<text text-anchor="start" x="520" y="-165.5" font-family="Helvetica,sans-Serif" font-size="10.00">OPOS6UL_ActionsExtended</text>
<text text-anchor="middle" x="586.5" y="-154.5" font-family="Helvetica,sans-Serif" font-size="10.00">::ax12_init_LR</text>
</a>
</g>
</g>
<!-- Node5&#45;&gt;Node17 -->
<g id="edge27" class="edge">
<title>Node5&#45;&gt;Node17</title>
<path fill="none" stroke="midnightblue" d="M702.03,-240.12C700.29,-238.96 698.61,-237.76 697,-236.5 675.73,-219.83 682.8,-203.48 661,-187.5 655.78,-183.68 649.94,-180.41 643.88,-177.62"/>
<polygon fill="midnightblue" stroke="midnightblue" points="700.7,-243.39 711.1,-245.42 704.24,-237.35 700.7,-243.39"/>
</g>
<!-- Node18 -->
<g id="node18" class="node">
<title>Node18</title>
<g id="a_node18"><a xlink:href="classOPOS6UL__ActionsExtended.html#a298422faffadf81c4350cd47464d3f0a" target="_top" xlink:title="Initialise le bras droit (épaule, coude, poignet) à la position de repos.">
<polygon fill="white" stroke="black" points="512,-98.5 512,-128.5 661,-128.5 661,-98.5 512,-98.5"/>
<text text-anchor="start" x="520" y="-116.5" font-family="Helvetica,sans-Serif" font-size="10.00">OPOS6UL_ActionsExtended</text>
<text text-anchor="middle" x="586.5" y="-105.5" font-family="Helvetica,sans-Serif" font-size="10.00">::ax12_init_R</text>
</a>
</g>
</g>
<!-- Node5&#45;&gt;Node18 -->
<g id="edge28" class="edge">
<title>Node5&#45;&gt;Node18</title>
<path fill="none" stroke="midnightblue" d="M699.86,-239.25C698.87,-238.37 697.91,-237.45 697,-236.5 664.62,-202.68 694.65,-170.05 661,-137.5 657.43,-134.05 653.36,-131.09 649,-128.56"/>
<polygon fill="midnightblue" stroke="midnightblue" points="697.97,-242.2 708.09,-245.33 702.13,-236.57 697.97,-242.2"/>
</g>
<!-- Node7 -->
<g id="node7" class="node">
<title>Node7</title>
<g id="a_node7"><a xlink:href="classOPOS6UL__ActionsExtended.html#af04e19802d90a78d82e67b10061521a2" target="_top" xlink:title="Initialise tous les servomoteurs AX12 à leur position de départ.">
<polygon fill="white" stroke="black" points="327,-404.5 327,-434.5 476,-434.5 476,-404.5 327,-404.5"/>
<text text-anchor="start" x="335" y="-422.5" font-family="Helvetica,sans-Serif" font-size="10.00">OPOS6UL_ActionsExtended</text>
<text text-anchor="middle" x="401.5" y="-411.5" font-family="Helvetica,sans-Serif" font-size="10.00">::ax12_init</text>
</a>
</g>
</g>
<!-- Node6&#45;&gt;Node7 -->
<g id="edge6" class="edge">
<title>Node6&#45;&gt;Node7</title>
<path fill="none" stroke="midnightblue" d="M501.89,-434.16C493.35,-432.9 484.72,-431.63 476.29,-430.39"/>
<polygon fill="midnightblue" stroke="midnightblue" points="501.45,-437.64 511.86,-435.63 502.48,-430.71 501.45,-437.64"/>
</g>
<!-- Node9 -->
<g id="node9" class="node">
<title>Node9</title>
<g id="a_node9"><a xlink:href="classO__ServoObjectsTest.html#aabfa9ba518070128940062ed11028ca7" target="_top" xlink:title="Execute le test.">
<polygon fill="white" stroke="black" points="156,-366 156,-385 291,-385 291,-366 156,-366"/>
<text text-anchor="middle" x="223.5" y="-373" font-family="Helvetica,sans-Serif" font-size="10.00">O_ServoObjectsTest::run</text>
</a>
</g>
</g>
<!-- Node6&#45;&gt;Node9 -->
<g id="edge11" class="edge">
<title>Node6&#45;&gt;Node9</title>
<path fill="none" stroke="midnightblue" d="M501.81,-457.9C450.27,-462 383.47,-461.98 327,-444.5 288.68,-432.64 251.65,-401.29 234.47,-385.25"/>
<polygon fill="midnightblue" stroke="midnightblue" points="502.25,-461.38 511.91,-457.03 501.64,-454.4 502.25,-461.38"/>
</g>
<!-- Node8 -->
<g id="node8" class="node">
<title>Node8</title>
<g id="a_node8"><a xlink:href="classO__State__Init.html#abc19788b7457d1f819245dd28367fe91" target="_top" xlink:title="Exécute l&#39;état d&#39;initialisation.">
<polygon fill="white" stroke="black" points="0,-426 0,-445 120,-445 120,-426 0,-426"/>
<text text-anchor="middle" x="60" y="-433" font-family="Helvetica,sans-Serif" font-size="10.00">O_State_Init::execute</text>
</a>
</g>
</g>
<!-- Node7&#45;&gt;Node8 -->
<g id="edge7" class="edge">
<title>Node7&#45;&gt;Node8</title>
<path fill="none" stroke="midnightblue" d="M316.83,-423.44C255.79,-426.32 174.54,-430.15 120.13,-432.71"/>
<polygon fill="midnightblue" stroke="midnightblue" points="317.01,-426.94 326.83,-422.97 316.68,-419.95 317.01,-426.94"/>
</g>
<!-- Node7&#45;&gt;Node9 -->
<g id="edge8" class="edge">
<title>Node7&#45;&gt;Node9</title>
<path fill="none" stroke="midnightblue" d="M330.6,-402.03C307.39,-396.22 282.43,-389.98 262.55,-385.01"/>
<polygon fill="midnightblue" stroke="midnightblue" points="329.87,-405.45 340.42,-404.48 331.57,-398.66 329.87,-405.45"/>
</g>
<!-- Node10 -->
<g id="node10" class="node">
<title>Node10</title>
<g id="a_node10"><a xlink:href="classO__State__Init.html#a1980cd82dcb83e88d61f2e7e14dddfa0" target="_top" xlink:title=" ">
<polygon fill="white" stroke="black" points="166.5,-445 166.5,-464 280.5,-464 280.5,-445 166.5,-445"/>
<text text-anchor="middle" x="223.5" y="-452" font-family="Helvetica,sans-Serif" font-size="10.00">O_State_Init::setPos</text>
</a>
</g>
</g>
<!-- Node7&#45;&gt;Node10 -->
<g id="edge9" class="edge">
<title>Node7&#45;&gt;Node10</title>
<path fill="none" stroke="midnightblue" d="M316.91,-436.12C301.68,-439.15 286.27,-442.22 272.52,-444.95"/>
<polygon fill="midnightblue" stroke="midnightblue" points="317.75,-439.52 326.88,-434.14 316.39,-432.66 317.75,-439.52"/>
</g>
<!-- Node10&#45;&gt;Node8 -->
<g id="edge10" class="edge">
<title>Node10&#45;&gt;Node8</title>
<path fill="none" stroke="midnightblue" d="M156.51,-446.74C144.5,-445.32 132.03,-443.86 120.23,-442.47"/>
<polygon fill="midnightblue" stroke="midnightblue" points="156.13,-450.22 166.47,-447.91 156.95,-443.26 156.13,-450.22"/>
</g>
<!-- Node11&#45;&gt;Node7 -->
<g id="edge13" class="edge">
<title>Node11&#45;&gt;Node7</title>
<path fill="none" stroke="midnightblue" d="M523.56,-318.58C519.57,-320.41 515.68,-322.39 512,-324.5 473.37,-346.68 435.81,-383.6 416.31,-404.28"/>
<polygon fill="midnightblue" stroke="midnightblue" points="525.17,-321.7 533,-314.55 522.43,-315.26 525.17,-321.7"/>
</g>
<!-- Node11&#45;&gt;Node9 -->
<g id="edge14" class="edge">
<title>Node11&#45;&gt;Node9</title>
<path fill="none" stroke="midnightblue" d="M501.96,-316.22C451.3,-326.46 385.37,-339.97 327,-352.5 307.03,-356.79 284.91,-361.73 266.35,-365.92"/>
<polygon fill="midnightblue" stroke="midnightblue" points="502.77,-319.63 511.88,-314.22 501.39,-312.76 502.77,-319.63"/>
</g>
<!-- Node12&#45;&gt;Node7 -->
<g id="edge16" class="edge">
<title>Node12&#45;&gt;Node7</title>
<path fill="none" stroke="midnightblue" d="M529.94,-366.94C523.87,-369.09 517.79,-371.3 512,-373.5 486.55,-383.16 458.24,-395.09 436.77,-404.38"/>
<polygon fill="midnightblue" stroke="midnightblue" points="531.17,-370.22 539.45,-363.61 528.86,-363.61 531.17,-370.22"/>
</g>
<!-- Node12&#45;&gt;Node9 -->
<g id="edge17" class="edge">
<title>Node12&#45;&gt;Node9</title>
<path fill="none" stroke="midnightblue" d="M501.49,-354.78C437.41,-359.58 350.33,-366.09 291.03,-370.52"/>
<polygon fill="midnightblue" stroke="midnightblue" points="501.86,-358.27 511.58,-354.03 501.34,-351.28 501.86,-358.27"/>
</g>
<!-- Node13&#45;&gt;Node7 -->
<g id="edge19" class="edge">
<title>Node13&#45;&gt;Node7</title>
<path fill="none" stroke="midnightblue" d="M526.84,-477.1C521.79,-475.29 516.79,-473.41 512,-471.5 484.24,-460.43 453.59,-445.64 431.79,-434.67"/>
<polygon fill="midnightblue" stroke="midnightblue" points="525.96,-480.5 536.56,-480.49 528.27,-473.89 525.96,-480.5"/>
</g>
<!-- Node13&#45;&gt;Node9 -->
<g id="edge20" class="edge">
<title>Node13&#45;&gt;Node9</title>
<path fill="none" stroke="midnightblue" d="M501.72,-498.27C449.43,-497.03 381.87,-489.87 327,-465.5 321.51,-463.06 260.27,-407.9 235.15,-385.16"/>
<polygon fill="midnightblue" stroke="midnightblue" points="501.91,-501.77 511.97,-498.44 502.03,-494.77 501.91,-501.77"/>
</g>
<!-- Node14&#45;&gt;Node9 -->
<g id="edge22" class="edge">
<title>Node14&#45;&gt;Node9</title>
<path fill="none" stroke="midnightblue" d="M347.11,-274.81C340.16,-278.04 333.29,-281.61 327,-285.5 288.33,-309.42 250.01,-348.09 233.27,-365.92"/>
<polygon fill="midnightblue" stroke="midnightblue" points="348.83,-277.88 356.57,-270.64 346.01,-271.47 348.83,-277.88"/>
</g>
<!-- Node15&#45;&gt;Node7 -->
<g id="edge24" class="edge">
<title>Node15&#45;&gt;Node7</title>
<path fill="none" stroke="midnightblue" d="M501.89,-407.55C493.35,-408.58 484.72,-409.62 476.29,-410.63"/>
<polygon fill="midnightblue" stroke="midnightblue" points="502.35,-411.02 511.86,-406.35 501.51,-404.07 502.35,-411.02"/>
</g>
<!-- Node15&#45;&gt;Node9 -->
<g id="edge25" class="edge">
<title>Node15&#45;&gt;Node9</title>
<path fill="none" stroke="midnightblue" d="M501.49,-392.38C437.41,-388.47 350.33,-383.17 291.03,-379.55"/>
<polygon fill="midnightblue" stroke="midnightblue" points="501.38,-395.88 511.58,-392.99 501.81,-388.89 501.38,-395.88"/>
</g>
<!-- Node19&#45;&gt;Node16 -->
<g id="edge30" class="edge">
<title>Node19&#45;&gt;Node16</title>
<path fill="none" stroke="midnightblue" d="M686.73,-211.5C678.3,-211.5 669.66,-211.5 661.15,-211.5"/>
<polygon fill="midnightblue" stroke="midnightblue" points="686.89,-215 696.89,-211.5 686.89,-208 686.89,-215"/>
</g>
<!-- Node19&#45;&gt;Node17 -->
<g id="edge31" class="edge">
<title>Node19&#45;&gt;Node17</title>
<path fill="none" stroke="midnightblue" d="M693.58,-193.53C675.64,-188.28 656.21,-182.6 638.95,-177.55"/>
<polygon fill="midnightblue" stroke="midnightblue" points="692.8,-196.95 703.38,-196.4 694.76,-190.23 692.8,-196.95"/>
</g>
<!-- Node19&#45;&gt;Node18 -->
<g id="edge32" class="edge">
<title>Node19&#45;&gt;Node18</title>
<path fill="none" stroke="midnightblue" d="M702.02,-191.13C700.28,-189.98 698.6,-188.77 697,-187.5 675.53,-170.51 683.11,-153.66 661,-137.5 656.34,-134.09 651.17,-131.15 645.8,-128.62"/>
<polygon fill="midnightblue" stroke="midnightblue" points="700.68,-194.41 711.07,-196.46 704.23,-188.37 700.68,-194.41"/>
</g>
</g>
</svg>
        <g id="navigator" transform="translate(0 0)" fill="#404254">
                <rect fill="#f2f5e9" fill-opacity="0.5" stroke="#606060" stroke-width=".5" x="0" y="0" width="60" height="60"/>
                <use id="zoomplus" xlink:href="#zoomPlus" x="17" y="9" onmousedown="handleZoom(evt,'in')"/>
                <use id="zoomminus" xlink:href="#zoomMin" x="42" y="9" onmousedown="handleZoom(evt,'out')"/>
                <use id="reset" xlink:href="#resetDef" x="30" y="36" onmousedown="handleReset()"/>
                <g id="arrowUp" xlink:href="#dirArrow" transform="translate(30 24)" onmousedown="handlePan(0,-1)">
                  <use xlink:href="#rim" fill="#404040">
                        <set attributeName="fill" to="#808080" begin="arrowUp.mouseover" end="arrowUp.mouseout"/>
                  </use>
                  <path fill="none" stroke="white" stroke-width="1.5" d="M0,-3.0v7 M-2.5,-0.5L0,-3.0L2.5,-0.5"/>
                </g>
                <g id="arrowRight" xlink:href="#dirArrow" transform="rotate(90) translate(36 -43)" onmousedown="handlePan(1,0)">
                  <use xlink:href="#rim" fill="#404040">
                        <set attributeName="fill" to="#808080" begin="arrowRight.mouseover" end="arrowRight.mouseout"/>
                  </use>
                  <path fill="none" stroke="white" stroke-width="1.5" d="M0,-3.0v7 M-2.5,-0.5L0,-3.0L2.5,-0.5"/>
                </g>
                <g id="arrowDown" xlink:href="#dirArrow" transform="rotate(180) translate(-30 -48)" onmousedown="handlePan(0,1)">
                  <use xlink:href="#rim" fill="#404040">
                        <set attributeName="fill" to="#808080" begin="arrowDown.mouseover" end="arrowDown.mouseout"/>
                  </use>
                  <path fill="none" stroke="white" stroke-width="1.5" d="M0,-3.0v7 M-2.5,-0.5L0,-3.0L2.5,-0.5"/>
                </g>
                <g id="arrowLeft" xlink:href="#dirArrow" transform="rotate(270) translate(-36 17)" onmousedown="handlePan(-1,0)">
                  <use xlink:href="#rim" fill="#404040">
                        <set attributeName="fill" to="#808080" begin="arrowLeft.mouseover" end="arrowLeft.mouseout"/>
                  </use>
                  <path fill="none" stroke="white" stroke-width="1.5" d="M0,-3.0v7 M-2.5,-0.5L0,-3.0L2.5,-0.5"/>
                </g>
        </g>
        <svg viewBox="0 0 15 15" width="100%" height="30px" preserveAspectRatio="xMaxYMin meet">
         <g id="arrow_out" transform="scale(0.3 0.3)">
          <a xlink:href="classAServoDriver_a3db6d14f3d23fdbd96e95add6a552b0c_icgraph_org.svg" target="_base">
           <rect id="button" ry="5" rx="5" y="6" x="6" height="38" width="38"
                fill="#f2f5e9" fill-opacity="0.5" stroke="#606060" stroke-width="1.0"/>
           <path id="arrow"
             d="M 11.500037,31.436501 C 11.940474,20.09759 22.043105,11.32322 32.158766,21.979434 L 37.068811,17.246167 C 37.068811,17.246167 37.088388,32 37.088388,32 L 22.160133,31.978069 C 22.160133,31.978069 26.997745,27.140456 26.997745,27.140456 C 18.528582,18.264221 13.291696,25.230495 11.500037,31.436501 z"
             style="fill:#404040;"/>
          </a>
         </g>
        </svg>
</svg>
