<?xml version="1.0" encoding="UTF-8" standalone="no"?>
<!DOCTYPE svg PUBLIC "-//W3C//DTD SVG 1.1//EN"
 "http://www.w3.org/Graphics/SVG/1.1/DTD/svg11.dtd">
<!-- Generated by graphviz version 2.43.0 (0)
 -->
<!-- Title: BeaconSensors::display Pages: 1 -->
<svg width="694pt" height="241pt"
 viewBox="0.00 0.00 694.00 240.50" xmlns="http://www.w3.org/2000/svg" xmlns:xlink="http://www.w3.org/1999/xlink">
<g id="graph0" class="graph" transform="scale(1 1) rotate(0) translate(4 236.5)">
<title>BeaconSensors::display</title>
<polygon fill="white" stroke="transparent" points="-4,4 -4,-236.5 690,-236.5 690,4 -4,4"/>
<!-- Node1 -->
<g id="node1" class="node">
<title>Node1</title>
<g id="a_node1"><a xlink:title=" ">
<polygon fill="#bfbfbf" stroke="black" points="0,-137 0,-156 132,-156 132,-137 0,-137"/>
<text text-anchor="middle" x="66" y="-144" font-family="Helvetica,sans-Serif" font-size="10.00">BeaconSensors::display</text>
</a>
</g>
</g>
<!-- Node2 -->
<g id="node2" class="node">
<title>Node2</title>
<g id="a_node2"><a xlink:href="namespacelogs.html#ac6f325c6cfe6189bc8e243daa184453b" target="_top" xlink:title="Cette méthode permet de finir les flux de construction par la notation.">
<polygon fill="white" stroke="black" points="201.5,-175 201.5,-194 262.5,-194 262.5,-175 201.5,-175"/>
<text text-anchor="middle" x="232" y="-182" font-family="Helvetica,sans-Serif" font-size="10.00">logs::end</text>
</a>
</g>
</g>
<!-- Node1&#45;&gt;Node2 -->
<g id="edge1" class="edge">
<title>Node1&#45;&gt;Node2</title>
<path fill="none" stroke="midnightblue" d="M108.38,-156.09C133.82,-161.98 166.23,-169.49 191.34,-175.31"/>
<polygon fill="midnightblue" stroke="midnightblue" points="190.74,-178.76 201.27,-177.61 192.32,-171.94 190.74,-178.76"/>
</g>
<!-- Node7 -->
<g id="node7" class="node">
<title>Node7</title>
<g id="a_node7"><a xlink:href="classlogs_1_1Logger.html#a8b6a2019233bc44b3c3c86c653910831" target="_top" xlink:title="Trace un message de niveau ERROR.">
<polygon fill="white" stroke="black" points="363.5,-137 363.5,-156 468.5,-156 468.5,-137 363.5,-137"/>
<text text-anchor="middle" x="416" y="-144" font-family="Helvetica,sans-Serif" font-size="10.00">logs::Logger::error</text>
</a>
</g>
</g>
<!-- Node1&#45;&gt;Node7 -->
<g id="edge6" class="edge">
<title>Node1&#45;&gt;Node7</title>
<path fill="none" stroke="midnightblue" d="M132.05,-146.5C195.41,-146.5 291.02,-146.5 353.23,-146.5"/>
<polygon fill="midnightblue" stroke="midnightblue" points="353.3,-150 363.3,-146.5 353.3,-143 353.3,-150"/>
</g>
<!-- Node8 -->
<g id="node8" class="node">
<title>Node8</title>
<g id="a_node8"><a xlink:href="classBeaconSensors.html#a6313d9e396cb5cd115205753e16a1932" target="_top" xlink:title="Retourne le Logger associé à la classe BeaconSensors(OPOS6UL).">
<polygon fill="white" stroke="black" points="168,-96 168,-115 296,-115 296,-96 168,-96"/>
<text text-anchor="middle" x="232" y="-103" font-family="Helvetica,sans-Serif" font-size="10.00">BeaconSensors::logger</text>
</a>
</g>
</g>
<!-- Node1&#45;&gt;Node8 -->
<g id="edge8" class="edge">
<title>Node1&#45;&gt;Node8</title>
<path fill="none" stroke="midnightblue" d="M105.04,-136.99C128.24,-131.19 158.11,-123.72 182.94,-117.51"/>
<polygon fill="midnightblue" stroke="midnightblue" points="184.03,-120.85 192.89,-115.03 182.34,-114.06 184.03,-120.85"/>
</g>
<!-- Node3 -->
<g id="node3" class="node">
<title>Node3</title>
<g id="a_node3"><a xlink:href="classlogs_1_1Logger_1_1LoggerBuffer.html#a0e4fd77693fd899ec1b0670354f93a02" target="_top" xlink:title="Cette méthode valide le message en cours de construction et le transmet au Logger de référence.">
<polygon fill="white" stroke="black" points="332,-175 332,-194 500,-194 500,-175 332,-175"/>
<text text-anchor="middle" x="416" y="-182" font-family="Helvetica,sans-Serif" font-size="10.00">logs::Logger::LoggerBuffer::end</text>
</a>
</g>
</g>
<!-- Node2&#45;&gt;Node3 -->
<g id="edge2" class="edge">
<title>Node2&#45;&gt;Node3</title>
<path fill="none" stroke="midnightblue" d="M262.65,-184.5C278.99,-184.5 300.29,-184.5 321.75,-184.5"/>
<polygon fill="midnightblue" stroke="midnightblue" points="321.93,-188 331.93,-184.5 321.93,-181 321.93,-188"/>
</g>
<!-- Node4 -->
<g id="node4" class="node">
<title>Node4</title>
<g id="a_node4"><a xlink:href="classutils_1_1Mutex.html#aa584b418a5ef484f76b93e361a1d7e32" target="_top" xlink:title="Verrouille le mutex. Cette méthode doit être appelée avant d&#39;utiliser la ressource associée....">
<polygon fill="white" stroke="black" points="560.5,-213 560.5,-232 661.5,-232 661.5,-213 560.5,-213"/>
<text text-anchor="middle" x="611" y="-220" font-family="Helvetica,sans-Serif" font-size="10.00">utils::Mutex::lock</text>
</a>
</g>
</g>
<!-- Node3&#45;&gt;Node4 -->
<g id="edge3" class="edge">
<title>Node3&#45;&gt;Node4</title>
<path fill="none" stroke="midnightblue" d="M465.7,-194.09C491.86,-199.24 524.28,-205.62 551.77,-211.03"/>
<polygon fill="midnightblue" stroke="midnightblue" points="551.16,-214.48 561.65,-212.98 552.51,-207.61 551.16,-214.48"/>
</g>
<!-- Node5 -->
<g id="node5" class="node">
<title>Node5</title>
<g id="a_node5"><a xlink:href="classutils_1_1Mutex.html#a59b2079dc7f803d49f78ac9c04406cd3" target="_top" xlink:title="Déverrouille le mutex. Cette méthode doit être appelée après avoir utiliser la ressource associée.">
<polygon fill="white" stroke="black" points="554.5,-175 554.5,-194 667.5,-194 667.5,-175 554.5,-175"/>
<text text-anchor="middle" x="611" y="-182" font-family="Helvetica,sans-Serif" font-size="10.00">utils::Mutex::unlock</text>
</a>
</g>
</g>
<!-- Node3&#45;&gt;Node5 -->
<g id="edge4" class="edge">
<title>Node3&#45;&gt;Node5</title>
<path fill="none" stroke="midnightblue" d="M500.25,-184.5C514.94,-184.5 530.06,-184.5 544.19,-184.5"/>
<polygon fill="midnightblue" stroke="midnightblue" points="544.29,-188 554.29,-184.5 544.29,-181 544.29,-188"/>
</g>
<!-- Node6 -->
<g id="node6" class="node">
<title>Node6</title>
<g id="a_node6"><a xlink:href="classlogs_1_1Logger.html#afa535aaf4891e02c4ff7f84d372b5b1b" target="_top" xlink:title="Méthode générique de trace d&#39;un message.">
<polygon fill="white" stroke="black" points="536,-137 536,-156 686,-156 686,-137 536,-137"/>
<text text-anchor="middle" x="611" y="-144" font-family="Helvetica,sans-Serif" font-size="10.00">logs::Logger::writeMessage</text>
</a>
</g>
</g>
<!-- Node3&#45;&gt;Node6 -->
<g id="edge5" class="edge">
<title>Node3&#45;&gt;Node6</title>
<path fill="none" stroke="midnightblue" d="M465.7,-174.91C491.86,-169.76 524.28,-163.38 551.77,-157.97"/>
<polygon fill="midnightblue" stroke="midnightblue" points="552.51,-161.39 561.65,-156.02 551.16,-154.52 552.51,-161.39"/>
</g>
<!-- Node7&#45;&gt;Node6 -->
<g id="edge7" class="edge">
<title>Node7&#45;&gt;Node6</title>
<path fill="none" stroke="midnightblue" d="M468.72,-146.5C486.22,-146.5 506.23,-146.5 525.59,-146.5"/>
<polygon fill="midnightblue" stroke="midnightblue" points="525.64,-150 535.64,-146.5 525.64,-143 525.64,-150"/>
</g>
<!-- Node9 -->
<g id="node9" class="node">
<title>Node9</title>
<g id="a_node9"><a xlink:href="classlogs_1_1LoggerFactory.html#a82585b5de73e471e06cafdccc3b3721e" target="_top" xlink:title="Cette méthode statique retourne un Logger en fonction de son nom.">
<polygon fill="white" stroke="black" points="360.5,-68.5 360.5,-98.5 471.5,-98.5 471.5,-68.5 360.5,-68.5"/>
<text text-anchor="start" x="368.5" y="-86.5" font-family="Helvetica,sans-Serif" font-size="10.00">logs::LoggerFactory</text>
<text text-anchor="middle" x="416" y="-75.5" font-family="Helvetica,sans-Serif" font-size="10.00">::logger</text>
</a>
</g>
</g>
<!-- Node8&#45;&gt;Node9 -->
<g id="edge9" class="edge">
<title>Node8&#45;&gt;Node9</title>
<path fill="none" stroke="midnightblue" d="M296.14,-97.87C313.65,-95.75 332.68,-93.45 350.28,-91.32"/>
<polygon fill="midnightblue" stroke="midnightblue" points="350.94,-94.77 360.45,-90.09 350.1,-87.82 350.94,-94.77"/>
</g>
<!-- Node10 -->
<g id="node10" class="node">
<title>Node10</title>
<g id="a_node10"><a xlink:href="classlogs_1_1LoggerFactory.html#ac89f19c0ffd71aa8cdc1c2d44c03809e" target="_top" xlink:title="Cette méthode ajoute un appender au système.">
<polygon fill="white" stroke="black" points="544,-99 544,-118 678,-118 678,-99 544,-99"/>
<text text-anchor="middle" x="611" y="-106" font-family="Helvetica,sans-Serif" font-size="10.00">logs::LoggerFactory::add</text>
</a>
</g>
</g>
<!-- Node9&#45;&gt;Node10 -->
<g id="edge10" class="edge">
<title>Node9&#45;&gt;Node10</title>
<path fill="none" stroke="midnightblue" d="M471.53,-90.56C490.88,-93.07 513.03,-95.94 533.85,-98.64"/>
<polygon fill="midnightblue" stroke="midnightblue" points="533.58,-102.13 543.95,-99.94 534.48,-95.19 533.58,-102.13"/>
</g>
<!-- Node11 -->
<g id="node11" class="node">
<title>Node11</title>
<g id="a_node11"><a xlink:href="classlogs_1_1LoggerFactory.html#a90478b91d7af2ef8841ded21e3521f69" target="_top" xlink:title="Cette méthode statique retourne l&#39;instance unique de la classe LoggerFactory.">
<polygon fill="white" stroke="black" points="555.5,-49.5 555.5,-79.5 666.5,-79.5 666.5,-49.5 555.5,-49.5"/>
<text text-anchor="start" x="563.5" y="-67.5" font-family="Helvetica,sans-Serif" font-size="10.00">logs::LoggerFactory</text>
<text text-anchor="middle" x="611" y="-56.5" font-family="Helvetica,sans-Serif" font-size="10.00">::instance</text>
</a>
</g>
</g>
<!-- Node9&#45;&gt;Node11 -->
<g id="edge11" class="edge">
<title>Node9&#45;&gt;Node11</title>
<path fill="none" stroke="midnightblue" d="M471.53,-78.13C494.45,-75.88 521.3,-73.23 545.22,-70.88"/>
<polygon fill="midnightblue" stroke="midnightblue" points="545.66,-74.35 555.27,-69.89 544.97,-67.38 545.66,-74.35"/>
</g>
<!-- Node12 -->
<g id="node12" class="node">
<title>Node12</title>
<g id="a_node12"><a xlink:href="classlogs_1_1LoggerFactory.html#a212aa623f4b6bee12cb39e8017dde670" target="_top" xlink:title="Cette méthode retourne le Logger principal qui définit le niveau de trace par défaut.">
<polygon fill="white" stroke="black" points="555.5,-0.5 555.5,-30.5 666.5,-30.5 666.5,-0.5 555.5,-0.5"/>
<text text-anchor="start" x="563.5" y="-18.5" font-family="Helvetica,sans-Serif" font-size="10.00">logs::LoggerFactory</text>
<text text-anchor="middle" x="611" y="-7.5" font-family="Helvetica,sans-Serif" font-size="10.00">::rootLogger</text>
</a>
</g>
</g>
<!-- Node9&#45;&gt;Node12 -->
<g id="edge12" class="edge">
<title>Node9&#45;&gt;Node12</title>
<path fill="none" stroke="midnightblue" d="M457.95,-68.46C480.87,-60.11 509.98,-49.6 536,-40.5 542.28,-38.31 548.87,-36.03 555.42,-33.8"/>
<polygon fill="midnightblue" stroke="midnightblue" points="556.61,-37.09 564.95,-30.55 554.35,-30.46 556.61,-37.09"/>
</g>
</g>
</svg>
