<?xml version="1.0" encoding="UTF-8" standalone="no"?>
<!DOCTYPE svg PUBLIC "-//W3C//DTD SVG 1.1//EN"
 "http://www.w3.org/Graphics/SVG/1.1/DTD/svg11.dtd">
<!-- Generated by graphviz version 2.43.0 (0)
 -->
<!-- Title: Regulateur::setfiltreQuadRampDeriveeON Pages: 1 -->
<!--zoomable 469 -->
<svg id="main" version="1.1" xmlns="http://www.w3.org/2000/svg" xmlns:xlink="http://www.w3.org/1999/xlink" xml:space="preserve" onload="init(evt)">
<style type="text/css"><![CDATA[
.edge:hover path { stroke: red; }
.edge:hover polygon { stroke: red; fill: red; }
]]></style>
<script type="text/javascript"><![CDATA[
var edges = document.getElementsByTagName('g');
if (edges && edges.length) {
  for (var i=0;i<edges.length;i++) {
    if (edges[i].id.substr(0,4)=='edge') {
      edges[i].setAttribute('class','edge');
    }
  }
}
]]></script>
        <defs>
                <circle id="rim" cx="0" cy="0" r="7"/>
                <circle id="rim2" cx="0" cy="0" r="3.5"/>
                <g id="zoomPlus">
                        <use xlink:href="#rim" fill="#404040">
                                <set attributeName="fill" to="#808080" begin="zoomplus.mouseover" end="zoomplus.mouseout"/>
                        </use>
                        <path d="M-4,0h8M0,-4v8" fill="none" stroke="white" stroke-width="1.5" pointer-events="none"/>
                </g>
                <g id="zoomMin">
                        <use xlink:href="#rim" fill="#404040">
                                <set attributeName="fill" to="#808080" begin="zoomminus.mouseover" end="zoomminus.mouseout"/>
                        </use>
                        <path d="M-4,0h8" fill="none" stroke="white" stroke-width="1.5" pointer-events="none"/>
                </g>
                <g id="dirArrow">
                        <path fill="none" stroke="white" stroke-width="1.5" d="M0,-3.0v7 M-2.5,-0.5L0,-3.0L2.5,-0.5"/>
                </g>
               <g id="resetDef">
                       <use xlink:href="#rim2" fill="#404040">
                               <set attributeName="fill" to="#808080" begin="reset.mouseover" end="reset.mouseout"/>
                       </use>
               </g>
        </defs>

<script type="text/javascript">
var viewWidth = 1310;
var viewHeight = 469;
var sectionId = 'dynsection-8';
</script>
<script xlink:href="svgpan.js"/>
<svg id="graph" class="graph">
<g id="viewport">
<title>Regulateur::setfiltreQuadRampDeriveeON</title>
<polygon fill="white" stroke="transparent" points="-4,4 -4,-464.5 1306,-464.5 1306,4 -4,4"/>
<!-- Node1 -->
<g id="node1" class="node">
<title>Node1</title>
<g id="a_node1"><a xlink:title=" ">
<polygon fill="#bfbfbf" stroke="black" points="1163,-226.5 1163,-256.5 1302,-256.5 1302,-226.5 1163,-226.5"/>
<text text-anchor="start" x="1171" y="-244.5" font-family="Helvetica,sans-Serif" font-size="10.00">Regulateur::setfiltreQuad</text>
<text text-anchor="middle" x="1232.5" y="-233.5" font-family="Helvetica,sans-Serif" font-size="10.00">RampDeriveeON</text>
</a>
</g>
</g>
<!-- Node2 -->
<g id="node2" class="node">
<title>Node2</title>
<g id="a_node2"><a xlink:href="classConsignController.html#a09e03093d5270345b110071cd61660ca" target="_top" xlink:title=" ">
<polygon fill="white" stroke="black" points="1008,-251.5 1008,-281.5 1127,-281.5 1127,-251.5 1008,-251.5"/>
<text text-anchor="start" x="1016" y="-269.5" font-family="Helvetica,sans-Serif" font-size="10.00">ConsignController::</text>
<text text-anchor="middle" x="1067.5" y="-258.5" font-family="Helvetica,sans-Serif" font-size="10.00">setQuadRamp_Angle</text>
</a>
</g>
</g>
<!-- Node1&#45;&gt;Node2 -->
<g id="edge1" class="edge">
<title>Node1&#45;&gt;Node2</title>
<path fill="none" stroke="midnightblue" d="M1152.72,-253.58C1144.06,-254.91 1135.36,-256.24 1127.01,-257.53"/>
<polygon fill="midnightblue" stroke="midnightblue" points="1153.49,-257.01 1162.85,-252.03 1152.43,-250.09 1153.49,-257.01"/>
</g>
<!-- Node28 -->
<g id="node28" class="node">
<title>Node28</title>
<g id="a_node28"><a xlink:href="classConsignController.html#a3a5321a1a47cdea48f269e28a0eaec98" target="_top" xlink:title=" ">
<polygon fill="white" stroke="black" points="1012.5,-202.5 1012.5,-232.5 1122.5,-232.5 1122.5,-202.5 1012.5,-202.5"/>
<text text-anchor="start" x="1020.5" y="-220.5" font-family="Helvetica,sans-Serif" font-size="10.00">ConsignController::</text>
<text text-anchor="middle" x="1067.5" y="-209.5" font-family="Helvetica,sans-Serif" font-size="10.00">setQuadRamp_Dist</text>
</a>
</g>
</g>
<!-- Node1&#45;&gt;Node28 -->
<g id="edge29" class="edge">
<title>Node1&#45;&gt;Node28</title>
<path fill="none" stroke="midnightblue" d="M1152.73,-229.9C1142.57,-228.41 1132.36,-226.9 1122.72,-225.48"/>
<polygon fill="midnightblue" stroke="midnightblue" points="1152.44,-233.4 1162.85,-231.39 1153.46,-226.47 1152.44,-233.4"/>
</g>
<!-- Node3 -->
<g id="node3" class="node">
<title>Node3</title>
<g id="a_node3"><a xlink:href="classAsservEsialR.html#a17eab63b10a4e1edf11013e6b18cafd2" target="_top" xlink:title=" ">
<polygon fill="white" stroke="black" points="800,-290.5 800,-320.5 920,-320.5 920,-290.5 800,-290.5"/>
<text text-anchor="start" x="808" y="-308.5" font-family="Helvetica,sans-Serif" font-size="10.00">AsservEsialR::motion</text>
<text text-anchor="middle" x="860" y="-297.5" font-family="Helvetica,sans-Serif" font-size="10.00">_ActivateQuadRamp</text>
</a>
</g>
</g>
<!-- Node2&#45;&gt;Node3 -->
<g id="edge2" class="edge">
<title>Node2&#45;&gt;Node3</title>
<path fill="none" stroke="midnightblue" d="M998.01,-279.5C972.76,-284.29 944.39,-289.67 920.05,-294.29"/>
<polygon fill="midnightblue" stroke="midnightblue" points="998.71,-282.93 1007.89,-277.62 997.41,-276.05 998.71,-282.93"/>
</g>
<!-- Node5 -->
<g id="node5" class="node">
<title>Node5</title>
<g id="a_node5"><a xlink:href="classCommandManagerA.html#a5a1c89032b7f8150bed910011daf111a" target="_top" xlink:title=" ">
<polygon fill="white" stroke="black" points="779.5,-252 779.5,-271 940.5,-271 940.5,-252 779.5,-252"/>
<text text-anchor="middle" x="860" y="-259" font-family="Helvetica,sans-Serif" font-size="10.00">CommandManagerA::perform</text>
</a>
</g>
</g>
<!-- Node2&#45;&gt;Node5 -->
<g id="edge4" class="edge">
<title>Node2&#45;&gt;Node5</title>
<path fill="none" stroke="midnightblue" d="M997.64,-264.82C979.4,-264.38 959.55,-263.9 940.77,-263.44"/>
<polygon fill="midnightblue" stroke="midnightblue" points="997.8,-268.33 1007.89,-265.07 997.98,-261.33 997.8,-268.33"/>
</g>
<!-- Node7 -->
<g id="node7" class="node">
<title>Node7</title>
<g id="a_node7"><a xlink:href="classCommandManagerA.html#a15e1210241f2dd30047f151994e68692" target="_top" xlink:title=" ">
<polygon fill="white" stroke="black" points="748,-214 748,-233 972,-233 972,-214 748,-214"/>
<text text-anchor="middle" x="860" y="-221" font-family="Helvetica,sans-Serif" font-size="10.00">CommandManagerA::resetEmergencyStop</text>
</a>
</g>
</g>
<!-- Node2&#45;&gt;Node7 -->
<g id="edge6" class="edge">
<title>Node2&#45;&gt;Node7</title>
<path fill="none" stroke="midnightblue" d="M1000.58,-249.05C991.02,-246.73 981.28,-244.47 972,-242.5 955.84,-239.07 938.25,-235.83 921.94,-233.04"/>
<polygon fill="midnightblue" stroke="midnightblue" points="999.91,-252.49 1010.46,-251.49 1001.59,-245.69 999.91,-252.49"/>
</g>
<!-- Node23 -->
<g id="node23" class="node">
<title>Node23</title>
<g id="a_node23"><a xlink:href="classCommandManagerA.html#a7ce3c37b6130dd468a93a658f4b3aced" target="_top" xlink:title=" ">
<polygon fill="white" stroke="black" points="753,-176 753,-195 967,-195 967,-176 753,-176"/>
<text text-anchor="middle" x="860" y="-183" font-family="Helvetica,sans-Serif" font-size="10.00">CommandManagerA::setEmergencyStop</text>
</a>
</g>
</g>
<!-- Node2&#45;&gt;Node23 -->
<g id="edge22" class="edge">
<title>Node2&#45;&gt;Node23</title>
<path fill="none" stroke="midnightblue" d="M1016.46,-246.75C1013.53,-245.09 1010.69,-243.34 1008,-241.5 989.08,-228.52 992.31,-215.18 972,-204.5 964.65,-200.63 956.68,-197.52 948.49,-195.03"/>
<polygon fill="midnightblue" stroke="midnightblue" points="1014.95,-249.91 1025.43,-251.42 1018.18,-243.7 1014.95,-249.91"/>
</g>
<!-- Node4 -->
<g id="node4" class="node">
<title>Node4</title>
<g id="a_node4"><a xlink:href="classAsserv.html#aa8b9209374a094acf3242d732cdeee5e" target="_top" xlink:title=" ">
<polygon fill="white" stroke="black" points="595.5,-296 595.5,-315 702.5,-315 702.5,-296 595.5,-296"/>
<text text-anchor="middle" x="649" y="-303" font-family="Helvetica,sans-Serif" font-size="10.00">Asserv::disablePID</text>
</a>
</g>
</g>
<!-- Node3&#45;&gt;Node4 -->
<g id="edge3" class="edge">
<title>Node3&#45;&gt;Node4</title>
<path fill="none" stroke="midnightblue" d="M789.71,-305.5C761.41,-305.5 729.2,-305.5 702.85,-305.5"/>
<polygon fill="midnightblue" stroke="midnightblue" points="789.95,-309 799.95,-305.5 789.95,-302 789.95,-309"/>
</g>
<!-- Node6 -->
<g id="node6" class="node">
<title>Node6</title>
<g id="a_node6"><a xlink:href="classAsservEsialR.html#abfd3be9bde7bf8ae887688bf8bc0ca43" target="_top" xlink:title="Méthode virtuelle pure à implémenter dans les sous&#45;classes.">
<polygon fill="white" stroke="black" points="587,-258 587,-277 711,-277 711,-258 587,-258"/>
<text text-anchor="middle" x="649" y="-265" font-family="Helvetica,sans-Serif" font-size="10.00">AsservEsialR::execute</text>
</a>
</g>
</g>
<!-- Node5&#45;&gt;Node6 -->
<g id="edge5" class="edge">
<title>Node5&#45;&gt;Node6</title>
<path fill="none" stroke="midnightblue" d="M769.23,-264.08C749.64,-264.64 729.35,-265.22 711.18,-265.74"/>
<polygon fill="midnightblue" stroke="midnightblue" points="769.49,-267.57 779.39,-263.79 769.29,-260.57 769.49,-267.57"/>
</g>
<!-- Node8 -->
<g id="node8" class="node">
<title>Node8</title>
<g id="a_node8"><a xlink:href="classAsservEsialR.html#a89c3ed56d870037964c23bb657c75a7a" target="_top" xlink:title="Reinitialise l&#39;arret d&#39;urgence pour permettre un nouveau mouvement.">
<polygon fill="white" stroke="black" points="586,-208.5 586,-238.5 712,-238.5 712,-208.5 586,-208.5"/>
<text text-anchor="start" x="594" y="-226.5" font-family="Helvetica,sans-Serif" font-size="10.00">AsservEsialR::path</text>
<text text-anchor="middle" x="649" y="-215.5" font-family="Helvetica,sans-Serif" font-size="10.00">_ResetEmergencyStop</text>
</a>
</g>
</g>
<!-- Node7&#45;&gt;Node8 -->
<g id="edge7" class="edge">
<title>Node7&#45;&gt;Node8</title>
<path fill="none" stroke="midnightblue" d="M737.53,-223.5C728.86,-223.5 720.35,-223.5 712.25,-223.5"/>
<polygon fill="midnightblue" stroke="midnightblue" points="737.77,-227 747.77,-223.5 737.77,-220 737.77,-227"/>
</g>
<!-- Node9 -->
<g id="node9" class="node">
<title>Node9</title>
<g id="a_node9"><a xlink:href="classAsserv.html#a22cbdc18185f0d910473b8a5bb434c84" target="_top" xlink:title=" ">
<polygon fill="white" stroke="black" points="385,-251 385,-270 550,-270 550,-251 385,-251"/>
<text text-anchor="middle" x="467.5" y="-258" font-family="Helvetica,sans-Serif" font-size="10.00">Asserv::resetEmergencyOnTraj</text>
</a>
</g>
</g>
<!-- Node8&#45;&gt;Node9 -->
<g id="edge8" class="edge">
<title>Node8&#45;&gt;Node9</title>
<path fill="none" stroke="midnightblue" d="M575.95,-238.35C555.29,-242.61 533.32,-247.14 514.66,-250.98"/>
<polygon fill="midnightblue" stroke="midnightblue" points="576.89,-241.73 585.97,-236.29 575.47,-234.88 576.89,-241.73"/>
</g>
<!-- Node10 -->
<g id="node10" class="node">
<title>Node10</title>
<g id="a_node10"><a xlink:href="classAsserv.html#a0ac23995bdebb69bb49304850c951886" target="_top" xlink:title=" ">
<polygon fill="white" stroke="black" points="222.5,-213 222.5,-232 323.5,-232 323.5,-213 222.5,-213"/>
<text text-anchor="middle" x="273" y="-220" font-family="Helvetica,sans-Serif" font-size="10.00">Asserv::doCalage</text>
</a>
</g>
</g>
<!-- Node9&#45;&gt;Node10 -->
<g id="edge9" class="edge">
<title>Node9&#45;&gt;Node10</title>
<path fill="none" stroke="midnightblue" d="M408.05,-248.96C380.59,-243.54 348.26,-237.16 322.23,-232.02"/>
<polygon fill="midnightblue" stroke="midnightblue" points="407.44,-252.41 417.92,-250.91 408.79,-245.54 407.44,-252.41"/>
</g>
<!-- Node11 -->
<g id="node11" class="node">
<title>Node11</title>
<g id="a_node11"><a xlink:href="classAsserv.html#acc891ab26e32320b4f2fac646de93632" target="_top" xlink:title=" ">
<polygon fill="white" stroke="black" points="219.5,-175 219.5,-194 326.5,-194 326.5,-175 219.5,-175"/>
<text text-anchor="middle" x="273" y="-182" font-family="Helvetica,sans-Serif" font-size="10.00">Asserv::doCalage2</text>
</a>
</g>
</g>
<!-- Node9&#45;&gt;Node11 -->
<g id="edge10" class="edge">
<title>Node9&#45;&gt;Node11</title>
<path fill="none" stroke="midnightblue" d="M440.54,-246C417.16,-233.41 381.57,-215.39 349,-203.5 339.16,-199.91 328.35,-196.74 318.08,-194.07"/>
<polygon fill="midnightblue" stroke="midnightblue" points="439.01,-249.15 449.46,-250.86 442.36,-243.01 439.01,-249.15"/>
</g>
<!-- Node12 -->
<g id="node12" class="node">
<title>Node12</title>
<g id="a_node12"><a xlink:href="classAsserv.html#aa105905ebc1940adb7c483a14c9ce8fc" target="_top" xlink:title=" ">
<polygon fill="white" stroke="black" points="212,-137 212,-156 334,-156 334,-137 212,-137"/>
<text text-anchor="middle" x="273" y="-144" font-family="Helvetica,sans-Serif" font-size="10.00">Asserv::doCalageNew</text>
</a>
</g>
</g>
<!-- Node9&#45;&gt;Node12 -->
<g id="edge11" class="edge">
<title>Node9&#45;&gt;Node12</title>
<path fill="none" stroke="midnightblue" d="M450.22,-243.39C428.94,-222.02 389.56,-185.8 349,-165.5 341.31,-161.65 332.78,-158.54 324.31,-156.04"/>
<polygon fill="midnightblue" stroke="midnightblue" points="447.96,-246.09 457.46,-250.79 452.97,-241.19 447.96,-246.09"/>
</g>
<!-- Node13 -->
<g id="node13" class="node">
<title>Node13</title>
<g id="a_node13"><a xlink:href="classAsserv.html#aa2ec3b84e3cccf2145cc70e33f08dc58" target="_top" xlink:title=" ">
<polygon fill="white" stroke="black" points="197,-327 197,-346 349,-346 349,-327 197,-327"/>
<text text-anchor="middle" x="273" y="-334" font-family="Helvetica,sans-Serif" font-size="10.00">Asserv::doMoveBackwardTo</text>
</a>
</g>
</g>
<!-- Node9&#45;&gt;Node13 -->
<g id="edge12" class="edge">
<title>Node9&#45;&gt;Node13</title>
<path fill="none" stroke="midnightblue" d="M440.54,-275C417.16,-287.59 381.57,-305.61 349,-317.5 339.16,-321.09 328.35,-324.26 318.08,-326.93"/>
<polygon fill="midnightblue" stroke="midnightblue" points="442.36,-277.99 449.46,-270.14 439.01,-271.85 442.36,-277.99"/>
</g>
<!-- Node15 -->
<g id="node15" class="node">
<title>Node15</title>
<g id="a_node15"><a xlink:href="classAsserv.html#a960679fed5ab18f631d7847c95fc1f85" target="_top" xlink:title=" ">
<polygon fill="white" stroke="black" points="201.5,-289 201.5,-308 344.5,-308 344.5,-289 201.5,-289"/>
<text text-anchor="middle" x="273" y="-296" font-family="Helvetica,sans-Serif" font-size="10.00">Asserv::doMoveForwardTo</text>
</a>
</g>
</g>
<!-- Node9&#45;&gt;Node15 -->
<g id="edge14" class="edge">
<title>Node9&#45;&gt;Node15</title>
<path fill="none" stroke="midnightblue" d="M408.05,-272.04C380.59,-277.46 348.26,-283.84 322.23,-288.98"/>
<polygon fill="midnightblue" stroke="midnightblue" points="408.79,-275.46 417.92,-270.09 407.44,-268.59 408.79,-275.46"/>
</g>
<!-- Node17 -->
<g id="node17" class="node">
<title>Node17</title>
<g id="a_node17"><a xlink:href="classAsserv.html#a3468d8efb89878c2235dc491c6e7a541" target="_top" xlink:title=" ">
<polygon fill="white" stroke="black" points="209,-441 209,-460 337,-460 337,-441 209,-441"/>
<text text-anchor="middle" x="273" y="-448" font-family="Helvetica,sans-Serif" font-size="10.00">Asserv::doRunPivotLeft</text>
</a>
</g>
</g>
<!-- Node9&#45;&gt;Node17 -->
<g id="edge16" class="edge">
<title>Node9&#45;&gt;Node17</title>
<path fill="none" stroke="midnightblue" d="M458.81,-279.74C443.52,-315.45 405.79,-391.94 349,-431.5 343.38,-435.42 337.02,-438.53 330.44,-440.99"/>
<polygon fill="midnightblue" stroke="midnightblue" points="462.23,-280.63 462.83,-270.05 455.77,-277.94 462.23,-280.63"/>
</g>
<!-- Node18 -->
<g id="node18" class="node">
<title>Node18</title>
<g id="a_node18"><a xlink:href="classAsserv.html#a79a9b2ee1d39046119673dc81733bdab" target="_top" xlink:title=" ">
<polygon fill="white" stroke="black" points="205,-365 205,-384 341,-384 341,-365 205,-365"/>
<text text-anchor="middle" x="273" y="-372" font-family="Helvetica,sans-Serif" font-size="10.00">Asserv::doRunPivotRight</text>
</a>
</g>
</g>
<!-- Node9&#45;&gt;Node18 -->
<g id="edge17" class="edge">
<title>Node9&#45;&gt;Node18</title>
<path fill="none" stroke="midnightblue" d="M450.22,-277.61C428.94,-298.98 389.56,-335.2 349,-355.5 341.31,-359.35 332.78,-362.46 324.31,-364.96"/>
<polygon fill="midnightblue" stroke="midnightblue" points="452.97,-279.81 457.46,-270.21 447.96,-274.91 452.97,-279.81"/>
</g>
<!-- Node19 -->
<g id="node19" class="node">
<title>Node19</title>
<g id="a_node19"><a xlink:href="classSensorsTimer.html#abc377178c2471f664b31658554963e83" target="_top" xlink:title="Actions à executer pour le timer.">
<polygon fill="white" stroke="black" points="15.5,-55 15.5,-74 145.5,-74 145.5,-55 15.5,-55"/>
<text text-anchor="middle" x="80.5" y="-62" font-family="Helvetica,sans-Serif" font-size="10.00">SensorsTimer::onTimer</text>
</a>
</g>
</g>
<!-- Node9&#45;&gt;Node19 -->
<g id="edge18" class="edge">
<title>Node9&#45;&gt;Node19</title>
<path fill="none" stroke="midnightblue" d="M455.71,-242.27C437.53,-213.24 397.93,-156.78 349,-127.5 339.34,-121.72 198.51,-90.22 125.18,-74.06"/>
<polygon fill="midnightblue" stroke="midnightblue" points="452.84,-244.28 461.04,-250.99 458.81,-240.63 452.84,-244.28"/>
</g>
<!-- Node20 -->
<g id="node20" class="node">
<title>Node20</title>
<g id="a_node20"><a xlink:href="classO__State__Init.html#a1980cd82dcb83e88d61f2e7e14dddfa0" target="_top" xlink:title=" ">
<polygon fill="white" stroke="black" points="216,-403 216,-422 330,-422 330,-403 216,-403"/>
<text text-anchor="middle" x="273" y="-410" font-family="Helvetica,sans-Serif" font-size="10.00">O_State_Init::setPos</text>
</a>
</g>
</g>
<!-- Node9&#45;&gt;Node20 -->
<g id="edge19" class="edge">
<title>Node9&#45;&gt;Node20</title>
<path fill="none" stroke="midnightblue" d="M455.38,-279.05C437,-308.08 397.45,-363.95 349,-393.5 342.69,-397.35 335.63,-400.42 328.44,-402.87"/>
<polygon fill="midnightblue" stroke="midnightblue" points="458.5,-280.66 460.79,-270.32 452.55,-276.98 458.5,-280.66"/>
</g>
<!-- Node22 -->
<g id="node22" class="node">
<title>Node22</title>
<g id="a_node22"><a xlink:href="classRobot.html#a7c2c32badf138c2a26b82068447c3c98" target="_top" xlink:title="Fonctions de motion intelligente en plusieurs essais.">
<polygon fill="white" stroke="black" points="217.5,-251 217.5,-270 328.5,-270 328.5,-251 217.5,-251"/>
<text text-anchor="middle" x="273" y="-258" font-family="Helvetica,sans-Serif" font-size="10.00">Robot::whileDoLine</text>
</a>
</g>
</g>
<!-- Node9&#45;&gt;Node22 -->
<g id="edge21" class="edge">
<title>Node9&#45;&gt;Node22</title>
<path fill="none" stroke="midnightblue" d="M374.59,-260.5C358.89,-260.5 343.03,-260.5 328.7,-260.5"/>
<polygon fill="midnightblue" stroke="midnightblue" points="374.86,-264 384.86,-260.5 374.86,-257 374.86,-264"/>
</g>
<!-- Node14 -->
<g id="node14" class="node">
<title>Node14</title>
<g id="a_node14"><a xlink:href="classAsserv.html#af438189501d475dcb6632ce63efe5e5f" target="_top" xlink:title=" ">
<polygon fill="white" stroke="black" points="0,-326.5 0,-356.5 161,-356.5 161,-326.5 0,-326.5"/>
<text text-anchor="start" x="8" y="-344.5" font-family="Helvetica,sans-Serif" font-size="10.00">Asserv::doMoveBackwardAnd</text>
<text text-anchor="middle" x="80.5" y="-333.5" font-family="Helvetica,sans-Serif" font-size="10.00">RotateTo</text>
</a>
</g>
</g>
<!-- Node13&#45;&gt;Node14 -->
<g id="edge13" class="edge">
<title>Node13&#45;&gt;Node14</title>
<path fill="none" stroke="midnightblue" d="M186.97,-338.73C178.38,-338.96 169.68,-339.19 161.15,-339.41"/>
<polygon fill="midnightblue" stroke="midnightblue" points="187.08,-342.23 196.98,-338.47 186.89,-335.23 187.08,-342.23"/>
</g>
<!-- Node16 -->
<g id="node16" class="node">
<title>Node16</title>
<g id="a_node16"><a xlink:href="classAsserv.html#a0a57aa0008a30ba9b13502e4dd61310d" target="_top" xlink:title=" ">
<polygon fill="white" stroke="black" points="4.5,-277.5 4.5,-307.5 156.5,-307.5 156.5,-277.5 4.5,-277.5"/>
<text text-anchor="start" x="12.5" y="-295.5" font-family="Helvetica,sans-Serif" font-size="10.00">Asserv::doMoveForwardAnd</text>
<text text-anchor="middle" x="80.5" y="-284.5" font-family="Helvetica,sans-Serif" font-size="10.00">RotateTo</text>
</a>
</g>
</g>
<!-- Node15&#45;&gt;Node16 -->
<g id="edge15" class="edge">
<title>Node15&#45;&gt;Node16</title>
<path fill="none" stroke="midnightblue" d="M191.29,-295.96C179.76,-295.59 167.94,-295.22 156.52,-294.86"/>
<polygon fill="midnightblue" stroke="midnightblue" points="191.23,-299.46 201.34,-296.27 191.45,-292.46 191.23,-299.46"/>
</g>
<!-- Node21 -->
<g id="node21" class="node">
<title>Node21</title>
<g id="a_node21"><a xlink:href="classO__State__Init.html#abc19788b7457d1f819245dd28367fe91" target="_top" xlink:title="Exécute l&#39;état d&#39;initialisation.">
<polygon fill="white" stroke="black" points="20.5,-403 20.5,-422 140.5,-422 140.5,-403 20.5,-403"/>
<text text-anchor="middle" x="80.5" y="-410" font-family="Helvetica,sans-Serif" font-size="10.00">O_State_Init::execute</text>
</a>
</g>
</g>
<!-- Node20&#45;&gt;Node21 -->
<g id="edge20" class="edge">
<title>Node20&#45;&gt;Node21</title>
<path fill="none" stroke="midnightblue" d="M205.66,-412.5C184.47,-412.5 161.17,-412.5 140.54,-412.5"/>
<polygon fill="midnightblue" stroke="midnightblue" points="205.87,-416 215.87,-412.5 205.87,-409 205.87,-416"/>
</g>
<!-- Node24 -->
<g id="node24" class="node">
<title>Node24</title>
<g id="a_node24"><a xlink:href="classAsservEsialR.html#afd68af9e59ff80e079d3b080516be850" target="_top" xlink:title="Interrompt la trajectoire en cours (arret d&#39;urgence logiciel).">
<polygon fill="white" stroke="black" points="593,-86.5 593,-116.5 705,-116.5 705,-86.5 593,-86.5"/>
<text text-anchor="start" x="601" y="-104.5" font-family="Helvetica,sans-Serif" font-size="10.00">AsservEsialR::path</text>
<text text-anchor="middle" x="649" y="-93.5" font-family="Helvetica,sans-Serif" font-size="10.00">_InterruptTrajectory</text>
</a>
</g>
</g>
<!-- Node23&#45;&gt;Node24 -->
<g id="edge23" class="edge">
<title>Node23&#45;&gt;Node24</title>
<path fill="none" stroke="midnightblue" d="M825.51,-172.04C787.79,-156.88 726.66,-132.31 687.41,-116.53"/>
<polygon fill="midnightblue" stroke="midnightblue" points="824.44,-175.38 835.03,-175.86 827.05,-168.89 824.44,-175.38"/>
</g>
<!-- Node25 -->
<g id="node25" class="node">
<title>Node25</title>
<g id="a_node25"><a xlink:href="classAsserv.html#a312602d6bf6f8591937e4d0003497bbb" target="_top" xlink:title=" ">
<polygon fill="white" stroke="black" points="394.5,-55 394.5,-74 540.5,-74 540.5,-55 394.5,-55"/>
<text text-anchor="middle" x="467.5" y="-62" font-family="Helvetica,sans-Serif" font-size="10.00">Asserv::setEmergencyStop</text>
</a>
</g>
</g>
<!-- Node24&#45;&gt;Node25 -->
<g id="edge24" class="edge">
<title>Node24&#45;&gt;Node25</title>
<path fill="none" stroke="midnightblue" d="M582.85,-88.07C560.34,-83.43 535.58,-78.33 514.88,-74.06"/>
<polygon fill="midnightblue" stroke="midnightblue" points="582.18,-91.51 592.68,-90.1 583.59,-84.65 582.18,-91.51"/>
</g>
<!-- Node26 -->
<g id="node26" class="node">
<title>Node26</title>
<g id="a_node26"><a xlink:href="classAsserv.html#ae8c86b1f9cfe795e8c9aad3e7e4ea40c" target="_top" xlink:title=" ">
<polygon fill="white" stroke="black" points="198,-49.5 198,-79.5 348,-79.5 348,-49.5 198,-49.5"/>
<text text-anchor="start" x="206" y="-67.5" font-family="Helvetica,sans-Serif" font-size="10.00">Asserv::warnBackDetection</text>
<text text-anchor="middle" x="273" y="-56.5" font-family="Helvetica,sans-Serif" font-size="10.00">OnTraj</text>
</a>
</g>
</g>
<!-- Node25&#45;&gt;Node26 -->
<g id="edge25" class="edge">
<title>Node25&#45;&gt;Node26</title>
<path fill="none" stroke="midnightblue" d="M383.94,-64.5C372.07,-64.5 359.93,-64.5 348.24,-64.5"/>
<polygon fill="midnightblue" stroke="midnightblue" points="384.27,-68 394.27,-64.5 384.27,-61 384.27,-68"/>
</g>
<!-- Node27 -->
<g id="node27" class="node">
<title>Node27</title>
<g id="a_node27"><a xlink:href="classAsserv.html#a959dc45e49f920c77e62a11b75a15641" target="_top" xlink:title=" ">
<polygon fill="white" stroke="black" points="197.5,-0.5 197.5,-30.5 348.5,-30.5 348.5,-0.5 197.5,-0.5"/>
<text text-anchor="start" x="205.5" y="-18.5" font-family="Helvetica,sans-Serif" font-size="10.00">Asserv::warnFrontDetection</text>
<text text-anchor="middle" x="273" y="-7.5" font-family="Helvetica,sans-Serif" font-size="10.00">OnTraj</text>
</a>
</g>
</g>
<!-- Node25&#45;&gt;Node27 -->
<g id="edge27" class="edge">
<title>Node25&#45;&gt;Node27</title>
<path fill="none" stroke="midnightblue" d="M418.96,-52.4C393,-45.79 360.64,-37.55 333.07,-30.54"/>
<polygon fill="midnightblue" stroke="midnightblue" points="418.37,-55.86 428.93,-54.94 420.1,-49.08 418.37,-55.86"/>
</g>
<!-- Node26&#45;&gt;Node19 -->
<g id="edge26" class="edge">
<title>Node26&#45;&gt;Node19</title>
<path fill="none" stroke="midnightblue" d="M187.61,-64.5C173.51,-64.5 159.09,-64.5 145.6,-64.5"/>
<polygon fill="midnightblue" stroke="midnightblue" points="187.8,-68 197.8,-64.5 187.8,-61 187.8,-68"/>
</g>
<!-- Node27&#45;&gt;Node19 -->
<g id="edge28" class="edge">
<title>Node27&#45;&gt;Node19</title>
<path fill="none" stroke="midnightblue" d="M203.57,-33.1C174.89,-40.48 142.67,-48.77 118.54,-54.97"/>
<polygon fill="midnightblue" stroke="midnightblue" points="204.74,-36.42 213.55,-30.53 202.99,-29.64 204.74,-36.42"/>
</g>
<!-- Node28&#45;&gt;Node3 -->
<g id="edge30" class="edge">
<title>Node28&#45;&gt;Node3</title>
<path fill="none" stroke="midnightblue" d="M1014.54,-237.34C1012.28,-238.66 1010.09,-240.05 1008,-241.5 988.63,-254.96 992.43,-268.71 972,-280.5 956.35,-289.53 937.7,-295.31 920.2,-298.99"/>
<polygon fill="midnightblue" stroke="midnightblue" points="1016.31,-240.36 1023.5,-232.58 1013.02,-234.18 1016.31,-240.36"/>
</g>
<!-- Node28&#45;&gt;Node5 -->
<g id="edge31" class="edge">
<title>Node28&#45;&gt;Node5</title>
<path fill="none" stroke="midnightblue" d="M1002.96,-235.14C992.65,-237.76 982.05,-240.31 972,-242.5 956.05,-245.97 938.69,-249.2 922.55,-251.97"/>
<polygon fill="midnightblue" stroke="midnightblue" points="1003.92,-238.5 1012.73,-232.61 1002.17,-231.73 1003.92,-238.5"/>
</g>
<!-- Node28&#45;&gt;Node7 -->
<g id="edge32" class="edge">
<title>Node28&#45;&gt;Node7</title>
<path fill="none" stroke="midnightblue" d="M1002.05,-219.38C992.45,-219.66 982.33,-219.96 972.1,-220.26"/>
<polygon fill="midnightblue" stroke="midnightblue" points="1002.34,-222.87 1012.24,-219.08 1002.14,-215.88 1002.34,-222.87"/>
</g>
<!-- Node28&#45;&gt;Node23 -->
<g id="edge33" class="edge">
<title>Node28&#45;&gt;Node23</title>
<path fill="none" stroke="midnightblue" d="M1002.26,-207.5C976.68,-203.51 947.37,-198.95 922.1,-195.01"/>
<polygon fill="midnightblue" stroke="midnightblue" points="1001.82,-210.97 1012.24,-209.05 1002.9,-204.05 1001.82,-210.97"/>
</g>
</g>
</svg>
        <g id="navigator" transform="translate(0 0)" fill="#404254">
                <rect fill="#f2f5e9" fill-opacity="0.5" stroke="#606060" stroke-width=".5" x="0" y="0" width="60" height="60"/>
                <use id="zoomplus" xlink:href="#zoomPlus" x="17" y="9" onmousedown="handleZoom(evt,'in')"/>
                <use id="zoomminus" xlink:href="#zoomMin" x="42" y="9" onmousedown="handleZoom(evt,'out')"/>
                <use id="reset" xlink:href="#resetDef" x="30" y="36" onmousedown="handleReset()"/>
                <g id="arrowUp" xlink:href="#dirArrow" transform="translate(30 24)" onmousedown="handlePan(0,-1)">
                  <use xlink:href="#rim" fill="#404040">
                        <set attributeName="fill" to="#808080" begin="arrowUp.mouseover" end="arrowUp.mouseout"/>
                  </use>
                  <path fill="none" stroke="white" stroke-width="1.5" d="M0,-3.0v7 M-2.5,-0.5L0,-3.0L2.5,-0.5"/>
                </g>
                <g id="arrowRight" xlink:href="#dirArrow" transform="rotate(90) translate(36 -43)" onmousedown="handlePan(1,0)">
                  <use xlink:href="#rim" fill="#404040">
                        <set attributeName="fill" to="#808080" begin="arrowRight.mouseover" end="arrowRight.mouseout"/>
                  </use>
                  <path fill="none" stroke="white" stroke-width="1.5" d="M0,-3.0v7 M-2.5,-0.5L0,-3.0L2.5,-0.5"/>
                </g>
                <g id="arrowDown" xlink:href="#dirArrow" transform="rotate(180) translate(-30 -48)" onmousedown="handlePan(0,1)">
                  <use xlink:href="#rim" fill="#404040">
                        <set attributeName="fill" to="#808080" begin="arrowDown.mouseover" end="arrowDown.mouseout"/>
                  </use>
                  <path fill="none" stroke="white" stroke-width="1.5" d="M0,-3.0v7 M-2.5,-0.5L0,-3.0L2.5,-0.5"/>
                </g>
                <g id="arrowLeft" xlink:href="#dirArrow" transform="rotate(270) translate(-36 17)" onmousedown="handlePan(-1,0)">
                  <use xlink:href="#rim" fill="#404040">
                        <set attributeName="fill" to="#808080" begin="arrowLeft.mouseover" end="arrowLeft.mouseout"/>
                  </use>
                  <path fill="none" stroke="white" stroke-width="1.5" d="M0,-3.0v7 M-2.5,-0.5L0,-3.0L2.5,-0.5"/>
                </g>
        </g>
        <svg viewBox="0 0 15 15" width="100%" height="30px" preserveAspectRatio="xMaxYMin meet">
         <g id="arrow_out" transform="scale(0.3 0.3)">
          <a xlink:href="classRegulateur_a4ebdd9e34bfcb64bb267846675fa6438_icgraph_org.svg" target="_base">
           <rect id="button" ry="5" rx="5" y="6" x="6" height="38" width="38"
                fill="#f2f5e9" fill-opacity="0.5" stroke="#606060" stroke-width="1.0"/>
           <path id="arrow"
             d="M 11.500037,31.436501 C 11.940474,20.09759 22.043105,11.32322 32.158766,21.979434 L 37.068811,17.246167 C 37.068811,17.246167 37.088388,32 37.088388,32 L 22.160133,31.978069 C 22.160133,31.978069 26.997745,27.140456 26.997745,27.140456 C 18.528582,18.264221 13.291696,25.230495 11.500037,31.436501 z"
             style="fill:#404040;"/>
          </a>
         </g>
        </svg>
</svg>
