<?xml version="1.0" encoding="UTF-8" standalone="no"?>
<!DOCTYPE svg PUBLIC "-//W3C//DTD SVG 1.1//EN"
 "http://www.w3.org/Graphics/SVG/1.1/DTD/svg11.dtd">
<!-- Generated by graphviz version 2.43.0 (0)
 -->
<!-- Title: AsservDriverSimu::motion_Goto Pages: 1 -->
<!--zoomable 244 -->
<svg id="main" version="1.1" xmlns="http://www.w3.org/2000/svg" xmlns:xlink="http://www.w3.org/1999/xlink" xml:space="preserve" onload="init(evt)">
<style type="text/css"><![CDATA[
.edge:hover path { stroke: red; }
.edge:hover polygon { stroke: red; fill: red; }
]]></style>
<script type="text/javascript"><![CDATA[
var edges = document.getElementsByTagName('g');
if (edges && edges.length) {
  for (var i=0;i<edges.length;i++) {
    if (edges[i].id.substr(0,4)=='edge') {
      edges[i].setAttribute('class','edge');
    }
  }
}
]]></script>
        <defs>
                <circle id="rim" cx="0" cy="0" r="7"/>
                <circle id="rim2" cx="0" cy="0" r="3.5"/>
                <g id="zoomPlus">
                        <use xlink:href="#rim" fill="#404040">
                                <set attributeName="fill" to="#808080" begin="zoomplus.mouseover" end="zoomplus.mouseout"/>
                        </use>
                        <path d="M-4,0h8M0,-4v8" fill="none" stroke="white" stroke-width="1.5" pointer-events="none"/>
                </g>
                <g id="zoomMin">
                        <use xlink:href="#rim" fill="#404040">
                                <set attributeName="fill" to="#808080" begin="zoomminus.mouseover" end="zoomminus.mouseout"/>
                        </use>
                        <path d="M-4,0h8" fill="none" stroke="white" stroke-width="1.5" pointer-events="none"/>
                </g>
                <g id="dirArrow">
                        <path fill="none" stroke="white" stroke-width="1.5" d="M0,-3.0v7 M-2.5,-0.5L0,-3.0L2.5,-0.5"/>
                </g>
               <g id="resetDef">
                       <use xlink:href="#rim2" fill="#404040">
                               <set attributeName="fill" to="#808080" begin="reset.mouseover" end="reset.mouseout"/>
                       </use>
               </g>
        </defs>

<script type="text/javascript">
var viewWidth = 1110;
var viewHeight = 244;
var sectionId = 'dynsection-53';
</script>
<script xlink:href="svgpan.js"/>
<svg id="graph" class="graph">
<g id="viewport">
<title>AsservDriverSimu::motion_Goto</title>
<polygon fill="white" stroke="transparent" points="-4,4 -4,-240 1106,-240 1106,4 -4,4"/>
<!-- Node1 -->
<g id="node1" class="node">
<title>Node1</title>
<g id="a_node1"><a xlink:title="Deplace le robot vers un point (marche avant).">
<polygon fill="#bfbfbf" stroke="black" points="0,-120.5 0,-139.5 173,-139.5 173,-120.5 0,-120.5"/>
<text text-anchor="middle" x="86.5" y="-127.5" font-family="Helvetica,sans-Serif" font-size="10.00">AsservDriverSimu::motion_Goto</text>
</a>
</g>
</g>
<!-- Node2 -->
<g id="node2" class="node">
<title>Node2</title>
<g id="a_node2"><a xlink:href="classAsservDriverSimu.html#a8fedcb2e091bd0e4674d1b13f72d2b4a" target="_top" xlink:title="Oriente le robot face a un point.">
<polygon fill="white" stroke="black" points="209,-93 209,-123 354,-123 354,-93 209,-93"/>
<text text-anchor="start" x="217" y="-111" font-family="Helvetica,sans-Serif" font-size="10.00">AsservDriverSimu::motion</text>
<text text-anchor="middle" x="281.5" y="-100" font-family="Helvetica,sans-Serif" font-size="10.00">_DoFace</text>
</a>
</g>
</g>
<!-- Node1&#45;&gt;Node2 -->
<g id="edge1" class="edge">
<title>Node1&#45;&gt;Node2</title>
<path fill="none" stroke="midnightblue" d="M171.03,-120.48C180.31,-119.42 189.75,-118.34 199,-117.29"/>
<polygon fill="midnightblue" stroke="midnightblue" points="199.41,-120.77 208.95,-116.16 198.61,-113.81 199.41,-120.77"/>
</g>
<!-- Node18 -->
<g id="node18" class="node">
<title>Node18</title>
<g id="a_node18"><a xlink:href="classAsservDriverSimu.html#aea508dc14b60826ecd69d0712cd244ff" target="_top" xlink:title="Avance ou recule en ligne droite.">
<polygon fill="white" stroke="black" points="390,-159 390,-189 535,-189 535,-159 390,-159"/>
<text text-anchor="start" x="398" y="-177" font-family="Helvetica,sans-Serif" font-size="10.00">AsservDriverSimu::motion</text>
<text text-anchor="middle" x="462.5" y="-166" font-family="Helvetica,sans-Serif" font-size="10.00">_DoLine</text>
</a>
</g>
</g>
<!-- Node1&#45;&gt;Node18 -->
<g id="edge22" class="edge">
<title>Node1&#45;&gt;Node18</title>
<path fill="none" stroke="midnightblue" d="M168.65,-139.55C231.13,-146.9 317.11,-157.01 379.74,-164.38"/>
<polygon fill="midnightblue" stroke="midnightblue" points="379.63,-167.89 389.97,-165.59 380.45,-160.94 379.63,-167.89"/>
</g>
<!-- Node3 -->
<g id="node3" class="node">
<title>Node3</title>
<g id="a_node3"><a xlink:href="classlogs_1_1Logger.html#a7dffc8f610014ec59b63392da16140e4" target="_top" xlink:title="Trace un message de niveau DEBUG.">
<polygon fill="white" stroke="black" points="585.5,-196.5 585.5,-215.5 697.5,-215.5 697.5,-196.5 585.5,-196.5"/>
<text text-anchor="middle" x="641.5" y="-203.5" font-family="Helvetica,sans-Serif" font-size="10.00">logs::Logger::debug</text>
</a>
</g>
</g>
<!-- Node2&#45;&gt;Node3 -->
<g id="edge2" class="edge">
<title>Node2&#45;&gt;Node3</title>
<path fill="none" stroke="midnightblue" d="M294.43,-123.14C312.44,-144.68 348.89,-183.28 390,-199 449.62,-221.8 523.18,-220.76 575.12,-215.72"/>
<polygon fill="midnightblue" stroke="midnightblue" points="575.63,-219.19 585.21,-214.67 574.9,-212.23 575.63,-219.19"/>
</g>
<!-- Node5 -->
<g id="node5" class="node">
<title>Node5</title>
<g id="a_node5"><a xlink:href="namespacelogs.html#ac6f325c6cfe6189bc8e243daa184453b" target="_top" xlink:title="Cette méthode permet de finir les flux de construction par la notation.">
<polygon fill="white" stroke="black" points="611,-41.5 611,-60.5 672,-60.5 672,-41.5 611,-41.5"/>
<text text-anchor="middle" x="641.5" y="-48.5" font-family="Helvetica,sans-Serif" font-size="10.00">logs::end</text>
</a>
</g>
</g>
<!-- Node2&#45;&gt;Node5 -->
<g id="edge4" class="edge">
<title>Node2&#45;&gt;Node5</title>
<path fill="none" stroke="midnightblue" d="M309.37,-92.89C330.55,-81.82 361.22,-67.62 390,-61 462.86,-44.24 550.73,-45.47 600.66,-48.09"/>
<polygon fill="midnightblue" stroke="midnightblue" points="600.54,-51.59 610.72,-48.67 600.94,-44.6 600.54,-51.59"/>
</g>
<!-- Node9 -->
<g id="node9" class="node">
<title>Node9</title>
<g id="a_node9"><a xlink:href="classAsservDriverSimu.html#ae676ad46e14f6a0547264fdfd5cd399e" target="_top" xlink:title="Retourne le Logger associé à la classe AsservDriverSimu(SIMU).">
<polygon fill="white" stroke="black" points="571,-120.5 571,-139.5 712,-139.5 712,-120.5 571,-120.5"/>
<text text-anchor="middle" x="641.5" y="-127.5" font-family="Helvetica,sans-Serif" font-size="10.00">AsservDriverSimu::logger</text>
</a>
</g>
</g>
<!-- Node2&#45;&gt;Node9 -->
<g id="edge9" class="edge">
<title>Node2&#45;&gt;Node9</title>
<path fill="none" stroke="midnightblue" d="M354.09,-112.4C413.81,-116.07 498.86,-121.3 560.75,-125.1"/>
<polygon fill="midnightblue" stroke="midnightblue" points="560.67,-128.6 570.87,-125.72 561.1,-121.61 560.67,-128.6"/>
</g>
<!-- Node14 -->
<g id="node14" class="node">
<title>Node14</title>
<g id="a_node14"><a xlink:href="classAsservDriverSimu.html#af66b0a32cc0bfcef63ddd05aae0c7ac6" target="_top" xlink:title="Effectue une rotation sur place.">
<polygon fill="white" stroke="black" points="390,-71 390,-101 535,-101 535,-71 390,-71"/>
<text text-anchor="start" x="398" y="-89" font-family="Helvetica,sans-Serif" font-size="10.00">AsservDriverSimu::motion</text>
<text text-anchor="middle" x="462.5" y="-78" font-family="Helvetica,sans-Serif" font-size="10.00">_DoRotate</text>
</a>
</g>
</g>
<!-- Node2&#45;&gt;Node14 -->
<g id="edge14" class="edge">
<title>Node2&#45;&gt;Node14</title>
<path fill="none" stroke="midnightblue" d="M354.02,-99.21C362.49,-98.17 371.18,-97.1 379.78,-96.04"/>
<polygon fill="midnightblue" stroke="midnightblue" points="380.31,-99.51 389.8,-94.81 379.45,-92.56 380.31,-99.51"/>
</g>
<!-- Node17 -->
<g id="node17" class="node">
<title>Node17</title>
<g id="a_node17"><a xlink:href="ARobotPositionShared_8hpp.html#a45bb7dfd2e7442f6250b8d202cc75c7f" target="_top" xlink:title="Normalise un angle dans l&#39;intervalle ]&#45;PI, PI].">
<polygon fill="white" stroke="black" points="599,-0.5 599,-19.5 684,-19.5 684,-0.5 599,-0.5"/>
<text text-anchor="middle" x="641.5" y="-7.5" font-family="Helvetica,sans-Serif" font-size="10.00">WrapAngle2PI</text>
</a>
</g>
</g>
<!-- Node2&#45;&gt;Node17 -->
<g id="edge21" class="edge">
<title>Node2&#45;&gt;Node17</title>
<path fill="none" stroke="midnightblue" d="M301.85,-92.88C322.47,-77.62 356.66,-54.7 390,-43 456.02,-19.84 537.02,-12.73 588.71,-10.66"/>
<polygon fill="midnightblue" stroke="midnightblue" points="589.08,-14.15 598.95,-10.3 588.84,-7.15 589.08,-14.15"/>
</g>
<!-- Node4 -->
<g id="node4" class="node">
<title>Node4</title>
<g id="a_node4"><a xlink:href="classlogs_1_1Logger.html#afa535aaf4891e02c4ff7f84d372b5b1b" target="_top" xlink:title="Méthode générique de trace d&#39;un message.">
<polygon fill="white" stroke="black" points="952,-79.5 952,-98.5 1102,-98.5 1102,-79.5 952,-79.5"/>
<text text-anchor="middle" x="1027" y="-86.5" font-family="Helvetica,sans-Serif" font-size="10.00">logs::Logger::writeMessage</text>
</a>
</g>
</g>
<!-- Node3&#45;&gt;Node4 -->
<g id="edge3" class="edge">
<title>Node3&#45;&gt;Node4</title>
<path fill="none" stroke="midnightblue" d="M689.26,-196.41C697.1,-193.91 704.96,-190.82 712,-187 730.82,-176.8 729.01,-164.88 748,-155 784.8,-135.85 892.2,-113.54 962.23,-100.39"/>
<polygon fill="midnightblue" stroke="midnightblue" points="963.09,-103.79 972.28,-98.51 961.8,-96.91 963.09,-103.79"/>
</g>
<!-- Node6 -->
<g id="node6" class="node">
<title>Node6</title>
<g id="a_node6"><a xlink:href="classlogs_1_1Logger_1_1LoggerBuffer.html#a0e4fd77693fd899ec1b0670354f93a02" target="_top" xlink:title="Cette méthode valide le message en cours de construction et le transmet au Logger de référence.">
<polygon fill="white" stroke="black" points="748,-41.5 748,-60.5 916,-60.5 916,-41.5 748,-41.5"/>
<text text-anchor="middle" x="832" y="-48.5" font-family="Helvetica,sans-Serif" font-size="10.00">logs::Logger::LoggerBuffer::end</text>
</a>
</g>
</g>
<!-- Node5&#45;&gt;Node6 -->
<g id="edge5" class="edge">
<title>Node5&#45;&gt;Node6</title>
<path fill="none" stroke="midnightblue" d="M672.37,-51C690.26,-51 714.09,-51 737.82,-51"/>
<polygon fill="midnightblue" stroke="midnightblue" points="737.97,-54.5 747.97,-51 737.97,-47.5 737.97,-54.5"/>
</g>
<!-- Node6&#45;&gt;Node4 -->
<g id="edge8" class="edge">
<title>Node6&#45;&gt;Node4</title>
<path fill="none" stroke="midnightblue" d="M881.7,-60.59C907.86,-65.74 940.28,-72.12 967.77,-77.53"/>
<polygon fill="midnightblue" stroke="midnightblue" points="967.16,-80.98 977.65,-79.48 968.51,-74.11 967.16,-80.98"/>
</g>
<!-- Node7 -->
<g id="node7" class="node">
<title>Node7</title>
<g id="a_node7"><a xlink:href="classutils_1_1Mutex.html#aa584b418a5ef484f76b93e361a1d7e32" target="_top" xlink:title="Verrouille le mutex. Cette méthode doit être appelée avant d&#39;utiliser la ressource associée....">
<polygon fill="white" stroke="black" points="976.5,-41.5 976.5,-60.5 1077.5,-60.5 1077.5,-41.5 976.5,-41.5"/>
<text text-anchor="middle" x="1027" y="-48.5" font-family="Helvetica,sans-Serif" font-size="10.00">utils::Mutex::lock</text>
</a>
</g>
</g>
<!-- Node6&#45;&gt;Node7 -->
<g id="edge6" class="edge">
<title>Node6&#45;&gt;Node7</title>
<path fill="none" stroke="midnightblue" d="M916.25,-51C933.07,-51 950.44,-51 966.26,-51"/>
<polygon fill="midnightblue" stroke="midnightblue" points="966.41,-54.5 976.41,-51 966.41,-47.5 966.41,-54.5"/>
</g>
<!-- Node8 -->
<g id="node8" class="node">
<title>Node8</title>
<g id="a_node8"><a xlink:href="classutils_1_1Mutex.html#a59b2079dc7f803d49f78ac9c04406cd3" target="_top" xlink:title="Déverrouille le mutex. Cette méthode doit être appelée après avoir utiliser la ressource associée.">
<polygon fill="white" stroke="black" points="970.5,-3.5 970.5,-22.5 1083.5,-22.5 1083.5,-3.5 970.5,-3.5"/>
<text text-anchor="middle" x="1027" y="-10.5" font-family="Helvetica,sans-Serif" font-size="10.00">utils::Mutex::unlock</text>
</a>
</g>
</g>
<!-- Node6&#45;&gt;Node8 -->
<g id="edge7" class="edge">
<title>Node6&#45;&gt;Node8</title>
<path fill="none" stroke="midnightblue" d="M881.7,-41.41C907.86,-36.26 940.28,-29.88 967.77,-24.47"/>
<polygon fill="midnightblue" stroke="midnightblue" points="968.51,-27.89 977.65,-22.52 967.16,-21.02 968.51,-27.89"/>
</g>
<!-- Node10 -->
<g id="node10" class="node">
<title>Node10</title>
<g id="a_node10"><a xlink:href="classlogs_1_1LoggerFactory.html#a82585b5de73e471e06cafdccc3b3721e" target="_top" xlink:title="Cette méthode statique retourne un Logger en fonction de son nom.">
<polygon fill="white" stroke="black" points="776.5,-164 776.5,-194 887.5,-194 887.5,-164 776.5,-164"/>
<text text-anchor="start" x="784.5" y="-182" font-family="Helvetica,sans-Serif" font-size="10.00">logs::LoggerFactory</text>
<text text-anchor="middle" x="832" y="-171" font-family="Helvetica,sans-Serif" font-size="10.00">::logger</text>
</a>
</g>
</g>
<!-- Node9&#45;&gt;Node10 -->
<g id="edge10" class="edge">
<title>Node9&#45;&gt;Node10</title>
<path fill="none" stroke="midnightblue" d="M679.29,-139.56C704.13,-146.02 737.57,-154.71 766.74,-162.29"/>
<polygon fill="midnightblue" stroke="midnightblue" points="765.89,-165.69 776.44,-164.82 767.65,-158.92 765.89,-165.69"/>
</g>
<!-- Node11 -->
<g id="node11" class="node">
<title>Node11</title>
<g id="a_node11"><a xlink:href="classlogs_1_1LoggerFactory.html#ac89f19c0ffd71aa8cdc1c2d44c03809e" target="_top" xlink:title="Cette méthode ajoute un appender au système.">
<polygon fill="white" stroke="black" points="960,-216.5 960,-235.5 1094,-235.5 1094,-216.5 960,-216.5"/>
<text text-anchor="middle" x="1027" y="-223.5" font-family="Helvetica,sans-Serif" font-size="10.00">logs::LoggerFactory::add</text>
</a>
</g>
</g>
<!-- Node10&#45;&gt;Node11 -->
<g id="edge11" class="edge">
<title>Node10&#45;&gt;Node11</title>
<path fill="none" stroke="midnightblue" d="M887.53,-192.28C915.73,-199.15 949.86,-207.46 977.18,-214.11"/>
<polygon fill="midnightblue" stroke="midnightblue" points="976.37,-217.52 986.91,-216.48 978.02,-210.71 976.37,-217.52"/>
</g>
<!-- Node12 -->
<g id="node12" class="node">
<title>Node12</title>
<g id="a_node12"><a xlink:href="classlogs_1_1LoggerFactory.html#a90478b91d7af2ef8841ded21e3521f69" target="_top" xlink:title="Cette méthode statique retourne l&#39;instance unique de la classe LoggerFactory.">
<polygon fill="white" stroke="black" points="971.5,-167 971.5,-197 1082.5,-197 1082.5,-167 971.5,-167"/>
<text text-anchor="start" x="979.5" y="-185" font-family="Helvetica,sans-Serif" font-size="10.00">logs::LoggerFactory</text>
<text text-anchor="middle" x="1027" y="-174" font-family="Helvetica,sans-Serif" font-size="10.00">::instance</text>
</a>
</g>
</g>
<!-- Node10&#45;&gt;Node12 -->
<g id="edge12" class="edge">
<title>Node10&#45;&gt;Node12</title>
<path fill="none" stroke="midnightblue" d="M887.53,-179.85C910.45,-180.2 937.3,-180.62 961.22,-180.99"/>
<polygon fill="midnightblue" stroke="midnightblue" points="961.21,-184.49 971.27,-181.15 961.32,-177.49 961.21,-184.49"/>
</g>
<!-- Node13 -->
<g id="node13" class="node">
<title>Node13</title>
<g id="a_node13"><a xlink:href="classlogs_1_1LoggerFactory.html#a212aa623f4b6bee12cb39e8017dde670" target="_top" xlink:title="Cette méthode retourne le Logger principal qui définit le niveau de trace par défaut.">
<polygon fill="white" stroke="black" points="971.5,-118 971.5,-148 1082.5,-148 1082.5,-118 971.5,-118"/>
<text text-anchor="start" x="979.5" y="-136" font-family="Helvetica,sans-Serif" font-size="10.00">logs::LoggerFactory</text>
<text text-anchor="middle" x="1027" y="-125" font-family="Helvetica,sans-Serif" font-size="10.00">::rootLogger</text>
</a>
</g>
</g>
<!-- Node10&#45;&gt;Node13 -->
<g id="edge13" class="edge">
<title>Node10&#45;&gt;Node13</title>
<path fill="none" stroke="midnightblue" d="M887.53,-166C910.56,-160.52 937.54,-154.08 961.54,-148.36"/>
<polygon fill="midnightblue" stroke="midnightblue" points="962.35,-151.77 971.27,-146.04 960.73,-144.96 962.35,-151.77"/>
</g>
<!-- Node14&#45;&gt;Node5 -->
<g id="edge15" class="edge">
<title>Node14&#45;&gt;Node5</title>
<path fill="none" stroke="midnightblue" d="M535.24,-71.81C557.66,-67.38 581.57,-62.65 600.92,-58.83"/>
<polygon fill="midnightblue" stroke="midnightblue" points="601.75,-62.23 610.88,-56.86 600.39,-55.36 601.75,-62.23"/>
</g>
<!-- Node14&#45;&gt;Node9 -->
<g id="edge18" class="edge">
<title>Node14&#45;&gt;Node9</title>
<path fill="none" stroke="midnightblue" d="M523.92,-101.02C546.31,-106.59 571.38,-112.82 592.51,-118.07"/>
<polygon fill="midnightblue" stroke="midnightblue" points="591.69,-121.47 602.23,-120.49 593.37,-114.68 591.69,-121.47"/>
</g>
<!-- Node15 -->
<g id="node15" class="node">
<title>Node15</title>
<g id="a_node15"><a xlink:href="classlogs_1_1Logger.html#a8b6a2019233bc44b3c3c86c653910831" target="_top" xlink:title="Trace un message de niveau ERROR.">
<polygon fill="white" stroke="black" points="779.5,-79.5 779.5,-98.5 884.5,-98.5 884.5,-79.5 779.5,-79.5"/>
<text text-anchor="middle" x="832" y="-86.5" font-family="Helvetica,sans-Serif" font-size="10.00">logs::Logger::error</text>
</a>
</g>
</g>
<!-- Node14&#45;&gt;Node15 -->
<g id="edge16" class="edge">
<title>Node14&#45;&gt;Node15</title>
<path fill="none" stroke="midnightblue" d="M535.23,-86.59C603.34,-87.14 704.65,-87.97 769.25,-88.5"/>
<polygon fill="midnightblue" stroke="midnightblue" points="769.27,-92 779.3,-88.58 769.33,-85 769.27,-92"/>
</g>
<!-- Node16 -->
<g id="node16" class="node">
<title>Node16</title>
<g id="a_node16"><a xlink:href="namespaceutils.html#a4f86fc4c334661a6995538cc080a40c9" target="_top" xlink:title="Met en pause le thread courant pendant usec microsecondes.">
<polygon fill="white" stroke="black" points="578,-158.5 578,-177.5 705,-177.5 705,-158.5 578,-158.5"/>
<text text-anchor="middle" x="641.5" y="-165.5" font-family="Helvetica,sans-Serif" font-size="10.00">utils::sleep_for_micros</text>
</a>
</g>
</g>
<!-- Node14&#45;&gt;Node16 -->
<g id="edge19" class="edge">
<title>Node14&#45;&gt;Node16</title>
<path fill="none" stroke="midnightblue" d="M485.25,-101.07C506.36,-115.11 539.7,-135.82 571,-149 576.54,-151.33 582.45,-153.46 588.39,-155.37"/>
<polygon fill="midnightblue" stroke="midnightblue" points="587.78,-158.85 598.37,-158.4 589.81,-152.15 587.78,-158.85"/>
</g>
<!-- Node14&#45;&gt;Node17 -->
<g id="edge20" class="edge">
<title>Node14&#45;&gt;Node17</title>
<path fill="none" stroke="midnightblue" d="M490.78,-70.78C512.18,-59.21 542.94,-43.4 571,-32 579.26,-28.64 588.24,-25.46 596.92,-22.62"/>
<polygon fill="midnightblue" stroke="midnightblue" points="598.06,-25.93 606.53,-19.57 595.94,-19.26 598.06,-25.93"/>
</g>
<!-- Node15&#45;&gt;Node4 -->
<g id="edge17" class="edge">
<title>Node15&#45;&gt;Node4</title>
<path fill="none" stroke="midnightblue" d="M884.72,-89C902.22,-89 922.23,-89 941.59,-89"/>
<polygon fill="midnightblue" stroke="midnightblue" points="941.64,-92.5 951.64,-89 941.64,-85.5 941.64,-92.5"/>
</g>
<!-- Node18&#45;&gt;Node3 -->
<g id="edge23" class="edge">
<title>Node18&#45;&gt;Node3</title>
<path fill="none" stroke="midnightblue" d="M535.24,-186.97C549.35,-189.52 564.05,-192.18 577.84,-194.67"/>
<polygon fill="midnightblue" stroke="midnightblue" points="577.23,-198.12 587.69,-196.45 578.47,-191.23 577.23,-198.12"/>
</g>
<!-- Node18&#45;&gt;Node5 -->
<g id="edge24" class="edge">
<title>Node18&#45;&gt;Node5</title>
<path fill="none" stroke="midnightblue" d="M485.2,-158.92C519.1,-135.36 584.25,-90.09 618.39,-66.36"/>
<polygon fill="midnightblue" stroke="midnightblue" points="620.54,-69.13 626.76,-60.55 616.55,-63.38 620.54,-69.13"/>
</g>
<!-- Node18&#45;&gt;Node9 -->
<g id="edge25" class="edge">
<title>Node18&#45;&gt;Node9</title>
<path fill="none" stroke="midnightblue" d="M523.92,-158.98C546.31,-153.41 571.38,-147.18 592.51,-141.93"/>
<polygon fill="midnightblue" stroke="midnightblue" points="593.37,-145.32 602.23,-139.51 591.69,-138.53 593.37,-145.32"/>
</g>
<!-- Node18&#45;&gt;Node16 -->
<g id="edge26" class="edge">
<title>Node18&#45;&gt;Node16</title>
<path fill="none" stroke="midnightblue" d="M535.24,-171.57C545.91,-171.21 556.93,-170.83 567.62,-170.47"/>
<polygon fill="midnightblue" stroke="midnightblue" points="567.89,-173.96 577.76,-170.13 567.65,-166.97 567.89,-173.96"/>
</g>
</g>
</svg>
        <g id="navigator" transform="translate(0 0)" fill="#404254">
                <rect fill="#f2f5e9" fill-opacity="0.5" stroke="#606060" stroke-width=".5" x="0" y="0" width="60" height="60"/>
                <use id="zoomplus" xlink:href="#zoomPlus" x="17" y="9" onmousedown="handleZoom(evt,'in')"/>
                <use id="zoomminus" xlink:href="#zoomMin" x="42" y="9" onmousedown="handleZoom(evt,'out')"/>
                <use id="reset" xlink:href="#resetDef" x="30" y="36" onmousedown="handleReset()"/>
                <g id="arrowUp" xlink:href="#dirArrow" transform="translate(30 24)" onmousedown="handlePan(0,-1)">
                  <use xlink:href="#rim" fill="#404040">
                        <set attributeName="fill" to="#808080" begin="arrowUp.mouseover" end="arrowUp.mouseout"/>
                  </use>
                  <path fill="none" stroke="white" stroke-width="1.5" d="M0,-3.0v7 M-2.5,-0.5L0,-3.0L2.5,-0.5"/>
                </g>
                <g id="arrowRight" xlink:href="#dirArrow" transform="rotate(90) translate(36 -43)" onmousedown="handlePan(1,0)">
                  <use xlink:href="#rim" fill="#404040">
                        <set attributeName="fill" to="#808080" begin="arrowRight.mouseover" end="arrowRight.mouseout"/>
                  </use>
                  <path fill="none" stroke="white" stroke-width="1.5" d="M0,-3.0v7 M-2.5,-0.5L0,-3.0L2.5,-0.5"/>
                </g>
                <g id="arrowDown" xlink:href="#dirArrow" transform="rotate(180) translate(-30 -48)" onmousedown="handlePan(0,1)">
                  <use xlink:href="#rim" fill="#404040">
                        <set attributeName="fill" to="#808080" begin="arrowDown.mouseover" end="arrowDown.mouseout"/>
                  </use>
                  <path fill="none" stroke="white" stroke-width="1.5" d="M0,-3.0v7 M-2.5,-0.5L0,-3.0L2.5,-0.5"/>
                </g>
                <g id="arrowLeft" xlink:href="#dirArrow" transform="rotate(270) translate(-36 17)" onmousedown="handlePan(-1,0)">
                  <use xlink:href="#rim" fill="#404040">
                        <set attributeName="fill" to="#808080" begin="arrowLeft.mouseover" end="arrowLeft.mouseout"/>
                  </use>
                  <path fill="none" stroke="white" stroke-width="1.5" d="M0,-3.0v7 M-2.5,-0.5L0,-3.0L2.5,-0.5"/>
                </g>
        </g>
        <svg viewBox="0 0 15 15" width="100%" height="30px" preserveAspectRatio="xMaxYMin meet">
         <g id="arrow_out" transform="scale(0.3 0.3)">
          <a xlink:href="classAsservDriverSimu_a43fbdde3667329623cb671e409790838_cgraph_org.svg" target="_base">
           <rect id="button" ry="5" rx="5" y="6" x="6" height="38" width="38"
                fill="#f2f5e9" fill-opacity="0.5" stroke="#606060" stroke-width="1.0"/>
           <path id="arrow"
             d="M 11.500037,31.436501 C 11.940474,20.09759 22.043105,11.32322 32.158766,21.979434 L 37.068811,17.246167 C 37.068811,17.246167 37.088388,32 37.088388,32 L 22.160133,31.978069 C 22.160133,31.978069 26.997745,27.140456 26.997745,27.140456 C 18.528582,18.264221 13.291696,25.230495 11.500037,31.436501 z"
             style="fill:#404040;"/>
          </a>
         </g>
        </svg>
</svg>
