<?xml version="1.0" encoding="UTF-8" standalone="no"?>
<!DOCTYPE svg PUBLIC "-//W3C//DTD SVG 1.1//EN"
 "http://www.w3.org/Graphics/SVG/1.1/DTD/svg11.dtd">
<!-- Generated by graphviz version 2.43.0 (0)
 -->
<!-- Title: AColorDriver::create Pages: 1 -->
<svg width="315pt" height="88pt"
 viewBox="0.00 0.00 315.00 88.00" xmlns="http://www.w3.org/2000/svg" xmlns:xlink="http://www.w3.org/1999/xlink">
<g id="graph0" class="graph" transform="scale(1 1) rotate(0) translate(4 84)">
<title>AColorDriver::create</title>
<polygon fill="white" stroke="transparent" points="-4,4 -4,-84 311,-84 311,4 -4,4"/>
<!-- Node1 -->
<g id="node1" class="node">
<title>Node1</title>
<g id="a_node1"><a xlink:title="Cree l&#39;instance concrete selon la plateforme.">
<polygon fill="#bfbfbf" stroke="black" points="191,-30 191,-49 307,-49 307,-30 191,-30"/>
<text text-anchor="middle" x="249" y="-37" font-family="Helvetica,sans-Serif" font-size="10.00">AColorDriver::create</text>
</a>
</g>
</g>
<!-- Node2 -->
<g id="node2" class="node">
<title>Node2</title>
<g id="a_node2"><a xlink:href="classtest_1_1ColorDriverManualTest.html#af1d05d20000148ad30b089889fd0b734" target="_top" xlink:title="Constructeur de la classe.">
<polygon fill="white" stroke="black" points="1.5,-49.5 1.5,-79.5 153.5,-79.5 153.5,-49.5 1.5,-49.5"/>
<text text-anchor="start" x="9.5" y="-67.5" font-family="Helvetica,sans-Serif" font-size="10.00">test::ColorDriverManualTest</text>
<text text-anchor="middle" x="77.5" y="-56.5" font-family="Helvetica,sans-Serif" font-size="10.00">::ColorDriverManualTest</text>
</a>
</g>
</g>
<!-- Node1&#45;&gt;Node2 -->
<g id="edge1" class="edge">
<title>Node1&#45;&gt;Node2</title>
<path fill="none" stroke="midnightblue" d="M180.69,-49.43C171.77,-50.74 162.59,-52.1 153.55,-53.43"/>
<polygon fill="midnightblue" stroke="midnightblue" points="181.23,-52.89 190.62,-47.96 180.21,-45.96 181.23,-52.89"/>
</g>
<!-- Node3 -->
<g id="node3" class="node">
<title>Node3</title>
<g id="a_node3"><a xlink:href="classOPOS6UL__ActionsExtended.html#aced00f2c03b0aa9b9eda54e6874bac75" target="_top" xlink:title=" ">
<polygon fill="white" stroke="black" points="0,-0.5 0,-30.5 155,-30.5 155,-0.5 0,-0.5"/>
<text text-anchor="start" x="8" y="-18.5" font-family="Helvetica,sans-Serif" font-size="10.00">OPOS6UL_ActionsExtended</text>
<text text-anchor="middle" x="77.5" y="-7.5" font-family="Helvetica,sans-Serif" font-size="10.00">::OPOS6UL_ActionsExtended</text>
</a>
</g>
</g>
<!-- Node1&#45;&gt;Node3 -->
<g id="edge2" class="edge">
<title>Node1&#45;&gt;Node3</title>
<path fill="none" stroke="midnightblue" d="M180.54,-29.95C172.17,-28.76 163.56,-27.54 155.06,-26.34"/>
<polygon fill="midnightblue" stroke="midnightblue" points="180.22,-33.44 190.62,-31.37 181.2,-26.51 180.22,-33.44"/>
</g>
</g>
</svg>
