<?xml version="1.0" encoding="UTF-8" standalone="no"?>
<!DOCTYPE svg PUBLIC "-//W3C//DTD SVG 1.1//EN"
 "http://www.w3.org/Graphics/SVG/1.1/DTD/svg11.dtd">
<!-- Generated by graphviz version 2.43.0 (0)
 -->
<!-- Title: AsservDriverWrapper::positionRightThread Pages: 1 -->
<svg width="1227pt" height="289pt"
 viewBox="0.00 0.00 1227.00 288.50" xmlns="http://www.w3.org/2000/svg" xmlns:xlink="http://www.w3.org/1999/xlink">
<g id="graph0" class="graph" transform="scale(1 1) rotate(0) translate(4 284.5)">
<title>AsservDriverWrapper::positionRightThread</title>
<polygon fill="white" stroke="transparent" points="-4,4 -4,-284.5 1223,-284.5 1223,4 -4,4"/>
<!-- Node1 -->
<g id="node1" class="node">
<title>Node1</title>
<g id="a_node1"><a xlink:title=" ">
<polygon fill="#bfbfbf" stroke="black" points="0,-120 0,-150 121,-150 121,-120 0,-120"/>
<text text-anchor="start" x="8" y="-138" font-family="Helvetica,sans-Serif" font-size="10.00">AsservDriverWrapper</text>
<text text-anchor="middle" x="60.5" y="-127" font-family="Helvetica,sans-Serif" font-size="10.00">::positionRightThread</text>
</a>
</g>
</g>
<!-- Node2 -->
<g id="node2" class="node">
<title>Node2</title>
<g id="a_node2"><a xlink:href="classAsservDriverWrapper.html#a4642069f82e26bf54045931a819a4d84" target="_top" xlink:title=" ">
<polygon fill="white" stroke="black" points="157,-120 157,-150 278,-150 278,-120 157,-120"/>
<text text-anchor="start" x="165" y="-138" font-family="Helvetica,sans-Serif" font-size="10.00">AsservDriverWrapper</text>
<text text-anchor="middle" x="217.5" y="-127" font-family="Helvetica,sans-Serif" font-size="10.00">::positionRight</text>
</a>
</g>
</g>
<!-- Node1&#45;&gt;Node2 -->
<g id="edge1" class="edge">
<title>Node1&#45;&gt;Node2</title>
<path fill="none" stroke="midnightblue" d="M121.43,-135C129.72,-135 138.31,-135 146.76,-135"/>
<polygon fill="midnightblue" stroke="midnightblue" points="146.99,-138.5 156.99,-135 146.99,-131.5 146.99,-138.5"/>
</g>
<!-- Node3 -->
<g id="node3" class="node">
<title>Node3</title>
<g id="a_node3"><a xlink:href="classAsservDriver.html#af852b42fef0dbd773141d5e5fd0a74f6" target="_top" xlink:title=" ">
<polygon fill="white" stroke="black" points="314,-169.5 314,-188.5 487,-188.5 487,-169.5 314,-169.5"/>
<text text-anchor="middle" x="400.5" y="-176.5" font-family="Helvetica,sans-Serif" font-size="10.00">AsservDriver::computeCounterR</text>
</a>
</g>
</g>
<!-- Node2&#45;&gt;Node3 -->
<g id="edge2" class="edge">
<title>Node2&#45;&gt;Node3</title>
<path fill="none" stroke="midnightblue" d="M274.46,-150.02C287.42,-153.4 301.17,-156.9 314,-160 324.08,-162.44 334.86,-164.93 345.25,-167.26"/>
<polygon fill="midnightblue" stroke="midnightblue" points="344.53,-170.69 355.05,-169.45 346.05,-163.86 344.53,-170.69"/>
</g>
<!-- Node17 -->
<g id="node17" class="node">
<title>Node17</title>
<g id="a_node17"><a xlink:href="classAsservDriver.html#a00e162296e20e589d7117b2427908aa6" target="_top" xlink:title="Lit la valeur de l&#39;encodeur interne droit.">
<polygon fill="white" stroke="black" points="318.5,-120 318.5,-150 482.5,-150 482.5,-120 318.5,-120"/>
<text text-anchor="start" x="326.5" y="-138" font-family="Helvetica,sans-Serif" font-size="10.00">AsservDriver::getRightInternal</text>
<text text-anchor="middle" x="400.5" y="-127" font-family="Helvetica,sans-Serif" font-size="10.00">Encoder</text>
</a>
</g>
</g>
<!-- Node2&#45;&gt;Node17 -->
<g id="edge17" class="edge">
<title>Node2&#45;&gt;Node17</title>
<path fill="none" stroke="midnightblue" d="M278.02,-135C287.68,-135 297.87,-135 308.08,-135"/>
<polygon fill="midnightblue" stroke="midnightblue" points="308.28,-138.5 318.28,-135 308.28,-131.5 308.28,-138.5"/>
</g>
<!-- Node18 -->
<g id="node18" class="node">
<title>Node18</title>
<g id="a_node18"><a xlink:href="classAsservDriver.html#ab24bc1636143db604ecbad3b18a17c8c" target="_top" xlink:title="Arrete le moteur droit.">
<polygon fill="white" stroke="black" points="320,-81.5 320,-100.5 481,-100.5 481,-81.5 320,-81.5"/>
<text text-anchor="middle" x="400.5" y="-88.5" font-family="Helvetica,sans-Serif" font-size="10.00">AsservDriver::stopMotorRight</text>
</a>
</g>
</g>
<!-- Node2&#45;&gt;Node18 -->
<g id="edge18" class="edge">
<title>Node2&#45;&gt;Node18</title>
<path fill="none" stroke="midnightblue" d="M277.56,-120C289.61,-116.98 302.2,-113.86 314,-111 325.11,-108.3 337.06,-105.47 348.39,-102.81"/>
<polygon fill="midnightblue" stroke="midnightblue" points="349.21,-106.21 358.15,-100.53 347.62,-99.4 349.21,-106.21"/>
</g>
<!-- Node4 -->
<g id="node4" class="node">
<title>Node4</title>
<g id="a_node4"><a xlink:href="classAsservDriver.html#a05bd91c77a979511dda5d0e901ddf6e6" target="_top" xlink:title=" ">
<polygon fill="white" stroke="black" points="523,-142 523,-172 675,-172 675,-142 523,-142"/>
<text text-anchor="start" x="531" y="-160" font-family="Helvetica,sans-Serif" font-size="10.00">AsservDriver::convertMmTo</text>
<text text-anchor="middle" x="599" y="-149" font-family="Helvetica,sans-Serif" font-size="10.00">Ticks</text>
</a>
</g>
</g>
<!-- Node3&#45;&gt;Node4 -->
<g id="edge3" class="edge">
<title>Node3&#45;&gt;Node4</title>
<path fill="none" stroke="midnightblue" d="M486.54,-169.48C495.19,-168.51 503.98,-167.53 512.63,-166.56"/>
<polygon fill="midnightblue" stroke="midnightblue" points="513.16,-170.02 522.71,-165.43 512.38,-163.06 513.16,-170.02"/>
</g>
<!-- Node16 -->
<g id="node16" class="node">
<title>Node16</title>
<g id="a_node16"><a xlink:href="classutils_1_1Chronometer.html#aecf9f2e3ced9629be0a03b3ecf0ee01a" target="_top" xlink:title="Retourne le temps écoulé en millisecondes.">
<polygon fill="white" stroke="black" points="524.5,-230 524.5,-260 673.5,-260 673.5,-230 524.5,-230"/>
<text text-anchor="start" x="532.5" y="-248" font-family="Helvetica,sans-Serif" font-size="10.00">utils::Chronometer</text>
<text text-anchor="middle" x="599" y="-237" font-family="Helvetica,sans-Serif" font-size="10.00">::getElapsedTimeInMilliSec</text>
</a>
</g>
</g>
<!-- Node3&#45;&gt;Node16 -->
<g id="edge16" class="edge">
<title>Node3&#45;&gt;Node16</title>
<path fill="none" stroke="midnightblue" d="M430.07,-188.6C459.68,-198.54 506.68,-214.33 543.43,-226.67"/>
<polygon fill="midnightblue" stroke="midnightblue" points="542.43,-230.03 553.02,-229.89 544.66,-223.39 542.43,-230.03"/>
</g>
<!-- Node5 -->
<g id="node5" class="node">
<title>Node5</title>
<g id="a_node5"><a xlink:href="classlogs_1_1Logger.html#a7dffc8f610014ec59b63392da16140e4" target="_top" xlink:title="Trace un message de niveau DEBUG.">
<polygon fill="white" stroke="black" points="714,-85.5 714,-104.5 826,-104.5 826,-85.5 714,-85.5"/>
<text text-anchor="middle" x="770" y="-92.5" font-family="Helvetica,sans-Serif" font-size="10.00">logs::Logger::debug</text>
</a>
</g>
</g>
<!-- Node4&#45;&gt;Node5 -->
<g id="edge4" class="edge">
<title>Node4&#45;&gt;Node5</title>
<path fill="none" stroke="midnightblue" d="M637.32,-141.97C658.77,-133.48 686.28,-122.83 711,-114 716.75,-111.94 722.86,-109.85 728.86,-107.84"/>
<polygon fill="midnightblue" stroke="midnightblue" points="730.4,-111.02 738.79,-104.56 728.2,-104.37 730.4,-111.02"/>
</g>
<!-- Node7 -->
<g id="node7" class="node">
<title>Node7</title>
<g id="a_node7"><a xlink:href="namespacelogs.html#ac6f325c6cfe6189bc8e243daa184453b" target="_top" xlink:title="Cette méthode permet de finir les flux de construction par la notation.">
<polygon fill="white" stroke="black" points="739.5,-123.5 739.5,-142.5 800.5,-142.5 800.5,-123.5 739.5,-123.5"/>
<text text-anchor="middle" x="770" y="-130.5" font-family="Helvetica,sans-Serif" font-size="10.00">logs::end</text>
</a>
</g>
</g>
<!-- Node4&#45;&gt;Node7 -->
<g id="edge6" class="edge">
<title>Node4&#45;&gt;Node7</title>
<path fill="none" stroke="midnightblue" d="M675.11,-146.33C693.77,-143.68 713.04,-140.95 729.24,-138.65"/>
<polygon fill="midnightblue" stroke="midnightblue" points="729.99,-142.08 739.4,-137.2 729,-135.14 729.99,-142.08"/>
</g>
<!-- Node11 -->
<g id="node11" class="node">
<title>Node11</title>
<g id="a_node11"><a xlink:href="classAsservDriver.html#a037c58098a47f261e1b2fd97cc818ff5" target="_top" xlink:title="Retourne le Logger associé à la classe AsservDriver(OPOS6UL).">
<polygon fill="white" stroke="black" points="712,-166.5 712,-185.5 828,-185.5 828,-166.5 712,-166.5"/>
<text text-anchor="middle" x="770" y="-173.5" font-family="Helvetica,sans-Serif" font-size="10.00">AsservDriver::logger</text>
</a>
</g>
</g>
<!-- Node4&#45;&gt;Node11 -->
<g id="edge11" class="edge">
<title>Node4&#45;&gt;Node11</title>
<path fill="none" stroke="midnightblue" d="M675.11,-165.44C683.98,-166.44 692.99,-167.45 701.74,-168.44"/>
<polygon fill="midnightblue" stroke="midnightblue" points="701.55,-171.94 711.88,-169.58 702.33,-164.98 701.55,-171.94"/>
</g>
<!-- Node6 -->
<g id="node6" class="node">
<title>Node6</title>
<g id="a_node6"><a xlink:href="classlogs_1_1Logger.html#afa535aaf4891e02c4ff7f84d372b5b1b" target="_top" xlink:title="Méthode générique de trace d&#39;un message.">
<polygon fill="white" stroke="black" points="1069,-47.5 1069,-66.5 1219,-66.5 1219,-47.5 1069,-47.5"/>
<text text-anchor="middle" x="1144" y="-54.5" font-family="Helvetica,sans-Serif" font-size="10.00">logs::Logger::writeMessage</text>
</a>
</g>
</g>
<!-- Node5&#45;&gt;Node6 -->
<g id="edge5" class="edge">
<title>Node5&#45;&gt;Node6</title>
<path fill="none" stroke="midnightblue" d="M826.24,-90.09C879.29,-85.29 961.67,-77.62 1033,-70 1041.31,-69.11 1049.98,-68.15 1058.63,-67.17"/>
<polygon fill="midnightblue" stroke="midnightblue" points="1059.23,-70.62 1068.77,-66 1058.43,-63.67 1059.23,-70.62"/>
</g>
<!-- Node8 -->
<g id="node8" class="node">
<title>Node8</title>
<g id="a_node8"><a xlink:href="classlogs_1_1Logger_1_1LoggerBuffer.html#a0e4fd77693fd899ec1b0670354f93a02" target="_top" xlink:title="Cette méthode valide le message en cours de construction et le transmet au Logger de référence.">
<polygon fill="white" stroke="black" points="865,-121.5 865,-140.5 1033,-140.5 1033,-121.5 865,-121.5"/>
<text text-anchor="middle" x="949" y="-128.5" font-family="Helvetica,sans-Serif" font-size="10.00">logs::Logger::LoggerBuffer::end</text>
</a>
</g>
</g>
<!-- Node7&#45;&gt;Node8 -->
<g id="edge7" class="edge">
<title>Node7&#45;&gt;Node8</title>
<path fill="none" stroke="midnightblue" d="M800.63,-132.67C815.71,-132.49 834.97,-132.28 854.56,-132.06"/>
<polygon fill="midnightblue" stroke="midnightblue" points="854.85,-135.55 864.81,-131.94 854.77,-128.55 854.85,-135.55"/>
</g>
<!-- Node8&#45;&gt;Node6 -->
<g id="edge10" class="edge">
<title>Node8&#45;&gt;Node6</title>
<path fill="none" stroke="midnightblue" d="M993.54,-121.44C1006.66,-117.63 1020.81,-112.56 1033,-106 1051.34,-96.13 1050.46,-85.49 1069,-76 1073.6,-73.64 1078.52,-71.56 1083.56,-69.73"/>
<polygon fill="midnightblue" stroke="midnightblue" points="1084.92,-72.97 1093.31,-66.5 1082.72,-66.32 1084.92,-72.97"/>
</g>
<!-- Node9 -->
<g id="node9" class="node">
<title>Node9</title>
<g id="a_node9"><a xlink:href="classutils_1_1Mutex.html#aa584b418a5ef484f76b93e361a1d7e32" target="_top" xlink:title="Verrouille le mutex. Cette méthode doit être appelée avant d&#39;utiliser la ressource associée....">
<polygon fill="white" stroke="black" points="1093.5,-85.5 1093.5,-104.5 1194.5,-104.5 1194.5,-85.5 1093.5,-85.5"/>
<text text-anchor="middle" x="1144" y="-92.5" font-family="Helvetica,sans-Serif" font-size="10.00">utils::Mutex::lock</text>
</a>
</g>
</g>
<!-- Node8&#45;&gt;Node9 -->
<g id="edge8" class="edge">
<title>Node8&#45;&gt;Node9</title>
<path fill="none" stroke="midnightblue" d="M1000.96,-121.49C1026.31,-116.77 1057.1,-111.02 1083.53,-106.09"/>
<polygon fill="midnightblue" stroke="midnightblue" points="1084.23,-109.52 1093.42,-104.25 1082.95,-102.64 1084.23,-109.52"/>
</g>
<!-- Node10 -->
<g id="node10" class="node">
<title>Node10</title>
<g id="a_node10"><a xlink:href="classutils_1_1Mutex.html#a59b2079dc7f803d49f78ac9c04406cd3" target="_top" xlink:title="Déverrouille le mutex. Cette méthode doit être appelée après avoir utiliser la ressource associée.">
<polygon fill="white" stroke="black" points="1087.5,-123.5 1087.5,-142.5 1200.5,-142.5 1200.5,-123.5 1087.5,-123.5"/>
<text text-anchor="middle" x="1144" y="-130.5" font-family="Helvetica,sans-Serif" font-size="10.00">utils::Mutex::unlock</text>
</a>
</g>
</g>
<!-- Node8&#45;&gt;Node10 -->
<g id="edge9" class="edge">
<title>Node8&#45;&gt;Node10</title>
<path fill="none" stroke="midnightblue" d="M1033.25,-131.86C1047.94,-132.01 1063.06,-132.17 1077.19,-132.32"/>
<polygon fill="midnightblue" stroke="midnightblue" points="1077.25,-135.82 1087.29,-132.42 1077.33,-128.82 1077.25,-135.82"/>
</g>
<!-- Node12 -->
<g id="node12" class="node">
<title>Node12</title>
<g id="a_node12"><a xlink:href="classlogs_1_1LoggerFactory.html#a82585b5de73e471e06cafdccc3b3721e" target="_top" xlink:title="Cette méthode statique retourne un Logger en fonction de son nom.">
<polygon fill="white" stroke="black" points="893.5,-166 893.5,-196 1004.5,-196 1004.5,-166 893.5,-166"/>
<text text-anchor="start" x="901.5" y="-184" font-family="Helvetica,sans-Serif" font-size="10.00">logs::LoggerFactory</text>
<text text-anchor="middle" x="949" y="-173" font-family="Helvetica,sans-Serif" font-size="10.00">::logger</text>
</a>
</g>
</g>
<!-- Node11&#45;&gt;Node12 -->
<g id="edge12" class="edge">
<title>Node11&#45;&gt;Node12</title>
<path fill="none" stroke="midnightblue" d="M828.47,-177.62C845.93,-178.12 865.24,-178.66 883.16,-179.17"/>
<polygon fill="midnightblue" stroke="midnightblue" points="883.13,-182.67 893.23,-179.45 883.33,-175.67 883.13,-182.67"/>
</g>
<!-- Node13 -->
<g id="node13" class="node">
<title>Node13</title>
<g id="a_node13"><a xlink:href="classlogs_1_1LoggerFactory.html#ac89f19c0ffd71aa8cdc1c2d44c03809e" target="_top" xlink:title="Cette méthode ajoute un appender au système.">
<polygon fill="white" stroke="black" points="1077,-211.5 1077,-230.5 1211,-230.5 1211,-211.5 1077,-211.5"/>
<text text-anchor="middle" x="1144" y="-218.5" font-family="Helvetica,sans-Serif" font-size="10.00">logs::LoggerFactory::add</text>
</a>
</g>
</g>
<!-- Node12&#45;&gt;Node13 -->
<g id="edge13" class="edge">
<title>Node12&#45;&gt;Node13</title>
<path fill="none" stroke="midnightblue" d="M1004.53,-192.3C1030.31,-197.65 1061.06,-204.02 1087.02,-209.4"/>
<polygon fill="midnightblue" stroke="midnightblue" points="1086.59,-212.88 1097.09,-211.48 1088.01,-206.03 1086.59,-212.88"/>
</g>
<!-- Node14 -->
<g id="node14" class="node">
<title>Node14</title>
<g id="a_node14"><a xlink:href="classlogs_1_1LoggerFactory.html#a90478b91d7af2ef8841ded21e3521f69" target="_top" xlink:title="Cette méthode statique retourne l&#39;instance unique de la classe LoggerFactory.">
<polygon fill="white" stroke="black" points="1088.5,-162 1088.5,-192 1199.5,-192 1199.5,-162 1088.5,-162"/>
<text text-anchor="start" x="1096.5" y="-180" font-family="Helvetica,sans-Serif" font-size="10.00">logs::LoggerFactory</text>
<text text-anchor="middle" x="1144" y="-169" font-family="Helvetica,sans-Serif" font-size="10.00">::instance</text>
</a>
</g>
</g>
<!-- Node12&#45;&gt;Node14 -->
<g id="edge14" class="edge">
<title>Node12&#45;&gt;Node14</title>
<path fill="none" stroke="midnightblue" d="M1004.53,-179.87C1027.45,-179.39 1054.3,-178.84 1078.22,-178.34"/>
<polygon fill="midnightblue" stroke="midnightblue" points="1078.34,-181.84 1088.27,-178.13 1078.2,-174.84 1078.34,-181.84"/>
</g>
<!-- Node15 -->
<g id="node15" class="node">
<title>Node15</title>
<g id="a_node15"><a xlink:href="classlogs_1_1LoggerFactory.html#a212aa623f4b6bee12cb39e8017dde670" target="_top" xlink:title="Cette méthode retourne le Logger principal qui définit le niveau de trace par défaut.">
<polygon fill="white" stroke="black" points="1088.5,-250 1088.5,-280 1199.5,-280 1199.5,-250 1088.5,-250"/>
<text text-anchor="start" x="1096.5" y="-268" font-family="Helvetica,sans-Serif" font-size="10.00">logs::LoggerFactory</text>
<text text-anchor="middle" x="1144" y="-257" font-family="Helvetica,sans-Serif" font-size="10.00">::rootLogger</text>
</a>
</g>
</g>
<!-- Node12&#45;&gt;Node15 -->
<g id="edge15" class="edge">
<title>Node12&#45;&gt;Node15</title>
<path fill="none" stroke="midnightblue" d="M977.88,-196.16C1001.68,-208.77 1037.05,-226.75 1069,-240 1074.38,-242.23 1080.03,-244.41 1085.72,-246.51"/>
<polygon fill="midnightblue" stroke="midnightblue" points="1084.68,-249.85 1095.28,-249.93 1087.04,-243.26 1084.68,-249.85"/>
</g>
<!-- Node18&#45;&gt;Node7 -->
<g id="edge19" class="edge">
<title>Node18&#45;&gt;Node7</title>
<path fill="none" stroke="midnightblue" d="M481.24,-100.11C557.71,-108.85 670.02,-121.69 729.18,-128.45"/>
<polygon fill="midnightblue" stroke="midnightblue" points="728.9,-131.94 739.24,-129.6 729.7,-124.99 728.9,-131.94"/>
</g>
<!-- Node18&#45;&gt;Node11 -->
<g id="edge22" class="edge">
<title>Node18&#45;&gt;Node11</title>
<path fill="none" stroke="midnightblue" d="M468.58,-100.55C475.19,-103.25 481.48,-106.67 487,-111 514.83,-132.85 492.85,-163.48 523,-182 587.67,-221.72 681.06,-203.42 732.16,-188.5"/>
<polygon fill="midnightblue" stroke="midnightblue" points="733.24,-191.83 741.79,-185.58 731.2,-185.13 733.24,-191.83"/>
</g>
<!-- Node19 -->
<g id="node19" class="node">
<title>Node19</title>
<g id="a_node19"><a xlink:href="classlogs_1_1Logger.html#a8b6a2019233bc44b3c3c86c653910831" target="_top" xlink:title="Trace un message de niveau ERROR.">
<polygon fill="white" stroke="black" points="896.5,-0.5 896.5,-19.5 1001.5,-19.5 1001.5,-0.5 896.5,-0.5"/>
<text text-anchor="middle" x="949" y="-7.5" font-family="Helvetica,sans-Serif" font-size="10.00">logs::Logger::error</text>
</a>
</g>
</g>
<!-- Node18&#45;&gt;Node19 -->
<g id="edge20" class="edge">
<title>Node18&#45;&gt;Node19</title>
<path fill="none" stroke="midnightblue" d="M422.05,-81.32C445.8,-70.58 486.34,-53.64 523,-45 649.59,-15.18 802.58,-9.81 886.12,-9.37"/>
<polygon fill="midnightblue" stroke="midnightblue" points="886.21,-12.87 896.2,-9.34 886.19,-5.87 886.21,-12.87"/>
</g>
<!-- Node20 -->
<g id="node20" class="node">
<title>Node20</title>
<g id="a_node20"><a xlink:href="classAsservDriver.html#ac9f37c4408c0a72913bd57f7f6ffa576" target="_top" xlink:title="Passe en roue libre (aucun asservissement).">
<polygon fill="white" stroke="black" points="539,-54 539,-84 659,-84 659,-54 539,-54"/>
<text text-anchor="start" x="547" y="-72" font-family="Helvetica,sans-Serif" font-size="10.00">AsservDriver::motion</text>
<text text-anchor="middle" x="599" y="-61" font-family="Helvetica,sans-Serif" font-size="10.00">_FreeMotion</text>
</a>
</g>
</g>
<!-- Node18&#45;&gt;Node20 -->
<g id="edge23" class="edge">
<title>Node18&#45;&gt;Node20</title>
<path fill="none" stroke="midnightblue" d="M481.14,-82.08C496.94,-80.31 513.4,-78.47 528.81,-76.75"/>
<polygon fill="midnightblue" stroke="midnightblue" points="529.22,-80.22 538.77,-75.63 528.44,-73.27 529.22,-80.22"/>
</g>
<!-- Node19&#45;&gt;Node6 -->
<g id="edge21" class="edge">
<title>Node19&#45;&gt;Node6</title>
<path fill="none" stroke="midnightblue" d="M989.06,-19.51C1019.3,-26.88 1061.38,-37.12 1093.91,-45.04"/>
<polygon fill="midnightblue" stroke="midnightblue" points="1093.13,-48.46 1103.67,-47.42 1094.78,-41.66 1093.13,-48.46"/>
</g>
<!-- Node20&#45;&gt;Node5 -->
<g id="edge24" class="edge">
<title>Node20&#45;&gt;Node5</title>
<path fill="none" stroke="midnightblue" d="M659.11,-78.09C673.57,-80.32 689.13,-82.71 703.85,-84.98"/>
<polygon fill="midnightblue" stroke="midnightblue" points="703.48,-88.46 713.89,-86.52 704.54,-81.54 703.48,-88.46"/>
</g>
<!-- Node20&#45;&gt;Node7 -->
<g id="edge25" class="edge">
<title>Node20&#45;&gt;Node7</title>
<path fill="none" stroke="midnightblue" d="M637.81,-84C649.73,-88.76 662.93,-94.07 675,-99 691.05,-105.55 694.75,-107.96 711,-114 717,-116.23 723.39,-118.46 729.66,-120.57"/>
<polygon fill="midnightblue" stroke="midnightblue" points="728.75,-123.96 739.34,-123.78 730.95,-117.31 728.75,-123.96"/>
</g>
<!-- Node20&#45;&gt;Node11 -->
<g id="edge26" class="edge">
<title>Node20&#45;&gt;Node11</title>
<path fill="none" stroke="midnightblue" d="M617.5,-84.28C638.6,-102.16 675.65,-131.89 711,-152 717.71,-155.82 725.14,-159.36 732.39,-162.48"/>
<polygon fill="midnightblue" stroke="midnightblue" points="731.49,-165.9 742.07,-166.48 734.16,-159.43 731.49,-165.9"/>
</g>
<!-- Node21 -->
<g id="node21" class="node">
<title>Node21</title>
<g id="a_node21"><a xlink:href="classAsservDriver.html#aa655c511eb60946e7c2e8835af49abca" target="_top" xlink:title=" ">
<polygon fill="white" stroke="black" points="711,-36 711,-66 829,-66 829,-36 711,-36"/>
<text text-anchor="start" x="719" y="-54" font-family="Helvetica,sans-Serif" font-size="10.00">AsservDriver::nucleo</text>
<text text-anchor="middle" x="770" y="-43" font-family="Helvetica,sans-Serif" font-size="10.00">_writeSerialSTR</text>
</a>
</g>
</g>
<!-- Node20&#45;&gt;Node21 -->
<g id="edge27" class="edge">
<title>Node20&#45;&gt;Node21</title>
<path fill="none" stroke="midnightblue" d="M659.11,-62.7C672.46,-61.28 686.74,-59.76 700.44,-58.3"/>
<polygon fill="midnightblue" stroke="midnightblue" points="701.21,-61.74 710.78,-57.2 700.47,-54.78 701.21,-61.74"/>
</g>
<!-- Node22 -->
<g id="node22" class="node">
<title>Node22</title>
<g id="a_node22"><a xlink:href="classserialib.html#a6a32655c718b998e5b63d8cdc483ac6d" target="_top" xlink:title="Write a string on the current serial port.">
<polygon fill="white" stroke="black" points="893,-41.5 893,-60.5 1005,-60.5 1005,-41.5 893,-41.5"/>
<text text-anchor="middle" x="949" y="-48.5" font-family="Helvetica,sans-Serif" font-size="10.00">serialib::writeString</text>
</a>
</g>
</g>
<!-- Node21&#45;&gt;Node22 -->
<g id="edge28" class="edge">
<title>Node21&#45;&gt;Node22</title>
<path fill="none" stroke="midnightblue" d="M829.45,-51C846.53,-51 865.32,-51 882.8,-51"/>
<polygon fill="midnightblue" stroke="midnightblue" points="882.91,-54.5 892.91,-51 882.91,-47.5 882.91,-54.5"/>
</g>
</g>
</svg>
