<?xml version="1.0" encoding="UTF-8" standalone="no"?>
<!DOCTYPE svg PUBLIC "-//W3C//DTD SVG 1.1//EN"
 "http://www.w3.org/Graphics/SVG/1.1/DTD/svg11.dtd">
<!-- Generated by graphviz version 2.43.0 (0)
 -->
<!-- Title: OPOS6UL_ActionsExtended::lcd2x16 Pages: 1 -->
<!--zoomable 323 -->
<svg id="main" version="1.1" xmlns="http://www.w3.org/2000/svg" xmlns:xlink="http://www.w3.org/1999/xlink" xml:space="preserve" onload="init(evt)">
<style type="text/css"><![CDATA[
.edge:hover path { stroke: red; }
.edge:hover polygon { stroke: red; fill: red; }
]]></style>
<script type="text/javascript"><![CDATA[
var edges = document.getElementsByTagName('g');
if (edges && edges.length) {
  for (var i=0;i<edges.length;i++) {
    if (edges[i].id.substr(0,4)=='edge') {
      edges[i].setAttribute('class','edge');
    }
  }
}
]]></script>
        <defs>
                <circle id="rim" cx="0" cy="0" r="7"/>
                <circle id="rim2" cx="0" cy="0" r="3.5"/>
                <g id="zoomPlus">
                        <use xlink:href="#rim" fill="#404040">
                                <set attributeName="fill" to="#808080" begin="zoomplus.mouseover" end="zoomplus.mouseout"/>
                        </use>
                        <path d="M-4,0h8M0,-4v8" fill="none" stroke="white" stroke-width="1.5" pointer-events="none"/>
                </g>
                <g id="zoomMin">
                        <use xlink:href="#rim" fill="#404040">
                                <set attributeName="fill" to="#808080" begin="zoomminus.mouseover" end="zoomminus.mouseout"/>
                        </use>
                        <path d="M-4,0h8" fill="none" stroke="white" stroke-width="1.5" pointer-events="none"/>
                </g>
                <g id="dirArrow">
                        <path fill="none" stroke="white" stroke-width="1.5" d="M0,-3.0v7 M-2.5,-0.5L0,-3.0L2.5,-0.5"/>
                </g>
               <g id="resetDef">
                       <use xlink:href="#rim2" fill="#404040">
                               <set attributeName="fill" to="#808080" begin="reset.mouseover" end="reset.mouseout"/>
                       </use>
               </g>
        </defs>

<script type="text/javascript">
var viewWidth = 902;
var viewHeight = 323;
var sectionId = 'dynsection-32';
</script>
<script xlink:href="svgpan.js"/>
<svg id="graph" class="graph">
<g id="viewport">
<title>OPOS6UL_ActionsExtended::lcd2x16</title>
<polygon fill="white" stroke="transparent" points="-4,4 -4,-318.5 898,-318.5 898,4 -4,4"/>
<!-- Node1 -->
<g id="node1" class="node">
<title>Node1</title>
<g id="a_node1"><a xlink:title="Cette methode retourne l&#39;objet LcdShield.">
<polygon fill="#bfbfbf" stroke="black" points="745,-90 745,-120 894,-120 894,-90 745,-90"/>
<text text-anchor="start" x="753" y="-108" font-family="Helvetica,sans-Serif" font-size="10.00">OPOS6UL_ActionsExtended</text>
<text text-anchor="middle" x="819.5" y="-97" font-family="Helvetica,sans-Serif" font-size="10.00">::lcd2x16</text>
</a>
</g>
</g>
<!-- Node2 -->
<g id="node2" class="node">
<title>Node2</title>
<g id="a_node2"><a xlink:href="classOPOS6UL__RobotExtended.html#a73821b0ec83f0ebcdccf8c9e999616a0" target="_top" xlink:title="Affiche les points accumulés pendant le match.">
<polygon fill="white" stroke="black" points="567,-191 567,-221 709,-221 709,-191 567,-191"/>
<text text-anchor="start" x="575" y="-209" font-family="Helvetica,sans-Serif" font-size="10.00">OPOS6UL_RobotExtended</text>
<text text-anchor="middle" x="638" y="-198" font-family="Helvetica,sans-Serif" font-size="10.00">::displayPoints</text>
</a>
</g>
</g>
<!-- Node1&#45;&gt;Node2 -->
<g id="edge1" class="edge">
<title>Node1&#45;&gt;Node2</title>
<path fill="none" stroke="midnightblue" d="M788.95,-126.13C767.38,-141.06 737.11,-161 709,-176 698.97,-181.35 687.78,-186.49 677.34,-190.96"/>
<polygon fill="midnightblue" stroke="midnightblue" points="791.15,-128.86 797.35,-120.27 787.14,-123.12 791.15,-128.86"/>
</g>
<!-- Node4 -->
<g id="node4" class="node">
<title>Node4</title>
<g id="a_node4"><a xlink:href="classO__State__Init.html#abc19788b7457d1f819245dd28367fe91" target="_top" xlink:title="Exécute l&#39;état d&#39;initialisation.">
<polygon fill="white" stroke="black" points="400.5,-108.5 400.5,-127.5 520.5,-127.5 520.5,-108.5 400.5,-108.5"/>
<text text-anchor="middle" x="460.5" y="-115.5" font-family="Helvetica,sans-Serif" font-size="10.00">O_State_Init::execute</text>
</a>
</g>
</g>
<!-- Node1&#45;&gt;Node4 -->
<g id="edge10" class="edge">
<title>Node1&#45;&gt;Node4</title>
<path fill="none" stroke="midnightblue" d="M734.63,-108.05C668.93,-110.45 579.17,-113.72 520.77,-115.84"/>
<polygon fill="midnightblue" stroke="midnightblue" points="735.1,-111.54 744.96,-107.68 734.84,-104.54 735.1,-111.54"/>
</g>
<!-- Node5 -->
<g id="node5" class="node">
<title>Node5</title>
<g id="a_node5"><a xlink:href="classO__State__WaitEndOfMatch.html#aa73613440b37c8dd42181e2e0265ae86" target="_top" xlink:title="Exécute l&#39;état d&#39;attente de fin de match.">
<polygon fill="white" stroke="black" points="390,-147 390,-177 531,-177 531,-147 390,-147"/>
<text text-anchor="start" x="398" y="-165" font-family="Helvetica,sans-Serif" font-size="10.00">O_State_WaitEndOfMatch</text>
<text text-anchor="middle" x="460.5" y="-154" font-family="Helvetica,sans-Serif" font-size="10.00">::execute</text>
</a>
</g>
</g>
<!-- Node1&#45;&gt;Node5 -->
<g id="edge11" class="edge">
<title>Node1&#45;&gt;Node5</title>
<path fill="none" stroke="midnightblue" d="M735.06,-121.41C726.27,-123.01 717.46,-124.57 709,-126 649.16,-136.08 580.9,-145.89 531.24,-152.71"/>
<polygon fill="midnightblue" stroke="midnightblue" points="735.76,-124.84 744.96,-119.58 734.49,-117.95 735.76,-124.84"/>
</g>
<!-- Node9 -->
<g id="node9" class="node">
<title>Node9</title>
<g id="a_node9"><a xlink:href="classO__LcdBoardTest.html#a5fe507797dd1ee404d3fd4a0fd6b7885" target="_top" xlink:title="Execute le test.">
<polygon fill="white" stroke="black" points="580,-76.5 580,-95.5 696,-95.5 696,-76.5 580,-76.5"/>
<text text-anchor="middle" x="638" y="-83.5" font-family="Helvetica,sans-Serif" font-size="10.00">O_LcdBoardTest::run</text>
</a>
</g>
</g>
<!-- Node1&#45;&gt;Node9 -->
<g id="edge12" class="edge">
<title>Node1&#45;&gt;Node9</title>
<path fill="none" stroke="midnightblue" d="M734.99,-96.16C721.86,-94.77 708.56,-93.36 696.2,-92.05"/>
<polygon fill="midnightblue" stroke="midnightblue" points="734.66,-99.65 744.97,-97.22 735.4,-92.68 734.66,-99.65"/>
</g>
<!-- Node10 -->
<g id="node10" class="node">
<title>Node10</title>
<g id="a_node10"><a xlink:href="classO__ServoStepTest.html#aefbe5c17504e0782e71a6ca13ed40518" target="_top" xlink:title="Execute le test.">
<polygon fill="white" stroke="black" points="578,-38.5 578,-57.5 698,-57.5 698,-38.5 578,-38.5"/>
<text text-anchor="middle" x="638" y="-45.5" font-family="Helvetica,sans-Serif" font-size="10.00">O_ServoStepTest::run</text>
</a>
</g>
</g>
<!-- Node1&#45;&gt;Node10 -->
<g id="edge13" class="edge">
<title>Node1&#45;&gt;Node10</title>
<path fill="none" stroke="midnightblue" d="M767.74,-86.57C749.33,-80.1 728.31,-72.96 709,-67 698.41,-63.73 686.83,-60.46 676.19,-57.58"/>
<polygon fill="midnightblue" stroke="midnightblue" points="766.79,-89.94 777.38,-89.98 769.12,-83.34 766.79,-89.94"/>
</g>
<!-- Node11 -->
<g id="node11" class="node">
<title>Node11</title>
<g id="a_node11"><a xlink:href="classO__State__Init.html#a1980cd82dcb83e88d61f2e7e14dddfa0" target="_top" xlink:title=" ">
<polygon fill="white" stroke="black" points="581,-0.5 581,-19.5 695,-19.5 695,-0.5 581,-0.5"/>
<text text-anchor="middle" x="638" y="-7.5" font-family="Helvetica,sans-Serif" font-size="10.00">O_State_Init::setPos</text>
</a>
</g>
</g>
<!-- Node1&#45;&gt;Node11 -->
<g id="edge14" class="edge">
<title>Node1&#45;&gt;Node11</title>
<path fill="none" stroke="midnightblue" d="M792.81,-83.36C771.55,-66.42 739.93,-43.4 709,-29 700.9,-25.23 691.9,-22.08 683.14,-19.51"/>
<polygon fill="midnightblue" stroke="midnightblue" points="790.73,-86.18 800.7,-89.75 795.13,-80.73 790.73,-86.18"/>
</g>
<!-- Node3 -->
<g id="node3" class="node">
<title>Node3</title>
<g id="a_node3"><a xlink:href="classO__State__DecisionMakerIA.html#a96d1f2a7618d607fd10cc51b9111e653" target="_top" xlink:title="Execute l&#39;action.">
<polygon fill="white" stroke="black" points="0,-235 0,-265 142,-265 142,-235 0,-235"/>
<text text-anchor="start" x="8" y="-253" font-family="Helvetica,sans-Serif" font-size="10.00">O_State_DecisionMakerIA</text>
<text text-anchor="middle" x="71" y="-242" font-family="Helvetica,sans-Serif" font-size="10.00">::execute</text>
</a>
</g>
</g>
<!-- Node2&#45;&gt;Node3 -->
<g id="edge2" class="edge">
<title>Node2&#45;&gt;Node3</title>
<path fill="none" stroke="midnightblue" d="M556.6,-205.16C464.66,-205.21 309.83,-208.35 178,-226 162.2,-228.12 145.28,-231.45 129.7,-234.97"/>
<polygon fill="midnightblue" stroke="midnightblue" points="556.67,-208.66 566.67,-205.17 556.67,-201.66 556.67,-208.66"/>
</g>
<!-- Node2&#45;&gt;Node4 -->
<g id="edge3" class="edge">
<title>Node2&#45;&gt;Node4</title>
<path fill="none" stroke="midnightblue" d="M608.99,-184.82C588.33,-170.02 559.06,-150.71 531,-138 521.96,-133.91 511.89,-130.44 502.27,-127.59"/>
<polygon fill="midnightblue" stroke="midnightblue" points="607.14,-187.81 617.29,-190.86 611.26,-182.14 607.14,-187.81"/>
</g>
<!-- Node2&#45;&gt;Node5 -->
<g id="edge4" class="edge">
<title>Node2&#45;&gt;Node5</title>
<path fill="none" stroke="midnightblue" d="M567.26,-188.51C552.09,-184.71 536.18,-180.72 521.43,-177.03"/>
<polygon fill="midnightblue" stroke="midnightblue" points="566.54,-191.94 577.09,-190.98 568.25,-185.15 566.54,-191.94"/>
</g>
<!-- Node6 -->
<g id="node6" class="node">
<title>Node6</title>
<g id="a_node6"><a xlink:href="O__State__DecisionMakerIA_8cpp.html#a6af4b40e5e676265dd688e0004be0ff6" target="_top" xlink:title="Action de fin de match : rejoint la zone de fin en haut de table.">
<polygon fill="white" stroke="black" points="401,-240.5 401,-259.5 520,-259.5 520,-240.5 401,-240.5"/>
<text text-anchor="middle" x="460.5" y="-247.5" font-family="Helvetica,sans-Serif" font-size="10.00">O_end_of_match_top</text>
</a>
</g>
</g>
<!-- Node2&#45;&gt;Node6 -->
<g id="edge5" class="edge">
<title>Node2&#45;&gt;Node6</title>
<path fill="none" stroke="midnightblue" d="M567.3,-223.47C544.16,-229.28 519.27,-235.52 499.44,-240.49"/>
<polygon fill="midnightblue" stroke="midnightblue" points="568.25,-226.85 577.09,-221.02 566.54,-220.06 568.25,-226.85"/>
</g>
<!-- Node7 -->
<g id="node7" class="node">
<title>Node7</title>
<g id="a_node7"><a xlink:href="classO__State__DecisionMakerIA.html#a9b35f6bac1a5602ec2a711fa280be4a6" target="_top" xlink:title="Configure les activités pour les zones de jeu du match.">
<polygon fill="white" stroke="black" points="195,-235 195,-265 337,-265 337,-235 195,-235"/>
<text text-anchor="start" x="203" y="-253" font-family="Helvetica,sans-Serif" font-size="10.00">O_State_DecisionMakerIA</text>
<text text-anchor="middle" x="266" y="-242" font-family="Helvetica,sans-Serif" font-size="10.00">::IASetupActivitiesZone</text>
</a>
</g>
</g>
<!-- Node6&#45;&gt;Node7 -->
<g id="edge6" class="edge">
<title>Node6&#45;&gt;Node7</title>
<path fill="none" stroke="midnightblue" d="M390.86,-250C373.41,-250 354.64,-250 337.12,-250"/>
<polygon fill="midnightblue" stroke="midnightblue" points="390.96,-253.5 400.96,-250 390.96,-246.5 390.96,-253.5"/>
</g>
<!-- Node8 -->
<g id="node8" class="node">
<title>Node8</title>
<g id="a_node8"><a xlink:href="classO__State__DecisionMakerIA.html#a8bd1c4d72bec8768c7c7c15bd2e665d8" target="_top" xlink:title="Configure les activités pour le mode test de la table.">
<polygon fill="white" stroke="black" points="178,-284 178,-314 354,-314 354,-284 178,-284"/>
<text text-anchor="start" x="186" y="-302" font-family="Helvetica,sans-Serif" font-size="10.00">O_State_DecisionMakerIA</text>
<text text-anchor="middle" x="266" y="-291" font-family="Helvetica,sans-Serif" font-size="10.00">::IASetupActivitiesZoneTableTest</text>
</a>
</g>
</g>
<!-- Node6&#45;&gt;Node8 -->
<g id="edge8" class="edge">
<title>Node6&#45;&gt;Node8</title>
<path fill="none" stroke="midnightblue" d="M411.96,-262.1C386,-268.71 353.64,-276.95 326.07,-283.96"/>
<polygon fill="midnightblue" stroke="midnightblue" points="413.1,-265.42 421.93,-259.56 411.37,-258.64 413.1,-265.42"/>
</g>
<!-- Node7&#45;&gt;Node3 -->
<g id="edge7" class="edge">
<title>Node7&#45;&gt;Node3</title>
<path fill="none" stroke="midnightblue" d="M184.62,-250C170.52,-250 155.96,-250 142.17,-250"/>
<polygon fill="midnightblue" stroke="midnightblue" points="184.78,-253.5 194.78,-250 184.78,-246.5 184.78,-253.5"/>
</g>
<!-- Node8&#45;&gt;Node3 -->
<g id="edge9" class="edge">
<title>Node8&#45;&gt;Node3</title>
<path fill="none" stroke="midnightblue" d="M195.88,-281.45C174.68,-276.07 151.57,-270.2 131.11,-265.01"/>
<polygon fill="midnightblue" stroke="midnightblue" points="195.23,-284.9 205.78,-283.97 196.95,-278.11 195.23,-284.9"/>
</g>
<!-- Node11&#45;&gt;Node4 -->
<g id="edge15" class="edge">
<title>Node11&#45;&gt;Node4</title>
<path fill="none" stroke="midnightblue" d="M580.61,-22.95C575.9,-24.74 571.3,-26.74 567,-29 526.04,-50.48 486.88,-90.16 470.08,-108.38"/>
<polygon fill="midnightblue" stroke="midnightblue" points="582.03,-26.16 590.35,-19.6 579.76,-19.54 582.03,-26.16"/>
</g>
</g>
</svg>
        <g id="navigator" transform="translate(0 0)" fill="#404254">
                <rect fill="#f2f5e9" fill-opacity="0.5" stroke="#606060" stroke-width=".5" x="0" y="0" width="60" height="60"/>
                <use id="zoomplus" xlink:href="#zoomPlus" x="17" y="9" onmousedown="handleZoom(evt,'in')"/>
                <use id="zoomminus" xlink:href="#zoomMin" x="42" y="9" onmousedown="handleZoom(evt,'out')"/>
                <use id="reset" xlink:href="#resetDef" x="30" y="36" onmousedown="handleReset()"/>
                <g id="arrowUp" xlink:href="#dirArrow" transform="translate(30 24)" onmousedown="handlePan(0,-1)">
                  <use xlink:href="#rim" fill="#404040">
                        <set attributeName="fill" to="#808080" begin="arrowUp.mouseover" end="arrowUp.mouseout"/>
                  </use>
                  <path fill="none" stroke="white" stroke-width="1.5" d="M0,-3.0v7 M-2.5,-0.5L0,-3.0L2.5,-0.5"/>
                </g>
                <g id="arrowRight" xlink:href="#dirArrow" transform="rotate(90) translate(36 -43)" onmousedown="handlePan(1,0)">
                  <use xlink:href="#rim" fill="#404040">
                        <set attributeName="fill" to="#808080" begin="arrowRight.mouseover" end="arrowRight.mouseout"/>
                  </use>
                  <path fill="none" stroke="white" stroke-width="1.5" d="M0,-3.0v7 M-2.5,-0.5L0,-3.0L2.5,-0.5"/>
                </g>
                <g id="arrowDown" xlink:href="#dirArrow" transform="rotate(180) translate(-30 -48)" onmousedown="handlePan(0,1)">
                  <use xlink:href="#rim" fill="#404040">
                        <set attributeName="fill" to="#808080" begin="arrowDown.mouseover" end="arrowDown.mouseout"/>
                  </use>
                  <path fill="none" stroke="white" stroke-width="1.5" d="M0,-3.0v7 M-2.5,-0.5L0,-3.0L2.5,-0.5"/>
                </g>
                <g id="arrowLeft" xlink:href="#dirArrow" transform="rotate(270) translate(-36 17)" onmousedown="handlePan(-1,0)">
                  <use xlink:href="#rim" fill="#404040">
                        <set attributeName="fill" to="#808080" begin="arrowLeft.mouseover" end="arrowLeft.mouseout"/>
                  </use>
                  <path fill="none" stroke="white" stroke-width="1.5" d="M0,-3.0v7 M-2.5,-0.5L0,-3.0L2.5,-0.5"/>
                </g>
        </g>
        <svg viewBox="0 0 15 15" width="100%" height="30px" preserveAspectRatio="xMaxYMin meet">
         <g id="arrow_out" transform="scale(0.3 0.3)">
          <a xlink:href="classOPOS6UL__ActionsExtended_a92c4b04808832f55fa7b68a9678307b1_icgraph_org.svg" target="_base">
           <rect id="button" ry="5" rx="5" y="6" x="6" height="38" width="38"
                fill="#f2f5e9" fill-opacity="0.5" stroke="#606060" stroke-width="1.0"/>
           <path id="arrow"
             d="M 11.500037,31.436501 C 11.940474,20.09759 22.043105,11.32322 32.158766,21.979434 L 37.068811,17.246167 C 37.068811,17.246167 37.088388,32 37.088388,32 L 22.160133,31.978069 C 22.160133,31.978069 26.997745,27.140456 26.997745,27.140456 C 18.528582,18.264221 13.291696,25.230495 11.500037,31.436501 z"
             style="fill:#404040;"/>
          </a>
         </g>
        </svg>
</svg>
