<?xml version="1.0" encoding="UTF-8" standalone="no"?>
<!DOCTYPE svg PUBLIC "-//W3C//DTD SVG 1.1//EN"
 "http://www.w3.org/Graphics/SVG/1.1/DTD/svg11.dtd">
<!-- Generated by graphviz version 2.43.0 (0)
 -->
<!-- Title: ButtonDriver::pressed Pages: 1 -->
<!--zoomable 299 -->
<svg id="main" version="1.1" xmlns="http://www.w3.org/2000/svg" xmlns:xlink="http://www.w3.org/1999/xlink" xml:space="preserve" onload="init(evt)">
<style type="text/css"><![CDATA[
.edge:hover path { stroke: red; }
.edge:hover polygon { stroke: red; fill: red; }
]]></style>
<script type="text/javascript"><![CDATA[
var edges = document.getElementsByTagName('g');
if (edges && edges.length) {
  for (var i=0;i<edges.length;i++) {
    if (edges[i].id.substr(0,4)=='edge') {
      edges[i].setAttribute('class','edge');
    }
  }
}
]]></script>
        <defs>
                <circle id="rim" cx="0" cy="0" r="7"/>
                <circle id="rim2" cx="0" cy="0" r="3.5"/>
                <g id="zoomPlus">
                        <use xlink:href="#rim" fill="#404040">
                                <set attributeName="fill" to="#808080" begin="zoomplus.mouseover" end="zoomplus.mouseout"/>
                        </use>
                        <path d="M-4,0h8M0,-4v8" fill="none" stroke="white" stroke-width="1.5" pointer-events="none"/>
                </g>
                <g id="zoomMin">
                        <use xlink:href="#rim" fill="#404040">
                                <set attributeName="fill" to="#808080" begin="zoomminus.mouseover" end="zoomminus.mouseout"/>
                        </use>
                        <path d="M-4,0h8" fill="none" stroke="white" stroke-width="1.5" pointer-events="none"/>
                </g>
                <g id="dirArrow">
                        <path fill="none" stroke="white" stroke-width="1.5" d="M0,-3.0v7 M-2.5,-0.5L0,-3.0L2.5,-0.5"/>
                </g>
               <g id="resetDef">
                       <use xlink:href="#rim2" fill="#404040">
                               <set attributeName="fill" to="#808080" begin="reset.mouseover" end="reset.mouseout"/>
                       </use>
               </g>
        </defs>

<script type="text/javascript">
var viewWidth = 855;
var viewHeight = 299;
var sectionId = 'dynsection-5';
</script>
<script xlink:href="svgpan.js"/>
<svg id="graph" class="graph">
<g id="viewport">
<title>ButtonDriver::pressed</title>
<polygon fill="white" stroke="transparent" points="-4,4 -4,-294.58 851,-294.58 851,4 -4,4"/>
<!-- Node1 -->
<g id="node1" class="node">
<title>Node1</title>
<g id="a_node1"><a xlink:title="Teste si un bouton est actuellement appuye.">
<polygon fill="#bfbfbf" stroke="black" points="0,-194.58 0,-213.58 123,-213.58 123,-194.58 0,-194.58"/>
<text text-anchor="middle" x="61.5" y="-201.58" font-family="Helvetica,sans-Serif" font-size="10.00">ButtonDriver::pressed</text>
</a>
</g>
</g>
<!-- Node2 -->
<g id="node2" class="node">
<title>Node2</title>
<g id="a_node2"><a xlink:href="classAdafruit__RGBLCDShield.html#a5d6b24992e72f3beb5187b971eec3d42" target="_top" xlink:title=" ">
<polygon fill="white" stroke="black" points="511.5,-260.08 511.5,-290.08 642.5,-290.08 642.5,-260.08 511.5,-260.08"/>
<text text-anchor="start" x="519.5" y="-278.08" font-family="Helvetica,sans-Serif" font-size="10.00">Adafruit_RGBLCDShield</text>
<text text-anchor="middle" x="577" y="-267.08" font-family="Helvetica,sans-Serif" font-size="10.00">::instance</text>
</a>
</g>
</g>
<!-- Node1&#45;&gt;Node2 -->
<g id="edge1" class="edge">
<title>Node1&#45;&gt;Node2</title>
<path fill="none" stroke="midnightblue" d="M109.44,-213.63C162,-224.05 249.81,-240.64 326,-251.08 384.7,-259.11 451.53,-265.38 501.31,-269.49"/>
<polygon fill="midnightblue" stroke="midnightblue" points="501.09,-272.99 511.35,-270.31 501.66,-266.01 501.09,-272.99"/>
</g>
<!-- Node3 -->
<g id="node3" class="node">
<title>Node3</title>
<g id="a_node3"><a xlink:href="classAdafruit__RGBLCDShield.html#a90c08e0c5f8ca05d0313b5c9dbde759c" target="_top" xlink:title=" ">
<polygon fill="white" stroke="black" points="159,-123.08 159,-153.08 290,-153.08 290,-123.08 159,-123.08"/>
<text text-anchor="start" x="167" y="-141.08" font-family="Helvetica,sans-Serif" font-size="10.00">Adafruit_RGBLCDShield</text>
<text text-anchor="middle" x="224.5" y="-130.08" font-family="Helvetica,sans-Serif" font-size="10.00">::readButtons</text>
</a>
</g>
</g>
<!-- Node1&#45;&gt;Node3 -->
<g id="edge2" class="edge">
<title>Node1&#45;&gt;Node3</title>
<path fill="none" stroke="midnightblue" d="M85.91,-194.48C109.76,-184.7 147.37,-169.28 177.25,-157.04"/>
<polygon fill="midnightblue" stroke="midnightblue" points="178.72,-160.21 186.65,-153.18 176.07,-153.74 178.72,-160.21"/>
</g>
<!-- Node4 -->
<g id="node4" class="node">
<title>Node4</title>
<g id="a_node4"><a xlink:href="classlogs_1_1Logger.html#a7dffc8f610014ec59b63392da16140e4" target="_top" xlink:title="Trace un message de niveau DEBUG.">
<polygon fill="white" stroke="black" points="335.5,-46.58 335.5,-65.58 447.5,-65.58 447.5,-46.58 335.5,-46.58"/>
<text text-anchor="middle" x="391.5" y="-53.58" font-family="Helvetica,sans-Serif" font-size="10.00">logs::Logger::debug</text>
</a>
</g>
</g>
<!-- Node3&#45;&gt;Node4 -->
<g id="edge3" class="edge">
<title>Node3&#45;&gt;Node4</title>
<path fill="none" stroke="midnightblue" d="M245.74,-123.05C265.4,-109.04 296.52,-88.35 326,-75.08 331.06,-72.8 336.46,-70.71 341.9,-68.82"/>
<polygon fill="midnightblue" stroke="midnightblue" points="343.25,-72.06 351.68,-65.64 341.08,-65.41 343.25,-72.06"/>
</g>
<!-- Node6 -->
<g id="node6" class="node">
<title>Node6</title>
<g id="a_node6"><a xlink:href="classAdafruit__MCP23017.html#a00ee81c07e06502330b5e5a27372ac53" target="_top" xlink:title=" ">
<polygon fill="white" stroke="black" points="332,-123.08 332,-153.08 451,-153.08 451,-123.08 332,-123.08"/>
<text text-anchor="start" x="340" y="-141.08" font-family="Helvetica,sans-Serif" font-size="10.00">Adafruit_MCP23017::</text>
<text text-anchor="middle" x="391.5" y="-130.08" font-family="Helvetica,sans-Serif" font-size="10.00">digitalRead</text>
</a>
</g>
</g>
<!-- Node3&#45;&gt;Node6 -->
<g id="edge5" class="edge">
<title>Node3&#45;&gt;Node6</title>
<path fill="none" stroke="midnightblue" d="M290.24,-138.08C300.53,-138.08 311.21,-138.08 321.59,-138.08"/>
<polygon fill="midnightblue" stroke="midnightblue" points="321.86,-141.58 331.86,-138.08 321.86,-134.58 321.86,-141.58"/>
</g>
<!-- Node8 -->
<g id="node8" class="node">
<title>Node8</title>
<g id="a_node8"><a xlink:href="namespacelogs.html#ac6f325c6cfe6189bc8e243daa184453b" target="_top" xlink:title="Cette méthode permet de finir les flux de construction par la notation.">
<polygon fill="white" stroke="black" points="361,-84.58 361,-103.58 422,-103.58 422,-84.58 361,-84.58"/>
<text text-anchor="middle" x="391.5" y="-91.58" font-family="Helvetica,sans-Serif" font-size="10.00">logs::end</text>
</a>
</g>
</g>
<!-- Node3&#45;&gt;Node8 -->
<g id="edge7" class="edge">
<title>Node3&#45;&gt;Node8</title>
<path fill="none" stroke="midnightblue" d="M281.82,-123.06C304.61,-116.98 330.36,-110.11 351.08,-104.59"/>
<polygon fill="midnightblue" stroke="midnightblue" points="352.05,-107.95 360.81,-101.99 350.25,-101.19 352.05,-107.95"/>
</g>
<!-- Node10 -->
<g id="node10" class="node">
<title>Node10</title>
<g id="a_node10"><a xlink:href="classutils_1_1Mutex.html#aa584b418a5ef484f76b93e361a1d7e32" target="_top" xlink:title="Verrouille le mutex. Cette méthode doit être appelée avant d&#39;utiliser la ressource associée....">
<polygon fill="white" stroke="black" points="721.5,-18.58 721.5,-37.58 822.5,-37.58 822.5,-18.58 721.5,-18.58"/>
<text text-anchor="middle" x="772" y="-25.58" font-family="Helvetica,sans-Serif" font-size="10.00">utils::Mutex::lock</text>
</a>
</g>
</g>
<!-- Node3&#45;&gt;Node10 -->
<g id="edge12" class="edge">
<title>Node3&#45;&gt;Node10</title>
<path fill="none" stroke="midnightblue" d="M234.95,-122.85C250.54,-99.32 284.15,-54.97 326,-37.08 457.22,19.03 630.72,-1.13 717.19,-16.72"/>
<polygon fill="midnightblue" stroke="midnightblue" points="716.58,-20.17 727.05,-18.54 717.85,-13.28 716.58,-20.17"/>
</g>
<!-- Node11 -->
<g id="node11" class="node">
<title>Node11</title>
<g id="a_node11"><a xlink:href="classutils_1_1Mutex.html#a59b2079dc7f803d49f78ac9c04406cd3" target="_top" xlink:title="Déverrouille le mutex. Cette méthode doit être appelée après avoir utiliser la ressource associée.">
<polygon fill="white" stroke="black" points="715.5,-116.58 715.5,-135.58 828.5,-135.58 828.5,-116.58 715.5,-116.58"/>
<text text-anchor="middle" x="772" y="-123.58" font-family="Helvetica,sans-Serif" font-size="10.00">utils::Mutex::unlock</text>
</a>
</g>
</g>
<!-- Node3&#45;&gt;Node11 -->
<g id="edge19" class="edge">
<title>Node3&#45;&gt;Node11</title>
<path fill="none" stroke="midnightblue" d="M275.66,-153.1C291.6,-157.19 309.4,-161.04 326,-163.08 473.78,-181.18 514.07,-187.12 661,-163.08 688.59,-158.56 718.59,-148.07 740.27,-139.41"/>
<polygon fill="midnightblue" stroke="midnightblue" points="741.69,-142.61 749.62,-135.59 739.04,-136.13 741.69,-142.61"/>
</g>
<!-- Node12 -->
<g id="node12" class="node">
<title>Node12</title>
<g id="a_node12"><a xlink:href="classAdafruit__RGBLCDShield.html#a93313ba4a8e5e896f400006672ff4317" target="_top" xlink:title=" ">
<polygon fill="white" stroke="black" points="326,-211.08 326,-241.08 457,-241.08 457,-211.08 326,-211.08"/>
<text text-anchor="start" x="334" y="-229.08" font-family="Helvetica,sans-Serif" font-size="10.00">Adafruit_RGBLCDShield</text>
<text text-anchor="middle" x="391.5" y="-218.08" font-family="Helvetica,sans-Serif" font-size="10.00">::logger</text>
</a>
</g>
</g>
<!-- Node3&#45;&gt;Node12 -->
<g id="edge13" class="edge">
<title>Node3&#45;&gt;Node12</title>
<path fill="none" stroke="midnightblue" d="M250.35,-153.24C270.49,-165.32 299.72,-182.42 326,-196.08 332.93,-199.68 340.38,-203.34 347.66,-206.8"/>
<polygon fill="midnightblue" stroke="midnightblue" points="346.21,-209.98 356.75,-211.06 349.18,-203.64 346.21,-209.98"/>
</g>
<!-- Node5 -->
<g id="node5" class="node">
<title>Node5</title>
<g id="a_node5"><a xlink:href="classlogs_1_1Logger.html#afa535aaf4891e02c4ff7f84d372b5b1b" target="_top" xlink:title="Méthode générique de trace d&#39;un message.">
<polygon fill="white" stroke="black" points="697,-65.58 697,-84.58 847,-84.58 847,-65.58 697,-65.58"/>
<text text-anchor="middle" x="772" y="-72.58" font-family="Helvetica,sans-Serif" font-size="10.00">logs::Logger::writeMessage</text>
</a>
</g>
</g>
<!-- Node4&#45;&gt;Node5 -->
<g id="edge4" class="edge">
<title>Node4&#45;&gt;Node5</title>
<path fill="none" stroke="midnightblue" d="M447.54,-58.84C510.3,-61.99 613.63,-67.18 686.59,-70.84"/>
<polygon fill="midnightblue" stroke="midnightblue" points="686.51,-74.34 696.68,-71.34 686.86,-67.35 686.51,-74.34"/>
</g>
<!-- Node7 -->
<g id="node7" class="node">
<title>Node7</title>
<g id="a_node7"><a xlink:href="classAdafruit__MCP23017.html#a5935341a99356efaf41556b5ee78cd5a" target="_top" xlink:title=" ">
<polygon fill="white" stroke="black" points="517.5,-123.08 517.5,-153.08 636.5,-153.08 636.5,-123.08 517.5,-123.08"/>
<text text-anchor="start" x="525.5" y="-141.08" font-family="Helvetica,sans-Serif" font-size="10.00">Adafruit_MCP23017::</text>
<text text-anchor="middle" x="577" y="-130.08" font-family="Helvetica,sans-Serif" font-size="10.00">read_i2c</text>
</a>
</g>
</g>
<!-- Node6&#45;&gt;Node7 -->
<g id="edge6" class="edge">
<title>Node6&#45;&gt;Node7</title>
<path fill="none" stroke="midnightblue" d="M451.07,-138.08C468.94,-138.08 488.76,-138.08 507.25,-138.08"/>
<polygon fill="midnightblue" stroke="midnightblue" points="507.36,-141.58 517.36,-138.08 507.36,-134.58 507.36,-141.58"/>
</g>
<!-- Node9 -->
<g id="node9" class="node">
<title>Node9</title>
<g id="a_node9"><a xlink:href="classlogs_1_1Logger_1_1LoggerBuffer.html#a0e4fd77693fd899ec1b0670354f93a02" target="_top" xlink:title="Cette méthode valide le message en cours de construction et le transmet au Logger de référence.">
<polygon fill="white" stroke="black" points="493,-84.58 493,-103.58 661,-103.58 661,-84.58 493,-84.58"/>
<text text-anchor="middle" x="577" y="-91.58" font-family="Helvetica,sans-Serif" font-size="10.00">logs::Logger::LoggerBuffer::end</text>
</a>
</g>
</g>
<!-- Node8&#45;&gt;Node9 -->
<g id="edge8" class="edge">
<title>Node8&#45;&gt;Node9</title>
<path fill="none" stroke="midnightblue" d="M422.39,-94.08C439.04,-94.08 460.76,-94.08 482.62,-94.08"/>
<polygon fill="midnightblue" stroke="midnightblue" points="482.65,-97.58 492.65,-94.08 482.65,-90.58 482.65,-97.58"/>
</g>
<!-- Node9&#45;&gt;Node5 -->
<g id="edge11" class="edge">
<title>Node9&#45;&gt;Node5</title>
<path fill="none" stroke="midnightblue" d="M661.25,-85.88C669.66,-85.05 678.21,-84.21 686.64,-83.38"/>
<polygon fill="midnightblue" stroke="midnightblue" points="687.23,-86.84 696.84,-82.38 686.54,-79.87 687.23,-86.84"/>
</g>
<!-- Node9&#45;&gt;Node10 -->
<g id="edge9" class="edge">
<title>Node9&#45;&gt;Node10</title>
<path fill="none" stroke="midnightblue" d="M606.06,-84.48C639.75,-72.96 696.36,-53.6 733.7,-40.83"/>
<polygon fill="midnightblue" stroke="midnightblue" points="734.89,-44.12 743.22,-37.58 732.62,-37.5 734.89,-44.12"/>
</g>
<!-- Node9&#45;&gt;Node11 -->
<g id="edge10" class="edge">
<title>Node9&#45;&gt;Node11</title>
<path fill="none" stroke="midnightblue" d="M635.38,-103.59C657.45,-107.25 682.81,-111.45 705.58,-115.23"/>
<polygon fill="midnightblue" stroke="midnightblue" points="705.06,-118.69 715.5,-116.87 706.2,-111.78 705.06,-118.69"/>
</g>
<!-- Node12&#45;&gt;Node2 -->
<g id="edge14" class="edge">
<title>Node12&#45;&gt;Node2</title>
<path fill="none" stroke="midnightblue" d="M448.8,-241.11C468.18,-246.28 490.05,-252.12 510.11,-257.48"/>
<polygon fill="midnightblue" stroke="midnightblue" points="509.24,-260.87 519.8,-260.07 511.04,-254.11 509.24,-260.87"/>
</g>
<!-- Node13 -->
<g id="node13" class="node">
<title>Node13</title>
<g id="a_node13"><a xlink:href="classlogs_1_1LoggerFactory.html#a82585b5de73e471e06cafdccc3b3721e" target="_top" xlink:title="Cette méthode statique retourne un Logger en fonction de son nom.">
<polygon fill="white" stroke="black" points="521.5,-211.08 521.5,-241.08 632.5,-241.08 632.5,-211.08 521.5,-211.08"/>
<text text-anchor="start" x="529.5" y="-229.08" font-family="Helvetica,sans-Serif" font-size="10.00">logs::LoggerFactory</text>
<text text-anchor="middle" x="577" y="-218.08" font-family="Helvetica,sans-Serif" font-size="10.00">::logger</text>
</a>
</g>
</g>
<!-- Node12&#45;&gt;Node13 -->
<g id="edge15" class="edge">
<title>Node12&#45;&gt;Node13</title>
<path fill="none" stroke="midnightblue" d="M457.2,-226.08C474.71,-226.08 493.66,-226.08 511.18,-226.08"/>
<polygon fill="midnightblue" stroke="midnightblue" points="511.3,-229.58 521.3,-226.08 511.3,-222.58 511.3,-229.58"/>
</g>
<!-- Node14 -->
<g id="node14" class="node">
<title>Node14</title>
<g id="a_node14"><a xlink:href="classlogs_1_1LoggerFactory.html#ac89f19c0ffd71aa8cdc1c2d44c03809e" target="_top" xlink:title="Cette méthode ajoute un appender au système.">
<polygon fill="white" stroke="black" points="705,-216.58 705,-235.58 839,-235.58 839,-216.58 705,-216.58"/>
<text text-anchor="middle" x="772" y="-223.58" font-family="Helvetica,sans-Serif" font-size="10.00">logs::LoggerFactory::add</text>
</a>
</g>
</g>
<!-- Node13&#45;&gt;Node14 -->
<g id="edge16" class="edge">
<title>Node13&#45;&gt;Node14</title>
<path fill="none" stroke="midnightblue" d="M632.53,-226.08C651.88,-226.08 674.03,-226.08 694.85,-226.08"/>
<polygon fill="midnightblue" stroke="midnightblue" points="694.95,-229.58 704.95,-226.08 694.95,-222.58 694.95,-229.58"/>
</g>
<!-- Node15 -->
<g id="node15" class="node">
<title>Node15</title>
<g id="a_node15"><a xlink:href="classlogs_1_1LoggerFactory.html#a90478b91d7af2ef8841ded21e3521f69" target="_top" xlink:title="Cette méthode statique retourne l&#39;instance unique de la classe LoggerFactory.">
<polygon fill="white" stroke="black" points="716.5,-167.08 716.5,-197.08 827.5,-197.08 827.5,-167.08 716.5,-167.08"/>
<text text-anchor="start" x="724.5" y="-185.08" font-family="Helvetica,sans-Serif" font-size="10.00">logs::LoggerFactory</text>
<text text-anchor="middle" x="772" y="-174.08" font-family="Helvetica,sans-Serif" font-size="10.00">::instance</text>
</a>
</g>
</g>
<!-- Node13&#45;&gt;Node15 -->
<g id="edge17" class="edge">
<title>Node13&#45;&gt;Node15</title>
<path fill="none" stroke="midnightblue" d="M632.53,-213.64C655.45,-208.42 682.3,-202.3 706.22,-196.84"/>
<polygon fill="midnightblue" stroke="midnightblue" points="707.3,-200.19 716.27,-194.55 705.74,-193.36 707.3,-200.19"/>
</g>
<!-- Node16 -->
<g id="node16" class="node">
<title>Node16</title>
<g id="a_node16"><a xlink:href="classlogs_1_1LoggerFactory.html#a212aa623f4b6bee12cb39e8017dde670" target="_top" xlink:title="Cette méthode retourne le Logger principal qui définit le niveau de trace par défaut.">
<polygon fill="white" stroke="black" points="716.5,-255.08 716.5,-285.08 827.5,-285.08 827.5,-255.08 716.5,-255.08"/>
<text text-anchor="start" x="724.5" y="-273.08" font-family="Helvetica,sans-Serif" font-size="10.00">logs::LoggerFactory</text>
<text text-anchor="middle" x="772" y="-262.08" font-family="Helvetica,sans-Serif" font-size="10.00">::rootLogger</text>
</a>
</g>
</g>
<!-- Node13&#45;&gt;Node16 -->
<g id="edge18" class="edge">
<title>Node13&#45;&gt;Node16</title>
<path fill="none" stroke="midnightblue" d="M632.53,-238.51C655.45,-243.73 682.3,-249.85 706.22,-255.31"/>
<polygon fill="midnightblue" stroke="midnightblue" points="705.74,-258.79 716.27,-257.6 707.3,-251.96 705.74,-258.79"/>
</g>
</g>
</svg>
        <g id="navigator" transform="translate(0 0)" fill="#404254">
                <rect fill="#f2f5e9" fill-opacity="0.5" stroke="#606060" stroke-width=".5" x="0" y="0" width="60" height="60"/>
                <use id="zoomplus" xlink:href="#zoomPlus" x="17" y="9" onmousedown="handleZoom(evt,'in')"/>
                <use id="zoomminus" xlink:href="#zoomMin" x="42" y="9" onmousedown="handleZoom(evt,'out')"/>
                <use id="reset" xlink:href="#resetDef" x="30" y="36" onmousedown="handleReset()"/>
                <g id="arrowUp" xlink:href="#dirArrow" transform="translate(30 24)" onmousedown="handlePan(0,-1)">
                  <use xlink:href="#rim" fill="#404040">
                        <set attributeName="fill" to="#808080" begin="arrowUp.mouseover" end="arrowUp.mouseout"/>
                  </use>
                  <path fill="none" stroke="white" stroke-width="1.5" d="M0,-3.0v7 M-2.5,-0.5L0,-3.0L2.5,-0.5"/>
                </g>
                <g id="arrowRight" xlink:href="#dirArrow" transform="rotate(90) translate(36 -43)" onmousedown="handlePan(1,0)">
                  <use xlink:href="#rim" fill="#404040">
                        <set attributeName="fill" to="#808080" begin="arrowRight.mouseover" end="arrowRight.mouseout"/>
                  </use>
                  <path fill="none" stroke="white" stroke-width="1.5" d="M0,-3.0v7 M-2.5,-0.5L0,-3.0L2.5,-0.5"/>
                </g>
                <g id="arrowDown" xlink:href="#dirArrow" transform="rotate(180) translate(-30 -48)" onmousedown="handlePan(0,1)">
                  <use xlink:href="#rim" fill="#404040">
                        <set attributeName="fill" to="#808080" begin="arrowDown.mouseover" end="arrowDown.mouseout"/>
                  </use>
                  <path fill="none" stroke="white" stroke-width="1.5" d="M0,-3.0v7 M-2.5,-0.5L0,-3.0L2.5,-0.5"/>
                </g>
                <g id="arrowLeft" xlink:href="#dirArrow" transform="rotate(270) translate(-36 17)" onmousedown="handlePan(-1,0)">
                  <use xlink:href="#rim" fill="#404040">
                        <set attributeName="fill" to="#808080" begin="arrowLeft.mouseover" end="arrowLeft.mouseout"/>
                  </use>
                  <path fill="none" stroke="white" stroke-width="1.5" d="M0,-3.0v7 M-2.5,-0.5L0,-3.0L2.5,-0.5"/>
                </g>
        </g>
        <svg viewBox="0 0 15 15" width="100%" height="30px" preserveAspectRatio="xMaxYMin meet">
         <g id="arrow_out" transform="scale(0.3 0.3)">
          <a xlink:href="classButtonDriver_acc197da87cfbc9bee896ad284bbeedbe_cgraph_org.svg" target="_base">
           <rect id="button" ry="5" rx="5" y="6" x="6" height="38" width="38"
                fill="#f2f5e9" fill-opacity="0.5" stroke="#606060" stroke-width="1.0"/>
           <path id="arrow"
             d="M 11.500037,31.436501 C 11.940474,20.09759 22.043105,11.32322 32.158766,21.979434 L 37.068811,17.246167 C 37.068811,17.246167 37.088388,32 37.088388,32 L 22.160133,31.978069 C 22.160133,31.978069 26.997745,27.140456 26.997745,27.140456 C 18.528582,18.264221 13.291696,25.230495 11.500037,31.436501 z"
             style="fill:#404040;"/>
          </a>
         </g>
        </svg>
</svg>
