<?xml version="1.0" encoding="UTF-8" standalone="no"?>
<!DOCTYPE svg PUBLIC "-//W3C//DTD SVG 1.1//EN"
 "http://www.w3.org/Graphics/SVG/1.1/DTD/svg11.dtd">
<!-- Generated by graphviz version 2.43.0 (0)
 -->
<!-- Title: AButtonDriver::create Pages: 1 -->
<svg width="326pt" height="78pt"
 viewBox="0.00 0.00 326.00 77.50" xmlns="http://www.w3.org/2000/svg" xmlns:xlink="http://www.w3.org/1999/xlink">
<g id="graph0" class="graph" transform="scale(1 1) rotate(0) translate(4 73.5)">
<title>AButtonDriver::create</title>
<polygon fill="white" stroke="transparent" points="-4,4 -4,-73.5 322,-73.5 322,4 -4,4"/>
<!-- Node1 -->
<g id="node1" class="node">
<title>Node1</title>
<g id="a_node1"><a xlink:title="Cree l&#39;instance concrete selon la plateforme.">
<polygon fill="#bfbfbf" stroke="black" points="196,-28 196,-47 318,-47 318,-28 196,-28"/>
<text text-anchor="middle" x="257" y="-35" font-family="Helvetica,sans-Serif" font-size="10.00">AButtonDriver::create</text>
</a>
</g>
</g>
<!-- Node2 -->
<g id="node2" class="node">
<title>Node2</title>
<g id="a_node2"><a xlink:href="classButtonBar.html#ac31cdb334e7f153595479d4e8c7a44ab" target="_top" xlink:title="Constructor.">
<polygon fill="white" stroke="black" points="20,-50 20,-69 140,-69 140,-50 20,-50"/>
<text text-anchor="middle" x="80" y="-57" font-family="Helvetica,sans-Serif" font-size="10.00">ButtonBar::ButtonBar</text>
</a>
</g>
</g>
<!-- Node1&#45;&gt;Node2 -->
<g id="edge1" class="edge">
<title>Node1&#45;&gt;Node2</title>
<path fill="none" stroke="midnightblue" d="M185.5,-46.36C170.45,-48.25 154.72,-50.23 140.15,-52.06"/>
<polygon fill="midnightblue" stroke="midnightblue" points="186.29,-49.79 195.77,-45.07 185.42,-42.85 186.29,-49.79"/>
</g>
<!-- Node3 -->
<g id="node3" class="node">
<title>Node3</title>
<g id="a_node3"><a xlink:href="classtest_1_1ButtonDriverManualTest.html#a4de10942fce4aa4ce298088df532e73e" target="_top" xlink:title=" ">
<polygon fill="white" stroke="black" points="0,-0.5 0,-30.5 160,-30.5 160,-0.5 0,-0.5"/>
<text text-anchor="start" x="8" y="-18.5" font-family="Helvetica,sans-Serif" font-size="10.00">test::ButtonDriverManual</text>
<text text-anchor="middle" x="80" y="-7.5" font-family="Helvetica,sans-Serif" font-size="10.00">Test::ButtonDriverManualTest</text>
</a>
</g>
</g>
<!-- Node1&#45;&gt;Node3 -->
<g id="edge2" class="edge">
<title>Node1&#45;&gt;Node3</title>
<path fill="none" stroke="midnightblue" d="M185.68,-28.66C177.29,-27.61 168.69,-26.52 160.19,-25.46"/>
<polygon fill="midnightblue" stroke="midnightblue" points="185.42,-32.15 195.77,-29.93 186.29,-25.21 185.42,-32.15"/>
</g>
</g>
</svg>
