<?xml version="1.0" encoding="UTF-8" standalone="no"?>
<!DOCTYPE svg PUBLIC "-//W3C//DTD SVG 1.1//EN"
 "http://www.w3.org/Graphics/SVG/1.1/DTD/svg11.dtd">
<!-- Generated by graphviz version 2.43.0 (0)
 -->
<!-- Title: OPOS6UL_ActionsExtended::servos Pages: 1 -->
<svg width="902pt" height="623pt"
 viewBox="0.00 0.00 902.00 623.00" xmlns="http://www.w3.org/2000/svg" xmlns:xlink="http://www.w3.org/1999/xlink">
<g id="graph0" class="graph" transform="scale(1 1) rotate(0) translate(4 619)">
<title>OPOS6UL_ActionsExtended::servos</title>
<polygon fill="white" stroke="transparent" points="-4,4 -4,-619 898,-619 898,4 -4,4"/>
<!-- Node1 -->
<g id="node1" class="node">
<title>Node1</title>
<g id="a_node1"><a xlink:title="Cette methode retourne l&#39;objet servos.">
<polygon fill="#bfbfbf" stroke="black" points="745,-295.5 745,-325.5 894,-325.5 894,-295.5 745,-295.5"/>
<text text-anchor="start" x="753" y="-313.5" font-family="Helvetica,sans-Serif" font-size="10.00">OPOS6UL_ActionsExtended</text>
<text text-anchor="middle" x="819.5" y="-302.5" font-family="Helvetica,sans-Serif" font-size="10.00">::servos</text>
</a>
</g>
</g>
<!-- Node2 -->
<g id="node2" class="node">
<title>Node2</title>
<g id="a_node2"><a xlink:href="classOPOS6UL__ActionsExtended.html#aced00f2c03b0aa9b9eda54e6874bac75" target="_top" xlink:title=" ">
<polygon fill="white" stroke="black" points="554,-584.5 554,-614.5 709,-614.5 709,-584.5 554,-584.5"/>
<text text-anchor="start" x="562" y="-602.5" font-family="Helvetica,sans-Serif" font-size="10.00">OPOS6UL_ActionsExtended</text>
<text text-anchor="middle" x="631.5" y="-591.5" font-family="Helvetica,sans-Serif" font-size="10.00">::OPOS6UL_ActionsExtended</text>
</a>
</g>
</g>
<!-- Node1&#45;&gt;Node2 -->
<g id="edge1" class="edge">
<title>Node1&#45;&gt;Node2</title>
<path fill="none" stroke="midnightblue" d="M815.26,-335.69C807.18,-388.06 781.32,-509.27 709,-575.5 705.2,-578.98 700.9,-581.95 696.33,-584.5"/>
<polygon fill="midnightblue" stroke="midnightblue" points="818.75,-336.01 816.72,-325.61 811.82,-335 818.75,-336.01"/>
</g>
<!-- Node3 -->
<g id="node3" class="node">
<title>Node3</title>
<g id="a_node3"><a xlink:href="classOPOS6UL__ActionsExtended.html#a946560d21bc7c1a12be600b16e07c93a" target="_top" xlink:title="Déploie le bras droit en position d&#39;action.">
<polygon fill="white" stroke="black" points="557,-388.5 557,-418.5 706,-418.5 706,-388.5 557,-388.5"/>
<text text-anchor="start" x="565" y="-406.5" font-family="Helvetica,sans-Serif" font-size="10.00">OPOS6UL_ActionsExtended</text>
<text text-anchor="middle" x="631.5" y="-395.5" font-family="Helvetica,sans-Serif" font-size="10.00">::ax12_bras_droit</text>
</a>
</g>
</g>
<!-- Node1&#45;&gt;Node3 -->
<g id="edge2" class="edge">
<title>Node1&#45;&gt;Node3</title>
<path fill="none" stroke="midnightblue" d="M789.7,-331.55C768.27,-346.48 737.86,-366.15 709,-379.5 701.92,-382.77 694.28,-385.76 686.66,-388.43"/>
<polygon fill="midnightblue" stroke="midnightblue" points="791.87,-334.31 798.02,-325.68 787.83,-328.59 791.87,-334.31"/>
</g>
<!-- Node6 -->
<g id="node6" class="node">
<title>Node6</title>
<g id="a_node6"><a xlink:href="classO__ServoObjectsTest.html#aabfa9ba518070128940062ed11028ca7" target="_top" xlink:title="Execute le test.">
<polygon fill="white" stroke="black" points="187.5,-377 187.5,-396 322.5,-396 322.5,-377 187.5,-377"/>
<text text-anchor="middle" x="255" y="-384" font-family="Helvetica,sans-Serif" font-size="10.00">O_ServoObjectsTest::run</text>
</a>
</g>
</g>
<!-- Node1&#45;&gt;Node6 -->
<g id="edge39" class="edge">
<title>Node1&#45;&gt;Node6</title>
<path fill="none" stroke="midnightblue" d="M734.6,-315.01C682.51,-318.26 614.24,-323.35 554,-330.5 471.28,-340.32 450.74,-344.49 369,-360.5 344.11,-365.38 316.35,-371.75 294.57,-376.97"/>
<polygon fill="midnightblue" stroke="midnightblue" points="735.03,-318.49 744.8,-314.38 734.6,-311.5 735.03,-318.49"/>
</g>
<!-- Node9 -->
<g id="node9" class="node">
<title>Node9</title>
<g id="a_node9"><a xlink:href="classOPOS6UL__ActionsExtended.html#a67daef275b861004d118273c7e2564c2" target="_top" xlink:title="Place le bras droit en position initiale (replié).">
<polygon fill="white" stroke="black" points="557,-535.5 557,-565.5 706,-565.5 706,-535.5 557,-535.5"/>
<text text-anchor="start" x="565" y="-553.5" font-family="Helvetica,sans-Serif" font-size="10.00">OPOS6UL_ActionsExtended</text>
<text text-anchor="middle" x="631.5" y="-542.5" font-family="Helvetica,sans-Serif" font-size="10.00">::ax12_bras_droit_init</text>
</a>
</g>
</g>
<!-- Node1&#45;&gt;Node9 -->
<g id="edge10" class="edge">
<title>Node1&#45;&gt;Node9</title>
<path fill="none" stroke="midnightblue" d="M812.7,-335.37C800.98,-380.19 770.18,-474.67 709,-526.5 704.96,-529.92 700.44,-532.85 695.66,-535.37"/>
<polygon fill="midnightblue" stroke="midnightblue" points="816.12,-336.15 815.16,-325.59 809.33,-334.44 816.12,-336.15"/>
</g>
<!-- Node10 -->
<g id="node10" class="node">
<title>Node10</title>
<g id="a_node10"><a xlink:href="classOPOS6UL__ActionsExtended.html#a5b32b355b6907dda48874f40dc9101eb" target="_top" xlink:title="Déploie le bras gauche en position d&#39;action.">
<polygon fill="white" stroke="black" points="557,-486.5 557,-516.5 706,-516.5 706,-486.5 557,-486.5"/>
<text text-anchor="start" x="565" y="-504.5" font-family="Helvetica,sans-Serif" font-size="10.00">OPOS6UL_ActionsExtended</text>
<text text-anchor="middle" x="631.5" y="-493.5" font-family="Helvetica,sans-Serif" font-size="10.00">::ax12_bras_gauche</text>
</a>
</g>
</g>
<!-- Node1&#45;&gt;Node10 -->
<g id="edge14" class="edge">
<title>Node1&#45;&gt;Node10</title>
<path fill="none" stroke="midnightblue" d="M808.7,-335.37C793.07,-371.86 759.06,-439.67 709,-477.5 704.45,-480.94 699.39,-483.9 694.11,-486.43"/>
<polygon fill="midnightblue" stroke="midnightblue" points="812,-336.54 812.62,-325.96 805.54,-333.84 812,-336.54"/>
</g>
<!-- Node11 -->
<g id="node11" class="node">
<title>Node11</title>
<g id="a_node11"><a xlink:href="classOPOS6UL__ActionsExtended.html#ad3b7d5a26040d5780cc43a5a9ead9ad3" target="_top" xlink:title="Place le bras gauche en position initiale (replié).">
<polygon fill="white" stroke="black" points="557,-437.5 557,-467.5 706,-467.5 706,-437.5 557,-437.5"/>
<text text-anchor="start" x="565" y="-455.5" font-family="Helvetica,sans-Serif" font-size="10.00">OPOS6UL_ActionsExtended</text>
<text text-anchor="middle" x="631.5" y="-444.5" font-family="Helvetica,sans-Serif" font-size="10.00">::ax12_bras_gauche_init</text>
</a>
</g>
</g>
<!-- Node1&#45;&gt;Node11 -->
<g id="edge18" class="edge">
<title>Node1&#45;&gt;Node11</title>
<path fill="none" stroke="midnightblue" d="M802.65,-333.85C783.45,-360.44 748.7,-403.42 709,-428.5 703.59,-431.92 697.65,-434.88 691.55,-437.45"/>
<polygon fill="midnightblue" stroke="midnightblue" points="805.63,-335.7 808.55,-325.51 799.92,-331.65 805.63,-335.7"/>
</g>
<!-- Node12 -->
<g id="node12" class="node">
<title>Node12</title>
<g id="a_node12"><a xlink:href="classOPOS6UL__ActionsExtended.html#a44856498aa3839098211785a1fe0b6a3" target="_top" xlink:title="Déploie la banderole (action de fin de match).">
<polygon fill="white" stroke="black" points="557,-251.5 557,-281.5 706,-281.5 706,-251.5 557,-251.5"/>
<text text-anchor="start" x="565" y="-269.5" font-family="Helvetica,sans-Serif" font-size="10.00">OPOS6UL_ActionsExtended</text>
<text text-anchor="middle" x="631.5" y="-258.5" font-family="Helvetica,sans-Serif" font-size="10.00">::ax12_GO_banderole</text>
</a>
</g>
</g>
<!-- Node1&#45;&gt;Node12 -->
<g id="edge22" class="edge">
<title>Node1&#45;&gt;Node12</title>
<path fill="none" stroke="midnightblue" d="M745.04,-293.12C728.83,-289.29 711.8,-285.26 696.02,-281.53"/>
<polygon fill="midnightblue" stroke="midnightblue" points="744.47,-296.58 755.01,-295.48 746.08,-289.77 744.47,-296.58"/>
</g>
<!-- Node14 -->
<g id="node14" class="node">
<title>Node14</title>
<g id="a_node14"><a xlink:href="classOPOS6UL__ActionsExtended.html#ae63e06f334f5095383387aa9ff68c8a3" target="_top" xlink:title="Initialise le servo de la banderole à la position repliée.">
<polygon fill="white" stroke="black" points="557,-339.5 557,-369.5 706,-369.5 706,-339.5 557,-339.5"/>
<text text-anchor="start" x="565" y="-357.5" font-family="Helvetica,sans-Serif" font-size="10.00">OPOS6UL_ActionsExtended</text>
<text text-anchor="middle" x="631.5" y="-346.5" font-family="Helvetica,sans-Serif" font-size="10.00">::ax12_init_banderole</text>
</a>
</g>
</g>
<!-- Node1&#45;&gt;Node14 -->
<g id="edge25" class="edge">
<title>Node1&#45;&gt;Node14</title>
<path fill="none" stroke="midnightblue" d="M745.04,-327.88C728.83,-331.71 711.8,-335.74 696.02,-339.47"/>
<polygon fill="midnightblue" stroke="midnightblue" points="746.08,-331.23 755.01,-325.52 744.47,-324.42 746.08,-331.23"/>
</g>
<!-- Node15 -->
<g id="node15" class="node">
<title>Node15</title>
<g id="a_node15"><a xlink:href="classOPOS6UL__ActionsExtended.html#a565acda2ce4cdd1be8263835465d0fdc" target="_top" xlink:title="Initialise le bras gauche (épaule, coude, poignet) à la position de repos.">
<polygon fill="white" stroke="black" points="557,-98.5 557,-128.5 706,-128.5 706,-98.5 557,-98.5"/>
<text text-anchor="start" x="565" y="-116.5" font-family="Helvetica,sans-Serif" font-size="10.00">OPOS6UL_ActionsExtended</text>
<text text-anchor="middle" x="631.5" y="-105.5" font-family="Helvetica,sans-Serif" font-size="10.00">::ax12_init_L</text>
</a>
</g>
</g>
<!-- Node1&#45;&gt;Node15 -->
<g id="edge28" class="edge">
<title>Node1&#45;&gt;Node15</title>
<path fill="none" stroke="midnightblue" d="M808.35,-286.07C792.27,-250.15 757.71,-183.06 709,-143.5 701.58,-137.47 692.8,-132.55 683.89,-128.56"/>
<polygon fill="midnightblue" stroke="midnightblue" points="805.18,-287.57 812.39,-295.33 811.6,-284.77 805.18,-287.57"/>
</g>
<!-- Node16 -->
<g id="node16" class="node">
<title>Node16</title>
<g id="a_node16"><a xlink:href="classOPOS6UL__ActionsExtended.html#a50a3db095faaaf15ec9630d9abcfb5d4" target="_top" xlink:title="Initialise les deux bras (gauche et droit) à la position de repos.">
<polygon fill="white" stroke="black" points="557,-49.5 557,-79.5 706,-79.5 706,-49.5 557,-49.5"/>
<text text-anchor="start" x="565" y="-67.5" font-family="Helvetica,sans-Serif" font-size="10.00">OPOS6UL_ActionsExtended</text>
<text text-anchor="middle" x="631.5" y="-56.5" font-family="Helvetica,sans-Serif" font-size="10.00">::ax12_init_LR</text>
</a>
</g>
</g>
<!-- Node1&#45;&gt;Node16 -->
<g id="edge29" class="edge">
<title>Node1&#45;&gt;Node16</title>
<path fill="none" stroke="midnightblue" d="M812.9,-285.47C801.42,-239.87 770.9,-143.06 709,-89.5 704.56,-85.66 699.52,-82.41 694.2,-79.65"/>
<polygon fill="midnightblue" stroke="midnightblue" points="809.55,-286.5 815.3,-295.4 816.35,-284.85 809.55,-286.5"/>
</g>
<!-- Node17 -->
<g id="node17" class="node">
<title>Node17</title>
<g id="a_node17"><a xlink:href="classOPOS6UL__ActionsExtended.html#a298422faffadf81c4350cd47464d3f0a" target="_top" xlink:title="Initialise le bras droit (épaule, coude, poignet) à la position de repos.">
<polygon fill="white" stroke="black" points="557,-0.5 557,-30.5 706,-30.5 706,-0.5 557,-0.5"/>
<text text-anchor="start" x="565" y="-18.5" font-family="Helvetica,sans-Serif" font-size="10.00">OPOS6UL_ActionsExtended</text>
<text text-anchor="middle" x="631.5" y="-7.5" font-family="Helvetica,sans-Serif" font-size="10.00">::ax12_init_R</text>
</a>
</g>
</g>
<!-- Node1&#45;&gt;Node17 -->
<g id="edge30" class="edge">
<title>Node1&#45;&gt;Node17</title>
<path fill="none" stroke="midnightblue" d="M815.54,-285.46C807.92,-232.33 782.78,-107.6 709,-39.5 705.32,-36.1 701.16,-33.18 696.73,-30.68"/>
<polygon fill="midnightblue" stroke="midnightblue" points="812.07,-285.94 816.87,-295.38 819.01,-285 812.07,-285.94"/>
</g>
<!-- Node18 -->
<g id="node18" class="node">
<title>Node18</title>
<g id="a_node18"><a xlink:href="classOPOS6UL__ActionsExtended.html#a0bc7d581ad9cbae899f7f244340a5429" target="_top" xlink:title="Relâche tous les servomoteurs AX12 (coupe le maintien en position).">
<polygon fill="white" stroke="black" points="557,-186.5 557,-216.5 706,-216.5 706,-186.5 557,-186.5"/>
<text text-anchor="start" x="565" y="-204.5" font-family="Helvetica,sans-Serif" font-size="10.00">OPOS6UL_ActionsExtended</text>
<text text-anchor="middle" x="631.5" y="-193.5" font-family="Helvetica,sans-Serif" font-size="10.00">::releaseAll</text>
</a>
</g>
</g>
<!-- Node1&#45;&gt;Node18 -->
<g id="edge31" class="edge">
<title>Node1&#45;&gt;Node18</title>
<path fill="none" stroke="midnightblue" d="M786.78,-290.05C765.09,-276.26 735.57,-257.85 709,-242.5 693.6,-233.61 676.15,-224.2 661.8,-216.64"/>
<polygon fill="midnightblue" stroke="midnightblue" points="784.95,-293.04 795.27,-295.47 788.72,-287.14 784.95,-293.04"/>
</g>
<!-- Node20 -->
<g id="node20" class="node">
<title>Node20</title>
<g id="a_node20"><a xlink:href="classO__ServoStepTest.html#aefbe5c17504e0782e71a6ca13ed40518" target="_top" xlink:title="Execute le test.">
<polygon fill="white" stroke="black" points="383.5,-49 383.5,-68 503.5,-68 503.5,-49 383.5,-49"/>
<text text-anchor="middle" x="443.5" y="-56" font-family="Helvetica,sans-Serif" font-size="10.00">O_ServoStepTest::run</text>
</a>
</g>
</g>
<!-- Node1&#45;&gt;Node20 -->
<g id="edge40" class="edge">
<title>Node1&#45;&gt;Node20</title>
<path fill="none" stroke="midnightblue" d="M805.3,-286.48C787.46,-256.33 752.79,-205.21 709,-177.5 648.98,-139.51 610.89,-181.04 554,-138.5 528.79,-119.65 543.15,-96.43 518,-77.5 512.84,-73.62 506.96,-70.52 500.83,-68.06"/>
<polygon fill="midnightblue" stroke="midnightblue" points="802.46,-288.56 810.49,-295.48 808.52,-285.07 802.46,-288.56"/>
</g>
<!-- Node4 -->
<g id="node4" class="node">
<title>Node4</title>
<g id="a_node4"><a xlink:href="classOPOS6UL__ActionsExtended.html#af04e19802d90a78d82e67b10061521a2" target="_top" xlink:title="Initialise tous les servomoteurs AX12 à leur position de départ.">
<polygon fill="white" stroke="black" points="369,-453.5 369,-483.5 518,-483.5 518,-453.5 369,-453.5"/>
<text text-anchor="start" x="377" y="-471.5" font-family="Helvetica,sans-Serif" font-size="10.00">OPOS6UL_ActionsExtended</text>
<text text-anchor="middle" x="443.5" y="-460.5" font-family="Helvetica,sans-Serif" font-size="10.00">::ax12_init</text>
</a>
</g>
</g>
<!-- Node3&#45;&gt;Node4 -->
<g id="edge3" class="edge">
<title>Node3&#45;&gt;Node4</title>
<path fill="none" stroke="midnightblue" d="M573.77,-421.8C567.09,-424.02 560.39,-426.29 554,-428.5 530.95,-436.47 505.34,-445.8 484.69,-453.45"/>
<polygon fill="midnightblue" stroke="midnightblue" points="575.09,-425.05 583.48,-418.58 572.89,-418.4 575.09,-425.05"/>
</g>
<!-- Node3&#45;&gt;Node6 -->
<g id="edge9" class="edge">
<title>Node3&#45;&gt;Node6</title>
<path fill="none" stroke="midnightblue" d="M546.77,-399.7C479.19,-396.63 385.37,-392.37 322.78,-389.53"/>
<polygon fill="midnightblue" stroke="midnightblue" points="546.81,-403.2 556.96,-400.16 547.13,-396.21 546.81,-403.2"/>
</g>
<!-- Node8 -->
<g id="node8" class="node">
<title>Node8</title>
<g id="a_node8"><a xlink:href="classO__AsservTest.html#a87e2ffa360e3e12ff5c7b81b1952a04f" target="_top" xlink:title=" ">
<polygon fill="white" stroke="black" points="391.5,-503 391.5,-522 495.5,-522 495.5,-503 391.5,-503"/>
<text text-anchor="middle" x="443.5" y="-510" font-family="Helvetica,sans-Serif" font-size="10.00">O_AsservTest::run</text>
</a>
</g>
</g>
<!-- Node3&#45;&gt;Node8 -->
<g id="edge8" class="edge">
<title>Node3&#45;&gt;Node8</title>
<path fill="none" stroke="midnightblue" d="M560.4,-423.8C558.17,-425.26 556.03,-426.83 554,-428.5 528.54,-449.53 544.11,-473.28 518,-493.5 511.44,-498.58 503.65,-502.32 495.64,-505.05"/>
<polygon fill="midnightblue" stroke="midnightblue" points="562.43,-426.68 569.37,-418.67 558.95,-420.6 562.43,-426.68"/>
</g>
<!-- Node5 -->
<g id="node5" class="node">
<title>Node5</title>
<g id="a_node5"><a xlink:href="classO__State__Init.html#abc19788b7457d1f819245dd28367fe91" target="_top" xlink:title="Exécute l&#39;état d&#39;initialisation.">
<polygon fill="white" stroke="black" points="10.5,-459 10.5,-478 130.5,-478 130.5,-459 10.5,-459"/>
<text text-anchor="middle" x="70.5" y="-466" font-family="Helvetica,sans-Serif" font-size="10.00">O_State_Init::execute</text>
</a>
</g>
</g>
<!-- Node4&#45;&gt;Node5 -->
<g id="edge4" class="edge">
<title>Node4&#45;&gt;Node5</title>
<path fill="none" stroke="midnightblue" d="M358.72,-468.5C289.3,-468.5 192.35,-468.5 130.75,-468.5"/>
<polygon fill="midnightblue" stroke="midnightblue" points="358.76,-472 368.76,-468.5 358.76,-465 358.76,-472"/>
</g>
<!-- Node4&#45;&gt;Node6 -->
<g id="edge5" class="edge">
<title>Node4&#45;&gt;Node6</title>
<path fill="none" stroke="midnightblue" d="M395.25,-449.57C386.5,-445.96 377.45,-442.17 369,-438.5 336.31,-424.32 298.82,-406.81 276.29,-396.16"/>
<polygon fill="midnightblue" stroke="midnightblue" points="394.02,-452.85 404.6,-453.4 396.67,-446.37 394.02,-452.85"/>
</g>
<!-- Node7 -->
<g id="node7" class="node">
<title>Node7</title>
<g id="a_node7"><a xlink:href="classO__State__Init.html#a1980cd82dcb83e88d61f2e7e14dddfa0" target="_top" xlink:title=" ">
<polygon fill="white" stroke="black" points="198,-440 198,-459 312,-459 312,-440 198,-440"/>
<text text-anchor="middle" x="255" y="-447" font-family="Helvetica,sans-Serif" font-size="10.00">O_State_Init::setPos</text>
</a>
</g>
</g>
<!-- Node4&#45;&gt;Node7 -->
<g id="edge6" class="edge">
<title>Node4&#45;&gt;Node7</title>
<path fill="none" stroke="midnightblue" d="M358.55,-459.95C342.85,-458.35 326.81,-456.71 312.21,-455.23"/>
<polygon fill="midnightblue" stroke="midnightblue" points="358.49,-463.46 368.79,-460.99 359.2,-456.5 358.49,-463.46"/>
</g>
<!-- Node7&#45;&gt;Node5 -->
<g id="edge7" class="edge">
<title>Node7&#45;&gt;Node5</title>
<path fill="none" stroke="midnightblue" d="M187.59,-456.41C168.98,-458.35 148.88,-460.44 130.72,-462.33"/>
<polygon fill="midnightblue" stroke="midnightblue" points="188.17,-459.87 197.75,-455.36 187.45,-452.91 188.17,-459.87"/>
</g>
<!-- Node9&#45;&gt;Node4 -->
<g id="edge11" class="edge">
<title>Node9&#45;&gt;Node4</title>
<path fill="none" stroke="midnightblue" d="M563.51,-531.44C560.24,-529.9 557.05,-528.26 554,-526.5 535.2,-515.66 536.67,-504.56 518,-493.5 511.62,-489.72 504.59,-486.41 497.49,-483.55"/>
<polygon fill="midnightblue" stroke="midnightblue" points="562.36,-534.75 572.93,-535.48 565.12,-528.32 562.36,-534.75"/>
</g>
<!-- Node9&#45;&gt;Node6 -->
<g id="edge13" class="edge">
<title>Node9&#45;&gt;Node6</title>
<path fill="none" stroke="midnightblue" d="M578.15,-568.55C520.84,-584.72 429.11,-599.64 369,-554.5 323.11,-520.04 368.51,-475.58 333,-430.5 320.33,-414.41 300.04,-403.16 283.47,-396.07"/>
<polygon fill="midnightblue" stroke="midnightblue" points="579.48,-571.81 588.09,-565.63 577.51,-565.09 579.48,-571.81"/>
</g>
<!-- Node9&#45;&gt;Node8 -->
<g id="edge12" class="edge">
<title>Node9&#45;&gt;Node8</title>
<path fill="none" stroke="midnightblue" d="M547,-533.44C527.77,-529.51 507.99,-525.47 491,-522"/>
<polygon fill="midnightblue" stroke="midnightblue" points="546.49,-536.91 556.99,-535.48 547.89,-530.05 546.49,-536.91"/>
</g>
<!-- Node10&#45;&gt;Node4 -->
<g id="edge15" class="edge">
<title>Node10&#45;&gt;Node4</title>
<path fill="none" stroke="midnightblue" d="M547.01,-486.69C537.36,-484.98 527.58,-483.24 518.09,-481.56"/>
<polygon fill="midnightblue" stroke="midnightblue" points="546.53,-490.16 556.99,-488.46 547.75,-483.26 546.53,-490.16"/>
</g>
<!-- Node10&#45;&gt;Node6 -->
<g id="edge17" class="edge">
<title>Node10&#45;&gt;Node6</title>
<path fill="none" stroke="midnightblue" d="M575.29,-519.29C557.23,-524.28 536.94,-529.02 518,-531.5 452.34,-540.1 423.12,-569.66 369,-531.5 330.05,-504.04 363.59,-467.04 333,-430.5 319.66,-414.56 298.97,-403.2 282.4,-396.02"/>
<polygon fill="midnightblue" stroke="midnightblue" points="576.41,-522.61 585.07,-516.51 574.49,-515.88 576.41,-522.61"/>
</g>
<!-- Node10&#45;&gt;Node8 -->
<g id="edge16" class="edge">
<title>Node10&#45;&gt;Node8</title>
<path fill="none" stroke="midnightblue" d="M546.8,-506.45C529.39,-507.48 511.54,-508.54 495.72,-509.47"/>
<polygon fill="midnightblue" stroke="midnightblue" points="547.21,-509.93 556.99,-505.85 546.8,-502.94 547.21,-509.93"/>
</g>
<!-- Node11&#45;&gt;Node4 -->
<g id="edge19" class="edge">
<title>Node11&#45;&gt;Node4</title>
<path fill="none" stroke="midnightblue" d="M547.01,-459.68C537.36,-460.51 527.58,-461.35 518.09,-462.17"/>
<polygon fill="midnightblue" stroke="midnightblue" points="547.32,-463.17 556.99,-458.82 546.72,-456.19 547.32,-463.17"/>
</g>
<!-- Node11&#45;&gt;Node6 -->
<g id="edge21" class="edge">
<title>Node11&#45;&gt;Node6</title>
<path fill="none" stroke="midnightblue" d="M546.81,-438.98C495.44,-430.54 428.35,-419.27 369,-408.5 347.47,-404.59 323.68,-400 303.51,-396.03"/>
<polygon fill="midnightblue" stroke="midnightblue" points="546.43,-442.46 556.86,-440.63 547.56,-435.55 546.43,-442.46"/>
</g>
<!-- Node11&#45;&gt;Node8 -->
<g id="edge20" class="edge">
<title>Node11&#45;&gt;Node8</title>
<path fill="none" stroke="midnightblue" d="M572.07,-470.91C565.94,-473.05 559.82,-475.26 554,-477.5 537.66,-483.78 534.53,-487.73 518,-493.5 507.92,-497.02 496.86,-500.21 486.45,-502.93"/>
<polygon fill="midnightblue" stroke="midnightblue" points="573.34,-474.17 581.67,-467.63 571.08,-467.55 573.34,-474.17"/>
</g>
<!-- Node12&#45;&gt;Node6 -->
<g id="edge24" class="edge">
<title>Node12&#45;&gt;Node6</title>
<path fill="none" stroke="midnightblue" d="M546.76,-264.47C493.94,-265.97 425.3,-273.13 369,-296.5 323.83,-315.25 281.91,-357.65 264.5,-376.8"/>
<polygon fill="midnightblue" stroke="midnightblue" points="546.85,-267.97 556.77,-264.25 546.7,-260.97 546.85,-267.97"/>
</g>
<!-- Node13 -->
<g id="node13" class="node">
<title>Node13</title>
<g id="a_node13"><a xlink:href="classO__State__DecisionMakerIA.html#a96d1f2a7618d607fd10cc51b9111e653" target="_top" xlink:title="Execute l&#39;action.">
<polygon fill="white" stroke="black" points="372.5,-213.5 372.5,-243.5 514.5,-243.5 514.5,-213.5 372.5,-213.5"/>
<text text-anchor="start" x="380.5" y="-231.5" font-family="Helvetica,sans-Serif" font-size="10.00">O_State_DecisionMakerIA</text>
<text text-anchor="middle" x="443.5" y="-220.5" font-family="Helvetica,sans-Serif" font-size="10.00">::execute</text>
</a>
</g>
</g>
<!-- Node12&#45;&gt;Node13 -->
<g id="edge23" class="edge">
<title>Node12&#45;&gt;Node13</title>
<path fill="none" stroke="midnightblue" d="M547.12,-249.47C536.31,-247.26 525.32,-245.01 514.75,-242.85"/>
<polygon fill="midnightblue" stroke="midnightblue" points="546.49,-252.91 556.99,-251.48 547.89,-246.05 546.49,-252.91"/>
</g>
<!-- Node14&#45;&gt;Node4 -->
<g id="edge26" class="edge">
<title>Node14&#45;&gt;Node4</title>
<path fill="none" stroke="midnightblue" d="M566.45,-373.44C562.16,-375.32 557.97,-377.33 554,-379.5 516.58,-399.91 479.44,-433.69 459.49,-453.24"/>
<polygon fill="midnightblue" stroke="midnightblue" points="568.02,-376.59 575.96,-369.58 565.38,-370.1 568.02,-376.59"/>
</g>
<!-- Node14&#45;&gt;Node6 -->
<g id="edge27" class="edge">
<title>Node14&#45;&gt;Node6</title>
<path fill="none" stroke="midnightblue" d="M546.77,-361.65C479.19,-367.43 385.37,-375.45 322.78,-380.79"/>
<polygon fill="midnightblue" stroke="midnightblue" points="547.29,-365.12 556.96,-360.78 546.7,-358.15 547.29,-365.12"/>
</g>
<!-- Node18&#45;&gt;Node6 -->
<g id="edge33" class="edge">
<title>Node18&#45;&gt;Node6</title>
<path fill="none" stroke="midnightblue" d="M559.57,-184.73C504.09,-175.57 426.9,-171.86 369,-204.5 299.67,-243.58 267.29,-344.5 258.53,-376.57"/>
<polygon fill="midnightblue" stroke="midnightblue" points="559.22,-188.22 569.67,-186.49 560.43,-181.32 559.22,-188.22"/>
</g>
<!-- Node19 -->
<g id="node19" class="node">
<title>Node19</title>
<g id="a_node19"><a xlink:href="classO__State__WaitEndOfMatch.html#aa73613440b37c8dd42181e2e0265ae86" target="_top" xlink:title="Exécute l&#39;état d&#39;attente de fin de match.">
<polygon fill="white" stroke="black" points="0,-109.5 0,-139.5 141,-139.5 141,-109.5 0,-109.5"/>
<text text-anchor="start" x="8" y="-127.5" font-family="Helvetica,sans-Serif" font-size="10.00">O_State_WaitEndOfMatch</text>
<text text-anchor="middle" x="70.5" y="-116.5" font-family="Helvetica,sans-Serif" font-size="10.00">::execute</text>
</a>
</g>
</g>
<!-- Node18&#45;&gt;Node19 -->
<g id="edge32" class="edge">
<title>Node18&#45;&gt;Node19</title>
<path fill="none" stroke="midnightblue" d="M566.31,-183.94C550.6,-180.08 533.77,-176.31 518,-173.5 385.76,-149.9 229.34,-135.87 141.14,-129.22"/>
<polygon fill="midnightblue" stroke="midnightblue" points="565.91,-187.45 576.46,-186.48 567.61,-180.66 565.91,-187.45"/>
</g>
<!-- Node18&#45;&gt;Node20 -->
<g id="edge34" class="edge">
<title>Node18&#45;&gt;Node20</title>
<path fill="none" stroke="midnightblue" d="M566.33,-181.32C561.86,-178.46 557.67,-175.2 554,-171.5 522.49,-139.74 551.37,-107.3 518,-77.5 513.67,-73.64 508.67,-70.54 503.33,-68.06"/>
<polygon fill="midnightblue" stroke="midnightblue" points="564.81,-184.48 575.24,-186.36 568.26,-178.39 564.81,-184.48"/>
</g>
<!-- Node21 -->
<g id="node21" class="node">
<title>Node21</title>
<g id="a_node21"><a xlink:href="classOPOS6UL__ActionsExtended.html#a87bb61d89759101cac844e7c399f2f61" target="_top" xlink:title="Arrête tous les périphériques supplémentaires (capteurs, LEDs, LCD) et relâche les servos.">
<polygon fill="white" stroke="black" points="369,-87.5 369,-117.5 518,-117.5 518,-87.5 369,-87.5"/>
<text text-anchor="start" x="377" y="-105.5" font-family="Helvetica,sans-Serif" font-size="10.00">OPOS6UL_ActionsExtended</text>
<text text-anchor="middle" x="443.5" y="-94.5" font-family="Helvetica,sans-Serif" font-size="10.00">::stopExtra</text>
</a>
</g>
</g>
<!-- Node18&#45;&gt;Node21 -->
<g id="edge35" class="edge">
<title>Node18&#45;&gt;Node21</title>
<path fill="none" stroke="midnightblue" d="M573.13,-182.34C566.44,-179.15 559.91,-175.54 554,-171.5 534.53,-158.19 537.38,-145.94 518,-132.5 509.62,-126.69 499.94,-121.73 490.42,-117.61"/>
<polygon fill="midnightblue" stroke="midnightblue" points="571.74,-185.55 582.29,-186.44 574.59,-179.16 571.74,-185.55"/>
</g>
<!-- Node22 -->
<g id="node22" class="node">
<title>Node22</title>
<g id="a_node22"><a xlink:href="classOPOS6UL__RobotExtended.html#ac8ac2be407a78cdd62261f72226162df" target="_top" xlink:title=" ">
<polygon fill="white" stroke="black" points="177,-38.5 177,-68.5 333,-68.5 333,-38.5 177,-38.5"/>
<text text-anchor="start" x="185" y="-56.5" font-family="Helvetica,sans-Serif" font-size="10.00">OPOS6UL_RobotExtended</text>
<text text-anchor="middle" x="255" y="-45.5" font-family="Helvetica,sans-Serif" font-size="10.00">::~OPOS6UL_RobotExtended</text>
</a>
</g>
</g>
<!-- Node21&#45;&gt;Node22 -->
<g id="edge36" class="edge">
<title>Node21&#45;&gt;Node22</title>
<path fill="none" stroke="midnightblue" d="M375.43,-84.88C355.02,-79.52 332.8,-73.68 313.12,-68.51"/>
<polygon fill="midnightblue" stroke="midnightblue" points="374.72,-88.31 385.28,-87.47 376.49,-81.54 374.72,-88.31"/>
</g>
<!-- Node23 -->
<g id="node23" class="node">
<title>Node23</title>
<g id="a_node23"><a xlink:href="classOPOS6UL__RobotExtended.html#a0a997f7fd88abac1efe0083fce633649" target="_top" xlink:title="Arrête toutes les actions supplémentaires (capteurs, LEDs, servos).">
<polygon fill="white" stroke="black" points="184,-87.5 184,-117.5 326,-117.5 326,-87.5 184,-87.5"/>
<text text-anchor="start" x="192" y="-105.5" font-family="Helvetica,sans-Serif" font-size="10.00">OPOS6UL_RobotExtended</text>
<text text-anchor="middle" x="255" y="-94.5" font-family="Helvetica,sans-Serif" font-size="10.00">::stopExtraActions</text>
</a>
</g>
</g>
<!-- Node21&#45;&gt;Node23 -->
<g id="edge37" class="edge">
<title>Node21&#45;&gt;Node23</title>
<path fill="none" stroke="midnightblue" d="M358.49,-102.5C347.68,-102.5 336.69,-102.5 326.13,-102.5"/>
<polygon fill="midnightblue" stroke="midnightblue" points="358.79,-106 368.79,-102.5 358.79,-99 358.79,-106"/>
</g>
<!-- Node23&#45;&gt;Node19 -->
<g id="edge38" class="edge">
<title>Node23&#45;&gt;Node19</title>
<path fill="none" stroke="midnightblue" d="M173.97,-112.15C163,-113.47 151.81,-114.82 141.05,-116.12"/>
<polygon fill="midnightblue" stroke="midnightblue" points="174.45,-115.61 183.96,-110.94 173.62,-108.66 174.45,-115.61"/>
</g>
</g>
</svg>
