<?xml version="1.0" encoding="UTF-8" standalone="no"?>
<!DOCTYPE svg PUBLIC "-//W3C//DTD SVG 1.1//EN"
 "http://www.w3.org/Graphics/SVG/1.1/DTD/svg11.dtd">
<!-- Generated by graphviz version 2.43.0 (0)
 -->
<!-- Title: AAsservDriver::motion_setLowSpeedForward Pages: 1 -->
<svg width="329pt" height="104pt"
 viewBox="0.00 0.00 329.00 104.00" xmlns="http://www.w3.org/2000/svg" xmlns:xlink="http://www.w3.org/1999/xlink">
<g id="graph0" class="graph" transform="scale(1 1) rotate(0) translate(4 100)">
<title>AAsservDriver::motion_setLowSpeedForward</title>
<polygon fill="white" stroke="transparent" points="-4,4 -4,-100 325,-100 325,4 -4,4"/>
<!-- Node1 -->
<g id="node1" class="node">
<title>Node1</title>
<g id="a_node1"><a xlink:title="Active/desactive la vitesse reduite en marche avant.">
<polygon fill="#bfbfbf" stroke="black" points="194,-33 194,-63 321,-63 321,-33 194,-33"/>
<text text-anchor="start" x="202" y="-51" font-family="Helvetica,sans-Serif" font-size="10.00">AAsservDriver::motion</text>
<text text-anchor="middle" x="257.5" y="-40" font-family="Helvetica,sans-Serif" font-size="10.00">_setLowSpeedForward</text>
</a>
</g>
</g>
<!-- Node2 -->
<g id="node2" class="node">
<title>Node2</title>
<g id="a_node2"><a xlink:href="classAsserv.html#a0ac23995bdebb69bb49304850c951886" target="_top" xlink:title=" ">
<polygon fill="white" stroke="black" points="28.5,-76.5 28.5,-95.5 129.5,-95.5 129.5,-76.5 28.5,-76.5"/>
<text text-anchor="middle" x="79" y="-83.5" font-family="Helvetica,sans-Serif" font-size="10.00">Asserv::doCalage</text>
</a>
</g>
</g>
<!-- Node1&#45;&gt;Node2 -->
<g id="edge1" class="edge">
<title>Node1&#45;&gt;Node2</title>
<path fill="none" stroke="midnightblue" d="M183.95,-63.62C163.7,-67.98 142.31,-72.58 124.24,-76.48"/>
<polygon fill="midnightblue" stroke="midnightblue" points="184.74,-67.03 193.78,-61.5 183.26,-60.19 184.74,-67.03"/>
</g>
<!-- Node3 -->
<g id="node3" class="node">
<title>Node3</title>
<g id="a_node3"><a xlink:href="classAsserv.html#aa105905ebc1940adb7c483a14c9ce8fc" target="_top" xlink:title=" ">
<polygon fill="white" stroke="black" points="18,-38.5 18,-57.5 140,-57.5 140,-38.5 18,-38.5"/>
<text text-anchor="middle" x="79" y="-45.5" font-family="Helvetica,sans-Serif" font-size="10.00">Asserv::doCalageNew</text>
</a>
</g>
</g>
<!-- Node1&#45;&gt;Node3 -->
<g id="edge2" class="edge">
<title>Node1&#45;&gt;Node3</title>
<path fill="none" stroke="midnightblue" d="M183.41,-48C169.02,-48 154.07,-48 140.16,-48"/>
<polygon fill="midnightblue" stroke="midnightblue" points="183.78,-51.5 193.78,-48 183.78,-44.5 183.78,-51.5"/>
</g>
<!-- Node4 -->
<g id="node4" class="node">
<title>Node4</title>
<g id="a_node4"><a xlink:href="classAsserv.html#a3ee97758e6496987ec5c84f084a3d3aa" target="_top" xlink:title=" ">
<polygon fill="white" stroke="black" points="0,-0.5 0,-19.5 158,-19.5 158,-0.5 0,-0.5"/>
<text text-anchor="middle" x="79" y="-7.5" font-family="Helvetica,sans-Serif" font-size="10.00">Asserv::setLowSpeedForward</text>
</a>
</g>
</g>
<!-- Node1&#45;&gt;Node4 -->
<g id="edge3" class="edge">
<title>Node1&#45;&gt;Node4</title>
<path fill="none" stroke="midnightblue" d="M183.95,-32.38C163.7,-28.02 142.31,-23.42 124.24,-19.52"/>
<polygon fill="midnightblue" stroke="midnightblue" points="183.26,-35.81 193.78,-34.5 184.74,-28.97 183.26,-35.81"/>
</g>
</g>
</svg>
