<?xml version="1.0" encoding="UTF-8" standalone="no"?>
<!DOCTYPE svg PUBLIC "-//W3C//DTD SVG 1.1//EN"
 "http://www.w3.org/Graphics/SVG/1.1/DTD/svg11.dtd">
<!-- Generated by graphviz version 2.43.0 (0)
 -->
<!-- Title: CountingAction::count Pages: 1 -->
<svg width="365pt" height="186pt"
 viewBox="0.00 0.00 365.00 186.00" xmlns="http://www.w3.org/2000/svg" xmlns:xlink="http://www.w3.org/1999/xlink">
<g id="graph0" class="graph" transform="scale(1 1) rotate(0) translate(4 182)">
<title>CountingAction::count</title>
<polygon fill="white" stroke="transparent" points="-4,4 -4,-182 361,-182 361,4 -4,4"/>
<!-- Node1 -->
<g id="node1" class="node">
<title>Node1</title>
<g id="a_node1"><a xlink:title=" ">
<polygon fill="#bfbfbf" stroke="black" points="233,-79 233,-98 357,-98 357,-79 233,-79"/>
<text text-anchor="middle" x="295" y="-86" font-family="Helvetica,sans-Serif" font-size="10.00">CountingAction::count</text>
</a>
</g>
</g>
<!-- Node2 -->
<g id="node2" class="node">
<title>Node2</title>
<g id="a_node2"><a xlink:href="classtest_1_1ActionManagerTimerTest.html#a884499458c4c2ffc9e66887deb786b50" target="_top" xlink:title=" ">
<polygon fill="white" stroke="black" points="27,-147.5 27,-177.5 170,-177.5 170,-147.5 27,-147.5"/>
<text text-anchor="start" x="35" y="-165.5" font-family="Helvetica,sans-Serif" font-size="10.00">test::ActionManagerTimer</text>
<text text-anchor="middle" x="98.5" y="-154.5" font-family="Helvetica,sans-Serif" font-size="10.00">Test::testActionExecution</text>
</a>
</g>
</g>
<!-- Node1&#45;&gt;Node2 -->
<g id="edge1" class="edge">
<title>Node1&#45;&gt;Node2</title>
<path fill="none" stroke="midnightblue" d="M269.71,-103.06C250.52,-114.05 222.77,-128.84 197,-138.5 188.1,-141.83 178.58,-144.84 169.09,-147.5"/>
<polygon fill="midnightblue" stroke="midnightblue" points="271.51,-106.06 278.39,-98.01 267.99,-100.01 271.51,-106.06"/>
</g>
<!-- Node3 -->
<g id="node3" class="node">
<title>Node3</title>
<g id="a_node3"><a xlink:href="classtest_1_1ActionManagerTimerTest.html#aecb0f8f988c8e448b279f917a44d3c15" target="_top" xlink:title=" ">
<polygon fill="white" stroke="black" points="0,-98.5 0,-128.5 197,-128.5 197,-98.5 0,-98.5"/>
<text text-anchor="start" x="8" y="-116.5" font-family="Helvetica,sans-Serif" font-size="10.00">test::ActionManagerTimer</text>
<text text-anchor="middle" x="98.5" y="-105.5" font-family="Helvetica,sans-Serif" font-size="10.00">Test::testActionFinishesAndRemoved</text>
</a>
</g>
</g>
<!-- Node1&#45;&gt;Node3 -->
<g id="edge2" class="edge">
<title>Node1&#45;&gt;Node3</title>
<path fill="none" stroke="midnightblue" d="M222.96,-97.63C214.61,-98.7 205.98,-99.81 197.35,-100.92"/>
<polygon fill="midnightblue" stroke="midnightblue" points="223.52,-101.09 232.99,-96.34 222.63,-94.15 223.52,-101.09"/>
</g>
<!-- Node4 -->
<g id="node4" class="node">
<title>Node4</title>
<g id="a_node4"><a xlink:href="classtest_1_1ActionManagerTimerTest.html#ade9c6271c876cdd3fe4b0ffd67c6448d" target="_top" xlink:title=" ">
<polygon fill="white" stroke="black" points="27,-49.5 27,-79.5 170,-79.5 170,-49.5 27,-49.5"/>
<text text-anchor="start" x="35" y="-67.5" font-family="Helvetica,sans-Serif" font-size="10.00">test::ActionManagerTimer</text>
<text text-anchor="middle" x="98.5" y="-56.5" font-family="Helvetica,sans-Serif" font-size="10.00">Test::testPauseResume</text>
</a>
</g>
</g>
<!-- Node1&#45;&gt;Node4 -->
<g id="edge3" class="edge">
<title>Node1&#45;&gt;Node4</title>
<path fill="none" stroke="midnightblue" d="M223,-79.74C205.78,-77.61 187.36,-75.34 170.15,-73.22"/>
<polygon fill="midnightblue" stroke="midnightblue" points="222.64,-83.22 232.99,-80.97 223.5,-76.27 222.64,-83.22"/>
</g>
<!-- Node5 -->
<g id="node5" class="node">
<title>Node5</title>
<g id="a_node5"><a xlink:href="classtest_1_1ActionManagerTimerTest.html#a1bda8503d8fc7a68576ebb45dfdf9264" target="_top" xlink:title=" ">
<polygon fill="white" stroke="black" points="27,-0.5 27,-30.5 170,-30.5 170,-0.5 27,-0.5"/>
<text text-anchor="start" x="35" y="-18.5" font-family="Helvetica,sans-Serif" font-size="10.00">test::ActionManagerTimer</text>
<text text-anchor="middle" x="98.5" y="-7.5" font-family="Helvetica,sans-Serif" font-size="10.00">Test::testStopRestart</text>
</a>
</g>
</g>
<!-- Node1&#45;&gt;Node5 -->
<g id="edge4" class="edge">
<title>Node1&#45;&gt;Node5</title>
<path fill="none" stroke="midnightblue" d="M268.31,-73.94C249.13,-63.54 222.02,-49.78 197,-40.5 187.09,-36.82 176.42,-33.49 165.9,-30.54"/>
<polygon fill="midnightblue" stroke="midnightblue" points="266.86,-77.14 277.31,-78.9 270.23,-71.01 266.86,-77.14"/>
</g>
</g>
</svg>
