<?xml version="1.0" encoding="UTF-8" standalone="no"?>
<!DOCTYPE svg PUBLIC "-//W3C//DTD SVG 1.1//EN"
 "http://www.w3.org/Graphics/SVG/1.1/DTD/svg11.dtd">
<!-- Generated by graphviz version 2.43.0 (0)
 -->
<!-- Title: O_SensorsTest::logger Pages: 1 -->
<svg width="449pt" height="127pt"
 viewBox="0.00 0.00 449.00 126.50" xmlns="http://www.w3.org/2000/svg" xmlns:xlink="http://www.w3.org/1999/xlink">
<g id="graph0" class="graph" transform="scale(1 1) rotate(0) translate(4 122.5)">
<title>O_SensorsTest::logger</title>
<polygon fill="white" stroke="transparent" points="-4,4 -4,-122.5 445,-122.5 445,4 -4,4"/>
<!-- Node1 -->
<g id="node1" class="node">
<title>Node1</title>
<g id="a_node1"><a xlink:title="Retourne le Logger associé à la classe O_SensorsTest.">
<polygon fill="#bfbfbf" stroke="black" points="0,-55 0,-74 124,-74 124,-55 0,-55"/>
<text text-anchor="middle" x="62" y="-62" font-family="Helvetica,sans-Serif" font-size="10.00">O_SensorsTest::logger</text>
</a>
</g>
</g>
<!-- Node2 -->
<g id="node2" class="node">
<title>Node2</title>
<g id="a_node2"><a xlink:href="classlogs_1_1LoggerFactory.html#a82585b5de73e471e06cafdccc3b3721e" target="_top" xlink:title="Cette méthode statique retourne un Logger en fonction de son nom.">
<polygon fill="white" stroke="black" points="160,-49.5 160,-79.5 271,-79.5 271,-49.5 160,-49.5"/>
<text text-anchor="start" x="168" y="-67.5" font-family="Helvetica,sans-Serif" font-size="10.00">logs::LoggerFactory</text>
<text text-anchor="middle" x="215.5" y="-56.5" font-family="Helvetica,sans-Serif" font-size="10.00">::logger</text>
</a>
</g>
</g>
<!-- Node1&#45;&gt;Node2 -->
<g id="edge1" class="edge">
<title>Node1&#45;&gt;Node2</title>
<path fill="none" stroke="midnightblue" d="M124.18,-64.5C132.59,-64.5 141.25,-64.5 149.72,-64.5"/>
<polygon fill="midnightblue" stroke="midnightblue" points="149.93,-68 159.93,-64.5 149.93,-61 149.93,-68"/>
</g>
<!-- Node3 -->
<g id="node3" class="node">
<title>Node3</title>
<g id="a_node3"><a xlink:href="classlogs_1_1LoggerFactory.html#ac89f19c0ffd71aa8cdc1c2d44c03809e" target="_top" xlink:title="Cette méthode ajoute un appender au système.">
<polygon fill="white" stroke="black" points="307,-99 307,-118 441,-118 441,-99 307,-99"/>
<text text-anchor="middle" x="374" y="-106" font-family="Helvetica,sans-Serif" font-size="10.00">logs::LoggerFactory::add</text>
</a>
</g>
</g>
<!-- Node2&#45;&gt;Node3 -->
<g id="edge2" class="edge">
<title>Node2&#45;&gt;Node3</title>
<path fill="none" stroke="midnightblue" d="M269.92,-79.52C289.2,-84.94 310.72,-90.99 329.08,-96.15"/>
<polygon fill="midnightblue" stroke="midnightblue" points="328.36,-99.58 338.93,-98.92 330.25,-92.85 328.36,-99.58"/>
</g>
<!-- Node4 -->
<g id="node4" class="node">
<title>Node4</title>
<g id="a_node4"><a xlink:href="classlogs_1_1LoggerFactory.html#a90478b91d7af2ef8841ded21e3521f69" target="_top" xlink:title="Cette méthode statique retourne l&#39;instance unique de la classe LoggerFactory.">
<polygon fill="white" stroke="black" points="318.5,-49.5 318.5,-79.5 429.5,-79.5 429.5,-49.5 318.5,-49.5"/>
<text text-anchor="start" x="326.5" y="-67.5" font-family="Helvetica,sans-Serif" font-size="10.00">logs::LoggerFactory</text>
<text text-anchor="middle" x="374" y="-56.5" font-family="Helvetica,sans-Serif" font-size="10.00">::instance</text>
</a>
</g>
</g>
<!-- Node2&#45;&gt;Node4 -->
<g id="edge3" class="edge">
<title>Node2&#45;&gt;Node4</title>
<path fill="none" stroke="midnightblue" d="M271.24,-64.5C283.15,-64.5 295.86,-64.5 308.13,-64.5"/>
<polygon fill="midnightblue" stroke="midnightblue" points="308.29,-68 318.29,-64.5 308.29,-61 308.29,-68"/>
</g>
<!-- Node5 -->
<g id="node5" class="node">
<title>Node5</title>
<g id="a_node5"><a xlink:href="classlogs_1_1LoggerFactory.html#a212aa623f4b6bee12cb39e8017dde670" target="_top" xlink:title="Cette méthode retourne le Logger principal qui définit le niveau de trace par défaut.">
<polygon fill="white" stroke="black" points="318.5,-0.5 318.5,-30.5 429.5,-30.5 429.5,-0.5 318.5,-0.5"/>
<text text-anchor="start" x="326.5" y="-18.5" font-family="Helvetica,sans-Serif" font-size="10.00">logs::LoggerFactory</text>
<text text-anchor="middle" x="374" y="-7.5" font-family="Helvetica,sans-Serif" font-size="10.00">::rootLogger</text>
</a>
</g>
</g>
<!-- Node2&#45;&gt;Node5 -->
<g id="edge4" class="edge">
<title>Node2&#45;&gt;Node5</title>
<path fill="none" stroke="midnightblue" d="M264.73,-49.4C280.72,-44.39 298.69,-38.77 315.32,-33.56"/>
<polygon fill="midnightblue" stroke="midnightblue" points="316.43,-36.88 324.93,-30.55 314.34,-30.2 316.43,-36.88"/>
</g>
</g>
</svg>
