<?xml version="1.0" encoding="UTF-8" standalone="no"?>
<!DOCTYPE svg PUBLIC "-//W3C//DTD SVG 1.1//EN"
 "http://www.w3.org/Graphics/SVG/1.1/DTD/svg11.dtd">
<!-- Generated by graphviz version 2.43.0 (0)
 -->
<!-- Title: LedBar::setOn Pages: 1 -->
<svg width="271pt" height="127pt"
 viewBox="0.00 0.00 271.00 126.50" xmlns="http://www.w3.org/2000/svg" xmlns:xlink="http://www.w3.org/1999/xlink">
<g id="graph0" class="graph" transform="scale(1 1) rotate(0) translate(4 122.5)">
<title>LedBar::setOn</title>
<polygon fill="white" stroke="transparent" points="-4,4 -4,-122.5 267,-122.5 267,4 -4,4"/>
<!-- Node1 -->
<g id="node1" class="node">
<title>Node1</title>
<g id="a_node1"><a xlink:title="Active une led spécifique.">
<polygon fill="#bfbfbf" stroke="black" points="178,-44.5 178,-63.5 263,-63.5 263,-44.5 178,-44.5"/>
<text text-anchor="middle" x="220.5" y="-51.5" font-family="Helvetica,sans-Serif" font-size="10.00">LedBar::setOn</text>
</a>
</g>
</g>
<!-- Node2 -->
<g id="node2" class="node">
<title>Node2</title>
<g id="a_node2"><a xlink:href="classOPOS6UL__RobotExtended.html#a9b3f31797fc1916741d6bc61eaf3d1b7" target="_top" xlink:title="Affiche le niveau de détection d&#39;obstacle.">
<polygon fill="white" stroke="black" points="0,-88 0,-118 142,-118 142,-88 0,-88"/>
<text text-anchor="start" x="8" y="-106" font-family="Helvetica,sans-Serif" font-size="10.00">OPOS6UL_RobotExtended</text>
<text text-anchor="middle" x="71" y="-95" font-family="Helvetica,sans-Serif" font-size="10.00">::displayObstacle</text>
</a>
</g>
</g>
<!-- Node1&#45;&gt;Node2 -->
<g id="edge1" class="edge">
<title>Node1&#45;&gt;Node2</title>
<path fill="none" stroke="midnightblue" d="M181.21,-66.72C161.65,-73.22 137.73,-81.16 117.26,-87.96"/>
<polygon fill="midnightblue" stroke="midnightblue" points="182.32,-70.04 190.71,-63.56 180.12,-63.4 182.32,-70.04"/>
</g>
<!-- Node3 -->
<g id="node3" class="node">
<title>Node3</title>
<g id="a_node3"><a xlink:href="classOPOS6UL__RobotExtended.html#a4c7e16c32c1eaa463f577c100f63f618" target="_top" xlink:title="Affiche le statut de trajectoire courant.">
<polygon fill="white" stroke="black" points="0,-39 0,-69 142,-69 142,-39 0,-39"/>
<text text-anchor="start" x="8" y="-57" font-family="Helvetica,sans-Serif" font-size="10.00">OPOS6UL_RobotExtended</text>
<text text-anchor="middle" x="71" y="-46" font-family="Helvetica,sans-Serif" font-size="10.00">::displayTS</text>
</a>
</g>
</g>
<!-- Node1&#45;&gt;Node3 -->
<g id="edge2" class="edge">
<title>Node1&#45;&gt;Node3</title>
<path fill="none" stroke="midnightblue" d="M167.49,-54C159.29,-54 150.69,-54 142.17,-54"/>
<polygon fill="midnightblue" stroke="midnightblue" points="167.63,-57.5 177.63,-54 167.63,-50.5 167.63,-57.5"/>
</g>
<!-- Node4 -->
<g id="node4" class="node">
<title>Node4</title>
<g id="a_node4"><a xlink:href="classO__LedBarTest.html#af9e0e172d13b334cda0fe32bb659b414" target="_top" xlink:title=" ">
<polygon fill="white" stroke="black" points="19,-0.5 19,-19.5 123,-19.5 123,-0.5 19,-0.5"/>
<text text-anchor="middle" x="71" y="-7.5" font-family="Helvetica,sans-Serif" font-size="10.00">O_LedBarTest::run</text>
</a>
</g>
</g>
<!-- Node1&#45;&gt;Node4 -->
<g id="edge3" class="edge">
<title>Node1&#45;&gt;Node4</title>
<path fill="none" stroke="midnightblue" d="M179.58,-41.45C167.52,-37.71 154.23,-33.64 142,-30 130.25,-26.5 117.35,-22.78 105.87,-19.51"/>
<polygon fill="midnightblue" stroke="midnightblue" points="178.78,-44.87 189.37,-44.5 180.86,-38.19 178.78,-44.87"/>
</g>
</g>
</svg>
