<?xml version="1.0" encoding="UTF-8" standalone="no"?>
<!DOCTYPE svg PUBLIC "-//W3C//DTD SVG 1.1//EN"
 "http://www.w3.org/Graphics/SVG/1.1/DTD/svg11.dtd">
<!-- Generated by graphviz version 2.43.0 (0)
 -->
<!-- Title: SvgWriterExtended::writePosition_Bot Pages: 1 -->
<svg width="592pt" height="110pt"
 viewBox="0.00 0.00 592.00 110.00" xmlns="http://www.w3.org/2000/svg" xmlns:xlink="http://www.w3.org/1999/xlink">
<g id="graph0" class="graph" transform="scale(1 1) rotate(0) translate(4 106)">
<title>SvgWriterExtended::writePosition_Bot</title>
<polygon fill="white" stroke="transparent" points="-4,4 -4,-106 588,-106 588,4 -4,4"/>
<!-- Node1 -->
<g id="node1" class="node">
<title>Node1</title>
<g id="a_node1"><a xlink:title="Dessine la position du robot sur le SVG.">
<polygon fill="#bfbfbf" stroke="black" points="0,-36 0,-66 116,-66 116,-36 0,-36"/>
<text text-anchor="start" x="8" y="-54" font-family="Helvetica,sans-Serif" font-size="10.00">SvgWriterExtended::</text>
<text text-anchor="middle" x="58" y="-43" font-family="Helvetica,sans-Serif" font-size="10.00">writePosition_Bot</text>
</a>
</g>
</g>
<!-- Node2 -->
<g id="node2" class="node">
<title>Node2</title>
<g id="a_node2"><a xlink:href="namespacelogs.html#ab465ba9cc0c8042ca19d9c1aeb008578" target="_top" xlink:title=" ">
<polygon fill="white" stroke="black" points="152,-41.5 152,-60.5 218,-60.5 218,-41.5 152,-41.5"/>
<text text-anchor="middle" x="185" y="-48.5" font-family="Helvetica,sans-Serif" font-size="10.00">logs::flush</text>
</a>
</g>
</g>
<!-- Node1&#45;&gt;Node2 -->
<g id="edge1" class="edge">
<title>Node1&#45;&gt;Node2</title>
<path fill="none" stroke="midnightblue" d="M116.01,-51C124.62,-51 133.36,-51 141.58,-51"/>
<polygon fill="midnightblue" stroke="midnightblue" points="141.67,-54.5 151.67,-51 141.67,-47.5 141.67,-54.5"/>
</g>
<!-- Node4 -->
<g id="node4" class="node">
<title>Node4</title>
<g id="a_node4"><a xlink:href="classutils_1_1Mutex.html#aa584b418a5ef484f76b93e361a1d7e32" target="_top" xlink:title="Verrouille le mutex. Cette méthode doit être appelée avant d&#39;utiliser la ressource associée....">
<polygon fill="white" stroke="black" points="458.5,-82.5 458.5,-101.5 559.5,-101.5 559.5,-82.5 458.5,-82.5"/>
<text text-anchor="middle" x="509" y="-89.5" font-family="Helvetica,sans-Serif" font-size="10.00">utils::Mutex::lock</text>
</a>
</g>
</g>
<!-- Node1&#45;&gt;Node4 -->
<g id="edge6" class="edge">
<title>Node1&#45;&gt;Node4</title>
<path fill="none" stroke="midnightblue" d="M116.34,-64.02C128.08,-66.32 140.4,-68.46 152,-70 255.56,-83.71 377.23,-88.9 448.17,-90.85"/>
<polygon fill="midnightblue" stroke="midnightblue" points="448.17,-94.35 458.26,-91.12 448.36,-87.36 448.17,-94.35"/>
</g>
<!-- Node5 -->
<g id="node5" class="node">
<title>Node5</title>
<g id="a_node5"><a xlink:href="classutils_1_1Mutex.html#a59b2079dc7f803d49f78ac9c04406cd3" target="_top" xlink:title="Déverrouille le mutex. Cette méthode doit être appelée après avoir utiliser la ressource associée.">
<polygon fill="white" stroke="black" points="452.5,-0.5 452.5,-19.5 565.5,-19.5 565.5,-0.5 452.5,-0.5"/>
<text text-anchor="middle" x="509" y="-7.5" font-family="Helvetica,sans-Serif" font-size="10.00">utils::Mutex::unlock</text>
</a>
</g>
</g>
<!-- Node1&#45;&gt;Node5 -->
<g id="edge7" class="edge">
<title>Node1&#45;&gt;Node5</title>
<path fill="none" stroke="midnightblue" d="M116.34,-37.98C128.08,-35.68 140.4,-33.54 152,-32 252.64,-18.68 370.37,-13.4 442.04,-11.32"/>
<polygon fill="midnightblue" stroke="midnightblue" points="442.37,-14.81 452.27,-11.04 442.18,-7.81 442.37,-14.81"/>
</g>
<!-- Node3 -->
<g id="node3" class="node">
<title>Node3</title>
<g id="a_node3"><a xlink:href="classlogs_1_1Logger_1_1LoggerBuffer.html#aee16dd078779a8154f1b3d7238748a6f" target="_top" xlink:title=" ">
<polygon fill="white" stroke="black" points="254,-36 254,-66 398,-66 398,-36 254,-36"/>
<text text-anchor="start" x="262" y="-54" font-family="Helvetica,sans-Serif" font-size="10.00">logs::Logger::LoggerBuffer</text>
<text text-anchor="middle" x="326" y="-43" font-family="Helvetica,sans-Serif" font-size="10.00">::flush</text>
</a>
</g>
</g>
<!-- Node2&#45;&gt;Node3 -->
<g id="edge2" class="edge">
<title>Node2&#45;&gt;Node3</title>
<path fill="none" stroke="midnightblue" d="M218.24,-51C226.05,-51 234.75,-51 243.71,-51"/>
<polygon fill="midnightblue" stroke="midnightblue" points="243.92,-54.5 253.92,-51 243.92,-47.5 243.92,-54.5"/>
</g>
<!-- Node3&#45;&gt;Node4 -->
<g id="edge3" class="edge">
<title>Node3&#45;&gt;Node4</title>
<path fill="none" stroke="midnightblue" d="M393.37,-66.03C413.99,-70.7 436.41,-75.78 455.91,-80.2"/>
<polygon fill="midnightblue" stroke="midnightblue" points="455.29,-83.65 465.82,-82.45 456.84,-76.82 455.29,-83.65"/>
</g>
<!-- Node3&#45;&gt;Node5 -->
<g id="edge4" class="edge">
<title>Node3&#45;&gt;Node5</title>
<path fill="none" stroke="midnightblue" d="M393.37,-35.97C413.99,-31.3 436.41,-26.22 455.91,-21.8"/>
<polygon fill="midnightblue" stroke="midnightblue" points="456.84,-25.18 465.82,-19.55 455.29,-18.35 456.84,-25.18"/>
</g>
<!-- Node6 -->
<g id="node6" class="node">
<title>Node6</title>
<g id="a_node6"><a xlink:href="classlogs_1_1Logger.html#afa535aaf4891e02c4ff7f84d372b5b1b" target="_top" xlink:title="Méthode générique de trace d&#39;un message.">
<polygon fill="white" stroke="black" points="434,-41.5 434,-60.5 584,-60.5 584,-41.5 434,-41.5"/>
<text text-anchor="middle" x="509" y="-48.5" font-family="Helvetica,sans-Serif" font-size="10.00">logs::Logger::writeMessage</text>
</a>
</g>
</g>
<!-- Node3&#45;&gt;Node6 -->
<g id="edge5" class="edge">
<title>Node3&#45;&gt;Node6</title>
<path fill="none" stroke="midnightblue" d="M398.02,-51C406.49,-51 415.2,-51 423.83,-51"/>
<polygon fill="midnightblue" stroke="midnightblue" points="423.91,-54.5 433.91,-51 423.91,-47.5 423.91,-54.5"/>
</g>
</g>
</svg>
