<?xml version="1.0" encoding="UTF-8" standalone="no"?>
<!DOCTYPE svg PUBLIC "-//W3C//DTD SVG 1.1//EN"
 "http://www.w3.org/Graphics/SVG/1.1/DTD/svg11.dtd">
<!-- Generated by graphviz version 2.43.0 (0)
 -->
<!-- Title: test::SensorDriverManualTest::SensorDriverManualTest Pages: 1 -->
<svg width="511pt" height="78pt"
 viewBox="0.00 0.00 511.00 77.50" xmlns="http://www.w3.org/2000/svg" xmlns:xlink="http://www.w3.org/1999/xlink">
<g id="graph0" class="graph" transform="scale(1 1) rotate(0) translate(4 73.5)">
<title>test::SensorDriverManualTest::SensorDriverManualTest</title>
<polygon fill="white" stroke="transparent" points="-4,4 -4,-73.5 507,-73.5 507,4 -4,4"/>
<!-- Node1 -->
<g id="node1" class="node">
<title>Node1</title>
<g id="a_node1"><a xlink:title="Constructeur de la classe.">
<polygon fill="#bfbfbf" stroke="black" points="0,-17 0,-47 161,-47 161,-17 0,-17"/>
<text text-anchor="start" x="8" y="-35" font-family="Helvetica,sans-Serif" font-size="10.00">test::SensorDriverManual</text>
<text text-anchor="middle" x="80.5" y="-24" font-family="Helvetica,sans-Serif" font-size="10.00">Test::SensorDriverManualTest</text>
</a>
</g>
</g>
<!-- Node2 -->
<g id="node2" class="node">
<title>Node2</title>
<g id="a_node2"><a xlink:href="classARobotPositionShared.html#acd966e47c8b3b6978398100b6c9f3f38" target="_top" xlink:title="Cree l&#39;instance concrete selon la plateforme.">
<polygon fill="white" stroke="black" points="198.5,-39 198.5,-69 323.5,-69 323.5,-39 198.5,-39"/>
<text text-anchor="start" x="206.5" y="-57" font-family="Helvetica,sans-Serif" font-size="10.00">ARobotPositionShared</text>
<text text-anchor="middle" x="261" y="-46" font-family="Helvetica,sans-Serif" font-size="10.00">::create</text>
</a>
</g>
</g>
<!-- Node1&#45;&gt;Node2 -->
<g id="edge1" class="edge">
<title>Node1&#45;&gt;Node2</title>
<path fill="none" stroke="midnightblue" d="M161.09,-41.81C170.14,-42.93 179.33,-44.06 188.27,-45.16"/>
<polygon fill="midnightblue" stroke="midnightblue" points="187.89,-48.64 198.24,-46.39 188.74,-41.69 187.89,-48.64"/>
</g>
<!-- Node3 -->
<g id="node3" class="node">
<title>Node3</title>
<g id="a_node3"><a xlink:href="classASensorsDriver.html#ab518d3654db6d8683136df8455a67601" target="_top" xlink:title="Cree l&#39;instance concrete selon la plateforme.">
<polygon fill="white" stroke="black" points="197,-0.5 197,-19.5 325,-19.5 325,-0.5 197,-0.5"/>
<text text-anchor="middle" x="261" y="-7.5" font-family="Helvetica,sans-Serif" font-size="10.00">ASensorsDriver::create</text>
</a>
</g>
</g>
<!-- Node1&#45;&gt;Node3 -->
<g id="edge2" class="edge">
<title>Node1&#45;&gt;Node3</title>
<path fill="none" stroke="midnightblue" d="M161.09,-22.19C169.62,-21.14 178.26,-20.07 186.71,-19.03"/>
<polygon fill="midnightblue" stroke="midnightblue" points="187.4,-22.47 196.9,-17.78 186.54,-15.53 187.4,-22.47"/>
</g>
<!-- Node4 -->
<g id="node4" class="node">
<title>Node4</title>
<g id="a_node4"><a xlink:href="classHardwareConfig.html#ac025d3170ffc737f6ac5335e944ed19f" target="_top" xlink:title="Retourne l&#39;instance unique.">
<polygon fill="white" stroke="black" points="361,-0.5 361,-19.5 503,-19.5 503,-0.5 361,-0.5"/>
<text text-anchor="middle" x="432" y="-7.5" font-family="Helvetica,sans-Serif" font-size="10.00">HardwareConfig::instance</text>
</a>
</g>
</g>
<!-- Node3&#45;&gt;Node4 -->
<g id="edge3" class="edge">
<title>Node3&#45;&gt;Node4</title>
<path fill="none" stroke="midnightblue" d="M325.41,-10C333.76,-10 342.4,-10 350.98,-10"/>
<polygon fill="midnightblue" stroke="midnightblue" points="351,-13.5 361,-10 351,-6.5 351,-13.5"/>
</g>
</g>
</svg>
