<?xml version="1.0" encoding="UTF-8" standalone="no"?>
<!DOCTYPE svg PUBLIC "-//W3C//DTD SVG 1.1//EN"
 "http://www.w3.org/Graphics/SVG/1.1/DTD/svg11.dtd">
<!-- Generated by graphviz version 2.43.0 (0)
 -->
<!-- Title: OPOS6UL_ActionsExtended::buttonBar Pages: 1 -->
<svg width="334pt" height="192pt"
 viewBox="0.00 0.00 334.00 192.00" xmlns="http://www.w3.org/2000/svg" xmlns:xlink="http://www.w3.org/1999/xlink">
<g id="graph0" class="graph" transform="scale(1 1) rotate(0) translate(4 188)">
<title>OPOS6UL_ActionsExtended::buttonBar</title>
<polygon fill="white" stroke="transparent" points="-4,4 -4,-188 330,-188 330,4 -4,4"/>
<!-- Node1 -->
<g id="node1" class="node">
<title>Node1</title>
<g id="a_node1"><a xlink:title="Retourne l&#39;objet ButtonBar.">
<polygon fill="#bfbfbf" stroke="black" points="177,-71 177,-101 326,-101 326,-71 177,-71"/>
<text text-anchor="start" x="185" y="-89" font-family="Helvetica,sans-Serif" font-size="10.00">OPOS6UL_ActionsExtended</text>
<text text-anchor="middle" x="251.5" y="-78" font-family="Helvetica,sans-Serif" font-size="10.00">::buttonBar</text>
</a>
</g>
</g>
<!-- Node2 -->
<g id="node2" class="node">
<title>Node2</title>
<g id="a_node2"><a xlink:href="classO__State__Init.html#abc19788b7457d1f819245dd28367fe91" target="_top" xlink:title="Exécute l&#39;état d&#39;initialisation.">
<polygon fill="white" stroke="black" points="10.5,-164.5 10.5,-183.5 130.5,-183.5 130.5,-164.5 10.5,-164.5"/>
<text text-anchor="middle" x="70.5" y="-171.5" font-family="Helvetica,sans-Serif" font-size="10.00">O_State_Init::execute</text>
</a>
</g>
</g>
<!-- Node1&#45;&gt;Node2 -->
<g id="edge1" class="edge">
<title>Node1&#45;&gt;Node2</title>
<path fill="none" stroke="midnightblue" d="M222.24,-107.09C200.87,-122.22 170.28,-142.11 141,-155 132.53,-158.73 123.15,-161.89 114.09,-164.5"/>
<polygon fill="midnightblue" stroke="midnightblue" points="224.45,-109.82 230.53,-101.15 220.36,-104.14 224.45,-109.82"/>
</g>
<!-- Node3 -->
<g id="node3" class="node">
<title>Node3</title>
<g id="a_node3"><a xlink:href="classO__State__WaitEndOfMatch.html#aa73613440b37c8dd42181e2e0265ae86" target="_top" xlink:title="Exécute l&#39;état d&#39;attente de fin de match.">
<polygon fill="white" stroke="black" points="0,-115 0,-145 141,-145 141,-115 0,-115"/>
<text text-anchor="start" x="8" y="-133" font-family="Helvetica,sans-Serif" font-size="10.00">O_State_WaitEndOfMatch</text>
<text text-anchor="middle" x="70.5" y="-122" font-family="Helvetica,sans-Serif" font-size="10.00">::execute</text>
</a>
</g>
</g>
<!-- Node1&#45;&gt;Node3 -->
<g id="edge2" class="edge">
<title>Node1&#45;&gt;Node3</title>
<path fill="none" stroke="midnightblue" d="M179.37,-103.49C163.9,-107.29 147.67,-111.28 132.63,-114.97"/>
<polygon fill="midnightblue" stroke="midnightblue" points="180.52,-106.81 189.4,-101.02 178.85,-100.01 180.52,-106.81"/>
</g>
<!-- Node4 -->
<g id="node4" class="node">
<title>Node4</title>
<g id="a_node4"><a xlink:href="classO__ButtonBarTest.html#a444c3618a504b59d0236b4b530f463e1" target="_top" xlink:title="Execute le test.">
<polygon fill="white" stroke="black" points="11,-76.5 11,-95.5 130,-95.5 130,-76.5 11,-76.5"/>
<text text-anchor="middle" x="70.5" y="-83.5" font-family="Helvetica,sans-Serif" font-size="10.00">O_ButtonBarTest::run</text>
</a>
</g>
</g>
<!-- Node1&#45;&gt;Node4 -->
<g id="edge3" class="edge">
<title>Node1&#45;&gt;Node4</title>
<path fill="none" stroke="midnightblue" d="M166.59,-86C154.23,-86 141.73,-86 130.04,-86"/>
<polygon fill="midnightblue" stroke="midnightblue" points="166.92,-89.5 176.92,-86 166.92,-82.5 166.92,-89.5"/>
</g>
<!-- Node5 -->
<g id="node5" class="node">
<title>Node5</title>
<g id="a_node5"><a xlink:href="classO__ServoObjectsTest.html#aabfa9ba518070128940062ed11028ca7" target="_top" xlink:title="Execute le test.">
<polygon fill="white" stroke="black" points="3,-38.5 3,-57.5 138,-57.5 138,-38.5 3,-38.5"/>
<text text-anchor="middle" x="70.5" y="-45.5" font-family="Helvetica,sans-Serif" font-size="10.00">O_ServoObjectsTest::run</text>
</a>
</g>
</g>
<!-- Node1&#45;&gt;Node5 -->
<g id="edge4" class="edge">
<title>Node1&#45;&gt;Node5</title>
<path fill="none" stroke="midnightblue" d="M169.89,-68.89C151.46,-64.98 132.53,-60.96 116.25,-57.5"/>
<polygon fill="midnightblue" stroke="midnightblue" points="169.25,-72.33 179.75,-70.98 170.7,-65.48 169.25,-72.33"/>
</g>
<!-- Node6 -->
<g id="node6" class="node">
<title>Node6</title>
<g id="a_node6"><a xlink:href="classO__ServoStepTest.html#aefbe5c17504e0782e71a6ca13ed40518" target="_top" xlink:title="Execute le test.">
<polygon fill="white" stroke="black" points="10.5,-0.5 10.5,-19.5 130.5,-19.5 130.5,-0.5 10.5,-0.5"/>
<text text-anchor="middle" x="70.5" y="-7.5" font-family="Helvetica,sans-Serif" font-size="10.00">O_ServoStepTest::run</text>
</a>
</g>
</g>
<!-- Node1&#45;&gt;Node6 -->
<g id="edge5" class="edge">
<title>Node1&#45;&gt;Node6</title>
<path fill="none" stroke="midnightblue" d="M216.21,-65.74C195.06,-53.85 167.07,-39.22 141,-29 131.8,-25.4 121.66,-22.21 112.03,-19.52"/>
<polygon fill="midnightblue" stroke="midnightblue" points="214.7,-68.9 225.12,-70.81 218.16,-62.82 214.7,-68.9"/>
</g>
</g>
</svg>
