<?xml version="1.0" encoding="UTF-8" standalone="no"?>
<!DOCTYPE svg PUBLIC "-//W3C//DTD SVG 1.1//EN"
 "http://www.w3.org/Graphics/SVG/1.1/DTD/svg11.dtd">
<!-- Generated by graphviz version 2.43.0 (0)
 -->
<!-- Title: DynamixelDriver::release Pages: 1 -->
<!--zoomable 394 -->
<svg id="main" version="1.1" xmlns="http://www.w3.org/2000/svg" xmlns:xlink="http://www.w3.org/1999/xlink" xml:space="preserve" onload="init(evt)">
<style type="text/css"><![CDATA[
.edge:hover path { stroke: red; }
.edge:hover polygon { stroke: red; fill: red; }
]]></style>
<script type="text/javascript"><![CDATA[
var edges = document.getElementsByTagName('g');
if (edges && edges.length) {
  for (var i=0;i<edges.length;i++) {
    if (edges[i].id.substr(0,4)=='edge') {
      edges[i].setAttribute('class','edge');
    }
  }
}
]]></script>
        <defs>
                <circle id="rim" cx="0" cy="0" r="7"/>
                <circle id="rim2" cx="0" cy="0" r="3.5"/>
                <g id="zoomPlus">
                        <use xlink:href="#rim" fill="#404040">
                                <set attributeName="fill" to="#808080" begin="zoomplus.mouseover" end="zoomplus.mouseout"/>
                        </use>
                        <path d="M-4,0h8M0,-4v8" fill="none" stroke="white" stroke-width="1.5" pointer-events="none"/>
                </g>
                <g id="zoomMin">
                        <use xlink:href="#rim" fill="#404040">
                                <set attributeName="fill" to="#808080" begin="zoomminus.mouseover" end="zoomminus.mouseout"/>
                        </use>
                        <path d="M-4,0h8" fill="none" stroke="white" stroke-width="1.5" pointer-events="none"/>
                </g>
                <g id="dirArrow">
                        <path fill="none" stroke="white" stroke-width="1.5" d="M0,-3.0v7 M-2.5,-0.5L0,-3.0L2.5,-0.5"/>
                </g>
               <g id="resetDef">
                       <use xlink:href="#rim2" fill="#404040">
                               <set attributeName="fill" to="#808080" begin="reset.mouseover" end="reset.mouseout"/>
                       </use>
               </g>
        </defs>

<script type="text/javascript">
var viewWidth = 905;
var viewHeight = 394;
var sectionId = 'dynsection-13';
</script>
<script xlink:href="svgpan.js"/>
<svg id="graph" class="graph">
<g id="viewport">
<title>DynamixelDriver::release</title>
<polygon fill="white" stroke="transparent" points="-4,4 -4,-389.5 901,-389.5 901,4 -4,4"/>
<!-- Node1 -->
<g id="node1" class="node">
<title>Node1</title>
<g id="a_node1"><a xlink:title="Relache le servo (desactive le couple).">
<polygon fill="#bfbfbf" stroke="black" points="0,-205 0,-224 141,-224 141,-205 0,-205"/>
<text text-anchor="middle" x="70.5" y="-212" font-family="Helvetica,sans-Serif" font-size="10.00">DynamixelDriver::release</text>
</a>
</g>
</g>
<!-- Node2 -->
<g id="node2" class="node">
<title>Node2</title>
<g id="a_node2"><a xlink:href="classlogs_1_1Logger.html#a7dffc8f610014ec59b63392da16140e4" target="_top" xlink:title="Trace un message de niveau DEBUG.">
<polygon fill="white" stroke="black" points="191,-366 191,-385 303,-385 303,-366 191,-366"/>
<text text-anchor="middle" x="247" y="-373" font-family="Helvetica,sans-Serif" font-size="10.00">logs::Logger::debug</text>
</a>
</g>
</g>
<!-- Node1&#45;&gt;Node2 -->
<g id="edge1" class="edge">
<title>Node1&#45;&gt;Node2</title>
<path fill="none" stroke="midnightblue" d="M79.8,-224.02C97.03,-243.58 138.32,-289.32 177,-323.5 191.84,-336.62 209.74,-350.04 223.58,-359.96"/>
<polygon fill="midnightblue" stroke="midnightblue" points="221.84,-363.02 232.02,-365.94 225.88,-357.3 221.84,-363.02"/>
</g>
<!-- Node4 -->
<g id="node4" class="node">
<title>Node4</title>
<g id="a_node4"><a xlink:href="namespacelogs.html#ac6f325c6cfe6189bc8e243daa184453b" target="_top" xlink:title="Cette méthode permet de finir les flux de construction par la notation.">
<polygon fill="white" stroke="black" points="399.5,-343 399.5,-362 460.5,-362 460.5,-343 399.5,-343"/>
<text text-anchor="middle" x="430" y="-350" font-family="Helvetica,sans-Serif" font-size="10.00">logs::end</text>
</a>
</g>
</g>
<!-- Node1&#45;&gt;Node4 -->
<g id="edge3" class="edge">
<title>Node1&#45;&gt;Node4</title>
<path fill="none" stroke="midnightblue" d="M93.53,-224.12C140.67,-244.54 255.01,-293.25 353,-328.5 364.8,-332.74 377.77,-336.99 389.6,-340.71"/>
<polygon fill="midnightblue" stroke="midnightblue" points="388.63,-344.07 399.22,-343.69 390.71,-337.39 388.63,-344.07"/>
</g>
<!-- Node8 -->
<g id="node8" class="node">
<title>Node8</title>
<g id="a_node8"><a xlink:href="classCCAx12Adc.html#a37d9e4779ae37994fec1f41d55cea0e8" target="_top" xlink:title=" ">
<polygon fill="white" stroke="black" points="567,-134 567,-153 687,-153 687,-134 567,-134"/>
<text text-anchor="middle" x="627" y="-141" font-family="Helvetica,sans-Serif" font-size="10.00">CCAx12Adc::instance</text>
</a>
</g>
</g>
<!-- Node1&#45;&gt;Node8 -->
<g id="edge8" class="edge">
<title>Node1&#45;&gt;Node8</title>
<path fill="none" stroke="midnightblue" d="M120.77,-204.96C138.46,-201.72 158.59,-198.22 177,-195.5 310.85,-175.72 468.08,-158.99 556.48,-150.18"/>
<polygon fill="midnightblue" stroke="midnightblue" points="557.04,-153.64 566.65,-149.17 556.35,-146.68 557.04,-153.64"/>
</g>
<!-- Node9 -->
<g id="node9" class="node">
<title>Node9</title>
<g id="a_node9"><a xlink:href="classDynamixelDriver.html#ae68af606a63d02ee0e7d1eba78efa79f" target="_top" xlink:title="Retourne le Logger associé à la classe DynamixelDriver(OPOS6UL).">
<polygon fill="white" stroke="black" points="179,-58 179,-77 315,-77 315,-58 179,-58"/>
<text text-anchor="middle" x="247" y="-65" font-family="Helvetica,sans-Serif" font-size="10.00">DynamixelDriver::logger</text>
</a>
</g>
</g>
<!-- Node1&#45;&gt;Node9 -->
<g id="edge9" class="edge">
<title>Node1&#45;&gt;Node9</title>
<path fill="none" stroke="midnightblue" d="M82.95,-204.85C112.15,-180.26 189.68,-114.95 226.3,-84.09"/>
<polygon fill="midnightblue" stroke="midnightblue" points="228.89,-86.49 234.28,-77.37 224.38,-81.14 228.89,-86.49"/>
</g>
<!-- Node14 -->
<g id="node14" class="node">
<title>Node14</title>
<g id="a_node14"><a xlink:href="classCCAx12Adc.html#a6a505e9a0944b62ec52f59a9ec8085fe" target="_top" xlink:title=" ">
<polygon fill="white" stroke="black" points="177,-205 177,-224 317,-224 317,-205 177,-205"/>
<text text-anchor="middle" x="247" y="-212" font-family="Helvetica,sans-Serif" font-size="10.00">CCAx12Adc::writeAXData</text>
</a>
</g>
</g>
<!-- Node1&#45;&gt;Node14 -->
<g id="edge14" class="edge">
<title>Node1&#45;&gt;Node14</title>
<path fill="none" stroke="midnightblue" d="M141.22,-214.5C149.68,-214.5 158.37,-214.5 166.95,-214.5"/>
<polygon fill="midnightblue" stroke="midnightblue" points="166.96,-218 176.96,-214.5 166.96,-211 166.96,-218"/>
</g>
<!-- Node3 -->
<g id="node3" class="node">
<title>Node3</title>
<g id="a_node3"><a xlink:href="classlogs_1_1Logger.html#afa535aaf4891e02c4ff7f84d372b5b1b" target="_top" xlink:title="Méthode générique de trace d&#39;un message.">
<polygon fill="white" stroke="black" points="747,-343 747,-362 897,-362 897,-343 747,-343"/>
<text text-anchor="middle" x="822" y="-350" font-family="Helvetica,sans-Serif" font-size="10.00">logs::Logger::writeMessage</text>
</a>
</g>
</g>
<!-- Node2&#45;&gt;Node3 -->
<g id="edge2" class="edge">
<title>Node2&#45;&gt;Node3</title>
<path fill="none" stroke="midnightblue" d="M303.02,-377.9C389.9,-381.05 564.09,-384.73 711,-371.5 728.91,-369.89 748.29,-366.95 765.72,-363.85"/>
<polygon fill="midnightblue" stroke="midnightblue" points="766.52,-367.27 775.73,-362.02 765.26,-360.38 766.52,-367.27"/>
</g>
<!-- Node5 -->
<g id="node5" class="node">
<title>Node5</title>
<g id="a_node5"><a xlink:href="classlogs_1_1Logger_1_1LoggerBuffer.html#a0e4fd77693fd899ec1b0670354f93a02" target="_top" xlink:title="Cette méthode valide le message en cours de construction et le transmet au Logger de référence.">
<polygon fill="white" stroke="black" points="543,-305 543,-324 711,-324 711,-305 543,-305"/>
<text text-anchor="middle" x="627" y="-312" font-family="Helvetica,sans-Serif" font-size="10.00">logs::Logger::LoggerBuffer::end</text>
</a>
</g>
</g>
<!-- Node4&#45;&gt;Node5 -->
<g id="edge4" class="edge">
<title>Node4&#45;&gt;Node5</title>
<path fill="none" stroke="midnightblue" d="M460.62,-346.73C488.74,-341.25 531.82,-332.85 566.96,-326.01"/>
<polygon fill="midnightblue" stroke="midnightblue" points="567.97,-329.38 577.11,-324.03 566.63,-322.5 567.97,-329.38"/>
</g>
<!-- Node5&#45;&gt;Node3 -->
<g id="edge7" class="edge">
<title>Node5&#45;&gt;Node3</title>
<path fill="none" stroke="midnightblue" d="M676.7,-324.09C702.86,-329.24 735.28,-335.62 762.77,-341.03"/>
<polygon fill="midnightblue" stroke="midnightblue" points="762.16,-344.48 772.65,-342.98 763.51,-337.61 762.16,-344.48"/>
</g>
<!-- Node6 -->
<g id="node6" class="node">
<title>Node6</title>
<g id="a_node6"><a xlink:href="classutils_1_1Mutex.html#aa584b418a5ef484f76b93e361a1d7e32" target="_top" xlink:title="Verrouille le mutex. Cette méthode doit être appelée avant d&#39;utiliser la ressource associée....">
<polygon fill="white" stroke="black" points="771.5,-296 771.5,-315 872.5,-315 872.5,-296 771.5,-296"/>
<text text-anchor="middle" x="822" y="-303" font-family="Helvetica,sans-Serif" font-size="10.00">utils::Mutex::lock</text>
</a>
</g>
</g>
<!-- Node5&#45;&gt;Node6 -->
<g id="edge5" class="edge">
<title>Node5&#45;&gt;Node6</title>
<path fill="none" stroke="midnightblue" d="M711.25,-310.62C728.07,-309.83 745.44,-309.02 761.26,-308.29"/>
<polygon fill="midnightblue" stroke="midnightblue" points="761.58,-311.77 771.41,-307.81 761.26,-304.78 761.58,-311.77"/>
</g>
<!-- Node7 -->
<g id="node7" class="node">
<title>Node7</title>
<g id="a_node7"><a xlink:href="classutils_1_1Mutex.html#a59b2079dc7f803d49f78ac9c04406cd3" target="_top" xlink:title="Déverrouille le mutex. Cette méthode doit être appelée après avoir utiliser la ressource associée.">
<polygon fill="white" stroke="black" points="765.5,-239 765.5,-258 878.5,-258 878.5,-239 765.5,-239"/>
<text text-anchor="middle" x="822" y="-246" font-family="Helvetica,sans-Serif" font-size="10.00">utils::Mutex::unlock</text>
</a>
</g>
</g>
<!-- Node5&#45;&gt;Node7 -->
<g id="edge6" class="edge">
<title>Node5&#45;&gt;Node7</title>
<path fill="none" stroke="midnightblue" d="M656.06,-304.9C689.75,-293.38 746.36,-274.03 783.7,-261.26"/>
<polygon fill="midnightblue" stroke="midnightblue" points="784.89,-264.55 793.22,-258 782.62,-257.93 784.89,-264.55"/>
</g>
<!-- Node10 -->
<g id="node10" class="node">
<title>Node10</title>
<g id="a_node10"><a xlink:href="classlogs_1_1LoggerFactory.html#a82585b5de73e471e06cafdccc3b3721e" target="_top" xlink:title="Cette méthode statique retourne un Logger en fonction de son nom.">
<polygon fill="white" stroke="black" points="571.5,-49.5 571.5,-79.5 682.5,-79.5 682.5,-49.5 571.5,-49.5"/>
<text text-anchor="start" x="579.5" y="-67.5" font-family="Helvetica,sans-Serif" font-size="10.00">logs::LoggerFactory</text>
<text text-anchor="middle" x="627" y="-56.5" font-family="Helvetica,sans-Serif" font-size="10.00">::logger</text>
</a>
</g>
</g>
<!-- Node9&#45;&gt;Node10 -->
<g id="edge10" class="edge">
<title>Node9&#45;&gt;Node10</title>
<path fill="none" stroke="midnightblue" d="M267.95,-57.91C288.65,-48.53 322.26,-34.89 353,-29.5 420.42,-17.68 439.25,-19.74 507,-29.5 530.09,-32.83 554.95,-39.61 575.95,-46.32"/>
<polygon fill="midnightblue" stroke="midnightblue" points="575.02,-49.7 585.61,-49.49 577.2,-43.05 575.02,-49.7"/>
</g>
<!-- Node11 -->
<g id="node11" class="node">
<title>Node11</title>
<g id="a_node11"><a xlink:href="classlogs_1_1LoggerFactory.html#ac89f19c0ffd71aa8cdc1c2d44c03809e" target="_top" xlink:title="Cette méthode ajoute un appender au système.">
<polygon fill="white" stroke="black" points="755,-99 755,-118 889,-118 889,-99 755,-99"/>
<text text-anchor="middle" x="822" y="-106" font-family="Helvetica,sans-Serif" font-size="10.00">logs::LoggerFactory::add</text>
</a>
</g>
</g>
<!-- Node10&#45;&gt;Node11 -->
<g id="edge11" class="edge">
<title>Node10&#45;&gt;Node11</title>
<path fill="none" stroke="midnightblue" d="M682.53,-76.93C709.71,-83.13 742.41,-90.58 769.21,-96.69"/>
<polygon fill="midnightblue" stroke="midnightblue" points="768.64,-100.15 779.16,-98.96 770.19,-93.33 768.64,-100.15"/>
</g>
<!-- Node12 -->
<g id="node12" class="node">
<title>Node12</title>
<g id="a_node12"><a xlink:href="classlogs_1_1LoggerFactory.html#a90478b91d7af2ef8841ded21e3521f69" target="_top" xlink:title="Cette méthode statique retourne l&#39;instance unique de la classe LoggerFactory.">
<polygon fill="white" stroke="black" points="766.5,-49.5 766.5,-79.5 877.5,-79.5 877.5,-49.5 766.5,-49.5"/>
<text text-anchor="start" x="774.5" y="-67.5" font-family="Helvetica,sans-Serif" font-size="10.00">logs::LoggerFactory</text>
<text text-anchor="middle" x="822" y="-56.5" font-family="Helvetica,sans-Serif" font-size="10.00">::instance</text>
</a>
</g>
</g>
<!-- Node10&#45;&gt;Node12 -->
<g id="edge12" class="edge">
<title>Node10&#45;&gt;Node12</title>
<path fill="none" stroke="midnightblue" d="M682.53,-64.5C705.45,-64.5 732.3,-64.5 756.22,-64.5"/>
<polygon fill="midnightblue" stroke="midnightblue" points="756.27,-68 766.27,-64.5 756.27,-61 756.27,-68"/>
</g>
<!-- Node13 -->
<g id="node13" class="node">
<title>Node13</title>
<g id="a_node13"><a xlink:href="classlogs_1_1LoggerFactory.html#a212aa623f4b6bee12cb39e8017dde670" target="_top" xlink:title="Cette méthode retourne le Logger principal qui définit le niveau de trace par défaut.">
<polygon fill="white" stroke="black" points="766.5,-0.5 766.5,-30.5 877.5,-30.5 877.5,-0.5 766.5,-0.5"/>
<text text-anchor="start" x="774.5" y="-18.5" font-family="Helvetica,sans-Serif" font-size="10.00">logs::LoggerFactory</text>
<text text-anchor="middle" x="822" y="-7.5" font-family="Helvetica,sans-Serif" font-size="10.00">::rootLogger</text>
</a>
</g>
</g>
<!-- Node10&#45;&gt;Node13 -->
<g id="edge13" class="edge">
<title>Node10&#45;&gt;Node13</title>
<path fill="none" stroke="midnightblue" d="M682.53,-50.66C705.56,-44.81 732.54,-37.96 756.54,-31.87"/>
<polygon fill="midnightblue" stroke="midnightblue" points="757.44,-35.25 766.27,-29.4 755.71,-28.46 757.44,-35.25"/>
</g>
<!-- Node14&#45;&gt;Node4 -->
<g id="edge15" class="edge">
<title>Node14&#45;&gt;Node4</title>
<path fill="none" stroke="midnightblue" d="M255.77,-224.15C275.87,-248.88 329.61,-313.63 353,-328.5 363.95,-335.46 377.07,-340.54 389.3,-344.18"/>
<polygon fill="midnightblue" stroke="midnightblue" points="388.74,-347.66 399.31,-346.92 390.58,-340.9 388.74,-347.66"/>
</g>
<!-- Node14&#45;&gt;Node6 -->
<g id="edge19" class="edge">
<title>Node14&#45;&gt;Node6</title>
<path fill="none" stroke="midnightblue" d="M286.24,-224.04C306.08,-228.78 330.75,-234.37 353,-238.5 498.89,-265.57 672.12,-287.82 761.32,-298.56"/>
<polygon fill="midnightblue" stroke="midnightblue" points="760.91,-302.03 771.25,-299.75 761.74,-295.08 760.91,-302.03"/>
</g>
<!-- Node14&#45;&gt;Node7 -->
<g id="edge24" class="edge">
<title>Node14&#45;&gt;Node7</title>
<path fill="none" stroke="midnightblue" d="M317.12,-218.6C428.42,-225.21 645.92,-238.11 755.12,-244.59"/>
<polygon fill="midnightblue" stroke="midnightblue" points="755.16,-248.1 765.35,-245.2 755.57,-241.11 755.16,-248.1"/>
</g>
<!-- Node15 -->
<g id="node15" class="node">
<title>Node15</title>
<g id="a_node15"><a xlink:href="classlogs_1_1Logger.html#a8b6a2019233bc44b3c3c86c653910831" target="_top" xlink:title="Trace un message de niveau ERROR.">
<polygon fill="white" stroke="black" points="574.5,-343 574.5,-362 679.5,-362 679.5,-343 574.5,-343"/>
<text text-anchor="middle" x="627" y="-350" font-family="Helvetica,sans-Serif" font-size="10.00">logs::Logger::error</text>
</a>
</g>
</g>
<!-- Node14&#45;&gt;Node15 -->
<g id="edge16" class="edge">
<title>Node14&#45;&gt;Node15</title>
<path fill="none" stroke="midnightblue" d="M266.62,-224.01C280.95,-231.69 300.96,-243.21 317,-255.5 334.71,-269.07 333.39,-279.85 353,-290.5 388.93,-310 495.53,-330.65 564.4,-342.51"/>
<polygon fill="midnightblue" stroke="midnightblue" points="563.83,-345.96 574.27,-344.2 565.01,-339.06 563.83,-345.96"/>
</g>
<!-- Node16 -->
<g id="node16" class="node">
<title>Node16</title>
<g id="a_node16"><a xlink:href="classCCAx12Adc.html#ae2505b4c563dc13b7b43aa6deba3ecd5" target="_top" xlink:title=" ">
<polygon fill="white" stroke="black" points="353,-191 353,-210 507,-210 507,-191 353,-191"/>
<text text-anchor="middle" x="430" y="-198" font-family="Helvetica,sans-Serif" font-size="10.00">CCAx12Adc::getAddressSize</text>
</a>
</g>
</g>
<!-- Node14&#45;&gt;Node16 -->
<g id="edge18" class="edge">
<title>Node14&#45;&gt;Node16</title>
<path fill="none" stroke="midnightblue" d="M317.2,-209.15C325.6,-208.5 334.25,-207.83 342.85,-207.16"/>
<polygon fill="midnightblue" stroke="midnightblue" points="343.2,-210.65 352.9,-206.39 342.66,-203.67 343.2,-210.65"/>
</g>
<!-- Node17 -->
<g id="node17" class="node">
<title>Node17</title>
<g id="a_node17"><a xlink:href="classCCAx12Adc.html#ac422de853567b6e7f5b762a7d40ce2e7" target="_top" xlink:title="Retourne le Logger associé à la classe CCAx12Adc (OPOS6UL).">
<polygon fill="white" stroke="black" points="375,-115 375,-134 485,-134 485,-115 375,-115"/>
<text text-anchor="middle" x="430" y="-122" font-family="Helvetica,sans-Serif" font-size="10.00">CCAx12Adc::logger</text>
</a>
</g>
</g>
<!-- Node14&#45;&gt;Node17 -->
<g id="edge20" class="edge">
<title>Node14&#45;&gt;Node17</title>
<path fill="none" stroke="midnightblue" d="M267.37,-204.87C299.35,-188.97 363.34,-157.15 400.49,-138.67"/>
<polygon fill="midnightblue" stroke="midnightblue" points="402.37,-141.65 409.77,-134.06 399.26,-135.38 402.37,-141.65"/>
</g>
<!-- Node18 -->
<g id="node18" class="node">
<title>Node18</title>
<g id="a_node18"><a xlink:href="classCCAx12Adc.html#a9de179f3a7d271055b818f2e406714d7" target="_top" xlink:title=" ">
<polygon fill="white" stroke="black" points="379.5,-77 379.5,-96 480.5,-96 480.5,-77 379.5,-77"/>
<text text-anchor="middle" x="430" y="-84" font-family="Helvetica,sans-Serif" font-size="10.00">CCAx12Adc::read</text>
</a>
</g>
</g>
<!-- Node14&#45;&gt;Node18 -->
<g id="edge23" class="edge">
<title>Node14&#45;&gt;Node18</title>
<path fill="none" stroke="midnightblue" d="M254.35,-204.91C269.01,-183.54 307.51,-131.82 353,-105.5 358.13,-102.53 363.71,-100.03 369.45,-97.91"/>
<polygon fill="midnightblue" stroke="midnightblue" points="370.79,-101.15 379.19,-94.7 368.6,-94.5 370.79,-101.15"/>
</g>
<!-- Node19 -->
<g id="node19" class="node">
<title>Node19</title>
<g id="a_node19"><a xlink:href="classCCAx12Adc.html#af859112b60bf7e614e902063030460dc" target="_top" xlink:title=" ">
<polygon fill="white" stroke="black" points="378,-39 378,-58 482,-58 482,-39 378,-39"/>
<text text-anchor="middle" x="430" y="-46" font-family="Helvetica,sans-Serif" font-size="10.00">CCAx12Adc::write</text>
</a>
</g>
</g>
<!-- Node14&#45;&gt;Node19 -->
<g id="edge25" class="edge">
<title>Node14&#45;&gt;Node19</title>
<path fill="none" stroke="midnightblue" d="M252,-204.81C263.46,-178.31 299.08,-104.21 353,-67.5 357.64,-64.34 362.75,-61.71 368.07,-59.51"/>
<polygon fill="midnightblue" stroke="midnightblue" points="369.58,-62.69 377.81,-56.01 367.22,-56.1 369.58,-62.69"/>
</g>
<!-- Node15&#45;&gt;Node3 -->
<g id="edge17" class="edge">
<title>Node15&#45;&gt;Node3</title>
<path fill="none" stroke="midnightblue" d="M679.72,-352.5C697.22,-352.5 717.23,-352.5 736.59,-352.5"/>
<polygon fill="midnightblue" stroke="midnightblue" points="736.64,-356 746.64,-352.5 736.64,-349 736.64,-356"/>
</g>
<!-- Node17&#45;&gt;Node8 -->
<g id="edge21" class="edge">
<title>Node17&#45;&gt;Node8</title>
<path fill="none" stroke="midnightblue" d="M485.06,-129.77C507.15,-131.92 532.98,-134.44 556.45,-136.72"/>
<polygon fill="midnightblue" stroke="midnightblue" points="556.41,-140.24 566.7,-137.72 557.08,-133.27 556.41,-140.24"/>
</g>
<!-- Node17&#45;&gt;Node10 -->
<g id="edge22" class="edge">
<title>Node17&#45;&gt;Node10</title>
<path fill="none" stroke="midnightblue" d="M471.8,-114.99C483.25,-112.14 495.66,-108.87 507,-105.5 529.7,-98.77 554.5,-90.39 575.55,-82.97"/>
<polygon fill="midnightblue" stroke="midnightblue" points="577,-86.17 585.25,-79.52 574.66,-79.57 577,-86.17"/>
</g>
</g>
</svg>
        <g id="navigator" transform="translate(0 0)" fill="#404254">
                <rect fill="#f2f5e9" fill-opacity="0.5" stroke="#606060" stroke-width=".5" x="0" y="0" width="60" height="60"/>
                <use id="zoomplus" xlink:href="#zoomPlus" x="17" y="9" onmousedown="handleZoom(evt,'in')"/>
                <use id="zoomminus" xlink:href="#zoomMin" x="42" y="9" onmousedown="handleZoom(evt,'out')"/>
                <use id="reset" xlink:href="#resetDef" x="30" y="36" onmousedown="handleReset()"/>
                <g id="arrowUp" xlink:href="#dirArrow" transform="translate(30 24)" onmousedown="handlePan(0,-1)">
                  <use xlink:href="#rim" fill="#404040">
                        <set attributeName="fill" to="#808080" begin="arrowUp.mouseover" end="arrowUp.mouseout"/>
                  </use>
                  <path fill="none" stroke="white" stroke-width="1.5" d="M0,-3.0v7 M-2.5,-0.5L0,-3.0L2.5,-0.5"/>
                </g>
                <g id="arrowRight" xlink:href="#dirArrow" transform="rotate(90) translate(36 -43)" onmousedown="handlePan(1,0)">
                  <use xlink:href="#rim" fill="#404040">
                        <set attributeName="fill" to="#808080" begin="arrowRight.mouseover" end="arrowRight.mouseout"/>
                  </use>
                  <path fill="none" stroke="white" stroke-width="1.5" d="M0,-3.0v7 M-2.5,-0.5L0,-3.0L2.5,-0.5"/>
                </g>
                <g id="arrowDown" xlink:href="#dirArrow" transform="rotate(180) translate(-30 -48)" onmousedown="handlePan(0,1)">
                  <use xlink:href="#rim" fill="#404040">
                        <set attributeName="fill" to="#808080" begin="arrowDown.mouseover" end="arrowDown.mouseout"/>
                  </use>
                  <path fill="none" stroke="white" stroke-width="1.5" d="M0,-3.0v7 M-2.5,-0.5L0,-3.0L2.5,-0.5"/>
                </g>
                <g id="arrowLeft" xlink:href="#dirArrow" transform="rotate(270) translate(-36 17)" onmousedown="handlePan(-1,0)">
                  <use xlink:href="#rim" fill="#404040">
                        <set attributeName="fill" to="#808080" begin="arrowLeft.mouseover" end="arrowLeft.mouseout"/>
                  </use>
                  <path fill="none" stroke="white" stroke-width="1.5" d="M0,-3.0v7 M-2.5,-0.5L0,-3.0L2.5,-0.5"/>
                </g>
        </g>
        <svg viewBox="0 0 15 15" width="100%" height="30px" preserveAspectRatio="xMaxYMin meet">
         <g id="arrow_out" transform="scale(0.3 0.3)">
          <a xlink:href="classDynamixelDriver_a16fc2b6f82b30c98bab3d64079f16360_cgraph_org.svg" target="_base">
           <rect id="button" ry="5" rx="5" y="6" x="6" height="38" width="38"
                fill="#f2f5e9" fill-opacity="0.5" stroke="#606060" stroke-width="1.0"/>
           <path id="arrow"
             d="M 11.500037,31.436501 C 11.940474,20.09759 22.043105,11.32322 32.158766,21.979434 L 37.068811,17.246167 C 37.068811,17.246167 37.088388,32 37.088388,32 L 22.160133,31.978069 C 22.160133,31.978069 26.997745,27.140456 26.997745,27.140456 C 18.528582,18.264221 13.291696,25.230495 11.500037,31.436501 z"
             style="fill:#404040;"/>
          </a>
         </g>
        </svg>
</svg>
