<?xml version="1.0" encoding="UTF-8" standalone="no"?>
<!DOCTYPE svg PUBLIC "-//W3C//DTD SVG 1.1//EN"
 "http://www.w3.org/Graphics/SVG/1.1/DTD/svg11.dtd">
<!-- Generated by graphviz version 2.43.0 (0)
 -->
<!-- Title: test::ScreenFramebufferManualTest::testCalibration Pages: 1 -->
<!--zoomable 199 -->
<svg id="main" version="1.1" xmlns="http://www.w3.org/2000/svg" xmlns:xlink="http://www.w3.org/1999/xlink" xml:space="preserve" onload="init(evt)">
<style type="text/css"><![CDATA[
.edge:hover path { stroke: red; }
.edge:hover polygon { stroke: red; fill: red; }
]]></style>
<script type="text/javascript"><![CDATA[
var edges = document.getElementsByTagName('g');
if (edges && edges.length) {
  for (var i=0;i<edges.length;i++) {
    if (edges[i].id.substr(0,4)=='edge') {
      edges[i].setAttribute('class','edge');
    }
  }
}
]]></script>
        <defs>
                <circle id="rim" cx="0" cy="0" r="7"/>
                <circle id="rim2" cx="0" cy="0" r="3.5"/>
                <g id="zoomPlus">
                        <use xlink:href="#rim" fill="#404040">
                                <set attributeName="fill" to="#808080" begin="zoomplus.mouseover" end="zoomplus.mouseout"/>
                        </use>
                        <path d="M-4,0h8M0,-4v8" fill="none" stroke="white" stroke-width="1.5" pointer-events="none"/>
                </g>
                <g id="zoomMin">
                        <use xlink:href="#rim" fill="#404040">
                                <set attributeName="fill" to="#808080" begin="zoomminus.mouseover" end="zoomminus.mouseout"/>
                        </use>
                        <path d="M-4,0h8" fill="none" stroke="white" stroke-width="1.5" pointer-events="none"/>
                </g>
                <g id="dirArrow">
                        <path fill="none" stroke="white" stroke-width="1.5" d="M0,-3.0v7 M-2.5,-0.5L0,-3.0L2.5,-0.5"/>
                </g>
               <g id="resetDef">
                       <use xlink:href="#rim2" fill="#404040">
                               <set attributeName="fill" to="#808080" begin="reset.mouseover" end="reset.mouseout"/>
                       </use>
               </g>
        </defs>

<script type="text/javascript">
var viewWidth = 666;
var viewHeight = 199;
var sectionId = 'dynsection-9';
</script>
<script xlink:href="svgpan.js"/>
<svg id="graph" class="graph">
<g id="viewport">
<title>test::ScreenFramebufferManualTest::testCalibration</title>
<polygon fill="white" stroke="transparent" points="-4,4 -4,-194.51 662,-194.51 662,4 -4,4"/>
<!-- Node1 -->
<g id="node1" class="node">
<title>Node1</title>
<g id="a_node1"><a xlink:title="Calibration tactile 3 points : affiche des croix cibles et mesure les coordonnees brutes pour calcule...">
<polygon fill="#bfbfbf" stroke="black" points="0,-90 0,-120 170,-120 170,-90 0,-90"/>
<text text-anchor="start" x="8" y="-108" font-family="Helvetica,sans-Serif" font-size="10.00">test::ScreenFramebufferManual</text>
<text text-anchor="middle" x="85" y="-97" font-family="Helvetica,sans-Serif" font-size="10.00">Test::testCalibration</text>
</a>
</g>
</g>
<!-- Node2 -->
<g id="node2" class="node">
<title>Node2</title>
<g id="a_node2"><a xlink:href="structFramebuffer.html#a82d6b962eb09462bf5358e33addb1129" target="_top" xlink:title=" ">
<polygon fill="white" stroke="black" points="382,-152.5 382,-171.5 489,-171.5 489,-152.5 382,-152.5"/>
<text text-anchor="middle" x="435.5" y="-159.5" font-family="Helvetica,sans-Serif" font-size="10.00">Framebuffer::close</text>
</a>
</g>
</g>
<!-- Node1&#45;&gt;Node2 -->
<g id="edge1" class="edge">
<title>Node1&#45;&gt;Node2</title>
<path fill="none" stroke="midnightblue" d="M102.74,-120.04C124.63,-138.59 165.03,-169.12 206,-181 269.76,-199.49 347.41,-185.83 393.8,-174.06"/>
<polygon fill="midnightblue" stroke="midnightblue" points="394.71,-177.44 403.49,-171.51 392.93,-170.67 394.71,-177.44"/>
</g>
<!-- Node3 -->
<g id="node3" class="node">
<title>Node3</title>
<g id="a_node3"><a xlink:href="structFramebuffer.html#a15ac01e9d0e8d6be53c2cfbcac978935" target="_top" xlink:title=" ">
<polygon fill="white" stroke="black" points="369,-114.5 369,-133.5 502,-133.5 502,-114.5 369,-114.5"/>
<text text-anchor="middle" x="435.5" y="-121.5" font-family="Helvetica,sans-Serif" font-size="10.00">Framebuffer::drawCross</text>
</a>
</g>
</g>
<!-- Node1&#45;&gt;Node3 -->
<g id="edge2" class="edge">
<title>Node1&#45;&gt;Node3</title>
<path fill="none" stroke="midnightblue" d="M170.36,-109.6C227.82,-112.73 303.24,-116.84 358.78,-119.87"/>
<polygon fill="midnightblue" stroke="midnightblue" points="358.73,-123.37 368.91,-120.42 359.11,-116.38 358.73,-123.37"/>
</g>
<!-- Node5 -->
<g id="node5" class="node">
<title>Node5</title>
<g id="a_node5"><a xlink:href="structFramebuffer.html#af53334ddf6db833eb562169d4092b22d" target="_top" xlink:title=" ">
<polygon fill="white" stroke="black" points="206,-76.5 206,-95.5 333,-95.5 333,-76.5 206,-76.5"/>
<text text-anchor="middle" x="269.5" y="-83.5" font-family="Helvetica,sans-Serif" font-size="10.00">Framebuffer::fillScreen</text>
</a>
</g>
</g>
<!-- Node1&#45;&gt;Node5 -->
<g id="edge4" class="edge">
<title>Node1&#45;&gt;Node5</title>
<path fill="none" stroke="midnightblue" d="M170.04,-96.25C178.62,-95.36 187.28,-94.46 195.73,-93.58"/>
<polygon fill="midnightblue" stroke="midnightblue" points="196.32,-97.03 205.9,-92.52 195.59,-90.07 196.32,-97.03"/>
</g>
<!-- Node7 -->
<g id="node7" class="node">
<title>Node7</title>
<g id="a_node7"><a xlink:href="structFramebuffer.html#ac8bc7614c3b792a57d4a8a0b828d29ef" target="_top" xlink:title=" ">
<polygon fill="white" stroke="black" points="216.5,-152.5 216.5,-171.5 322.5,-171.5 322.5,-152.5 216.5,-152.5"/>
<text text-anchor="middle" x="269.5" y="-159.5" font-family="Helvetica,sans-Serif" font-size="10.00">Framebuffer::open</text>
</a>
</g>
</g>
<!-- Node1&#45;&gt;Node7 -->
<g id="edge7" class="edge">
<title>Node1&#45;&gt;Node7</title>
<path fill="none" stroke="midnightblue" d="M134.43,-120.13C163.68,-129.26 200.52,-140.77 228.18,-149.41"/>
<polygon fill="midnightblue" stroke="midnightblue" points="227.33,-152.81 237.92,-152.45 229.42,-146.13 227.33,-152.81"/>
</g>
<!-- Node8 -->
<g id="node8" class="node">
<title>Node8</title>
<g id="a_node8"><a xlink:href="structTouchCalibration.html#ae539ac9092bac303aa4bc5bec78b1ab6" target="_top" xlink:title=" ">
<polygon fill="white" stroke="black" points="206,-38.5 206,-57.5 333,-57.5 333,-38.5 206,-38.5"/>
<text text-anchor="middle" x="269.5" y="-45.5" font-family="Helvetica,sans-Serif" font-size="10.00">TouchCalibration::save</text>
</a>
</g>
</g>
<!-- Node1&#45;&gt;Node8 -->
<g id="edge9" class="edge">
<title>Node1&#45;&gt;Node8</title>
<path fill="none" stroke="midnightblue" d="M132.98,-89.99C155.11,-82.95 181.89,-74.48 206,-67 212.7,-64.92 219.8,-62.74 226.73,-60.63"/>
<polygon fill="midnightblue" stroke="midnightblue" points="228.14,-63.86 236.68,-57.59 226.1,-57.16 228.14,-63.86"/>
</g>
<!-- Node9 -->
<g id="node9" class="node">
<title>Node9</title>
<g id="a_node9"><a xlink:href="json__3_811_82_8hpp.html#a5b9ca6dc52cf4226c68d67f895b2a1d4" target="_top" xlink:title="user&#45;defined to_string function for JSON values">
<polygon fill="white" stroke="black" points="240,-0.5 240,-19.5 299,-19.5 299,-0.5 240,-0.5"/>
<text text-anchor="middle" x="269.5" y="-7.5" font-family="Helvetica,sans-Serif" font-size="10.00">to_string</text>
</a>
</g>
</g>
<!-- Node1&#45;&gt;Node9 -->
<g id="edge10" class="edge">
<title>Node1&#45;&gt;Node9</title>
<path fill="none" stroke="midnightblue" d="M106.27,-89.75C129.38,-72.95 168.79,-46.06 206,-29 213.62,-25.51 222.06,-22.44 230.19,-19.86"/>
<polygon fill="midnightblue" stroke="midnightblue" points="231.33,-23.17 239.9,-16.94 229.32,-16.47 231.33,-23.17"/>
</g>
<!-- Node4 -->
<g id="node4" class="node">
<title>Node4</title>
<g id="a_node4"><a xlink:href="structFramebuffer.html#ab7c99b460fcbcd9c366707f815b09a23" target="_top" xlink:title=" ">
<polygon fill="white" stroke="black" points="538,-95.5 538,-114.5 658,-114.5 658,-95.5 538,-95.5"/>
<text text-anchor="middle" x="598" y="-102.5" font-family="Helvetica,sans-Serif" font-size="10.00">Framebuffer::setPixel</text>
</a>
</g>
</g>
<!-- Node3&#45;&gt;Node4 -->
<g id="edge3" class="edge">
<title>Node3&#45;&gt;Node4</title>
<path fill="none" stroke="midnightblue" d="M502.24,-116.22C510.61,-115.23 519.2,-114.21 527.63,-113.21"/>
<polygon fill="midnightblue" stroke="midnightblue" points="528.28,-116.66 537.8,-112.01 527.46,-109.71 528.28,-116.66"/>
</g>
<!-- Node6 -->
<g id="node6" class="node">
<title>Node6</title>
<g id="a_node6"><a xlink:href="structFramebuffer.html#a50b01a7cfa640cfd647aa32967a88bd7" target="_top" xlink:title=" ">
<polygon fill="white" stroke="black" points="377.5,-76.5 377.5,-95.5 493.5,-95.5 493.5,-76.5 377.5,-76.5"/>
<text text-anchor="middle" x="435.5" y="-83.5" font-family="Helvetica,sans-Serif" font-size="10.00">Framebuffer::fillRect</text>
</a>
</g>
</g>
<!-- Node5&#45;&gt;Node6 -->
<g id="edge5" class="edge">
<title>Node5&#45;&gt;Node6</title>
<path fill="none" stroke="midnightblue" d="M333.44,-86C344.5,-86 356.06,-86 367.24,-86"/>
<polygon fill="midnightblue" stroke="midnightblue" points="367.37,-89.5 377.37,-86 367.37,-82.5 367.37,-89.5"/>
</g>
<!-- Node6&#45;&gt;Node4 -->
<g id="edge6" class="edge">
<title>Node6&#45;&gt;Node4</title>
<path fill="none" stroke="midnightblue" d="M493.54,-92.75C504.69,-94.07 516.49,-95.47 527.98,-96.83"/>
<polygon fill="midnightblue" stroke="midnightblue" points="527.63,-100.31 537.98,-98.01 528.46,-93.36 527.63,-100.31"/>
</g>
<!-- Node7&#45;&gt;Node2 -->
<g id="edge8" class="edge">
<title>Node7&#45;&gt;Node2</title>
<path fill="none" stroke="midnightblue" d="M322.84,-162C338.3,-162 355.38,-162 371.44,-162"/>
<polygon fill="midnightblue" stroke="midnightblue" points="371.81,-165.5 381.81,-162 371.81,-158.5 371.81,-165.5"/>
</g>
</g>
</svg>
        <g id="navigator" transform="translate(0 0)" fill="#404254">
                <rect fill="#f2f5e9" fill-opacity="0.5" stroke="#606060" stroke-width=".5" x="0" y="0" width="60" height="60"/>
                <use id="zoomplus" xlink:href="#zoomPlus" x="17" y="9" onmousedown="handleZoom(evt,'in')"/>
                <use id="zoomminus" xlink:href="#zoomMin" x="42" y="9" onmousedown="handleZoom(evt,'out')"/>
                <use id="reset" xlink:href="#resetDef" x="30" y="36" onmousedown="handleReset()"/>
                <g id="arrowUp" xlink:href="#dirArrow" transform="translate(30 24)" onmousedown="handlePan(0,-1)">
                  <use xlink:href="#rim" fill="#404040">
                        <set attributeName="fill" to="#808080" begin="arrowUp.mouseover" end="arrowUp.mouseout"/>
                  </use>
                  <path fill="none" stroke="white" stroke-width="1.5" d="M0,-3.0v7 M-2.5,-0.5L0,-3.0L2.5,-0.5"/>
                </g>
                <g id="arrowRight" xlink:href="#dirArrow" transform="rotate(90) translate(36 -43)" onmousedown="handlePan(1,0)">
                  <use xlink:href="#rim" fill="#404040">
                        <set attributeName="fill" to="#808080" begin="arrowRight.mouseover" end="arrowRight.mouseout"/>
                  </use>
                  <path fill="none" stroke="white" stroke-width="1.5" d="M0,-3.0v7 M-2.5,-0.5L0,-3.0L2.5,-0.5"/>
                </g>
                <g id="arrowDown" xlink:href="#dirArrow" transform="rotate(180) translate(-30 -48)" onmousedown="handlePan(0,1)">
                  <use xlink:href="#rim" fill="#404040">
                        <set attributeName="fill" to="#808080" begin="arrowDown.mouseover" end="arrowDown.mouseout"/>
                  </use>
                  <path fill="none" stroke="white" stroke-width="1.5" d="M0,-3.0v7 M-2.5,-0.5L0,-3.0L2.5,-0.5"/>
                </g>
                <g id="arrowLeft" xlink:href="#dirArrow" transform="rotate(270) translate(-36 17)" onmousedown="handlePan(-1,0)">
                  <use xlink:href="#rim" fill="#404040">
                        <set attributeName="fill" to="#808080" begin="arrowLeft.mouseover" end="arrowLeft.mouseout"/>
                  </use>
                  <path fill="none" stroke="white" stroke-width="1.5" d="M0,-3.0v7 M-2.5,-0.5L0,-3.0L2.5,-0.5"/>
                </g>
        </g>
        <svg viewBox="0 0 15 15" width="100%" height="30px" preserveAspectRatio="xMaxYMin meet">
         <g id="arrow_out" transform="scale(0.3 0.3)">
          <a xlink:href="classtest_1_1ScreenFramebufferManualTest_a179e1fc7fb0059b21448df985295686e_cgraph_org.svg" target="_base">
           <rect id="button" ry="5" rx="5" y="6" x="6" height="38" width="38"
                fill="#f2f5e9" fill-opacity="0.5" stroke="#606060" stroke-width="1.0"/>
           <path id="arrow"
             d="M 11.500037,31.436501 C 11.940474,20.09759 22.043105,11.32322 32.158766,21.979434 L 37.068811,17.246167 C 37.068811,17.246167 37.088388,32 37.088388,32 L 22.160133,31.978069 C 22.160133,31.978069 26.997745,27.140456 26.997745,27.140456 C 18.528582,18.264221 13.291696,25.230495 11.500037,31.436501 z"
             style="fill:#404040;"/>
          </a>
         </g>
        </svg>
</svg>
