<?xml version="1.0" encoding="UTF-8" standalone="no"?>
<!DOCTYPE svg PUBLIC "-//W3C//DTD SVG 1.1//EN"
 "http://www.w3.org/Graphics/SVG/1.1/DTD/svg11.dtd">
<!-- Generated by graphviz version 2.43.0 (0)
 -->
<!-- Title: Asserv::changeMatchAngleRad Pages: 1 -->
<!--zoomable 720 -->
<svg id="main" version="1.1" xmlns="http://www.w3.org/2000/svg" xmlns:xlink="http://www.w3.org/1999/xlink" xml:space="preserve" onload="init(evt)">
<style type="text/css"><![CDATA[
.edge:hover path { stroke: red; }
.edge:hover polygon { stroke: red; fill: red; }
]]></style>
<script type="text/javascript"><![CDATA[
var edges = document.getElementsByTagName('g');
if (edges && edges.length) {
  for (var i=0;i<edges.length;i++) {
    if (edges[i].id.substr(0,4)=='edge') {
      edges[i].setAttribute('class','edge');
    }
  }
}
]]></script>
        <defs>
                <circle id="rim" cx="0" cy="0" r="7"/>
                <circle id="rim2" cx="0" cy="0" r="3.5"/>
                <g id="zoomPlus">
                        <use xlink:href="#rim" fill="#404040">
                                <set attributeName="fill" to="#808080" begin="zoomplus.mouseover" end="zoomplus.mouseout"/>
                        </use>
                        <path d="M-4,0h8M0,-4v8" fill="none" stroke="white" stroke-width="1.5" pointer-events="none"/>
                </g>
                <g id="zoomMin">
                        <use xlink:href="#rim" fill="#404040">
                                <set attributeName="fill" to="#808080" begin="zoomminus.mouseover" end="zoomminus.mouseout"/>
                        </use>
                        <path d="M-4,0h8" fill="none" stroke="white" stroke-width="1.5" pointer-events="none"/>
                </g>
                <g id="dirArrow">
                        <path fill="none" stroke="white" stroke-width="1.5" d="M0,-3.0v7 M-2.5,-0.5L0,-3.0L2.5,-0.5"/>
                </g>
               <g id="resetDef">
                       <use xlink:href="#rim2" fill="#404040">
                               <set attributeName="fill" to="#808080" begin="reset.mouseover" end="reset.mouseout"/>
                       </use>
               </g>
        </defs>

<script type="text/javascript">
var viewWidth = 1528;
var viewHeight = 720;
var sectionId = 'dynsection-10';
</script>
<script xlink:href="svgpan.js"/>
<svg id="graph" class="graph">
<g id="viewport">
<title>Asserv::changeMatchAngleRad</title>
<polygon fill="white" stroke="transparent" points="-4,4 -4,-716 1524,-716 1524,4 -4,4"/>
<!-- Node1 -->
<g id="node1" class="node">
<title>Node1</title>
<g id="a_node1"><a xlink:title=" ">
<polygon fill="#bfbfbf" stroke="black" points="1353,-193.5 1353,-212.5 1520,-212.5 1520,-193.5 1353,-193.5"/>
<text text-anchor="middle" x="1436.5" y="-200.5" font-family="Helvetica,sans-Serif" font-size="10.00">Asserv::changeMatchAngleRad</text>
</a>
</g>
</g>
<!-- Node2 -->
<g id="node2" class="node">
<title>Node2</title>
<g id="a_node2"><a xlink:href="classAsserv.html#a3a481367962ccacd1a378c3bb5df3b25" target="_top" xlink:title=" ">
<polygon fill="white" stroke="black" points="980,-635.5 980,-654.5 1126,-654.5 1126,-635.5 980,-635.5"/>
<text text-anchor="middle" x="1053" y="-642.5" font-family="Helvetica,sans-Serif" font-size="10.00">Asserv::adjustRealPosition</text>
</a>
</g>
</g>
<!-- Node1&#45;&gt;Node2 -->
<g id="edge1" class="edge">
<title>Node1&#45;&gt;Node2</title>
<path fill="none" stroke="midnightblue" d="M1430.94,-222.33C1419.07,-269.28 1383.44,-391.22 1317,-470 1246.46,-553.64 1126.14,-613.2 1076.47,-635.41"/>
<polygon fill="midnightblue" stroke="midnightblue" points="1434.35,-223.09 1433.34,-212.55 1427.56,-221.42 1434.35,-223.09"/>
</g>
<!-- Node4 -->
<g id="node4" class="node">
<title>Node4</title>
<g id="a_node4"><a xlink:href="classAsserv.html#a314e3ff9a8a538a23d26dcb802386024" target="_top" xlink:title=" ">
<polygon fill="white" stroke="black" points="575.5,-202 575.5,-232 713.5,-232 713.5,-202 575.5,-202"/>
<text text-anchor="start" x="583.5" y="-220" font-family="Helvetica,sans-Serif" font-size="10.00">Asserv::calculateDriftLeft</text>
<text text-anchor="middle" x="644.5" y="-209" font-family="Helvetica,sans-Serif" font-size="10.00">SideAndSetPos</text>
</a>
</g>
</g>
<!-- Node1&#45;&gt;Node4 -->
<g id="edge3" class="edge">
<title>Node1&#45;&gt;Node4</title>
<path fill="none" stroke="midnightblue" d="M1342.68,-199.56C1213.02,-195.53 970.37,-190.85 764,-203 747.66,-203.96 730.12,-205.66 713.68,-207.56"/>
<polygon fill="midnightblue" stroke="midnightblue" points="1342.86,-203.06 1352.97,-199.88 1343.08,-196.07 1342.86,-203.06"/>
</g>
<!-- Node5 -->
<g id="node5" class="node">
<title>Node5</title>
<g id="a_node5"><a xlink:href="classAsserv.html#a31cb7196e12282ed27c45e8f58b4db04" target="_top" xlink:title=" ">
<polygon fill="white" stroke="black" points="1165,-277.5 1165,-296.5 1317,-296.5 1317,-277.5 1165,-277.5"/>
<text text-anchor="middle" x="1241" y="-284.5" font-family="Helvetica,sans-Serif" font-size="10.00">Asserv::doAbsoluteRotateTo</text>
</a>
</g>
</g>
<!-- Node1&#45;&gt;Node5 -->
<g id="edge4" class="edge">
<title>Node1&#45;&gt;Node5</title>
<path fill="none" stroke="midnightblue" d="M1403.9,-216.72C1364.51,-233.82 1298.19,-262.61 1263.94,-277.48"/>
<polygon fill="midnightblue" stroke="midnightblue" points="1405.52,-219.83 1413.3,-212.64 1402.74,-213.41 1405.52,-219.83"/>
</g>
<!-- Node7 -->
<g id="node7" class="node">
<title>Node7</title>
<g id="a_node7"><a xlink:href="classAsserv.html#aa2ec3b84e3cccf2145cc70e33f08dc58" target="_top" xlink:title=" ">
<polygon fill="white" stroke="black" points="977,-217.5 977,-236.5 1129,-236.5 1129,-217.5 977,-217.5"/>
<text text-anchor="middle" x="1053" y="-224.5" font-family="Helvetica,sans-Serif" font-size="10.00">Asserv::doMoveBackwardTo</text>
</a>
</g>
</g>
<!-- Node1&#45;&gt;Node7 -->
<g id="edge38" class="edge">
<title>Node1&#45;&gt;Node7</title>
<path fill="none" stroke="midnightblue" d="M1342.39,-208.86C1276.88,-212.98 1190.32,-218.42 1129.18,-222.27"/>
<polygon fill="midnightblue" stroke="midnightblue" points="1342.96,-212.33 1352.72,-208.21 1342.52,-205.34 1342.96,-212.33"/>
</g>
<!-- Node13 -->
<g id="node13" class="node">
<title>Node13</title>
<g id="a_node13"><a xlink:href="classAsserv.html#a960679fed5ab18f631d7847c95fc1f85" target="_top" xlink:title=" ">
<polygon fill="white" stroke="black" points="981.5,-452.5 981.5,-471.5 1124.5,-471.5 1124.5,-452.5 981.5,-452.5"/>
<text text-anchor="middle" x="1053" y="-459.5" font-family="Helvetica,sans-Serif" font-size="10.00">Asserv::doMoveForwardTo</text>
</a>
</g>
</g>
<!-- Node1&#45;&gt;Node13 -->
<g id="edge39" class="edge">
<title>Node1&#45;&gt;Node13</title>
<path fill="none" stroke="midnightblue" d="M1432.2,-222.49C1423.2,-268.88 1393.61,-385.88 1317,-438 1255.4,-479.91 1166.03,-478.28 1108.97,-471.5"/>
<polygon fill="midnightblue" stroke="midnightblue" points="1435.66,-223 1434.02,-212.53 1428.78,-221.74 1435.66,-223"/>
</g>
<!-- Node28 -->
<g id="node28" class="node">
<title>Node28</title>
<g id="a_node28"><a xlink:href="classIAbyZone.html#a4d9aa1eca3385fb6d2b0610de934b5be" target="_top" xlink:title=" ">
<polygon fill="white" stroke="black" points="1183,-38.5 1183,-57.5 1299,-57.5 1299,-38.5 1183,-38.5"/>
<text text-anchor="middle" x="1241" y="-45.5" font-family="Helvetica,sans-Serif" font-size="10.00">IAbyZone::goToZone</text>
</a>
</g>
</g>
<!-- Node1&#45;&gt;Node28 -->
<g id="edge40" class="edge">
<title>Node1&#45;&gt;Node28</title>
<path fill="none" stroke="midnightblue" d="M1423.68,-184.67C1404.58,-156.45 1364.24,-102.45 1317,-72 1307.35,-65.78 1295.95,-61.06 1285,-57.52"/>
<polygon fill="midnightblue" stroke="midnightblue" points="1420.88,-186.78 1429.33,-193.18 1426.72,-182.91 1420.88,-186.78"/>
</g>
<!-- Node29 -->
<g id="node29" class="node">
<title>Node29</title>
<g id="a_node29"><a xlink:href="classIAbyPath.html#a1201b02e0eaedd1edd2b806b82ec8fad" target="_top" xlink:title=" ">
<polygon fill="white" stroke="black" points="588,-76.5 588,-95.5 701,-95.5 701,-76.5 588,-76.5"/>
<text text-anchor="middle" x="644.5" y="-83.5" font-family="Helvetica,sans-Serif" font-size="10.00">IAbyPath::goToZone</text>
</a>
</g>
</g>
<!-- Node1&#45;&gt;Node29 -->
<g id="edge41" class="edge">
<title>Node1&#45;&gt;Node29</title>
<path fill="none" stroke="midnightblue" d="M1420.49,-185.85C1399.78,-163.6 1360.09,-125.76 1317,-110 1100.89,-30.98 819.15,-59.48 701.22,-76.73"/>
<polygon fill="midnightblue" stroke="midnightblue" points="1417.91,-188.23 1427.23,-193.28 1423.1,-183.52 1417.91,-188.23"/>
</g>
<!-- Node30 -->
<g id="node30" class="node">
<title>Node30</title>
<g id="a_node30"><a xlink:href="classIAbyPath.html#a7677d8a2c19d0c55b7a2dc3682d5b516" target="_top" xlink:title=" ">
<polygon fill="white" stroke="black" points="390,-114.5 390,-133.5 525,-133.5 525,-114.5 390,-114.5"/>
<text text-anchor="middle" x="457.5" y="-121.5" font-family="Helvetica,sans-Serif" font-size="10.00">IAbyPath::ia_createZone</text>
</a>
</g>
</g>
<!-- Node1&#45;&gt;Node30 -->
<g id="edge46" class="edge">
<title>Node1&#45;&gt;Node30</title>
<path fill="none" stroke="midnightblue" d="M1398.88,-190.21C1331.52,-167.84 1182.99,-124 1054,-124 1054,-124 1054,-124 851.5,-124 736.88,-124 603.44,-124 525.26,-124"/>
<polygon fill="midnightblue" stroke="midnightblue" points="1398.01,-193.6 1408.6,-193.47 1400.24,-186.97 1398.01,-193.6"/>
</g>
<!-- Node31 -->
<g id="node31" class="node">
<title>Node31</title>
<g id="a_node31"><a xlink:href="classIAbyZone.html#abeae91d56972242a6737e2cc55cf2f44" target="_top" xlink:title=" ">
<polygon fill="white" stroke="black" points="1171.5,-0.5 1171.5,-19.5 1310.5,-19.5 1310.5,-0.5 1171.5,-0.5"/>
<text text-anchor="middle" x="1241" y="-7.5" font-family="Helvetica,sans-Serif" font-size="10.00">IAbyZone::ia_createZone</text>
</a>
</g>
</g>
<!-- Node1&#45;&gt;Node31 -->
<g id="edge50" class="edge">
<title>Node1&#45;&gt;Node31</title>
<path fill="none" stroke="midnightblue" d="M1427.99,-183.89C1412.78,-147.76 1374.78,-69.43 1317,-29 1311.5,-25.15 1305.28,-22.08 1298.84,-19.63"/>
<polygon fill="midnightblue" stroke="midnightblue" points="1424.81,-185.35 1431.83,-193.28 1431.29,-182.7 1424.81,-185.35"/>
</g>
<!-- Node32 -->
<g id="node32" class="node">
<title>Node32</title>
<g id="a_node32"><a xlink:href="classAsserv.html#a050645863c2a40f3116ee0847d1d3732" target="_top" xlink:title=" ">
<polygon fill="white" stroke="black" points="776,-465.5 776,-484.5 929,-484.5 929,-465.5 776,-465.5"/>
<text text-anchor="middle" x="852.5" y="-472.5" font-family="Helvetica,sans-Serif" font-size="10.00">Asserv::setPositionAndColor</text>
</a>
</g>
</g>
<!-- Node1&#45;&gt;Node32 -->
<g id="edge51" class="edge">
<title>Node1&#45;&gt;Node32</title>
<path fill="none" stroke="midnightblue" d="M1419.93,-219.96C1398.59,-242.34 1358.2,-281.72 1317,-306 1239.15,-351.88 974.76,-436.94 884.21,-465.42"/>
<polygon fill="midnightblue" stroke="midnightblue" points="1422.59,-222.23 1426.89,-212.55 1417.49,-217.44 1422.59,-222.23"/>
</g>
<!-- Node3 -->
<g id="node3" class="node">
<title>Node3</title>
<g id="a_node3"><a xlink:href="classO__Asserv__CalageTest.html#ad731f64308b62269f060e74c0282e30f" target="_top" xlink:title=" ">
<polygon fill="white" stroke="black" points="573,-692.5 573,-711.5 716,-711.5 716,-692.5 573,-692.5"/>
<text text-anchor="middle" x="644.5" y="-699.5" font-family="Helvetica,sans-Serif" font-size="10.00">O_Asserv_CalageTest::run</text>
</a>
</g>
</g>
<!-- Node2&#45;&gt;Node3 -->
<g id="edge2" class="edge">
<title>Node2&#45;&gt;Node3</title>
<path fill="none" stroke="midnightblue" d="M985.34,-656.14C970.74,-658.49 955.36,-660.89 941,-663 864.21,-674.29 775.95,-685.74 716.03,-693.29"/>
<polygon fill="midnightblue" stroke="midnightblue" points="985.98,-659.58 995.3,-654.53 984.87,-652.67 985.98,-659.58"/>
</g>
<!-- Node6 -->
<g id="node6" class="node">
<title>Node6</title>
<g id="a_node6"><a xlink:href="classAsserv.html#af438189501d475dcb6632ce63efe5e5f" target="_top" xlink:title=" ">
<polygon fill="white" stroke="black" points="772,-251 772,-281 933,-281 933,-251 772,-251"/>
<text text-anchor="start" x="780" y="-269" font-family="Helvetica,sans-Serif" font-size="10.00">Asserv::doMoveBackwardAnd</text>
<text text-anchor="middle" x="852.5" y="-258" font-family="Helvetica,sans-Serif" font-size="10.00">RotateTo</text>
</a>
</g>
</g>
<!-- Node5&#45;&gt;Node6 -->
<g id="edge5" class="edge">
<title>Node5&#45;&gt;Node6</title>
<path fill="none" stroke="midnightblue" d="M1154.18,-282.34C1088.12,-278.75 997.51,-273.82 933.07,-270.32"/>
<polygon fill="midnightblue" stroke="midnightblue" points="1154.39,-285.85 1164.56,-282.9 1154.77,-278.86 1154.39,-285.85"/>
</g>
<!-- Node5&#45;&gt;Node7 -->
<g id="edge6" class="edge">
<title>Node5&#45;&gt;Node7</title>
<path fill="none" stroke="midnightblue" d="M1200.65,-274.31C1165.68,-263.02 1115.31,-246.78 1083.64,-236.56"/>
<polygon fill="midnightblue" stroke="midnightblue" points="1199.94,-277.75 1210.53,-277.49 1202.09,-271.09 1199.94,-277.75"/>
</g>
<!-- Node11 -->
<g id="node11" class="node">
<title>Node11</title>
<g id="a_node11"><a xlink:href="classAsserv.html#a0a57aa0008a30ba9b13502e4dd61310d" target="_top" xlink:title=" ">
<polygon fill="white" stroke="black" points="776.5,-623 776.5,-653 928.5,-653 928.5,-623 776.5,-623"/>
<text text-anchor="start" x="784.5" y="-641" font-family="Helvetica,sans-Serif" font-size="10.00">Asserv::doMoveForwardAnd</text>
<text text-anchor="middle" x="852.5" y="-630" font-family="Helvetica,sans-Serif" font-size="10.00">RotateTo</text>
</a>
</g>
</g>
<!-- Node5&#45;&gt;Node11 -->
<g id="edge11" class="edge">
<title>Node5&#45;&gt;Node11</title>
<path fill="none" stroke="midnightblue" d="M1232.97,-306.35C1218.5,-343.95 1182.24,-427.85 1129,-481 1059.26,-550.62 952.35,-599.64 894.35,-622.83"/>
<polygon fill="midnightblue" stroke="midnightblue" points="1236.37,-307.23 1236.61,-296.64 1229.82,-304.77 1236.37,-307.23"/>
</g>
<!-- Node5&#45;&gt;Node13 -->
<g id="edge14" class="edge">
<title>Node5&#45;&gt;Node13</title>
<path fill="none" stroke="midnightblue" d="M1224.19,-304.18C1203.11,-326.81 1164.37,-367.54 1129,-400 1107.72,-419.53 1081.4,-440.63 1066.28,-452.49"/>
<polygon fill="midnightblue" stroke="midnightblue" points="1226.88,-306.42 1231.11,-296.71 1221.74,-301.66 1226.88,-306.42"/>
</g>
<!-- Node22 -->
<g id="node22" class="node">
<title>Node22</title>
<g id="a_node22"><a xlink:href="classIAbyPath.html#a00b7b125584bda7731696dfd5069b17c" target="_top" xlink:title=" ">
<polygon fill="white" stroke="black" points="566.5,-27 566.5,-57 722.5,-57 722.5,-27 566.5,-27"/>
<text text-anchor="start" x="574.5" y="-45" font-family="Helvetica,sans-Serif" font-size="10.00">IAbyPath::doPathForwardAnd</text>
<text text-anchor="middle" x="644.5" y="-34" font-family="Helvetica,sans-Serif" font-size="10.00">RotateTo</text>
</a>
</g>
</g>
<!-- Node5&#45;&gt;Node22 -->
<g id="edge28" class="edge">
<title>Node5&#45;&gt;Node22</title>
<path fill="none" stroke="midnightblue" d="M1220.78,-270.76C1199.46,-253.37 1163.51,-225.89 1129,-208 985.8,-133.75 802.23,-81.26 707.79,-57.05"/>
<polygon fill="midnightblue" stroke="midnightblue" points="1218.78,-273.64 1228.71,-277.31 1223.23,-268.25 1218.78,-273.64"/>
</g>
<!-- Node26 -->
<g id="node26" class="node">
<title>Node26</title>
<g id="a_node26"><a xlink:href="classO__AsservLineRotateTest.html#ac54536863ccc3f6bc0ce3f30e99e1b70" target="_top" xlink:title=" ">
<polygon fill="white" stroke="black" points="566.5,-414.5 566.5,-433.5 722.5,-433.5 722.5,-414.5 566.5,-414.5"/>
<text text-anchor="middle" x="644.5" y="-421.5" font-family="Helvetica,sans-Serif" font-size="10.00">O_AsservLineRotateTest::run</text>
</a>
</g>
</g>
<!-- Node5&#45;&gt;Node26 -->
<g id="edge33" class="edge">
<title>Node5&#45;&gt;Node26</title>
<path fill="none" stroke="midnightblue" d="M1197.59,-299.36C1139.85,-315.96 1033.14,-345.82 941,-367 858,-386.08 760.9,-403.97 701.3,-414.45"/>
<polygon fill="midnightblue" stroke="midnightblue" points="1198.81,-302.66 1207.45,-296.52 1196.87,-295.93 1198.81,-302.66"/>
</g>
<!-- Node27 -->
<g id="node27" class="node">
<title>Node27</title>
<g id="a_node27"><a xlink:href="classIAbyPath.html#a42570f6bc87216c2ac5d028ad596fe02" target="_top" xlink:title=" ">
<polygon fill="white" stroke="black" points="772,-300.5 772,-319.5 933,-319.5 933,-300.5 772,-300.5"/>
<text text-anchor="middle" x="852.5" y="-307.5" font-family="Helvetica,sans-Serif" font-size="10.00">IAbyPath::whileMoveRotateTo</text>
</a>
</g>
</g>
<!-- Node5&#45;&gt;Node27 -->
<g id="edge34" class="edge">
<title>Node5&#45;&gt;Node27</title>
<path fill="none" stroke="midnightblue" d="M1154.18,-292.11C1088.12,-296.04 997.51,-301.43 933.07,-305.26"/>
<polygon fill="midnightblue" stroke="midnightblue" points="1154.79,-295.58 1164.56,-291.49 1154.37,-288.59 1154.79,-295.58"/>
</g>
<!-- Node7&#45;&gt;Node6 -->
<g id="edge7" class="edge">
<title>Node7&#45;&gt;Node6</title>
<path fill="none" stroke="midnightblue" d="M993.62,-238.47C973.76,-242.37 951.25,-246.79 930.17,-250.94"/>
<polygon fill="midnightblue" stroke="midnightblue" points="994.3,-241.9 1003.44,-236.54 992.95,-235.03 994.3,-241.9"/>
</g>
<!-- Node8 -->
<g id="node8" class="node">
<title>Node8</title>
<g id="a_node8"><a xlink:href="classIAbyPath.html#acc586e1ba62ffb7a21087a5ca4d2f131" target="_top" xlink:title=" ">
<polygon fill="white" stroke="black" points="764,-212.5 764,-231.5 941,-231.5 941,-212.5 764,-212.5"/>
<text text-anchor="middle" x="852.5" y="-219.5" font-family="Helvetica,sans-Serif" font-size="10.00">IAbyPath::whileMoveBackwardTo</text>
</a>
</g>
</g>
<!-- Node7&#45;&gt;Node8 -->
<g id="edge8" class="edge">
<title>Node7&#45;&gt;Node8</title>
<path fill="none" stroke="midnightblue" d="M966.76,-224.85C958.34,-224.64 949.77,-224.42 941.32,-224.21"/>
<polygon fill="midnightblue" stroke="midnightblue" points="966.87,-228.36 976.96,-225.11 967.05,-221.36 966.87,-228.36"/>
</g>
<!-- Node9 -->
<g id="node9" class="node">
<title>Node9</title>
<g id="a_node9"><a xlink:href="classO__AsservXYRotateTest.html#a13ccb691e37bdddc94ca53b29311e39a" target="_top" xlink:title=" ">
<polygon fill="white" stroke="black" points="570,-300.5 570,-319.5 719,-319.5 719,-300.5 570,-300.5"/>
<text text-anchor="middle" x="644.5" y="-307.5" font-family="Helvetica,sans-Serif" font-size="10.00">O_AsservXYRotateTest::run</text>
</a>
</g>
</g>
<!-- Node8&#45;&gt;Node9 -->
<g id="edge9" class="edge">
<title>Node8&#45;&gt;Node9</title>
<path fill="none" stroke="midnightblue" d="M776.24,-235.34C771.96,-237.27 767.84,-239.48 764,-242 741.41,-256.83 750.58,-276.15 728,-291 722.11,-294.88 715.52,-297.97 708.71,-300.43"/>
<polygon fill="midnightblue" stroke="midnightblue" points="777.81,-238.48 785.81,-231.54 775.23,-231.98 777.81,-238.48"/>
</g>
<!-- Node10 -->
<g id="node10" class="node">
<title>Node10</title>
<g id="a_node10"><a xlink:href="classIAbyPath.html#a9535c82f137778cc6cd4b159fe3d58ea" target="_top" xlink:title=" ">
<polygon fill="white" stroke="black" points="561,-153 561,-183 728,-183 728,-153 561,-153"/>
<text text-anchor="start" x="569" y="-171" font-family="Helvetica,sans-Serif" font-size="10.00">IAbyPath::whileMoveBackward</text>
<text text-anchor="middle" x="644.5" y="-160" font-family="Helvetica,sans-Serif" font-size="10.00">AndRotateTo</text>
</a>
</g>
</g>
<!-- Node8&#45;&gt;Node10 -->
<g id="edge10" class="edge">
<title>Node8&#45;&gt;Node10</title>
<path fill="none" stroke="midnightblue" d="M805.26,-209.88C774.98,-201.94 735.17,-191.51 702.87,-183.04"/>
<polygon fill="midnightblue" stroke="midnightblue" points="804.58,-213.32 815.15,-212.47 806.36,-206.55 804.58,-213.32"/>
</g>
<!-- Node11&#45;&gt;Node3 -->
<g id="edge12" class="edge">
<title>Node11&#45;&gt;Node3</title>
<path fill="none" stroke="midnightblue" d="M804.6,-656.63C781.72,-665.33 753.66,-675.4 728,-683 716.3,-686.46 703.52,-689.68 691.58,-692.44"/>
<polygon fill="midnightblue" stroke="midnightblue" points="805.98,-659.85 814.07,-653 803.48,-653.32 805.98,-659.85"/>
</g>
<!-- Node12 -->
<g id="node12" class="node">
<title>Node12</title>
<g id="a_node12"><a xlink:href="classO__Asserv__SquareTest.html#a16a0bf866c8070611cfa8952e3ef64d8" target="_top" xlink:title=" ">
<polygon fill="white" stroke="black" points="573,-654.5 573,-673.5 716,-673.5 716,-654.5 573,-654.5"/>
<text text-anchor="middle" x="644.5" y="-661.5" font-family="Helvetica,sans-Serif" font-size="10.00">O_Asserv_SquareTest::run</text>
</a>
</g>
</g>
<!-- Node11&#45;&gt;Node12 -->
<g id="edge13" class="edge">
<title>Node11&#45;&gt;Node12</title>
<path fill="none" stroke="midnightblue" d="M766.01,-648.79C749.39,-650.89 732.16,-653.06 716.09,-655.09"/>
<polygon fill="midnightblue" stroke="midnightblue" points="766.77,-652.22 776.25,-647.5 765.9,-645.28 766.77,-652.22"/>
</g>
<!-- Node13&#45;&gt;Node11 -->
<g id="edge15" class="edge">
<title>Node13&#45;&gt;Node11</title>
<path fill="none" stroke="midnightblue" d="M1037.83,-479.72C1017.79,-504.14 979.34,-548.79 941,-581 921.98,-596.98 898.26,-612.18 880.32,-622.86"/>
<polygon fill="midnightblue" stroke="midnightblue" points="1040.76,-481.66 1044.34,-471.69 1035.32,-477.25 1040.76,-481.66"/>
</g>
<!-- Node13&#45;&gt;Node12 -->
<g id="edge16" class="edge">
<title>Node13&#45;&gt;Node12</title>
<path fill="none" stroke="midnightblue" d="M1020.26,-475.88C965.75,-500.33 851.74,-554.2 764,-614 746.55,-625.89 746.84,-635.46 728,-645 720.39,-648.85 712,-651.93 703.57,-654.39"/>
<polygon fill="midnightblue" stroke="midnightblue" points="1022.02,-478.93 1029.73,-471.66 1019.17,-472.53 1022.02,-478.93"/>
</g>
<!-- Node14 -->
<g id="node14" class="node">
<title>Node14</title>
<g id="a_node14"><a xlink:href="classIAbyPath.html#aa2a96904ea74078d56dad53979b1d999" target="_top" xlink:title=" ">
<polygon fill="white" stroke="black" points="768.5,-338.5 768.5,-357.5 936.5,-357.5 936.5,-338.5 768.5,-338.5"/>
<text text-anchor="middle" x="852.5" y="-345.5" font-family="Helvetica,sans-Serif" font-size="10.00">IAbyPath::whileMoveForwardTo</text>
</a>
</g>
</g>
<!-- Node13&#45;&gt;Node14 -->
<g id="edge17" class="edge">
<title>Node13&#45;&gt;Node14</title>
<path fill="none" stroke="midnightblue" d="M1026.53,-447.37C985.26,-423.67 904.92,-377.53 870.17,-357.58"/>
<polygon fill="midnightblue" stroke="midnightblue" points="1025,-450.53 1035.42,-452.48 1028.49,-444.46 1025,-450.53"/>
</g>
<!-- Node14&#45;&gt;Node9 -->
<g id="edge20" class="edge">
<title>Node14&#45;&gt;Node9</title>
<path fill="none" stroke="midnightblue" d="M789.6,-336.58C760.13,-331.14 725.28,-324.72 697.24,-319.54"/>
<polygon fill="midnightblue" stroke="midnightblue" points="789.31,-340.09 799.78,-338.46 790.58,-333.2 789.31,-340.09"/>
</g>
<!-- Node15 -->
<g id="node15" class="node">
<title>Node15</title>
<g id="a_node15"><a xlink:href="O__State__DecisionMakerIA_8cpp.html#a1cbc5f5cba5f72b993c68f4aad4473f7" target="_top" xlink:title="Action de poussée de la prise en zone basse.">
<polygon fill="white" stroke="black" points="405.5,-256.5 405.5,-275.5 509.5,-275.5 509.5,-256.5 405.5,-256.5"/>
<text text-anchor="middle" x="457.5" y="-263.5" font-family="Helvetica,sans-Serif" font-size="10.00">O_push_prise_bas</text>
</a>
</g>
</g>
<!-- Node14&#45;&gt;Node15 -->
<g id="edge18" class="edge">
<title>Node14&#45;&gt;Node15</title>
<path fill="none" stroke="midnightblue" d="M758.2,-353.19C700.17,-353.68 624.72,-349.29 561,-329 524.58,-317.4 487.85,-290.19 469.87,-275.62"/>
<polygon fill="midnightblue" stroke="midnightblue" points="758.51,-356.68 768.46,-353.05 758.42,-349.68 758.51,-356.68"/>
</g>
<!-- Node16 -->
<g id="node16" class="node">
<title>Node16</title>
<g id="a_node16"><a xlink:href="classO__AsservTest.html#a87e2ffa360e3e12ff5c7b81b1952a04f" target="_top" xlink:title=" ">
<polygon fill="white" stroke="black" points="592.5,-376.5 592.5,-395.5 696.5,-395.5 696.5,-376.5 592.5,-376.5"/>
<text text-anchor="middle" x="644.5" y="-383.5" font-family="Helvetica,sans-Serif" font-size="10.00">O_AsservTest::run</text>
</a>
</g>
</g>
<!-- Node14&#45;&gt;Node16 -->
<g id="edge19" class="edge">
<title>Node14&#45;&gt;Node16</title>
<path fill="none" stroke="midnightblue" d="M789.91,-359.36C760.12,-364.86 724.79,-371.37 696.52,-376.59"/>
<polygon fill="midnightblue" stroke="midnightblue" points="790.58,-362.8 799.78,-357.54 789.31,-355.91 790.58,-362.8"/>
</g>
<!-- Node17 -->
<g id="node17" class="node">
<title>Node17</title>
<g id="a_node17"><a xlink:href="classIAbyPath.html#a3f27b793f84340c99ca33e12c2380bb4" target="_top" xlink:title=" ">
<polygon fill="white" stroke="black" points="565.5,-251 565.5,-281 723.5,-281 723.5,-251 565.5,-251"/>
<text text-anchor="start" x="573.5" y="-269" font-family="Helvetica,sans-Serif" font-size="10.00">IAbyPath::whileMoveForward</text>
<text text-anchor="middle" x="644.5" y="-258" font-family="Helvetica,sans-Serif" font-size="10.00">AndRotateTo</text>
</a>
</g>
</g>
<!-- Node14&#45;&gt;Node17 -->
<g id="edge21" class="edge">
<title>Node14&#45;&gt;Node17</title>
<path fill="none" stroke="midnightblue" d="M776.59,-334.98C772.23,-333.23 767.99,-331.25 764,-329 743.73,-317.58 747.79,-303.23 728,-291 721.76,-287.15 714.89,-283.85 707.85,-281.04"/>
<polygon fill="midnightblue" stroke="midnightblue" points="775.73,-338.39 786.32,-338.45 778.08,-331.8 775.73,-338.39"/>
</g>
<!-- Node17&#45;&gt;Node15 -->
<g id="edge27" class="edge">
<title>Node17&#45;&gt;Node15</title>
<path fill="none" stroke="midnightblue" d="M555.1,-266C539.49,-266 523.73,-266 509.6,-266"/>
<polygon fill="midnightblue" stroke="midnightblue" points="555.31,-269.5 565.31,-266 555.31,-262.5 555.31,-269.5"/>
</g>
<!-- Node18 -->
<g id="node18" class="node">
<title>Node18</title>
<g id="a_node18"><a xlink:href="O__State__DecisionMakerIA_8cpp.html#a6af4b40e5e676265dd688e0004be0ff6" target="_top" xlink:title="Action de fin de match : rejoint la zone de fin en haut de table.">
<polygon fill="white" stroke="black" points="398,-158.5 398,-177.5 517,-177.5 517,-158.5 398,-158.5"/>
<text text-anchor="middle" x="457.5" y="-165.5" font-family="Helvetica,sans-Serif" font-size="10.00">O_end_of_match_top</text>
</a>
</g>
</g>
<!-- Node17&#45;&gt;Node18 -->
<g id="edge22" class="edge">
<title>Node17&#45;&gt;Node18</title>
<path fill="none" stroke="midnightblue" d="M572.97,-247.28C568.86,-245.64 564.85,-243.88 561,-242 524.32,-224.09 486.83,-193.14 469.07,-177.56"/>
<polygon fill="midnightblue" stroke="midnightblue" points="572.08,-250.68 582.67,-250.9 574.53,-244.12 572.08,-250.68"/>
</g>
<!-- Node19 -->
<g id="node19" class="node">
<title>Node19</title>
<g id="a_node19"><a xlink:href="classO__State__DecisionMakerIA.html#a9b35f6bac1a5602ec2a711fa280be4a6" target="_top" xlink:title="Configure les activités pour les zones de jeu du match.">
<polygon fill="white" stroke="black" points="195,-158 195,-188 337,-188 337,-158 195,-158"/>
<text text-anchor="start" x="203" y="-176" font-family="Helvetica,sans-Serif" font-size="10.00">O_State_DecisionMakerIA</text>
<text text-anchor="middle" x="266" y="-165" font-family="Helvetica,sans-Serif" font-size="10.00">::IASetupActivitiesZone</text>
</a>
</g>
</g>
<!-- Node18&#45;&gt;Node19 -->
<g id="edge23" class="edge">
<title>Node18&#45;&gt;Node19</title>
<path fill="none" stroke="midnightblue" d="M387.73,-169.81C371.23,-170.25 353.59,-170.72 337.03,-171.15"/>
<polygon fill="midnightblue" stroke="midnightblue" points="387.93,-173.31 397.84,-169.55 387.75,-166.31 387.93,-173.31"/>
</g>
<!-- Node21 -->
<g id="node21" class="node">
<title>Node21</title>
<g id="a_node21"><a xlink:href="classO__State__DecisionMakerIA.html#a8bd1c4d72bec8768c7c7c15bd2e665d8" target="_top" xlink:title="Configure les activités pour le mode test de la table.">
<polygon fill="white" stroke="black" points="178,-109 178,-139 354,-139 354,-109 178,-109"/>
<text text-anchor="start" x="186" y="-127" font-family="Helvetica,sans-Serif" font-size="10.00">O_State_DecisionMakerIA</text>
<text text-anchor="middle" x="266" y="-116" font-family="Helvetica,sans-Serif" font-size="10.00">::IASetupActivitiesZoneTableTest</text>
</a>
</g>
</g>
<!-- Node18&#45;&gt;Node21 -->
<g id="edge25" class="edge">
<title>Node18&#45;&gt;Node21</title>
<path fill="none" stroke="midnightblue" d="M405.62,-156.19C382.95,-150.92 355.98,-144.66 331.88,-139.07"/>
<polygon fill="midnightblue" stroke="midnightblue" points="404.85,-159.6 415.38,-158.45 406.43,-152.78 404.85,-159.6"/>
</g>
<!-- Node20 -->
<g id="node20" class="node">
<title>Node20</title>
<g id="a_node20"><a xlink:href="classO__State__DecisionMakerIA.html#a96d1f2a7618d607fd10cc51b9111e653" target="_top" xlink:title="Execute l&#39;action.">
<polygon fill="white" stroke="black" points="0,-133 0,-163 142,-163 142,-133 0,-133"/>
<text text-anchor="start" x="8" y="-151" font-family="Helvetica,sans-Serif" font-size="10.00">O_State_DecisionMakerIA</text>
<text text-anchor="middle" x="71" y="-140" font-family="Helvetica,sans-Serif" font-size="10.00">::execute</text>
</a>
</g>
</g>
<!-- Node19&#45;&gt;Node20 -->
<g id="edge24" class="edge">
<title>Node19&#45;&gt;Node20</title>
<path fill="none" stroke="midnightblue" d="M184.62,-162.59C170.52,-160.76 155.96,-158.88 142.17,-157.09"/>
<polygon fill="midnightblue" stroke="midnightblue" points="184.41,-166.09 194.78,-163.9 185.31,-159.15 184.41,-166.09"/>
</g>
<!-- Node21&#45;&gt;Node20 -->
<g id="edge26" class="edge">
<title>Node21&#45;&gt;Node20</title>
<path fill="none" stroke="midnightblue" d="M167.67,-136.1C159.02,-137.18 150.38,-138.25 142.02,-139.29"/>
<polygon fill="midnightblue" stroke="midnightblue" points="168.33,-139.55 177.82,-134.84 167.46,-132.6 168.33,-139.55"/>
</g>
<!-- Node23 -->
<g id="node23" class="node">
<title>Node23</title>
<g id="a_node23"><a xlink:href="O__IAbyPathTest_8cpp.html#ac1055b8eb7025052d58ebaf15869a480" target="_top" xlink:title=" ">
<polygon fill="white" stroke="black" points="391,-35.5 391,-54.5 524,-54.5 524,-35.5 391,-35.5"/>
<text text-anchor="middle" x="457.5" y="-42.5" font-family="Helvetica,sans-Serif" font-size="10.00">O_IAbyPathTest_action1</text>
</a>
</g>
</g>
<!-- Node22&#45;&gt;Node23 -->
<g id="edge29" class="edge">
<title>Node22&#45;&gt;Node23</title>
<path fill="none" stroke="midnightblue" d="M556.09,-43.42C545.3,-43.59 534.42,-43.77 524.03,-43.94"/>
<polygon fill="midnightblue" stroke="midnightblue" points="556.44,-46.91 566.38,-43.25 556.33,-39.91 556.44,-46.91"/>
</g>
<!-- Node25 -->
<g id="node25" class="node">
<title>Node25</title>
<g id="a_node25"><a xlink:href="O__IAbyPathTest_8cpp.html#aafb960063ea3193551e7ba63626e2561" target="_top" xlink:title=" ">
<polygon fill="white" stroke="black" points="390.5,-73.5 390.5,-92.5 524.5,-92.5 524.5,-73.5 390.5,-73.5"/>
<text text-anchor="middle" x="457.5" y="-80.5" font-family="Helvetica,sans-Serif" font-size="10.00">O_IAByPathTest_action2</text>
</a>
</g>
</g>
<!-- Node22&#45;&gt;Node25 -->
<g id="edge31" class="edge">
<title>Node22&#45;&gt;Node25</title>
<path fill="none" stroke="midnightblue" d="M565.69,-59.25C543.76,-64.11 520.7,-69.22 501.61,-73.45"/>
<polygon fill="midnightblue" stroke="midnightblue" points="566.66,-62.61 575.66,-57.03 565.14,-55.78 566.66,-62.61"/>
</g>
<!-- Node24 -->
<g id="node24" class="node">
<title>Node24</title>
<g id="a_node24"><a xlink:href="classO__IAByPathTest.html#abedd21fde4835d641e6aa3f8e1c6581f" target="_top" xlink:title="Configure les activités de l&#39;IA pour le test.">
<polygon fill="white" stroke="black" points="198,-70.5 198,-89.5 334,-89.5 334,-70.5 198,-70.5"/>
<text text-anchor="middle" x="266" y="-77.5" font-family="Helvetica,sans-Serif" font-size="10.00">O_IAByPathTest::IASetup</text>
</a>
</g>
</g>
<!-- Node23&#45;&gt;Node24 -->
<g id="edge30" class="edge">
<title>Node23&#45;&gt;Node24</title>
<path fill="none" stroke="midnightblue" d="M394.77,-56.4C370.19,-60.94 342.21,-66.11 318.72,-70.45"/>
<polygon fill="midnightblue" stroke="midnightblue" points="395.52,-59.82 404.72,-54.56 394.25,-52.94 395.52,-59.82"/>
</g>
<!-- Node25&#45;&gt;Node24 -->
<g id="edge32" class="edge">
<title>Node25&#45;&gt;Node24</title>
<path fill="none" stroke="midnightblue" d="M380.07,-81.79C364.84,-81.55 348.95,-81.3 334.06,-81.06"/>
<polygon fill="midnightblue" stroke="midnightblue" points="380.43,-85.3 390.49,-81.95 380.54,-78.3 380.43,-85.3"/>
</g>
<!-- Node27&#45;&gt;Node9 -->
<g id="edge35" class="edge">
<title>Node27&#45;&gt;Node9</title>
<path fill="none" stroke="midnightblue" d="M761.61,-310C747.45,-310 732.94,-310 719.2,-310"/>
<polygon fill="midnightblue" stroke="midnightblue" points="761.86,-313.5 771.86,-310 761.85,-306.5 761.86,-313.5"/>
</g>
<!-- Node27&#45;&gt;Node10 -->
<g id="edge36" class="edge">
<title>Node27&#45;&gt;Node10</title>
<path fill="none" stroke="midnightblue" d="M769.55,-295.27C767.62,-293.95 765.76,-292.53 764,-291 729,-260.53 761.75,-224.85 728,-193 723.86,-189.1 719.14,-185.8 714.09,-183.02"/>
<polygon fill="midnightblue" stroke="midnightblue" points="768.06,-298.44 778.48,-300.37 771.53,-292.37 768.06,-298.44"/>
</g>
<!-- Node27&#45;&gt;Node17 -->
<g id="edge37" class="edge">
<title>Node27&#45;&gt;Node17</title>
<path fill="none" stroke="midnightblue" d="M796.85,-298.33C772.08,-293.04 742.47,-286.71 716.03,-281.07"/>
<polygon fill="midnightblue" stroke="midnightblue" points="796.29,-301.79 806.8,-300.45 797.75,-294.94 796.29,-301.79"/>
</g>
<!-- Node29&#45;&gt;Node15 -->
<g id="edge45" class="edge">
<title>Node29&#45;&gt;Node15</title>
<path fill="none" stroke="midnightblue" d="M618.55,-101.1C601.5,-111.99 578.84,-127.61 561,-144 542.65,-160.87 541.03,-167.91 525,-187 504.02,-211.99 479.26,-241.38 466.7,-256.28"/>
<polygon fill="midnightblue" stroke="midnightblue" points="620.77,-103.84 627.38,-95.56 617.05,-97.91 620.77,-103.84"/>
</g>
<!-- Node29&#45;&gt;Node18 -->
<g id="edge42" class="edge">
<title>Node29&#45;&gt;Node18</title>
<path fill="none" stroke="midnightblue" d="M615.71,-100.23C591.9,-112.22 556.55,-129.51 525,-143 512.18,-148.48 497.73,-153.99 485.57,-158.44"/>
<polygon fill="midnightblue" stroke="midnightblue" points="617.51,-103.24 624.86,-95.6 614.35,-97 617.51,-103.24"/>
</g>
<!-- Node29&#45;&gt;Node23 -->
<g id="edge43" class="edge">
<title>Node29&#45;&gt;Node23</title>
<path fill="none" stroke="midnightblue" d="M590.5,-74.25C562.28,-68 528.04,-60.41 501.5,-54.53"/>
<polygon fill="midnightblue" stroke="midnightblue" points="590.07,-77.74 600.59,-76.49 591.59,-70.91 590.07,-77.74"/>
</g>
<!-- Node29&#45;&gt;Node25 -->
<g id="edge44" class="edge">
<title>Node29&#45;&gt;Node25</title>
<path fill="none" stroke="midnightblue" d="M577.51,-84.93C560.37,-84.65 541.89,-84.35 524.73,-84.07"/>
<polygon fill="midnightblue" stroke="midnightblue" points="577.94,-88.44 587.99,-85.1 578.05,-81.44 577.94,-88.44"/>
</g>
<!-- Node30&#45;&gt;Node19 -->
<g id="edge48" class="edge">
<title>Node30&#45;&gt;Node19</title>
<path fill="none" stroke="midnightblue" d="M409.7,-136.1C384.15,-142.71 352.29,-150.95 325.15,-157.96"/>
<polygon fill="midnightblue" stroke="midnightblue" points="410.71,-139.46 419.51,-133.56 408.95,-132.68 410.71,-139.46"/>
</g>
<!-- Node30&#45;&gt;Node21 -->
<g id="edge49" class="edge">
<title>Node30&#45;&gt;Node21</title>
<path fill="none" stroke="midnightblue" d="M379.74,-124C371.26,-124 362.59,-124 354.01,-124"/>
<polygon fill="midnightblue" stroke="midnightblue" points="379.96,-127.5 389.96,-124 379.96,-120.5 379.96,-127.5"/>
</g>
<!-- Node30&#45;&gt;Node24 -->
<g id="edge47" class="edge">
<title>Node30&#45;&gt;Node24</title>
<path fill="none" stroke="midnightblue" d="M408.31,-111.99C391.19,-107.79 371.75,-103.1 354,-99 340.29,-95.83 325.34,-92.52 311.75,-89.56"/>
<polygon fill="midnightblue" stroke="midnightblue" points="407.55,-115.41 418.1,-114.4 409.23,-108.61 407.55,-115.41"/>
</g>
<!-- Node32&#45;&gt;Node3 -->
<g id="edge54" class="edge">
<title>Node32&#45;&gt;Node3</title>
<path fill="none" stroke="midnightblue" d="M839.42,-493.14C822.08,-519.41 789.42,-569.74 764,-614 746.77,-643.99 755.37,-661.84 728,-683 723,-686.87 717.35,-689.97 711.41,-692.46"/>
<polygon fill="midnightblue" stroke="midnightblue" points="842.47,-494.88 845.07,-484.61 836.63,-491.01 842.47,-494.88"/>
</g>
<!-- Node32&#45;&gt;Node4 -->
<g id="edge52" class="edge">
<title>Node32&#45;&gt;Node4</title>
<path fill="none" stroke="midnightblue" d="M834.14,-458.14C814.47,-438.11 782.72,-402.89 764,-367 737.27,-315.74 768.6,-283.16 728,-242 723.8,-237.74 718.89,-234.2 713.61,-231.26"/>
<polygon fill="midnightblue" stroke="midnightblue" points="831.73,-460.68 841.28,-465.27 836.68,-455.73 831.73,-460.68"/>
</g>
<!-- Node32&#45;&gt;Node9 -->
<g id="edge59" class="edge">
<title>Node32&#45;&gt;Node9</title>
<path fill="none" stroke="midnightblue" d="M833.82,-458.39C810.32,-436.59 767.2,-397.52 728,-367 705.2,-349.25 677.28,-330.55 660.47,-319.6"/>
<polygon fill="midnightblue" stroke="midnightblue" points="831.57,-461.08 841.27,-465.34 836.34,-455.96 831.57,-461.08"/>
</g>
<!-- Node32&#45;&gt;Node12 -->
<g id="edge55" class="edge">
<title>Node32&#45;&gt;Node12</title>
<path fill="none" stroke="midnightblue" d="M828.56,-490.66C809.11,-504.94 781.64,-527.65 764,-553 738.92,-589.04 761.24,-616.31 728,-645 723.55,-648.84 718.48,-651.95 713.08,-654.45"/>
<polygon fill="midnightblue" stroke="midnightblue" points="830.78,-493.37 836.87,-484.7 826.7,-487.68 830.78,-493.37"/>
</g>
<!-- Node32&#45;&gt;Node16 -->
<g id="edge58" class="edge">
<title>Node32&#45;&gt;Node16</title>
<path fill="none" stroke="midnightblue" d="M829.34,-459.81C805.35,-444.01 765.48,-419.58 728,-405 718.14,-401.16 707.3,-397.98 696.81,-395.39"/>
<polygon fill="midnightblue" stroke="midnightblue" points="827.46,-462.76 837.72,-465.4 831.34,-456.94 827.46,-462.76"/>
</g>
<!-- Node32&#45;&gt;Node26 -->
<g id="edge57" class="edge">
<title>Node32&#45;&gt;Node26</title>
<path fill="none" stroke="midnightblue" d="M804.11,-463.01C781.14,-457.22 753.15,-450.2 728,-444 714.12,-440.58 698.91,-436.88 685.38,-433.6"/>
<polygon fill="midnightblue" stroke="midnightblue" points="803.4,-466.44 813.96,-465.49 805.12,-459.65 803.4,-466.44"/>
</g>
<!-- Node33 -->
<g id="node33" class="node">
<title>Node33</title>
<g id="a_node33"><a xlink:href="classAsserv.html#a9e997a871e745e687a4088103378bae3" target="_top" xlink:title=" ">
<polygon fill="white" stroke="black" points="571.5,-453 571.5,-483 717.5,-483 717.5,-453 571.5,-453"/>
<text text-anchor="start" x="579.5" y="-471" font-family="Helvetica,sans-Serif" font-size="10.00">Asserv::calculateDriftRight</text>
<text text-anchor="middle" x="644.5" y="-460" font-family="Helvetica,sans-Serif" font-size="10.00">SideAndSetPos</text>
</a>
</g>
</g>
<!-- Node32&#45;&gt;Node33 -->
<g id="edge53" class="edge">
<title>Node32&#45;&gt;Node33</title>
<path fill="none" stroke="midnightblue" d="M765.57,-472.08C749.61,-471.54 733.09,-470.98 717.6,-470.45"/>
<polygon fill="midnightblue" stroke="midnightblue" points="765.85,-475.59 775.96,-472.43 766.09,-468.6 765.85,-475.59"/>
</g>
<!-- Node34 -->
<g id="node34" class="node">
<title>Node34</title>
<g id="a_node34"><a xlink:href="classO__AsservCalibrationTest.html#a578ac4b37bd38a475665dc353cb834f5" target="_top" xlink:title=" ">
<polygon fill="white" stroke="black" points="566,-578.5 566,-597.5 723,-597.5 723,-578.5 566,-578.5"/>
<text text-anchor="middle" x="644.5" y="-585.5" font-family="Helvetica,sans-Serif" font-size="10.00">O_AsservCalibrationTest::run</text>
</a>
</g>
</g>
<!-- Node32&#45;&gt;Node34 -->
<g id="edge56" class="edge">
<title>Node32&#45;&gt;Node34</title>
<path fill="none" stroke="midnightblue" d="M834.54,-491.75C812.09,-512.96 770.37,-549.13 728,-569 719.75,-572.87 710.66,-575.98 701.61,-578.47"/>
<polygon fill="midnightblue" stroke="midnightblue" points="837.12,-494.12 841.91,-484.67 832.27,-489.07 837.12,-494.12"/>
</g>
<!-- Node35 -->
<g id="node35" class="node">
<title>Node35</title>
<g id="a_node35"><a xlink:href="classO__IAByPathTest.html#a3f57f585ff1382a52bf7f79a28d43629" target="_top" xlink:title="Execute le test.">
<polygon fill="white" stroke="black" points="587.5,-540.5 587.5,-559.5 701.5,-559.5 701.5,-540.5 587.5,-540.5"/>
<text text-anchor="middle" x="644.5" y="-547.5" font-family="Helvetica,sans-Serif" font-size="10.00">O_IAByPathTest::run</text>
</a>
</g>
</g>
<!-- Node32&#45;&gt;Node35 -->
<g id="edge60" class="edge">
<title>Node32&#45;&gt;Node35</title>
<path fill="none" stroke="midnightblue" d="M824.48,-489.15C799.87,-501.57 762.26,-519.42 728,-531 717.28,-534.62 705.54,-537.79 694.37,-540.44"/>
<polygon fill="midnightblue" stroke="midnightblue" points="826.23,-492.18 833.55,-484.52 823.05,-485.95 826.23,-492.18"/>
</g>
<!-- Node36 -->
<g id="node36" class="node">
<title>Node36</title>
<g id="a_node36"><a xlink:href="classO__SensorsTest.html#ae3b998034225e16586ded4ba3bd419e5" target="_top" xlink:title="Execute le test.">
<polygon fill="white" stroke="black" points="590,-502.5 590,-521.5 699,-521.5 699,-502.5 590,-502.5"/>
<text text-anchor="middle" x="644.5" y="-509.5" font-family="Helvetica,sans-Serif" font-size="10.00">O_SensorsTest::run</text>
</a>
</g>
</g>
<!-- Node32&#45;&gt;Node36 -->
<g id="edge61" class="edge">
<title>Node32&#45;&gt;Node36</title>
<path fill="none" stroke="midnightblue" d="M788.51,-486.31C759.8,-491.47 726.16,-497.51 698.73,-502.44"/>
<polygon fill="midnightblue" stroke="midnightblue" points="789.23,-489.74 798.45,-484.53 787.99,-482.85 789.23,-489.74"/>
</g>
<!-- Node37 -->
<g id="node37" class="node">
<title>Node37</title>
<g id="a_node37"><a xlink:href="classO__State__Init.html#a1980cd82dcb83e88d61f2e7e14dddfa0" target="_top" xlink:title=" ">
<polygon fill="white" stroke="black" points="587.5,-616.5 587.5,-635.5 701.5,-635.5 701.5,-616.5 587.5,-616.5"/>
<text text-anchor="middle" x="644.5" y="-623.5" font-family="Helvetica,sans-Serif" font-size="10.00">O_State_Init::setPos</text>
</a>
</g>
</g>
<!-- Node32&#45;&gt;Node37 -->
<g id="edge62" class="edge">
<title>Node32&#45;&gt;Node37</title>
<path fill="none" stroke="midnightblue" d="M830.82,-490.91C812.17,-505.81 784.6,-529.29 764,-553 745.08,-574.77 751.73,-590.6 728,-607 720.14,-612.43 710.95,-616.33 701.62,-619.12"/>
<polygon fill="midnightblue" stroke="midnightblue" points="833.01,-493.64 838.7,-484.7 828.68,-488.14 833.01,-493.64"/>
</g>
<!-- Node38 -->
<g id="node38" class="node">
<title>Node38</title>
<g id="a_node38"><a xlink:href="classO__State__Init.html#abc19788b7457d1f819245dd28367fe91" target="_top" xlink:title="Exécute l&#39;état d&#39;initialisation.">
<polygon fill="white" stroke="black" points="397.5,-616.5 397.5,-635.5 517.5,-635.5 517.5,-616.5 397.5,-616.5"/>
<text text-anchor="middle" x="457.5" y="-623.5" font-family="Helvetica,sans-Serif" font-size="10.00">O_State_Init::execute</text>
</a>
</g>
</g>
<!-- Node37&#45;&gt;Node38 -->
<g id="edge63" class="edge">
<title>Node37&#45;&gt;Node38</title>
<path fill="none" stroke="midnightblue" d="M577.44,-626C557.89,-626 536.61,-626 517.53,-626"/>
<polygon fill="midnightblue" stroke="midnightblue" points="577.49,-629.5 587.49,-626 577.49,-622.5 577.49,-629.5"/>
</g>
</g>
</svg>
        <g id="navigator" transform="translate(0 0)" fill="#404254">
                <rect fill="#f2f5e9" fill-opacity="0.5" stroke="#606060" stroke-width=".5" x="0" y="0" width="60" height="60"/>
                <use id="zoomplus" xlink:href="#zoomPlus" x="17" y="9" onmousedown="handleZoom(evt,'in')"/>
                <use id="zoomminus" xlink:href="#zoomMin" x="42" y="9" onmousedown="handleZoom(evt,'out')"/>
                <use id="reset" xlink:href="#resetDef" x="30" y="36" onmousedown="handleReset()"/>
                <g id="arrowUp" xlink:href="#dirArrow" transform="translate(30 24)" onmousedown="handlePan(0,-1)">
                  <use xlink:href="#rim" fill="#404040">
                        <set attributeName="fill" to="#808080" begin="arrowUp.mouseover" end="arrowUp.mouseout"/>
                  </use>
                  <path fill="none" stroke="white" stroke-width="1.5" d="M0,-3.0v7 M-2.5,-0.5L0,-3.0L2.5,-0.5"/>
                </g>
                <g id="arrowRight" xlink:href="#dirArrow" transform="rotate(90) translate(36 -43)" onmousedown="handlePan(1,0)">
                  <use xlink:href="#rim" fill="#404040">
                        <set attributeName="fill" to="#808080" begin="arrowRight.mouseover" end="arrowRight.mouseout"/>
                  </use>
                  <path fill="none" stroke="white" stroke-width="1.5" d="M0,-3.0v7 M-2.5,-0.5L0,-3.0L2.5,-0.5"/>
                </g>
                <g id="arrowDown" xlink:href="#dirArrow" transform="rotate(180) translate(-30 -48)" onmousedown="handlePan(0,1)">
                  <use xlink:href="#rim" fill="#404040">
                        <set attributeName="fill" to="#808080" begin="arrowDown.mouseover" end="arrowDown.mouseout"/>
                  </use>
                  <path fill="none" stroke="white" stroke-width="1.5" d="M0,-3.0v7 M-2.5,-0.5L0,-3.0L2.5,-0.5"/>
                </g>
                <g id="arrowLeft" xlink:href="#dirArrow" transform="rotate(270) translate(-36 17)" onmousedown="handlePan(-1,0)">
                  <use xlink:href="#rim" fill="#404040">
                        <set attributeName="fill" to="#808080" begin="arrowLeft.mouseover" end="arrowLeft.mouseout"/>
                  </use>
                  <path fill="none" stroke="white" stroke-width="1.5" d="M0,-3.0v7 M-2.5,-0.5L0,-3.0L2.5,-0.5"/>
                </g>
        </g>
        <svg viewBox="0 0 15 15" width="100%" height="30px" preserveAspectRatio="xMaxYMin meet">
         <g id="arrow_out" transform="scale(0.3 0.3)">
          <a xlink:href="classAsserv_ad8dcc5e2fdf8a0d51ac7caa959afd1ab_icgraph_org.svg" target="_base">
           <rect id="button" ry="5" rx="5" y="6" x="6" height="38" width="38"
                fill="#f2f5e9" fill-opacity="0.5" stroke="#606060" stroke-width="1.0"/>
           <path id="arrow"
             d="M 11.500037,31.436501 C 11.940474,20.09759 22.043105,11.32322 32.158766,21.979434 L 37.068811,17.246167 C 37.068811,17.246167 37.088388,32 37.088388,32 L 22.160133,31.978069 C 22.160133,31.978069 26.997745,27.140456 26.997745,27.140456 C 18.528582,18.264221 13.291696,25.230495 11.500037,31.436501 z"
             style="fill:#404040;"/>
          </a>
         </g>
        </svg>
</svg>
