<?xml version="1.0" encoding="UTF-8" standalone="no"?>
<!DOCTYPE svg PUBLIC "-//W3C//DTD SVG 1.1//EN"
 "http://www.w3.org/Graphics/SVG/1.1/DTD/svg11.dtd">
<!-- Generated by graphviz version 2.43.0 (0)
 -->
<!-- Title: LcdShieldDriver::clear Pages: 1 -->
<!--zoomable 541 -->
<svg id="main" version="1.1" xmlns="http://www.w3.org/2000/svg" xmlns:xlink="http://www.w3.org/1999/xlink" xml:space="preserve" onload="init(evt)">
<style type="text/css"><![CDATA[
.edge:hover path { stroke: red; }
.edge:hover polygon { stroke: red; fill: red; }
]]></style>
<script type="text/javascript"><![CDATA[
var edges = document.getElementsByTagName('g');
if (edges && edges.length) {
  for (var i=0;i<edges.length;i++) {
    if (edges[i].id.substr(0,4)=='edge') {
      edges[i].setAttribute('class','edge');
    }
  }
}
]]></script>
        <defs>
                <circle id="rim" cx="0" cy="0" r="7"/>
                <circle id="rim2" cx="0" cy="0" r="3.5"/>
                <g id="zoomPlus">
                        <use xlink:href="#rim" fill="#404040">
                                <set attributeName="fill" to="#808080" begin="zoomplus.mouseover" end="zoomplus.mouseout"/>
                        </use>
                        <path d="M-4,0h8M0,-4v8" fill="none" stroke="white" stroke-width="1.5" pointer-events="none"/>
                </g>
                <g id="zoomMin">
                        <use xlink:href="#rim" fill="#404040">
                                <set attributeName="fill" to="#808080" begin="zoomminus.mouseover" end="zoomminus.mouseout"/>
                        </use>
                        <path d="M-4,0h8" fill="none" stroke="white" stroke-width="1.5" pointer-events="none"/>
                </g>
                <g id="dirArrow">
                        <path fill="none" stroke="white" stroke-width="1.5" d="M0,-3.0v7 M-2.5,-0.5L0,-3.0L2.5,-0.5"/>
                </g>
               <g id="resetDef">
                       <use xlink:href="#rim2" fill="#404040">
                               <set attributeName="fill" to="#808080" begin="reset.mouseover" end="reset.mouseout"/>
                       </use>
               </g>
        </defs>

<script type="text/javascript">
var viewWidth = 1690;
var viewHeight = 541;
var sectionId = 'dynsection-3';
</script>
<script xlink:href="svgpan.js"/>
<svg id="graph" class="graph">
<g id="viewport">
<title>LcdShieldDriver::clear</title>
<polygon fill="white" stroke="transparent" points="-4,4 -4,-537.1 1686,-537.1 1686,4 -4,4"/>
<!-- Node1 -->
<g id="node1" class="node">
<title>Node1</title>
<g id="a_node1"><a xlink:title="Efface tout le contenu de l&#39;ecran.">
<polygon fill="#bfbfbf" stroke="black" points="0,-299.6 0,-318.6 123,-318.6 123,-299.6 0,-299.6"/>
<text text-anchor="middle" x="61.5" y="-306.6" font-family="Helvetica,sans-Serif" font-size="10.00">LcdShieldDriver::clear</text>
</a>
</g>
</g>
<!-- Node2 -->
<g id="node2" class="node">
<title>Node2</title>
<g id="a_node2"><a xlink:href="classAdafruit__RGBLCDShield.html#ad203e22075b6a8b63e9e206105bcc433" target="_top" xlink:title=" ">
<polygon fill="white" stroke="black" points="159,-119.1 159,-149.1 290,-149.1 290,-119.1 159,-119.1"/>
<text text-anchor="start" x="167" y="-137.1" font-family="Helvetica,sans-Serif" font-size="10.00">Adafruit_RGBLCDShield</text>
<text text-anchor="middle" x="224.5" y="-126.1" font-family="Helvetica,sans-Serif" font-size="10.00">::clear</text>
</a>
</g>
</g>
<!-- Node1&#45;&gt;Node2 -->
<g id="edge1" class="edge">
<title>Node1&#45;&gt;Node2</title>
<path fill="none" stroke="midnightblue" d="M71.39,-299.44C96.25,-272.41 167.03,-195.48 202.58,-156.83"/>
<polygon fill="midnightblue" stroke="midnightblue" points="205.41,-158.93 209.61,-149.2 200.26,-154.19 205.41,-158.93"/>
</g>
<!-- Node16 -->
<g id="node16" class="node">
<title>Node16</title>
<g id="a_node16"><a xlink:href="classAdafruit__RGBLCDShield.html#a5d6b24992e72f3beb5187b971eec3d42" target="_top" xlink:title=" ">
<polygon fill="white" stroke="black" points="1346.5,-475.1 1346.5,-505.1 1477.5,-505.1 1477.5,-475.1 1346.5,-475.1"/>
<text text-anchor="start" x="1354.5" y="-493.1" font-family="Helvetica,sans-Serif" font-size="10.00">Adafruit_RGBLCDShield</text>
<text text-anchor="middle" x="1412" y="-482.1" font-family="Helvetica,sans-Serif" font-size="10.00">::instance</text>
</a>
</g>
</g>
<!-- Node1&#45;&gt;Node16 -->
<g id="edge48" class="edge">
<title>Node1&#45;&gt;Node16</title>
<path fill="none" stroke="midnightblue" d="M69.35,-318.72C100.76,-361.6 236.04,-533.1 390.5,-533.1 390.5,-533.1 390.5,-533.1 1060.5,-533.1 1156.18,-533.1 1265.48,-517.11 1336.22,-504.64"/>
<polygon fill="midnightblue" stroke="midnightblue" points="1337.14,-508.03 1346.37,-502.82 1335.91,-501.14 1337.14,-508.03"/>
</g>
<!-- Node3 -->
<g id="node3" class="node">
<title>Node3</title>
<g id="a_node3"><a xlink:href="classAdafruit__RGBLCDShield.html#a8e013da901a8360c265a4a4aa508627b" target="_top" xlink:title=" ">
<polygon fill="white" stroke="black" points="326,-152.1 326,-182.1 457,-182.1 457,-152.1 326,-152.1"/>
<text text-anchor="start" x="334" y="-170.1" font-family="Helvetica,sans-Serif" font-size="10.00">Adafruit_RGBLCDShield</text>
<text text-anchor="middle" x="391.5" y="-159.1" font-family="Helvetica,sans-Serif" font-size="10.00">::command</text>
</a>
</g>
</g>
<!-- Node2&#45;&gt;Node3 -->
<g id="edge2" class="edge">
<title>Node2&#45;&gt;Node3</title>
<path fill="none" stroke="midnightblue" d="M290.24,-147.04C298.67,-148.73 307.37,-150.47 315.95,-152.19"/>
<polygon fill="midnightblue" stroke="midnightblue" points="315.46,-155.66 325.95,-154.19 316.83,-148.79 315.46,-155.66"/>
</g>
<!-- Node6 -->
<g id="node6" class="node">
<title>Node6</title>
<g id="a_node6"><a xlink:href="classlogs_1_1Logger.html#a7dffc8f610014ec59b63392da16140e4" target="_top" xlink:title="Trace un message de niveau DEBUG.">
<polygon fill="white" stroke="black" points="1170.5,-327.6 1170.5,-346.6 1282.5,-346.6 1282.5,-327.6 1170.5,-327.6"/>
<text text-anchor="middle" x="1226.5" y="-334.6" font-family="Helvetica,sans-Serif" font-size="10.00">logs::Logger::debug</text>
</a>
</g>
</g>
<!-- Node2&#45;&gt;Node6 -->
<g id="edge42" class="edge">
<title>Node2&#45;&gt;Node6</title>
<path fill="none" stroke="midnightblue" d="M231.88,-149.24C259.88,-213.1 378.57,-457.1 557.5,-457.1 557.5,-457.1 557.5,-457.1 893.5,-457.1 996.77,-457.1 1039.57,-495.12 1125,-437.1 1154.6,-416.99 1135.03,-389.7 1161,-365.1 1167.18,-359.24 1174.78,-354.5 1182.56,-350.7"/>
<polygon fill="midnightblue" stroke="midnightblue" points="1183.98,-353.9 1191.71,-346.66 1181.15,-347.5 1183.98,-353.9"/>
</g>
<!-- Node11 -->
<g id="node11" class="node">
<title>Node11</title>
<g id="a_node11"><a xlink:href="namespacelogs.html#ac6f325c6cfe6189bc8e243daa184453b" target="_top" xlink:title="Cette méthode permet de finir les flux de construction par la notation.">
<polygon fill="white" stroke="black" points="1196,-150.6 1196,-169.6 1257,-169.6 1257,-150.6 1196,-150.6"/>
<text text-anchor="middle" x="1226.5" y="-157.6" font-family="Helvetica,sans-Serif" font-size="10.00">logs::end</text>
</a>
</g>
</g>
<!-- Node2&#45;&gt;Node11 -->
<g id="edge43" class="edge">
<title>Node2&#45;&gt;Node11</title>
<path fill="none" stroke="midnightblue" d="M290.33,-126.77C418.27,-113.49 712.18,-88.77 958,-111.1 1039.77,-118.52 1133.89,-138.47 1185.84,-150.5"/>
<polygon fill="midnightblue" stroke="midnightblue" points="1185.12,-153.93 1195.66,-152.8 1186.72,-147.11 1185.12,-153.93"/>
</g>
<!-- Node13 -->
<g id="node13" class="node">
<title>Node13</title>
<g id="a_node13"><a xlink:href="classutils_1_1Mutex.html#aa584b418a5ef484f76b93e361a1d7e32" target="_top" xlink:title="Verrouille le mutex. Cette méthode doit être appelée avant d&#39;utiliser la ressource associée....">
<polygon fill="white" stroke="black" points="1556.5,-107.6 1556.5,-126.6 1657.5,-126.6 1657.5,-107.6 1556.5,-107.6"/>
<text text-anchor="middle" x="1607" y="-114.6" font-family="Helvetica,sans-Serif" font-size="10.00">utils::Mutex::lock</text>
</a>
</g>
</g>
<!-- Node2&#45;&gt;Node13 -->
<g id="edge44" class="edge">
<title>Node2&#45;&gt;Node13</title>
<path fill="none" stroke="midnightblue" d="M240.23,-119.03C258.5,-101.41 291.5,-73.01 326,-60.1 422.68,-23.89 454.27,-41.1 557.5,-41.1 557.5,-41.1 557.5,-41.1 893.5,-41.1 1136.71,-41.1 1423.99,-85.42 1546.18,-106.37"/>
<polygon fill="midnightblue" stroke="midnightblue" points="1545.64,-109.83 1556.09,-108.08 1546.83,-102.93 1545.64,-109.83"/>
</g>
<!-- Node14 -->
<g id="node14" class="node">
<title>Node14</title>
<g id="a_node14"><a xlink:href="classutils_1_1Mutex.html#a59b2079dc7f803d49f78ac9c04406cd3" target="_top" xlink:title="Déverrouille le mutex. Cette méthode doit être appelée après avoir utiliser la ressource associée.">
<polygon fill="white" stroke="black" points="1550.5,-31.6 1550.5,-50.6 1663.5,-50.6 1663.5,-31.6 1550.5,-31.6"/>
<text text-anchor="middle" x="1607" y="-38.6" font-family="Helvetica,sans-Serif" font-size="10.00">utils::Mutex::unlock</text>
</a>
</g>
</g>
<!-- Node2&#45;&gt;Node14 -->
<g id="edge47" class="edge">
<title>Node2&#45;&gt;Node14</title>
<path fill="none" stroke="midnightblue" d="M235.45,-119.03C251.49,-96.13 285.41,-53.13 326,-33.1 419.04,12.81 453.75,-3.1 557.5,-3.1 557.5,-3.1 557.5,-3.1 1227.5,-3.1 1337.57,-3.1 1464.74,-19.2 1540.1,-30.44"/>
<polygon fill="midnightblue" stroke="midnightblue" points="1539.97,-33.96 1550.38,-31.99 1541.01,-27.04 1539.97,-33.96"/>
</g>
<!-- Node15 -->
<g id="node15" class="node">
<title>Node15</title>
<g id="a_node15"><a xlink:href="classAdafruit__RGBLCDShield.html#a93313ba4a8e5e896f400006672ff4317" target="_top" xlink:title=" ">
<polygon fill="white" stroke="black" points="1161,-375.1 1161,-405.1 1292,-405.1 1292,-375.1 1161,-375.1"/>
<text text-anchor="start" x="1169" y="-393.1" font-family="Helvetica,sans-Serif" font-size="10.00">Adafruit_RGBLCDShield</text>
<text text-anchor="middle" x="1226.5" y="-382.1" font-family="Helvetica,sans-Serif" font-size="10.00">::logger</text>
</a>
</g>
</g>
<!-- Node2&#45;&gt;Node15 -->
<g id="edge45" class="edge">
<title>Node2&#45;&gt;Node15</title>
<path fill="none" stroke="midnightblue" d="M227.6,-149.25C234.26,-191.96 258.59,-314.89 326,-387.1 403.48,-470.08 443.97,-495.1 557.5,-495.1 557.5,-495.1 557.5,-495.1 893.5,-495.1 997.09,-495.1 1029.12,-507.29 1125,-468.1 1155.77,-455.52 1185.09,-430.77 1204.04,-412.51"/>
<polygon fill="midnightblue" stroke="midnightblue" points="1206.85,-414.66 1211.5,-405.14 1201.93,-409.68 1206.85,-414.66"/>
</g>
<!-- Node29 -->
<g id="node29" class="node">
<title>Node29</title>
<g id="a_node29"><a xlink:href="namespaceutils.html#a4f86fc4c334661a6995538cc080a40c9" target="_top" xlink:title="Met en pause le thread courant pendant usec microsecondes.">
<polygon fill="white" stroke="black" points="328,-69.6 328,-88.6 455,-88.6 455,-69.6 328,-69.6"/>
<text text-anchor="middle" x="391.5" y="-76.6" font-family="Helvetica,sans-Serif" font-size="10.00">utils::sleep_for_micros</text>
</a>
</g>
</g>
<!-- Node2&#45;&gt;Node29 -->
<g id="edge46" class="edge">
<title>Node2&#45;&gt;Node29</title>
<path fill="none" stroke="midnightblue" d="M270.59,-119.07C296.08,-110.57 327.62,-100.06 351.96,-91.94"/>
<polygon fill="midnightblue" stroke="midnightblue" points="353.19,-95.22 361.57,-88.74 350.98,-88.58 353.19,-95.22"/>
</g>
<!-- Node4 -->
<g id="node4" class="node">
<title>Node4</title>
<g id="a_node4"><a xlink:href="classAdafruit__RGBLCDShield.html#a07aa574d4796eaff43d83eea11ecf878" target="_top" xlink:title=" ">
<polygon fill="white" stroke="black" points="493,-157.1 493,-187.1 624,-187.1 624,-157.1 493,-157.1"/>
<text text-anchor="start" x="501" y="-175.1" font-family="Helvetica,sans-Serif" font-size="10.00">Adafruit_RGBLCDShield</text>
<text text-anchor="middle" x="558.5" y="-164.1" font-family="Helvetica,sans-Serif" font-size="10.00">::send</text>
</a>
</g>
</g>
<!-- Node3&#45;&gt;Node4 -->
<g id="edge3" class="edge">
<title>Node3&#45;&gt;Node4</title>
<path fill="none" stroke="midnightblue" d="M457.24,-169.06C465.67,-169.31 474.37,-169.58 482.95,-169.84"/>
<polygon fill="midnightblue" stroke="midnightblue" points="482.85,-173.34 492.95,-170.14 483.06,-166.34 482.85,-173.34"/>
</g>
<!-- Node5 -->
<g id="node5" class="node">
<title>Node5</title>
<g id="a_node5"><a xlink:href="classAdafruit__RGBLCDShield.html#aead28395830ccd7e74041736aba46e03" target="_top" xlink:title=" ">
<polygon fill="white" stroke="black" points="994,-190.1 994,-220.1 1125,-220.1 1125,-190.1 994,-190.1"/>
<text text-anchor="start" x="1002" y="-208.1" font-family="Helvetica,sans-Serif" font-size="10.00">Adafruit_RGBLCDShield</text>
<text text-anchor="middle" x="1059.5" y="-197.1" font-family="Helvetica,sans-Serif" font-size="10.00">::_digitalWrite</text>
</a>
</g>
</g>
<!-- Node4&#45;&gt;Node5 -->
<g id="edge4" class="edge">
<title>Node4&#45;&gt;Node5</title>
<path fill="none" stroke="midnightblue" d="M599.61,-157.01C673.38,-131.71 834.35,-88 958,-136.1 978.23,-143.96 976.4,-156.39 994,-169.1 1001.87,-174.78 1010.73,-180.25 1019.3,-185.14"/>
<polygon fill="midnightblue" stroke="midnightblue" points="1017.63,-188.21 1028.07,-190 1021.02,-182.09 1017.63,-188.21"/>
</g>
<!-- Node21 -->
<g id="node21" class="node">
<title>Node21</title>
<g id="a_node21"><a xlink:href="classAdafruit__RGBLCDShield.html#ad33f31183ab0e61e92a197d8742f07bc" target="_top" xlink:title=" ">
<polygon fill="white" stroke="black" points="660,-288.1 660,-318.1 791,-318.1 791,-288.1 660,-288.1"/>
<text text-anchor="start" x="668" y="-306.1" font-family="Helvetica,sans-Serif" font-size="10.00">Adafruit_RGBLCDShield</text>
<text text-anchor="middle" x="725.5" y="-295.1" font-family="Helvetica,sans-Serif" font-size="10.00">::write4bits</text>
</a>
</g>
</g>
<!-- Node4&#45;&gt;Node21 -->
<g id="edge21" class="edge">
<title>Node4&#45;&gt;Node21</title>
<path fill="none" stroke="midnightblue" d="M578.43,-187.12C607.69,-210.36 664.03,-255.09 697.54,-281.69"/>
<polygon fill="midnightblue" stroke="midnightblue" points="695.53,-284.57 705.54,-288.04 699.88,-279.08 695.53,-284.57"/>
</g>
<!-- Node28 -->
<g id="node28" class="node">
<title>Node28</title>
<g id="a_node28"><a xlink:href="classAdafruit__RGBLCDShield.html#a4a29b886b14aaab83e9c816d92403add" target="_top" xlink:title=" ">
<polygon fill="white" stroke="black" points="660,-179.1 660,-209.1 791,-209.1 791,-179.1 660,-179.1"/>
<text text-anchor="start" x="668" y="-197.1" font-family="Helvetica,sans-Serif" font-size="10.00">Adafruit_RGBLCDShield</text>
<text text-anchor="middle" x="725.5" y="-186.1" font-family="Helvetica,sans-Serif" font-size="10.00">::write8bits</text>
</a>
</g>
</g>
<!-- Node4&#45;&gt;Node28 -->
<g id="edge38" class="edge">
<title>Node4&#45;&gt;Node28</title>
<path fill="none" stroke="midnightblue" d="M624.24,-180.73C632.67,-181.85 641.37,-183.01 649.95,-184.16"/>
<polygon fill="midnightblue" stroke="midnightblue" points="649.57,-187.64 659.95,-185.49 650.5,-180.7 649.57,-187.64"/>
</g>
<!-- Node5&#45;&gt;Node6 -->
<g id="edge5" class="edge">
<title>Node5&#45;&gt;Node6</title>
<path fill="none" stroke="midnightblue" d="M1070.01,-220.14C1085.95,-244.14 1120.31,-291.01 1161,-317.1 1164.98,-319.65 1169.32,-321.9 1173.79,-323.87"/>
<polygon fill="midnightblue" stroke="midnightblue" points="1172.51,-327.13 1183.09,-327.54 1175.08,-320.61 1172.51,-327.13"/>
</g>
<!-- Node8 -->
<g id="node8" class="node">
<title>Node8</title>
<g id="a_node8"><a xlink:href="classAdafruit__MCP23017.html#a62c7101061540e9af47ea23d5b33fa81" target="_top" xlink:title=" ">
<polygon fill="white" stroke="black" points="1167,-190.1 1167,-220.1 1286,-220.1 1286,-190.1 1167,-190.1"/>
<text text-anchor="start" x="1175" y="-208.1" font-family="Helvetica,sans-Serif" font-size="10.00">Adafruit_MCP23017::</text>
<text text-anchor="middle" x="1226.5" y="-197.1" font-family="Helvetica,sans-Serif" font-size="10.00">digitalWrite</text>
</a>
</g>
</g>
<!-- Node5&#45;&gt;Node8 -->
<g id="edge7" class="edge">
<title>Node5&#45;&gt;Node8</title>
<path fill="none" stroke="midnightblue" d="M1125.24,-205.1C1135.53,-205.1 1146.21,-205.1 1156.59,-205.1"/>
<polygon fill="midnightblue" stroke="midnightblue" points="1156.86,-208.6 1166.86,-205.1 1156.86,-201.6 1156.86,-208.6"/>
</g>
<!-- Node5&#45;&gt;Node11 -->
<g id="edge10" class="edge">
<title>Node5&#45;&gt;Node11</title>
<path fill="none" stroke="midnightblue" d="M1115.9,-189.99C1138.91,-183.71 1165.09,-176.57 1186.08,-170.85"/>
<polygon fill="midnightblue" stroke="midnightblue" points="1187.21,-174.17 1195.94,-168.16 1185.37,-167.41 1187.21,-174.17"/>
</g>
<!-- Node5&#45;&gt;Node15 -->
<g id="edge15" class="edge">
<title>Node5&#45;&gt;Node15</title>
<path fill="none" stroke="midnightblue" d="M1073.11,-220.26C1086.67,-236.88 1108.5,-264.59 1125,-290.1 1143.15,-318.15 1137.21,-332.64 1161,-356.1 1166.27,-361.29 1172.49,-365.88 1178.96,-369.88"/>
<polygon fill="midnightblue" stroke="midnightblue" points="1177.45,-373.05 1187.87,-374.96 1180.92,-366.97 1177.45,-373.05"/>
</g>
<!-- Node7 -->
<g id="node7" class="node">
<title>Node7</title>
<g id="a_node7"><a xlink:href="classlogs_1_1Logger.html#afa535aaf4891e02c4ff7f84d372b5b1b" target="_top" xlink:title="Méthode générique de trace d&#39;un message.">
<polygon fill="white" stroke="black" points="1532,-221.6 1532,-240.6 1682,-240.6 1682,-221.6 1532,-221.6"/>
<text text-anchor="middle" x="1607" y="-228.6" font-family="Helvetica,sans-Serif" font-size="10.00">logs::Logger::writeMessage</text>
</a>
</g>
</g>
<!-- Node6&#45;&gt;Node7 -->
<g id="edge6" class="edge">
<title>Node6&#45;&gt;Node7</title>
<path fill="none" stroke="midnightblue" d="M1282.55,-328.12C1337.39,-318.46 1423.62,-301.29 1496,-278.1 1524.43,-268.99 1555.61,-255.29 1577.49,-245.03"/>
<polygon fill="midnightblue" stroke="midnightblue" points="1579.02,-248.18 1586.55,-240.73 1576.02,-241.86 1579.02,-248.18"/>
</g>
<!-- Node9 -->
<g id="node9" class="node">
<title>Node9</title>
<g id="a_node9"><a xlink:href="classAdafruit__MCP23017.html#a5935341a99356efaf41556b5ee78cd5a" target="_top" xlink:title=" ">
<polygon fill="white" stroke="black" points="1352.5,-239.1 1352.5,-269.1 1471.5,-269.1 1471.5,-239.1 1352.5,-239.1"/>
<text text-anchor="start" x="1360.5" y="-257.1" font-family="Helvetica,sans-Serif" font-size="10.00">Adafruit_MCP23017::</text>
<text text-anchor="middle" x="1412" y="-246.1" font-family="Helvetica,sans-Serif" font-size="10.00">read_i2c</text>
</a>
</g>
</g>
<!-- Node8&#45;&gt;Node9 -->
<g id="edge8" class="edge">
<title>Node8&#45;&gt;Node9</title>
<path fill="none" stroke="midnightblue" d="M1283.8,-220.13C1303.18,-225.3 1325.05,-231.14 1345.11,-236.5"/>
<polygon fill="midnightblue" stroke="midnightblue" points="1344.24,-239.89 1354.8,-239.09 1346.04,-233.13 1344.24,-239.89"/>
</g>
<!-- Node10 -->
<g id="node10" class="node">
<title>Node10</title>
<g id="a_node10"><a xlink:href="classAdafruit__MCP23017.html#a29e5ba320b6ce6812c42ab99f5f4c80d" target="_top" xlink:title=" ">
<polygon fill="white" stroke="black" points="1352.5,-190.1 1352.5,-220.1 1471.5,-220.1 1471.5,-190.1 1352.5,-190.1"/>
<text text-anchor="start" x="1360.5" y="-208.1" font-family="Helvetica,sans-Serif" font-size="10.00">Adafruit_MCP23017::</text>
<text text-anchor="middle" x="1412" y="-197.1" font-family="Helvetica,sans-Serif" font-size="10.00">write_i2c</text>
</a>
</g>
</g>
<!-- Node8&#45;&gt;Node10 -->
<g id="edge9" class="edge">
<title>Node8&#45;&gt;Node10</title>
<path fill="none" stroke="midnightblue" d="M1286.07,-205.1C1303.94,-205.1 1323.76,-205.1 1342.25,-205.1"/>
<polygon fill="midnightblue" stroke="midnightblue" points="1342.36,-208.6 1352.36,-205.1 1342.36,-201.6 1342.36,-208.6"/>
</g>
<!-- Node12 -->
<g id="node12" class="node">
<title>Node12</title>
<g id="a_node12"><a xlink:href="classlogs_1_1Logger_1_1LoggerBuffer.html#a0e4fd77693fd899ec1b0670354f93a02" target="_top" xlink:title="Cette méthode valide le message en cours de construction et le transmet au Logger de référence.">
<polygon fill="white" stroke="black" points="1328,-148.6 1328,-167.6 1496,-167.6 1496,-148.6 1328,-148.6"/>
<text text-anchor="middle" x="1412" y="-155.6" font-family="Helvetica,sans-Serif" font-size="10.00">logs::Logger::LoggerBuffer::end</text>
</a>
</g>
</g>
<!-- Node11&#45;&gt;Node12 -->
<g id="edge11" class="edge">
<title>Node11&#45;&gt;Node12</title>
<path fill="none" stroke="midnightblue" d="M1257.39,-159.77C1274.04,-159.59 1295.76,-159.35 1317.62,-159.11"/>
<polygon fill="midnightblue" stroke="midnightblue" points="1317.69,-162.61 1327.65,-159 1317.61,-155.61 1317.69,-162.61"/>
</g>
<!-- Node12&#45;&gt;Node7 -->
<g id="edge14" class="edge">
<title>Node12&#45;&gt;Node7</title>
<path fill="none" stroke="midnightblue" d="M1454.81,-167.66C1468.13,-171.11 1482.82,-175.34 1496,-180.1 1524.97,-190.56 1556.77,-205.73 1578.69,-216.8"/>
<polygon fill="midnightblue" stroke="midnightblue" points="1577.23,-219.99 1587.73,-221.42 1580.42,-213.75 1577.23,-219.99"/>
</g>
<!-- Node12&#45;&gt;Node13 -->
<g id="edge12" class="edge">
<title>Node12&#45;&gt;Node13</title>
<path fill="none" stroke="midnightblue" d="M1457.76,-148.59C1485.55,-142.68 1521.47,-135.05 1550.99,-128.78"/>
<polygon fill="midnightblue" stroke="midnightblue" points="1552.09,-132.13 1561.15,-126.62 1550.64,-125.28 1552.09,-132.13"/>
</g>
<!-- Node12&#45;&gt;Node14 -->
<g id="edge13" class="edge">
<title>Node12&#45;&gt;Node14</title>
<path fill="none" stroke="midnightblue" d="M1428.79,-148.52C1462.45,-128.12 1541.45,-80.23 1581.62,-55.88"/>
<polygon fill="midnightblue" stroke="midnightblue" points="1583.52,-58.82 1590.26,-50.64 1579.89,-52.83 1583.52,-58.82"/>
</g>
<!-- Node15&#45;&gt;Node16 -->
<g id="edge16" class="edge">
<title>Node15&#45;&gt;Node16</title>
<path fill="none" stroke="midnightblue" d="M1255.37,-405.28C1287.21,-422.64 1339.44,-451.1 1374.51,-470.21"/>
<polygon fill="midnightblue" stroke="midnightblue" points="1373.01,-473.38 1383.47,-475.09 1376.36,-467.23 1373.01,-473.38"/>
</g>
<!-- Node17 -->
<g id="node17" class="node">
<title>Node17</title>
<g id="a_node17"><a xlink:href="classlogs_1_1LoggerFactory.html#a82585b5de73e471e06cafdccc3b3721e" target="_top" xlink:title="Cette méthode statique retourne un Logger en fonction de son nom.">
<polygon fill="white" stroke="black" points="1356.5,-375.1 1356.5,-405.1 1467.5,-405.1 1467.5,-375.1 1356.5,-375.1"/>
<text text-anchor="start" x="1364.5" y="-393.1" font-family="Helvetica,sans-Serif" font-size="10.00">logs::LoggerFactory</text>
<text text-anchor="middle" x="1412" y="-382.1" font-family="Helvetica,sans-Serif" font-size="10.00">::logger</text>
</a>
</g>
</g>
<!-- Node15&#45;&gt;Node17 -->
<g id="edge17" class="edge">
<title>Node15&#45;&gt;Node17</title>
<path fill="none" stroke="midnightblue" d="M1292.2,-390.1C1309.71,-390.1 1328.66,-390.1 1346.18,-390.1"/>
<polygon fill="midnightblue" stroke="midnightblue" points="1346.3,-393.6 1356.3,-390.1 1346.3,-386.6 1346.3,-393.6"/>
</g>
<!-- Node18 -->
<g id="node18" class="node">
<title>Node18</title>
<g id="a_node18"><a xlink:href="classlogs_1_1LoggerFactory.html#ac89f19c0ffd71aa8cdc1c2d44c03809e" target="_top" xlink:title="Cette méthode ajoute un appender au système.">
<polygon fill="white" stroke="black" points="1540,-424.6 1540,-443.6 1674,-443.6 1674,-424.6 1540,-424.6"/>
<text text-anchor="middle" x="1607" y="-431.6" font-family="Helvetica,sans-Serif" font-size="10.00">logs::LoggerFactory::add</text>
</a>
</g>
</g>
<!-- Node17&#45;&gt;Node18 -->
<g id="edge18" class="edge">
<title>Node17&#45;&gt;Node18</title>
<path fill="none" stroke="midnightblue" d="M1467.53,-402.53C1494.71,-408.73 1527.41,-416.18 1554.21,-422.29"/>
<polygon fill="midnightblue" stroke="midnightblue" points="1553.64,-425.75 1564.16,-424.56 1555.19,-418.92 1553.64,-425.75"/>
</g>
<!-- Node19 -->
<g id="node19" class="node">
<title>Node19</title>
<g id="a_node19"><a xlink:href="classlogs_1_1LoggerFactory.html#a90478b91d7af2ef8841ded21e3521f69" target="_top" xlink:title="Cette méthode statique retourne l&#39;instance unique de la classe LoggerFactory.">
<polygon fill="white" stroke="black" points="1551.5,-375.1 1551.5,-405.1 1662.5,-405.1 1662.5,-375.1 1551.5,-375.1"/>
<text text-anchor="start" x="1559.5" y="-393.1" font-family="Helvetica,sans-Serif" font-size="10.00">logs::LoggerFactory</text>
<text text-anchor="middle" x="1607" y="-382.1" font-family="Helvetica,sans-Serif" font-size="10.00">::instance</text>
</a>
</g>
</g>
<!-- Node17&#45;&gt;Node19 -->
<g id="edge19" class="edge">
<title>Node17&#45;&gt;Node19</title>
<path fill="none" stroke="midnightblue" d="M1467.53,-390.1C1490.45,-390.1 1517.3,-390.1 1541.22,-390.1"/>
<polygon fill="midnightblue" stroke="midnightblue" points="1541.27,-393.6 1551.27,-390.1 1541.27,-386.6 1541.27,-393.6"/>
</g>
<!-- Node20 -->
<g id="node20" class="node">
<title>Node20</title>
<g id="a_node20"><a xlink:href="classlogs_1_1LoggerFactory.html#a212aa623f4b6bee12cb39e8017dde670" target="_top" xlink:title="Cette méthode retourne le Logger principal qui définit le niveau de trace par défaut.">
<polygon fill="white" stroke="black" points="1551.5,-326.1 1551.5,-356.1 1662.5,-356.1 1662.5,-326.1 1551.5,-326.1"/>
<text text-anchor="start" x="1559.5" y="-344.1" font-family="Helvetica,sans-Serif" font-size="10.00">logs::LoggerFactory</text>
<text text-anchor="middle" x="1607" y="-333.1" font-family="Helvetica,sans-Serif" font-size="10.00">::rootLogger</text>
</a>
</g>
</g>
<!-- Node17&#45;&gt;Node20 -->
<g id="edge20" class="edge">
<title>Node17&#45;&gt;Node20</title>
<path fill="none" stroke="midnightblue" d="M1467.53,-376.25C1490.56,-370.41 1517.54,-363.56 1541.54,-357.46"/>
<polygon fill="midnightblue" stroke="midnightblue" points="1542.44,-360.85 1551.27,-354.99 1540.71,-354.06 1542.44,-360.85"/>
</g>
<!-- Node21&#45;&gt;Node5 -->
<g id="edge22" class="edge">
<title>Node21&#45;&gt;Node5</title>
<path fill="none" stroke="midnightblue" d="M777.65,-288C836.95,-270.49 934.62,-241.66 997.74,-223.03"/>
<polygon fill="midnightblue" stroke="midnightblue" points="998.97,-226.32 1007.57,-220.13 996.99,-219.61 998.97,-226.32"/>
</g>
<!-- Node22 -->
<g id="node22" class="node">
<title>Node22</title>
<g id="a_node22"><a xlink:href="classAdafruit__RGBLCDShield.html#a1668a3877e0d9960df698b68195b3d27" target="_top" xlink:title=" ">
<polygon fill="white" stroke="black" points="994,-300.1 994,-330.1 1125,-330.1 1125,-300.1 994,-300.1"/>
<text text-anchor="start" x="1002" y="-318.1" font-family="Helvetica,sans-Serif" font-size="10.00">Adafruit_RGBLCDShield</text>
<text text-anchor="middle" x="1059.5" y="-307.1" font-family="Helvetica,sans-Serif" font-size="10.00">::_pinMode</text>
</a>
</g>
</g>
<!-- Node21&#45;&gt;Node22 -->
<g id="edge23" class="edge">
<title>Node21&#45;&gt;Node22</title>
<path fill="none" stroke="midnightblue" d="M751.47,-318.2C771.18,-329.2 799.81,-343.17 827,-349.1 883.89,-361.5 900.55,-358.55 958,-349.1 976.69,-346.02 996.58,-339.93 1013.69,-333.74"/>
<polygon fill="midnightblue" stroke="midnightblue" points="1015.27,-336.89 1023.41,-330.11 1012.82,-330.33 1015.27,-336.89"/>
</g>
<!-- Node24 -->
<g id="node24" class="node">
<title>Node24</title>
<g id="a_node24"><a xlink:href="classAdafruit__RGBLCDShield.html#a59fb0fd79b214abe02fee3459ef69f96" target="_top" xlink:title=" ">
<polygon fill="white" stroke="black" points="827,-146.1 827,-176.1 958,-176.1 958,-146.1 827,-146.1"/>
<text text-anchor="start" x="835" y="-164.1" font-family="Helvetica,sans-Serif" font-size="10.00">Adafruit_RGBLCDShield</text>
<text text-anchor="middle" x="892.5" y="-153.1" font-family="Helvetica,sans-Serif" font-size="10.00">::pulseEnable</text>
</a>
</g>
</g>
<!-- Node21&#45;&gt;Node24 -->
<g id="edge30" class="edge">
<title>Node21&#45;&gt;Node24</title>
<path fill="none" stroke="midnightblue" d="M744.16,-287.9C773.56,-262.6 832.64,-211.75 866.37,-182.72"/>
<polygon fill="midnightblue" stroke="midnightblue" points="868.67,-185.36 873.97,-176.18 864.11,-180.05 868.67,-185.36"/>
</g>
<!-- Node25 -->
<g id="node25" class="node">
<title>Node25</title>
<g id="a_node25"><a xlink:href="classAdafruit__MCP23017.html#a07d894fe9d749fd7d3d098c99ce1fa64" target="_top" xlink:title=" ">
<polygon fill="white" stroke="black" points="833,-310.1 833,-340.1 952,-340.1 952,-310.1 833,-310.1"/>
<text text-anchor="start" x="841" y="-328.1" font-family="Helvetica,sans-Serif" font-size="10.00">Adafruit_MCP23017::</text>
<text text-anchor="middle" x="892.5" y="-317.1" font-family="Helvetica,sans-Serif" font-size="10.00">readGPIOAB</text>
</a>
</g>
</g>
<!-- Node21&#45;&gt;Node25 -->
<g id="edge34" class="edge">
<title>Node21&#45;&gt;Node25</title>
<path fill="none" stroke="midnightblue" d="M791.24,-311.73C801.64,-313.11 812.43,-314.55 822.92,-315.95"/>
<polygon fill="midnightblue" stroke="midnightblue" points="822.48,-319.42 832.86,-317.28 823.41,-312.49 822.48,-319.42"/>
</g>
<!-- Node26 -->
<g id="node26" class="node">
<title>Node26</title>
<g id="a_node26"><a xlink:href="classAdafruit__MCP23017.html#a4b4845ea14d7207f22b0163ae5c622f2" target="_top" xlink:title=" ">
<polygon fill="white" stroke="black" points="833,-398.1 833,-428.1 952,-428.1 952,-398.1 833,-398.1"/>
<text text-anchor="start" x="841" y="-416.1" font-family="Helvetica,sans-Serif" font-size="10.00">Adafruit_MCP23017::</text>
<text text-anchor="middle" x="892.5" y="-405.1" font-family="Helvetica,sans-Serif" font-size="10.00">writeGPIOAB</text>
</a>
</g>
</g>
<!-- Node21&#45;&gt;Node26 -->
<g id="edge36" class="edge">
<title>Node21&#45;&gt;Node26</title>
<path fill="none" stroke="midnightblue" d="M743.01,-318.28C762.21,-335.43 795.32,-363.51 827,-383.1 832.93,-386.76 839.38,-390.27 845.83,-393.51"/>
<polygon fill="midnightblue" stroke="midnightblue" points="844.7,-396.85 855.22,-398.06 847.75,-390.55 844.7,-396.85"/>
</g>
<!-- Node22&#45;&gt;Node6 -->
<g id="edge24" class="edge">
<title>Node22&#45;&gt;Node6</title>
<path fill="none" stroke="midnightblue" d="M1125.24,-323.73C1136.76,-325.26 1148.77,-326.87 1160.3,-328.4"/>
<polygon fill="midnightblue" stroke="midnightblue" points="1159.92,-331.88 1170.29,-329.74 1160.84,-324.94 1159.92,-331.88"/>
</g>
<!-- Node22&#45;&gt;Node11 -->
<g id="edge25" class="edge">
<title>Node22&#45;&gt;Node11</title>
<path fill="none" stroke="midnightblue" d="M1071.96,-299.91C1084.9,-282.75 1106.53,-253.97 1125,-229.1 1141.11,-207.4 1138.99,-195.77 1161,-180.1 1168.42,-174.81 1177.29,-170.89 1186.03,-167.99"/>
<polygon fill="midnightblue" stroke="midnightblue" points="1187.16,-171.31 1195.77,-165.14 1185.19,-164.59 1187.16,-171.31"/>
</g>
<!-- Node22&#45;&gt;Node15 -->
<g id="edge26" class="edge">
<title>Node22&#45;&gt;Node15</title>
<path fill="none" stroke="midnightblue" d="M1093.89,-330.27C1119.58,-341.95 1155.26,-358.17 1182.99,-370.78"/>
<polygon fill="midnightblue" stroke="midnightblue" points="1181.89,-374.12 1192.44,-375.07 1184.79,-367.75 1181.89,-374.12"/>
</g>
<!-- Node23 -->
<g id="node23" class="node">
<title>Node23</title>
<g id="a_node23"><a xlink:href="classAdafruit__MCP23017.html#a6f2aea0d187cb281a4ed216fd31a6981" target="_top" xlink:title=" ">
<polygon fill="white" stroke="black" points="1167,-278.1 1167,-308.1 1286,-308.1 1286,-278.1 1167,-278.1"/>
<text text-anchor="start" x="1175" y="-296.1" font-family="Helvetica,sans-Serif" font-size="10.00">Adafruit_MCP23017::</text>
<text text-anchor="middle" x="1226.5" y="-285.1" font-family="Helvetica,sans-Serif" font-size="10.00">pinMode</text>
</a>
</g>
</g>
<!-- Node22&#45;&gt;Node23 -->
<g id="edge27" class="edge">
<title>Node22&#45;&gt;Node23</title>
<path fill="none" stroke="midnightblue" d="M1125.24,-306.46C1135.64,-305.08 1146.43,-303.64 1156.92,-302.24"/>
<polygon fill="midnightblue" stroke="midnightblue" points="1157.41,-305.71 1166.86,-300.92 1156.48,-298.77 1157.41,-305.71"/>
</g>
<!-- Node23&#45;&gt;Node9 -->
<g id="edge28" class="edge">
<title>Node23&#45;&gt;Node9</title>
<path fill="none" stroke="midnightblue" d="M1286.07,-280.65C1304.02,-276.83 1323.94,-272.6 1342.51,-268.65"/>
<polygon fill="midnightblue" stroke="midnightblue" points="1343.31,-272.06 1352.36,-266.56 1341.85,-265.21 1343.31,-272.06"/>
</g>
<!-- Node23&#45;&gt;Node10 -->
<g id="edge29" class="edge">
<title>Node23&#45;&gt;Node10</title>
<path fill="none" stroke="midnightblue" d="M1247.31,-278.06C1266.91,-263.78 1298.21,-242.55 1328,-229.1 1332.66,-226.99 1337.56,-225.02 1342.54,-223.18"/>
<polygon fill="midnightblue" stroke="midnightblue" points="1343.9,-226.42 1352.19,-219.82 1341.6,-219.8 1343.9,-226.42"/>
</g>
<!-- Node24&#45;&gt;Node5 -->
<g id="edge31" class="edge">
<title>Node24&#45;&gt;Node5</title>
<path fill="none" stroke="midnightblue" d="M949.82,-176.12C963.42,-179.74 978.08,-183.65 992.09,-187.39"/>
<polygon fill="midnightblue" stroke="midnightblue" points="991.59,-190.88 1002.15,-190.07 993.39,-184.11 991.59,-190.88"/>
</g>
<!-- Node24&#45;&gt;Node13 -->
<g id="edge32" class="edge">
<title>Node24&#45;&gt;Node13</title>
<path fill="none" stroke="midnightblue" d="M958.07,-155.89C1012.23,-151.62 1091.64,-145.56 1161,-141.1 1298.81,-132.23 1460.78,-124.06 1546.23,-119.93"/>
<polygon fill="midnightblue" stroke="midnightblue" points="1546.44,-123.42 1556.26,-119.44 1546.1,-116.43 1546.44,-123.42"/>
</g>
<!-- Node24&#45;&gt;Node14 -->
<g id="edge33" class="edge">
<title>Node24&#45;&gt;Node14</title>
<path fill="none" stroke="midnightblue" d="M958.02,-147.16C969.96,-144.71 982.34,-142.26 994,-140.1 1192.07,-103.4 1427.63,-67.45 1540,-50.76"/>
<polygon fill="midnightblue" stroke="midnightblue" points="1540.78,-54.19 1550.16,-49.26 1539.76,-47.26 1540.78,-54.19"/>
</g>
<!-- Node25&#45;&gt;Node9 -->
<g id="edge35" class="edge">
<title>Node25&#45;&gt;Node9</title>
<path fill="none" stroke="midnightblue" d="M931.13,-309.94C949.78,-302.96 972.79,-295.13 994,-290.1 1114.3,-261.54 1258.9,-255.04 1342.36,-253.89"/>
<polygon fill="midnightblue" stroke="midnightblue" points="1342.51,-257.39 1352.47,-253.78 1342.43,-250.39 1342.51,-257.39"/>
</g>
<!-- Node27 -->
<g id="node27" class="node">
<title>Node27</title>
<g id="a_node27"><a xlink:href="classAdafruit__MCP23017.html#a20fd3536424d0c91dba741894a010fd7" target="_top" xlink:title=" ">
<polygon fill="white" stroke="black" points="1000,-398.1 1000,-428.1 1119,-428.1 1119,-398.1 1000,-398.1"/>
<text text-anchor="start" x="1008" y="-416.1" font-family="Helvetica,sans-Serif" font-size="10.00">Adafruit_MCP23017::</text>
<text text-anchor="middle" x="1059.5" y="-405.1" font-family="Helvetica,sans-Serif" font-size="10.00">writeI2c_3Bytes</text>
</a>
</g>
</g>
<!-- Node26&#45;&gt;Node27 -->
<g id="edge37" class="edge">
<title>Node26&#45;&gt;Node27</title>
<path fill="none" stroke="midnightblue" d="M952.14,-413.1C964.22,-413.1 977.06,-413.1 989.47,-413.1"/>
<polygon fill="midnightblue" stroke="midnightblue" points="989.77,-416.6 999.77,-413.1 989.77,-409.6 989.77,-416.6"/>
</g>
<!-- Node28&#45;&gt;Node5 -->
<g id="edge39" class="edge">
<title>Node28&#45;&gt;Node5</title>
<path fill="none" stroke="midnightblue" d="M791.3,-196.24C846.49,-198.07 925.8,-200.7 983.68,-202.62"/>
<polygon fill="midnightblue" stroke="midnightblue" points="983.75,-206.12 993.86,-202.95 983.98,-199.13 983.75,-206.12"/>
</g>
<!-- Node28&#45;&gt;Node22 -->
<g id="edge40" class="edge">
<title>Node28&#45;&gt;Node22</title>
<path fill="none" stroke="midnightblue" d="M767.88,-209.18C828.56,-231.29 941.59,-272.49 1007.38,-296.47"/>
<polygon fill="midnightblue" stroke="midnightblue" points="1006.53,-299.88 1017.12,-300.02 1008.93,-293.3 1006.53,-299.88"/>
</g>
<!-- Node28&#45;&gt;Node24 -->
<g id="edge41" class="edge">
<title>Node28&#45;&gt;Node24</title>
<path fill="none" stroke="midnightblue" d="M791.24,-181.15C799.67,-179.46 808.37,-177.72 816.95,-176.01"/>
<polygon fill="midnightblue" stroke="midnightblue" points="817.83,-179.4 826.95,-174.01 816.46,-172.54 817.83,-179.4"/>
</g>
</g>
</svg>
        <g id="navigator" transform="translate(0 0)" fill="#404254">
                <rect fill="#f2f5e9" fill-opacity="0.5" stroke="#606060" stroke-width=".5" x="0" y="0" width="60" height="60"/>
                <use id="zoomplus" xlink:href="#zoomPlus" x="17" y="9" onmousedown="handleZoom(evt,'in')"/>
                <use id="zoomminus" xlink:href="#zoomMin" x="42" y="9" onmousedown="handleZoom(evt,'out')"/>
                <use id="reset" xlink:href="#resetDef" x="30" y="36" onmousedown="handleReset()"/>
                <g id="arrowUp" xlink:href="#dirArrow" transform="translate(30 24)" onmousedown="handlePan(0,-1)">
                  <use xlink:href="#rim" fill="#404040">
                        <set attributeName="fill" to="#808080" begin="arrowUp.mouseover" end="arrowUp.mouseout"/>
                  </use>
                  <path fill="none" stroke="white" stroke-width="1.5" d="M0,-3.0v7 M-2.5,-0.5L0,-3.0L2.5,-0.5"/>
                </g>
                <g id="arrowRight" xlink:href="#dirArrow" transform="rotate(90) translate(36 -43)" onmousedown="handlePan(1,0)">
                  <use xlink:href="#rim" fill="#404040">
                        <set attributeName="fill" to="#808080" begin="arrowRight.mouseover" end="arrowRight.mouseout"/>
                  </use>
                  <path fill="none" stroke="white" stroke-width="1.5" d="M0,-3.0v7 M-2.5,-0.5L0,-3.0L2.5,-0.5"/>
                </g>
                <g id="arrowDown" xlink:href="#dirArrow" transform="rotate(180) translate(-30 -48)" onmousedown="handlePan(0,1)">
                  <use xlink:href="#rim" fill="#404040">
                        <set attributeName="fill" to="#808080" begin="arrowDown.mouseover" end="arrowDown.mouseout"/>
                  </use>
                  <path fill="none" stroke="white" stroke-width="1.5" d="M0,-3.0v7 M-2.5,-0.5L0,-3.0L2.5,-0.5"/>
                </g>
                <g id="arrowLeft" xlink:href="#dirArrow" transform="rotate(270) translate(-36 17)" onmousedown="handlePan(-1,0)">
                  <use xlink:href="#rim" fill="#404040">
                        <set attributeName="fill" to="#808080" begin="arrowLeft.mouseover" end="arrowLeft.mouseout"/>
                  </use>
                  <path fill="none" stroke="white" stroke-width="1.5" d="M0,-3.0v7 M-2.5,-0.5L0,-3.0L2.5,-0.5"/>
                </g>
        </g>
        <svg viewBox="0 0 15 15" width="100%" height="30px" preserveAspectRatio="xMaxYMin meet">
         <g id="arrow_out" transform="scale(0.3 0.3)">
          <a xlink:href="classLcdShieldDriver_a80962c9c080e1893adb005db6c86bd42_cgraph_org.svg" target="_base">
           <rect id="button" ry="5" rx="5" y="6" x="6" height="38" width="38"
                fill="#f2f5e9" fill-opacity="0.5" stroke="#606060" stroke-width="1.0"/>
           <path id="arrow"
             d="M 11.500037,31.436501 C 11.940474,20.09759 22.043105,11.32322 32.158766,21.979434 L 37.068811,17.246167 C 37.068811,17.246167 37.088388,32 37.088388,32 L 22.160133,31.978069 C 22.160133,31.978069 26.997745,27.140456 26.997745,27.140456 C 18.528582,18.264221 13.291696,25.230495 11.500037,31.436501 z"
             style="fill:#404040;"/>
          </a>
         </g>
        </svg>
</svg>
