<?xml version="1.0" encoding="UTF-8" standalone="no"?>
<!DOCTYPE svg PUBLIC "-//W3C//DTD SVG 1.1//EN"
 "http://www.w3.org/Graphics/SVG/1.1/DTD/svg11.dtd">
<!-- Generated by graphviz version 2.43.0 (0)
 -->
<!-- Title: test::LcdShieldDriverManualTest Pages: 1 -->
<svg width="197pt" height="95pt"
 viewBox="0.00 0.00 196.50 95.00" xmlns="http://www.w3.org/2000/svg" xmlns:xlink="http://www.w3.org/1999/xlink">
<g id="graph0" class="graph" transform="scale(1 1) rotate(0) translate(4 91)">
<title>test::LcdShieldDriverManualTest</title>
<polygon fill="white" stroke="transparent" points="-4,4 -4,-91 192.5,-91 192.5,4 -4,4"/>
<!-- Node1 -->
<g id="node1" class="node">
<title>Node1</title>
<g id="a_node1"><a xlink:title="Teste la classe LcdShieldDriver.">
<polygon fill="#bfbfbf" stroke="black" points="0,-0.5 0,-19.5 173,-19.5 173,-0.5 0,-0.5"/>
<text text-anchor="middle" x="86.5" y="-7.5" font-family="Helvetica,sans-Serif" font-size="10.00">test::LcdShieldDriverManualTest</text>
</a>
</g>
</g>
<!-- Node2 -->
<g id="node2" class="node">
<title>Node2</title>
<g id="a_node2"><a xlink:href="classUnitTest.html" target="_top" xlink:title="Cette classe permet de créer des tests unitaires.">
<polygon fill="white" stroke="black" points="10.5,-67.5 10.5,-86.5 66.5,-86.5 66.5,-67.5 10.5,-67.5"/>
<text text-anchor="middle" x="38.5" y="-74.5" font-family="Helvetica,sans-Serif" font-size="10.00">UnitTest</text>
</a>
</g>
</g>
<!-- Node2&#45;&gt;Node1 -->
<g id="edge1" class="edge">
<title>Node2&#45;&gt;Node1</title>
<path fill="none" stroke="midnightblue" d="M51.12,-58.9C60.45,-46.27 72.76,-29.6 80.13,-19.63"/>
<polygon fill="midnightblue" stroke="midnightblue" points="48.1,-57.11 44.97,-67.23 53.73,-61.27 48.1,-57.11"/>
</g>
<!-- Node3 -->
<g id="node3" class="node">
<title>Node3</title>
<g id="a_node3"><a xlink:href="classALcdShieldDriver.html" target="_top" xlink:title="Interface abstraite du driver d&#39;ecran LCD.">
<polygon fill="white" stroke="black" points="84.5,-67.5 84.5,-86.5 184.5,-86.5 184.5,-67.5 84.5,-67.5"/>
<text text-anchor="middle" x="134.5" y="-74.5" font-family="Helvetica,sans-Serif" font-size="10.00">ALcdShieldDriver</text>
</a>
</g>
</g>
<!-- Node3&#45;&gt;Node1 -->
<g id="edge2" class="edge">
<title>Node3&#45;&gt;Node1</title>
<path fill="none" stroke="#9a32cd" stroke-dasharray="5,2" d="M121.88,-58.9C112.55,-46.27 100.24,-29.6 92.87,-19.63"/>
<polygon fill="#9a32cd" stroke="#9a32cd" points="119.27,-61.27 128.03,-67.23 124.9,-57.11 119.27,-61.27"/>
<text text-anchor="middle" x="150.5" y="-41" font-family="Helvetica,sans-Serif" font-size="10.00"> lcdshielddriver</text>
</g>
</g>
</svg>
