<?xml version="1.0" encoding="UTF-8" standalone="no"?>
<!DOCTYPE svg PUBLIC "-//W3C//DTD SVG 1.1//EN"
 "http://www.w3.org/Graphics/SVG/1.1/DTD/svg11.dtd">
<!-- Generated by graphviz version 2.43.0 (0)
 -->
<!-- Title: DynamixelDriver::setRate Pages: 1 -->
<!--zoomable 447 -->
<svg id="main" version="1.1" xmlns="http://www.w3.org/2000/svg" xmlns:xlink="http://www.w3.org/1999/xlink" xml:space="preserve" onload="init(evt)">
<style type="text/css"><![CDATA[
.edge:hover path { stroke: red; }
.edge:hover polygon { stroke: red; fill: red; }
]]></style>
<script type="text/javascript"><![CDATA[
var edges = document.getElementsByTagName('g');
if (edges && edges.length) {
  for (var i=0;i<edges.length;i++) {
    if (edges[i].id.substr(0,4)=='edge') {
      edges[i].setAttribute('class','edge');
    }
  }
}
]]></script>
        <defs>
                <circle id="rim" cx="0" cy="0" r="7"/>
                <circle id="rim2" cx="0" cy="0" r="3.5"/>
                <g id="zoomPlus">
                        <use xlink:href="#rim" fill="#404040">
                                <set attributeName="fill" to="#808080" begin="zoomplus.mouseover" end="zoomplus.mouseout"/>
                        </use>
                        <path d="M-4,0h8M0,-4v8" fill="none" stroke="white" stroke-width="1.5" pointer-events="none"/>
                </g>
                <g id="zoomMin">
                        <use xlink:href="#rim" fill="#404040">
                                <set attributeName="fill" to="#808080" begin="zoomminus.mouseover" end="zoomminus.mouseout"/>
                        </use>
                        <path d="M-4,0h8" fill="none" stroke="white" stroke-width="1.5" pointer-events="none"/>
                </g>
                <g id="dirArrow">
                        <path fill="none" stroke="white" stroke-width="1.5" d="M0,-3.0v7 M-2.5,-0.5L0,-3.0L2.5,-0.5"/>
                </g>
               <g id="resetDef">
                       <use xlink:href="#rim2" fill="#404040">
                               <set attributeName="fill" to="#808080" begin="reset.mouseover" end="reset.mouseout"/>
                       </use>
               </g>
        </defs>

<script type="text/javascript">
var viewWidth = 907;
var viewHeight = 447;
var sectionId = 'dynsection-16';
</script>
<script xlink:href="svgpan.js"/>
<svg id="graph" class="graph">
<g id="viewport">
<title>DynamixelDriver::setRate</title>
<polygon fill="white" stroke="transparent" points="-4,4 -4,-442.5 903,-442.5 903,4 -4,4"/>
<!-- Node1 -->
<g id="node1" class="node">
<title>Node1</title>
<g id="a_node1"><a xlink:title=" ">
<polygon fill="#bfbfbf" stroke="black" points="0,-286 0,-305 143,-305 143,-286 0,-286"/>
<text text-anchor="middle" x="71.5" y="-293" font-family="Helvetica,sans-Serif" font-size="10.00">DynamixelDriver::setRate</text>
</a>
</g>
</g>
<!-- Node2 -->
<g id="node2" class="node">
<title>Node2</title>
<g id="a_node2"><a xlink:href="classAServoDriver.html#ad21637417b10b9f06418e070428a8b8d" target="_top" xlink:title="Limite une valeur a un intervalle [min, max].">
<polygon fill="white" stroke="black" points="183,-419 183,-438 315,-438 315,-419 183,-419"/>
<text text-anchor="middle" x="249" y="-426" font-family="Helvetica,sans-Serif" font-size="10.00">AServoDriver::constrain</text>
</a>
</g>
</g>
<!-- Node1&#45;&gt;Node2 -->
<g id="edge1" class="edge">
<title>Node1&#45;&gt;Node2</title>
<path fill="none" stroke="midnightblue" d="M79.38,-305.11C94.86,-326.07 134.56,-376.27 179,-404.5 185.7,-408.76 193.25,-412.36 200.83,-415.39"/>
<polygon fill="midnightblue" stroke="midnightblue" points="199.79,-418.74 210.38,-418.91 202.21,-412.17 199.79,-418.74"/>
</g>
<!-- Node3 -->
<g id="node3" class="node">
<title>Node3</title>
<g id="a_node3"><a xlink:href="classlogs_1_1Logger.html#a7dffc8f610014ec59b63392da16140e4" target="_top" xlink:title="Trace un message de niveau DEBUG.">
<polygon fill="white" stroke="black" points="573,-381 573,-400 685,-400 685,-381 573,-381"/>
<text text-anchor="middle" x="629" y="-388" font-family="Helvetica,sans-Serif" font-size="10.00">logs::Logger::debug</text>
</a>
</g>
</g>
<!-- Node1&#45;&gt;Node3 -->
<g id="edge2" class="edge">
<title>Node1&#45;&gt;Node3</title>
<path fill="none" stroke="midnightblue" d="M93.32,-305.04C114.5,-314.43 148.47,-328.61 179,-337.5 311.67,-376.11 474.18,-386.68 562.77,-389.52"/>
<polygon fill="midnightblue" stroke="midnightblue" points="562.84,-393.02 572.94,-389.82 563.04,-386.03 562.84,-393.02"/>
</g>
<!-- Node5 -->
<g id="node5" class="node">
<title>Node5</title>
<g id="a_node5"><a xlink:href="namespacelogs.html#ac6f325c6cfe6189bc8e243daa184453b" target="_top" xlink:title="Cette méthode permet de finir les flux de construction par la notation.">
<polygon fill="white" stroke="black" points="401.5,-343 401.5,-362 462.5,-362 462.5,-343 401.5,-343"/>
<text text-anchor="middle" x="432" y="-350" font-family="Helvetica,sans-Serif" font-size="10.00">logs::end</text>
</a>
</g>
</g>
<!-- Node1&#45;&gt;Node5 -->
<g id="edge4" class="edge">
<title>Node1&#45;&gt;Node5</title>
<path fill="none" stroke="midnightblue" d="M132.5,-305.04C206.14,-316.75 328.92,-336.27 391.59,-346.23"/>
<polygon fill="midnightblue" stroke="midnightblue" points="391.05,-349.69 401.47,-347.81 392.15,-342.78 391.05,-349.69"/>
</g>
<!-- Node9 -->
<g id="node9" class="node">
<title>Node9</title>
<g id="a_node9"><a xlink:href="classCCAx12Adc.html#a37d9e4779ae37994fec1f41d55cea0e8" target="_top" xlink:title=" ">
<polygon fill="white" stroke="black" points="569,-134 569,-153 689,-153 689,-134 569,-134"/>
<text text-anchor="middle" x="629" y="-141" font-family="Helvetica,sans-Serif" font-size="10.00">CCAx12Adc::instance</text>
</a>
</g>
</g>
<!-- Node1&#45;&gt;Node9 -->
<g id="edge9" class="edge">
<title>Node1&#45;&gt;Node9</title>
<path fill="none" stroke="midnightblue" d="M82.78,-285.92C100.81,-269.66 139.94,-236.77 179,-219.5 305.02,-163.79 467.56,-148.71 558.48,-144.76"/>
<polygon fill="midnightblue" stroke="midnightblue" points="558.82,-148.25 568.67,-144.35 558.54,-141.25 558.82,-148.25"/>
</g>
<!-- Node10 -->
<g id="node10" class="node">
<title>Node10</title>
<g id="a_node10"><a xlink:href="classDynamixelDriver.html#ae68af606a63d02ee0e7d1eba78efa79f" target="_top" xlink:title="Retourne le Logger associé à la classe DynamixelDriver(OPOS6UL).">
<polygon fill="white" stroke="black" points="181,-58 181,-77 317,-77 317,-58 181,-58"/>
<text text-anchor="middle" x="249" y="-65" font-family="Helvetica,sans-Serif" font-size="10.00">DynamixelDriver::logger</text>
</a>
</g>
</g>
<!-- Node1&#45;&gt;Node10 -->
<g id="edge10" class="edge">
<title>Node1&#45;&gt;Node10</title>
<path fill="none" stroke="midnightblue" d="M79.22,-285.67C95.66,-261.76 139.46,-198.79 179,-148.5 196.79,-125.87 218.49,-100.78 232.75,-84.6"/>
<polygon fill="midnightblue" stroke="midnightblue" points="235.45,-86.83 239.46,-77.02 230.21,-82.19 235.45,-86.83"/>
</g>
<!-- Node15 -->
<g id="node15" class="node">
<title>Node15</title>
<g id="a_node15"><a xlink:href="classCCAx12Adc.html#a6a505e9a0944b62ec52f59a9ec8085fe" target="_top" xlink:title=" ">
<polygon fill="white" stroke="black" points="179,-229 179,-248 319,-248 319,-229 179,-229"/>
<text text-anchor="middle" x="249" y="-236" font-family="Helvetica,sans-Serif" font-size="10.00">CCAx12Adc::writeAXData</text>
</a>
</g>
</g>
<!-- Node1&#45;&gt;Node15 -->
<g id="edge15" class="edge">
<title>Node1&#45;&gt;Node15</title>
<path fill="none" stroke="midnightblue" d="M101.87,-285.96C131.23,-276.42 176.55,-261.71 208.93,-251.19"/>
<polygon fill="midnightblue" stroke="midnightblue" points="210.1,-254.49 218.53,-248.07 207.94,-247.83 210.1,-254.49"/>
</g>
<!-- Node4 -->
<g id="node4" class="node">
<title>Node4</title>
<g id="a_node4"><a xlink:href="classlogs_1_1Logger.html#afa535aaf4891e02c4ff7f84d372b5b1b" target="_top" xlink:title="Méthode générique de trace d&#39;un message.">
<polygon fill="white" stroke="black" points="749,-343 749,-362 899,-362 899,-343 749,-343"/>
<text text-anchor="middle" x="824" y="-350" font-family="Helvetica,sans-Serif" font-size="10.00">logs::Logger::writeMessage</text>
</a>
</g>
</g>
<!-- Node3&#45;&gt;Node4 -->
<g id="edge3" class="edge">
<title>Node3&#45;&gt;Node4</title>
<path fill="none" stroke="midnightblue" d="M678.7,-380.91C704.86,-375.76 737.28,-369.38 764.77,-363.97"/>
<polygon fill="midnightblue" stroke="midnightblue" points="765.51,-367.39 774.65,-362.02 764.16,-360.52 765.51,-367.39"/>
</g>
<!-- Node6 -->
<g id="node6" class="node">
<title>Node6</title>
<g id="a_node6"><a xlink:href="classlogs_1_1Logger_1_1LoggerBuffer.html#a0e4fd77693fd899ec1b0670354f93a02" target="_top" xlink:title="Cette méthode valide le message en cours de construction et le transmet au Logger de référence.">
<polygon fill="white" stroke="black" points="545,-305 545,-324 713,-324 713,-305 545,-305"/>
<text text-anchor="middle" x="629" y="-312" font-family="Helvetica,sans-Serif" font-size="10.00">logs::Logger::LoggerBuffer::end</text>
</a>
</g>
</g>
<!-- Node5&#45;&gt;Node6 -->
<g id="edge5" class="edge">
<title>Node5&#45;&gt;Node6</title>
<path fill="none" stroke="midnightblue" d="M462.62,-346.73C490.74,-341.25 533.82,-332.85 568.96,-326.01"/>
<polygon fill="midnightblue" stroke="midnightblue" points="569.97,-329.38 579.11,-324.03 568.63,-322.5 569.97,-329.38"/>
</g>
<!-- Node6&#45;&gt;Node4 -->
<g id="edge8" class="edge">
<title>Node6&#45;&gt;Node4</title>
<path fill="none" stroke="midnightblue" d="M678.7,-324.09C704.86,-329.24 737.28,-335.62 764.77,-341.03"/>
<polygon fill="midnightblue" stroke="midnightblue" points="764.16,-344.48 774.65,-342.98 765.51,-337.61 764.16,-344.48"/>
</g>
<!-- Node7 -->
<g id="node7" class="node">
<title>Node7</title>
<g id="a_node7"><a xlink:href="classutils_1_1Mutex.html#aa584b418a5ef484f76b93e361a1d7e32" target="_top" xlink:title="Verrouille le mutex. Cette méthode doit être appelée avant d&#39;utiliser la ressource associée....">
<polygon fill="white" stroke="black" points="773.5,-296 773.5,-315 874.5,-315 874.5,-296 773.5,-296"/>
<text text-anchor="middle" x="824" y="-303" font-family="Helvetica,sans-Serif" font-size="10.00">utils::Mutex::lock</text>
</a>
</g>
</g>
<!-- Node6&#45;&gt;Node7 -->
<g id="edge6" class="edge">
<title>Node6&#45;&gt;Node7</title>
<path fill="none" stroke="midnightblue" d="M713.25,-310.62C730.07,-309.83 747.44,-309.02 763.26,-308.29"/>
<polygon fill="midnightblue" stroke="midnightblue" points="763.58,-311.77 773.41,-307.81 763.26,-304.78 763.58,-311.77"/>
</g>
<!-- Node8 -->
<g id="node8" class="node">
<title>Node8</title>
<g id="a_node8"><a xlink:href="classutils_1_1Mutex.html#a59b2079dc7f803d49f78ac9c04406cd3" target="_top" xlink:title="Déverrouille le mutex. Cette méthode doit être appelée après avoir utiliser la ressource associée.">
<polygon fill="white" stroke="black" points="767.5,-239 767.5,-258 880.5,-258 880.5,-239 767.5,-239"/>
<text text-anchor="middle" x="824" y="-246" font-family="Helvetica,sans-Serif" font-size="10.00">utils::Mutex::unlock</text>
</a>
</g>
</g>
<!-- Node6&#45;&gt;Node8 -->
<g id="edge7" class="edge">
<title>Node6&#45;&gt;Node8</title>
<path fill="none" stroke="midnightblue" d="M658.06,-304.9C691.75,-293.38 748.36,-274.03 785.7,-261.26"/>
<polygon fill="midnightblue" stroke="midnightblue" points="786.89,-264.55 795.22,-258 784.62,-257.93 786.89,-264.55"/>
</g>
<!-- Node11 -->
<g id="node11" class="node">
<title>Node11</title>
<g id="a_node11"><a xlink:href="classlogs_1_1LoggerFactory.html#a82585b5de73e471e06cafdccc3b3721e" target="_top" xlink:title="Cette méthode statique retourne un Logger en fonction de son nom.">
<polygon fill="white" stroke="black" points="573.5,-49.5 573.5,-79.5 684.5,-79.5 684.5,-49.5 573.5,-49.5"/>
<text text-anchor="start" x="581.5" y="-67.5" font-family="Helvetica,sans-Serif" font-size="10.00">logs::LoggerFactory</text>
<text text-anchor="middle" x="629" y="-56.5" font-family="Helvetica,sans-Serif" font-size="10.00">::logger</text>
</a>
</g>
</g>
<!-- Node10&#45;&gt;Node11 -->
<g id="edge11" class="edge">
<title>Node10&#45;&gt;Node11</title>
<path fill="none" stroke="midnightblue" d="M269.95,-57.91C290.65,-48.53 324.26,-34.89 355,-29.5 422.42,-17.68 441.25,-19.74 509,-29.5 532.09,-32.83 556.95,-39.61 577.95,-46.32"/>
<polygon fill="midnightblue" stroke="midnightblue" points="577.02,-49.7 587.61,-49.49 579.2,-43.05 577.02,-49.7"/>
</g>
<!-- Node12 -->
<g id="node12" class="node">
<title>Node12</title>
<g id="a_node12"><a xlink:href="classlogs_1_1LoggerFactory.html#ac89f19c0ffd71aa8cdc1c2d44c03809e" target="_top" xlink:title="Cette méthode ajoute un appender au système.">
<polygon fill="white" stroke="black" points="757,-99 757,-118 891,-118 891,-99 757,-99"/>
<text text-anchor="middle" x="824" y="-106" font-family="Helvetica,sans-Serif" font-size="10.00">logs::LoggerFactory::add</text>
</a>
</g>
</g>
<!-- Node11&#45;&gt;Node12 -->
<g id="edge12" class="edge">
<title>Node11&#45;&gt;Node12</title>
<path fill="none" stroke="midnightblue" d="M684.53,-76.93C711.71,-83.13 744.41,-90.58 771.21,-96.69"/>
<polygon fill="midnightblue" stroke="midnightblue" points="770.64,-100.15 781.16,-98.96 772.19,-93.33 770.64,-100.15"/>
</g>
<!-- Node13 -->
<g id="node13" class="node">
<title>Node13</title>
<g id="a_node13"><a xlink:href="classlogs_1_1LoggerFactory.html#a90478b91d7af2ef8841ded21e3521f69" target="_top" xlink:title="Cette méthode statique retourne l&#39;instance unique de la classe LoggerFactory.">
<polygon fill="white" stroke="black" points="768.5,-49.5 768.5,-79.5 879.5,-79.5 879.5,-49.5 768.5,-49.5"/>
<text text-anchor="start" x="776.5" y="-67.5" font-family="Helvetica,sans-Serif" font-size="10.00">logs::LoggerFactory</text>
<text text-anchor="middle" x="824" y="-56.5" font-family="Helvetica,sans-Serif" font-size="10.00">::instance</text>
</a>
</g>
</g>
<!-- Node11&#45;&gt;Node13 -->
<g id="edge13" class="edge">
<title>Node11&#45;&gt;Node13</title>
<path fill="none" stroke="midnightblue" d="M684.53,-64.5C707.45,-64.5 734.3,-64.5 758.22,-64.5"/>
<polygon fill="midnightblue" stroke="midnightblue" points="758.27,-68 768.27,-64.5 758.27,-61 758.27,-68"/>
</g>
<!-- Node14 -->
<g id="node14" class="node">
<title>Node14</title>
<g id="a_node14"><a xlink:href="classlogs_1_1LoggerFactory.html#a212aa623f4b6bee12cb39e8017dde670" target="_top" xlink:title="Cette méthode retourne le Logger principal qui définit le niveau de trace par défaut.">
<polygon fill="white" stroke="black" points="768.5,-0.5 768.5,-30.5 879.5,-30.5 879.5,-0.5 768.5,-0.5"/>
<text text-anchor="start" x="776.5" y="-18.5" font-family="Helvetica,sans-Serif" font-size="10.00">logs::LoggerFactory</text>
<text text-anchor="middle" x="824" y="-7.5" font-family="Helvetica,sans-Serif" font-size="10.00">::rootLogger</text>
</a>
</g>
</g>
<!-- Node11&#45;&gt;Node14 -->
<g id="edge14" class="edge">
<title>Node11&#45;&gt;Node14</title>
<path fill="none" stroke="midnightblue" d="M684.53,-50.66C707.56,-44.81 734.54,-37.96 758.54,-31.87"/>
<polygon fill="midnightblue" stroke="midnightblue" points="759.44,-35.25 768.27,-29.4 757.71,-28.46 759.44,-35.25"/>
</g>
<!-- Node15&#45;&gt;Node5 -->
<g id="edge16" class="edge">
<title>Node15&#45;&gt;Node5</title>
<path fill="none" stroke="midnightblue" d="M258.59,-248.08C275.39,-266.27 314.5,-305.99 355,-328.5 366.24,-334.75 379.34,-339.62 391.47,-343.3"/>
<polygon fill="midnightblue" stroke="midnightblue" points="390.79,-346.74 401.36,-346.11 392.7,-340.01 390.79,-346.74"/>
</g>
<!-- Node15&#45;&gt;Node7 -->
<g id="edge20" class="edge">
<title>Node15&#45;&gt;Node7</title>
<path fill="none" stroke="midnightblue" d="M305.23,-248.02C321.26,-250.62 338.8,-253.33 355,-255.5 501.26,-275.14 674.07,-291.95 763.18,-300.15"/>
<polygon fill="midnightblue" stroke="midnightblue" points="763.09,-303.66 773.37,-301.09 763.73,-296.69 763.09,-303.66"/>
</g>
<!-- Node15&#45;&gt;Node8 -->
<g id="edge25" class="edge">
<title>Node15&#45;&gt;Node8</title>
<path fill="none" stroke="midnightblue" d="M319.12,-239.71C430.42,-241.65 647.92,-245.44 757.12,-247.35"/>
<polygon fill="midnightblue" stroke="midnightblue" points="757.29,-250.85 767.35,-247.53 757.41,-243.85 757.29,-250.85"/>
</g>
<!-- Node16 -->
<g id="node16" class="node">
<title>Node16</title>
<g id="a_node16"><a xlink:href="classlogs_1_1Logger.html#a8b6a2019233bc44b3c3c86c653910831" target="_top" xlink:title="Trace un message de niveau ERROR.">
<polygon fill="white" stroke="black" points="576.5,-343 576.5,-362 681.5,-362 681.5,-343 576.5,-343"/>
<text text-anchor="middle" x="629" y="-350" font-family="Helvetica,sans-Serif" font-size="10.00">logs::Logger::error</text>
</a>
</g>
</g>
<!-- Node15&#45;&gt;Node16 -->
<g id="edge17" class="edge">
<title>Node15&#45;&gt;Node16</title>
<path fill="none" stroke="midnightblue" d="M266.2,-248.04C286.39,-259.56 322.22,-278.85 355,-290.5 425.6,-315.6 510.16,-332.95 566.28,-342.79"/>
<polygon fill="midnightblue" stroke="midnightblue" points="565.96,-346.28 576.41,-344.54 567.15,-339.39 565.96,-346.28"/>
</g>
<!-- Node17 -->
<g id="node17" class="node">
<title>Node17</title>
<g id="a_node17"><a xlink:href="classCCAx12Adc.html#ae2505b4c563dc13b7b43aa6deba3ecd5" target="_top" xlink:title=" ">
<polygon fill="white" stroke="black" points="355,-191 355,-210 509,-210 509,-191 355,-191"/>
<text text-anchor="middle" x="432" y="-198" font-family="Helvetica,sans-Serif" font-size="10.00">CCAx12Adc::getAddressSize</text>
</a>
</g>
</g>
<!-- Node15&#45;&gt;Node17 -->
<g id="edge19" class="edge">
<title>Node15&#45;&gt;Node17</title>
<path fill="none" stroke="midnightblue" d="M295.67,-228.91C319.99,-223.81 350.08,-217.49 375.71,-212.11"/>
<polygon fill="midnightblue" stroke="midnightblue" points="376.59,-215.5 385.65,-210.02 375.15,-208.65 376.59,-215.5"/>
</g>
<!-- Node18 -->
<g id="node18" class="node">
<title>Node18</title>
<g id="a_node18"><a xlink:href="classCCAx12Adc.html#ac422de853567b6e7f5b762a7d40ce2e7" target="_top" xlink:title="Retourne le Logger associé à la classe CCAx12Adc (OPOS6UL).">
<polygon fill="white" stroke="black" points="377,-115 377,-134 487,-134 487,-115 377,-115"/>
<text text-anchor="middle" x="432" y="-122" font-family="Helvetica,sans-Serif" font-size="10.00">CCAx12Adc::logger</text>
</a>
</g>
</g>
<!-- Node15&#45;&gt;Node18 -->
<g id="edge21" class="edge">
<title>Node15&#45;&gt;Node18</title>
<path fill="none" stroke="midnightblue" d="M265.12,-228.98C296.53,-209.19 369.06,-163.51 406.95,-139.65"/>
<polygon fill="midnightblue" stroke="midnightblue" points="409.2,-142.37 415.8,-134.08 405.47,-136.44 409.2,-142.37"/>
</g>
<!-- Node19 -->
<g id="node19" class="node">
<title>Node19</title>
<g id="a_node19"><a xlink:href="classCCAx12Adc.html#a9de179f3a7d271055b818f2e406714d7" target="_top" xlink:title=" ">
<polygon fill="white" stroke="black" points="381.5,-77 381.5,-96 482.5,-96 482.5,-77 381.5,-77"/>
<text text-anchor="middle" x="432" y="-84" font-family="Helvetica,sans-Serif" font-size="10.00">CCAx12Adc::read</text>
</a>
</g>
</g>
<!-- Node15&#45;&gt;Node19 -->
<g id="edge24" class="edge">
<title>Node15&#45;&gt;Node19</title>
<path fill="none" stroke="midnightblue" d="M254.81,-228.67C267.49,-203.83 304.35,-138.23 355,-105.5 360.05,-102.24 365.62,-99.53 371.38,-97.3"/>
<polygon fill="midnightblue" stroke="midnightblue" points="372.87,-100.49 381.2,-93.95 370.61,-93.86 372.87,-100.49"/>
</g>
<!-- Node20 -->
<g id="node20" class="node">
<title>Node20</title>
<g id="a_node20"><a xlink:href="classCCAx12Adc.html#af859112b60bf7e614e902063030460dc" target="_top" xlink:title=" ">
<polygon fill="white" stroke="black" points="380,-39 380,-58 484,-58 484,-39 380,-39"/>
<text text-anchor="middle" x="432" y="-46" font-family="Helvetica,sans-Serif" font-size="10.00">CCAx12Adc::write</text>
</a>
</g>
</g>
<!-- Node15&#45;&gt;Node20 -->
<g id="edge26" class="edge">
<title>Node15&#45;&gt;Node20</title>
<path fill="none" stroke="midnightblue" d="M252.96,-228.95C262.52,-199.78 295.43,-111.16 355,-67.5 359.71,-64.05 364.97,-61.22 370.48,-58.9"/>
<polygon fill="midnightblue" stroke="midnightblue" points="371.71,-62.18 379.91,-55.47 369.32,-55.6 371.71,-62.18"/>
</g>
<!-- Node16&#45;&gt;Node4 -->
<g id="edge18" class="edge">
<title>Node16&#45;&gt;Node4</title>
<path fill="none" stroke="midnightblue" d="M681.72,-352.5C699.22,-352.5 719.23,-352.5 738.59,-352.5"/>
<polygon fill="midnightblue" stroke="midnightblue" points="738.64,-356 748.64,-352.5 738.64,-349 738.64,-356"/>
</g>
<!-- Node18&#45;&gt;Node9 -->
<g id="edge22" class="edge">
<title>Node18&#45;&gt;Node9</title>
<path fill="none" stroke="midnightblue" d="M487.06,-129.77C509.15,-131.92 534.98,-134.44 558.45,-136.72"/>
<polygon fill="midnightblue" stroke="midnightblue" points="558.41,-140.24 568.7,-137.72 559.08,-133.27 558.41,-140.24"/>
</g>
<!-- Node18&#45;&gt;Node11 -->
<g id="edge23" class="edge">
<title>Node18&#45;&gt;Node11</title>
<path fill="none" stroke="midnightblue" d="M473.8,-114.99C485.25,-112.14 497.66,-108.87 509,-105.5 531.7,-98.77 556.5,-90.39 577.55,-82.97"/>
<polygon fill="midnightblue" stroke="midnightblue" points="579,-86.17 587.25,-79.52 576.66,-79.57 579,-86.17"/>
</g>
</g>
</svg>
        <g id="navigator" transform="translate(0 0)" fill="#404254">
                <rect fill="#f2f5e9" fill-opacity="0.5" stroke="#606060" stroke-width=".5" x="0" y="0" width="60" height="60"/>
                <use id="zoomplus" xlink:href="#zoomPlus" x="17" y="9" onmousedown="handleZoom(evt,'in')"/>
                <use id="zoomminus" xlink:href="#zoomMin" x="42" y="9" onmousedown="handleZoom(evt,'out')"/>
                <use id="reset" xlink:href="#resetDef" x="30" y="36" onmousedown="handleReset()"/>
                <g id="arrowUp" xlink:href="#dirArrow" transform="translate(30 24)" onmousedown="handlePan(0,-1)">
                  <use xlink:href="#rim" fill="#404040">
                        <set attributeName="fill" to="#808080" begin="arrowUp.mouseover" end="arrowUp.mouseout"/>
                  </use>
                  <path fill="none" stroke="white" stroke-width="1.5" d="M0,-3.0v7 M-2.5,-0.5L0,-3.0L2.5,-0.5"/>
                </g>
                <g id="arrowRight" xlink:href="#dirArrow" transform="rotate(90) translate(36 -43)" onmousedown="handlePan(1,0)">
                  <use xlink:href="#rim" fill="#404040">
                        <set attributeName="fill" to="#808080" begin="arrowRight.mouseover" end="arrowRight.mouseout"/>
                  </use>
                  <path fill="none" stroke="white" stroke-width="1.5" d="M0,-3.0v7 M-2.5,-0.5L0,-3.0L2.5,-0.5"/>
                </g>
                <g id="arrowDown" xlink:href="#dirArrow" transform="rotate(180) translate(-30 -48)" onmousedown="handlePan(0,1)">
                  <use xlink:href="#rim" fill="#404040">
                        <set attributeName="fill" to="#808080" begin="arrowDown.mouseover" end="arrowDown.mouseout"/>
                  </use>
                  <path fill="none" stroke="white" stroke-width="1.5" d="M0,-3.0v7 M-2.5,-0.5L0,-3.0L2.5,-0.5"/>
                </g>
                <g id="arrowLeft" xlink:href="#dirArrow" transform="rotate(270) translate(-36 17)" onmousedown="handlePan(-1,0)">
                  <use xlink:href="#rim" fill="#404040">
                        <set attributeName="fill" to="#808080" begin="arrowLeft.mouseover" end="arrowLeft.mouseout"/>
                  </use>
                  <path fill="none" stroke="white" stroke-width="1.5" d="M0,-3.0v7 M-2.5,-0.5L0,-3.0L2.5,-0.5"/>
                </g>
        </g>
        <svg viewBox="0 0 15 15" width="100%" height="30px" preserveAspectRatio="xMaxYMin meet">
         <g id="arrow_out" transform="scale(0.3 0.3)">
          <a xlink:href="classDynamixelDriver_a71ddbc9a7a468231b5334e95e9bd1eb3_cgraph_org.svg" target="_base">
           <rect id="button" ry="5" rx="5" y="6" x="6" height="38" width="38"
                fill="#f2f5e9" fill-opacity="0.5" stroke="#606060" stroke-width="1.0"/>
           <path id="arrow"
             d="M 11.500037,31.436501 C 11.940474,20.09759 22.043105,11.32322 32.158766,21.979434 L 37.068811,17.246167 C 37.068811,17.246167 37.088388,32 37.088388,32 L 22.160133,31.978069 C 22.160133,31.978069 26.997745,27.140456 26.997745,27.140456 C 18.528582,18.264221 13.291696,25.230495 11.500037,31.436501 z"
             style="fill:#404040;"/>
          </a>
         </g>
        </svg>
</svg>
