<?xml version="1.0" encoding="UTF-8" standalone="no"?>
<!DOCTYPE svg PUBLIC "-//W3C//DTD SVG 1.1//EN"
 "http://www.w3.org/Graphics/SVG/1.1/DTD/svg11.dtd">
<!-- Generated by graphviz version 2.43.0 (0)
 -->
<!-- Title: Print::print Pages: 1 -->
<svg width="587pt" height="306pt"
 viewBox="0.00 0.00 587.00 305.50" xmlns="http://www.w3.org/2000/svg" xmlns:xlink="http://www.w3.org/1999/xlink">
<g id="graph0" class="graph" transform="scale(1 1) rotate(0) translate(4 301.5)">
<title>Print::print</title>
<polygon fill="white" stroke="transparent" points="-4,4 -4,-301.5 583,-301.5 583,4 -4,4"/>
<!-- Node1 -->
<g id="node1" class="node">
<title>Node1</title>
<g id="a_node1"><a xlink:title=" ">
<polygon fill="#bfbfbf" stroke="black" points="511,-133.5 511,-152.5 579,-152.5 579,-133.5 511,-133.5"/>
<text text-anchor="middle" x="545" y="-140.5" font-family="Helvetica,sans-Serif" font-size="10.00">Print::print</text>
</a>
</g>
</g>
<!-- Node2 -->
<g id="node2" class="node">
<title>Node2</title>
<g id="a_node2"><a xlink:href="classOPOS6UL__RobotExtended.html#a73821b0ec83f0ebcdccf8c9e999616a0" target="_top" xlink:title="Affiche les points accumulés pendant le match.">
<polygon fill="white" stroke="black" points="333,-267 333,-297 475,-297 475,-267 333,-267"/>
<text text-anchor="start" x="341" y="-285" font-family="Helvetica,sans-Serif" font-size="10.00">OPOS6UL_RobotExtended</text>
<text text-anchor="middle" x="404" y="-274" font-family="Helvetica,sans-Serif" font-size="10.00">::displayPoints</text>
</a>
</g>
</g>
<!-- Node1&#45;&gt;Node2 -->
<g id="edge1" class="edge">
<title>Node1&#45;&gt;Node2</title>
<path fill="none" stroke="midnightblue" d="M536.31,-161.88C525.72,-185.76 504.55,-226.82 475,-252 468.06,-257.92 459.77,-262.82 451.37,-266.83"/>
<polygon fill="midnightblue" stroke="midnightblue" points="539.6,-163.08 540.31,-152.51 533.16,-160.33 539.6,-163.08"/>
</g>
<!-- Node3 -->
<g id="node3" class="node">
<title>Node3</title>
<g id="a_node3"><a xlink:href="classO__State__Init.html#abc19788b7457d1f819245dd28367fe91" target="_top" xlink:title="Exécute l&#39;état d&#39;initialisation.">
<polygon fill="white" stroke="black" points="0,-190.5 0,-209.5 120,-209.5 120,-190.5 0,-190.5"/>
<text text-anchor="middle" x="60" y="-197.5" font-family="Helvetica,sans-Serif" font-size="10.00">O_State_Init::execute</text>
</a>
</g>
</g>
<!-- Node1&#45;&gt;Node3 -->
<g id="edge4" class="edge">
<title>Node1&#45;&gt;Node3</title>
<path fill="none" stroke="midnightblue" d="M522.37,-158.29C509.3,-166.64 491.95,-176.23 475,-181 352.59,-215.49 201.86,-211.41 120.27,-205.58"/>
<polygon fill="midnightblue" stroke="midnightblue" points="524.66,-160.97 531.05,-152.52 520.79,-155.14 524.66,-160.97"/>
</g>
<!-- Node4 -->
<g id="node4" class="node">
<title>Node4</title>
<g id="a_node4"><a xlink:href="classO__State__WaitEndOfMatch.html#aa73613440b37c8dd42181e2e0265ae86" target="_top" xlink:title="Exécute l&#39;état d&#39;attente de fin de match.">
<polygon fill="white" stroke="black" points="156,-229 156,-259 297,-259 297,-229 156,-229"/>
<text text-anchor="start" x="164" y="-247" font-family="Helvetica,sans-Serif" font-size="10.00">O_State_WaitEndOfMatch</text>
<text text-anchor="middle" x="226.5" y="-236" font-family="Helvetica,sans-Serif" font-size="10.00">::execute</text>
</a>
</g>
</g>
<!-- Node1&#45;&gt;Node4 -->
<g id="edge5" class="edge">
<title>Node1&#45;&gt;Node4</title>
<path fill="none" stroke="midnightblue" d="M532.05,-161.02C519.86,-177.79 499.3,-201.96 475,-214 419.54,-241.49 348.82,-247.63 297.18,-247.69"/>
<polygon fill="midnightblue" stroke="midnightblue" points="535.09,-162.79 537.94,-152.58 529.35,-158.78 535.09,-162.79"/>
</g>
<!-- Node5 -->
<g id="node5" class="node">
<title>Node5</title>
<g id="a_node5"><a xlink:href="classPrint.html#a97bd44df9222fa4a51a1266fab8d3bc1" target="_top" xlink:title=" ">
<polygon fill="white" stroke="black" points="370,-152.5 370,-171.5 438,-171.5 438,-152.5 370,-152.5"/>
<text text-anchor="middle" x="404" y="-159.5" font-family="Helvetica,sans-Serif" font-size="10.00">Print::print</text>
</a>
</g>
</g>
<!-- Node1&#45;&gt;Node5 -->
<g id="edge6" class="edge">
<title>Node1&#45;&gt;Node5</title>
<path fill="none" stroke="midnightblue" d="M500.78,-148.91C480.54,-151.67 456.8,-154.92 438.02,-157.49"/>
<polygon fill="midnightblue" stroke="midnightblue" points="501.27,-152.37 510.71,-147.55 500.32,-145.44 501.27,-152.37"/>
</g>
<!-- Node6 -->
<g id="node6" class="node">
<title>Node6</title>
<g id="a_node6"><a xlink:href="classPrint.html#a449fd5f2ab1fb43c3e3b10f53d18b1e8" target="_top" xlink:title=" ">
<polygon fill="white" stroke="black" points="358,-114.5 358,-133.5 450,-133.5 450,-114.5 358,-114.5"/>
<text text-anchor="middle" x="404" y="-121.5" font-family="Helvetica,sans-Serif" font-size="10.00">Print::printFloat</text>
</a>
</g>
</g>
<!-- Node1&#45;&gt;Node6 -->
<g id="edge7" class="edge">
<title>Node1&#45;&gt;Node6</title>
<path fill="none" stroke="midnightblue" d="M500.52,-137.06C484.49,-134.86 466.29,-132.38 450.11,-130.17"/>
<polygon fill="midnightblue" stroke="midnightblue" points="500.32,-140.56 510.71,-138.45 501.27,-133.63 500.32,-140.56"/>
</g>
<!-- Node8 -->
<g id="node8" class="node">
<title>Node8</title>
<g id="a_node8"><a xlink:href="classPrint.html#a4fd286b325d3b1a786cfa35072a8ef52" target="_top" xlink:title=" ">
<polygon fill="white" stroke="black" points="365.5,-76.5 365.5,-95.5 442.5,-95.5 442.5,-76.5 365.5,-76.5"/>
<text text-anchor="middle" x="404" y="-83.5" font-family="Helvetica,sans-Serif" font-size="10.00">Print::println</text>
</a>
</g>
</g>
<!-- Node1&#45;&gt;Node8 -->
<g id="edge9" class="edge">
<title>Node1&#45;&gt;Node8</title>
<path fill="none" stroke="midnightblue" d="M520.4,-128.17C507.38,-120.46 490.71,-111.35 475,-105 464.73,-100.85 453.24,-97.3 442.6,-94.44"/>
<polygon fill="midnightblue" stroke="midnightblue" points="518.8,-131.29 529.17,-133.47 522.42,-125.3 518.8,-131.29"/>
</g>
<!-- Node9 -->
<g id="node9" class="node">
<title>Node9</title>
<g id="a_node9"><a xlink:href="classO__State__Init.html#a1980cd82dcb83e88d61f2e7e14dddfa0" target="_top" xlink:title=" ">
<polygon fill="white" stroke="black" points="169.5,-76.5 169.5,-95.5 283.5,-95.5 283.5,-76.5 169.5,-76.5"/>
<text text-anchor="middle" x="226.5" y="-83.5" font-family="Helvetica,sans-Serif" font-size="10.00">O_State_Init::setPos</text>
</a>
</g>
</g>
<!-- Node1&#45;&gt;Node9 -->
<g id="edge13" class="edge">
<title>Node1&#45;&gt;Node9</title>
<path fill="none" stroke="midnightblue" d="M533.74,-124.73C522.18,-106.24 501.5,-78.74 475,-67 399.93,-33.76 299.53,-60.51 253.07,-76.38"/>
<polygon fill="midnightblue" stroke="midnightblue" points="530.81,-126.65 538.93,-133.45 536.82,-123.07 530.81,-126.65"/>
</g>
<!-- Node10 -->
<g id="node10" class="node">
<title>Node10</title>
<g id="a_node10"><a xlink:href="classO__LcdBoardTest.html#a5fe507797dd1ee404d3fd4a0fd6b7885" target="_top" xlink:title="Execute le test.">
<polygon fill="white" stroke="black" points="346,-0.5 346,-19.5 462,-19.5 462,-0.5 346,-0.5"/>
<text text-anchor="middle" x="404" y="-7.5" font-family="Helvetica,sans-Serif" font-size="10.00">O_LcdBoardTest::run</text>
</a>
</g>
</g>
<!-- Node1&#45;&gt;Node10 -->
<g id="edge12" class="edge">
<title>Node1&#45;&gt;Node10</title>
<path fill="none" stroke="midnightblue" d="M536.6,-123.77C526.31,-99.51 505.47,-58.06 475,-34 467.03,-27.71 457.32,-23.02 447.69,-19.53"/>
<polygon fill="midnightblue" stroke="midnightblue" points="533.46,-125.35 540.46,-133.3 539.95,-122.72 533.46,-125.35"/>
</g>
<!-- Node2&#45;&gt;Node3 -->
<g id="edge2" class="edge">
<title>Node2&#45;&gt;Node3</title>
<path fill="none" stroke="midnightblue" d="M322.8,-289.13C273.35,-290.78 209.4,-287.91 156,-269 120.07,-256.27 85.94,-225.32 70.15,-209.56"/>
<polygon fill="midnightblue" stroke="midnightblue" points="322.95,-292.62 332.8,-288.72 322.67,-285.63 322.95,-292.62"/>
</g>
<!-- Node2&#45;&gt;Node4 -->
<g id="edge3" class="edge">
<title>Node2&#45;&gt;Node4</title>
<path fill="none" stroke="midnightblue" d="M323.65,-264.82C314.73,-262.89 305.71,-260.93 296.93,-259.03"/>
<polygon fill="midnightblue" stroke="midnightblue" points="323.12,-268.29 333.64,-266.98 324.6,-261.44 323.12,-268.29"/>
</g>
<!-- Node7 -->
<g id="node7" class="node">
<title>Node7</title>
<g id="a_node7"><a xlink:href="classPrint.html#ae8b4c025786c820afe0a90aeea01c9c5" target="_top" xlink:title=" ">
<polygon fill="white" stroke="black" points="192.5,-114.5 192.5,-133.5 260.5,-133.5 260.5,-114.5 192.5,-114.5"/>
<text text-anchor="middle" x="226.5" y="-121.5" font-family="Helvetica,sans-Serif" font-size="10.00">Print::print</text>
</a>
</g>
</g>
<!-- Node6&#45;&gt;Node7 -->
<g id="edge8" class="edge">
<title>Node6&#45;&gt;Node7</title>
<path fill="none" stroke="midnightblue" d="M347.55,-124C318.97,-124 285.09,-124 260.62,-124"/>
<polygon fill="midnightblue" stroke="midnightblue" points="347.8,-127.5 357.8,-124 347.8,-120.5 347.8,-127.5"/>
</g>
<!-- Node8&#45;&gt;Node9 -->
<g id="edge10" class="edge">
<title>Node8&#45;&gt;Node9</title>
<path fill="none" stroke="midnightblue" d="M355.22,-86C333.15,-86 306.79,-86 283.76,-86"/>
<polygon fill="midnightblue" stroke="midnightblue" points="355.35,-89.5 365.35,-86 355.35,-82.5 355.35,-89.5"/>
</g>
<!-- Node9&#45;&gt;Node3 -->
<g id="edge11" class="edge">
<title>Node9&#45;&gt;Node3</title>
<path fill="none" stroke="midnightblue" d="M167.76,-99.22C163.68,-100.93 159.71,-102.84 156,-105 116.67,-127.84 82.14,-171.01 67.91,-190.28"/>
<polygon fill="midnightblue" stroke="midnightblue" points="169.3,-102.38 177.44,-95.61 166.85,-95.82 169.3,-102.38"/>
</g>
</g>
</svg>
