<?xml version="1.0" encoding="UTF-8" standalone="no"?>
<!DOCTYPE svg PUBLIC "-//W3C//DTD SVG 1.1//EN"
 "http://www.w3.org/Graphics/SVG/1.1/DTD/svg11.dtd">
<!-- Generated by graphviz version 2.43.0 (0)
 -->
<!-- Title: Asserv::calculateDriftLeftSideAndSetPos Pages: 1 -->
<!--zoomable 664 -->
<svg id="main" version="1.1" xmlns="http://www.w3.org/2000/svg" xmlns:xlink="http://www.w3.org/1999/xlink" xml:space="preserve" onload="init(evt)">
<style type="text/css"><![CDATA[
.edge:hover path { stroke: red; }
.edge:hover polygon { stroke: red; fill: red; }
]]></style>
<script type="text/javascript"><![CDATA[
var edges = document.getElementsByTagName('g');
if (edges && edges.length) {
  for (var i=0;i<edges.length;i++) {
    if (edges[i].id.substr(0,4)=='edge') {
      edges[i].setAttribute('class','edge');
    }
  }
}
]]></script>
        <defs>
                <circle id="rim" cx="0" cy="0" r="7"/>
                <circle id="rim2" cx="0" cy="0" r="3.5"/>
                <g id="zoomPlus">
                        <use xlink:href="#rim" fill="#404040">
                                <set attributeName="fill" to="#808080" begin="zoomplus.mouseover" end="zoomplus.mouseout"/>
                        </use>
                        <path d="M-4,0h8M0,-4v8" fill="none" stroke="white" stroke-width="1.5" pointer-events="none"/>
                </g>
                <g id="zoomMin">
                        <use xlink:href="#rim" fill="#404040">
                                <set attributeName="fill" to="#808080" begin="zoomminus.mouseover" end="zoomminus.mouseout"/>
                        </use>
                        <path d="M-4,0h8" fill="none" stroke="white" stroke-width="1.5" pointer-events="none"/>
                </g>
                <g id="dirArrow">
                        <path fill="none" stroke="white" stroke-width="1.5" d="M0,-3.0v7 M-2.5,-0.5L0,-3.0L2.5,-0.5"/>
                </g>
               <g id="resetDef">
                       <use xlink:href="#rim2" fill="#404040">
                               <set attributeName="fill" to="#808080" begin="reset.mouseover" end="reset.mouseout"/>
                       </use>
               </g>
        </defs>

<script type="text/javascript">
var viewWidth = 1156;
var viewHeight = 664;
var sectionId = 'dynsection-6';
</script>
<script xlink:href="svgpan.js"/>
<svg id="graph" class="graph">
<g id="viewport">
<title>Asserv::calculateDriftLeftSideAndSetPos</title>
<polygon fill="white" stroke="transparent" points="-4,4 -4,-660 1152,-660 1152,4 -4,4"/>
<!-- Node1 -->
<g id="node1" class="node">
<title>Node1</title>
<g id="a_node1"><a xlink:title=" ">
<polygon fill="#bfbfbf" stroke="black" points="0,-367 0,-397 138,-397 138,-367 0,-367"/>
<text text-anchor="start" x="8" y="-385" font-family="Helvetica,sans-Serif" font-size="10.00">Asserv::calculateDriftLeft</text>
<text text-anchor="middle" x="69" y="-374" font-family="Helvetica,sans-Serif" font-size="10.00">SideAndSetPos</text>
</a>
</g>
</g>
<!-- Node2 -->
<g id="node2" class="node">
<title>Node2</title>
<g id="a_node2"><a xlink:href="classAsserv.html#ad8dcc5e2fdf8a0d51ac7caa959afd1ab" target="_top" xlink:title=" ">
<polygon fill="white" stroke="black" points="363,-581.5 363,-600.5 530,-600.5 530,-581.5 363,-581.5"/>
<text text-anchor="middle" x="446.5" y="-588.5" font-family="Helvetica,sans-Serif" font-size="10.00">Asserv::changeMatchAngleRad</text>
</a>
</g>
</g>
<!-- Node1&#45;&gt;Node2 -->
<g id="edge1" class="edge">
<title>Node1&#45;&gt;Node2</title>
<path fill="none" stroke="midnightblue" d="M80.44,-397.31C97.5,-421.3 133.51,-467.89 174,-496 238.18,-540.55 325.32,-566.13 383.38,-579.29"/>
<polygon fill="midnightblue" stroke="midnightblue" points="382.63,-582.71 393.15,-581.45 384.14,-575.87 382.63,-582.71"/>
</g>
<!-- Node4 -->
<g id="node4" class="node">
<title>Node4</title>
<g id="a_node4"><a xlink:href="classAsserv.html#a4095558c0f4909ad9166a54a59185195" target="_top" xlink:title=" ">
<polygon fill="white" stroke="black" points="383,-543.5 383,-562.5 510,-562.5 510,-543.5 383,-543.5"/>
<text text-anchor="middle" x="446.5" y="-550.5" font-family="Helvetica,sans-Serif" font-size="10.00">Asserv::changeMatchX</text>
</a>
</g>
</g>
<!-- Node1&#45;&gt;Node4 -->
<g id="edge3" class="edge">
<title>Node1&#45;&gt;Node4</title>
<path fill="none" stroke="midnightblue" d="M94.12,-397.21C143.02,-427.42 258.12,-495.43 363,-534 370,-536.58 377.47,-538.88 384.95,-540.91"/>
<polygon fill="midnightblue" stroke="midnightblue" points="384.18,-544.33 394.74,-543.43 385.93,-537.55 384.18,-544.33"/>
</g>
<!-- Node5 -->
<g id="node5" class="node">
<title>Node5</title>
<g id="a_node5"><a xlink:href="namespacelogs.html#ac6f325c6cfe6189bc8e243daa184453b" target="_top" xlink:title="Cette méthode permet de finir les flux de construction par la notation.">
<polygon fill="white" stroke="black" points="617.5,-348.5 617.5,-367.5 678.5,-367.5 678.5,-348.5 617.5,-348.5"/>
<text text-anchor="middle" x="648" y="-355.5" font-family="Helvetica,sans-Serif" font-size="10.00">logs::end</text>
</a>
</g>
</g>
<!-- Node1&#45;&gt;Node5 -->
<g id="edge4" class="edge">
<title>Node1&#45;&gt;Node5</title>
<path fill="none" stroke="midnightblue" d="M101.22,-366.98C121.54,-357.74 148.86,-346.3 174,-339 326.6,-294.71 374.56,-273.01 530,-306 563.64,-313.14 599.34,-330.64 622.33,-343.37"/>
<polygon fill="midnightblue" stroke="midnightblue" points="620.65,-346.44 631.08,-348.32 624.1,-340.34 620.65,-346.44"/>
</g>
<!-- Node10 -->
<g id="node10" class="node">
<title>Node10</title>
<g id="a_node10"><a xlink:href="classlogs_1_1Logger.html#a8b6a2019233bc44b3c3c86c653910831" target="_top" xlink:title="Trace un message de niveau ERROR.">
<polygon fill="white" stroke="black" points="198,-636.5 198,-655.5 303,-655.5 303,-636.5 198,-636.5"/>
<text text-anchor="middle" x="250.5" y="-643.5" font-family="Helvetica,sans-Serif" font-size="10.00">logs::Logger::error</text>
</a>
</g>
</g>
<!-- Node1&#45;&gt;Node10 -->
<g id="edge9" class="edge">
<title>Node1&#45;&gt;Node10</title>
<path fill="none" stroke="midnightblue" d="M75.15,-397.1C87.8,-432.76 123.17,-523.83 174,-586 188.57,-603.83 209.28,-619.82 225.32,-630.8"/>
<polygon fill="midnightblue" stroke="midnightblue" points="223.42,-633.74 233.69,-636.36 227.3,-627.91 223.42,-633.74"/>
</g>
<!-- Node11 -->
<g id="node11" class="node">
<title>Node11</title>
<g id="a_node11"><a xlink:href="classAsserv.html#a5857f21b4410828db5387367bb63a0df" target="_top" xlink:title="Return Logger linked to Asserv.">
<polygon fill="white" stroke="black" points="403.5,-201.5 403.5,-220.5 489.5,-220.5 489.5,-201.5 403.5,-201.5"/>
<text text-anchor="middle" x="446.5" y="-208.5" font-family="Helvetica,sans-Serif" font-size="10.00">Asserv::logger</text>
</a>
</g>
</g>
<!-- Node1&#45;&gt;Node11 -->
<g id="edge11" class="edge">
<title>Node1&#45;&gt;Node11</title>
<path fill="none" stroke="midnightblue" d="M80.12,-366.63C96.74,-342.68 132.16,-296.77 174,-273 243.25,-233.65 335.81,-219.27 393,-214.02"/>
<polygon fill="midnightblue" stroke="midnightblue" points="393.59,-217.48 403.25,-213.14 392.99,-210.51 393.59,-217.48"/>
</g>
<!-- Node16 -->
<g id="node16" class="node">
<title>Node16</title>
<g id="a_node16"><a xlink:href="classAsserv.html#a02914fbd6c3d2ee03c896cb7a9f86078" target="_top" xlink:title=" ">
<polygon fill="white" stroke="black" points="184.5,-157.5 184.5,-176.5 316.5,-176.5 316.5,-157.5 184.5,-157.5"/>
<text text-anchor="middle" x="250.5" y="-164.5" font-family="Helvetica,sans-Serif" font-size="10.00">Asserv::pos_getPosition</text>
</a>
</g>
</g>
<!-- Node1&#45;&gt;Node16 -->
<g id="edge16" class="edge">
<title>Node1&#45;&gt;Node16</title>
<path fill="none" stroke="midnightblue" d="M76.76,-366.75C91.12,-335.58 127.25,-263.51 174,-216 187.62,-202.17 205.79,-190.22 220.9,-181.59"/>
<polygon fill="midnightblue" stroke="midnightblue" points="222.78,-184.55 229.84,-176.65 219.4,-178.42 222.78,-184.55"/>
</g>
<!-- Node29 -->
<g id="node29" class="node">
<title>Node29</title>
<g id="a_node29"><a xlink:href="classAsserv.html#af6213bf76071a11def691853b62d9c76" target="_top" xlink:title=" ">
<polygon fill="white" stroke="black" points="396,-315.5 396,-334.5 497,-334.5 497,-315.5 396,-315.5"/>
<text text-anchor="middle" x="446.5" y="-322.5" font-family="Helvetica,sans-Serif" font-size="10.00">Asserv::radToDeg</text>
</a>
</g>
</g>
<!-- Node1&#45;&gt;Node29 -->
<g id="edge35" class="edge">
<title>Node1&#45;&gt;Node29</title>
<path fill="none" stroke="midnightblue" d="M138,-371.68C208.76,-360.94 318.47,-344.28 385.93,-334.04"/>
<polygon fill="midnightblue" stroke="midnightblue" points="386.61,-337.48 395.98,-332.52 385.56,-330.56 386.61,-337.48"/>
</g>
<!-- Node30 -->
<g id="node30" class="node">
<title>Node30</title>
<g id="a_node30"><a xlink:href="classAsserv.html#a050645863c2a40f3116ee0847d1d3732" target="_top" xlink:title=" ">
<polygon fill="white" stroke="black" points="174,-401.5 174,-420.5 327,-420.5 327,-401.5 174,-401.5"/>
<text text-anchor="middle" x="250.5" y="-408.5" font-family="Helvetica,sans-Serif" font-size="10.00">Asserv::setPositionAndColor</text>
</a>
</g>
</g>
<!-- Node1&#45;&gt;Node30 -->
<g id="edge36" class="edge">
<title>Node1&#45;&gt;Node30</title>
<path fill="none" stroke="midnightblue" d="M138.12,-393.01C152,-395.25 166.62,-397.61 180.54,-399.86"/>
<polygon fill="midnightblue" stroke="midnightblue" points="180.1,-403.33 190.53,-401.47 181.21,-396.42 180.1,-403.33"/>
</g>
<!-- Node3 -->
<g id="node3" class="node">
<title>Node3</title>
<g id="a_node3"><a xlink:href="ARobotPositionShared_8hpp.html#a45bb7dfd2e7442f6250b8d202cc75c7f" target="_top" xlink:title="Normalise un angle dans l&#39;intervalle ]&#45;PI, PI].">
<polygon fill="white" stroke="black" points="605.5,-581.5 605.5,-600.5 690.5,-600.5 690.5,-581.5 605.5,-581.5"/>
<text text-anchor="middle" x="648" y="-588.5" font-family="Helvetica,sans-Serif" font-size="10.00">WrapAngle2PI</text>
</a>
</g>
</g>
<!-- Node2&#45;&gt;Node3 -->
<g id="edge2" class="edge">
<title>Node2&#45;&gt;Node3</title>
<path fill="none" stroke="midnightblue" d="M530.08,-591C552.17,-591 575.42,-591 595.32,-591"/>
<polygon fill="midnightblue" stroke="midnightblue" points="595.39,-594.5 605.39,-591 595.39,-587.5 595.39,-594.5"/>
</g>
<!-- Node6 -->
<g id="node6" class="node">
<title>Node6</title>
<g id="a_node6"><a xlink:href="classlogs_1_1Logger_1_1LoggerBuffer.html#a0e4fd77693fd899ec1b0670354f93a02" target="_top" xlink:title="Cette méthode valide le message en cours de construction et le transmet au Logger de référence.">
<polygon fill="white" stroke="black" points="776,-417.5 776,-436.5 944,-436.5 944,-417.5 776,-417.5"/>
<text text-anchor="middle" x="860" y="-424.5" font-family="Helvetica,sans-Serif" font-size="10.00">logs::Logger::LoggerBuffer::end</text>
</a>
</g>
</g>
<!-- Node5&#45;&gt;Node6 -->
<g id="edge5" class="edge">
<title>Node5&#45;&gt;Node6</title>
<path fill="none" stroke="midnightblue" d="M678.2,-367.59C715.26,-379.77 779.31,-400.82 820.39,-414.31"/>
<polygon fill="midnightblue" stroke="midnightblue" points="819.46,-417.69 830.05,-417.49 821.64,-411.04 819.46,-417.69"/>
</g>
<!-- Node7 -->
<g id="node7" class="node">
<title>Node7</title>
<g id="a_node7"><a xlink:href="classutils_1_1Mutex.html#aa584b418a5ef484f76b93e361a1d7e32" target="_top" xlink:title="Verrouille le mutex. Cette méthode doit être appelée avant d&#39;utiliser la ressource associée....">
<polygon fill="white" stroke="black" points="1018.5,-417.5 1018.5,-436.5 1119.5,-436.5 1119.5,-417.5 1018.5,-417.5"/>
<text text-anchor="middle" x="1069" y="-424.5" font-family="Helvetica,sans-Serif" font-size="10.00">utils::Mutex::lock</text>
</a>
</g>
</g>
<!-- Node6&#45;&gt;Node7 -->
<g id="edge6" class="edge">
<title>Node6&#45;&gt;Node7</title>
<path fill="none" stroke="midnightblue" d="M944,-427C965.46,-427 988.14,-427 1008.15,-427"/>
<polygon fill="midnightblue" stroke="midnightblue" points="1008.35,-430.5 1018.35,-427 1008.35,-423.5 1008.35,-430.5"/>
</g>
<!-- Node8 -->
<g id="node8" class="node">
<title>Node8</title>
<g id="a_node8"><a xlink:href="classutils_1_1Mutex.html#a59b2079dc7f803d49f78ac9c04406cd3" target="_top" xlink:title="Déverrouille le mutex. Cette méthode doit être appelée après avoir utiliser la ressource associée.">
<polygon fill="white" stroke="black" points="1012.5,-379.5 1012.5,-398.5 1125.5,-398.5 1125.5,-379.5 1012.5,-379.5"/>
<text text-anchor="middle" x="1069" y="-386.5" font-family="Helvetica,sans-Serif" font-size="10.00">utils::Mutex::unlock</text>
</a>
</g>
</g>
<!-- Node6&#45;&gt;Node8 -->
<g id="edge7" class="edge">
<title>Node6&#45;&gt;Node8</title>
<path fill="none" stroke="midnightblue" d="M912.97,-417.46C941.27,-412.27 976.46,-405.8 1006.17,-400.35"/>
<polygon fill="midnightblue" stroke="midnightblue" points="1006.81,-403.79 1016.01,-398.54 1005.54,-396.91 1006.81,-403.79"/>
</g>
<!-- Node9 -->
<g id="node9" class="node">
<title>Node9</title>
<g id="a_node9"><a xlink:href="classlogs_1_1Logger.html#afa535aaf4891e02c4ff7f84d372b5b1b" target="_top" xlink:title="Méthode générique de trace d&#39;un message.">
<polygon fill="white" stroke="black" points="994,-607.5 994,-626.5 1144,-626.5 1144,-607.5 994,-607.5"/>
<text text-anchor="middle" x="1069" y="-614.5" font-family="Helvetica,sans-Serif" font-size="10.00">logs::Logger::writeMessage</text>
</a>
</g>
</g>
<!-- Node6&#45;&gt;Node9 -->
<g id="edge8" class="edge">
<title>Node6&#45;&gt;Node9</title>
<path fill="none" stroke="midnightblue" d="M880.33,-436.55C900,-446.77 930.8,-464.22 954,-484 996.21,-519.99 1036.14,-572.2 1055.61,-599.26"/>
<polygon fill="midnightblue" stroke="midnightblue" points="1052.76,-601.29 1061.41,-607.41 1058.46,-597.23 1052.76,-601.29"/>
</g>
<!-- Node10&#45;&gt;Node9 -->
<g id="edge10" class="edge">
<title>Node10&#45;&gt;Node9</title>
<path fill="none" stroke="midnightblue" d="M303.15,-646.93C419.52,-648.59 711.02,-650.35 954,-632 967.32,-630.99 981.47,-629.49 995.11,-627.81"/>
<polygon fill="midnightblue" stroke="midnightblue" points="995.93,-631.24 1005.41,-626.5 995.05,-624.29 995.93,-631.24"/>
</g>
<!-- Node12 -->
<g id="node12" class="node">
<title>Node12</title>
<g id="a_node12"><a xlink:href="classlogs_1_1LoggerFactory.html#a82585b5de73e471e06cafdccc3b3721e" target="_top" xlink:title="Cette méthode statique retourne un Logger en fonction de son nom.">
<polygon fill="white" stroke="black" points="804.5,-39 804.5,-69 915.5,-69 915.5,-39 804.5,-39"/>
<text text-anchor="start" x="812.5" y="-57" font-family="Helvetica,sans-Serif" font-size="10.00">logs::LoggerFactory</text>
<text text-anchor="middle" x="860" y="-46" font-family="Helvetica,sans-Serif" font-size="10.00">::logger</text>
</a>
</g>
</g>
<!-- Node11&#45;&gt;Node12 -->
<g id="edge12" class="edge">
<title>Node11&#45;&gt;Node12</title>
<path fill="none" stroke="midnightblue" d="M489.92,-209.35C504.29,-206.74 519.37,-201.42 530,-191 574.94,-146.91 516.15,-92.45 566,-54 634.54,-1.15 741.4,-18.55 805.37,-36.17"/>
<polygon fill="midnightblue" stroke="midnightblue" points="804.68,-39.61 815.25,-38.99 806.6,-32.88 804.68,-39.61"/>
</g>
<!-- Node13 -->
<g id="node13" class="node">
<title>Node13</title>
<g id="a_node13"><a xlink:href="classlogs_1_1LoggerFactory.html#ac89f19c0ffd71aa8cdc1c2d44c03809e" target="_top" xlink:title="Cette méthode ajoute un appender au système.">
<polygon fill="white" stroke="black" points="1002,-0.5 1002,-19.5 1136,-19.5 1136,-0.5 1002,-0.5"/>
<text text-anchor="middle" x="1069" y="-7.5" font-family="Helvetica,sans-Serif" font-size="10.00">logs::LoggerFactory::add</text>
</a>
</g>
</g>
<!-- Node12&#45;&gt;Node13 -->
<g id="edge13" class="edge">
<title>Node12&#45;&gt;Node13</title>
<path fill="none" stroke="midnightblue" d="M915.66,-42.38C945.79,-35.98 983.09,-28.05 1013.24,-21.64"/>
<polygon fill="midnightblue" stroke="midnightblue" points="1014.11,-25.03 1023.17,-19.53 1012.66,-18.19 1014.11,-25.03"/>
</g>
<!-- Node14 -->
<g id="node14" class="node">
<title>Node14</title>
<g id="a_node14"><a xlink:href="classlogs_1_1LoggerFactory.html#a90478b91d7af2ef8841ded21e3521f69" target="_top" xlink:title="Cette méthode statique retourne l&#39;instance unique de la classe LoggerFactory.">
<polygon fill="white" stroke="black" points="1013.5,-88 1013.5,-118 1124.5,-118 1124.5,-88 1013.5,-88"/>
<text text-anchor="start" x="1021.5" y="-106" font-family="Helvetica,sans-Serif" font-size="10.00">logs::LoggerFactory</text>
<text text-anchor="middle" x="1069" y="-95" font-family="Helvetica,sans-Serif" font-size="10.00">::instance</text>
</a>
</g>
</g>
<!-- Node12&#45;&gt;Node14 -->
<g id="edge14" class="edge">
<title>Node12&#45;&gt;Node14</title>
<path fill="none" stroke="midnightblue" d="M915.66,-66.94C942.66,-73.33 975.41,-81.08 1003.62,-87.76"/>
<polygon fill="midnightblue" stroke="midnightblue" points="1002.86,-91.18 1013.4,-90.07 1004.47,-84.36 1002.86,-91.18"/>
</g>
<!-- Node15 -->
<g id="node15" class="node">
<title>Node15</title>
<g id="a_node15"><a xlink:href="classlogs_1_1LoggerFactory.html#a212aa623f4b6bee12cb39e8017dde670" target="_top" xlink:title="Cette méthode retourne le Logger principal qui définit le niveau de trace par défaut.">
<polygon fill="white" stroke="black" points="1013.5,-39 1013.5,-69 1124.5,-69 1124.5,-39 1013.5,-39"/>
<text text-anchor="start" x="1021.5" y="-57" font-family="Helvetica,sans-Serif" font-size="10.00">logs::LoggerFactory</text>
<text text-anchor="middle" x="1069" y="-46" font-family="Helvetica,sans-Serif" font-size="10.00">::rootLogger</text>
</a>
</g>
</g>
<!-- Node12&#45;&gt;Node15 -->
<g id="edge15" class="edge">
<title>Node12&#45;&gt;Node15</title>
<path fill="none" stroke="midnightblue" d="M915.66,-54C942.54,-54 975.13,-54 1003.25,-54"/>
<polygon fill="midnightblue" stroke="midnightblue" points="1003.4,-57.5 1013.4,-54 1003.4,-50.5 1003.4,-57.5"/>
</g>
<!-- Node17 -->
<g id="node17" class="node">
<title>Node17</title>
<g id="a_node17"><a xlink:href="classAsservEsialR.html#a18064f0087aa1cd67cbdd131f99720db" target="_top" xlink:title="Lit la position courante du robot.">
<polygon fill="white" stroke="black" points="364,-239.5 364,-258.5 529,-258.5 529,-239.5 364,-239.5"/>
<text text-anchor="middle" x="446.5" y="-246.5" font-family="Helvetica,sans-Serif" font-size="10.00">AsservEsialR::odo_GetPosition</text>
</a>
</g>
</g>
<!-- Node16&#45;&gt;Node17 -->
<g id="edge17" class="edge">
<title>Node16&#45;&gt;Node17</title>
<path fill="none" stroke="midnightblue" d="M265.28,-176.53C285.72,-190.25 325.69,-215.52 363,-230 369.69,-232.6 376.82,-234.89 384,-236.91"/>
<polygon fill="midnightblue" stroke="midnightblue" points="383.2,-240.32 393.76,-239.49 384.98,-233.55 383.2,-240.32"/>
</g>
<!-- Node26 -->
<g id="node26" class="node">
<title>Node26</title>
<g id="a_node26"><a xlink:href="classAAsservDriver.html#a81dea0fa2d154d60d67e9e12b415b265" target="_top" xlink:title="Lit la position courante du robot.">
<polygon fill="white" stroke="black" points="391.5,-152 391.5,-182 501.5,-182 501.5,-152 391.5,-152"/>
<text text-anchor="start" x="399.5" y="-170" font-family="Helvetica,sans-Serif" font-size="10.00">AAsservDriver::odo</text>
<text text-anchor="middle" x="446.5" y="-159" font-family="Helvetica,sans-Serif" font-size="10.00">_GetPosition</text>
</a>
</g>
</g>
<!-- Node16&#45;&gt;Node26 -->
<g id="edge32" class="edge">
<title>Node16&#45;&gt;Node26</title>
<path fill="none" stroke="midnightblue" d="M316.64,-167C337.36,-167 360.25,-167 380.93,-167"/>
<polygon fill="midnightblue" stroke="midnightblue" points="381.2,-170.5 391.2,-167 381.2,-163.5 381.2,-170.5"/>
</g>
<!-- Node27 -->
<g id="node27" class="node">
<title>Node27</title>
<g id="a_node27"><a xlink:href="classARobotPositionShared.html#a42f840a7c37b33555643005112dc1875" target="_top" xlink:title="Met a jour la position du robot.">
<polygon fill="white" stroke="black" points="384,-103 384,-133 509,-133 509,-103 384,-103"/>
<text text-anchor="start" x="392" y="-121" font-family="Helvetica,sans-Serif" font-size="10.00">ARobotPositionShared</text>
<text text-anchor="middle" x="446.5" y="-110" font-family="Helvetica,sans-Serif" font-size="10.00">::setRobotPosition</text>
</a>
</g>
</g>
<!-- Node16&#45;&gt;Node27 -->
<g id="edge33" class="edge">
<title>Node16&#45;&gt;Node27</title>
<path fill="none" stroke="midnightblue" d="M289.37,-157.44C314.03,-151.21 346.95,-142.89 376.2,-135.5"/>
<polygon fill="midnightblue" stroke="midnightblue" points="377.13,-138.88 385.97,-133.04 375.41,-132.09 377.13,-138.88"/>
</g>
<!-- Node28 -->
<g id="node28" class="node">
<title>Node28</title>
<g id="a_node28"><a xlink:href="classRobot.html#a6a118c509a6d7ab35cdf96203eb0238a" target="_top" xlink:title=" ">
<polygon fill="white" stroke="black" points="385,-64.5 385,-83.5 508,-83.5 508,-64.5 385,-64.5"/>
<text text-anchor="middle" x="446.5" y="-71.5" font-family="Helvetica,sans-Serif" font-size="10.00">Robot::sharedPosition</text>
</a>
</g>
</g>
<!-- Node16&#45;&gt;Node28 -->
<g id="edge34" class="edge">
<title>Node16&#45;&gt;Node28</title>
<path fill="none" stroke="midnightblue" d="M263.05,-157.26C282.43,-141.4 323.3,-110.07 363,-93 368.85,-90.48 375.08,-88.28 381.4,-86.34"/>
<polygon fill="midnightblue" stroke="midnightblue" points="382.68,-89.62 391.35,-83.53 380.77,-82.88 382.68,-89.62"/>
</g>
<!-- Node17&#45;&gt;Node5 -->
<g id="edge20" class="edge">
<title>Node17&#45;&gt;Node5</title>
<path fill="none" stroke="midnightblue" d="M498.53,-258.56C509.48,-262.02 520.58,-266.7 530,-273 551.29,-287.24 546.04,-301.95 566,-318 579.43,-328.81 596.26,-337.71 611.1,-344.35"/>
<polygon fill="midnightblue" stroke="midnightblue" points="609.93,-347.65 620.5,-348.38 612.69,-341.22 609.93,-347.65"/>
</g>
<!-- Node17&#45;&gt;Node7 -->
<g id="edge28" class="edge">
<title>Node17&#45;&gt;Node7</title>
<path fill="none" stroke="midnightblue" d="M529.17,-249.42C664.06,-250.86 921.78,-257.01 954,-283 999,-319.29 948.28,-367.98 990,-408 995.32,-413.11 1001.78,-416.92 1008.68,-419.74"/>
<polygon fill="midnightblue" stroke="midnightblue" points="1007.69,-423.1 1018.28,-423.02 1009.95,-416.48 1007.69,-423.1"/>
</g>
<!-- Node17&#45;&gt;Node8 -->
<g id="edge31" class="edge">
<title>Node17&#45;&gt;Node8</title>
<path fill="none" stroke="midnightblue" d="M529.08,-240.64C652.8,-229.36 881.18,-214.39 954,-249 961.01,-252.33 1025.45,-334.35 1054.23,-371.28"/>
<polygon fill="midnightblue" stroke="midnightblue" points="1051.51,-373.48 1060.41,-379.22 1057.03,-369.18 1051.51,-373.48"/>
</g>
<!-- Node18 -->
<g id="node18" class="node">
<title>Node18</title>
<g id="a_node18"><a xlink:href="classlogs_1_1Logger.html#a7dffc8f610014ec59b63392da16140e4" target="_top" xlink:title="Trace un message de niveau DEBUG.">
<polygon fill="white" stroke="black" points="592,-480.5 592,-499.5 704,-499.5 704,-480.5 592,-480.5"/>
<text text-anchor="middle" x="648" y="-487.5" font-family="Helvetica,sans-Serif" font-size="10.00">logs::Logger::debug</text>
</a>
</g>
</g>
<!-- Node17&#45;&gt;Node18 -->
<g id="edge18" class="edge">
<title>Node17&#45;&gt;Node18</title>
<path fill="none" stroke="midnightblue" d="M469.62,-258.51C488.6,-267.84 515.17,-283.87 530,-306 571.79,-368.35 513.34,-417.51 566,-471 570.59,-475.66 576.09,-479.27 582.03,-482.05"/>
<polygon fill="midnightblue" stroke="midnightblue" points="581.08,-485.43 591.67,-485.77 583.6,-478.9 581.08,-485.43"/>
</g>
<!-- Node19 -->
<g id="node19" class="node">
<title>Node19</title>
<g id="a_node19"><a xlink:href="classCommandManagerA.html#a3d4499244b1f7548c0889974a16b402b" target="_top" xlink:title=" ">
<polygon fill="white" stroke="black" points="766,-292 766,-322 954,-322 954,-292 766,-292"/>
<text text-anchor="start" x="774" y="-310" font-family="Helvetica,sans-Serif" font-size="10.00">CommandManagerA::getCommand</text>
<text text-anchor="middle" x="860" y="-299" font-family="Helvetica,sans-Serif" font-size="10.00">Status</text>
</a>
</g>
</g>
<!-- Node17&#45;&gt;Node19 -->
<g id="edge21" class="edge">
<title>Node17&#45;&gt;Node19</title>
<path fill="none" stroke="midnightblue" d="M482.52,-258.54C505.98,-264.62 537.65,-272.22 566,-277 628.67,-287.57 699.55,-294.94 755.9,-299.74"/>
<polygon fill="midnightblue" stroke="midnightblue" points="755.63,-303.23 765.88,-300.57 756.21,-296.25 755.63,-303.23"/>
</g>
<!-- Node20 -->
<g id="node20" class="node">
<title>Node20</title>
<g id="a_node20"><a xlink:href="classOdometrie.html#abc6576337993c68f587df8ca4b3602f9" target="_top" xlink:title=" ">
<polygon fill="white" stroke="black" points="589,-101.5 589,-120.5 707,-120.5 707,-101.5 589,-101.5"/>
<text text-anchor="middle" x="648" y="-108.5" font-family="Helvetica,sans-Serif" font-size="10.00">Odometrie::getTheta</text>
</a>
</g>
</g>
<!-- Node17&#45;&gt;Node20 -->
<g id="edge22" class="edge">
<title>Node17&#45;&gt;Node20</title>
<path fill="none" stroke="midnightblue" d="M515.6,-239.39C520.82,-236.89 525.71,-233.8 530,-230 565.33,-198.65 530.73,-161.42 566,-130 569.94,-126.49 574.41,-123.59 579.18,-121.2"/>
<polygon fill="midnightblue" stroke="midnightblue" points="580.78,-124.33 588.64,-117.22 578.07,-117.87 580.78,-124.33"/>
</g>
<!-- Node21 -->
<g id="node21" class="node">
<title>Node21</title>
<g id="a_node21"><a xlink:href="classOdometrie.html#a4e35405c76f7c939f143f2d07a969e23" target="_top" xlink:title=" ">
<polygon fill="white" stroke="black" points="590,-139.5 590,-158.5 706,-158.5 706,-139.5 590,-139.5"/>
<text text-anchor="middle" x="648" y="-146.5" font-family="Helvetica,sans-Serif" font-size="10.00">Odometrie::getXmm</text>
</a>
</g>
</g>
<!-- Node17&#45;&gt;Node21 -->
<g id="edge23" class="edge">
<title>Node17&#45;&gt;Node21</title>
<path fill="none" stroke="midnightblue" d="M512.82,-239.39C518.94,-236.92 524.8,-233.84 530,-230 555.64,-211.09 540.4,-186.97 566,-168 570.43,-164.72 575.33,-162 580.47,-159.74"/>
<polygon fill="midnightblue" stroke="midnightblue" points="581.82,-162.97 589.93,-156.15 579.34,-156.42 581.82,-162.97"/>
</g>
<!-- Node24 -->
<g id="node24" class="node">
<title>Node24</title>
<g id="a_node24"><a xlink:href="classOdometrie.html#a349119b93cb97e0ef586fbf78e43b823" target="_top" xlink:title=" ">
<polygon fill="white" stroke="black" points="590,-177.5 590,-196.5 706,-196.5 706,-177.5 590,-177.5"/>
<text text-anchor="middle" x="648" y="-184.5" font-family="Helvetica,sans-Serif" font-size="10.00">Odometrie::getYmm</text>
</a>
</g>
</g>
<!-- Node17&#45;&gt;Node24 -->
<g id="edge26" class="edge">
<title>Node17&#45;&gt;Node24</title>
<path fill="none" stroke="midnightblue" d="M498.28,-239.49C508.91,-236.89 519.94,-233.74 530,-230 546.96,-223.69 549.25,-217.83 566,-211 576.5,-206.72 588.05,-202.84 599.06,-199.5"/>
<polygon fill="midnightblue" stroke="midnightblue" points="600.35,-202.77 608.96,-196.59 598.38,-196.05 600.35,-202.77"/>
</g>
<!-- Node25 -->
<g id="node25" class="node">
<title>Node25</title>
<g id="a_node25"><a xlink:href="classAsservEsialR.html#a7d6428bb79534a27e2b8b2e1baae943b" target="_top" xlink:title="Retourne le Logger associe a la classe AsservEsialR.">
<polygon fill="white" stroke="black" points="590,-63.5 590,-82.5 706,-82.5 706,-63.5 590,-63.5"/>
<text text-anchor="middle" x="648" y="-70.5" font-family="Helvetica,sans-Serif" font-size="10.00">AsservEsialR::logger</text>
</a>
</g>
</g>
<!-- Node17&#45;&gt;Node25 -->
<g id="edge29" class="edge">
<title>Node17&#45;&gt;Node25</title>
<path fill="none" stroke="midnightblue" d="M516.76,-239.4C521.6,-236.88 526.1,-233.79 530,-230 575.46,-185.83 520.63,-136.26 566,-92 570.24,-87.86 575.2,-84.57 580.54,-81.94"/>
<polygon fill="midnightblue" stroke="midnightblue" points="581.9,-85.17 589.82,-78.14 579.24,-78.69 581.9,-85.17"/>
</g>
<!-- Node18&#45;&gt;Node9 -->
<g id="edge19" class="edge">
<title>Node18&#45;&gt;Node9</title>
<path fill="none" stroke="midnightblue" d="M704.25,-496.24C713.61,-499.26 722.65,-503.66 730,-510 761.98,-537.62 731.67,-573.36 766,-598 840.94,-651.8 955.17,-640.73 1019.53,-628.47"/>
<polygon fill="midnightblue" stroke="midnightblue" points="1020.29,-631.89 1029.41,-626.51 1018.92,-625.03 1020.29,-631.89"/>
</g>
<!-- Node22 -->
<g id="node22" class="node">
<title>Node22</title>
<g id="a_node22"><a xlink:href="classUtils.html#a2609842761c1ddb62fa9e06f92ad9099" target="_top" xlink:title=" ">
<polygon fill="white" stroke="black" points="815,-177.5 815,-196.5 905,-196.5 905,-177.5 815,-177.5"/>
<text text-anchor="middle" x="860" y="-184.5" font-family="Helvetica,sans-Serif" font-size="10.00">Utils::UOTomm</text>
</a>
</g>
</g>
<!-- Node21&#45;&gt;Node22 -->
<g id="edge24" class="edge">
<title>Node21&#45;&gt;Node22</title>
<path fill="none" stroke="midnightblue" d="M701.72,-158.54C733.19,-164.23 773.06,-171.45 804.78,-177.19"/>
<polygon fill="midnightblue" stroke="midnightblue" points="804.31,-180.66 814.78,-179 805.56,-173.77 804.31,-180.66"/>
</g>
<!-- Node23 -->
<g id="node23" class="node">
<title>Node23</title>
<g id="a_node23"><a xlink:href="classOdometrie.html#a97f3023787b53a05f789770a56a791be" target="_top" xlink:title=" ">
<polygon fill="white" stroke="black" points="990,-259.5 990,-278.5 1148,-278.5 1148,-259.5 990,-259.5"/>
<text text-anchor="middle" x="1069" y="-266.5" font-family="Helvetica,sans-Serif" font-size="10.00">Odometrie::getFrontParMetre</text>
</a>
</g>
</g>
<!-- Node22&#45;&gt;Node23 -->
<g id="edge25" class="edge">
<title>Node22&#45;&gt;Node23</title>
<path fill="none" stroke="midnightblue" d="M905.14,-196.3C920.8,-200.15 938.4,-205.1 954,-211 985.8,-223.03 1020.35,-241.42 1042.98,-254.26"/>
<polygon fill="midnightblue" stroke="midnightblue" points="1041.49,-257.44 1051.9,-259.38 1044.97,-251.37 1041.49,-257.44"/>
</g>
<!-- Node24&#45;&gt;Node22 -->
<g id="edge27" class="edge">
<title>Node24&#45;&gt;Node22</title>
<path fill="none" stroke="midnightblue" d="M706.11,-187C736.74,-187 774.31,-187 804.53,-187"/>
<polygon fill="midnightblue" stroke="midnightblue" points="804.89,-190.5 814.89,-187 804.89,-183.5 804.89,-190.5"/>
</g>
<!-- Node25&#45;&gt;Node12 -->
<g id="edge30" class="edge">
<title>Node25&#45;&gt;Node12</title>
<path fill="none" stroke="midnightblue" d="M706.11,-67.83C733.37,-65.37 766.11,-62.4 794.28,-59.86"/>
<polygon fill="midnightblue" stroke="midnightblue" points="794.8,-63.32 804.44,-58.94 794.16,-56.35 794.8,-63.32"/>
</g>
<!-- Node30&#45;&gt;Node2 -->
<g id="edge37" class="edge">
<title>Node30&#45;&gt;Node2</title>
<path fill="none" stroke="midnightblue" d="M255.28,-420.85C266.73,-449.26 303.9,-531.94 363,-572 365.95,-574 369.08,-575.79 372.33,-577.39"/>
<polygon fill="midnightblue" stroke="midnightblue" points="371.18,-580.71 381.75,-581.44 373.94,-574.28 371.18,-580.71"/>
</g>
<!-- Node30&#45;&gt;Node4 -->
<g id="edge38" class="edge">
<title>Node30&#45;&gt;Node4</title>
<path fill="none" stroke="midnightblue" d="M260.7,-420.6C275.05,-435.65 303.55,-465.77 327,-492 343.39,-510.33 341.97,-521.27 363,-534 366.61,-536.18 370.44,-538.12 374.41,-539.83"/>
<polygon fill="midnightblue" stroke="midnightblue" points="373.26,-543.14 383.85,-543.43 375.76,-536.6 373.26,-543.14"/>
</g>
<!-- Node30&#45;&gt;Node5 -->
<g id="edge41" class="edge">
<title>Node30&#45;&gt;Node5</title>
<path fill="none" stroke="midnightblue" d="M282.43,-401.44C304.64,-394.95 335.4,-386.72 363,-382 449.37,-367.23 552.15,-361.41 607.3,-359.22"/>
<polygon fill="midnightblue" stroke="midnightblue" points="607.49,-362.72 617.35,-358.85 607.23,-355.73 607.49,-362.72"/>
</g>
<!-- Node30&#45;&gt;Node11 -->
<g id="edge42" class="edge">
<title>Node30&#45;&gt;Node11</title>
<path fill="none" stroke="midnightblue" d="M254.47,-401.28C264.36,-370.7 299.13,-275.84 363,-230 371.96,-223.57 382.75,-219.28 393.54,-216.42"/>
<polygon fill="midnightblue" stroke="midnightblue" points="394.41,-219.81 403.39,-214.18 392.86,-212.99 394.41,-219.81"/>
</g>
<!-- Node30&#45;&gt;Node18 -->
<g id="edge39" class="edge">
<title>Node30&#45;&gt;Node18</title>
<path fill="none" stroke="midnightblue" d="M269.86,-420.68C291.51,-431.63 328.85,-449.08 363,-458 436.48,-477.2 523.61,-484.88 581.81,-487.95"/>
<polygon fill="midnightblue" stroke="midnightblue" points="581.81,-491.46 591.97,-488.46 582.16,-484.46 581.81,-491.46"/>
</g>
<!-- Node30&#45;&gt;Node29 -->
<g id="edge43" class="edge">
<title>Node30&#45;&gt;Node29</title>
<path fill="none" stroke="midnightblue" d="M266.11,-401.47C286.92,-388.23 326.61,-364.18 363,-349 373.43,-344.65 384.92,-340.77 395.93,-337.46"/>
<polygon fill="midnightblue" stroke="midnightblue" points="397.22,-340.73 405.85,-334.59 395.27,-334.01 397.22,-340.73"/>
</g>
<!-- Node31 -->
<g id="node31" class="node">
<title>Node31</title>
<g id="a_node31"><a xlink:href="classAsserv.html#abe96bea917f0f8bca3f77cf82902dcc1" target="_top" xlink:title=" ">
<polygon fill="white" stroke="black" points="395.5,-391.5 395.5,-410.5 497.5,-410.5 497.5,-391.5 395.5,-391.5"/>
<text text-anchor="middle" x="446.5" y="-398.5" font-family="Helvetica,sans-Serif" font-size="10.00">Asserv::degToRad</text>
</a>
</g>
</g>
<!-- Node30&#45;&gt;Node31 -->
<g id="edge40" class="edge">
<title>Node30&#45;&gt;Node31</title>
<path fill="none" stroke="midnightblue" d="M327.06,-407.11C346.36,-406.11 366.85,-405.05 385.27,-404.1"/>
<polygon fill="midnightblue" stroke="midnightblue" points="385.46,-407.6 395.27,-403.59 385.1,-400.61 385.46,-407.6"/>
</g>
<!-- Node32 -->
<g id="node32" class="node">
<title>Node32</title>
<g id="a_node32"><a xlink:href="classAsserv.html#a1405746fd8b2486724eec8baf4e72f74" target="_top" xlink:title=" ">
<polygon fill="white" stroke="black" points="364.5,-429.5 364.5,-448.5 528.5,-448.5 528.5,-429.5 364.5,-429.5"/>
<text text-anchor="middle" x="446.5" y="-436.5" font-family="Helvetica,sans-Serif" font-size="10.00">Asserv::setMatchColorPosition</text>
</a>
</g>
</g>
<!-- Node30&#45;&gt;Node32 -->
<g id="edge44" class="edge">
<title>Node30&#45;&gt;Node32</title>
<path fill="none" stroke="midnightblue" d="M317.45,-420.52C334.16,-422.93 352.25,-425.54 369.42,-428.02"/>
<polygon fill="midnightblue" stroke="midnightblue" points="369.01,-431.5 379.4,-429.46 370.01,-424.57 369.01,-431.5"/>
</g>
<!-- Node33 -->
<g id="node33" class="node">
<title>Node33</title>
<g id="a_node33"><a xlink:href="classAsserv.html#abe526ad31d80f46598cdbb031a83a906" target="_top" xlink:title=" ">
<polygon fill="white" stroke="black" points="381,-505.5 381,-524.5 512,-524.5 512,-505.5 381,-505.5"/>
<text text-anchor="middle" x="446.5" y="-512.5" font-family="Helvetica,sans-Serif" font-size="10.00">Asserv::setPositionReal</text>
</a>
</g>
</g>
<!-- Node30&#45;&gt;Node33 -->
<g id="edge45" class="edge">
<title>Node30&#45;&gt;Node33</title>
<path fill="none" stroke="midnightblue" d="M262.09,-420.52C281.03,-437.09 322.51,-471.3 363,-491 372.35,-495.55 382.73,-499.4 392.88,-502.6"/>
<polygon fill="midnightblue" stroke="midnightblue" points="391.92,-505.96 402.5,-505.46 393.92,-499.25 391.92,-505.96"/>
</g>
<!-- Node34 -->
<g id="node34" class="node">
<title>Node34</title>
<g id="a_node34"><a xlink:href="classAsservEsialR.html#a9b3d60c1cb5f5eabe0857b16c46432d6" target="_top" xlink:title="Definit la position courante du robot (recalage).">
<polygon fill="white" stroke="black" points="566,-442.5 566,-461.5 730,-461.5 730,-442.5 566,-442.5"/>
<text text-anchor="middle" x="648" y="-449.5" font-family="Helvetica,sans-Serif" font-size="10.00">AsservEsialR::odo_SetPosition</text>
</a>
</g>
</g>
<!-- Node33&#45;&gt;Node34 -->
<g id="edge46" class="edge">
<title>Node33&#45;&gt;Node34</title>
<path fill="none" stroke="midnightblue" d="M470.81,-505.36C494.5,-495.79 532.38,-481.14 566,-471 574.34,-468.48 583.24,-466.1 591.99,-463.92"/>
<polygon fill="midnightblue" stroke="midnightblue" points="592.85,-467.32 601.75,-461.56 591.2,-460.51 592.85,-467.32"/>
</g>
<!-- Node39 -->
<g id="node39" class="node">
<title>Node39</title>
<g id="a_node39"><a xlink:href="classAAsservDriver.html#a1980c0a6071940839bfe9782ab939db0" target="_top" xlink:title="Definit la position courante du robot (recalage).">
<polygon fill="white" stroke="black" points="593,-519 593,-549 703,-549 703,-519 593,-519"/>
<text text-anchor="start" x="601" y="-537" font-family="Helvetica,sans-Serif" font-size="10.00">AAsservDriver::odo</text>
<text text-anchor="middle" x="648" y="-526" font-family="Helvetica,sans-Serif" font-size="10.00">_SetPosition</text>
</a>
</g>
</g>
<!-- Node33&#45;&gt;Node39 -->
<g id="edge55" class="edge">
<title>Node33&#45;&gt;Node39</title>
<path fill="none" stroke="midnightblue" d="M512.27,-521.17C534.87,-523.32 560.2,-525.73 582.75,-527.88"/>
<polygon fill="midnightblue" stroke="midnightblue" points="582.61,-531.38 592.9,-528.85 583.28,-524.42 582.61,-531.38"/>
</g>
<!-- Node34&#45;&gt;Node7 -->
<g id="edge48" class="edge">
<title>Node34&#45;&gt;Node7</title>
<path fill="none" stroke="midnightblue" d="M730.09,-453.61C791.65,-454.05 878.32,-453.01 954,-446 972.46,-444.29 992.44,-441.34 1010.44,-438.27"/>
<polygon fill="midnightblue" stroke="midnightblue" points="1011.25,-441.68 1020.5,-436.5 1010.05,-434.78 1011.25,-441.68"/>
</g>
<!-- Node34&#45;&gt;Node8 -->
<g id="edge54" class="edge">
<title>Node34&#45;&gt;Node8</title>
<path fill="none" stroke="midnightblue" d="M668.74,-442.5C691.57,-432.01 730.56,-415.6 766,-408 846,-390.84 940.43,-387.53 1002.13,-387.57"/>
<polygon fill="midnightblue" stroke="midnightblue" points="1002.49,-391.07 1012.5,-387.6 1002.51,-384.07 1002.49,-391.07"/>
</g>
<!-- Node34&#45;&gt;Node19 -->
<g id="edge47" class="edge">
<title>Node34&#45;&gt;Node19</title>
<path fill="none" stroke="midnightblue" d="M660.51,-442.31C676.68,-428.48 706.76,-401.98 730,-377 747.45,-358.25 744.57,-346.02 766,-332 769.12,-329.96 772.41,-328.08 775.8,-326.36"/>
<polygon fill="midnightblue" stroke="midnightblue" points="777.37,-329.49 785.01,-322.14 774.46,-323.12 777.37,-329.49"/>
</g>
<!-- Node35 -->
<g id="node35" class="node">
<title>Node35</title>
<g id="a_node35"><a xlink:href="classUtils.html#a6bc578bdb5abe75a1fedab43d909b2b6" target="_top" xlink:title=" ">
<polygon fill="white" stroke="black" points="815,-341.5 815,-360.5 905,-360.5 905,-341.5 815,-341.5"/>
<text text-anchor="middle" x="860" y="-348.5" font-family="Helvetica,sans-Serif" font-size="10.00">Utils::mmToUO</text>
</a>
</g>
</g>
<!-- Node34&#45;&gt;Node35 -->
<g id="edge49" class="edge">
<title>Node34&#45;&gt;Node35</title>
<path fill="none" stroke="midnightblue" d="M660.86,-442.25C681.16,-426.02 724.43,-393.43 766,-375 778.27,-369.56 792.02,-365.17 805.1,-361.7"/>
<polygon fill="midnightblue" stroke="midnightblue" points="806.09,-365.06 814.94,-359.23 804.39,-358.27 806.09,-365.06"/>
</g>
<!-- Node36 -->
<g id="node36" class="node">
<title>Node36</title>
<g id="a_node36"><a xlink:href="classOdometrie.html#a1d519f6e29460da12962ad32ed68b600" target="_top" xlink:title=" ">
<polygon fill="white" stroke="black" points="801.5,-531.5 801.5,-550.5 918.5,-550.5 918.5,-531.5 801.5,-531.5"/>
<text text-anchor="middle" x="860" y="-538.5" font-family="Helvetica,sans-Serif" font-size="10.00">Odometrie::setTheta</text>
</a>
</g>
</g>
<!-- Node34&#45;&gt;Node36 -->
<g id="edge51" class="edge">
<title>Node34&#45;&gt;Node36</title>
<path fill="none" stroke="midnightblue" d="M711.14,-461.57C717.81,-464.03 724.25,-467.12 730,-471 753,-486.51 742.77,-506.82 766,-522 773.7,-527.03 782.46,-530.77 791.46,-533.55"/>
<polygon fill="midnightblue" stroke="midnightblue" points="790.71,-536.97 801.27,-536.19 792.53,-530.21 790.71,-536.97"/>
</g>
<!-- Node37 -->
<g id="node37" class="node">
<title>Node37</title>
<g id="a_node37"><a xlink:href="classOdometrie.html#a182a36acd6ada0cc666ffed7cb63ecce" target="_top" xlink:title=" ">
<polygon fill="white" stroke="black" points="812,-493.5 812,-512.5 908,-512.5 908,-493.5 812,-493.5"/>
<text text-anchor="middle" x="860" y="-500.5" font-family="Helvetica,sans-Serif" font-size="10.00">Odometrie::setX</text>
</a>
</g>
</g>
<!-- Node34&#45;&gt;Node37 -->
<g id="edge52" class="edge">
<title>Node34&#45;&gt;Node37</title>
<path fill="none" stroke="midnightblue" d="M690.23,-461.56C702.99,-464.55 717.08,-467.88 730,-471 757.01,-477.52 787.15,-484.98 811.5,-491.06"/>
<polygon fill="midnightblue" stroke="midnightblue" points="810.66,-494.46 821.21,-493.49 812.36,-487.67 810.66,-494.46"/>
</g>
<!-- Node38 -->
<g id="node38" class="node">
<title>Node38</title>
<g id="a_node38"><a xlink:href="classOdometrie.html#a3543e2a17fce781aae27247a93597c9a" target="_top" xlink:title=" ">
<polygon fill="white" stroke="black" points="812.5,-569.5 812.5,-588.5 907.5,-588.5 907.5,-569.5 812.5,-569.5"/>
<text text-anchor="middle" x="860" y="-576.5" font-family="Helvetica,sans-Serif" font-size="10.00">Odometrie::setY</text>
</a>
</g>
</g>
<!-- Node34&#45;&gt;Node38 -->
<g id="edge53" class="edge">
<title>Node34&#45;&gt;Node38</title>
<path fill="none" stroke="midnightblue" d="M714.92,-461.54C720.37,-464.04 725.5,-467.15 730,-471 762.4,-498.76 733.2,-532.71 766,-560 776.2,-568.48 789.17,-573.51 802.17,-576.42"/>
<polygon fill="midnightblue" stroke="midnightblue" points="801.61,-579.87 812.08,-578.25 802.88,-572.99 801.61,-579.87"/>
</g>
<!-- Node35&#45;&gt;Node23 -->
<g id="edge50" class="edge">
<title>Node35&#45;&gt;Node23</title>
<path fill="none" stroke="midnightblue" d="M905.29,-344.78C920.96,-341.85 938.54,-337.7 954,-332 987.57,-319.63 1023.18,-298.49 1045.5,-284.14"/>
<polygon fill="midnightblue" stroke="midnightblue" points="1047.46,-287.04 1053.92,-278.64 1043.63,-281.18 1047.46,-287.04"/>
</g>
</g>
</svg>
        <g id="navigator" transform="translate(0 0)" fill="#404254">
                <rect fill="#f2f5e9" fill-opacity="0.5" stroke="#606060" stroke-width=".5" x="0" y="0" width="60" height="60"/>
                <use id="zoomplus" xlink:href="#zoomPlus" x="17" y="9" onmousedown="handleZoom(evt,'in')"/>
                <use id="zoomminus" xlink:href="#zoomMin" x="42" y="9" onmousedown="handleZoom(evt,'out')"/>
                <use id="reset" xlink:href="#resetDef" x="30" y="36" onmousedown="handleReset()"/>
                <g id="arrowUp" xlink:href="#dirArrow" transform="translate(30 24)" onmousedown="handlePan(0,-1)">
                  <use xlink:href="#rim" fill="#404040">
                        <set attributeName="fill" to="#808080" begin="arrowUp.mouseover" end="arrowUp.mouseout"/>
                  </use>
                  <path fill="none" stroke="white" stroke-width="1.5" d="M0,-3.0v7 M-2.5,-0.5L0,-3.0L2.5,-0.5"/>
                </g>
                <g id="arrowRight" xlink:href="#dirArrow" transform="rotate(90) translate(36 -43)" onmousedown="handlePan(1,0)">
                  <use xlink:href="#rim" fill="#404040">
                        <set attributeName="fill" to="#808080" begin="arrowRight.mouseover" end="arrowRight.mouseout"/>
                  </use>
                  <path fill="none" stroke="white" stroke-width="1.5" d="M0,-3.0v7 M-2.5,-0.5L0,-3.0L2.5,-0.5"/>
                </g>
                <g id="arrowDown" xlink:href="#dirArrow" transform="rotate(180) translate(-30 -48)" onmousedown="handlePan(0,1)">
                  <use xlink:href="#rim" fill="#404040">
                        <set attributeName="fill" to="#808080" begin="arrowDown.mouseover" end="arrowDown.mouseout"/>
                  </use>
                  <path fill="none" stroke="white" stroke-width="1.5" d="M0,-3.0v7 M-2.5,-0.5L0,-3.0L2.5,-0.5"/>
                </g>
                <g id="arrowLeft" xlink:href="#dirArrow" transform="rotate(270) translate(-36 17)" onmousedown="handlePan(-1,0)">
                  <use xlink:href="#rim" fill="#404040">
                        <set attributeName="fill" to="#808080" begin="arrowLeft.mouseover" end="arrowLeft.mouseout"/>
                  </use>
                  <path fill="none" stroke="white" stroke-width="1.5" d="M0,-3.0v7 M-2.5,-0.5L0,-3.0L2.5,-0.5"/>
                </g>
        </g>
        <svg viewBox="0 0 15 15" width="100%" height="30px" preserveAspectRatio="xMaxYMin meet">
         <g id="arrow_out" transform="scale(0.3 0.3)">
          <a xlink:href="classAsserv_a314e3ff9a8a538a23d26dcb802386024_cgraph_org.svg" target="_base">
           <rect id="button" ry="5" rx="5" y="6" x="6" height="38" width="38"
                fill="#f2f5e9" fill-opacity="0.5" stroke="#606060" stroke-width="1.0"/>
           <path id="arrow"
             d="M 11.500037,31.436501 C 11.940474,20.09759 22.043105,11.32322 32.158766,21.979434 L 37.068811,17.246167 C 37.068811,17.246167 37.088388,32 37.088388,32 L 22.160133,31.978069 C 22.160133,31.978069 26.997745,27.140456 26.997745,27.140456 C 18.528582,18.264221 13.291696,25.230495 11.500037,31.436501 z"
             style="fill:#404040;"/>
          </a>
         </g>
        </svg>
</svg>
