<?xml version="1.0" encoding="UTF-8" standalone="no"?>
<!DOCTYPE svg PUBLIC "-//W3C//DTD SVG 1.1//EN"
 "http://www.w3.org/Graphics/SVG/1.1/DTD/svg11.dtd">
<!-- Generated by graphviz version 2.43.0 (0)
 -->
<!-- Title: ITimerPosixListener::name Pages: 1 -->
<svg width="1268pt" height="542pt"
 viewBox="0.00 0.00 1268.00 542.00" xmlns="http://www.w3.org/2000/svg" xmlns:xlink="http://www.w3.org/1999/xlink">
<g id="graph0" class="graph" transform="scale(1 1) rotate(0) translate(4 538)">
<title>ITimerPosixListener::name</title>
<polygon fill="white" stroke="transparent" points="-4,4 -4,-538 1264,-538 1264,4 -4,4"/>
<!-- Node1 -->
<g id="node1" class="node">
<title>Node1</title>
<g id="a_node1"><a xlink:title="Getter sur les infos permettant d&#39;identifier le timer.">
<polygon fill="#bfbfbf" stroke="black" points="1147,-246 1147,-276 1260,-276 1260,-246 1147,-246"/>
<text text-anchor="start" x="1155" y="-264" font-family="Helvetica,sans-Serif" font-size="10.00">ITimerPosixListener</text>
<text text-anchor="middle" x="1203.5" y="-253" font-family="Helvetica,sans-Serif" font-size="10.00">::name</text>
</a>
</g>
</g>
<!-- Node2 -->
<g id="node2" class="node">
<title>Node2</title>
<g id="a_node2"><a xlink:href="classLedBarTimer.html#a638a87499a35e7ce5e2423bb0696374a" target="_top" xlink:title="Constructeur de la classe.">
<polygon fill="white" stroke="black" points="959.5,-514.5 959.5,-533.5 1106.5,-533.5 1106.5,-514.5 959.5,-514.5"/>
<text text-anchor="middle" x="1033" y="-521.5" font-family="Helvetica,sans-Serif" font-size="10.00">LedBarTimer::LedBarTimer</text>
</a>
</g>
</g>
<!-- Node1&#45;&gt;Node2 -->
<g id="edge1" class="edge">
<title>Node1&#45;&gt;Node2</title>
<path fill="none" stroke="midnightblue" d="M1200.56,-286.5C1195.37,-336.28 1176.68,-446.58 1111,-505 1106.68,-508.84 1101.7,-511.94 1096.4,-514.42"/>
<polygon fill="midnightblue" stroke="midnightblue" points="1204.07,-286.58 1201.52,-276.3 1197.1,-285.93 1204.07,-286.58"/>
</g>
<!-- Node3 -->
<g id="node3" class="node">
<title>Node3</title>
<g id="a_node3"><a xlink:href="classSensorsTimer.html#a05cd5d0cb15090e02143b6fc4e715f01" target="_top" xlink:title=" ">
<polygon fill="white" stroke="black" points="955,-476.5 955,-495.5 1111,-495.5 1111,-476.5 955,-476.5"/>
<text text-anchor="middle" x="1033" y="-483.5" font-family="Helvetica,sans-Serif" font-size="10.00">SensorsTimer::SensorsTimer</text>
</a>
</g>
</g>
<!-- Node1&#45;&gt;Node3 -->
<g id="edge2" class="edge">
<title>Node1&#45;&gt;Node3</title>
<path fill="none" stroke="midnightblue" d="M1198.63,-286.2C1190.55,-329.87 1167.69,-419.51 1111,-467 1106.36,-470.89 1101.03,-474.01 1095.4,-476.5"/>
<polygon fill="midnightblue" stroke="midnightblue" points="1202.11,-286.59 1200.37,-276.14 1195.21,-285.39 1202.11,-286.59"/>
</g>
<!-- Node4 -->
<g id="node4" class="node">
<title>Node4</title>
<g id="a_node4"><a xlink:href="classServoObjectsTimer.html#a2ed2f672d0bb0537eb58487ed841803f" target="_top" xlink:title="Constructeur de la classe.">
<polygon fill="white" stroke="black" points="975,-427 975,-457 1091,-457 1091,-427 975,-427"/>
<text text-anchor="start" x="983" y="-445" font-family="Helvetica,sans-Serif" font-size="10.00">ServoObjectsTimer::</text>
<text text-anchor="middle" x="1033" y="-434" font-family="Helvetica,sans-Serif" font-size="10.00">ServoObjectsTimer</text>
</a>
</g>
</g>
<!-- Node1&#45;&gt;Node4 -->
<g id="edge3" class="edge">
<title>Node1&#45;&gt;Node4</title>
<path fill="none" stroke="midnightblue" d="M1194.24,-286.09C1181.67,-320.5 1154.47,-382.06 1111,-417 1105.08,-421.76 1098.24,-425.62 1091.12,-428.75"/>
<polygon fill="midnightblue" stroke="midnightblue" points="1197.66,-286.93 1197.68,-276.34 1191.06,-284.6 1197.66,-286.93"/>
</g>
<!-- Node5 -->
<g id="node5" class="node">
<title>Node5</title>
<g id="a_node5"><a xlink:href="classTestTimer.html#a7bd3bc501eab8acb36c03dffc677bf32" target="_top" xlink:title="Constructeur de la classe.">
<polygon fill="white" stroke="black" points="973.5,-388.5 973.5,-407.5 1092.5,-407.5 1092.5,-388.5 973.5,-388.5"/>
<text text-anchor="middle" x="1033" y="-395.5" font-family="Helvetica,sans-Serif" font-size="10.00">TestTimer::TestTimer</text>
</a>
</g>
</g>
<!-- Node1&#45;&gt;Node5 -->
<g id="edge4" class="edge">
<title>Node1&#45;&gt;Node5</title>
<path fill="none" stroke="midnightblue" d="M1190.25,-285.18C1175.27,-312.23 1147.35,-355.36 1111,-379 1105,-382.9 1098.26,-386 1091.32,-388.47"/>
<polygon fill="midnightblue" stroke="midnightblue" points="1193.35,-286.8 1195,-276.34 1187.18,-283.49 1193.35,-286.8"/>
</g>
<!-- Node6 -->
<g id="node6" class="node">
<title>Node6</title>
<g id="a_node6"><a xlink:href="classActionManagerTimer.html#a17c6563c7a6c0955c7ca2230b038d832" target="_top" xlink:title="Affiche via le logger les timers posix en cours et en attente.">
<polygon fill="white" stroke="black" points="973.5,-290 973.5,-320 1092.5,-320 1092.5,-290 973.5,-290"/>
<text text-anchor="start" x="981.5" y="-308" font-family="Helvetica,sans-Serif" font-size="10.00">ActionManagerTimer</text>
<text text-anchor="middle" x="1033" y="-297" font-family="Helvetica,sans-Serif" font-size="10.00">::debugPTimers</text>
</a>
</g>
</g>
<!-- Node1&#45;&gt;Node6 -->
<g id="edge5" class="edge">
<title>Node1&#45;&gt;Node6</title>
<path fill="none" stroke="midnightblue" d="M1137.14,-278.07C1122.12,-281.99 1106.26,-286.13 1091.6,-289.96"/>
<polygon fill="midnightblue" stroke="midnightblue" points="1138.07,-281.44 1146.86,-275.53 1136.3,-274.67 1138.07,-281.44"/>
</g>
<!-- Node9 -->
<g id="node9" class="node">
<title>Node9</title>
<g id="a_node9"><a xlink:href="classActionManagerTimer.html#a8eb81df877c40053d71f659265882058" target="_top" xlink:title="Execute l&#39;ensemble des actions enregistrees.">
<polygon fill="white" stroke="black" points="769.5,-241 769.5,-271 888.5,-271 888.5,-241 769.5,-241"/>
<text text-anchor="start" x="777.5" y="-259" font-family="Helvetica,sans-Serif" font-size="10.00">ActionManagerTimer</text>
<text text-anchor="middle" x="829" y="-248" font-family="Helvetica,sans-Serif" font-size="10.00">::execute</text>
</a>
</g>
</g>
<!-- Node1&#45;&gt;Node9 -->
<g id="edge8" class="edge">
<title>Node1&#45;&gt;Node9</title>
<path fill="none" stroke="midnightblue" d="M1136.66,-260.12C1066.36,-259.17 956,-257.69 888.61,-256.79"/>
<polygon fill="midnightblue" stroke="midnightblue" points="1136.69,-263.62 1146.73,-260.25 1136.78,-256.62 1136.69,-263.62"/>
</g>
<!-- Node10 -->
<g id="node10" class="node">
<title>Node10</title>
<g id="a_node10"><a xlink:href="classActionManagerTimer.html#a1d13444da59d96cb4a127fbcea4075c7" target="_top" xlink:title="Trouve un timer posix specifique.">
<polygon fill="white" stroke="black" points="973.5,-153 973.5,-183 1092.5,-183 1092.5,-153 973.5,-153"/>
<text text-anchor="start" x="981.5" y="-171" font-family="Helvetica,sans-Serif" font-size="10.00">ActionManagerTimer</text>
<text text-anchor="middle" x="1033" y="-160" font-family="Helvetica,sans-Serif" font-size="10.00">::findPTimer</text>
</a>
</g>
</g>
<!-- Node1&#45;&gt;Node10 -->
<g id="edge9" class="edge">
<title>Node1&#45;&gt;Node10</title>
<path fill="none" stroke="midnightblue" d="M1177.71,-239.08C1160.09,-224.41 1135.33,-205.56 1111,-193 1103.76,-189.26 1095.84,-185.93 1087.93,-183.02"/>
<polygon fill="midnightblue" stroke="midnightblue" points="1175.86,-242.1 1185.75,-245.9 1180.39,-236.76 1175.86,-242.1"/>
</g>
<!-- Node13 -->
<g id="node13" class="node">
<title>Node13</title>
<g id="a_node13"><a xlink:href="classTestTimer.html#a304cc842e688910a2e05b38e69d6e329" target="_top" xlink:title="Retourne la description de l&#39;action.">
<polygon fill="white" stroke="black" points="988.5,-114.5 988.5,-133.5 1077.5,-133.5 1077.5,-114.5 988.5,-114.5"/>
<text text-anchor="middle" x="1033" y="-121.5" font-family="Helvetica,sans-Serif" font-size="10.00">TestTimer::info</text>
</a>
</g>
</g>
<!-- Node1&#45;&gt;Node13 -->
<g id="edge12" class="edge">
<title>Node1&#45;&gt;Node13</title>
<path fill="none" stroke="midnightblue" d="M1189.94,-236.76C1174.82,-209.98 1146.91,-167.56 1111,-144 1101.07,-137.48 1089.12,-133.09 1077.63,-130.13"/>
<polygon fill="midnightblue" stroke="midnightblue" points="1187.05,-238.76 1194.93,-245.85 1193.19,-235.4 1187.05,-238.76"/>
</g>
<!-- Node16 -->
<g id="node16" class="node">
<title>Node16</title>
<g id="a_node16"><a xlink:href="classLedBarTimer.html#aac6060f16bfc4fac7aba78c0463c24bf" target="_top" xlink:title="nom du timer.">
<polygon fill="white" stroke="black" points="981,-76.5 981,-95.5 1085,-95.5 1085,-76.5 981,-76.5"/>
<text text-anchor="middle" x="1033" y="-83.5" font-family="Helvetica,sans-Serif" font-size="10.00">LedBarTimer::info</text>
</a>
</g>
</g>
<!-- Node1&#45;&gt;Node16 -->
<g id="edge15" class="edge">
<title>Node1&#45;&gt;Node16</title>
<path fill="none" stroke="midnightblue" d="M1194.78,-236C1182.69,-201.16 1155.92,-138.53 1111,-105 1103.39,-99.32 1094.28,-95.32 1085.05,-92.51"/>
<polygon fill="midnightblue" stroke="midnightblue" points="1191.58,-237.47 1198.06,-245.86 1198.22,-235.26 1191.58,-237.47"/>
</g>
<!-- Node17 -->
<g id="node17" class="node">
<title>Node17</title>
<g id="a_node17"><a xlink:href="classSensorsTimer.html#a209ba3c781ee821deb2ac082cb98e297" target="_top" xlink:title=" ">
<polygon fill="white" stroke="black" points="979,-38.5 979,-57.5 1087,-57.5 1087,-38.5 979,-38.5"/>
<text text-anchor="middle" x="1033" y="-45.5" font-family="Helvetica,sans-Serif" font-size="10.00">SensorsTimer::info</text>
</a>
</g>
</g>
<!-- Node1&#45;&gt;Node17 -->
<g id="edge16" class="edge">
<title>Node1&#45;&gt;Node17</title>
<path fill="none" stroke="midnightblue" d="M1197.91,-236.07C1188.92,-194.48 1164.94,-111.16 1111,-67 1104.07,-61.33 1095.7,-57.32 1087.06,-54.48"/>
<polygon fill="midnightblue" stroke="midnightblue" points="1194.5,-236.83 1199.93,-245.93 1201.36,-235.43 1194.5,-236.83"/>
</g>
<!-- Node18 -->
<g id="node18" class="node">
<title>Node18</title>
<g id="a_node18"><a xlink:href="classServoObjectsTimer.html#a1ee07c509698dc08dcfefa932fc89ec7" target="_top" xlink:title="nom du timer.">
<polygon fill="white" stroke="black" points="966,-0.5 966,-19.5 1100,-19.5 1100,-0.5 966,-0.5"/>
<text text-anchor="middle" x="1033" y="-7.5" font-family="Helvetica,sans-Serif" font-size="10.00">ServoObjectsTimer::info</text>
</a>
</g>
</g>
<!-- Node1&#45;&gt;Node18 -->
<g id="edge17" class="edge">
<title>Node1&#45;&gt;Node18</title>
<path fill="none" stroke="midnightblue" d="M1200.03,-235.74C1193.96,-187.9 1173.89,-84 1111,-29 1106.65,-25.19 1101.65,-22.12 1096.34,-19.65"/>
<polygon fill="midnightblue" stroke="midnightblue" points="1196.57,-236.31 1201.21,-245.84 1203.53,-235.5 1196.57,-236.31"/>
</g>
<!-- Node19 -->
<g id="node19" class="node">
<title>Node19</title>
<g id="a_node19"><a xlink:href="classITimerPosixListener.html#a89083ecb392fa2f81b4951ba0e2ba824" target="_top" xlink:title=" ">
<polygon fill="white" stroke="black" points="976.5,-202 976.5,-232 1089.5,-232 1089.5,-202 976.5,-202"/>
<text text-anchor="start" x="984.5" y="-220" font-family="Helvetica,sans-Serif" font-size="10.00">ITimerPosixListener</text>
<text text-anchor="middle" x="1033" y="-209" font-family="Helvetica,sans-Serif" font-size="10.00">::startTimer</text>
</a>
</g>
</g>
<!-- Node1&#45;&gt;Node19 -->
<g id="edge18" class="edge">
<title>Node1&#45;&gt;Node19</title>
<path fill="none" stroke="midnightblue" d="M1136.76,-243.83C1121.16,-239.76 1104.68,-235.46 1089.58,-231.51"/>
<polygon fill="midnightblue" stroke="midnightblue" points="1136.3,-247.33 1146.86,-246.47 1138.07,-240.56 1136.3,-247.33"/>
</g>
<!-- Node20 -->
<g id="node20" class="node">
<title>Node20</title>
<g id="a_node20"><a xlink:href="classActionManagerTimer.html#a77bc841824ad1722363dd29a351a74cf" target="_top" xlink:title="Arrete un timer posix specifique. Permet d&#39;executer son action de fin puis le supprime de la liste.">
<polygon fill="white" stroke="black" points="973.5,-339 973.5,-369 1092.5,-369 1092.5,-339 973.5,-339"/>
<text text-anchor="start" x="981.5" y="-357" font-family="Helvetica,sans-Serif" font-size="10.00">ActionManagerTimer</text>
<text text-anchor="middle" x="1033" y="-346" font-family="Helvetica,sans-Serif" font-size="10.00">::stopPTimer</text>
</a>
</g>
</g>
<!-- Node1&#45;&gt;Node20 -->
<g id="edge20" class="edge">
<title>Node1&#45;&gt;Node20</title>
<path fill="none" stroke="midnightblue" d="M1178.13,-283.08C1160.54,-298.06 1135.64,-317.35 1111,-330 1104.52,-333.32 1097.5,-336.29 1090.42,-338.9"/>
<polygon fill="midnightblue" stroke="midnightblue" points="1180.89,-285.32 1186.15,-276.12 1176.3,-280.04 1180.89,-285.32"/>
</g>
<!-- Node7 -->
<g id="node7" class="node">
<title>Node7</title>
<g id="a_node7"><a xlink:href="classtest_1_1ActionManagerTimerManualTest.html#a855c2cedf0a1cc5a87266dc9bf97f39f" target="_top" xlink:title=" ">
<polygon fill="white" stroke="black" points="748.5,-339 748.5,-369 909.5,-369 909.5,-339 748.5,-339"/>
<text text-anchor="start" x="756.5" y="-357" font-family="Helvetica,sans-Serif" font-size="10.00">test::ActionManagerTimer</text>
<text text-anchor="middle" x="829" y="-346" font-family="Helvetica,sans-Serif" font-size="10.00">ManualTest::testExecutePosix</text>
</a>
</g>
</g>
<!-- Node6&#45;&gt;Node7 -->
<g id="edge6" class="edge">
<title>Node6&#45;&gt;Node7</title>
<path fill="none" stroke="midnightblue" d="M963.55,-321.61C940.38,-327.23 914.65,-333.47 892.01,-338.96"/>
<polygon fill="midnightblue" stroke="midnightblue" points="964.41,-325 973.3,-319.24 962.76,-318.19 964.41,-325"/>
</g>
<!-- Node8 -->
<g id="node8" class="node">
<title>Node8</title>
<g id="a_node8"><a xlink:href="classtest_1_1ActionManagerTimerManualTest.html#a5dba12ac2a53c770cbaccaeea38ec81d" target="_top" xlink:title=" ">
<polygon fill="white" stroke="black" points="740.5,-290 740.5,-320 917.5,-320 917.5,-290 740.5,-290"/>
<text text-anchor="start" x="748.5" y="-308" font-family="Helvetica,sans-Serif" font-size="10.00">test::ActionManagerTimer</text>
<text text-anchor="middle" x="829" y="-297" font-family="Helvetica,sans-Serif" font-size="10.00">ManualTest::testExecutePosixBig</text>
</a>
</g>
</g>
<!-- Node6&#45;&gt;Node8 -->
<g id="edge7" class="edge">
<title>Node6&#45;&gt;Node8</title>
<path fill="none" stroke="midnightblue" d="M962.92,-305C948.39,-305 932.89,-305 917.78,-305"/>
<polygon fill="midnightblue" stroke="midnightblue" points="963.3,-308.5 973.3,-305 963.3,-301.5 963.3,-308.5"/>
</g>
<!-- Node11 -->
<g id="node11" class="node">
<title>Node11</title>
<g id="a_node11"><a xlink:href="classActions.html#a1e8c51c018c41f15fbb29566860a9c97" target="_top" xlink:title="Recherche un timer POSIX par son nom.">
<polygon fill="white" stroke="black" points="773.5,-202.5 773.5,-221.5 884.5,-221.5 884.5,-202.5 773.5,-202.5"/>
<text text-anchor="middle" x="829" y="-209.5" font-family="Helvetica,sans-Serif" font-size="10.00">Actions::findPTimer</text>
</a>
</g>
</g>
<!-- Node10&#45;&gt;Node11 -->
<g id="edge10" class="edge">
<title>Node10&#45;&gt;Node11</title>
<path fill="none" stroke="midnightblue" d="M963.37,-183.27C948.73,-186.5 933.36,-189.88 919,-193 904.64,-196.12 888.97,-199.48 874.83,-202.5"/>
<polygon fill="midnightblue" stroke="midnightblue" points="964.36,-186.63 973.37,-181.06 962.85,-179.8 964.36,-186.63"/>
</g>
<!-- Node12 -->
<g id="node12" class="node">
<title>Node12</title>
<g id="a_node12"><a xlink:href="classtest_1_1ActionManagerTimerTest.html#a4aacf49d9169942e4b64d8954ba07913" target="_top" xlink:title=" ">
<polygon fill="white" stroke="black" points="739,-153 739,-183 919,-183 919,-153 739,-153"/>
<text text-anchor="start" x="747" y="-171" font-family="Helvetica,sans-Serif" font-size="10.00">test::ActionManagerTimer</text>
<text text-anchor="middle" x="829" y="-160" font-family="Helvetica,sans-Serif" font-size="10.00">Test::testAddRemovePosixTimers</text>
</a>
</g>
</g>
<!-- Node10&#45;&gt;Node12 -->
<g id="edge11" class="edge">
<title>Node10&#45;&gt;Node12</title>
<path fill="none" stroke="midnightblue" d="M963.2,-168C949.08,-168 934.02,-168 919.3,-168"/>
<polygon fill="midnightblue" stroke="midnightblue" points="963.3,-171.5 973.3,-168 963.3,-164.5 963.3,-171.5"/>
</g>
<!-- Node14 -->
<g id="node14" class="node">
<title>Node14</title>
<g id="a_node14"><a xlink:href="classTestTimer.html#a532e1125be7feedfba995aa8cf48cff1" target="_top" xlink:title="Actions à executer pour le timer.">
<polygon fill="white" stroke="black" points="773.5,-114.5 773.5,-133.5 884.5,-133.5 884.5,-114.5 773.5,-114.5"/>
<text text-anchor="middle" x="829" y="-121.5" font-family="Helvetica,sans-Serif" font-size="10.00">TestTimer::onTimer</text>
</a>
</g>
</g>
<!-- Node13&#45;&gt;Node14 -->
<g id="edge13" class="edge">
<title>Node13&#45;&gt;Node14</title>
<path fill="none" stroke="midnightblue" d="M977.85,-124C948.96,-124 913.51,-124 884.56,-124"/>
<polygon fill="midnightblue" stroke="midnightblue" points="978.17,-127.5 988.17,-124 978.17,-120.5 978.17,-127.5"/>
</g>
<!-- Node15 -->
<g id="node15" class="node">
<title>Node15</title>
<g id="a_node15"><a xlink:href="classTestTimer.html#ade578a88b83d5cf626b1882195ac3fcb" target="_top" xlink:title="Actions de fin à executer pour le timer.">
<polygon fill="white" stroke="black" points="764.5,-76.5 764.5,-95.5 893.5,-95.5 893.5,-76.5 764.5,-76.5"/>
<text text-anchor="middle" x="829" y="-83.5" font-family="Helvetica,sans-Serif" font-size="10.00">TestTimer::onTimerEnd</text>
</a>
</g>
</g>
<!-- Node13&#45;&gt;Node15 -->
<g id="edge14" class="edge">
<title>Node13&#45;&gt;Node15</title>
<path fill="none" stroke="midnightblue" d="M978.19,-113.88C947.89,-108.18 910.26,-101.1 880.51,-95.5"/>
<polygon fill="midnightblue" stroke="midnightblue" points="977.69,-117.35 988.17,-115.75 978.99,-110.47 977.69,-117.35"/>
</g>
<!-- Node19&#45;&gt;Node9 -->
<g id="edge19" class="edge">
<title>Node19&#45;&gt;Node9</title>
<path fill="none" stroke="midnightblue" d="M966.16,-229.71C941.21,-234.53 912.98,-239.98 888.72,-244.66"/>
<polygon fill="midnightblue" stroke="midnightblue" points="967.11,-233.09 976.27,-227.76 965.79,-226.22 967.11,-233.09"/>
</g>
<!-- Node20&#45;&gt;Node7 -->
<g id="edge28" class="edge">
<title>Node20&#45;&gt;Node7</title>
<path fill="none" stroke="midnightblue" d="M963.3,-354C946,-354 927.3,-354 909.52,-354"/>
<polygon fill="midnightblue" stroke="midnightblue" points="963.3,-357.5 973.3,-354 963.3,-350.5 963.3,-357.5"/>
</g>
<!-- Node21 -->
<g id="node21" class="node">
<title>Node21</title>
<g id="a_node21"><a xlink:href="classActions.html#a0ae27b3ac9fc5d07e8da95d6b3eb130a" target="_top" xlink:title="Arrête un timer POSIX par son nom.">
<polygon fill="white" stroke="black" points="772,-437.5 772,-456.5 886,-456.5 886,-437.5 772,-437.5"/>
<text text-anchor="middle" x="829" y="-444.5" font-family="Helvetica,sans-Serif" font-size="10.00">Actions::stopPTimer</text>
</a>
</g>
</g>
<!-- Node20&#45;&gt;Node21 -->
<g id="edge21" class="edge">
<title>Node20&#45;&gt;Node21</title>
<path fill="none" stroke="midnightblue" d="M964.12,-373.25C960.94,-375.01 957.88,-376.92 955,-379 933.09,-394.82 941.7,-413.33 919,-428 909.18,-434.35 897.6,-438.61 886.1,-441.47"/>
<polygon fill="midnightblue" stroke="midnightblue" points="965.92,-376.26 973.33,-368.69 962.82,-369.99 965.92,-376.26"/>
</g>
<!-- Node28 -->
<g id="node28" class="node">
<title>Node28</title>
<g id="a_node28"><a xlink:href="classtest_1_1ActionManagerTimerTest.html#a1a651300aafe22afe87358ba243d9b05" target="_top" xlink:title=" ">
<polygon fill="white" stroke="black" points="749.5,-388 749.5,-418 908.5,-418 908.5,-388 749.5,-388"/>
<text text-anchor="start" x="757.5" y="-406" font-family="Helvetica,sans-Serif" font-size="10.00">test::ActionManagerTimer</text>
<text text-anchor="middle" x="829" y="-395" font-family="Helvetica,sans-Serif" font-size="10.00">Test::testStopPTimerByName</text>
</a>
</g>
</g>
<!-- Node20&#45;&gt;Node28 -->
<g id="edge29" class="edge">
<title>Node20&#45;&gt;Node28</title>
<path fill="none" stroke="midnightblue" d="M963.55,-370.61C940.38,-376.23 914.65,-382.47 892.01,-387.96"/>
<polygon fill="midnightblue" stroke="midnightblue" points="964.41,-374 973.3,-368.24 962.76,-367.19 964.41,-374"/>
</g>
<!-- Node22 -->
<g id="node22" class="node">
<title>Node22</title>
<g id="a_node22"><a xlink:href="classServoObjectsSystem.html#a4e38645e4e77907a617d93dd7047f81d" target="_top" xlink:title="Arrête tous les timers de servomoteurs en cours.">
<polygon fill="white" stroke="black" points="569.5,-454 569.5,-484 687.5,-484 687.5,-454 569.5,-454"/>
<text text-anchor="start" x="577.5" y="-472" font-family="Helvetica,sans-Serif" font-size="10.00">ServoObjectsSystem</text>
<text text-anchor="middle" x="628.5" y="-461" font-family="Helvetica,sans-Serif" font-size="10.00">::stopTimers</text>
</a>
</g>
</g>
<!-- Node21&#45;&gt;Node22 -->
<g id="edge22" class="edge">
<title>Node21&#45;&gt;Node22</title>
<path fill="none" stroke="midnightblue" d="M761.81,-454.34C737.77,-457 710.8,-459.99 687.52,-462.57"/>
<polygon fill="midnightblue" stroke="midnightblue" points="762.36,-457.8 771.91,-453.22 761.59,-450.84 762.36,-457.8"/>
</g>
<!-- Node23 -->
<g id="node23" class="node">
<title>Node23</title>
<g id="a_node23"><a xlink:href="classSensors.html#a85be8662515c22a100f45c4ed417fe8d" target="_top" xlink:title=" ">
<polygon fill="white" stroke="black" points="554,-415.5 554,-434.5 703,-434.5 703,-415.5 554,-415.5"/>
<text text-anchor="middle" x="628.5" y="-422.5" font-family="Helvetica,sans-Serif" font-size="10.00">Sensors::stopTimerSensors</text>
</a>
</g>
</g>
<!-- Node21&#45;&gt;Node23 -->
<g id="edge23" class="edge">
<title>Node21&#45;&gt;Node23</title>
<path fill="none" stroke="midnightblue" d="M761.96,-439.68C743.13,-437.59 722.5,-435.31 703.25,-433.17"/>
<polygon fill="midnightblue" stroke="midnightblue" points="761.59,-443.16 771.91,-440.78 762.36,-436.2 761.59,-443.16"/>
</g>
<!-- Node24 -->
<g id="node24" class="node">
<title>Node24</title>
<g id="a_node24"><a xlink:href="classOPOS6UL__ActionsExtended.html#a87bb61d89759101cac844e7c399f2f61" target="_top" xlink:title="Arrête tous les périphériques supplémentaires (capteurs, LEDs, LCD) et relâche les servos.">
<polygon fill="white" stroke="black" points="369,-410 369,-440 518,-440 518,-410 369,-410"/>
<text text-anchor="start" x="377" y="-428" font-family="Helvetica,sans-Serif" font-size="10.00">OPOS6UL_ActionsExtended</text>
<text text-anchor="middle" x="443.5" y="-417" font-family="Helvetica,sans-Serif" font-size="10.00">::stopExtra</text>
</a>
</g>
</g>
<!-- Node23&#45;&gt;Node24 -->
<g id="edge24" class="edge">
<title>Node23&#45;&gt;Node24</title>
<path fill="none" stroke="midnightblue" d="M543.61,-425C535.16,-425 526.62,-425 518.29,-425"/>
<polygon fill="midnightblue" stroke="midnightblue" points="543.86,-428.5 553.86,-425 543.86,-421.5 543.86,-428.5"/>
</g>
<!-- Node25 -->
<g id="node25" class="node">
<title>Node25</title>
<g id="a_node25"><a xlink:href="classOPOS6UL__RobotExtended.html#ac8ac2be407a78cdd62261f72226162df" target="_top" xlink:title=" ">
<polygon fill="white" stroke="black" points="177,-435 177,-465 333,-465 333,-435 177,-435"/>
<text text-anchor="start" x="185" y="-453" font-family="Helvetica,sans-Serif" font-size="10.00">OPOS6UL_RobotExtended</text>
<text text-anchor="middle" x="255" y="-442" font-family="Helvetica,sans-Serif" font-size="10.00">::~OPOS6UL_RobotExtended</text>
</a>
</g>
</g>
<!-- Node24&#45;&gt;Node25 -->
<g id="edge25" class="edge">
<title>Node24&#45;&gt;Node25</title>
<path fill="none" stroke="midnightblue" d="M358.83,-436.22C350.28,-437.36 341.63,-438.52 333.16,-439.66"/>
<polygon fill="midnightblue" stroke="midnightblue" points="359.34,-439.68 368.79,-434.88 358.41,-432.74 359.34,-439.68"/>
</g>
<!-- Node26 -->
<g id="node26" class="node">
<title>Node26</title>
<g id="a_node26"><a xlink:href="classOPOS6UL__RobotExtended.html#a0a997f7fd88abac1efe0083fce633649" target="_top" xlink:title="Arrête toutes les actions supplémentaires (capteurs, LEDs, servos).">
<polygon fill="white" stroke="black" points="184,-386 184,-416 326,-416 326,-386 184,-386"/>
<text text-anchor="start" x="192" y="-404" font-family="Helvetica,sans-Serif" font-size="10.00">OPOS6UL_RobotExtended</text>
<text text-anchor="middle" x="255" y="-393" font-family="Helvetica,sans-Serif" font-size="10.00">::stopExtraActions</text>
</a>
</g>
</g>
<!-- Node24&#45;&gt;Node26 -->
<g id="edge26" class="edge">
<title>Node24&#45;&gt;Node26</title>
<path fill="none" stroke="midnightblue" d="M358.83,-414.23C347.9,-412.83 336.8,-411.4 326.13,-410.03"/>
<polygon fill="midnightblue" stroke="midnightblue" points="358.43,-417.71 368.79,-415.51 359.32,-410.77 358.43,-417.71"/>
</g>
<!-- Node27 -->
<g id="node27" class="node">
<title>Node27</title>
<g id="a_node27"><a xlink:href="classO__State__WaitEndOfMatch.html#aa73613440b37c8dd42181e2e0265ae86" target="_top" xlink:title="Exécute l&#39;état d&#39;attente de fin de match.">
<polygon fill="white" stroke="black" points="0,-386 0,-416 141,-416 141,-386 0,-386"/>
<text text-anchor="start" x="8" y="-404" font-family="Helvetica,sans-Serif" font-size="10.00">O_State_WaitEndOfMatch</text>
<text text-anchor="middle" x="70.5" y="-393" font-family="Helvetica,sans-Serif" font-size="10.00">::execute</text>
</a>
</g>
</g>
<!-- Node26&#45;&gt;Node27 -->
<g id="edge27" class="edge">
<title>Node26&#45;&gt;Node27</title>
<path fill="none" stroke="midnightblue" d="M173.63,-401C162.77,-401 151.7,-401 141.05,-401"/>
<polygon fill="midnightblue" stroke="midnightblue" points="173.96,-404.5 183.96,-401 173.96,-397.5 173.96,-404.5"/>
</g>
</g>
</svg>
