<?xml version="1.0" encoding="UTF-8" standalone="no"?>
<!DOCTYPE svg PUBLIC "-//W3C//DTD SVG 1.1//EN"
 "http://www.w3.org/Graphics/SVG/1.1/DTD/svg11.dtd">
<!-- Generated by graphviz version 2.43.0 (0)
 -->
<!-- Title: CCAx12Adc::instance Pages: 1 -->
<svg width="874pt" height="610pt"
 viewBox="0.00 0.00 874.00 609.50" xmlns="http://www.w3.org/2000/svg" xmlns:xlink="http://www.w3.org/1999/xlink">
<g id="graph0" class="graph" transform="scale(1 1) rotate(0) translate(4 605.5)">
<title>CCAx12Adc::instance</title>
<polygon fill="white" stroke="transparent" points="-4,4 -4,-605.5 870,-605.5 870,4 -4,4"/>
<!-- Node1 -->
<g id="node1" class="node">
<title>Node1</title>
<g id="a_node1"><a xlink:title=" ">
<polygon fill="#bfbfbf" stroke="black" points="746,-247.5 746,-266.5 866,-266.5 866,-247.5 746,-247.5"/>
<text text-anchor="middle" x="806" y="-254.5" font-family="Helvetica,sans-Serif" font-size="10.00">CCAx12Adc::instance</text>
</a>
</g>
</g>
<!-- Node2 -->
<g id="node2" class="node">
<title>Node2</title>
<g id="a_node2"><a xlink:href="classDynamixelDriver.html#a6652b8534770759128aa2e77ddf4faa8" target="_top" xlink:title="Constructor.">
<polygon fill="white" stroke="black" points="552,-571 552,-601 710,-601 710,-571 552,-571"/>
<text text-anchor="start" x="560" y="-589" font-family="Helvetica,sans-Serif" font-size="10.00">DynamixelDriver::Dynamixel</text>
<text text-anchor="middle" x="631" y="-578" font-family="Helvetica,sans-Serif" font-size="10.00">Driver</text>
</a>
</g>
</g>
<!-- Node1&#45;&gt;Node2 -->
<g id="edge1" class="edge">
<title>Node1&#45;&gt;Node2</title>
<path fill="none" stroke="midnightblue" d="M804.38,-276.78C801.69,-329.34 787.25,-474.01 710,-556 704.23,-562.12 697.07,-567.01 689.45,-570.91"/>
<polygon fill="midnightblue" stroke="midnightblue" points="807.88,-276.9 804.81,-266.76 800.89,-276.61 807.88,-276.9"/>
</g>
<!-- Node3 -->
<g id="node3" class="node">
<title>Node3</title>
<g id="a_node3"><a xlink:href="classDynamixelDriver.html#a142a774bb716628483fa010727b84cdb" target="_top" xlink:title="Verifie si le servo est en mouvement.">
<polygon fill="white" stroke="black" points="179.5,-522.5 179.5,-541.5 336.5,-541.5 336.5,-522.5 179.5,-522.5"/>
<text text-anchor="middle" x="258" y="-529.5" font-family="Helvetica,sans-Serif" font-size="10.00">DynamixelDriver::getMoving</text>
</a>
</g>
</g>
<!-- Node1&#45;&gt;Node3 -->
<g id="edge2" class="edge">
<title>Node1&#45;&gt;Node3</title>
<path fill="none" stroke="midnightblue" d="M800.87,-276.77C791.68,-315.76 765.8,-402.81 710,-449 603.74,-536.95 434.75,-543.87 336.6,-539.16"/>
<polygon fill="midnightblue" stroke="midnightblue" points="804.36,-277.23 803.12,-266.71 797.52,-275.71 804.36,-277.23"/>
</g>
<!-- Node4 -->
<g id="node4" class="node">
<title>Node4</title>
<g id="a_node4"><a xlink:href="classDynamixelDriver.html#ae6a7d5cdcfd4bd372bf2a742b6ecaf4d" target="_top" xlink:title="Lit la position courante du servo.">
<polygon fill="white" stroke="black" points="176,-465.5 176,-484.5 340,-484.5 340,-465.5 176,-465.5"/>
<text text-anchor="middle" x="258" y="-472.5" font-family="Helvetica,sans-Serif" font-size="10.00">DynamixelDriver::getPulsePos</text>
</a>
</g>
</g>
<!-- Node1&#45;&gt;Node4 -->
<g id="edge3" class="edge">
<title>Node1&#45;&gt;Node4</title>
<path fill="none" stroke="midnightblue" d="M796.24,-275.71C781.87,-304.67 750.76,-360.59 710,-395 637.37,-456.31 608.82,-464.52 516,-485 445.8,-500.49 362.25,-492.54 309.91,-484.51"/>
<polygon fill="midnightblue" stroke="midnightblue" points="799.41,-277.19 800.62,-266.67 793.11,-274.15 799.41,-277.19"/>
</g>
<!-- Node5 -->
<g id="node5" class="node">
<title>Node5</title>
<g id="a_node5"><a xlink:href="classDynamixelDriver.html#a3f431b5c398e201834c7b018a726a7c3" target="_top" xlink:title="Lit le couple courant du servo.">
<polygon fill="white" stroke="black" points="181.5,-422.5 181.5,-441.5 334.5,-441.5 334.5,-422.5 181.5,-422.5"/>
<text text-anchor="middle" x="258" y="-429.5" font-family="Helvetica,sans-Serif" font-size="10.00">DynamixelDriver::getTorque</text>
</a>
</g>
</g>
<!-- Node1&#45;&gt;Node5 -->
<g id="edge4" class="edge">
<title>Node1&#45;&gt;Node5</title>
<path fill="none" stroke="midnightblue" d="M791.77,-274.87C775.03,-296.25 744.22,-331.69 710,-352 592.38,-421.8 429.22,-433.92 334.81,-434.36"/>
<polygon fill="midnightblue" stroke="midnightblue" points="794.76,-276.73 798.05,-266.66 789.2,-272.48 794.76,-276.73"/>
</g>
<!-- Node6 -->
<g id="node6" class="node">
<title>Node6</title>
<g id="a_node6"><a xlink:href="classIrSensor.html#ad96797601d8975a891996bb19ac7bea6" target="_top" xlink:title=" ">
<polygon fill="white" stroke="black" points="200.5,-266.5 200.5,-285.5 315.5,-285.5 315.5,-266.5 200.5,-266.5"/>
<text text-anchor="middle" x="258" y="-273.5" font-family="Helvetica,sans-Serif" font-size="10.00">IrSensor::getVoltage</text>
</a>
</g>
</g>
<!-- Node1&#45;&gt;Node6 -->
<g id="edge5" class="edge">
<title>Node1&#45;&gt;Node6</title>
<path fill="none" stroke="midnightblue" d="M735.54,-259.42C626.26,-263.22 416.29,-270.53 315.59,-274.03"/>
<polygon fill="midnightblue" stroke="midnightblue" points="735.92,-262.91 745.79,-259.06 735.67,-255.91 735.92,-262.91"/>
</g>
<!-- Node8 -->
<g id="node8" class="node">
<title>Node8</title>
<g id="a_node8"><a xlink:href="classDynamixelDriver.html#a158a5d3216643efd306c036eac270752" target="_top" xlink:title="Maintient la position courante du servo (active le couple).">
<polygon fill="white" stroke="black" points="195,-227.5 195,-246.5 321,-246.5 321,-227.5 195,-227.5"/>
<text text-anchor="middle" x="258" y="-234.5" font-family="Helvetica,sans-Serif" font-size="10.00">DynamixelDriver::hold</text>
</a>
</g>
</g>
<!-- Node1&#45;&gt;Node8 -->
<g id="edge7" class="edge">
<title>Node1&#45;&gt;Node8</title>
<path fill="none" stroke="midnightblue" d="M735.73,-254.46C628.56,-250.54 424.23,-243.05 321.4,-239.29"/>
<polygon fill="midnightblue" stroke="midnightblue" points="735.67,-257.96 745.79,-254.83 735.92,-250.97 735.67,-257.96"/>
</g>
<!-- Node9 -->
<g id="node9" class="node">
<title>Node9</title>
<g id="a_node9"><a xlink:href="classCCAx12Adc.html#ac422de853567b6e7f5b762a7d40ce2e7" target="_top" xlink:title="Retourne le Logger associé à la classe CCAx12Adc (OPOS6UL).">
<polygon fill="white" stroke="black" points="576,-323.5 576,-342.5 686,-342.5 686,-323.5 576,-323.5"/>
<text text-anchor="middle" x="631" y="-330.5" font-family="Helvetica,sans-Serif" font-size="10.00">CCAx12Adc::logger</text>
</a>
</g>
</g>
<!-- Node1&#45;&gt;Node9 -->
<g id="edge8" class="edge">
<title>Node1&#45;&gt;Node9</title>
<path fill="none" stroke="midnightblue" d="M773.89,-270.67C739.22,-285.9 684.05,-310.13 653.73,-323.45"/>
<polygon fill="midnightblue" stroke="midnightblue" points="775.34,-273.85 783.09,-266.63 772.53,-267.44 775.34,-273.85"/>
</g>
<!-- Node15 -->
<g id="node15" class="node">
<title>Node15</title>
<g id="a_node15"><a xlink:href="classDynamixelDriver.html#a16fc2b6f82b30c98bab3d64079f16360" target="_top" xlink:title="Relache le servo (desactive le couple).">
<polygon fill="white" stroke="black" points="187.5,-187.5 187.5,-206.5 328.5,-206.5 328.5,-187.5 187.5,-187.5"/>
<text text-anchor="middle" x="258" y="-194.5" font-family="Helvetica,sans-Serif" font-size="10.00">DynamixelDriver::release</text>
</a>
</g>
</g>
<!-- Node1&#45;&gt;Node15 -->
<g id="edge24" class="edge">
<title>Node1&#45;&gt;Node15</title>
<path fill="none" stroke="midnightblue" d="M735.69,-246.42C727.04,-245.21 718.32,-244.04 710,-243 575.28,-226.21 417.34,-211.16 328.64,-203.13"/>
<polygon fill="midnightblue" stroke="midnightblue" points="735.37,-249.91 745.76,-247.85 736.36,-242.98 735.37,-249.91"/>
</g>
<!-- Node16 -->
<g id="node16" class="node">
<title>Node16</title>
<g id="a_node16"><a xlink:href="classDynamixelDriver.html#ab9d0e9a3d8ef54d7bd1fee238bfb5278" target="_top" xlink:title=" ">
<polygon fill="white" stroke="black" points="176,-144.5 176,-163.5 340,-163.5 340,-144.5 176,-144.5"/>
<text text-anchor="middle" x="258" y="-151.5" font-family="Helvetica,sans-Serif" font-size="10.00">DynamixelDriver::setPulsePos</text>
</a>
</g>
</g>
<!-- Node1&#45;&gt;Node16 -->
<g id="edge25" class="edge">
<title>Node1&#45;&gt;Node16</title>
<path fill="none" stroke="midnightblue" d="M778.34,-242.51C728.56,-216.37 617.34,-162.26 516,-143 454.87,-131.38 438.15,-140.08 376,-143 364.38,-143.54 352.14,-144.39 340.12,-145.38"/>
<polygon fill="midnightblue" stroke="midnightblue" points="776.98,-245.75 787.45,-247.34 780.26,-239.57 776.98,-245.75"/>
</g>
<!-- Node17 -->
<g id="node17" class="node">
<title>Node17</title>
<g id="a_node17"><a xlink:href="classDynamixelDriver.html#a71ddbc9a7a468231b5334e95e9bd1eb3" target="_top" xlink:title=" ">
<polygon fill="white" stroke="black" points="186.5,-97.5 186.5,-116.5 329.5,-116.5 329.5,-97.5 186.5,-97.5"/>
<text text-anchor="middle" x="258" y="-104.5" font-family="Helvetica,sans-Serif" font-size="10.00">DynamixelDriver::setRate</text>
</a>
</g>
</g>
<!-- Node1&#45;&gt;Node17 -->
<g id="edge26" class="edge">
<title>Node1&#45;&gt;Node17</title>
<path fill="none" stroke="midnightblue" d="M794.86,-238.23C779.99,-212.81 749.67,-168.26 710,-148 587.82,-85.59 422.66,-89.21 329.88,-97.84"/>
<polygon fill="midnightblue" stroke="midnightblue" points="791.99,-240.26 799.95,-247.25 798.08,-236.82 791.99,-240.26"/>
</g>
<!-- Node18 -->
<g id="node18" class="node">
<title>Node18</title>
<g id="a_node18"><a xlink:href="classDynamixelDriver.html#a0dd50e159c075dc8e09a297501a5e23d" target="_top" xlink:title="Fait tourner le servo en mode moteur continu.">
<polygon fill="white" stroke="black" points="195.5,-40.5 195.5,-59.5 320.5,-59.5 320.5,-40.5 195.5,-40.5"/>
<text text-anchor="middle" x="258" y="-47.5" font-family="Helvetica,sans-Serif" font-size="10.00">DynamixelDriver::turn</text>
</a>
</g>
</g>
<!-- Node1&#45;&gt;Node18 -->
<g id="edge27" class="edge">
<title>Node1&#45;&gt;Node18</title>
<path fill="none" stroke="midnightblue" d="M799.64,-237.53C788.98,-202.86 761.57,-130.99 710,-98 588.78,-20.45 410.8,-29.16 318.87,-40.49"/>
<polygon fill="midnightblue" stroke="midnightblue" points="796.36,-238.76 802.52,-247.38 803.08,-236.8 796.36,-238.76"/>
</g>
<!-- Node19 -->
<g id="node19" class="node">
<title>Node19</title>
<g id="a_node19"><a xlink:href="classDynamixelDriver.html#ad97e88d5cb378677264ab8db5c4c9d6a" target="_top" xlink:title="Envoie un ping au servo pour verifier sa presence.">
<polygon fill="white" stroke="black" points="568,-0.5 568,-19.5 694,-19.5 694,-0.5 568,-0.5"/>
<text text-anchor="middle" x="631" y="-7.5" font-family="Helvetica,sans-Serif" font-size="10.00">DynamixelDriver::ping</text>
</a>
</g>
</g>
<!-- Node1&#45;&gt;Node19 -->
<g id="edge23" class="edge">
<title>Node1&#45;&gt;Node19</title>
<path fill="none" stroke="midnightblue" d="M802.24,-237.22C795.16,-193.92 772.28,-90.11 710,-34 702.95,-27.65 694.24,-22.97 685.24,-19.54"/>
<polygon fill="midnightblue" stroke="midnightblue" points="798.81,-237.95 803.78,-247.31 805.73,-236.89 798.81,-237.95"/>
</g>
<!-- Node7 -->
<g id="node7" class="node">
<title>Node7</title>
<g id="a_node7"><a xlink:href="classIrSensor.html#a5c391d7b0c385a748d2441e56a624498" target="_top" xlink:title=" ">
<polygon fill="white" stroke="black" points="0,-266.5 0,-285.5 140,-285.5 140,-266.5 0,-266.5"/>
<text text-anchor="middle" x="70" y="-273.5" font-family="Helvetica,sans-Serif" font-size="10.00">IrSensor::getDistanceMm</text>
</a>
</g>
</g>
<!-- Node6&#45;&gt;Node7 -->
<g id="edge6" class="edge">
<title>Node6&#45;&gt;Node7</title>
<path fill="none" stroke="midnightblue" d="M190.43,-276C174.09,-276 156.55,-276 140.09,-276"/>
<polygon fill="midnightblue" stroke="midnightblue" points="190.44,-279.5 200.44,-276 190.44,-272.5 190.44,-279.5"/>
</g>
<!-- Node10 -->
<g id="node10" class="node">
<title>Node10</title>
<g id="a_node10"><a xlink:href="classCCAx12Adc.html#ad83f5d15bd8068ee822b2d5860f3f0f3" target="_top" xlink:title=" ">
<polygon fill="white" stroke="black" points="388,-304.5 388,-323.5 504,-323.5 504,-304.5 388,-304.5"/>
<text text-anchor="middle" x="446" y="-311.5" font-family="Helvetica,sans-Serif" font-size="10.00">CCAx12Adc::getADC</text>
</a>
</g>
</g>
<!-- Node9&#45;&gt;Node10 -->
<g id="edge9" class="edge">
<title>Node9&#45;&gt;Node10</title>
<path fill="none" stroke="midnightblue" d="M565.61,-326.31C545.55,-324.23 523.58,-321.95 504.06,-319.92"/>
<polygon fill="midnightblue" stroke="midnightblue" points="565.28,-329.8 575.59,-327.35 566,-322.84 565.28,-329.8"/>
</g>
<!-- Node11 -->
<g id="node11" class="node">
<title>Node11</title>
<g id="a_node11"><a xlink:href="classCCAx12Adc.html#af95b4426fbb54ee143cbe5000d0ca5d8" target="_top" xlink:title=" ">
<polygon fill="white" stroke="black" points="377.5,-456.5 377.5,-475.5 514.5,-475.5 514.5,-456.5 377.5,-456.5"/>
<text text-anchor="middle" x="446" y="-463.5" font-family="Helvetica,sans-Serif" font-size="10.00">CCAx12Adc::readAXData</text>
</a>
</g>
</g>
<!-- Node9&#45;&gt;Node11 -->
<g id="edge11" class="edge">
<title>Node9&#45;&gt;Node11</title>
<path fill="none" stroke="midnightblue" d="M608.49,-348.63C570.37,-376.34 492.02,-433.28 460.54,-456.16"/>
<polygon fill="midnightblue" stroke="midnightblue" points="610.81,-351.28 616.84,-342.57 606.69,-345.61 610.81,-351.28"/>
</g>
<!-- Node12 -->
<g id="node12" class="node">
<title>Node12</title>
<g id="a_node12"><a xlink:href="classCCAx12Adc.html#af2c5e8ac33096b2316d35aad400e3585" target="_top" xlink:title=" ">
<polygon fill="white" stroke="black" points="383.5,-380.5 383.5,-399.5 508.5,-399.5 508.5,-380.5 383.5,-380.5"/>
<text text-anchor="middle" x="446" y="-387.5" font-family="Helvetica,sans-Serif" font-size="10.00">CCAx12Adc::setLedOff</text>
</a>
</g>
</g>
<!-- Node9&#45;&gt;Node12 -->
<g id="edge15" class="edge">
<title>Node9&#45;&gt;Node12</title>
<path fill="none" stroke="midnightblue" d="M592.79,-345.96C570.59,-353.55 541.79,-363.16 516,-371 505.3,-374.25 493.6,-377.57 482.92,-380.5"/>
<polygon fill="midnightblue" stroke="midnightblue" points="594.17,-349.19 602.49,-342.63 591.89,-342.57 594.17,-349.19"/>
</g>
<!-- Node13 -->
<g id="node13" class="node">
<title>Node13</title>
<g id="a_node13"><a xlink:href="classCCAx12Adc.html#a85d21062dfabb83ba1851341464e4ceb" target="_top" xlink:title=" ">
<polygon fill="white" stroke="black" points="383.5,-342.5 383.5,-361.5 508.5,-361.5 508.5,-342.5 383.5,-342.5"/>
<text text-anchor="middle" x="446" y="-349.5" font-family="Helvetica,sans-Serif" font-size="10.00">CCAx12Adc::setLedOn</text>
</a>
</g>
</g>
<!-- Node9&#45;&gt;Node13 -->
<g id="edge16" class="edge">
<title>Node9&#45;&gt;Node13</title>
<path fill="none" stroke="midnightblue" d="M565.5,-339.7C547.01,-341.62 526.9,-343.7 508.58,-345.61"/>
<polygon fill="midnightblue" stroke="midnightblue" points="566,-343.16 575.59,-338.65 565.28,-336.2 566,-343.16"/>
</g>
<!-- Node14 -->
<g id="node14" class="node">
<title>Node14</title>
<g id="a_node14"><a xlink:href="classCCAx12Adc.html#a6a505e9a0944b62ec52f59a9ec8085fe" target="_top" xlink:title=" ">
<polygon fill="white" stroke="black" points="376,-152.5 376,-171.5 516,-171.5 516,-152.5 376,-152.5"/>
<text text-anchor="middle" x="446" y="-159.5" font-family="Helvetica,sans-Serif" font-size="10.00">CCAx12Adc::writeAXData</text>
</a>
</g>
</g>
<!-- Node9&#45;&gt;Node14 -->
<g id="edge17" class="edge">
<title>Node9&#45;&gt;Node14</title>
<path fill="none" stroke="midnightblue" d="M611.91,-316.1C573.95,-280.63 487.05,-199.42 457.25,-171.58"/>
<polygon fill="midnightblue" stroke="midnightblue" points="609.94,-319.05 619.64,-323.32 614.72,-313.93 609.94,-319.05"/>
</g>
<!-- Node10&#45;&gt;Node6 -->
<g id="edge10" class="edge">
<title>Node10&#45;&gt;Node6</title>
<path fill="none" stroke="midnightblue" d="M388.17,-302.39C361.72,-296.99 330.64,-290.64 305.6,-285.52"/>
<polygon fill="midnightblue" stroke="midnightblue" points="387.57,-305.84 398.06,-304.41 388.97,-298.98 387.57,-305.84"/>
</g>
<!-- Node11&#45;&gt;Node3 -->
<g id="edge12" class="edge">
<title>Node11&#45;&gt;Node3</title>
<path fill="none" stroke="midnightblue" d="M408.29,-479.03C372.2,-491.83 317.98,-511.07 285.78,-522.5"/>
<polygon fill="midnightblue" stroke="midnightblue" points="409.7,-482.24 417.95,-475.6 407.36,-475.64 409.7,-482.24"/>
</g>
<!-- Node11&#45;&gt;Node4 -->
<g id="edge13" class="edge">
<title>Node11&#45;&gt;Node4</title>
<path fill="none" stroke="midnightblue" d="M367.32,-469.76C358.37,-470.19 349.23,-470.63 340.23,-471.07"/>
<polygon fill="midnightblue" stroke="midnightblue" points="367.5,-473.25 377.32,-469.27 367.17,-466.26 367.5,-473.25"/>
</g>
<!-- Node11&#45;&gt;Node5 -->
<g id="edge14" class="edge">
<title>Node11&#45;&gt;Node5</title>
<path fill="none" stroke="midnightblue" d="M382.61,-454.6C359.44,-450.36 333.41,-445.6 311.24,-441.55"/>
<polygon fill="midnightblue" stroke="midnightblue" points="382.23,-458.08 392.69,-456.44 383.49,-451.2 382.23,-458.08"/>
</g>
<!-- Node14&#45;&gt;Node8 -->
<g id="edge18" class="edge">
<title>Node14&#45;&gt;Node8</title>
<path fill="none" stroke="midnightblue" d="M420.33,-176.67C399.49,-188.57 368.57,-205.11 340,-216 328.33,-220.45 315.35,-224.28 303.27,-227.41"/>
<polygon fill="midnightblue" stroke="midnightblue" points="422.24,-179.61 429.14,-171.57 418.74,-173.55 422.24,-179.61"/>
</g>
<!-- Node14&#45;&gt;Node15 -->
<g id="edge19" class="edge">
<title>Node14&#45;&gt;Node15</title>
<path fill="none" stroke="midnightblue" d="M384.09,-173.46C360.04,-177.99 332.72,-183.13 309.76,-187.45"/>
<polygon fill="midnightblue" stroke="midnightblue" points="384.99,-176.85 394.17,-171.56 383.7,-169.97 384.99,-176.85"/>
</g>
<!-- Node14&#45;&gt;Node16 -->
<g id="edge20" class="edge">
<title>Node14&#45;&gt;Node16</title>
<path fill="none" stroke="midnightblue" d="M365.6,-158.58C357.2,-158.22 348.66,-157.86 340.24,-157.49"/>
<polygon fill="midnightblue" stroke="midnightblue" points="365.6,-162.09 375.74,-159.02 365.9,-155.09 365.6,-162.09"/>
</g>
<!-- Node14&#45;&gt;Node17 -->
<g id="edge21" class="edge">
<title>Node14&#45;&gt;Node17</title>
<path fill="none" stroke="midnightblue" d="M402.99,-149.58C369.16,-139.57 322.3,-125.72 291.34,-116.56"/>
<polygon fill="midnightblue" stroke="midnightblue" points="402.02,-152.94 412.6,-152.42 404,-146.23 402.02,-152.94"/>
</g>
<!-- Node14&#45;&gt;Node18 -->
<g id="edge22" class="edge">
<title>Node14&#45;&gt;Node18</title>
<path fill="none" stroke="midnightblue" d="M424.84,-146.18C404.21,-130.39 370.88,-105.94 340,-88 321.2,-77.08 298.73,-66.74 282.24,-59.61"/>
<polygon fill="midnightblue" stroke="midnightblue" points="422.81,-149.04 432.86,-152.38 427.09,-143.5 422.81,-149.04"/>
</g>
</g>
</svg>
