<?xml version="1.0" encoding="UTF-8" standalone="no"?>
<!DOCTYPE svg PUBLIC "-//W3C//DTD SVG 1.1//EN"
 "http://www.w3.org/Graphics/SVG/1.1/DTD/svg11.dtd">
<!-- Generated by graphviz version 2.43.0 (0)
 -->
<!-- Title: ServoObjectsSystem::logger Pages: 1 -->
<!--zoomable 617 -->
<svg id="main" version="1.1" xmlns="http://www.w3.org/2000/svg" xmlns:xlink="http://www.w3.org/1999/xlink" xml:space="preserve" onload="init(evt)">
<style type="text/css"><![CDATA[
.edge:hover path { stroke: red; }
.edge:hover polygon { stroke: red; fill: red; }
]]></style>
<script type="text/javascript"><![CDATA[
var edges = document.getElementsByTagName('g');
if (edges && edges.length) {
  for (var i=0;i<edges.length;i++) {
    if (edges[i].id.substr(0,4)=='edge') {
      edges[i].setAttribute('class','edge');
    }
  }
}
]]></script>
        <defs>
                <circle id="rim" cx="0" cy="0" r="7"/>
                <circle id="rim2" cx="0" cy="0" r="3.5"/>
                <g id="zoomPlus">
                        <use xlink:href="#rim" fill="#404040">
                                <set attributeName="fill" to="#808080" begin="zoomplus.mouseover" end="zoomplus.mouseout"/>
                        </use>
                        <path d="M-4,0h8M0,-4v8" fill="none" stroke="white" stroke-width="1.5" pointer-events="none"/>
                </g>
                <g id="zoomMin">
                        <use xlink:href="#rim" fill="#404040">
                                <set attributeName="fill" to="#808080" begin="zoomminus.mouseover" end="zoomminus.mouseout"/>
                        </use>
                        <path d="M-4,0h8" fill="none" stroke="white" stroke-width="1.5" pointer-events="none"/>
                </g>
                <g id="dirArrow">
                        <path fill="none" stroke="white" stroke-width="1.5" d="M0,-3.0v7 M-2.5,-0.5L0,-3.0L2.5,-0.5"/>
                </g>
               <g id="resetDef">
                       <use xlink:href="#rim2" fill="#404040">
                               <set attributeName="fill" to="#808080" begin="reset.mouseover" end="reset.mouseout"/>
                       </use>
               </g>
        </defs>

<script type="text/javascript">
var viewWidth = 983;
var viewHeight = 617;
var sectionId = 'dynsection-19';
</script>
<script xlink:href="svgpan.js"/>
<svg id="graph" class="graph">
<g id="viewport">
<title>ServoObjectsSystem::logger</title>
<polygon fill="white" stroke="transparent" points="-4,4 -4,-612.5 979,-612.5 979,4 -4,4"/>
<!-- Node1 -->
<g id="node1" class="node">
<title>Node1</title>
<g id="a_node1"><a xlink:title="Retourne le Logger associé à la classe ServoObjectsSystem.">
<polygon fill="#bfbfbf" stroke="black" points="857,-269.5 857,-299.5 975,-299.5 975,-269.5 857,-269.5"/>
<text text-anchor="start" x="865" y="-287.5" font-family="Helvetica,sans-Serif" font-size="10.00">ServoObjectsSystem</text>
<text text-anchor="middle" x="916" y="-276.5" font-family="Helvetica,sans-Serif" font-size="10.00">::logger</text>
</a>
</g>
</g>
<!-- Node2 -->
<g id="node2" class="node">
<title>Node2</title>
<g id="a_node2"><a xlink:href="classServoObjectsSystem.html#a6df7e1694087d2fa67d41aeef363b3f3" target="_top" xlink:title="Déploie un servo à la position donnée.">
<polygon fill="white" stroke="black" points="703,-561.5 703,-591.5 821,-591.5 821,-561.5 703,-561.5"/>
<text text-anchor="start" x="711" y="-579.5" font-family="Helvetica,sans-Serif" font-size="10.00">ServoObjectsSystem</text>
<text text-anchor="middle" x="762" y="-568.5" font-family="Helvetica,sans-Serif" font-size="10.00">::deploy</text>
</a>
</g>
</g>
<!-- Node1&#45;&gt;Node2 -->
<g id="edge1" class="edge">
<title>Node1&#45;&gt;Node2</title>
<path fill="none" stroke="midnightblue" d="M910.05,-309.63C899.84,-356.68 872.91,-459.69 821,-530.5 812.03,-542.73 799.01,-553.46 787.57,-561.47"/>
<polygon fill="midnightblue" stroke="midnightblue" points="913.51,-310.2 912.14,-299.7 906.66,-308.77 913.51,-310.2"/>
</g>
<!-- Node4 -->
<g id="node4" class="node">
<title>Node4</title>
<g id="a_node4"><a xlink:href="classServoObjectsSystem.html#a365a1064fe865a6e081294ed124861bb" target="_top" xlink:title="Déploie un servo avec une vitesse contrôlée.">
<polygon fill="white" stroke="black" points="703,-490.5 703,-520.5 821,-520.5 821,-490.5 703,-490.5"/>
<text text-anchor="start" x="711" y="-508.5" font-family="Helvetica,sans-Serif" font-size="10.00">ServoObjectsSystem</text>
<text text-anchor="middle" x="762" y="-497.5" font-family="Helvetica,sans-Serif" font-size="10.00">::deployWithVelocity</text>
</a>
</g>
</g>
<!-- Node1&#45;&gt;Node4 -->
<g id="edge3" class="edge">
<title>Node1&#45;&gt;Node4</title>
<path fill="none" stroke="midnightblue" d="M909.36,-309.26C898.8,-350.32 872.35,-432.8 821,-481.5 817.44,-484.87 813.34,-487.8 809,-490.34"/>
<polygon fill="midnightblue" stroke="midnightblue" points="912.76,-310.08 911.76,-299.53 905.96,-308.4 912.76,-310.08"/>
</g>
<!-- Node5 -->
<g id="node5" class="node">
<title>Node5</title>
<g id="a_node5"><a xlink:href="classServoObjectsSystem.html#ab56910319decab536a3ebdd2d6ba91e5" target="_top" xlink:title="Détecte un servo spécifique.">
<polygon fill="white" stroke="black" points="703,-441.5 703,-471.5 821,-471.5 821,-441.5 703,-441.5"/>
<text text-anchor="start" x="711" y="-459.5" font-family="Helvetica,sans-Serif" font-size="10.00">ServoObjectsSystem</text>
<text text-anchor="middle" x="762" y="-448.5" font-family="Helvetica,sans-Serif" font-size="10.00">::detect</text>
</a>
</g>
</g>
<!-- Node1&#45;&gt;Node5 -->
<g id="edge4" class="edge">
<title>Node1&#45;&gt;Node5</title>
<path fill="none" stroke="midnightblue" d="M904.99,-309.25C890.76,-341.62 861.8,-398.23 821,-432.5 816.99,-435.86 812.45,-438.81 807.72,-441.38"/>
<polygon fill="midnightblue" stroke="midnightblue" points="908.38,-310.23 909.09,-299.65 901.94,-307.48 908.38,-310.23"/>
</g>
<!-- Node6 -->
<g id="node6" class="node">
<title>Node6</title>
<g id="a_node6"><a xlink:href="classServoObjectsSystem.html#a24493ce2c4405cc4df41aa036de09262" target="_top" xlink:title="Détecte tous les servos connectés au bus.">
<polygon fill="white" stroke="black" points="703,-392.5 703,-422.5 821,-422.5 821,-392.5 703,-392.5"/>
<text text-anchor="start" x="711" y="-410.5" font-family="Helvetica,sans-Serif" font-size="10.00">ServoObjectsSystem</text>
<text text-anchor="middle" x="762" y="-399.5" font-family="Helvetica,sans-Serif" font-size="10.00">::detectAll</text>
</a>
</g>
</g>
<!-- Node1&#45;&gt;Node6 -->
<g id="edge5" class="edge">
<title>Node1&#45;&gt;Node6</title>
<path fill="none" stroke="midnightblue" d="M897.51,-307.96C880.13,-329.91 851.7,-362.41 821,-383.5 816.15,-386.83 810.76,-389.83 805.29,-392.48"/>
<polygon fill="midnightblue" stroke="midnightblue" points="900.46,-309.86 903.82,-299.82 894.93,-305.57 900.46,-309.86"/>
</g>
<!-- Node7 -->
<g id="node7" class="node">
<title>Node7</title>
<g id="a_node7"><a xlink:href="classServoObjectsSystem.html#af9900bc699365da539559e7c630f70f2" target="_top" xlink:title="Retourne la vitesse actuelle d&#39;un servo.">
<polygon fill="white" stroke="black" points="703,-343.5 703,-373.5 821,-373.5 821,-343.5 703,-343.5"/>
<text text-anchor="start" x="711" y="-361.5" font-family="Helvetica,sans-Serif" font-size="10.00">ServoObjectsSystem</text>
<text text-anchor="middle" x="762" y="-350.5" font-family="Helvetica,sans-Serif" font-size="10.00">::getSpeed</text>
</a>
</g>
</g>
<!-- Node1&#45;&gt;Node7 -->
<g id="edge6" class="edge">
<title>Node1&#45;&gt;Node7</title>
<path fill="none" stroke="midnightblue" d="M879.01,-304.69C861.67,-314.15 840.47,-325.32 821,-334.5 814.59,-337.52 807.7,-340.55 800.98,-343.4"/>
<polygon fill="midnightblue" stroke="midnightblue" points="881.12,-307.52 888.2,-299.64 877.75,-301.39 881.12,-307.52"/>
</g>
<!-- Node8 -->
<g id="node8" class="node">
<title>Node8</title>
<g id="a_node8"><a xlink:href="classServoObjectsSystem.html#a60de17986f65700a7659b22edda2faef" target="_top" xlink:title="move 1 servo.">
<polygon fill="white" stroke="black" points="703,-294.5 703,-324.5 821,-324.5 821,-294.5 703,-294.5"/>
<text text-anchor="start" x="711" y="-312.5" font-family="Helvetica,sans-Serif" font-size="10.00">ServoObjectsSystem</text>
<text text-anchor="middle" x="762" y="-301.5" font-family="Helvetica,sans-Serif" font-size="10.00">::move_1_servo</text>
</a>
</g>
</g>
<!-- Node1&#45;&gt;Node8 -->
<g id="edge7" class="edge">
<title>Node1&#45;&gt;Node8</title>
<path fill="none" stroke="midnightblue" d="M846.74,-295.73C838.2,-297.13 829.54,-298.56 821.18,-299.93"/>
<polygon fill="midnightblue" stroke="midnightblue" points="847.37,-299.17 856.67,-294.09 846.23,-292.26 847.37,-299.17"/>
</g>
<!-- Node23 -->
<g id="node23" class="node">
<title>Node23</title>
<g id="a_node23"><a xlink:href="classServoObjectsSystem.html#a209d4e6a24c8cd26c76168c08e330655" target="_top" xlink:title="move 2 servos.">
<polygon fill="white" stroke="black" points="703,-245.5 703,-275.5 821,-275.5 821,-245.5 703,-245.5"/>
<text text-anchor="start" x="711" y="-263.5" font-family="Helvetica,sans-Serif" font-size="10.00">ServoObjectsSystem</text>
<text text-anchor="middle" x="762" y="-252.5" font-family="Helvetica,sans-Serif" font-size="10.00">::move_2_servos</text>
</a>
</g>
</g>
<!-- Node1&#45;&gt;Node23 -->
<g id="edge33" class="edge">
<title>Node1&#45;&gt;Node23</title>
<path fill="none" stroke="midnightblue" d="M846.74,-273.72C838.2,-272.37 829.54,-271.01 821.18,-269.69"/>
<polygon fill="midnightblue" stroke="midnightblue" points="846.24,-277.19 856.67,-275.29 847.34,-270.27 846.24,-277.19"/>
</g>
<!-- Node24 -->
<g id="node24" class="node">
<title>Node24</title>
<g id="a_node24"><a xlink:href="classServoObjectsSystem.html#a8d96f5f8ccdfb9ca69a73e523f388191" target="_top" xlink:title="Déplace 3 servos simultanément.">
<polygon fill="white" stroke="black" points="703,-196.5 703,-226.5 821,-226.5 821,-196.5 703,-196.5"/>
<text text-anchor="start" x="711" y="-214.5" font-family="Helvetica,sans-Serif" font-size="10.00">ServoObjectsSystem</text>
<text text-anchor="middle" x="762" y="-203.5" font-family="Helvetica,sans-Serif" font-size="10.00">::move_3_servos</text>
</a>
</g>
</g>
<!-- Node1&#45;&gt;Node24 -->
<g id="edge37" class="edge">
<title>Node1&#45;&gt;Node24</title>
<path fill="none" stroke="midnightblue" d="M877.34,-264.56C860.27,-255.71 839.75,-245.32 821,-236.5 813.95,-233.19 806.36,-229.79 799.05,-226.61"/>
<polygon fill="midnightblue" stroke="midnightblue" points="875.96,-267.79 886.44,-269.31 879.19,-261.58 875.96,-267.79"/>
</g>
<!-- Node25 -->
<g id="node25" class="node">
<title>Node25</title>
<g id="a_node25"><a xlink:href="classServoObjectsSystem.html#a885ad7b498315c66de65dae7149b3ea1" target="_top" xlink:title="Déplace 4 servos simultanément.">
<polygon fill="white" stroke="black" points="703,-147.5 703,-177.5 821,-177.5 821,-147.5 703,-147.5"/>
<text text-anchor="start" x="711" y="-165.5" font-family="Helvetica,sans-Serif" font-size="10.00">ServoObjectsSystem</text>
<text text-anchor="middle" x="762" y="-154.5" font-family="Helvetica,sans-Serif" font-size="10.00">::move_4_servos</text>
</a>
</g>
</g>
<!-- Node1&#45;&gt;Node25 -->
<g id="edge38" class="edge">
<title>Node1&#45;&gt;Node25</title>
<path fill="none" stroke="midnightblue" d="M897.05,-261.28C879.52,-239.86 851.16,-208.31 821,-187.5 815.68,-183.83 809.72,-180.52 803.72,-177.6"/>
<polygon fill="midnightblue" stroke="midnightblue" points="894.44,-263.62 903.43,-269.22 899.9,-259.24 894.44,-263.62"/>
</g>
<!-- Node26 -->
<g id="node26" class="node">
<title>Node26</title>
<g id="a_node26"><a xlink:href="classServoObjectsSystem.html#a39f1221512cd050bdfd985c74b39a56a" target="_top" xlink:title="Définit la vitesse d&#39;un servo.">
<polygon fill="white" stroke="black" points="703,-98.5 703,-128.5 821,-128.5 821,-98.5 703,-98.5"/>
<text text-anchor="start" x="711" y="-116.5" font-family="Helvetica,sans-Serif" font-size="10.00">ServoObjectsSystem</text>
<text text-anchor="middle" x="762" y="-105.5" font-family="Helvetica,sans-Serif" font-size="10.00">::setSpeed</text>
</a>
</g>
</g>
<!-- Node1&#45;&gt;Node26 -->
<g id="edge39" class="edge">
<title>Node1&#45;&gt;Node26</title>
<path fill="none" stroke="midnightblue" d="M904.6,-259.68C890.12,-227.77 861.06,-172.44 821,-138.5 816.57,-134.74 811.48,-131.47 806.21,-128.64"/>
<polygon fill="midnightblue" stroke="midnightblue" points="901.55,-261.43 908.79,-269.16 907.95,-258.6 901.55,-261.43"/>
</g>
<!-- Node27 -->
<g id="node27" class="node">
<title>Node27</title>
<g id="a_node27"><a xlink:href="classServoObjectsSystem.html#a9c3a5d35163d012d690f80da160b7f25" target="_top" xlink:title="setup 1 servo with type, min, mid, max, inv values.">
<polygon fill="white" stroke="black" points="703,-49.5 703,-79.5 821,-79.5 821,-49.5 703,-49.5"/>
<text text-anchor="start" x="711" y="-67.5" font-family="Helvetica,sans-Serif" font-size="10.00">ServoObjectsSystem</text>
<text text-anchor="middle" x="762" y="-56.5" font-family="Helvetica,sans-Serif" font-size="10.00">::setup</text>
</a>
</g>
</g>
<!-- Node1&#45;&gt;Node27 -->
<g id="edge40" class="edge">
<title>Node1&#45;&gt;Node27</title>
<path fill="none" stroke="midnightblue" d="M909.24,-259.56C898.58,-218.61 872.05,-136.83 821,-88.5 817.44,-85.13 813.34,-82.2 809,-79.67"/>
<polygon fill="midnightblue" stroke="midnightblue" points="905.85,-260.43 911.67,-269.28 912.64,-258.73 905.85,-260.43"/>
</g>
<!-- Node29 -->
<g id="node29" class="node">
<title>Node29</title>
<g id="a_node29"><a xlink:href="classServoObjectsSystem.html#a5e0e2b1e10cecd6254b3421f564f119d" target="_top" xlink:title="Fait tourner un servo en continu à la vitesse donnée.">
<polygon fill="white" stroke="black" points="703,-0.5 703,-30.5 821,-30.5 821,-0.5 703,-0.5"/>
<text text-anchor="start" x="711" y="-18.5" font-family="Helvetica,sans-Serif" font-size="10.00">ServoObjectsSystem</text>
<text text-anchor="middle" x="762" y="-7.5" font-family="Helvetica,sans-Serif" font-size="10.00">::turn</text>
</a>
</g>
</g>
<!-- Node1&#45;&gt;Node29 -->
<g id="edge42" class="edge">
<title>Node1&#45;&gt;Node29</title>
<path fill="none" stroke="midnightblue" d="M911.97,-259.37C904.82,-210.68 882.63,-102.75 821,-39.5 817.65,-36.07 813.74,-33.1 809.56,-30.55"/>
<polygon fill="midnightblue" stroke="midnightblue" points="908.51,-259.92 913.34,-269.35 915.44,-258.97 908.51,-259.92"/>
</g>
<!-- Node3 -->
<g id="node3" class="node">
<title>Node3</title>
<g id="a_node3"><a xlink:href="classO__ServoStepTest.html#aefbe5c17504e0782e71a6ca13ed40518" target="_top" xlink:title="Execute le test.">
<polygon fill="white" stroke="black" points="529.5,-589 529.5,-608 649.5,-608 649.5,-589 529.5,-589"/>
<text text-anchor="middle" x="589.5" y="-596" font-family="Helvetica,sans-Serif" font-size="10.00">O_ServoStepTest::run</text>
</a>
</g>
</g>
<!-- Node2&#45;&gt;Node3 -->
<g id="edge2" class="edge">
<title>Node2&#45;&gt;Node3</title>
<path fill="none" stroke="midnightblue" d="M692.58,-585.33C678.34,-587.17 663.46,-589.09 649.6,-590.87"/>
<polygon fill="midnightblue" stroke="midnightblue" points="693.33,-588.76 702.8,-584.01 692.43,-581.82 693.33,-588.76"/>
</g>
<!-- Node9 -->
<g id="node9" class="node">
<title>Node9</title>
<g id="a_node9"><a xlink:href="classOPOS6UL__ActionsExtended.html#a946560d21bc7c1a12be600b16e07c93a" target="_top" xlink:title="Déploie le bras droit en position d&#39;action.">
<polygon fill="white" stroke="black" points="515,-539.5 515,-569.5 664,-569.5 664,-539.5 515,-539.5"/>
<text text-anchor="start" x="523" y="-557.5" font-family="Helvetica,sans-Serif" font-size="10.00">OPOS6UL_ActionsExtended</text>
<text text-anchor="middle" x="589.5" y="-546.5" font-family="Helvetica,sans-Serif" font-size="10.00">::ax12_bras_droit</text>
</a>
</g>
</g>
<!-- Node8&#45;&gt;Node9 -->
<g id="edge8" class="edge">
<title>Node8&#45;&gt;Node9</title>
<path fill="none" stroke="midnightblue" d="M706.08,-331.05C704.99,-332.15 703.96,-333.29 703,-334.5 647.81,-403.77 725.68,-464.16 667,-530.5 663.96,-533.94 660.43,-536.89 656.59,-539.43"/>
<polygon fill="midnightblue" stroke="midnightblue" points="708.47,-333.62 714.01,-324.59 704.05,-328.19 708.47,-333.62"/>
</g>
<!-- Node14 -->
<g id="node14" class="node">
<title>Node14</title>
<g id="a_node14"><a xlink:href="classOPOS6UL__ActionsExtended.html#a67daef275b861004d118273c7e2564c2" target="_top" xlink:title="Place le bras droit en position initiale (replié).">
<polygon fill="white" stroke="black" points="515,-490.5 515,-520.5 664,-520.5 664,-490.5 515,-490.5"/>
<text text-anchor="start" x="523" y="-508.5" font-family="Helvetica,sans-Serif" font-size="10.00">OPOS6UL_ActionsExtended</text>
<text text-anchor="middle" x="589.5" y="-497.5" font-family="Helvetica,sans-Serif" font-size="10.00">::ax12_bras_droit_init</text>
</a>
</g>
</g>
<!-- Node8&#45;&gt;Node14 -->
<g id="edge15" class="edge">
<title>Node8&#45;&gt;Node14</title>
<path fill="none" stroke="midnightblue" d="M706.59,-330.73C705.32,-331.92 704.12,-333.18 703,-334.5 659.56,-385.86 713.02,-432.44 667,-481.5 663.76,-484.95 660.03,-487.91 656.01,-490.44"/>
<polygon fill="midnightblue" stroke="midnightblue" points="708.75,-333.48 714.52,-324.59 704.47,-327.95 708.75,-333.48"/>
</g>
<!-- Node15 -->
<g id="node15" class="node">
<title>Node15</title>
<g id="a_node15"><a xlink:href="classOPOS6UL__ActionsExtended.html#a5b32b355b6907dda48874f40dc9101eb" target="_top" xlink:title="Déploie le bras gauche en position d&#39;action.">
<polygon fill="white" stroke="black" points="515,-441.5 515,-471.5 664,-471.5 664,-441.5 515,-441.5"/>
<text text-anchor="start" x="523" y="-459.5" font-family="Helvetica,sans-Serif" font-size="10.00">OPOS6UL_ActionsExtended</text>
<text text-anchor="middle" x="589.5" y="-448.5" font-family="Helvetica,sans-Serif" font-size="10.00">::ax12_bras_gauche</text>
</a>
</g>
</g>
<!-- Node8&#45;&gt;Node15 -->
<g id="edge18" class="edge">
<title>Node8&#45;&gt;Node15</title>
<path fill="none" stroke="midnightblue" d="M707.34,-330.43C705.81,-331.71 704.36,-333.07 703,-334.5 671.1,-368.2 700.59,-400.49 667,-432.5 663.37,-435.96 659.25,-438.92 654.85,-441.45"/>
<polygon fill="midnightblue" stroke="midnightblue" points="709.39,-333.27 715.52,-324.62 705.34,-327.56 709.39,-333.27"/>
</g>
<!-- Node16 -->
<g id="node16" class="node">
<title>Node16</title>
<g id="a_node16"><a xlink:href="classOPOS6UL__ActionsExtended.html#ad3b7d5a26040d5780cc43a5a9ead9ad3" target="_top" xlink:title="Place le bras gauche en position initiale (replié).">
<polygon fill="white" stroke="black" points="515,-392.5 515,-422.5 664,-422.5 664,-392.5 515,-392.5"/>
<text text-anchor="start" x="523" y="-410.5" font-family="Helvetica,sans-Serif" font-size="10.00">OPOS6UL_ActionsExtended</text>
<text text-anchor="middle" x="589.5" y="-399.5" font-family="Helvetica,sans-Serif" font-size="10.00">::ax12_bras_gauche_init</text>
</a>
</g>
</g>
<!-- Node8&#45;&gt;Node16 -->
<g id="edge21" class="edge">
<title>Node8&#45;&gt;Node16</title>
<path fill="none" stroke="midnightblue" d="M709.53,-329.83C707.25,-331.3 705.06,-332.86 703,-334.5 681.85,-351.32 688.98,-367.79 667,-383.5 662.24,-386.9 656.99,-389.83 651.53,-392.35"/>
<polygon fill="midnightblue" stroke="midnightblue" points="711.7,-332.62 718.61,-324.59 708.2,-326.56 711.7,-332.62"/>
</g>
<!-- Node17 -->
<g id="node17" class="node">
<title>Node17</title>
<g id="a_node17"><a xlink:href="classOPOS6UL__ActionsExtended.html#a44856498aa3839098211785a1fe0b6a3" target="_top" xlink:title="Déploie la banderole (action de fin de match).">
<polygon fill="white" stroke="black" points="515,-294.5 515,-324.5 664,-324.5 664,-294.5 515,-294.5"/>
<text text-anchor="start" x="523" y="-312.5" font-family="Helvetica,sans-Serif" font-size="10.00">OPOS6UL_ActionsExtended</text>
<text text-anchor="middle" x="589.5" y="-301.5" font-family="Helvetica,sans-Serif" font-size="10.00">::ax12_GO_banderole</text>
</a>
</g>
</g>
<!-- Node8&#45;&gt;Node17 -->
<g id="edge24" class="edge">
<title>Node8&#45;&gt;Node17</title>
<path fill="none" stroke="midnightblue" d="M692.72,-309.5C683.31,-309.5 673.62,-309.5 664.12,-309.5"/>
<polygon fill="midnightblue" stroke="midnightblue" points="692.8,-313 702.8,-309.5 692.8,-306 692.8,-313"/>
</g>
<!-- Node19 -->
<g id="node19" class="node">
<title>Node19</title>
<g id="a_node19"><a xlink:href="classOPOS6UL__ActionsExtended.html#ae63e06f334f5095383387aa9ff68c8a3" target="_top" xlink:title="Initialise le servo de la banderole à la position repliée.">
<polygon fill="white" stroke="black" points="515,-343.5 515,-373.5 664,-373.5 664,-343.5 515,-343.5"/>
<text text-anchor="start" x="523" y="-361.5" font-family="Helvetica,sans-Serif" font-size="10.00">OPOS6UL_ActionsExtended</text>
<text text-anchor="middle" x="589.5" y="-350.5" font-family="Helvetica,sans-Serif" font-size="10.00">::ax12_init_banderole</text>
</a>
</g>
</g>
<!-- Node8&#45;&gt;Node19 -->
<g id="edge27" class="edge">
<title>Node8&#45;&gt;Node19</title>
<path fill="none" stroke="midnightblue" d="M698.74,-327.39C680.4,-332.66 660.52,-338.38 642.87,-343.45"/>
<polygon fill="midnightblue" stroke="midnightblue" points="699.81,-330.73 708.45,-324.6 697.88,-324 699.81,-330.73"/>
</g>
<!-- Node20 -->
<g id="node20" class="node">
<title>Node20</title>
<g id="a_node20"><a xlink:href="classOPOS6UL__ActionsExtended.html#a565acda2ce4cdd1be8263835465d0fdc" target="_top" xlink:title="Initialise le bras gauche (épaule, coude, poignet) à la position de repos.">
<polygon fill="white" stroke="black" points="515,-245.5 515,-275.5 664,-275.5 664,-245.5 515,-245.5"/>
<text text-anchor="start" x="523" y="-263.5" font-family="Helvetica,sans-Serif" font-size="10.00">OPOS6UL_ActionsExtended</text>
<text text-anchor="middle" x="589.5" y="-252.5" font-family="Helvetica,sans-Serif" font-size="10.00">::ax12_init_L</text>
</a>
</g>
</g>
<!-- Node8&#45;&gt;Node20 -->
<g id="edge30" class="edge">
<title>Node8&#45;&gt;Node20</title>
<path fill="none" stroke="midnightblue" d="M698.74,-291.61C680.4,-286.34 660.52,-280.62 642.87,-275.55"/>
<polygon fill="midnightblue" stroke="midnightblue" points="697.88,-295 708.45,-294.4 699.81,-288.27 697.88,-295"/>
</g>
<!-- Node21 -->
<g id="node21" class="node">
<title>Node21</title>
<g id="a_node21"><a xlink:href="classOPOS6UL__ActionsExtended.html#a50a3db095faaaf15ec9630d9abcfb5d4" target="_top" xlink:title="Initialise les deux bras (gauche et droit) à la position de repos.">
<polygon fill="white" stroke="black" points="515,-196.5 515,-226.5 664,-226.5 664,-196.5 515,-196.5"/>
<text text-anchor="start" x="523" y="-214.5" font-family="Helvetica,sans-Serif" font-size="10.00">OPOS6UL_ActionsExtended</text>
<text text-anchor="middle" x="589.5" y="-203.5" font-family="Helvetica,sans-Serif" font-size="10.00">::ax12_init_LR</text>
</a>
</g>
</g>
<!-- Node8&#45;&gt;Node21 -->
<g id="edge31" class="edge">
<title>Node8&#45;&gt;Node21</title>
<path fill="none" stroke="midnightblue" d="M708.03,-289.12C706.29,-287.96 704.61,-286.76 703,-285.5 681.73,-268.83 688.89,-252.34 667,-236.5 661.68,-232.65 655.74,-229.37 649.57,-226.58"/>
<polygon fill="midnightblue" stroke="midnightblue" points="706.7,-292.39 717.1,-294.42 710.24,-286.35 706.7,-292.39"/>
</g>
<!-- Node22 -->
<g id="node22" class="node">
<title>Node22</title>
<g id="a_node22"><a xlink:href="classOPOS6UL__ActionsExtended.html#a298422faffadf81c4350cd47464d3f0a" target="_top" xlink:title="Initialise le bras droit (épaule, coude, poignet) à la position de repos.">
<polygon fill="white" stroke="black" points="515,-147.5 515,-177.5 664,-177.5 664,-147.5 515,-147.5"/>
<text text-anchor="start" x="523" y="-165.5" font-family="Helvetica,sans-Serif" font-size="10.00">OPOS6UL_ActionsExtended</text>
<text text-anchor="middle" x="589.5" y="-154.5" font-family="Helvetica,sans-Serif" font-size="10.00">::ax12_init_R</text>
</a>
</g>
</g>
<!-- Node8&#45;&gt;Node22 -->
<g id="edge32" class="edge">
<title>Node8&#45;&gt;Node22</title>
<path fill="none" stroke="midnightblue" d="M706.27,-288.6C705.13,-287.61 704.04,-286.58 703,-285.5 670.86,-252.03 700.4,-219.71 667,-187.5 662.98,-183.62 658.34,-180.34 653.39,-177.57"/>
<polygon fill="midnightblue" stroke="midnightblue" points="704.24,-291.45 714.38,-294.5 708.35,-285.79 704.24,-291.45"/>
</g>
<!-- Node10 -->
<g id="node10" class="node">
<title>Node10</title>
<g id="a_node10"><a xlink:href="classOPOS6UL__ActionsExtended.html#af04e19802d90a78d82e67b10061521a2" target="_top" xlink:title="Initialise tous les servomoteurs AX12 à leur position de départ.">
<polygon fill="white" stroke="black" points="327,-460.5 327,-490.5 476,-490.5 476,-460.5 327,-460.5"/>
<text text-anchor="start" x="335" y="-478.5" font-family="Helvetica,sans-Serif" font-size="10.00">OPOS6UL_ActionsExtended</text>
<text text-anchor="middle" x="401.5" y="-467.5" font-family="Helvetica,sans-Serif" font-size="10.00">::ax12_init</text>
</a>
</g>
</g>
<!-- Node9&#45;&gt;Node10 -->
<g id="edge9" class="edge">
<title>Node9&#45;&gt;Node10</title>
<path fill="none" stroke="midnightblue" d="M526.88,-536.13C521.81,-534.33 516.8,-532.44 512,-530.5 483.01,-518.76 451.21,-502.37 429.38,-490.54"/>
<polygon fill="midnightblue" stroke="midnightblue" points="526.07,-539.55 536.66,-539.49 528.34,-532.93 526.07,-539.55"/>
</g>
<!-- Node12 -->
<g id="node12" class="node">
<title>Node12</title>
<g id="a_node12"><a xlink:href="classO__ServoObjectsTest.html#aabfa9ba518070128940062ed11028ca7" target="_top" xlink:title="Execute le test.">
<polygon fill="white" stroke="black" points="156,-422 156,-441 291,-441 291,-422 156,-422"/>
<text text-anchor="middle" x="223.5" y="-429" font-family="Helvetica,sans-Serif" font-size="10.00">O_ServoObjectsTest::run</text>
</a>
</g>
</g>
<!-- Node9&#45;&gt;Node12 -->
<g id="edge14" class="edge">
<title>Node9&#45;&gt;Node12</title>
<path fill="none" stroke="midnightblue" d="M504.73,-565.19C449.54,-567.82 378.27,-562.31 327,-526.5 297.34,-505.79 318.29,-477.25 291,-453.5 284.85,-448.15 277.37,-444.1 269.67,-441.02"/>
<polygon fill="midnightblue" stroke="midnightblue" points="505.06,-568.68 514.84,-564.61 504.66,-561.69 505.06,-568.68"/>
</g>
<!-- Node11 -->
<g id="node11" class="node">
<title>Node11</title>
<g id="a_node11"><a xlink:href="classO__State__Init.html#abc19788b7457d1f819245dd28367fe91" target="_top" xlink:title="Exécute l&#39;état d&#39;initialisation.">
<polygon fill="white" stroke="black" points="0,-482 0,-501 120,-501 120,-482 0,-482"/>
<text text-anchor="middle" x="60" y="-489" font-family="Helvetica,sans-Serif" font-size="10.00">O_State_Init::execute</text>
</a>
</g>
</g>
<!-- Node10&#45;&gt;Node11 -->
<g id="edge10" class="edge">
<title>Node10&#45;&gt;Node11</title>
<path fill="none" stroke="midnightblue" d="M316.63,-489.02C307.99,-490.03 299.33,-490.89 291,-491.5 233.05,-495.71 166.68,-495.14 120.17,-493.85"/>
<polygon fill="midnightblue" stroke="midnightblue" points="317.25,-492.47 326.74,-487.77 316.38,-485.52 317.25,-492.47"/>
</g>
<!-- Node10&#45;&gt;Node12 -->
<g id="edge11" class="edge">
<title>Node10&#45;&gt;Node12</title>
<path fill="none" stroke="midnightblue" d="M330.6,-458.03C307.39,-452.22 282.43,-445.98 262.55,-441.01"/>
<polygon fill="midnightblue" stroke="midnightblue" points="329.87,-461.45 340.42,-460.48 331.57,-454.66 329.87,-461.45"/>
</g>
<!-- Node13 -->
<g id="node13" class="node">
<title>Node13</title>
<g id="a_node13"><a xlink:href="classO__State__Init.html#a1980cd82dcb83e88d61f2e7e14dddfa0" target="_top" xlink:title=" ">
<polygon fill="white" stroke="black" points="166.5,-463 166.5,-482 280.5,-482 280.5,-463 166.5,-463"/>
<text text-anchor="middle" x="223.5" y="-470" font-family="Helvetica,sans-Serif" font-size="10.00">O_State_Init::setPos</text>
</a>
</g>
</g>
<!-- Node10&#45;&gt;Node13 -->
<g id="edge12" class="edge">
<title>Node10&#45;&gt;Node13</title>
<path fill="none" stroke="midnightblue" d="M316.68,-474.07C304.47,-473.86 292.16,-473.65 280.69,-473.46"/>
<polygon fill="midnightblue" stroke="midnightblue" points="316.82,-477.57 326.88,-474.25 316.94,-470.58 316.82,-477.57"/>
</g>
<!-- Node13&#45;&gt;Node11 -->
<g id="edge13" class="edge">
<title>Node13&#45;&gt;Node11</title>
<path fill="none" stroke="midnightblue" d="M156.51,-480.26C144.5,-481.68 132.03,-483.14 120.23,-484.53"/>
<polygon fill="midnightblue" stroke="midnightblue" points="156.95,-483.74 166.47,-479.09 156.13,-476.78 156.95,-483.74"/>
</g>
<!-- Node14&#45;&gt;Node10 -->
<g id="edge16" class="edge">
<title>Node14&#45;&gt;Node10</title>
<path fill="none" stroke="midnightblue" d="M505.01,-492.03C495.36,-490.48 485.58,-488.9 476.09,-487.37"/>
<polygon fill="midnightblue" stroke="midnightblue" points="504.56,-495.51 514.99,-493.64 505.67,-488.6 504.56,-495.51"/>
</g>
<!-- Node14&#45;&gt;Node12 -->
<g id="edge17" class="edge">
<title>Node14&#45;&gt;Node12</title>
<path fill="none" stroke="midnightblue" d="M504.62,-521.8C451,-528.04 381.53,-528.07 327,-500.5 303.52,-488.63 312.44,-468.75 291,-453.5 283.57,-448.21 274.78,-444.14 266.08,-441.01"/>
<polygon fill="midnightblue" stroke="midnightblue" points="505.3,-525.24 514.79,-520.52 504.43,-518.3 505.3,-525.24"/>
</g>
<!-- Node15&#45;&gt;Node10 -->
<g id="edge19" class="edge">
<title>Node15&#45;&gt;Node10</title>
<path fill="none" stroke="midnightblue" d="M505.01,-465.03C495.36,-466.01 485.58,-467.01 476.09,-467.98"/>
<polygon fill="midnightblue" stroke="midnightblue" points="505.4,-468.51 514.99,-464.01 504.68,-461.54 505.4,-468.51"/>
</g>
<!-- Node15&#45;&gt;Node12 -->
<g id="edge20" class="edge">
<title>Node15&#45;&gt;Node12</title>
<path fill="none" stroke="midnightblue" d="M504.63,-450.74C439.73,-446.28 351.07,-440.19 291.01,-436.07"/>
<polygon fill="midnightblue" stroke="midnightblue" points="504.62,-454.25 514.84,-451.44 505.1,-447.26 504.62,-454.25"/>
</g>
<!-- Node16&#45;&gt;Node10 -->
<g id="edge22" class="edge">
<title>Node16&#45;&gt;Node10</title>
<path fill="none" stroke="midnightblue" d="M531.44,-425.74C524.86,-427.96 518.27,-430.25 512,-432.5 487.59,-441.27 460.45,-451.92 439.3,-460.43"/>
<polygon fill="midnightblue" stroke="midnightblue" points="532.64,-429.03 541.02,-422.54 530.42,-422.39 532.64,-429.03"/>
</g>
<!-- Node16&#45;&gt;Node12 -->
<g id="edge23" class="edge">
<title>Node16&#45;&gt;Node12</title>
<path fill="none" stroke="midnightblue" d="M504.77,-408.63C453.39,-409.83 386.3,-412.33 327,-417.5 314.03,-418.63 300.18,-420.24 287,-421.98"/>
<polygon fill="midnightblue" stroke="midnightblue" points="504.91,-412.12 514.83,-408.4 504.76,-405.13 504.91,-412.12"/>
</g>
<!-- Node17&#45;&gt;Node12 -->
<g id="edge26" class="edge">
<title>Node17&#45;&gt;Node12</title>
<path fill="none" stroke="midnightblue" d="M504.94,-322.76C452.62,-332.65 384.47,-348.47 327,-371.5 292.93,-385.15 256.68,-408.83 237.76,-421.99"/>
<polygon fill="midnightblue" stroke="midnightblue" points="505.66,-326.19 514.85,-320.93 504.38,-319.31 505.66,-326.19"/>
</g>
<!-- Node18 -->
<g id="node18" class="node">
<title>Node18</title>
<g id="a_node18"><a xlink:href="classO__State__DecisionMakerIA.html#a96d1f2a7618d607fd10cc51b9111e653" target="_top" xlink:title="Execute l&#39;action.">
<polygon fill="white" stroke="black" points="330.5,-258.5 330.5,-288.5 472.5,-288.5 472.5,-258.5 330.5,-258.5"/>
<text text-anchor="start" x="338.5" y="-276.5" font-family="Helvetica,sans-Serif" font-size="10.00">O_State_DecisionMakerIA</text>
<text text-anchor="middle" x="401.5" y="-265.5" font-family="Helvetica,sans-Serif" font-size="10.00">::execute</text>
</a>
</g>
</g>
<!-- Node17&#45;&gt;Node18 -->
<g id="edge25" class="edge">
<title>Node17&#45;&gt;Node18</title>
<path fill="none" stroke="midnightblue" d="M505.12,-293.36C494.31,-291.27 483.32,-289.14 472.75,-287.1"/>
<polygon fill="midnightblue" stroke="midnightblue" points="504.5,-296.81 514.99,-295.27 505.84,-289.94 504.5,-296.81"/>
</g>
<!-- Node19&#45;&gt;Node10 -->
<g id="edge28" class="edge">
<title>Node19&#45;&gt;Node10</title>
<path fill="none" stroke="midnightblue" d="M524.18,-377.47C519.98,-379.33 515.88,-381.34 512,-383.5 473.8,-404.73 436.37,-440.25 416.71,-460.38"/>
<polygon fill="midnightblue" stroke="midnightblue" points="525.59,-380.68 533.5,-373.63 522.92,-374.21 525.59,-380.68"/>
</g>
<!-- Node19&#45;&gt;Node12 -->
<g id="edge29" class="edge">
<title>Node19&#45;&gt;Node12</title>
<path fill="none" stroke="midnightblue" d="M504.83,-371.39C453.33,-379.78 386.1,-391.54 327,-404.5 303.81,-409.58 277.97,-416.4 258.03,-421.91"/>
<polygon fill="midnightblue" stroke="midnightblue" points="505.6,-374.81 514.91,-369.76 504.48,-367.9 505.6,-374.81"/>
</g>
<!-- Node23&#45;&gt;Node20 -->
<g id="edge34" class="edge">
<title>Node23&#45;&gt;Node20</title>
<path fill="none" stroke="midnightblue" d="M692.72,-260.5C683.31,-260.5 673.62,-260.5 664.12,-260.5"/>
<polygon fill="midnightblue" stroke="midnightblue" points="692.8,-264 702.8,-260.5 692.8,-257 692.8,-264"/>
</g>
<!-- Node23&#45;&gt;Node21 -->
<g id="edge35" class="edge">
<title>Node23&#45;&gt;Node21</title>
<path fill="none" stroke="midnightblue" d="M698.74,-242.61C680.4,-237.34 660.52,-231.62 642.87,-226.55"/>
<polygon fill="midnightblue" stroke="midnightblue" points="697.88,-246 708.45,-245.4 699.81,-239.27 697.88,-246"/>
</g>
<!-- Node23&#45;&gt;Node22 -->
<g id="edge36" class="edge">
<title>Node23&#45;&gt;Node22</title>
<path fill="none" stroke="midnightblue" d="M708.03,-240.12C706.29,-238.96 704.61,-237.76 703,-236.5 681.73,-219.83 688.89,-203.34 667,-187.5 661.68,-183.65 655.74,-180.37 649.57,-177.58"/>
<polygon fill="midnightblue" stroke="midnightblue" points="706.7,-243.39 717.1,-245.42 710.24,-237.35 706.7,-243.39"/>
</g>
<!-- Node28 -->
<g id="node28" class="node">
<title>Node28</title>
<g id="a_node28"><a xlink:href="classOPOS6UL__ActionsExtended.html#aced00f2c03b0aa9b9eda54e6874bac75" target="_top" xlink:title=" ">
<polygon fill="white" stroke="black" points="512,-49.5 512,-79.5 667,-79.5 667,-49.5 512,-49.5"/>
<text text-anchor="start" x="520" y="-67.5" font-family="Helvetica,sans-Serif" font-size="10.00">OPOS6UL_ActionsExtended</text>
<text text-anchor="middle" x="589.5" y="-56.5" font-family="Helvetica,sans-Serif" font-size="10.00">::OPOS6UL_ActionsExtended</text>
</a>
</g>
</g>
<!-- Node27&#45;&gt;Node28 -->
<g id="edge41" class="edge">
<title>Node27&#45;&gt;Node28</title>
<path fill="none" stroke="midnightblue" d="M692.69,-64.5C684.28,-64.5 675.65,-64.5 667.13,-64.5"/>
<polygon fill="midnightblue" stroke="midnightblue" points="692.8,-68 702.8,-64.5 692.8,-61 692.8,-68"/>
</g>
</g>
</svg>
        <g id="navigator" transform="translate(0 0)" fill="#404254">
                <rect fill="#f2f5e9" fill-opacity="0.5" stroke="#606060" stroke-width=".5" x="0" y="0" width="60" height="60"/>
                <use id="zoomplus" xlink:href="#zoomPlus" x="17" y="9" onmousedown="handleZoom(evt,'in')"/>
                <use id="zoomminus" xlink:href="#zoomMin" x="42" y="9" onmousedown="handleZoom(evt,'out')"/>
                <use id="reset" xlink:href="#resetDef" x="30" y="36" onmousedown="handleReset()"/>
                <g id="arrowUp" xlink:href="#dirArrow" transform="translate(30 24)" onmousedown="handlePan(0,-1)">
                  <use xlink:href="#rim" fill="#404040">
                        <set attributeName="fill" to="#808080" begin="arrowUp.mouseover" end="arrowUp.mouseout"/>
                  </use>
                  <path fill="none" stroke="white" stroke-width="1.5" d="M0,-3.0v7 M-2.5,-0.5L0,-3.0L2.5,-0.5"/>
                </g>
                <g id="arrowRight" xlink:href="#dirArrow" transform="rotate(90) translate(36 -43)" onmousedown="handlePan(1,0)">
                  <use xlink:href="#rim" fill="#404040">
                        <set attributeName="fill" to="#808080" begin="arrowRight.mouseover" end="arrowRight.mouseout"/>
                  </use>
                  <path fill="none" stroke="white" stroke-width="1.5" d="M0,-3.0v7 M-2.5,-0.5L0,-3.0L2.5,-0.5"/>
                </g>
                <g id="arrowDown" xlink:href="#dirArrow" transform="rotate(180) translate(-30 -48)" onmousedown="handlePan(0,1)">
                  <use xlink:href="#rim" fill="#404040">
                        <set attributeName="fill" to="#808080" begin="arrowDown.mouseover" end="arrowDown.mouseout"/>
                  </use>
                  <path fill="none" stroke="white" stroke-width="1.5" d="M0,-3.0v7 M-2.5,-0.5L0,-3.0L2.5,-0.5"/>
                </g>
                <g id="arrowLeft" xlink:href="#dirArrow" transform="rotate(270) translate(-36 17)" onmousedown="handlePan(-1,0)">
                  <use xlink:href="#rim" fill="#404040">
                        <set attributeName="fill" to="#808080" begin="arrowLeft.mouseover" end="arrowLeft.mouseout"/>
                  </use>
                  <path fill="none" stroke="white" stroke-width="1.5" d="M0,-3.0v7 M-2.5,-0.5L0,-3.0L2.5,-0.5"/>
                </g>
        </g>
        <svg viewBox="0 0 15 15" width="100%" height="30px" preserveAspectRatio="xMaxYMin meet">
         <g id="arrow_out" transform="scale(0.3 0.3)">
          <a xlink:href="classServoObjectsSystem_a3443f7bcf51a8e48e813abac590a0f66_icgraph_org.svg" target="_base">
           <rect id="button" ry="5" rx="5" y="6" x="6" height="38" width="38"
                fill="#f2f5e9" fill-opacity="0.5" stroke="#606060" stroke-width="1.0"/>
           <path id="arrow"
             d="M 11.500037,31.436501 C 11.940474,20.09759 22.043105,11.32322 32.158766,21.979434 L 37.068811,17.246167 C 37.068811,17.246167 37.088388,32 37.088388,32 L 22.160133,31.978069 C 22.160133,31.978069 26.997745,27.140456 26.997745,27.140456 C 18.528582,18.264221 13.291696,25.230495 11.500037,31.436501 z"
             style="fill:#404040;"/>
          </a>
         </g>
        </svg>
</svg>
