<?xml version="1.0" encoding="UTF-8" standalone="no"?>
<!DOCTYPE svg PUBLIC "-//W3C//DTD SVG 1.1//EN"
 "http://www.w3.org/Graphics/SVG/1.1/DTD/svg11.dtd">
<!-- Generated by graphviz version 2.43.0 (0)
 -->
<!-- Title: AsservEsialR::logger Pages: 1 -->
<svg width="864pt" height="1600pt"
 viewBox="0.00 0.00 864.00 1600.01" xmlns="http://www.w3.org/2000/svg" xmlns:xlink="http://www.w3.org/1999/xlink">
<g id="graph0" class="graph" transform="scale(1 1) rotate(0) translate(4 1596.01)">
<title>AsservEsialR::logger</title>
<polygon fill="white" stroke="transparent" points="-4,4 -4,-1596.01 860,-1596.01 860,4 -4,4"/>
<!-- Node1 -->
<g id="node1" class="node">
<title>Node1</title>
<g id="a_node1"><a xlink:title="Retourne le Logger associe a la classe AsservEsialR.">
<polygon fill="#bfbfbf" stroke="black" points="740,-788 740,-807 856,-807 856,-788 740,-788"/>
<text text-anchor="middle" x="798" y="-795" font-family="Helvetica,sans-Serif" font-size="10.00">AsservEsialR::logger</text>
</a>
</g>
</g>
<!-- Node2 -->
<g id="node2" class="node">
<title>Node2</title>
<g id="a_node2"><a xlink:href="classAsservEsialR.html#abfd3be9bde7bf8ae887688bf8bc0ca43" target="_top" xlink:title="Méthode virtuelle pure à implémenter dans les sous&#45;classes.">
<polygon fill="white" stroke="black" points="347.5,-1470 347.5,-1489 471.5,-1489 471.5,-1470 347.5,-1470"/>
<text text-anchor="middle" x="409.5" y="-1477" font-family="Helvetica,sans-Serif" font-size="10.00">AsservEsialR::execute</text>
</a>
</g>
</g>
<!-- Node1&#45;&gt;Node2 -->
<g id="edge1" class="edge">
<title>Node1&#45;&gt;Node2</title>
<path fill="none" stroke="midnightblue" d="M797.41,-817.32C799.03,-917.91 800.81,-1370.67 704,-1460.5 632.14,-1527.19 502.97,-1504.53 442.88,-1489.03"/>
<polygon fill="midnightblue" stroke="midnightblue" points="800.91,-817.23 797.23,-807.3 793.91,-817.36 800.91,-817.23"/>
</g>
<!-- Node3 -->
<g id="node3" class="node">
<title>Node3</title>
<g id="a_node3"><a xlink:href="classAsservEsialR.html#abd83aa700363ae921569e178df53f95d" target="_top" xlink:title="Lit les compteurs externes cumules (ticks).">
<polygon fill="white" stroke="black" points="528,-1394 528,-1413 704,-1413 704,-1394 528,-1394"/>
<text text-anchor="middle" x="616" y="-1401" font-family="Helvetica,sans-Serif" font-size="10.00">AsservEsialR::getCountsExternal</text>
</a>
</g>
</g>
<!-- Node1&#45;&gt;Node3 -->
<g id="edge2" class="edge">
<title>Node1&#45;&gt;Node3</title>
<path fill="none" stroke="midnightblue" d="M796.75,-817.39C795.15,-910.23 783.71,-1300.04 704,-1384.5 700.5,-1388.21 696.45,-1391.28 692.06,-1393.81"/>
<polygon fill="midnightblue" stroke="midnightblue" points="800.25,-817.42 796.9,-807.36 793.25,-817.31 800.25,-817.42"/>
</g>
<!-- Node4 -->
<g id="node4" class="node">
<title>Node4</title>
<g id="a_node4"><a xlink:href="classAsservEsialR.html#aefeb4e45f67c44c3f5a896274ef9da17" target="_top" xlink:title="Lit les compteurs internes cumules.">
<polygon fill="white" stroke="black" points="529.5,-1356 529.5,-1375 702.5,-1375 702.5,-1356 529.5,-1356"/>
<text text-anchor="middle" x="616" y="-1363" font-family="Helvetica,sans-Serif" font-size="10.00">AsservEsialR::getCountsInternal</text>
</a>
</g>
</g>
<!-- Node1&#45;&gt;Node4 -->
<g id="edge3" class="edge">
<title>Node1&#45;&gt;Node4</title>
<path fill="none" stroke="midnightblue" d="M796.51,-817.21C793.91,-906.02 778.79,-1268.09 704,-1346.5 700.37,-1350.3 696.17,-1353.43 691.62,-1356"/>
<polygon fill="midnightblue" stroke="midnightblue" points="800.01,-817.25 796.79,-807.15 793.02,-817.05 800.01,-817.25"/>
</g>
<!-- Node5 -->
<g id="node5" class="node">
<title>Node5</title>
<g id="a_node5"><a xlink:href="classAsservEsialR.html#a085b1191c4b4676c90df1d7ad944f48e" target="_top" xlink:title="Lit le delta des compteurs externes depuis le dernier appel.">
<polygon fill="white" stroke="black" points="535.5,-1306.5 535.5,-1336.5 696.5,-1336.5 696.5,-1306.5 535.5,-1306.5"/>
<text text-anchor="start" x="543.5" y="-1324.5" font-family="Helvetica,sans-Serif" font-size="10.00">AsservEsialR::getDeltaCounts</text>
<text text-anchor="middle" x="616" y="-1313.5" font-family="Helvetica,sans-Serif" font-size="10.00">External</text>
</a>
</g>
</g>
<!-- Node1&#45;&gt;Node5 -->
<g id="edge4" class="edge">
<title>Node1&#45;&gt;Node5</title>
<path fill="none" stroke="midnightblue" d="M796.05,-817.19C791.65,-900.76 770.44,-1225.13 704,-1297.5 700.93,-1300.85 697.43,-1303.74 693.65,-1306.25"/>
<polygon fill="midnightblue" stroke="midnightblue" points="799.56,-817.21 796.57,-807.05 792.57,-816.86 799.56,-817.21"/>
</g>
<!-- Node6 -->
<g id="node6" class="node">
<title>Node6</title>
<g id="a_node6"><a xlink:href="classAsservEsialR.html#a92f56a44000674916dbb398c6a08d75a" target="_top" xlink:title="Lit la valeur de l&#39;encodeur externe gauche.">
<polygon fill="white" stroke="black" points="536,-1257.5 536,-1287.5 696,-1287.5 696,-1257.5 536,-1257.5"/>
<text text-anchor="start" x="544" y="-1275.5" font-family="Helvetica,sans-Serif" font-size="10.00">AsservEsialR::getLeftExternal</text>
<text text-anchor="middle" x="616" y="-1264.5" font-family="Helvetica,sans-Serif" font-size="10.00">Encoder</text>
</a>
</g>
</g>
<!-- Node1&#45;&gt;Node6 -->
<g id="edge5" class="edge">
<title>Node1&#45;&gt;Node6</title>
<path fill="none" stroke="midnightblue" d="M795.62,-817.24C789.74,-895.68 764.28,-1184.12 704,-1248.5 700.79,-1251.93 697.13,-1254.89 693.18,-1257.43"/>
<polygon fill="midnightblue" stroke="midnightblue" points="799.11,-817.47 796.35,-807.25 792.13,-816.97 799.11,-817.47"/>
</g>
<!-- Node7 -->
<g id="node7" class="node">
<title>Node7</title>
<g id="a_node7"><a xlink:href="classAsservEsialR.html#a12c935ad6369c88f2bbd994a2abbfe16" target="_top" xlink:title="Lit la valeur de l&#39;encodeur interne gauche.">
<polygon fill="white" stroke="black" points="537.5,-1208.5 537.5,-1238.5 694.5,-1238.5 694.5,-1208.5 537.5,-1208.5"/>
<text text-anchor="start" x="545.5" y="-1226.5" font-family="Helvetica,sans-Serif" font-size="10.00">AsservEsialR::getLeftInternal</text>
<text text-anchor="middle" x="616" y="-1215.5" font-family="Helvetica,sans-Serif" font-size="10.00">Encoder</text>
</a>
</g>
</g>
<!-- Node1&#45;&gt;Node7 -->
<g id="edge6" class="edge">
<title>Node1&#45;&gt;Node7</title>
<path fill="none" stroke="midnightblue" d="M795.07,-817.39C787.57,-890.52 758.13,-1143.06 704,-1199.5 700.75,-1202.89 697.06,-1205.82 693.09,-1208.34"/>
<polygon fill="midnightblue" stroke="midnightblue" points="798.57,-817.56 796.08,-807.26 791.6,-816.86 798.57,-817.56"/>
</g>
<!-- Node8 -->
<g id="node8" class="node">
<title>Node8</title>
<g id="a_node8"><a xlink:href="classAsservEsialR.html#ac80a3f0c2469353e35ec7f735e655249" target="_top" xlink:title="Lit le courant du moteur gauche.">
<polygon fill="white" stroke="black" points="542,-1159.5 542,-1189.5 690,-1189.5 690,-1159.5 542,-1159.5"/>
<text text-anchor="start" x="550" y="-1177.5" font-family="Helvetica,sans-Serif" font-size="10.00">AsservEsialR::getMotorLeft</text>
<text text-anchor="middle" x="616" y="-1166.5" font-family="Helvetica,sans-Serif" font-size="10.00">Current</text>
</a>
</g>
</g>
<!-- Node1&#45;&gt;Node8 -->
<g id="edge7" class="edge">
<title>Node1&#45;&gt;Node8</title>
<path fill="none" stroke="midnightblue" d="M794.42,-817.09C785.25,-883.97 752.12,-1101.82 704,-1150.5 699.92,-1154.62 695.21,-1158.06 690.13,-1160.91"/>
<polygon fill="midnightblue" stroke="midnightblue" points="797.91,-817.44 795.77,-807.06 790.97,-816.51 797.91,-817.44"/>
</g>
<!-- Node9 -->
<g id="node9" class="node">
<title>Node9</title>
<g id="a_node9"><a xlink:href="classAsservEsialR.html#a213883db355e8a7713a324cd634d6e1b" target="_top" xlink:title="Lit le courant du moteur droit.">
<polygon fill="white" stroke="black" points="538.5,-1110.5 538.5,-1140.5 693.5,-1140.5 693.5,-1110.5 538.5,-1110.5"/>
<text text-anchor="start" x="546.5" y="-1128.5" font-family="Helvetica,sans-Serif" font-size="10.00">AsservEsialR::getMotorRight</text>
<text text-anchor="middle" x="616" y="-1117.5" font-family="Helvetica,sans-Serif" font-size="10.00">Current</text>
</a>
</g>
</g>
<!-- Node1&#45;&gt;Node9 -->
<g id="edge8" class="edge">
<title>Node1&#45;&gt;Node9</title>
<path fill="none" stroke="midnightblue" d="M797.09,-817.3C796.23,-871.15 786.2,-1021.55 704,-1101.5 700.52,-1104.89 696.6,-1107.8 692.41,-1110.32"/>
<polygon fill="midnightblue" stroke="midnightblue" points="800.6,-817.1 797.16,-807.07 793.6,-817.05 800.6,-817.1"/>
</g>
<!-- Node10 -->
<g id="node10" class="node">
<title>Node10</title>
<g id="a_node10"><a xlink:href="classAsservEsialR.html#ab912ed84c7ed08b14e2d5c0765bc9cac" target="_top" xlink:title="Lit la valeur de l&#39;encodeur externe droit.">
<polygon fill="white" stroke="black" points="532.5,-1061.5 532.5,-1091.5 699.5,-1091.5 699.5,-1061.5 532.5,-1061.5"/>
<text text-anchor="start" x="540.5" y="-1079.5" font-family="Helvetica,sans-Serif" font-size="10.00">AsservEsialR::getRightExternal</text>
<text text-anchor="middle" x="616" y="-1068.5" font-family="Helvetica,sans-Serif" font-size="10.00">Encoder</text>
</a>
</g>
</g>
<!-- Node1&#45;&gt;Node10 -->
<g id="edge9" class="edge">
<title>Node1&#45;&gt;Node10</title>
<path fill="none" stroke="midnightblue" d="M795.75,-817.25C791.63,-865.01 774.39,-987.56 704,-1052.5 700.31,-1055.9 696.19,-1058.82 691.8,-1061.34"/>
<polygon fill="midnightblue" stroke="midnightblue" points="799.26,-817.28 796.52,-807.04 792.28,-816.75 799.26,-817.28"/>
</g>
<!-- Node11 -->
<g id="node11" class="node">
<title>Node11</title>
<g id="a_node11"><a xlink:href="classAsservEsialR.html#a522a00c00cccec44db953f195c463927" target="_top" xlink:title="Lit la valeur de l&#39;encodeur interne droit.">
<polygon fill="white" stroke="black" points="534,-1012.5 534,-1042.5 698,-1042.5 698,-1012.5 534,-1012.5"/>
<text text-anchor="start" x="542" y="-1030.5" font-family="Helvetica,sans-Serif" font-size="10.00">AsservEsialR::getRightInternal</text>
<text text-anchor="middle" x="616" y="-1019.5" font-family="Helvetica,sans-Serif" font-size="10.00">Encoder</text>
</a>
</g>
</g>
<!-- Node1&#45;&gt;Node11 -->
<g id="edge10" class="edge">
<title>Node1&#45;&gt;Node11</title>
<path fill="none" stroke="midnightblue" d="M793.27,-816.96C784.67,-856.61 759.77,-947.21 704,-997.5 697.24,-1003.6 689.17,-1008.47 680.72,-1012.36"/>
<polygon fill="midnightblue" stroke="midnightblue" points="796.73,-817.5 795.31,-807 789.87,-816.1 796.73,-817.5"/>
</g>
<!-- Node12 -->
<g id="node12" class="node">
<title>Node12</title>
<g id="a_node12"><a xlink:href="classAsservEsialR.html#a558147f3a68a384944652e810e6491cb" target="_top" xlink:title=" ">
<polygon fill="white" stroke="black" points="549,-886 549,-905 683,-905 683,-886 549,-886"/>
<text text-anchor="middle" x="616" y="-893" font-family="Helvetica,sans-Serif" font-size="10.00">AsservEsialR::initAsserv</text>
</a>
</g>
</g>
<!-- Node1&#45;&gt;Node12 -->
<g id="edge11" class="edge">
<title>Node1&#45;&gt;Node12</title>
<path fill="none" stroke="midnightblue" d="M780.41,-814.19C762.87,-830.96 733.66,-856.41 704,-871.5 691.99,-877.61 678.23,-882.32 665.25,-885.89"/>
<polygon fill="midnightblue" stroke="midnightblue" points="782.9,-816.66 787.61,-807.17 778.01,-811.65 782.9,-816.66"/>
</g>
<!-- Node15 -->
<g id="node15" class="node">
<title>Node15</title>
<g id="a_node15"><a xlink:href="classAsservEsialR.html#ae80fe869f82c06b3e91fb8a783e56185" target="_top" xlink:title=" ">
<polygon fill="white" stroke="black" points="338,-848 338,-867 481,-867 481,-848 338,-848"/>
<text text-anchor="middle" x="409.5" y="-855" font-family="Helvetica,sans-Serif" font-size="10.00">AsservEsialR::resetAsserv</text>
</a>
</g>
</g>
<!-- Node1&#45;&gt;Node15 -->
<g id="edge36" class="edge">
<title>Node1&#45;&gt;Node15</title>
<path fill="none" stroke="midnightblue" d="M770.83,-812.01C752.66,-821.33 727.57,-832.73 704,-838.5 629.48,-856.73 541.33,-860.11 481.22,-859.79"/>
<polygon fill="midnightblue" stroke="midnightblue" points="772.94,-814.85 780.16,-807.1 769.68,-808.66 772.94,-814.85"/>
</g>
<!-- Node16 -->
<g id="node16" class="node">
<title>Node16</title>
<g id="a_node16"><a xlink:href="classAsservEsialR.html#a571fca7d446ad307c51a37f3323ac187" target="_top" xlink:title=" ">
<polygon fill="white" stroke="black" points="547.5,-810 547.5,-829 684.5,-829 684.5,-810 547.5,-810"/>
<text text-anchor="middle" x="616" y="-817" font-family="Helvetica,sans-Serif" font-size="10.00">AsservEsialR::loadConfig</text>
</a>
</g>
</g>
<!-- Node1&#45;&gt;Node16 -->
<g id="edge15" class="edge">
<title>Node1&#45;&gt;Node16</title>
<path fill="none" stroke="midnightblue" d="M729.53,-805.75C714.84,-807.54 699.28,-809.44 684.58,-811.24"/>
<polygon fill="midnightblue" stroke="midnightblue" points="730.05,-809.21 739.55,-804.52 729.2,-802.26 730.05,-809.21"/>
</g>
<!-- Node17 -->
<g id="node17" class="node">
<title>Node17</title>
<g id="a_node17"><a xlink:href="classAsservEsialR.html#a429c9c4a6008e27efe6d41ff0cb97288" target="_top" xlink:title="Effectue une rotation en arc de cercle.">
<polygon fill="white" stroke="black" points="556,-760.5 556,-790.5 676,-790.5 676,-760.5 556,-760.5"/>
<text text-anchor="start" x="564" y="-778.5" font-family="Helvetica,sans-Serif" font-size="10.00">AsservEsialR::motion</text>
<text text-anchor="middle" x="616" y="-767.5" font-family="Helvetica,sans-Serif" font-size="10.00">_DoArcRotate</text>
</a>
</g>
</g>
<!-- Node1&#45;&gt;Node17 -->
<g id="edge16" class="edge">
<title>Node1&#45;&gt;Node17</title>
<path fill="none" stroke="midnightblue" d="M729.39,-789.24C711.86,-787.09 693.12,-784.8 676.07,-782.72"/>
<polygon fill="midnightblue" stroke="midnightblue" points="729.2,-792.74 739.55,-790.48 730.05,-785.79 729.2,-792.74"/>
</g>
<!-- Node18 -->
<g id="node18" class="node">
<title>Node18</title>
<g id="a_node18"><a xlink:href="classAsservEsialR.html#a85f69f82c1de14e25189941e7fb41a2b" target="_top" xlink:title="Deplace le robot vers un point sans s&#39;arreter (enchainement).">
<polygon fill="white" stroke="black" points="556,-711.5 556,-741.5 676,-741.5 676,-711.5 556,-711.5"/>
<text text-anchor="start" x="564" y="-729.5" font-family="Helvetica,sans-Serif" font-size="10.00">AsservEsialR::motion</text>
<text text-anchor="middle" x="616" y="-718.5" font-family="Helvetica,sans-Serif" font-size="10.00">_GotoChain</text>
</a>
</g>
</g>
<!-- Node1&#45;&gt;Node18 -->
<g id="edge17" class="edge">
<title>Node1&#45;&gt;Node18</title>
<path fill="none" stroke="midnightblue" d="M771.03,-783.08C752.69,-773.29 727.31,-760.53 704,-751.5 694.77,-747.92 684.81,-744.59 675.04,-741.6"/>
<polygon fill="midnightblue" stroke="midnightblue" points="769.48,-786.22 779.94,-787.9 772.8,-780.06 769.48,-786.22"/>
</g>
<!-- Node20 -->
<g id="node20" class="node">
<title>Node20</title>
<g id="a_node20"><a xlink:href="classAsservEsialR.html#abda7087d63c03f1a098bc1c4c117b178" target="_top" xlink:title="Deplace le robot vers un point en marche arriere sans s&#39;arreter.">
<polygon fill="white" stroke="black" points="556,-662.5 556,-692.5 676,-692.5 676,-662.5 556,-662.5"/>
<text text-anchor="start" x="564" y="-680.5" font-family="Helvetica,sans-Serif" font-size="10.00">AsservEsialR::motion</text>
<text text-anchor="middle" x="616" y="-669.5" font-family="Helvetica,sans-Serif" font-size="10.00">_GotoReverseChain</text>
</a>
</g>
</g>
<!-- Node1&#45;&gt;Node20 -->
<g id="edge19" class="edge">
<title>Node1&#45;&gt;Node20</title>
<path fill="none" stroke="midnightblue" d="M784.15,-779.58C767.87,-758.16 737.82,-722.68 704,-702.5 695.5,-697.43 685.91,-693.34 676.29,-690.05"/>
<polygon fill="midnightblue" stroke="midnightblue" points="781.49,-781.87 790.26,-787.82 787.11,-777.7 781.49,-781.87"/>
</g>
<!-- Node22 -->
<g id="node22" class="node">
<title>Node22</title>
<g id="a_node22"><a xlink:href="classAsservEsialR.html#a18064f0087aa1cd67cbdd131f99720db" target="_top" xlink:title="Lit la position courante du robot.">
<polygon fill="white" stroke="black" points="533.5,-1432 533.5,-1451 698.5,-1451 698.5,-1432 533.5,-1432"/>
<text text-anchor="middle" x="616" y="-1439" font-family="Helvetica,sans-Serif" font-size="10.00">AsservEsialR::odo_GetPosition</text>
</a>
</g>
</g>
<!-- Node1&#45;&gt;Node22 -->
<g id="edge21" class="edge">
<title>Node1&#45;&gt;Node22</title>
<path fill="none" stroke="midnightblue" d="M796.96,-817.12C796.34,-913.07 788.77,-1331.83 704,-1422.5 700.52,-1426.23 696.48,-1429.31 692.1,-1431.85"/>
<polygon fill="midnightblue" stroke="midnightblue" points="800.46,-817.08 797,-807.07 793.46,-817.05 800.46,-817.08"/>
</g>
<!-- Node60 -->
<g id="node31" class="node">
<title>Node60</title>
<g id="a_node31"><a xlink:href="classAsservEsialR.html#a05e8f01586ff447aa362a99ca370cb1c" target="_top" xlink:title="Lit le statut de la derniere commande.">
<polygon fill="white" stroke="black" points="546,-613.5 546,-643.5 686,-643.5 686,-613.5 546,-613.5"/>
<text text-anchor="start" x="554" y="-631.5" font-family="Helvetica,sans-Serif" font-size="10.00">AsservEsialR::path</text>
<text text-anchor="middle" x="616" y="-620.5" font-family="Helvetica,sans-Serif" font-size="10.00">_GetLastCommandStatus</text>
</a>
</g>
</g>
<!-- Node1&#45;&gt;Node60 -->
<g id="edge33" class="edge">
<title>Node1&#45;&gt;Node60</title>
<path fill="none" stroke="midnightblue" d="M789.74,-778.07C777.14,-747.01 748.25,-686.35 704,-653.5 698.57,-649.47 692.52,-646.09 686.19,-643.26"/>
<polygon fill="midnightblue" stroke="midnightblue" points="786.62,-779.69 793.52,-787.73 793.14,-777.14 786.62,-779.69"/>
</g>
<!-- Node61 -->
<g id="node32" class="node">
<title>Node61</title>
<g id="a_node32"><a xlink:href="classAsservEsialR.html#a89c3ed56d870037964c23bb657c75a7a" target="_top" xlink:title="Reinitialise l&#39;arret d&#39;urgence pour permettre un nouveau mouvement.">
<polygon fill="white" stroke="black" points="553,-564.5 553,-594.5 679,-594.5 679,-564.5 553,-564.5"/>
<text text-anchor="start" x="561" y="-582.5" font-family="Helvetica,sans-Serif" font-size="10.00">AsservEsialR::path</text>
<text text-anchor="middle" x="616" y="-571.5" font-family="Helvetica,sans-Serif" font-size="10.00">_ResetEmergencyStop</text>
</a>
</g>
</g>
<!-- Node1&#45;&gt;Node61 -->
<g id="edge34" class="edge">
<title>Node1&#45;&gt;Node61</title>
<path fill="none" stroke="midnightblue" d="M793.14,-777.93C784.43,-738.94 759.49,-651.31 704,-604.5 696.79,-598.42 688.19,-593.82 679.23,-590.33"/>
<polygon fill="midnightblue" stroke="midnightblue" points="789.73,-778.71 795.22,-787.76 796.58,-777.26 789.73,-778.71"/>
</g>
<!-- Node68 -->
<g id="node34" class="node">
<title>Node68</title>
<g id="a_node34"><a xlink:href="classAsservEsialR.html#aa1b04c8fca6b1fe1d095ed2befdc3b11" target="_top" xlink:title="Remet a zero tous les encodeurs.">
<polygon fill="white" stroke="black" points="538.5,-526 538.5,-545 693.5,-545 693.5,-526 538.5,-526"/>
<text text-anchor="middle" x="616" y="-533" font-family="Helvetica,sans-Serif" font-size="10.00">AsservEsialR::resetEncoders</text>
</a>
</g>
</g>
<!-- Node1&#45;&gt;Node68 -->
<g id="edge37" class="edge">
<title>Node1&#45;&gt;Node68</title>
<path fill="none" stroke="midnightblue" d="M795.49,-777.62C790.85,-731.19 772.62,-615.07 704,-555.5 699.08,-551.23 693.44,-547.83 687.44,-545.12"/>
<polygon fill="midnightblue" stroke="midnightblue" points="792.03,-778.19 796.4,-787.85 799,-777.57 792.03,-778.19"/>
</g>
<!-- Node69 -->
<g id="node35" class="node">
<title>Node69</title>
<g id="a_node35"><a xlink:href="classAsservEsialR.html#afce022c3f43439d0d5488fed31a46cc4" target="_top" xlink:title="Remet a zero les encodeurs externes.">
<polygon fill="white" stroke="black" points="540.5,-476.5 540.5,-506.5 691.5,-506.5 691.5,-476.5 540.5,-476.5"/>
<text text-anchor="start" x="548.5" y="-494.5" font-family="Helvetica,sans-Serif" font-size="10.00">AsservEsialR::resetExternal</text>
<text text-anchor="middle" x="616" y="-483.5" font-family="Helvetica,sans-Serif" font-size="10.00">Encoders</text>
</a>
</g>
</g>
<!-- Node1&#45;&gt;Node69 -->
<g id="edge38" class="edge">
<title>Node1&#45;&gt;Node69</title>
<path fill="none" stroke="midnightblue" d="M796.48,-777.87C794.02,-727.01 780.3,-589.82 704,-516.5 700.03,-512.69 695.53,-509.45 690.7,-506.7"/>
<polygon fill="midnightblue" stroke="midnightblue" points="792.98,-778 796.86,-787.86 799.97,-777.74 792.98,-778"/>
</g>
<!-- Node70 -->
<g id="node36" class="node">
<title>Node70</title>
<g id="a_node36"><a xlink:href="classAsservEsialR.html#a098ae002a5455809bde43fd1616f10a3" target="_top" xlink:title="Remet a zero les encodeurs internes.">
<polygon fill="white" stroke="black" points="542,-427.5 542,-457.5 690,-457.5 690,-427.5 542,-427.5"/>
<text text-anchor="start" x="550" y="-445.5" font-family="Helvetica,sans-Serif" font-size="10.00">AsservEsialR::resetInternal</text>
<text text-anchor="middle" x="616" y="-434.5" font-family="Helvetica,sans-Serif" font-size="10.00">Encoders</text>
</a>
</g>
</g>
<!-- Node1&#45;&gt;Node70 -->
<g id="edge39" class="edge">
<title>Node1&#45;&gt;Node70</title>
<path fill="none" stroke="midnightblue" d="M797.61,-777.59C798.24,-720.72 791.98,-555.93 704,-467.5 699.9,-463.38 695.17,-459.93 690.07,-457.03"/>
<polygon fill="midnightblue" stroke="midnightblue" points="794.11,-777.68 797.41,-787.75 801.11,-777.82 794.11,-777.68"/>
</g>
<!-- Node71 -->
<g id="node37" class="node">
<title>Node71</title>
<g id="a_node37"><a xlink:href="classAsservEsialR.html#a93642e8abc2116fe8937d2c00f003977" target="_top" xlink:title="Commande le moteur gauche en position.">
<polygon fill="white" stroke="black" points="542.5,-378.5 542.5,-408.5 689.5,-408.5 689.5,-378.5 542.5,-378.5"/>
<text text-anchor="start" x="550.5" y="-396.5" font-family="Helvetica,sans-Serif" font-size="10.00">AsservEsialR::setMotorLeft</text>
<text text-anchor="middle" x="616" y="-385.5" font-family="Helvetica,sans-Serif" font-size="10.00">Position</text>
</a>
</g>
</g>
<!-- Node1&#45;&gt;Node71 -->
<g id="edge40" class="edge">
<title>Node1&#45;&gt;Node71</title>
<path fill="none" stroke="midnightblue" d="M794.78,-777.87C786.46,-707.83 755.04,-471.58 704,-418.5 699.86,-414.2 695.03,-410.62 689.81,-407.65"/>
<polygon fill="midnightblue" stroke="midnightblue" points="791.32,-778.43 795.95,-787.96 798.27,-777.62 791.32,-778.43"/>
</g>
<!-- Node72 -->
<g id="node38" class="node">
<title>Node72</title>
<g id="a_node38"><a xlink:href="classAsservEsialR.html#ae3632c60b6f31fc32b514c73f40dd23c" target="_top" xlink:title="Commande le moteur gauche en puissance pendant un temps donne.">
<polygon fill="white" stroke="black" points="542.5,-329.5 542.5,-359.5 689.5,-359.5 689.5,-329.5 542.5,-329.5"/>
<text text-anchor="start" x="550.5" y="-347.5" font-family="Helvetica,sans-Serif" font-size="10.00">AsservEsialR::setMotorLeft</text>
<text text-anchor="middle" x="616" y="-336.5" font-family="Helvetica,sans-Serif" font-size="10.00">Power</text>
</a>
</g>
</g>
<!-- Node1&#45;&gt;Node72 -->
<g id="edge41" class="edge">
<title>Node1&#45;&gt;Node72</title>
<path fill="none" stroke="midnightblue" d="M795.37,-777.82C788.69,-702.07 761.09,-430.48 704,-369.5 699.81,-365.03 694.88,-361.33 689.53,-358.29"/>
<polygon fill="midnightblue" stroke="midnightblue" points="791.89,-778.22 796.23,-787.89 798.86,-777.62 791.89,-778.22"/>
</g>
<!-- Node73 -->
<g id="node39" class="node">
<title>Node73</title>
<g id="a_node39"><a xlink:href="classAsservEsialR.html#aad4a4c018d773f75ede78df09aa64bf3" target="_top" xlink:title="Commande le moteur droit en position.">
<polygon fill="white" stroke="black" points="538.5,-280.5 538.5,-310.5 693.5,-310.5 693.5,-280.5 538.5,-280.5"/>
<text text-anchor="start" x="546.5" y="-298.5" font-family="Helvetica,sans-Serif" font-size="10.00">AsservEsialR::setMotorRight</text>
<text text-anchor="middle" x="616" y="-287.5" font-family="Helvetica,sans-Serif" font-size="10.00">Position</text>
</a>
</g>
</g>
<!-- Node1&#45;&gt;Node73 -->
<g id="edge42" class="edge">
<title>Node1&#45;&gt;Node73</title>
<path fill="none" stroke="midnightblue" d="M795.8,-777.18C790.56,-695.13 767.02,-389.28 704,-320.5 700.5,-316.68 696.45,-313.42 692.06,-310.66"/>
<polygon fill="midnightblue" stroke="midnightblue" points="792.34,-777.85 796.44,-787.61 799.32,-777.41 792.34,-777.85"/>
</g>
<!-- Node74 -->
<g id="node40" class="node">
<title>Node74</title>
<g id="a_node40"><a xlink:href="classAsservEsialR.html#ad235409b0ed65c2718c25a7122c69117" target="_top" xlink:title="Commande le moteur droit en puissance pendant un temps donne.">
<polygon fill="white" stroke="black" points="538.5,-231.5 538.5,-261.5 693.5,-261.5 693.5,-231.5 538.5,-231.5"/>
<text text-anchor="start" x="546.5" y="-249.5" font-family="Helvetica,sans-Serif" font-size="10.00">AsservEsialR::setMotorRight</text>
<text text-anchor="middle" x="616" y="-238.5" font-family="Helvetica,sans-Serif" font-size="10.00">Power</text>
</a>
</g>
</g>
<!-- Node1&#45;&gt;Node74 -->
<g id="edge43" class="edge">
<title>Node1&#45;&gt;Node74</title>
<path fill="none" stroke="midnightblue" d="M796.22,-777.64C792.45,-691.18 773.26,-348.43 704,-271.5 700.53,-267.65 696.51,-264.37 692.14,-261.59"/>
<polygon fill="midnightblue" stroke="midnightblue" points="792.74,-778.04 796.65,-787.89 799.73,-777.75 792.74,-778.04"/>
</g>
<!-- Node75 -->
<g id="node41" class="node">
<title>Node75</title>
<g id="a_node41"><a xlink:href="classAsservEsialR.html#a249d968918b3bfecc0467bb476177211" target="_top" xlink:title=" ">
<polygon fill="white" stroke="black" points="543,-924.5 543,-954.5 689,-954.5 689,-924.5 543,-924.5"/>
<text text-anchor="start" x="551" y="-942.5" font-family="Helvetica,sans-Serif" font-size="10.00">AsservEsialR::setSampling</text>
<text text-anchor="middle" x="616" y="-931.5" font-family="Helvetica,sans-Serif" font-size="10.00">Frequency</text>
</a>
</g>
</g>
<!-- Node1&#45;&gt;Node75 -->
<g id="edge44" class="edge">
<title>Node1&#45;&gt;Node75</title>
<path fill="none" stroke="midnightblue" d="M787.33,-815.83C772.73,-841.7 742.63,-888.66 704,-914.5 698.25,-918.34 691.91,-921.61 685.35,-924.37"/>
<polygon fill="midnightblue" stroke="midnightblue" points="790.41,-817.48 792.15,-807.03 784.27,-814.12 790.41,-817.48"/>
</g>
<!-- Node76 -->
<g id="node42" class="node">
<title>Node76</title>
<g id="a_node42"><a xlink:href="classAsservEsialR.html#a7a808d4593c732619d2d281faf150611" target="_top" xlink:title=" ">
<polygon fill="white" stroke="black" points="339,-936 339,-955 480,-955 480,-936 339,-936"/>
<text text-anchor="middle" x="409.5" y="-943" font-family="Helvetica,sans-Serif" font-size="10.00">AsservEsialR::startAsserv</text>
</a>
</g>
</g>
<!-- Node1&#45;&gt;Node76 -->
<g id="edge47" class="edge">
<title>Node1&#45;&gt;Node76</title>
<path fill="none" stroke="midnightblue" d="M792.91,-816.95C784.04,-853.58 759.23,-932.04 704,-964.5 615.74,-1016.37 485.69,-975.34 433.46,-955.11"/>
<polygon fill="midnightblue" stroke="midnightblue" points="796.37,-817.55 795.17,-807.02 789.54,-816 796.37,-817.55"/>
</g>
<!-- Node77 -->
<g id="node43" class="node">
<title>Node77</title>
<g id="a_node43"><a xlink:href="classAsservEsialR.html#a402c8f20afb5fb72549f009867b9f71c" target="_top" xlink:title="Arrete le moteur gauche.">
<polygon fill="white" stroke="black" points="539.5,-193 539.5,-212 692.5,-212 692.5,-193 539.5,-193"/>
<text text-anchor="middle" x="616" y="-200" font-family="Helvetica,sans-Serif" font-size="10.00">AsservEsialR::stopMotorLeft</text>
</a>
</g>
</g>
<!-- Node1&#45;&gt;Node77 -->
<g id="edge48" class="edge">
<title>Node1&#45;&gt;Node77</title>
<path fill="none" stroke="midnightblue" d="M796.66,-777.76C794.66,-686.38 781.72,-305.49 704,-222.5 700.08,-218.31 695.48,-214.92 690.47,-212.18"/>
<polygon fill="midnightblue" stroke="midnightblue" points="793.16,-777.92 796.86,-787.85 800.16,-777.78 793.16,-777.92"/>
</g>
<!-- Node78 -->
<g id="node44" class="node">
<title>Node78</title>
<g id="a_node44"><a xlink:href="classAsservEsialR.html#a3ef22117ab4bbc5113863599fb0896fe" target="_top" xlink:title="Arrete le moteur droit.">
<polygon fill="white" stroke="black" points="535.5,-155 535.5,-174 696.5,-174 696.5,-155 535.5,-155"/>
<text text-anchor="middle" x="616" y="-162" font-family="Helvetica,sans-Serif" font-size="10.00">AsservEsialR::stopMotorRight</text>
</a>
</g>
</g>
<!-- Node1&#45;&gt;Node78 -->
<g id="edge49" class="edge">
<title>Node1&#45;&gt;Node78</title>
<path fill="none" stroke="midnightblue" d="M796.9,-777.62C795.99,-682.21 787.25,-272.32 704,-183.5 700.51,-179.78 696.48,-176.7 692.09,-174.16"/>
<polygon fill="midnightblue" stroke="midnightblue" points="793.4,-777.68 796.97,-787.65 800.4,-777.62 793.4,-777.68"/>
</g>
<!-- Node79 -->
<g id="node45" class="node">
<title>Node79</title>
<g id="a_node45"><a xlink:href="classAsservEsialR.html#a05cd5a747ca05ea8f178588a18aa873f" target="_top" xlink:title="Arrete les deux moteurs.">
<polygon fill="white" stroke="black" points="546,-117 546,-136 686,-136 686,-117 546,-117"/>
<text text-anchor="middle" x="616" y="-124" font-family="Helvetica,sans-Serif" font-size="10.00">AsservEsialR::stopMotors</text>
</a>
</g>
</g>
<!-- Node1&#45;&gt;Node79 -->
<g id="edge50" class="edge">
<title>Node1&#45;&gt;Node79</title>
<path fill="none" stroke="midnightblue" d="M797.09,-777.97C797.14,-679.73 792.34,-240.57 704,-145.5 699.05,-140.18 692.99,-136.17 686.39,-133.17"/>
<polygon fill="midnightblue" stroke="midnightblue" points="793.59,-777.98 797.07,-787.99 800.59,-778 793.59,-777.98"/>
</g>
<!-- Node80 -->
<g id="node46" class="node">
<title>Node80</title>
<g id="a_node46"><a xlink:href="classAsservEsialR.html#a1cc2e13537bf94f214d94b67a0a39cde" target="_top" xlink:title=" ">
<polygon fill="white" stroke="black" points="539.5,-79 539.5,-98 692.5,-98 692.5,-79 539.5,-79"/>
<text text-anchor="middle" x="616" y="-86" font-family="Helvetica,sans-Serif" font-size="10.00">AsservEsialR::waitEndOfTraj</text>
</a>
</g>
</g>
<!-- Node1&#45;&gt;Node80 -->
<g id="edge51" class="edge">
<title>Node1&#45;&gt;Node80</title>
<path fill="none" stroke="midnightblue" d="M797.26,-777.81C798.2,-675.84 797.3,-208.68 704,-107.5 700.54,-103.75 696.53,-100.65 692.16,-98.1"/>
<polygon fill="midnightblue" stroke="midnightblue" points="793.76,-777.89 797.15,-787.93 800.76,-777.97 793.76,-777.89"/>
</g>
<!-- Node13 -->
<g id="node13" class="node">
<title>Node13</title>
<g id="a_node13"><a xlink:href="classAsservEsialR.html#adf00fba115e602267a590236182094ac" target="_top" xlink:title="Assisted movement mode =)">
<polygon fill="white" stroke="black" points="349.5,-886.5 349.5,-916.5 469.5,-916.5 469.5,-886.5 349.5,-886.5"/>
<text text-anchor="start" x="357.5" y="-904.5" font-family="Helvetica,sans-Serif" font-size="10.00">AsservEsialR::motion</text>
<text text-anchor="middle" x="409.5" y="-893.5" font-family="Helvetica,sans-Serif" font-size="10.00">_ActivateManager</text>
</a>
</g>
</g>
<!-- Node12&#45;&gt;Node13 -->
<g id="edge12" class="edge">
<title>Node12&#45;&gt;Node13</title>
<path fill="none" stroke="midnightblue" d="M538.59,-897.74C515.85,-898.41 491.29,-899.13 469.82,-899.76"/>
<polygon fill="midnightblue" stroke="midnightblue" points="538.99,-901.23 548.89,-897.44 538.79,-894.23 538.99,-901.23"/>
</g>
<!-- Node12&#45;&gt;Node15 -->
<g id="edge14" class="edge">
<title>Node12&#45;&gt;Node15</title>
<path fill="none" stroke="midnightblue" d="M553.55,-884.08C524.29,-878.64 489.7,-872.22 461.86,-867.04"/>
<polygon fill="midnightblue" stroke="midnightblue" points="553.19,-887.57 563.66,-885.96 554.47,-880.69 553.19,-887.57"/>
</g>
<!-- Node14 -->
<g id="node14" class="node">
<title>Node14</title>
<g id="a_node14"><a xlink:href="classOPOS6UL__AsservExtended.html#a1f17c09c76670c49c1272676879ef48a" target="_top" xlink:title="Démarre le timer de mouvement et l&#39;odométrie.">
<polygon fill="white" stroke="black" points="145,-908.5 145,-938.5 291,-938.5 291,-908.5 145,-908.5"/>
<text text-anchor="start" x="153" y="-926.5" font-family="Helvetica,sans-Serif" font-size="10.00">OPOS6UL_AsservExtended</text>
<text text-anchor="middle" x="218" y="-915.5" font-family="Helvetica,sans-Serif" font-size="10.00">::startMotionTimerAndOdo</text>
</a>
</g>
</g>
<!-- Node13&#45;&gt;Node14 -->
<g id="edge13" class="edge">
<title>Node13&#45;&gt;Node14</title>
<path fill="none" stroke="midnightblue" d="M339.18,-909.55C323.51,-911.37 306.83,-913.3 291.05,-915.14"/>
<polygon fill="midnightblue" stroke="midnightblue" points="339.79,-913 349.32,-908.37 338.98,-906.05 339.79,-913"/>
</g>
<!-- Node19 -->
<g id="node19" class="node">
<title>Node19</title>
<g id="a_node19"><a xlink:href="classAsserv.html#a8d3855dc9eddaff07b58a7a01e2024c3" target="_top" xlink:title=" ">
<polygon fill="white" stroke="black" points="357.5,-717 357.5,-736 461.5,-736 461.5,-717 357.5,-717"/>
<text text-anchor="middle" x="409.5" y="-724" font-family="Helvetica,sans-Serif" font-size="10.00">Asserv::gotoChain</text>
</a>
</g>
</g>
<!-- Node18&#45;&gt;Node19 -->
<g id="edge18" class="edge">
<title>Node18&#45;&gt;Node19</title>
<path fill="none" stroke="midnightblue" d="M545.5,-726.5C517.98,-726.5 486.92,-726.5 461.54,-726.5"/>
<polygon fill="midnightblue" stroke="midnightblue" points="545.85,-730 555.85,-726.5 545.85,-723 545.85,-730"/>
</g>
<!-- Node21 -->
<g id="node21" class="node">
<title>Node21</title>
<g id="a_node21"><a xlink:href="classAsserv.html#af02450d4e92f864b844a63ffe6fb16d3" target="_top" xlink:title=" ">
<polygon fill="white" stroke="black" points="337.5,-668 337.5,-687 481.5,-687 481.5,-668 337.5,-668"/>
<text text-anchor="middle" x="409.5" y="-675" font-family="Helvetica,sans-Serif" font-size="10.00">Asserv::gotoReverseChain</text>
</a>
</g>
</g>
<!-- Node20&#45;&gt;Node21 -->
<g id="edge20" class="edge">
<title>Node20&#45;&gt;Node21</title>
<path fill="none" stroke="midnightblue" d="M545.62,-677.5C525.06,-677.5 502.52,-677.5 481.84,-677.5"/>
<polygon fill="midnightblue" stroke="midnightblue" points="545.85,-681 555.85,-677.5 545.85,-674 545.85,-681"/>
</g>
<!-- Node22&#45;&gt;Node2 -->
<g id="edge22" class="edge">
<title>Node22&#45;&gt;Node2</title>
<path fill="none" stroke="midnightblue" d="M553.55,-1452.92C524.29,-1458.36 489.7,-1464.78 461.86,-1469.96"/>
<polygon fill="midnightblue" stroke="midnightblue" points="554.47,-1456.31 563.66,-1451.04 553.19,-1449.43 554.47,-1456.31"/>
</g>
<!-- Node23 -->
<g id="node23" class="node">
<title>Node23</title>
<g id="a_node23"><a xlink:href="classAsserv.html#a02914fbd6c3d2ee03c896cb7a9f86078" target="_top" xlink:title=" ">
<polygon fill="white" stroke="red" points="343.5,-1432 343.5,-1451 475.5,-1451 475.5,-1432 343.5,-1432"/>
<text text-anchor="middle" x="409.5" y="-1439" font-family="Helvetica,sans-Serif" font-size="10.00">Asserv::pos_getPosition</text>
</a>
</g>
</g>
<!-- Node22&#45;&gt;Node23 -->
<g id="edge23" class="edge">
<title>Node22&#45;&gt;Node23</title>
<path fill="none" stroke="midnightblue" d="M522.9,-1441.5C506.98,-1441.5 490.73,-1441.5 475.72,-1441.5"/>
<polygon fill="midnightblue" stroke="midnightblue" points="523.29,-1445 533.29,-1441.5 523.29,-1438 523.29,-1445"/>
</g>
<!-- Node24 -->
<g id="node24" class="node">
<title>Node24</title>
<g id="a_node24"><a xlink:href="classAsserv.html#a314e3ff9a8a538a23d26dcb802386024" target="_top" xlink:title=" ">
<polygon fill="white" stroke="black" points="149,-1524.5 149,-1554.5 287,-1554.5 287,-1524.5 149,-1524.5"/>
<text text-anchor="start" x="157" y="-1542.5" font-family="Helvetica,sans-Serif" font-size="10.00">Asserv::calculateDriftLeft</text>
<text text-anchor="middle" x="218" y="-1531.5" font-family="Helvetica,sans-Serif" font-size="10.00">SideAndSetPos</text>
</a>
</g>
</g>
<!-- Node23&#45;&gt;Node24 -->
<g id="edge24" class="edge">
<title>Node23&#45;&gt;Node24</title>
<path fill="none" stroke="midnightblue" d="M335.66,-1455.31C332.64,-1456.86 329.74,-1458.59 327,-1460.5 303.06,-1477.24 314.14,-1497.67 291,-1515.5 286.51,-1518.96 281.5,-1521.93 276.27,-1524.49"/>
<polygon fill="midnightblue" stroke="midnightblue" points="337.29,-1458.41 345.01,-1451.15 334.45,-1452.02 337.29,-1458.41"/>
</g>
<!-- Node25 -->
<g id="node25" class="node">
<title>Node25</title>
<g id="a_node25"><a xlink:href="classAsserv.html#a9e997a871e745e687a4088103378bae3" target="_top" xlink:title=" ">
<polygon fill="white" stroke="black" points="145,-1475.5 145,-1505.5 291,-1505.5 291,-1475.5 145,-1475.5"/>
<text text-anchor="start" x="153" y="-1493.5" font-family="Helvetica,sans-Serif" font-size="10.00">Asserv::calculateDriftRight</text>
<text text-anchor="middle" x="218" y="-1482.5" font-family="Helvetica,sans-Serif" font-size="10.00">SideAndSetPos</text>
</a>
</g>
</g>
<!-- Node23&#45;&gt;Node25 -->
<g id="edge25" class="edge">
<title>Node23&#45;&gt;Node25</title>
<path fill="none" stroke="midnightblue" d="M356.16,-1453.36C346.45,-1455.66 336.4,-1458.1 327,-1460.5 308.8,-1465.15 288.98,-1470.55 271.34,-1475.49"/>
<polygon fill="midnightblue" stroke="midnightblue" points="357.18,-1456.72 366.12,-1451.03 355.58,-1449.9 357.18,-1456.72"/>
</g>
<!-- Node26 -->
<g id="node26" class="node">
<title>Node26</title>
<g id="a_node26"><a xlink:href="classOPOS6UL__AsservExtended.html#a4e96d47def0637c3f6e135a0a3ee3d1c" target="_top" xlink:title="Vérifie si une détection capteur correspond à une position dans le terrain.">
<polygon fill="white" stroke="black" points="145,-1426.5 145,-1456.5 291,-1456.5 291,-1426.5 145,-1426.5"/>
<text text-anchor="start" x="153" y="-1444.5" font-family="Helvetica,sans-Serif" font-size="10.00">OPOS6UL_AsservExtended</text>
<text text-anchor="middle" x="218" y="-1433.5" font-family="Helvetica,sans-Serif" font-size="10.00">::filtre_IsInsideTable</text>
</a>
</g>
</g>
<!-- Node23&#45;&gt;Node26 -->
<g id="edge26" class="edge">
<title>Node23&#45;&gt;Node26</title>
<path fill="none" stroke="midnightblue" d="M332.89,-1441.5C319.13,-1441.5 304.81,-1441.5 291.15,-1441.5"/>
<polygon fill="midnightblue" stroke="midnightblue" points="333.28,-1445 343.28,-1441.5 333.28,-1438 333.28,-1445"/>
</g>
<!-- Node27 -->
<g id="node27" class="node">
<title>Node27</title>
<g id="a_node27"><a xlink:href="classAsserv.html#a11fc2df956a191f42ab34088a7ae9ce0" target="_top" xlink:title=" ">
<polygon fill="white" stroke="red" points="157.5,-1388 157.5,-1407 278.5,-1407 278.5,-1388 157.5,-1388"/>
<text text-anchor="middle" x="218" y="-1395" font-family="Helvetica,sans-Serif" font-size="10.00">Asserv::pos_getTheta</text>
</a>
</g>
</g>
<!-- Node23&#45;&gt;Node27 -->
<g id="edge27" class="edge">
<title>Node23&#45;&gt;Node27</title>
<path fill="none" stroke="midnightblue" d="M357.35,-1429.62C326.82,-1422.54 288.58,-1413.66 260.04,-1407.03"/>
<polygon fill="midnightblue" stroke="midnightblue" points="356.85,-1433.1 367.38,-1431.95 358.43,-1426.28 356.85,-1433.1"/>
</g>
<!-- Node53 -->
<g id="node28" class="node">
<title>Node53</title>
<g id="a_node28"><a xlink:href="classAsserv.html#a871088db63d1a0e20ccbf387c6f895db" target="_top" xlink:title=" ">
<polygon fill="white" stroke="red" points="155.5,-1350 155.5,-1369 280.5,-1369 280.5,-1350 155.5,-1350"/>
<text text-anchor="middle" x="218" y="-1357" font-family="Helvetica,sans-Serif" font-size="10.00">Asserv::pos_getX_mm</text>
</a>
</g>
</g>
<!-- Node23&#45;&gt;Node53 -->
<g id="edge28" class="edge">
<title>Node23&#45;&gt;Node53</title>
<path fill="none" stroke="midnightblue" d="M384.69,-1426.58C361.5,-1412.58 324.88,-1391.84 291,-1378.5 281.74,-1374.85 271.53,-1371.68 261.79,-1369.03"/>
<polygon fill="midnightblue" stroke="midnightblue" points="383.11,-1429.72 393.47,-1431.95 386.76,-1423.75 383.11,-1429.72"/>
</g>
<!-- Node49 -->
<g id="node29" class="node">
<title>Node49</title>
<g id="a_node29"><a xlink:href="classO__SensorsTest.html#ae3b998034225e16586ded4ba3bd419e5" target="_top" xlink:title="Execute le test.">
<polygon fill="white" stroke="black" points="0,-1350 0,-1369 109,-1369 109,-1350 0,-1350"/>
<text text-anchor="middle" x="54.5" y="-1357" font-family="Helvetica,sans-Serif" font-size="10.00">O_SensorsTest::run</text>
</a>
</g>
</g>
<!-- Node23&#45;&gt;Node49 -->
<g id="edge32" class="edge">
<title>Node23&#45;&gt;Node49</title>
<path fill="none" stroke="midnightblue" d="M334.15,-1455.06C331.62,-1456.69 329.23,-1458.49 327,-1460.5 290.66,-1493.24 330.84,-1536.13 291,-1564.5 238.14,-1602.14 199.29,-1600.04 145,-1564.5 74.49,-1518.35 59.21,-1403.14 56.19,-1369.11"/>
<polygon fill="midnightblue" stroke="midnightblue" points="336.02,-1458.03 343.17,-1450.21 332.7,-1451.87 336.02,-1458.03"/>
</g>
<!-- Node56 -->
<g id="node30" class="node">
<title>Node56</title>
<g id="a_node30"><a xlink:href="classAsserv.html#a2cca6401ccf8cfc7cc927177cba14f4a" target="_top" xlink:title=" ">
<polygon fill="white" stroke="red" points="156,-1312 156,-1331 280,-1331 280,-1312 156,-1312"/>
<text text-anchor="middle" x="218" y="-1319" font-family="Helvetica,sans-Serif" font-size="10.00">Asserv::pos_getY_mm</text>
</a>
</g>
</g>
<!-- Node23&#45;&gt;Node56 -->
<g id="edge30" class="edge">
<title>Node23&#45;&gt;Node56</title>
<path fill="none" stroke="midnightblue" d="M393.33,-1424.32C372.48,-1401.76 332.78,-1362.46 291,-1340.5 283.68,-1336.65 275.51,-1333.54 267.39,-1331.03"/>
<polygon fill="midnightblue" stroke="midnightblue" points="390.82,-1426.76 400.13,-1431.81 396,-1422.05 390.82,-1426.76"/>
</g>
<!-- Node53&#45;&gt;Node49 -->
<g id="edge29" class="edge">
<title>Node53&#45;&gt;Node49</title>
<path fill="none" stroke="midnightblue" d="M145.37,-1359.5C133.21,-1359.5 120.78,-1359.5 109.19,-1359.5"/>
<polygon fill="midnightblue" stroke="midnightblue" points="145.48,-1363 155.48,-1359.5 145.48,-1356 145.48,-1363"/>
</g>
<!-- Node56&#45;&gt;Node49 -->
<g id="edge31" class="edge">
<title>Node56&#45;&gt;Node49</title>
<path fill="none" stroke="midnightblue" d="M166.44,-1333.4C143.74,-1338.74 117.32,-1344.95 95.96,-1349.98"/>
<polygon fill="midnightblue" stroke="midnightblue" points="167.31,-1336.79 176.25,-1331.09 165.71,-1329.97 167.31,-1336.79"/>
</g>
<!-- Node62 -->
<g id="node33" class="node">
<title>Node62</title>
<g id="a_node33"><a xlink:href="classAsserv.html#a22cbdc18185f0d910473b8a5bb434c84" target="_top" xlink:title=" ">
<polygon fill="white" stroke="red" points="327,-570 327,-589 492,-589 492,-570 327,-570"/>
<text text-anchor="middle" x="409.5" y="-577" font-family="Helvetica,sans-Serif" font-size="10.00">Asserv::resetEmergencyOnTraj</text>
</a>
</g>
</g>
<!-- Node61&#45;&gt;Node62 -->
<g id="edge35" class="edge">
<title>Node61&#45;&gt;Node62</title>
<path fill="none" stroke="midnightblue" d="M542.75,-579.5C526.34,-579.5 508.79,-579.5 492.02,-579.5"/>
<polygon fill="midnightblue" stroke="midnightblue" points="542.81,-583 552.81,-579.5 542.81,-576 542.81,-583"/>
</g>
<!-- Node75&#45;&gt;Node76 -->
<g id="edge45" class="edge">
<title>Node75&#45;&gt;Node76</title>
<path fill="none" stroke="midnightblue" d="M532.76,-941.91C515.34,-942.42 497.13,-942.96 480.23,-943.45"/>
<polygon fill="midnightblue" stroke="midnightblue" points="533.01,-945.41 542.9,-941.62 532.8,-938.41 533.01,-945.41"/>
</g>
<!-- Node76&#45;&gt;Node14 -->
<g id="edge46" class="edge">
<title>Node76&#45;&gt;Node14</title>
<path fill="none" stroke="midnightblue" d="M328.44,-936.21C316.06,-934.77 303.34,-933.29 291.15,-931.88"/>
<polygon fill="midnightblue" stroke="midnightblue" points="328.41,-939.73 338.74,-937.4 329.21,-932.77 328.41,-939.73"/>
</g>
<!-- Node81 -->
<g id="node47" class="node">
<title>Node81</title>
<g id="a_node47"><a xlink:href="classAsservEsialR.html#a08fc904da0513ea35c524958f8cc6df0" target="_top" xlink:title=" ">
<polygon fill="white" stroke="red" points="349.5,-147.5 349.5,-177.5 469.5,-177.5 469.5,-147.5 349.5,-147.5"/>
<text text-anchor="start" x="357.5" y="-165.5" font-family="Helvetica,sans-Serif" font-size="10.00">AsservEsialR::motion</text>
<text text-anchor="middle" x="409.5" y="-154.5" font-family="Helvetica,sans-Serif" font-size="10.00">_DoDirectLine</text>
</a>
</g>
</g>
<!-- Node80&#45;&gt;Node81 -->
<g id="edge52" class="edge">
<title>Node80&#45;&gt;Node81</title>
<path fill="none" stroke="midnightblue" d="M543.58,-101.12C538.2,-102.97 532.95,-105.08 528,-107.5 509.29,-116.65 510.32,-127.58 492,-137.5 484.97,-141.3 477.28,-144.62 469.52,-147.47"/>
<polygon fill="midnightblue" stroke="midnightblue" points="544.86,-104.39 553.37,-98.08 542.78,-97.7 544.86,-104.39"/>
</g>
<!-- Node82 -->
<g id="node48" class="node">
<title>Node82</title>
<g id="a_node48"><a xlink:href="classAsservEsialR.html#a18f0ce02a39c7a1cadf7cddf15f875d5" target="_top" xlink:title="Oriente le robot face a un point.">
<polygon fill="white" stroke="red" points="349.5,-98.5 349.5,-128.5 469.5,-128.5 469.5,-98.5 349.5,-98.5"/>
<text text-anchor="start" x="357.5" y="-116.5" font-family="Helvetica,sans-Serif" font-size="10.00">AsservEsialR::motion</text>
<text text-anchor="middle" x="409.5" y="-105.5" font-family="Helvetica,sans-Serif" font-size="10.00">_DoFace</text>
</a>
</g>
</g>
<!-- Node80&#45;&gt;Node82 -->
<g id="edge53" class="edge">
<title>Node80&#45;&gt;Node82</title>
<path fill="none" stroke="midnightblue" d="M529.36,-98.97C509.31,-101.42 488.39,-103.98 469.79,-106.25"/>
<polygon fill="midnightblue" stroke="midnightblue" points="529.93,-102.43 539.43,-97.74 529.08,-95.48 529.93,-102.43"/>
</g>
<!-- Node88 -->
<g id="node49" class="node">
<title>Node88</title>
<g id="a_node49"><a xlink:href="classAsservEsialR.html#a163832308cf0ea6fb9826fd93950c7bf" target="_top" xlink:title="Avance ou recule en ligne droite.">
<polygon fill="white" stroke="red" points="349.5,-49.5 349.5,-79.5 469.5,-79.5 469.5,-49.5 349.5,-49.5"/>
<text text-anchor="start" x="357.5" y="-67.5" font-family="Helvetica,sans-Serif" font-size="10.00">AsservEsialR::motion</text>
<text text-anchor="middle" x="409.5" y="-56.5" font-family="Helvetica,sans-Serif" font-size="10.00">_DoLine</text>
</a>
</g>
</g>
<!-- Node80&#45;&gt;Node88 -->
<g id="edge54" class="edge">
<title>Node80&#45;&gt;Node88</title>
<path fill="none" stroke="midnightblue" d="M529.36,-78.45C509.31,-76.1 488.39,-73.64 469.79,-71.46"/>
<polygon fill="midnightblue" stroke="midnightblue" points="529.09,-81.94 539.43,-79.63 529.91,-74.99 529.09,-81.94"/>
</g>
<!-- Node90 -->
<g id="node50" class="node">
<title>Node90</title>
<g id="a_node50"><a xlink:href="classAsservEsialR.html#a71a6761ebf937db24c35bd559cd9d836" target="_top" xlink:title="Effectue une rotation sur place.">
<polygon fill="white" stroke="red" points="349.5,-0.5 349.5,-30.5 469.5,-30.5 469.5,-0.5 349.5,-0.5"/>
<text text-anchor="start" x="357.5" y="-18.5" font-family="Helvetica,sans-Serif" font-size="10.00">AsservEsialR::motion</text>
<text text-anchor="middle" x="409.5" y="-7.5" font-family="Helvetica,sans-Serif" font-size="10.00">_DoRotate</text>
</a>
</g>
</g>
<!-- Node80&#45;&gt;Node90 -->
<g id="edge55" class="edge">
<title>Node80&#45;&gt;Node90</title>
<path fill="none" stroke="midnightblue" d="M583.34,-74.95C558.67,-64.62 523.45,-50.37 492,-39.5 483.08,-36.42 473.52,-33.37 464.21,-30.55"/>
<polygon fill="midnightblue" stroke="midnightblue" points="581.99,-78.18 592.57,-78.83 584.71,-71.73 581.99,-78.18"/>
</g>
</g>
</svg>
