<?xml version="1.0" encoding="UTF-8" standalone="no"?>
<!DOCTYPE svg PUBLIC "-//W3C//DTD SVG 1.1//EN"
 "http://www.w3.org/Graphics/SVG/1.1/DTD/svg11.dtd">
<!-- Generated by graphviz version 2.43.0 (0)
 -->
<!-- Title: OPOS6UL_RobotExtended::displayPoints Pages: 1 -->
<svg width="327pt" height="78pt"
 viewBox="0.00 0.00 327.00 77.50" xmlns="http://www.w3.org/2000/svg" xmlns:xlink="http://www.w3.org/1999/xlink">
<g id="graph0" class="graph" transform="scale(1 1) rotate(0) translate(4 73.5)">
<title>OPOS6UL_RobotExtended::displayPoints</title>
<polygon fill="white" stroke="transparent" points="-4,4 -4,-73.5 323,-73.5 323,4 -4,4"/>
<!-- Node1 -->
<g id="node1" class="node">
<title>Node1</title>
<g id="a_node1"><a xlink:title="Affiche les points accumulés pendant le match.">
<polygon fill="#bfbfbf" stroke="black" points="177,-22.5 177,-52.5 319,-52.5 319,-22.5 177,-22.5"/>
<text text-anchor="start" x="185" y="-40.5" font-family="Helvetica,sans-Serif" font-size="10.00">OPOS6UL_RobotExtended</text>
<text text-anchor="middle" x="248" y="-29.5" font-family="Helvetica,sans-Serif" font-size="10.00">::displayPoints</text>
</a>
</g>
</g>
<!-- Node2 -->
<g id="node2" class="node">
<title>Node2</title>
<g id="a_node2"><a xlink:href="classO__State__Init.html#abc19788b7457d1f819245dd28367fe91" target="_top" xlink:title="Exécute l&#39;état d&#39;initialisation.">
<polygon fill="white" stroke="black" points="10.5,-50 10.5,-69 130.5,-69 130.5,-50 10.5,-50"/>
<text text-anchor="middle" x="70.5" y="-57" font-family="Helvetica,sans-Serif" font-size="10.00">O_State_Init::execute</text>
</a>
</g>
</g>
<!-- Node1&#45;&gt;Node2 -->
<g id="edge1" class="edge">
<title>Node1&#45;&gt;Node2</title>
<path fill="none" stroke="midnightblue" d="M166.71,-47.57C154.51,-49.09 142.13,-50.65 130.5,-52.1"/>
<polygon fill="midnightblue" stroke="midnightblue" points="167.39,-51.01 176.88,-46.29 166.52,-44.06 167.39,-51.01"/>
</g>
<!-- Node3 -->
<g id="node3" class="node">
<title>Node3</title>
<g id="a_node3"><a xlink:href="classO__State__WaitEndOfMatch.html#aa73613440b37c8dd42181e2e0265ae86" target="_top" xlink:title="Exécute l&#39;état d&#39;attente de fin de match.">
<polygon fill="white" stroke="black" points="0,-0.5 0,-30.5 141,-30.5 141,-0.5 0,-0.5"/>
<text text-anchor="start" x="8" y="-18.5" font-family="Helvetica,sans-Serif" font-size="10.00">O_State_WaitEndOfMatch</text>
<text text-anchor="middle" x="70.5" y="-7.5" font-family="Helvetica,sans-Serif" font-size="10.00">::execute</text>
</a>
</g>
</g>
<!-- Node1&#45;&gt;Node3 -->
<g id="edge2" class="edge">
<title>Node1&#45;&gt;Node3</title>
<path fill="none" stroke="midnightblue" d="M166.89,-27.46C158.32,-26.38 149.65,-25.3 141.22,-24.24"/>
<polygon fill="midnightblue" stroke="midnightblue" points="166.52,-30.94 176.88,-28.71 167.39,-23.99 166.52,-30.94"/>
</g>
</g>
</svg>
