<?xml version="1.0" encoding="UTF-8" standalone="no"?>
<!DOCTYPE svg PUBLIC "-//W3C//DTD SVG 1.1//EN"
 "http://www.w3.org/Graphics/SVG/1.1/DTD/svg11.dtd">
<!-- Generated by graphviz version 2.43.0 (0)
 -->
<!-- Title: Asserv::Asserv Pages: 1 -->
<svg width="433pt" height="66pt"
 viewBox="0.00 0.00 433.00 66.00" xmlns="http://www.w3.org/2000/svg" xmlns:xlink="http://www.w3.org/1999/xlink">
<g id="graph0" class="graph" transform="scale(1 1) rotate(0) translate(4 62)">
<title>Asserv::Asserv</title>
<polygon fill="white" stroke="transparent" points="-4,4 -4,-62 429,-62 429,4 -4,4"/>
<!-- Node1 -->
<g id="node1" class="node">
<title>Node1</title>
<g id="a_node1"><a xlink:title="Constructor.">
<polygon fill="#bfbfbf" stroke="black" points="0,-19.5 0,-38.5 88,-38.5 88,-19.5 0,-19.5"/>
<text text-anchor="middle" x="44" y="-26.5" font-family="Helvetica,sans-Serif" font-size="10.00">Asserv::Asserv</text>
</a>
</g>
</g>
<!-- Node2 -->
<g id="node2" class="node">
<title>Node2</title>
<g id="a_node2"><a xlink:href="classAAsservDriver.html#a33d92438f9ed0e5fb526be0727b1e174" target="_top" xlink:title="Cree l&#39;instance concrete selon la plateforme.">
<polygon fill="white" stroke="black" points="124,-38.5 124,-57.5 247,-57.5 247,-38.5 124,-38.5"/>
<text text-anchor="middle" x="185.5" y="-45.5" font-family="Helvetica,sans-Serif" font-size="10.00">AAsservDriver::create</text>
</a>
</g>
</g>
<!-- Node1&#45;&gt;Node2 -->
<g id="edge1" class="edge">
<title>Node1&#45;&gt;Node2</title>
<path fill="none" stroke="midnightblue" d="M88.37,-34.91C96.48,-36.01 105.14,-37.19 113.82,-38.37"/>
<polygon fill="midnightblue" stroke="midnightblue" points="113.61,-41.88 123.99,-39.76 114.56,-34.94 113.61,-41.88"/>
</g>
<!-- Node4 -->
<g id="node4" class="node">
<title>Node4</title>
<g id="a_node4"><a xlink:href="classRobot.html#a6a118c509a6d7ab35cdf96203eb0238a" target="_top" xlink:title="Retourne la position partagée du robot (pour communication inter&#45;threads).">
<polygon fill="white" stroke="black" points="124,-0.5 124,-19.5 247,-19.5 247,-0.5 124,-0.5"/>
<text text-anchor="middle" x="185.5" y="-7.5" font-family="Helvetica,sans-Serif" font-size="10.00">Robot::sharedPosition</text>
</a>
</g>
</g>
<!-- Node1&#45;&gt;Node4 -->
<g id="edge3" class="edge">
<title>Node1&#45;&gt;Node4</title>
<path fill="none" stroke="midnightblue" d="M88.37,-23.09C96.48,-21.99 105.14,-20.81 113.82,-19.63"/>
<polygon fill="midnightblue" stroke="midnightblue" points="114.56,-23.06 123.99,-18.24 113.61,-16.12 114.56,-23.06"/>
</g>
<!-- Node3 -->
<g id="node3" class="node">
<title>Node3</title>
<g id="a_node3"><a xlink:href="classHardwareConfig.html#ac025d3170ffc737f6ac5335e944ed19f" target="_top" xlink:title="Retourne l&#39;instance unique.">
<polygon fill="white" stroke="black" points="283,-38.5 283,-57.5 425,-57.5 425,-38.5 283,-38.5"/>
<text text-anchor="middle" x="354" y="-45.5" font-family="Helvetica,sans-Serif" font-size="10.00">HardwareConfig::instance</text>
</a>
</g>
</g>
<!-- Node2&#45;&gt;Node3 -->
<g id="edge2" class="edge">
<title>Node2&#45;&gt;Node3</title>
<path fill="none" stroke="midnightblue" d="M247.08,-48C255.44,-48 264.12,-48 272.76,-48"/>
<polygon fill="midnightblue" stroke="midnightblue" points="272.86,-51.5 282.86,-48 272.86,-44.5 272.86,-51.5"/>
</g>
</g>
</svg>
