<?xml version="1.0" encoding="UTF-8" standalone="no"?>
<!DOCTYPE svg PUBLIC "-//W3C//DTD SVG 1.1//EN"
 "http://www.w3.org/Graphics/SVG/1.1/DTD/svg11.dtd">
<!-- Generated by graphviz version 2.43.0 (0)
 -->
<!-- Title: AsservEsialR::getCountsInternal Pages: 1 -->
<svg width="723pt" height="241pt"
 viewBox="0.00 0.00 723.00 240.50" xmlns="http://www.w3.org/2000/svg" xmlns:xlink="http://www.w3.org/1999/xlink">
<g id="graph0" class="graph" transform="scale(1 1) rotate(0) translate(4 236.5)">
<title>AsservEsialR::getCountsInternal</title>
<polygon fill="white" stroke="transparent" points="-4,4 -4,-236.5 719,-236.5 719,4 -4,4"/>
<!-- Node1 -->
<g id="node1" class="node">
<title>Node1</title>
<g id="a_node1"><a xlink:title="Lit les compteurs internes cumules.">
<polygon fill="#bfbfbf" stroke="black" points="0,-137 0,-156 173,-156 173,-137 0,-137"/>
<text text-anchor="middle" x="86.5" y="-144" font-family="Helvetica,sans-Serif" font-size="10.00">AsservEsialR::getCountsInternal</text>
</a>
</g>
</g>
<!-- Node2 -->
<g id="node2" class="node">
<title>Node2</title>
<g id="a_node2"><a xlink:href="namespacelogs.html#ac6f325c6cfe6189bc8e243daa184453b" target="_top" xlink:title="Cette méthode permet de finir les flux de construction par la notation.">
<polygon fill="white" stroke="black" points="236.5,-175 236.5,-194 297.5,-194 297.5,-175 236.5,-175"/>
<text text-anchor="middle" x="267" y="-182" font-family="Helvetica,sans-Serif" font-size="10.00">logs::end</text>
</a>
</g>
</g>
<!-- Node1&#45;&gt;Node2 -->
<g id="edge1" class="edge">
<title>Node1&#45;&gt;Node2</title>
<path fill="none" stroke="midnightblue" d="M132.54,-156.09C161.39,-162.23 198.48,-170.13 226.24,-176.04"/>
<polygon fill="midnightblue" stroke="midnightblue" points="225.87,-179.54 236.38,-178.19 227.33,-172.69 225.87,-179.54"/>
</g>
<!-- Node7 -->
<g id="node7" class="node">
<title>Node7</title>
<g id="a_node7"><a xlink:href="classlogs_1_1Logger.html#a8b6a2019233bc44b3c3c86c653910831" target="_top" xlink:title="Trace un message de niveau ERROR.">
<polygon fill="white" stroke="black" points="392.5,-137 392.5,-156 497.5,-156 497.5,-137 392.5,-137"/>
<text text-anchor="middle" x="445" y="-144" font-family="Helvetica,sans-Serif" font-size="10.00">logs::Logger::error</text>
</a>
</g>
</g>
<!-- Node1&#45;&gt;Node7 -->
<g id="edge6" class="edge">
<title>Node1&#45;&gt;Node7</title>
<path fill="none" stroke="midnightblue" d="M173.34,-146.5C237.78,-146.5 324.47,-146.5 382.2,-146.5"/>
<polygon fill="midnightblue" stroke="midnightblue" points="382.27,-150 392.27,-146.5 382.27,-143 382.27,-150"/>
</g>
<!-- Node8 -->
<g id="node8" class="node">
<title>Node8</title>
<g id="a_node8"><a xlink:href="classAsservEsialR.html#a7d6428bb79534a27e2b8b2e1baae943b" target="_top" xlink:title="Retourne le Logger associe a la classe AsservEsialR.">
<polygon fill="white" stroke="black" points="209,-96 209,-115 325,-115 325,-96 209,-96"/>
<text text-anchor="middle" x="267" y="-103" font-family="Helvetica,sans-Serif" font-size="10.00">AsservEsialR::logger</text>
</a>
</g>
</g>
<!-- Node1&#45;&gt;Node8 -->
<g id="edge8" class="edge">
<title>Node1&#45;&gt;Node8</title>
<path fill="none" stroke="midnightblue" d="M128.9,-136.99C154.49,-131.11 187.53,-123.52 214.77,-117.27"/>
<polygon fill="midnightblue" stroke="midnightblue" points="215.55,-120.68 224.52,-115.03 213.99,-113.86 215.55,-120.68"/>
</g>
<!-- Node3 -->
<g id="node3" class="node">
<title>Node3</title>
<g id="a_node3"><a xlink:href="classlogs_1_1Logger_1_1LoggerBuffer.html#a0e4fd77693fd899ec1b0670354f93a02" target="_top" xlink:title="Cette méthode valide le message en cours de construction et le transmet au Logger de référence.">
<polygon fill="white" stroke="black" points="361,-175 361,-194 529,-194 529,-175 361,-175"/>
<text text-anchor="middle" x="445" y="-182" font-family="Helvetica,sans-Serif" font-size="10.00">logs::Logger::LoggerBuffer::end</text>
</a>
</g>
</g>
<!-- Node2&#45;&gt;Node3 -->
<g id="edge2" class="edge">
<title>Node2&#45;&gt;Node3</title>
<path fill="none" stroke="midnightblue" d="M297.86,-184.5C312.72,-184.5 331.59,-184.5 350.8,-184.5"/>
<polygon fill="midnightblue" stroke="midnightblue" points="350.85,-188 360.85,-184.5 350.85,-181 350.85,-188"/>
</g>
<!-- Node4 -->
<g id="node4" class="node">
<title>Node4</title>
<g id="a_node4"><a xlink:href="classutils_1_1Mutex.html#aa584b418a5ef484f76b93e361a1d7e32" target="_top" xlink:title="Verrouille le mutex. Cette méthode doit être appelée avant d&#39;utiliser la ressource associée....">
<polygon fill="white" stroke="black" points="589.5,-213 589.5,-232 690.5,-232 690.5,-213 589.5,-213"/>
<text text-anchor="middle" x="640" y="-220" font-family="Helvetica,sans-Serif" font-size="10.00">utils::Mutex::lock</text>
</a>
</g>
</g>
<!-- Node3&#45;&gt;Node4 -->
<g id="edge3" class="edge">
<title>Node3&#45;&gt;Node4</title>
<path fill="none" stroke="midnightblue" d="M494.7,-194.09C520.86,-199.24 553.28,-205.62 580.77,-211.03"/>
<polygon fill="midnightblue" stroke="midnightblue" points="580.16,-214.48 590.65,-212.98 581.51,-207.61 580.16,-214.48"/>
</g>
<!-- Node5 -->
<g id="node5" class="node">
<title>Node5</title>
<g id="a_node5"><a xlink:href="classutils_1_1Mutex.html#a59b2079dc7f803d49f78ac9c04406cd3" target="_top" xlink:title="Déverrouille le mutex. Cette méthode doit être appelée après avoir utiliser la ressource associée.">
<polygon fill="white" stroke="black" points="583.5,-175 583.5,-194 696.5,-194 696.5,-175 583.5,-175"/>
<text text-anchor="middle" x="640" y="-182" font-family="Helvetica,sans-Serif" font-size="10.00">utils::Mutex::unlock</text>
</a>
</g>
</g>
<!-- Node3&#45;&gt;Node5 -->
<g id="edge4" class="edge">
<title>Node3&#45;&gt;Node5</title>
<path fill="none" stroke="midnightblue" d="M529.25,-184.5C543.94,-184.5 559.06,-184.5 573.19,-184.5"/>
<polygon fill="midnightblue" stroke="midnightblue" points="573.29,-188 583.29,-184.5 573.29,-181 573.29,-188"/>
</g>
<!-- Node6 -->
<g id="node6" class="node">
<title>Node6</title>
<g id="a_node6"><a xlink:href="classlogs_1_1Logger.html#afa535aaf4891e02c4ff7f84d372b5b1b" target="_top" xlink:title="Méthode générique de trace d&#39;un message.">
<polygon fill="white" stroke="black" points="565,-137 565,-156 715,-156 715,-137 565,-137"/>
<text text-anchor="middle" x="640" y="-144" font-family="Helvetica,sans-Serif" font-size="10.00">logs::Logger::writeMessage</text>
</a>
</g>
</g>
<!-- Node3&#45;&gt;Node6 -->
<g id="edge5" class="edge">
<title>Node3&#45;&gt;Node6</title>
<path fill="none" stroke="midnightblue" d="M494.7,-174.91C520.86,-169.76 553.28,-163.38 580.77,-157.97"/>
<polygon fill="midnightblue" stroke="midnightblue" points="581.51,-161.39 590.65,-156.02 580.16,-154.52 581.51,-161.39"/>
</g>
<!-- Node7&#45;&gt;Node6 -->
<g id="edge7" class="edge">
<title>Node7&#45;&gt;Node6</title>
<path fill="none" stroke="midnightblue" d="M497.72,-146.5C515.22,-146.5 535.23,-146.5 554.59,-146.5"/>
<polygon fill="midnightblue" stroke="midnightblue" points="554.64,-150 564.64,-146.5 554.64,-143 554.64,-150"/>
</g>
<!-- Node9 -->
<g id="node9" class="node">
<title>Node9</title>
<g id="a_node9"><a xlink:href="classlogs_1_1LoggerFactory.html#a82585b5de73e471e06cafdccc3b3721e" target="_top" xlink:title="Cette méthode statique retourne un Logger en fonction de son nom.">
<polygon fill="white" stroke="black" points="389.5,-68.5 389.5,-98.5 500.5,-98.5 500.5,-68.5 389.5,-68.5"/>
<text text-anchor="start" x="397.5" y="-86.5" font-family="Helvetica,sans-Serif" font-size="10.00">logs::LoggerFactory</text>
<text text-anchor="middle" x="445" y="-75.5" font-family="Helvetica,sans-Serif" font-size="10.00">::logger</text>
</a>
</g>
</g>
<!-- Node8&#45;&gt;Node9 -->
<g id="edge9" class="edge">
<title>Node8&#45;&gt;Node9</title>
<path fill="none" stroke="midnightblue" d="M325.14,-98.36C342.34,-96.21 361.34,-93.83 379.01,-91.62"/>
<polygon fill="midnightblue" stroke="midnightblue" points="379.75,-95.06 389.24,-90.34 378.88,-88.11 379.75,-95.06"/>
</g>
<!-- Node10 -->
<g id="node10" class="node">
<title>Node10</title>
<g id="a_node10"><a xlink:href="classlogs_1_1LoggerFactory.html#ac89f19c0ffd71aa8cdc1c2d44c03809e" target="_top" xlink:title="Cette méthode ajoute un appender au système.">
<polygon fill="white" stroke="black" points="573,-99 573,-118 707,-118 707,-99 573,-99"/>
<text text-anchor="middle" x="640" y="-106" font-family="Helvetica,sans-Serif" font-size="10.00">logs::LoggerFactory::add</text>
</a>
</g>
</g>
<!-- Node9&#45;&gt;Node10 -->
<g id="edge10" class="edge">
<title>Node9&#45;&gt;Node10</title>
<path fill="none" stroke="midnightblue" d="M500.53,-90.56C519.88,-93.07 542.03,-95.94 562.85,-98.64"/>
<polygon fill="midnightblue" stroke="midnightblue" points="562.58,-102.13 572.95,-99.94 563.48,-95.19 562.58,-102.13"/>
</g>
<!-- Node11 -->
<g id="node11" class="node">
<title>Node11</title>
<g id="a_node11"><a xlink:href="classlogs_1_1LoggerFactory.html#a90478b91d7af2ef8841ded21e3521f69" target="_top" xlink:title="Cette méthode statique retourne l&#39;instance unique de la classe LoggerFactory.">
<polygon fill="white" stroke="black" points="584.5,-49.5 584.5,-79.5 695.5,-79.5 695.5,-49.5 584.5,-49.5"/>
<text text-anchor="start" x="592.5" y="-67.5" font-family="Helvetica,sans-Serif" font-size="10.00">logs::LoggerFactory</text>
<text text-anchor="middle" x="640" y="-56.5" font-family="Helvetica,sans-Serif" font-size="10.00">::instance</text>
</a>
</g>
</g>
<!-- Node9&#45;&gt;Node11 -->
<g id="edge11" class="edge">
<title>Node9&#45;&gt;Node11</title>
<path fill="none" stroke="midnightblue" d="M500.53,-78.13C523.45,-75.88 550.3,-73.23 574.22,-70.88"/>
<polygon fill="midnightblue" stroke="midnightblue" points="574.66,-74.35 584.27,-69.89 573.97,-67.38 574.66,-74.35"/>
</g>
<!-- Node12 -->
<g id="node12" class="node">
<title>Node12</title>
<g id="a_node12"><a xlink:href="classlogs_1_1LoggerFactory.html#a212aa623f4b6bee12cb39e8017dde670" target="_top" xlink:title="Cette méthode retourne le Logger principal qui définit le niveau de trace par défaut.">
<polygon fill="white" stroke="black" points="584.5,-0.5 584.5,-30.5 695.5,-30.5 695.5,-0.5 584.5,-0.5"/>
<text text-anchor="start" x="592.5" y="-18.5" font-family="Helvetica,sans-Serif" font-size="10.00">logs::LoggerFactory</text>
<text text-anchor="middle" x="640" y="-7.5" font-family="Helvetica,sans-Serif" font-size="10.00">::rootLogger</text>
</a>
</g>
</g>
<!-- Node9&#45;&gt;Node12 -->
<g id="edge12" class="edge">
<title>Node9&#45;&gt;Node12</title>
<path fill="none" stroke="midnightblue" d="M486.95,-68.46C509.87,-60.11 538.98,-49.6 565,-40.5 571.28,-38.31 577.87,-36.03 584.42,-33.8"/>
<polygon fill="midnightblue" stroke="midnightblue" points="585.61,-37.09 593.95,-30.55 583.35,-30.46 585.61,-37.09"/>
</g>
</g>
</svg>
