<?xml version="1.0" encoding="UTF-8" standalone="no"?>
<!DOCTYPE svg PUBLIC "-//W3C//DTD SVG 1.1//EN"
 "http://www.w3.org/Graphics/SVG/1.1/DTD/svg11.dtd">
<!-- Generated by graphviz version 2.43.0 (0)
 -->
<!-- Title: SensorsDriver::sync Pages: 1 -->
<!--zoomable 331 -->
<svg id="main" version="1.1" xmlns="http://www.w3.org/2000/svg" xmlns:xlink="http://www.w3.org/1999/xlink" xml:space="preserve" onload="init(evt)">
<style type="text/css"><![CDATA[
.edge:hover path { stroke: red; }
.edge:hover polygon { stroke: red; fill: red; }
]]></style>
<script type="text/javascript"><![CDATA[
var edges = document.getElementsByTagName('g');
if (edges && edges.length) {
  for (var i=0;i<edges.length;i++) {
    if (edges[i].id.substr(0,4)=='edge') {
      edges[i].setAttribute('class','edge');
    }
  }
}
]]></script>
        <defs>
                <circle id="rim" cx="0" cy="0" r="7"/>
                <circle id="rim2" cx="0" cy="0" r="3.5"/>
                <g id="zoomPlus">
                        <use xlink:href="#rim" fill="#404040">
                                <set attributeName="fill" to="#808080" begin="zoomplus.mouseover" end="zoomplus.mouseout"/>
                        </use>
                        <path d="M-4,0h8M0,-4v8" fill="none" stroke="white" stroke-width="1.5" pointer-events="none"/>
                </g>
                <g id="zoomMin">
                        <use xlink:href="#rim" fill="#404040">
                                <set attributeName="fill" to="#808080" begin="zoomminus.mouseover" end="zoomminus.mouseout"/>
                        </use>
                        <path d="M-4,0h8" fill="none" stroke="white" stroke-width="1.5" pointer-events="none"/>
                </g>
                <g id="dirArrow">
                        <path fill="none" stroke="white" stroke-width="1.5" d="M0,-3.0v7 M-2.5,-0.5L0,-3.0L2.5,-0.5"/>
                </g>
               <g id="resetDef">
                       <use xlink:href="#rim2" fill="#404040">
                               <set attributeName="fill" to="#808080" begin="reset.mouseover" end="reset.mouseout"/>
                       </use>
               </g>
        </defs>

<script type="text/javascript">
var viewWidth = 890;
var viewHeight = 331;
var sectionId = 'dynsection-9';
</script>
<script xlink:href="svgpan.js"/>
<svg id="graph" class="graph">
<g id="viewport">
<title>SensorsDriver::sync</title>
<polygon fill="white" stroke="transparent" points="-4,4 -4,-326.87 886,-326.87 886,4 -4,4"/>
<!-- Node1 -->
<g id="node1" class="node">
<title>Node1</title>
<g id="a_node1"><a xlink:title="Synchronise les donnees de la balise (lecture I2C).">
<polygon fill="#bfbfbf" stroke="black" points="0,-189 0,-208 113,-208 113,-189 0,-189"/>
<text text-anchor="middle" x="56.5" y="-196" font-family="Helvetica,sans-Serif" font-size="10.00">SensorsDriver::sync</text>
</a>
</g>
</g>
<!-- Node2 -->
<g id="node2" class="node">
<title>Node2</title>
<g id="a_node2"><a xlink:href="classlogs_1_1Logger.html#a7dffc8f610014ec59b63392da16140e4" target="_top" xlink:title="Trace un message de niveau DEBUG.">
<polygon fill="white" stroke="black" points="350.5,-189 350.5,-208 462.5,-208 462.5,-189 350.5,-189"/>
<text text-anchor="middle" x="406.5" y="-196" font-family="Helvetica,sans-Serif" font-size="10.00">logs::Logger::debug</text>
</a>
</g>
</g>
<!-- Node1&#45;&gt;Node2 -->
<g id="edge1" class="edge">
<title>Node1&#45;&gt;Node2</title>
<path fill="none" stroke="midnightblue" d="M113.03,-198.5C174.87,-198.5 274.73,-198.5 340.25,-198.5"/>
<polygon fill="midnightblue" stroke="midnightblue" points="340.46,-202 350.46,-198.5 340.46,-195 340.46,-202"/>
</g>
<!-- Node4 -->
<g id="node4" class="node">
<title>Node4</title>
<g id="a_node4"><a xlink:href="namespacelogs.html#ac6f325c6cfe6189bc8e243daa184453b" target="_top" xlink:title="Cette méthode permet de finir les flux de construction par la notation.">
<polygon fill="white" stroke="black" points="376,-227 376,-246 437,-246 437,-227 376,-227"/>
<text text-anchor="middle" x="406.5" y="-234" font-family="Helvetica,sans-Serif" font-size="10.00">logs::end</text>
</a>
</g>
</g>
<!-- Node1&#45;&gt;Node4 -->
<g id="edge3" class="edge">
<title>Node1&#45;&gt;Node4</title>
<path fill="none" stroke="midnightblue" d="M113.07,-207.54C124.91,-209.31 137.36,-211.07 149,-212.5 225.46,-221.92 315.15,-229.53 365.65,-233.5"/>
<polygon fill="midnightblue" stroke="midnightblue" points="365.58,-237 375.82,-234.29 366.12,-230.02 365.58,-237"/>
</g>
<!-- Node6 -->
<g id="node6" class="node">
<title>Node6</title>
<g id="a_node6"><a xlink:href="classutils_1_1Mutex.html#aa584b418a5ef484f76b93e361a1d7e32" target="_top" xlink:title="Verrouille le mutex. Cette méthode doit être appelée avant d&#39;utiliser la ressource associée....">
<polygon fill="white" stroke="black" points="756.5,-303 756.5,-322 857.5,-322 857.5,-303 756.5,-303"/>
<text text-anchor="middle" x="807" y="-310" font-family="Helvetica,sans-Serif" font-size="10.00">utils::Mutex::lock</text>
</a>
</g>
</g>
<!-- Node1&#45;&gt;Node6 -->
<g id="edge19" class="edge">
<title>Node1&#45;&gt;Node6</title>
<path fill="none" stroke="midnightblue" d="M68.73,-208.15C85.15,-221.68 117.22,-245.9 149,-257.5 357.75,-333.69 627.73,-325.95 746.02,-317.76"/>
<polygon fill="midnightblue" stroke="midnightblue" points="746.59,-321.23 756.31,-317.02 746.08,-314.25 746.59,-321.23"/>
</g>
<!-- Node7 -->
<g id="node7" class="node">
<title>Node7</title>
<g id="a_node7"><a xlink:href="classutils_1_1Mutex.html#a59b2079dc7f803d49f78ac9c04406cd3" target="_top" xlink:title="Déverrouille le mutex. Cette méthode doit être appelée après avoir utiliser la ressource associée.">
<polygon fill="white" stroke="black" points="750.5,-246 750.5,-265 863.5,-265 863.5,-246 750.5,-246"/>
<text text-anchor="middle" x="807" y="-253" font-family="Helvetica,sans-Serif" font-size="10.00">utils::Mutex::unlock</text>
</a>
</g>
</g>
<!-- Node1&#45;&gt;Node7 -->
<g id="edge22" class="edge">
<title>Node1&#45;&gt;Node7</title>
<path fill="none" stroke="midnightblue" d="M79.25,-208.15C97.52,-215.88 124.5,-226.39 149,-232.5 359.91,-285.09 620.63,-272.16 740.32,-262.09"/>
<polygon fill="midnightblue" stroke="midnightblue" points="740.75,-265.57 750.42,-261.22 740.15,-258.59 740.75,-265.57"/>
</g>
<!-- Node8 -->
<g id="node8" class="node">
<title>Node8</title>
<g id="a_node8"><a xlink:href="classlogs_1_1Logger.html#a8b6a2019233bc44b3c3c86c653910831" target="_top" xlink:title="Trace un message de niveau ERROR.">
<polygon fill="white" stroke="black" points="559.5,-134 559.5,-153 664.5,-153 664.5,-134 559.5,-134"/>
<text text-anchor="middle" x="612" y="-141" font-family="Helvetica,sans-Serif" font-size="10.00">logs::Logger::error</text>
</a>
</g>
</g>
<!-- Node1&#45;&gt;Node8 -->
<g id="edge8" class="edge">
<title>Node1&#45;&gt;Node8</title>
<path fill="none" stroke="midnightblue" d="M69.79,-188.92C86.69,-176.22 118.5,-153.94 149,-141.5 291.02,-83.57 340.63,-78.74 492,-103.5 522.87,-108.55 556.52,-120.51 580.14,-130.04"/>
<polygon fill="midnightblue" stroke="midnightblue" points="579.03,-133.37 589.61,-133.95 581.7,-126.9 579.03,-133.37"/>
</g>
<!-- Node9 -->
<g id="node9" class="node">
<title>Node9</title>
<g id="a_node9"><a xlink:href="classBeaconSensors.html#a0fc052c2c3d6236020384847f1dd8d53" target="_top" xlink:title="get distance in mm. //every 250 ms">
<polygon fill="white" stroke="black" points="149,-151 149,-170 285,-170 285,-151 149,-151"/>
<text text-anchor="middle" x="217" y="-158" font-family="Helvetica,sans-Serif" font-size="10.00">BeaconSensors::getData</text>
</a>
</g>
</g>
<!-- Node1&#45;&gt;Node9 -->
<g id="edge10" class="edge">
<title>Node1&#45;&gt;Node9</title>
<path fill="none" stroke="midnightblue" d="M97.5,-188.91C118.41,-183.9 144.21,-177.71 166.39,-172.39"/>
<polygon fill="midnightblue" stroke="midnightblue" points="167.38,-175.76 176.29,-170.02 165.75,-168.95 167.38,-175.76"/>
</g>
<!-- Node16 -->
<g id="node16" class="node">
<title>Node16</title>
<g id="a_node16"><a xlink:href="classSensorsDriver.html#a850ac41f0bd3fe3cda0d8340fad19e4d" target="_top" xlink:title="Retourne le Logger associé à la classe SensorsDriver(OPOS6UL).">
<polygon fill="white" stroke="black" points="156,-37 156,-56 278,-56 278,-37 156,-37"/>
<text text-anchor="middle" x="217" y="-44" font-family="Helvetica,sans-Serif" font-size="10.00">SensorsDriver::logger</text>
</a>
</g>
</g>
<!-- Node1&#45;&gt;Node16 -->
<g id="edge20" class="edge">
<title>Node1&#45;&gt;Node16</title>
<path fill="none" stroke="midnightblue" d="M61.79,-188.96C72.83,-165.43 104.54,-104.09 149,-70.5 154.5,-66.35 160.78,-62.86 167.24,-59.96"/>
<polygon fill="midnightblue" stroke="midnightblue" points="168.82,-63.09 176.77,-56.1 166.19,-56.61 168.82,-63.09"/>
</g>
<!-- Node3 -->
<g id="node3" class="node">
<title>Node3</title>
<g id="a_node3"><a xlink:href="classlogs_1_1Logger.html#afa535aaf4891e02c4ff7f84d372b5b1b" target="_top" xlink:title="Méthode générique de trace d&#39;un message.">
<polygon fill="white" stroke="black" points="732,-189 732,-208 882,-208 882,-189 732,-189"/>
<text text-anchor="middle" x="807" y="-196" font-family="Helvetica,sans-Serif" font-size="10.00">logs::Logger::writeMessage</text>
</a>
</g>
</g>
<!-- Node2&#45;&gt;Node3 -->
<g id="edge2" class="edge">
<title>Node2&#45;&gt;Node3</title>
<path fill="none" stroke="midnightblue" d="M462.91,-198.5C529.94,-198.5 643.47,-198.5 721.46,-198.5"/>
<polygon fill="midnightblue" stroke="midnightblue" points="721.74,-202 731.74,-198.5 721.74,-195 721.74,-202"/>
</g>
<!-- Node5 -->
<g id="node5" class="node">
<title>Node5</title>
<g id="a_node5"><a xlink:href="classlogs_1_1Logger_1_1LoggerBuffer.html#a0e4fd77693fd899ec1b0670354f93a02" target="_top" xlink:title="Cette méthode valide le message en cours de construction et le transmet au Logger de référence.">
<polygon fill="white" stroke="black" points="528,-227 528,-246 696,-246 696,-227 528,-227"/>
<text text-anchor="middle" x="612" y="-234" font-family="Helvetica,sans-Serif" font-size="10.00">logs::Logger::LoggerBuffer::end</text>
</a>
</g>
</g>
<!-- Node4&#45;&gt;Node5 -->
<g id="edge4" class="edge">
<title>Node4&#45;&gt;Node5</title>
<path fill="none" stroke="midnightblue" d="M437.09,-236.5C458.39,-236.5 488.38,-236.5 517.47,-236.5"/>
<polygon fill="midnightblue" stroke="midnightblue" points="517.71,-240 527.71,-236.5 517.71,-233 517.71,-240"/>
</g>
<!-- Node5&#45;&gt;Node3 -->
<g id="edge7" class="edge">
<title>Node5&#45;&gt;Node3</title>
<path fill="none" stroke="midnightblue" d="M661.7,-226.91C687.86,-221.76 720.28,-215.38 747.77,-209.97"/>
<polygon fill="midnightblue" stroke="midnightblue" points="748.51,-213.39 757.65,-208.02 747.16,-206.52 748.51,-213.39"/>
</g>
<!-- Node5&#45;&gt;Node6 -->
<g id="edge5" class="edge">
<title>Node5&#45;&gt;Node6</title>
<path fill="none" stroke="midnightblue" d="M637.44,-246.13C671.52,-259.55 733.46,-283.93 772.01,-299.12"/>
<polygon fill="midnightblue" stroke="midnightblue" points="771.17,-302.55 781.75,-302.95 773.73,-296.03 771.17,-302.55"/>
</g>
<!-- Node5&#45;&gt;Node7 -->
<g id="edge6" class="edge">
<title>Node5&#45;&gt;Node7</title>
<path fill="none" stroke="midnightblue" d="M696.25,-244.7C710.94,-246.14 726.06,-247.63 740.19,-249.02"/>
<polygon fill="midnightblue" stroke="midnightblue" points="739.99,-252.52 750.29,-250.02 740.68,-245.55 739.99,-252.52"/>
</g>
<!-- Node8&#45;&gt;Node3 -->
<g id="edge9" class="edge">
<title>Node8&#45;&gt;Node3</title>
<path fill="none" stroke="midnightblue" d="M646.62,-153.08C678.76,-162.24 727.39,-176.1 762.48,-186.1"/>
<polygon fill="midnightblue" stroke="midnightblue" points="761.87,-189.56 772.44,-188.94 763.79,-182.83 761.87,-189.56"/>
</g>
<!-- Node9&#45;&gt;Node2 -->
<g id="edge11" class="edge">
<title>Node9&#45;&gt;Node2</title>
<path fill="none" stroke="midnightblue" d="M265.31,-170.09C290.61,-175.22 321.95,-181.57 348.57,-186.96"/>
<polygon fill="midnightblue" stroke="midnightblue" points="348.03,-190.42 358.53,-188.98 349.42,-183.56 348.03,-190.42"/>
</g>
<!-- Node9&#45;&gt;Node4 -->
<g id="edge12" class="edge">
<title>Node9&#45;&gt;Node4</title>
<path fill="none" stroke="midnightblue" d="M232.37,-170.19C251.71,-182.82 287.57,-204.79 321,-217.5 335.25,-222.92 351.47,-227.02 365.86,-230.01"/>
<polygon fill="midnightblue" stroke="midnightblue" points="365.47,-233.5 375.96,-231.99 366.82,-226.63 365.47,-233.5"/>
</g>
<!-- Node10 -->
<g id="node10" class="node">
<title>Node10</title>
<g id="a_node10"><a xlink:href="classBeaconSensors.html#a6313d9e396cb5cd115205753e16a1932" target="_top" xlink:title="Retourne le Logger associé à la classe BeaconSensors(OPOS6UL).">
<polygon fill="white" stroke="black" points="342.5,-113 342.5,-132 470.5,-132 470.5,-113 342.5,-113"/>
<text text-anchor="middle" x="406.5" y="-120" font-family="Helvetica,sans-Serif" font-size="10.00">BeaconSensors::logger</text>
</a>
</g>
</g>
<!-- Node9&#45;&gt;Node10 -->
<g id="edge13" class="edge">
<title>Node9&#45;&gt;Node10</title>
<path fill="none" stroke="midnightblue" d="M265.31,-150.91C290.61,-145.78 321.95,-139.43 348.57,-134.04"/>
<polygon fill="midnightblue" stroke="midnightblue" points="349.42,-137.44 358.53,-132.02 348.03,-130.58 349.42,-137.44"/>
</g>
<!-- Node15 -->
<g id="node15" class="node">
<title>Node15</title>
<g id="a_node15"><a xlink:href="classBeaconSensors.html#a52e9f13215984f77f70d767600c55090" target="_top" xlink:title=" ">
<polygon fill="white" stroke="black" points="321,-151 321,-170 492,-170 492,-151 321,-151"/>
<text text-anchor="middle" x="406.5" y="-158" font-family="Helvetica,sans-Serif" font-size="10.00">BeaconSensors::readRegnBytes</text>
</a>
</g>
</g>
<!-- Node9&#45;&gt;Node15 -->
<g id="edge18" class="edge">
<title>Node9&#45;&gt;Node15</title>
<path fill="none" stroke="midnightblue" d="M285.16,-160.5C293.47,-160.5 302.08,-160.5 310.71,-160.5"/>
<polygon fill="midnightblue" stroke="midnightblue" points="310.82,-164 320.82,-160.5 310.82,-157 310.82,-164"/>
</g>
<!-- Node11 -->
<g id="node11" class="node">
<title>Node11</title>
<g id="a_node11"><a xlink:href="classlogs_1_1LoggerFactory.html#a82585b5de73e471e06cafdccc3b3721e" target="_top" xlink:title="Cette méthode statique retourne un Logger en fonction de son nom.">
<polygon fill="white" stroke="black" points="556.5,-49.5 556.5,-79.5 667.5,-79.5 667.5,-49.5 556.5,-49.5"/>
<text text-anchor="start" x="564.5" y="-67.5" font-family="Helvetica,sans-Serif" font-size="10.00">logs::LoggerFactory</text>
<text text-anchor="middle" x="612" y="-56.5" font-family="Helvetica,sans-Serif" font-size="10.00">::logger</text>
</a>
</g>
</g>
<!-- Node10&#45;&gt;Node11 -->
<g id="edge14" class="edge">
<title>Node10&#45;&gt;Node11</title>
<path fill="none" stroke="midnightblue" d="M441.1,-112.92C470.2,-104.63 513.06,-92.41 548.46,-82.33"/>
<polygon fill="midnightblue" stroke="midnightblue" points="549.56,-85.65 558.22,-79.54 547.65,-78.92 549.56,-85.65"/>
</g>
<!-- Node12 -->
<g id="node12" class="node">
<title>Node12</title>
<g id="a_node12"><a xlink:href="classlogs_1_1LoggerFactory.html#ac89f19c0ffd71aa8cdc1c2d44c03809e" target="_top" xlink:title="Cette méthode ajoute un appender au système.">
<polygon fill="white" stroke="black" points="740,-99 740,-118 874,-118 874,-99 740,-99"/>
<text text-anchor="middle" x="807" y="-106" font-family="Helvetica,sans-Serif" font-size="10.00">logs::LoggerFactory::add</text>
</a>
</g>
</g>
<!-- Node11&#45;&gt;Node12 -->
<g id="edge15" class="edge">
<title>Node11&#45;&gt;Node12</title>
<path fill="none" stroke="midnightblue" d="M667.53,-76.93C694.71,-83.13 727.41,-90.58 754.21,-96.69"/>
<polygon fill="midnightblue" stroke="midnightblue" points="753.64,-100.15 764.16,-98.96 755.19,-93.33 753.64,-100.15"/>
</g>
<!-- Node13 -->
<g id="node13" class="node">
<title>Node13</title>
<g id="a_node13"><a xlink:href="classlogs_1_1LoggerFactory.html#a90478b91d7af2ef8841ded21e3521f69" target="_top" xlink:title="Cette méthode statique retourne l&#39;instance unique de la classe LoggerFactory.">
<polygon fill="white" stroke="black" points="751.5,-49.5 751.5,-79.5 862.5,-79.5 862.5,-49.5 751.5,-49.5"/>
<text text-anchor="start" x="759.5" y="-67.5" font-family="Helvetica,sans-Serif" font-size="10.00">logs::LoggerFactory</text>
<text text-anchor="middle" x="807" y="-56.5" font-family="Helvetica,sans-Serif" font-size="10.00">::instance</text>
</a>
</g>
</g>
<!-- Node11&#45;&gt;Node13 -->
<g id="edge16" class="edge">
<title>Node11&#45;&gt;Node13</title>
<path fill="none" stroke="midnightblue" d="M667.53,-64.5C690.45,-64.5 717.3,-64.5 741.22,-64.5"/>
<polygon fill="midnightblue" stroke="midnightblue" points="741.27,-68 751.27,-64.5 741.27,-61 741.27,-68"/>
</g>
<!-- Node14 -->
<g id="node14" class="node">
<title>Node14</title>
<g id="a_node14"><a xlink:href="classlogs_1_1LoggerFactory.html#a212aa623f4b6bee12cb39e8017dde670" target="_top" xlink:title="Cette méthode retourne le Logger principal qui définit le niveau de trace par défaut.">
<polygon fill="white" stroke="black" points="751.5,-0.5 751.5,-30.5 862.5,-30.5 862.5,-0.5 751.5,-0.5"/>
<text text-anchor="start" x="759.5" y="-18.5" font-family="Helvetica,sans-Serif" font-size="10.00">logs::LoggerFactory</text>
<text text-anchor="middle" x="807" y="-7.5" font-family="Helvetica,sans-Serif" font-size="10.00">::rootLogger</text>
</a>
</g>
</g>
<!-- Node11&#45;&gt;Node14 -->
<g id="edge17" class="edge">
<title>Node11&#45;&gt;Node14</title>
<path fill="none" stroke="midnightblue" d="M667.53,-50.66C690.56,-44.81 717.54,-37.96 741.54,-31.87"/>
<polygon fill="midnightblue" stroke="midnightblue" points="742.44,-35.25 751.27,-29.4 740.71,-28.46 742.44,-35.25"/>
</g>
<!-- Node16&#45;&gt;Node11 -->
<g id="edge21" class="edge">
<title>Node16&#45;&gt;Node11</title>
<path fill="none" stroke="midnightblue" d="M278.12,-49.25C350.51,-52.57 471.63,-58.12 546.09,-61.53"/>
<polygon fill="midnightblue" stroke="midnightblue" points="546.13,-65.03 556.28,-61.99 546.45,-58.04 546.13,-65.03"/>
</g>
</g>
</svg>
        <g id="navigator" transform="translate(0 0)" fill="#404254">
                <rect fill="#f2f5e9" fill-opacity="0.5" stroke="#606060" stroke-width=".5" x="0" y="0" width="60" height="60"/>
                <use id="zoomplus" xlink:href="#zoomPlus" x="17" y="9" onmousedown="handleZoom(evt,'in')"/>
                <use id="zoomminus" xlink:href="#zoomMin" x="42" y="9" onmousedown="handleZoom(evt,'out')"/>
                <use id="reset" xlink:href="#resetDef" x="30" y="36" onmousedown="handleReset()"/>
                <g id="arrowUp" xlink:href="#dirArrow" transform="translate(30 24)" onmousedown="handlePan(0,-1)">
                  <use xlink:href="#rim" fill="#404040">
                        <set attributeName="fill" to="#808080" begin="arrowUp.mouseover" end="arrowUp.mouseout"/>
                  </use>
                  <path fill="none" stroke="white" stroke-width="1.5" d="M0,-3.0v7 M-2.5,-0.5L0,-3.0L2.5,-0.5"/>
                </g>
                <g id="arrowRight" xlink:href="#dirArrow" transform="rotate(90) translate(36 -43)" onmousedown="handlePan(1,0)">
                  <use xlink:href="#rim" fill="#404040">
                        <set attributeName="fill" to="#808080" begin="arrowRight.mouseover" end="arrowRight.mouseout"/>
                  </use>
                  <path fill="none" stroke="white" stroke-width="1.5" d="M0,-3.0v7 M-2.5,-0.5L0,-3.0L2.5,-0.5"/>
                </g>
                <g id="arrowDown" xlink:href="#dirArrow" transform="rotate(180) translate(-30 -48)" onmousedown="handlePan(0,1)">
                  <use xlink:href="#rim" fill="#404040">
                        <set attributeName="fill" to="#808080" begin="arrowDown.mouseover" end="arrowDown.mouseout"/>
                  </use>
                  <path fill="none" stroke="white" stroke-width="1.5" d="M0,-3.0v7 M-2.5,-0.5L0,-3.0L2.5,-0.5"/>
                </g>
                <g id="arrowLeft" xlink:href="#dirArrow" transform="rotate(270) translate(-36 17)" onmousedown="handlePan(-1,0)">
                  <use xlink:href="#rim" fill="#404040">
                        <set attributeName="fill" to="#808080" begin="arrowLeft.mouseover" end="arrowLeft.mouseout"/>
                  </use>
                  <path fill="none" stroke="white" stroke-width="1.5" d="M0,-3.0v7 M-2.5,-0.5L0,-3.0L2.5,-0.5"/>
                </g>
        </g>
        <svg viewBox="0 0 15 15" width="100%" height="30px" preserveAspectRatio="xMaxYMin meet">
         <g id="arrow_out" transform="scale(0.3 0.3)">
          <a xlink:href="classSensorsDriver_a1bfbcc82461257094ed185fa2017afad_cgraph_org.svg" target="_base">
           <rect id="button" ry="5" rx="5" y="6" x="6" height="38" width="38"
                fill="#f2f5e9" fill-opacity="0.5" stroke="#606060" stroke-width="1.0"/>
           <path id="arrow"
             d="M 11.500037,31.436501 C 11.940474,20.09759 22.043105,11.32322 32.158766,21.979434 L 37.068811,17.246167 C 37.068811,17.246167 37.088388,32 37.088388,32 L 22.160133,31.978069 C 22.160133,31.978069 26.997745,27.140456 26.997745,27.140456 C 18.528582,18.264221 13.291696,25.230495 11.500037,31.436501 z"
             style="fill:#404040;"/>
          </a>
         </g>
        </svg>
</svg>
