<?xml version="1.0" encoding="UTF-8" standalone="no"?>
<!DOCTYPE svg PUBLIC "-//W3C//DTD SVG 1.1//EN"
 "http://www.w3.org/Graphics/SVG/1.1/DTD/svg11.dtd">
<!-- Generated by graphviz version 2.43.0 (0)
 -->
<!-- Title: Sensors::logger Pages: 1 -->
<svg width="839pt" height="336pt"
 viewBox="0.00 0.00 839.00 335.50" xmlns="http://www.w3.org/2000/svg" xmlns:xlink="http://www.w3.org/1999/xlink">
<g id="graph0" class="graph" transform="scale(1 1) rotate(0) translate(4 331.5)">
<title>Sensors::logger</title>
<polygon fill="white" stroke="transparent" points="-4,4 -4,-331.5 835,-331.5 835,4 -4,4"/>
<!-- Node1 -->
<g id="node1" class="node">
<title>Node1</title>
<g id="a_node1"><a xlink:title=" ">
<polygon fill="#bfbfbf" stroke="black" points="739,-156 739,-175 831,-175 831,-156 739,-156"/>
<text text-anchor="middle" x="785" y="-163" font-family="Helvetica,sans-Serif" font-size="10.00">Sensors::logger</text>
</a>
</g>
</g>
<!-- Node2 -->
<g id="node2" class="node">
<title>Node2</title>
<g id="a_node2"><a xlink:href="classSensors.html#a1ef07aeea0536ccf34e310d831e71ef0" target="_top" xlink:title=" ">
<polygon fill="white" stroke="black" points="555.5,-270 555.5,-289 701.5,-289 701.5,-270 555.5,-270"/>
<text text-anchor="middle" x="628.5" y="-277" font-family="Helvetica,sans-Serif" font-size="10.00">Sensors::addTimerSensors</text>
</a>
</g>
</g>
<!-- Node1&#45;&gt;Node2 -->
<g id="edge1" class="edge">
<title>Node1&#45;&gt;Node2</title>
<path fill="none" stroke="midnightblue" d="M772.2,-183.49C758.04,-203.75 732.49,-236.31 703,-255.5 693.55,-261.65 682.39,-266.35 671.65,-269.88"/>
<polygon fill="midnightblue" stroke="midnightblue" points="775.15,-185.39 777.88,-175.15 769.36,-181.45 775.15,-185.39"/>
</g>
<!-- Node5 -->
<g id="node5" class="node">
<title>Node5</title>
<g id="a_node5"><a xlink:href="classSensors.html#a7c1612f78d78562aa12322638a74140f" target="_top" xlink:title=" ">
<polygon fill="white" stroke="black" points="213,-194 213,-213 297,-213 297,-194 213,-194"/>
<text text-anchor="middle" x="255" y="-201" font-family="Helvetica,sans-Serif" font-size="10.00">Sensors::back</text>
</a>
</g>
</g>
<!-- Node1&#45;&gt;Node5 -->
<g id="edge4" class="edge">
<title>Node1&#45;&gt;Node5</title>
<path fill="none" stroke="midnightblue" d="M767.06,-182.21C751.76,-196.03 727.9,-214.62 703,-222.5 556.19,-268.98 368.69,-232.07 291.57,-213.06"/>
<polygon fill="midnightblue" stroke="midnightblue" points="769.72,-184.51 774.62,-175.12 764.93,-179.4 769.72,-184.51"/>
</g>
<!-- Node7 -->
<g id="node7" class="node">
<title>Node7</title>
<g id="a_node7"><a xlink:href="classSensors.html#a8ab2badef3a65b7181e990df21e48e22" target="_top" xlink:title=" ">
<polygon fill="white" stroke="black" points="555.5,-194 555.5,-213 701.5,-213 701.5,-194 555.5,-194"/>
<text text-anchor="middle" x="628.5" y="-201" font-family="Helvetica,sans-Serif" font-size="10.00">Sensors::filtre_levelInBack</text>
</a>
</g>
</g>
<!-- Node1&#45;&gt;Node7 -->
<g id="edge7" class="edge">
<title>Node1&#45;&gt;Node7</title>
<path fill="none" stroke="midnightblue" d="M735.05,-177.54C713.46,-182.85 688.46,-189 668.21,-193.98"/>
<polygon fill="midnightblue" stroke="midnightblue" points="736.14,-180.88 745.01,-175.09 734.47,-174.08 736.14,-180.88"/>
</g>
<!-- Node8 -->
<g id="node8" class="node">
<title>Node8</title>
<g id="a_node8"><a xlink:href="classSensors.html#adb6e31b5f292fad731e2fd33e1fde8fa" target="_top" xlink:title=" ">
<polygon fill="white" stroke="black" points="370.5,-80 370.5,-99 516.5,-99 516.5,-80 370.5,-80"/>
<text text-anchor="middle" x="443.5" y="-87" font-family="Helvetica,sans-Serif" font-size="10.00">Sensors::filtre_levelInFront</text>
</a>
</g>
</g>
<!-- Node1&#45;&gt;Node8 -->
<g id="edge9" class="edge">
<title>Node1&#45;&gt;Node8</title>
<path fill="none" stroke="midnightblue" d="M765.02,-149.55C749.43,-137.42 726.2,-121.49 703,-113.5 642.49,-92.66 569.57,-87.56 516.63,-87.14"/>
<polygon fill="midnightblue" stroke="midnightblue" points="762.86,-152.3 772.85,-155.83 767.24,-146.84 762.86,-152.3"/>
</g>
<!-- Node9 -->
<g id="node9" class="node">
<title>Node9</title>
<g id="a_node9"><a xlink:href="classSensors.html#a6fde663a7fb649742b32c4c56e4b939c" target="_top" xlink:title=" ">
<polygon fill="white" stroke="black" points="213,-118 213,-137 297,-137 297,-118 213,-118"/>
<text text-anchor="middle" x="255" y="-125" font-family="Helvetica,sans-Serif" font-size="10.00">Sensors::front</text>
</a>
</g>
</g>
<!-- Node1&#45;&gt;Node9 -->
<g id="edge13" class="edge">
<title>Node1&#45;&gt;Node9</title>
<path fill="none" stroke="midnightblue" d="M739.52,-153.48C727.73,-150.73 714.95,-148.14 703,-146.5 554.67,-126.14 376.3,-125.67 297.21,-126.68"/>
<polygon fill="midnightblue" stroke="midnightblue" points="739.04,-156.97 749.58,-155.92 740.69,-150.16 739.04,-156.97"/>
</g>
<!-- Node10 -->
<g id="node10" class="node">
<title>Node10</title>
<g id="a_node10"><a xlink:href="classSensors.html#a1742695dacc4c683f7a6136b650c0aa7" target="_top" xlink:title=" ">
<polygon fill="white" stroke="black" points="558.5,-156 558.5,-175 698.5,-175 698.5,-156 558.5,-156"/>
<text text-anchor="middle" x="628.5" y="-163" font-family="Helvetica,sans-Serif" font-size="10.00">Sensors::multipleLeftSide</text>
</a>
</g>
</g>
<!-- Node1&#45;&gt;Node10 -->
<g id="edge14" class="edge">
<title>Node1&#45;&gt;Node10</title>
<path fill="none" stroke="midnightblue" d="M728.87,-165.5C719.03,-165.5 708.67,-165.5 698.51,-165.5"/>
<polygon fill="midnightblue" stroke="midnightblue" points="728.9,-169 738.9,-165.5 728.9,-162 728.9,-169"/>
</g>
<!-- Node12 -->
<g id="node12" class="node">
<title>Node12</title>
<g id="a_node12"><a xlink:href="classSensors.html#a85be8662515c22a100f45c4ed417fe8d" target="_top" xlink:title=" ">
<polygon fill="white" stroke="black" points="554,-39 554,-58 703,-58 703,-39 554,-39"/>
<text text-anchor="middle" x="628.5" y="-46" font-family="Helvetica,sans-Serif" font-size="10.00">Sensors::stopTimerSensors</text>
</a>
</g>
</g>
<!-- Node1&#45;&gt;Node12 -->
<g id="edge19" class="edge">
<title>Node1&#45;&gt;Node12</title>
<path fill="none" stroke="midnightblue" d="M772.07,-147.7C757.8,-127.62 732.14,-95.22 703,-75.5 691.97,-68.03 678.61,-62.33 666.33,-58.13"/>
<polygon fill="midnightblue" stroke="midnightblue" points="769.23,-149.74 777.8,-155.96 774.98,-145.75 769.23,-149.74"/>
</g>
<!-- Node3 -->
<g id="node3" class="node">
<title>Node3</title>
<g id="a_node3"><a xlink:href="classO__IAByPathTest.html#a3f57f585ff1382a52bf7f79a28d43629" target="_top" xlink:title=" ">
<polygon fill="white" stroke="black" points="386.5,-308 386.5,-327 500.5,-327 500.5,-308 386.5,-308"/>
<text text-anchor="middle" x="443.5" y="-315" font-family="Helvetica,sans-Serif" font-size="10.00">O_IAByPathTest::run</text>
</a>
</g>
</g>
<!-- Node2&#45;&gt;Node3 -->
<g id="edge2" class="edge">
<title>Node2&#45;&gt;Node3</title>
<path fill="none" stroke="midnightblue" d="M571.25,-291.18C545.29,-296.57 514.88,-302.89 490.35,-307.98"/>
<polygon fill="midnightblue" stroke="midnightblue" points="572.24,-294.55 581.32,-289.09 570.82,-287.7 572.24,-294.55"/>
</g>
<!-- Node4 -->
<g id="node4" class="node">
<title>Node4</title>
<g id="a_node4"><a xlink:href="classO__SensorsTest.html#ae3b998034225e16586ded4ba3bd419e5" target="_top" xlink:title="Execute le test.">
<polygon fill="white" stroke="black" points="16,-194 16,-213 125,-213 125,-194 16,-194"/>
<text text-anchor="middle" x="70.5" y="-201" font-family="Helvetica,sans-Serif" font-size="10.00">O_SensorsTest::run</text>
</a>
</g>
</g>
<!-- Node2&#45;&gt;Node4 -->
<g id="edge3" class="edge">
<title>Node2&#45;&gt;Node4</title>
<path fill="none" stroke="midnightblue" d="M545.32,-270.98C494.48,-265.54 427.89,-258.1 369,-250.5 283.47,-239.47 262.11,-236.37 177,-222.5 159.18,-219.6 139.72,-216.17 122.42,-213.02"/>
<polygon fill="midnightblue" stroke="midnightblue" points="544.96,-274.46 555.27,-272.04 545.7,-267.5 544.96,-274.46"/>
</g>
<!-- Node5&#45;&gt;Node4 -->
<g id="edge6" class="edge">
<title>Node5&#45;&gt;Node4</title>
<path fill="none" stroke="midnightblue" d="M202.55,-203.5C178.41,-203.5 149.65,-203.5 125.23,-203.5"/>
<polygon fill="midnightblue" stroke="midnightblue" points="202.59,-207 212.59,-203.5 202.59,-200 202.59,-207"/>
</g>
<!-- Node6 -->
<g id="node6" class="node">
<title>Node6</title>
<g id="a_node6"><a xlink:href="classSensorsTimer.html#abc377178c2471f664b31658554963e83" target="_top" xlink:title="Actions à executer pour le timer.">
<polygon fill="white" stroke="black" points="5.5,-156 5.5,-175 135.5,-175 135.5,-156 5.5,-156"/>
<text text-anchor="middle" x="70.5" y="-163" font-family="Helvetica,sans-Serif" font-size="10.00">SensorsTimer::onTimer</text>
</a>
</g>
</g>
<!-- Node5&#45;&gt;Node6 -->
<g id="edge5" class="edge">
<title>Node5&#45;&gt;Node6</title>
<path fill="none" stroke="midnightblue" d="M202.61,-192.8C175.76,-187.21 143.19,-180.43 117.23,-175.02"/>
<polygon fill="midnightblue" stroke="midnightblue" points="202.08,-196.27 212.59,-194.88 203.51,-189.41 202.08,-196.27"/>
</g>
<!-- Node7&#45;&gt;Node5 -->
<g id="edge8" class="edge">
<title>Node7&#45;&gt;Node5</title>
<path fill="none" stroke="midnightblue" d="M545.29,-203.5C468.38,-203.5 356.68,-203.5 297.08,-203.5"/>
<polygon fill="midnightblue" stroke="midnightblue" points="545.43,-207 555.43,-203.5 545.43,-200 545.43,-207"/>
</g>
<!-- Node8&#45;&gt;Node9 -->
<g id="edge10" class="edge">
<title>Node8&#45;&gt;Node9</title>
<path fill="none" stroke="midnightblue" d="M385.58,-101.1C356.99,-106.92 323.01,-113.85 297.02,-119.14"/>
<polygon fill="midnightblue" stroke="midnightblue" points="386.34,-104.52 395.44,-99.09 384.94,-97.66 386.34,-104.52"/>
</g>
<!-- Node9&#45;&gt;Node4 -->
<g id="edge12" class="edge">
<title>Node9&#45;&gt;Node4</title>
<path fill="none" stroke="midnightblue" d="M228.75,-142.08C206.28,-154.61 172.23,-172.5 141,-184.5 131.66,-188.09 121.37,-191.29 111.64,-194"/>
<polygon fill="midnightblue" stroke="midnightblue" points="230.64,-145.04 237.63,-137.08 227.2,-138.94 230.64,-145.04"/>
</g>
<!-- Node9&#45;&gt;Node6 -->
<g id="edge11" class="edge">
<title>Node9&#45;&gt;Node6</title>
<path fill="none" stroke="midnightblue" d="M202.61,-138.2C175.76,-143.79 143.19,-150.57 117.23,-155.98"/>
<polygon fill="midnightblue" stroke="midnightblue" points="203.51,-141.59 212.59,-136.12 202.08,-134.73 203.51,-141.59"/>
</g>
<!-- Node11 -->
<g id="node11" class="node">
<title>Node11</title>
<g id="a_node11"><a xlink:href="classSensors.html#a33a5aa7e06b72aa392c3e9e1931c6d0b" target="_top" xlink:title=" ">
<polygon fill="white" stroke="black" points="402,-156 402,-175 485,-175 485,-156 402,-156"/>
<text text-anchor="middle" x="443.5" y="-163" font-family="Helvetica,sans-Serif" font-size="10.00">Sensors::sync</text>
</a>
</g>
</g>
<!-- Node10&#45;&gt;Node11 -->
<g id="edge15" class="edge">
<title>Node10&#45;&gt;Node11</title>
<path fill="none" stroke="midnightblue" d="M548.08,-165.5C526.34,-165.5 503.67,-165.5 485.11,-165.5"/>
<polygon fill="midnightblue" stroke="midnightblue" points="548.32,-169 558.32,-165.5 548.32,-162 548.32,-169"/>
</g>
<!-- Node11&#45;&gt;Node5 -->
<g id="edge16" class="edge">
<title>Node11&#45;&gt;Node5</title>
<path fill="none" stroke="midnightblue" d="M391.41,-175.91C361.77,-181.95 324.92,-189.46 297.15,-195.11"/>
<polygon fill="midnightblue" stroke="midnightblue" points="392.47,-179.27 401.57,-173.84 391.07,-172.41 392.47,-179.27"/>
</g>
<!-- Node11&#45;&gt;Node6 -->
<g id="edge18" class="edge">
<title>Node11&#45;&gt;Node6</title>
<path fill="none" stroke="midnightblue" d="M391.48,-165.5C324.84,-165.5 208.13,-165.5 135.59,-165.5"/>
<polygon fill="midnightblue" stroke="midnightblue" points="391.74,-169 401.74,-165.5 391.74,-162 391.74,-169"/>
</g>
<!-- Node11&#45;&gt;Node9 -->
<g id="edge17" class="edge">
<title>Node11&#45;&gt;Node9</title>
<path fill="none" stroke="midnightblue" d="M391.41,-155.09C361.77,-149.05 324.92,-141.54 297.15,-135.89"/>
<polygon fill="midnightblue" stroke="midnightblue" points="391.07,-158.59 401.57,-157.16 392.47,-151.73 391.07,-158.59"/>
</g>
<!-- Node13 -->
<g id="node13" class="node">
<title>Node13</title>
<g id="a_node13"><a xlink:href="classOPOS6UL__ActionsExtended.html#a87bb61d89759101cac844e7c399f2f61" target="_top" xlink:title="Arrête tous les périphériques supplémentaires (capteurs, LEDs, LCD) et relâche les servos.">
<polygon fill="white" stroke="black" points="369,-30.5 369,-60.5 518,-60.5 518,-30.5 369,-30.5"/>
<text text-anchor="start" x="377" y="-48.5" font-family="Helvetica,sans-Serif" font-size="10.00">OPOS6UL_ActionsExtended</text>
<text text-anchor="middle" x="443.5" y="-37.5" font-family="Helvetica,sans-Serif" font-size="10.00">::stopExtra</text>
</a>
</g>
</g>
<!-- Node12&#45;&gt;Node13 -->
<g id="edge20" class="edge">
<title>Node12&#45;&gt;Node13</title>
<path fill="none" stroke="midnightblue" d="M543.61,-47.12C535.16,-46.99 526.62,-46.85 518.29,-46.71"/>
<polygon fill="midnightblue" stroke="midnightblue" points="543.8,-50.63 553.86,-47.29 543.92,-43.63 543.8,-50.63"/>
</g>
<!-- Node14 -->
<g id="node14" class="node">
<title>Node14</title>
<g id="a_node14"><a xlink:href="classOPOS6UL__RobotExtended.html#ac8ac2be407a78cdd62261f72226162df" target="_top" xlink:title=" ">
<polygon fill="white" stroke="black" points="177,-49.5 177,-79.5 333,-79.5 333,-49.5 177,-49.5"/>
<text text-anchor="start" x="185" y="-67.5" font-family="Helvetica,sans-Serif" font-size="10.00">OPOS6UL_RobotExtended</text>
<text text-anchor="middle" x="255" y="-56.5" font-family="Helvetica,sans-Serif" font-size="10.00">::~OPOS6UL_RobotExtended</text>
</a>
</g>
</g>
<!-- Node13&#45;&gt;Node14 -->
<g id="edge21" class="edge">
<title>Node13&#45;&gt;Node14</title>
<path fill="none" stroke="midnightblue" d="M358.83,-54.02C350.28,-54.89 341.63,-55.78 333.16,-56.64"/>
<polygon fill="midnightblue" stroke="midnightblue" points="359.2,-57.5 368.79,-53.01 358.49,-50.54 359.2,-57.5"/>
</g>
<!-- Node15 -->
<g id="node15" class="node">
<title>Node15</title>
<g id="a_node15"><a xlink:href="classOPOS6UL__RobotExtended.html#a0a997f7fd88abac1efe0083fce633649" target="_top" xlink:title="Arrête toutes les actions supplémentaires (capteurs, LEDs, servos).">
<polygon fill="white" stroke="black" points="184,-0.5 184,-30.5 326,-30.5 326,-0.5 184,-0.5"/>
<text text-anchor="start" x="192" y="-18.5" font-family="Helvetica,sans-Serif" font-size="10.00">OPOS6UL_RobotExtended</text>
<text text-anchor="middle" x="255" y="-7.5" font-family="Helvetica,sans-Serif" font-size="10.00">::stopExtraActions</text>
</a>
</g>
</g>
<!-- Node13&#45;&gt;Node15 -->
<g id="edge22" class="edge">
<title>Node13&#45;&gt;Node15</title>
<path fill="none" stroke="midnightblue" d="M358.83,-32.04C347.9,-30.28 336.8,-28.5 326.13,-26.78"/>
<polygon fill="midnightblue" stroke="midnightblue" points="358.36,-35.51 368.79,-33.64 359.47,-28.6 358.36,-35.51"/>
</g>
<!-- Node16 -->
<g id="node16" class="node">
<title>Node16</title>
<g id="a_node16"><a xlink:href="classO__State__WaitEndOfMatch.html#aa73613440b37c8dd42181e2e0265ae86" target="_top" xlink:title="Exécute l&#39;état d&#39;attente de fin de match.">
<polygon fill="white" stroke="black" points="0,-0.5 0,-30.5 141,-30.5 141,-0.5 0,-0.5"/>
<text text-anchor="start" x="8" y="-18.5" font-family="Helvetica,sans-Serif" font-size="10.00">O_State_WaitEndOfMatch</text>
<text text-anchor="middle" x="70.5" y="-7.5" font-family="Helvetica,sans-Serif" font-size="10.00">::execute</text>
</a>
</g>
</g>
<!-- Node15&#45;&gt;Node16 -->
<g id="edge23" class="edge">
<title>Node15&#45;&gt;Node16</title>
<path fill="none" stroke="midnightblue" d="M173.63,-15.5C162.77,-15.5 151.7,-15.5 141.05,-15.5"/>
<polygon fill="midnightblue" stroke="midnightblue" points="173.96,-19 183.96,-15.5 173.96,-12 173.96,-19"/>
</g>
</g>
</svg>
