<?xml version="1.0" encoding="UTF-8" standalone="no"?>
<!DOCTYPE svg PUBLIC "-//W3C//DTD SVG 1.1//EN"
 "http://www.w3.org/Graphics/SVG/1.1/DTD/svg11.dtd">
<!-- Generated by graphviz version 2.43.0 (0)
 -->
<!-- Title: AsservEsialR::waitEndOfTraj Pages: 1 -->
<svg width="1487pt" height="646pt"
 viewBox="0.00 0.00 1487.00 646.00" xmlns="http://www.w3.org/2000/svg" xmlns:xlink="http://www.w3.org/1999/xlink">
<g id="graph0" class="graph" transform="scale(1 1) rotate(0) translate(4 642)">
<title>AsservEsialR::waitEndOfTraj</title>
<polygon fill="white" stroke="transparent" points="-4,4 -4,-642 1483,-642 1483,4 -4,4"/>
<!-- Node1 -->
<g id="node1" class="node">
<title>Node1</title>
<g id="a_node1"><a xlink:title=" ">
<polygon fill="#bfbfbf" stroke="black" points="1326,-446.5 1326,-465.5 1479,-465.5 1479,-446.5 1326,-446.5"/>
<text text-anchor="middle" x="1402.5" y="-453.5" font-family="Helvetica,sans-Serif" font-size="10.00">AsservEsialR::waitEndOfTraj</text>
</a>
</g>
</g>
<!-- Node2 -->
<g id="node2" class="node">
<title>Node2</title>
<g id="a_node2"><a xlink:href="classAsservEsialR.html#a08fc904da0513ea35c524958f8cc6df0" target="_top" xlink:title=" ">
<polygon fill="white" stroke="black" points="1170,-556 1170,-586 1290,-586 1290,-556 1170,-556"/>
<text text-anchor="start" x="1178" y="-574" font-family="Helvetica,sans-Serif" font-size="10.00">AsservEsialR::motion</text>
<text text-anchor="middle" x="1230" y="-563" font-family="Helvetica,sans-Serif" font-size="10.00">_DoDirectLine</text>
</a>
</g>
</g>
<!-- Node1&#45;&gt;Node2 -->
<g id="edge1" class="edge">
<title>Node1&#45;&gt;Node2</title>
<path fill="none" stroke="midnightblue" d="M1378.78,-471.32C1346,-493.43 1285.8,-534.04 1253.27,-555.98"/>
<polygon fill="midnightblue" stroke="midnightblue" points="1380.92,-474.1 1387.26,-465.61 1377.01,-468.3 1380.92,-474.1"/>
</g>
<!-- Node6 -->
<g id="node6" class="node">
<title>Node6</title>
<g id="a_node6"><a xlink:href="classAsservEsialR.html#a18f0ce02a39c7a1cadf7cddf15f875d5" target="_top" xlink:title="Oriente le robot face a un point.">
<polygon fill="white" stroke="black" points="1170,-466 1170,-496 1290,-496 1290,-466 1170,-466"/>
<text text-anchor="start" x="1178" y="-484" font-family="Helvetica,sans-Serif" font-size="10.00">AsservEsialR::motion</text>
<text text-anchor="middle" x="1230" y="-473" font-family="Helvetica,sans-Serif" font-size="10.00">_DoFace</text>
</a>
</g>
</g>
<!-- Node1&#45;&gt;Node6 -->
<g id="edge5" class="edge">
<title>Node1&#45;&gt;Node6</title>
<path fill="none" stroke="midnightblue" d="M1326.44,-467.01C1314.29,-468.79 1301.87,-470.61 1290.17,-472.32"/>
<polygon fill="midnightblue" stroke="midnightblue" points="1327.17,-470.44 1336.55,-465.52 1326.15,-463.51 1327.17,-470.44"/>
</g>
<!-- Node23 -->
<g id="node23" class="node">
<title>Node23</title>
<g id="a_node23"><a xlink:href="classAsservEsialR.html#a163832308cf0ea6fb9826fd93950c7bf" target="_top" xlink:title="Avance ou recule en ligne droite.">
<polygon fill="white" stroke="black" points="1170,-417 1170,-447 1290,-447 1290,-417 1170,-417"/>
<text text-anchor="start" x="1178" y="-435" font-family="Helvetica,sans-Serif" font-size="10.00">AsservEsialR::motion</text>
<text text-anchor="middle" x="1230" y="-424" font-family="Helvetica,sans-Serif" font-size="10.00">_DoLine</text>
</a>
</g>
</g>
<!-- Node1&#45;&gt;Node23 -->
<g id="edge26" class="edge">
<title>Node1&#45;&gt;Node23</title>
<path fill="none" stroke="midnightblue" d="M1323.41,-445.01C1312.22,-443.43 1300.86,-441.83 1290.11,-440.32"/>
<polygon fill="midnightblue" stroke="midnightblue" points="1323.23,-448.52 1333.62,-446.45 1324.21,-441.59 1323.23,-448.52"/>
</g>
<!-- Node33 -->
<g id="node33" class="node">
<title>Node33</title>
<g id="a_node33"><a xlink:href="classAsservEsialR.html#a71a6761ebf937db24c35bd559cd9d836" target="_top" xlink:title="Effectue une rotation sur place.">
<polygon fill="white" stroke="black" points="1170,-368 1170,-398 1290,-398 1290,-368 1170,-368"/>
<text text-anchor="start" x="1178" y="-386" font-family="Helvetica,sans-Serif" font-size="10.00">AsservEsialR::motion</text>
<text text-anchor="middle" x="1230" y="-375" font-family="Helvetica,sans-Serif" font-size="10.00">_DoRotate</text>
</a>
</g>
</g>
<!-- Node1&#45;&gt;Node33 -->
<g id="edge41" class="edge">
<title>Node1&#45;&gt;Node33</title>
<path fill="none" stroke="midnightblue" d="M1369.98,-442.37C1347.66,-432.74 1317.01,-419.54 1290,-408 1282.43,-404.77 1274.31,-401.31 1266.58,-398.04"/>
<polygon fill="midnightblue" stroke="midnightblue" points="1368.73,-445.65 1379.3,-446.4 1371.51,-439.22 1368.73,-445.65"/>
</g>
<!-- Node3 -->
<g id="node3" class="node">
<title>Node3</title>
<g id="a_node3"><a xlink:href="classAsserv.html#a0ac23995bdebb69bb49304850c951886" target="_top" xlink:title=" ">
<polygon fill="white" stroke="black" points="1004.5,-542.5 1004.5,-561.5 1105.5,-561.5 1105.5,-542.5 1004.5,-542.5"/>
<text text-anchor="middle" x="1055" y="-549.5" font-family="Helvetica,sans-Serif" font-size="10.00">Asserv::doCalage</text>
</a>
</g>
</g>
<!-- Node2&#45;&gt;Node3 -->
<g id="edge2" class="edge">
<title>Node2&#45;&gt;Node3</title>
<path fill="none" stroke="midnightblue" d="M1159.97,-563.42C1141.78,-561.42 1122.52,-559.31 1105.58,-557.45"/>
<polygon fill="midnightblue" stroke="midnightblue" points="1159.62,-566.9 1169.95,-564.51 1160.39,-559.94 1159.62,-566.9"/>
</g>
<!-- Node4 -->
<g id="node4" class="node">
<title>Node4</title>
<g id="a_node4"><a xlink:href="classAsserv.html#acc891ab26e32320b4f2fac646de93632" target="_top" xlink:title=" ">
<polygon fill="white" stroke="black" points="1001.5,-618.5 1001.5,-637.5 1108.5,-637.5 1108.5,-618.5 1001.5,-618.5"/>
<text text-anchor="middle" x="1055" y="-625.5" font-family="Helvetica,sans-Serif" font-size="10.00">Asserv::doCalage2</text>
</a>
</g>
</g>
<!-- Node2&#45;&gt;Node4 -->
<g id="edge3" class="edge">
<title>Node2&#45;&gt;Node4</title>
<path fill="none" stroke="midnightblue" d="M1185.11,-590.06C1169.19,-596.57 1150.95,-603.57 1134,-609 1123.11,-612.48 1111.2,-615.68 1100.03,-618.43"/>
<polygon fill="midnightblue" stroke="midnightblue" points="1186.79,-593.16 1194.69,-586.09 1184.11,-586.69 1186.79,-593.16"/>
</g>
<!-- Node5 -->
<g id="node5" class="node">
<title>Node5</title>
<g id="a_node5"><a xlink:href="classAsserv.html#aa105905ebc1940adb7c483a14c9ce8fc" target="_top" xlink:title=" ">
<polygon fill="white" stroke="black" points="994,-580.5 994,-599.5 1116,-599.5 1116,-580.5 994,-580.5"/>
<text text-anchor="middle" x="1055" y="-587.5" font-family="Helvetica,sans-Serif" font-size="10.00">Asserv::doCalageNew</text>
</a>
</g>
</g>
<!-- Node2&#45;&gt;Node5 -->
<g id="edge4" class="edge">
<title>Node2&#45;&gt;Node5</title>
<path fill="none" stroke="midnightblue" d="M1159.63,-578.62C1145.27,-580.2 1130.26,-581.84 1116.26,-583.38"/>
<polygon fill="midnightblue" stroke="midnightblue" points="1160.39,-582.06 1169.95,-577.49 1159.62,-575.1 1160.39,-582.06"/>
</g>
<!-- Node7 -->
<g id="node7" class="node">
<title>Node7</title>
<g id="a_node7"><a xlink:href="classAsserv.html#af98a1702935599e4d8f0b6cfac9c7dbe" target="_top" xlink:title=" ">
<polygon fill="white" stroke="black" points="811,-504.5 811,-523.5 910,-523.5 910,-504.5 811,-504.5"/>
<text text-anchor="middle" x="860.5" y="-511.5" font-family="Helvetica,sans-Serif" font-size="10.00">Asserv::doFaceTo</text>
</a>
</g>
</g>
<!-- Node6&#45;&gt;Node7 -->
<g id="edge6" class="edge">
<title>Node6&#45;&gt;Node7</title>
<path fill="none" stroke="midnightblue" d="M1159.72,-491.84C1151.07,-493.01 1142.34,-494.1 1134,-495 1055.97,-503.46 964.94,-508.92 910.33,-511.73"/>
<polygon fill="midnightblue" stroke="midnightblue" points="1160.37,-495.28 1169.8,-490.44 1159.41,-488.35 1160.37,-495.28"/>
</g>
<!-- Node19 -->
<g id="node19" class="node">
<title>Node19</title>
<g id="a_node19"><a xlink:href="classAsservEsialR.html#aff541fb741bcef0ae8be48fbf6c66d94" target="_top" xlink:title="Deplace le robot vers un point (marche avant).">
<polygon fill="white" stroke="black" points="980.5,-466.5 980.5,-485.5 1129.5,-485.5 1129.5,-466.5 980.5,-466.5"/>
<text text-anchor="middle" x="1055" y="-473.5" font-family="Helvetica,sans-Serif" font-size="10.00">AsservEsialR::motion_Goto</text>
</a>
</g>
</g>
<!-- Node6&#45;&gt;Node19 -->
<g id="edge20" class="edge">
<title>Node6&#45;&gt;Node19</title>
<path fill="none" stroke="midnightblue" d="M1159.79,-479C1149.92,-478.71 1139.74,-478.42 1129.78,-478.13"/>
<polygon fill="midnightblue" stroke="midnightblue" points="1159.85,-482.5 1169.95,-479.29 1160.05,-475.51 1159.85,-482.5"/>
</g>
<!-- Node21 -->
<g id="node21" class="node">
<title>Node21</title>
<g id="a_node21"><a xlink:href="classAsservEsialR.html#a57df0bb16d2916c5cd161fa69034f3c8" target="_top" xlink:title="Deplace le robot vers un point (marche arriere).">
<polygon fill="white" stroke="black" points="995,-417 995,-447 1115,-447 1115,-417 995,-417"/>
<text text-anchor="start" x="1003" y="-435" font-family="Helvetica,sans-Serif" font-size="10.00">AsservEsialR::motion</text>
<text text-anchor="middle" x="1055" y="-424" font-family="Helvetica,sans-Serif" font-size="10.00">_GotoReverse</text>
</a>
</g>
</g>
<!-- Node6&#45;&gt;Node21 -->
<g id="edge23" class="edge">
<title>Node6&#45;&gt;Node21</title>
<path fill="none" stroke="midnightblue" d="M1165.82,-463.11C1147.22,-457.84 1127.05,-452.12 1109.14,-447.05"/>
<polygon fill="midnightblue" stroke="midnightblue" points="1165.11,-466.54 1175.68,-465.9 1167.01,-459.81 1165.11,-466.54"/>
</g>
<!-- Node8 -->
<g id="node8" class="node">
<title>Node8</title>
<g id="a_node8"><a xlink:href="classIAbyPath.html#a36763cca0b7005fddde021c35f054dc7" target="_top" xlink:title=" ">
<polygon fill="white" stroke="black" points="588,-430.5 588,-449.5 745,-449.5 745,-430.5 588,-430.5"/>
<text text-anchor="middle" x="666.5" y="-437.5" font-family="Helvetica,sans-Serif" font-size="10.00">IAbyPath::doPathBackwardTo</text>
</a>
</g>
</g>
<!-- Node7&#45;&gt;Node8 -->
<g id="edge7" class="edge">
<title>Node7&#45;&gt;Node8</title>
<path fill="none" stroke="midnightblue" d="M800.57,-503.52C793.76,-501.22 787.08,-498.41 781,-495 761.27,-483.93 764.72,-470.1 745,-459 738.12,-455.13 730.46,-452.03 722.71,-449.57"/>
<polygon fill="midnightblue" stroke="midnightblue" points="800.02,-507.01 810.61,-506.55 802.04,-500.31 800.02,-507.01"/>
</g>
<!-- Node11 -->
<g id="node11" class="node">
<title>Node11</title>
<g id="a_node11"><a xlink:href="classIAbyPath.html#ab95592ae87c3f666835d3fbdac8c5ffd" target="_top" xlink:title=" ">
<polygon fill="white" stroke="black" points="385.5,-482 385.5,-512 541.5,-512 541.5,-482 385.5,-482"/>
<text text-anchor="start" x="393.5" y="-500" font-family="Helvetica,sans-Serif" font-size="10.00">IAbyPath::doPathForwardAnd</text>
<text text-anchor="middle" x="463.5" y="-489" font-family="Helvetica,sans-Serif" font-size="10.00">FaceTo</text>
</a>
</g>
</g>
<!-- Node7&#45;&gt;Node11 -->
<g id="edge10" class="edge">
<title>Node7&#45;&gt;Node11</title>
<path fill="none" stroke="midnightblue" d="M800.43,-511.46C731.57,-508.49 617.55,-503.59 541.72,-500.32"/>
<polygon fill="midnightblue" stroke="midnightblue" points="800.53,-514.97 810.67,-511.9 800.83,-507.97 800.53,-514.97"/>
</g>
<!-- Node12 -->
<g id="node12" class="node">
<title>Node12</title>
<g id="a_node12"><a xlink:href="classIAbyPath.html#ab1f1155d4a5565efa55a0c11b8a1abfa" target="_top" xlink:title=" ">
<polygon fill="white" stroke="black" points="592.5,-468.5 592.5,-487.5 740.5,-487.5 740.5,-468.5 592.5,-468.5"/>
<text text-anchor="middle" x="666.5" y="-475.5" font-family="Helvetica,sans-Serif" font-size="10.00">IAbyPath::doPathForwardTo</text>
</a>
</g>
</g>
<!-- Node7&#45;&gt;Node12 -->
<g id="edge11" class="edge">
<title>Node7&#45;&gt;Node12</title>
<path fill="none" stroke="midnightblue" d="M800.71,-502.98C774.4,-498.04 743.67,-492.28 718.37,-487.54"/>
<polygon fill="midnightblue" stroke="midnightblue" points="800.08,-506.42 810.55,-504.82 801.37,-499.54 800.08,-506.42"/>
</g>
<!-- Node9 -->
<g id="node9" class="node">
<title>Node9</title>
<g id="a_node9"><a xlink:href="classIAbyPath.html#acc586e1ba62ffb7a21087a5ca4d2f131" target="_top" xlink:title=" ">
<polygon fill="white" stroke="black" points="375,-149.5 375,-168.5 552,-168.5 552,-149.5 375,-149.5"/>
<text text-anchor="middle" x="463.5" y="-156.5" font-family="Helvetica,sans-Serif" font-size="10.00">IAbyPath::whileMoveBackwardTo</text>
</a>
</g>
</g>
<!-- Node8&#45;&gt;Node9 -->
<g id="edge8" class="edge">
<title>Node8&#45;&gt;Node9</title>
<path fill="none" stroke="midnightblue" d="M593,-424.75C591.22,-423.3 589.55,-421.72 588,-420 515.25,-339.19 626.31,-257.39 552,-178 548.49,-174.25 544.44,-171.16 540.03,-168.61"/>
<polygon fill="midnightblue" stroke="midnightblue" points="591.13,-427.71 601.39,-430.33 595,-421.88 591.13,-427.71"/>
</g>
<!-- Node10 -->
<g id="node10" class="node">
<title>Node10</title>
<g id="a_node10"><a xlink:href="classIAbyPath.html#a9535c82f137778cc6cd4b159fe3d58ea" target="_top" xlink:title=" ">
<polygon fill="white" stroke="black" points="172,-202 172,-232 339,-232 339,-202 172,-202"/>
<text text-anchor="start" x="180" y="-220" font-family="Helvetica,sans-Serif" font-size="10.00">IAbyPath::whileMoveBackward</text>
<text text-anchor="middle" x="255.5" y="-209" font-family="Helvetica,sans-Serif" font-size="10.00">AndRotateTo</text>
</a>
</g>
</g>
<!-- Node9&#45;&gt;Node10 -->
<g id="edge9" class="edge">
<title>Node9&#45;&gt;Node10</title>
<path fill="none" stroke="midnightblue" d="M404.09,-170.8C394.34,-173.02 384.35,-175.45 375,-178 349.4,-184.97 321.17,-194.2 298.68,-201.93"/>
<polygon fill="midnightblue" stroke="midnightblue" points="405.14,-174.15 414.14,-168.56 403.62,-167.32 405.14,-174.15"/>
</g>
<!-- Node12&#45;&gt;Node11 -->
<g id="edge12" class="edge">
<title>Node12&#45;&gt;Node11</title>
<path fill="none" stroke="midnightblue" d="M582.2,-485.87C568.77,-487.14 554.92,-488.45 541.64,-489.71"/>
<polygon fill="midnightblue" stroke="midnightblue" points="582.74,-489.34 592.37,-484.91 582.08,-482.37 582.74,-489.34"/>
</g>
<!-- Node13 -->
<g id="node13" class="node">
<title>Node13</title>
<g id="a_node13"><a xlink:href="classIAbyPath.html#a00b7b125584bda7731696dfd5069b17c" target="_top" xlink:title=" ">
<polygon fill="white" stroke="black" points="385.5,-387 385.5,-417 541.5,-417 541.5,-387 385.5,-387"/>
<text text-anchor="start" x="393.5" y="-405" font-family="Helvetica,sans-Serif" font-size="10.00">IAbyPath::doPathForwardAnd</text>
<text text-anchor="middle" x="463.5" y="-394" font-family="Helvetica,sans-Serif" font-size="10.00">RotateTo</text>
</a>
</g>
</g>
<!-- Node12&#45;&gt;Node13 -->
<g id="edge13" class="edge">
<title>Node12&#45;&gt;Node13</title>
<path fill="none" stroke="midnightblue" d="M610.72,-465.97C603.02,-463.87 595.26,-461.54 588,-459 554.56,-447.31 517.91,-429.75 493.29,-417.21"/>
<polygon fill="midnightblue" stroke="midnightblue" points="609.84,-469.35 620.4,-468.49 611.61,-462.58 609.84,-469.35"/>
</g>
<!-- Node17 -->
<g id="node17" class="node">
<title>Node17</title>
<g id="a_node17"><a xlink:href="classIAbyPath.html#aa2a96904ea74078d56dad53979b1d999" target="_top" xlink:title=" ">
<polygon fill="white" stroke="black" points="379.5,-332.5 379.5,-351.5 547.5,-351.5 547.5,-332.5 379.5,-332.5"/>
<text text-anchor="middle" x="463.5" y="-339.5" font-family="Helvetica,sans-Serif" font-size="10.00">IAbyPath::whileMoveForwardTo</text>
</a>
</g>
</g>
<!-- Node12&#45;&gt;Node17 -->
<g id="edge18" class="edge">
<title>Node12&#45;&gt;Node17</title>
<path fill="none" stroke="midnightblue" d="M594.33,-463.61C592.12,-462.21 590,-460.68 588,-459 557.53,-433.4 580.61,-404.67 552,-377 539.53,-364.94 522.39,-356.87 506.58,-351.55"/>
<polygon fill="midnightblue" stroke="midnightblue" points="592.83,-466.77 603.3,-468.39 596.12,-460.6 592.83,-466.77"/>
</g>
<!-- Node14 -->
<g id="node14" class="node">
<title>Node14</title>
<g id="a_node14"><a xlink:href="O__IAbyPathTest_8cpp.html#ac1055b8eb7025052d58ebaf15869a480" target="_top" xlink:title=" ">
<polygon fill="white" stroke="black" points="189,-408.5 189,-427.5 322,-427.5 322,-408.5 189,-408.5"/>
<text text-anchor="middle" x="255.5" y="-415.5" font-family="Helvetica,sans-Serif" font-size="10.00">O_IAbyPathTest_action1</text>
</a>
</g>
</g>
<!-- Node13&#45;&gt;Node14 -->
<g id="edge14" class="edge">
<title>Node13&#45;&gt;Node14</title>
<path fill="none" stroke="midnightblue" d="M374.88,-408.81C357.18,-410.18 338.87,-411.6 322.08,-412.91"/>
<polygon fill="midnightblue" stroke="midnightblue" points="375.51,-412.27 385.21,-408 374.97,-405.29 375.51,-412.27"/>
</g>
<!-- Node16 -->
<g id="node16" class="node">
<title>Node16</title>
<g id="a_node16"><a xlink:href="O__IAbyPathTest_8cpp.html#aafb960063ea3193551e7ba63626e2561" target="_top" xlink:title=" ">
<polygon fill="white" stroke="black" points="188.5,-370.5 188.5,-389.5 322.5,-389.5 322.5,-370.5 188.5,-370.5"/>
<text text-anchor="middle" x="255.5" y="-377.5" font-family="Helvetica,sans-Serif" font-size="10.00">O_IAByPathTest_action2</text>
</a>
</g>
</g>
<!-- Node13&#45;&gt;Node16 -->
<g id="edge16" class="edge">
<title>Node13&#45;&gt;Node16</title>
<path fill="none" stroke="midnightblue" d="M374.99,-392.65C357.49,-390.79 339.38,-388.85 322.75,-387.07"/>
<polygon fill="midnightblue" stroke="midnightblue" points="374.89,-396.16 385.21,-393.75 375.64,-389.2 374.89,-396.16"/>
</g>
<!-- Node15 -->
<g id="node15" class="node">
<title>Node15</title>
<g id="a_node15"><a xlink:href="classO__IAByPathTest.html#abedd21fde4835d641e6aa3f8e1c6581f" target="_top" xlink:title=" ">
<polygon fill="white" stroke="black" points="0,-389.5 0,-408.5 136,-408.5 136,-389.5 0,-389.5"/>
<text text-anchor="middle" x="68" y="-396.5" font-family="Helvetica,sans-Serif" font-size="10.00">O_IAByPathTest::IASetup</text>
</a>
</g>
</g>
<!-- Node14&#45;&gt;Node15 -->
<g id="edge15" class="edge">
<title>Node14&#45;&gt;Node15</title>
<path fill="none" stroke="midnightblue" d="M178.69,-410.23C164.59,-408.79 149.95,-407.29 136.14,-405.88"/>
<polygon fill="midnightblue" stroke="midnightblue" points="178.53,-413.74 188.84,-411.27 179.25,-406.77 178.53,-413.74"/>
</g>
<!-- Node16&#45;&gt;Node15 -->
<g id="edge17" class="edge">
<title>Node16&#45;&gt;Node15</title>
<path fill="none" stroke="midnightblue" d="M178.25,-387.81C164.27,-389.24 149.78,-390.73 136.1,-392.13"/>
<polygon fill="midnightblue" stroke="midnightblue" points="178.72,-391.28 188.32,-386.78 178.01,-384.32 178.72,-391.28"/>
</g>
<!-- Node18 -->
<g id="node18" class="node">
<title>Node18</title>
<g id="a_node18"><a xlink:href="classIAbyPath.html#a3f27b793f84340c99ca33e12c2380bb4" target="_top" xlink:title=" ">
<polygon fill="white" stroke="black" points="176.5,-300 176.5,-330 334.5,-330 334.5,-300 176.5,-300"/>
<text text-anchor="start" x="184.5" y="-318" font-family="Helvetica,sans-Serif" font-size="10.00">IAbyPath::whileMoveForward</text>
<text text-anchor="middle" x="255.5" y="-307" font-family="Helvetica,sans-Serif" font-size="10.00">AndRotateTo</text>
</a>
</g>
</g>
<!-- Node17&#45;&gt;Node18 -->
<g id="edge19" class="edge">
<title>Node17&#45;&gt;Node18</title>
<path fill="none" stroke="midnightblue" d="M379.71,-331.15C364.88,-329.21 349.47,-327.19 334.77,-325.26"/>
<polygon fill="midnightblue" stroke="midnightblue" points="379.5,-334.65 389.87,-332.48 380.41,-327.71 379.5,-334.65"/>
</g>
<!-- Node20 -->
<g id="node20" class="node">
<title>Node20</title>
<g id="a_node20"><a xlink:href="classAsserv.html#a3208aa1d2cc84eff11770477b79aa6f7" target="_top" xlink:title=" ">
<polygon fill="white" stroke="black" points="816,-466.5 816,-485.5 905,-485.5 905,-466.5 816,-466.5"/>
<text text-anchor="middle" x="860.5" y="-473.5" font-family="Helvetica,sans-Serif" font-size="10.00">Asserv::gotoXY</text>
</a>
</g>
</g>
<!-- Node19&#45;&gt;Node20 -->
<g id="edge21" class="edge">
<title>Node19&#45;&gt;Node20</title>
<path fill="none" stroke="midnightblue" d="M970.19,-476C947.8,-476 924.49,-476 905.23,-476"/>
<polygon fill="midnightblue" stroke="midnightblue" points="970.4,-479.5 980.4,-476 970.4,-472.5 970.4,-479.5"/>
</g>
<!-- Node20&#45;&gt;Node12 -->
<g id="edge22" class="edge">
<title>Node20&#45;&gt;Node12</title>
<path fill="none" stroke="midnightblue" d="M805.7,-476.56C785.53,-476.77 762.27,-477.01 740.65,-477.24"/>
<polygon fill="midnightblue" stroke="midnightblue" points="805.97,-480.06 815.93,-476.45 805.9,-473.06 805.97,-480.06"/>
</g>
<!-- Node22 -->
<g id="node22" class="node">
<title>Node22</title>
<g id="a_node22"><a xlink:href="classAsserv.html#ade31f4182c755e3ee09092fe9bf3d5d0" target="_top" xlink:title=" ">
<polygon fill="white" stroke="black" points="802.5,-427.5 802.5,-446.5 918.5,-446.5 918.5,-427.5 802.5,-427.5"/>
<text text-anchor="middle" x="860.5" y="-434.5" font-family="Helvetica,sans-Serif" font-size="10.00">Asserv::gotoReverse</text>
</a>
</g>
</g>
<!-- Node21&#45;&gt;Node22 -->
<g id="edge24" class="edge">
<title>Node21&#45;&gt;Node22</title>
<path fill="none" stroke="midnightblue" d="M984.82,-433.8C963.17,-434.36 939.54,-434.97 918.8,-435.51"/>
<polygon fill="midnightblue" stroke="midnightblue" points="985.03,-437.29 994.94,-433.53 984.85,-430.3 985.03,-437.29"/>
</g>
<!-- Node22&#45;&gt;Node8 -->
<g id="edge25" class="edge">
<title>Node22&#45;&gt;Node8</title>
<path fill="none" stroke="midnightblue" d="M792.13,-438.05C777.01,-438.29 760.85,-438.54 745.34,-438.78"/>
<polygon fill="midnightblue" stroke="midnightblue" points="792.47,-441.55 802.41,-437.89 792.36,-434.55 792.47,-441.55"/>
</g>
<!-- Node23&#45;&gt;Node19 -->
<g id="edge39" class="edge">
<title>Node23&#45;&gt;Node19</title>
<path fill="none" stroke="midnightblue" d="M1162.62,-449.63C1153.02,-452.14 1143.26,-454.65 1134,-457 1121.57,-460.15 1108,-463.49 1095.72,-466.48"/>
<polygon fill="midnightblue" stroke="midnightblue" points="1163.74,-452.96 1172.53,-447.04 1161.97,-446.19 1163.74,-452.96"/>
</g>
<!-- Node23&#45;&gt;Node21 -->
<g id="edge40" class="edge">
<title>Node23&#45;&gt;Node21</title>
<path fill="none" stroke="midnightblue" d="M1159.82,-432C1145,-432 1129.48,-432 1115.08,-432"/>
<polygon fill="midnightblue" stroke="midnightblue" points="1159.95,-435.5 1169.95,-432 1159.95,-428.5 1159.95,-435.5"/>
</g>
<!-- Node24 -->
<g id="node24" class="node">
<title>Node24</title>
<g id="a_node24"><a xlink:href="classAsserv.html#a100bad165da8f3055e05383e0cba03fd" target="_top" xlink:title=" ">
<polygon fill="white" stroke="black" points="817,-114.5 817,-133.5 904,-133.5 904,-114.5 817,-114.5"/>
<text text-anchor="middle" x="860.5" y="-121.5" font-family="Helvetica,sans-Serif" font-size="10.00">Asserv::doLine</text>
</a>
</g>
</g>
<!-- Node23&#45;&gt;Node24 -->
<g id="edge27" class="edge">
<title>Node23&#45;&gt;Node24</title>
<path fill="none" stroke="midnightblue" d="M1177.4,-411.93C1174.83,-410.38 1172.35,-408.74 1170,-407 1149.97,-392.17 1151.4,-381.84 1134,-364 1040.03,-267.64 913.27,-165.08 873.77,-133.68"/>
<polygon fill="midnightblue" stroke="midnightblue" points="1175.95,-415.13 1186.4,-416.85 1179.31,-408.98 1175.95,-415.13"/>
</g>
<!-- Node24&#45;&gt;Node9 -->
<g id="edge38" class="edge">
<title>Node24&#45;&gt;Node9</title>
<path fill="none" stroke="midnightblue" d="M809.65,-112.41C754.76,-101.51 664.2,-89.07 588,-105 547.23,-113.52 503.45,-136.3 480.55,-149.39"/>
<polygon fill="midnightblue" stroke="midnightblue" points="808.97,-115.84 819.47,-114.42 810.37,-108.98 808.97,-115.84"/>
</g>
<!-- Node25 -->
<g id="node25" class="node">
<title>Node25</title>
<g id="a_node25"><a xlink:href="classAsserv.html#aa2ec3b84e3cccf2145cc70e33f08dc58" target="_top" xlink:title=" ">
<polygon fill="white" stroke="black" points="590.5,-152.5 590.5,-171.5 742.5,-171.5 742.5,-152.5 590.5,-152.5"/>
<text text-anchor="middle" x="666.5" y="-159.5" font-family="Helvetica,sans-Serif" font-size="10.00">Asserv::doMoveBackwardTo</text>
</a>
</g>
</g>
<!-- Node24&#45;&gt;Node25 -->
<g id="edge28" class="edge">
<title>Node24&#45;&gt;Node25</title>
<path fill="none" stroke="midnightblue" d="M806.73,-134.44C778.29,-140.07 743.45,-146.97 715.74,-152.45"/>
<polygon fill="midnightblue" stroke="midnightblue" points="807.76,-137.81 816.89,-132.43 806.4,-130.94 807.76,-137.81"/>
</g>
<!-- Node27 -->
<g id="node27" class="node">
<title>Node27</title>
<g id="a_node27"><a xlink:href="classAsserv.html#a960679fed5ab18f631d7847c95fc1f85" target="_top" xlink:title=" ">
<polygon fill="white" stroke="black" points="595,-228.5 595,-247.5 738,-247.5 738,-228.5 595,-228.5"/>
<text text-anchor="middle" x="666.5" y="-235.5" font-family="Helvetica,sans-Serif" font-size="10.00">Asserv::doMoveForwardTo</text>
</a>
</g>
</g>
<!-- Node24&#45;&gt;Node27 -->
<g id="edge31" class="edge">
<title>Node24&#45;&gt;Node27</title>
<path fill="none" stroke="midnightblue" d="M834.86,-138.63C794.95,-162.33 717.24,-208.47 683.63,-228.42"/>
<polygon fill="midnightblue" stroke="midnightblue" points="836.65,-141.64 843.46,-133.52 833.07,-135.62 836.65,-141.64"/>
</g>
<!-- Node29 -->
<g id="node29" class="node">
<title>Node29</title>
<g id="a_node29"><a xlink:href="classO__IAByPathTest.html#a3f57f585ff1382a52bf7f79a28d43629" target="_top" xlink:title=" ">
<polygon fill="white" stroke="black" points="609.5,-38.5 609.5,-57.5 723.5,-57.5 723.5,-38.5 609.5,-38.5"/>
<text text-anchor="middle" x="666.5" y="-45.5" font-family="Helvetica,sans-Serif" font-size="10.00">O_IAByPathTest::run</text>
</a>
</g>
</g>
<!-- Node24&#45;&gt;Node29 -->
<g id="edge34" class="edge">
<title>Node24&#45;&gt;Node29</title>
<path fill="none" stroke="midnightblue" d="M831.22,-109.95C808.3,-98.86 775,-83.4 745,-72 731.04,-66.69 715.36,-61.67 701.77,-57.6"/>
<polygon fill="midnightblue" stroke="midnightblue" points="829.84,-113.17 840.37,-114.41 832.91,-106.88 829.84,-113.17"/>
</g>
<!-- Node30 -->
<g id="node30" class="node">
<title>Node30</title>
<g id="a_node30"><a xlink:href="classO__State__Init.html#a1980cd82dcb83e88d61f2e7e14dddfa0" target="_top" xlink:title=" ">
<polygon fill="white" stroke="black" points="609.5,-0.5 609.5,-19.5 723.5,-19.5 723.5,-0.5 609.5,-0.5"/>
<text text-anchor="middle" x="666.5" y="-7.5" font-family="Helvetica,sans-Serif" font-size="10.00">O_State_Init::setPos</text>
</a>
</g>
</g>
<!-- Node24&#45;&gt;Node30 -->
<g id="edge35" class="edge">
<title>Node24&#45;&gt;Node30</title>
<path fill="none" stroke="midnightblue" d="M843.75,-106.82C823.13,-85.38 784.89,-49.09 745,-29 737.33,-25.14 728.83,-22.03 720.35,-19.54"/>
<polygon fill="midnightblue" stroke="midnightblue" points="841.35,-109.38 850.76,-114.25 846.44,-104.57 841.35,-109.38"/>
</g>
<!-- Node32 -->
<g id="node32" class="node">
<title>Node32</title>
<g id="a_node32"><a xlink:href="classRobot.html#a7c2c32badf138c2a26b82068447c3c98" target="_top" xlink:title="Fonctions de motion intelligente en plusieurs essais.">
<polygon fill="white" stroke="black" points="611,-114.5 611,-133.5 722,-133.5 722,-114.5 611,-114.5"/>
<text text-anchor="middle" x="666.5" y="-121.5" font-family="Helvetica,sans-Serif" font-size="10.00">Robot::whileDoLine</text>
</a>
</g>
</g>
<!-- Node24&#45;&gt;Node32 -->
<g id="edge37" class="edge">
<title>Node24&#45;&gt;Node32</title>
<path fill="none" stroke="midnightblue" d="M806.72,-124C780.4,-124 748.61,-124 722.05,-124"/>
<polygon fill="midnightblue" stroke="midnightblue" points="806.89,-127.5 816.89,-124 806.89,-120.5 806.89,-127.5"/>
</g>
<!-- Node25&#45;&gt;Node9 -->
<g id="edge30" class="edge">
<title>Node25&#45;&gt;Node9</title>
<path fill="none" stroke="midnightblue" d="M580.31,-160.73C570.97,-160.59 561.44,-160.45 552.07,-160.31"/>
<polygon fill="midnightblue" stroke="midnightblue" points="580.32,-164.23 590.37,-160.88 580.42,-157.23 580.32,-164.23"/>
</g>
<!-- Node26 -->
<g id="node26" class="node">
<title>Node26</title>
<g id="a_node26"><a xlink:href="classAsserv.html#af438189501d475dcb6632ce63efe5e5f" target="_top" xlink:title=" ">
<polygon fill="white" stroke="black" points="383,-188 383,-218 544,-218 544,-188 383,-188"/>
<text text-anchor="start" x="391" y="-206" font-family="Helvetica,sans-Serif" font-size="10.00">Asserv::doMoveBackwardAnd</text>
<text text-anchor="middle" x="463.5" y="-195" font-family="Helvetica,sans-Serif" font-size="10.00">RotateTo</text>
</a>
</g>
</g>
<!-- Node25&#45;&gt;Node26 -->
<g id="edge29" class="edge">
<title>Node25&#45;&gt;Node26</title>
<path fill="none" stroke="midnightblue" d="M609.08,-173.51C587.16,-177.98 561.76,-183.16 538.42,-187.92"/>
<polygon fill="midnightblue" stroke="midnightblue" points="609.78,-176.94 618.88,-171.51 608.38,-170.08 609.78,-176.94"/>
</g>
<!-- Node27&#45;&gt;Node17 -->
<g id="edge33" class="edge">
<title>Node27&#45;&gt;Node17</title>
<path fill="none" stroke="midnightblue" d="M648.38,-254.62C627.41,-274.03 589.96,-305.67 552,-323 543.52,-326.87 534.2,-329.98 524.91,-332.45"/>
<polygon fill="midnightblue" stroke="midnightblue" points="650.95,-257.01 655.83,-247.6 646.15,-251.91 650.95,-257.01"/>
</g>
<!-- Node28 -->
<g id="node28" class="node">
<title>Node28</title>
<g id="a_node28"><a xlink:href="classAsserv.html#a0a57aa0008a30ba9b13502e4dd61310d" target="_top" xlink:title=" ">
<polygon fill="white" stroke="black" points="387.5,-240 387.5,-270 539.5,-270 539.5,-240 387.5,-240"/>
<text text-anchor="start" x="395.5" y="-258" font-family="Helvetica,sans-Serif" font-size="10.00">Asserv::doMoveForwardAnd</text>
<text text-anchor="middle" x="463.5" y="-247" font-family="Helvetica,sans-Serif" font-size="10.00">RotateTo</text>
</a>
</g>
</g>
<!-- Node27&#45;&gt;Node28 -->
<g id="edge32" class="edge">
<title>Node27&#45;&gt;Node28</title>
<path fill="none" stroke="midnightblue" d="M584.73,-244.83C569.86,-246.09 554.39,-247.4 539.69,-248.64"/>
<polygon fill="midnightblue" stroke="midnightblue" points="585.25,-248.3 594.92,-243.97 584.66,-241.32 585.25,-248.3"/>
</g>
<!-- Node31 -->
<g id="node31" class="node">
<title>Node31</title>
<g id="a_node31"><a xlink:href="classO__State__Init.html#abc19788b7457d1f819245dd28367fe91" target="_top" xlink:title="Exécute l&#39;état d&#39;initialisation.">
<polygon fill="white" stroke="black" points="403.5,-0.5 403.5,-19.5 523.5,-19.5 523.5,-0.5 403.5,-0.5"/>
<text text-anchor="middle" x="463.5" y="-7.5" font-family="Helvetica,sans-Serif" font-size="10.00">O_State_Init::execute</text>
</a>
</g>
</g>
<!-- Node30&#45;&gt;Node31 -->
<g id="edge36" class="edge">
<title>Node30&#45;&gt;Node31</title>
<path fill="none" stroke="midnightblue" d="M599,-10C574.63,-10 547.23,-10 523.55,-10"/>
<polygon fill="midnightblue" stroke="midnightblue" points="599.24,-13.5 609.24,-10 599.24,-6.5 599.24,-13.5"/>
</g>
<!-- Node34 -->
<g id="node34" class="node">
<title>Node34</title>
<g id="a_node34"><a xlink:href="classAsserv.html#a328e426ab105655a7a2c1b8e23612d5a" target="_top" xlink:title=" ">
<polygon fill="white" stroke="black" points="976,-373.5 976,-392.5 1134,-392.5 1134,-373.5 976,-373.5"/>
<text text-anchor="middle" x="1055" y="-380.5" font-family="Helvetica,sans-Serif" font-size="10.00">Asserv::doRelativeRotateRad</text>
</a>
</g>
</g>
<!-- Node33&#45;&gt;Node34 -->
<g id="edge42" class="edge">
<title>Node33&#45;&gt;Node34</title>
<path fill="none" stroke="midnightblue" d="M1159.77,-383C1151.32,-383 1142.63,-383 1134.06,-383"/>
<polygon fill="midnightblue" stroke="midnightblue" points="1159.95,-386.5 1169.95,-383 1159.95,-379.5 1159.95,-386.5"/>
</g>
<!-- Node35 -->
<g id="node35" class="node">
<title>Node35</title>
<g id="a_node35"><a xlink:href="classAsserv.html#a31cb7196e12282ed27c45e8f58b4db04" target="_top" xlink:title=" ">
<polygon fill="white" stroke="black" points="784.5,-266.5 784.5,-285.5 936.5,-285.5 936.5,-266.5 784.5,-266.5"/>
<text text-anchor="middle" x="860.5" y="-273.5" font-family="Helvetica,sans-Serif" font-size="10.00">Asserv::doAbsoluteRotateTo</text>
</a>
</g>
</g>
<!-- Node34&#45;&gt;Node35 -->
<g id="edge43" class="edge">
<title>Node34&#45;&gt;Node35</title>
<path fill="none" stroke="midnightblue" d="M1027.66,-368.36C987.62,-346.1 912.53,-304.36 878.74,-285.59"/>
<polygon fill="midnightblue" stroke="midnightblue" points="1026.14,-371.52 1036.58,-373.32 1029.54,-365.4 1026.14,-371.52"/>
</g>
<!-- Node37 -->
<g id="node37" class="node">
<title>Node37</title>
<g id="a_node37"><a xlink:href="classAsserv.html#a187a3c4804f21593153145203fbb8d9c" target="_top" xlink:title=" ">
<polygon fill="white" stroke="black" points="781,-386.5 781,-405.5 940,-405.5 940,-386.5 781,-386.5"/>
<text text-anchor="middle" x="860.5" y="-393.5" font-family="Helvetica,sans-Serif" font-size="10.00">Asserv::doRelativeRotateDeg</text>
</a>
</g>
</g>
<!-- Node34&#45;&gt;Node37 -->
<g id="edge52" class="edge">
<title>Node34&#45;&gt;Node37</title>
<path fill="none" stroke="midnightblue" d="M965.97,-388.94C957.4,-389.52 948.73,-390.11 940.26,-390.68"/>
<polygon fill="midnightblue" stroke="midnightblue" points="966.24,-392.43 975.98,-388.27 965.77,-385.45 966.24,-392.43"/>
</g>
<!-- Node35&#45;&gt;Node13 -->
<g id="edge48" class="edge">
<title>Node35&#45;&gt;Node13</title>
<path fill="none" stroke="midnightblue" d="M819.71,-288.69C746.4,-312.08 590.35,-361.86 511.78,-386.92"/>
<polygon fill="midnightblue" stroke="midnightblue" points="821.02,-291.95 829.49,-285.57 818.9,-285.28 821.02,-291.95"/>
</g>
<!-- Node35&#45;&gt;Node25 -->
<g id="edge45" class="edge">
<title>Node35&#45;&gt;Node25</title>
<path fill="none" stroke="midnightblue" d="M842.73,-259.51C821.57,-239.55 783.32,-206.11 745,-186 733.53,-179.98 720.29,-175.19 708.04,-171.52"/>
<polygon fill="midnightblue" stroke="midnightblue" points="840.32,-262.06 849.96,-266.45 845.16,-257 840.32,-262.06"/>
</g>
<!-- Node35&#45;&gt;Node26 -->
<g id="edge44" class="edge">
<title>Node35&#45;&gt;Node26</title>
<path fill="none" stroke="midnightblue" d="M836.33,-260.93C813.96,-247.26 778.62,-227.92 745,-219 678.88,-201.45 601.02,-198.33 544.13,-199.09"/>
<polygon fill="midnightblue" stroke="midnightblue" points="834.75,-264.07 845.08,-266.4 838.45,-258.13 834.75,-264.07"/>
</g>
<!-- Node35&#45;&gt;Node27 -->
<g id="edge47" class="edge">
<title>Node35&#45;&gt;Node27</title>
<path fill="none" stroke="midnightblue" d="M801.2,-264.46C773.82,-259.04 741.57,-252.66 715.6,-247.52"/>
<polygon fill="midnightblue" stroke="midnightblue" points="800.56,-267.9 811.05,-266.41 801.92,-261.04 800.56,-267.9"/>
</g>
<!-- Node35&#45;&gt;Node28 -->
<g id="edge46" class="edge">
<title>Node35&#45;&gt;Node28</title>
<path fill="none" stroke="midnightblue" d="M774.19,-271.46C704.41,-267.75 606.68,-262.56 539.78,-259"/>
<polygon fill="midnightblue" stroke="midnightblue" points="774.1,-274.96 784.27,-272 774.47,-267.97 774.1,-274.96"/>
</g>
<!-- Node36 -->
<g id="node36" class="node">
<title>Node36</title>
<g id="a_node36"><a xlink:href="classIAbyPath.html#a42570f6bc87216c2ac5d028ad596fe02" target="_top" xlink:title=" ">
<polygon fill="white" stroke="black" points="383,-294.5 383,-313.5 544,-313.5 544,-294.5 383,-294.5"/>
<text text-anchor="middle" x="463.5" y="-301.5" font-family="Helvetica,sans-Serif" font-size="10.00">IAbyPath::whileMoveRotateTo</text>
</a>
</g>
</g>
<!-- Node35&#45;&gt;Node36 -->
<g id="edge49" class="edge">
<title>Node35&#45;&gt;Node36</title>
<path fill="none" stroke="midnightblue" d="M773.98,-282.06C705.74,-286.9 610.85,-293.63 544.19,-298.35"/>
<polygon fill="midnightblue" stroke="midnightblue" points="774.55,-285.53 784.27,-281.33 774.05,-278.55 774.55,-285.53"/>
</g>
<!-- Node36&#45;&gt;Node10 -->
<g id="edge50" class="edge">
<title>Node36&#45;&gt;Node10</title>
<path fill="none" stroke="midnightblue" d="M412.88,-291.72C400.35,-288.11 387.04,-283.81 375,-279 341.58,-265.65 305.19,-245.73 281.68,-232.1"/>
<polygon fill="midnightblue" stroke="midnightblue" points="412.15,-295.15 422.73,-294.47 414.04,-288.41 412.15,-295.15"/>
</g>
<!-- Node36&#45;&gt;Node18 -->
<g id="edge51" class="edge">
<title>Node36&#45;&gt;Node18</title>
<path fill="none" stroke="midnightblue" d="M372.74,-308.79C360.03,-309.47 347.04,-310.17 334.58,-310.83"/>
<polygon fill="midnightblue" stroke="midnightblue" points="373.06,-312.28 382.86,-308.25 372.68,-305.29 373.06,-312.28"/>
</g>
<!-- Node37&#45;&gt;Node8 -->
<g id="edge53" class="edge">
<title>Node37&#45;&gt;Node8</title>
<path fill="none" stroke="midnightblue" d="M808.08,-407.78C777.08,-414.89 738.12,-423.82 709.08,-430.47"/>
<polygon fill="midnightblue" stroke="midnightblue" points="808.87,-411.19 817.84,-405.55 807.31,-404.37 808.87,-411.19"/>
</g>
<!-- Node38 -->
<g id="node38" class="node">
<title>Node38</title>
<g id="a_node38"><a xlink:href="classAsserv.html#aba5c225f6cf346d0d1834663ba78a3ed" target="_top" xlink:title=" ">
<polygon fill="white" stroke="black" points="596.5,-381 596.5,-411 736.5,-411 736.5,-381 596.5,-381"/>
<text text-anchor="start" x="604.5" y="-399" font-family="Helvetica,sans-Serif" font-size="10.00">Asserv::doRelativeRotate</text>
<text text-anchor="middle" x="666.5" y="-388" font-family="Helvetica,sans-Serif" font-size="10.00">ByMatchColor</text>
</a>
</g>
</g>
<!-- Node37&#45;&gt;Node38 -->
<g id="edge54" class="edge">
<title>Node37&#45;&gt;Node38</title>
<path fill="none" stroke="midnightblue" d="M770.51,-396C759.19,-396 747.74,-396 736.8,-396"/>
<polygon fill="midnightblue" stroke="midnightblue" points="770.85,-399.5 780.85,-396 770.85,-392.5 770.85,-399.5"/>
</g>
</g>
</svg>
