<?xml version="1.0" encoding="UTF-8" standalone="no"?>
<!DOCTYPE svg PUBLIC "-//W3C//DTD SVG 1.1//EN"
 "http://www.w3.org/Graphics/SVG/1.1/DTD/svg11.dtd">
<!-- Generated by graphviz version 2.43.0 (0)
 -->
<!-- Title: GroveColorSensor::logger Pages: 1 -->
<svg width="951pt" height="571pt"
 viewBox="0.00 0.00 951.00 570.51" xmlns="http://www.w3.org/2000/svg" xmlns:xlink="http://www.w3.org/1999/xlink">
<g id="graph0" class="graph" transform="scale(1 1) rotate(0) translate(4 566.51)">
<title>GroveColorSensor::logger</title>
<polygon fill="white" stroke="transparent" points="-4,4 -4,-566.51 947,-566.51 947,4 -4,4"/>
<!-- Node1 -->
<g id="node1" class="node">
<title>Node1</title>
<g id="a_node1"><a xlink:title="Retourne le Logger associé à la classe GroveColorSensor (OPOS6UL).">
<polygon fill="#bfbfbf" stroke="black" points="802,-283.95 802,-302.95 943,-302.95 943,-283.95 802,-283.95"/>
<text text-anchor="middle" x="872.5" y="-290.95" font-family="Helvetica,sans-Serif" font-size="10.00">GroveColorSensor::logger</text>
</a>
</g>
</g>
<!-- Node2 -->
<g id="node2" class="node">
<title>Node2</title>
<g id="a_node2"><a xlink:href="classGroveColorSensor.html#a0a57472cf6ba9df600003bf68f7bd557" target="_top" xlink:title="Constructeur de la classe.">
<polygon fill="white" stroke="black" points="0,-477.45 0,-507.45 165,-507.45 165,-477.45 0,-477.45"/>
<text text-anchor="start" x="8" y="-495.45" font-family="Helvetica,sans-Serif" font-size="10.00">GroveColorSensor::GroveColor</text>
<text text-anchor="middle" x="82.5" y="-484.45" font-family="Helvetica,sans-Serif" font-size="10.00">Sensor</text>
</a>
</g>
</g>
<!-- Node1&#45;&gt;Node2 -->
<g id="edge1" class="edge">
<title>Node1&#45;&gt;Node2</title>
<path fill="none" stroke="midnightblue" d="M867.96,-313.14C859.25,-355.05 832.44,-452.48 766,-492.45 558.12,-617.53 246.18,-542.53 129.61,-507.49"/>
<polygon fill="midnightblue" stroke="midnightblue" points="871.4,-313.81 869.88,-303.32 864.53,-312.46 871.4,-313.81"/>
</g>
<!-- Node3 -->
<g id="node3" class="node">
<title>Node3</title>
<g id="a_node3"><a xlink:href="classGroveColorSensor.html#aa85f03d535c39540fad1a410ebd8184c" target="_top" xlink:title=" ">
<polygon fill="white" stroke="black" points="208.5,-454.95 208.5,-473.95 345.5,-473.95 345.5,-454.95 208.5,-454.95"/>
<text text-anchor="middle" x="277" y="-461.95" font-family="Helvetica,sans-Serif" font-size="10.00">GroveColorSensor::begin</text>
</a>
</g>
</g>
<!-- Node1&#45;&gt;Node3 -->
<g id="edge2" class="edge">
<title>Node1&#45;&gt;Node3</title>
<path fill="none" stroke="midnightblue" d="M854.19,-310.23C834.5,-328.3 800.57,-356.48 766,-371.45 609.7,-439.17 556.04,-407.12 389,-440.45 366.38,-444.97 341.25,-450.37 320.63,-454.9"/>
<polygon fill="midnightblue" stroke="midnightblue" points="856.82,-312.56 861.72,-303.17 852.03,-307.45 856.82,-312.56"/>
</g>
<!-- Node4 -->
<g id="node4" class="node">
<title>Node4</title>
<g id="a_node4"><a xlink:href="classGroveColorSensor.html#a7c3b429a3541802917165ec053f63153" target="_top" xlink:title="Takes the raw values from the sensors and converts them to Correlated Color Temperature.">
<polygon fill="white" stroke="black" points="397,-359.95 397,-378.95 547,-378.95 547,-359.95 397,-359.95"/>
<text text-anchor="middle" x="472" y="-366.95" font-family="Helvetica,sans-Serif" font-size="10.00">GroveColorSensor::CCTCalc</text>
</a>
</g>
</g>
<!-- Node1&#45;&gt;Node4 -->
<g id="edge4" class="edge">
<title>Node1&#45;&gt;Node4</title>
<path fill="none" stroke="midnightblue" d="M847.77,-308.4C827.04,-320.64 795.7,-337.24 766,-345.45 693.44,-365.52 607.23,-370.43 547.18,-370.99"/>
<polygon fill="midnightblue" stroke="midnightblue" points="849.75,-311.29 856.5,-303.13 846.13,-305.3 849.75,-311.29"/>
</g>
<!-- Node5 -->
<g id="node5" class="node">
<title>Node5</title>
<g id="a_node5"><a xlink:href="classGroveColorSensor.html#a681f093bf14d2f9d544eff3c325ac533" target="_top" xlink:title="Calculate the color values [Clear,Red,Green,Blue].">
<polygon fill="white" stroke="black" points="201,-244.45 201,-274.45 353,-274.45 353,-244.45 201,-244.45"/>
<text text-anchor="start" x="209" y="-262.45" font-family="Helvetica,sans-Serif" font-size="10.00">GroveColorSensor::TCS3414</text>
<text text-anchor="middle" x="277" y="-251.45" font-family="Helvetica,sans-Serif" font-size="10.00">GetColor</text>
</a>
</g>
</g>
<!-- Node1&#45;&gt;Node5 -->
<g id="edge13" class="edge">
<title>Node1&#45;&gt;Node5</title>
<path fill="none" stroke="midnightblue" d="M818.49,-304.9C801.78,-308 783.19,-310.92 766,-312.45 688.53,-319.37 668.5,-318.97 591,-312.45 506.15,-305.32 409.71,-287.49 346.58,-274.48"/>
<polygon fill="midnightblue" stroke="midnightblue" points="819.45,-308.28 828.62,-302.96 818.14,-301.41 819.45,-308.28"/>
</g>
<!-- Node6 -->
<g id="node6" class="node">
<title>Node6</title>
<g id="a_node6"><a xlink:href="classGroveColorSensor.html#acd8fc1fe584b9aa8e51985ba99ad1836" target="_top" xlink:title="Effectue une lecture RGB du capteur.">
<polygon fill="white" stroke="black" points="6,-105.95 6,-124.95 159,-124.95 159,-105.95 6,-105.95"/>
<text text-anchor="middle" x="82.5" y="-112.95" font-family="Helvetica,sans-Serif" font-size="10.00">GroveColorSensor::readRGB</text>
</a>
</g>
</g>
<!-- Node1&#45;&gt;Node6 -->
<g id="edge12" class="edge">
<title>Node1&#45;&gt;Node6</title>
<path fill="none" stroke="midnightblue" d="M869.5,-273.84C863.56,-227.21 841.44,-110.02 766,-61.45 543.13,82.03 190.66,-65.44 103.49,-105.84"/>
<polygon fill="midnightblue" stroke="midnightblue" points="866.03,-274.32 870.66,-283.86 872.98,-273.52 866.03,-274.32"/>
</g>
<!-- Node7 -->
<g id="node7" class="node">
<title>Node7</title>
<g id="a_node7"><a xlink:href="classGroveColorSensor.html#aaca3a16d1b12b867cfd9de6d4f1e05ae" target="_top" xlink:title="Log the parameters.">
<polygon fill="white" stroke="black" points="611.5,-435.95 611.5,-454.95 745.5,-454.95 745.5,-435.95 611.5,-435.95"/>
<text text-anchor="middle" x="678.5" y="-442.95" font-family="Helvetica,sans-Serif" font-size="10.00">GroveColorSensor::CMD</text>
</a>
</g>
</g>
<!-- Node1&#45;&gt;Node7 -->
<g id="edge7" class="edge">
<title>Node1&#45;&gt;Node7</title>
<path fill="none" stroke="midnightblue" d="M861.3,-311.98C844.92,-339.97 810.07,-392.83 766,-421.45 756.33,-427.73 745.02,-432.39 733.83,-435.84"/>
<polygon fill="midnightblue" stroke="midnightblue" points="864.4,-313.61 866.31,-303.19 858.31,-310.14 864.4,-313.61"/>
</g>
<!-- Node8 -->
<g id="node8" class="node">
<title>Node8</title>
<g id="a_node8"><a xlink:href="classGroveColorSensor.html#a7632f53d6ad2466cf74a39ba08bbd07e" target="_top" xlink:title="TCS3414 Turns on the sensor and sets integration time.">
<polygon fill="white" stroke="black" points="396,-449.45 396,-479.45 548,-479.45 548,-449.45 396,-449.45"/>
<text text-anchor="start" x="404" y="-467.45" font-family="Helvetica,sans-Serif" font-size="10.00">GroveColorSensor::TCS3414</text>
<text text-anchor="middle" x="472" y="-456.45" font-family="Helvetica,sans-Serif" font-size="10.00">Setup</text>
</a>
</g>
</g>
<!-- Node1&#45;&gt;Node8 -->
<g id="edge14" class="edge">
<title>Node1&#45;&gt;Node8</title>
<path fill="none" stroke="midnightblue" d="M866.31,-312.96C855.17,-350.39 825.05,-431.5 766,-464.45 691.82,-505.85 589.73,-493.24 527.72,-479.46"/>
<polygon fill="midnightblue" stroke="midnightblue" points="869.7,-313.82 869.06,-303.24 862.97,-311.91 869.7,-313.82"/>
</g>
<!-- Node9 -->
<g id="node9" class="node">
<title>Node9</title>
<g id="a_node9"><a xlink:href="classGroveColorSensor.html#aa2c72c2e245dc011bc3215aa2bdd84bf" target="_top" xlink:title="Retourne la coordonnee chromatique Tx.">
<polygon fill="white" stroke="black" points="609,-245.95 609,-264.95 748,-264.95 748,-245.95 609,-245.95"/>
<text text-anchor="middle" x="678.5" y="-252.95" font-family="Helvetica,sans-Serif" font-size="10.00">GroveColorSensor::getTX</text>
</a>
</g>
</g>
<!-- Node1&#45;&gt;Node9 -->
<g id="edge10" class="edge">
<title>Node1&#45;&gt;Node9</title>
<path fill="none" stroke="midnightblue" d="M813.2,-281.91C785.82,-276.49 753.57,-270.11 727.6,-264.97"/>
<polygon fill="midnightblue" stroke="midnightblue" points="812.56,-285.36 823.05,-283.86 813.92,-278.49 812.56,-285.36"/>
</g>
<!-- Node10 -->
<g id="node10" class="node">
<title>Node10</title>
<g id="a_node10"><a xlink:href="classGroveColorSensor.html#ab89e79b04f70f11dea991ca4f9d4de7c" target="_top" xlink:title="Retourne la coordonnee chromatique Ty.">
<polygon fill="white" stroke="black" points="609.5,-207.95 609.5,-226.95 747.5,-226.95 747.5,-207.95 609.5,-207.95"/>
<text text-anchor="middle" x="678.5" y="-214.95" font-family="Helvetica,sans-Serif" font-size="10.00">GroveColorSensor::getTY</text>
</a>
</g>
</g>
<!-- Node1&#45;&gt;Node10 -->
<g id="edge11" class="edge">
<title>Node1&#45;&gt;Node10</title>
<path fill="none" stroke="midnightblue" d="M848.28,-278.44C827.48,-265.61 795.75,-247.51 766,-236.45 755.91,-232.7 744.87,-229.58 734.16,-227.03"/>
<polygon fill="midnightblue" stroke="midnightblue" points="846.42,-281.41 856.75,-283.76 850.14,-275.48 846.42,-281.41"/>
</g>
<!-- Node11 -->
<g id="node11" class="node">
<title>Node11</title>
<g id="a_node11"><a xlink:href="classGroveColorSensor.html#aff6d2790d1b0722f9a93701af3f2571f" target="_top" xlink:title="retrieve blue color.">
<polygon fill="white" stroke="black" points="591,-169.95 591,-188.95 766,-188.95 766,-169.95 591,-169.95"/>
<text text-anchor="middle" x="678.5" y="-176.95" font-family="Helvetica,sans-Serif" font-size="10.00">GroveColorSensor::TSC3414Blue</text>
</a>
</g>
</g>
<!-- Node1&#45;&gt;Node11 -->
<g id="edge15" class="edge">
<title>Node1&#45;&gt;Node11</title>
<path fill="none" stroke="midnightblue" d="M857.39,-276.13C838.79,-254.49 803.93,-217.94 766,-198.45 758.48,-194.59 750.2,-191.51 741.83,-189.05"/>
<polygon fill="midnightblue" stroke="midnightblue" points="854.8,-278.48 863.91,-283.88 860.16,-273.98 854.8,-278.48"/>
</g>
<!-- Node13 -->
<g id="node13" class="node">
<title>Node13</title>
<g id="a_node13"><a xlink:href="classGroveColorSensor.html#a99ce85e9e60e69dc73271ae9c0cdf190" target="_top" xlink:title="retrieve clear color.">
<polygon fill="white" stroke="black" points="602,-120.45 602,-150.45 755,-150.45 755,-120.45 602,-120.45"/>
<text text-anchor="start" x="610" y="-138.45" font-family="Helvetica,sans-Serif" font-size="10.00">GroveColorSensor::TSC3414</text>
<text text-anchor="middle" x="678.5" y="-127.45" font-family="Helvetica,sans-Serif" font-size="10.00">Clear</text>
</a>
</g>
</g>
<!-- Node1&#45;&gt;Node13 -->
<g id="edge18" class="edge">
<title>Node1&#45;&gt;Node13</title>
<path fill="none" stroke="midnightblue" d="M861.68,-274.68C845.6,-245.78 810.89,-190.56 766,-160.45 760.29,-156.62 753.98,-153.37 747.46,-150.61"/>
<polygon fill="midnightblue" stroke="midnightblue" points="858.74,-276.6 866.58,-283.73 864.9,-273.27 858.74,-276.6"/>
</g>
<!-- Node14 -->
<g id="node14" class="node">
<title>Node14</title>
<g id="a_node14"><a xlink:href="classGroveColorSensor.html#a3f2021212497161c52f7a03ad688d52d" target="_top" xlink:title="retrieve green color.">
<polygon fill="white" stroke="black" points="602,-71.45 602,-101.45 755,-101.45 755,-71.45 602,-71.45"/>
<text text-anchor="start" x="610" y="-89.45" font-family="Helvetica,sans-Serif" font-size="10.00">GroveColorSensor::TSC3414</text>
<text text-anchor="middle" x="678.5" y="-78.45" font-family="Helvetica,sans-Serif" font-size="10.00">Green</text>
</a>
</g>
</g>
<!-- Node1&#45;&gt;Node14 -->
<g id="edge20" class="edge">
<title>Node1&#45;&gt;Node14</title>
<path fill="none" stroke="midnightblue" d="M865.8,-274.04C853.78,-236.54 822.2,-154 766,-110.45 761.57,-107.02 756.67,-104.07 751.52,-101.55"/>
<polygon fill="midnightblue" stroke="midnightblue" points="862.51,-275.22 868.8,-283.75 869.19,-273.16 862.51,-275.22"/>
</g>
<!-- Node15 -->
<g id="node15" class="node">
<title>Node15</title>
<g id="a_node15"><a xlink:href="classGroveColorSensor.html#a2cff828afbb09c412a4378d00582e10f" target="_top" xlink:title="retrieve red color.">
<polygon fill="white" stroke="black" points="592.5,-283.95 592.5,-302.95 764.5,-302.95 764.5,-283.95 592.5,-283.95"/>
<text text-anchor="middle" x="678.5" y="-290.95" font-family="Helvetica,sans-Serif" font-size="10.00">GroveColorSensor::TSC3414Red</text>
</a>
</g>
</g>
<!-- Node1&#45;&gt;Node15 -->
<g id="edge22" class="edge">
<title>Node1&#45;&gt;Node15</title>
<path fill="none" stroke="midnightblue" d="M791.85,-293.45C782.84,-293.45 773.63,-293.45 764.56,-293.45"/>
<polygon fill="midnightblue" stroke="midnightblue" points="791.91,-296.95 801.91,-293.45 791.91,-289.95 791.91,-296.95"/>
</g>
<!-- Node3&#45;&gt;Node2 -->
<g id="edge3" class="edge">
<title>Node3&#45;&gt;Node2</title>
<path fill="none" stroke="midnightblue" d="M200.49,-475.44C188.88,-477.12 176.85,-478.87 165.12,-480.58"/>
<polygon fill="midnightblue" stroke="midnightblue" points="201.17,-478.87 210.56,-473.97 200.16,-471.95 201.17,-478.87"/>
</g>
<!-- Node4&#45;&gt;Node5 -->
<g id="edge5" class="edge">
<title>Node4&#45;&gt;Node5</title>
<path fill="none" stroke="midnightblue" d="M417.6,-356.98C407.83,-353.82 397.92,-350 389,-345.45 351.44,-326.28 313.95,-293.75 293.59,-274.66"/>
<polygon fill="midnightblue" stroke="midnightblue" points="416.69,-360.36 427.28,-359.92 418.73,-353.67 416.69,-360.36"/>
</g>
<!-- Node5&#45;&gt;Node6 -->
<g id="edge6" class="edge">
<title>Node5&#45;&gt;Node6</title>
<path fill="none" stroke="midnightblue" d="M247.55,-238.17C205.24,-206.52 127.41,-148.3 96.57,-125.23"/>
<polygon fill="midnightblue" stroke="midnightblue" points="245.66,-241.13 255.76,-244.31 249.85,-235.52 245.66,-241.13"/>
</g>
<!-- Node7&#45;&gt;Node8 -->
<g id="edge8" class="edge">
<title>Node7&#45;&gt;Node8</title>
<path fill="none" stroke="midnightblue" d="M601.29,-452.53C583.91,-454.15 565.45,-455.86 548.11,-457.47"/>
<polygon fill="midnightblue" stroke="midnightblue" points="601.75,-456.01 611.39,-451.6 601.11,-449.04 601.75,-456.01"/>
</g>
<!-- Node8&#45;&gt;Node3 -->
<g id="edge9" class="edge">
<title>Node8&#45;&gt;Node3</title>
<path fill="none" stroke="midnightblue" d="M385.68,-464.45C372.3,-464.45 358.64,-464.45 345.73,-464.45"/>
<polygon fill="midnightblue" stroke="midnightblue" points="385.83,-467.95 395.83,-464.45 385.83,-460.95 385.83,-467.95"/>
</g>
<!-- Node12 -->
<g id="node12" class="node">
<title>Node12</title>
<g id="a_node12"><a xlink:href="classGroveColorSensor.html#a8e64a0c9360199183fae4c938ace91eb" target="_top" xlink:title="retrieve all colors.">
<polygon fill="white" stroke="black" points="389,-169.95 389,-188.95 555,-188.95 555,-169.95 389,-169.95"/>
<text text-anchor="middle" x="472" y="-176.95" font-family="Helvetica,sans-Serif" font-size="10.00">GroveColorSensor::TSC3414All</text>
</a>
</g>
</g>
<!-- Node11&#45;&gt;Node12 -->
<g id="edge16" class="edge">
<title>Node11&#45;&gt;Node12</title>
<path fill="none" stroke="midnightblue" d="M580.52,-179.45C572.09,-179.45 563.6,-179.45 555.3,-179.45"/>
<polygon fill="midnightblue" stroke="midnightblue" points="580.77,-182.95 590.77,-179.45 580.77,-175.95 580.77,-182.95"/>
</g>
<!-- Node12&#45;&gt;Node5 -->
<g id="edge17" class="edge">
<title>Node12&#45;&gt;Node5</title>
<path fill="none" stroke="midnightblue" d="M438.13,-193.08C403.71,-207.34 349.81,-229.69 314.19,-244.45"/>
<polygon fill="midnightblue" stroke="midnightblue" points="439.82,-196.17 447.72,-189.1 437.14,-189.7 439.82,-196.17"/>
</g>
<!-- Node13&#45;&gt;Node12 -->
<g id="edge19" class="edge">
<title>Node13&#45;&gt;Node12</title>
<path fill="none" stroke="midnightblue" d="M597.73,-152.62C570.36,-158.51 540.72,-164.88 517.21,-169.94"/>
<polygon fill="midnightblue" stroke="midnightblue" points="598.65,-156 607.69,-150.47 597.18,-149.15 598.65,-156"/>
</g>
<!-- Node14&#45;&gt;Node12 -->
<g id="edge21" class="edge">
<title>Node14&#45;&gt;Node12</title>
<path fill="none" stroke="midnightblue" d="M605.68,-104.82C600.66,-106.58 595.72,-108.46 591,-110.45 551,-127.36 507.89,-155.35 486.55,-169.95"/>
<polygon fill="midnightblue" stroke="midnightblue" points="607.02,-108.06 615.4,-101.58 604.81,-101.42 607.02,-108.06"/>
</g>
<!-- Node15&#45;&gt;Node12 -->
<g id="edge23" class="edge">
<title>Node15&#45;&gt;Node12</title>
<path fill="none" stroke="midnightblue" d="M606.82,-280.81C601.36,-278.97 596.03,-276.86 591,-274.45 544.52,-252.17 500.04,-208.32 481.75,-188.99"/>
<polygon fill="midnightblue" stroke="midnightblue" points="606.15,-284.27 616.74,-283.86 608.21,-277.58 606.15,-284.27"/>
</g>
</g>
</svg>
