<?xml version="1.0" encoding="UTF-8" standalone="no"?>
<!DOCTYPE svg PUBLIC "-//W3C//DTD SVG 1.1//EN"
 "http://www.w3.org/Graphics/SVG/1.1/DTD/svg11.dtd">
<!-- Generated by graphviz version 2.43.0 (0)
 -->
<!-- Title: Robot::displayTS Pages: 1 -->
<!--zoomable 156 -->
<svg id="main" version="1.1" xmlns="http://www.w3.org/2000/svg" xmlns:xlink="http://www.w3.org/1999/xlink" xml:space="preserve" onload="init(evt)">
<style type="text/css"><![CDATA[
.edge:hover path { stroke: red; }
.edge:hover polygon { stroke: red; fill: red; }
]]></style>
<script type="text/javascript"><![CDATA[
var edges = document.getElementsByTagName('g');
if (edges && edges.length) {
  for (var i=0;i<edges.length;i++) {
    if (edges[i].id.substr(0,4)=='edge') {
      edges[i].setAttribute('class','edge');
    }
  }
}
]]></script>
        <defs>
                <circle id="rim" cx="0" cy="0" r="7"/>
                <circle id="rim2" cx="0" cy="0" r="3.5"/>
                <g id="zoomPlus">
                        <use xlink:href="#rim" fill="#404040">
                                <set attributeName="fill" to="#808080" begin="zoomplus.mouseover" end="zoomplus.mouseout"/>
                        </use>
                        <path d="M-4,0h8M0,-4v8" fill="none" stroke="white" stroke-width="1.5" pointer-events="none"/>
                </g>
                <g id="zoomMin">
                        <use xlink:href="#rim" fill="#404040">
                                <set attributeName="fill" to="#808080" begin="zoomminus.mouseover" end="zoomminus.mouseout"/>
                        </use>
                        <path d="M-4,0h8" fill="none" stroke="white" stroke-width="1.5" pointer-events="none"/>
                </g>
                <g id="dirArrow">
                        <path fill="none" stroke="white" stroke-width="1.5" d="M0,-3.0v7 M-2.5,-0.5L0,-3.0L2.5,-0.5"/>
                </g>
               <g id="resetDef">
                       <use xlink:href="#rim2" fill="#404040">
                               <set attributeName="fill" to="#808080" begin="reset.mouseover" end="reset.mouseout"/>
                       </use>
               </g>
        </defs>

<script type="text/javascript">
var viewWidth = 1067;
var viewHeight = 156;
var sectionId = 'dynsection-14';
</script>
<script xlink:href="svgpan.js"/>
<svg id="graph" class="graph">
<g id="viewport">
<title>Robot::displayTS</title>
<polygon fill="white" stroke="transparent" points="-4,4 -4,-152 1063,-152 1063,4 -4,4"/>
<!-- Node1 -->
<g id="node1" class="node">
<title>Node1</title>
<g id="a_node1"><a xlink:title="Affiche l&#39;état de trajectoire courant.">
<polygon fill="#bfbfbf" stroke="black" points="961,-71.5 961,-90.5 1059,-90.5 1059,-71.5 961,-71.5"/>
<text text-anchor="middle" x="1010" y="-78.5" font-family="Helvetica,sans-Serif" font-size="10.00">Robot::displayTS</text>
</a>
</g>
</g>
<!-- Node2 -->
<g id="node2" class="node">
<title>Node2</title>
<g id="a_node2"><a xlink:href="classRobot.html#a7c2c32badf138c2a26b82068447c3c98" target="_top" xlink:title="Fonctions de motion intelligente en plusieurs essais.">
<polygon fill="white" stroke="black" points="781,-128.5 781,-147.5 892,-147.5 892,-128.5 781,-128.5"/>
<text text-anchor="middle" x="836.5" y="-135.5" font-family="Helvetica,sans-Serif" font-size="10.00">Robot::whileDoLine</text>
</a>
</g>
</g>
<!-- Node1&#45;&gt;Node2 -->
<g id="edge1" class="edge">
<title>Node1&#45;&gt;Node2</title>
<path fill="none" stroke="midnightblue" d="M981.41,-95.26C965.3,-103.14 944.38,-112.59 925,-119 913.93,-122.66 901.84,-125.81 890.27,-128.43"/>
<polygon fill="midnightblue" stroke="midnightblue" points="983.37,-98.2 990.77,-90.61 980.26,-91.93 983.37,-98.2"/>
</g>
<!-- Node3 -->
<g id="node3" class="node">
<title>Node3</title>
<g id="a_node3"><a xlink:href="classIAbyPath.html#acc586e1ba62ffb7a21087a5ca4d2f131" target="_top" xlink:title=" ">
<polygon fill="white" stroke="black" points="748,-90.5 748,-109.5 925,-109.5 925,-90.5 748,-90.5"/>
<text text-anchor="middle" x="836.5" y="-97.5" font-family="Helvetica,sans-Serif" font-size="10.00">IAbyPath::whileMoveBackwardTo</text>
</a>
</g>
</g>
<!-- Node1&#45;&gt;Node3 -->
<g id="edge2" class="edge">
<title>Node1&#45;&gt;Node3</title>
<path fill="none" stroke="midnightblue" d="M950.66,-87.46C941.85,-88.44 932.62,-89.46 923.38,-90.49"/>
<polygon fill="midnightblue" stroke="midnightblue" points="951.22,-90.92 960.77,-86.34 950.45,-83.97 951.22,-90.92"/>
</g>
<!-- Node5 -->
<g id="node5" class="node">
<title>Node5</title>
<g id="a_node5"><a xlink:href="classIAbyPath.html#aa2a96904ea74078d56dad53979b1d999" target="_top" xlink:title=" ">
<polygon fill="white" stroke="black" points="752.5,-14.5 752.5,-33.5 920.5,-33.5 920.5,-14.5 752.5,-14.5"/>
<text text-anchor="middle" x="836.5" y="-21.5" font-family="Helvetica,sans-Serif" font-size="10.00">IAbyPath::whileMoveForwardTo</text>
</a>
</g>
</g>
<!-- Node1&#45;&gt;Node5 -->
<g id="edge4" class="edge">
<title>Node1&#45;&gt;Node5</title>
<path fill="none" stroke="midnightblue" d="M981.41,-66.74C965.3,-58.86 944.38,-49.41 925,-43 913.93,-39.34 901.84,-36.19 890.27,-33.57"/>
<polygon fill="midnightblue" stroke="midnightblue" points="980.26,-70.07 990.77,-71.39 983.37,-63.8 980.26,-70.07"/>
</g>
<!-- Node12 -->
<g id="node12" class="node">
<title>Node12</title>
<g id="a_node12"><a xlink:href="classIAbyPath.html#a42570f6bc87216c2ac5d028ad596fe02" target="_top" xlink:title=" ">
<polygon fill="white" stroke="black" points="756,-52.5 756,-71.5 917,-71.5 917,-52.5 756,-52.5"/>
<text text-anchor="middle" x="836.5" y="-59.5" font-family="Helvetica,sans-Serif" font-size="10.00">IAbyPath::whileMoveRotateTo</text>
</a>
</g>
</g>
<!-- Node1&#45;&gt;Node12 -->
<g id="edge13" class="edge">
<title>Node1&#45;&gt;Node12</title>
<path fill="none" stroke="midnightblue" d="M950.66,-74.54C939.88,-73.34 928.46,-72.08 917.17,-70.83"/>
<polygon fill="midnightblue" stroke="midnightblue" points="950.45,-78.03 960.77,-75.66 951.22,-71.08 950.45,-78.03"/>
</g>
<!-- Node4 -->
<g id="node4" class="node">
<title>Node4</title>
<g id="a_node4"><a xlink:href="classIAbyPath.html#a9535c82f137778cc6cd4b159fe3d58ea" target="_top" xlink:title=" ">
<polygon fill="white" stroke="black" points="545,-85 545,-115 712,-115 712,-85 545,-85"/>
<text text-anchor="start" x="553" y="-103" font-family="Helvetica,sans-Serif" font-size="10.00">IAbyPath::whileMoveBackward</text>
<text text-anchor="middle" x="628.5" y="-92" font-family="Helvetica,sans-Serif" font-size="10.00">AndRotateTo</text>
</a>
</g>
</g>
<!-- Node3&#45;&gt;Node4 -->
<g id="edge3" class="edge">
<title>Node3&#45;&gt;Node4</title>
<path fill="none" stroke="midnightblue" d="M737.81,-100C729.23,-100 720.61,-100 712.17,-100"/>
<polygon fill="midnightblue" stroke="midnightblue" points="737.84,-103.5 747.84,-100 737.84,-96.5 737.84,-103.5"/>
</g>
<!-- Node6 -->
<g id="node6" class="node">
<title>Node6</title>
<g id="a_node6"><a xlink:href="O__State__DecisionMakerIA_8cpp.html#a1cbc5f5cba5f72b993c68f4aad4473f7" target="_top" xlink:title="Action de poussée de la prise en zone basse.">
<polygon fill="white" stroke="black" points="397.5,-0.5 397.5,-19.5 501.5,-19.5 501.5,-0.5 397.5,-0.5"/>
<text text-anchor="middle" x="449.5" y="-7.5" font-family="Helvetica,sans-Serif" font-size="10.00">O_push_prise_bas</text>
</a>
</g>
</g>
<!-- Node5&#45;&gt;Node6 -->
<g id="edge5" class="edge">
<title>Node5&#45;&gt;Node6</title>
<path fill="none" stroke="midnightblue" d="M742.42,-20.62C666.75,-17.86 562.84,-14.09 501.57,-11.86"/>
<polygon fill="midnightblue" stroke="midnightblue" points="742.31,-24.11 752.43,-20.98 742.57,-17.12 742.31,-24.11"/>
</g>
<!-- Node7 -->
<g id="node7" class="node">
<title>Node7</title>
<g id="a_node7"><a xlink:href="classIAbyPath.html#a3f27b793f84340c99ca33e12c2380bb4" target="_top" xlink:title=" ">
<polygon fill="white" stroke="black" points="549.5,-36 549.5,-66 707.5,-66 707.5,-36 549.5,-36"/>
<text text-anchor="start" x="557.5" y="-54" font-family="Helvetica,sans-Serif" font-size="10.00">IAbyPath::whileMoveForward</text>
<text text-anchor="middle" x="628.5" y="-43" font-family="Helvetica,sans-Serif" font-size="10.00">AndRotateTo</text>
</a>
</g>
</g>
<!-- Node5&#45;&gt;Node7 -->
<g id="edge6" class="edge">
<title>Node5&#45;&gt;Node7</title>
<path fill="none" stroke="midnightblue" d="M752.71,-34.85C737.88,-36.79 722.47,-38.81 707.77,-40.74"/>
<polygon fill="midnightblue" stroke="midnightblue" points="753.41,-38.29 762.87,-33.52 752.5,-31.35 753.41,-38.29"/>
</g>
<!-- Node7&#45;&gt;Node6 -->
<g id="edge12" class="edge">
<title>Node7&#45;&gt;Node6</title>
<path fill="none" stroke="midnightblue" d="M552.77,-33.69C531.87,-28.85 509.93,-23.77 491.75,-19.55"/>
<polygon fill="midnightblue" stroke="midnightblue" points="552.06,-37.12 562.6,-35.97 553.64,-30.3 552.06,-37.12"/>
</g>
<!-- Node8 -->
<g id="node8" class="node">
<title>Node8</title>
<g id="a_node8"><a xlink:href="O__State__DecisionMakerIA_8cpp.html#a6af4b40e5e676265dd688e0004be0ff6" target="_top" xlink:title="Action de fin de match : rejoint la zone de fin en haut de table.">
<polygon fill="white" stroke="black" points="390,-41.5 390,-60.5 509,-60.5 509,-41.5 390,-41.5"/>
<text text-anchor="middle" x="449.5" y="-48.5" font-family="Helvetica,sans-Serif" font-size="10.00">O_end_of_match_top</text>
</a>
</g>
</g>
<!-- Node7&#45;&gt;Node8 -->
<g id="edge7" class="edge">
<title>Node7&#45;&gt;Node8</title>
<path fill="none" stroke="midnightblue" d="M539.17,-51C528.97,-51 518.76,-51 509.09,-51"/>
<polygon fill="midnightblue" stroke="midnightblue" points="539.35,-54.5 549.35,-51 539.35,-47.5 539.35,-54.5"/>
</g>
<!-- Node9 -->
<g id="node9" class="node">
<title>Node9</title>
<g id="a_node9"><a xlink:href="classO__State__DecisionMakerIA.html#a9b35f6bac1a5602ec2a711fa280be4a6" target="_top" xlink:title="Configure les activités pour les zones de jeu du match.">
<polygon fill="white" stroke="black" points="195,-61 195,-91 337,-91 337,-61 195,-61"/>
<text text-anchor="start" x="203" y="-79" font-family="Helvetica,sans-Serif" font-size="10.00">O_State_DecisionMakerIA</text>
<text text-anchor="middle" x="266" y="-68" font-family="Helvetica,sans-Serif" font-size="10.00">::IASetupActivitiesZone</text>
</a>
</g>
</g>
<!-- Node8&#45;&gt;Node9 -->
<g id="edge8" class="edge">
<title>Node8&#45;&gt;Node9</title>
<path fill="none" stroke="midnightblue" d="M379.82,-60.46C365.88,-62.38 351.19,-64.4 337.19,-66.33"/>
<polygon fill="midnightblue" stroke="midnightblue" points="380.39,-63.91 389.82,-59.08 379.44,-56.98 380.39,-63.91"/>
</g>
<!-- Node11 -->
<g id="node11" class="node">
<title>Node11</title>
<g id="a_node11"><a xlink:href="classO__State__DecisionMakerIA.html#a8bd1c4d72bec8768c7c7c15bd2e665d8" target="_top" xlink:title="Configure les activités pour le mode test de la table.">
<polygon fill="white" stroke="black" points="178,-12 178,-42 354,-42 354,-12 178,-12"/>
<text text-anchor="start" x="186" y="-30" font-family="Helvetica,sans-Serif" font-size="10.00">O_State_DecisionMakerIA</text>
<text text-anchor="middle" x="266" y="-19" font-family="Helvetica,sans-Serif" font-size="10.00">::IASetupActivitiesZoneTableTest</text>
</a>
</g>
</g>
<!-- Node8&#45;&gt;Node11 -->
<g id="edge10" class="edge">
<title>Node8&#45;&gt;Node11</title>
<path fill="none" stroke="midnightblue" d="M379.77,-41.91C371.4,-40.81 362.77,-39.66 354.18,-38.53"/>
<polygon fill="midnightblue" stroke="midnightblue" points="379.45,-45.4 389.82,-43.24 380.37,-38.46 379.45,-45.4"/>
</g>
<!-- Node10 -->
<g id="node10" class="node">
<title>Node10</title>
<g id="a_node10"><a xlink:href="classO__State__DecisionMakerIA.html#a96d1f2a7618d607fd10cc51b9111e653" target="_top" xlink:title="Execute l&#39;action.">
<polygon fill="white" stroke="black" points="0,-36 0,-66 142,-66 142,-36 0,-36"/>
<text text-anchor="start" x="8" y="-54" font-family="Helvetica,sans-Serif" font-size="10.00">O_State_DecisionMakerIA</text>
<text text-anchor="middle" x="71" y="-43" font-family="Helvetica,sans-Serif" font-size="10.00">::execute</text>
</a>
</g>
</g>
<!-- Node9&#45;&gt;Node10 -->
<g id="edge9" class="edge">
<title>Node9&#45;&gt;Node10</title>
<path fill="none" stroke="midnightblue" d="M184.62,-65.59C170.52,-63.76 155.96,-61.88 142.17,-60.09"/>
<polygon fill="midnightblue" stroke="midnightblue" points="184.41,-69.09 194.78,-66.9 185.31,-62.15 184.41,-69.09"/>
</g>
<!-- Node11&#45;&gt;Node10 -->
<g id="edge11" class="edge">
<title>Node11&#45;&gt;Node10</title>
<path fill="none" stroke="midnightblue" d="M167.67,-39.1C159.02,-40.18 150.38,-41.25 142.02,-42.29"/>
<polygon fill="midnightblue" stroke="midnightblue" points="168.33,-42.55 177.82,-37.84 167.46,-35.6 168.33,-42.55"/>
</g>
<!-- Node12&#45;&gt;Node4 -->
<g id="edge14" class="edge">
<title>Node12&#45;&gt;Node4</title>
<path fill="none" stroke="midnightblue" d="M773.71,-73.4C753.98,-77.04 731.83,-81.12 710.93,-84.98"/>
<polygon fill="midnightblue" stroke="midnightblue" points="774.58,-76.8 783.78,-71.54 773.31,-69.91 774.58,-76.8"/>
</g>
<!-- Node12&#45;&gt;Node7 -->
<g id="edge15" class="edge">
<title>Node12&#45;&gt;Node7</title>
<path fill="none" stroke="midnightblue" d="M745.74,-57.21C733.03,-56.53 720.04,-55.83 707.58,-55.17"/>
<polygon fill="midnightblue" stroke="midnightblue" points="745.68,-60.71 755.86,-57.75 746.06,-53.72 745.68,-60.71"/>
</g>
</g>
</svg>
        <g id="navigator" transform="translate(0 0)" fill="#404254">
                <rect fill="#f2f5e9" fill-opacity="0.5" stroke="#606060" stroke-width=".5" x="0" y="0" width="60" height="60"/>
                <use id="zoomplus" xlink:href="#zoomPlus" x="17" y="9" onmousedown="handleZoom(evt,'in')"/>
                <use id="zoomminus" xlink:href="#zoomMin" x="42" y="9" onmousedown="handleZoom(evt,'out')"/>
                <use id="reset" xlink:href="#resetDef" x="30" y="36" onmousedown="handleReset()"/>
                <g id="arrowUp" xlink:href="#dirArrow" transform="translate(30 24)" onmousedown="handlePan(0,-1)">
                  <use xlink:href="#rim" fill="#404040">
                        <set attributeName="fill" to="#808080" begin="arrowUp.mouseover" end="arrowUp.mouseout"/>
                  </use>
                  <path fill="none" stroke="white" stroke-width="1.5" d="M0,-3.0v7 M-2.5,-0.5L0,-3.0L2.5,-0.5"/>
                </g>
                <g id="arrowRight" xlink:href="#dirArrow" transform="rotate(90) translate(36 -43)" onmousedown="handlePan(1,0)">
                  <use xlink:href="#rim" fill="#404040">
                        <set attributeName="fill" to="#808080" begin="arrowRight.mouseover" end="arrowRight.mouseout"/>
                  </use>
                  <path fill="none" stroke="white" stroke-width="1.5" d="M0,-3.0v7 M-2.5,-0.5L0,-3.0L2.5,-0.5"/>
                </g>
                <g id="arrowDown" xlink:href="#dirArrow" transform="rotate(180) translate(-30 -48)" onmousedown="handlePan(0,1)">
                  <use xlink:href="#rim" fill="#404040">
                        <set attributeName="fill" to="#808080" begin="arrowDown.mouseover" end="arrowDown.mouseout"/>
                  </use>
                  <path fill="none" stroke="white" stroke-width="1.5" d="M0,-3.0v7 M-2.5,-0.5L0,-3.0L2.5,-0.5"/>
                </g>
                <g id="arrowLeft" xlink:href="#dirArrow" transform="rotate(270) translate(-36 17)" onmousedown="handlePan(-1,0)">
                  <use xlink:href="#rim" fill="#404040">
                        <set attributeName="fill" to="#808080" begin="arrowLeft.mouseover" end="arrowLeft.mouseout"/>
                  </use>
                  <path fill="none" stroke="white" stroke-width="1.5" d="M0,-3.0v7 M-2.5,-0.5L0,-3.0L2.5,-0.5"/>
                </g>
        </g>
        <svg viewBox="0 0 15 15" width="100%" height="30px" preserveAspectRatio="xMaxYMin meet">
         <g id="arrow_out" transform="scale(0.3 0.3)">
          <a xlink:href="classRobot_a7fbd102d7898ba33eecae47cfec530fa_icgraph_org.svg" target="_base">
           <rect id="button" ry="5" rx="5" y="6" x="6" height="38" width="38"
                fill="#f2f5e9" fill-opacity="0.5" stroke="#606060" stroke-width="1.0"/>
           <path id="arrow"
             d="M 11.500037,31.436501 C 11.940474,20.09759 22.043105,11.32322 32.158766,21.979434 L 37.068811,17.246167 C 37.068811,17.246167 37.088388,32 37.088388,32 L 22.160133,31.978069 C 22.160133,31.978069 26.997745,27.140456 26.997745,27.140456 C 18.528582,18.264221 13.291696,25.230495 11.500037,31.436501 z"
             style="fill:#404040;"/>
          </a>
         </g>
        </svg>
</svg>
