<?xml version="1.0" encoding="UTF-8" standalone="no"?>
<!DOCTYPE svg PUBLIC "-//W3C//DTD SVG 1.1//EN"
 "http://www.w3.org/Graphics/SVG/1.1/DTD/svg11.dtd">
<!-- Generated by graphviz version 2.43.0 (0)
 -->
<!-- Title: Adafruit_RGBLCDShield::write4bits Pages: 1 -->
<svg width="1030pt" height="373pt"
 viewBox="0.00 0.00 1030.00 372.50" xmlns="http://www.w3.org/2000/svg" xmlns:xlink="http://www.w3.org/1999/xlink">
<g id="graph0" class="graph" transform="scale(1 1) rotate(0) translate(4 368.5)">
<title>Adafruit_RGBLCDShield::write4bits</title>
<polygon fill="white" stroke="transparent" points="-4,4 -4,-368.5 1026,-368.5 1026,4 -4,4"/>
<!-- Node1 -->
<g id="node1" class="node">
<title>Node1</title>
<g id="a_node1"><a xlink:title=" ">
<polygon fill="#bfbfbf" stroke="black" points="0,-183.5 0,-213.5 131,-213.5 131,-183.5 0,-183.5"/>
<text text-anchor="start" x="8" y="-201.5" font-family="Helvetica,sans-Serif" font-size="10.00">Adafruit_RGBLCDShield</text>
<text text-anchor="middle" x="65.5" y="-190.5" font-family="Helvetica,sans-Serif" font-size="10.00">::write4bits</text>
</a>
</g>
</g>
<!-- Node2 -->
<g id="node2" class="node">
<title>Node2</title>
<g id="a_node2"><a xlink:href="classAdafruit__RGBLCDShield.html#aead28395830ccd7e74041736aba46e03" target="_top" xlink:title=" ">
<polygon fill="white" stroke="black" points="334,-232.5 334,-262.5 465,-262.5 465,-232.5 334,-232.5"/>
<text text-anchor="start" x="342" y="-250.5" font-family="Helvetica,sans-Serif" font-size="10.00">Adafruit_RGBLCDShield</text>
<text text-anchor="middle" x="399.5" y="-239.5" font-family="Helvetica,sans-Serif" font-size="10.00">::_digitalWrite</text>
</a>
</g>
</g>
<!-- Node1&#45;&gt;Node2 -->
<g id="edge1" class="edge">
<title>Node1&#45;&gt;Node2</title>
<path fill="none" stroke="midnightblue" d="M131.3,-208.06C186.49,-216.21 265.8,-227.92 323.68,-236.46"/>
<polygon fill="midnightblue" stroke="midnightblue" points="323.46,-239.96 333.86,-237.96 324.48,-233.04 323.46,-239.96"/>
</g>
<!-- Node18 -->
<g id="node18" class="node">
<title>Node18</title>
<g id="a_node18"><a xlink:href="classAdafruit__RGBLCDShield.html#a1668a3877e0d9960df698b68195b3d27" target="_top" xlink:title=" ">
<polygon fill="white" stroke="black" points="334,-183.5 334,-213.5 465,-213.5 465,-183.5 334,-183.5"/>
<text text-anchor="start" x="342" y="-201.5" font-family="Helvetica,sans-Serif" font-size="10.00">Adafruit_RGBLCDShield</text>
<text text-anchor="middle" x="399.5" y="-190.5" font-family="Helvetica,sans-Serif" font-size="10.00">::_pinMode</text>
</a>
</g>
</g>
<!-- Node1&#45;&gt;Node18 -->
<g id="edge18" class="edge">
<title>Node1&#45;&gt;Node18</title>
<path fill="none" stroke="midnightblue" d="M131.3,-198.5C186.49,-198.5 265.8,-198.5 323.68,-198.5"/>
<polygon fill="midnightblue" stroke="midnightblue" points="323.86,-202 333.86,-198.5 323.86,-195 323.86,-202"/>
</g>
<!-- Node20 -->
<g id="node20" class="node">
<title>Node20</title>
<g id="a_node20"><a xlink:href="classAdafruit__RGBLCDShield.html#a59fb0fd79b214abe02fee3459ef69f96" target="_top" xlink:title=" ">
<polygon fill="white" stroke="black" points="167,-289.5 167,-319.5 298,-319.5 298,-289.5 167,-289.5"/>
<text text-anchor="start" x="175" y="-307.5" font-family="Helvetica,sans-Serif" font-size="10.00">Adafruit_RGBLCDShield</text>
<text text-anchor="middle" x="232.5" y="-296.5" font-family="Helvetica,sans-Serif" font-size="10.00">::pulseEnable</text>
</a>
</g>
</g>
<!-- Node1&#45;&gt;Node20 -->
<g id="edge25" class="edge">
<title>Node1&#45;&gt;Node20</title>
<path fill="none" stroke="midnightblue" d="M90.14,-213.69C118.81,-232.11 167.27,-263.24 199.33,-283.83"/>
<polygon fill="midnightblue" stroke="midnightblue" points="197.6,-286.88 207.9,-289.34 201.38,-280.99 197.6,-286.88"/>
</g>
<!-- Node21 -->
<g id="node21" class="node">
<title>Node21</title>
<g id="a_node21"><a xlink:href="classAdafruit__MCP23017.html#a07d894fe9d749fd7d3d098c99ce1fa64" target="_top" xlink:title=" ">
<polygon fill="white" stroke="black" points="173,-117.5 173,-147.5 292,-147.5 292,-117.5 173,-117.5"/>
<text text-anchor="start" x="181" y="-135.5" font-family="Helvetica,sans-Serif" font-size="10.00">Adafruit_MCP23017::</text>
<text text-anchor="middle" x="232.5" y="-124.5" font-family="Helvetica,sans-Serif" font-size="10.00">readGPIOAB</text>
</a>
</g>
</g>
<!-- Node1&#45;&gt;Node21 -->
<g id="edge29" class="edge">
<title>Node1&#45;&gt;Node21</title>
<path fill="none" stroke="midnightblue" d="M104.35,-183.36C128.15,-173.84 159.03,-161.49 184.39,-151.34"/>
<polygon fill="midnightblue" stroke="midnightblue" points="185.84,-154.53 193.82,-147.57 183.24,-148.04 185.84,-154.53"/>
</g>
<!-- Node22 -->
<g id="node22" class="node">
<title>Node22</title>
<g id="a_node22"><a xlink:href="classAdafruit__MCP23017.html#a4b4845ea14d7207f22b0163ae5c622f2" target="_top" xlink:title=" ">
<polygon fill="white" stroke="black" points="173,-24.5 173,-54.5 292,-54.5 292,-24.5 173,-24.5"/>
<text text-anchor="start" x="181" y="-42.5" font-family="Helvetica,sans-Serif" font-size="10.00">Adafruit_MCP23017::</text>
<text text-anchor="middle" x="232.5" y="-31.5" font-family="Helvetica,sans-Serif" font-size="10.00">writeGPIOAB</text>
</a>
</g>
</g>
<!-- Node1&#45;&gt;Node22 -->
<g id="edge31" class="edge">
<title>Node1&#45;&gt;Node22</title>
<path fill="none" stroke="midnightblue" d="M82.32,-183.25C111.57,-155.07 174.2,-94.71 208.27,-61.88"/>
<polygon fill="midnightblue" stroke="midnightblue" points="210.71,-64.39 215.48,-54.93 205.86,-59.35 210.71,-64.39"/>
</g>
<!-- Node3 -->
<g id="node3" class="node">
<title>Node3</title>
<g id="a_node3"><a xlink:href="classlogs_1_1Logger.html#a7dffc8f610014ec59b63392da16140e4" target="_top" xlink:title="Trace un message de niveau DEBUG.">
<polygon fill="white" stroke="black" points="510.5,-236 510.5,-255 622.5,-255 622.5,-236 510.5,-236"/>
<text text-anchor="middle" x="566.5" y="-243" font-family="Helvetica,sans-Serif" font-size="10.00">logs::Logger::debug</text>
</a>
</g>
</g>
<!-- Node2&#45;&gt;Node3 -->
<g id="edge2" class="edge">
<title>Node2&#45;&gt;Node3</title>
<path fill="none" stroke="midnightblue" d="M465.24,-246.72C476.64,-246.58 488.53,-246.43 499.95,-246.29"/>
<polygon fill="midnightblue" stroke="midnightblue" points="500.34,-249.79 510.29,-246.17 500.25,-242.79 500.34,-249.79"/>
</g>
<!-- Node5 -->
<g id="node5" class="node">
<title>Node5</title>
<g id="a_node5"><a xlink:href="classAdafruit__MCP23017.html#a62c7101061540e9af47ea23d5b33fa81" target="_top" xlink:title=" ">
<polygon fill="white" stroke="black" points="507,-137.5 507,-167.5 626,-167.5 626,-137.5 507,-137.5"/>
<text text-anchor="start" x="515" y="-155.5" font-family="Helvetica,sans-Serif" font-size="10.00">Adafruit_MCP23017::</text>
<text text-anchor="middle" x="566.5" y="-144.5" font-family="Helvetica,sans-Serif" font-size="10.00">digitalWrite</text>
</a>
</g>
</g>
<!-- Node2&#45;&gt;Node5 -->
<g id="edge4" class="edge">
<title>Node2&#45;&gt;Node5</title>
<path fill="none" stroke="midnightblue" d="M449.88,-232.42C455.21,-229.85 460.37,-226.89 465,-223.5 485.95,-208.17 480.15,-192.97 501,-177.5 503.48,-175.66 506.1,-173.94 508.83,-172.34"/>
<polygon fill="midnightblue" stroke="midnightblue" points="510.6,-175.36 517.79,-167.58 507.32,-169.17 510.6,-175.36"/>
</g>
<!-- Node8 -->
<g id="node8" class="node">
<title>Node8</title>
<g id="a_node8"><a xlink:href="namespacelogs.html#ac6f325c6cfe6189bc8e243daa184453b" target="_top" xlink:title="Cette méthode permet de finir les flux de construction par la notation.">
<polygon fill="white" stroke="black" points="536,-274 536,-293 597,-293 597,-274 536,-274"/>
<text text-anchor="middle" x="566.5" y="-281" font-family="Helvetica,sans-Serif" font-size="10.00">logs::end</text>
</a>
</g>
</g>
<!-- Node2&#45;&gt;Node8 -->
<g id="edge7" class="edge">
<title>Node2&#45;&gt;Node8</title>
<path fill="none" stroke="midnightblue" d="M465.24,-261.62C485.71,-266.09 507.72,-270.89 525.88,-274.86"/>
<polygon fill="midnightblue" stroke="midnightblue" points="525.3,-278.31 535.82,-277.02 526.79,-271.47 525.3,-278.31"/>
</g>
<!-- Node12 -->
<g id="node12" class="node">
<title>Node12</title>
<g id="a_node12"><a xlink:href="classAdafruit__RGBLCDShield.html#a93313ba4a8e5e896f400006672ff4317" target="_top" xlink:title=" ">
<polygon fill="white" stroke="black" points="501,-186.5 501,-216.5 632,-216.5 632,-186.5 501,-186.5"/>
<text text-anchor="start" x="509" y="-204.5" font-family="Helvetica,sans-Serif" font-size="10.00">Adafruit_RGBLCDShield</text>
<text text-anchor="middle" x="566.5" y="-193.5" font-family="Helvetica,sans-Serif" font-size="10.00">::logger</text>
</a>
</g>
</g>
<!-- Node2&#45;&gt;Node12 -->
<g id="edge12" class="edge">
<title>Node2&#45;&gt;Node12</title>
<path fill="none" stroke="midnightblue" d="M454.53,-232.44C469.56,-228.25 486.03,-223.65 501.58,-219.32"/>
<polygon fill="midnightblue" stroke="midnightblue" points="502.94,-222.57 511.63,-216.52 501.06,-215.83 502.94,-222.57"/>
</g>
<!-- Node4 -->
<g id="node4" class="node">
<title>Node4</title>
<g id="a_node4"><a xlink:href="classlogs_1_1Logger.html#afa535aaf4891e02c4ff7f84d372b5b1b" target="_top" xlink:title="Méthode générique de trace d&#39;un message.">
<polygon fill="white" stroke="black" points="872,-241 872,-260 1022,-260 1022,-241 872,-241"/>
<text text-anchor="middle" x="947" y="-248" font-family="Helvetica,sans-Serif" font-size="10.00">logs::Logger::writeMessage</text>
</a>
</g>
</g>
<!-- Node3&#45;&gt;Node4 -->
<g id="edge3" class="edge">
<title>Node3&#45;&gt;Node4</title>
<path fill="none" stroke="midnightblue" d="M622.54,-246.23C685.3,-247.06 788.63,-248.42 861.59,-249.38"/>
<polygon fill="midnightblue" stroke="midnightblue" points="861.63,-252.89 871.68,-249.52 861.72,-245.89 861.63,-252.89"/>
</g>
<!-- Node6 -->
<g id="node6" class="node">
<title>Node6</title>
<g id="a_node6"><a xlink:href="classAdafruit__MCP23017.html#a5935341a99356efaf41556b5ee78cd5a" target="_top" xlink:title=" ">
<polygon fill="white" stroke="black" points="692.5,-39.5 692.5,-69.5 811.5,-69.5 811.5,-39.5 692.5,-39.5"/>
<text text-anchor="start" x="700.5" y="-57.5" font-family="Helvetica,sans-Serif" font-size="10.00">Adafruit_MCP23017::</text>
<text text-anchor="middle" x="752" y="-46.5" font-family="Helvetica,sans-Serif" font-size="10.00">read_i2c</text>
</a>
</g>
</g>
<!-- Node5&#45;&gt;Node6 -->
<g id="edge5" class="edge">
<title>Node5&#45;&gt;Node6</title>
<path fill="none" stroke="midnightblue" d="M617.35,-137.44C622.53,-134.87 627.53,-131.91 632,-128.5 653.77,-111.9 645.62,-94.28 668,-78.5 672.6,-75.26 677.63,-72.45 682.87,-70.02"/>
<polygon fill="midnightblue" stroke="midnightblue" points="684.58,-73.1 692.48,-66.04 681.9,-66.64 684.58,-73.1"/>
</g>
<!-- Node7 -->
<g id="node7" class="node">
<title>Node7</title>
<g id="a_node7"><a xlink:href="classAdafruit__MCP23017.html#a29e5ba320b6ce6812c42ab99f5f4c80d" target="_top" xlink:title=" ">
<polygon fill="white" stroke="black" points="692.5,-88.5 692.5,-118.5 811.5,-118.5 811.5,-88.5 692.5,-88.5"/>
<text text-anchor="start" x="700.5" y="-106.5" font-family="Helvetica,sans-Serif" font-size="10.00">Adafruit_MCP23017::</text>
<text text-anchor="middle" x="752" y="-95.5" font-family="Helvetica,sans-Serif" font-size="10.00">write_i2c</text>
</a>
</g>
</g>
<!-- Node5&#45;&gt;Node7 -->
<g id="edge6" class="edge">
<title>Node5&#45;&gt;Node7</title>
<path fill="none" stroke="midnightblue" d="M623.8,-137.47C643.18,-132.29 665.05,-126.45 685.11,-121.09"/>
<polygon fill="midnightblue" stroke="midnightblue" points="686.04,-124.47 694.8,-118.51 684.24,-117.7 686.04,-124.47"/>
</g>
<!-- Node9 -->
<g id="node9" class="node">
<title>Node9</title>
<g id="a_node9"><a xlink:href="classlogs_1_1Logger_1_1LoggerBuffer.html#a0e4fd77693fd899ec1b0670354f93a02" target="_top" xlink:title="Cette méthode valide le message en cours de construction et le transmet au Logger de référence.">
<polygon fill="white" stroke="black" points="668,-274 668,-293 836,-293 836,-274 668,-274"/>
<text text-anchor="middle" x="752" y="-281" font-family="Helvetica,sans-Serif" font-size="10.00">logs::Logger::LoggerBuffer::end</text>
</a>
</g>
</g>
<!-- Node8&#45;&gt;Node9 -->
<g id="edge8" class="edge">
<title>Node8&#45;&gt;Node9</title>
<path fill="none" stroke="midnightblue" d="M597.39,-283.5C614.04,-283.5 635.76,-283.5 657.62,-283.5"/>
<polygon fill="midnightblue" stroke="midnightblue" points="657.65,-287 667.65,-283.5 657.65,-280 657.65,-287"/>
</g>
<!-- Node9&#45;&gt;Node4 -->
<g id="edge11" class="edge">
<title>Node9&#45;&gt;Node4</title>
<path fill="none" stroke="midnightblue" d="M808.56,-274C830.88,-270.18 856.77,-265.76 880.03,-261.78"/>
<polygon fill="midnightblue" stroke="midnightblue" points="880.89,-265.18 890.16,-260.05 879.71,-258.28 880.89,-265.18"/>
</g>
<!-- Node10 -->
<g id="node10" class="node">
<title>Node10</title>
<g id="a_node10"><a xlink:href="classutils_1_1Mutex.html#aa584b418a5ef484f76b93e361a1d7e32" target="_top" xlink:title="Verrouille le mutex. Cette méthode doit être appelée avant d&#39;utiliser la ressource associée....">
<polygon fill="white" stroke="black" points="896.5,-345 896.5,-364 997.5,-364 997.5,-345 896.5,-345"/>
<text text-anchor="middle" x="947" y="-352" font-family="Helvetica,sans-Serif" font-size="10.00">utils::Mutex::lock</text>
</a>
</g>
</g>
<!-- Node9&#45;&gt;Node10 -->
<g id="edge9" class="edge">
<title>Node9&#45;&gt;Node10</title>
<path fill="none" stroke="midnightblue" d="M779.03,-293.08C812.94,-305.55 872.37,-327.41 910.42,-341.41"/>
<polygon fill="midnightblue" stroke="midnightblue" points="909.48,-344.8 920.08,-344.96 911.9,-338.23 909.48,-344.8"/>
</g>
<!-- Node11 -->
<g id="node11" class="node">
<title>Node11</title>
<g id="a_node11"><a xlink:href="classutils_1_1Mutex.html#a59b2079dc7f803d49f78ac9c04406cd3" target="_top" xlink:title="Déverrouille le mutex. Cette méthode doit être appelée après avoir utiliser la ressource associée.">
<polygon fill="white" stroke="black" points="890.5,-298 890.5,-317 1003.5,-317 1003.5,-298 890.5,-298"/>
<text text-anchor="middle" x="947" y="-305" font-family="Helvetica,sans-Serif" font-size="10.00">utils::Mutex::unlock</text>
</a>
</g>
</g>
<!-- Node9&#45;&gt;Node11 -->
<g id="edge10" class="edge">
<title>Node9&#45;&gt;Node11</title>
<path fill="none" stroke="midnightblue" d="M829.56,-293.02C846.38,-295.11 864.04,-297.31 880.39,-299.34"/>
<polygon fill="midnightblue" stroke="midnightblue" points="880.02,-302.82 890.37,-300.58 880.88,-295.88 880.02,-302.82"/>
</g>
<!-- Node13 -->
<g id="node13" class="node">
<title>Node13</title>
<g id="a_node13"><a xlink:href="classAdafruit__RGBLCDShield.html#a5d6b24992e72f3beb5187b971eec3d42" target="_top" xlink:title=" ">
<polygon fill="white" stroke="black" points="686.5,-186.5 686.5,-216.5 817.5,-216.5 817.5,-186.5 686.5,-186.5"/>
<text text-anchor="start" x="694.5" y="-204.5" font-family="Helvetica,sans-Serif" font-size="10.00">Adafruit_RGBLCDShield</text>
<text text-anchor="middle" x="752" y="-193.5" font-family="Helvetica,sans-Serif" font-size="10.00">::instance</text>
</a>
</g>
</g>
<!-- Node12&#45;&gt;Node13 -->
<g id="edge13" class="edge">
<title>Node12&#45;&gt;Node13</title>
<path fill="none" stroke="midnightblue" d="M632.2,-201.5C646.45,-201.5 661.66,-201.5 676.27,-201.5"/>
<polygon fill="midnightblue" stroke="midnightblue" points="676.27,-205 686.27,-201.5 676.27,-198 676.27,-205"/>
</g>
<!-- Node14 -->
<g id="node14" class="node">
<title>Node14</title>
<g id="a_node14"><a xlink:href="classlogs_1_1LoggerFactory.html#a82585b5de73e471e06cafdccc3b3721e" target="_top" xlink:title="Cette méthode statique retourne un Logger en fonction de son nom.">
<polygon fill="white" stroke="black" points="696.5,-137.5 696.5,-167.5 807.5,-167.5 807.5,-137.5 696.5,-137.5"/>
<text text-anchor="start" x="704.5" y="-155.5" font-family="Helvetica,sans-Serif" font-size="10.00">logs::LoggerFactory</text>
<text text-anchor="middle" x="752" y="-144.5" font-family="Helvetica,sans-Serif" font-size="10.00">::logger</text>
</a>
</g>
</g>
<!-- Node12&#45;&gt;Node14 -->
<g id="edge14" class="edge">
<title>Node12&#45;&gt;Node14</title>
<path fill="none" stroke="midnightblue" d="M623.8,-186.47C643.63,-181.17 666.07,-175.18 686.52,-169.72"/>
<polygon fill="midnightblue" stroke="midnightblue" points="687.62,-173.05 696.38,-167.09 685.81,-166.28 687.62,-173.05"/>
</g>
<!-- Node15 -->
<g id="node15" class="node">
<title>Node15</title>
<g id="a_node15"><a xlink:href="classlogs_1_1LoggerFactory.html#ac89f19c0ffd71aa8cdc1c2d44c03809e" target="_top" xlink:title="Cette méthode ajoute un appender au système.">
<polygon fill="white" stroke="black" points="880,-187 880,-206 1014,-206 1014,-187 880,-187"/>
<text text-anchor="middle" x="947" y="-194" font-family="Helvetica,sans-Serif" font-size="10.00">logs::LoggerFactory::add</text>
</a>
</g>
</g>
<!-- Node14&#45;&gt;Node15 -->
<g id="edge15" class="edge">
<title>Node14&#45;&gt;Node15</title>
<path fill="none" stroke="midnightblue" d="M807.53,-164.93C834.71,-171.13 867.41,-178.58 894.21,-184.69"/>
<polygon fill="midnightblue" stroke="midnightblue" points="893.64,-188.15 904.16,-186.96 895.19,-181.33 893.64,-188.15"/>
</g>
<!-- Node16 -->
<g id="node16" class="node">
<title>Node16</title>
<g id="a_node16"><a xlink:href="classlogs_1_1LoggerFactory.html#a90478b91d7af2ef8841ded21e3521f69" target="_top" xlink:title="Cette méthode statique retourne l&#39;instance unique de la classe LoggerFactory.">
<polygon fill="white" stroke="black" points="891.5,-137.5 891.5,-167.5 1002.5,-167.5 1002.5,-137.5 891.5,-137.5"/>
<text text-anchor="start" x="899.5" y="-155.5" font-family="Helvetica,sans-Serif" font-size="10.00">logs::LoggerFactory</text>
<text text-anchor="middle" x="947" y="-144.5" font-family="Helvetica,sans-Serif" font-size="10.00">::instance</text>
</a>
</g>
</g>
<!-- Node14&#45;&gt;Node16 -->
<g id="edge16" class="edge">
<title>Node14&#45;&gt;Node16</title>
<path fill="none" stroke="midnightblue" d="M807.53,-152.5C830.45,-152.5 857.3,-152.5 881.22,-152.5"/>
<polygon fill="midnightblue" stroke="midnightblue" points="881.27,-156 891.27,-152.5 881.27,-149 881.27,-156"/>
</g>
<!-- Node17 -->
<g id="node17" class="node">
<title>Node17</title>
<g id="a_node17"><a xlink:href="classlogs_1_1LoggerFactory.html#a212aa623f4b6bee12cb39e8017dde670" target="_top" xlink:title="Cette méthode retourne le Logger principal qui définit le niveau de trace par défaut.">
<polygon fill="white" stroke="black" points="891.5,-88.5 891.5,-118.5 1002.5,-118.5 1002.5,-88.5 891.5,-88.5"/>
<text text-anchor="start" x="899.5" y="-106.5" font-family="Helvetica,sans-Serif" font-size="10.00">logs::LoggerFactory</text>
<text text-anchor="middle" x="947" y="-95.5" font-family="Helvetica,sans-Serif" font-size="10.00">::rootLogger</text>
</a>
</g>
</g>
<!-- Node14&#45;&gt;Node17 -->
<g id="edge17" class="edge">
<title>Node14&#45;&gt;Node17</title>
<path fill="none" stroke="midnightblue" d="M807.53,-138.66C830.56,-132.81 857.54,-125.96 881.54,-119.87"/>
<polygon fill="midnightblue" stroke="midnightblue" points="882.44,-123.25 891.27,-117.4 880.71,-116.46 882.44,-123.25"/>
</g>
<!-- Node18&#45;&gt;Node3 -->
<g id="edge19" class="edge">
<title>Node18&#45;&gt;Node3</title>
<path fill="none" stroke="midnightblue" d="M453.16,-213.5C475.47,-219.85 501.14,-227.17 522.31,-233.2"/>
<polygon fill="midnightblue" stroke="midnightblue" points="521.42,-236.58 532,-235.96 523.34,-229.85 521.42,-236.58"/>
</g>
<!-- Node18&#45;&gt;Node8 -->
<g id="edge20" class="edge">
<title>Node18&#45;&gt;Node8</title>
<path fill="none" stroke="midnightblue" d="M447.34,-213.54C453.52,-216.4 459.59,-219.72 465,-223.5 484.88,-237.39 480.56,-251.45 501,-264.5 508.58,-269.34 517.43,-272.99 526.11,-275.72"/>
<polygon fill="midnightblue" stroke="midnightblue" points="525.18,-279.1 535.76,-278.43 527.08,-272.36 525.18,-279.1"/>
</g>
<!-- Node18&#45;&gt;Node12 -->
<g id="edge21" class="edge">
<title>Node18&#45;&gt;Node12</title>
<path fill="none" stroke="midnightblue" d="M465.24,-199.68C473.58,-199.83 482.18,-199.99 490.67,-200.14"/>
<polygon fill="midnightblue" stroke="midnightblue" points="490.89,-203.64 500.95,-200.33 491.01,-196.65 490.89,-203.64"/>
</g>
<!-- Node19 -->
<g id="node19" class="node">
<title>Node19</title>
<g id="a_node19"><a xlink:href="classAdafruit__MCP23017.html#a6f2aea0d187cb281a4ed216fd31a6981" target="_top" xlink:title=" ">
<polygon fill="white" stroke="black" points="507,-88.5 507,-118.5 626,-118.5 626,-88.5 507,-88.5"/>
<text text-anchor="start" x="515" y="-106.5" font-family="Helvetica,sans-Serif" font-size="10.00">Adafruit_MCP23017::</text>
<text text-anchor="middle" x="566.5" y="-95.5" font-family="Helvetica,sans-Serif" font-size="10.00">pinMode</text>
</a>
</g>
</g>
<!-- Node18&#45;&gt;Node19 -->
<g id="edge22" class="edge">
<title>Node18&#45;&gt;Node19</title>
<path fill="none" stroke="midnightblue" d="M419.26,-183.38C438.82,-168.12 470.78,-144.58 501,-128.5 504.92,-126.41 509.06,-124.41 513.26,-122.5"/>
<polygon fill="midnightblue" stroke="midnightblue" points="514.74,-125.68 522.53,-118.5 511.96,-119.25 514.74,-125.68"/>
</g>
<!-- Node19&#45;&gt;Node6 -->
<g id="edge23" class="edge">
<title>Node19&#45;&gt;Node6</title>
<path fill="none" stroke="midnightblue" d="M623.8,-88.47C643.18,-83.29 665.05,-77.45 685.11,-72.09"/>
<polygon fill="midnightblue" stroke="midnightblue" points="686.04,-75.47 694.8,-69.51 684.24,-68.7 686.04,-75.47"/>
</g>
<!-- Node19&#45;&gt;Node7 -->
<g id="edge24" class="edge">
<title>Node19&#45;&gt;Node7</title>
<path fill="none" stroke="midnightblue" d="M626.07,-103.5C643.94,-103.5 663.76,-103.5 682.25,-103.5"/>
<polygon fill="midnightblue" stroke="midnightblue" points="682.36,-107 692.36,-103.5 682.36,-100 682.36,-107"/>
</g>
<!-- Node20&#45;&gt;Node2 -->
<g id="edge26" class="edge">
<title>Node20&#45;&gt;Node2</title>
<path fill="none" stroke="midnightblue" d="M277.28,-289.37C298.16,-282.16 323.31,-273.47 345.28,-265.89"/>
<polygon fill="midnightblue" stroke="midnightblue" points="346.49,-269.17 354.8,-262.6 344.2,-262.55 346.49,-269.17"/>
</g>
<!-- Node20&#45;&gt;Node10 -->
<g id="edge27" class="edge">
<title>Node20&#45;&gt;Node10</title>
<path fill="none" stroke="midnightblue" d="M298.01,-314.26C309.96,-315.85 322.34,-317.35 334,-318.5 535.88,-338.47 776.4,-348.66 886.11,-352.56"/>
<polygon fill="midnightblue" stroke="midnightblue" points="886.2,-356.07 896.31,-352.92 886.44,-349.07 886.2,-356.07"/>
</g>
<!-- Node20&#45;&gt;Node11 -->
<g id="edge28" class="edge">
<title>Node20&#45;&gt;Node11</title>
<path fill="none" stroke="midnightblue" d="M298.3,-304.77C433.37,-305.34 743.75,-306.65 879.92,-307.22"/>
<polygon fill="midnightblue" stroke="midnightblue" points="880.19,-310.72 890.2,-307.27 880.22,-303.72 880.19,-310.72"/>
</g>
<!-- Node21&#45;&gt;Node6 -->
<g id="edge30" class="edge">
<title>Node21&#45;&gt;Node6</title>
<path fill="none" stroke="midnightblue" d="M292.16,-118.84C346.15,-106.7 428.6,-89.25 501,-78.5 562.03,-69.44 631.97,-63.06 682.33,-59.17"/>
<polygon fill="midnightblue" stroke="midnightblue" points="682.74,-62.65 692.45,-58.4 682.21,-55.67 682.74,-62.65"/>
</g>
<!-- Node23 -->
<g id="node23" class="node">
<title>Node23</title>
<g id="a_node23"><a xlink:href="classAdafruit__MCP23017.html#a20fd3536424d0c91dba741894a010fd7" target="_top" xlink:title=" ">
<polygon fill="white" stroke="black" points="340,-0.5 340,-30.5 459,-30.5 459,-0.5 340,-0.5"/>
<text text-anchor="start" x="348" y="-18.5" font-family="Helvetica,sans-Serif" font-size="10.00">Adafruit_MCP23017::</text>
<text text-anchor="middle" x="399.5" y="-7.5" font-family="Helvetica,sans-Serif" font-size="10.00">writeI2c_3Bytes</text>
</a>
</g>
</g>
<!-- Node22&#45;&gt;Node23 -->
<g id="edge32" class="edge">
<title>Node22&#45;&gt;Node23</title>
<path fill="none" stroke="midnightblue" d="M292.14,-30.97C304.34,-29.2 317.31,-27.31 329.84,-25.49"/>
<polygon fill="midnightblue" stroke="midnightblue" points="330.38,-28.95 339.77,-24.04 329.37,-22.02 330.38,-28.95"/>
</g>
</g>
</svg>
