<?xml version="1.0" encoding="UTF-8" standalone="no"?>
<!DOCTYPE svg PUBLIC "-//W3C//DTD SVG 1.1//EN"
 "http://www.w3.org/Graphics/SVG/1.1/DTD/svg11.dtd">
<!-- Generated by graphviz version 2.43.0 (0)
 -->
<!-- Title: IAbyPath::loggerSvg Pages: 1 -->
<svg width="623pt" height="78pt"
 viewBox="0.00 0.00 623.00 77.50" xmlns="http://www.w3.org/2000/svg" xmlns:xlink="http://www.w3.org/1999/xlink">
<g id="graph0" class="graph" transform="scale(1 1) rotate(0) translate(4 73.5)">
<title>IAbyPath::loggerSvg</title>
<polygon fill="white" stroke="transparent" points="-4,4 -4,-73.5 619,-73.5 619,4 -4,4"/>
<!-- Node1 -->
<g id="node1" class="node">
<title>Node1</title>
<g id="a_node1"><a xlink:title=" ">
<polygon fill="#bfbfbf" stroke="black" points="501,-28 501,-47 615,-47 615,-28 501,-28"/>
<text text-anchor="middle" x="558" y="-35" font-family="Helvetica,sans-Serif" font-size="10.00">IAbyPath::loggerSvg</text>
</a>
</g>
</g>
<!-- Node2 -->
<g id="node2" class="node">
<title>Node2</title>
<g id="a_node2"><a xlink:href="classIAbyPath.html#af470d678e57b5c6362fdcf70a856a489" target="_top" xlink:title=" ">
<polygon fill="white" stroke="black" points="370,-28 370,-47 465,-47 465,-28 370,-28"/>
<text text-anchor="middle" x="417.5" y="-35" font-family="Helvetica,sans-Serif" font-size="10.00">IAbyPath::toSVG</text>
</a>
</g>
</g>
<!-- Node1&#45;&gt;Node2 -->
<g id="edge1" class="edge">
<title>Node1&#45;&gt;Node2</title>
<path fill="none" stroke="midnightblue" d="M490.59,-37.5C481.96,-37.5 473.27,-37.5 465.05,-37.5"/>
<polygon fill="midnightblue" stroke="midnightblue" points="490.67,-41 500.67,-37.5 490.67,-34 490.67,-41"/>
</g>
<!-- Node3 -->
<g id="node3" class="node">
<title>Node3</title>
<g id="a_node3"><a xlink:href="classO__IAByPathTest.html#ad010b84a2684b7e16b75c98d6231e5ac" target="_top" xlink:title="Initialise le terrain de jeu (grille de navigation A*).">
<polygon fill="white" stroke="black" points="165,-50 165,-69 334,-69 334,-50 165,-50"/>
<text text-anchor="middle" x="249.5" y="-57" font-family="Helvetica,sans-Serif" font-size="10.00">O_IAByPathTest::initPlayground</text>
</a>
</g>
</g>
<!-- Node2&#45;&gt;Node3 -->
<g id="edge2" class="edge">
<title>Node2&#45;&gt;Node3</title>
<path fill="none" stroke="midnightblue" d="M359.88,-45C347.78,-46.61 334.85,-48.32 322.27,-49.99"/>
<polygon fill="midnightblue" stroke="midnightblue" points="360.36,-48.47 369.82,-43.69 359.44,-41.53 360.36,-48.47"/>
</g>
<!-- Node4 -->
<g id="node4" class="node">
<title>Node4</title>
<g id="a_node4"><a xlink:href="classOPOS6UL__IAExtended.html#aeaa64a0f2c66aa082fc79e6fa77472ab" target="_top" xlink:title="Initialise le terrain de jeu (zones, obstacles, chemins).">
<polygon fill="white" stroke="black" points="188,-0.5 188,-30.5 311,-30.5 311,-0.5 188,-0.5"/>
<text text-anchor="start" x="196" y="-18.5" font-family="Helvetica,sans-Serif" font-size="10.00">OPOS6UL_IAExtended</text>
<text text-anchor="middle" x="249.5" y="-7.5" font-family="Helvetica,sans-Serif" font-size="10.00">::initPlayground</text>
</a>
</g>
</g>
<!-- Node2&#45;&gt;Node4 -->
<g id="edge3" class="edge">
<title>Node2&#45;&gt;Node4</title>
<path fill="none" stroke="midnightblue" d="M359.74,-29.98C344.06,-27.9 326.99,-25.64 311.1,-23.53"/>
<polygon fill="midnightblue" stroke="midnightblue" points="359.44,-33.47 369.82,-31.31 360.36,-26.53 359.44,-33.47"/>
</g>
<!-- Node5 -->
<g id="node5" class="node">
<title>Node5</title>
<g id="a_node5"><a xlink:href="classOPOS6UL__IAExtended.html#a25b80fe3ad16f9481def0b7f939a5a3d" target="_top" xlink:title=" ">
<polygon fill="white" stroke="black" points="0,-0.5 0,-30.5 129,-30.5 129,-0.5 0,-0.5"/>
<text text-anchor="start" x="8" y="-18.5" font-family="Helvetica,sans-Serif" font-size="10.00">OPOS6UL_IAExtended</text>
<text text-anchor="middle" x="64.5" y="-7.5" font-family="Helvetica,sans-Serif" font-size="10.00">::OPOS6UL_IAExtended</text>
</a>
</g>
</g>
<!-- Node4&#45;&gt;Node5 -->
<g id="edge4" class="edge">
<title>Node4&#45;&gt;Node5</title>
<path fill="none" stroke="midnightblue" d="M177.5,-15.5C161.57,-15.5 144.76,-15.5 129.15,-15.5"/>
<polygon fill="midnightblue" stroke="midnightblue" points="177.82,-19 187.82,-15.5 177.82,-12 177.82,-19"/>
</g>
</g>
</svg>
