<?xml version="1.0" encoding="UTF-8" standalone="no"?>
<!DOCTYPE svg PUBLIC "-//W3C//DTD SVG 1.1//EN"
 "http://www.w3.org/Graphics/SVG/1.1/DTD/svg11.dtd">
<!-- Generated by graphviz version 2.43.0 (0)
 -->
<!-- Title: Robot::asserv Pages: 1 -->
<svg width="467pt" height="230pt"
 viewBox="0.00 0.00 467.00 229.50" xmlns="http://www.w3.org/2000/svg" xmlns:xlink="http://www.w3.org/1999/xlink">
<g id="graph0" class="graph" transform="scale(1 1) rotate(0) translate(4 225.5)">
<title>Robot::asserv</title>
<polygon fill="white" stroke="transparent" points="-4,4 -4,-225.5 463,-225.5 463,4 -4,4"/>
<!-- Node1 -->
<g id="node1" class="node">
<title>Node1</title>
<g id="a_node1"><a xlink:title=" ">
<polygon fill="#bfbfbf" stroke="black" points="376,-95.5 376,-114.5 459,-114.5 459,-95.5 376,-95.5"/>
<text text-anchor="middle" x="417.5" y="-102.5" font-family="Helvetica,sans-Serif" font-size="10.00">Robot::asserv</text>
</a>
</g>
</g>
<!-- Node2 -->
<g id="node2" class="node">
<title>Node2</title>
<g id="a_node2"><a xlink:href="classOPOS6UL__RobotExtended.html#ac8ac2be407a78cdd62261f72226162df" target="_top" xlink:title=" ">
<polygon fill="white" stroke="black" points="184,-191 184,-221 340,-221 340,-191 184,-191"/>
<text text-anchor="start" x="192" y="-209" font-family="Helvetica,sans-Serif" font-size="10.00">OPOS6UL_RobotExtended</text>
<text text-anchor="middle" x="262" y="-198" font-family="Helvetica,sans-Serif" font-size="10.00">::~OPOS6UL_RobotExtended</text>
</a>
</g>
</g>
<!-- Node1&#45;&gt;Node2 -->
<g id="edge1" class="edge">
<title>Node1&#45;&gt;Node2</title>
<path fill="none" stroke="midnightblue" d="M401.28,-122.47C386.82,-138.21 363.8,-161.09 340,-176 330.76,-181.79 320.22,-186.79 309.97,-190.95"/>
<polygon fill="midnightblue" stroke="midnightblue" points="403.94,-124.75 408.02,-114.98 398.73,-120.07 403.94,-124.75"/>
</g>
<!-- Node3 -->
<g id="node3" class="node">
<title>Node3</title>
<g id="a_node3"><a xlink:href="classO__State__Init.html#abc19788b7457d1f819245dd28367fe91" target="_top" xlink:title="Exécute l&#39;état d&#39;initialisation.">
<polygon fill="white" stroke="black" points="14,-117.5 14,-136.5 134,-136.5 134,-117.5 14,-117.5"/>
<text text-anchor="middle" x="74" y="-124.5" font-family="Helvetica,sans-Serif" font-size="10.00">O_State_Init::execute</text>
</a>
</g>
</g>
<!-- Node1&#45;&gt;Node3 -->
<g id="edge2" class="edge">
<title>Node1&#45;&gt;Node3</title>
<path fill="none" stroke="midnightblue" d="M393.48,-119.95C378.82,-128.55 359.07,-138.53 340,-143 261.92,-161.32 167.56,-147.35 115.12,-136.51"/>
<polygon fill="midnightblue" stroke="midnightblue" points="395.6,-122.75 402.32,-114.56 391.96,-116.78 395.6,-122.75"/>
</g>
<!-- Node4 -->
<g id="node4" class="node">
<title>Node4</title>
<g id="a_node4"><a xlink:href="classO__LedBarTest.html#af9e0e172d13b334cda0fe32bb659b414" target="_top" xlink:title=" ">
<polygon fill="white" stroke="black" points="210,-114.5 210,-133.5 314,-133.5 314,-114.5 210,-114.5"/>
<text text-anchor="middle" x="262" y="-121.5" font-family="Helvetica,sans-Serif" font-size="10.00">O_LedBarTest::run</text>
</a>
</g>
</g>
<!-- Node1&#45;&gt;Node4 -->
<g id="edge3" class="edge">
<title>Node1&#45;&gt;Node4</title>
<path fill="none" stroke="midnightblue" d="M365.71,-111.29C349.13,-113.34 330.71,-115.62 314.1,-117.67"/>
<polygon fill="midnightblue" stroke="midnightblue" points="366.27,-114.74 375.77,-110.04 365.41,-107.8 366.27,-114.74"/>
</g>
<!-- Node5 -->
<g id="node5" class="node">
<title>Node5</title>
<g id="a_node5"><a xlink:href="classRobot.html#a0e65015148118700defe09b47ba5453d" target="_top" xlink:title=" ">
<polygon fill="white" stroke="black" points="212.5,-38.5 212.5,-57.5 311.5,-57.5 311.5,-38.5 212.5,-38.5"/>
<text text-anchor="middle" x="262" y="-45.5" font-family="Helvetica,sans-Serif" font-size="10.00">Robot::setAsserv</text>
</a>
</g>
</g>
<!-- Node1&#45;&gt;Node5 -->
<g id="edge4" class="edge">
<title>Node1&#45;&gt;Node5</title>
<path fill="none" stroke="midnightblue" d="M391.04,-90.59C376.45,-82.79 357.59,-73.45 340,-67 330.05,-63.35 319.11,-60.18 308.69,-57.52"/>
<polygon fill="midnightblue" stroke="midnightblue" points="389.5,-93.74 399.96,-95.45 392.85,-87.59 389.5,-93.74"/>
</g>
<!-- Node7 -->
<g id="node7" class="node">
<title>Node7</title>
<g id="a_node7"><a xlink:href="classO__State__Init.html#a1980cd82dcb83e88d61f2e7e14dddfa0" target="_top" xlink:title=" ">
<polygon fill="white" stroke="black" points="205,-76.5 205,-95.5 319,-95.5 319,-76.5 205,-76.5"/>
<text text-anchor="middle" x="262" y="-83.5" font-family="Helvetica,sans-Serif" font-size="10.00">O_State_Init::setPos</text>
</a>
</g>
</g>
<!-- Node1&#45;&gt;Node7 -->
<g id="edge6" class="edge">
<title>Node1&#45;&gt;Node7</title>
<path fill="none" stroke="midnightblue" d="M365.72,-98.72C350.83,-96.87 334.45,-94.84 319.24,-92.96"/>
<polygon fill="midnightblue" stroke="midnightblue" points="365.41,-102.2 375.77,-99.96 366.27,-95.26 365.41,-102.2"/>
</g>
<!-- Node8 -->
<g id="node8" class="node">
<title>Node8</title>
<g id="a_node8"><a xlink:href="classRobot.html#a7c2c32badf138c2a26b82068447c3c98" target="_top" xlink:title="Fonctions de motion intelligente en plusieurs essais.">
<polygon fill="white" stroke="black" points="206.5,-0.5 206.5,-19.5 317.5,-19.5 317.5,-0.5 206.5,-0.5"/>
<text text-anchor="middle" x="262" y="-7.5" font-family="Helvetica,sans-Serif" font-size="10.00">Robot::whileDoLine</text>
</a>
</g>
</g>
<!-- Node1&#45;&gt;Node8 -->
<g id="edge8" class="edge">
<title>Node1&#45;&gt;Node8</title>
<path fill="none" stroke="midnightblue" d="M403.34,-87.18C389.49,-69.72 366.13,-43.68 340,-29 333.16,-25.15 325.55,-22.08 317.85,-19.62"/>
<polygon fill="midnightblue" stroke="midnightblue" points="400.8,-89.62 409.67,-95.41 406.35,-85.35 400.8,-89.62"/>
</g>
<!-- Node6 -->
<g id="node6" class="node">
<title>Node6</title>
<g id="a_node6"><a xlink:href="classOPOS6UL__RobotExtended.html#ab47e33e026160cbb65bbff6129a01597" target="_top" xlink:title=" ">
<polygon fill="white" stroke="black" points="0,-33 0,-63 148,-63 148,-33 0,-33"/>
<text text-anchor="start" x="8" y="-51" font-family="Helvetica,sans-Serif" font-size="10.00">OPOS6UL_RobotExtended</text>
<text text-anchor="middle" x="74" y="-40" font-family="Helvetica,sans-Serif" font-size="10.00">::OPOS6UL_RobotExtended</text>
</a>
</g>
</g>
<!-- Node5&#45;&gt;Node6 -->
<g id="edge5" class="edge">
<title>Node5&#45;&gt;Node6</title>
<path fill="none" stroke="midnightblue" d="M201.75,-48C184.68,-48 165.86,-48 148.05,-48"/>
<polygon fill="midnightblue" stroke="midnightblue" points="202.13,-51.5 212.13,-48 202.13,-44.5 202.13,-51.5"/>
</g>
<!-- Node7&#45;&gt;Node3 -->
<g id="edge7" class="edge">
<title>Node7&#45;&gt;Node3</title>
<path fill="none" stroke="midnightblue" d="M208.08,-97.66C179.65,-103.93 145.03,-111.56 118.23,-117.47"/>
<polygon fill="midnightblue" stroke="midnightblue" points="208.85,-101.08 217.86,-95.51 207.34,-94.24 208.85,-101.08"/>
</g>
</g>
</svg>
