<?xml version="1.0" encoding="UTF-8" standalone="no"?>
<!DOCTYPE svg PUBLIC "-//W3C//DTD SVG 1.1//EN"
 "http://www.w3.org/Graphics/SVG/1.1/DTD/svg11.dtd">
<!-- Generated by graphviz version 2.43.0 (0)
 -->
<!-- Title: IAbyZone::ia_getNearestZoneFrom Pages: 1 -->
<!--zoomable 408 -->
<svg id="main" version="1.1" xmlns="http://www.w3.org/2000/svg" xmlns:xlink="http://www.w3.org/1999/xlink" xml:space="preserve" onload="init(evt)">
<style type="text/css"><![CDATA[
.edge:hover path { stroke: red; }
.edge:hover polygon { stroke: red; fill: red; }
]]></style>
<script type="text/javascript"><![CDATA[
var edges = document.getElementsByTagName('g');
if (edges && edges.length) {
  for (var i=0;i<edges.length;i++) {
    if (edges[i].id.substr(0,4)=='edge') {
      edges[i].setAttribute('class','edge');
    }
  }
}
]]></script>
        <defs>
                <circle id="rim" cx="0" cy="0" r="7"/>
                <circle id="rim2" cx="0" cy="0" r="3.5"/>
                <g id="zoomPlus">
                        <use xlink:href="#rim" fill="#404040">
                                <set attributeName="fill" to="#808080" begin="zoomplus.mouseover" end="zoomplus.mouseout"/>
                        </use>
                        <path d="M-4,0h8M0,-4v8" fill="none" stroke="white" stroke-width="1.5" pointer-events="none"/>
                </g>
                <g id="zoomMin">
                        <use xlink:href="#rim" fill="#404040">
                                <set attributeName="fill" to="#808080" begin="zoomminus.mouseover" end="zoomminus.mouseout"/>
                        </use>
                        <path d="M-4,0h8" fill="none" stroke="white" stroke-width="1.5" pointer-events="none"/>
                </g>
                <g id="dirArrow">
                        <path fill="none" stroke="white" stroke-width="1.5" d="M0,-3.0v7 M-2.5,-0.5L0,-3.0L2.5,-0.5"/>
                </g>
               <g id="resetDef">
                       <use xlink:href="#rim2" fill="#404040">
                               <set attributeName="fill" to="#808080" begin="reset.mouseover" end="reset.mouseout"/>
                       </use>
               </g>
        </defs>

<script type="text/javascript">
var viewWidth = 1356;
var viewHeight = 408;
var sectionId = 'dynsection-7';
</script>
<script xlink:href="svgpan.js"/>
<svg id="graph" class="graph">
<g id="viewport">
<title>IAbyZone::ia_getNearestZoneFrom</title>
<polygon fill="white" stroke="transparent" points="-4,4 -4,-404.05 1352,-404.05 1352,4 -4,4"/>
<!-- Node1 -->
<g id="node1" class="node">
<title>Node1</title>
<g id="a_node1"><a xlink:title=" ">
<polygon fill="#bfbfbf" stroke="black" points="0,-187 0,-206 187,-206 187,-187 0,-187"/>
<text text-anchor="middle" x="93.5" y="-194" font-family="Helvetica,sans-Serif" font-size="10.00">IAbyZone::ia_getNearestZoneFrom</text>
</a>
</g>
</g>
<!-- Node2 -->
<g id="node2" class="node">
<title>Node2</title>
<g id="a_node2"><a xlink:href="classIAbyZone.html#a9c661046334a8c99e4e89e335e7b483c" target="_top" xlink:title=" ">
<polygon fill="white" stroke="black" points="223,-244 223,-263 357,-263 357,-244 223,-244"/>
<text text-anchor="middle" x="290" y="-251" font-family="Helvetica,sans-Serif" font-size="10.00">IAbyZone::ia_getZoneAt</text>
</a>
</g>
</g>
<!-- Node1&#45;&gt;Node2 -->
<g id="edge1" class="edge">
<title>Node1&#45;&gt;Node2</title>
<path fill="none" stroke="midnightblue" d="M126.43,-206.01C152.42,-213.74 190.06,-224.89 223,-234.5 230.4,-236.66 238.28,-238.94 245.91,-241.14"/>
<polygon fill="midnightblue" stroke="midnightblue" points="245.17,-244.57 255.75,-243.98 247.11,-237.85 245.17,-244.57"/>
</g>
<!-- Node3 -->
<g id="node3" class="node">
<title>Node3</title>
<g id="a_node3"><a xlink:href="classRobot.html#aa569a899d4cc76a25f4e84ca56da2784" target="_top" xlink:title="Retourne un pointeur vers l&#39;asservissement du robot.">
<polygon fill="white" stroke="black" points="245.5,-206 245.5,-225 334.5,-225 334.5,-206 245.5,-206"/>
<text text-anchor="middle" x="290" y="-213" font-family="Helvetica,sans-Serif" font-size="10.00">Robot::passerv</text>
</a>
</g>
</g>
<!-- Node1&#45;&gt;Node3 -->
<g id="edge2" class="edge">
<title>Node1&#45;&gt;Node3</title>
<path fill="none" stroke="midnightblue" d="M187.19,-205.55C203.73,-207.17 220.44,-208.8 235.41,-210.26"/>
<polygon fill="midnightblue" stroke="midnightblue" points="235.18,-213.76 245.47,-211.25 235.86,-206.79 235.18,-213.76"/>
</g>
<!-- Node4 -->
<g id="node4" class="node">
<title>Node4</title>
<g id="a_node4"><a xlink:href="classAsserv.html#a871088db63d1a0e20ccbf387c6f895db" target="_top" xlink:title=" ">
<polygon fill="white" stroke="black" points="227.5,-168 227.5,-187 352.5,-187 352.5,-168 227.5,-168"/>
<text text-anchor="middle" x="290" y="-175" font-family="Helvetica,sans-Serif" font-size="10.00">Asserv::pos_getX_mm</text>
</a>
</g>
</g>
<!-- Node1&#45;&gt;Node4 -->
<g id="edge3" class="edge">
<title>Node1&#45;&gt;Node4</title>
<path fill="none" stroke="midnightblue" d="M187.19,-187.45C197.29,-186.46 207.45,-185.47 217.24,-184.51"/>
<polygon fill="midnightblue" stroke="midnightblue" points="217.67,-187.98 227.28,-183.53 216.99,-181.02 217.67,-187.98"/>
</g>
<!-- Node27 -->
<g id="node27" class="node">
<title>Node27</title>
<g id="a_node27"><a xlink:href="classAsserv.html#a2cca6401ccf8cfc7cc927177cba14f4a" target="_top" xlink:title=" ">
<polygon fill="white" stroke="black" points="228,-130 228,-149 352,-149 352,-130 228,-130"/>
<text text-anchor="middle" x="290" y="-137" font-family="Helvetica,sans-Serif" font-size="10.00">Asserv::pos_getY_mm</text>
</a>
</g>
</g>
<!-- Node1&#45;&gt;Node27 -->
<g id="edge30" class="edge">
<title>Node1&#45;&gt;Node27</title>
<path fill="none" stroke="midnightblue" d="M126.43,-186.99C152.42,-179.26 190.06,-168.11 223,-158.5 230.4,-156.34 238.28,-154.06 245.91,-151.86"/>
<polygon fill="midnightblue" stroke="midnightblue" points="247.11,-155.15 255.75,-149.02 245.17,-148.43 247.11,-155.15"/>
</g>
<!-- Node5 -->
<g id="node5" class="node">
<title>Node5</title>
<g id="a_node5"><a xlink:href="classAsserv.html#a02914fbd6c3d2ee03c896cb7a9f86078" target="_top" xlink:title=" ">
<polygon fill="white" stroke="black" points="393,-149 393,-168 525,-168 525,-149 393,-149"/>
<text text-anchor="middle" x="459" y="-156" font-family="Helvetica,sans-Serif" font-size="10.00">Asserv::pos_getPosition</text>
</a>
</g>
</g>
<!-- Node4&#45;&gt;Node5 -->
<g id="edge4" class="edge">
<title>Node4&#45;&gt;Node5</title>
<path fill="none" stroke="midnightblue" d="M352.71,-170.48C362.54,-169.36 372.79,-168.19 382.89,-167.05"/>
<polygon fill="midnightblue" stroke="midnightblue" points="383.36,-170.51 392.9,-165.91 382.57,-163.56 383.36,-170.51"/>
</g>
<!-- Node6 -->
<g id="node6" class="node">
<title>Node6</title>
<g id="a_node6"><a xlink:href="classAsservEsialR.html#a18064f0087aa1cd67cbdd131f99720db" target="_top" xlink:title="Lit la position courante du robot.">
<polygon fill="white" stroke="black" points="561,-218 561,-237 726,-237 726,-218 561,-218"/>
<text text-anchor="middle" x="643.5" y="-225" font-family="Helvetica,sans-Serif" font-size="10.00">AsservEsialR::odo_GetPosition</text>
</a>
</g>
</g>
<!-- Node5&#45;&gt;Node6 -->
<g id="edge5" class="edge">
<title>Node5&#45;&gt;Node6</title>
<path fill="none" stroke="midnightblue" d="M476.28,-168.03C495.83,-179.12 529.88,-197.34 561,-208.5 568.13,-211.06 575.74,-213.36 583.33,-215.41"/>
<polygon fill="midnightblue" stroke="midnightblue" points="582.71,-218.86 593.27,-217.95 584.45,-212.08 582.71,-218.86"/>
</g>
<!-- Node24 -->
<g id="node24" class="node">
<title>Node24</title>
<g id="a_node24"><a xlink:href="classAAsservDriver.html#a81dea0fa2d154d60d67e9e12b415b265" target="_top" xlink:title="Lit la position courante du robot.">
<polygon fill="white" stroke="black" points="588.5,-168.5 588.5,-198.5 698.5,-198.5 698.5,-168.5 588.5,-168.5"/>
<text text-anchor="start" x="596.5" y="-186.5" font-family="Helvetica,sans-Serif" font-size="10.00">AAsservDriver::odo</text>
<text text-anchor="middle" x="643.5" y="-175.5" font-family="Helvetica,sans-Serif" font-size="10.00">_GetPosition</text>
</a>
</g>
</g>
<!-- Node5&#45;&gt;Node24 -->
<g id="edge27" class="edge">
<title>Node5&#45;&gt;Node24</title>
<path fill="none" stroke="midnightblue" d="M525.11,-167.42C542.4,-169.79 561.05,-172.34 578.29,-174.7"/>
<polygon fill="midnightblue" stroke="midnightblue" points="577.87,-178.18 588.25,-176.07 578.82,-171.24 577.87,-178.18"/>
</g>
<!-- Node25 -->
<g id="node25" class="node">
<title>Node25</title>
<g id="a_node25"><a xlink:href="classARobotPositionShared.html#a42f840a7c37b33555643005112dc1875" target="_top" xlink:title="Met a jour la position du robot.">
<polygon fill="white" stroke="black" points="581,-119.5 581,-149.5 706,-149.5 706,-119.5 581,-119.5"/>
<text text-anchor="start" x="589" y="-137.5" font-family="Helvetica,sans-Serif" font-size="10.00">ARobotPositionShared</text>
<text text-anchor="middle" x="643.5" y="-126.5" font-family="Helvetica,sans-Serif" font-size="10.00">::setRobotPosition</text>
</a>
</g>
</g>
<!-- Node5&#45;&gt;Node25 -->
<g id="edge28" class="edge">
<title>Node5&#45;&gt;Node25</title>
<path fill="none" stroke="midnightblue" d="M525.11,-149.94C539.84,-148 555.55,-145.93 570.53,-143.96"/>
<polygon fill="midnightblue" stroke="midnightblue" points="571.31,-147.39 580.77,-142.62 570.4,-140.45 571.31,-147.39"/>
</g>
<!-- Node26 -->
<g id="node26" class="node">
<title>Node26</title>
<g id="a_node26"><a xlink:href="classRobot.html#a6a118c509a6d7ab35cdf96203eb0238a" target="_top" xlink:title="Retourne la position partagée du robot (pour communication inter&#45;threads).">
<polygon fill="white" stroke="black" points="582,-81 582,-100 705,-100 705,-81 582,-81"/>
<text text-anchor="middle" x="643.5" y="-88" font-family="Helvetica,sans-Serif" font-size="10.00">Robot::sharedPosition</text>
</a>
</g>
</g>
<!-- Node5&#45;&gt;Node26 -->
<g id="edge29" class="edge">
<title>Node5&#45;&gt;Node26</title>
<path fill="none" stroke="midnightblue" d="M477.42,-148.88C497.19,-138.29 530.64,-121.31 561,-110.5 569.18,-107.59 577.96,-104.95 586.63,-102.61"/>
<polygon fill="midnightblue" stroke="midnightblue" points="587.52,-106 596.33,-100.1 585.77,-99.22 587.52,-106"/>
</g>
<!-- Node7 -->
<g id="node7" class="node">
<title>Node7</title>
<g id="a_node7"><a xlink:href="classlogs_1_1Logger.html#a7dffc8f610014ec59b63392da16140e4" target="_top" xlink:title="Trace un message de niveau DEBUG.">
<polygon fill="white" stroke="black" points="1014,-376 1014,-395 1126,-395 1126,-376 1014,-376"/>
<text text-anchor="middle" x="1070" y="-383" font-family="Helvetica,sans-Serif" font-size="10.00">logs::Logger::debug</text>
</a>
</g>
</g>
<!-- Node6&#45;&gt;Node7 -->
<g id="edge6" class="edge">
<title>Node6&#45;&gt;Node7</title>
<path fill="none" stroke="midnightblue" d="M649.15,-237.22C662.41,-263.68 703.27,-337 762,-366.5 838.21,-404.78 938.82,-402.69 1003.72,-395.7"/>
<polygon fill="midnightblue" stroke="midnightblue" points="1004.28,-399.16 1013.82,-394.55 1003.48,-392.21 1004.28,-399.16"/>
</g>
<!-- Node9 -->
<g id="node9" class="node">
<title>Node9</title>
<g id="a_node9"><a xlink:href="namespacelogs.html#ac6f325c6cfe6189bc8e243daa184453b" target="_top" xlink:title="Cette méthode permet de finir les flux de construction par la notation.">
<polygon fill="white" stroke="black" points="825.5,-338 825.5,-357 886.5,-357 886.5,-338 825.5,-338"/>
<text text-anchor="middle" x="856" y="-345" font-family="Helvetica,sans-Serif" font-size="10.00">logs::end</text>
</a>
</g>
</g>
<!-- Node6&#45;&gt;Node9 -->
<g id="edge8" class="edge">
<title>Node6&#45;&gt;Node9</title>
<path fill="none" stroke="midnightblue" d="M653.25,-237C671.53,-256.29 715.94,-300.17 762,-323.5 778.51,-331.86 798.18,-337.48 815.17,-341.17"/>
<polygon fill="midnightblue" stroke="midnightblue" points="814.85,-344.68 825.35,-343.22 816.24,-337.81 814.85,-344.68"/>
</g>
<!-- Node11 -->
<g id="node11" class="node">
<title>Node11</title>
<g id="a_node11"><a xlink:href="classutils_1_1Mutex.html#aa584b418a5ef484f76b93e361a1d7e32" target="_top" xlink:title="Verrouille le mutex. Cette méthode doit être appelée avant d&#39;utiliser la ressource associée....">
<polygon fill="white" stroke="black" points="1218.5,-329 1218.5,-348 1319.5,-348 1319.5,-329 1218.5,-329"/>
<text text-anchor="middle" x="1269" y="-336" font-family="Helvetica,sans-Serif" font-size="10.00">utils::Mutex::lock</text>
</a>
</g>
</g>
<!-- Node6&#45;&gt;Node11 -->
<g id="edge20" class="edge">
<title>Node6&#45;&gt;Node11</title>
<path fill="none" stroke="midnightblue" d="M663.94,-237.07C686.83,-247.9 726.27,-265.26 762,-274.5 845.21,-296.03 1093.22,-321.71 1208.22,-332.87"/>
<polygon fill="midnightblue" stroke="midnightblue" points="1207.97,-336.36 1218.26,-333.84 1208.64,-329.39 1207.97,-336.36"/>
</g>
<!-- Node12 -->
<g id="node12" class="node">
<title>Node12</title>
<g id="a_node12"><a xlink:href="classutils_1_1Mutex.html#a59b2079dc7f803d49f78ac9c04406cd3" target="_top" xlink:title="Déverrouille le mutex. Cette méthode doit être appelée après avoir utiliser la ressource associée.">
<polygon fill="white" stroke="black" points="1212.5,-272 1212.5,-291 1325.5,-291 1325.5,-272 1212.5,-272"/>
<text text-anchor="middle" x="1269" y="-279" font-family="Helvetica,sans-Serif" font-size="10.00">utils::Mutex::unlock</text>
</a>
</g>
</g>
<!-- Node6&#45;&gt;Node12 -->
<g id="edge26" class="edge">
<title>Node6&#45;&gt;Node12</title>
<path fill="none" stroke="midnightblue" d="M682.08,-237.02C705.02,-242.45 735.02,-248.88 762,-252.5 918.93,-273.57 1105.25,-279.35 1202.1,-280.92"/>
<polygon fill="midnightblue" stroke="midnightblue" points="1202.28,-284.42 1212.33,-281.08 1202.38,-277.42 1202.28,-284.42"/>
</g>
<!-- Node13 -->
<g id="node13" class="node">
<title>Node13</title>
<g id="a_node13"><a xlink:href="classCommandManagerA.html#a3d4499244b1f7548c0889974a16b402b" target="_top" xlink:title=" ">
<polygon fill="white" stroke="black" points="762,-212.5 762,-242.5 950,-242.5 950,-212.5 762,-212.5"/>
<text text-anchor="start" x="770" y="-230.5" font-family="Helvetica,sans-Serif" font-size="10.00">CommandManagerA::getCommand</text>
<text text-anchor="middle" x="856" y="-219.5" font-family="Helvetica,sans-Serif" font-size="10.00">Status</text>
</a>
</g>
</g>
<!-- Node6&#45;&gt;Node13 -->
<g id="edge13" class="edge">
<title>Node6&#45;&gt;Node13</title>
<path fill="none" stroke="midnightblue" d="M726.19,-227.5C734.58,-227.5 743.18,-227.5 751.76,-227.5"/>
<polygon fill="midnightblue" stroke="midnightblue" points="751.81,-231 761.81,-227.5 751.81,-224 751.81,-231"/>
</g>
<!-- Node14 -->
<g id="node14" class="node">
<title>Node14</title>
<g id="a_node14"><a xlink:href="classOdometrie.html#abc6576337993c68f587df8ca4b3602f9" target="_top" xlink:title=" ">
<polygon fill="white" stroke="black" points="797,-174 797,-193 915,-193 915,-174 797,-174"/>
<text text-anchor="middle" x="856" y="-181" font-family="Helvetica,sans-Serif" font-size="10.00">Odometrie::getTheta</text>
</a>
</g>
</g>
<!-- Node6&#45;&gt;Node14 -->
<g id="edge14" class="edge">
<title>Node6&#45;&gt;Node14</title>
<path fill="none" stroke="midnightblue" d="M690.18,-217.95C722.31,-211.24 765.5,-202.21 799.6,-195.08"/>
<polygon fill="midnightblue" stroke="midnightblue" points="800.34,-198.5 809.41,-193.03 798.91,-191.65 800.34,-198.5"/>
</g>
<!-- Node15 -->
<g id="node15" class="node">
<title>Node15</title>
<g id="a_node15"><a xlink:href="classOdometrie.html#a4e35405c76f7c939f143f2d07a969e23" target="_top" xlink:title=" ">
<polygon fill="white" stroke="black" points="798,-98 798,-117 914,-117 914,-98 798,-98"/>
<text text-anchor="middle" x="856" y="-105" font-family="Helvetica,sans-Serif" font-size="10.00">Odometrie::getXmm</text>
</a>
</g>
</g>
<!-- Node6&#45;&gt;Node15 -->
<g id="edge15" class="edge">
<title>Node6&#45;&gt;Node15</title>
<path fill="none" stroke="midnightblue" d="M710.7,-217.86C716.21,-215.38 721.42,-212.31 726,-208.5 756.62,-183.07 731.03,-151.51 762,-126.5 769.52,-120.43 778.47,-116.14 787.81,-113.14"/>
<polygon fill="midnightblue" stroke="midnightblue" points="788.9,-116.47 797.63,-110.46 787.06,-109.72 788.9,-116.47"/>
</g>
<!-- Node18 -->
<g id="node18" class="node">
<title>Node18</title>
<g id="a_node18"><a xlink:href="classOdometrie.html#a349119b93cb97e0ef586fbf78e43b823" target="_top" xlink:title=" ">
<polygon fill="white" stroke="black" points="798,-136 798,-155 914,-155 914,-136 798,-136"/>
<text text-anchor="middle" x="856" y="-143" font-family="Helvetica,sans-Serif" font-size="10.00">Odometrie::getYmm</text>
</a>
</g>
</g>
<!-- Node6&#45;&gt;Node18 -->
<g id="edge18" class="edge">
<title>Node6&#45;&gt;Node18</title>
<path fill="none" stroke="midnightblue" d="M705.49,-218C712.69,-215.53 719.71,-212.42 726,-208.5 747.45,-195.14 740.37,-177.56 762,-164.5 769.87,-159.75 778.73,-156.16 787.78,-153.46"/>
<polygon fill="midnightblue" stroke="midnightblue" points="788.85,-156.8 797.62,-150.87 787.06,-150.03 788.85,-156.8"/>
</g>
<!-- Node19 -->
<g id="node19" class="node">
<title>Node19</title>
<g id="a_node19"><a xlink:href="classAsservEsialR.html#a7d6428bb79534a27e2b8b2e1baae943b" target="_top" xlink:title="Retourne le Logger associe a la classe AsservEsialR.">
<polygon fill="white" stroke="black" points="798,-59 798,-78 914,-78 914,-59 798,-59"/>
<text text-anchor="middle" x="856" y="-66" font-family="Helvetica,sans-Serif" font-size="10.00">AsservEsialR::logger</text>
</a>
</g>
</g>
<!-- Node6&#45;&gt;Node19 -->
<g id="edge21" class="edge">
<title>Node6&#45;&gt;Node19</title>
<path fill="none" stroke="midnightblue" d="M712.39,-217.86C717.35,-215.36 721.98,-212.28 726,-208.5 766.58,-170.37 721.09,-126.27 762,-88.5 769.37,-81.69 778.48,-76.99 788.09,-73.78"/>
<polygon fill="midnightblue" stroke="midnightblue" points="789.14,-77.12 797.82,-71.04 787.24,-70.38 789.14,-77.12"/>
</g>
<!-- Node8 -->
<g id="node8" class="node">
<title>Node8</title>
<g id="a_node8"><a xlink:href="classlogs_1_1Logger.html#afa535aaf4891e02c4ff7f84d372b5b1b" target="_top" xlink:title="Méthode générique de trace d&#39;un message.">
<polygon fill="white" stroke="black" points="1194,-376 1194,-395 1344,-395 1344,-376 1194,-376"/>
<text text-anchor="middle" x="1269" y="-383" font-family="Helvetica,sans-Serif" font-size="10.00">logs::Logger::writeMessage</text>
</a>
</g>
</g>
<!-- Node7&#45;&gt;Node8 -->
<g id="edge7" class="edge">
<title>Node7&#45;&gt;Node8</title>
<path fill="none" stroke="midnightblue" d="M1126.14,-385.5C1143.97,-385.5 1164.18,-385.5 1183.63,-385.5"/>
<polygon fill="midnightblue" stroke="midnightblue" points="1183.72,-389 1193.72,-385.5 1183.72,-382 1183.72,-389"/>
</g>
<!-- Node10 -->
<g id="node10" class="node">
<title>Node10</title>
<g id="a_node10"><a xlink:href="classlogs_1_1Logger_1_1LoggerBuffer.html#a0e4fd77693fd899ec1b0670354f93a02" target="_top" xlink:title="Cette méthode valide le message en cours de construction et le transmet au Logger de référence.">
<polygon fill="white" stroke="black" points="986,-338 986,-357 1154,-357 1154,-338 986,-338"/>
<text text-anchor="middle" x="1070" y="-345" font-family="Helvetica,sans-Serif" font-size="10.00">logs::Logger::LoggerBuffer::end</text>
</a>
</g>
</g>
<!-- Node9&#45;&gt;Node10 -->
<g id="edge9" class="edge">
<title>Node9&#45;&gt;Node10</title>
<path fill="none" stroke="midnightblue" d="M886.92,-347.5C910.1,-347.5 943.52,-347.5 975.43,-347.5"/>
<polygon fill="midnightblue" stroke="midnightblue" points="975.71,-351 985.71,-347.5 975.71,-344 975.71,-351"/>
</g>
<!-- Node10&#45;&gt;Node8 -->
<g id="edge12" class="edge">
<title>Node10&#45;&gt;Node8</title>
<path fill="none" stroke="midnightblue" d="M1120.46,-357.04C1147.15,-362.19 1180.3,-368.58 1208.42,-374.01"/>
<polygon fill="midnightblue" stroke="midnightblue" points="1208.04,-377.5 1218.52,-375.96 1209.37,-370.63 1208.04,-377.5"/>
</g>
<!-- Node10&#45;&gt;Node11 -->
<g id="edge10" class="edge">
<title>Node10&#45;&gt;Node11</title>
<path fill="none" stroke="midnightblue" d="M1154.26,-343.7C1172.35,-342.87 1191.14,-342.01 1208.11,-341.24"/>
<polygon fill="midnightblue" stroke="midnightblue" points="1208.59,-344.72 1218.42,-340.76 1208.27,-337.73 1208.59,-344.72"/>
</g>
<!-- Node10&#45;&gt;Node12 -->
<g id="edge11" class="edge">
<title>Node10&#45;&gt;Node12</title>
<path fill="none" stroke="midnightblue" d="M1099.65,-337.9C1134.03,-326.38 1191.81,-307.03 1229.92,-294.26"/>
<polygon fill="midnightblue" stroke="midnightblue" points="1231.27,-297.5 1239.64,-291 1229.05,-290.86 1231.27,-297.5"/>
</g>
<!-- Node16 -->
<g id="node16" class="node">
<title>Node16</title>
<g id="a_node16"><a xlink:href="classUtils.html#a2609842761c1ddb62fa9e06f92ad9099" target="_top" xlink:title=" ">
<polygon fill="white" stroke="black" points="1025,-136 1025,-155 1115,-155 1115,-136 1025,-136"/>
<text text-anchor="middle" x="1070" y="-143" font-family="Helvetica,sans-Serif" font-size="10.00">Utils::UOTomm</text>
</a>
</g>
</g>
<!-- Node15&#45;&gt;Node16 -->
<g id="edge16" class="edge">
<title>Node15&#45;&gt;Node16</title>
<path fill="none" stroke="midnightblue" d="M910.22,-117.04C942.1,-122.75 982.52,-130 1014.6,-135.75"/>
<polygon fill="midnightblue" stroke="midnightblue" points="1014.24,-139.24 1024.7,-137.56 1015.48,-132.35 1014.24,-139.24"/>
</g>
<!-- Node17 -->
<g id="node17" class="node">
<title>Node17</title>
<g id="a_node17"><a xlink:href="classOdometrie.html#a97f3023787b53a05f789770a56a791be" target="_top" xlink:title=" ">
<polygon fill="white" stroke="black" points="1190,-137 1190,-156 1348,-156 1348,-137 1190,-137"/>
<text text-anchor="middle" x="1269" y="-144" font-family="Helvetica,sans-Serif" font-size="10.00">Odometrie::getFrontParMetre</text>
</a>
</g>
</g>
<!-- Node16&#45;&gt;Node17 -->
<g id="edge17" class="edge">
<title>Node16&#45;&gt;Node17</title>
<path fill="none" stroke="midnightblue" d="M1115.21,-145.72C1134.3,-145.82 1157.33,-145.94 1179.67,-146.05"/>
<polygon fill="midnightblue" stroke="midnightblue" points="1179.85,-149.55 1189.86,-146.1 1179.88,-142.55 1179.85,-149.55"/>
</g>
<!-- Node18&#45;&gt;Node16 -->
<g id="edge19" class="edge">
<title>Node18&#45;&gt;Node16</title>
<path fill="none" stroke="midnightblue" d="M914.09,-145.5C945.38,-145.5 983.96,-145.5 1014.79,-145.5"/>
<polygon fill="midnightblue" stroke="midnightblue" points="1014.92,-149 1024.92,-145.5 1014.92,-142 1014.92,-149"/>
</g>
<!-- Node20 -->
<g id="node20" class="node">
<title>Node20</title>
<g id="a_node20"><a xlink:href="classlogs_1_1LoggerFactory.html#a82585b5de73e471e06cafdccc3b3721e" target="_top" xlink:title="Cette méthode statique retourne un Logger en fonction de son nom.">
<polygon fill="white" stroke="black" points="1014.5,-50.5 1014.5,-80.5 1125.5,-80.5 1125.5,-50.5 1014.5,-50.5"/>
<text text-anchor="start" x="1022.5" y="-68.5" font-family="Helvetica,sans-Serif" font-size="10.00">logs::LoggerFactory</text>
<text text-anchor="middle" x="1070" y="-57.5" font-family="Helvetica,sans-Serif" font-size="10.00">::logger</text>
</a>
</g>
</g>
<!-- Node19&#45;&gt;Node20 -->
<g id="edge22" class="edge">
<title>Node19&#45;&gt;Node20</title>
<path fill="none" stroke="midnightblue" d="M914.09,-67.69C941.83,-67.3 975.3,-66.83 1004.02,-66.42"/>
<polygon fill="midnightblue" stroke="midnightblue" points="1004.42,-69.91 1014.37,-66.27 1004.32,-62.92 1004.42,-69.91"/>
</g>
<!-- Node21 -->
<g id="node21" class="node">
<title>Node21</title>
<g id="a_node21"><a xlink:href="classlogs_1_1LoggerFactory.html#ac89f19c0ffd71aa8cdc1c2d44c03809e" target="_top" xlink:title="Cette méthode ajoute un appender au système.">
<polygon fill="white" stroke="black" points="1202,-99 1202,-118 1336,-118 1336,-99 1202,-99"/>
<text text-anchor="middle" x="1269" y="-106" font-family="Helvetica,sans-Serif" font-size="10.00">logs::LoggerFactory::add</text>
</a>
</g>
</g>
<!-- Node20&#45;&gt;Node21 -->
<g id="edge23" class="edge">
<title>Node20&#45;&gt;Node21</title>
<path fill="none" stroke="midnightblue" d="M1125.61,-77.42C1153.3,-83.46 1186.8,-90.78 1214.35,-96.79"/>
<polygon fill="midnightblue" stroke="midnightblue" points="1213.69,-100.23 1224.21,-98.94 1215.19,-93.39 1213.69,-100.23"/>
</g>
<!-- Node22 -->
<g id="node22" class="node">
<title>Node22</title>
<g id="a_node22"><a xlink:href="classlogs_1_1LoggerFactory.html#a90478b91d7af2ef8841ded21e3521f69" target="_top" xlink:title="Cette méthode statique retourne l&#39;instance unique de la classe LoggerFactory.">
<polygon fill="white" stroke="black" points="1213.5,-49.5 1213.5,-79.5 1324.5,-79.5 1324.5,-49.5 1213.5,-49.5"/>
<text text-anchor="start" x="1221.5" y="-67.5" font-family="Helvetica,sans-Serif" font-size="10.00">logs::LoggerFactory</text>
<text text-anchor="middle" x="1269" y="-56.5" font-family="Helvetica,sans-Serif" font-size="10.00">::instance</text>
</a>
</g>
</g>
<!-- Node20&#45;&gt;Node22 -->
<g id="edge24" class="edge">
<title>Node20&#45;&gt;Node22</title>
<path fill="none" stroke="midnightblue" d="M1125.61,-65.22C1149.63,-65.1 1178.03,-64.96 1203.12,-64.83"/>
<polygon fill="midnightblue" stroke="midnightblue" points="1203.3,-68.33 1213.28,-64.78 1203.26,-61.33 1203.3,-68.33"/>
</g>
<!-- Node23 -->
<g id="node23" class="node">
<title>Node23</title>
<g id="a_node23"><a xlink:href="classlogs_1_1LoggerFactory.html#a212aa623f4b6bee12cb39e8017dde670" target="_top" xlink:title="Cette méthode retourne le Logger principal qui définit le niveau de trace par défaut.">
<polygon fill="white" stroke="black" points="1213.5,-0.5 1213.5,-30.5 1324.5,-30.5 1324.5,-0.5 1213.5,-0.5"/>
<text text-anchor="start" x="1221.5" y="-18.5" font-family="Helvetica,sans-Serif" font-size="10.00">logs::LoggerFactory</text>
<text text-anchor="middle" x="1269" y="-7.5" font-family="Helvetica,sans-Serif" font-size="10.00">::rootLogger</text>
</a>
</g>
</g>
<!-- Node20&#45;&gt;Node23 -->
<g id="edge25" class="edge">
<title>Node20&#45;&gt;Node23</title>
<path fill="none" stroke="midnightblue" d="M1125.61,-51.64C1149.74,-45.52 1178.28,-38.27 1203.45,-31.88"/>
<polygon fill="midnightblue" stroke="midnightblue" points="1204.45,-35.24 1213.28,-29.39 1202.73,-28.46 1204.45,-35.24"/>
</g>
<!-- Node27&#45;&gt;Node5 -->
<g id="edge31" class="edge">
<title>Node27&#45;&gt;Node5</title>
<path fill="none" stroke="midnightblue" d="M352.24,-146.47C362.15,-147.59 372.52,-148.77 382.72,-149.93"/>
<polygon fill="midnightblue" stroke="midnightblue" points="382.51,-153.43 392.84,-151.09 383.3,-146.48 382.51,-153.43"/>
</g>
</g>
</svg>
        <g id="navigator" transform="translate(0 0)" fill="#404254">
                <rect fill="#f2f5e9" fill-opacity="0.5" stroke="#606060" stroke-width=".5" x="0" y="0" width="60" height="60"/>
                <use id="zoomplus" xlink:href="#zoomPlus" x="17" y="9" onmousedown="handleZoom(evt,'in')"/>
                <use id="zoomminus" xlink:href="#zoomMin" x="42" y="9" onmousedown="handleZoom(evt,'out')"/>
                <use id="reset" xlink:href="#resetDef" x="30" y="36" onmousedown="handleReset()"/>
                <g id="arrowUp" xlink:href="#dirArrow" transform="translate(30 24)" onmousedown="handlePan(0,-1)">
                  <use xlink:href="#rim" fill="#404040">
                        <set attributeName="fill" to="#808080" begin="arrowUp.mouseover" end="arrowUp.mouseout"/>
                  </use>
                  <path fill="none" stroke="white" stroke-width="1.5" d="M0,-3.0v7 M-2.5,-0.5L0,-3.0L2.5,-0.5"/>
                </g>
                <g id="arrowRight" xlink:href="#dirArrow" transform="rotate(90) translate(36 -43)" onmousedown="handlePan(1,0)">
                  <use xlink:href="#rim" fill="#404040">
                        <set attributeName="fill" to="#808080" begin="arrowRight.mouseover" end="arrowRight.mouseout"/>
                  </use>
                  <path fill="none" stroke="white" stroke-width="1.5" d="M0,-3.0v7 M-2.5,-0.5L0,-3.0L2.5,-0.5"/>
                </g>
                <g id="arrowDown" xlink:href="#dirArrow" transform="rotate(180) translate(-30 -48)" onmousedown="handlePan(0,1)">
                  <use xlink:href="#rim" fill="#404040">
                        <set attributeName="fill" to="#808080" begin="arrowDown.mouseover" end="arrowDown.mouseout"/>
                  </use>
                  <path fill="none" stroke="white" stroke-width="1.5" d="M0,-3.0v7 M-2.5,-0.5L0,-3.0L2.5,-0.5"/>
                </g>
                <g id="arrowLeft" xlink:href="#dirArrow" transform="rotate(270) translate(-36 17)" onmousedown="handlePan(-1,0)">
                  <use xlink:href="#rim" fill="#404040">
                        <set attributeName="fill" to="#808080" begin="arrowLeft.mouseover" end="arrowLeft.mouseout"/>
                  </use>
                  <path fill="none" stroke="white" stroke-width="1.5" d="M0,-3.0v7 M-2.5,-0.5L0,-3.0L2.5,-0.5"/>
                </g>
        </g>
        <svg viewBox="0 0 15 15" width="100%" height="30px" preserveAspectRatio="xMaxYMin meet">
         <g id="arrow_out" transform="scale(0.3 0.3)">
          <a xlink:href="classIAbyZone_a1d40e763ea935fc4b09de7508fc71805_cgraph_org.svg" target="_base">
           <rect id="button" ry="5" rx="5" y="6" x="6" height="38" width="38"
                fill="#f2f5e9" fill-opacity="0.5" stroke="#606060" stroke-width="1.0"/>
           <path id="arrow"
             d="M 11.500037,31.436501 C 11.940474,20.09759 22.043105,11.32322 32.158766,21.979434 L 37.068811,17.246167 C 37.068811,17.246167 37.088388,32 37.088388,32 L 22.160133,31.978069 C 22.160133,31.978069 26.997745,27.140456 26.997745,27.140456 C 18.528582,18.264221 13.291696,25.230495 11.500037,31.436501 z"
             style="fill:#404040;"/>
          </a>
         </g>
        </svg>
</svg>
