<?xml version="1.0" encoding="UTF-8" standalone="no"?>
<!DOCTYPE svg PUBLIC "-//W3C//DTD SVG 1.1//EN"
 "http://www.w3.org/Graphics/SVG/1.1/DTD/svg11.dtd">
<!-- Generated by graphviz version 2.43.0 (0)
 -->
<!-- Title: ARobotPositionShared Pages: 1 -->
<svg width="133pt" height="84pt"
 viewBox="0.00 0.00 133.00 84.00" xmlns="http://www.w3.org/2000/svg" xmlns:xlink="http://www.w3.org/1999/xlink">
<g id="graph0" class="graph" transform="scale(1 1) rotate(0) translate(4 80)">
<title>ARobotPositionShared</title>
<polygon fill="white" stroke="transparent" points="-4,4 -4,-80 129,-80 129,4 -4,4"/>
<!-- Node1 -->
<g id="node1" class="node">
<title>Node1</title>
<g id="a_node1"><a xlink:title="Interface abstraite d&#39;acces a la position partagee du robot.">
<polygon fill="#bfbfbf" stroke="black" points="0,-56.5 0,-75.5 125,-75.5 125,-56.5 0,-56.5"/>
<text text-anchor="middle" x="62.5" y="-63.5" font-family="Helvetica,sans-Serif" font-size="10.00">ARobotPositionShared</text>
</a>
</g>
</g>
<!-- Node2 -->
<g id="node2" class="node">
<title>Node2</title>
<g id="a_node2"><a xlink:href="classRobotPositionShared.html" target="_top" xlink:title="Implementation ARM de la position partagee.">
<polygon fill="white" stroke="black" points="3.5,-0.5 3.5,-19.5 121.5,-19.5 121.5,-0.5 3.5,-0.5"/>
<text text-anchor="middle" x="62.5" y="-7.5" font-family="Helvetica,sans-Serif" font-size="10.00">RobotPositionShared</text>
</a>
</g>
</g>
<!-- Node1&#45;&gt;Node2 -->
<g id="edge1" class="edge">
<title>Node1&#45;&gt;Node2</title>
<path fill="none" stroke="midnightblue" d="M56.03,-46.1C55.4,-37.14 55.84,-26.86 57.37,-19.75"/>
<polygon fill="midnightblue" stroke="midnightblue" points="52.57,-46.62 57.33,-56.08 59.51,-45.71 52.57,-46.62"/>
</g>
<!-- Node1&#45;&gt;Node2 -->
<g id="edge2" class="edge">
<title>Node1&#45;&gt;Node2</title>
<path fill="none" stroke="midnightblue" d="M68.97,-46.1C69.6,-37.14 69.16,-26.86 67.63,-19.75"/>
<polygon fill="midnightblue" stroke="midnightblue" points="65.49,-45.71 67.67,-56.08 72.43,-46.62 65.49,-45.71"/>
</g>
</g>
</svg>
