<?xml version="1.0" encoding="UTF-8" standalone="no"?>
<!DOCTYPE svg PUBLIC "-//W3C//DTD SVG 1.1//EN"
 "http://www.w3.org/Graphics/SVG/1.1/DTD/svg11.dtd">
<!-- Generated by graphviz version 2.43.0 (0)
 -->
<!-- Title: ConsignController::add_dist_consigne Pages: 1 -->
<svg width="475pt" height="142pt"
 viewBox="0.00 0.00 475.00 142.00" xmlns="http://www.w3.org/2000/svg" xmlns:xlink="http://www.w3.org/1999/xlink">
<g id="graph0" class="graph" transform="scale(1 1) rotate(0) translate(4 138)">
<title>ConsignController::add_dist_consigne</title>
<polygon fill="white" stroke="transparent" points="-4,4 -4,-138 471,-138 471,4 -4,4"/>
<!-- Node1 -->
<g id="node1" class="node">
<title>Node1</title>
<g id="a_node1"><a xlink:title=" ">
<polygon fill="#bfbfbf" stroke="black" points="357,-33 357,-63 467,-63 467,-33 357,-33"/>
<text text-anchor="start" x="365" y="-51" font-family="Helvetica,sans-Serif" font-size="10.00">ConsignController::</text>
<text text-anchor="middle" x="412" y="-40" font-family="Helvetica,sans-Serif" font-size="10.00">add_dist_consigne</text>
</a>
</g>
</g>
<!-- Node2 -->
<g id="node2" class="node">
<title>Node2</title>
<g id="a_node2"><a xlink:href="classAsservEsialR.html#a08fc904da0513ea35c524958f8cc6df0" target="_top" xlink:title=" ">
<polygon fill="white" stroke="black" points="180.5,-63 180.5,-93 300.5,-93 300.5,-63 180.5,-63"/>
<text text-anchor="start" x="188.5" y="-81" font-family="Helvetica,sans-Serif" font-size="10.00">AsservEsialR::motion</text>
<text text-anchor="middle" x="240.5" y="-70" font-family="Helvetica,sans-Serif" font-size="10.00">_DoDirectLine</text>
</a>
</g>
</g>
<!-- Node1&#45;&gt;Node2 -->
<g id="edge1" class="edge">
<title>Node1&#45;&gt;Node2</title>
<path fill="none" stroke="midnightblue" d="M346.62,-59.39C331.53,-62.07 315.51,-64.9 300.66,-67.53"/>
<polygon fill="midnightblue" stroke="midnightblue" points="347.67,-62.76 356.9,-57.57 346.45,-55.87 347.67,-62.76"/>
</g>
<!-- Node6 -->
<g id="node6" class="node">
<title>Node6</title>
<g id="a_node6"><a xlink:href="classCommandManagerA.html#a5a1c89032b7f8150bed910011daf111a" target="_top" xlink:title=" ">
<polygon fill="white" stroke="black" points="160,-16.5 160,-35.5 321,-35.5 321,-16.5 160,-16.5"/>
<text text-anchor="middle" x="240.5" y="-23.5" font-family="Helvetica,sans-Serif" font-size="10.00">CommandManagerA::perform</text>
</a>
</g>
</g>
<!-- Node1&#45;&gt;Node6 -->
<g id="edge5" class="edge">
<title>Node1&#45;&gt;Node6</title>
<path fill="none" stroke="midnightblue" d="M346.68,-39.65C336.29,-38.3 325.46,-36.9 314.87,-35.52"/>
<polygon fill="midnightblue" stroke="midnightblue" points="346.54,-43.16 356.9,-40.98 347.44,-36.22 346.54,-43.16"/>
</g>
<!-- Node3 -->
<g id="node3" class="node">
<title>Node3</title>
<g id="a_node3"><a xlink:href="classAsserv.html#a0ac23995bdebb69bb49304850c951886" target="_top" xlink:title=" ">
<polygon fill="white" stroke="black" points="11.5,-114.5 11.5,-133.5 112.5,-133.5 112.5,-114.5 11.5,-114.5"/>
<text text-anchor="middle" x="62" y="-121.5" font-family="Helvetica,sans-Serif" font-size="10.00">Asserv::doCalage</text>
</a>
</g>
</g>
<!-- Node2&#45;&gt;Node3 -->
<g id="edge2" class="edge">
<title>Node2&#45;&gt;Node3</title>
<path fill="none" stroke="midnightblue" d="M171.71,-95.67C147.17,-102.06 120.4,-109.04 99.56,-114.47"/>
<polygon fill="midnightblue" stroke="midnightblue" points="172.91,-98.97 181.71,-93.06 171.15,-92.2 172.91,-98.97"/>
</g>
<!-- Node4 -->
<g id="node4" class="node">
<title>Node4</title>
<g id="a_node4"><a xlink:href="classAsserv.html#acc891ab26e32320b4f2fac646de93632" target="_top" xlink:title=" ">
<polygon fill="white" stroke="black" points="8.5,-76.5 8.5,-95.5 115.5,-95.5 115.5,-76.5 8.5,-76.5"/>
<text text-anchor="middle" x="62" y="-83.5" font-family="Helvetica,sans-Serif" font-size="10.00">Asserv::doCalage2</text>
</a>
</g>
</g>
<!-- Node2&#45;&gt;Node4 -->
<g id="edge3" class="edge">
<title>Node2&#45;&gt;Node4</title>
<path fill="none" stroke="midnightblue" d="M170.01,-81.15C151.9,-81.97 132.67,-82.84 115.59,-83.62"/>
<polygon fill="midnightblue" stroke="midnightblue" points="170.41,-84.64 180.24,-80.69 170.09,-77.64 170.41,-84.64"/>
</g>
<!-- Node5 -->
<g id="node5" class="node">
<title>Node5</title>
<g id="a_node5"><a xlink:href="classAsserv.html#aa105905ebc1940adb7c483a14c9ce8fc" target="_top" xlink:title=" ">
<polygon fill="white" stroke="black" points="1,-38.5 1,-57.5 123,-57.5 123,-38.5 1,-38.5"/>
<text text-anchor="middle" x="62" y="-45.5" font-family="Helvetica,sans-Serif" font-size="10.00">Asserv::doCalageNew</text>
</a>
</g>
</g>
<!-- Node2&#45;&gt;Node5 -->
<g id="edge4" class="edge">
<title>Node2&#45;&gt;Node5</title>
<path fill="none" stroke="midnightblue" d="M170.37,-66.25C153.39,-63.36 135.41,-60.31 119.12,-57.54"/>
<polygon fill="midnightblue" stroke="midnightblue" points="169.79,-69.7 180.24,-67.93 170.96,-62.8 169.79,-69.7"/>
</g>
<!-- Node7 -->
<g id="node7" class="node">
<title>Node7</title>
<g id="a_node7"><a xlink:href="classAsservEsialR.html#abfd3be9bde7bf8ae887688bf8bc0ca43" target="_top" xlink:title="Méthode virtuelle pure à implémenter dans les sous&#45;classes.">
<polygon fill="white" stroke="black" points="0,-0.5 0,-19.5 124,-19.5 124,-0.5 0,-0.5"/>
<text text-anchor="middle" x="62" y="-7.5" font-family="Helvetica,sans-Serif" font-size="10.00">AsservEsialR::execute</text>
</a>
</g>
</g>
<!-- Node6&#45;&gt;Node7 -->
<g id="edge6" class="edge">
<title>Node6&#45;&gt;Node7</title>
<path fill="none" stroke="midnightblue" d="M149.64,-17.85C141.01,-17.07 132.39,-16.29 124.13,-15.54"/>
<polygon fill="midnightblue" stroke="midnightblue" points="149.49,-21.36 159.77,-18.77 150.13,-14.38 149.49,-21.36"/>
</g>
</g>
</svg>
