<?xml version="1.0" encoding="UTF-8" standalone="no"?>
<!DOCTYPE svg PUBLIC "-//W3C//DTD SVG 1.1//EN"
 "http://www.w3.org/Graphics/SVG/1.1/DTD/svg11.dtd">
<!-- Generated by graphviz version 2.43.0 (0)
 -->
<!-- Title: LedBar::k2mil Pages: 1 -->
<svg width="777pt" height="132pt"
 viewBox="0.00 0.00 777.00 132.00" xmlns="http://www.w3.org/2000/svg" xmlns:xlink="http://www.w3.org/1999/xlink">
<g id="graph0" class="graph" transform="scale(1 1) rotate(0) translate(4 128)">
<title>LedBar::k2mil</title>
<polygon fill="white" stroke="transparent" points="-4,4 -4,-128 773,-128 773,4 -4,4"/>
<!-- Node1 -->
<g id="node1" class="node">
<title>Node1</title>
<g id="a_node1"><a xlink:title="Clignote toutes les leds nb fois sur les 2 valeurs hex val1 et val2.">
<polygon fill="#bfbfbf" stroke="black" points="0,-38.5 0,-57.5 84,-57.5 84,-38.5 0,-38.5"/>
<text text-anchor="middle" x="42" y="-45.5" font-family="Helvetica,sans-Serif" font-size="10.00">LedBar::k2mil</text>
</a>
</g>
</g>
<!-- Node2 -->
<g id="node2" class="node">
<title>Node2</title>
<g id="a_node2"><a xlink:href="classLedBar.html#a2e77350f53c4579d7f71cc00d4f26dad" target="_top" xlink:title="Retourne vrai si une action ou un timer est en cours.">
<polygon fill="white" stroke="black" points="137,-76.5 137,-95.5 230,-95.5 230,-76.5 137,-76.5"/>
<text text-anchor="middle" x="183.5" y="-83.5" font-family="Helvetica,sans-Serif" font-size="10.00">LedBar::running</text>
</a>
</g>
</g>
<!-- Node1&#45;&gt;Node2 -->
<g id="edge1" class="edge">
<title>Node1&#45;&gt;Node2</title>
<path fill="none" stroke="midnightblue" d="M78.2,-57.59C96.21,-62.49 118.33,-68.52 137.56,-73.76"/>
<polygon fill="midnightblue" stroke="midnightblue" points="136.74,-77.16 147.31,-76.41 138.58,-70.41 136.74,-77.16"/>
</g>
<!-- Node3 -->
<g id="node3" class="node">
<title>Node3</title>
<g id="a_node3"><a xlink:href="classLedBar.html#a4f6f26d47d0ea82380cebb8c2b9ea7c3" target="_top" xlink:title="Change le statut d&#39;une led.">
<polygon fill="white" stroke="black" points="148,-38.5 148,-57.5 219,-57.5 219,-38.5 148,-38.5"/>
<text text-anchor="middle" x="183.5" y="-45.5" font-family="Helvetica,sans-Serif" font-size="10.00">LedBar::set</text>
</a>
</g>
</g>
<!-- Node1&#45;&gt;Node3 -->
<g id="edge2" class="edge">
<title>Node1&#45;&gt;Node3</title>
<path fill="none" stroke="midnightblue" d="M84.1,-48C100.87,-48 120.32,-48 137.47,-48"/>
<polygon fill="midnightblue" stroke="midnightblue" points="137.82,-51.5 147.82,-48 137.82,-44.5 137.82,-51.5"/>
</g>
<!-- Node11 -->
<g id="node11" class="node">
<title>Node11</title>
<g id="a_node11"><a xlink:href="namespaceutils.html#a4f86fc4c334661a6995538cc080a40c9" target="_top" xlink:title="Met en pause le thread courant pendant usec microsecondes.">
<polygon fill="white" stroke="black" points="120,-0.5 120,-19.5 247,-19.5 247,-0.5 120,-0.5"/>
<text text-anchor="middle" x="183.5" y="-7.5" font-family="Helvetica,sans-Serif" font-size="10.00">utils::sleep_for_micros</text>
</a>
</g>
</g>
<!-- Node1&#45;&gt;Node11 -->
<g id="edge10" class="edge">
<title>Node1&#45;&gt;Node11</title>
<path fill="none" stroke="midnightblue" d="M78.2,-38.41C96.21,-33.51 118.33,-27.48 137.56,-22.24"/>
<polygon fill="midnightblue" stroke="midnightblue" points="138.58,-25.59 147.31,-19.59 136.74,-18.84 138.58,-25.59"/>
</g>
<!-- Node4 -->
<g id="node4" class="node">
<title>Node4</title>
<g id="a_node4"><a xlink:href="classLedBar.html#a349f726f4e7cd0058f95b6c9d9453b18" target="_top" xlink:title="Retourne le Logger associé à la classe LedBar.">
<polygon fill="white" stroke="black" points="304.5,-58.5 304.5,-77.5 391.5,-77.5 391.5,-58.5 304.5,-58.5"/>
<text text-anchor="middle" x="348" y="-65.5" font-family="Helvetica,sans-Serif" font-size="10.00">LedBar::logger</text>
</a>
</g>
</g>
<!-- Node3&#45;&gt;Node4 -->
<g id="edge3" class="edge">
<title>Node3&#45;&gt;Node4</title>
<path fill="none" stroke="midnightblue" d="M219.36,-52.29C241.15,-54.97 269.63,-58.48 294.16,-61.5"/>
<polygon fill="midnightblue" stroke="midnightblue" points="294.04,-65.01 304.4,-62.76 294.9,-58.06 294.04,-65.01"/>
</g>
<!-- Node9 -->
<g id="node9" class="node">
<title>Node9</title>
<g id="a_node9"><a xlink:href="classlogs_1_1Logger.html#ae55afdeeb1bc9acb6dc02a3e2d06062f" target="_top" xlink:title="Trace un message de niveau TELEM.">
<polygon fill="white" stroke="black" points="283,-19.5 283,-38.5 413,-38.5 413,-19.5 283,-19.5"/>
<text text-anchor="middle" x="348" y="-26.5" font-family="Helvetica,sans-Serif" font-size="10.00">logs::Logger::telemetry</text>
</a>
</g>
</g>
<!-- Node3&#45;&gt;Node9 -->
<g id="edge8" class="edge">
<title>Node3&#45;&gt;Node9</title>
<path fill="none" stroke="midnightblue" d="M219.36,-43.92C235.01,-42.09 254.12,-39.86 272.73,-37.68"/>
<polygon fill="midnightblue" stroke="midnightblue" points="273.17,-41.16 282.7,-36.52 272.36,-34.2 273.17,-41.16"/>
</g>
<!-- Node5 -->
<g id="node5" class="node">
<title>Node5</title>
<g id="a_node5"><a xlink:href="classlogs_1_1LoggerFactory.html#a82585b5de73e471e06cafdccc3b3721e" target="_top" xlink:title="Cette méthode statique retourne un Logger en fonction de son nom.">
<polygon fill="white" stroke="black" points="468.5,-55 468.5,-85 579.5,-85 579.5,-55 468.5,-55"/>
<text text-anchor="start" x="476.5" y="-73" font-family="Helvetica,sans-Serif" font-size="10.00">logs::LoggerFactory</text>
<text text-anchor="middle" x="524" y="-62" font-family="Helvetica,sans-Serif" font-size="10.00">::logger</text>
</a>
</g>
</g>
<!-- Node4&#45;&gt;Node5 -->
<g id="edge4" class="edge">
<title>Node4&#45;&gt;Node5</title>
<path fill="none" stroke="midnightblue" d="M391.57,-68.49C411.63,-68.72 436.01,-69 458.3,-69.26"/>
<polygon fill="midnightblue" stroke="midnightblue" points="458.33,-72.76 468.36,-69.37 458.41,-65.76 458.33,-72.76"/>
</g>
<!-- Node6 -->
<g id="node6" class="node">
<title>Node6</title>
<g id="a_node6"><a xlink:href="classlogs_1_1LoggerFactory.html#ac89f19c0ffd71aa8cdc1c2d44c03809e" target="_top" xlink:title="Cette méthode ajoute un appender au système.">
<polygon fill="white" stroke="black" points="635,-104.5 635,-123.5 769,-123.5 769,-104.5 635,-104.5"/>
<text text-anchor="middle" x="702" y="-111.5" font-family="Helvetica,sans-Serif" font-size="10.00">logs::LoggerFactory::add</text>
</a>
</g>
</g>
<!-- Node5&#45;&gt;Node6 -->
<g id="edge5" class="edge">
<title>Node5&#45;&gt;Node6</title>
<path fill="none" stroke="midnightblue" d="M579.72,-83.68C603.19,-89.55 630.37,-96.34 653.03,-102.01"/>
<polygon fill="midnightblue" stroke="midnightblue" points="652.22,-105.41 662.78,-104.44 653.92,-98.62 652.22,-105.41"/>
</g>
<!-- Node7 -->
<g id="node7" class="node">
<title>Node7</title>
<g id="a_node7"><a xlink:href="classlogs_1_1LoggerFactory.html#a90478b91d7af2ef8841ded21e3521f69" target="_top" xlink:title="Cette méthode statique retourne l&#39;instance unique de la classe LoggerFactory.">
<polygon fill="white" stroke="black" points="646.5,-55 646.5,-85 757.5,-85 757.5,-55 646.5,-55"/>
<text text-anchor="start" x="654.5" y="-73" font-family="Helvetica,sans-Serif" font-size="10.00">logs::LoggerFactory</text>
<text text-anchor="middle" x="702" y="-62" font-family="Helvetica,sans-Serif" font-size="10.00">::instance</text>
</a>
</g>
</g>
<!-- Node5&#45;&gt;Node7 -->
<g id="edge6" class="edge">
<title>Node5&#45;&gt;Node7</title>
<path fill="none" stroke="midnightblue" d="M579.72,-70C597.6,-70 617.63,-70 636.18,-70"/>
<polygon fill="midnightblue" stroke="midnightblue" points="636.31,-73.5 646.31,-70 636.31,-66.5 636.31,-73.5"/>
</g>
<!-- Node8 -->
<g id="node8" class="node">
<title>Node8</title>
<g id="a_node8"><a xlink:href="classlogs_1_1LoggerFactory.html#a212aa623f4b6bee12cb39e8017dde670" target="_top" xlink:title="Cette méthode retourne le Logger principal qui définit le niveau de trace par défaut.">
<polygon fill="white" stroke="black" points="646.5,-6 646.5,-36 757.5,-36 757.5,-6 646.5,-6"/>
<text text-anchor="start" x="654.5" y="-24" font-family="Helvetica,sans-Serif" font-size="10.00">logs::LoggerFactory</text>
<text text-anchor="middle" x="702" y="-13" font-family="Helvetica,sans-Serif" font-size="10.00">::rootLogger</text>
</a>
</g>
</g>
<!-- Node5&#45;&gt;Node8 -->
<g id="edge7" class="edge">
<title>Node5&#45;&gt;Node8</title>
<path fill="none" stroke="midnightblue" d="M579.24,-54.9C597.56,-49.8 618.18,-44.06 637.17,-38.77"/>
<polygon fill="midnightblue" stroke="midnightblue" points="638.24,-42.11 646.94,-36.05 636.36,-35.36 638.24,-42.11"/>
</g>
<!-- Node10 -->
<g id="node10" class="node">
<title>Node10</title>
<g id="a_node10"><a xlink:href="classlogs_1_1Logger.html#afa535aaf4891e02c4ff7f84d372b5b1b" target="_top" xlink:title="Méthode générique de trace d&#39;un message.">
<polygon fill="white" stroke="black" points="449,-16.5 449,-35.5 599,-35.5 599,-16.5 449,-16.5"/>
<text text-anchor="middle" x="524" y="-23.5" font-family="Helvetica,sans-Serif" font-size="10.00">logs::Logger::writeMessage</text>
</a>
</g>
</g>
<!-- Node9&#45;&gt;Node10 -->
<g id="edge9" class="edge">
<title>Node9&#45;&gt;Node10</title>
<path fill="none" stroke="midnightblue" d="M413.3,-27.89C421.65,-27.75 430.3,-27.6 438.91,-27.45"/>
<polygon fill="midnightblue" stroke="midnightblue" points="439.04,-30.95 448.98,-27.28 438.92,-23.95 439.04,-30.95"/>
</g>
</g>
</svg>
