<?xml version="1.0" encoding="UTF-8" standalone="no"?>
<!DOCTYPE svg PUBLIC "-//W3C//DTD SVG 1.1//EN"
 "http://www.w3.org/Graphics/SVG/1.1/DTD/svg11.dtd">
<!-- Generated by graphviz version 2.43.0 (0)
 -->
<!-- Title: Asserv::doAbsoluteRotateTo Pages: 1 -->
<!--zoomable 280 -->
<svg id="main" version="1.1" xmlns="http://www.w3.org/2000/svg" xmlns:xlink="http://www.w3.org/1999/xlink" xml:space="preserve" onload="init(evt)">
<style type="text/css"><![CDATA[
.edge:hover path { stroke: red; }
.edge:hover polygon { stroke: red; fill: red; }
]]></style>
<script type="text/javascript"><![CDATA[
var edges = document.getElementsByTagName('g');
if (edges && edges.length) {
  for (var i=0;i<edges.length;i++) {
    if (edges[i].id.substr(0,4)=='edge') {
      edges[i].setAttribute('class','edge');
    }
  }
}
]]></script>
        <defs>
                <circle id="rim" cx="0" cy="0" r="7"/>
                <circle id="rim2" cx="0" cy="0" r="3.5"/>
                <g id="zoomPlus">
                        <use xlink:href="#rim" fill="#404040">
                                <set attributeName="fill" to="#808080" begin="zoomplus.mouseover" end="zoomplus.mouseout"/>
                        </use>
                        <path d="M-4,0h8M0,-4v8" fill="none" stroke="white" stroke-width="1.5" pointer-events="none"/>
                </g>
                <g id="zoomMin">
                        <use xlink:href="#rim" fill="#404040">
                                <set attributeName="fill" to="#808080" begin="zoomminus.mouseover" end="zoomminus.mouseout"/>
                        </use>
                        <path d="M-4,0h8" fill="none" stroke="white" stroke-width="1.5" pointer-events="none"/>
                </g>
                <g id="dirArrow">
                        <path fill="none" stroke="white" stroke-width="1.5" d="M0,-3.0v7 M-2.5,-0.5L0,-3.0L2.5,-0.5"/>
                </g>
               <g id="resetDef">
                       <use xlink:href="#rim2" fill="#404040">
                               <set attributeName="fill" to="#808080" begin="reset.mouseover" end="reset.mouseout"/>
                       </use>
               </g>
        </defs>

<script type="text/javascript">
var viewWidth = 768;
var viewHeight = 280;
var sectionId = 'dynsection-15';
</script>
<script xlink:href="svgpan.js"/>
<svg id="graph" class="graph">
<g id="viewport">
<title>Asserv::doAbsoluteRotateTo</title>
<polygon fill="white" stroke="transparent" points="-4,4 -4,-275.5 764,-275.5 764,4 -4,4"/>
<!-- Node1 -->
<g id="node1" class="node">
<title>Node1</title>
<g id="a_node1"><a xlink:title=" ">
<polygon fill="#bfbfbf" stroke="black" points="608,-145.5 608,-164.5 760,-164.5 760,-145.5 608,-145.5"/>
<text text-anchor="middle" x="684" y="-152.5" font-family="Helvetica,sans-Serif" font-size="10.00">Asserv::doAbsoluteRotateTo</text>
</a>
</g>
</g>
<!-- Node2 -->
<g id="node2" class="node">
<title>Node2</title>
<g id="a_node2"><a xlink:href="classAsserv.html#af438189501d475dcb6632ce63efe5e5f" target="_top" xlink:title=" ">
<polygon fill="white" stroke="black" points="211,-241 211,-271 372,-271 372,-241 211,-241"/>
<text text-anchor="start" x="219" y="-259" font-family="Helvetica,sans-Serif" font-size="10.00">Asserv::doMoveBackwardAnd</text>
<text text-anchor="middle" x="291.5" y="-248" font-family="Helvetica,sans-Serif" font-size="10.00">RotateTo</text>
</a>
</g>
</g>
<!-- Node1&#45;&gt;Node2 -->
<g id="edge1" class="edge">
<title>Node1&#45;&gt;Node2</title>
<path fill="none" stroke="midnightblue" d="M665.39,-171.39C644.76,-189.49 608.71,-217.82 572,-231 507.47,-254.18 429.4,-259.43 372.2,-259.45"/>
<polygon fill="midnightblue" stroke="midnightblue" points="667.9,-173.84 673,-164.56 663.22,-168.64 667.9,-173.84"/>
</g>
<!-- Node3 -->
<g id="node3" class="node">
<title>Node3</title>
<g id="a_node3"><a xlink:href="classAsserv.html#aa2ec3b84e3cccf2145cc70e33f08dc58" target="_top" xlink:title=" ">
<polygon fill="white" stroke="black" points="418,-202.5 418,-221.5 570,-221.5 570,-202.5 418,-202.5"/>
<text text-anchor="middle" x="494" y="-209.5" font-family="Helvetica,sans-Serif" font-size="10.00">Asserv::doMoveBackwardTo</text>
</a>
</g>
</g>
<!-- Node1&#45;&gt;Node3 -->
<g id="edge2" class="edge">
<title>Node1&#45;&gt;Node3</title>
<path fill="none" stroke="midnightblue" d="M641.71,-167.52C607.02,-178.04 558.19,-192.84 526.57,-202.43"/>
<polygon fill="midnightblue" stroke="midnightblue" points="642.98,-170.79 651.53,-164.54 640.95,-164.09 642.98,-170.79"/>
</g>
<!-- Node6 -->
<g id="node6" class="node">
<title>Node6</title>
<g id="a_node6"><a xlink:href="classAsserv.html#a0a57aa0008a30ba9b13502e4dd61310d" target="_top" xlink:title=" ">
<polygon fill="white" stroke="black" points="215.5,-77 215.5,-107 367.5,-107 367.5,-77 215.5,-77"/>
<text text-anchor="start" x="223.5" y="-95" font-family="Helvetica,sans-Serif" font-size="10.00">Asserv::doMoveForwardAnd</text>
<text text-anchor="middle" x="291.5" y="-84" font-family="Helvetica,sans-Serif" font-size="10.00">RotateTo</text>
</a>
</g>
</g>
<!-- Node1&#45;&gt;Node6 -->
<g id="edge6" class="edge">
<title>Node1&#45;&gt;Node6</title>
<path fill="none" stroke="midnightblue" d="M650.63,-141.6C628.79,-133.15 599.13,-122.77 572,-117 503.74,-102.48 424.35,-96.39 367.67,-93.83"/>
<polygon fill="midnightblue" stroke="midnightblue" points="649.49,-144.92 660.07,-145.33 652.05,-138.4 649.49,-144.92"/>
</g>
<!-- Node7 -->
<g id="node7" class="node">
<title>Node7</title>
<g id="a_node7"><a xlink:href="classAsserv.html#a960679fed5ab18f631d7847c95fc1f85" target="_top" xlink:title=" ">
<polygon fill="white" stroke="black" points="422.5,-126.5 422.5,-145.5 565.5,-145.5 565.5,-126.5 422.5,-126.5"/>
<text text-anchor="middle" x="494" y="-133.5" font-family="Helvetica,sans-Serif" font-size="10.00">Asserv::doMoveForwardTo</text>
</a>
</g>
</g>
<!-- Node1&#45;&gt;Node7 -->
<g id="edge7" class="edge">
<title>Node1&#45;&gt;Node7</title>
<path fill="none" stroke="midnightblue" d="M597.7,-146.38C587,-145.3 576.16,-144.2 565.72,-143.15"/>
<polygon fill="midnightblue" stroke="midnightblue" points="597.59,-149.89 607.89,-147.41 598.29,-142.92 597.59,-149.89"/>
</g>
<!-- Node10 -->
<g id="node10" class="node">
<title>Node10</title>
<g id="a_node10"><a xlink:href="classIAbyPath.html#a00b7b125584bda7731696dfd5069b17c" target="_top" xlink:title=" ">
<polygon fill="white" stroke="black" points="416,-33 416,-63 572,-63 572,-33 416,-33"/>
<text text-anchor="start" x="424" y="-51" font-family="Helvetica,sans-Serif" font-size="10.00">IAbyPath::doPathForwardAnd</text>
<text text-anchor="middle" x="494" y="-40" font-family="Helvetica,sans-Serif" font-size="10.00">RotateTo</text>
</a>
</g>
</g>
<!-- Node1&#45;&gt;Node10 -->
<g id="edge11" class="edge">
<title>Node1&#45;&gt;Node10</title>
<path fill="none" stroke="midnightblue" d="M661.97,-139.28C640.17,-123.4 604.75,-98.74 572,-81 559.98,-74.49 546.4,-68.31 534.04,-63.1"/>
<polygon fill="midnightblue" stroke="midnightblue" points="660.03,-142.2 670.16,-145.3 664.18,-136.56 660.03,-142.2"/>
</g>
<!-- Node14 -->
<g id="node14" class="node">
<title>Node14</title>
<g id="a_node14"><a xlink:href="classIAbyPath.html#a42570f6bc87216c2ac5d028ad596fe02" target="_top" xlink:title=" ">
<polygon fill="white" stroke="black" points="211,-164.5 211,-183.5 372,-183.5 372,-164.5 211,-164.5"/>
<text text-anchor="middle" x="291.5" y="-171.5" font-family="Helvetica,sans-Serif" font-size="10.00">IAbyPath::whileMoveRotateTo</text>
</a>
</g>
</g>
<!-- Node1&#45;&gt;Node14 -->
<g id="edge16" class="edge">
<title>Node1&#45;&gt;Node14</title>
<path fill="none" stroke="midnightblue" d="M597.59,-159.16C530.52,-162.42 437.83,-166.93 372.26,-170.12"/>
<polygon fill="midnightblue" stroke="midnightblue" points="597.89,-162.65 607.71,-158.66 597.55,-155.65 597.89,-162.65"/>
</g>
<!-- Node3&#45;&gt;Node2 -->
<g id="edge3" class="edge">
<title>Node3&#45;&gt;Node2</title>
<path fill="none" stroke="midnightblue" d="M439.49,-223.74C415.44,-229.02 386.76,-235.31 361.15,-240.93"/>
<polygon fill="midnightblue" stroke="midnightblue" points="440.48,-227.11 449.49,-221.55 438.98,-220.27 440.48,-227.11"/>
</g>
<!-- Node4 -->
<g id="node4" class="node">
<title>Node4</title>
<g id="a_node4"><a xlink:href="classIAbyPath.html#acc586e1ba62ffb7a21087a5ca4d2f131" target="_top" xlink:title=" ">
<polygon fill="white" stroke="black" points="203,-202.5 203,-221.5 380,-221.5 380,-202.5 203,-202.5"/>
<text text-anchor="middle" x="291.5" y="-209.5" font-family="Helvetica,sans-Serif" font-size="10.00">IAbyPath::whileMoveBackwardTo</text>
</a>
</g>
</g>
<!-- Node3&#45;&gt;Node4 -->
<g id="edge4" class="edge">
<title>Node3&#45;&gt;Node4</title>
<path fill="none" stroke="midnightblue" d="M407.64,-212C398.59,-212 389.38,-212 380.3,-212"/>
<polygon fill="midnightblue" stroke="midnightblue" points="407.77,-215.5 417.77,-212 407.77,-208.5 407.77,-215.5"/>
</g>
<!-- Node5 -->
<g id="node5" class="node">
<title>Node5</title>
<g id="a_node5"><a xlink:href="classIAbyPath.html#a9535c82f137778cc6cd4b159fe3d58ea" target="_top" xlink:title=" ">
<polygon fill="white" stroke="black" points="0,-190 0,-220 167,-220 167,-190 0,-190"/>
<text text-anchor="start" x="8" y="-208" font-family="Helvetica,sans-Serif" font-size="10.00">IAbyPath::whileMoveBackward</text>
<text text-anchor="middle" x="83.5" y="-197" font-family="Helvetica,sans-Serif" font-size="10.00">AndRotateTo</text>
</a>
</g>
</g>
<!-- Node4&#45;&gt;Node5 -->
<g id="edge5" class="edge">
<title>Node4&#45;&gt;Node5</title>
<path fill="none" stroke="midnightblue" d="M192.81,-208.68C184.23,-208.39 175.61,-208.1 167.17,-207.81"/>
<polygon fill="midnightblue" stroke="midnightblue" points="192.73,-212.18 202.84,-209.02 192.96,-205.18 192.73,-212.18"/>
</g>
<!-- Node7&#45;&gt;Node6 -->
<g id="edge8" class="edge">
<title>Node7&#45;&gt;Node6</title>
<path fill="none" stroke="midnightblue" d="M439.49,-124.26C415.44,-118.98 386.76,-112.69 361.15,-107.07"/>
<polygon fill="midnightblue" stroke="midnightblue" points="438.98,-127.73 449.49,-126.45 440.48,-120.89 438.98,-127.73"/>
</g>
<!-- Node8 -->
<g id="node8" class="node">
<title>Node8</title>
<g id="a_node8"><a xlink:href="classIAbyPath.html#aa2a96904ea74078d56dad53979b1d999" target="_top" xlink:title=" ">
<polygon fill="white" stroke="black" points="207.5,-126.5 207.5,-145.5 375.5,-145.5 375.5,-126.5 207.5,-126.5"/>
<text text-anchor="middle" x="291.5" y="-133.5" font-family="Helvetica,sans-Serif" font-size="10.00">IAbyPath::whileMoveForwardTo</text>
</a>
</g>
</g>
<!-- Node7&#45;&gt;Node8 -->
<g id="edge9" class="edge">
<title>Node7&#45;&gt;Node8</title>
<path fill="none" stroke="midnightblue" d="M412.27,-136C400.19,-136 387.72,-136 375.59,-136"/>
<polygon fill="midnightblue" stroke="midnightblue" points="412.31,-139.5 422.31,-136 412.31,-132.5 412.31,-139.5"/>
</g>
<!-- Node9 -->
<g id="node9" class="node">
<title>Node9</title>
<g id="a_node9"><a xlink:href="classIAbyPath.html#a3f27b793f84340c99ca33e12c2380bb4" target="_top" xlink:title=" ">
<polygon fill="white" stroke="black" points="4.5,-128 4.5,-158 162.5,-158 162.5,-128 4.5,-128"/>
<text text-anchor="start" x="12.5" y="-146" font-family="Helvetica,sans-Serif" font-size="10.00">IAbyPath::whileMoveForward</text>
<text text-anchor="middle" x="83.5" y="-135" font-family="Helvetica,sans-Serif" font-size="10.00">AndRotateTo</text>
</a>
</g>
</g>
<!-- Node8&#45;&gt;Node9 -->
<g id="edge10" class="edge">
<title>Node8&#45;&gt;Node9</title>
<path fill="none" stroke="midnightblue" d="M197.22,-139.17C185.67,-139.56 173.96,-139.96 162.67,-140.34"/>
<polygon fill="midnightblue" stroke="midnightblue" points="197.43,-142.66 207.31,-138.83 197.19,-135.67 197.43,-142.66"/>
</g>
<!-- Node11 -->
<g id="node11" class="node">
<title>Node11</title>
<g id="a_node11"><a xlink:href="O__IAbyPathTest_8cpp.html#ac1055b8eb7025052d58ebaf15869a480" target="_top" xlink:title=" ">
<polygon fill="white" stroke="black" points="225,-38.5 225,-57.5 358,-57.5 358,-38.5 225,-38.5"/>
<text text-anchor="middle" x="291.5" y="-45.5" font-family="Helvetica,sans-Serif" font-size="10.00">O_IAbyPathTest_action1</text>
</a>
</g>
</g>
<!-- Node10&#45;&gt;Node11 -->
<g id="edge12" class="edge">
<title>Node10&#45;&gt;Node11</title>
<path fill="none" stroke="midnightblue" d="M405.44,-48C389.61,-48 373.35,-48 358.28,-48"/>
<polygon fill="midnightblue" stroke="midnightblue" points="405.77,-51.5 415.77,-48 405.77,-44.5 405.77,-51.5"/>
</g>
<!-- Node13 -->
<g id="node13" class="node">
<title>Node13</title>
<g id="a_node13"><a xlink:href="O__IAbyPathTest_8cpp.html#aafb960063ea3193551e7ba63626e2561" target="_top" xlink:title=" ">
<polygon fill="white" stroke="black" points="224.5,-0.5 224.5,-19.5 358.5,-19.5 358.5,-0.5 224.5,-0.5"/>
<text text-anchor="middle" x="291.5" y="-7.5" font-family="Helvetica,sans-Serif" font-size="10.00">O_IAByPathTest_action2</text>
</a>
</g>
</g>
<!-- Node10&#45;&gt;Node13 -->
<g id="edge14" class="edge">
<title>Node10&#45;&gt;Node13</title>
<path fill="none" stroke="midnightblue" d="M405.92,-31.5C384.34,-27.41 361.92,-23.16 342.77,-19.53"/>
<polygon fill="midnightblue" stroke="midnightblue" points="405.29,-34.94 415.77,-33.36 406.59,-28.06 405.29,-34.94"/>
</g>
<!-- Node12 -->
<g id="node12" class="node">
<title>Node12</title>
<g id="a_node12"><a xlink:href="classO__IAByPathTest.html#abedd21fde4835d641e6aa3f8e1c6581f" target="_top" xlink:title=" ">
<polygon fill="white" stroke="black" points="15.5,-19.5 15.5,-38.5 151.5,-38.5 151.5,-19.5 15.5,-19.5"/>
<text text-anchor="middle" x="83.5" y="-26.5" font-family="Helvetica,sans-Serif" font-size="10.00">O_IAByPathTest::IASetup</text>
</a>
</g>
</g>
<!-- Node11&#45;&gt;Node12 -->
<g id="edge13" class="edge">
<title>Node11&#45;&gt;Node12</title>
<path fill="none" stroke="midnightblue" d="M214.76,-41.01C194.11,-39.11 171.89,-37.06 151.74,-35.2"/>
<polygon fill="midnightblue" stroke="midnightblue" points="214.47,-44.5 224.75,-41.94 215.12,-37.53 214.47,-44.5"/>
</g>
<!-- Node13&#45;&gt;Node12 -->
<g id="edge15" class="edge">
<title>Node13&#45;&gt;Node12</title>
<path fill="none" stroke="midnightblue" d="M214.48,-17.01C193.85,-18.91 171.67,-20.96 151.57,-22.81"/>
<polygon fill="midnightblue" stroke="midnightblue" points="214.83,-20.49 224.47,-16.09 214.19,-13.52 214.83,-20.49"/>
</g>
<!-- Node14&#45;&gt;Node5 -->
<g id="edge17" class="edge">
<title>Node14&#45;&gt;Node5</title>
<path fill="none" stroke="midnightblue" d="M217.36,-185.01C201.17,-187.44 183.89,-190.04 167.34,-192.53"/>
<polygon fill="midnightblue" stroke="midnightblue" points="217.93,-188.46 227.29,-183.51 216.88,-181.54 217.93,-188.46"/>
</g>
<!-- Node14&#45;&gt;Node9 -->
<g id="edge18" class="edge">
<title>Node14&#45;&gt;Node9</title>
<path fill="none" stroke="midnightblue" d="M217.1,-162.95C199.51,-160.31 180.67,-157.47 162.86,-154.79"/>
<polygon fill="midnightblue" stroke="midnightblue" points="216.88,-166.46 227.29,-164.49 217.93,-159.54 216.88,-166.46"/>
</g>
</g>
</svg>
        <g id="navigator" transform="translate(0 0)" fill="#404254">
                <rect fill="#f2f5e9" fill-opacity="0.5" stroke="#606060" stroke-width=".5" x="0" y="0" width="60" height="60"/>
                <use id="zoomplus" xlink:href="#zoomPlus" x="17" y="9" onmousedown="handleZoom(evt,'in')"/>
                <use id="zoomminus" xlink:href="#zoomMin" x="42" y="9" onmousedown="handleZoom(evt,'out')"/>
                <use id="reset" xlink:href="#resetDef" x="30" y="36" onmousedown="handleReset()"/>
                <g id="arrowUp" xlink:href="#dirArrow" transform="translate(30 24)" onmousedown="handlePan(0,-1)">
                  <use xlink:href="#rim" fill="#404040">
                        <set attributeName="fill" to="#808080" begin="arrowUp.mouseover" end="arrowUp.mouseout"/>
                  </use>
                  <path fill="none" stroke="white" stroke-width="1.5" d="M0,-3.0v7 M-2.5,-0.5L0,-3.0L2.5,-0.5"/>
                </g>
                <g id="arrowRight" xlink:href="#dirArrow" transform="rotate(90) translate(36 -43)" onmousedown="handlePan(1,0)">
                  <use xlink:href="#rim" fill="#404040">
                        <set attributeName="fill" to="#808080" begin="arrowRight.mouseover" end="arrowRight.mouseout"/>
                  </use>
                  <path fill="none" stroke="white" stroke-width="1.5" d="M0,-3.0v7 M-2.5,-0.5L0,-3.0L2.5,-0.5"/>
                </g>
                <g id="arrowDown" xlink:href="#dirArrow" transform="rotate(180) translate(-30 -48)" onmousedown="handlePan(0,1)">
                  <use xlink:href="#rim" fill="#404040">
                        <set attributeName="fill" to="#808080" begin="arrowDown.mouseover" end="arrowDown.mouseout"/>
                  </use>
                  <path fill="none" stroke="white" stroke-width="1.5" d="M0,-3.0v7 M-2.5,-0.5L0,-3.0L2.5,-0.5"/>
                </g>
                <g id="arrowLeft" xlink:href="#dirArrow" transform="rotate(270) translate(-36 17)" onmousedown="handlePan(-1,0)">
                  <use xlink:href="#rim" fill="#404040">
                        <set attributeName="fill" to="#808080" begin="arrowLeft.mouseover" end="arrowLeft.mouseout"/>
                  </use>
                  <path fill="none" stroke="white" stroke-width="1.5" d="M0,-3.0v7 M-2.5,-0.5L0,-3.0L2.5,-0.5"/>
                </g>
        </g>
        <svg viewBox="0 0 15 15" width="100%" height="30px" preserveAspectRatio="xMaxYMin meet">
         <g id="arrow_out" transform="scale(0.3 0.3)">
          <a xlink:href="classAsserv_a31cb7196e12282ed27c45e8f58b4db04_icgraph_org.svg" target="_base">
           <rect id="button" ry="5" rx="5" y="6" x="6" height="38" width="38"
                fill="#f2f5e9" fill-opacity="0.5" stroke="#606060" stroke-width="1.0"/>
           <path id="arrow"
             d="M 11.500037,31.436501 C 11.940474,20.09759 22.043105,11.32322 32.158766,21.979434 L 37.068811,17.246167 C 37.068811,17.246167 37.088388,32 37.088388,32 L 22.160133,31.978069 C 22.160133,31.978069 26.997745,27.140456 26.997745,27.140456 C 18.528582,18.264221 13.291696,25.230495 11.500037,31.436501 z"
             style="fill:#404040;"/>
          </a>
         </g>
        </svg>
</svg>
