<?xml version="1.0" encoding="UTF-8" standalone="no"?>
<!DOCTYPE svg PUBLIC "-//W3C//DTD SVG 1.1//EN"
 "http://www.w3.org/Graphics/SVG/1.1/DTD/svg11.dtd">
<!-- Generated by graphviz version 2.43.0 (0)
 -->
<!-- Title: FunctionalTest::desc Pages: 1 -->
<svg width="316pt" height="256pt"
 viewBox="0.00 0.00 316.00 256.00" xmlns="http://www.w3.org/2000/svg" xmlns:xlink="http://www.w3.org/1999/xlink">
<g id="graph0" class="graph" transform="scale(1 1) rotate(0) translate(4 252)">
<title>FunctionalTest::desc</title>
<polygon fill="white" stroke="transparent" points="-4,4 -4,-252 312,-252 312,4 -4,4"/>
<!-- Node1 -->
<g id="node1" class="node">
<title>Node1</title>
<g id="a_node1"><a xlink:title=" ">
<polygon fill="#bfbfbf" stroke="black" points="193,-114.5 193,-133.5 308,-133.5 308,-114.5 193,-114.5"/>
<text text-anchor="middle" x="250.5" y="-121.5" font-family="Helvetica,sans-Serif" font-size="10.00">FunctionalTest::desc</text>
</a>
</g>
</g>
<!-- Node2 -->
<g id="node2" class="node">
<title>Node2</title>
<g id="a_node2"><a xlink:href="classO__Asserv__CalageTest.html#ad731f64308b62269f060e74c0282e30f" target="_top" xlink:title=" ">
<polygon fill="white" stroke="black" points="7,-228.5 7,-247.5 150,-247.5 150,-228.5 7,-228.5"/>
<text text-anchor="middle" x="78.5" y="-235.5" font-family="Helvetica,sans-Serif" font-size="10.00">O_Asserv_CalageTest::run</text>
</a>
</g>
</g>
<!-- Node1&#45;&gt;Node2 -->
<g id="edge1" class="edge">
<title>Node1&#45;&gt;Node2</title>
<path fill="none" stroke="midnightblue" d="M237.12,-141.81C221.14,-163.42 191.27,-199.4 157,-219 150.27,-222.85 142.77,-225.93 135.17,-228.38"/>
<polygon fill="midnightblue" stroke="midnightblue" points="240.09,-143.68 243.09,-133.52 234.41,-139.59 240.09,-143.68"/>
</g>
<!-- Node3 -->
<g id="node3" class="node">
<title>Node3</title>
<g id="a_node3"><a xlink:href="classO__Asserv__SquareTest.html#a16a0bf866c8070611cfa8952e3ef64d8" target="_top" xlink:title=" ">
<polygon fill="white" stroke="black" points="7,-190.5 7,-209.5 150,-209.5 150,-190.5 7,-190.5"/>
<text text-anchor="middle" x="78.5" y="-197.5" font-family="Helvetica,sans-Serif" font-size="10.00">O_Asserv_SquareTest::run</text>
</a>
</g>
</g>
<!-- Node1&#45;&gt;Node3 -->
<g id="edge2" class="edge">
<title>Node1&#45;&gt;Node3</title>
<path fill="none" stroke="midnightblue" d="M228.13,-139.86C210.02,-152.62 182.93,-170.15 157,-181 148.05,-184.74 138.21,-187.86 128.62,-190.41"/>
<polygon fill="midnightblue" stroke="midnightblue" points="230.64,-142.36 236.72,-133.68 226.56,-136.67 230.64,-142.36"/>
</g>
<!-- Node4 -->
<g id="node4" class="node">
<title>Node4</title>
<g id="a_node4"><a xlink:href="classO__AsservCalibrationTest.html#a578ac4b37bd38a475665dc353cb834f5" target="_top" xlink:title=" ">
<polygon fill="white" stroke="black" points="0,-152.5 0,-171.5 157,-171.5 157,-152.5 0,-152.5"/>
<text text-anchor="middle" x="78.5" y="-159.5" font-family="Helvetica,sans-Serif" font-size="10.00">O_AsservCalibrationTest::run</text>
</a>
</g>
</g>
<!-- Node1&#45;&gt;Node4 -->
<g id="edge3" class="edge">
<title>Node1&#45;&gt;Node4</title>
<path fill="none" stroke="midnightblue" d="M196.6,-135.82C172.63,-141.18 144.68,-147.43 122.09,-152.48"/>
<polygon fill="midnightblue" stroke="midnightblue" points="197.61,-139.19 206.6,-133.59 196.08,-132.35 197.61,-139.19"/>
</g>
<!-- Node5 -->
<g id="node5" class="node">
<title>Node5</title>
<g id="a_node5"><a xlink:href="classO__AsservLineRotateTest.html#ac54536863ccc3f6bc0ce3f30e99e1b70" target="_top" xlink:title=" ">
<polygon fill="white" stroke="black" points="0.5,-114.5 0.5,-133.5 156.5,-133.5 156.5,-114.5 0.5,-114.5"/>
<text text-anchor="middle" x="78.5" y="-121.5" font-family="Helvetica,sans-Serif" font-size="10.00">O_AsservLineRotateTest::run</text>
</a>
</g>
</g>
<!-- Node1&#45;&gt;Node5 -->
<g id="edge4" class="edge">
<title>Node1&#45;&gt;Node5</title>
<path fill="none" stroke="midnightblue" d="M182.67,-124C174.16,-124 165.4,-124 156.74,-124"/>
<polygon fill="midnightblue" stroke="midnightblue" points="182.89,-127.5 192.89,-124 182.89,-120.5 182.89,-127.5"/>
</g>
<!-- Node6 -->
<g id="node6" class="node">
<title>Node6</title>
<g id="a_node6"><a xlink:href="classO__AsservTest.html#a87e2ffa360e3e12ff5c7b81b1952a04f" target="_top" xlink:title=" ">
<polygon fill="white" stroke="black" points="26.5,-76.5 26.5,-95.5 130.5,-95.5 130.5,-76.5 26.5,-76.5"/>
<text text-anchor="middle" x="78.5" y="-83.5" font-family="Helvetica,sans-Serif" font-size="10.00">O_AsservTest::run</text>
</a>
</g>
</g>
<!-- Node1&#45;&gt;Node6 -->
<g id="edge5" class="edge">
<title>Node1&#45;&gt;Node6</title>
<path fill="none" stroke="midnightblue" d="M196.6,-112.18C172.63,-106.82 144.68,-100.57 122.09,-95.52"/>
<polygon fill="midnightblue" stroke="midnightblue" points="196.08,-115.65 206.6,-114.41 197.61,-108.81 196.08,-115.65"/>
</g>
<!-- Node7 -->
<g id="node7" class="node">
<title>Node7</title>
<g id="a_node7"><a xlink:href="classO__AsservXYRotateTest.html#a13ccb691e37bdddc94ca53b29311e39a" target="_top" xlink:title=" ">
<polygon fill="white" stroke="black" points="4,-38.5 4,-57.5 153,-57.5 153,-38.5 4,-38.5"/>
<text text-anchor="middle" x="78.5" y="-45.5" font-family="Helvetica,sans-Serif" font-size="10.00">O_AsservXYRotateTest::run</text>
</a>
</g>
</g>
<!-- Node1&#45;&gt;Node7 -->
<g id="edge6" class="edge">
<title>Node1&#45;&gt;Node7</title>
<path fill="none" stroke="midnightblue" d="M228.13,-108.14C210.02,-95.38 182.93,-77.85 157,-67 148.05,-63.26 138.21,-60.14 128.62,-57.59"/>
<polygon fill="midnightblue" stroke="midnightblue" points="226.56,-111.33 236.72,-114.32 230.64,-105.64 226.56,-111.33"/>
</g>
<!-- Node8 -->
<g id="node8" class="node">
<title>Node8</title>
<g id="a_node8"><a xlink:href="classO__GroveColorTest.html#a035d68d80a1be3d3140e3b9de6cba795" target="_top" xlink:title=" ">
<polygon fill="white" stroke="black" points="16,-0.5 16,-19.5 141,-19.5 141,-0.5 16,-0.5"/>
<text text-anchor="middle" x="78.5" y="-7.5" font-family="Helvetica,sans-Serif" font-size="10.00">O_GroveColorTest::run</text>
</a>
</g>
</g>
<!-- Node1&#45;&gt;Node8 -->
<g id="edge7" class="edge">
<title>Node1&#45;&gt;Node8</title>
<path fill="none" stroke="midnightblue" d="M237.12,-106.19C221.14,-84.58 191.27,-48.6 157,-29 150.27,-25.15 142.77,-22.07 135.17,-19.62"/>
<polygon fill="midnightblue" stroke="midnightblue" points="234.41,-108.41 243.09,-114.48 240.09,-104.32 234.41,-108.41"/>
</g>
</g>
</svg>
