<?xml version="1.0" encoding="UTF-8" standalone="no"?>
<!DOCTYPE svg PUBLIC "-//W3C//DTD SVG 1.1//EN"
 "http://www.w3.org/Graphics/SVG/1.1/DTD/svg11.dtd">
<!-- Generated by graphviz version 2.43.0 (0)
 -->
<!-- Title: AsservEsialR::motion_ActivateReguDist Pages: 1 -->
<svg width="277pt" height="116pt"
 viewBox="0.00 0.00 277.00 115.50" xmlns="http://www.w3.org/2000/svg" xmlns:xlink="http://www.w3.org/1999/xlink">
<g id="graph0" class="graph" transform="scale(1 1) rotate(0) translate(4 111.5)">
<title>AsservEsialR::motion_ActivateReguDist</title>
<polygon fill="white" stroke="transparent" points="-4,4 -4,-111.5 273,-111.5 273,4 -4,4"/>
<!-- Node1 -->
<g id="node1" class="node">
<title>Node1</title>
<g id="a_node1"><a xlink:title="Active/desactive la regulation en distance.">
<polygon fill="#bfbfbf" stroke="black" points="0,-33 0,-63 120,-63 120,-33 0,-33"/>
<text text-anchor="start" x="8" y="-51" font-family="Helvetica,sans-Serif" font-size="10.00">AsservEsialR::motion</text>
<text text-anchor="middle" x="60" y="-40" font-family="Helvetica,sans-Serif" font-size="10.00">_ActivateReguDist</text>
</a>
</g>
</g>
<!-- Node2 -->
<g id="node2" class="node">
<title>Node2</title>
<g id="a_node2"><a xlink:href="classConsignController.html#a80d256dd7cb4b9c4fb9740b4f05ac5fa" target="_top" xlink:title=" ">
<polygon fill="white" stroke="black" points="157.5,-77 157.5,-107 267.5,-107 267.5,-77 157.5,-77"/>
<text text-anchor="start" x="165.5" y="-95" font-family="Helvetica,sans-Serif" font-size="10.00">ConsignController::</text>
<text text-anchor="middle" x="212.5" y="-84" font-family="Helvetica,sans-Serif" font-size="10.00">dist_Regu_On</text>
</a>
</g>
</g>
<!-- Node1&#45;&gt;Node2 -->
<g id="edge1" class="edge">
<title>Node1&#45;&gt;Node2</title>
<path fill="none" stroke="midnightblue" d="M112.37,-63.02C124.53,-66.57 137.62,-70.4 150.18,-74.07"/>
<polygon fill="midnightblue" stroke="midnightblue" points="149.52,-77.53 160.1,-76.97 151.49,-70.81 149.52,-77.53"/>
</g>
<!-- Node3 -->
<g id="node3" class="node">
<title>Node3</title>
<g id="a_node3"><a xlink:href="classutils_1_1Mutex.html#aa584b418a5ef484f76b93e361a1d7e32" target="_top" xlink:title="Verrouille le mutex. Cette méthode doit être appelée avant d&#39;utiliser la ressource associée....">
<polygon fill="white" stroke="black" points="162,-38.5 162,-57.5 263,-57.5 263,-38.5 162,-38.5"/>
<text text-anchor="middle" x="212.5" y="-45.5" font-family="Helvetica,sans-Serif" font-size="10.00">utils::Mutex::lock</text>
</a>
</g>
</g>
<!-- Node1&#45;&gt;Node3 -->
<g id="edge2" class="edge">
<title>Node1&#45;&gt;Node3</title>
<path fill="none" stroke="midnightblue" d="M120.05,-48C130.43,-48 141.23,-48 151.63,-48"/>
<polygon fill="midnightblue" stroke="midnightblue" points="151.86,-51.5 161.86,-48 151.86,-44.5 151.86,-51.5"/>
</g>
<!-- Node4 -->
<g id="node4" class="node">
<title>Node4</title>
<g id="a_node4"><a xlink:href="classutils_1_1Mutex.html#a59b2079dc7f803d49f78ac9c04406cd3" target="_top" xlink:title="Déverrouille le mutex. Cette méthode doit être appelée après avoir utiliser la ressource associée.">
<polygon fill="white" stroke="black" points="156,-0.5 156,-19.5 269,-19.5 269,-0.5 156,-0.5"/>
<text text-anchor="middle" x="212.5" y="-7.5" font-family="Helvetica,sans-Serif" font-size="10.00">utils::Mutex::unlock</text>
</a>
</g>
</g>
<!-- Node1&#45;&gt;Node4 -->
<g id="edge3" class="edge">
<title>Node1&#45;&gt;Node4</title>
<path fill="none" stroke="midnightblue" d="M120.05,-33.09C134.63,-29.41 150.06,-25.51 164.01,-21.99"/>
<polygon fill="midnightblue" stroke="midnightblue" points="165.03,-25.34 173.87,-19.5 163.32,-18.56 165.03,-25.34"/>
</g>
</g>
</svg>
