<?xml version="1.0" encoding="UTF-8" standalone="no"?>
<!DOCTYPE svg PUBLIC "-//W3C//DTD SVG 1.1//EN"
 "http://www.w3.org/Graphics/SVG/1.1/DTD/svg11.dtd">
<!-- Generated by graphviz version 2.43.0 (0)
 -->
<!-- Title: CCAx12Adc::logger Pages: 1 -->
<svg width="670pt" height="332pt"
 viewBox="0.00 0.00 670.00 332.00" xmlns="http://www.w3.org/2000/svg" xmlns:xlink="http://www.w3.org/1999/xlink">
<g id="graph0" class="graph" transform="scale(1 1) rotate(0) translate(4 328)">
<title>CCAx12Adc::logger</title>
<polygon fill="white" stroke="transparent" points="-4,4 -4,-328 666,-328 666,4 -4,4"/>
<!-- Node1 -->
<g id="node1" class="node">
<title>Node1</title>
<g id="a_node1"><a xlink:title="Retourne le Logger associé à la classe CCAx12Adc (OPOS6UL).">
<polygon fill="#bfbfbf" stroke="black" points="552,-190.5 552,-209.5 662,-209.5 662,-190.5 552,-190.5"/>
<text text-anchor="middle" x="607" y="-197.5" font-family="Helvetica,sans-Serif" font-size="10.00">CCAx12Adc::logger</text>
</a>
</g>
</g>
<!-- Node2 -->
<g id="node2" class="node">
<title>Node2</title>
<g id="a_node2"><a xlink:href="classCCAx12Adc.html#ad83f5d15bd8068ee822b2d5860f3f0f3" target="_top" xlink:title=" ">
<polygon fill="white" stroke="black" points="388,-285.5 388,-304.5 504,-304.5 504,-285.5 388,-285.5"/>
<text text-anchor="middle" x="446" y="-292.5" font-family="Helvetica,sans-Serif" font-size="10.00">CCAx12Adc::getADC</text>
</a>
</g>
</g>
<!-- Node1&#45;&gt;Node2 -->
<g id="edge1" class="edge">
<title>Node1&#45;&gt;Node2</title>
<path fill="none" stroke="midnightblue" d="M582.84,-215.21C564.81,-226.93 539.05,-243.37 516,-257 498.93,-267.09 479.06,-277.94 465.04,-285.46"/>
<polygon fill="midnightblue" stroke="midnightblue" points="585.05,-217.95 591.52,-209.56 581.23,-212.09 585.05,-217.95"/>
</g>
<!-- Node5 -->
<g id="node5" class="node">
<title>Node5</title>
<g id="a_node5"><a xlink:href="classCCAx12Adc.html#af95b4426fbb54ee143cbe5000d0ca5d8" target="_top" xlink:title=" ">
<polygon fill="white" stroke="black" points="377.5,-228.5 377.5,-247.5 514.5,-247.5 514.5,-228.5 377.5,-228.5"/>
<text text-anchor="middle" x="446" y="-235.5" font-family="Helvetica,sans-Serif" font-size="10.00">CCAx12Adc::readAXData</text>
</a>
</g>
</g>
<!-- Node1&#45;&gt;Node5 -->
<g id="edge4" class="edge">
<title>Node1&#45;&gt;Node5</title>
<path fill="none" stroke="midnightblue" d="M555.92,-211.97C533.64,-217.29 507.77,-223.48 486.83,-228.48"/>
<polygon fill="midnightblue" stroke="midnightblue" points="556.97,-215.32 565.88,-209.59 555.34,-208.51 556.97,-215.32"/>
</g>
<!-- Node9 -->
<g id="node9" class="node">
<title>Node9</title>
<g id="a_node9"><a xlink:href="classCCAx12Adc.html#af2c5e8ac33096b2316d35aad400e3585" target="_top" xlink:title=" ">
<polygon fill="white" stroke="black" points="383.5,-190.5 383.5,-209.5 508.5,-209.5 508.5,-190.5 383.5,-190.5"/>
<text text-anchor="middle" x="446" y="-197.5" font-family="Helvetica,sans-Serif" font-size="10.00">CCAx12Adc::setLedOff</text>
</a>
</g>
</g>
<!-- Node1&#45;&gt;Node9 -->
<g id="edge8" class="edge">
<title>Node1&#45;&gt;Node9</title>
<path fill="none" stroke="midnightblue" d="M541.49,-200C530.66,-200 519.44,-200 508.68,-200"/>
<polygon fill="midnightblue" stroke="midnightblue" points="541.73,-203.5 551.73,-200 541.73,-196.5 541.73,-203.5"/>
</g>
<!-- Node10 -->
<g id="node10" class="node">
<title>Node10</title>
<g id="a_node10"><a xlink:href="classCCAx12Adc.html#a85d21062dfabb83ba1851341464e4ceb" target="_top" xlink:title=" ">
<polygon fill="white" stroke="black" points="383.5,-152.5 383.5,-171.5 508.5,-171.5 508.5,-152.5 383.5,-152.5"/>
<text text-anchor="middle" x="446" y="-159.5" font-family="Helvetica,sans-Serif" font-size="10.00">CCAx12Adc::setLedOn</text>
</a>
</g>
</g>
<!-- Node1&#45;&gt;Node10 -->
<g id="edge9" class="edge">
<title>Node1&#45;&gt;Node10</title>
<path fill="none" stroke="midnightblue" d="M555.92,-188.03C533.64,-182.71 507.77,-176.52 486.83,-171.52"/>
<polygon fill="midnightblue" stroke="midnightblue" points="555.34,-191.49 565.88,-190.41 556.97,-184.68 555.34,-191.49"/>
</g>
<!-- Node11 -->
<g id="node11" class="node">
<title>Node11</title>
<g id="a_node11"><a xlink:href="classCCAx12Adc.html#a6a505e9a0944b62ec52f59a9ec8085fe" target="_top" xlink:title=" ">
<polygon fill="white" stroke="black" points="376,-95.5 376,-114.5 516,-114.5 516,-95.5 376,-95.5"/>
<text text-anchor="middle" x="446" y="-102.5" font-family="Helvetica,sans-Serif" font-size="10.00">CCAx12Adc::writeAXData</text>
</a>
</g>
</g>
<!-- Node1&#45;&gt;Node11 -->
<g id="edge10" class="edge">
<title>Node1&#45;&gt;Node11</title>
<path fill="none" stroke="midnightblue" d="M582.84,-184.79C564.81,-173.07 539.05,-156.63 516,-143 498.93,-132.91 479.06,-122.06 465.04,-114.54"/>
<polygon fill="midnightblue" stroke="midnightblue" points="581.23,-187.91 591.52,-190.44 585.05,-182.05 581.23,-187.91"/>
</g>
<!-- Node3 -->
<g id="node3" class="node">
<title>Node3</title>
<g id="a_node3"><a xlink:href="classIrSensor.html#ad96797601d8975a891996bb19ac7bea6" target="_top" xlink:title=" ">
<polygon fill="white" stroke="black" points="200.5,-304.5 200.5,-323.5 315.5,-323.5 315.5,-304.5 200.5,-304.5"/>
<text text-anchor="middle" x="258" y="-311.5" font-family="Helvetica,sans-Serif" font-size="10.00">IrSensor::getVoltage</text>
</a>
</g>
</g>
<!-- Node2&#45;&gt;Node3 -->
<g id="edge2" class="edge">
<title>Node2&#45;&gt;Node3</title>
<path fill="none" stroke="midnightblue" d="M377.78,-301.87C357.41,-303.95 335.25,-306.21 315.64,-308.21"/>
<polygon fill="midnightblue" stroke="midnightblue" points="378.34,-305.33 387.93,-300.83 377.63,-298.36 378.34,-305.33"/>
</g>
<!-- Node4 -->
<g id="node4" class="node">
<title>Node4</title>
<g id="a_node4"><a xlink:href="classIrSensor.html#a5c391d7b0c385a748d2441e56a624498" target="_top" xlink:title=" ">
<polygon fill="white" stroke="black" points="0,-304.5 0,-323.5 140,-323.5 140,-304.5 0,-304.5"/>
<text text-anchor="middle" x="70" y="-311.5" font-family="Helvetica,sans-Serif" font-size="10.00">IrSensor::getDistanceMm</text>
</a>
</g>
</g>
<!-- Node3&#45;&gt;Node4 -->
<g id="edge3" class="edge">
<title>Node3&#45;&gt;Node4</title>
<path fill="none" stroke="midnightblue" d="M190.43,-314C174.09,-314 156.55,-314 140.09,-314"/>
<polygon fill="midnightblue" stroke="midnightblue" points="190.44,-317.5 200.44,-314 190.44,-310.5 190.44,-317.5"/>
</g>
<!-- Node6 -->
<g id="node6" class="node">
<title>Node6</title>
<g id="a_node6"><a xlink:href="classDynamixelDriver.html#a142a774bb716628483fa010727b84cdb" target="_top" xlink:title="Verifie si le servo est en mouvement.">
<polygon fill="white" stroke="black" points="179.5,-266.5 179.5,-285.5 336.5,-285.5 336.5,-266.5 179.5,-266.5"/>
<text text-anchor="middle" x="258" y="-273.5" font-family="Helvetica,sans-Serif" font-size="10.00">DynamixelDriver::getMoving</text>
</a>
</g>
</g>
<!-- Node5&#45;&gt;Node6 -->
<g id="edge5" class="edge">
<title>Node5&#45;&gt;Node6</title>
<path fill="none" stroke="midnightblue" d="M388.17,-249.61C361.72,-255.01 330.64,-261.36 305.6,-266.48"/>
<polygon fill="midnightblue" stroke="midnightblue" points="388.97,-253.02 398.06,-247.59 387.57,-246.16 388.97,-253.02"/>
</g>
<!-- Node7 -->
<g id="node7" class="node">
<title>Node7</title>
<g id="a_node7"><a xlink:href="classDynamixelDriver.html#ae6a7d5cdcfd4bd372bf2a742b6ecaf4d" target="_top" xlink:title="Lit la position courante du servo.">
<polygon fill="white" stroke="black" points="176,-228.5 176,-247.5 340,-247.5 340,-228.5 176,-228.5"/>
<text text-anchor="middle" x="258" y="-235.5" font-family="Helvetica,sans-Serif" font-size="10.00">DynamixelDriver::getPulsePos</text>
</a>
</g>
</g>
<!-- Node5&#45;&gt;Node7 -->
<g id="edge6" class="edge">
<title>Node5&#45;&gt;Node7</title>
<path fill="none" stroke="midnightblue" d="M367.32,-238C358.37,-238 349.23,-238 340.23,-238"/>
<polygon fill="midnightblue" stroke="midnightblue" points="367.32,-241.5 377.32,-238 367.32,-234.5 367.32,-241.5"/>
</g>
<!-- Node8 -->
<g id="node8" class="node">
<title>Node8</title>
<g id="a_node8"><a xlink:href="classDynamixelDriver.html#a3f431b5c398e201834c7b018a726a7c3" target="_top" xlink:title="Lit le couple courant du servo.">
<polygon fill="white" stroke="black" points="181.5,-190.5 181.5,-209.5 334.5,-209.5 334.5,-190.5 181.5,-190.5"/>
<text text-anchor="middle" x="258" y="-197.5" font-family="Helvetica,sans-Serif" font-size="10.00">DynamixelDriver::getTorque</text>
</a>
</g>
</g>
<!-- Node5&#45;&gt;Node8 -->
<g id="edge7" class="edge">
<title>Node5&#45;&gt;Node8</title>
<path fill="none" stroke="midnightblue" d="M388.17,-226.39C361.72,-220.99 330.64,-214.64 305.6,-209.52"/>
<polygon fill="midnightblue" stroke="midnightblue" points="387.57,-229.84 398.06,-228.41 388.97,-222.98 387.57,-229.84"/>
</g>
<!-- Node12 -->
<g id="node12" class="node">
<title>Node12</title>
<g id="a_node12"><a xlink:href="classDynamixelDriver.html#a158a5d3216643efd306c036eac270752" target="_top" xlink:title="Maintient la position courante du servo (active le couple).">
<polygon fill="white" stroke="black" points="195,-152.5 195,-171.5 321,-171.5 321,-152.5 195,-152.5"/>
<text text-anchor="middle" x="258" y="-159.5" font-family="Helvetica,sans-Serif" font-size="10.00">DynamixelDriver::hold</text>
</a>
</g>
</g>
<!-- Node11&#45;&gt;Node12 -->
<g id="edge11" class="edge">
<title>Node11&#45;&gt;Node12</title>
<path fill="none" stroke="midnightblue" d="M411.58,-118.23C391.11,-126.04 364.27,-135.79 340,-143 328.37,-146.46 315.65,-149.69 303.81,-152.47"/>
<polygon fill="midnightblue" stroke="midnightblue" points="413.01,-121.43 421.08,-114.56 410.49,-114.9 413.01,-121.43"/>
</g>
<!-- Node13 -->
<g id="node13" class="node">
<title>Node13</title>
<g id="a_node13"><a xlink:href="classDynamixelDriver.html#a16fc2b6f82b30c98bab3d64079f16360" target="_top" xlink:title="Relache le servo (desactive le couple).">
<polygon fill="white" stroke="black" points="187.5,-114.5 187.5,-133.5 328.5,-133.5 328.5,-114.5 187.5,-114.5"/>
<text text-anchor="middle" x="258" y="-121.5" font-family="Helvetica,sans-Serif" font-size="10.00">DynamixelDriver::release</text>
</a>
</g>
</g>
<!-- Node11&#45;&gt;Node13 -->
<g id="edge12" class="edge">
<title>Node11&#45;&gt;Node13</title>
<path fill="none" stroke="midnightblue" d="M365.53,-113.12C353.26,-114.37 340.66,-115.66 328.63,-116.89"/>
<polygon fill="midnightblue" stroke="midnightblue" points="366.15,-116.57 375.74,-112.07 365.44,-109.61 366.15,-116.57"/>
</g>
<!-- Node14 -->
<g id="node14" class="node">
<title>Node14</title>
<g id="a_node14"><a xlink:href="classDynamixelDriver.html#ab9d0e9a3d8ef54d7bd1fee238bfb5278" target="_top" xlink:title=" ">
<polygon fill="white" stroke="black" points="176,-76.5 176,-95.5 340,-95.5 340,-76.5 176,-76.5"/>
<text text-anchor="middle" x="258" y="-83.5" font-family="Helvetica,sans-Serif" font-size="10.00">DynamixelDriver::setPulsePos</text>
</a>
</g>
</g>
<!-- Node11&#45;&gt;Node14 -->
<g id="edge13" class="edge">
<title>Node11&#45;&gt;Node14</title>
<path fill="none" stroke="midnightblue" d="M365.6,-96.89C357.2,-96.03 348.66,-95.16 340.24,-94.3"/>
<polygon fill="midnightblue" stroke="midnightblue" points="365.44,-100.39 375.74,-97.93 366.15,-93.43 365.44,-100.39"/>
</g>
<!-- Node15 -->
<g id="node15" class="node">
<title>Node15</title>
<g id="a_node15"><a xlink:href="classDynamixelDriver.html#a71ddbc9a7a468231b5334e95e9bd1eb3" target="_top" xlink:title=" ">
<polygon fill="white" stroke="black" points="186.5,-38.5 186.5,-57.5 329.5,-57.5 329.5,-38.5 186.5,-38.5"/>
<text text-anchor="middle" x="258" y="-45.5" font-family="Helvetica,sans-Serif" font-size="10.00">DynamixelDriver::setRate</text>
</a>
</g>
</g>
<!-- Node11&#45;&gt;Node15 -->
<g id="edge14" class="edge">
<title>Node11&#45;&gt;Node15</title>
<path fill="none" stroke="midnightblue" d="M411.58,-91.77C391.11,-83.96 364.27,-74.21 340,-67 328.37,-63.54 315.65,-60.31 303.81,-57.53"/>
<polygon fill="midnightblue" stroke="midnightblue" points="410.49,-95.1 421.08,-95.44 413.01,-88.57 410.49,-95.1"/>
</g>
<!-- Node16 -->
<g id="node16" class="node">
<title>Node16</title>
<g id="a_node16"><a xlink:href="classDynamixelDriver.html#a0dd50e159c075dc8e09a297501a5e23d" target="_top" xlink:title="Fait tourner le servo en mode moteur continu.">
<polygon fill="white" stroke="black" points="195.5,-0.5 195.5,-19.5 320.5,-19.5 320.5,-0.5 195.5,-0.5"/>
<text text-anchor="middle" x="258" y="-7.5" font-family="Helvetica,sans-Serif" font-size="10.00">DynamixelDriver::turn</text>
</a>
</g>
</g>
<!-- Node11&#45;&gt;Node16 -->
<g id="edge15" class="edge">
<title>Node11&#45;&gt;Node16</title>
<path fill="none" stroke="midnightblue" d="M427.25,-88.71C407.43,-71.38 373.67,-44.38 340,-29 331.59,-25.16 322.32,-22.05 313.15,-19.55"/>
<polygon fill="midnightblue" stroke="midnightblue" points="425.06,-91.44 434.86,-95.48 429.72,-86.22 425.06,-91.44"/>
</g>
</g>
</svg>
