<?xml version="1.0" encoding="UTF-8" standalone="no"?>
<!DOCTYPE svg PUBLIC "-//W3C//DTD SVG 1.1//EN"
 "http://www.w3.org/Graphics/SVG/1.1/DTD/svg11.dtd">
<!-- Generated by graphviz version 2.43.0 (0)
 -->
<!-- Title: utils::Thread::setState Pages: 1 -->
<!--zoomable 214 -->
<svg id="main" version="1.1" xmlns="http://www.w3.org/2000/svg" xmlns:xlink="http://www.w3.org/1999/xlink" xml:space="preserve" onload="init(evt)">
<style type="text/css"><![CDATA[
.edge:hover path { stroke: red; }
.edge:hover polygon { stroke: red; fill: red; }
]]></style>
<script type="text/javascript"><![CDATA[
var edges = document.getElementsByTagName('g');
if (edges && edges.length) {
  for (var i=0;i<edges.length;i++) {
    if (edges[i].id.substr(0,4)=='edge') {
      edges[i].setAttribute('class','edge');
    }
  }
}
]]></script>
        <defs>
                <circle id="rim" cx="0" cy="0" r="7"/>
                <circle id="rim2" cx="0" cy="0" r="3.5"/>
                <g id="zoomPlus">
                        <use xlink:href="#rim" fill="#404040">
                                <set attributeName="fill" to="#808080" begin="zoomplus.mouseover" end="zoomplus.mouseout"/>
                        </use>
                        <path d="M-4,0h8M0,-4v8" fill="none" stroke="white" stroke-width="1.5" pointer-events="none"/>
                </g>
                <g id="zoomMin">
                        <use xlink:href="#rim" fill="#404040">
                                <set attributeName="fill" to="#808080" begin="zoomminus.mouseover" end="zoomminus.mouseout"/>
                        </use>
                        <path d="M-4,0h8" fill="none" stroke="white" stroke-width="1.5" pointer-events="none"/>
                </g>
                <g id="dirArrow">
                        <path fill="none" stroke="white" stroke-width="1.5" d="M0,-3.0v7 M-2.5,-0.5L0,-3.0L2.5,-0.5"/>
                </g>
               <g id="resetDef">
                       <use xlink:href="#rim2" fill="#404040">
                               <set attributeName="fill" to="#808080" begin="reset.mouseover" end="reset.mouseout"/>
                       </use>
               </g>
        </defs>

<script type="text/javascript">
var viewWidth = 653;
var viewHeight = 214;
var sectionId = 'dynsection-22';
</script>
<script xlink:href="svgpan.js"/>
<svg id="graph" class="graph">
<g id="viewport">
<title>utils::Thread::setState</title>
<polygon fill="white" stroke="transparent" points="-4,4 -4,-210 649,-210 649,4 -4,4"/>
<!-- Node1 -->
<g id="node1" class="node">
<title>Node1</title>
<g id="a_node1"><a xlink:title="Modifie l&#39;état du thread (thread&#45;safe).">
<polygon fill="#bfbfbf" stroke="black" points="521,-93.5 521,-112.5 645,-112.5 645,-93.5 521,-93.5"/>
<text text-anchor="middle" x="583" y="-100.5" font-family="Helvetica,sans-Serif" font-size="10.00">utils::Thread::setState</text>
</a>
</g>
</g>
<!-- Node2 -->
<g id="node2" class="node">
<title>Node2</title>
<g id="a_node2"><a xlink:href="classutils_1_1Thread.html#a61b6c3d0b87570254646120b323b89f7" target="_top" xlink:title="Cette méthode sert de point d&#39;entrée pour l&#39;appel à pcreate_thread.">
<polygon fill="white" stroke="black" points="351,-93.5 351,-112.5 485,-112.5 485,-93.5 351,-93.5"/>
<text text-anchor="middle" x="418" y="-100.5" font-family="Helvetica,sans-Serif" font-size="10.00">utils::Thread::entryPoint</text>
</a>
</g>
</g>
<!-- Node1&#45;&gt;Node2 -->
<g id="edge1" class="edge">
<title>Node1&#45;&gt;Node2</title>
<path fill="none" stroke="midnightblue" d="M510.61,-103C502.15,-103 493.53,-103 485.14,-103"/>
<polygon fill="midnightblue" stroke="midnightblue" points="510.84,-106.5 520.84,-103 510.84,-99.5 510.84,-106.5"/>
</g>
<!-- Node3 -->
<g id="node3" class="node">
<title>Node3</title>
<g id="a_node3"><a xlink:href="classutils_1_1Thread.html#a430ee2b8962147b587157fac97932219" target="_top" xlink:title="Lance le thread.">
<polygon fill="white" stroke="black" points="209,-93.5 209,-112.5 315,-112.5 315,-93.5 209,-93.5"/>
<text text-anchor="middle" x="262" y="-100.5" font-family="Helvetica,sans-Serif" font-size="10.00">utils::Thread::start</text>
</a>
</g>
</g>
<!-- Node2&#45;&gt;Node3 -->
<g id="edge2" class="edge">
<title>Node2&#45;&gt;Node3</title>
<path fill="none" stroke="midnightblue" d="M340.7,-103C332.07,-103 323.42,-103 315.2,-103"/>
<polygon fill="midnightblue" stroke="midnightblue" points="340.8,-106.5 350.8,-103 340.8,-99.5 340.8,-106.5"/>
</g>
<!-- Node4 -->
<g id="node4" class="node">
<title>Node4</title>
<g id="a_node4"><a xlink:href="classtest_1_1ThreadTest.html#a3ab4926fa019981bd51a7464be5cf4be" target="_top" xlink:title="Vérifie que cancel() arrête un thread en cours.">
<polygon fill="white" stroke="black" points="10.5,-186.5 10.5,-205.5 162.5,-205.5 162.5,-186.5 10.5,-186.5"/>
<text text-anchor="middle" x="86.5" y="-193.5" font-family="Helvetica,sans-Serif" font-size="10.00">test::ThreadTest::testCancel</text>
</a>
</g>
</g>
<!-- Node3&#45;&gt;Node4 -->
<g id="edge3" class="edge">
<title>Node3&#45;&gt;Node4</title>
<path fill="none" stroke="midnightblue" d="M245.45,-120.22C229.09,-137.26 201.76,-162.79 173,-177 165.09,-180.91 156.38,-184.02 147.63,-186.5"/>
<polygon fill="midnightblue" stroke="midnightblue" points="248.28,-122.32 252.56,-112.63 243.17,-117.53 248.28,-122.32"/>
</g>
<!-- Node5 -->
<g id="node5" class="node">
<title>Node5</title>
<g id="a_node5"><a xlink:href="classtest_1_1ThreadTest.html#a73ccd5f8b000f4af46063730ebe33bc1" target="_top" xlink:title="Vérifie que plusieurs threads concurrents avec Mutex produisent un résultat cohérent.">
<polygon fill="white" stroke="black" points="0,-137 0,-167 173,-167 173,-137 0,-137"/>
<text text-anchor="start" x="8" y="-155" font-family="Helvetica,sans-Serif" font-size="10.00">test::ThreadTest::testConcurrent</text>
<text text-anchor="middle" x="86.5" y="-144" font-family="Helvetica,sans-Serif" font-size="10.00">Mutex</text>
</a>
</g>
</g>
<!-- Node3&#45;&gt;Node5 -->
<g id="edge4" class="edge">
<title>Node3&#45;&gt;Node5</title>
<path fill="none" stroke="midnightblue" d="M217.57,-115.37C203.37,-119.4 187.51,-123.9 173,-128 162.76,-130.89 151.83,-133.97 141.33,-136.92"/>
<polygon fill="midnightblue" stroke="midnightblue" points="218.92,-118.62 227.58,-112.52 217,-111.89 218.92,-118.62"/>
</g>
<!-- Node6 -->
<g id="node6" class="node">
<title>Node6</title>
<g id="a_node6"><a xlink:href="classtest_1_1ThreadTest.html#ac1c7afb471f89d1d6bd338a270e05912" target="_top" xlink:title="Vérifie que le nom et l&#39;ID du thread sont correctement assignés.">
<polygon fill="white" stroke="black" points="12,-88 12,-118 161,-118 161,-88 12,-88"/>
<text text-anchor="start" x="20" y="-106" font-family="Helvetica,sans-Serif" font-size="10.00">test::ThreadTest::testName</text>
<text text-anchor="middle" x="86.5" y="-95" font-family="Helvetica,sans-Serif" font-size="10.00">AndId</text>
</a>
</g>
</g>
<!-- Node3&#45;&gt;Node6 -->
<g id="edge5" class="edge">
<title>Node3&#45;&gt;Node6</title>
<path fill="none" stroke="midnightblue" d="M198.84,-103C186.58,-103 173.6,-103 161.01,-103"/>
<polygon fill="midnightblue" stroke="midnightblue" points="198.94,-106.5 208.94,-103 198.94,-99.5 198.94,-106.5"/>
</g>
<!-- Node7 -->
<g id="node7" class="node">
<title>Node7</title>
<g id="a_node7"><a xlink:href="classtest_1_1ThreadTest.html#ab50f7c14a8011c9e19f2631835bbbe46" target="_top" xlink:title="Vérifie le démarrage, l&#39;exécution et l&#39;attente de fin d&#39;un thread.">
<polygon fill="white" stroke="black" points="15,-39 15,-69 158,-69 158,-39 15,-39"/>
<text text-anchor="start" x="23" y="-57" font-family="Helvetica,sans-Serif" font-size="10.00">test::ThreadTest::testStart</text>
<text text-anchor="middle" x="86.5" y="-46" font-family="Helvetica,sans-Serif" font-size="10.00">AndWait</text>
</a>
</g>
</g>
<!-- Node3&#45;&gt;Node7 -->
<g id="edge6" class="edge">
<title>Node3&#45;&gt;Node7</title>
<path fill="none" stroke="midnightblue" d="M217.22,-90.63C193.98,-84.07 165.26,-75.96 140.74,-69.04"/>
<polygon fill="midnightblue" stroke="midnightblue" points="216.56,-94.09 227.14,-93.44 218.46,-87.35 216.56,-94.09"/>
</g>
<!-- Node8 -->
<g id="node8" class="node">
<title>Node8</title>
<g id="a_node8"><a xlink:href="classtest_1_1ThreadTest.html#a6c8d29fa04a545a3c602c220804e8fb5" target="_top" xlink:title="Vérifie les transitions d&#39;état CREATED → STARTED → STOPPED.">
<polygon fill="white" stroke="black" points="14,-0.5 14,-19.5 159,-19.5 159,-0.5 14,-0.5"/>
<text text-anchor="middle" x="86.5" y="-7.5" font-family="Helvetica,sans-Serif" font-size="10.00">test::ThreadTest::testState</text>
</a>
</g>
</g>
<!-- Node3&#45;&gt;Node8 -->
<g id="edge7" class="edge">
<title>Node3&#45;&gt;Node8</title>
<path fill="none" stroke="midnightblue" d="M245.11,-85.82C228.65,-69.07 201.42,-44.12 173,-30 164.26,-25.66 154.55,-22.24 144.9,-19.55"/>
<polygon fill="midnightblue" stroke="midnightblue" points="242.83,-88.5 252.28,-93.3 247.88,-83.65 242.83,-88.5"/>
</g>
</g>
</svg>
        <g id="navigator" transform="translate(0 0)" fill="#404254">
                <rect fill="#f2f5e9" fill-opacity="0.5" stroke="#606060" stroke-width=".5" x="0" y="0" width="60" height="60"/>
                <use id="zoomplus" xlink:href="#zoomPlus" x="17" y="9" onmousedown="handleZoom(evt,'in')"/>
                <use id="zoomminus" xlink:href="#zoomMin" x="42" y="9" onmousedown="handleZoom(evt,'out')"/>
                <use id="reset" xlink:href="#resetDef" x="30" y="36" onmousedown="handleReset()"/>
                <g id="arrowUp" xlink:href="#dirArrow" transform="translate(30 24)" onmousedown="handlePan(0,-1)">
                  <use xlink:href="#rim" fill="#404040">
                        <set attributeName="fill" to="#808080" begin="arrowUp.mouseover" end="arrowUp.mouseout"/>
                  </use>
                  <path fill="none" stroke="white" stroke-width="1.5" d="M0,-3.0v7 M-2.5,-0.5L0,-3.0L2.5,-0.5"/>
                </g>
                <g id="arrowRight" xlink:href="#dirArrow" transform="rotate(90) translate(36 -43)" onmousedown="handlePan(1,0)">
                  <use xlink:href="#rim" fill="#404040">
                        <set attributeName="fill" to="#808080" begin="arrowRight.mouseover" end="arrowRight.mouseout"/>
                  </use>
                  <path fill="none" stroke="white" stroke-width="1.5" d="M0,-3.0v7 M-2.5,-0.5L0,-3.0L2.5,-0.5"/>
                </g>
                <g id="arrowDown" xlink:href="#dirArrow" transform="rotate(180) translate(-30 -48)" onmousedown="handlePan(0,1)">
                  <use xlink:href="#rim" fill="#404040">
                        <set attributeName="fill" to="#808080" begin="arrowDown.mouseover" end="arrowDown.mouseout"/>
                  </use>
                  <path fill="none" stroke="white" stroke-width="1.5" d="M0,-3.0v7 M-2.5,-0.5L0,-3.0L2.5,-0.5"/>
                </g>
                <g id="arrowLeft" xlink:href="#dirArrow" transform="rotate(270) translate(-36 17)" onmousedown="handlePan(-1,0)">
                  <use xlink:href="#rim" fill="#404040">
                        <set attributeName="fill" to="#808080" begin="arrowLeft.mouseover" end="arrowLeft.mouseout"/>
                  </use>
                  <path fill="none" stroke="white" stroke-width="1.5" d="M0,-3.0v7 M-2.5,-0.5L0,-3.0L2.5,-0.5"/>
                </g>
        </g>
        <svg viewBox="0 0 15 15" width="100%" height="30px" preserveAspectRatio="xMaxYMin meet">
         <g id="arrow_out" transform="scale(0.3 0.3)">
          <a xlink:href="classutils_1_1Thread_a46589324e8fc0735c20268db70d34aa5_icgraph_org.svg" target="_base">
           <rect id="button" ry="5" rx="5" y="6" x="6" height="38" width="38"
                fill="#f2f5e9" fill-opacity="0.5" stroke="#606060" stroke-width="1.0"/>
           <path id="arrow"
             d="M 11.500037,31.436501 C 11.940474,20.09759 22.043105,11.32322 32.158766,21.979434 L 37.068811,17.246167 C 37.068811,17.246167 37.088388,32 37.088388,32 L 22.160133,31.978069 C 22.160133,31.978069 26.997745,27.140456 26.997745,27.140456 C 18.528582,18.264221 13.291696,25.230495 11.500037,31.436501 z"
             style="fill:#404040;"/>
          </a>
         </g>
        </svg>
</svg>
