<?xml version="1.0" encoding="UTF-8" standalone="no"?>
<!DOCTYPE svg PUBLIC "-//W3C//DTD SVG 1.1//EN"
 "http://www.w3.org/Graphics/SVG/1.1/DTD/svg11.dtd">
<!-- Generated by graphviz version 2.43.0 (0)
 -->
<!-- Title: Print::print Pages: 1 -->
<!--zoomable 344 -->
<svg id="main" version="1.1" xmlns="http://www.w3.org/2000/svg" xmlns:xlink="http://www.w3.org/1999/xlink" xml:space="preserve" onload="init(evt)">
<style type="text/css"><![CDATA[
.edge:hover path { stroke: red; }
.edge:hover polygon { stroke: red; fill: red; }
]]></style>
<script type="text/javascript"><![CDATA[
var edges = document.getElementsByTagName('g');
if (edges && edges.length) {
  for (var i=0;i<edges.length;i++) {
    if (edges[i].id.substr(0,4)=='edge') {
      edges[i].setAttribute('class','edge');
    }
  }
}
]]></script>
        <defs>
                <circle id="rim" cx="0" cy="0" r="7"/>
                <circle id="rim2" cx="0" cy="0" r="3.5"/>
                <g id="zoomPlus">
                        <use xlink:href="#rim" fill="#404040">
                                <set attributeName="fill" to="#808080" begin="zoomplus.mouseover" end="zoomplus.mouseout"/>
                        </use>
                        <path d="M-4,0h8M0,-4v8" fill="none" stroke="white" stroke-width="1.5" pointer-events="none"/>
                </g>
                <g id="zoomMin">
                        <use xlink:href="#rim" fill="#404040">
                                <set attributeName="fill" to="#808080" begin="zoomminus.mouseover" end="zoomminus.mouseout"/>
                        </use>
                        <path d="M-4,0h8" fill="none" stroke="white" stroke-width="1.5" pointer-events="none"/>
                </g>
                <g id="dirArrow">
                        <path fill="none" stroke="white" stroke-width="1.5" d="M0,-3.0v7 M-2.5,-0.5L0,-3.0L2.5,-0.5"/>
                </g>
               <g id="resetDef">
                       <use xlink:href="#rim2" fill="#404040">
                               <set attributeName="fill" to="#808080" begin="reset.mouseover" end="reset.mouseout"/>
                       </use>
               </g>
        </defs>

<script type="text/javascript">
var viewWidth = 587;
var viewHeight = 344;
var sectionId = 'dynsection-18';
</script>
<script xlink:href="svgpan.js"/>
<svg id="graph" class="graph">
<g id="viewport">
<title>Print::print</title>
<polygon fill="white" stroke="transparent" points="-4,4 -4,-339.5 583,-339.5 583,4 -4,4"/>
<!-- Node1 -->
<g id="node1" class="node">
<title>Node1</title>
<g id="a_node1"><a xlink:title=" ">
<polygon fill="#bfbfbf" stroke="black" points="511,-152.5 511,-171.5 579,-171.5 579,-152.5 511,-152.5"/>
<text text-anchor="middle" x="545" y="-159.5" font-family="Helvetica,sans-Serif" font-size="10.00">Print::print</text>
</a>
</g>
</g>
<!-- Node2 -->
<g id="node2" class="node">
<title>Node2</title>
<g id="a_node2"><a xlink:href="classOPOS6UL__RobotExtended.html#a73821b0ec83f0ebcdccf8c9e999616a0" target="_top" xlink:title="Affiche les points accumulés pendant le match.">
<polygon fill="white" stroke="black" points="333,-305 333,-335 475,-335 475,-305 333,-305"/>
<text text-anchor="start" x="341" y="-323" font-family="Helvetica,sans-Serif" font-size="10.00">OPOS6UL_RobotExtended</text>
<text text-anchor="middle" x="404" y="-312" font-family="Helvetica,sans-Serif" font-size="10.00">::displayPoints</text>
</a>
</g>
</g>
<!-- Node1&#45;&gt;Node2 -->
<g id="edge1" class="edge">
<title>Node1&#45;&gt;Node2</title>
<path fill="none" stroke="midnightblue" d="M538.11,-181.4C528.85,-208.96 508.39,-259.47 475,-290 468.46,-295.98 460.55,-300.88 452.43,-304.86"/>
<polygon fill="midnightblue" stroke="midnightblue" points="541.49,-182.33 541.22,-171.74 534.82,-180.19 541.49,-182.33"/>
</g>
<!-- Node3 -->
<g id="node3" class="node">
<title>Node3</title>
<g id="a_node3"><a xlink:href="classO__State__Init.html#abc19788b7457d1f819245dd28367fe91" target="_top" xlink:title="Exécute l&#39;état d&#39;initialisation.">
<polygon fill="white" stroke="black" points="0,-228.5 0,-247.5 120,-247.5 120,-228.5 0,-228.5"/>
<text text-anchor="middle" x="60" y="-235.5" font-family="Helvetica,sans-Serif" font-size="10.00">O_State_Init::execute</text>
</a>
</g>
</g>
<!-- Node1&#45;&gt;Node3 -->
<g id="edge4" class="edge">
<title>Node1&#45;&gt;Node3</title>
<path fill="none" stroke="midnightblue" d="M528.82,-179.62C516.01,-193.11 496.37,-210.76 475,-219 355.85,-264.96 202.9,-256.32 120.3,-246.7"/>
<polygon fill="midnightblue" stroke="midnightblue" points="531.73,-181.63 535.87,-171.88 526.55,-176.91 531.73,-181.63"/>
</g>
<!-- Node4 -->
<g id="node4" class="node">
<title>Node4</title>
<g id="a_node4"><a xlink:href="classO__State__WaitEndOfMatch.html#aa73613440b37c8dd42181e2e0265ae86" target="_top" xlink:title="Exécute l&#39;état d&#39;attente de fin de match.">
<polygon fill="white" stroke="black" points="156,-267 156,-297 297,-297 297,-267 156,-267"/>
<text text-anchor="start" x="164" y="-285" font-family="Helvetica,sans-Serif" font-size="10.00">O_State_WaitEndOfMatch</text>
<text text-anchor="middle" x="226.5" y="-274" font-family="Helvetica,sans-Serif" font-size="10.00">::execute</text>
</a>
</g>
</g>
<!-- Node1&#45;&gt;Node4 -->
<g id="edge5" class="edge">
<title>Node1&#45;&gt;Node4</title>
<path fill="none" stroke="midnightblue" d="M535.39,-180.65C524.55,-201.83 503.78,-235.57 475,-252 420.87,-282.9 349.33,-288.53 297.08,-287.54"/>
<polygon fill="midnightblue" stroke="midnightblue" points="538.55,-182.17 539.79,-171.65 532.26,-179.1 538.55,-182.17"/>
</g>
<!-- Node5 -->
<g id="node5" class="node">
<title>Node5</title>
<g id="a_node5"><a xlink:href="classPrint.html#a97bd44df9222fa4a51a1266fab8d3bc1" target="_top" xlink:title=" ">
<polygon fill="white" stroke="black" points="370,-190.5 370,-209.5 438,-209.5 438,-190.5 370,-190.5"/>
<text text-anchor="middle" x="404" y="-197.5" font-family="Helvetica,sans-Serif" font-size="10.00">Print::print</text>
</a>
</g>
</g>
<!-- Node1&#45;&gt;Node5 -->
<g id="edge6" class="edge">
<title>Node1&#45;&gt;Node5</title>
<path fill="none" stroke="midnightblue" d="M500.84,-173.91C492.28,-176.27 483.36,-178.72 475,-181 462.97,-184.29 449.78,-187.87 438.12,-191.04"/>
<polygon fill="midnightblue" stroke="midnightblue" points="501.95,-177.23 510.67,-171.21 500.1,-170.49 501.95,-177.23"/>
</g>
<!-- Node6 -->
<g id="node6" class="node">
<title>Node6</title>
<g id="a_node6"><a xlink:href="classPrint.html#a449fd5f2ab1fb43c3e3b10f53d18b1e8" target="_top" xlink:title=" ">
<polygon fill="white" stroke="black" points="358,-152.5 358,-171.5 450,-171.5 450,-152.5 358,-152.5"/>
<text text-anchor="middle" x="404" y="-159.5" font-family="Helvetica,sans-Serif" font-size="10.00">Print::printFloat</text>
</a>
</g>
</g>
<!-- Node1&#45;&gt;Node6 -->
<g id="edge7" class="edge">
<title>Node1&#45;&gt;Node6</title>
<path fill="none" stroke="midnightblue" d="M500.52,-162C484.49,-162 466.29,-162 450.11,-162"/>
<polygon fill="midnightblue" stroke="midnightblue" points="500.71,-165.5 510.71,-162 500.71,-158.5 500.71,-165.5"/>
</g>
<!-- Node8 -->
<g id="node8" class="node">
<title>Node8</title>
<g id="a_node8"><a xlink:href="classPrint.html#a4fd286b325d3b1a786cfa35072a8ef52" target="_top" xlink:title=" ">
<polygon fill="white" stroke="black" points="365.5,-114.5 365.5,-133.5 442.5,-133.5 442.5,-114.5 365.5,-114.5"/>
<text text-anchor="middle" x="404" y="-121.5" font-family="Helvetica,sans-Serif" font-size="10.00">Print::println</text>
</a>
</g>
</g>
<!-- Node1&#45;&gt;Node8 -->
<g id="edge9" class="edge">
<title>Node1&#45;&gt;Node8</title>
<path fill="none" stroke="midnightblue" d="M500.84,-150.09C492.28,-147.73 483.36,-145.28 475,-143 463.7,-139.91 451.38,-136.56 440.26,-133.54"/>
<polygon fill="midnightblue" stroke="midnightblue" points="500.1,-153.51 510.67,-152.79 501.95,-146.77 500.1,-153.51"/>
</g>
<!-- Node9 -->
<g id="node9" class="node">
<title>Node9</title>
<g id="a_node9"><a xlink:href="classO__State__Init.html#a1980cd82dcb83e88d61f2e7e14dddfa0" target="_top" xlink:title=" ">
<polygon fill="white" stroke="black" points="169.5,-114.5 169.5,-133.5 283.5,-133.5 283.5,-114.5 169.5,-114.5"/>
<text text-anchor="middle" x="226.5" y="-121.5" font-family="Helvetica,sans-Serif" font-size="10.00">O_State_Init::setPos</text>
</a>
</g>
</g>
<!-- Node1&#45;&gt;Node9 -->
<g id="edge14" class="edge">
<title>Node1&#45;&gt;Node9</title>
<path fill="none" stroke="midnightblue" d="M529.35,-144.57C516.6,-130.87 496.79,-112.84 475,-105 399.57,-77.87 303.1,-100.2 255.98,-114.43"/>
<polygon fill="midnightblue" stroke="midnightblue" points="527.06,-147.27 536.33,-152.41 532.29,-142.62 527.06,-147.27"/>
</g>
<!-- Node10 -->
<g id="node10" class="node">
<title>Node10</title>
<g id="a_node10"><a xlink:href="classO__LcdBoardTest.html#a5fe507797dd1ee404d3fd4a0fd6b7885" target="_top" xlink:title="Execute le test.">
<polygon fill="white" stroke="black" points="346,-38.5 346,-57.5 462,-57.5 462,-38.5 346,-38.5"/>
<text text-anchor="middle" x="404" y="-45.5" font-family="Helvetica,sans-Serif" font-size="10.00">O_LcdBoardTest::run</text>
</a>
</g>
</g>
<!-- Node1&#45;&gt;Node10 -->
<g id="edge12" class="edge">
<title>Node1&#45;&gt;Node10</title>
<path fill="none" stroke="midnightblue" d="M534.22,-143.47C522.63,-123.21 501.51,-91.07 475,-72 466.34,-65.77 455.94,-61.06 445.84,-57.54"/>
<polygon fill="midnightblue" stroke="midnightblue" points="531.23,-145.3 539.13,-152.36 537.36,-141.92 531.23,-145.3"/>
</g>
<!-- Node11 -->
<g id="node11" class="node">
<title>Node11</title>
<g id="a_node11"><a xlink:href="classO__ServoStepTest.html#aefbe5c17504e0782e71a6ca13ed40518" target="_top" xlink:title="Execute le test.">
<polygon fill="white" stroke="black" points="344,-0.5 344,-19.5 464,-19.5 464,-0.5 344,-0.5"/>
<text text-anchor="middle" x="404" y="-7.5" font-family="Helvetica,sans-Serif" font-size="10.00">O_ServoStepTest::run</text>
</a>
</g>
</g>
<!-- Node1&#45;&gt;Node11 -->
<g id="edge13" class="edge">
<title>Node1&#45;&gt;Node11</title>
<path fill="none" stroke="midnightblue" d="M539.25,-142.43C531.13,-113.27 511.81,-58.68 475,-29 470.2,-25.13 464.67,-22.04 458.87,-19.58"/>
<polygon fill="midnightblue" stroke="midnightblue" points="535.9,-143.47 541.82,-152.25 542.67,-141.69 535.9,-143.47"/>
</g>
<!-- Node2&#45;&gt;Node3 -->
<g id="edge2" class="edge">
<title>Node2&#45;&gt;Node3</title>
<path fill="none" stroke="midnightblue" d="M322.8,-327.13C273.35,-328.78 209.4,-325.91 156,-307 120.07,-294.27 85.94,-263.32 70.15,-247.56"/>
<polygon fill="midnightblue" stroke="midnightblue" points="322.95,-330.62 332.8,-326.72 322.67,-323.63 322.95,-330.62"/>
</g>
<!-- Node2&#45;&gt;Node4 -->
<g id="edge3" class="edge">
<title>Node2&#45;&gt;Node4</title>
<path fill="none" stroke="midnightblue" d="M323.65,-302.82C314.73,-300.89 305.71,-298.93 296.93,-297.03"/>
<polygon fill="midnightblue" stroke="midnightblue" points="323.12,-306.29 333.64,-304.98 324.6,-299.44 323.12,-306.29"/>
</g>
<!-- Node7 -->
<g id="node7" class="node">
<title>Node7</title>
<g id="a_node7"><a xlink:href="classPrint.html#ae8b4c025786c820afe0a90aeea01c9c5" target="_top" xlink:title=" ">
<polygon fill="white" stroke="black" points="192.5,-152.5 192.5,-171.5 260.5,-171.5 260.5,-152.5 192.5,-152.5"/>
<text text-anchor="middle" x="226.5" y="-159.5" font-family="Helvetica,sans-Serif" font-size="10.00">Print::print</text>
</a>
</g>
</g>
<!-- Node6&#45;&gt;Node7 -->
<g id="edge8" class="edge">
<title>Node6&#45;&gt;Node7</title>
<path fill="none" stroke="midnightblue" d="M347.55,-162C318.97,-162 285.09,-162 260.62,-162"/>
<polygon fill="midnightblue" stroke="midnightblue" points="347.8,-165.5 357.8,-162 347.8,-158.5 347.8,-165.5"/>
</g>
<!-- Node8&#45;&gt;Node9 -->
<g id="edge10" class="edge">
<title>Node8&#45;&gt;Node9</title>
<path fill="none" stroke="midnightblue" d="M355.22,-124C333.15,-124 306.79,-124 283.76,-124"/>
<polygon fill="midnightblue" stroke="midnightblue" points="355.35,-127.5 365.35,-124 355.35,-120.5 355.35,-127.5"/>
</g>
<!-- Node9&#45;&gt;Node3 -->
<g id="edge11" class="edge">
<title>Node9&#45;&gt;Node3</title>
<path fill="none" stroke="midnightblue" d="M167.76,-137.22C163.68,-138.93 159.71,-140.84 156,-143 116.67,-165.84 82.14,-209.01 67.91,-228.28"/>
<polygon fill="midnightblue" stroke="midnightblue" points="169.3,-140.38 177.44,-133.61 166.85,-133.82 169.3,-140.38"/>
</g>
</g>
</svg>
        <g id="navigator" transform="translate(0 0)" fill="#404254">
                <rect fill="#f2f5e9" fill-opacity="0.5" stroke="#606060" stroke-width=".5" x="0" y="0" width="60" height="60"/>
                <use id="zoomplus" xlink:href="#zoomPlus" x="17" y="9" onmousedown="handleZoom(evt,'in')"/>
                <use id="zoomminus" xlink:href="#zoomMin" x="42" y="9" onmousedown="handleZoom(evt,'out')"/>
                <use id="reset" xlink:href="#resetDef" x="30" y="36" onmousedown="handleReset()"/>
                <g id="arrowUp" xlink:href="#dirArrow" transform="translate(30 24)" onmousedown="handlePan(0,-1)">
                  <use xlink:href="#rim" fill="#404040">
                        <set attributeName="fill" to="#808080" begin="arrowUp.mouseover" end="arrowUp.mouseout"/>
                  </use>
                  <path fill="none" stroke="white" stroke-width="1.5" d="M0,-3.0v7 M-2.5,-0.5L0,-3.0L2.5,-0.5"/>
                </g>
                <g id="arrowRight" xlink:href="#dirArrow" transform="rotate(90) translate(36 -43)" onmousedown="handlePan(1,0)">
                  <use xlink:href="#rim" fill="#404040">
                        <set attributeName="fill" to="#808080" begin="arrowRight.mouseover" end="arrowRight.mouseout"/>
                  </use>
                  <path fill="none" stroke="white" stroke-width="1.5" d="M0,-3.0v7 M-2.5,-0.5L0,-3.0L2.5,-0.5"/>
                </g>
                <g id="arrowDown" xlink:href="#dirArrow" transform="rotate(180) translate(-30 -48)" onmousedown="handlePan(0,1)">
                  <use xlink:href="#rim" fill="#404040">
                        <set attributeName="fill" to="#808080" begin="arrowDown.mouseover" end="arrowDown.mouseout"/>
                  </use>
                  <path fill="none" stroke="white" stroke-width="1.5" d="M0,-3.0v7 M-2.5,-0.5L0,-3.0L2.5,-0.5"/>
                </g>
                <g id="arrowLeft" xlink:href="#dirArrow" transform="rotate(270) translate(-36 17)" onmousedown="handlePan(-1,0)">
                  <use xlink:href="#rim" fill="#404040">
                        <set attributeName="fill" to="#808080" begin="arrowLeft.mouseover" end="arrowLeft.mouseout"/>
                  </use>
                  <path fill="none" stroke="white" stroke-width="1.5" d="M0,-3.0v7 M-2.5,-0.5L0,-3.0L2.5,-0.5"/>
                </g>
        </g>
        <svg viewBox="0 0 15 15" width="100%" height="30px" preserveAspectRatio="xMaxYMin meet">
         <g id="arrow_out" transform="scale(0.3 0.3)">
          <a xlink:href="classPrint_aa4158dd94bc1741f92d99c427261d7c0_icgraph_org.svg" target="_base">
           <rect id="button" ry="5" rx="5" y="6" x="6" height="38" width="38"
                fill="#f2f5e9" fill-opacity="0.5" stroke="#606060" stroke-width="1.0"/>
           <path id="arrow"
             d="M 11.500037,31.436501 C 11.940474,20.09759 22.043105,11.32322 32.158766,21.979434 L 37.068811,17.246167 C 37.068811,17.246167 37.088388,32 37.088388,32 L 22.160133,31.978069 C 22.160133,31.978069 26.997745,27.140456 26.997745,27.140456 C 18.528582,18.264221 13.291696,25.230495 11.500037,31.436501 z"
             style="fill:#404040;"/>
          </a>
         </g>
        </svg>
</svg>
