<?xml version="1.0" encoding="UTF-8" standalone="no"?>
<!DOCTYPE svg PUBLIC "-//W3C//DTD SVG 1.1//EN"
 "http://www.w3.org/Graphics/SVG/1.1/DTD/svg11.dtd">
<!-- Generated by graphviz version 2.43.0 (0)
 -->
<!-- Title: Regulateur::getAccumulateur Pages: 1 -->
<!--zoomable 352 -->
<svg id="main" version="1.1" xmlns="http://www.w3.org/2000/svg" xmlns:xlink="http://www.w3.org/1999/xlink" xml:space="preserve" onload="init(evt)">
<style type="text/css"><![CDATA[
.edge:hover path { stroke: red; }
.edge:hover polygon { stroke: red; fill: red; }
]]></style>
<script type="text/javascript"><![CDATA[
var edges = document.getElementsByTagName('g');
if (edges && edges.length) {
  for (var i=0;i<edges.length;i++) {
    if (edges[i].id.substr(0,4)=='edge') {
      edges[i].setAttribute('class','edge');
    }
  }
}
]]></script>
        <defs>
                <circle id="rim" cx="0" cy="0" r="7"/>
                <circle id="rim2" cx="0" cy="0" r="3.5"/>
                <g id="zoomPlus">
                        <use xlink:href="#rim" fill="#404040">
                                <set attributeName="fill" to="#808080" begin="zoomplus.mouseover" end="zoomplus.mouseout"/>
                        </use>
                        <path d="M-4,0h8M0,-4v8" fill="none" stroke="white" stroke-width="1.5" pointer-events="none"/>
                </g>
                <g id="zoomMin">
                        <use xlink:href="#rim" fill="#404040">
                                <set attributeName="fill" to="#808080" begin="zoomminus.mouseover" end="zoomminus.mouseout"/>
                        </use>
                        <path d="M-4,0h8" fill="none" stroke="white" stroke-width="1.5" pointer-events="none"/>
                </g>
                <g id="dirArrow">
                        <path fill="none" stroke="white" stroke-width="1.5" d="M0,-3.0v7 M-2.5,-0.5L0,-3.0L2.5,-0.5"/>
                </g>
               <g id="resetDef">
                       <use xlink:href="#rim2" fill="#404040">
                               <set attributeName="fill" to="#808080" begin="reset.mouseover" end="reset.mouseout"/>
                       </use>
               </g>
        </defs>

<script type="text/javascript">
var viewWidth = 1314;
var viewHeight = 352;
var sectionId = 'dynsection-1';
</script>
<script xlink:href="svgpan.js"/>
<svg id="graph" class="graph">
<g id="viewport">
<title>Regulateur::getAccumulateur</title>
<polygon fill="white" stroke="transparent" points="-4,4 -4,-347.74 1310,-347.74 1310,4 -4,4"/>
<!-- Node1 -->
<g id="node1" class="node">
<title>Node1</title>
<g id="a_node1"><a xlink:title=" ">
<polygon fill="#bfbfbf" stroke="black" points="1147,-152.99 1147,-171.99 1306,-171.99 1306,-152.99 1147,-152.99"/>
<text text-anchor="middle" x="1226.5" y="-159.99" font-family="Helvetica,sans-Serif" font-size="10.00">Regulateur::getAccumulateur</text>
</a>
</g>
</g>
<!-- Node2 -->
<g id="node2" class="node">
<title>Node2</title>
<g id="a_node2"><a xlink:href="classConsignController.html#a5808f99131c5b97c35c7538af81e33a3" target="_top" xlink:title=" ">
<polygon fill="white" stroke="black" points="1001,-172.49 1001,-202.49 1111,-202.49 1111,-172.49 1001,-172.49"/>
<text text-anchor="start" x="1009" y="-190.49" font-family="Helvetica,sans-Serif" font-size="10.00">ConsignController::</text>
<text text-anchor="middle" x="1056" y="-179.49" font-family="Helvetica,sans-Serif" font-size="10.00">getAccuAngle</text>
</a>
</g>
</g>
<!-- Node1&#45;&gt;Node2 -->
<g id="edge1" class="edge">
<title>Node1&#45;&gt;Node2</title>
<path fill="none" stroke="midnightblue" d="M1151.12,-173.52C1137.66,-175.52 1123.86,-177.57 1111.12,-179.46"/>
<polygon fill="midnightblue" stroke="midnightblue" points="1151.94,-176.94 1161.32,-172.01 1150.91,-170.02 1151.94,-176.94"/>
</g>
<!-- Node16 -->
<g id="node16" class="node">
<title>Node16</title>
<g id="a_node16"><a xlink:href="classConsignController.html#aae60b58e28dfb4f79a52d4a7035ee161" target="_top" xlink:title=" ">
<polygon fill="white" stroke="black" points="1001,-123.49 1001,-153.49 1111,-153.49 1111,-123.49 1001,-123.49"/>
<text text-anchor="start" x="1009" y="-141.49" font-family="Helvetica,sans-Serif" font-size="10.00">ConsignController::</text>
<text text-anchor="middle" x="1056" y="-130.49" font-family="Helvetica,sans-Serif" font-size="10.00">getAccuDist</text>
</a>
</g>
</g>
<!-- Node1&#45;&gt;Node16 -->
<g id="edge21" class="edge">
<title>Node1&#45;&gt;Node16</title>
<path fill="none" stroke="midnightblue" d="M1148.4,-151.51C1135.82,-149.71 1123.03,-147.89 1111.15,-146.2"/>
<polygon fill="midnightblue" stroke="midnightblue" points="1148.03,-154.99 1158.42,-152.93 1149.01,-148.06 1148.03,-154.99"/>
</g>
<!-- Node3 -->
<g id="node3" class="node">
<title>Node3</title>
<g id="a_node3"><a xlink:href="classCommandManagerA.html#a5705ed05c4c964a5cedbd7bdb5f471b1" target="_top" xlink:title=" ">
<polygon fill="white" stroke="black" points="763.5,-131.99 763.5,-150.99 952.5,-150.99 952.5,-131.99 763.5,-131.99"/>
<text text-anchor="middle" x="858" y="-138.99" font-family="Helvetica,sans-Serif" font-size="10.00">CommandManagerA::computeGoTo</text>
</a>
</g>
</g>
<!-- Node2&#45;&gt;Node3 -->
<g id="edge2" class="edge">
<title>Node2&#45;&gt;Node3</title>
<path fill="none" stroke="midnightblue" d="M996.35,-169.68C985.95,-166.77 975.19,-163.92 965,-161.49 948.88,-157.65 931.23,-154.07 915.05,-151.04"/>
<polygon fill="midnightblue" stroke="midnightblue" points="995.6,-173.1 1006.18,-172.47 997.52,-166.37 995.6,-173.1"/>
</g>
<!-- Node5 -->
<g id="node5" class="node">
<title>Node5</title>
<g id="a_node5"><a xlink:href="classCommandManagerA.html#a5a1c89032b7f8150bed910011daf111a" target="_top" xlink:title=" ">
<polygon fill="white" stroke="black" points="353,-175.99 353,-194.99 514,-194.99 514,-175.99 353,-175.99"/>
<text text-anchor="middle" x="433.5" y="-182.99" font-family="Helvetica,sans-Serif" font-size="10.00">CommandManagerA::perform</text>
</a>
</g>
</g>
<!-- Node2&#45;&gt;Node5 -->
<g id="edge13" class="edge">
<title>Node2&#45;&gt;Node5</title>
<path fill="none" stroke="midnightblue" d="M1035.39,-210.47C1018.62,-228.5 992.84,-252.64 965,-265.49 796.84,-343.11 720.74,-375.28 550,-303.49 496.09,-280.82 454.76,-219.35 440.19,-195.31"/>
<polygon fill="midnightblue" stroke="midnightblue" points="1038.33,-212.44 1042.44,-202.67 1033.14,-207.74 1038.33,-212.44"/>
</g>
<!-- Node7 -->
<g id="node7" class="node">
<title>Node7</title>
<g id="a_node7"><a xlink:href="classCommandManagerA.html#a1f67dff0d897b42cd6ea9c241a1f5c8e" target="_top" xlink:title=" ">
<polygon fill="white" stroke="black" points="550,-263.49 550,-293.49 715,-293.49 715,-263.49 550,-263.49"/>
<text text-anchor="start" x="558" y="-281.49" font-family="Helvetica,sans-Serif" font-size="10.00">CommandManagerA::compute</text>
<text text-anchor="middle" x="632.5" y="-270.49" font-family="Helvetica,sans-Serif" font-size="10.00">GoToAngle</text>
</a>
</g>
</g>
<!-- Node2&#45;&gt;Node7 -->
<g id="edge7" class="edge">
<title>Node2&#45;&gt;Node7</title>
<path fill="none" stroke="midnightblue" d="M1021.14,-207.71C1004.72,-216.65 984.39,-226.47 965,-232.49 882.17,-258.18 783.25,-269.55 715.15,-274.56"/>
<polygon fill="midnightblue" stroke="midnightblue" points="1023.29,-210.52 1030.32,-202.59 1019.88,-204.4 1023.29,-210.52"/>
</g>
<!-- Node8 -->
<g id="node8" class="node">
<title>Node8</title>
<g id="a_node8"><a xlink:href="classCommandManagerA.html#a14fdd92a5a998f6e0a1d91afd2e24465" target="_top" xlink:title=" ">
<polygon fill="white" stroke="black" points="550,-214.49 550,-244.49 715,-244.49 715,-214.49 550,-214.49"/>
<text text-anchor="start" x="558" y="-232.49" font-family="Helvetica,sans-Serif" font-size="10.00">CommandManagerA::compute</text>
<text text-anchor="middle" x="632.5" y="-221.49" font-family="Helvetica,sans-Serif" font-size="10.00">GoToAngleReverse</text>
</a>
</g>
</g>
<!-- Node2&#45;&gt;Node8 -->
<g id="edge9" class="edge">
<title>Node2&#45;&gt;Node8</title>
<path fill="none" stroke="midnightblue" d="M993,-204.99C983.68,-207.14 974.13,-209.07 965,-210.49 880.4,-223.6 782.41,-227.89 715.02,-229.18"/>
<polygon fill="midnightblue" stroke="midnightblue" points="994.1,-208.33 1003,-202.59 992.46,-201.52 994.1,-208.33"/>
</g>
<!-- Node9 -->
<g id="node9" class="node">
<title>Node9</title>
<g id="a_node9"><a xlink:href="classCommandManagerA.html#a0f62e1ea0526585a655dd3bd68f79f85" target="_top" xlink:title=" ">
<polygon fill="white" stroke="black" points="775.5,-170.49 775.5,-200.49 940.5,-200.49 940.5,-170.49 775.5,-170.49"/>
<text text-anchor="start" x="783.5" y="-188.49" font-family="Helvetica,sans-Serif" font-size="10.00">CommandManagerA::compute</text>
<text text-anchor="middle" x="858" y="-177.49" font-family="Helvetica,sans-Serif" font-size="10.00">GoToBack</text>
</a>
</g>
</g>
<!-- Node2&#45;&gt;Node9 -->
<g id="edge11" class="edge">
<title>Node2&#45;&gt;Node9</title>
<path fill="none" stroke="midnightblue" d="M990.67,-186.83C974.74,-186.67 957.46,-186.49 940.81,-186.32"/>
<polygon fill="midnightblue" stroke="midnightblue" points="990.89,-190.33 1000.92,-186.94 990.96,-183.33 990.89,-190.33"/>
</g>
<!-- Node10 -->
<g id="node10" class="node">
<title>Node10</title>
<g id="a_node10"><a xlink:href="classCommandManagerA.html#a7ce3c37b6130dd468a93a658f4b3aced" target="_top" xlink:title=" ">
<polygon fill="white" stroke="black" points="751,-93.99 751,-112.99 965,-112.99 965,-93.99 751,-93.99"/>
<text text-anchor="middle" x="858" y="-100.99" font-family="Helvetica,sans-Serif" font-size="10.00">CommandManagerA::setEmergencyStop</text>
</a>
</g>
</g>
<!-- Node2&#45;&gt;Node10 -->
<g id="edge14" class="edge">
<title>Node2&#45;&gt;Node10</title>
<path fill="none" stroke="midnightblue" d="M1006.67,-167.33C1004.71,-166.1 1002.81,-164.82 1001,-163.49 981.47,-149.12 986.12,-134.41 965,-122.49 958.16,-118.63 950.71,-115.52 943.04,-113.03"/>
<polygon fill="midnightblue" stroke="midnightblue" points="1005.11,-170.47 1015.53,-172.37 1008.57,-164.39 1005.11,-170.47"/>
</g>
<!-- Node4 -->
<g id="node4" class="node">
<title>Node4</title>
<g id="a_node4"><a xlink:href="classCommandManagerA.html#a23d52bda2157cc39ab2990c3d554b806" target="_top" xlink:title=" ">
<polygon fill="white" stroke="black" points="550,-126.49 550,-156.49 715,-156.49 715,-126.49 550,-126.49"/>
<text text-anchor="start" x="558" y="-144.49" font-family="Helvetica,sans-Serif" font-size="10.00">CommandManagerA::compute</text>
<text text-anchor="middle" x="632.5" y="-133.49" font-family="Helvetica,sans-Serif" font-size="10.00">Enchainement</text>
</a>
</g>
</g>
<!-- Node3&#45;&gt;Node4 -->
<g id="edge3" class="edge">
<title>Node3&#45;&gt;Node4</title>
<path fill="none" stroke="midnightblue" d="M753,-141.49C740.25,-141.49 727.37,-141.49 715.01,-141.49"/>
<polygon fill="midnightblue" stroke="midnightblue" points="753.19,-144.99 763.19,-141.49 753.19,-137.99 753.19,-144.99"/>
</g>
<!-- Node3&#45;&gt;Node5 -->
<g id="edge6" class="edge">
<title>Node3&#45;&gt;Node5</title>
<path fill="none" stroke="midnightblue" d="M793.31,-130.22C759.42,-124.32 723.08,-118.17 715,-117.49 641.92,-111.36 620.75,-98.21 550,-117.49 508.02,-128.93 465.74,-159.94 446,-175.82"/>
<polygon fill="midnightblue" stroke="midnightblue" points="792.79,-133.68 803.25,-131.96 794,-126.79 792.79,-133.68"/>
</g>
<!-- Node4&#45;&gt;Node5 -->
<g id="edge4" class="edge">
<title>Node4&#45;&gt;Node5</title>
<path fill="none" stroke="midnightblue" d="M554.31,-158.73C528.04,-164.6 499.64,-170.94 477.09,-175.98"/>
<polygon fill="midnightblue" stroke="midnightblue" points="555.26,-162.1 564.25,-156.51 553.73,-155.27 555.26,-162.1"/>
</g>
<!-- Node6 -->
<g id="node6" class="node">
<title>Node6</title>
<g id="a_node6"><a xlink:href="classAsservEsialR.html#abfd3be9bde7bf8ae887688bf8bc0ca43" target="_top" xlink:title="Méthode virtuelle pure à implémenter dans les sous&#45;classes.">
<polygon fill="white" stroke="black" points="179.5,-175.99 179.5,-194.99 303.5,-194.99 303.5,-175.99 179.5,-175.99"/>
<text text-anchor="middle" x="241.5" y="-182.99" font-family="Helvetica,sans-Serif" font-size="10.00">AsservEsialR::execute</text>
</a>
</g>
</g>
<!-- Node5&#45;&gt;Node6 -->
<g id="edge5" class="edge">
<title>Node5&#45;&gt;Node6</title>
<path fill="none" stroke="midnightblue" d="M342.66,-185.49C329.42,-185.49 316.04,-185.49 303.56,-185.49"/>
<polygon fill="midnightblue" stroke="midnightblue" points="342.75,-188.99 352.75,-185.49 342.75,-181.99 342.75,-188.99"/>
</g>
<!-- Node7&#45;&gt;Node5 -->
<g id="edge8" class="edge">
<title>Node7&#45;&gt;Node5</title>
<path fill="none" stroke="midnightblue" d="M563.72,-259.97C559.03,-258.25 554.41,-256.42 550,-254.49 511.05,-237.45 469.11,-209.76 448.11,-195.18"/>
<polygon fill="midnightblue" stroke="midnightblue" points="562.82,-263.36 573.41,-263.35 565.12,-256.75 562.82,-263.36"/>
</g>
<!-- Node8&#45;&gt;Node5 -->
<g id="edge10" class="edge">
<title>Node8&#45;&gt;Node5</title>
<path fill="none" stroke="midnightblue" d="M554.31,-212.25C528.04,-206.38 499.64,-200.04 477.09,-195"/>
<polygon fill="midnightblue" stroke="midnightblue" points="553.73,-215.7 564.25,-214.47 555.26,-208.87 553.73,-215.7"/>
</g>
<!-- Node9&#45;&gt;Node5 -->
<g id="edge12" class="edge">
<title>Node9&#45;&gt;Node5</title>
<path fill="none" stroke="midnightblue" d="M764.93,-185.49C690.06,-185.49 585.5,-185.49 514.18,-185.49"/>
<polygon fill="midnightblue" stroke="midnightblue" points="765.29,-188.99 775.29,-185.49 765.29,-181.99 765.29,-188.99"/>
</g>
<!-- Node11 -->
<g id="node11" class="node">
<title>Node11</title>
<g id="a_node11"><a xlink:href="classAsservEsialR.html#afd68af9e59ff80e079d3b080516be850" target="_top" xlink:title="Interrompt la trajectoire en cours (arret d&#39;urgence logiciel).">
<polygon fill="white" stroke="black" points="576.5,-38.49 576.5,-68.49 688.5,-68.49 688.5,-38.49 576.5,-38.49"/>
<text text-anchor="start" x="584.5" y="-56.49" font-family="Helvetica,sans-Serif" font-size="10.00">AsservEsialR::path</text>
<text text-anchor="middle" x="632.5" y="-45.49" font-family="Helvetica,sans-Serif" font-size="10.00">_InterruptTrajectory</text>
</a>
</g>
</g>
<!-- Node10&#45;&gt;Node11 -->
<g id="edge15" class="edge">
<title>Node10&#45;&gt;Node11</title>
<path fill="none" stroke="midnightblue" d="M804.45,-91.73C769.61,-83.94 723.97,-73.73 688.61,-65.82"/>
<polygon fill="midnightblue" stroke="midnightblue" points="803.91,-95.2 814.44,-93.97 805.44,-88.37 803.91,-95.2"/>
</g>
<!-- Node12 -->
<g id="node12" class="node">
<title>Node12</title>
<g id="a_node12"><a xlink:href="classAsserv.html#a312602d6bf6f8591937e4d0003497bbb" target="_top" xlink:title=" ">
<polygon fill="white" stroke="black" points="360.5,-43.99 360.5,-62.99 506.5,-62.99 506.5,-43.99 360.5,-43.99"/>
<text text-anchor="middle" x="433.5" y="-50.99" font-family="Helvetica,sans-Serif" font-size="10.00">Asserv::setEmergencyStop</text>
</a>
</g>
</g>
<!-- Node11&#45;&gt;Node12 -->
<g id="edge16" class="edge">
<title>Node11&#45;&gt;Node12</title>
<path fill="none" stroke="midnightblue" d="M566.26,-53.49C547.13,-53.49 526.11,-53.49 506.59,-53.49"/>
<polygon fill="midnightblue" stroke="midnightblue" points="566.36,-56.99 576.36,-53.49 566.36,-49.99 566.36,-56.99"/>
</g>
<!-- Node13 -->
<g id="node13" class="node">
<title>Node13</title>
<g id="a_node13"><a xlink:href="classAsserv.html#ae8c86b1f9cfe795e8c9aad3e7e4ea40c" target="_top" xlink:title=" ">
<polygon fill="white" stroke="black" points="166.5,-14.49 166.5,-44.49 316.5,-44.49 316.5,-14.49 166.5,-14.49"/>
<text text-anchor="start" x="174.5" y="-32.49" font-family="Helvetica,sans-Serif" font-size="10.00">Asserv::warnBackDetection</text>
<text text-anchor="middle" x="241.5" y="-21.49" font-family="Helvetica,sans-Serif" font-size="10.00">OnTraj</text>
</a>
</g>
</g>
<!-- Node12&#45;&gt;Node13 -->
<g id="edge17" class="edge">
<title>Node12&#45;&gt;Node13</title>
<path fill="none" stroke="midnightblue" d="M350.26,-43.1C339.12,-41.69 327.75,-40.26 316.76,-38.87"/>
<polygon fill="midnightblue" stroke="midnightblue" points="350.04,-46.6 360.4,-44.38 350.92,-39.65 350.04,-46.6"/>
</g>
<!-- Node15 -->
<g id="node15" class="node">
<title>Node15</title>
<g id="a_node15"><a xlink:href="classAsserv.html#a959dc45e49f920c77e62a11b75a15641" target="_top" xlink:title=" ">
<polygon fill="white" stroke="black" points="166,-63.49 166,-93.49 317,-93.49 317,-63.49 166,-63.49"/>
<text text-anchor="start" x="174" y="-81.49" font-family="Helvetica,sans-Serif" font-size="10.00">Asserv::warnFrontDetection</text>
<text text-anchor="middle" x="241.5" y="-70.49" font-family="Helvetica,sans-Serif" font-size="10.00">OnTraj</text>
</a>
</g>
</g>
<!-- Node12&#45;&gt;Node15 -->
<g id="edge19" class="edge">
<title>Node12&#45;&gt;Node15</title>
<path fill="none" stroke="midnightblue" d="M350.33,-64.3C339.28,-65.75 327.99,-67.24 317.08,-68.67"/>
<polygon fill="midnightblue" stroke="midnightblue" points="350.94,-67.75 360.4,-62.97 350.03,-60.81 350.94,-67.75"/>
</g>
<!-- Node14 -->
<g id="node14" class="node">
<title>Node14</title>
<g id="a_node14"><a xlink:href="classSensorsTimer.html#abc377178c2471f664b31658554963e83" target="_top" xlink:title="Actions à executer pour le timer.">
<polygon fill="white" stroke="black" points="0,-43.99 0,-62.99 130,-62.99 130,-43.99 0,-43.99"/>
<text text-anchor="middle" x="65" y="-50.99" font-family="Helvetica,sans-Serif" font-size="10.00">SensorsTimer::onTimer</text>
</a>
</g>
</g>
<!-- Node13&#45;&gt;Node14 -->
<g id="edge18" class="edge">
<title>Node13&#45;&gt;Node14</title>
<path fill="none" stroke="midnightblue" d="M156.53,-41.04C147.67,-42.25 138.77,-43.48 130.18,-44.66"/>
<polygon fill="midnightblue" stroke="midnightblue" points="157.07,-44.5 166.5,-39.67 156.11,-37.56 157.07,-44.5"/>
</g>
<!-- Node15&#45;&gt;Node14 -->
<g id="edge20" class="edge">
<title>Node15&#45;&gt;Node14</title>
<path fill="none" stroke="midnightblue" d="M155.85,-66.36C147.18,-65.12 138.48,-63.87 130.09,-62.67"/>
<polygon fill="midnightblue" stroke="midnightblue" points="155.59,-69.86 165.99,-67.81 156.59,-62.93 155.59,-69.86"/>
</g>
<!-- Node16&#45;&gt;Node3 -->
<g id="edge22" class="edge">
<title>Node16&#45;&gt;Node3</title>
<path fill="none" stroke="midnightblue" d="M990.88,-139.47C978.68,-139.66 965.68,-139.85 952.77,-140.05"/>
<polygon fill="midnightblue" stroke="midnightblue" points="990.98,-142.97 1000.92,-139.32 990.87,-135.97 990.98,-142.97"/>
</g>
<!-- Node16&#45;&gt;Node5 -->
<g id="edge24" class="edge">
<title>Node16&#45;&gt;Node5</title>
<path fill="none" stroke="midnightblue" d="M1023.39,-117.86C941.03,-66.91 714.8,54.87 550,-28.49 541.81,-32.63 464.52,-142.56 441.15,-175.96"/>
<polygon fill="midnightblue" stroke="midnightblue" points="1021.93,-121.07 1032.26,-123.41 1025.65,-115.14 1021.93,-121.07"/>
</g>
<!-- Node16&#45;&gt;Node9 -->
<g id="edge23" class="edge">
<title>Node16&#45;&gt;Node9</title>
<path fill="none" stroke="midnightblue" d="M990.99,-154.2C982.26,-156.33 973.41,-158.47 965,-160.49 951.49,-163.73 937,-167.18 923.2,-170.43"/>
<polygon fill="midnightblue" stroke="midnightblue" points="991.88,-157.59 1000.76,-151.82 990.22,-150.79 991.88,-157.59"/>
</g>
<!-- Node16&#45;&gt;Node10 -->
<g id="edge25" class="edge">
<title>Node16&#45;&gt;Node10</title>
<path fill="none" stroke="midnightblue" d="M990.98,-127.06C965.5,-122.51 936.52,-117.33 912.22,-112.99"/>
<polygon fill="midnightblue" stroke="midnightblue" points="990.46,-130.52 1000.92,-128.83 991.69,-123.63 990.46,-130.52"/>
</g>
</g>
</svg>
        <g id="navigator" transform="translate(0 0)" fill="#404254">
                <rect fill="#f2f5e9" fill-opacity="0.5" stroke="#606060" stroke-width=".5" x="0" y="0" width="60" height="60"/>
                <use id="zoomplus" xlink:href="#zoomPlus" x="17" y="9" onmousedown="handleZoom(evt,'in')"/>
                <use id="zoomminus" xlink:href="#zoomMin" x="42" y="9" onmousedown="handleZoom(evt,'out')"/>
                <use id="reset" xlink:href="#resetDef" x="30" y="36" onmousedown="handleReset()"/>
                <g id="arrowUp" xlink:href="#dirArrow" transform="translate(30 24)" onmousedown="handlePan(0,-1)">
                  <use xlink:href="#rim" fill="#404040">
                        <set attributeName="fill" to="#808080" begin="arrowUp.mouseover" end="arrowUp.mouseout"/>
                  </use>
                  <path fill="none" stroke="white" stroke-width="1.5" d="M0,-3.0v7 M-2.5,-0.5L0,-3.0L2.5,-0.5"/>
                </g>
                <g id="arrowRight" xlink:href="#dirArrow" transform="rotate(90) translate(36 -43)" onmousedown="handlePan(1,0)">
                  <use xlink:href="#rim" fill="#404040">
                        <set attributeName="fill" to="#808080" begin="arrowRight.mouseover" end="arrowRight.mouseout"/>
                  </use>
                  <path fill="none" stroke="white" stroke-width="1.5" d="M0,-3.0v7 M-2.5,-0.5L0,-3.0L2.5,-0.5"/>
                </g>
                <g id="arrowDown" xlink:href="#dirArrow" transform="rotate(180) translate(-30 -48)" onmousedown="handlePan(0,1)">
                  <use xlink:href="#rim" fill="#404040">
                        <set attributeName="fill" to="#808080" begin="arrowDown.mouseover" end="arrowDown.mouseout"/>
                  </use>
                  <path fill="none" stroke="white" stroke-width="1.5" d="M0,-3.0v7 M-2.5,-0.5L0,-3.0L2.5,-0.5"/>
                </g>
                <g id="arrowLeft" xlink:href="#dirArrow" transform="rotate(270) translate(-36 17)" onmousedown="handlePan(-1,0)">
                  <use xlink:href="#rim" fill="#404040">
                        <set attributeName="fill" to="#808080" begin="arrowLeft.mouseover" end="arrowLeft.mouseout"/>
                  </use>
                  <path fill="none" stroke="white" stroke-width="1.5" d="M0,-3.0v7 M-2.5,-0.5L0,-3.0L2.5,-0.5"/>
                </g>
        </g>
        <svg viewBox="0 0 15 15" width="100%" height="30px" preserveAspectRatio="xMaxYMin meet">
         <g id="arrow_out" transform="scale(0.3 0.3)">
          <a xlink:href="classRegulateur_aee02d0cfa54e00a88c37272d5614c254_icgraph_org.svg" target="_base">
           <rect id="button" ry="5" rx="5" y="6" x="6" height="38" width="38"
                fill="#f2f5e9" fill-opacity="0.5" stroke="#606060" stroke-width="1.0"/>
           <path id="arrow"
             d="M 11.500037,31.436501 C 11.940474,20.09759 22.043105,11.32322 32.158766,21.979434 L 37.068811,17.246167 C 37.068811,17.246167 37.088388,32 37.088388,32 L 22.160133,31.978069 C 22.160133,31.978069 26.997745,27.140456 26.997745,27.140456 C 18.528582,18.264221 13.291696,25.230495 11.500037,31.436501 z"
             style="fill:#404040;"/>
          </a>
         </g>
        </svg>
</svg>
