<?xml version="1.0" encoding="UTF-8" standalone="no"?>
<!DOCTYPE svg PUBLIC "-//W3C//DTD SVG 1.1//EN"
 "http://www.w3.org/Graphics/SVG/1.1/DTD/svg11.dtd">
<!-- Generated by graphviz version 2.43.0 (0)
 -->
<!-- Title: Sensors::getAvailableFrontCenter Pages: 1 -->
<svg width="505pt" height="142pt"
 viewBox="0.00 0.00 505.00 142.00" xmlns="http://www.w3.org/2000/svg" xmlns:xlink="http://www.w3.org/1999/xlink">
<g id="graph0" class="graph" transform="scale(1 1) rotate(0) translate(4 138)">
<title>Sensors::getAvailableFrontCenter</title>
<polygon fill="white" stroke="transparent" points="-4,4 -4,-138 501,-138 501,4 -4,4"/>
<!-- Node1 -->
<g id="node1" class="node">
<title>Node1</title>
<g id="a_node1"><a xlink:title=" ">
<polygon fill="#bfbfbf" stroke="black" points="351,-52 351,-82 497,-82 497,-52 351,-52"/>
<text text-anchor="start" x="359" y="-70" font-family="Helvetica,sans-Serif" font-size="10.00">Sensors::getAvailableFront</text>
<text text-anchor="middle" x="424" y="-59" font-family="Helvetica,sans-Serif" font-size="10.00">Center</text>
</a>
</g>
</g>
<!-- Node2 -->
<g id="node2" class="node">
<title>Node2</title>
<g id="a_node2"><a xlink:href="classSensors.html#a6fde663a7fb649742b32c4c56e4b939c" target="_top" xlink:title=" ">
<polygon fill="white" stroke="black" points="198.5,-76.5 198.5,-95.5 282.5,-95.5 282.5,-76.5 198.5,-76.5"/>
<text text-anchor="middle" x="240.5" y="-83.5" font-family="Helvetica,sans-Serif" font-size="10.00">Sensors::front</text>
</a>
</g>
</g>
<!-- Node1&#45;&gt;Node2 -->
<g id="edge1" class="edge">
<title>Node1&#45;&gt;Node2</title>
<path fill="none" stroke="midnightblue" d="M340.63,-75.62C320.54,-77.73 299.9,-79.89 282.69,-81.69"/>
<polygon fill="midnightblue" stroke="midnightblue" points="341.16,-79.09 350.74,-74.56 340.43,-72.12 341.16,-79.09"/>
</g>
<!-- Node3 -->
<g id="node3" class="node">
<title>Node3</title>
<g id="a_node3"><a xlink:href="classSensorsTimer.html#abc377178c2471f664b31658554963e83" target="_top" xlink:title="Actions à executer pour le timer.">
<polygon fill="white" stroke="black" points="0,-114.5 0,-133.5 130,-133.5 130,-114.5 0,-114.5"/>
<text text-anchor="middle" x="65" y="-121.5" font-family="Helvetica,sans-Serif" font-size="10.00">SensorsTimer::onTimer</text>
</a>
</g>
</g>
<!-- Node1&#45;&gt;Node3 -->
<g id="edge4" class="edge">
<title>Node1&#45;&gt;Node3</title>
<path fill="none" stroke="midnightblue" d="M378.3,-85.69C359.14,-92.92 336.3,-100.52 315,-105 253.06,-118.02 180.78,-122.37 130.1,-123.7"/>
<polygon fill="midnightblue" stroke="midnightblue" points="379.6,-88.94 387.67,-82.07 377.08,-82.41 379.6,-88.94"/>
</g>
<!-- Node5 -->
<g id="node5" class="node">
<title>Node5</title>
<g id="a_node5"><a xlink:href="classO__AsservTest.html#a87e2ffa360e3e12ff5c7b81b1952a04f" target="_top" xlink:title=" ">
<polygon fill="white" stroke="black" points="188.5,-38.5 188.5,-57.5 292.5,-57.5 292.5,-38.5 188.5,-38.5"/>
<text text-anchor="middle" x="240.5" y="-45.5" font-family="Helvetica,sans-Serif" font-size="10.00">O_AsservTest::run</text>
</a>
</g>
</g>
<!-- Node1&#45;&gt;Node5 -->
<g id="edge5" class="edge">
<title>Node1&#45;&gt;Node5</title>
<path fill="none" stroke="midnightblue" d="M340.62,-58.38C324.24,-56.66 307.51,-54.91 292.56,-53.34"/>
<polygon fill="midnightblue" stroke="midnightblue" points="340.43,-61.88 350.74,-59.44 341.16,-54.91 340.43,-61.88"/>
</g>
<!-- Node6 -->
<g id="node6" class="node">
<title>Node6</title>
<g id="a_node6"><a xlink:href="classO__AsservXYRotateTest.html#a13ccb691e37bdddc94ca53b29311e39a" target="_top" xlink:title=" ">
<polygon fill="white" stroke="black" points="166,-0.5 166,-19.5 315,-19.5 315,-0.5 166,-0.5"/>
<text text-anchor="middle" x="240.5" y="-7.5" font-family="Helvetica,sans-Serif" font-size="10.00">O_AsservXYRotateTest::run</text>
</a>
</g>
</g>
<!-- Node1&#45;&gt;Node6 -->
<g id="edge6" class="edge">
<title>Node1&#45;&gt;Node6</title>
<path fill="none" stroke="midnightblue" d="M373.22,-48.49C355.01,-41.98 334.18,-34.84 315,-29 304.03,-25.66 292.03,-22.39 280.96,-19.54"/>
<polygon fill="midnightblue" stroke="midnightblue" points="372.16,-51.82 382.75,-51.92 374.53,-45.24 372.16,-51.82"/>
</g>
<!-- Node2&#45;&gt;Node3 -->
<g id="edge2" class="edge">
<title>Node2&#45;&gt;Node3</title>
<path fill="none" stroke="midnightblue" d="M188.33,-97.21C163.3,-102.69 133.48,-109.22 109.55,-114.46"/>
<polygon fill="midnightblue" stroke="midnightblue" points="189.36,-100.56 198.38,-95.01 187.87,-93.73 189.36,-100.56"/>
</g>
<!-- Node4 -->
<g id="node4" class="node">
<title>Node4</title>
<g id="a_node4"><a xlink:href="classO__SensorsTest.html#ae3b998034225e16586ded4ba3bd419e5" target="_top" xlink:title="Execute le test.">
<polygon fill="white" stroke="black" points="10.5,-76.5 10.5,-95.5 119.5,-95.5 119.5,-76.5 10.5,-76.5"/>
<text text-anchor="middle" x="65" y="-83.5" font-family="Helvetica,sans-Serif" font-size="10.00">O_SensorsTest::run</text>
</a>
</g>
</g>
<!-- Node2&#45;&gt;Node4 -->
<g id="edge3" class="edge">
<title>Node2&#45;&gt;Node4</title>
<path fill="none" stroke="midnightblue" d="M188.11,-86C166.54,-86 141.45,-86 119.64,-86"/>
<polygon fill="midnightblue" stroke="midnightblue" points="188.38,-89.5 198.38,-86 188.38,-82.5 188.38,-89.5"/>
</g>
</g>
</svg>
