<?xml version="1.0" encoding="UTF-8" standalone="no"?>
<!DOCTYPE svg PUBLIC "-//W3C//DTD SVG 1.1//EN"
 "http://www.w3.org/Graphics/SVG/1.1/DTD/svg11.dtd">
<!-- Generated by graphviz version 2.43.0 (0)
 -->
<!-- Title: ConsignController::setQuadRamp_Dist Pages: 1 -->
<!--zoomable 583 -->
<svg id="main" version="1.1" xmlns="http://www.w3.org/2000/svg" xmlns:xlink="http://www.w3.org/1999/xlink" xml:space="preserve" onload="init(evt)">
<style type="text/css"><![CDATA[
.edge:hover path { stroke: red; }
.edge:hover polygon { stroke: red; fill: red; }
]]></style>
<script type="text/javascript"><![CDATA[
var edges = document.getElementsByTagName('g');
if (edges && edges.length) {
  for (var i=0;i<edges.length;i++) {
    if (edges[i].id.substr(0,4)=='edge') {
      edges[i].setAttribute('class','edge');
    }
  }
}
]]></script>
        <defs>
                <circle id="rim" cx="0" cy="0" r="7"/>
                <circle id="rim2" cx="0" cy="0" r="3.5"/>
                <g id="zoomPlus">
                        <use xlink:href="#rim" fill="#404040">
                                <set attributeName="fill" to="#808080" begin="zoomplus.mouseover" end="zoomplus.mouseout"/>
                        </use>
                        <path d="M-4,0h8M0,-4v8" fill="none" stroke="white" stroke-width="1.5" pointer-events="none"/>
                </g>
                <g id="zoomMin">
                        <use xlink:href="#rim" fill="#404040">
                                <set attributeName="fill" to="#808080" begin="zoomminus.mouseover" end="zoomminus.mouseout"/>
                        </use>
                        <path d="M-4,0h8" fill="none" stroke="white" stroke-width="1.5" pointer-events="none"/>
                </g>
                <g id="dirArrow">
                        <path fill="none" stroke="white" stroke-width="1.5" d="M0,-3.0v7 M-2.5,-0.5L0,-3.0L2.5,-0.5"/>
                </g>
               <g id="resetDef">
                       <use xlink:href="#rim2" fill="#404040">
                               <set attributeName="fill" to="#808080" begin="reset.mouseover" end="reset.mouseout"/>
                       </use>
               </g>
        </defs>

<script type="text/javascript">
var viewWidth = 1345;
var viewHeight = 583;
var sectionId = 'dynsection-31';
</script>
<script xlink:href="svgpan.js"/>
<svg id="graph" class="graph">
<g id="viewport">
<title>ConsignController::setQuadRamp_Dist</title>
<polygon fill="white" stroke="transparent" points="-4,4 -4,-578.5 1341,-578.5 1341,4 -4,4"/>
<!-- Node1 -->
<g id="node1" class="node">
<title>Node1</title>
<g id="a_node1"><a xlink:title=" ">
<polygon fill="#bfbfbf" stroke="black" points="1227,-275.5 1227,-305.5 1337,-305.5 1337,-275.5 1227,-275.5"/>
<text text-anchor="start" x="1235" y="-293.5" font-family="Helvetica,sans-Serif" font-size="10.00">ConsignController::</text>
<text text-anchor="middle" x="1282" y="-282.5" font-family="Helvetica,sans-Serif" font-size="10.00">setQuadRamp_Dist</text>
</a>
</g>
</g>
<!-- Node2 -->
<g id="node2" class="node">
<title>Node2</title>
<g id="a_node2"><a xlink:href="classAsservEsialR.html#a17eab63b10a4e1edf11013e6b18cafd2" target="_top" xlink:title=" ">
<polygon fill="white" stroke="black" points="1019,-338.5 1019,-368.5 1139,-368.5 1139,-338.5 1019,-338.5"/>
<text text-anchor="start" x="1027" y="-356.5" font-family="Helvetica,sans-Serif" font-size="10.00">AsservEsialR::motion</text>
<text text-anchor="middle" x="1079" y="-345.5" font-family="Helvetica,sans-Serif" font-size="10.00">_ActivateQuadRamp</text>
</a>
</g>
</g>
<!-- Node1&#45;&gt;Node2 -->
<g id="edge1" class="edge">
<title>Node1&#45;&gt;Node2</title>
<path fill="none" stroke="midnightblue" d="M1239.5,-309.85C1224.44,-316.37 1207.16,-323.31 1191,-328.5 1174.45,-333.81 1156.16,-338.43 1139.28,-342.19"/>
<polygon fill="midnightblue" stroke="midnightblue" points="1241.3,-312.88 1249.03,-305.64 1238.47,-306.47 1241.3,-312.88"/>
</g>
<!-- Node4 -->
<g id="node4" class="node">
<title>Node4</title>
<g id="a_node4"><a xlink:href="classCommandManagerA.html#a5a1c89032b7f8150bed910011daf111a" target="_top" xlink:title=" ">
<polygon fill="white" stroke="black" points="998.5,-300 998.5,-319 1159.5,-319 1159.5,-300 998.5,-300"/>
<text text-anchor="middle" x="1079" y="-307" font-family="Helvetica,sans-Serif" font-size="10.00">CommandManagerA::perform</text>
</a>
</g>
</g>
<!-- Node1&#45;&gt;Node4 -->
<g id="edge3" class="edge">
<title>Node1&#45;&gt;Node4</title>
<path fill="none" stroke="midnightblue" d="M1216.69,-296.58C1198.51,-298.3 1178.5,-300.19 1159.54,-301.98"/>
<polygon fill="midnightblue" stroke="midnightblue" points="1217.25,-300.04 1226.87,-295.62 1216.59,-293.07 1217.25,-300.04"/>
</g>
<!-- Node6 -->
<g id="node6" class="node">
<title>Node6</title>
<g id="a_node6"><a xlink:href="classCommandManagerA.html#a15e1210241f2dd30047f151994e68692" target="_top" xlink:title=" ">
<polygon fill="white" stroke="black" points="967,-262 967,-281 1191,-281 1191,-262 967,-262"/>
<text text-anchor="middle" x="1079" y="-269" font-family="Helvetica,sans-Serif" font-size="10.00">CommandManagerA::resetEmergencyStop</text>
</a>
</g>
</g>
<!-- Node1&#45;&gt;Node6 -->
<g id="edge5" class="edge">
<title>Node1&#45;&gt;Node6</title>
<path fill="none" stroke="midnightblue" d="M1216.57,-284.41C1205.11,-283.33 1192.93,-282.18 1180.75,-281.02"/>
<polygon fill="midnightblue" stroke="midnightblue" points="1216.59,-287.93 1226.87,-285.38 1217.25,-280.96 1216.59,-287.93"/>
</g>
<!-- Node27 -->
<g id="node27" class="node">
<title>Node27</title>
<g id="a_node27"><a xlink:href="classCommandManagerA.html#a7ce3c37b6130dd468a93a658f4b3aced" target="_top" xlink:title=" ">
<polygon fill="white" stroke="black" points="972,-219 972,-238 1186,-238 1186,-219 972,-219"/>
<text text-anchor="middle" x="1079" y="-226" font-family="Helvetica,sans-Serif" font-size="10.00">CommandManagerA::setEmergencyStop</text>
</a>
</g>
</g>
<!-- Node1&#45;&gt;Node27 -->
<g id="edge30" class="edge">
<title>Node1&#45;&gt;Node27</title>
<path fill="none" stroke="midnightblue" d="M1240.32,-271.42C1225.08,-264.79 1207.47,-257.71 1191,-252.5 1172.67,-246.7 1152.2,-241.84 1133.88,-238.04"/>
<polygon fill="midnightblue" stroke="midnightblue" points="1238.91,-274.63 1249.47,-275.48 1241.75,-268.23 1238.91,-274.63"/>
</g>
<!-- Node3 -->
<g id="node3" class="node">
<title>Node3</title>
<g id="a_node3"><a xlink:href="classAsserv.html#aa8b9209374a094acf3242d732cdeee5e" target="_top" xlink:title=" ">
<polygon fill="white" stroke="black" points="814.5,-344 814.5,-363 921.5,-363 921.5,-344 814.5,-344"/>
<text text-anchor="middle" x="868" y="-351" font-family="Helvetica,sans-Serif" font-size="10.00">Asserv::disablePID</text>
</a>
</g>
</g>
<!-- Node2&#45;&gt;Node3 -->
<g id="edge2" class="edge">
<title>Node2&#45;&gt;Node3</title>
<path fill="none" stroke="midnightblue" d="M1008.71,-353.5C980.41,-353.5 948.2,-353.5 921.85,-353.5"/>
<polygon fill="midnightblue" stroke="midnightblue" points="1008.95,-357 1018.95,-353.5 1008.95,-350 1008.95,-357"/>
</g>
<!-- Node5 -->
<g id="node5" class="node">
<title>Node5</title>
<g id="a_node5"><a xlink:href="classAsservEsialR.html#abfd3be9bde7bf8ae887688bf8bc0ca43" target="_top" xlink:title="Méthode virtuelle pure à implémenter dans les sous&#45;classes.">
<polygon fill="white" stroke="black" points="806,-306 806,-325 930,-325 930,-306 806,-306"/>
<text text-anchor="middle" x="868" y="-313" font-family="Helvetica,sans-Serif" font-size="10.00">AsservEsialR::execute</text>
</a>
</g>
</g>
<!-- Node4&#45;&gt;Node5 -->
<g id="edge4" class="edge">
<title>Node4&#45;&gt;Node5</title>
<path fill="none" stroke="midnightblue" d="M988.23,-312.08C968.64,-312.64 948.35,-313.22 930.18,-313.74"/>
<polygon fill="midnightblue" stroke="midnightblue" points="988.49,-315.57 998.39,-311.79 988.29,-308.57 988.49,-315.57"/>
</g>
<!-- Node7 -->
<g id="node7" class="node">
<title>Node7</title>
<g id="a_node7"><a xlink:href="classAsservEsialR.html#a89c3ed56d870037964c23bb657c75a7a" target="_top" xlink:title="Reinitialise l&#39;arret d&#39;urgence pour permettre un nouveau mouvement.">
<polygon fill="white" stroke="black" points="805,-256.5 805,-286.5 931,-286.5 931,-256.5 805,-256.5"/>
<text text-anchor="start" x="813" y="-274.5" font-family="Helvetica,sans-Serif" font-size="10.00">AsservEsialR::path</text>
<text text-anchor="middle" x="868" y="-263.5" font-family="Helvetica,sans-Serif" font-size="10.00">_ResetEmergencyStop</text>
</a>
</g>
</g>
<!-- Node6&#45;&gt;Node7 -->
<g id="edge6" class="edge">
<title>Node6&#45;&gt;Node7</title>
<path fill="none" stroke="midnightblue" d="M956.53,-271.5C947.86,-271.5 939.35,-271.5 931.25,-271.5"/>
<polygon fill="midnightblue" stroke="midnightblue" points="956.77,-275 966.77,-271.5 956.77,-268 956.77,-275"/>
</g>
<!-- Node8 -->
<g id="node8" class="node">
<title>Node8</title>
<g id="a_node8"><a xlink:href="classAsserv.html#a22cbdc18185f0d910473b8a5bb434c84" target="_top" xlink:title=" ">
<polygon fill="white" stroke="black" points="604,-308 604,-327 769,-327 769,-308 604,-308"/>
<text text-anchor="middle" x="686.5" y="-315" font-family="Helvetica,sans-Serif" font-size="10.00">Asserv::resetEmergencyOnTraj</text>
</a>
</g>
</g>
<!-- Node7&#45;&gt;Node8 -->
<g id="edge7" class="edge">
<title>Node7&#45;&gt;Node8</title>
<path fill="none" stroke="midnightblue" d="M798.39,-289.08C773.35,-295.5 745.97,-302.52 724.68,-307.97"/>
<polygon fill="midnightblue" stroke="midnightblue" points="799.41,-292.44 808.22,-286.56 797.67,-285.65 799.41,-292.44"/>
</g>
<!-- Node9 -->
<g id="node9" class="node">
<title>Node9</title>
<g id="a_node9"><a xlink:href="classAsserv.html#a0ac23995bdebb69bb49304850c951886" target="_top" xlink:title=" ">
<polygon fill="white" stroke="black" points="441.5,-479 441.5,-498 542.5,-498 542.5,-479 441.5,-479"/>
<text text-anchor="middle" x="492" y="-486" font-family="Helvetica,sans-Serif" font-size="10.00">Asserv::doCalage</text>
</a>
</g>
</g>
<!-- Node8&#45;&gt;Node9 -->
<g id="edge8" class="edge">
<title>Node8&#45;&gt;Node9</title>
<path fill="none" stroke="midnightblue" d="M676.29,-336.39C659.47,-368.84 620.6,-435.01 568,-469.5 560.36,-474.51 551.49,-478.2 542.58,-480.91"/>
<polygon fill="midnightblue" stroke="midnightblue" points="679.59,-337.63 680.97,-327.12 673.34,-334.47 679.59,-337.63"/>
</g>
<!-- Node10 -->
<g id="node10" class="node">
<title>Node10</title>
<g id="a_node10"><a xlink:href="classAsserv.html#acc891ab26e32320b4f2fac646de93632" target="_top" xlink:title=" ">
<polygon fill="white" stroke="black" points="438.5,-441 438.5,-460 545.5,-460 545.5,-441 438.5,-441"/>
<text text-anchor="middle" x="492" y="-448" font-family="Helvetica,sans-Serif" font-size="10.00">Asserv::doCalage2</text>
</a>
</g>
</g>
<!-- Node8&#45;&gt;Node10 -->
<g id="edge9" class="edge">
<title>Node8&#45;&gt;Node10</title>
<path fill="none" stroke="midnightblue" d="M672.33,-335.17C652.52,-360.43 612.62,-406.59 568,-431.5 561.08,-435.36 553.37,-438.45 545.59,-440.93"/>
<polygon fill="midnightblue" stroke="midnightblue" points="675.15,-337.23 678.47,-327.17 669.6,-332.97 675.15,-337.23"/>
</g>
<!-- Node11 -->
<g id="node11" class="node">
<title>Node11</title>
<g id="a_node11"><a xlink:href="classAsserv.html#aa105905ebc1940adb7c483a14c9ce8fc" target="_top" xlink:title=" ">
<polygon fill="white" stroke="black" points="431,-403 431,-422 553,-422 553,-403 431,-403"/>
<text text-anchor="middle" x="492" y="-410" font-family="Helvetica,sans-Serif" font-size="10.00">Asserv::doCalageNew</text>
</a>
</g>
</g>
<!-- Node8&#45;&gt;Node11 -->
<g id="edge10" class="edge">
<title>Node8&#45;&gt;Node11</title>
<path fill="none" stroke="midnightblue" d="M665.48,-333.38C642.98,-350.51 604.76,-377.47 568,-393.5 559.38,-397.26 549.87,-400.38 540.59,-402.94"/>
<polygon fill="midnightblue" stroke="midnightblue" points="667.8,-336.01 673.57,-327.13 663.52,-330.48 667.8,-336.01"/>
</g>
<!-- Node12 -->
<g id="node12" class="node">
<title>Node12</title>
<g id="a_node12"><a xlink:href="classAsserv.html#aa2ec3b84e3cccf2145cc70e33f08dc58" target="_top" xlink:title=" ">
<polygon fill="white" stroke="black" points="416,-365 416,-384 568,-384 568,-365 416,-365"/>
<text text-anchor="middle" x="492" y="-372" font-family="Helvetica,sans-Serif" font-size="10.00">Asserv::doMoveBackwardTo</text>
</a>
</g>
</g>
<!-- Node8&#45;&gt;Node12 -->
<g id="edge11" class="edge">
<title>Node8&#45;&gt;Node12</title>
<path fill="none" stroke="midnightblue" d="M643.67,-329.88C608.13,-340.41 557.84,-355.3 525.33,-364.93"/>
<polygon fill="midnightblue" stroke="midnightblue" points="644.69,-333.24 653.28,-327.04 642.7,-326.52 644.69,-333.24"/>
</g>
<!-- Node14 -->
<g id="node14" class="node">
<title>Node14</title>
<g id="a_node14"><a xlink:href="classIAbyPath.html#acc586e1ba62ffb7a21087a5ca4d2f131" target="_top" xlink:title=" ">
<polygon fill="white" stroke="black" points="203,-421 203,-440 380,-440 380,-421 203,-421"/>
<text text-anchor="middle" x="291.5" y="-428" font-family="Helvetica,sans-Serif" font-size="10.00">IAbyPath::whileMoveBackwardTo</text>
</a>
</g>
</g>
<!-- Node8&#45;&gt;Node14 -->
<g id="edge25" class="edge">
<title>Node8&#45;&gt;Node14</title>
<path fill="none" stroke="midnightblue" d="M680.28,-337.23C668.32,-377.89 634.72,-470.31 568,-507.5 508.99,-540.39 480.95,-526.09 416,-507.5 369.36,-494.15 323.21,-457.51 303.05,-440.03"/>
<polygon fill="midnightblue" stroke="midnightblue" points="683.69,-338.01 683.03,-327.44 676.96,-336.12 683.69,-338.01"/>
</g>
<!-- Node16 -->
<g id="node16" class="node">
<title>Node16</title>
<g id="a_node16"><a xlink:href="classAsserv.html#a960679fed5ab18f631d7847c95fc1f85" target="_top" xlink:title=" ">
<polygon fill="white" stroke="black" points="420.5,-289 420.5,-308 563.5,-308 563.5,-289 420.5,-289"/>
<text text-anchor="middle" x="492" y="-296" font-family="Helvetica,sans-Serif" font-size="10.00">Asserv::doMoveForwardTo</text>
</a>
</g>
</g>
<!-- Node8&#45;&gt;Node16 -->
<g id="edge15" class="edge">
<title>Node8&#45;&gt;Node16</title>
<path fill="none" stroke="midnightblue" d="M593.74,-308.44C583.58,-307.44 573.35,-306.43 563.5,-305.46"/>
<polygon fill="midnightblue" stroke="midnightblue" points="593.57,-311.94 603.86,-309.44 594.25,-304.98 593.57,-311.94"/>
</g>
<!-- Node18 -->
<g id="node18" class="node">
<title>Node18</title>
<g id="a_node18"><a xlink:href="classIAbyPath.html#aa2a96904ea74078d56dad53979b1d999" target="_top" xlink:title=" ">
<polygon fill="white" stroke="black" points="207.5,-245 207.5,-264 375.5,-264 375.5,-245 207.5,-245"/>
<text text-anchor="middle" x="291.5" y="-252" font-family="Helvetica,sans-Serif" font-size="10.00">IAbyPath::whileMoveForwardTo</text>
</a>
</g>
</g>
<!-- Node8&#45;&gt;Node18 -->
<g id="edge26" class="edge">
<title>Node8&#45;&gt;Node18</title>
<path fill="none" stroke="midnightblue" d="M651.78,-304.38C628.58,-295.91 596.86,-285.4 568,-279.5 504.24,-266.47 430.8,-260.23 375.78,-257.24"/>
<polygon fill="midnightblue" stroke="midnightblue" points="650.58,-307.67 661.17,-307.87 653.01,-301.11 650.58,-307.67"/>
</g>
<!-- Node20 -->
<g id="node20" class="node">
<title>Node20</title>
<g id="a_node20"><a xlink:href="classAsserv.html#a3468d8efb89878c2235dc491c6e7a541" target="_top" xlink:title=" ">
<polygon fill="white" stroke="black" points="428,-213 428,-232 556,-232 556,-213 428,-213"/>
<text text-anchor="middle" x="492" y="-220" font-family="Helvetica,sans-Serif" font-size="10.00">Asserv::doRunPivotLeft</text>
</a>
</g>
</g>
<!-- Node8&#45;&gt;Node20 -->
<g id="edge19" class="edge">
<title>Node8&#45;&gt;Node20</title>
<path fill="none" stroke="midnightblue" d="M663.64,-302.15C640.66,-286.53 603.05,-262.43 568,-246.5 555.55,-240.84 541.39,-235.94 528.74,-232.07"/>
<polygon fill="midnightblue" stroke="midnightblue" points="661.75,-305.1 671.97,-307.88 665.71,-299.33 661.75,-305.1"/>
</g>
<!-- Node21 -->
<g id="node21" class="node">
<title>Node21</title>
<g id="a_node21"><a xlink:href="classAsserv.html#a79a9b2ee1d39046119673dc81733bdab" target="_top" xlink:title=" ">
<polygon fill="white" stroke="black" points="424,-175 424,-194 560,-194 560,-175 424,-175"/>
<text text-anchor="middle" x="492" y="-182" font-family="Helvetica,sans-Serif" font-size="10.00">Asserv::doRunPivotRight</text>
</a>
</g>
</g>
<!-- Node8&#45;&gt;Node21 -->
<g id="edge20" class="edge">
<title>Node8&#45;&gt;Node21</title>
<path fill="none" stroke="midnightblue" d="M672.33,-299.83C652.52,-274.57 612.62,-228.41 568,-203.5 561.08,-199.64 553.37,-196.55 545.59,-194.07"/>
<polygon fill="midnightblue" stroke="midnightblue" points="669.6,-302.03 678.47,-307.83 675.15,-297.77 669.6,-302.03"/>
</g>
<!-- Node22 -->
<g id="node22" class="node">
<title>Node22</title>
<g id="a_node22"><a xlink:href="classSensorsTimer.html#abc377178c2471f664b31658554963e83" target="_top" xlink:title="Actions à executer pour le timer.">
<polygon fill="white" stroke="black" points="226.5,-55 226.5,-74 356.5,-74 356.5,-55 226.5,-55"/>
<text text-anchor="middle" x="291.5" y="-62" font-family="Helvetica,sans-Serif" font-size="10.00">SensorsTimer::onTimer</text>
</a>
</g>
</g>
<!-- Node8&#45;&gt;Node22 -->
<g id="edge21" class="edge">
<title>Node8&#45;&gt;Node22</title>
<path fill="none" stroke="midnightblue" d="M679.27,-298.14C665.72,-259.25 629.71,-171.63 568,-127.5 558.62,-120.79 414.44,-89.96 338.5,-74.05"/>
<polygon fill="midnightblue" stroke="midnightblue" points="675.99,-299.37 682.5,-307.73 682.63,-297.14 675.99,-299.37"/>
</g>
<!-- Node23 -->
<g id="node23" class="node">
<title>Node23</title>
<g id="a_node23"><a xlink:href="classO__State__Init.html#a1980cd82dcb83e88d61f2e7e14dddfa0" target="_top" xlink:title=" ">
<polygon fill="white" stroke="black" points="435,-137 435,-156 549,-156 549,-137 435,-137"/>
<text text-anchor="middle" x="492" y="-144" font-family="Helvetica,sans-Serif" font-size="10.00">O_State_Init::setPos</text>
</a>
</g>
</g>
<!-- Node8&#45;&gt;Node23 -->
<g id="edge22" class="edge">
<title>Node8&#45;&gt;Node23</title>
<path fill="none" stroke="midnightblue" d="M676.29,-298.61C659.47,-266.16 620.6,-199.99 568,-165.5 562.05,-161.6 555.34,-158.49 548.46,-156.03"/>
<polygon fill="midnightblue" stroke="midnightblue" points="673.34,-300.53 680.97,-307.88 679.59,-297.37 673.34,-300.53"/>
</g>
<!-- Node25 -->
<g id="node25" class="node">
<title>Node25</title>
<g id="a_node25"><a xlink:href="classRobot.html#a7c2c32badf138c2a26b82068447c3c98" target="_top" xlink:title="Fonctions de motion intelligente en plusieurs essais.">
<polygon fill="white" stroke="black" points="436.5,-555 436.5,-574 547.5,-574 547.5,-555 436.5,-555"/>
<text text-anchor="middle" x="492" y="-562" font-family="Helvetica,sans-Serif" font-size="10.00">Robot::whileDoLine</text>
</a>
</g>
</g>
<!-- Node8&#45;&gt;Node25 -->
<g id="edge24" class="edge">
<title>Node8&#45;&gt;Node25</title>
<path fill="none" stroke="midnightblue" d="M680.65,-337.02C668.93,-380.18 634.94,-484.37 568,-540.5 560.46,-546.82 551.22,-551.49 541.85,-554.93"/>
<polygon fill="midnightblue" stroke="midnightblue" points="684.08,-337.76 683.22,-327.2 677.3,-335.99 684.08,-337.76"/>
</g>
<!-- Node26 -->
<g id="node26" class="node">
<title>Node26</title>
<g id="a_node26"><a xlink:href="classIAbyPath.html#a42570f6bc87216c2ac5d028ad596fe02" target="_top" xlink:title=" ">
<polygon fill="white" stroke="black" points="211,-333 211,-352 372,-352 372,-333 211,-333"/>
<text text-anchor="middle" x="291.5" y="-340" font-family="Helvetica,sans-Serif" font-size="10.00">IAbyPath::whileMoveRotateTo</text>
</a>
</g>
</g>
<!-- Node8&#45;&gt;Node26 -->
<g id="edge27" class="edge">
<title>Node8&#45;&gt;Node26</title>
<path fill="none" stroke="midnightblue" d="M593.45,-323.36C526.35,-327.62 436.34,-333.35 372.29,-337.42"/>
<polygon fill="midnightblue" stroke="midnightblue" points="593.84,-326.84 603.59,-322.71 593.39,-319.85 593.84,-326.84"/>
</g>
<!-- Node13 -->
<g id="node13" class="node">
<title>Node13</title>
<g id="a_node13"><a xlink:href="classAsserv.html#af438189501d475dcb6632ce63efe5e5f" target="_top" xlink:title=" ">
<polygon fill="white" stroke="black" points="211,-371.5 211,-401.5 372,-401.5 372,-371.5 211,-371.5"/>
<text text-anchor="start" x="219" y="-389.5" font-family="Helvetica,sans-Serif" font-size="10.00">Asserv::doMoveBackwardAnd</text>
<text text-anchor="middle" x="291.5" y="-378.5" font-family="Helvetica,sans-Serif" font-size="10.00">RotateTo</text>
</a>
</g>
</g>
<!-- Node12&#45;&gt;Node13 -->
<g id="edge12" class="edge">
<title>Node12&#45;&gt;Node13</title>
<path fill="none" stroke="midnightblue" d="M405.82,-379.65C394.69,-380.32 383.32,-381.01 372.29,-381.68"/>
<polygon fill="midnightblue" stroke="midnightblue" points="406.19,-383.13 415.96,-379.04 405.76,-376.15 406.19,-383.13"/>
</g>
<!-- Node12&#45;&gt;Node14 -->
<g id="edge13" class="edge">
<title>Node12&#45;&gt;Node14</title>
<path fill="none" stroke="midnightblue" d="M436.39,-386.86C429.46,-388.86 422.51,-391.08 416,-393.5 399.23,-399.73 396.87,-405.56 380,-411.5 369.44,-415.22 357.9,-418.35 346.77,-420.93"/>
<polygon fill="midnightblue" stroke="midnightblue" points="437.77,-390.11 446.49,-384.09 435.92,-383.36 437.77,-390.11"/>
</g>
<!-- Node15 -->
<g id="node15" class="node">
<title>Node15</title>
<g id="a_node15"><a xlink:href="classIAbyPath.html#a9535c82f137778cc6cd4b159fe3d58ea" target="_top" xlink:title=" ">
<polygon fill="white" stroke="black" points="0,-361.5 0,-391.5 167,-391.5 167,-361.5 0,-361.5"/>
<text text-anchor="start" x="8" y="-379.5" font-family="Helvetica,sans-Serif" font-size="10.00">IAbyPath::whileMoveBackward</text>
<text text-anchor="middle" x="83.5" y="-368.5" font-family="Helvetica,sans-Serif" font-size="10.00">AndRotateTo</text>
</a>
</g>
</g>
<!-- Node14&#45;&gt;Node15 -->
<g id="edge14" class="edge">
<title>Node14&#45;&gt;Node15</title>
<path fill="none" stroke="midnightblue" d="M233.52,-418.76C223.33,-416.48 212.83,-414.01 203,-411.5 179.62,-405.52 153.9,-398.03 132.42,-391.52"/>
<polygon fill="midnightblue" stroke="midnightblue" points="233.06,-422.24 243.58,-420.97 234.56,-415.41 233.06,-422.24"/>
</g>
<!-- Node17 -->
<g id="node17" class="node">
<title>Node17</title>
<g id="a_node17"><a xlink:href="classAsserv.html#a0a57aa0008a30ba9b13502e4dd61310d" target="_top" xlink:title=" ">
<polygon fill="white" stroke="black" points="215.5,-283.5 215.5,-313.5 367.5,-313.5 367.5,-283.5 215.5,-283.5"/>
<text text-anchor="start" x="223.5" y="-301.5" font-family="Helvetica,sans-Serif" font-size="10.00">Asserv::doMoveForwardAnd</text>
<text text-anchor="middle" x="291.5" y="-290.5" font-family="Helvetica,sans-Serif" font-size="10.00">RotateTo</text>
</a>
</g>
</g>
<!-- Node16&#45;&gt;Node17 -->
<g id="edge16" class="edge">
<title>Node16&#45;&gt;Node17</title>
<path fill="none" stroke="midnightblue" d="M410.28,-298.5C396.14,-298.5 381.49,-298.5 367.52,-298.5"/>
<polygon fill="midnightblue" stroke="midnightblue" points="410.46,-302 420.46,-298.5 410.46,-295 410.46,-302"/>
</g>
<!-- Node16&#45;&gt;Node18 -->
<g id="edge17" class="edge">
<title>Node16&#45;&gt;Node18</title>
<path fill="none" stroke="midnightblue" d="M437.84,-286.72C405.79,-279.61 365.51,-270.68 335.49,-264.03"/>
<polygon fill="midnightblue" stroke="midnightblue" points="437.41,-290.21 447.93,-288.95 438.92,-283.37 437.41,-290.21"/>
</g>
<!-- Node19 -->
<g id="node19" class="node">
<title>Node19</title>
<g id="a_node19"><a xlink:href="classIAbyPath.html#a3f27b793f84340c99ca33e12c2380bb4" target="_top" xlink:title=" ">
<polygon fill="white" stroke="black" points="4.5,-293.5 4.5,-323.5 162.5,-323.5 162.5,-293.5 4.5,-293.5"/>
<text text-anchor="start" x="12.5" y="-311.5" font-family="Helvetica,sans-Serif" font-size="10.00">IAbyPath::whileMoveForward</text>
<text text-anchor="middle" x="83.5" y="-300.5" font-family="Helvetica,sans-Serif" font-size="10.00">AndRotateTo</text>
</a>
</g>
</g>
<!-- Node18&#45;&gt;Node19 -->
<g id="edge18" class="edge">
<title>Node18&#45;&gt;Node19</title>
<path fill="none" stroke="midnightblue" d="M236.7,-266.31C225.53,-268.9 213.86,-271.7 203,-274.5 180.41,-280.32 155.57,-287.35 134.5,-293.5"/>
<polygon fill="midnightblue" stroke="midnightblue" points="237.8,-269.65 246.77,-264 236.24,-262.82 237.8,-269.65"/>
</g>
<!-- Node24 -->
<g id="node24" class="node">
<title>Node24</title>
<g id="a_node24"><a xlink:href="classO__State__Init.html#abc19788b7457d1f819245dd28367fe91" target="_top" xlink:title="Exécute l&#39;état d&#39;initialisation.">
<polygon fill="white" stroke="black" points="231.5,-137 231.5,-156 351.5,-156 351.5,-137 231.5,-137"/>
<text text-anchor="middle" x="291.5" y="-144" font-family="Helvetica,sans-Serif" font-size="10.00">O_State_Init::execute</text>
</a>
</g>
</g>
<!-- Node23&#45;&gt;Node24 -->
<g id="edge23" class="edge">
<title>Node23&#45;&gt;Node24</title>
<path fill="none" stroke="midnightblue" d="M424.62,-146.5C400.99,-146.5 374.55,-146.5 351.56,-146.5"/>
<polygon fill="midnightblue" stroke="midnightblue" points="424.91,-150 434.91,-146.5 424.91,-143 424.91,-150"/>
</g>
<!-- Node26&#45;&gt;Node15 -->
<g id="edge28" class="edge">
<title>Node26&#45;&gt;Node15</title>
<path fill="none" stroke="midnightblue" d="M222.61,-353.71C204.88,-356.63 185.57,-359.82 167.17,-362.86"/>
<polygon fill="midnightblue" stroke="midnightblue" points="223.55,-357.1 232.84,-352.02 222.41,-350.19 223.55,-357.1"/>
</g>
<!-- Node26&#45;&gt;Node19 -->
<g id="edge29" class="edge">
<title>Node26&#45;&gt;Node19</title>
<path fill="none" stroke="midnightblue" d="M222.94,-331.35C203.63,-328.16 182.43,-324.66 162.56,-321.38"/>
<polygon fill="midnightblue" stroke="midnightblue" points="222.41,-334.81 232.84,-332.98 223.55,-327.9 222.41,-334.81"/>
</g>
<!-- Node28 -->
<g id="node28" class="node">
<title>Node28</title>
<g id="a_node28"><a xlink:href="classAsservEsialR.html#afd68af9e59ff80e079d3b080516be850" target="_top" xlink:title="Interrompt la trajectoire en cours (arret d&#39;urgence logiciel).">
<polygon fill="white" stroke="black" points="812,-115.5 812,-145.5 924,-145.5 924,-115.5 812,-115.5"/>
<text text-anchor="start" x="820" y="-133.5" font-family="Helvetica,sans-Serif" font-size="10.00">AsservEsialR::path</text>
<text text-anchor="middle" x="868" y="-122.5" font-family="Helvetica,sans-Serif" font-size="10.00">_InterruptTrajectory</text>
</a>
</g>
</g>
<!-- Node27&#45;&gt;Node28 -->
<g id="edge31" class="edge">
<title>Node27&#45;&gt;Node28</title>
<path fill="none" stroke="midnightblue" d="M1048.33,-214.59C1009.36,-196.31 941.16,-164.33 901.04,-145.52"/>
<polygon fill="midnightblue" stroke="midnightblue" points="1047.04,-217.85 1057.58,-218.92 1050.01,-211.51 1047.04,-217.85"/>
</g>
<!-- Node29 -->
<g id="node29" class="node">
<title>Node29</title>
<g id="a_node29"><a xlink:href="classAsserv.html#a312602d6bf6f8591937e4d0003497bbb" target="_top" xlink:title=" ">
<polygon fill="white" stroke="black" points="613.5,-55 613.5,-74 759.5,-74 759.5,-55 613.5,-55"/>
<text text-anchor="middle" x="686.5" y="-62" font-family="Helvetica,sans-Serif" font-size="10.00">Asserv::setEmergencyStop</text>
</a>
</g>
</g>
<!-- Node28&#45;&gt;Node29 -->
<g id="edge32" class="edge">
<title>Node28&#45;&gt;Node29</title>
<path fill="none" stroke="midnightblue" d="M816.19,-111.82C782.72,-99.51 740.28,-83.91 713.49,-74.06"/>
<polygon fill="midnightblue" stroke="midnightblue" points="815.23,-115.19 825.82,-115.36 817.64,-108.62 815.23,-115.19"/>
</g>
<!-- Node30 -->
<g id="node30" class="node">
<title>Node30</title>
<g id="a_node30"><a xlink:href="classAsserv.html#ae8c86b1f9cfe795e8c9aad3e7e4ea40c" target="_top" xlink:title=" ">
<polygon fill="white" stroke="black" points="417,-0.5 417,-30.5 567,-30.5 567,-0.5 417,-0.5"/>
<text text-anchor="start" x="425" y="-18.5" font-family="Helvetica,sans-Serif" font-size="10.00">Asserv::warnBackDetection</text>
<text text-anchor="middle" x="492" y="-7.5" font-family="Helvetica,sans-Serif" font-size="10.00">OnTraj</text>
</a>
</g>
</g>
<!-- Node29&#45;&gt;Node30 -->
<g id="edge33" class="edge">
<title>Node29&#45;&gt;Node30</title>
<path fill="none" stroke="midnightblue" d="M637.96,-52.4C612,-45.79 579.64,-37.55 552.07,-30.54"/>
<polygon fill="midnightblue" stroke="midnightblue" points="637.37,-55.86 647.93,-54.94 639.1,-49.08 637.37,-55.86"/>
</g>
<!-- Node31 -->
<g id="node31" class="node">
<title>Node31</title>
<g id="a_node31"><a xlink:href="classAsserv.html#a959dc45e49f920c77e62a11b75a15641" target="_top" xlink:title=" ">
<polygon fill="white" stroke="black" points="416.5,-49.5 416.5,-79.5 567.5,-79.5 567.5,-49.5 416.5,-49.5"/>
<text text-anchor="start" x="424.5" y="-67.5" font-family="Helvetica,sans-Serif" font-size="10.00">Asserv::warnFrontDetection</text>
<text text-anchor="middle" x="492" y="-56.5" font-family="Helvetica,sans-Serif" font-size="10.00">OnTraj</text>
</a>
</g>
</g>
<!-- Node29&#45;&gt;Node31 -->
<g id="edge35" class="edge">
<title>Node29&#45;&gt;Node31</title>
<path fill="none" stroke="midnightblue" d="M603.01,-64.5C591.23,-64.5 579.17,-64.5 567.56,-64.5"/>
<polygon fill="midnightblue" stroke="midnightblue" points="603.27,-68 613.27,-64.5 603.27,-61 603.27,-68"/>
</g>
<!-- Node30&#45;&gt;Node22 -->
<g id="edge34" class="edge">
<title>Node30&#45;&gt;Node22</title>
<path fill="none" stroke="midnightblue" d="M420.09,-33C390.1,-40.41 356.35,-48.74 331.1,-54.97"/>
<polygon fill="midnightblue" stroke="midnightblue" points="421.22,-36.33 430.09,-30.53 419.55,-29.53 421.22,-36.33"/>
</g>
<!-- Node31&#45;&gt;Node22 -->
<g id="edge36" class="edge">
<title>Node31&#45;&gt;Node22</title>
<path fill="none" stroke="midnightblue" d="M406.05,-64.5C389.54,-64.5 372.5,-64.5 356.8,-64.5"/>
<polygon fill="midnightblue" stroke="midnightblue" points="406.24,-68 416.24,-64.5 406.24,-61 406.24,-68"/>
</g>
</g>
</svg>
        <g id="navigator" transform="translate(0 0)" fill="#404254">
                <rect fill="#f2f5e9" fill-opacity="0.5" stroke="#606060" stroke-width=".5" x="0" y="0" width="60" height="60"/>
                <use id="zoomplus" xlink:href="#zoomPlus" x="17" y="9" onmousedown="handleZoom(evt,'in')"/>
                <use id="zoomminus" xlink:href="#zoomMin" x="42" y="9" onmousedown="handleZoom(evt,'out')"/>
                <use id="reset" xlink:href="#resetDef" x="30" y="36" onmousedown="handleReset()"/>
                <g id="arrowUp" xlink:href="#dirArrow" transform="translate(30 24)" onmousedown="handlePan(0,-1)">
                  <use xlink:href="#rim" fill="#404040">
                        <set attributeName="fill" to="#808080" begin="arrowUp.mouseover" end="arrowUp.mouseout"/>
                  </use>
                  <path fill="none" stroke="white" stroke-width="1.5" d="M0,-3.0v7 M-2.5,-0.5L0,-3.0L2.5,-0.5"/>
                </g>
                <g id="arrowRight" xlink:href="#dirArrow" transform="rotate(90) translate(36 -43)" onmousedown="handlePan(1,0)">
                  <use xlink:href="#rim" fill="#404040">
                        <set attributeName="fill" to="#808080" begin="arrowRight.mouseover" end="arrowRight.mouseout"/>
                  </use>
                  <path fill="none" stroke="white" stroke-width="1.5" d="M0,-3.0v7 M-2.5,-0.5L0,-3.0L2.5,-0.5"/>
                </g>
                <g id="arrowDown" xlink:href="#dirArrow" transform="rotate(180) translate(-30 -48)" onmousedown="handlePan(0,1)">
                  <use xlink:href="#rim" fill="#404040">
                        <set attributeName="fill" to="#808080" begin="arrowDown.mouseover" end="arrowDown.mouseout"/>
                  </use>
                  <path fill="none" stroke="white" stroke-width="1.5" d="M0,-3.0v7 M-2.5,-0.5L0,-3.0L2.5,-0.5"/>
                </g>
                <g id="arrowLeft" xlink:href="#dirArrow" transform="rotate(270) translate(-36 17)" onmousedown="handlePan(-1,0)">
                  <use xlink:href="#rim" fill="#404040">
                        <set attributeName="fill" to="#808080" begin="arrowLeft.mouseover" end="arrowLeft.mouseout"/>
                  </use>
                  <path fill="none" stroke="white" stroke-width="1.5" d="M0,-3.0v7 M-2.5,-0.5L0,-3.0L2.5,-0.5"/>
                </g>
        </g>
        <svg viewBox="0 0 15 15" width="100%" height="30px" preserveAspectRatio="xMaxYMin meet">
         <g id="arrow_out" transform="scale(0.3 0.3)">
          <a xlink:href="classConsignController_a3a5321a1a47cdea48f269e28a0eaec98_icgraph_org.svg" target="_base">
           <rect id="button" ry="5" rx="5" y="6" x="6" height="38" width="38"
                fill="#f2f5e9" fill-opacity="0.5" stroke="#606060" stroke-width="1.0"/>
           <path id="arrow"
             d="M 11.500037,31.436501 C 11.940474,20.09759 22.043105,11.32322 32.158766,21.979434 L 37.068811,17.246167 C 37.068811,17.246167 37.088388,32 37.088388,32 L 22.160133,31.978069 C 22.160133,31.978069 26.997745,27.140456 26.997745,27.140456 C 18.528582,18.264221 13.291696,25.230495 11.500037,31.436501 z"
             style="fill:#404040;"/>
          </a>
         </g>
        </svg>
</svg>
