<?xml version="1.0" encoding="UTF-8" standalone="no"?>
<!DOCTYPE svg PUBLIC "-//W3C//DTD SVG 1.1//EN"
 "http://www.w3.org/Graphics/SVG/1.1/DTD/svg11.dtd">
<!-- Generated by graphviz version 2.43.0 (0)
 -->
<!-- Title: ALcdShieldDriver::create Pages: 1 -->
<svg width="355pt" height="78pt"
 viewBox="0.00 0.00 355.00 77.50" xmlns="http://www.w3.org/2000/svg" xmlns:xlink="http://www.w3.org/1999/xlink">
<g id="graph0" class="graph" transform="scale(1 1) rotate(0) translate(4 73.5)">
<title>ALcdShieldDriver::create</title>
<polygon fill="white" stroke="transparent" points="-4,4 -4,-73.5 351,-73.5 351,4 -4,4"/>
<!-- Node1 -->
<g id="node1" class="node">
<title>Node1</title>
<g id="a_node1"><a xlink:title="Cree l&#39;instance concrete selon la plateforme.">
<polygon fill="#bfbfbf" stroke="black" points="210,-28 210,-47 347,-47 347,-28 210,-28"/>
<text text-anchor="middle" x="278.5" y="-35" font-family="Helvetica,sans-Serif" font-size="10.00">ALcdShieldDriver::create</text>
</a>
</g>
</g>
<!-- Node2 -->
<g id="node2" class="node">
<title>Node2</title>
<g id="a_node2"><a xlink:href="classLcdShield.html#adf69aee9cba76742905ec98b0c3902d5" target="_top" xlink:title="Constructor.">
<polygon fill="white" stroke="black" points="29,-50 29,-69 145,-69 145,-50 29,-50"/>
<text text-anchor="middle" x="87" y="-57" font-family="Helvetica,sans-Serif" font-size="10.00">LcdShield::LcdShield</text>
</a>
</g>
</g>
<!-- Node1&#45;&gt;Node2 -->
<g id="edge1" class="edge">
<title>Node1&#45;&gt;Node2</title>
<path fill="none" stroke="midnightblue" d="M199.85,-46.52C181.58,-48.64 162.43,-50.86 145.25,-52.85"/>
<polygon fill="midnightblue" stroke="midnightblue" points="200.36,-49.98 209.89,-45.35 199.55,-43.03 200.36,-49.98"/>
</g>
<!-- Node3 -->
<g id="node3" class="node">
<title>Node3</title>
<g id="a_node3"><a xlink:href="classtest_1_1LcdShieldDriverManualTest.html#a22c3d9b8b720aeb7b0d12d0f001d7e9d" target="_top" xlink:title="Constructeur de la classe.">
<polygon fill="white" stroke="black" points="0,-0.5 0,-30.5 174,-30.5 174,-0.5 0,-0.5"/>
<text text-anchor="start" x="8" y="-18.5" font-family="Helvetica,sans-Serif" font-size="10.00">test::LcdShieldDriverManual</text>
<text text-anchor="middle" x="87" y="-7.5" font-family="Helvetica,sans-Serif" font-size="10.00">Test::LcdShieldDriverManualTest</text>
</a>
</g>
</g>
<!-- Node1&#45;&gt;Node3 -->
<g id="edge2" class="edge">
<title>Node1&#45;&gt;Node3</title>
<path fill="none" stroke="midnightblue" d="M199.71,-28.47C191.28,-27.49 182.66,-26.49 174.13,-25.5"/>
<polygon fill="midnightblue" stroke="midnightblue" points="199.55,-31.97 209.89,-29.65 200.36,-25.02 199.55,-31.97"/>
</g>
</g>
</svg>
