<?xml version="1.0" encoding="UTF-8" standalone="no"?>
<!DOCTYPE svg PUBLIC "-//W3C//DTD SVG 1.1//EN"
 "http://www.w3.org/Graphics/SVG/1.1/DTD/svg11.dtd">
<!-- Generated by graphviz version 2.43.0 (0)
 -->
<!-- Title: CCAx12Teensy::getADC Pages: 1 -->
<svg width="901pt" height="241pt"
 viewBox="0.00 0.00 901.00 240.50" xmlns="http://www.w3.org/2000/svg" xmlns:xlink="http://www.w3.org/1999/xlink">
<g id="graph0" class="graph" transform="scale(1 1) rotate(0) translate(4 236.5)">
<title>CCAx12Teensy::getADC</title>
<polygon fill="white" stroke="transparent" points="-4,4 -4,-236.5 897,-236.5 897,4 -4,4"/>
<!-- Node1 -->
<g id="node1" class="node">
<title>Node1</title>
<g id="a_node1"><a xlink:title=" ">
<polygon fill="#bfbfbf" stroke="black" points="0,-156 0,-175 131,-175 131,-156 0,-156"/>
<text text-anchor="middle" x="65.5" y="-163" font-family="Helvetica,sans-Serif" font-size="10.00">CCAx12Teensy::getADC</text>
</a>
</g>
</g>
<!-- Node2 -->
<g id="node2" class="node">
<title>Node2</title>
<g id="a_node2"><a xlink:href="classCCAx12Teensy.html#a98a5bc2869f48da225f059c3932854a6" target="_top" xlink:title=" ">
<polygon fill="white" stroke="black" points="167,-175 167,-194 310,-194 310,-175 167,-175"/>
<text text-anchor="middle" x="238.5" y="-182" font-family="Helvetica,sans-Serif" font-size="10.00">CCAx12Teensy::checkCRC</text>
</a>
</g>
</g>
<!-- Node1&#45;&gt;Node2 -->
<g id="edge1" class="edge">
<title>Node1&#45;&gt;Node2</title>
<path fill="none" stroke="midnightblue" d="M131.15,-172.68C139.51,-173.61 148.15,-174.57 156.73,-175.53"/>
<polygon fill="midnightblue" stroke="midnightblue" points="156.43,-179.01 166.76,-176.64 157.21,-172.06 156.43,-179.01"/>
</g>
<!-- Node3 -->
<g id="node3" class="node">
<title>Node3</title>
<g id="a_node3"><a xlink:href="classCCAx12Teensy.html#a77ecf8adfa575bf2cd703ad7a81ac2fa" target="_top" xlink:title=" ">
<polygon fill="white" stroke="black" points="346,-213 346,-232 503,-232 503,-213 346,-213"/>
<text text-anchor="middle" x="424.5" y="-220" font-family="Helvetica,sans-Serif" font-size="10.00">CCAx12Teensy::computeCRC</text>
</a>
</g>
</g>
<!-- Node1&#45;&gt;Node3 -->
<g id="edge16" class="edge">
<title>Node1&#45;&gt;Node3</title>
<path fill="none" stroke="midnightblue" d="M86.76,-175.14C106.69,-184.15 138.22,-197.13 167,-203.5 222.27,-215.73 285.7,-220.5 335.65,-222.21"/>
<polygon fill="midnightblue" stroke="midnightblue" points="335.67,-225.71 345.78,-222.52 335.89,-218.72 335.67,-225.71"/>
</g>
<!-- Node16 -->
<g id="node16" class="node">
<title>Node16</title>
<g id="a_node16"><a xlink:href="classCCAx12Teensy.html#ae11f86551ca5874f6b483a1855bdd45e" target="_top" xlink:title=" ">
<polygon fill="white" stroke="black" points="173,-137 173,-156 304,-156 304,-137 173,-137"/>
<text text-anchor="middle" x="238.5" y="-144" font-family="Helvetica,sans-Serif" font-size="10.00">CCAx12Teensy::readI2C</text>
</a>
</g>
</g>
<!-- Node1&#45;&gt;Node16 -->
<g id="edge17" class="edge">
<title>Node1&#45;&gt;Node16</title>
<path fill="none" stroke="midnightblue" d="M131.15,-158.32C141.47,-157.17 152.22,-155.98 162.75,-154.81"/>
<polygon fill="midnightblue" stroke="midnightblue" points="163.21,-158.28 172.76,-153.69 162.44,-151.32 163.21,-158.28"/>
</g>
<!-- Node17 -->
<g id="node17" class="node">
<title>Node17</title>
<g id="a_node17"><a xlink:href="classCCAx12Teensy.html#a7eb997ae64a29488b34d6917b4600955" target="_top" xlink:title="‍**VERSION CHAFF INO">
<polygon fill="white" stroke="black" points="171.5,-99 171.5,-118 305.5,-118 305.5,-99 171.5,-99"/>
<text text-anchor="middle" x="238.5" y="-106" font-family="Helvetica,sans-Serif" font-size="10.00">CCAx12Teensy::writeI2C</text>
</a>
</g>
</g>
<!-- Node1&#45;&gt;Node17 -->
<g id="edge18" class="edge">
<title>Node1&#45;&gt;Node17</title>
<path fill="none" stroke="midnightblue" d="M89.82,-155.93C110.05,-147.82 140.2,-136.16 167,-127.5 174.21,-125.17 181.9,-122.89 189.45,-120.77"/>
<polygon fill="midnightblue" stroke="midnightblue" points="190.53,-124.1 199.25,-118.08 188.68,-117.35 190.53,-124.1"/>
</g>
<!-- Node2&#45;&gt;Node3 -->
<g id="edge2" class="edge">
<title>Node2&#45;&gt;Node3</title>
<path fill="none" stroke="midnightblue" d="M285.93,-194.09C310.65,-199.19 341.24,-205.51 367.29,-210.89"/>
<polygon fill="midnightblue" stroke="midnightblue" points="366.9,-214.39 377.4,-212.98 368.32,-207.53 366.9,-214.39"/>
</g>
<!-- Node4 -->
<g id="node4" class="node">
<title>Node4</title>
<g id="a_node4"><a xlink:href="namespacelogs.html#ac6f325c6cfe6189bc8e243daa184453b" target="_top" xlink:title="Cette méthode permet de finir les flux de construction par la notation.">
<polygon fill="white" stroke="black" points="394,-175 394,-194 455,-194 455,-175 394,-175"/>
<text text-anchor="middle" x="424.5" y="-182" font-family="Helvetica,sans-Serif" font-size="10.00">logs::end</text>
</a>
</g>
</g>
<!-- Node2&#45;&gt;Node4 -->
<g id="edge3" class="edge">
<title>Node2&#45;&gt;Node4</title>
<path fill="none" stroke="midnightblue" d="M310.11,-184.5C335.02,-184.5 362.15,-184.5 383.62,-184.5"/>
<polygon fill="midnightblue" stroke="midnightblue" points="383.67,-188 393.67,-184.5 383.67,-181 383.67,-188"/>
</g>
<!-- Node9 -->
<g id="node9" class="node">
<title>Node9</title>
<g id="a_node9"><a xlink:href="classlogs_1_1Logger.html#a8b6a2019233bc44b3c3c86c653910831" target="_top" xlink:title="Trace un message de niveau ERROR.">
<polygon fill="white" stroke="black" points="570.5,-137 570.5,-156 675.5,-156 675.5,-137 570.5,-137"/>
<text text-anchor="middle" x="623" y="-144" font-family="Helvetica,sans-Serif" font-size="10.00">logs::Logger::error</text>
</a>
</g>
</g>
<!-- Node2&#45;&gt;Node9 -->
<g id="edge8" class="edge">
<title>Node2&#45;&gt;Node9</title>
<path fill="none" stroke="midnightblue" d="M286.52,-174.99C304.99,-171.54 326.43,-167.91 346,-165.5 419.37,-156.46 504.29,-151.42 560.34,-148.84"/>
<polygon fill="midnightblue" stroke="midnightblue" points="560.63,-152.33 570.46,-148.39 560.32,-145.34 560.63,-152.33"/>
</g>
<!-- Node10 -->
<g id="node10" class="node">
<title>Node10</title>
<g id="a_node10"><a xlink:href="classCCAx12Teensy.html#a69dda9749fd75bc7fcf5a8416d7560ab" target="_top" xlink:title="Retourne le Logger associé à la classe CCAx12Teensy (EV3).">
<polygon fill="white" stroke="black" points="362,-99 362,-118 487,-118 487,-99 362,-99"/>
<text text-anchor="middle" x="424.5" y="-106" font-family="Helvetica,sans-Serif" font-size="10.00">CCAx12Teensy::logger</text>
</a>
</g>
</g>
<!-- Node2&#45;&gt;Node10 -->
<g id="edge10" class="edge">
<title>Node2&#45;&gt;Node10</title>
<path fill="none" stroke="midnightblue" d="M287.36,-174.95C295.18,-172.45 303,-169.35 310,-165.5 329.02,-155.04 327.18,-143.31 346,-132.5 353.72,-128.07 362.35,-124.36 370.98,-121.29"/>
<polygon fill="midnightblue" stroke="midnightblue" points="372.27,-124.55 380.66,-118.09 370.07,-117.91 372.27,-124.55"/>
</g>
<!-- Node5 -->
<g id="node5" class="node">
<title>Node5</title>
<g id="a_node5"><a xlink:href="classlogs_1_1Logger_1_1LoggerBuffer.html#a0e4fd77693fd899ec1b0670354f93a02" target="_top" xlink:title="Cette méthode valide le message en cours de construction et le transmet au Logger de référence.">
<polygon fill="white" stroke="black" points="539,-175 539,-194 707,-194 707,-175 539,-175"/>
<text text-anchor="middle" x="623" y="-182" font-family="Helvetica,sans-Serif" font-size="10.00">logs::Logger::LoggerBuffer::end</text>
</a>
</g>
</g>
<!-- Node4&#45;&gt;Node5 -->
<g id="edge4" class="edge">
<title>Node4&#45;&gt;Node5</title>
<path fill="none" stroke="midnightblue" d="M455.34,-184.5C475.05,-184.5 502.05,-184.5 528.57,-184.5"/>
<polygon fill="midnightblue" stroke="midnightblue" points="528.7,-188 538.7,-184.5 528.7,-181 528.7,-188"/>
</g>
<!-- Node6 -->
<g id="node6" class="node">
<title>Node6</title>
<g id="a_node6"><a xlink:href="classutils_1_1Mutex.html#aa584b418a5ef484f76b93e361a1d7e32" target="_top" xlink:title="Verrouille le mutex. Cette méthode doit être appelée avant d&#39;utiliser la ressource associée....">
<polygon fill="white" stroke="black" points="767.5,-213 767.5,-232 868.5,-232 868.5,-213 767.5,-213"/>
<text text-anchor="middle" x="818" y="-220" font-family="Helvetica,sans-Serif" font-size="10.00">utils::Mutex::lock</text>
</a>
</g>
</g>
<!-- Node5&#45;&gt;Node6 -->
<g id="edge5" class="edge">
<title>Node5&#45;&gt;Node6</title>
<path fill="none" stroke="midnightblue" d="M672.7,-194.09C698.86,-199.24 731.28,-205.62 758.77,-211.03"/>
<polygon fill="midnightblue" stroke="midnightblue" points="758.16,-214.48 768.65,-212.98 759.51,-207.61 758.16,-214.48"/>
</g>
<!-- Node7 -->
<g id="node7" class="node">
<title>Node7</title>
<g id="a_node7"><a xlink:href="classutils_1_1Mutex.html#a59b2079dc7f803d49f78ac9c04406cd3" target="_top" xlink:title="Déverrouille le mutex. Cette méthode doit être appelée après avoir utiliser la ressource associée.">
<polygon fill="white" stroke="black" points="761.5,-175 761.5,-194 874.5,-194 874.5,-175 761.5,-175"/>
<text text-anchor="middle" x="818" y="-182" font-family="Helvetica,sans-Serif" font-size="10.00">utils::Mutex::unlock</text>
</a>
</g>
</g>
<!-- Node5&#45;&gt;Node7 -->
<g id="edge6" class="edge">
<title>Node5&#45;&gt;Node7</title>
<path fill="none" stroke="midnightblue" d="M707.25,-184.5C721.94,-184.5 737.06,-184.5 751.19,-184.5"/>
<polygon fill="midnightblue" stroke="midnightblue" points="751.29,-188 761.29,-184.5 751.29,-181 751.29,-188"/>
</g>
<!-- Node8 -->
<g id="node8" class="node">
<title>Node8</title>
<g id="a_node8"><a xlink:href="classlogs_1_1Logger.html#afa535aaf4891e02c4ff7f84d372b5b1b" target="_top" xlink:title="Méthode générique de trace d&#39;un message.">
<polygon fill="white" stroke="black" points="743,-137 743,-156 893,-156 893,-137 743,-137"/>
<text text-anchor="middle" x="818" y="-144" font-family="Helvetica,sans-Serif" font-size="10.00">logs::Logger::writeMessage</text>
</a>
</g>
</g>
<!-- Node5&#45;&gt;Node8 -->
<g id="edge7" class="edge">
<title>Node5&#45;&gt;Node8</title>
<path fill="none" stroke="midnightblue" d="M672.7,-174.91C698.86,-169.76 731.28,-163.38 758.77,-157.97"/>
<polygon fill="midnightblue" stroke="midnightblue" points="759.51,-161.39 768.65,-156.02 758.16,-154.52 759.51,-161.39"/>
</g>
<!-- Node9&#45;&gt;Node8 -->
<g id="edge9" class="edge">
<title>Node9&#45;&gt;Node8</title>
<path fill="none" stroke="midnightblue" d="M675.72,-146.5C693.22,-146.5 713.23,-146.5 732.59,-146.5"/>
<polygon fill="midnightblue" stroke="midnightblue" points="732.64,-150 742.64,-146.5 732.64,-143 732.64,-150"/>
</g>
<!-- Node11 -->
<g id="node11" class="node">
<title>Node11</title>
<g id="a_node11"><a xlink:href="classCCAx12Teensy.html#af38c8b46ecf7752d5e3971484aeaac92" target="_top" xlink:title=" ">
<polygon fill="white" stroke="black" points="555.5,-99 555.5,-118 690.5,-118 690.5,-99 555.5,-99"/>
<text text-anchor="middle" x="623" y="-106" font-family="Helvetica,sans-Serif" font-size="10.00">CCAx12Teensy::instance</text>
</a>
</g>
</g>
<!-- Node10&#45;&gt;Node11 -->
<g id="edge11" class="edge">
<title>Node10&#45;&gt;Node11</title>
<path fill="none" stroke="midnightblue" d="M487.13,-108.5C505.55,-108.5 525.96,-108.5 545.22,-108.5"/>
<polygon fill="midnightblue" stroke="midnightblue" points="545.48,-112 555.48,-108.5 545.48,-105 545.48,-112"/>
</g>
<!-- Node12 -->
<g id="node12" class="node">
<title>Node12</title>
<g id="a_node12"><a xlink:href="classlogs_1_1LoggerFactory.html#a82585b5de73e471e06cafdccc3b3721e" target="_top" xlink:title="Cette méthode statique retourne un Logger en fonction de son nom.">
<polygon fill="white" stroke="black" points="567.5,-49.5 567.5,-79.5 678.5,-79.5 678.5,-49.5 567.5,-49.5"/>
<text text-anchor="start" x="575.5" y="-67.5" font-family="Helvetica,sans-Serif" font-size="10.00">logs::LoggerFactory</text>
<text text-anchor="middle" x="623" y="-56.5" font-family="Helvetica,sans-Serif" font-size="10.00">::logger</text>
</a>
</g>
</g>
<!-- Node10&#45;&gt;Node12 -->
<g id="edge12" class="edge">
<title>Node10&#45;&gt;Node12</title>
<path fill="none" stroke="midnightblue" d="M468.14,-98.95C494.3,-93.09 528.31,-85.48 557.7,-78.9"/>
<polygon fill="midnightblue" stroke="midnightblue" points="558.48,-82.31 567.47,-76.71 556.95,-75.48 558.48,-82.31"/>
</g>
<!-- Node13 -->
<g id="node13" class="node">
<title>Node13</title>
<g id="a_node13"><a xlink:href="classlogs_1_1LoggerFactory.html#ac89f19c0ffd71aa8cdc1c2d44c03809e" target="_top" xlink:title="Cette méthode ajoute un appender au système.">
<polygon fill="white" stroke="black" points="751,-99 751,-118 885,-118 885,-99 751,-99"/>
<text text-anchor="middle" x="818" y="-106" font-family="Helvetica,sans-Serif" font-size="10.00">logs::LoggerFactory::add</text>
</a>
</g>
</g>
<!-- Node12&#45;&gt;Node13 -->
<g id="edge13" class="edge">
<title>Node12&#45;&gt;Node13</title>
<path fill="none" stroke="midnightblue" d="M678.53,-76.93C705.71,-83.13 738.41,-90.58 765.21,-96.69"/>
<polygon fill="midnightblue" stroke="midnightblue" points="764.64,-100.15 775.16,-98.96 766.19,-93.33 764.64,-100.15"/>
</g>
<!-- Node14 -->
<g id="node14" class="node">
<title>Node14</title>
<g id="a_node14"><a xlink:href="classlogs_1_1LoggerFactory.html#a90478b91d7af2ef8841ded21e3521f69" target="_top" xlink:title="Cette méthode statique retourne l&#39;instance unique de la classe LoggerFactory.">
<polygon fill="white" stroke="black" points="762.5,-49.5 762.5,-79.5 873.5,-79.5 873.5,-49.5 762.5,-49.5"/>
<text text-anchor="start" x="770.5" y="-67.5" font-family="Helvetica,sans-Serif" font-size="10.00">logs::LoggerFactory</text>
<text text-anchor="middle" x="818" y="-56.5" font-family="Helvetica,sans-Serif" font-size="10.00">::instance</text>
</a>
</g>
</g>
<!-- Node12&#45;&gt;Node14 -->
<g id="edge14" class="edge">
<title>Node12&#45;&gt;Node14</title>
<path fill="none" stroke="midnightblue" d="M678.53,-64.5C701.45,-64.5 728.3,-64.5 752.22,-64.5"/>
<polygon fill="midnightblue" stroke="midnightblue" points="752.27,-68 762.27,-64.5 752.27,-61 752.27,-68"/>
</g>
<!-- Node15 -->
<g id="node15" class="node">
<title>Node15</title>
<g id="a_node15"><a xlink:href="classlogs_1_1LoggerFactory.html#a212aa623f4b6bee12cb39e8017dde670" target="_top" xlink:title="Cette méthode retourne le Logger principal qui définit le niveau de trace par défaut.">
<polygon fill="white" stroke="black" points="762.5,-0.5 762.5,-30.5 873.5,-30.5 873.5,-0.5 762.5,-0.5"/>
<text text-anchor="start" x="770.5" y="-18.5" font-family="Helvetica,sans-Serif" font-size="10.00">logs::LoggerFactory</text>
<text text-anchor="middle" x="818" y="-7.5" font-family="Helvetica,sans-Serif" font-size="10.00">::rootLogger</text>
</a>
</g>
</g>
<!-- Node12&#45;&gt;Node15 -->
<g id="edge15" class="edge">
<title>Node12&#45;&gt;Node15</title>
<path fill="none" stroke="midnightblue" d="M678.53,-50.66C701.56,-44.81 728.54,-37.96 752.54,-31.87"/>
<polygon fill="midnightblue" stroke="midnightblue" points="753.44,-35.25 762.27,-29.4 751.71,-28.46 753.44,-35.25"/>
</g>
</g>
</svg>
