<?xml version="1.0" encoding="UTF-8" standalone="no"?>
<!DOCTYPE svg PUBLIC "-//W3C//DTD SVG 1.1//EN"
 "http://www.w3.org/Graphics/SVG/1.1/DTD/svg11.dtd">
<!-- Generated by graphviz version 2.43.0 (0)
 -->
<!-- Title: SvgWriter::SvgWriter Pages: 1 -->
<svg width="705pt" height="241pt"
 viewBox="0.00 0.00 705.00 240.50" xmlns="http://www.w3.org/2000/svg" xmlns:xlink="http://www.w3.org/1999/xlink">
<g id="graph0" class="graph" transform="scale(1 1) rotate(0) translate(4 236.5)">
<title>SvgWriter::SvgWriter</title>
<polygon fill="white" stroke="transparent" points="-4,4 -4,-236.5 701,-236.5 701,4 -4,4"/>
<!-- Node1 -->
<g id="node1" class="node">
<title>Node1</title>
<g id="a_node1"><a xlink:title="Constructeur de la classe.">
<polygon fill="#bfbfbf" stroke="black" points="0,-115 0,-134 119,-134 119,-115 0,-115"/>
<text text-anchor="middle" x="59.5" y="-122" font-family="Helvetica,sans-Serif" font-size="10.00">SvgWriter::SvgWriter</text>
</a>
</g>
</g>
<!-- Node2 -->
<g id="node2" class="node">
<title>Node2</title>
<g id="a_node2"><a xlink:href="namespacelogs.html#ac6f325c6cfe6189bc8e243daa184453b" target="_top" xlink:title="Cette méthode permet de finir les flux de construction par la notation.">
<polygon fill="white" stroke="black" points="200.5,-175 200.5,-194 261.5,-194 261.5,-175 200.5,-175"/>
<text text-anchor="middle" x="231" y="-182" font-family="Helvetica,sans-Serif" font-size="10.00">logs::end</text>
</a>
</g>
</g>
<!-- Node1&#45;&gt;Node2 -->
<g id="edge1" class="edge">
<title>Node1&#45;&gt;Node2</title>
<path fill="none" stroke="midnightblue" d="M80.04,-134.09C98.9,-143.07 128.43,-156.44 155,-165.5 166.41,-169.39 179.03,-172.89 190.62,-175.79"/>
<polygon fill="midnightblue" stroke="midnightblue" points="189.93,-179.22 200.47,-178.18 191.58,-172.42 189.93,-179.22"/>
</g>
<!-- Node7 -->
<g id="node7" class="node">
<title>Node7</title>
<g id="a_node7"><a xlink:href="classlogs_1_1Logger.html#aa381165771d00a6a1e3aa9664bf6467f" target="_top" xlink:title="Trace un message de niveau INFO.">
<polygon fill="white" stroke="black" points="180.5,-137 180.5,-156 281.5,-156 281.5,-137 180.5,-137"/>
<text text-anchor="middle" x="231" y="-144" font-family="Helvetica,sans-Serif" font-size="10.00">logs::Logger::info</text>
</a>
</g>
</g>
<!-- Node1&#45;&gt;Node7 -->
<g id="edge6" class="edge">
<title>Node1&#45;&gt;Node7</title>
<path fill="none" stroke="midnightblue" d="M119.31,-132.13C135.78,-134.27 153.69,-136.6 170.22,-138.74"/>
<polygon fill="midnightblue" stroke="midnightblue" points="169.94,-142.23 180.3,-140.05 170.84,-135.29 169.94,-142.23"/>
</g>
<!-- Node8 -->
<g id="node8" class="node">
<title>Node8</title>
<g id="a_node8"><a xlink:href="classlogs_1_1LoggerFactory.html#a82585b5de73e471e06cafdccc3b3721e" target="_top" xlink:title="Cette méthode statique retourne un Logger en fonction de son nom.">
<polygon fill="white" stroke="black" points="175.5,-87.5 175.5,-117.5 286.5,-117.5 286.5,-87.5 175.5,-87.5"/>
<text text-anchor="start" x="183.5" y="-105.5" font-family="Helvetica,sans-Serif" font-size="10.00">logs::LoggerFactory</text>
<text text-anchor="middle" x="231" y="-94.5" font-family="Helvetica,sans-Serif" font-size="10.00">::logger</text>
</a>
</g>
</g>
<!-- Node1&#45;&gt;Node8 -->
<g id="edge8" class="edge">
<title>Node1&#45;&gt;Node8</title>
<path fill="none" stroke="midnightblue" d="M119.31,-116.87C134.07,-114.95 149.99,-112.88 165.03,-110.93"/>
<polygon fill="midnightblue" stroke="midnightblue" points="165.81,-114.36 175.28,-109.6 164.91,-107.42 165.81,-114.36"/>
</g>
<!-- Node12 -->
<g id="node12" class="node">
<title>Node12</title>
<g id="a_node12"><a xlink:href="classSvgWriter.html#ab74e6447bcb7ce52ecba9f9f0c5907b7" target="_top" xlink:title="Retourne le logger dédié aux capteurs SVG.">
<polygon fill="white" stroke="black" points="155,-49 155,-68 307,-68 307,-49 155,-49"/>
<text text-anchor="middle" x="231" y="-56" font-family="Helvetica,sans-Serif" font-size="10.00">SvgWriter::loggerSvgSensor</text>
</a>
</g>
</g>
<!-- Node1&#45;&gt;Node12 -->
<g id="edge12" class="edge">
<title>Node1&#45;&gt;Node12</title>
<path fill="none" stroke="midnightblue" d="M77.48,-115C96.06,-104.89 126.96,-88.95 155,-78.5 162.54,-75.69 170.64,-73.1 178.64,-70.79"/>
<polygon fill="midnightblue" stroke="midnightblue" points="179.59,-74.15 188.29,-68.1 177.72,-67.41 179.59,-74.15"/>
</g>
<!-- Node3 -->
<g id="node3" class="node">
<title>Node3</title>
<g id="a_node3"><a xlink:href="classlogs_1_1Logger_1_1LoggerBuffer.html#a0e4fd77693fd899ec1b0670354f93a02" target="_top" xlink:title="Cette méthode valide le message en cours de construction et le transmet au Logger de référence.">
<polygon fill="white" stroke="black" points="343,-175 343,-194 511,-194 511,-175 343,-175"/>
<text text-anchor="middle" x="427" y="-182" font-family="Helvetica,sans-Serif" font-size="10.00">logs::Logger::LoggerBuffer::end</text>
</a>
</g>
</g>
<!-- Node2&#45;&gt;Node3 -->
<g id="edge2" class="edge">
<title>Node2&#45;&gt;Node3</title>
<path fill="none" stroke="midnightblue" d="M261.89,-184.5C281.03,-184.5 307.01,-184.5 332.65,-184.5"/>
<polygon fill="midnightblue" stroke="midnightblue" points="332.83,-188 342.83,-184.5 332.83,-181 332.83,-188"/>
</g>
<!-- Node4 -->
<g id="node4" class="node">
<title>Node4</title>
<g id="a_node4"><a xlink:href="classutils_1_1Mutex.html#aa584b418a5ef484f76b93e361a1d7e32" target="_top" xlink:title="Verrouille le mutex. Cette méthode doit être appelée avant d&#39;utiliser la ressource associée....">
<polygon fill="white" stroke="black" points="571.5,-213 571.5,-232 672.5,-232 672.5,-213 571.5,-213"/>
<text text-anchor="middle" x="622" y="-220" font-family="Helvetica,sans-Serif" font-size="10.00">utils::Mutex::lock</text>
</a>
</g>
</g>
<!-- Node3&#45;&gt;Node4 -->
<g id="edge3" class="edge">
<title>Node3&#45;&gt;Node4</title>
<path fill="none" stroke="midnightblue" d="M476.7,-194.09C502.86,-199.24 535.28,-205.62 562.77,-211.03"/>
<polygon fill="midnightblue" stroke="midnightblue" points="562.16,-214.48 572.65,-212.98 563.51,-207.61 562.16,-214.48"/>
</g>
<!-- Node5 -->
<g id="node5" class="node">
<title>Node5</title>
<g id="a_node5"><a xlink:href="classutils_1_1Mutex.html#a59b2079dc7f803d49f78ac9c04406cd3" target="_top" xlink:title="Déverrouille le mutex. Cette méthode doit être appelée après avoir utiliser la ressource associée.">
<polygon fill="white" stroke="black" points="565.5,-175 565.5,-194 678.5,-194 678.5,-175 565.5,-175"/>
<text text-anchor="middle" x="622" y="-182" font-family="Helvetica,sans-Serif" font-size="10.00">utils::Mutex::unlock</text>
</a>
</g>
</g>
<!-- Node3&#45;&gt;Node5 -->
<g id="edge4" class="edge">
<title>Node3&#45;&gt;Node5</title>
<path fill="none" stroke="midnightblue" d="M511.25,-184.5C525.94,-184.5 541.06,-184.5 555.19,-184.5"/>
<polygon fill="midnightblue" stroke="midnightblue" points="555.29,-188 565.29,-184.5 555.29,-181 555.29,-188"/>
</g>
<!-- Node6 -->
<g id="node6" class="node">
<title>Node6</title>
<g id="a_node6"><a xlink:href="classlogs_1_1Logger.html#afa535aaf4891e02c4ff7f84d372b5b1b" target="_top" xlink:title="Méthode générique de trace d&#39;un message.">
<polygon fill="white" stroke="black" points="547,-137 547,-156 697,-156 697,-137 547,-137"/>
<text text-anchor="middle" x="622" y="-144" font-family="Helvetica,sans-Serif" font-size="10.00">logs::Logger::writeMessage</text>
</a>
</g>
</g>
<!-- Node3&#45;&gt;Node6 -->
<g id="edge5" class="edge">
<title>Node3&#45;&gt;Node6</title>
<path fill="none" stroke="midnightblue" d="M476.7,-174.91C502.86,-169.76 535.28,-163.38 562.77,-157.97"/>
<polygon fill="midnightblue" stroke="midnightblue" points="563.51,-161.39 572.65,-156.02 562.16,-154.52 563.51,-161.39"/>
</g>
<!-- Node7&#45;&gt;Node6 -->
<g id="edge7" class="edge">
<title>Node7&#45;&gt;Node6</title>
<path fill="none" stroke="midnightblue" d="M281.66,-146.5C345.86,-146.5 458.62,-146.5 536.43,-146.5"/>
<polygon fill="midnightblue" stroke="midnightblue" points="536.7,-150 546.7,-146.5 536.7,-143 536.7,-150"/>
</g>
<!-- Node9 -->
<g id="node9" class="node">
<title>Node9</title>
<g id="a_node9"><a xlink:href="classlogs_1_1LoggerFactory.html#ac89f19c0ffd71aa8cdc1c2d44c03809e" target="_top" xlink:title="Cette méthode ajoute un appender au système.">
<polygon fill="white" stroke="black" points="360,-99 360,-118 494,-118 494,-99 360,-99"/>
<text text-anchor="middle" x="427" y="-106" font-family="Helvetica,sans-Serif" font-size="10.00">logs::LoggerFactory::add</text>
</a>
</g>
</g>
<!-- Node8&#45;&gt;Node9 -->
<g id="edge9" class="edge">
<title>Node8&#45;&gt;Node9</title>
<path fill="none" stroke="midnightblue" d="M286.56,-104.19C306.11,-104.79 328.52,-105.49 349.58,-106.14"/>
<polygon fill="midnightblue" stroke="midnightblue" points="349.69,-109.64 359.79,-106.45 349.91,-102.64 349.69,-109.64"/>
</g>
<!-- Node10 -->
<g id="node10" class="node">
<title>Node10</title>
<g id="a_node10"><a xlink:href="classlogs_1_1LoggerFactory.html#a90478b91d7af2ef8841ded21e3521f69" target="_top" xlink:title="Cette méthode statique retourne l&#39;instance unique de la classe LoggerFactory.">
<polygon fill="white" stroke="black" points="371.5,-49.5 371.5,-79.5 482.5,-79.5 482.5,-49.5 371.5,-49.5"/>
<text text-anchor="start" x="379.5" y="-67.5" font-family="Helvetica,sans-Serif" font-size="10.00">logs::LoggerFactory</text>
<text text-anchor="middle" x="427" y="-56.5" font-family="Helvetica,sans-Serif" font-size="10.00">::instance</text>
</a>
</g>
</g>
<!-- Node8&#45;&gt;Node10 -->
<g id="edge10" class="edge">
<title>Node8&#45;&gt;Node10</title>
<path fill="none" stroke="midnightblue" d="M286.56,-91.81C309.8,-87.26 337.1,-81.91 361.35,-77.16"/>
<polygon fill="midnightblue" stroke="midnightblue" points="362.04,-80.59 371.18,-75.24 360.69,-73.73 362.04,-80.59"/>
</g>
<!-- Node11 -->
<g id="node11" class="node">
<title>Node11</title>
<g id="a_node11"><a xlink:href="classlogs_1_1LoggerFactory.html#a212aa623f4b6bee12cb39e8017dde670" target="_top" xlink:title="Cette méthode retourne le Logger principal qui définit le niveau de trace par défaut.">
<polygon fill="white" stroke="black" points="371.5,-0.5 371.5,-30.5 482.5,-30.5 482.5,-0.5 371.5,-0.5"/>
<text text-anchor="start" x="379.5" y="-18.5" font-family="Helvetica,sans-Serif" font-size="10.00">logs::LoggerFactory</text>
<text text-anchor="middle" x="427" y="-7.5" font-family="Helvetica,sans-Serif" font-size="10.00">::rootLogger</text>
</a>
</g>
</g>
<!-- Node8&#45;&gt;Node11 -->
<g id="edge11" class="edge">
<title>Node8&#45;&gt;Node11</title>
<path fill="none" stroke="midnightblue" d="M286.67,-87.73C293.76,-84.83 300.72,-81.44 307,-77.5 326.43,-65.3 323.39,-52.41 343,-40.5 348.79,-36.98 355.11,-33.93 361.6,-31.29"/>
<polygon fill="midnightblue" stroke="midnightblue" points="363.03,-34.49 371.17,-27.7 360.58,-27.93 363.03,-34.49"/>
</g>
</g>
</svg>
