<?xml version="1.0" encoding="UTF-8" standalone="no"?>
<!DOCTYPE svg PUBLIC "-//W3C//DTD SVG 1.1//EN"
 "http://www.w3.org/Graphics/SVG/1.1/DTD/svg11.dtd">
<!-- Generated by graphviz version 2.43.0 (0)
 -->
<!-- Title: OPOS6UL_ActionsExtended::sensors Pages: 1 -->
<!--zoomable 268 -->
<svg id="main" version="1.1" xmlns="http://www.w3.org/2000/svg" xmlns:xlink="http://www.w3.org/1999/xlink" xml:space="preserve" onload="init(evt)">
<style type="text/css"><![CDATA[
.edge:hover path { stroke: red; }
.edge:hover polygon { stroke: red; fill: red; }
]]></style>
<script type="text/javascript"><![CDATA[
var edges = document.getElementsByTagName('g');
if (edges && edges.length) {
  for (var i=0;i<edges.length;i++) {
    if (edges[i].id.substr(0,4)=='edge') {
      edges[i].setAttribute('class','edge');
    }
  }
}
]]></script>
        <defs>
                <circle id="rim" cx="0" cy="0" r="7"/>
                <circle id="rim2" cx="0" cy="0" r="3.5"/>
                <g id="zoomPlus">
                        <use xlink:href="#rim" fill="#404040">
                                <set attributeName="fill" to="#808080" begin="zoomplus.mouseover" end="zoomplus.mouseout"/>
                        </use>
                        <path d="M-4,0h8M0,-4v8" fill="none" stroke="white" stroke-width="1.5" pointer-events="none"/>
                </g>
                <g id="zoomMin">
                        <use xlink:href="#rim" fill="#404040">
                                <set attributeName="fill" to="#808080" begin="zoomminus.mouseover" end="zoomminus.mouseout"/>
                        </use>
                        <path d="M-4,0h8" fill="none" stroke="white" stroke-width="1.5" pointer-events="none"/>
                </g>
                <g id="dirArrow">
                        <path fill="none" stroke="white" stroke-width="1.5" d="M0,-3.0v7 M-2.5,-0.5L0,-3.0L2.5,-0.5"/>
                </g>
               <g id="resetDef">
                       <use xlink:href="#rim2" fill="#404040">
                               <set attributeName="fill" to="#808080" begin="reset.mouseover" end="reset.mouseout"/>
                       </use>
               </g>
        </defs>

<script type="text/javascript">
var viewWidth = 724;
var viewHeight = 268;
var sectionId = 'dynsection-38';
</script>
<script xlink:href="svgpan.js"/>
<svg id="graph" class="graph">
<g id="viewport">
<title>OPOS6UL_ActionsExtended::sensors</title>
<polygon fill="white" stroke="transparent" points="-4,4 -4,-263.9 720,-263.9 720,4 -4,4"/>
<!-- Node1 -->
<g id="node1" class="node">
<title>Node1</title>
<g id="a_node1"><a xlink:title="Cette methode retourne l&#39;objet lanceur.">
<polygon fill="#bfbfbf" stroke="black" points="567,-109 567,-139 716,-139 716,-109 567,-109"/>
<text text-anchor="start" x="575" y="-127" font-family="Helvetica,sans-Serif" font-size="10.00">OPOS6UL_ActionsExtended</text>
<text text-anchor="middle" x="641.5" y="-116" font-family="Helvetica,sans-Serif" font-size="10.00">::sensors</text>
</a>
</g>
</g>
<!-- Node2 -->
<g id="node2" class="node">
<title>Node2</title>
<g id="a_node2"><a xlink:href="classO__State__DecisionMakerIA.html#a96d1f2a7618d607fd10cc51b9111e653" target="_top" xlink:title="Execute l&#39;action.">
<polygon fill="white" stroke="black" points="0,-191 0,-221 142,-221 142,-191 0,-191"/>
<text text-anchor="start" x="8" y="-209" font-family="Helvetica,sans-Serif" font-size="10.00">O_State_DecisionMakerIA</text>
<text text-anchor="middle" x="71" y="-198" font-family="Helvetica,sans-Serif" font-size="10.00">::execute</text>
</a>
</g>
</g>
<!-- Node1&#45;&gt;Node2 -->
<g id="edge1" class="edge">
<title>Node1&#45;&gt;Node2</title>
<path fill="none" stroke="midnightblue" d="M625.24,-147.26C606.59,-173.33 572.35,-214.15 531,-231 389.66,-288.59 203.32,-246.18 118.11,-221.04"/>
<polygon fill="midnightblue" stroke="midnightblue" points="628.12,-149.25 630.96,-139.04 622.37,-145.25 628.12,-149.25"/>
</g>
<!-- Node3 -->
<g id="node3" class="node">
<title>Node3</title>
<g id="a_node3"><a xlink:href="classO__State__WaitEndOfMatch.html#aa73613440b37c8dd42181e2e0265ae86" target="_top" xlink:title="Exécute l&#39;état d&#39;attente de fin de match.">
<polygon fill="white" stroke="black" points="390,-191 390,-221 531,-221 531,-191 390,-191"/>
<text text-anchor="start" x="398" y="-209" font-family="Helvetica,sans-Serif" font-size="10.00">O_State_WaitEndOfMatch</text>
<text text-anchor="middle" x="460.5" y="-198" font-family="Helvetica,sans-Serif" font-size="10.00">::execute</text>
</a>
</g>
</g>
<!-- Node1&#45;&gt;Node3 -->
<g id="edge2" class="edge">
<title>Node1&#45;&gt;Node3</title>
<path fill="none" stroke="midnightblue" d="M605.05,-144C583.9,-155.54 556.31,-169.92 531,-181 523.13,-184.45 514.62,-187.8 506.34,-190.87"/>
<polygon fill="midnightblue" stroke="midnightblue" points="606.92,-146.97 613.99,-139.08 603.54,-140.84 606.92,-146.97"/>
</g>
<!-- Node4 -->
<g id="node4" class="node">
<title>Node4</title>
<g id="a_node4"><a xlink:href="O__State__DecisionMakerIA_8cpp.html#a6af4b40e5e676265dd688e0004be0ff6" target="_top" xlink:title="Action de fin de match : rejoint la zone de fin en haut de table.">
<polygon fill="white" stroke="black" points="401,-152.5 401,-171.5 520,-171.5 520,-152.5 401,-152.5"/>
<text text-anchor="middle" x="460.5" y="-159.5" font-family="Helvetica,sans-Serif" font-size="10.00">O_end_of_match_top</text>
</a>
</g>
</g>
<!-- Node1&#45;&gt;Node4 -->
<g id="edge3" class="edge">
<title>Node1&#45;&gt;Node4</title>
<path fill="none" stroke="midnightblue" d="M559.89,-141.11C541.46,-145.02 522.53,-149.04 506.25,-152.5"/>
<polygon fill="midnightblue" stroke="midnightblue" points="560.7,-144.52 569.75,-139.02 559.25,-137.67 560.7,-144.52"/>
</g>
<!-- Node7 -->
<g id="node7" class="node">
<title>Node7</title>
<g id="a_node7"><a xlink:href="O__State__DecisionMakerIA_8cpp.html#a1cbc5f5cba5f72b993c68f4aad4473f7" target="_top" xlink:title="Action de poussée de la prise en zone basse.">
<polygon fill="white" stroke="black" points="408.5,-114.5 408.5,-133.5 512.5,-133.5 512.5,-114.5 408.5,-114.5"/>
<text text-anchor="middle" x="460.5" y="-121.5" font-family="Helvetica,sans-Serif" font-size="10.00">O_push_prise_bas</text>
</a>
</g>
</g>
<!-- Node1&#45;&gt;Node7 -->
<g id="edge8" class="edge">
<title>Node1&#45;&gt;Node7</title>
<path fill="none" stroke="midnightblue" d="M556.59,-124C541.6,-124 526.39,-124 512.67,-124"/>
<polygon fill="midnightblue" stroke="midnightblue" points="556.92,-127.5 566.92,-124 556.92,-120.5 556.92,-127.5"/>
</g>
<!-- Node8 -->
<g id="node8" class="node">
<title>Node8</title>
<g id="a_node8"><a xlink:href="classO__IAByPathTest.html#a3f57f585ff1382a52bf7f79a28d43629" target="_top" xlink:title="Execute le test.">
<polygon fill="white" stroke="black" points="403.5,-76.5 403.5,-95.5 517.5,-95.5 517.5,-76.5 403.5,-76.5"/>
<text text-anchor="middle" x="460.5" y="-83.5" font-family="Helvetica,sans-Serif" font-size="10.00">O_IAByPathTest::run</text>
</a>
</g>
</g>
<!-- Node1&#45;&gt;Node8 -->
<g id="edge9" class="edge">
<title>Node1&#45;&gt;Node8</title>
<path fill="none" stroke="midnightblue" d="M559.89,-106.89C541.46,-102.98 522.53,-98.96 506.25,-95.5"/>
<polygon fill="midnightblue" stroke="midnightblue" points="559.25,-110.33 569.75,-108.98 560.7,-103.48 559.25,-110.33"/>
</g>
<!-- Node9 -->
<g id="node9" class="node">
<title>Node9</title>
<g id="a_node9"><a xlink:href="classO__SensorsTest.html#ae3b998034225e16586ded4ba3bd419e5" target="_top" xlink:title="Execute le test.">
<polygon fill="white" stroke="black" points="406,-38.5 406,-57.5 515,-57.5 515,-38.5 406,-38.5"/>
<text text-anchor="middle" x="460.5" y="-45.5" font-family="Helvetica,sans-Serif" font-size="10.00">O_SensorsTest::run</text>
</a>
</g>
</g>
<!-- Node1&#45;&gt;Node9 -->
<g id="edge10" class="edge">
<title>Node1&#45;&gt;Node9</title>
<path fill="none" stroke="midnightblue" d="M606.21,-103.74C585.06,-91.85 557.07,-77.22 531,-67 521.8,-63.4 511.66,-60.21 502.03,-57.52"/>
<polygon fill="midnightblue" stroke="midnightblue" points="604.7,-106.9 615.12,-108.81 608.16,-100.82 604.7,-106.9"/>
</g>
<!-- Node10 -->
<g id="node10" class="node">
<title>Node10</title>
<g id="a_node10"><a xlink:href="classO__State__Init.html#a1980cd82dcb83e88d61f2e7e14dddfa0" target="_top" xlink:title=" ">
<polygon fill="white" stroke="black" points="403.5,-0.5 403.5,-19.5 517.5,-19.5 517.5,-0.5 403.5,-0.5"/>
<text text-anchor="middle" x="460.5" y="-7.5" font-family="Helvetica,sans-Serif" font-size="10.00">O_State_Init::setPos</text>
</a>
</g>
</g>
<!-- Node1&#45;&gt;Node10 -->
<g id="edge11" class="edge">
<title>Node1&#45;&gt;Node10</title>
<path fill="none" stroke="midnightblue" d="M620.27,-101.35C599.79,-79.75 566.19,-47.8 531,-29 523.83,-25.17 515.82,-22.06 507.86,-19.55"/>
<polygon fill="midnightblue" stroke="midnightblue" points="617.83,-103.86 627.2,-108.8 622.95,-99.09 617.83,-103.86"/>
</g>
<!-- Node5 -->
<g id="node5" class="node">
<title>Node5</title>
<g id="a_node5"><a xlink:href="classO__State__DecisionMakerIA.html#a9b35f6bac1a5602ec2a711fa280be4a6" target="_top" xlink:title="Configure les activités pour les zones de jeu du match.">
<polygon fill="white" stroke="black" points="195,-191 195,-221 337,-221 337,-191 195,-191"/>
<text text-anchor="start" x="203" y="-209" font-family="Helvetica,sans-Serif" font-size="10.00">O_State_DecisionMakerIA</text>
<text text-anchor="middle" x="266" y="-198" font-family="Helvetica,sans-Serif" font-size="10.00">::IASetupActivitiesZone</text>
</a>
</g>
</g>
<!-- Node4&#45;&gt;Node5 -->
<g id="edge4" class="edge">
<title>Node4&#45;&gt;Node5</title>
<path fill="none" stroke="midnightblue" d="M407.82,-173.81C384.79,-179.08 357.39,-185.34 332.91,-190.93"/>
<polygon fill="midnightblue" stroke="midnightblue" points="408.76,-177.19 417.73,-171.55 407.2,-170.36 408.76,-177.19"/>
</g>
<!-- Node6 -->
<g id="node6" class="node">
<title>Node6</title>
<g id="a_node6"><a xlink:href="classO__State__DecisionMakerIA.html#a8bd1c4d72bec8768c7c7c15bd2e665d8" target="_top" xlink:title="Configure les activités pour le mode test de la table.">
<polygon fill="white" stroke="black" points="178,-142 178,-172 354,-172 354,-142 178,-142"/>
<text text-anchor="start" x="186" y="-160" font-family="Helvetica,sans-Serif" font-size="10.00">O_State_DecisionMakerIA</text>
<text text-anchor="middle" x="266" y="-149" font-family="Helvetica,sans-Serif" font-size="10.00">::IASetupActivitiesZoneTableTest</text>
</a>
</g>
</g>
<!-- Node4&#45;&gt;Node6 -->
<g id="edge6" class="edge">
<title>Node4&#45;&gt;Node6</title>
<path fill="none" stroke="midnightblue" d="M390.77,-160.21C378.97,-159.91 366.56,-159.59 354.35,-159.27"/>
<polygon fill="midnightblue" stroke="midnightblue" points="390.87,-163.72 400.96,-160.48 391.05,-156.72 390.87,-163.72"/>
</g>
<!-- Node5&#45;&gt;Node2 -->
<g id="edge5" class="edge">
<title>Node5&#45;&gt;Node2</title>
<path fill="none" stroke="midnightblue" d="M184.62,-206C170.52,-206 155.96,-206 142.17,-206"/>
<polygon fill="midnightblue" stroke="midnightblue" points="184.78,-209.5 194.78,-206 184.78,-202.5 184.78,-209.5"/>
</g>
<!-- Node6&#45;&gt;Node2 -->
<g id="edge7" class="edge">
<title>Node6&#45;&gt;Node2</title>
<path fill="none" stroke="midnightblue" d="M195.88,-174.55C174.68,-179.93 151.57,-185.8 131.11,-190.99"/>
<polygon fill="midnightblue" stroke="midnightblue" points="196.95,-177.89 205.78,-172.03 195.23,-171.1 196.95,-177.89"/>
</g>
<!-- Node11 -->
<g id="node11" class="node">
<title>Node11</title>
<g id="a_node11"><a xlink:href="classO__State__Init.html#abc19788b7457d1f819245dd28367fe91" target="_top" xlink:title="Exécute l&#39;état d&#39;initialisation.">
<polygon fill="white" stroke="black" points="206,-0.5 206,-19.5 326,-19.5 326,-0.5 206,-0.5"/>
<text text-anchor="middle" x="266" y="-7.5" font-family="Helvetica,sans-Serif" font-size="10.00">O_State_Init::execute</text>
</a>
</g>
</g>
<!-- Node10&#45;&gt;Node11 -->
<g id="edge12" class="edge">
<title>Node10&#45;&gt;Node11</title>
<path fill="none" stroke="midnightblue" d="M393.17,-10C371.44,-10 347.46,-10 326.28,-10"/>
<polygon fill="midnightblue" stroke="midnightblue" points="393.3,-13.5 403.3,-10 393.3,-6.5 393.3,-13.5"/>
</g>
</g>
</svg>
        <g id="navigator" transform="translate(0 0)" fill="#404254">
                <rect fill="#f2f5e9" fill-opacity="0.5" stroke="#606060" stroke-width=".5" x="0" y="0" width="60" height="60"/>
                <use id="zoomplus" xlink:href="#zoomPlus" x="17" y="9" onmousedown="handleZoom(evt,'in')"/>
                <use id="zoomminus" xlink:href="#zoomMin" x="42" y="9" onmousedown="handleZoom(evt,'out')"/>
                <use id="reset" xlink:href="#resetDef" x="30" y="36" onmousedown="handleReset()"/>
                <g id="arrowUp" xlink:href="#dirArrow" transform="translate(30 24)" onmousedown="handlePan(0,-1)">
                  <use xlink:href="#rim" fill="#404040">
                        <set attributeName="fill" to="#808080" begin="arrowUp.mouseover" end="arrowUp.mouseout"/>
                  </use>
                  <path fill="none" stroke="white" stroke-width="1.5" d="M0,-3.0v7 M-2.5,-0.5L0,-3.0L2.5,-0.5"/>
                </g>
                <g id="arrowRight" xlink:href="#dirArrow" transform="rotate(90) translate(36 -43)" onmousedown="handlePan(1,0)">
                  <use xlink:href="#rim" fill="#404040">
                        <set attributeName="fill" to="#808080" begin="arrowRight.mouseover" end="arrowRight.mouseout"/>
                  </use>
                  <path fill="none" stroke="white" stroke-width="1.5" d="M0,-3.0v7 M-2.5,-0.5L0,-3.0L2.5,-0.5"/>
                </g>
                <g id="arrowDown" xlink:href="#dirArrow" transform="rotate(180) translate(-30 -48)" onmousedown="handlePan(0,1)">
                  <use xlink:href="#rim" fill="#404040">
                        <set attributeName="fill" to="#808080" begin="arrowDown.mouseover" end="arrowDown.mouseout"/>
                  </use>
                  <path fill="none" stroke="white" stroke-width="1.5" d="M0,-3.0v7 M-2.5,-0.5L0,-3.0L2.5,-0.5"/>
                </g>
                <g id="arrowLeft" xlink:href="#dirArrow" transform="rotate(270) translate(-36 17)" onmousedown="handlePan(-1,0)">
                  <use xlink:href="#rim" fill="#404040">
                        <set attributeName="fill" to="#808080" begin="arrowLeft.mouseover" end="arrowLeft.mouseout"/>
                  </use>
                  <path fill="none" stroke="white" stroke-width="1.5" d="M0,-3.0v7 M-2.5,-0.5L0,-3.0L2.5,-0.5"/>
                </g>
        </g>
        <svg viewBox="0 0 15 15" width="100%" height="30px" preserveAspectRatio="xMaxYMin meet">
         <g id="arrow_out" transform="scale(0.3 0.3)">
          <a xlink:href="classOPOS6UL__ActionsExtended_a3475484a307a07d60fd57fb9f49be8f5_icgraph_org.svg" target="_base">
           <rect id="button" ry="5" rx="5" y="6" x="6" height="38" width="38"
                fill="#f2f5e9" fill-opacity="0.5" stroke="#606060" stroke-width="1.0"/>
           <path id="arrow"
             d="M 11.500037,31.436501 C 11.940474,20.09759 22.043105,11.32322 32.158766,21.979434 L 37.068811,17.246167 C 37.068811,17.246167 37.088388,32 37.088388,32 L 22.160133,31.978069 C 22.160133,31.978069 26.997745,27.140456 26.997745,27.140456 C 18.528582,18.264221 13.291696,25.230495 11.500037,31.436501 z"
             style="fill:#404040;"/>
          </a>
         </g>
        </svg>
</svg>
