<?xml version="1.0" encoding="UTF-8" standalone="no"?>
<!DOCTYPE svg PUBLIC "-//W3C//DTD SVG 1.1//EN"
 "http://www.w3.org/Graphics/SVG/1.1/DTD/svg11.dtd">
<!-- Generated by graphviz version 2.43.0 (0)
 -->
<!-- Title: ConsignController::setQuadRamp_Dist Pages: 1 -->
<!--zoomable 659 -->
<svg id="main" version="1.1" xmlns="http://www.w3.org/2000/svg" xmlns:xlink="http://www.w3.org/1999/xlink" xml:space="preserve" onload="init(evt)">
<style type="text/css"><![CDATA[
.edge:hover path { stroke: red; }
.edge:hover polygon { stroke: red; fill: red; }
]]></style>
<script type="text/javascript"><![CDATA[
var edges = document.getElementsByTagName('g');
if (edges && edges.length) {
  for (var i=0;i<edges.length;i++) {
    if (edges[i].id.substr(0,4)=='edge') {
      edges[i].setAttribute('class','edge');
    }
  }
}
]]></script>
        <defs>
                <circle id="rim" cx="0" cy="0" r="7"/>
                <circle id="rim2" cx="0" cy="0" r="3.5"/>
                <g id="zoomPlus">
                        <use xlink:href="#rim" fill="#404040">
                                <set attributeName="fill" to="#808080" begin="zoomplus.mouseover" end="zoomplus.mouseout"/>
                        </use>
                        <path d="M-4,0h8M0,-4v8" fill="none" stroke="white" stroke-width="1.5" pointer-events="none"/>
                </g>
                <g id="zoomMin">
                        <use xlink:href="#rim" fill="#404040">
                                <set attributeName="fill" to="#808080" begin="zoomminus.mouseover" end="zoomminus.mouseout"/>
                        </use>
                        <path d="M-4,0h8" fill="none" stroke="white" stroke-width="1.5" pointer-events="none"/>
                </g>
                <g id="dirArrow">
                        <path fill="none" stroke="white" stroke-width="1.5" d="M0,-3.0v7 M-2.5,-0.5L0,-3.0L2.5,-0.5"/>
                </g>
               <g id="resetDef">
                       <use xlink:href="#rim2" fill="#404040">
                               <set attributeName="fill" to="#808080" begin="reset.mouseover" end="reset.mouseout"/>
                       </use>
               </g>
        </defs>

<script type="text/javascript">
var viewWidth = 1890;
var viewHeight = 659;
var sectionId = 'dynsection-31';
</script>
<script xlink:href="svgpan.js"/>
<svg id="graph" class="graph">
<g id="viewport">
<title>ConsignController::setQuadRamp_Dist</title>
<polygon fill="white" stroke="transparent" points="-4,4 -4,-654.5 1886,-654.5 1886,4 -4,4"/>
<!-- Node1 -->
<g id="node1" class="node">
<title>Node1</title>
<g id="a_node1"><a xlink:title=" ">
<polygon fill="#bfbfbf" stroke="black" points="1772,-303.5 1772,-333.5 1882,-333.5 1882,-303.5 1772,-303.5"/>
<text text-anchor="start" x="1780" y="-321.5" font-family="Helvetica,sans-Serif" font-size="10.00">ConsignController::</text>
<text text-anchor="middle" x="1827" y="-310.5" font-family="Helvetica,sans-Serif" font-size="10.00">setQuadRamp_Dist</text>
</a>
</g>
</g>
<!-- Node2 -->
<g id="node2" class="node">
<title>Node2</title>
<g id="a_node2"><a xlink:href="classAsservEsialR.html#a17eab63b10a4e1edf11013e6b18cafd2" target="_top" xlink:title=" ">
<polygon fill="white" stroke="black" points="1564,-366.5 1564,-396.5 1684,-396.5 1684,-366.5 1564,-366.5"/>
<text text-anchor="start" x="1572" y="-384.5" font-family="Helvetica,sans-Serif" font-size="10.00">AsservEsialR::motion</text>
<text text-anchor="middle" x="1624" y="-373.5" font-family="Helvetica,sans-Serif" font-size="10.00">_ActivateQuadRamp</text>
</a>
</g>
</g>
<!-- Node1&#45;&gt;Node2 -->
<g id="edge1" class="edge">
<title>Node1&#45;&gt;Node2</title>
<path fill="none" stroke="midnightblue" d="M1784.5,-337.85C1769.44,-344.37 1752.16,-351.31 1736,-356.5 1719.45,-361.81 1701.16,-366.43 1684.28,-370.19"/>
<polygon fill="midnightblue" stroke="midnightblue" points="1786.3,-340.88 1794.03,-333.64 1783.47,-334.47 1786.3,-340.88"/>
</g>
<!-- Node4 -->
<g id="node4" class="node">
<title>Node4</title>
<g id="a_node4"><a xlink:href="classCommandManagerA.html#a5a1c89032b7f8150bed910011daf111a" target="_top" xlink:title=" ">
<polygon fill="white" stroke="black" points="1543.5,-328 1543.5,-347 1704.5,-347 1704.5,-328 1543.5,-328"/>
<text text-anchor="middle" x="1624" y="-335" font-family="Helvetica,sans-Serif" font-size="10.00">CommandManagerA::perform</text>
</a>
</g>
</g>
<!-- Node1&#45;&gt;Node4 -->
<g id="edge3" class="edge">
<title>Node1&#45;&gt;Node4</title>
<path fill="none" stroke="midnightblue" d="M1761.69,-324.58C1743.51,-326.3 1723.5,-328.19 1704.54,-329.98"/>
<polygon fill="midnightblue" stroke="midnightblue" points="1762.25,-328.04 1771.87,-323.62 1761.59,-321.07 1762.25,-328.04"/>
</g>
<!-- Node6 -->
<g id="node6" class="node">
<title>Node6</title>
<g id="a_node6"><a xlink:href="classCommandManagerA.html#a15e1210241f2dd30047f151994e68692" target="_top" xlink:title=" ">
<polygon fill="white" stroke="black" points="1512,-290 1512,-309 1736,-309 1736,-290 1512,-290"/>
<text text-anchor="middle" x="1624" y="-297" font-family="Helvetica,sans-Serif" font-size="10.00">CommandManagerA::resetEmergencyStop</text>
</a>
</g>
</g>
<!-- Node1&#45;&gt;Node6 -->
<g id="edge5" class="edge">
<title>Node1&#45;&gt;Node6</title>
<path fill="none" stroke="midnightblue" d="M1761.57,-312.41C1750.11,-311.33 1737.93,-310.18 1725.75,-309.02"/>
<polygon fill="midnightblue" stroke="midnightblue" points="1761.59,-315.93 1771.87,-313.38 1762.25,-308.96 1761.59,-315.93"/>
</g>
<!-- Node32 -->
<g id="node32" class="node">
<title>Node32</title>
<g id="a_node32"><a xlink:href="classCommandManagerA.html#a7ce3c37b6130dd468a93a658f4b3aced" target="_top" xlink:title=" ">
<polygon fill="white" stroke="black" points="1517,-247 1517,-266 1731,-266 1731,-247 1517,-247"/>
<text text-anchor="middle" x="1624" y="-254" font-family="Helvetica,sans-Serif" font-size="10.00">CommandManagerA::setEmergencyStop</text>
</a>
</g>
</g>
<!-- Node1&#45;&gt;Node32 -->
<g id="edge39" class="edge">
<title>Node1&#45;&gt;Node32</title>
<path fill="none" stroke="midnightblue" d="M1785.32,-299.42C1770.08,-292.79 1752.47,-285.71 1736,-280.5 1717.67,-274.7 1697.2,-269.84 1678.88,-266.04"/>
<polygon fill="midnightblue" stroke="midnightblue" points="1783.91,-302.63 1794.47,-303.48 1786.75,-296.23 1783.91,-302.63"/>
</g>
<!-- Node3 -->
<g id="node3" class="node">
<title>Node3</title>
<g id="a_node3"><a xlink:href="classAsserv.html#aa8b9209374a094acf3242d732cdeee5e" target="_top" xlink:title=" ">
<polygon fill="white" stroke="black" points="1359.5,-372 1359.5,-391 1466.5,-391 1466.5,-372 1359.5,-372"/>
<text text-anchor="middle" x="1413" y="-379" font-family="Helvetica,sans-Serif" font-size="10.00">Asserv::disablePID</text>
</a>
</g>
</g>
<!-- Node2&#45;&gt;Node3 -->
<g id="edge2" class="edge">
<title>Node2&#45;&gt;Node3</title>
<path fill="none" stroke="midnightblue" d="M1553.71,-381.5C1525.41,-381.5 1493.2,-381.5 1466.85,-381.5"/>
<polygon fill="midnightblue" stroke="midnightblue" points="1553.95,-385 1563.95,-381.5 1553.95,-378 1553.95,-385"/>
</g>
<!-- Node5 -->
<g id="node5" class="node">
<title>Node5</title>
<g id="a_node5"><a xlink:href="classAsservEsialR.html#abfd3be9bde7bf8ae887688bf8bc0ca43" target="_top" xlink:title="Méthode virtuelle pure à implémenter dans les sous&#45;classes.">
<polygon fill="white" stroke="black" points="1351,-334 1351,-353 1475,-353 1475,-334 1351,-334"/>
<text text-anchor="middle" x="1413" y="-341" font-family="Helvetica,sans-Serif" font-size="10.00">AsservEsialR::execute</text>
</a>
</g>
</g>
<!-- Node4&#45;&gt;Node5 -->
<g id="edge4" class="edge">
<title>Node4&#45;&gt;Node5</title>
<path fill="none" stroke="midnightblue" d="M1533.23,-340.08C1513.64,-340.64 1493.35,-341.22 1475.18,-341.74"/>
<polygon fill="midnightblue" stroke="midnightblue" points="1533.49,-343.57 1543.39,-339.79 1533.29,-336.57 1533.49,-343.57"/>
</g>
<!-- Node7 -->
<g id="node7" class="node">
<title>Node7</title>
<g id="a_node7"><a xlink:href="classAsservEsialR.html#a89c3ed56d870037964c23bb657c75a7a" target="_top" xlink:title="Reinitialise l&#39;arret d&#39;urgence pour permettre un nouveau mouvement.">
<polygon fill="white" stroke="black" points="1350,-284.5 1350,-314.5 1476,-314.5 1476,-284.5 1350,-284.5"/>
<text text-anchor="start" x="1358" y="-302.5" font-family="Helvetica,sans-Serif" font-size="10.00">AsservEsialR::path</text>
<text text-anchor="middle" x="1413" y="-291.5" font-family="Helvetica,sans-Serif" font-size="10.00">_ResetEmergencyStop</text>
</a>
</g>
</g>
<!-- Node6&#45;&gt;Node7 -->
<g id="edge6" class="edge">
<title>Node6&#45;&gt;Node7</title>
<path fill="none" stroke="midnightblue" d="M1501.53,-299.5C1492.86,-299.5 1484.35,-299.5 1476.25,-299.5"/>
<polygon fill="midnightblue" stroke="midnightblue" points="1501.77,-303 1511.77,-299.5 1501.77,-296 1501.77,-303"/>
</g>
<!-- Node8 -->
<g id="node8" class="node">
<title>Node8</title>
<g id="a_node8"><a xlink:href="classAsserv.html#a22cbdc18185f0d910473b8a5bb434c84" target="_top" xlink:title=" ">
<polygon fill="white" stroke="black" points="1149,-346 1149,-365 1314,-365 1314,-346 1149,-346"/>
<text text-anchor="middle" x="1231.5" y="-353" font-family="Helvetica,sans-Serif" font-size="10.00">Asserv::resetEmergencyOnTraj</text>
</a>
</g>
</g>
<!-- Node7&#45;&gt;Node8 -->
<g id="edge7" class="edge">
<title>Node7&#45;&gt;Node8</title>
<path fill="none" stroke="midnightblue" d="M1354.26,-317.51C1323.89,-326.99 1287.89,-338.22 1262.95,-346"/>
<polygon fill="midnightblue" stroke="midnightblue" points="1355.39,-320.83 1363.9,-314.51 1353.31,-314.14 1355.39,-320.83"/>
</g>
<!-- Node9 -->
<g id="node9" class="node">
<title>Node9</title>
<g id="a_node9"><a xlink:href="classAsserv.html#a0ac23995bdebb69bb49304850c951886" target="_top" xlink:title=" ">
<polygon fill="white" stroke="black" points="986.5,-403 986.5,-422 1087.5,-422 1087.5,-403 986.5,-403"/>
<text text-anchor="middle" x="1037" y="-410" font-family="Helvetica,sans-Serif" font-size="10.00">Asserv::doCalage</text>
</a>
</g>
</g>
<!-- Node8&#45;&gt;Node9 -->
<g id="edge8" class="edge">
<title>Node8&#45;&gt;Node9</title>
<path fill="none" stroke="midnightblue" d="M1192.94,-368.33C1169.97,-376.01 1139.92,-385.75 1113,-393.5 1101.64,-396.77 1089.23,-400.04 1077.83,-402.92"/>
<polygon fill="midnightblue" stroke="midnightblue" points="1194.28,-371.57 1202.64,-365.07 1192.05,-364.94 1194.28,-371.57"/>
</g>
<!-- Node10 -->
<g id="node10" class="node">
<title>Node10</title>
<g id="a_node10"><a xlink:href="classAsserv.html#acc891ab26e32320b4f2fac646de93632" target="_top" xlink:title=" ">
<polygon fill="white" stroke="black" points="983.5,-365 983.5,-384 1090.5,-384 1090.5,-365 983.5,-365"/>
<text text-anchor="middle" x="1037" y="-372" font-family="Helvetica,sans-Serif" font-size="10.00">Asserv::doCalage2</text>
</a>
</g>
</g>
<!-- Node8&#45;&gt;Node10 -->
<g id="edge9" class="edge">
<title>Node8&#45;&gt;Node10</title>
<path fill="none" stroke="midnightblue" d="M1138.66,-364.56C1122.21,-366.19 1105.59,-367.83 1090.73,-369.3"/>
<polygon fill="midnightblue" stroke="midnightblue" points="1139.25,-368.02 1148.86,-363.56 1138.57,-361.06 1139.25,-368.02"/>
</g>
<!-- Node11 -->
<g id="node11" class="node">
<title>Node11</title>
<g id="a_node11"><a xlink:href="classAsserv.html#aa105905ebc1940adb7c483a14c9ce8fc" target="_top" xlink:title=" ">
<polygon fill="white" stroke="black" points="976,-327 976,-346 1098,-346 1098,-327 976,-327"/>
<text text-anchor="middle" x="1037" y="-334" font-family="Helvetica,sans-Serif" font-size="10.00">Asserv::doCalageNew</text>
</a>
</g>
</g>
<!-- Node8&#45;&gt;Node11 -->
<g id="edge10" class="edge">
<title>Node8&#45;&gt;Node11</title>
<path fill="none" stroke="midnightblue" d="M1138.84,-346.45C1125.02,-345.09 1111.08,-343.71 1098.15,-342.44"/>
<polygon fill="midnightblue" stroke="midnightblue" points="1138.57,-349.94 1148.86,-347.44 1139.25,-342.98 1138.57,-349.94"/>
</g>
<!-- Node12 -->
<g id="node12" class="node">
<title>Node12</title>
<g id="a_node12"><a xlink:href="classAsserv.html#aa2ec3b84e3cccf2145cc70e33f08dc58" target="_top" xlink:title=" ">
<polygon fill="white" stroke="black" points="961,-517 961,-536 1113,-536 1113,-517 961,-517"/>
<text text-anchor="middle" x="1037" y="-524" font-family="Helvetica,sans-Serif" font-size="10.00">Asserv::doMoveBackwardTo</text>
</a>
</g>
</g>
<!-- Node8&#45;&gt;Node12 -->
<g id="edge11" class="edge">
<title>Node8&#45;&gt;Node12</title>
<path fill="none" stroke="midnightblue" d="M1221.29,-374.39C1204.47,-406.84 1165.6,-473.01 1113,-507.5 1107.05,-511.4 1100.34,-514.51 1093.46,-516.97"/>
<polygon fill="midnightblue" stroke="midnightblue" points="1224.59,-375.63 1225.97,-365.12 1218.34,-372.47 1224.59,-375.63"/>
</g>
<!-- Node14 -->
<g id="node14" class="node">
<title>Node14</title>
<g id="a_node14"><a xlink:href="classIAbyPath.html#acc586e1ba62ffb7a21087a5ca4d2f131" target="_top" xlink:title=" ">
<polygon fill="white" stroke="black" points="748,-441 748,-460 925,-460 925,-441 748,-441"/>
<text text-anchor="middle" x="836.5" y="-448" font-family="Helvetica,sans-Serif" font-size="10.00">IAbyPath::whileMoveBackwardTo</text>
</a>
</g>
</g>
<!-- Node8&#45;&gt;Node14 -->
<g id="edge34" class="edge">
<title>Node8&#45;&gt;Node14</title>
<path fill="none" stroke="midnightblue" d="M1212.02,-371.78C1190.1,-389.99 1151.66,-418.62 1113,-431.5 1052.5,-451.65 980.5,-455.99 925.29,-455.51"/>
<polygon fill="midnightblue" stroke="midnightblue" points="1214.48,-374.28 1219.83,-365.14 1209.94,-368.95 1214.48,-374.28"/>
</g>
<!-- Node16 -->
<g id="node16" class="node">
<title>Node16</title>
<g id="a_node16"><a xlink:href="classAsserv.html#a960679fed5ab18f631d7847c95fc1f85" target="_top" xlink:title=" ">
<polygon fill="white" stroke="black" points="965.5,-251 965.5,-270 1108.5,-270 1108.5,-251 965.5,-251"/>
<text text-anchor="middle" x="1037" y="-258" font-family="Helvetica,sans-Serif" font-size="10.00">Asserv::doMoveForwardTo</text>
</a>
</g>
</g>
<!-- Node8&#45;&gt;Node16 -->
<g id="edge15" class="edge">
<title>Node8&#45;&gt;Node16</title>
<path fill="none" stroke="midnightblue" d="M1208.64,-340.15C1185.66,-324.53 1148.05,-300.43 1113,-284.5 1100.55,-278.84 1086.39,-273.94 1073.74,-270.07"/>
<polygon fill="midnightblue" stroke="midnightblue" points="1206.75,-343.1 1216.97,-345.88 1210.71,-337.33 1206.75,-343.1"/>
</g>
<!-- Node18 -->
<g id="node18" class="node">
<title>Node18</title>
<g id="a_node18"><a xlink:href="classIAbyPath.html#aa2a96904ea74078d56dad53979b1d999" target="_top" xlink:title=" ">
<polygon fill="white" stroke="black" points="752.5,-213 752.5,-232 920.5,-232 920.5,-213 752.5,-213"/>
<text text-anchor="middle" x="836.5" y="-220" font-family="Helvetica,sans-Serif" font-size="10.00">IAbyPath::whileMoveForwardTo</text>
</a>
</g>
</g>
<!-- Node8&#45;&gt;Node18 -->
<g id="edge35" class="edge">
<title>Node8&#45;&gt;Node18</title>
<path fill="none" stroke="midnightblue" d="M1218.44,-337.53C1199.52,-311.08 1160.14,-262.53 1113,-241.5 1052.58,-214.55 977.24,-211.13 920.63,-213.71"/>
<polygon fill="midnightblue" stroke="midnightblue" points="1215.67,-339.68 1224.25,-345.89 1221.41,-335.68 1215.67,-339.68"/>
</g>
<!-- Node19 -->
<g id="node19" class="node">
<title>Node19</title>
<g id="a_node19"><a xlink:href="O__State__DecisionMakerIA_8cpp.html#a1cbc5f5cba5f72b993c68f4aad4473f7" target="_top" xlink:title="Action de poussée de la prise en zone basse.">
<polygon fill="white" stroke="black" points="397.5,-257 397.5,-276 501.5,-276 501.5,-257 397.5,-257"/>
<text text-anchor="middle" x="449.5" y="-264" font-family="Helvetica,sans-Serif" font-size="10.00">O_push_prise_bas</text>
</a>
</g>
</g>
<!-- Node8&#45;&gt;Node19 -->
<g id="edge29" class="edge">
<title>Node8&#45;&gt;Node19</title>
<path fill="none" stroke="midnightblue" d="M1225.28,-375.23C1213.32,-415.89 1179.72,-508.31 1113,-545.5 1042.15,-584.99 825.52,-569.36 748,-545.5 643.73,-513.41 621.89,-484.9 545,-407.5 502.63,-364.85 467.78,-300.64 455.37,-276.31"/>
<polygon fill="midnightblue" stroke="midnightblue" points="1228.69,-376.01 1228.03,-365.44 1221.96,-374.12 1228.69,-376.01"/>
</g>
<!-- Node21 -->
<g id="node21" class="node">
<title>Node21</title>
<g id="a_node21"><a xlink:href="O__State__DecisionMakerIA_8cpp.html#a6af4b40e5e676265dd688e0004be0ff6" target="_top" xlink:title="Action de fin de match : rejoint la zone de fin en haut de table.">
<polygon fill="white" stroke="black" points="390,-197 390,-216 509,-216 509,-197 390,-197"/>
<text text-anchor="middle" x="449.5" y="-204" font-family="Helvetica,sans-Serif" font-size="10.00">O_end_of_match_top</text>
</a>
</g>
</g>
<!-- Node8&#45;&gt;Node21 -->
<g id="edge28" class="edge">
<title>Node8&#45;&gt;Node21</title>
<path fill="none" stroke="midnightblue" d="M1221.77,-336.16C1205.69,-303.15 1167.91,-236.88 1113,-209.5 1008.2,-157.25 650.97,-186.22 509.18,-200.26"/>
<polygon fill="midnightblue" stroke="midnightblue" points="1218.8,-338.06 1226.23,-345.61 1225.13,-335.07 1218.8,-338.06"/>
</g>
<!-- Node25 -->
<g id="node25" class="node">
<title>Node25</title>
<g id="a_node25"><a xlink:href="classAsserv.html#a3468d8efb89878c2235dc491c6e7a541" target="_top" xlink:title=" ">
<polygon fill="white" stroke="black" points="973,-137 973,-156 1101,-156 1101,-137 973,-137"/>
<text text-anchor="middle" x="1037" y="-144" font-family="Helvetica,sans-Serif" font-size="10.00">Asserv::doRunPivotLeft</text>
</a>
</g>
</g>
<!-- Node8&#45;&gt;Node25 -->
<g id="edge26" class="edge">
<title>Node8&#45;&gt;Node25</title>
<path fill="none" stroke="midnightblue" d="M1223.41,-336.06C1208.73,-298.47 1171.39,-215.57 1113,-170.5 1104.88,-164.24 1095.08,-159.58 1085.29,-156.13"/>
<polygon fill="midnightblue" stroke="midnightblue" points="1220.28,-337.67 1227.1,-345.79 1226.83,-335.19 1220.28,-337.67"/>
</g>
<!-- Node26 -->
<g id="node26" class="node">
<title>Node26</title>
<g id="a_node26"><a xlink:href="classAsserv.html#a79a9b2ee1d39046119673dc81733bdab" target="_top" xlink:title=" ">
<polygon fill="white" stroke="black" points="969,-631 969,-650 1105,-650 1105,-631 969,-631"/>
<text text-anchor="middle" x="1037" y="-638" font-family="Helvetica,sans-Serif" font-size="10.00">Asserv::doRunPivotRight</text>
</a>
</g>
</g>
<!-- Node8&#45;&gt;Node26 -->
<g id="edge27" class="edge">
<title>Node8&#45;&gt;Node26</title>
<path fill="none" stroke="midnightblue" d="M1227.78,-374.99C1219.85,-424.28 1192.07,-554.7 1113,-621.5 1108.49,-625.31 1103.31,-628.38 1097.83,-630.84"/>
<polygon fill="midnightblue" stroke="midnightblue" points="1231.26,-375.43 1229.29,-365.02 1224.34,-374.38 1231.26,-375.43"/>
</g>
<!-- Node27 -->
<g id="node27" class="node">
<title>Node27</title>
<g id="a_node27"><a xlink:href="classSensorsTimer.html#abc377178c2471f664b31658554963e83" target="_top" xlink:title="Actions à executer pour le timer.">
<polygon fill="white" stroke="black" points="771.5,-55 771.5,-74 901.5,-74 901.5,-55 771.5,-55"/>
<text text-anchor="middle" x="836.5" y="-62" font-family="Helvetica,sans-Serif" font-size="10.00">SensorsTimer::onTimer</text>
</a>
</g>
</g>
<!-- Node8&#45;&gt;Node27 -->
<g id="edge30" class="edge">
<title>Node8&#45;&gt;Node27</title>
<path fill="none" stroke="midnightblue" d="M1226.35,-336.03C1215.81,-291.6 1183.71,-182.36 1113,-127.5 1103.9,-120.44 959.97,-89.85 883.86,-74.04"/>
<polygon fill="midnightblue" stroke="midnightblue" points="1222.95,-336.87 1228.57,-345.85 1229.78,-335.33 1222.95,-336.87"/>
</g>
<!-- Node28 -->
<g id="node28" class="node">
<title>Node28</title>
<g id="a_node28"><a xlink:href="classO__State__Init.html#a1980cd82dcb83e88d61f2e7e14dddfa0" target="_top" xlink:title=" ">
<polygon fill="white" stroke="black" points="980,-593 980,-612 1094,-612 1094,-593 980,-593"/>
<text text-anchor="middle" x="1037" y="-600" font-family="Helvetica,sans-Serif" font-size="10.00">O_State_Init::setPos</text>
</a>
</g>
</g>
<!-- Node8&#45;&gt;Node28 -->
<g id="edge31" class="edge">
<title>Node8&#45;&gt;Node28</title>
<path fill="none" stroke="midnightblue" d="M1225.65,-375.02C1213.93,-418.18 1179.94,-522.37 1113,-578.5 1105.46,-584.82 1096.22,-589.49 1086.85,-592.93"/>
<polygon fill="midnightblue" stroke="midnightblue" points="1229.08,-375.76 1228.22,-365.2 1222.3,-373.99 1229.08,-375.76"/>
</g>
<!-- Node30 -->
<g id="node30" class="node">
<title>Node30</title>
<g id="a_node30"><a xlink:href="classRobot.html#a7c2c32badf138c2a26b82068447c3c98" target="_top" xlink:title="Fonctions de motion intelligente en plusieurs essais.">
<polygon fill="white" stroke="black" points="981.5,-479 981.5,-498 1092.5,-498 1092.5,-479 981.5,-479"/>
<text text-anchor="middle" x="1037" y="-486" font-family="Helvetica,sans-Serif" font-size="10.00">Robot::whileDoLine</text>
</a>
</g>
</g>
<!-- Node8&#45;&gt;Node30 -->
<g id="edge33" class="edge">
<title>Node8&#45;&gt;Node30</title>
<path fill="none" stroke="midnightblue" d="M1216.07,-373.04C1195.52,-396.95 1155.58,-439.62 1113,-464.5 1102.61,-470.57 1090.5,-475.3 1079.09,-478.9"/>
<polygon fill="midnightblue" stroke="midnightblue" points="1218.95,-375.05 1222.73,-365.15 1213.6,-370.53 1218.95,-375.05"/>
</g>
<!-- Node31 -->
<g id="node31" class="node">
<title>Node31</title>
<g id="a_node31"><a xlink:href="classIAbyPath.html#a42570f6bc87216c2ac5d028ad596fe02" target="_top" xlink:title=" ">
<polygon fill="white" stroke="black" points="756,-301 756,-320 917,-320 917,-301 756,-301"/>
<text text-anchor="middle" x="836.5" y="-308" font-family="Helvetica,sans-Serif" font-size="10.00">IAbyPath::whileMoveRotateTo</text>
</a>
</g>
</g>
<!-- Node8&#45;&gt;Node31 -->
<g id="edge36" class="edge">
<title>Node8&#45;&gt;Node31</title>
<path fill="none" stroke="midnightblue" d="M1198.21,-342.28C1174.95,-333.44 1142.59,-322.55 1113,-317.5 1047.68,-306.35 972.4,-305.21 917.06,-306.52"/>
<polygon fill="midnightblue" stroke="midnightblue" points="1197,-345.56 1207.59,-345.91 1199.53,-339.03 1197,-345.56"/>
</g>
<!-- Node13 -->
<g id="node13" class="node">
<title>Node13</title>
<g id="a_node13"><a xlink:href="classAsserv.html#af438189501d475dcb6632ce63efe5e5f" target="_top" xlink:title=" ">
<polygon fill="white" stroke="black" points="756,-505.5 756,-535.5 917,-535.5 917,-505.5 756,-505.5"/>
<text text-anchor="start" x="764" y="-523.5" font-family="Helvetica,sans-Serif" font-size="10.00">Asserv::doMoveBackwardAnd</text>
<text text-anchor="middle" x="836.5" y="-512.5" font-family="Helvetica,sans-Serif" font-size="10.00">RotateTo</text>
</a>
</g>
</g>
<!-- Node12&#45;&gt;Node13 -->
<g id="edge12" class="edge">
<title>Node12&#45;&gt;Node13</title>
<path fill="none" stroke="midnightblue" d="M950.82,-523.93C939.69,-523.59 928.32,-523.25 917.29,-522.91"/>
<polygon fill="midnightblue" stroke="midnightblue" points="950.85,-527.43 960.96,-524.23 951.07,-520.43 950.85,-527.43"/>
</g>
<!-- Node12&#45;&gt;Node14 -->
<g id="edge13" class="edge">
<title>Node12&#45;&gt;Node14</title>
<path fill="none" stroke="midnightblue" d="M983.03,-514.38C975.57,-512.3 968.04,-509.99 961,-507.5 922.27,-493.79 879.13,-472.38 855.47,-460.08"/>
<polygon fill="midnightblue" stroke="midnightblue" points="982.19,-517.78 992.76,-516.99 984.01,-511.02 982.19,-517.78"/>
</g>
<!-- Node15 -->
<g id="node15" class="node">
<title>Node15</title>
<g id="a_node15"><a xlink:href="classIAbyPath.html#a9535c82f137778cc6cd4b159fe3d58ea" target="_top" xlink:title=" ">
<polygon fill="white" stroke="black" points="545,-367.5 545,-397.5 712,-397.5 712,-367.5 545,-367.5"/>
<text text-anchor="start" x="553" y="-385.5" font-family="Helvetica,sans-Serif" font-size="10.00">IAbyPath::whileMoveBackward</text>
<text text-anchor="middle" x="628.5" y="-374.5" font-family="Helvetica,sans-Serif" font-size="10.00">AndRotateTo</text>
</a>
</g>
</g>
<!-- Node14&#45;&gt;Node15 -->
<g id="edge14" class="edge">
<title>Node14&#45;&gt;Node15</title>
<path fill="none" stroke="midnightblue" d="M796.69,-437.69C762.14,-426.29 711.58,-409.59 675.11,-397.56"/>
<polygon fill="midnightblue" stroke="midnightblue" points="795.83,-441.09 806.42,-440.9 798.02,-434.44 795.83,-441.09"/>
</g>
<!-- Node17 -->
<g id="node17" class="node">
<title>Node17</title>
<g id="a_node17"><a xlink:href="classAsserv.html#a0a57aa0008a30ba9b13502e4dd61310d" target="_top" xlink:title=" ">
<polygon fill="white" stroke="black" points="760.5,-251.5 760.5,-281.5 912.5,-281.5 912.5,-251.5 760.5,-251.5"/>
<text text-anchor="start" x="768.5" y="-269.5" font-family="Helvetica,sans-Serif" font-size="10.00">Asserv::doMoveForwardAnd</text>
<text text-anchor="middle" x="836.5" y="-258.5" font-family="Helvetica,sans-Serif" font-size="10.00">RotateTo</text>
</a>
</g>
</g>
<!-- Node16&#45;&gt;Node17 -->
<g id="edge16" class="edge">
<title>Node16&#45;&gt;Node17</title>
<path fill="none" stroke="midnightblue" d="M955.28,-262.94C941.14,-263.37 926.49,-263.81 912.52,-264.23"/>
<polygon fill="midnightblue" stroke="midnightblue" points="955.57,-266.43 965.46,-262.63 955.36,-259.44 955.57,-266.43"/>
</g>
<!-- Node16&#45;&gt;Node18 -->
<g id="edge17" class="edge">
<title>Node16&#45;&gt;Node18</title>
<path fill="none" stroke="midnightblue" d="M975.98,-249.01C947.66,-243.59 914.26,-237.19 887.35,-232.04"/>
<polygon fill="midnightblue" stroke="midnightblue" points="975.69,-252.52 986.17,-250.96 977,-245.64 975.69,-252.52"/>
</g>
<!-- Node18&#45;&gt;Node19 -->
<g id="edge18" class="edge">
<title>Node18&#45;&gt;Node19</title>
<path fill="none" stroke="midnightblue" d="M742.26,-224.02C685.03,-226.09 610.41,-230.81 545,-241.5 523.23,-245.06 499.2,-251.45 480.82,-256.88"/>
<polygon fill="midnightblue" stroke="midnightblue" points="742.5,-227.52 752.37,-223.68 742.26,-220.52 742.5,-227.52"/>
</g>
<!-- Node20 -->
<g id="node20" class="node">
<title>Node20</title>
<g id="a_node20"><a xlink:href="classIAbyPath.html#a3f27b793f84340c99ca33e12c2380bb4" target="_top" xlink:title=" ">
<polygon fill="white" stroke="black" points="549.5,-251.5 549.5,-281.5 707.5,-281.5 707.5,-251.5 549.5,-251.5"/>
<text text-anchor="start" x="557.5" y="-269.5" font-family="Helvetica,sans-Serif" font-size="10.00">IAbyPath::whileMoveForward</text>
<text text-anchor="middle" x="628.5" y="-258.5" font-family="Helvetica,sans-Serif" font-size="10.00">AndRotateTo</text>
</a>
</g>
</g>
<!-- Node18&#45;&gt;Node20 -->
<g id="edge19" class="edge">
<title>Node18&#45;&gt;Node20</title>
<path fill="none" stroke="midnightblue" d="M780.85,-234.17C756.08,-239.46 726.47,-245.79 700.03,-251.43"/>
<polygon fill="midnightblue" stroke="midnightblue" points="781.75,-237.56 790.8,-232.05 780.29,-230.71 781.75,-237.56"/>
</g>
<!-- Node20&#45;&gt;Node19 -->
<g id="edge25" class="edge">
<title>Node20&#45;&gt;Node19</title>
<path fill="none" stroke="midnightblue" d="M539.05,-266.5C526.19,-266.5 513.32,-266.5 501.54,-266.5"/>
<polygon fill="midnightblue" stroke="midnightblue" points="539.35,-270 549.35,-266.5 539.35,-263 539.35,-270"/>
</g>
<!-- Node20&#45;&gt;Node21 -->
<g id="edge20" class="edge">
<title>Node20&#45;&gt;Node21</title>
<path fill="none" stroke="midnightblue" d="M573.36,-248.15C542.04,-237.53 503.94,-224.61 478.55,-216.01"/>
<polygon fill="midnightblue" stroke="midnightblue" points="572.24,-251.46 582.84,-251.36 574.49,-244.83 572.24,-251.46"/>
</g>
<!-- Node22 -->
<g id="node22" class="node">
<title>Node22</title>
<g id="a_node22"><a xlink:href="classO__State__DecisionMakerIA.html#a9b35f6bac1a5602ec2a711fa280be4a6" target="_top" xlink:title="Configure les activités pour les zones de jeu du match.">
<polygon fill="white" stroke="black" points="195,-216.5 195,-246.5 337,-246.5 337,-216.5 195,-216.5"/>
<text text-anchor="start" x="203" y="-234.5" font-family="Helvetica,sans-Serif" font-size="10.00">O_State_DecisionMakerIA</text>
<text text-anchor="middle" x="266" y="-223.5" font-family="Helvetica,sans-Serif" font-size="10.00">::IASetupActivitiesZone</text>
</a>
</g>
</g>
<!-- Node21&#45;&gt;Node22 -->
<g id="edge21" class="edge">
<title>Node21&#45;&gt;Node22</title>
<path fill="none" stroke="midnightblue" d="M379.82,-215.96C365.88,-217.88 351.19,-219.9 337.19,-221.83"/>
<polygon fill="midnightblue" stroke="midnightblue" points="380.39,-219.41 389.82,-214.58 379.44,-212.48 380.39,-219.41"/>
</g>
<!-- Node24 -->
<g id="node24" class="node">
<title>Node24</title>
<g id="a_node24"><a xlink:href="classO__State__DecisionMakerIA.html#a8bd1c4d72bec8768c7c7c15bd2e665d8" target="_top" xlink:title="Configure les activités pour le mode test de la table.">
<polygon fill="white" stroke="black" points="178,-167.5 178,-197.5 354,-197.5 354,-167.5 178,-167.5"/>
<text text-anchor="start" x="186" y="-185.5" font-family="Helvetica,sans-Serif" font-size="10.00">O_State_DecisionMakerIA</text>
<text text-anchor="middle" x="266" y="-174.5" font-family="Helvetica,sans-Serif" font-size="10.00">::IASetupActivitiesZoneTableTest</text>
</a>
</g>
</g>
<!-- Node21&#45;&gt;Node24 -->
<g id="edge23" class="edge">
<title>Node21&#45;&gt;Node24</title>
<path fill="none" stroke="midnightblue" d="M379.77,-197.41C371.4,-196.31 362.77,-195.16 354.18,-194.03"/>
<polygon fill="midnightblue" stroke="midnightblue" points="379.45,-200.9 389.82,-198.74 380.37,-193.96 379.45,-200.9"/>
</g>
<!-- Node23 -->
<g id="node23" class="node">
<title>Node23</title>
<g id="a_node23"><a xlink:href="classO__State__DecisionMakerIA.html#a96d1f2a7618d607fd10cc51b9111e653" target="_top" xlink:title="Execute l&#39;action.">
<polygon fill="white" stroke="black" points="0,-191.5 0,-221.5 142,-221.5 142,-191.5 0,-191.5"/>
<text text-anchor="start" x="8" y="-209.5" font-family="Helvetica,sans-Serif" font-size="10.00">O_State_DecisionMakerIA</text>
<text text-anchor="middle" x="71" y="-198.5" font-family="Helvetica,sans-Serif" font-size="10.00">::execute</text>
</a>
</g>
</g>
<!-- Node22&#45;&gt;Node23 -->
<g id="edge22" class="edge">
<title>Node22&#45;&gt;Node23</title>
<path fill="none" stroke="midnightblue" d="M184.62,-221.09C170.52,-219.26 155.96,-217.38 142.17,-215.59"/>
<polygon fill="midnightblue" stroke="midnightblue" points="184.41,-224.59 194.78,-222.4 185.31,-217.65 184.41,-224.59"/>
</g>
<!-- Node24&#45;&gt;Node23 -->
<g id="edge24" class="edge">
<title>Node24&#45;&gt;Node23</title>
<path fill="none" stroke="midnightblue" d="M167.67,-194.6C159.02,-195.68 150.38,-196.75 142.02,-197.79"/>
<polygon fill="midnightblue" stroke="midnightblue" points="168.33,-198.05 177.82,-193.34 167.46,-191.1 168.33,-198.05"/>
</g>
<!-- Node29 -->
<g id="node29" class="node">
<title>Node29</title>
<g id="a_node29"><a xlink:href="classO__State__Init.html#abc19788b7457d1f819245dd28367fe91" target="_top" xlink:title="Exécute l&#39;état d&#39;initialisation.">
<polygon fill="white" stroke="black" points="776.5,-593 776.5,-612 896.5,-612 896.5,-593 776.5,-593"/>
<text text-anchor="middle" x="836.5" y="-600" font-family="Helvetica,sans-Serif" font-size="10.00">O_State_Init::execute</text>
</a>
</g>
</g>
<!-- Node28&#45;&gt;Node29 -->
<g id="edge32" class="edge">
<title>Node28&#45;&gt;Node29</title>
<path fill="none" stroke="midnightblue" d="M969.62,-602.5C945.99,-602.5 919.55,-602.5 896.56,-602.5"/>
<polygon fill="midnightblue" stroke="midnightblue" points="969.91,-606 979.91,-602.5 969.91,-599 969.91,-606"/>
</g>
<!-- Node31&#45;&gt;Node15 -->
<g id="edge37" class="edge">
<title>Node31&#45;&gt;Node15</title>
<path fill="none" stroke="midnightblue" d="M798.69,-323.36C763.4,-335.7 710.11,-354.33 672.79,-367.37"/>
<polygon fill="midnightblue" stroke="midnightblue" points="799.86,-326.66 808.14,-320.06 797.55,-320.06 799.86,-326.66"/>
</g>
<!-- Node31&#45;&gt;Node20 -->
<g id="edge38" class="edge">
<title>Node31&#45;&gt;Node20</title>
<path fill="none" stroke="midnightblue" d="M780.85,-298.83C756.08,-293.54 726.47,-287.21 700.03,-281.57"/>
<polygon fill="midnightblue" stroke="midnightblue" points="780.29,-302.29 790.8,-300.95 781.75,-295.44 780.29,-302.29"/>
</g>
<!-- Node33 -->
<g id="node33" class="node">
<title>Node33</title>
<g id="a_node33"><a xlink:href="classAsservEsialR.html#afd68af9e59ff80e079d3b080516be850" target="_top" xlink:title="Interrompt la trajectoire en cours (arret d&#39;urgence logiciel).">
<polygon fill="white" stroke="black" points="1357,-124.5 1357,-154.5 1469,-154.5 1469,-124.5 1357,-124.5"/>
<text text-anchor="start" x="1365" y="-142.5" font-family="Helvetica,sans-Serif" font-size="10.00">AsservEsialR::path</text>
<text text-anchor="middle" x="1413" y="-131.5" font-family="Helvetica,sans-Serif" font-size="10.00">_InterruptTrajectory</text>
</a>
</g>
</g>
<!-- Node32&#45;&gt;Node33 -->
<g id="edge40" class="edge">
<title>Node32&#45;&gt;Node33</title>
<path fill="none" stroke="midnightblue" d="M1597.06,-241.98C1557.26,-219.7 1481.52,-177.3 1441.06,-154.65"/>
<polygon fill="midnightblue" stroke="midnightblue" points="1595.46,-245.09 1605.9,-246.93 1598.88,-238.99 1595.46,-245.09"/>
</g>
<!-- Node34 -->
<g id="node34" class="node">
<title>Node34</title>
<g id="a_node34"><a xlink:href="classAsserv.html#a312602d6bf6f8591937e4d0003497bbb" target="_top" xlink:title=" ">
<polygon fill="white" stroke="black" points="1158.5,-55 1158.5,-74 1304.5,-74 1304.5,-55 1158.5,-55"/>
<text text-anchor="middle" x="1231.5" y="-62" font-family="Helvetica,sans-Serif" font-size="10.00">Asserv::setEmergencyStop</text>
</a>
</g>
</g>
<!-- Node33&#45;&gt;Node34 -->
<g id="edge41" class="edge">
<title>Node33&#45;&gt;Node34</title>
<path fill="none" stroke="midnightblue" d="M1366.03,-120.29C1330.62,-105.5 1283.16,-85.67 1255.4,-74.07"/>
<polygon fill="midnightblue" stroke="midnightblue" points="1365.1,-123.7 1375.68,-124.32 1367.8,-117.24 1365.1,-123.7"/>
</g>
<!-- Node35 -->
<g id="node35" class="node">
<title>Node35</title>
<g id="a_node35"><a xlink:href="classAsserv.html#ae8c86b1f9cfe795e8c9aad3e7e4ea40c" target="_top" xlink:title=" ">
<polygon fill="white" stroke="black" points="962,-0.5 962,-30.5 1112,-30.5 1112,-0.5 962,-0.5"/>
<text text-anchor="start" x="970" y="-18.5" font-family="Helvetica,sans-Serif" font-size="10.00">Asserv::warnBackDetection</text>
<text text-anchor="middle" x="1037" y="-7.5" font-family="Helvetica,sans-Serif" font-size="10.00">OnTraj</text>
</a>
</g>
</g>
<!-- Node34&#45;&gt;Node35 -->
<g id="edge42" class="edge">
<title>Node34&#45;&gt;Node35</title>
<path fill="none" stroke="midnightblue" d="M1182.96,-52.4C1157,-45.79 1124.64,-37.55 1097.07,-30.54"/>
<polygon fill="midnightblue" stroke="midnightblue" points="1182.37,-55.86 1192.93,-54.94 1184.1,-49.08 1182.37,-55.86"/>
</g>
<!-- Node36 -->
<g id="node36" class="node">
<title>Node36</title>
<g id="a_node36"><a xlink:href="classAsserv.html#a959dc45e49f920c77e62a11b75a15641" target="_top" xlink:title=" ">
<polygon fill="white" stroke="black" points="961.5,-49.5 961.5,-79.5 1112.5,-79.5 1112.5,-49.5 961.5,-49.5"/>
<text text-anchor="start" x="969.5" y="-67.5" font-family="Helvetica,sans-Serif" font-size="10.00">Asserv::warnFrontDetection</text>
<text text-anchor="middle" x="1037" y="-56.5" font-family="Helvetica,sans-Serif" font-size="10.00">OnTraj</text>
</a>
</g>
</g>
<!-- Node34&#45;&gt;Node36 -->
<g id="edge44" class="edge">
<title>Node34&#45;&gt;Node36</title>
<path fill="none" stroke="midnightblue" d="M1148.01,-64.5C1136.23,-64.5 1124.17,-64.5 1112.56,-64.5"/>
<polygon fill="midnightblue" stroke="midnightblue" points="1148.27,-68 1158.27,-64.5 1148.27,-61 1148.27,-68"/>
</g>
<!-- Node35&#45;&gt;Node27 -->
<g id="edge43" class="edge">
<title>Node35&#45;&gt;Node27</title>
<path fill="none" stroke="midnightblue" d="M965.09,-33C935.1,-40.41 901.35,-48.74 876.1,-54.97"/>
<polygon fill="midnightblue" stroke="midnightblue" points="966.22,-36.33 975.09,-30.53 964.55,-29.53 966.22,-36.33"/>
</g>
<!-- Node36&#45;&gt;Node27 -->
<g id="edge45" class="edge">
<title>Node36&#45;&gt;Node27</title>
<path fill="none" stroke="midnightblue" d="M951.05,-64.5C934.54,-64.5 917.5,-64.5 901.8,-64.5"/>
<polygon fill="midnightblue" stroke="midnightblue" points="951.24,-68 961.24,-64.5 951.24,-61 951.24,-68"/>
</g>
</g>
</svg>
        <g id="navigator" transform="translate(0 0)" fill="#404254">
                <rect fill="#f2f5e9" fill-opacity="0.5" stroke="#606060" stroke-width=".5" x="0" y="0" width="60" height="60"/>
                <use id="zoomplus" xlink:href="#zoomPlus" x="17" y="9" onmousedown="handleZoom(evt,'in')"/>
                <use id="zoomminus" xlink:href="#zoomMin" x="42" y="9" onmousedown="handleZoom(evt,'out')"/>
                <use id="reset" xlink:href="#resetDef" x="30" y="36" onmousedown="handleReset()"/>
                <g id="arrowUp" xlink:href="#dirArrow" transform="translate(30 24)" onmousedown="handlePan(0,-1)">
                  <use xlink:href="#rim" fill="#404040">
                        <set attributeName="fill" to="#808080" begin="arrowUp.mouseover" end="arrowUp.mouseout"/>
                  </use>
                  <path fill="none" stroke="white" stroke-width="1.5" d="M0,-3.0v7 M-2.5,-0.5L0,-3.0L2.5,-0.5"/>
                </g>
                <g id="arrowRight" xlink:href="#dirArrow" transform="rotate(90) translate(36 -43)" onmousedown="handlePan(1,0)">
                  <use xlink:href="#rim" fill="#404040">
                        <set attributeName="fill" to="#808080" begin="arrowRight.mouseover" end="arrowRight.mouseout"/>
                  </use>
                  <path fill="none" stroke="white" stroke-width="1.5" d="M0,-3.0v7 M-2.5,-0.5L0,-3.0L2.5,-0.5"/>
                </g>
                <g id="arrowDown" xlink:href="#dirArrow" transform="rotate(180) translate(-30 -48)" onmousedown="handlePan(0,1)">
                  <use xlink:href="#rim" fill="#404040">
                        <set attributeName="fill" to="#808080" begin="arrowDown.mouseover" end="arrowDown.mouseout"/>
                  </use>
                  <path fill="none" stroke="white" stroke-width="1.5" d="M0,-3.0v7 M-2.5,-0.5L0,-3.0L2.5,-0.5"/>
                </g>
                <g id="arrowLeft" xlink:href="#dirArrow" transform="rotate(270) translate(-36 17)" onmousedown="handlePan(-1,0)">
                  <use xlink:href="#rim" fill="#404040">
                        <set attributeName="fill" to="#808080" begin="arrowLeft.mouseover" end="arrowLeft.mouseout"/>
                  </use>
                  <path fill="none" stroke="white" stroke-width="1.5" d="M0,-3.0v7 M-2.5,-0.5L0,-3.0L2.5,-0.5"/>
                </g>
        </g>
        <svg viewBox="0 0 15 15" width="100%" height="30px" preserveAspectRatio="xMaxYMin meet">
         <g id="arrow_out" transform="scale(0.3 0.3)">
          <a xlink:href="classConsignController_a3a5321a1a47cdea48f269e28a0eaec98_icgraph_org.svg" target="_base">
           <rect id="button" ry="5" rx="5" y="6" x="6" height="38" width="38"
                fill="#f2f5e9" fill-opacity="0.5" stroke="#606060" stroke-width="1.0"/>
           <path id="arrow"
             d="M 11.500037,31.436501 C 11.940474,20.09759 22.043105,11.32322 32.158766,21.979434 L 37.068811,17.246167 C 37.068811,17.246167 37.088388,32 37.088388,32 L 22.160133,31.978069 C 22.160133,31.978069 26.997745,27.140456 26.997745,27.140456 C 18.528582,18.264221 13.291696,25.230495 11.500037,31.436501 z"
             style="fill:#404040;"/>
          </a>
         </g>
        </svg>
</svg>
