<?xml version="1.0" encoding="UTF-8" standalone="no"?>
<!DOCTYPE svg PUBLIC "-//W3C//DTD SVG 1.1//EN"
 "http://www.w3.org/Graphics/SVG/1.1/DTD/svg11.dtd">
<!-- Generated by graphviz version 2.43.0 (0)
 -->
<!-- Title: Sensors::left Pages: 1 -->
<svg width="464pt" height="242pt"
 viewBox="0.00 0.00 464.00 241.50" xmlns="http://www.w3.org/2000/svg" xmlns:xlink="http://www.w3.org/1999/xlink">
<g id="graph0" class="graph" transform="scale(1 1) rotate(0) translate(4 237.5)">
<title>Sensors::left</title>
<polygon fill="white" stroke="transparent" points="-4,4 -4,-237.5 460,-237.5 460,4 -4,4"/>
<!-- Node1 -->
<g id="node1" class="node">
<title>Node1</title>
<g id="a_node1"><a xlink:title=" ">
<polygon fill="#bfbfbf" stroke="black" points="379,-116 379,-135 456,-135 456,-116 379,-116"/>
<text text-anchor="middle" x="417.5" y="-123" font-family="Helvetica,sans-Serif" font-size="10.00">Sensors::left</text>
</a>
</g>
</g>
<!-- Node2 -->
<g id="node2" class="node">
<title>Node2</title>
<g id="a_node2"><a xlink:href="classSensors.html#ae13b733f9e964be1dd6fc9ff93b59f7b" target="_top" xlink:title=" ">
<polygon fill="white" stroke="black" points="200,-214 200,-233 334,-233 334,-214 200,-214"/>
<text text-anchor="middle" x="267" y="-221" font-family="Helvetica,sans-Serif" font-size="10.00">Sensors::addConfigBack</text>
</a>
</g>
</g>
<!-- Node1&#45;&gt;Node2 -->
<g id="edge1" class="edge">
<title>Node1&#45;&gt;Node2</title>
<path fill="none" stroke="midnightblue" d="M404.35,-143.73C391.32,-161.86 368.94,-189.13 343,-204.5 336.41,-208.4 329.04,-211.51 321.56,-213.98"/>
<polygon fill="midnightblue" stroke="midnightblue" points="407.46,-145.4 410.29,-135.19 401.71,-141.41 407.46,-145.4"/>
</g>
<!-- Node5 -->
<g id="node5" class="node">
<title>Node5</title>
<g id="a_node5"><a xlink:href="classSensors.html#a9acfbca790ff87f9c7aeb9eb35dc8a47" target="_top" xlink:title=" ">
<polygon fill="white" stroke="black" points="200,-176 200,-195 334,-195 334,-176 200,-176"/>
<text text-anchor="middle" x="267" y="-183" font-family="Helvetica,sans-Serif" font-size="10.00">Sensors::addConfigFront</text>
</a>
</g>
</g>
<!-- Node1&#45;&gt;Node5 -->
<g id="edge4" class="edge">
<title>Node1&#45;&gt;Node5</title>
<path fill="none" stroke="midnightblue" d="M393.58,-140.33C379.45,-148.95 360.71,-159.46 343,-166.5 333.76,-170.17 323.6,-173.31 313.82,-175.91"/>
<polygon fill="midnightblue" stroke="midnightblue" points="395.5,-143.26 402.14,-135 391.8,-137.32 395.5,-143.26"/>
</g>
<!-- Node6 -->
<g id="node6" class="node">
<title>Node6</title>
<g id="a_node6"><a xlink:href="classSensors.html#a9f6b2a9f9f19ef01807a74b87f2e808f" target="_top" xlink:title=" ">
<polygon fill="white" stroke="black" points="191.5,-138 191.5,-157 342.5,-157 342.5,-138 191.5,-138"/>
<text text-anchor="middle" x="267" y="-145" font-family="Helvetica,sans-Serif" font-size="10.00">Sensors::addThresholdBack</text>
</a>
</g>
</g>
<!-- Node1&#45;&gt;Node6 -->
<g id="edge7" class="edge">
<title>Node1&#45;&gt;Node6</title>
<path fill="none" stroke="midnightblue" d="M368.74,-132.58C357.14,-134.29 344.55,-136.16 332.33,-137.97"/>
<polygon fill="midnightblue" stroke="midnightblue" points="369.26,-136.04 378.64,-131.11 368.24,-129.11 369.26,-136.04"/>
</g>
<!-- Node7 -->
<g id="node7" class="node">
<title>Node7</title>
<g id="a_node7"><a xlink:href="classSensors.html#ae46b261ea00e7407fd61e5c70f4c431e" target="_top" xlink:title=" ">
<polygon fill="white" stroke="black" points="191.5,-88.5 191.5,-118.5 342.5,-118.5 342.5,-88.5 191.5,-88.5"/>
<text text-anchor="start" x="199.5" y="-106.5" font-family="Helvetica,sans-Serif" font-size="10.00">Sensors::addThresholdBack</text>
<text text-anchor="middle" x="267" y="-95.5" font-family="Helvetica,sans-Serif" font-size="10.00">VeryClosed</text>
</a>
</g>
</g>
<!-- Node1&#45;&gt;Node7 -->
<g id="edge10" class="edge">
<title>Node1&#45;&gt;Node7</title>
<path fill="none" stroke="midnightblue" d="M368.7,-118.42C360.32,-117.18 351.41,-115.86 342.5,-114.54"/>
<polygon fill="midnightblue" stroke="midnightblue" points="368.24,-121.89 378.64,-119.89 369.26,-114.96 368.24,-121.89"/>
</g>
<!-- Node8 -->
<g id="node8" class="node">
<title>Node8</title>
<g id="a_node8"><a xlink:href="classSensors.html#ad47b232a04891091fe9776339cb40013" target="_top" xlink:title=" ">
<polygon fill="white" stroke="black" points="191,-50 191,-69 343,-69 343,-50 191,-50"/>
<text text-anchor="middle" x="267" y="-57" font-family="Helvetica,sans-Serif" font-size="10.00">Sensors::addThresholdFront</text>
</a>
</g>
</g>
<!-- Node1&#45;&gt;Node8 -->
<g id="edge13" class="edge">
<title>Node1&#45;&gt;Node8</title>
<path fill="none" stroke="midnightblue" d="M395.36,-109.89C381.16,-100.01 361.69,-87.62 343,-79.5 333.48,-75.36 322.91,-71.91 312.77,-69.1"/>
<polygon fill="midnightblue" stroke="midnightblue" points="393.7,-113 403.88,-115.95 397.76,-107.3 393.7,-113"/>
</g>
<!-- Node9 -->
<g id="node9" class="node">
<title>Node9</title>
<g id="a_node9"><a xlink:href="classSensors.html#ab397d8739ebfe2f57290ddd97dc81efc" target="_top" xlink:title=" ">
<polygon fill="white" stroke="black" points="191,-0.5 191,-30.5 343,-30.5 343,-0.5 191,-0.5"/>
<text text-anchor="start" x="199" y="-18.5" font-family="Helvetica,sans-Serif" font-size="10.00">Sensors::addThresholdFront</text>
<text text-anchor="middle" x="267" y="-7.5" font-family="Helvetica,sans-Serif" font-size="10.00">VeryClosed</text>
</a>
</g>
</g>
<!-- Node1&#45;&gt;Node9 -->
<g id="edge16" class="edge">
<title>Node1&#45;&gt;Node9</title>
<path fill="none" stroke="midnightblue" d="M405.18,-107.4C392.31,-88.23 369.61,-58.31 343,-40.5 337.3,-36.68 330.96,-33.4 324.46,-30.6"/>
<polygon fill="midnightblue" stroke="midnightblue" points="402.29,-109.38 410.68,-115.85 408.16,-105.56 402.29,-109.38"/>
</g>
<!-- Node3 -->
<g id="node3" class="node">
<title>Node3</title>
<g id="a_node3"><a xlink:href="classOPOS6UL__ActionsExtended.html#aced00f2c03b0aa9b9eda54e6874bac75" target="_top" xlink:title=" ">
<polygon fill="white" stroke="black" points="0,-132.5 0,-162.5 155,-162.5 155,-132.5 0,-132.5"/>
<text text-anchor="start" x="8" y="-150.5" font-family="Helvetica,sans-Serif" font-size="10.00">OPOS6UL_ActionsExtended</text>
<text text-anchor="middle" x="77.5" y="-139.5" font-family="Helvetica,sans-Serif" font-size="10.00">::OPOS6UL_ActionsExtended</text>
</a>
</g>
</g>
<!-- Node2&#45;&gt;Node3 -->
<g id="edge2" class="edge">
<title>Node2&#45;&gt;Node3</title>
<path fill="none" stroke="midnightblue" d="M211.38,-211.17C204.45,-209.17 197.51,-206.94 191,-204.5 160.04,-192.9 126.46,-175.15 104.13,-162.55"/>
<polygon fill="midnightblue" stroke="midnightblue" points="210.91,-214.67 221.48,-213.95 212.76,-207.92 210.91,-214.67"/>
</g>
<!-- Node4 -->
<g id="node4" class="node">
<title>Node4</title>
<g id="a_node4"><a xlink:href="classSensors.html#ae46c462046eadf35df4f7bf49cebd50a" target="_top" xlink:title="Constructor.">
<polygon fill="white" stroke="black" points="28,-94 28,-113 127,-113 127,-94 28,-94"/>
<text text-anchor="middle" x="77.5" y="-101" font-family="Helvetica,sans-Serif" font-size="10.00">Sensors::Sensors</text>
</a>
</g>
</g>
<!-- Node2&#45;&gt;Node4 -->
<g id="edge3" class="edge">
<title>Node2&#45;&gt;Node4</title>
<path fill="none" stroke="midnightblue" d="M197.43,-209.18C195.18,-207.76 193.02,-206.2 191,-204.5 160.88,-179.11 185.03,-149 155,-123.5 147.15,-116.83 137.34,-112.36 127.38,-109.36"/>
<polygon fill="midnightblue" stroke="midnightblue" points="196.08,-212.42 206.56,-213.99 199.35,-206.23 196.08,-212.42"/>
</g>
<!-- Node5&#45;&gt;Node3 -->
<g id="edge5" class="edge">
<title>Node5&#45;&gt;Node3</title>
<path fill="none" stroke="midnightblue" d="M208.58,-173.86C190.98,-170.3 171.36,-166.32 152.81,-162.56"/>
<polygon fill="midnightblue" stroke="midnightblue" points="208.19,-177.35 218.69,-175.91 209.58,-170.49 208.19,-177.35"/>
</g>
<!-- Node5&#45;&gt;Node4 -->
<g id="edge6" class="edge">
<title>Node5&#45;&gt;Node4</title>
<path fill="none" stroke="midnightblue" d="M201.65,-172.15C197.94,-170.49 194.36,-168.61 191,-166.5 169.9,-153.24 176.05,-136.84 155,-123.5 146.65,-118.21 136.95,-114.31 127.31,-111.45"/>
<polygon fill="midnightblue" stroke="midnightblue" points="200.49,-175.46 211.08,-175.89 203.07,-168.95 200.49,-175.46"/>
</g>
<!-- Node6&#45;&gt;Node3 -->
<g id="edge8" class="edge">
<title>Node6&#45;&gt;Node3</title>
<path fill="none" stroke="midnightblue" d="M181.19,-147.5C172.47,-147.5 163.65,-147.5 155.03,-147.5"/>
<polygon fill="midnightblue" stroke="midnightblue" points="181.36,-151 191.36,-147.5 181.36,-144 181.36,-151"/>
</g>
<!-- Node6&#45;&gt;Node4 -->
<g id="edge9" class="edge">
<title>Node6&#45;&gt;Node4</title>
<path fill="none" stroke="midnightblue" d="M215.39,-135.62C185.19,-128.54 147.34,-119.66 119.11,-113.03"/>
<polygon fill="midnightblue" stroke="midnightblue" points="214.78,-139.08 225.32,-137.95 216.38,-132.26 214.78,-139.08"/>
</g>
<!-- Node7&#45;&gt;Node3 -->
<g id="edge11" class="edge">
<title>Node7&#45;&gt;Node3</title>
<path fill="none" stroke="midnightblue" d="M191.95,-120.88C175.61,-124.71 158.44,-128.74 142.53,-132.47"/>
<polygon fill="midnightblue" stroke="midnightblue" points="193.06,-124.21 202,-118.52 191.46,-117.4 193.06,-124.21"/>
</g>
<!-- Node7&#45;&gt;Node4 -->
<g id="edge12" class="edge">
<title>Node7&#45;&gt;Node4</title>
<path fill="none" stroke="midnightblue" d="M181.12,-103.5C162.58,-103.5 143.57,-103.5 127.03,-103.5"/>
<polygon fill="midnightblue" stroke="midnightblue" points="181.36,-107 191.36,-103.5 181.36,-100 181.36,-107"/>
</g>
<!-- Node8&#45;&gt;Node3 -->
<g id="edge14" class="edge">
<title>Node8&#45;&gt;Node3</title>
<path fill="none" stroke="midnightblue" d="M203.95,-72.71C199.42,-74.67 195.05,-76.92 191,-79.5 169.98,-92.89 175.64,-108.53 155,-122.5 149.33,-126.34 143.03,-129.62 136.54,-132.42"/>
<polygon fill="midnightblue" stroke="midnightblue" points="205.34,-75.93 213.42,-69.08 202.83,-69.39 205.34,-75.93"/>
</g>
<!-- Node8&#45;&gt;Node4 -->
<g id="edge15" class="edge">
<title>Node8&#45;&gt;Node4</title>
<path fill="none" stroke="midnightblue" d="M215.39,-71.38C185.19,-78.46 147.34,-87.34 119.11,-93.97"/>
<polygon fill="midnightblue" stroke="midnightblue" points="216.38,-74.74 225.32,-69.05 214.78,-67.92 216.38,-74.74"/>
</g>
<!-- Node9&#45;&gt;Node3 -->
<g id="edge17" class="edge">
<title>Node9&#45;&gt;Node3</title>
<path fill="none" stroke="midnightblue" d="M196.48,-36.06C194.56,-37.44 192.73,-38.92 191,-40.5 161.59,-67.32 184.49,-95.77 155,-122.5 150.76,-126.35 145.91,-129.6 140.76,-132.36"/>
<polygon fill="midnightblue" stroke="midnightblue" points="198.68,-38.81 205.32,-30.56 194.98,-32.87 198.68,-38.81"/>
</g>
<!-- Node9&#45;&gt;Node4 -->
<g id="edge18" class="edge">
<title>Node9&#45;&gt;Node4</title>
<path fill="none" stroke="midnightblue" d="M206.65,-34.12C201.3,-36.14 196.02,-38.28 191,-40.5 154.76,-56.52 114.85,-80.5 93.67,-93.78"/>
<polygon fill="midnightblue" stroke="midnightblue" points="208.08,-37.32 216.28,-30.6 205.68,-30.75 208.08,-37.32"/>
</g>
</g>
</svg>
