<?xml version="1.0" encoding="UTF-8" standalone="no"?>
<!DOCTYPE svg PUBLIC "-//W3C//DTD SVG 1.1//EN"
 "http://www.w3.org/Graphics/SVG/1.1/DTD/svg11.dtd">
<!-- Generated by graphviz version 2.43.0 (0)
 -->
<!-- Title: SensorsTimer::info Pages: 1 -->
<svg width="265pt" height="116pt"
 viewBox="0.00 0.00 265.00 116.00" xmlns="http://www.w3.org/2000/svg" xmlns:xlink="http://www.w3.org/1999/xlink">
<g id="graph0" class="graph" transform="scale(1 1) rotate(0) translate(4 112)">
<title>SensorsTimer::info</title>
<polygon fill="white" stroke="transparent" points="-4,4 -4,-112 261,-112 261,4 -4,4"/>
<!-- Node1 -->
<g id="node1" class="node">
<title>Node1</title>
<g id="a_node1"><a xlink:title=" ">
<polygon fill="#bfbfbf" stroke="black" points="0,-44.5 0,-63.5 108,-63.5 108,-44.5 0,-44.5"/>
<text text-anchor="middle" x="54" y="-51.5" font-family="Helvetica,sans-Serif" font-size="10.00">SensorsTimer::info</text>
</a>
</g>
</g>
<!-- Node2 -->
<g id="node2" class="node">
<title>Node2</title>
<g id="a_node2"><a xlink:href="classRobot.html#a36b66143430e84b730555cf497b89774" target="_top" xlink:title="Retourne l&#39;identifiant du robot.">
<polygon fill="white" stroke="black" points="162,-88.5 162,-107.5 239,-107.5 239,-88.5 162,-88.5"/>
<text text-anchor="middle" x="200.5" y="-95.5" font-family="Helvetica,sans-Serif" font-size="10.00">Robot::getID</text>
</a>
</g>
</g>
<!-- Node1&#45;&gt;Node2 -->
<g id="edge1" class="edge">
<title>Node1&#45;&gt;Node2</title>
<path fill="none" stroke="midnightblue" d="M86.35,-63.55C107.47,-69.98 135.53,-78.52 158.42,-85.49"/>
<polygon fill="midnightblue" stroke="midnightblue" points="157.62,-88.91 168.21,-88.47 159.66,-82.21 157.62,-88.91"/>
</g>
<!-- Node3 -->
<g id="node3" class="node">
<title>Node3</title>
<g id="a_node3"><a xlink:href="classITimerPosixListener.html#a56abc90e01e315320b855399b2c0096e" target="_top" xlink:title="Getter sur les infos permettant d&#39;identifier le timer.">
<polygon fill="white" stroke="black" points="144,-39 144,-69 257,-69 257,-39 144,-39"/>
<text text-anchor="start" x="152" y="-57" font-family="Helvetica,sans-Serif" font-size="10.00">ITimerPosixListener</text>
<text text-anchor="middle" x="200.5" y="-46" font-family="Helvetica,sans-Serif" font-size="10.00">::name</text>
</a>
</g>
</g>
<!-- Node1&#45;&gt;Node3 -->
<g id="edge2" class="edge">
<title>Node1&#45;&gt;Node3</title>
<path fill="none" stroke="midnightblue" d="M108.4,-54C116.63,-54 125.21,-54 133.67,-54"/>
<polygon fill="midnightblue" stroke="midnightblue" points="133.9,-57.5 143.9,-54 133.9,-50.5 133.9,-57.5"/>
</g>
<!-- Node4 -->
<g id="node4" class="node">
<title>Node4</title>
<g id="a_node4"><a xlink:href="classSensors.html#aaf25dc2afdd983216b66476f69731d54" target="_top" xlink:title=" ">
<polygon fill="white" stroke="black" points="157.5,-0.5 157.5,-19.5 243.5,-19.5 243.5,-0.5 157.5,-0.5"/>
<text text-anchor="middle" x="200.5" y="-7.5" font-family="Helvetica,sans-Serif" font-size="10.00">Sensors::robot</text>
</a>
</g>
</g>
<!-- Node1&#45;&gt;Node4 -->
<g id="edge3" class="edge">
<title>Node1&#45;&gt;Node4</title>
<path fill="none" stroke="midnightblue" d="M86.35,-44.45C107.47,-38.02 135.53,-29.48 158.42,-22.51"/>
<polygon fill="midnightblue" stroke="midnightblue" points="159.66,-25.79 168.21,-19.53 157.62,-19.09 159.66,-25.79"/>
</g>
</g>
</svg>
