<?xml version="1.0" encoding="UTF-8" standalone="no"?>
<!DOCTYPE svg PUBLIC "-//W3C//DTD SVG 1.1//EN"
 "http://www.w3.org/Graphics/SVG/1.1/DTD/svg11.dtd">
<!-- Generated by graphviz version 2.43.0 (0)
 -->
<!-- Title: Adafruit_RGBLCDShield::send Pages: 1 -->
<svg width="1197pt" height="454pt"
 viewBox="0.00 0.00 1197.00 454.00" xmlns="http://www.w3.org/2000/svg" xmlns:xlink="http://www.w3.org/1999/xlink">
<g id="graph0" class="graph" transform="scale(1 1) rotate(0) translate(4 450)">
<title>Adafruit_RGBLCDShield::send</title>
<polygon fill="white" stroke="transparent" points="-4,4 -4,-450 1193,-450 1193,4 -4,4"/>
<!-- Node1 -->
<g id="node1" class="node">
<title>Node1</title>
<g id="a_node1"><a xlink:title=" ">
<polygon fill="#bfbfbf" stroke="black" points="0,-207.5 0,-237.5 131,-237.5 131,-207.5 0,-207.5"/>
<text text-anchor="start" x="8" y="-225.5" font-family="Helvetica,sans-Serif" font-size="10.00">Adafruit_RGBLCDShield</text>
<text text-anchor="middle" x="65.5" y="-214.5" font-family="Helvetica,sans-Serif" font-size="10.00">::send</text>
</a>
</g>
</g>
<!-- Node2 -->
<g id="node2" class="node">
<title>Node2</title>
<g id="a_node2"><a xlink:href="classAdafruit__RGBLCDShield.html#aead28395830ccd7e74041736aba46e03" target="_top" xlink:title=" ">
<polygon fill="white" stroke="black" points="501,-207.5 501,-237.5 632,-237.5 632,-207.5 501,-207.5"/>
<text text-anchor="start" x="509" y="-225.5" font-family="Helvetica,sans-Serif" font-size="10.00">Adafruit_RGBLCDShield</text>
<text text-anchor="middle" x="566.5" y="-214.5" font-family="Helvetica,sans-Serif" font-size="10.00">::_digitalWrite</text>
</a>
</g>
</g>
<!-- Node1&#45;&gt;Node2 -->
<g id="edge1" class="edge">
<title>Node1&#45;&gt;Node2</title>
<path fill="none" stroke="midnightblue" d="M131.22,-222.5C223.68,-222.5 393.14,-222.5 490.8,-222.5"/>
<polygon fill="midnightblue" stroke="midnightblue" points="490.89,-226 500.89,-222.5 490.89,-219 490.89,-226"/>
</g>
<!-- Node18 -->
<g id="node18" class="node">
<title>Node18</title>
<g id="a_node18"><a xlink:href="classAdafruit__RGBLCDShield.html#ad33f31183ab0e61e92a197d8742f07bc" target="_top" xlink:title=" ">
<polygon fill="white" stroke="black" points="167,-112.5 167,-142.5 298,-142.5 298,-112.5 167,-112.5"/>
<text text-anchor="start" x="175" y="-130.5" font-family="Helvetica,sans-Serif" font-size="10.00">Adafruit_RGBLCDShield</text>
<text text-anchor="middle" x="232.5" y="-119.5" font-family="Helvetica,sans-Serif" font-size="10.00">::write4bits</text>
</a>
</g>
</g>
<!-- Node1&#45;&gt;Node18 -->
<g id="edge18" class="edge">
<title>Node1&#45;&gt;Node18</title>
<path fill="none" stroke="midnightblue" d="M92.64,-207.45C120.68,-191.3 165.35,-165.58 196.43,-147.69"/>
<polygon fill="midnightblue" stroke="midnightblue" points="198.29,-150.66 205.2,-142.64 194.79,-144.6 198.29,-150.66"/>
</g>
<!-- Node25 -->
<g id="node25" class="node">
<title>Node25</title>
<g id="a_node25"><a xlink:href="classAdafruit__RGBLCDShield.html#a4a29b886b14aaab83e9c816d92403add" target="_top" xlink:title=" ">
<polygon fill="white" stroke="black" points="167,-251.5 167,-281.5 298,-281.5 298,-251.5 167,-251.5"/>
<text text-anchor="start" x="175" y="-269.5" font-family="Helvetica,sans-Serif" font-size="10.00">Adafruit_RGBLCDShield</text>
<text text-anchor="middle" x="232.5" y="-258.5" font-family="Helvetica,sans-Serif" font-size="10.00">::write8bits</text>
</a>
</g>
</g>
<!-- Node1&#45;&gt;Node25 -->
<g id="edge35" class="edge">
<title>Node1&#45;&gt;Node25</title>
<path fill="none" stroke="midnightblue" d="M122.82,-237.52C136.42,-241.15 151.08,-245.05 165.09,-248.79"/>
<polygon fill="midnightblue" stroke="midnightblue" points="164.59,-252.28 175.15,-251.47 166.39,-245.52 164.59,-252.28"/>
</g>
<!-- Node3 -->
<g id="node3" class="node">
<title>Node3</title>
<g id="a_node3"><a xlink:href="classlogs_1_1Logger.html#a7dffc8f610014ec59b63392da16140e4" target="_top" xlink:title="Trace un message de niveau DEBUG.">
<polygon fill="white" stroke="black" points="677.5,-164 677.5,-183 789.5,-183 789.5,-164 677.5,-164"/>
<text text-anchor="middle" x="733.5" y="-171" font-family="Helvetica,sans-Serif" font-size="10.00">logs::Logger::debug</text>
</a>
</g>
</g>
<!-- Node2&#45;&gt;Node3 -->
<g id="edge2" class="edge">
<title>Node2&#45;&gt;Node3</title>
<path fill="none" stroke="midnightblue" d="M617.84,-207.43C633.87,-202.65 651.68,-197.34 668,-192.5 675.24,-190.35 682.93,-188.08 690.4,-185.88"/>
<polygon fill="midnightblue" stroke="midnightblue" points="691.41,-189.23 700.01,-183.05 689.43,-182.51 691.41,-189.23"/>
</g>
<!-- Node5 -->
<g id="node5" class="node">
<title>Node5</title>
<g id="a_node5"><a xlink:href="classAdafruit__MCP23017.html#a62c7101061540e9af47ea23d5b33fa81" target="_top" xlink:title=" ">
<polygon fill="white" stroke="black" points="674,-114.5 674,-144.5 793,-144.5 793,-114.5 674,-114.5"/>
<text text-anchor="start" x="682" y="-132.5" font-family="Helvetica,sans-Serif" font-size="10.00">Adafruit_MCP23017::</text>
<text text-anchor="middle" x="733.5" y="-121.5" font-family="Helvetica,sans-Serif" font-size="10.00">digitalWrite</text>
</a>
</g>
</g>
<!-- Node2&#45;&gt;Node5 -->
<g id="edge4" class="edge">
<title>Node2&#45;&gt;Node5</title>
<path fill="none" stroke="midnightblue" d="M616.47,-207.48C621.93,-204.89 627.24,-201.9 632,-198.5 652.55,-183.81 647.55,-169.33 668,-154.5 670.63,-152.6 673.41,-150.82 676.3,-149.15"/>
<polygon fill="midnightblue" stroke="midnightblue" points="677.95,-152.24 685.21,-144.52 674.72,-146.03 677.95,-152.24"/>
</g>
<!-- Node8 -->
<g id="node8" class="node">
<title>Node8</title>
<g id="a_node8"><a xlink:href="namespacelogs.html#ac6f325c6cfe6189bc8e243daa184453b" target="_top" xlink:title="Cette méthode permet de finir les flux de construction par la notation.">
<polygon fill="white" stroke="black" points="703,-202 703,-221 764,-221 764,-202 703,-202"/>
<text text-anchor="middle" x="733.5" y="-209" font-family="Helvetica,sans-Serif" font-size="10.00">logs::end</text>
</a>
</g>
</g>
<!-- Node2&#45;&gt;Node8 -->
<g id="edge7" class="edge">
<title>Node2&#45;&gt;Node8</title>
<path fill="none" stroke="midnightblue" d="M632.24,-218.18C652.62,-216.83 674.51,-215.37 692.63,-214.16"/>
<polygon fill="midnightblue" stroke="midnightblue" points="693.07,-217.64 702.82,-213.48 692.6,-210.65 693.07,-217.64"/>
</g>
<!-- Node12 -->
<g id="node12" class="node">
<title>Node12</title>
<g id="a_node12"><a xlink:href="classAdafruit__RGBLCDShield.html#a93313ba4a8e5e896f400006672ff4317" target="_top" xlink:title=" ">
<polygon fill="white" stroke="black" points="668,-240.5 668,-270.5 799,-270.5 799,-240.5 668,-240.5"/>
<text text-anchor="start" x="676" y="-258.5" font-family="Helvetica,sans-Serif" font-size="10.00">Adafruit_RGBLCDShield</text>
<text text-anchor="middle" x="733.5" y="-247.5" font-family="Helvetica,sans-Serif" font-size="10.00">::logger</text>
</a>
</g>
</g>
<!-- Node2&#45;&gt;Node12 -->
<g id="edge12" class="edge">
<title>Node2&#45;&gt;Node12</title>
<path fill="none" stroke="midnightblue" d="M632.24,-235.45C640.67,-237.13 649.37,-238.87 657.95,-240.59"/>
<polygon fill="midnightblue" stroke="midnightblue" points="657.46,-244.06 667.95,-242.59 658.83,-237.2 657.46,-244.06"/>
</g>
<!-- Node4 -->
<g id="node4" class="node">
<title>Node4</title>
<g id="a_node4"><a xlink:href="classlogs_1_1Logger.html#afa535aaf4891e02c4ff7f84d372b5b1b" target="_top" xlink:title="Méthode générique de trace d&#39;un message.">
<polygon fill="white" stroke="black" points="1039,-176 1039,-195 1189,-195 1189,-176 1039,-176"/>
<text text-anchor="middle" x="1114" y="-183" font-family="Helvetica,sans-Serif" font-size="10.00">logs::Logger::writeMessage</text>
</a>
</g>
</g>
<!-- Node3&#45;&gt;Node4 -->
<g id="edge3" class="edge">
<title>Node3&#45;&gt;Node4</title>
<path fill="none" stroke="midnightblue" d="M789.54,-175.24C852.3,-177.23 955.63,-180.51 1028.59,-182.82"/>
<polygon fill="midnightblue" stroke="midnightblue" points="1028.57,-186.32 1038.68,-183.14 1028.79,-179.33 1028.57,-186.32"/>
</g>
<!-- Node6 -->
<g id="node6" class="node">
<title>Node6</title>
<g id="a_node6"><a xlink:href="classAdafruit__MCP23017.html#a5935341a99356efaf41556b5ee78cd5a" target="_top" xlink:title=" ">
<polygon fill="white" stroke="black" points="859.5,-65.5 859.5,-95.5 978.5,-95.5 978.5,-65.5 859.5,-65.5"/>
<text text-anchor="start" x="867.5" y="-83.5" font-family="Helvetica,sans-Serif" font-size="10.00">Adafruit_MCP23017::</text>
<text text-anchor="middle" x="919" y="-72.5" font-family="Helvetica,sans-Serif" font-size="10.00">read_i2c</text>
</a>
</g>
</g>
<!-- Node5&#45;&gt;Node6 -->
<g id="edge5" class="edge">
<title>Node5&#45;&gt;Node6</title>
<path fill="none" stroke="midnightblue" d="M790.8,-114.47C810.18,-109.29 832.05,-103.45 852.11,-98.09"/>
<polygon fill="midnightblue" stroke="midnightblue" points="853.04,-101.47 861.8,-95.51 851.24,-94.7 853.04,-101.47"/>
</g>
<!-- Node7 -->
<g id="node7" class="node">
<title>Node7</title>
<g id="a_node7"><a xlink:href="classAdafruit__MCP23017.html#a29e5ba320b6ce6812c42ab99f5f4c80d" target="_top" xlink:title=" ">
<polygon fill="white" stroke="black" points="859.5,-114.5 859.5,-144.5 978.5,-144.5 978.5,-114.5 859.5,-114.5"/>
<text text-anchor="start" x="867.5" y="-132.5" font-family="Helvetica,sans-Serif" font-size="10.00">Adafruit_MCP23017::</text>
<text text-anchor="middle" x="919" y="-121.5" font-family="Helvetica,sans-Serif" font-size="10.00">write_i2c</text>
</a>
</g>
</g>
<!-- Node5&#45;&gt;Node7 -->
<g id="edge6" class="edge">
<title>Node5&#45;&gt;Node7</title>
<path fill="none" stroke="midnightblue" d="M793.07,-129.5C810.94,-129.5 830.76,-129.5 849.25,-129.5"/>
<polygon fill="midnightblue" stroke="midnightblue" points="849.36,-133 859.36,-129.5 849.36,-126 849.36,-133"/>
</g>
<!-- Node9 -->
<g id="node9" class="node">
<title>Node9</title>
<g id="a_node9"><a xlink:href="classlogs_1_1Logger_1_1LoggerBuffer.html#a0e4fd77693fd899ec1b0670354f93a02" target="_top" xlink:title="Cette méthode valide le message en cours de construction et le transmet au Logger de référence.">
<polygon fill="white" stroke="black" points="835,-202 835,-221 1003,-221 1003,-202 835,-202"/>
<text text-anchor="middle" x="919" y="-209" font-family="Helvetica,sans-Serif" font-size="10.00">logs::Logger::LoggerBuffer::end</text>
</a>
</g>
</g>
<!-- Node8&#45;&gt;Node9 -->
<g id="edge8" class="edge">
<title>Node8&#45;&gt;Node9</title>
<path fill="none" stroke="midnightblue" d="M764.39,-211.5C781.04,-211.5 802.76,-211.5 824.62,-211.5"/>
<polygon fill="midnightblue" stroke="midnightblue" points="824.65,-215 834.65,-211.5 824.65,-208 824.65,-215"/>
</g>
<!-- Node9&#45;&gt;Node4 -->
<g id="edge11" class="edge">
<title>Node9&#45;&gt;Node4</title>
<path fill="none" stroke="midnightblue" d="M990.77,-201.97C1004.28,-200.15 1018.51,-198.23 1032.29,-196.37"/>
<polygon fill="midnightblue" stroke="midnightblue" points="1032.8,-199.84 1042.24,-195.03 1031.86,-192.9 1032.8,-199.84"/>
</g>
<!-- Node10 -->
<g id="node10" class="node">
<title>Node10</title>
<g id="a_node10"><a xlink:href="classutils_1_1Mutex.html#aa584b418a5ef484f76b93e361a1d7e32" target="_top" xlink:title="Verrouille le mutex. Cette méthode doit être appelée avant d&#39;utiliser la ressource associée....">
<polygon fill="white" stroke="black" points="1063.5,-265 1063.5,-284 1164.5,-284 1164.5,-265 1063.5,-265"/>
<text text-anchor="middle" x="1114" y="-272" font-family="Helvetica,sans-Serif" font-size="10.00">utils::Mutex::lock</text>
</a>
</g>
</g>
<!-- Node9&#45;&gt;Node10 -->
<g id="edge9" class="edge">
<title>Node9&#45;&gt;Node10</title>
<path fill="none" stroke="midnightblue" d="M964.67,-221.08C977.17,-224.08 990.7,-227.63 1003,-231.5 1029.97,-239.98 1059.8,-251.8 1081.58,-260.9"/>
<polygon fill="midnightblue" stroke="midnightblue" points="1080.41,-264.2 1090.99,-264.87 1083.13,-257.76 1080.41,-264.2"/>
</g>
<!-- Node11 -->
<g id="node11" class="node">
<title>Node11</title>
<g id="a_node11"><a xlink:href="classutils_1_1Mutex.html#a59b2079dc7f803d49f78ac9c04406cd3" target="_top" xlink:title="Déverrouille le mutex. Cette méthode doit être appelée après avoir utiliser la ressource associée.">
<polygon fill="white" stroke="black" points="1057.5,-214 1057.5,-233 1170.5,-233 1170.5,-214 1057.5,-214"/>
<text text-anchor="middle" x="1114" y="-221" font-family="Helvetica,sans-Serif" font-size="10.00">utils::Mutex::unlock</text>
</a>
</g>
</g>
<!-- Node9&#45;&gt;Node11 -->
<g id="edge10" class="edge">
<title>Node9&#45;&gt;Node11</title>
<path fill="none" stroke="midnightblue" d="M1003.25,-216.68C1017.94,-217.59 1033.06,-218.53 1047.19,-219.41"/>
<polygon fill="midnightblue" stroke="midnightblue" points="1047.09,-222.91 1057.29,-220.04 1047.52,-215.92 1047.09,-222.91"/>
</g>
<!-- Node13 -->
<g id="node13" class="node">
<title>Node13</title>
<g id="a_node13"><a xlink:href="classAdafruit__RGBLCDShield.html#a5d6b24992e72f3beb5187b971eec3d42" target="_top" xlink:title=" ">
<polygon fill="white" stroke="black" points="853.5,-240.5 853.5,-270.5 984.5,-270.5 984.5,-240.5 853.5,-240.5"/>
<text text-anchor="start" x="861.5" y="-258.5" font-family="Helvetica,sans-Serif" font-size="10.00">Adafruit_RGBLCDShield</text>
<text text-anchor="middle" x="919" y="-247.5" font-family="Helvetica,sans-Serif" font-size="10.00">::instance</text>
</a>
</g>
</g>
<!-- Node12&#45;&gt;Node13 -->
<g id="edge13" class="edge">
<title>Node12&#45;&gt;Node13</title>
<path fill="none" stroke="midnightblue" d="M799.2,-255.5C813.45,-255.5 828.66,-255.5 843.27,-255.5"/>
<polygon fill="midnightblue" stroke="midnightblue" points="843.27,-259 853.27,-255.5 843.27,-252 843.27,-259"/>
</g>
<!-- Node14 -->
<g id="node14" class="node">
<title>Node14</title>
<g id="a_node14"><a xlink:href="classlogs_1_1LoggerFactory.html#a82585b5de73e471e06cafdccc3b3721e" target="_top" xlink:title="Cette méthode statique retourne un Logger en fonction de son nom.">
<polygon fill="white" stroke="black" points="863.5,-366.5 863.5,-396.5 974.5,-396.5 974.5,-366.5 863.5,-366.5"/>
<text text-anchor="start" x="871.5" y="-384.5" font-family="Helvetica,sans-Serif" font-size="10.00">logs::LoggerFactory</text>
<text text-anchor="middle" x="919" y="-373.5" font-family="Helvetica,sans-Serif" font-size="10.00">::logger</text>
</a>
</g>
</g>
<!-- Node12&#45;&gt;Node14 -->
<g id="edge14" class="edge">
<title>Node12&#45;&gt;Node14</title>
<path fill="none" stroke="midnightblue" d="M756.63,-270.7C789.37,-293.18 850.81,-335.36 887.7,-360.69"/>
<polygon fill="midnightblue" stroke="midnightblue" points="885.85,-363.67 896.07,-366.44 889.81,-357.9 885.85,-363.67"/>
</g>
<!-- Node15 -->
<g id="node15" class="node">
<title>Node15</title>
<g id="a_node15"><a xlink:href="classlogs_1_1LoggerFactory.html#ac89f19c0ffd71aa8cdc1c2d44c03809e" target="_top" xlink:title="Cette méthode ajoute un appender au système.">
<polygon fill="white" stroke="black" points="1047,-328 1047,-347 1181,-347 1181,-328 1047,-328"/>
<text text-anchor="middle" x="1114" y="-335" font-family="Helvetica,sans-Serif" font-size="10.00">logs::LoggerFactory::add</text>
</a>
</g>
</g>
<!-- Node14&#45;&gt;Node15 -->
<g id="edge15" class="edge">
<title>Node14&#45;&gt;Node15</title>
<path fill="none" stroke="midnightblue" d="M974.53,-369.07C1001.71,-362.87 1034.41,-355.42 1061.21,-349.31"/>
<polygon fill="midnightblue" stroke="midnightblue" points="1062.19,-352.67 1071.16,-347.04 1060.64,-345.85 1062.19,-352.67"/>
</g>
<!-- Node16 -->
<g id="node16" class="node">
<title>Node16</title>
<g id="a_node16"><a xlink:href="classlogs_1_1LoggerFactory.html#a90478b91d7af2ef8841ded21e3521f69" target="_top" xlink:title="Cette méthode statique retourne l&#39;instance unique de la classe LoggerFactory.">
<polygon fill="white" stroke="black" points="1058.5,-415.5 1058.5,-445.5 1169.5,-445.5 1169.5,-415.5 1058.5,-415.5"/>
<text text-anchor="start" x="1066.5" y="-433.5" font-family="Helvetica,sans-Serif" font-size="10.00">logs::LoggerFactory</text>
<text text-anchor="middle" x="1114" y="-422.5" font-family="Helvetica,sans-Serif" font-size="10.00">::instance</text>
</a>
</g>
</g>
<!-- Node14&#45;&gt;Node16 -->
<g id="edge16" class="edge">
<title>Node14&#45;&gt;Node16</title>
<path fill="none" stroke="midnightblue" d="M974.53,-395.34C997.56,-401.19 1024.54,-408.04 1048.54,-414.13"/>
<polygon fill="midnightblue" stroke="midnightblue" points="1047.71,-417.54 1058.27,-416.6 1049.44,-410.75 1047.71,-417.54"/>
</g>
<!-- Node17 -->
<g id="node17" class="node">
<title>Node17</title>
<g id="a_node17"><a xlink:href="classlogs_1_1LoggerFactory.html#a212aa623f4b6bee12cb39e8017dde670" target="_top" xlink:title="Cette méthode retourne le Logger principal qui définit le niveau de trace par défaut.">
<polygon fill="white" stroke="black" points="1058.5,-366.5 1058.5,-396.5 1169.5,-396.5 1169.5,-366.5 1058.5,-366.5"/>
<text text-anchor="start" x="1066.5" y="-384.5" font-family="Helvetica,sans-Serif" font-size="10.00">logs::LoggerFactory</text>
<text text-anchor="middle" x="1114" y="-373.5" font-family="Helvetica,sans-Serif" font-size="10.00">::rootLogger</text>
</a>
</g>
</g>
<!-- Node14&#45;&gt;Node17 -->
<g id="edge17" class="edge">
<title>Node14&#45;&gt;Node17</title>
<path fill="none" stroke="midnightblue" d="M974.53,-381.5C997.45,-381.5 1024.3,-381.5 1048.22,-381.5"/>
<polygon fill="midnightblue" stroke="midnightblue" points="1048.27,-385 1058.27,-381.5 1048.27,-378 1048.27,-385"/>
</g>
<!-- Node18&#45;&gt;Node2 -->
<g id="edge19" class="edge">
<title>Node18&#45;&gt;Node2</title>
<path fill="none" stroke="midnightblue" d="M286.11,-142.55C345.03,-159.41 440.46,-186.72 503.1,-204.65"/>
<polygon fill="midnightblue" stroke="midnightblue" points="502.29,-208.05 512.87,-207.44 504.21,-201.32 502.29,-208.05"/>
</g>
<!-- Node19 -->
<g id="node19" class="node">
<title>Node19</title>
<g id="a_node19"><a xlink:href="classAdafruit__RGBLCDShield.html#a1668a3877e0d9960df698b68195b3d27" target="_top" xlink:title=" ">
<polygon fill="white" stroke="black" points="501,-158.5 501,-188.5 632,-188.5 632,-158.5 501,-158.5"/>
<text text-anchor="start" x="509" y="-176.5" font-family="Helvetica,sans-Serif" font-size="10.00">Adafruit_RGBLCDShield</text>
<text text-anchor="middle" x="566.5" y="-165.5" font-family="Helvetica,sans-Serif" font-size="10.00">::_pinMode</text>
</a>
</g>
</g>
<!-- Node18&#45;&gt;Node19 -->
<g id="edge20" class="edge">
<title>Node18&#45;&gt;Node19</title>
<path fill="none" stroke="midnightblue" d="M298.08,-122.65C344.91,-120.64 409.5,-120.99 465,-132.5 486.37,-136.93 508.97,-145.74 527.32,-154.07"/>
<polygon fill="midnightblue" stroke="midnightblue" points="525.95,-157.29 536.5,-158.35 528.91,-150.95 525.95,-157.29"/>
</g>
<!-- Node21 -->
<g id="node21" class="node">
<title>Node21</title>
<g id="a_node21"><a xlink:href="classAdafruit__RGBLCDShield.html#a59fb0fd79b214abe02fee3459ef69f96" target="_top" xlink:title=" ">
<polygon fill="white" stroke="black" points="334,-289.5 334,-319.5 465,-319.5 465,-289.5 334,-289.5"/>
<text text-anchor="start" x="342" y="-307.5" font-family="Helvetica,sans-Serif" font-size="10.00">Adafruit_RGBLCDShield</text>
<text text-anchor="middle" x="399.5" y="-296.5" font-family="Helvetica,sans-Serif" font-size="10.00">::pulseEnable</text>
</a>
</g>
</g>
<!-- Node18&#45;&gt;Node21 -->
<g id="edge27" class="edge">
<title>Node18&#45;&gt;Node21</title>
<path fill="none" stroke="midnightblue" d="M247.57,-142.59C276.55,-173.68 343.05,-245.02 377.29,-281.74"/>
<polygon fill="midnightblue" stroke="midnightblue" points="375.09,-284.52 384.47,-289.45 380.21,-279.75 375.09,-284.52"/>
</g>
<!-- Node22 -->
<g id="node22" class="node">
<title>Node22</title>
<g id="a_node22"><a xlink:href="classAdafruit__MCP23017.html#a07d894fe9d749fd7d3d098c99ce1fa64" target="_top" xlink:title=" ">
<polygon fill="white" stroke="black" points="340,-0.5 340,-30.5 459,-30.5 459,-0.5 340,-0.5"/>
<text text-anchor="start" x="348" y="-18.5" font-family="Helvetica,sans-Serif" font-size="10.00">Adafruit_MCP23017::</text>
<text text-anchor="middle" x="399.5" y="-7.5" font-family="Helvetica,sans-Serif" font-size="10.00">readGPIOAB</text>
</a>
</g>
</g>
<!-- Node18&#45;&gt;Node22 -->
<g id="edge31" class="edge">
<title>Node18&#45;&gt;Node22</title>
<path fill="none" stroke="midnightblue" d="M247.48,-112.23C265.76,-93.01 299.54,-60.05 334,-39.5 336.77,-37.85 339.67,-36.28 342.65,-34.79"/>
<polygon fill="midnightblue" stroke="midnightblue" points="344.15,-37.95 351.75,-30.57 341.2,-31.6 344.15,-37.95"/>
</g>
<!-- Node23 -->
<g id="node23" class="node">
<title>Node23</title>
<g id="a_node23"><a xlink:href="classAdafruit__MCP23017.html#a4b4845ea14d7207f22b0163ae5c622f2" target="_top" xlink:title=" ">
<polygon fill="white" stroke="black" points="340,-49.5 340,-79.5 459,-79.5 459,-49.5 340,-49.5"/>
<text text-anchor="start" x="348" y="-67.5" font-family="Helvetica,sans-Serif" font-size="10.00">Adafruit_MCP23017::</text>
<text text-anchor="middle" x="399.5" y="-56.5" font-family="Helvetica,sans-Serif" font-size="10.00">writeGPIOAB</text>
</a>
</g>
</g>
<!-- Node18&#45;&gt;Node23 -->
<g id="edge33" class="edge">
<title>Node18&#45;&gt;Node23</title>
<path fill="none" stroke="midnightblue" d="M273.02,-112.41C296,-103.64 325.15,-92.51 349.57,-83.18"/>
<polygon fill="midnightblue" stroke="midnightblue" points="350.92,-86.41 359.02,-79.58 348.42,-79.87 350.92,-86.41"/>
</g>
<!-- Node19&#45;&gt;Node3 -->
<g id="edge21" class="edge">
<title>Node19&#45;&gt;Node3</title>
<path fill="none" stroke="midnightblue" d="M632.24,-173.5C643.64,-173.5 655.53,-173.5 666.95,-173.5"/>
<polygon fill="midnightblue" stroke="midnightblue" points="667.29,-177 677.29,-173.5 667.29,-170 667.29,-177"/>
</g>
<!-- Node19&#45;&gt;Node8 -->
<g id="edge22" class="edge">
<title>Node19&#45;&gt;Node8</title>
<path fill="none" stroke="midnightblue" d="M632.24,-188.41C652.71,-193.12 674.72,-198.19 692.88,-202.38"/>
<polygon fill="midnightblue" stroke="midnightblue" points="692.28,-205.83 702.82,-204.66 693.86,-199.01 692.28,-205.83"/>
</g>
<!-- Node19&#45;&gt;Node12 -->
<g id="edge23" class="edge">
<title>Node19&#45;&gt;Node12</title>
<path fill="none" stroke="midnightblue" d="M612.56,-188.57C619.27,-191.49 625.95,-194.81 632,-198.5 650.27,-209.66 649.73,-219.34 668,-230.5 671.21,-232.46 674.61,-234.32 678.09,-236.06"/>
<polygon fill="midnightblue" stroke="midnightblue" points="676.9,-239.37 687.44,-240.43 679.86,-233.03 676.9,-239.37"/>
</g>
<!-- Node20 -->
<g id="node20" class="node">
<title>Node20</title>
<g id="a_node20"><a xlink:href="classAdafruit__MCP23017.html#a6f2aea0d187cb281a4ed216fd31a6981" target="_top" xlink:title=" ">
<polygon fill="white" stroke="black" points="674,-65.5 674,-95.5 793,-95.5 793,-65.5 674,-65.5"/>
<text text-anchor="start" x="682" y="-83.5" font-family="Helvetica,sans-Serif" font-size="10.00">Adafruit_MCP23017::</text>
<text text-anchor="middle" x="733.5" y="-72.5" font-family="Helvetica,sans-Serif" font-size="10.00">pinMode</text>
</a>
</g>
</g>
<!-- Node19&#45;&gt;Node20 -->
<g id="edge24" class="edge">
<title>Node19&#45;&gt;Node20</title>
<path fill="none" stroke="midnightblue" d="M586.62,-158.25C606.2,-143.16 637.95,-120.11 668,-104.5 671.27,-102.8 674.68,-101.17 678.16,-99.6"/>
<polygon fill="midnightblue" stroke="midnightblue" points="679.65,-102.78 687.47,-95.63 676.9,-96.34 679.65,-102.78"/>
</g>
<!-- Node20&#45;&gt;Node6 -->
<g id="edge25" class="edge">
<title>Node20&#45;&gt;Node6</title>
<path fill="none" stroke="midnightblue" d="M793.07,-80.5C810.94,-80.5 830.76,-80.5 849.25,-80.5"/>
<polygon fill="midnightblue" stroke="midnightblue" points="849.36,-84 859.36,-80.5 849.36,-77 849.36,-84"/>
</g>
<!-- Node20&#45;&gt;Node7 -->
<g id="edge26" class="edge">
<title>Node20&#45;&gt;Node7</title>
<path fill="none" stroke="midnightblue" d="M790.8,-95.53C810.18,-100.71 832.05,-106.55 852.11,-111.91"/>
<polygon fill="midnightblue" stroke="midnightblue" points="851.24,-115.3 861.8,-114.49 853.04,-108.53 851.24,-115.3"/>
</g>
<!-- Node21&#45;&gt;Node2 -->
<g id="edge28" class="edge">
<title>Node21&#45;&gt;Node2</title>
<path fill="none" stroke="midnightblue" d="M433.77,-289.35C443.85,-284.68 454.91,-279.45 465,-274.5 486.06,-264.16 509.35,-252.14 528.2,-242.27"/>
<polygon fill="midnightblue" stroke="midnightblue" points="529.85,-245.36 537.07,-237.62 526.59,-239.17 529.85,-245.36"/>
</g>
<!-- Node21&#45;&gt;Node10 -->
<g id="edge29" class="edge">
<title>Node21&#45;&gt;Node10</title>
<path fill="none" stroke="midnightblue" d="M465.31,-313.23C576.34,-326.47 809.69,-346.75 1003,-313.5 1031.05,-308.67 1061.44,-297.4 1083.16,-288.21"/>
<polygon fill="midnightblue" stroke="midnightblue" points="1084.7,-291.35 1092.48,-284.16 1081.92,-284.93 1084.7,-291.35"/>
</g>
<!-- Node21&#45;&gt;Node11 -->
<g id="edge30" class="edge">
<title>Node21&#45;&gt;Node11</title>
<path fill="none" stroke="midnightblue" d="M465.15,-306.46C599.6,-309.8 904.98,-313.35 1003,-280.5 1021.47,-274.31 1021.98,-264.97 1039,-255.5 1051.38,-248.61 1065.54,-242.17 1078.13,-236.9"/>
<polygon fill="midnightblue" stroke="midnightblue" points="1079.47,-240.13 1087.4,-233.11 1076.82,-233.65 1079.47,-240.13"/>
</g>
<!-- Node22&#45;&gt;Node6 -->
<g id="edge32" class="edge">
<title>Node22&#45;&gt;Node6</title>
<path fill="none" stroke="midnightblue" d="M459.16,-19.41C537.09,-25.06 678.92,-36.92 799,-55.5 815.33,-58.03 832.79,-61.35 849.17,-64.73"/>
<polygon fill="midnightblue" stroke="midnightblue" points="848.71,-68.21 859.21,-66.85 850.15,-61.36 848.71,-68.21"/>
</g>
<!-- Node24 -->
<g id="node24" class="node">
<title>Node24</title>
<g id="a_node24"><a xlink:href="classAdafruit__MCP23017.html#a20fd3536424d0c91dba741894a010fd7" target="_top" xlink:title=" ">
<polygon fill="white" stroke="black" points="507,-49.5 507,-79.5 626,-79.5 626,-49.5 507,-49.5"/>
<text text-anchor="start" x="515" y="-67.5" font-family="Helvetica,sans-Serif" font-size="10.00">Adafruit_MCP23017::</text>
<text text-anchor="middle" x="566.5" y="-56.5" font-family="Helvetica,sans-Serif" font-size="10.00">writeI2c_3Bytes</text>
</a>
</g>
</g>
<!-- Node23&#45;&gt;Node24 -->
<g id="edge34" class="edge">
<title>Node23&#45;&gt;Node24</title>
<path fill="none" stroke="midnightblue" d="M459.14,-64.5C471.22,-64.5 484.06,-64.5 496.47,-64.5"/>
<polygon fill="midnightblue" stroke="midnightblue" points="496.77,-68 506.77,-64.5 496.77,-61 496.77,-68"/>
</g>
<!-- Node25&#45;&gt;Node2 -->
<g id="edge36" class="edge">
<title>Node25&#45;&gt;Node2</title>
<path fill="none" stroke="midnightblue" d="M298.38,-258.26C344.8,-252.32 408.77,-244.06 465,-236.5 473.35,-235.38 482.08,-234.19 490.76,-232.99"/>
<polygon fill="midnightblue" stroke="midnightblue" points="491.48,-236.43 500.91,-231.59 490.52,-229.49 491.48,-236.43"/>
</g>
<!-- Node25&#45;&gt;Node19 -->
<g id="edge37" class="edge">
<title>Node25&#45;&gt;Node19</title>
<path fill="none" stroke="midnightblue" d="M275.81,-251.38C293.67,-245.21 314.75,-238.2 334,-232.5 386.06,-217.09 445.4,-202.01 490.97,-190.96"/>
<polygon fill="midnightblue" stroke="midnightblue" points="491.87,-194.34 500.77,-188.59 490.23,-187.53 491.87,-194.34"/>
</g>
<!-- Node25&#45;&gt;Node21 -->
<g id="edge38" class="edge">
<title>Node25&#45;&gt;Node21</title>
<path fill="none" stroke="midnightblue" d="M298.24,-281.41C306.67,-283.35 315.37,-285.36 323.95,-287.33"/>
<polygon fill="midnightblue" stroke="midnightblue" points="323.42,-290.8 333.95,-289.63 324.99,-283.98 323.42,-290.8"/>
</g>
</g>
</svg>
