<?xml version="1.0" encoding="UTF-8" standalone="no"?>
<!DOCTYPE svg PUBLIC "-//W3C//DTD SVG 1.1//EN"
 "http://www.w3.org/Graphics/SVG/1.1/DTD/svg11.dtd">
<!-- Generated by graphviz version 2.43.0 (0)
 -->
<!-- Title: LedBar::startReset Pages: 1 -->
<svg width="1147pt" height="383pt"
 viewBox="0.00 0.00 1147.00 383.00" xmlns="http://www.w3.org/2000/svg" xmlns:xlink="http://www.w3.org/1999/xlink">
<g id="graph0" class="graph" transform="scale(1 1) rotate(0) translate(4 379)">
<title>LedBar::startReset</title>
<polygon fill="white" stroke="transparent" points="-4,4 -4,-379 1143,-379 1143,4 -4,4"/>
<!-- Node1 -->
<g id="node1" class="node">
<title>Node1</title>
<g id="a_node1"><a xlink:title="Lance l&#39;action d&#39;éteindre toutes les leds.">
<polygon fill="#bfbfbf" stroke="black" points="0,-134.5 0,-153.5 107,-153.5 107,-134.5 0,-134.5"/>
<text text-anchor="middle" x="53.5" y="-141.5" font-family="Helvetica,sans-Serif" font-size="10.00">LedBar::startReset</text>
</a>
</g>
</g>
<!-- Node2 -->
<g id="node2" class="node">
<title>Node2</title>
<g id="a_node2"><a xlink:href="classAActionsElement.html#a3fbd5b8201049a59602d8b7201a9ef8a" target="_top" xlink:title="Retourne une référence sur le Actions associé.">
<polygon fill="white" stroke="black" points="143,-153.5 143,-172.5 284,-172.5 284,-153.5 143,-153.5"/>
<text text-anchor="middle" x="213.5" y="-160.5" font-family="Helvetica,sans-Serif" font-size="10.00">AActionsElement::actions</text>
</a>
</g>
</g>
<!-- Node1&#45;&gt;Node2 -->
<g id="edge1" class="edge">
<title>Node1&#45;&gt;Node2</title>
<path fill="none" stroke="midnightblue" d="M107.11,-150.33C115.37,-151.32 124.06,-152.37 132.77,-153.41"/>
<polygon fill="midnightblue" stroke="midnightblue" points="132.62,-156.92 142.97,-154.64 133.46,-149.97 132.62,-156.92"/>
</g>
<!-- Node3 -->
<g id="node3" class="node">
<title>Node3</title>
<g id="a_node3"><a xlink:href="classActions.html#a710f952f5942e626d73e47733a8848b0" target="_top" xlink:title="Ajout d&#39;une action.">
<polygon fill="white" stroke="black" points="160,-115.5 160,-134.5 267,-134.5 267,-115.5 160,-115.5"/>
<text text-anchor="middle" x="213.5" y="-122.5" font-family="Helvetica,sans-Serif" font-size="10.00">Actions::addAction</text>
</a>
</g>
</g>
<!-- Node1&#45;&gt;Node3 -->
<g id="edge2" class="edge">
<title>Node1&#45;&gt;Node3</title>
<path fill="none" stroke="midnightblue" d="M107.11,-137.67C120.76,-136.03 135.61,-134.25 149.72,-132.55"/>
<polygon fill="midnightblue" stroke="midnightblue" points="150.34,-136 159.85,-131.33 149.5,-129.05 150.34,-136"/>
</g>
<!-- Node4 -->
<g id="node4" class="node">
<title>Node4</title>
<g id="a_node4"><a xlink:href="classActionManagerTimer.html#ad44aa7bf3d361e60d3ed764d833eafc5" target="_top" xlink:title="Ajout d&#39;une action.">
<polygon fill="white" stroke="black" points="320,-204 320,-234 439,-234 439,-204 320,-204"/>
<text text-anchor="start" x="328" y="-222" font-family="Helvetica,sans-Serif" font-size="10.00">ActionManagerTimer</text>
<text text-anchor="middle" x="379.5" y="-211" font-family="Helvetica,sans-Serif" font-size="10.00">::addAction</text>
</a>
</g>
</g>
<!-- Node3&#45;&gt;Node4 -->
<g id="edge3" class="edge">
<title>Node3&#45;&gt;Node4</title>
<path fill="none" stroke="midnightblue" d="M259.98,-134.58C268.2,-137.11 276.52,-140.21 284,-144 311.06,-157.71 337.75,-179.91 355.82,-196.6"/>
<polygon fill="midnightblue" stroke="midnightblue" points="353.81,-199.52 363.49,-203.84 358.62,-194.43 353.81,-199.52"/>
</g>
<!-- Node7 -->
<g id="node7" class="node">
<title>Node7</title>
<g id="a_node7"><a xlink:href="namespacelogs.html#ac6f325c6cfe6189bc8e243daa184453b" target="_top" xlink:title="Cette méthode permet de finir les flux de construction par la notation.">
<polygon fill="white" stroke="black" points="659,-115.5 659,-134.5 720,-134.5 720,-115.5 659,-115.5"/>
<text text-anchor="middle" x="689.5" y="-122.5" font-family="Helvetica,sans-Serif" font-size="10.00">logs::end</text>
</a>
</g>
</g>
<!-- Node3&#45;&gt;Node7 -->
<g id="edge21" class="edge">
<title>Node3&#45;&gt;Node7</title>
<path fill="none" stroke="midnightblue" d="M267.04,-125C362.72,-125 563.36,-125 648.71,-125"/>
<polygon fill="midnightblue" stroke="midnightblue" points="648.77,-128.5 658.77,-125 648.77,-121.5 648.77,-128.5"/>
</g>
<!-- Node11 -->
<g id="node11" class="node">
<title>Node11</title>
<g id="a_node11"><a xlink:href="classlogs_1_1Logger.html#a8b6a2019233bc44b3c3c86c653910831" target="_top" xlink:title="Trace un message de niveau ERROR.">
<polygon fill="white" stroke="black" points="637,-77.5 637,-96.5 742,-96.5 742,-77.5 637,-77.5"/>
<text text-anchor="middle" x="689.5" y="-84.5" font-family="Helvetica,sans-Serif" font-size="10.00">logs::Logger::error</text>
</a>
</g>
</g>
<!-- Node3&#45;&gt;Node11 -->
<g id="edge22" class="edge">
<title>Node3&#45;&gt;Node11</title>
<path fill="none" stroke="midnightblue" d="M267.04,-120.79C355.21,-113.72 532.51,-99.51 626.59,-91.96"/>
<polygon fill="midnightblue" stroke="midnightblue" points="627.12,-95.43 636.81,-91.14 626.56,-88.45 627.12,-95.43"/>
</g>
<!-- Node17 -->
<g id="node17" class="node">
<title>Node17</title>
<g id="a_node17"><a xlink:href="classActions.html#a637e05ac19e873621b1e123c2ff29990" target="_top" xlink:title="Indique si le gestionnaire d&#39;actions est démarré.">
<polygon fill="white" stroke="black" points="326,-310.5 326,-329.5 433,-329.5 433,-310.5 326,-310.5"/>
<text text-anchor="middle" x="379.5" y="-317.5" font-family="Helvetica,sans-Serif" font-size="10.00">Actions::is_started</text>
</a>
</g>
</g>
<!-- Node3&#45;&gt;Node17 -->
<g id="edge23" class="edge">
<title>Node3&#45;&gt;Node17</title>
<path fill="none" stroke="midnightblue" d="M267.11,-133.41C273.3,-136.05 279.13,-139.5 284,-144 318.69,-176.06 297.32,-202.56 320,-244 331.9,-265.73 349.73,-287.88 362.57,-302.61"/>
<polygon fill="midnightblue" stroke="midnightblue" points="360.22,-305.23 369.48,-310.37 365.45,-300.58 360.22,-305.23"/>
</g>
<!-- Node19 -->
<g id="node19" class="node">
<title>Node19</title>
<g id="a_node19"><a xlink:href="classActions.html#a9cc6c9bd885d6e03234b0cf5061a5ca1" target="_top" xlink:title="Return Logger linked to Actions.">
<polygon fill="white" stroke="black" points="490,-39.5 490,-58.5 579,-58.5 579,-39.5 490,-39.5"/>
<text text-anchor="middle" x="534.5" y="-46.5" font-family="Helvetica,sans-Serif" font-size="10.00">Actions::logger</text>
</a>
</g>
</g>
<!-- Node3&#45;&gt;Node19 -->
<g id="edge27" class="edge">
<title>Node3&#45;&gt;Node19</title>
<path fill="none" stroke="midnightblue" d="M229.54,-115.49C249.42,-103.42 285.9,-82.99 320,-73 372.86,-57.52 435.77,-51.91 479.55,-49.94"/>
<polygon fill="midnightblue" stroke="midnightblue" points="479.85,-53.43 489.7,-49.53 479.57,-46.44 479.85,-53.43"/>
</g>
<!-- Node5 -->
<g id="node5" class="node">
<title>Node5</title>
<g id="a_node5"><a xlink:href="classutils_1_1Mutex.html#aa584b418a5ef484f76b93e361a1d7e32" target="_top" xlink:title="Verrouille le mutex. Cette méthode doit être appelée avant d&#39;utiliser la ressource associée....">
<polygon fill="white" stroke="black" points="1013.5,-222.5 1013.5,-241.5 1114.5,-241.5 1114.5,-222.5 1013.5,-222.5"/>
<text text-anchor="middle" x="1064" y="-229.5" font-family="Helvetica,sans-Serif" font-size="10.00">utils::Mutex::lock</text>
</a>
</g>
</g>
<!-- Node4&#45;&gt;Node5 -->
<g id="edge4" class="edge">
<title>Node4&#45;&gt;Node5</title>
<path fill="none" stroke="midnightblue" d="M439.11,-220.7C517.78,-222.93 661.91,-226.81 785,-229 860.19,-230.34 946.83,-231.16 1003.13,-231.59"/>
<polygon fill="midnightblue" stroke="midnightblue" points="1003.25,-235.1 1013.28,-231.67 1003.31,-228.1 1003.25,-235.1"/>
</g>
<!-- Node6 -->
<g id="node6" class="node">
<title>Node6</title>
<g id="a_node6"><a xlink:href="classActionManagerTimer.html#a39f4cbb5ddbbe6a40980bb59b8b59b05" target="_top" xlink:title=" ">
<polygon fill="white" stroke="black" points="475,-173 475,-203 594,-203 594,-173 475,-173"/>
<text text-anchor="start" x="483" y="-191" font-family="Helvetica,sans-Serif" font-size="10.00">ActionManagerTimer</text>
<text text-anchor="middle" x="534.5" y="-180" font-family="Helvetica,sans-Serif" font-size="10.00">::unblock</text>
</a>
</g>
</g>
<!-- Node4&#45;&gt;Node6 -->
<g id="edge5" class="edge">
<title>Node4&#45;&gt;Node6</title>
<path fill="none" stroke="midnightblue" d="M439.22,-207.1C447.64,-205.4 456.36,-203.63 464.95,-201.89"/>
<polygon fill="midnightblue" stroke="midnightblue" points="465.84,-205.28 474.94,-199.86 464.44,-198.42 465.84,-205.28"/>
</g>
<!-- Node9 -->
<g id="node9" class="node">
<title>Node9</title>
<g id="a_node9"><a xlink:href="classutils_1_1Mutex.html#a59b2079dc7f803d49f78ac9c04406cd3" target="_top" xlink:title="Déverrouille le mutex. Cette méthode doit être appelée après avoir utiliser la ressource associée.">
<polygon fill="white" stroke="black" points="1007.5,-298.5 1007.5,-317.5 1120.5,-317.5 1120.5,-298.5 1007.5,-298.5"/>
<text text-anchor="middle" x="1064" y="-305.5" font-family="Helvetica,sans-Serif" font-size="10.00">utils::Mutex::unlock</text>
</a>
</g>
</g>
<!-- Node4&#45;&gt;Node9 -->
<g id="edge20" class="edge">
<title>Node4&#45;&gt;Node9</title>
<path fill="none" stroke="midnightblue" d="M439.16,-230.59C451,-232.81 463.39,-235.05 475,-237 612.3,-260.03 646.76,-265.51 785,-282 857.39,-290.63 940.67,-298.1 997.06,-302.78"/>
<polygon fill="midnightblue" stroke="midnightblue" points="997.01,-306.29 1007.27,-303.63 997.59,-299.32 997.01,-306.29"/>
</g>
<!-- Node6&#45;&gt;Node5 -->
<g id="edge13" class="edge">
<title>Node6&#45;&gt;Node5</title>
<path fill="none" stroke="midnightblue" d="M594.22,-192.9C695.35,-201.33 901.3,-218.51 1003.18,-227.01"/>
<polygon fill="midnightblue" stroke="midnightblue" points="1003.04,-230.51 1013.3,-227.85 1003.62,-223.54 1003.04,-230.51"/>
</g>
<!-- Node6&#45;&gt;Node7 -->
<g id="edge6" class="edge">
<title>Node6&#45;&gt;Node7</title>
<path fill="none" stroke="midnightblue" d="M566.67,-172.89C584.93,-164.27 608.56,-153.52 630,-145 636.09,-142.58 642.6,-140.18 648.98,-137.92"/>
<polygon fill="midnightblue" stroke="midnightblue" points="650.53,-141.09 658.83,-134.52 648.24,-134.48 650.53,-141.09"/>
</g>
<!-- Node6&#45;&gt;Node9 -->
<g id="edge19" class="edge">
<title>Node6&#45;&gt;Node9</title>
<path fill="none" stroke="midnightblue" d="M588.35,-203.09C601.89,-206.8 616.45,-210.67 630,-214 763.56,-246.84 921.77,-279.66 1005.05,-296.47"/>
<polygon fill="midnightblue" stroke="midnightblue" points="1004.57,-299.94 1015.07,-298.49 1005.96,-293.08 1004.57,-299.94"/>
</g>
<!-- Node6&#45;&gt;Node11 -->
<g id="edge11" class="edge">
<title>Node6&#45;&gt;Node11</title>
<path fill="none" stroke="midnightblue" d="M549.14,-172.93C566.36,-154.72 597.66,-124.27 630,-106 633.71,-103.9 637.69,-102 641.76,-100.27"/>
<polygon fill="midnightblue" stroke="midnightblue" points="643.27,-103.44 651.34,-96.58 640.75,-96.91 643.27,-103.44"/>
</g>
<!-- Node12 -->
<g id="node12" class="node">
<title>Node12</title>
<g id="a_node12"><a xlink:href="classActionManagerTimer.html#a280846361e5c7e0ebe57972755841c2b" target="_top" xlink:title=" ">
<polygon fill="white" stroke="black" points="630,-154 630,-184 749,-184 749,-154 630,-154"/>
<text text-anchor="start" x="638" y="-172" font-family="Helvetica,sans-Serif" font-size="10.00">ActionManagerTimer</text>
<text text-anchor="middle" x="689.5" y="-161" font-family="Helvetica,sans-Serif" font-size="10.00">::logger</text>
</a>
</g>
</g>
<!-- Node6&#45;&gt;Node12 -->
<g id="edge14" class="edge">
<title>Node6&#45;&gt;Node12</title>
<path fill="none" stroke="midnightblue" d="M594.22,-180.71C602.64,-179.66 611.36,-178.58 619.95,-177.51"/>
<polygon fill="midnightblue" stroke="midnightblue" points="620.45,-180.98 629.94,-176.27 619.59,-174.03 620.45,-180.98"/>
</g>
<!-- Node8 -->
<g id="node8" class="node">
<title>Node8</title>
<g id="a_node8"><a xlink:href="classlogs_1_1Logger_1_1LoggerBuffer.html#a0e4fd77693fd899ec1b0670354f93a02" target="_top" xlink:title="Cette méthode valide le message en cours de construction et le transmet au Logger de référence.">
<polygon fill="white" stroke="black" points="785,-157.5 785,-176.5 953,-176.5 953,-157.5 785,-157.5"/>
<text text-anchor="middle" x="869" y="-164.5" font-family="Helvetica,sans-Serif" font-size="10.00">logs::Logger::LoggerBuffer::end</text>
</a>
</g>
</g>
<!-- Node7&#45;&gt;Node8 -->
<g id="edge7" class="edge">
<title>Node7&#45;&gt;Node8</title>
<path fill="none" stroke="midnightblue" d="M720.21,-132.03C746.75,-138.31 786.17,-147.64 817.63,-155.08"/>
<polygon fill="midnightblue" stroke="midnightblue" points="817,-158.53 827.54,-157.43 818.61,-151.72 817,-158.53"/>
</g>
<!-- Node8&#45;&gt;Node5 -->
<g id="edge8" class="edge">
<title>Node8&#45;&gt;Node5</title>
<path fill="none" stroke="midnightblue" d="M898.48,-176.59C932.07,-187.9 988.04,-206.75 1025.23,-219.28"/>
<polygon fill="midnightblue" stroke="midnightblue" points="1024.13,-222.6 1034.72,-222.48 1026.36,-215.97 1024.13,-222.6"/>
</g>
<!-- Node8&#45;&gt;Node9 -->
<g id="edge9" class="edge">
<title>Node8&#45;&gt;Node9</title>
<path fill="none" stroke="midnightblue" d="M883.27,-176.69C916.12,-200.7 1001.52,-263.09 1041.62,-292.38"/>
<polygon fill="midnightblue" stroke="midnightblue" points="1039.76,-295.35 1049.9,-298.43 1043.89,-289.7 1039.76,-295.35"/>
</g>
<!-- Node10 -->
<g id="node10" class="node">
<title>Node10</title>
<g id="a_node10"><a xlink:href="classlogs_1_1Logger.html#afa535aaf4891e02c4ff7f84d372b5b1b" target="_top" xlink:title="Méthode générique de trace d&#39;un message.">
<polygon fill="white" stroke="black" points="989,-153.5 989,-172.5 1139,-172.5 1139,-153.5 989,-153.5"/>
<text text-anchor="middle" x="1064" y="-160.5" font-family="Helvetica,sans-Serif" font-size="10.00">logs::Logger::writeMessage</text>
</a>
</g>
</g>
<!-- Node8&#45;&gt;Node10 -->
<g id="edge10" class="edge">
<title>Node8&#45;&gt;Node10</title>
<path fill="none" stroke="midnightblue" d="M953.25,-165.27C961.66,-165.1 970.21,-164.92 978.64,-164.75"/>
<polygon fill="midnightblue" stroke="midnightblue" points="978.91,-168.24 988.84,-164.54 978.77,-161.25 978.91,-168.24"/>
</g>
<!-- Node11&#45;&gt;Node10 -->
<g id="edge12" class="edge">
<title>Node11&#45;&gt;Node10</title>
<path fill="none" stroke="midnightblue" d="M737.3,-96.55C805.7,-110.5 932.8,-136.44 1006.38,-151.45"/>
<polygon fill="midnightblue" stroke="midnightblue" points="1005.89,-154.92 1016.39,-153.49 1007.29,-148.06 1005.89,-154.92"/>
</g>
<!-- Node13 -->
<g id="node13" class="node">
<title>Node13</title>
<g id="a_node13"><a xlink:href="classlogs_1_1LoggerFactory.html#a82585b5de73e471e06cafdccc3b3721e" target="_top" xlink:title="Cette méthode statique retourne un Logger en fonction de son nom.">
<polygon fill="white" stroke="black" points="813.5,-39 813.5,-69 924.5,-69 924.5,-39 813.5,-39"/>
<text text-anchor="start" x="821.5" y="-57" font-family="Helvetica,sans-Serif" font-size="10.00">logs::LoggerFactory</text>
<text text-anchor="middle" x="869" y="-46" font-family="Helvetica,sans-Serif" font-size="10.00">::logger</text>
</a>
</g>
</g>
<!-- Node12&#45;&gt;Node13 -->
<g id="edge15" class="edge">
<title>Node12&#45;&gt;Node13</title>
<path fill="none" stroke="midnightblue" d="M729.54,-153.89C736.17,-150.88 742.89,-147.55 749,-144 783.67,-123.88 819.91,-95.2 843.15,-75.66"/>
<polygon fill="midnightblue" stroke="midnightblue" points="845.45,-78.3 850.81,-69.16 840.92,-72.96 845.45,-78.3"/>
</g>
<!-- Node14 -->
<g id="node14" class="node">
<title>Node14</title>
<g id="a_node14"><a xlink:href="classlogs_1_1LoggerFactory.html#ac89f19c0ffd71aa8cdc1c2d44c03809e" target="_top" xlink:title="Cette méthode ajoute un appender au système.">
<polygon fill="white" stroke="black" points="997,-0.5 997,-19.5 1131,-19.5 1131,-0.5 997,-0.5"/>
<text text-anchor="middle" x="1064" y="-7.5" font-family="Helvetica,sans-Serif" font-size="10.00">logs::LoggerFactory::add</text>
</a>
</g>
</g>
<!-- Node13&#45;&gt;Node14 -->
<g id="edge16" class="edge">
<title>Node13&#45;&gt;Node14</title>
<path fill="none" stroke="midnightblue" d="M924.53,-41.57C951.71,-35.37 984.41,-27.92 1011.21,-21.81"/>
<polygon fill="midnightblue" stroke="midnightblue" points="1012.19,-25.17 1021.16,-19.54 1010.64,-18.35 1012.19,-25.17"/>
</g>
<!-- Node15 -->
<g id="node15" class="node">
<title>Node15</title>
<g id="a_node15"><a xlink:href="classlogs_1_1LoggerFactory.html#a90478b91d7af2ef8841ded21e3521f69" target="_top" xlink:title="Cette méthode statique retourne l&#39;instance unique de la classe LoggerFactory.">
<polygon fill="white" stroke="black" points="1008.5,-88 1008.5,-118 1119.5,-118 1119.5,-88 1008.5,-88"/>
<text text-anchor="start" x="1016.5" y="-106" font-family="Helvetica,sans-Serif" font-size="10.00">logs::LoggerFactory</text>
<text text-anchor="middle" x="1064" y="-95" font-family="Helvetica,sans-Serif" font-size="10.00">::instance</text>
</a>
</g>
</g>
<!-- Node13&#45;&gt;Node15 -->
<g id="edge17" class="edge">
<title>Node13&#45;&gt;Node15</title>
<path fill="none" stroke="midnightblue" d="M924.53,-67.84C947.56,-73.69 974.54,-80.54 998.54,-86.63"/>
<polygon fill="midnightblue" stroke="midnightblue" points="997.71,-90.04 1008.27,-89.1 999.44,-83.25 997.71,-90.04"/>
</g>
<!-- Node16 -->
<g id="node16" class="node">
<title>Node16</title>
<g id="a_node16"><a xlink:href="classlogs_1_1LoggerFactory.html#a212aa623f4b6bee12cb39e8017dde670" target="_top" xlink:title="Cette méthode retourne le Logger principal qui définit le niveau de trace par défaut.">
<polygon fill="white" stroke="black" points="1008.5,-39 1008.5,-69 1119.5,-69 1119.5,-39 1008.5,-39"/>
<text text-anchor="start" x="1016.5" y="-57" font-family="Helvetica,sans-Serif" font-size="10.00">logs::LoggerFactory</text>
<text text-anchor="middle" x="1064" y="-46" font-family="Helvetica,sans-Serif" font-size="10.00">::rootLogger</text>
</a>
</g>
</g>
<!-- Node13&#45;&gt;Node16 -->
<g id="edge18" class="edge">
<title>Node13&#45;&gt;Node16</title>
<path fill="none" stroke="midnightblue" d="M924.53,-54C947.45,-54 974.3,-54 998.22,-54"/>
<polygon fill="midnightblue" stroke="midnightblue" points="998.27,-57.5 1008.27,-54 998.27,-50.5 998.27,-57.5"/>
</g>
<!-- Node18 -->
<g id="node18" class="node">
<title>Node18</title>
<g id="a_node18"><a xlink:href="classutils_1_1Thread.html#ada9233f3e669c925e9ed518201ad31cd" target="_top" xlink:title="Retourne l&#39;état courant du thread.">
<polygon fill="white" stroke="black" points="815,-355.5 815,-374.5 923,-374.5 923,-355.5 815,-355.5"/>
<text text-anchor="middle" x="869" y="-362.5" font-family="Helvetica,sans-Serif" font-size="10.00">utils::Thread::state</text>
</a>
</g>
</g>
<!-- Node17&#45;&gt;Node18 -->
<g id="edge24" class="edge">
<title>Node17&#45;&gt;Node18</title>
<path fill="none" stroke="midnightblue" d="M417.05,-329.53C434.48,-333.72 455.69,-338.28 475,-341 590.63,-357.28 726.94,-362.52 804.84,-364.2"/>
<polygon fill="midnightblue" stroke="midnightblue" points="804.91,-367.7 814.97,-364.41 805.05,-360.71 804.91,-367.7"/>
</g>
<!-- Node18&#45;&gt;Node5 -->
<g id="edge25" class="edge">
<title>Node18&#45;&gt;Node5</title>
<path fill="none" stroke="midnightblue" d="M883.88,-355.43C916.91,-332.68 1000.4,-275.14 1040.64,-247.41"/>
<polygon fill="midnightblue" stroke="midnightblue" points="1042.74,-250.21 1048.99,-241.66 1038.77,-244.45 1042.74,-250.21"/>
</g>
<!-- Node18&#45;&gt;Node9 -->
<g id="edge26" class="edge">
<title>Node18&#45;&gt;Node9</title>
<path fill="none" stroke="midnightblue" d="M903.14,-355.5C918.34,-351.12 936.6,-345.83 953,-341 975.68,-334.32 1000.96,-326.75 1021.55,-320.54"/>
<polygon fill="midnightblue" stroke="midnightblue" points="1022.69,-323.85 1031.26,-317.61 1020.67,-317.15 1022.69,-323.85"/>
</g>
<!-- Node19&#45;&gt;Node13 -->
<g id="edge28" class="edge">
<title>Node19&#45;&gt;Node13</title>
<path fill="none" stroke="midnightblue" d="M579.31,-49.66C636.47,-50.52 736.97,-52.03 803.02,-53.02"/>
<polygon fill="midnightblue" stroke="midnightblue" points="803.26,-56.53 813.31,-53.18 803.37,-49.53 803.26,-56.53"/>
</g>
</g>
</svg>
