<?xml version="1.0" encoding="UTF-8" standalone="no"?>
<!DOCTYPE svg PUBLIC "-//W3C//DTD SVG 1.1//EN"
 "http://www.w3.org/Graphics/SVG/1.1/DTD/svg11.dtd">
<!-- Generated by graphviz version 2.43.0 (0)
 -->
<!-- Title: AAsservDriver::motion_ActivateManager Pages: 1 -->
<!--zoomable 192 -->
<svg id="main" version="1.1" xmlns="http://www.w3.org/2000/svg" xmlns:xlink="http://www.w3.org/1999/xlink" xml:space="preserve" onload="init(evt)">
<style type="text/css"><![CDATA[
.edge:hover path { stroke: red; }
.edge:hover polygon { stroke: red; fill: red; }
]]></style>
<script type="text/javascript"><![CDATA[
var edges = document.getElementsByTagName('g');
if (edges && edges.length) {
  for (var i=0;i<edges.length;i++) {
    if (edges[i].id.substr(0,4)=='edge') {
      edges[i].setAttribute('class','edge');
    }
  }
}
]]></script>
        <defs>
                <circle id="rim" cx="0" cy="0" r="7"/>
                <circle id="rim2" cx="0" cy="0" r="3.5"/>
                <g id="zoomPlus">
                        <use xlink:href="#rim" fill="#404040">
                                <set attributeName="fill" to="#808080" begin="zoomplus.mouseover" end="zoomplus.mouseout"/>
                        </use>
                        <path d="M-4,0h8M0,-4v8" fill="none" stroke="white" stroke-width="1.5" pointer-events="none"/>
                </g>
                <g id="zoomMin">
                        <use xlink:href="#rim" fill="#404040">
                                <set attributeName="fill" to="#808080" begin="zoomminus.mouseover" end="zoomminus.mouseout"/>
                        </use>
                        <path d="M-4,0h8" fill="none" stroke="white" stroke-width="1.5" pointer-events="none"/>
                </g>
                <g id="dirArrow">
                        <path fill="none" stroke="white" stroke-width="1.5" d="M0,-3.0v7 M-2.5,-0.5L0,-3.0L2.5,-0.5"/>
                </g>
               <g id="resetDef">
                       <use xlink:href="#rim2" fill="#404040">
                               <set attributeName="fill" to="#808080" begin="reset.mouseover" end="reset.mouseout"/>
                       </use>
               </g>
        </defs>

<script type="text/javascript">
var viewWidth = 692;
var viewHeight = 192;
var sectionId = 'dynsection-5';
</script>
<script xlink:href="svgpan.js"/>
<svg id="graph" class="graph">
<g id="viewport">
<title>AAsservDriver::motion_ActivateManager</title>
<polygon fill="white" stroke="transparent" points="-4,4 -4,-187.5 688,-187.5 688,4 -4,4"/>
<!-- Node1 -->
<g id="node1" class="node">
<title>Node1</title>
<g id="a_node1"><a xlink:title="Active ou desactive le thread d&#39;asservissement.">
<polygon fill="#bfbfbf" stroke="black" points="557,-82.5 557,-112.5 684,-112.5 684,-82.5 557,-82.5"/>
<text text-anchor="start" x="565" y="-100.5" font-family="Helvetica,sans-Serif" font-size="10.00">AAsservDriver::motion</text>
<text text-anchor="middle" x="620.5" y="-89.5" font-family="Helvetica,sans-Serif" font-size="10.00">_ActivateManager</text>
</a>
</g>
</g>
<!-- Node2 -->
<g id="node2" class="node">
<title>Node2</title>
<g id="a_node2"><a xlink:href="classOPOS6UL__AsservExtended.html#a1f17c09c76670c49c1272676879ef48a" target="_top" xlink:title="Démarre le timer de mouvement et l&#39;odométrie.">
<polygon fill="white" stroke="black" points="360,-131.5 360,-161.5 506,-161.5 506,-131.5 360,-131.5"/>
<text text-anchor="start" x="368" y="-149.5" font-family="Helvetica,sans-Serif" font-size="10.00">OPOS6UL_AsservExtended</text>
<text text-anchor="middle" x="433" y="-138.5" font-family="Helvetica,sans-Serif" font-size="10.00">::startMotionTimerAndOdo</text>
</a>
</g>
</g>
<!-- Node1&#45;&gt;Node2 -->
<g id="edge1" class="edge">
<title>Node1&#45;&gt;Node2</title>
<path fill="none" stroke="midnightblue" d="M552.78,-115.12C532.49,-120.48 510.39,-126.32 490.81,-131.49"/>
<polygon fill="midnightblue" stroke="midnightblue" points="553.81,-118.47 562.58,-112.53 552.02,-111.7 553.81,-118.47"/>
</g>
<!-- Node3 -->
<g id="node3" class="node">
<title>Node3</title>
<g id="a_node3"><a xlink:href="classAsserv.html#a366bf4a9f0880c5dc125ac0637fee326" target="_top" xlink:title=" ">
<polygon fill="white" stroke="black" points="363,-82.5 363,-112.5 503,-112.5 503,-82.5 363,-82.5"/>
<text text-anchor="start" x="371" y="-100.5" font-family="Helvetica,sans-Serif" font-size="10.00">Asserv::startMotionTimer</text>
<text text-anchor="middle" x="433" y="-89.5" font-family="Helvetica,sans-Serif" font-size="10.00">AndOdo</text>
</a>
</g>
</g>
<!-- Node1&#45;&gt;Node3 -->
<g id="edge2" class="edge">
<title>Node1&#45;&gt;Node3</title>
<path fill="none" stroke="midnightblue" d="M546.69,-97.5C532.4,-97.5 517.45,-97.5 503.29,-97.5"/>
<polygon fill="midnightblue" stroke="midnightblue" points="546.96,-101 556.96,-97.5 546.96,-94 546.96,-101"/>
</g>
<!-- Node9 -->
<g id="node9" class="node">
<title>Node9</title>
<g id="a_node9"><a xlink:href="classAsserv.html#af3ac6ea471cb2fb8713ce32bbc05d66e" target="_top" xlink:title=" ">
<polygon fill="white" stroke="black" points="345,-25 345,-44 521,-44 521,-25 345,-25"/>
<text text-anchor="middle" x="433" y="-32" font-family="Helvetica,sans-Serif" font-size="10.00">Asserv::stopMotionTimerAndOdo</text>
</a>
</g>
</g>
<!-- Node1&#45;&gt;Node9 -->
<g id="edge8" class="edge">
<title>Node1&#45;&gt;Node9</title>
<path fill="none" stroke="midnightblue" d="M565.33,-79.1C531.57,-67.64 489.5,-53.35 462.22,-44.08"/>
<polygon fill="midnightblue" stroke="midnightblue" points="564.47,-82.51 575.07,-82.41 566.72,-75.88 564.47,-82.51"/>
</g>
<!-- Node4 -->
<g id="node4" class="node">
<title>Node4</title>
<g id="a_node4"><a xlink:href="classO__IAByPathTest.html#a3f57f585ff1382a52bf7f79a28d43629" target="_top" xlink:title=" ">
<polygon fill="white" stroke="black" points="175.5,-164 175.5,-183 289.5,-183 289.5,-164 175.5,-164"/>
<text text-anchor="middle" x="232.5" y="-171" font-family="Helvetica,sans-Serif" font-size="10.00">O_IAByPathTest::run</text>
</a>
</g>
</g>
<!-- Node3&#45;&gt;Node4 -->
<g id="edge3" class="edge">
<title>Node3&#45;&gt;Node4</title>
<path fill="none" stroke="midnightblue" d="M357.47,-116.44C353.17,-118.29 348.98,-120.31 345,-122.5 326.25,-132.82 327.92,-144.49 309,-154.5 301.71,-158.36 293.61,-161.45 285.5,-163.93"/>
<polygon fill="midnightblue" stroke="midnightblue" points="359.03,-119.59 367.03,-112.65 356.45,-113.09 359.03,-119.59"/>
</g>
<!-- Node5 -->
<g id="node5" class="node">
<title>Node5</title>
<g id="a_node5"><a xlink:href="classO__LedBarTest.html#af9e0e172d13b334cda0fe32bb659b414" target="_top" xlink:title=" ">
<polygon fill="white" stroke="black" points="180.5,-126 180.5,-145 284.5,-145 284.5,-126 180.5,-126"/>
<text text-anchor="middle" x="232.5" y="-133" font-family="Helvetica,sans-Serif" font-size="10.00">O_LedBarTest::run</text>
</a>
</g>
</g>
<!-- Node3&#45;&gt;Node5 -->
<g id="edge4" class="edge">
<title>Node3&#45;&gt;Node5</title>
<path fill="none" stroke="midnightblue" d="M352.91,-112.64C329.44,-117.13 304.39,-121.93 283.34,-125.96"/>
<polygon fill="midnightblue" stroke="midnightblue" points="353.69,-116.06 362.85,-110.74 352.37,-109.18 353.69,-116.06"/>
</g>
<!-- Node6 -->
<g id="node6" class="node">
<title>Node6</title>
<g id="a_node6"><a xlink:href="classO__SensorsTest.html#ae3b998034225e16586ded4ba3bd419e5" target="_top" xlink:title="Execute le test.">
<polygon fill="white" stroke="black" points="178,-88 178,-107 287,-107 287,-88 178,-88"/>
<text text-anchor="middle" x="232.5" y="-95" font-family="Helvetica,sans-Serif" font-size="10.00">O_SensorsTest::run</text>
</a>
</g>
</g>
<!-- Node3&#45;&gt;Node6 -->
<g id="edge5" class="edge">
<title>Node3&#45;&gt;Node6</title>
<path fill="none" stroke="midnightblue" d="M352.83,-97.5C330.75,-97.5 307.3,-97.5 287.08,-97.5"/>
<polygon fill="midnightblue" stroke="midnightblue" points="352.85,-101 362.85,-97.5 352.85,-94 352.85,-101"/>
</g>
<!-- Node7 -->
<g id="node7" class="node">
<title>Node7</title>
<g id="a_node7"><a xlink:href="classO__State__Init.html#a1980cd82dcb83e88d61f2e7e14dddfa0" target="_top" xlink:title=" ">
<polygon fill="white" stroke="black" points="175.5,-50 175.5,-69 289.5,-69 289.5,-50 175.5,-50"/>
<text text-anchor="middle" x="232.5" y="-57" font-family="Helvetica,sans-Serif" font-size="10.00">O_State_Init::setPos</text>
</a>
</g>
</g>
<!-- Node3&#45;&gt;Node7 -->
<g id="edge6" class="edge">
<title>Node3&#45;&gt;Node7</title>
<path fill="none" stroke="midnightblue" d="M352.91,-82.36C329.44,-77.87 304.39,-73.07 283.34,-69.04"/>
<polygon fill="midnightblue" stroke="midnightblue" points="352.37,-85.82 362.85,-84.26 353.69,-78.94 352.37,-85.82"/>
</g>
<!-- Node8 -->
<g id="node8" class="node">
<title>Node8</title>
<g id="a_node8"><a xlink:href="classO__State__Init.html#abc19788b7457d1f819245dd28367fe91" target="_top" xlink:title="Exécute l&#39;état d&#39;initialisation.">
<polygon fill="white" stroke="black" points="0,-50 0,-69 120,-69 120,-50 0,-50"/>
<text text-anchor="middle" x="60" y="-57" font-family="Helvetica,sans-Serif" font-size="10.00">O_State_Init::execute</text>
</a>
</g>
</g>
<!-- Node7&#45;&gt;Node8 -->
<g id="edge7" class="edge">
<title>Node7&#45;&gt;Node8</title>
<path fill="none" stroke="midnightblue" d="M165.09,-59.5C150.28,-59.5 134.67,-59.5 120.17,-59.5"/>
<polygon fill="midnightblue" stroke="midnightblue" points="165.2,-63 175.2,-59.5 165.2,-56 165.2,-63"/>
</g>
<!-- Node10 -->
<g id="node10" class="node">
<title>Node10</title>
<g id="a_node10"><a xlink:href="classRobot.html#a46c797e9dba7c96927fa881851309bf0" target="_top" xlink:title=" ">
<polygon fill="white" stroke="black" points="156,-0.5 156,-30.5 309,-30.5 309,-0.5 156,-0.5"/>
<text text-anchor="start" x="164" y="-18.5" font-family="Helvetica,sans-Serif" font-size="10.00">Robot::stopMotionTimerAnd</text>
<text text-anchor="middle" x="232.5" y="-7.5" font-family="Helvetica,sans-Serif" font-size="10.00">ActionManager</text>
</a>
</g>
</g>
<!-- Node9&#45;&gt;Node10 -->
<g id="edge9" class="edge">
<title>Node9&#45;&gt;Node10</title>
<path fill="none" stroke="midnightblue" d="M334.87,-25.2C326.28,-24.38 317.67,-23.56 309.29,-22.75"/>
<polygon fill="midnightblue" stroke="midnightblue" points="334.65,-28.7 344.94,-26.17 335.31,-21.73 334.65,-28.7"/>
</g>
<!-- Node11 -->
<g id="node11" class="node">
<title>Node11</title>
<g id="a_node11"><a xlink:href="classRobot.html#a924320124b09c2f2ac1621aa210d5f38" target="_top" xlink:title="Destructor.">
<polygon fill="white" stroke="black" points="16,-6 16,-25 104,-25 104,-6 16,-6"/>
<text text-anchor="middle" x="60" y="-13" font-family="Helvetica,sans-Serif" font-size="10.00">Robot::~Robot</text>
</a>
</g>
</g>
<!-- Node10&#45;&gt;Node11 -->
<g id="edge10" class="edge">
<title>Node10&#45;&gt;Node11</title>
<path fill="none" stroke="midnightblue" d="M145.37,-15.5C131.12,-15.5 116.9,-15.5 104.31,-15.5"/>
<polygon fill="midnightblue" stroke="midnightblue" points="145.72,-19 155.72,-15.5 145.72,-12 145.72,-19"/>
</g>
</g>
</svg>
        <g id="navigator" transform="translate(0 0)" fill="#404254">
                <rect fill="#f2f5e9" fill-opacity="0.5" stroke="#606060" stroke-width=".5" x="0" y="0" width="60" height="60"/>
                <use id="zoomplus" xlink:href="#zoomPlus" x="17" y="9" onmousedown="handleZoom(evt,'in')"/>
                <use id="zoomminus" xlink:href="#zoomMin" x="42" y="9" onmousedown="handleZoom(evt,'out')"/>
                <use id="reset" xlink:href="#resetDef" x="30" y="36" onmousedown="handleReset()"/>
                <g id="arrowUp" xlink:href="#dirArrow" transform="translate(30 24)" onmousedown="handlePan(0,-1)">
                  <use xlink:href="#rim" fill="#404040">
                        <set attributeName="fill" to="#808080" begin="arrowUp.mouseover" end="arrowUp.mouseout"/>
                  </use>
                  <path fill="none" stroke="white" stroke-width="1.5" d="M0,-3.0v7 M-2.5,-0.5L0,-3.0L2.5,-0.5"/>
                </g>
                <g id="arrowRight" xlink:href="#dirArrow" transform="rotate(90) translate(36 -43)" onmousedown="handlePan(1,0)">
                  <use xlink:href="#rim" fill="#404040">
                        <set attributeName="fill" to="#808080" begin="arrowRight.mouseover" end="arrowRight.mouseout"/>
                  </use>
                  <path fill="none" stroke="white" stroke-width="1.5" d="M0,-3.0v7 M-2.5,-0.5L0,-3.0L2.5,-0.5"/>
                </g>
                <g id="arrowDown" xlink:href="#dirArrow" transform="rotate(180) translate(-30 -48)" onmousedown="handlePan(0,1)">
                  <use xlink:href="#rim" fill="#404040">
                        <set attributeName="fill" to="#808080" begin="arrowDown.mouseover" end="arrowDown.mouseout"/>
                  </use>
                  <path fill="none" stroke="white" stroke-width="1.5" d="M0,-3.0v7 M-2.5,-0.5L0,-3.0L2.5,-0.5"/>
                </g>
                <g id="arrowLeft" xlink:href="#dirArrow" transform="rotate(270) translate(-36 17)" onmousedown="handlePan(-1,0)">
                  <use xlink:href="#rim" fill="#404040">
                        <set attributeName="fill" to="#808080" begin="arrowLeft.mouseover" end="arrowLeft.mouseout"/>
                  </use>
                  <path fill="none" stroke="white" stroke-width="1.5" d="M0,-3.0v7 M-2.5,-0.5L0,-3.0L2.5,-0.5"/>
                </g>
        </g>
        <svg viewBox="0 0 15 15" width="100%" height="30px" preserveAspectRatio="xMaxYMin meet">
         <g id="arrow_out" transform="scale(0.3 0.3)">
          <a xlink:href="classAAsservDriver_a046eb790d147ad8ec34bcd9565ad675b_icgraph_org.svg" target="_base">
           <rect id="button" ry="5" rx="5" y="6" x="6" height="38" width="38"
                fill="#f2f5e9" fill-opacity="0.5" stroke="#606060" stroke-width="1.0"/>
           <path id="arrow"
             d="M 11.500037,31.436501 C 11.940474,20.09759 22.043105,11.32322 32.158766,21.979434 L 37.068811,17.246167 C 37.068811,17.246167 37.088388,32 37.088388,32 L 22.160133,31.978069 C 22.160133,31.978069 26.997745,27.140456 26.997745,27.140456 C 18.528582,18.264221 13.291696,25.230495 11.500037,31.436501 z"
             style="fill:#404040;"/>
          </a>
         </g>
        </svg>
</svg>
