<?xml version="1.0" encoding="UTF-8" standalone="no"?>
<!DOCTYPE svg PUBLIC "-//W3C//DTD SVG 1.1//EN"
 "http://www.w3.org/Graphics/SVG/1.1/DTD/svg11.dtd">
<!-- Generated by graphviz version 2.43.0 (0)
 -->
<!-- Title: AAsservDriver::motion_setLowSpeedBackward Pages: 1 -->
<svg width="524pt" height="104pt"
 viewBox="0.00 0.00 524.00 104.00" xmlns="http://www.w3.org/2000/svg" xmlns:xlink="http://www.w3.org/1999/xlink">
<g id="graph0" class="graph" transform="scale(1 1) rotate(0) translate(4 100)">
<title>AAsservDriver::motion_setLowSpeedBackward</title>
<polygon fill="white" stroke="transparent" points="-4,4 -4,-100 520,-100 520,4 -4,4"/>
<!-- Node1 -->
<g id="node1" class="node">
<title>Node1</title>
<g id="a_node1"><a xlink:title="Active/desactive la vitesse reduite en marche arriere.">
<polygon fill="#bfbfbf" stroke="black" points="382,-33 382,-63 516,-63 516,-33 382,-33"/>
<text text-anchor="start" x="390" y="-51" font-family="Helvetica,sans-Serif" font-size="10.00">AAsservDriver::motion</text>
<text text-anchor="middle" x="449" y="-40" font-family="Helvetica,sans-Serif" font-size="10.00">_setLowSpeedBackward</text>
</a>
</g>
</g>
<!-- Node2 -->
<g id="node2" class="node">
<title>Node2</title>
<g id="a_node2"><a xlink:href="classAsserv.html#a0ac23995bdebb69bb49304850c951886" target="_top" xlink:title=" ">
<polygon fill="white" stroke="black" points="212,-76.5 212,-95.5 313,-95.5 313,-76.5 212,-76.5"/>
<text text-anchor="middle" x="262.5" y="-83.5" font-family="Helvetica,sans-Serif" font-size="10.00">Asserv::doCalage</text>
</a>
</g>
</g>
<!-- Node1&#45;&gt;Node2 -->
<g id="edge1" class="edge">
<title>Node1&#45;&gt;Node2</title>
<path fill="none" stroke="midnightblue" d="M371.99,-63.65C350.88,-68 328.61,-72.59 309.77,-76.47"/>
<polygon fill="midnightblue" stroke="midnightblue" points="372.82,-67.06 381.91,-61.61 371.41,-60.2 372.82,-67.06"/>
</g>
<!-- Node4 -->
<g id="node4" class="node">
<title>Node4</title>
<g id="a_node4"><a xlink:href="classAsserv.html#aa105905ebc1940adb7c483a14c9ce8fc" target="_top" xlink:title=" ">
<polygon fill="white" stroke="black" points="201.5,-38.5 201.5,-57.5 323.5,-57.5 323.5,-38.5 201.5,-38.5"/>
<text text-anchor="middle" x="262.5" y="-45.5" font-family="Helvetica,sans-Serif" font-size="10.00">Asserv::doCalageNew</text>
</a>
</g>
</g>
<!-- Node1&#45;&gt;Node4 -->
<g id="edge3" class="edge">
<title>Node1&#45;&gt;Node4</title>
<path fill="none" stroke="midnightblue" d="M371.52,-48C355.53,-48 338.89,-48 323.6,-48"/>
<polygon fill="midnightblue" stroke="midnightblue" points="371.91,-51.5 381.91,-48 371.91,-44.5 371.91,-51.5"/>
</g>
<!-- Node5 -->
<g id="node5" class="node">
<title>Node5</title>
<g id="a_node5"><a xlink:href="classAsserv.html#a21b2a90179e065b7e48e364dd41b0d02" target="_top" xlink:title=" ">
<polygon fill="white" stroke="black" points="179,-0.5 179,-19.5 346,-19.5 346,-0.5 179,-0.5"/>
<text text-anchor="middle" x="262.5" y="-7.5" font-family="Helvetica,sans-Serif" font-size="10.00">Asserv::setLowSpeedBackward</text>
</a>
</g>
</g>
<!-- Node1&#45;&gt;Node5 -->
<g id="edge4" class="edge">
<title>Node1&#45;&gt;Node5</title>
<path fill="none" stroke="midnightblue" d="M371.99,-32.35C350.88,-28 328.61,-23.41 309.77,-19.53"/>
<polygon fill="midnightblue" stroke="midnightblue" points="371.41,-35.8 381.91,-34.39 372.82,-28.94 371.41,-35.8"/>
</g>
<!-- Node3 -->
<g id="node3" class="node">
<title>Node3</title>
<g id="a_node3"><a xlink:href="classO__Asserv__CalageTest.html#ad731f64308b62269f060e74c0282e30f" target="_top" xlink:title=" ">
<polygon fill="white" stroke="black" points="0,-76.5 0,-95.5 143,-95.5 143,-76.5 0,-76.5"/>
<text text-anchor="middle" x="71.5" y="-83.5" font-family="Helvetica,sans-Serif" font-size="10.00">O_Asserv_CalageTest::run</text>
</a>
</g>
</g>
<!-- Node2&#45;&gt;Node3 -->
<g id="edge2" class="edge">
<title>Node2&#45;&gt;Node3</title>
<path fill="none" stroke="midnightblue" d="M201.74,-86C183.13,-86 162.43,-86 143.15,-86"/>
<polygon fill="midnightblue" stroke="midnightblue" points="201.84,-89.5 211.84,-86 201.84,-82.5 201.84,-89.5"/>
</g>
</g>
</svg>
