<?xml version="1.0" encoding="UTF-8" standalone="no"?>
<!DOCTYPE svg PUBLIC "-//W3C//DTD SVG 1.1//EN"
 "http://www.w3.org/Graphics/SVG/1.1/DTD/svg11.dtd">
<!-- Generated by graphviz version 2.43.0 (0)
 -->
<!-- Title: ActionManagerTimer::stopTimer Pages: 1 -->
<svg width="705pt" height="356pt"
 viewBox="0.00 0.00 705.00 355.50" xmlns="http://www.w3.org/2000/svg" xmlns:xlink="http://www.w3.org/1999/xlink">
<g id="graph0" class="graph" transform="scale(1 1) rotate(0) translate(4 351.5)">
<title>ActionManagerTimer::stopTimer</title>
<polygon fill="white" stroke="transparent" points="-4,4 -4,-351.5 701,-351.5 701,4 -4,4"/>
<!-- Node1 -->
<g id="node1" class="node">
<title>Node1</title>
<g id="a_node1"><a xlink:title="Arrete un timer specifique. Permet d&#39;executer son action de fin puis le supprime de la liste.">
<polygon fill="#bfbfbf" stroke="black" points="0,-159 0,-189 119,-189 119,-159 0,-159"/>
<text text-anchor="start" x="8" y="-177" font-family="Helvetica,sans-Serif" font-size="10.00">ActionManagerTimer</text>
<text text-anchor="middle" x="59.5" y="-166" font-family="Helvetica,sans-Serif" font-size="10.00">::stopTimer</text>
</a>
</g>
</g>
<!-- Node2 -->
<g id="node2" class="node">
<title>Node2</title>
<g id="a_node2"><a xlink:href="classutils_1_1PointerList.html#a501664b90309db885554d35e89739681" target="_top" xlink:title="Returns a read/write iterator that points to the first element in the list. Iteration is done in ordi...">
<polygon fill="white" stroke="black" points="183.5,-317 183.5,-347 278.5,-347 278.5,-317 183.5,-317"/>
<text text-anchor="start" x="191.5" y="-335" font-family="Helvetica,sans-Serif" font-size="10.00">utils::PointerList</text>
<text text-anchor="middle" x="231" y="-324" font-family="Helvetica,sans-Serif" font-size="10.00">::begin</text>
</a>
</g>
</g>
<!-- Node1&#45;&gt;Node2 -->
<g id="edge1" class="edge">
<title>Node1&#45;&gt;Node2</title>
<path fill="none" stroke="midnightblue" d="M68.04,-189.16C81.87,-215.53 113.68,-270.09 155,-302 160.8,-306.48 167.36,-310.38 174.12,-313.75"/>
<polygon fill="midnightblue" stroke="midnightblue" points="172.87,-317.03 183.42,-318.03 175.79,-310.67 172.87,-317.03"/>
</g>
<!-- Node3 -->
<g id="node3" class="node">
<title>Node3</title>
<g id="a_node3"><a xlink:href="classlogs_1_1Logger.html#a7dffc8f610014ec59b63392da16140e4" target="_top" xlink:title="Trace un message de niveau DEBUG.">
<polygon fill="white" stroke="black" points="371,-278.5 371,-297.5 483,-297.5 483,-278.5 371,-278.5"/>
<text text-anchor="middle" x="427" y="-285.5" font-family="Helvetica,sans-Serif" font-size="10.00">logs::Logger::debug</text>
</a>
</g>
</g>
<!-- Node1&#45;&gt;Node3 -->
<g id="edge2" class="edge">
<title>Node1&#45;&gt;Node3</title>
<path fill="none" stroke="midnightblue" d="M71.24,-189.35C86.92,-210.36 118.25,-247.38 155,-264 220.43,-293.59 303.73,-296.5 360.59,-293.98"/>
<polygon fill="midnightblue" stroke="midnightblue" points="361.09,-297.46 370.89,-293.45 360.73,-290.47 361.09,-297.46"/>
</g>
<!-- Node5 -->
<g id="node5" class="node">
<title>Node5</title>
<g id="a_node5"><a xlink:href="classutils_1_1PointerList.html#a9607cdd93b715a838e015452a49f61d5" target="_top" xlink:title="Returns a read/write iterator that points one past the last element in the list. Iteration is done in...">
<polygon fill="white" stroke="black" points="171.5,-126.5 171.5,-145.5 290.5,-145.5 290.5,-126.5 171.5,-126.5"/>
<text text-anchor="middle" x="231" y="-133.5" font-family="Helvetica,sans-Serif" font-size="10.00">utils::PointerList::end</text>
</a>
</g>
</g>
<!-- Node1&#45;&gt;Node5 -->
<g id="edge4" class="edge">
<title>Node1&#45;&gt;Node5</title>
<path fill="none" stroke="midnightblue" d="M119.31,-160.82C138.27,-156.57 159.14,-151.89 177.61,-147.75"/>
<polygon fill="midnightblue" stroke="midnightblue" points="178.6,-151.11 187.59,-145.51 177.07,-144.28 178.6,-151.11"/>
</g>
<!-- Node6 -->
<g id="node6" class="node">
<title>Node6</title>
<g id="a_node6"><a xlink:href="namespacelogs.html#ac6f325c6cfe6189bc8e243daa184453b" target="_top" xlink:title="Cette méthode permet de finir les flux de construction par la notation.">
<polygon fill="white" stroke="black" points="200.5,-202.5 200.5,-221.5 261.5,-221.5 261.5,-202.5 200.5,-202.5"/>
<text text-anchor="middle" x="231" y="-209.5" font-family="Helvetica,sans-Serif" font-size="10.00">logs::end</text>
</a>
</g>
</g>
<!-- Node1&#45;&gt;Node6 -->
<g id="edge5" class="edge">
<title>Node1&#45;&gt;Node6</title>
<path fill="none" stroke="midnightblue" d="M119.31,-187.18C142.81,-192.45 169.25,-198.38 190.4,-203.12"/>
<polygon fill="midnightblue" stroke="midnightblue" points="189.8,-206.57 200.32,-205.35 191.33,-199.74 189.8,-206.57"/>
</g>
<!-- Node8 -->
<g id="node8" class="node">
<title>Node8</title>
<g id="a_node8"><a xlink:href="classutils_1_1Mutex.html#aa584b418a5ef484f76b93e361a1d7e32" target="_top" xlink:title="Verrouille le mutex. Cette méthode doit être appelée avant d&#39;utiliser la ressource associée....">
<polygon fill="white" stroke="black" points="571.5,-231.5 571.5,-250.5 672.5,-250.5 672.5,-231.5 571.5,-231.5"/>
<text text-anchor="middle" x="622" y="-238.5" font-family="Helvetica,sans-Serif" font-size="10.00">utils::Mutex::lock</text>
</a>
</g>
</g>
<!-- Node1&#45;&gt;Node8 -->
<g id="edge10" class="edge">
<title>Node1&#45;&gt;Node8</title>
<path fill="none" stroke="midnightblue" d="M79,-189.22C97.11,-203.08 126.11,-222.63 155,-231 296.07,-271.89 471.35,-259.82 561.42,-249.34"/>
<polygon fill="midnightblue" stroke="midnightblue" points="561.94,-252.8 571.45,-248.14 561.1,-245.85 561.94,-252.8"/>
</g>
<!-- Node9 -->
<g id="node9" class="node">
<title>Node9</title>
<g id="a_node9"><a xlink:href="classutils_1_1Mutex.html#a59b2079dc7f803d49f78ac9c04406cd3" target="_top" xlink:title="Déverrouille le mutex. Cette méthode doit être appelée après avoir utiliser la ressource associée.">
<polygon fill="white" stroke="black" points="565.5,-174.5 565.5,-193.5 678.5,-193.5 678.5,-174.5 565.5,-174.5"/>
<text text-anchor="middle" x="622" y="-181.5" font-family="Helvetica,sans-Serif" font-size="10.00">utils::Mutex::unlock</text>
</a>
</g>
</g>
<!-- Node1&#45;&gt;Node9 -->
<g id="edge18" class="edge">
<title>Node1&#45;&gt;Node9</title>
<path fill="none" stroke="midnightblue" d="M119.16,-175.05C224.41,-176.92 444.6,-180.85 554.97,-182.82"/>
<polygon fill="midnightblue" stroke="midnightblue" points="555.24,-186.33 565.3,-183.01 555.36,-179.33 555.24,-186.33"/>
</g>
<!-- Node10 -->
<g id="node10" class="node">
<title>Node10</title>
<g id="a_node10"><a xlink:href="classActionManagerTimer.html#a280846361e5c7e0ebe57972755841c2b" target="_top" xlink:title=" ">
<polygon fill="white" stroke="black" points="171.5,-77 171.5,-107 290.5,-107 290.5,-77 171.5,-77"/>
<text text-anchor="start" x="179.5" y="-95" font-family="Helvetica,sans-Serif" font-size="10.00">ActionManagerTimer</text>
<text text-anchor="middle" x="231" y="-84" font-family="Helvetica,sans-Serif" font-size="10.00">::logger</text>
</a>
</g>
</g>
<!-- Node1&#45;&gt;Node10 -->
<g id="edge11" class="edge">
<title>Node1&#45;&gt;Node10</title>
<path fill="none" stroke="midnightblue" d="M82.27,-158.97C100.95,-146.54 128.9,-129.04 155,-117 159.91,-114.74 165.08,-112.58 170.32,-110.54"/>
<polygon fill="midnightblue" stroke="midnightblue" points="171.63,-113.79 179.78,-107.03 169.19,-107.23 171.63,-113.79"/>
</g>
<!-- Node15 -->
<g id="node15" class="node">
<title>Node15</title>
<g id="a_node15"><a xlink:href="classITimerListener.html#a1fb13795b7ae788210f5e6bce5a9aeb0" target="_top" xlink:title="Getter sur les infos permettant d&#39;identifier le timer.">
<polygon fill="white" stroke="black" points="170.5,-38.5 170.5,-57.5 291.5,-57.5 291.5,-38.5 170.5,-38.5"/>
<text text-anchor="middle" x="231" y="-45.5" font-family="Helvetica,sans-Serif" font-size="10.00">ITimerListener::name</text>
</a>
</g>
</g>
<!-- Node1&#45;&gt;Node15 -->
<g id="edge16" class="edge">
<title>Node1&#45;&gt;Node15</title>
<path fill="none" stroke="midnightblue" d="M69.72,-158.62C84.63,-135.15 116.28,-90.62 155,-67 158.45,-64.9 162.12,-63.02 165.92,-61.36"/>
<polygon fill="midnightblue" stroke="midnightblue" points="167.5,-64.5 175.56,-57.63 164.97,-57.97 167.5,-64.5"/>
</g>
<!-- Node16 -->
<g id="node16" class="node">
<title>Node16</title>
<g id="a_node16"><a xlink:href="classITimerListener.html#a0004b567b000eef6df12d9d970909142" target="_top" xlink:title="Actions de fin à executer pour le timer.">
<polygon fill="white" stroke="black" points="155,-0.5 155,-19.5 307,-19.5 307,-0.5 155,-0.5"/>
<text text-anchor="middle" x="231" y="-7.5" font-family="Helvetica,sans-Serif" font-size="10.00">ITimerListener::onTimerEnd</text>
</a>
</g>
</g>
<!-- Node1&#45;&gt;Node16 -->
<g id="edge17" class="edge">
<title>Node1&#45;&gt;Node16</title>
<path fill="none" stroke="midnightblue" d="M66.1,-158.57C77.76,-128.69 107.58,-62.9 155,-29 157.73,-27.05 160.65,-25.29 163.68,-23.72"/>
<polygon fill="midnightblue" stroke="midnightblue" points="165.38,-26.8 173.08,-19.52 162.52,-20.41 165.38,-26.8"/>
</g>
<!-- Node4 -->
<g id="node4" class="node">
<title>Node4</title>
<g id="a_node4"><a xlink:href="classlogs_1_1Logger.html#afa535aaf4891e02c4ff7f84d372b5b1b" target="_top" xlink:title="Méthode générique de trace d&#39;un message.">
<polygon fill="white" stroke="black" points="547,-278.5 547,-297.5 697,-297.5 697,-278.5 547,-278.5"/>
<text text-anchor="middle" x="622" y="-285.5" font-family="Helvetica,sans-Serif" font-size="10.00">logs::Logger::writeMessage</text>
</a>
</g>
</g>
<!-- Node3&#45;&gt;Node4 -->
<g id="edge3" class="edge">
<title>Node3&#45;&gt;Node4</title>
<path fill="none" stroke="midnightblue" d="M483.05,-288C499.78,-288 518.57,-288 536.76,-288"/>
<polygon fill="midnightblue" stroke="midnightblue" points="536.79,-291.5 546.79,-288 536.79,-284.5 536.79,-291.5"/>
</g>
<!-- Node7 -->
<g id="node7" class="node">
<title>Node7</title>
<g id="a_node7"><a xlink:href="classlogs_1_1Logger_1_1LoggerBuffer.html#a0e4fd77693fd899ec1b0670354f93a02" target="_top" xlink:title="Cette méthode valide le message en cours de construction et le transmet au Logger de référence.">
<polygon fill="white" stroke="black" points="343,-202.5 343,-221.5 511,-221.5 511,-202.5 343,-202.5"/>
<text text-anchor="middle" x="427" y="-209.5" font-family="Helvetica,sans-Serif" font-size="10.00">logs::Logger::LoggerBuffer::end</text>
</a>
</g>
</g>
<!-- Node6&#45;&gt;Node7 -->
<g id="edge6" class="edge">
<title>Node6&#45;&gt;Node7</title>
<path fill="none" stroke="midnightblue" d="M261.89,-212C281.03,-212 307.01,-212 332.65,-212"/>
<polygon fill="midnightblue" stroke="midnightblue" points="332.83,-215.5 342.83,-212 332.83,-208.5 332.83,-215.5"/>
</g>
<!-- Node7&#45;&gt;Node4 -->
<g id="edge9" class="edge">
<title>Node7&#45;&gt;Node4</title>
<path fill="none" stroke="midnightblue" d="M451.2,-221.53C475.14,-231.33 513.59,-246.94 547,-260 559.62,-264.93 573.5,-270.22 585.8,-274.86"/>
<polygon fill="midnightblue" stroke="midnightblue" points="584.67,-278.17 595.26,-278.42 587.13,-271.62 584.67,-278.17"/>
</g>
<!-- Node7&#45;&gt;Node8 -->
<g id="edge7" class="edge">
<title>Node7&#45;&gt;Node8</title>
<path fill="none" stroke="midnightblue" d="M491.46,-221.54C513.95,-224.91 539.15,-228.7 561.31,-232.03"/>
<polygon fill="midnightblue" stroke="midnightblue" points="560.85,-235.5 571.26,-233.53 561.89,-228.58 560.85,-235.5"/>
</g>
<!-- Node7&#45;&gt;Node9 -->
<g id="edge8" class="edge">
<title>Node7&#45;&gt;Node9</title>
<path fill="none" stroke="midnightblue" d="M493.61,-202.48C513.52,-199.59 535.4,-196.42 555.31,-193.53"/>
<polygon fill="midnightblue" stroke="midnightblue" points="555.83,-196.99 565.22,-192.09 554.82,-190.06 555.83,-196.99"/>
</g>
<!-- Node11 -->
<g id="node11" class="node">
<title>Node11</title>
<g id="a_node11"><a xlink:href="classlogs_1_1LoggerFactory.html#a82585b5de73e471e06cafdccc3b3721e" target="_top" xlink:title="Cette méthode statique retourne un Logger en fonction de son nom.">
<polygon fill="white" stroke="black" points="371.5,-77 371.5,-107 482.5,-107 482.5,-77 371.5,-77"/>
<text text-anchor="start" x="379.5" y="-95" font-family="Helvetica,sans-Serif" font-size="10.00">logs::LoggerFactory</text>
<text text-anchor="middle" x="427" y="-84" font-family="Helvetica,sans-Serif" font-size="10.00">::logger</text>
</a>
</g>
</g>
<!-- Node10&#45;&gt;Node11 -->
<g id="edge12" class="edge">
<title>Node10&#45;&gt;Node11</title>
<path fill="none" stroke="midnightblue" d="M290.73,-92C312.98,-92 338.42,-92 361.19,-92"/>
<polygon fill="midnightblue" stroke="midnightblue" points="361.44,-95.5 371.44,-92 361.44,-88.5 361.44,-95.5"/>
</g>
<!-- Node12 -->
<g id="node12" class="node">
<title>Node12</title>
<g id="a_node12"><a xlink:href="classlogs_1_1LoggerFactory.html#ac89f19c0ffd71aa8cdc1c2d44c03809e" target="_top" xlink:title="Cette méthode ajoute un appender au système.">
<polygon fill="white" stroke="black" points="555,-126.5 555,-145.5 689,-145.5 689,-126.5 555,-126.5"/>
<text text-anchor="middle" x="622" y="-133.5" font-family="Helvetica,sans-Serif" font-size="10.00">logs::LoggerFactory::add</text>
</a>
</g>
</g>
<!-- Node11&#45;&gt;Node12 -->
<g id="edge13" class="edge">
<title>Node11&#45;&gt;Node12</title>
<path fill="none" stroke="midnightblue" d="M482.53,-104.43C509.71,-110.63 542.41,-118.08 569.21,-124.19"/>
<polygon fill="midnightblue" stroke="midnightblue" points="568.64,-127.65 579.16,-126.46 570.19,-120.83 568.64,-127.65"/>
</g>
<!-- Node13 -->
<g id="node13" class="node">
<title>Node13</title>
<g id="a_node13"><a xlink:href="classlogs_1_1LoggerFactory.html#a90478b91d7af2ef8841ded21e3521f69" target="_top" xlink:title="Cette méthode statique retourne l&#39;instance unique de la classe LoggerFactory.">
<polygon fill="white" stroke="black" points="566.5,-77 566.5,-107 677.5,-107 677.5,-77 566.5,-77"/>
<text text-anchor="start" x="574.5" y="-95" font-family="Helvetica,sans-Serif" font-size="10.00">logs::LoggerFactory</text>
<text text-anchor="middle" x="622" y="-84" font-family="Helvetica,sans-Serif" font-size="10.00">::instance</text>
</a>
</g>
</g>
<!-- Node11&#45;&gt;Node13 -->
<g id="edge14" class="edge">
<title>Node11&#45;&gt;Node13</title>
<path fill="none" stroke="midnightblue" d="M482.53,-92C505.45,-92 532.3,-92 556.22,-92"/>
<polygon fill="midnightblue" stroke="midnightblue" points="556.27,-95.5 566.27,-92 556.27,-88.5 556.27,-95.5"/>
</g>
<!-- Node14 -->
<g id="node14" class="node">
<title>Node14</title>
<g id="a_node14"><a xlink:href="classlogs_1_1LoggerFactory.html#a212aa623f4b6bee12cb39e8017dde670" target="_top" xlink:title="Cette méthode retourne le Logger principal qui définit le niveau de trace par défaut.">
<polygon fill="white" stroke="black" points="566.5,-28 566.5,-58 677.5,-58 677.5,-28 566.5,-28"/>
<text text-anchor="start" x="574.5" y="-46" font-family="Helvetica,sans-Serif" font-size="10.00">logs::LoggerFactory</text>
<text text-anchor="middle" x="622" y="-35" font-family="Helvetica,sans-Serif" font-size="10.00">::rootLogger</text>
</a>
</g>
</g>
<!-- Node11&#45;&gt;Node14 -->
<g id="edge15" class="edge">
<title>Node11&#45;&gt;Node14</title>
<path fill="none" stroke="midnightblue" d="M482.53,-78.16C505.56,-72.31 532.54,-65.46 556.54,-59.37"/>
<polygon fill="midnightblue" stroke="midnightblue" points="557.44,-62.75 566.27,-56.9 555.71,-55.96 557.44,-62.75"/>
</g>
</g>
</svg>
