<?xml version="1.0" encoding="UTF-8" standalone="no"?>
<!DOCTYPE svg PUBLIC "-//W3C//DTD SVG 1.1//EN"
 "http://www.w3.org/Graphics/SVG/1.1/DTD/svg11.dtd">
<!-- Generated by graphviz version 2.43.0 (0)
 -->
<!-- Title: detail::lexer&lt; BasicJsonType, InputAdapterType &gt; Pages: 1 -->
<svg width="232pt" height="117pt"
 viewBox="0.00 0.00 232.00 117.00" xmlns="http://www.w3.org/2000/svg" xmlns:xlink="http://www.w3.org/1999/xlink">
<g id="graph0" class="graph" transform="scale(1 1) rotate(0) translate(4 113)">
<title>detail::lexer&lt; BasicJsonType, InputAdapterType &gt;</title>
<polygon fill="white" stroke="transparent" points="-4,4 -4,-113 228,-113 228,4 -4,4"/>
<!-- Node1 -->
<g id="node1" class="node">
<title>Node1</title>
<g id="a_node1"><a xlink:title="lexical analysis">
<polygon fill="#bfbfbf" stroke="black" points="43,-0.5 43,-30.5 185,-30.5 185,-0.5 43,-0.5"/>
<text text-anchor="start" x="51" y="-18.5" font-family="Helvetica,sans-Serif" font-size="10.00">detail::lexer&lt; BasicJson</text>
<text text-anchor="middle" x="114" y="-7.5" font-family="Helvetica,sans-Serif" font-size="10.00">Type, InputAdapterType &gt;</text>
</a>
</g>
</g>
<!-- Node2 -->
<g id="node2" class="node">
<title>Node2</title>
<g id="a_node2"><a xlink:href="classdetail_1_1lexer__base.html" target="_top" xlink:title=" ">
<polygon fill="white" stroke="black" points="0,-78.5 0,-108.5 108,-108.5 108,-78.5 0,-78.5"/>
<text text-anchor="start" x="8" y="-96.5" font-family="Helvetica,sans-Serif" font-size="10.00">detail::lexer_base</text>
<text text-anchor="middle" x="54" y="-85.5" font-family="Helvetica,sans-Serif" font-size="10.00">&lt; BasicJsonType &gt;</text>
</a>
</g>
</g>
<!-- Node2&#45;&gt;Node1 -->
<g id="edge1" class="edge">
<title>Node2&#45;&gt;Node1</title>
<path fill="none" stroke="midnightblue" d="M71.52,-70.31C81.61,-57.53 93.98,-41.86 102.77,-30.73"/>
<polygon fill="midnightblue" stroke="midnightblue" points="68.73,-68.19 65.29,-78.2 74.23,-72.52 68.73,-68.19"/>
</g>
<!-- Node3 -->
<g id="node3" class="node">
<title>Node3</title>
<g id="a_node3"><a xlink:href="structdetail_1_1position__t.html" target="_top" xlink:title="struct to capture the start position of the current token">
<polygon fill="white" stroke="black" points="126,-84 126,-103 224,-103 224,-84 126,-84"/>
<text text-anchor="middle" x="175" y="-91" font-family="Helvetica,sans-Serif" font-size="10.00">detail::position_t</text>
</a>
</g>
</g>
<!-- Node3&#45;&gt;Node1 -->
<g id="edge2" class="edge">
<title>Node3&#45;&gt;Node1</title>
<path fill="none" stroke="#9a32cd" stroke-dasharray="5,2" d="M161.56,-75.75C150.67,-62.19 135.51,-43.3 125.25,-30.52"/>
<polygon fill="#9a32cd" stroke="#9a32cd" points="159.01,-78.17 168,-83.78 164.47,-73.79 159.01,-78.17"/>
<text text-anchor="middle" x="169.5" y="-52" font-family="Helvetica,sans-Serif" font-size="10.00"> position</text>
</g>
</g>
</svg>
