<?xml version="1.0" encoding="UTF-8" standalone="no"?>
<!DOCTYPE svg PUBLIC "-//W3C//DTD SVG 1.1//EN"
 "http://www.w3.org/Graphics/SVG/1.1/DTD/svg11.dtd">
<!-- Generated by graphviz version 2.43.0 (0)
 -->
<!-- Title: Asserv::logger Pages: 1 -->
<svg width="903pt" height="1265pt"
 viewBox="0.00 0.00 903.00 1264.83" xmlns="http://www.w3.org/2000/svg" xmlns:xlink="http://www.w3.org/1999/xlink">
<g id="graph0" class="graph" transform="scale(1 1) rotate(0) translate(4 1260.83)">
<title>Asserv::logger</title>
<polygon fill="white" stroke="transparent" points="-4,4 -4,-1260.83 899,-1260.83 899,4 -4,4"/>
<!-- Node1 -->
<g id="node1" class="node">
<title>Node1</title>
<g id="a_node1"><a xlink:title="Return Logger linked to Asserv.">
<polygon fill="#bfbfbf" stroke="black" points="809,-568 809,-587 895,-587 895,-568 809,-568"/>
<text text-anchor="middle" x="852" y="-575" font-family="Helvetica,sans-Serif" font-size="10.00">Asserv::logger</text>
</a>
</g>
</g>
<!-- Node2 -->
<g id="node2" class="node">
<title>Node2</title>
<g id="a_node2"><a xlink:href="classAsserv.html#a3a481367962ccacd1a378c3bb5df3b25" target="_top" xlink:title=" ">
<polygon fill="white" stroke="black" points="218.5,-1188 218.5,-1207 364.5,-1207 364.5,-1188 218.5,-1188"/>
<text text-anchor="middle" x="291.5" y="-1195" font-family="Helvetica,sans-Serif" font-size="10.00">Asserv::adjustRealPosition</text>
</a>
</g>
</g>
<!-- Node1&#45;&gt;Node2 -->
<g id="edge1" class="edge">
<title>Node1&#45;&gt;Node2</title>
<path fill="none" stroke="midnightblue" d="M849.95,-597.36C844.47,-697.96 817.55,-1148.05 773,-1189.5 642.74,-1310.69 396.08,-1235.53 317.33,-1207.04"/>
<polygon fill="midnightblue" stroke="midnightblue" points="853.45,-597.51 850.49,-587.33 846.46,-597.13 853.45,-597.51"/>
</g>
<!-- Node3 -->
<g id="node3" class="node">
<title>Node3</title>
<g id="a_node3"><a xlink:href="classAsserv.html#a314e3ff9a8a538a23d26dcb802386024" target="_top" xlink:title=" ">
<polygon fill="white" stroke="black" points="425,-415.5 425,-445.5 563,-445.5 563,-415.5 425,-415.5"/>
<text text-anchor="start" x="433" y="-433.5" font-family="Helvetica,sans-Serif" font-size="10.00">Asserv::calculateDriftLeft</text>
<text text-anchor="middle" x="494" y="-422.5" font-family="Helvetica,sans-Serif" font-size="10.00">SideAndSetPos</text>
</a>
</g>
</g>
<!-- Node1&#45;&gt;Node3 -->
<g id="edge2" class="edge">
<title>Node1&#45;&gt;Node3</title>
<path fill="none" stroke="midnightblue" d="M819.37,-563.93C767.75,-541.84 662.12,-496.94 572,-460.5 559.76,-455.55 546.38,-450.29 534.25,-445.57"/>
<polygon fill="midnightblue" stroke="midnightblue" points="818.09,-567.18 828.66,-567.9 820.84,-560.75 818.09,-567.18"/>
</g>
<!-- Node4 -->
<g id="node4" class="node">
<title>Node4</title>
<g id="a_node4"><a xlink:href="classAsserv.html#a9e997a871e745e687a4088103378bae3" target="_top" xlink:title=" ">
<polygon fill="white" stroke="black" points="421,-289.5 421,-319.5 567,-319.5 567,-289.5 421,-289.5"/>
<text text-anchor="start" x="429" y="-307.5" font-family="Helvetica,sans-Serif" font-size="10.00">Asserv::calculateDriftRight</text>
<text text-anchor="middle" x="494" y="-296.5" font-family="Helvetica,sans-Serif" font-size="10.00">SideAndSetPos</text>
</a>
</g>
</g>
<!-- Node1&#45;&gt;Node4 -->
<g id="edge3" class="edge">
<title>Node1&#45;&gt;Node4</title>
<path fill="none" stroke="midnightblue" d="M850.68,-557.55C848.78,-512.53 837.44,-402.74 773,-348.5 716.18,-300.67 628.83,-294.12 567.23,-296.7"/>
<polygon fill="midnightblue" stroke="midnightblue" points="847.18,-557.87 850.98,-567.76 854.18,-557.66 847.18,-557.87"/>
</g>
<!-- Node5 -->
<g id="node5" class="node">
<title>Node5</title>
<g id="a_node5"><a xlink:href="classAsserv.html#a31cb7196e12282ed27c45e8f58b4db04" target="_top" xlink:title=" ">
<polygon fill="white" stroke="black" points="614.5,-921 614.5,-940 766.5,-940 766.5,-921 614.5,-921"/>
<text text-anchor="middle" x="690.5" y="-928" font-family="Helvetica,sans-Serif" font-size="10.00">Asserv::doAbsoluteRotateTo</text>
</a>
</g>
</g>
<!-- Node1&#45;&gt;Node5 -->
<g id="edge4" class="edge">
<title>Node1&#45;&gt;Node5</title>
<path fill="none" stroke="midnightblue" d="M845.25,-597.05C833.67,-635.41 805.84,-722.88 773,-792.5 749.26,-842.83 712.87,-898.75 698.09,-920.8"/>
<polygon fill="midnightblue" stroke="midnightblue" points="848.69,-597.77 848.19,-587.19 841.98,-595.77 848.69,-597.77"/>
</g>
<!-- Node6 -->
<g id="node6" class="node">
<title>Node6</title>
<g id="a_node6"><a xlink:href="classAsserv.html#af438189501d475dcb6632ce63efe5e5f" target="_top" xlink:title=" ">
<polygon fill="white" stroke="black" points="211,-948.5 211,-978.5 372,-978.5 372,-948.5 211,-948.5"/>
<text text-anchor="start" x="219" y="-966.5" font-family="Helvetica,sans-Serif" font-size="10.00">Asserv::doMoveBackwardAnd</text>
<text text-anchor="middle" x="291.5" y="-955.5" font-family="Helvetica,sans-Serif" font-size="10.00">RotateTo</text>
</a>
</g>
</g>
<!-- Node1&#45;&gt;Node6 -->
<g id="edge23" class="edge">
<title>Node1&#45;&gt;Node6</title>
<path fill="none" stroke="midnightblue" d="M849.86,-597.06C845.38,-666.82 826.49,-901.71 773,-949.5 715.82,-1000.59 493.17,-985.55 372.05,-972.99"/>
<polygon fill="midnightblue" stroke="midnightblue" points="853.36,-597.21 850.48,-587.01 846.37,-596.78 853.36,-597.21"/>
</g>
<!-- Node10 -->
<g id="node10" class="node">
<title>Node10</title>
<g id="a_node10"><a xlink:href="classAsserv.html#a0a57aa0008a30ba9b13502e4dd61310d" target="_top" xlink:title=" ">
<polygon fill="white" stroke="black" points="215.5,-997.5 215.5,-1027.5 367.5,-1027.5 367.5,-997.5 215.5,-997.5"/>
<text text-anchor="start" x="223.5" y="-1015.5" font-family="Helvetica,sans-Serif" font-size="10.00">Asserv::doMoveForwardAnd</text>
<text text-anchor="middle" x="291.5" y="-1004.5" font-family="Helvetica,sans-Serif" font-size="10.00">RotateTo</text>
</a>
</g>
</g>
<!-- Node1&#45;&gt;Node10 -->
<g id="edge24" class="edge">
<title>Node1&#45;&gt;Node10</title>
<path fill="none" stroke="midnightblue" d="M850.24,-597.29C846.94,-671.11 831.38,-928.83 773,-980.5 652.96,-1086.76 443.17,-1051.79 345.42,-1027.54"/>
<polygon fill="midnightblue" stroke="midnightblue" points="853.74,-597.22 850.66,-587.08 846.75,-596.92 853.74,-597.22"/>
</g>
<!-- Node11 -->
<g id="node11" class="node">
<title>Node11</title>
<g id="a_node11"><a xlink:href="classAsserv.html#a960679fed5ab18f631d7847c95fc1f85" target="_top" xlink:title=" ">
<polygon fill="white" stroke="black" points="422.5,-921 422.5,-940 565.5,-940 565.5,-921 422.5,-921"/>
<text text-anchor="middle" x="494" y="-928" font-family="Helvetica,sans-Serif" font-size="10.00">Asserv::doMoveForwardTo</text>
</a>
</g>
</g>
<!-- Node1&#45;&gt;Node11 -->
<g id="edge25" class="edge">
<title>Node1&#45;&gt;Node11</title>
<path fill="none" stroke="midnightblue" d="M836.65,-594.88C797.09,-642.27 682.1,-776.72 572,-873.5 551.39,-891.62 525.36,-910.06 509.46,-920.88"/>
<polygon fill="midnightblue" stroke="midnightblue" points="839.44,-596.99 843.14,-587.07 834.06,-592.52 839.44,-596.99"/>
</g>
<!-- Node19 -->
<g id="node19" class="node">
<title>Node19</title>
<g id="a_node19"><a xlink:href="classAsserv.html#a9ae528690268f84726565305c42718e5" target="_top" xlink:title=" ">
<polygon fill="white" stroke="black" points="419,-1160.5 419,-1190.5 569,-1190.5 569,-1160.5 419,-1160.5"/>
<text text-anchor="start" x="427" y="-1178.5" font-family="Helvetica,sans-Serif" font-size="10.00">Asserv::eq_2CirclesCrossed</text>
<text text-anchor="middle" x="494" y="-1167.5" font-family="Helvetica,sans-Serif" font-size="10.00">_getXY</text>
</a>
</g>
</g>
<!-- Node1&#45;&gt;Node19 -->
<g id="edge26" class="edge">
<title>Node1&#45;&gt;Node19</title>
<path fill="none" stroke="midnightblue" d="M849.77,-597.37C843.58,-694.29 814.48,-1114.27 773,-1153.5 715.93,-1207.48 619.53,-1201.87 556.58,-1190.53"/>
<polygon fill="midnightblue" stroke="midnightblue" points="853.27,-597.4 850.41,-587.2 846.29,-596.96 853.27,-597.4"/>
</g>
<!-- Node20 -->
<g id="node20" class="node">
<title>Node20</title>
<g id="a_node20"><a xlink:href="classAsserv.html#a744a8285ae7c6339252458a9c94fd602" target="_top" xlink:title=" ">
<polygon fill="white" stroke="black" points="634,-1113.5 634,-1143.5 747,-1143.5 747,-1113.5 634,-1113.5"/>
<text text-anchor="start" x="642" y="-1131.5" font-family="Helvetica,sans-Serif" font-size="10.00">Asserv::eq_2nd_deg</text>
<text text-anchor="middle" x="690.5" y="-1120.5" font-family="Helvetica,sans-Serif" font-size="10.00">_getXY</text>
</a>
</g>
</g>
<!-- Node1&#45;&gt;Node20 -->
<g id="edge28" class="edge">
<title>Node1&#45;&gt;Node20</title>
<path fill="none" stroke="midnightblue" d="M850.6,-597.46C848.49,-682.92 836.25,-1017.14 773,-1096.5 766.27,-1104.94 757.01,-1111.16 747.13,-1115.74"/>
<polygon fill="midnightblue" stroke="midnightblue" points="854.1,-597.38 850.83,-587.31 847.1,-597.22 854.1,-597.38"/>
</g>
<!-- Node21 -->
<g id="node21" class="node">
<title>Node21</title>
<g id="a_node21"><a xlink:href="classAsserv.html#acc337a9f3d054ba09e3043a560a457a7" target="_top" xlink:title=" ">
<polygon fill="white" stroke="black" points="617.5,-137 617.5,-156 763.5,-156 763.5,-137 617.5,-137"/>
<text text-anchor="middle" x="690.5" y="-144" font-family="Helvetica,sans-Serif" font-size="10.00">Asserv::filtre_IsInsideTable</text>
</a>
</g>
</g>
<!-- Node1&#45;&gt;Node21 -->
<g id="edge30" class="edge">
<title>Node1&#45;&gt;Node21</title>
<path fill="none" stroke="midnightblue" d="M849.95,-557.65C846.35,-503.26 831.3,-348.39 773,-236.5 755.27,-202.48 721.56,-171.34 703.55,-156.18"/>
<polygon fill="midnightblue" stroke="midnightblue" points="846.47,-558.18 850.57,-567.95 853.46,-557.76 846.47,-558.18"/>
</g>
<!-- Node26 -->
<g id="node26" class="node">
<title>Node26</title>
<g id="a_node26"><a xlink:href="classAsserv.html#a22cbdc18185f0d910473b8a5bb434c84" target="_top" xlink:title=" ">
<polygon fill="white" stroke="black" points="608,-636 608,-655 773,-655 773,-636 608,-636"/>
<text text-anchor="middle" x="690.5" y="-643" font-family="Helvetica,sans-Serif" font-size="10.00">Asserv::resetEmergencyOnTraj</text>
</a>
</g>
</g>
<!-- Node1&#45;&gt;Node26 -->
<g id="edge37" class="edge">
<title>Node1&#45;&gt;Node26</title>
<path fill="none" stroke="midnightblue" d="M818.95,-591.16C787.79,-604.45 741.28,-624.28 713.9,-635.95"/>
<polygon fill="midnightblue" stroke="midnightblue" points="820.66,-594.24 828.49,-587.1 817.91,-587.8 820.66,-594.24"/>
</g>
<!-- Node35 -->
<g id="node35" class="node">
<title>Node35</title>
<g id="a_node35"><a xlink:href="classAsserv.html#a312602d6bf6f8591937e4d0003497bbb" target="_top" xlink:title=" ">
<polygon fill="white" stroke="black" points="617.5,-77 617.5,-96 763.5,-96 763.5,-77 617.5,-77"/>
<text text-anchor="middle" x="690.5" y="-84" font-family="Helvetica,sans-Serif" font-size="10.00">Asserv::setEmergencyStop</text>
</a>
</g>
</g>
<!-- Node1&#45;&gt;Node35 -->
<g id="edge52" class="edge">
<title>Node1&#45;&gt;Node35</title>
<path fill="none" stroke="midnightblue" d="M849.9,-557.67C845.25,-480.04 825,-197.62 773,-127.5 761.77,-112.36 743.37,-102.44 726.89,-96.15"/>
<polygon fill="midnightblue" stroke="midnightblue" points="846.42,-558.17 850.5,-567.95 853.41,-557.76 846.42,-558.17"/>
</g>
<!-- Node37 -->
<g id="node37" class="node">
<title>Node37</title>
<g id="a_node37"><a xlink:href="classAsserv.html#a959dc45e49f920c77e62a11b75a15641" target="_top" xlink:title=" ">
<polygon fill="white" stroke="black" points="418.5,-0.5 418.5,-30.5 569.5,-30.5 569.5,-0.5 418.5,-0.5"/>
<text text-anchor="start" x="426.5" y="-18.5" font-family="Helvetica,sans-Serif" font-size="10.00">Asserv::warnFrontDetection</text>
<text text-anchor="middle" x="494" y="-7.5" font-family="Helvetica,sans-Serif" font-size="10.00">OnTraj</text>
</a>
</g>
</g>
<!-- Node1&#45;&gt;Node37 -->
<g id="edge69" class="edge">
<title>Node1&#45;&gt;Node37</title>
<path fill="none" stroke="midnightblue" d="M850.9,-557.57C850.07,-472.28 842.37,-139.2 773,-67.5 758.9,-52.92 647.16,-35.5 569.72,-24.97"/>
<polygon fill="midnightblue" stroke="midnightblue" points="847.41,-557.73 850.98,-567.71 854.41,-557.68 847.41,-557.73"/>
</g>
<!-- Node38 -->
<g id="node38" class="node">
<title>Node38</title>
<g id="a_node38"><a xlink:href="classAsserv.html#a050645863c2a40f3116ee0847d1d3732" target="_top" xlink:title=" ">
<polygon fill="white" stroke="black" points="614,-358 614,-377 767,-377 767,-358 614,-358"/>
<text text-anchor="middle" x="690.5" y="-365" font-family="Helvetica,sans-Serif" font-size="10.00">Asserv::setPositionAndColor</text>
</a>
</g>
</g>
<!-- Node1&#45;&gt;Node38 -->
<g id="edge57" class="edge">
<title>Node1&#45;&gt;Node38</title>
<path fill="none" stroke="midnightblue" d="M838.94,-559.17C823.99,-536.7 797.5,-497.66 773,-465.5 747.52,-432.06 714.97,-394.27 699.88,-377.01"/>
<polygon fill="midnightblue" stroke="midnightblue" points="836.15,-561.31 844.59,-567.71 841.99,-557.44 836.15,-561.31"/>
</g>
<!-- Node40 -->
<g id="node40" class="node">
<title>Node40</title>
<g id="a_node40"><a xlink:href="classAsserv.html#a366bf4a9f0880c5dc125ac0637fee326" target="_top" xlink:title=" ">
<polygon fill="white" stroke="black" points="620.5,-245.5 620.5,-275.5 760.5,-275.5 760.5,-245.5 620.5,-245.5"/>
<text text-anchor="start" x="628.5" y="-263.5" font-family="Helvetica,sans-Serif" font-size="10.00">Asserv::startMotionTimer</text>
<text text-anchor="middle" x="690.5" y="-252.5" font-family="Helvetica,sans-Serif" font-size="10.00">AndOdo</text>
</a>
</g>
</g>
<!-- Node1&#45;&gt;Node40 -->
<g id="edge63" class="edge">
<title>Node1&#45;&gt;Node40</title>
<path fill="none" stroke="midnightblue" d="M849.84,-557.66C846.17,-510.54 831.3,-390.06 773,-312.5 761,-296.53 742.54,-284.18 726.23,-275.52"/>
<polygon fill="midnightblue" stroke="midnightblue" points="846.36,-558.02 850.54,-567.75 853.34,-557.54 846.36,-558.02"/>
</g>
<!-- Node42 -->
<g id="node42" class="node">
<title>Node42</title>
<g id="a_node42"><a xlink:href="classAsserv.html#a9a073136f6af1298bb0dcef2db1f0c01" target="_top" xlink:title=" ">
<polygon fill="white" stroke="black" points="634.5,-1 634.5,-20 746.5,-20 746.5,-1 634.5,-1"/>
<text text-anchor="middle" x="690.5" y="-8" font-family="Helvetica,sans-Serif" font-size="10.00">Asserv::update_adv</text>
</a>
</g>
</g>
<!-- Node1&#45;&gt;Node42 -->
<g id="edge68" class="edge">
<title>Node1&#45;&gt;Node42</title>
<path fill="none" stroke="midnightblue" d="M850.92,-557.59C850.15,-469.43 842.72,-115.04 773,-34.5 766.05,-26.47 756.56,-21.06 746.51,-17.43"/>
<polygon fill="midnightblue" stroke="midnightblue" points="847.42,-557.63 850.98,-567.6 854.42,-557.58 847.42,-557.63"/>
</g>
<!-- Node5&#45;&gt;Node6 -->
<g id="edge5" class="edge">
<title>Node5&#45;&gt;Node6</title>
<path fill="none" stroke="midnightblue" d="M628.6,-941.66C610.45,-944.63 590.47,-947.55 572,-949.5 504.84,-956.59 428.21,-960.11 372.19,-961.84"/>
<polygon fill="midnightblue" stroke="midnightblue" points="629.19,-945.11 638.48,-940.01 628.04,-938.2 629.19,-945.11"/>
</g>
<!-- Node7 -->
<g id="node7" class="node">
<title>Node7</title>
<g id="a_node7"><a xlink:href="classAsserv.html#aa2ec3b84e3cccf2145cc70e33f08dc58" target="_top" xlink:title=" ">
<polygon fill="white" stroke="black" points="418,-845 418,-864 570,-864 570,-845 418,-845"/>
<text text-anchor="middle" x="494" y="-852" font-family="Helvetica,sans-Serif" font-size="10.00">Asserv::doMoveBackwardTo</text>
</a>
</g>
</g>
<!-- Node5&#45;&gt;Node7 -->
<g id="edge6" class="edge">
<title>Node5&#45;&gt;Node7</title>
<path fill="none" stroke="midnightblue" d="M660.74,-916.67C637.19,-905.61 602.83,-890.08 572,-878.5 557.97,-873.23 542.22,-868.17 528.64,-864.07"/>
<polygon fill="midnightblue" stroke="midnightblue" points="659.29,-919.85 669.83,-920.96 662.29,-913.52 659.29,-919.85"/>
</g>
<!-- Node5&#45;&gt;Node10 -->
<g id="edge10" class="edge">
<title>Node5&#45;&gt;Node10</title>
<path fill="none" stroke="midnightblue" d="M653.99,-943.59C630.9,-951.7 599.97,-961.82 572,-968.5 503.56,-984.85 424.2,-996.68 367.56,-1003.93"/>
<polygon fill="midnightblue" stroke="midnightblue" points="655.45,-946.79 663.7,-940.14 653.1,-940.19 655.45,-946.79"/>
</g>
<!-- Node5&#45;&gt;Node11 -->
<g id="edge11" class="edge">
<title>Node5&#45;&gt;Node11</title>
<path fill="none" stroke="midnightblue" d="M604.06,-930.5C591.19,-930.5 578.04,-930.5 565.53,-930.5"/>
<polygon fill="midnightblue" stroke="midnightblue" points="604.3,-934 614.3,-930.5 604.3,-927 604.3,-934"/>
</g>
<!-- Node14 -->
<g id="node14" class="node">
<title>Node14</title>
<g id="a_node14"><a xlink:href="classIAbyPath.html#a00b7b125584bda7731696dfd5069b17c" target="_top" xlink:title=" ">
<polygon fill="white" stroke="black" points="416,-1111.5 416,-1141.5 572,-1141.5 572,-1111.5 416,-1111.5"/>
<text text-anchor="start" x="424" y="-1129.5" font-family="Helvetica,sans-Serif" font-size="10.00">IAbyPath::doPathForwardAnd</text>
<text text-anchor="middle" x="494" y="-1118.5" font-family="Helvetica,sans-Serif" font-size="10.00">RotateTo</text>
</a>
</g>
</g>
<!-- Node5&#45;&gt;Node14 -->
<g id="edge15" class="edge">
<title>Node5&#45;&gt;Node14</title>
<path fill="none" stroke="midnightblue" d="M672.71,-947.42C635.34,-985.08 545.77,-1075.34 510.06,-1111.32"/>
<polygon fill="midnightblue" stroke="midnightblue" points="675.3,-949.78 679.85,-940.22 670.33,-944.85 675.3,-949.78"/>
</g>
<!-- Node18 -->
<g id="node18" class="node">
<title>Node18</title>
<g id="a_node18"><a xlink:href="classIAbyPath.html#a42570f6bc87216c2ac5d028ad596fe02" target="_top" xlink:title=" ">
<polygon fill="white" stroke="black" points="211,-818 211,-837 372,-837 372,-818 211,-818"/>
<text text-anchor="middle" x="291.5" y="-825" font-family="Helvetica,sans-Serif" font-size="10.00">IAbyPath::whileMoveRotateTo</text>
</a>
</g>
</g>
<!-- Node5&#45;&gt;Node18 -->
<g id="edge20" class="edge">
<title>Node5&#45;&gt;Node18</title>
<path fill="none" stroke="midnightblue" d="M618.65,-919.34C550.09,-907.89 451.49,-889.54 416,-873.5 397.77,-865.26 398.19,-854.81 380,-846.5 371.52,-842.62 362.2,-839.52 352.92,-837.04"/>
<polygon fill="midnightblue" stroke="midnightblue" points="618.1,-922.79 628.54,-920.97 619.24,-915.89 618.1,-922.79"/>
</g>
<!-- Node7&#45;&gt;Node6 -->
<g id="edge7" class="edge">
<title>Node7&#45;&gt;Node6</title>
<path fill="none" stroke="midnightblue" d="M466.26,-869.04C428.26,-889.69 358.99,-927.35 320.38,-948.34"/>
<polygon fill="midnightblue" stroke="midnightblue" points="468.09,-872.02 475.21,-864.17 464.75,-865.87 468.09,-872.02"/>
</g>
<!-- Node8 -->
<g id="node8" class="node">
<title>Node8</title>
<g id="a_node8"><a xlink:href="classIAbyPath.html#acc586e1ba62ffb7a21087a5ca4d2f131" target="_top" xlink:title=" ">
<polygon fill="white" stroke="black" points="203,-780 203,-799 380,-799 380,-780 203,-780"/>
<text text-anchor="middle" x="291.5" y="-787" font-family="Helvetica,sans-Serif" font-size="10.00">IAbyPath::whileMoveBackwardTo</text>
</a>
</g>
</g>
<!-- Node7&#45;&gt;Node8 -->
<g id="edge8" class="edge">
<title>Node7&#45;&gt;Node8</title>
<path fill="none" stroke="midnightblue" d="M463.23,-840.73C440.74,-830.73 408.91,-817.45 380,-808.5 368.42,-804.91 355.77,-801.75 343.78,-799.08"/>
<polygon fill="midnightblue" stroke="midnightblue" points="462.01,-844.02 472.56,-844.93 464.88,-837.63 462.01,-844.02"/>
</g>
<!-- Node9 -->
<g id="node9" class="node">
<title>Node9</title>
<g id="a_node9"><a xlink:href="classIAbyPath.html#a9535c82f137778cc6cd4b159fe3d58ea" target="_top" xlink:title=" ">
<polygon fill="white" stroke="black" points="0,-781.5 0,-811.5 167,-811.5 167,-781.5 0,-781.5"/>
<text text-anchor="start" x="8" y="-799.5" font-family="Helvetica,sans-Serif" font-size="10.00">IAbyPath::whileMoveBackward</text>
<text text-anchor="middle" x="83.5" y="-788.5" font-family="Helvetica,sans-Serif" font-size="10.00">AndRotateTo</text>
</a>
</g>
</g>
<!-- Node8&#45;&gt;Node9 -->
<g id="edge9" class="edge">
<title>Node8&#45;&gt;Node9</title>
<path fill="none" stroke="midnightblue" d="M192.81,-792.82C184.23,-793.11 175.61,-793.4 167.17,-793.69"/>
<polygon fill="midnightblue" stroke="midnightblue" points="192.96,-796.32 202.84,-792.48 192.73,-789.32 192.96,-796.32"/>
</g>
<!-- Node11&#45;&gt;Node10 -->
<g id="edge12" class="edge">
<title>Node11&#45;&gt;Node10</title>
<path fill="none" stroke="midnightblue" d="M468.17,-945.14C445.72,-957.91 411.47,-976.26 380,-988.5 371.63,-991.75 362.65,-994.75 353.75,-997.44"/>
<polygon fill="midnightblue" stroke="midnightblue" points="470.1,-948.07 477.02,-940.04 466.61,-942 470.1,-948.07"/>
</g>
<!-- Node12 -->
<g id="node12" class="node">
<title>Node12</title>
<g id="a_node12"><a xlink:href="classIAbyPath.html#aa2a96904ea74078d56dad53979b1d999" target="_top" xlink:title=" ">
<polygon fill="white" stroke="black" points="207.5,-856 207.5,-875 375.5,-875 375.5,-856 207.5,-856"/>
<text text-anchor="middle" x="291.5" y="-863" font-family="Helvetica,sans-Serif" font-size="10.00">IAbyPath::whileMoveForwardTo</text>
</a>
</g>
</g>
<!-- Node11&#45;&gt;Node12 -->
<g id="edge13" class="edge">
<title>Node11&#45;&gt;Node12</title>
<path fill="none" stroke="midnightblue" d="M452.31,-917.97C440.58,-914.32 427.77,-910.29 416,-906.5 383.31,-895.98 345.9,-883.5 320.9,-875.09"/>
<polygon fill="midnightblue" stroke="midnightblue" points="451.27,-921.31 461.86,-920.94 453.35,-914.63 451.27,-921.31"/>
</g>
<!-- Node13 -->
<g id="node13" class="node">
<title>Node13</title>
<g id="a_node13"><a xlink:href="classIAbyPath.html#a3f27b793f84340c99ca33e12c2380bb4" target="_top" xlink:title=" ">
<polygon fill="white" stroke="black" points="4.5,-837.5 4.5,-867.5 162.5,-867.5 162.5,-837.5 4.5,-837.5"/>
<text text-anchor="start" x="12.5" y="-855.5" font-family="Helvetica,sans-Serif" font-size="10.00">IAbyPath::whileMoveForward</text>
<text text-anchor="middle" x="83.5" y="-844.5" font-family="Helvetica,sans-Serif" font-size="10.00">AndRotateTo</text>
</a>
</g>
</g>
<!-- Node12&#45;&gt;Node13 -->
<g id="edge14" class="edge">
<title>Node12&#45;&gt;Node13</title>
<path fill="none" stroke="midnightblue" d="M197.22,-859.61C185.67,-858.88 173.96,-858.15 162.67,-857.43"/>
<polygon fill="midnightblue" stroke="midnightblue" points="197.11,-863.11 207.31,-860.25 197.55,-856.13 197.11,-863.11"/>
</g>
<!-- Node15 -->
<g id="node15" class="node">
<title>Node15</title>
<g id="a_node15"><a xlink:href="O__IAbyPathTest_8cpp.html#ac1055b8eb7025052d58ebaf15869a480" target="_top" xlink:title=" ">
<polygon fill="white" stroke="black" points="225,-1133 225,-1152 358,-1152 358,-1133 225,-1133"/>
<text text-anchor="middle" x="291.5" y="-1140" font-family="Helvetica,sans-Serif" font-size="10.00">O_IAbyPathTest_action1</text>
</a>
</g>
</g>
<!-- Node14&#45;&gt;Node15 -->
<g id="edge16" class="edge">
<title>Node14&#45;&gt;Node15</title>
<path fill="none" stroke="midnightblue" d="M405.44,-1133.49C389.61,-1134.75 373.35,-1136.05 358.28,-1137.25"/>
<polygon fill="midnightblue" stroke="midnightblue" points="406.08,-1136.95 415.77,-1132.66 405.52,-1129.97 406.08,-1136.95"/>
</g>
<!-- Node17 -->
<g id="node17" class="node">
<title>Node17</title>
<g id="a_node17"><a xlink:href="O__IAbyPathTest_8cpp.html#aafb960063ea3193551e7ba63626e2561" target="_top" xlink:title=" ">
<polygon fill="white" stroke="black" points="224.5,-1095 224.5,-1114 358.5,-1114 358.5,-1095 224.5,-1095"/>
<text text-anchor="middle" x="291.5" y="-1102" font-family="Helvetica,sans-Serif" font-size="10.00">O_IAByPathTest_action2</text>
</a>
</g>
</g>
<!-- Node14&#45;&gt;Node17 -->
<g id="edge18" class="edge">
<title>Node14&#45;&gt;Node17</title>
<path fill="none" stroke="midnightblue" d="M405.5,-1116.9C389.77,-1115.17 373.6,-1113.4 358.6,-1111.75"/>
<polygon fill="midnightblue" stroke="midnightblue" points="405.45,-1120.41 415.77,-1118.03 406.21,-1113.46 405.45,-1120.41"/>
</g>
<!-- Node16 -->
<g id="node16" class="node">
<title>Node16</title>
<g id="a_node16"><a xlink:href="classO__IAByPathTest.html#abedd21fde4835d641e6aa3f8e1c6581f" target="_top" xlink:title=" ">
<polygon fill="white" stroke="black" points="15.5,-1114 15.5,-1133 151.5,-1133 151.5,-1114 15.5,-1114"/>
<text text-anchor="middle" x="83.5" y="-1121" font-family="Helvetica,sans-Serif" font-size="10.00">O_IAByPathTest::IASetup</text>
</a>
</g>
</g>
<!-- Node15&#45;&gt;Node16 -->
<g id="edge17" class="edge">
<title>Node15&#45;&gt;Node16</title>
<path fill="none" stroke="midnightblue" d="M214.76,-1135.51C194.11,-1133.61 171.89,-1131.56 151.74,-1129.7"/>
<polygon fill="midnightblue" stroke="midnightblue" points="214.47,-1139 224.75,-1136.44 215.12,-1132.03 214.47,-1139"/>
</g>
<!-- Node17&#45;&gt;Node16 -->
<g id="edge19" class="edge">
<title>Node17&#45;&gt;Node16</title>
<path fill="none" stroke="midnightblue" d="M214.48,-1111.51C193.85,-1113.41 171.67,-1115.46 151.57,-1117.31"/>
<polygon fill="midnightblue" stroke="midnightblue" points="214.83,-1114.99 224.47,-1110.59 214.19,-1108.02 214.83,-1114.99"/>
</g>
<!-- Node18&#45;&gt;Node9 -->
<g id="edge21" class="edge">
<title>Node18&#45;&gt;Node9</title>
<path fill="none" stroke="midnightblue" d="M217.36,-816.49C201.17,-814.06 183.89,-811.46 167.34,-808.97"/>
<polygon fill="midnightblue" stroke="midnightblue" points="216.88,-819.96 227.29,-817.99 217.93,-813.04 216.88,-819.96"/>
</g>
<!-- Node18&#45;&gt;Node13 -->
<g id="edge22" class="edge">
<title>Node18&#45;&gt;Node13</title>
<path fill="none" stroke="midnightblue" d="M202.1,-838.23C189.02,-839.82 175.61,-841.44 162.75,-843"/>
<polygon fill="midnightblue" stroke="midnightblue" points="202.53,-841.7 212.03,-837.02 201.68,-834.75 202.53,-841.7"/>
</g>
<!-- Node19&#45;&gt;Node2 -->
<g id="edge27" class="edge">
<title>Node19&#45;&gt;Node2</title>
<path fill="none" stroke="midnightblue" d="M408.83,-1184.74C394.13,-1186.35 378.95,-1188.01 364.62,-1189.59"/>
<polygon fill="midnightblue" stroke="midnightblue" points="409.35,-1188.2 418.91,-1183.63 408.59,-1181.24 409.35,-1188.2"/>
</g>
<!-- Node20&#45;&gt;Node19 -->
<g id="edge29" class="edge">
<title>Node20&#45;&gt;Node19</title>
<path fill="none" stroke="midnightblue" d="M624.04,-1144.32C602.47,-1149.53 578.56,-1155.31 557.24,-1160.46"/>
<polygon fill="midnightblue" stroke="midnightblue" points="624.87,-1147.72 633.76,-1141.97 623.22,-1140.92 624.87,-1147.72"/>
</g>
<!-- Node22 -->
<g id="node22" class="node">
<title>Node22</title>
<g id="a_node22"><a xlink:href="classSensors.html#a7c1612f78d78562aa12322638a74140f" target="_top" xlink:title=" ">
<polygon fill="white" stroke="black" points="452,-99 452,-118 536,-118 536,-99 452,-99"/>
<text text-anchor="middle" x="494" y="-106" font-family="Helvetica,sans-Serif" font-size="10.00">Sensors::back</text>
</a>
</g>
</g>
<!-- Node21&#45;&gt;Node22 -->
<g id="edge31" class="edge">
<title>Node21&#45;&gt;Node22</title>
<path fill="none" stroke="midnightblue" d="M630.59,-134.99C600.14,-129.04 563.71,-121.92 536.28,-116.56"/>
<polygon fill="midnightblue" stroke="midnightblue" points="630.18,-138.48 640.67,-136.96 631.53,-131.61 630.18,-138.48"/>
</g>
<!-- Node25 -->
<g id="node25" class="node">
<title>Node25</title>
<g id="a_node25"><a xlink:href="classSensors.html#a6fde663a7fb649742b32c4c56e4b939c" target="_top" xlink:title=" ">
<polygon fill="white" stroke="black" points="452,-137 452,-156 536,-156 536,-137 452,-137"/>
<text text-anchor="middle" x="494" y="-144" font-family="Helvetica,sans-Serif" font-size="10.00">Sensors::front</text>
</a>
</g>
</g>
<!-- Node21&#45;&gt;Node25 -->
<g id="edge34" class="edge">
<title>Node21&#45;&gt;Node25</title>
<path fill="none" stroke="midnightblue" d="M607.31,-146.5C582.78,-146.5 556.95,-146.5 536.25,-146.5"/>
<polygon fill="midnightblue" stroke="midnightblue" points="607.35,-150 617.35,-146.5 607.35,-143 607.35,-150"/>
</g>
<!-- Node23 -->
<g id="node23" class="node">
<title>Node23</title>
<g id="a_node23"><a xlink:href="classSensorsTimer.html#abc377178c2471f664b31658554963e83" target="_top" xlink:title="Actions à executer pour le timer.">
<polygon fill="white" stroke="black" points="226.5,-99 226.5,-118 356.5,-118 356.5,-99 226.5,-99"/>
<text text-anchor="middle" x="291.5" y="-106" font-family="Helvetica,sans-Serif" font-size="10.00">SensorsTimer::onTimer</text>
</a>
</g>
</g>
<!-- Node22&#45;&gt;Node23 -->
<g id="edge32" class="edge">
<title>Node22&#45;&gt;Node23</title>
<path fill="none" stroke="midnightblue" d="M441.62,-108.5C415.78,-108.5 384.22,-108.5 356.8,-108.5"/>
<polygon fill="midnightblue" stroke="midnightblue" points="441.94,-112 451.94,-108.5 441.94,-105 441.94,-112"/>
</g>
<!-- Node24 -->
<g id="node24" class="node">
<title>Node24</title>
<g id="a_node24"><a xlink:href="classO__SensorsTest.html#ae3b998034225e16586ded4ba3bd419e5" target="_top" xlink:title="Execute le test.">
<polygon fill="white" stroke="black" points="237,-175 237,-194 346,-194 346,-175 237,-175"/>
<text text-anchor="middle" x="291.5" y="-182" font-family="Helvetica,sans-Serif" font-size="10.00">O_SensorsTest::run</text>
</a>
</g>
</g>
<!-- Node22&#45;&gt;Node24 -->
<g id="edge33" class="edge">
<title>Node22&#45;&gt;Node24</title>
<path fill="none" stroke="midnightblue" d="M442.04,-119.62C433.27,-121.94 424.31,-124.59 416,-127.5 377.22,-141.09 334.11,-162.54 310.46,-174.89"/>
<polygon fill="midnightblue" stroke="midnightblue" points="442.99,-122.99 451.81,-117.13 441.26,-116.21 442.99,-122.99"/>
</g>
<!-- Node25&#45;&gt;Node23 -->
<g id="edge35" class="edge">
<title>Node25&#45;&gt;Node23</title>
<path fill="none" stroke="midnightblue" d="M441.95,-136.83C411.52,-131.06 373.04,-123.76 342.74,-118.02"/>
<polygon fill="midnightblue" stroke="midnightblue" points="441.47,-140.3 451.94,-138.72 442.77,-133.42 441.47,-140.3"/>
</g>
<!-- Node25&#45;&gt;Node24 -->
<g id="edge36" class="edge">
<title>Node25&#45;&gt;Node24</title>
<path fill="none" stroke="midnightblue" d="M441.95,-156.17C411.52,-161.94 373.04,-169.24 342.74,-174.98"/>
<polygon fill="midnightblue" stroke="midnightblue" points="442.77,-159.58 451.94,-154.28 441.47,-152.7 442.77,-159.58"/>
</g>
<!-- Node26&#45;&gt;Node7 -->
<g id="edge41" class="edge">
<title>Node26&#45;&gt;Node7</title>
<path fill="none" stroke="midnightblue" d="M676.5,-663.26C659.91,-686.19 630.64,-727.56 608,-764.5 590.54,-792.99 597.84,-809.31 572,-830.5 564.31,-836.8 554.97,-841.46 545.47,-844.89"/>
<polygon fill="midnightblue" stroke="midnightblue" points="679.35,-665.3 682.39,-655.15 673.68,-661.18 679.35,-665.3"/>
</g>
<!-- Node26&#45;&gt;Node8 -->
<g id="edge49" class="edge">
<title>Node26&#45;&gt;Node8</title>
<path fill="none" stroke="midnightblue" d="M669.51,-661.45C647.03,-678.63 608.84,-705.65 572,-721.5 530.54,-739.34 408.29,-765.89 340.01,-779.95"/>
<polygon fill="midnightblue" stroke="midnightblue" points="671.84,-664.07 677.59,-655.17 667.54,-658.54 671.84,-664.07"/>
</g>
<!-- Node26&#45;&gt;Node11 -->
<g id="edge42" class="edge">
<title>Node26&#45;&gt;Node11</title>
<path fill="none" stroke="midnightblue" d="M675.15,-663C657.38,-685.38 627.13,-725.87 608,-764.5 585.36,-810.22 601.9,-832.16 572,-873.5 556.79,-894.52 531.53,-911.09 514.11,-920.83"/>
<polygon fill="midnightblue" stroke="midnightblue" points="677.97,-665.08 681.51,-655.1 672.52,-660.69 677.97,-665.08"/>
</g>
<!-- Node26&#45;&gt;Node12 -->
<g id="edge50" class="edge">
<title>Node26&#45;&gt;Node12</title>
<path fill="none" stroke="midnightblue" d="M679.8,-664.11C662.48,-695.48 623.2,-758.76 572,-792.5 511.95,-832.08 485.06,-815.43 416,-835.5 399.93,-840.17 396.19,-842.28 380,-846.5 367.06,-849.87 352.94,-853.13 339.9,-855.96"/>
<polygon fill="midnightblue" stroke="midnightblue" points="682.98,-665.59 684.64,-655.12 676.82,-662.27 682.98,-665.59"/>
</g>
<!-- Node26&#45;&gt;Node18 -->
<g id="edge51" class="edge">
<title>Node26&#45;&gt;Node18</title>
<path fill="none" stroke="midnightblue" d="M675.55,-663.09C655.3,-687.44 615.42,-731.16 572,-755.5 532.77,-777.49 411.14,-804.04 341.95,-817.95"/>
<polygon fill="midnightblue" stroke="midnightblue" points="678.48,-665.03 682.09,-655.07 673.06,-660.6 678.48,-665.03"/>
</g>
<!-- Node26&#45;&gt;Node23 -->
<g id="edge45" class="edge">
<title>Node26&#45;&gt;Node23</title>
<path fill="none" stroke="midnightblue" d="M677.51,-627.03C653.47,-590.56 599.35,-511.26 572,-493.5 512.15,-454.64 463.46,-508.79 416,-455.5 329.61,-358.52 448.82,-275.65 380,-165.5 365.69,-142.59 338.39,-127.04 318.08,-118.04"/>
<polygon fill="midnightblue" stroke="midnightblue" points="674.78,-629.26 683.19,-635.71 680.64,-625.43 674.78,-629.26"/>
</g>
<!-- Node27 -->
<g id="node27" class="node">
<title>Node27</title>
<g id="a_node27"><a xlink:href="classAsserv.html#a0ac23995bdebb69bb49304850c951886" target="_top" xlink:title=" ">
<polygon fill="white" stroke="black" points="443.5,-617 443.5,-636 544.5,-636 544.5,-617 443.5,-617"/>
<text text-anchor="middle" x="494" y="-624" font-family="Helvetica,sans-Serif" font-size="10.00">Asserv::doCalage</text>
</a>
</g>
</g>
<!-- Node26&#45;&gt;Node27 -->
<g id="edge38" class="edge">
<title>Node26&#45;&gt;Node27</title>
<path fill="none" stroke="midnightblue" d="M597.71,-636.53C579.37,-634.74 560.77,-632.92 544.52,-631.34"/>
<polygon fill="midnightblue" stroke="midnightblue" points="597.57,-640.04 607.86,-637.52 598.25,-633.07 597.57,-640.04"/>
</g>
<!-- Node28 -->
<g id="node28" class="node">
<title>Node28</title>
<g id="a_node28"><a xlink:href="classAsserv.html#acc891ab26e32320b4f2fac646de93632" target="_top" xlink:title=" ">
<polygon fill="white" stroke="black" points="440.5,-579 440.5,-598 547.5,-598 547.5,-579 440.5,-579"/>
<text text-anchor="middle" x="494" y="-586" font-family="Helvetica,sans-Serif" font-size="10.00">Asserv::doCalage2</text>
</a>
</g>
</g>
<!-- Node26&#45;&gt;Node28 -->
<g id="edge39" class="edge">
<title>Node26&#45;&gt;Node28</title>
<path fill="none" stroke="midnightblue" d="M651.96,-632.61C628.99,-624.91 598.94,-615.17 572,-607.5 560.35,-604.18 547.61,-600.9 535.9,-598.02"/>
<polygon fill="midnightblue" stroke="midnightblue" points="651.06,-636 661.66,-635.88 653.3,-629.37 651.06,-636"/>
</g>
<!-- Node29 -->
<g id="node29" class="node">
<title>Node29</title>
<g id="a_node29"><a xlink:href="classAsserv.html#aa105905ebc1940adb7c483a14c9ce8fc" target="_top" xlink:title=" ">
<polygon fill="white" stroke="black" points="433,-541 433,-560 555,-560 555,-541 433,-541"/>
<text text-anchor="middle" x="494" y="-548" font-family="Helvetica,sans-Serif" font-size="10.00">Asserv::doCalageNew</text>
</a>
</g>
</g>
<!-- Node26&#45;&gt;Node29 -->
<g id="edge40" class="edge">
<title>Node26&#45;&gt;Node29</title>
<path fill="none" stroke="midnightblue" d="M669.5,-629.57C647.01,-612.41 608.81,-585.41 572,-569.5 563.28,-565.73 553.67,-562.61 544.27,-560.07"/>
<polygon fill="midnightblue" stroke="midnightblue" points="667.53,-632.48 677.58,-635.84 671.82,-626.95 667.53,-632.48"/>
</g>
<!-- Node30 -->
<g id="node30" class="node">
<title>Node30</title>
<g id="a_node30"><a xlink:href="classAsserv.html#a3468d8efb89878c2235dc491c6e7a541" target="_top" xlink:title=" ">
<polygon fill="white" stroke="black" points="430,-503 430,-522 558,-522 558,-503 430,-503"/>
<text text-anchor="middle" x="494" y="-510" font-family="Helvetica,sans-Serif" font-size="10.00">Asserv::doRunPivotLeft</text>
</a>
</g>
</g>
<!-- Node26&#45;&gt;Node30 -->
<g id="edge43" class="edge">
<title>Node26&#45;&gt;Node30</title>
<path fill="none" stroke="midnightblue" d="M676.35,-627.8C656.57,-602.48 616.7,-556.27 572,-531.5 565.02,-527.63 557.24,-524.54 549.4,-522.07"/>
<polygon fill="midnightblue" stroke="midnightblue" points="673.62,-630 682.48,-635.81 679.18,-625.74 673.62,-630"/>
</g>
<!-- Node31 -->
<g id="node31" class="node">
<title>Node31</title>
<g id="a_node31"><a xlink:href="classAsserv.html#a79a9b2ee1d39046119673dc81733bdab" target="_top" xlink:title=" ">
<polygon fill="white" stroke="black" points="426,-693 426,-712 562,-712 562,-693 426,-693"/>
<text text-anchor="middle" x="494" y="-700" font-family="Helvetica,sans-Serif" font-size="10.00">Asserv::doRunPivotRight</text>
</a>
</g>
</g>
<!-- Node26&#45;&gt;Node31 -->
<g id="edge44" class="edge">
<title>Node26&#45;&gt;Node31</title>
<path fill="none" stroke="midnightblue" d="M651.96,-658.39C628.99,-666.09 598.94,-675.83 572,-683.5 560.35,-686.82 547.61,-690.1 535.9,-692.98"/>
<polygon fill="midnightblue" stroke="midnightblue" points="653.3,-661.63 661.66,-655.12 651.06,-655 653.3,-661.63"/>
</g>
<!-- Node32 -->
<g id="node32" class="node">
<title>Node32</title>
<g id="a_node32"><a xlink:href="classO__State__Init.html#a1980cd82dcb83e88d61f2e7e14dddfa0" target="_top" xlink:title=" ">
<polygon fill="white" stroke="black" points="437,-377 437,-396 551,-396 551,-377 437,-377"/>
<text text-anchor="middle" x="494" y="-384" font-family="Helvetica,sans-Serif" font-size="10.00">O_State_Init::setPos</text>
</a>
</g>
</g>
<!-- Node26&#45;&gt;Node32 -->
<g id="edge46" class="edge">
<title>Node26&#45;&gt;Node32</title>
<path fill="none" stroke="midnightblue" d="M685.73,-626.18C675.8,-580.57 644.5,-465.61 572,-406.5 565.9,-401.53 558.7,-397.77 551.19,-394.95"/>
<polygon fill="midnightblue" stroke="midnightblue" points="682.31,-626.9 687.76,-635.98 689.16,-625.47 682.31,-626.9"/>
</g>
<!-- Node34 -->
<g id="node34" class="node">
<title>Node34</title>
<g id="a_node34"><a xlink:href="classRobot.html#a7c2c32badf138c2a26b82068447c3c98" target="_top" xlink:title="Fonctions de motion intelligente en plusieurs essais.">
<polygon fill="white" stroke="black" points="438.5,-655 438.5,-674 549.5,-674 549.5,-655 438.5,-655"/>
<text text-anchor="middle" x="494" y="-662" font-family="Helvetica,sans-Serif" font-size="10.00">Robot::whileDoLine</text>
</a>
</g>
</g>
<!-- Node26&#45;&gt;Node34 -->
<g id="edge48" class="edge">
<title>Node26&#45;&gt;Node34</title>
<path fill="none" stroke="midnightblue" d="M597.67,-654.47C581.23,-656.08 564.58,-657.7 549.62,-659.16"/>
<polygon fill="midnightblue" stroke="midnightblue" points="598.25,-657.93 607.86,-653.48 597.57,-650.96 598.25,-657.93"/>
</g>
<!-- Node33 -->
<g id="node33" class="node">
<title>Node33</title>
<g id="a_node33"><a xlink:href="classO__State__Init.html#abc19788b7457d1f819245dd28367fe91" target="_top" xlink:title="Exécute l&#39;état d&#39;initialisation.">
<polygon fill="white" stroke="black" points="231.5,-377 231.5,-396 351.5,-396 351.5,-377 231.5,-377"/>
<text text-anchor="middle" x="291.5" y="-384" font-family="Helvetica,sans-Serif" font-size="10.00">O_State_Init::execute</text>
</a>
</g>
</g>
<!-- Node32&#45;&gt;Node33 -->
<g id="edge47" class="edge">
<title>Node32&#45;&gt;Node33</title>
<path fill="none" stroke="midnightblue" d="M426.71,-386.5C402.51,-386.5 375.31,-386.5 351.75,-386.5"/>
<polygon fill="midnightblue" stroke="midnightblue" points="426.88,-390 436.88,-386.5 426.88,-383 426.88,-390"/>
</g>
<!-- Node36 -->
<g id="node36" class="node">
<title>Node36</title>
<g id="a_node36"><a xlink:href="classAsserv.html#ae8c86b1f9cfe795e8c9aad3e7e4ea40c" target="_top" xlink:title=" ">
<polygon fill="white" stroke="black" points="419,-49.5 419,-79.5 569,-79.5 569,-49.5 419,-49.5"/>
<text text-anchor="start" x="427" y="-67.5" font-family="Helvetica,sans-Serif" font-size="10.00">Asserv::warnBackDetection</text>
<text text-anchor="middle" x="494" y="-56.5" font-family="Helvetica,sans-Serif" font-size="10.00">OnTraj</text>
</a>
</g>
</g>
<!-- Node35&#45;&gt;Node36 -->
<g id="edge53" class="edge">
<title>Node35&#45;&gt;Node36</title>
<path fill="none" stroke="midnightblue" d="M607.32,-77.21C594.71,-75.78 581.74,-74.31 569.31,-72.9"/>
<polygon fill="midnightblue" stroke="midnightblue" points="607.02,-80.69 617.35,-78.34 607.81,-73.74 607.02,-80.69"/>
</g>
<!-- Node35&#45;&gt;Node37 -->
<g id="edge55" class="edge">
<title>Node35&#45;&gt;Node37</title>
<path fill="none" stroke="midnightblue" d="M639.74,-74.1C629.08,-70.83 618.01,-66.94 608,-62.5 590.86,-54.9 589.03,-48.34 572,-40.5 564.08,-36.86 555.49,-33.51 547,-30.54"/>
<polygon fill="midnightblue" stroke="midnightblue" points="638.79,-77.47 649.37,-76.94 640.77,-70.76 638.79,-77.47"/>
</g>
<!-- Node36&#45;&gt;Node23 -->
<g id="edge54" class="edge">
<title>Node36&#45;&gt;Node23</title>
<path fill="none" stroke="midnightblue" d="M414.79,-81.66C387.95,-87.55 358.9,-93.93 335.85,-98.99"/>
<polygon fill="midnightblue" stroke="midnightblue" points="415.54,-85.08 424.56,-79.52 414.04,-78.24 415.54,-85.08"/>
</g>
<!-- Node37&#45;&gt;Node23 -->
<g id="edge56" class="edge">
<title>Node37&#45;&gt;Node23</title>
<path fill="none" stroke="midnightblue" d="M432.48,-33.94C426.86,-36.01 421.29,-38.21 416,-40.5 375.35,-58.1 330.44,-84.81 307.62,-98.94"/>
<polygon fill="midnightblue" stroke="midnightblue" points="433.71,-37.21 441.96,-30.56 431.37,-30.62 433.71,-37.21"/>
</g>
<!-- Node38&#45;&gt;Node3 -->
<g id="edge58" class="edge">
<title>Node38&#45;&gt;Node3</title>
<path fill="none" stroke="midnightblue" d="M650.24,-380.22C618.82,-390.39 574.69,-404.69 541.51,-415.43"/>
<polygon fill="midnightblue" stroke="midnightblue" points="651.52,-383.48 659.96,-377.07 649.37,-376.82 651.52,-383.48"/>
</g>
<!-- Node38&#45;&gt;Node4 -->
<g id="edge59" class="edge">
<title>Node38&#45;&gt;Node4</title>
<path fill="none" stroke="midnightblue" d="M650.24,-354.78C618.82,-344.61 574.69,-330.31 541.51,-319.57"/>
<polygon fill="midnightblue" stroke="midnightblue" points="649.37,-358.18 659.96,-357.93 651.52,-351.52 649.37,-358.18"/>
</g>
<!-- Node38&#45;&gt;Node24 -->
<g id="edge61" class="edge">
<title>Node38&#45;&gt;Node24</title>
<path fill="none" stroke="midnightblue" d="M603.61,-362.22C535.78,-356.84 447.48,-346.77 416,-329.5 355.41,-296.27 311.44,-220.65 297.33,-194.01"/>
<polygon fill="midnightblue" stroke="midnightblue" points="603.65,-365.74 613.89,-363.02 604.19,-358.76 603.65,-365.74"/>
</g>
<!-- Node38&#45;&gt;Node32 -->
<g id="edge62" class="edge">
<title>Node38&#45;&gt;Node32</title>
<path fill="none" stroke="midnightblue" d="M603.41,-375.91C585.74,-377.64 567.57,-379.41 551.27,-381"/>
<polygon fill="midnightblue" stroke="midnightblue" points="604.13,-379.36 613.74,-374.9 603.45,-372.39 604.13,-379.36"/>
</g>
<!-- Node39 -->
<g id="node39" class="node">
<title>Node39</title>
<g id="a_node39"><a xlink:href="classO__IAByPathTest.html#a3f57f585ff1382a52bf7f79a28d43629" target="_top" xlink:title=" ">
<polygon fill="white" stroke="black" points="437,-251 437,-270 551,-270 551,-251 437,-251"/>
<text text-anchor="middle" x="494" y="-258" font-family="Helvetica,sans-Serif" font-size="10.00">O_IAByPathTest::run</text>
</a>
</g>
</g>
<!-- Node38&#45;&gt;Node39 -->
<g id="edge60" class="edge">
<title>Node38&#45;&gt;Node39</title>
<path fill="none" stroke="midnightblue" d="M671.91,-351.03C650.09,-331.46 610.99,-299.13 572,-280.5 563.15,-276.27 553.29,-272.85 543.65,-270.11"/>
<polygon fill="midnightblue" stroke="midnightblue" points="669.64,-353.69 679.39,-357.85 674.35,-348.52 669.64,-353.69"/>
</g>
<!-- Node40&#45;&gt;Node24 -->
<g id="edge66" class="edge">
<title>Node40&#45;&gt;Node24</title>
<path fill="none" stroke="midnightblue" d="M610.34,-245.35C530.5,-230.06 409.7,-206.94 342.35,-194.04"/>
<polygon fill="midnightblue" stroke="midnightblue" points="609.87,-248.82 620.35,-247.26 611.18,-241.94 609.87,-248.82"/>
</g>
<!-- Node40&#45;&gt;Node32 -->
<g id="edge67" class="edge">
<title>Node40&#45;&gt;Node32</title>
<path fill="none" stroke="midnightblue" d="M657.42,-281.28C614.71,-308.95 540.92,-356.75 509.67,-377"/>
<polygon fill="midnightblue" stroke="midnightblue" points="659.55,-284.07 666.04,-275.7 655.74,-278.2 659.55,-284.07"/>
</g>
<!-- Node40&#45;&gt;Node39 -->
<g id="edge64" class="edge">
<title>Node40&#45;&gt;Node39</title>
<path fill="none" stroke="midnightblue" d="M610.14,-260.5C590.33,-260.5 569.51,-260.5 551.09,-260.5"/>
<polygon fill="midnightblue" stroke="midnightblue" points="610.38,-264 620.38,-260.5 610.38,-257 610.38,-264"/>
</g>
<!-- Node41 -->
<g id="node41" class="node">
<title>Node41</title>
<g id="a_node41"><a xlink:href="classO__LedBarTest.html#af9e0e172d13b334cda0fe32bb659b414" target="_top" xlink:title=" ">
<polygon fill="white" stroke="black" points="442,-175 442,-194 546,-194 546,-175 442,-175"/>
<text text-anchor="middle" x="494" y="-182" font-family="Helvetica,sans-Serif" font-size="10.00">O_LedBarTest::run</text>
</a>
</g>
</g>
<!-- Node40&#45;&gt;Node41 -->
<g id="edge65" class="edge">
<title>Node40&#45;&gt;Node41</title>
<path fill="none" stroke="midnightblue" d="M648.79,-241.1C626.39,-230.78 597.95,-218.25 572,-208.5 557.97,-203.23 542.22,-198.17 528.64,-194.07"/>
<polygon fill="midnightblue" stroke="midnightblue" points="647.45,-244.34 657.99,-245.38 650.39,-237.99 647.45,-244.34"/>
</g>
</g>
</svg>
