<?xml version="1.0" encoding="UTF-8" standalone="no"?>
<!DOCTYPE svg PUBLIC "-//W3C//DTD SVG 1.1//EN"
 "http://www.w3.org/Graphics/SVG/1.1/DTD/svg11.dtd">
<!-- Generated by graphviz version 2.43.0 (0)
 -->
<!-- Title: CommandManagerA::resetEmergencyStop Pages: 1 -->
<svg width="562pt" height="176pt"
 viewBox="0.00 0.00 562.00 175.50" xmlns="http://www.w3.org/2000/svg" xmlns:xlink="http://www.w3.org/1999/xlink">
<g id="graph0" class="graph" transform="scale(1 1) rotate(0) translate(4 171.5)">
<title>CommandManagerA::resetEmergencyStop</title>
<polygon fill="white" stroke="transparent" points="-4,4 -4,-171.5 558,-171.5 558,4 -4,4"/>
<!-- Node1 -->
<g id="node1" class="node">
<title>Node1</title>
<g id="a_node1"><a xlink:title=" ">
<polygon fill="#bfbfbf" stroke="black" points="0,-79 0,-98 224,-98 224,-79 0,-79"/>
<text text-anchor="middle" x="112" y="-86" font-family="Helvetica,sans-Serif" font-size="10.00">CommandManagerA::resetEmergencyStop</text>
</a>
</g>
</g>
<!-- Node2 -->
<g id="node2" class="node">
<title>Node2</title>
<g id="a_node2"><a xlink:href="classCMDList.html#a630537657f6af92dfdd3ca4c93949f95" target="_top" xlink:title=" ">
<polygon fill="white" stroke="black" points="267,-148 267,-167 372,-167 372,-148 267,-148"/>
<text text-anchor="middle" x="319.5" y="-155" font-family="Helvetica,sans-Serif" font-size="10.00">CMDList::dequeue</text>
</a>
</g>
</g>
<!-- Node1&#45;&gt;Node2 -->
<g id="edge1" class="edge">
<title>Node1&#45;&gt;Node2</title>
<path fill="none" stroke="midnightblue" d="M140.6,-98.01C170.11,-108.16 218.3,-124.64 260,-138.5 266.12,-140.53 272.6,-142.67 278.94,-144.73"/>
<polygon fill="midnightblue" stroke="midnightblue" points="278.12,-148.15 288.71,-147.91 280.29,-141.49 278.12,-148.15"/>
</g>
<!-- Node3 -->
<g id="node3" class="node">
<title>Node3</title>
<g id="a_node3"><a xlink:href="classConsignController.html#a3b0ccaf93a6e1e0f150d67c3571f0331" target="_top" xlink:title=" ">
<polygon fill="white" stroke="black" points="263,-98.5 263,-128.5 376,-128.5 376,-98.5 263,-98.5"/>
<text text-anchor="start" x="271" y="-116.5" font-family="Helvetica,sans-Serif" font-size="10.00">ConsignController::</text>
<text text-anchor="middle" x="319.5" y="-105.5" font-family="Helvetica,sans-Serif" font-size="10.00">reset_blocked_ticks</text>
</a>
</g>
</g>
<!-- Node1&#45;&gt;Node3 -->
<g id="edge2" class="edge">
<title>Node1&#45;&gt;Node3</title>
<path fill="none" stroke="midnightblue" d="M191.28,-98.02C211.56,-100.49 233.2,-103.12 252.76,-105.5"/>
<polygon fill="midnightblue" stroke="midnightblue" points="252.44,-108.99 262.79,-106.72 253.29,-102.04 252.44,-108.99"/>
</g>
<!-- Node4 -->
<g id="node4" class="node">
<title>Node4</title>
<g id="a_node4"><a xlink:href="classConsignController.html#a09e03093d5270345b110071cd61660ca" target="_top" xlink:title=" ">
<polygon fill="white" stroke="black" points="260,-49.5 260,-79.5 379,-79.5 379,-49.5 260,-49.5"/>
<text text-anchor="start" x="268" y="-67.5" font-family="Helvetica,sans-Serif" font-size="10.00">ConsignController::</text>
<text text-anchor="middle" x="319.5" y="-56.5" font-family="Helvetica,sans-Serif" font-size="10.00">setQuadRamp_Angle</text>
</a>
</g>
</g>
<!-- Node1&#45;&gt;Node4 -->
<g id="edge3" class="edge">
<title>Node1&#45;&gt;Node4</title>
<path fill="none" stroke="midnightblue" d="M194.51,-78.98C212.78,-76.85 231.98,-74.6 249.67,-72.54"/>
<polygon fill="midnightblue" stroke="midnightblue" points="250.37,-75.98 259.9,-71.34 249.56,-69.03 250.37,-75.98"/>
</g>
<!-- Node6 -->
<g id="node6" class="node">
<title>Node6</title>
<g id="a_node6"><a xlink:href="classConsignController.html#a3a5321a1a47cdea48f269e28a0eaec98" target="_top" xlink:title=" ">
<polygon fill="white" stroke="black" points="264.5,-0.5 264.5,-30.5 374.5,-30.5 374.5,-0.5 264.5,-0.5"/>
<text text-anchor="start" x="272.5" y="-18.5" font-family="Helvetica,sans-Serif" font-size="10.00">ConsignController::</text>
<text text-anchor="middle" x="319.5" y="-7.5" font-family="Helvetica,sans-Serif" font-size="10.00">setQuadRamp_Dist</text>
</a>
</g>
</g>
<!-- Node1&#45;&gt;Node6 -->
<g id="edge5" class="edge">
<title>Node1&#45;&gt;Node6</title>
<path fill="none" stroke="midnightblue" d="M139.87,-78.96C171.83,-67.6 225.92,-48.39 266.23,-34.07"/>
<polygon fill="midnightblue" stroke="midnightblue" points="267.65,-37.28 275.9,-30.63 265.3,-30.68 267.65,-37.28"/>
</g>
<!-- Node5 -->
<g id="node5" class="node">
<title>Node5</title>
<g id="a_node5"><a xlink:href="classRegulateur.html#a4ebdd9e34bfcb64bb267846675fa6438" target="_top" xlink:title=" ">
<polygon fill="white" stroke="black" points="415,-24.5 415,-54.5 554,-54.5 554,-24.5 415,-24.5"/>
<text text-anchor="start" x="423" y="-42.5" font-family="Helvetica,sans-Serif" font-size="10.00">Regulateur::setfiltreQuad</text>
<text text-anchor="middle" x="484.5" y="-31.5" font-family="Helvetica,sans-Serif" font-size="10.00">RampDeriveeON</text>
</a>
</g>
</g>
<!-- Node4&#45;&gt;Node5 -->
<g id="edge4" class="edge">
<title>Node4&#45;&gt;Node5</title>
<path fill="none" stroke="midnightblue" d="M379.35,-55.47C387.61,-54.21 396.2,-52.89 404.76,-51.58"/>
<polygon fill="midnightblue" stroke="midnightblue" points="405.4,-55.02 414.76,-50.04 404.34,-48.1 405.4,-55.02"/>
</g>
<!-- Node6&#45;&gt;Node5 -->
<g id="edge6" class="edge">
<title>Node6&#45;&gt;Node5</title>
<path fill="none" stroke="midnightblue" d="M374.78,-23.49C384.43,-24.91 394.66,-26.42 404.83,-27.92"/>
<polygon fill="midnightblue" stroke="midnightblue" points="404.56,-31.41 414.96,-29.41 405.58,-24.49 404.56,-31.41"/>
</g>
</g>
</svg>
