<?xml version="1.0" encoding="UTF-8" standalone="no"?>
<!DOCTYPE svg PUBLIC "-//W3C//DTD SVG 1.1//EN"
 "http://www.w3.org/Graphics/SVG/1.1/DTD/svg11.dtd">
<!-- Generated by graphviz version 2.43.0 (0)
 -->
<!-- Title: basic_json::assert_invariant Pages: 1 -->
<svg width="273pt" height="66pt"
 viewBox="0.00 0.00 273.00 66.00" xmlns="http://www.w3.org/2000/svg" xmlns:xlink="http://www.w3.org/1999/xlink">
<g id="graph0" class="graph" transform="scale(1 1) rotate(0) translate(4 62)">
<title>basic_json::assert_invariant</title>
<polygon fill="white" stroke="transparent" points="-4,4 -4,-62 269,-62 269,4 -4,4"/>
<!-- Node1 -->
<g id="node1" class="node">
<title>Node1</title>
<g id="a_node1"><a xlink:title="checks the class invariants">
<polygon fill="#bfbfbf" stroke="black" points="161,-14 161,-44 265,-44 265,-14 161,-14"/>
<text text-anchor="start" x="169" y="-32" font-family="Helvetica,sans-Serif" font-size="10.00">basic_json::assert</text>
<text text-anchor="middle" x="213" y="-21" font-family="Helvetica,sans-Serif" font-size="10.00">_invariant</text>
</a>
</g>
</g>
<!-- Node2 -->
<g id="node2" class="node">
<title>Node2</title>
<g id="a_node2"><a xlink:href="classbasic__json.html#ac62e476c88b91f1f4329bb4901cafc4c" target="_top" xlink:title="copy constructor">
<polygon fill="white" stroke="black" points="0,-38.5 0,-57.5 125,-57.5 125,-38.5 0,-38.5"/>
<text text-anchor="middle" x="62.5" y="-45.5" font-family="Helvetica,sans-Serif" font-size="10.00">basic_json::basic_json</text>
</a>
</g>
</g>
<!-- Node1&#45;&gt;Node2 -->
<g id="edge1" class="edge">
<title>Node1&#45;&gt;Node2</title>
<path fill="none" stroke="midnightblue" d="M150.75,-36.84C142.32,-37.92 133.65,-39.02 125.21,-40.1"/>
<polygon fill="midnightblue" stroke="midnightblue" points="151.42,-40.28 160.89,-35.54 150.53,-33.34 151.42,-40.28"/>
</g>
<!-- Node3 -->
<g id="node3" class="node">
<title>Node3</title>
<g id="a_node3"><a xlink:href="classbasic__json.html#a2f311bb80f44e9091797ab3dda3d776f" target="_top" xlink:title="copy assignment">
<polygon fill="white" stroke="black" points="1,-0.5 1,-19.5 124,-19.5 124,-0.5 1,-0.5"/>
<text text-anchor="middle" x="62.5" y="-7.5" font-family="Helvetica,sans-Serif" font-size="10.00">basic_json::operator=</text>
</a>
</g>
</g>
<!-- Node1&#45;&gt;Node3 -->
<g id="edge2" class="edge">
<title>Node1&#45;&gt;Node3</title>
<path fill="none" stroke="midnightblue" d="M150.74,-21.16C141.96,-20.04 132.93,-18.88 124.17,-17.76"/>
<polygon fill="midnightblue" stroke="midnightblue" points="150.53,-24.66 160.89,-22.46 151.42,-17.72 150.53,-24.66"/>
</g>
</g>
</svg>
