<?xml version="1.0" encoding="UTF-8" standalone="no"?>
<!DOCTYPE svg PUBLIC "-//W3C//DTD SVG 1.1//EN"
 "http://www.w3.org/Graphics/SVG/1.1/DTD/svg11.dtd">
<!-- Generated by graphviz version 2.43.0 (0)
 -->
<!-- Title: utils::Chronometer::start Pages: 1 -->
<svg width="999pt" height="1022pt"
 viewBox="0.00 0.00 999.00 1021.50" xmlns="http://www.w3.org/2000/svg" xmlns:xlink="http://www.w3.org/1999/xlink">
<g id="graph0" class="graph" transform="scale(1 1) rotate(0) translate(4 1017.5)">
<title>utils::Chronometer::start</title>
<polygon fill="white" stroke="transparent" points="-4,4 -4,-1017.5 995,-1017.5 995,4 -4,4"/>
<!-- Node1 -->
<g id="node1" class="node">
<title>Node1</title>
<g id="a_node1"><a xlink:title="Lance ou réinitialise le chronomètre.">
<polygon fill="#bfbfbf" stroke="black" points="884,-485.5 884,-515.5 991,-515.5 991,-485.5 884,-485.5"/>
<text text-anchor="start" x="892" y="-503.5" font-family="Helvetica,sans-Serif" font-size="10.00">utils::Chronometer</text>
<text text-anchor="middle" x="937.5" y="-492.5" font-family="Helvetica,sans-Serif" font-size="10.00">::start</text>
</a>
</g>
</g>
<!-- Node2 -->
<g id="node2" class="node">
<title>Node2</title>
<g id="a_node2"><a xlink:href="classAsservDriver.html#af7ab066576413089d8e0977cc6d62864" target="_top" xlink:title="Constructor.">
<polygon fill="white" stroke="black" points="699,-994 699,-1013 848,-1013 848,-994 699,-994"/>
<text text-anchor="middle" x="773.5" y="-1001" font-family="Helvetica,sans-Serif" font-size="10.00">AsservDriver::AsservDriver</text>
</a>
</g>
</g>
<!-- Node1&#45;&gt;Node2 -->
<g id="edge1" class="edge">
<title>Node1&#45;&gt;Node2</title>
<path fill="none" stroke="midnightblue" d="M935.36,-526.11C930.82,-616.2 911.12,-916.66 848,-984.5 844.41,-988.36 840.15,-991.48 835.51,-993.99"/>
<polygon fill="midnightblue" stroke="midnightblue" points="938.86,-526.13 935.85,-515.97 931.87,-525.79 938.86,-526.13"/>
</g>
<!-- Node3 -->
<g id="node3" class="node">
<title>Node3</title>
<g id="a_node3"><a xlink:href="classMockAction.html#a28a65ce4424e999f22b2c8787da71e40" target="_top" xlink:title=" ">
<polygon fill="white" stroke="black" points="705,-956 705,-975 842,-975 842,-956 705,-956"/>
<text text-anchor="middle" x="773.5" y="-963" font-family="Helvetica,sans-Serif" font-size="10.00">MockAction::MockAction</text>
</a>
</g>
</g>
<!-- Node1&#45;&gt;Node3 -->
<g id="edge2" class="edge">
<title>Node1&#45;&gt;Node3</title>
<path fill="none" stroke="midnightblue" d="M934.95,-525.75C929.2,-610.76 906.42,-884.65 848,-946.5 844.38,-950.33 840.1,-953.43 835.45,-955.93"/>
<polygon fill="midnightblue" stroke="midnightblue" points="938.44,-525.9 935.6,-515.7 931.46,-525.45 938.44,-525.9"/>
</g>
<!-- Node4 -->
<g id="node4" class="node">
<title>Node4</title>
<g id="a_node4"><a xlink:href="classRobotPositionShared.html#a6cc784d63e5426bb773c2e90b5878713" target="_top" xlink:title="Constructeur.">
<polygon fill="white" stroke="black" points="711.5,-906.5 711.5,-936.5 835.5,-936.5 835.5,-906.5 711.5,-906.5"/>
<text text-anchor="start" x="719.5" y="-924.5" font-family="Helvetica,sans-Serif" font-size="10.00">RobotPositionShared</text>
<text text-anchor="middle" x="773.5" y="-913.5" font-family="Helvetica,sans-Serif" font-size="10.00">::RobotPositionShared</text>
</a>
</g>
</g>
<!-- Node1&#45;&gt;Node4 -->
<g id="edge3" class="edge">
<title>Node1&#45;&gt;Node4</title>
<path fill="none" stroke="midnightblue" d="M934.04,-526.04C925.98,-604.61 898,-840.78 848,-896.5 844.49,-900.41 840.34,-903.71 835.83,-906.5"/>
<polygon fill="midnightblue" stroke="midnightblue" points="937.57,-525.93 935.08,-515.63 930.6,-525.23 937.57,-525.93"/>
</g>
<!-- Node5 -->
<g id="node5" class="node">
<title>Node5</title>
<g id="a_node5"><a xlink:href="classTestAction.html#a313c6975b35eb2ec170f843caa32bc6f" target="_top" xlink:title="Constructeur de la classe.">
<polygon fill="white" stroke="black" points="712,-868 712,-887 835,-887 835,-868 712,-868"/>
<text text-anchor="middle" x="773.5" y="-875" font-family="Helvetica,sans-Serif" font-size="10.00">TestAction::TestAction</text>
</a>
</g>
</g>
<!-- Node1&#45;&gt;Node5 -->
<g id="edge4" class="edge">
<title>Node1&#45;&gt;Node5</title>
<path fill="none" stroke="midnightblue" d="M933.62,-525.67C924.74,-599.05 895.44,-810.56 848,-858.5 844.2,-862.34 839.73,-865.44 834.91,-867.93"/>
<polygon fill="midnightblue" stroke="midnightblue" points="937.13,-525.85 934.83,-515.51 930.17,-525.02 937.13,-525.85"/>
</g>
<!-- Node6 -->
<g id="node6" class="node">
<title>Node6</title>
<g id="a_node6"><a xlink:href="classActionManagerTimer.html#a8eb81df877c40053d71f659265882058" target="_top" xlink:title="Execute l&#39;ensemble des actions enregistrees.">
<polygon fill="white" stroke="black" points="528,-891.5 528,-921.5 647,-921.5 647,-891.5 528,-891.5"/>
<text text-anchor="start" x="536" y="-909.5" font-family="Helvetica,sans-Serif" font-size="10.00">ActionManagerTimer</text>
<text text-anchor="middle" x="587.5" y="-898.5" font-family="Helvetica,sans-Serif" font-size="10.00">::execute</text>
</a>
</g>
</g>
<!-- Node1&#45;&gt;Node6 -->
<g id="edge5" class="edge">
<title>Node1&#45;&gt;Node6</title>
<path fill="none" stroke="midnightblue" d="M935.86,-525.93C933.09,-579.34 918.93,-703.75 848,-770.5 798.15,-817.41 752.04,-766.23 699,-809.5 670.97,-832.37 690.38,-858.86 663,-882.5 658.27,-886.58 652.83,-889.98 647.1,-892.79"/>
<polygon fill="midnightblue" stroke="midnightblue" points="939.37,-525.8 936.29,-515.66 932.38,-525.5 939.37,-525.8"/>
</g>
<!-- Node7 -->
<g id="node7" class="node">
<title>Node7</title>
<g id="a_node7"><a xlink:href="classO__State__WaitEndOfMatch.html#aa73613440b37c8dd42181e2e0265ae86" target="_top" xlink:title="Exécute l&#39;état d&#39;attente de fin de match.">
<polygon fill="white" stroke="black" points="703,-730.5 703,-760.5 844,-760.5 844,-730.5 703,-730.5"/>
<text text-anchor="start" x="711" y="-748.5" font-family="Helvetica,sans-Serif" font-size="10.00">O_State_WaitEndOfMatch</text>
<text text-anchor="middle" x="773.5" y="-737.5" font-family="Helvetica,sans-Serif" font-size="10.00">::execute</text>
</a>
</g>
</g>
<!-- Node1&#45;&gt;Node7 -->
<g id="edge6" class="edge">
<title>Node1&#45;&gt;Node7</title>
<path fill="none" stroke="midnightblue" d="M933.4,-525.73C926.47,-571.31 905.54,-667.6 848,-721.5 844.38,-724.9 840.26,-727.81 835.88,-730.31"/>
<polygon fill="midnightblue" stroke="midnightblue" points="936.9,-525.94 934.84,-515.55 929.97,-524.96 936.9,-525.94"/>
</g>
<!-- Node8 -->
<g id="node8" class="node">
<title>Node8</title>
<g id="a_node8"><a xlink:href="classAsservDriverWrapper.html#a4d3b337fd6beed104ba60b69213344cc" target="_top" xlink:title=" ">
<polygon fill="white" stroke="black" points="713,-681.5 713,-711.5 834,-711.5 834,-681.5 713,-681.5"/>
<text text-anchor="start" x="721" y="-699.5" font-family="Helvetica,sans-Serif" font-size="10.00">AsservDriverWrapper</text>
<text text-anchor="middle" x="773.5" y="-688.5" font-family="Helvetica,sans-Serif" font-size="10.00">::member1left</text>
</a>
</g>
</g>
<!-- Node1&#45;&gt;Node8 -->
<g id="edge7" class="edge">
<title>Node1&#45;&gt;Node8</title>
<path fill="none" stroke="midnightblue" d="M930.18,-525.63C919.51,-562.98 894.42,-632.96 848,-672.5 843.81,-676.07 839.08,-679.11 834.08,-681.7"/>
<polygon fill="midnightblue" stroke="midnightblue" points="933.66,-526.16 932.92,-515.59 926.91,-524.31 933.66,-526.16"/>
</g>
<!-- Node10 -->
<g id="node10" class="node">
<title>Node10</title>
<g id="a_node10"><a xlink:href="classAsservDriverWrapper.html#af356c1725a4b8dac9994dd0d94e12069" target="_top" xlink:title=" ">
<polygon fill="white" stroke="black" points="713,-632.5 713,-662.5 834,-662.5 834,-632.5 713,-632.5"/>
<text text-anchor="start" x="721" y="-650.5" font-family="Helvetica,sans-Serif" font-size="10.00">AsservDriverWrapper</text>
<text text-anchor="middle" x="773.5" y="-639.5" font-family="Helvetica,sans-Serif" font-size="10.00">::member2right</text>
</a>
</g>
</g>
<!-- Node1&#45;&gt;Node10 -->
<g id="edge9" class="edge">
<title>Node1&#45;&gt;Node10</title>
<path fill="none" stroke="midnightblue" d="M925.01,-524.78C910.7,-552.5 883.71,-597.39 848,-623.5 843.34,-626.91 838.17,-629.85 832.8,-632.38"/>
<polygon fill="midnightblue" stroke="midnightblue" points="928.18,-526.25 929.54,-515.75 921.93,-523.12 928.18,-526.25"/>
</g>
<!-- Node12 -->
<g id="node12" class="node">
<title>Node12</title>
<g id="a_node12"><a xlink:href="classServoObjectsSystem.html#a60de17986f65700a7659b22edda2faef" target="_top" xlink:title="move 1 servo.">
<polygon fill="white" stroke="black" points="714.5,-583.5 714.5,-613.5 832.5,-613.5 832.5,-583.5 714.5,-583.5"/>
<text text-anchor="start" x="722.5" y="-601.5" font-family="Helvetica,sans-Serif" font-size="10.00">ServoObjectsSystem</text>
<text text-anchor="middle" x="773.5" y="-590.5" font-family="Helvetica,sans-Serif" font-size="10.00">::move_1_servo</text>
</a>
</g>
</g>
<!-- Node1&#45;&gt;Node12 -->
<g id="edge11" class="edge">
<title>Node1&#45;&gt;Node12</title>
<path fill="none" stroke="midnightblue" d="M914.97,-522.59C898.06,-538.87 873.22,-560.53 848,-574.5 842.01,-577.82 835.49,-580.77 828.89,-583.36"/>
<polygon fill="midnightblue" stroke="midnightblue" points="917.47,-525.04 922.16,-515.53 912.57,-520.04 917.47,-525.04"/>
</g>
<!-- Node26 -->
<g id="node26" class="node">
<title>Node26</title>
<g id="a_node26"><a xlink:href="classServoObjectsSystem.html#a209d4e6a24c8cd26c76168c08e330655" target="_top" xlink:title="move 2 servos.">
<polygon fill="white" stroke="black" points="714.5,-534.5 714.5,-564.5 832.5,-564.5 832.5,-534.5 714.5,-534.5"/>
<text text-anchor="start" x="722.5" y="-552.5" font-family="Helvetica,sans-Serif" font-size="10.00">ServoObjectsSystem</text>
<text text-anchor="middle" x="773.5" y="-541.5" font-family="Helvetica,sans-Serif" font-size="10.00">::move_2_servos</text>
</a>
</g>
</g>
<!-- Node1&#45;&gt;Node26 -->
<g id="edge36" class="edge">
<title>Node1&#45;&gt;Node26</title>
<path fill="none" stroke="midnightblue" d="M876.62,-518.61C859.39,-523.82 840.8,-529.45 824.26,-534.45"/>
<polygon fill="midnightblue" stroke="midnightblue" points="878.01,-521.85 886.57,-515.6 875.99,-515.15 878.01,-521.85"/>
</g>
<!-- Node27 -->
<g id="node27" class="node">
<title>Node27</title>
<g id="a_node27"><a xlink:href="classServoObjectsSystem.html#a8d96f5f8ccdfb9ca69a73e523f388191" target="_top" xlink:title="Déplace 3 servos simultanément.">
<polygon fill="white" stroke="black" points="714.5,-485.5 714.5,-515.5 832.5,-515.5 832.5,-485.5 714.5,-485.5"/>
<text text-anchor="start" x="722.5" y="-503.5" font-family="Helvetica,sans-Serif" font-size="10.00">ServoObjectsSystem</text>
<text text-anchor="middle" x="773.5" y="-492.5" font-family="Helvetica,sans-Serif" font-size="10.00">::move_3_servos</text>
</a>
</g>
</g>
<!-- Node1&#45;&gt;Node27 -->
<g id="edge40" class="edge">
<title>Node1&#45;&gt;Node27</title>
<path fill="none" stroke="midnightblue" d="M873.75,-500.5C860.25,-500.5 846.03,-500.5 832.72,-500.5"/>
<polygon fill="midnightblue" stroke="midnightblue" points="873.9,-504 883.9,-500.5 873.9,-497 873.9,-504"/>
</g>
<!-- Node28 -->
<g id="node28" class="node">
<title>Node28</title>
<g id="a_node28"><a xlink:href="classServoObjectsSystem.html#a885ad7b498315c66de65dae7149b3ea1" target="_top" xlink:title="Déplace 4 servos simultanément.">
<polygon fill="white" stroke="black" points="714.5,-436.5 714.5,-466.5 832.5,-466.5 832.5,-436.5 714.5,-436.5"/>
<text text-anchor="start" x="722.5" y="-454.5" font-family="Helvetica,sans-Serif" font-size="10.00">ServoObjectsSystem</text>
<text text-anchor="middle" x="773.5" y="-443.5" font-family="Helvetica,sans-Serif" font-size="10.00">::move_4_servos</text>
</a>
</g>
</g>
<!-- Node1&#45;&gt;Node28 -->
<g id="edge41" class="edge">
<title>Node1&#45;&gt;Node28</title>
<path fill="none" stroke="midnightblue" d="M876.62,-482.39C859.39,-477.18 840.8,-471.55 824.26,-466.55"/>
<polygon fill="midnightblue" stroke="midnightblue" points="875.99,-485.85 886.57,-485.4 878.01,-479.15 875.99,-485.85"/>
</g>
<!-- Node29 -->
<g id="node29" class="node">
<title>Node29</title>
<g id="a_node29"><a xlink:href="classO__IAByPathTest.html#a3f57f585ff1382a52bf7f79a28d43629" target="_top" xlink:title=" ">
<polygon fill="white" stroke="black" points="716.5,-398 716.5,-417 830.5,-417 830.5,-398 716.5,-398"/>
<text text-anchor="middle" x="773.5" y="-405" font-family="Helvetica,sans-Serif" font-size="10.00">O_IAByPathTest::run</text>
</a>
</g>
</g>
<!-- Node1&#45;&gt;Node29 -->
<g id="edge42" class="edge">
<title>Node1&#45;&gt;Node29</title>
<path fill="none" stroke="midnightblue" d="M915.11,-478.36C898.27,-462.12 873.46,-440.68 848,-427.5 839.78,-423.24 830.56,-419.82 821.5,-417.09"/>
<polygon fill="midnightblue" stroke="midnightblue" points="912.68,-480.88 922.26,-485.41 917.6,-475.9 912.68,-480.88"/>
</g>
<!-- Node30 -->
<g id="node30" class="node">
<title>Node30</title>
<g id="a_node30"><a xlink:href="classO__LedBarTest.html#af9e0e172d13b334cda0fe32bb659b414" target="_top" xlink:title=" ">
<polygon fill="white" stroke="black" points="721.5,-360 721.5,-379 825.5,-379 825.5,-360 721.5,-360"/>
<text text-anchor="middle" x="773.5" y="-367" font-family="Helvetica,sans-Serif" font-size="10.00">O_LedBarTest::run</text>
</a>
</g>
</g>
<!-- Node1&#45;&gt;Node30 -->
<g id="edge43" class="edge">
<title>Node1&#45;&gt;Node30</title>
<path fill="none" stroke="midnightblue" d="M923.83,-476.46C909.04,-450.78 882.21,-410.79 848,-388.5 841.26,-384.11 833.57,-380.73 825.74,-378.14"/>
<polygon fill="midnightblue" stroke="midnightblue" points="920.78,-478.19 928.72,-485.21 926.89,-474.77 920.78,-478.19"/>
</g>
<!-- Node31 -->
<g id="node31" class="node">
<title>Node31</title>
<g id="a_node31"><a xlink:href="classO__SensorsTest.html#ae3b998034225e16586ded4ba3bd419e5" target="_top" xlink:title="Execute le test.">
<polygon fill="white" stroke="black" points="719,-322 719,-341 828,-341 828,-322 719,-322"/>
<text text-anchor="middle" x="773.5" y="-329" font-family="Helvetica,sans-Serif" font-size="10.00">O_SensorsTest::run</text>
</a>
</g>
</g>
<!-- Node1&#45;&gt;Node31 -->
<g id="edge44" class="edge">
<title>Node1&#45;&gt;Node31</title>
<path fill="none" stroke="midnightblue" d="M928.58,-475.5C916.61,-441.89 890.69,-382.64 848,-350.5 842.1,-346.06 835.27,-342.65 828.19,-340.04"/>
<polygon fill="midnightblue" stroke="midnightblue" points="925.29,-476.72 931.84,-485.05 931.92,-474.45 925.29,-476.72"/>
</g>
<!-- Node32 -->
<g id="node32" class="node">
<title>Node32</title>
<g id="a_node32"><a xlink:href="classTimerPosix.html#ab15271c50cd9cc4306fc8a454df1e36f" target="_top" xlink:title=" ">
<polygon fill="white" stroke="black" points="723.5,-284 723.5,-303 823.5,-303 823.5,-284 723.5,-284"/>
<text text-anchor="middle" x="773.5" y="-291" font-family="Helvetica,sans-Serif" font-size="10.00">TimerPosix::start</text>
</a>
</g>
</g>
<!-- Node1&#45;&gt;Node32 -->
<g id="edge45" class="edge">
<title>Node1&#45;&gt;Node32</title>
<path fill="none" stroke="midnightblue" d="M931.84,-475.55C922.95,-435.06 899.64,-355.28 848,-312.5 841,-306.7 832.43,-302.64 823.65,-299.82"/>
<polygon fill="midnightblue" stroke="midnightblue" points="928.43,-476.33 933.89,-485.41 935.28,-474.9 928.43,-476.33"/>
</g>
<!-- Node33 -->
<g id="node33" class="node">
<title>Node33</title>
<g id="a_node33"><a xlink:href="classtest_1_1TimerPosixStandaloneBench.html#a71eaba7b9c9cf2dc0384bced04b641f4" target="_top" xlink:title=" ">
<polygon fill="white" stroke="black" points="512,-253.5 512,-283.5 663,-283.5 663,-253.5 512,-253.5"/>
<text text-anchor="start" x="520" y="-271.5" font-family="Helvetica,sans-Serif" font-size="10.00">test::TimerPosixStandalone</text>
<text text-anchor="middle" x="587.5" y="-260.5" font-family="Helvetica,sans-Serif" font-size="10.00">Bench::test</text>
</a>
</g>
</g>
<!-- Node1&#45;&gt;Node33 -->
<g id="edge49" class="edge">
<title>Node1&#45;&gt;Node33</title>
<path fill="none" stroke="midnightblue" d="M935.19,-474.97C931.18,-426.36 914.79,-321.22 848,-274.5 788.08,-232.59 699.88,-241.4 643.31,-253.46"/>
<polygon fill="midnightblue" stroke="midnightblue" points="931.72,-475.52 935.93,-485.25 938.71,-475.02 931.72,-475.52"/>
</g>
<!-- Node34 -->
<g id="node34" class="node">
<title>Node34</title>
<g id="a_node34"><a xlink:href="classITimerPosixListener.html#a89083ecb392fa2f81b4951ba0e2ba824" target="_top" xlink:title=" ">
<polygon fill="white" stroke="black" points="717,-818.5 717,-848.5 830,-848.5 830,-818.5 717,-818.5"/>
<text text-anchor="start" x="725" y="-836.5" font-family="Helvetica,sans-Serif" font-size="10.00">ITimerPosixListener</text>
<text text-anchor="middle" x="773.5" y="-825.5" font-family="Helvetica,sans-Serif" font-size="10.00">::startTimer</text>
</a>
</g>
</g>
<!-- Node1&#45;&gt;Node34 -->
<g id="edge47" class="edge">
<title>Node1&#45;&gt;Node34</title>
<path fill="none" stroke="midnightblue" d="M936.19,-525.83C934.15,-582.73 921.45,-722.03 848,-803.5 842.46,-809.64 835.48,-814.55 828.04,-818.47"/>
<polygon fill="midnightblue" stroke="midnightblue" points="939.69,-525.69 936.47,-515.6 932.7,-525.5 939.69,-525.69"/>
</g>
<!-- Node35 -->
<g id="node35" class="node">
<title>Node35</title>
<g id="a_node35"><a xlink:href="classtest_1_1ChronometerTest.html#a23da1b885637b6bcebc73325fca0684a" target="_top" xlink:title="Vérifie la mesure du temps écoulé après un sleep.">
<polygon fill="white" stroke="black" points="711,-147.5 711,-177.5 836,-177.5 836,-147.5 711,-147.5"/>
<text text-anchor="start" x="719" y="-165.5" font-family="Helvetica,sans-Serif" font-size="10.00">test::ChronometerTest</text>
<text text-anchor="middle" x="773.5" y="-154.5" font-family="Helvetica,sans-Serif" font-size="10.00">::testElapsedTime</text>
</a>
</g>
</g>
<!-- Node1&#45;&gt;Node35 -->
<g id="edge50" class="edge">
<title>Node1&#45;&gt;Node35</title>
<path fill="none" stroke="midnightblue" d="M936.92,-475.07C936.48,-416.11 927.04,-268.84 848,-186.5 844.56,-182.92 840.58,-179.87 836.29,-177.27"/>
<polygon fill="midnightblue" stroke="midnightblue" points="933.42,-475.33 936.91,-485.33 940.42,-475.33 933.42,-475.33"/>
</g>
<!-- Node37 -->
<g id="node37" class="node">
<title>Node37</title>
<g id="a_node37"><a xlink:href="classtest_1_1AsservDriverManualTest.html#ae216789e8e059e5c854008e32668db82" target="_top" xlink:title=" ">
<polygon fill="white" stroke="black" points="703.5,-98.5 703.5,-128.5 843.5,-128.5 843.5,-98.5 703.5,-98.5"/>
<text text-anchor="start" x="711.5" y="-116.5" font-family="Helvetica,sans-Serif" font-size="10.00">test::AsservDriverManual</text>
<text text-anchor="middle" x="773.5" y="-105.5" font-family="Helvetica,sans-Serif" font-size="10.00">Test::testSet</text>
</a>
</g>
</g>
<!-- Node1&#45;&gt;Node37 -->
<g id="edge52" class="edge">
<title>Node1&#45;&gt;Node37</title>
<path fill="none" stroke="midnightblue" d="M933.53,-475.12C924.38,-401.11 894.44,-187.63 848,-137.5 844.81,-134.05 841.11,-131.1 837.12,-128.57"/>
<polygon fill="midnightblue" stroke="midnightblue" points="930.09,-475.86 934.77,-485.37 937.04,-475.02 930.09,-475.86"/>
</g>
<!-- Node38 -->
<g id="node38" class="node">
<title>Node38</title>
<g id="a_node38"><a xlink:href="classtest_1_1ThreadTest.html#a313e3f9f588d83d238893bd58923ed21" target="_top" xlink:title="Vérifie la précision de sleep_for_millis.">
<polygon fill="white" stroke="black" points="700.5,-49.5 700.5,-79.5 846.5,-79.5 846.5,-49.5 700.5,-49.5"/>
<text text-anchor="start" x="708.5" y="-67.5" font-family="Helvetica,sans-Serif" font-size="10.00">test::ThreadTest::testSleep</text>
<text text-anchor="middle" x="773.5" y="-56.5" font-family="Helvetica,sans-Serif" font-size="10.00">Functions</text>
</a>
</g>
</g>
<!-- Node1&#45;&gt;Node38 -->
<g id="edge53" class="edge">
<title>Node1&#45;&gt;Node38</title>
<path fill="none" stroke="midnightblue" d="M934.31,-474.96C926.9,-394.23 900.27,-146.51 848,-88.5 844.94,-85.11 841.4,-82.2 837.56,-79.69"/>
<polygon fill="midnightblue" stroke="midnightblue" points="930.85,-475.55 935.23,-485.2 937.82,-474.93 930.85,-475.55"/>
</g>
<!-- Node39 -->
<g id="node39" class="node">
<title>Node39</title>
<g id="a_node39"><a xlink:href="classtest_1_1ThreadTest.html#a1262fce3aca48dc17dab2ee10a7d5999" target="_top" xlink:title="Vérifie la précision de sleep_for_micros.">
<polygon fill="white" stroke="black" points="700.5,-0.5 700.5,-30.5 846.5,-30.5 846.5,-0.5 700.5,-0.5"/>
<text text-anchor="start" x="708.5" y="-18.5" font-family="Helvetica,sans-Serif" font-size="10.00">test::ThreadTest::testSleep</text>
<text text-anchor="middle" x="773.5" y="-7.5" font-family="Helvetica,sans-Serif" font-size="10.00">Micros</text>
</a>
</g>
</g>
<!-- Node1&#45;&gt;Node39 -->
<g id="edge54" class="edge">
<title>Node1&#45;&gt;Node39</title>
<path fill="none" stroke="midnightblue" d="M934.96,-475.13C929.2,-388.41 906.2,-105.54 848,-39.5 844.98,-36.08 841.47,-33.14 837.65,-30.62"/>
<polygon fill="midnightblue" stroke="midnightblue" points="931.48,-475.61 935.62,-485.36 938.47,-475.16 931.48,-475.61"/>
</g>
<!-- Node40 -->
<g id="node40" class="node">
<title>Node40</title>
<g id="a_node40"><a xlink:href="classtest_1_1ChronometerTest.html#a415d1e31bcf8129824fcb03e304021c7" target="_top" xlink:title="Vérifie les transitions start/stop et le flag started().">
<polygon fill="white" stroke="black" points="711,-196.5 711,-226.5 836,-226.5 836,-196.5 711,-196.5"/>
<text text-anchor="start" x="719" y="-214.5" font-family="Helvetica,sans-Serif" font-size="10.00">test::ChronometerTest</text>
<text text-anchor="middle" x="773.5" y="-203.5" font-family="Helvetica,sans-Serif" font-size="10.00">::testStartStop</text>
</a>
</g>
</g>
<!-- Node1&#45;&gt;Node40 -->
<g id="edge55" class="edge">
<title>Node1&#45;&gt;Node40</title>
<path fill="none" stroke="midnightblue" d="M934.7,-475.38C929.77,-424.66 911.79,-309.12 848,-241.5 842.23,-235.38 835.04,-230.48 827.43,-226.56"/>
<polygon fill="midnightblue" stroke="midnightblue" points="931.22,-475.79 935.59,-485.45 938.2,-475.18 931.22,-475.79"/>
</g>
<!-- Node9 -->
<g id="node9" class="node">
<title>Node9</title>
<g id="a_node9"><a xlink:href="classAsservDriverWrapper.html#a6d2ba86845397e2a65e62660f7d94710" target="_top" xlink:title=" ">
<polygon fill="white" stroke="black" points="527,-842.5 527,-872.5 648,-872.5 648,-842.5 527,-842.5"/>
<text text-anchor="start" x="535" y="-860.5" font-family="Helvetica,sans-Serif" font-size="10.00">AsservDriverWrapper</text>
<text text-anchor="middle" x="587.5" y="-849.5" font-family="Helvetica,sans-Serif" font-size="10.00">::memberLeftThread</text>
</a>
</g>
</g>
<!-- Node8&#45;&gt;Node9 -->
<g id="edge8" class="edge">
<title>Node8&#45;&gt;Node9</title>
<path fill="none" stroke="midnightblue" d="M704.28,-716.79C702.42,-718.25 700.65,-719.82 699,-721.5 662.34,-758.78 699.96,-796.52 663,-833.5 658.68,-837.83 653.57,-841.37 648.09,-844.28"/>
<polygon fill="midnightblue" stroke="midnightblue" points="706.56,-719.48 712.96,-711.04 702.69,-713.65 706.56,-719.48"/>
</g>
<!-- Node11 -->
<g id="node11" class="node">
<title>Node11</title>
<g id="a_node11"><a xlink:href="classAsservDriverWrapper.html#af629788681c4e3155c9fc56d6a783d8a" target="_top" xlink:title=" ">
<polygon fill="white" stroke="black" points="526,-793.5 526,-823.5 649,-823.5 649,-793.5 526,-793.5"/>
<text text-anchor="start" x="534" y="-811.5" font-family="Helvetica,sans-Serif" font-size="10.00">AsservDriverWrapper</text>
<text text-anchor="middle" x="587.5" y="-800.5" font-family="Helvetica,sans-Serif" font-size="10.00">::memberRightThread</text>
</a>
</g>
</g>
<!-- Node10&#45;&gt;Node11 -->
<g id="edge10" class="edge">
<title>Node10&#45;&gt;Node11</title>
<path fill="none" stroke="midnightblue" d="M704.18,-667.93C702.36,-669.35 700.63,-670.87 699,-672.5 663.83,-707.69 697.19,-742.36 663,-778.5 657.25,-784.58 650.1,-789.45 642.53,-793.36"/>
<polygon fill="midnightblue" stroke="midnightblue" points="706.27,-670.75 712.68,-662.31 702.41,-664.91 706.27,-670.75"/>
</g>
<!-- Node13 -->
<g id="node13" class="node">
<title>Node13</title>
<g id="a_node13"><a xlink:href="classOPOS6UL__ActionsExtended.html#a946560d21bc7c1a12be600b16e07c93a" target="_top" xlink:title="Déploie le bras droit en position d&#39;action.">
<polygon fill="white" stroke="black" points="513,-558.5 513,-588.5 662,-588.5 662,-558.5 513,-558.5"/>
<text text-anchor="start" x="521" y="-576.5" font-family="Helvetica,sans-Serif" font-size="10.00">OPOS6UL_ActionsExtended</text>
<text text-anchor="middle" x="587.5" y="-565.5" font-family="Helvetica,sans-Serif" font-size="10.00">::ax12_bras_droit</text>
</a>
</g>
</g>
<!-- Node12&#45;&gt;Node13 -->
<g id="edge12" class="edge">
<title>Node12&#45;&gt;Node13</title>
<path fill="none" stroke="midnightblue" d="M704.02,-589.2C690.39,-587.34 676.01,-585.39 662.21,-583.52"/>
<polygon fill="midnightblue" stroke="midnightblue" points="703.9,-592.71 714.28,-590.59 704.84,-585.78 703.9,-592.71"/>
</g>
<!-- Node18 -->
<g id="node18" class="node">
<title>Node18</title>
<g id="a_node18"><a xlink:href="classOPOS6UL__ActionsExtended.html#a67daef275b861004d118273c7e2564c2" target="_top" xlink:title="Place le bras droit en position initiale (replié).">
<polygon fill="white" stroke="black" points="513,-509.5 513,-539.5 662,-539.5 662,-509.5 513,-509.5"/>
<text text-anchor="start" x="521" y="-527.5" font-family="Helvetica,sans-Serif" font-size="10.00">OPOS6UL_ActionsExtended</text>
<text text-anchor="middle" x="587.5" y="-516.5" font-family="Helvetica,sans-Serif" font-size="10.00">::ax12_bras_droit_init</text>
</a>
</g>
</g>
<!-- Node12&#45;&gt;Node18 -->
<g id="edge19" class="edge">
<title>Node12&#45;&gt;Node18</title>
<path fill="none" stroke="midnightblue" d="M710.58,-579.75C706.61,-578.1 702.72,-576.35 699,-574.5 681.56,-565.83 680.41,-558.24 663,-549.5 655.68,-545.83 647.71,-542.5 639.78,-539.56"/>
<polygon fill="midnightblue" stroke="midnightblue" points="709.36,-583.03 719.95,-583.42 711.92,-576.52 709.36,-583.03"/>
</g>
<!-- Node19 -->
<g id="node19" class="node">
<title>Node19</title>
<g id="a_node19"><a xlink:href="classOPOS6UL__ActionsExtended.html#a5b32b355b6907dda48874f40dc9101eb" target="_top" xlink:title="Déploie le bras gauche en position d&#39;action.">
<polygon fill="white" stroke="black" points="513,-705.5 513,-735.5 662,-735.5 662,-705.5 513,-705.5"/>
<text text-anchor="start" x="521" y="-723.5" font-family="Helvetica,sans-Serif" font-size="10.00">OPOS6UL_ActionsExtended</text>
<text text-anchor="middle" x="587.5" y="-712.5" font-family="Helvetica,sans-Serif" font-size="10.00">::ax12_bras_gauche</text>
</a>
</g>
</g>
<!-- Node12&#45;&gt;Node19 -->
<g id="edge22" class="edge">
<title>Node12&#45;&gt;Node19</title>
<path fill="none" stroke="midnightblue" d="M705.34,-618.61C703.12,-620.12 700.99,-621.75 699,-623.5 671.81,-647.36 690.38,-672.86 663,-696.5 658.99,-699.96 654.47,-702.93 649.69,-705.47"/>
<polygon fill="midnightblue" stroke="midnightblue" points="707.48,-621.4 714.31,-613.3 703.92,-615.38 707.48,-621.4"/>
</g>
<!-- Node20 -->
<g id="node20" class="node">
<title>Node20</title>
<g id="a_node20"><a xlink:href="classOPOS6UL__ActionsExtended.html#ad3b7d5a26040d5780cc43a5a9ead9ad3" target="_top" xlink:title="Place le bras gauche en position initiale (replié).">
<polygon fill="white" stroke="black" points="513,-656.5 513,-686.5 662,-686.5 662,-656.5 513,-656.5"/>
<text text-anchor="start" x="521" y="-674.5" font-family="Helvetica,sans-Serif" font-size="10.00">OPOS6UL_ActionsExtended</text>
<text text-anchor="middle" x="587.5" y="-663.5" font-family="Helvetica,sans-Serif" font-size="10.00">::ax12_bras_gauche_init</text>
</a>
</g>
</g>
<!-- Node12&#45;&gt;Node20 -->
<g id="edge25" class="edge">
<title>Node12&#45;&gt;Node20</title>
<path fill="none" stroke="midnightblue" d="M712.68,-617.37C707.99,-619.29 703.38,-621.34 699,-623.5 681.75,-632 680.32,-639.14 663,-647.5 656.27,-650.75 648.99,-653.71 641.71,-656.36"/>
<polygon fill="midnightblue" stroke="midnightblue" points="714.32,-620.48 722.37,-613.59 711.78,-613.96 714.32,-620.48"/>
</g>
<!-- Node21 -->
<g id="node21" class="node">
<title>Node21</title>
<g id="a_node21"><a xlink:href="classOPOS6UL__ActionsExtended.html#a44856498aa3839098211785a1fe0b6a3" target="_top" xlink:title="Déploie la banderole (action de fin de match).">
<polygon fill="white" stroke="black" points="327,-749.5 327,-779.5 476,-779.5 476,-749.5 327,-749.5"/>
<text text-anchor="start" x="335" y="-767.5" font-family="Helvetica,sans-Serif" font-size="10.00">OPOS6UL_ActionsExtended</text>
<text text-anchor="middle" x="401.5" y="-756.5" font-family="Helvetica,sans-Serif" font-size="10.00">::ax12_GO_banderole</text>
</a>
</g>
</g>
<!-- Node12&#45;&gt;Node21 -->
<g id="edge28" class="edge">
<title>Node12&#45;&gt;Node21</title>
<path fill="none" stroke="midnightblue" d="M705.69,-617.61C703.3,-619.4 701.06,-621.36 699,-623.5 659.85,-664.28 707.02,-710.03 663,-745.5 610.39,-787.9 530.78,-787.38 473.41,-779.54"/>
<polygon fill="midnightblue" stroke="midnightblue" points="707.73,-620.46 714.29,-612.14 703.98,-614.55 707.73,-620.46"/>
</g>
<!-- Node22 -->
<g id="node22" class="node">
<title>Node22</title>
<g id="a_node22"><a xlink:href="classOPOS6UL__ActionsExtended.html#ae63e06f334f5095383387aa9ff68c8a3" target="_top" xlink:title="Initialise le servo de la banderole à la position repliée.">
<polygon fill="white" stroke="black" points="513,-607.5 513,-637.5 662,-637.5 662,-607.5 513,-607.5"/>
<text text-anchor="start" x="521" y="-625.5" font-family="Helvetica,sans-Serif" font-size="10.00">OPOS6UL_ActionsExtended</text>
<text text-anchor="middle" x="587.5" y="-614.5" font-family="Helvetica,sans-Serif" font-size="10.00">::ax12_init_banderole</text>
</a>
</g>
</g>
<!-- Node12&#45;&gt;Node22 -->
<g id="edge30" class="edge">
<title>Node12&#45;&gt;Node22</title>
<path fill="none" stroke="midnightblue" d="M704.02,-607.43C690.39,-609.21 676.01,-611.09 662.21,-612.89"/>
<polygon fill="midnightblue" stroke="midnightblue" points="704.82,-610.86 714.28,-606.09 703.91,-603.92 704.82,-610.86"/>
</g>
<!-- Node23 -->
<g id="node23" class="node">
<title>Node23</title>
<g id="a_node23"><a xlink:href="classOPOS6UL__ActionsExtended.html#a565acda2ce4cdd1be8263835465d0fdc" target="_top" xlink:title="Initialise le bras gauche (épaule, coude, poignet) à la position de repos.">
<polygon fill="white" stroke="black" points="513,-460.5 513,-490.5 662,-490.5 662,-460.5 513,-460.5"/>
<text text-anchor="start" x="521" y="-478.5" font-family="Helvetica,sans-Serif" font-size="10.00">OPOS6UL_ActionsExtended</text>
<text text-anchor="middle" x="587.5" y="-467.5" font-family="Helvetica,sans-Serif" font-size="10.00">::ax12_init_L</text>
</a>
</g>
</g>
<!-- Node12&#45;&gt;Node23 -->
<g id="edge33" class="edge">
<title>Node12&#45;&gt;Node23</title>
<path fill="none" stroke="midnightblue" d="M705.33,-579.34C703.11,-577.85 700.99,-576.24 699,-574.5 671.43,-550.47 690.48,-524.64 663,-500.5 658.59,-496.63 653.56,-493.35 648.25,-490.58"/>
<polygon fill="midnightblue" stroke="midnightblue" points="703.89,-582.55 714.3,-584.55 707.41,-576.5 703.89,-582.55"/>
</g>
<!-- Node24 -->
<g id="node24" class="node">
<title>Node24</title>
<g id="a_node24"><a xlink:href="classOPOS6UL__ActionsExtended.html#a50a3db095faaaf15ec9630d9abcfb5d4" target="_top" xlink:title="Initialise les deux bras (gauche et droit) à la position de repos.">
<polygon fill="white" stroke="black" points="513,-411.5 513,-441.5 662,-441.5 662,-411.5 513,-411.5"/>
<text text-anchor="start" x="521" y="-429.5" font-family="Helvetica,sans-Serif" font-size="10.00">OPOS6UL_ActionsExtended</text>
<text text-anchor="middle" x="587.5" y="-418.5" font-family="Helvetica,sans-Serif" font-size="10.00">::ax12_init_LR</text>
</a>
</g>
</g>
<!-- Node12&#45;&gt;Node24 -->
<g id="edge34" class="edge">
<title>Node12&#45;&gt;Node24</title>
<path fill="none" stroke="midnightblue" d="M705.7,-580.32C703.31,-578.56 701.06,-576.62 699,-574.5 659.35,-533.61 702.48,-492.56 663,-451.5 659.31,-447.66 655.02,-444.42 650.39,-441.67"/>
<polygon fill="midnightblue" stroke="midnightblue" points="703.97,-583.37 714.3,-585.69 707.67,-577.43 703.97,-583.37"/>
</g>
<!-- Node25 -->
<g id="node25" class="node">
<title>Node25</title>
<g id="a_node25"><a xlink:href="classOPOS6UL__ActionsExtended.html#a298422faffadf81c4350cd47464d3f0a" target="_top" xlink:title="Initialise le bras droit (épaule, coude, poignet) à la position de repos.">
<polygon fill="white" stroke="black" points="513,-362.5 513,-392.5 662,-392.5 662,-362.5 513,-362.5"/>
<text text-anchor="start" x="521" y="-380.5" font-family="Helvetica,sans-Serif" font-size="10.00">OPOS6UL_ActionsExtended</text>
<text text-anchor="middle" x="587.5" y="-369.5" font-family="Helvetica,sans-Serif" font-size="10.00">::ax12_init_R</text>
</a>
</g>
</g>
<!-- Node12&#45;&gt;Node25 -->
<g id="edge35" class="edge">
<title>Node12&#45;&gt;Node25</title>
<path fill="none" stroke="midnightblue" d="M705.63,-580.64C703.25,-578.79 701.02,-576.75 699,-574.5 646.87,-516.34 714.89,-460.87 663,-402.5 659.56,-398.63 655.49,-395.35 651.07,-392.58"/>
<polygon fill="midnightblue" stroke="midnightblue" points="704,-583.75 714.3,-586.22 707.79,-577.86 704,-583.75"/>
</g>
<!-- Node14 -->
<g id="node14" class="node">
<title>Node14</title>
<g id="a_node14"><a xlink:href="classOPOS6UL__ActionsExtended.html#af04e19802d90a78d82e67b10061521a2" target="_top" xlink:title="Initialise tous les servomoteurs AX12 à leur position de départ.">
<polygon fill="white" stroke="black" points="327,-547.5 327,-577.5 476,-577.5 476,-547.5 327,-547.5"/>
<text text-anchor="start" x="335" y="-565.5" font-family="Helvetica,sans-Serif" font-size="10.00">OPOS6UL_ActionsExtended</text>
<text text-anchor="middle" x="401.5" y="-554.5" font-family="Helvetica,sans-Serif" font-size="10.00">::ax12_init</text>
</a>
</g>
</g>
<!-- Node13&#45;&gt;Node14 -->
<g id="edge13" class="edge">
<title>Node13&#45;&gt;Node14</title>
<path fill="none" stroke="midnightblue" d="M502.97,-568.51C494.04,-567.97 485,-567.43 476.2,-566.91"/>
<polygon fill="midnightblue" stroke="midnightblue" points="502.79,-572 512.99,-569.11 503.21,-565.01 502.79,-572"/>
</g>
<!-- Node16 -->
<g id="node16" class="node">
<title>Node16</title>
<g id="a_node16"><a xlink:href="classO__ServoObjectsTest.html#aabfa9ba518070128940062ed11028ca7" target="_top" xlink:title="Execute le test.">
<polygon fill="white" stroke="black" points="156,-635 156,-654 291,-654 291,-635 156,-635"/>
<text text-anchor="middle" x="223.5" y="-642" font-family="Helvetica,sans-Serif" font-size="10.00">O_ServoObjectsTest::run</text>
</a>
</g>
</g>
<!-- Node13&#45;&gt;Node16 -->
<g id="edge18" class="edge">
<title>Node13&#45;&gt;Node16</title>
<path fill="none" stroke="midnightblue" d="M502.95,-589.89C431.68,-603.87 331.69,-623.48 272.94,-635"/>
<polygon fill="midnightblue" stroke="midnightblue" points="503.67,-593.31 512.81,-587.95 502.32,-586.44 503.67,-593.31"/>
</g>
<!-- Node15 -->
<g id="node15" class="node">
<title>Node15</title>
<g id="a_node15"><a xlink:href="classO__State__Init.html#abc19788b7457d1f819245dd28367fe91" target="_top" xlink:title="Exécute l&#39;état d&#39;initialisation.">
<polygon fill="white" stroke="black" points="0,-553 0,-572 120,-572 120,-553 0,-553"/>
<text text-anchor="middle" x="60" y="-560" font-family="Helvetica,sans-Serif" font-size="10.00">O_State_Init::execute</text>
</a>
</g>
</g>
<!-- Node14&#45;&gt;Node15 -->
<g id="edge14" class="edge">
<title>Node14&#45;&gt;Node15</title>
<path fill="none" stroke="midnightblue" d="M316.46,-562.5C255.45,-562.5 174.42,-562.5 120.13,-562.5"/>
<polygon fill="midnightblue" stroke="midnightblue" points="316.83,-566 326.83,-562.5 316.83,-559 316.83,-566"/>
</g>
<!-- Node14&#45;&gt;Node16 -->
<g id="edge15" class="edge">
<title>Node14&#45;&gt;Node16</title>
<path fill="none" stroke="midnightblue" d="M352.28,-581.52C343.81,-585.05 335.11,-588.8 327,-592.5 296.87,-606.26 262.72,-624.04 242.43,-634.84"/>
<polygon fill="midnightblue" stroke="midnightblue" points="353.8,-584.68 361.72,-577.64 351.14,-578.21 353.8,-584.68"/>
</g>
<!-- Node17 -->
<g id="node17" class="node">
<title>Node17</title>
<g id="a_node17"><a xlink:href="classO__State__Init.html#a1980cd82dcb83e88d61f2e7e14dddfa0" target="_top" xlink:title=" ">
<polygon fill="white" stroke="black" points="166.5,-572 166.5,-591 280.5,-591 280.5,-572 166.5,-572"/>
<text text-anchor="middle" x="223.5" y="-579" font-family="Helvetica,sans-Serif" font-size="10.00">O_State_Init::setPos</text>
</a>
</g>
</g>
<!-- Node14&#45;&gt;Node17 -->
<g id="edge16" class="edge">
<title>Node14&#45;&gt;Node17</title>
<path fill="none" stroke="midnightblue" d="M316.68,-571.55C304.47,-572.87 292.16,-574.2 280.69,-575.43"/>
<polygon fill="midnightblue" stroke="midnightblue" points="317.31,-575 326.88,-570.45 316.56,-568.04 317.31,-575"/>
</g>
<!-- Node17&#45;&gt;Node15 -->
<g id="edge17" class="edge">
<title>Node17&#45;&gt;Node15</title>
<path fill="none" stroke="midnightblue" d="M156.51,-573.74C144.5,-572.32 132.03,-570.86 120.23,-569.47"/>
<polygon fill="midnightblue" stroke="midnightblue" points="156.13,-577.22 166.47,-574.91 156.95,-570.26 156.13,-577.22"/>
</g>
<!-- Node18&#45;&gt;Node14 -->
<g id="edge20" class="edge">
<title>Node18&#45;&gt;Node14</title>
<path fill="none" stroke="midnightblue" d="M503.9,-541.56C494.37,-543.53 484.69,-545.53 475.3,-547.47"/>
<polygon fill="midnightblue" stroke="midnightblue" points="504.69,-544.97 513.78,-539.52 503.28,-538.11 504.69,-544.97"/>
</g>
<!-- Node18&#45;&gt;Node16 -->
<g id="edge21" class="edge">
<title>Node18&#45;&gt;Node16</title>
<path fill="none" stroke="midnightblue" d="M502.54,-509.64C448.56,-504.54 379.06,-506.63 327,-538.5 299.82,-555.14 312.86,-577.32 291,-600.5 277.32,-615 257.99,-627.11 243.69,-634.93"/>
<polygon fill="midnightblue" stroke="midnightblue" points="502.46,-513.16 512.77,-510.72 503.19,-506.19 502.46,-513.16"/>
</g>
<!-- Node19&#45;&gt;Node14 -->
<g id="edge23" class="edge">
<title>Node19&#45;&gt;Node14</title>
<path fill="none" stroke="midnightblue" d="M519.42,-701.04C516.85,-699.63 514.37,-698.12 512,-696.5 464.6,-664.16 426.97,-605.49 410.93,-577.78"/>
<polygon fill="midnightblue" stroke="midnightblue" points="517.88,-704.19 528.39,-705.49 520.98,-697.91 517.88,-704.19"/>
</g>
<!-- Node19&#45;&gt;Node16 -->
<g id="edge24" class="edge">
<title>Node19&#45;&gt;Node16</title>
<path fill="none" stroke="midnightblue" d="M502.96,-706.28C451.94,-697.21 385.49,-684.71 327,-671.5 304.02,-666.31 278.4,-659.56 258.52,-654.11"/>
<polygon fill="midnightblue" stroke="midnightblue" points="502.49,-709.75 512.95,-708.05 503.71,-702.86 502.49,-709.75"/>
</g>
<!-- Node20&#45;&gt;Node14 -->
<g id="edge26" class="edge">
<title>Node20&#45;&gt;Node14</title>
<path fill="none" stroke="midnightblue" d="M522.34,-652.46C518.79,-650.91 515.32,-649.25 512,-647.5 475.4,-628.17 438.55,-596.44 418.31,-577.71"/>
<polygon fill="midnightblue" stroke="midnightblue" points="521.29,-655.82 531.88,-656.35 523.94,-649.34 521.29,-655.82"/>
</g>
<!-- Node20&#45;&gt;Node16 -->
<g id="edge27" class="edge">
<title>Node20&#45;&gt;Node16</title>
<path fill="none" stroke="midnightblue" d="M502.69,-665.25C438.33,-660.45 350.68,-653.91 291.08,-649.47"/>
<polygon fill="midnightblue" stroke="midnightblue" points="502.57,-668.75 512.81,-666 503.1,-661.77 502.57,-668.75"/>
</g>
<!-- Node21&#45;&gt;Node16 -->
<g id="edge29" class="edge">
<title>Node21&#45;&gt;Node16</title>
<path fill="none" stroke="midnightblue" d="M347.11,-745.19C340.16,-741.96 333.29,-738.39 327,-734.5 288.33,-710.58 250.01,-671.91 233.27,-654.08"/>
<polygon fill="midnightblue" stroke="midnightblue" points="346.01,-748.53 356.57,-749.36 348.83,-742.12 346.01,-748.53"/>
</g>
<!-- Node22&#45;&gt;Node14 -->
<g id="edge31" class="edge">
<title>Node22&#45;&gt;Node14</title>
<path fill="none" stroke="midnightblue" d="M530.06,-604.36C523.96,-602.39 517.85,-600.4 512,-598.5 490.97,-591.66 467.7,-584.01 448.03,-577.54"/>
<polygon fill="midnightblue" stroke="midnightblue" points="529,-607.69 539.59,-607.44 531.15,-601.03 529,-607.69"/>
</g>
<!-- Node22&#45;&gt;Node16 -->
<g id="edge32" class="edge">
<title>Node22&#45;&gt;Node16</title>
<path fill="none" stroke="midnightblue" d="M502.69,-627.59C438.33,-631.5 350.68,-636.83 291.08,-640.45"/>
<polygon fill="midnightblue" stroke="midnightblue" points="503.04,-631.08 512.81,-626.98 502.61,-624.09 503.04,-631.08"/>
</g>
<!-- Node26&#45;&gt;Node23 -->
<g id="edge37" class="edge">
<title>Node26&#45;&gt;Node23</title>
<path fill="none" stroke="midnightblue" d="M710.58,-530.75C706.61,-529.1 702.72,-527.35 699,-525.5 681.56,-516.83 680.41,-509.24 663,-500.5 655.68,-496.83 647.71,-493.5 639.78,-490.56"/>
<polygon fill="midnightblue" stroke="midnightblue" points="709.36,-534.03 719.95,-534.42 711.92,-527.52 709.36,-534.03"/>
</g>
<!-- Node26&#45;&gt;Node24 -->
<g id="edge38" class="edge">
<title>Node26&#45;&gt;Node24</title>
<path fill="none" stroke="midnightblue" d="M705.33,-530.34C703.11,-528.85 700.99,-527.24 699,-525.5 671.43,-501.47 690.48,-475.64 663,-451.5 658.59,-447.63 653.56,-444.35 648.25,-441.58"/>
<polygon fill="midnightblue" stroke="midnightblue" points="703.89,-533.55 714.3,-535.55 707.41,-527.5 703.89,-533.55"/>
</g>
<!-- Node26&#45;&gt;Node25 -->
<g id="edge39" class="edge">
<title>Node26&#45;&gt;Node25</title>
<path fill="none" stroke="midnightblue" d="M705.7,-531.32C703.31,-529.56 701.06,-527.62 699,-525.5 659.35,-484.61 702.48,-443.56 663,-402.5 659.31,-398.66 655.02,-395.42 650.39,-392.67"/>
<polygon fill="midnightblue" stroke="midnightblue" points="703.97,-534.37 714.3,-536.69 707.67,-528.43 703.97,-534.37"/>
</g>
<!-- Node32&#45;&gt;Node33 -->
<g id="edge46" class="edge">
<title>Node32&#45;&gt;Node33</title>
<path fill="none" stroke="midnightblue" d="M713,-285.42C697.14,-283.26 679.8,-280.9 663.23,-278.65"/>
<polygon fill="midnightblue" stroke="midnightblue" points="712.81,-288.92 723.19,-286.8 713.75,-281.99 712.81,-288.92"/>
</g>
<!-- Node34&#45;&gt;Node6 -->
<g id="edge48" class="edge">
<title>Node34&#45;&gt;Node6</title>
<path fill="none" stroke="midnightblue" d="M712.68,-852.37C707.99,-854.29 703.38,-856.34 699,-858.5 681.75,-867 680.32,-874.14 663,-882.5 656.27,-885.75 648.99,-888.71 641.71,-891.36"/>
<polygon fill="midnightblue" stroke="midnightblue" points="714.32,-855.48 722.37,-848.59 711.78,-848.96 714.32,-855.48"/>
</g>
<!-- Node36 -->
<g id="node36" class="node">
<title>Node36</title>
<g id="a_node36"><a xlink:href="classtest_1_1ChronometerTest.html#a1c7e36190a3c3f415a5547d408883d76" target="_top" xlink:title="Execute les tests associés à la classe.">
<polygon fill="white" stroke="black" points="525,-182.5 525,-212.5 650,-212.5 650,-182.5 525,-182.5"/>
<text text-anchor="start" x="533" y="-200.5" font-family="Helvetica,sans-Serif" font-size="10.00">test::ChronometerTest</text>
<text text-anchor="middle" x="587.5" y="-189.5" font-family="Helvetica,sans-Serif" font-size="10.00">::suite</text>
</a>
</g>
</g>
<!-- Node35&#45;&gt;Node36 -->
<g id="edge51" class="edge">
<title>Node35&#45;&gt;Node36</title>
<path fill="none" stroke="midnightblue" d="M700.74,-176.15C684.07,-179.32 666.47,-182.67 650.28,-185.75"/>
<polygon fill="midnightblue" stroke="midnightblue" points="701.81,-179.51 710.97,-174.2 700.5,-172.63 701.81,-179.51"/>
</g>
<!-- Node40&#45;&gt;Node36 -->
<g id="edge56" class="edge">
<title>Node40&#45;&gt;Node36</title>
<path fill="none" stroke="midnightblue" d="M700.74,-206.04C684.07,-204.77 666.47,-203.43 650.28,-202.2"/>
<polygon fill="midnightblue" stroke="midnightblue" points="700.74,-209.55 710.97,-206.82 701.27,-202.57 700.74,-209.55"/>
</g>
</g>
</svg>
