<?xml version="1.0" encoding="UTF-8" standalone="no"?>
<!DOCTYPE svg PUBLIC "-//W3C//DTD SVG 1.1//EN"
 "http://www.w3.org/Graphics/SVG/1.1/DTD/svg11.dtd">
<!-- Generated by graphviz version 2.43.0 (0)
 -->
<!-- Title: AsservEsialR::startAsserv Pages: 1 -->
<svg width="1040pt" height="348pt"
 viewBox="0.00 0.00 1040.00 347.50" xmlns="http://www.w3.org/2000/svg" xmlns:xlink="http://www.w3.org/1999/xlink">
<g id="graph0" class="graph" transform="scale(1 1) rotate(0) translate(4 343.5)">
<title>AsservEsialR::startAsserv</title>
<polygon fill="white" stroke="transparent" points="-4,4 -4,-343.5 1036,-343.5 1036,4 -4,4"/>
<!-- Node1 -->
<g id="node1" class="node">
<title>Node1</title>
<g id="a_node1"><a xlink:title=" ">
<polygon fill="#bfbfbf" stroke="black" points="0,-232 0,-251 141,-251 141,-232 0,-232"/>
<text text-anchor="middle" x="70.5" y="-239" font-family="Helvetica,sans-Serif" font-size="10.00">AsservEsialR::startAsserv</text>
</a>
</g>
</g>
<!-- Node2 -->
<g id="node2" class="node">
<title>Node2</title>
<g id="a_node2"><a xlink:href="classlogs_1_1Logger.html#a7dffc8f610014ec59b63392da16140e4" target="_top" xlink:title="Trace un message de niveau DEBUG.">
<polygon fill="white" stroke="black" points="370,-320 370,-339 482,-339 482,-320 370,-320"/>
<text text-anchor="middle" x="426" y="-327" font-family="Helvetica,sans-Serif" font-size="10.00">logs::Logger::debug</text>
</a>
</g>
</g>
<!-- Node1&#45;&gt;Node2 -->
<g id="edge1" class="edge">
<title>Node1&#45;&gt;Node2</title>
<path fill="none" stroke="midnightblue" d="M82.21,-251.22C100.23,-266.91 138.46,-297.39 177,-310.5 236.47,-330.73 308.44,-334.1 359.5,-333.24"/>
<polygon fill="midnightblue" stroke="midnightblue" points="359.82,-336.74 369.74,-333.01 359.66,-329.74 359.82,-336.74"/>
</g>
<!-- Node4 -->
<g id="node4" class="node">
<title>Node4</title>
<g id="a_node4"><a xlink:href="namespacelogs.html#ac6f325c6cfe6189bc8e243daa184453b" target="_top" xlink:title="Cette méthode permet de finir les flux de construction par la notation.">
<polygon fill="white" stroke="black" points="395.5,-244 395.5,-263 456.5,-263 456.5,-244 395.5,-244"/>
<text text-anchor="middle" x="426" y="-251" font-family="Helvetica,sans-Serif" font-size="10.00">logs::end</text>
</a>
</g>
</g>
<!-- Node1&#45;&gt;Node4 -->
<g id="edge3" class="edge">
<title>Node1&#45;&gt;Node4</title>
<path fill="none" stroke="midnightblue" d="M141.34,-243.87C214.23,-246.35 325.97,-250.14 385.1,-252.15"/>
<polygon fill="midnightblue" stroke="midnightblue" points="385.05,-255.65 395.17,-252.49 385.29,-248.65 385.05,-255.65"/>
</g>
<!-- Node8 -->
<g id="node8" class="node">
<title>Node8</title>
<g id="a_node8"><a xlink:href="classAsservEsialR.html#a7d6428bb79534a27e2b8b2e1baae943b" target="_top" xlink:title="Retourne le Logger associe a la classe AsservEsialR.">
<polygon fill="white" stroke="black" points="368,-194 368,-213 484,-213 484,-194 368,-194"/>
<text text-anchor="middle" x="426" y="-201" font-family="Helvetica,sans-Serif" font-size="10.00">AsservEsialR::logger</text>
</a>
</g>
</g>
<!-- Node1&#45;&gt;Node8 -->
<g id="edge8" class="edge">
<title>Node1&#45;&gt;Node8</title>
<path fill="none" stroke="midnightblue" d="M141.34,-233.99C204.14,-227.24 295.79,-217.39 357.78,-210.73"/>
<polygon fill="midnightblue" stroke="midnightblue" points="358.27,-214.19 367.84,-209.64 357.53,-207.23 358.27,-214.19"/>
</g>
<!-- Node13 -->
<g id="node13" class="node">
<title>Node13</title>
<g id="a_node13"><a xlink:href="classAsservEsialR.html#a249d968918b3bfecc0467bb476177211" target="_top" xlink:title=" ">
<polygon fill="white" stroke="black" points="177,-270.5 177,-300.5 323,-300.5 323,-270.5 177,-270.5"/>
<text text-anchor="start" x="185" y="-288.5" font-family="Helvetica,sans-Serif" font-size="10.00">AsservEsialR::setSampling</text>
<text text-anchor="middle" x="250" y="-277.5" font-family="Helvetica,sans-Serif" font-size="10.00">Frequency</text>
</a>
</g>
</g>
<!-- Node1&#45;&gt;Node13 -->
<g id="edge13" class="edge">
<title>Node1&#45;&gt;Node13</title>
<path fill="none" stroke="midnightblue" d="M110.01,-251.05C130,-256 155.05,-262.21 178.36,-267.99"/>
<polygon fill="midnightblue" stroke="midnightblue" points="177.68,-271.43 188.22,-270.43 179.36,-264.63 177.68,-271.43"/>
</g>
<!-- Node15 -->
<g id="node15" class="node">
<title>Node15</title>
<g id="a_node15"><a xlink:href="classutils_1_1Thread.html#a430ee2b8962147b587157fac97932219" target="_top" xlink:title="Lance le thread.">
<polygon fill="white" stroke="black" points="197,-50 197,-69 303,-69 303,-50 197,-50"/>
<text text-anchor="middle" x="250" y="-57" font-family="Helvetica,sans-Serif" font-size="10.00">utils::Thread::start</text>
</a>
</g>
</g>
<!-- Node1&#45;&gt;Node15 -->
<g id="edge19" class="edge">
<title>Node1&#45;&gt;Node15</title>
<path fill="none" stroke="midnightblue" d="M81.04,-231.71C109.82,-202.21 195.98,-113.87 232.42,-76.5"/>
<polygon fill="midnightblue" stroke="midnightblue" points="234.93,-78.94 239.41,-69.33 229.92,-74.05 234.93,-78.94"/>
</g>
<!-- Node3 -->
<g id="node3" class="node">
<title>Node3</title>
<g id="a_node3"><a xlink:href="classlogs_1_1Logger.html#afa535aaf4891e02c4ff7f84d372b5b1b" target="_top" xlink:title="Méthode générique de trace d&#39;un message.">
<polygon fill="white" stroke="black" points="733,-320 733,-339 883,-339 883,-320 733,-320"/>
<text text-anchor="middle" x="808" y="-327" font-family="Helvetica,sans-Serif" font-size="10.00">logs::Logger::writeMessage</text>
</a>
</g>
</g>
<!-- Node2&#45;&gt;Node3 -->
<g id="edge2" class="edge">
<title>Node2&#45;&gt;Node3</title>
<path fill="none" stroke="midnightblue" d="M482.26,-329.5C545.36,-329.5 649.33,-329.5 722.6,-329.5"/>
<polygon fill="midnightblue" stroke="midnightblue" points="722.73,-333 732.73,-329.5 722.73,-326 722.73,-333"/>
</g>
<!-- Node5 -->
<g id="node5" class="node">
<title>Node5</title>
<g id="a_node5"><a xlink:href="classlogs_1_1Logger_1_1LoggerBuffer.html#a0e4fd77693fd899ec1b0670354f93a02" target="_top" xlink:title="Cette méthode valide le message en cours de construction et le transmet au Logger de référence.">
<polygon fill="white" stroke="black" points="529,-244 529,-263 697,-263 697,-244 529,-244"/>
<text text-anchor="middle" x="613" y="-251" font-family="Helvetica,sans-Serif" font-size="10.00">logs::Logger::LoggerBuffer::end</text>
</a>
</g>
</g>
<!-- Node4&#45;&gt;Node5 -->
<g id="edge4" class="edge">
<title>Node4&#45;&gt;Node5</title>
<path fill="none" stroke="midnightblue" d="M456.72,-253.5C473.73,-253.5 496.1,-253.5 518.54,-253.5"/>
<polygon fill="midnightblue" stroke="midnightblue" points="518.84,-257 528.84,-253.5 518.84,-250 518.84,-257"/>
</g>
<!-- Node5&#45;&gt;Node3 -->
<g id="edge7" class="edge">
<title>Node5&#45;&gt;Node3</title>
<path fill="none" stroke="midnightblue" d="M673.4,-263.12C681.58,-265.58 689.67,-268.65 697,-272.5 716.22,-282.59 714.25,-294.57 733,-305.5 740.46,-309.85 748.82,-313.53 757.15,-316.59"/>
<polygon fill="midnightblue" stroke="midnightblue" points="756.28,-319.99 766.87,-319.91 758.54,-313.37 756.28,-319.99"/>
</g>
<!-- Node6 -->
<g id="node6" class="node">
<title>Node6</title>
<g id="a_node6"><a xlink:href="classutils_1_1Mutex.html#aa584b418a5ef484f76b93e361a1d7e32" target="_top" xlink:title="Verrouille le mutex. Cette méthode doit être appelée avant d&#39;utiliser la ressource associée....">
<polygon fill="white" stroke="black" points="925,-69 925,-88 1026,-88 1026,-69 925,-69"/>
<text text-anchor="middle" x="975.5" y="-76" font-family="Helvetica,sans-Serif" font-size="10.00">utils::Mutex::lock</text>
</a>
</g>
</g>
<!-- Node5&#45;&gt;Node6 -->
<g id="edge5" class="edge">
<title>Node5&#45;&gt;Node6</title>
<path fill="none" stroke="midnightblue" d="M665.31,-263.01C733.09,-274.42 847.98,-289.45 883,-267.5 943.7,-229.45 965.13,-138.44 971.81,-98.2"/>
<polygon fill="midnightblue" stroke="midnightblue" points="975.27,-98.7 973.32,-88.29 968.35,-97.64 975.27,-98.7"/>
</g>
<!-- Node7 -->
<g id="node7" class="node">
<title>Node7</title>
<g id="a_node7"><a xlink:href="classutils_1_1Mutex.html#a59b2079dc7f803d49f78ac9c04406cd3" target="_top" xlink:title="Déverrouille le mutex. Cette méthode doit être appelée après avoir utiliser la ressource associée.">
<polygon fill="white" stroke="black" points="919,-31 919,-50 1032,-50 1032,-31 919,-31"/>
<text text-anchor="middle" x="975.5" y="-38" font-family="Helvetica,sans-Serif" font-size="10.00">utils::Mutex::unlock</text>
</a>
</g>
</g>
<!-- Node5&#45;&gt;Node7 -->
<g id="edge6" class="edge">
<title>Node5&#45;&gt;Node7</title>
<path fill="none" stroke="midnightblue" d="M697.19,-258.23C765.83,-260.26 856.14,-258.02 883,-234.5 942.74,-182.19 866.53,-119.1 919,-59.5 920.18,-58.16 921.46,-56.91 922.82,-55.76"/>
<polygon fill="midnightblue" stroke="midnightblue" points="924.98,-58.52 931.33,-50.04 921.08,-52.71 924.98,-58.52"/>
</g>
<!-- Node9 -->
<g id="node9" class="node">
<title>Node9</title>
<g id="a_node9"><a xlink:href="classlogs_1_1LoggerFactory.html#a82585b5de73e471e06cafdccc3b3721e" target="_top" xlink:title="Cette méthode statique retourne un Logger en fonction de son nom.">
<polygon fill="white" stroke="black" points="557.5,-172.5 557.5,-202.5 668.5,-202.5 668.5,-172.5 557.5,-172.5"/>
<text text-anchor="start" x="565.5" y="-190.5" font-family="Helvetica,sans-Serif" font-size="10.00">logs::LoggerFactory</text>
<text text-anchor="middle" x="613" y="-179.5" font-family="Helvetica,sans-Serif" font-size="10.00">::logger</text>
</a>
</g>
</g>
<!-- Node8&#45;&gt;Node9 -->
<g id="edge9" class="edge">
<title>Node8&#45;&gt;Node9</title>
<path fill="none" stroke="midnightblue" d="M484.02,-198.57C504,-196.84 526.58,-194.89 547.16,-193.11"/>
<polygon fill="midnightblue" stroke="midnightblue" points="547.73,-196.57 557.39,-192.22 547.12,-189.6 547.73,-196.57"/>
</g>
<!-- Node10 -->
<g id="node10" class="node">
<title>Node10</title>
<g id="a_node10"><a xlink:href="classlogs_1_1LoggerFactory.html#ac89f19c0ffd71aa8cdc1c2d44c03809e" target="_top" xlink:title="Cette méthode ajoute un appender au système.">
<polygon fill="white" stroke="black" points="741,-206 741,-225 875,-225 875,-206 741,-206"/>
<text text-anchor="middle" x="808" y="-213" font-family="Helvetica,sans-Serif" font-size="10.00">logs::LoggerFactory::add</text>
</a>
</g>
</g>
<!-- Node9&#45;&gt;Node10 -->
<g id="edge10" class="edge">
<title>Node9&#45;&gt;Node10</title>
<path fill="none" stroke="midnightblue" d="M668.53,-195.41C687.98,-198.23 710.25,-201.46 731.16,-204.5"/>
<polygon fill="midnightblue" stroke="midnightblue" points="730.9,-208 741.3,-205.97 731.9,-201.07 730.9,-208"/>
</g>
<!-- Node11 -->
<g id="node11" class="node">
<title>Node11</title>
<g id="a_node11"><a xlink:href="classlogs_1_1LoggerFactory.html#a90478b91d7af2ef8841ded21e3521f69" target="_top" xlink:title="Cette méthode statique retourne l&#39;instance unique de la classe LoggerFactory.">
<polygon fill="white" stroke="black" points="752.5,-156.5 752.5,-186.5 863.5,-186.5 863.5,-156.5 752.5,-156.5"/>
<text text-anchor="start" x="760.5" y="-174.5" font-family="Helvetica,sans-Serif" font-size="10.00">logs::LoggerFactory</text>
<text text-anchor="middle" x="808" y="-163.5" font-family="Helvetica,sans-Serif" font-size="10.00">::instance</text>
</a>
</g>
</g>
<!-- Node9&#45;&gt;Node11 -->
<g id="edge11" class="edge">
<title>Node9&#45;&gt;Node11</title>
<path fill="none" stroke="midnightblue" d="M668.53,-182.98C691.45,-181.08 718.3,-178.85 742.22,-176.87"/>
<polygon fill="midnightblue" stroke="midnightblue" points="742.59,-180.35 752.27,-176.04 742.01,-173.38 742.59,-180.35"/>
</g>
<!-- Node12 -->
<g id="node12" class="node">
<title>Node12</title>
<g id="a_node12"><a xlink:href="classlogs_1_1LoggerFactory.html#a212aa623f4b6bee12cb39e8017dde670" target="_top" xlink:title="Cette méthode retourne le Logger principal qui définit le niveau de trace par défaut.">
<polygon fill="white" stroke="black" points="752.5,-107.5 752.5,-137.5 863.5,-137.5 863.5,-107.5 752.5,-107.5"/>
<text text-anchor="start" x="760.5" y="-125.5" font-family="Helvetica,sans-Serif" font-size="10.00">logs::LoggerFactory</text>
<text text-anchor="middle" x="808" y="-114.5" font-family="Helvetica,sans-Serif" font-size="10.00">::rootLogger</text>
</a>
</g>
</g>
<!-- Node9&#45;&gt;Node12 -->
<g id="edge12" class="edge">
<title>Node9&#45;&gt;Node12</title>
<path fill="none" stroke="midnightblue" d="M657.18,-172.41C679.74,-164.58 707.82,-154.92 733,-146.5 738.58,-144.63 744.4,-142.71 750.23,-140.8"/>
<polygon fill="midnightblue" stroke="midnightblue" points="751.56,-144.04 759.98,-137.61 749.39,-137.39 751.56,-144.04"/>
</g>
<!-- Node13&#45;&gt;Node2 -->
<g id="edge14" class="edge">
<title>Node13&#45;&gt;Node2</title>
<path fill="none" stroke="midnightblue" d="M310.39,-300.52C332.31,-306.06 356.83,-312.26 377.55,-317.5"/>
<polygon fill="midnightblue" stroke="midnightblue" points="376.83,-320.93 387.38,-319.99 378.55,-314.14 376.83,-320.93"/>
</g>
<!-- Node13&#45;&gt;Node4 -->
<g id="edge15" class="edge">
<title>Node13&#45;&gt;Node4</title>
<path fill="none" stroke="midnightblue" d="M323.03,-272.25C344.23,-268.35 366.65,-264.23 385.06,-260.85"/>
<polygon fill="midnightblue" stroke="midnightblue" points="385.91,-264.25 395.11,-259 384.64,-257.36 385.91,-264.25"/>
</g>
<!-- Node13&#45;&gt;Node8 -->
<g id="edge18" class="edge">
<title>Node13&#45;&gt;Node8</title>
<path fill="none" stroke="midnightblue" d="M283.13,-270.31C304.6,-260.16 333.49,-246.52 359,-234.5 370.9,-228.9 384.01,-222.73 395.39,-217.39"/>
<polygon fill="midnightblue" stroke="midnightblue" points="396.92,-220.54 404.48,-213.12 393.94,-214.21 396.92,-220.54"/>
</g>
<!-- Node14 -->
<g id="node14" class="node">
<title>Node14</title>
<g id="a_node14"><a xlink:href="classlogs_1_1Logger.html#a8b6a2019233bc44b3c3c86c653910831" target="_top" xlink:title="Trace un message de niveau ERROR.">
<polygon fill="white" stroke="black" points="560.5,-282 560.5,-301 665.5,-301 665.5,-282 560.5,-282"/>
<text text-anchor="middle" x="613" y="-289" font-family="Helvetica,sans-Serif" font-size="10.00">logs::Logger::error</text>
</a>
</g>
</g>
<!-- Node13&#45;&gt;Node14 -->
<g id="edge16" class="edge">
<title>Node13&#45;&gt;Node14</title>
<path fill="none" stroke="midnightblue" d="M323.19,-286.7C389.65,-287.8 487.21,-289.43 550.17,-290.47"/>
<polygon fill="midnightblue" stroke="midnightblue" points="550.29,-293.97 560.35,-290.64 550.41,-286.98 550.29,-293.97"/>
</g>
<!-- Node14&#45;&gt;Node3 -->
<g id="edge17" class="edge">
<title>Node14&#45;&gt;Node3</title>
<path fill="none" stroke="midnightblue" d="M662.7,-301.09C688.86,-306.24 721.28,-312.62 748.77,-318.03"/>
<polygon fill="midnightblue" stroke="midnightblue" points="748.16,-321.48 758.65,-319.98 749.51,-314.61 748.16,-321.48"/>
</g>
<!-- Node16 -->
<g id="node16" class="node">
<title>Node16</title>
<g id="a_node16"><a xlink:href="classutils_1_1Thread.html#a61b6c3d0b87570254646120b323b89f7" target="_top" xlink:title="Cette méthode sert de point d&#39;entrée pour l&#39;appel à pcreate_thread.">
<polygon fill="white" stroke="black" points="359,-50 359,-69 493,-69 493,-50 359,-50"/>
<text text-anchor="middle" x="426" y="-57" font-family="Helvetica,sans-Serif" font-size="10.00">utils::Thread::entryPoint</text>
</a>
</g>
</g>
<!-- Node15&#45;&gt;Node16 -->
<g id="edge20" class="edge">
<title>Node15&#45;&gt;Node16</title>
<path fill="none" stroke="midnightblue" d="M303.21,-59.5C317.58,-59.5 333.46,-59.5 348.89,-59.5"/>
<polygon fill="midnightblue" stroke="midnightblue" points="348.93,-63 358.93,-59.5 348.93,-56 348.93,-63"/>
</g>
<!-- Node20 -->
<g id="node20" class="node">
<title>Node20</title>
<g id="a_node20"><a xlink:href="namespaceutils.html#ac714339512d6dc1ee14c5b5a92d535be" target="_top" xlink:title="Définit la priorité temps&#45;réel (SCHED_FIFO) du thread spécifié.">
<polygon fill="white" stroke="black" points="373.5,-0.5 373.5,-30.5 478.5,-30.5 478.5,-0.5 373.5,-0.5"/>
<text text-anchor="start" x="381.5" y="-18.5" font-family="Helvetica,sans-Serif" font-size="10.00">utils::set_realtime</text>
<text text-anchor="middle" x="426" y="-7.5" font-family="Helvetica,sans-Serif" font-size="10.00">_priority</text>
</a>
</g>
</g>
<!-- Node15&#45;&gt;Node20 -->
<g id="edge28" class="edge">
<title>Node15&#45;&gt;Node20</title>
<path fill="none" stroke="midnightblue" d="M288.76,-49.95C310.64,-44.42 338.72,-37.32 363.7,-31"/>
<polygon fill="midnightblue" stroke="midnightblue" points="364.62,-34.38 373.46,-28.53 362.9,-27.59 364.62,-34.38"/>
</g>
<!-- Node17 -->
<g id="node17" class="node">
<title>Node17</title>
<g id="a_node17"><a xlink:href="classutils_1_1Thread.html#a202b3fabad41b3be6d996043b262a43a" target="_top" xlink:title="Méthode virtuelle pure à implémenter dans les sous&#45;classes.">
<polygon fill="white" stroke="black" points="552,-12 552,-31 674,-31 674,-12 552,-12"/>
<text text-anchor="middle" x="613" y="-19" font-family="Helvetica,sans-Serif" font-size="10.00">utils::Thread::execute</text>
</a>
</g>
</g>
<!-- Node16&#45;&gt;Node17 -->
<g id="edge21" class="edge">
<title>Node16&#45;&gt;Node17</title>
<path fill="none" stroke="midnightblue" d="M473.68,-49.91C498.65,-44.78 529.56,-38.43 555.83,-33.04"/>
<polygon fill="midnightblue" stroke="midnightblue" points="556.56,-36.46 565.65,-31.02 555.15,-29.6 556.56,-36.46"/>
</g>
<!-- Node18 -->
<g id="node18" class="node">
<title>Node18</title>
<g id="a_node18"><a xlink:href="classutils_1_1Thread.html#a46589324e8fc0735c20268db70d34aa5" target="_top" xlink:title="Modifie l&#39;état du thread (thread&#45;safe).">
<polygon fill="white" stroke="black" points="551,-50 551,-69 675,-69 675,-50 551,-50"/>
<text text-anchor="middle" x="613" y="-57" font-family="Helvetica,sans-Serif" font-size="10.00">utils::Thread::setState</text>
</a>
</g>
</g>
<!-- Node16&#45;&gt;Node18 -->
<g id="edge22" class="edge">
<title>Node16&#45;&gt;Node18</title>
<path fill="none" stroke="midnightblue" d="M493.01,-59.5C508.5,-59.5 525.07,-59.5 540.78,-59.5"/>
<polygon fill="midnightblue" stroke="midnightblue" points="540.96,-63 550.96,-59.5 540.96,-56 540.96,-63"/>
</g>
<!-- Node18&#45;&gt;Node6 -->
<g id="edge23" class="edge">
<title>Node18&#45;&gt;Node6</title>
<path fill="none" stroke="midnightblue" d="M675.15,-62.72C741.99,-66.25 848.36,-71.85 914.67,-75.35"/>
<polygon fill="midnightblue" stroke="midnightblue" points="914.78,-78.86 924.95,-75.89 915.15,-71.87 914.78,-78.86"/>
</g>
<!-- Node18&#45;&gt;Node7 -->
<g id="edge27" class="edge">
<title>Node18&#45;&gt;Node7</title>
<path fill="none" stroke="midnightblue" d="M665.53,-49.9C676.09,-47.33 687.02,-44.2 697,-40.5 713.96,-34.21 715.44,-25.85 733,-21.5 797.71,-5.47 816.68,-14.69 883,-21.5 897.55,-22.99 913.19,-25.79 927.36,-28.79"/>
<polygon fill="midnightblue" stroke="midnightblue" points="926.86,-32.26 937.37,-30.99 928.36,-25.43 926.86,-32.26"/>
</g>
<!-- Node19 -->
<g id="node19" class="node">
<title>Node19</title>
<g id="a_node19"><a xlink:href="classutils_1_1Thread.html#ada9233f3e669c925e9ed518201ad31cd" target="_top" xlink:title="Retourne l&#39;état courant du thread.">
<polygon fill="white" stroke="black" points="754,-31 754,-50 862,-50 862,-31 754,-31"/>
<text text-anchor="middle" x="808" y="-38" font-family="Helvetica,sans-Serif" font-size="10.00">utils::Thread::state</text>
</a>
</g>
</g>
<!-- Node18&#45;&gt;Node19 -->
<g id="edge24" class="edge">
<title>Node18&#45;&gt;Node19</title>
<path fill="none" stroke="midnightblue" d="M675.07,-53.49C696.9,-51.34 721.54,-48.91 743.57,-46.74"/>
<polygon fill="midnightblue" stroke="midnightblue" points="744.21,-50.2 753.81,-45.74 743.52,-43.23 744.21,-50.2"/>
</g>
<!-- Node19&#45;&gt;Node6 -->
<g id="edge25" class="edge">
<title>Node19&#45;&gt;Node6</title>
<path fill="none" stroke="midnightblue" d="M850.76,-50.09C872.7,-55.13 899.78,-61.34 923.01,-66.68"/>
<polygon fill="midnightblue" stroke="midnightblue" points="922.51,-70.15 933.04,-68.98 924.07,-63.33 922.51,-70.15"/>
</g>
<!-- Node19&#45;&gt;Node7 -->
<g id="edge26" class="edge">
<title>Node19&#45;&gt;Node7</title>
<path fill="none" stroke="midnightblue" d="M862.28,-40.5C876.94,-40.5 893.03,-40.5 908.32,-40.5"/>
<polygon fill="midnightblue" stroke="midnightblue" points="908.76,-44 918.76,-40.5 908.76,-37 908.76,-44"/>
</g>
</g>
</svg>
