<?xml version="1.0" encoding="UTF-8" standalone="no"?>
<!DOCTYPE svg PUBLIC "-//W3C//DTD SVG 1.1//EN"
 "http://www.w3.org/Graphics/SVG/1.1/DTD/svg11.dtd">
<!-- Generated by graphviz version 2.43.0 (0)
 -->
<!-- Title: IAbyPath::whileMoveForwardTo Pages: 1 -->
<svg width="915pt" height="156pt"
 viewBox="0.00 0.00 915.00 155.73" xmlns="http://www.w3.org/2000/svg" xmlns:xlink="http://www.w3.org/1999/xlink">
<g id="graph0" class="graph" transform="scale(1 1) rotate(0) translate(4 151.73)">
<title>IAbyPath::whileMoveForwardTo</title>
<polygon fill="white" stroke="transparent" points="-4,4 -4,-151.73 911,-151.73 911,4 -4,4"/>
<!-- Node1 -->
<g id="node1" class="node">
<title>Node1</title>
<g id="a_node1"><a xlink:title=" ">
<polygon fill="#bfbfbf" stroke="black" points="739,-93 739,-112 907,-112 907,-93 739,-93"/>
<text text-anchor="middle" x="823" y="-100" font-family="Helvetica,sans-Serif" font-size="10.00">IAbyPath::whileMoveForwardTo</text>
</a>
</g>
</g>
<!-- Node2 -->
<g id="node2" class="node">
<title>Node2</title>
<g id="a_node2"><a xlink:href="O__State__DecisionMakerIA_8cpp.html#a1cbc5f5cba5f72b993c68f4aad4473f7" target="_top" xlink:title="Action de poussée de la prise en zone basse.">
<polygon fill="white" stroke="black" points="397.5,-109 397.5,-128 501.5,-128 501.5,-109 397.5,-109"/>
<text text-anchor="middle" x="449.5" y="-116" font-family="Helvetica,sans-Serif" font-size="10.00">O_push_prise_bas</text>
</a>
</g>
</g>
<!-- Node1&#45;&gt;Node2 -->
<g id="edge1" class="edge">
<title>Node1&#45;&gt;Node2</title>
<path fill="none" stroke="midnightblue" d="M789.76,-115.79C766.19,-124.76 733.19,-135.8 703,-140.5 633.61,-151.31 614.76,-148.51 545,-140.5 524.25,-138.12 501.43,-132.88 483.41,-128.11"/>
<polygon fill="midnightblue" stroke="midnightblue" points="791.2,-118.98 799.25,-112.09 788.66,-112.46 791.2,-118.98"/>
</g>
<!-- Node3 -->
<g id="node3" class="node">
<title>Node3</title>
<g id="a_node3"><a xlink:href="classO__AsservTest.html#a87e2ffa360e3e12ff5c7b81b1952a04f" target="_top" xlink:title=" ">
<polygon fill="white" stroke="black" points="572,-112 572,-131 676,-131 676,-112 572,-112"/>
<text text-anchor="middle" x="624" y="-119" font-family="Helvetica,sans-Serif" font-size="10.00">O_AsservTest::run</text>
</a>
</g>
</g>
<!-- Node1&#45;&gt;Node3 -->
<g id="edge2" class="edge">
<title>Node1&#45;&gt;Node3</title>
<path fill="none" stroke="midnightblue" d="M728.74,-111.49C710.67,-113.24 692.37,-115 676.27,-116.56"/>
<polygon fill="midnightblue" stroke="midnightblue" points="729.12,-114.97 738.74,-110.53 728.45,-108.01 729.12,-114.97"/>
</g>
<!-- Node4 -->
<g id="node4" class="node">
<title>Node4</title>
<g id="a_node4"><a xlink:href="classO__AsservXYRotateTest.html#a13ccb691e37bdddc94ca53b29311e39a" target="_top" xlink:title=" ">
<polygon fill="white" stroke="black" points="549.5,-74 549.5,-93 698.5,-93 698.5,-74 549.5,-74"/>
<text text-anchor="middle" x="624" y="-81" font-family="Helvetica,sans-Serif" font-size="10.00">O_AsservXYRotateTest::run</text>
</a>
</g>
</g>
<!-- Node1&#45;&gt;Node4 -->
<g id="edge3" class="edge">
<title>Node1&#45;&gt;Node4</title>
<path fill="none" stroke="midnightblue" d="M728.68,-93.5C718.58,-92.53 708.41,-91.54 698.59,-90.6"/>
<polygon fill="midnightblue" stroke="midnightblue" points="728.45,-96.99 738.74,-94.47 729.12,-90.03 728.45,-96.99"/>
</g>
<!-- Node5 -->
<g id="node5" class="node">
<title>Node5</title>
<g id="a_node5"><a xlink:href="classIAbyPath.html#a3f27b793f84340c99ca33e12c2380bb4" target="_top" xlink:title=" ">
<polygon fill="white" stroke="black" points="545,-24.5 545,-54.5 703,-54.5 703,-24.5 545,-24.5"/>
<text text-anchor="start" x="553" y="-42.5" font-family="Helvetica,sans-Serif" font-size="10.00">IAbyPath::whileMoveForward</text>
<text text-anchor="middle" x="624" y="-31.5" font-family="Helvetica,sans-Serif" font-size="10.00">AndRotateTo</text>
</a>
</g>
</g>
<!-- Node1&#45;&gt;Node5 -->
<g id="edge4" class="edge">
<title>Node1&#45;&gt;Node5</title>
<path fill="none" stroke="midnightblue" d="M782.23,-89.78C750.41,-79.61 705.72,-65.31 672.11,-54.57"/>
<polygon fill="midnightblue" stroke="midnightblue" points="781.49,-93.22 792.08,-92.93 783.62,-86.55 781.49,-93.22"/>
</g>
<!-- Node5&#45;&gt;Node2 -->
<g id="edge10" class="edge">
<title>Node5&#45;&gt;Node2</title>
<path fill="none" stroke="midnightblue" d="M561.39,-57.91C555.79,-59.98 550.25,-62.19 545,-64.5 515.43,-77.52 483.2,-97.24 465.06,-108.9"/>
<polygon fill="midnightblue" stroke="midnightblue" points="562.58,-61.2 570.83,-54.55 560.23,-54.61 562.58,-61.2"/>
</g>
<!-- Node6 -->
<g id="node6" class="node">
<title>Node6</title>
<g id="a_node6"><a xlink:href="O__State__DecisionMakerIA_8cpp.html#a6af4b40e5e676265dd688e0004be0ff6" target="_top" xlink:title="Action de fin de match : rejoint la zone de fin en haut de table.">
<polygon fill="white" stroke="black" points="390,-30 390,-49 509,-49 509,-30 390,-30"/>
<text text-anchor="middle" x="449.5" y="-37" font-family="Helvetica,sans-Serif" font-size="10.00">O_end_of_match_top</text>
</a>
</g>
</g>
<!-- Node5&#45;&gt;Node6 -->
<g id="edge5" class="edge">
<title>Node5&#45;&gt;Node6</title>
<path fill="none" stroke="midnightblue" d="M534.64,-39.5C525.96,-39.5 517.31,-39.5 509.04,-39.5"/>
<polygon fill="midnightblue" stroke="midnightblue" points="534.83,-43 544.83,-39.5 534.83,-36 534.83,-43"/>
</g>
<!-- Node7 -->
<g id="node7" class="node">
<title>Node7</title>
<g id="a_node7"><a xlink:href="classO__State__DecisionMakerIA.html#a9b35f6bac1a5602ec2a711fa280be4a6" target="_top" xlink:title="Configure les activités pour les zones de jeu du match.">
<polygon fill="white" stroke="black" points="195,-49.5 195,-79.5 337,-79.5 337,-49.5 195,-49.5"/>
<text text-anchor="start" x="203" y="-67.5" font-family="Helvetica,sans-Serif" font-size="10.00">O_State_DecisionMakerIA</text>
<text text-anchor="middle" x="266" y="-56.5" font-family="Helvetica,sans-Serif" font-size="10.00">::IASetupActivitiesZone</text>
</a>
</g>
</g>
<!-- Node6&#45;&gt;Node7 -->
<g id="edge6" class="edge">
<title>Node6&#45;&gt;Node7</title>
<path fill="none" stroke="midnightblue" d="M379.82,-48.96C365.88,-50.88 351.19,-52.9 337.19,-54.83"/>
<polygon fill="midnightblue" stroke="midnightblue" points="380.39,-52.41 389.82,-47.58 379.44,-45.48 380.39,-52.41"/>
</g>
<!-- Node9 -->
<g id="node9" class="node">
<title>Node9</title>
<g id="a_node9"><a xlink:href="classO__State__DecisionMakerIA.html#a8bd1c4d72bec8768c7c7c15bd2e665d8" target="_top" xlink:title="Configure les activités pour le mode test de la table.">
<polygon fill="white" stroke="black" points="178,-0.5 178,-30.5 354,-30.5 354,-0.5 178,-0.5"/>
<text text-anchor="start" x="186" y="-18.5" font-family="Helvetica,sans-Serif" font-size="10.00">O_State_DecisionMakerIA</text>
<text text-anchor="middle" x="266" y="-7.5" font-family="Helvetica,sans-Serif" font-size="10.00">::IASetupActivitiesZoneTableTest</text>
</a>
</g>
</g>
<!-- Node6&#45;&gt;Node9 -->
<g id="edge8" class="edge">
<title>Node6&#45;&gt;Node9</title>
<path fill="none" stroke="midnightblue" d="M379.77,-30.41C371.4,-29.31 362.77,-28.16 354.18,-27.03"/>
<polygon fill="midnightblue" stroke="midnightblue" points="379.45,-33.9 389.82,-31.74 380.37,-26.96 379.45,-33.9"/>
</g>
<!-- Node8 -->
<g id="node8" class="node">
<title>Node8</title>
<g id="a_node8"><a xlink:href="classO__State__DecisionMakerIA.html#a96d1f2a7618d607fd10cc51b9111e653" target="_top" xlink:title="Execute l&#39;action.">
<polygon fill="white" stroke="black" points="0,-24.5 0,-54.5 142,-54.5 142,-24.5 0,-24.5"/>
<text text-anchor="start" x="8" y="-42.5" font-family="Helvetica,sans-Serif" font-size="10.00">O_State_DecisionMakerIA</text>
<text text-anchor="middle" x="71" y="-31.5" font-family="Helvetica,sans-Serif" font-size="10.00">::execute</text>
</a>
</g>
</g>
<!-- Node7&#45;&gt;Node8 -->
<g id="edge7" class="edge">
<title>Node7&#45;&gt;Node8</title>
<path fill="none" stroke="midnightblue" d="M184.62,-54.09C170.52,-52.26 155.96,-50.38 142.17,-48.59"/>
<polygon fill="midnightblue" stroke="midnightblue" points="184.41,-57.59 194.78,-55.4 185.31,-50.65 184.41,-57.59"/>
</g>
<!-- Node9&#45;&gt;Node8 -->
<g id="edge9" class="edge">
<title>Node9&#45;&gt;Node8</title>
<path fill="none" stroke="midnightblue" d="M167.67,-27.6C159.02,-28.68 150.38,-29.75 142.02,-30.79"/>
<polygon fill="midnightblue" stroke="midnightblue" points="168.33,-31.05 177.82,-26.34 167.46,-24.1 168.33,-31.05"/>
</g>
</g>
</svg>
