<?xml version="1.0" encoding="UTF-8" standalone="no"?>
<!DOCTYPE svg PUBLIC "-//W3C//DTD SVG 1.1//EN"
 "http://www.w3.org/Graphics/SVG/1.1/DTD/svg11.dtd">
<!-- Generated by graphviz version 2.43.0 (0)
 -->
<!-- Title: BeaconSensors::getData Pages: 1 -->
<!--zoomable 241 -->
<svg id="main" version="1.1" xmlns="http://www.w3.org/2000/svg" xmlns:xlink="http://www.w3.org/1999/xlink" xml:space="preserve" onload="init(evt)">
<style type="text/css"><![CDATA[
.edge:hover path { stroke: red; }
.edge:hover polygon { stroke: red; fill: red; }
]]></style>
<script type="text/javascript"><![CDATA[
var edges = document.getElementsByTagName('g');
if (edges && edges.length) {
  for (var i=0;i<edges.length;i++) {
    if (edges[i].id.substr(0,4)=='edge') {
      edges[i].setAttribute('class','edge');
    }
  }
}
]]></script>
        <defs>
                <circle id="rim" cx="0" cy="0" r="7"/>
                <circle id="rim2" cx="0" cy="0" r="3.5"/>
                <g id="zoomPlus">
                        <use xlink:href="#rim" fill="#404040">
                                <set attributeName="fill" to="#808080" begin="zoomplus.mouseover" end="zoomplus.mouseout"/>
                        </use>
                        <path d="M-4,0h8M0,-4v8" fill="none" stroke="white" stroke-width="1.5" pointer-events="none"/>
                </g>
                <g id="zoomMin">
                        <use xlink:href="#rim" fill="#404040">
                                <set attributeName="fill" to="#808080" begin="zoomminus.mouseover" end="zoomminus.mouseout"/>
                        </use>
                        <path d="M-4,0h8" fill="none" stroke="white" stroke-width="1.5" pointer-events="none"/>
                </g>
                <g id="dirArrow">
                        <path fill="none" stroke="white" stroke-width="1.5" d="M0,-3.0v7 M-2.5,-0.5L0,-3.0L2.5,-0.5"/>
                </g>
               <g id="resetDef">
                       <use xlink:href="#rim2" fill="#404040">
                               <set attributeName="fill" to="#808080" begin="reset.mouseover" end="reset.mouseout"/>
                       </use>
               </g>
        </defs>

<script type="text/javascript">
var viewWidth = 741;
var viewHeight = 241;
var sectionId = 'dynsection-5';
</script>
<script xlink:href="svgpan.js"/>
<svg id="graph" class="graph">
<g id="viewport">
<title>BeaconSensors::getData</title>
<polygon fill="white" stroke="transparent" points="-4,4 -4,-236.5 737,-236.5 737,4 -4,4"/>
<!-- Node1 -->
<g id="node1" class="node">
<title>Node1</title>
<g id="a_node1"><a xlink:title="get distance in mm. //every 250 ms">
<polygon fill="#bfbfbf" stroke="black" points="0,-156 0,-175 136,-175 136,-156 0,-156"/>
<text text-anchor="middle" x="68" y="-163" font-family="Helvetica,sans-Serif" font-size="10.00">BeaconSensors::getData</text>
</a>
</g>
</g>
<!-- Node2 -->
<g id="node2" class="node">
<title>Node2</title>
<g id="a_node2"><a xlink:href="classlogs_1_1Logger.html#a7dffc8f610014ec59b63392da16140e4" target="_top" xlink:title="Trace un message de niveau DEBUG.">
<polygon fill="white" stroke="black" points="407,-213 407,-232 519,-232 519,-213 407,-213"/>
<text text-anchor="middle" x="463" y="-220" font-family="Helvetica,sans-Serif" font-size="10.00">logs::Logger::debug</text>
</a>
</g>
</g>
<!-- Node1&#45;&gt;Node2 -->
<g id="edge1" class="edge">
<title>Node1&#45;&gt;Node2</title>
<path fill="none" stroke="midnightblue" d="M89.39,-175.02C109.8,-184.07 142.36,-197.2 172,-203.5 247.89,-219.63 337.24,-223.24 396.5,-223.55"/>
<polygon fill="midnightblue" stroke="midnightblue" points="396.83,-227.05 406.84,-223.57 396.85,-220.05 396.83,-227.05"/>
</g>
<!-- Node4 -->
<g id="node4" class="node">
<title>Node4</title>
<g id="a_node4"><a xlink:href="namespacelogs.html#ac6f325c6cfe6189bc8e243daa184453b" target="_top" xlink:title="Cette méthode permet de finir les flux de construction par la notation.">
<polygon fill="white" stroke="black" points="227,-175 227,-194 288,-194 288,-175 227,-175"/>
<text text-anchor="middle" x="257.5" y="-182" font-family="Helvetica,sans-Serif" font-size="10.00">logs::end</text>
</a>
</g>
</g>
<!-- Node1&#45;&gt;Node4 -->
<g id="edge3" class="edge">
<title>Node1&#45;&gt;Node4</title>
<path fill="none" stroke="midnightblue" d="M136.16,-172.31C163.14,-175.04 193.31,-178.1 216.69,-180.47"/>
<polygon fill="midnightblue" stroke="midnightblue" points="216.62,-183.98 226.93,-181.5 217.33,-177.01 216.62,-183.98"/>
</g>
<!-- Node8 -->
<g id="node8" class="node">
<title>Node8</title>
<g id="a_node8"><a xlink:href="classBeaconSensors.html#a6313d9e396cb5cd115205753e16a1932" target="_top" xlink:title="Retourne le Logger associé à la classe BeaconSensors(OPOS6UL).">
<polygon fill="white" stroke="black" points="193.5,-137 193.5,-156 321.5,-156 321.5,-137 193.5,-137"/>
<text text-anchor="middle" x="257.5" y="-144" font-family="Helvetica,sans-Serif" font-size="10.00">BeaconSensors::logger</text>
</a>
</g>
</g>
<!-- Node1&#45;&gt;Node8 -->
<g id="edge8" class="edge">
<title>Node1&#45;&gt;Node8</title>
<path fill="none" stroke="midnightblue" d="M136.16,-158.69C151.42,-157.15 167.7,-155.5 183.2,-153.93"/>
<polygon fill="midnightblue" stroke="midnightblue" points="183.65,-157.4 193.25,-152.91 182.95,-150.44 183.65,-157.4"/>
</g>
<!-- Node13 -->
<g id="node13" class="node">
<title>Node13</title>
<g id="a_node13"><a xlink:href="classBeaconSensors.html#a52e9f13215984f77f70d767600c55090" target="_top" xlink:title=" ">
<polygon fill="white" stroke="black" points="172,-99 172,-118 343,-118 343,-99 172,-99"/>
<text text-anchor="middle" x="257.5" y="-106" font-family="Helvetica,sans-Serif" font-size="10.00">BeaconSensors::readRegnBytes</text>
</a>
</g>
</g>
<!-- Node1&#45;&gt;Node13 -->
<g id="edge13" class="edge">
<title>Node1&#45;&gt;Node13</title>
<path fill="none" stroke="midnightblue" d="M92.43,-155.85C113.11,-147.57 144.22,-135.71 172,-127.5 180.68,-124.93 189.96,-122.52 199.06,-120.34"/>
<polygon fill="midnightblue" stroke="midnightblue" points="199.9,-123.74 208.84,-118.06 198.31,-116.92 199.9,-123.74"/>
</g>
<!-- Node3 -->
<g id="node3" class="node">
<title>Node3</title>
<g id="a_node3"><a xlink:href="classlogs_1_1Logger.html#afa535aaf4891e02c4ff7f84d372b5b1b" target="_top" xlink:title="Méthode générique de trace d&#39;un message.">
<polygon fill="white" stroke="black" points="583,-213 583,-232 733,-232 733,-213 583,-213"/>
<text text-anchor="middle" x="658" y="-220" font-family="Helvetica,sans-Serif" font-size="10.00">logs::Logger::writeMessage</text>
</a>
</g>
</g>
<!-- Node2&#45;&gt;Node3 -->
<g id="edge2" class="edge">
<title>Node2&#45;&gt;Node3</title>
<path fill="none" stroke="midnightblue" d="M519.05,-222.5C535.78,-222.5 554.57,-222.5 572.76,-222.5"/>
<polygon fill="midnightblue" stroke="midnightblue" points="572.79,-226 582.79,-222.5 572.79,-219 572.79,-226"/>
</g>
<!-- Node5 -->
<g id="node5" class="node">
<title>Node5</title>
<g id="a_node5"><a xlink:href="classlogs_1_1Logger_1_1LoggerBuffer.html#a0e4fd77693fd899ec1b0670354f93a02" target="_top" xlink:title="Cette méthode valide le message en cours de construction et le transmet au Logger de référence.">
<polygon fill="white" stroke="black" points="379,-175 379,-194 547,-194 547,-175 379,-175"/>
<text text-anchor="middle" x="463" y="-182" font-family="Helvetica,sans-Serif" font-size="10.00">logs::Logger::LoggerBuffer::end</text>
</a>
</g>
</g>
<!-- Node4&#45;&gt;Node5 -->
<g id="edge4" class="edge">
<title>Node4&#45;&gt;Node5</title>
<path fill="none" stroke="midnightblue" d="M288.09,-184.5C309.39,-184.5 339.38,-184.5 368.47,-184.5"/>
<polygon fill="midnightblue" stroke="midnightblue" points="368.71,-188 378.71,-184.5 368.71,-181 368.71,-188"/>
</g>
<!-- Node5&#45;&gt;Node3 -->
<g id="edge7" class="edge">
<title>Node5&#45;&gt;Node3</title>
<path fill="none" stroke="midnightblue" d="M512.7,-194.09C538.86,-199.24 571.28,-205.62 598.77,-211.03"/>
<polygon fill="midnightblue" stroke="midnightblue" points="598.16,-214.48 608.65,-212.98 599.51,-207.61 598.16,-214.48"/>
</g>
<!-- Node6 -->
<g id="node6" class="node">
<title>Node6</title>
<g id="a_node6"><a xlink:href="classutils_1_1Mutex.html#aa584b418a5ef484f76b93e361a1d7e32" target="_top" xlink:title="Verrouille le mutex. Cette méthode doit être appelée avant d&#39;utiliser la ressource associée....">
<polygon fill="white" stroke="black" points="607.5,-175 607.5,-194 708.5,-194 708.5,-175 607.5,-175"/>
<text text-anchor="middle" x="658" y="-182" font-family="Helvetica,sans-Serif" font-size="10.00">utils::Mutex::lock</text>
</a>
</g>
</g>
<!-- Node5&#45;&gt;Node6 -->
<g id="edge5" class="edge">
<title>Node5&#45;&gt;Node6</title>
<path fill="none" stroke="midnightblue" d="M547.25,-184.5C564.07,-184.5 581.44,-184.5 597.26,-184.5"/>
<polygon fill="midnightblue" stroke="midnightblue" points="597.41,-188 607.41,-184.5 597.41,-181 597.41,-188"/>
</g>
<!-- Node7 -->
<g id="node7" class="node">
<title>Node7</title>
<g id="a_node7"><a xlink:href="classutils_1_1Mutex.html#a59b2079dc7f803d49f78ac9c04406cd3" target="_top" xlink:title="Déverrouille le mutex. Cette méthode doit être appelée après avoir utiliser la ressource associée.">
<polygon fill="white" stroke="black" points="601.5,-137 601.5,-156 714.5,-156 714.5,-137 601.5,-137"/>
<text text-anchor="middle" x="658" y="-144" font-family="Helvetica,sans-Serif" font-size="10.00">utils::Mutex::unlock</text>
</a>
</g>
</g>
<!-- Node5&#45;&gt;Node7 -->
<g id="edge6" class="edge">
<title>Node5&#45;&gt;Node7</title>
<path fill="none" stroke="midnightblue" d="M512.7,-174.91C538.86,-169.76 571.28,-163.38 598.77,-157.97"/>
<polygon fill="midnightblue" stroke="midnightblue" points="599.51,-161.39 608.65,-156.02 598.16,-154.52 599.51,-161.39"/>
</g>
<!-- Node9 -->
<g id="node9" class="node">
<title>Node9</title>
<g id="a_node9"><a xlink:href="classlogs_1_1LoggerFactory.html#a82585b5de73e471e06cafdccc3b3721e" target="_top" xlink:title="Cette méthode statique retourne un Logger en fonction de son nom.">
<polygon fill="white" stroke="black" points="407.5,-71.5 407.5,-101.5 518.5,-101.5 518.5,-71.5 407.5,-71.5"/>
<text text-anchor="start" x="415.5" y="-89.5" font-family="Helvetica,sans-Serif" font-size="10.00">logs::LoggerFactory</text>
<text text-anchor="middle" x="463" y="-78.5" font-family="Helvetica,sans-Serif" font-size="10.00">::logger</text>
</a>
</g>
</g>
<!-- Node8&#45;&gt;Node9 -->
<g id="edge9" class="edge">
<title>Node8&#45;&gt;Node9</title>
<path fill="none" stroke="midnightblue" d="M305.22,-136.96C317.57,-134.18 330.85,-130.95 343,-127.5 366.06,-120.96 391.21,-112.49 412.42,-104.96"/>
<polygon fill="midnightblue" stroke="midnightblue" points="413.64,-108.24 421.87,-101.57 411.27,-101.65 413.64,-108.24"/>
</g>
<!-- Node10 -->
<g id="node10" class="node">
<title>Node10</title>
<g id="a_node10"><a xlink:href="classlogs_1_1LoggerFactory.html#ac89f19c0ffd71aa8cdc1c2d44c03809e" target="_top" xlink:title="Cette méthode ajoute un appender au système.">
<polygon fill="white" stroke="black" points="591,-99 591,-118 725,-118 725,-99 591,-99"/>
<text text-anchor="middle" x="658" y="-106" font-family="Helvetica,sans-Serif" font-size="10.00">logs::LoggerFactory::add</text>
</a>
</g>
</g>
<!-- Node9&#45;&gt;Node10 -->
<g id="edge10" class="edge">
<title>Node9&#45;&gt;Node10</title>
<path fill="none" stroke="midnightblue" d="M518.53,-92.72C537.88,-94.92 560.03,-97.45 580.85,-99.82"/>
<polygon fill="midnightblue" stroke="midnightblue" points="580.62,-103.32 590.95,-100.97 581.41,-96.36 580.62,-103.32"/>
</g>
<!-- Node11 -->
<g id="node11" class="node">
<title>Node11</title>
<g id="a_node11"><a xlink:href="classlogs_1_1LoggerFactory.html#a90478b91d7af2ef8841ded21e3521f69" target="_top" xlink:title="Cette méthode statique retourne l&#39;instance unique de la classe LoggerFactory.">
<polygon fill="white" stroke="black" points="602.5,-49.5 602.5,-79.5 713.5,-79.5 713.5,-49.5 602.5,-49.5"/>
<text text-anchor="start" x="610.5" y="-67.5" font-family="Helvetica,sans-Serif" font-size="10.00">logs::LoggerFactory</text>
<text text-anchor="middle" x="658" y="-56.5" font-family="Helvetica,sans-Serif" font-size="10.00">::instance</text>
</a>
</g>
</g>
<!-- Node9&#45;&gt;Node11 -->
<g id="edge11" class="edge">
<title>Node9&#45;&gt;Node11</title>
<path fill="none" stroke="midnightblue" d="M518.53,-80.28C541.45,-77.67 568.3,-74.61 592.22,-71.88"/>
<polygon fill="midnightblue" stroke="midnightblue" points="592.73,-75.35 602.27,-70.74 591.94,-68.39 592.73,-75.35"/>
</g>
<!-- Node12 -->
<g id="node12" class="node">
<title>Node12</title>
<g id="a_node12"><a xlink:href="classlogs_1_1LoggerFactory.html#a212aa623f4b6bee12cb39e8017dde670" target="_top" xlink:title="Cette méthode retourne le Logger principal qui définit le niveau de trace par défaut.">
<polygon fill="white" stroke="black" points="602.5,-0.5 602.5,-30.5 713.5,-30.5 713.5,-0.5 602.5,-0.5"/>
<text text-anchor="start" x="610.5" y="-18.5" font-family="Helvetica,sans-Serif" font-size="10.00">logs::LoggerFactory</text>
<text text-anchor="middle" x="658" y="-7.5" font-family="Helvetica,sans-Serif" font-size="10.00">::rootLogger</text>
</a>
</g>
</g>
<!-- Node9&#45;&gt;Node12 -->
<g id="edge12" class="edge">
<title>Node9&#45;&gt;Node12</title>
<path fill="none" stroke="midnightblue" d="M501.63,-71.48C524.96,-62.28 555.61,-50.41 583,-40.5 589.02,-38.32 595.35,-36.09 601.65,-33.91"/>
<polygon fill="midnightblue" stroke="midnightblue" points="603.17,-37.09 611.5,-30.53 600.9,-30.47 603.17,-37.09"/>
</g>
</g>
</svg>
        <g id="navigator" transform="translate(0 0)" fill="#404254">
                <rect fill="#f2f5e9" fill-opacity="0.5" stroke="#606060" stroke-width=".5" x="0" y="0" width="60" height="60"/>
                <use id="zoomplus" xlink:href="#zoomPlus" x="17" y="9" onmousedown="handleZoom(evt,'in')"/>
                <use id="zoomminus" xlink:href="#zoomMin" x="42" y="9" onmousedown="handleZoom(evt,'out')"/>
                <use id="reset" xlink:href="#resetDef" x="30" y="36" onmousedown="handleReset()"/>
                <g id="arrowUp" xlink:href="#dirArrow" transform="translate(30 24)" onmousedown="handlePan(0,-1)">
                  <use xlink:href="#rim" fill="#404040">
                        <set attributeName="fill" to="#808080" begin="arrowUp.mouseover" end="arrowUp.mouseout"/>
                  </use>
                  <path fill="none" stroke="white" stroke-width="1.5" d="M0,-3.0v7 M-2.5,-0.5L0,-3.0L2.5,-0.5"/>
                </g>
                <g id="arrowRight" xlink:href="#dirArrow" transform="rotate(90) translate(36 -43)" onmousedown="handlePan(1,0)">
                  <use xlink:href="#rim" fill="#404040">
                        <set attributeName="fill" to="#808080" begin="arrowRight.mouseover" end="arrowRight.mouseout"/>
                  </use>
                  <path fill="none" stroke="white" stroke-width="1.5" d="M0,-3.0v7 M-2.5,-0.5L0,-3.0L2.5,-0.5"/>
                </g>
                <g id="arrowDown" xlink:href="#dirArrow" transform="rotate(180) translate(-30 -48)" onmousedown="handlePan(0,1)">
                  <use xlink:href="#rim" fill="#404040">
                        <set attributeName="fill" to="#808080" begin="arrowDown.mouseover" end="arrowDown.mouseout"/>
                  </use>
                  <path fill="none" stroke="white" stroke-width="1.5" d="M0,-3.0v7 M-2.5,-0.5L0,-3.0L2.5,-0.5"/>
                </g>
                <g id="arrowLeft" xlink:href="#dirArrow" transform="rotate(270) translate(-36 17)" onmousedown="handlePan(-1,0)">
                  <use xlink:href="#rim" fill="#404040">
                        <set attributeName="fill" to="#808080" begin="arrowLeft.mouseover" end="arrowLeft.mouseout"/>
                  </use>
                  <path fill="none" stroke="white" stroke-width="1.5" d="M0,-3.0v7 M-2.5,-0.5L0,-3.0L2.5,-0.5"/>
                </g>
        </g>
        <svg viewBox="0 0 15 15" width="100%" height="30px" preserveAspectRatio="xMaxYMin meet">
         <g id="arrow_out" transform="scale(0.3 0.3)">
          <a xlink:href="classBeaconSensors_a0fc052c2c3d6236020384847f1dd8d53_cgraph_org.svg" target="_base">
           <rect id="button" ry="5" rx="5" y="6" x="6" height="38" width="38"
                fill="#f2f5e9" fill-opacity="0.5" stroke="#606060" stroke-width="1.0"/>
           <path id="arrow"
             d="M 11.500037,31.436501 C 11.940474,20.09759 22.043105,11.32322 32.158766,21.979434 L 37.068811,17.246167 C 37.068811,17.246167 37.088388,32 37.088388,32 L 22.160133,31.978069 C 22.160133,31.978069 26.997745,27.140456 26.997745,27.140456 C 18.528582,18.264221 13.291696,25.230495 11.500037,31.436501 z"
             style="fill:#404040;"/>
          </a>
         </g>
        </svg>
</svg>
