<?xml version="1.0" encoding="UTF-8" standalone="no"?>
<!DOCTYPE svg PUBLIC "-//W3C//DTD SVG 1.1//EN"
 "http://www.w3.org/Graphics/SVG/1.1/DTD/svg11.dtd">
<!-- Generated by graphviz version 2.43.0 (0)
 -->
<!-- Title: ServoUsingMotorDriver::ServoUsingMotorDriver Pages: 1 -->
<!--zoomable 545 -->
<svg id="main" version="1.1" xmlns="http://www.w3.org/2000/svg" xmlns:xlink="http://www.w3.org/1999/xlink" xml:space="preserve" onload="init(evt)">
<style type="text/css"><![CDATA[
.edge:hover path { stroke: red; }
.edge:hover polygon { stroke: red; fill: red; }
]]></style>
<script type="text/javascript"><![CDATA[
var edges = document.getElementsByTagName('g');
if (edges && edges.length) {
  for (var i=0;i<edges.length;i++) {
    if (edges[i].id.substr(0,4)=='edge') {
      edges[i].setAttribute('class','edge');
    }
  }
}
]]></script>
        <defs>
                <circle id="rim" cx="0" cy="0" r="7"/>
                <circle id="rim2" cx="0" cy="0" r="3.5"/>
                <g id="zoomPlus">
                        <use xlink:href="#rim" fill="#404040">
                                <set attributeName="fill" to="#808080" begin="zoomplus.mouseover" end="zoomplus.mouseout"/>
                        </use>
                        <path d="M-4,0h8M0,-4v8" fill="none" stroke="white" stroke-width="1.5" pointer-events="none"/>
                </g>
                <g id="zoomMin">
                        <use xlink:href="#rim" fill="#404040">
                                <set attributeName="fill" to="#808080" begin="zoomminus.mouseover" end="zoomminus.mouseout"/>
                        </use>
                        <path d="M-4,0h8" fill="none" stroke="white" stroke-width="1.5" pointer-events="none"/>
                </g>
                <g id="dirArrow">
                        <path fill="none" stroke="white" stroke-width="1.5" d="M0,-3.0v7 M-2.5,-0.5L0,-3.0L2.5,-0.5"/>
                </g>
               <g id="resetDef">
                       <use xlink:href="#rim2" fill="#404040">
                               <set attributeName="fill" to="#808080" begin="reset.mouseover" end="reset.mouseout"/>
                       </use>
               </g>
        </defs>

<script type="text/javascript">
var viewWidth = 869;
var viewHeight = 545;
var sectionId = 'dynsection-2';
</script>
<script xlink:href="svgpan.js"/>
<svg id="graph" class="graph">
<g id="viewport">
<title>ServoUsingMotorDriver::ServoUsingMotorDriver</title>
<polygon fill="white" stroke="transparent" points="-4,4 -4,-540.5 865,-540.5 865,4 -4,4"/>
<!-- Node1 -->
<g id="node1" class="node">
<title>Node1</title>
<g id="a_node1"><a xlink:title="Constructor.">
<polygon fill="#bfbfbf" stroke="black" points="0,-169.5 0,-199.5 137,-199.5 137,-169.5 0,-169.5"/>
<text text-anchor="start" x="8" y="-187.5" font-family="Helvetica,sans-Serif" font-size="10.00">ServoUsingMotorDriver</text>
<text text-anchor="middle" x="68.5" y="-176.5" font-family="Helvetica,sans-Serif" font-size="10.00">::ServoUsingMotorDriver</text>
</a>
</g>
</g>
<!-- Node2 -->
<g id="node2" class="node">
<title>Node2</title>
<g id="a_node2"><a xlink:href="classMD25.html#a935ef31b09c463fead4abab0accbbb6c" target="_top" xlink:title=" ">
<polygon fill="white" stroke="black" points="199.5,-308 199.5,-327 277.5,-327 277.5,-308 199.5,-308"/>
<text text-anchor="middle" x="238.5" y="-315" font-family="Helvetica,sans-Serif" font-size="10.00">MD25::begin</text>
</a>
</g>
</g>
<!-- Node1&#45;&gt;Node2 -->
<g id="edge1" class="edge">
<title>Node1&#45;&gt;Node2</title>
<path fill="none" stroke="midnightblue" d="M88.77,-199.76C120.74,-225.06 184.43,-275.48 217.11,-301.36"/>
<polygon fill="midnightblue" stroke="midnightblue" points="215.07,-304.21 225.09,-307.67 219.42,-298.72 215.07,-304.21"/>
</g>
<!-- Node6 -->
<g id="node6" class="node">
<title>Node6</title>
<g id="a_node6"><a xlink:href="classlogs_1_1Logger.html#a7dffc8f610014ec59b63392da16140e4" target="_top" xlink:title="Trace un message de niveau DEBUG.">
<polygon fill="white" stroke="black" points="349.5,-213 349.5,-232 461.5,-232 461.5,-213 349.5,-213"/>
<text text-anchor="middle" x="405.5" y="-220" font-family="Helvetica,sans-Serif" font-size="10.00">logs::Logger::debug</text>
</a>
</g>
</g>
<!-- Node1&#45;&gt;Node6 -->
<g id="edge33" class="edge">
<title>Node1&#45;&gt;Node6</title>
<path fill="none" stroke="midnightblue" d="M137.11,-193.95C149.06,-195.54 161.39,-197.11 173,-198.5 228.95,-205.18 292.64,-211.71 339.03,-216.26"/>
<polygon fill="midnightblue" stroke="midnightblue" points="338.96,-219.77 349.25,-217.26 339.64,-212.8 338.96,-219.77"/>
</g>
<!-- Node9 -->
<g id="node9" class="node">
<title>Node9</title>
<g id="a_node9"><a xlink:href="namespacelogs.html#ac6f325c6cfe6189bc8e243daa184453b" target="_top" xlink:title="Cette méthode permet de finir les flux de construction par la notation.">
<polygon fill="white" stroke="black" points="375,-175 375,-194 436,-194 436,-175 375,-175"/>
<text text-anchor="middle" x="405.5" y="-182" font-family="Helvetica,sans-Serif" font-size="10.00">logs::end</text>
</a>
</g>
</g>
<!-- Node1&#45;&gt;Node9 -->
<g id="edge34" class="edge">
<title>Node1&#45;&gt;Node9</title>
<path fill="none" stroke="midnightblue" d="M137.29,-184.5C205.54,-184.5 308.52,-184.5 364.62,-184.5"/>
<polygon fill="midnightblue" stroke="midnightblue" points="364.86,-188 374.86,-184.5 364.86,-181 364.86,-188"/>
</g>
<!-- Node14 -->
<g id="node14" class="node">
<title>Node14</title>
<g id="a_node14"><a xlink:href="classMD25.html#a6841795bd9490b6bf99e908d42e3d2cb" target="_top" xlink:title=" ">
<polygon fill="white" stroke="black" points="545,-121 545,-140 637,-140 637,-121 545,-121"/>
<text text-anchor="middle" x="591" y="-128" font-family="Helvetica,sans-Serif" font-size="10.00">MD25::instance</text>
</a>
</g>
</g>
<!-- Node1&#45;&gt;Node14 -->
<g id="edge35" class="edge">
<title>Node1&#45;&gt;Node14</title>
<path fill="none" stroke="midnightblue" d="M137.01,-177.5C241.05,-166.7 438.57,-146.21 534.69,-136.24"/>
<polygon fill="midnightblue" stroke="midnightblue" points="535.2,-139.7 544.78,-135.19 534.48,-132.74 535.2,-139.7"/>
</g>
<!-- Node26 -->
<g id="node26" class="node">
<title>Node26</title>
<g id="a_node26"><a xlink:href="classServoUsingMotorDriver.html#a49ed72a9d9b1e881225803add941caef" target="_top" xlink:title="Retourne le Logger associé à la classe ServoUsingMotorDriver(OPOS6UL).">
<polygon fill="white" stroke="black" points="173,-71.5 173,-101.5 304,-101.5 304,-71.5 173,-71.5"/>
<text text-anchor="start" x="181" y="-89.5" font-family="Helvetica,sans-Serif" font-size="10.00">ServoUsingMotorDriver</text>
<text text-anchor="middle" x="238.5" y="-78.5" font-family="Helvetica,sans-Serif" font-size="10.00">::logger</text>
</a>
</g>
</g>
<!-- Node1&#45;&gt;Node26 -->
<g id="edge36" class="edge">
<title>Node1&#45;&gt;Node26</title>
<path fill="none" stroke="midnightblue" d="M95.38,-169.4C124.12,-152.64 170.65,-125.5 202.59,-106.87"/>
<polygon fill="midnightblue" stroke="midnightblue" points="204.71,-109.68 211.59,-101.61 201.19,-103.63 204.71,-109.68"/>
</g>
<!-- Node3 -->
<g id="node3" class="node">
<title>Node3</title>
<g id="a_node3"><a xlink:href="classMD25.html#ac78a4063feb8f42f61005dd5b6a09e9c" target="_top" xlink:title=" ">
<polygon fill="white" stroke="black" points="340,-517 340,-536 471,-536 471,-517 340,-517"/>
<text text-anchor="middle" x="405.5" y="-524" font-family="Helvetica,sans-Serif" font-size="10.00">MD25::acceleration_set</text>
</a>
</g>
</g>
<!-- Node2&#45;&gt;Node3 -->
<g id="edge2" class="edge">
<title>Node2&#45;&gt;Node3</title>
<path fill="none" stroke="midnightblue" d="M241.74,-327.08C249.49,-358.14 278.18,-456.95 340,-507.5 342.25,-509.34 344.66,-510.99 347.2,-512.49"/>
<polygon fill="midnightblue" stroke="midnightblue" points="345.68,-515.65 356.18,-516.99 348.81,-509.39 345.68,-515.65"/>
</g>
<!-- Node5 -->
<g id="node5" class="node">
<title>Node5</title>
<g id="a_node5"><a xlink:href="classMD25.html#a747a8ef8b9ee88ed40cd89f7d00803f5" target="_top" xlink:title=" ">
<polygon fill="white" stroke="black" points="341.5,-479 341.5,-498 469.5,-498 469.5,-479 341.5,-479"/>
<text text-anchor="middle" x="405.5" y="-486" font-family="Helvetica,sans-Serif" font-size="10.00">MD25::auto_speed_set</text>
</a>
</g>
</g>
<!-- Node2&#45;&gt;Node5 -->
<g id="edge4" class="edge">
<title>Node2&#45;&gt;Node5</title>
<path fill="none" stroke="midnightblue" d="M243.04,-327.01C253.49,-353.76 286.83,-430.2 340,-469.5 342.63,-471.44 345.45,-473.19 348.4,-474.76"/>
<polygon fill="midnightblue" stroke="midnightblue" points="346.99,-477.96 357.53,-478.94 349.9,-471.59 346.99,-477.96"/>
</g>
<!-- Node2&#45;&gt;Node6 -->
<g id="edge6" class="edge">
<title>Node2&#45;&gt;Node6</title>
<path fill="none" stroke="midnightblue" d="M250.92,-307.92C268.93,-293.19 305.43,-264.75 340,-246.5 347.67,-242.45 356.18,-238.77 364.43,-235.57"/>
<polygon fill="midnightblue" stroke="midnightblue" points="365.78,-238.8 373.93,-232.05 363.34,-232.24 365.78,-238.8"/>
</g>
<!-- Node8 -->
<g id="node8" class="node">
<title>Node8</title>
<g id="a_node8"><a xlink:href="classMD25.html#a9c07b80a2e628d11dee6997c137e1737" target="_top" xlink:title=" ">
<polygon fill="white" stroke="black" points="345.5,-441 345.5,-460 465.5,-460 465.5,-441 345.5,-441"/>
<text text-anchor="middle" x="405.5" y="-448" font-family="Helvetica,sans-Serif" font-size="10.00">MD25::encoder_reset</text>
</a>
</g>
</g>
<!-- Node2&#45;&gt;Node8 -->
<g id="edge8" class="edge">
<title>Node2&#45;&gt;Node8</title>
<path fill="none" stroke="midnightblue" d="M245.23,-327.08C258.83,-348.98 295.28,-403 340,-431.5 343.19,-433.53 346.61,-435.36 350.14,-436.99"/>
<polygon fill="midnightblue" stroke="midnightblue" points="349.11,-440.35 359.69,-440.88 351.76,-433.87 349.11,-440.35"/>
</g>
<!-- Node2&#45;&gt;Node9 -->
<g id="edge10" class="edge">
<title>Node2&#45;&gt;Node9</title>
<path fill="none" stroke="midnightblue" d="M245.23,-307.92C258.83,-286.02 295.28,-232 340,-203.5 347.58,-198.67 356.44,-195.02 365.12,-192.29"/>
<polygon fill="midnightblue" stroke="midnightblue" points="366.09,-195.65 374.77,-189.58 364.19,-188.92 366.09,-195.65"/>
</g>
<!-- Node13 -->
<g id="node13" class="node">
<title>Node13</title>
<g id="a_node13"><a xlink:href="classMD25.html#a56dfe75772bf4f89b663f433e17d0cda" target="_top" xlink:title="Retourne le Logger associé à la classe MD25 (OPOS6UL).">
<polygon fill="white" stroke="black" points="364.5,-99 364.5,-118 446.5,-118 446.5,-99 364.5,-99"/>
<text text-anchor="middle" x="405.5" y="-106" font-family="Helvetica,sans-Serif" font-size="10.00">MD25::logger</text>
</a>
</g>
</g>
<!-- Node2&#45;&gt;Node13 -->
<g id="edge15" class="edge">
<title>Node2&#45;&gt;Node13</title>
<path fill="none" stroke="midnightblue" d="M244.61,-308C258.22,-283.14 297.24,-214.68 340,-165.5 353.19,-150.33 370.33,-135.36 383.63,-124.57"/>
<polygon fill="midnightblue" stroke="midnightblue" points="386.08,-127.09 391.73,-118.13 381.72,-121.61 386.08,-127.09"/>
</g>
<!-- Node19 -->
<g id="node19" class="node">
<title>Node19</title>
<g id="a_node19"><a xlink:href="classMD25.html#a7d72d9ae0eb96f3ae66ed301f8f3784c" target="_top" xlink:title=" ">
<polygon fill="white" stroke="black" points="356,-289 356,-308 455,-308 455,-289 356,-289"/>
<text text-anchor="middle" x="405.5" y="-296" font-family="Helvetica,sans-Serif" font-size="10.00">MD25::mode_set</text>
</a>
</g>
</g>
<!-- Node2&#45;&gt;Node19 -->
<g id="edge21" class="edge">
<title>Node2&#45;&gt;Node19</title>
<path fill="none" stroke="midnightblue" d="M277.77,-313.09C297.91,-310.77 323.05,-307.88 345.62,-305.28"/>
<polygon fill="midnightblue" stroke="midnightblue" points="346.24,-308.73 355.78,-304.11 345.44,-301.78 346.24,-308.73"/>
</g>
<!-- Node22 -->
<g id="node22" class="node">
<title>Node22</title>
<g id="a_node22"><a xlink:href="classMD25.html#a5c29ea1b8e26f73a6bbd3d8683125e7b" target="_top" xlink:title=" ">
<polygon fill="white" stroke="black" points="534,-251.5 534,-281.5 648,-281.5 648,-251.5 534,-251.5"/>
<text text-anchor="start" x="542" y="-269.5" font-family="Helvetica,sans-Serif" font-size="10.00">MD25::software_rev</text>
<text text-anchor="middle" x="591" y="-258.5" font-family="Helvetica,sans-Serif" font-size="10.00">_num_get</text>
</a>
</g>
</g>
<!-- Node2&#45;&gt;Node22 -->
<g id="edge25" class="edge">
<title>Node2&#45;&gt;Node22</title>
<path fill="none" stroke="midnightblue" d="M259.35,-307.89C279.23,-298.77 310.97,-285.59 340,-279.5 401.28,-266.65 472.77,-264.14 523.57,-264.41"/>
<polygon fill="midnightblue" stroke="midnightblue" points="523.73,-267.91 533.76,-264.5 523.79,-260.91 523.73,-267.91"/>
</g>
<!-- Node23 -->
<g id="node23" class="node">
<title>Node23</title>
<g id="a_node23"><a xlink:href="classMD25.html#abe7ee6bd26e5e2ae99813cae9c61e71a" target="_top" xlink:title=" ">
<polygon fill="white" stroke="black" points="352,-403 352,-422 459,-422 459,-403 352,-403"/>
<text text-anchor="middle" x="405.5" y="-410" font-family="Helvetica,sans-Serif" font-size="10.00">MD25::speed1_set</text>
</a>
</g>
</g>
<!-- Node2&#45;&gt;Node23 -->
<g id="edge27" class="edge">
<title>Node2&#45;&gt;Node23</title>
<path fill="none" stroke="midnightblue" d="M249.51,-327.07C266.68,-343.02 303.47,-375.08 340,-393.5 344.51,-395.77 349.34,-397.82 354.25,-399.66"/>
<polygon fill="midnightblue" stroke="midnightblue" points="353.13,-402.97 363.73,-402.92 355.41,-396.35 353.13,-402.97"/>
</g>
<!-- Node24 -->
<g id="node24" class="node">
<title>Node24</title>
<g id="a_node24"><a xlink:href="classMD25.html#a6c6e97578285a3d47217df4f150b21c2" target="_top" xlink:title=" ">
<polygon fill="white" stroke="black" points="352,-365 352,-384 459,-384 459,-365 352,-365"/>
<text text-anchor="middle" x="405.5" y="-372" font-family="Helvetica,sans-Serif" font-size="10.00">MD25::speed2_set</text>
</a>
</g>
</g>
<!-- Node2&#45;&gt;Node24 -->
<g id="edge29" class="edge">
<title>Node2&#45;&gt;Node24</title>
<path fill="none" stroke="midnightblue" d="M263.28,-327.07C283.53,-335.08 313.48,-346.59 340,-355.5 346.54,-357.7 353.5,-359.89 360.34,-361.97"/>
<polygon fill="midnightblue" stroke="midnightblue" points="359.62,-365.41 370.21,-364.92 361.63,-358.7 359.62,-365.41"/>
</g>
<!-- Node25 -->
<g id="node25" class="node">
<title>Node25</title>
<g id="a_node25"><a xlink:href="classMD25.html#abfbe344f7036e735e88894592be787bf" target="_top" xlink:title=" ">
<polygon fill="white" stroke="black" points="350.5,-327 350.5,-346 460.5,-346 460.5,-327 350.5,-327"/>
<text text-anchor="middle" x="405.5" y="-334" font-family="Helvetica,sans-Serif" font-size="10.00">MD25::timeout_set</text>
</a>
</g>
</g>
<!-- Node2&#45;&gt;Node25 -->
<g id="edge31" class="edge">
<title>Node2&#45;&gt;Node25</title>
<path fill="none" stroke="midnightblue" d="M277.77,-321.91C296.26,-324.04 318.96,-326.65 340.01,-329.07"/>
<polygon fill="midnightblue" stroke="midnightblue" points="339.85,-332.58 350.19,-330.25 340.65,-325.62 339.85,-332.58"/>
</g>
<!-- Node4 -->
<g id="node4" class="node">
<title>Node4</title>
<g id="a_node4"><a xlink:href="classMD25.html#aeeae0dee35465733ab82832138e541f5" target="_top" xlink:title=" ">
<polygon fill="white" stroke="black" points="553,-403 553,-422 629,-422 629,-403 553,-403"/>
<text text-anchor="middle" x="591" y="-410" font-family="Helvetica,sans-Serif" font-size="10.00">MD25::write</text>
</a>
</g>
</g>
<!-- Node3&#45;&gt;Node4 -->
<g id="edge3" class="edge">
<title>Node3&#45;&gt;Node4</title>
<path fill="none" stroke="midnightblue" d="M447.69,-516.96C455.65,-514.4 463.75,-511.27 471,-507.5 511.54,-486.39 551.61,-450.46 573.34,-429.35"/>
<polygon fill="midnightblue" stroke="midnightblue" points="576.08,-431.57 580.74,-422.06 571.16,-426.59 576.08,-431.57"/>
</g>
<!-- Node5&#45;&gt;Node4 -->
<g id="edge5" class="edge">
<title>Node5&#45;&gt;Node4</title>
<path fill="none" stroke="midnightblue" d="M442.66,-478.95C451.99,-476.19 461.95,-472.97 471,-469.5 503.52,-457.02 539.39,-439.25 563.16,-426.89"/>
<polygon fill="midnightblue" stroke="midnightblue" points="565.03,-429.86 572.25,-422.11 561.77,-423.66 565.03,-429.86"/>
</g>
<!-- Node7 -->
<g id="node7" class="node">
<title>Node7</title>
<g id="a_node7"><a xlink:href="classlogs_1_1Logger.html#afa535aaf4891e02c4ff7f84d372b5b1b" target="_top" xlink:title="Méthode générique de trace d&#39;un message.">
<polygon fill="white" stroke="black" points="711,-213 711,-232 861,-232 861,-213 711,-213"/>
<text text-anchor="middle" x="786" y="-220" font-family="Helvetica,sans-Serif" font-size="10.00">logs::Logger::writeMessage</text>
</a>
</g>
</g>
<!-- Node6&#45;&gt;Node7 -->
<g id="edge7" class="edge">
<title>Node6&#45;&gt;Node7</title>
<path fill="none" stroke="midnightblue" d="M461.54,-222.5C524.3,-222.5 627.63,-222.5 700.59,-222.5"/>
<polygon fill="midnightblue" stroke="midnightblue" points="700.68,-226 710.68,-222.5 700.68,-219 700.68,-226"/>
</g>
<!-- Node8&#45;&gt;Node4 -->
<g id="edge9" class="edge">
<title>Node8&#45;&gt;Node4</title>
<path fill="none" stroke="midnightblue" d="M452.8,-440.91C480.42,-435.19 515.37,-427.95 543.09,-422.21"/>
<polygon fill="midnightblue" stroke="midnightblue" points="543.87,-425.63 552.95,-420.17 542.45,-418.77 543.87,-425.63"/>
</g>
<!-- Node10 -->
<g id="node10" class="node">
<title>Node10</title>
<g id="a_node10"><a xlink:href="classlogs_1_1Logger_1_1LoggerBuffer.html#a0e4fd77693fd899ec1b0670354f93a02" target="_top" xlink:title="Cette méthode valide le message en cours de construction et le transmet au Logger de référence.">
<polygon fill="white" stroke="black" points="507,-175 507,-194 675,-194 675,-175 507,-175"/>
<text text-anchor="middle" x="591" y="-182" font-family="Helvetica,sans-Serif" font-size="10.00">logs::Logger::LoggerBuffer::end</text>
</a>
</g>
</g>
<!-- Node9&#45;&gt;Node10 -->
<g id="edge11" class="edge">
<title>Node9&#45;&gt;Node10</title>
<path fill="none" stroke="midnightblue" d="M436.39,-184.5C453.04,-184.5 474.76,-184.5 496.62,-184.5"/>
<polygon fill="midnightblue" stroke="midnightblue" points="496.65,-188 506.65,-184.5 496.65,-181 496.65,-188"/>
</g>
<!-- Node10&#45;&gt;Node7 -->
<g id="edge14" class="edge">
<title>Node10&#45;&gt;Node7</title>
<path fill="none" stroke="midnightblue" d="M640.7,-194.09C666.86,-199.24 699.28,-205.62 726.77,-211.03"/>
<polygon fill="midnightblue" stroke="midnightblue" points="726.16,-214.48 736.65,-212.98 727.51,-207.61 726.16,-214.48"/>
</g>
<!-- Node11 -->
<g id="node11" class="node">
<title>Node11</title>
<g id="a_node11"><a xlink:href="classutils_1_1Mutex.html#aa584b418a5ef484f76b93e361a1d7e32" target="_top" xlink:title="Verrouille le mutex. Cette méthode doit être appelée avant d&#39;utiliser la ressource associée....">
<polygon fill="white" stroke="black" points="735.5,-175 735.5,-194 836.5,-194 836.5,-175 735.5,-175"/>
<text text-anchor="middle" x="786" y="-182" font-family="Helvetica,sans-Serif" font-size="10.00">utils::Mutex::lock</text>
</a>
</g>
</g>
<!-- Node10&#45;&gt;Node11 -->
<g id="edge12" class="edge">
<title>Node10&#45;&gt;Node11</title>
<path fill="none" stroke="midnightblue" d="M675.25,-184.5C692.07,-184.5 709.44,-184.5 725.26,-184.5"/>
<polygon fill="midnightblue" stroke="midnightblue" points="725.41,-188 735.41,-184.5 725.41,-181 725.41,-188"/>
</g>
<!-- Node12 -->
<g id="node12" class="node">
<title>Node12</title>
<g id="a_node12"><a xlink:href="classutils_1_1Mutex.html#a59b2079dc7f803d49f78ac9c04406cd3" target="_top" xlink:title="Déverrouille le mutex. Cette méthode doit être appelée après avoir utiliser la ressource associée.">
<polygon fill="white" stroke="black" points="729.5,-137 729.5,-156 842.5,-156 842.5,-137 729.5,-137"/>
<text text-anchor="middle" x="786" y="-144" font-family="Helvetica,sans-Serif" font-size="10.00">utils::Mutex::unlock</text>
</a>
</g>
</g>
<!-- Node10&#45;&gt;Node12 -->
<g id="edge13" class="edge">
<title>Node10&#45;&gt;Node12</title>
<path fill="none" stroke="midnightblue" d="M640.7,-174.91C666.86,-169.76 699.28,-163.38 726.77,-157.97"/>
<polygon fill="midnightblue" stroke="midnightblue" points="727.51,-161.39 736.65,-156.02 726.16,-154.52 727.51,-161.39"/>
</g>
<!-- Node13&#45;&gt;Node14 -->
<g id="edge16" class="edge">
<title>Node13&#45;&gt;Node14</title>
<path fill="none" stroke="midnightblue" d="M446.77,-113.33C472.61,-116.43 506.5,-120.49 534.83,-123.89"/>
<polygon fill="midnightblue" stroke="midnightblue" points="534.65,-127.39 544.99,-125.1 535.48,-120.44 534.65,-127.39"/>
</g>
<!-- Node15 -->
<g id="node15" class="node">
<title>Node15</title>
<g id="a_node15"><a xlink:href="classlogs_1_1LoggerFactory.html#a82585b5de73e471e06cafdccc3b3721e" target="_top" xlink:title="Cette méthode statique retourne un Logger en fonction de son nom.">
<polygon fill="white" stroke="black" points="535.5,-55.5 535.5,-85.5 646.5,-85.5 646.5,-55.5 535.5,-55.5"/>
<text text-anchor="start" x="543.5" y="-73.5" font-family="Helvetica,sans-Serif" font-size="10.00">logs::LoggerFactory</text>
<text text-anchor="middle" x="591" y="-62.5" font-family="Helvetica,sans-Serif" font-size="10.00">::logger</text>
</a>
</g>
</g>
<!-- Node13&#45;&gt;Node15 -->
<g id="edge17" class="edge">
<title>Node13&#45;&gt;Node15</title>
<path fill="none" stroke="midnightblue" d="M446.77,-100.16C469.78,-95.4 499.18,-89.31 525.35,-83.89"/>
<polygon fill="midnightblue" stroke="midnightblue" points="526.12,-87.3 535.21,-81.85 524.7,-80.45 526.12,-87.3"/>
</g>
<!-- Node16 -->
<g id="node16" class="node">
<title>Node16</title>
<g id="a_node16"><a xlink:href="classlogs_1_1LoggerFactory.html#ac89f19c0ffd71aa8cdc1c2d44c03809e" target="_top" xlink:title="Cette méthode ajoute un appender au système.">
<polygon fill="white" stroke="black" points="719,-99 719,-118 853,-118 853,-99 719,-99"/>
<text text-anchor="middle" x="786" y="-106" font-family="Helvetica,sans-Serif" font-size="10.00">logs::LoggerFactory::add</text>
</a>
</g>
</g>
<!-- Node15&#45;&gt;Node16 -->
<g id="edge18" class="edge">
<title>Node15&#45;&gt;Node16</title>
<path fill="none" stroke="midnightblue" d="M646.53,-81.24C671.53,-86.16 701.19,-92 726.63,-97.01"/>
<polygon fill="midnightblue" stroke="midnightblue" points="726.03,-100.46 736.52,-98.96 727.39,-93.59 726.03,-100.46"/>
</g>
<!-- Node17 -->
<g id="node17" class="node">
<title>Node17</title>
<g id="a_node17"><a xlink:href="classlogs_1_1LoggerFactory.html#a90478b91d7af2ef8841ded21e3521f69" target="_top" xlink:title="Cette méthode statique retourne l&#39;instance unique de la classe LoggerFactory.">
<polygon fill="white" stroke="black" points="730.5,-49.5 730.5,-79.5 841.5,-79.5 841.5,-49.5 730.5,-49.5"/>
<text text-anchor="start" x="738.5" y="-67.5" font-family="Helvetica,sans-Serif" font-size="10.00">logs::LoggerFactory</text>
<text text-anchor="middle" x="786" y="-56.5" font-family="Helvetica,sans-Serif" font-size="10.00">::instance</text>
</a>
</g>
</g>
<!-- Node15&#45;&gt;Node17 -->
<g id="edge19" class="edge">
<title>Node15&#45;&gt;Node17</title>
<path fill="none" stroke="midnightblue" d="M646.53,-68.8C669.45,-68.09 696.3,-67.26 720.22,-66.51"/>
<polygon fill="midnightblue" stroke="midnightblue" points="720.38,-70.01 730.27,-66.2 720.16,-63.01 720.38,-70.01"/>
</g>
<!-- Node18 -->
<g id="node18" class="node">
<title>Node18</title>
<g id="a_node18"><a xlink:href="classlogs_1_1LoggerFactory.html#a212aa623f4b6bee12cb39e8017dde670" target="_top" xlink:title="Cette méthode retourne le Logger principal qui définit le niveau de trace par défaut.">
<polygon fill="white" stroke="black" points="730.5,-0.5 730.5,-30.5 841.5,-30.5 841.5,-0.5 730.5,-0.5"/>
<text text-anchor="start" x="738.5" y="-18.5" font-family="Helvetica,sans-Serif" font-size="10.00">logs::LoggerFactory</text>
<text text-anchor="middle" x="786" y="-7.5" font-family="Helvetica,sans-Serif" font-size="10.00">::rootLogger</text>
</a>
</g>
</g>
<!-- Node15&#45;&gt;Node18 -->
<g id="edge20" class="edge">
<title>Node15&#45;&gt;Node18</title>
<path fill="none" stroke="midnightblue" d="M644.74,-55.47C668.78,-48.62 697.42,-40.46 722.53,-33.3"/>
<polygon fill="midnightblue" stroke="midnightblue" points="723.67,-36.62 732.33,-30.51 721.75,-29.89 723.67,-36.62"/>
</g>
<!-- Node19&#45;&gt;Node4 -->
<g id="edge24" class="edge">
<title>Node19&#45;&gt;Node4</title>
<path fill="none" stroke="midnightblue" d="M447.69,-308.04C455.65,-310.6 463.75,-313.73 471,-317.5 511.54,-338.61 551.61,-374.54 573.34,-395.65"/>
<polygon fill="midnightblue" stroke="midnightblue" points="571.16,-398.41 580.74,-402.94 576.08,-393.43 571.16,-398.41"/>
</g>
<!-- Node20 -->
<g id="node20" class="node">
<title>Node20</title>
<g id="a_node20"><a xlink:href="classMD25.html#a9edb00cc2a917a093542c968103b8075" target="_top" xlink:title=" ">
<polygon fill="white" stroke="black" points="541,-301 541,-320 641,-320 641,-301 541,-301"/>
<text text-anchor="middle" x="591" y="-308" font-family="Helvetica,sans-Serif" font-size="10.00">MD25::mode_get</text>
</a>
</g>
</g>
<!-- Node19&#45;&gt;Node20 -->
<g id="edge22" class="edge">
<title>Node19&#45;&gt;Node20</title>
<path fill="none" stroke="midnightblue" d="M455.19,-301.68C478.33,-303.2 506.18,-305.02 530.55,-306.61"/>
<polygon fill="midnightblue" stroke="midnightblue" points="530.55,-310.12 540.76,-307.28 531.01,-303.13 530.55,-310.12"/>
</g>
<!-- Node21 -->
<g id="node21" class="node">
<title>Node21</title>
<g id="a_node21"><a xlink:href="classMD25.html#a4cb2f76f2bc199b97ba138802da07b91" target="_top" xlink:title=" ">
<polygon fill="white" stroke="black" points="749.5,-279 749.5,-298 822.5,-298 822.5,-279 749.5,-279"/>
<text text-anchor="middle" x="786" y="-286" font-family="Helvetica,sans-Serif" font-size="10.00">MD25::read</text>
</a>
</g>
</g>
<!-- Node20&#45;&gt;Node21 -->
<g id="edge23" class="edge">
<title>Node20&#45;&gt;Node21</title>
<path fill="none" stroke="midnightblue" d="M641.2,-304.89C671.37,-301.45 709.74,-297.08 739.25,-293.71"/>
<polygon fill="midnightblue" stroke="midnightblue" points="739.75,-297.18 749.29,-292.57 738.96,-290.23 739.75,-297.18"/>
</g>
<!-- Node22&#45;&gt;Node21 -->
<g id="edge26" class="edge">
<title>Node22&#45;&gt;Node21</title>
<path fill="none" stroke="midnightblue" d="M648.08,-272.89C677.1,-276.2 712.06,-280.19 739.39,-283.3"/>
<polygon fill="midnightblue" stroke="midnightblue" points="739.14,-286.79 749.47,-284.45 739.93,-279.84 739.14,-286.79"/>
</g>
<!-- Node23&#45;&gt;Node4 -->
<g id="edge28" class="edge">
<title>Node23&#45;&gt;Node4</title>
<path fill="none" stroke="midnightblue" d="M459.08,-412.5C485.43,-412.5 517.07,-412.5 542.65,-412.5"/>
<polygon fill="midnightblue" stroke="midnightblue" points="542.85,-416 552.85,-412.5 542.85,-409 542.85,-416"/>
</g>
<!-- Node24&#45;&gt;Node4 -->
<g id="edge30" class="edge">
<title>Node24&#45;&gt;Node4</title>
<path fill="none" stroke="midnightblue" d="M452.8,-384.09C480.42,-389.81 515.37,-397.05 543.09,-402.79"/>
<polygon fill="midnightblue" stroke="midnightblue" points="542.45,-406.23 552.95,-404.83 543.87,-399.37 542.45,-406.23"/>
</g>
<!-- Node25&#45;&gt;Node4 -->
<g id="edge32" class="edge">
<title>Node25&#45;&gt;Node4</title>
<path fill="none" stroke="midnightblue" d="M442.66,-346.05C451.99,-348.81 461.95,-352.03 471,-355.5 503.52,-367.98 539.39,-385.75 563.16,-398.11"/>
<polygon fill="midnightblue" stroke="midnightblue" points="561.77,-401.34 572.25,-402.89 565.03,-395.14 561.77,-401.34"/>
</g>
<!-- Node26&#45;&gt;Node15 -->
<g id="edge37" class="edge">
<title>Node26&#45;&gt;Node15</title>
<path fill="none" stroke="midnightblue" d="M304.2,-83.55C367.15,-80.67 462.28,-76.33 525.26,-73.46"/>
<polygon fill="midnightblue" stroke="midnightblue" points="525.63,-76.94 535.46,-72.99 525.31,-69.95 525.63,-76.94"/>
</g>
</g>
</svg>
        <g id="navigator" transform="translate(0 0)" fill="#404254">
                <rect fill="#f2f5e9" fill-opacity="0.5" stroke="#606060" stroke-width=".5" x="0" y="0" width="60" height="60"/>
                <use id="zoomplus" xlink:href="#zoomPlus" x="17" y="9" onmousedown="handleZoom(evt,'in')"/>
                <use id="zoomminus" xlink:href="#zoomMin" x="42" y="9" onmousedown="handleZoom(evt,'out')"/>
                <use id="reset" xlink:href="#resetDef" x="30" y="36" onmousedown="handleReset()"/>
                <g id="arrowUp" xlink:href="#dirArrow" transform="translate(30 24)" onmousedown="handlePan(0,-1)">
                  <use xlink:href="#rim" fill="#404040">
                        <set attributeName="fill" to="#808080" begin="arrowUp.mouseover" end="arrowUp.mouseout"/>
                  </use>
                  <path fill="none" stroke="white" stroke-width="1.5" d="M0,-3.0v7 M-2.5,-0.5L0,-3.0L2.5,-0.5"/>
                </g>
                <g id="arrowRight" xlink:href="#dirArrow" transform="rotate(90) translate(36 -43)" onmousedown="handlePan(1,0)">
                  <use xlink:href="#rim" fill="#404040">
                        <set attributeName="fill" to="#808080" begin="arrowRight.mouseover" end="arrowRight.mouseout"/>
                  </use>
                  <path fill="none" stroke="white" stroke-width="1.5" d="M0,-3.0v7 M-2.5,-0.5L0,-3.0L2.5,-0.5"/>
                </g>
                <g id="arrowDown" xlink:href="#dirArrow" transform="rotate(180) translate(-30 -48)" onmousedown="handlePan(0,1)">
                  <use xlink:href="#rim" fill="#404040">
                        <set attributeName="fill" to="#808080" begin="arrowDown.mouseover" end="arrowDown.mouseout"/>
                  </use>
                  <path fill="none" stroke="white" stroke-width="1.5" d="M0,-3.0v7 M-2.5,-0.5L0,-3.0L2.5,-0.5"/>
                </g>
                <g id="arrowLeft" xlink:href="#dirArrow" transform="rotate(270) translate(-36 17)" onmousedown="handlePan(-1,0)">
                  <use xlink:href="#rim" fill="#404040">
                        <set attributeName="fill" to="#808080" begin="arrowLeft.mouseover" end="arrowLeft.mouseout"/>
                  </use>
                  <path fill="none" stroke="white" stroke-width="1.5" d="M0,-3.0v7 M-2.5,-0.5L0,-3.0L2.5,-0.5"/>
                </g>
        </g>
        <svg viewBox="0 0 15 15" width="100%" height="30px" preserveAspectRatio="xMaxYMin meet">
         <g id="arrow_out" transform="scale(0.3 0.3)">
          <a xlink:href="classServoUsingMotorDriver_acc8ccf92143efa853b83940d2d690817_cgraph_org.svg" target="_base">
           <rect id="button" ry="5" rx="5" y="6" x="6" height="38" width="38"
                fill="#f2f5e9" fill-opacity="0.5" stroke="#606060" stroke-width="1.0"/>
           <path id="arrow"
             d="M 11.500037,31.436501 C 11.940474,20.09759 22.043105,11.32322 32.158766,21.979434 L 37.068811,17.246167 C 37.068811,17.246167 37.088388,32 37.088388,32 L 22.160133,31.978069 C 22.160133,31.978069 26.997745,27.140456 26.997745,27.140456 C 18.528582,18.264221 13.291696,25.230495 11.500037,31.436501 z"
             style="fill:#404040;"/>
          </a>
         </g>
        </svg>
</svg>
