<?xml version="1.0" encoding="UTF-8" standalone="no"?>
<!DOCTYPE svg PUBLIC "-//W3C//DTD SVG 1.1//EN"
 "http://www.w3.org/Graphics/SVG/1.1/DTD/svg11.dtd">
<!-- Generated by graphviz version 2.43.0 (0)
 -->
<!-- Title: LcdShieldDriver::home Pages: 1 -->
<svg width="1694pt" height="541pt"
 viewBox="0.00 0.00 1694.00 541.10" xmlns="http://www.w3.org/2000/svg" xmlns:xlink="http://www.w3.org/1999/xlink">
<g id="graph0" class="graph" transform="scale(1 1) rotate(0) translate(4 537.1)">
<title>LcdShieldDriver::home</title>
<polygon fill="white" stroke="transparent" points="-4,4 -4,-537.1 1690,-537.1 1690,4 -4,4"/>
<!-- Node1 -->
<g id="node1" class="node">
<title>Node1</title>
<g id="a_node1"><a xlink:title="Remet le curseur en position (0, 0).">
<polygon fill="#bfbfbf" stroke="black" points="0,-299.6 0,-318.6 127,-318.6 127,-299.6 0,-299.6"/>
<text text-anchor="middle" x="63.5" y="-306.6" font-family="Helvetica,sans-Serif" font-size="10.00">LcdShieldDriver::home</text>
</a>
</g>
</g>
<!-- Node2 -->
<g id="node2" class="node">
<title>Node2</title>
<g id="a_node2"><a xlink:href="classAdafruit__RGBLCDShield.html#a891869292cf384f7edb2c4b7ec17c949" target="_top" xlink:title=" ">
<polygon fill="white" stroke="black" points="163,-119.1 163,-149.1 294,-149.1 294,-119.1 163,-119.1"/>
<text text-anchor="start" x="171" y="-137.1" font-family="Helvetica,sans-Serif" font-size="10.00">Adafruit_RGBLCDShield</text>
<text text-anchor="middle" x="228.5" y="-126.1" font-family="Helvetica,sans-Serif" font-size="10.00">::home</text>
</a>
</g>
</g>
<!-- Node1&#45;&gt;Node2 -->
<g id="edge1" class="edge">
<title>Node1&#45;&gt;Node2</title>
<path fill="none" stroke="midnightblue" d="M73.5,-299.44C98.67,-272.41 170.33,-195.48 206.32,-156.83"/>
<polygon fill="midnightblue" stroke="midnightblue" points="209.18,-158.9 213.43,-149.2 204.06,-154.13 209.18,-158.9"/>
</g>
<!-- Node16 -->
<g id="node16" class="node">
<title>Node16</title>
<g id="a_node16"><a xlink:href="classAdafruit__RGBLCDShield.html#a5d6b24992e72f3beb5187b971eec3d42" target="_top" xlink:title=" ">
<polygon fill="white" stroke="black" points="1350.5,-475.1 1350.5,-505.1 1481.5,-505.1 1481.5,-475.1 1350.5,-475.1"/>
<text text-anchor="start" x="1358.5" y="-493.1" font-family="Helvetica,sans-Serif" font-size="10.00">Adafruit_RGBLCDShield</text>
<text text-anchor="middle" x="1416" y="-482.1" font-family="Helvetica,sans-Serif" font-size="10.00">::instance</text>
</a>
</g>
</g>
<!-- Node1&#45;&gt;Node16 -->
<g id="edge48" class="edge">
<title>Node1&#45;&gt;Node16</title>
<path fill="none" stroke="midnightblue" d="M71.41,-318.72C103.07,-361.6 239.39,-533.1 394.5,-533.1 394.5,-533.1 394.5,-533.1 1064.5,-533.1 1160.18,-533.1 1269.48,-517.11 1340.22,-504.64"/>
<polygon fill="midnightblue" stroke="midnightblue" points="1341.14,-508.03 1350.37,-502.82 1339.91,-501.14 1341.14,-508.03"/>
</g>
<!-- Node3 -->
<g id="node3" class="node">
<title>Node3</title>
<g id="a_node3"><a xlink:href="classAdafruit__RGBLCDShield.html#a8e013da901a8360c265a4a4aa508627b" target="_top" xlink:title=" ">
<polygon fill="white" stroke="black" points="330,-152.1 330,-182.1 461,-182.1 461,-152.1 330,-152.1"/>
<text text-anchor="start" x="338" y="-170.1" font-family="Helvetica,sans-Serif" font-size="10.00">Adafruit_RGBLCDShield</text>
<text text-anchor="middle" x="395.5" y="-159.1" font-family="Helvetica,sans-Serif" font-size="10.00">::command</text>
</a>
</g>
</g>
<!-- Node2&#45;&gt;Node3 -->
<g id="edge2" class="edge">
<title>Node2&#45;&gt;Node3</title>
<path fill="none" stroke="midnightblue" d="M294.24,-147.04C302.67,-148.73 311.37,-150.47 319.95,-152.19"/>
<polygon fill="midnightblue" stroke="midnightblue" points="319.46,-155.66 329.95,-154.19 320.83,-148.79 319.46,-155.66"/>
</g>
<!-- Node6 -->
<g id="node6" class="node">
<title>Node6</title>
<g id="a_node6"><a xlink:href="classlogs_1_1Logger.html#a7dffc8f610014ec59b63392da16140e4" target="_top" xlink:title="Trace un message de niveau DEBUG.">
<polygon fill="white" stroke="black" points="1174.5,-327.6 1174.5,-346.6 1286.5,-346.6 1286.5,-327.6 1174.5,-327.6"/>
<text text-anchor="middle" x="1230.5" y="-334.6" font-family="Helvetica,sans-Serif" font-size="10.00">logs::Logger::debug</text>
</a>
</g>
</g>
<!-- Node2&#45;&gt;Node6 -->
<g id="edge42" class="edge">
<title>Node2&#45;&gt;Node6</title>
<path fill="none" stroke="midnightblue" d="M235.88,-149.24C263.88,-213.1 382.57,-457.1 561.5,-457.1 561.5,-457.1 561.5,-457.1 897.5,-457.1 1000.77,-457.1 1043.57,-495.12 1129,-437.1 1158.6,-416.99 1139.03,-389.7 1165,-365.1 1171.18,-359.24 1178.78,-354.5 1186.56,-350.7"/>
<polygon fill="midnightblue" stroke="midnightblue" points="1187.98,-353.9 1195.71,-346.66 1185.15,-347.5 1187.98,-353.9"/>
</g>
<!-- Node11 -->
<g id="node11" class="node">
<title>Node11</title>
<g id="a_node11"><a xlink:href="namespacelogs.html#ac6f325c6cfe6189bc8e243daa184453b" target="_top" xlink:title="Cette méthode permet de finir les flux de construction par la notation.">
<polygon fill="white" stroke="black" points="1200,-150.6 1200,-169.6 1261,-169.6 1261,-150.6 1200,-150.6"/>
<text text-anchor="middle" x="1230.5" y="-157.6" font-family="Helvetica,sans-Serif" font-size="10.00">logs::end</text>
</a>
</g>
</g>
<!-- Node2&#45;&gt;Node11 -->
<g id="edge43" class="edge">
<title>Node2&#45;&gt;Node11</title>
<path fill="none" stroke="midnightblue" d="M294.33,-126.77C422.27,-113.49 716.18,-88.77 962,-111.1 1043.77,-118.52 1137.89,-138.47 1189.84,-150.5"/>
<polygon fill="midnightblue" stroke="midnightblue" points="1189.12,-153.93 1199.66,-152.8 1190.72,-147.11 1189.12,-153.93"/>
</g>
<!-- Node13 -->
<g id="node13" class="node">
<title>Node13</title>
<g id="a_node13"><a xlink:href="classutils_1_1Mutex.html#aa584b418a5ef484f76b93e361a1d7e32" target="_top" xlink:title="Verrouille le mutex. Cette méthode doit être appelée avant d&#39;utiliser la ressource associée....">
<polygon fill="white" stroke="black" points="1560.5,-107.6 1560.5,-126.6 1661.5,-126.6 1661.5,-107.6 1560.5,-107.6"/>
<text text-anchor="middle" x="1611" y="-114.6" font-family="Helvetica,sans-Serif" font-size="10.00">utils::Mutex::lock</text>
</a>
</g>
</g>
<!-- Node2&#45;&gt;Node13 -->
<g id="edge44" class="edge">
<title>Node2&#45;&gt;Node13</title>
<path fill="none" stroke="midnightblue" d="M244.23,-119.03C262.5,-101.41 295.5,-73.01 330,-60.1 426.68,-23.89 458.27,-41.1 561.5,-41.1 561.5,-41.1 561.5,-41.1 897.5,-41.1 1140.71,-41.1 1427.99,-85.42 1550.18,-106.37"/>
<polygon fill="midnightblue" stroke="midnightblue" points="1549.64,-109.83 1560.09,-108.08 1550.83,-102.93 1549.64,-109.83"/>
</g>
<!-- Node14 -->
<g id="node14" class="node">
<title>Node14</title>
<g id="a_node14"><a xlink:href="classutils_1_1Mutex.html#a59b2079dc7f803d49f78ac9c04406cd3" target="_top" xlink:title="Déverrouille le mutex. Cette méthode doit être appelée après avoir utiliser la ressource associée.">
<polygon fill="white" stroke="black" points="1554.5,-31.6 1554.5,-50.6 1667.5,-50.6 1667.5,-31.6 1554.5,-31.6"/>
<text text-anchor="middle" x="1611" y="-38.6" font-family="Helvetica,sans-Serif" font-size="10.00">utils::Mutex::unlock</text>
</a>
</g>
</g>
<!-- Node2&#45;&gt;Node14 -->
<g id="edge47" class="edge">
<title>Node2&#45;&gt;Node14</title>
<path fill="none" stroke="midnightblue" d="M239.45,-119.03C255.49,-96.13 289.41,-53.13 330,-33.1 423.04,12.81 457.75,-3.1 561.5,-3.1 561.5,-3.1 561.5,-3.1 1231.5,-3.1 1341.57,-3.1 1468.74,-19.2 1544.1,-30.44"/>
<polygon fill="midnightblue" stroke="midnightblue" points="1543.97,-33.96 1554.38,-31.99 1545.01,-27.04 1543.97,-33.96"/>
</g>
<!-- Node15 -->
<g id="node15" class="node">
<title>Node15</title>
<g id="a_node15"><a xlink:href="classAdafruit__RGBLCDShield.html#a93313ba4a8e5e896f400006672ff4317" target="_top" xlink:title=" ">
<polygon fill="white" stroke="black" points="1165,-375.1 1165,-405.1 1296,-405.1 1296,-375.1 1165,-375.1"/>
<text text-anchor="start" x="1173" y="-393.1" font-family="Helvetica,sans-Serif" font-size="10.00">Adafruit_RGBLCDShield</text>
<text text-anchor="middle" x="1230.5" y="-382.1" font-family="Helvetica,sans-Serif" font-size="10.00">::logger</text>
</a>
</g>
</g>
<!-- Node2&#45;&gt;Node15 -->
<g id="edge45" class="edge">
<title>Node2&#45;&gt;Node15</title>
<path fill="none" stroke="midnightblue" d="M231.6,-149.25C238.26,-191.96 262.59,-314.89 330,-387.1 407.48,-470.08 447.97,-495.1 561.5,-495.1 561.5,-495.1 561.5,-495.1 897.5,-495.1 1001.09,-495.1 1033.12,-507.29 1129,-468.1 1159.77,-455.52 1189.09,-430.77 1208.04,-412.51"/>
<polygon fill="midnightblue" stroke="midnightblue" points="1210.85,-414.66 1215.5,-405.14 1205.93,-409.68 1210.85,-414.66"/>
</g>
<!-- Node29 -->
<g id="node29" class="node">
<title>Node29</title>
<g id="a_node29"><a xlink:href="namespaceutils.html#a4f86fc4c334661a6995538cc080a40c9" target="_top" xlink:title="Met en pause le thread courant pendant usec microsecondes.">
<polygon fill="white" stroke="black" points="332,-69.6 332,-88.6 459,-88.6 459,-69.6 332,-69.6"/>
<text text-anchor="middle" x="395.5" y="-76.6" font-family="Helvetica,sans-Serif" font-size="10.00">utils::sleep_for_micros</text>
</a>
</g>
</g>
<!-- Node2&#45;&gt;Node29 -->
<g id="edge46" class="edge">
<title>Node2&#45;&gt;Node29</title>
<path fill="none" stroke="midnightblue" d="M274.59,-119.07C300.08,-110.57 331.62,-100.06 355.96,-91.94"/>
<polygon fill="midnightblue" stroke="midnightblue" points="357.19,-95.22 365.57,-88.74 354.98,-88.58 357.19,-95.22"/>
</g>
<!-- Node4 -->
<g id="node4" class="node">
<title>Node4</title>
<g id="a_node4"><a xlink:href="classAdafruit__RGBLCDShield.html#a07aa574d4796eaff43d83eea11ecf878" target="_top" xlink:title=" ">
<polygon fill="white" stroke="black" points="497,-157.1 497,-187.1 628,-187.1 628,-157.1 497,-157.1"/>
<text text-anchor="start" x="505" y="-175.1" font-family="Helvetica,sans-Serif" font-size="10.00">Adafruit_RGBLCDShield</text>
<text text-anchor="middle" x="562.5" y="-164.1" font-family="Helvetica,sans-Serif" font-size="10.00">::send</text>
</a>
</g>
</g>
<!-- Node3&#45;&gt;Node4 -->
<g id="edge3" class="edge">
<title>Node3&#45;&gt;Node4</title>
<path fill="none" stroke="midnightblue" d="M461.24,-169.06C469.67,-169.31 478.37,-169.58 486.95,-169.84"/>
<polygon fill="midnightblue" stroke="midnightblue" points="486.85,-173.34 496.95,-170.14 487.06,-166.34 486.85,-173.34"/>
</g>
<!-- Node5 -->
<g id="node5" class="node">
<title>Node5</title>
<g id="a_node5"><a xlink:href="classAdafruit__RGBLCDShield.html#aead28395830ccd7e74041736aba46e03" target="_top" xlink:title=" ">
<polygon fill="white" stroke="black" points="998,-190.1 998,-220.1 1129,-220.1 1129,-190.1 998,-190.1"/>
<text text-anchor="start" x="1006" y="-208.1" font-family="Helvetica,sans-Serif" font-size="10.00">Adafruit_RGBLCDShield</text>
<text text-anchor="middle" x="1063.5" y="-197.1" font-family="Helvetica,sans-Serif" font-size="10.00">::_digitalWrite</text>
</a>
</g>
</g>
<!-- Node4&#45;&gt;Node5 -->
<g id="edge4" class="edge">
<title>Node4&#45;&gt;Node5</title>
<path fill="none" stroke="midnightblue" d="M603.61,-157.01C677.38,-131.71 838.35,-88 962,-136.1 982.23,-143.96 980.4,-156.39 998,-169.1 1005.87,-174.78 1014.73,-180.25 1023.3,-185.14"/>
<polygon fill="midnightblue" stroke="midnightblue" points="1021.63,-188.21 1032.07,-190 1025.02,-182.09 1021.63,-188.21"/>
</g>
<!-- Node21 -->
<g id="node21" class="node">
<title>Node21</title>
<g id="a_node21"><a xlink:href="classAdafruit__RGBLCDShield.html#ad33f31183ab0e61e92a197d8742f07bc" target="_top" xlink:title=" ">
<polygon fill="white" stroke="black" points="664,-288.1 664,-318.1 795,-318.1 795,-288.1 664,-288.1"/>
<text text-anchor="start" x="672" y="-306.1" font-family="Helvetica,sans-Serif" font-size="10.00">Adafruit_RGBLCDShield</text>
<text text-anchor="middle" x="729.5" y="-295.1" font-family="Helvetica,sans-Serif" font-size="10.00">::write4bits</text>
</a>
</g>
</g>
<!-- Node4&#45;&gt;Node21 -->
<g id="edge21" class="edge">
<title>Node4&#45;&gt;Node21</title>
<path fill="none" stroke="midnightblue" d="M582.43,-187.12C611.69,-210.36 668.03,-255.09 701.54,-281.69"/>
<polygon fill="midnightblue" stroke="midnightblue" points="699.53,-284.57 709.54,-288.04 703.88,-279.08 699.53,-284.57"/>
</g>
<!-- Node28 -->
<g id="node28" class="node">
<title>Node28</title>
<g id="a_node28"><a xlink:href="classAdafruit__RGBLCDShield.html#a4a29b886b14aaab83e9c816d92403add" target="_top" xlink:title=" ">
<polygon fill="white" stroke="black" points="664,-179.1 664,-209.1 795,-209.1 795,-179.1 664,-179.1"/>
<text text-anchor="start" x="672" y="-197.1" font-family="Helvetica,sans-Serif" font-size="10.00">Adafruit_RGBLCDShield</text>
<text text-anchor="middle" x="729.5" y="-186.1" font-family="Helvetica,sans-Serif" font-size="10.00">::write8bits</text>
</a>
</g>
</g>
<!-- Node4&#45;&gt;Node28 -->
<g id="edge38" class="edge">
<title>Node4&#45;&gt;Node28</title>
<path fill="none" stroke="midnightblue" d="M628.24,-180.73C636.67,-181.85 645.37,-183.01 653.95,-184.16"/>
<polygon fill="midnightblue" stroke="midnightblue" points="653.57,-187.64 663.95,-185.49 654.5,-180.7 653.57,-187.64"/>
</g>
<!-- Node5&#45;&gt;Node6 -->
<g id="edge5" class="edge">
<title>Node5&#45;&gt;Node6</title>
<path fill="none" stroke="midnightblue" d="M1074.01,-220.14C1089.95,-244.14 1124.31,-291.01 1165,-317.1 1168.98,-319.65 1173.32,-321.9 1177.79,-323.87"/>
<polygon fill="midnightblue" stroke="midnightblue" points="1176.51,-327.13 1187.09,-327.54 1179.08,-320.61 1176.51,-327.13"/>
</g>
<!-- Node8 -->
<g id="node8" class="node">
<title>Node8</title>
<g id="a_node8"><a xlink:href="classAdafruit__MCP23017.html#a62c7101061540e9af47ea23d5b33fa81" target="_top" xlink:title=" ">
<polygon fill="white" stroke="black" points="1171,-190.1 1171,-220.1 1290,-220.1 1290,-190.1 1171,-190.1"/>
<text text-anchor="start" x="1179" y="-208.1" font-family="Helvetica,sans-Serif" font-size="10.00">Adafruit_MCP23017::</text>
<text text-anchor="middle" x="1230.5" y="-197.1" font-family="Helvetica,sans-Serif" font-size="10.00">digitalWrite</text>
</a>
</g>
</g>
<!-- Node5&#45;&gt;Node8 -->
<g id="edge7" class="edge">
<title>Node5&#45;&gt;Node8</title>
<path fill="none" stroke="midnightblue" d="M1129.24,-205.1C1139.53,-205.1 1150.21,-205.1 1160.59,-205.1"/>
<polygon fill="midnightblue" stroke="midnightblue" points="1160.86,-208.6 1170.86,-205.1 1160.86,-201.6 1160.86,-208.6"/>
</g>
<!-- Node5&#45;&gt;Node11 -->
<g id="edge10" class="edge">
<title>Node5&#45;&gt;Node11</title>
<path fill="none" stroke="midnightblue" d="M1119.9,-189.99C1142.91,-183.71 1169.09,-176.57 1190.08,-170.85"/>
<polygon fill="midnightblue" stroke="midnightblue" points="1191.21,-174.17 1199.94,-168.16 1189.37,-167.41 1191.21,-174.17"/>
</g>
<!-- Node5&#45;&gt;Node15 -->
<g id="edge15" class="edge">
<title>Node5&#45;&gt;Node15</title>
<path fill="none" stroke="midnightblue" d="M1077.11,-220.26C1090.67,-236.88 1112.5,-264.59 1129,-290.1 1147.15,-318.15 1141.21,-332.64 1165,-356.1 1170.27,-361.29 1176.49,-365.88 1182.96,-369.88"/>
<polygon fill="midnightblue" stroke="midnightblue" points="1181.45,-373.05 1191.87,-374.96 1184.92,-366.97 1181.45,-373.05"/>
</g>
<!-- Node7 -->
<g id="node7" class="node">
<title>Node7</title>
<g id="a_node7"><a xlink:href="classlogs_1_1Logger.html#afa535aaf4891e02c4ff7f84d372b5b1b" target="_top" xlink:title="Méthode générique de trace d&#39;un message.">
<polygon fill="white" stroke="black" points="1536,-221.6 1536,-240.6 1686,-240.6 1686,-221.6 1536,-221.6"/>
<text text-anchor="middle" x="1611" y="-228.6" font-family="Helvetica,sans-Serif" font-size="10.00">logs::Logger::writeMessage</text>
</a>
</g>
</g>
<!-- Node6&#45;&gt;Node7 -->
<g id="edge6" class="edge">
<title>Node6&#45;&gt;Node7</title>
<path fill="none" stroke="midnightblue" d="M1286.55,-328.12C1341.39,-318.46 1427.62,-301.29 1500,-278.1 1528.43,-268.99 1559.61,-255.29 1581.49,-245.03"/>
<polygon fill="midnightblue" stroke="midnightblue" points="1583.02,-248.18 1590.55,-240.73 1580.02,-241.86 1583.02,-248.18"/>
</g>
<!-- Node9 -->
<g id="node9" class="node">
<title>Node9</title>
<g id="a_node9"><a xlink:href="classAdafruit__MCP23017.html#a5935341a99356efaf41556b5ee78cd5a" target="_top" xlink:title=" ">
<polygon fill="white" stroke="black" points="1356.5,-239.1 1356.5,-269.1 1475.5,-269.1 1475.5,-239.1 1356.5,-239.1"/>
<text text-anchor="start" x="1364.5" y="-257.1" font-family="Helvetica,sans-Serif" font-size="10.00">Adafruit_MCP23017::</text>
<text text-anchor="middle" x="1416" y="-246.1" font-family="Helvetica,sans-Serif" font-size="10.00">read_i2c</text>
</a>
</g>
</g>
<!-- Node8&#45;&gt;Node9 -->
<g id="edge8" class="edge">
<title>Node8&#45;&gt;Node9</title>
<path fill="none" stroke="midnightblue" d="M1287.8,-220.13C1307.18,-225.3 1329.05,-231.14 1349.11,-236.5"/>
<polygon fill="midnightblue" stroke="midnightblue" points="1348.24,-239.89 1358.8,-239.09 1350.04,-233.13 1348.24,-239.89"/>
</g>
<!-- Node10 -->
<g id="node10" class="node">
<title>Node10</title>
<g id="a_node10"><a xlink:href="classAdafruit__MCP23017.html#a29e5ba320b6ce6812c42ab99f5f4c80d" target="_top" xlink:title=" ">
<polygon fill="white" stroke="black" points="1356.5,-190.1 1356.5,-220.1 1475.5,-220.1 1475.5,-190.1 1356.5,-190.1"/>
<text text-anchor="start" x="1364.5" y="-208.1" font-family="Helvetica,sans-Serif" font-size="10.00">Adafruit_MCP23017::</text>
<text text-anchor="middle" x="1416" y="-197.1" font-family="Helvetica,sans-Serif" font-size="10.00">write_i2c</text>
</a>
</g>
</g>
<!-- Node8&#45;&gt;Node10 -->
<g id="edge9" class="edge">
<title>Node8&#45;&gt;Node10</title>
<path fill="none" stroke="midnightblue" d="M1290.07,-205.1C1307.94,-205.1 1327.76,-205.1 1346.25,-205.1"/>
<polygon fill="midnightblue" stroke="midnightblue" points="1346.36,-208.6 1356.36,-205.1 1346.36,-201.6 1346.36,-208.6"/>
</g>
<!-- Node12 -->
<g id="node12" class="node">
<title>Node12</title>
<g id="a_node12"><a xlink:href="classlogs_1_1Logger_1_1LoggerBuffer.html#a0e4fd77693fd899ec1b0670354f93a02" target="_top" xlink:title="Cette méthode valide le message en cours de construction et le transmet au Logger de référence.">
<polygon fill="white" stroke="black" points="1332,-148.6 1332,-167.6 1500,-167.6 1500,-148.6 1332,-148.6"/>
<text text-anchor="middle" x="1416" y="-155.6" font-family="Helvetica,sans-Serif" font-size="10.00">logs::Logger::LoggerBuffer::end</text>
</a>
</g>
</g>
<!-- Node11&#45;&gt;Node12 -->
<g id="edge11" class="edge">
<title>Node11&#45;&gt;Node12</title>
<path fill="none" stroke="midnightblue" d="M1261.39,-159.77C1278.04,-159.59 1299.76,-159.35 1321.62,-159.11"/>
<polygon fill="midnightblue" stroke="midnightblue" points="1321.69,-162.61 1331.65,-159 1321.61,-155.61 1321.69,-162.61"/>
</g>
<!-- Node12&#45;&gt;Node7 -->
<g id="edge14" class="edge">
<title>Node12&#45;&gt;Node7</title>
<path fill="none" stroke="midnightblue" d="M1458.81,-167.66C1472.13,-171.11 1486.82,-175.34 1500,-180.1 1528.97,-190.56 1560.77,-205.73 1582.69,-216.8"/>
<polygon fill="midnightblue" stroke="midnightblue" points="1581.23,-219.99 1591.73,-221.42 1584.42,-213.75 1581.23,-219.99"/>
</g>
<!-- Node12&#45;&gt;Node13 -->
<g id="edge12" class="edge">
<title>Node12&#45;&gt;Node13</title>
<path fill="none" stroke="midnightblue" d="M1461.76,-148.59C1489.55,-142.68 1525.47,-135.05 1554.99,-128.78"/>
<polygon fill="midnightblue" stroke="midnightblue" points="1556.09,-132.13 1565.15,-126.62 1554.64,-125.28 1556.09,-132.13"/>
</g>
<!-- Node12&#45;&gt;Node14 -->
<g id="edge13" class="edge">
<title>Node12&#45;&gt;Node14</title>
<path fill="none" stroke="midnightblue" d="M1432.79,-148.52C1466.45,-128.12 1545.45,-80.23 1585.62,-55.88"/>
<polygon fill="midnightblue" stroke="midnightblue" points="1587.52,-58.82 1594.26,-50.64 1583.89,-52.83 1587.52,-58.82"/>
</g>
<!-- Node15&#45;&gt;Node16 -->
<g id="edge16" class="edge">
<title>Node15&#45;&gt;Node16</title>
<path fill="none" stroke="midnightblue" d="M1259.37,-405.28C1291.21,-422.64 1343.44,-451.1 1378.51,-470.21"/>
<polygon fill="midnightblue" stroke="midnightblue" points="1377.01,-473.38 1387.47,-475.09 1380.36,-467.23 1377.01,-473.38"/>
</g>
<!-- Node17 -->
<g id="node17" class="node">
<title>Node17</title>
<g id="a_node17"><a xlink:href="classlogs_1_1LoggerFactory.html#a82585b5de73e471e06cafdccc3b3721e" target="_top" xlink:title="Cette méthode statique retourne un Logger en fonction de son nom.">
<polygon fill="white" stroke="black" points="1360.5,-375.1 1360.5,-405.1 1471.5,-405.1 1471.5,-375.1 1360.5,-375.1"/>
<text text-anchor="start" x="1368.5" y="-393.1" font-family="Helvetica,sans-Serif" font-size="10.00">logs::LoggerFactory</text>
<text text-anchor="middle" x="1416" y="-382.1" font-family="Helvetica,sans-Serif" font-size="10.00">::logger</text>
</a>
</g>
</g>
<!-- Node15&#45;&gt;Node17 -->
<g id="edge17" class="edge">
<title>Node15&#45;&gt;Node17</title>
<path fill="none" stroke="midnightblue" d="M1296.2,-390.1C1313.71,-390.1 1332.66,-390.1 1350.18,-390.1"/>
<polygon fill="midnightblue" stroke="midnightblue" points="1350.3,-393.6 1360.3,-390.1 1350.3,-386.6 1350.3,-393.6"/>
</g>
<!-- Node18 -->
<g id="node18" class="node">
<title>Node18</title>
<g id="a_node18"><a xlink:href="classlogs_1_1LoggerFactory.html#ac89f19c0ffd71aa8cdc1c2d44c03809e" target="_top" xlink:title="Cette méthode ajoute un appender au système.">
<polygon fill="white" stroke="black" points="1544,-424.6 1544,-443.6 1678,-443.6 1678,-424.6 1544,-424.6"/>
<text text-anchor="middle" x="1611" y="-431.6" font-family="Helvetica,sans-Serif" font-size="10.00">logs::LoggerFactory::add</text>
</a>
</g>
</g>
<!-- Node17&#45;&gt;Node18 -->
<g id="edge18" class="edge">
<title>Node17&#45;&gt;Node18</title>
<path fill="none" stroke="midnightblue" d="M1471.53,-402.53C1498.71,-408.73 1531.41,-416.18 1558.21,-422.29"/>
<polygon fill="midnightblue" stroke="midnightblue" points="1557.64,-425.75 1568.16,-424.56 1559.19,-418.92 1557.64,-425.75"/>
</g>
<!-- Node19 -->
<g id="node19" class="node">
<title>Node19</title>
<g id="a_node19"><a xlink:href="classlogs_1_1LoggerFactory.html#a90478b91d7af2ef8841ded21e3521f69" target="_top" xlink:title="Cette méthode statique retourne l&#39;instance unique de la classe LoggerFactory.">
<polygon fill="white" stroke="black" points="1555.5,-375.1 1555.5,-405.1 1666.5,-405.1 1666.5,-375.1 1555.5,-375.1"/>
<text text-anchor="start" x="1563.5" y="-393.1" font-family="Helvetica,sans-Serif" font-size="10.00">logs::LoggerFactory</text>
<text text-anchor="middle" x="1611" y="-382.1" font-family="Helvetica,sans-Serif" font-size="10.00">::instance</text>
</a>
</g>
</g>
<!-- Node17&#45;&gt;Node19 -->
<g id="edge19" class="edge">
<title>Node17&#45;&gt;Node19</title>
<path fill="none" stroke="midnightblue" d="M1471.53,-390.1C1494.45,-390.1 1521.3,-390.1 1545.22,-390.1"/>
<polygon fill="midnightblue" stroke="midnightblue" points="1545.27,-393.6 1555.27,-390.1 1545.27,-386.6 1545.27,-393.6"/>
</g>
<!-- Node20 -->
<g id="node20" class="node">
<title>Node20</title>
<g id="a_node20"><a xlink:href="classlogs_1_1LoggerFactory.html#a212aa623f4b6bee12cb39e8017dde670" target="_top" xlink:title="Cette méthode retourne le Logger principal qui définit le niveau de trace par défaut.">
<polygon fill="white" stroke="black" points="1555.5,-326.1 1555.5,-356.1 1666.5,-356.1 1666.5,-326.1 1555.5,-326.1"/>
<text text-anchor="start" x="1563.5" y="-344.1" font-family="Helvetica,sans-Serif" font-size="10.00">logs::LoggerFactory</text>
<text text-anchor="middle" x="1611" y="-333.1" font-family="Helvetica,sans-Serif" font-size="10.00">::rootLogger</text>
</a>
</g>
</g>
<!-- Node17&#45;&gt;Node20 -->
<g id="edge20" class="edge">
<title>Node17&#45;&gt;Node20</title>
<path fill="none" stroke="midnightblue" d="M1471.53,-376.25C1494.56,-370.41 1521.54,-363.56 1545.54,-357.46"/>
<polygon fill="midnightblue" stroke="midnightblue" points="1546.44,-360.85 1555.27,-354.99 1544.71,-354.06 1546.44,-360.85"/>
</g>
<!-- Node21&#45;&gt;Node5 -->
<g id="edge22" class="edge">
<title>Node21&#45;&gt;Node5</title>
<path fill="none" stroke="midnightblue" d="M781.65,-288C840.95,-270.49 938.62,-241.66 1001.74,-223.03"/>
<polygon fill="midnightblue" stroke="midnightblue" points="1002.97,-226.32 1011.57,-220.13 1000.99,-219.61 1002.97,-226.32"/>
</g>
<!-- Node22 -->
<g id="node22" class="node">
<title>Node22</title>
<g id="a_node22"><a xlink:href="classAdafruit__RGBLCDShield.html#a1668a3877e0d9960df698b68195b3d27" target="_top" xlink:title=" ">
<polygon fill="white" stroke="black" points="998,-300.1 998,-330.1 1129,-330.1 1129,-300.1 998,-300.1"/>
<text text-anchor="start" x="1006" y="-318.1" font-family="Helvetica,sans-Serif" font-size="10.00">Adafruit_RGBLCDShield</text>
<text text-anchor="middle" x="1063.5" y="-307.1" font-family="Helvetica,sans-Serif" font-size="10.00">::_pinMode</text>
</a>
</g>
</g>
<!-- Node21&#45;&gt;Node22 -->
<g id="edge23" class="edge">
<title>Node21&#45;&gt;Node22</title>
<path fill="none" stroke="midnightblue" d="M755.47,-318.2C775.18,-329.2 803.81,-343.17 831,-349.1 887.89,-361.5 904.55,-358.55 962,-349.1 980.69,-346.02 1000.58,-339.93 1017.69,-333.74"/>
<polygon fill="midnightblue" stroke="midnightblue" points="1019.27,-336.89 1027.41,-330.11 1016.82,-330.33 1019.27,-336.89"/>
</g>
<!-- Node24 -->
<g id="node24" class="node">
<title>Node24</title>
<g id="a_node24"><a xlink:href="classAdafruit__RGBLCDShield.html#a59fb0fd79b214abe02fee3459ef69f96" target="_top" xlink:title=" ">
<polygon fill="white" stroke="black" points="831,-146.1 831,-176.1 962,-176.1 962,-146.1 831,-146.1"/>
<text text-anchor="start" x="839" y="-164.1" font-family="Helvetica,sans-Serif" font-size="10.00">Adafruit_RGBLCDShield</text>
<text text-anchor="middle" x="896.5" y="-153.1" font-family="Helvetica,sans-Serif" font-size="10.00">::pulseEnable</text>
</a>
</g>
</g>
<!-- Node21&#45;&gt;Node24 -->
<g id="edge30" class="edge">
<title>Node21&#45;&gt;Node24</title>
<path fill="none" stroke="midnightblue" d="M748.16,-287.9C777.56,-262.6 836.64,-211.75 870.37,-182.72"/>
<polygon fill="midnightblue" stroke="midnightblue" points="872.67,-185.36 877.97,-176.18 868.11,-180.05 872.67,-185.36"/>
</g>
<!-- Node25 -->
<g id="node25" class="node">
<title>Node25</title>
<g id="a_node25"><a xlink:href="classAdafruit__MCP23017.html#a07d894fe9d749fd7d3d098c99ce1fa64" target="_top" xlink:title=" ">
<polygon fill="white" stroke="black" points="837,-310.1 837,-340.1 956,-340.1 956,-310.1 837,-310.1"/>
<text text-anchor="start" x="845" y="-328.1" font-family="Helvetica,sans-Serif" font-size="10.00">Adafruit_MCP23017::</text>
<text text-anchor="middle" x="896.5" y="-317.1" font-family="Helvetica,sans-Serif" font-size="10.00">readGPIOAB</text>
</a>
</g>
</g>
<!-- Node21&#45;&gt;Node25 -->
<g id="edge34" class="edge">
<title>Node21&#45;&gt;Node25</title>
<path fill="none" stroke="midnightblue" d="M795.24,-311.73C805.64,-313.11 816.43,-314.55 826.92,-315.95"/>
<polygon fill="midnightblue" stroke="midnightblue" points="826.48,-319.42 836.86,-317.28 827.41,-312.49 826.48,-319.42"/>
</g>
<!-- Node26 -->
<g id="node26" class="node">
<title>Node26</title>
<g id="a_node26"><a xlink:href="classAdafruit__MCP23017.html#a4b4845ea14d7207f22b0163ae5c622f2" target="_top" xlink:title=" ">
<polygon fill="white" stroke="black" points="837,-398.1 837,-428.1 956,-428.1 956,-398.1 837,-398.1"/>
<text text-anchor="start" x="845" y="-416.1" font-family="Helvetica,sans-Serif" font-size="10.00">Adafruit_MCP23017::</text>
<text text-anchor="middle" x="896.5" y="-405.1" font-family="Helvetica,sans-Serif" font-size="10.00">writeGPIOAB</text>
</a>
</g>
</g>
<!-- Node21&#45;&gt;Node26 -->
<g id="edge36" class="edge">
<title>Node21&#45;&gt;Node26</title>
<path fill="none" stroke="midnightblue" d="M747.01,-318.28C766.21,-335.43 799.32,-363.51 831,-383.1 836.93,-386.76 843.38,-390.27 849.83,-393.51"/>
<polygon fill="midnightblue" stroke="midnightblue" points="848.7,-396.85 859.22,-398.06 851.75,-390.55 848.7,-396.85"/>
</g>
<!-- Node22&#45;&gt;Node6 -->
<g id="edge24" class="edge">
<title>Node22&#45;&gt;Node6</title>
<path fill="none" stroke="midnightblue" d="M1129.24,-323.73C1140.76,-325.26 1152.77,-326.87 1164.3,-328.4"/>
<polygon fill="midnightblue" stroke="midnightblue" points="1163.92,-331.88 1174.29,-329.74 1164.84,-324.94 1163.92,-331.88"/>
</g>
<!-- Node22&#45;&gt;Node11 -->
<g id="edge25" class="edge">
<title>Node22&#45;&gt;Node11</title>
<path fill="none" stroke="midnightblue" d="M1075.96,-299.91C1088.9,-282.75 1110.53,-253.97 1129,-229.1 1145.11,-207.4 1142.99,-195.77 1165,-180.1 1172.42,-174.81 1181.29,-170.89 1190.03,-167.99"/>
<polygon fill="midnightblue" stroke="midnightblue" points="1191.16,-171.31 1199.77,-165.14 1189.19,-164.59 1191.16,-171.31"/>
</g>
<!-- Node22&#45;&gt;Node15 -->
<g id="edge26" class="edge">
<title>Node22&#45;&gt;Node15</title>
<path fill="none" stroke="midnightblue" d="M1097.89,-330.27C1123.58,-341.95 1159.26,-358.17 1186.99,-370.78"/>
<polygon fill="midnightblue" stroke="midnightblue" points="1185.89,-374.12 1196.44,-375.07 1188.79,-367.75 1185.89,-374.12"/>
</g>
<!-- Node23 -->
<g id="node23" class="node">
<title>Node23</title>
<g id="a_node23"><a xlink:href="classAdafruit__MCP23017.html#a6f2aea0d187cb281a4ed216fd31a6981" target="_top" xlink:title=" ">
<polygon fill="white" stroke="black" points="1171,-278.1 1171,-308.1 1290,-308.1 1290,-278.1 1171,-278.1"/>
<text text-anchor="start" x="1179" y="-296.1" font-family="Helvetica,sans-Serif" font-size="10.00">Adafruit_MCP23017::</text>
<text text-anchor="middle" x="1230.5" y="-285.1" font-family="Helvetica,sans-Serif" font-size="10.00">pinMode</text>
</a>
</g>
</g>
<!-- Node22&#45;&gt;Node23 -->
<g id="edge27" class="edge">
<title>Node22&#45;&gt;Node23</title>
<path fill="none" stroke="midnightblue" d="M1129.24,-306.46C1139.64,-305.08 1150.43,-303.64 1160.92,-302.24"/>
<polygon fill="midnightblue" stroke="midnightblue" points="1161.41,-305.71 1170.86,-300.92 1160.48,-298.77 1161.41,-305.71"/>
</g>
<!-- Node23&#45;&gt;Node9 -->
<g id="edge28" class="edge">
<title>Node23&#45;&gt;Node9</title>
<path fill="none" stroke="midnightblue" d="M1290.07,-280.65C1308.02,-276.83 1327.94,-272.6 1346.51,-268.65"/>
<polygon fill="midnightblue" stroke="midnightblue" points="1347.31,-272.06 1356.36,-266.56 1345.85,-265.21 1347.31,-272.06"/>
</g>
<!-- Node23&#45;&gt;Node10 -->
<g id="edge29" class="edge">
<title>Node23&#45;&gt;Node10</title>
<path fill="none" stroke="midnightblue" d="M1251.31,-278.06C1270.91,-263.78 1302.21,-242.55 1332,-229.1 1336.66,-226.99 1341.56,-225.02 1346.54,-223.18"/>
<polygon fill="midnightblue" stroke="midnightblue" points="1347.9,-226.42 1356.19,-219.82 1345.6,-219.8 1347.9,-226.42"/>
</g>
<!-- Node24&#45;&gt;Node5 -->
<g id="edge31" class="edge">
<title>Node24&#45;&gt;Node5</title>
<path fill="none" stroke="midnightblue" d="M953.82,-176.12C967.42,-179.74 982.08,-183.65 996.09,-187.39"/>
<polygon fill="midnightblue" stroke="midnightblue" points="995.59,-190.88 1006.15,-190.07 997.39,-184.11 995.59,-190.88"/>
</g>
<!-- Node24&#45;&gt;Node13 -->
<g id="edge32" class="edge">
<title>Node24&#45;&gt;Node13</title>
<path fill="none" stroke="midnightblue" d="M962.07,-155.89C1016.23,-151.62 1095.64,-145.56 1165,-141.1 1302.81,-132.23 1464.78,-124.06 1550.23,-119.93"/>
<polygon fill="midnightblue" stroke="midnightblue" points="1550.44,-123.42 1560.26,-119.44 1550.1,-116.43 1550.44,-123.42"/>
</g>
<!-- Node24&#45;&gt;Node14 -->
<g id="edge33" class="edge">
<title>Node24&#45;&gt;Node14</title>
<path fill="none" stroke="midnightblue" d="M962.02,-147.16C973.96,-144.71 986.34,-142.26 998,-140.1 1196.07,-103.4 1431.63,-67.45 1544,-50.76"/>
<polygon fill="midnightblue" stroke="midnightblue" points="1544.78,-54.19 1554.16,-49.26 1543.76,-47.26 1544.78,-54.19"/>
</g>
<!-- Node25&#45;&gt;Node9 -->
<g id="edge35" class="edge">
<title>Node25&#45;&gt;Node9</title>
<path fill="none" stroke="midnightblue" d="M935.13,-309.94C953.78,-302.96 976.79,-295.13 998,-290.1 1118.3,-261.54 1262.9,-255.04 1346.36,-253.89"/>
<polygon fill="midnightblue" stroke="midnightblue" points="1346.51,-257.39 1356.47,-253.78 1346.43,-250.39 1346.51,-257.39"/>
</g>
<!-- Node27 -->
<g id="node27" class="node">
<title>Node27</title>
<g id="a_node27"><a xlink:href="classAdafruit__MCP23017.html#a20fd3536424d0c91dba741894a010fd7" target="_top" xlink:title=" ">
<polygon fill="white" stroke="black" points="1004,-398.1 1004,-428.1 1123,-428.1 1123,-398.1 1004,-398.1"/>
<text text-anchor="start" x="1012" y="-416.1" font-family="Helvetica,sans-Serif" font-size="10.00">Adafruit_MCP23017::</text>
<text text-anchor="middle" x="1063.5" y="-405.1" font-family="Helvetica,sans-Serif" font-size="10.00">writeI2c_3Bytes</text>
</a>
</g>
</g>
<!-- Node26&#45;&gt;Node27 -->
<g id="edge37" class="edge">
<title>Node26&#45;&gt;Node27</title>
<path fill="none" stroke="midnightblue" d="M956.14,-413.1C968.22,-413.1 981.06,-413.1 993.47,-413.1"/>
<polygon fill="midnightblue" stroke="midnightblue" points="993.77,-416.6 1003.77,-413.1 993.77,-409.6 993.77,-416.6"/>
</g>
<!-- Node28&#45;&gt;Node5 -->
<g id="edge39" class="edge">
<title>Node28&#45;&gt;Node5</title>
<path fill="none" stroke="midnightblue" d="M795.3,-196.24C850.49,-198.07 929.8,-200.7 987.68,-202.62"/>
<polygon fill="midnightblue" stroke="midnightblue" points="987.75,-206.12 997.86,-202.95 987.98,-199.13 987.75,-206.12"/>
</g>
<!-- Node28&#45;&gt;Node22 -->
<g id="edge40" class="edge">
<title>Node28&#45;&gt;Node22</title>
<path fill="none" stroke="midnightblue" d="M771.88,-209.18C832.56,-231.29 945.59,-272.49 1011.38,-296.47"/>
<polygon fill="midnightblue" stroke="midnightblue" points="1010.53,-299.88 1021.12,-300.02 1012.93,-293.3 1010.53,-299.88"/>
</g>
<!-- Node28&#45;&gt;Node24 -->
<g id="edge41" class="edge">
<title>Node28&#45;&gt;Node24</title>
<path fill="none" stroke="midnightblue" d="M795.24,-181.15C803.67,-179.46 812.37,-177.72 820.95,-176.01"/>
<polygon fill="midnightblue" stroke="midnightblue" points="821.83,-179.4 830.95,-174.01 820.46,-172.54 821.83,-179.4"/>
</g>
</g>
</svg>
