<?xml version="1.0" encoding="UTF-8" standalone="no"?>
<!DOCTYPE svg PUBLIC "-//W3C//DTD SVG 1.1//EN"
 "http://www.w3.org/Graphics/SVG/1.1/DTD/svg11.dtd">
<!-- Generated by graphviz version 2.43.0 (0)
 -->
<!-- Title: LcdShield::setCursor Pages: 1 -->
<svg width="856pt" height="225pt"
 viewBox="0.00 0.00 856.00 225.28" xmlns="http://www.w3.org/2000/svg" xmlns:xlink="http://www.w3.org/1999/xlink">
<g id="graph0" class="graph" transform="scale(1 1) rotate(0) translate(4 221.28)">
<title>LcdShield::setCursor</title>
<polygon fill="white" stroke="transparent" points="-4,4 -4,-221.28 852,-221.28 852,4 -4,4"/>
<!-- Node1 -->
<g id="node1" class="node">
<title>Node1</title>
<g id="a_node1"><a xlink:title="Positionne le curseur à une position donnée.">
<polygon fill="#bfbfbf" stroke="black" points="732,-95.5 732,-114.5 848,-114.5 848,-95.5 732,-95.5"/>
<text text-anchor="middle" x="790" y="-102.5" font-family="Helvetica,sans-Serif" font-size="10.00">LcdShield::setCursor</text>
</a>
</g>
</g>
<!-- Node2 -->
<g id="node2" class="node">
<title>Node2</title>
<g id="a_node2"><a xlink:href="classOPOS6UL__RobotExtended.html#a73821b0ec83f0ebcdccf8c9e999616a0" target="_top" xlink:title="Affiche les points accumulés pendant le match.">
<polygon fill="white" stroke="black" points="554,-153 554,-183 696,-183 696,-153 554,-153"/>
<text text-anchor="start" x="562" y="-171" font-family="Helvetica,sans-Serif" font-size="10.00">OPOS6UL_RobotExtended</text>
<text text-anchor="middle" x="625" y="-160" font-family="Helvetica,sans-Serif" font-size="10.00">::displayPoints</text>
</a>
</g>
</g>
<!-- Node1&#45;&gt;Node2 -->
<g id="edge1" class="edge">
<title>Node1&#45;&gt;Node2</title>
<path fill="none" stroke="midnightblue" d="M754.72,-118.25C728.49,-128.39 692.3,-142.37 664.98,-152.93"/>
<polygon fill="midnightblue" stroke="midnightblue" points="756.18,-121.44 764.24,-114.57 753.65,-114.91 756.18,-121.44"/>
</g>
<!-- Node3 -->
<g id="node3" class="node">
<title>Node3</title>
<g id="a_node3"><a xlink:href="classO__State__Init.html#abc19788b7457d1f819245dd28367fe91" target="_top" xlink:title="Exécute l&#39;état d&#39;initialisation.">
<polygon fill="white" stroke="black" points="383.5,-197.5 383.5,-216.5 503.5,-216.5 503.5,-197.5 383.5,-197.5"/>
<text text-anchor="middle" x="443.5" y="-204.5" font-family="Helvetica,sans-Serif" font-size="10.00">O_State_Init::execute</text>
</a>
</g>
</g>
<!-- Node1&#45;&gt;Node3 -->
<g id="edge4" class="edge">
<title>Node1&#45;&gt;Node3</title>
<path fill="none" stroke="midnightblue" d="M776.49,-122.83C760.55,-143.9 730.83,-178 696,-193 634.35,-219.55 556.21,-219.3 503.52,-214.83"/>
<polygon fill="midnightblue" stroke="midnightblue" points="779.37,-124.82 782.46,-114.69 773.72,-120.69 779.37,-124.82"/>
</g>
<!-- Node4 -->
<g id="node4" class="node">
<title>Node4</title>
<g id="a_node4"><a xlink:href="classO__State__WaitEndOfMatch.html#aa73613440b37c8dd42181e2e0265ae86" target="_top" xlink:title="Exécute l&#39;état d&#39;attente de fin de match.">
<polygon fill="white" stroke="black" points="0,-109 0,-139 141,-139 141,-109 0,-109"/>
<text text-anchor="start" x="8" y="-127" font-family="Helvetica,sans-Serif" font-size="10.00">O_State_WaitEndOfMatch</text>
<text text-anchor="middle" x="70.5" y="-116" font-family="Helvetica,sans-Serif" font-size="10.00">::execute</text>
</a>
</g>
</g>
<!-- Node1&#45;&gt;Node4 -->
<g id="edge5" class="edge">
<title>Node1&#45;&gt;Node4</title>
<path fill="none" stroke="midnightblue" d="M721.51,-106.79C585.33,-110.39 278.93,-118.51 141.05,-122.16"/>
<polygon fill="midnightblue" stroke="midnightblue" points="721.89,-110.28 731.8,-106.51 721.71,-103.28 721.89,-110.28"/>
</g>
<!-- Node5 -->
<g id="node5" class="node">
<title>Node5</title>
<g id="a_node5"><a xlink:href="classLcdShield.html#a6a7281ea6adf98a4ab23ce79a7a0d323" target="_top" xlink:title="Réinitialise l&#39;écran LCD.">
<polygon fill="white" stroke="black" points="578,-76.5 578,-95.5 672,-95.5 672,-76.5 578,-76.5"/>
<text text-anchor="middle" x="625" y="-83.5" font-family="Helvetica,sans-Serif" font-size="10.00">LcdShield::reset</text>
</a>
</g>
</g>
<!-- Node1&#45;&gt;Node5 -->
<g id="edge6" class="edge">
<title>Node1&#45;&gt;Node5</title>
<path fill="none" stroke="midnightblue" d="M721.75,-97.16C705.09,-95.22 687.61,-93.18 672.22,-91.39"/>
<polygon fill="midnightblue" stroke="midnightblue" points="721.65,-100.67 731.99,-98.35 722.46,-93.72 721.65,-100.67"/>
</g>
<!-- Node9 -->
<g id="node9" class="node">
<title>Node9</title>
<g id="a_node9"><a xlink:href="classO__LcdBoardTest.html#a5fe507797dd1ee404d3fd4a0fd6b7885" target="_top" xlink:title="Execute le test.">
<polygon fill="white" stroke="black" points="567,-38.5 567,-57.5 683,-57.5 683,-38.5 567,-38.5"/>
<text text-anchor="middle" x="625" y="-45.5" font-family="Helvetica,sans-Serif" font-size="10.00">O_LcdBoardTest::run</text>
</a>
</g>
</g>
<!-- Node1&#45;&gt;Node9 -->
<g id="edge11" class="edge">
<title>Node1&#45;&gt;Node9</title>
<path fill="none" stroke="midnightblue" d="M758.46,-91.41C740.49,-83.7 717.19,-74.17 696,-67 685.86,-63.57 674.74,-60.32 664.4,-57.51"/>
<polygon fill="midnightblue" stroke="midnightblue" points="757.29,-94.72 767.86,-95.49 760.08,-88.3 757.29,-94.72"/>
</g>
<!-- Node10 -->
<g id="node10" class="node">
<title>Node10</title>
<g id="a_node10"><a xlink:href="classO__ServoStepTest.html#aefbe5c17504e0782e71a6ca13ed40518" target="_top" xlink:title="Execute le test.">
<polygon fill="white" stroke="black" points="565,-0.5 565,-19.5 685,-19.5 685,-0.5 565,-0.5"/>
<text text-anchor="middle" x="625" y="-7.5" font-family="Helvetica,sans-Serif" font-size="10.00">O_ServoStepTest::run</text>
</a>
</g>
</g>
<!-- Node1&#45;&gt;Node10 -->
<g id="edge12" class="edge">
<title>Node1&#45;&gt;Node10</title>
<path fill="none" stroke="midnightblue" d="M772.79,-88.09C755.36,-70.83 726.07,-44.47 696,-29 688.61,-25.2 680.38,-22.09 672.23,-19.58"/>
<polygon fill="midnightblue" stroke="midnightblue" points="770.41,-90.65 779.93,-95.3 775.39,-85.73 770.41,-90.65"/>
</g>
<!-- Node2&#45;&gt;Node3 -->
<g id="edge2" class="edge">
<title>Node2&#45;&gt;Node3</title>
<path fill="none" stroke="midnightblue" d="M545.08,-185.15C525.65,-189.37 505.53,-193.74 488.44,-197.45"/>
<polygon fill="midnightblue" stroke="midnightblue" points="545.83,-188.57 554.86,-183.02 544.34,-181.73 545.83,-188.57"/>
</g>
<!-- Node2&#45;&gt;Node4 -->
<g id="edge3" class="edge">
<title>Node2&#45;&gt;Node4</title>
<path fill="none" stroke="midnightblue" d="M543.73,-164.19C454.16,-159.56 304.99,-150.77 177,-138 165.42,-136.84 153.15,-135.41 141.23,-133.9"/>
<polygon fill="midnightblue" stroke="midnightblue" points="543.65,-167.69 553.82,-164.7 544.01,-160.7 543.65,-167.69"/>
</g>
<!-- Node6 -->
<g id="node6" class="node">
<title>Node6</title>
<g id="a_node6"><a xlink:href="classOPOS6UL__ActionsExtended.html#a87bb61d89759101cac844e7c399f2f61" target="_top" xlink:title="Arrête tous les périphériques supplémentaires (capteurs, LEDs, LCD) et relâche les servos.">
<polygon fill="white" stroke="black" points="369,-65 369,-95 518,-95 518,-65 369,-65"/>
<text text-anchor="start" x="377" y="-83" font-family="Helvetica,sans-Serif" font-size="10.00">OPOS6UL_ActionsExtended</text>
<text text-anchor="middle" x="443.5" y="-72" font-family="Helvetica,sans-Serif" font-size="10.00">::stopExtra</text>
</a>
</g>
</g>
<!-- Node5&#45;&gt;Node6 -->
<g id="edge7" class="edge">
<title>Node5&#45;&gt;Node6</title>
<path fill="none" stroke="midnightblue" d="M567.7,-84.12C551.97,-83.59 534.65,-83.01 518.08,-82.46"/>
<polygon fill="midnightblue" stroke="midnightblue" points="567.66,-87.62 577.77,-84.45 567.9,-80.62 567.66,-87.62"/>
</g>
<!-- Node7 -->
<g id="node7" class="node">
<title>Node7</title>
<g id="a_node7"><a xlink:href="classOPOS6UL__RobotExtended.html#ac8ac2be407a78cdd62261f72226162df" target="_top" xlink:title=" ">
<polygon fill="white" stroke="black" points="177,-65 177,-95 333,-95 333,-65 177,-65"/>
<text text-anchor="start" x="185" y="-83" font-family="Helvetica,sans-Serif" font-size="10.00">OPOS6UL_RobotExtended</text>
<text text-anchor="middle" x="255" y="-72" font-family="Helvetica,sans-Serif" font-size="10.00">::~OPOS6UL_RobotExtended</text>
</a>
</g>
</g>
<!-- Node6&#45;&gt;Node7 -->
<g id="edge8" class="edge">
<title>Node6&#45;&gt;Node7</title>
<path fill="none" stroke="midnightblue" d="M358.55,-80C350.09,-80 341.54,-80 333.16,-80"/>
<polygon fill="midnightblue" stroke="midnightblue" points="358.79,-83.5 368.79,-80 358.79,-76.5 358.79,-83.5"/>
</g>
<!-- Node8 -->
<g id="node8" class="node">
<title>Node8</title>
<g id="a_node8"><a xlink:href="classOPOS6UL__RobotExtended.html#a0a997f7fd88abac1efe0083fce633649" target="_top" xlink:title="Arrête toutes les actions supplémentaires (capteurs, LEDs, servos).">
<polygon fill="white" stroke="black" points="184,-16 184,-46 326,-46 326,-16 184,-16"/>
<text text-anchor="start" x="192" y="-34" font-family="Helvetica,sans-Serif" font-size="10.00">OPOS6UL_RobotExtended</text>
<text text-anchor="middle" x="255" y="-23" font-family="Helvetica,sans-Serif" font-size="10.00">::stopExtraActions</text>
</a>
</g>
</g>
<!-- Node6&#45;&gt;Node8 -->
<g id="edge9" class="edge">
<title>Node6&#45;&gt;Node8</title>
<path fill="none" stroke="midnightblue" d="M375.43,-62.38C355.02,-57.02 332.8,-51.18 313.12,-46.01"/>
<polygon fill="midnightblue" stroke="midnightblue" points="374.72,-65.81 385.28,-64.97 376.49,-59.04 374.72,-65.81"/>
</g>
<!-- Node8&#45;&gt;Node4 -->
<g id="edge10" class="edge">
<title>Node8&#45;&gt;Node4</title>
<path fill="none" stroke="midnightblue" d="M189.53,-49.61C185.24,-51.3 181.03,-53.1 177,-55 145.13,-70.03 111.62,-93.45 91.14,-108.76"/>
<polygon fill="midnightblue" stroke="midnightblue" points="190.87,-52.85 199.02,-46.08 188.42,-46.29 190.87,-52.85"/>
</g>
</g>
</svg>
