<?xml version="1.0" encoding="UTF-8" standalone="no"?>
<!DOCTYPE svg PUBLIC "-//W3C//DTD SVG 1.1//EN"
 "http://www.w3.org/Graphics/SVG/1.1/DTD/svg11.dtd">
<!-- Generated by graphviz version 2.43.0 (0)
 -->
<!-- Title: AsservDriver_mbed_i2c::odo_SetPosition Pages: 1 -->
<!--zoomable 329 -->
<svg id="main" version="1.1" xmlns="http://www.w3.org/2000/svg" xmlns:xlink="http://www.w3.org/1999/xlink" xml:space="preserve" onload="init(evt)">
<style type="text/css"><![CDATA[
.edge:hover path { stroke: red; }
.edge:hover polygon { stroke: red; fill: red; }
]]></style>
<script type="text/javascript"><![CDATA[
var edges = document.getElementsByTagName('g');
if (edges && edges.length) {
  for (var i=0;i<edges.length;i++) {
    if (edges[i].id.substr(0,4)=='edge') {
      edges[i].setAttribute('class','edge');
    }
  }
}
]]></script>
        <defs>
                <circle id="rim" cx="0" cy="0" r="7"/>
                <circle id="rim2" cx="0" cy="0" r="3.5"/>
                <g id="zoomPlus">
                        <use xlink:href="#rim" fill="#404040">
                                <set attributeName="fill" to="#808080" begin="zoomplus.mouseover" end="zoomplus.mouseout"/>
                        </use>
                        <path d="M-4,0h8M0,-4v8" fill="none" stroke="white" stroke-width="1.5" pointer-events="none"/>
                </g>
                <g id="zoomMin">
                        <use xlink:href="#rim" fill="#404040">
                                <set attributeName="fill" to="#808080" begin="zoomminus.mouseover" end="zoomminus.mouseout"/>
                        </use>
                        <path d="M-4,0h8" fill="none" stroke="white" stroke-width="1.5" pointer-events="none"/>
                </g>
                <g id="dirArrow">
                        <path fill="none" stroke="white" stroke-width="1.5" d="M0,-3.0v7 M-2.5,-0.5L0,-3.0L2.5,-0.5"/>
                </g>
               <g id="resetDef">
                       <use xlink:href="#rim2" fill="#404040">
                               <set attributeName="fill" to="#808080" begin="reset.mouseover" end="reset.mouseout"/>
                       </use>
               </g>
        </defs>

<script type="text/javascript">
var viewWidth = 1034;
var viewHeight = 329;
var sectionId = 'dynsection-45';
</script>
<script xlink:href="svgpan.js"/>
<svg id="graph" class="graph">
<g id="viewport">
<title>AsservDriver_mbed_i2c::odo_SetPosition</title>
<polygon fill="white" stroke="transparent" points="-4,4 -4,-324.5 1030,-324.5 1030,4 -4,4"/>
<!-- Node1 -->
<g id="node1" class="node">
<title>Node1</title>
<g id="a_node1"><a xlink:title="Definit la position courante du robot (recalage).">
<polygon fill="#bfbfbf" stroke="black" points="0,-115.5 0,-145.5 132,-145.5 132,-115.5 0,-115.5"/>
<text text-anchor="start" x="8" y="-133.5" font-family="Helvetica,sans-Serif" font-size="10.00">AsservDriver_mbed_i2c</text>
<text text-anchor="middle" x="66" y="-122.5" font-family="Helvetica,sans-Serif" font-size="10.00">::odo_SetPosition</text>
</a>
</g>
</g>
<!-- Node2 -->
<g id="node2" class="node">
<title>Node2</title>
<g id="a_node2"><a xlink:href="namespacelogs.html#ac6f325c6cfe6189bc8e243daa184453b" target="_top" xlink:title="Cette méthode permet de finir les flux de construction par la notation.">
<polygon fill="white" stroke="black" points="539.5,-263 539.5,-282 600.5,-282 600.5,-263 539.5,-263"/>
<text text-anchor="middle" x="570" y="-270" font-family="Helvetica,sans-Serif" font-size="10.00">logs::end</text>
</a>
</g>
</g>
<!-- Node1&#45;&gt;Node2 -->
<g id="edge1" class="edge">
<title>Node1&#45;&gt;Node2</title>
<path fill="none" stroke="midnightblue" d="M83.06,-145.76C101.86,-162.7 134.69,-189.49 168,-203.5 292.59,-255.9 454.95,-268.52 529.02,-271.55"/>
<polygon fill="midnightblue" stroke="midnightblue" points="529.17,-275.05 539.29,-271.93 529.43,-268.06 529.17,-275.05"/>
</g>
<!-- Node7 -->
<g id="node7" class="node">
<title>Node7</title>
<g id="a_node7"><a xlink:href="classlogs_1_1Logger.html#a8b6a2019233bc44b3c3c86c653910831" target="_top" xlink:title="Trace un message de niveau ERROR.">
<polygon fill="white" stroke="black" points="517.5,-99 517.5,-118 622.5,-118 622.5,-99 517.5,-99"/>
<text text-anchor="middle" x="570" y="-106" font-family="Helvetica,sans-Serif" font-size="10.00">logs::Logger::error</text>
</a>
</g>
</g>
<!-- Node1&#45;&gt;Node7 -->
<g id="edge6" class="edge">
<title>Node1&#45;&gt;Node7</title>
<path fill="none" stroke="midnightblue" d="M132.11,-127.65C229.51,-123.38 411.85,-115.39 507.25,-111.21"/>
<polygon fill="midnightblue" stroke="midnightblue" points="507.49,-114.7 517.32,-110.76 507.18,-107.71 507.49,-114.7"/>
</g>
<!-- Node8 -->
<g id="node8" class="node">
<title>Node8</title>
<g id="a_node8"><a xlink:href="classlogs_1_1Logger.html#aa381165771d00a6a1e3aa9664bf6467f" target="_top" xlink:title="Trace un message de niveau INFO.">
<polygon fill="white" stroke="black" points="351.5,-201 351.5,-220 452.5,-220 452.5,-201 351.5,-201"/>
<text text-anchor="middle" x="402" y="-208" font-family="Helvetica,sans-Serif" font-size="10.00">logs::Logger::info</text>
</a>
</g>
</g>
<!-- Node1&#45;&gt;Node8 -->
<g id="edge8" class="edge">
<title>Node1&#45;&gt;Node8</title>
<path fill="none" stroke="midnightblue" d="M94.48,-145.59C114.34,-155.84 142.12,-168.89 168,-176.5 225.55,-193.43 293.67,-202.12 341.34,-206.46"/>
<polygon fill="midnightblue" stroke="midnightblue" points="341.23,-209.96 351.49,-207.34 341.84,-202.99 341.23,-209.96"/>
</g>
<!-- Node9 -->
<g id="node9" class="node">
<title>Node9</title>
<g id="a_node9"><a xlink:href="classAsservDriver__mbed__i2c.html#a7e472e2fdb2cd0e8752b210b57606e16" target="_top" xlink:title="Retourne le Logger associé à la classe AsservDriver(OPOS6UL).">
<polygon fill="white" stroke="black" points="504,-49.5 504,-79.5 636,-79.5 636,-49.5 504,-49.5"/>
<text text-anchor="start" x="512" y="-67.5" font-family="Helvetica,sans-Serif" font-size="10.00">AsservDriver_mbed_i2c</text>
<text text-anchor="middle" x="570" y="-56.5" font-family="Helvetica,sans-Serif" font-size="10.00">::logger</text>
</a>
</g>
</g>
<!-- Node1&#45;&gt;Node9 -->
<g id="edge10" class="edge">
<title>Node1&#45;&gt;Node9</title>
<path fill="none" stroke="midnightblue" d="M132.19,-121.38C144.1,-119.74 156.42,-118.05 168,-116.5 281.43,-101.28 413.01,-84.36 493.63,-74.07"/>
<polygon fill="midnightblue" stroke="midnightblue" points="494.21,-77.53 503.69,-72.79 493.33,-70.58 494.21,-77.53"/>
</g>
<!-- Node14 -->
<g id="node14" class="node">
<title>Node14</title>
<g id="a_node14"><a xlink:href="classAsservDriver__mbed__i2c.html#afbda22d9e43a91fb054a10b738f61b2b" target="_top" xlink:title=" ">
<polygon fill="white" stroke="black" points="168,-11.5 168,-41.5 300,-41.5 300,-11.5 168,-11.5"/>
<text text-anchor="start" x="176" y="-29.5" font-family="Helvetica,sans-Serif" font-size="10.00">AsservDriver_mbed_i2c</text>
<text text-anchor="middle" x="234" y="-18.5" font-family="Helvetica,sans-Serif" font-size="10.00">::mbed_writeI2c</text>
</a>
</g>
</g>
<!-- Node1&#45;&gt;Node14 -->
<g id="edge15" class="edge">
<title>Node1&#45;&gt;Node14</title>
<path fill="none" stroke="midnightblue" d="M85.22,-115.42C104.87,-99.57 137.47,-74.48 168,-56.5 174.26,-52.81 181.05,-49.25 187.8,-45.94"/>
<polygon fill="midnightblue" stroke="midnightblue" points="189.4,-49.05 196.92,-41.6 186.39,-42.73 189.4,-49.05"/>
</g>
<!-- Node15 -->
<g id="node15" class="node">
<title>Node15</title>
<g id="a_node15"><a xlink:href="classAsservDriver__mbed__i2c.html#a37154eddfd5ae5a9a9e9c2160dd8041d" target="_top" xlink:title="Lit la position courante du robot.">
<polygon fill="white" stroke="black" points="168,-137.5 168,-167.5 300,-167.5 300,-137.5 168,-137.5"/>
<text text-anchor="start" x="176" y="-155.5" font-family="Helvetica,sans-Serif" font-size="10.00">AsservDriver_mbed_i2c</text>
<text text-anchor="middle" x="234" y="-144.5" font-family="Helvetica,sans-Serif" font-size="10.00">::odo_GetPosition</text>
</a>
</g>
</g>
<!-- Node1&#45;&gt;Node15 -->
<g id="edge16" class="edge">
<title>Node1&#45;&gt;Node15</title>
<path fill="none" stroke="midnightblue" d="M132.13,-139.13C140.55,-140.25 149.23,-141.4 157.8,-142.53"/>
<polygon fill="midnightblue" stroke="midnightblue" points="157.41,-146.01 167.78,-143.86 158.33,-139.07 157.41,-146.01"/>
</g>
<!-- Node3 -->
<g id="node3" class="node">
<title>Node3</title>
<g id="a_node3"><a xlink:href="classlogs_1_1Logger_1_1LoggerBuffer.html#a0e4fd77693fd899ec1b0670354f93a02" target="_top" xlink:title="Cette méthode valide le message en cours de construction et le transmet au Logger de référence.">
<polygon fill="white" stroke="black" points="672,-263 672,-282 840,-282 840,-263 672,-263"/>
<text text-anchor="middle" x="756" y="-270" font-family="Helvetica,sans-Serif" font-size="10.00">logs::Logger::LoggerBuffer::end</text>
</a>
</g>
</g>
<!-- Node2&#45;&gt;Node3 -->
<g id="edge2" class="edge">
<title>Node2&#45;&gt;Node3</title>
<path fill="none" stroke="midnightblue" d="M600.56,-272.5C617.39,-272.5 639.49,-272.5 661.69,-272.5"/>
<polygon fill="midnightblue" stroke="midnightblue" points="661.88,-276 671.88,-272.5 661.88,-269 661.88,-276"/>
</g>
<!-- Node4 -->
<g id="node4" class="node">
<title>Node4</title>
<g id="a_node4"><a xlink:href="classutils_1_1Mutex.html#aa584b418a5ef484f76b93e361a1d7e32" target="_top" xlink:title="Verrouille le mutex. Cette méthode doit être appelée avant d&#39;utiliser la ressource associée....">
<polygon fill="white" stroke="black" points="900.5,-301 900.5,-320 1001.5,-320 1001.5,-301 900.5,-301"/>
<text text-anchor="middle" x="951" y="-308" font-family="Helvetica,sans-Serif" font-size="10.00">utils::Mutex::lock</text>
</a>
</g>
</g>
<!-- Node3&#45;&gt;Node4 -->
<g id="edge3" class="edge">
<title>Node3&#45;&gt;Node4</title>
<path fill="none" stroke="midnightblue" d="M805.7,-282.09C831.86,-287.24 864.28,-293.62 891.77,-299.03"/>
<polygon fill="midnightblue" stroke="midnightblue" points="891.16,-302.48 901.65,-300.98 892.51,-295.61 891.16,-302.48"/>
</g>
<!-- Node5 -->
<g id="node5" class="node">
<title>Node5</title>
<g id="a_node5"><a xlink:href="classutils_1_1Mutex.html#a59b2079dc7f803d49f78ac9c04406cd3" target="_top" xlink:title="Déverrouille le mutex. Cette méthode doit être appelée après avoir utiliser la ressource associée.">
<polygon fill="white" stroke="black" points="894.5,-263 894.5,-282 1007.5,-282 1007.5,-263 894.5,-263"/>
<text text-anchor="middle" x="951" y="-270" font-family="Helvetica,sans-Serif" font-size="10.00">utils::Mutex::unlock</text>
</a>
</g>
</g>
<!-- Node3&#45;&gt;Node5 -->
<g id="edge4" class="edge">
<title>Node3&#45;&gt;Node5</title>
<path fill="none" stroke="midnightblue" d="M840.25,-272.5C854.94,-272.5 870.06,-272.5 884.19,-272.5"/>
<polygon fill="midnightblue" stroke="midnightblue" points="884.29,-276 894.29,-272.5 884.29,-269 884.29,-276"/>
</g>
<!-- Node6 -->
<g id="node6" class="node">
<title>Node6</title>
<g id="a_node6"><a xlink:href="classlogs_1_1Logger.html#afa535aaf4891e02c4ff7f84d372b5b1b" target="_top" xlink:title="Méthode générique de trace d&#39;un message.">
<polygon fill="white" stroke="black" points="876,-206 876,-225 1026,-225 1026,-206 876,-206"/>
<text text-anchor="middle" x="951" y="-213" font-family="Helvetica,sans-Serif" font-size="10.00">logs::Logger::writeMessage</text>
</a>
</g>
</g>
<!-- Node3&#45;&gt;Node6 -->
<g id="edge5" class="edge">
<title>Node3&#45;&gt;Node6</title>
<path fill="none" stroke="midnightblue" d="M790.14,-263C805.34,-258.62 823.6,-253.33 840,-248.5 862.68,-241.82 887.96,-234.25 908.55,-228.04"/>
<polygon fill="midnightblue" stroke="midnightblue" points="909.69,-231.35 918.26,-225.11 907.67,-224.65 909.69,-231.35"/>
</g>
<!-- Node7&#45;&gt;Node6 -->
<g id="edge7" class="edge">
<title>Node7&#45;&gt;Node6</title>
<path fill="none" stroke="midnightblue" d="M612.76,-118.1C665.9,-130.56 760.35,-153.57 840,-177.5 865.22,-185.08 893.28,-194.79 914.75,-202.5"/>
<polygon fill="midnightblue" stroke="midnightblue" points="913.82,-205.89 924.41,-206 916.2,-199.3 913.82,-205.89"/>
</g>
<!-- Node8&#45;&gt;Node6 -->
<g id="edge9" class="edge">
<title>Node8&#45;&gt;Node6</title>
<path fill="none" stroke="midnightblue" d="M452.58,-211.7C506.55,-212.94 595.4,-214.79 672,-215.5 737.08,-216.1 810.74,-216.07 865.88,-215.91"/>
<polygon fill="midnightblue" stroke="midnightblue" points="865.97,-219.41 875.96,-215.87 865.94,-212.41 865.97,-219.41"/>
</g>
<!-- Node10 -->
<g id="node10" class="node">
<title>Node10</title>
<g id="a_node10"><a xlink:href="classlogs_1_1LoggerFactory.html#a82585b5de73e471e06cafdccc3b3721e" target="_top" xlink:title="Cette méthode statique retourne un Logger en fonction de son nom.">
<polygon fill="white" stroke="black" points="700.5,-49.5 700.5,-79.5 811.5,-79.5 811.5,-49.5 700.5,-49.5"/>
<text text-anchor="start" x="708.5" y="-67.5" font-family="Helvetica,sans-Serif" font-size="10.00">logs::LoggerFactory</text>
<text text-anchor="middle" x="756" y="-56.5" font-family="Helvetica,sans-Serif" font-size="10.00">::logger</text>
</a>
</g>
</g>
<!-- Node9&#45;&gt;Node10 -->
<g id="edge11" class="edge">
<title>Node9&#45;&gt;Node10</title>
<path fill="none" stroke="midnightblue" d="M636.13,-64.5C653.67,-64.5 672.65,-64.5 690.17,-64.5"/>
<polygon fill="midnightblue" stroke="midnightblue" points="690.3,-68 700.3,-64.5 690.3,-61 690.3,-68"/>
</g>
<!-- Node11 -->
<g id="node11" class="node">
<title>Node11</title>
<g id="a_node11"><a xlink:href="classlogs_1_1LoggerFactory.html#ac89f19c0ffd71aa8cdc1c2d44c03809e" target="_top" xlink:title="Cette méthode ajoute un appender au système.">
<polygon fill="white" stroke="black" points="884,-99 884,-118 1018,-118 1018,-99 884,-99"/>
<text text-anchor="middle" x="951" y="-106" font-family="Helvetica,sans-Serif" font-size="10.00">logs::LoggerFactory::add</text>
</a>
</g>
</g>
<!-- Node10&#45;&gt;Node11 -->
<g id="edge12" class="edge">
<title>Node10&#45;&gt;Node11</title>
<path fill="none" stroke="midnightblue" d="M811.53,-76.93C838.71,-83.13 871.41,-90.58 898.21,-96.69"/>
<polygon fill="midnightblue" stroke="midnightblue" points="897.64,-100.15 908.16,-98.96 899.19,-93.33 897.64,-100.15"/>
</g>
<!-- Node12 -->
<g id="node12" class="node">
<title>Node12</title>
<g id="a_node12"><a xlink:href="classlogs_1_1LoggerFactory.html#a90478b91d7af2ef8841ded21e3521f69" target="_top" xlink:title="Cette méthode statique retourne l&#39;instance unique de la classe LoggerFactory.">
<polygon fill="white" stroke="black" points="895.5,-49.5 895.5,-79.5 1006.5,-79.5 1006.5,-49.5 895.5,-49.5"/>
<text text-anchor="start" x="903.5" y="-67.5" font-family="Helvetica,sans-Serif" font-size="10.00">logs::LoggerFactory</text>
<text text-anchor="middle" x="951" y="-56.5" font-family="Helvetica,sans-Serif" font-size="10.00">::instance</text>
</a>
</g>
</g>
<!-- Node10&#45;&gt;Node12 -->
<g id="edge13" class="edge">
<title>Node10&#45;&gt;Node12</title>
<path fill="none" stroke="midnightblue" d="M811.53,-64.5C834.45,-64.5 861.3,-64.5 885.22,-64.5"/>
<polygon fill="midnightblue" stroke="midnightblue" points="885.27,-68 895.27,-64.5 885.27,-61 885.27,-68"/>
</g>
<!-- Node13 -->
<g id="node13" class="node">
<title>Node13</title>
<g id="a_node13"><a xlink:href="classlogs_1_1LoggerFactory.html#a212aa623f4b6bee12cb39e8017dde670" target="_top" xlink:title="Cette méthode retourne le Logger principal qui définit le niveau de trace par défaut.">
<polygon fill="white" stroke="black" points="895.5,-0.5 895.5,-30.5 1006.5,-30.5 1006.5,-0.5 895.5,-0.5"/>
<text text-anchor="start" x="903.5" y="-18.5" font-family="Helvetica,sans-Serif" font-size="10.00">logs::LoggerFactory</text>
<text text-anchor="middle" x="951" y="-7.5" font-family="Helvetica,sans-Serif" font-size="10.00">::rootLogger</text>
</a>
</g>
</g>
<!-- Node10&#45;&gt;Node13 -->
<g id="edge14" class="edge">
<title>Node10&#45;&gt;Node13</title>
<path fill="none" stroke="midnightblue" d="M811.53,-50.66C834.56,-44.81 861.54,-37.96 885.54,-31.87"/>
<polygon fill="midnightblue" stroke="midnightblue" points="886.44,-35.25 895.27,-29.4 884.71,-28.46 886.44,-35.25"/>
</g>
<!-- Node16 -->
<g id="node16" class="node">
<title>Node16</title>
<g id="a_node16"><a xlink:href="classAsservDriver__mbed__i2c.html#a06c890725d54ced3b72e48b978384900" target="_top" xlink:title=" ">
<polygon fill="white" stroke="black" points="336,-137.5 336,-167.5 468,-167.5 468,-137.5 336,-137.5"/>
<text text-anchor="start" x="344" y="-155.5" font-family="Helvetica,sans-Serif" font-size="10.00">AsservDriver_mbed_i2c</text>
<text text-anchor="middle" x="402" y="-144.5" font-family="Helvetica,sans-Serif" font-size="10.00">::mbed_GetPosition</text>
</a>
</g>
</g>
<!-- Node15&#45;&gt;Node16 -->
<g id="edge17" class="edge">
<title>Node15&#45;&gt;Node16</title>
<path fill="none" stroke="midnightblue" d="M300.13,-152.5C308.46,-152.5 317.04,-152.5 325.52,-152.5"/>
<polygon fill="midnightblue" stroke="midnightblue" points="325.78,-156 335.78,-152.5 325.78,-149 325.78,-156"/>
</g>
<!-- Node16&#45;&gt;Node2 -->
<g id="edge20" class="edge">
<title>Node16&#45;&gt;Node2</title>
<path fill="none" stroke="midnightblue" d="M430.08,-167.64C441.95,-174.56 455.9,-183.08 468,-191.5 497.86,-212.29 530.34,-239.17 550.19,-256.13"/>
<polygon fill="midnightblue" stroke="midnightblue" points="548.01,-258.88 557.88,-262.75 552.58,-253.57 548.01,-258.88"/>
</g>
<!-- Node16&#45;&gt;Node7 -->
<g id="edge21" class="edge">
<title>Node16&#45;&gt;Node7</title>
<path fill="none" stroke="midnightblue" d="M459.66,-137.48C480.3,-132.01 503.36,-125.9 522.96,-120.7"/>
<polygon fill="midnightblue" stroke="midnightblue" points="524.09,-124.02 532.86,-118.08 522.3,-117.26 524.09,-124.02"/>
</g>
<!-- Node16&#45;&gt;Node9 -->
<g id="edge22" class="edge">
<title>Node16&#45;&gt;Node9</title>
<path fill="none" stroke="midnightblue" d="M424.37,-137.49C444.35,-123.87 475.33,-103.79 504,-89.5 508.07,-87.47 512.34,-85.5 516.67,-83.62"/>
<polygon fill="midnightblue" stroke="midnightblue" points="518.32,-86.72 526.19,-79.63 515.61,-80.26 518.32,-86.72"/>
</g>
<!-- Node17 -->
<g id="node17" class="node">
<title>Node17</title>
<g id="a_node17"><a xlink:href="classlogs_1_1Logger.html#a7dffc8f610014ec59b63392da16140e4" target="_top" xlink:title="Trace un message de niveau DEBUG.">
<polygon fill="white" stroke="black" points="700,-187 700,-206 812,-206 812,-187 700,-187"/>
<text text-anchor="middle" x="756" y="-194" font-family="Helvetica,sans-Serif" font-size="10.00">logs::Logger::debug</text>
</a>
</g>
</g>
<!-- Node16&#45;&gt;Node17 -->
<g id="edge18" class="edge">
<title>Node16&#45;&gt;Node17</title>
<path fill="none" stroke="midnightblue" d="M459.58,-167.56C473.98,-170.95 489.49,-174.21 504,-176.5 566.62,-186.37 638.83,-191.48 689.68,-194.05"/>
<polygon fill="midnightblue" stroke="midnightblue" points="689.72,-197.56 699.87,-194.55 690.06,-190.56 689.72,-197.56"/>
</g>
<!-- Node18 -->
<g id="node18" class="node">
<title>Node18</title>
<g id="a_node18"><a xlink:href="classAsservDriver__mbed__i2c.html#a507e67f7b75bfe3a2959a9dbff7d302b" target="_top" xlink:title=" ">
<polygon fill="white" stroke="black" points="504,-137.5 504,-167.5 636,-167.5 636,-137.5 504,-137.5"/>
<text text-anchor="start" x="512" y="-155.5" font-family="Helvetica,sans-Serif" font-size="10.00">AsservDriver_mbed_i2c</text>
<text text-anchor="middle" x="570" y="-144.5" font-family="Helvetica,sans-Serif" font-size="10.00">::mbed_readI2c</text>
</a>
</g>
</g>
<!-- Node16&#45;&gt;Node18 -->
<g id="edge23" class="edge">
<title>Node16&#45;&gt;Node18</title>
<path fill="none" stroke="midnightblue" d="M468.13,-152.5C476.46,-152.5 485.04,-152.5 493.52,-152.5"/>
<polygon fill="midnightblue" stroke="midnightblue" points="493.78,-156 503.78,-152.5 493.78,-149 493.78,-156"/>
</g>
<!-- Node17&#45;&gt;Node6 -->
<g id="edge19" class="edge">
<title>Node17&#45;&gt;Node6</title>
<path fill="none" stroke="midnightblue" d="M812.05,-201.92C828.78,-203.57 847.57,-205.42 865.76,-207.21"/>
<polygon fill="midnightblue" stroke="midnightblue" points="865.5,-210.7 875.79,-208.19 866.19,-203.73 865.5,-210.7"/>
</g>
</g>
</svg>
        <g id="navigator" transform="translate(0 0)" fill="#404254">
                <rect fill="#f2f5e9" fill-opacity="0.5" stroke="#606060" stroke-width=".5" x="0" y="0" width="60" height="60"/>
                <use id="zoomplus" xlink:href="#zoomPlus" x="17" y="9" onmousedown="handleZoom(evt,'in')"/>
                <use id="zoomminus" xlink:href="#zoomMin" x="42" y="9" onmousedown="handleZoom(evt,'out')"/>
                <use id="reset" xlink:href="#resetDef" x="30" y="36" onmousedown="handleReset()"/>
                <g id="arrowUp" xlink:href="#dirArrow" transform="translate(30 24)" onmousedown="handlePan(0,-1)">
                  <use xlink:href="#rim" fill="#404040">
                        <set attributeName="fill" to="#808080" begin="arrowUp.mouseover" end="arrowUp.mouseout"/>
                  </use>
                  <path fill="none" stroke="white" stroke-width="1.5" d="M0,-3.0v7 M-2.5,-0.5L0,-3.0L2.5,-0.5"/>
                </g>
                <g id="arrowRight" xlink:href="#dirArrow" transform="rotate(90) translate(36 -43)" onmousedown="handlePan(1,0)">
                  <use xlink:href="#rim" fill="#404040">
                        <set attributeName="fill" to="#808080" begin="arrowRight.mouseover" end="arrowRight.mouseout"/>
                  </use>
                  <path fill="none" stroke="white" stroke-width="1.5" d="M0,-3.0v7 M-2.5,-0.5L0,-3.0L2.5,-0.5"/>
                </g>
                <g id="arrowDown" xlink:href="#dirArrow" transform="rotate(180) translate(-30 -48)" onmousedown="handlePan(0,1)">
                  <use xlink:href="#rim" fill="#404040">
                        <set attributeName="fill" to="#808080" begin="arrowDown.mouseover" end="arrowDown.mouseout"/>
                  </use>
                  <path fill="none" stroke="white" stroke-width="1.5" d="M0,-3.0v7 M-2.5,-0.5L0,-3.0L2.5,-0.5"/>
                </g>
                <g id="arrowLeft" xlink:href="#dirArrow" transform="rotate(270) translate(-36 17)" onmousedown="handlePan(-1,0)">
                  <use xlink:href="#rim" fill="#404040">
                        <set attributeName="fill" to="#808080" begin="arrowLeft.mouseover" end="arrowLeft.mouseout"/>
                  </use>
                  <path fill="none" stroke="white" stroke-width="1.5" d="M0,-3.0v7 M-2.5,-0.5L0,-3.0L2.5,-0.5"/>
                </g>
        </g>
        <svg viewBox="0 0 15 15" width="100%" height="30px" preserveAspectRatio="xMaxYMin meet">
         <g id="arrow_out" transform="scale(0.3 0.3)">
          <a xlink:href="classAsservDriver__mbed__i2c_aa24966587d78fbf770e8cdd9e4d74f4f_cgraph_org.svg" target="_base">
           <rect id="button" ry="5" rx="5" y="6" x="6" height="38" width="38"
                fill="#f2f5e9" fill-opacity="0.5" stroke="#606060" stroke-width="1.0"/>
           <path id="arrow"
             d="M 11.500037,31.436501 C 11.940474,20.09759 22.043105,11.32322 32.158766,21.979434 L 37.068811,17.246167 C 37.068811,17.246167 37.088388,32 37.088388,32 L 22.160133,31.978069 C 22.160133,31.978069 26.997745,27.140456 26.997745,27.140456 C 18.528582,18.264221 13.291696,25.230495 11.500037,31.436501 z"
             style="fill:#404040;"/>
          </a>
         </g>
        </svg>
</svg>
