<?xml version="1.0" encoding="UTF-8" standalone="no"?>
<!DOCTYPE svg PUBLIC "-//W3C//DTD SVG 1.1//EN"
 "http://www.w3.org/Graphics/SVG/1.1/DTD/svg11.dtd">
<!-- Generated by graphviz version 2.43.0 (0)
 -->
<!-- Title: Gp2y0e02b::getDistanceMm Pages: 1 -->
<svg width="741pt" height="253pt"
 viewBox="0.00 0.00 741.00 252.50" xmlns="http://www.w3.org/2000/svg" xmlns:xlink="http://www.w3.org/1999/xlink">
<g id="graph0" class="graph" transform="scale(1 1) rotate(0) translate(4 248.5)">
<title>Gp2y0e02b::getDistanceMm</title>
<polygon fill="white" stroke="transparent" points="-4,4 -4,-248.5 737,-248.5 737,4 -4,4"/>
<!-- Node1 -->
<g id="node1" class="node">
<title>Node1</title>
<g id="a_node1"><a xlink:title="get distance in mm. //every 250 ms">
<polygon fill="#bfbfbf" stroke="black" points="0,-149 0,-168 155,-168 155,-149 0,-149"/>
<text text-anchor="middle" x="77.5" y="-156" font-family="Helvetica,sans-Serif" font-size="10.00">Gp2y0e02b::getDistanceMm</text>
</a>
</g>
</g>
<!-- Node2 -->
<g id="node2" class="node">
<title>Node2</title>
<g id="a_node2"><a xlink:href="classlogs_1_1Logger.html#a7dffc8f610014ec59b63392da16140e4" target="_top" xlink:title="Trace un message de niveau DEBUG.">
<polygon fill="white" stroke="black" points="407,-225 407,-244 519,-244 519,-225 407,-225"/>
<text text-anchor="middle" x="463" y="-232" font-family="Helvetica,sans-Serif" font-size="10.00">logs::Logger::debug</text>
</a>
</g>
</g>
<!-- Node1&#45;&gt;Node2 -->
<g id="edge1" class="edge">
<title>Node1&#45;&gt;Node2</title>
<path fill="none" stroke="midnightblue" d="M101.8,-168.1C124.27,-176.99 159.44,-189.95 191,-197.5 260.35,-214.08 341.58,-223.94 396.89,-229.26"/>
<polygon fill="midnightblue" stroke="midnightblue" points="396.63,-232.75 406.91,-230.2 397.28,-225.78 396.63,-232.75"/>
</g>
<!-- Node4 -->
<g id="node4" class="node">
<title>Node4</title>
<g id="a_node4"><a xlink:href="namespacelogs.html#ac6f325c6cfe6189bc8e243daa184453b" target="_top" xlink:title="Cette méthode permet de finir les flux de construction par la notation.">
<polygon fill="white" stroke="black" points="236.5,-149 236.5,-168 297.5,-168 297.5,-149 236.5,-149"/>
<text text-anchor="middle" x="267" y="-156" font-family="Helvetica,sans-Serif" font-size="10.00">logs::end</text>
</a>
</g>
</g>
<!-- Node1&#45;&gt;Node4 -->
<g id="edge3" class="edge">
<title>Node1&#45;&gt;Node4</title>
<path fill="none" stroke="midnightblue" d="M155.03,-158.5C179.46,-158.5 205.51,-158.5 226.22,-158.5"/>
<polygon fill="midnightblue" stroke="midnightblue" points="226.23,-162 236.23,-158.5 226.23,-155 226.23,-162"/>
</g>
<!-- Node8 -->
<g id="node8" class="node">
<title>Node8</title>
<g id="a_node8"><a xlink:href="classlogs_1_1Logger.html#a8b6a2019233bc44b3c3c86c653910831" target="_top" xlink:title="Trace un message de niveau ERROR.">
<polygon fill="white" stroke="black" points="410.5,-187 410.5,-206 515.5,-206 515.5,-187 410.5,-187"/>
<text text-anchor="middle" x="463" y="-194" font-family="Helvetica,sans-Serif" font-size="10.00">logs::Logger::error</text>
</a>
</g>
</g>
<!-- Node1&#45;&gt;Node8 -->
<g id="edge8" class="edge">
<title>Node1&#45;&gt;Node8</title>
<path fill="none" stroke="midnightblue" d="M128.47,-168.01C147.93,-171.43 170.45,-175.05 191,-177.5 262.5,-186.02 345.09,-191.14 400.12,-193.88"/>
<polygon fill="midnightblue" stroke="midnightblue" points="400.25,-197.39 410.41,-194.38 400.59,-190.4 400.25,-197.39"/>
</g>
<!-- Node9 -->
<g id="node9" class="node">
<title>Node9</title>
<g id="a_node9"><a xlink:href="classGp2y0e02b.html#ae7e9813d2b284b8c4e14d1cabd4f89cb" target="_top" xlink:title="Retourne le Logger associé à la classe Gp2y0e02b(OPOS6UL).">
<polygon fill="white" stroke="black" points="212.5,-111 212.5,-130 321.5,-130 321.5,-111 212.5,-111"/>
<text text-anchor="middle" x="267" y="-118" font-family="Helvetica,sans-Serif" font-size="10.00">Gp2y0e02b::logger</text>
</a>
</g>
</g>
<!-- Node1&#45;&gt;Node9 -->
<g id="edge10" class="edge">
<title>Node1&#45;&gt;Node9</title>
<path fill="none" stroke="midnightblue" d="M125.81,-148.91C151.11,-143.78 182.45,-137.43 209.07,-132.04"/>
<polygon fill="midnightblue" stroke="midnightblue" points="209.92,-135.44 219.03,-130.02 208.53,-128.58 209.92,-135.44"/>
</g>
<!-- Node14 -->
<g id="node14" class="node">
<title>Node14</title>
<g id="a_node14"><a xlink:href="classGp2y0e02b.html#a769c49566480f7e23274f22926c9dabe" target="_top" xlink:title=" ">
<polygon fill="white" stroke="black" points="191,-73 191,-92 343,-92 343,-73 191,-73"/>
<text text-anchor="middle" x="267" y="-80" font-family="Helvetica,sans-Serif" font-size="10.00">Gp2y0e02b::readReg2Bytes</text>
</a>
</g>
</g>
<!-- Node1&#45;&gt;Node14 -->
<g id="edge15" class="edge">
<title>Node1&#45;&gt;Node14</title>
<path fill="none" stroke="midnightblue" d="M94.75,-148.82C116.17,-136.4 155.33,-114.87 191,-101.5 197.51,-99.06 204.45,-96.83 211.38,-94.83"/>
<polygon fill="midnightblue" stroke="midnightblue" points="212.76,-98.08 221.48,-92.05 210.91,-91.33 212.76,-98.08"/>
</g>
<!-- Node3 -->
<g id="node3" class="node">
<title>Node3</title>
<g id="a_node3"><a xlink:href="classlogs_1_1Logger.html#afa535aaf4891e02c4ff7f84d372b5b1b" target="_top" xlink:title="Méthode générique de trace d&#39;un message.">
<polygon fill="white" stroke="black" points="583,-213 583,-232 733,-232 733,-213 583,-213"/>
<text text-anchor="middle" x="658" y="-220" font-family="Helvetica,sans-Serif" font-size="10.00">logs::Logger::writeMessage</text>
</a>
</g>
</g>
<!-- Node2&#45;&gt;Node3 -->
<g id="edge2" class="edge">
<title>Node2&#45;&gt;Node3</title>
<path fill="none" stroke="midnightblue" d="M519.05,-231.08C535.78,-230.04 554.57,-228.87 572.76,-227.74"/>
<polygon fill="midnightblue" stroke="midnightblue" points="573.03,-231.23 582.79,-227.11 572.6,-224.24 573.03,-231.23"/>
</g>
<!-- Node5 -->
<g id="node5" class="node">
<title>Node5</title>
<g id="a_node5"><a xlink:href="classlogs_1_1Logger_1_1LoggerBuffer.html#a0e4fd77693fd899ec1b0670354f93a02" target="_top" xlink:title="Cette méthode valide le message en cours de construction et le transmet au Logger de référence.">
<polygon fill="white" stroke="black" points="379,-149 379,-168 547,-168 547,-149 379,-149"/>
<text text-anchor="middle" x="463" y="-156" font-family="Helvetica,sans-Serif" font-size="10.00">logs::Logger::LoggerBuffer::end</text>
</a>
</g>
</g>
<!-- Node4&#45;&gt;Node5 -->
<g id="edge4" class="edge">
<title>Node4&#45;&gt;Node5</title>
<path fill="none" stroke="midnightblue" d="M297.89,-158.5C317.03,-158.5 343.01,-158.5 368.65,-158.5"/>
<polygon fill="midnightblue" stroke="midnightblue" points="368.83,-162 378.83,-158.5 368.83,-155 368.83,-162"/>
</g>
<!-- Node5&#45;&gt;Node3 -->
<g id="edge7" class="edge">
<title>Node5&#45;&gt;Node3</title>
<path fill="none" stroke="midnightblue" d="M519.93,-168.06C529.18,-170.56 538.52,-173.66 547,-177.5 564.98,-185.64 565.13,-195.12 583,-203.5 588.03,-205.86 593.39,-207.95 598.85,-209.81"/>
<polygon fill="midnightblue" stroke="midnightblue" points="598.12,-213.25 608.71,-212.89 600.21,-206.57 598.12,-213.25"/>
</g>
<!-- Node6 -->
<g id="node6" class="node">
<title>Node6</title>
<g id="a_node6"><a xlink:href="classutils_1_1Mutex.html#aa584b418a5ef484f76b93e361a1d7e32" target="_top" xlink:title="Verrouille le mutex. Cette méthode doit être appelée avant d&#39;utiliser la ressource associée....">
<polygon fill="white" stroke="black" points="607.5,-175 607.5,-194 708.5,-194 708.5,-175 607.5,-175"/>
<text text-anchor="middle" x="658" y="-182" font-family="Helvetica,sans-Serif" font-size="10.00">utils::Mutex::lock</text>
</a>
</g>
</g>
<!-- Node5&#45;&gt;Node6 -->
<g id="edge5" class="edge">
<title>Node5&#45;&gt;Node6</title>
<path fill="none" stroke="midnightblue" d="M534.77,-168.03C555.29,-170.8 577.49,-173.79 597.26,-176.45"/>
<polygon fill="midnightblue" stroke="midnightblue" points="596.98,-179.95 607.36,-177.81 597.92,-173.01 596.98,-179.95"/>
</g>
<!-- Node7 -->
<g id="node7" class="node">
<title>Node7</title>
<g id="a_node7"><a xlink:href="classutils_1_1Mutex.html#a59b2079dc7f803d49f78ac9c04406cd3" target="_top" xlink:title="Déverrouille le mutex. Cette méthode doit être appelée après avoir utiliser la ressource associée.">
<polygon fill="white" stroke="black" points="601.5,-137 601.5,-156 714.5,-156 714.5,-137 601.5,-137"/>
<text text-anchor="middle" x="658" y="-144" font-family="Helvetica,sans-Serif" font-size="10.00">utils::Mutex::unlock</text>
</a>
</g>
</g>
<!-- Node5&#45;&gt;Node7 -->
<g id="edge6" class="edge">
<title>Node5&#45;&gt;Node7</title>
<path fill="none" stroke="midnightblue" d="M547.25,-153.32C561.94,-152.41 577.06,-151.47 591.19,-150.59"/>
<polygon fill="midnightblue" stroke="midnightblue" points="591.52,-154.08 601.29,-149.96 591.09,-147.09 591.52,-154.08"/>
</g>
<!-- Node8&#45;&gt;Node3 -->
<g id="edge9" class="edge">
<title>Node8&#45;&gt;Node3</title>
<path fill="none" stroke="midnightblue" d="M515.72,-203.47C534.34,-205.98 555.81,-208.87 576.3,-211.63"/>
<polygon fill="midnightblue" stroke="midnightblue" points="575.89,-215.1 586.27,-212.97 576.83,-208.17 575.89,-215.1"/>
</g>
<!-- Node10 -->
<g id="node10" class="node">
<title>Node10</title>
<g id="a_node10"><a xlink:href="classlogs_1_1LoggerFactory.html#a82585b5de73e471e06cafdccc3b3721e" target="_top" xlink:title="Cette méthode statique retourne un Logger en fonction de son nom.">
<polygon fill="white" stroke="black" points="407.5,-80.5 407.5,-110.5 518.5,-110.5 518.5,-80.5 407.5,-80.5"/>
<text text-anchor="start" x="415.5" y="-98.5" font-family="Helvetica,sans-Serif" font-size="10.00">logs::LoggerFactory</text>
<text text-anchor="middle" x="463" y="-87.5" font-family="Helvetica,sans-Serif" font-size="10.00">::logger</text>
</a>
</g>
</g>
<!-- Node9&#45;&gt;Node10 -->
<g id="edge11" class="edge">
<title>Node9&#45;&gt;Node10</title>
<path fill="none" stroke="midnightblue" d="M321.52,-113.6C344.99,-110.58 372.72,-107 397.33,-103.83"/>
<polygon fill="midnightblue" stroke="midnightblue" points="397.83,-107.3 407.3,-102.55 396.94,-100.36 397.83,-107.3"/>
</g>
<!-- Node11 -->
<g id="node11" class="node">
<title>Node11</title>
<g id="a_node11"><a xlink:href="classlogs_1_1LoggerFactory.html#ac89f19c0ffd71aa8cdc1c2d44c03809e" target="_top" xlink:title="Cette méthode ajoute un appender au système.">
<polygon fill="white" stroke="black" points="591,-99 591,-118 725,-118 725,-99 591,-99"/>
<text text-anchor="middle" x="658" y="-106" font-family="Helvetica,sans-Serif" font-size="10.00">logs::LoggerFactory::add</text>
</a>
</g>
</g>
<!-- Node10&#45;&gt;Node11 -->
<g id="edge12" class="edge">
<title>Node10&#45;&gt;Node11</title>
<path fill="none" stroke="midnightblue" d="M518.53,-99.17C537.88,-100.48 560.03,-101.97 580.85,-103.37"/>
<polygon fill="midnightblue" stroke="midnightblue" points="580.74,-106.87 590.95,-104.05 581.21,-99.89 580.74,-106.87"/>
</g>
<!-- Node12 -->
<g id="node12" class="node">
<title>Node12</title>
<g id="a_node12"><a xlink:href="classlogs_1_1LoggerFactory.html#a90478b91d7af2ef8841ded21e3521f69" target="_top" xlink:title="Cette méthode statique retourne l&#39;instance unique de la classe LoggerFactory.">
<polygon fill="white" stroke="black" points="602.5,-49.5 602.5,-79.5 713.5,-79.5 713.5,-49.5 602.5,-49.5"/>
<text text-anchor="start" x="610.5" y="-67.5" font-family="Helvetica,sans-Serif" font-size="10.00">logs::LoggerFactory</text>
<text text-anchor="middle" x="658" y="-56.5" font-family="Helvetica,sans-Serif" font-size="10.00">::instance</text>
</a>
</g>
</g>
<!-- Node10&#45;&gt;Node12 -->
<g id="edge13" class="edge">
<title>Node10&#45;&gt;Node12</title>
<path fill="none" stroke="midnightblue" d="M518.53,-86.74C541.45,-83.06 568.3,-78.75 592.22,-74.91"/>
<polygon fill="midnightblue" stroke="midnightblue" points="592.95,-78.33 602.27,-73.29 591.84,-71.42 592.95,-78.33"/>
</g>
<!-- Node13 -->
<g id="node13" class="node">
<title>Node13</title>
<g id="a_node13"><a xlink:href="classlogs_1_1LoggerFactory.html#a212aa623f4b6bee12cb39e8017dde670" target="_top" xlink:title="Cette méthode retourne le Logger principal qui définit le niveau de trace par défaut.">
<polygon fill="white" stroke="black" points="602.5,-0.5 602.5,-30.5 713.5,-30.5 713.5,-0.5 602.5,-0.5"/>
<text text-anchor="start" x="610.5" y="-18.5" font-family="Helvetica,sans-Serif" font-size="10.00">logs::LoggerFactory</text>
<text text-anchor="middle" x="658" y="-7.5" font-family="Helvetica,sans-Serif" font-size="10.00">::rootLogger</text>
</a>
</g>
</g>
<!-- Node10&#45;&gt;Node13 -->
<g id="edge14" class="edge">
<title>Node10&#45;&gt;Node13</title>
<path fill="none" stroke="midnightblue" d="M493.37,-80.4C517.18,-68.48 551.79,-51.85 583,-39.5 587.82,-37.59 592.86,-35.72 597.94,-33.91"/>
<polygon fill="midnightblue" stroke="midnightblue" points="599.43,-37.1 607.73,-30.52 597.14,-30.48 599.43,-37.1"/>
</g>
</g>
</svg>
