<?xml version="1.0" encoding="UTF-8" standalone="no"?>
<!DOCTYPE svg PUBLIC "-//W3C//DTD SVG 1.1//EN"
 "http://www.w3.org/Graphics/SVG/1.1/DTD/svg11.dtd">
<!-- Generated by graphviz version 2.43.0 (0)
 -->
<!-- Title: Sensors::addThresholdBackVeryClosed Pages: 1 -->
<svg width="350pt" height="78pt"
 viewBox="0.00 0.00 350.00 77.50" xmlns="http://www.w3.org/2000/svg" xmlns:xlink="http://www.w3.org/1999/xlink">
<g id="graph0" class="graph" transform="scale(1 1) rotate(0) translate(4 73.5)">
<title>Sensors::addThresholdBackVeryClosed</title>
<polygon fill="white" stroke="transparent" points="-4,4 -4,-73.5 346,-73.5 346,4 -4,4"/>
<!-- Node1 -->
<g id="node1" class="node">
<title>Node1</title>
<g id="a_node1"><a xlink:title=" ">
<polygon fill="#bfbfbf" stroke="black" points="191,-17 191,-47 342,-47 342,-17 191,-17"/>
<text text-anchor="start" x="199" y="-35" font-family="Helvetica,sans-Serif" font-size="10.00">Sensors::addThresholdBack</text>
<text text-anchor="middle" x="266.5" y="-24" font-family="Helvetica,sans-Serif" font-size="10.00">VeryClosed</text>
</a>
</g>
</g>
<!-- Node2 -->
<g id="node2" class="node">
<title>Node2</title>
<g id="a_node2"><a xlink:href="classOPOS6UL__ActionsExtended.html#aced00f2c03b0aa9b9eda54e6874bac75" target="_top" xlink:title=" ">
<polygon fill="white" stroke="black" points="0,-39 0,-69 155,-69 155,-39 0,-39"/>
<text text-anchor="start" x="8" y="-57" font-family="Helvetica,sans-Serif" font-size="10.00">OPOS6UL_ActionsExtended</text>
<text text-anchor="middle" x="77.5" y="-46" font-family="Helvetica,sans-Serif" font-size="10.00">::OPOS6UL_ActionsExtended</text>
</a>
</g>
</g>
<!-- Node1&#45;&gt;Node2 -->
<g id="edge1" class="edge">
<title>Node1&#45;&gt;Node2</title>
<path fill="none" stroke="midnightblue" d="M180.84,-41.96C172.31,-42.96 163.68,-43.98 155.24,-44.97"/>
<polygon fill="midnightblue" stroke="midnightblue" points="181.26,-45.43 190.79,-40.79 180.45,-38.48 181.26,-45.43"/>
</g>
<!-- Node3 -->
<g id="node3" class="node">
<title>Node3</title>
<g id="a_node3"><a xlink:href="classSensors.html#ae46c462046eadf35df4f7bf49cebd50a" target="_top" xlink:title="Constructor.">
<polygon fill="white" stroke="black" points="28,-0.5 28,-19.5 127,-19.5 127,-0.5 28,-0.5"/>
<text text-anchor="middle" x="77.5" y="-7.5" font-family="Helvetica,sans-Serif" font-size="10.00">Sensors::Sensors</text>
</a>
</g>
</g>
<!-- Node1&#45;&gt;Node3 -->
<g id="edge2" class="edge">
<title>Node1&#45;&gt;Node3</title>
<path fill="none" stroke="midnightblue" d="M180.64,-22.02C162.27,-19.85 143.44,-17.64 127.04,-15.71"/>
<polygon fill="midnightblue" stroke="midnightblue" points="180.45,-25.52 190.79,-23.21 181.26,-18.57 180.45,-25.52"/>
</g>
</g>
</svg>
