<?xml version="1.0" encoding="UTF-8" standalone="no"?>
<!DOCTYPE svg PUBLIC "-//W3C//DTD SVG 1.1//EN"
 "http://www.w3.org/Graphics/SVG/1.1/DTD/svg11.dtd">
<!-- Generated by graphviz version 2.43.0 (0)
 -->
<!-- Title: utils::Thread Pages: 1 -->
<svg width="536pt" height="140pt"
 viewBox="0.00 0.00 535.50 140.00" xmlns="http://www.w3.org/2000/svg" xmlns:xlink="http://www.w3.org/1999/xlink">
<g id="graph0" class="graph" transform="scale(1 1) rotate(0) translate(4 136)">
<title>utils::Thread</title>
<polygon fill="white" stroke="transparent" points="-4,4 -4,-136 531.5,-136 531.5,4 -4,4"/>
<!-- Node1 -->
<g id="node1" class="node">
<title>Node1</title>
<g id="a_node1"><a xlink:title="Classe de base pour les threads (wrapper POSIX pthread).">
<polygon fill="#bfbfbf" stroke="black" points="235,-56.5 235,-75.5 312,-75.5 312,-56.5 235,-56.5"/>
<text text-anchor="middle" x="273.5" y="-63.5" font-family="Helvetica,sans-Serif" font-size="10.00">utils::Thread</text>
</a>
</g>
</g>
<!-- Node3 -->
<g id="node3" class="node">
<title>Node3</title>
<g id="a_node3"><a xlink:href="classlogs_1_1LoggerFactory.html" target="_top" xlink:title="Cette classe assure l&#39;initialisation du système de trace et son utilisation.">
<polygon fill="white" stroke="black" points="0,-0.5 0,-19.5 111,-19.5 111,-0.5 0,-0.5"/>
<text text-anchor="middle" x="55.5" y="-7.5" font-family="Helvetica,sans-Serif" font-size="10.00">logs::LoggerFactory</text>
</a>
</g>
</g>
<!-- Node1&#45;&gt;Node3 -->
<g id="edge2" class="edge">
<title>Node1&#45;&gt;Node3</title>
<path fill="none" stroke="midnightblue" d="M229.19,-54.02C188.01,-43.82 127.53,-28.84 89.88,-19.52"/>
<polygon fill="midnightblue" stroke="midnightblue" points="228.41,-57.44 238.96,-56.44 230.09,-50.64 228.41,-57.44"/>
</g>
<!-- Node4 -->
<g id="node4" class="node">
<title>Node4</title>
<g id="a_node4"><a xlink:href="classtest_1_1MutexCounterThread.html" target="_top" xlink:title="Thread qui incrémente un compteur partagé protégé par un Mutex.">
<polygon fill="white" stroke="black" points="129.5,-0.5 129.5,-19.5 273.5,-19.5 273.5,-0.5 129.5,-0.5"/>
<text text-anchor="middle" x="201.5" y="-7.5" font-family="Helvetica,sans-Serif" font-size="10.00">test::MutexCounterThread</text>
</a>
</g>
</g>
<!-- Node1&#45;&gt;Node4 -->
<g id="edge3" class="edge">
<title>Node1&#45;&gt;Node4</title>
<path fill="none" stroke="midnightblue" d="M253.63,-50.1C240.68,-40.38 224.2,-28.03 213.28,-19.83"/>
<polygon fill="midnightblue" stroke="midnightblue" points="251.83,-53.12 261.93,-56.32 256.03,-47.52 251.83,-53.12"/>
</g>
<!-- Node5 -->
<g id="node5" class="node">
<title>Node5</title>
<g id="a_node5"><a xlink:href="classtest_1_1SimpleThread.html" target="_top" xlink:title="Thread de test simple qui incrémente un compteur.">
<polygon fill="white" stroke="black" points="292,-0.5 292,-19.5 401,-19.5 401,-0.5 292,-0.5"/>
<text text-anchor="middle" x="346.5" y="-7.5" font-family="Helvetica,sans-Serif" font-size="10.00">test::SimpleThread</text>
</a>
</g>
</g>
<!-- Node1&#45;&gt;Node5 -->
<g id="edge4" class="edge">
<title>Node1&#45;&gt;Node5</title>
<path fill="none" stroke="midnightblue" d="M293.64,-50.1C306.78,-40.38 323.48,-28.03 334.56,-19.83"/>
<polygon fill="midnightblue" stroke="midnightblue" points="291.19,-47.56 285.23,-56.32 295.35,-53.19 291.19,-47.56"/>
</g>
<!-- Node6 -->
<g id="node6" class="node">
<title>Node6</title>
<g id="a_node6"><a xlink:href="classtest_1_1SleepyThread.html" target="_top" xlink:title="Thread qui dort longtemps (pour tester cancel).">
<polygon fill="white" stroke="black" points="419.5,-0.5 419.5,-19.5 527.5,-19.5 527.5,-0.5 419.5,-0.5"/>
<text text-anchor="middle" x="473.5" y="-7.5" font-family="Helvetica,sans-Serif" font-size="10.00">test::SleepyThread</text>
</a>
</g>
</g>
<!-- Node1&#45;&gt;Node6 -->
<g id="edge5" class="edge">
<title>Node1&#45;&gt;Node6</title>
<path fill="none" stroke="midnightblue" d="M314.87,-53.83C352.64,-43.63 407.64,-28.78 441.96,-19.52"/>
<polygon fill="midnightblue" stroke="midnightblue" points="313.93,-50.46 305.19,-56.44 315.76,-57.22 313.93,-50.46"/>
</g>
<!-- Node2 -->
<g id="node2" class="node">
<title>Node2</title>
<g id="a_node2"><a xlink:href="classutils_1_1Mutex.html" target="_top" xlink:title="Implémentation d&#39;une gestion de mutex.">
<polygon fill="white" stroke="black" points="236.5,-112.5 236.5,-131.5 310.5,-131.5 310.5,-112.5 236.5,-112.5"/>
<text text-anchor="middle" x="273.5" y="-119.5" font-family="Helvetica,sans-Serif" font-size="10.00">utils::Mutex</text>
</a>
</g>
</g>
<!-- Node2&#45;&gt;Node1 -->
<g id="edge1" class="edge">
<title>Node2&#45;&gt;Node1</title>
<path fill="none" stroke="midnightblue" d="M273.5,-101.8C273.5,-92.91 273.5,-82.78 273.5,-75.75"/>
<polygon fill="midnightblue" stroke="midnightblue" points="270,-102.08 273.5,-112.08 277,-102.08 270,-102.08"/>
</g>
</g>
</svg>
