<?xml version="1.0" encoding="UTF-8" standalone="no"?>
<!DOCTYPE svg PUBLIC "-//W3C//DTD SVG 1.1//EN"
 "http://www.w3.org/Graphics/SVG/1.1/DTD/svg11.dtd">
<!-- Generated by graphviz version 2.43.0 (0)
 -->
<!-- Title: test::ChronometerTest::testStartStop Pages: 1 -->
<svg width="276pt" height="137pt"
 viewBox="0.00 0.00 276.00 137.00" xmlns="http://www.w3.org/2000/svg" xmlns:xlink="http://www.w3.org/1999/xlink">
<g id="graph0" class="graph" transform="scale(1 1) rotate(0) translate(4 133)">
<title>test::ChronometerTest::testStartStop</title>
<polygon fill="white" stroke="transparent" points="-4,4 -4,-133 272,-133 272,4 -4,4"/>
<!-- Node1 -->
<g id="node1" class="node">
<title>Node1</title>
<g id="a_node1"><a xlink:title="Vérifie les transitions start/stop et le flag started().">
<polygon fill="#bfbfbf" stroke="black" points="0,-49.5 0,-79.5 125,-79.5 125,-49.5 0,-49.5"/>
<text text-anchor="start" x="8" y="-67.5" font-family="Helvetica,sans-Serif" font-size="10.00">test::ChronometerTest</text>
<text text-anchor="middle" x="62.5" y="-56.5" font-family="Helvetica,sans-Serif" font-size="10.00">::testStartStop</text>
</a>
</g>
</g>
<!-- Node2 -->
<g id="node2" class="node">
<title>Node2</title>
<g id="a_node2"><a xlink:href="classutils_1_1Chronometer.html#a174c35f7b276290813fe913ed5c82bd3" target="_top" xlink:title="Lance ou réinitialise le chronomètre.">
<polygon fill="white" stroke="black" points="161,-98.5 161,-128.5 268,-128.5 268,-98.5 161,-98.5"/>
<text text-anchor="start" x="169" y="-116.5" font-family="Helvetica,sans-Serif" font-size="10.00">utils::Chronometer</text>
<text text-anchor="middle" x="214.5" y="-105.5" font-family="Helvetica,sans-Serif" font-size="10.00">::start</text>
</a>
</g>
</g>
<!-- Node1&#45;&gt;Node2 -->
<g id="edge1" class="edge">
<title>Node1&#45;&gt;Node2</title>
<path fill="none" stroke="midnightblue" d="M109.73,-79.6C124.91,-84.56 141.95,-90.13 157.76,-95.29"/>
<polygon fill="midnightblue" stroke="midnightblue" points="156.83,-98.67 167.42,-98.45 159,-92.02 156.83,-98.67"/>
</g>
<!-- Node3 -->
<g id="node3" class="node">
<title>Node3</title>
<g id="a_node3"><a xlink:href="classutils_1_1Chronometer.html#af09b58a8ae28db72b09bca32efa3f95b" target="_top" xlink:title="Indique si le chronomètre est en cours.">
<polygon fill="white" stroke="black" points="161,-49.5 161,-79.5 268,-79.5 268,-49.5 161,-49.5"/>
<text text-anchor="start" x="169" y="-67.5" font-family="Helvetica,sans-Serif" font-size="10.00">utils::Chronometer</text>
<text text-anchor="middle" x="214.5" y="-56.5" font-family="Helvetica,sans-Serif" font-size="10.00">::started</text>
</a>
</g>
</g>
<!-- Node1&#45;&gt;Node3 -->
<g id="edge2" class="edge">
<title>Node1&#45;&gt;Node3</title>
<path fill="none" stroke="midnightblue" d="M125.38,-64.5C133.75,-64.5 142.36,-64.5 150.75,-64.5"/>
<polygon fill="midnightblue" stroke="midnightblue" points="150.85,-68 160.85,-64.5 150.85,-61 150.85,-68"/>
</g>
<!-- Node4 -->
<g id="node4" class="node">
<title>Node4</title>
<g id="a_node4"><a xlink:href="classutils_1_1Chronometer.html#ab5884be726059e187292392b76ba63e3" target="_top" xlink:title="Arrête le chronomètre.">
<polygon fill="white" stroke="black" points="161,-0.5 161,-30.5 268,-30.5 268,-0.5 161,-0.5"/>
<text text-anchor="start" x="169" y="-18.5" font-family="Helvetica,sans-Serif" font-size="10.00">utils::Chronometer</text>
<text text-anchor="middle" x="214.5" y="-7.5" font-family="Helvetica,sans-Serif" font-size="10.00">::stop</text>
</a>
</g>
</g>
<!-- Node1&#45;&gt;Node4 -->
<g id="edge3" class="edge">
<title>Node1&#45;&gt;Node4</title>
<path fill="none" stroke="midnightblue" d="M109.73,-49.4C124.91,-44.44 141.95,-38.87 157.76,-33.71"/>
<polygon fill="midnightblue" stroke="midnightblue" points="159,-36.98 167.42,-30.55 156.83,-30.33 159,-36.98"/>
</g>
</g>
</svg>
