<?xml version="1.0" encoding="UTF-8" standalone="no"?>
<!DOCTYPE svg PUBLIC "-//W3C//DTD SVG 1.1//EN"
 "http://www.w3.org/Graphics/SVG/1.1/DTD/svg11.dtd">
<!-- Generated by graphviz version 2.43.0 (0)
 -->
<!-- Title: SvgWriter::beginHeader Pages: 1 -->
<!--zoomable 306 -->
<svg id="main" version="1.1" xmlns="http://www.w3.org/2000/svg" xmlns:xlink="http://www.w3.org/1999/xlink" xml:space="preserve" onload="init(evt)">
<style type="text/css"><![CDATA[
.edge:hover path { stroke: red; }
.edge:hover polygon { stroke: red; fill: red; }
]]></style>
<script type="text/javascript"><![CDATA[
var edges = document.getElementsByTagName('g');
if (edges && edges.length) {
  for (var i=0;i<edges.length;i++) {
    if (edges[i].id.substr(0,4)=='edge') {
      edges[i].setAttribute('class','edge');
    }
  }
}
]]></script>
        <defs>
                <circle id="rim" cx="0" cy="0" r="7"/>
                <circle id="rim2" cx="0" cy="0" r="3.5"/>
                <g id="zoomPlus">
                        <use xlink:href="#rim" fill="#404040">
                                <set attributeName="fill" to="#808080" begin="zoomplus.mouseover" end="zoomplus.mouseout"/>
                        </use>
                        <path d="M-4,0h8M0,-4v8" fill="none" stroke="white" stroke-width="1.5" pointer-events="none"/>
                </g>
                <g id="zoomMin">
                        <use xlink:href="#rim" fill="#404040">
                                <set attributeName="fill" to="#808080" begin="zoomminus.mouseover" end="zoomminus.mouseout"/>
                        </use>
                        <path d="M-4,0h8" fill="none" stroke="white" stroke-width="1.5" pointer-events="none"/>
                </g>
                <g id="dirArrow">
                        <path fill="none" stroke="white" stroke-width="1.5" d="M0,-3.0v7 M-2.5,-0.5L0,-3.0L2.5,-0.5"/>
                </g>
               <g id="resetDef">
                       <use xlink:href="#rim2" fill="#404040">
                               <set attributeName="fill" to="#808080" begin="reset.mouseover" end="reset.mouseout"/>
                       </use>
               </g>
        </defs>

<script type="text/javascript">
var viewWidth = 719;
var viewHeight = 306;
var sectionId = 'dynsection-4';
</script>
<script xlink:href="svgpan.js"/>
<svg id="graph" class="graph">
<g id="viewport">
<title>SvgWriter::beginHeader</title>
<polygon fill="white" stroke="transparent" points="-4,4 -4,-301.5 715,-301.5 715,4 -4,4"/>
<!-- Node1 -->
<g id="node1" class="node">
<title>Node1</title>
<g id="a_node1"><a xlink:title="Écrit l&#39;en&#45;tête SVG (grille, defs, symboles).">
<polygon fill="#bfbfbf" stroke="black" points="0,-133.5 0,-152.5 133,-152.5 133,-133.5 0,-133.5"/>
<text text-anchor="middle" x="66.5" y="-140.5" font-family="Helvetica,sans-Serif" font-size="10.00">SvgWriter::beginHeader</text>
</a>
</g>
</g>
<!-- Node2 -->
<g id="node2" class="node">
<title>Node2</title>
<g id="a_node2"><a xlink:href="classutils_1_1PointerList.html#a501664b90309db885554d35e89739681" target="_top" xlink:title="Returns a read/write iterator that points to the first element in the list. Iteration is done in ordi...">
<polygon fill="white" stroke="black" points="197.5,-267 197.5,-297 292.5,-297 292.5,-267 197.5,-267"/>
<text text-anchor="start" x="205.5" y="-285" font-family="Helvetica,sans-Serif" font-size="10.00">utils::PointerList</text>
<text text-anchor="middle" x="245" y="-274" font-family="Helvetica,sans-Serif" font-size="10.00">::begin</text>
</a>
</g>
</g>
<!-- Node1&#45;&gt;Node2 -->
<g id="edge1" class="edge">
<title>Node1&#45;&gt;Node2</title>
<path fill="none" stroke="midnightblue" d="M73.59,-152.79C87.69,-174.66 124.74,-227.84 169,-257 174.78,-260.8 181.18,-264.08 187.75,-266.89"/>
<polygon fill="midnightblue" stroke="midnightblue" points="186.84,-270.29 197.43,-270.67 189.39,-263.77 186.84,-270.29"/>
</g>
<!-- Node3 -->
<g id="node3" class="node">
<title>Node3</title>
<g id="a_node3"><a xlink:href="classutils_1_1PointerList.html#a9607cdd93b715a838e015452a49f61d5" target="_top" xlink:title="Returns a read/write iterator that points one past the last element in the list. Iteration is done in...">
<polygon fill="white" stroke="black" points="185.5,-228.5 185.5,-247.5 304.5,-247.5 304.5,-228.5 185.5,-228.5"/>
<text text-anchor="middle" x="245" y="-235.5" font-family="Helvetica,sans-Serif" font-size="10.00">utils::PointerList::end</text>
</a>
</g>
</g>
<!-- Node1&#45;&gt;Node3 -->
<g id="edge2" class="edge">
<title>Node1&#45;&gt;Node3</title>
<path fill="none" stroke="midnightblue" d="M78.66,-152.52C96.62,-167.44 133.55,-196.43 169,-214 177.73,-218.32 187.41,-222.1 196.83,-225.3"/>
<polygon fill="midnightblue" stroke="midnightblue" points="195.92,-228.68 206.51,-228.42 198.07,-222.02 195.92,-228.68"/>
</g>
<!-- Node4 -->
<g id="node4" class="node">
<title>Node4</title>
<g id="a_node4"><a xlink:href="namespacelogs.html#ac6f325c6cfe6189bc8e243daa184453b" target="_top" xlink:title="Cette méthode permet de finir les flux de construction par la notation.">
<polygon fill="white" stroke="black" points="214.5,-152.5 214.5,-171.5 275.5,-171.5 275.5,-152.5 214.5,-152.5"/>
<text text-anchor="middle" x="245" y="-159.5" font-family="Helvetica,sans-Serif" font-size="10.00">logs::end</text>
</a>
</g>
</g>
<!-- Node1&#45;&gt;Node4 -->
<g id="edge3" class="edge">
<title>Node1&#45;&gt;Node4</title>
<path fill="none" stroke="midnightblue" d="M133.22,-150.07C157.03,-152.64 183.19,-155.45 204.11,-157.71"/>
<polygon fill="midnightblue" stroke="midnightblue" points="203.9,-161.2 214.22,-158.79 204.65,-154.24 203.9,-161.2"/>
</g>
<!-- Node6 -->
<g id="node6" class="node">
<title>Node6</title>
<g id="a_node6"><a xlink:href="classutils_1_1Mutex.html#aa584b418a5ef484f76b93e361a1d7e32" target="_top" xlink:title="Verrouille le mutex. Cette méthode doit être appelée avant d&#39;utiliser la ressource associée....">
<polygon fill="white" stroke="black" points="585.5,-185.5 585.5,-204.5 686.5,-204.5 686.5,-185.5 585.5,-185.5"/>
<text text-anchor="middle" x="636" y="-192.5" font-family="Helvetica,sans-Serif" font-size="10.00">utils::Mutex::lock</text>
</a>
</g>
</g>
<!-- Node1&#45;&gt;Node6 -->
<g id="edge10" class="edge">
<title>Node1&#45;&gt;Node6</title>
<path fill="none" stroke="midnightblue" d="M87.15,-152.57C107.2,-161.8 139.46,-175.19 169,-181 312.62,-209.24 485.87,-204.57 575.22,-199.39"/>
<polygon fill="midnightblue" stroke="midnightblue" points="575.66,-202.87 585.43,-198.77 575.24,-195.88 575.66,-202.87"/>
</g>
<!-- Node7 -->
<g id="node7" class="node">
<title>Node7</title>
<g id="a_node7"><a xlink:href="classutils_1_1Mutex.html#a59b2079dc7f803d49f78ac9c04406cd3" target="_top" xlink:title="Déverrouille le mutex. Cette méthode doit être appelée après avoir utiliser la ressource associée.">
<polygon fill="white" stroke="black" points="579.5,-142.5 579.5,-161.5 692.5,-161.5 692.5,-142.5 579.5,-142.5"/>
<text text-anchor="middle" x="636" y="-149.5" font-family="Helvetica,sans-Serif" font-size="10.00">utils::Mutex::unlock</text>
</a>
</g>
</g>
<!-- Node1&#45;&gt;Node7 -->
<g id="edge13" class="edge">
<title>Node1&#45;&gt;Node7</title>
<path fill="none" stroke="midnightblue" d="M133.07,-141.32C221.93,-139.43 385.52,-137.3 525,-143 539.25,-143.58 554.51,-144.59 569,-145.72"/>
<polygon fill="midnightblue" stroke="midnightblue" points="569.13,-149.24 579.38,-146.56 569.69,-142.26 569.13,-149.24"/>
</g>
<!-- Node9 -->
<g id="node9" class="node">
<title>Node9</title>
<g id="a_node9"><a xlink:href="classlogs_1_1Logger.html#aa381165771d00a6a1e3aa9664bf6467f" target="_top" xlink:title="Trace un message de niveau INFO.">
<polygon fill="white" stroke="black" points="390.5,-76.5 390.5,-95.5 491.5,-95.5 491.5,-76.5 390.5,-76.5"/>
<text text-anchor="middle" x="441" y="-83.5" font-family="Helvetica,sans-Serif" font-size="10.00">logs::Logger::info</text>
</a>
</g>
</g>
<!-- Node1&#45;&gt;Node9 -->
<g id="edge8" class="edge">
<title>Node1&#45;&gt;Node9</title>
<path fill="none" stroke="midnightblue" d="M91.7,-133.42C112,-125.79 141.95,-115.52 169,-110 240.52,-95.4 324.45,-89.68 379.74,-87.44"/>
<polygon fill="midnightblue" stroke="midnightblue" points="380.2,-90.93 390.06,-87.05 379.94,-83.93 380.2,-90.93"/>
</g>
<!-- Node10 -->
<g id="node10" class="node">
<title>Node10</title>
<g id="a_node10"><a xlink:href="classSvgWriter.html#a0a4640b661160b29d991116a197f7aaf" target="_top" xlink:title="Retourne le logger principal du SVG.">
<polygon fill="white" stroke="black" points="194.5,-38.5 194.5,-57.5 295.5,-57.5 295.5,-38.5 194.5,-38.5"/>
<text text-anchor="middle" x="245" y="-45.5" font-family="Helvetica,sans-Serif" font-size="10.00">SvgWriter::logger</text>
</a>
</g>
</g>
<!-- Node1&#45;&gt;Node10 -->
<g id="edge11" class="edge">
<title>Node1&#45;&gt;Node10</title>
<path fill="none" stroke="midnightblue" d="M78.66,-133.48C96.62,-118.56 133.55,-89.57 169,-72 177.73,-67.68 187.41,-63.9 196.83,-60.7"/>
<polygon fill="midnightblue" stroke="midnightblue" points="198.07,-63.98 206.51,-57.58 195.92,-57.32 198.07,-63.98"/>
</g>
<!-- Node11 -->
<g id="node11" class="node">
<title>Node11</title>
<g id="a_node11"><a xlink:href="classSvgWriter.html#ab74e6447bcb7ce52ecba9f9f0c5907b7" target="_top" xlink:title="Retourne le logger dédié aux capteurs SVG.">
<polygon fill="white" stroke="black" points="169,-0.5 169,-19.5 321,-19.5 321,-0.5 169,-0.5"/>
<text text-anchor="middle" x="245" y="-7.5" font-family="Helvetica,sans-Serif" font-size="10.00">SvgWriter::loggerSvgSensor</text>
</a>
</g>
</g>
<!-- Node1&#45;&gt;Node11 -->
<g id="edge12" class="edge">
<title>Node1&#45;&gt;Node11</title>
<path fill="none" stroke="midnightblue" d="M73.24,-133.3C86.87,-111.16 123.47,-56.65 169,-29 172.62,-26.8 176.48,-24.86 180.47,-23.14"/>
<polygon fill="midnightblue" stroke="midnightblue" points="181.87,-26.35 189.97,-19.52 179.38,-19.81 181.87,-26.35"/>
</g>
<!-- Node5 -->
<g id="node5" class="node">
<title>Node5</title>
<g id="a_node5"><a xlink:href="classlogs_1_1Logger_1_1LoggerBuffer.html#a0e4fd77693fd899ec1b0670354f93a02" target="_top" xlink:title="Cette méthode valide le message en cours de construction et le transmet au Logger de référence.">
<polygon fill="white" stroke="black" points="357,-152.5 357,-171.5 525,-171.5 525,-152.5 357,-152.5"/>
<text text-anchor="middle" x="441" y="-159.5" font-family="Helvetica,sans-Serif" font-size="10.00">logs::Logger::LoggerBuffer::end</text>
</a>
</g>
</g>
<!-- Node4&#45;&gt;Node5 -->
<g id="edge4" class="edge">
<title>Node4&#45;&gt;Node5</title>
<path fill="none" stroke="midnightblue" d="M275.89,-162C295.03,-162 321.01,-162 346.65,-162"/>
<polygon fill="midnightblue" stroke="midnightblue" points="346.83,-165.5 356.83,-162 346.83,-158.5 346.83,-165.5"/>
</g>
<!-- Node5&#45;&gt;Node6 -->
<g id="edge5" class="edge">
<title>Node5&#45;&gt;Node6</title>
<path fill="none" stroke="midnightblue" d="M497.56,-171.5C521.94,-175.67 550.58,-180.57 575.4,-184.81"/>
<polygon fill="midnightblue" stroke="midnightblue" points="574.97,-188.29 585.41,-186.52 576.15,-181.39 574.97,-188.29"/>
</g>
<!-- Node5&#45;&gt;Node7 -->
<g id="edge6" class="edge">
<title>Node5&#45;&gt;Node7</title>
<path fill="none" stroke="midnightblue" d="M525.25,-157.69C539.94,-156.93 555.06,-156.14 569.19,-155.41"/>
<polygon fill="midnightblue" stroke="midnightblue" points="569.48,-158.9 579.29,-154.89 569.12,-151.91 569.48,-158.9"/>
</g>
<!-- Node8 -->
<g id="node8" class="node">
<title>Node8</title>
<g id="a_node8"><a xlink:href="classlogs_1_1Logger.html#afa535aaf4891e02c4ff7f84d372b5b1b" target="_top" xlink:title="Méthode générique de trace d&#39;un message.">
<polygon fill="white" stroke="black" points="561,-95.5 561,-114.5 711,-114.5 711,-95.5 561,-95.5"/>
<text text-anchor="middle" x="636" y="-102.5" font-family="Helvetica,sans-Serif" font-size="10.00">logs::Logger::writeMessage</text>
</a>
</g>
</g>
<!-- Node5&#45;&gt;Node8 -->
<g id="edge7" class="edge">
<title>Node5&#45;&gt;Node8</title>
<path fill="none" stroke="midnightblue" d="M474.3,-152.46C506.87,-142.84 557.28,-127.95 592.95,-117.42"/>
<polygon fill="midnightblue" stroke="midnightblue" points="593.99,-120.76 602.59,-114.57 592.01,-114.05 593.99,-120.76"/>
</g>
<!-- Node9&#45;&gt;Node8 -->
<g id="edge9" class="edge">
<title>Node9&#45;&gt;Node8</title>
<path fill="none" stroke="midnightblue" d="M491.7,-90.89C509.66,-92.66 530.48,-94.71 550.59,-96.69"/>
<polygon fill="midnightblue" stroke="midnightblue" points="550.41,-100.19 560.7,-97.69 551.09,-93.22 550.41,-100.19"/>
</g>
</g>
</svg>
        <g id="navigator" transform="translate(0 0)" fill="#404254">
                <rect fill="#f2f5e9" fill-opacity="0.5" stroke="#606060" stroke-width=".5" x="0" y="0" width="60" height="60"/>
                <use id="zoomplus" xlink:href="#zoomPlus" x="17" y="9" onmousedown="handleZoom(evt,'in')"/>
                <use id="zoomminus" xlink:href="#zoomMin" x="42" y="9" onmousedown="handleZoom(evt,'out')"/>
                <use id="reset" xlink:href="#resetDef" x="30" y="36" onmousedown="handleReset()"/>
                <g id="arrowUp" xlink:href="#dirArrow" transform="translate(30 24)" onmousedown="handlePan(0,-1)">
                  <use xlink:href="#rim" fill="#404040">
                        <set attributeName="fill" to="#808080" begin="arrowUp.mouseover" end="arrowUp.mouseout"/>
                  </use>
                  <path fill="none" stroke="white" stroke-width="1.5" d="M0,-3.0v7 M-2.5,-0.5L0,-3.0L2.5,-0.5"/>
                </g>
                <g id="arrowRight" xlink:href="#dirArrow" transform="rotate(90) translate(36 -43)" onmousedown="handlePan(1,0)">
                  <use xlink:href="#rim" fill="#404040">
                        <set attributeName="fill" to="#808080" begin="arrowRight.mouseover" end="arrowRight.mouseout"/>
                  </use>
                  <path fill="none" stroke="white" stroke-width="1.5" d="M0,-3.0v7 M-2.5,-0.5L0,-3.0L2.5,-0.5"/>
                </g>
                <g id="arrowDown" xlink:href="#dirArrow" transform="rotate(180) translate(-30 -48)" onmousedown="handlePan(0,1)">
                  <use xlink:href="#rim" fill="#404040">
                        <set attributeName="fill" to="#808080" begin="arrowDown.mouseover" end="arrowDown.mouseout"/>
                  </use>
                  <path fill="none" stroke="white" stroke-width="1.5" d="M0,-3.0v7 M-2.5,-0.5L0,-3.0L2.5,-0.5"/>
                </g>
                <g id="arrowLeft" xlink:href="#dirArrow" transform="rotate(270) translate(-36 17)" onmousedown="handlePan(-1,0)">
                  <use xlink:href="#rim" fill="#404040">
                        <set attributeName="fill" to="#808080" begin="arrowLeft.mouseover" end="arrowLeft.mouseout"/>
                  </use>
                  <path fill="none" stroke="white" stroke-width="1.5" d="M0,-3.0v7 M-2.5,-0.5L0,-3.0L2.5,-0.5"/>
                </g>
        </g>
        <svg viewBox="0 0 15 15" width="100%" height="30px" preserveAspectRatio="xMaxYMin meet">
         <g id="arrow_out" transform="scale(0.3 0.3)">
          <a xlink:href="classSvgWriter_ac6b52164bb48debc2aa814b2e96ec233_cgraph_org.svg" target="_base">
           <rect id="button" ry="5" rx="5" y="6" x="6" height="38" width="38"
                fill="#f2f5e9" fill-opacity="0.5" stroke="#606060" stroke-width="1.0"/>
           <path id="arrow"
             d="M 11.500037,31.436501 C 11.940474,20.09759 22.043105,11.32322 32.158766,21.979434 L 37.068811,17.246167 C 37.068811,17.246167 37.088388,32 37.088388,32 L 22.160133,31.978069 C 22.160133,31.978069 26.997745,27.140456 26.997745,27.140456 C 18.528582,18.264221 13.291696,25.230495 11.500037,31.436501 z"
             style="fill:#404040;"/>
          </a>
         </g>
        </svg>
</svg>
