<?xml version="1.0" encoding="UTF-8" standalone="no"?>
<!DOCTYPE svg PUBLIC "-//W3C//DTD SVG 1.1//EN"
 "http://www.w3.org/Graphics/SVG/1.1/DTD/svg11.dtd">
<!-- Generated by graphviz version 2.43.0 (0)
 -->
<!-- Title: Asserv Pages: 1 -->
<svg width="1379pt" height="1083pt"
 viewBox="0.00 0.00 1379.00 1082.50" xmlns="http://www.w3.org/2000/svg" xmlns:xlink="http://www.w3.org/1999/xlink">
<g id="graph0" class="graph" transform="scale(1 1) rotate(0) translate(4 1078.5)">
<title>Asserv</title>
<polygon fill="white" stroke="transparent" points="-4,4 -4,-1078.5 1375,-1078.5 1375,4 -4,4"/>
<!-- Node1 -->
<g id="node1" class="node">
<title>Node1</title>
<g id="a_node1"><a xlink:title=" ">
<polygon fill="#bfbfbf" stroke="black" points="875,-417.5 875,-436.5 925,-436.5 925,-417.5 875,-417.5"/>
<text text-anchor="middle" x="900" y="-424.5" font-family="Helvetica,sans-Serif" font-size="10.00">Asserv</text>
</a>
</g>
</g>
<!-- Node3 -->
<g id="node3" class="node">
<title>Node3</title>
<g id="a_node3"><a xlink:href="classRobot.html" target="_top" xlink:title="Classe générique de base du robot.">
<polygon fill="white" stroke="black" points="1107.5,-570.5 1107.5,-589.5 1152.5,-589.5 1152.5,-570.5 1107.5,-570.5"/>
<text text-anchor="middle" x="1130" y="-577.5" font-family="Helvetica,sans-Serif" font-size="10.00">Robot</text>
</a>
</g>
</g>
<!-- Node1&#45;&gt;Node3 -->
<g id="edge16" class="edge">
<title>Node1&#45;&gt;Node3</title>
<path fill="none" stroke="#9a32cd" stroke-dasharray="5,2" d="M935.23,-416.94C968.25,-409.37 1018.33,-403.7 1054,-426 1107.2,-459.27 1123.65,-542.31 1127.79,-570.48"/>
<polygon fill="#9a32cd" stroke="#9a32cd" points="934.01,-413.64 925.15,-419.43 935.69,-420.43 934.01,-413.64"/>
<text text-anchor="middle" x="1012" y="-429" font-family="Helvetica,sans-Serif" font-size="10.00"> asserv_default_</text>
</g>
<!-- Node2 -->
<g id="node2" class="node">
<title>Node2</title>
<g id="a_node2"><a xlink:href="structsRobotPosition.html" target="_top" xlink:title="Position et etat du robot sur la table.">
<polygon fill="white" stroke="black" points="583,-447.5 583,-466.5 672,-466.5 672,-447.5 583,-447.5"/>
<text text-anchor="middle" x="627.5" y="-454.5" font-family="Helvetica,sans-Serif" font-size="10.00">sRobotPosition</text>
</a>
</g>
</g>
<!-- Node2&#45;&gt;Node1 -->
<g id="edge1" class="edge">
<title>Node2&#45;&gt;Node1</title>
<path fill="none" stroke="#9a32cd" stroke-dasharray="5,2" d="M682.43,-451.02C740.89,-444.53 831.61,-434.47 874.69,-429.7"/>
<polygon fill="#9a32cd" stroke="#9a32cd" points="681.81,-447.57 672.26,-452.15 682.59,-454.52 681.81,-447.57"/>
<text text-anchor="middle" x="767.5" y="-452" font-family="Helvetica,sans-Serif" font-size="10.00"> adv_pos_centre_</text>
</g>
<!-- Node27 -->
<g id="node27" class="node">
<title>Node27</title>
<g id="a_node27"><a xlink:href="classAsservEsialR.html" target="_top" xlink:title=" ">
<polygon fill="white" stroke="black" points="1291,-340.5 1291,-359.5 1371,-359.5 1371,-340.5 1291,-340.5"/>
<text text-anchor="middle" x="1331" y="-347.5" font-family="Helvetica,sans-Serif" font-size="10.00">AsservEsialR</text>
</a>
</g>
</g>
<!-- Node2&#45;&gt;Node27 -->
<g id="edge36" class="edge">
<title>Node2&#45;&gt;Node27</title>
<path fill="none" stroke="#9a32cd" stroke-dasharray="5,2" d="M682.27,-465.44C763.35,-476.71 921.53,-493.09 1054,-473 1154.76,-457.72 1185.29,-456.9 1273,-405 1293.59,-392.82 1312.52,-371.79 1322.54,-359.56"/>
<polygon fill="#9a32cd" stroke="#9a32cd" points="682.69,-461.96 672.29,-464.02 681.7,-468.89 682.69,-461.96"/>
<text text-anchor="middle" x="1012" y="-483" font-family="Helvetica,sans-Serif" font-size="10.00"> p_</text>
</g>
<!-- Node3&#45;&gt;Node1 -->
<g id="edge2" class="edge">
<title>Node3&#45;&gt;Node1</title>
<path fill="none" stroke="#9a32cd" stroke-dasharray="5,2" d="M1122.1,-560.55C1111.65,-533.99 1089.21,-486.86 1054,-462 1043.51,-454.59 965.51,-439.12 925.11,-431.47"/>
<polygon fill="#9a32cd" stroke="#9a32cd" points="1118.95,-562.11 1125.74,-570.24 1125.51,-559.65 1118.95,-562.11"/>
<text text-anchor="middle" x="1012" y="-465" font-family="Helvetica,sans-Serif" font-size="10.00"> probot_</text>
</g>
<!-- Node3&#45;&gt;Node27 -->
<g id="edge38" class="edge">
<title>Node3&#45;&gt;Node27</title>
<path fill="none" stroke="#9a32cd" stroke-dasharray="5,2" d="M1162.41,-571.82C1194.39,-561.95 1243.37,-542.4 1273,-509 1313.48,-463.37 1325.81,-386.93 1329.01,-359.86"/>
<polygon fill="#9a32cd" stroke="#9a32cd" points="1161.27,-568.5 1152.67,-574.68 1163.25,-575.22 1161.27,-568.5"/>
<text text-anchor="middle" x="1239.5" y="-558" font-family="Helvetica,sans-Serif" font-size="10.00"> robot_</text>
</g>
<!-- Node4 -->
<g id="node4" class="node">
<title>Node4</title>
<g id="a_node4"><a xlink:href="classAutomate.html" target="_top" xlink:title="Gère un automate simple.">
<polygon fill="white" stroke="black" points="867.5,-511.5 867.5,-530.5 932.5,-530.5 932.5,-511.5 867.5,-511.5"/>
<text text-anchor="middle" x="900" y="-518.5" font-family="Helvetica,sans-Serif" font-size="10.00">Automate</text>
</a>
</g>
</g>
<!-- Node4&#45;&gt;Node3 -->
<g id="edge3" class="edge">
<title>Node4&#45;&gt;Node3</title>
<path fill="none" stroke="#9a32cd" stroke-dasharray="5,2" d="M942.6,-525.73C973.71,-529.89 1017.07,-537.02 1054,-548 1073.68,-553.85 1095.12,-563.34 1110.02,-570.47"/>
<polygon fill="#9a32cd" stroke="#9a32cd" points="942.91,-522.24 932.55,-524.43 942.02,-529.18 942.91,-522.24"/>
<text text-anchor="middle" x="1012" y="-551" font-family="Helvetica,sans-Serif" font-size="10.00"> automate_</text>
</g>
<!-- Node5 -->
<g id="node5" class="node">
<title>Node5</title>
<g id="a_node5"><a xlink:href="classIAutomateState.html" target="_top" xlink:title="Définit l&#39;état d&#39;un automate.">
<polygon fill="white" stroke="black" points="581,-492.5 581,-511.5 674,-511.5 674,-492.5 581,-492.5"/>
<text text-anchor="middle" x="627.5" y="-499.5" font-family="Helvetica,sans-Serif" font-size="10.00">IAutomateState</text>
</a>
</g>
</g>
<!-- Node5&#45;&gt;Node4 -->
<g id="edge4" class="edge">
<title>Node5&#45;&gt;Node4</title>
<path fill="none" stroke="#9a32cd" stroke-dasharray="5,2" d="M684.33,-505.27C724.79,-507.72 780.8,-511.27 830,-515 842.23,-515.93 855.67,-517.07 867.41,-518.1"/>
<polygon fill="#9a32cd" stroke="#9a32cd" points="684.33,-501.76 674.14,-504.65 683.91,-508.75 684.33,-501.76"/>
<text text-anchor="middle" x="767.5" y="-518" font-family="Helvetica,sans-Serif" font-size="10.00"> current_</text>
</g>
<!-- Node6 -->
<g id="node6" class="node">
<title>Node6</title>
<g id="a_node6"><a xlink:href="classArguments.html" target="_top" xlink:title=" ">
<polygon fill="white" stroke="black" points="865,-710.5 865,-729.5 935,-729.5 935,-710.5 865,-710.5"/>
<text text-anchor="middle" x="900" y="-717.5" font-family="Helvetica,sans-Serif" font-size="10.00">Arguments</text>
</a>
</g>
</g>
<!-- Node6&#45;&gt;Node3 -->
<g id="edge5" class="edge">
<title>Node6&#45;&gt;Node3</title>
<path fill="none" stroke="#9a32cd" stroke-dasharray="5,2" d="M945.25,-722.35C977.78,-721.98 1021.75,-716.95 1054,-696 1094.62,-669.61 1117.83,-612.64 1125.82,-589.78"/>
<polygon fill="#9a32cd" stroke="#9a32cd" points="945.14,-718.84 935.12,-722.31 945.11,-725.84 945.14,-718.84"/>
<text text-anchor="middle" x="1012" y="-724" font-family="Helvetica,sans-Serif" font-size="10.00"> cArgs_</text>
</g>
<!-- Node7 -->
<g id="node7" class="node">
<title>Node7</title>
<g id="a_node7"><a xlink:href="classConsoleManager.html" target="_top" xlink:title="Classe de gestion de l&#39;ensemble des tests de fonctionnement du robot.">
<polygon fill="white" stroke="black" points="851,-587.5 851,-606.5 949,-606.5 949,-587.5 851,-587.5"/>
<text text-anchor="middle" x="900" y="-594.5" font-family="Helvetica,sans-Serif" font-size="10.00">ConsoleManager</text>
</a>
</g>
</g>
<!-- Node7&#45;&gt;Node3 -->
<g id="edge6" class="edge">
<title>Node7&#45;&gt;Node3</title>
<path fill="none" stroke="#9a32cd" stroke-dasharray="5,2" d="M959.12,-592.67C1007.53,-589.06 1073.81,-584.11 1107.48,-581.6"/>
<polygon fill="#9a32cd" stroke="#9a32cd" points="958.79,-589.18 949.07,-593.42 959.31,-596.16 958.79,-589.18"/>
<text text-anchor="middle" x="1012" y="-594" font-family="Helvetica,sans-Serif" font-size="10.00"> cmanager_</text>
</g>
<!-- Node8 -->
<g id="node8" class="node">
<title>Node8</title>
<g id="a_node8"><a xlink:href="classSvgWriter.html" target="_top" xlink:title="Wrapper pour la génération de fichier svg via le système de log.">
<polygon fill="white" stroke="black" points="867.5,-549.5 867.5,-568.5 932.5,-568.5 932.5,-549.5 867.5,-549.5"/>
<text text-anchor="middle" x="900" y="-556.5" font-family="Helvetica,sans-Serif" font-size="10.00">SvgWriter</text>
</a>
</g>
</g>
<!-- Node8&#45;&gt;Node3 -->
<g id="edge7" class="edge">
<title>Node8&#45;&gt;Node3</title>
<path fill="none" stroke="#9a32cd" stroke-dasharray="5,2" d="M943.05,-561.33C973.82,-563.21 1016.56,-566.16 1054,-570 1072.03,-571.85 1092.42,-574.61 1107.38,-576.76"/>
<polygon fill="#9a32cd" stroke="#9a32cd" points="942.89,-557.82 932.7,-560.72 942.47,-564.8 942.89,-557.82"/>
<text text-anchor="middle" x="1012" y="-573" font-family="Helvetica,sans-Serif" font-size="10.00"> svg_</text>
</g>
<!-- Node9 -->
<g id="node9" class="node">
<title>Node9</title>
<g id="a_node9"><a xlink:href="classutils_1_1Mutex.html" target="_top" xlink:title="Implémentation d&#39;une gestion de mutex.">
<polygon fill="white" stroke="black" points="79.5,-794.5 79.5,-813.5 153.5,-813.5 153.5,-794.5 79.5,-794.5"/>
<text text-anchor="middle" x="116.5" y="-801.5" font-family="Helvetica,sans-Serif" font-size="10.00">utils::Mutex</text>
</a>
</g>
</g>
<!-- Node9&#45;&gt;Node8 -->
<g id="edge8" class="edge">
<title>Node9&#45;&gt;Node8</title>
<path fill="none" stroke="midnightblue" d="M122.33,-784.6C135.8,-735.22 178.91,-605.13 270,-554 373.44,-495.93 754.31,-540.02 867.24,-554.7"/>
<polygon fill="midnightblue" stroke="midnightblue" points="118.93,-783.78 119.78,-794.34 125.7,-785.56 118.93,-783.78"/>
</g>
<!-- Node18 -->
<g id="node18" class="node">
<title>Node18</title>
<g id="a_node18"><a xlink:href="classActionManagerTimer.html" target="_top" xlink:title="Classe de gestion des actions du robot et des actions par timer.">
<polygon fill="white" stroke="black" points="568,-891.5 568,-910.5 687,-910.5 687,-891.5 568,-891.5"/>
<text text-anchor="middle" x="627.5" y="-898.5" font-family="Helvetica,sans-Serif" font-size="10.00">ActionManagerTimer</text>
</a>
</g>
</g>
<!-- Node9&#45;&gt;Node18 -->
<g id="edge23" class="edge">
<title>Node9&#45;&gt;Node18</title>
<path fill="none" stroke="#9a32cd" stroke-dasharray="5,2" d="M148.24,-817.56C178.63,-830.46 226.73,-849.56 270,-861 372.51,-888.1 496.35,-896.84 567.8,-899.66"/>
<polygon fill="#9a32cd" stroke="#9a32cd" points="149.6,-814.33 139.03,-813.6 146.84,-820.76 149.6,-814.33"/>
<text text-anchor="middle" x="342" y="-911" font-family="Helvetica,sans-Serif" font-size="10.00"> maction_</text>
<text text-anchor="middle" x="342" y="-900" font-family="Helvetica,sans-Serif" font-size="10.00">msem_</text>
<text text-anchor="middle" x="342" y="-889" font-family="Helvetica,sans-Serif" font-size="10.00">mtimer_</text>
</g>
<!-- Node19 -->
<g id="node19" class="node">
<title>Node19</title>
<g id="a_node19"><a xlink:href="classutils_1_1Thread.html" target="_top" xlink:title="Classe de base pour les threads (wrapper POSIX pthread).">
<polygon fill="white" stroke="black" points="303.5,-794.5 303.5,-813.5 380.5,-813.5 380.5,-794.5 303.5,-794.5"/>
<text text-anchor="middle" x="342" y="-801.5" font-family="Helvetica,sans-Serif" font-size="10.00">utils::Thread</text>
</a>
</g>
</g>
<!-- Node9&#45;&gt;Node19 -->
<g id="edge22" class="edge">
<title>Node9&#45;&gt;Node19</title>
<path fill="none" stroke="midnightblue" d="M164,-804C205.37,-804 265.1,-804 303.49,-804"/>
<polygon fill="midnightblue" stroke="midnightblue" points="163.91,-800.5 153.91,-804 163.91,-807.5 163.91,-800.5"/>
</g>
<!-- Node10 -->
<g id="node10" class="node">
<title>Node10</title>
<g id="a_node10"><a xlink:href="classlogs_1_1Logger.html" target="_top" xlink:title="Classe de gestion des traces de l&#39;application.">
<polygon fill="white" stroke="black" points="589.5,-623.5 589.5,-642.5 665.5,-642.5 665.5,-623.5 589.5,-623.5"/>
<text text-anchor="middle" x="627.5" y="-630.5" font-family="Helvetica,sans-Serif" font-size="10.00">logs::Logger</text>
</a>
</g>
</g>
<!-- Node10&#45;&gt;Node8 -->
<g id="edge9" class="edge">
<title>Node10&#45;&gt;Node8</title>
<path fill="none" stroke="#9a32cd" stroke-dasharray="5,2" d="M675.52,-628.83C717.48,-623.81 779.86,-613.12 830,-591 839.03,-587.02 839.3,-582.65 848,-578 854.67,-574.44 862.15,-571.24 869.28,-568.54"/>
<polygon fill="#9a32cd" stroke="#9a32cd" points="675.12,-625.35 665.58,-629.95 675.91,-632.3 675.12,-625.35"/>
<text text-anchor="middle" x="767.5" y="-638" font-family="Helvetica,sans-Serif" font-size="10.00"> fLogger</text>
<text text-anchor="middle" x="767.5" y="-627" font-family="Helvetica,sans-Serif" font-size="10.00">fLoggerSensors</text>
</g>
<!-- Node11 -->
<g id="node11" class="node">
<title>Node11</title>
<g id="a_node11"><a xlink:href="classlogs_1_1Level.html" target="_top" xlink:title="Cette classe représente un niveau de trace.">
<polygon fill="white" stroke="black" points="307.5,-623.5 307.5,-642.5 376.5,-642.5 376.5,-623.5 307.5,-623.5"/>
<text text-anchor="middle" x="342" y="-630.5" font-family="Helvetica,sans-Serif" font-size="10.00">logs::Level</text>
</a>
</g>
</g>
<!-- Node11&#45;&gt;Node10 -->
<g id="edge10" class="edge">
<title>Node11&#45;&gt;Node10</title>
<path fill="none" stroke="#9a32cd" stroke-dasharray="5,2" d="M386.86,-633C442.41,-633 537.15,-633 589.32,-633"/>
<polygon fill="#9a32cd" stroke="#9a32cd" points="386.63,-629.5 376.63,-633 386.63,-636.5 386.63,-629.5"/>
<text text-anchor="middle" x="491" y="-636" font-family="Helvetica,sans-Serif" font-size="10.00"> level_</text>
</g>
<!-- Node11&#45;&gt;Node11 -->
<g id="edge11" class="edge">
<title>Node11&#45;&gt;Node11</title>
<path fill="none" stroke="#9a32cd" stroke-dasharray="5,2" d="M325.33,-652.4C326.45,-657.31 332,-661 342,-661 358,-661 362.62,-651.57 355.87,-642.76"/>
<polygon fill="#9a32cd" stroke="#9a32cd" points="328.71,-653.34 328.13,-642.76 321.98,-651.39 328.71,-653.34"/>
<text text-anchor="middle" x="342" y="-730" font-family="Helvetica,sans-Serif" font-size="10.00"> ALL</text>
<text text-anchor="middle" x="342" y="-719" font-family="Helvetica,sans-Serif" font-size="10.00">DEBUG</text>
<text text-anchor="middle" x="342" y="-708" font-family="Helvetica,sans-Serif" font-size="10.00">ERROR</text>
<text text-anchor="middle" x="342" y="-697" font-family="Helvetica,sans-Serif" font-size="10.00">INFO</text>
<text text-anchor="middle" x="342" y="-686" font-family="Helvetica,sans-Serif" font-size="10.00">NONE</text>
<text text-anchor="middle" x="342" y="-675" font-family="Helvetica,sans-Serif" font-size="10.00">TELEM</text>
<text text-anchor="middle" x="342" y="-664" font-family="Helvetica,sans-Serif" font-size="10.00">WARN</text>
</g>
<!-- Node12 -->
<g id="node12" class="node">
<title>Node12</title>
<g id="a_node12"><a xlink:href="classlogs_1_1Appender.html" target="_top" xlink:title="Classe de gestion des flux de sortie pour les logs.">
<polygon fill="white" stroke="black" points="297.5,-756.5 297.5,-775.5 386.5,-775.5 386.5,-756.5 297.5,-756.5"/>
<text text-anchor="middle" x="342" y="-763.5" font-family="Helvetica,sans-Serif" font-size="10.00">logs::Appender</text>
</a>
</g>
</g>
<!-- Node12&#45;&gt;Node10 -->
<g id="edge12" class="edge">
<title>Node12&#45;&gt;Node10</title>
<path fill="none" stroke="#9a32cd" stroke-dasharray="5,2" d="M396.29,-757.65C402.74,-755 408.85,-751.53 414,-747 429.86,-733.04 416.74,-717.62 432,-703 455,-680.97 539.61,-655.83 589.34,-642.49"/>
<polygon fill="#9a32cd" stroke="#9a32cd" points="394.98,-754.4 386.67,-760.97 397.26,-761.01 394.98,-754.4"/>
<text text-anchor="middle" x="491" y="-706" font-family="Helvetica,sans-Serif" font-size="10.00"> appender_</text>
</g>
<!-- Node13 -->
<g id="node13" class="node">
<title>Node13</title>
<g id="a_node13"><a xlink:href="classutils_1_1PointerList.html" target="_top" xlink:title=" ">
<polygon fill="white" stroke="black" points="580,-569 580,-599 675,-599 675,-569 580,-569"/>
<text text-anchor="start" x="588" y="-587" font-family="Helvetica,sans-Serif" font-size="10.00">utils::PointerList</text>
<text text-anchor="middle" x="627.5" y="-576" font-family="Helvetica,sans-Serif" font-size="10.00">&lt; std::string &gt;</text>
</a>
</g>
</g>
<!-- Node13&#45;&gt;Node8 -->
<g id="edge13" class="edge">
<title>Node13&#45;&gt;Node8</title>
<path fill="none" stroke="#9a32cd" stroke-dasharray="5,2" d="M685.01,-578.78C740.39,-573.66 822.78,-566.04 867.45,-561.92"/>
<polygon fill="#9a32cd" stroke="#9a32cd" points="684.64,-575.3 675,-579.7 685.28,-582.27 684.64,-575.3"/>
<text text-anchor="middle" x="767.5" y="-579" font-family="Helvetica,sans-Serif" font-size="10.00"> symbol_list_</text>
</g>
<!-- Node14 -->
<g id="node14" class="node">
<title>Node14</title>
<g id="a_node14"><a xlink:title=" ">
<polygon fill="white" stroke="#bfbfbf" points="284,-563.5 284,-604.5 400,-604.5 400,-563.5 284,-563.5"/>
<text text-anchor="start" x="292" y="-592.5" font-family="Helvetica,sans-Serif" font-size="10.00">std::list&lt; std::string,</text>
<text text-anchor="start" x="292" y="-581.5" font-family="Helvetica,sans-Serif" font-size="10.00"> std::allocator&lt; std::</text>
<text text-anchor="middle" x="342" y="-570.5" font-family="Helvetica,sans-Serif" font-size="10.00">string &gt; &gt;</text>
</a>
</g>
</g>
<!-- Node14&#45;&gt;Node13 -->
<g id="edge14" class="edge">
<title>Node14&#45;&gt;Node13</title>
<path fill="none" stroke="midnightblue" d="M410.22,-584C462.51,-584 533.7,-584 579.87,-584"/>
<polygon fill="midnightblue" stroke="midnightblue" points="410.03,-580.5 400.03,-584 410.03,-587.5 410.03,-580.5"/>
</g>
<!-- Node15 -->
<g id="node15" class="node">
<title>Node15</title>
<g id="a_node15"><a xlink:href="classutils_1_1Chronometer.html" target="_top" xlink:title="Gestion d&#39;un chronomètre.">
<polygon fill="white" stroke="black" points="288.5,-832.5 288.5,-851.5 395.5,-851.5 395.5,-832.5 288.5,-832.5"/>
<text text-anchor="middle" x="342" y="-839.5" font-family="Helvetica,sans-Serif" font-size="10.00">utils::Chronometer</text>
</a>
</g>
</g>
<!-- Node15&#45;&gt;Node3 -->
<g id="edge15" class="edge">
<title>Node15&#45;&gt;Node3</title>
<path fill="none" stroke="#9a32cd" stroke-dasharray="5,2" d="M405.71,-832.59C447.03,-825.8 502.14,-815.63 550,-803 685.35,-767.28 715.05,-744.84 848,-701 894.05,-685.81 906.15,-683.8 952,-668 997.74,-652.23 1010.92,-652.01 1054,-630 1077.27,-618.11 1102.1,-600.46 1116.55,-589.62"/>
<polygon fill="#9a32cd" stroke="#9a32cd" points="405.1,-829.15 395.79,-834.2 406.22,-836.06 405.1,-829.15"/>
<text text-anchor="middle" x="767.5" y="-755" font-family="Helvetica,sans-Serif" font-size="10.00"> chrono_</text>
</g>
<!-- Node16 -->
<g id="node16" class="node">
<title>Node16</title>
<g id="a_node16"><a xlink:href="classARobotPositionShared.html" target="_top" xlink:title="Interface abstraite d&#39;acces a la position partagee du robot.">
<polygon fill="white" stroke="black" points="705,-677.5 705,-696.5 830,-696.5 830,-677.5 705,-677.5"/>
<text text-anchor="middle" x="767.5" y="-684.5" font-family="Helvetica,sans-Serif" font-size="10.00">ARobotPositionShared</text>
</a>
</g>
</g>
<!-- Node15&#45;&gt;Node16 -->
<g id="edge18" class="edge">
<title>Node15&#45;&gt;Node16</title>
<path fill="none" stroke="#9a32cd" stroke-dasharray="5,2" d="M404.94,-828.77C408.13,-827.07 411.18,-825.16 414,-823 426.65,-813.32 419.64,-802.06 432,-792 531.19,-711.26 581.83,-735.46 705,-701 710.48,-699.47 716.28,-697.98 722.03,-696.58"/>
<polygon fill="#9a32cd" stroke="#9a32cd" points="403.29,-825.68 395.63,-833 406.19,-832.05 403.29,-825.68"/>
<text text-anchor="middle" x="491" y="-795" font-family="Helvetica,sans-Serif" font-size="10.00"> chrono_</text>
</g>
<!-- Node15&#45;&gt;Node18 -->
<g id="edge26" class="edge">
<title>Node15&#45;&gt;Node18</title>
<path fill="none" stroke="#9a32cd" stroke-dasharray="5,2" d="M405.69,-849.75C447.01,-855.48 502.12,-864.32 550,-876 567.1,-880.17 585.9,-886.29 600.59,-891.44"/>
<polygon fill="#9a32cd" stroke="#9a32cd" points="406.15,-846.28 395.77,-848.4 405.2,-853.22 406.15,-846.28"/>
<text text-anchor="middle" x="491" y="-879" font-family="Helvetica,sans-Serif" font-size="10.00"> chronoTimer_</text>
</g>
<!-- Node15&#45;&gt;Node27 -->
<g id="edge37" class="edge">
<title>Node15&#45;&gt;Node27</title>
<path fill="none" stroke="#9a32cd" stroke-dasharray="5,2" d="M405.52,-842C462.97,-842 550.47,-842 626.5,-842 626.5,-842 626.5,-842 1131,-842 1242.57,-842 1229.62,-737.79 1273,-635 1316.06,-532.96 1327.18,-396.38 1329.48,-359.51"/>
<polygon fill="#9a32cd" stroke="#9a32cd" points="405.51,-838.5 395.51,-842 405.51,-845.5 405.51,-838.5"/>
<text text-anchor="middle" x="900" y="-845" font-family="Helvetica,sans-Serif" font-size="10.00"> chronoTimer_</text>
</g>
<!-- Node16&#45;&gt;Node3 -->
<g id="edge17" class="edge">
<title>Node16&#45;&gt;Node3</title>
<path fill="none" stroke="#9a32cd" stroke-dasharray="5,2" d="M800.95,-673.76C815.25,-668.19 832.32,-661.88 848,-657 938.06,-628.97 963.57,-632.81 1054,-606 1072.1,-600.63 1092.31,-593.56 1107.18,-588.15"/>
<polygon fill="#9a32cd" stroke="#9a32cd" points="799.57,-670.54 791.56,-677.47 802.14,-677.05 799.57,-670.54"/>
<text text-anchor="middle" x="900" y="-660" font-family="Helvetica,sans-Serif" font-size="10.00"> sharedPosition_</text>
</g>
<!-- Node17 -->
<g id="node17" class="node">
<title>Node17</title>
<g id="a_node17"><a xlink:href="classActions.html" target="_top" xlink:title=" ">
<polygon fill="white" stroke="black" points="873.5,-748.5 873.5,-767.5 926.5,-767.5 926.5,-748.5 873.5,-748.5"/>
<text text-anchor="middle" x="900" y="-755.5" font-family="Helvetica,sans-Serif" font-size="10.00">Actions</text>
</a>
</g>
</g>
<!-- Node17&#45;&gt;Node3 -->
<g id="edge19" class="edge">
<title>Node17&#45;&gt;Node3</title>
<path fill="none" stroke="#9a32cd" stroke-dasharray="5,2" d="M937,-761.28C970.48,-762.42 1020.15,-759.02 1054,-734 1104.22,-696.88 1122.52,-617.03 1127.47,-589.53"/>
<polygon fill="#9a32cd" stroke="#9a32cd" points="936.9,-757.77 926.74,-760.77 936.56,-764.76 936.9,-757.77"/>
<text text-anchor="middle" x="1012" y="-763" font-family="Helvetica,sans-Serif" font-size="10.00"> actions_default_</text>
</g>
<!-- Node18&#45;&gt;Node17 -->
<g id="edge20" class="edge">
<title>Node18&#45;&gt;Node17</title>
<path fill="none" stroke="#9a32cd" stroke-dasharray="5,2" d="M655.84,-886.55C711.05,-857.36 834.51,-792.09 880.91,-767.56"/>
<polygon fill="#9a32cd" stroke="#9a32cd" points="653.87,-883.63 646.67,-891.4 657.14,-889.82 653.87,-883.63"/>
<text text-anchor="middle" x="767.5" y="-861" font-family="Helvetica,sans-Serif" font-size="10.00"> actionManagerTimer_</text>
</g>
<!-- Node19&#45;&gt;Node18 -->
<g id="edge21" class="edge">
<title>Node19&#45;&gt;Node18</title>
<path fill="none" stroke="midnightblue" d="M390.77,-809.12C433.77,-814.94 498.02,-826.68 550,-849 575.38,-859.9 601.19,-879.62 615.39,-891.4"/>
<polygon fill="midnightblue" stroke="midnightblue" points="390.95,-805.61 380.58,-807.8 390.05,-812.55 390.95,-805.61"/>
</g>
<!-- Node19&#45;&gt;Node27 -->
<g id="edge34" class="edge">
<title>Node19&#45;&gt;Node27</title>
<path fill="none" stroke="midnightblue" d="M390.42,-797.76C398.98,-794.93 407.3,-790.85 414,-785 429.6,-771.37 414.75,-753.48 432,-742 475.66,-712.95 497.65,-738.94 550,-742 662.05,-748.56 950.02,-817.26 1054,-775 1177.51,-724.81 1204.92,-684.63 1273,-570 1316.32,-497.07 1327.08,-391.46 1329.42,-359.51"/>
<polygon fill="midnightblue" stroke="midnightblue" points="389.42,-794.4 380.72,-800.45 391.3,-801.15 389.42,-794.4"/>
</g>
<!-- Node20 -->
<g id="node20" class="node">
<title>Node20</title>
<g id="a_node20"><a xlink:href="classutils_1_1PointerList.html" target="_top" xlink:title=" ">
<polygon fill="white" stroke="black" points="270,-1044 270,-1074 414,-1074 414,-1044 270,-1044"/>
<text text-anchor="start" x="278" y="-1062" font-family="Helvetica,sans-Serif" font-size="10.00">utils::PointerList</text>
<text text-anchor="middle" x="342" y="-1051" font-family="Helvetica,sans-Serif" font-size="10.00">&lt; ITimerPosixListener * &gt;</text>
</a>
</g>
</g>
<!-- Node20&#45;&gt;Node18 -->
<g id="edge24" class="edge">
<title>Node20&#45;&gt;Node18</title>
<path fill="none" stroke="#9a32cd" stroke-dasharray="5,2" d="M424.29,-1052.34C464.85,-1045.85 513,-1033.08 550,-1008 587.61,-982.5 612.98,-931.99 622.41,-910.76"/>
<polygon fill="#9a32cd" stroke="#9a32cd" points="423.53,-1048.92 414.16,-1053.86 424.57,-1055.84 423.53,-1048.92"/>
<text text-anchor="middle" x="491" y="-1064" font-family="Helvetica,sans-Serif" font-size="10.00"> ptimers_</text>
<text text-anchor="middle" x="491" y="-1053" font-family="Helvetica,sans-Serif" font-size="10.00">ptimers_tobestarted_</text>
</g>
<!-- Node21 -->
<g id="node21" class="node">
<title>Node21</title>
<g id="a_node21"><a xlink:title=" ">
<polygon fill="white" stroke="#bfbfbf" points="0,-1044 0,-1074 233,-1074 233,-1044 0,-1044"/>
<text text-anchor="start" x="8" y="-1062" font-family="Helvetica,sans-Serif" font-size="10.00">std::list&lt; ITimerPosixListener</text>
<text text-anchor="middle" x="116.5" y="-1051" font-family="Helvetica,sans-Serif" font-size="10.00"> *, std::allocator&lt; ITimerPosixListener * &gt; &gt;</text>
</a>
</g>
</g>
<!-- Node21&#45;&gt;Node20 -->
<g id="edge25" class="edge">
<title>Node21&#45;&gt;Node20</title>
<path fill="none" stroke="midnightblue" d="M243.37,-1059C252.37,-1059 261.24,-1059 269.75,-1059"/>
<polygon fill="midnightblue" stroke="midnightblue" points="243.18,-1055.5 233.18,-1059 243.18,-1062.5 243.18,-1055.5"/>
</g>
<!-- Node22 -->
<g id="node22" class="node">
<title>Node22</title>
<g id="a_node22"><a xlink:href="classutils_1_1PointerList.html" target="_top" xlink:title=" ">
<polygon fill="white" stroke="black" points="283,-995 283,-1025 401,-1025 401,-995 283,-995"/>
<text text-anchor="start" x="291" y="-1013" font-family="Helvetica,sans-Serif" font-size="10.00">utils::PointerList</text>
<text text-anchor="middle" x="342" y="-1002" font-family="Helvetica,sans-Serif" font-size="10.00">&lt; ITimerListener * &gt;</text>
</a>
</g>
</g>
<!-- Node22&#45;&gt;Node18 -->
<g id="edge27" class="edge">
<title>Node22&#45;&gt;Node18</title>
<path fill="none" stroke="#9a32cd" stroke-dasharray="5,2" d="M411.19,-998.78C452.64,-990.38 505.9,-976.72 550,-956 575.76,-943.9 601.84,-922.84 615.91,-910.59"/>
<polygon fill="#9a32cd" stroke="#9a32cd" points="410.33,-995.39 401.19,-1000.75 411.68,-1002.25 410.33,-995.39"/>
<text text-anchor="middle" x="491" y="-996" font-family="Helvetica,sans-Serif" font-size="10.00"> timers_</text>
</g>
<!-- Node23 -->
<g id="node23" class="node">
<title>Node23</title>
<g id="a_node23"><a xlink:title=" ">
<polygon fill="white" stroke="#bfbfbf" points="13,-995 13,-1025 220,-1025 220,-995 13,-995"/>
<text text-anchor="start" x="21" y="-1013" font-family="Helvetica,sans-Serif" font-size="10.00">std::list&lt; ITimerListener</text>
<text text-anchor="middle" x="116.5" y="-1002" font-family="Helvetica,sans-Serif" font-size="10.00"> *, std::allocator&lt; ITimerListener * &gt; &gt;</text>
</a>
</g>
</g>
<!-- Node23&#45;&gt;Node22 -->
<g id="edge28" class="edge">
<title>Node23&#45;&gt;Node22</title>
<path fill="none" stroke="midnightblue" d="M230.23,-1010C248.48,-1010 266.71,-1010 282.94,-1010"/>
<polygon fill="midnightblue" stroke="midnightblue" points="230.09,-1006.5 220.09,-1010 230.09,-1013.5 230.09,-1006.5"/>
</g>
<!-- Node24 -->
<g id="node24" class="node">
<title>Node24</title>
<g id="a_node24"><a xlink:href="classutils_1_1PointerList.html" target="_top" xlink:title=" ">
<polygon fill="white" stroke="black" points="294.5,-946 294.5,-976 389.5,-976 389.5,-946 294.5,-946"/>
<text text-anchor="start" x="302.5" y="-964" font-family="Helvetica,sans-Serif" font-size="10.00">utils::PointerList</text>
<text text-anchor="middle" x="342" y="-953" font-family="Helvetica,sans-Serif" font-size="10.00">&lt; IAction * &gt;</text>
</a>
</g>
</g>
<!-- Node24&#45;&gt;Node18 -->
<g id="edge29" class="edge">
<title>Node24&#45;&gt;Node18</title>
<path fill="none" stroke="#9a32cd" stroke-dasharray="5,2" d="M399.82,-948.98C453.28,-937.66 532.27,-920.94 581.49,-910.53"/>
<polygon fill="#9a32cd" stroke="#9a32cd" points="398.87,-945.6 389.81,-951.09 400.32,-952.45 398.87,-945.6"/>
<text text-anchor="middle" x="491" y="-944" font-family="Helvetica,sans-Serif" font-size="10.00"> actions_</text>
</g>
<!-- Node25 -->
<g id="node25" class="node">
<title>Node25</title>
<g id="a_node25"><a xlink:title=" ">
<polygon fill="white" stroke="#bfbfbf" points="65,-934.5 65,-975.5 168,-975.5 168,-934.5 65,-934.5"/>
<text text-anchor="start" x="73" y="-963.5" font-family="Helvetica,sans-Serif" font-size="10.00">std::list&lt; IAction</text>
<text text-anchor="start" x="73" y="-952.5" font-family="Helvetica,sans-Serif" font-size="10.00"> *, std::allocator&lt;</text>
<text text-anchor="middle" x="116.5" y="-941.5" font-family="Helvetica,sans-Serif" font-size="10.00"> IAction * &gt; &gt;</text>
</a>
</g>
</g>
<!-- Node25&#45;&gt;Node24 -->
<g id="edge30" class="edge">
<title>Node25&#45;&gt;Node24</title>
<path fill="none" stroke="midnightblue" d="M178.26,-956.63C214.8,-957.61 260.6,-958.84 294.3,-959.75"/>
<polygon fill="midnightblue" stroke="midnightblue" points="178.31,-953.13 168.22,-956.36 178.12,-960.13 178.31,-953.13"/>
</g>
<!-- Node26 -->
<g id="node26" class="node">
<title>Node26</title>
<g id="a_node26"><a xlink:href="classAAsservDriver.html" target="_top" xlink:title="Interface abstraite du driver d&#39;asservissement.">
<polygon fill="white" stroke="black" points="584.5,-359.5 584.5,-378.5 670.5,-378.5 670.5,-359.5 584.5,-359.5"/>
<text text-anchor="middle" x="627.5" y="-366.5" font-family="Helvetica,sans-Serif" font-size="10.00">AAsservDriver</text>
</a>
</g>
</g>
<!-- Node26&#45;&gt;Node1 -->
<g id="edge31" class="edge">
<title>Node26&#45;&gt;Node1</title>
<path fill="none" stroke="#9a32cd" stroke-dasharray="5,2" d="M680.55,-380.16C738.96,-392.68 831.24,-412.47 874.76,-421.8"/>
<polygon fill="#9a32cd" stroke="#9a32cd" points="681.28,-376.74 670.77,-378.06 679.81,-383.58 681.28,-376.74"/>
<text text-anchor="middle" x="767.5" y="-415" font-family="Helvetica,sans-Serif" font-size="10.00"> asservdriver_</text>
</g>
<!-- Node26&#45;&gt;Node27 -->
<g id="edge33" class="edge">
<title>Node26&#45;&gt;Node27</title>
<path fill="none" stroke="midnightblue" d="M680.59,-367.59C815.05,-363.95 1171.6,-354.29 1290.66,-351.07"/>
<polygon fill="midnightblue" stroke="midnightblue" points="680.44,-364.09 670.54,-367.86 680.63,-371.09 680.44,-364.09"/>
</g>
<!-- Node26&#45;&gt;Node27 -->
<g id="edge39" class="edge">
<title>Node26&#45;&gt;Node27</title>
<path fill="none" stroke="#9a32cd" stroke-dasharray="5,2" d="M680.7,-362.48C688.83,-361.58 697.13,-360.71 705,-360 859.66,-345.95 898.72,-341.23 1054,-343 1151.35,-344.11 1175.68,-345.18 1273,-348 1278.74,-348.17 1284.81,-348.36 1290.75,-348.56"/>
<polygon fill="#9a32cd" stroke="#9a32cd" points="680.08,-359.03 670.55,-363.65 680.88,-365.99 680.08,-359.03"/>
<text text-anchor="middle" x="1012" y="-346" font-family="Helvetica,sans-Serif" font-size="10.00"> asservdriver</text>
</g>
<!-- Node27&#45;&gt;Node1 -->
<g id="edge32" class="edge">
<title>Node27&#45;&gt;Node1</title>
<path fill="none" stroke="#9a32cd" stroke-dasharray="5,2" d="M1308.86,-365.25C1298.55,-371.89 1285.66,-379.03 1273,-383 1144.05,-423.39 1103.05,-384.41 970,-408 954.83,-410.69 938.17,-415.23 925.02,-419.2"/>
<polygon fill="#9a32cd" stroke="#9a32cd" points="1310.85,-368.14 1317.19,-359.65 1306.94,-362.33 1310.85,-368.14"/>
<text text-anchor="middle" x="1130" y="-406" font-family="Helvetica,sans-Serif" font-size="10.00"> pAsservEsialR_</text>
</g>
<!-- Node28 -->
<g id="node28" class="node">
<title>Node28</title>
<g id="a_node28"><a xlink:href="classCodeursInterface.html" target="_top" xlink:title=" ">
<polygon fill="white" stroke="black" points="292,-52.5 292,-71.5 392,-71.5 392,-52.5 292,-52.5"/>
<text text-anchor="middle" x="342" y="-59.5" font-family="Helvetica,sans-Serif" font-size="10.00">CodeursInterface</text>
</a>
</g>
</g>
<!-- Node28&#45;&gt;Node27 -->
<g id="edge35" class="edge">
<title>Node28&#45;&gt;Node27</title>
<path fill="none" stroke="#9a32cd" stroke-dasharray="5,2" d="M378.4,-49.11C431.53,-30.94 535.39,0 626.5,0 626.5,0 626.5,0 1131,0 1210.56,0 1229.79,-42.2 1273,-109 1323.68,-187.34 1329.4,-306.03 1329.96,-340.38"/>
<polygon fill="#9a32cd" stroke="#9a32cd" points="377.07,-45.86 368.77,-52.45 379.37,-52.47 377.07,-45.86"/>
<text text-anchor="middle" x="900" y="-3" font-family="Helvetica,sans-Serif" font-size="10.00"> codeurs_</text>
</g>
<!-- Node32 -->
<g id="node32" class="node">
<title>Node32</title>
<g id="a_node32"><a xlink:href="classOdometrie.html" target="_top" xlink:title=" ">
<polygon fill="white" stroke="black" points="593.5,-105.5 593.5,-124.5 661.5,-124.5 661.5,-105.5 593.5,-105.5"/>
<text text-anchor="middle" x="627.5" y="-112.5" font-family="Helvetica,sans-Serif" font-size="10.00">Odometrie</text>
</a>
</g>
</g>
<!-- Node28&#45;&gt;Node32 -->
<g id="edge45" class="edge">
<title>Node28&#45;&gt;Node32</title>
<path fill="none" stroke="#9a32cd" stroke-dasharray="5,2" d="M402.17,-73.06C460.07,-83.89 546.2,-99.99 593.11,-108.76"/>
<polygon fill="#9a32cd" stroke="#9a32cd" points="402.53,-69.57 392.06,-71.17 401.24,-76.45 402.53,-69.57"/>
<text text-anchor="middle" x="491" y="-103" font-family="Helvetica,sans-Serif" font-size="10.00"> codeurs</text>
</g>
<!-- Node29 -->
<g id="node29" class="node">
<title>Node29</title>
<g id="a_node29"><a xlink:href="classCommandManagerA.html" target="_top" xlink:title=" ">
<polygon fill="white" stroke="black" points="1072,-225.5 1072,-244.5 1188,-244.5 1188,-225.5 1072,-225.5"/>
<text text-anchor="middle" x="1130" y="-232.5" font-family="Helvetica,sans-Serif" font-size="10.00">CommandManagerA</text>
</a>
</g>
</g>
<!-- Node29&#45;&gt;Node27 -->
<g id="edge40" class="edge">
<title>Node29&#45;&gt;Node27</title>
<path fill="none" stroke="#9a32cd" stroke-dasharray="5,2" d="M1162.73,-248.72C1192.15,-261.93 1236.71,-283.22 1273,-306 1289.73,-316.5 1307.52,-330.8 1318.69,-340.21"/>
<polygon fill="#9a32cd" stroke="#9a32cd" points="1163.92,-245.42 1153.37,-244.56 1161.08,-251.82 1163.92,-245.42"/>
<text text-anchor="middle" x="1239.5" y="-309" font-family="Helvetica,sans-Serif" font-size="10.00"> commandM_</text>
</g>
<!-- Node30 -->
<g id="node30" class="node">
<title>Node30</title>
<g id="a_node30"><a xlink:href="classCMDList.html" target="_top" xlink:title=" ">
<polygon fill="white" stroke="black" points="871.5,-225.5 871.5,-244.5 928.5,-244.5 928.5,-225.5 871.5,-225.5"/>
<text text-anchor="middle" x="900" y="-232.5" font-family="Helvetica,sans-Serif" font-size="10.00">CMDList</text>
</a>
</g>
</g>
<!-- Node30&#45;&gt;Node29 -->
<g id="edge41" class="edge">
<title>Node30&#45;&gt;Node29</title>
<path fill="none" stroke="#9a32cd" stroke-dasharray="5,2" d="M938.63,-235C974.83,-235 1030.04,-235 1071.7,-235"/>
<polygon fill="#9a32cd" stroke="#9a32cd" points="938.5,-231.5 928.5,-235 938.5,-238.5 938.5,-231.5"/>
<text text-anchor="middle" x="1012" y="-238" font-family="Helvetica,sans-Serif" font-size="10.00"> liste</text>
</g>
<!-- Node31 -->
<g id="node31" class="node">
<title>Node31</title>
<g id="a_node31"><a xlink:href="structCMD__struct.html" target="_top" xlink:title=" ">
<polygon fill="white" stroke="black" points="591,-255.5 591,-274.5 664,-274.5 664,-255.5 591,-255.5"/>
<text text-anchor="middle" x="627.5" y="-262.5" font-family="Helvetica,sans-Serif" font-size="10.00">CMD_struct</text>
</a>
</g>
</g>
<!-- Node31&#45;&gt;Node29 -->
<g id="edge43" class="edge">
<title>Node31&#45;&gt;Node29</title>
<path fill="none" stroke="#9a32cd" stroke-dasharray="5,2" d="M674.52,-266.4C684.57,-266.65 695.14,-266.87 705,-267 860.28,-269.03 900.15,-271.14 1054,-250 1064.39,-248.57 1075.51,-246.6 1085.92,-244.55"/>
<polygon fill="#9a32cd" stroke="#9a32cd" points="674.39,-262.89 664.3,-266.13 674.21,-269.89 674.39,-262.89"/>
<text text-anchor="middle" x="900" y="-282" font-family="Helvetica,sans-Serif" font-size="10.00"> currCMD</text>
<text text-anchor="middle" x="900" y="-271" font-family="Helvetica,sans-Serif" font-size="10.00">nextCMD</text>
</g>
<!-- Node31&#45;&gt;Node30 -->
<g id="edge42" class="edge">
<title>Node31&#45;&gt;Node30</title>
<path fill="none" stroke="#9a32cd" stroke-dasharray="5,2" d="M674.52,-259.52C684.56,-258.34 695.14,-257.11 705,-256 764.25,-249.31 833.72,-241.89 871.36,-237.91"/>
<polygon fill="#9a32cd" stroke="#9a32cd" points="673.82,-256.07 664.3,-260.72 674.64,-263.03 673.82,-256.07"/>
<text text-anchor="middle" x="767.5" y="-259" font-family="Helvetica,sans-Serif" font-size="10.00"> list</text>
</g>
<!-- Node32&#45;&gt;Node27 -->
<g id="edge55" class="edge">
<title>Node32&#45;&gt;Node27</title>
<path fill="none" stroke="#9a32cd" stroke-dasharray="5,2" d="M652.12,-100.13C666.74,-91.82 686.24,-82.3 705,-78 759.15,-65.59 774.73,-72.35 830,-78 991.63,-94.53 1038.94,-87.35 1188,-152 1230.42,-170.4 1244.14,-175.87 1273,-212 1306,-253.32 1322.6,-316.42 1327.98,-340.35"/>
<polygon fill="#9a32cd" stroke="#9a32cd" points="650.11,-97.25 643.28,-105.35 653.67,-103.28 650.11,-97.25"/>
<text text-anchor="middle" x="1012" y="-108" font-family="Helvetica,sans-Serif" font-size="10.00"> odo_</text>
</g>
<!-- Node32&#45;&gt;Node29 -->
<g id="edge44" class="edge">
<title>Node32&#45;&gt;Node29</title>
<path fill="none" stroke="#9a32cd" stroke-dasharray="5,2" d="M663.69,-129.06C672.04,-133.57 680.43,-139.2 687,-146 699.71,-159.15 689.94,-172.62 705,-183 750.37,-214.27 897.35,-197.95 952,-205 995.12,-210.57 1043.81,-218.97 1079.19,-225.47"/>
<polygon fill="#9a32cd" stroke="#9a32cd" points="665.23,-125.92 654.72,-124.6 662.11,-132.19 665.23,-125.92"/>
<text text-anchor="middle" x="900" y="-208" font-family="Helvetica,sans-Serif" font-size="10.00"> odometrie</text>
</g>
<!-- Node33 -->
<g id="node33" class="node">
<title>Node33</title>
<g id="a_node33"><a xlink:href="classConsignController.html" target="_top" xlink:title=" ">
<polygon fill="white" stroke="black" points="848,-127.5 848,-146.5 952,-146.5 952,-127.5 848,-127.5"/>
<text text-anchor="middle" x="900" y="-134.5" font-family="Helvetica,sans-Serif" font-size="10.00">ConsignController</text>
</a>
</g>
</g>
<!-- Node32&#45;&gt;Node33 -->
<g id="edge53" class="edge">
<title>Node32&#45;&gt;Node33</title>
<path fill="none" stroke="#9a32cd" stroke-dasharray="5,2" d="M671.7,-118.51C719.53,-122.4 796.58,-128.67 847.5,-132.81"/>
<polygon fill="#9a32cd" stroke="#9a32cd" points="671.92,-115.02 661.67,-117.7 671.35,-122 671.92,-115.02"/>
<text text-anchor="middle" x="767.5" y="-135" font-family="Helvetica,sans-Serif" font-size="10.00"> odometrie</text>
</g>
<!-- Node33&#45;&gt;Node27 -->
<g id="edge56" class="edge">
<title>Node33&#45;&gt;Node27</title>
<path fill="none" stroke="#9a32cd" stroke-dasharray="5,2" d="M962.39,-138.53C990.61,-140.27 1024.33,-143.83 1054,-151 1116.41,-166.09 1131.86,-173.84 1188,-205 1228.89,-227.69 1240.41,-233.47 1273,-267 1295.78,-290.44 1315.7,-323.92 1324.78,-340.27"/>
<polygon fill="#9a32cd" stroke="#9a32cd" points="962.44,-135.03 952.26,-137.97 962.05,-142.02 962.44,-135.03"/>
<text text-anchor="middle" x="1130" y="-208" font-family="Helvetica,sans-Serif" font-size="10.00"> consignC_</text>
</g>
<!-- Node33&#45;&gt;Node29 -->
<g id="edge46" class="edge">
<title>Node33&#45;&gt;Node29</title>
<path fill="none" stroke="#9a32cd" stroke-dasharray="5,2" d="M962.26,-147.5C997.49,-154.14 1037.88,-162.96 1054,-171 1081.57,-184.75 1107.45,-210.8 1120.38,-225.06"/>
<polygon fill="#9a32cd" stroke="#9a32cd" points="962.48,-143.98 952.01,-145.6 961.2,-150.86 962.48,-143.98"/>
<text text-anchor="middle" x="1012" y="-174" font-family="Helvetica,sans-Serif" font-size="10.00"> cnsgCtrl</text>
</g>
<!-- Node34 -->
<g id="node34" class="node">
<title>Node34</title>
<g id="a_node34"><a xlink:href="classRegulateur.html" target="_top" xlink:title=" ">
<polygon fill="white" stroke="black" points="592.5,-155.5 592.5,-174.5 662.5,-174.5 662.5,-155.5 592.5,-155.5"/>
<text text-anchor="middle" x="627.5" y="-162.5" font-family="Helvetica,sans-Serif" font-size="10.00">Regulateur</text>
</a>
</g>
</g>
<!-- Node34&#45;&gt;Node33 -->
<g id="edge47" class="edge">
<title>Node34&#45;&gt;Node33</title>
<path fill="none" stroke="#9a32cd" stroke-dasharray="5,2" d="M672.85,-160.41C720.9,-155.44 797.45,-147.51 847.96,-142.28"/>
<polygon fill="#9a32cd" stroke="#9a32cd" points="672.35,-156.94 662.76,-161.45 673.07,-163.91 672.35,-156.94"/>
<text text-anchor="middle" x="767.5" y="-171" font-family="Helvetica,sans-Serif" font-size="10.00"> angle_regu</text>
<text text-anchor="middle" x="767.5" y="-160" font-family="Helvetica,sans-Serif" font-size="10.00">dist_regu</text>
</g>
<!-- Node35 -->
<g id="node35" class="node">
<title>Node35</title>
<g id="a_node35"><a xlink:href="classPid.html" target="_top" xlink:title=" ">
<polygon fill="white" stroke="black" points="326,-175.5 326,-194.5 358,-194.5 358,-175.5 326,-175.5"/>
<text text-anchor="middle" x="342" y="-182.5" font-family="Helvetica,sans-Serif" font-size="10.00">Pid</text>
</a>
</g>
</g>
<!-- Node35&#45;&gt;Node34 -->
<g id="edge48" class="edge">
<title>Node35&#45;&gt;Node34</title>
<path fill="none" stroke="#9a32cd" stroke-dasharray="5,2" d="M368.41,-183.21C419.52,-179.6 534.78,-171.47 592.38,-167.41"/>
<polygon fill="#9a32cd" stroke="#9a32cd" points="367.97,-179.73 358.24,-183.92 368.46,-186.71 367.97,-179.73"/>
<text text-anchor="middle" x="491" y="-182" font-family="Helvetica,sans-Serif" font-size="10.00"> filtrePid</text>
</g>
<!-- Node36 -->
<g id="node36" class="node">
<title>Node36</title>
<g id="a_node36"><a xlink:href="classFiltre.html" target="_top" xlink:title=" ">
<polygon fill="white" stroke="black" points="96,-155.5 96,-174.5 137,-174.5 137,-155.5 96,-155.5"/>
<text text-anchor="middle" x="116.5" y="-162.5" font-family="Helvetica,sans-Serif" font-size="10.00">Filtre</text>
</a>
</g>
</g>
<!-- Node36&#45;&gt;Node35 -->
<g id="edge49" class="edge">
<title>Node36&#45;&gt;Node35</title>
<path fill="none" stroke="midnightblue" d="M147.48,-167.68C195.8,-172.01 289.17,-180.36 325.76,-183.64"/>
<polygon fill="midnightblue" stroke="midnightblue" points="147.61,-164.18 137.33,-166.77 146.98,-171.15 147.61,-164.18"/>
</g>
<!-- Node37 -->
<g id="node37" class="node">
<title>Node37</title>
<g id="a_node37"><a xlink:href="classQuadRampDerivee.html" target="_top" xlink:title=" ">
<polygon fill="white" stroke="black" points="287.5,-137.5 287.5,-156.5 396.5,-156.5 396.5,-137.5 287.5,-137.5"/>
<text text-anchor="middle" x="342" y="-144.5" font-family="Helvetica,sans-Serif" font-size="10.00">QuadRampDerivee</text>
</a>
</g>
</g>
<!-- Node36&#45;&gt;Node37 -->
<g id="edge51" class="edge">
<title>Node36&#45;&gt;Node37</title>
<path fill="none" stroke="midnightblue" d="M147.59,-162.58C183.3,-159.7 243.53,-154.85 287.31,-151.32"/>
<polygon fill="midnightblue" stroke="midnightblue" points="147.02,-159.11 137.33,-163.4 147.58,-166.09 147.02,-159.11"/>
</g>
<!-- Node37&#45;&gt;Node34 -->
<g id="edge50" class="edge">
<title>Node37&#45;&gt;Node34</title>
<path fill="none" stroke="#9a32cd" stroke-dasharray="5,2" d="M406.88,-145.58C447.87,-145.32 502.19,-146.2 550,-151 563.97,-152.4 579.22,-154.98 592.39,-157.54"/>
<polygon fill="#9a32cd" stroke="#9a32cd" points="406.72,-142.08 396.75,-145.66 406.78,-149.08 406.72,-142.08"/>
<text text-anchor="middle" x="491" y="-154" font-family="Helvetica,sans-Serif" font-size="10.00"> filtreQuadRampDerivee</text>
</g>
<!-- Node38 -->
<g id="node38" class="node">
<title>Node38</title>
<g id="a_node38"><a xlink:href="classMotorsController.html" target="_top" xlink:title=" ">
<polygon fill="white" stroke="black" points="578.5,-42.5 578.5,-61.5 676.5,-61.5 676.5,-42.5 578.5,-42.5"/>
<text text-anchor="middle" x="627.5" y="-49.5" font-family="Helvetica,sans-Serif" font-size="10.00">MotorsController</text>
</a>
</g>
</g>
<!-- Node38&#45;&gt;Node27 -->
<g id="edge54" class="edge">
<title>Node38&#45;&gt;Node27</title>
<path fill="none" stroke="#9a32cd" stroke-dasharray="5,2" d="M686.63,-47.31C791.08,-41.08 1015.66,-37.81 1188,-106 1228.97,-122.21 1246.03,-122.16 1273,-157 1318.55,-215.84 1327.76,-310.38 1329.57,-340.47"/>
<polygon fill="#9a32cd" stroke="#9a32cd" points="686.37,-43.82 676.61,-47.94 686.81,-50.8 686.37,-43.82"/>
<text text-anchor="middle" x="1012" y="-71" font-family="Helvetica,sans-Serif" font-size="10.00"> motorC_</text>
</g>
<!-- Node38&#45;&gt;Node33 -->
<g id="edge52" class="edge">
<title>Node38&#45;&gt;Node33</title>
<path fill="none" stroke="#9a32cd" stroke-dasharray="5,2" d="M680.12,-63.92C721.2,-73.92 779.91,-89.38 830,-107 846.88,-112.94 865.46,-121.11 879.08,-127.43"/>
<polygon fill="#9a32cd" stroke="#9a32cd" points="680.87,-60.5 670.33,-61.56 679.23,-67.3 680.87,-60.5"/>
<text text-anchor="middle" x="767.5" y="-110" font-family="Helvetica,sans-Serif" font-size="10.00"> motors</text>
</g>
</g>
</svg>
