<?xml version="1.0" encoding="UTF-8" standalone="no"?>
<!DOCTYPE svg PUBLIC "-//W3C//DTD SVG 1.1//EN"
 "http://www.w3.org/Graphics/SVG/1.1/DTD/svg11.dtd">
<!-- Generated by graphviz version 2.43.0 (0)
 -->
<!-- Title: Sensors::addThresholdFront Pages: 1 -->
<svg width="279pt" height="66pt"
 viewBox="0.00 0.00 279.00 66.00" xmlns="http://www.w3.org/2000/svg" xmlns:xlink="http://www.w3.org/1999/xlink">
<g id="graph0" class="graph" transform="scale(1 1) rotate(0) translate(4 62)">
<title>Sensors::addThresholdFront</title>
<polygon fill="white" stroke="transparent" points="-4,4 -4,-62 275,-62 275,4 -4,4"/>
<!-- Node1 -->
<g id="node1" class="node">
<title>Node1</title>
<g id="a_node1"><a xlink:title=" ">
<polygon fill="#bfbfbf" stroke="black" points="0,-19.5 0,-38.5 152,-38.5 152,-19.5 0,-19.5"/>
<text text-anchor="middle" x="76" y="-26.5" font-family="Helvetica,sans-Serif" font-size="10.00">Sensors::addThresholdFront</text>
</a>
</g>
</g>
<!-- Node2 -->
<g id="node2" class="node">
<title>Node2</title>
<g id="a_node2"><a xlink:href="classSensors.html#ab60c07a863243a10e263a7277958c647" target="_top" xlink:title=" ">
<polygon fill="white" stroke="black" points="191,-38.5 191,-57.5 268,-57.5 268,-38.5 191,-38.5"/>
<text text-anchor="middle" x="229.5" y="-45.5" font-family="Helvetica,sans-Serif" font-size="10.00">Sensors::left</text>
</a>
</g>
</g>
<!-- Node1&#45;&gt;Node2 -->
<g id="edge1" class="edge">
<title>Node1&#45;&gt;Node2</title>
<path fill="none" stroke="midnightblue" d="M152.31,-38.44C162.02,-39.66 171.74,-40.88 180.83,-42.02"/>
<polygon fill="midnightblue" stroke="midnightblue" points="180.44,-45.5 190.8,-43.27 181.31,-38.55 180.44,-45.5"/>
</g>
<!-- Node3 -->
<g id="node3" class="node">
<title>Node3</title>
<g id="a_node3"><a xlink:href="classSensors.html#ae801861500996fbc44629666522eb86d" target="_top" xlink:title=" ">
<polygon fill="white" stroke="black" points="188,-0.5 188,-19.5 271,-19.5 271,-0.5 188,-0.5"/>
<text text-anchor="middle" x="229.5" y="-7.5" font-family="Helvetica,sans-Serif" font-size="10.00">Sensors::right</text>
</a>
</g>
</g>
<!-- Node1&#45;&gt;Node3 -->
<g id="edge2" class="edge">
<title>Node1&#45;&gt;Node3</title>
<path fill="none" stroke="midnightblue" d="M152.31,-19.56C160.87,-18.48 169.44,-17.41 177.58,-16.39"/>
<polygon fill="midnightblue" stroke="midnightblue" points="178.14,-19.84 187.63,-15.13 177.27,-12.9 178.14,-19.84"/>
</g>
</g>
</svg>
