<?xml version="1.0" encoding="UTF-8" standalone="no"?>
<!DOCTYPE svg PUBLIC "-//W3C//DTD SVG 1.1//EN"
 "http://www.w3.org/Graphics/SVG/1.1/DTD/svg11.dtd">
<!-- Generated by graphviz version 2.43.0 (0)
 -->
<!-- Title: test::AsservDriverManualTest::testSet Pages: 1 -->
<svg width="723pt" height="165pt"
 viewBox="0.00 0.00 723.00 164.50" xmlns="http://www.w3.org/2000/svg" xmlns:xlink="http://www.w3.org/1999/xlink">
<g id="graph0" class="graph" transform="scale(1 1) rotate(0) translate(4 160.5)">
<title>test::AsservDriverManualTest::testSet</title>
<polygon fill="white" stroke="transparent" points="-4,4 -4,-160.5 719,-160.5 719,4 -4,4"/>
<!-- Node1 -->
<g id="node1" class="node">
<title>Node1</title>
<g id="a_node1"><a xlink:title=" ">
<polygon fill="#bfbfbf" stroke="black" points="0,-49.5 0,-79.5 140,-79.5 140,-49.5 0,-49.5"/>
<text text-anchor="start" x="8" y="-67.5" font-family="Helvetica,sans-Serif" font-size="10.00">test::AsservDriverManual</text>
<text text-anchor="middle" x="70" y="-56.5" font-family="Helvetica,sans-Serif" font-size="10.00">Test::testSet</text>
</a>
</g>
</g>
<!-- Node2 -->
<g id="node2" class="node">
<title>Node2</title>
<g id="a_node2"><a xlink:href="namespacelogs.html#ac6f325c6cfe6189bc8e243daa184453b" target="_top" xlink:title="Cette méthode permet de finir les flux de construction par la notation.">
<polygon fill="white" stroke="black" points="220,-99 220,-118 281,-118 281,-99 220,-99"/>
<text text-anchor="middle" x="250.5" y="-106" font-family="Helvetica,sans-Serif" font-size="10.00">logs::end</text>
</a>
</g>
</g>
<!-- Node1&#45;&gt;Node2 -->
<g id="edge1" class="edge">
<title>Node1&#45;&gt;Node2</title>
<path fill="none" stroke="midnightblue" d="M131.93,-79.52C157.8,-85.89 187.2,-93.14 210.13,-98.8"/>
<polygon fill="midnightblue" stroke="midnightblue" points="209.31,-102.2 219.86,-101.19 210.99,-95.4 209.31,-102.2"/>
</g>
<!-- Node7 -->
<g id="node7" class="node">
<title>Node7</title>
<g id="a_node7"><a xlink:href="classutils_1_1Chronometer.html#aecf9f2e3ced9629be0a03b3ecf0ee01a" target="_top" xlink:title="Retourne le temps écoulé en millisecondes.">
<polygon fill="white" stroke="black" points="176,-49.5 176,-79.5 325,-79.5 325,-49.5 176,-49.5"/>
<text text-anchor="start" x="184" y="-67.5" font-family="Helvetica,sans-Serif" font-size="10.00">utils::Chronometer</text>
<text text-anchor="middle" x="250.5" y="-56.5" font-family="Helvetica,sans-Serif" font-size="10.00">::getElapsedTimeInMilliSec</text>
</a>
</g>
</g>
<!-- Node1&#45;&gt;Node7 -->
<g id="edge6" class="edge">
<title>Node1&#45;&gt;Node7</title>
<path fill="none" stroke="midnightblue" d="M140.01,-64.5C148.47,-64.5 157.19,-64.5 165.84,-64.5"/>
<polygon fill="midnightblue" stroke="midnightblue" points="165.94,-68 175.94,-64.5 165.94,-61 165.94,-68"/>
</g>
<!-- Node8 -->
<g id="node8" class="node">
<title>Node8</title>
<g id="a_node8"><a xlink:href="classutils_1_1Chronometer.html#a174c35f7b276290813fe913ed5c82bd3" target="_top" xlink:title="Lance ou réinitialise le chronomètre.">
<polygon fill="white" stroke="black" points="197,-0.5 197,-30.5 304,-30.5 304,-0.5 197,-0.5"/>
<text text-anchor="start" x="205" y="-18.5" font-family="Helvetica,sans-Serif" font-size="10.00">utils::Chronometer</text>
<text text-anchor="middle" x="250.5" y="-7.5" font-family="Helvetica,sans-Serif" font-size="10.00">::start</text>
</a>
</g>
</g>
<!-- Node1&#45;&gt;Node8 -->
<g id="edge7" class="edge">
<title>Node1&#45;&gt;Node8</title>
<path fill="none" stroke="midnightblue" d="M126.01,-49.4C145.29,-44.11 167.08,-38.12 186.93,-32.68"/>
<polygon fill="midnightblue" stroke="midnightblue" points="188.09,-35.99 196.81,-29.96 186.24,-29.24 188.09,-35.99"/>
</g>
<!-- Node3 -->
<g id="node3" class="node">
<title>Node3</title>
<g id="a_node3"><a xlink:href="classlogs_1_1Logger_1_1LoggerBuffer.html#a0e4fd77693fd899ec1b0670354f93a02" target="_top" xlink:title="Cette méthode valide le message en cours de construction et le transmet au Logger de référence.">
<polygon fill="white" stroke="black" points="361,-99 361,-118 529,-118 529,-99 361,-99"/>
<text text-anchor="middle" x="445" y="-106" font-family="Helvetica,sans-Serif" font-size="10.00">logs::Logger::LoggerBuffer::end</text>
</a>
</g>
</g>
<!-- Node2&#45;&gt;Node3 -->
<g id="edge2" class="edge">
<title>Node2&#45;&gt;Node3</title>
<path fill="none" stroke="midnightblue" d="M281.16,-108.5C299.96,-108.5 325.42,-108.5 350.62,-108.5"/>
<polygon fill="midnightblue" stroke="midnightblue" points="350.63,-112 360.63,-108.5 350.63,-105 350.63,-112"/>
</g>
<!-- Node4 -->
<g id="node4" class="node">
<title>Node4</title>
<g id="a_node4"><a xlink:href="classutils_1_1Mutex.html#aa584b418a5ef484f76b93e361a1d7e32" target="_top" xlink:title="Verrouille le mutex. Cette méthode doit être appelée avant d&#39;utiliser la ressource associée....">
<polygon fill="white" stroke="black" points="589.5,-137 589.5,-156 690.5,-156 690.5,-137 589.5,-137"/>
<text text-anchor="middle" x="640" y="-144" font-family="Helvetica,sans-Serif" font-size="10.00">utils::Mutex::lock</text>
</a>
</g>
</g>
<!-- Node3&#45;&gt;Node4 -->
<g id="edge3" class="edge">
<title>Node3&#45;&gt;Node4</title>
<path fill="none" stroke="midnightblue" d="M494.7,-118.09C520.86,-123.24 553.28,-129.62 580.77,-135.03"/>
<polygon fill="midnightblue" stroke="midnightblue" points="580.16,-138.48 590.65,-136.98 581.51,-131.61 580.16,-138.48"/>
</g>
<!-- Node5 -->
<g id="node5" class="node">
<title>Node5</title>
<g id="a_node5"><a xlink:href="classutils_1_1Mutex.html#a59b2079dc7f803d49f78ac9c04406cd3" target="_top" xlink:title="Déverrouille le mutex. Cette méthode doit être appelée après avoir utiliser la ressource associée.">
<polygon fill="white" stroke="black" points="583.5,-99 583.5,-118 696.5,-118 696.5,-99 583.5,-99"/>
<text text-anchor="middle" x="640" y="-106" font-family="Helvetica,sans-Serif" font-size="10.00">utils::Mutex::unlock</text>
</a>
</g>
</g>
<!-- Node3&#45;&gt;Node5 -->
<g id="edge4" class="edge">
<title>Node3&#45;&gt;Node5</title>
<path fill="none" stroke="midnightblue" d="M529.25,-108.5C543.94,-108.5 559.06,-108.5 573.19,-108.5"/>
<polygon fill="midnightblue" stroke="midnightblue" points="573.29,-112 583.29,-108.5 573.29,-105 573.29,-112"/>
</g>
<!-- Node6 -->
<g id="node6" class="node">
<title>Node6</title>
<g id="a_node6"><a xlink:href="classlogs_1_1Logger.html#afa535aaf4891e02c4ff7f84d372b5b1b" target="_top" xlink:title="Méthode générique de trace d&#39;un message.">
<polygon fill="white" stroke="black" points="565,-61 565,-80 715,-80 715,-61 565,-61"/>
<text text-anchor="middle" x="640" y="-68" font-family="Helvetica,sans-Serif" font-size="10.00">logs::Logger::writeMessage</text>
</a>
</g>
</g>
<!-- Node3&#45;&gt;Node6 -->
<g id="edge5" class="edge">
<title>Node3&#45;&gt;Node6</title>
<path fill="none" stroke="midnightblue" d="M494.7,-98.91C520.86,-93.76 553.28,-87.38 580.77,-81.97"/>
<polygon fill="midnightblue" stroke="midnightblue" points="581.51,-85.39 590.65,-80.02 580.16,-78.52 581.51,-85.39"/>
</g>
</g>
</svg>
