<?xml version="1.0" encoding="UTF-8" standalone="no"?>
<!DOCTYPE svg PUBLIC "-//W3C//DTD SVG 1.1//EN"
 "http://www.w3.org/Graphics/SVG/1.1/DTD/svg11.dtd">
<!-- Generated by graphviz version 2.43.0 (0)
 -->
<!-- Title: OPOS6UL_ActionsExtended::lcd2x16 Pages: 1 -->
<svg width="512pt" height="172pt"
 viewBox="0.00 0.00 512.00 172.13" xmlns="http://www.w3.org/2000/svg" xmlns:xlink="http://www.w3.org/1999/xlink">
<g id="graph0" class="graph" transform="scale(1 1) rotate(0) translate(4 168.13)">
<title>OPOS6UL_ActionsExtended::lcd2x16</title>
<polygon fill="white" stroke="transparent" points="-4,4 -4,-168.13 508,-168.13 508,4 -4,4"/>
<!-- Node1 -->
<g id="node1" class="node">
<title>Node1</title>
<g id="a_node1"><a xlink:title="Cette methode retourne l&#39;objet LcdShield.">
<polygon fill="#bfbfbf" stroke="black" points="355,-57.13 355,-87.13 504,-87.13 504,-57.13 355,-57.13"/>
<text text-anchor="start" x="363" y="-75.13" font-family="Helvetica,sans-Serif" font-size="10.00">OPOS6UL_ActionsExtended</text>
<text text-anchor="middle" x="429.5" y="-64.13" font-family="Helvetica,sans-Serif" font-size="10.00">::lcd2x16</text>
</a>
</g>
</g>
<!-- Node2 -->
<g id="node2" class="node">
<title>Node2</title>
<g id="a_node2"><a xlink:href="classOPOS6UL__RobotExtended.html#a73821b0ec83f0ebcdccf8c9e999616a0" target="_top" xlink:title="Affiche les points accumulés pendant le match.">
<polygon fill="white" stroke="black" points="177,-57.13 177,-87.13 319,-87.13 319,-57.13 177,-57.13"/>
<text text-anchor="start" x="185" y="-75.13" font-family="Helvetica,sans-Serif" font-size="10.00">OPOS6UL_RobotExtended</text>
<text text-anchor="middle" x="248" y="-64.13" font-family="Helvetica,sans-Serif" font-size="10.00">::displayPoints</text>
</a>
</g>
</g>
<!-- Node1&#45;&gt;Node2 -->
<g id="edge1" class="edge">
<title>Node1&#45;&gt;Node2</title>
<path fill="none" stroke="midnightblue" d="M344.93,-72.13C336.34,-72.13 327.66,-72.13 319.23,-72.13"/>
<polygon fill="midnightblue" stroke="midnightblue" points="344.97,-75.63 354.97,-72.13 344.97,-68.63 344.97,-75.63"/>
</g>
<!-- Node3 -->
<g id="node3" class="node">
<title>Node3</title>
<g id="a_node3"><a xlink:href="classO__State__Init.html#abc19788b7457d1f819245dd28367fe91" target="_top" xlink:title="Exécute l&#39;état d&#39;initialisation.">
<polygon fill="white" stroke="black" points="10.5,-106.63 10.5,-125.63 130.5,-125.63 130.5,-106.63 10.5,-106.63"/>
<text text-anchor="middle" x="70.5" y="-113.63" font-family="Helvetica,sans-Serif" font-size="10.00">O_State_Init::execute</text>
</a>
</g>
</g>
<!-- Node1&#45;&gt;Node3 -->
<g id="edge4" class="edge">
<title>Node1&#45;&gt;Node3</title>
<path fill="none" stroke="midnightblue" d="M360.23,-89.36C346.64,-92.32 332.42,-95.1 319,-97.13 254.98,-106.84 180.85,-111.7 130.54,-114.06"/>
<polygon fill="midnightblue" stroke="midnightblue" points="360.99,-92.77 369.99,-87.17 359.47,-85.94 360.99,-92.77"/>
</g>
<!-- Node4 -->
<g id="node4" class="node">
<title>Node4</title>
<g id="a_node4"><a xlink:href="classO__State__WaitEndOfMatch.html#aa73613440b37c8dd42181e2e0265ae86" target="_top" xlink:title="Exécute l&#39;état d&#39;attente de fin de match.">
<polygon fill="white" stroke="black" points="0,-16.13 0,-46.13 141,-46.13 141,-16.13 0,-16.13"/>
<text text-anchor="start" x="8" y="-34.13" font-family="Helvetica,sans-Serif" font-size="10.00">O_State_WaitEndOfMatch</text>
<text text-anchor="middle" x="70.5" y="-23.13" font-family="Helvetica,sans-Serif" font-size="10.00">::execute</text>
</a>
</g>
</g>
<!-- Node1&#45;&gt;Node4 -->
<g id="edge5" class="edge">
<title>Node1&#45;&gt;Node4</title>
<path fill="none" stroke="midnightblue" d="M401.16,-50.96C380.03,-36.01 349.36,-17.24 319,-9.13 253.36,8.4 174.81,-3.97 124.07,-16.08"/>
<polygon fill="midnightblue" stroke="midnightblue" points="399.17,-53.84 409.32,-56.88 403.28,-48.18 399.17,-53.84"/>
</g>
<!-- Node5 -->
<g id="node5" class="node">
<title>Node5</title>
<g id="a_node5"><a xlink:href="classO__LcdBoardTest.html#a5fe507797dd1ee404d3fd4a0fd6b7885" target="_top" xlink:title="Execute le test.">
<polygon fill="white" stroke="black" points="190,-18.63 190,-37.63 306,-37.63 306,-18.63 190,-18.63"/>
<text text-anchor="middle" x="248" y="-25.63" font-family="Helvetica,sans-Serif" font-size="10.00">O_LcdBoardTest::run</text>
</a>
</g>
</g>
<!-- Node1&#45;&gt;Node5 -->
<g id="edge6" class="edge">
<title>Node1&#45;&gt;Node5</title>
<path fill="none" stroke="midnightblue" d="M357.21,-54.66C333.54,-48.86 308.08,-42.62 287.81,-37.65"/>
<polygon fill="midnightblue" stroke="midnightblue" points="356.68,-58.13 367.23,-57.11 358.35,-51.33 356.68,-58.13"/>
</g>
<!-- Node6 -->
<g id="node6" class="node">
<title>Node6</title>
<g id="a_node6"><a xlink:href="classO__State__Init.html#a1980cd82dcb83e88d61f2e7e14dddfa0" target="_top" xlink:title=" ">
<polygon fill="white" stroke="black" points="191,-144.63 191,-163.63 305,-163.63 305,-144.63 191,-144.63"/>
<text text-anchor="middle" x="248" y="-151.63" font-family="Helvetica,sans-Serif" font-size="10.00">O_State_Init::setPos</text>
</a>
</g>
</g>
<!-- Node1&#45;&gt;Node6 -->
<g id="edge7" class="edge">
<title>Node1&#45;&gt;Node6</title>
<path fill="none" stroke="midnightblue" d="M394.01,-92.19C372.78,-104.08 344.79,-118.96 319,-130.13 306.62,-135.49 292.62,-140.49 280.41,-144.53"/>
<polygon fill="midnightblue" stroke="midnightblue" points="395.97,-95.1 402.96,-87.13 392.53,-89.01 395.97,-95.1"/>
</g>
<!-- Node2&#45;&gt;Node3 -->
<g id="edge2" class="edge">
<title>Node2&#45;&gt;Node3</title>
<path fill="none" stroke="midnightblue" d="M177.3,-89.61C154.16,-95.41 129.27,-101.65 109.44,-106.62"/>
<polygon fill="midnightblue" stroke="midnightblue" points="178.25,-92.98 187.09,-87.15 176.54,-86.19 178.25,-92.98"/>
</g>
<!-- Node2&#45;&gt;Node4 -->
<g id="edge3" class="edge">
<title>Node2&#45;&gt;Node4</title>
<path fill="none" stroke="midnightblue" d="M172.87,-54.82C160.56,-51.94 147.89,-48.98 135.85,-46.17"/>
<polygon fill="midnightblue" stroke="midnightblue" points="172.11,-58.23 182.65,-57.1 173.71,-51.42 172.11,-58.23"/>
</g>
<!-- Node6&#45;&gt;Node3 -->
<g id="edge8" class="edge">
<title>Node6&#45;&gt;Node3</title>
<path fill="none" stroke="midnightblue" d="M192.72,-142.38C167.91,-137.01 138.89,-130.72 115.47,-125.65"/>
<polygon fill="midnightblue" stroke="midnightblue" points="192.2,-145.85 202.71,-144.54 193.68,-139.01 192.2,-145.85"/>
</g>
</g>
</svg>
