<?xml version="1.0" encoding="UTF-8" standalone="no"?>
<!DOCTYPE svg PUBLIC "-//W3C//DTD SVG 1.1//EN"
 "http://www.w3.org/Graphics/SVG/1.1/DTD/svg11.dtd">
<!-- Generated by graphviz version 2.43.0 (0)
 -->
<!-- Title: Asserv::changeMatchX Pages: 1 -->
<svg width="677pt" height="398pt"
 viewBox="0.00 0.00 677.00 397.50" xmlns="http://www.w3.org/2000/svg" xmlns:xlink="http://www.w3.org/1999/xlink">
<g id="graph0" class="graph" transform="scale(1 1) rotate(0) translate(4 393.5)">
<title>Asserv::changeMatchX</title>
<polygon fill="white" stroke="transparent" points="-4,4 -4,-393.5 673,-393.5 673,4 -4,4"/>
<!-- Node1 -->
<g id="node1" class="node">
<title>Node1</title>
<g id="a_node1"><a xlink:title=" ">
<polygon fill="#bfbfbf" stroke="black" points="542,-199 542,-218 669,-218 669,-199 542,-199"/>
<text text-anchor="middle" x="605.5" y="-206" font-family="Helvetica,sans-Serif" font-size="10.00">Asserv::changeMatchX</text>
</a>
</g>
</g>
<!-- Node2 -->
<g id="node2" class="node">
<title>Node2</title>
<g id="a_node2"><a xlink:href="classAsserv.html#a3a481367962ccacd1a378c3bb5df3b25" target="_top" xlink:title=" ">
<polygon fill="white" stroke="black" points="356.5,-370 356.5,-389 502.5,-389 502.5,-370 356.5,-370"/>
<text text-anchor="middle" x="429.5" y="-377" font-family="Helvetica,sans-Serif" font-size="10.00">Asserv::adjustRealPosition</text>
</a>
</g>
</g>
<!-- Node1&#45;&gt;Node2 -->
<g id="edge1" class="edge">
<title>Node1&#45;&gt;Node2</title>
<path fill="none" stroke="midnightblue" d="M597.47,-227.81C584.59,-260.41 554.02,-326.14 506,-360.5 500.61,-364.35 494.52,-367.43 488.2,-369.88"/>
<polygon fill="midnightblue" stroke="midnightblue" points="600.87,-228.71 601.16,-218.12 594.33,-226.22 600.87,-228.71"/>
</g>
<!-- Node3 -->
<g id="node3" class="node">
<title>Node3</title>
<g id="a_node3"><a xlink:href="classAsserv.html#a314e3ff9a8a538a23d26dcb802386024" target="_top" xlink:title=" ">
<polygon fill="white" stroke="black" points="167.5,-145.5 167.5,-175.5 305.5,-175.5 305.5,-145.5 167.5,-145.5"/>
<text text-anchor="start" x="175.5" y="-163.5" font-family="Helvetica,sans-Serif" font-size="10.00">Asserv::calculateDriftLeft</text>
<text text-anchor="middle" x="236.5" y="-152.5" font-family="Helvetica,sans-Serif" font-size="10.00">SideAndSetPos</text>
</a>
</g>
</g>
<!-- Node1&#45;&gt;Node3 -->
<g id="edge2" class="edge">
<title>Node1&#45;&gt;Node3</title>
<path fill="none" stroke="midnightblue" d="M531.63,-215.98C481.01,-219.36 412.29,-220.33 353,-208.5 321.48,-202.21 287.8,-187.15 265,-175.56"/>
<polygon fill="midnightblue" stroke="midnightblue" points="532.1,-219.46 541.82,-215.25 531.6,-212.47 532.1,-219.46"/>
</g>
<!-- Node4 -->
<g id="node4" class="node">
<title>Node4</title>
<g id="a_node4"><a xlink:href="classAsserv.html#af98a1702935599e4d8f0b6cfac9c7dbe" target="_top" xlink:title=" ">
<polygon fill="white" stroke="black" points="380,-294 380,-313 479,-313 479,-294 380,-294"/>
<text text-anchor="middle" x="429.5" y="-301" font-family="Helvetica,sans-Serif" font-size="10.00">Asserv::doFaceTo</text>
</a>
</g>
</g>
<!-- Node1&#45;&gt;Node4 -->
<g id="edge3" class="edge">
<title>Node1&#45;&gt;Node4</title>
<path fill="none" stroke="midnightblue" d="M587.45,-225.25C568.91,-242.55 537.65,-269.14 506,-284.5 497.61,-288.57 488.26,-291.83 479.07,-294.42"/>
<polygon fill="midnightblue" stroke="midnightblue" points="589.98,-227.67 594.81,-218.24 585.15,-222.6 589.98,-227.67"/>
</g>
<!-- Node5 -->
<g id="node5" class="node">
<title>Node5</title>
<g id="a_node5"><a xlink:href="classAsserv.html#aa2ec3b84e3cccf2145cc70e33f08dc58" target="_top" xlink:title=" ">
<polygon fill="white" stroke="black" points="353.5,-332 353.5,-351 505.5,-351 505.5,-332 353.5,-332"/>
<text text-anchor="middle" x="429.5" y="-339" font-family="Helvetica,sans-Serif" font-size="10.00">Asserv::doMoveBackwardTo</text>
</a>
</g>
</g>
<!-- Node1&#45;&gt;Node5 -->
<g id="edge4" class="edge">
<title>Node1&#45;&gt;Node5</title>
<path fill="none" stroke="midnightblue" d="M593.74,-226.9C577.86,-252.38 545.69,-298.04 506,-322.5 499.67,-326.4 492.58,-329.5 485.34,-331.97"/>
<polygon fill="midnightblue" stroke="midnightblue" points="596.82,-228.57 599.01,-218.21 590.83,-224.94 596.82,-228.57"/>
</g>
<!-- Node7 -->
<g id="node7" class="node">
<title>Node7</title>
<g id="a_node7"><a xlink:href="classAsserv.html#a960679fed5ab18f631d7847c95fc1f85" target="_top" xlink:title=" ">
<polygon fill="white" stroke="black" points="358,-256 358,-275 501,-275 501,-256 358,-256"/>
<text text-anchor="middle" x="429.5" y="-263" font-family="Helvetica,sans-Serif" font-size="10.00">Asserv::doMoveForwardTo</text>
</a>
</g>
</g>
<!-- Node1&#45;&gt;Node7 -->
<g id="edge6" class="edge">
<title>Node1&#45;&gt;Node7</title>
<path fill="none" stroke="midnightblue" d="M566.79,-221.29C548.46,-227.46 526.11,-234.94 506,-241.5 491.23,-246.32 474.78,-251.56 461.03,-255.91"/>
<polygon fill="midnightblue" stroke="midnightblue" points="568.16,-224.52 576.52,-218 565.92,-217.89 568.16,-224.52"/>
</g>
<!-- Node9 -->
<g id="node9" class="node">
<title>Node9</title>
<g id="a_node9"><a xlink:href="classAsserv.html#a8d3855dc9eddaff07b58a7a01e2024c3" target="_top" xlink:title=" ">
<polygon fill="white" stroke="black" points="377.5,-180 377.5,-199 481.5,-199 481.5,-180 377.5,-180"/>
<text text-anchor="middle" x="429.5" y="-187" font-family="Helvetica,sans-Serif" font-size="10.00">Asserv::gotoChain</text>
</a>
</g>
</g>
<!-- Node1&#45;&gt;Node9 -->
<g id="edge8" class="edge">
<title>Node1&#45;&gt;Node9</title>
<path fill="none" stroke="midnightblue" d="M531.36,-200.51C514.59,-198.68 497.11,-196.77 481.52,-195.07"/>
<polygon fill="midnightblue" stroke="midnightblue" points="531.36,-204.03 541.68,-201.64 532.12,-197.08 531.36,-204.03"/>
</g>
<!-- Node10 -->
<g id="node10" class="node">
<title>Node10</title>
<g id="a_node10"><a xlink:href="classAsserv.html#ade31f4182c755e3ee09092fe9bf3d5d0" target="_top" xlink:title=" ">
<polygon fill="white" stroke="black" points="371.5,-142 371.5,-161 487.5,-161 487.5,-142 371.5,-142"/>
<text text-anchor="middle" x="429.5" y="-149" font-family="Helvetica,sans-Serif" font-size="10.00">Asserv::gotoReverse</text>
</a>
</g>
</g>
<!-- Node1&#45;&gt;Node10 -->
<g id="edge9" class="edge">
<title>Node1&#45;&gt;Node10</title>
<path fill="none" stroke="midnightblue" d="M572.66,-195.08C553.54,-187.31 528.61,-177.68 506,-170.5 495.18,-167.06 483.33,-163.84 472.29,-161.05"/>
<polygon fill="midnightblue" stroke="midnightblue" points="571.51,-198.39 582.09,-198.95 574.17,-191.92 571.51,-198.39"/>
</g>
<!-- Node11 -->
<g id="node11" class="node">
<title>Node11</title>
<g id="a_node11"><a xlink:href="classAsserv.html#af02450d4e92f864b844a63ffe6fb16d3" target="_top" xlink:title=" ">
<polygon fill="white" stroke="black" points="357.5,-104 357.5,-123 501.5,-123 501.5,-104 357.5,-104"/>
<text text-anchor="middle" x="429.5" y="-111" font-family="Helvetica,sans-Serif" font-size="10.00">Asserv::gotoReverseChain</text>
</a>
</g>
</g>
<!-- Node1&#45;&gt;Node11 -->
<g id="edge10" class="edge">
<title>Node1&#45;&gt;Node11</title>
<path fill="none" stroke="midnightblue" d="M587.45,-191.75C568.91,-174.45 537.65,-147.86 506,-132.5 498.1,-128.66 489.34,-125.55 480.67,-123.04"/>
<polygon fill="midnightblue" stroke="midnightblue" points="585.15,-194.4 594.81,-198.76 589.98,-189.33 585.15,-194.4"/>
</g>
<!-- Node12 -->
<g id="node12" class="node">
<title>Node12</title>
<g id="a_node12"><a xlink:href="classAsserv.html#a3208aa1d2cc84eff11770477b79aa6f7" target="_top" xlink:title=" ">
<polygon fill="white" stroke="black" points="385,-66 385,-85 474,-85 474,-66 385,-66"/>
<text text-anchor="middle" x="429.5" y="-73" font-family="Helvetica,sans-Serif" font-size="10.00">Asserv::gotoXY</text>
</a>
</g>
</g>
<!-- Node1&#45;&gt;Node12 -->
<g id="edge11" class="edge">
<title>Node1&#45;&gt;Node12</title>
<path fill="none" stroke="midnightblue" d="M593.74,-190.1C577.86,-164.62 545.69,-118.96 506,-94.5 496.45,-88.61 485.16,-84.55 474.25,-81.74"/>
<polygon fill="midnightblue" stroke="midnightblue" points="590.83,-192.06 599.01,-198.79 596.82,-188.43 590.83,-192.06"/>
</g>
<!-- Node13 -->
<g id="node13" class="node">
<title>Node13</title>
<g id="a_node13"><a xlink:href="classAsserv.html#a050645863c2a40f3116ee0847d1d3732" target="_top" xlink:title=" ">
<polygon fill="white" stroke="black" points="353,-28 353,-47 506,-47 506,-28 353,-28"/>
<text text-anchor="middle" x="429.5" y="-35" font-family="Helvetica,sans-Serif" font-size="10.00">Asserv::setPositionAndColor</text>
</a>
</g>
</g>
<!-- Node1&#45;&gt;Node13 -->
<g id="edge12" class="edge">
<title>Node1&#45;&gt;Node13</title>
<path fill="none" stroke="midnightblue" d="M597.47,-189.19C584.59,-156.59 554.02,-90.86 506,-56.5 500.61,-52.65 494.52,-49.57 488.2,-47.12"/>
<polygon fill="midnightblue" stroke="midnightblue" points="594.33,-190.78 601.16,-198.88 600.87,-188.29 594.33,-190.78"/>
</g>
<!-- Node6 -->
<g id="node6" class="node">
<title>Node6</title>
<g id="a_node6"><a xlink:href="classAsserv.html#af438189501d475dcb6632ce63efe5e5f" target="_top" xlink:title=" ">
<polygon fill="white" stroke="black" points="156,-326.5 156,-356.5 317,-356.5 317,-326.5 156,-326.5"/>
<text text-anchor="start" x="164" y="-344.5" font-family="Helvetica,sans-Serif" font-size="10.00">Asserv::doMoveBackwardAnd</text>
<text text-anchor="middle" x="236.5" y="-333.5" font-family="Helvetica,sans-Serif" font-size="10.00">RotateTo</text>
</a>
</g>
</g>
<!-- Node5&#45;&gt;Node6 -->
<g id="edge5" class="edge">
<title>Node5&#45;&gt;Node6</title>
<path fill="none" stroke="midnightblue" d="M343.16,-341.5C334.47,-341.5 325.67,-341.5 317.05,-341.5"/>
<polygon fill="midnightblue" stroke="midnightblue" points="343.29,-345 353.29,-341.5 343.29,-338 343.29,-345"/>
</g>
<!-- Node8 -->
<g id="node8" class="node">
<title>Node8</title>
<g id="a_node8"><a xlink:href="classAsserv.html#a0a57aa0008a30ba9b13502e4dd61310d" target="_top" xlink:title=" ">
<polygon fill="white" stroke="black" points="160.5,-250.5 160.5,-280.5 312.5,-280.5 312.5,-250.5 160.5,-250.5"/>
<text text-anchor="start" x="168.5" y="-268.5" font-family="Helvetica,sans-Serif" font-size="10.00">Asserv::doMoveForwardAnd</text>
<text text-anchor="middle" x="236.5" y="-257.5" font-family="Helvetica,sans-Serif" font-size="10.00">RotateTo</text>
</a>
</g>
</g>
<!-- Node7&#45;&gt;Node8 -->
<g id="edge7" class="edge">
<title>Node7&#45;&gt;Node8</title>
<path fill="none" stroke="midnightblue" d="M347.77,-265.5C336.11,-265.5 324.14,-265.5 312.6,-265.5"/>
<polygon fill="midnightblue" stroke="midnightblue" points="347.92,-269 357.92,-265.5 347.92,-262 347.92,-269"/>
</g>
<!-- Node13&#45;&gt;Node3 -->
<g id="edge13" class="edge">
<title>Node13&#45;&gt;Node3</title>
<path fill="none" stroke="midnightblue" d="M366.66,-50.37C361.93,-52.17 357.32,-54.2 353,-56.5 309.66,-79.6 269.57,-122.42 250.01,-145.25"/>
<polygon fill="midnightblue" stroke="midnightblue" points="368.15,-53.57 376.48,-47.03 365.89,-46.94 368.15,-53.57"/>
</g>
<!-- Node14 -->
<g id="node14" class="node">
<title>Node14</title>
<g id="a_node14"><a xlink:href="classAsserv.html#a9e997a871e745e687a4088103378bae3" target="_top" xlink:title=" ">
<polygon fill="white" stroke="black" points="163.5,-0.5 163.5,-30.5 309.5,-30.5 309.5,-0.5 163.5,-0.5"/>
<text text-anchor="start" x="171.5" y="-18.5" font-family="Helvetica,sans-Serif" font-size="10.00">Asserv::calculateDriftRight</text>
<text text-anchor="middle" x="236.5" y="-7.5" font-family="Helvetica,sans-Serif" font-size="10.00">SideAndSetPos</text>
</a>
</g>
</g>
<!-- Node13&#45;&gt;Node14 -->
<g id="edge14" class="edge">
<title>Node13&#45;&gt;Node14</title>
<path fill="none" stroke="midnightblue" d="M342.7,-27.62C331.69,-26.35 320.51,-25.06 309.75,-23.82"/>
<polygon fill="midnightblue" stroke="midnightblue" points="342.4,-31.11 352.74,-28.77 343.2,-24.15 342.4,-31.11"/>
</g>
<!-- Node15 -->
<g id="node15" class="node">
<title>Node15</title>
<g id="a_node15"><a xlink:href="classO__State__Init.html#a1980cd82dcb83e88d61f2e7e14dddfa0" target="_top" xlink:title=" ">
<polygon fill="white" stroke="black" points="179.5,-50 179.5,-69 293.5,-69 293.5,-50 179.5,-50"/>
<text text-anchor="middle" x="236.5" y="-57" font-family="Helvetica,sans-Serif" font-size="10.00">O_State_Init::setPos</text>
</a>
</g>
</g>
<!-- Node13&#45;&gt;Node15 -->
<g id="edge15" class="edge">
<title>Node13&#45;&gt;Node15</title>
<path fill="none" stroke="midnightblue" d="M342.5,-47.41C325.95,-49.31 309.02,-51.26 293.72,-53.02"/>
<polygon fill="midnightblue" stroke="midnightblue" points="343.2,-50.85 352.74,-46.23 342.4,-43.89 343.2,-50.85"/>
</g>
<!-- Node16 -->
<g id="node16" class="node">
<title>Node16</title>
<g id="a_node16"><a xlink:href="classO__State__Init.html#abc19788b7457d1f819245dd28367fe91" target="_top" xlink:title="Exécute l&#39;état d&#39;initialisation.">
<polygon fill="white" stroke="black" points="0,-50 0,-69 120,-69 120,-50 0,-50"/>
<text text-anchor="middle" x="60" y="-57" font-family="Helvetica,sans-Serif" font-size="10.00">O_State_Init::execute</text>
</a>
</g>
</g>
<!-- Node15&#45;&gt;Node16 -->
<g id="edge16" class="edge">
<title>Node15&#45;&gt;Node16</title>
<path fill="none" stroke="midnightblue" d="M168.93,-59.5C152.85,-59.5 135.78,-59.5 120.07,-59.5"/>
<polygon fill="midnightblue" stroke="midnightblue" points="169.33,-63 179.33,-59.5 169.33,-56 169.33,-63"/>
</g>
</g>
</svg>
