<?xml version="1.0" encoding="UTF-8" standalone="no"?>
<!DOCTYPE svg PUBLIC "-//W3C//DTD SVG 1.1//EN"
 "http://www.w3.org/Graphics/SVG/1.1/DTD/svg11.dtd">
<!-- Generated by graphviz version 2.43.0 (0)
 -->
<!-- Title: AsservDriverSimu::resetEncoders Pages: 1 -->
<!--zoomable 241 -->
<svg id="main" version="1.1" xmlns="http://www.w3.org/2000/svg" xmlns:xlink="http://www.w3.org/1999/xlink" xml:space="preserve" onload="init(evt)">
<style type="text/css"><![CDATA[
.edge:hover path { stroke: red; }
.edge:hover polygon { stroke: red; fill: red; }
]]></style>
<script type="text/javascript"><![CDATA[
var edges = document.getElementsByTagName('g');
if (edges && edges.length) {
  for (var i=0;i<edges.length;i++) {
    if (edges[i].id.substr(0,4)=='edge') {
      edges[i].setAttribute('class','edge');
    }
  }
}
]]></script>
        <defs>
                <circle id="rim" cx="0" cy="0" r="7"/>
                <circle id="rim2" cx="0" cy="0" r="3.5"/>
                <g id="zoomPlus">
                        <use xlink:href="#rim" fill="#404040">
                                <set attributeName="fill" to="#808080" begin="zoomplus.mouseover" end="zoomplus.mouseout"/>
                        </use>
                        <path d="M-4,0h8M0,-4v8" fill="none" stroke="white" stroke-width="1.5" pointer-events="none"/>
                </g>
                <g id="zoomMin">
                        <use xlink:href="#rim" fill="#404040">
                                <set attributeName="fill" to="#808080" begin="zoomminus.mouseover" end="zoomminus.mouseout"/>
                        </use>
                        <path d="M-4,0h8" fill="none" stroke="white" stroke-width="1.5" pointer-events="none"/>
                </g>
                <g id="dirArrow">
                        <path fill="none" stroke="white" stroke-width="1.5" d="M0,-3.0v7 M-2.5,-0.5L0,-3.0L2.5,-0.5"/>
                </g>
               <g id="resetDef">
                       <use xlink:href="#rim2" fill="#404040">
                               <set attributeName="fill" to="#808080" begin="reset.mouseover" end="reset.mouseout"/>
                       </use>
               </g>
        </defs>

<script type="text/javascript">
var viewWidth = 1128;
var viewHeight = 241;
var sectionId = 'dynsection-65';
</script>
<script xlink:href="svgpan.js"/>
<svg id="graph" class="graph">
<g id="viewport">
<title>AsservDriverSimu::resetEncoders</title>
<polygon fill="white" stroke="transparent" points="-4,4 -4,-236.5 1124,-236.5 1124,4 -4,4"/>
<!-- Node1 -->
<g id="node1" class="node">
<title>Node1</title>
<g id="a_node1"><a xlink:title="Remet a zero tous les encodeurs.">
<polygon fill="#bfbfbf" stroke="black" points="0,-150 0,-169 179,-169 179,-150 0,-150"/>
<text text-anchor="middle" x="89.5" y="-157" font-family="Helvetica,sans-Serif" font-size="10.00">AsservDriverSimu::resetEncoders</text>
</a>
</g>
</g>
<!-- Node2 -->
<g id="node2" class="node">
<title>Node2</title>
<g id="a_node2"><a xlink:href="classAsservDriverSimu.html#ac30d3be71da13b7199b6ef814af26b1a" target="_top" xlink:title=" ">
<polygon fill="white" stroke="black" points="215,-169.5 215,-199.5 368,-199.5 368,-169.5 215,-169.5"/>
<text text-anchor="start" x="223" y="-187.5" font-family="Helvetica,sans-Serif" font-size="10.00">AsservDriverSimu::compute</text>
<text text-anchor="middle" x="291.5" y="-176.5" font-family="Helvetica,sans-Serif" font-size="10.00">CounterL</text>
</a>
</g>
</g>
<!-- Node1&#45;&gt;Node2 -->
<g id="edge1" class="edge">
<title>Node1&#45;&gt;Node2</title>
<path fill="none" stroke="midnightblue" d="M166.68,-169.02C179.14,-170.58 192.12,-172.2 204.78,-173.79"/>
<polygon fill="midnightblue" stroke="midnightblue" points="204.5,-177.28 214.86,-175.05 205.37,-170.33 204.5,-177.28"/>
</g>
<!-- Node16 -->
<g id="node16" class="node">
<title>Node16</title>
<g id="a_node16"><a xlink:href="classAsservDriverSimu.html#a93a71da90411a3d79b507ed951f467ab" target="_top" xlink:title=" ">
<polygon fill="white" stroke="black" points="215,-120.5 215,-150.5 368,-150.5 368,-120.5 215,-120.5"/>
<text text-anchor="start" x="223" y="-138.5" font-family="Helvetica,sans-Serif" font-size="10.00">AsservDriverSimu::compute</text>
<text text-anchor="middle" x="291.5" y="-127.5" font-family="Helvetica,sans-Serif" font-size="10.00">CounterR</text>
</a>
</g>
</g>
<!-- Node1&#45;&gt;Node16 -->
<g id="edge16" class="edge">
<title>Node1&#45;&gt;Node16</title>
<path fill="none" stroke="midnightblue" d="M169.83,-149.98C181.3,-148.6 193.16,-147.18 204.75,-145.79"/>
<polygon fill="midnightblue" stroke="midnightblue" points="205.34,-149.24 214.85,-144.58 204.5,-142.29 205.34,-149.24"/>
</g>
<!-- Node3 -->
<g id="node3" class="node">
<title>Node3</title>
<g id="a_node3"><a xlink:href="classAsservDriverSimu.html#a947251612114c02b78aeee1b022a12df" target="_top" xlink:title=" ">
<polygon fill="white" stroke="black" points="405,-169.5 405,-199.5 552,-199.5 552,-169.5 405,-169.5"/>
<text text-anchor="start" x="413" y="-187.5" font-family="Helvetica,sans-Serif" font-size="10.00">AsservDriverSimu::convert</text>
<text text-anchor="middle" x="478.5" y="-176.5" font-family="Helvetica,sans-Serif" font-size="10.00">MmToTicks</text>
</a>
</g>
</g>
<!-- Node2&#45;&gt;Node3 -->
<g id="edge2" class="edge">
<title>Node2&#45;&gt;Node3</title>
<path fill="none" stroke="midnightblue" d="M368.01,-184.5C376.87,-184.5 385.94,-184.5 394.89,-184.5"/>
<polygon fill="midnightblue" stroke="midnightblue" points="394.92,-188 404.92,-184.5 394.92,-181 394.92,-188"/>
</g>
<!-- Node15 -->
<g id="node15" class="node">
<title>Node15</title>
<g id="a_node15"><a xlink:href="classutils_1_1Chronometer.html#aecf9f2e3ced9629be0a03b3ecf0ee01a" target="_top" xlink:title="Retourne le temps écoulé en millisecondes.">
<polygon fill="white" stroke="black" points="404,-120.5 404,-150.5 553,-150.5 553,-120.5 404,-120.5"/>
<text text-anchor="start" x="412" y="-138.5" font-family="Helvetica,sans-Serif" font-size="10.00">utils::Chronometer</text>
<text text-anchor="middle" x="478.5" y="-127.5" font-family="Helvetica,sans-Serif" font-size="10.00">::getElapsedTimeInMilliSec</text>
</a>
</g>
</g>
<!-- Node2&#45;&gt;Node15 -->
<g id="edge15" class="edge">
<title>Node2&#45;&gt;Node15</title>
<path fill="none" stroke="midnightblue" d="M349.26,-169.47C368.8,-164.29 390.84,-158.45 411.08,-153.09"/>
<polygon fill="midnightblue" stroke="midnightblue" points="412.07,-156.45 420.84,-150.51 410.28,-149.68 412.07,-156.45"/>
</g>
<!-- Node4 -->
<g id="node4" class="node">
<title>Node4</title>
<g id="a_node4"><a xlink:href="classlogs_1_1Logger.html#a7dffc8f610014ec59b63392da16140e4" target="_top" xlink:title="Trace un message de niveau DEBUG.">
<polygon fill="white" stroke="black" points="794,-213 794,-232 906,-232 906,-213 794,-213"/>
<text text-anchor="middle" x="850" y="-220" font-family="Helvetica,sans-Serif" font-size="10.00">logs::Logger::debug</text>
</a>
</g>
</g>
<!-- Node3&#45;&gt;Node4 -->
<g id="edge3" class="edge">
<title>Node3&#45;&gt;Node4</title>
<path fill="none" stroke="midnightblue" d="M552.09,-198.13C564.38,-200.14 577.03,-202.03 589,-203.5 655.01,-211.62 730.91,-216.68 783.6,-219.51"/>
<polygon fill="midnightblue" stroke="midnightblue" points="783.64,-223.02 793.81,-220.05 784.01,-216.03 783.64,-223.02"/>
</g>
<!-- Node6 -->
<g id="node6" class="node">
<title>Node6</title>
<g id="a_node6"><a xlink:href="namespacelogs.html#ac6f325c6cfe6189bc8e243daa184453b" target="_top" xlink:title="Cette méthode permet de finir les flux de construction par la notation.">
<polygon fill="white" stroke="black" points="629,-175 629,-194 690,-194 690,-175 629,-175"/>
<text text-anchor="middle" x="659.5" y="-182" font-family="Helvetica,sans-Serif" font-size="10.00">logs::end</text>
</a>
</g>
</g>
<!-- Node3&#45;&gt;Node6 -->
<g id="edge5" class="edge">
<title>Node3&#45;&gt;Node6</title>
<path fill="none" stroke="midnightblue" d="M552.05,-184.5C574.72,-184.5 598.9,-184.5 618.47,-184.5"/>
<polygon fill="midnightblue" stroke="midnightblue" points="618.55,-188 628.55,-184.5 618.55,-181 618.55,-188"/>
</g>
<!-- Node10 -->
<g id="node10" class="node">
<title>Node10</title>
<g id="a_node10"><a xlink:href="classAsservDriverSimu.html#ae676ad46e14f6a0547264fdfd5cd399e" target="_top" xlink:title="Retourne le Logger associé à la classe AsservDriverSimu(SIMU).">
<polygon fill="white" stroke="black" points="589,-118 589,-137 730,-137 730,-118 589,-118"/>
<text text-anchor="middle" x="659.5" y="-125" font-family="Helvetica,sans-Serif" font-size="10.00">AsservDriverSimu::logger</text>
</a>
</g>
</g>
<!-- Node3&#45;&gt;Node10 -->
<g id="edge10" class="edge">
<title>Node3&#45;&gt;Node10</title>
<path fill="none" stroke="midnightblue" d="M527,-169.37C555.69,-160.24 591.82,-148.73 618.95,-140.09"/>
<polygon fill="midnightblue" stroke="midnightblue" points="620.04,-143.42 628.51,-137.05 617.91,-136.75 620.04,-143.42"/>
</g>
<!-- Node5 -->
<g id="node5" class="node">
<title>Node5</title>
<g id="a_node5"><a xlink:href="classlogs_1_1Logger.html#afa535aaf4891e02c4ff7f84d372b5b1b" target="_top" xlink:title="Méthode générique de trace d&#39;un message.">
<polygon fill="white" stroke="black" points="970,-213 970,-232 1120,-232 1120,-213 970,-213"/>
<text text-anchor="middle" x="1045" y="-220" font-family="Helvetica,sans-Serif" font-size="10.00">logs::Logger::writeMessage</text>
</a>
</g>
</g>
<!-- Node4&#45;&gt;Node5 -->
<g id="edge4" class="edge">
<title>Node4&#45;&gt;Node5</title>
<path fill="none" stroke="midnightblue" d="M906.05,-222.5C922.78,-222.5 941.57,-222.5 959.76,-222.5"/>
<polygon fill="midnightblue" stroke="midnightblue" points="959.79,-226 969.79,-222.5 959.79,-219 959.79,-226"/>
</g>
<!-- Node7 -->
<g id="node7" class="node">
<title>Node7</title>
<g id="a_node7"><a xlink:href="classlogs_1_1Logger_1_1LoggerBuffer.html#a0e4fd77693fd899ec1b0670354f93a02" target="_top" xlink:title="Cette méthode valide le message en cours de construction et le transmet au Logger de référence.">
<polygon fill="white" stroke="black" points="766,-175 766,-194 934,-194 934,-175 766,-175"/>
<text text-anchor="middle" x="850" y="-182" font-family="Helvetica,sans-Serif" font-size="10.00">logs::Logger::LoggerBuffer::end</text>
</a>
</g>
</g>
<!-- Node6&#45;&gt;Node7 -->
<g id="edge6" class="edge">
<title>Node6&#45;&gt;Node7</title>
<path fill="none" stroke="midnightblue" d="M690.37,-184.5C708.26,-184.5 732.09,-184.5 755.82,-184.5"/>
<polygon fill="midnightblue" stroke="midnightblue" points="755.97,-188 765.97,-184.5 755.97,-181 755.97,-188"/>
</g>
<!-- Node7&#45;&gt;Node5 -->
<g id="edge9" class="edge">
<title>Node7&#45;&gt;Node5</title>
<path fill="none" stroke="midnightblue" d="M899.7,-194.09C925.86,-199.24 958.28,-205.62 985.77,-211.03"/>
<polygon fill="midnightblue" stroke="midnightblue" points="985.16,-214.48 995.65,-212.98 986.51,-207.61 985.16,-214.48"/>
</g>
<!-- Node8 -->
<g id="node8" class="node">
<title>Node8</title>
<g id="a_node8"><a xlink:href="classutils_1_1Mutex.html#aa584b418a5ef484f76b93e361a1d7e32" target="_top" xlink:title="Verrouille le mutex. Cette méthode doit être appelée avant d&#39;utiliser la ressource associée....">
<polygon fill="white" stroke="black" points="994.5,-175 994.5,-194 1095.5,-194 1095.5,-175 994.5,-175"/>
<text text-anchor="middle" x="1045" y="-182" font-family="Helvetica,sans-Serif" font-size="10.00">utils::Mutex::lock</text>
</a>
</g>
</g>
<!-- Node7&#45;&gt;Node8 -->
<g id="edge7" class="edge">
<title>Node7&#45;&gt;Node8</title>
<path fill="none" stroke="midnightblue" d="M934.25,-184.5C951.07,-184.5 968.44,-184.5 984.26,-184.5"/>
<polygon fill="midnightblue" stroke="midnightblue" points="984.41,-188 994.41,-184.5 984.41,-181 984.41,-188"/>
</g>
<!-- Node9 -->
<g id="node9" class="node">
<title>Node9</title>
<g id="a_node9"><a xlink:href="classutils_1_1Mutex.html#a59b2079dc7f803d49f78ac9c04406cd3" target="_top" xlink:title="Déverrouille le mutex. Cette méthode doit être appelée après avoir utiliser la ressource associée.">
<polygon fill="white" stroke="black" points="988.5,-137 988.5,-156 1101.5,-156 1101.5,-137 988.5,-137"/>
<text text-anchor="middle" x="1045" y="-144" font-family="Helvetica,sans-Serif" font-size="10.00">utils::Mutex::unlock</text>
</a>
</g>
</g>
<!-- Node7&#45;&gt;Node9 -->
<g id="edge8" class="edge">
<title>Node7&#45;&gt;Node9</title>
<path fill="none" stroke="midnightblue" d="M899.7,-174.91C925.86,-169.76 958.28,-163.38 985.77,-157.97"/>
<polygon fill="midnightblue" stroke="midnightblue" points="986.51,-161.39 995.65,-156.02 985.16,-154.52 986.51,-161.39"/>
</g>
<!-- Node11 -->
<g id="node11" class="node">
<title>Node11</title>
<g id="a_node11"><a xlink:href="classlogs_1_1LoggerFactory.html#a82585b5de73e471e06cafdccc3b3721e" target="_top" xlink:title="Cette méthode statique retourne un Logger en fonction de son nom.">
<polygon fill="white" stroke="black" points="794.5,-71.5 794.5,-101.5 905.5,-101.5 905.5,-71.5 794.5,-71.5"/>
<text text-anchor="start" x="802.5" y="-89.5" font-family="Helvetica,sans-Serif" font-size="10.00">logs::LoggerFactory</text>
<text text-anchor="middle" x="850" y="-78.5" font-family="Helvetica,sans-Serif" font-size="10.00">::logger</text>
</a>
</g>
</g>
<!-- Node10&#45;&gt;Node11 -->
<g id="edge11" class="edge">
<title>Node10&#45;&gt;Node11</title>
<path fill="none" stroke="midnightblue" d="M704.22,-117.99C728.04,-112.81 757.97,-106.3 784.43,-100.54"/>
<polygon fill="midnightblue" stroke="midnightblue" points="785.36,-103.93 794.38,-98.38 783.87,-97.08 785.36,-103.93"/>
</g>
<!-- Node12 -->
<g id="node12" class="node">
<title>Node12</title>
<g id="a_node12"><a xlink:href="classlogs_1_1LoggerFactory.html#ac89f19c0ffd71aa8cdc1c2d44c03809e" target="_top" xlink:title="Cette méthode ajoute un appender au système.">
<polygon fill="white" stroke="black" points="978,-99 978,-118 1112,-118 1112,-99 978,-99"/>
<text text-anchor="middle" x="1045" y="-106" font-family="Helvetica,sans-Serif" font-size="10.00">logs::LoggerFactory::add</text>
</a>
</g>
</g>
<!-- Node11&#45;&gt;Node12 -->
<g id="edge12" class="edge">
<title>Node11&#45;&gt;Node12</title>
<path fill="none" stroke="midnightblue" d="M905.53,-92.72C924.88,-94.92 947.03,-97.45 967.85,-99.82"/>
<polygon fill="midnightblue" stroke="midnightblue" points="967.62,-103.32 977.95,-100.97 968.41,-96.36 967.62,-103.32"/>
</g>
<!-- Node13 -->
<g id="node13" class="node">
<title>Node13</title>
<g id="a_node13"><a xlink:href="classlogs_1_1LoggerFactory.html#a90478b91d7af2ef8841ded21e3521f69" target="_top" xlink:title="Cette méthode statique retourne l&#39;instance unique de la classe LoggerFactory.">
<polygon fill="white" stroke="black" points="989.5,-49.5 989.5,-79.5 1100.5,-79.5 1100.5,-49.5 989.5,-49.5"/>
<text text-anchor="start" x="997.5" y="-67.5" font-family="Helvetica,sans-Serif" font-size="10.00">logs::LoggerFactory</text>
<text text-anchor="middle" x="1045" y="-56.5" font-family="Helvetica,sans-Serif" font-size="10.00">::instance</text>
</a>
</g>
</g>
<!-- Node11&#45;&gt;Node13 -->
<g id="edge13" class="edge">
<title>Node11&#45;&gt;Node13</title>
<path fill="none" stroke="midnightblue" d="M905.53,-80.28C928.45,-77.67 955.3,-74.61 979.22,-71.88"/>
<polygon fill="midnightblue" stroke="midnightblue" points="979.73,-75.35 989.27,-70.74 978.94,-68.39 979.73,-75.35"/>
</g>
<!-- Node14 -->
<g id="node14" class="node">
<title>Node14</title>
<g id="a_node14"><a xlink:href="classlogs_1_1LoggerFactory.html#a212aa623f4b6bee12cb39e8017dde670" target="_top" xlink:title="Cette méthode retourne le Logger principal qui définit le niveau de trace par défaut.">
<polygon fill="white" stroke="black" points="989.5,-0.5 989.5,-30.5 1100.5,-30.5 1100.5,-0.5 989.5,-0.5"/>
<text text-anchor="start" x="997.5" y="-18.5" font-family="Helvetica,sans-Serif" font-size="10.00">logs::LoggerFactory</text>
<text text-anchor="middle" x="1045" y="-7.5" font-family="Helvetica,sans-Serif" font-size="10.00">::rootLogger</text>
</a>
</g>
</g>
<!-- Node11&#45;&gt;Node14 -->
<g id="edge14" class="edge">
<title>Node11&#45;&gt;Node14</title>
<path fill="none" stroke="midnightblue" d="M887.5,-71.4C910.93,-61.88 942.09,-49.53 970,-39.5 975.24,-37.62 980.72,-35.72 986.21,-33.86"/>
<polygon fill="midnightblue" stroke="midnightblue" points="987.71,-37.05 996.08,-30.56 985.49,-30.41 987.71,-37.05"/>
</g>
<!-- Node16&#45;&gt;Node3 -->
<g id="edge17" class="edge">
<title>Node16&#45;&gt;Node3</title>
<path fill="none" stroke="midnightblue" d="M349.26,-150.53C368.8,-155.71 390.84,-161.55 411.08,-166.91"/>
<polygon fill="midnightblue" stroke="midnightblue" points="410.28,-170.32 420.84,-169.49 412.07,-163.55 410.28,-170.32"/>
</g>
<!-- Node16&#45;&gt;Node15 -->
<g id="edge18" class="edge">
<title>Node16&#45;&gt;Node15</title>
<path fill="none" stroke="midnightblue" d="M368.01,-135.5C376.4,-135.5 384.97,-135.5 393.45,-135.5"/>
<polygon fill="midnightblue" stroke="midnightblue" points="393.72,-139 403.72,-135.5 393.72,-132 393.72,-139"/>
</g>
</g>
</svg>
        <g id="navigator" transform="translate(0 0)" fill="#404254">
                <rect fill="#f2f5e9" fill-opacity="0.5" stroke="#606060" stroke-width=".5" x="0" y="0" width="60" height="60"/>
                <use id="zoomplus" xlink:href="#zoomPlus" x="17" y="9" onmousedown="handleZoom(evt,'in')"/>
                <use id="zoomminus" xlink:href="#zoomMin" x="42" y="9" onmousedown="handleZoom(evt,'out')"/>
                <use id="reset" xlink:href="#resetDef" x="30" y="36" onmousedown="handleReset()"/>
                <g id="arrowUp" xlink:href="#dirArrow" transform="translate(30 24)" onmousedown="handlePan(0,-1)">
                  <use xlink:href="#rim" fill="#404040">
                        <set attributeName="fill" to="#808080" begin="arrowUp.mouseover" end="arrowUp.mouseout"/>
                  </use>
                  <path fill="none" stroke="white" stroke-width="1.5" d="M0,-3.0v7 M-2.5,-0.5L0,-3.0L2.5,-0.5"/>
                </g>
                <g id="arrowRight" xlink:href="#dirArrow" transform="rotate(90) translate(36 -43)" onmousedown="handlePan(1,0)">
                  <use xlink:href="#rim" fill="#404040">
                        <set attributeName="fill" to="#808080" begin="arrowRight.mouseover" end="arrowRight.mouseout"/>
                  </use>
                  <path fill="none" stroke="white" stroke-width="1.5" d="M0,-3.0v7 M-2.5,-0.5L0,-3.0L2.5,-0.5"/>
                </g>
                <g id="arrowDown" xlink:href="#dirArrow" transform="rotate(180) translate(-30 -48)" onmousedown="handlePan(0,1)">
                  <use xlink:href="#rim" fill="#404040">
                        <set attributeName="fill" to="#808080" begin="arrowDown.mouseover" end="arrowDown.mouseout"/>
                  </use>
                  <path fill="none" stroke="white" stroke-width="1.5" d="M0,-3.0v7 M-2.5,-0.5L0,-3.0L2.5,-0.5"/>
                </g>
                <g id="arrowLeft" xlink:href="#dirArrow" transform="rotate(270) translate(-36 17)" onmousedown="handlePan(-1,0)">
                  <use xlink:href="#rim" fill="#404040">
                        <set attributeName="fill" to="#808080" begin="arrowLeft.mouseover" end="arrowLeft.mouseout"/>
                  </use>
                  <path fill="none" stroke="white" stroke-width="1.5" d="M0,-3.0v7 M-2.5,-0.5L0,-3.0L2.5,-0.5"/>
                </g>
        </g>
        <svg viewBox="0 0 15 15" width="100%" height="30px" preserveAspectRatio="xMaxYMin meet">
         <g id="arrow_out" transform="scale(0.3 0.3)">
          <a xlink:href="classAsservDriverSimu_abac6d3c59c331ce0ee17682eb3447f3e_cgraph_org.svg" target="_base">
           <rect id="button" ry="5" rx="5" y="6" x="6" height="38" width="38"
                fill="#f2f5e9" fill-opacity="0.5" stroke="#606060" stroke-width="1.0"/>
           <path id="arrow"
             d="M 11.500037,31.436501 C 11.940474,20.09759 22.043105,11.32322 32.158766,21.979434 L 37.068811,17.246167 C 37.068811,17.246167 37.088388,32 37.088388,32 L 22.160133,31.978069 C 22.160133,31.978069 26.997745,27.140456 26.997745,27.140456 C 18.528582,18.264221 13.291696,25.230495 11.500037,31.436501 z"
             style="fill:#404040;"/>
          </a>
         </g>
        </svg>
</svg>
