<?xml version="1.0" encoding="UTF-8" standalone="no"?>
<!DOCTYPE svg PUBLIC "-//W3C//DTD SVG 1.1//EN"
 "http://www.w3.org/Graphics/SVG/1.1/DTD/svg11.dtd">
<!-- Generated by graphviz version 2.43.0 (0)
 -->
<!-- Title: Asserv::pos_getThetaInDegree Pages: 1 -->
<!--zoomable 443 -->
<svg id="main" version="1.1" xmlns="http://www.w3.org/2000/svg" xmlns:xlink="http://www.w3.org/1999/xlink" xml:space="preserve" onload="init(evt)">
<style type="text/css"><![CDATA[
.edge:hover path { stroke: red; }
.edge:hover polygon { stroke: red; fill: red; }
]]></style>
<script type="text/javascript"><![CDATA[
var edges = document.getElementsByTagName('g');
if (edges && edges.length) {
  for (var i=0;i<edges.length;i++) {
    if (edges[i].id.substr(0,4)=='edge') {
      edges[i].setAttribute('class','edge');
    }
  }
}
]]></script>
        <defs>
                <circle id="rim" cx="0" cy="0" r="7"/>
                <circle id="rim2" cx="0" cy="0" r="3.5"/>
                <g id="zoomPlus">
                        <use xlink:href="#rim" fill="#404040">
                                <set attributeName="fill" to="#808080" begin="zoomplus.mouseover" end="zoomplus.mouseout"/>
                        </use>
                        <path d="M-4,0h8M0,-4v8" fill="none" stroke="white" stroke-width="1.5" pointer-events="none"/>
                </g>
                <g id="zoomMin">
                        <use xlink:href="#rim" fill="#404040">
                                <set attributeName="fill" to="#808080" begin="zoomminus.mouseover" end="zoomminus.mouseout"/>
                        </use>
                        <path d="M-4,0h8" fill="none" stroke="white" stroke-width="1.5" pointer-events="none"/>
                </g>
                <g id="dirArrow">
                        <path fill="none" stroke="white" stroke-width="1.5" d="M0,-3.0v7 M-2.5,-0.5L0,-3.0L2.5,-0.5"/>
                </g>
               <g id="resetDef">
                       <use xlink:href="#rim2" fill="#404040">
                               <set attributeName="fill" to="#808080" begin="reset.mouseover" end="reset.mouseout"/>
                       </use>
               </g>
        </defs>

<script type="text/javascript">
var viewWidth = 1344;
var viewHeight = 443;
var sectionId = 'dynsection-72';
</script>
<script xlink:href="svgpan.js"/>
<svg id="graph" class="graph">
<g id="viewport">
<title>Asserv::pos_getThetaInDegree</title>
<polygon fill="white" stroke="transparent" points="-4,4 -4,-439.16 1340,-439.16 1340,4 -4,4"/>
<!-- Node1 -->
<g id="node1" class="node">
<title>Node1</title>
<g id="a_node1"><a xlink:title=" ">
<polygon fill="#bfbfbf" stroke="black" points="1171,-209.5 1171,-228.5 1336,-228.5 1336,-209.5 1171,-209.5"/>
<text text-anchor="middle" x="1253.5" y="-216.5" font-family="Helvetica,sans-Serif" font-size="10.00">Asserv::pos_getThetaInDegree</text>
</a>
</g>
</g>
<!-- Node2 -->
<g id="node2" class="node">
<title>Node2</title>
<g id="a_node2"><a xlink:href="classIAbyPath.html#a36763cca0b7005fddde021c35f054dc7" target="_top" xlink:title=" ">
<polygon fill="white" stroke="black" points="978,-380.5 978,-399.5 1135,-399.5 1135,-380.5 978,-380.5"/>
<text text-anchor="middle" x="1056.5" y="-387.5" font-family="Helvetica,sans-Serif" font-size="10.00">IAbyPath::doPathBackwardTo</text>
</a>
</g>
</g>
<!-- Node1&#45;&gt;Node2 -->
<g id="edge1" class="edge">
<title>Node1&#45;&gt;Node2</title>
<path fill="none" stroke="midnightblue" d="M1242.69,-237.44C1225.2,-268.55 1185.67,-331.46 1135,-366 1125.81,-372.27 1114.91,-376.95 1104.23,-380.44"/>
<polygon fill="midnightblue" stroke="midnightblue" points="1245.83,-238.98 1247.58,-228.53 1239.7,-235.61 1245.83,-238.98"/>
</g>
<!-- Node3 -->
<g id="node3" class="node">
<title>Node3</title>
<g id="a_node3"><a xlink:href="classIAbyPath.html#acc586e1ba62ffb7a21087a5ca4d2f131" target="_top" xlink:title=" ">
<polygon fill="white" stroke="black" points="765,-395.5 765,-414.5 942,-414.5 942,-395.5 765,-395.5"/>
<text text-anchor="middle" x="853.5" y="-402.5" font-family="Helvetica,sans-Serif" font-size="10.00">IAbyPath::whileMoveBackwardTo</text>
</a>
</g>
</g>
<!-- Node1&#45;&gt;Node3 -->
<g id="edge34" class="edge">
<title>Node1&#45;&gt;Node3</title>
<path fill="none" stroke="midnightblue" d="M1247.28,-238.73C1235.32,-279.39 1201.72,-371.81 1135,-409 1053.96,-454.17 938.2,-429.9 884.28,-414.52"/>
<polygon fill="midnightblue" stroke="midnightblue" points="1250.69,-239.51 1250.03,-228.94 1243.96,-237.62 1250.69,-239.51"/>
</g>
<!-- Node6 -->
<g id="node6" class="node">
<title>Node6</title>
<g id="a_node6"><a xlink:href="classIAbyPath.html#ab1f1155d4a5565efa55a0c11b8a1abfa" target="_top" xlink:title=" ">
<polygon fill="white" stroke="black" points="982.5,-266.5 982.5,-285.5 1130.5,-285.5 1130.5,-266.5 982.5,-266.5"/>
<text text-anchor="middle" x="1056.5" y="-273.5" font-family="Helvetica,sans-Serif" font-size="10.00">IAbyPath::doPathForwardTo</text>
</a>
</g>
</g>
<!-- Node1&#45;&gt;Node6 -->
<g id="edge5" class="edge">
<title>Node1&#45;&gt;Node6</title>
<path fill="none" stroke="midnightblue" d="M1210.13,-231.38C1174.13,-241.91 1123.19,-256.8 1090.25,-266.43"/>
<polygon fill="midnightblue" stroke="midnightblue" points="1211.25,-234.71 1219.86,-228.54 1209.28,-227.99 1211.25,-234.71"/>
</g>
<!-- Node12 -->
<g id="node12" class="node">
<title>Node12</title>
<g id="a_node12"><a xlink:href="classIAbyPath.html#aa2a96904ea74078d56dad53979b1d999" target="_top" xlink:title=" ">
<polygon fill="white" stroke="black" points="769.5,-316.5 769.5,-335.5 937.5,-335.5 937.5,-316.5 769.5,-316.5"/>
<text text-anchor="middle" x="853.5" y="-323.5" font-family="Helvetica,sans-Serif" font-size="10.00">IAbyPath::whileMoveForwardTo</text>
</a>
</g>
</g>
<!-- Node1&#45;&gt;Node12 -->
<g id="edge35" class="edge">
<title>Node1&#45;&gt;Node12</title>
<path fill="none" stroke="midnightblue" d="M1233.57,-235.28C1211.51,-253.24 1173.19,-281.4 1135,-295 1071.31,-317.68 994.77,-324.92 937.75,-326.77"/>
<polygon fill="midnightblue" stroke="midnightblue" points="1236,-237.81 1241.46,-228.73 1231.53,-232.43 1236,-237.81"/>
</g>
<!-- Node14 -->
<g id="node14" class="node">
<title>Node14</title>
<g id="a_node14"><a xlink:href="classO__AsservTest.html#a87e2ffa360e3e12ff5c7b81b1952a04f" target="_top" xlink:title=" ">
<polygon fill="white" stroke="black" points="593.5,-228.5 593.5,-247.5 697.5,-247.5 697.5,-228.5 593.5,-228.5"/>
<text text-anchor="middle" x="645.5" y="-235.5" font-family="Helvetica,sans-Serif" font-size="10.00">O_AsservTest::run</text>
</a>
</g>
</g>
<!-- Node1&#45;&gt;Node14 -->
<g id="edge28" class="edge">
<title>Node1&#45;&gt;Node14</title>
<path fill="none" stroke="midnightblue" d="M1160.5,-221.88C1031.19,-225.94 800.09,-233.18 697.72,-236.39"/>
<polygon fill="midnightblue" stroke="midnightblue" points="1160.89,-225.37 1170.77,-221.56 1160.67,-218.38 1160.89,-225.37"/>
</g>
<!-- Node20 -->
<g id="node20" class="node">
<title>Node20</title>
<g id="a_node20"><a xlink:href="classIAbyPath.html#a0c7e960bbc87c86d716ac5aaa7da986a" target="_top" xlink:title=" ">
<polygon fill="white" stroke="black" points="1005.5,-190.5 1005.5,-209.5 1107.5,-209.5 1107.5,-190.5 1005.5,-190.5"/>
<text text-anchor="middle" x="1056.5" y="-197.5" font-family="Helvetica,sans-Serif" font-size="10.00">IAbyPath::ia_start</text>
</a>
</g>
</g>
<!-- Node1&#45;&gt;Node20 -->
<g id="edge23" class="edge">
<title>Node1&#45;&gt;Node20</title>
<path fill="none" stroke="midnightblue" d="M1160.79,-210.06C1142.46,-208.28 1123.86,-206.47 1107.58,-204.88"/>
<polygon fill="midnightblue" stroke="midnightblue" points="1160.64,-213.57 1170.93,-211.05 1161.32,-206.6 1160.64,-213.57"/>
</g>
<!-- Node22 -->
<g id="node22" class="node">
<title>Node22</title>
<g id="a_node22"><a xlink:href="classIAbyZone.html#a0b591dae1e57bf13e5189a0a6de88823" target="_top" xlink:title=" ">
<polygon fill="white" stroke="black" points="1003.5,-152.5 1003.5,-171.5 1109.5,-171.5 1109.5,-152.5 1003.5,-152.5"/>
<text text-anchor="middle" x="1056.5" y="-159.5" font-family="Helvetica,sans-Serif" font-size="10.00">IAbyZone::ia_start</text>
</a>
</g>
</g>
<!-- Node1&#45;&gt;Node22 -->
<g id="edge26" class="edge">
<title>Node1&#45;&gt;Node22</title>
<path fill="none" stroke="midnightblue" d="M1214.96,-206.09C1192,-198.39 1161.95,-188.65 1135,-181 1123.27,-177.67 1110.45,-174.39 1098.67,-171.51"/>
<polygon fill="midnightblue" stroke="midnightblue" points="1214.07,-209.49 1224.66,-209.37 1216.3,-202.85 1214.07,-209.49"/>
</g>
<!-- Node23 -->
<g id="node23" class="node">
<title>Node23</title>
<g id="a_node23"><a xlink:href="classO__Asserv__SquareTest.html#a16a0bf866c8070611cfa8952e3ef64d8" target="_top" xlink:title=" ">
<polygon fill="white" stroke="black" points="985,-114.5 985,-133.5 1128,-133.5 1128,-114.5 985,-114.5"/>
<text text-anchor="middle" x="1056.5" y="-121.5" font-family="Helvetica,sans-Serif" font-size="10.00">O_Asserv_SquareTest::run</text>
</a>
</g>
</g>
<!-- Node1&#45;&gt;Node23 -->
<g id="edge27" class="edge">
<title>Node1&#45;&gt;Node23</title>
<path fill="none" stroke="midnightblue" d="M1232.5,-203.06C1210.02,-185.89 1171.83,-158.89 1135,-143 1126.22,-139.21 1116.55,-136.09 1107.09,-133.54"/>
<polygon fill="midnightblue" stroke="midnightblue" points="1230.54,-205.97 1240.58,-209.33 1234.83,-200.44 1230.54,-205.97"/>
</g>
<!-- Node24 -->
<g id="node24" class="node">
<title>Node24</title>
<g id="a_node24"><a xlink:href="classO__SensorsTest.html#ae3b998034225e16586ded4ba3bd419e5" target="_top" xlink:title="Execute le test.">
<polygon fill="white" stroke="black" points="1002,-76.5 1002,-95.5 1111,-95.5 1111,-76.5 1002,-76.5"/>
<text text-anchor="middle" x="1056.5" y="-83.5" font-family="Helvetica,sans-Serif" font-size="10.00">O_SensorsTest::run</text>
</a>
</g>
</g>
<!-- Node1&#45;&gt;Node24 -->
<g id="edge29" class="edge">
<title>Node1&#45;&gt;Node24</title>
<path fill="none" stroke="midnightblue" d="M1239.35,-201.29C1219.58,-175.96 1179.72,-129.74 1135,-105 1127.61,-100.91 1119.34,-97.69 1111.03,-95.16"/>
<polygon fill="midnightblue" stroke="midnightblue" points="1236.63,-203.49 1245.48,-209.3 1242.19,-199.23 1236.63,-203.49"/>
</g>
<!-- Node25 -->
<g id="node25" class="node">
<title>Node25</title>
<g id="a_node25"><a xlink:href="classO__State__Init.html#a1980cd82dcb83e88d61f2e7e14dddfa0" target="_top" xlink:title=" ">
<polygon fill="white" stroke="black" points="999.5,-38.5 999.5,-57.5 1113.5,-57.5 1113.5,-38.5 999.5,-38.5"/>
<text text-anchor="middle" x="1056.5" y="-45.5" font-family="Helvetica,sans-Serif" font-size="10.00">O_State_Init::setPos</text>
</a>
</g>
</g>
<!-- Node1&#45;&gt;Node25 -->
<g id="edge30" class="edge">
<title>Node1&#45;&gt;Node25</title>
<path fill="none" stroke="midnightblue" d="M1243.32,-200.07C1226.54,-167.55 1187.73,-101.29 1135,-67 1128.5,-62.77 1121.13,-59.48 1113.59,-56.93"/>
<polygon fill="midnightblue" stroke="midnightblue" points="1240.37,-201.99 1247.98,-209.35 1246.62,-198.85 1240.37,-201.99"/>
</g>
<!-- Node27 -->
<g id="node27" class="node">
<title>Node27</title>
<g id="a_node27"><a xlink:href="classRobot.html#a7c2c32badf138c2a26b82068447c3c98" target="_top" xlink:title="Fonctions de motion intelligente en plusieurs essais.">
<polygon fill="white" stroke="black" points="1001,-0.5 1001,-19.5 1112,-19.5 1112,-0.5 1001,-0.5"/>
<text text-anchor="middle" x="1056.5" y="-7.5" font-family="Helvetica,sans-Serif" font-size="10.00">Robot::whileDoLine</text>
</a>
</g>
</g>
<!-- Node1&#45;&gt;Node27 -->
<g id="edge32" class="edge">
<title>Node1&#45;&gt;Node27</title>
<path fill="none" stroke="midnightblue" d="M1246.21,-199.72C1232.55,-160.98 1196.36,-73.61 1135,-29 1128.28,-24.11 1120.45,-20.47 1112.4,-17.76"/>
<polygon fill="midnightblue" stroke="midnightblue" points="1242.93,-200.94 1249.47,-209.28 1249.56,-198.68 1242.93,-200.94"/>
</g>
<!-- Node29 -->
<g id="node29" class="node">
<title>Node29</title>
<g id="a_node29"><a xlink:href="classIAbyPath.html#a42570f6bc87216c2ac5d028ad596fe02" target="_top" xlink:title=" ">
<polygon fill="white" stroke="black" points="773,-354.5 773,-373.5 934,-373.5 934,-354.5 773,-354.5"/>
<text text-anchor="middle" x="853.5" y="-361.5" font-family="Helvetica,sans-Serif" font-size="10.00">IAbyPath::whileMoveRotateTo</text>
</a>
</g>
</g>
<!-- Node1&#45;&gt;Node29 -->
<g id="edge36" class="edge">
<title>Node1&#45;&gt;Node29</title>
<path fill="none" stroke="midnightblue" d="M1238.41,-236.7C1218.26,-260.64 1178.79,-302.66 1135,-323 1071.62,-352.44 992.25,-361.83 934.13,-364.36"/>
<polygon fill="midnightblue" stroke="midnightblue" points="1241.28,-238.72 1244.93,-228.78 1235.88,-234.27 1241.28,-238.72"/>
</g>
<!-- Node2&#45;&gt;Node3 -->
<g id="edge2" class="edge">
<title>Node2&#45;&gt;Node3</title>
<path fill="none" stroke="midnightblue" d="M967.54,-396.56C959.08,-397.2 950.49,-397.84 942.03,-398.47"/>
<polygon fill="midnightblue" stroke="midnightblue" points="968.08,-400.03 977.79,-395.8 967.56,-393.05 968.08,-400.03"/>
</g>
<!-- Node4 -->
<g id="node4" class="node">
<title>Node4</title>
<g id="a_node4"><a xlink:href="classO__AsservXYRotateTest.html#a13ccb691e37bdddc94ca53b29311e39a" target="_top" xlink:title=" ">
<polygon fill="white" stroke="black" points="571,-354.5 571,-373.5 720,-373.5 720,-354.5 571,-354.5"/>
<text text-anchor="middle" x="645.5" y="-361.5" font-family="Helvetica,sans-Serif" font-size="10.00">O_AsservXYRotateTest::run</text>
</a>
</g>
</g>
<!-- Node3&#45;&gt;Node4 -->
<g id="edge3" class="edge">
<title>Node3&#45;&gt;Node4</title>
<path fill="none" stroke="midnightblue" d="M794.72,-393.5C763.07,-387.2 724.32,-379.49 694.38,-373.53"/>
<polygon fill="midnightblue" stroke="midnightblue" points="794.23,-396.97 804.72,-395.49 795.6,-390.11 794.23,-396.97"/>
</g>
<!-- Node5 -->
<g id="node5" class="node">
<title>Node5</title>
<g id="a_node5"><a xlink:href="classIAbyPath.html#a9535c82f137778cc6cd4b159fe3d58ea" target="_top" xlink:title=" ">
<polygon fill="white" stroke="black" points="562,-393 562,-423 729,-423 729,-393 562,-393"/>
<text text-anchor="start" x="570" y="-411" font-family="Helvetica,sans-Serif" font-size="10.00">IAbyPath::whileMoveBackward</text>
<text text-anchor="middle" x="645.5" y="-400" font-family="Helvetica,sans-Serif" font-size="10.00">AndRotateTo</text>
</a>
</g>
</g>
<!-- Node3&#45;&gt;Node5 -->
<g id="edge4" class="edge">
<title>Node3&#45;&gt;Node5</title>
<path fill="none" stroke="midnightblue" d="M754.81,-406.42C746.23,-406.55 737.61,-406.67 729.17,-406.8"/>
<polygon fill="midnightblue" stroke="midnightblue" points="754.89,-409.92 764.84,-406.28 754.79,-402.92 754.89,-409.92"/>
</g>
<!-- Node7 -->
<g id="node7" class="node">
<title>Node7</title>
<g id="a_node7"><a xlink:href="classIAbyPath.html#ab95592ae87c3f666835d3fbdac8c5ffd" target="_top" xlink:title=" ">
<polygon fill="white" stroke="black" points="775.5,-267 775.5,-297 931.5,-297 931.5,-267 775.5,-267"/>
<text text-anchor="start" x="783.5" y="-285" font-family="Helvetica,sans-Serif" font-size="10.00">IAbyPath::doPathForwardAnd</text>
<text text-anchor="middle" x="853.5" y="-274" font-family="Helvetica,sans-Serif" font-size="10.00">FaceTo</text>
</a>
</g>
</g>
<!-- Node6&#45;&gt;Node7 -->
<g id="edge6" class="edge">
<title>Node6&#45;&gt;Node7</title>
<path fill="none" stroke="midnightblue" d="M972.2,-278.49C958.77,-278.89 944.92,-279.3 931.64,-279.7"/>
<polygon fill="midnightblue" stroke="midnightblue" points="972.47,-281.98 982.37,-278.18 972.27,-274.98 972.47,-281.98"/>
</g>
<!-- Node8 -->
<g id="node8" class="node">
<title>Node8</title>
<g id="a_node8"><a xlink:href="classIAbyPath.html#a00b7b125584bda7731696dfd5069b17c" target="_top" xlink:title=" ">
<polygon fill="white" stroke="black" points="775.5,-179 775.5,-209 931.5,-209 931.5,-179 775.5,-179"/>
<text text-anchor="start" x="783.5" y="-197" font-family="Helvetica,sans-Serif" font-size="10.00">IAbyPath::doPathForwardAnd</text>
<text text-anchor="middle" x="853.5" y="-186" font-family="Helvetica,sans-Serif" font-size="10.00">RotateTo</text>
</a>
</g>
</g>
<!-- Node6&#45;&gt;Node8 -->
<g id="edge7" class="edge">
<title>Node6&#45;&gt;Node8</title>
<path fill="none" stroke="midnightblue" d="M1022.49,-262.53C986.46,-247.84 928.92,-224.36 891.42,-209.06"/>
<polygon fill="midnightblue" stroke="midnightblue" points="1021.47,-265.9 1032.05,-266.43 1024.11,-259.41 1021.47,-265.9"/>
</g>
<!-- Node6&#45;&gt;Node12 -->
<g id="edge12" class="edge">
<title>Node6&#45;&gt;Node12</title>
<path fill="none" stroke="midnightblue" d="M1012.67,-288.27C991.47,-294.2 965.46,-301.25 942,-307 928.56,-310.29 913.89,-313.59 900.47,-316.49"/>
<polygon fill="midnightblue" stroke="midnightblue" points="1013.67,-291.63 1022.35,-285.55 1011.77,-284.89 1013.67,-291.63"/>
</g>
<!-- Node9 -->
<g id="node9" class="node">
<title>Node9</title>
<g id="a_node9"><a xlink:href="O__IAbyPathTest_8cpp.html#ac1055b8eb7025052d58ebaf15869a480" target="_top" xlink:title=" ">
<polygon fill="white" stroke="black" points="579,-187.5 579,-206.5 712,-206.5 712,-187.5 579,-187.5"/>
<text text-anchor="middle" x="645.5" y="-194.5" font-family="Helvetica,sans-Serif" font-size="10.00">O_IAbyPathTest_action1</text>
</a>
</g>
</g>
<!-- Node8&#45;&gt;Node9 -->
<g id="edge8" class="edge">
<title>Node8&#45;&gt;Node9</title>
<path fill="none" stroke="midnightblue" d="M764.88,-195.28C747.18,-195.53 728.87,-195.8 712.08,-196.04"/>
<polygon fill="midnightblue" stroke="midnightblue" points="765.26,-198.77 775.21,-195.13 765.16,-191.77 765.26,-198.77"/>
</g>
<!-- Node11 -->
<g id="node11" class="node">
<title>Node11</title>
<g id="a_node11"><a xlink:href="O__IAbyPathTest_8cpp.html#aafb960063ea3193551e7ba63626e2561" target="_top" xlink:title=" ">
<polygon fill="white" stroke="black" points="578.5,-149.5 578.5,-168.5 712.5,-168.5 712.5,-149.5 578.5,-149.5"/>
<text text-anchor="middle" x="645.5" y="-156.5" font-family="Helvetica,sans-Serif" font-size="10.00">O_IAByPathTest_action2</text>
</a>
</g>
</g>
<!-- Node8&#45;&gt;Node11 -->
<g id="edge10" class="edge">
<title>Node8&#45;&gt;Node11</title>
<path fill="none" stroke="midnightblue" d="M765.23,-179.17C744.05,-175.57 721.97,-171.82 702.67,-168.54"/>
<polygon fill="midnightblue" stroke="midnightblue" points="764.76,-182.64 775.21,-180.87 765.93,-175.74 764.76,-182.64"/>
</g>
<!-- Node10 -->
<g id="node10" class="node">
<title>Node10</title>
<g id="a_node10"><a xlink:href="classO__IAByPathTest.html#abedd21fde4835d641e6aa3f8e1c6581f" target="_top" xlink:title="Configure les activités de l&#39;IA pour le test.">
<polygon fill="white" stroke="black" points="390,-168.5 390,-187.5 526,-187.5 526,-168.5 390,-168.5"/>
<text text-anchor="middle" x="458" y="-175.5" font-family="Helvetica,sans-Serif" font-size="10.00">O_IAByPathTest::IASetup</text>
</a>
</g>
</g>
<!-- Node9&#45;&gt;Node10 -->
<g id="edge9" class="edge">
<title>Node9&#45;&gt;Node10</title>
<path fill="none" stroke="midnightblue" d="M568.69,-189.23C554.59,-187.79 539.95,-186.29 526.14,-184.88"/>
<polygon fill="midnightblue" stroke="midnightblue" points="568.53,-192.74 578.84,-190.27 569.25,-185.77 568.53,-192.74"/>
</g>
<!-- Node11&#45;&gt;Node10 -->
<g id="edge11" class="edge">
<title>Node11&#45;&gt;Node10</title>
<path fill="none" stroke="midnightblue" d="M568.25,-166.81C554.27,-168.24 539.78,-169.73 526.1,-171.13"/>
<polygon fill="midnightblue" stroke="midnightblue" points="568.72,-170.28 578.32,-165.78 568.01,-163.32 568.72,-170.28"/>
</g>
<!-- Node12&#45;&gt;Node4 -->
<g id="edge15" class="edge">
<title>Node12&#45;&gt;Node4</title>
<path fill="none" stroke="midnightblue" d="M790.6,-337.42C761.13,-342.86 726.28,-349.28 698.24,-354.46"/>
<polygon fill="midnightblue" stroke="midnightblue" points="791.58,-340.8 800.78,-335.54 790.31,-333.91 791.58,-340.8"/>
</g>
<!-- Node13 -->
<g id="node13" class="node">
<title>Node13</title>
<g id="a_node13"><a xlink:href="O__State__DecisionMakerIA_8cpp.html#a1cbc5f5cba5f72b993c68f4aad4473f7" target="_top" xlink:title="Action de poussée de la prise en zone basse.">
<polygon fill="white" stroke="black" points="406,-267.5 406,-286.5 510,-286.5 510,-267.5 406,-267.5"/>
<text text-anchor="middle" x="458" y="-274.5" font-family="Helvetica,sans-Serif" font-size="10.00">O_push_prise_bas</text>
</a>
</g>
</g>
<!-- Node12&#45;&gt;Node13 -->
<g id="edge13" class="edge">
<title>Node12&#45;&gt;Node13</title>
<path fill="none" stroke="midnightblue" d="M795.15,-314.26C785.07,-311.99 774.7,-309.53 765,-307 748.81,-302.78 745.45,-299.05 729,-296 653.69,-282.03 564.82,-278.15 510.19,-277.17"/>
<polygon fill="midnightblue" stroke="midnightblue" points="794.58,-317.72 805.1,-316.46 796.09,-310.88 794.58,-317.72"/>
</g>
<!-- Node12&#45;&gt;Node14 -->
<g id="edge14" class="edge">
<title>Node12&#45;&gt;Node14</title>
<path fill="none" stroke="midnightblue" d="M775.71,-312.65C771.99,-310.98 768.4,-309.11 765,-307 743.23,-293.5 750.29,-276.24 729,-262 719.58,-255.7 708.48,-251.02 697.53,-247.56"/>
<polygon fill="midnightblue" stroke="midnightblue" points="774.6,-315.97 785.18,-316.38 777.16,-309.46 774.6,-315.97"/>
</g>
<!-- Node15 -->
<g id="node15" class="node">
<title>Node15</title>
<g id="a_node15"><a xlink:href="classIAbyPath.html#a3f27b793f84340c99ca33e12c2380bb4" target="_top" xlink:title=" ">
<polygon fill="white" stroke="black" points="566.5,-305 566.5,-335 724.5,-335 724.5,-305 566.5,-305"/>
<text text-anchor="start" x="574.5" y="-323" font-family="Helvetica,sans-Serif" font-size="10.00">IAbyPath::whileMoveForward</text>
<text text-anchor="middle" x="645.5" y="-312" font-family="Helvetica,sans-Serif" font-size="10.00">AndRotateTo</text>
</a>
</g>
</g>
<!-- Node12&#45;&gt;Node15 -->
<g id="edge16" class="edge">
<title>Node12&#45;&gt;Node15</title>
<path fill="none" stroke="midnightblue" d="M759.22,-323.28C747.67,-322.95 735.96,-322.61 724.67,-322.28"/>
<polygon fill="midnightblue" stroke="midnightblue" points="759.21,-326.78 769.31,-323.58 759.41,-319.79 759.21,-326.78"/>
</g>
<!-- Node15&#45;&gt;Node13 -->
<g id="edge22" class="edge">
<title>Node15&#45;&gt;Node13</title>
<path fill="none" stroke="midnightblue" d="M569.57,-302.63C545.85,-297.13 520.51,-291.26 500.08,-286.52"/>
<polygon fill="midnightblue" stroke="midnightblue" points="569.09,-306.11 579.62,-304.96 570.67,-299.29 569.09,-306.11"/>
</g>
<!-- Node16 -->
<g id="node16" class="node">
<title>Node16</title>
<g id="a_node16"><a xlink:href="O__State__DecisionMakerIA_8cpp.html#a6af4b40e5e676265dd688e0004be0ff6" target="_top" xlink:title="Action de fin de match : rejoint la zone de fin en haut de table.">
<polygon fill="white" stroke="black" points="398.5,-308.5 398.5,-327.5 517.5,-327.5 517.5,-308.5 398.5,-308.5"/>
<text text-anchor="middle" x="458" y="-315.5" font-family="Helvetica,sans-Serif" font-size="10.00">O_end_of_match_top</text>
</a>
</g>
</g>
<!-- Node15&#45;&gt;Node16 -->
<g id="edge17" class="edge">
<title>Node15&#45;&gt;Node16</title>
<path fill="none" stroke="midnightblue" d="M556.35,-319.05C543.2,-318.91 529.93,-318.76 517.59,-318.63"/>
<polygon fill="midnightblue" stroke="midnightblue" points="556.33,-322.55 566.37,-319.16 556.41,-315.55 556.33,-322.55"/>
</g>
<!-- Node17 -->
<g id="node17" class="node">
<title>Node17</title>
<g id="a_node17"><a xlink:href="classO__State__DecisionMakerIA.html#a9b35f6bac1a5602ec2a711fa280be4a6" target="_top" xlink:title="Configure les activités pour les zones de jeu du match.">
<polygon fill="white" stroke="black" points="195,-254 195,-284 337,-284 337,-254 195,-254"/>
<text text-anchor="start" x="203" y="-272" font-family="Helvetica,sans-Serif" font-size="10.00">O_State_DecisionMakerIA</text>
<text text-anchor="middle" x="266" y="-261" font-family="Helvetica,sans-Serif" font-size="10.00">::IASetupActivitiesZone</text>
</a>
</g>
</g>
<!-- Node16&#45;&gt;Node17 -->
<g id="edge18" class="edge">
<title>Node16&#45;&gt;Node17</title>
<path fill="none" stroke="midnightblue" d="M410.07,-305.9C384.46,-299.29 352.51,-291.05 325.31,-284.04"/>
<polygon fill="midnightblue" stroke="midnightblue" points="409.36,-309.33 419.92,-308.44 411.11,-302.55 409.36,-309.33"/>
</g>
<!-- Node19 -->
<g id="node19" class="node">
<title>Node19</title>
<g id="a_node19"><a xlink:href="classO__State__DecisionMakerIA.html#a8bd1c4d72bec8768c7c7c15bd2e665d8" target="_top" xlink:title="Configure les activités pour le mode test de la table.">
<polygon fill="white" stroke="black" points="178,-303 178,-333 354,-333 354,-303 178,-303"/>
<text text-anchor="start" x="186" y="-321" font-family="Helvetica,sans-Serif" font-size="10.00">O_State_DecisionMakerIA</text>
<text text-anchor="middle" x="266" y="-310" font-family="Helvetica,sans-Serif" font-size="10.00">::IASetupActivitiesZoneTableTest</text>
</a>
</g>
</g>
<!-- Node16&#45;&gt;Node19 -->
<g id="edge20" class="edge">
<title>Node16&#45;&gt;Node19</title>
<path fill="none" stroke="midnightblue" d="M388.37,-318C377.21,-318 365.53,-318 354,-318"/>
<polygon fill="midnightblue" stroke="midnightblue" points="388.44,-321.5 398.44,-318 388.44,-314.5 388.44,-321.5"/>
</g>
<!-- Node18 -->
<g id="node18" class="node">
<title>Node18</title>
<g id="a_node18"><a xlink:href="classO__State__DecisionMakerIA.html#a96d1f2a7618d607fd10cc51b9111e653" target="_top" xlink:title="Execute l&#39;action.">
<polygon fill="white" stroke="black" points="0,-254 0,-284 142,-284 142,-254 0,-254"/>
<text text-anchor="start" x="8" y="-272" font-family="Helvetica,sans-Serif" font-size="10.00">O_State_DecisionMakerIA</text>
<text text-anchor="middle" x="71" y="-261" font-family="Helvetica,sans-Serif" font-size="10.00">::execute</text>
</a>
</g>
</g>
<!-- Node17&#45;&gt;Node18 -->
<g id="edge19" class="edge">
<title>Node17&#45;&gt;Node18</title>
<path fill="none" stroke="midnightblue" d="M184.62,-269C170.52,-269 155.96,-269 142.17,-269"/>
<polygon fill="midnightblue" stroke="midnightblue" points="184.78,-272.5 194.78,-269 184.78,-265.5 184.78,-272.5"/>
</g>
<!-- Node19&#45;&gt;Node18 -->
<g id="edge21" class="edge">
<title>Node19&#45;&gt;Node18</title>
<path fill="none" stroke="midnightblue" d="M195.88,-300.45C174.68,-295.07 151.57,-289.2 131.11,-284.01"/>
<polygon fill="midnightblue" stroke="midnightblue" points="195.23,-303.9 205.78,-302.97 196.95,-297.11 195.23,-303.9"/>
</g>
<!-- Node20&#45;&gt;Node18 -->
<g id="edge24" class="edge">
<title>Node20&#45;&gt;Node18</title>
<path fill="none" stroke="midnightblue" d="M995.51,-189.91C989.32,-187.54 983.35,-184.61 978,-181 955.3,-165.68 965.96,-144.26 942,-131 826.85,-67.27 778.1,-112 646.5,-112 646.5,-112 646.5,-112 457,-112 307.58,-112 148.08,-214.65 92.49,-253.95"/>
<polygon fill="midnightblue" stroke="midnightblue" points="994.76,-193.35 1005.35,-193.19 996.97,-186.71 994.76,-193.35"/>
</g>
<!-- Node21 -->
<g id="node21" class="node">
<title>Node21</title>
<g id="a_node21"><a xlink:href="classO__IAByPathTest.html#a3f57f585ff1382a52bf7f79a28d43629" target="_top" xlink:title="Execute le test.">
<polygon fill="white" stroke="black" points="796.5,-140.5 796.5,-159.5 910.5,-159.5 910.5,-140.5 796.5,-140.5"/>
<text text-anchor="middle" x="853.5" y="-147.5" font-family="Helvetica,sans-Serif" font-size="10.00">O_IAByPathTest::run</text>
</a>
</g>
</g>
<!-- Node20&#45;&gt;Node21 -->
<g id="edge25" class="edge">
<title>Node20&#45;&gt;Node21</title>
<path fill="none" stroke="midnightblue" d="M1004.81,-188.01C995.86,-185.76 986.64,-183.38 978,-181 961.87,-176.56 958.17,-174.31 942,-170 928.15,-166.31 912.95,-162.68 899.17,-159.56"/>
<polygon fill="midnightblue" stroke="midnightblue" points="1004.22,-191.47 1014.76,-190.47 1005.9,-184.67 1004.22,-191.47"/>
</g>
<!-- Node26 -->
<g id="node26" class="node">
<title>Node26</title>
<g id="a_node26"><a xlink:href="classO__State__Init.html#abc19788b7457d1f819245dd28367fe91" target="_top" xlink:title="Exécute l&#39;état d&#39;initialisation.">
<polygon fill="white" stroke="black" points="793.5,-38.5 793.5,-57.5 913.5,-57.5 913.5,-38.5 793.5,-38.5"/>
<text text-anchor="middle" x="853.5" y="-45.5" font-family="Helvetica,sans-Serif" font-size="10.00">O_State_Init::execute</text>
</a>
</g>
</g>
<!-- Node25&#45;&gt;Node26 -->
<g id="edge31" class="edge">
<title>Node25&#45;&gt;Node26</title>
<path fill="none" stroke="midnightblue" d="M989,-48C964.63,-48 937.23,-48 913.55,-48"/>
<polygon fill="midnightblue" stroke="midnightblue" points="989.24,-51.5 999.24,-48 989.24,-44.5 989.24,-51.5"/>
</g>
<!-- Node28 -->
<g id="node28" class="node">
<title>Node28</title>
<g id="a_node28"><a xlink:href="classO__AsservLineRotateTest.html#ac54536863ccc3f6bc0ce3f30e99e1b70" target="_top" xlink:title=" ">
<polygon fill="white" stroke="black" points="775.5,-0.5 775.5,-19.5 931.5,-19.5 931.5,-0.5 775.5,-0.5"/>
<text text-anchor="middle" x="853.5" y="-7.5" font-family="Helvetica,sans-Serif" font-size="10.00">O_AsservLineRotateTest::run</text>
</a>
</g>
</g>
<!-- Node27&#45;&gt;Node28 -->
<g id="edge33" class="edge">
<title>Node27&#45;&gt;Node28</title>
<path fill="none" stroke="midnightblue" d="M990.63,-10C971.87,-10 951.21,-10 931.77,-10"/>
<polygon fill="midnightblue" stroke="midnightblue" points="990.84,-13.5 1000.84,-10 990.84,-6.5 990.84,-13.5"/>
</g>
<!-- Node29&#45;&gt;Node4 -->
<g id="edge37" class="edge">
<title>Node29&#45;&gt;Node4</title>
<path fill="none" stroke="midnightblue" d="M762.61,-364C748.45,-364 733.94,-364 720.2,-364"/>
<polygon fill="midnightblue" stroke="midnightblue" points="762.86,-367.5 772.86,-364 762.85,-360.5 762.86,-367.5"/>
</g>
<!-- Node29&#45;&gt;Node5 -->
<g id="edge38" class="edge">
<title>Node29&#45;&gt;Node5</title>
<path fill="none" stroke="midnightblue" d="M797.85,-375.67C773.08,-380.96 743.47,-387.29 717.03,-392.93"/>
<polygon fill="midnightblue" stroke="midnightblue" points="798.75,-379.06 807.8,-373.55 797.29,-372.21 798.75,-379.06"/>
</g>
<!-- Node29&#45;&gt;Node15 -->
<g id="edge39" class="edge">
<title>Node29&#45;&gt;Node15</title>
<path fill="none" stroke="midnightblue" d="M797.85,-352.33C773.08,-347.04 743.47,-340.71 717.03,-335.07"/>
<polygon fill="midnightblue" stroke="midnightblue" points="797.29,-355.79 807.8,-354.45 798.75,-348.94 797.29,-355.79"/>
</g>
</g>
</svg>
        <g id="navigator" transform="translate(0 0)" fill="#404254">
                <rect fill="#f2f5e9" fill-opacity="0.5" stroke="#606060" stroke-width=".5" x="0" y="0" width="60" height="60"/>
                <use id="zoomplus" xlink:href="#zoomPlus" x="17" y="9" onmousedown="handleZoom(evt,'in')"/>
                <use id="zoomminus" xlink:href="#zoomMin" x="42" y="9" onmousedown="handleZoom(evt,'out')"/>
                <use id="reset" xlink:href="#resetDef" x="30" y="36" onmousedown="handleReset()"/>
                <g id="arrowUp" xlink:href="#dirArrow" transform="translate(30 24)" onmousedown="handlePan(0,-1)">
                  <use xlink:href="#rim" fill="#404040">
                        <set attributeName="fill" to="#808080" begin="arrowUp.mouseover" end="arrowUp.mouseout"/>
                  </use>
                  <path fill="none" stroke="white" stroke-width="1.5" d="M0,-3.0v7 M-2.5,-0.5L0,-3.0L2.5,-0.5"/>
                </g>
                <g id="arrowRight" xlink:href="#dirArrow" transform="rotate(90) translate(36 -43)" onmousedown="handlePan(1,0)">
                  <use xlink:href="#rim" fill="#404040">
                        <set attributeName="fill" to="#808080" begin="arrowRight.mouseover" end="arrowRight.mouseout"/>
                  </use>
                  <path fill="none" stroke="white" stroke-width="1.5" d="M0,-3.0v7 M-2.5,-0.5L0,-3.0L2.5,-0.5"/>
                </g>
                <g id="arrowDown" xlink:href="#dirArrow" transform="rotate(180) translate(-30 -48)" onmousedown="handlePan(0,1)">
                  <use xlink:href="#rim" fill="#404040">
                        <set attributeName="fill" to="#808080" begin="arrowDown.mouseover" end="arrowDown.mouseout"/>
                  </use>
                  <path fill="none" stroke="white" stroke-width="1.5" d="M0,-3.0v7 M-2.5,-0.5L0,-3.0L2.5,-0.5"/>
                </g>
                <g id="arrowLeft" xlink:href="#dirArrow" transform="rotate(270) translate(-36 17)" onmousedown="handlePan(-1,0)">
                  <use xlink:href="#rim" fill="#404040">
                        <set attributeName="fill" to="#808080" begin="arrowLeft.mouseover" end="arrowLeft.mouseout"/>
                  </use>
                  <path fill="none" stroke="white" stroke-width="1.5" d="M0,-3.0v7 M-2.5,-0.5L0,-3.0L2.5,-0.5"/>
                </g>
        </g>
        <svg viewBox="0 0 15 15" width="100%" height="30px" preserveAspectRatio="xMaxYMin meet">
         <g id="arrow_out" transform="scale(0.3 0.3)">
          <a xlink:href="classAsserv_a0c1a1048174322c00dfba79c74193bd1_icgraph_org.svg" target="_base">
           <rect id="button" ry="5" rx="5" y="6" x="6" height="38" width="38"
                fill="#f2f5e9" fill-opacity="0.5" stroke="#606060" stroke-width="1.0"/>
           <path id="arrow"
             d="M 11.500037,31.436501 C 11.940474,20.09759 22.043105,11.32322 32.158766,21.979434 L 37.068811,17.246167 C 37.068811,17.246167 37.088388,32 37.088388,32 L 22.160133,31.978069 C 22.160133,31.978069 26.997745,27.140456 26.997745,27.140456 C 18.528582,18.264221 13.291696,25.230495 11.500037,31.436501 z"
             style="fill:#404040;"/>
          </a>
         </g>
        </svg>
</svg>
