<?xml version="1.0" encoding="UTF-8" standalone="no"?>
<!DOCTYPE svg PUBLIC "-//W3C//DTD SVG 1.1//EN"
 "http://www.w3.org/Graphics/SVG/1.1/DTD/svg11.dtd">
<!-- Generated by graphviz version 2.43.0 (0)
 -->
<!-- Title: Robot::chrono Pages: 1 -->
<!--zoomable 626 -->
<svg id="main" version="1.1" xmlns="http://www.w3.org/2000/svg" xmlns:xlink="http://www.w3.org/1999/xlink" xml:space="preserve" onload="init(evt)">
<style type="text/css"><![CDATA[
.edge:hover path { stroke: red; }
.edge:hover polygon { stroke: red; fill: red; }
]]></style>
<script type="text/javascript"><![CDATA[
var edges = document.getElementsByTagName('g');
if (edges && edges.length) {
  for (var i=0;i<edges.length;i++) {
    if (edges[i].id.substr(0,4)=='edge') {
      edges[i].setAttribute('class','edge');
    }
  }
}
]]></script>
        <defs>
                <circle id="rim" cx="0" cy="0" r="7"/>
                <circle id="rim2" cx="0" cy="0" r="3.5"/>
                <g id="zoomPlus">
                        <use xlink:href="#rim" fill="#404040">
                                <set attributeName="fill" to="#808080" begin="zoomplus.mouseover" end="zoomplus.mouseout"/>
                        </use>
                        <path d="M-4,0h8M0,-4v8" fill="none" stroke="white" stroke-width="1.5" pointer-events="none"/>
                </g>
                <g id="zoomMin">
                        <use xlink:href="#rim" fill="#404040">
                                <set attributeName="fill" to="#808080" begin="zoomminus.mouseover" end="zoomminus.mouseout"/>
                        </use>
                        <path d="M-4,0h8" fill="none" stroke="white" stroke-width="1.5" pointer-events="none"/>
                </g>
                <g id="dirArrow">
                        <path fill="none" stroke="white" stroke-width="1.5" d="M0,-3.0v7 M-2.5,-0.5L0,-3.0L2.5,-0.5"/>
                </g>
               <g id="resetDef">
                       <use xlink:href="#rim2" fill="#404040">
                               <set attributeName="fill" to="#808080" begin="reset.mouseover" end="reset.mouseout"/>
                       </use>
               </g>
        </defs>

<script type="text/javascript">
var viewWidth = 1053;
var viewHeight = 626;
var sectionId = 'dynsection-8';
</script>
<script xlink:href="svgpan.js"/>
<svg id="graph" class="graph">
<g id="viewport">
<title>Robot::chrono</title>
<polygon fill="white" stroke="transparent" points="-4,4 -4,-621.5 1049,-621.5 1049,4 -4,4"/>
<!-- Node1 -->
<g id="node1" class="node">
<title>Node1</title>
<g id="a_node1"><a xlink:title="Cette methode retourne l&#39;objet de manipulation du chronometer.">
<polygon fill="#bfbfbf" stroke="black" points="961,-294.5 961,-313.5 1045,-313.5 1045,-294.5 961,-294.5"/>
<text text-anchor="middle" x="1003" y="-301.5" font-family="Helvetica,sans-Serif" font-size="10.00">Robot::chrono</text>
</a>
</g>
</g>
<!-- Node2 -->
<g id="node2" class="node">
<title>Node2</title>
<g id="a_node2"><a xlink:href="classOPOS6UL__RobotExtended.html#a3af6cff5115c7ae70f7a797d9e90e66a" target="_top" xlink:title="Initialise l&#39;état du robot et le décisionmaker IA.">
<polygon fill="white" stroke="black" points="765.5,-587 765.5,-617 907.5,-617 907.5,-587 765.5,-587"/>
<text text-anchor="start" x="773.5" y="-605" font-family="Helvetica,sans-Serif" font-size="10.00">OPOS6UL_RobotExtended</text>
<text text-anchor="middle" x="836.5" y="-594" font-family="Helvetica,sans-Serif" font-size="10.00">::begin</text>
</a>
</g>
</g>
<!-- Node1&#45;&gt;Node2 -->
<g id="edge1" class="edge">
<title>Node1&#45;&gt;Node2</title>
<path fill="none" stroke="midnightblue" d="M1002.18,-323.72C1001.55,-372.57 993.09,-500.38 925,-572 919.14,-578.17 911.95,-583.07 904.24,-586.96"/>
<polygon fill="midnightblue" stroke="midnightblue" points="1005.68,-323.58 1002.21,-313.57 998.68,-323.56 1005.68,-323.58"/>
</g>
<!-- Node4 -->
<g id="node4" class="node">
<title>Node4</title>
<g id="a_node4"><a xlink:href="classO__State__DecisionMakerIA.html#a96d1f2a7618d607fd10cc51b9111e653" target="_top" xlink:title="Execute l&#39;action.">
<polygon fill="white" stroke="black" points="0,-499 0,-529 142,-529 142,-499 0,-499"/>
<text text-anchor="start" x="8" y="-517" font-family="Helvetica,sans-Serif" font-size="10.00">O_State_DecisionMakerIA</text>
<text text-anchor="middle" x="71" y="-506" font-family="Helvetica,sans-Serif" font-size="10.00">::execute</text>
</a>
</g>
</g>
<!-- Node1&#45;&gt;Node4 -->
<g id="edge3" class="edge">
<title>Node1&#45;&gt;Node4</title>
<path fill="none" stroke="midnightblue" d="M1001.43,-323.83C999.03,-367.14 986.76,-470.25 925,-520 821.88,-603.07 761.91,-558 629.5,-558 629.5,-558 629.5,-558 448.5,-558 327.98,-558 297.15,-557.11 178,-539 161.64,-536.51 144.09,-532.81 128.06,-529"/>
<polygon fill="midnightblue" stroke="midnightblue" points="1004.93,-323.88 1001.87,-313.74 997.94,-323.58 1004.93,-323.88"/>
</g>
<!-- Node5 -->
<g id="node5" class="node">
<title>Node5</title>
<g id="a_node5"><a xlink:href="classO__State__WaitEndOfMatch.html#aa73613440b37c8dd42181e2e0265ae86" target="_top" xlink:title="Exécute l&#39;état d&#39;attente de fin de match.">
<polygon fill="white" stroke="black" points="766,-267 766,-297 907,-297 907,-267 766,-267"/>
<text text-anchor="start" x="774" y="-285" font-family="Helvetica,sans-Serif" font-size="10.00">O_State_WaitEndOfMatch</text>
<text text-anchor="middle" x="836.5" y="-274" font-family="Helvetica,sans-Serif" font-size="10.00">::execute</text>
</a>
</g>
</g>
<!-- Node1&#45;&gt;Node5 -->
<g id="edge4" class="edge">
<title>Node1&#45;&gt;Node5</title>
<path fill="none" stroke="midnightblue" d="M950.67,-297.14C936.89,-295.29 921.75,-293.27 907.16,-291.32"/>
<polygon fill="midnightblue" stroke="midnightblue" points="950.54,-300.65 960.91,-298.51 951.47,-293.71 950.54,-300.65"/>
</g>
<!-- Node6 -->
<g id="node6" class="node">
<title>Node6</title>
<g id="a_node6"><a xlink:href="O__State__DecisionMakerIA_8cpp.html#a6af4b40e5e676265dd688e0004be0ff6" target="_top" xlink:title="Action de fin de match : rejoint la zone de fin en haut de table.">
<polygon fill="white" stroke="black" points="390,-480.5 390,-499.5 509,-499.5 509,-480.5 390,-480.5"/>
<text text-anchor="middle" x="449.5" y="-487.5" font-family="Helvetica,sans-Serif" font-size="10.00">O_end_of_match_top</text>
</a>
</g>
</g>
<!-- Node1&#45;&gt;Node6 -->
<g id="edge5" class="edge">
<title>Node1&#45;&gt;Node6</title>
<path fill="none" stroke="midnightblue" d="M1000.68,-323.65C996.82,-363.45 981.92,-453.15 925,-493 859.62,-538.77 621.41,-513.54 509.43,-498.56"/>
<polygon fill="midnightblue" stroke="midnightblue" points="1004.17,-323.89 1001.51,-313.63 997.19,-323.3 1004.17,-323.89"/>
</g>
<!-- Node9 -->
<g id="node9" class="node">
<title>Node9</title>
<g id="a_node9"><a xlink:href="classO__Asserv__SquareTest.html#a16a0bf866c8070611cfa8952e3ef64d8" target="_top" xlink:title=" ">
<polygon fill="white" stroke="black" points="765,-228.5 765,-247.5 908,-247.5 908,-228.5 765,-228.5"/>
<text text-anchor="middle" x="836.5" y="-235.5" font-family="Helvetica,sans-Serif" font-size="10.00">O_Asserv_SquareTest::run</text>
</a>
</g>
</g>
<!-- Node1&#45;&gt;Node9 -->
<g id="edge10" class="edge">
<title>Node1&#45;&gt;Node9</title>
<path fill="none" stroke="midnightblue" d="M980.27,-288.49C965.35,-278.49 944.75,-265.92 925,-258 914.44,-253.76 902.79,-250.32 891.53,-247.55"/>
<polygon fill="midnightblue" stroke="midnightblue" points="978.54,-291.55 988.77,-294.32 982.5,-285.78 978.54,-291.55"/>
</g>
<!-- Node10 -->
<g id="node10" class="node">
<title>Node10</title>
<g id="a_node10"><a xlink:href="classO__AsservCalibrationTest.html#a578ac4b37bd38a475665dc353cb834f5" target="_top" xlink:title=" ">
<polygon fill="white" stroke="black" points="758,-190.5 758,-209.5 915,-209.5 915,-190.5 758,-190.5"/>
<text text-anchor="middle" x="836.5" y="-197.5" font-family="Helvetica,sans-Serif" font-size="10.00">O_AsservCalibrationTest::run</text>
</a>
</g>
</g>
<!-- Node1&#45;&gt;Node10 -->
<g id="edge11" class="edge">
<title>Node1&#45;&gt;Node10</title>
<path fill="none" stroke="midnightblue" d="M990.69,-285.92C977.42,-266.28 953.57,-235.52 925,-219 918.27,-215.11 910.83,-212.01 903.22,-209.55"/>
<polygon fill="midnightblue" stroke="midnightblue" points="987.77,-287.85 996.17,-294.31 993.63,-284.02 987.77,-287.85"/>
</g>
<!-- Node11 -->
<g id="node11" class="node">
<title>Node11</title>
<g id="a_node11"><a xlink:href="classO__AsservLineRotateTest.html#ac54536863ccc3f6bc0ce3f30e99e1b70" target="_top" xlink:title=" ">
<polygon fill="white" stroke="black" points="550.5,-133.5 550.5,-152.5 706.5,-152.5 706.5,-133.5 550.5,-133.5"/>
<text text-anchor="middle" x="628.5" y="-140.5" font-family="Helvetica,sans-Serif" font-size="10.00">O_AsservLineRotateTest::run</text>
</a>
</g>
</g>
<!-- Node1&#45;&gt;Node11 -->
<g id="edge12" class="edge">
<title>Node1&#45;&gt;Node11</title>
<path fill="none" stroke="midnightblue" d="M995.78,-284.43C985.76,-256.38 963.21,-205.47 925,-181 889.88,-158.51 781.76,-149.27 706.54,-145.52"/>
<polygon fill="midnightblue" stroke="midnightblue" points="992.59,-285.92 999.12,-294.27 999.22,-283.67 992.59,-285.92"/>
</g>
<!-- Node12 -->
<g id="node12" class="node">
<title>Node12</title>
<g id="a_node12"><a xlink:href="classO__AsservTest.html#a87e2ffa360e3e12ff5c7b81b1952a04f" target="_top" xlink:title=" ">
<polygon fill="white" stroke="black" points="576.5,-472.5 576.5,-491.5 680.5,-491.5 680.5,-472.5 576.5,-472.5"/>
<text text-anchor="middle" x="628.5" y="-479.5" font-family="Helvetica,sans-Serif" font-size="10.00">O_AsservTest::run</text>
</a>
</g>
</g>
<!-- Node1&#45;&gt;Node12 -->
<g id="edge13" class="edge">
<title>Node1&#45;&gt;Node12</title>
<path fill="none" stroke="midnightblue" d="M998.57,-323.94C991.54,-358.13 971.99,-427.29 925,-459 849.93,-509.67 738.41,-501.54 676.04,-491.51"/>
<polygon fill="midnightblue" stroke="midnightblue" points="1002.07,-324.27 1000.5,-313.8 995.2,-322.97 1002.07,-324.27"/>
</g>
<!-- Node13 -->
<g id="node13" class="node">
<title>Node13</title>
<g id="a_node13"><a xlink:href="classO__AsservXYRotateTest.html#a13ccb691e37bdddc94ca53b29311e39a" target="_top" xlink:title=" ">
<polygon fill="white" stroke="black" points="554,-346.5 554,-365.5 703,-365.5 703,-346.5 554,-346.5"/>
<text text-anchor="middle" x="628.5" y="-353.5" font-family="Helvetica,sans-Serif" font-size="10.00">O_AsservXYRotateTest::run</text>
</a>
</g>
</g>
<!-- Node1&#45;&gt;Node13 -->
<g id="edge14" class="edge">
<title>Node1&#45;&gt;Node13</title>
<path fill="none" stroke="midnightblue" d="M980.15,-319.09C965.32,-328.43 944.86,-339.65 925,-345 851.39,-364.84 763.75,-365.36 703.12,-362.3"/>
<polygon fill="midnightblue" stroke="midnightblue" points="982.14,-321.97 988.61,-313.58 978.32,-316.1 982.14,-321.97"/>
</g>
<!-- Node14 -->
<g id="node14" class="node">
<title>Node14</title>
<g id="a_node14"><a xlink:href="classO__IAByPathTest.html#a3f57f585ff1382a52bf7f79a28d43629" target="_top" xlink:title="Execute le test.">
<polygon fill="white" stroke="black" points="779.5,-76.5 779.5,-95.5 893.5,-95.5 893.5,-76.5 779.5,-76.5"/>
<text text-anchor="middle" x="836.5" y="-83.5" font-family="Helvetica,sans-Serif" font-size="10.00">O_IAByPathTest::run</text>
</a>
</g>
</g>
<!-- Node1&#45;&gt;Node14 -->
<g id="edge15" class="edge">
<title>Node1&#45;&gt;Node14</title>
<path fill="none" stroke="midnightblue" d="M1000.39,-284.17C996.01,-243.87 980.2,-152.23 925,-105 916.14,-97.42 904.96,-92.65 893.58,-89.7"/>
<polygon fill="midnightblue" stroke="midnightblue" points="996.93,-284.69 1001.36,-294.31 1003.89,-284.02 996.93,-284.69"/>
</g>
<!-- Node15 -->
<g id="node15" class="node">
<title>Node15</title>
<g id="a_node15"><a xlink:href="classO__LedBarTest.html#af9e0e172d13b334cda0fe32bb659b414" target="_top" xlink:title=" ">
<polygon fill="white" stroke="black" points="784.5,-38.5 784.5,-57.5 888.5,-57.5 888.5,-38.5 784.5,-38.5"/>
<text text-anchor="middle" x="836.5" y="-45.5" font-family="Helvetica,sans-Serif" font-size="10.00">O_LedBarTest::run</text>
</a>
</g>
</g>
<!-- Node1&#45;&gt;Node15 -->
<g id="edge16" class="edge">
<title>Node1&#45;&gt;Node15</title>
<path fill="none" stroke="midnightblue" d="M1001.79,-283.94C1000.18,-238.13 989.48,-125.32 925,-67 915.08,-58.03 901.96,-52.95 888.89,-50.14"/>
<polygon fill="midnightblue" stroke="midnightblue" points="998.3,-284.15 1002.04,-294.07 1005.3,-283.98 998.3,-284.15"/>
</g>
<!-- Node16 -->
<g id="node16" class="node">
<title>Node16</title>
<g id="a_node16"><a xlink:href="classO__SensorsTest.html#ae3b998034225e16586ded4ba3bd419e5" target="_top" xlink:title="Execute le test.">
<polygon fill="white" stroke="black" points="782,-0.5 782,-19.5 891,-19.5 891,-0.5 782,-0.5"/>
<text text-anchor="middle" x="836.5" y="-7.5" font-family="Helvetica,sans-Serif" font-size="10.00">O_SensorsTest::run</text>
</a>
</g>
</g>
<!-- Node1&#45;&gt;Node16 -->
<g id="edge17" class="edge">
<title>Node1&#45;&gt;Node16</title>
<path fill="none" stroke="midnightblue" d="M1002.85,-284.27C1003.87,-233.77 999.14,-98.88 925,-29 915.84,-20.36 903.71,-15.29 891.42,-12.39"/>
<polygon fill="midnightblue" stroke="midnightblue" points="999.34,-284.36 1002.54,-294.47 1006.34,-284.58 999.34,-284.36"/>
</g>
<!-- Node17 -->
<g id="node17" class="node">
<title>Node17</title>
<g id="a_node17"><a xlink:href="classRobot.html#a7c2c32badf138c2a26b82068447c3c98" target="_top" xlink:title="Fonctions de motion intelligente en plusieurs essais.">
<polygon fill="white" stroke="black" points="781,-114.5 781,-133.5 892,-133.5 892,-114.5 781,-114.5"/>
<text text-anchor="middle" x="836.5" y="-121.5" font-family="Helvetica,sans-Serif" font-size="10.00">Robot::whileDoLine</text>
</a>
</g>
</g>
<!-- Node1&#45;&gt;Node17 -->
<g id="edge18" class="edge">
<title>Node1&#45;&gt;Node17</title>
<path fill="none" stroke="midnightblue" d="M997.83,-284.36C989.74,-251.17 968.74,-184.1 925,-148 915.65,-140.28 904,-135.03 892.29,-131.47"/>
<polygon fill="midnightblue" stroke="midnightblue" points="994.44,-285.25 1000.09,-294.22 1001.27,-283.69 994.44,-285.25"/>
</g>
<!-- Node18 -->
<g id="node18" class="node">
<title>Node18</title>
<g id="a_node18"><a xlink:href="classIAbyPath.html#acc586e1ba62ffb7a21087a5ca4d2f131" target="_top" xlink:title=" ">
<polygon fill="white" stroke="black" points="748,-316.5 748,-335.5 925,-335.5 925,-316.5 748,-316.5"/>
<text text-anchor="middle" x="836.5" y="-323.5" font-family="Helvetica,sans-Serif" font-size="10.00">IAbyPath::whileMoveBackwardTo</text>
</a>
</g>
</g>
<!-- Node1&#45;&gt;Node18 -->
<g id="edge20" class="edge">
<title>Node1&#45;&gt;Node18</title>
<path fill="none" stroke="midnightblue" d="M950.98,-310.82C937.62,-312.61 922.97,-314.57 908.76,-316.47"/>
<polygon fill="midnightblue" stroke="midnightblue" points="951.47,-314.29 960.91,-309.49 950.54,-307.35 951.47,-314.29"/>
</g>
<!-- Node20 -->
<g id="node20" class="node">
<title>Node20</title>
<g id="a_node20"><a xlink:href="classIAbyPath.html#aa2a96904ea74078d56dad53979b1d999" target="_top" xlink:title=" ">
<polygon fill="white" stroke="black" points="752.5,-430.5 752.5,-449.5 920.5,-449.5 920.5,-430.5 752.5,-430.5"/>
<text text-anchor="middle" x="836.5" y="-437.5" font-family="Helvetica,sans-Serif" font-size="10.00">IAbyPath::whileMoveForwardTo</text>
</a>
</g>
</g>
<!-- Node1&#45;&gt;Node20 -->
<g id="edge23" class="edge">
<title>Node1&#45;&gt;Node20</title>
<path fill="none" stroke="midnightblue" d="M994.77,-323.35C983.86,-349.76 960.6,-396.58 925,-421 919.36,-424.87 913.07,-427.97 906.53,-430.45"/>
<polygon fill="midnightblue" stroke="midnightblue" points="998.16,-324.3 998.57,-313.71 991.65,-321.73 998.16,-324.3"/>
</g>
<!-- Node23 -->
<g id="node23" class="node">
<title>Node23</title>
<g id="a_node23"><a xlink:href="classIAbyPath.html#a42570f6bc87216c2ac5d028ad596fe02" target="_top" xlink:title=" ">
<polygon fill="white" stroke="black" points="756,-392.5 756,-411.5 917,-411.5 917,-392.5 756,-392.5"/>
<text text-anchor="middle" x="836.5" y="-399.5" font-family="Helvetica,sans-Serif" font-size="10.00">IAbyPath::whileMoveRotateTo</text>
</a>
</g>
</g>
<!-- Node1&#45;&gt;Node23 -->
<g id="edge30" class="edge">
<title>Node1&#45;&gt;Node23</title>
<path fill="none" stroke="midnightblue" d="M988.09,-321.74C973.95,-338.61 950.53,-363.49 925,-378 914.04,-384.22 901.39,-388.9 889.17,-392.39"/>
<polygon fill="midnightblue" stroke="midnightblue" points="991,-323.72 994.6,-313.75 985.57,-319.29 991,-323.72"/>
</g>
<!-- Node3 -->
<g id="node3" class="node">
<title>Node3</title>
<g id="a_node3"><a xlink:href="src_2bot-opos6ul_2Main_8cpp.html#a3c04138a5bfe5d72780bb7e82a18e627" target="_top" xlink:title=" ">
<polygon fill="white" stroke="black" points="608,-592.5 608,-611.5 649,-611.5 649,-592.5 608,-592.5"/>
<text text-anchor="middle" x="628.5" y="-599.5" font-family="Helvetica,sans-Serif" font-size="10.00">main</text>
</a>
</g>
</g>
<!-- Node2&#45;&gt;Node3 -->
<g id="edge2" class="edge">
<title>Node2&#45;&gt;Node3</title>
<path fill="none" stroke="midnightblue" d="M755.23,-602C716.55,-602 673.37,-602 649.01,-602"/>
<polygon fill="midnightblue" stroke="midnightblue" points="755.47,-605.5 765.47,-602 755.47,-598.5 755.47,-605.5"/>
</g>
<!-- Node7 -->
<g id="node7" class="node">
<title>Node7</title>
<g id="a_node7"><a xlink:href="classO__State__DecisionMakerIA.html#a9b35f6bac1a5602ec2a711fa280be4a6" target="_top" xlink:title="Configure les activités pour les zones de jeu du match.">
<polygon fill="white" stroke="black" points="195,-450 195,-480 337,-480 337,-450 195,-450"/>
<text text-anchor="start" x="203" y="-468" font-family="Helvetica,sans-Serif" font-size="10.00">O_State_DecisionMakerIA</text>
<text text-anchor="middle" x="266" y="-457" font-family="Helvetica,sans-Serif" font-size="10.00">::IASetupActivitiesZone</text>
</a>
</g>
</g>
<!-- Node6&#45;&gt;Node7 -->
<g id="edge6" class="edge">
<title>Node6&#45;&gt;Node7</title>
<path fill="none" stroke="midnightblue" d="M379.82,-480.54C365.88,-478.62 351.19,-476.6 337.19,-474.67"/>
<polygon fill="midnightblue" stroke="midnightblue" points="379.44,-484.02 389.82,-481.92 380.39,-477.09 379.44,-484.02"/>
</g>
<!-- Node8 -->
<g id="node8" class="node">
<title>Node8</title>
<g id="a_node8"><a xlink:href="classO__State__DecisionMakerIA.html#a8bd1c4d72bec8768c7c7c15bd2e665d8" target="_top" xlink:title="Configure les activités pour le mode test de la table.">
<polygon fill="white" stroke="black" points="178,-499 178,-529 354,-529 354,-499 178,-499"/>
<text text-anchor="start" x="186" y="-517" font-family="Helvetica,sans-Serif" font-size="10.00">O_State_DecisionMakerIA</text>
<text text-anchor="middle" x="266" y="-506" font-family="Helvetica,sans-Serif" font-size="10.00">::IASetupActivitiesZoneTableTest</text>
</a>
</g>
</g>
<!-- Node6&#45;&gt;Node8 -->
<g id="edge8" class="edge">
<title>Node6&#45;&gt;Node8</title>
<path fill="none" stroke="midnightblue" d="M379.77,-499.09C371.4,-500.19 362.77,-501.34 354.18,-502.47"/>
<polygon fill="midnightblue" stroke="midnightblue" points="380.37,-502.54 389.82,-497.76 379.45,-495.6 380.37,-502.54"/>
</g>
<!-- Node7&#45;&gt;Node4 -->
<g id="edge7" class="edge">
<title>Node7&#45;&gt;Node4</title>
<path fill="none" stroke="midnightblue" d="M195.88,-482.55C174.68,-487.93 151.57,-493.8 131.11,-498.99"/>
<polygon fill="midnightblue" stroke="midnightblue" points="196.95,-485.89 205.78,-480.03 195.23,-479.1 196.95,-485.89"/>
</g>
<!-- Node8&#45;&gt;Node4 -->
<g id="edge9" class="edge">
<title>Node8&#45;&gt;Node4</title>
<path fill="none" stroke="midnightblue" d="M167.67,-514C159.02,-514 150.38,-514 142.02,-514"/>
<polygon fill="midnightblue" stroke="midnightblue" points="167.82,-517.5 177.82,-514 167.82,-510.5 167.82,-517.5"/>
</g>
<!-- Node17&#45;&gt;Node11 -->
<g id="edge19" class="edge">
<title>Node17&#45;&gt;Node11</title>
<path fill="none" stroke="midnightblue" d="M770.73,-129.97C750.36,-131.85 727.66,-133.95 706.52,-135.9"/>
<polygon fill="midnightblue" stroke="midnightblue" points="771.2,-133.45 780.84,-129.04 770.56,-126.48 771.2,-133.45"/>
</g>
<!-- Node18&#45;&gt;Node13 -->
<g id="edge21" class="edge">
<title>Node18&#45;&gt;Node13</title>
<path fill="none" stroke="midnightblue" d="M760.02,-336.99C738.63,-340.11 715.53,-343.47 694.79,-346.49"/>
<polygon fill="midnightblue" stroke="midnightblue" points="760.65,-340.44 770.04,-335.53 759.64,-333.51 760.65,-340.44"/>
</g>
<!-- Node19 -->
<g id="node19" class="node">
<title>Node19</title>
<g id="a_node19"><a xlink:href="classIAbyPath.html#a9535c82f137778cc6cd4b159fe3d58ea" target="_top" xlink:title=" ">
<polygon fill="white" stroke="black" points="545,-297 545,-327 712,-327 712,-297 545,-297"/>
<text text-anchor="start" x="553" y="-315" font-family="Helvetica,sans-Serif" font-size="10.00">IAbyPath::whileMoveBackward</text>
<text text-anchor="middle" x="628.5" y="-304" font-family="Helvetica,sans-Serif" font-size="10.00">AndRotateTo</text>
</a>
</g>
</g>
<!-- Node18&#45;&gt;Node19 -->
<g id="edge22" class="edge">
<title>Node18&#45;&gt;Node19</title>
<path fill="none" stroke="midnightblue" d="M737.81,-319.36C729.23,-318.78 720.61,-318.19 712.17,-317.62"/>
<polygon fill="midnightblue" stroke="midnightblue" points="737.62,-322.86 747.84,-320.04 738.1,-315.87 737.62,-322.86"/>
</g>
<!-- Node20&#45;&gt;Node12 -->
<g id="edge25" class="edge">
<title>Node20&#45;&gt;Node12</title>
<path fill="none" stroke="midnightblue" d="M778.61,-451.6C746.46,-458.15 706.76,-466.25 676.42,-472.43"/>
<polygon fill="midnightblue" stroke="midnightblue" points="779.66,-454.96 788.76,-449.53 778.26,-448.1 779.66,-454.96"/>
</g>
<!-- Node20&#45;&gt;Node13 -->
<g id="edge26" class="edge">
<title>Node20&#45;&gt;Node13</title>
<path fill="none" stroke="midnightblue" d="M758.71,-426.65C754.99,-424.98 751.4,-423.11 748,-421 726.23,-407.5 733.61,-389.76 712,-376 705.16,-371.65 697.45,-368.24 689.57,-365.58"/>
<polygon fill="midnightblue" stroke="midnightblue" points="757.6,-429.97 768.18,-430.38 760.16,-423.46 757.6,-429.97"/>
</g>
<!-- Node21 -->
<g id="node21" class="node">
<title>Node21</title>
<g id="a_node21"><a xlink:href="O__State__DecisionMakerIA_8cpp.html#a1cbc5f5cba5f72b993c68f4aad4473f7" target="_top" xlink:title="Action de poussée de la prise en zone basse.">
<polygon fill="white" stroke="black" points="397.5,-412.5 397.5,-431.5 501.5,-431.5 501.5,-412.5 397.5,-412.5"/>
<text text-anchor="middle" x="449.5" y="-419.5" font-family="Helvetica,sans-Serif" font-size="10.00">O_push_prise_bas</text>
</a>
</g>
</g>
<!-- Node20&#45;&gt;Node21 -->
<g id="edge24" class="edge">
<title>Node20&#45;&gt;Node21</title>
<path fill="none" stroke="midnightblue" d="M742.42,-435.65C666.75,-432.11 562.84,-427.25 501.57,-424.39"/>
<polygon fill="midnightblue" stroke="midnightblue" points="742.28,-439.15 752.43,-436.12 742.61,-432.15 742.28,-439.15"/>
</g>
<!-- Node22 -->
<g id="node22" class="node">
<title>Node22</title>
<g id="a_node22"><a xlink:href="classIAbyPath.html#a3f27b793f84340c99ca33e12c2380bb4" target="_top" xlink:title=" ">
<polygon fill="white" stroke="black" points="549.5,-385 549.5,-415 707.5,-415 707.5,-385 549.5,-385"/>
<text text-anchor="start" x="557.5" y="-403" font-family="Helvetica,sans-Serif" font-size="10.00">IAbyPath::whileMoveForward</text>
<text text-anchor="middle" x="628.5" y="-392" font-family="Helvetica,sans-Serif" font-size="10.00">AndRotateTo</text>
</a>
</g>
</g>
<!-- Node20&#45;&gt;Node22 -->
<g id="edge27" class="edge">
<title>Node20&#45;&gt;Node22</title>
<path fill="none" stroke="midnightblue" d="M776.38,-428.52C754.69,-424.31 729.82,-419.48 706.78,-415.01"/>
<polygon fill="midnightblue" stroke="midnightblue" points="775.94,-432 786.42,-430.47 777.27,-425.13 775.94,-432"/>
</g>
<!-- Node22&#45;&gt;Node6 -->
<g id="edge28" class="edge">
<title>Node22&#45;&gt;Node6</title>
<path fill="none" stroke="midnightblue" d="M588.87,-419.64C551.89,-438.45 497.65,-466.02 469.32,-480.43"/>
<polygon fill="midnightblue" stroke="midnightblue" points="590.55,-422.72 597.87,-415.06 587.37,-416.48 590.55,-422.72"/>
</g>
<!-- Node22&#45;&gt;Node21 -->
<g id="edge29" class="edge">
<title>Node22&#45;&gt;Node21</title>
<path fill="none" stroke="midnightblue" d="M539.05,-410.99C526.19,-412.59 513.32,-414.19 501.54,-415.66"/>
<polygon fill="midnightblue" stroke="midnightblue" points="539.86,-414.42 549.35,-409.71 538.99,-407.47 539.86,-414.42"/>
</g>
<!-- Node23&#45;&gt;Node13 -->
<g id="edge31" class="edge">
<title>Node23&#45;&gt;Node13</title>
<path fill="none" stroke="midnightblue" d="M782.95,-390.27C748.6,-382.59 704.29,-372.7 672.13,-365.52"/>
<polygon fill="midnightblue" stroke="midnightblue" points="782.29,-393.71 792.82,-392.47 783.82,-386.87 782.29,-393.71"/>
</g>
<!-- Node23&#45;&gt;Node19 -->
<g id="edge32" class="edge">
<title>Node23&#45;&gt;Node19</title>
<path fill="none" stroke="midnightblue" d="M810.97,-387.3C786.51,-373.08 747.58,-351.6 712,-337 703.28,-333.42 693.85,-330.09 684.6,-327.1"/>
<polygon fill="midnightblue" stroke="midnightblue" points="809.2,-390.32 819.59,-392.36 812.74,-384.28 809.2,-390.32"/>
</g>
<!-- Node23&#45;&gt;Node22 -->
<g id="edge33" class="edge">
<title>Node23&#45;&gt;Node22</title>
<path fill="none" stroke="midnightblue" d="M745.74,-401.13C733.03,-401.01 720.04,-400.88 707.58,-400.76"/>
<polygon fill="midnightblue" stroke="midnightblue" points="745.82,-404.63 755.86,-401.23 745.89,-397.63 745.82,-404.63"/>
</g>
</g>
</svg>
        <g id="navigator" transform="translate(0 0)" fill="#404254">
                <rect fill="#f2f5e9" fill-opacity="0.5" stroke="#606060" stroke-width=".5" x="0" y="0" width="60" height="60"/>
                <use id="zoomplus" xlink:href="#zoomPlus" x="17" y="9" onmousedown="handleZoom(evt,'in')"/>
                <use id="zoomminus" xlink:href="#zoomMin" x="42" y="9" onmousedown="handleZoom(evt,'out')"/>
                <use id="reset" xlink:href="#resetDef" x="30" y="36" onmousedown="handleReset()"/>
                <g id="arrowUp" xlink:href="#dirArrow" transform="translate(30 24)" onmousedown="handlePan(0,-1)">
                  <use xlink:href="#rim" fill="#404040">
                        <set attributeName="fill" to="#808080" begin="arrowUp.mouseover" end="arrowUp.mouseout"/>
                  </use>
                  <path fill="none" stroke="white" stroke-width="1.5" d="M0,-3.0v7 M-2.5,-0.5L0,-3.0L2.5,-0.5"/>
                </g>
                <g id="arrowRight" xlink:href="#dirArrow" transform="rotate(90) translate(36 -43)" onmousedown="handlePan(1,0)">
                  <use xlink:href="#rim" fill="#404040">
                        <set attributeName="fill" to="#808080" begin="arrowRight.mouseover" end="arrowRight.mouseout"/>
                  </use>
                  <path fill="none" stroke="white" stroke-width="1.5" d="M0,-3.0v7 M-2.5,-0.5L0,-3.0L2.5,-0.5"/>
                </g>
                <g id="arrowDown" xlink:href="#dirArrow" transform="rotate(180) translate(-30 -48)" onmousedown="handlePan(0,1)">
                  <use xlink:href="#rim" fill="#404040">
                        <set attributeName="fill" to="#808080" begin="arrowDown.mouseover" end="arrowDown.mouseout"/>
                  </use>
                  <path fill="none" stroke="white" stroke-width="1.5" d="M0,-3.0v7 M-2.5,-0.5L0,-3.0L2.5,-0.5"/>
                </g>
                <g id="arrowLeft" xlink:href="#dirArrow" transform="rotate(270) translate(-36 17)" onmousedown="handlePan(-1,0)">
                  <use xlink:href="#rim" fill="#404040">
                        <set attributeName="fill" to="#808080" begin="arrowLeft.mouseover" end="arrowLeft.mouseout"/>
                  </use>
                  <path fill="none" stroke="white" stroke-width="1.5" d="M0,-3.0v7 M-2.5,-0.5L0,-3.0L2.5,-0.5"/>
                </g>
        </g>
        <svg viewBox="0 0 15 15" width="100%" height="30px" preserveAspectRatio="xMaxYMin meet">
         <g id="arrow_out" transform="scale(0.3 0.3)">
          <a xlink:href="classRobot_a7af430452b558088757324f857d099b2_icgraph_org.svg" target="_base">
           <rect id="button" ry="5" rx="5" y="6" x="6" height="38" width="38"
                fill="#f2f5e9" fill-opacity="0.5" stroke="#606060" stroke-width="1.0"/>
           <path id="arrow"
             d="M 11.500037,31.436501 C 11.940474,20.09759 22.043105,11.32322 32.158766,21.979434 L 37.068811,17.246167 C 37.068811,17.246167 37.088388,32 37.088388,32 L 22.160133,31.978069 C 22.160133,31.978069 26.997745,27.140456 26.997745,27.140456 C 18.528582,18.264221 13.291696,25.230495 11.500037,31.436501 z"
             style="fill:#404040;"/>
          </a>
         </g>
        </svg>
</svg>
