<?xml version="1.0" encoding="UTF-8" standalone="no"?>
<!DOCTYPE svg PUBLIC "-//W3C//DTD SVG 1.1//EN"
 "http://www.w3.org/Graphics/SVG/1.1/DTD/svg11.dtd">
<!-- Generated by graphviz version 2.43.0 (0)
 -->
<!-- Title: OPOS6UL_RobotExtended::displayObstacle Pages: 1 -->
<!--zoomable 159 -->
<svg id="main" version="1.1" xmlns="http://www.w3.org/2000/svg" xmlns:xlink="http://www.w3.org/1999/xlink" xml:space="preserve" onload="init(evt)">
<style type="text/css"><![CDATA[
.edge:hover path { stroke: red; }
.edge:hover polygon { stroke: red; fill: red; }
]]></style>
<script type="text/javascript"><![CDATA[
var edges = document.getElementsByTagName('g');
if (edges && edges.length) {
  for (var i=0;i<edges.length;i++) {
    if (edges[i].id.substr(0,4)=='edge') {
      edges[i].setAttribute('class','edge');
    }
  }
}
]]></script>
        <defs>
                <circle id="rim" cx="0" cy="0" r="7"/>
                <circle id="rim2" cx="0" cy="0" r="3.5"/>
                <g id="zoomPlus">
                        <use xlink:href="#rim" fill="#404040">
                                <set attributeName="fill" to="#808080" begin="zoomplus.mouseover" end="zoomplus.mouseout"/>
                        </use>
                        <path d="M-4,0h8M0,-4v8" fill="none" stroke="white" stroke-width="1.5" pointer-events="none"/>
                </g>
                <g id="zoomMin">
                        <use xlink:href="#rim" fill="#404040">
                                <set attributeName="fill" to="#808080" begin="zoomminus.mouseover" end="zoomminus.mouseout"/>
                        </use>
                        <path d="M-4,0h8" fill="none" stroke="white" stroke-width="1.5" pointer-events="none"/>
                </g>
                <g id="dirArrow">
                        <path fill="none" stroke="white" stroke-width="1.5" d="M0,-3.0v7 M-2.5,-0.5L0,-3.0L2.5,-0.5"/>
                </g>
               <g id="resetDef">
                       <use xlink:href="#rim2" fill="#404040">
                               <set attributeName="fill" to="#808080" begin="reset.mouseover" end="reset.mouseout"/>
                       </use>
               </g>
        </defs>

<script type="text/javascript">
var viewWidth = 964;
var viewHeight = 159;
var sectionId = 'dynsection-12';
</script>
<script xlink:href="svgpan.js"/>
<svg id="graph" class="graph">
<g id="viewport">
<title>OPOS6UL_RobotExtended::displayObstacle</title>
<polygon fill="white" stroke="transparent" points="-4,4 -4,-155 960,-155 960,4 -4,4"/>
<!-- Node1 -->
<g id="node1" class="node">
<title>Node1</title>
<g id="a_node1"><a xlink:title="Affiche le niveau de détection d&#39;obstacle.">
<polygon fill="#bfbfbf" stroke="black" points="0,-71.5 0,-101.5 142,-101.5 142,-71.5 0,-71.5"/>
<text text-anchor="start" x="8" y="-89.5" font-family="Helvetica,sans-Serif" font-size="10.00">OPOS6UL_RobotExtended</text>
<text text-anchor="middle" x="71" y="-78.5" font-family="Helvetica,sans-Serif" font-size="10.00">::displayObstacle</text>
</a>
</g>
</g>
<!-- Node2 -->
<g id="node2" class="node">
<title>Node2</title>
<g id="a_node2"><a xlink:href="classOPOS6UL__RobotExtended.html#a6468a2bb1fc8de815154a322e038b875" target="_top" xlink:title=" ">
<polygon fill="white" stroke="black" points="181.5,-120.5 181.5,-150.5 323.5,-150.5 323.5,-120.5 181.5,-120.5"/>
<text text-anchor="start" x="189.5" y="-138.5" font-family="Helvetica,sans-Serif" font-size="10.00">OPOS6UL_RobotExtended</text>
<text text-anchor="middle" x="252.5" y="-127.5" font-family="Helvetica,sans-Serif" font-size="10.00">::actions</text>
</a>
</g>
</g>
<!-- Node1&#45;&gt;Node2 -->
<g id="edge1" class="edge">
<title>Node1&#45;&gt;Node2</title>
<path fill="none" stroke="midnightblue" d="M127.32,-101.6C146.09,-106.73 167.23,-112.5 186.67,-117.8"/>
<polygon fill="midnightblue" stroke="midnightblue" points="185.79,-121.19 196.36,-120.45 187.64,-114.44 185.79,-121.19"/>
</g>
<!-- Node3 -->
<g id="node3" class="node">
<title>Node3</title>
<g id="a_node3"><a xlink:href="classOPOS6UL__ActionsExtended.html#a45cbc8df7fe022adea06aa127b94069c" target="_top" xlink:title="Cette methode retourne l&#39;objet ledbar.">
<polygon fill="white" stroke="black" points="178,-71.5 178,-101.5 327,-101.5 327,-71.5 178,-71.5"/>
<text text-anchor="start" x="186" y="-89.5" font-family="Helvetica,sans-Serif" font-size="10.00">OPOS6UL_ActionsExtended</text>
<text text-anchor="middle" x="252.5" y="-78.5" font-family="Helvetica,sans-Serif" font-size="10.00">::ledBar</text>
</a>
</g>
</g>
<!-- Node1&#45;&gt;Node3 -->
<g id="edge2" class="edge">
<title>Node1&#45;&gt;Node3</title>
<path fill="none" stroke="midnightblue" d="M142.17,-86.5C150.58,-86.5 159.23,-86.5 167.81,-86.5"/>
<polygon fill="midnightblue" stroke="midnightblue" points="167.83,-90 177.83,-86.5 167.83,-83 167.83,-90"/>
</g>
<!-- Node4 -->
<g id="node4" class="node">
<title>Node4</title>
<g id="a_node4"><a xlink:href="classLedBar.html#aebfc6c5221a223364044fc5c6efacd7a" target="_top" xlink:title="Active une led spécifique.">
<polygon fill="white" stroke="black" points="210,-33 210,-52 295,-52 295,-33 210,-33"/>
<text text-anchor="middle" x="252.5" y="-40" font-family="Helvetica,sans-Serif" font-size="10.00">LedBar::setOn</text>
</a>
</g>
</g>
<!-- Node1&#45;&gt;Node4 -->
<g id="edge3" class="edge">
<title>Node1&#45;&gt;Node4</title>
<path fill="none" stroke="midnightblue" d="M133.27,-71.48C155.98,-65.91 181.4,-59.68 202.84,-54.43"/>
<polygon fill="midnightblue" stroke="midnightblue" points="203.81,-57.79 212.69,-52.01 202.15,-50.99 203.81,-57.79"/>
</g>
<!-- Node5 -->
<g id="node5" class="node">
<title>Node5</title>
<g id="a_node5"><a xlink:href="classLedBar.html#a4f6f26d47d0ea82380cebb8c2b9ea7c3" target="_top" xlink:title="Change le statut d&#39;une led.">
<polygon fill="white" stroke="black" points="363,-33 363,-52 434,-52 434,-33 363,-33"/>
<text text-anchor="middle" x="398.5" y="-40" font-family="Helvetica,sans-Serif" font-size="10.00">LedBar::set</text>
</a>
</g>
</g>
<!-- Node4&#45;&gt;Node5 -->
<g id="edge4" class="edge">
<title>Node4&#45;&gt;Node5</title>
<path fill="none" stroke="midnightblue" d="M295.15,-42.5C313.15,-42.5 334.24,-42.5 352.59,-42.5"/>
<polygon fill="midnightblue" stroke="midnightblue" points="352.75,-46 362.75,-42.5 352.75,-39 352.75,-46"/>
</g>
<!-- Node6 -->
<g id="node6" class="node">
<title>Node6</title>
<g id="a_node6"><a xlink:href="classLedBar.html#a349f726f4e7cd0058f95b6c9d9453b18" target="_top" xlink:title="Retourne le Logger associé à la classe LedBar.">
<polygon fill="white" stroke="black" points="491.5,-53 491.5,-72 578.5,-72 578.5,-53 491.5,-53"/>
<text text-anchor="middle" x="535" y="-60" font-family="Helvetica,sans-Serif" font-size="10.00">LedBar::logger</text>
</a>
</g>
</g>
<!-- Node5&#45;&gt;Node6 -->
<g id="edge5" class="edge">
<title>Node5&#45;&gt;Node6</title>
<path fill="none" stroke="midnightblue" d="M434.14,-47.65C448.44,-49.78 465.34,-52.29 481.13,-54.64"/>
<polygon fill="midnightblue" stroke="midnightblue" points="480.9,-58.14 491.3,-56.15 481.93,-51.22 480.9,-58.14"/>
</g>
<!-- Node11 -->
<g id="node11" class="node">
<title>Node11</title>
<g id="a_node11"><a xlink:href="classlogs_1_1Logger.html#ae55afdeeb1bc9acb6dc02a3e2d06062f" target="_top" xlink:title="Trace un message de niveau TELEM.">
<polygon fill="white" stroke="black" points="470,-14 470,-33 600,-33 600,-14 470,-14"/>
<text text-anchor="middle" x="535" y="-21" font-family="Helvetica,sans-Serif" font-size="10.00">logs::Logger::telemetry</text>
</a>
</g>
</g>
<!-- Node5&#45;&gt;Node11 -->
<g id="edge10" class="edge">
<title>Node5&#45;&gt;Node11</title>
<path fill="none" stroke="midnightblue" d="M434.14,-37.61C442.11,-36.48 450.89,-35.24 459.84,-33.98"/>
<polygon fill="midnightblue" stroke="midnightblue" points="460.56,-37.41 469.97,-32.54 459.58,-30.48 460.56,-37.41"/>
</g>
<!-- Node7 -->
<g id="node7" class="node">
<title>Node7</title>
<g id="a_node7"><a xlink:href="classlogs_1_1LoggerFactory.html#a82585b5de73e471e06cafdccc3b3721e" target="_top" xlink:title="Cette méthode statique retourne un Logger en fonction de son nom.">
<polygon fill="white" stroke="black" points="655.5,-49.5 655.5,-79.5 766.5,-79.5 766.5,-49.5 655.5,-49.5"/>
<text text-anchor="start" x="663.5" y="-67.5" font-family="Helvetica,sans-Serif" font-size="10.00">logs::LoggerFactory</text>
<text text-anchor="middle" x="711" y="-56.5" font-family="Helvetica,sans-Serif" font-size="10.00">::logger</text>
</a>
</g>
</g>
<!-- Node6&#45;&gt;Node7 -->
<g id="edge6" class="edge">
<title>Node6&#45;&gt;Node7</title>
<path fill="none" stroke="midnightblue" d="M578.57,-62.99C598.63,-63.22 623.01,-63.5 645.3,-63.76"/>
<polygon fill="midnightblue" stroke="midnightblue" points="645.33,-67.26 655.36,-63.87 645.41,-60.26 645.33,-67.26"/>
</g>
<!-- Node8 -->
<g id="node8" class="node">
<title>Node8</title>
<g id="a_node8"><a xlink:href="classlogs_1_1LoggerFactory.html#ac89f19c0ffd71aa8cdc1c2d44c03809e" target="_top" xlink:title="Cette méthode ajoute un appender au système.">
<polygon fill="white" stroke="black" points="822,-99 822,-118 956,-118 956,-99 822,-99"/>
<text text-anchor="middle" x="889" y="-106" font-family="Helvetica,sans-Serif" font-size="10.00">logs::LoggerFactory::add</text>
</a>
</g>
</g>
<!-- Node7&#45;&gt;Node8 -->
<g id="edge7" class="edge">
<title>Node7&#45;&gt;Node8</title>
<path fill="none" stroke="midnightblue" d="M766.72,-78.18C790.19,-84.05 817.37,-90.84 840.03,-96.51"/>
<polygon fill="midnightblue" stroke="midnightblue" points="839.22,-99.91 849.78,-98.94 840.92,-93.12 839.22,-99.91"/>
</g>
<!-- Node9 -->
<g id="node9" class="node">
<title>Node9</title>
<g id="a_node9"><a xlink:href="classlogs_1_1LoggerFactory.html#a90478b91d7af2ef8841ded21e3521f69" target="_top" xlink:title="Cette méthode statique retourne l&#39;instance unique de la classe LoggerFactory.">
<polygon fill="white" stroke="black" points="833.5,-49.5 833.5,-79.5 944.5,-79.5 944.5,-49.5 833.5,-49.5"/>
<text text-anchor="start" x="841.5" y="-67.5" font-family="Helvetica,sans-Serif" font-size="10.00">logs::LoggerFactory</text>
<text text-anchor="middle" x="889" y="-56.5" font-family="Helvetica,sans-Serif" font-size="10.00">::instance</text>
</a>
</g>
</g>
<!-- Node7&#45;&gt;Node9 -->
<g id="edge8" class="edge">
<title>Node7&#45;&gt;Node9</title>
<path fill="none" stroke="midnightblue" d="M766.72,-64.5C784.6,-64.5 804.63,-64.5 823.18,-64.5"/>
<polygon fill="midnightblue" stroke="midnightblue" points="823.31,-68 833.31,-64.5 823.31,-61 823.31,-68"/>
</g>
<!-- Node10 -->
<g id="node10" class="node">
<title>Node10</title>
<g id="a_node10"><a xlink:href="classlogs_1_1LoggerFactory.html#a212aa623f4b6bee12cb39e8017dde670" target="_top" xlink:title="Cette méthode retourne le Logger principal qui définit le niveau de trace par défaut.">
<polygon fill="white" stroke="black" points="833.5,-0.5 833.5,-30.5 944.5,-30.5 944.5,-0.5 833.5,-0.5"/>
<text text-anchor="start" x="841.5" y="-18.5" font-family="Helvetica,sans-Serif" font-size="10.00">logs::LoggerFactory</text>
<text text-anchor="middle" x="889" y="-7.5" font-family="Helvetica,sans-Serif" font-size="10.00">::rootLogger</text>
</a>
</g>
</g>
<!-- Node7&#45;&gt;Node10 -->
<g id="edge9" class="edge">
<title>Node7&#45;&gt;Node10</title>
<path fill="none" stroke="midnightblue" d="M766.24,-49.4C784.56,-44.3 805.18,-38.56 824.17,-33.27"/>
<polygon fill="midnightblue" stroke="midnightblue" points="825.24,-36.61 833.94,-30.55 823.36,-29.86 825.24,-36.61"/>
</g>
<!-- Node12 -->
<g id="node12" class="node">
<title>Node12</title>
<g id="a_node12"><a xlink:href="classlogs_1_1Logger.html#afa535aaf4891e02c4ff7f84d372b5b1b" target="_top" xlink:title="Méthode générique de trace d&#39;un message.">
<polygon fill="white" stroke="black" points="636,-11 636,-30 786,-30 786,-11 636,-11"/>
<text text-anchor="middle" x="711" y="-18" font-family="Helvetica,sans-Serif" font-size="10.00">logs::Logger::writeMessage</text>
</a>
</g>
</g>
<!-- Node11&#45;&gt;Node12 -->
<g id="edge11" class="edge">
<title>Node11&#45;&gt;Node12</title>
<path fill="none" stroke="midnightblue" d="M600.3,-22.39C608.65,-22.25 617.3,-22.1 625.91,-21.95"/>
<polygon fill="midnightblue" stroke="midnightblue" points="626.04,-25.45 635.98,-21.78 625.92,-18.45 626.04,-25.45"/>
</g>
</g>
</svg>
        <g id="navigator" transform="translate(0 0)" fill="#404254">
                <rect fill="#f2f5e9" fill-opacity="0.5" stroke="#606060" stroke-width=".5" x="0" y="0" width="60" height="60"/>
                <use id="zoomplus" xlink:href="#zoomPlus" x="17" y="9" onmousedown="handleZoom(evt,'in')"/>
                <use id="zoomminus" xlink:href="#zoomMin" x="42" y="9" onmousedown="handleZoom(evt,'out')"/>
                <use id="reset" xlink:href="#resetDef" x="30" y="36" onmousedown="handleReset()"/>
                <g id="arrowUp" xlink:href="#dirArrow" transform="translate(30 24)" onmousedown="handlePan(0,-1)">
                  <use xlink:href="#rim" fill="#404040">
                        <set attributeName="fill" to="#808080" begin="arrowUp.mouseover" end="arrowUp.mouseout"/>
                  </use>
                  <path fill="none" stroke="white" stroke-width="1.5" d="M0,-3.0v7 M-2.5,-0.5L0,-3.0L2.5,-0.5"/>
                </g>
                <g id="arrowRight" xlink:href="#dirArrow" transform="rotate(90) translate(36 -43)" onmousedown="handlePan(1,0)">
                  <use xlink:href="#rim" fill="#404040">
                        <set attributeName="fill" to="#808080" begin="arrowRight.mouseover" end="arrowRight.mouseout"/>
                  </use>
                  <path fill="none" stroke="white" stroke-width="1.5" d="M0,-3.0v7 M-2.5,-0.5L0,-3.0L2.5,-0.5"/>
                </g>
                <g id="arrowDown" xlink:href="#dirArrow" transform="rotate(180) translate(-30 -48)" onmousedown="handlePan(0,1)">
                  <use xlink:href="#rim" fill="#404040">
                        <set attributeName="fill" to="#808080" begin="arrowDown.mouseover" end="arrowDown.mouseout"/>
                  </use>
                  <path fill="none" stroke="white" stroke-width="1.5" d="M0,-3.0v7 M-2.5,-0.5L0,-3.0L2.5,-0.5"/>
                </g>
                <g id="arrowLeft" xlink:href="#dirArrow" transform="rotate(270) translate(-36 17)" onmousedown="handlePan(-1,0)">
                  <use xlink:href="#rim" fill="#404040">
                        <set attributeName="fill" to="#808080" begin="arrowLeft.mouseover" end="arrowLeft.mouseout"/>
                  </use>
                  <path fill="none" stroke="white" stroke-width="1.5" d="M0,-3.0v7 M-2.5,-0.5L0,-3.0L2.5,-0.5"/>
                </g>
        </g>
        <svg viewBox="0 0 15 15" width="100%" height="30px" preserveAspectRatio="xMaxYMin meet">
         <g id="arrow_out" transform="scale(0.3 0.3)">
          <a xlink:href="classOPOS6UL__RobotExtended_a9b3f31797fc1916741d6bc61eaf3d1b7_cgraph_org.svg" target="_base">
           <rect id="button" ry="5" rx="5" y="6" x="6" height="38" width="38"
                fill="#f2f5e9" fill-opacity="0.5" stroke="#606060" stroke-width="1.0"/>
           <path id="arrow"
             d="M 11.500037,31.436501 C 11.940474,20.09759 22.043105,11.32322 32.158766,21.979434 L 37.068811,17.246167 C 37.068811,17.246167 37.088388,32 37.088388,32 L 22.160133,31.978069 C 22.160133,31.978069 26.997745,27.140456 26.997745,27.140456 C 18.528582,18.264221 13.291696,25.230495 11.500037,31.436501 z"
             style="fill:#404040;"/>
          </a>
         </g>
        </svg>
</svg>
