<?xml version="1.0" encoding="UTF-8" standalone="no"?>
<!DOCTYPE svg PUBLIC "-//W3C//DTD SVG 1.1//EN"
 "http://www.w3.org/Graphics/SVG/1.1/DTD/svg11.dtd">
<!-- Generated by graphviz version 2.43.0 (0)
 -->
<!-- Title: Actions::is_started Pages: 1 -->
<!--zoomable 837 -->
<svg id="main" version="1.1" xmlns="http://www.w3.org/2000/svg" xmlns:xlink="http://www.w3.org/1999/xlink" xml:space="preserve" onload="init(evt)">
<style type="text/css"><![CDATA[
.edge:hover path { stroke: red; }
.edge:hover polygon { stroke: red; fill: red; }
]]></style>
<script type="text/javascript"><![CDATA[
var edges = document.getElementsByTagName('g');
if (edges && edges.length) {
  for (var i=0;i<edges.length;i++) {
    if (edges[i].id.substr(0,4)=='edge') {
      edges[i].setAttribute('class','edge');
    }
  }
}
]]></script>
        <defs>
                <circle id="rim" cx="0" cy="0" r="7"/>
                <circle id="rim2" cx="0" cy="0" r="3.5"/>
                <g id="zoomPlus">
                        <use xlink:href="#rim" fill="#404040">
                                <set attributeName="fill" to="#808080" begin="zoomplus.mouseover" end="zoomplus.mouseout"/>
                        </use>
                        <path d="M-4,0h8M0,-4v8" fill="none" stroke="white" stroke-width="1.5" pointer-events="none"/>
                </g>
                <g id="zoomMin">
                        <use xlink:href="#rim" fill="#404040">
                                <set attributeName="fill" to="#808080" begin="zoomminus.mouseover" end="zoomminus.mouseout"/>
                        </use>
                        <path d="M-4,0h8" fill="none" stroke="white" stroke-width="1.5" pointer-events="none"/>
                </g>
                <g id="dirArrow">
                        <path fill="none" stroke="white" stroke-width="1.5" d="M0,-3.0v7 M-2.5,-0.5L0,-3.0L2.5,-0.5"/>
                </g>
               <g id="resetDef">
                       <use xlink:href="#rim2" fill="#404040">
                               <set attributeName="fill" to="#808080" begin="reset.mouseover" end="reset.mouseout"/>
                       </use>
               </g>
        </defs>

<script type="text/javascript">
var viewWidth = 1167;
var viewHeight = 837;
var sectionId = 'dynsection-12';
</script>
<script xlink:href="svgpan.js"/>
<svg id="graph" class="graph">
<g id="viewport">
<title>Actions::is_started</title>
<polygon fill="white" stroke="transparent" points="-4,4 -4,-833.21 1163,-833.21 1163,4 -4,4"/>
<!-- Node1 -->
<g id="node1" class="node">
<title>Node1</title>
<g id="a_node1"><a xlink:title="Indique si le gestionnaire d&#39;actions est démarré.">
<polygon fill="#bfbfbf" stroke="black" points="1052,-499.71 1052,-518.71 1159,-518.71 1159,-499.71 1052,-499.71"/>
<text text-anchor="middle" x="1105.5" y="-506.71" font-family="Helvetica,sans-Serif" font-size="10.00">Actions::is_started</text>
</a>
</g>
</g>
<!-- Node2 -->
<g id="node2" class="node">
<title>Node2</title>
<g id="a_node2"><a xlink:href="classActions.html#a710f952f5942e626d73e47733a8848b0" target="_top" xlink:title="Ajout d&#39;une action.">
<polygon fill="white" stroke="black" points="909,-695.71 909,-714.71 1016,-714.71 1016,-695.71 909,-695.71"/>
<text text-anchor="middle" x="962.5" y="-702.71" font-family="Helvetica,sans-Serif" font-size="10.00">Actions::addAction</text>
</a>
</g>
</g>
<!-- Node1&#45;&gt;Node2 -->
<g id="edge1" class="edge">
<title>Node1&#45;&gt;Node2</title>
<path fill="none" stroke="midnightblue" d="M1091.48,-527.3C1062.39,-567.75 992.86,-664.39 970.53,-695.43"/>
<polygon fill="midnightblue" stroke="midnightblue" points="1094.51,-529.09 1097.51,-518.93 1088.83,-525 1094.51,-529.09"/>
</g>
<!-- Node12 -->
<g id="node12" class="node">
<title>Node12</title>
<g id="a_node12"><a xlink:href="classActions.html#a173e3bb37b9cbb0e5ef423b1719b7afd" target="_top" xlink:title="Ajout d&#39;un timer standard.">
<polygon fill="white" stroke="black" points="910,-499.71 910,-518.71 1015,-518.71 1015,-499.71 910,-499.71"/>
<text text-anchor="middle" x="962.5" y="-506.71" font-family="Helvetica,sans-Serif" font-size="10.00">Actions::addTimer</text>
</a>
</g>
</g>
<!-- Node1&#45;&gt;Node12 -->
<g id="edge11" class="edge">
<title>Node1&#45;&gt;Node12</title>
<path fill="none" stroke="midnightblue" d="M1041.97,-509.21C1032.99,-509.21 1023.84,-509.21 1015.11,-509.21"/>
<polygon fill="midnightblue" stroke="midnightblue" points="1042,-512.71 1052,-509.21 1042,-505.71 1042,-512.71"/>
</g>
<!-- Node35 -->
<g id="node35" class="node">
<title>Node35</title>
<g id="a_node35"><a xlink:href="classActions.html#adf0dec391b032c0b36b329a3f039001e" target="_top" xlink:title="Active les actions.">
<polygon fill="white" stroke="black" points="756.5,-98.71 756.5,-117.71 837.5,-117.71 837.5,-98.71 756.5,-98.71"/>
<text text-anchor="middle" x="797" y="-105.71" font-family="Helvetica,sans-Serif" font-size="10.00">Actions::start</text>
</a>
</g>
</g>
<!-- Node1&#45;&gt;Node35 -->
<g id="edge53" class="edge">
<title>Node1&#45;&gt;Node35</title>
<path fill="none" stroke="midnightblue" d="M1098.66,-489.83C1078.64,-426.81 1006.49,-225.99 873,-127.21 862.74,-119.62 849.77,-115.05 837.51,-112.3"/>
<polygon fill="midnightblue" stroke="midnightblue" points="1095.4,-491.13 1101.71,-499.65 1102.09,-489.06 1095.4,-491.13"/>
</g>
<!-- Node3 -->
<g id="node3" class="node">
<title>Node3</title>
<g id="a_node3"><a xlink:href="classO__ActionManagerTimerTest.html#ab88b301cdfa06385c521335dd27932c9" target="_top" xlink:title="Execute le test.">
<polygon fill="white" stroke="black" points="512,-174.71 512,-193.71 685,-193.71 685,-174.71 512,-174.71"/>
<text text-anchor="middle" x="598.5" y="-181.71" font-family="Helvetica,sans-Serif" font-size="10.00">O_ActionManagerTimerTest::run</text>
</a>
</g>
</g>
<!-- Node2&#45;&gt;Node3 -->
<g id="edge2" class="edge">
<title>Node2&#45;&gt;Node3</title>
<path fill="none" stroke="midnightblue" d="M955.71,-685.72C936.33,-620.57 874.9,-414.26 873,-411.21 824.24,-333.03 777.35,-343.12 721,-270.21 700.33,-243.46 711.95,-223.62 685,-203.21 679.91,-199.35 674.19,-196.25 668.18,-193.76"/>
<polygon fill="midnightblue" stroke="midnightblue" points="952.42,-686.96 958.63,-695.54 959.13,-684.96 952.42,-686.96"/>
</g>
<!-- Node4 -->
<g id="node4" class="node">
<title>Node4</title>
<g id="a_node4"><a xlink:href="classSoundBar.html#a6ca072c4dc05e392f0c0114b483f8dc2" target="_top" xlink:title="Lance l&#39;action asynchrone d&#39;émission d&#39;un beep.">
<polygon fill="white" stroke="black" points="739,-657.71 739,-676.71 855,-676.71 855,-657.71 739,-657.71"/>
<text text-anchor="middle" x="797" y="-664.71" font-family="Helvetica,sans-Serif" font-size="10.00">SoundBar::startBeep</text>
</a>
</g>
</g>
<!-- Node2&#45;&gt;Node4 -->
<g id="edge3" class="edge">
<title>Node2&#45;&gt;Node4</title>
<path fill="none" stroke="midnightblue" d="M910.32,-693.31C887.33,-687.97 860.59,-681.76 838.96,-676.73"/>
<polygon fill="midnightblue" stroke="midnightblue" points="909.71,-696.77 920.24,-695.62 911.29,-689.95 909.71,-696.77"/>
</g>
<!-- Node5 -->
<g id="node5" class="node">
<title>Node5</title>
<g id="a_node5"><a xlink:href="classLedBar.html#a76595197ac9045d04f108bed1f3ac4fd" target="_top" xlink:title="Lance l&#39;action d&#39;allumer toutes les leds.">
<polygon fill="white" stroke="black" points="744.5,-809.71 744.5,-828.71 849.5,-828.71 849.5,-809.71 744.5,-809.71"/>
<text text-anchor="middle" x="797" y="-816.71" font-family="Helvetica,sans-Serif" font-size="10.00">LedBar::startFlash</text>
</a>
</g>
</g>
<!-- Node2&#45;&gt;Node5 -->
<g id="edge4" class="edge">
<title>Node2&#45;&gt;Node5</title>
<path fill="none" stroke="midnightblue" d="M949.81,-722.99C934.68,-744.58 906.27,-780.52 873,-800.21 865.83,-804.45 857.74,-807.75 849.59,-810.32"/>
<polygon fill="midnightblue" stroke="midnightblue" points="952.72,-724.95 955.46,-714.71 946.93,-721 952.72,-724.95"/>
</g>
<!-- Node6 -->
<g id="node6" class="node">
<title>Node6</title>
<g id="a_node6"><a xlink:href="classLedBar.html#a714ebd39a178ddd3d602deed7af0bf56" target="_top" xlink:title="Lance l&#39;action d&#39;allumer les leds selon la valeur hexValue.">
<polygon fill="white" stroke="black" points="731,-733.71 731,-752.71 863,-752.71 863,-733.71 731,-733.71"/>
<text text-anchor="middle" x="797" y="-740.71" font-family="Helvetica,sans-Serif" font-size="10.00">LedBar::startFlashValue</text>
</a>
</g>
</g>
<!-- Node2&#45;&gt;Node6 -->
<g id="edge5" class="edge">
<title>Node2&#45;&gt;Node6</title>
<path fill="none" stroke="midnightblue" d="M910.32,-717.11C887.33,-722.45 860.59,-728.66 838.96,-733.69"/>
<polygon fill="midnightblue" stroke="midnightblue" points="911.29,-720.47 920.24,-714.8 909.71,-713.65 911.29,-720.47"/>
</g>
<!-- Node7 -->
<g id="node7" class="node">
<title>Node7</title>
<g id="a_node7"><a xlink:href="classLedBar.html#a77df047f6a8fadf44a3d24d51eb27f68" target="_top" xlink:title="Lance l&#39;action d&#39;éteindre toutes les leds.">
<polygon fill="white" stroke="black" points="743.5,-695.71 743.5,-714.71 850.5,-714.71 850.5,-695.71 743.5,-695.71"/>
<text text-anchor="middle" x="797" y="-702.71" font-family="Helvetica,sans-Serif" font-size="10.00">LedBar::startReset</text>
</a>
</g>
</g>
<!-- Node2&#45;&gt;Node7 -->
<g id="edge6" class="edge">
<title>Node2&#45;&gt;Node7</title>
<path fill="none" stroke="midnightblue" d="M898.6,-705.21C882.73,-705.21 865.84,-705.21 850.53,-705.21"/>
<polygon fill="midnightblue" stroke="midnightblue" points="898.87,-708.71 908.87,-705.21 898.87,-701.71 898.87,-708.71"/>
</g>
<!-- Node8 -->
<g id="node8" class="node">
<title>Node8</title>
<g id="a_node8"><a xlink:href="classLedBar.html#a985018b17b5051935a30d19e32880e11" target="_top" xlink:title="Lance l&#39;action de changer le statut d&#39;une led en tache parallele sur l&#39;actionmanager.">
<polygon fill="white" stroke="black" points="749.5,-771.71 749.5,-790.71 844.5,-790.71 844.5,-771.71 749.5,-771.71"/>
<text text-anchor="middle" x="797" y="-778.71" font-family="Helvetica,sans-Serif" font-size="10.00">LedBar::startSet</text>
</a>
</g>
</g>
<!-- Node2&#45;&gt;Node8 -->
<g id="edge7" class="edge">
<title>Node2&#45;&gt;Node8</title>
<path fill="none" stroke="midnightblue" d="M941.14,-721.06C923.86,-733.82 897.98,-751.35 873,-762.21 864.13,-766.07 854.32,-769.26 844.79,-771.85"/>
<polygon fill="midnightblue" stroke="midnightblue" points="943.45,-723.7 949.34,-714.89 939.24,-718.11 943.45,-723.7"/>
</g>
<!-- Node9 -->
<g id="node9" class="node">
<title>Node9</title>
<g id="a_node9"><a xlink:href="classO__LedBarTest.html#af9e0e172d13b334cda0fe32bb659b414" target="_top" xlink:title=" ">
<polygon fill="white" stroke="black" points="546.5,-654.71 546.5,-673.71 650.5,-673.71 650.5,-654.71 546.5,-654.71"/>
<text text-anchor="middle" x="598.5" y="-661.71" font-family="Helvetica,sans-Serif" font-size="10.00">O_LedBarTest::run</text>
</a>
</g>
</g>
<!-- Node8&#45;&gt;Node9 -->
<g id="edge8" class="edge">
<title>Node8&#45;&gt;Node9</title>
<path fill="none" stroke="midnightblue" d="M739.31,-769.66C732.98,-767.55 726.76,-765.09 721,-762.21 673.49,-738.47 627.51,-693.63 608.56,-673.92"/>
<polygon fill="midnightblue" stroke="midnightblue" points="738.68,-773.13 749.26,-772.68 740.71,-766.43 738.68,-773.13"/>
</g>
<!-- Node10 -->
<g id="node10" class="node">
<title>Node10</title>
<g id="a_node10"><a xlink:href="classLedBar.html#ad37f92ef4b6487afc785d739a59a32aa" target="_top" xlink:title="Désactive une led spécifique.">
<polygon fill="white" stroke="black" points="544,-790.71 544,-809.71 653,-809.71 653,-790.71 544,-790.71"/>
<text text-anchor="middle" x="598.5" y="-797.71" font-family="Helvetica,sans-Serif" font-size="10.00">LedBar::startSetOff</text>
</a>
</g>
</g>
<!-- Node8&#45;&gt;Node10 -->
<g id="edge9" class="edge">
<title>Node8&#45;&gt;Node10</title>
<path fill="none" stroke="midnightblue" d="M739.3,-786.69C712.13,-789.32 679.77,-792.45 653.03,-795.03"/>
<polygon fill="midnightblue" stroke="midnightblue" points="739.82,-790.16 749.43,-785.71 739.14,-783.19 739.82,-790.16"/>
</g>
<!-- Node11 -->
<g id="node11" class="node">
<title>Node11</title>
<g id="a_node11"><a xlink:href="classLedBar.html#af2eb11c44122b3206a657eb3b0b6f05e" target="_top" xlink:title="Active une led spécifique.">
<polygon fill="white" stroke="black" points="544.5,-752.71 544.5,-771.71 652.5,-771.71 652.5,-752.71 544.5,-752.71"/>
<text text-anchor="middle" x="598.5" y="-759.71" font-family="Helvetica,sans-Serif" font-size="10.00">LedBar::startSetOn</text>
</a>
</g>
</g>
<!-- Node8&#45;&gt;Node11 -->
<g id="edge10" class="edge">
<title>Node8&#45;&gt;Node11</title>
<path fill="none" stroke="midnightblue" d="M739.26,-775.72C711.98,-773.09 679.47,-769.94 652.68,-767.35"/>
<polygon fill="midnightblue" stroke="midnightblue" points="739.14,-779.23 749.43,-776.71 739.82,-772.26 739.14,-779.23"/>
</g>
<!-- Node12&#45;&gt;Node3 -->
<g id="edge46" class="edge">
<title>Node12&#45;&gt;Node3</title>
<path fill="none" stroke="midnightblue" d="M957.96,-489.69C949.75,-449.43 925.93,-356.17 873,-299.21 814.97,-236.76 717.66,-207 656.12,-193.75"/>
<polygon fill="midnightblue" stroke="midnightblue" points="954.53,-490.42 959.87,-499.57 961.41,-489.09 954.53,-490.42"/>
</g>
<!-- Node13 -->
<g id="node13" class="node">
<title>Node13</title>
<g id="a_node13"><a xlink:href="classSensors.html#a1ef07aeea0536ccf34e310d831e71ef0" target="_top" xlink:title=" ">
<polygon fill="white" stroke="black" points="724,-136.71 724,-155.71 870,-155.71 870,-136.71 724,-136.71"/>
<text text-anchor="middle" x="797" y="-143.71" font-family="Helvetica,sans-Serif" font-size="10.00">Sensors::addTimerSensors</text>
</a>
</g>
</g>
<!-- Node12&#45;&gt;Node13 -->
<g id="edge12" class="edge">
<title>Node12&#45;&gt;Node13</title>
<path fill="none" stroke="midnightblue" d="M956.17,-490.01C938.26,-425.73 881.01,-221.45 873,-209.21 857.73,-185.88 831.24,-166.58 814.18,-155.73"/>
<polygon fill="midnightblue" stroke="midnightblue" points="952.81,-491 958.86,-499.69 959.55,-489.12 952.81,-491"/>
</g>
<!-- Node17 -->
<g id="node17" class="node">
<title>Node17</title>
<g id="a_node17"><a xlink:href="classServoObjectsSystem.html#a60de17986f65700a7659b22edda2faef" target="_top" xlink:title="move 1 servo.">
<polygon fill="white" stroke="black" points="738,-421.21 738,-451.21 856,-451.21 856,-421.21 738,-421.21"/>
<text text-anchor="start" x="746" y="-439.21" font-family="Helvetica,sans-Serif" font-size="10.00">ServoObjectsSystem</text>
<text text-anchor="middle" x="797" y="-428.21" font-family="Helvetica,sans-Serif" font-size="10.00">::move_1_servo</text>
</a>
</g>
</g>
<!-- Node12&#45;&gt;Node17 -->
<g id="edge16" class="edge">
<title>Node12&#45;&gt;Node17</title>
<path fill="none" stroke="midnightblue" d="M930.77,-495.49C902.61,-482.92 861.01,-464.34 831.9,-451.34"/>
<polygon fill="midnightblue" stroke="midnightblue" points="929.57,-498.79 940.13,-499.67 932.42,-492.39 929.57,-498.79"/>
</g>
<!-- Node31 -->
<g id="node31" class="node">
<title>Node31</title>
<g id="a_node31"><a xlink:href="classServoObjectsSystem.html#a209d4e6a24c8cd26c76168c08e330655" target="_top" xlink:title="move 2 servos.">
<polygon fill="white" stroke="black" points="738,-494.21 738,-524.21 856,-524.21 856,-494.21 738,-494.21"/>
<text text-anchor="start" x="746" y="-512.21" font-family="Helvetica,sans-Serif" font-size="10.00">ServoObjectsSystem</text>
<text text-anchor="middle" x="797" y="-501.21" font-family="Helvetica,sans-Serif" font-size="10.00">::move_2_servos</text>
</a>
</g>
</g>
<!-- Node12&#45;&gt;Node31 -->
<g id="edge42" class="edge">
<title>Node12&#45;&gt;Node31</title>
<path fill="none" stroke="midnightblue" d="M899.59,-509.21C885.36,-509.21 870.28,-509.21 856.22,-509.21"/>
<polygon fill="midnightblue" stroke="midnightblue" points="899.77,-512.71 909.77,-509.21 899.77,-505.71 899.77,-512.71"/>
</g>
<!-- Node32 -->
<g id="node32" class="node">
<title>Node32</title>
<g id="a_node32"><a xlink:href="classLedBar.html#ac680352e575b6a86e40e0d9143db38d7" target="_top" xlink:title="Lance l&#39;action de faire alterner les leds selon les valeurs hexValue et hexValueNext.">
<polygon fill="white" stroke="black" points="721,-581.71 721,-600.71 873,-600.71 873,-581.71 721,-581.71"/>
<text text-anchor="middle" x="797" y="-588.71" font-family="Helvetica,sans-Serif" font-size="10.00">LedBar::startTimerAlternate</text>
</a>
</g>
</g>
<!-- Node12&#45;&gt;Node32 -->
<g id="edge47" class="edge">
<title>Node12&#45;&gt;Node32</title>
<path fill="none" stroke="midnightblue" d="M942.86,-525.64C925.78,-539.88 899.24,-560.07 873,-572.21 864.83,-575.99 855.8,-579.09 846.92,-581.61"/>
<polygon fill="midnightblue" stroke="midnightblue" points="945.54,-527.95 950.88,-518.8 941,-522.63 945.54,-527.95"/>
</g>
<!-- Node33 -->
<g id="node33" class="node">
<title>Node33</title>
<g id="a_node33"><a xlink:href="classLedBar.html#a2fb2bd9ec3e7fcb7451cb859db3a6846" target="_top" xlink:title="Lance l&#39;action de faire clignoter une led nb fois tous les timeus.">
<polygon fill="white" stroke="black" points="723.5,-543.71 723.5,-562.71 870.5,-562.71 870.5,-543.71 723.5,-543.71"/>
<text text-anchor="middle" x="797" y="-550.71" font-family="Helvetica,sans-Serif" font-size="10.00">LedBar::startTimerBlinkPin</text>
</a>
</g>
</g>
<!-- Node12&#45;&gt;Node33 -->
<g id="edge49" class="edge">
<title>Node12&#45;&gt;Node33</title>
<path fill="none" stroke="midnightblue" d="M918.66,-521.57C904.18,-525.67 887.91,-530.22 873,-534.21 861.19,-537.37 848.3,-540.69 836.59,-543.65"/>
<polygon fill="midnightblue" stroke="midnightblue" points="919.7,-524.91 928.36,-518.8 917.78,-518.18 919.7,-524.91"/>
</g>
<!-- Node34 -->
<g id="node34" class="node">
<title>Node34</title>
<g id="a_node34"><a xlink:href="classLedBar.html#a4e3205aef3a0d44b623d4f8434235cbb" target="_top" xlink:title="Lance l&#39;action d&#39;allumer alternativement les leds à la &quot;K2000&quot;.">
<polygon fill="white" stroke="black" points="729,-619.71 729,-638.71 865,-638.71 865,-619.71 729,-619.71"/>
<text text-anchor="middle" x="797" y="-626.71" font-family="Helvetica,sans-Serif" font-size="10.00">LedBar::startTimerK2mil</text>
</a>
</g>
</g>
<!-- Node12&#45;&gt;Node34 -->
<g id="edge51" class="edge">
<title>Node12&#45;&gt;Node34</title>
<path fill="none" stroke="midnightblue" d="M950.31,-527.78C935.51,-550.7 907.27,-589.22 873,-610.21 866.7,-614.07 859.65,-617.15 852.45,-619.6"/>
<polygon fill="midnightblue" stroke="midnightblue" points="953.46,-529.34 955.8,-519.01 947.53,-525.62 953.46,-529.34"/>
</g>
<!-- Node14 -->
<g id="node14" class="node">
<title>Node14</title>
<g id="a_node14"><a xlink:href="classO__State__DecisionMakerIA.html#a96d1f2a7618d607fd10cc51b9111e653" target="_top" xlink:title="Execute l&#39;action.">
<polygon fill="white" stroke="black" points="330.5,-150.21 330.5,-180.21 472.5,-180.21 472.5,-150.21 330.5,-150.21"/>
<text text-anchor="start" x="338.5" y="-168.21" font-family="Helvetica,sans-Serif" font-size="10.00">O_State_DecisionMakerIA</text>
<text text-anchor="middle" x="401.5" y="-157.21" font-family="Helvetica,sans-Serif" font-size="10.00">::execute</text>
</a>
</g>
</g>
<!-- Node13&#45;&gt;Node14 -->
<g id="edge13" class="edge">
<title>Node13&#45;&gt;Node14</title>
<path fill="none" stroke="midnightblue" d="M713.53,-150.19C642.15,-153.64 540.05,-158.57 472.56,-161.83"/>
<polygon fill="midnightblue" stroke="midnightblue" points="714.01,-153.67 723.83,-149.7 713.67,-146.68 714.01,-153.67"/>
</g>
<!-- Node15 -->
<g id="node15" class="node">
<title>Node15</title>
<g id="a_node15"><a xlink:href="classO__IAByPathTest.html#a3f57f585ff1382a52bf7f79a28d43629" target="_top" xlink:title="Execute le test.">
<polygon fill="white" stroke="black" points="541.5,-60.71 541.5,-79.71 655.5,-79.71 655.5,-60.71 541.5,-60.71"/>
<text text-anchor="middle" x="598.5" y="-67.71" font-family="Helvetica,sans-Serif" font-size="10.00">O_IAByPathTest::run</text>
</a>
</g>
</g>
<!-- Node13&#45;&gt;Node15 -->
<g id="edge14" class="edge">
<title>Node13&#45;&gt;Node15</title>
<path fill="none" stroke="midnightblue" d="M732.76,-133.03C728.68,-131.32 724.72,-129.39 721,-127.21 700.93,-115.44 705.24,-100.68 685,-89.21 676,-84.11 665.75,-80.38 655.55,-77.65"/>
<polygon fill="midnightblue" stroke="midnightblue" points="731.88,-136.44 742.47,-136.64 734.32,-129.87 731.88,-136.44"/>
</g>
<!-- Node16 -->
<g id="node16" class="node">
<title>Node16</title>
<g id="a_node16"><a xlink:href="classO__SensorsTest.html#ae3b998034225e16586ded4ba3bd419e5" target="_top" xlink:title="Execute le test.">
<polygon fill="white" stroke="black" points="544,-98.71 544,-117.71 653,-117.71 653,-98.71 544,-98.71"/>
<text text-anchor="middle" x="598.5" y="-105.71" font-family="Helvetica,sans-Serif" font-size="10.00">O_SensorsTest::run</text>
</a>
</g>
</g>
<!-- Node13&#45;&gt;Node16 -->
<g id="edge15" class="edge">
<title>Node13&#45;&gt;Node16</title>
<path fill="none" stroke="midnightblue" d="M736.59,-134.72C708.55,-129.3 675.48,-122.9 648.85,-117.75"/>
<polygon fill="midnightblue" stroke="midnightblue" points="736.19,-138.21 746.67,-136.67 737.51,-131.34 736.19,-138.21"/>
</g>
<!-- Node18 -->
<g id="node18" class="node">
<title>Node18</title>
<g id="a_node18"><a xlink:href="classOPOS6UL__ActionsExtended.html#a946560d21bc7c1a12be600b16e07c93a" target="_top" xlink:title="Déploie le bras droit en position d&#39;action.">
<polygon fill="white" stroke="black" points="524,-360.21 524,-390.21 673,-390.21 673,-360.21 524,-360.21"/>
<text text-anchor="start" x="532" y="-378.21" font-family="Helvetica,sans-Serif" font-size="10.00">OPOS6UL_ActionsExtended</text>
<text text-anchor="middle" x="598.5" y="-367.21" font-family="Helvetica,sans-Serif" font-size="10.00">::ax12_bras_droit</text>
</a>
</g>
</g>
<!-- Node17&#45;&gt;Node18 -->
<g id="edge17" class="edge">
<title>Node17&#45;&gt;Node18</title>
<path fill="none" stroke="midnightblue" d="M742.8,-417.9C724.54,-411.77 703.93,-405.02 685,-399.21 675.27,-396.23 664.88,-393.18 654.81,-390.32"/>
<polygon fill="midnightblue" stroke="midnightblue" points="741.8,-421.26 752.4,-421.14 744.04,-414.63 741.8,-421.26"/>
</g>
<!-- Node23 -->
<g id="node23" class="node">
<title>Node23</title>
<g id="a_node23"><a xlink:href="classOPOS6UL__ActionsExtended.html#a67daef275b861004d118273c7e2564c2" target="_top" xlink:title="Place le bras droit en position initiale (replié).">
<polygon fill="white" stroke="black" points="524,-311.21 524,-341.21 673,-341.21 673,-311.21 524,-311.21"/>
<text text-anchor="start" x="532" y="-329.21" font-family="Helvetica,sans-Serif" font-size="10.00">OPOS6UL_ActionsExtended</text>
<text text-anchor="middle" x="598.5" y="-318.21" font-family="Helvetica,sans-Serif" font-size="10.00">::ax12_bras_droit_init</text>
</a>
</g>
</g>
<!-- Node17&#45;&gt;Node23 -->
<g id="edge24" class="edge">
<title>Node17&#45;&gt;Node23</title>
<path fill="none" stroke="midnightblue" d="M772.9,-413.95C751.63,-394.57 718.4,-367.03 685,-350.21 678.25,-346.81 670.96,-343.84 663.57,-341.25"/>
<polygon fill="midnightblue" stroke="midnightblue" points="770.73,-416.7 780.44,-420.93 775.48,-411.57 770.73,-416.7"/>
</g>
<!-- Node24 -->
<g id="node24" class="node">
<title>Node24</title>
<g id="a_node24"><a xlink:href="classOPOS6UL__ActionsExtended.html#a5b32b355b6907dda48874f40dc9101eb" target="_top" xlink:title="Déploie le bras gauche en position d&#39;action.">
<polygon fill="white" stroke="black" points="524,-262.21 524,-292.21 673,-292.21 673,-262.21 524,-262.21"/>
<text text-anchor="start" x="532" y="-280.21" font-family="Helvetica,sans-Serif" font-size="10.00">OPOS6UL_ActionsExtended</text>
<text text-anchor="middle" x="598.5" y="-269.21" font-family="Helvetica,sans-Serif" font-size="10.00">::ax12_bras_gauche</text>
</a>
</g>
</g>
<!-- Node17&#45;&gt;Node24 -->
<g id="edge27" class="edge">
<title>Node17&#45;&gt;Node24</title>
<path fill="none" stroke="midnightblue" d="M782.74,-412.41C764.6,-382.06 729.22,-330.06 685,-301.21 679.71,-297.76 673.92,-294.79 667.92,-292.25"/>
<polygon fill="midnightblue" stroke="midnightblue" points="779.74,-414.22 787.8,-421.09 785.78,-410.69 779.74,-414.22"/>
</g>
<!-- Node25 -->
<g id="node25" class="node">
<title>Node25</title>
<g id="a_node25"><a xlink:href="classOPOS6UL__ActionsExtended.html#ad3b7d5a26040d5780cc43a5a9ead9ad3" target="_top" xlink:title="Place le bras gauche en position initiale (replié).">
<polygon fill="white" stroke="black" points="524,-458.21 524,-488.21 673,-488.21 673,-458.21 524,-458.21"/>
<text text-anchor="start" x="532" y="-476.21" font-family="Helvetica,sans-Serif" font-size="10.00">OPOS6UL_ActionsExtended</text>
<text text-anchor="middle" x="598.5" y="-465.21" font-family="Helvetica,sans-Serif" font-size="10.00">::ax12_bras_gauche_init</text>
</a>
</g>
</g>
<!-- Node17&#45;&gt;Node25 -->
<g id="edge30" class="edge">
<title>Node17&#45;&gt;Node25</title>
<path fill="none" stroke="midnightblue" d="M727.67,-449.08C710.08,-452.39 691.08,-455.97 673.23,-459.33"/>
<polygon fill="midnightblue" stroke="midnightblue" points="728.66,-452.45 737.84,-447.16 727.37,-445.57 728.66,-452.45"/>
</g>
<!-- Node26 -->
<g id="node26" class="node">
<title>Node26</title>
<g id="a_node26"><a xlink:href="classOPOS6UL__ActionsExtended.html#a44856498aa3839098211785a1fe0b6a3" target="_top" xlink:title="Déploie la banderole (action de fin de match).">
<polygon fill="white" stroke="black" points="524,-213.21 524,-243.21 673,-243.21 673,-213.21 524,-213.21"/>
<text text-anchor="start" x="532" y="-231.21" font-family="Helvetica,sans-Serif" font-size="10.00">OPOS6UL_ActionsExtended</text>
<text text-anchor="middle" x="598.5" y="-220.21" font-family="Helvetica,sans-Serif" font-size="10.00">::ax12_GO_banderole</text>
</a>
</g>
</g>
<!-- Node17&#45;&gt;Node26 -->
<g id="edge33" class="edge">
<title>Node17&#45;&gt;Node26</title>
<path fill="none" stroke="midnightblue" d="M778.43,-412.95C762.48,-391.34 738.81,-357.96 721,-327.21 702.46,-295.22 713.32,-275.99 685,-252.21 680.87,-248.74 676.27,-245.77 671.4,-243.23"/>
<polygon fill="midnightblue" stroke="midnightblue" points="775.77,-415.24 784.54,-421.18 781.38,-411.07 775.77,-415.24"/>
</g>
<!-- Node27 -->
<g id="node27" class="node">
<title>Node27</title>
<g id="a_node27"><a xlink:href="classOPOS6UL__ActionsExtended.html#ae63e06f334f5095383387aa9ff68c8a3" target="_top" xlink:title="Initialise le servo de la banderole à la position repliée.">
<polygon fill="white" stroke="black" points="524,-409.21 524,-439.21 673,-439.21 673,-409.21 524,-409.21"/>
<text text-anchor="start" x="532" y="-427.21" font-family="Helvetica,sans-Serif" font-size="10.00">OPOS6UL_ActionsExtended</text>
<text text-anchor="middle" x="598.5" y="-416.21" font-family="Helvetica,sans-Serif" font-size="10.00">::ax12_init_banderole</text>
</a>
</g>
</g>
<!-- Node17&#45;&gt;Node27 -->
<g id="edge36" class="edge">
<title>Node17&#45;&gt;Node27</title>
<path fill="none" stroke="midnightblue" d="M727.67,-432.04C710.08,-430.96 691.08,-429.8 673.23,-428.71"/>
<polygon fill="midnightblue" stroke="midnightblue" points="727.65,-435.54 737.84,-432.66 728.07,-428.56 727.65,-435.54"/>
</g>
<!-- Node28 -->
<g id="node28" class="node">
<title>Node28</title>
<g id="a_node28"><a xlink:href="classOPOS6UL__ActionsExtended.html#a565acda2ce4cdd1be8263835465d0fdc" target="_top" xlink:title="Initialise le bras gauche (épaule, coude, poignet) à la position de repos.">
<polygon fill="white" stroke="black" points="524,-556.21 524,-586.21 673,-586.21 673,-556.21 524,-556.21"/>
<text text-anchor="start" x="532" y="-574.21" font-family="Helvetica,sans-Serif" font-size="10.00">OPOS6UL_ActionsExtended</text>
<text text-anchor="middle" x="598.5" y="-563.21" font-family="Helvetica,sans-Serif" font-size="10.00">::ax12_init_L</text>
</a>
</g>
</g>
<!-- Node17&#45;&gt;Node28 -->
<g id="edge39" class="edge">
<title>Node17&#45;&gt;Node28</title>
<path fill="none" stroke="midnightblue" d="M756.62,-456.48C744.27,-464.07 731.2,-473.48 721,-484.21 698.78,-507.58 710.42,-527.37 685,-547.21 680.62,-550.63 675.79,-553.55 670.71,-556.07"/>
<polygon fill="midnightblue" stroke="midnightblue" points="758.6,-459.37 765.44,-451.28 755.05,-453.34 758.6,-459.37"/>
</g>
<!-- Node29 -->
<g id="node29" class="node">
<title>Node29</title>
<g id="a_node29"><a xlink:href="classOPOS6UL__ActionsExtended.html#a50a3db095faaaf15ec9630d9abcfb5d4" target="_top" xlink:title="Initialise les deux bras (gauche et droit) à la position de repos.">
<polygon fill="white" stroke="black" points="524,-507.21 524,-537.21 673,-537.21 673,-507.21 524,-507.21"/>
<text text-anchor="start" x="532" y="-525.21" font-family="Helvetica,sans-Serif" font-size="10.00">OPOS6UL_ActionsExtended</text>
<text text-anchor="middle" x="598.5" y="-514.21" font-family="Helvetica,sans-Serif" font-size="10.00">::ax12_init_LR</text>
</a>
</g>
</g>
<!-- Node17&#45;&gt;Node29 -->
<g id="edge40" class="edge">
<title>Node17&#45;&gt;Node29</title>
<path fill="none" stroke="midnightblue" d="M763.3,-456.65C741.68,-469.55 712.37,-485.85 685,-497.21 676.29,-500.83 666.87,-504.14 657.58,-507.09"/>
<polygon fill="midnightblue" stroke="midnightblue" points="765.32,-459.53 772.07,-451.36 761.7,-453.53 765.32,-459.53"/>
</g>
<!-- Node30 -->
<g id="node30" class="node">
<title>Node30</title>
<g id="a_node30"><a xlink:href="classOPOS6UL__ActionsExtended.html#a298422faffadf81c4350cd47464d3f0a" target="_top" xlink:title="Initialise le bras droit (épaule, coude, poignet) à la position de repos.">
<polygon fill="white" stroke="black" points="524,-605.21 524,-635.21 673,-635.21 673,-605.21 524,-605.21"/>
<text text-anchor="start" x="532" y="-623.21" font-family="Helvetica,sans-Serif" font-size="10.00">OPOS6UL_ActionsExtended</text>
<text text-anchor="middle" x="598.5" y="-612.21" font-family="Helvetica,sans-Serif" font-size="10.00">::ax12_init_R</text>
</a>
</g>
</g>
<!-- Node17&#45;&gt;Node30 -->
<g id="edge41" class="edge">
<title>Node17&#45;&gt;Node30</title>
<path fill="none" stroke="midnightblue" d="M753.33,-456.47C741.5,-463.81 729.57,-473.08 721,-484.21 689.1,-525.64 722.66,-559.94 685,-596.21 681.45,-599.63 677.45,-602.58 673.17,-605.1"/>
<polygon fill="midnightblue" stroke="midnightblue" points="755.42,-459.31 762.3,-451.24 751.9,-453.26 755.42,-459.31"/>
</g>
<!-- Node19 -->
<g id="node19" class="node">
<title>Node19</title>
<g id="a_node19"><a xlink:href="classOPOS6UL__ActionsExtended.html#af04e19802d90a78d82e67b10061521a2" target="_top" xlink:title="Initialise tous les servomoteurs AX12 à leur position de départ.">
<polygon fill="white" stroke="black" points="327,-371.21 327,-401.21 476,-401.21 476,-371.21 327,-371.21"/>
<text text-anchor="start" x="335" y="-389.21" font-family="Helvetica,sans-Serif" font-size="10.00">OPOS6UL_ActionsExtended</text>
<text text-anchor="middle" x="401.5" y="-378.21" font-family="Helvetica,sans-Serif" font-size="10.00">::ax12_init</text>
</a>
</g>
</g>
<!-- Node18&#45;&gt;Node19 -->
<g id="edge18" class="edge">
<title>Node18&#45;&gt;Node19</title>
<path fill="none" stroke="midnightblue" d="M513.78,-379.93C501.22,-380.64 488.34,-381.37 476,-382.06"/>
<polygon fill="midnightblue" stroke="midnightblue" points="513.99,-383.43 523.78,-379.37 513.6,-376.44 513.99,-383.43"/>
</g>
<!-- Node21 -->
<g id="node21" class="node">
<title>Node21</title>
<g id="a_node21"><a xlink:href="classO__ServoObjectsTest.html#aabfa9ba518070128940062ed11028ca7" target="_top" xlink:title="Execute le test.">
<polygon fill="white" stroke="black" points="156,-297.71 156,-316.71 291,-316.71 291,-297.71 156,-297.71"/>
<text text-anchor="middle" x="223.5" y="-304.71" font-family="Helvetica,sans-Serif" font-size="10.00">O_ServoObjectsTest::run</text>
</a>
</g>
</g>
<!-- Node18&#45;&gt;Node21 -->
<g id="edge23" class="edge">
<title>Node18&#45;&gt;Node21</title>
<path fill="none" stroke="midnightblue" d="M513.79,-361.33C460.29,-352.3 389.48,-340.04 327,-328.21 308.17,-324.65 287.45,-320.45 269.6,-316.76"/>
<polygon fill="midnightblue" stroke="midnightblue" points="513.47,-364.83 523.91,-363.04 514.64,-357.93 513.47,-364.83"/>
</g>
<!-- Node20 -->
<g id="node20" class="node">
<title>Node20</title>
<g id="a_node20"><a xlink:href="classO__State__Init.html#abc19788b7457d1f819245dd28367fe91" target="_top" xlink:title="Exécute l&#39;état d&#39;initialisation.">
<polygon fill="white" stroke="black" points="0,-338.71 0,-357.71 120,-357.71 120,-338.71 0,-338.71"/>
<text text-anchor="middle" x="60" y="-345.71" font-family="Helvetica,sans-Serif" font-size="10.00">O_State_Init::execute</text>
</a>
</g>
</g>
<!-- Node19&#45;&gt;Node20 -->
<g id="edge19" class="edge">
<title>Node19&#45;&gt;Node20</title>
<path fill="none" stroke="midnightblue" d="M316.76,-382.19C269.43,-379.3 209.24,-374.58 156,-367.21 138.51,-364.79 119.38,-361.16 102.91,-357.72"/>
<polygon fill="midnightblue" stroke="midnightblue" points="316.78,-385.7 326.97,-382.8 317.19,-378.71 316.78,-385.7"/>
</g>
<!-- Node19&#45;&gt;Node21 -->
<g id="edge20" class="edge">
<title>Node19&#45;&gt;Node21</title>
<path fill="none" stroke="midnightblue" d="M349.21,-367.26C341.61,-363.88 333.99,-360.17 327,-356.21 309.6,-346.35 308.73,-338.47 291,-329.21 281.52,-324.25 270.69,-320.11 260.57,-316.8"/>
<polygon fill="midnightblue" stroke="midnightblue" points="347.85,-370.48 358.42,-371.19 350.6,-364.05 347.85,-370.48"/>
</g>
<!-- Node22 -->
<g id="node22" class="node">
<title>Node22</title>
<g id="a_node22"><a xlink:href="classO__State__Init.html#a1980cd82dcb83e88d61f2e7e14dddfa0" target="_top" xlink:title=" ">
<polygon fill="white" stroke="black" points="166.5,-338.71 166.5,-357.71 280.5,-357.71 280.5,-338.71 166.5,-338.71"/>
<text text-anchor="middle" x="223.5" y="-345.71" font-family="Helvetica,sans-Serif" font-size="10.00">O_State_Init::setPos</text>
</a>
</g>
</g>
<!-- Node19&#45;&gt;Node22 -->
<g id="edge21" class="edge">
<title>Node19&#45;&gt;Node22</title>
<path fill="none" stroke="midnightblue" d="M320.99,-369.04C302.95,-365.15 284.43,-361.15 268.5,-357.71"/>
<polygon fill="midnightblue" stroke="midnightblue" points="320.43,-372.5 330.94,-371.19 321.9,-365.66 320.43,-372.5"/>
</g>
<!-- Node22&#45;&gt;Node20 -->
<g id="edge22" class="edge">
<title>Node22&#45;&gt;Node20</title>
<path fill="none" stroke="midnightblue" d="M156.15,-348.21C144.25,-348.21 131.91,-348.21 120.23,-348.21"/>
<polygon fill="midnightblue" stroke="midnightblue" points="156.47,-351.71 166.47,-348.21 156.47,-344.71 156.47,-351.71"/>
</g>
<!-- Node23&#45;&gt;Node19 -->
<g id="edge25" class="edge">
<title>Node23&#45;&gt;Node19</title>
<path fill="none" stroke="midnightblue" d="M533.01,-343.98C525.91,-346.04 518.79,-348.14 512,-350.21 490.46,-356.77 466.71,-364.52 446.85,-371.14"/>
<polygon fill="midnightblue" stroke="midnightblue" points="534.01,-347.34 542.66,-341.22 532.08,-340.61 534.01,-347.34"/>
</g>
<!-- Node23&#45;&gt;Node21 -->
<g id="edge26" class="edge">
<title>Node23&#45;&gt;Node21</title>
<path fill="none" stroke="midnightblue" d="M513.67,-321.94C446.44,-318.52 353.37,-313.77 291.15,-310.61"/>
<polygon fill="midnightblue" stroke="midnightblue" points="513.64,-325.44 523.81,-322.46 514,-318.45 513.64,-325.44"/>
</g>
<!-- Node24&#45;&gt;Node19 -->
<g id="edge28" class="edge">
<title>Node24&#45;&gt;Node19</title>
<path fill="none" stroke="midnightblue" d="M523.82,-295.87C519.76,-297.52 515.79,-299.3 512,-301.21 474.82,-319.95 437.89,-352.18 417.84,-371.11"/>
<polygon fill="midnightblue" stroke="midnightblue" points="525.31,-299.05 533.43,-292.24 522.84,-292.5 525.31,-299.05"/>
</g>
<!-- Node24&#45;&gt;Node21 -->
<g id="edge29" class="edge">
<title>Node24&#45;&gt;Node21</title>
<path fill="none" stroke="midnightblue" d="M513.67,-283.95C446.44,-289.36 353.37,-296.85 291.15,-301.85"/>
<polygon fill="midnightblue" stroke="midnightblue" points="514.12,-287.43 523.81,-283.14 513.56,-280.45 514.12,-287.43"/>
</g>
<!-- Node25&#45;&gt;Node19 -->
<g id="edge31" class="edge">
<title>Node25&#45;&gt;Node19</title>
<path fill="none" stroke="midnightblue" d="M529.79,-455C523.71,-452.89 517.7,-450.62 512,-448.21 480.81,-435.03 447.25,-415.08 425.62,-401.39"/>
<polygon fill="midnightblue" stroke="midnightblue" points="528.78,-458.35 539.38,-458.18 530.99,-451.71 528.78,-458.35"/>
</g>
<!-- Node25&#45;&gt;Node21 -->
<g id="edge32" class="edge">
<title>Node25&#45;&gt;Node21</title>
<path fill="none" stroke="midnightblue" d="M513.76,-485.71C455.15,-489.64 378.42,-484.5 327,-442.21 286.29,-408.73 328.06,-366.69 291,-329.21 285.7,-323.85 279.06,-319.8 272.05,-316.73"/>
<polygon fill="midnightblue" stroke="midnightblue" points="514.04,-489.19 523.75,-484.94 513.51,-482.21 514.04,-489.19"/>
</g>
<!-- Node26&#45;&gt;Node14 -->
<g id="edge34" class="edge">
<title>Node26&#45;&gt;Node14</title>
<path fill="none" stroke="midnightblue" d="M534.78,-210.26C527.09,-207.94 519.35,-205.56 512,-203.21 489.48,-196.01 464.56,-187.42 444.19,-180.22"/>
<polygon fill="midnightblue" stroke="midnightblue" points="533.89,-213.64 544.47,-213.15 535.89,-206.94 533.89,-213.64"/>
</g>
<!-- Node26&#45;&gt;Node21 -->
<g id="edge35" class="edge">
<title>Node26&#45;&gt;Node21</title>
<path fill="none" stroke="midnightblue" d="M513.84,-245.16C460.35,-256.08 389.54,-270.72 327,-284.21 307.03,-288.52 284.92,-293.46 266.36,-297.65"/>
<polygon fill="midnightblue" stroke="midnightblue" points="514.86,-248.52 523.95,-243.09 513.46,-241.66 514.86,-248.52"/>
</g>
<!-- Node27&#45;&gt;Node19 -->
<g id="edge37" class="edge">
<title>Node27&#45;&gt;Node19</title>
<path fill="none" stroke="midnightblue" d="M513.78,-407.9C501.22,-405.45 488.34,-402.94 476,-400.53"/>
<polygon fill="midnightblue" stroke="midnightblue" points="513.29,-411.37 523.78,-409.84 514.63,-404.5 513.29,-411.37"/>
</g>
<!-- Node27&#45;&gt;Node21 -->
<g id="edge38" class="edge">
<title>Node27&#45;&gt;Node21</title>
<path fill="none" stroke="midnightblue" d="M518.5,-440.67C460.5,-448.2 382.48,-448.34 327,-410.21 294.53,-387.9 320.2,-355.66 291,-329.21 285.14,-323.9 277.97,-319.87 270.53,-316.81"/>
<polygon fill="midnightblue" stroke="midnightblue" points="519.3,-444.1 528.72,-439.24 518.33,-437.16 519.3,-444.1"/>
</g>
<!-- Node31&#45;&gt;Node28 -->
<g id="edge43" class="edge">
<title>Node31&#45;&gt;Node28</title>
<path fill="none" stroke="midnightblue" d="M740.67,-527.48C734.04,-529.72 727.36,-532 721,-534.21 704.93,-539.79 701.2,-542.02 685,-547.21 675.46,-550.27 665.25,-553.32 655.33,-556.17"/>
<polygon fill="midnightblue" stroke="midnightblue" points="741.96,-530.74 750.33,-524.23 739.73,-524.1 741.96,-530.74"/>
</g>
<!-- Node31&#45;&gt;Node29 -->
<g id="edge44" class="edge">
<title>Node31&#45;&gt;Node29</title>
<path fill="none" stroke="midnightblue" d="M727.67,-513.73C710.08,-514.89 691.08,-516.15 673.23,-517.33"/>
<polygon fill="midnightblue" stroke="midnightblue" points="728.09,-517.21 737.84,-513.06 727.63,-510.23 728.09,-517.21"/>
</g>
<!-- Node31&#45;&gt;Node30 -->
<g id="edge45" class="edge">
<title>Node31&#45;&gt;Node30</title>
<path fill="none" stroke="midnightblue" d="M728.71,-528.74C726.01,-530.42 723.42,-532.24 721,-534.21 696.29,-554.33 710.19,-576.69 685,-596.21 680.61,-599.61 675.77,-602.53 670.68,-605.03"/>
<polygon fill="midnightblue" stroke="midnightblue" points="730.56,-531.72 737.66,-523.85 727.21,-525.57 730.56,-531.72"/>
</g>
<!-- Node32&#45;&gt;Node9 -->
<g id="edge48" class="edge">
<title>Node32&#45;&gt;Node9</title>
<path fill="none" stroke="midnightblue" d="M733.65,-604.25C729.26,-606 725,-607.98 721,-610.21 701.52,-621.1 704.64,-634.61 685,-645.21 674.56,-650.84 662.55,-654.81 650.89,-657.6"/>
<polygon fill="midnightblue" stroke="midnightblue" points="735.16,-607.43 743.4,-600.78 732.81,-600.84 735.16,-607.43"/>
</g>
<!-- Node33&#45;&gt;Node9 -->
<g id="edge50" class="edge">
<title>Node33&#45;&gt;Node9</title>
<path fill="none" stroke="midnightblue" d="M727.92,-567.39C725.5,-568.85 723.18,-570.45 721,-572.21 692.88,-594.97 713.45,-622.87 685,-645.21 675.19,-652.91 662.9,-657.63 650.71,-660.48"/>
<polygon fill="midnightblue" stroke="midnightblue" points="729.75,-570.39 737.09,-562.74 726.59,-564.15 729.75,-570.39"/>
</g>
<!-- Node34&#45;&gt;Node9 -->
<g id="edge52" class="edge">
<title>Node34&#45;&gt;Node9</title>
<path fill="none" stroke="midnightblue" d="M732.6,-640.5C706.06,-645.23 675.62,-650.65 650.55,-655.12"/>
<polygon fill="midnightblue" stroke="midnightblue" points="733.33,-643.93 742.57,-638.73 732.11,-637.04 733.33,-643.93"/>
</g>
<!-- Node35&#45;&gt;Node3 -->
<g id="edge55" class="edge">
<title>Node35&#45;&gt;Node3</title>
<path fill="none" stroke="midnightblue" d="M746.37,-119.36C737.82,-121.68 729.09,-124.32 721,-127.21 682.83,-140.86 640.41,-162.29 617.16,-174.61"/>
<polygon fill="midnightblue" stroke="midnightblue" points="747.47,-122.69 756.26,-116.78 745.7,-115.92 747.47,-122.69"/>
</g>
<!-- Node35&#45;&gt;Node9 -->
<g id="edge57" class="edge">
<title>Node35&#45;&gt;Node9</title>
<path fill="none" stroke="midnightblue" d="M746.52,-111.59C736.75,-114.55 727.52,-119.4 721,-127.21 647.02,-215.76 760.28,-557.76 685,-645.21 676.37,-655.24 663.73,-660.64 650.8,-663.41"/>
<polygon fill="midnightblue" stroke="midnightblue" points="747.47,-114.96 756.38,-109.22 745.84,-108.16 747.47,-114.96"/>
</g>
<!-- Node35&#45;&gt;Node15 -->
<g id="edge56" class="edge">
<title>Node35&#45;&gt;Node15</title>
<path fill="none" stroke="midnightblue" d="M746.06,-98.55C716.3,-92.8 678.66,-85.52 648.97,-79.78"/>
<polygon fill="midnightblue" stroke="midnightblue" points="745.75,-102.06 756.24,-100.52 747.08,-95.19 745.75,-102.06"/>
</g>
<!-- Node35&#45;&gt;Node16 -->
<g id="edge58" class="edge">
<title>Node35&#45;&gt;Node16</title>
<path fill="none" stroke="midnightblue" d="M746.15,-108.21C717.81,-108.21 682.33,-108.21 653.36,-108.21"/>
<polygon fill="midnightblue" stroke="midnightblue" points="746.24,-111.71 756.24,-108.21 746.24,-104.71 746.24,-111.71"/>
</g>
<!-- Node35&#45;&gt;Node20 -->
<g id="edge54" class="edge">
<title>Node35&#45;&gt;Node20</title>
<path fill="none" stroke="midnightblue" d="M778.5,-91.66C757.97,-73.49 722.02,-45.42 685,-34.21 532.43,11.98 468.75,16.72 327,-56.21 190.71,-126.33 89.65,-296.58 66.18,-338.68"/>
<polygon fill="midnightblue" stroke="midnightblue" points="776.31,-94.4 786.07,-98.53 781.02,-89.22 776.31,-94.4"/>
</g>
<!-- Node35&#45;&gt;Node21 -->
<g id="edge59" class="edge">
<title>Node35&#45;&gt;Node21</title>
<path fill="none" stroke="midnightblue" d="M774.08,-92.95C752.54,-78.96 718.16,-59.23 685,-51.21 610.26,-33.14 586.96,-34.12 512,-51.21 423.04,-71.5 394.73,-79.07 327,-140.21 273.97,-188.08 238.97,-269.79 228.1,-297.61"/>
<polygon fill="midnightblue" stroke="midnightblue" points="772.22,-95.92 782.48,-98.55 776.1,-90.09 772.22,-95.92"/>
</g>
</g>
</svg>
        <g id="navigator" transform="translate(0 0)" fill="#404254">
                <rect fill="#f2f5e9" fill-opacity="0.5" stroke="#606060" stroke-width=".5" x="0" y="0" width="60" height="60"/>
                <use id="zoomplus" xlink:href="#zoomPlus" x="17" y="9" onmousedown="handleZoom(evt,'in')"/>
                <use id="zoomminus" xlink:href="#zoomMin" x="42" y="9" onmousedown="handleZoom(evt,'out')"/>
                <use id="reset" xlink:href="#resetDef" x="30" y="36" onmousedown="handleReset()"/>
                <g id="arrowUp" xlink:href="#dirArrow" transform="translate(30 24)" onmousedown="handlePan(0,-1)">
                  <use xlink:href="#rim" fill="#404040">
                        <set attributeName="fill" to="#808080" begin="arrowUp.mouseover" end="arrowUp.mouseout"/>
                  </use>
                  <path fill="none" stroke="white" stroke-width="1.5" d="M0,-3.0v7 M-2.5,-0.5L0,-3.0L2.5,-0.5"/>
                </g>
                <g id="arrowRight" xlink:href="#dirArrow" transform="rotate(90) translate(36 -43)" onmousedown="handlePan(1,0)">
                  <use xlink:href="#rim" fill="#404040">
                        <set attributeName="fill" to="#808080" begin="arrowRight.mouseover" end="arrowRight.mouseout"/>
                  </use>
                  <path fill="none" stroke="white" stroke-width="1.5" d="M0,-3.0v7 M-2.5,-0.5L0,-3.0L2.5,-0.5"/>
                </g>
                <g id="arrowDown" xlink:href="#dirArrow" transform="rotate(180) translate(-30 -48)" onmousedown="handlePan(0,1)">
                  <use xlink:href="#rim" fill="#404040">
                        <set attributeName="fill" to="#808080" begin="arrowDown.mouseover" end="arrowDown.mouseout"/>
                  </use>
                  <path fill="none" stroke="white" stroke-width="1.5" d="M0,-3.0v7 M-2.5,-0.5L0,-3.0L2.5,-0.5"/>
                </g>
                <g id="arrowLeft" xlink:href="#dirArrow" transform="rotate(270) translate(-36 17)" onmousedown="handlePan(-1,0)">
                  <use xlink:href="#rim" fill="#404040">
                        <set attributeName="fill" to="#808080" begin="arrowLeft.mouseover" end="arrowLeft.mouseout"/>
                  </use>
                  <path fill="none" stroke="white" stroke-width="1.5" d="M0,-3.0v7 M-2.5,-0.5L0,-3.0L2.5,-0.5"/>
                </g>
        </g>
        <svg viewBox="0 0 15 15" width="100%" height="30px" preserveAspectRatio="xMaxYMin meet">
         <g id="arrow_out" transform="scale(0.3 0.3)">
          <a xlink:href="classActions_a637e05ac19e873621b1e123c2ff29990_icgraph_org.svg" target="_base">
           <rect id="button" ry="5" rx="5" y="6" x="6" height="38" width="38"
                fill="#f2f5e9" fill-opacity="0.5" stroke="#606060" stroke-width="1.0"/>
           <path id="arrow"
             d="M 11.500037,31.436501 C 11.940474,20.09759 22.043105,11.32322 32.158766,21.979434 L 37.068811,17.246167 C 37.068811,17.246167 37.088388,32 37.088388,32 L 22.160133,31.978069 C 22.160133,31.978069 26.997745,27.140456 26.997745,27.140456 C 18.528582,18.264221 13.291696,25.230495 11.500037,31.436501 z"
             style="fill:#404040;"/>
          </a>
         </g>
        </svg>
</svg>
