<?xml version="1.0" encoding="UTF-8" standalone="no"?>
<!DOCTYPE svg PUBLIC "-//W3C//DTD SVG 1.1//EN"
 "http://www.w3.org/Graphics/SVG/1.1/DTD/svg11.dtd">
<!-- Generated by graphviz version 2.43.0 (0)
 -->
<!-- Title: test::LedDriverTest Pages: 1 -->
<svg width="154pt" height="95pt"
 viewBox="0.00 0.00 153.50 95.00" xmlns="http://www.w3.org/2000/svg" xmlns:xlink="http://www.w3.org/1999/xlink">
<g id="graph0" class="graph" transform="scale(1 1) rotate(0) translate(4 91)">
<title>test::LedDriverTest</title>
<polygon fill="white" stroke="transparent" points="-4,4 -4,-91 149.5,-91 149.5,4 -4,4"/>
<!-- Node1 -->
<g id="node1" class="node">
<title>Node1</title>
<g id="a_node1"><a xlink:title="Test unitaire fonctionnel du driver de LEDs.">
<polygon fill="#bfbfbf" stroke="black" points="15,-0.5 15,-19.5 123,-19.5 123,-0.5 15,-0.5"/>
<text text-anchor="middle" x="69" y="-7.5" font-family="Helvetica,sans-Serif" font-size="10.00">test::LedDriverTest</text>
</a>
</g>
</g>
<!-- Node2 -->
<g id="node2" class="node">
<title>Node2</title>
<g id="a_node2"><a xlink:href="classUnitTest.html" target="_top" xlink:title="Cette classe permet de créer des tests unitaires.">
<polygon fill="white" stroke="black" points="0,-67.5 0,-86.5 56,-86.5 56,-67.5 0,-67.5"/>
<text text-anchor="middle" x="28" y="-74.5" font-family="Helvetica,sans-Serif" font-size="10.00">UnitTest</text>
</a>
</g>
</g>
<!-- Node2&#45;&gt;Node1 -->
<g id="edge1" class="edge">
<title>Node2&#45;&gt;Node1</title>
<path fill="none" stroke="midnightblue" d="M39.02,-58.53C46.95,-45.95 57.33,-29.51 63.56,-19.63"/>
<polygon fill="midnightblue" stroke="midnightblue" points="35.9,-56.91 33.53,-67.23 41.82,-60.64 35.9,-56.91"/>
</g>
<!-- Node3 -->
<g id="node3" class="node">
<title>Node3</title>
<g id="a_node3"><a xlink:href="classALedDriver.html" target="_top" xlink:title="Interface abstraite du driver de LEDs.">
<polygon fill="white" stroke="black" points="74.5,-67.5 74.5,-86.5 145.5,-86.5 145.5,-67.5 74.5,-67.5"/>
<text text-anchor="middle" x="110" y="-74.5" font-family="Helvetica,sans-Serif" font-size="10.00">ALedDriver</text>
</a>
</g>
</g>
<!-- Node3&#45;&gt;Node1 -->
<g id="edge2" class="edge">
<title>Node3&#45;&gt;Node1</title>
<path fill="none" stroke="#9a32cd" stroke-dasharray="5,2" d="M98.98,-58.53C91.05,-45.95 80.67,-29.51 74.44,-19.63"/>
<polygon fill="#9a32cd" stroke="#9a32cd" points="96.18,-60.64 104.47,-67.23 102.1,-56.91 96.18,-60.64"/>
<text text-anchor="middle" x="114.5" y="-41" font-family="Helvetica,sans-Serif" font-size="10.00"> leddriver</text>
</g>
</g>
</svg>
