<?xml version="1.0" encoding="UTF-8" standalone="no"?>
<!DOCTYPE svg PUBLIC "-//W3C//DTD SVG 1.1//EN"
 "http://www.w3.org/Graphics/SVG/1.1/DTD/svg11.dtd">
<!-- Generated by graphviz version 2.43.0 (0)
 -->
<!-- Title: ServoObjectsSystem::release Pages: 1 -->
<!--zoomable 502 -->
<svg id="main" version="1.1" xmlns="http://www.w3.org/2000/svg" xmlns:xlink="http://www.w3.org/1999/xlink" xml:space="preserve" onload="init(evt)">
<style type="text/css"><![CDATA[
.edge:hover path { stroke: red; }
.edge:hover polygon { stroke: red; fill: red; }
]]></style>
<script type="text/javascript"><![CDATA[
var edges = document.getElementsByTagName('g');
if (edges && edges.length) {
  for (var i=0;i<edges.length;i++) {
    if (edges[i].id.substr(0,4)=='edge') {
      edges[i].setAttribute('class','edge');
    }
  }
}
]]></script>
        <defs>
                <circle id="rim" cx="0" cy="0" r="7"/>
                <circle id="rim2" cx="0" cy="0" r="3.5"/>
                <g id="zoomPlus">
                        <use xlink:href="#rim" fill="#404040">
                                <set attributeName="fill" to="#808080" begin="zoomplus.mouseover" end="zoomplus.mouseout"/>
                        </use>
                        <path d="M-4,0h8M0,-4v8" fill="none" stroke="white" stroke-width="1.5" pointer-events="none"/>
                </g>
                <g id="zoomMin">
                        <use xlink:href="#rim" fill="#404040">
                                <set attributeName="fill" to="#808080" begin="zoomminus.mouseover" end="zoomminus.mouseout"/>
                        </use>
                        <path d="M-4,0h8" fill="none" stroke="white" stroke-width="1.5" pointer-events="none"/>
                </g>
                <g id="dirArrow">
                        <path fill="none" stroke="white" stroke-width="1.5" d="M0,-3.0v7 M-2.5,-0.5L0,-3.0L2.5,-0.5"/>
                </g>
               <g id="resetDef">
                       <use xlink:href="#rim2" fill="#404040">
                               <set attributeName="fill" to="#808080" begin="reset.mouseover" end="reset.mouseout"/>
                       </use>
               </g>
        </defs>

<script type="text/javascript">
var viewWidth = 1021;
var viewHeight = 502;
var sectionId = 'dynsection-27';
</script>
<script xlink:href="svgpan.js"/>
<svg id="graph" class="graph">
<g id="viewport">
<title>ServoObjectsSystem::release</title>
<polygon fill="white" stroke="transparent" points="-4,4 -4,-498 1017,-498 1017,4 -4,4"/>
<!-- Node1 -->
<g id="node1" class="node">
<title>Node1</title>
<g id="a_node1"><a xlink:title="Relâche le couple d&#39;un servo (désactive le maintien).">
<polygon fill="#bfbfbf" stroke="black" points="895,-169.5 895,-199.5 1013,-199.5 1013,-169.5 895,-169.5"/>
<text text-anchor="start" x="903" y="-187.5" font-family="Helvetica,sans-Serif" font-size="10.00">ServoObjectsSystem</text>
<text text-anchor="middle" x="954" y="-176.5" font-family="Helvetica,sans-Serif" font-size="10.00">::release</text>
</a>
</g>
</g>
<!-- Node2 -->
<g id="node2" class="node">
<title>Node2</title>
<g id="a_node2"><a xlink:href="classServoObjectsSystem.html#a6df7e1694087d2fa67d41aeef363b3f3" target="_top" xlink:title="Déploie un servo à la position donnée.">
<polygon fill="white" stroke="black" points="725.5,-316.5 725.5,-346.5 843.5,-346.5 843.5,-316.5 725.5,-316.5"/>
<text text-anchor="start" x="733.5" y="-334.5" font-family="Helvetica,sans-Serif" font-size="10.00">ServoObjectsSystem</text>
<text text-anchor="middle" x="784.5" y="-323.5" font-family="Helvetica,sans-Serif" font-size="10.00">::deploy</text>
</a>
</g>
</g>
<!-- Node1&#45;&gt;Node2 -->
<g id="edge1" class="edge">
<title>Node1&#45;&gt;Node2</title>
<path fill="none" stroke="midnightblue" d="M940.42,-208.77C924.86,-236.48 895.87,-281.35 859,-307.5 854.18,-310.92 848.85,-313.87 843.32,-316.41"/>
<polygon fill="midnightblue" stroke="midnightblue" points="943.63,-210.19 945.35,-199.74 937.48,-206.83 943.63,-210.19"/>
</g>
<!-- Node3 -->
<g id="node3" class="node">
<title>Node3</title>
<g id="a_node3"><a xlink:href="classServoObjectsSystem.html#a365a1064fe865a6e081294ed124861bb" target="_top" xlink:title="Déploie un servo avec une vitesse contrôlée.">
<polygon fill="white" stroke="black" points="725.5,-267.5 725.5,-297.5 843.5,-297.5 843.5,-267.5 725.5,-267.5"/>
<text text-anchor="start" x="733.5" y="-285.5" font-family="Helvetica,sans-Serif" font-size="10.00">ServoObjectsSystem</text>
<text text-anchor="middle" x="784.5" y="-274.5" font-family="Helvetica,sans-Serif" font-size="10.00">::deployWithVelocity</text>
</a>
</g>
</g>
<!-- Node1&#45;&gt;Node3 -->
<g id="edge2" class="edge">
<title>Node1&#45;&gt;Node3</title>
<path fill="none" stroke="midnightblue" d="M929.56,-206.81C911.48,-223.02 885.2,-244.48 859,-258.5 852.73,-261.86 845.9,-264.85 839.02,-267.49"/>
<polygon fill="midnightblue" stroke="midnightblue" points="932.24,-209.1 937.27,-199.78 927.52,-203.93 932.24,-209.1"/>
</g>
<!-- Node4 -->
<g id="node4" class="node">
<title>Node4</title>
<g id="a_node4"><a xlink:href="classServoObjectsSystem.html#a60de17986f65700a7659b22edda2faef" target="_top" xlink:title="move 1 servo.">
<polygon fill="white" stroke="black" points="725.5,-218.5 725.5,-248.5 843.5,-248.5 843.5,-218.5 725.5,-218.5"/>
<text text-anchor="start" x="733.5" y="-236.5" font-family="Helvetica,sans-Serif" font-size="10.00">ServoObjectsSystem</text>
<text text-anchor="middle" x="784.5" y="-225.5" font-family="Helvetica,sans-Serif" font-size="10.00">::move_1_servo</text>
</a>
</g>
</g>
<!-- Node1&#45;&gt;Node4 -->
<g id="edge3" class="edge">
<title>Node1&#45;&gt;Node4</title>
<path fill="none" stroke="midnightblue" d="M891.58,-202.47C873.64,-207.72 854.21,-213.4 836.95,-218.45"/>
<polygon fill="midnightblue" stroke="midnightblue" points="892.76,-205.77 901.38,-199.6 890.8,-199.05 892.76,-205.77"/>
</g>
<!-- Node17 -->
<g id="node17" class="node">
<title>Node17</title>
<g id="a_node17"><a xlink:href="classServoObjectsSystem.html#a209d4e6a24c8cd26c76168c08e330655" target="_top" xlink:title="move 2 servos.">
<polygon fill="white" stroke="black" points="725.5,-169.5 725.5,-199.5 843.5,-199.5 843.5,-169.5 725.5,-169.5"/>
<text text-anchor="start" x="733.5" y="-187.5" font-family="Helvetica,sans-Serif" font-size="10.00">ServoObjectsSystem</text>
<text text-anchor="middle" x="784.5" y="-176.5" font-family="Helvetica,sans-Serif" font-size="10.00">::move_2_servos</text>
</a>
</g>
</g>
<!-- Node1&#45;&gt;Node17 -->
<g id="edge21" class="edge">
<title>Node1&#45;&gt;Node17</title>
<path fill="none" stroke="midnightblue" d="M884.59,-184.5C870.96,-184.5 856.76,-184.5 843.51,-184.5"/>
<polygon fill="midnightblue" stroke="midnightblue" points="884.89,-188 894.89,-184.5 884.89,-181 884.89,-188"/>
</g>
<!-- Node18 -->
<g id="node18" class="node">
<title>Node18</title>
<g id="a_node18"><a xlink:href="classServoObjectsSystem.html#a8d96f5f8ccdfb9ca69a73e523f388191" target="_top" xlink:title="Déplace 3 servos simultanément.">
<polygon fill="white" stroke="black" points="725.5,-120.5 725.5,-150.5 843.5,-150.5 843.5,-120.5 725.5,-120.5"/>
<text text-anchor="start" x="733.5" y="-138.5" font-family="Helvetica,sans-Serif" font-size="10.00">ServoObjectsSystem</text>
<text text-anchor="middle" x="784.5" y="-127.5" font-family="Helvetica,sans-Serif" font-size="10.00">::move_3_servos</text>
</a>
</g>
</g>
<!-- Node1&#45;&gt;Node18 -->
<g id="edge25" class="edge">
<title>Node1&#45;&gt;Node18</title>
<path fill="none" stroke="midnightblue" d="M891.58,-166.53C873.64,-161.28 854.21,-155.6 836.95,-150.55"/>
<polygon fill="midnightblue" stroke="midnightblue" points="890.8,-169.95 901.38,-169.4 892.76,-163.23 890.8,-169.95"/>
</g>
<!-- Node19 -->
<g id="node19" class="node">
<title>Node19</title>
<g id="a_node19"><a xlink:href="classServoObjectsSystem.html#a885ad7b498315c66de65dae7149b3ea1" target="_top" xlink:title="Déplace 4 servos simultanément.">
<polygon fill="white" stroke="black" points="725.5,-71.5 725.5,-101.5 843.5,-101.5 843.5,-71.5 725.5,-71.5"/>
<text text-anchor="start" x="733.5" y="-89.5" font-family="Helvetica,sans-Serif" font-size="10.00">ServoObjectsSystem</text>
<text text-anchor="middle" x="784.5" y="-78.5" font-family="Helvetica,sans-Serif" font-size="10.00">::move_4_servos</text>
</a>
</g>
</g>
<!-- Node1&#45;&gt;Node19 -->
<g id="edge26" class="edge">
<title>Node1&#45;&gt;Node19</title>
<path fill="none" stroke="midnightblue" d="M929.13,-162.32C911.01,-146.42 884.87,-125.44 859,-111.5 852.12,-107.79 844.58,-104.48 837.04,-101.58"/>
<polygon fill="midnightblue" stroke="midnightblue" points="927.07,-165.17 936.86,-169.22 931.74,-159.95 927.07,-165.17"/>
</g>
<!-- Node20 -->
<g id="node20" class="node">
<title>Node20</title>
<g id="a_node20"><a xlink:href="classOPOS6UL__ActionsExtended.html#a0bc7d581ad9cbae899f7f244340a5429" target="_top" xlink:title="Relâche tous les servomoteurs AX12 (coupe le maintien en position).">
<polygon fill="white" stroke="black" points="710,-22.5 710,-52.5 859,-52.5 859,-22.5 710,-22.5"/>
<text text-anchor="start" x="718" y="-40.5" font-family="Helvetica,sans-Serif" font-size="10.00">OPOS6UL_ActionsExtended</text>
<text text-anchor="middle" x="784.5" y="-29.5" font-family="Helvetica,sans-Serif" font-size="10.00">::releaseAll</text>
</a>
</g>
</g>
<!-- Node1&#45;&gt;Node20 -->
<g id="edge27" class="edge">
<title>Node1&#45;&gt;Node20</title>
<path fill="none" stroke="midnightblue" d="M940.31,-160.51C924.66,-133.1 895.57,-88.67 859,-62.5 853.63,-58.66 847.62,-55.37 841.42,-52.56"/>
<polygon fill="midnightblue" stroke="midnightblue" points="937.36,-162.4 945.28,-169.44 943.48,-159 937.36,-162.4"/>
</g>
<!-- Node5 -->
<g id="node5" class="node">
<title>Node5</title>
<g id="a_node5"><a xlink:href="classOPOS6UL__ActionsExtended.html#a946560d21bc7c1a12be600b16e07c93a" target="_top" xlink:title="Déploie le bras droit en position d&#39;action.">
<polygon fill="white" stroke="black" points="525,-463.5 525,-493.5 674,-493.5 674,-463.5 525,-463.5"/>
<text text-anchor="start" x="533" y="-481.5" font-family="Helvetica,sans-Serif" font-size="10.00">OPOS6UL_ActionsExtended</text>
<text text-anchor="middle" x="599.5" y="-470.5" font-family="Helvetica,sans-Serif" font-size="10.00">::ax12_bras_droit</text>
</a>
</g>
</g>
<!-- Node4&#45;&gt;Node5 -->
<g id="edge4" class="edge">
<title>Node4&#45;&gt;Node5</title>
<path fill="none" stroke="midnightblue" d="M716.55,-252.23C714.18,-254.12 711.98,-256.2 710,-258.5 652.11,-325.53 732.29,-387.82 674,-454.5 671,-457.94 667.49,-460.88 663.68,-463.41"/>
<polygon fill="midnightblue" stroke="midnightblue" points="718.77,-254.95 725.16,-246.5 714.89,-249.12 718.77,-254.95"/>
</g>
<!-- Node9 -->
<g id="node9" class="node">
<title>Node9</title>
<g id="a_node9"><a xlink:href="classOPOS6UL__ActionsExtended.html#a67daef275b861004d118273c7e2564c2" target="_top" xlink:title="Place le bras droit en position initiale (replié).">
<polygon fill="white" stroke="black" points="525,-414.5 525,-444.5 674,-444.5 674,-414.5 525,-414.5"/>
<text text-anchor="start" x="533" y="-432.5" font-family="Helvetica,sans-Serif" font-size="10.00">OPOS6UL_ActionsExtended</text>
<text text-anchor="middle" x="599.5" y="-421.5" font-family="Helvetica,sans-Serif" font-size="10.00">::ax12_bras_droit_init</text>
</a>
</g>
</g>
<!-- Node4&#45;&gt;Node9 -->
<g id="edge9" class="edge">
<title>Node4&#45;&gt;Node9</title>
<path fill="none" stroke="midnightblue" d="M716.72,-252.37C714.3,-254.23 712.05,-256.26 710,-258.5 664.57,-308.1 719.74,-356.18 674,-405.5 670.81,-408.95 667.11,-411.9 663.11,-414.43"/>
<polygon fill="midnightblue" stroke="midnightblue" points="718.93,-255.11 725.44,-246.74 715.14,-249.23 718.93,-255.11"/>
</g>
<!-- Node10 -->
<g id="node10" class="node">
<title>Node10</title>
<g id="a_node10"><a xlink:href="classOPOS6UL__ActionsExtended.html#a5b32b355b6907dda48874f40dc9101eb" target="_top" xlink:title="Déploie le bras gauche en position d&#39;action.">
<polygon fill="white" stroke="black" points="525,-316.5 525,-346.5 674,-346.5 674,-316.5 525,-316.5"/>
<text text-anchor="start" x="533" y="-334.5" font-family="Helvetica,sans-Serif" font-size="10.00">OPOS6UL_ActionsExtended</text>
<text text-anchor="middle" x="599.5" y="-323.5" font-family="Helvetica,sans-Serif" font-size="10.00">::ax12_bras_gauche</text>
</a>
</g>
</g>
<!-- Node4&#45;&gt;Node10 -->
<g id="edge11" class="edge">
<title>Node4&#45;&gt;Node10</title>
<path fill="none" stroke="midnightblue" d="M717.98,-253.32C715.2,-254.93 712.53,-256.65 710,-258.5 688.2,-274.48 695.89,-291.66 674,-307.5 669.32,-310.88 664.14,-313.81 658.76,-316.33"/>
<polygon fill="midnightblue" stroke="midnightblue" points="719.83,-256.31 727.12,-248.62 716.62,-250.08 719.83,-256.31"/>
</g>
<!-- Node11 -->
<g id="node11" class="node">
<title>Node11</title>
<g id="a_node11"><a xlink:href="classOPOS6UL__ActionsExtended.html#ad3b7d5a26040d5780cc43a5a9ead9ad3" target="_top" xlink:title="Place le bras gauche en position initiale (replié).">
<polygon fill="white" stroke="black" points="525,-267.5 525,-297.5 674,-297.5 674,-267.5 525,-267.5"/>
<text text-anchor="start" x="533" y="-285.5" font-family="Helvetica,sans-Serif" font-size="10.00">OPOS6UL_ActionsExtended</text>
<text text-anchor="middle" x="599.5" y="-274.5" font-family="Helvetica,sans-Serif" font-size="10.00">::ax12_bras_gauche_init</text>
</a>
</g>
</g>
<!-- Node4&#45;&gt;Node11 -->
<g id="edge13" class="edge">
<title>Node4&#45;&gt;Node11</title>
<path fill="none" stroke="midnightblue" d="M717.21,-251.25C697.38,-256.56 675.83,-262.33 656.71,-267.45"/>
<polygon fill="midnightblue" stroke="midnightblue" points="718.35,-254.57 727.1,-248.6 716.54,-247.81 718.35,-254.57"/>
</g>
<!-- Node12 -->
<g id="node12" class="node">
<title>Node12</title>
<g id="a_node12"><a xlink:href="classOPOS6UL__ActionsExtended.html#a44856498aa3839098211785a1fe0b6a3" target="_top" xlink:title="Déploie la banderole (action de fin de match).">
<polygon fill="white" stroke="black" points="525,-365.5 525,-395.5 674,-395.5 674,-365.5 525,-365.5"/>
<text text-anchor="start" x="533" y="-383.5" font-family="Helvetica,sans-Serif" font-size="10.00">OPOS6UL_ActionsExtended</text>
<text text-anchor="middle" x="599.5" y="-372.5" font-family="Helvetica,sans-Serif" font-size="10.00">::ax12_GO_banderole</text>
</a>
</g>
</g>
<!-- Node4&#45;&gt;Node12 -->
<g id="edge15" class="edge">
<title>Node4&#45;&gt;Node12</title>
<path fill="none" stroke="midnightblue" d="M716.71,-252.89C714.33,-254.6 712.08,-256.47 710,-258.5 676.79,-290.91 707.4,-324.29 674,-356.5 670.42,-359.95 666.35,-362.9 661.99,-365.43"/>
<polygon fill="midnightblue" stroke="midnightblue" points="718.56,-255.86 725.22,-247.63 714.88,-249.91 718.56,-255.86"/>
</g>
<!-- Node13 -->
<g id="node13" class="node">
<title>Node13</title>
<g id="a_node13"><a xlink:href="classOPOS6UL__ActionsExtended.html#ae63e06f334f5095383387aa9ff68c8a3" target="_top" xlink:title="Initialise le servo de la banderole à la position repliée.">
<polygon fill="white" stroke="black" points="525,-218.5 525,-248.5 674,-248.5 674,-218.5 525,-218.5"/>
<text text-anchor="start" x="533" y="-236.5" font-family="Helvetica,sans-Serif" font-size="10.00">OPOS6UL_ActionsExtended</text>
<text text-anchor="middle" x="599.5" y="-225.5" font-family="Helvetica,sans-Serif" font-size="10.00">::ax12_init_banderole</text>
</a>
</g>
</g>
<!-- Node4&#45;&gt;Node13 -->
<g id="edge16" class="edge">
<title>Node4&#45;&gt;Node13</title>
<path fill="none" stroke="midnightblue" d="M715.28,-233.5C701.91,-233.5 687.83,-233.5 674.29,-233.5"/>
<polygon fill="midnightblue" stroke="midnightblue" points="715.35,-237 725.35,-233.5 715.35,-230 715.35,-237"/>
</g>
<!-- Node14 -->
<g id="node14" class="node">
<title>Node14</title>
<g id="a_node14"><a xlink:href="classOPOS6UL__ActionsExtended.html#a565acda2ce4cdd1be8263835465d0fdc" target="_top" xlink:title="Initialise le bras gauche (épaule, coude, poignet) à la position de repos.">
<polygon fill="white" stroke="black" points="525,-169.5 525,-199.5 674,-199.5 674,-169.5 525,-169.5"/>
<text text-anchor="start" x="533" y="-187.5" font-family="Helvetica,sans-Serif" font-size="10.00">OPOS6UL_ActionsExtended</text>
<text text-anchor="middle" x="599.5" y="-176.5" font-family="Helvetica,sans-Serif" font-size="10.00">::ax12_init_L</text>
</a>
</g>
</g>
<!-- Node4&#45;&gt;Node14 -->
<g id="edge18" class="edge">
<title>Node4&#45;&gt;Node14</title>
<path fill="none" stroke="midnightblue" d="M717.21,-215.75C697.38,-210.44 675.83,-204.67 656.71,-199.55"/>
<polygon fill="midnightblue" stroke="midnightblue" points="716.54,-219.19 727.1,-218.4 718.35,-212.43 716.54,-219.19"/>
</g>
<!-- Node15 -->
<g id="node15" class="node">
<title>Node15</title>
<g id="a_node15"><a xlink:href="classOPOS6UL__ActionsExtended.html#a50a3db095faaaf15ec9630d9abcfb5d4" target="_top" xlink:title="Initialise les deux bras (gauche et droit) à la position de repos.">
<polygon fill="white" stroke="black" points="525,-120.5 525,-150.5 674,-150.5 674,-120.5 525,-120.5"/>
<text text-anchor="start" x="533" y="-138.5" font-family="Helvetica,sans-Serif" font-size="10.00">OPOS6UL_ActionsExtended</text>
<text text-anchor="middle" x="599.5" y="-127.5" font-family="Helvetica,sans-Serif" font-size="10.00">::ax12_init_LR</text>
</a>
</g>
</g>
<!-- Node4&#45;&gt;Node15 -->
<g id="edge19" class="edge">
<title>Node4&#45;&gt;Node15</title>
<path fill="none" stroke="midnightblue" d="M715.93,-213.4C713.88,-212.17 711.9,-210.87 710,-209.5 688.11,-193.66 695.8,-176.48 674,-160.5 668.78,-156.68 662.94,-153.41 656.88,-150.62"/>
<polygon fill="midnightblue" stroke="midnightblue" points="714.76,-216.74 725.24,-218.33 718.04,-210.56 714.76,-216.74"/>
</g>
<!-- Node16 -->
<g id="node16" class="node">
<title>Node16</title>
<g id="a_node16"><a xlink:href="classOPOS6UL__ActionsExtended.html#a298422faffadf81c4350cd47464d3f0a" target="_top" xlink:title="Initialise le bras droit (épaule, coude, poignet) à la position de repos.">
<polygon fill="white" stroke="black" points="525,-71.5 525,-101.5 674,-101.5 674,-71.5 525,-71.5"/>
<text text-anchor="start" x="533" y="-89.5" font-family="Helvetica,sans-Serif" font-size="10.00">OPOS6UL_ActionsExtended</text>
<text text-anchor="middle" x="599.5" y="-78.5" font-family="Helvetica,sans-Serif" font-size="10.00">::ax12_init_R</text>
</a>
</g>
</g>
<!-- Node4&#45;&gt;Node16 -->
<g id="edge20" class="edge">
<title>Node4&#45;&gt;Node16</title>
<path fill="none" stroke="midnightblue" d="M716.24,-214.7C714.04,-213.1 711.94,-211.38 710,-209.5 676.6,-177.29 707.21,-143.91 674,-111.5 670.05,-107.64 665.47,-104.38 660.58,-101.61"/>
<polygon fill="midnightblue" stroke="midnightblue" points="714.88,-217.97 725.24,-220.2 718.53,-212 714.88,-217.97"/>
</g>
<!-- Node6 -->
<g id="node6" class="node">
<title>Node6</title>
<g id="a_node6"><a xlink:href="classOPOS6UL__ActionsExtended.html#af04e19802d90a78d82e67b10061521a2" target="_top" xlink:title="Initialise tous les servomoteurs AX12 à leur position de départ.">
<polygon fill="white" stroke="black" points="336.5,-316.5 336.5,-346.5 485.5,-346.5 485.5,-316.5 336.5,-316.5"/>
<text text-anchor="start" x="344.5" y="-334.5" font-family="Helvetica,sans-Serif" font-size="10.00">OPOS6UL_ActionsExtended</text>
<text text-anchor="middle" x="411" y="-323.5" font-family="Helvetica,sans-Serif" font-size="10.00">::ax12_init</text>
</a>
</g>
</g>
<!-- Node5&#45;&gt;Node6 -->
<g id="edge5" class="edge">
<title>Node5&#45;&gt;Node6</title>
<path fill="none" stroke="midnightblue" d="M533.04,-459.15C530.26,-457.7 527.57,-456.15 525,-454.5 479.15,-425 439.7,-372.5 421.98,-346.68"/>
<polygon fill="midnightblue" stroke="midnightblue" points="531.6,-462.34 542.13,-463.46 534.59,-456.01 531.6,-462.34"/>
</g>
<!-- Node7 -->
<g id="node7" class="node">
<title>Node7</title>
<g id="a_node7"><a xlink:href="classO__State__Init.html#abc19788b7457d1f819245dd28367fe91" target="_top" xlink:title="Exécute l&#39;état d&#39;initialisation.">
<polygon fill="white" stroke="black" points="0,-322 0,-341 120,-341 120,-322 0,-322"/>
<text text-anchor="middle" x="60" y="-329" font-family="Helvetica,sans-Serif" font-size="10.00">O_State_Init::execute</text>
</a>
</g>
</g>
<!-- Node6&#45;&gt;Node7 -->
<g id="edge6" class="edge">
<title>Node6&#45;&gt;Node7</title>
<path fill="none" stroke="midnightblue" d="M326.39,-331.5C262.72,-331.5 176.66,-331.5 120.03,-331.5"/>
<polygon fill="midnightblue" stroke="midnightblue" points="326.41,-335 336.41,-331.5 326.41,-328 326.41,-335"/>
</g>
<!-- Node8 -->
<g id="node8" class="node">
<title>Node8</title>
<g id="a_node8"><a xlink:href="classO__State__Init.html#a1980cd82dcb83e88d61f2e7e14dddfa0" target="_top" xlink:title=" ">
<polygon fill="white" stroke="black" points="169.5,-303 169.5,-322 283.5,-322 283.5,-303 169.5,-303"/>
<text text-anchor="middle" x="226.5" y="-310" font-family="Helvetica,sans-Serif" font-size="10.00">O_State_Init::setPos</text>
</a>
</g>
</g>
<!-- Node6&#45;&gt;Node8 -->
<g id="edge7" class="edge">
<title>Node6&#45;&gt;Node8</title>
<path fill="none" stroke="midnightblue" d="M326.31,-322.79C311.81,-321.28 297.05,-319.74 283.51,-318.33"/>
<polygon fill="midnightblue" stroke="midnightblue" points="325.99,-326.27 336.3,-323.83 326.71,-319.31 325.99,-326.27"/>
</g>
<!-- Node8&#45;&gt;Node7 -->
<g id="edge8" class="edge">
<title>Node8&#45;&gt;Node7</title>
<path fill="none" stroke="midnightblue" d="M159.17,-320.16C146.3,-321.65 132.89,-323.2 120.27,-324.65"/>
<polygon fill="midnightblue" stroke="midnightblue" points="159.82,-323.61 169.35,-318.99 159.01,-316.66 159.82,-323.61"/>
</g>
<!-- Node9&#45;&gt;Node6 -->
<g id="edge10" class="edge">
<title>Node9&#45;&gt;Node6</title>
<path fill="none" stroke="midnightblue" d="M536.86,-410.72C532.8,-409.07 528.81,-407.33 525,-405.5 490.12,-388.75 453.26,-362.85 431.46,-346.55"/>
<polygon fill="midnightblue" stroke="midnightblue" points="535.83,-414.08 546.42,-414.4 538.34,-407.54 535.83,-414.08"/>
</g>
<!-- Node10&#45;&gt;Node6 -->
<g id="edge12" class="edge">
<title>Node10&#45;&gt;Node6</title>
<path fill="none" stroke="midnightblue" d="M514.78,-331.5C505.11,-331.5 495.31,-331.5 485.79,-331.5"/>
<polygon fill="midnightblue" stroke="midnightblue" points="514.79,-335 524.79,-331.5 514.79,-328 514.79,-335"/>
</g>
<!-- Node11&#45;&gt;Node6 -->
<g id="edge14" class="edge">
<title>Node11&#45;&gt;Node6</title>
<path fill="none" stroke="midnightblue" d="M531.43,-300.12C511.02,-305.48 488.8,-311.32 469.12,-316.49"/>
<polygon fill="midnightblue" stroke="midnightblue" points="532.49,-303.46 541.28,-297.53 530.72,-296.69 532.49,-303.46"/>
</g>
<!-- Node13&#45;&gt;Node6 -->
<g id="edge17" class="edge">
<title>Node13&#45;&gt;Node6</title>
<path fill="none" stroke="midnightblue" d="M539.32,-252.19C534.42,-254.17 529.58,-256.28 525,-258.5 490.52,-275.19 453.84,-300.45 431.93,-316.46"/>
<polygon fill="midnightblue" stroke="midnightblue" points="540.73,-255.4 548.8,-248.54 538.21,-248.87 540.73,-255.4"/>
</g>
<!-- Node17&#45;&gt;Node14 -->
<g id="edge22" class="edge">
<title>Node17&#45;&gt;Node14</title>
<path fill="none" stroke="midnightblue" d="M715.28,-184.5C701.91,-184.5 687.83,-184.5 674.29,-184.5"/>
<polygon fill="midnightblue" stroke="midnightblue" points="715.35,-188 725.35,-184.5 715.35,-181 715.35,-188"/>
</g>
<!-- Node17&#45;&gt;Node15 -->
<g id="edge23" class="edge">
<title>Node17&#45;&gt;Node15</title>
<path fill="none" stroke="midnightblue" d="M717.21,-166.75C697.38,-161.44 675.83,-155.67 656.71,-150.55"/>
<polygon fill="midnightblue" stroke="midnightblue" points="716.54,-170.19 727.1,-169.4 718.35,-163.43 716.54,-170.19"/>
</g>
<!-- Node17&#45;&gt;Node16 -->
<g id="edge24" class="edge">
<title>Node17&#45;&gt;Node16</title>
<path fill="none" stroke="midnightblue" d="M715.93,-164.4C713.88,-163.17 711.9,-161.87 710,-160.5 688.11,-144.66 695.8,-127.48 674,-111.5 668.78,-107.68 662.94,-104.41 656.88,-101.62"/>
<polygon fill="midnightblue" stroke="midnightblue" points="714.76,-167.74 725.24,-169.33 718.04,-161.56 714.76,-167.74"/>
</g>
<!-- Node21 -->
<g id="node21" class="node">
<title>Node21</title>
<g id="a_node21"><a xlink:href="classO__State__WaitEndOfMatch.html#aa73613440b37c8dd42181e2e0265ae86" target="_top" xlink:title="Exécute l&#39;état d&#39;attente de fin de match.">
<polygon fill="white" stroke="black" points="156,-0.5 156,-30.5 297,-30.5 297,-0.5 156,-0.5"/>
<text text-anchor="start" x="164" y="-18.5" font-family="Helvetica,sans-Serif" font-size="10.00">O_State_WaitEndOfMatch</text>
<text text-anchor="middle" x="226.5" y="-7.5" font-family="Helvetica,sans-Serif" font-size="10.00">::execute</text>
</a>
</g>
</g>
<!-- Node20&#45;&gt;Node21 -->
<g id="edge28" class="edge">
<title>Node20&#45;&gt;Node21</title>
<path fill="none" stroke="midnightblue" d="M718.81,-20.21C704.18,-17 688.64,-14.15 674,-12.5 541.51,2.43 385.49,-4.05 297.38,-9.92"/>
<polygon fill="midnightblue" stroke="midnightblue" points="718.24,-23.67 728.77,-22.47 719.79,-16.84 718.24,-23.67"/>
</g>
<!-- Node22 -->
<g id="node22" class="node">
<title>Node22</title>
<g id="a_node22"><a xlink:href="classOPOS6UL__ActionsExtended.html#a87bb61d89759101cac844e7c399f2f61" target="_top" xlink:title="Arrête tous les périphériques supplémentaires (capteurs, LEDs, LCD) et relâche les servos.">
<polygon fill="white" stroke="black" points="525,-22.5 525,-52.5 674,-52.5 674,-22.5 525,-22.5"/>
<text text-anchor="start" x="533" y="-40.5" font-family="Helvetica,sans-Serif" font-size="10.00">OPOS6UL_ActionsExtended</text>
<text text-anchor="middle" x="599.5" y="-29.5" font-family="Helvetica,sans-Serif" font-size="10.00">::stopExtra</text>
</a>
</g>
</g>
<!-- Node20&#45;&gt;Node22 -->
<g id="edge29" class="edge">
<title>Node20&#45;&gt;Node22</title>
<path fill="none" stroke="midnightblue" d="M699.61,-37.5C691.16,-37.5 682.62,-37.5 674.29,-37.5"/>
<polygon fill="midnightblue" stroke="midnightblue" points="699.86,-41 709.86,-37.5 699.86,-34 699.86,-41"/>
</g>
<!-- Node23 -->
<g id="node23" class="node">
<title>Node23</title>
<g id="a_node23"><a xlink:href="classOPOS6UL__RobotExtended.html#ac8ac2be407a78cdd62261f72226162df" target="_top" xlink:title=" ">
<polygon fill="white" stroke="black" points="333,-71.5 333,-101.5 489,-101.5 489,-71.5 333,-71.5"/>
<text text-anchor="start" x="341" y="-89.5" font-family="Helvetica,sans-Serif" font-size="10.00">OPOS6UL_RobotExtended</text>
<text text-anchor="middle" x="411" y="-78.5" font-family="Helvetica,sans-Serif" font-size="10.00">::~OPOS6UL_RobotExtended</text>
</a>
</g>
</g>
<!-- Node22&#45;&gt;Node23 -->
<g id="edge30" class="edge">
<title>Node22&#45;&gt;Node23</title>
<path fill="none" stroke="midnightblue" d="M531.43,-55.12C511.02,-60.48 488.8,-66.32 469.12,-71.49"/>
<polygon fill="midnightblue" stroke="midnightblue" points="532.49,-58.46 541.28,-52.53 530.72,-51.69 532.49,-58.46"/>
</g>
<!-- Node24 -->
<g id="node24" class="node">
<title>Node24</title>
<g id="a_node24"><a xlink:href="classOPOS6UL__RobotExtended.html#a0a997f7fd88abac1efe0083fce633649" target="_top" xlink:title="Arrête toutes les actions supplémentaires (capteurs, LEDs, servos).">
<polygon fill="white" stroke="black" points="340,-22.5 340,-52.5 482,-52.5 482,-22.5 340,-22.5"/>
<text text-anchor="start" x="348" y="-40.5" font-family="Helvetica,sans-Serif" font-size="10.00">OPOS6UL_RobotExtended</text>
<text text-anchor="middle" x="411" y="-29.5" font-family="Helvetica,sans-Serif" font-size="10.00">::stopExtraActions</text>
</a>
</g>
</g>
<!-- Node22&#45;&gt;Node24 -->
<g id="edge31" class="edge">
<title>Node22&#45;&gt;Node24</title>
<path fill="none" stroke="midnightblue" d="M514.49,-37.5C503.68,-37.5 492.69,-37.5 482.13,-37.5"/>
<polygon fill="midnightblue" stroke="midnightblue" points="514.79,-41 524.79,-37.5 514.79,-34 514.79,-41"/>
</g>
<!-- Node24&#45;&gt;Node21 -->
<g id="edge32" class="edge">
<title>Node24&#45;&gt;Node21</title>
<path fill="none" stroke="midnightblue" d="M329.97,-27.85C319,-26.53 307.81,-25.18 297.05,-23.88"/>
<polygon fill="midnightblue" stroke="midnightblue" points="329.62,-31.34 339.96,-29.06 330.45,-24.39 329.62,-31.34"/>
</g>
</g>
</svg>
        <g id="navigator" transform="translate(0 0)" fill="#404254">
                <rect fill="#f2f5e9" fill-opacity="0.5" stroke="#606060" stroke-width=".5" x="0" y="0" width="60" height="60"/>
                <use id="zoomplus" xlink:href="#zoomPlus" x="17" y="9" onmousedown="handleZoom(evt,'in')"/>
                <use id="zoomminus" xlink:href="#zoomMin" x="42" y="9" onmousedown="handleZoom(evt,'out')"/>
                <use id="reset" xlink:href="#resetDef" x="30" y="36" onmousedown="handleReset()"/>
                <g id="arrowUp" xlink:href="#dirArrow" transform="translate(30 24)" onmousedown="handlePan(0,-1)">
                  <use xlink:href="#rim" fill="#404040">
                        <set attributeName="fill" to="#808080" begin="arrowUp.mouseover" end="arrowUp.mouseout"/>
                  </use>
                  <path fill="none" stroke="white" stroke-width="1.5" d="M0,-3.0v7 M-2.5,-0.5L0,-3.0L2.5,-0.5"/>
                </g>
                <g id="arrowRight" xlink:href="#dirArrow" transform="rotate(90) translate(36 -43)" onmousedown="handlePan(1,0)">
                  <use xlink:href="#rim" fill="#404040">
                        <set attributeName="fill" to="#808080" begin="arrowRight.mouseover" end="arrowRight.mouseout"/>
                  </use>
                  <path fill="none" stroke="white" stroke-width="1.5" d="M0,-3.0v7 M-2.5,-0.5L0,-3.0L2.5,-0.5"/>
                </g>
                <g id="arrowDown" xlink:href="#dirArrow" transform="rotate(180) translate(-30 -48)" onmousedown="handlePan(0,1)">
                  <use xlink:href="#rim" fill="#404040">
                        <set attributeName="fill" to="#808080" begin="arrowDown.mouseover" end="arrowDown.mouseout"/>
                  </use>
                  <path fill="none" stroke="white" stroke-width="1.5" d="M0,-3.0v7 M-2.5,-0.5L0,-3.0L2.5,-0.5"/>
                </g>
                <g id="arrowLeft" xlink:href="#dirArrow" transform="rotate(270) translate(-36 17)" onmousedown="handlePan(-1,0)">
                  <use xlink:href="#rim" fill="#404040">
                        <set attributeName="fill" to="#808080" begin="arrowLeft.mouseover" end="arrowLeft.mouseout"/>
                  </use>
                  <path fill="none" stroke="white" stroke-width="1.5" d="M0,-3.0v7 M-2.5,-0.5L0,-3.0L2.5,-0.5"/>
                </g>
        </g>
        <svg viewBox="0 0 15 15" width="100%" height="30px" preserveAspectRatio="xMaxYMin meet">
         <g id="arrow_out" transform="scale(0.3 0.3)">
          <a xlink:href="classServoObjectsSystem_aee9ba86b5c2d9cb07aff947f28812b83_icgraph_org.svg" target="_base">
           <rect id="button" ry="5" rx="5" y="6" x="6" height="38" width="38"
                fill="#f2f5e9" fill-opacity="0.5" stroke="#606060" stroke-width="1.0"/>
           <path id="arrow"
             d="M 11.500037,31.436501 C 11.940474,20.09759 22.043105,11.32322 32.158766,21.979434 L 37.068811,17.246167 C 37.068811,17.246167 37.088388,32 37.088388,32 L 22.160133,31.978069 C 22.160133,31.978069 26.997745,27.140456 26.997745,27.140456 C 18.528582,18.264221 13.291696,25.230495 11.500037,31.436501 z"
             style="fill:#404040;"/>
          </a>
         </g>
        </svg>
</svg>
