<?xml version="1.0" encoding="UTF-8" standalone="no"?>
<!DOCTYPE svg PUBLIC "-//W3C//DTD SVG 1.1//EN"
 "http://www.w3.org/Graphics/SVG/1.1/DTD/svg11.dtd">
<!-- Generated by graphviz version 2.43.0 (0)
 -->
<!-- Title: Asserv::eq_2nd_deg_getXY Pages: 1 -->
<svg width="660pt" height="241pt"
 viewBox="0.00 0.00 660.00 240.50" xmlns="http://www.w3.org/2000/svg" xmlns:xlink="http://www.w3.org/1999/xlink">
<g id="graph0" class="graph" transform="scale(1 1) rotate(0) translate(4 236.5)">
<title>Asserv::eq_2nd_deg_getXY</title>
<polygon fill="white" stroke="transparent" points="-4,4 -4,-236.5 656,-236.5 656,4 -4,4"/>
<!-- Node1 -->
<g id="node1" class="node">
<title>Node1</title>
<g id="a_node1"><a xlink:title=" ">
<polygon fill="#bfbfbf" stroke="black" points="0,-147.5 0,-177.5 113,-177.5 113,-147.5 0,-147.5"/>
<text text-anchor="start" x="8" y="-165.5" font-family="Helvetica,sans-Serif" font-size="10.00">Asserv::eq_2nd_deg</text>
<text text-anchor="middle" x="56.5" y="-154.5" font-family="Helvetica,sans-Serif" font-size="10.00">_getXY</text>
</a>
</g>
</g>
<!-- Node2 -->
<g id="node2" class="node">
<title>Node2</title>
<g id="a_node2"><a xlink:href="classlogs_1_1Logger.html#a7dffc8f610014ec59b63392da16140e4" target="_top" xlink:title="Trace un message de niveau DEBUG.">
<polygon fill="white" stroke="black" points="326,-213 326,-232 438,-232 438,-213 326,-213"/>
<text text-anchor="middle" x="382" y="-220" font-family="Helvetica,sans-Serif" font-size="10.00">logs::Logger::debug</text>
</a>
</g>
</g>
<!-- Node1&#45;&gt;Node2 -->
<g id="edge1" class="edge">
<title>Node1&#45;&gt;Node2</title>
<path fill="none" stroke="midnightblue" d="M84.64,-177.6C102.4,-186.73 126.41,-197.7 149,-203.5 204.06,-217.65 268.67,-221.98 315.7,-223.02"/>
<polygon fill="midnightblue" stroke="midnightblue" points="315.7,-226.52 325.76,-223.2 315.82,-219.52 315.7,-226.52"/>
</g>
<!-- Node4 -->
<g id="node4" class="node">
<title>Node4</title>
<g id="a_node4"><a xlink:href="namespacelogs.html#ac6f325c6cfe6189bc8e243daa184453b" target="_top" xlink:title="Cette méthode permet de finir les flux de construction par la notation.">
<polygon fill="white" stroke="black" points="175,-175 175,-194 236,-194 236,-175 175,-175"/>
<text text-anchor="middle" x="205.5" y="-182" font-family="Helvetica,sans-Serif" font-size="10.00">logs::end</text>
</a>
</g>
</g>
<!-- Node1&#45;&gt;Node4 -->
<g id="edge3" class="edge">
<title>Node1&#45;&gt;Node4</title>
<path fill="none" stroke="midnightblue" d="M113.07,-170.82C130.28,-173.39 148.88,-176.18 164.79,-178.56"/>
<polygon fill="midnightblue" stroke="midnightblue" points="164.4,-182.04 174.81,-180.06 165.44,-175.12 164.4,-182.04"/>
</g>
<!-- Node8 -->
<g id="node8" class="node">
<title>Node8</title>
<g id="a_node8"><a xlink:href="classAsserv.html#adb57afce5f18ec54425fcf5e8d54da75" target="_top" xlink:title=" ">
<polygon fill="white" stroke="black" points="149,-125.5 149,-155.5 262,-155.5 262,-125.5 149,-125.5"/>
<text text-anchor="start" x="157" y="-143.5" font-family="Helvetica,sans-Serif" font-size="10.00">Asserv::eq_2nd_deg</text>
<text text-anchor="middle" x="205.5" y="-132.5" font-family="Helvetica,sans-Serif" font-size="10.00">_getDelta</text>
</a>
</g>
</g>
<!-- Node1&#45;&gt;Node8 -->
<g id="edge8" class="edge">
<title>Node1&#45;&gt;Node8</title>
<path fill="none" stroke="midnightblue" d="M113.07,-154.18C121.49,-152.92 130.24,-151.61 138.84,-150.33"/>
<polygon fill="midnightblue" stroke="midnightblue" points="139.48,-153.77 148.85,-148.83 138.44,-146.85 139.48,-153.77"/>
</g>
<!-- Node9 -->
<g id="node9" class="node">
<title>Node9</title>
<g id="a_node9"><a xlink:href="classAsserv.html#a5857f21b4410828db5387367bb63a0df" target="_top" xlink:title="Return Logger linked to Asserv.">
<polygon fill="white" stroke="black" points="162.5,-71 162.5,-90 248.5,-90 248.5,-71 162.5,-71"/>
<text text-anchor="middle" x="205.5" y="-78" font-family="Helvetica,sans-Serif" font-size="10.00">Asserv::logger</text>
</a>
</g>
</g>
<!-- Node1&#45;&gt;Node9 -->
<g id="edge9" class="edge">
<title>Node1&#45;&gt;Node9</title>
<path fill="none" stroke="midnightblue" d="M84.46,-147.46C111.19,-132.55 151.85,-109.87 178.3,-95.11"/>
<polygon fill="midnightblue" stroke="midnightblue" points="180.33,-97.99 187.35,-90.06 176.92,-91.88 180.33,-97.99"/>
</g>
<!-- Node3 -->
<g id="node3" class="node">
<title>Node3</title>
<g id="a_node3"><a xlink:href="classlogs_1_1Logger.html#afa535aaf4891e02c4ff7f84d372b5b1b" target="_top" xlink:title="Méthode générique de trace d&#39;un message.">
<polygon fill="white" stroke="black" points="502,-213 502,-232 652,-232 652,-213 502,-213"/>
<text text-anchor="middle" x="577" y="-220" font-family="Helvetica,sans-Serif" font-size="10.00">logs::Logger::writeMessage</text>
</a>
</g>
</g>
<!-- Node2&#45;&gt;Node3 -->
<g id="edge2" class="edge">
<title>Node2&#45;&gt;Node3</title>
<path fill="none" stroke="midnightblue" d="M438.05,-222.5C454.78,-222.5 473.57,-222.5 491.76,-222.5"/>
<polygon fill="midnightblue" stroke="midnightblue" points="491.79,-226 501.79,-222.5 491.79,-219 491.79,-226"/>
</g>
<!-- Node5 -->
<g id="node5" class="node">
<title>Node5</title>
<g id="a_node5"><a xlink:href="classlogs_1_1Logger_1_1LoggerBuffer.html#a0e4fd77693fd899ec1b0670354f93a02" target="_top" xlink:title="Cette méthode valide le message en cours de construction et le transmet au Logger de référence.">
<polygon fill="white" stroke="black" points="298,-175 298,-194 466,-194 466,-175 298,-175"/>
<text text-anchor="middle" x="382" y="-182" font-family="Helvetica,sans-Serif" font-size="10.00">logs::Logger::LoggerBuffer::end</text>
</a>
</g>
</g>
<!-- Node4&#45;&gt;Node5 -->
<g id="edge4" class="edge">
<title>Node4&#45;&gt;Node5</title>
<path fill="none" stroke="midnightblue" d="M236.1,-184.5C250.61,-184.5 268.96,-184.5 287.69,-184.5"/>
<polygon fill="midnightblue" stroke="midnightblue" points="287.81,-188 297.81,-184.5 287.81,-181 287.81,-188"/>
</g>
<!-- Node5&#45;&gt;Node3 -->
<g id="edge7" class="edge">
<title>Node5&#45;&gt;Node3</title>
<path fill="none" stroke="midnightblue" d="M431.7,-194.09C457.86,-199.24 490.28,-205.62 517.77,-211.03"/>
<polygon fill="midnightblue" stroke="midnightblue" points="517.16,-214.48 527.65,-212.98 518.51,-207.61 517.16,-214.48"/>
</g>
<!-- Node6 -->
<g id="node6" class="node">
<title>Node6</title>
<g id="a_node6"><a xlink:href="classutils_1_1Mutex.html#aa584b418a5ef484f76b93e361a1d7e32" target="_top" xlink:title="Verrouille le mutex. Cette méthode doit être appelée avant d&#39;utiliser la ressource associée....">
<polygon fill="white" stroke="black" points="526.5,-175 526.5,-194 627.5,-194 627.5,-175 526.5,-175"/>
<text text-anchor="middle" x="577" y="-182" font-family="Helvetica,sans-Serif" font-size="10.00">utils::Mutex::lock</text>
</a>
</g>
</g>
<!-- Node5&#45;&gt;Node6 -->
<g id="edge5" class="edge">
<title>Node5&#45;&gt;Node6</title>
<path fill="none" stroke="midnightblue" d="M466.25,-184.5C483.07,-184.5 500.44,-184.5 516.26,-184.5"/>
<polygon fill="midnightblue" stroke="midnightblue" points="516.41,-188 526.41,-184.5 516.41,-181 516.41,-188"/>
</g>
<!-- Node7 -->
<g id="node7" class="node">
<title>Node7</title>
<g id="a_node7"><a xlink:href="classutils_1_1Mutex.html#a59b2079dc7f803d49f78ac9c04406cd3" target="_top" xlink:title="Déverrouille le mutex. Cette méthode doit être appelée après avoir utiliser la ressource associée.">
<polygon fill="white" stroke="black" points="520.5,-137 520.5,-156 633.5,-156 633.5,-137 520.5,-137"/>
<text text-anchor="middle" x="577" y="-144" font-family="Helvetica,sans-Serif" font-size="10.00">utils::Mutex::unlock</text>
</a>
</g>
</g>
<!-- Node5&#45;&gt;Node7 -->
<g id="edge6" class="edge">
<title>Node5&#45;&gt;Node7</title>
<path fill="none" stroke="midnightblue" d="M431.7,-174.91C457.86,-169.76 490.28,-163.38 517.77,-157.97"/>
<polygon fill="midnightblue" stroke="midnightblue" points="518.51,-161.39 527.65,-156.02 517.16,-154.52 518.51,-161.39"/>
</g>
<!-- Node10 -->
<g id="node10" class="node">
<title>Node10</title>
<g id="a_node10"><a xlink:href="classlogs_1_1LoggerFactory.html#a82585b5de73e471e06cafdccc3b3721e" target="_top" xlink:title="Cette méthode statique retourne un Logger en fonction de son nom.">
<polygon fill="white" stroke="black" points="326.5,-57.5 326.5,-87.5 437.5,-87.5 437.5,-57.5 326.5,-57.5"/>
<text text-anchor="start" x="334.5" y="-75.5" font-family="Helvetica,sans-Serif" font-size="10.00">logs::LoggerFactory</text>
<text text-anchor="middle" x="382" y="-64.5" font-family="Helvetica,sans-Serif" font-size="10.00">::logger</text>
</a>
</g>
</g>
<!-- Node9&#45;&gt;Node10 -->
<g id="edge10" class="edge">
<title>Node9&#45;&gt;Node10</title>
<path fill="none" stroke="midnightblue" d="M248.74,-78.56C268.95,-77.64 293.59,-76.51 316.1,-75.48"/>
<polygon fill="midnightblue" stroke="midnightblue" points="316.44,-78.96 326.27,-75.01 316.12,-71.97 316.44,-78.96"/>
</g>
<!-- Node11 -->
<g id="node11" class="node">
<title>Node11</title>
<g id="a_node11"><a xlink:href="classlogs_1_1LoggerFactory.html#ac89f19c0ffd71aa8cdc1c2d44c03809e" target="_top" xlink:title="Cette méthode ajoute un appender au système.">
<polygon fill="white" stroke="black" points="510,-99 510,-118 644,-118 644,-99 510,-99"/>
<text text-anchor="middle" x="577" y="-106" font-family="Helvetica,sans-Serif" font-size="10.00">logs::LoggerFactory::add</text>
</a>
</g>
</g>
<!-- Node10&#45;&gt;Node11 -->
<g id="edge11" class="edge">
<title>Node10&#45;&gt;Node11</title>
<path fill="none" stroke="midnightblue" d="M437.53,-82.67C461.63,-87.17 490.07,-92.47 514.89,-97.1"/>
<polygon fill="midnightblue" stroke="midnightblue" points="514.44,-100.58 524.92,-98.97 515.73,-93.7 514.44,-100.58"/>
</g>
<!-- Node12 -->
<g id="node12" class="node">
<title>Node12</title>
<g id="a_node12"><a xlink:href="classlogs_1_1LoggerFactory.html#a90478b91d7af2ef8841ded21e3521f69" target="_top" xlink:title="Cette méthode statique retourne l&#39;instance unique de la classe LoggerFactory.">
<polygon fill="white" stroke="black" points="521.5,-49.5 521.5,-79.5 632.5,-79.5 632.5,-49.5 521.5,-49.5"/>
<text text-anchor="start" x="529.5" y="-67.5" font-family="Helvetica,sans-Serif" font-size="10.00">logs::LoggerFactory</text>
<text text-anchor="middle" x="577" y="-56.5" font-family="Helvetica,sans-Serif" font-size="10.00">::instance</text>
</a>
</g>
</g>
<!-- Node10&#45;&gt;Node12 -->
<g id="edge12" class="edge">
<title>Node10&#45;&gt;Node12</title>
<path fill="none" stroke="midnightblue" d="M437.53,-70.24C460.45,-69.29 487.3,-68.18 511.22,-67.19"/>
<polygon fill="midnightblue" stroke="midnightblue" points="511.42,-70.68 521.27,-66.77 511.13,-63.69 511.42,-70.68"/>
</g>
<!-- Node13 -->
<g id="node13" class="node">
<title>Node13</title>
<g id="a_node13"><a xlink:href="classlogs_1_1LoggerFactory.html#a212aa623f4b6bee12cb39e8017dde670" target="_top" xlink:title="Cette méthode retourne le Logger principal qui définit le niveau de trace par défaut.">
<polygon fill="white" stroke="black" points="521.5,-0.5 521.5,-30.5 632.5,-30.5 632.5,-0.5 521.5,-0.5"/>
<text text-anchor="start" x="529.5" y="-18.5" font-family="Helvetica,sans-Serif" font-size="10.00">logs::LoggerFactory</text>
<text text-anchor="middle" x="577" y="-7.5" font-family="Helvetica,sans-Serif" font-size="10.00">::rootLogger</text>
</a>
</g>
</g>
<!-- Node10&#45;&gt;Node13 -->
<g id="edge13" class="edge">
<title>Node10&#45;&gt;Node13</title>
<path fill="none" stroke="midnightblue" d="M433.96,-57.45C458.92,-50.08 489.14,-41.15 515.29,-33.43"/>
<polygon fill="midnightblue" stroke="midnightblue" points="516.49,-36.73 525.09,-30.54 514.51,-30.01 516.49,-36.73"/>
</g>
</g>
</svg>
