<?xml version="1.0" encoding="UTF-8" standalone="no"?>
<!DOCTYPE svg PUBLIC "-//W3C//DTD SVG 1.1//EN"
 "http://www.w3.org/Graphics/SVG/1.1/DTD/svg11.dtd">
<!-- Generated by graphviz version 2.43.0 (0)
 -->
<!-- Title: AsservEsialR::resetEncoders Pages: 1 -->
<svg width="705pt" height="241pt"
 viewBox="0.00 0.00 705.00 240.50" xmlns="http://www.w3.org/2000/svg" xmlns:xlink="http://www.w3.org/1999/xlink">
<g id="graph0" class="graph" transform="scale(1 1) rotate(0) translate(4 236.5)">
<title>AsservEsialR::resetEncoders</title>
<polygon fill="white" stroke="transparent" points="-4,4 -4,-236.5 701,-236.5 701,4 -4,4"/>
<!-- Node1 -->
<g id="node1" class="node">
<title>Node1</title>
<g id="a_node1"><a xlink:title="Remet a zero tous les encodeurs.">
<polygon fill="#bfbfbf" stroke="black" points="0,-137 0,-156 155,-156 155,-137 0,-137"/>
<text text-anchor="middle" x="77.5" y="-144" font-family="Helvetica,sans-Serif" font-size="10.00">AsservEsialR::resetEncoders</text>
</a>
</g>
</g>
<!-- Node2 -->
<g id="node2" class="node">
<title>Node2</title>
<g id="a_node2"><a xlink:href="namespacelogs.html#ac6f325c6cfe6189bc8e243daa184453b" target="_top" xlink:title="Cette méthode permet de finir les flux de construction par la notation.">
<polygon fill="white" stroke="black" points="218.5,-175 218.5,-194 279.5,-194 279.5,-175 218.5,-175"/>
<text text-anchor="middle" x="249" y="-182" font-family="Helvetica,sans-Serif" font-size="10.00">logs::end</text>
</a>
</g>
</g>
<!-- Node1&#45;&gt;Node2 -->
<g id="edge1" class="edge">
<title>Node1&#45;&gt;Node2</title>
<path fill="none" stroke="midnightblue" d="M121.27,-156.09C148.03,-162.09 182.24,-169.76 208.38,-175.62"/>
<polygon fill="midnightblue" stroke="midnightblue" points="207.8,-179.07 218.32,-177.85 209.33,-172.24 207.8,-179.07"/>
</g>
<!-- Node7 -->
<g id="node7" class="node">
<title>Node7</title>
<g id="a_node7"><a xlink:href="classlogs_1_1Logger.html#a8b6a2019233bc44b3c3c86c653910831" target="_top" xlink:title="Trace un message de niveau ERROR.">
<polygon fill="white" stroke="black" points="374.5,-137 374.5,-156 479.5,-156 479.5,-137 374.5,-137"/>
<text text-anchor="middle" x="427" y="-144" font-family="Helvetica,sans-Serif" font-size="10.00">logs::Logger::error</text>
</a>
</g>
</g>
<!-- Node1&#45;&gt;Node7 -->
<g id="edge6" class="edge">
<title>Node1&#45;&gt;Node7</title>
<path fill="none" stroke="midnightblue" d="M155.19,-146.5C217.98,-146.5 305.66,-146.5 364.06,-146.5"/>
<polygon fill="midnightblue" stroke="midnightblue" points="364.25,-150 374.25,-146.5 364.25,-143 364.25,-150"/>
</g>
<!-- Node8 -->
<g id="node8" class="node">
<title>Node8</title>
<g id="a_node8"><a xlink:href="classAsservEsialR.html#a7d6428bb79534a27e2b8b2e1baae943b" target="_top" xlink:title="Retourne le Logger associe a la classe AsservEsialR.">
<polygon fill="white" stroke="black" points="191,-96 191,-115 307,-115 307,-96 191,-96"/>
<text text-anchor="middle" x="249" y="-103" font-family="Helvetica,sans-Serif" font-size="10.00">AsservEsialR::logger</text>
</a>
</g>
</g>
<!-- Node1&#45;&gt;Node8 -->
<g id="edge8" class="edge">
<title>Node1&#45;&gt;Node8</title>
<path fill="none" stroke="midnightblue" d="M117.81,-136.99C141.9,-131.16 172.94,-123.66 198.67,-117.43"/>
<polygon fill="midnightblue" stroke="midnightblue" points="199.71,-120.78 208.61,-115.03 198.06,-113.98 199.71,-120.78"/>
</g>
<!-- Node3 -->
<g id="node3" class="node">
<title>Node3</title>
<g id="a_node3"><a xlink:href="classlogs_1_1Logger_1_1LoggerBuffer.html#a0e4fd77693fd899ec1b0670354f93a02" target="_top" xlink:title="Cette méthode valide le message en cours de construction et le transmet au Logger de référence.">
<polygon fill="white" stroke="black" points="343,-175 343,-194 511,-194 511,-175 343,-175"/>
<text text-anchor="middle" x="427" y="-182" font-family="Helvetica,sans-Serif" font-size="10.00">logs::Logger::LoggerBuffer::end</text>
</a>
</g>
</g>
<!-- Node2&#45;&gt;Node3 -->
<g id="edge2" class="edge">
<title>Node2&#45;&gt;Node3</title>
<path fill="none" stroke="midnightblue" d="M279.86,-184.5C294.72,-184.5 313.59,-184.5 332.8,-184.5"/>
<polygon fill="midnightblue" stroke="midnightblue" points="332.85,-188 342.85,-184.5 332.85,-181 332.85,-188"/>
</g>
<!-- Node4 -->
<g id="node4" class="node">
<title>Node4</title>
<g id="a_node4"><a xlink:href="classutils_1_1Mutex.html#aa584b418a5ef484f76b93e361a1d7e32" target="_top" xlink:title="Verrouille le mutex. Cette méthode doit être appelée avant d&#39;utiliser la ressource associée....">
<polygon fill="white" stroke="black" points="571.5,-213 571.5,-232 672.5,-232 672.5,-213 571.5,-213"/>
<text text-anchor="middle" x="622" y="-220" font-family="Helvetica,sans-Serif" font-size="10.00">utils::Mutex::lock</text>
</a>
</g>
</g>
<!-- Node3&#45;&gt;Node4 -->
<g id="edge3" class="edge">
<title>Node3&#45;&gt;Node4</title>
<path fill="none" stroke="midnightblue" d="M476.7,-194.09C502.86,-199.24 535.28,-205.62 562.77,-211.03"/>
<polygon fill="midnightblue" stroke="midnightblue" points="562.16,-214.48 572.65,-212.98 563.51,-207.61 562.16,-214.48"/>
</g>
<!-- Node5 -->
<g id="node5" class="node">
<title>Node5</title>
<g id="a_node5"><a xlink:href="classutils_1_1Mutex.html#a59b2079dc7f803d49f78ac9c04406cd3" target="_top" xlink:title="Déverrouille le mutex. Cette méthode doit être appelée après avoir utiliser la ressource associée.">
<polygon fill="white" stroke="black" points="565.5,-175 565.5,-194 678.5,-194 678.5,-175 565.5,-175"/>
<text text-anchor="middle" x="622" y="-182" font-family="Helvetica,sans-Serif" font-size="10.00">utils::Mutex::unlock</text>
</a>
</g>
</g>
<!-- Node3&#45;&gt;Node5 -->
<g id="edge4" class="edge">
<title>Node3&#45;&gt;Node5</title>
<path fill="none" stroke="midnightblue" d="M511.25,-184.5C525.94,-184.5 541.06,-184.5 555.19,-184.5"/>
<polygon fill="midnightblue" stroke="midnightblue" points="555.29,-188 565.29,-184.5 555.29,-181 555.29,-188"/>
</g>
<!-- Node6 -->
<g id="node6" class="node">
<title>Node6</title>
<g id="a_node6"><a xlink:href="classlogs_1_1Logger.html#afa535aaf4891e02c4ff7f84d372b5b1b" target="_top" xlink:title="Méthode générique de trace d&#39;un message.">
<polygon fill="white" stroke="black" points="547,-137 547,-156 697,-156 697,-137 547,-137"/>
<text text-anchor="middle" x="622" y="-144" font-family="Helvetica,sans-Serif" font-size="10.00">logs::Logger::writeMessage</text>
</a>
</g>
</g>
<!-- Node3&#45;&gt;Node6 -->
<g id="edge5" class="edge">
<title>Node3&#45;&gt;Node6</title>
<path fill="none" stroke="midnightblue" d="M476.7,-174.91C502.86,-169.76 535.28,-163.38 562.77,-157.97"/>
<polygon fill="midnightblue" stroke="midnightblue" points="563.51,-161.39 572.65,-156.02 562.16,-154.52 563.51,-161.39"/>
</g>
<!-- Node7&#45;&gt;Node6 -->
<g id="edge7" class="edge">
<title>Node7&#45;&gt;Node6</title>
<path fill="none" stroke="midnightblue" d="M479.72,-146.5C497.22,-146.5 517.23,-146.5 536.59,-146.5"/>
<polygon fill="midnightblue" stroke="midnightblue" points="536.64,-150 546.64,-146.5 536.64,-143 536.64,-150"/>
</g>
<!-- Node9 -->
<g id="node9" class="node">
<title>Node9</title>
<g id="a_node9"><a xlink:href="classlogs_1_1LoggerFactory.html#a82585b5de73e471e06cafdccc3b3721e" target="_top" xlink:title="Cette méthode statique retourne un Logger en fonction de son nom.">
<polygon fill="white" stroke="black" points="371.5,-68.5 371.5,-98.5 482.5,-98.5 482.5,-68.5 371.5,-68.5"/>
<text text-anchor="start" x="379.5" y="-86.5" font-family="Helvetica,sans-Serif" font-size="10.00">logs::LoggerFactory</text>
<text text-anchor="middle" x="427" y="-75.5" font-family="Helvetica,sans-Serif" font-size="10.00">::logger</text>
</a>
</g>
</g>
<!-- Node8&#45;&gt;Node9 -->
<g id="edge9" class="edge">
<title>Node8&#45;&gt;Node9</title>
<path fill="none" stroke="midnightblue" d="M307.14,-98.36C324.34,-96.21 343.34,-93.83 361.01,-91.62"/>
<polygon fill="midnightblue" stroke="midnightblue" points="361.75,-95.06 371.24,-90.34 360.88,-88.11 361.75,-95.06"/>
</g>
<!-- Node10 -->
<g id="node10" class="node">
<title>Node10</title>
<g id="a_node10"><a xlink:href="classlogs_1_1LoggerFactory.html#ac89f19c0ffd71aa8cdc1c2d44c03809e" target="_top" xlink:title="Cette méthode ajoute un appender au système.">
<polygon fill="white" stroke="black" points="555,-99 555,-118 689,-118 689,-99 555,-99"/>
<text text-anchor="middle" x="622" y="-106" font-family="Helvetica,sans-Serif" font-size="10.00">logs::LoggerFactory::add</text>
</a>
</g>
</g>
<!-- Node9&#45;&gt;Node10 -->
<g id="edge10" class="edge">
<title>Node9&#45;&gt;Node10</title>
<path fill="none" stroke="midnightblue" d="M482.53,-90.56C501.88,-93.07 524.03,-95.94 544.85,-98.64"/>
<polygon fill="midnightblue" stroke="midnightblue" points="544.58,-102.13 554.95,-99.94 545.48,-95.19 544.58,-102.13"/>
</g>
<!-- Node11 -->
<g id="node11" class="node">
<title>Node11</title>
<g id="a_node11"><a xlink:href="classlogs_1_1LoggerFactory.html#a90478b91d7af2ef8841ded21e3521f69" target="_top" xlink:title="Cette méthode statique retourne l&#39;instance unique de la classe LoggerFactory.">
<polygon fill="white" stroke="black" points="566.5,-49.5 566.5,-79.5 677.5,-79.5 677.5,-49.5 566.5,-49.5"/>
<text text-anchor="start" x="574.5" y="-67.5" font-family="Helvetica,sans-Serif" font-size="10.00">logs::LoggerFactory</text>
<text text-anchor="middle" x="622" y="-56.5" font-family="Helvetica,sans-Serif" font-size="10.00">::instance</text>
</a>
</g>
</g>
<!-- Node9&#45;&gt;Node11 -->
<g id="edge11" class="edge">
<title>Node9&#45;&gt;Node11</title>
<path fill="none" stroke="midnightblue" d="M482.53,-78.13C505.45,-75.88 532.3,-73.23 556.22,-70.88"/>
<polygon fill="midnightblue" stroke="midnightblue" points="556.66,-74.35 566.27,-69.89 555.97,-67.38 556.66,-74.35"/>
</g>
<!-- Node12 -->
<g id="node12" class="node">
<title>Node12</title>
<g id="a_node12"><a xlink:href="classlogs_1_1LoggerFactory.html#a212aa623f4b6bee12cb39e8017dde670" target="_top" xlink:title="Cette méthode retourne le Logger principal qui définit le niveau de trace par défaut.">
<polygon fill="white" stroke="black" points="566.5,-0.5 566.5,-30.5 677.5,-30.5 677.5,-0.5 566.5,-0.5"/>
<text text-anchor="start" x="574.5" y="-18.5" font-family="Helvetica,sans-Serif" font-size="10.00">logs::LoggerFactory</text>
<text text-anchor="middle" x="622" y="-7.5" font-family="Helvetica,sans-Serif" font-size="10.00">::rootLogger</text>
</a>
</g>
</g>
<!-- Node9&#45;&gt;Node12 -->
<g id="edge12" class="edge">
<title>Node9&#45;&gt;Node12</title>
<path fill="none" stroke="midnightblue" d="M468.95,-68.46C491.87,-60.11 520.98,-49.6 547,-40.5 553.28,-38.31 559.87,-36.03 566.42,-33.8"/>
<polygon fill="midnightblue" stroke="midnightblue" points="567.61,-37.09 575.95,-30.55 565.35,-30.46 567.61,-37.09"/>
</g>
</g>
</svg>
