<?xml version="1.0" encoding="UTF-8" standalone="no"?>
<!DOCTYPE svg PUBLIC "-//W3C//DTD SVG 1.1//EN"
 "http://www.w3.org/Graphics/SVG/1.1/DTD/svg11.dtd">
<!-- Generated by graphviz version 2.43.0 (0)
 -->
<!-- Title: logs::ConsoleAppender::writeMessage Pages: 1 -->
<svg width="448pt" height="66pt"
 viewBox="0.00 0.00 448.00 66.00" xmlns="http://www.w3.org/2000/svg" xmlns:xlink="http://www.w3.org/1999/xlink">
<g id="graph0" class="graph" transform="scale(1 1) rotate(0) translate(4 62)">
<title>logs::ConsoleAppender::writeMessage</title>
<polygon fill="white" stroke="transparent" points="-4,4 -4,-62 444,-62 444,4 -4,4"/>
<!-- Node1 -->
<g id="node1" class="node">
<title>Node1</title>
<g id="a_node1"><a xlink:title="Méthode de trace d&#39;un message.">
<polygon fill="#bfbfbf" stroke="black" points="0,-14 0,-44 128,-44 128,-14 0,-14"/>
<text text-anchor="start" x="8" y="-32" font-family="Helvetica,sans-Serif" font-size="10.00">logs::ConsoleAppender</text>
<text text-anchor="middle" x="64" y="-21" font-family="Helvetica,sans-Serif" font-size="10.00">::writeMessage</text>
</a>
</g>
</g>
<!-- Node2 -->
<g id="node2" class="node">
<title>Node2</title>
<g id="a_node2"><a xlink:href="classlogs_1_1MemoryAppender.html#a478c866b07f63f1f89c347b4465834bc" target="_top" xlink:title="Méthode générique de trace d&#39;un message. Ajoute le nom du log devant chaque entrée.">
<polygon fill="white" stroke="black" points="164,-14 164,-44 294,-44 294,-14 164,-14"/>
<text text-anchor="start" x="172" y="-32" font-family="Helvetica,sans-Serif" font-size="10.00">logs::MemoryAppender</text>
<text text-anchor="middle" x="229" y="-21" font-family="Helvetica,sans-Serif" font-size="10.00">::writeMessage</text>
</a>
</g>
</g>
<!-- Node1&#45;&gt;Node2 -->
<g id="edge1" class="edge">
<title>Node1&#45;&gt;Node2</title>
<path fill="none" stroke="midnightblue" d="M128.02,-29C136.46,-29 145.17,-29 153.77,-29"/>
<polygon fill="midnightblue" stroke="midnightblue" points="153.8,-32.5 163.8,-29 153.8,-25.5 153.8,-32.5"/>
</g>
<!-- Node3 -->
<g id="node3" class="node">
<title>Node3</title>
<g id="a_node3"><a xlink:href="classlogs_1_1Level.html#a068733ab7f581994ab9e2e9359a4434d" target="_top" xlink:title="Cette méthode retourne le nom de ce niveau.">
<polygon fill="white" stroke="black" points="333.5,-38.5 333.5,-57.5 436.5,-57.5 436.5,-38.5 333.5,-38.5"/>
<text text-anchor="middle" x="385" y="-45.5" font-family="Helvetica,sans-Serif" font-size="10.00">logs::Level::name</text>
</a>
</g>
</g>
<!-- Node2&#45;&gt;Node3 -->
<g id="edge2" class="edge">
<title>Node2&#45;&gt;Node3</title>
<path fill="none" stroke="midnightblue" d="M294.42,-36.95C303.98,-38.13 313.81,-39.34 323.29,-40.51"/>
<polygon fill="midnightblue" stroke="midnightblue" points="323.07,-44.01 333.42,-41.76 323.93,-37.06 323.07,-44.01"/>
</g>
<!-- Node4 -->
<g id="node4" class="node">
<title>Node4</title>
<g id="a_node4"><a xlink:href="classlogs_1_1Logger.html#a6706ac94e219fd82c6049e376805202e" target="_top" xlink:title="Cette méthode retourne le nom associé au Logger.">
<polygon fill="white" stroke="black" points="330,-0.5 330,-19.5 440,-19.5 440,-0.5 330,-0.5"/>
<text text-anchor="middle" x="385" y="-7.5" font-family="Helvetica,sans-Serif" font-size="10.00">logs::Logger::name</text>
</a>
</g>
</g>
<!-- Node2&#45;&gt;Node4 -->
<g id="edge3" class="edge">
<title>Node2&#45;&gt;Node4</title>
<path fill="none" stroke="midnightblue" d="M294.42,-21.05C302.74,-20.03 311.26,-18.97 319.58,-17.95"/>
<polygon fill="midnightblue" stroke="midnightblue" points="320.11,-21.41 329.6,-16.71 319.25,-14.46 320.11,-21.41"/>
</g>
</g>
</svg>
