<?xml version="1.0" encoding="UTF-8" standalone="no"?>
<!DOCTYPE svg PUBLIC "-//W3C//DTD SVG 1.1//EN"
 "http://www.w3.org/Graphics/SVG/1.1/DTD/svg11.dtd">
<!-- Generated by graphviz version 2.43.0 (0)
 -->
<!-- Title: detail::other_error::create Pages: 1 -->
<svg width="554pt" height="110pt"
 viewBox="0.00 0.00 554.00 110.00" xmlns="http://www.w3.org/2000/svg" xmlns:xlink="http://www.w3.org/1999/xlink">
<g id="graph0" class="graph" transform="scale(1 1) rotate(0) translate(4 106)">
<title>detail::other_error::create</title>
<polygon fill="white" stroke="transparent" points="-4,4 -4,-106 550,-106 550,4 -4,4"/>
<!-- Node1 -->
<g id="node1" class="node">
<title>Node1</title>
<g id="a_node1"><a xlink:title=" ">
<polygon fill="#bfbfbf" stroke="black" points="0,-39 0,-69 104,-69 104,-39 0,-39"/>
<text text-anchor="start" x="8" y="-57" font-family="Helvetica,sans-Serif" font-size="10.00">detail::other_error</text>
<text text-anchor="middle" x="52" y="-46" font-family="Helvetica,sans-Serif" font-size="10.00">::create</text>
</a>
</g>
</g>
<!-- Node2 -->
<g id="node2" class="node">
<title>Node2</title>
<g id="a_node2"><a xlink:href="namespacedetail.html#a266fb3d4bf633ad6c506434cc91164da" target="_top" xlink:title=" ">
<polygon fill="white" stroke="black" points="308,-63.5 308,-82.5 391,-82.5 391,-63.5 308,-63.5"/>
<text text-anchor="middle" x="349.5" y="-70.5" font-family="Helvetica,sans-Serif" font-size="10.00">detail::concat</text>
</a>
</g>
</g>
<!-- Node1&#45;&gt;Node2 -->
<g id="edge1" class="edge">
<title>Node1&#45;&gt;Node2</title>
<path fill="none" stroke="midnightblue" d="M96.3,-69.02C110.09,-73.11 125.53,-76.96 140,-79 193.5,-86.53 255.46,-83.25 297.85,-79.2"/>
<polygon fill="midnightblue" stroke="midnightblue" points="298.32,-82.67 307.92,-78.18 297.62,-75.7 298.32,-82.67"/>
</g>
<!-- Node5 -->
<g id="node5" class="node">
<title>Node5</title>
<g id="a_node5"><a xlink:href="classdetail_1_1exception.html#a6b4a786b5c1c25dd3edaceb1bf2d5120" target="_top" xlink:title=" ">
<polygon fill="white" stroke="black" points="154,-39 154,-69 258,-69 258,-39 154,-39"/>
<text text-anchor="start" x="162" y="-57" font-family="Helvetica,sans-Serif" font-size="10.00">detail::exception::</text>
<text text-anchor="middle" x="206" y="-46" font-family="Helvetica,sans-Serif" font-size="10.00">diagnostics</text>
</a>
</g>
</g>
<!-- Node1&#45;&gt;Node5 -->
<g id="edge4" class="edge">
<title>Node1&#45;&gt;Node5</title>
<path fill="none" stroke="midnightblue" d="M104.04,-54C116.69,-54 130.39,-54 143.49,-54"/>
<polygon fill="midnightblue" stroke="midnightblue" points="143.84,-57.5 153.84,-54 143.84,-50.5 143.84,-57.5"/>
</g>
<!-- Node6 -->
<g id="node6" class="node">
<title>Node6</title>
<g id="a_node6"><a xlink:href="classdetail_1_1exception.html#a8f1eb56b9964c8dd84d89d0da98d883b" target="_top" xlink:title=" ">
<polygon fill="white" stroke="black" points="140,-0.5 140,-19.5 272,-19.5 272,-0.5 140,-0.5"/>
<text text-anchor="middle" x="206" y="-7.5" font-family="Helvetica,sans-Serif" font-size="10.00">detail::exception::name</text>
</a>
</g>
</g>
<!-- Node1&#45;&gt;Node6 -->
<g id="edge5" class="edge">
<title>Node1&#45;&gt;Node6</title>
<path fill="none" stroke="midnightblue" d="M104.04,-39.23C122.96,-33.75 144.2,-27.6 162.3,-22.36"/>
<polygon fill="midnightblue" stroke="midnightblue" points="163.37,-25.7 172,-19.55 161.42,-18.97 163.37,-25.7"/>
</g>
<!-- Node3 -->
<g id="node3" class="node">
<title>Node3</title>
<g id="a_node3"><a xlink:href="namespacedetail.html#a89f967b745cf8df11ba9d59f93d97753" target="_top" xlink:title=" ">
<polygon fill="white" stroke="black" points="433,-82.5 433,-101.5 540,-101.5 540,-82.5 433,-82.5"/>
<text text-anchor="middle" x="486.5" y="-89.5" font-family="Helvetica,sans-Serif" font-size="10.00">detail::concat_into</text>
</a>
</g>
</g>
<!-- Node2&#45;&gt;Node3 -->
<g id="edge2" class="edge">
<title>Node2&#45;&gt;Node3</title>
<path fill="none" stroke="midnightblue" d="M391,-78.7C400.89,-80.09 411.71,-81.61 422.37,-83.12"/>
<polygon fill="midnightblue" stroke="midnightblue" points="422.13,-86.62 432.52,-84.54 423.11,-79.68 422.13,-86.62"/>
</g>
<!-- Node4 -->
<g id="node4" class="node">
<title>Node4</title>
<g id="a_node4"><a xlink:href="namespacedetail.html#ac185140ed8c8fcc07a302a890b714b0d" target="_top" xlink:title=" ">
<polygon fill="white" stroke="black" points="427,-44.5 427,-63.5 546,-63.5 546,-44.5 427,-44.5"/>
<text text-anchor="middle" x="486.5" y="-51.5" font-family="Helvetica,sans-Serif" font-size="10.00">detail::concat_length</text>
</a>
</g>
</g>
<!-- Node2&#45;&gt;Node4 -->
<g id="edge3" class="edge">
<title>Node2&#45;&gt;Node4</title>
<path fill="none" stroke="midnightblue" d="M391,-67.3C399.04,-66.17 407.69,-64.95 416.38,-63.73"/>
<polygon fill="midnightblue" stroke="midnightblue" points="417.14,-67.16 426.56,-62.3 416.17,-60.22 417.14,-67.16"/>
</g>
<!-- Node6&#45;&gt;Node2 -->
<g id="edge6" class="edge">
<title>Node6&#45;&gt;Node2</title>
<path fill="none" stroke="midnightblue" d="M242.92,-19.55C252.51,-22.51 262.78,-26.04 272,-30 290.55,-37.96 310.39,-49.2 325.22,-58.19"/>
<polygon fill="midnightblue" stroke="midnightblue" points="323.4,-61.18 333.75,-63.45 327.07,-55.22 323.4,-61.18"/>
</g>
<!-- Node7 -->
<g id="node7" class="node">
<title>Node7</title>
<g id="a_node7"><a xlink:href="json__3_811_82_8hpp.html#a5b9ca6dc52cf4226c68d67f895b2a1d4" target="_top" xlink:title="user&#45;defined to_string function for JSON values">
<polygon fill="white" stroke="black" points="320,-0.5 320,-19.5 379,-19.5 379,-0.5 320,-0.5"/>
<text text-anchor="middle" x="349.5" y="-7.5" font-family="Helvetica,sans-Serif" font-size="10.00">to_string</text>
</a>
</g>
</g>
<!-- Node6&#45;&gt;Node7 -->
<g id="edge7" class="edge">
<title>Node6&#45;&gt;Node7</title>
<path fill="none" stroke="midnightblue" d="M272.37,-10C285.12,-10 298.1,-10 309.65,-10"/>
<polygon fill="midnightblue" stroke="midnightblue" points="309.81,-13.5 319.81,-10 309.81,-6.5 309.81,-13.5"/>
</g>
</g>
</svg>
