<?xml version="1.0" encoding="UTF-8" standalone="no"?>
<!DOCTYPE svg PUBLIC "-//W3C//DTD SVG 1.1//EN"
 "http://www.w3.org/Graphics/SVG/1.1/DTD/svg11.dtd">
<!-- Generated by graphviz version 2.43.0 (0)
 -->
<!-- Title: ITimerPosixListener::setPause Pages: 1 -->
<svg width="473pt" height="137pt"
 viewBox="0.00 0.00 473.00 137.00" xmlns="http://www.w3.org/2000/svg" xmlns:xlink="http://www.w3.org/1999/xlink">
<g id="graph0" class="graph" transform="scale(1 1) rotate(0) translate(4 133)">
<title>ITimerPosixListener::setPause</title>
<polygon fill="white" stroke="transparent" points="-4,4 -4,-133 469,-133 469,4 -4,4"/>
<!-- Node1 -->
<g id="node1" class="node">
<title>Node1</title>
<g id="a_node1"><a xlink:title=" ">
<polygon fill="#bfbfbf" stroke="black" points="352,-49.5 352,-79.5 465,-79.5 465,-49.5 352,-49.5"/>
<text text-anchor="start" x="360" y="-67.5" font-family="Helvetica,sans-Serif" font-size="10.00">ITimerPosixListener</text>
<text text-anchor="middle" x="408.5" y="-56.5" font-family="Helvetica,sans-Serif" font-size="10.00">::setPause</text>
</a>
</g>
</g>
<!-- Node2 -->
<g id="node2" class="node">
<title>Node2</title>
<g id="a_node2"><a xlink:href="classActionManagerTimer.html#ad14a24ea8609f916a5fb3e43c7f0e856" target="_top" xlink:title="Met en pause la boucle du manager d&#39;actions et de timer.">
<polygon fill="white" stroke="black" points="197,-49.5 197,-79.5 316,-79.5 316,-49.5 197,-49.5"/>
<text text-anchor="start" x="205" y="-67.5" font-family="Helvetica,sans-Serif" font-size="10.00">ActionManagerTimer</text>
<text text-anchor="middle" x="256.5" y="-56.5" font-family="Helvetica,sans-Serif" font-size="10.00">::pause</text>
</a>
</g>
</g>
<!-- Node1&#45;&gt;Node2 -->
<g id="edge1" class="edge">
<title>Node1&#45;&gt;Node2</title>
<path fill="none" stroke="midnightblue" d="M341.47,-64.5C333.04,-64.5 324.46,-64.5 316.16,-64.5"/>
<polygon fill="midnightblue" stroke="midnightblue" points="341.65,-68 351.65,-64.5 341.65,-61 341.65,-68"/>
</g>
<!-- Node3 -->
<g id="node3" class="node">
<title>Node3</title>
<g id="a_node3"><a xlink:href="classtest_1_1ActionManagerTimerManualTest.html#ab17146206c39eb6b1e72e752d5ed0689" target="_top" xlink:title=" ">
<polygon fill="white" stroke="black" points="9,-98.5 9,-128.5 152,-128.5 152,-98.5 9,-98.5"/>
<text text-anchor="start" x="17" y="-116.5" font-family="Helvetica,sans-Serif" font-size="10.00">test::ActionManagerTimer</text>
<text text-anchor="middle" x="80.5" y="-105.5" font-family="Helvetica,sans-Serif" font-size="10.00">ManualTest::testExecute</text>
</a>
</g>
</g>
<!-- Node2&#45;&gt;Node3 -->
<g id="edge2" class="edge">
<title>Node2&#45;&gt;Node3</title>
<path fill="none" stroke="midnightblue" d="M192.22,-82.32C173.43,-87.61 153.05,-93.35 134.95,-98.45"/>
<polygon fill="midnightblue" stroke="midnightblue" points="193.2,-85.68 201.87,-79.6 191.3,-78.94 193.2,-85.68"/>
</g>
<!-- Node4 -->
<g id="node4" class="node">
<title>Node4</title>
<g id="a_node4"><a xlink:href="classtest_1_1ActionManagerTimerManualTest.html#a855c2cedf0a1cc5a87266dc9bf97f39f" target="_top" xlink:title=" ">
<polygon fill="white" stroke="black" points="0,-49.5 0,-79.5 161,-79.5 161,-49.5 0,-49.5"/>
<text text-anchor="start" x="8" y="-67.5" font-family="Helvetica,sans-Serif" font-size="10.00">test::ActionManagerTimer</text>
<text text-anchor="middle" x="80.5" y="-56.5" font-family="Helvetica,sans-Serif" font-size="10.00">ManualTest::testExecutePosix</text>
</a>
</g>
</g>
<!-- Node2&#45;&gt;Node4 -->
<g id="edge3" class="edge">
<title>Node2&#45;&gt;Node4</title>
<path fill="none" stroke="midnightblue" d="M186.51,-64.5C178.14,-64.5 169.53,-64.5 161.02,-64.5"/>
<polygon fill="midnightblue" stroke="midnightblue" points="186.59,-68 196.59,-64.5 186.59,-61 186.59,-68"/>
</g>
<!-- Node5 -->
<g id="node5" class="node">
<title>Node5</title>
<g id="a_node5"><a xlink:href="classtest_1_1ActionManagerTimerTest.html#ade9c6271c876cdd3fe4b0ffd67c6448d" target="_top" xlink:title=" ">
<polygon fill="white" stroke="black" points="9,-0.5 9,-30.5 152,-30.5 152,-0.5 9,-0.5"/>
<text text-anchor="start" x="17" y="-18.5" font-family="Helvetica,sans-Serif" font-size="10.00">test::ActionManagerTimer</text>
<text text-anchor="middle" x="80.5" y="-7.5" font-family="Helvetica,sans-Serif" font-size="10.00">Test::testPauseResume</text>
</a>
</g>
</g>
<!-- Node2&#45;&gt;Node5 -->
<g id="edge4" class="edge">
<title>Node2&#45;&gt;Node5</title>
<path fill="none" stroke="midnightblue" d="M192.22,-46.68C173.43,-41.39 153.05,-35.65 134.95,-30.55"/>
<polygon fill="midnightblue" stroke="midnightblue" points="191.3,-50.06 201.87,-49.4 193.2,-43.32 191.3,-50.06"/>
</g>
</g>
</svg>
