<?xml version="1.0" encoding="UTF-8" standalone="no"?>
<!DOCTYPE svg PUBLIC "-//W3C//DTD SVG 1.1//EN"
 "http://www.w3.org/Graphics/SVG/1.1/DTD/svg11.dtd">
<!-- Generated by graphviz version 2.43.0 (0)
 -->
<!-- Title: ARobotPositionShared::convertPositionBeaconToRepereTable Pages: 1 -->
<svg width="348pt" height="78pt"
 viewBox="0.00 0.00 348.00 77.50" xmlns="http://www.w3.org/2000/svg" xmlns:xlink="http://www.w3.org/1999/xlink">
<g id="graph0" class="graph" transform="scale(1 1) rotate(0) translate(4 73.5)">
<title>ARobotPositionShared::convertPositionBeaconToRepereTable</title>
<polygon fill="white" stroke="transparent" points="-4,4 -4,-73.5 344,-73.5 344,4 -4,4"/>
<!-- Node1 -->
<g id="node1" class="node">
<title>Node1</title>
<g id="a_node1"><a xlink:title="Convertit une position balise (polaire relative) en coordonnees table.">
<polygon fill="#bfbfbf" stroke="black" points="0,-11.5 0,-52.5 179,-52.5 179,-11.5 0,-11.5"/>
<text text-anchor="start" x="8" y="-40.5" font-family="Helvetica,sans-Serif" font-size="10.00">ARobotPositionShared</text>
<text text-anchor="start" x="8" y="-29.5" font-family="Helvetica,sans-Serif" font-size="10.00">::convertPositionBeaconToRepere</text>
<text text-anchor="middle" x="89.5" y="-18.5" font-family="Helvetica,sans-Serif" font-size="10.00">Table</text>
</a>
</g>
</g>
<!-- Node2 -->
<g id="node2" class="node">
<title>Node2</title>
<g id="a_node2"><a xlink:href="classARobotPositionShared.html#a051d4c785a23df154911fa9f3840e195" target="_top" xlink:title="Lit la position courante du robot.">
<polygon fill="white" stroke="black" points="215,-39 215,-69 340,-69 340,-39 215,-39"/>
<text text-anchor="start" x="223" y="-57" font-family="Helvetica,sans-Serif" font-size="10.00">ARobotPositionShared</text>
<text text-anchor="middle" x="277.5" y="-46" font-family="Helvetica,sans-Serif" font-size="10.00">::getRobotPosition</text>
</a>
</g>
</g>
<!-- Node1&#45;&gt;Node2 -->
<g id="edge1" class="edge">
<title>Node1&#45;&gt;Node2</title>
<path fill="none" stroke="midnightblue" d="M179.14,-42.48C187.72,-43.5 196.35,-44.52 204.74,-45.51"/>
<polygon fill="midnightblue" stroke="midnightblue" points="204.49,-49.01 214.83,-46.71 205.31,-42.06 204.49,-49.01"/>
</g>
<!-- Node3 -->
<g id="node3" class="node">
<title>Node3</title>
<g id="a_node3"><a xlink:href="ARobotPositionShared_8hpp.html#a45bb7dfd2e7442f6250b8d202cc75c7f" target="_top" xlink:title="Normalise un angle dans l&#39;intervalle ]&#45;PI, PI].">
<polygon fill="white" stroke="black" points="235,-0.5 235,-19.5 320,-19.5 320,-0.5 235,-0.5"/>
<text text-anchor="middle" x="277.5" y="-7.5" font-family="Helvetica,sans-Serif" font-size="10.00">WrapAngle2PI</text>
</a>
</g>
</g>
<!-- Node1&#45;&gt;Node3 -->
<g id="edge2" class="edge">
<title>Node1&#45;&gt;Node3</title>
<path fill="none" stroke="midnightblue" d="M179.14,-21.52C194.8,-19.66 210.63,-17.79 224.84,-16.11"/>
<polygon fill="midnightblue" stroke="midnightblue" points="225.35,-19.57 234.87,-14.92 224.53,-12.62 225.35,-19.57"/>
</g>
</g>
</svg>
