<?xml version="1.0" encoding="UTF-8" standalone="no"?>
<!DOCTYPE svg PUBLIC "-//W3C//DTD SVG 1.1//EN"
 "http://www.w3.org/Graphics/SVG/1.1/DTD/svg11.dtd">
<!-- Generated by graphviz version 2.43.0 (0)
 -->
<!-- Title: Asserv::calculateDriftRightSideAndSetPos Pages: 1 -->
<!--zoomable 700 -->
<svg id="main" version="1.1" xmlns="http://www.w3.org/2000/svg" xmlns:xlink="http://www.w3.org/1999/xlink" xml:space="preserve" onload="init(evt)">
<style type="text/css"><![CDATA[
.edge:hover path { stroke: red; }
.edge:hover polygon { stroke: red; fill: red; }
]]></style>
<script type="text/javascript"><![CDATA[
var edges = document.getElementsByTagName('g');
if (edges && edges.length) {
  for (var i=0;i<edges.length;i++) {
    if (edges[i].id.substr(0,4)=='edge') {
      edges[i].setAttribute('class','edge');
    }
  }
}
]]></script>
        <defs>
                <circle id="rim" cx="0" cy="0" r="7"/>
                <circle id="rim2" cx="0" cy="0" r="3.5"/>
                <g id="zoomPlus">
                        <use xlink:href="#rim" fill="#404040">
                                <set attributeName="fill" to="#808080" begin="zoomplus.mouseover" end="zoomplus.mouseout"/>
                        </use>
                        <path d="M-4,0h8M0,-4v8" fill="none" stroke="white" stroke-width="1.5" pointer-events="none"/>
                </g>
                <g id="zoomMin">
                        <use xlink:href="#rim" fill="#404040">
                                <set attributeName="fill" to="#808080" begin="zoomminus.mouseover" end="zoomminus.mouseout"/>
                        </use>
                        <path d="M-4,0h8" fill="none" stroke="white" stroke-width="1.5" pointer-events="none"/>
                </g>
                <g id="dirArrow">
                        <path fill="none" stroke="white" stroke-width="1.5" d="M0,-3.0v7 M-2.5,-0.5L0,-3.0L2.5,-0.5"/>
                </g>
               <g id="resetDef">
                       <use xlink:href="#rim2" fill="#404040">
                               <set attributeName="fill" to="#808080" begin="reset.mouseover" end="reset.mouseout"/>
                       </use>
               </g>
        </defs>

<script type="text/javascript">
var viewWidth = 1348;
var viewHeight = 700;
var sectionId = 'dynsection-7';
</script>
<script xlink:href="svgpan.js"/>
<svg id="graph" class="graph">
<g id="viewport">
<title>Asserv::calculateDriftRightSideAndSetPos</title>
<polygon fill="white" stroke="transparent" points="-4,4 -4,-695.5 1344,-695.5 1344,4 -4,4"/>
<!-- Node1 -->
<g id="node1" class="node">
<title>Node1</title>
<g id="a_node1"><a xlink:title=" ">
<polygon fill="#bfbfbf" stroke="black" points="0,-331.5 0,-361.5 146,-361.5 146,-331.5 0,-331.5"/>
<text text-anchor="start" x="8" y="-349.5" font-family="Helvetica,sans-Serif" font-size="10.00">Asserv::calculateDriftRight</text>
<text text-anchor="middle" x="73" y="-338.5" font-family="Helvetica,sans-Serif" font-size="10.00">SideAndSetPos</text>
</a>
</g>
</g>
<!-- Node2 -->
<g id="node2" class="node">
<title>Node2</title>
<g id="a_node2"><a xlink:href="namespacelogs.html#ac6f325c6cfe6189bc8e243daa184453b" target="_top" xlink:title="Cette méthode permet de finir les flux de construction par la notation.">
<polygon fill="white" stroke="black" points="604,-444 604,-463 665,-463 665,-444 604,-444"/>
<text text-anchor="middle" x="634.5" y="-451" font-family="Helvetica,sans-Serif" font-size="10.00">logs::end</text>
</a>
</g>
</g>
<!-- Node1&#45;&gt;Node2 -->
<g id="edge1" class="edge">
<title>Node1&#45;&gt;Node2</title>
<path fill="none" stroke="midnightblue" d="M111.2,-361.55C163.53,-381.97 262.3,-417.83 350,-434.5 435.82,-450.81 538.57,-453.65 593.76,-453.85"/>
<polygon fill="midnightblue" stroke="midnightblue" points="593.81,-457.35 603.82,-453.85 593.82,-450.35 593.81,-457.35"/>
</g>
<!-- Node7 -->
<g id="node7" class="node">
<title>Node7</title>
<g id="a_node7"><a xlink:href="classlogs_1_1Logger.html#a8b6a2019233bc44b3c3c86c653910831" target="_top" xlink:title="Trace un message de niveau ERROR.">
<polygon fill="white" stroke="black" points="195.5,-187 195.5,-206 300.5,-206 300.5,-187 195.5,-187"/>
<text text-anchor="middle" x="248" y="-194" font-family="Helvetica,sans-Serif" font-size="10.00">logs::Logger::error</text>
</a>
</g>
</g>
<!-- Node1&#45;&gt;Node7 -->
<g id="edge6" class="edge">
<title>Node1&#45;&gt;Node7</title>
<path fill="none" stroke="midnightblue" d="M91.54,-331.29C124.33,-302.87 194.61,-241.92 228.28,-212.73"/>
<polygon fill="midnightblue" stroke="midnightblue" points="230.74,-215.23 236,-206.04 226.15,-209.94 230.74,-215.23"/>
</g>
<!-- Node8 -->
<g id="node8" class="node">
<title>Node8</title>
<g id="a_node8"><a xlink:href="classAsserv.html#a5857f21b4410828db5387367bb63a0df" target="_top" xlink:title="Return Logger linked to Asserv.">
<polygon fill="white" stroke="black" points="591.5,-61 591.5,-80 677.5,-80 677.5,-61 591.5,-61"/>
<text text-anchor="middle" x="634.5" y="-68" font-family="Helvetica,sans-Serif" font-size="10.00">Asserv::logger</text>
</a>
</g>
</g>
<!-- Node1&#45;&gt;Node8 -->
<g id="edge8" class="edge">
<title>Node1&#45;&gt;Node8</title>
<path fill="none" stroke="midnightblue" d="M80.21,-331.49C94.13,-299.44 130.65,-223.5 182,-177.5 295.82,-75.54 488.86,-65.93 581.22,-67.8"/>
<polygon fill="midnightblue" stroke="midnightblue" points="581.36,-71.3 591.44,-68.06 581.54,-64.3 581.36,-71.3"/>
</g>
<!-- Node13 -->
<g id="node13" class="node">
<title>Node13</title>
<g id="a_node13"><a xlink:href="classAsserv.html#a02914fbd6c3d2ee03c896cb7a9f86078" target="_top" xlink:title=" ">
<polygon fill="white" stroke="black" points="182,-337 182,-356 314,-356 314,-337 182,-337"/>
<text text-anchor="middle" x="248" y="-344" font-family="Helvetica,sans-Serif" font-size="10.00">Asserv::pos_getPosition</text>
</a>
</g>
</g>
<!-- Node1&#45;&gt;Node13 -->
<g id="edge13" class="edge">
<title>Node1&#45;&gt;Node13</title>
<path fill="none" stroke="midnightblue" d="M146.11,-346.5C154.55,-346.5 163.18,-346.5 171.66,-346.5"/>
<polygon fill="midnightblue" stroke="midnightblue" points="171.9,-350 181.9,-346.5 171.9,-343 171.9,-350"/>
</g>
<!-- Node26 -->
<g id="node26" class="node">
<title>Node26</title>
<g id="a_node26"><a xlink:href="classAsserv.html#a050645863c2a40f3116ee0847d1d3732" target="_top" xlink:title=" ">
<polygon fill="white" stroke="black" points="356,-501 356,-520 509,-520 509,-501 356,-501"/>
<text text-anchor="middle" x="432.5" y="-508" font-family="Helvetica,sans-Serif" font-size="10.00">Asserv::setPositionAndColor</text>
</a>
</g>
</g>
<!-- Node1&#45;&gt;Node26 -->
<g id="edge32" class="edge">
<title>Node1&#45;&gt;Node26</title>
<path fill="none" stroke="midnightblue" d="M82.76,-361.72C98.77,-388.04 135.46,-441.69 182,-467.5 231.9,-495.17 295.34,-505.84 345.76,-509.63"/>
<polygon fill="midnightblue" stroke="midnightblue" points="345.78,-513.14 355.99,-510.32 346.25,-506.15 345.78,-513.14"/>
</g>
<!-- Node3 -->
<g id="node3" class="node">
<title>Node3</title>
<g id="a_node3"><a xlink:href="classlogs_1_1Logger_1_1LoggerBuffer.html#a0e4fd77693fd899ec1b0670354f93a02" target="_top" xlink:title="Cette méthode valide le message en cours de construction et le transmet au Logger de référence.">
<polygon fill="white" stroke="black" points="754,-403 754,-422 922,-422 922,-403 754,-403"/>
<text text-anchor="middle" x="838" y="-410" font-family="Helvetica,sans-Serif" font-size="10.00">logs::Logger::LoggerBuffer::end</text>
</a>
</g>
</g>
<!-- Node2&#45;&gt;Node3 -->
<g id="edge2" class="edge">
<title>Node2&#45;&gt;Node3</title>
<path fill="none" stroke="midnightblue" d="M665.23,-447.45C695.25,-441.34 742.39,-431.75 779.69,-424.16"/>
<polygon fill="midnightblue" stroke="midnightblue" points="780.83,-427.5 789.93,-422.08 779.43,-420.64 780.83,-427.5"/>
</g>
<!-- Node4 -->
<g id="node4" class="node">
<title>Node4</title>
<g id="a_node4"><a xlink:href="classutils_1_1Mutex.html#aa584b418a5ef484f76b93e361a1d7e32" target="_top" xlink:title="Verrouille le mutex. Cette méthode doit être appelée avant d&#39;utiliser la ressource associée....">
<polygon fill="white" stroke="black" points="1001.5,-441 1001.5,-460 1102.5,-460 1102.5,-441 1001.5,-441"/>
<text text-anchor="middle" x="1052" y="-448" font-family="Helvetica,sans-Serif" font-size="10.00">utils::Mutex::lock</text>
</a>
</g>
</g>
<!-- Node3&#45;&gt;Node4 -->
<g id="edge3" class="edge">
<title>Node3&#45;&gt;Node4</title>
<path fill="none" stroke="midnightblue" d="M892.22,-422.04C922.44,-427.46 960.33,-434.25 991.52,-439.84"/>
<polygon fill="midnightblue" stroke="midnightblue" points="990.94,-443.29 1001.4,-441.61 992.17,-436.4 990.94,-443.29"/>
</g>
<!-- Node5 -->
<g id="node5" class="node">
<title>Node5</title>
<g id="a_node5"><a xlink:href="classutils_1_1Mutex.html#a59b2079dc7f803d49f78ac9c04406cd3" target="_top" xlink:title="Déverrouille le mutex. Cette méthode doit être appelée après avoir utiliser la ressource associée.">
<polygon fill="white" stroke="black" points="995.5,-403 995.5,-422 1108.5,-422 1108.5,-403 995.5,-403"/>
<text text-anchor="middle" x="1052" y="-410" font-family="Helvetica,sans-Serif" font-size="10.00">utils::Mutex::unlock</text>
</a>
</g>
</g>
<!-- Node3&#45;&gt;Node5 -->
<g id="edge4" class="edge">
<title>Node3&#45;&gt;Node5</title>
<path fill="none" stroke="midnightblue" d="M922.18,-412.5C943.12,-412.5 965.31,-412.5 985.26,-412.5"/>
<polygon fill="midnightblue" stroke="midnightblue" points="985.48,-416 995.48,-412.5 985.48,-409 985.48,-416"/>
</g>
<!-- Node6 -->
<g id="node6" class="node">
<title>Node6</title>
<g id="a_node6"><a xlink:href="classlogs_1_1Logger.html#afa535aaf4891e02c4ff7f84d372b5b1b" target="_top" xlink:title="Méthode générique de trace d&#39;un message.">
<polygon fill="white" stroke="black" points="977,-315 977,-334 1127,-334 1127,-315 977,-315"/>
<text text-anchor="middle" x="1052" y="-322" font-family="Helvetica,sans-Serif" font-size="10.00">logs::Logger::writeMessage</text>
</a>
</g>
</g>
<!-- Node3&#45;&gt;Node6 -->
<g id="edge5" class="edge">
<title>Node3&#45;&gt;Node6</title>
<path fill="none" stroke="midnightblue" d="M852.59,-402.86C874,-388.12 917.33,-360.06 958,-344.5 966.07,-341.41 974.72,-338.75 983.39,-336.47"/>
<polygon fill="midnightblue" stroke="midnightblue" points="984.28,-339.86 993.14,-334.06 982.59,-333.06 984.28,-339.86"/>
</g>
<!-- Node7&#45;&gt;Node6 -->
<g id="edge7" class="edge">
<title>Node7&#45;&gt;Node6</title>
<path fill="none" stroke="midnightblue" d="M271.32,-186.99C339.32,-159.34 549.56,-83.63 718,-127.5 851.37,-162.24 984.87,-267.84 1032.61,-308.4"/>
<polygon fill="midnightblue" stroke="midnightblue" points="1030.4,-311.11 1040.26,-314.97 1034.96,-305.8 1030.4,-311.11"/>
</g>
<!-- Node9 -->
<g id="node9" class="node">
<title>Node9</title>
<g id="a_node9"><a xlink:href="classlogs_1_1LoggerFactory.html#a82585b5de73e471e06cafdccc3b3721e" target="_top" xlink:title="Cette méthode statique retourne un Logger en fonction de son nom.">
<polygon fill="white" stroke="black" points="782.5,-49.5 782.5,-79.5 893.5,-79.5 893.5,-49.5 782.5,-49.5"/>
<text text-anchor="start" x="790.5" y="-67.5" font-family="Helvetica,sans-Serif" font-size="10.00">logs::LoggerFactory</text>
<text text-anchor="middle" x="838" y="-56.5" font-family="Helvetica,sans-Serif" font-size="10.00">::logger</text>
</a>
</g>
</g>
<!-- Node8&#45;&gt;Node9 -->
<g id="edge9" class="edge">
<title>Node8&#45;&gt;Node9</title>
<path fill="none" stroke="midnightblue" d="M677.74,-69.24C705.01,-68.43 741.03,-67.36 771.91,-66.44"/>
<polygon fill="midnightblue" stroke="midnightblue" points="772.28,-69.93 782.17,-66.13 772.07,-62.93 772.28,-69.93"/>
</g>
<!-- Node10 -->
<g id="node10" class="node">
<title>Node10</title>
<g id="a_node10"><a xlink:href="classlogs_1_1LoggerFactory.html#ac89f19c0ffd71aa8cdc1c2d44c03809e" target="_top" xlink:title="Cette méthode ajoute un appender au système.">
<polygon fill="white" stroke="black" points="985,-99 985,-118 1119,-118 1119,-99 985,-99"/>
<text text-anchor="middle" x="1052" y="-106" font-family="Helvetica,sans-Serif" font-size="10.00">logs::LoggerFactory::add</text>
</a>
</g>
</g>
<!-- Node9&#45;&gt;Node10 -->
<g id="edge10" class="edge">
<title>Node9&#45;&gt;Node10</title>
<path fill="none" stroke="midnightblue" d="M893.6,-75.83C924.81,-82.31 963.88,-90.42 995.28,-96.94"/>
<polygon fill="midnightblue" stroke="midnightblue" points="994.69,-100.39 1005.19,-98.99 996.11,-93.53 994.69,-100.39"/>
</g>
<!-- Node11 -->
<g id="node11" class="node">
<title>Node11</title>
<g id="a_node11"><a xlink:href="classlogs_1_1LoggerFactory.html#a90478b91d7af2ef8841ded21e3521f69" target="_top" xlink:title="Cette méthode statique retourne l&#39;instance unique de la classe LoggerFactory.">
<polygon fill="white" stroke="black" points="996.5,-49.5 996.5,-79.5 1107.5,-79.5 1107.5,-49.5 996.5,-49.5"/>
<text text-anchor="start" x="1004.5" y="-67.5" font-family="Helvetica,sans-Serif" font-size="10.00">logs::LoggerFactory</text>
<text text-anchor="middle" x="1052" y="-56.5" font-family="Helvetica,sans-Serif" font-size="10.00">::instance</text>
</a>
</g>
</g>
<!-- Node9&#45;&gt;Node11 -->
<g id="edge11" class="edge">
<title>Node9&#45;&gt;Node11</title>
<path fill="none" stroke="midnightblue" d="M893.6,-64.5C921.8,-64.5 956.41,-64.5 985.99,-64.5"/>
<polygon fill="midnightblue" stroke="midnightblue" points="986.22,-68 996.22,-64.5 986.22,-61 986.22,-68"/>
</g>
<!-- Node12 -->
<g id="node12" class="node">
<title>Node12</title>
<g id="a_node12"><a xlink:href="classlogs_1_1LoggerFactory.html#a212aa623f4b6bee12cb39e8017dde670" target="_top" xlink:title="Cette méthode retourne le Logger principal qui définit le niveau de trace par défaut.">
<polygon fill="white" stroke="black" points="996.5,-0.5 996.5,-30.5 1107.5,-30.5 1107.5,-0.5 996.5,-0.5"/>
<text text-anchor="start" x="1004.5" y="-18.5" font-family="Helvetica,sans-Serif" font-size="10.00">logs::LoggerFactory</text>
<text text-anchor="middle" x="1052" y="-7.5" font-family="Helvetica,sans-Serif" font-size="10.00">::rootLogger</text>
</a>
</g>
</g>
<!-- Node9&#45;&gt;Node12 -->
<g id="edge12" class="edge">
<title>Node9&#45;&gt;Node12</title>
<path fill="none" stroke="midnightblue" d="M893.6,-51.88C921.92,-45.33 956.71,-37.29 986.38,-30.44"/>
<polygon fill="midnightblue" stroke="midnightblue" points="987.27,-33.82 996.22,-28.16 985.69,-27 987.27,-33.82"/>
</g>
<!-- Node14 -->
<g id="node14" class="node">
<title>Node14</title>
<g id="a_node14"><a xlink:href="classAsservEsialR.html#a18064f0087aa1cd67cbdd131f99720db" target="_top" xlink:title="Lit la position courante du robot.">
<polygon fill="white" stroke="black" points="350,-269 350,-288 515,-288 515,-269 350,-269"/>
<text text-anchor="middle" x="432.5" y="-276" font-family="Helvetica,sans-Serif" font-size="10.00">AsservEsialR::odo_GetPosition</text>
</a>
</g>
</g>
<!-- Node13&#45;&gt;Node14 -->
<g id="edge14" class="edge">
<title>Node13&#45;&gt;Node14</title>
<path fill="none" stroke="midnightblue" d="M265.66,-336.99C285.28,-326.12 319.14,-308.43 350,-297.5 357.32,-294.91 365.13,-292.57 372.92,-290.49"/>
<polygon fill="midnightblue" stroke="midnightblue" points="373.89,-293.86 382.72,-288 372.17,-287.07 373.89,-293.86"/>
</g>
<!-- Node23 -->
<g id="node23" class="node">
<title>Node23</title>
<g id="a_node23"><a xlink:href="classAAsservDriver.html#a81dea0fa2d154d60d67e9e12b415b265" target="_top" xlink:title="Lit la position courante du robot.">
<polygon fill="white" stroke="black" points="377.5,-356.5 377.5,-386.5 487.5,-386.5 487.5,-356.5 377.5,-356.5"/>
<text text-anchor="start" x="385.5" y="-374.5" font-family="Helvetica,sans-Serif" font-size="10.00">AAsservDriver::odo</text>
<text text-anchor="middle" x="432.5" y="-363.5" font-family="Helvetica,sans-Serif" font-size="10.00">_GetPosition</text>
</a>
</g>
</g>
<!-- Node13&#45;&gt;Node23 -->
<g id="edge29" class="edge">
<title>Node13&#45;&gt;Node23</title>
<path fill="none" stroke="midnightblue" d="M314.11,-355.42C331.4,-357.79 350.05,-360.34 367.29,-362.7"/>
<polygon fill="midnightblue" stroke="midnightblue" points="366.87,-366.18 377.25,-364.07 367.82,-359.24 366.87,-366.18"/>
</g>
<!-- Node24 -->
<g id="node24" class="node">
<title>Node24</title>
<g id="a_node24"><a xlink:href="classARobotPositionShared.html#a42f840a7c37b33555643005112dc1875" target="_top" xlink:title="Met a jour la position du robot.">
<polygon fill="white" stroke="black" points="370,-307.5 370,-337.5 495,-337.5 495,-307.5 370,-307.5"/>
<text text-anchor="start" x="378" y="-325.5" font-family="Helvetica,sans-Serif" font-size="10.00">ARobotPositionShared</text>
<text text-anchor="middle" x="432.5" y="-314.5" font-family="Helvetica,sans-Serif" font-size="10.00">::setRobotPosition</text>
</a>
</g>
</g>
<!-- Node13&#45;&gt;Node24 -->
<g id="edge30" class="edge">
<title>Node13&#45;&gt;Node24</title>
<path fill="none" stroke="midnightblue" d="M314.11,-337.94C328.84,-336 344.55,-333.93 359.53,-331.96"/>
<polygon fill="midnightblue" stroke="midnightblue" points="360.31,-335.39 369.77,-330.62 359.4,-328.45 360.31,-335.39"/>
</g>
<!-- Node25 -->
<g id="node25" class="node">
<title>Node25</title>
<g id="a_node25"><a xlink:href="classRobot.html#a6a118c509a6d7ab35cdf96203eb0238a" target="_top" xlink:title=" ">
<polygon fill="white" stroke="black" points="371,-406 371,-425 494,-425 494,-406 371,-406"/>
<text text-anchor="middle" x="432.5" y="-413" font-family="Helvetica,sans-Serif" font-size="10.00">Robot::sharedPosition</text>
</a>
</g>
</g>
<!-- Node13&#45;&gt;Node25 -->
<g id="edge31" class="edge">
<title>Node13&#45;&gt;Node25</title>
<path fill="none" stroke="midnightblue" d="M265.28,-356.03C284.83,-367.12 318.88,-385.34 350,-396.5 357.13,-399.06 364.74,-401.36 372.33,-403.41"/>
<polygon fill="midnightblue" stroke="midnightblue" points="371.71,-406.86 382.27,-405.95 373.45,-400.08 371.71,-406.86"/>
</g>
<!-- Node14&#45;&gt;Node2 -->
<g id="edge17" class="edge">
<title>Node14&#45;&gt;Node2</title>
<path fill="none" stroke="midnightblue" d="M501.5,-288.04C506.43,-290.56 511.02,-293.67 515,-297.5 558.79,-339.69 508.36,-386.14 551,-429.5 562.22,-440.91 578.52,-446.97 593.67,-450.16"/>
<polygon fill="midnightblue" stroke="midnightblue" points="593.45,-453.68 603.9,-451.94 594.65,-446.78 593.45,-453.68"/>
</g>
<!-- Node14&#45;&gt;Node4 -->
<g id="edge25" class="edge">
<title>Node14&#45;&gt;Node4</title>
<path fill="none" stroke="midnightblue" d="M499.79,-288.04C505.28,-290.54 510.46,-293.65 515,-297.5 546.9,-324.58 519.07,-357.45 551,-384.5 616.25,-439.79 873.08,-449.13 991.1,-450.45"/>
<polygon fill="midnightblue" stroke="midnightblue" points="991.36,-453.95 1001.4,-450.55 991.43,-446.95 991.36,-453.95"/>
</g>
<!-- Node14&#45;&gt;Node5 -->
<g id="edge28" class="edge">
<title>Node14&#45;&gt;Node5</title>
<path fill="none" stroke="midnightblue" d="M497.09,-288.02C503.46,-290.5 509.57,-293.61 515,-297.5 539.65,-315.18 525.27,-339.42 551,-355.5 621.27,-399.43 839.76,-383.24 922,-393.5 942.56,-396.07 964.91,-399.23 985.14,-402.23"/>
<polygon fill="midnightblue" stroke="midnightblue" points="984.79,-405.71 995.2,-403.73 985.82,-398.79 984.79,-405.71"/>
</g>
<!-- Node15 -->
<g id="node15" class="node">
<title>Node15</title>
<g id="a_node15"><a xlink:href="classlogs_1_1Logger.html#a7dffc8f610014ec59b63392da16140e4" target="_top" xlink:title="Trace un message de niveau DEBUG.">
<polygon fill="white" stroke="black" points="578.5,-327 578.5,-346 690.5,-346 690.5,-327 578.5,-327"/>
<text text-anchor="middle" x="634.5" y="-334" font-family="Helvetica,sans-Serif" font-size="10.00">logs::Logger::debug</text>
</a>
</g>
</g>
<!-- Node14&#45;&gt;Node15 -->
<g id="edge15" class="edge">
<title>Node14&#45;&gt;Node15</title>
<path fill="none" stroke="midnightblue" d="M480.41,-288.04C491.83,-290.74 503.94,-293.93 515,-297.5 531.5,-302.82 534.65,-306.74 551,-312.5 562.76,-316.65 575.64,-320.64 587.65,-324.15"/>
<polygon fill="midnightblue" stroke="midnightblue" points="586.91,-327.58 597.49,-326.97 588.84,-320.85 586.91,-327.58"/>
</g>
<!-- Node16 -->
<g id="node16" class="node">
<title>Node16</title>
<g id="a_node16"><a xlink:href="classCommandManagerA.html#a3d4499244b1f7548c0889974a16b402b" target="_top" xlink:title=" ">
<polygon fill="white" stroke="black" points="958,-353.5 958,-383.5 1146,-383.5 1146,-353.5 958,-353.5"/>
<text text-anchor="start" x="966" y="-371.5" font-family="Helvetica,sans-Serif" font-size="10.00">CommandManagerA::getCommand</text>
<text text-anchor="middle" x="1052" y="-360.5" font-family="Helvetica,sans-Serif" font-size="10.00">Status</text>
</a>
</g>
</g>
<!-- Node14&#45;&gt;Node16 -->
<g id="edge18" class="edge">
<title>Node14&#45;&gt;Node16</title>
<path fill="none" stroke="midnightblue" d="M505.16,-288.01C562.71,-295.72 645.6,-306.99 718,-317.5 795.08,-328.68 882.07,-342.03 947.81,-352.27"/>
<polygon fill="midnightblue" stroke="midnightblue" points="947.34,-355.74 957.76,-353.82 948.42,-348.82 947.34,-355.74"/>
</g>
<!-- Node17 -->
<g id="node17" class="node">
<title>Node17</title>
<g id="a_node17"><a xlink:href="classOdometrie.html#abc6576337993c68f587df8ca4b3602f9" target="_top" xlink:title=" ">
<polygon fill="white" stroke="black" points="575.5,-175 575.5,-194 693.5,-194 693.5,-175 575.5,-175"/>
<text text-anchor="middle" x="634.5" y="-182" font-family="Helvetica,sans-Serif" font-size="10.00">Odometrie::getTheta</text>
</a>
</g>
</g>
<!-- Node14&#45;&gt;Node17 -->
<g id="edge19" class="edge">
<title>Node14&#45;&gt;Node17</title>
<path fill="none" stroke="midnightblue" d="M445.41,-268.91C465.81,-252.96 509.27,-221.01 551,-203.5 557.1,-200.94 563.61,-198.69 570.19,-196.73"/>
<polygon fill="midnightblue" stroke="midnightblue" points="571.14,-200.1 579.84,-194.05 569.27,-193.35 571.14,-200.1"/>
</g>
<!-- Node18 -->
<g id="node18" class="node">
<title>Node18</title>
<g id="a_node18"><a xlink:href="classOdometrie.html#a4e35405c76f7c939f143f2d07a969e23" target="_top" xlink:title=" ">
<polygon fill="white" stroke="black" points="576.5,-251 576.5,-270 692.5,-270 692.5,-251 576.5,-251"/>
<text text-anchor="middle" x="634.5" y="-258" font-family="Helvetica,sans-Serif" font-size="10.00">Odometrie::getXmm</text>
</a>
</g>
</g>
<!-- Node14&#45;&gt;Node18 -->
<g id="edge20" class="edge">
<title>Node14&#45;&gt;Node18</title>
<path fill="none" stroke="midnightblue" d="M515.14,-271.15C532.13,-269.62 549.86,-268.03 566.26,-266.55"/>
<polygon fill="midnightblue" stroke="midnightblue" points="566.64,-270.03 576.29,-265.65 566.02,-263.06 566.64,-270.03"/>
</g>
<!-- Node21 -->
<g id="node21" class="node">
<title>Node21</title>
<g id="a_node21"><a xlink:href="classOdometrie.html#a349119b93cb97e0ef586fbf78e43b823" target="_top" xlink:title=" ">
<polygon fill="white" stroke="black" points="576.5,-213 576.5,-232 692.5,-232 692.5,-213 576.5,-213"/>
<text text-anchor="middle" x="634.5" y="-220" font-family="Helvetica,sans-Serif" font-size="10.00">Odometrie::getYmm</text>
</a>
</g>
</g>
<!-- Node14&#45;&gt;Node21 -->
<g id="edge23" class="edge">
<title>Node14&#45;&gt;Node21</title>
<path fill="none" stroke="midnightblue" d="M461.81,-268.9C485.49,-261.03 520.25,-249.87 551,-241.5 560.16,-239.01 569.94,-236.56 579.46,-234.3"/>
<polygon fill="midnightblue" stroke="midnightblue" points="580.3,-237.7 589.24,-232.02 578.71,-230.88 580.3,-237.7"/>
</g>
<!-- Node22 -->
<g id="node22" class="node">
<title>Node22</title>
<g id="a_node22"><a xlink:href="classAsservEsialR.html#a7d6428bb79534a27e2b8b2e1baae943b" target="_top" xlink:title="Retourne le Logger associe a la classe AsservEsialR.">
<polygon fill="white" stroke="black" points="576.5,-137 576.5,-156 692.5,-156 692.5,-137 576.5,-137"/>
<text text-anchor="middle" x="634.5" y="-144" font-family="Helvetica,sans-Serif" font-size="10.00">AsservEsialR::logger</text>
</a>
</g>
</g>
<!-- Node14&#45;&gt;Node22 -->
<g id="edge26" class="edge">
<title>Node14&#45;&gt;Node22</title>
<path fill="none" stroke="midnightblue" d="M440.51,-268.84C457.07,-246.8 500.97,-192.58 551,-165.5 555.85,-162.88 561.04,-160.61 566.39,-158.66"/>
<polygon fill="midnightblue" stroke="midnightblue" points="567.7,-161.92 576.11,-155.48 565.52,-155.26 567.7,-161.92"/>
</g>
<!-- Node15&#45;&gt;Node6 -->
<g id="edge16" class="edge">
<title>Node15&#45;&gt;Node6</title>
<path fill="none" stroke="midnightblue" d="M690.68,-334.91C761.35,-332.87 884.52,-329.31 966.91,-326.93"/>
<polygon fill="midnightblue" stroke="midnightblue" points="967.1,-330.42 976.99,-326.64 966.9,-323.43 967.1,-330.42"/>
</g>
<!-- Node19 -->
<g id="node19" class="node">
<title>Node19</title>
<g id="a_node19"><a xlink:href="classUtils.html#a2609842761c1ddb62fa9e06f92ad9099" target="_top" xlink:title=" ">
<polygon fill="white" stroke="black" points="793,-251 793,-270 883,-270 883,-251 793,-251"/>
<text text-anchor="middle" x="838" y="-258" font-family="Helvetica,sans-Serif" font-size="10.00">Utils::UOTomm</text>
</a>
</g>
</g>
<!-- Node18&#45;&gt;Node19 -->
<g id="edge21" class="edge">
<title>Node18&#45;&gt;Node19</title>
<path fill="none" stroke="midnightblue" d="M692.7,-260.5C720.87,-260.5 754.66,-260.5 782.46,-260.5"/>
<polygon fill="midnightblue" stroke="midnightblue" points="782.79,-264 792.79,-260.5 782.79,-257 782.79,-264"/>
</g>
<!-- Node20 -->
<g id="node20" class="node">
<title>Node20</title>
<g id="a_node20"><a xlink:href="classOdometrie.html#a97f3023787b53a05f789770a56a791be" target="_top" xlink:title=" ">
<polygon fill="white" stroke="black" points="1182,-428 1182,-447 1340,-447 1340,-428 1182,-428"/>
<text text-anchor="middle" x="1261" y="-435" font-family="Helvetica,sans-Serif" font-size="10.00">Odometrie::getFrontParMetre</text>
</a>
</g>
</g>
<!-- Node19&#45;&gt;Node20 -->
<g id="edge22" class="edge">
<title>Node19&#45;&gt;Node20</title>
<path fill="none" stroke="midnightblue" d="M883.2,-257.65C945.71,-255.61 1061.71,-259.23 1146,-305.5 1195.13,-332.47 1232.81,-389.43 1249.91,-418.93"/>
<polygon fill="midnightblue" stroke="midnightblue" points="1246.95,-420.8 1254.91,-427.8 1253.05,-417.37 1246.95,-420.8"/>
</g>
<!-- Node21&#45;&gt;Node19 -->
<g id="edge24" class="edge">
<title>Node21&#45;&gt;Node19</title>
<path fill="none" stroke="midnightblue" d="M686.09,-232.04C715.62,-237.61 752.88,-244.64 782.99,-250.31"/>
<polygon fill="midnightblue" stroke="midnightblue" points="782.43,-253.77 792.9,-252.18 783.72,-246.89 782.43,-253.77"/>
</g>
<!-- Node22&#45;&gt;Node9 -->
<g id="edge27" class="edge">
<title>Node22&#45;&gt;Node9</title>
<path fill="none" stroke="midnightblue" d="M659.01,-136.93C691.18,-123.84 749.6,-100.07 790.72,-83.33"/>
<polygon fill="midnightblue" stroke="midnightblue" points="792.05,-86.57 799.99,-79.56 789.41,-80.09 792.05,-86.57"/>
</g>
<!-- Node26&#45;&gt;Node2 -->
<g id="edge38" class="edge">
<title>Node26&#45;&gt;Node2</title>
<path fill="none" stroke="midnightblue" d="M460.84,-500.92C484.52,-492.79 519.8,-481.12 551,-472.5 564.89,-468.66 580.23,-464.98 593.89,-461.89"/>
<polygon fill="midnightblue" stroke="midnightblue" points="594.94,-465.24 603.94,-459.66 593.42,-458.41 594.94,-465.24"/>
</g>
<!-- Node26&#45;&gt;Node8 -->
<g id="edge39" class="edge">
<title>Node26&#45;&gt;Node8</title>
<path fill="none" stroke="midnightblue" d="M449.21,-500.91C468.35,-488.29 499.97,-464.19 515,-434.5 577.04,-311.92 480.2,-245.23 551,-127.5 562.54,-108.32 583.3,-94.02 601.11,-84.55"/>
<polygon fill="midnightblue" stroke="midnightblue" points="602.73,-87.65 610.09,-80.03 599.58,-81.4 602.73,-87.65"/>
</g>
<!-- Node26&#45;&gt;Node15 -->
<g id="edge36" class="edge">
<title>Node26&#45;&gt;Node15</title>
<path fill="none" stroke="midnightblue" d="M444.54,-500.9C477.17,-472.5 573.5,-388.7 614.58,-352.96"/>
<polygon fill="midnightblue" stroke="midnightblue" points="617,-355.49 622.25,-346.29 612.41,-350.21 617,-355.49"/>
</g>
<!-- Node27 -->
<g id="node27" class="node">
<title>Node27</title>
<g id="a_node27"><a xlink:href="classAsserv.html#ad8dcc5e2fdf8a0d51ac7caa959afd1ab" target="_top" xlink:title=" ">
<polygon fill="white" stroke="black" points="551,-596 551,-615 718,-615 718,-596 551,-596"/>
<text text-anchor="middle" x="634.5" y="-603" font-family="Helvetica,sans-Serif" font-size="10.00">Asserv::changeMatchAngleRad</text>
</a>
</g>
</g>
<!-- Node26&#45;&gt;Node27 -->
<g id="edge33" class="edge">
<title>Node26&#45;&gt;Node27</title>
<path fill="none" stroke="midnightblue" d="M445.39,-520.23C465.75,-536.41 509.16,-568.8 551,-586.5 557.09,-589.08 563.59,-591.34 570.17,-593.31"/>
<polygon fill="midnightblue" stroke="midnightblue" points="569.25,-596.69 579.82,-596 571.13,-589.94 569.25,-596.69"/>
</g>
<!-- Node29 -->
<g id="node29" class="node">
<title>Node29</title>
<g id="a_node29"><a xlink:href="classAsserv.html#a4095558c0f4909ad9166a54a59185195" target="_top" xlink:title=" ">
<polygon fill="white" stroke="black" points="571,-634 571,-653 698,-653 698,-634 571,-634"/>
<text text-anchor="middle" x="634.5" y="-641" font-family="Helvetica,sans-Serif" font-size="10.00">Asserv::changeMatchX</text>
</a>
</g>
</g>
<!-- Node26&#45;&gt;Node29 -->
<g id="edge35" class="edge">
<title>Node26&#45;&gt;Node29</title>
<path fill="none" stroke="midnightblue" d="M440.49,-520.24C457,-542.49 500.82,-597.2 551,-624.5 555.22,-626.79 559.7,-628.81 564.31,-630.59"/>
<polygon fill="midnightblue" stroke="midnightblue" points="563.33,-633.95 573.92,-633.9 565.61,-627.33 563.33,-633.95"/>
</g>
<!-- Node30 -->
<g id="node30" class="node">
<title>Node30</title>
<g id="a_node30"><a xlink:href="classAsserv.html#abe96bea917f0f8bca3f77cf82902dcc1" target="_top" xlink:title=" ">
<polygon fill="white" stroke="black" points="583.5,-558 583.5,-577 685.5,-577 685.5,-558 583.5,-558"/>
<text text-anchor="middle" x="634.5" y="-565" font-family="Helvetica,sans-Serif" font-size="10.00">Asserv::degToRad</text>
</a>
</g>
</g>
<!-- Node26&#45;&gt;Node30 -->
<g id="edge37" class="edge">
<title>Node26&#45;&gt;Node30</title>
<path fill="none" stroke="midnightblue" d="M460.84,-520.08C484.52,-528.21 519.8,-539.88 551,-548.5 559.95,-550.97 569.5,-553.38 578.82,-555.61"/>
<polygon fill="midnightblue" stroke="midnightblue" points="578.26,-559.07 588.79,-557.95 579.86,-552.26 578.26,-559.07"/>
</g>
<!-- Node31 -->
<g id="node31" class="node">
<title>Node31</title>
<g id="a_node31"><a xlink:href="classAsserv.html#af6213bf76071a11def691853b62d9c76" target="_top" xlink:title=" ">
<polygon fill="white" stroke="black" points="584,-520 584,-539 685,-539 685,-520 584,-520"/>
<text text-anchor="middle" x="634.5" y="-527" font-family="Helvetica,sans-Serif" font-size="10.00">Asserv::radToDeg</text>
</a>
</g>
</g>
<!-- Node26&#45;&gt;Node31 -->
<g id="edge40" class="edge">
<title>Node26&#45;&gt;Node31</title>
<path fill="none" stroke="midnightblue" d="M509.11,-517.68C530.5,-519.71 553.47,-521.9 573.78,-523.83"/>
<polygon fill="midnightblue" stroke="midnightblue" points="573.54,-527.32 583.82,-524.78 574.2,-520.35 573.54,-527.32"/>
</g>
<!-- Node32 -->
<g id="node32" class="node">
<title>Node32</title>
<g id="a_node32"><a xlink:href="classAsserv.html#a1405746fd8b2486724eec8baf4e72f74" target="_top" xlink:title=" ">
<polygon fill="white" stroke="black" points="552.5,-672 552.5,-691 716.5,-691 716.5,-672 552.5,-672"/>
<text text-anchor="middle" x="634.5" y="-679" font-family="Helvetica,sans-Serif" font-size="10.00">Asserv::setMatchColorPosition</text>
</a>
</g>
</g>
<!-- Node26&#45;&gt;Node32 -->
<g id="edge41" class="edge">
<title>Node26&#45;&gt;Node32</title>
<path fill="none" stroke="midnightblue" d="M437.99,-520.19C451.13,-547.39 492.29,-624.91 551,-662.5 554.32,-664.62 557.84,-666.51 561.5,-668.19"/>
<polygon fill="midnightblue" stroke="midnightblue" points="560.22,-671.45 570.81,-671.94 562.84,-664.96 560.22,-671.45"/>
</g>
<!-- Node33 -->
<g id="node33" class="node">
<title>Node33</title>
<g id="a_node33"><a xlink:href="classAsserv.html#abe526ad31d80f46598cdbb031a83a906" target="_top" xlink:title=" ">
<polygon fill="white" stroke="black" points="569,-482 569,-501 700,-501 700,-482 569,-482"/>
<text text-anchor="middle" x="634.5" y="-489" font-family="Helvetica,sans-Serif" font-size="10.00">Asserv::setPositionReal</text>
</a>
</g>
</g>
<!-- Node26&#45;&gt;Node33 -->
<g id="edge42" class="edge">
<title>Node26&#45;&gt;Node33</title>
<path fill="none" stroke="midnightblue" d="M509.11,-503.32C525.42,-501.77 542.64,-500.13 558.91,-498.59"/>
<polygon fill="midnightblue" stroke="midnightblue" points="559.27,-502.07 568.9,-497.64 558.61,-495.1 559.27,-502.07"/>
</g>
<!-- Node28 -->
<g id="node28" class="node">
<title>Node28</title>
<g id="a_node28"><a xlink:href="ARobotPositionShared_8hpp.html#a45bb7dfd2e7442f6250b8d202cc75c7f" target="_top" xlink:title="Normalise un angle dans l&#39;intervalle ]&#45;PI, PI].">
<polygon fill="white" stroke="black" points="795.5,-596 795.5,-615 880.5,-615 880.5,-596 795.5,-596"/>
<text text-anchor="middle" x="838" y="-603" font-family="Helvetica,sans-Serif" font-size="10.00">WrapAngle2PI</text>
</a>
</g>
</g>
<!-- Node27&#45;&gt;Node28 -->
<g id="edge34" class="edge">
<title>Node27&#45;&gt;Node28</title>
<path fill="none" stroke="midnightblue" d="M718.04,-605.5C740.82,-605.5 764.88,-605.5 785.36,-605.5"/>
<polygon fill="midnightblue" stroke="midnightblue" points="785.41,-609 795.41,-605.5 785.41,-602 785.41,-609"/>
</g>
<!-- Node34 -->
<g id="node34" class="node">
<title>Node34</title>
<g id="a_node34"><a xlink:href="classAsservEsialR.html#a9b3d60c1cb5f5eabe0857b16c46432d6" target="_top" xlink:title="Definit la position courante du robot (recalage).">
<polygon fill="white" stroke="black" points="756,-529 756,-548 920,-548 920,-529 756,-529"/>
<text text-anchor="middle" x="838" y="-536" font-family="Helvetica,sans-Serif" font-size="10.00">AsservEsialR::odo_SetPosition</text>
</a>
</g>
</g>
<!-- Node33&#45;&gt;Node34 -->
<g id="edge43" class="edge">
<title>Node33&#45;&gt;Node34</title>
<path fill="none" stroke="midnightblue" d="M677.51,-501.01C690.5,-504 704.85,-507.34 718,-510.5 734.04,-514.35 737.96,-515.66 754,-519.5 763.92,-521.88 774.52,-524.35 784.72,-526.7"/>
<polygon fill="midnightblue" stroke="midnightblue" points="784.21,-530.17 794.74,-529 785.77,-523.35 784.21,-530.17"/>
</g>
<!-- Node39 -->
<g id="node39" class="node">
<title>Node39</title>
<g id="a_node39"><a xlink:href="classAAsservDriver.html#a1980c0a6071940839bfe9782ab939db0" target="_top" xlink:title="Definit la position courante du robot (recalage).">
<polygon fill="white" stroke="black" points="783,-479.5 783,-509.5 893,-509.5 893,-479.5 783,-479.5"/>
<text text-anchor="start" x="791" y="-497.5" font-family="Helvetica,sans-Serif" font-size="10.00">AAsservDriver::odo</text>
<text text-anchor="middle" x="838" y="-486.5" font-family="Helvetica,sans-Serif" font-size="10.00">_SetPosition</text>
</a>
</g>
</g>
<!-- Node33&#45;&gt;Node39 -->
<g id="edge52" class="edge">
<title>Node33&#45;&gt;Node39</title>
<path fill="none" stroke="midnightblue" d="M700.09,-492.46C723.35,-492.81 749.58,-493.2 772.81,-493.54"/>
<polygon fill="midnightblue" stroke="midnightblue" points="772.86,-497.05 782.91,-493.69 772.96,-490.05 772.86,-497.05"/>
</g>
<!-- Node34&#45;&gt;Node4 -->
<g id="edge45" class="edge">
<title>Node34&#45;&gt;Node4</title>
<path fill="none" stroke="midnightblue" d="M903.06,-528.87C909.75,-526.41 916.21,-523.34 922,-519.5 944.82,-504.36 935.01,-484.37 958,-469.5 967.85,-463.13 979.4,-458.84 990.96,-455.95"/>
<polygon fill="midnightblue" stroke="midnightblue" points="992.04,-459.3 1001.07,-453.76 990.56,-452.46 992.04,-459.3"/>
</g>
<!-- Node34&#45;&gt;Node5 -->
<g id="edge51" class="edge">
<title>Node34&#45;&gt;Node5</title>
<path fill="none" stroke="midnightblue" d="M906.93,-528.92C912.37,-526.42 917.49,-523.33 922,-519.5 954.22,-492.16 925.46,-458.46 958,-431.5 965.98,-424.89 975.65,-420.38 985.71,-417.33"/>
<polygon fill="midnightblue" stroke="midnightblue" points="986.6,-420.72 995.42,-414.85 984.86,-413.94 986.6,-420.72"/>
</g>
<!-- Node34&#45;&gt;Node16 -->
<g id="edge44" class="edge">
<title>Node34&#45;&gt;Node16</title>
<path fill="none" stroke="midnightblue" d="M908.59,-528.84C913.48,-526.34 918.03,-523.26 922,-519.5 964.26,-479.43 916.5,-434.36 958,-393.5 959.47,-392.05 961.02,-390.68 962.64,-389.39"/>
<polygon fill="midnightblue" stroke="midnightblue" points="964.9,-392.08 971.19,-383.55 960.96,-386.3 964.9,-392.08"/>
</g>
<!-- Node35 -->
<g id="node35" class="node">
<title>Node35</title>
<g id="a_node35"><a xlink:href="classUtils.html#a6bc578bdb5abe75a1fedab43d909b2b6" target="_top" xlink:title=" ">
<polygon fill="white" stroke="black" points="1007,-593 1007,-612 1097,-612 1097,-593 1007,-593"/>
<text text-anchor="middle" x="1052" y="-600" font-family="Helvetica,sans-Serif" font-size="10.00">Utils::mmToUO</text>
</a>
</g>
</g>
<!-- Node34&#45;&gt;Node35 -->
<g id="edge46" class="edge">
<title>Node34&#45;&gt;Node35</title>
<path fill="none" stroke="midnightblue" d="M861.01,-548.04C884.63,-557.99 923.41,-573.5 958,-583.5 970.37,-587.08 983.85,-590.24 996.61,-592.91"/>
<polygon fill="midnightblue" stroke="midnightblue" points="996.16,-596.39 1006.65,-594.94 997.54,-589.53 996.16,-596.39"/>
</g>
<!-- Node36 -->
<g id="node36" class="node">
<title>Node36</title>
<g id="a_node36"><a xlink:href="classOdometrie.html#a1d519f6e29460da12962ad32ed68b600" target="_top" xlink:title=" ">
<polygon fill="white" stroke="black" points="993.5,-555 993.5,-574 1110.5,-574 1110.5,-555 993.5,-555"/>
<text text-anchor="middle" x="1052" y="-562" font-family="Helvetica,sans-Serif" font-size="10.00">Odometrie::setTheta</text>
</a>
</g>
</g>
<!-- Node34&#45;&gt;Node36 -->
<g id="edge48" class="edge">
<title>Node34&#45;&gt;Node36</title>
<path fill="none" stroke="midnightblue" d="M916.74,-548.03C938.47,-550.7 961.91,-553.57 983.03,-556.16"/>
<polygon fill="midnightblue" stroke="midnightblue" points="982.85,-559.67 993.2,-557.41 983.7,-552.72 982.85,-559.67"/>
</g>
<!-- Node37 -->
<g id="node37" class="node">
<title>Node37</title>
<g id="a_node37"><a xlink:href="classOdometrie.html#a182a36acd6ada0cc666ffed7cb63ecce" target="_top" xlink:title=" ">
<polygon fill="white" stroke="black" points="1004,-517 1004,-536 1100,-536 1100,-517 1004,-517"/>
<text text-anchor="middle" x="1052" y="-524" font-family="Helvetica,sans-Serif" font-size="10.00">Odometrie::setX</text>
</a>
</g>
</g>
<!-- Node34&#45;&gt;Node37 -->
<g id="edge49" class="edge">
<title>Node34&#45;&gt;Node37</title>
<path fill="none" stroke="midnightblue" d="M920.06,-533.91C944.59,-532.52 971.01,-531.03 993.65,-529.75"/>
<polygon fill="midnightblue" stroke="midnightblue" points="993.98,-533.23 1003.76,-529.17 993.58,-526.24 993.98,-533.23"/>
</g>
<!-- Node38 -->
<g id="node38" class="node">
<title>Node38</title>
<g id="a_node38"><a xlink:href="classOdometrie.html#a3543e2a17fce781aae27247a93597c9a" target="_top" xlink:title=" ">
<polygon fill="white" stroke="black" points="1004.5,-479 1004.5,-498 1099.5,-498 1099.5,-479 1004.5,-479"/>
<text text-anchor="middle" x="1052" y="-486" font-family="Helvetica,sans-Serif" font-size="10.00">Odometrie::setY</text>
</a>
</g>
</g>
<!-- Node34&#45;&gt;Node38 -->
<g id="edge50" class="edge">
<title>Node34&#45;&gt;Node38</title>
<path fill="none" stroke="midnightblue" d="M884.43,-528.93C896.69,-526.13 909.9,-522.89 922,-519.5 938.24,-514.95 941.71,-511.86 958,-507.5 969.69,-504.37 982.33,-501.47 994.4,-498.93"/>
<polygon fill="midnightblue" stroke="midnightblue" points="995.29,-502.32 1004.38,-496.88 993.89,-495.46 995.29,-502.32"/>
</g>
<!-- Node35&#45;&gt;Node20 -->
<g id="edge47" class="edge">
<title>Node35&#45;&gt;Node20</title>
<path fill="none" stroke="midnightblue" d="M1097.02,-599.91C1113.35,-597.35 1131.43,-592.53 1146,-583.5 1197.31,-551.71 1234.66,-488.06 1250.94,-456.35"/>
<polygon fill="midnightblue" stroke="midnightblue" points="1254.14,-457.77 1255.48,-447.26 1247.88,-454.64 1254.14,-457.77"/>
</g>
</g>
</svg>
        <g id="navigator" transform="translate(0 0)" fill="#404254">
                <rect fill="#f2f5e9" fill-opacity="0.5" stroke="#606060" stroke-width=".5" x="0" y="0" width="60" height="60"/>
                <use id="zoomplus" xlink:href="#zoomPlus" x="17" y="9" onmousedown="handleZoom(evt,'in')"/>
                <use id="zoomminus" xlink:href="#zoomMin" x="42" y="9" onmousedown="handleZoom(evt,'out')"/>
                <use id="reset" xlink:href="#resetDef" x="30" y="36" onmousedown="handleReset()"/>
                <g id="arrowUp" xlink:href="#dirArrow" transform="translate(30 24)" onmousedown="handlePan(0,-1)">
                  <use xlink:href="#rim" fill="#404040">
                        <set attributeName="fill" to="#808080" begin="arrowUp.mouseover" end="arrowUp.mouseout"/>
                  </use>
                  <path fill="none" stroke="white" stroke-width="1.5" d="M0,-3.0v7 M-2.5,-0.5L0,-3.0L2.5,-0.5"/>
                </g>
                <g id="arrowRight" xlink:href="#dirArrow" transform="rotate(90) translate(36 -43)" onmousedown="handlePan(1,0)">
                  <use xlink:href="#rim" fill="#404040">
                        <set attributeName="fill" to="#808080" begin="arrowRight.mouseover" end="arrowRight.mouseout"/>
                  </use>
                  <path fill="none" stroke="white" stroke-width="1.5" d="M0,-3.0v7 M-2.5,-0.5L0,-3.0L2.5,-0.5"/>
                </g>
                <g id="arrowDown" xlink:href="#dirArrow" transform="rotate(180) translate(-30 -48)" onmousedown="handlePan(0,1)">
                  <use xlink:href="#rim" fill="#404040">
                        <set attributeName="fill" to="#808080" begin="arrowDown.mouseover" end="arrowDown.mouseout"/>
                  </use>
                  <path fill="none" stroke="white" stroke-width="1.5" d="M0,-3.0v7 M-2.5,-0.5L0,-3.0L2.5,-0.5"/>
                </g>
                <g id="arrowLeft" xlink:href="#dirArrow" transform="rotate(270) translate(-36 17)" onmousedown="handlePan(-1,0)">
                  <use xlink:href="#rim" fill="#404040">
                        <set attributeName="fill" to="#808080" begin="arrowLeft.mouseover" end="arrowLeft.mouseout"/>
                  </use>
                  <path fill="none" stroke="white" stroke-width="1.5" d="M0,-3.0v7 M-2.5,-0.5L0,-3.0L2.5,-0.5"/>
                </g>
        </g>
        <svg viewBox="0 0 15 15" width="100%" height="30px" preserveAspectRatio="xMaxYMin meet">
         <g id="arrow_out" transform="scale(0.3 0.3)">
          <a xlink:href="classAsserv_a9e997a871e745e687a4088103378bae3_cgraph_org.svg" target="_base">
           <rect id="button" ry="5" rx="5" y="6" x="6" height="38" width="38"
                fill="#f2f5e9" fill-opacity="0.5" stroke="#606060" stroke-width="1.0"/>
           <path id="arrow"
             d="M 11.500037,31.436501 C 11.940474,20.09759 22.043105,11.32322 32.158766,21.979434 L 37.068811,17.246167 C 37.068811,17.246167 37.088388,32 37.088388,32 L 22.160133,31.978069 C 22.160133,31.978069 26.997745,27.140456 26.997745,27.140456 C 18.528582,18.264221 13.291696,25.230495 11.500037,31.436501 z"
             style="fill:#404040;"/>
          </a>
         </g>
        </svg>
</svg>
