<?xml version="1.0" encoding="UTF-8" standalone="no"?>
<!DOCTYPE svg PUBLIC "-//W3C//DTD SVG 1.1//EN"
 "http://www.w3.org/Graphics/SVG/1.1/DTD/svg11.dtd">
<!-- Generated by graphviz version 2.43.0 (0)
 -->
<!-- Title: MD25::read Pages: 1 -->
<!--zoomable 446 -->
<svg id="main" version="1.1" xmlns="http://www.w3.org/2000/svg" xmlns:xlink="http://www.w3.org/1999/xlink" xml:space="preserve" onload="init(evt)">
<style type="text/css"><![CDATA[
.edge:hover path { stroke: red; }
.edge:hover polygon { stroke: red; fill: red; }
]]></style>
<script type="text/javascript"><![CDATA[
var edges = document.getElementsByTagName('g');
if (edges && edges.length) {
  for (var i=0;i<edges.length;i++) {
    if (edges[i].id.substr(0,4)=='edge') {
      edges[i].setAttribute('class','edge');
    }
  }
}
]]></script>
        <defs>
                <circle id="rim" cx="0" cy="0" r="7"/>
                <circle id="rim2" cx="0" cy="0" r="3.5"/>
                <g id="zoomPlus">
                        <use xlink:href="#rim" fill="#404040">
                                <set attributeName="fill" to="#808080" begin="zoomplus.mouseover" end="zoomplus.mouseout"/>
                        </use>
                        <path d="M-4,0h8M0,-4v8" fill="none" stroke="white" stroke-width="1.5" pointer-events="none"/>
                </g>
                <g id="zoomMin">
                        <use xlink:href="#rim" fill="#404040">
                                <set attributeName="fill" to="#808080" begin="zoomminus.mouseover" end="zoomminus.mouseout"/>
                        </use>
                        <path d="M-4,0h8" fill="none" stroke="white" stroke-width="1.5" pointer-events="none"/>
                </g>
                <g id="dirArrow">
                        <path fill="none" stroke="white" stroke-width="1.5" d="M0,-3.0v7 M-2.5,-0.5L0,-3.0L2.5,-0.5"/>
                </g>
               <g id="resetDef">
                       <use xlink:href="#rim2" fill="#404040">
                               <set attributeName="fill" to="#808080" begin="reset.mouseover" end="reset.mouseout"/>
                       </use>
               </g>
        </defs>

<script type="text/javascript">
var viewWidth = 701;
var viewHeight = 446;
var sectionId = 'dynsection-22';
</script>
<script xlink:href="svgpan.js"/>
<svg id="graph" class="graph">
<g id="viewport">
<title>MD25::read</title>
<polygon fill="white" stroke="transparent" points="-4,4 -4,-442 697,-442 697,4 -4,4"/>
<!-- Node1 -->
<g id="node1" class="node">
<title>Node1</title>
<g id="a_node1"><a xlink:title=" ">
<polygon fill="#bfbfbf" stroke="black" points="620,-209.5 620,-228.5 693,-228.5 693,-209.5 620,-209.5"/>
<text text-anchor="middle" x="656.5" y="-216.5" font-family="Helvetica,sans-Serif" font-size="10.00">MD25::read</text>
</a>
</g>
</g>
<!-- Node2 -->
<g id="node2" class="node">
<title>Node2</title>
<g id="a_node2"><a xlink:href="classMD25.html#a7e6c16a26b5f99fc45f25ad59111e1bf" target="_top" xlink:title=" ">
<polygon fill="white" stroke="black" points="444.5,-418.5 444.5,-437.5 576.5,-437.5 576.5,-418.5 444.5,-418.5"/>
<text text-anchor="middle" x="510.5" y="-425.5" font-family="Helvetica,sans-Serif" font-size="10.00">MD25::acceleration_get</text>
</a>
</g>
</g>
<!-- Node1&#45;&gt;Node2 -->
<g id="edge1" class="edge">
<title>Node1&#45;&gt;Node2</title>
<path fill="none" stroke="midnightblue" d="M653.88,-239.02C649.65,-277.77 634.77,-363.24 584,-409 579.75,-412.83 574.81,-415.91 569.56,-418.38"/>
<polygon fill="midnightblue" stroke="midnightblue" points="657.41,-238.87 654.88,-228.59 650.44,-238.21 657.41,-238.87"/>
</g>
<!-- Node3 -->
<g id="node3" class="node">
<title>Node3</title>
<g id="a_node3"><a xlink:href="classMD25.html#a338366bb67797c4360d2d45981182732" target="_top" xlink:title=" ">
<polygon fill="white" stroke="black" points="445.5,-380.5 445.5,-399.5 575.5,-399.5 575.5,-380.5 445.5,-380.5"/>
<text text-anchor="middle" x="510.5" y="-387.5" font-family="Helvetica,sans-Serif" font-size="10.00">MD25::bat_voltage_get</text>
</a>
</g>
</g>
<!-- Node1&#45;&gt;Node3 -->
<g id="edge2" class="edge">
<title>Node1&#45;&gt;Node3</title>
<path fill="none" stroke="midnightblue" d="M651.85,-238.6C644.75,-271.13 625.92,-336.14 584,-371 579.4,-374.83 574.11,-377.89 568.53,-380.35"/>
<polygon fill="midnightblue" stroke="midnightblue" points="655.33,-239.05 653.89,-228.55 648.47,-237.65 655.33,-239.05"/>
</g>
<!-- Node4 -->
<g id="node4" class="node">
<title>Node4</title>
<g id="a_node4"><a xlink:href="classMD25.html#a5a2a52689f4c66138db9f3eb3cbef0e0" target="_top" xlink:title=" ">
<polygon fill="white" stroke="black" points="452,-342.5 452,-361.5 569,-361.5 569,-342.5 452,-342.5"/>
<text text-anchor="middle" x="510.5" y="-349.5" font-family="Helvetica,sans-Serif" font-size="10.00">MD25::encoder1_get</text>
</a>
</g>
</g>
<!-- Node1&#45;&gt;Node4 -->
<g id="edge3" class="edge">
<title>Node1&#45;&gt;Node4</title>
<path fill="none" stroke="midnightblue" d="M648.6,-238.36C638.48,-263.97 617.12,-308.68 584,-333 578.76,-336.85 572.8,-339.92 566.6,-342.37"/>
<polygon fill="midnightblue" stroke="midnightblue" points="652,-239.27 652.26,-228.68 645.45,-236.8 652,-239.27"/>
</g>
<!-- Node5 -->
<g id="node5" class="node">
<title>Node5</title>
<g id="a_node5"><a xlink:href="classMD25.html#a8e27c6b1644b2bd402544f5e3d665044" target="_top" xlink:title=" ">
<polygon fill="white" stroke="black" points="452,-304.5 452,-323.5 569,-323.5 569,-304.5 452,-304.5"/>
<text text-anchor="middle" x="510.5" y="-311.5" font-family="Helvetica,sans-Serif" font-size="10.00">MD25::encoder2_get</text>
</a>
</g>
</g>
<!-- Node1&#45;&gt;Node5 -->
<g id="edge4" class="edge">
<title>Node1&#45;&gt;Node5</title>
<path fill="none" stroke="midnightblue" d="M643.41,-236.77C630.64,-254.18 608.93,-280.19 584,-295 577.51,-298.85 570.24,-301.94 562.88,-304.4"/>
<polygon fill="midnightblue" stroke="midnightblue" points="646.31,-238.74 649.24,-228.56 640.6,-234.68 646.31,-238.74"/>
</g>
<!-- Node6 -->
<g id="node6" class="node">
<title>Node6</title>
<g id="a_node6"><a xlink:href="classMD25.html#a9edb00cc2a917a093542c968103b8075" target="_top" xlink:title=" ">
<polygon fill="white" stroke="black" points="460.5,-266.5 460.5,-285.5 560.5,-285.5 560.5,-266.5 460.5,-266.5"/>
<text text-anchor="middle" x="510.5" y="-273.5" font-family="Helvetica,sans-Serif" font-size="10.00">MD25::mode_get</text>
</a>
</g>
</g>
<!-- Node1&#45;&gt;Node6 -->
<g id="edge5" class="edge">
<title>Node1&#45;&gt;Node6</title>
<path fill="none" stroke="midnightblue" d="M631.39,-233.62C617.83,-241.38 600.38,-250.6 584,-257 574.67,-260.65 564.39,-263.82 554.58,-266.47"/>
<polygon fill="midnightblue" stroke="midnightblue" points="633.23,-236.6 640.1,-228.54 629.7,-230.56 633.23,-236.6"/>
</g>
<!-- Node10 -->
<g id="node10" class="node">
<title>Node10</title>
<g id="a_node10"><a xlink:href="classMD25.html#ac191be36e87682979f2144adf77733d0" target="_top" xlink:title=" ">
<polygon fill="white" stroke="black" points="437,-228.5 437,-247.5 584,-247.5 584,-228.5 437,-228.5"/>
<text text-anchor="middle" x="510.5" y="-235.5" font-family="Helvetica,sans-Serif" font-size="10.00">MD25::motor1_current_get</text>
</a>
</g>
</g>
<!-- Node1&#45;&gt;Node10 -->
<g id="edge9" class="edge">
<title>Node1&#45;&gt;Node10</title>
<path fill="none" stroke="midnightblue" d="M609.95,-225.01C601.52,-226.12 592.54,-227.31 583.55,-228.49"/>
<polygon fill="midnightblue" stroke="midnightblue" points="610.45,-228.47 619.9,-223.7 609.53,-221.53 610.45,-228.47"/>
</g>
<!-- Node11 -->
<g id="node11" class="node">
<title>Node11</title>
<g id="a_node11"><a xlink:href="classMD25.html#ae348e68a2ad6c46c09670b290949eea9" target="_top" xlink:title=" ">
<polygon fill="white" stroke="black" points="437,-190.5 437,-209.5 584,-209.5 584,-190.5 437,-190.5"/>
<text text-anchor="middle" x="510.5" y="-197.5" font-family="Helvetica,sans-Serif" font-size="10.00">MD25::motor2_current_get</text>
</a>
</g>
</g>
<!-- Node1&#45;&gt;Node11 -->
<g id="edge10" class="edge">
<title>Node1&#45;&gt;Node11</title>
<path fill="none" stroke="midnightblue" d="M609.95,-212.99C601.52,-211.88 592.54,-210.69 583.55,-209.51"/>
<polygon fill="midnightblue" stroke="midnightblue" points="609.53,-216.47 619.9,-214.3 610.45,-209.53 609.53,-216.47"/>
</g>
<!-- Node12 -->
<g id="node12" class="node">
<title>Node12</title>
<g id="a_node12"><a xlink:href="classMD25.html#a5c29ea1b8e26f73a6bbd3d8683125e7b" target="_top" xlink:title=" ">
<polygon fill="white" stroke="black" points="287,-182 287,-212 401,-212 401,-182 287,-182"/>
<text text-anchor="start" x="295" y="-200" font-family="Helvetica,sans-Serif" font-size="10.00">MD25::software_rev</text>
<text text-anchor="middle" x="344" y="-189" font-family="Helvetica,sans-Serif" font-size="10.00">_num_get</text>
</a>
</g>
</g>
<!-- Node1&#45;&gt;Node12 -->
<g id="edge11" class="edge">
<title>Node1&#45;&gt;Node12</title>
<path fill="none" stroke="midnightblue" d="M633.73,-203.82C620.12,-195.27 601.84,-185.45 584,-181 522.87,-165.76 450.39,-174.16 401.4,-183.56"/>
<polygon fill="midnightblue" stroke="midnightblue" points="632.06,-206.9 642.34,-209.45 635.89,-201.05 632.06,-206.9"/>
</g>
<!-- Node13 -->
<g id="node13" class="node">
<title>Node13</title>
<g id="a_node13"><a xlink:href="classMD25.html#a5830bfa9488373a8609eb299bf79e712" target="_top" xlink:title=" ">
<polygon fill="white" stroke="black" points="457,-114.5 457,-133.5 564,-133.5 564,-114.5 457,-114.5"/>
<text text-anchor="middle" x="510.5" y="-121.5" font-family="Helvetica,sans-Serif" font-size="10.00">MD25::speed1_get</text>
</a>
</g>
</g>
<!-- Node1&#45;&gt;Node13 -->
<g id="edge13" class="edge">
<title>Node1&#45;&gt;Node13</title>
<path fill="none" stroke="midnightblue" d="M641.75,-201.27C628.51,-185.3 607.14,-162.21 584,-148 574.06,-141.89 562.38,-137.15 551.34,-133.55"/>
<polygon fill="midnightblue" stroke="midnightblue" points="639.22,-203.72 648.22,-209.31 644.67,-199.32 639.22,-203.72"/>
</g>
<!-- Node14 -->
<g id="node14" class="node">
<title>Node14</title>
<g id="a_node14"><a xlink:href="classMD25.html#a06b9c4e4af22adb6cf16a0f7d9237add" target="_top" xlink:title=" ">
<polygon fill="white" stroke="black" points="457,-76.5 457,-95.5 564,-95.5 564,-76.5 457,-76.5"/>
<text text-anchor="middle" x="510.5" y="-83.5" font-family="Helvetica,sans-Serif" font-size="10.00">MD25::speed2_get</text>
</a>
</g>
</g>
<!-- Node1&#45;&gt;Node14 -->
<g id="edge14" class="edge">
<title>Node1&#45;&gt;Node14</title>
<path fill="none" stroke="midnightblue" d="M648.6,-199.64C638.48,-174.03 617.12,-129.32 584,-105 578.13,-100.69 571.35,-97.35 564.36,-94.77"/>
<polygon fill="midnightblue" stroke="midnightblue" points="645.45,-201.2 652.26,-209.32 652,-198.73 645.45,-201.2"/>
</g>
<!-- Node15 -->
<g id="node15" class="node">
<title>Node15</title>
<g id="a_node15"><a xlink:href="classMD25.html#a2a8405f77cb930ff1cf2eabfb54ee42f" target="_top" xlink:title=" ">
<polygon fill="white" stroke="black" points="460,-38.5 460,-57.5 561,-57.5 561,-38.5 460,-38.5"/>
<text text-anchor="middle" x="510.5" y="-45.5" font-family="Helvetica,sans-Serif" font-size="10.00">MD25::speed_get</text>
</a>
</g>
</g>
<!-- Node1&#45;&gt;Node15 -->
<g id="edge15" class="edge">
<title>Node1&#45;&gt;Node15</title>
<path fill="none" stroke="midnightblue" d="M651.85,-199.4C644.75,-166.87 625.92,-101.86 584,-67 577.4,-61.51 569.38,-57.59 561.12,-54.79"/>
<polygon fill="midnightblue" stroke="midnightblue" points="648.47,-200.35 653.89,-209.45 655.33,-198.95 648.47,-200.35"/>
</g>
<!-- Node16 -->
<g id="node16" class="node">
<title>Node16</title>
<g id="a_node16"><a xlink:href="classMD25.html#ae2df33a3d5cfaebf31b95d78ac217cbd" target="_top" xlink:title=" ">
<polygon fill="white" stroke="black" points="464.5,-0.5 464.5,-19.5 556.5,-19.5 556.5,-0.5 464.5,-0.5"/>
<text text-anchor="middle" x="510.5" y="-7.5" font-family="Helvetica,sans-Serif" font-size="10.00">MD25::turn_get</text>
</a>
</g>
</g>
<!-- Node1&#45;&gt;Node16 -->
<g id="edge16" class="edge">
<title>Node1&#45;&gt;Node16</title>
<path fill="none" stroke="midnightblue" d="M653.88,-198.98C649.65,-160.23 634.77,-74.76 584,-29 576.36,-22.12 566.54,-17.67 556.6,-14.82"/>
<polygon fill="midnightblue" stroke="midnightblue" points="650.44,-199.79 654.88,-209.41 657.41,-199.13 650.44,-199.79"/>
</g>
<!-- Node7 -->
<g id="node7" class="node">
<title>Node7</title>
<g id="a_node7"><a xlink:href="classMD25.html#a7d72d9ae0eb96f3ae66ed301f8f3784c" target="_top" xlink:title=" ">
<polygon fill="white" stroke="black" points="294.5,-248.5 294.5,-267.5 393.5,-267.5 393.5,-248.5 294.5,-248.5"/>
<text text-anchor="middle" x="344" y="-255.5" font-family="Helvetica,sans-Serif" font-size="10.00">MD25::mode_set</text>
</a>
</g>
</g>
<!-- Node6&#45;&gt;Node7 -->
<g id="edge6" class="edge">
<title>Node6&#45;&gt;Node7</title>
<path fill="none" stroke="midnightblue" d="M450.07,-269.5C431.58,-267.47 411.42,-265.27 393.75,-263.33"/>
<polygon fill="midnightblue" stroke="midnightblue" points="449.82,-272.99 460.14,-270.6 450.58,-266.03 449.82,-272.99"/>
</g>
<!-- Node8 -->
<g id="node8" class="node">
<title>Node8</title>
<g id="a_node8"><a xlink:href="classMD25.html#a935ef31b09c463fead4abab0accbbb6c" target="_top" xlink:title=" ">
<polygon fill="white" stroke="black" points="173,-209.5 173,-228.5 251,-228.5 251,-209.5 173,-209.5"/>
<text text-anchor="middle" x="212" y="-216.5" font-family="Helvetica,sans-Serif" font-size="10.00">MD25::begin</text>
</a>
</g>
</g>
<!-- Node7&#45;&gt;Node8 -->
<g id="edge7" class="edge">
<title>Node7&#45;&gt;Node8</title>
<path fill="none" stroke="midnightblue" d="M301.37,-245.51C283.08,-240.02 261.94,-233.68 244.92,-228.58"/>
<polygon fill="midnightblue" stroke="midnightblue" points="300.61,-248.94 311.2,-248.46 302.63,-242.23 300.61,-248.94"/>
</g>
<!-- Node9 -->
<g id="node9" class="node">
<title>Node9</title>
<g id="a_node9"><a xlink:href="classServoUsingMotorDriver.html#acc8ccf92143efa853b83940d2d690817" target="_top" xlink:title="Constructor.">
<polygon fill="white" stroke="black" points="0,-204 0,-234 137,-234 137,-204 0,-204"/>
<text text-anchor="start" x="8" y="-222" font-family="Helvetica,sans-Serif" font-size="10.00">ServoUsingMotorDriver</text>
<text text-anchor="middle" x="68.5" y="-211" font-family="Helvetica,sans-Serif" font-size="10.00">::ServoUsingMotorDriver</text>
</a>
</g>
</g>
<!-- Node8&#45;&gt;Node9 -->
<g id="edge8" class="edge">
<title>Node8&#45;&gt;Node9</title>
<path fill="none" stroke="midnightblue" d="M162.63,-219C154.45,-219 145.83,-219 137.27,-219"/>
<polygon fill="midnightblue" stroke="midnightblue" points="162.71,-222.5 172.71,-219 162.71,-215.5 162.71,-222.5"/>
</g>
<!-- Node12&#45;&gt;Node8 -->
<g id="edge12" class="edge">
<title>Node12&#45;&gt;Node8</title>
<path fill="none" stroke="midnightblue" d="M276.6,-208.24C267.95,-209.7 259.34,-211.16 251.37,-212.51"/>
<polygon fill="midnightblue" stroke="midnightblue" points="277.46,-211.64 286.74,-206.52 276.29,-204.74 277.46,-211.64"/>
</g>
</g>
</svg>
        <g id="navigator" transform="translate(0 0)" fill="#404254">
                <rect fill="#f2f5e9" fill-opacity="0.5" stroke="#606060" stroke-width=".5" x="0" y="0" width="60" height="60"/>
                <use id="zoomplus" xlink:href="#zoomPlus" x="17" y="9" onmousedown="handleZoom(evt,'in')"/>
                <use id="zoomminus" xlink:href="#zoomMin" x="42" y="9" onmousedown="handleZoom(evt,'out')"/>
                <use id="reset" xlink:href="#resetDef" x="30" y="36" onmousedown="handleReset()"/>
                <g id="arrowUp" xlink:href="#dirArrow" transform="translate(30 24)" onmousedown="handlePan(0,-1)">
                  <use xlink:href="#rim" fill="#404040">
                        <set attributeName="fill" to="#808080" begin="arrowUp.mouseover" end="arrowUp.mouseout"/>
                  </use>
                  <path fill="none" stroke="white" stroke-width="1.5" d="M0,-3.0v7 M-2.5,-0.5L0,-3.0L2.5,-0.5"/>
                </g>
                <g id="arrowRight" xlink:href="#dirArrow" transform="rotate(90) translate(36 -43)" onmousedown="handlePan(1,0)">
                  <use xlink:href="#rim" fill="#404040">
                        <set attributeName="fill" to="#808080" begin="arrowRight.mouseover" end="arrowRight.mouseout"/>
                  </use>
                  <path fill="none" stroke="white" stroke-width="1.5" d="M0,-3.0v7 M-2.5,-0.5L0,-3.0L2.5,-0.5"/>
                </g>
                <g id="arrowDown" xlink:href="#dirArrow" transform="rotate(180) translate(-30 -48)" onmousedown="handlePan(0,1)">
                  <use xlink:href="#rim" fill="#404040">
                        <set attributeName="fill" to="#808080" begin="arrowDown.mouseover" end="arrowDown.mouseout"/>
                  </use>
                  <path fill="none" stroke="white" stroke-width="1.5" d="M0,-3.0v7 M-2.5,-0.5L0,-3.0L2.5,-0.5"/>
                </g>
                <g id="arrowLeft" xlink:href="#dirArrow" transform="rotate(270) translate(-36 17)" onmousedown="handlePan(-1,0)">
                  <use xlink:href="#rim" fill="#404040">
                        <set attributeName="fill" to="#808080" begin="arrowLeft.mouseover" end="arrowLeft.mouseout"/>
                  </use>
                  <path fill="none" stroke="white" stroke-width="1.5" d="M0,-3.0v7 M-2.5,-0.5L0,-3.0L2.5,-0.5"/>
                </g>
        </g>
        <svg viewBox="0 0 15 15" width="100%" height="30px" preserveAspectRatio="xMaxYMin meet">
         <g id="arrow_out" transform="scale(0.3 0.3)">
          <a xlink:href="classMD25_a4cb2f76f2bc199b97ba138802da07b91_icgraph_org.svg" target="_base">
           <rect id="button" ry="5" rx="5" y="6" x="6" height="38" width="38"
                fill="#f2f5e9" fill-opacity="0.5" stroke="#606060" stroke-width="1.0"/>
           <path id="arrow"
             d="M 11.500037,31.436501 C 11.940474,20.09759 22.043105,11.32322 32.158766,21.979434 L 37.068811,17.246167 C 37.068811,17.246167 37.088388,32 37.088388,32 L 22.160133,31.978069 C 22.160133,31.978069 26.997745,27.140456 26.997745,27.140456 C 18.528582,18.264221 13.291696,25.230495 11.500037,31.436501 z"
             style="fill:#404040;"/>
          </a>
         </g>
        </svg>
</svg>
