<?xml version="1.0" encoding="UTF-8" standalone="no"?>
<!DOCTYPE svg PUBLIC "-//W3C//DTD SVG 1.1//EN"
 "http://www.w3.org/Graphics/SVG/1.1/DTD/svg11.dtd">
<!-- Generated by graphviz version 2.43.0 (0)
 -->
<!-- Title: test::ActionManagerTimerTest::testAddRemovePosixTimers Pages: 1 -->
<!--zoomable 873 -->
<svg id="main" version="1.1" xmlns="http://www.w3.org/2000/svg" xmlns:xlink="http://www.w3.org/1999/xlink" xml:space="preserve" onload="init(evt)">
<style type="text/css"><![CDATA[
.edge:hover path { stroke: red; }
.edge:hover polygon { stroke: red; fill: red; }
]]></style>
<script type="text/javascript"><![CDATA[
var edges = document.getElementsByTagName('g');
if (edges && edges.length) {
  for (var i=0;i<edges.length;i++) {
    if (edges[i].id.substr(0,4)=='edge') {
      edges[i].setAttribute('class','edge');
    }
  }
}
]]></script>
        <defs>
                <circle id="rim" cx="0" cy="0" r="7"/>
                <circle id="rim2" cx="0" cy="0" r="3.5"/>
                <g id="zoomPlus">
                        <use xlink:href="#rim" fill="#404040">
                                <set attributeName="fill" to="#808080" begin="zoomplus.mouseover" end="zoomplus.mouseout"/>
                        </use>
                        <path d="M-4,0h8M0,-4v8" fill="none" stroke="white" stroke-width="1.5" pointer-events="none"/>
                </g>
                <g id="zoomMin">
                        <use xlink:href="#rim" fill="#404040">
                                <set attributeName="fill" to="#808080" begin="zoomminus.mouseover" end="zoomminus.mouseout"/>
                        </use>
                        <path d="M-4,0h8" fill="none" stroke="white" stroke-width="1.5" pointer-events="none"/>
                </g>
                <g id="dirArrow">
                        <path fill="none" stroke="white" stroke-width="1.5" d="M0,-3.0v7 M-2.5,-0.5L0,-3.0L2.5,-0.5"/>
                </g>
               <g id="resetDef">
                       <use xlink:href="#rim2" fill="#404040">
                               <set attributeName="fill" to="#808080" begin="reset.mouseover" end="reset.mouseout"/>
                       </use>
               </g>
        </defs>

<script type="text/javascript">
var viewWidth = 1254;
var viewHeight = 873;
var sectionId = 'dynsection-11';
</script>
<script xlink:href="svgpan.js"/>
<svg id="graph" class="graph">
<g id="viewport">
<title>test::ActionManagerTimerTest::testAddRemovePosixTimers</title>
<polygon fill="white" stroke="transparent" points="-4,4 -4,-868.5 1250,-868.5 1250,4 -4,4"/>
<!-- Node1 -->
<g id="node1" class="node">
<title>Node1</title>
<g id="a_node1"><a xlink:title=" ">
<polygon fill="#bfbfbf" stroke="black" points="0,-424.5 0,-454.5 180,-454.5 180,-424.5 0,-424.5"/>
<text text-anchor="start" x="8" y="-442.5" font-family="Helvetica,sans-Serif" font-size="10.00">test::ActionManagerTimer</text>
<text text-anchor="middle" x="90" y="-431.5" font-family="Helvetica,sans-Serif" font-size="10.00">Test::testAddRemovePosixTimers</text>
</a>
</g>
</g>
<!-- Node2 -->
<g id="node2" class="node">
<title>Node2</title>
<g id="a_node2"><a xlink:href="classActionManagerTimer.html#a37abad611ac11d81f2ebcb8d9d5766f8" target="_top" xlink:title="Ajout d&#39;un timer. deprecated.">
<polygon fill="white" stroke="black" points="380,-468.5 380,-498.5 499,-498.5 499,-468.5 380,-468.5"/>
<text text-anchor="start" x="388" y="-486.5" font-family="Helvetica,sans-Serif" font-size="10.00">ActionManagerTimer</text>
<text text-anchor="middle" x="439.5" y="-475.5" font-family="Helvetica,sans-Serif" font-size="10.00">::addTimer</text>
</a>
</g>
</g>
<!-- Node1&#45;&gt;Node2 -->
<g id="edge1" class="edge">
<title>Node1&#45;&gt;Node2</title>
<path fill="none" stroke="midnightblue" d="M162.51,-454.51C179.96,-457.81 198.6,-461.05 216,-463.5 267.31,-470.71 325.66,-475.84 369.73,-479.1"/>
<polygon fill="midnightblue" stroke="midnightblue" points="369.53,-482.6 379.76,-479.83 370.04,-475.62 369.53,-482.6"/>
</g>
<!-- Node6 -->
<g id="node6" class="node">
<title>Node6</title>
<g id="a_node6"><a xlink:href="namespacelogs.html#ac6f325c6cfe6189bc8e243daa184453b" target="_top" xlink:title="Cette méthode permet de finir les flux de construction par la notation.">
<polygon fill="white" stroke="black" points="763.5,-670 763.5,-689 824.5,-689 824.5,-670 763.5,-670"/>
<text text-anchor="middle" x="794" y="-677" font-family="Helvetica,sans-Serif" font-size="10.00">logs::end</text>
</a>
</g>
</g>
<!-- Node1&#45;&gt;Node6 -->
<g id="edge23" class="edge">
<title>Node1&#45;&gt;Node6</title>
<path fill="none" stroke="midnightblue" d="M114.3,-454.76C179.15,-496.33 368.55,-611.67 544,-659.5 615.88,-679.09 703.41,-681.4 753.22,-680.79"/>
<polygon fill="midnightblue" stroke="midnightblue" points="753.32,-684.29 763.26,-680.62 753.2,-677.29 753.32,-684.29"/>
</g>
<!-- Node16 -->
<g id="node16" class="node">
<title>Node16</title>
<g id="a_node16"><a xlink:href="classActionManagerTimer.html#ad5a07cffbb588205edcdcb594208769c" target="_top" xlink:title="Retourne le nombre de timers posix.">
<polygon fill="white" stroke="black" points="916.5,-316.5 916.5,-346.5 1035.5,-346.5 1035.5,-316.5 916.5,-316.5"/>
<text text-anchor="start" x="924.5" y="-334.5" font-family="Helvetica,sans-Serif" font-size="10.00">ActionManagerTimer</text>
<text text-anchor="middle" x="976" y="-323.5" font-family="Helvetica,sans-Serif" font-size="10.00">::countPTimers</text>
</a>
</g>
</g>
<!-- Node1&#45;&gt;Node16 -->
<g id="edge20" class="edge">
<title>Node1&#45;&gt;Node16</title>
<path fill="none" stroke="midnightblue" d="M112.73,-424.36C175.73,-381.49 365.38,-259.75 544,-218.5 693.26,-184.03 869.5,-270.51 941.67,-311.44"/>
<polygon fill="midnightblue" stroke="midnightblue" points="939.93,-314.48 950.35,-316.43 943.42,-308.41 939.93,-314.48"/>
</g>
<!-- Node17 -->
<g id="node17" class="node">
<title>Node17</title>
<g id="a_node17"><a xlink:href="classActionManagerTimer.html#a1d13444da59d96cb4a127fbcea4075c7" target="_top" xlink:title="Trouve un timer posix specifique.">
<polygon fill="white" stroke="black" points="380,-708.5 380,-738.5 499,-738.5 499,-708.5 380,-708.5"/>
<text text-anchor="start" x="388" y="-726.5" font-family="Helvetica,sans-Serif" font-size="10.00">ActionManagerTimer</text>
<text text-anchor="middle" x="439.5" y="-715.5" font-family="Helvetica,sans-Serif" font-size="10.00">::findPTimer</text>
</a>
</g>
</g>
<!-- Node1&#45;&gt;Node17 -->
<g id="edge24" class="edge">
<title>Node1&#45;&gt;Node17</title>
<path fill="none" stroke="midnightblue" d="M93.43,-454.67C101.49,-499.65 131.83,-632.93 216,-693.5 260.07,-725.21 322.04,-731.29 369.4,-730.25"/>
<polygon fill="midnightblue" stroke="midnightblue" points="369.7,-733.74 379.57,-729.92 369.46,-726.75 369.7,-733.74"/>
</g>
<!-- Node21 -->
<g id="node21" class="node">
<title>Node21</title>
<g id="a_node21"><a xlink:href="classutils_1_1Thread.html#a430ee2b8962147b587157fac97932219" target="_top" xlink:title="Lance le thread.">
<polygon fill="white" stroke="black" points="386.5,-120 386.5,-139 492.5,-139 492.5,-120 386.5,-120"/>
<text text-anchor="middle" x="439.5" y="-127" font-family="Helvetica,sans-Serif" font-size="10.00">utils::Thread::start</text>
</a>
</g>
</g>
<!-- Node1&#45;&gt;Node21 -->
<g id="edge31" class="edge">
<title>Node1&#45;&gt;Node21</title>
<path fill="none" stroke="midnightblue" d="M93.82,-424.45C102.89,-380.36 135.56,-250.55 216,-185.5 261.4,-148.79 327.75,-135.76 376.18,-131.32"/>
<polygon fill="midnightblue" stroke="midnightblue" points="376.55,-134.81 386.23,-130.5 375.98,-127.83 376.55,-134.81"/>
</g>
<!-- Node27 -->
<g id="node27" class="node">
<title>Node27</title>
<g id="a_node27"><a xlink:href="classActionManagerTimer.html#a072223491745aebbaa0344124635b7f8" target="_top" xlink:title="Signale au thread qu&#39;il doit s&#39;arreter (proprement). Arrete aussi tous les timers posix en cours en l...">
<polygon fill="white" stroke="black" points="216,-424.5 216,-454.5 335,-454.5 335,-424.5 216,-424.5"/>
<text text-anchor="start" x="224" y="-442.5" font-family="Helvetica,sans-Serif" font-size="10.00">ActionManagerTimer</text>
<text text-anchor="middle" x="275.5" y="-431.5" font-family="Helvetica,sans-Serif" font-size="10.00">::stop</text>
</a>
</g>
</g>
<!-- Node1&#45;&gt;Node27 -->
<g id="edge41" class="edge">
<title>Node1&#45;&gt;Node27</title>
<path fill="none" stroke="midnightblue" d="M180.06,-439.5C188.7,-439.5 197.36,-439.5 205.75,-439.5"/>
<polygon fill="midnightblue" stroke="midnightblue" points="205.83,-443 215.83,-439.5 205.83,-436 205.83,-443"/>
</g>
<!-- Node28 -->
<g id="node28" class="node">
<title>Node28</title>
<g id="a_node28"><a xlink:href="classActionManagerTimer.html#aea93da8bac8e622881a125ee7506a7ca" target="_top" xlink:title="Arrete tous les timers posix. Permet d&#39;executer leur action de fin puis les supprime de la liste.">
<polygon fill="white" stroke="black" points="380,-380.5 380,-410.5 499,-410.5 499,-380.5 380,-380.5"/>
<text text-anchor="start" x="388" y="-398.5" font-family="Helvetica,sans-Serif" font-size="10.00">ActionManagerTimer</text>
<text text-anchor="middle" x="439.5" y="-387.5" font-family="Helvetica,sans-Serif" font-size="10.00">::stopAllPTimers</text>
</a>
</g>
</g>
<!-- Node1&#45;&gt;Node28 -->
<g id="edge54" class="edge">
<title>Node1&#45;&gt;Node28</title>
<path fill="none" stroke="midnightblue" d="M158.88,-424.48C177.34,-420.8 197.38,-417.15 216,-414.5 267.28,-407.21 325.63,-402.35 369.71,-399.38"/>
<polygon fill="midnightblue" stroke="midnightblue" points="369.99,-402.86 379.74,-398.71 369.53,-395.88 369.99,-402.86"/>
</g>
<!-- Node3 -->
<g id="node3" class="node">
<title>Node3</title>
<g id="a_node3"><a xlink:href="classutils_1_1Mutex.html#aa584b418a5ef484f76b93e361a1d7e32" target="_top" xlink:title="Verrouille le mutex. Cette méthode doit être appelée avant d&#39;utiliser la ressource associée....">
<polygon fill="white" stroke="black" points="1120.5,-454 1120.5,-473 1221.5,-473 1221.5,-454 1120.5,-454"/>
<text text-anchor="middle" x="1171" y="-461" font-family="Helvetica,sans-Serif" font-size="10.00">utils::Mutex::lock</text>
</a>
</g>
</g>
<!-- Node2&#45;&gt;Node3 -->
<g id="edge2" class="edge">
<title>Node2&#45;&gt;Node3</title>
<path fill="none" stroke="midnightblue" d="M499.1,-485.21C609.16,-487.91 854.24,-491.54 1060,-477.5 1076.38,-476.38 1094.06,-474.45 1110.35,-472.38"/>
<polygon fill="midnightblue" stroke="midnightblue" points="1110.83,-475.85 1120.29,-471.08 1109.92,-468.91 1110.83,-475.85"/>
</g>
<!-- Node4 -->
<g id="node4" class="node">
<title>Node4</title>
<g id="a_node4"><a xlink:href="classITimerListener.html#a746c0ceee4eb354754d2e90c5638454c" target="_top" xlink:title=" ">
<polygon fill="white" stroke="black" points="550,-506 550,-525 690,-525 690,-506 550,-506"/>
<text text-anchor="middle" x="620" y="-513" font-family="Helvetica,sans-Serif" font-size="10.00">ITimerListener::timeSpan</text>
</a>
</g>
</g>
<!-- Node2&#45;&gt;Node4 -->
<g id="edge3" class="edge">
<title>Node2&#45;&gt;Node4</title>
<path fill="none" stroke="midnightblue" d="M499.44,-494.07C517.52,-497.31 537.48,-500.89 555.83,-504.18"/>
<polygon fill="midnightblue" stroke="midnightblue" points="555.38,-507.65 565.84,-505.97 556.61,-500.76 555.38,-507.65"/>
</g>
<!-- Node5 -->
<g id="node5" class="node">
<title>Node5</title>
<g id="a_node5"><a xlink:href="classActionManagerTimer.html#a39f4cbb5ddbbe6a40980bb59b8b59b05" target="_top" xlink:title=" ">
<polygon fill="white" stroke="black" points="560.5,-620.5 560.5,-650.5 679.5,-650.5 679.5,-620.5 560.5,-620.5"/>
<text text-anchor="start" x="568.5" y="-638.5" font-family="Helvetica,sans-Serif" font-size="10.00">ActionManagerTimer</text>
<text text-anchor="middle" x="620" y="-627.5" font-family="Helvetica,sans-Serif" font-size="10.00">::unblock</text>
</a>
</g>
</g>
<!-- Node2&#45;&gt;Node5 -->
<g id="edge4" class="edge">
<title>Node2&#45;&gt;Node5</title>
<path fill="none" stroke="midnightblue" d="M449.82,-498.7C466.05,-524.05 501.84,-575.16 544,-605.5 549.51,-609.46 555.61,-613 561.89,-616.13"/>
<polygon fill="midnightblue" stroke="midnightblue" points="560.62,-619.4 571.16,-620.43 563.56,-613.05 560.62,-619.4"/>
</g>
<!-- Node8 -->
<g id="node8" class="node">
<title>Node8</title>
<g id="a_node8"><a xlink:href="classutils_1_1Mutex.html#a59b2079dc7f803d49f78ac9c04406cd3" target="_top" xlink:title="Déverrouille le mutex. Cette méthode doit être appelée après avoir utiliser la ressource associée.">
<polygon fill="white" stroke="black" points="1114.5,-240 1114.5,-259 1227.5,-259 1227.5,-240 1114.5,-240"/>
<text text-anchor="middle" x="1171" y="-247" font-family="Helvetica,sans-Serif" font-size="10.00">utils::Mutex::unlock</text>
</a>
</g>
</g>
<!-- Node2&#45;&gt;Node8 -->
<g id="edge19" class="edge">
<title>Node2&#45;&gt;Node8</title>
<path fill="none" stroke="midnightblue" d="M487.52,-468.37C494.56,-465.46 501.6,-462.16 508,-458.5 601.55,-405.07 638.7,-396.72 696,-305.5 732.7,-247.08 677.85,-197.26 732,-154.5 761.29,-131.37 1012.96,-150.22 1060,-167.5 1098.09,-181.5 1134.21,-213.19 1154.1,-232.82"/>
<polygon fill="midnightblue" stroke="midnightblue" points="1151.61,-235.28 1161.13,-239.93 1156.59,-230.36 1151.61,-235.28"/>
</g>
<!-- Node5&#45;&gt;Node3 -->
<g id="edge12" class="edge">
<title>Node5&#45;&gt;Node3</title>
<path fill="none" stroke="midnightblue" d="M642.45,-620.34C664.05,-605.81 698.83,-584.39 732,-572.5 871.29,-522.58 918.95,-560.19 1060,-515.5 1090.17,-505.94 1122.7,-489.76 1144.5,-477.98"/>
<polygon fill="midnightblue" stroke="midnightblue" points="1146.35,-480.96 1153.43,-473.08 1142.98,-474.82 1146.35,-480.96"/>
</g>
<!-- Node5&#45;&gt;Node6 -->
<g id="edge5" class="edge">
<title>Node5&#45;&gt;Node6</title>
<path fill="none" stroke="midnightblue" d="M679.71,-650.52C704.08,-656.75 731.7,-663.82 753.57,-669.41"/>
<polygon fill="midnightblue" stroke="midnightblue" points="752.94,-672.86 763.49,-671.95 754.67,-666.08 752.94,-672.86"/>
</g>
<!-- Node5&#45;&gt;Node8 -->
<g id="edge18" class="edge">
<title>Node5&#45;&gt;Node8</title>
<path fill="none" stroke="midnightblue" d="M639.48,-620.46C655.24,-607.25 678.12,-587.11 696,-567.5 793.73,-460.3 769.44,-384.1 892,-306.5 926.62,-284.58 1033.6,-267.08 1104.3,-257.51"/>
<polygon fill="midnightblue" stroke="midnightblue" points="1105.01,-260.95 1114.45,-256.16 1104.08,-254.01 1105.01,-260.95"/>
</g>
<!-- Node10 -->
<g id="node10" class="node">
<title>Node10</title>
<g id="a_node10"><a xlink:href="classlogs_1_1Logger.html#a8b6a2019233bc44b3c3c86c653910831" target="_top" xlink:title="Trace un message de niveau ERROR.">
<polygon fill="white" stroke="black" points="741.5,-582 741.5,-601 846.5,-601 846.5,-582 741.5,-582"/>
<text text-anchor="middle" x="794" y="-589" font-family="Helvetica,sans-Serif" font-size="10.00">logs::Logger::error</text>
</a>
</g>
</g>
<!-- Node5&#45;&gt;Node10 -->
<g id="edge10" class="edge">
<title>Node5&#45;&gt;Node10</title>
<path fill="none" stroke="midnightblue" d="M679.71,-620.48C701.37,-614.94 725.61,-608.74 746.09,-603.5"/>
<polygon fill="midnightblue" stroke="midnightblue" points="746.99,-606.88 755.82,-601.01 745.26,-600.1 746.99,-606.88"/>
</g>
<!-- Node11 -->
<g id="node11" class="node">
<title>Node11</title>
<g id="a_node11"><a xlink:href="classActionManagerTimer.html#a280846361e5c7e0ebe57972755841c2b" target="_top" xlink:title=" ">
<polygon fill="white" stroke="black" points="734.5,-620.5 734.5,-650.5 853.5,-650.5 853.5,-620.5 734.5,-620.5"/>
<text text-anchor="start" x="742.5" y="-638.5" font-family="Helvetica,sans-Serif" font-size="10.00">ActionManagerTimer</text>
<text text-anchor="middle" x="794" y="-627.5" font-family="Helvetica,sans-Serif" font-size="10.00">::logger</text>
</a>
</g>
</g>
<!-- Node5&#45;&gt;Node11 -->
<g id="edge13" class="edge">
<title>Node5&#45;&gt;Node11</title>
<path fill="none" stroke="midnightblue" d="M679.71,-635.5C694.02,-635.5 709.46,-635.5 724.19,-635.5"/>
<polygon fill="midnightblue" stroke="midnightblue" points="724.26,-639 734.26,-635.5 724.26,-632 724.26,-639"/>
</g>
<!-- Node7 -->
<g id="node7" class="node">
<title>Node7</title>
<g id="a_node7"><a xlink:href="classlogs_1_1Logger_1_1LoggerBuffer.html#a0e4fd77693fd899ec1b0670354f93a02" target="_top" xlink:title="Cette méthode valide le message en cours de construction et le transmet au Logger de référence.">
<polygon fill="white" stroke="black" points="892,-622 892,-641 1060,-641 1060,-622 892,-622"/>
<text text-anchor="middle" x="976" y="-629" font-family="Helvetica,sans-Serif" font-size="10.00">logs::Logger::LoggerBuffer::end</text>
</a>
</g>
</g>
<!-- Node6&#45;&gt;Node7 -->
<g id="edge6" class="edge">
<title>Node6&#45;&gt;Node7</title>
<path fill="none" stroke="midnightblue" d="M824.72,-671.57C853.23,-663.97 896.66,-652.39 929.52,-643.63"/>
<polygon fill="midnightblue" stroke="midnightblue" points="930.59,-646.97 939.35,-641.01 928.78,-640.2 930.59,-646.97"/>
</g>
<!-- Node7&#45;&gt;Node3 -->
<g id="edge7" class="edge">
<title>Node7&#45;&gt;Node3</title>
<path fill="none" stroke="midnightblue" d="M988.02,-621.96C1003.92,-608.18 1034.24,-581.91 1060,-559.5 1092.22,-531.47 1129.67,-498.75 1151.52,-479.66"/>
<polygon fill="midnightblue" stroke="midnightblue" points="1153.85,-482.27 1159.08,-473.05 1149.25,-477 1153.85,-482.27"/>
</g>
<!-- Node7&#45;&gt;Node8 -->
<g id="edge8" class="edge">
<title>Node7&#45;&gt;Node8</title>
<path fill="none" stroke="midnightblue" d="M981.96,-621.67C1007.67,-570.8 1125.76,-337.06 1160.41,-268.47"/>
<polygon fill="midnightblue" stroke="midnightblue" points="1163.68,-269.77 1165.07,-259.26 1157.43,-266.61 1163.68,-269.77"/>
</g>
<!-- Node9 -->
<g id="node9" class="node">
<title>Node9</title>
<g id="a_node9"><a xlink:href="classlogs_1_1Logger.html#afa535aaf4891e02c4ff7f84d372b5b1b" target="_top" xlink:title="Méthode générique de trace d&#39;un message.">
<polygon fill="white" stroke="black" points="1096,-648 1096,-667 1246,-667 1246,-648 1096,-648"/>
<text text-anchor="middle" x="1171" y="-655" font-family="Helvetica,sans-Serif" font-size="10.00">logs::Logger::writeMessage</text>
</a>
</g>
</g>
<!-- Node7&#45;&gt;Node9 -->
<g id="edge9" class="edge">
<title>Node7&#45;&gt;Node9</title>
<path fill="none" stroke="midnightblue" d="M1047.77,-641.03C1061.28,-642.85 1075.51,-644.77 1089.29,-646.63"/>
<polygon fill="midnightblue" stroke="midnightblue" points="1088.86,-650.1 1099.24,-647.97 1089.8,-643.16 1088.86,-650.1"/>
</g>
<!-- Node10&#45;&gt;Node9 -->
<g id="edge11" class="edge">
<title>Node10&#45;&gt;Node9</title>
<path fill="none" stroke="midnightblue" d="M836.38,-601.07C843.22,-603.57 850.02,-606.67 856,-610.5 876.14,-623.41 870.28,-640.5 892,-650.5 962.95,-683.17 1055.25,-677.34 1113.58,-668.63"/>
<polygon fill="midnightblue" stroke="midnightblue" points="1114.38,-672.05 1123.71,-667.04 1113.29,-665.13 1114.38,-672.05"/>
</g>
<!-- Node12 -->
<g id="node12" class="node">
<title>Node12</title>
<g id="a_node12"><a xlink:href="classlogs_1_1LoggerFactory.html#a82585b5de73e471e06cafdccc3b3721e" target="_top" xlink:title="Cette méthode statique retourne un Logger en fonction de son nom.">
<polygon fill="white" stroke="black" points="920.5,-760.5 920.5,-790.5 1031.5,-790.5 1031.5,-760.5 920.5,-760.5"/>
<text text-anchor="start" x="928.5" y="-778.5" font-family="Helvetica,sans-Serif" font-size="10.00">logs::LoggerFactory</text>
<text text-anchor="middle" x="976" y="-767.5" font-family="Helvetica,sans-Serif" font-size="10.00">::logger</text>
</a>
</g>
</g>
<!-- Node11&#45;&gt;Node12 -->
<g id="edge14" class="edge">
<title>Node11&#45;&gt;Node12</title>
<path fill="none" stroke="midnightblue" d="M842.63,-650.54C847.51,-653.35 852.09,-656.64 856,-660.5 885.18,-689.34 862.22,-717.28 892,-745.5 897.63,-750.84 904.28,-755.23 911.32,-758.86"/>
<polygon fill="midnightblue" stroke="midnightblue" points="909.87,-762.04 920.41,-763.04 912.8,-755.68 909.87,-762.04"/>
</g>
<!-- Node13 -->
<g id="node13" class="node">
<title>Node13</title>
<g id="a_node13"><a xlink:href="classlogs_1_1LoggerFactory.html#ac89f19c0ffd71aa8cdc1c2d44c03809e" target="_top" xlink:title="Cette méthode ajoute un appender au système.">
<polygon fill="white" stroke="black" points="1104,-810 1104,-829 1238,-829 1238,-810 1104,-810"/>
<text text-anchor="middle" x="1171" y="-817" font-family="Helvetica,sans-Serif" font-size="10.00">logs::LoggerFactory::add</text>
</a>
</g>
</g>
<!-- Node12&#45;&gt;Node13 -->
<g id="edge15" class="edge">
<title>Node12&#45;&gt;Node13</title>
<path fill="none" stroke="midnightblue" d="M1031.53,-787.93C1058.71,-794.13 1091.41,-801.58 1118.21,-807.69"/>
<polygon fill="midnightblue" stroke="midnightblue" points="1117.64,-811.15 1128.16,-809.96 1119.19,-804.33 1117.64,-811.15"/>
</g>
<!-- Node14 -->
<g id="node14" class="node">
<title>Node14</title>
<g id="a_node14"><a xlink:href="classlogs_1_1LoggerFactory.html#a90478b91d7af2ef8841ded21e3521f69" target="_top" xlink:title="Cette méthode statique retourne l&#39;instance unique de la classe LoggerFactory.">
<polygon fill="white" stroke="black" points="1115.5,-760.5 1115.5,-790.5 1226.5,-790.5 1226.5,-760.5 1115.5,-760.5"/>
<text text-anchor="start" x="1123.5" y="-778.5" font-family="Helvetica,sans-Serif" font-size="10.00">logs::LoggerFactory</text>
<text text-anchor="middle" x="1171" y="-767.5" font-family="Helvetica,sans-Serif" font-size="10.00">::instance</text>
</a>
</g>
</g>
<!-- Node12&#45;&gt;Node14 -->
<g id="edge16" class="edge">
<title>Node12&#45;&gt;Node14</title>
<path fill="none" stroke="midnightblue" d="M1031.53,-775.5C1054.45,-775.5 1081.3,-775.5 1105.22,-775.5"/>
<polygon fill="midnightblue" stroke="midnightblue" points="1105.27,-779 1115.27,-775.5 1105.27,-772 1105.27,-779"/>
</g>
<!-- Node15 -->
<g id="node15" class="node">
<title>Node15</title>
<g id="a_node15"><a xlink:href="classlogs_1_1LoggerFactory.html#a212aa623f4b6bee12cb39e8017dde670" target="_top" xlink:title="Cette méthode retourne le Logger principal qui définit le niveau de trace par défaut.">
<polygon fill="white" stroke="black" points="1115.5,-711.5 1115.5,-741.5 1226.5,-741.5 1226.5,-711.5 1115.5,-711.5"/>
<text text-anchor="start" x="1123.5" y="-729.5" font-family="Helvetica,sans-Serif" font-size="10.00">logs::LoggerFactory</text>
<text text-anchor="middle" x="1171" y="-718.5" font-family="Helvetica,sans-Serif" font-size="10.00">::rootLogger</text>
</a>
</g>
</g>
<!-- Node12&#45;&gt;Node15 -->
<g id="edge17" class="edge">
<title>Node12&#45;&gt;Node15</title>
<path fill="none" stroke="midnightblue" d="M1031.53,-761.66C1054.56,-755.81 1081.54,-748.96 1105.54,-742.87"/>
<polygon fill="midnightblue" stroke="midnightblue" points="1106.44,-746.25 1115.27,-740.4 1104.71,-739.46 1106.44,-746.25"/>
</g>
<!-- Node16&#45;&gt;Node3 -->
<g id="edge21" class="edge">
<title>Node16&#45;&gt;Node3</title>
<path fill="none" stroke="midnightblue" d="M1028.96,-346.65C1039.6,-350.74 1050.45,-355.68 1060,-361.5 1098.85,-385.17 1135.9,-424.03 1155.51,-446.33"/>
<polygon fill="midnightblue" stroke="midnightblue" points="1152.96,-448.72 1162.15,-454 1158.25,-444.14 1152.96,-448.72"/>
</g>
<!-- Node16&#45;&gt;Node8 -->
<g id="edge22" class="edge">
<title>Node16&#45;&gt;Node8</title>
<path fill="none" stroke="midnightblue" d="M1021.24,-316.39C1033.85,-311.84 1047.55,-306.68 1060,-301.5 1088.37,-289.7 1120.02,-274.52 1142.06,-263.61"/>
<polygon fill="midnightblue" stroke="midnightblue" points="1143.78,-266.66 1151.17,-259.07 1140.66,-260.4 1143.78,-266.66"/>
</g>
<!-- Node17&#45;&gt;Node3 -->
<g id="edge27" class="edge">
<title>Node17&#45;&gt;Node3</title>
<path fill="none" stroke="midnightblue" d="M499.05,-723.79C635.9,-723.36 971.78,-715.51 1060,-650.5 1119.06,-606.98 1151.93,-521.43 1164.27,-483"/>
<polygon fill="midnightblue" stroke="midnightblue" points="1167.72,-483.67 1167.33,-473.09 1161.04,-481.61 1167.72,-483.67"/>
</g>
<!-- Node17&#45;&gt;Node5 -->
<g id="edge29" class="edge">
<title>Node17&#45;&gt;Node5</title>
<path fill="none" stroke="midnightblue" d="M471.19,-708.37C501.03,-693.66 546.53,-671.23 579.16,-655.14"/>
<polygon fill="midnightblue" stroke="midnightblue" points="581,-658.14 588.42,-650.58 577.9,-651.86 581,-658.14"/>
</g>
<!-- Node17&#45;&gt;Node8 -->
<g id="edge30" class="edge">
<title>Node17&#45;&gt;Node8</title>
<path fill="none" stroke="midnightblue" d="M451.47,-708.33C468.95,-684.97 505.14,-639.83 544,-610.5 604.29,-565 650.86,-595.06 696,-534.5 751.28,-460.33 674.07,-401.62 732,-329.5 821.06,-218.62 1008.35,-225.8 1106.67,-238.61"/>
<polygon fill="midnightblue" stroke="midnightblue" points="1106.38,-242.1 1116.76,-239.98 1107.33,-235.17 1106.38,-242.1"/>
</g>
<!-- Node18 -->
<g id="node18" class="node">
<title>Node18</title>
<g id="a_node18"><a xlink:href="classutils_1_1PointerList.html#a501664b90309db885554d35e89739681" target="_top" xlink:title="Returns a read/write iterator that points to the first element in the list. Iteration is done in ordi...">
<polygon fill="white" stroke="black" points="572.5,-746.5 572.5,-776.5 667.5,-776.5 667.5,-746.5 572.5,-746.5"/>
<text text-anchor="start" x="580.5" y="-764.5" font-family="Helvetica,sans-Serif" font-size="10.00">utils::PointerList</text>
<text text-anchor="middle" x="620" y="-753.5" font-family="Helvetica,sans-Serif" font-size="10.00">::begin</text>
</a>
</g>
</g>
<!-- Node17&#45;&gt;Node18 -->
<g id="edge25" class="edge">
<title>Node17&#45;&gt;Node18</title>
<path fill="none" stroke="midnightblue" d="M499.44,-736.05C519.68,-740.36 542.28,-745.17 562.34,-749.44"/>
<polygon fill="midnightblue" stroke="midnightblue" points="561.75,-752.89 572.26,-751.55 563.21,-746.05 561.75,-752.89"/>
</g>
<!-- Node19 -->
<g id="node19" class="node">
<title>Node19</title>
<g id="a_node19"><a xlink:href="classutils_1_1PointerList.html#a9607cdd93b715a838e015452a49f61d5" target="_top" xlink:title="Returns a read/write iterator that points one past the last element in the list. Iteration is done in...">
<polygon fill="white" stroke="black" points="560.5,-845 560.5,-864 679.5,-864 679.5,-845 560.5,-845"/>
<text text-anchor="middle" x="620" y="-852" font-family="Helvetica,sans-Serif" font-size="10.00">utils::PointerList::end</text>
</a>
</g>
</g>
<!-- Node17&#45;&gt;Node19 -->
<g id="edge26" class="edge">
<title>Node17&#45;&gt;Node19</title>
<path fill="none" stroke="midnightblue" d="M450.25,-738.79C466.6,-763.12 501.9,-810.47 544,-835.5 547.64,-837.66 551.51,-839.58 555.52,-841.28"/>
<polygon fill="midnightblue" stroke="midnightblue" points="554.44,-844.62 565.03,-844.87 556.91,-838.07 554.44,-844.62"/>
</g>
<!-- Node20 -->
<g id="node20" class="node">
<title>Node20</title>
<g id="a_node20"><a xlink:href="classITimerPosixListener.html#a56abc90e01e315320b855399b2c0096e" target="_top" xlink:title="Getter sur les infos permettant d&#39;identifier le timer.">
<polygon fill="white" stroke="black" points="563.5,-795.5 563.5,-825.5 676.5,-825.5 676.5,-795.5 563.5,-795.5"/>
<text text-anchor="start" x="571.5" y="-813.5" font-family="Helvetica,sans-Serif" font-size="10.00">ITimerPosixListener</text>
<text text-anchor="middle" x="620" y="-802.5" font-family="Helvetica,sans-Serif" font-size="10.00">::name</text>
</a>
</g>
</g>
<!-- Node17&#45;&gt;Node20 -->
<g id="edge28" class="edge">
<title>Node17&#45;&gt;Node20</title>
<path fill="none" stroke="midnightblue" d="M461.88,-738.59C482.24,-752.46 514.15,-772.87 544,-786.5 548.1,-788.37 552.38,-790.16 556.74,-791.85"/>
<polygon fill="midnightblue" stroke="midnightblue" points="555.76,-795.22 566.35,-795.41 558.19,-788.65 555.76,-795.22"/>
</g>
<!-- Node22 -->
<g id="node22" class="node">
<title>Node22</title>
<g id="a_node22"><a xlink:href="classutils_1_1Thread.html#a61b6c3d0b87570254646120b323b89f7" target="_top" xlink:title="Cette méthode sert de point d&#39;entrée pour l&#39;appel à pcreate_thread.">
<polygon fill="white" stroke="black" points="553,-120 553,-139 687,-139 687,-120 553,-120"/>
<text text-anchor="middle" x="620" y="-127" font-family="Helvetica,sans-Serif" font-size="10.00">utils::Thread::entryPoint</text>
</a>
</g>
</g>
<!-- Node21&#45;&gt;Node22 -->
<g id="edge32" class="edge">
<title>Node21&#45;&gt;Node22</title>
<path fill="none" stroke="midnightblue" d="M492.61,-129.5C508.2,-129.5 525.64,-129.5 542.46,-129.5"/>
<polygon fill="midnightblue" stroke="midnightblue" points="542.83,-133 552.83,-129.5 542.83,-126 542.83,-133"/>
</g>
<!-- Node26 -->
<g id="node26" class="node">
<title>Node26</title>
<g id="a_node26"><a xlink:href="namespaceutils.html#ac714339512d6dc1ee14c5b5a92d535be" target="_top" xlink:title="Définit la priorité temps&#45;réel (SCHED_FIFO) du thread spécifié.">
<polygon fill="white" stroke="black" points="567.5,-0.5 567.5,-30.5 672.5,-30.5 672.5,-0.5 567.5,-0.5"/>
<text text-anchor="start" x="575.5" y="-18.5" font-family="Helvetica,sans-Serif" font-size="10.00">utils::set_realtime</text>
<text text-anchor="middle" x="620" y="-7.5" font-family="Helvetica,sans-Serif" font-size="10.00">_priority</text>
</a>
</g>
</g>
<!-- Node21&#45;&gt;Node26 -->
<g id="edge40" class="edge">
<title>Node21&#45;&gt;Node26</title>
<path fill="none" stroke="midnightblue" d="M450.31,-119.8C467.85,-102.88 506.29,-67.65 544,-45.5 550.72,-41.55 558.05,-37.91 565.42,-34.62"/>
<polygon fill="midnightblue" stroke="midnightblue" points="566.9,-37.79 574.72,-30.64 564.15,-31.35 566.9,-37.79"/>
</g>
<!-- Node23 -->
<g id="node23" class="node">
<title>Node23</title>
<g id="a_node23"><a xlink:href="classutils_1_1Thread.html#a202b3fabad41b3be6d996043b262a43a" target="_top" xlink:title="Méthode virtuelle pure à implémenter dans les sous&#45;classes.">
<polygon fill="white" stroke="black" points="733,-88 733,-107 855,-107 855,-88 733,-88"/>
<text text-anchor="middle" x="794" y="-95" font-family="Helvetica,sans-Serif" font-size="10.00">utils::Thread::execute</text>
</a>
</g>
</g>
<!-- Node22&#45;&gt;Node23 -->
<g id="edge33" class="edge">
<title>Node22&#45;&gt;Node23</title>
<path fill="none" stroke="midnightblue" d="M672.14,-119.99C690.86,-116.5 712.23,-112.53 731.75,-108.9"/>
<polygon fill="midnightblue" stroke="midnightblue" points="732.57,-112.3 741.76,-107.03 731.29,-105.42 732.57,-112.3"/>
</g>
<!-- Node24 -->
<g id="node24" class="node">
<title>Node24</title>
<g id="a_node24"><a xlink:href="classutils_1_1Thread.html#a46589324e8fc0735c20268db70d34aa5" target="_top" xlink:title="Modifie l&#39;état du thread (thread&#45;safe).">
<polygon fill="white" stroke="black" points="732,-164 732,-183 856,-183 856,-164 732,-164"/>
<text text-anchor="middle" x="794" y="-171" font-family="Helvetica,sans-Serif" font-size="10.00">utils::Thread::setState</text>
</a>
</g>
</g>
<!-- Node22&#45;&gt;Node24 -->
<g id="edge34" class="edge">
<title>Node22&#45;&gt;Node24</title>
<path fill="none" stroke="midnightblue" d="M658.32,-139.05C684.02,-145.62 718.36,-154.4 745.93,-161.46"/>
<polygon fill="midnightblue" stroke="midnightblue" points="745.2,-164.88 755.75,-163.97 746.93,-158.1 745.2,-164.88"/>
</g>
<!-- Node24&#45;&gt;Node3 -->
<g id="edge35" class="edge">
<title>Node24&#45;&gt;Node3</title>
<path fill="none" stroke="midnightblue" d="M798.92,-183.24C812.91,-217.52 861.18,-331.85 892,-355.5 952.81,-402.17 989.23,-365.06 1060,-394.5 1093.51,-408.44 1128.38,-432.14 1149.64,-447.8"/>
<polygon fill="midnightblue" stroke="midnightblue" points="1147.78,-450.78 1157.88,-453.98 1151.98,-445.18 1147.78,-450.78"/>
</g>
<!-- Node24&#45;&gt;Node8 -->
<g id="edge39" class="edge">
<title>Node24&#45;&gt;Node8</title>
<path fill="none" stroke="midnightblue" d="M856.19,-170.95C910.69,-170.3 992.08,-173.35 1060,-192.5 1092.28,-201.6 1126.05,-220.76 1147.51,-234.35"/>
<polygon fill="midnightblue" stroke="midnightblue" points="1145.89,-237.47 1156.19,-239.97 1149.7,-231.6 1145.89,-237.47"/>
</g>
<!-- Node25 -->
<g id="node25" class="node">
<title>Node25</title>
<g id="a_node25"><a xlink:href="classutils_1_1Thread.html#ada9233f3e669c925e9ed518201ad31cd" target="_top" xlink:title="Retourne l&#39;état courant du thread.">
<polygon fill="white" stroke="black" points="922,-202 922,-221 1030,-221 1030,-202 922,-202"/>
<text text-anchor="middle" x="976" y="-209" font-family="Helvetica,sans-Serif" font-size="10.00">utils::Thread::state</text>
</a>
</g>
</g>
<!-- Node24&#45;&gt;Node25 -->
<g id="edge36" class="edge">
<title>Node24&#45;&gt;Node25</title>
<path fill="none" stroke="midnightblue" d="M840.42,-183.09C864.6,-188.19 894.53,-194.51 920.01,-199.89"/>
<polygon fill="midnightblue" stroke="midnightblue" points="919.4,-203.34 929.91,-201.98 920.84,-196.49 919.4,-203.34"/>
</g>
<!-- Node25&#45;&gt;Node3 -->
<g id="edge37" class="edge">
<title>Node25&#45;&gt;Node3</title>
<path fill="none" stroke="midnightblue" d="M986.08,-221.19C1001.75,-238.05 1034.61,-274.09 1060,-306.5 1097.97,-354.96 1138.5,-415.36 1158.07,-445.14"/>
<polygon fill="midnightblue" stroke="midnightblue" points="1155.25,-447.23 1163.65,-453.68 1161.11,-443.4 1155.25,-447.23"/>
</g>
<!-- Node25&#45;&gt;Node8 -->
<g id="edge38" class="edge">
<title>Node25&#45;&gt;Node8</title>
<path fill="none" stroke="midnightblue" d="M1025.7,-221.09C1051.86,-226.24 1084.28,-232.62 1111.77,-238.03"/>
<polygon fill="midnightblue" stroke="midnightblue" points="1111.16,-241.48 1121.65,-239.98 1112.51,-234.61 1111.16,-241.48"/>
</g>
<!-- Node27&#45;&gt;Node28 -->
<g id="edge42" class="edge">
<title>Node27&#45;&gt;Node28</title>
<path fill="none" stroke="midnightblue" d="M331.8,-424.48C345.15,-420.85 359.54,-416.95 373.29,-413.21"/>
<polygon fill="midnightblue" stroke="midnightblue" points="374.44,-416.53 383.18,-410.53 372.61,-409.77 374.44,-416.53"/>
</g>
<!-- Node32 -->
<g id="node32" class="node">
<title>Node32</title>
<g id="a_node32"><a xlink:href="classutils_1_1Thread.html#a29b8cb62f6b5f80ffe5b050167780f97" target="_top" xlink:title="Attend la fin du thread (appelle pthread_join).">
<polygon fill="white" stroke="black" points="371,-430 371,-449 508,-449 508,-430 371,-430"/>
<text text-anchor="middle" x="439.5" y="-437" font-family="Helvetica,sans-Serif" font-size="10.00">utils::Thread::waitForEnd</text>
</a>
</g>
</g>
<!-- Node27&#45;&gt;Node32 -->
<g id="edge53" class="edge">
<title>Node27&#45;&gt;Node32</title>
<path fill="none" stroke="midnightblue" d="M335.44,-439.5C343.61,-439.5 352.1,-439.5 360.55,-439.5"/>
<polygon fill="midnightblue" stroke="midnightblue" points="360.81,-443 370.81,-439.5 360.81,-436 360.81,-443"/>
</g>
<!-- Node28&#45;&gt;Node3 -->
<g id="edge44" class="edge">
<title>Node28&#45;&gt;Node3</title>
<path fill="none" stroke="midnightblue" d="M499.36,-402.01C603.71,-413.51 817.21,-436.84 892,-443.5 967.21,-450.2 1054.02,-456.16 1110.34,-459.8"/>
<polygon fill="midnightblue" stroke="midnightblue" points="1110.29,-463.3 1120.49,-460.45 1110.74,-456.32 1110.29,-463.3"/>
</g>
<!-- Node28&#45;&gt;Node5 -->
<g id="edge51" class="edge">
<title>Node28&#45;&gt;Node5</title>
<path fill="none" stroke="midnightblue" d="M496.34,-410.52C500.7,-413.3 504.68,-416.59 508,-420.5 562.23,-484.34 490.6,-540.96 544,-605.5 546.95,-609.06 550.38,-612.2 554.12,-614.97"/>
<polygon fill="midnightblue" stroke="midnightblue" points="552.42,-618.04 562.74,-620.46 556.18,-612.14 552.42,-618.04"/>
</g>
<!-- Node28&#45;&gt;Node8 -->
<g id="edge52" class="edge">
<title>Node28&#45;&gt;Node8</title>
<path fill="none" stroke="midnightblue" d="M440.98,-380.5C443.36,-332.64 457.72,-182.52 544,-110.5 632.05,-37.01 961.29,-63.09 1060,-121.5 1106.24,-148.86 1142.68,-202.7 1159.63,-231.05"/>
<polygon fill="midnightblue" stroke="midnightblue" points="1156.74,-233.04 1164.8,-239.93 1162.79,-229.52 1156.74,-233.04"/>
</g>
<!-- Node28&#45;&gt;Node10 -->
<g id="edge43" class="edge">
<title>Node28&#45;&gt;Node10</title>
<path fill="none" stroke="midnightblue" d="M496.7,-410.5C550.66,-426.52 633.04,-455.29 696,-496.5 729.63,-518.51 761.49,-553.35 779.02,-574.16"/>
<polygon fill="midnightblue" stroke="midnightblue" points="776.35,-576.42 785.42,-581.89 781.74,-571.95 776.35,-576.42"/>
</g>
<!-- Node28&#45;&gt;Node11 -->
<g id="edge45" class="edge">
<title>Node28&#45;&gt;Node11</title>
<path fill="none" stroke="midnightblue" d="M495.23,-410.54C499.93,-413.32 504.29,-416.61 508,-420.5 544.64,-458.98 507.95,-495.47 544,-534.5 570.3,-562.98 667.42,-597.06 732.31,-617.45"/>
<polygon fill="midnightblue" stroke="midnightblue" points="731.44,-620.85 742.03,-620.49 733.53,-614.17 731.44,-620.85"/>
</g>
<!-- Node29 -->
<g id="node29" class="node">
<title>Node29</title>
<g id="a_node29"><a xlink:href="classITimerListener.html#a0004b567b000eef6df12d9d970909142" target="_top" xlink:title="Actions de fin à executer pour le timer.">
<polygon fill="white" stroke="black" points="544,-228 544,-247 696,-247 696,-228 544,-228"/>
<text text-anchor="middle" x="620" y="-235" font-family="Helvetica,sans-Serif" font-size="10.00">ITimerListener::onTimerEnd</text>
</a>
</g>
</g>
<!-- Node28&#45;&gt;Node29 -->
<g id="edge46" class="edge">
<title>Node28&#45;&gt;Node29</title>
<path fill="none" stroke="midnightblue" d="M447.45,-380.25C461.42,-351.39 495.73,-288.78 544,-256.5 547.08,-254.44 550.38,-252.6 553.8,-250.96"/>
<polygon fill="midnightblue" stroke="midnightblue" points="555.21,-254.16 563.09,-247.07 552.51,-247.7 555.21,-254.16"/>
</g>
<!-- Node30 -->
<g id="node30" class="node">
<title>Node30</title>
<g id="a_node30"><a xlink:href="classITimerPosixListener.html#a4df70962b58b13d521f1f7f91ec6fc13" target="_top" xlink:title="Actions de fin à executer pour le timer.">
<polygon fill="white" stroke="black" points="563.5,-266.5 563.5,-296.5 676.5,-296.5 676.5,-266.5 563.5,-266.5"/>
<text text-anchor="start" x="571.5" y="-284.5" font-family="Helvetica,sans-Serif" font-size="10.00">ITimerPosixListener</text>
<text text-anchor="middle" x="620" y="-273.5" font-family="Helvetica,sans-Serif" font-size="10.00">::onTimerEnd</text>
</a>
</g>
</g>
<!-- Node28&#45;&gt;Node30 -->
<g id="edge47" class="edge">
<title>Node28&#45;&gt;Node30</title>
<path fill="none" stroke="midnightblue" d="M455.87,-380.5C475.16,-362.29 509.88,-331.54 544,-311.5 550.72,-307.55 558.05,-303.91 565.42,-300.62"/>
<polygon fill="midnightblue" stroke="midnightblue" points="566.9,-303.79 574.72,-296.64 564.15,-297.35 566.9,-303.79"/>
</g>
<!-- Node31 -->
<g id="node31" class="node">
<title>Node31</title>
<g id="a_node31"><a xlink:href="classITimerPosixListener.html#a80bdf978eda3cfa0d9271a3c2e1d3f3a" target="_top" xlink:title=" ">
<polygon fill="white" stroke="black" points="919.5,-404.5 919.5,-434.5 1032.5,-434.5 1032.5,-404.5 919.5,-404.5"/>
<text text-anchor="start" x="927.5" y="-422.5" font-family="Helvetica,sans-Serif" font-size="10.00">ITimerPosixListener</text>
<text text-anchor="middle" x="976" y="-411.5" font-family="Helvetica,sans-Serif" font-size="10.00">::remove</text>
</a>
</g>
</g>
<!-- Node28&#45;&gt;Node31 -->
<g id="edge48" class="edge">
<title>Node28&#45;&gt;Node31</title>
<path fill="none" stroke="midnightblue" d="M499.02,-390.19C513.69,-389.07 529.41,-388.06 544,-387.5 611.51,-384.89 628.55,-383.64 696,-387.5 769.2,-391.68 852.68,-402 909.1,-409.79"/>
<polygon fill="midnightblue" stroke="midnightblue" points="908.93,-413.3 919.32,-411.22 909.89,-406.37 908.93,-413.3"/>
</g>
<!-- Node31&#45;&gt;Node3 -->
<g id="edge49" class="edge">
<title>Node31&#45;&gt;Node3</title>
<path fill="none" stroke="midnightblue" d="M1032.56,-432.17C1059.62,-438.34 1091.95,-445.71 1118.45,-451.75"/>
<polygon fill="midnightblue" stroke="midnightblue" points="1117.77,-455.18 1128.3,-453.99 1119.33,-448.36 1117.77,-455.18"/>
</g>
<!-- Node31&#45;&gt;Node8 -->
<g id="edge50" class="edge">
<title>Node31&#45;&gt;Node8</title>
<path fill="none" stroke="midnightblue" d="M997.97,-404.33C1015.06,-391.73 1039.61,-373.09 1060,-355.5 1094.54,-325.7 1132.33,-288.08 1153.41,-266.61"/>
<polygon fill="midnightblue" stroke="midnightblue" points="1156.14,-268.83 1160.62,-259.23 1151.13,-263.93 1156.14,-268.83"/>
</g>
</g>
</svg>
        <g id="navigator" transform="translate(0 0)" fill="#404254">
                <rect fill="#f2f5e9" fill-opacity="0.5" stroke="#606060" stroke-width=".5" x="0" y="0" width="60" height="60"/>
                <use id="zoomplus" xlink:href="#zoomPlus" x="17" y="9" onmousedown="handleZoom(evt,'in')"/>
                <use id="zoomminus" xlink:href="#zoomMin" x="42" y="9" onmousedown="handleZoom(evt,'out')"/>
                <use id="reset" xlink:href="#resetDef" x="30" y="36" onmousedown="handleReset()"/>
                <g id="arrowUp" xlink:href="#dirArrow" transform="translate(30 24)" onmousedown="handlePan(0,-1)">
                  <use xlink:href="#rim" fill="#404040">
                        <set attributeName="fill" to="#808080" begin="arrowUp.mouseover" end="arrowUp.mouseout"/>
                  </use>
                  <path fill="none" stroke="white" stroke-width="1.5" d="M0,-3.0v7 M-2.5,-0.5L0,-3.0L2.5,-0.5"/>
                </g>
                <g id="arrowRight" xlink:href="#dirArrow" transform="rotate(90) translate(36 -43)" onmousedown="handlePan(1,0)">
                  <use xlink:href="#rim" fill="#404040">
                        <set attributeName="fill" to="#808080" begin="arrowRight.mouseover" end="arrowRight.mouseout"/>
                  </use>
                  <path fill="none" stroke="white" stroke-width="1.5" d="M0,-3.0v7 M-2.5,-0.5L0,-3.0L2.5,-0.5"/>
                </g>
                <g id="arrowDown" xlink:href="#dirArrow" transform="rotate(180) translate(-30 -48)" onmousedown="handlePan(0,1)">
                  <use xlink:href="#rim" fill="#404040">
                        <set attributeName="fill" to="#808080" begin="arrowDown.mouseover" end="arrowDown.mouseout"/>
                  </use>
                  <path fill="none" stroke="white" stroke-width="1.5" d="M0,-3.0v7 M-2.5,-0.5L0,-3.0L2.5,-0.5"/>
                </g>
                <g id="arrowLeft" xlink:href="#dirArrow" transform="rotate(270) translate(-36 17)" onmousedown="handlePan(-1,0)">
                  <use xlink:href="#rim" fill="#404040">
                        <set attributeName="fill" to="#808080" begin="arrowLeft.mouseover" end="arrowLeft.mouseout"/>
                  </use>
                  <path fill="none" stroke="white" stroke-width="1.5" d="M0,-3.0v7 M-2.5,-0.5L0,-3.0L2.5,-0.5"/>
                </g>
        </g>
        <svg viewBox="0 0 15 15" width="100%" height="30px" preserveAspectRatio="xMaxYMin meet">
         <g id="arrow_out" transform="scale(0.3 0.3)">
          <a xlink:href="classtest_1_1ActionManagerTimerTest_a4aacf49d9169942e4b64d8954ba07913_cgraph_org.svg" target="_base">
           <rect id="button" ry="5" rx="5" y="6" x="6" height="38" width="38"
                fill="#f2f5e9" fill-opacity="0.5" stroke="#606060" stroke-width="1.0"/>
           <path id="arrow"
             d="M 11.500037,31.436501 C 11.940474,20.09759 22.043105,11.32322 32.158766,21.979434 L 37.068811,17.246167 C 37.068811,17.246167 37.088388,32 37.088388,32 L 22.160133,31.978069 C 22.160133,31.978069 26.997745,27.140456 26.997745,27.140456 C 18.528582,18.264221 13.291696,25.230495 11.500037,31.436501 z"
             style="fill:#404040;"/>
          </a>
         </g>
        </svg>
</svg>
