<?xml version="1.0" encoding="UTF-8" standalone="no"?>
<!DOCTYPE svg PUBLIC "-//W3C//DTD SVG 1.1//EN"
 "http://www.w3.org/Graphics/SVG/1.1/DTD/svg11.dtd">
<!-- Generated by graphviz version 2.43.0 (0)
 -->
<!-- Title: Adafruit_RGBLCDShield::write__ Pages: 1 -->
<!--zoomable 439 -->
<svg id="main" version="1.1" xmlns="http://www.w3.org/2000/svg" xmlns:xlink="http://www.w3.org/1999/xlink" xml:space="preserve" onload="init(evt)">
<style type="text/css"><![CDATA[
.edge:hover path { stroke: red; }
.edge:hover polygon { stroke: red; fill: red; }
]]></style>
<script type="text/javascript"><![CDATA[
var edges = document.getElementsByTagName('g');
if (edges && edges.length) {
  for (var i=0;i<edges.length;i++) {
    if (edges[i].id.substr(0,4)=='edge') {
      edges[i].setAttribute('class','edge');
    }
  }
}
]]></script>
        <defs>
                <circle id="rim" cx="0" cy="0" r="7"/>
                <circle id="rim2" cx="0" cy="0" r="3.5"/>
                <g id="zoomPlus">
                        <use xlink:href="#rim" fill="#404040">
                                <set attributeName="fill" to="#808080" begin="zoomplus.mouseover" end="zoomplus.mouseout"/>
                        </use>
                        <path d="M-4,0h8M0,-4v8" fill="none" stroke="white" stroke-width="1.5" pointer-events="none"/>
                </g>
                <g id="zoomMin">
                        <use xlink:href="#rim" fill="#404040">
                                <set attributeName="fill" to="#808080" begin="zoomminus.mouseover" end="zoomminus.mouseout"/>
                        </use>
                        <path d="M-4,0h8" fill="none" stroke="white" stroke-width="1.5" pointer-events="none"/>
                </g>
                <g id="dirArrow">
                        <path fill="none" stroke="white" stroke-width="1.5" d="M0,-3.0v7 M-2.5,-0.5L0,-3.0L2.5,-0.5"/>
                </g>
               <g id="resetDef">
                       <use xlink:href="#rim2" fill="#404040">
                               <set attributeName="fill" to="#808080" begin="reset.mouseover" end="reset.mouseout"/>
                       </use>
               </g>
        </defs>

<script type="text/javascript">
var viewWidth = 1364;
var viewHeight = 439;
var sectionId = 'dynsection-47';
</script>
<script xlink:href="svgpan.js"/>
<svg id="graph" class="graph">
<g id="viewport">
<title>Adafruit_RGBLCDShield::write__</title>
<polygon fill="white" stroke="transparent" points="-4,4 -4,-434.5 1360,-434.5 1360,4 -4,4"/>
<!-- Node1 -->
<g id="node1" class="node">
<title>Node1</title>
<g id="a_node1"><a xlink:title=" ">
<polygon fill="#bfbfbf" stroke="black" points="0,-274 0,-304 131,-304 131,-274 0,-274"/>
<text text-anchor="start" x="8" y="-292" font-family="Helvetica,sans-Serif" font-size="10.00">Adafruit_RGBLCDShield</text>
<text text-anchor="middle" x="65.5" y="-281" font-family="Helvetica,sans-Serif" font-size="10.00">::write__</text>
</a>
</g>
</g>
<!-- Node2 -->
<g id="node2" class="node">
<title>Node2</title>
<g id="a_node2"><a xlink:href="classlogs_1_1Logger.html#a7dffc8f610014ec59b63392da16140e4" target="_top" xlink:title="Trace un message de niveau DEBUG.">
<polygon fill="white" stroke="black" points="844.5,-292.5 844.5,-311.5 956.5,-311.5 956.5,-292.5 844.5,-292.5"/>
<text text-anchor="middle" x="900.5" y="-299.5" font-family="Helvetica,sans-Serif" font-size="10.00">logs::Logger::debug</text>
</a>
</g>
</g>
<!-- Node1&#45;&gt;Node2 -->
<g id="edge1" class="edge">
<title>Node1&#45;&gt;Node2</title>
<path fill="none" stroke="midnightblue" d="M100.62,-304.15C159.94,-329.08 286.48,-376 398.5,-376 398.5,-376 398.5,-376 567.5,-376 623.59,-376 779.26,-335.25 855.83,-314.23"/>
<polygon fill="midnightblue" stroke="midnightblue" points="856.94,-317.55 865.65,-311.52 855.08,-310.81 856.94,-317.55"/>
</g>
<!-- Node4 -->
<g id="node4" class="node">
<title>Node4</title>
<g id="a_node4"><a xlink:href="namespacelogs.html#ac6f325c6cfe6189bc8e243daa184453b" target="_top" xlink:title="Cette méthode permet de finir les flux de construction par la notation.">
<polygon fill="white" stroke="black" points="870,-90.5 870,-109.5 931,-109.5 931,-90.5 870,-90.5"/>
<text text-anchor="middle" x="900.5" y="-97.5" font-family="Helvetica,sans-Serif" font-size="10.00">logs::end</text>
</a>
</g>
</g>
<!-- Node1&#45;&gt;Node4 -->
<g id="edge3" class="edge">
<title>Node1&#45;&gt;Node4</title>
<path fill="none" stroke="midnightblue" d="M73.55,-273.6C87.63,-244.27 121.79,-179.79 167,-140 285.63,-35.59 343.95,-35.64 501,-18 558.86,-11.5 574.42,-9.37 632,-18 719.19,-31.06 817.2,-66.82 866.87,-86.53"/>
<polygon fill="midnightblue" stroke="midnightblue" points="865.84,-89.89 876.43,-90.36 868.45,-83.39 865.84,-89.89"/>
</g>
<!-- Node8 -->
<g id="node8" class="node">
<title>Node8</title>
<g id="a_node8"><a xlink:href="classAdafruit__RGBLCDShield.html#a93313ba4a8e5e896f400006672ff4317" target="_top" xlink:title=" ">
<polygon fill="white" stroke="black" points="835,-331 835,-361 966,-361 966,-331 835,-331"/>
<text text-anchor="start" x="843" y="-349" font-family="Helvetica,sans-Serif" font-size="10.00">Adafruit_RGBLCDShield</text>
<text text-anchor="middle" x="900.5" y="-338" font-family="Helvetica,sans-Serif" font-size="10.00">::logger</text>
</a>
</g>
</g>
<!-- Node1&#45;&gt;Node8 -->
<g id="edge8" class="edge">
<title>Node1&#45;&gt;Node8</title>
<path fill="none" stroke="midnightblue" d="M82.99,-304.01C101.9,-320.43 134.52,-346.36 167,-361 263.23,-404.36 292.95,-414 398.5,-414 398.5,-414 398.5,-414 567.5,-414 667.25,-414 780.5,-384.17 845.61,-364.03"/>
<polygon fill="midnightblue" stroke="midnightblue" points="846.76,-367.34 855.25,-361.01 844.66,-360.66 846.76,-367.34"/>
</g>
<!-- Node14 -->
<g id="node14" class="node">
<title>Node14</title>
<g id="a_node14"><a xlink:href="classAdafruit__RGBLCDShield.html#a07aa574d4796eaff43d83eea11ecf878" target="_top" xlink:title=" ">
<polygon fill="white" stroke="black" points="167,-149 167,-179 298,-179 298,-149 167,-149"/>
<text text-anchor="start" x="175" y="-167" font-family="Helvetica,sans-Serif" font-size="10.00">Adafruit_RGBLCDShield</text>
<text text-anchor="middle" x="232.5" y="-156" font-family="Helvetica,sans-Serif" font-size="10.00">::send</text>
</a>
</g>
</g>
<!-- Node1&#45;&gt;Node14 -->
<g id="edge14" class="edge">
<title>Node1&#45;&gt;Node14</title>
<path fill="none" stroke="midnightblue" d="M86.4,-273.92C115.52,-251.87 169.86,-210.7 203.14,-185.48"/>
<polygon fill="midnightblue" stroke="midnightblue" points="205.67,-187.96 211.53,-179.13 201.44,-182.38 205.67,-187.96"/>
</g>
<!-- Node3 -->
<g id="node3" class="node">
<title>Node3</title>
<g id="a_node3"><a xlink:href="classlogs_1_1Logger.html#afa535aaf4891e02c4ff7f84d372b5b1b" target="_top" xlink:title="Méthode générique de trace d&#39;un message.">
<polygon fill="white" stroke="black" points="1206,-173.5 1206,-192.5 1356,-192.5 1356,-173.5 1206,-173.5"/>
<text text-anchor="middle" x="1281" y="-180.5" font-family="Helvetica,sans-Serif" font-size="10.00">logs::Logger::writeMessage</text>
</a>
</g>
</g>
<!-- Node2&#45;&gt;Node3 -->
<g id="edge2" class="edge">
<title>Node2&#45;&gt;Node3</title>
<path fill="none" stroke="midnightblue" d="M939.65,-292.45C992.03,-279.05 1088.95,-253.24 1170,-226 1196.63,-217.05 1226.27,-205.36 1248.06,-196.43"/>
<polygon fill="midnightblue" stroke="midnightblue" points="1249.57,-199.59 1257.48,-192.54 1246.9,-193.12 1249.57,-199.59"/>
</g>
<!-- Node5 -->
<g id="node5" class="node">
<title>Node5</title>
<g id="a_node5"><a xlink:href="classlogs_1_1Logger_1_1LoggerBuffer.html#a0e4fd77693fd899ec1b0670354f93a02" target="_top" xlink:title="Cette méthode valide le message en cours de construction et le transmet au Logger de référence.">
<polygon fill="white" stroke="black" points="1002,-86.5 1002,-105.5 1170,-105.5 1170,-86.5 1002,-86.5"/>
<text text-anchor="middle" x="1086" y="-93.5" font-family="Helvetica,sans-Serif" font-size="10.00">logs::Logger::LoggerBuffer::end</text>
</a>
</g>
</g>
<!-- Node4&#45;&gt;Node5 -->
<g id="edge4" class="edge">
<title>Node4&#45;&gt;Node5</title>
<path fill="none" stroke="midnightblue" d="M931.39,-99.35C948.04,-98.99 969.76,-98.51 991.62,-98.04"/>
<polygon fill="midnightblue" stroke="midnightblue" points="991.73,-101.53 1001.65,-97.82 991.58,-94.54 991.73,-101.53"/>
</g>
<!-- Node5&#45;&gt;Node3 -->
<g id="edge7" class="edge">
<title>Node5&#45;&gt;Node3</title>
<path fill="none" stroke="midnightblue" d="M1113.8,-105.59C1130.19,-111.64 1151.49,-119.83 1170,-128 1198.75,-140.7 1230.81,-156.98 1252.87,-168.52"/>
<polygon fill="midnightblue" stroke="midnightblue" points="1251.48,-171.75 1261.96,-173.31 1254.74,-165.55 1251.48,-171.75"/>
</g>
<!-- Node6 -->
<g id="node6" class="node">
<title>Node6</title>
<g id="a_node6"><a xlink:href="classutils_1_1Mutex.html#aa584b418a5ef484f76b93e361a1d7e32" target="_top" xlink:title="Verrouille le mutex. Cette méthode doit être appelée avant d&#39;utiliser la ressource associée....">
<polygon fill="white" stroke="black" points="1230.5,-0.5 1230.5,-19.5 1331.5,-19.5 1331.5,-0.5 1230.5,-0.5"/>
<text text-anchor="middle" x="1281" y="-7.5" font-family="Helvetica,sans-Serif" font-size="10.00">utils::Mutex::lock</text>
</a>
</g>
</g>
<!-- Node5&#45;&gt;Node6 -->
<g id="edge5" class="edge">
<title>Node5&#45;&gt;Node6</title>
<path fill="none" stroke="midnightblue" d="M1108.39,-86.47C1142.59,-71.23 1209.73,-41.31 1249.13,-23.76"/>
<polygon fill="midnightblue" stroke="midnightblue" points="1250.8,-26.84 1258.51,-19.57 1247.95,-20.45 1250.8,-26.84"/>
</g>
<!-- Node7 -->
<g id="node7" class="node">
<title>Node7</title>
<g id="a_node7"><a xlink:href="classutils_1_1Mutex.html#a59b2079dc7f803d49f78ac9c04406cd3" target="_top" xlink:title="Déverrouille le mutex. Cette méthode doit être appelée après avoir utiliser la ressource associée.">
<polygon fill="white" stroke="black" points="1224.5,-54.5 1224.5,-73.5 1337.5,-73.5 1337.5,-54.5 1224.5,-54.5"/>
<text text-anchor="middle" x="1281" y="-61.5" font-family="Helvetica,sans-Serif" font-size="10.00">utils::Mutex::unlock</text>
</a>
</g>
</g>
<!-- Node5&#45;&gt;Node7 -->
<g id="edge6" class="edge">
<title>Node5&#45;&gt;Node7</title>
<path fill="none" stroke="midnightblue" d="M1144.38,-86.49C1166.45,-82.83 1191.81,-78.62 1214.58,-74.85"/>
<polygon fill="midnightblue" stroke="midnightblue" points="1215.2,-78.29 1224.5,-73.2 1214.06,-71.39 1215.2,-78.29"/>
</g>
<!-- Node9 -->
<g id="node9" class="node">
<title>Node9</title>
<g id="a_node9"><a xlink:href="classAdafruit__RGBLCDShield.html#a5d6b24992e72f3beb5187b971eec3d42" target="_top" xlink:title=" ">
<polygon fill="white" stroke="black" points="1020.5,-302 1020.5,-332 1151.5,-332 1151.5,-302 1020.5,-302"/>
<text text-anchor="start" x="1028.5" y="-320" font-family="Helvetica,sans-Serif" font-size="10.00">Adafruit_RGBLCDShield</text>
<text text-anchor="middle" x="1086" y="-309" font-family="Helvetica,sans-Serif" font-size="10.00">::instance</text>
</a>
</g>
</g>
<!-- Node8&#45;&gt;Node9 -->
<g id="edge9" class="edge">
<title>Node8&#45;&gt;Node9</title>
<path fill="none" stroke="midnightblue" d="M966.2,-335.78C980.45,-333.52 995.66,-331.12 1010.27,-328.81"/>
<polygon fill="midnightblue" stroke="midnightblue" points="1010.94,-332.25 1020.27,-327.23 1009.85,-325.33 1010.94,-332.25"/>
</g>
<!-- Node10 -->
<g id="node10" class="node">
<title>Node10</title>
<g id="a_node10"><a xlink:href="classlogs_1_1LoggerFactory.html#a82585b5de73e471e06cafdccc3b3721e" target="_top" xlink:title="Cette méthode statique retourne un Logger en fonction de son nom.">
<polygon fill="white" stroke="black" points="1030.5,-351 1030.5,-381 1141.5,-381 1141.5,-351 1030.5,-351"/>
<text text-anchor="start" x="1038.5" y="-369" font-family="Helvetica,sans-Serif" font-size="10.00">logs::LoggerFactory</text>
<text text-anchor="middle" x="1086" y="-358" font-family="Helvetica,sans-Serif" font-size="10.00">::logger</text>
</a>
</g>
</g>
<!-- Node8&#45;&gt;Node10 -->
<g id="edge10" class="edge">
<title>Node8&#45;&gt;Node10</title>
<path fill="none" stroke="midnightblue" d="M966.2,-353.05C983.71,-354.96 1002.66,-357.03 1020.18,-358.93"/>
<polygon fill="midnightblue" stroke="midnightblue" points="1019.98,-362.43 1030.3,-360.04 1020.74,-355.48 1019.98,-362.43"/>
</g>
<!-- Node11 -->
<g id="node11" class="node">
<title>Node11</title>
<g id="a_node11"><a xlink:href="classlogs_1_1LoggerFactory.html#ac89f19c0ffd71aa8cdc1c2d44c03809e" target="_top" xlink:title="Cette méthode ajoute un appender au système.">
<polygon fill="white" stroke="black" points="1214,-312.5 1214,-331.5 1348,-331.5 1348,-312.5 1214,-312.5"/>
<text text-anchor="middle" x="1281" y="-319.5" font-family="Helvetica,sans-Serif" font-size="10.00">logs::LoggerFactory::add</text>
</a>
</g>
</g>
<!-- Node10&#45;&gt;Node11 -->
<g id="edge11" class="edge">
<title>Node10&#45;&gt;Node11</title>
<path fill="none" stroke="midnightblue" d="M1141.53,-353.57C1168.71,-347.37 1201.41,-339.92 1228.21,-333.81"/>
<polygon fill="midnightblue" stroke="midnightblue" points="1229.19,-337.17 1238.16,-331.54 1227.64,-330.35 1229.19,-337.17"/>
</g>
<!-- Node12 -->
<g id="node12" class="node">
<title>Node12</title>
<g id="a_node12"><a xlink:href="classlogs_1_1LoggerFactory.html#a90478b91d7af2ef8841ded21e3521f69" target="_top" xlink:title="Cette méthode statique retourne l&#39;instance unique de la classe LoggerFactory.">
<polygon fill="white" stroke="black" points="1225.5,-400 1225.5,-430 1336.5,-430 1336.5,-400 1225.5,-400"/>
<text text-anchor="start" x="1233.5" y="-418" font-family="Helvetica,sans-Serif" font-size="10.00">logs::LoggerFactory</text>
<text text-anchor="middle" x="1281" y="-407" font-family="Helvetica,sans-Serif" font-size="10.00">::instance</text>
</a>
</g>
</g>
<!-- Node10&#45;&gt;Node12 -->
<g id="edge12" class="edge">
<title>Node10&#45;&gt;Node12</title>
<path fill="none" stroke="midnightblue" d="M1141.53,-379.84C1164.56,-385.69 1191.54,-392.54 1215.54,-398.63"/>
<polygon fill="midnightblue" stroke="midnightblue" points="1214.71,-402.04 1225.27,-401.1 1216.44,-395.25 1214.71,-402.04"/>
</g>
<!-- Node13 -->
<g id="node13" class="node">
<title>Node13</title>
<g id="a_node13"><a xlink:href="classlogs_1_1LoggerFactory.html#a212aa623f4b6bee12cb39e8017dde670" target="_top" xlink:title="Cette méthode retourne le Logger principal qui définit le niveau de trace par défaut.">
<polygon fill="white" stroke="black" points="1225.5,-351 1225.5,-381 1336.5,-381 1336.5,-351 1225.5,-351"/>
<text text-anchor="start" x="1233.5" y="-369" font-family="Helvetica,sans-Serif" font-size="10.00">logs::LoggerFactory</text>
<text text-anchor="middle" x="1281" y="-358" font-family="Helvetica,sans-Serif" font-size="10.00">::rootLogger</text>
</a>
</g>
</g>
<!-- Node10&#45;&gt;Node13 -->
<g id="edge13" class="edge">
<title>Node10&#45;&gt;Node13</title>
<path fill="none" stroke="midnightblue" d="M1141.53,-366C1164.45,-366 1191.3,-366 1215.22,-366"/>
<polygon fill="midnightblue" stroke="midnightblue" points="1215.27,-369.5 1225.27,-366 1215.27,-362.5 1215.27,-369.5"/>
</g>
<!-- Node15 -->
<g id="node15" class="node">
<title>Node15</title>
<g id="a_node15"><a xlink:href="classAdafruit__RGBLCDShield.html#aead28395830ccd7e74041736aba46e03" target="_top" xlink:title=" ">
<polygon fill="white" stroke="black" points="668,-124 668,-154 799,-154 799,-124 668,-124"/>
<text text-anchor="start" x="676" y="-142" font-family="Helvetica,sans-Serif" font-size="10.00">Adafruit_RGBLCDShield</text>
<text text-anchor="middle" x="733.5" y="-131" font-family="Helvetica,sans-Serif" font-size="10.00">::_digitalWrite</text>
</a>
</g>
</g>
<!-- Node14&#45;&gt;Node15 -->
<g id="edge15" class="edge">
<title>Node14&#45;&gt;Node15</title>
<path fill="none" stroke="midnightblue" d="M298.22,-160.76C390.68,-156.13 560.14,-147.64 657.8,-142.74"/>
<polygon fill="midnightblue" stroke="midnightblue" points="658.08,-146.23 667.89,-142.24 657.73,-139.24 658.08,-146.23"/>
</g>
<!-- Node19 -->
<g id="node19" class="node">
<title>Node19</title>
<g id="a_node19"><a xlink:href="classAdafruit__RGBLCDShield.html#ad33f31183ab0e61e92a197d8742f07bc" target="_top" xlink:title=" ">
<polygon fill="white" stroke="black" points="334,-189 334,-219 465,-219 465,-189 334,-189"/>
<text text-anchor="start" x="342" y="-207" font-family="Helvetica,sans-Serif" font-size="10.00">Adafruit_RGBLCDShield</text>
<text text-anchor="middle" x="399.5" y="-196" font-family="Helvetica,sans-Serif" font-size="10.00">::write4bits</text>
</a>
</g>
</g>
<!-- Node14&#45;&gt;Node19 -->
<g id="edge22" class="edge">
<title>Node14&#45;&gt;Node19</title>
<path fill="none" stroke="midnightblue" d="M295.41,-179.01C305.6,-181.48 316.23,-184.06 326.63,-186.58"/>
<polygon fill="midnightblue" stroke="midnightblue" points="325.98,-190.02 336.52,-188.97 327.62,-183.22 325.98,-190.02"/>
</g>
<!-- Node26 -->
<g id="node26" class="node">
<title>Node26</title>
<g id="a_node26"><a xlink:href="classAdafruit__RGBLCDShield.html#a4a29b886b14aaab83e9c816d92403add" target="_top" xlink:title=" ">
<polygon fill="white" stroke="black" points="334,-66 334,-96 465,-96 465,-66 334,-66"/>
<text text-anchor="start" x="342" y="-84" font-family="Helvetica,sans-Serif" font-size="10.00">Adafruit_RGBLCDShield</text>
<text text-anchor="middle" x="399.5" y="-73" font-family="Helvetica,sans-Serif" font-size="10.00">::write8bits</text>
</a>
</g>
</g>
<!-- Node14&#45;&gt;Node26 -->
<g id="edge39" class="edge">
<title>Node14&#45;&gt;Node26</title>
<path fill="none" stroke="midnightblue" d="M261.46,-148.77C281.52,-137.97 309.26,-123.27 334,-111 341.08,-107.49 348.65,-103.86 356.02,-100.39"/>
<polygon fill="midnightblue" stroke="midnightblue" points="357.63,-103.5 365.2,-96.1 354.66,-97.16 357.63,-103.5"/>
</g>
<!-- Node15&#45;&gt;Node2 -->
<g id="edge16" class="edge">
<title>Node15&#45;&gt;Node2</title>
<path fill="none" stroke="midnightblue" d="M765.76,-154.06C776.93,-160.27 789.16,-168.11 799,-177 819.05,-195.12 818.25,-204.8 835,-226 851.29,-246.62 870.96,-269.52 884.26,-284.74"/>
<polygon fill="midnightblue" stroke="midnightblue" points="881.7,-287.14 890.93,-292.34 886.96,-282.52 881.7,-287.14"/>
</g>
<!-- Node15&#45;&gt;Node4 -->
<g id="edge20" class="edge">
<title>Node15&#45;&gt;Node4</title>
<path fill="none" stroke="midnightblue" d="M798.29,-123.92C819.11,-119 841.59,-113.69 860.08,-109.32"/>
<polygon fill="midnightblue" stroke="midnightblue" points="860.97,-112.7 869.89,-107 859.36,-105.89 860.97,-112.7"/>
</g>
<!-- Node15&#45;&gt;Node8 -->
<g id="edge21" class="edge">
<title>Node15&#45;&gt;Node8</title>
<path fill="none" stroke="midnightblue" d="M771.19,-154.01C781.5,-159.82 791.84,-167.42 799,-177 838.49,-229.85 791.35,-271.53 835,-321 836.17,-322.33 837.43,-323.59 838.75,-324.79"/>
<polygon fill="midnightblue" stroke="midnightblue" points="836.84,-327.73 846.94,-330.92 841.04,-322.13 836.84,-327.73"/>
</g>
<!-- Node16 -->
<g id="node16" class="node">
<title>Node16</title>
<g id="a_node16"><a xlink:href="classAdafruit__MCP23017.html#a62c7101061540e9af47ea23d5b33fa81" target="_top" xlink:title=" ">
<polygon fill="white" stroke="black" points="841,-137 841,-167 960,-167 960,-137 841,-137"/>
<text text-anchor="start" x="849" y="-155" font-family="Helvetica,sans-Serif" font-size="10.00">Adafruit_MCP23017::</text>
<text text-anchor="middle" x="900.5" y="-144" font-family="Helvetica,sans-Serif" font-size="10.00">digitalWrite</text>
</a>
</g>
</g>
<!-- Node15&#45;&gt;Node16 -->
<g id="edge17" class="edge">
<title>Node15&#45;&gt;Node16</title>
<path fill="none" stroke="midnightblue" d="M799.24,-144.1C809.53,-144.91 820.21,-145.75 830.59,-146.57"/>
<polygon fill="midnightblue" stroke="midnightblue" points="830.61,-150.08 840.86,-147.38 831.16,-143.1 830.61,-150.08"/>
</g>
<!-- Node17 -->
<g id="node17" class="node">
<title>Node17</title>
<g id="a_node17"><a xlink:href="classAdafruit__MCP23017.html#a5935341a99356efaf41556b5ee78cd5a" target="_top" xlink:title=" ">
<polygon fill="white" stroke="black" points="1026.5,-186 1026.5,-216 1145.5,-216 1145.5,-186 1026.5,-186"/>
<text text-anchor="start" x="1034.5" y="-204" font-family="Helvetica,sans-Serif" font-size="10.00">Adafruit_MCP23017::</text>
<text text-anchor="middle" x="1086" y="-193" font-family="Helvetica,sans-Serif" font-size="10.00">read_i2c</text>
</a>
</g>
</g>
<!-- Node16&#45;&gt;Node17 -->
<g id="edge18" class="edge">
<title>Node16&#45;&gt;Node17</title>
<path fill="none" stroke="midnightblue" d="M957.8,-167.03C977.18,-172.21 999.05,-178.05 1019.11,-183.41"/>
<polygon fill="midnightblue" stroke="midnightblue" points="1018.24,-186.8 1028.8,-185.99 1020.04,-180.03 1018.24,-186.8"/>
</g>
<!-- Node18 -->
<g id="node18" class="node">
<title>Node18</title>
<g id="a_node18"><a xlink:href="classAdafruit__MCP23017.html#a29e5ba320b6ce6812c42ab99f5f4c80d" target="_top" xlink:title=" ">
<polygon fill="white" stroke="black" points="1026.5,-137 1026.5,-167 1145.5,-167 1145.5,-137 1026.5,-137"/>
<text text-anchor="start" x="1034.5" y="-155" font-family="Helvetica,sans-Serif" font-size="10.00">Adafruit_MCP23017::</text>
<text text-anchor="middle" x="1086" y="-144" font-family="Helvetica,sans-Serif" font-size="10.00">write_i2c</text>
</a>
</g>
</g>
<!-- Node16&#45;&gt;Node18 -->
<g id="edge19" class="edge">
<title>Node16&#45;&gt;Node18</title>
<path fill="none" stroke="midnightblue" d="M960.07,-152C977.94,-152 997.76,-152 1016.25,-152"/>
<polygon fill="midnightblue" stroke="midnightblue" points="1016.36,-155.5 1026.36,-152 1016.36,-148.5 1016.36,-155.5"/>
</g>
<!-- Node19&#45;&gt;Node15 -->
<g id="edge23" class="edge">
<title>Node19&#45;&gt;Node15</title>
<path fill="none" stroke="midnightblue" d="M465.3,-191.31C520.6,-180.49 600.13,-164.92 658.04,-153.58"/>
<polygon fill="midnightblue" stroke="midnightblue" points="658.72,-157.01 667.86,-151.65 657.38,-150.14 658.72,-157.01"/>
</g>
<!-- Node20 -->
<g id="node20" class="node">
<title>Node20</title>
<g id="a_node20"><a xlink:href="classAdafruit__RGBLCDShield.html#a1668a3877e0d9960df698b68195b3d27" target="_top" xlink:title=" ">
<polygon fill="white" stroke="black" points="668,-186 668,-216 799,-216 799,-186 668,-186"/>
<text text-anchor="start" x="676" y="-204" font-family="Helvetica,sans-Serif" font-size="10.00">Adafruit_RGBLCDShield</text>
<text text-anchor="middle" x="733.5" y="-193" font-family="Helvetica,sans-Serif" font-size="10.00">::_pinMode</text>
</a>
</g>
</g>
<!-- Node19&#45;&gt;Node20 -->
<g id="edge24" class="edge">
<title>Node19&#45;&gt;Node20</title>
<path fill="none" stroke="midnightblue" d="M465.02,-212.11C476.96,-213.32 489.35,-214.36 501,-215 559.14,-218.17 573.92,-219.03 632,-215 640.34,-214.42 649.03,-213.58 657.67,-212.59"/>
<polygon fill="midnightblue" stroke="midnightblue" points="658.26,-216.04 667.76,-211.36 657.41,-209.09 658.26,-216.04"/>
</g>
<!-- Node22 -->
<g id="node22" class="node">
<title>Node22</title>
<g id="a_node22"><a xlink:href="classAdafruit__RGBLCDShield.html#a59fb0fd79b214abe02fee3459ef69f96" target="_top" xlink:title=" ">
<polygon fill="white" stroke="black" points="501,-28 501,-58 632,-58 632,-28 501,-28"/>
<text text-anchor="start" x="509" y="-46" font-family="Helvetica,sans-Serif" font-size="10.00">Adafruit_RGBLCDShield</text>
<text text-anchor="middle" x="566.5" y="-35" font-family="Helvetica,sans-Serif" font-size="10.00">::pulseEnable</text>
</a>
</g>
</g>
<!-- Node19&#45;&gt;Node22 -->
<g id="edge31" class="edge">
<title>Node19&#45;&gt;Node22</title>
<path fill="none" stroke="midnightblue" d="M416.02,-188.85C445.26,-160.33 508.61,-98.51 542.69,-65.25"/>
<polygon fill="midnightblue" stroke="midnightblue" points="545.19,-67.71 549.9,-58.22 540.3,-62.7 545.19,-67.71"/>
</g>
<!-- Node23 -->
<g id="node23" class="node">
<title>Node23</title>
<g id="a_node23"><a xlink:href="classAdafruit__MCP23017.html#a07d894fe9d749fd7d3d098c99ce1fa64" target="_top" xlink:title=" ">
<polygon fill="white" stroke="black" points="507,-317 507,-347 626,-347 626,-317 507,-317"/>
<text text-anchor="start" x="515" y="-335" font-family="Helvetica,sans-Serif" font-size="10.00">Adafruit_MCP23017::</text>
<text text-anchor="middle" x="566.5" y="-324" font-family="Helvetica,sans-Serif" font-size="10.00">readGPIOAB</text>
</a>
</g>
</g>
<!-- Node19&#45;&gt;Node23 -->
<g id="edge35" class="edge">
<title>Node19&#45;&gt;Node23</title>
<path fill="none" stroke="midnightblue" d="M411.53,-219.14C428.48,-241.43 462.97,-283.12 501,-308 503.39,-309.56 505.9,-311.04 508.48,-312.44"/>
<polygon fill="midnightblue" stroke="midnightblue" points="506.95,-315.6 517.47,-316.9 510.06,-309.32 506.95,-315.6"/>
</g>
<!-- Node24 -->
<g id="node24" class="node">
<title>Node24</title>
<g id="a_node24"><a xlink:href="classAdafruit__MCP23017.html#a4b4845ea14d7207f22b0163ae5c622f2" target="_top" xlink:title=" ">
<polygon fill="white" stroke="black" points="507,-268 507,-298 626,-298 626,-268 507,-268"/>
<text text-anchor="start" x="515" y="-286" font-family="Helvetica,sans-Serif" font-size="10.00">Adafruit_MCP23017::</text>
<text text-anchor="middle" x="566.5" y="-275" font-family="Helvetica,sans-Serif" font-size="10.00">writeGPIOAB</text>
</a>
</g>
</g>
<!-- Node19&#45;&gt;Node24 -->
<g id="edge37" class="edge">
<title>Node19&#45;&gt;Node24</title>
<path fill="none" stroke="midnightblue" d="M431.22,-219.16C451.08,-228.91 477.52,-241.82 501,-253 508.21,-256.44 515.9,-260.05 523.36,-263.53"/>
<polygon fill="midnightblue" stroke="midnightblue" points="522.09,-266.8 532.63,-267.85 525.05,-260.46 522.09,-266.8"/>
</g>
<!-- Node20&#45;&gt;Node2 -->
<g id="edge25" class="edge">
<title>Node20&#45;&gt;Node2</title>
<path fill="none" stroke="midnightblue" d="M778.28,-216.06C785.36,-219.04 792.5,-222.37 799,-226 829.79,-243.17 861.64,-268.84 881.02,-285.5"/>
<polygon fill="midnightblue" stroke="midnightblue" points="878.92,-288.32 888.75,-292.25 883.52,-283.04 878.92,-288.32"/>
</g>
<!-- Node20&#45;&gt;Node4 -->
<g id="edge26" class="edge">
<title>Node20&#45;&gt;Node4</title>
<path fill="none" stroke="midnightblue" d="M764.44,-185.99C775.69,-179.79 788.34,-172.16 799,-164 816.97,-150.25 816.29,-140.73 835,-128 843.24,-122.39 852.78,-117.52 861.96,-113.47"/>
<polygon fill="midnightblue" stroke="midnightblue" points="863.45,-116.64 871.33,-109.56 860.75,-110.18 863.45,-116.64"/>
</g>
<!-- Node20&#45;&gt;Node8 -->
<g id="edge27" class="edge">
<title>Node20&#45;&gt;Node8</title>
<path fill="none" stroke="midnightblue" d="M785.96,-216.14C790.73,-218.9 795.19,-222.16 799,-226 830.81,-258.05 803.19,-288.95 835,-321 836.43,-322.44 837.95,-323.8 839.54,-325.08"/>
<polygon fill="midnightblue" stroke="midnightblue" points="837.8,-328.13 848.04,-330.86 841.74,-322.34 837.8,-328.13"/>
</g>
<!-- Node21 -->
<g id="node21" class="node">
<title>Node21</title>
<g id="a_node21"><a xlink:href="classAdafruit__MCP23017.html#a6f2aea0d187cb281a4ed216fd31a6981" target="_top" xlink:title=" ">
<polygon fill="white" stroke="black" points="841,-186 841,-216 960,-216 960,-186 841,-186"/>
<text text-anchor="start" x="849" y="-204" font-family="Helvetica,sans-Serif" font-size="10.00">Adafruit_MCP23017::</text>
<text text-anchor="middle" x="900.5" y="-193" font-family="Helvetica,sans-Serif" font-size="10.00">pinMode</text>
</a>
</g>
</g>
<!-- Node20&#45;&gt;Node21 -->
<g id="edge28" class="edge">
<title>Node20&#45;&gt;Node21</title>
<path fill="none" stroke="midnightblue" d="M799.24,-201C809.53,-201 820.21,-201 830.59,-201"/>
<polygon fill="midnightblue" stroke="midnightblue" points="830.86,-204.5 840.86,-201 830.86,-197.5 830.86,-204.5"/>
</g>
<!-- Node21&#45;&gt;Node17 -->
<g id="edge29" class="edge">
<title>Node21&#45;&gt;Node17</title>
<path fill="none" stroke="midnightblue" d="M960.07,-201C977.94,-201 997.76,-201 1016.25,-201"/>
<polygon fill="midnightblue" stroke="midnightblue" points="1016.36,-204.5 1026.36,-201 1016.36,-197.5 1016.36,-204.5"/>
</g>
<!-- Node21&#45;&gt;Node18 -->
<g id="edge30" class="edge">
<title>Node21&#45;&gt;Node18</title>
<path fill="none" stroke="midnightblue" d="M957.8,-185.97C977.18,-180.79 999.05,-174.95 1019.11,-169.59"/>
<polygon fill="midnightblue" stroke="midnightblue" points="1020.04,-172.97 1028.8,-167.01 1018.24,-166.2 1020.04,-172.97"/>
</g>
<!-- Node22&#45;&gt;Node6 -->
<g id="edge33" class="edge">
<title>Node22&#45;&gt;Node6</title>
<path fill="none" stroke="midnightblue" d="M632.3,-40C769.41,-33.65 1087.14,-18.93 1219.96,-12.78"/>
<polygon fill="midnightblue" stroke="midnightblue" points="1220.5,-16.26 1230.33,-12.3 1220.18,-9.27 1220.5,-16.26"/>
</g>
<!-- Node22&#45;&gt;Node7 -->
<g id="edge34" class="edge">
<title>Node22&#45;&gt;Node7</title>
<path fill="none" stroke="midnightblue" d="M632.3,-44.91C767.37,-48.89 1077.75,-58.04 1213.92,-62.05"/>
<polygon fill="midnightblue" stroke="midnightblue" points="1214.1,-65.56 1224.2,-62.36 1214.31,-58.56 1214.1,-65.56"/>
</g>
<!-- Node22&#45;&gt;Node15 -->
<g id="edge32" class="edge">
<title>Node22&#45;&gt;Node15</title>
<path fill="none" stroke="midnightblue" d="M602.44,-58.12C612.16,-62.63 622.61,-67.77 632,-73 645.64,-80.6 677.67,-101.86 701.93,-118.22"/>
<polygon fill="midnightblue" stroke="midnightblue" points="700.22,-121.29 710.47,-123.99 704.14,-115.49 700.22,-121.29"/>
</g>
<!-- Node23&#45;&gt;Node17 -->
<g id="edge36" class="edge">
<title>Node23&#45;&gt;Node17</title>
<path fill="none" stroke="midnightblue" d="M626.07,-317.82C672.9,-306.42 740.22,-289.91 799,-275 889.38,-252.07 911.69,-245.21 1002,-222 1006.7,-220.79 1011.55,-219.55 1016.44,-218.3"/>
<polygon fill="midnightblue" stroke="midnightblue" points="1017.66,-221.6 1026.49,-215.74 1015.94,-214.82 1017.66,-221.6"/>
</g>
<!-- Node25 -->
<g id="node25" class="node">
<title>Node25</title>
<g id="a_node25"><a xlink:href="classAdafruit__MCP23017.html#a20fd3536424d0c91dba741894a010fd7" target="_top" xlink:title=" ">
<polygon fill="white" stroke="black" points="674,-235 674,-265 793,-265 793,-235 674,-235"/>
<text text-anchor="start" x="682" y="-253" font-family="Helvetica,sans-Serif" font-size="10.00">Adafruit_MCP23017::</text>
<text text-anchor="middle" x="733.5" y="-242" font-family="Helvetica,sans-Serif" font-size="10.00">writeI2c_3Bytes</text>
</a>
</g>
</g>
<!-- Node24&#45;&gt;Node25 -->
<g id="edge38" class="edge">
<title>Node24&#45;&gt;Node25</title>
<path fill="none" stroke="midnightblue" d="M626.14,-271.27C638.34,-268.83 651.31,-266.24 663.84,-263.73"/>
<polygon fill="midnightblue" stroke="midnightblue" points="664.65,-267.14 673.77,-261.75 663.28,-260.27 664.65,-267.14"/>
</g>
<!-- Node26&#45;&gt;Node15 -->
<g id="edge40" class="edge">
<title>Node26&#45;&gt;Node15</title>
<path fill="none" stroke="midnightblue" d="M465.27,-86.89C511.92,-91.74 576.2,-99.67 632,-111 645.78,-113.8 660.45,-117.48 674.2,-121.24"/>
<polygon fill="midnightblue" stroke="midnightblue" points="673.45,-124.66 684.02,-123.99 675.33,-117.92 673.45,-124.66"/>
</g>
<!-- Node26&#45;&gt;Node20 -->
<g id="edge41" class="edge">
<title>Node26&#45;&gt;Node20</title>
<path fill="none" stroke="midnightblue" d="M442.21,-96.08C502.92,-118.02 615.53,-158.72 681.23,-182.47"/>
<polygon fill="midnightblue" stroke="midnightblue" points="680.36,-185.88 690.96,-185.99 682.74,-179.29 680.36,-185.88"/>
</g>
<!-- Node26&#45;&gt;Node22 -->
<g id="edge42" class="edge">
<title>Node26&#45;&gt;Node22</title>
<path fill="none" stroke="midnightblue" d="M465.24,-66.09C473.67,-64.15 482.37,-62.14 490.95,-60.17"/>
<polygon fill="midnightblue" stroke="midnightblue" points="491.99,-63.52 500.95,-57.87 490.42,-56.7 491.99,-63.52"/>
</g>
</g>
</svg>
        <g id="navigator" transform="translate(0 0)" fill="#404254">
                <rect fill="#f2f5e9" fill-opacity="0.5" stroke="#606060" stroke-width=".5" x="0" y="0" width="60" height="60"/>
                <use id="zoomplus" xlink:href="#zoomPlus" x="17" y="9" onmousedown="handleZoom(evt,'in')"/>
                <use id="zoomminus" xlink:href="#zoomMin" x="42" y="9" onmousedown="handleZoom(evt,'out')"/>
                <use id="reset" xlink:href="#resetDef" x="30" y="36" onmousedown="handleReset()"/>
                <g id="arrowUp" xlink:href="#dirArrow" transform="translate(30 24)" onmousedown="handlePan(0,-1)">
                  <use xlink:href="#rim" fill="#404040">
                        <set attributeName="fill" to="#808080" begin="arrowUp.mouseover" end="arrowUp.mouseout"/>
                  </use>
                  <path fill="none" stroke="white" stroke-width="1.5" d="M0,-3.0v7 M-2.5,-0.5L0,-3.0L2.5,-0.5"/>
                </g>
                <g id="arrowRight" xlink:href="#dirArrow" transform="rotate(90) translate(36 -43)" onmousedown="handlePan(1,0)">
                  <use xlink:href="#rim" fill="#404040">
                        <set attributeName="fill" to="#808080" begin="arrowRight.mouseover" end="arrowRight.mouseout"/>
                  </use>
                  <path fill="none" stroke="white" stroke-width="1.5" d="M0,-3.0v7 M-2.5,-0.5L0,-3.0L2.5,-0.5"/>
                </g>
                <g id="arrowDown" xlink:href="#dirArrow" transform="rotate(180) translate(-30 -48)" onmousedown="handlePan(0,1)">
                  <use xlink:href="#rim" fill="#404040">
                        <set attributeName="fill" to="#808080" begin="arrowDown.mouseover" end="arrowDown.mouseout"/>
                  </use>
                  <path fill="none" stroke="white" stroke-width="1.5" d="M0,-3.0v7 M-2.5,-0.5L0,-3.0L2.5,-0.5"/>
                </g>
                <g id="arrowLeft" xlink:href="#dirArrow" transform="rotate(270) translate(-36 17)" onmousedown="handlePan(-1,0)">
                  <use xlink:href="#rim" fill="#404040">
                        <set attributeName="fill" to="#808080" begin="arrowLeft.mouseover" end="arrowLeft.mouseout"/>
                  </use>
                  <path fill="none" stroke="white" stroke-width="1.5" d="M0,-3.0v7 M-2.5,-0.5L0,-3.0L2.5,-0.5"/>
                </g>
        </g>
        <svg viewBox="0 0 15 15" width="100%" height="30px" preserveAspectRatio="xMaxYMin meet">
         <g id="arrow_out" transform="scale(0.3 0.3)">
          <a xlink:href="classAdafruit__RGBLCDShield_a6068df0c2bc882ec6769bb25425041db_cgraph_org.svg" target="_base">
           <rect id="button" ry="5" rx="5" y="6" x="6" height="38" width="38"
                fill="#f2f5e9" fill-opacity="0.5" stroke="#606060" stroke-width="1.0"/>
           <path id="arrow"
             d="M 11.500037,31.436501 C 11.940474,20.09759 22.043105,11.32322 32.158766,21.979434 L 37.068811,17.246167 C 37.068811,17.246167 37.088388,32 37.088388,32 L 22.160133,31.978069 C 22.160133,31.978069 26.997745,27.140456 26.997745,27.140456 C 18.528582,18.264221 13.291696,25.230495 11.500037,31.436501 z"
             style="fill:#404040;"/>
          </a>
         </g>
        </svg>
</svg>
