<?xml version="1.0" encoding="UTF-8" standalone="no"?>
<!DOCTYPE svg PUBLIC "-//W3C//DTD SVG 1.1//EN"
 "http://www.w3.org/Graphics/SVG/1.1/DTD/svg11.dtd">
<!-- Generated by graphviz version 2.43.0 (0)
 -->
<!-- Title: AsservDriver_mbed_i2c::mbed_GetPosition Pages: 1 -->
<svg width="476pt" height="88pt"
 viewBox="0.00 0.00 476.00 88.00" xmlns="http://www.w3.org/2000/svg" xmlns:xlink="http://www.w3.org/1999/xlink">
<g id="graph0" class="graph" transform="scale(1 1) rotate(0) translate(4 84)">
<title>AsservDriver_mbed_i2c::mbed_GetPosition</title>
<polygon fill="white" stroke="transparent" points="-4,4 -4,-84 472,-84 472,4 -4,4"/>
<!-- Node1 -->
<g id="node1" class="node">
<title>Node1</title>
<g id="a_node1"><a xlink:title=" ">
<polygon fill="#bfbfbf" stroke="black" points="336,-24.5 336,-54.5 468,-54.5 468,-24.5 336,-24.5"/>
<text text-anchor="start" x="344" y="-42.5" font-family="Helvetica,sans-Serif" font-size="10.00">AsservDriver_mbed_i2c</text>
<text text-anchor="middle" x="402" y="-31.5" font-family="Helvetica,sans-Serif" font-size="10.00">::mbed_GetPosition</text>
</a>
</g>
</g>
<!-- Node2 -->
<g id="node2" class="node">
<title>Node2</title>
<g id="a_node2"><a xlink:href="classAsservDriver__mbed__i2c.html#a37154eddfd5ae5a9a9e9c2160dd8041d" target="_top" xlink:title="Lit la position courante du robot.">
<polygon fill="white" stroke="black" points="168,-24.5 168,-54.5 300,-54.5 300,-24.5 168,-24.5"/>
<text text-anchor="start" x="176" y="-42.5" font-family="Helvetica,sans-Serif" font-size="10.00">AsservDriver_mbed_i2c</text>
<text text-anchor="middle" x="234" y="-31.5" font-family="Helvetica,sans-Serif" font-size="10.00">::odo_GetPosition</text>
</a>
</g>
</g>
<!-- Node1&#45;&gt;Node2 -->
<g id="edge1" class="edge">
<title>Node1&#45;&gt;Node2</title>
<path fill="none" stroke="midnightblue" d="M325.61,-39.5C317.13,-39.5 308.55,-39.5 300.22,-39.5"/>
<polygon fill="midnightblue" stroke="midnightblue" points="325.87,-43 335.87,-39.5 325.87,-36 325.87,-43"/>
</g>
<!-- Node3 -->
<g id="node3" class="node">
<title>Node3</title>
<g id="a_node3"><a xlink:href="classAsservDriver__mbed__i2c.html#aceeb058d409ef084ae4cc591c21befab" target="_top" xlink:title="Méthode virtuelle pure à implémenter dans les sous&#45;classes.">
<polygon fill="white" stroke="black" points="0,-49.5 0,-79.5 132,-79.5 132,-49.5 0,-49.5"/>
<text text-anchor="start" x="8" y="-67.5" font-family="Helvetica,sans-Serif" font-size="10.00">AsservDriver_mbed_i2c</text>
<text text-anchor="middle" x="66" y="-56.5" font-family="Helvetica,sans-Serif" font-size="10.00">::execute</text>
</a>
</g>
</g>
<!-- Node2&#45;&gt;Node3 -->
<g id="edge2" class="edge">
<title>Node2&#45;&gt;Node3</title>
<path fill="none" stroke="midnightblue" d="M157.89,-50.81C149.32,-52.1 140.64,-53.41 132.22,-54.68"/>
<polygon fill="midnightblue" stroke="midnightblue" points="158.5,-54.26 167.87,-49.31 157.46,-47.34 158.5,-54.26"/>
</g>
<!-- Node4 -->
<g id="node4" class="node">
<title>Node4</title>
<g id="a_node4"><a xlink:href="classAsservDriver__mbed__i2c.html#aa24966587d78fbf770e8cdd9e4d74f4f" target="_top" xlink:title="Definit la position courante du robot (recalage).">
<polygon fill="white" stroke="black" points="0,-0.5 0,-30.5 132,-30.5 132,-0.5 0,-0.5"/>
<text text-anchor="start" x="8" y="-18.5" font-family="Helvetica,sans-Serif" font-size="10.00">AsservDriver_mbed_i2c</text>
<text text-anchor="middle" x="66" y="-7.5" font-family="Helvetica,sans-Serif" font-size="10.00">::odo_SetPosition</text>
</a>
</g>
</g>
<!-- Node2&#45;&gt;Node4 -->
<g id="edge3" class="edge">
<title>Node2&#45;&gt;Node4</title>
<path fill="none" stroke="midnightblue" d="M157.89,-28.64C149.32,-27.4 140.64,-26.15 132.22,-24.93"/>
<polygon fill="midnightblue" stroke="midnightblue" points="157.47,-32.12 167.87,-30.08 158.47,-25.19 157.47,-32.12"/>
</g>
</g>
</svg>
