<?xml version="1.0" encoding="UTF-8" standalone="no"?>
<!DOCTYPE svg PUBLIC "-//W3C//DTD SVG 1.1//EN"
 "http://www.w3.org/Graphics/SVG/1.1/DTD/svg11.dtd">
<!-- Generated by graphviz version 2.43.0 (0)
 -->
<!-- Title: AServoDriver::setTorque Pages: 1 -->
<!--zoomable 545 -->
<svg id="main" version="1.1" xmlns="http://www.w3.org/2000/svg" xmlns:xlink="http://www.w3.org/1999/xlink" xml:space="preserve" onload="init(evt)">
<style type="text/css"><![CDATA[
.edge:hover path { stroke: red; }
.edge:hover polygon { stroke: red; fill: red; }
]]></style>
<script type="text/javascript"><![CDATA[
var edges = document.getElementsByTagName('g');
if (edges && edges.length) {
  for (var i=0;i<edges.length;i++) {
    if (edges[i].id.substr(0,4)=='edge') {
      edges[i].setAttribute('class','edge');
    }
  }
}
]]></script>
        <defs>
                <circle id="rim" cx="0" cy="0" r="7"/>
                <circle id="rim2" cx="0" cy="0" r="3.5"/>
                <g id="zoomPlus">
                        <use xlink:href="#rim" fill="#404040">
                                <set attributeName="fill" to="#808080" begin="zoomplus.mouseover" end="zoomplus.mouseout"/>
                        </use>
                        <path d="M-4,0h8M0,-4v8" fill="none" stroke="white" stroke-width="1.5" pointer-events="none"/>
                </g>
                <g id="zoomMin">
                        <use xlink:href="#rim" fill="#404040">
                                <set attributeName="fill" to="#808080" begin="zoomminus.mouseover" end="zoomminus.mouseout"/>
                        </use>
                        <path d="M-4,0h8" fill="none" stroke="white" stroke-width="1.5" pointer-events="none"/>
                </g>
                <g id="dirArrow">
                        <path fill="none" stroke="white" stroke-width="1.5" d="M0,-3.0v7 M-2.5,-0.5L0,-3.0L2.5,-0.5"/>
                </g>
               <g id="resetDef">
                       <use xlink:href="#rim2" fill="#404040">
                               <set attributeName="fill" to="#808080" begin="reset.mouseover" end="reset.mouseout"/>
                       </use>
               </g>
        </defs>

<script type="text/javascript">
var viewWidth = 993;
var viewHeight = 545;
var sectionId = 'dynsection-16';
</script>
<script xlink:href="svgpan.js"/>
<svg id="graph" class="graph">
<g id="viewport">
<title>AServoDriver::setTorque</title>
<polygon fill="white" stroke="transparent" points="-4,4 -4,-541.04 989,-541.04 989,4 -4,4"/>
<!-- Node1 -->
<g id="node1" class="node">
<title>Node1</title>
<g id="a_node1"><a xlink:title="Definit le couple maximal du servo.">
<polygon fill="#bfbfbf" stroke="black" points="851,-104 851,-123 985,-123 985,-104 851,-104"/>
<text text-anchor="middle" x="918" y="-111" font-family="Helvetica,sans-Serif" font-size="10.00">AServoDriver::setTorque</text>
</a>
</g>
</g>
<!-- Node2 -->
<g id="node2" class="node">
<title>Node2</title>
<g id="a_node2"><a xlink:href="classServoObjectsSystem.html#a60de17986f65700a7659b22edda2faef" target="_top" xlink:title="move 1 servo.">
<polygon fill="white" stroke="black" points="697,-245.5 697,-275.5 815,-275.5 815,-245.5 697,-245.5"/>
<text text-anchor="start" x="705" y="-263.5" font-family="Helvetica,sans-Serif" font-size="10.00">ServoObjectsSystem</text>
<text text-anchor="middle" x="756" y="-252.5" font-family="Helvetica,sans-Serif" font-size="10.00">::move_1_servo</text>
</a>
</g>
</g>
<!-- Node1&#45;&gt;Node2 -->
<g id="edge1" class="edge">
<title>Node1&#45;&gt;Node2</title>
<path fill="none" stroke="midnightblue" d="M898.94,-130.09C867.63,-158.85 803.76,-217.54 773.55,-245.3"/>
<polygon fill="midnightblue" stroke="midnightblue" points="901.51,-132.49 906.5,-123.15 896.77,-127.33 901.51,-132.49"/>
</g>
<!-- Node18 -->
<g id="node18" class="node">
<title>Node18</title>
<g id="a_node18"><a xlink:href="classServoObjectsSystem.html#a209d4e6a24c8cd26c76168c08e330655" target="_top" xlink:title="move 2 servos.">
<polygon fill="white" stroke="black" points="697,-147.5 697,-177.5 815,-177.5 815,-147.5 697,-147.5"/>
<text text-anchor="start" x="705" y="-165.5" font-family="Helvetica,sans-Serif" font-size="10.00">ServoObjectsSystem</text>
<text text-anchor="middle" x="756" y="-154.5" font-family="Helvetica,sans-Serif" font-size="10.00">::move_2_servos</text>
</a>
</g>
</g>
<!-- Node1&#45;&gt;Node18 -->
<g id="edge31" class="edge">
<title>Node1&#45;&gt;Node18</title>
<path fill="none" stroke="midnightblue" d="M876.04,-126.04C854.72,-132.57 828.5,-140.6 806.1,-147.46"/>
<polygon fill="midnightblue" stroke="midnightblue" points="877.23,-129.34 885.77,-123.06 875.18,-122.65 877.23,-129.34"/>
</g>
<!-- Node19 -->
<g id="node19" class="node">
<title>Node19</title>
<g id="a_node19"><a xlink:href="classServoObjectsSystem.html#a8d96f5f8ccdfb9ca69a73e523f388191" target="_top" xlink:title="Déplace 3 servos simultanément.">
<polygon fill="white" stroke="black" points="697,-98.5 697,-128.5 815,-128.5 815,-98.5 697,-98.5"/>
<text text-anchor="start" x="705" y="-116.5" font-family="Helvetica,sans-Serif" font-size="10.00">ServoObjectsSystem</text>
<text text-anchor="middle" x="756" y="-105.5" font-family="Helvetica,sans-Serif" font-size="10.00">::move_3_servos</text>
</a>
</g>
</g>
<!-- Node1&#45;&gt;Node19 -->
<g id="edge35" class="edge">
<title>Node1&#45;&gt;Node19</title>
<path fill="none" stroke="midnightblue" d="M840.9,-113.5C832.25,-113.5 823.54,-113.5 815.18,-113.5"/>
<polygon fill="midnightblue" stroke="midnightblue" points="841,-117 851,-113.5 841,-110 841,-117"/>
</g>
<!-- Node20 -->
<g id="node20" class="node">
<title>Node20</title>
<g id="a_node20"><a xlink:href="classServoObjectsSystem.html#a885ad7b498315c66de65dae7149b3ea1" target="_top" xlink:title="Déplace 4 servos simultanément.">
<polygon fill="white" stroke="black" points="697,-49.5 697,-79.5 815,-79.5 815,-49.5 697,-49.5"/>
<text text-anchor="start" x="705" y="-67.5" font-family="Helvetica,sans-Serif" font-size="10.00">ServoObjectsSystem</text>
<text text-anchor="middle" x="756" y="-56.5" font-family="Helvetica,sans-Serif" font-size="10.00">::move_4_servos</text>
</a>
</g>
</g>
<!-- Node1&#45;&gt;Node20 -->
<g id="edge36" class="edge">
<title>Node1&#45;&gt;Node20</title>
<path fill="none" stroke="midnightblue" d="M876.04,-100.96C854.72,-94.43 828.5,-86.4 806.1,-79.54"/>
<polygon fill="midnightblue" stroke="midnightblue" points="875.18,-104.35 885.77,-103.94 877.23,-97.66 875.18,-104.35"/>
</g>
<!-- Node21 -->
<g id="node21" class="node">
<title>Node21</title>
<g id="a_node21"><a xlink:href="classServoObjectsSystem.html#acf68a1b28ef93c8d960b84e008e9c974" target="_top" xlink:title="Définit la valeur de couple d&#39;un servo.">
<polygon fill="white" stroke="black" points="697,-0.5 697,-30.5 815,-30.5 815,-0.5 697,-0.5"/>
<text text-anchor="start" x="705" y="-18.5" font-family="Helvetica,sans-Serif" font-size="10.00">ServoObjectsSystem</text>
<text text-anchor="middle" x="756" y="-7.5" font-family="Helvetica,sans-Serif" font-size="10.00">::setTorque</text>
</a>
</g>
</g>
<!-- Node1&#45;&gt;Node21 -->
<g id="edge37" class="edge">
<title>Node1&#45;&gt;Node21</title>
<path fill="none" stroke="midnightblue" d="M897.72,-97.38C877.87,-81.31 845.6,-56.62 815,-39.5 809.29,-36.31 803.08,-33.29 796.9,-30.55"/>
<polygon fill="midnightblue" stroke="midnightblue" points="895.72,-100.26 905.67,-103.9 900.15,-94.85 895.72,-100.26"/>
</g>
<!-- Node3 -->
<g id="node3" class="node">
<title>Node3</title>
<g id="a_node3"><a xlink:href="classOPOS6UL__ActionsExtended.html#a946560d21bc7c1a12be600b16e07c93a" target="_top" xlink:title="Déploie le bras droit en position d&#39;action.">
<polygon fill="white" stroke="black" points="512,-368.5 512,-398.5 661,-398.5 661,-368.5 512,-368.5"/>
<text text-anchor="start" x="520" y="-386.5" font-family="Helvetica,sans-Serif" font-size="10.00">OPOS6UL_ActionsExtended</text>
<text text-anchor="middle" x="586.5" y="-375.5" font-family="Helvetica,sans-Serif" font-size="10.00">::ax12_bras_droit</text>
</a>
</g>
</g>
<!-- Node2&#45;&gt;Node3 -->
<g id="edge2" class="edge">
<title>Node2&#45;&gt;Node3</title>
<path fill="none" stroke="midnightblue" d="M738.15,-284.11C721.05,-306.47 692.66,-339.5 661,-359.5 655.67,-362.87 649.81,-365.81 643.81,-368.37"/>
<polygon fill="midnightblue" stroke="midnightblue" points="741.15,-285.94 744.34,-275.83 735.55,-281.75 741.15,-285.94"/>
</g>
<!-- Node9 -->
<g id="node9" class="node">
<title>Node9</title>
<g id="a_node9"><a xlink:href="classOPOS6UL__ActionsExtended.html#a67daef275b861004d118273c7e2564c2" target="_top" xlink:title="Place le bras droit en position initiale (replié).">
<polygon fill="white" stroke="black" points="512,-319.5 512,-349.5 661,-349.5 661,-319.5 512,-319.5"/>
<text text-anchor="start" x="520" y="-337.5" font-family="Helvetica,sans-Serif" font-size="10.00">OPOS6UL_ActionsExtended</text>
<text text-anchor="middle" x="586.5" y="-326.5" font-family="Helvetica,sans-Serif" font-size="10.00">::ax12_bras_droit_init</text>
</a>
</g>
</g>
<!-- Node2&#45;&gt;Node9 -->
<g id="edge10" class="edge">
<title>Node2&#45;&gt;Node9</title>
<path fill="none" stroke="midnightblue" d="M720.91,-280.47C703.37,-290.27 681.42,-301.81 661,-310.5 653.59,-313.65 645.61,-316.65 637.75,-319.38"/>
<polygon fill="midnightblue" stroke="midnightblue" points="722.67,-283.5 729.65,-275.53 719.23,-277.4 722.67,-283.5"/>
</g>
<!-- Node10 -->
<g id="node10" class="node">
<title>Node10</title>
<g id="a_node10"><a xlink:href="classOPOS6UL__ActionsExtended.html#a5b32b355b6907dda48874f40dc9101eb" target="_top" xlink:title="Déploie le bras gauche en position d&#39;action.">
<polygon fill="white" stroke="black" points="512,-270.5 512,-300.5 661,-300.5 661,-270.5 512,-270.5"/>
<text text-anchor="start" x="520" y="-288.5" font-family="Helvetica,sans-Serif" font-size="10.00">OPOS6UL_ActionsExtended</text>
<text text-anchor="middle" x="586.5" y="-277.5" font-family="Helvetica,sans-Serif" font-size="10.00">::ax12_bras_gauche</text>
</a>
</g>
</g>
<!-- Node2&#45;&gt;Node10 -->
<g id="edge14" class="edge">
<title>Node2&#45;&gt;Node10</title>
<path fill="none" stroke="midnightblue" d="M686.73,-270.69C678.3,-271.95 669.66,-273.24 661.15,-274.51"/>
<polygon fill="midnightblue" stroke="midnightblue" points="687.51,-274.11 696.89,-269.17 686.48,-267.19 687.51,-274.11"/>
</g>
<!-- Node11 -->
<g id="node11" class="node">
<title>Node11</title>
<g id="a_node11"><a xlink:href="classOPOS6UL__ActionsExtended.html#ad3b7d5a26040d5780cc43a5a9ead9ad3" target="_top" xlink:title="Place le bras gauche en position initiale (replié).">
<polygon fill="white" stroke="black" points="512,-221.5 512,-251.5 661,-251.5 661,-221.5 512,-221.5"/>
<text text-anchor="start" x="520" y="-239.5" font-family="Helvetica,sans-Serif" font-size="10.00">OPOS6UL_ActionsExtended</text>
<text text-anchor="middle" x="586.5" y="-228.5" font-family="Helvetica,sans-Serif" font-size="10.00">::ax12_bras_gauche_init</text>
</a>
</g>
</g>
<!-- Node2&#45;&gt;Node11 -->
<g id="edge18" class="edge">
<title>Node2&#45;&gt;Node11</title>
<path fill="none" stroke="midnightblue" d="M686.73,-250.72C678.3,-249.51 669.66,-248.27 661.15,-247.05"/>
<polygon fill="midnightblue" stroke="midnightblue" points="686.49,-254.22 696.89,-252.17 687.48,-247.29 686.49,-254.22"/>
</g>
<!-- Node12 -->
<g id="node12" class="node">
<title>Node12</title>
<g id="a_node12"><a xlink:href="classOPOS6UL__ActionsExtended.html#a44856498aa3839098211785a1fe0b6a3" target="_top" xlink:title="Déploie la banderole (action de fin de match).">
<polygon fill="white" stroke="black" points="512,-478.5 512,-508.5 661,-508.5 661,-478.5 512,-478.5"/>
<text text-anchor="start" x="520" y="-496.5" font-family="Helvetica,sans-Serif" font-size="10.00">OPOS6UL_ActionsExtended</text>
<text text-anchor="middle" x="586.5" y="-485.5" font-family="Helvetica,sans-Serif" font-size="10.00">::ax12_GO_banderole</text>
</a>
</g>
</g>
<!-- Node2&#45;&gt;Node12 -->
<g id="edge22" class="edge">
<title>Node2&#45;&gt;Node12</title>
<path fill="none" stroke="midnightblue" d="M748.86,-285.47C737.71,-326.21 710.56,-407.43 661,-457.5 652.4,-466.18 641.29,-473.1 630.32,-478.45"/>
<polygon fill="midnightblue" stroke="midnightblue" points="752.31,-286.13 751.47,-275.57 745.54,-284.35 752.31,-286.13"/>
</g>
<!-- Node14 -->
<g id="node14" class="node">
<title>Node14</title>
<g id="a_node14"><a xlink:href="classOPOS6UL__ActionsExtended.html#ae63e06f334f5095383387aa9ff68c8a3" target="_top" xlink:title="Initialise le servo de la banderole à la position repliée.">
<polygon fill="white" stroke="black" points="512,-417.5 512,-447.5 661,-447.5 661,-417.5 512,-417.5"/>
<text text-anchor="start" x="520" y="-435.5" font-family="Helvetica,sans-Serif" font-size="10.00">OPOS6UL_ActionsExtended</text>
<text text-anchor="middle" x="586.5" y="-424.5" font-family="Helvetica,sans-Serif" font-size="10.00">::ax12_init_banderole</text>
</a>
</g>
</g>
<!-- Node2&#45;&gt;Node14 -->
<g id="edge25" class="edge">
<title>Node2&#45;&gt;Node14</title>
<path fill="none" stroke="midnightblue" d="M745.76,-284.8C732.11,-317.54 703.49,-375.51 661,-408.5 656.55,-411.96 651.58,-414.93 646.38,-417.48"/>
<polygon fill="midnightblue" stroke="midnightblue" points="749.02,-286.09 749.52,-275.5 742.53,-283.46 749.02,-286.09"/>
</g>
<!-- Node15 -->
<g id="node15" class="node">
<title>Node15</title>
<g id="a_node15"><a xlink:href="classOPOS6UL__ActionsExtended.html#a565acda2ce4cdd1be8263835465d0fdc" target="_top" xlink:title="Initialise le bras gauche (épaule, coude, poignet) à la position de repos.">
<polygon fill="white" stroke="black" points="512,-74.5 512,-104.5 661,-104.5 661,-74.5 512,-74.5"/>
<text text-anchor="start" x="520" y="-92.5" font-family="Helvetica,sans-Serif" font-size="10.00">OPOS6UL_ActionsExtended</text>
<text text-anchor="middle" x="586.5" y="-81.5" font-family="Helvetica,sans-Serif" font-size="10.00">::ax12_init_L</text>
</a>
</g>
</g>
<!-- Node2&#45;&gt;Node15 -->
<g id="edge28" class="edge">
<title>Node2&#45;&gt;Node15</title>
<path fill="none" stroke="midnightblue" d="M734.71,-237.66C722.9,-223.73 708.18,-205.25 697,-187.5 677.51,-156.55 688.57,-137.53 661,-113.5 657.05,-110.06 652.6,-107.11 647.89,-104.58"/>
<polygon fill="midnightblue" stroke="midnightblue" points="732.11,-240 741.28,-245.29 737.41,-235.43 732.11,-240"/>
</g>
<!-- Node16 -->
<g id="node16" class="node">
<title>Node16</title>
<g id="a_node16"><a xlink:href="classOPOS6UL__ActionsExtended.html#a50a3db095faaaf15ec9630d9abcfb5d4" target="_top" xlink:title="Initialise les deux bras (gauche et droit) à la position de repos.">
<polygon fill="white" stroke="black" points="512,-172.5 512,-202.5 661,-202.5 661,-172.5 512,-172.5"/>
<text text-anchor="start" x="520" y="-190.5" font-family="Helvetica,sans-Serif" font-size="10.00">OPOS6UL_ActionsExtended</text>
<text text-anchor="middle" x="586.5" y="-179.5" font-family="Helvetica,sans-Serif" font-size="10.00">::ax12_init_LR</text>
</a>
</g>
</g>
<!-- Node2&#45;&gt;Node16 -->
<g id="edge29" class="edge">
<title>Node2&#45;&gt;Node16</title>
<path fill="none" stroke="midnightblue" d="M718.79,-240.47C701.57,-231.33 680.51,-220.75 661,-212.5 652.68,-208.98 643.68,-205.6 634.93,-202.51"/>
<polygon fill="midnightblue" stroke="midnightblue" points="717.47,-243.73 727.94,-245.36 720.78,-237.56 717.47,-243.73"/>
</g>
<!-- Node17 -->
<g id="node17" class="node">
<title>Node17</title>
<g id="a_node17"><a xlink:href="classOPOS6UL__ActionsExtended.html#a298422faffadf81c4350cd47464d3f0a" target="_top" xlink:title="Initialise le bras droit (épaule, coude, poignet) à la position de repos.">
<polygon fill="white" stroke="black" points="512,-123.5 512,-153.5 661,-153.5 661,-123.5 512,-123.5"/>
<text text-anchor="start" x="520" y="-141.5" font-family="Helvetica,sans-Serif" font-size="10.00">OPOS6UL_ActionsExtended</text>
<text text-anchor="middle" x="586.5" y="-130.5" font-family="Helvetica,sans-Serif" font-size="10.00">::ax12_init_R</text>
</a>
</g>
</g>
<!-- Node2&#45;&gt;Node17 -->
<g id="edge30" class="edge">
<title>Node2&#45;&gt;Node17</title>
<path fill="none" stroke="midnightblue" d="M737.7,-237.1C720.46,-215.27 692.13,-183.21 661,-163.5 654.96,-159.68 648.28,-156.37 641.47,-153.52"/>
<polygon fill="midnightblue" stroke="midnightblue" points="735.07,-239.42 743.96,-245.19 740.61,-235.14 735.07,-239.42"/>
</g>
<!-- Node4 -->
<g id="node4" class="node">
<title>Node4</title>
<g id="a_node4"><a xlink:href="classOPOS6UL__ActionsExtended.html#af04e19802d90a78d82e67b10061521a2" target="_top" xlink:title="Initialise tous les servomoteurs AX12 à leur position de départ.">
<polygon fill="white" stroke="black" points="327,-314.5 327,-344.5 476,-344.5 476,-314.5 327,-314.5"/>
<text text-anchor="start" x="335" y="-332.5" font-family="Helvetica,sans-Serif" font-size="10.00">OPOS6UL_ActionsExtended</text>
<text text-anchor="middle" x="401.5" y="-321.5" font-family="Helvetica,sans-Serif" font-size="10.00">::ax12_init</text>
</a>
</g>
</g>
<!-- Node3&#45;&gt;Node4 -->
<g id="edge3" class="edge">
<title>Node3&#45;&gt;Node4</title>
<path fill="none" stroke="midnightblue" d="M524.82,-365.6C501.72,-358.78 475.64,-351.08 453.52,-344.55"/>
<polygon fill="midnightblue" stroke="midnightblue" points="523.94,-368.98 534.52,-368.46 525.92,-362.27 523.94,-368.98"/>
</g>
<!-- Node6 -->
<g id="node6" class="node">
<title>Node6</title>
<g id="a_node6"><a xlink:href="classO__ServoObjectsTest.html#aabfa9ba518070128940062ed11028ca7" target="_top" xlink:title="Execute le test.">
<polygon fill="white" stroke="black" points="156,-364 156,-383 291,-383 291,-364 156,-364"/>
<text text-anchor="middle" x="223.5" y="-371" font-family="Helvetica,sans-Serif" font-size="10.00">O_ServoObjectsTest::run</text>
</a>
</g>
</g>
<!-- Node3&#45;&gt;Node6 -->
<g id="edge9" class="edge">
<title>Node3&#45;&gt;Node6</title>
<path fill="none" stroke="midnightblue" d="M501.63,-388.33C451.01,-390.36 385.23,-391.46 327,-387.5 313.02,-386.55 298.05,-384.88 283.98,-383.01"/>
<polygon fill="midnightblue" stroke="midnightblue" points="502.03,-391.81 511.87,-387.89 501.74,-384.82 502.03,-391.81"/>
</g>
<!-- Node8 -->
<g id="node8" class="node">
<title>Node8</title>
<g id="a_node8"><a xlink:href="classO__AsservTest.html#a87e2ffa360e3e12ff5c7b81b1952a04f" target="_top" xlink:title=" ">
<polygon fill="white" stroke="black" points="349.5,-276 349.5,-295 453.5,-295 453.5,-276 349.5,-276"/>
<text text-anchor="middle" x="401.5" y="-283" font-family="Helvetica,sans-Serif" font-size="10.00">O_AsservTest::run</text>
</a>
</g>
</g>
<!-- Node3&#45;&gt;Node8 -->
<g id="edge8" class="edge">
<title>Node3&#45;&gt;Node8</title>
<path fill="none" stroke="midnightblue" d="M517.7,-363.42C515.73,-362.19 513.82,-360.88 512,-359.5 489.02,-342.06 499.4,-322.36 476,-305.5 469.35,-300.71 461.61,-297.06 453.69,-294.29"/>
<polygon fill="midnightblue" stroke="midnightblue" points="516.25,-366.62 526.7,-368.37 519.62,-360.49 516.25,-366.62"/>
</g>
<!-- Node5 -->
<g id="node5" class="node">
<title>Node5</title>
<g id="a_node5"><a xlink:href="classO__State__Init.html#abc19788b7457d1f819245dd28367fe91" target="_top" xlink:title="Exécute l&#39;état d&#39;initialisation.">
<polygon fill="white" stroke="black" points="0,-304 0,-323 120,-323 120,-304 0,-304"/>
<text text-anchor="middle" x="60" y="-311" font-family="Helvetica,sans-Serif" font-size="10.00">O_State_Init::execute</text>
</a>
</g>
</g>
<!-- Node4&#45;&gt;Node5 -->
<g id="edge4" class="edge">
<title>Node4&#45;&gt;Node5</title>
<path fill="none" stroke="midnightblue" d="M316.63,-315.98C307.99,-314.97 299.33,-314.11 291,-313.5 233.05,-309.29 166.68,-309.86 120.17,-311.15"/>
<polygon fill="midnightblue" stroke="midnightblue" points="316.38,-319.48 326.74,-317.23 317.25,-312.53 316.38,-319.48"/>
</g>
<!-- Node4&#45;&gt;Node6 -->
<g id="edge5" class="edge">
<title>Node4&#45;&gt;Node6</title>
<path fill="none" stroke="midnightblue" d="M330.6,-346.97C307.39,-352.78 282.43,-359.02 262.55,-363.99"/>
<polygon fill="midnightblue" stroke="midnightblue" points="331.57,-350.34 340.42,-344.52 329.87,-343.55 331.57,-350.34"/>
</g>
<!-- Node7 -->
<g id="node7" class="node">
<title>Node7</title>
<g id="a_node7"><a xlink:href="classO__State__Init.html#a1980cd82dcb83e88d61f2e7e14dddfa0" target="_top" xlink:title=" ">
<polygon fill="white" stroke="black" points="166.5,-323 166.5,-342 280.5,-342 280.5,-323 166.5,-323"/>
<text text-anchor="middle" x="223.5" y="-330" font-family="Helvetica,sans-Serif" font-size="10.00">O_State_Init::setPos</text>
</a>
</g>
</g>
<!-- Node4&#45;&gt;Node7 -->
<g id="edge6" class="edge">
<title>Node4&#45;&gt;Node7</title>
<path fill="none" stroke="midnightblue" d="M316.68,-330.93C304.47,-331.14 292.16,-331.35 280.69,-331.54"/>
<polygon fill="midnightblue" stroke="midnightblue" points="316.94,-334.42 326.88,-330.75 316.82,-327.43 316.94,-334.42"/>
</g>
<!-- Node7&#45;&gt;Node5 -->
<g id="edge7" class="edge">
<title>Node7&#45;&gt;Node5</title>
<path fill="none" stroke="midnightblue" d="M156.51,-324.74C144.5,-323.32 132.03,-321.86 120.23,-320.47"/>
<polygon fill="midnightblue" stroke="midnightblue" points="156.13,-328.22 166.47,-325.91 156.95,-321.26 156.13,-328.22"/>
</g>
<!-- Node9&#45;&gt;Node4 -->
<g id="edge11" class="edge">
<title>Node9&#45;&gt;Node4</title>
<path fill="none" stroke="midnightblue" d="M501.61,-332.21C493.16,-331.98 484.62,-331.74 476.29,-331.52"/>
<polygon fill="midnightblue" stroke="midnightblue" points="501.77,-335.71 511.86,-332.49 501.96,-328.72 501.77,-335.71"/>
</g>
<!-- Node9&#45;&gt;Node6 -->
<g id="edge13" class="edge">
<title>Node9&#45;&gt;Node6</title>
<path fill="none" stroke="midnightblue" d="M501.64,-350.75C493,-352.14 484.33,-353.43 476,-354.5 413.57,-362.54 341.95,-367.54 291.15,-370.38"/>
<polygon fill="midnightblue" stroke="midnightblue" points="502.45,-354.16 511.74,-349.07 501.31,-347.25 502.45,-354.16"/>
</g>
<!-- Node9&#45;&gt;Node8 -->
<g id="edge12" class="edge">
<title>Node9&#45;&gt;Node8</title>
<path fill="none" stroke="midnightblue" d="M519.16,-316.74C491.72,-309.39 461.01,-301.17 437.99,-295"/>
<polygon fill="midnightblue" stroke="midnightblue" points="518.54,-320.19 529.1,-319.4 520.35,-313.43 518.54,-320.19"/>
</g>
<!-- Node10&#45;&gt;Node4 -->
<g id="edge15" class="edge">
<title>Node10&#45;&gt;Node4</title>
<path fill="none" stroke="midnightblue" d="M513.23,-302.88C497.28,-306.71 480.52,-310.74 465,-314.47"/>
<polygon fill="midnightblue" stroke="midnightblue" points="514.13,-306.26 523.03,-300.52 512.49,-299.45 514.13,-306.26"/>
</g>
<!-- Node10&#45;&gt;Node6 -->
<g id="edge17" class="edge">
<title>Node10&#45;&gt;Node6</title>
<path fill="none" stroke="midnightblue" d="M502.76,-268.67C438.23,-257.49 355,-247.95 327,-266.5 292.8,-289.16 321.16,-323.69 291,-351.5 285.19,-356.86 278.04,-360.91 270.61,-363.98"/>
<polygon fill="midnightblue" stroke="midnightblue" points="502.49,-272.18 512.95,-270.48 503.71,-265.29 502.49,-272.18"/>
</g>
<!-- Node10&#45;&gt;Node8 -->
<g id="edge16" class="edge">
<title>Node10&#45;&gt;Node8</title>
<path fill="none" stroke="midnightblue" d="M501.69,-285.5C485.25,-285.5 468.49,-285.5 453.53,-285.5"/>
<polygon fill="midnightblue" stroke="midnightblue" points="501.86,-289 511.86,-285.5 501.86,-282 501.86,-289"/>
</g>
<!-- Node11&#45;&gt;Node4 -->
<g id="edge19" class="edge">
<title>Node11&#45;&gt;Node4</title>
<path fill="none" stroke="midnightblue" d="M521.04,-256.02C517.9,-257.71 514.87,-259.54 512,-261.5 491.44,-275.59 496.56,-290.41 476,-304.5 470.44,-308.31 464.25,-311.59 457.89,-314.39"/>
<polygon fill="midnightblue" stroke="midnightblue" points="522.65,-259.13 530.11,-251.61 519.59,-252.84 522.65,-259.13"/>
</g>
<!-- Node11&#45;&gt;Node6 -->
<g id="edge21" class="edge">
<title>Node11&#45;&gt;Node6</title>
<path fill="none" stroke="midnightblue" d="M507.97,-220.07C452.24,-212.86 378.2,-213.26 327,-251.5 289.16,-279.77 324.83,-318.54 291,-351.5 285.51,-356.85 278.7,-360.89 271.54,-363.96"/>
<polygon fill="midnightblue" stroke="midnightblue" points="507.77,-223.58 518.16,-221.5 508.74,-216.64 507.77,-223.58"/>
</g>
<!-- Node11&#45;&gt;Node8 -->
<g id="edge20" class="edge">
<title>Node11&#45;&gt;Node8</title>
<path fill="none" stroke="midnightblue" d="M519.16,-254.26C491.72,-261.61 461.01,-269.83 437.99,-276"/>
<polygon fill="midnightblue" stroke="midnightblue" points="520.35,-257.57 529.1,-251.6 518.54,-250.81 520.35,-257.57"/>
</g>
<!-- Node12&#45;&gt;Node6 -->
<g id="edge24" class="edge">
<title>Node12&#45;&gt;Node6</title>
<path fill="none" stroke="midnightblue" d="M540.55,-512.03C486.64,-531.17 395.04,-553.72 327,-518.5 269.78,-488.88 237.67,-410.98 227.81,-383.37"/>
<polygon fill="midnightblue" stroke="midnightblue" points="541.98,-515.23 550.17,-508.5 539.57,-508.66 541.98,-515.23"/>
</g>
<!-- Node13 -->
<g id="node13" class="node">
<title>Node13</title>
<g id="a_node13"><a xlink:href="classO__State__DecisionMakerIA.html#a96d1f2a7618d607fd10cc51b9111e653" target="_top" xlink:title="Execute l&#39;action.">
<polygon fill="white" stroke="black" points="330.5,-478.5 330.5,-508.5 472.5,-508.5 472.5,-478.5 330.5,-478.5"/>
<text text-anchor="start" x="338.5" y="-496.5" font-family="Helvetica,sans-Serif" font-size="10.00">O_State_DecisionMakerIA</text>
<text text-anchor="middle" x="401.5" y="-485.5" font-family="Helvetica,sans-Serif" font-size="10.00">::execute</text>
</a>
</g>
</g>
<!-- Node12&#45;&gt;Node13 -->
<g id="edge23" class="edge">
<title>Node12&#45;&gt;Node13</title>
<path fill="none" stroke="midnightblue" d="M501.79,-493.5C492.07,-493.5 482.24,-493.5 472.73,-493.5"/>
<polygon fill="midnightblue" stroke="midnightblue" points="501.86,-497 511.86,-493.5 501.86,-490 501.86,-497"/>
</g>
<!-- Node14&#45;&gt;Node4 -->
<g id="edge26" class="edge">
<title>Node14&#45;&gt;Node4</title>
<path fill="none" stroke="midnightblue" d="M523.01,-413.6C519.23,-412 515.53,-410.3 512,-408.5 476.89,-390.65 440.71,-362.21 419.98,-344.76"/>
<polygon fill="midnightblue" stroke="midnightblue" points="521.92,-416.94 532.5,-417.39 524.51,-410.43 521.92,-416.94"/>
</g>
<!-- Node14&#45;&gt;Node6 -->
<g id="edge27" class="edge">
<title>Node14&#45;&gt;Node6</title>
<path fill="none" stroke="midnightblue" d="M501.79,-426.21C450.93,-421.54 384.86,-413.96 327,-402.5 301.78,-397.5 273.73,-389.38 253.36,-383"/>
<polygon fill="midnightblue" stroke="midnightblue" points="501.48,-429.69 511.75,-427.1 502.11,-422.72 501.48,-429.69"/>
</g>
<!-- Node18&#45;&gt;Node15 -->
<g id="edge32" class="edge">
<title>Node18&#45;&gt;Node15</title>
<path fill="none" stroke="midnightblue" d="M708,-143.11C704.24,-141.3 700.53,-139.42 697,-137.5 680.1,-128.32 678.3,-121.9 661,-113.5 654.24,-110.22 646.92,-107.22 639.6,-104.55"/>
<polygon fill="midnightblue" stroke="midnightblue" points="706.85,-146.44 717.4,-147.47 709.8,-140.09 706.85,-146.44"/>
</g>
<!-- Node18&#45;&gt;Node16 -->
<g id="edge33" class="edge">
<title>Node18&#45;&gt;Node16</title>
<path fill="none" stroke="midnightblue" d="M686.73,-172.69C678.3,-173.95 669.66,-175.24 661.15,-176.51"/>
<polygon fill="midnightblue" stroke="midnightblue" points="687.51,-176.11 696.89,-171.17 686.48,-169.19 687.51,-176.11"/>
</g>
<!-- Node18&#45;&gt;Node17 -->
<g id="edge34" class="edge">
<title>Node18&#45;&gt;Node17</title>
<path fill="none" stroke="midnightblue" d="M686.73,-152.72C678.3,-151.51 669.66,-150.27 661.15,-149.05"/>
<polygon fill="midnightblue" stroke="midnightblue" points="686.49,-156.22 696.89,-154.17 687.48,-149.29 686.49,-156.22"/>
</g>
</g>
</svg>
        <g id="navigator" transform="translate(0 0)" fill="#404254">
                <rect fill="#f2f5e9" fill-opacity="0.5" stroke="#606060" stroke-width=".5" x="0" y="0" width="60" height="60"/>
                <use id="zoomplus" xlink:href="#zoomPlus" x="17" y="9" onmousedown="handleZoom(evt,'in')"/>
                <use id="zoomminus" xlink:href="#zoomMin" x="42" y="9" onmousedown="handleZoom(evt,'out')"/>
                <use id="reset" xlink:href="#resetDef" x="30" y="36" onmousedown="handleReset()"/>
                <g id="arrowUp" xlink:href="#dirArrow" transform="translate(30 24)" onmousedown="handlePan(0,-1)">
                  <use xlink:href="#rim" fill="#404040">
                        <set attributeName="fill" to="#808080" begin="arrowUp.mouseover" end="arrowUp.mouseout"/>
                  </use>
                  <path fill="none" stroke="white" stroke-width="1.5" d="M0,-3.0v7 M-2.5,-0.5L0,-3.0L2.5,-0.5"/>
                </g>
                <g id="arrowRight" xlink:href="#dirArrow" transform="rotate(90) translate(36 -43)" onmousedown="handlePan(1,0)">
                  <use xlink:href="#rim" fill="#404040">
                        <set attributeName="fill" to="#808080" begin="arrowRight.mouseover" end="arrowRight.mouseout"/>
                  </use>
                  <path fill="none" stroke="white" stroke-width="1.5" d="M0,-3.0v7 M-2.5,-0.5L0,-3.0L2.5,-0.5"/>
                </g>
                <g id="arrowDown" xlink:href="#dirArrow" transform="rotate(180) translate(-30 -48)" onmousedown="handlePan(0,1)">
                  <use xlink:href="#rim" fill="#404040">
                        <set attributeName="fill" to="#808080" begin="arrowDown.mouseover" end="arrowDown.mouseout"/>
                  </use>
                  <path fill="none" stroke="white" stroke-width="1.5" d="M0,-3.0v7 M-2.5,-0.5L0,-3.0L2.5,-0.5"/>
                </g>
                <g id="arrowLeft" xlink:href="#dirArrow" transform="rotate(270) translate(-36 17)" onmousedown="handlePan(-1,0)">
                  <use xlink:href="#rim" fill="#404040">
                        <set attributeName="fill" to="#808080" begin="arrowLeft.mouseover" end="arrowLeft.mouseout"/>
                  </use>
                  <path fill="none" stroke="white" stroke-width="1.5" d="M0,-3.0v7 M-2.5,-0.5L0,-3.0L2.5,-0.5"/>
                </g>
        </g>
        <svg viewBox="0 0 15 15" width="100%" height="30px" preserveAspectRatio="xMaxYMin meet">
         <g id="arrow_out" transform="scale(0.3 0.3)">
          <a xlink:href="classAServoDriver_ab7edad21e6c5cb53a72bdd1673040a36_icgraph_org.svg" target="_base">
           <rect id="button" ry="5" rx="5" y="6" x="6" height="38" width="38"
                fill="#f2f5e9" fill-opacity="0.5" stroke="#606060" stroke-width="1.0"/>
           <path id="arrow"
             d="M 11.500037,31.436501 C 11.940474,20.09759 22.043105,11.32322 32.158766,21.979434 L 37.068811,17.246167 C 37.068811,17.246167 37.088388,32 37.088388,32 L 22.160133,31.978069 C 22.160133,31.978069 26.997745,27.140456 26.997745,27.140456 C 18.528582,18.264221 13.291696,25.230495 11.500037,31.436501 z"
             style="fill:#404040;"/>
          </a>
         </g>
        </svg>
</svg>
