<?xml version="1.0" encoding="UTF-8" standalone="no"?>
<!DOCTYPE svg PUBLIC "-//W3C//DTD SVG 1.1//EN"
 "http://www.w3.org/Graphics/SVG/1.1/DTD/svg11.dtd">
<!-- Generated by graphviz version 2.43.0 (0)
 -->
<!-- Title: test::PosixTimerBench::benchTimer100ms Pages: 1 -->
<!--zoomable 748 -->
<svg id="main" version="1.1" xmlns="http://www.w3.org/2000/svg" xmlns:xlink="http://www.w3.org/1999/xlink" xml:space="preserve" onload="init(evt)">
<style type="text/css"><![CDATA[
.edge:hover path { stroke: red; }
.edge:hover polygon { stroke: red; fill: red; }
]]></style>
<script type="text/javascript"><![CDATA[
var edges = document.getElementsByTagName('g');
if (edges && edges.length) {
  for (var i=0;i<edges.length;i++) {
    if (edges[i].id.substr(0,4)=='edge') {
      edges[i].setAttribute('class','edge');
    }
  }
}
]]></script>
        <defs>
                <circle id="rim" cx="0" cy="0" r="7"/>
                <circle id="rim2" cx="0" cy="0" r="3.5"/>
                <g id="zoomPlus">
                        <use xlink:href="#rim" fill="#404040">
                                <set attributeName="fill" to="#808080" begin="zoomplus.mouseover" end="zoomplus.mouseout"/>
                        </use>
                        <path d="M-4,0h8M0,-4v8" fill="none" stroke="white" stroke-width="1.5" pointer-events="none"/>
                </g>
                <g id="zoomMin">
                        <use xlink:href="#rim" fill="#404040">
                                <set attributeName="fill" to="#808080" begin="zoomminus.mouseover" end="zoomminus.mouseout"/>
                        </use>
                        <path d="M-4,0h8" fill="none" stroke="white" stroke-width="1.5" pointer-events="none"/>
                </g>
                <g id="dirArrow">
                        <path fill="none" stroke="white" stroke-width="1.5" d="M0,-3.0v7 M-2.5,-0.5L0,-3.0L2.5,-0.5"/>
                </g>
               <g id="resetDef">
                       <use xlink:href="#rim2" fill="#404040">
                               <set attributeName="fill" to="#808080" begin="reset.mouseover" end="reset.mouseout"/>
                       </use>
               </g>
        </defs>

<script type="text/javascript">
var viewWidth = 1300;
var viewHeight = 748;
var sectionId = 'dynsection-3';
</script>
<script xlink:href="svgpan.js"/>
<svg id="graph" class="graph">
<g id="viewport">
<title>test::PosixTimerBench::benchTimer100ms</title>
<polygon fill="white" stroke="transparent" points="-4,4 -4,-744 1296,-744 1296,4 -4,4"/>
<!-- Node1 -->
<g id="node1" class="node">
<title>Node1</title>
<g id="a_node1"><a xlink:title=" ">
<polygon fill="#bfbfbf" stroke="black" points="0,-143 0,-173 126,-173 126,-143 0,-143"/>
<text text-anchor="start" x="8" y="-161" font-family="Helvetica,sans-Serif" font-size="10.00">test::PosixTimerBench</text>
<text text-anchor="middle" x="63" y="-150" font-family="Helvetica,sans-Serif" font-size="10.00">::benchTimer100ms</text>
</a>
</g>
</g>
<!-- Node2 -->
<g id="node2" class="node">
<title>Node2</title>
<g id="a_node2"><a xlink:href="namespacelogs.html#ac6f325c6cfe6189bc8e243daa184453b" target="_top" xlink:title="Cette méthode permet de finir les flux de construction par la notation.">
<polygon fill="white" stroke="black" points="807.5,-154.5 807.5,-173.5 868.5,-173.5 868.5,-154.5 807.5,-154.5"/>
<text text-anchor="middle" x="838" y="-161.5" font-family="Helvetica,sans-Serif" font-size="10.00">logs::end</text>
</a>
</g>
</g>
<!-- Node1&#45;&gt;Node2 -->
<g id="edge1" class="edge">
<title>Node1&#45;&gt;Node2</title>
<path fill="none" stroke="midnightblue" d="M81.77,-142.8C121.43,-110.51 221.29,-38 318.5,-38 318.5,-38 318.5,-38 484.5,-38 598.37,-38 647.88,9.93 740,-57 774.19,-81.84 744.86,-116.44 776,-145 782.1,-150.6 789.83,-154.54 797.72,-157.33"/>
<polygon fill="midnightblue" stroke="midnightblue" points="796.74,-160.69 807.33,-160.18 798.74,-153.98 796.74,-160.69"/>
</g>
<!-- Node7 -->
<g id="node7" class="node">
<title>Node7</title>
<g id="a_node7"><a xlink:href="PosixTimerBench_8cpp.html#aaf124ed55219ceac7271238db400ef67" target="_top" xlink:title=" ">
<polygon fill="white" stroke="black" points="162,-268.5 162,-287.5 224,-287.5 224,-268.5 162,-268.5"/>
<text text-anchor="middle" x="193" y="-275.5" font-family="Helvetica,sans-Serif" font-size="10.00">runBench</text>
</a>
</g>
</g>
<!-- Node1&#45;&gt;Node7 -->
<g id="edge6" class="edge">
<title>Node1&#45;&gt;Node7</title>
<path fill="none" stroke="midnightblue" d="M80.21,-173.2C104.37,-195.85 149.64,-238.29 174.52,-261.61"/>
<polygon fill="midnightblue" stroke="midnightblue" points="172.13,-264.17 181.82,-268.46 176.92,-259.07 172.13,-264.17"/>
</g>
<!-- Node3 -->
<g id="node3" class="node">
<title>Node3</title>
<g id="a_node3"><a xlink:href="classlogs_1_1Logger_1_1LoggerBuffer.html#a0e4fd77693fd899ec1b0670354f93a02" target="_top" xlink:title="Cette méthode valide le message en cours de construction et le transmet au Logger de référence.">
<polygon fill="white" stroke="black" points="937,-192.5 937,-211.5 1105,-211.5 1105,-192.5 937,-192.5"/>
<text text-anchor="middle" x="1021" y="-199.5" font-family="Helvetica,sans-Serif" font-size="10.00">logs::Logger::LoggerBuffer::end</text>
</a>
</g>
</g>
<!-- Node2&#45;&gt;Node3 -->
<g id="edge2" class="edge">
<title>Node2&#45;&gt;Node3</title>
<path fill="none" stroke="midnightblue" d="M868.89,-170.27C894.8,-175.72 932.98,-183.73 964.48,-190.34"/>
<polygon fill="midnightblue" stroke="midnightblue" points="963.94,-193.81 974.45,-192.44 965.38,-186.96 963.94,-193.81"/>
</g>
<!-- Node4 -->
<g id="node4" class="node">
<title>Node4</title>
<g id="a_node4"><a xlink:href="classutils_1_1Mutex.html#aa584b418a5ef484f76b93e361a1d7e32" target="_top" xlink:title="Verrouille le mutex. Cette méthode doit être appelée avant d&#39;utiliser la ressource associée....">
<polygon fill="white" stroke="black" points="1166.5,-448.5 1166.5,-467.5 1267.5,-467.5 1267.5,-448.5 1166.5,-448.5"/>
<text text-anchor="middle" x="1217" y="-455.5" font-family="Helvetica,sans-Serif" font-size="10.00">utils::Mutex::lock</text>
</a>
</g>
</g>
<!-- Node3&#45;&gt;Node4 -->
<g id="edge3" class="edge">
<title>Node3&#45;&gt;Node4</title>
<path fill="none" stroke="midnightblue" d="M1029.37,-211.72C1058.3,-249.9 1164.38,-389.88 1202.36,-440"/>
<polygon fill="midnightblue" stroke="midnightblue" points="1199.8,-442.41 1208.62,-448.27 1205.37,-438.18 1199.8,-442.41"/>
</g>
<!-- Node5 -->
<g id="node5" class="node">
<title>Node5</title>
<g id="a_node5"><a xlink:href="classutils_1_1Mutex.html#a59b2079dc7f803d49f78ac9c04406cd3" target="_top" xlink:title="Déverrouille le mutex. Cette méthode doit être appelée après avoir utiliser la ressource associée.">
<polygon fill="white" stroke="black" points="1160.5,-325.5 1160.5,-344.5 1273.5,-344.5 1273.5,-325.5 1160.5,-325.5"/>
<text text-anchor="middle" x="1217" y="-332.5" font-family="Helvetica,sans-Serif" font-size="10.00">utils::Mutex::unlock</text>
</a>
</g>
</g>
<!-- Node3&#45;&gt;Node5 -->
<g id="edge4" class="edge">
<title>Node3&#45;&gt;Node5</title>
<path fill="none" stroke="midnightblue" d="M1071.23,-211.61C1083.09,-215.11 1095.4,-219.79 1106,-226 1147.12,-250.07 1184.03,-293.06 1202.85,-317.23"/>
<polygon fill="midnightblue" stroke="midnightblue" points="1200.09,-319.39 1208.94,-325.21 1205.66,-315.14 1200.09,-319.39"/>
</g>
<!-- Node6 -->
<g id="node6" class="node">
<title>Node6</title>
<g id="a_node6"><a xlink:href="classlogs_1_1Logger.html#afa535aaf4891e02c4ff7f84d372b5b1b" target="_top" xlink:title="Méthode générique de trace d&#39;un message.">
<polygon fill="white" stroke="black" points="1142,-154.5 1142,-173.5 1292,-173.5 1292,-154.5 1142,-154.5"/>
<text text-anchor="middle" x="1217" y="-161.5" font-family="Helvetica,sans-Serif" font-size="10.00">logs::Logger::writeMessage</text>
</a>
</g>
</g>
<!-- Node3&#45;&gt;Node6 -->
<g id="edge5" class="edge">
<title>Node3&#45;&gt;Node6</title>
<path fill="none" stroke="midnightblue" d="M1070.95,-192.41C1097.25,-187.26 1129.84,-180.88 1157.47,-175.47"/>
<polygon fill="midnightblue" stroke="midnightblue" points="1158.26,-178.88 1167.4,-173.52 1156.91,-172.01 1158.26,-178.88"/>
</g>
<!-- Node7&#45;&gt;Node2 -->
<g id="edge22" class="edge">
<title>Node7&#45;&gt;Node2</title>
<path fill="none" stroke="midnightblue" d="M216.61,-268.44C229.22,-263.36 245.3,-257.3 260,-253 402.97,-211.16 440.57,-205.34 588,-184 661.38,-173.38 747.79,-168.02 797.11,-165.64"/>
<polygon fill="midnightblue" stroke="midnightblue" points="797.52,-169.12 807.35,-165.16 797.2,-162.13 797.52,-169.12"/>
</g>
<!-- Node8 -->
<g id="node8" class="node">
<title>Node8</title>
<g id="a_node8"><a xlink:href="classActionManagerTimer.html#a37abad611ac11d81f2ebcb8d9d5766f8" target="_top" xlink:title="Ajout d&#39;un timer. deprecated.">
<polygon fill="white" stroke="black" points="424,-529 424,-559 543,-559 543,-529 424,-529"/>
<text text-anchor="start" x="432" y="-547" font-family="Helvetica,sans-Serif" font-size="10.00">ActionManagerTimer</text>
<text text-anchor="middle" x="483.5" y="-536" font-family="Helvetica,sans-Serif" font-size="10.00">::addTimer</text>
</a>
</g>
</g>
<!-- Node7&#45;&gt;Node8 -->
<g id="edge7" class="edge">
<title>Node7&#45;&gt;Node8</title>
<path fill="none" stroke="midnightblue" d="M204.61,-287.78C246.25,-326.18 399.12,-467.12 458.6,-521.96"/>
<polygon fill="midnightblue" stroke="midnightblue" points="456.3,-524.61 466.03,-528.81 461.05,-519.46 456.3,-524.61"/>
</g>
<!-- Node13 -->
<g id="node13" class="node">
<title>Node13</title>
<g id="a_node13"><a xlink:href="classlogs_1_1LoggerFactory.html#a82585b5de73e471e06cafdccc3b3721e" target="_top" xlink:title="Cette méthode statique retourne un Logger en fonction de son nom.">
<polygon fill="white" stroke="black" points="965.5,-671 965.5,-701 1076.5,-701 1076.5,-671 965.5,-671"/>
<text text-anchor="start" x="973.5" y="-689" font-family="Helvetica,sans-Serif" font-size="10.00">logs::LoggerFactory</text>
<text text-anchor="middle" x="1021" y="-678" font-family="Helvetica,sans-Serif" font-size="10.00">::logger</text>
</a>
</g>
</g>
<!-- Node7&#45;&gt;Node13 -->
<g id="edge28" class="edge">
<title>Node7&#45;&gt;Node13</title>
<path fill="none" stroke="midnightblue" d="M195.59,-287.52C206.59,-349.74 277.05,-696 482.5,-696 482.5,-696 482.5,-696 665,-696 766.37,-696 883.96,-691.88 955.12,-688.92"/>
<polygon fill="midnightblue" stroke="midnightblue" points="955.44,-692.41 965.28,-688.5 955.14,-685.42 955.44,-692.41"/>
</g>
<!-- Node17 -->
<g id="node17" class="node">
<title>Node17</title>
<g id="a_node17"><a xlink:href="classTimingPosixTimer.html#a21831bc084832ab6bff58b7ed6701d02" target="_top" xlink:title=" ">
<polygon fill="white" stroke="black" points="936,-584.5 936,-603.5 1106,-603.5 1106,-584.5 936,-584.5"/>
<text text-anchor="middle" x="1021" y="-591.5" font-family="Helvetica,sans-Serif" font-size="10.00">TimingPosixTimer::getIntervals</text>
</a>
</g>
</g>
<!-- Node7&#45;&gt;Node17 -->
<g id="edge23" class="edge">
<title>Node7&#45;&gt;Node17</title>
<path fill="none" stroke="midnightblue" d="M197.75,-287.61C214.9,-330.04 290.35,-501.43 415,-569 598.76,-668.61 862.04,-628.57 970.46,-605.72"/>
<polygon fill="midnightblue" stroke="midnightblue" points="971.42,-609.09 980.46,-603.57 969.95,-602.25 971.42,-609.09"/>
</g>
<!-- Node18 -->
<g id="node18" class="node">
<title>Node18</title>
<g id="a_node18"><a xlink:href="classlogs_1_1Logger.html#aa381165771d00a6a1e3aa9664bf6467f" target="_top" xlink:title="Trace un message de niveau INFO.">
<polygon fill="white" stroke="black" points="269,-72.5 269,-91.5 370,-91.5 370,-72.5 269,-72.5"/>
<text text-anchor="middle" x="319.5" y="-79.5" font-family="Helvetica,sans-Serif" font-size="10.00">logs::Logger::info</text>
</a>
</g>
</g>
<!-- Node7&#45;&gt;Node18 -->
<g id="edge26" class="edge">
<title>Node7&#45;&gt;Node18</title>
<path fill="none" stroke="midnightblue" d="M195.45,-268.12C200,-240.26 216.4,-159.97 260,-112 265.85,-105.56 273.4,-100.3 281.12,-96.09"/>
<polygon fill="midnightblue" stroke="midnightblue" points="282.75,-99.18 290.16,-91.61 279.65,-92.91 282.75,-99.18"/>
</g>
<!-- Node19 -->
<g id="node19" class="node">
<title>Node19</title>
<g id="a_node19"><a xlink:href="classutils_1_1Thread.html#a430ee2b8962147b587157fac97932219" target="_top" xlink:title="Lance le thread.">
<polygon fill="white" stroke="black" points="430.5,-116.5 430.5,-135.5 536.5,-135.5 536.5,-116.5 430.5,-116.5"/>
<text text-anchor="middle" x="483.5" y="-123.5" font-family="Helvetica,sans-Serif" font-size="10.00">utils::Thread::start</text>
</a>
</g>
</g>
<!-- Node7&#45;&gt;Node19 -->
<g id="edge29" class="edge">
<title>Node7&#45;&gt;Node19</title>
<path fill="none" stroke="midnightblue" d="M195.78,-268.24C200.84,-243.63 217.73,-178.99 260,-150 306.57,-118.07 371.97,-114.66 419.82,-117.67"/>
<polygon fill="midnightblue" stroke="midnightblue" points="419.82,-121.18 430.05,-118.43 420.34,-114.2 419.82,-121.18"/>
</g>
<!-- Node25 -->
<g id="node25" class="node">
<title>Node25</title>
<g id="a_node25"><a xlink:href="classActionManagerTimer.html#a072223491745aebbaa0344124635b7f8" target="_top" xlink:title="Signale au thread qu&#39;il doit s&#39;arreter (proprement). Arrete aussi tous les timers posix en cours en l...">
<polygon fill="white" stroke="black" points="260,-263 260,-293 379,-293 379,-263 260,-263"/>
<text text-anchor="start" x="268" y="-281" font-family="Helvetica,sans-Serif" font-size="10.00">ActionManagerTimer</text>
<text text-anchor="middle" x="319.5" y="-270" font-family="Helvetica,sans-Serif" font-size="10.00">::stop</text>
</a>
</g>
</g>
<!-- Node7&#45;&gt;Node25 -->
<g id="edge39" class="edge">
<title>Node7&#45;&gt;Node25</title>
<path fill="none" stroke="midnightblue" d="M224.14,-278C231.98,-278 240.76,-278 249.72,-278"/>
<polygon fill="midnightblue" stroke="midnightblue" points="249.88,-281.5 259.88,-278 249.88,-274.5 249.88,-281.5"/>
</g>
<!-- Node26 -->
<g id="node26" class="node">
<title>Node26</title>
<g id="a_node26"><a xlink:href="classActionManagerTimer.html#aea93da8bac8e622881a125ee7506a7ca" target="_top" xlink:title="Arrete tous les timers posix. Permet d&#39;executer leur action de fin puis les supprime de la liste.">
<polygon fill="white" stroke="black" points="424,-307 424,-337 543,-337 543,-307 424,-307"/>
<text text-anchor="start" x="432" y="-325" font-family="Helvetica,sans-Serif" font-size="10.00">ActionManagerTimer</text>
<text text-anchor="middle" x="483.5" y="-314" font-family="Helvetica,sans-Serif" font-size="10.00">::stopAllPTimers</text>
</a>
</g>
</g>
<!-- Node7&#45;&gt;Node26 -->
<g id="edge52" class="edge">
<title>Node7&#45;&gt;Node26</title>
<path fill="none" stroke="midnightblue" d="M215.87,-287.58C228.52,-292.7 244.89,-298.63 260,-302 310.75,-313.31 369.36,-318.26 413.69,-320.41"/>
<polygon fill="midnightblue" stroke="midnightblue" points="413.63,-323.91 423.77,-320.86 413.94,-316.91 413.63,-323.91"/>
</g>
<!-- Node8&#45;&gt;Node4 -->
<g id="edge8" class="edge">
<title>Node8&#45;&gt;Node4</title>
<path fill="none" stroke="midnightblue" d="M505.03,-559.14C525.06,-572.94 556.95,-592.44 588,-601 699,-631.59 1003.7,-665.84 1106,-613 1162.06,-584.04 1195.74,-511.86 1209.2,-477.19"/>
<polygon fill="midnightblue" stroke="midnightblue" points="1212.52,-478.31 1212.73,-467.72 1205.96,-475.87 1212.52,-478.31"/>
</g>
<!-- Node8&#45;&gt;Node5 -->
<g id="edge21" class="edge">
<title>Node8&#45;&gt;Node5</title>
<path fill="none" stroke="midnightblue" d="M543.27,-549.15C624.33,-554.87 774.66,-560.47 900,-537 995.92,-519.04 1025.64,-516.36 1106,-461 1149.42,-431.08 1186.59,-380.21 1204.53,-353.16"/>
<polygon fill="midnightblue" stroke="midnightblue" points="1207.54,-354.96 1210.05,-344.67 1201.67,-351.14 1207.54,-354.96"/>
</g>
<!-- Node9 -->
<g id="node9" class="node">
<title>Node9</title>
<g id="a_node9"><a xlink:href="classITimerListener.html#a746c0ceee4eb354754d2e90c5638454c" target="_top" xlink:title=" ">
<polygon fill="white" stroke="black" points="594,-572.5 594,-591.5 734,-591.5 734,-572.5 594,-572.5"/>
<text text-anchor="middle" x="664" y="-579.5" font-family="Helvetica,sans-Serif" font-size="10.00">ITimerListener::timeSpan</text>
</a>
</g>
</g>
<!-- Node8&#45;&gt;Node9 -->
<g id="edge9" class="edge">
<title>Node8&#45;&gt;Node9</title>
<path fill="none" stroke="midnightblue" d="M543.44,-556.55C564.39,-561.01 587.86,-566 608.42,-570.38"/>
<polygon fill="midnightblue" stroke="midnightblue" points="607.75,-573.82 618.26,-572.48 609.21,-566.97 607.75,-573.82"/>
</g>
<!-- Node10 -->
<g id="node10" class="node">
<title>Node10</title>
<g id="a_node10"><a xlink:href="classActionManagerTimer.html#a39f4cbb5ddbbe6a40980bb59b8b59b05" target="_top" xlink:title=" ">
<polygon fill="white" stroke="black" points="604.5,-356 604.5,-386 723.5,-386 723.5,-356 604.5,-356"/>
<text text-anchor="start" x="612.5" y="-374" font-family="Helvetica,sans-Serif" font-size="10.00">ActionManagerTimer</text>
<text text-anchor="middle" x="664" y="-363" font-family="Helvetica,sans-Serif" font-size="10.00">::unblock</text>
</a>
</g>
</g>
<!-- Node8&#45;&gt;Node10 -->
<g id="edge10" class="edge">
<title>Node8&#45;&gt;Node10</title>
<path fill="none" stroke="midnightblue" d="M500.03,-528.95C531.55,-498.4 603.15,-429.01 640.06,-393.24"/>
<polygon fill="midnightblue" stroke="midnightblue" points="642.64,-395.61 647.38,-386.14 637.76,-390.58 642.64,-395.61"/>
</g>
<!-- Node10&#45;&gt;Node2 -->
<g id="edge11" class="edge">
<title>Node10&#45;&gt;Node2</title>
<path fill="none" stroke="midnightblue" d="M723.61,-358.39C729.75,-355.16 735.41,-351.1 740,-346 789.65,-290.87 725.8,-237.63 776,-183 781.71,-176.79 789.41,-172.59 797.42,-169.76"/>
<polygon fill="midnightblue" stroke="midnightblue" points="798.58,-173.06 807.22,-166.93 796.64,-166.34 798.58,-173.06"/>
</g>
<!-- Node10&#45;&gt;Node4 -->
<g id="edge14" class="edge">
<title>Node10&#45;&gt;Node4</title>
<path fill="none" stroke="midnightblue" d="M705.01,-386.05C768.71,-409.7 890.61,-453.66 936,-461 1010.59,-473.06 1030.45,-462.03 1106,-461 1122.22,-460.78 1139.78,-460.37 1156.01,-459.93"/>
<polygon fill="midnightblue" stroke="midnightblue" points="1156.55,-463.42 1166.45,-459.64 1156.36,-456.42 1156.55,-463.42"/>
</g>
<!-- Node10&#45;&gt;Node5 -->
<g id="edge20" class="edge">
<title>Node10&#45;&gt;Node5</title>
<path fill="none" stroke="midnightblue" d="M718.51,-355.91C725.92,-353.04 733.29,-349.74 740,-346 758.19,-335.86 756.42,-323.09 776,-316 914.41,-265.89 1093.48,-301.89 1173.78,-322.83"/>
<polygon fill="midnightblue" stroke="midnightblue" points="1172.97,-326.23 1183.53,-325.43 1174.77,-319.47 1172.97,-326.23"/>
</g>
<!-- Node11 -->
<g id="node11" class="node">
<title>Node11</title>
<g id="a_node11"><a xlink:href="classlogs_1_1Logger.html#a8b6a2019233bc44b3c3c86c653910831" target="_top" xlink:title="Trace un message de niveau ERROR.">
<polygon fill="white" stroke="black" points="785.5,-192.5 785.5,-211.5 890.5,-211.5 890.5,-192.5 785.5,-192.5"/>
<text text-anchor="middle" x="838" y="-199.5" font-family="Helvetica,sans-Serif" font-size="10.00">logs::Logger::error</text>
</a>
</g>
</g>
<!-- Node10&#45;&gt;Node11 -->
<g id="edge12" class="edge">
<title>Node10&#45;&gt;Node11</title>
<path fill="none" stroke="midnightblue" d="M723.81,-356.91C729.69,-353.94 735.23,-350.35 740,-346 769.41,-319.18 753.67,-296.95 776,-264 787.64,-246.81 804.37,-230.21 817.37,-218.51"/>
<polygon fill="midnightblue" stroke="midnightblue" points="819.69,-221.13 824.9,-211.91 815.07,-215.87 819.69,-221.13"/>
</g>
<!-- Node12 -->
<g id="node12" class="node">
<title>Node12</title>
<g id="a_node12"><a xlink:href="classActionManagerTimer.html#a280846361e5c7e0ebe57972755841c2b" target="_top" xlink:title=" ">
<polygon fill="white" stroke="black" points="778.5,-497 778.5,-527 897.5,-527 897.5,-497 778.5,-497"/>
<text text-anchor="start" x="786.5" y="-515" font-family="Helvetica,sans-Serif" font-size="10.00">ActionManagerTimer</text>
<text text-anchor="middle" x="838" y="-504" font-family="Helvetica,sans-Serif" font-size="10.00">::logger</text>
</a>
</g>
</g>
<!-- Node10&#45;&gt;Node12 -->
<g id="edge15" class="edge">
<title>Node10&#45;&gt;Node12</title>
<path fill="none" stroke="midnightblue" d="M683.41,-386.09C713.97,-411.15 775.32,-461.44 810.53,-490.3"/>
<polygon fill="midnightblue" stroke="midnightblue" points="808.51,-493.17 818.47,-496.81 812.95,-487.76 808.51,-493.17"/>
</g>
<!-- Node11&#45;&gt;Node6 -->
<g id="edge13" class="edge">
<title>Node11&#45;&gt;Node6</title>
<path fill="none" stroke="midnightblue" d="M881.79,-192.42C898.61,-188.96 918.14,-185.35 936,-183 1001.37,-174.41 1075.88,-169.6 1131.59,-166.96"/>
<polygon fill="midnightblue" stroke="midnightblue" points="1131.93,-170.45 1141.76,-166.49 1131.61,-163.46 1131.93,-170.45"/>
</g>
<!-- Node12&#45;&gt;Node13 -->
<g id="edge16" class="edge">
<title>Node12&#45;&gt;Node13</title>
<path fill="none" stroke="midnightblue" d="M852.73,-527.13C871.17,-547.24 905.18,-583.67 936,-613 954.77,-630.85 976.91,-650.03 993.75,-664.24"/>
<polygon fill="midnightblue" stroke="midnightblue" points="991.65,-667.05 1001.56,-670.8 996.15,-661.68 991.65,-667.05"/>
</g>
<!-- Node14 -->
<g id="node14" class="node">
<title>Node14</title>
<g id="a_node14"><a xlink:href="classlogs_1_1LoggerFactory.html#ac89f19c0ffd71aa8cdc1c2d44c03809e" target="_top" xlink:title="Cette méthode ajoute un appender au système.">
<polygon fill="white" stroke="black" points="1150,-720.5 1150,-739.5 1284,-739.5 1284,-720.5 1150,-720.5"/>
<text text-anchor="middle" x="1217" y="-727.5" font-family="Helvetica,sans-Serif" font-size="10.00">logs::LoggerFactory::add</text>
</a>
</g>
</g>
<!-- Node13&#45;&gt;Node14 -->
<g id="edge17" class="edge">
<title>Node13&#45;&gt;Node14</title>
<path fill="none" stroke="midnightblue" d="M1076.56,-698.37C1103.88,-704.57 1136.81,-712.04 1163.81,-718.16"/>
<polygon fill="midnightblue" stroke="midnightblue" points="1163.31,-721.64 1173.84,-720.44 1164.86,-714.81 1163.31,-721.64"/>
</g>
<!-- Node15 -->
<g id="node15" class="node">
<title>Node15</title>
<g id="a_node15"><a xlink:href="classlogs_1_1LoggerFactory.html#a90478b91d7af2ef8841ded21e3521f69" target="_top" xlink:title="Cette méthode statique retourne l&#39;instance unique de la classe LoggerFactory.">
<polygon fill="white" stroke="black" points="1161.5,-671 1161.5,-701 1272.5,-701 1272.5,-671 1161.5,-671"/>
<text text-anchor="start" x="1169.5" y="-689" font-family="Helvetica,sans-Serif" font-size="10.00">logs::LoggerFactory</text>
<text text-anchor="middle" x="1217" y="-678" font-family="Helvetica,sans-Serif" font-size="10.00">::instance</text>
</a>
</g>
</g>
<!-- Node13&#45;&gt;Node15 -->
<g id="edge18" class="edge">
<title>Node13&#45;&gt;Node15</title>
<path fill="none" stroke="midnightblue" d="M1076.56,-686C1099.7,-686 1126.86,-686 1151.03,-686"/>
<polygon fill="midnightblue" stroke="midnightblue" points="1151.18,-689.5 1161.18,-686 1151.18,-682.5 1151.18,-689.5"/>
</g>
<!-- Node16 -->
<g id="node16" class="node">
<title>Node16</title>
<g id="a_node16"><a xlink:href="classlogs_1_1LoggerFactory.html#a212aa623f4b6bee12cb39e8017dde670" target="_top" xlink:title="Cette méthode retourne le Logger principal qui définit le niveau de trace par défaut.">
<polygon fill="white" stroke="black" points="1161.5,-622 1161.5,-652 1272.5,-652 1272.5,-622 1161.5,-622"/>
<text text-anchor="start" x="1169.5" y="-640" font-family="Helvetica,sans-Serif" font-size="10.00">logs::LoggerFactory</text>
<text text-anchor="middle" x="1217" y="-629" font-family="Helvetica,sans-Serif" font-size="10.00">::rootLogger</text>
</a>
</g>
</g>
<!-- Node13&#45;&gt;Node16 -->
<g id="edge19" class="edge">
<title>Node13&#45;&gt;Node16</title>
<path fill="none" stroke="midnightblue" d="M1076.56,-672.22C1099.8,-666.35 1127.1,-659.45 1151.35,-653.33"/>
<polygon fill="midnightblue" stroke="midnightblue" points="1152.34,-656.69 1161.18,-650.85 1150.63,-649.9 1152.34,-656.69"/>
</g>
<!-- Node17&#45;&gt;Node4 -->
<g id="edge24" class="edge">
<title>Node17&#45;&gt;Node4</title>
<path fill="none" stroke="midnightblue" d="M1071.29,-584.49C1083.15,-580.99 1095.44,-576.28 1106,-570 1147.73,-545.19 1184.64,-500.68 1203.24,-475.9"/>
<polygon fill="midnightblue" stroke="midnightblue" points="1206.14,-477.87 1209.24,-467.73 1200.5,-473.72 1206.14,-477.87"/>
</g>
<!-- Node17&#45;&gt;Node5 -->
<g id="edge25" class="edge">
<title>Node17&#45;&gt;Node5</title>
<path fill="none" stroke="midnightblue" d="M1040.8,-584.3C1059.63,-573.74 1088.29,-555.19 1106,-532 1132.9,-496.77 1120.99,-478.03 1142,-439 1159.48,-406.54 1185.49,-372.34 1201.57,-352.38"/>
<polygon fill="midnightblue" stroke="midnightblue" points="1204.38,-354.46 1207.99,-344.5 1198.96,-350.04 1204.38,-354.46"/>
</g>
<!-- Node18&#45;&gt;Node6 -->
<g id="edge27" class="edge">
<title>Node18&#45;&gt;Node6</title>
<path fill="none" stroke="midnightblue" d="M343.71,-72.43C398.35,-50.8 539.8,0 663,0 663,0 663,0 839,0 986.73,0 1142.02,-107.2 1196.07,-148.26"/>
<polygon fill="midnightblue" stroke="midnightblue" points="1194.08,-151.15 1204.14,-154.47 1198.35,-145.6 1194.08,-151.15"/>
</g>
<!-- Node20 -->
<g id="node20" class="node">
<title>Node20</title>
<g id="a_node20"><a xlink:href="classutils_1_1Thread.html#a61b6c3d0b87570254646120b323b89f7" target="_top" xlink:title="Cette méthode sert de point d&#39;entrée pour l&#39;appel à pcreate_thread.">
<polygon fill="white" stroke="black" points="597,-116.5 597,-135.5 731,-135.5 731,-116.5 597,-116.5"/>
<text text-anchor="middle" x="664" y="-123.5" font-family="Helvetica,sans-Serif" font-size="10.00">utils::Thread::entryPoint</text>
</a>
</g>
</g>
<!-- Node19&#45;&gt;Node20 -->
<g id="edge30" class="edge">
<title>Node19&#45;&gt;Node20</title>
<path fill="none" stroke="midnightblue" d="M536.61,-126C552.2,-126 569.64,-126 586.46,-126"/>
<polygon fill="midnightblue" stroke="midnightblue" points="586.83,-129.5 596.83,-126 586.83,-122.5 586.83,-129.5"/>
</g>
<!-- Node24 -->
<g id="node24" class="node">
<title>Node24</title>
<g id="a_node24"><a xlink:href="namespaceutils.html#ac714339512d6dc1ee14c5b5a92d535be" target="_top" xlink:title="Définit la priorité temps&#45;réel (SCHED_FIFO) du thread spécifié.">
<polygon fill="white" stroke="black" points="611.5,-67 611.5,-97 716.5,-97 716.5,-67 611.5,-67"/>
<text text-anchor="start" x="619.5" y="-85" font-family="Helvetica,sans-Serif" font-size="10.00">utils::set_realtime</text>
<text text-anchor="middle" x="664" y="-74" font-family="Helvetica,sans-Serif" font-size="10.00">_priority</text>
</a>
</g>
</g>
<!-- Node19&#45;&gt;Node24 -->
<g id="edge38" class="edge">
<title>Node19&#45;&gt;Node24</title>
<path fill="none" stroke="midnightblue" d="M523.23,-116.45C546.14,-110.8 575.68,-103.52 601.69,-97.11"/>
<polygon fill="midnightblue" stroke="midnightblue" points="602.6,-100.49 611.47,-94.7 600.92,-93.7 602.6,-100.49"/>
</g>
<!-- Node21 -->
<g id="node21" class="node">
<title>Node21</title>
<g id="a_node21"><a xlink:href="classutils_1_1Thread.html#a202b3fabad41b3be6d996043b262a43a" target="_top" xlink:title="Méthode virtuelle pure à implémenter dans les sous&#45;classes.">
<polygon fill="white" stroke="black" points="777,-116.5 777,-135.5 899,-135.5 899,-116.5 777,-116.5"/>
<text text-anchor="middle" x="838" y="-123.5" font-family="Helvetica,sans-Serif" font-size="10.00">utils::Thread::execute</text>
</a>
</g>
</g>
<!-- Node20&#45;&gt;Node21 -->
<g id="edge31" class="edge">
<title>Node20&#45;&gt;Node21</title>
<path fill="none" stroke="midnightblue" d="M731.01,-126C742.66,-126 754.83,-126 766.59,-126"/>
<polygon fill="midnightblue" stroke="midnightblue" points="766.81,-129.5 776.81,-126 766.8,-122.5 766.81,-129.5"/>
</g>
<!-- Node22 -->
<g id="node22" class="node">
<title>Node22</title>
<g id="a_node22"><a xlink:href="classutils_1_1Thread.html#a46589324e8fc0735c20268db70d34aa5" target="_top" xlink:title="Modifie l&#39;état du thread (thread&#45;safe).">
<polygon fill="white" stroke="black" points="776,-325.5 776,-344.5 900,-344.5 900,-325.5 776,-325.5"/>
<text text-anchor="middle" x="838" y="-332.5" font-family="Helvetica,sans-Serif" font-size="10.00">utils::Thread::setState</text>
</a>
</g>
</g>
<!-- Node20&#45;&gt;Node22 -->
<g id="edge32" class="edge">
<title>Node20&#45;&gt;Node22</title>
<path fill="none" stroke="midnightblue" d="M672.84,-135.52C699.64,-168.1 787.93,-275.38 822.72,-317.65"/>
<polygon fill="midnightblue" stroke="midnightblue" points="820.06,-319.92 829.12,-325.42 825.46,-315.48 820.06,-319.92"/>
</g>
<!-- Node22&#45;&gt;Node4 -->
<g id="edge33" class="edge">
<title>Node22&#45;&gt;Node4</title>
<path fill="none" stroke="midnightblue" d="M860.63,-344.54C880.08,-352.86 909.56,-364.84 936,-373 1010.07,-395.87 1032.2,-388.29 1106,-412 1134.03,-421 1164.86,-434.2 1186.74,-444.15"/>
<polygon fill="midnightblue" stroke="midnightblue" points="1185.57,-447.47 1196.11,-448.47 1188.49,-441.11 1185.57,-447.47"/>
</g>
<!-- Node22&#45;&gt;Node5 -->
<g id="edge37" class="edge">
<title>Node22&#45;&gt;Node5</title>
<path fill="none" stroke="midnightblue" d="M900.41,-335C969.12,-335 1080,-335 1150.37,-335"/>
<polygon fill="midnightblue" stroke="midnightblue" points="1150.45,-338.5 1160.45,-335 1150.45,-331.5 1150.45,-338.5"/>
</g>
<!-- Node23 -->
<g id="node23" class="node">
<title>Node23</title>
<g id="a_node23"><a xlink:href="classutils_1_1Thread.html#ada9233f3e669c925e9ed518201ad31cd" target="_top" xlink:title="Retourne l&#39;état courant du thread.">
<polygon fill="white" stroke="black" points="967,-344.5 967,-363.5 1075,-363.5 1075,-344.5 967,-344.5"/>
<text text-anchor="middle" x="1021" y="-351.5" font-family="Helvetica,sans-Serif" font-size="10.00">utils::Thread::state</text>
</a>
</g>
</g>
<!-- Node22&#45;&gt;Node23 -->
<g id="edge34" class="edge">
<title>Node22&#45;&gt;Node23</title>
<path fill="none" stroke="midnightblue" d="M900.03,-341.41C918.3,-343.32 938.37,-345.43 956.78,-347.36"/>
<polygon fill="midnightblue" stroke="midnightblue" points="956.5,-350.85 966.81,-348.42 957.23,-343.89 956.5,-350.85"/>
</g>
<!-- Node23&#45;&gt;Node4 -->
<g id="edge35" class="edge">
<title>Node23&#45;&gt;Node4</title>
<path fill="none" stroke="midnightblue" d="M1066.24,-363.52C1079.39,-367.17 1093.59,-371.95 1106,-378 1141.26,-395.19 1177.08,-423.75 1197.88,-441.69"/>
<polygon fill="midnightblue" stroke="midnightblue" points="1195.76,-444.49 1205.58,-448.45 1200.37,-439.22 1195.76,-444.49"/>
</g>
<!-- Node23&#45;&gt;Node5 -->
<g id="edge36" class="edge">
<title>Node23&#45;&gt;Node5</title>
<path fill="none" stroke="midnightblue" d="M1075.01,-348.81C1098.28,-346.53 1125.84,-343.83 1150.39,-341.43"/>
<polygon fill="midnightblue" stroke="midnightblue" points="1150.73,-344.91 1160.34,-340.45 1150.05,-337.94 1150.73,-344.91"/>
</g>
<!-- Node25&#45;&gt;Node26 -->
<g id="edge40" class="edge">
<title>Node25&#45;&gt;Node26</title>
<path fill="none" stroke="midnightblue" d="M375.8,-293.02C389.15,-296.65 403.54,-300.55 417.29,-304.29"/>
<polygon fill="midnightblue" stroke="midnightblue" points="416.61,-307.73 427.18,-306.97 418.44,-300.97 416.61,-307.73"/>
</g>
<!-- Node30 -->
<g id="node30" class="node">
<title>Node30</title>
<g id="a_node30"><a xlink:href="classutils_1_1Thread.html#a29b8cb62f6b5f80ffe5b050167780f97" target="_top" xlink:title="Attend la fin du thread (appelle pthread_join).">
<polygon fill="white" stroke="black" points="415,-268.5 415,-287.5 552,-287.5 552,-268.5 415,-268.5"/>
<text text-anchor="middle" x="483.5" y="-275.5" font-family="Helvetica,sans-Serif" font-size="10.00">utils::Thread::waitForEnd</text>
</a>
</g>
</g>
<!-- Node25&#45;&gt;Node30 -->
<g id="edge51" class="edge">
<title>Node25&#45;&gt;Node30</title>
<path fill="none" stroke="midnightblue" d="M379.44,-278C387.61,-278 396.1,-278 404.55,-278"/>
<polygon fill="midnightblue" stroke="midnightblue" points="404.81,-281.5 414.81,-278 404.81,-274.5 404.81,-281.5"/>
</g>
<!-- Node26&#45;&gt;Node4 -->
<g id="edge42" class="edge">
<title>Node26&#45;&gt;Node4</title>
<path fill="none" stroke="midnightblue" d="M494.48,-337.21C510.88,-360.81 545.96,-405.77 588,-427 691.23,-479.13 990.78,-486.88 1106,-477 1124.08,-475.45 1143.65,-472.49 1161.2,-469.36"/>
<polygon fill="midnightblue" stroke="midnightblue" points="1162.07,-472.76 1171.27,-467.51 1160.8,-465.88 1162.07,-472.76"/>
</g>
<!-- Node26&#45;&gt;Node5 -->
<g id="edge50" class="edge">
<title>Node26&#45;&gt;Node5</title>
<path fill="none" stroke="midnightblue" d="M538.1,-306.96C554.04,-303.05 571.62,-299.3 588,-297 816.02,-264.92 880.59,-239.96 1106,-287 1136.74,-293.41 1169.41,-308.91 1191.08,-320.57"/>
<polygon fill="midnightblue" stroke="midnightblue" points="1189.49,-323.69 1199.94,-325.46 1192.87,-317.56 1189.49,-323.69"/>
</g>
<!-- Node26&#45;&gt;Node10 -->
<g id="edge49" class="edge">
<title>Node26&#45;&gt;Node10</title>
<path fill="none" stroke="midnightblue" d="M539.51,-337.1C558.09,-342.2 579.01,-347.94 598.27,-353.23"/>
<polygon fill="midnightblue" stroke="midnightblue" points="597.6,-356.68 608.17,-355.95 599.45,-349.93 597.6,-356.68"/>
</g>
<!-- Node26&#45;&gt;Node11 -->
<g id="edge41" class="edge">
<title>Node26&#45;&gt;Node11</title>
<path fill="none" stroke="midnightblue" d="M537.69,-306.97C542.87,-304.18 547.76,-300.88 552,-297 579.56,-271.75 557.2,-242.17 588,-221 644.22,-182.35 725.4,-184.04 779.62,-191.07"/>
<polygon fill="midnightblue" stroke="midnightblue" points="779.37,-194.57 789.76,-192.49 780.34,-187.64 779.37,-194.57"/>
</g>
<!-- Node26&#45;&gt;Node12 -->
<g id="edge43" class="edge">
<title>Node26&#45;&gt;Node12</title>
<path fill="none" stroke="midnightblue" d="M489.3,-337.08C500.59,-369.79 532.16,-447.13 588,-482 641.86,-515.64 715.18,-520.69 768.29,-518.8"/>
<polygon fill="midnightblue" stroke="midnightblue" points="768.46,-522.3 778.3,-518.36 768.15,-515.3 768.46,-522.3"/>
</g>
<!-- Node27 -->
<g id="node27" class="node">
<title>Node27</title>
<g id="a_node27"><a xlink:href="classITimerListener.html#a0004b567b000eef6df12d9d970909142" target="_top" xlink:title="Actions de fin à executer pour le timer.">
<polygon fill="white" stroke="black" points="588,-230.5 588,-249.5 740,-249.5 740,-230.5 588,-230.5"/>
<text text-anchor="middle" x="664" y="-237.5" font-family="Helvetica,sans-Serif" font-size="10.00">ITimerListener::onTimerEnd</text>
</a>
</g>
</g>
<!-- Node26&#45;&gt;Node27 -->
<g id="edge44" class="edge">
<title>Node26&#45;&gt;Node27</title>
<path fill="none" stroke="midnightblue" d="M532.43,-306.9C539.2,-304.01 545.92,-300.71 552,-297 570.52,-285.69 569.23,-274.89 588,-264 595.65,-259.56 604.21,-255.84 612.75,-252.74"/>
<polygon fill="midnightblue" stroke="midnightblue" points="613.97,-256.03 622.33,-249.52 611.73,-249.39 613.97,-256.03"/>
</g>
<!-- Node28 -->
<g id="node28" class="node">
<title>Node28</title>
<g id="a_node28"><a xlink:href="classITimerPosixListener.html#a4df70962b58b13d521f1f7f91ec6fc13" target="_top" xlink:title="Actions de fin à executer pour le timer.">
<polygon fill="white" stroke="black" points="607.5,-307 607.5,-337 720.5,-337 720.5,-307 607.5,-307"/>
<text text-anchor="start" x="615.5" y="-325" font-family="Helvetica,sans-Serif" font-size="10.00">ITimerPosixListener</text>
<text text-anchor="middle" x="664" y="-314" font-family="Helvetica,sans-Serif" font-size="10.00">::onTimerEnd</text>
</a>
</g>
</g>
<!-- Node26&#45;&gt;Node28 -->
<g id="edge45" class="edge">
<title>Node26&#45;&gt;Node28</title>
<path fill="none" stroke="midnightblue" d="M543.44,-322C560.67,-322 579.62,-322 597.24,-322"/>
<polygon fill="midnightblue" stroke="midnightblue" points="597.45,-325.5 607.45,-322 597.45,-318.5 597.45,-325.5"/>
</g>
<!-- Node29 -->
<g id="node29" class="node">
<title>Node29</title>
<g id="a_node29"><a xlink:href="classITimerPosixListener.html#a80bdf978eda3cfa0d9271a3c2e1d3f3a" target="_top" xlink:title=" ">
<polygon fill="white" stroke="black" points="964.5,-421 964.5,-451 1077.5,-451 1077.5,-421 964.5,-421"/>
<text text-anchor="start" x="972.5" y="-439" font-family="Helvetica,sans-Serif" font-size="10.00">ITimerPosixListener</text>
<text text-anchor="middle" x="1021" y="-428" font-family="Helvetica,sans-Serif" font-size="10.00">::remove</text>
</a>
</g>
</g>
<!-- Node26&#45;&gt;Node29 -->
<g id="edge46" class="edge">
<title>Node26&#45;&gt;Node29</title>
<path fill="none" stroke="midnightblue" d="M499.78,-337.01C518.72,-354.56 552.81,-382.89 588,-396 711.28,-441.91 867.42,-443.8 954.2,-440.36"/>
<polygon fill="midnightblue" stroke="midnightblue" points="954.59,-443.84 964.43,-439.91 954.29,-436.85 954.59,-443.84"/>
</g>
<!-- Node29&#45;&gt;Node4 -->
<g id="edge47" class="edge">
<title>Node29&#45;&gt;Node4</title>
<path fill="none" stroke="midnightblue" d="M1077.59,-442.3C1102.19,-445.09 1131.17,-448.38 1156.24,-451.22"/>
<polygon fill="midnightblue" stroke="midnightblue" points="1156.02,-454.72 1166.35,-452.37 1156.81,-447.77 1156.02,-454.72"/>
</g>
<!-- Node29&#45;&gt;Node5 -->
<g id="edge48" class="edge">
<title>Node29&#45;&gt;Node5</title>
<path fill="none" stroke="midnightblue" d="M1051.04,-420.88C1088.21,-401.53 1152.11,-368.26 1188.51,-349.31"/>
<polygon fill="midnightblue" stroke="midnightblue" points="1190.32,-352.32 1197.57,-344.59 1187.09,-346.11 1190.32,-352.32"/>
</g>
</g>
</svg>
        <g id="navigator" transform="translate(0 0)" fill="#404254">
                <rect fill="#f2f5e9" fill-opacity="0.5" stroke="#606060" stroke-width=".5" x="0" y="0" width="60" height="60"/>
                <use id="zoomplus" xlink:href="#zoomPlus" x="17" y="9" onmousedown="handleZoom(evt,'in')"/>
                <use id="zoomminus" xlink:href="#zoomMin" x="42" y="9" onmousedown="handleZoom(evt,'out')"/>
                <use id="reset" xlink:href="#resetDef" x="30" y="36" onmousedown="handleReset()"/>
                <g id="arrowUp" xlink:href="#dirArrow" transform="translate(30 24)" onmousedown="handlePan(0,-1)">
                  <use xlink:href="#rim" fill="#404040">
                        <set attributeName="fill" to="#808080" begin="arrowUp.mouseover" end="arrowUp.mouseout"/>
                  </use>
                  <path fill="none" stroke="white" stroke-width="1.5" d="M0,-3.0v7 M-2.5,-0.5L0,-3.0L2.5,-0.5"/>
                </g>
                <g id="arrowRight" xlink:href="#dirArrow" transform="rotate(90) translate(36 -43)" onmousedown="handlePan(1,0)">
                  <use xlink:href="#rim" fill="#404040">
                        <set attributeName="fill" to="#808080" begin="arrowRight.mouseover" end="arrowRight.mouseout"/>
                  </use>
                  <path fill="none" stroke="white" stroke-width="1.5" d="M0,-3.0v7 M-2.5,-0.5L0,-3.0L2.5,-0.5"/>
                </g>
                <g id="arrowDown" xlink:href="#dirArrow" transform="rotate(180) translate(-30 -48)" onmousedown="handlePan(0,1)">
                  <use xlink:href="#rim" fill="#404040">
                        <set attributeName="fill" to="#808080" begin="arrowDown.mouseover" end="arrowDown.mouseout"/>
                  </use>
                  <path fill="none" stroke="white" stroke-width="1.5" d="M0,-3.0v7 M-2.5,-0.5L0,-3.0L2.5,-0.5"/>
                </g>
                <g id="arrowLeft" xlink:href="#dirArrow" transform="rotate(270) translate(-36 17)" onmousedown="handlePan(-1,0)">
                  <use xlink:href="#rim" fill="#404040">
                        <set attributeName="fill" to="#808080" begin="arrowLeft.mouseover" end="arrowLeft.mouseout"/>
                  </use>
                  <path fill="none" stroke="white" stroke-width="1.5" d="M0,-3.0v7 M-2.5,-0.5L0,-3.0L2.5,-0.5"/>
                </g>
        </g>
        <svg viewBox="0 0 15 15" width="100%" height="30px" preserveAspectRatio="xMaxYMin meet">
         <g id="arrow_out" transform="scale(0.3 0.3)">
          <a xlink:href="classtest_1_1PosixTimerBench_a4d60d4ae073e4dbb9f8d72e590286620_cgraph_org.svg" target="_base">
           <rect id="button" ry="5" rx="5" y="6" x="6" height="38" width="38"
                fill="#f2f5e9" fill-opacity="0.5" stroke="#606060" stroke-width="1.0"/>
           <path id="arrow"
             d="M 11.500037,31.436501 C 11.940474,20.09759 22.043105,11.32322 32.158766,21.979434 L 37.068811,17.246167 C 37.068811,17.246167 37.088388,32 37.088388,32 L 22.160133,31.978069 C 22.160133,31.978069 26.997745,27.140456 26.997745,27.140456 C 18.528582,18.264221 13.291696,25.230495 11.500037,31.436501 z"
             style="fill:#404040;"/>
          </a>
         </g>
        </svg>
</svg>
