<?xml version="1.0" encoding="UTF-8" standalone="no"?>
<!DOCTYPE svg PUBLIC "-//W3C//DTD SVG 1.1//EN"
 "http://www.w3.org/Graphics/SVG/1.1/DTD/svg11.dtd">
<!-- Generated by graphviz version 2.43.0 (0)
 -->
<!-- Title: Robot::resetDisplayTS Pages: 1 -->
<svg width="549pt" height="104pt"
 viewBox="0.00 0.00 549.00 104.00" xmlns="http://www.w3.org/2000/svg" xmlns:xlink="http://www.w3.org/1999/xlink">
<g id="graph0" class="graph" transform="scale(1 1) rotate(0) translate(4 100)">
<title>Robot::resetDisplayTS</title>
<polygon fill="white" stroke="transparent" points="-4,4 -4,-100 545,-100 545,4 -4,4"/>
<!-- Node1 -->
<g id="node1" class="node">
<title>Node1</title>
<g id="a_node1"><a xlink:title=" ">
<polygon fill="#bfbfbf" stroke="black" points="416,-38.5 416,-57.5 541,-57.5 541,-38.5 416,-38.5"/>
<text text-anchor="middle" x="478.5" y="-45.5" font-family="Helvetica,sans-Serif" font-size="10.00">Robot::resetDisplayTS</text>
</a>
</g>
</g>
<!-- Node2 -->
<g id="node2" class="node">
<title>Node2</title>
<g id="a_node2"><a xlink:href="classIAbyPath.html#acc586e1ba62ffb7a21087a5ca4d2f131" target="_top" xlink:title=" ">
<polygon fill="white" stroke="black" points="203,-76.5 203,-95.5 380,-95.5 380,-76.5 203,-76.5"/>
<text text-anchor="middle" x="291.5" y="-83.5" font-family="Helvetica,sans-Serif" font-size="10.00">IAbyPath::whileMoveBackwardTo</text>
</a>
</g>
</g>
<!-- Node1&#45;&gt;Node2 -->
<g id="edge1" class="edge">
<title>Node1&#45;&gt;Node2</title>
<path fill="none" stroke="midnightblue" d="M420.98,-59.61C394.67,-65.01 363.76,-71.36 338.85,-76.48"/>
<polygon fill="midnightblue" stroke="midnightblue" points="421.73,-63.03 430.82,-57.59 420.32,-56.17 421.73,-63.03"/>
</g>
<!-- Node4 -->
<g id="node4" class="node">
<title>Node4</title>
<g id="a_node4"><a xlink:href="classIAbyPath.html#aa2a96904ea74078d56dad53979b1d999" target="_top" xlink:title=" ">
<polygon fill="white" stroke="black" points="207.5,-0.5 207.5,-19.5 375.5,-19.5 375.5,-0.5 207.5,-0.5"/>
<text text-anchor="middle" x="291.5" y="-7.5" font-family="Helvetica,sans-Serif" font-size="10.00">IAbyPath::whileMoveForwardTo</text>
</a>
</g>
</g>
<!-- Node1&#45;&gt;Node4 -->
<g id="edge3" class="edge">
<title>Node1&#45;&gt;Node4</title>
<path fill="none" stroke="midnightblue" d="M420.98,-36.39C394.67,-30.99 363.76,-24.64 338.85,-19.52"/>
<polygon fill="midnightblue" stroke="midnightblue" points="420.32,-39.83 430.82,-38.41 421.73,-32.97 420.32,-39.83"/>
</g>
<!-- Node6 -->
<g id="node6" class="node">
<title>Node6</title>
<g id="a_node6"><a xlink:href="classIAbyPath.html#a42570f6bc87216c2ac5d028ad596fe02" target="_top" xlink:title=" ">
<polygon fill="white" stroke="black" points="211,-38.5 211,-57.5 372,-57.5 372,-38.5 211,-38.5"/>
<text text-anchor="middle" x="291.5" y="-45.5" font-family="Helvetica,sans-Serif" font-size="10.00">IAbyPath::whileMoveRotateTo</text>
</a>
</g>
</g>
<!-- Node1&#45;&gt;Node6 -->
<g id="edge5" class="edge">
<title>Node1&#45;&gt;Node6</title>
<path fill="none" stroke="midnightblue" d="M405.57,-48C394.66,-48 383.34,-48 372.26,-48"/>
<polygon fill="midnightblue" stroke="midnightblue" points="405.9,-51.5 415.9,-48 405.9,-44.5 405.9,-51.5"/>
</g>
<!-- Node3 -->
<g id="node3" class="node">
<title>Node3</title>
<g id="a_node3"><a xlink:href="classIAbyPath.html#a9535c82f137778cc6cd4b159fe3d58ea" target="_top" xlink:title=" ">
<polygon fill="white" stroke="black" points="0,-64 0,-94 167,-94 167,-64 0,-64"/>
<text text-anchor="start" x="8" y="-82" font-family="Helvetica,sans-Serif" font-size="10.00">IAbyPath::whileMoveBackward</text>
<text text-anchor="middle" x="83.5" y="-71" font-family="Helvetica,sans-Serif" font-size="10.00">AndRotateTo</text>
</a>
</g>
</g>
<!-- Node2&#45;&gt;Node3 -->
<g id="edge2" class="edge">
<title>Node2&#45;&gt;Node3</title>
<path fill="none" stroke="midnightblue" d="M192.81,-82.68C184.23,-82.39 175.61,-82.1 167.17,-81.81"/>
<polygon fill="midnightblue" stroke="midnightblue" points="192.73,-86.18 202.84,-83.02 192.96,-79.18 192.73,-86.18"/>
</g>
<!-- Node5 -->
<g id="node5" class="node">
<title>Node5</title>
<g id="a_node5"><a xlink:href="classIAbyPath.html#a3f27b793f84340c99ca33e12c2380bb4" target="_top" xlink:title=" ">
<polygon fill="white" stroke="black" points="4.5,-8 4.5,-38 162.5,-38 162.5,-8 4.5,-8"/>
<text text-anchor="start" x="12.5" y="-26" font-family="Helvetica,sans-Serif" font-size="10.00">IAbyPath::whileMoveForward</text>
<text text-anchor="middle" x="83.5" y="-15" font-family="Helvetica,sans-Serif" font-size="10.00">AndRotateTo</text>
</a>
</g>
</g>
<!-- Node4&#45;&gt;Node5 -->
<g id="edge4" class="edge">
<title>Node4&#45;&gt;Node5</title>
<path fill="none" stroke="midnightblue" d="M197.22,-15.89C185.67,-16.62 173.96,-17.35 162.67,-18.07"/>
<polygon fill="midnightblue" stroke="midnightblue" points="197.55,-19.37 207.31,-15.25 197.11,-12.39 197.55,-19.37"/>
</g>
<!-- Node6&#45;&gt;Node3 -->
<g id="edge6" class="edge">
<title>Node6&#45;&gt;Node3</title>
<path fill="none" stroke="midnightblue" d="M217.36,-59.01C201.17,-61.44 183.89,-64.04 167.34,-66.53"/>
<polygon fill="midnightblue" stroke="midnightblue" points="217.93,-62.46 227.29,-57.51 216.88,-55.54 217.93,-62.46"/>
</g>
<!-- Node6&#45;&gt;Node5 -->
<g id="edge7" class="edge">
<title>Node6&#45;&gt;Node5</title>
<path fill="none" stroke="midnightblue" d="M202.1,-37.27C189.02,-35.68 175.61,-34.06 162.75,-32.5"/>
<polygon fill="midnightblue" stroke="midnightblue" points="201.68,-40.75 212.03,-38.48 202.53,-33.8 201.68,-40.75"/>
</g>
</g>
</svg>
