<?xml version="1.0" encoding="UTF-8" standalone="no"?>
<!DOCTYPE svg PUBLIC "-//W3C//DTD SVG 1.1//EN"
 "http://www.w3.org/Graphics/SVG/1.1/DTD/svg11.dtd">
<!-- Generated by graphviz version 2.43.0 (0)
 -->
<!-- Title: AsservDriver::motion_FreeMotion Pages: 1 -->
<!--zoomable 235 -->
<svg id="main" version="1.1" xmlns="http://www.w3.org/2000/svg" xmlns:xlink="http://www.w3.org/1999/xlink" xml:space="preserve" onload="init(evt)">
<style type="text/css"><![CDATA[
.edge:hover path { stroke: red; }
.edge:hover polygon { stroke: red; fill: red; }
]]></style>
<script type="text/javascript"><![CDATA[
var edges = document.getElementsByTagName('g');
if (edges && edges.length) {
  for (var i=0;i<edges.length;i++) {
    if (edges[i].id.substr(0,4)=='edge') {
      edges[i].setAttribute('class','edge');
    }
  }
}
]]></script>
        <defs>
                <circle id="rim" cx="0" cy="0" r="7"/>
                <circle id="rim2" cx="0" cy="0" r="3.5"/>
                <g id="zoomPlus">
                        <use xlink:href="#rim" fill="#404040">
                                <set attributeName="fill" to="#808080" begin="zoomplus.mouseover" end="zoomplus.mouseout"/>
                        </use>
                        <path d="M-4,0h8M0,-4v8" fill="none" stroke="white" stroke-width="1.5" pointer-events="none"/>
                </g>
                <g id="zoomMin">
                        <use xlink:href="#rim" fill="#404040">
                                <set attributeName="fill" to="#808080" begin="zoomminus.mouseover" end="zoomminus.mouseout"/>
                        </use>
                        <path d="M-4,0h8" fill="none" stroke="white" stroke-width="1.5" pointer-events="none"/>
                </g>
                <g id="dirArrow">
                        <path fill="none" stroke="white" stroke-width="1.5" d="M0,-3.0v7 M-2.5,-0.5L0,-3.0L2.5,-0.5"/>
                </g>
               <g id="resetDef">
                       <use xlink:href="#rim2" fill="#404040">
                               <set attributeName="fill" to="#808080" begin="reset.mouseover" end="reset.mouseout"/>
                       </use>
               </g>
        </defs>

<script type="text/javascript">
var viewWidth = 641;
var viewHeight = 235;
var sectionId = 'dynsection-39';
</script>
<script xlink:href="svgpan.js"/>
<svg id="graph" class="graph">
<g id="viewport">
<title>AsservDriver::motion_FreeMotion</title>
<polygon fill="white" stroke="transparent" points="-4,4 -4,-231 637,-231 637,4 -4,4"/>
<!-- Node1 -->
<g id="node1" class="node">
<title>Node1</title>
<g id="a_node1"><a xlink:title="Passe en roue libre (aucun asservissement).">
<polygon fill="#bfbfbf" stroke="black" points="513,-98.5 513,-128.5 633,-128.5 633,-98.5 513,-98.5"/>
<text text-anchor="start" x="521" y="-116.5" font-family="Helvetica,sans-Serif" font-size="10.00">AsservDriver::motion</text>
<text text-anchor="middle" x="573" y="-105.5" font-family="Helvetica,sans-Serif" font-size="10.00">_FreeMotion</text>
</a>
</g>
</g>
<!-- Node2 -->
<g id="node2" class="node">
<title>Node2</title>
<g id="a_node2"><a xlink:href="classAsservDriver.html#a636bf5413d2cf0419f188a4965340758" target="_top" xlink:title="Actions de nettoyage avant l&#39;arret du programme.">
<polygon fill="white" stroke="black" points="320.5,-197 320.5,-216 472.5,-216 472.5,-197 320.5,-197"/>
<text text-anchor="middle" x="396.5" y="-204" font-family="Helvetica,sans-Serif" font-size="10.00">AsservDriver::endWhatTodo</text>
</a>
</g>
</g>
<!-- Node1&#45;&gt;Node2 -->
<g id="edge1" class="edge">
<title>Node1&#45;&gt;Node2</title>
<path fill="none" stroke="midnightblue" d="M547.1,-135.19C528.76,-150.23 502.65,-169.77 477,-182.5 464.99,-188.46 451.21,-193.26 438.54,-196.95"/>
<polygon fill="midnightblue" stroke="midnightblue" points="549.51,-137.73 554.95,-128.64 545.03,-132.36 549.51,-137.73"/>
</g>
<!-- Node4 -->
<g id="node4" class="node">
<title>Node4</title>
<g id="a_node4"><a xlink:href="classAsservDriver.html#a0a68a702d1fea277c2e24e6dceb2d646" target="_top" xlink:title="Desactive le PID et stoppe les moteurs.">
<polygon fill="white" stroke="black" points="336.5,-142.5 336.5,-172.5 456.5,-172.5 456.5,-142.5 336.5,-142.5"/>
<text text-anchor="start" x="344.5" y="-160.5" font-family="Helvetica,sans-Serif" font-size="10.00">AsservDriver::motion</text>
<text text-anchor="middle" x="396.5" y="-149.5" font-family="Helvetica,sans-Serif" font-size="10.00">_DisablePID</text>
</a>
</g>
</g>
<!-- Node1&#45;&gt;Node4 -->
<g id="edge3" class="edge">
<title>Node1&#45;&gt;Node4</title>
<path fill="none" stroke="midnightblue" d="M502.96,-130.91C487.59,-134.78 471.44,-138.86 456.52,-142.62"/>
<polygon fill="midnightblue" stroke="midnightblue" points="504.08,-134.24 512.92,-128.4 502.37,-127.45 504.08,-134.24"/>
</g>
<!-- Node5 -->
<g id="node5" class="node">
<title>Node5</title>
<g id="a_node5"><a xlink:href="classAsservDriver.html#a69fb8c78d0ced7bd7f330c18952c84f4" target="_top" xlink:title="Arrete le moteur gauche.">
<polygon fill="white" stroke="black" points="320,-104 320,-123 473,-123 473,-104 320,-104"/>
<text text-anchor="middle" x="396.5" y="-111" font-family="Helvetica,sans-Serif" font-size="10.00">AsservDriver::stopMotorLeft</text>
</a>
</g>
</g>
<!-- Node1&#45;&gt;Node5 -->
<g id="edge4" class="edge">
<title>Node1&#45;&gt;Node5</title>
<path fill="none" stroke="midnightblue" d="M502.9,-113.5C493.15,-113.5 483.09,-113.5 473.22,-113.5"/>
<polygon fill="midnightblue" stroke="midnightblue" points="502.92,-117 512.92,-113.5 502.92,-110 502.92,-117"/>
</g>
<!-- Node10 -->
<g id="node10" class="node">
<title>Node10</title>
<g id="a_node10"><a xlink:href="classAsservDriver.html#ab24bc1636143db604ecbad3b18a17c8c" target="_top" xlink:title="Arrete le moteur droit.">
<polygon fill="white" stroke="black" points="316,-60 316,-79 477,-79 477,-60 316,-60"/>
<text text-anchor="middle" x="396.5" y="-67" font-family="Helvetica,sans-Serif" font-size="10.00">AsservDriver::stopMotorRight</text>
</a>
</g>
</g>
<!-- Node1&#45;&gt;Node10 -->
<g id="edge9" class="edge">
<title>Node1&#45;&gt;Node10</title>
<path fill="none" stroke="midnightblue" d="M503.17,-96.14C480.11,-90.33 455.25,-84.06 435.44,-79.07"/>
<polygon fill="midnightblue" stroke="midnightblue" points="502.37,-99.55 512.92,-98.6 504.08,-92.76 502.37,-99.55"/>
</g>
<!-- Node15 -->
<g id="node15" class="node">
<title>Node15</title>
<g id="a_node15"><a xlink:href="classAsservDriver.html#a5586874de1e9cbed7dd652ad839bf104" target="_top" xlink:title="Arrete les deux moteurs.">
<polygon fill="white" stroke="black" points="326.5,-22 326.5,-41 466.5,-41 466.5,-22 326.5,-22"/>
<text text-anchor="middle" x="396.5" y="-29" font-family="Helvetica,sans-Serif" font-size="10.00">AsservDriver::stopMotors</text>
</a>
</g>
</g>
<!-- Node1&#45;&gt;Node15 -->
<g id="edge14" class="edge">
<title>Node1&#45;&gt;Node15</title>
<path fill="none" stroke="midnightblue" d="M545.13,-91.96C526.87,-78.29 501.64,-61.21 477,-50.5 468.28,-46.71 458.68,-43.6 449.26,-41.08"/>
<polygon fill="midnightblue" stroke="midnightblue" points="543.43,-95.06 553.5,-98.35 547.68,-89.5 543.43,-95.06"/>
</g>
<!-- Node3 -->
<g id="node3" class="node">
<title>Node3</title>
<g id="a_node3"><a xlink:href="classAsservDriver.html#aaeb3c80c8a079c812af38273f825c537" target="_top" xlink:title="Assisted movement mode =)">
<polygon fill="white" stroke="black" points="159.5,-196.5 159.5,-226.5 279.5,-226.5 279.5,-196.5 159.5,-196.5"/>
<text text-anchor="start" x="167.5" y="-214.5" font-family="Helvetica,sans-Serif" font-size="10.00">AsservDriver::motion</text>
<text text-anchor="middle" x="219.5" y="-203.5" font-family="Helvetica,sans-Serif" font-size="10.00">_ActivateManager</text>
</a>
</g>
</g>
<!-- Node2&#45;&gt;Node3 -->
<g id="edge2" class="edge">
<title>Node2&#45;&gt;Node3</title>
<path fill="none" stroke="midnightblue" d="M310,-208.94C299.7,-209.24 289.36,-209.53 279.56,-209.81"/>
<polygon fill="midnightblue" stroke="midnightblue" points="310.37,-212.43 320.27,-208.65 310.17,-205.44 310.37,-212.43"/>
</g>
<!-- Node6 -->
<g id="node6" class="node">
<title>Node6</title>
<g id="a_node6"><a xlink:href="classAsservDriverWrapper.html#a4d3b337fd6beed104ba60b69213344cc" target="_top" xlink:title=" ">
<polygon fill="white" stroke="black" points="159,-147.5 159,-177.5 280,-177.5 280,-147.5 159,-147.5"/>
<text text-anchor="start" x="167" y="-165.5" font-family="Helvetica,sans-Serif" font-size="10.00">AsservDriverWrapper</text>
<text text-anchor="middle" x="219.5" y="-154.5" font-family="Helvetica,sans-Serif" font-size="10.00">::member1left</text>
</a>
</g>
</g>
<!-- Node5&#45;&gt;Node6 -->
<g id="edge5" class="edge">
<title>Node5&#45;&gt;Node6</title>
<path fill="none" stroke="midnightblue" d="M346,-125.56C336.04,-128.1 325.67,-130.82 316,-133.5 300.47,-137.81 283.62,-142.81 268.46,-147.44"/>
<polygon fill="midnightblue" stroke="midnightblue" points="346.93,-128.93 355.77,-123.09 345.22,-122.15 346.93,-128.93"/>
</g>
<!-- Node8 -->
<g id="node8" class="node">
<title>Node8</title>
<g id="a_node8"><a xlink:href="classAsservDriverWrapper.html#aad45be064ecfd5eed9c687875f0e92e5" target="_top" xlink:title=" ">
<polygon fill="white" stroke="black" points="159,-98.5 159,-128.5 280,-128.5 280,-98.5 159,-98.5"/>
<text text-anchor="start" x="167" y="-116.5" font-family="Helvetica,sans-Serif" font-size="10.00">AsservDriverWrapper</text>
<text text-anchor="middle" x="219.5" y="-105.5" font-family="Helvetica,sans-Serif" font-size="10.00">::positionLeft</text>
</a>
</g>
</g>
<!-- Node5&#45;&gt;Node8 -->
<g id="edge7" class="edge">
<title>Node5&#45;&gt;Node8</title>
<path fill="none" stroke="midnightblue" d="M309.73,-113.5C299.68,-113.5 289.59,-113.5 280.01,-113.5"/>
<polygon fill="midnightblue" stroke="midnightblue" points="309.76,-117 319.76,-113.5 309.76,-110 309.76,-117"/>
</g>
<!-- Node7 -->
<g id="node7" class="node">
<title>Node7</title>
<g id="a_node7"><a xlink:href="classAsservDriverWrapper.html#a6d2ba86845397e2a65e62660f7d94710" target="_top" xlink:title=" ">
<polygon fill="white" stroke="black" points="1,-147.5 1,-177.5 122,-177.5 122,-147.5 1,-147.5"/>
<text text-anchor="start" x="9" y="-165.5" font-family="Helvetica,sans-Serif" font-size="10.00">AsservDriverWrapper</text>
<text text-anchor="middle" x="61.5" y="-154.5" font-family="Helvetica,sans-Serif" font-size="10.00">::memberLeftThread</text>
</a>
</g>
</g>
<!-- Node6&#45;&gt;Node7 -->
<g id="edge6" class="edge">
<title>Node6&#45;&gt;Node7</title>
<path fill="none" stroke="midnightblue" d="M148.44,-162.5C139.68,-162.5 130.79,-162.5 122.21,-162.5"/>
<polygon fill="midnightblue" stroke="midnightblue" points="148.63,-166 158.63,-162.5 148.63,-159 148.63,-166"/>
</g>
<!-- Node9 -->
<g id="node9" class="node">
<title>Node9</title>
<g id="a_node9"><a xlink:href="classAsservDriverWrapper.html#a8c951da2eafa9448971f7f68088edec8" target="_top" xlink:title=" ">
<polygon fill="white" stroke="black" points="1,-98.5 1,-128.5 122,-128.5 122,-98.5 1,-98.5"/>
<text text-anchor="start" x="9" y="-116.5" font-family="Helvetica,sans-Serif" font-size="10.00">AsservDriverWrapper</text>
<text text-anchor="middle" x="61.5" y="-105.5" font-family="Helvetica,sans-Serif" font-size="10.00">::positionLeftThread</text>
</a>
</g>
</g>
<!-- Node8&#45;&gt;Node9 -->
<g id="edge8" class="edge">
<title>Node8&#45;&gt;Node9</title>
<path fill="none" stroke="midnightblue" d="M148.44,-113.5C139.68,-113.5 130.79,-113.5 122.21,-113.5"/>
<polygon fill="midnightblue" stroke="midnightblue" points="148.63,-117 158.63,-113.5 148.63,-110 148.63,-117"/>
</g>
<!-- Node11 -->
<g id="node11" class="node">
<title>Node11</title>
<g id="a_node11"><a xlink:href="classAsservDriverWrapper.html#af356c1725a4b8dac9994dd0d94e12069" target="_top" xlink:title=" ">
<polygon fill="white" stroke="black" points="159,-49.5 159,-79.5 280,-79.5 280,-49.5 159,-49.5"/>
<text text-anchor="start" x="167" y="-67.5" font-family="Helvetica,sans-Serif" font-size="10.00">AsservDriverWrapper</text>
<text text-anchor="middle" x="219.5" y="-56.5" font-family="Helvetica,sans-Serif" font-size="10.00">::member2right</text>
</a>
</g>
</g>
<!-- Node10&#45;&gt;Node11 -->
<g id="edge10" class="edge">
<title>Node10&#45;&gt;Node11</title>
<path fill="none" stroke="midnightblue" d="M305.78,-66.94C297.12,-66.69 288.49,-66.44 280.22,-66.21"/>
<polygon fill="midnightblue" stroke="midnightblue" points="305.84,-70.44 315.94,-67.23 306.04,-63.44 305.84,-70.44"/>
</g>
<!-- Node13 -->
<g id="node13" class="node">
<title>Node13</title>
<g id="a_node13"><a xlink:href="classAsservDriverWrapper.html#a4642069f82e26bf54045931a819a4d84" target="_top" xlink:title=" ">
<polygon fill="white" stroke="black" points="159,-0.5 159,-30.5 280,-30.5 280,-0.5 159,-0.5"/>
<text text-anchor="start" x="167" y="-18.5" font-family="Helvetica,sans-Serif" font-size="10.00">AsservDriverWrapper</text>
<text text-anchor="middle" x="219.5" y="-7.5" font-family="Helvetica,sans-Serif" font-size="10.00">::positionRight</text>
</a>
</g>
</g>
<!-- Node10&#45;&gt;Node13 -->
<g id="edge12" class="edge">
<title>Node10&#45;&gt;Node13</title>
<path fill="none" stroke="midnightblue" d="M341.55,-57.51C332.96,-55.34 324.2,-52.97 316,-50.5 296.9,-44.74 276.05,-37.24 258.72,-30.67"/>
<polygon fill="midnightblue" stroke="midnightblue" points="340.97,-60.97 351.52,-59.96 342.64,-54.17 340.97,-60.97"/>
</g>
<!-- Node12 -->
<g id="node12" class="node">
<title>Node12</title>
<g id="a_node12"><a xlink:href="classAsservDriverWrapper.html#af629788681c4e3155c9fc56d6a783d8a" target="_top" xlink:title=" ">
<polygon fill="white" stroke="black" points="0,-49.5 0,-79.5 123,-79.5 123,-49.5 0,-49.5"/>
<text text-anchor="start" x="8" y="-67.5" font-family="Helvetica,sans-Serif" font-size="10.00">AsservDriverWrapper</text>
<text text-anchor="middle" x="61.5" y="-56.5" font-family="Helvetica,sans-Serif" font-size="10.00">::memberRightThread</text>
</a>
</g>
</g>
<!-- Node11&#45;&gt;Node12 -->
<g id="edge11" class="edge">
<title>Node11&#45;&gt;Node12</title>
<path fill="none" stroke="midnightblue" d="M148.46,-64.5C140.04,-64.5 131.51,-64.5 123.24,-64.5"/>
<polygon fill="midnightblue" stroke="midnightblue" points="148.63,-68 158.63,-64.5 148.63,-61 148.63,-68"/>
</g>
<!-- Node14 -->
<g id="node14" class="node">
<title>Node14</title>
<g id="a_node14"><a xlink:href="classAsservDriverWrapper.html#a0851aa582a82bf4cf9de2dcf240d585e" target="_top" xlink:title=" ">
<polygon fill="white" stroke="black" points="1,-0.5 1,-30.5 122,-30.5 122,-0.5 1,-0.5"/>
<text text-anchor="start" x="9" y="-18.5" font-family="Helvetica,sans-Serif" font-size="10.00">AsservDriverWrapper</text>
<text text-anchor="middle" x="61.5" y="-7.5" font-family="Helvetica,sans-Serif" font-size="10.00">::positionRightThread</text>
</a>
</g>
</g>
<!-- Node13&#45;&gt;Node14 -->
<g id="edge13" class="edge">
<title>Node13&#45;&gt;Node14</title>
<path fill="none" stroke="midnightblue" d="M148.44,-15.5C139.68,-15.5 130.79,-15.5 122.21,-15.5"/>
<polygon fill="midnightblue" stroke="midnightblue" points="148.63,-19 158.63,-15.5 148.63,-12 148.63,-19"/>
</g>
</g>
</svg>
        <g id="navigator" transform="translate(0 0)" fill="#404254">
                <rect fill="#f2f5e9" fill-opacity="0.5" stroke="#606060" stroke-width=".5" x="0" y="0" width="60" height="60"/>
                <use id="zoomplus" xlink:href="#zoomPlus" x="17" y="9" onmousedown="handleZoom(evt,'in')"/>
                <use id="zoomminus" xlink:href="#zoomMin" x="42" y="9" onmousedown="handleZoom(evt,'out')"/>
                <use id="reset" xlink:href="#resetDef" x="30" y="36" onmousedown="handleReset()"/>
                <g id="arrowUp" xlink:href="#dirArrow" transform="translate(30 24)" onmousedown="handlePan(0,-1)">
                  <use xlink:href="#rim" fill="#404040">
                        <set attributeName="fill" to="#808080" begin="arrowUp.mouseover" end="arrowUp.mouseout"/>
                  </use>
                  <path fill="none" stroke="white" stroke-width="1.5" d="M0,-3.0v7 M-2.5,-0.5L0,-3.0L2.5,-0.5"/>
                </g>
                <g id="arrowRight" xlink:href="#dirArrow" transform="rotate(90) translate(36 -43)" onmousedown="handlePan(1,0)">
                  <use xlink:href="#rim" fill="#404040">
                        <set attributeName="fill" to="#808080" begin="arrowRight.mouseover" end="arrowRight.mouseout"/>
                  </use>
                  <path fill="none" stroke="white" stroke-width="1.5" d="M0,-3.0v7 M-2.5,-0.5L0,-3.0L2.5,-0.5"/>
                </g>
                <g id="arrowDown" xlink:href="#dirArrow" transform="rotate(180) translate(-30 -48)" onmousedown="handlePan(0,1)">
                  <use xlink:href="#rim" fill="#404040">
                        <set attributeName="fill" to="#808080" begin="arrowDown.mouseover" end="arrowDown.mouseout"/>
                  </use>
                  <path fill="none" stroke="white" stroke-width="1.5" d="M0,-3.0v7 M-2.5,-0.5L0,-3.0L2.5,-0.5"/>
                </g>
                <g id="arrowLeft" xlink:href="#dirArrow" transform="rotate(270) translate(-36 17)" onmousedown="handlePan(-1,0)">
                  <use xlink:href="#rim" fill="#404040">
                        <set attributeName="fill" to="#808080" begin="arrowLeft.mouseover" end="arrowLeft.mouseout"/>
                  </use>
                  <path fill="none" stroke="white" stroke-width="1.5" d="M0,-3.0v7 M-2.5,-0.5L0,-3.0L2.5,-0.5"/>
                </g>
        </g>
        <svg viewBox="0 0 15 15" width="100%" height="30px" preserveAspectRatio="xMaxYMin meet">
         <g id="arrow_out" transform="scale(0.3 0.3)">
          <a xlink:href="classAsservDriver_ac9f37c4408c0a72913bd57f7f6ffa576_icgraph_org.svg" target="_base">
           <rect id="button" ry="5" rx="5" y="6" x="6" height="38" width="38"
                fill="#f2f5e9" fill-opacity="0.5" stroke="#606060" stroke-width="1.0"/>
           <path id="arrow"
             d="M 11.500037,31.436501 C 11.940474,20.09759 22.043105,11.32322 32.158766,21.979434 L 37.068811,17.246167 C 37.068811,17.246167 37.088388,32 37.088388,32 L 22.160133,31.978069 C 22.160133,31.978069 26.997745,27.140456 26.997745,27.140456 C 18.528582,18.264221 13.291696,25.230495 11.500037,31.436501 z"
             style="fill:#404040;"/>
          </a>
         </g>
        </svg>
</svg>
