<?xml version="1.0" encoding="UTF-8" standalone="no"?>
<!DOCTYPE svg PUBLIC "-//W3C//DTD SVG 1.1//EN"
 "http://www.w3.org/Graphics/SVG/1.1/DTD/svg11.dtd">
<!-- Generated by graphviz version 2.43.0 (0)
 -->
<!-- Title: AServoDriver::release Pages: 1 -->
<svg width="1186pt" height="789pt"
 viewBox="0.00 0.00 1186.00 789.00" xmlns="http://www.w3.org/2000/svg" xmlns:xlink="http://www.w3.org/1999/xlink">
<g id="graph0" class="graph" transform="scale(1 1) rotate(0) translate(4 785)">
<title>AServoDriver::release</title>
<polygon fill="white" stroke="transparent" points="-4,4 -4,-785 1182,-785 1182,4 -4,4"/>
<!-- Node1 -->
<g id="node1" class="node">
<title>Node1</title>
<g id="a_node1"><a xlink:title="Relache le servo (desactive le couple).">
<polygon fill="#bfbfbf" stroke="black" points="1055,-318 1055,-337 1178,-337 1178,-318 1055,-318"/>
<text text-anchor="middle" x="1116.5" y="-325" font-family="Helvetica,sans-Serif" font-size="10.00">AServoDriver::release</text>
</a>
</g>
</g>
<!-- Node2 -->
<g id="node2" class="node">
<title>Node2</title>
<g id="a_node2"><a xlink:href="classServoObjectsSystem.html#aee9ba86b5c2d9cb07aff947f28812b83" target="_top" xlink:title="Relâche le couple d&#39;un servo (désactive le maintien).">
<polygon fill="white" stroke="black" points="901,-539.5 901,-569.5 1019,-569.5 1019,-539.5 901,-539.5"/>
<text text-anchor="start" x="909" y="-557.5" font-family="Helvetica,sans-Serif" font-size="10.00">ServoObjectsSystem</text>
<text text-anchor="middle" x="960" y="-546.5" font-family="Helvetica,sans-Serif" font-size="10.00">::release</text>
</a>
</g>
</g>
<!-- Node1&#45;&gt;Node2 -->
<g id="edge1" class="edge">
<title>Node1&#45;&gt;Node2</title>
<path fill="none" stroke="midnightblue" d="M1103.09,-345.74C1073.38,-389.39 998.64,-499.2 971.26,-539.43"/>
<polygon fill="midnightblue" stroke="midnightblue" points="1106.13,-347.49 1108.86,-337.25 1100.34,-343.55 1106.13,-347.49"/>
</g>
<!-- Node29 -->
<g id="node29" class="node">
<title>Node29</title>
<g id="a_node29"><a xlink:href="classServoObjectsSystem.html#a9c3a5d35163d012d690f80da160b7f25" target="_top" xlink:title="setup 1 servo with type, min, mid, max, inv values.">
<polygon fill="white" stroke="black" points="901,-288.5 901,-318.5 1019,-318.5 1019,-288.5 901,-288.5"/>
<text text-anchor="start" x="909" y="-306.5" font-family="Helvetica,sans-Serif" font-size="10.00">ServoObjectsSystem</text>
<text text-anchor="middle" x="960" y="-295.5" font-family="Helvetica,sans-Serif" font-size="10.00">::setup</text>
</a>
</g>
</g>
<!-- Node1&#45;&gt;Node29 -->
<g id="edge47" class="edge">
<title>Node1&#45;&gt;Node29</title>
<path fill="none" stroke="midnightblue" d="M1044.86,-316.53C1036.27,-315.19 1027.56,-313.84 1019.17,-312.54"/>
<polygon fill="midnightblue" stroke="midnightblue" points="1044.46,-320.01 1054.88,-318.08 1045.54,-313.09 1044.46,-320.01"/>
</g>
<!-- Node3 -->
<g id="node3" class="node">
<title>Node3</title>
<g id="a_node3"><a xlink:href="classServoObjectsSystem.html#a6df7e1694087d2fa67d41aeef363b3f3" target="_top" xlink:title="Déploie un servo à la position donnée.">
<polygon fill="white" stroke="black" points="728.5,-564.5 728.5,-594.5 846.5,-594.5 846.5,-564.5 728.5,-564.5"/>
<text text-anchor="start" x="736.5" y="-582.5" font-family="Helvetica,sans-Serif" font-size="10.00">ServoObjectsSystem</text>
<text text-anchor="middle" x="787.5" y="-571.5" font-family="Helvetica,sans-Serif" font-size="10.00">::deploy</text>
</a>
</g>
</g>
<!-- Node2&#45;&gt;Node3 -->
<g id="edge2" class="edge">
<title>Node2&#45;&gt;Node3</title>
<path fill="none" stroke="midnightblue" d="M890.82,-564.5C876.22,-566.64 860.92,-568.88 846.73,-570.96"/>
<polygon fill="midnightblue" stroke="midnightblue" points="891.41,-567.95 900.8,-563.03 890.4,-561.02 891.41,-567.95"/>
</g>
<!-- Node4 -->
<g id="node4" class="node">
<title>Node4</title>
<g id="a_node4"><a xlink:href="classO__ServoStepTest.html#aefbe5c17504e0782e71a6ca13ed40518" target="_top" xlink:title="Execute le test.">
<polygon fill="white" stroke="black" points="539.5,-652 539.5,-671 659.5,-671 659.5,-652 539.5,-652"/>
<text text-anchor="middle" x="599.5" y="-659" font-family="Helvetica,sans-Serif" font-size="10.00">O_ServoStepTest::run</text>
</a>
</g>
</g>
<!-- Node2&#45;&gt;Node4 -->
<g id="edge46" class="edge">
<title>Node2&#45;&gt;Node4</title>
<path fill="none" stroke="midnightblue" d="M925.58,-574.69C908.05,-584.55 885.92,-595.91 865,-603.5 826.33,-617.54 716.93,-639.49 651.57,-651.97"/>
<polygon fill="midnightblue" stroke="midnightblue" points="927.36,-577.7 934.29,-569.69 923.88,-571.63 927.36,-577.7"/>
</g>
<!-- Node5 -->
<g id="node5" class="node">
<title>Node5</title>
<g id="a_node5"><a xlink:href="classServoObjectsSystem.html#a365a1064fe865a6e081294ed124861bb" target="_top" xlink:title="Déploie un servo avec une vitesse contrôlée.">
<polygon fill="white" stroke="black" points="728.5,-750.5 728.5,-780.5 846.5,-780.5 846.5,-750.5 728.5,-750.5"/>
<text text-anchor="start" x="736.5" y="-768.5" font-family="Helvetica,sans-Serif" font-size="10.00">ServoObjectsSystem</text>
<text text-anchor="middle" x="787.5" y="-757.5" font-family="Helvetica,sans-Serif" font-size="10.00">::deployWithVelocity</text>
</a>
</g>
</g>
<!-- Node2&#45;&gt;Node5 -->
<g id="edge4" class="edge">
<title>Node2&#45;&gt;Node5</title>
<path fill="none" stroke="midnightblue" d="M953.21,-579.35C942.62,-619.33 916.34,-697.86 865,-741.5 859.59,-746.1 853.3,-749.82 846.7,-752.82"/>
<polygon fill="midnightblue" stroke="midnightblue" points="956.62,-580.16 955.68,-569.61 949.83,-578.44 956.62,-580.16"/>
</g>
<!-- Node6 -->
<g id="node6" class="node">
<title>Node6</title>
<g id="a_node6"><a xlink:href="classServoObjectsSystem.html#a60de17986f65700a7659b22edda2faef" target="_top" xlink:title="move 1 servo.">
<polygon fill="white" stroke="black" points="728.5,-221.5 728.5,-251.5 846.5,-251.5 846.5,-221.5 728.5,-221.5"/>
<text text-anchor="start" x="736.5" y="-239.5" font-family="Helvetica,sans-Serif" font-size="10.00">ServoObjectsSystem</text>
<text text-anchor="middle" x="787.5" y="-228.5" font-family="Helvetica,sans-Serif" font-size="10.00">::move_1_servo</text>
</a>
</g>
</g>
<!-- Node2&#45;&gt;Node6 -->
<g id="edge5" class="edge">
<title>Node2&#45;&gt;Node6</title>
<path fill="none" stroke="midnightblue" d="M945.87,-530.02C912.28,-467.36 823.92,-302.57 796.64,-251.68"/>
<polygon fill="midnightblue" stroke="midnightblue" points="942.97,-532 950.78,-539.16 949.14,-528.7 942.97,-532"/>
</g>
<!-- Node10 -->
<g id="node10" class="node">
<title>Node10</title>
<g id="a_node10"><a xlink:href="classO__ServoObjectsTest.html#aabfa9ba518070128940062ed11028ca7" target="_top" xlink:title="Execute le test.">
<polygon fill="white" stroke="black" points="159,-300 159,-319 294,-319 294,-300 159,-300"/>
<text text-anchor="middle" x="226.5" y="-307" font-family="Helvetica,sans-Serif" font-size="10.00">O_ServoObjectsTest::run</text>
</a>
</g>
</g>
<!-- Node2&#45;&gt;Node10 -->
<g id="edge45" class="edge">
<title>Node2&#45;&gt;Node10</title>
<path fill="none" stroke="midnightblue" d="M926.95,-534.14C909.33,-523.9 886.7,-512.26 865,-505.5 751.26,-470.07 437.19,-497.26 333,-439.5 280.63,-410.47 244.23,-343.98 232.01,-319.12"/>
<polygon fill="midnightblue" stroke="midnightblue" points="925.29,-537.22 935.68,-539.33 928.87,-531.21 925.29,-537.22"/>
</g>
<!-- Node21 -->
<g id="node21" class="node">
<title>Node21</title>
<g id="a_node21"><a xlink:href="classServoObjectsSystem.html#a209d4e6a24c8cd26c76168c08e330655" target="_top" xlink:title="move 2 servos.">
<polygon fill="white" stroke="black" points="728.5,-98.5 728.5,-128.5 846.5,-128.5 846.5,-98.5 728.5,-98.5"/>
<text text-anchor="start" x="736.5" y="-116.5" font-family="Helvetica,sans-Serif" font-size="10.00">ServoObjectsSystem</text>
<text text-anchor="middle" x="787.5" y="-105.5" font-family="Helvetica,sans-Serif" font-size="10.00">::move_2_servos</text>
</a>
</g>
</g>
<!-- Node2&#45;&gt;Node21 -->
<g id="edge31" class="edge">
<title>Node2&#45;&gt;Node21</title>
<path fill="none" stroke="midnightblue" d="M952.69,-529.25C934.05,-454.98 879.62,-240.63 865,-211.5 848.74,-179.09 820.87,-147.01 803.64,-128.79"/>
<polygon fill="midnightblue" stroke="midnightblue" points="949.35,-530.31 955.17,-539.16 956.14,-528.6 949.35,-530.31"/>
</g>
<!-- Node22 -->
<g id="node22" class="node">
<title>Node22</title>
<g id="a_node22"><a xlink:href="classServoObjectsSystem.html#a8d96f5f8ccdfb9ca69a73e523f388191" target="_top" xlink:title="Déplace 3 servos simultanément.">
<polygon fill="white" stroke="black" points="728.5,-701.5 728.5,-731.5 846.5,-731.5 846.5,-701.5 728.5,-701.5"/>
<text text-anchor="start" x="736.5" y="-719.5" font-family="Helvetica,sans-Serif" font-size="10.00">ServoObjectsSystem</text>
<text text-anchor="middle" x="787.5" y="-708.5" font-family="Helvetica,sans-Serif" font-size="10.00">::move_3_servos</text>
</a>
</g>
</g>
<!-- Node2&#45;&gt;Node22 -->
<g id="edge35" class="edge">
<title>Node2&#45;&gt;Node22</title>
<path fill="none" stroke="midnightblue" d="M948.53,-579.05C934.13,-609.95 905.33,-662.57 865,-692.5 859.41,-696.65 853.09,-700.09 846.53,-702.95"/>
<polygon fill="midnightblue" stroke="midnightblue" points="951.76,-580.4 952.69,-569.84 945.38,-577.51 951.76,-580.4"/>
</g>
<!-- Node23 -->
<g id="node23" class="node">
<title>Node23</title>
<g id="a_node23"><a xlink:href="classServoObjectsSystem.html#a885ad7b498315c66de65dae7149b3ea1" target="_top" xlink:title="Déplace 4 servos simultanément.">
<polygon fill="white" stroke="black" points="728.5,-652.5 728.5,-682.5 846.5,-682.5 846.5,-652.5 728.5,-652.5"/>
<text text-anchor="start" x="736.5" y="-670.5" font-family="Helvetica,sans-Serif" font-size="10.00">ServoObjectsSystem</text>
<text text-anchor="middle" x="787.5" y="-659.5" font-family="Helvetica,sans-Serif" font-size="10.00">::move_4_servos</text>
</a>
</g>
</g>
<!-- Node2&#45;&gt;Node23 -->
<g id="edge36" class="edge">
<title>Node2&#45;&gt;Node23</title>
<path fill="none" stroke="midnightblue" d="M937.88,-577.11C919.89,-595.33 892.63,-620.61 865,-637.5 855.63,-643.23 844.97,-648.22 834.65,-652.41"/>
<polygon fill="midnightblue" stroke="midnightblue" points="940.54,-579.39 944.99,-569.77 935.52,-574.51 940.54,-579.39"/>
</g>
<!-- Node24 -->
<g id="node24" class="node">
<title>Node24</title>
<g id="a_node24"><a xlink:href="classOPOS6UL__ActionsExtended.html#a0bc7d581ad9cbae899f7f244340a5429" target="_top" xlink:title="Relâche tous les servomoteurs AX12 (coupe le maintien en position).">
<polygon fill="white" stroke="black" points="713,-515.5 713,-545.5 862,-545.5 862,-515.5 713,-515.5"/>
<text text-anchor="start" x="721" y="-533.5" font-family="Helvetica,sans-Serif" font-size="10.00">OPOS6UL_ActionsExtended</text>
<text text-anchor="middle" x="787.5" y="-522.5" font-family="Helvetica,sans-Serif" font-size="10.00">::releaseAll</text>
</a>
</g>
</g>
<!-- Node2&#45;&gt;Node24 -->
<g id="edge37" class="edge">
<title>Node2&#45;&gt;Node24</title>
<path fill="none" stroke="midnightblue" d="M890.72,-544.89C881.31,-543.56 871.62,-542.2 862.12,-540.86"/>
<polygon fill="midnightblue" stroke="midnightblue" points="890.41,-548.38 900.8,-546.31 891.39,-541.45 890.41,-548.38"/>
</g>
<!-- Node3&#45;&gt;Node4 -->
<g id="edge3" class="edge">
<title>Node3&#45;&gt;Node4</title>
<path fill="none" stroke="midnightblue" d="M732.45,-598.43C724.75,-601.78 717.05,-605.49 710,-609.5 692.38,-619.53 691.9,-627.99 674,-637.5 662.86,-643.42 649.99,-648.23 638.16,-651.94"/>
<polygon fill="midnightblue" stroke="midnightblue" points="733.92,-601.61 741.81,-594.54 731.23,-595.15 733.92,-601.61"/>
</g>
<!-- Node7 -->
<g id="node7" class="node">
<title>Node7</title>
<g id="a_node7"><a xlink:href="classOPOS6UL__ActionsExtended.html#a946560d21bc7c1a12be600b16e07c93a" target="_top" xlink:title="Déploie le bras droit en position d&#39;action.">
<polygon fill="white" stroke="black" points="525,-245.5 525,-275.5 674,-275.5 674,-245.5 525,-245.5"/>
<text text-anchor="start" x="533" y="-263.5" font-family="Helvetica,sans-Serif" font-size="10.00">OPOS6UL_ActionsExtended</text>
<text text-anchor="middle" x="599.5" y="-252.5" font-family="Helvetica,sans-Serif" font-size="10.00">::ax12_bras_droit</text>
</a>
</g>
</g>
<!-- Node6&#45;&gt;Node7 -->
<g id="edge6" class="edge">
<title>Node6&#45;&gt;Node7</title>
<path fill="none" stroke="midnightblue" d="M718.17,-245.32C703.86,-247.16 688.72,-249.12 674.23,-250.99"/>
<polygon fill="midnightblue" stroke="midnightblue" points="718.94,-248.75 728.41,-244 718.05,-241.8 718.94,-248.75"/>
</g>
<!-- Node12 -->
<g id="node12" class="node">
<title>Node12</title>
<g id="a_node12"><a xlink:href="classOPOS6UL__ActionsExtended.html#a67daef275b861004d118273c7e2564c2" target="_top" xlink:title="Place le bras droit en position initiale (replié).">
<polygon fill="white" stroke="black" points="525,-196.5 525,-226.5 674,-226.5 674,-196.5 525,-196.5"/>
<text text-anchor="start" x="533" y="-214.5" font-family="Helvetica,sans-Serif" font-size="10.00">OPOS6UL_ActionsExtended</text>
<text text-anchor="middle" x="599.5" y="-203.5" font-family="Helvetica,sans-Serif" font-size="10.00">::ax12_bras_droit_init</text>
</a>
</g>
</g>
<!-- Node6&#45;&gt;Node12 -->
<g id="edge13" class="edge">
<title>Node6&#45;&gt;Node12</title>
<path fill="none" stroke="midnightblue" d="M718.17,-227.32C703.86,-225.39 688.72,-223.36 674.23,-221.41"/>
<polygon fill="midnightblue" stroke="midnightblue" points="718.04,-230.83 728.41,-228.69 718.97,-223.89 718.04,-230.83"/>
</g>
<!-- Node13 -->
<g id="node13" class="node">
<title>Node13</title>
<g id="a_node13"><a xlink:href="classOPOS6UL__ActionsExtended.html#a5b32b355b6907dda48874f40dc9101eb" target="_top" xlink:title="Déploie le bras gauche en position d&#39;action.">
<polygon fill="white" stroke="black" points="525,-147.5 525,-177.5 674,-177.5 674,-147.5 525,-147.5"/>
<text text-anchor="start" x="533" y="-165.5" font-family="Helvetica,sans-Serif" font-size="10.00">OPOS6UL_ActionsExtended</text>
<text text-anchor="middle" x="599.5" y="-154.5" font-family="Helvetica,sans-Serif" font-size="10.00">::ax12_bras_gauche</text>
</a>
</g>
</g>
<!-- Node6&#45;&gt;Node13 -->
<g id="edge16" class="edge">
<title>Node6&#45;&gt;Node13</title>
<path fill="none" stroke="midnightblue" d="M745.54,-217.08C724.39,-207.37 698.05,-195.74 674,-186.5 665.98,-183.42 657.38,-180.38 648.98,-177.55"/>
<polygon fill="midnightblue" stroke="midnightblue" points="744.32,-220.37 754.86,-221.39 747.25,-214.02 744.32,-220.37"/>
</g>
<!-- Node14 -->
<g id="node14" class="node">
<title>Node14</title>
<g id="a_node14"><a xlink:href="classOPOS6UL__ActionsExtended.html#ad3b7d5a26040d5780cc43a5a9ead9ad3" target="_top" xlink:title="Place le bras gauche en position initiale (replié).">
<polygon fill="white" stroke="black" points="525,-343.5 525,-373.5 674,-373.5 674,-343.5 525,-343.5"/>
<text text-anchor="start" x="533" y="-361.5" font-family="Helvetica,sans-Serif" font-size="10.00">OPOS6UL_ActionsExtended</text>
<text text-anchor="middle" x="599.5" y="-350.5" font-family="Helvetica,sans-Serif" font-size="10.00">::ax12_bras_gauche_init</text>
</a>
</g>
</g>
<!-- Node6&#45;&gt;Node14 -->
<g id="edge19" class="edge">
<title>Node6&#45;&gt;Node14</title>
<path fill="none" stroke="midnightblue" d="M765.43,-259.15C744.16,-280.84 709.49,-313.2 674,-333.5 667.45,-337.25 660.25,-340.55 652.99,-343.43"/>
<polygon fill="midnightblue" stroke="midnightblue" points="768.21,-261.31 772.63,-251.68 763.17,-256.45 768.21,-261.31"/>
</g>
<!-- Node15 -->
<g id="node15" class="node">
<title>Node15</title>
<g id="a_node15"><a xlink:href="classOPOS6UL__ActionsExtended.html#a44856498aa3839098211785a1fe0b6a3" target="_top" xlink:title="Déploie la banderole (action de fin de match).">
<polygon fill="white" stroke="black" points="525,-392.5 525,-422.5 674,-422.5 674,-392.5 525,-392.5"/>
<text text-anchor="start" x="533" y="-410.5" font-family="Helvetica,sans-Serif" font-size="10.00">OPOS6UL_ActionsExtended</text>
<text text-anchor="middle" x="599.5" y="-399.5" font-family="Helvetica,sans-Serif" font-size="10.00">::ax12_GO_banderole</text>
</a>
</g>
</g>
<!-- Node6&#45;&gt;Node15 -->
<g id="edge22" class="edge">
<title>Node6&#45;&gt;Node15</title>
<path fill="none" stroke="midnightblue" d="M773.77,-260.86C755.72,-293.13 719.75,-349.76 674,-382.5 668.63,-386.34 662.62,-389.63 656.42,-392.44"/>
<polygon fill="midnightblue" stroke="midnightblue" points="777.06,-262.14 778.78,-251.69 770.92,-258.78 777.06,-262.14"/>
</g>
<!-- Node17 -->
<g id="node17" class="node">
<title>Node17</title>
<g id="a_node17"><a xlink:href="classOPOS6UL__ActionsExtended.html#ae63e06f334f5095383387aa9ff68c8a3" target="_top" xlink:title="Initialise le servo de la banderole à la position repliée.">
<polygon fill="white" stroke="black" points="525,-294.5 525,-324.5 674,-324.5 674,-294.5 525,-294.5"/>
<text text-anchor="start" x="533" y="-312.5" font-family="Helvetica,sans-Serif" font-size="10.00">OPOS6UL_ActionsExtended</text>
<text text-anchor="middle" x="599.5" y="-301.5" font-family="Helvetica,sans-Serif" font-size="10.00">::ax12_init_banderole</text>
</a>
</g>
</g>
<!-- Node6&#45;&gt;Node17 -->
<g id="edge25" class="edge">
<title>Node6&#45;&gt;Node17</title>
<path fill="none" stroke="midnightblue" d="M743.58,-255.71C722.73,-264.82 697.22,-275.61 674,-284.5 665.19,-287.87 655.7,-291.27 646.56,-294.43"/>
<polygon fill="midnightblue" stroke="midnightblue" points="745.05,-258.89 752.8,-251.66 742.24,-252.48 745.05,-258.89"/>
</g>
<!-- Node18 -->
<g id="node18" class="node">
<title>Node18</title>
<g id="a_node18"><a xlink:href="classOPOS6UL__ActionsExtended.html#a565acda2ce4cdd1be8263835465d0fdc" target="_top" xlink:title="Initialise le bras gauche (épaule, coude, poignet) à la position de repos.">
<polygon fill="white" stroke="black" points="525,-49.5 525,-79.5 674,-79.5 674,-49.5 525,-49.5"/>
<text text-anchor="start" x="533" y="-67.5" font-family="Helvetica,sans-Serif" font-size="10.00">OPOS6UL_ActionsExtended</text>
<text text-anchor="middle" x="599.5" y="-56.5" font-family="Helvetica,sans-Serif" font-size="10.00">::ax12_init_L</text>
</a>
</g>
</g>
<!-- Node6&#45;&gt;Node18 -->
<g id="edge28" class="edge">
<title>Node6&#45;&gt;Node18</title>
<path fill="none" stroke="midnightblue" d="M768.53,-213.57C752.92,-193.58 729.79,-163.76 710,-137.5 693.74,-115.92 695.89,-104.34 674,-88.5 669.32,-85.12 664.14,-82.19 658.76,-79.67"/>
<polygon fill="midnightblue" stroke="midnightblue" points="765.81,-215.77 774.72,-221.49 771.32,-211.46 765.81,-215.77"/>
</g>
<!-- Node19 -->
<g id="node19" class="node">
<title>Node19</title>
<g id="a_node19"><a xlink:href="classOPOS6UL__ActionsExtended.html#a50a3db095faaaf15ec9630d9abcfb5d4" target="_top" xlink:title="Initialise les deux bras (gauche et droit) à la position de repos.">
<polygon fill="white" stroke="black" points="525,-0.5 525,-30.5 674,-30.5 674,-0.5 525,-0.5"/>
<text text-anchor="start" x="533" y="-18.5" font-family="Helvetica,sans-Serif" font-size="10.00">OPOS6UL_ActionsExtended</text>
<text text-anchor="middle" x="599.5" y="-7.5" font-family="Helvetica,sans-Serif" font-size="10.00">::ax12_init_LR</text>
</a>
</g>
</g>
<!-- Node6&#45;&gt;Node19 -->
<g id="edge29" class="edge">
<title>Node6&#45;&gt;Node19</title>
<path fill="none" stroke="midnightblue" d="M765.7,-213.82C748.93,-194.62 725.63,-165.78 710,-137.5 687.55,-96.89 707.4,-71.71 674,-39.5 670.42,-36.05 666.35,-33.1 661.99,-30.57"/>
<polygon fill="midnightblue" stroke="midnightblue" points="763.19,-216.27 772.45,-221.43 768.43,-211.63 763.19,-216.27"/>
</g>
<!-- Node20 -->
<g id="node20" class="node">
<title>Node20</title>
<g id="a_node20"><a xlink:href="classOPOS6UL__ActionsExtended.html#a298422faffadf81c4350cd47464d3f0a" target="_top" xlink:title="Initialise le bras droit (épaule, coude, poignet) à la position de repos.">
<polygon fill="white" stroke="black" points="525,-98.5 525,-128.5 674,-128.5 674,-98.5 525,-98.5"/>
<text text-anchor="start" x="533" y="-116.5" font-family="Helvetica,sans-Serif" font-size="10.00">OPOS6UL_ActionsExtended</text>
<text text-anchor="middle" x="599.5" y="-105.5" font-family="Helvetica,sans-Serif" font-size="10.00">::ax12_init_R</text>
</a>
</g>
</g>
<!-- Node6&#45;&gt;Node20 -->
<g id="edge30" class="edge">
<title>Node6&#45;&gt;Node20</title>
<path fill="none" stroke="midnightblue" d="M766.2,-213.93C745.11,-191.7 710.18,-158.15 674,-137.5 668.17,-134.17 661.81,-131.23 655.36,-128.65"/>
<polygon fill="midnightblue" stroke="midnightblue" points="763.68,-216.36 773.07,-221.28 768.8,-211.59 763.68,-216.36"/>
</g>
<!-- Node8 -->
<g id="node8" class="node">
<title>Node8</title>
<g id="a_node8"><a xlink:href="classOPOS6UL__ActionsExtended.html#af04e19802d90a78d82e67b10061521a2" target="_top" xlink:title="Initialise tous les servomoteurs AX12 à leur position de départ.">
<polygon fill="white" stroke="black" points="336.5,-174.5 336.5,-204.5 485.5,-204.5 485.5,-174.5 336.5,-174.5"/>
<text text-anchor="start" x="344.5" y="-192.5" font-family="Helvetica,sans-Serif" font-size="10.00">OPOS6UL_ActionsExtended</text>
<text text-anchor="middle" x="411" y="-181.5" font-family="Helvetica,sans-Serif" font-size="10.00">::ax12_init</text>
</a>
</g>
</g>
<!-- Node7&#45;&gt;Node8 -->
<g id="edge7" class="edge">
<title>Node7&#45;&gt;Node8</title>
<path fill="none" stroke="midnightblue" d="M543.23,-242.09C537.06,-239.92 530.88,-237.7 525,-235.5 498.81,-225.72 469.58,-213.8 447.42,-204.54"/>
<polygon fill="midnightblue" stroke="midnightblue" points="542.28,-245.47 552.87,-245.44 544.58,-238.85 542.28,-245.47"/>
</g>
<!-- Node7&#45;&gt;Node10 -->
<g id="edge12" class="edge">
<title>Node7&#45;&gt;Node10</title>
<path fill="none" stroke="midnightblue" d="M514.7,-271.57C448.03,-280.37 355.99,-292.53 294.25,-300.68"/>
<polygon fill="midnightblue" stroke="midnightblue" points="515.3,-275.02 524.76,-270.24 514.39,-268.08 515.3,-275.02"/>
</g>
<!-- Node9 -->
<g id="node9" class="node">
<title>Node9</title>
<g id="a_node9"><a xlink:href="classO__State__Init.html#abc19788b7457d1f819245dd28367fe91" target="_top" xlink:title="Exécute l&#39;état d&#39;initialisation.">
<polygon fill="white" stroke="black" points="0,-180 0,-199 120,-199 120,-180 0,-180"/>
<text text-anchor="middle" x="60" y="-187" font-family="Helvetica,sans-Serif" font-size="10.00">O_State_Init::execute</text>
</a>
</g>
</g>
<!-- Node8&#45;&gt;Node9 -->
<g id="edge8" class="edge">
<title>Node8&#45;&gt;Node9</title>
<path fill="none" stroke="midnightblue" d="M326.39,-189.5C262.72,-189.5 176.66,-189.5 120.03,-189.5"/>
<polygon fill="midnightblue" stroke="midnightblue" points="326.41,-193 336.41,-189.5 326.41,-186 326.41,-193"/>
</g>
<!-- Node8&#45;&gt;Node10 -->
<g id="edge9" class="edge">
<title>Node8&#45;&gt;Node10</title>
<path fill="none" stroke="midnightblue" d="M354.6,-208.48C347.15,-211.78 339.75,-215.46 333,-219.5 293.33,-243.22 253.82,-281.99 236.55,-299.89"/>
<polygon fill="midnightblue" stroke="midnightblue" points="356.16,-211.62 364.02,-204.51 353.44,-205.17 356.16,-211.62"/>
</g>
<!-- Node11 -->
<g id="node11" class="node">
<title>Node11</title>
<g id="a_node11"><a xlink:href="classO__State__Init.html#a1980cd82dcb83e88d61f2e7e14dddfa0" target="_top" xlink:title=" ">
<polygon fill="white" stroke="black" points="169.5,-199 169.5,-218 283.5,-218 283.5,-199 169.5,-199"/>
<text text-anchor="middle" x="226.5" y="-206" font-family="Helvetica,sans-Serif" font-size="10.00">O_State_Init::setPos</text>
</a>
</g>
</g>
<!-- Node8&#45;&gt;Node11 -->
<g id="edge10" class="edge">
<title>Node8&#45;&gt;Node11</title>
<path fill="none" stroke="midnightblue" d="M326.31,-198.21C311.81,-199.72 297.05,-201.26 283.51,-202.67"/>
<polygon fill="midnightblue" stroke="midnightblue" points="326.71,-201.69 336.3,-197.17 325.99,-194.73 326.71,-201.69"/>
</g>
<!-- Node11&#45;&gt;Node9 -->
<g id="edge11" class="edge">
<title>Node11&#45;&gt;Node9</title>
<path fill="none" stroke="midnightblue" d="M159.17,-200.84C146.3,-199.35 132.89,-197.8 120.27,-196.35"/>
<polygon fill="midnightblue" stroke="midnightblue" points="159.01,-204.34 169.35,-202.01 159.82,-197.39 159.01,-204.34"/>
</g>
<!-- Node12&#45;&gt;Node8 -->
<g id="edge14" class="edge">
<title>Node12&#45;&gt;Node8</title>
<path fill="none" stroke="midnightblue" d="M514.78,-201.62C505.11,-200.48 495.31,-199.33 485.79,-198.2"/>
<polygon fill="midnightblue" stroke="midnightblue" points="514.45,-205.11 524.79,-202.81 515.27,-198.16 514.45,-205.11"/>
</g>
<!-- Node12&#45;&gt;Node10 -->
<g id="edge15" class="edge">
<title>Node12&#45;&gt;Node10</title>
<path fill="none" stroke="midnightblue" d="M514.95,-227.62C462.32,-238.45 393.2,-253.93 333,-271.5 304.59,-279.79 272.73,-291.63 251.52,-299.89"/>
<polygon fill="midnightblue" stroke="midnightblue" points="515.81,-231.02 524.91,-225.59 514.41,-224.16 515.81,-231.02"/>
</g>
<!-- Node13&#45;&gt;Node8 -->
<g id="edge17" class="edge">
<title>Node13&#45;&gt;Node8</title>
<path fill="none" stroke="midnightblue" d="M514.78,-174.62C505.11,-176.02 495.31,-177.44 485.79,-178.82"/>
<polygon fill="midnightblue" stroke="midnightblue" points="515.39,-178.07 524.79,-173.17 514.39,-171.14 515.39,-178.07"/>
</g>
<!-- Node13&#45;&gt;Node10 -->
<g id="edge18" class="edge">
<title>Node13&#45;&gt;Node10</title>
<path fill="none" stroke="midnightblue" d="M531.66,-145.52C474.83,-134.97 393.14,-129.3 333,-164.5 305.17,-180.79 315.5,-201.09 297,-227.5 277.51,-255.32 250.61,-285.03 236.68,-299.88"/>
<polygon fill="midnightblue" stroke="midnightblue" points="531.13,-148.99 541.61,-147.47 532.47,-142.12 531.13,-148.99"/>
</g>
<!-- Node14&#45;&gt;Node8 -->
<g id="edge20" class="edge">
<title>Node14&#45;&gt;Node8</title>
<path fill="none" stroke="midnightblue" d="M533.5,-338.83C530.55,-337.18 527.69,-335.41 525,-333.5 474.96,-298.03 436.15,-234.2 420.07,-204.93"/>
<polygon fill="midnightblue" stroke="midnightblue" points="532.11,-342.04 542.62,-343.39 535.24,-335.78 532.11,-342.04"/>
</g>
<!-- Node14&#45;&gt;Node10 -->
<g id="edge21" class="edge">
<title>Node14&#45;&gt;Node10</title>
<path fill="none" stroke="midnightblue" d="M514.74,-347.48C462.48,-340.59 393.82,-331.54 333,-323.5 320.45,-321.84 307.07,-320.07 294.19,-318.36"/>
<polygon fill="midnightblue" stroke="midnightblue" points="514.59,-350.99 524.96,-348.82 515.51,-344.05 514.59,-350.99"/>
</g>
<!-- Node15&#45;&gt;Node10 -->
<g id="edge24" class="edge">
<title>Node15&#45;&gt;Node10</title>
<path fill="none" stroke="midnightblue" d="M530.56,-424.5C475.2,-434.9 396.14,-441.74 333,-415.5 284.81,-395.47 247.25,-341.55 233.34,-319.3"/>
<polygon fill="midnightblue" stroke="midnightblue" points="531.48,-427.89 540.62,-422.52 530.13,-421.02 531.48,-427.89"/>
</g>
<!-- Node16 -->
<g id="node16" class="node">
<title>Node16</title>
<g id="a_node16"><a xlink:href="classO__State__DecisionMakerIA.html#a96d1f2a7618d607fd10cc51b9111e653" target="_top" xlink:title="Execute l&#39;action.">
<polygon fill="white" stroke="black" points="340,-376.5 340,-406.5 482,-406.5 482,-376.5 340,-376.5"/>
<text text-anchor="start" x="348" y="-394.5" font-family="Helvetica,sans-Serif" font-size="10.00">O_State_DecisionMakerIA</text>
<text text-anchor="middle" x="411" y="-383.5" font-family="Helvetica,sans-Serif" font-size="10.00">::execute</text>
</a>
</g>
</g>
<!-- Node15&#45;&gt;Node16 -->
<g id="edge23" class="edge">
<title>Node15&#45;&gt;Node16</title>
<path fill="none" stroke="midnightblue" d="M514.83,-400.32C503.9,-399.38 492.8,-398.43 482.13,-397.52"/>
<polygon fill="midnightblue" stroke="midnightblue" points="514.53,-403.81 524.79,-401.18 515.13,-396.83 514.53,-403.81"/>
</g>
<!-- Node17&#45;&gt;Node8 -->
<g id="edge26" class="edge">
<title>Node17&#45;&gt;Node8</title>
<path fill="none" stroke="midnightblue" d="M536.6,-290.35C532.6,-288.54 528.7,-286.59 525,-284.5 485.49,-262.22 446.59,-225.33 426.35,-204.69"/>
<polygon fill="midnightblue" stroke="midnightblue" points="535.48,-293.68 546.05,-294.35 538.21,-287.23 535.48,-293.68"/>
</g>
<!-- Node17&#45;&gt;Node10 -->
<g id="edge27" class="edge">
<title>Node17&#45;&gt;Node10</title>
<path fill="none" stroke="midnightblue" d="M514.7,-309.5C448.03,-309.5 355.99,-309.5 294.25,-309.5"/>
<polygon fill="midnightblue" stroke="midnightblue" points="514.76,-313 524.76,-309.5 514.76,-306 514.76,-313"/>
</g>
<!-- Node21&#45;&gt;Node18 -->
<g id="edge32" class="edge">
<title>Node21&#45;&gt;Node18</title>
<path fill="none" stroke="midnightblue" d="M719.6,-95.88C699.26,-90.52 677.09,-84.68 657.46,-79.51"/>
<polygon fill="midnightblue" stroke="midnightblue" points="718.87,-99.3 729.43,-98.47 720.65,-92.53 718.87,-99.3"/>
</g>
<!-- Node21&#45;&gt;Node19 -->
<g id="edge33" class="edge">
<title>Node21&#45;&gt;Node19</title>
<path fill="none" stroke="midnightblue" d="M719.06,-94.23C715.9,-92.47 712.86,-90.57 710,-88.5 688.11,-72.66 695.89,-55.34 674,-39.5 669.32,-36.12 664.14,-33.19 658.76,-30.67"/>
<polygon fill="midnightblue" stroke="midnightblue" points="717.7,-97.46 728.21,-98.77 720.81,-91.19 717.7,-97.46"/>
</g>
<!-- Node21&#45;&gt;Node20 -->
<g id="edge34" class="edge">
<title>Node21&#45;&gt;Node20</title>
<path fill="none" stroke="midnightblue" d="M718.17,-113.5C703.86,-113.5 688.72,-113.5 674.23,-113.5"/>
<polygon fill="midnightblue" stroke="midnightblue" points="718.41,-117 728.41,-113.5 718.41,-110 718.41,-117"/>
</g>
<!-- Node24&#45;&gt;Node4 -->
<g id="edge40" class="edge">
<title>Node24&#45;&gt;Node4</title>
<path fill="none" stroke="midnightblue" d="M714.11,-551.12C712.69,-552.19 711.32,-553.32 710,-554.5 680.11,-581.4 703.73,-610.43 674,-637.5 667.05,-643.83 658.41,-648.49 649.52,-651.92"/>
<polygon fill="midnightblue" stroke="midnightblue" points="716.22,-553.93 722.74,-545.58 712.43,-548.04 716.22,-553.93"/>
</g>
<!-- Node24&#45;&gt;Node10 -->
<g id="edge39" class="edge">
<title>Node24&#45;&gt;Node10</title>
<path fill="none" stroke="midnightblue" d="M702.61,-526.64C580.09,-520.39 363.41,-506.78 333,-487.5 268.38,-446.52 238.26,-350.51 229.96,-319.41"/>
<polygon fill="midnightblue" stroke="midnightblue" points="702.55,-530.14 712.71,-527.15 702.9,-523.15 702.55,-530.14"/>
</g>
<!-- Node25 -->
<g id="node25" class="node">
<title>Node25</title>
<g id="a_node25"><a xlink:href="classO__State__WaitEndOfMatch.html#aa73613440b37c8dd42181e2e0265ae86" target="_top" xlink:title="Exécute l&#39;état d&#39;attente de fin de match.">
<polygon fill="white" stroke="black" points="156,-611.5 156,-641.5 297,-641.5 297,-611.5 156,-611.5"/>
<text text-anchor="start" x="164" y="-629.5" font-family="Helvetica,sans-Serif" font-size="10.00">O_State_WaitEndOfMatch</text>
<text text-anchor="middle" x="226.5" y="-618.5" font-family="Helvetica,sans-Serif" font-size="10.00">::execute</text>
</a>
</g>
</g>
<!-- Node24&#45;&gt;Node25 -->
<g id="edge38" class="edge">
<title>Node24&#45;&gt;Node25</title>
<path fill="none" stroke="midnightblue" d="M721.82,-549.23C717.77,-550.88 713.8,-552.64 710,-554.5 692.51,-563.07 691.68,-571.33 674,-579.5 535.02,-643.74 486.11,-629.95 333,-628.5 321.37,-628.39 309.02,-628.21 297.02,-628"/>
<polygon fill="midnightblue" stroke="midnightblue" points="723.3,-552.42 731.38,-545.57 720.79,-545.88 723.3,-552.42"/>
</g>
<!-- Node26 -->
<g id="node26" class="node">
<title>Node26</title>
<g id="a_node26"><a xlink:href="classOPOS6UL__ActionsExtended.html#a87bb61d89759101cac844e7c399f2f61" target="_top" xlink:title="Arrête tous les périphériques supplémentaires (capteurs, LEDs, LCD) et relâche les servos.">
<polygon fill="white" stroke="black" points="525,-540.5 525,-570.5 674,-570.5 674,-540.5 525,-540.5"/>
<text text-anchor="start" x="533" y="-558.5" font-family="Helvetica,sans-Serif" font-size="10.00">OPOS6UL_ActionsExtended</text>
<text text-anchor="middle" x="599.5" y="-547.5" font-family="Helvetica,sans-Serif" font-size="10.00">::stopExtra</text>
</a>
</g>
</g>
<!-- Node24&#45;&gt;Node26 -->
<g id="edge41" class="edge">
<title>Node24&#45;&gt;Node26</title>
<path fill="none" stroke="midnightblue" d="M703.01,-541.72C693.36,-543.02 683.58,-544.33 674.09,-545.61"/>
<polygon fill="midnightblue" stroke="midnightblue" points="703.54,-545.18 712.99,-540.38 702.61,-538.24 703.54,-545.18"/>
</g>
<!-- Node27 -->
<g id="node27" class="node">
<title>Node27</title>
<g id="a_node27"><a xlink:href="classOPOS6UL__RobotExtended.html#ac8ac2be407a78cdd62261f72226162df" target="_top" xlink:title=" ">
<polygon fill="white" stroke="black" points="333,-540.5 333,-570.5 489,-570.5 489,-540.5 333,-540.5"/>
<text text-anchor="start" x="341" y="-558.5" font-family="Helvetica,sans-Serif" font-size="10.00">OPOS6UL_RobotExtended</text>
<text text-anchor="middle" x="411" y="-547.5" font-family="Helvetica,sans-Serif" font-size="10.00">::~OPOS6UL_RobotExtended</text>
</a>
</g>
</g>
<!-- Node26&#45;&gt;Node27 -->
<g id="edge42" class="edge">
<title>Node26&#45;&gt;Node27</title>
<path fill="none" stroke="midnightblue" d="M514.55,-555.5C506.09,-555.5 497.54,-555.5 489.16,-555.5"/>
<polygon fill="midnightblue" stroke="midnightblue" points="514.79,-559 524.79,-555.5 514.79,-552 514.79,-559"/>
</g>
<!-- Node28 -->
<g id="node28" class="node">
<title>Node28</title>
<g id="a_node28"><a xlink:href="classOPOS6UL__RobotExtended.html#a0a997f7fd88abac1efe0083fce633649" target="_top" xlink:title="Arrête toutes les actions supplémentaires (capteurs, LEDs, servos).">
<polygon fill="white" stroke="black" points="340,-589.5 340,-619.5 482,-619.5 482,-589.5 340,-589.5"/>
<text text-anchor="start" x="348" y="-607.5" font-family="Helvetica,sans-Serif" font-size="10.00">OPOS6UL_RobotExtended</text>
<text text-anchor="middle" x="411" y="-596.5" font-family="Helvetica,sans-Serif" font-size="10.00">::stopExtraActions</text>
</a>
</g>
</g>
<!-- Node26&#45;&gt;Node28 -->
<g id="edge43" class="edge">
<title>Node26&#45;&gt;Node28</title>
<path fill="none" stroke="midnightblue" d="M531.43,-573.12C511.02,-578.48 488.8,-584.32 469.12,-589.49"/>
<polygon fill="midnightblue" stroke="midnightblue" points="532.49,-576.46 541.28,-570.53 530.72,-569.69 532.49,-576.46"/>
</g>
<!-- Node28&#45;&gt;Node25 -->
<g id="edge44" class="edge">
<title>Node28&#45;&gt;Node25</title>
<path fill="none" stroke="midnightblue" d="M329.97,-614.15C319,-615.47 307.81,-616.82 297.05,-618.12"/>
<polygon fill="midnightblue" stroke="midnightblue" points="330.45,-617.61 339.96,-612.94 329.62,-610.66 330.45,-617.61"/>
</g>
<!-- Node30 -->
<g id="node30" class="node">
<title>Node30</title>
<g id="a_node30"><a xlink:href="classOPOS6UL__ActionsExtended.html#aced00f2c03b0aa9b9eda54e6874bac75" target="_top" xlink:title=" ">
<polygon fill="white" stroke="black" points="710,-49.5 710,-79.5 865,-79.5 865,-49.5 710,-49.5"/>
<text text-anchor="start" x="718" y="-67.5" font-family="Helvetica,sans-Serif" font-size="10.00">OPOS6UL_ActionsExtended</text>
<text text-anchor="middle" x="787.5" y="-56.5" font-family="Helvetica,sans-Serif" font-size="10.00">::OPOS6UL_ActionsExtended</text>
</a>
</g>
</g>
<!-- Node29&#45;&gt;Node30 -->
<g id="edge48" class="edge">
<title>Node29&#45;&gt;Node30</title>
<path fill="none" stroke="midnightblue" d="M954.94,-278.2C946.45,-233.43 922.56,-140.15 865,-88.5 861.17,-85.06 856.84,-82.11 852.25,-79.59"/>
<polygon fill="midnightblue" stroke="midnightblue" points="951.53,-279 956.74,-288.23 958.42,-277.77 951.53,-279"/>
</g>
</g>
</svg>
