<?xml version="1.0" encoding="UTF-8" standalone="no"?>
<!DOCTYPE svg PUBLIC "-//W3C//DTD SVG 1.1//EN"
 "http://www.w3.org/Graphics/SVG/1.1/DTD/svg11.dtd">
<!-- Generated by graphviz version 2.43.0 (0)
 -->
<!-- Title: logs::Exception::message Pages: 1 -->
<svg width="652pt" height="236pt"
 viewBox="0.00 0.00 652.00 236.00" xmlns="http://www.w3.org/2000/svg" xmlns:xlink="http://www.w3.org/1999/xlink">
<g id="graph0" class="graph" transform="scale(1 1) rotate(0) translate(4 232)">
<title>logs::Exception::message</title>
<polygon fill="white" stroke="transparent" points="-4,4 -4,-232 648,-232 648,4 -4,4"/>
<!-- Node1 -->
<g id="node1" class="node">
<title>Node1</title>
<g id="a_node1"><a xlink:title=" ">
<polygon fill="#bfbfbf" stroke="black" points="503,-132.5 503,-151.5 644,-151.5 644,-132.5 503,-132.5"/>
<text text-anchor="middle" x="573.5" y="-139.5" font-family="Helvetica,sans-Serif" font-size="10.00">logs::Exception::message</text>
</a>
</g>
</g>
<!-- Node2 -->
<g id="node2" class="node">
<title>Node2</title>
<g id="a_node2"><a xlink:href="classlogs_1_1Exception.html#a20eeb08301fc02866e2ab24ddd4735f1" target="_top" xlink:title=" ">
<polygon fill="white" stroke="black" points="326,-208.5 326,-227.5 467,-227.5 467,-208.5 326,-208.5"/>
<text text-anchor="middle" x="396.5" y="-215.5" font-family="Helvetica,sans-Serif" font-size="10.00">logs::Exception::message</text>
</a>
</g>
</g>
<!-- Node1&#45;&gt;Node2 -->
<g id="edge1" class="edge">
<title>Node1&#45;&gt;Node2</title>
<path fill="none" stroke="midnightblue" d="M545.91,-156.26C524.83,-167.29 494.46,-182.55 467,-194 454.39,-199.26 440.18,-204.31 427.91,-208.42"/>
<polygon fill="midnightblue" stroke="midnightblue" points="547.68,-159.29 554.9,-151.53 544.42,-153.09 547.68,-159.29"/>
</g>
<!-- Node3 -->
<g id="node3" class="node">
<title>Node3</title>
<g id="a_node3"><a xlink:href="classtest_1_1ExceptionTest.html#a3f0afef54182039a5395c26f9cf3c0f5" target="_top" xlink:title="Vérifie la construction et l&#39;accès au message.">
<polygon fill="white" stroke="black" points="158,-176 158,-206 277,-206 277,-176 158,-176"/>
<text text-anchor="start" x="166" y="-194" font-family="Helvetica,sans-Serif" font-size="10.00">test::ExceptionTest</text>
<text text-anchor="middle" x="217.5" y="-183" font-family="Helvetica,sans-Serif" font-size="10.00">::testMessageAccess</text>
</a>
</g>
</g>
<!-- Node1&#45;&gt;Node3 -->
<g id="edge2" class="edge">
<title>Node1&#45;&gt;Node3</title>
<path fill="none" stroke="midnightblue" d="M493.54,-152.93C427.96,-162.01 336.16,-174.71 277.01,-182.9"/>
<polygon fill="midnightblue" stroke="midnightblue" points="494.4,-156.34 503.83,-151.51 493.44,-149.41 494.4,-156.34"/>
</g>
<!-- Node5 -->
<g id="node5" class="node">
<title>Node5</title>
<g id="a_node5"><a xlink:href="classtest_1_1ExceptionTest.html#acc60b0b80f2693be115f8a8673136974" target="_top" xlink:title="Vérifie la modification du message.">
<polygon fill="white" stroke="black" points="145,-127 145,-157 290,-157 290,-127 145,-127"/>
<text text-anchor="start" x="153" y="-145" font-family="Helvetica,sans-Serif" font-size="10.00">test::ExceptionTest</text>
<text text-anchor="middle" x="217.5" y="-134" font-family="Helvetica,sans-Serif" font-size="10.00">::testMessageModification</text>
</a>
</g>
</g>
<!-- Node1&#45;&gt;Node5 -->
<g id="edge4" class="edge">
<title>Node1&#45;&gt;Node5</title>
<path fill="none" stroke="midnightblue" d="M492.67,-142C431.89,-142 348.98,-142 290.29,-142"/>
<polygon fill="midnightblue" stroke="midnightblue" points="492.98,-145.5 502.98,-142 492.98,-138.5 492.98,-145.5"/>
</g>
<!-- Node6 -->
<g id="node6" class="node">
<title>Node6</title>
<g id="a_node6"><a xlink:href="classtest_1_1ExceptionTest.html#a55352d8aebb9ae852225016aa07dfd22" target="_top" xlink:title="Vérifie le throw/catch via std::exception.">
<polygon fill="white" stroke="black" points="342,-83 342,-113 451,-113 451,-83 342,-83"/>
<text text-anchor="start" x="350" y="-101" font-family="Helvetica,sans-Serif" font-size="10.00">test::ExceptionTest</text>
<text text-anchor="middle" x="396.5" y="-90" font-family="Helvetica,sans-Serif" font-size="10.00">::testThrowCatch</text>
</a>
</g>
</g>
<!-- Node1&#45;&gt;Node6 -->
<g id="edge6" class="edge">
<title>Node1&#45;&gt;Node6</title>
<path fill="none" stroke="midnightblue" d="M524.77,-130C502.05,-124.29 474.79,-117.43 451.33,-111.54"/>
<polygon fill="midnightblue" stroke="midnightblue" points="523.98,-133.41 534.53,-132.45 525.68,-126.62 523.98,-133.41"/>
</g>
<!-- Node7 -->
<g id="node7" class="node">
<title>Node7</title>
<g id="a_node7"><a xlink:href="classlogs_1_1Exception.html#a5469d6aa72cc6fe019eae6448880e423" target="_top" xlink:title=" ">
<polygon fill="white" stroke="black" points="336,-44.5 336,-63.5 457,-63.5 457,-44.5 336,-44.5"/>
<text text-anchor="middle" x="396.5" y="-51.5" font-family="Helvetica,sans-Serif" font-size="10.00">logs::Exception::what</text>
</a>
</g>
</g>
<!-- Node1&#45;&gt;Node7 -->
<g id="edge8" class="edge">
<title>Node1&#45;&gt;Node7</title>
<path fill="none" stroke="midnightblue" d="M551.95,-126.15C531.41,-110.96 498.45,-88.29 467,-74 457.97,-69.9 447.89,-66.42 438.28,-63.58"/>
<polygon fill="midnightblue" stroke="midnightblue" points="550.1,-129.14 560.2,-132.35 554.31,-123.55 550.1,-129.14"/>
</g>
<!-- Node4 -->
<g id="node4" class="node">
<title>Node4</title>
<g id="a_node4"><a xlink:href="classtest_1_1ExceptionTest.html#aa48d63f407b2901f8b3a160cfbb1bfcd" target="_top" xlink:title="Execute les tests associés à la classe.">
<polygon fill="white" stroke="black" points="0,-105 0,-135 109,-135 109,-105 0,-105"/>
<text text-anchor="start" x="8" y="-123" font-family="Helvetica,sans-Serif" font-size="10.00">test::ExceptionTest</text>
<text text-anchor="middle" x="54.5" y="-112" font-family="Helvetica,sans-Serif" font-size="10.00">::suite</text>
</a>
</g>
</g>
<!-- Node3&#45;&gt;Node4 -->
<g id="edge3" class="edge">
<title>Node3&#45;&gt;Node4</title>
<path fill="none" stroke="midnightblue" d="M158.53,-172.42C153.92,-170.68 149.36,-168.86 145,-167 123.05,-157.62 99.16,-144.95 81.59,-135.12"/>
<polygon fill="midnightblue" stroke="midnightblue" points="157.44,-175.75 168.03,-175.9 159.84,-169.18 157.44,-175.75"/>
</g>
<!-- Node5&#45;&gt;Node4 -->
<g id="edge5" class="edge">
<title>Node5&#45;&gt;Node4</title>
<path fill="none" stroke="midnightblue" d="M134.84,-130.84C126.23,-129.66 117.63,-128.49 109.44,-127.37"/>
<polygon fill="midnightblue" stroke="midnightblue" points="134.56,-134.34 144.95,-132.22 135.51,-127.4 134.56,-134.34"/>
</g>
<!-- Node6&#45;&gt;Node4 -->
<g id="edge7" class="edge">
<title>Node6&#45;&gt;Node4</title>
<path fill="none" stroke="midnightblue" d="M331.62,-102.13C267.38,-106.29 169.45,-112.63 109.12,-116.53"/>
<polygon fill="midnightblue" stroke="midnightblue" points="331.87,-105.62 341.63,-101.49 331.42,-98.64 331.87,-105.62"/>
</g>
<!-- Node8 -->
<g id="node8" class="node">
<title>Node8</title>
<g id="a_node8"><a xlink:href="classUnitTestSuite.html#af7b586b2771e5b876628be90e33aba5e" target="_top" xlink:title="Execution de tous les tests.">
<polygon fill="white" stroke="black" points="166,-0.5 166,-19.5 269,-19.5 269,-0.5 166,-0.5"/>
<text text-anchor="middle" x="217.5" y="-7.5" font-family="Helvetica,sans-Serif" font-size="10.00">UnitTestSuite::run</text>
</a>
</g>
</g>
<!-- Node7&#45;&gt;Node8 -->
<g id="edge9" class="edge">
<title>Node7&#45;&gt;Node8</title>
<path fill="none" stroke="midnightblue" d="M347.35,-42.03C318.9,-34.96 283.37,-26.13 256.83,-19.53"/>
<polygon fill="midnightblue" stroke="midnightblue" points="346.54,-45.44 357.09,-44.45 348.23,-38.64 346.54,-45.44"/>
</g>
<!-- Node10 -->
<g id="node10" class="node">
<title>Node10</title>
<g id="a_node10"><a xlink:href="classtest_1_1ExceptionTest.html#a6bd64d944b696827c44569abf466023c" target="_top" xlink:title="Vérifie what() retourne le bon message.">
<polygon fill="white" stroke="black" points="163,-39 163,-69 272,-69 272,-39 163,-39"/>
<text text-anchor="start" x="171" y="-57" font-family="Helvetica,sans-Serif" font-size="10.00">test::ExceptionTest</text>
<text text-anchor="middle" x="217.5" y="-46" font-family="Helvetica,sans-Serif" font-size="10.00">::testWhat</text>
</a>
</g>
</g>
<!-- Node7&#45;&gt;Node10 -->
<g id="edge11" class="edge">
<title>Node7&#45;&gt;Node10</title>
<path fill="none" stroke="midnightblue" d="M325.29,-54C307.59,-54 288.87,-54 272.12,-54"/>
<polygon fill="midnightblue" stroke="midnightblue" points="325.58,-57.5 335.58,-54 325.58,-50.5 325.58,-57.5"/>
</g>
<!-- Node9 -->
<g id="node9" class="node">
<title>Node9</title>
<g id="a_node9"><a xlink:href="test_2bench_2Main_8cpp.html#a2c3f6775325c30275d11c6abee2db6a0" target="_top" xlink:title=" ">
<polygon fill="white" stroke="black" points="34,-0.5 34,-19.5 75,-19.5 75,-0.5 34,-0.5"/>
<text text-anchor="middle" x="54.5" y="-7.5" font-family="Helvetica,sans-Serif" font-size="10.00">main</text>
</a>
</g>
</g>
<!-- Node8&#45;&gt;Node9 -->
<g id="edge10" class="edge">
<title>Node8&#45;&gt;Node9</title>
<path fill="none" stroke="midnightblue" d="M155.25,-10C126.78,-10 94.89,-10 75,-10"/>
<polygon fill="midnightblue" stroke="midnightblue" points="155.56,-13.5 165.56,-10 155.56,-6.5 155.56,-13.5"/>
</g>
<!-- Node10&#45;&gt;Node4 -->
<g id="edge12" class="edge">
<title>Node10&#45;&gt;Node4</title>
<path fill="none" stroke="midnightblue" d="M170.03,-73.05C145.31,-83.18 115.34,-95.47 92.26,-104.93"/>
<polygon fill="midnightblue" stroke="midnightblue" points="171.64,-76.17 179.56,-69.14 168.98,-69.7 171.64,-76.17"/>
</g>
</g>
</svg>
