<?xml version="1.0" encoding="UTF-8" standalone="no"?>
<!DOCTYPE svg PUBLIC "-//W3C//DTD SVG 1.1//EN"
 "http://www.w3.org/Graphics/SVG/1.1/DTD/svg11.dtd">
<!-- Generated by graphviz version 2.43.0 (0)
 -->
<!-- Title: ActionManagerTimer::debugPTimers Pages: 1 -->
<svg width="672pt" height="328pt"
 viewBox="0.00 0.00 672.00 328.00" xmlns="http://www.w3.org/2000/svg" xmlns:xlink="http://www.w3.org/1999/xlink">
<g id="graph0" class="graph" transform="scale(1 1) rotate(0) translate(4 324)">
<title>ActionManagerTimer::debugPTimers</title>
<polygon fill="white" stroke="transparent" points="-4,4 -4,-324 668,-324 668,4 -4,4"/>
<!-- Node1 -->
<g id="node1" class="node">
<title>Node1</title>
<g id="a_node1"><a xlink:title="Affiche via le logger les timers posix en cours et en attente.">
<polygon fill="#bfbfbf" stroke="black" points="0,-150.5 0,-180.5 119,-180.5 119,-150.5 0,-150.5"/>
<text text-anchor="start" x="8" y="-168.5" font-family="Helvetica,sans-Serif" font-size="10.00">ActionManagerTimer</text>
<text text-anchor="middle" x="59.5" y="-157.5" font-family="Helvetica,sans-Serif" font-size="10.00">::debugPTimers</text>
</a>
</g>
</g>
<!-- Node2 -->
<g id="node2" class="node">
<title>Node2</title>
<g id="a_node2"><a xlink:href="classutils_1_1PointerList.html#a501664b90309db885554d35e89739681" target="_top" xlink:title="Returns a read/write iterator that points to the first element in the list. Iteration is done in ordi...">
<polygon fill="white" stroke="black" points="167,-289.5 167,-319.5 262,-319.5 262,-289.5 167,-289.5"/>
<text text-anchor="start" x="175" y="-307.5" font-family="Helvetica,sans-Serif" font-size="10.00">utils::PointerList</text>
<text text-anchor="middle" x="214.5" y="-296.5" font-family="Helvetica,sans-Serif" font-size="10.00">::begin</text>
</a>
</g>
</g>
<!-- Node1&#45;&gt;Node2 -->
<g id="edge1" class="edge">
<title>Node1&#45;&gt;Node2</title>
<path fill="none" stroke="midnightblue" d="M70.63,-180.51C86.5,-203.14 119.14,-246.37 155,-274.5 159.6,-278.11 164.71,-281.48 169.93,-284.55"/>
<polygon fill="midnightblue" stroke="midnightblue" points="168.31,-287.66 178.76,-289.45 171.71,-281.54 168.31,-287.66"/>
</g>
<!-- Node3 -->
<g id="node3" class="node">
<title>Node3</title>
<g id="a_node3"><a xlink:href="classlogs_1_1Logger.html#a7dffc8f610014ec59b63392da16140e4" target="_top" xlink:title="Trace un message de niveau DEBUG.">
<polygon fill="white" stroke="black" points="338,-251 338,-270 450,-270 450,-251 338,-251"/>
<text text-anchor="middle" x="394" y="-258" font-family="Helvetica,sans-Serif" font-size="10.00">logs::Logger::debug</text>
</a>
</g>
</g>
<!-- Node1&#45;&gt;Node3 -->
<g id="edge2" class="edge">
<title>Node1&#45;&gt;Node3</title>
<path fill="none" stroke="midnightblue" d="M75.25,-180.76C92.59,-197.62 123.08,-224.03 155,-236.5 210.43,-258.16 278.39,-263.09 327.47,-263.23"/>
<polygon fill="midnightblue" stroke="midnightblue" points="327.66,-266.73 337.65,-263.19 327.63,-259.73 327.66,-266.73"/>
</g>
<!-- Node5 -->
<g id="node5" class="node">
<title>Node5</title>
<g id="a_node5"><a xlink:href="classutils_1_1PointerList.html#a9607cdd93b715a838e015452a49f61d5" target="_top" xlink:title="Returns a read/write iterator that points one past the last element in the list. Iteration is done in...">
<polygon fill="white" stroke="black" points="155,-99 155,-118 274,-118 274,-99 155,-99"/>
<text text-anchor="middle" x="214.5" y="-106" font-family="Helvetica,sans-Serif" font-size="10.00">utils::PointerList::end</text>
</a>
</g>
</g>
<!-- Node1&#45;&gt;Node5 -->
<g id="edge4" class="edge">
<title>Node1&#45;&gt;Node5</title>
<path fill="none" stroke="midnightblue" d="M101.1,-150.37C125.11,-141.43 155.23,-130.21 178.24,-121.63"/>
<polygon fill="midnightblue" stroke="midnightblue" points="179.48,-124.91 187.63,-118.14 177.04,-118.35 179.48,-124.91"/>
</g>
<!-- Node6 -->
<g id="node6" class="node">
<title>Node6</title>
<g id="a_node6"><a xlink:href="namespacelogs.html#ac6f325c6cfe6189bc8e243daa184453b" target="_top" xlink:title="Cette méthode permet de finir les flux de construction par la notation.">
<polygon fill="white" stroke="black" points="184,-175 184,-194 245,-194 245,-175 184,-175"/>
<text text-anchor="middle" x="214.5" y="-182" font-family="Helvetica,sans-Serif" font-size="10.00">logs::end</text>
</a>
</g>
</g>
<!-- Node1&#45;&gt;Node6 -->
<g id="edge5" class="edge">
<title>Node1&#45;&gt;Node6</title>
<path fill="none" stroke="midnightblue" d="M119.22,-172.79C137.5,-175.06 157.22,-177.51 173.87,-179.58"/>
<polygon fill="midnightblue" stroke="midnightblue" points="173.45,-183.05 183.81,-180.81 174.31,-176.11 173.45,-183.05"/>
</g>
<!-- Node8 -->
<g id="node8" class="node">
<title>Node8</title>
<g id="a_node8"><a xlink:href="classutils_1_1Mutex.html#aa584b418a5ef484f76b93e361a1d7e32" target="_top" xlink:title="Verrouille le mutex. Cette méthode doit être appelée avant d&#39;utiliser la ressource associée....">
<polygon fill="white" stroke="black" points="538.5,-204 538.5,-223 639.5,-223 639.5,-204 538.5,-204"/>
<text text-anchor="middle" x="589" y="-211" font-family="Helvetica,sans-Serif" font-size="10.00">utils::Mutex::lock</text>
</a>
</g>
</g>
<!-- Node1&#45;&gt;Node8 -->
<g id="edge10" class="edge">
<title>Node1&#45;&gt;Node8</title>
<path fill="none" stroke="midnightblue" d="M90.28,-180.69C108.47,-189.15 132.48,-198.87 155,-203.5 285.98,-230.42 443.93,-224.77 528.18,-218.8"/>
<polygon fill="midnightblue" stroke="midnightblue" points="528.61,-222.28 538.33,-218.06 528.1,-215.3 528.61,-222.28"/>
</g>
<!-- Node9 -->
<g id="node9" class="node">
<title>Node9</title>
<g id="a_node9"><a xlink:href="classutils_1_1Mutex.html#a59b2079dc7f803d49f78ac9c04406cd3" target="_top" xlink:title="Déverrouille le mutex. Cette méthode doit être appelée après avoir utiliser la ressource associée.">
<polygon fill="white" stroke="black" points="532.5,-147 532.5,-166 645.5,-166 645.5,-147 532.5,-147"/>
<text text-anchor="middle" x="589" y="-154" font-family="Helvetica,sans-Serif" font-size="10.00">utils::Mutex::unlock</text>
</a>
</g>
</g>
<!-- Node1&#45;&gt;Node9 -->
<g id="edge17" class="edge">
<title>Node1&#45;&gt;Node9</title>
<path fill="none" stroke="midnightblue" d="M119.22,-164.5C218.37,-162.81 418.29,-159.4 522.09,-157.62"/>
<polygon fill="midnightblue" stroke="midnightblue" points="522.19,-161.12 532.13,-157.45 522.07,-154.12 522.19,-161.12"/>
</g>
<!-- Node10 -->
<g id="node10" class="node">
<title>Node10</title>
<g id="a_node10"><a xlink:href="classActionManagerTimer.html#a280846361e5c7e0ebe57972755841c2b" target="_top" xlink:title=" ">
<polygon fill="white" stroke="black" points="155,-49.5 155,-79.5 274,-79.5 274,-49.5 155,-49.5"/>
<text text-anchor="start" x="163" y="-67.5" font-family="Helvetica,sans-Serif" font-size="10.00">ActionManagerTimer</text>
<text text-anchor="middle" x="214.5" y="-56.5" font-family="Helvetica,sans-Serif" font-size="10.00">::logger</text>
</a>
</g>
</g>
<!-- Node1&#45;&gt;Node10 -->
<g id="edge11" class="edge">
<title>Node1&#45;&gt;Node10</title>
<path fill="none" stroke="midnightblue" d="M76.54,-150.29C94.57,-133.78 125.21,-107.38 155,-89.5 158.17,-87.6 161.51,-85.77 164.92,-84.02"/>
<polygon fill="midnightblue" stroke="midnightblue" points="166.58,-87.1 174.06,-79.6 163.53,-80.8 166.58,-87.1"/>
</g>
<!-- Node15 -->
<g id="node15" class="node">
<title>Node15</title>
<g id="a_node15"><a xlink:href="classITimerPosixListener.html#a56abc90e01e315320b855399b2c0096e" target="_top" xlink:title="Getter sur les infos permettant d&#39;identifier le timer.">
<polygon fill="white" stroke="black" points="158,-0.5 158,-30.5 271,-30.5 271,-0.5 158,-0.5"/>
<text text-anchor="start" x="166" y="-18.5" font-family="Helvetica,sans-Serif" font-size="10.00">ITimerPosixListener</text>
<text text-anchor="middle" x="214.5" y="-7.5" font-family="Helvetica,sans-Serif" font-size="10.00">::name</text>
</a>
</g>
</g>
<!-- Node1&#45;&gt;Node15 -->
<g id="edge16" class="edge">
<title>Node1&#45;&gt;Node15</title>
<path fill="none" stroke="midnightblue" d="M68.35,-150.21C82.43,-124.16 114.34,-70.95 155,-39.5 156.76,-38.14 158.62,-36.84 160.53,-35.6"/>
<polygon fill="midnightblue" stroke="midnightblue" points="162.33,-38.6 169.26,-30.59 158.84,-32.54 162.33,-38.6"/>
</g>
<!-- Node4 -->
<g id="node4" class="node">
<title>Node4</title>
<g id="a_node4"><a xlink:href="classlogs_1_1Logger.html#afa535aaf4891e02c4ff7f84d372b5b1b" target="_top" xlink:title="Méthode générique de trace d&#39;un message.">
<polygon fill="white" stroke="black" points="514,-251 514,-270 664,-270 664,-251 514,-251"/>
<text text-anchor="middle" x="589" y="-258" font-family="Helvetica,sans-Serif" font-size="10.00">logs::Logger::writeMessage</text>
</a>
</g>
</g>
<!-- Node3&#45;&gt;Node4 -->
<g id="edge3" class="edge">
<title>Node3&#45;&gt;Node4</title>
<path fill="none" stroke="midnightblue" d="M450.05,-260.5C466.78,-260.5 485.57,-260.5 503.76,-260.5"/>
<polygon fill="midnightblue" stroke="midnightblue" points="503.79,-264 513.79,-260.5 503.79,-257 503.79,-264"/>
</g>
<!-- Node7 -->
<g id="node7" class="node">
<title>Node7</title>
<g id="a_node7"><a xlink:href="classlogs_1_1Logger_1_1LoggerBuffer.html#a0e4fd77693fd899ec1b0670354f93a02" target="_top" xlink:title="Cette méthode valide le message en cours de construction et le transmet au Logger de référence.">
<polygon fill="white" stroke="black" points="310,-175 310,-194 478,-194 478,-175 310,-175"/>
<text text-anchor="middle" x="394" y="-182" font-family="Helvetica,sans-Serif" font-size="10.00">logs::Logger::LoggerBuffer::end</text>
</a>
</g>
</g>
<!-- Node6&#45;&gt;Node7 -->
<g id="edge6" class="edge">
<title>Node6&#45;&gt;Node7</title>
<path fill="none" stroke="midnightblue" d="M245.21,-184.5C260.49,-184.5 280.05,-184.5 299.89,-184.5"/>
<polygon fill="midnightblue" stroke="midnightblue" points="299.96,-188 309.96,-184.5 299.96,-181 299.96,-188"/>
</g>
<!-- Node7&#45;&gt;Node4 -->
<g id="edge9" class="edge">
<title>Node7&#45;&gt;Node4</title>
<path fill="none" stroke="midnightblue" d="M418.2,-194.03C442.14,-203.83 480.59,-219.44 514,-232.5 526.62,-237.43 540.5,-242.72 552.8,-247.36"/>
<polygon fill="midnightblue" stroke="midnightblue" points="551.67,-250.67 562.26,-250.92 554.13,-244.12 551.67,-250.67"/>
</g>
<!-- Node7&#45;&gt;Node8 -->
<g id="edge7" class="edge">
<title>Node7&#45;&gt;Node8</title>
<path fill="none" stroke="midnightblue" d="M458.46,-194.04C480.95,-197.41 506.15,-201.2 528.31,-204.53"/>
<polygon fill="midnightblue" stroke="midnightblue" points="527.85,-208 538.26,-206.03 528.89,-201.08 527.85,-208"/>
</g>
<!-- Node7&#45;&gt;Node9 -->
<g id="edge8" class="edge">
<title>Node7&#45;&gt;Node9</title>
<path fill="none" stroke="midnightblue" d="M460.61,-174.98C480.52,-172.09 502.4,-168.92 522.31,-166.03"/>
<polygon fill="midnightblue" stroke="midnightblue" points="522.83,-169.49 532.22,-164.59 521.82,-162.56 522.83,-169.49"/>
</g>
<!-- Node11 -->
<g id="node11" class="node">
<title>Node11</title>
<g id="a_node11"><a xlink:href="classlogs_1_1LoggerFactory.html#a82585b5de73e471e06cafdccc3b3721e" target="_top" xlink:title="Cette méthode statique retourne un Logger en fonction de son nom.">
<polygon fill="white" stroke="black" points="338.5,-49.5 338.5,-79.5 449.5,-79.5 449.5,-49.5 338.5,-49.5"/>
<text text-anchor="start" x="346.5" y="-67.5" font-family="Helvetica,sans-Serif" font-size="10.00">logs::LoggerFactory</text>
<text text-anchor="middle" x="394" y="-56.5" font-family="Helvetica,sans-Serif" font-size="10.00">::logger</text>
</a>
</g>
</g>
<!-- Node10&#45;&gt;Node11 -->
<g id="edge12" class="edge">
<title>Node10&#45;&gt;Node11</title>
<path fill="none" stroke="midnightblue" d="M274.11,-64.5C291.42,-64.5 310.46,-64.5 328.13,-64.5"/>
<polygon fill="midnightblue" stroke="midnightblue" points="328.36,-68 338.36,-64.5 328.36,-61 328.36,-68"/>
</g>
<!-- Node12 -->
<g id="node12" class="node">
<title>Node12</title>
<g id="a_node12"><a xlink:href="classlogs_1_1LoggerFactory.html#ac89f19c0ffd71aa8cdc1c2d44c03809e" target="_top" xlink:title="Cette méthode ajoute un appender au système.">
<polygon fill="white" stroke="black" points="522,-99 522,-118 656,-118 656,-99 522,-99"/>
<text text-anchor="middle" x="589" y="-106" font-family="Helvetica,sans-Serif" font-size="10.00">logs::LoggerFactory::add</text>
</a>
</g>
</g>
<!-- Node11&#45;&gt;Node12 -->
<g id="edge13" class="edge">
<title>Node11&#45;&gt;Node12</title>
<path fill="none" stroke="midnightblue" d="M449.53,-76.93C476.71,-83.13 509.41,-90.58 536.21,-96.69"/>
<polygon fill="midnightblue" stroke="midnightblue" points="535.64,-100.15 546.16,-98.96 537.19,-93.33 535.64,-100.15"/>
</g>
<!-- Node13 -->
<g id="node13" class="node">
<title>Node13</title>
<g id="a_node13"><a xlink:href="classlogs_1_1LoggerFactory.html#a90478b91d7af2ef8841ded21e3521f69" target="_top" xlink:title="Cette méthode statique retourne l&#39;instance unique de la classe LoggerFactory.">
<polygon fill="white" stroke="black" points="533.5,-49.5 533.5,-79.5 644.5,-79.5 644.5,-49.5 533.5,-49.5"/>
<text text-anchor="start" x="541.5" y="-67.5" font-family="Helvetica,sans-Serif" font-size="10.00">logs::LoggerFactory</text>
<text text-anchor="middle" x="589" y="-56.5" font-family="Helvetica,sans-Serif" font-size="10.00">::instance</text>
</a>
</g>
</g>
<!-- Node11&#45;&gt;Node13 -->
<g id="edge14" class="edge">
<title>Node11&#45;&gt;Node13</title>
<path fill="none" stroke="midnightblue" d="M449.53,-64.5C472.45,-64.5 499.3,-64.5 523.22,-64.5"/>
<polygon fill="midnightblue" stroke="midnightblue" points="523.27,-68 533.27,-64.5 523.27,-61 523.27,-68"/>
</g>
<!-- Node14 -->
<g id="node14" class="node">
<title>Node14</title>
<g id="a_node14"><a xlink:href="classlogs_1_1LoggerFactory.html#a212aa623f4b6bee12cb39e8017dde670" target="_top" xlink:title="Cette méthode retourne le Logger principal qui définit le niveau de trace par défaut.">
<polygon fill="white" stroke="black" points="533.5,-0.5 533.5,-30.5 644.5,-30.5 644.5,-0.5 533.5,-0.5"/>
<text text-anchor="start" x="541.5" y="-18.5" font-family="Helvetica,sans-Serif" font-size="10.00">logs::LoggerFactory</text>
<text text-anchor="middle" x="589" y="-7.5" font-family="Helvetica,sans-Serif" font-size="10.00">::rootLogger</text>
</a>
</g>
</g>
<!-- Node11&#45;&gt;Node14 -->
<g id="edge15" class="edge">
<title>Node11&#45;&gt;Node14</title>
<path fill="none" stroke="midnightblue" d="M449.53,-50.66C472.56,-44.81 499.54,-37.96 523.54,-31.87"/>
<polygon fill="midnightblue" stroke="midnightblue" points="524.44,-35.25 533.27,-29.4 522.71,-28.46 524.44,-35.25"/>
</g>
</g>
</svg>
