<?xml version="1.0" encoding="UTF-8" standalone="no"?>
<!DOCTYPE svg PUBLIC "-//W3C//DTD SVG 1.1//EN"
 "http://www.w3.org/Graphics/SVG/1.1/DTD/svg11.dtd">
<!-- Generated by graphviz version 2.43.0 (0)
 -->
<!-- Title: Robot::svgw Pages: 1 -->
<svg width="1041pt" height="574pt"
 viewBox="0.00 0.00 1041.00 573.72" xmlns="http://www.w3.org/2000/svg" xmlns:xlink="http://www.w3.org/1999/xlink">
<g id="graph0" class="graph" transform="scale(1 1) rotate(0) translate(4 569.72)">
<title>Robot::svgw</title>
<polygon fill="white" stroke="transparent" points="-4,4 -4,-569.72 1037,-569.72 1037,4 -4,4"/>
<!-- Node1 -->
<g id="node1" class="node">
<title>Node1</title>
<g id="a_node1"><a xlink:title=" ">
<polygon fill="#bfbfbf" stroke="black" points="956,-299.22 956,-318.22 1033,-318.22 1033,-299.22 956,-299.22"/>
<text text-anchor="middle" x="994.5" y="-306.22" font-family="Helvetica,sans-Serif" font-size="10.00">Robot::svgw</text>
</a>
</g>
</g>
<!-- Node2 -->
<g id="node2" class="node">
<title>Node2</title>
<g id="a_node2"><a xlink:href="classSensors.html#a7c1612f78d78562aa12322638a74140f" target="_top" xlink:title=" ">
<polygon fill="white" stroke="black" points="808.5,-527.22 808.5,-546.22 892.5,-546.22 892.5,-527.22 808.5,-527.22"/>
<text text-anchor="middle" x="850.5" y="-534.22" font-family="Helvetica,sans-Serif" font-size="10.00">Sensors::back</text>
</a>
</g>
</g>
<!-- Node1&#45;&gt;Node2 -->
<g id="edge1" class="edge">
<title>Node1&#45;&gt;Node2</title>
<path fill="none" stroke="midnightblue" d="M992.43,-328.38C989.1,-369.68 975.48,-465.86 920,-517.72 912.52,-524.71 902.68,-529.17 892.81,-532"/>
<polygon fill="midnightblue" stroke="midnightblue" points="995.93,-328.49 993.12,-318.28 988.95,-328.01 995.93,-328.49"/>
</g>
<!-- Node5 -->
<g id="node5" class="node">
<title>Node5</title>
<g id="a_node5"><a xlink:href="classIAbyPath.html#a36763cca0b7005fddde021c35f054dc7" target="_top" xlink:title=" ">
<polygon fill="white" stroke="black" points="588,-470.22 588,-489.22 745,-489.22 745,-470.22 588,-470.22"/>
<text text-anchor="middle" x="666.5" y="-477.22" font-family="Helvetica,sans-Serif" font-size="10.00">IAbyPath::doPathBackwardTo</text>
</a>
</g>
</g>
<!-- Node1&#45;&gt;Node5 -->
<g id="edge4" class="edge">
<title>Node1&#45;&gt;Node5</title>
<path fill="none" stroke="midnightblue" d="M974.21,-325.07C959.75,-336.99 939.21,-353.17 920,-365.72 845.9,-414.11 827.55,-428.81 745,-460.72 735.44,-464.41 724.93,-467.56 714.82,-470.17"/>
<polygon fill="midnightblue" stroke="midnightblue" points="976.53,-327.7 981.97,-318.61 972.05,-322.32 976.53,-327.7"/>
</g>
<!-- Node8 -->
<g id="node8" class="node">
<title>Node8</title>
<g id="a_node8"><a xlink:href="classIAbyPath.html#ab1f1155d4a5565efa55a0c11b8a1abfa" target="_top" xlink:title=" ">
<polygon fill="white" stroke="black" points="592.5,-116.22 592.5,-135.22 740.5,-135.22 740.5,-116.22 592.5,-116.22"/>
<text text-anchor="middle" x="666.5" y="-123.22" font-family="Helvetica,sans-Serif" font-size="10.00">IAbyPath::doPathForwardTo</text>
</a>
</g>
</g>
<!-- Node1&#45;&gt;Node8 -->
<g id="edge7" class="edge">
<title>Node1&#45;&gt;Node8</title>
<path fill="none" stroke="midnightblue" d="M946.86,-296.5C884.78,-280.19 782.55,-253.17 781,-251.72 744.43,-217.36 781.94,-178.67 745,-144.72 740.82,-140.87 735.99,-137.77 730.82,-135.28"/>
<polygon fill="midnightblue" stroke="midnightblue" points="946.27,-299.96 956.83,-299.11 948.05,-293.19 946.27,-299.96"/>
</g>
<!-- Node16 -->
<g id="node16" class="node">
<title>Node16</title>
<g id="a_node16"><a xlink:href="classAsservEsialR.html#abfd3be9bde7bf8ae887688bf8bc0ca43" target="_top" xlink:title="Méthode virtuelle pure à implémenter dans les sous&#45;classes.">
<polygon fill="white" stroke="black" points="788.5,-337.22 788.5,-356.22 912.5,-356.22 912.5,-337.22 788.5,-337.22"/>
<text text-anchor="middle" x="850.5" y="-344.22" font-family="Helvetica,sans-Serif" font-size="10.00">AsservEsialR::execute</text>
</a>
</g>
</g>
<!-- Node1&#45;&gt;Node16 -->
<g id="edge16" class="edge">
<title>Node1&#45;&gt;Node16</title>
<path fill="none" stroke="midnightblue" d="M948.01,-320.89C928.37,-326.15 905.73,-332.2 887.32,-337.13"/>
<polygon fill="midnightblue" stroke="midnightblue" points="948.91,-324.27 957.67,-318.31 947.1,-317.51 948.91,-324.27"/>
</g>
<!-- Node17 -->
<g id="node17" class="node">
<title>Node17</title>
<g id="a_node17"><a xlink:href="classSensors.html#a6fde663a7fb649742b32c4c56e4b939c" target="_top" xlink:title=" ">
<polygon fill="white" stroke="black" points="808.5,-489.22 808.5,-508.22 892.5,-508.22 892.5,-489.22 808.5,-489.22"/>
<text text-anchor="middle" x="850.5" y="-496.22" font-family="Helvetica,sans-Serif" font-size="10.00">Sensors::front</text>
</a>
</g>
</g>
<!-- Node1&#45;&gt;Node17 -->
<g id="edge17" class="edge">
<title>Node1&#45;&gt;Node17</title>
<path fill="none" stroke="midnightblue" d="M985.04,-327.48C972.82,-353.49 948.53,-401.31 920,-436.72 903.09,-457.7 878.88,-477.85 864.22,-489.21"/>
<polygon fill="midnightblue" stroke="midnightblue" points="988.24,-328.9 989.25,-318.35 981.89,-325.96 988.24,-328.9"/>
</g>
<!-- Node18 -->
<g id="node18" class="node">
<title>Node18</title>
<g id="a_node18"><a xlink:href="classIAbyPath.html#a7677d8a2c19d0c55b7a2dc3682d5b516" target="_top" xlink:title=" ">
<polygon fill="white" stroke="black" points="188,-16.22 188,-35.22 323,-35.22 323,-16.22 188,-16.22"/>
<text text-anchor="middle" x="255.5" y="-23.22" font-family="Helvetica,sans-Serif" font-size="10.00">IAbyPath::ia_createZone</text>
</a>
</g>
</g>
<!-- Node1&#45;&gt;Node18 -->
<g id="edge20" class="edge">
<title>Node1&#45;&gt;Node18</title>
<path fill="none" stroke="midnightblue" d="M985.68,-289.35C974.07,-262.08 950.32,-211.69 920,-175.72 855.8,-99.57 838.65,-69.65 745,-35.72 594.27,18.9 399.84,-1.68 308.39,-16.19"/>
<polygon fill="midnightblue" stroke="midnightblue" points="982.58,-291.01 989.65,-298.9 989.05,-288.32 982.58,-291.01"/>
</g>
<!-- Node19 -->
<g id="node19" class="node">
<title>Node19</title>
<g id="a_node19"><a xlink:href="classIAbyZone.html#abeae91d56972242a6737e2cc55cf2f44" target="_top" xlink:title=" ">
<polygon fill="white" stroke="black" points="781,-223.22 781,-242.22 920,-242.22 920,-223.22 781,-223.22"/>
<text text-anchor="middle" x="850.5" y="-230.22" font-family="Helvetica,sans-Serif" font-size="10.00">IAbyZone::ia_createZone</text>
</a>
</g>
</g>
<!-- Node1&#45;&gt;Node19 -->
<g id="edge22" class="edge">
<title>Node1&#45;&gt;Node19</title>
<path fill="none" stroke="midnightblue" d="M974.12,-292.73C959.83,-281.53 939.56,-266.81 920,-256.72 908.91,-251 896.16,-246.11 884.68,-242.27"/>
<polygon fill="midnightblue" stroke="midnightblue" points="972.19,-295.67 982.18,-299.18 976.56,-290.2 972.19,-295.67"/>
</g>
<!-- Node20 -->
<g id="node20" class="node">
<title>Node20</title>
<g id="a_node20"><a xlink:href="classIAbyZone.html#a4267911cde72e6b03181cb8746cea638" target="_top" xlink:title=" ">
<polygon fill="white" stroke="black" points="791,-185.22 791,-204.22 910,-204.22 910,-185.22 791,-185.22"/>
<text text-anchor="middle" x="850.5" y="-192.22" font-family="Helvetica,sans-Serif" font-size="10.00">IAbyZone::ia_setPath</text>
</a>
</g>
</g>
<!-- Node1&#45;&gt;Node20 -->
<g id="edge23" class="edge">
<title>Node1&#45;&gt;Node20</title>
<path fill="none" stroke="midnightblue" d="M983.96,-290.11C971.94,-268.52 949.27,-233.38 920,-213.72 914.26,-209.86 907.76,-206.79 901.1,-204.33"/>
<polygon fill="midnightblue" stroke="midnightblue" points="980.91,-291.81 988.72,-298.97 987.07,-288.5 980.91,-291.81"/>
</g>
<!-- Node21 -->
<g id="node21" class="node">
<title>Node21</title>
<g id="a_node21"><a xlink:href="classRobot.html#ade84d9257e194f8b04cc9f5f97e184da" target="_top" xlink:title=" ">
<polygon fill="white" stroke="black" points="785.5,-299.22 785.5,-318.22 915.5,-318.22 915.5,-299.22 785.5,-299.22"/>
<text text-anchor="middle" x="850.5" y="-306.22" font-family="Helvetica,sans-Serif" font-size="10.00">Robot::svgPrintPosition</text>
</a>
</g>
</g>
<!-- Node1&#45;&gt;Node21 -->
<g id="edge24" class="edge">
<title>Node1&#45;&gt;Node21</title>
<path fill="none" stroke="midnightblue" d="M945.67,-308.72C936.05,-308.72 925.79,-308.72 915.72,-308.72"/>
<polygon fill="midnightblue" stroke="midnightblue" points="945.82,-312.22 955.82,-308.72 945.82,-305.22 945.82,-312.22"/>
</g>
<!-- Node3 -->
<g id="node3" class="node">
<title>Node3</title>
<g id="a_node3"><a xlink:href="classSensorsTimer.html#abc377178c2471f664b31658554963e83" target="_top" xlink:title="Actions à executer pour le timer.">
<polygon fill="white" stroke="black" points="601.5,-546.22 601.5,-565.22 731.5,-565.22 731.5,-546.22 601.5,-546.22"/>
<text text-anchor="middle" x="666.5" y="-553.22" font-family="Helvetica,sans-Serif" font-size="10.00">SensorsTimer::onTimer</text>
</a>
</g>
</g>
<!-- Node2&#45;&gt;Node3 -->
<g id="edge2" class="edge">
<title>Node2&#45;&gt;Node3</title>
<path fill="none" stroke="midnightblue" d="M798.08,-542.09C777.5,-544.23 753.56,-546.73 731.84,-549"/>
<polygon fill="midnightblue" stroke="midnightblue" points="798.62,-545.55 808.2,-541.03 797.89,-538.59 798.62,-545.55"/>
</g>
<!-- Node4 -->
<g id="node4" class="node">
<title>Node4</title>
<g id="a_node4"><a xlink:href="classO__SensorsTest.html#ae3b998034225e16586ded4ba3bd419e5" target="_top" xlink:title="Execute le test.">
<polygon fill="white" stroke="black" points="612,-508.22 612,-527.22 721,-527.22 721,-508.22 612,-508.22"/>
<text text-anchor="middle" x="666.5" y="-515.22" font-family="Helvetica,sans-Serif" font-size="10.00">O_SensorsTest::run</text>
</a>
</g>
</g>
<!-- Node2&#45;&gt;Node4 -->
<g id="edge3" class="edge">
<title>Node2&#45;&gt;Node4</title>
<path fill="none" stroke="midnightblue" d="M798.19,-531.36C774.12,-528.85 745.43,-525.85 721.08,-523.31"/>
<polygon fill="midnightblue" stroke="midnightblue" points="797.89,-534.85 808.2,-532.41 798.62,-527.89 797.89,-534.85"/>
</g>
<!-- Node6 -->
<g id="node6" class="node">
<title>Node6</title>
<g id="a_node6"><a xlink:href="classIAbyPath.html#acc586e1ba62ffb7a21087a5ca4d2f131" target="_top" xlink:title=" ">
<polygon fill="white" stroke="black" points="375,-394.22 375,-413.22 552,-413.22 552,-394.22 375,-394.22"/>
<text text-anchor="middle" x="463.5" y="-401.22" font-family="Helvetica,sans-Serif" font-size="10.00">IAbyPath::whileMoveBackwardTo</text>
</a>
</g>
</g>
<!-- Node5&#45;&gt;Node6 -->
<g id="edge5" class="edge">
<title>Node5&#45;&gt;Node6</title>
<path fill="none" stroke="midnightblue" d="M610.72,-467.69C603.02,-465.59 595.26,-463.26 588,-460.72 549.21,-447.15 506.1,-425.7 482.46,-413.34"/>
<polygon fill="midnightblue" stroke="midnightblue" points="609.84,-471.07 620.4,-470.21 611.61,-464.3 609.84,-471.07"/>
</g>
<!-- Node7 -->
<g id="node7" class="node">
<title>Node7</title>
<g id="a_node7"><a xlink:href="classIAbyPath.html#a9535c82f137778cc6cd4b159fe3d58ea" target="_top" xlink:title=" ">
<polygon fill="white" stroke="black" points="172,-371.72 172,-401.72 339,-401.72 339,-371.72 172,-371.72"/>
<text text-anchor="start" x="180" y="-389.72" font-family="Helvetica,sans-Serif" font-size="10.00">IAbyPath::whileMoveBackward</text>
<text text-anchor="middle" x="255.5" y="-378.72" font-family="Helvetica,sans-Serif" font-size="10.00">AndRotateTo</text>
</a>
</g>
</g>
<!-- Node6&#45;&gt;Node7 -->
<g id="edge6" class="edge">
<title>Node6&#45;&gt;Node7</title>
<path fill="none" stroke="midnightblue" d="M364.81,-395.66C356.23,-394.95 347.61,-394.24 339.17,-393.54"/>
<polygon fill="midnightblue" stroke="midnightblue" points="364.58,-399.15 374.84,-396.48 365.16,-392.17 364.58,-399.15"/>
</g>
<!-- Node9 -->
<g id="node9" class="node">
<title>Node9</title>
<g id="a_node9"><a xlink:href="classIAbyPath.html#ab95592ae87c3f666835d3fbdac8c5ffd" target="_top" xlink:title=" ">
<polygon fill="white" stroke="black" points="385.5,-78.72 385.5,-108.72 541.5,-108.72 541.5,-78.72 385.5,-78.72"/>
<text text-anchor="start" x="393.5" y="-96.72" font-family="Helvetica,sans-Serif" font-size="10.00">IAbyPath::doPathForwardAnd</text>
<text text-anchor="middle" x="463.5" y="-85.72" font-family="Helvetica,sans-Serif" font-size="10.00">FaceTo</text>
</a>
</g>
</g>
<!-- Node8&#45;&gt;Node9 -->
<g id="edge8" class="edge">
<title>Node8&#45;&gt;Node9</title>
<path fill="none" stroke="midnightblue" d="M595.63,-114.59C578.17,-111.81 559.35,-108.82 541.56,-105.99"/>
<polygon fill="midnightblue" stroke="midnightblue" points="595.31,-118.09 605.74,-116.2 596.41,-111.17 595.31,-118.09"/>
</g>
<!-- Node10 -->
<g id="node10" class="node">
<title>Node10</title>
<g id="a_node10"><a xlink:href="classIAbyPath.html#a00b7b125584bda7731696dfd5069b17c" target="_top" xlink:title=" ">
<polygon fill="white" stroke="black" points="385.5,-127.72 385.5,-157.72 541.5,-157.72 541.5,-127.72 385.5,-127.72"/>
<text text-anchor="start" x="393.5" y="-145.72" font-family="Helvetica,sans-Serif" font-size="10.00">IAbyPath::doPathForwardAnd</text>
<text text-anchor="middle" x="463.5" y="-134.72" font-family="Helvetica,sans-Serif" font-size="10.00">RotateTo</text>
</a>
</g>
</g>
<!-- Node8&#45;&gt;Node10 -->
<g id="edge9" class="edge">
<title>Node8&#45;&gt;Node10</title>
<path fill="none" stroke="midnightblue" d="M582.2,-132.76C568.77,-133.9 554.92,-135.07 541.64,-136.19"/>
<polygon fill="midnightblue" stroke="midnightblue" points="582.7,-136.23 592.37,-131.9 582.11,-129.26 582.7,-136.23"/>
</g>
<!-- Node14 -->
<g id="node14" class="node">
<title>Node14</title>
<g id="a_node14"><a xlink:href="classIAbyPath.html#aa2a96904ea74078d56dad53979b1d999" target="_top" xlink:title=" ">
<polygon fill="white" stroke="black" points="379.5,-280.22 379.5,-299.22 547.5,-299.22 547.5,-280.22 379.5,-280.22"/>
<text text-anchor="middle" x="463.5" y="-287.22" font-family="Helvetica,sans-Serif" font-size="10.00">IAbyPath::whileMoveForwardTo</text>
</a>
</g>
</g>
<!-- Node8&#45;&gt;Node14 -->
<g id="edge14" class="edge">
<title>Node8&#45;&gt;Node14</title>
<path fill="none" stroke="midnightblue" d="M643.3,-141.33C627.61,-152.53 606.22,-168.16 588,-182.72 545,-217.07 496.25,-260.8 475.16,-279.97"/>
<polygon fill="midnightblue" stroke="midnightblue" points="645.69,-143.93 651.81,-135.28 641.63,-138.22 645.69,-143.93"/>
</g>
<!-- Node11 -->
<g id="node11" class="node">
<title>Node11</title>
<g id="a_node11"><a xlink:href="O__IAbyPathTest_8cpp.html#ac1055b8eb7025052d58ebaf15869a480" target="_top" xlink:title=" ">
<polygon fill="white" stroke="black" points="189,-133.22 189,-152.22 322,-152.22 322,-133.22 189,-133.22"/>
<text text-anchor="middle" x="255.5" y="-140.22" font-family="Helvetica,sans-Serif" font-size="10.00">O_IAbyPathTest_action1</text>
</a>
</g>
</g>
<!-- Node10&#45;&gt;Node11 -->
<g id="edge10" class="edge">
<title>Node10&#45;&gt;Node11</title>
<path fill="none" stroke="midnightblue" d="M374.88,-142.72C357.18,-142.72 338.87,-142.72 322.08,-142.72"/>
<polygon fill="midnightblue" stroke="midnightblue" points="375.21,-146.22 385.21,-142.72 375.21,-139.22 375.21,-146.22"/>
</g>
<!-- Node13 -->
<g id="node13" class="node">
<title>Node13</title>
<g id="a_node13"><a xlink:href="O__IAbyPathTest_8cpp.html#aafb960063ea3193551e7ba63626e2561" target="_top" xlink:title=" ">
<polygon fill="white" stroke="black" points="188.5,-81.22 188.5,-100.22 322.5,-100.22 322.5,-81.22 188.5,-81.22"/>
<text text-anchor="middle" x="255.5" y="-88.22" font-family="Helvetica,sans-Serif" font-size="10.00">O_IAByPathTest_action2</text>
</a>
</g>
</g>
<!-- Node10&#45;&gt;Node13 -->
<g id="edge12" class="edge">
<title>Node10&#45;&gt;Node13</title>
<path fill="none" stroke="midnightblue" d="M392.86,-125.14C359.86,-116.81 321.75,-107.19 294.22,-100.24"/>
<polygon fill="midnightblue" stroke="midnightblue" points="392.36,-128.62 402.92,-127.68 394.08,-121.84 392.36,-128.62"/>
</g>
<!-- Node12 -->
<g id="node12" class="node">
<title>Node12</title>
<g id="a_node12"><a xlink:href="classO__IAByPathTest.html#abedd21fde4835d641e6aa3f8e1c6581f" target="_top" xlink:title=" ">
<polygon fill="white" stroke="black" points="0,-81.22 0,-100.22 136,-100.22 136,-81.22 0,-81.22"/>
<text text-anchor="middle" x="68" y="-88.22" font-family="Helvetica,sans-Serif" font-size="10.00">O_IAByPathTest::IASetup</text>
</a>
</g>
</g>
<!-- Node11&#45;&gt;Node12 -->
<g id="edge11" class="edge">
<title>Node11&#45;&gt;Node12</title>
<path fill="none" stroke="midnightblue" d="M210.67,-130.43C177.78,-121.21 133.39,-108.77 103.12,-100.28"/>
<polygon fill="midnightblue" stroke="midnightblue" points="209.9,-133.85 220.48,-133.18 211.79,-127.11 209.9,-133.85"/>
</g>
<!-- Node13&#45;&gt;Node12 -->
<g id="edge13" class="edge">
<title>Node13&#45;&gt;Node12</title>
<path fill="none" stroke="midnightblue" d="M178.25,-90.72C164.27,-90.72 149.78,-90.72 136.1,-90.72"/>
<polygon fill="midnightblue" stroke="midnightblue" points="178.32,-94.22 188.32,-90.72 178.32,-87.22 178.32,-94.22"/>
</g>
<!-- Node15 -->
<g id="node15" class="node">
<title>Node15</title>
<g id="a_node15"><a xlink:href="classIAbyPath.html#a3f27b793f84340c99ca33e12c2380bb4" target="_top" xlink:title=" ">
<polygon fill="white" stroke="black" points="176.5,-290.72 176.5,-320.72 334.5,-320.72 334.5,-290.72 176.5,-290.72"/>
<text text-anchor="start" x="184.5" y="-308.72" font-family="Helvetica,sans-Serif" font-size="10.00">IAbyPath::whileMoveForward</text>
<text text-anchor="middle" x="255.5" y="-297.72" font-family="Helvetica,sans-Serif" font-size="10.00">AndRotateTo</text>
</a>
</g>
</g>
<!-- Node14&#45;&gt;Node15 -->
<g id="edge15" class="edge">
<title>Node14&#45;&gt;Node15</title>
<path fill="none" stroke="midnightblue" d="M369.22,-296.96C357.67,-297.86 345.96,-298.77 334.67,-299.65"/>
<polygon fill="midnightblue" stroke="midnightblue" points="369.61,-300.44 379.31,-296.18 369.06,-293.46 369.61,-300.44"/>
</g>
<!-- Node17&#45;&gt;Node3 -->
<g id="edge18" class="edge">
<title>Node17&#45;&gt;Node3</title>
<path fill="none" stroke="midnightblue" d="M799.64,-511.19C793.29,-513.17 786.95,-515.36 781,-517.72 764.19,-524.4 761.91,-530.29 745,-536.72 735.29,-540.41 724.61,-543.57 714.38,-546.19"/>
<polygon fill="midnightblue" stroke="midnightblue" points="800.95,-514.45 809.54,-508.24 798.96,-507.74 800.95,-514.45"/>
</g>
<!-- Node17&#45;&gt;Node4 -->
<g id="edge19" class="edge">
<title>Node17&#45;&gt;Node4</title>
<path fill="none" stroke="midnightblue" d="M798.19,-504.07C774.12,-506.59 745.43,-509.58 721.08,-512.12"/>
<polygon fill="midnightblue" stroke="midnightblue" points="798.62,-507.55 808.2,-503.03 797.89,-500.59 798.62,-507.55"/>
</g>
<!-- Node18&#45;&gt;Node12 -->
<g id="edge21" class="edge">
<title>Node18&#45;&gt;Node12</title>
<path fill="none" stroke="midnightblue" d="M217.53,-38.67C181.71,-51.22 128.25,-69.96 96.18,-81.19"/>
<polygon fill="midnightblue" stroke="midnightblue" points="218.85,-41.92 227.13,-35.31 216.53,-35.31 218.85,-41.92"/>
</g>
<!-- Node21&#45;&gt;Node4 -->
<g id="edge33" class="edge">
<title>Node21&#45;&gt;Node4</title>
<path fill="none" stroke="midnightblue" d="M784.98,-323.99C783.58,-325.15 782.25,-326.39 781,-327.72 727.84,-384.34 799.01,-442.9 745,-498.72 738.55,-505.39 730.16,-509.87 721.3,-512.85"/>
<polygon fill="midnightblue" stroke="midnightblue" points="787.27,-326.68 793.69,-318.25 783.42,-320.83 787.27,-326.68"/>
</g>
<!-- Node21&#45;&gt;Node5 -->
<g id="edge26" class="edge">
<title>Node21&#45;&gt;Node5</title>
<path fill="none" stroke="midnightblue" d="M785.59,-323.7C783.97,-324.94 782.44,-326.27 781,-327.72 737.83,-371.15 788.82,-417.94 745,-460.72 741.13,-464.49 736.65,-467.56 731.82,-470.04"/>
<polygon fill="midnightblue" stroke="midnightblue" points="787.61,-326.56 794.25,-318.3 783.91,-320.62 787.61,-326.56"/>
</g>
<!-- Node21&#45;&gt;Node6 -->
<g id="edge36" class="edge">
<title>Node21&#45;&gt;Node6</title>
<path fill="none" stroke="midnightblue" d="M789.38,-322.45C786.44,-324.02 783.63,-325.77 781,-327.72 756.95,-345.59 770.74,-369.38 745,-384.72 674.04,-427.02 574.3,-421.69 514.86,-413.22"/>
<polygon fill="midnightblue" stroke="midnightblue" points="790.87,-325.61 798.5,-318.25 787.95,-319.25 790.87,-325.61"/>
</g>
<!-- Node21&#45;&gt;Node8 -->
<g id="edge29" class="edge">
<title>Node21&#45;&gt;Node8</title>
<path fill="none" stroke="midnightblue" d="M793.28,-294.47C788.74,-291.77 784.55,-288.55 781,-284.72 738.8,-239.16 788.03,-194.49 745,-149.72 738.95,-143.42 731.28,-138.77 723.14,-135.33"/>
<polygon fill="midnightblue" stroke="midnightblue" points="791.85,-297.67 802.35,-299.07 795.01,-291.43 791.85,-297.67"/>
</g>
<!-- Node21&#45;&gt;Node9 -->
<g id="edge27" class="edge">
<title>Node21&#45;&gt;Node9</title>
<path fill="none" stroke="midnightblue" d="M824.1,-293.46C809.41,-283.38 791.75,-268.87 781,-251.72 745.73,-195.46 796.34,-148.82 745,-106.72 681.95,-55.01 581.56,-65.32 519.53,-78.68"/>
<polygon fill="midnightblue" stroke="midnightblue" points="822.5,-296.6 832.78,-299.16 826.34,-290.75 822.5,-296.6"/>
</g>
<!-- Node21&#45;&gt;Node10 -->
<g id="edge28" class="edge">
<title>Node21&#45;&gt;Node10</title>
<path fill="none" stroke="midnightblue" d="M794.58,-294.73C789.6,-291.97 784.96,-288.67 781,-284.72 746.97,-250.76 782.18,-213.19 745,-182.72 714.75,-157.93 613.87,-148.5 541.77,-144.92"/>
<polygon fill="midnightblue" stroke="midnightblue" points="793.27,-297.98 803.81,-299.13 796.29,-291.67 793.27,-297.98"/>
</g>
<!-- Node21&#45;&gt;Node11 -->
<g id="edge30" class="edge">
<title>Node21&#45;&gt;Node11</title>
<path fill="none" stroke="midnightblue" d="M805.77,-296.48C692.71,-264.83 392.46,-180.78 290.74,-152.3"/>
<polygon fill="midnightblue" stroke="midnightblue" points="804.91,-299.87 815.49,-299.2 806.8,-293.13 804.91,-299.87"/>
</g>
<!-- Node21&#45;&gt;Node13 -->
<g id="edge31" class="edge">
<title>Node21&#45;&gt;Node13</title>
<path fill="none" stroke="midnightblue" d="M823.49,-293.47C808.74,-283.47 791.23,-269.04 781,-251.72 737.96,-178.84 810.26,-118.61 745,-64.72 678.12,-9.49 407,-58.94 300.12,-81.19"/>
<polygon fill="midnightblue" stroke="midnightblue" points="821.93,-296.63 832.23,-299.12 825.73,-290.75 821.93,-296.63"/>
</g>
<!-- Node21&#45;&gt;Node14 -->
<g id="edge37" class="edge">
<title>Node21&#45;&gt;Node14</title>
<path fill="none" stroke="midnightblue" d="M775.3,-305.06C710.18,-301.84 615.56,-297.17 547.85,-293.83"/>
<polygon fill="midnightblue" stroke="midnightblue" points="775.33,-308.56 785.49,-305.56 775.68,-301.57 775.33,-308.56"/>
</g>
<!-- Node22 -->
<g id="node22" class="node">
<title>Node22</title>
<g id="a_node22"><a xlink:href="classOPOS6UL__RobotExtended.html#a4c7e16c32c1eaa463f577c100f63f618" target="_top" xlink:title="Affiche le statut de trajectoire courant.">
<polygon fill="white" stroke="black" points="595.5,-192.72 595.5,-222.72 737.5,-222.72 737.5,-192.72 595.5,-192.72"/>
<text text-anchor="start" x="603.5" y="-210.72" font-family="Helvetica,sans-Serif" font-size="10.00">OPOS6UL_RobotExtended</text>
<text text-anchor="middle" x="666.5" y="-199.72" font-family="Helvetica,sans-Serif" font-size="10.00">::displayTS</text>
</a>
</g>
</g>
<!-- Node21&#45;&gt;Node22 -->
<g id="edge25" class="edge">
<title>Node21&#45;&gt;Node22</title>
<path fill="none" stroke="midnightblue" d="M800.49,-295.51C793.61,-292.55 786.89,-288.99 781,-284.72 759.69,-269.28 766.05,-253.5 745,-237.72 737.03,-231.75 727.73,-226.81 718.39,-222.8"/>
<polygon fill="midnightblue" stroke="midnightblue" points="799.3,-298.81 809.89,-299.19 801.85,-292.29 799.3,-298.81"/>
</g>
<!-- Node23 -->
<g id="node23" class="node">
<title>Node23</title>
<g id="a_node23"><a xlink:href="classO__IAByPathTest.html#a3f57f585ff1382a52bf7f79a28d43629" target="_top" xlink:title=" ">
<polygon fill="white" stroke="black" points="609.5,-432.22 609.5,-451.22 723.5,-451.22 723.5,-432.22 609.5,-432.22"/>
<text text-anchor="middle" x="666.5" y="-439.22" font-family="Helvetica,sans-Serif" font-size="10.00">O_IAByPathTest::run</text>
</a>
</g>
</g>
<!-- Node21&#45;&gt;Node23 -->
<g id="edge32" class="edge">
<title>Node21&#45;&gt;Node23</title>
<path fill="none" stroke="midnightblue" d="M786.6,-323.38C784.63,-324.7 782.76,-326.15 781,-327.72 748.91,-356.46 776.66,-388.5 745,-417.72 738.17,-424.02 729.71,-428.67 720.91,-432.1"/>
<polygon fill="midnightblue" stroke="midnightblue" points="788.69,-326.22 795.72,-318.29 785.28,-320.1 788.69,-326.22"/>
</g>
<!-- Node24 -->
<g id="node24" class="node">
<title>Node24</title>
<g id="a_node24"><a xlink:href="classO__State__Init.html#a1980cd82dcb83e88d61f2e7e14dddfa0" target="_top" xlink:title=" ">
<polygon fill="white" stroke="black" points="609.5,-356.22 609.5,-375.22 723.5,-375.22 723.5,-356.22 609.5,-356.22"/>
<text text-anchor="middle" x="666.5" y="-363.22" font-family="Helvetica,sans-Serif" font-size="10.00">O_State_Init::setPos</text>
</a>
</g>
</g>
<!-- Node21&#45;&gt;Node24 -->
<g id="edge34" class="edge">
<title>Node21&#45;&gt;Node24</title>
<path fill="none" stroke="midnightblue" d="M802.56,-321.06C795.3,-323.17 787.92,-325.42 781,-327.72 764.71,-333.13 761.21,-336.06 745,-341.72 730.37,-346.82 714,-351.97 700.1,-356.18"/>
<polygon fill="midnightblue" stroke="midnightblue" points="803.65,-324.39 812.32,-318.3 801.75,-317.66 803.65,-324.39"/>
</g>
<!-- Node26 -->
<g id="node26" class="node">
<title>Node26</title>
<g id="a_node26"><a xlink:href="classIAbyPath.html#a42570f6bc87216c2ac5d028ad596fe02" target="_top" xlink:title=" ">
<polygon fill="white" stroke="black" points="383,-318.22 383,-337.22 544,-337.22 544,-318.22 383,-318.22"/>
<text text-anchor="middle" x="463.5" y="-325.22" font-family="Helvetica,sans-Serif" font-size="10.00">IAbyPath::whileMoveRotateTo</text>
</a>
</g>
</g>
<!-- Node21&#45;&gt;Node26 -->
<g id="edge38" class="edge">
<title>Node21&#45;&gt;Node26</title>
<path fill="none" stroke="midnightblue" d="M775.11,-312.39C708.76,-315.66 611.89,-320.44 544.02,-323.79"/>
<polygon fill="midnightblue" stroke="midnightblue" points="775.68,-315.87 785.49,-311.88 775.33,-308.87 775.68,-315.87"/>
</g>
<!-- Node25 -->
<g id="node25" class="node">
<title>Node25</title>
<g id="a_node25"><a xlink:href="classO__State__Init.html#abc19788b7457d1f819245dd28367fe91" target="_top" xlink:title="Exécute l&#39;état d&#39;initialisation.">
<polygon fill="white" stroke="black" points="403.5,-356.22 403.5,-375.22 523.5,-375.22 523.5,-356.22 403.5,-356.22"/>
<text text-anchor="middle" x="463.5" y="-363.22" font-family="Helvetica,sans-Serif" font-size="10.00">O_State_Init::execute</text>
</a>
</g>
</g>
<!-- Node24&#45;&gt;Node25 -->
<g id="edge35" class="edge">
<title>Node24&#45;&gt;Node25</title>
<path fill="none" stroke="midnightblue" d="M599,-365.72C574.63,-365.72 547.23,-365.72 523.55,-365.72"/>
<polygon fill="midnightblue" stroke="midnightblue" points="599.24,-369.22 609.24,-365.72 599.24,-362.22 599.24,-369.22"/>
</g>
<!-- Node26&#45;&gt;Node7 -->
<g id="edge39" class="edge">
<title>Node26&#45;&gt;Node7</title>
<path fill="none" stroke="midnightblue" d="M403.73,-339.53C394.08,-341.74 384.23,-344.17 375,-346.72 348.84,-353.95 319.97,-363.66 297.28,-371.7"/>
<polygon fill="midnightblue" stroke="midnightblue" points="404.67,-342.91 413.67,-337.31 403.14,-336.08 404.67,-342.91"/>
</g>
<!-- Node26&#45;&gt;Node15 -->
<g id="edge40" class="edge">
<title>Node26&#45;&gt;Node15</title>
<path fill="none" stroke="midnightblue" d="M372.74,-318.13C360.03,-316.77 347.04,-315.39 334.58,-314.06"/>
<polygon fill="midnightblue" stroke="midnightblue" points="372.54,-321.63 382.86,-319.21 373.28,-314.67 372.54,-321.63"/>
</g>
</g>
</svg>
