<?xml version="1.0" encoding="UTF-8" standalone="no"?>
<!DOCTYPE svg PUBLIC "-//W3C//DTD SVG 1.1//EN"
 "http://www.w3.org/Graphics/SVG/1.1/DTD/svg11.dtd">
<!-- Generated by graphviz version 2.43.0 (0)
 -->
<!-- Title: OPOS6UL_ActionsExtended::sensors Pages: 1 -->
<!--zoomable 471 -->
<svg id="main" version="1.1" xmlns="http://www.w3.org/2000/svg" xmlns:xlink="http://www.w3.org/1999/xlink" xml:space="preserve" onload="init(evt)">
<style type="text/css"><![CDATA[
.edge:hover path { stroke: red; }
.edge:hover polygon { stroke: red; fill: red; }
]]></style>
<script type="text/javascript"><![CDATA[
var edges = document.getElementsByTagName('g');
if (edges && edges.length) {
  for (var i=0;i<edges.length;i++) {
    if (edges[i].id.substr(0,4)=='edge') {
      edges[i].setAttribute('class','edge');
    }
  }
}
]]></script>
        <defs>
                <circle id="rim" cx="0" cy="0" r="7"/>
                <circle id="rim2" cx="0" cy="0" r="3.5"/>
                <g id="zoomPlus">
                        <use xlink:href="#rim" fill="#404040">
                                <set attributeName="fill" to="#808080" begin="zoomplus.mouseover" end="zoomplus.mouseout"/>
                        </use>
                        <path d="M-4,0h8M0,-4v8" fill="none" stroke="white" stroke-width="1.5" pointer-events="none"/>
                </g>
                <g id="zoomMin">
                        <use xlink:href="#rim" fill="#404040">
                                <set attributeName="fill" to="#808080" begin="zoomminus.mouseover" end="zoomminus.mouseout"/>
                        </use>
                        <path d="M-4,0h8" fill="none" stroke="white" stroke-width="1.5" pointer-events="none"/>
                </g>
                <g id="dirArrow">
                        <path fill="none" stroke="white" stroke-width="1.5" d="M0,-3.0v7 M-2.5,-0.5L0,-3.0L2.5,-0.5"/>
                </g>
               <g id="resetDef">
                       <use xlink:href="#rim2" fill="#404040">
                               <set attributeName="fill" to="#808080" begin="reset.mouseover" end="reset.mouseout"/>
                       </use>
               </g>
        </defs>

<script type="text/javascript">
var viewWidth = 739;
var viewHeight = 471;
var sectionId = 'dynsection-38';
</script>
<script xlink:href="svgpan.js"/>
<svg id="graph" class="graph">
<g id="viewport">
<title>OPOS6UL_ActionsExtended::sensors</title>
<polygon fill="white" stroke="transparent" points="-4,4 -4,-467.35 735,-467.35 735,4 -4,4"/>
<!-- Node1 -->
<g id="node1" class="node">
<title>Node1</title>
<g id="a_node1"><a xlink:title="Cette methode retourne l&#39;objet lanceur.">
<polygon fill="#bfbfbf" stroke="black" points="582,-204 582,-234 731,-234 731,-204 582,-204"/>
<text text-anchor="start" x="590" y="-222" font-family="Helvetica,sans-Serif" font-size="10.00">OPOS6UL_ActionsExtended</text>
<text text-anchor="middle" x="656.5" y="-211" font-family="Helvetica,sans-Serif" font-size="10.00">::sensors</text>
</a>
</g>
</g>
<!-- Node2 -->
<g id="node2" class="node">
<title>Node2</title>
<g id="a_node2"><a xlink:href="classO__State__DecisionMakerIA.html#a96d1f2a7618d607fd10cc51b9111e653" target="_top" xlink:title="Execute l&#39;action.">
<polygon fill="white" stroke="black" points="0,-381 0,-411 142,-411 142,-381 0,-381"/>
<text text-anchor="start" x="8" y="-399" font-family="Helvetica,sans-Serif" font-size="10.00">O_State_DecisionMakerIA</text>
<text text-anchor="middle" x="71" y="-388" font-family="Helvetica,sans-Serif" font-size="10.00">::execute</text>
</a>
</g>
</g>
<!-- Node1&#45;&gt;Node2 -->
<g id="edge1" class="edge">
<title>Node1&#45;&gt;Node2</title>
<path fill="none" stroke="midnightblue" d="M650.6,-243.79C640.25,-288.59 611.53,-381.99 546,-421 404.21,-505.42 194.21,-442.47 109.47,-411.05"/>
<polygon fill="midnightblue" stroke="midnightblue" points="654.02,-244.53 652.74,-234.01 647.18,-243.03 654.02,-244.53"/>
</g>
<!-- Node3 -->
<g id="node3" class="node">
<title>Node3</title>
<g id="a_node3"><a xlink:href="classO__State__WaitEndOfMatch.html#aa73613440b37c8dd42181e2e0265ae86" target="_top" xlink:title="Exécute l&#39;état d&#39;attente de fin de match.">
<polygon fill="white" stroke="black" points="397.5,-381 397.5,-411 538.5,-411 538.5,-381 397.5,-381"/>
<text text-anchor="start" x="405.5" y="-399" font-family="Helvetica,sans-Serif" font-size="10.00">O_State_WaitEndOfMatch</text>
<text text-anchor="middle" x="468" y="-388" font-family="Helvetica,sans-Serif" font-size="10.00">::execute</text>
</a>
</g>
</g>
<!-- Node1&#45;&gt;Node3 -->
<g id="edge2" class="edge">
<title>Node1&#45;&gt;Node3</title>
<path fill="none" stroke="midnightblue" d="M644.08,-243.53C627.24,-277.08 592.63,-336.98 546,-371 540.78,-374.81 534.94,-378.06 528.89,-380.82"/>
<polygon fill="midnightblue" stroke="midnightblue" points="647.29,-244.93 648.54,-234.41 641,-241.85 647.29,-244.93"/>
</g>
<!-- Node4 -->
<g id="node4" class="node">
<title>Node4</title>
<g id="a_node4"><a xlink:href="O__State__DecisionMakerIA_8cpp.html#a6af4b40e5e676265dd688e0004be0ff6" target="_top" xlink:title="Action de fin de match : rejoint la zone de fin en haut de table.">
<polygon fill="white" stroke="black" points="408.5,-342.5 408.5,-361.5 527.5,-361.5 527.5,-342.5 408.5,-342.5"/>
<text text-anchor="middle" x="468" y="-349.5" font-family="Helvetica,sans-Serif" font-size="10.00">O_end_of_match_top</text>
</a>
</g>
</g>
<!-- Node1&#45;&gt;Node4 -->
<g id="edge3" class="edge">
<title>Node1&#45;&gt;Node4</title>
<path fill="none" stroke="midnightblue" d="M639.43,-242.39C620.24,-268.5 585.71,-310.07 546,-333 539.32,-336.86 531.88,-339.93 524.33,-342.39"/>
<polygon fill="midnightblue" stroke="midnightblue" points="642.33,-244.35 645.33,-234.18 636.65,-240.26 642.33,-244.35"/>
</g>
<!-- Node7 -->
<g id="node7" class="node">
<title>Node7</title>
<g id="a_node7"><a xlink:href="O__State__DecisionMakerIA_8cpp.html#a1cbc5f5cba5f72b993c68f4aad4473f7" target="_top" xlink:title="Action de poussée de la prise en zone basse.">
<polygon fill="white" stroke="black" points="416,-304.5 416,-323.5 520,-323.5 520,-304.5 416,-304.5"/>
<text text-anchor="middle" x="468" y="-311.5" font-family="Helvetica,sans-Serif" font-size="10.00">O_push_prise_bas</text>
</a>
</g>
</g>
<!-- Node1&#45;&gt;Node7 -->
<g id="edge8" class="edge">
<title>Node1&#45;&gt;Node7</title>
<path fill="none" stroke="midnightblue" d="M630.28,-240.53C609.07,-257.6 577.28,-280.87 546,-295 537.59,-298.8 528.31,-301.91 519.19,-304.43"/>
<polygon fill="midnightblue" stroke="midnightblue" points="632.62,-243.14 638.14,-234.09 628.18,-237.72 632.62,-243.14"/>
</g>
<!-- Node8 -->
<g id="node8" class="node">
<title>Node8</title>
<g id="a_node8"><a xlink:href="classO__Asserv__CalageTest.html#ad731f64308b62269f060e74c0282e30f" target="_top" xlink:title=" ">
<polygon fill="white" stroke="black" points="396.5,-266.5 396.5,-285.5 539.5,-285.5 539.5,-266.5 396.5,-266.5"/>
<text text-anchor="middle" x="468" y="-273.5" font-family="Helvetica,sans-Serif" font-size="10.00">O_Asserv_CalageTest::run</text>
</a>
</g>
</g>
<!-- Node1&#45;&gt;Node8 -->
<g id="edge9" class="edge">
<title>Node1&#45;&gt;Node8</title>
<path fill="none" stroke="midnightblue" d="M605.53,-237.43C586.96,-243.99 565.63,-251.18 546,-257 534.65,-260.36 522.23,-263.61 510.75,-266.44"/>
<polygon fill="midnightblue" stroke="midnightblue" points="606.72,-240.72 614.97,-234.06 604.37,-234.12 606.72,-240.72"/>
</g>
<!-- Node9 -->
<g id="node9" class="node">
<title>Node9</title>
<g id="a_node9"><a xlink:href="classO__Asserv__SquareTest.html#a16a0bf866c8070611cfa8952e3ef64d8" target="_top" xlink:title=" ">
<polygon fill="white" stroke="black" points="396.5,-228.5 396.5,-247.5 539.5,-247.5 539.5,-228.5 396.5,-228.5"/>
<text text-anchor="middle" x="468" y="-235.5" font-family="Helvetica,sans-Serif" font-size="10.00">O_Asserv_SquareTest::run</text>
</a>
</g>
</g>
<!-- Node1&#45;&gt;Node9 -->
<g id="edge10" class="edge">
<title>Node1&#45;&gt;Node9</title>
<path fill="none" stroke="midnightblue" d="M571.64,-227.54C560.99,-228.63 550.16,-229.73 539.74,-230.79"/>
<polygon fill="midnightblue" stroke="midnightblue" points="572.2,-231 581.79,-226.51 571.49,-224.04 572.2,-231"/>
</g>
<!-- Node10 -->
<g id="node10" class="node">
<title>Node10</title>
<g id="a_node10"><a xlink:href="classO__AsservLineRotateTest.html#ac54536863ccc3f6bc0ce3f30e99e1b70" target="_top" xlink:title=" ">
<polygon fill="white" stroke="black" points="390,-190.5 390,-209.5 546,-209.5 546,-190.5 390,-190.5"/>
<text text-anchor="middle" x="468" y="-197.5" font-family="Helvetica,sans-Serif" font-size="10.00">O_AsservLineRotateTest::run</text>
</a>
</g>
</g>
<!-- Node1&#45;&gt;Node10 -->
<g id="edge11" class="edge">
<title>Node1&#45;&gt;Node10</title>
<path fill="none" stroke="midnightblue" d="M571.83,-210.48C563.28,-209.61 554.63,-208.72 546.16,-207.86"/>
<polygon fill="midnightblue" stroke="midnightblue" points="571.49,-213.96 581.79,-211.49 572.2,-207 571.49,-213.96"/>
</g>
<!-- Node11 -->
<g id="node11" class="node">
<title>Node11</title>
<g id="a_node11"><a xlink:href="classO__AsservTest.html#a87e2ffa360e3e12ff5c7b81b1952a04f" target="_top" xlink:title=" ">
<polygon fill="white" stroke="black" points="416,-152.5 416,-171.5 520,-171.5 520,-152.5 416,-152.5"/>
<text text-anchor="middle" x="468" y="-159.5" font-family="Helvetica,sans-Serif" font-size="10.00">O_AsservTest::run</text>
</a>
</g>
</g>
<!-- Node1&#45;&gt;Node11 -->
<g id="edge12" class="edge">
<title>Node1&#45;&gt;Node11</title>
<path fill="none" stroke="midnightblue" d="M605.53,-200.57C586.96,-194.01 565.63,-186.82 546,-181 534.65,-177.64 522.23,-174.39 510.75,-171.56"/>
<polygon fill="midnightblue" stroke="midnightblue" points="604.37,-203.88 614.97,-203.94 606.72,-197.28 604.37,-203.88"/>
</g>
<!-- Node12 -->
<g id="node12" class="node">
<title>Node12</title>
<g id="a_node12"><a xlink:href="classO__AsservXYRotateTest.html#a13ccb691e37bdddc94ca53b29311e39a" target="_top" xlink:title=" ">
<polygon fill="white" stroke="black" points="393.5,-114.5 393.5,-133.5 542.5,-133.5 542.5,-114.5 393.5,-114.5"/>
<text text-anchor="middle" x="468" y="-121.5" font-family="Helvetica,sans-Serif" font-size="10.00">O_AsservXYRotateTest::run</text>
</a>
</g>
</g>
<!-- Node1&#45;&gt;Node12 -->
<g id="edge13" class="edge">
<title>Node1&#45;&gt;Node12</title>
<path fill="none" stroke="midnightblue" d="M630.28,-197.47C609.07,-180.4 577.28,-157.13 546,-143 537.59,-139.2 528.31,-136.09 519.19,-133.57"/>
<polygon fill="midnightblue" stroke="midnightblue" points="628.18,-200.28 638.14,-203.91 632.62,-194.86 628.18,-200.28"/>
</g>
<!-- Node13 -->
<g id="node13" class="node">
<title>Node13</title>
<g id="a_node13"><a xlink:href="classO__IAByPathTest.html#a3f57f585ff1382a52bf7f79a28d43629" target="_top" xlink:title="Execute le test.">
<polygon fill="white" stroke="black" points="411,-76.5 411,-95.5 525,-95.5 525,-76.5 411,-76.5"/>
<text text-anchor="middle" x="468" y="-83.5" font-family="Helvetica,sans-Serif" font-size="10.00">O_IAByPathTest::run</text>
</a>
</g>
</g>
<!-- Node1&#45;&gt;Node13 -->
<g id="edge14" class="edge">
<title>Node1&#45;&gt;Node13</title>
<path fill="none" stroke="midnightblue" d="M639.43,-195.61C620.24,-169.5 585.71,-127.93 546,-105 539.32,-101.14 531.88,-98.07 524.33,-95.61"/>
<polygon fill="midnightblue" stroke="midnightblue" points="636.65,-197.74 645.33,-203.82 642.33,-193.65 636.65,-197.74"/>
</g>
<!-- Node14 -->
<g id="node14" class="node">
<title>Node14</title>
<g id="a_node14"><a xlink:href="classO__SensorsTest.html#ae3b998034225e16586ded4ba3bd419e5" target="_top" xlink:title="Execute le test.">
<polygon fill="white" stroke="black" points="413.5,-38.5 413.5,-57.5 522.5,-57.5 522.5,-38.5 413.5,-38.5"/>
<text text-anchor="middle" x="468" y="-45.5" font-family="Helvetica,sans-Serif" font-size="10.00">O_SensorsTest::run</text>
</a>
</g>
</g>
<!-- Node1&#45;&gt;Node14 -->
<g id="edge15" class="edge">
<title>Node1&#45;&gt;Node14</title>
<path fill="none" stroke="midnightblue" d="M644.67,-194.52C628.32,-160.5 594.07,-99.48 546,-67 539.04,-62.3 531.03,-58.76 522.85,-56.09"/>
<polygon fill="midnightblue" stroke="midnightblue" points="641.57,-196.17 648.98,-203.75 647.92,-193.21 641.57,-196.17"/>
</g>
<!-- Node15 -->
<g id="node15" class="node">
<title>Node15</title>
<g id="a_node15"><a xlink:href="classO__State__Init.html#a1980cd82dcb83e88d61f2e7e14dddfa0" target="_top" xlink:title=" ">
<polygon fill="white" stroke="black" points="411,-0.5 411,-19.5 525,-19.5 525,-0.5 411,-0.5"/>
<text text-anchor="middle" x="468" y="-7.5" font-family="Helvetica,sans-Serif" font-size="10.00">O_State_Init::setPos</text>
</a>
</g>
</g>
<!-- Node1&#45;&gt;Node15 -->
<g id="edge16" class="edge">
<title>Node1&#45;&gt;Node15</title>
<path fill="none" stroke="midnightblue" d="M648.27,-194.19C635.01,-153.23 602.82,-71.74 546,-29 539.84,-24.36 532.69,-20.85 525.28,-18.18"/>
<polygon fill="midnightblue" stroke="midnightblue" points="644.98,-195.41 651.3,-203.91 651.67,-193.33 644.98,-195.41"/>
</g>
<!-- Node5 -->
<g id="node5" class="node">
<title>Node5</title>
<g id="a_node5"><a xlink:href="classO__State__DecisionMakerIA.html#a9b35f6bac1a5602ec2a711fa280be4a6" target="_top" xlink:title="Configure les activités pour les zones de jeu du match.">
<polygon fill="white" stroke="black" points="195,-381 195,-411 337,-411 337,-381 195,-381"/>
<text text-anchor="start" x="203" y="-399" font-family="Helvetica,sans-Serif" font-size="10.00">O_State_DecisionMakerIA</text>
<text text-anchor="middle" x="266" y="-388" font-family="Helvetica,sans-Serif" font-size="10.00">::IASetupActivitiesZone</text>
</a>
</g>
</g>
<!-- Node4&#45;&gt;Node5 -->
<g id="edge4" class="edge">
<title>Node4&#45;&gt;Node5</title>
<path fill="none" stroke="midnightblue" d="M413.63,-363.74C389.63,-369.02 361.03,-375.31 335.48,-380.93"/>
<polygon fill="midnightblue" stroke="midnightblue" points="414.59,-367.11 423.6,-361.55 413.08,-360.28 414.59,-367.11"/>
</g>
<!-- Node6 -->
<g id="node6" class="node">
<title>Node6</title>
<g id="a_node6"><a xlink:href="classO__State__DecisionMakerIA.html#a8bd1c4d72bec8768c7c7c15bd2e665d8" target="_top" xlink:title="Configure les activités pour le mode test de la table.">
<polygon fill="white" stroke="black" points="178,-332 178,-362 354,-362 354,-332 178,-332"/>
<text text-anchor="start" x="186" y="-350" font-family="Helvetica,sans-Serif" font-size="10.00">O_State_DecisionMakerIA</text>
<text text-anchor="middle" x="266" y="-339" font-family="Helvetica,sans-Serif" font-size="10.00">::IASetupActivitiesZoneTableTest</text>
</a>
</g>
</g>
<!-- Node4&#45;&gt;Node6 -->
<g id="edge6" class="edge">
<title>Node4&#45;&gt;Node6</title>
<path fill="none" stroke="midnightblue" d="M398.22,-350.28C384.05,-349.93 368.96,-349.55 354.25,-349.18"/>
<polygon fill="midnightblue" stroke="midnightblue" points="398.26,-353.78 408.34,-350.53 398.44,-346.78 398.26,-353.78"/>
</g>
<!-- Node5&#45;&gt;Node2 -->
<g id="edge5" class="edge">
<title>Node5&#45;&gt;Node2</title>
<path fill="none" stroke="midnightblue" d="M184.62,-396C170.52,-396 155.96,-396 142.17,-396"/>
<polygon fill="midnightblue" stroke="midnightblue" points="184.78,-399.5 194.78,-396 184.78,-392.5 184.78,-399.5"/>
</g>
<!-- Node6&#45;&gt;Node2 -->
<g id="edge7" class="edge">
<title>Node6&#45;&gt;Node2</title>
<path fill="none" stroke="midnightblue" d="M195.88,-364.55C174.68,-369.93 151.57,-375.8 131.11,-380.99"/>
<polygon fill="midnightblue" stroke="midnightblue" points="196.95,-367.89 205.78,-362.03 195.23,-361.1 196.95,-367.89"/>
</g>
<!-- Node16 -->
<g id="node16" class="node">
<title>Node16</title>
<g id="a_node16"><a xlink:href="classO__State__Init.html#abc19788b7457d1f819245dd28367fe91" target="_top" xlink:title="Exécute l&#39;état d&#39;initialisation.">
<polygon fill="white" stroke="black" points="206,-0.5 206,-19.5 326,-19.5 326,-0.5 206,-0.5"/>
<text text-anchor="middle" x="266" y="-7.5" font-family="Helvetica,sans-Serif" font-size="10.00">O_State_Init::execute</text>
</a>
</g>
</g>
<!-- Node15&#45;&gt;Node16 -->
<g id="edge17" class="edge">
<title>Node15&#45;&gt;Node16</title>
<path fill="none" stroke="midnightblue" d="M400.66,-10C376.64,-10 349.69,-10 326.31,-10"/>
<polygon fill="midnightblue" stroke="midnightblue" points="400.76,-13.5 410.76,-10 400.76,-6.5 400.76,-13.5"/>
</g>
</g>
</svg>
        <g id="navigator" transform="translate(0 0)" fill="#404254">
                <rect fill="#f2f5e9" fill-opacity="0.5" stroke="#606060" stroke-width=".5" x="0" y="0" width="60" height="60"/>
                <use id="zoomplus" xlink:href="#zoomPlus" x="17" y="9" onmousedown="handleZoom(evt,'in')"/>
                <use id="zoomminus" xlink:href="#zoomMin" x="42" y="9" onmousedown="handleZoom(evt,'out')"/>
                <use id="reset" xlink:href="#resetDef" x="30" y="36" onmousedown="handleReset()"/>
                <g id="arrowUp" xlink:href="#dirArrow" transform="translate(30 24)" onmousedown="handlePan(0,-1)">
                  <use xlink:href="#rim" fill="#404040">
                        <set attributeName="fill" to="#808080" begin="arrowUp.mouseover" end="arrowUp.mouseout"/>
                  </use>
                  <path fill="none" stroke="white" stroke-width="1.5" d="M0,-3.0v7 M-2.5,-0.5L0,-3.0L2.5,-0.5"/>
                </g>
                <g id="arrowRight" xlink:href="#dirArrow" transform="rotate(90) translate(36 -43)" onmousedown="handlePan(1,0)">
                  <use xlink:href="#rim" fill="#404040">
                        <set attributeName="fill" to="#808080" begin="arrowRight.mouseover" end="arrowRight.mouseout"/>
                  </use>
                  <path fill="none" stroke="white" stroke-width="1.5" d="M0,-3.0v7 M-2.5,-0.5L0,-3.0L2.5,-0.5"/>
                </g>
                <g id="arrowDown" xlink:href="#dirArrow" transform="rotate(180) translate(-30 -48)" onmousedown="handlePan(0,1)">
                  <use xlink:href="#rim" fill="#404040">
                        <set attributeName="fill" to="#808080" begin="arrowDown.mouseover" end="arrowDown.mouseout"/>
                  </use>
                  <path fill="none" stroke="white" stroke-width="1.5" d="M0,-3.0v7 M-2.5,-0.5L0,-3.0L2.5,-0.5"/>
                </g>
                <g id="arrowLeft" xlink:href="#dirArrow" transform="rotate(270) translate(-36 17)" onmousedown="handlePan(-1,0)">
                  <use xlink:href="#rim" fill="#404040">
                        <set attributeName="fill" to="#808080" begin="arrowLeft.mouseover" end="arrowLeft.mouseout"/>
                  </use>
                  <path fill="none" stroke="white" stroke-width="1.5" d="M0,-3.0v7 M-2.5,-0.5L0,-3.0L2.5,-0.5"/>
                </g>
        </g>
        <svg viewBox="0 0 15 15" width="100%" height="30px" preserveAspectRatio="xMaxYMin meet">
         <g id="arrow_out" transform="scale(0.3 0.3)">
          <a xlink:href="classOPOS6UL__ActionsExtended_a3475484a307a07d60fd57fb9f49be8f5_icgraph_org.svg" target="_base">
           <rect id="button" ry="5" rx="5" y="6" x="6" height="38" width="38"
                fill="#f2f5e9" fill-opacity="0.5" stroke="#606060" stroke-width="1.0"/>
           <path id="arrow"
             d="M 11.500037,31.436501 C 11.940474,20.09759 22.043105,11.32322 32.158766,21.979434 L 37.068811,17.246167 C 37.068811,17.246167 37.088388,32 37.088388,32 L 22.160133,31.978069 C 22.160133,31.978069 26.997745,27.140456 26.997745,27.140456 C 18.528582,18.264221 13.291696,25.230495 11.500037,31.436501 z"
             style="fill:#404040;"/>
          </a>
         </g>
        </svg>
</svg>
