<?xml version="1.0" encoding="UTF-8" standalone="no"?>
<!DOCTYPE svg PUBLIC "-//W3C//DTD SVG 1.1//EN"
 "http://www.w3.org/Graphics/SVG/1.1/DTD/svg11.dtd">
<!-- Generated by graphviz version 2.43.0 (0)
 -->
<!-- Title: detail::json_sax_dom_callback_parser::start_object Pages: 1 -->
<svg width="409pt" height="85pt"
 viewBox="0.00 0.00 409.00 85.00" xmlns="http://www.w3.org/2000/svg" xmlns:xlink="http://www.w3.org/1999/xlink">
<g id="graph0" class="graph" transform="scale(1 1) rotate(0) translate(4 81)">
<title>detail::json_sax_dom_callback_parser::start_object</title>
<polygon fill="white" stroke="transparent" points="-4,4 -4,-81 405,-81 405,4 -4,4"/>
<!-- Node1 -->
<g id="node1" class="node">
<title>Node1</title>
<g id="a_node1"><a xlink:title=" ">
<polygon fill="#bfbfbf" stroke="black" points="0,-8.5 0,-49.5 127,-49.5 127,-8.5 0,-8.5"/>
<text text-anchor="start" x="8" y="-37.5" font-family="Helvetica,sans-Serif" font-size="10.00">detail::json_sax_dom</text>
<text text-anchor="start" x="8" y="-26.5" font-family="Helvetica,sans-Serif" font-size="10.00">_callback_parser::start</text>
<text text-anchor="middle" x="63.5" y="-15.5" font-family="Helvetica,sans-Serif" font-size="10.00">_object</text>
</a>
</g>
</g>
<!-- Node2 -->
<g id="node2" class="node">
<title>Node2</title>
<g id="a_node2"><a xlink:href="namespacedetail.html#a266fb3d4bf633ad6c506434cc91164da" target="_top" xlink:title=" ">
<polygon fill="white" stroke="black" points="163,-38.5 163,-57.5 246,-57.5 246,-38.5 163,-38.5"/>
<text text-anchor="middle" x="204.5" y="-45.5" font-family="Helvetica,sans-Serif" font-size="10.00">detail::concat</text>
</a>
</g>
</g>
<!-- Node1&#45;&gt;Node2 -->
<g id="edge1" class="edge">
<title>Node1&#45;&gt;Node2</title>
<path fill="none" stroke="midnightblue" d="M127.09,-37.56C135.69,-38.73 144.44,-39.93 152.8,-41.07"/>
<polygon fill="midnightblue" stroke="midnightblue" points="152.38,-44.55 162.76,-42.43 153.33,-37.61 152.38,-44.55"/>
</g>
<!-- Node5 -->
<g id="node5" class="node">
<title>Node5</title>
<g id="a_node5"><a xlink:href="json__3_811_82_8hpp.html#a5b9ca6dc52cf4226c68d67f895b2a1d4" target="_top" xlink:title="user&#45;defined to_string function for JSON values">
<polygon fill="white" stroke="black" points="175,-0.5 175,-19.5 234,-19.5 234,-0.5 175,-0.5"/>
<text text-anchor="middle" x="204.5" y="-7.5" font-family="Helvetica,sans-Serif" font-size="10.00">to_string</text>
</a>
</g>
</g>
<!-- Node1&#45;&gt;Node5 -->
<g id="edge4" class="edge">
<title>Node1&#45;&gt;Node5</title>
<path fill="none" stroke="midnightblue" d="M127.09,-20.44C139.89,-18.7 153,-16.9 164.67,-15.31"/>
<polygon fill="midnightblue" stroke="midnightblue" points="165.5,-18.73 174.94,-13.9 164.55,-11.79 165.5,-18.73"/>
</g>
<!-- Node3 -->
<g id="node3" class="node">
<title>Node3</title>
<g id="a_node3"><a xlink:href="namespacedetail.html#a89f967b745cf8df11ba9d59f93d97753" target="_top" xlink:title=" ">
<polygon fill="white" stroke="black" points="288,-57.5 288,-76.5 395,-76.5 395,-57.5 288,-57.5"/>
<text text-anchor="middle" x="341.5" y="-64.5" font-family="Helvetica,sans-Serif" font-size="10.00">detail::concat_into</text>
</a>
</g>
</g>
<!-- Node2&#45;&gt;Node3 -->
<g id="edge2" class="edge">
<title>Node2&#45;&gt;Node3</title>
<path fill="none" stroke="midnightblue" d="M246,-53.7C255.89,-55.09 266.71,-56.61 277.37,-58.12"/>
<polygon fill="midnightblue" stroke="midnightblue" points="277.13,-61.62 287.52,-59.54 278.11,-54.68 277.13,-61.62"/>
</g>
<!-- Node4 -->
<g id="node4" class="node">
<title>Node4</title>
<g id="a_node4"><a xlink:href="namespacedetail.html#ac185140ed8c8fcc07a302a890b714b0d" target="_top" xlink:title=" ">
<polygon fill="white" stroke="black" points="282,-19.5 282,-38.5 401,-38.5 401,-19.5 282,-19.5"/>
<text text-anchor="middle" x="341.5" y="-26.5" font-family="Helvetica,sans-Serif" font-size="10.00">detail::concat_length</text>
</a>
</g>
</g>
<!-- Node2&#45;&gt;Node4 -->
<g id="edge3" class="edge">
<title>Node2&#45;&gt;Node4</title>
<path fill="none" stroke="midnightblue" d="M246,-42.3C254.04,-41.17 262.69,-39.95 271.38,-38.73"/>
<polygon fill="midnightblue" stroke="midnightblue" points="272.14,-42.16 281.56,-37.3 271.17,-35.22 272.14,-42.16"/>
</g>
</g>
</svg>
