<?xml version="1.0" encoding="UTF-8" standalone="no"?>
<!DOCTYPE svg PUBLIC "-//W3C//DTD SVG 1.1//EN"
 "http://www.w3.org/Graphics/SVG/1.1/DTD/svg11.dtd">
<!-- Generated by graphviz version 2.43.0 (0)
 -->
<!-- Title: serialib::readBytes Pages: 1 -->
<svg width="298pt" height="66pt"
 viewBox="0.00 0.00 298.00 66.00" xmlns="http://www.w3.org/2000/svg" xmlns:xlink="http://www.w3.org/1999/xlink">
<g id="graph0" class="graph" transform="scale(1 1) rotate(0) translate(4 62)">
<title>serialib::readBytes</title>
<polygon fill="white" stroke="transparent" points="-4,4 -4,-62 294,-62 294,4 -4,4"/>
<!-- Node1 -->
<g id="node1" class="node">
<title>Node1</title>
<g id="a_node1"><a xlink:title="Read an array of bytes from the serial device (with timeout)">
<polygon fill="#bfbfbf" stroke="black" points="0,-19.5 0,-38.5 108,-38.5 108,-19.5 0,-19.5"/>
<text text-anchor="middle" x="54" y="-26.5" font-family="Helvetica,sans-Serif" font-size="10.00">serialib::readBytes</text>
</a>
</g>
</g>
<!-- Node2 -->
<g id="node2" class="node">
<title>Node2</title>
<g id="a_node2"><a xlink:href="classtimeOut.html#af5db5b5f0db4f6ada19187ef8f214214" target="_top" xlink:title="Returns the time elapsed since initialization. It write the current time of the day in the structure ...">
<polygon fill="white" stroke="black" points="144,-38.5 144,-57.5 290,-57.5 290,-38.5 144,-38.5"/>
<text text-anchor="middle" x="217" y="-45.5" font-family="Helvetica,sans-Serif" font-size="10.00">timeOut::elapsedTime_ms</text>
</a>
</g>
</g>
<!-- Node1&#45;&gt;Node2 -->
<g id="edge1" class="edge">
<title>Node1&#45;&gt;Node2</title>
<path fill="none" stroke="midnightblue" d="M108.16,-35.27C116.39,-36.25 125.05,-37.27 133.74,-38.29"/>
<polygon fill="midnightblue" stroke="midnightblue" points="133.59,-41.8 143.93,-39.5 134.41,-34.85 133.59,-41.8"/>
</g>
<!-- Node3 -->
<g id="node3" class="node">
<title>Node3</title>
<g id="a_node3"><a xlink:href="classtimeOut.html#a88b4caef4ce7bfc42b73a61589c098e8" target="_top" xlink:title="Initialise the timer. It writes the current time of the day in the structure PreviousTime.">
<polygon fill="white" stroke="black" points="163.5,-0.5 163.5,-19.5 270.5,-19.5 270.5,-0.5 163.5,-0.5"/>
<text text-anchor="middle" x="217" y="-7.5" font-family="Helvetica,sans-Serif" font-size="10.00">timeOut::initTimer</text>
</a>
</g>
</g>
<!-- Node1&#45;&gt;Node3 -->
<g id="edge2" class="edge">
<title>Node1&#45;&gt;Node3</title>
<path fill="none" stroke="midnightblue" d="M108.16,-22.73C122.6,-21.02 138.37,-19.16 153.28,-17.4"/>
<polygon fill="midnightblue" stroke="midnightblue" points="153.92,-20.85 163.44,-16.2 153.1,-13.9 153.92,-20.85"/>
</g>
</g>
</svg>
