<?xml version="1.0" encoding="UTF-8" standalone="no"?>
<!DOCTYPE svg PUBLIC "-//W3C//DTD SVG 1.1//EN"
 "http://www.w3.org/Graphics/SVG/1.1/DTD/svg11.dtd">
<!-- Generated by graphviz version 2.43.0 (0)
 -->
<!-- Title: test::SvgAppenderTest::testMultipleElements Pages: 1 -->
<svg width="454pt" height="183pt"
 viewBox="0.00 0.00 454.00 183.00" xmlns="http://www.w3.org/2000/svg" xmlns:xlink="http://www.w3.org/1999/xlink">
<g id="graph0" class="graph" transform="scale(1 1) rotate(0) translate(4 179)">
<title>test::SvgAppenderTest::testMultipleElements</title>
<polygon fill="white" stroke="transparent" points="-4,4 -4,-179 450,-179 450,4 -4,4"/>
<!-- Node1 -->
<g id="node1" class="node">
<title>Node1</title>
<g id="a_node1"><a xlink:title="Vérifie que plusieurs éléments SVG sont écrits dans l&#39;ordre.">
<polygon fill="#bfbfbf" stroke="black" points="0,-73.5 0,-103.5 127,-103.5 127,-73.5 0,-73.5"/>
<text text-anchor="start" x="8" y="-91.5" font-family="Helvetica,sans-Serif" font-size="10.00">test::SvgAppenderTest</text>
<text text-anchor="middle" x="63.5" y="-80.5" font-family="Helvetica,sans-Serif" font-size="10.00">::testMultipleElements</text>
</a>
</g>
</g>
<!-- Node2 -->
<g id="node2" class="node">
<title>Node2</title>
<g id="a_node2"><a xlink:href="classlogs_1_1SvgAppender.html#a2ad23bf7a9d95d09684c0f352e3cea1a" target="_top" xlink:title="Cette méthode clos le fichier de référence.">
<polygon fill="white" stroke="black" points="163,-144.5 163,-174.5 276,-174.5 276,-144.5 163,-144.5"/>
<text text-anchor="start" x="171" y="-162.5" font-family="Helvetica,sans-Serif" font-size="10.00">logs::SvgAppender::</text>
<text text-anchor="middle" x="219.5" y="-151.5" font-family="Helvetica,sans-Serif" font-size="10.00">flush</text>
</a>
</g>
</g>
<!-- Node1&#45;&gt;Node2 -->
<g id="edge1" class="edge">
<title>Node1&#45;&gt;Node2</title>
<path fill="none" stroke="midnightblue" d="M95.42,-103.61C114.75,-112.98 140.23,-125.15 163,-135.5 166.55,-137.12 170.25,-138.77 173.96,-140.41"/>
<polygon fill="midnightblue" stroke="midnightblue" points="172.62,-143.65 183.18,-144.46 175.43,-137.24 172.62,-143.65"/>
</g>
<!-- Node3 -->
<g id="node3" class="node">
<title>Node3</title>
<g id="a_node3"><a xlink:href="classlogs_1_1LoggerFactory.html#a82585b5de73e471e06cafdccc3b3721e" target="_top" xlink:title="Cette méthode statique retourne un Logger en fonction de son nom.">
<polygon fill="white" stroke="black" points="164,-95.5 164,-125.5 275,-125.5 275,-95.5 164,-95.5"/>
<text text-anchor="start" x="172" y="-113.5" font-family="Helvetica,sans-Serif" font-size="10.00">logs::LoggerFactory</text>
<text text-anchor="middle" x="219.5" y="-102.5" font-family="Helvetica,sans-Serif" font-size="10.00">::logger</text>
</a>
</g>
</g>
<!-- Node1&#45;&gt;Node3 -->
<g id="edge2" class="edge">
<title>Node1&#45;&gt;Node3</title>
<path fill="none" stroke="midnightblue" d="M127.14,-97.45C135.88,-98.7 144.87,-99.98 153.65,-101.24"/>
<polygon fill="midnightblue" stroke="midnightblue" points="153.43,-104.74 163.83,-102.69 154.42,-97.81 153.43,-104.74"/>
</g>
<!-- Node7 -->
<g id="node7" class="node">
<title>Node7</title>
<g id="a_node7"><a xlink:href="SvgAppenderTest_8cpp.html#ac5e1f4ca4e6effee354ae49c4967ee8c" target="_top" xlink:title=" ">
<polygon fill="white" stroke="black" points="187.5,-57 187.5,-76 251.5,-76 251.5,-57 187.5,-57"/>
<text text-anchor="middle" x="219.5" y="-64" font-family="Helvetica,sans-Serif" font-size="10.00">readLines</text>
</a>
</g>
</g>
<!-- Node1&#45;&gt;Node7 -->
<g id="edge6" class="edge">
<title>Node1&#45;&gt;Node7</title>
<path fill="none" stroke="midnightblue" d="M127.14,-79.55C143.92,-77.15 161.64,-74.62 176.96,-72.43"/>
<polygon fill="midnightblue" stroke="midnightblue" points="177.75,-75.86 187.15,-70.98 176.76,-68.93 177.75,-75.86"/>
</g>
<!-- Node8 -->
<g id="node8" class="node">
<title>Node8</title>
<g id="a_node8"><a xlink:href="classlogs_1_1SvgAppender.html#a9ec86931329330e976a213510d4d82e6" target="_top" xlink:title="Méthode générique de trace d&#39;un message.">
<polygon fill="white" stroke="black" points="163,-5.5 163,-35.5 276,-35.5 276,-5.5 163,-5.5"/>
<text text-anchor="start" x="171" y="-23.5" font-family="Helvetica,sans-Serif" font-size="10.00">logs::SvgAppender::</text>
<text text-anchor="middle" x="219.5" y="-12.5" font-family="Helvetica,sans-Serif" font-size="10.00">writeMessage</text>
</a>
</g>
</g>
<!-- Node1&#45;&gt;Node8 -->
<g id="edge7" class="edge">
<title>Node1&#45;&gt;Node8</title>
<path fill="none" stroke="midnightblue" d="M98.68,-73.41C121.21,-63.46 150.91,-50.35 175.1,-39.66"/>
<polygon fill="midnightblue" stroke="midnightblue" points="176.68,-42.79 184.42,-35.55 173.86,-36.39 176.68,-42.79"/>
</g>
<!-- Node4 -->
<g id="node4" class="node">
<title>Node4</title>
<g id="a_node4"><a xlink:href="classlogs_1_1LoggerFactory.html#ac89f19c0ffd71aa8cdc1c2d44c03809e" target="_top" xlink:title="Cette méthode ajoute un appender au système.">
<polygon fill="white" stroke="black" points="312,-148 312,-167 446,-167 446,-148 312,-148"/>
<text text-anchor="middle" x="379" y="-155" font-family="Helvetica,sans-Serif" font-size="10.00">logs::LoggerFactory::add</text>
</a>
</g>
</g>
<!-- Node3&#45;&gt;Node4 -->
<g id="edge3" class="edge">
<title>Node3&#45;&gt;Node4</title>
<path fill="none" stroke="midnightblue" d="M269.37,-125.62C283.14,-129.83 298.14,-134.39 312,-138.5 319.31,-140.67 327.09,-142.94 334.65,-145.13"/>
<polygon fill="midnightblue" stroke="midnightblue" points="333.81,-148.53 344.39,-147.94 335.75,-141.81 333.81,-148.53"/>
</g>
<!-- Node5 -->
<g id="node5" class="node">
<title>Node5</title>
<g id="a_node5"><a xlink:href="classlogs_1_1LoggerFactory.html#a90478b91d7af2ef8841ded21e3521f69" target="_top" xlink:title="Cette méthode statique retourne l&#39;instance unique de la classe LoggerFactory.">
<polygon fill="white" stroke="black" points="323.5,-98.5 323.5,-128.5 434.5,-128.5 434.5,-98.5 323.5,-98.5"/>
<text text-anchor="start" x="331.5" y="-116.5" font-family="Helvetica,sans-Serif" font-size="10.00">logs::LoggerFactory</text>
<text text-anchor="middle" x="379" y="-105.5" font-family="Helvetica,sans-Serif" font-size="10.00">::instance</text>
</a>
</g>
</g>
<!-- Node3&#45;&gt;Node5 -->
<g id="edge4" class="edge">
<title>Node3&#45;&gt;Node5</title>
<path fill="none" stroke="midnightblue" d="M275.14,-111.54C287.48,-111.78 300.69,-112.03 313.4,-112.27"/>
<polygon fill="midnightblue" stroke="midnightblue" points="313.39,-115.77 323.45,-112.46 313.52,-108.77 313.39,-115.77"/>
</g>
<!-- Node6 -->
<g id="node6" class="node">
<title>Node6</title>
<g id="a_node6"><a xlink:href="classlogs_1_1LoggerFactory.html#a212aa623f4b6bee12cb39e8017dde670" target="_top" xlink:title="Cette méthode retourne le Logger principal qui définit le niveau de trace par défaut.">
<polygon fill="white" stroke="black" points="323.5,-49.5 323.5,-79.5 434.5,-79.5 434.5,-49.5 323.5,-49.5"/>
<text text-anchor="start" x="331.5" y="-67.5" font-family="Helvetica,sans-Serif" font-size="10.00">logs::LoggerFactory</text>
<text text-anchor="middle" x="379" y="-56.5" font-family="Helvetica,sans-Serif" font-size="10.00">::rootLogger</text>
</a>
</g>
</g>
<!-- Node3&#45;&gt;Node6 -->
<g id="edge5" class="edge">
<title>Node3&#45;&gt;Node6</title>
<path fill="none" stroke="midnightblue" d="M272.07,-95.44C286.42,-91.25 302.15,-86.65 316.98,-82.32"/>
<polygon fill="midnightblue" stroke="midnightblue" points="317.96,-85.68 326.58,-79.52 316,-78.96 317.96,-85.68"/>
</g>
<!-- Node9 -->
<g id="node9" class="node">
<title>Node9</title>
<g id="a_node9"><a xlink:href="classlogs_1_1MemoryAppender.html#a6456fc6c33dd29be1964a2c39b5d329f" target="_top" xlink:title="Méthode générique de trace d&#39;un message sans le nom du log devant chaque entrée.">
<polygon fill="white" stroke="black" points="314,-0.5 314,-30.5 444,-30.5 444,-0.5 314,-0.5"/>
<text text-anchor="start" x="322" y="-18.5" font-family="Helvetica,sans-Serif" font-size="10.00">logs::MemoryAppender</text>
<text text-anchor="middle" x="379" y="-7.5" font-family="Helvetica,sans-Serif" font-size="10.00">::writeMessageOnly</text>
</a>
</g>
</g>
<!-- Node8&#45;&gt;Node9 -->
<g id="edge8" class="edge">
<title>Node8&#45;&gt;Node9</title>
<path fill="none" stroke="midnightblue" d="M276.03,-18.74C285,-18.45 294.42,-18.15 303.75,-17.86"/>
<polygon fill="midnightblue" stroke="midnightblue" points="303.94,-21.35 313.82,-17.54 303.72,-14.36 303.94,-21.35"/>
</g>
</g>
</svg>
