<?xml version="1.0" encoding="UTF-8" standalone="no"?>
<!DOCTYPE svg PUBLIC "-//W3C//DTD SVG 1.1//EN"
 "http://www.w3.org/Graphics/SVG/1.1/DTD/svg11.dtd">
<!-- Generated by graphviz version 2.43.0 (0)
 -->
<!-- Title: utils::Thread::cancel Pages: 1 -->
<svg width="467pt" height="154pt"
 viewBox="0.00 0.00 467.00 154.00" xmlns="http://www.w3.org/2000/svg" xmlns:xlink="http://www.w3.org/1999/xlink">
<g id="graph0" class="graph" transform="scale(1 1) rotate(0) translate(4 150)">
<title>utils::Thread::cancel</title>
<polygon fill="white" stroke="transparent" points="-4,4 -4,-150 463,-150 463,4 -4,4"/>
<!-- Node1 -->
<g id="node1" class="node">
<title>Node1</title>
<g id="a_node1"><a xlink:title="Annule le thread (appelle pthread_cancel).">
<polygon fill="#bfbfbf" stroke="black" points="344,-66.5 344,-85.5 459,-85.5 459,-66.5 344,-66.5"/>
<text text-anchor="middle" x="401.5" y="-73.5" font-family="Helvetica,sans-Serif" font-size="10.00">utils::Thread::cancel</text>
</a>
</g>
</g>
<!-- Node2 -->
<g id="node2" class="node">
<title>Node2</title>
<g id="a_node2"><a xlink:href="classActions.html#aa0181cb9c1642b42dca16faa8c9356e0" target="_top" xlink:title="Annule le thread en cours.">
<polygon fill="white" stroke="black" points="187,-126.5 187,-145.5 277,-145.5 277,-126.5 187,-126.5"/>
<text text-anchor="middle" x="232" y="-133.5" font-family="Helvetica,sans-Serif" font-size="10.00">Actions::cancel</text>
</a>
</g>
</g>
<!-- Node1&#45;&gt;Node2 -->
<g id="edge1" class="edge">
<title>Node1&#45;&gt;Node2</title>
<path fill="none" stroke="midnightblue" d="M372.03,-90.12C353.99,-98.69 329.99,-109.4 308,-117 297.72,-120.55 286.43,-123.76 275.81,-126.48"/>
<polygon fill="midnightblue" stroke="midnightblue" points="373.9,-93.1 381.39,-85.61 370.87,-86.8 373.9,-93.1"/>
</g>
<!-- Node3 -->
<g id="node3" class="node">
<title>Node3</title>
<g id="a_node3"><a xlink:href="classAsservDriver.html#a636bf5413d2cf0419f188a4965340758" target="_top" xlink:title="Actions de nettoyage avant l&#39;arret du programme.">
<polygon fill="white" stroke="black" points="156,-88.5 156,-107.5 308,-107.5 308,-88.5 156,-88.5"/>
<text text-anchor="middle" x="232" y="-95.5" font-family="Helvetica,sans-Serif" font-size="10.00">AsservDriver::endWhatTodo</text>
</a>
</g>
</g>
<!-- Node1&#45;&gt;Node3 -->
<g id="edge2" class="edge">
<title>Node1&#45;&gt;Node3</title>
<path fill="none" stroke="midnightblue" d="M333.8,-84.76C324.46,-85.99 314.83,-87.25 305.39,-88.49"/>
<polygon fill="midnightblue" stroke="midnightblue" points="334.33,-88.22 343.79,-83.45 333.42,-81.28 334.33,-88.22"/>
</g>
<!-- Node5 -->
<g id="node5" class="node">
<title>Node5</title>
<g id="a_node5"><a xlink:href="classO__State__WaitEndOfMatch.html#aa73613440b37c8dd42181e2e0265ae86" target="_top" xlink:title="Exécute l&#39;état d&#39;attente de fin de match.">
<polygon fill="white" stroke="black" points="161.5,-39 161.5,-69 302.5,-69 302.5,-39 161.5,-39"/>
<text text-anchor="start" x="169.5" y="-57" font-family="Helvetica,sans-Serif" font-size="10.00">O_State_WaitEndOfMatch</text>
<text text-anchor="middle" x="232" y="-46" font-family="Helvetica,sans-Serif" font-size="10.00">::execute</text>
</a>
</g>
</g>
<!-- Node1&#45;&gt;Node5 -->
<g id="edge4" class="edge">
<title>Node1&#45;&gt;Node5</title>
<path fill="none" stroke="midnightblue" d="M333.73,-67.23C323.53,-65.89 312.98,-64.51 302.72,-63.16"/>
<polygon fill="midnightblue" stroke="midnightblue" points="333.42,-70.72 343.79,-68.55 334.33,-63.78 333.42,-70.72"/>
</g>
<!-- Node6 -->
<g id="node6" class="node">
<title>Node6</title>
<g id="a_node6"><a xlink:href="classtest_1_1ThreadTest.html#a3ab4926fa019981bd51a7464be5cf4be" target="_top" xlink:title="Vérifie que cancel() arrête un thread en cours.">
<polygon fill="white" stroke="black" points="156,-0.5 156,-19.5 308,-19.5 308,-0.5 156,-0.5"/>
<text text-anchor="middle" x="232" y="-7.5" font-family="Helvetica,sans-Serif" font-size="10.00">test::ThreadTest::testCancel</text>
</a>
</g>
</g>
<!-- Node1&#45;&gt;Node6 -->
<g id="edge5" class="edge">
<title>Node1&#45;&gt;Node6</title>
<path fill="none" stroke="midnightblue" d="M375.07,-61.62C356.83,-51.73 331.43,-38.85 308,-30 297.41,-26 285.69,-22.47 274.73,-19.54"/>
<polygon fill="midnightblue" stroke="midnightblue" points="373.46,-64.72 383.91,-66.47 376.83,-58.59 373.46,-64.72"/>
</g>
<!-- Node4 -->
<g id="node4" class="node">
<title>Node4</title>
<g id="a_node4"><a xlink:href="classAsservDriver.html#aaeb3c80c8a079c812af38273f825c537" target="_top" xlink:title="Assisted movement mode =)">
<polygon fill="white" stroke="black" points="0,-83 0,-113 120,-113 120,-83 0,-83"/>
<text text-anchor="start" x="8" y="-101" font-family="Helvetica,sans-Serif" font-size="10.00">AsservDriver::motion</text>
<text text-anchor="middle" x="60" y="-90" font-family="Helvetica,sans-Serif" font-size="10.00">_ActivateManager</text>
</a>
</g>
</g>
<!-- Node3&#45;&gt;Node4 -->
<g id="edge3" class="edge">
<title>Node3&#45;&gt;Node4</title>
<path fill="none" stroke="midnightblue" d="M145.77,-98C137.08,-98 128.4,-98 120.09,-98"/>
<polygon fill="midnightblue" stroke="midnightblue" points="145.94,-101.5 155.94,-98 145.94,-94.5 145.94,-101.5"/>
</g>
</g>
</svg>
