<?xml version="1.0" encoding="UTF-8" standalone="no"?>
<!DOCTYPE svg PUBLIC "-//W3C//DTD SVG 1.1//EN"
 "http://www.w3.org/Graphics/SVG/1.1/DTD/svg11.dtd">
<!-- Generated by graphviz version 2.43.0 (0)
 -->
<!-- Title: AsservEsialR::motion_DisablePID Pages: 1 -->
<svg width="500pt" height="154pt"
 viewBox="0.00 0.00 500.00 154.00" xmlns="http://www.w3.org/2000/svg" xmlns:xlink="http://www.w3.org/1999/xlink">
<g id="graph0" class="graph" transform="scale(1 1) rotate(0) translate(4 150)">
<title>AsservEsialR::motion_DisablePID</title>
<polygon fill="white" stroke="transparent" points="-4,4 -4,-150 496,-150 496,4 -4,4"/>
<!-- Node1 -->
<g id="node1" class="node">
<title>Node1</title>
<g id="a_node1"><a xlink:title="Desactive le PID et stoppe les moteurs.">
<polygon fill="#bfbfbf" stroke="black" points="0,-61 0,-91 120,-91 120,-61 0,-61"/>
<text text-anchor="start" x="8" y="-79" font-family="Helvetica,sans-Serif" font-size="10.00">AsservEsialR::motion</text>
<text text-anchor="middle" x="60" y="-68" font-family="Helvetica,sans-Serif" font-size="10.00">_DisablePID</text>
</a>
</g>
</g>
<!-- Node2 -->
<g id="node2" class="node">
<title>Node2</title>
<g id="a_node2"><a xlink:href="classAsservEsialR.html#a9f1de45d0cbdbd1d827e467b59fd4bc1" target="_top" xlink:title="Passe en roue libre (aucun asservissement).">
<polygon fill="white" stroke="black" points="156,-61 156,-91 276,-91 276,-61 156,-61"/>
<text text-anchor="start" x="164" y="-79" font-family="Helvetica,sans-Serif" font-size="10.00">AsservEsialR::motion</text>
<text text-anchor="middle" x="216" y="-68" font-family="Helvetica,sans-Serif" font-size="10.00">_FreeMotion</text>
</a>
</g>
</g>
<!-- Node1&#45;&gt;Node2 -->
<g id="edge1" class="edge">
<title>Node1&#45;&gt;Node2</title>
<path fill="none" stroke="midnightblue" d="M120.1,-76C128.42,-76 137.04,-76 145.53,-76"/>
<polygon fill="midnightblue" stroke="midnightblue" points="145.8,-79.5 155.8,-76 145.8,-72.5 145.8,-79.5"/>
</g>
<!-- Node3 -->
<g id="node3" class="node">
<title>Node3</title>
<g id="a_node3"><a xlink:href="classutils_1_1Mutex.html#aa584b418a5ef484f76b93e361a1d7e32" target="_top" xlink:title="Verrouille le mutex. Cette méthode doit être appelée avant d&#39;utiliser la ressource associée....">
<polygon fill="white" stroke="black" points="351.5,-126.5 351.5,-145.5 452.5,-145.5 452.5,-126.5 351.5,-126.5"/>
<text text-anchor="middle" x="402" y="-133.5" font-family="Helvetica,sans-Serif" font-size="10.00">utils::Mutex::lock</text>
</a>
</g>
</g>
<!-- Node2&#45;&gt;Node3 -->
<g id="edge2" class="edge">
<title>Node2&#45;&gt;Node3</title>
<path fill="none" stroke="midnightblue" d="M247.64,-91.06C265.97,-99.6 289.92,-109.96 312,-117 321.37,-119.99 331.45,-122.65 341.33,-124.96"/>
<polygon fill="midnightblue" stroke="midnightblue" points="340.59,-128.38 351.12,-127.16 342.13,-121.55 340.59,-128.38"/>
</g>
<!-- Node4 -->
<g id="node4" class="node">
<title>Node4</title>
<g id="a_node4"><a xlink:href="classCommandManagerA.html#ae485a84b4549ea2cd01e1687febcebe7" target="_top" xlink:title=" ">
<polygon fill="white" stroke="black" points="312,-88.5 312,-107.5 492,-107.5 492,-88.5 312,-88.5"/>
<text text-anchor="middle" x="402" y="-95.5" font-family="Helvetica,sans-Serif" font-size="10.00">CommandManagerA::perform_On</text>
</a>
</g>
</g>
<!-- Node2&#45;&gt;Node4 -->
<g id="edge3" class="edge">
<title>Node2&#45;&gt;Node4</title>
<path fill="none" stroke="midnightblue" d="M276.23,-83.08C287.48,-84.43 299.47,-85.86 311.41,-87.29"/>
<polygon fill="midnightblue" stroke="midnightblue" points="311.07,-90.77 321.41,-88.48 311.9,-83.82 311.07,-90.77"/>
</g>
<!-- Node5 -->
<g id="node5" class="node">
<title>Node5</title>
<g id="a_node5"><a xlink:href="classConsignController.html#adfedf459a0ef4d9eeb8aae541a999869" target="_top" xlink:title=" ">
<polygon fill="white" stroke="black" points="347,-39 347,-69 457,-69 457,-39 347,-39"/>
<text text-anchor="start" x="355" y="-57" font-family="Helvetica,sans-Serif" font-size="10.00">ConsignController::</text>
<text text-anchor="middle" x="402" y="-46" font-family="Helvetica,sans-Serif" font-size="10.00">perform_On</text>
</a>
</g>
</g>
<!-- Node2&#45;&gt;Node5 -->
<g id="edge4" class="edge">
<title>Node2&#45;&gt;Node5</title>
<path fill="none" stroke="midnightblue" d="M276.23,-68.92C295.56,-66.61 317.1,-64.03 336.77,-61.68"/>
<polygon fill="midnightblue" stroke="midnightblue" points="337.35,-65.13 346.87,-60.47 336.52,-58.18 337.35,-65.13"/>
</g>
<!-- Node6 -->
<g id="node6" class="node">
<title>Node6</title>
<g id="a_node6"><a xlink:href="classutils_1_1Mutex.html#a59b2079dc7f803d49f78ac9c04406cd3" target="_top" xlink:title="Déverrouille le mutex. Cette méthode doit être appelée après avoir utiliser la ressource associée.">
<polygon fill="white" stroke="black" points="345.5,-0.5 345.5,-19.5 458.5,-19.5 458.5,-0.5 345.5,-0.5"/>
<text text-anchor="middle" x="402" y="-7.5" font-family="Helvetica,sans-Serif" font-size="10.00">utils::Mutex::unlock</text>
</a>
</g>
</g>
<!-- Node2&#45;&gt;Node6 -->
<g id="edge5" class="edge">
<title>Node2&#45;&gt;Node6</title>
<path fill="none" stroke="midnightblue" d="M244.13,-60.79C262.76,-50.87 288.3,-38.28 312,-30 320.67,-26.97 329.99,-24.29 339.21,-21.95"/>
<polygon fill="midnightblue" stroke="midnightblue" points="340.24,-25.3 349.13,-19.55 338.59,-18.5 340.24,-25.3"/>
</g>
</g>
</svg>
