<?xml version="1.0" encoding="UTF-8" standalone="no"?>
<!DOCTYPE svg PUBLIC "-//W3C//DTD SVG 1.1//EN"
 "http://www.w3.org/Graphics/SVG/1.1/DTD/svg11.dtd">
<!-- Generated by graphviz version 2.43.0 (0)
 -->
<!-- Title: backward::Printer Pages: 1 -->
<svg width="583pt" height="100pt"
 viewBox="0.00 0.00 583.00 99.50" xmlns="http://www.w3.org/2000/svg" xmlns:xlink="http://www.w3.org/1999/xlink">
<g id="graph0" class="graph" transform="scale(1 1) rotate(0) translate(4 95.5)">
<title>backward::Printer</title>
<polygon fill="white" stroke="transparent" points="-4,4 -4,-95.5 579,-95.5 579,4 -4,4"/>
<!-- Node1 -->
<g id="node1" class="node">
<title>Node1</title>
<g id="a_node1"><a xlink:title=" ">
<polygon fill="#bfbfbf" stroke="black" points="473,-30 473,-49 575,-49 575,-30 473,-30"/>
<text text-anchor="middle" x="524" y="-37" font-family="Helvetica,sans-Serif" font-size="10.00">backward::Printer</text>
</a>
</g>
</g>
<!-- Node2 -->
<g id="node2" class="node">
<title>Node2</title>
<g id="a_node2"><a xlink:href="classbackward_1_1SnippetFactory.html" target="_top" xlink:title=" ">
<polygon fill="white" stroke="black" points="245,-57 245,-76 387,-76 387,-57 245,-57"/>
<text text-anchor="middle" x="316" y="-64" font-family="Helvetica,sans-Serif" font-size="10.00">backward::SnippetFactory</text>
</a>
</g>
</g>
<!-- Node2&#45;&gt;Node1 -->
<g id="edge1" class="edge">
<title>Node2&#45;&gt;Node1</title>
<path fill="none" stroke="#9a32cd" stroke-dasharray="5,2" d="M397.09,-56C422.65,-52.65 450.2,-49.04 472.99,-46.05"/>
<polygon fill="#9a32cd" stroke="#9a32cd" points="396.49,-52.55 387.03,-57.32 397.4,-59.49 396.49,-52.55"/>
<text text-anchor="middle" x="430" y="-57.5" font-family="Helvetica,sans-Serif" font-size="10.00"> _snippets</text>
</g>
<!-- Node3 -->
<g id="node3" class="node">
<title>Node3</title>
<g id="a_node3"><a xlink:href="structbackward_1_1details_1_1hashtable.html" target="_top" xlink:title=" ">
<polygon fill="white" stroke="black" points="16,-50 16,-91 144,-91 144,-50 16,-50"/>
<text text-anchor="start" x="24" y="-79" font-family="Helvetica,sans-Serif" font-size="10.00">backward::details::</text>
<text text-anchor="start" x="24" y="-68" font-family="Helvetica,sans-Serif" font-size="10.00">hashtable&lt; std::string,</text>
<text text-anchor="middle" x="80" y="-57" font-family="Helvetica,sans-Serif" font-size="10.00"> SourceFile &gt;</text>
</a>
</g>
</g>
<!-- Node3&#45;&gt;Node2 -->
<g id="edge2" class="edge">
<title>Node3&#45;&gt;Node2</title>
<path fill="none" stroke="#9a32cd" stroke-dasharray="5,2" d="M154.07,-69.25C183.03,-68.76 216.2,-68.19 244.86,-67.7"/>
<polygon fill="#9a32cd" stroke="#9a32cd" points="153.95,-65.75 144.02,-69.42 154.07,-72.75 153.95,-65.75"/>
<text text-anchor="middle" x="202.5" y="-71.5" font-family="Helvetica,sans-Serif" font-size="10.00"> _src_files</text>
</g>
<!-- Node4 -->
<g id="node4" class="node">
<title>Node4</title>
<g id="a_node4"><a xlink:href="classbackward_1_1TraceResolver.html" target="_top" xlink:title=" ">
<polygon fill="white" stroke="black" points="247,-11 247,-30 385,-30 385,-11 247,-11"/>
<text text-anchor="middle" x="316" y="-18" font-family="Helvetica,sans-Serif" font-size="10.00">backward::TraceResolver</text>
</a>
</g>
</g>
<!-- Node4&#45;&gt;Node1 -->
<g id="edge3" class="edge">
<title>Node4&#45;&gt;Node1</title>
<path fill="none" stroke="#9a32cd" stroke-dasharray="5,2" d="M395.36,-20.21C414.89,-20.85 435.76,-22.12 455,-24.5 465.08,-25.75 475.86,-27.79 485.81,-29.97"/>
<polygon fill="#9a32cd" stroke="#9a32cd" points="395.37,-16.71 385.28,-19.94 395.18,-23.71 395.37,-16.71"/>
<text text-anchor="middle" x="430" y="-27.5" font-family="Helvetica,sans-Serif" font-size="10.00"> _resolver</text>
</g>
<!-- Node5 -->
<g id="node5" class="node">
<title>Node5</title>
<g id="a_node5"><a xlink:href="classbackward_1_1TraceResolverImpl.html" target="_top" xlink:title=" ">
<polygon fill="white" stroke="black" points="0,-0.5 0,-30.5 160,-30.5 160,-0.5 0,-0.5"/>
<text text-anchor="start" x="8" y="-18.5" font-family="Helvetica,sans-Serif" font-size="10.00">backward::TraceResolverImpl</text>
<text text-anchor="middle" x="80" y="-7.5" font-family="Helvetica,sans-Serif" font-size="10.00">&lt; system_tag::current_tag &gt;</text>
</a>
</g>
</g>
<!-- Node5&#45;&gt;Node4 -->
<g id="edge4" class="edge">
<title>Node5&#45;&gt;Node4</title>
<path fill="none" stroke="midnightblue" d="M170.23,-17.41C195.62,-17.95 222.87,-18.53 246.81,-19.04"/>
<polygon fill="midnightblue" stroke="midnightblue" points="170.29,-13.91 160.22,-17.19 170.14,-20.91 170.29,-13.91"/>
</g>
</g>
</svg>
