<?xml version="1.0" encoding="UTF-8" standalone="no"?>
<!DOCTYPE svg PUBLIC "-//W3C//DTD SVG 1.1//EN"
 "http://www.w3.org/Graphics/SVG/1.1/DTD/svg11.dtd">
<!-- Generated by graphviz version 2.43.0 (0)
 -->
<!-- Title: TestAction::~TestAction Pages: 1 -->
<!--zoomable 241 -->
<svg id="main" version="1.1" xmlns="http://www.w3.org/2000/svg" xmlns:xlink="http://www.w3.org/1999/xlink" xml:space="preserve" onload="init(evt)">
<style type="text/css"><![CDATA[
.edge:hover path { stroke: red; }
.edge:hover polygon { stroke: red; fill: red; }
]]></style>
<script type="text/javascript"><![CDATA[
var edges = document.getElementsByTagName('g');
if (edges && edges.length) {
  for (var i=0;i<edges.length;i++) {
    if (edges[i].id.substr(0,4)=='edge') {
      edges[i].setAttribute('class','edge');
    }
  }
}
]]></script>
        <defs>
                <circle id="rim" cx="0" cy="0" r="7"/>
                <circle id="rim2" cx="0" cy="0" r="3.5"/>
                <g id="zoomPlus">
                        <use xlink:href="#rim" fill="#404040">
                                <set attributeName="fill" to="#808080" begin="zoomplus.mouseover" end="zoomplus.mouseout"/>
                        </use>
                        <path d="M-4,0h8M0,-4v8" fill="none" stroke="white" stroke-width="1.5" pointer-events="none"/>
                </g>
                <g id="zoomMin">
                        <use xlink:href="#rim" fill="#404040">
                                <set attributeName="fill" to="#808080" begin="zoomminus.mouseover" end="zoomminus.mouseout"/>
                        </use>
                        <path d="M-4,0h8" fill="none" stroke="white" stroke-width="1.5" pointer-events="none"/>
                </g>
                <g id="dirArrow">
                        <path fill="none" stroke="white" stroke-width="1.5" d="M0,-3.0v7 M-2.5,-0.5L0,-3.0L2.5,-0.5"/>
                </g>
               <g id="resetDef">
                       <use xlink:href="#rim2" fill="#404040">
                               <set attributeName="fill" to="#808080" begin="reset.mouseover" end="reset.mouseout"/>
                       </use>
               </g>
        </defs>

<script type="text/javascript">
var viewWidth = 669;
var viewHeight = 241;
var sectionId = 'dynsection-3';
</script>
<script xlink:href="svgpan.js"/>
<svg id="graph" class="graph">
<g id="viewport">
<title>TestAction::~TestAction</title>
<polygon fill="white" stroke="transparent" points="-4,4 -4,-236.5 665,-236.5 665,4 -4,4"/>
<!-- Node1 -->
<g id="node1" class="node">
<title>Node1</title>
<g id="a_node1"><a xlink:title="Destructeur de la classe.">
<polygon fill="#bfbfbf" stroke="black" points="0,-175 0,-194 131,-194 131,-175 0,-175"/>
<text text-anchor="middle" x="65.5" y="-182" font-family="Helvetica,sans-Serif" font-size="10.00">TestAction::~TestAction</text>
</a>
</g>
</g>
<!-- Node2 -->
<g id="node2" class="node">
<title>Node2</title>
<g id="a_node2"><a xlink:href="classlogs_1_1Logger.html#a7dffc8f610014ec59b63392da16140e4" target="_top" xlink:title="Trace un message de niveau DEBUG.">
<polygon fill="white" stroke="black" points="335,-213 335,-232 447,-232 447,-213 335,-213"/>
<text text-anchor="middle" x="391" y="-220" font-family="Helvetica,sans-Serif" font-size="10.00">logs::Logger::debug</text>
</a>
</g>
</g>
<!-- Node1&#45;&gt;Node2 -->
<g id="edge1" class="edge">
<title>Node1&#45;&gt;Node2</title>
<path fill="none" stroke="midnightblue" d="M111.62,-194.04C128.88,-197.43 148.79,-201.01 167,-203.5 219.86,-210.73 280.17,-215.67 324.73,-218.7"/>
<polygon fill="midnightblue" stroke="midnightblue" points="324.63,-222.2 334.84,-219.37 325.1,-215.21 324.63,-222.2"/>
</g>
<!-- Node4 -->
<g id="node4" class="node">
<title>Node4</title>
<g id="a_node4"><a xlink:href="namespacelogs.html#ac6f325c6cfe6189bc8e243daa184453b" target="_top" xlink:title="Cette méthode permet de finir les flux de construction par la notation.">
<polygon fill="white" stroke="black" points="188.5,-175 188.5,-194 249.5,-194 249.5,-175 188.5,-175"/>
<text text-anchor="middle" x="219" y="-182" font-family="Helvetica,sans-Serif" font-size="10.00">logs::end</text>
</a>
</g>
</g>
<!-- Node1&#45;&gt;Node4 -->
<g id="edge3" class="edge">
<title>Node1&#45;&gt;Node4</title>
<path fill="none" stroke="midnightblue" d="M131.19,-184.5C147.24,-184.5 163.97,-184.5 178.4,-184.5"/>
<polygon fill="midnightblue" stroke="midnightblue" points="178.47,-188 188.47,-184.5 178.47,-181 178.47,-188"/>
</g>
<!-- Node8 -->
<g id="node8" class="node">
<title>Node8</title>
<g id="a_node8"><a xlink:href="classTestAction.html#a6dd04c86a0ca9f6494b4549a00002c38" target="_top" xlink:title="Retourne le Logger associé à la classe TestAction.">
<polygon fill="white" stroke="black" points="167,-118 167,-137 271,-137 271,-118 167,-118"/>
<text text-anchor="middle" x="219" y="-125" font-family="Helvetica,sans-Serif" font-size="10.00">TestAction::logger</text>
</a>
</g>
</g>
<!-- Node1&#45;&gt;Node8 -->
<g id="edge8" class="edge">
<title>Node1&#45;&gt;Node8</title>
<path fill="none" stroke="midnightblue" d="M91.86,-174.96C116.87,-165.55 155.31,-151.09 183.18,-140.6"/>
<polygon fill="midnightblue" stroke="midnightblue" points="184.43,-143.87 192.56,-137.07 181.97,-137.32 184.43,-143.87"/>
</g>
<!-- Node3 -->
<g id="node3" class="node">
<title>Node3</title>
<g id="a_node3"><a xlink:href="classlogs_1_1Logger.html#afa535aaf4891e02c4ff7f84d372b5b1b" target="_top" xlink:title="Méthode générique de trace d&#39;un message.">
<polygon fill="white" stroke="black" points="511,-213 511,-232 661,-232 661,-213 511,-213"/>
<text text-anchor="middle" x="586" y="-220" font-family="Helvetica,sans-Serif" font-size="10.00">logs::Logger::writeMessage</text>
</a>
</g>
</g>
<!-- Node2&#45;&gt;Node3 -->
<g id="edge2" class="edge">
<title>Node2&#45;&gt;Node3</title>
<path fill="none" stroke="midnightblue" d="M447.05,-222.5C463.78,-222.5 482.57,-222.5 500.76,-222.5"/>
<polygon fill="midnightblue" stroke="midnightblue" points="500.79,-226 510.79,-222.5 500.79,-219 500.79,-226"/>
</g>
<!-- Node5 -->
<g id="node5" class="node">
<title>Node5</title>
<g id="a_node5"><a xlink:href="classlogs_1_1Logger_1_1LoggerBuffer.html#a0e4fd77693fd899ec1b0670354f93a02" target="_top" xlink:title="Cette méthode valide le message en cours de construction et le transmet au Logger de référence.">
<polygon fill="white" stroke="black" points="307,-175 307,-194 475,-194 475,-175 307,-175"/>
<text text-anchor="middle" x="391" y="-182" font-family="Helvetica,sans-Serif" font-size="10.00">logs::Logger::LoggerBuffer::end</text>
</a>
</g>
</g>
<!-- Node4&#45;&gt;Node5 -->
<g id="edge4" class="edge">
<title>Node4&#45;&gt;Node5</title>
<path fill="none" stroke="midnightblue" d="M249.61,-184.5C262.97,-184.5 279.56,-184.5 296.61,-184.5"/>
<polygon fill="midnightblue" stroke="midnightblue" points="296.68,-188 306.68,-184.5 296.68,-181 296.68,-188"/>
</g>
<!-- Node5&#45;&gt;Node3 -->
<g id="edge7" class="edge">
<title>Node5&#45;&gt;Node3</title>
<path fill="none" stroke="midnightblue" d="M440.7,-194.09C466.86,-199.24 499.28,-205.62 526.77,-211.03"/>
<polygon fill="midnightblue" stroke="midnightblue" points="526.16,-214.48 536.65,-212.98 527.51,-207.61 526.16,-214.48"/>
</g>
<!-- Node6 -->
<g id="node6" class="node">
<title>Node6</title>
<g id="a_node6"><a xlink:href="classutils_1_1Mutex.html#aa584b418a5ef484f76b93e361a1d7e32" target="_top" xlink:title="Verrouille le mutex. Cette méthode doit être appelée avant d&#39;utiliser la ressource associée....">
<polygon fill="white" stroke="black" points="535.5,-175 535.5,-194 636.5,-194 636.5,-175 535.5,-175"/>
<text text-anchor="middle" x="586" y="-182" font-family="Helvetica,sans-Serif" font-size="10.00">utils::Mutex::lock</text>
</a>
</g>
</g>
<!-- Node5&#45;&gt;Node6 -->
<g id="edge5" class="edge">
<title>Node5&#45;&gt;Node6</title>
<path fill="none" stroke="midnightblue" d="M475.25,-184.5C492.07,-184.5 509.44,-184.5 525.26,-184.5"/>
<polygon fill="midnightblue" stroke="midnightblue" points="525.41,-188 535.41,-184.5 525.41,-181 525.41,-188"/>
</g>
<!-- Node7 -->
<g id="node7" class="node">
<title>Node7</title>
<g id="a_node7"><a xlink:href="classutils_1_1Mutex.html#a59b2079dc7f803d49f78ac9c04406cd3" target="_top" xlink:title="Déverrouille le mutex. Cette méthode doit être appelée après avoir utiliser la ressource associée.">
<polygon fill="white" stroke="black" points="529.5,-137 529.5,-156 642.5,-156 642.5,-137 529.5,-137"/>
<text text-anchor="middle" x="586" y="-144" font-family="Helvetica,sans-Serif" font-size="10.00">utils::Mutex::unlock</text>
</a>
</g>
</g>
<!-- Node5&#45;&gt;Node7 -->
<g id="edge6" class="edge">
<title>Node5&#45;&gt;Node7</title>
<path fill="none" stroke="midnightblue" d="M440.7,-174.91C466.86,-169.76 499.28,-163.38 526.77,-157.97"/>
<polygon fill="midnightblue" stroke="midnightblue" points="527.51,-161.39 536.65,-156.02 526.16,-154.52 527.51,-161.39"/>
</g>
<!-- Node9 -->
<g id="node9" class="node">
<title>Node9</title>
<g id="a_node9"><a xlink:href="classlogs_1_1LoggerFactory.html#a82585b5de73e471e06cafdccc3b3721e" target="_top" xlink:title="Cette méthode statique retourne un Logger en fonction de son nom.">
<polygon fill="white" stroke="black" points="335.5,-71.5 335.5,-101.5 446.5,-101.5 446.5,-71.5 335.5,-71.5"/>
<text text-anchor="start" x="343.5" y="-89.5" font-family="Helvetica,sans-Serif" font-size="10.00">logs::LoggerFactory</text>
<text text-anchor="middle" x="391" y="-78.5" font-family="Helvetica,sans-Serif" font-size="10.00">::logger</text>
</a>
</g>
</g>
<!-- Node8&#45;&gt;Node9 -->
<g id="edge9" class="edge">
<title>Node8&#45;&gt;Node9</title>
<path fill="none" stroke="midnightblue" d="M259.43,-117.99C279.08,-113.25 303.35,-107.4 325.61,-102.03"/>
<polygon fill="midnightblue" stroke="midnightblue" points="326.43,-105.43 335.33,-99.68 324.79,-98.63 326.43,-105.43"/>
</g>
<!-- Node10 -->
<g id="node10" class="node">
<title>Node10</title>
<g id="a_node10"><a xlink:href="classlogs_1_1LoggerFactory.html#ac89f19c0ffd71aa8cdc1c2d44c03809e" target="_top" xlink:title="Cette méthode ajoute un appender au système.">
<polygon fill="white" stroke="black" points="519,-99 519,-118 653,-118 653,-99 519,-99"/>
<text text-anchor="middle" x="586" y="-106" font-family="Helvetica,sans-Serif" font-size="10.00">logs::LoggerFactory::add</text>
</a>
</g>
</g>
<!-- Node9&#45;&gt;Node10 -->
<g id="edge10" class="edge">
<title>Node9&#45;&gt;Node10</title>
<path fill="none" stroke="midnightblue" d="M446.53,-92.72C465.88,-94.92 488.03,-97.45 508.85,-99.82"/>
<polygon fill="midnightblue" stroke="midnightblue" points="508.62,-103.32 518.95,-100.97 509.41,-96.36 508.62,-103.32"/>
</g>
<!-- Node11 -->
<g id="node11" class="node">
<title>Node11</title>
<g id="a_node11"><a xlink:href="classlogs_1_1LoggerFactory.html#a90478b91d7af2ef8841ded21e3521f69" target="_top" xlink:title="Cette méthode statique retourne l&#39;instance unique de la classe LoggerFactory.">
<polygon fill="white" stroke="black" points="530.5,-49.5 530.5,-79.5 641.5,-79.5 641.5,-49.5 530.5,-49.5"/>
<text text-anchor="start" x="538.5" y="-67.5" font-family="Helvetica,sans-Serif" font-size="10.00">logs::LoggerFactory</text>
<text text-anchor="middle" x="586" y="-56.5" font-family="Helvetica,sans-Serif" font-size="10.00">::instance</text>
</a>
</g>
</g>
<!-- Node9&#45;&gt;Node11 -->
<g id="edge11" class="edge">
<title>Node9&#45;&gt;Node11</title>
<path fill="none" stroke="midnightblue" d="M446.53,-80.28C469.45,-77.67 496.3,-74.61 520.22,-71.88"/>
<polygon fill="midnightblue" stroke="midnightblue" points="520.73,-75.35 530.27,-70.74 519.94,-68.39 520.73,-75.35"/>
</g>
<!-- Node12 -->
<g id="node12" class="node">
<title>Node12</title>
<g id="a_node12"><a xlink:href="classlogs_1_1LoggerFactory.html#a212aa623f4b6bee12cb39e8017dde670" target="_top" xlink:title="Cette méthode retourne le Logger principal qui définit le niveau de trace par défaut.">
<polygon fill="white" stroke="black" points="530.5,-0.5 530.5,-30.5 641.5,-30.5 641.5,-0.5 530.5,-0.5"/>
<text text-anchor="start" x="538.5" y="-18.5" font-family="Helvetica,sans-Serif" font-size="10.00">logs::LoggerFactory</text>
<text text-anchor="middle" x="586" y="-7.5" font-family="Helvetica,sans-Serif" font-size="10.00">::rootLogger</text>
</a>
</g>
</g>
<!-- Node9&#45;&gt;Node12 -->
<g id="edge12" class="edge">
<title>Node9&#45;&gt;Node12</title>
<path fill="none" stroke="midnightblue" d="M429.63,-71.48C452.96,-62.28 483.61,-50.41 511,-40.5 517.02,-38.32 523.35,-36.09 529.65,-33.91"/>
<polygon fill="midnightblue" stroke="midnightblue" points="531.17,-37.09 539.5,-30.53 528.9,-30.47 531.17,-37.09"/>
</g>
</g>
</svg>
        <g id="navigator" transform="translate(0 0)" fill="#404254">
                <rect fill="#f2f5e9" fill-opacity="0.5" stroke="#606060" stroke-width=".5" x="0" y="0" width="60" height="60"/>
                <use id="zoomplus" xlink:href="#zoomPlus" x="17" y="9" onmousedown="handleZoom(evt,'in')"/>
                <use id="zoomminus" xlink:href="#zoomMin" x="42" y="9" onmousedown="handleZoom(evt,'out')"/>
                <use id="reset" xlink:href="#resetDef" x="30" y="36" onmousedown="handleReset()"/>
                <g id="arrowUp" xlink:href="#dirArrow" transform="translate(30 24)" onmousedown="handlePan(0,-1)">
                  <use xlink:href="#rim" fill="#404040">
                        <set attributeName="fill" to="#808080" begin="arrowUp.mouseover" end="arrowUp.mouseout"/>
                  </use>
                  <path fill="none" stroke="white" stroke-width="1.5" d="M0,-3.0v7 M-2.5,-0.5L0,-3.0L2.5,-0.5"/>
                </g>
                <g id="arrowRight" xlink:href="#dirArrow" transform="rotate(90) translate(36 -43)" onmousedown="handlePan(1,0)">
                  <use xlink:href="#rim" fill="#404040">
                        <set attributeName="fill" to="#808080" begin="arrowRight.mouseover" end="arrowRight.mouseout"/>
                  </use>
                  <path fill="none" stroke="white" stroke-width="1.5" d="M0,-3.0v7 M-2.5,-0.5L0,-3.0L2.5,-0.5"/>
                </g>
                <g id="arrowDown" xlink:href="#dirArrow" transform="rotate(180) translate(-30 -48)" onmousedown="handlePan(0,1)">
                  <use xlink:href="#rim" fill="#404040">
                        <set attributeName="fill" to="#808080" begin="arrowDown.mouseover" end="arrowDown.mouseout"/>
                  </use>
                  <path fill="none" stroke="white" stroke-width="1.5" d="M0,-3.0v7 M-2.5,-0.5L0,-3.0L2.5,-0.5"/>
                </g>
                <g id="arrowLeft" xlink:href="#dirArrow" transform="rotate(270) translate(-36 17)" onmousedown="handlePan(-1,0)">
                  <use xlink:href="#rim" fill="#404040">
                        <set attributeName="fill" to="#808080" begin="arrowLeft.mouseover" end="arrowLeft.mouseout"/>
                  </use>
                  <path fill="none" stroke="white" stroke-width="1.5" d="M0,-3.0v7 M-2.5,-0.5L0,-3.0L2.5,-0.5"/>
                </g>
        </g>
        <svg viewBox="0 0 15 15" width="100%" height="30px" preserveAspectRatio="xMaxYMin meet">
         <g id="arrow_out" transform="scale(0.3 0.3)">
          <a xlink:href="classTestAction_ae3f7cc56414d35d8160f482efdf806fb_cgraph_org.svg" target="_base">
           <rect id="button" ry="5" rx="5" y="6" x="6" height="38" width="38"
                fill="#f2f5e9" fill-opacity="0.5" stroke="#606060" stroke-width="1.0"/>
           <path id="arrow"
             d="M 11.500037,31.436501 C 11.940474,20.09759 22.043105,11.32322 32.158766,21.979434 L 37.068811,17.246167 C 37.068811,17.246167 37.088388,32 37.088388,32 L 22.160133,31.978069 C 22.160133,31.978069 26.997745,27.140456 26.997745,27.140456 C 18.528582,18.264221 13.291696,25.230495 11.500037,31.436501 z"
             style="fill:#404040;"/>
          </a>
         </g>
        </svg>
</svg>
