<?xml version="1.0" encoding="UTF-8" standalone="no"?>
<!DOCTYPE svg PUBLIC "-//W3C//DTD SVG 1.1//EN"
 "http://www.w3.org/Graphics/SVG/1.1/DTD/svg11.dtd">
<!-- Generated by graphviz version 2.43.0 (0)
 -->
<!-- Title: LedBar::startSet Pages: 1 -->
<svg width="248pt" height="104pt"
 viewBox="0.00 0.00 248.00 104.00" xmlns="http://www.w3.org/2000/svg" xmlns:xlink="http://www.w3.org/1999/xlink">
<g id="graph0" class="graph" transform="scale(1 1) rotate(0) translate(4 100)">
<title>LedBar::startSet</title>
<polygon fill="white" stroke="transparent" points="-4,4 -4,-100 244,-100 244,4 -4,4"/>
<!-- Node1 -->
<g id="node1" class="node">
<title>Node1</title>
<g id="a_node1"><a xlink:title="Lance l&#39;action de changer le statut d&#39;une led en tache parallele sur l&#39;actionmanager.">
<polygon fill="#bfbfbf" stroke="black" points="145,-38.5 145,-57.5 240,-57.5 240,-38.5 145,-38.5"/>
<text text-anchor="middle" x="192.5" y="-45.5" font-family="Helvetica,sans-Serif" font-size="10.00">LedBar::startSet</text>
</a>
</g>
</g>
<!-- Node2 -->
<g id="node2" class="node">
<title>Node2</title>
<g id="a_node2"><a xlink:href="classO__LedBarTest.html#af9e0e172d13b334cda0fe32bb659b414" target="_top" xlink:title=" ">
<polygon fill="white" stroke="black" points="2.5,-76.5 2.5,-95.5 106.5,-95.5 106.5,-76.5 2.5,-76.5"/>
<text text-anchor="middle" x="54.5" y="-83.5" font-family="Helvetica,sans-Serif" font-size="10.00">O_LedBarTest::run</text>
</a>
</g>
</g>
<!-- Node1&#45;&gt;Node2 -->
<g id="edge1" class="edge">
<title>Node1&#45;&gt;Node2</title>
<path fill="none" stroke="midnightblue" d="M147.41,-60.32C128.73,-65.54 107.28,-71.53 89.81,-76.41"/>
<polygon fill="midnightblue" stroke="midnightblue" points="148.49,-63.65 157.18,-57.59 146.61,-56.91 148.49,-63.65"/>
</g>
<!-- Node3 -->
<g id="node3" class="node">
<title>Node3</title>
<g id="a_node3"><a xlink:href="classLedBar.html#ad37f92ef4b6487afc785d739a59a32aa" target="_top" xlink:title="Désactive une led spécifique.">
<polygon fill="white" stroke="black" points="0,-38.5 0,-57.5 109,-57.5 109,-38.5 0,-38.5"/>
<text text-anchor="middle" x="54.5" y="-45.5" font-family="Helvetica,sans-Serif" font-size="10.00">LedBar::startSetOff</text>
</a>
</g>
</g>
<!-- Node1&#45;&gt;Node3 -->
<g id="edge2" class="edge">
<title>Node1&#45;&gt;Node3</title>
<path fill="none" stroke="midnightblue" d="M134.65,-48C126.29,-48 117.7,-48 109.4,-48"/>
<polygon fill="midnightblue" stroke="midnightblue" points="134.7,-51.5 144.7,-48 134.7,-44.5 134.7,-51.5"/>
</g>
<!-- Node4 -->
<g id="node4" class="node">
<title>Node4</title>
<g id="a_node4"><a xlink:href="classLedBar.html#af2eb11c44122b3206a657eb3b0b6f05e" target="_top" xlink:title="Active une led spécifique.">
<polygon fill="white" stroke="black" points="0.5,-0.5 0.5,-19.5 108.5,-19.5 108.5,-0.5 0.5,-0.5"/>
<text text-anchor="middle" x="54.5" y="-7.5" font-family="Helvetica,sans-Serif" font-size="10.00">LedBar::startSetOn</text>
</a>
</g>
</g>
<!-- Node1&#45;&gt;Node4 -->
<g id="edge3" class="edge">
<title>Node1&#45;&gt;Node4</title>
<path fill="none" stroke="midnightblue" d="M147.41,-35.68C128.73,-30.46 107.28,-24.47 89.81,-19.59"/>
<polygon fill="midnightblue" stroke="midnightblue" points="146.61,-39.09 157.18,-38.41 148.49,-32.35 146.61,-39.09"/>
</g>
</g>
</svg>
