<?xml version="1.0" encoding="UTF-8" standalone="no"?>
<!DOCTYPE svg PUBLIC "-//W3C//DTD SVG 1.1//EN"
 "http://www.w3.org/Graphics/SVG/1.1/DTD/svg11.dtd">
<!-- Generated by graphviz version 2.43.0 (0)
 -->
<!-- Title: Automate::logger Pages: 1 -->
<svg width="486pt" height="39pt"
 viewBox="0.00 0.00 486.00 39.00" xmlns="http://www.w3.org/2000/svg" xmlns:xlink="http://www.w3.org/1999/xlink">
<g id="graph0" class="graph" transform="scale(1 1) rotate(0) translate(4 35)">
<title>Automate::logger</title>
<polygon fill="white" stroke="transparent" points="-4,4 -4,-35 482,-35 482,4 -4,4"/>
<!-- Node1 -->
<g id="node1" class="node">
<title>Node1</title>
<g id="a_node1"><a xlink:title="Retourne le Logger associé à la classe Automate.">
<polygon fill="#bfbfbf" stroke="black" points="377,-6 377,-25 478,-25 478,-6 377,-6"/>
<text text-anchor="middle" x="427.5" y="-13" font-family="Helvetica,sans-Serif" font-size="10.00">Automate::logger</text>
</a>
</g>
</g>
<!-- Node2 -->
<g id="node2" class="node">
<title>Node2</title>
<g id="a_node2"><a xlink:href="classAutomate.html#a1df5d3b6c5abc353b347f4defcfde4e9" target="_top" xlink:title="Lance l&#39;automate.">
<polygon fill="white" stroke="black" points="255,-6 255,-25 341,-25 341,-6 255,-6"/>
<text text-anchor="middle" x="298" y="-13" font-family="Helvetica,sans-Serif" font-size="10.00">Automate::run</text>
</a>
</g>
</g>
<!-- Node1&#45;&gt;Node2 -->
<g id="edge1" class="edge">
<title>Node1&#45;&gt;Node2</title>
<path fill="none" stroke="midnightblue" d="M366.81,-15.5C358.19,-15.5 349.47,-15.5 341.29,-15.5"/>
<polygon fill="midnightblue" stroke="midnightblue" points="366.84,-19 376.84,-15.5 366.84,-12 366.84,-19"/>
</g>
<!-- Node3 -->
<g id="node3" class="node">
<title>Node3</title>
<g id="a_node3"><a xlink:href="classOPOS6UL__RobotExtended.html#a3af6cff5115c7ae70f7a797d9e90e66a" target="_top" xlink:title="Initialise l&#39;état du robot et le décisionmaker IA.">
<polygon fill="white" stroke="black" points="77,-0.5 77,-30.5 219,-30.5 219,-0.5 77,-0.5"/>
<text text-anchor="start" x="85" y="-18.5" font-family="Helvetica,sans-Serif" font-size="10.00">OPOS6UL_RobotExtended</text>
<text text-anchor="middle" x="148" y="-7.5" font-family="Helvetica,sans-Serif" font-size="10.00">::begin</text>
</a>
</g>
</g>
<!-- Node2&#45;&gt;Node3 -->
<g id="edge2" class="edge">
<title>Node2&#45;&gt;Node3</title>
<path fill="none" stroke="midnightblue" d="M244.73,-15.5C236.44,-15.5 227.74,-15.5 219.12,-15.5"/>
<polygon fill="midnightblue" stroke="midnightblue" points="244.99,-19 254.99,-15.5 244.98,-12 244.99,-19"/>
</g>
<!-- Node4 -->
<g id="node4" class="node">
<title>Node4</title>
<g id="a_node4"><a xlink:href="src_2bot-opos6ul_2Main_8cpp.html#a3c04138a5bfe5d72780bb7e82a18e627" target="_top" xlink:title=" ">
<polygon fill="white" stroke="black" points="0,-6 0,-25 41,-25 41,-6 0,-6"/>
<text text-anchor="middle" x="20.5" y="-13" font-family="Helvetica,sans-Serif" font-size="10.00">main</text>
</a>
</g>
</g>
<!-- Node3&#45;&gt;Node4 -->
<g id="edge3" class="edge">
<title>Node3&#45;&gt;Node4</title>
<path fill="none" stroke="midnightblue" d="M66.88,-15.5C57.41,-15.5 48.51,-15.5 41.15,-15.5"/>
<polygon fill="midnightblue" stroke="midnightblue" points="66.91,-19 76.91,-15.5 66.91,-12 66.91,-19"/>
</g>
</g>
</svg>
