<?xml version="1.0" encoding="UTF-8" standalone="no"?>
<!DOCTYPE svg PUBLIC "-//W3C//DTD SVG 1.1//EN"
 "http://www.w3.org/Graphics/SVG/1.1/DTD/svg11.dtd">
<!-- Generated by graphviz version 2.43.0 (0)
 -->
<!-- Title: AsservDriver::motion_GotoReverse Pages: 1 -->
<svg width="824pt" height="280pt"
 viewBox="0.00 0.00 824.00 280.00" xmlns="http://www.w3.org/2000/svg" xmlns:xlink="http://www.w3.org/1999/xlink">
<g id="graph0" class="graph" transform="scale(1 1) rotate(0) translate(4 276)">
<title>AsservDriver::motion_GotoReverse</title>
<polygon fill="white" stroke="transparent" points="-4,4 -4,-276 820,-276 820,4 -4,4"/>
<!-- Node1 -->
<g id="node1" class="node">
<title>Node1</title>
<g id="a_node1"><a xlink:title="Deplace le robot vers un point (marche arriere).">
<polygon fill="#bfbfbf" stroke="black" points="0,-102 0,-132 120,-132 120,-102 0,-102"/>
<text text-anchor="start" x="8" y="-120" font-family="Helvetica,sans-Serif" font-size="10.00">AsservDriver::motion</text>
<text text-anchor="middle" x="60" y="-109" font-family="Helvetica,sans-Serif" font-size="10.00">_GotoReverse</text>
</a>
</g>
</g>
<!-- Node2 -->
<g id="node2" class="node">
<title>Node2</title>
<g id="a_node2"><a xlink:href="classlogs_1_1Logger.html#a7dffc8f610014ec59b63392da16140e4" target="_top" xlink:title="Trace un message de niveau DEBUG.">
<polygon fill="white" stroke="black" points="312,-252.5 312,-271.5 424,-271.5 424,-252.5 312,-252.5"/>
<text text-anchor="middle" x="368" y="-259.5" font-family="Helvetica,sans-Serif" font-size="10.00">logs::Logger::debug</text>
</a>
</g>
</g>
<!-- Node1&#45;&gt;Node2 -->
<g id="edge1" class="edge">
<title>Node1&#45;&gt;Node2</title>
<path fill="none" stroke="midnightblue" d="M73.18,-132.13C89.82,-151.82 121.58,-185.95 156,-205 201.43,-230.14 258.58,-244.69 301.94,-252.79"/>
<polygon fill="midnightblue" stroke="midnightblue" points="301.35,-256.24 311.81,-254.57 302.59,-249.35 301.35,-256.24"/>
</g>
<!-- Node4 -->
<g id="node4" class="node">
<title>Node4</title>
<g id="a_node4"><a xlink:href="namespacelogs.html#ac6f325c6cfe6189bc8e243daa184453b" target="_top" xlink:title="Cette méthode permet de finir les flux de construction par la notation.">
<polygon fill="white" stroke="black" points="337.5,-126.5 337.5,-145.5 398.5,-145.5 398.5,-126.5 337.5,-126.5"/>
<text text-anchor="middle" x="368" y="-133.5" font-family="Helvetica,sans-Serif" font-size="10.00">logs::end</text>
</a>
</g>
</g>
<!-- Node1&#45;&gt;Node4 -->
<g id="edge3" class="edge">
<title>Node1&#45;&gt;Node4</title>
<path fill="none" stroke="midnightblue" d="M120.36,-120.69C181.34,-124.47 274.55,-130.26 327.19,-133.53"/>
<polygon fill="midnightblue" stroke="midnightblue" points="327.28,-137.04 337.47,-134.17 327.71,-130.05 327.28,-137.04"/>
</g>
<!-- Node8 -->
<g id="node8" class="node">
<title>Node8</title>
<g id="a_node8"><a xlink:href="classAsservDriver.html#a037c58098a47f261e1b2fd97cc818ff5" target="_top" xlink:title="Retourne le Logger associé à la classe AsservDriver(OPOS6UL).">
<polygon fill="white" stroke="black" points="310,-88.5 310,-107.5 426,-107.5 426,-88.5 310,-88.5"/>
<text text-anchor="middle" x="368" y="-95.5" font-family="Helvetica,sans-Serif" font-size="10.00">AsservDriver::logger</text>
</a>
</g>
</g>
<!-- Node1&#45;&gt;Node8 -->
<g id="edge8" class="edge">
<title>Node1&#45;&gt;Node8</title>
<path fill="none" stroke="midnightblue" d="M120.36,-113.31C171.8,-110.12 246.17,-105.5 299.78,-102.17"/>
<polygon fill="midnightblue" stroke="midnightblue" points="300.11,-105.66 309.87,-101.55 299.68,-98.67 300.11,-105.66"/>
</g>
<!-- Node13 -->
<g id="node13" class="node">
<title>Node13</title>
<g id="a_node13"><a xlink:href="classAsservDriver.html#aac6d437abfd359731f676f4df87ef172" target="_top" xlink:title=" ">
<polygon fill="white" stroke="black" points="156,-165 156,-195 274,-195 274,-165 156,-165"/>
<text text-anchor="start" x="164" y="-183" font-family="Helvetica,sans-Serif" font-size="10.00">AsservDriver::nucleo</text>
<text text-anchor="middle" x="215" y="-172" font-family="Helvetica,sans-Serif" font-size="10.00">_waitEndOfTraj</text>
</a>
</g>
</g>
<!-- Node1&#45;&gt;Node13 -->
<g id="edge13" class="edge">
<title>Node1&#45;&gt;Node13</title>
<path fill="none" stroke="midnightblue" d="M97.65,-132.09C118.77,-140.79 145.5,-151.8 168.02,-161.07"/>
<polygon fill="midnightblue" stroke="midnightblue" points="166.81,-164.35 177.39,-164.92 169.47,-157.88 166.81,-164.35"/>
</g>
<!-- Node16 -->
<g id="node16" class="node">
<title>Node16</title>
<g id="a_node16"><a xlink:href="classAsservDriver.html#aa655c511eb60946e7c2e8835af49abca" target="_top" xlink:title=" ">
<polygon fill="white" stroke="black" points="156,-39 156,-69 274,-69 274,-39 156,-39"/>
<text text-anchor="start" x="164" y="-57" font-family="Helvetica,sans-Serif" font-size="10.00">AsservDriver::nucleo</text>
<text text-anchor="middle" x="215" y="-46" font-family="Helvetica,sans-Serif" font-size="10.00">_writeSerialSTR</text>
</a>
</g>
</g>
<!-- Node1&#45;&gt;Node16 -->
<g id="edge20" class="edge">
<title>Node1&#45;&gt;Node16</title>
<path fill="none" stroke="midnightblue" d="M97.65,-101.91C118.77,-93.21 145.5,-82.2 168.02,-72.93"/>
<polygon fill="midnightblue" stroke="midnightblue" points="169.47,-76.12 177.39,-69.08 166.81,-69.65 169.47,-76.12"/>
</g>
<!-- Node18 -->
<g id="node18" class="node">
<title>Node18</title>
<g id="a_node18"><a xlink:href="json__3_811_82_8hpp.html#a5b9ca6dc52cf4226c68d67f895b2a1d4" target="_top" xlink:title="user&#45;defined to_string function for JSON values">
<polygon fill="white" stroke="black" points="185.5,-0.5 185.5,-19.5 244.5,-19.5 244.5,-0.5 185.5,-0.5"/>
<text text-anchor="middle" x="215" y="-7.5" font-family="Helvetica,sans-Serif" font-size="10.00">to_string</text>
</a>
</g>
</g>
<!-- Node1&#45;&gt;Node18 -->
<g id="edge22" class="edge">
<title>Node1&#45;&gt;Node18</title>
<path fill="none" stroke="midnightblue" d="M73.62,-101.8C90.51,-82.36 122.29,-48.84 156,-29 162.01,-25.46 168.77,-22.49 175.49,-20.02"/>
<polygon fill="midnightblue" stroke="midnightblue" points="176.85,-23.26 185.22,-16.76 174.62,-16.62 176.85,-23.26"/>
</g>
<!-- Node3 -->
<g id="node3" class="node">
<title>Node3</title>
<g id="a_node3"><a xlink:href="classlogs_1_1Logger.html#afa535aaf4891e02c4ff7f84d372b5b1b" target="_top" xlink:title="Méthode générique de trace d&#39;un message.">
<polygon fill="white" stroke="black" points="666,-222.5 666,-241.5 816,-241.5 816,-222.5 666,-222.5"/>
<text text-anchor="middle" x="741" y="-229.5" font-family="Helvetica,sans-Serif" font-size="10.00">logs::Logger::writeMessage</text>
</a>
</g>
</g>
<!-- Node2&#45;&gt;Node3 -->
<g id="edge2" class="edge">
<title>Node2&#45;&gt;Node3</title>
<path fill="none" stroke="midnightblue" d="M424.03,-258.43C476.87,-254.89 558.94,-249.14 630,-243 638.31,-242.28 646.98,-241.49 655.63,-240.67"/>
<polygon fill="midnightblue" stroke="midnightblue" points="656.15,-244.14 665.77,-239.7 655.48,-237.17 656.15,-244.14"/>
</g>
<!-- Node5 -->
<g id="node5" class="node">
<title>Node5</title>
<g id="a_node5"><a xlink:href="classlogs_1_1Logger_1_1LoggerBuffer.html#a0e4fd77693fd899ec1b0670354f93a02" target="_top" xlink:title="Cette méthode valide le message en cours de construction et le transmet au Logger de référence.">
<polygon fill="white" stroke="black" points="462,-157.5 462,-176.5 630,-176.5 630,-157.5 462,-157.5"/>
<text text-anchor="middle" x="546" y="-164.5" font-family="Helvetica,sans-Serif" font-size="10.00">logs::Logger::LoggerBuffer::end</text>
</a>
</g>
</g>
<!-- Node4&#45;&gt;Node5 -->
<g id="edge4" class="edge">
<title>Node4&#45;&gt;Node5</title>
<path fill="none" stroke="midnightblue" d="M398.86,-141.26C421.22,-145.2 452.64,-150.73 480.63,-155.66"/>
<polygon fill="midnightblue" stroke="midnightblue" points="480.3,-159.16 490.76,-157.45 481.52,-152.26 480.3,-159.16"/>
</g>
<!-- Node5&#45;&gt;Node3 -->
<g id="edge7" class="edge">
<title>Node5&#45;&gt;Node3</title>
<path fill="none" stroke="midnightblue" d="M569.53,-176.62C593.25,-186.54 631.83,-202.05 666,-213 673.55,-215.42 681.61,-217.74 689.52,-219.89"/>
<polygon fill="midnightblue" stroke="midnightblue" points="688.87,-223.33 699.43,-222.5 690.65,-216.56 688.87,-223.33"/>
</g>
<!-- Node6 -->
<g id="node6" class="node">
<title>Node6</title>
<g id="a_node6"><a xlink:href="classutils_1_1Mutex.html#aa584b418a5ef484f76b93e361a1d7e32" target="_top" xlink:title="Verrouille le mutex. Cette méthode doit être appelée avant d&#39;utiliser la ressource associée....">
<polygon fill="white" stroke="black" points="690.5,-184.5 690.5,-203.5 791.5,-203.5 791.5,-184.5 690.5,-184.5"/>
<text text-anchor="middle" x="741" y="-191.5" font-family="Helvetica,sans-Serif" font-size="10.00">utils::Mutex::lock</text>
</a>
</g>
</g>
<!-- Node5&#45;&gt;Node6 -->
<g id="edge5" class="edge">
<title>Node5&#45;&gt;Node6</title>
<path fill="none" stroke="midnightblue" d="M615.04,-176.52C636.4,-179.51 659.8,-182.78 680.52,-185.68"/>
<polygon fill="midnightblue" stroke="midnightblue" points="680.06,-189.15 690.45,-187.07 681.03,-182.22 680.06,-189.15"/>
</g>
<!-- Node7 -->
<g id="node7" class="node">
<title>Node7</title>
<g id="a_node7"><a xlink:href="classutils_1_1Mutex.html#a59b2079dc7f803d49f78ac9c04406cd3" target="_top" xlink:title="Déverrouille le mutex. Cette méthode doit être appelée après avoir utiliser la ressource associée.">
<polygon fill="white" stroke="black" points="684.5,-146.5 684.5,-165.5 797.5,-165.5 797.5,-146.5 684.5,-146.5"/>
<text text-anchor="middle" x="741" y="-153.5" font-family="Helvetica,sans-Serif" font-size="10.00">utils::Mutex::unlock</text>
</a>
</g>
</g>
<!-- Node5&#45;&gt;Node7 -->
<g id="edge6" class="edge">
<title>Node5&#45;&gt;Node7</title>
<path fill="none" stroke="midnightblue" d="M630.25,-162.26C644.94,-161.42 660.06,-160.56 674.19,-159.75"/>
<polygon fill="midnightblue" stroke="midnightblue" points="674.5,-163.24 684.29,-159.18 674.11,-156.25 674.5,-163.24"/>
</g>
<!-- Node9 -->
<g id="node9" class="node">
<title>Node9</title>
<g id="a_node9"><a xlink:href="classlogs_1_1LoggerFactory.html#a82585b5de73e471e06cafdccc3b3721e" target="_top" xlink:title="Cette méthode statique retourne un Logger en fonction de son nom.">
<polygon fill="white" stroke="black" points="490.5,-75 490.5,-105 601.5,-105 601.5,-75 490.5,-75"/>
<text text-anchor="start" x="498.5" y="-93" font-family="Helvetica,sans-Serif" font-size="10.00">logs::LoggerFactory</text>
<text text-anchor="middle" x="546" y="-82" font-family="Helvetica,sans-Serif" font-size="10.00">::logger</text>
</a>
</g>
</g>
<!-- Node8&#45;&gt;Node9 -->
<g id="edge9" class="edge">
<title>Node8&#45;&gt;Node9</title>
<path fill="none" stroke="midnightblue" d="M426.14,-95.4C443.34,-94.62 462.34,-93.76 480.01,-92.95"/>
<polygon fill="midnightblue" stroke="midnightblue" points="480.41,-96.44 490.24,-92.49 480.09,-89.45 480.41,-96.44"/>
</g>
<!-- Node10 -->
<g id="node10" class="node">
<title>Node10</title>
<g id="a_node10"><a xlink:href="classlogs_1_1LoggerFactory.html#ac89f19c0ffd71aa8cdc1c2d44c03809e" target="_top" xlink:title="Cette méthode ajoute un appender au système.">
<polygon fill="white" stroke="black" points="674,-108.5 674,-127.5 808,-127.5 808,-108.5 674,-108.5"/>
<text text-anchor="middle" x="741" y="-115.5" font-family="Helvetica,sans-Serif" font-size="10.00">logs::LoggerFactory::add</text>
</a>
</g>
</g>
<!-- Node9&#45;&gt;Node10 -->
<g id="edge10" class="edge">
<title>Node9&#45;&gt;Node10</title>
<path fill="none" stroke="midnightblue" d="M601.53,-97.91C620.98,-100.73 643.25,-103.96 664.16,-107"/>
<polygon fill="midnightblue" stroke="midnightblue" points="663.9,-110.5 674.3,-108.47 664.9,-103.57 663.9,-110.5"/>
</g>
<!-- Node11 -->
<g id="node11" class="node">
<title>Node11</title>
<g id="a_node11"><a xlink:href="classlogs_1_1LoggerFactory.html#a90478b91d7af2ef8841ded21e3521f69" target="_top" xlink:title="Cette méthode statique retourne l&#39;instance unique de la classe LoggerFactory.">
<polygon fill="white" stroke="black" points="685.5,-59 685.5,-89 796.5,-89 796.5,-59 685.5,-59"/>
<text text-anchor="start" x="693.5" y="-77" font-family="Helvetica,sans-Serif" font-size="10.00">logs::LoggerFactory</text>
<text text-anchor="middle" x="741" y="-66" font-family="Helvetica,sans-Serif" font-size="10.00">::instance</text>
</a>
</g>
</g>
<!-- Node9&#45;&gt;Node11 -->
<g id="edge11" class="edge">
<title>Node9&#45;&gt;Node11</title>
<path fill="none" stroke="midnightblue" d="M601.53,-85.48C624.45,-83.58 651.3,-81.35 675.22,-79.37"/>
<polygon fill="midnightblue" stroke="midnightblue" points="675.59,-82.85 685.27,-78.54 675.01,-75.88 675.59,-82.85"/>
</g>
<!-- Node12 -->
<g id="node12" class="node">
<title>Node12</title>
<g id="a_node12"><a xlink:href="classlogs_1_1LoggerFactory.html#a212aa623f4b6bee12cb39e8017dde670" target="_top" xlink:title="Cette méthode retourne le Logger principal qui définit le niveau de trace par défaut.">
<polygon fill="white" stroke="black" points="685.5,-10 685.5,-40 796.5,-40 796.5,-10 685.5,-10"/>
<text text-anchor="start" x="693.5" y="-28" font-family="Helvetica,sans-Serif" font-size="10.00">logs::LoggerFactory</text>
<text text-anchor="middle" x="741" y="-17" font-family="Helvetica,sans-Serif" font-size="10.00">::rootLogger</text>
</a>
</g>
</g>
<!-- Node9&#45;&gt;Node12 -->
<g id="edge12" class="edge">
<title>Node9&#45;&gt;Node12</title>
<path fill="none" stroke="midnightblue" d="M590.18,-74.91C612.74,-67.08 640.82,-57.42 666,-49 671.58,-47.13 677.4,-45.21 683.23,-43.3"/>
<polygon fill="midnightblue" stroke="midnightblue" points="684.56,-46.54 692.98,-40.11 682.39,-39.89 684.56,-46.54"/>
</g>
<!-- Node13&#45;&gt;Node2 -->
<g id="edge14" class="edge">
<title>Node13&#45;&gt;Node2</title>
<path fill="none" stroke="midnightblue" d="M238.23,-195.07C256.92,-207.41 284.6,-224.92 310,-238 317.18,-241.7 325.06,-245.3 332.62,-248.53"/>
<polygon fill="midnightblue" stroke="midnightblue" points="331.35,-251.8 341.93,-252.42 334.05,-245.34 331.35,-251.8"/>
</g>
<!-- Node13&#45;&gt;Node4 -->
<g id="edge15" class="edge">
<title>Node13&#45;&gt;Node4</title>
<path fill="none" stroke="midnightblue" d="M267.54,-164.98C287.15,-159.27 309.16,-152.85 327.49,-147.51"/>
<polygon fill="midnightblue" stroke="midnightblue" points="328.62,-150.83 337.25,-144.67 326.67,-144.11 328.62,-150.83"/>
</g>
<!-- Node13&#45;&gt;Node8 -->
<g id="edge18" class="edge">
<title>Node13&#45;&gt;Node8</title>
<path fill="none" stroke="midnightblue" d="M235.23,-164.85C253.6,-150.94 282.49,-130.5 310,-117 314.34,-114.87 318.97,-112.89 323.65,-111.08"/>
<polygon fill="midnightblue" stroke="midnightblue" points="325.04,-114.29 333.24,-107.59 322.65,-107.72 325.04,-114.29"/>
</g>
<!-- Node14 -->
<g id="node14" class="node">
<title>Node14</title>
<g id="a_node14"><a xlink:href="classlogs_1_1Logger.html#a8b6a2019233bc44b3c3c86c653910831" target="_top" xlink:title="Trace un message de niveau ERROR.">
<polygon fill="white" stroke="black" points="493.5,-214.5 493.5,-233.5 598.5,-233.5 598.5,-214.5 493.5,-214.5"/>
<text text-anchor="middle" x="546" y="-221.5" font-family="Helvetica,sans-Serif" font-size="10.00">logs::Logger::error</text>
</a>
</g>
</g>
<!-- Node13&#45;&gt;Node14 -->
<g id="edge16" class="edge">
<title>Node13&#45;&gt;Node14</title>
<path fill="none" stroke="midnightblue" d="M265.88,-195.04C280.03,-198.83 295.52,-202.51 310,-205 368.25,-215.02 435.56,-219.78 483.17,-222.03"/>
<polygon fill="midnightblue" stroke="midnightblue" points="483.18,-225.53 493.32,-222.48 483.49,-218.54 483.18,-225.53"/>
</g>
<!-- Node15 -->
<g id="node15" class="node">
<title>Node15</title>
<g id="a_node15"><a xlink:href="classutils_1_1Thread.html#abf0fce52d68ec9df1bd813c8b9e50da6" target="_top" xlink:title="Met en pause le thread pendant msec millisecondes.">
<polygon fill="white" stroke="black" points="313,-165 313,-195 423,-195 423,-165 313,-165"/>
<text text-anchor="start" x="321" y="-183" font-family="Helvetica,sans-Serif" font-size="10.00">utils::Thread::sleep</text>
<text text-anchor="middle" x="368" y="-172" font-family="Helvetica,sans-Serif" font-size="10.00">_for_millis</text>
</a>
</g>
</g>
<!-- Node13&#45;&gt;Node15 -->
<g id="edge19" class="edge">
<title>Node13&#45;&gt;Node15</title>
<path fill="none" stroke="midnightblue" d="M274.38,-180C283.64,-180 293.27,-180 302.66,-180"/>
<polygon fill="midnightblue" stroke="midnightblue" points="302.73,-183.5 312.73,-180 302.73,-176.5 302.73,-183.5"/>
</g>
<!-- Node14&#45;&gt;Node3 -->
<g id="edge17" class="edge">
<title>Node14&#45;&gt;Node3</title>
<path fill="none" stroke="midnightblue" d="M598.72,-226.14C616.22,-226.87 636.23,-227.7 655.59,-228.5"/>
<polygon fill="midnightblue" stroke="midnightblue" points="655.5,-232 665.64,-228.92 655.79,-225.01 655.5,-232"/>
</g>
<!-- Node17 -->
<g id="node17" class="node">
<title>Node17</title>
<g id="a_node17"><a xlink:href="classserialib.html#a6a32655c718b998e5b63d8cdc483ac6d" target="_top" xlink:title="Write a string on the current serial port.">
<polygon fill="white" stroke="black" points="312,-44.5 312,-63.5 424,-63.5 424,-44.5 312,-44.5"/>
<text text-anchor="middle" x="368" y="-51.5" font-family="Helvetica,sans-Serif" font-size="10.00">serialib::writeString</text>
</a>
</g>
</g>
<!-- Node16&#45;&gt;Node17 -->
<g id="edge21" class="edge">
<title>Node16&#45;&gt;Node17</title>
<path fill="none" stroke="midnightblue" d="M274.38,-54C283.3,-54 292.57,-54 301.63,-54"/>
<polygon fill="midnightblue" stroke="midnightblue" points="301.75,-57.5 311.75,-54 301.75,-50.5 301.75,-57.5"/>
</g>
</g>
</svg>
