<?xml version="1.0" encoding="UTF-8" standalone="no"?>
<!DOCTYPE svg PUBLIC "-//W3C//DTD SVG 1.1//EN"
 "http://www.w3.org/Graphics/SVG/1.1/DTD/svg11.dtd">
<!-- Generated by graphviz version 2.43.0 (0)
 -->
<!-- Title: Robot::telemetry Pages: 1 -->
<svg width="467pt" height="127pt"
 viewBox="0.00 0.00 467.00 126.50" xmlns="http://www.w3.org/2000/svg" xmlns:xlink="http://www.w3.org/1999/xlink">
<g id="graph0" class="graph" transform="scale(1 1) rotate(0) translate(4 122.5)">
<title>Robot::telemetry</title>
<polygon fill="white" stroke="transparent" points="-4,4 -4,-122.5 463,-122.5 463,4 -4,4"/>
<!-- Node1 -->
<g id="node1" class="node">
<title>Node1</title>
<g id="a_node1"><a xlink:title="Retourne le Logger RobotTelemetry4[ID] associe a la classe Robot. public car utilise dans Main.">
<polygon fill="#bfbfbf" stroke="black" points="360,-44.5 360,-63.5 459,-63.5 459,-44.5 360,-44.5"/>
<text text-anchor="middle" x="409.5" y="-51.5" font-family="Helvetica,sans-Serif" font-size="10.00">Robot::telemetry</text>
</a>
</g>
</g>
<!-- Node2 -->
<g id="node2" class="node">
<title>Node2</title>
<g id="a_node2"><a xlink:href="classRobot.html#a3a26291a86ba55cd33e173e70bf5ce5d" target="_top" xlink:title="Parse les paramètres de la ligne de commande et reconfigure la télémétrie si /i ou /p sont fournis.">
<polygon fill="white" stroke="black" points="185,-44.5 185,-63.5 324,-63.5 324,-44.5 185,-44.5"/>
<text text-anchor="middle" x="254.5" y="-51.5" font-family="Helvetica,sans-Serif" font-size="10.00">Robot::parseConsoleArgs</text>
</a>
</g>
</g>
<!-- Node1&#45;&gt;Node2 -->
<g id="edge1" class="edge">
<title>Node1&#45;&gt;Node2</title>
<path fill="none" stroke="midnightblue" d="M349.41,-54C341.16,-54 332.63,-54 324.22,-54"/>
<polygon fill="midnightblue" stroke="midnightblue" points="349.67,-57.5 359.67,-54 349.67,-50.5 349.67,-57.5"/>
</g>
<!-- Node3 -->
<g id="node3" class="node">
<title>Node3</title>
<g id="a_node3"><a xlink:href="classO__ServoObjectsTest.html#a88eeea465c68f251d5e892e835f6b3eb" target="_top" xlink:title=" ">
<polygon fill="white" stroke="black" points="10.5,-88 10.5,-118 138.5,-118 138.5,-88 10.5,-88"/>
<text text-anchor="start" x="18.5" y="-106" font-family="Helvetica,sans-Serif" font-size="10.00">O_ServoObjectsTest</text>
<text text-anchor="middle" x="74.5" y="-95" font-family="Helvetica,sans-Serif" font-size="10.00">::configureConsoleArgs</text>
</a>
</g>
</g>
<!-- Node2&#45;&gt;Node3 -->
<g id="edge2" class="edge">
<title>Node2&#45;&gt;Node3</title>
<path fill="none" stroke="midnightblue" d="M208.9,-66.28C185.01,-72.85 155.38,-81.01 130.12,-87.96"/>
<polygon fill="midnightblue" stroke="midnightblue" points="210.04,-69.59 218.76,-63.56 208.19,-62.84 210.04,-69.59"/>
</g>
<!-- Node4 -->
<g id="node4" class="node">
<title>Node4</title>
<g id="a_node4"><a xlink:href="classO__ServoStepTest.html#a7579a3a63e9bd65d2f20fbd5600af511" target="_top" xlink:title=" ">
<polygon fill="white" stroke="black" points="0,-39 0,-69 149,-69 149,-39 0,-39"/>
<text text-anchor="start" x="8" y="-57" font-family="Helvetica,sans-Serif" font-size="10.00">O_ServoStepTest::configure</text>
<text text-anchor="middle" x="74.5" y="-46" font-family="Helvetica,sans-Serif" font-size="10.00">ConsoleArgs</text>
</a>
</g>
</g>
<!-- Node2&#45;&gt;Node4 -->
<g id="edge3" class="edge">
<title>Node2&#45;&gt;Node4</title>
<path fill="none" stroke="midnightblue" d="M174.92,-54C166.32,-54 157.59,-54 149.05,-54"/>
<polygon fill="midnightblue" stroke="midnightblue" points="174.94,-57.5 184.94,-54 174.94,-50.5 174.94,-57.5"/>
</g>
<!-- Node5 -->
<g id="node5" class="node">
<title>Node5</title>
<g id="a_node5"><a xlink:href="src_2bot-opos6ul_2Main_8cpp.html#a3c04138a5bfe5d72780bb7e82a18e627" target="_top" xlink:title=" ">
<polygon fill="white" stroke="black" points="54,-0.5 54,-19.5 95,-19.5 95,-0.5 54,-0.5"/>
<text text-anchor="middle" x="74.5" y="-7.5" font-family="Helvetica,sans-Serif" font-size="10.00">main</text>
</a>
</g>
</g>
<!-- Node2&#45;&gt;Node5 -->
<g id="edge4" class="edge">
<title>Node2&#45;&gt;Node5</title>
<path fill="none" stroke="midnightblue" d="M205.03,-42.02C168.98,-33.11 121.64,-21.41 95.33,-14.9"/>
<polygon fill="midnightblue" stroke="midnightblue" points="204.33,-45.45 214.88,-44.45 206.01,-38.66 204.33,-45.45"/>
</g>
</g>
</svg>
