<?xml version="1.0" encoding="UTF-8" standalone="no"?>
<!DOCTYPE svg PUBLIC "-//W3C//DTD SVG 1.1//EN"
 "http://www.w3.org/Graphics/SVG/1.1/DTD/svg11.dtd">
<!-- Generated by graphviz version 2.43.0 (0)
 -->
<!-- Title: AsservDriver_mbed_i2c::execute Pages: 1 -->
<!--zoomable 253 -->
<svg id="main" version="1.1" xmlns="http://www.w3.org/2000/svg" xmlns:xlink="http://www.w3.org/1999/xlink" xml:space="preserve" onload="init(evt)">
<style type="text/css"><![CDATA[
.edge:hover path { stroke: red; }
.edge:hover polygon { stroke: red; fill: red; }
]]></style>
<script type="text/javascript"><![CDATA[
var edges = document.getElementsByTagName('g');
if (edges && edges.length) {
  for (var i=0;i<edges.length;i++) {
    if (edges[i].id.substr(0,4)=='edge') {
      edges[i].setAttribute('class','edge');
    }
  }
}
]]></script>
        <defs>
                <circle id="rim" cx="0" cy="0" r="7"/>
                <circle id="rim2" cx="0" cy="0" r="3.5"/>
                <g id="zoomPlus">
                        <use xlink:href="#rim" fill="#404040">
                                <set attributeName="fill" to="#808080" begin="zoomplus.mouseover" end="zoomplus.mouseout"/>
                        </use>
                        <path d="M-4,0h8M0,-4v8" fill="none" stroke="white" stroke-width="1.5" pointer-events="none"/>
                </g>
                <g id="zoomMin">
                        <use xlink:href="#rim" fill="#404040">
                                <set attributeName="fill" to="#808080" begin="zoomminus.mouseover" end="zoomminus.mouseout"/>
                        </use>
                        <path d="M-4,0h8" fill="none" stroke="white" stroke-width="1.5" pointer-events="none"/>
                </g>
                <g id="dirArrow">
                        <path fill="none" stroke="white" stroke-width="1.5" d="M0,-3.0v7 M-2.5,-0.5L0,-3.0L2.5,-0.5"/>
                </g>
               <g id="resetDef">
                       <use xlink:href="#rim2" fill="#404040">
                               <set attributeName="fill" to="#808080" begin="reset.mouseover" end="reset.mouseout"/>
                       </use>
               </g>
        </defs>

<script type="text/javascript">
var viewWidth = 1034;
var viewHeight = 253;
var sectionId = 'dynsection-7';
</script>
<script xlink:href="svgpan.js"/>
<svg id="graph" class="graph">
<g id="viewport">
<title>AsservDriver_mbed_i2c::execute</title>
<polygon fill="white" stroke="transparent" points="-4,4 -4,-248.5 1030,-248.5 1030,4 -4,4"/>
<!-- Node1 -->
<g id="node1" class="node">
<title>Node1</title>
<g id="a_node1"><a xlink:title="Méthode virtuelle pure à implémenter dans les sous&#45;classes.">
<polygon fill="#bfbfbf" stroke="black" points="0,-94.5 0,-124.5 132,-124.5 132,-94.5 0,-94.5"/>
<text text-anchor="start" x="8" y="-112.5" font-family="Helvetica,sans-Serif" font-size="10.00">AsservDriver_mbed_i2c</text>
<text text-anchor="middle" x="66" y="-101.5" font-family="Helvetica,sans-Serif" font-size="10.00">::execute</text>
</a>
</g>
</g>
<!-- Node2 -->
<g id="node2" class="node">
<title>Node2</title>
<g id="a_node2"><a xlink:href="classAsservDriver__mbed__i2c.html#a37154eddfd5ae5a9a9e9c2160dd8041d" target="_top" xlink:title="Lit la position courante du robot.">
<polygon fill="white" stroke="black" points="168,-143.5 168,-173.5 300,-173.5 300,-143.5 168,-143.5"/>
<text text-anchor="start" x="176" y="-161.5" font-family="Helvetica,sans-Serif" font-size="10.00">AsservDriver_mbed_i2c</text>
<text text-anchor="middle" x="234" y="-150.5" font-family="Helvetica,sans-Serif" font-size="10.00">::odo_GetPosition</text>
</a>
</g>
</g>
<!-- Node1&#45;&gt;Node2 -->
<g id="edge1" class="edge">
<title>Node1&#45;&gt;Node2</title>
<path fill="none" stroke="midnightblue" d="M118.16,-124.6C135.28,-129.66 154.53,-135.34 172.31,-140.58"/>
<polygon fill="midnightblue" stroke="midnightblue" points="171.43,-143.97 182.01,-143.45 173.41,-137.26 171.43,-143.97"/>
</g>
<!-- Node17 -->
<g id="node17" class="node">
<title>Node17</title>
<g id="a_node17"><a xlink:href="classutils_1_1Chronometer.html#a1dbc0872c71691197c8b4791c6ef3077" target="_top" xlink:title="Configure le timer avec une période donnée et lance le chronomètre.">
<polygon fill="white" stroke="black" points="180.5,-94.5 180.5,-124.5 287.5,-124.5 287.5,-94.5 180.5,-94.5"/>
<text text-anchor="start" x="188.5" y="-112.5" font-family="Helvetica,sans-Serif" font-size="10.00">utils::Chronometer</text>
<text text-anchor="middle" x="234" y="-101.5" font-family="Helvetica,sans-Serif" font-size="10.00">::setTimer</text>
</a>
</g>
</g>
<!-- Node1&#45;&gt;Node17 -->
<g id="edge18" class="edge">
<title>Node1&#45;&gt;Node17</title>
<path fill="none" stroke="midnightblue" d="M132.13,-109.5C144.62,-109.5 157.68,-109.5 170.09,-109.5"/>
<polygon fill="midnightblue" stroke="midnightblue" points="170.35,-113 180.35,-109.5 170.35,-106 170.35,-113"/>
</g>
<!-- Node18 -->
<g id="node18" class="node">
<title>Node18</title>
<g id="a_node18"><a xlink:href="classutils_1_1Chronometer.html#a821bfe0e70f7b50199557667c08dbb67" target="_top" xlink:title="Attend la fin de la période en cours.">
<polygon fill="white" stroke="black" points="180.5,-45.5 180.5,-75.5 287.5,-75.5 287.5,-45.5 180.5,-45.5"/>
<text text-anchor="start" x="188.5" y="-63.5" font-family="Helvetica,sans-Serif" font-size="10.00">utils::Chronometer</text>
<text text-anchor="middle" x="234" y="-52.5" font-family="Helvetica,sans-Serif" font-size="10.00">::waitTimer</text>
</a>
</g>
</g>
<!-- Node1&#45;&gt;Node18 -->
<g id="edge19" class="edge">
<title>Node1&#45;&gt;Node18</title>
<path fill="none" stroke="midnightblue" d="M118.16,-94.4C135.28,-89.34 154.53,-83.66 172.31,-78.42"/>
<polygon fill="midnightblue" stroke="midnightblue" points="173.41,-81.74 182.01,-75.55 171.43,-75.03 173.41,-81.74"/>
</g>
<!-- Node3 -->
<g id="node3" class="node">
<title>Node3</title>
<g id="a_node3"><a xlink:href="classAsservDriver__mbed__i2c.html#a06c890725d54ced3b72e48b978384900" target="_top" xlink:title=" ">
<polygon fill="white" stroke="black" points="336,-143.5 336,-173.5 468,-173.5 468,-143.5 336,-143.5"/>
<text text-anchor="start" x="344" y="-161.5" font-family="Helvetica,sans-Serif" font-size="10.00">AsservDriver_mbed_i2c</text>
<text text-anchor="middle" x="402" y="-150.5" font-family="Helvetica,sans-Serif" font-size="10.00">::mbed_GetPosition</text>
</a>
</g>
</g>
<!-- Node2&#45;&gt;Node3 -->
<g id="edge2" class="edge">
<title>Node2&#45;&gt;Node3</title>
<path fill="none" stroke="midnightblue" d="M300.13,-158.5C308.46,-158.5 317.04,-158.5 325.52,-158.5"/>
<polygon fill="midnightblue" stroke="midnightblue" points="325.78,-162 335.78,-158.5 325.78,-155 325.78,-162"/>
</g>
<!-- Node4 -->
<g id="node4" class="node">
<title>Node4</title>
<g id="a_node4"><a xlink:href="classlogs_1_1Logger.html#a7dffc8f610014ec59b63392da16140e4" target="_top" xlink:title="Trace un message de niveau DEBUG.">
<polygon fill="white" stroke="black" points="700,-225 700,-244 812,-244 812,-225 700,-225"/>
<text text-anchor="middle" x="756" y="-232" font-family="Helvetica,sans-Serif" font-size="10.00">logs::Logger::debug</text>
</a>
</g>
</g>
<!-- Node3&#45;&gt;Node4 -->
<g id="edge3" class="edge">
<title>Node3&#45;&gt;Node4</title>
<path fill="none" stroke="midnightblue" d="M436.51,-173.6C455.88,-181.78 480.91,-191.42 504,-197.5 565.97,-213.81 638.56,-223.54 689.69,-228.89"/>
<polygon fill="midnightblue" stroke="midnightblue" points="689.64,-232.4 699.95,-229.93 690.35,-225.44 689.64,-232.4"/>
</g>
<!-- Node6 -->
<g id="node6" class="node">
<title>Node6</title>
<g id="a_node6"><a xlink:href="namespacelogs.html#ac6f325c6cfe6189bc8e243daa184453b" target="_top" xlink:title="Cette méthode permet de finir les flux de construction par la notation.">
<polygon fill="white" stroke="black" points="539.5,-149 539.5,-168 600.5,-168 600.5,-149 539.5,-149"/>
<text text-anchor="middle" x="570" y="-156" font-family="Helvetica,sans-Serif" font-size="10.00">logs::end</text>
</a>
</g>
</g>
<!-- Node3&#45;&gt;Node6 -->
<g id="edge5" class="edge">
<title>Node3&#45;&gt;Node6</title>
<path fill="none" stroke="midnightblue" d="M468.13,-158.5C488.63,-158.5 510.66,-158.5 528.88,-158.5"/>
<polygon fill="midnightblue" stroke="midnightblue" points="529.14,-162 539.14,-158.5 529.14,-155 529.14,-162"/>
</g>
<!-- Node10 -->
<g id="node10" class="node">
<title>Node10</title>
<g id="a_node10"><a xlink:href="classlogs_1_1Logger.html#a8b6a2019233bc44b3c3c86c653910831" target="_top" xlink:title="Trace un message de niveau ERROR.">
<polygon fill="white" stroke="black" points="703.5,-187 703.5,-206 808.5,-206 808.5,-187 703.5,-187"/>
<text text-anchor="middle" x="756" y="-194" font-family="Helvetica,sans-Serif" font-size="10.00">logs::Logger::error</text>
</a>
</g>
</g>
<!-- Node3&#45;&gt;Node10 -->
<g id="edge10" class="edge">
<title>Node3&#45;&gt;Node10</title>
<path fill="none" stroke="midnightblue" d="M468.03,-171.83C479.96,-173.96 492.32,-175.96 504,-177.5 568.25,-185.95 642.28,-190.98 693.21,-193.73"/>
<polygon fill="midnightblue" stroke="midnightblue" points="693.22,-197.23 703.39,-194.26 693.59,-190.24 693.22,-197.23"/>
</g>
<!-- Node11 -->
<g id="node11" class="node">
<title>Node11</title>
<g id="a_node11"><a xlink:href="classAsservDriver__mbed__i2c.html#a7e472e2fdb2cd0e8752b210b57606e16" target="_top" xlink:title="Retourne le Logger associé à la classe AsservDriver(OPOS6UL).">
<polygon fill="white" stroke="black" points="504,-99.5 504,-129.5 636,-129.5 636,-99.5 504,-99.5"/>
<text text-anchor="start" x="512" y="-117.5" font-family="Helvetica,sans-Serif" font-size="10.00">AsservDriver_mbed_i2c</text>
<text text-anchor="middle" x="570" y="-106.5" font-family="Helvetica,sans-Serif" font-size="10.00">::logger</text>
</a>
</g>
</g>
<!-- Node3&#45;&gt;Node11 -->
<g id="edge12" class="edge">
<title>Node3&#45;&gt;Node11</title>
<path fill="none" stroke="midnightblue" d="M459.66,-143.48C473.48,-139.82 488.37,-135.87 502.6,-132.1"/>
<polygon fill="midnightblue" stroke="midnightblue" points="503.54,-135.47 512.31,-129.53 501.75,-128.71 503.54,-135.47"/>
</g>
<!-- Node16 -->
<g id="node16" class="node">
<title>Node16</title>
<g id="a_node16"><a xlink:href="classAsservDriver__mbed__i2c.html#a507e67f7b75bfe3a2959a9dbff7d302b" target="_top" xlink:title=" ">
<polygon fill="white" stroke="black" points="504,-50.5 504,-80.5 636,-80.5 636,-50.5 504,-50.5"/>
<text text-anchor="start" x="512" y="-68.5" font-family="Helvetica,sans-Serif" font-size="10.00">AsservDriver_mbed_i2c</text>
<text text-anchor="middle" x="570" y="-57.5" font-family="Helvetica,sans-Serif" font-size="10.00">::mbed_readI2c</text>
</a>
</g>
</g>
<!-- Node3&#45;&gt;Node16 -->
<g id="edge17" class="edge">
<title>Node3&#45;&gt;Node16</title>
<path fill="none" stroke="midnightblue" d="M422.67,-143.29C442.44,-128.49 474.19,-106.02 504,-90.5 507.97,-88.43 512.15,-86.44 516.39,-84.55"/>
<polygon fill="midnightblue" stroke="midnightblue" points="517.91,-87.71 525.74,-80.57 515.17,-81.27 517.91,-87.71"/>
</g>
<!-- Node5 -->
<g id="node5" class="node">
<title>Node5</title>
<g id="a_node5"><a xlink:href="classlogs_1_1Logger.html#afa535aaf4891e02c4ff7f84d372b5b1b" target="_top" xlink:title="Méthode générique de trace d&#39;un message.">
<polygon fill="white" stroke="black" points="876,-213 876,-232 1026,-232 1026,-213 876,-213"/>
<text text-anchor="middle" x="951" y="-220" font-family="Helvetica,sans-Serif" font-size="10.00">logs::Logger::writeMessage</text>
</a>
</g>
</g>
<!-- Node4&#45;&gt;Node5 -->
<g id="edge4" class="edge">
<title>Node4&#45;&gt;Node5</title>
<path fill="none" stroke="midnightblue" d="M812.05,-231.08C828.78,-230.04 847.57,-228.87 865.76,-227.74"/>
<polygon fill="midnightblue" stroke="midnightblue" points="866.03,-231.23 875.79,-227.11 865.6,-224.24 866.03,-231.23"/>
</g>
<!-- Node7 -->
<g id="node7" class="node">
<title>Node7</title>
<g id="a_node7"><a xlink:href="classlogs_1_1Logger_1_1LoggerBuffer.html#a0e4fd77693fd899ec1b0670354f93a02" target="_top" xlink:title="Cette méthode valide le message en cours de construction et le transmet au Logger de référence.">
<polygon fill="white" stroke="black" points="672,-149 672,-168 840,-168 840,-149 672,-149"/>
<text text-anchor="middle" x="756" y="-156" font-family="Helvetica,sans-Serif" font-size="10.00">logs::Logger::LoggerBuffer::end</text>
</a>
</g>
</g>
<!-- Node6&#45;&gt;Node7 -->
<g id="edge6" class="edge">
<title>Node6&#45;&gt;Node7</title>
<path fill="none" stroke="midnightblue" d="M600.56,-158.5C617.39,-158.5 639.49,-158.5 661.69,-158.5"/>
<polygon fill="midnightblue" stroke="midnightblue" points="661.88,-162 671.88,-158.5 661.88,-155 661.88,-162"/>
</g>
<!-- Node7&#45;&gt;Node5 -->
<g id="edge9" class="edge">
<title>Node7&#45;&gt;Node5</title>
<path fill="none" stroke="midnightblue" d="M812.93,-168.06C822.18,-170.56 831.52,-173.66 840,-177.5 857.98,-185.64 858.13,-195.12 876,-203.5 881.03,-205.86 886.39,-207.95 891.85,-209.81"/>
<polygon fill="midnightblue" stroke="midnightblue" points="891.12,-213.25 901.71,-212.89 893.21,-206.57 891.12,-213.25"/>
</g>
<!-- Node8 -->
<g id="node8" class="node">
<title>Node8</title>
<g id="a_node8"><a xlink:href="classutils_1_1Mutex.html#aa584b418a5ef484f76b93e361a1d7e32" target="_top" xlink:title="Verrouille le mutex. Cette méthode doit être appelée avant d&#39;utiliser la ressource associée....">
<polygon fill="white" stroke="black" points="900.5,-175 900.5,-194 1001.5,-194 1001.5,-175 900.5,-175"/>
<text text-anchor="middle" x="951" y="-182" font-family="Helvetica,sans-Serif" font-size="10.00">utils::Mutex::lock</text>
</a>
</g>
</g>
<!-- Node7&#45;&gt;Node8 -->
<g id="edge7" class="edge">
<title>Node7&#45;&gt;Node8</title>
<path fill="none" stroke="midnightblue" d="M827.77,-168.03C848.29,-170.8 870.49,-173.79 890.26,-176.45"/>
<polygon fill="midnightblue" stroke="midnightblue" points="889.98,-179.95 900.36,-177.81 890.92,-173.01 889.98,-179.95"/>
</g>
<!-- Node9 -->
<g id="node9" class="node">
<title>Node9</title>
<g id="a_node9"><a xlink:href="classutils_1_1Mutex.html#a59b2079dc7f803d49f78ac9c04406cd3" target="_top" xlink:title="Déverrouille le mutex. Cette méthode doit être appelée après avoir utiliser la ressource associée.">
<polygon fill="white" stroke="black" points="894.5,-137 894.5,-156 1007.5,-156 1007.5,-137 894.5,-137"/>
<text text-anchor="middle" x="951" y="-144" font-family="Helvetica,sans-Serif" font-size="10.00">utils::Mutex::unlock</text>
</a>
</g>
</g>
<!-- Node7&#45;&gt;Node9 -->
<g id="edge8" class="edge">
<title>Node7&#45;&gt;Node9</title>
<path fill="none" stroke="midnightblue" d="M840.25,-153.32C854.94,-152.41 870.06,-151.47 884.19,-150.59"/>
<polygon fill="midnightblue" stroke="midnightblue" points="884.52,-154.08 894.29,-149.96 884.09,-147.09 884.52,-154.08"/>
</g>
<!-- Node10&#45;&gt;Node5 -->
<g id="edge11" class="edge">
<title>Node10&#45;&gt;Node5</title>
<path fill="none" stroke="midnightblue" d="M808.72,-203.47C827.34,-205.98 848.81,-208.87 869.3,-211.63"/>
<polygon fill="midnightblue" stroke="midnightblue" points="868.89,-215.1 879.27,-212.97 869.83,-208.17 868.89,-215.1"/>
</g>
<!-- Node12 -->
<g id="node12" class="node">
<title>Node12</title>
<g id="a_node12"><a xlink:href="classlogs_1_1LoggerFactory.html#a82585b5de73e471e06cafdccc3b3721e" target="_top" xlink:title="Cette méthode statique retourne un Logger en fonction de son nom.">
<polygon fill="white" stroke="black" points="700.5,-80.5 700.5,-110.5 811.5,-110.5 811.5,-80.5 700.5,-80.5"/>
<text text-anchor="start" x="708.5" y="-98.5" font-family="Helvetica,sans-Serif" font-size="10.00">logs::LoggerFactory</text>
<text text-anchor="middle" x="756" y="-87.5" font-family="Helvetica,sans-Serif" font-size="10.00">::logger</text>
</a>
</g>
</g>
<!-- Node11&#45;&gt;Node12 -->
<g id="edge13" class="edge">
<title>Node11&#45;&gt;Node12</title>
<path fill="none" stroke="midnightblue" d="M636.13,-107.77C653.67,-105.96 672.65,-104 690.17,-102.19"/>
<polygon fill="midnightblue" stroke="midnightblue" points="690.72,-105.66 700.3,-101.15 690,-98.69 690.72,-105.66"/>
</g>
<!-- Node13 -->
<g id="node13" class="node">
<title>Node13</title>
<g id="a_node13"><a xlink:href="classlogs_1_1LoggerFactory.html#ac89f19c0ffd71aa8cdc1c2d44c03809e" target="_top" xlink:title="Cette méthode ajoute un appender au système.">
<polygon fill="white" stroke="black" points="884,-99 884,-118 1018,-118 1018,-99 884,-99"/>
<text text-anchor="middle" x="951" y="-106" font-family="Helvetica,sans-Serif" font-size="10.00">logs::LoggerFactory::add</text>
</a>
</g>
</g>
<!-- Node12&#45;&gt;Node13 -->
<g id="edge14" class="edge">
<title>Node12&#45;&gt;Node13</title>
<path fill="none" stroke="midnightblue" d="M811.53,-99.17C830.88,-100.48 853.03,-101.97 873.85,-103.37"/>
<polygon fill="midnightblue" stroke="midnightblue" points="873.74,-106.87 883.95,-104.05 874.21,-99.89 873.74,-106.87"/>
</g>
<!-- Node14 -->
<g id="node14" class="node">
<title>Node14</title>
<g id="a_node14"><a xlink:href="classlogs_1_1LoggerFactory.html#a90478b91d7af2ef8841ded21e3521f69" target="_top" xlink:title="Cette méthode statique retourne l&#39;instance unique de la classe LoggerFactory.">
<polygon fill="white" stroke="black" points="895.5,-49.5 895.5,-79.5 1006.5,-79.5 1006.5,-49.5 895.5,-49.5"/>
<text text-anchor="start" x="903.5" y="-67.5" font-family="Helvetica,sans-Serif" font-size="10.00">logs::LoggerFactory</text>
<text text-anchor="middle" x="951" y="-56.5" font-family="Helvetica,sans-Serif" font-size="10.00">::instance</text>
</a>
</g>
</g>
<!-- Node12&#45;&gt;Node14 -->
<g id="edge15" class="edge">
<title>Node12&#45;&gt;Node14</title>
<path fill="none" stroke="midnightblue" d="M811.53,-86.74C834.45,-83.06 861.3,-78.75 885.22,-74.91"/>
<polygon fill="midnightblue" stroke="midnightblue" points="885.95,-78.33 895.27,-73.29 884.84,-71.42 885.95,-78.33"/>
</g>
<!-- Node15 -->
<g id="node15" class="node">
<title>Node15</title>
<g id="a_node15"><a xlink:href="classlogs_1_1LoggerFactory.html#a212aa623f4b6bee12cb39e8017dde670" target="_top" xlink:title="Cette méthode retourne le Logger principal qui définit le niveau de trace par défaut.">
<polygon fill="white" stroke="black" points="895.5,-0.5 895.5,-30.5 1006.5,-30.5 1006.5,-0.5 895.5,-0.5"/>
<text text-anchor="start" x="903.5" y="-18.5" font-family="Helvetica,sans-Serif" font-size="10.00">logs::LoggerFactory</text>
<text text-anchor="middle" x="951" y="-7.5" font-family="Helvetica,sans-Serif" font-size="10.00">::rootLogger</text>
</a>
</g>
</g>
<!-- Node12&#45;&gt;Node15 -->
<g id="edge16" class="edge">
<title>Node12&#45;&gt;Node15</title>
<path fill="none" stroke="midnightblue" d="M786.37,-80.4C810.18,-68.48 844.79,-51.85 876,-39.5 880.82,-37.59 885.86,-35.72 890.94,-33.91"/>
<polygon fill="midnightblue" stroke="midnightblue" points="892.43,-37.1 900.73,-30.52 890.14,-30.48 892.43,-37.1"/>
</g>
</g>
</svg>
        <g id="navigator" transform="translate(0 0)" fill="#404254">
                <rect fill="#f2f5e9" fill-opacity="0.5" stroke="#606060" stroke-width=".5" x="0" y="0" width="60" height="60"/>
                <use id="zoomplus" xlink:href="#zoomPlus" x="17" y="9" onmousedown="handleZoom(evt,'in')"/>
                <use id="zoomminus" xlink:href="#zoomMin" x="42" y="9" onmousedown="handleZoom(evt,'out')"/>
                <use id="reset" xlink:href="#resetDef" x="30" y="36" onmousedown="handleReset()"/>
                <g id="arrowUp" xlink:href="#dirArrow" transform="translate(30 24)" onmousedown="handlePan(0,-1)">
                  <use xlink:href="#rim" fill="#404040">
                        <set attributeName="fill" to="#808080" begin="arrowUp.mouseover" end="arrowUp.mouseout"/>
                  </use>
                  <path fill="none" stroke="white" stroke-width="1.5" d="M0,-3.0v7 M-2.5,-0.5L0,-3.0L2.5,-0.5"/>
                </g>
                <g id="arrowRight" xlink:href="#dirArrow" transform="rotate(90) translate(36 -43)" onmousedown="handlePan(1,0)">
                  <use xlink:href="#rim" fill="#404040">
                        <set attributeName="fill" to="#808080" begin="arrowRight.mouseover" end="arrowRight.mouseout"/>
                  </use>
                  <path fill="none" stroke="white" stroke-width="1.5" d="M0,-3.0v7 M-2.5,-0.5L0,-3.0L2.5,-0.5"/>
                </g>
                <g id="arrowDown" xlink:href="#dirArrow" transform="rotate(180) translate(-30 -48)" onmousedown="handlePan(0,1)">
                  <use xlink:href="#rim" fill="#404040">
                        <set attributeName="fill" to="#808080" begin="arrowDown.mouseover" end="arrowDown.mouseout"/>
                  </use>
                  <path fill="none" stroke="white" stroke-width="1.5" d="M0,-3.0v7 M-2.5,-0.5L0,-3.0L2.5,-0.5"/>
                </g>
                <g id="arrowLeft" xlink:href="#dirArrow" transform="rotate(270) translate(-36 17)" onmousedown="handlePan(-1,0)">
                  <use xlink:href="#rim" fill="#404040">
                        <set attributeName="fill" to="#808080" begin="arrowLeft.mouseover" end="arrowLeft.mouseout"/>
                  </use>
                  <path fill="none" stroke="white" stroke-width="1.5" d="M0,-3.0v7 M-2.5,-0.5L0,-3.0L2.5,-0.5"/>
                </g>
        </g>
        <svg viewBox="0 0 15 15" width="100%" height="30px" preserveAspectRatio="xMaxYMin meet">
         <g id="arrow_out" transform="scale(0.3 0.3)">
          <a xlink:href="classAsservDriver__mbed__i2c_aceeb058d409ef084ae4cc591c21befab_cgraph_org.svg" target="_base">
           <rect id="button" ry="5" rx="5" y="6" x="6" height="38" width="38"
                fill="#f2f5e9" fill-opacity="0.5" stroke="#606060" stroke-width="1.0"/>
           <path id="arrow"
             d="M 11.500037,31.436501 C 11.940474,20.09759 22.043105,11.32322 32.158766,21.979434 L 37.068811,17.246167 C 37.068811,17.246167 37.088388,32 37.088388,32 L 22.160133,31.978069 C 22.160133,31.978069 26.997745,27.140456 26.997745,27.140456 C 18.528582,18.264221 13.291696,25.230495 11.500037,31.436501 z"
             style="fill:#404040;"/>
          </a>
         </g>
        </svg>
</svg>
