<?xml version="1.0" encoding="UTF-8" standalone="no"?>
<!DOCTYPE svg PUBLIC "-//W3C//DTD SVG 1.1//EN"
 "http://www.w3.org/Graphics/SVG/1.1/DTD/svg11.dtd">
<!-- Generated by graphviz version 2.43.0 (0)
 -->
<!-- Title: CommandManagerA::addGoToAngleReverse Pages: 1 -->
<svg width="1836pt" height="280pt"
 viewBox="0.00 0.00 1836.00 279.50" xmlns="http://www.w3.org/2000/svg" xmlns:xlink="http://www.w3.org/1999/xlink">
<g id="graph0" class="graph" transform="scale(1 1) rotate(0) translate(4 275.5)">
<title>CommandManagerA::addGoToAngleReverse</title>
<polygon fill="white" stroke="transparent" points="-4,4 -4,-275.5 1832,-275.5 1832,4 -4,4"/>
<!-- Node1 -->
<g id="node1" class="node">
<title>Node1</title>
<g id="a_node1"><a xlink:title=" ">
<polygon fill="#bfbfbf" stroke="black" points="1664,-76.5 1664,-106.5 1828,-106.5 1828,-76.5 1664,-76.5"/>
<text text-anchor="start" x="1672" y="-94.5" font-family="Helvetica,sans-Serif" font-size="10.00">CommandManagerA::addGoTo</text>
<text text-anchor="middle" x="1746" y="-83.5" font-family="Helvetica,sans-Serif" font-size="10.00">AngleReverse</text>
</a>
</g>
</g>
<!-- Node2 -->
<g id="node2" class="node">
<title>Node2</title>
<g id="a_node2"><a xlink:href="classAsservEsialR.html#a18f0ce02a39c7a1cadf7cddf15f875d5" target="_top" xlink:title="Oriente le robot face a un point.">
<polygon fill="white" stroke="black" points="1508,-76.5 1508,-106.5 1628,-106.5 1628,-76.5 1508,-76.5"/>
<text text-anchor="start" x="1516" y="-94.5" font-family="Helvetica,sans-Serif" font-size="10.00">AsservEsialR::motion</text>
<text text-anchor="middle" x="1568" y="-83.5" font-family="Helvetica,sans-Serif" font-size="10.00">_DoFace</text>
</a>
</g>
</g>
<!-- Node1&#45;&gt;Node2 -->
<g id="edge1" class="edge">
<title>Node1&#45;&gt;Node2</title>
<path fill="none" stroke="midnightblue" d="M1653.73,-91.5C1645.02,-91.5 1636.36,-91.5 1628.08,-91.5"/>
<polygon fill="midnightblue" stroke="midnightblue" points="1653.95,-95 1663.95,-91.5 1653.95,-88 1653.95,-95"/>
</g>
<!-- Node3 -->
<g id="node3" class="node">
<title>Node3</title>
<g id="a_node3"><a xlink:href="classAsserv.html#af98a1702935599e4d8f0b6cfac9c7dbe" target="_top" xlink:title=" ">
<polygon fill="white" stroke="black" points="1179.5,-82 1179.5,-101 1278.5,-101 1278.5,-82 1179.5,-82"/>
<text text-anchor="middle" x="1229" y="-89" font-family="Helvetica,sans-Serif" font-size="10.00">Asserv::doFaceTo</text>
</a>
</g>
</g>
<!-- Node2&#45;&gt;Node3 -->
<g id="edge2" class="edge">
<title>Node2&#45;&gt;Node3</title>
<path fill="none" stroke="midnightblue" d="M1497.71,-91.5C1432.38,-91.5 1336.17,-91.5 1278.63,-91.5"/>
<polygon fill="midnightblue" stroke="midnightblue" points="1497.91,-95 1507.91,-91.5 1497.91,-88 1497.91,-95"/>
</g>
<!-- Node22 -->
<g id="node22" class="node">
<title>Node22</title>
<g id="a_node22"><a xlink:href="classAsservEsialR.html#aff541fb741bcef0ae8be48fbf6c66d94" target="_top" xlink:title="Deplace le robot vers un point (marche avant).">
<polygon fill="white" stroke="black" points="1323,-120 1323,-139 1472,-139 1472,-120 1323,-120"/>
<text text-anchor="middle" x="1397.5" y="-127" font-family="Helvetica,sans-Serif" font-size="10.00">AsservEsialR::motion_Goto</text>
</a>
</g>
</g>
<!-- Node2&#45;&gt;Node22 -->
<g id="edge26" class="edge">
<title>Node2&#45;&gt;Node22</title>
<path fill="none" stroke="midnightblue" d="M1497.62,-107.15C1478.32,-111.5 1457.94,-116.1 1440.71,-119.98"/>
<polygon fill="midnightblue" stroke="midnightblue" points="1498.61,-110.51 1507.59,-104.9 1497.07,-103.68 1498.61,-110.51"/>
</g>
<!-- Node24 -->
<g id="node24" class="node">
<title>Node24</title>
<g id="a_node24"><a xlink:href="classAsservEsialR.html#a57df0bb16d2916c5cd161fa69034f3c8" target="_top" xlink:title="Deplace le robot vers un point (marche arriere).">
<polygon fill="white" stroke="black" points="1337.5,-32.5 1337.5,-62.5 1457.5,-62.5 1457.5,-32.5 1337.5,-32.5"/>
<text text-anchor="start" x="1345.5" y="-50.5" font-family="Helvetica,sans-Serif" font-size="10.00">AsservEsialR::motion</text>
<text text-anchor="middle" x="1397.5" y="-39.5" font-family="Helvetica,sans-Serif" font-size="10.00">_GotoReverse</text>
</a>
</g>
</g>
<!-- Node2&#45;&gt;Node24 -->
<g id="edge29" class="edge">
<title>Node2&#45;&gt;Node24</title>
<path fill="none" stroke="midnightblue" d="M1499.62,-73.91C1485.19,-70.14 1470.07,-66.19 1456.04,-62.53"/>
<polygon fill="midnightblue" stroke="midnightblue" points="1498.92,-77.34 1509.48,-76.48 1500.69,-70.57 1498.92,-77.34"/>
</g>
<!-- Node4 -->
<g id="node4" class="node">
<title>Node4</title>
<g id="a_node4"><a xlink:href="classIAbyPath.html#a36763cca0b7005fddde021c35f054dc7" target="_top" xlink:title=" ">
<polygon fill="white" stroke="black" points="978,-38 978,-57 1135,-57 1135,-38 978,-38"/>
<text text-anchor="middle" x="1056.5" y="-45" font-family="Helvetica,sans-Serif" font-size="10.00">IAbyPath::doPathBackwardTo</text>
</a>
</g>
</g>
<!-- Node3&#45;&gt;Node4 -->
<g id="edge3" class="edge">
<title>Node3&#45;&gt;Node4</title>
<path fill="none" stroke="midnightblue" d="M1181.26,-79.44C1153.92,-72.38 1119.88,-63.6 1094.42,-57.03"/>
<polygon fill="midnightblue" stroke="midnightblue" points="1180.45,-82.84 1191,-81.95 1182.2,-76.06 1180.45,-82.84"/>
</g>
<!-- Node8 -->
<g id="node8" class="node">
<title>Node8</title>
<g id="a_node8"><a xlink:href="classIAbyPath.html#ab95592ae87c3f666835d3fbdac8c5ffd" target="_top" xlink:title=" ">
<polygon fill="white" stroke="black" points="775.5,-76.5 775.5,-106.5 931.5,-106.5 931.5,-76.5 775.5,-76.5"/>
<text text-anchor="start" x="783.5" y="-94.5" font-family="Helvetica,sans-Serif" font-size="10.00">IAbyPath::doPathForwardAnd</text>
<text text-anchor="middle" x="853.5" y="-83.5" font-family="Helvetica,sans-Serif" font-size="10.00">FaceTo</text>
</a>
</g>
</g>
<!-- Node3&#45;&gt;Node8 -->
<g id="edge7" class="edge">
<title>Node3&#45;&gt;Node8</title>
<path fill="none" stroke="midnightblue" d="M1168.83,-91.5C1104.66,-91.5 1002.01,-91.5 931.58,-91.5"/>
<polygon fill="midnightblue" stroke="midnightblue" points="1169.17,-95 1179.17,-91.5 1169.17,-88 1169.17,-95"/>
</g>
<!-- Node9 -->
<g id="node9" class="node">
<title>Node9</title>
<g id="a_node9"><a xlink:href="classIAbyPath.html#ab1f1155d4a5565efa55a0c11b8a1abfa" target="_top" xlink:title=" ">
<polygon fill="white" stroke="black" points="982.5,-120 982.5,-139 1130.5,-139 1130.5,-120 982.5,-120"/>
<text text-anchor="middle" x="1056.5" y="-127" font-family="Helvetica,sans-Serif" font-size="10.00">IAbyPath::doPathForwardTo</text>
</a>
</g>
</g>
<!-- Node3&#45;&gt;Node9 -->
<g id="edge8" class="edge">
<title>Node3&#45;&gt;Node9</title>
<path fill="none" stroke="midnightblue" d="M1174.95,-103.32C1150.91,-108.68 1122.87,-114.93 1100.21,-119.98"/>
<polygon fill="midnightblue" stroke="midnightblue" points="1175.98,-106.68 1184.98,-101.09 1174.45,-99.85 1175.98,-106.68"/>
</g>
<!-- Node5 -->
<g id="node5" class="node">
<title>Node5</title>
<g id="a_node5"><a xlink:href="classIAbyPath.html#acc586e1ba62ffb7a21087a5ca4d2f131" target="_top" xlink:title=" ">
<polygon fill="white" stroke="black" points="765,-38 765,-57 942,-57 942,-38 765,-38"/>
<text text-anchor="middle" x="853.5" y="-45" font-family="Helvetica,sans-Serif" font-size="10.00">IAbyPath::whileMoveBackwardTo</text>
</a>
</g>
</g>
<!-- Node4&#45;&gt;Node5 -->
<g id="edge4" class="edge">
<title>Node4&#45;&gt;Node5</title>
<path fill="none" stroke="midnightblue" d="M967.54,-47.5C959.08,-47.5 950.49,-47.5 942.03,-47.5"/>
<polygon fill="midnightblue" stroke="midnightblue" points="967.79,-51 977.79,-47.5 967.79,-44 967.79,-51"/>
</g>
<!-- Node6 -->
<g id="node6" class="node">
<title>Node6</title>
<g id="a_node6"><a xlink:href="classO__AsservXYRotateTest.html#a13ccb691e37bdddc94ca53b29311e39a" target="_top" xlink:title=" ">
<polygon fill="white" stroke="black" points="571,-50 571,-69 720,-69 720,-50 571,-50"/>
<text text-anchor="middle" x="645.5" y="-57" font-family="Helvetica,sans-Serif" font-size="10.00">O_AsservXYRotateTest::run</text>
</a>
</g>
</g>
<!-- Node5&#45;&gt;Node6 -->
<g id="edge5" class="edge">
<title>Node5&#45;&gt;Node6</title>
<path fill="none" stroke="midnightblue" d="M754.66,-53.2C743.04,-53.88 731.33,-54.56 720.13,-55.21"/>
<polygon fill="midnightblue" stroke="midnightblue" points="755.06,-56.68 764.84,-52.61 754.65,-49.69 755.06,-56.68"/>
</g>
<!-- Node7 -->
<g id="node7" class="node">
<title>Node7</title>
<g id="a_node7"><a xlink:href="classIAbyPath.html#a9535c82f137778cc6cd4b159fe3d58ea" target="_top" xlink:title=" ">
<polygon fill="white" stroke="black" points="562,-0.5 562,-30.5 729,-30.5 729,-0.5 562,-0.5"/>
<text text-anchor="start" x="570" y="-18.5" font-family="Helvetica,sans-Serif" font-size="10.00">IAbyPath::whileMoveBackward</text>
<text text-anchor="middle" x="645.5" y="-7.5" font-family="Helvetica,sans-Serif" font-size="10.00">AndRotateTo</text>
</a>
</g>
</g>
<!-- Node5&#45;&gt;Node7 -->
<g id="edge6" class="edge">
<title>Node5&#45;&gt;Node7</title>
<path fill="none" stroke="midnightblue" d="M781.03,-36.4C764.33,-33.8 746.4,-31.02 729.25,-28.35"/>
<polygon fill="midnightblue" stroke="midnightblue" points="780.83,-39.91 791.25,-37.99 781.91,-32.99 780.83,-39.91"/>
</g>
<!-- Node9&#45;&gt;Node8 -->
<g id="edge9" class="edge">
<title>Node9&#45;&gt;Node8</title>
<path fill="none" stroke="midnightblue" d="M995.15,-118.09C975.18,-114.32 952.68,-110.06 931.63,-106.08"/>
<polygon fill="midnightblue" stroke="midnightblue" points="994.56,-121.54 1005.04,-119.96 995.86,-114.66 994.56,-121.54"/>
</g>
<!-- Node10 -->
<g id="node10" class="node">
<title>Node10</title>
<g id="a_node10"><a xlink:href="classIAbyPath.html#a00b7b125584bda7731696dfd5069b17c" target="_top" xlink:title=" ">
<polygon fill="white" stroke="black" points="775.5,-208.5 775.5,-238.5 931.5,-238.5 931.5,-208.5 775.5,-208.5"/>
<text text-anchor="start" x="783.5" y="-226.5" font-family="Helvetica,sans-Serif" font-size="10.00">IAbyPath::doPathForwardAnd</text>
<text text-anchor="middle" x="853.5" y="-215.5" font-family="Helvetica,sans-Serif" font-size="10.00">RotateTo</text>
</a>
</g>
</g>
<!-- Node9&#45;&gt;Node10 -->
<g id="edge10" class="edge">
<title>Node9&#45;&gt;Node10</title>
<path fill="none" stroke="midnightblue" d="M1025.82,-143.38C988.65,-160.76 925.18,-190.44 886.81,-208.39"/>
<polygon fill="midnightblue" stroke="midnightblue" points="1027.55,-146.44 1035.12,-139.03 1024.58,-140.1 1027.55,-146.44"/>
</g>
<!-- Node14 -->
<g id="node14" class="node">
<title>Node14</title>
<g id="a_node14"><a xlink:href="classIAbyPath.html#aa2a96904ea74078d56dad53979b1d999" target="_top" xlink:title=" ">
<polygon fill="white" stroke="black" points="769.5,-126 769.5,-145 937.5,-145 937.5,-126 769.5,-126"/>
<text text-anchor="middle" x="853.5" y="-133" font-family="Helvetica,sans-Serif" font-size="10.00">IAbyPath::whileMoveForwardTo</text>
</a>
</g>
</g>
<!-- Node9&#45;&gt;Node14 -->
<g id="edge15" class="edge">
<title>Node9&#45;&gt;Node14</title>
<path fill="none" stroke="midnightblue" d="M972.07,-131.99C960.74,-132.33 949.12,-132.68 937.8,-133.01"/>
<polygon fill="midnightblue" stroke="midnightblue" points="972.47,-135.48 982.37,-131.68 972.27,-128.48 972.47,-135.48"/>
</g>
<!-- Node11 -->
<g id="node11" class="node">
<title>Node11</title>
<g id="a_node11"><a xlink:href="O__IAbyPathTest_8cpp.html#ac1055b8eb7025052d58ebaf15869a480" target="_top" xlink:title=" ">
<polygon fill="white" stroke="black" points="579,-252 579,-271 712,-271 712,-252 579,-252"/>
<text text-anchor="middle" x="645.5" y="-259" font-family="Helvetica,sans-Serif" font-size="10.00">O_IAbyPathTest_action1</text>
</a>
</g>
</g>
<!-- Node10&#45;&gt;Node11 -->
<g id="edge11" class="edge">
<title>Node10&#45;&gt;Node11</title>
<path fill="none" stroke="midnightblue" d="M765.17,-239.61C742.39,-243.81 718.55,-248.21 698.27,-251.95"/>
<polygon fill="midnightblue" stroke="midnightblue" points="766.01,-243.01 775.21,-237.76 764.74,-236.13 766.01,-243.01"/>
</g>
<!-- Node13 -->
<g id="node13" class="node">
<title>Node13</title>
<g id="a_node13"><a xlink:href="O__IAbyPathTest_8cpp.html#aafb960063ea3193551e7ba63626e2561" target="_top" xlink:title=" ">
<polygon fill="white" stroke="black" points="578.5,-214 578.5,-233 712.5,-233 712.5,-214 578.5,-214"/>
<text text-anchor="middle" x="645.5" y="-221" font-family="Helvetica,sans-Serif" font-size="10.00">O_IAByPathTest_action2</text>
</a>
</g>
</g>
<!-- Node10&#45;&gt;Node13 -->
<g id="edge13" class="edge">
<title>Node10&#45;&gt;Node13</title>
<path fill="none" stroke="midnightblue" d="M764.99,-223.5C747.49,-223.5 729.38,-223.5 712.75,-223.5"/>
<polygon fill="midnightblue" stroke="midnightblue" points="765.21,-227 775.21,-223.5 765.21,-220 765.21,-227"/>
</g>
<!-- Node12 -->
<g id="node12" class="node">
<title>Node12</title>
<g id="a_node12"><a xlink:href="classO__IAByPathTest.html#abedd21fde4835d641e6aa3f8e1c6581f" target="_top" xlink:title="Configure les activités de l&#39;IA pour le test.">
<polygon fill="white" stroke="black" points="390,-233 390,-252 526,-252 526,-233 390,-233"/>
<text text-anchor="middle" x="458" y="-240" font-family="Helvetica,sans-Serif" font-size="10.00">O_IAByPathTest::IASetup</text>
</a>
</g>
</g>
<!-- Node11&#45;&gt;Node12 -->
<g id="edge12" class="edge">
<title>Node11&#45;&gt;Node12</title>
<path fill="none" stroke="midnightblue" d="M568.69,-253.73C554.59,-252.29 539.95,-250.79 526.14,-249.38"/>
<polygon fill="midnightblue" stroke="midnightblue" points="568.53,-257.24 578.84,-254.77 569.25,-250.27 568.53,-257.24"/>
</g>
<!-- Node13&#45;&gt;Node12 -->
<g id="edge14" class="edge">
<title>Node13&#45;&gt;Node12</title>
<path fill="none" stroke="midnightblue" d="M568.25,-231.31C554.27,-232.74 539.78,-234.23 526.1,-235.63"/>
<polygon fill="midnightblue" stroke="midnightblue" points="568.72,-234.78 578.32,-230.28 568.01,-227.82 568.72,-234.78"/>
</g>
<!-- Node14&#45;&gt;Node6 -->
<g id="edge18" class="edge">
<title>Node14&#45;&gt;Node6</title>
<path fill="none" stroke="midnightblue" d="M780.37,-122.6C775.03,-120.57 769.84,-118.22 765,-115.5 745,-104.26 748.99,-89.76 729,-78.5 722.08,-74.61 714.41,-71.51 706.62,-69.05"/>
<polygon fill="midnightblue" stroke="midnightblue" points="779.52,-126.01 790.12,-125.92 781.78,-119.38 779.52,-126.01"/>
</g>
<!-- Node15 -->
<g id="node15" class="node">
<title>Node15</title>
<g id="a_node15"><a xlink:href="O__State__DecisionMakerIA_8cpp.html#a1cbc5f5cba5f72b993c68f4aad4473f7" target="_top" xlink:title="Action de poussée de la prise en zone basse.">
<polygon fill="white" stroke="black" points="406,-129 406,-148 510,-148 510,-129 406,-129"/>
<text text-anchor="middle" x="458" y="-136" font-family="Helvetica,sans-Serif" font-size="10.00">O_push_prise_bas</text>
</a>
</g>
</g>
<!-- Node14&#45;&gt;Node15 -->
<g id="edge16" class="edge">
<title>Node14&#45;&gt;Node15</title>
<path fill="none" stroke="midnightblue" d="M758.75,-136.21C680.88,-136.81 573.03,-137.63 510.17,-138.11"/>
<polygon fill="midnightblue" stroke="midnightblue" points="759.08,-139.71 769.05,-136.14 759.02,-132.71 759.08,-139.71"/>
</g>
<!-- Node16 -->
<g id="node16" class="node">
<title>Node16</title>
<g id="a_node16"><a xlink:href="classO__AsservTest.html#a87e2ffa360e3e12ff5c7b81b1952a04f" target="_top" xlink:title=" ">
<polygon fill="white" stroke="black" points="593.5,-88 593.5,-107 697.5,-107 697.5,-88 593.5,-88"/>
<text text-anchor="middle" x="645.5" y="-95" font-family="Helvetica,sans-Serif" font-size="10.00">O_AsservTest::run</text>
</a>
</g>
</g>
<!-- Node14&#45;&gt;Node16 -->
<g id="edge17" class="edge">
<title>Node14&#45;&gt;Node16</title>
<path fill="none" stroke="midnightblue" d="M790.91,-124.14C761.12,-118.64 725.79,-112.13 697.52,-106.91"/>
<polygon fill="midnightblue" stroke="midnightblue" points="790.31,-127.59 800.78,-125.96 791.58,-120.7 790.31,-127.59"/>
</g>
<!-- Node17 -->
<g id="node17" class="node">
<title>Node17</title>
<g id="a_node17"><a xlink:href="classIAbyPath.html#a3f27b793f84340c99ca33e12c2380bb4" target="_top" xlink:title=" ">
<polygon fill="white" stroke="black" points="566.5,-164.5 566.5,-194.5 724.5,-194.5 724.5,-164.5 566.5,-164.5"/>
<text text-anchor="start" x="574.5" y="-182.5" font-family="Helvetica,sans-Serif" font-size="10.00">IAbyPath::whileMoveForward</text>
<text text-anchor="middle" x="645.5" y="-171.5" font-family="Helvetica,sans-Serif" font-size="10.00">AndRotateTo</text>
</a>
</g>
</g>
<!-- Node14&#45;&gt;Node17 -->
<g id="edge19" class="edge">
<title>Node14&#45;&gt;Node17</title>
<path fill="none" stroke="midnightblue" d="M797.85,-147.17C773.08,-152.46 743.47,-158.79 717.03,-164.43"/>
<polygon fill="midnightblue" stroke="midnightblue" points="798.75,-150.56 807.8,-145.05 797.29,-143.71 798.75,-150.56"/>
</g>
<!-- Node17&#45;&gt;Node15 -->
<g id="edge25" class="edge">
<title>Node17&#45;&gt;Node15</title>
<path fill="none" stroke="midnightblue" d="M566.48,-162.25C544.49,-157.39 521.37,-152.28 502.23,-148.05"/>
<polygon fill="midnightblue" stroke="midnightblue" points="565.96,-165.73 576.48,-164.47 567.47,-158.89 565.96,-165.73"/>
</g>
<!-- Node18 -->
<g id="node18" class="node">
<title>Node18</title>
<g id="a_node18"><a xlink:href="O__State__DecisionMakerIA_8cpp.html#a6af4b40e5e676265dd688e0004be0ff6" target="_top" xlink:title="Action de fin de match : rejoint la zone de fin en haut de table.">
<polygon fill="white" stroke="black" points="398.5,-170 398.5,-189 517.5,-189 517.5,-170 398.5,-170"/>
<text text-anchor="middle" x="458" y="-177" font-family="Helvetica,sans-Serif" font-size="10.00">O_end_of_match_top</text>
</a>
</g>
</g>
<!-- Node17&#45;&gt;Node18 -->
<g id="edge20" class="edge">
<title>Node17&#45;&gt;Node18</title>
<path fill="none" stroke="midnightblue" d="M556.35,-179.5C543.2,-179.5 529.93,-179.5 517.59,-179.5"/>
<polygon fill="midnightblue" stroke="midnightblue" points="556.37,-183 566.37,-179.5 556.37,-176 556.37,-183"/>
</g>
<!-- Node19 -->
<g id="node19" class="node">
<title>Node19</title>
<g id="a_node19"><a xlink:href="classO__State__DecisionMakerIA.html#a9b35f6bac1a5602ec2a711fa280be4a6" target="_top" xlink:title="Configure les activités pour les zones de jeu du match.">
<polygon fill="white" stroke="black" points="195,-189.5 195,-219.5 337,-219.5 337,-189.5 195,-189.5"/>
<text text-anchor="start" x="203" y="-207.5" font-family="Helvetica,sans-Serif" font-size="10.00">O_State_DecisionMakerIA</text>
<text text-anchor="middle" x="266" y="-196.5" font-family="Helvetica,sans-Serif" font-size="10.00">::IASetupActivitiesZone</text>
</a>
</g>
</g>
<!-- Node18&#45;&gt;Node19 -->
<g id="edge21" class="edge">
<title>Node18&#45;&gt;Node19</title>
<path fill="none" stroke="midnightblue" d="M388.24,-188.55C371.59,-190.74 353.77,-193.08 337.05,-195.28"/>
<polygon fill="midnightblue" stroke="midnightblue" points="388.99,-191.98 398.44,-187.2 388.07,-185.04 388.99,-191.98"/>
</g>
<!-- Node21 -->
<g id="node21" class="node">
<title>Node21</title>
<g id="a_node21"><a xlink:href="classO__State__DecisionMakerIA.html#a8bd1c4d72bec8768c7c7c15bd2e665d8" target="_top" xlink:title="Configure les activités pour le mode test de la table.">
<polygon fill="white" stroke="black" points="178,-140.5 178,-170.5 354,-170.5 354,-140.5 178,-140.5"/>
<text text-anchor="start" x="186" y="-158.5" font-family="Helvetica,sans-Serif" font-size="10.00">O_State_DecisionMakerIA</text>
<text text-anchor="middle" x="266" y="-147.5" font-family="Helvetica,sans-Serif" font-size="10.00">::IASetupActivitiesZoneTableTest</text>
</a>
</g>
</g>
<!-- Node18&#45;&gt;Node21 -->
<g id="edge23" class="edge">
<title>Node18&#45;&gt;Node21</title>
<path fill="none" stroke="midnightblue" d="M388.37,-170.83C377.21,-169.42 365.53,-167.95 354,-166.49"/>
<polygon fill="midnightblue" stroke="midnightblue" points="388.08,-174.32 398.44,-172.1 388.96,-167.38 388.08,-174.32"/>
</g>
<!-- Node20 -->
<g id="node20" class="node">
<title>Node20</title>
<g id="a_node20"><a xlink:href="classO__State__DecisionMakerIA.html#a96d1f2a7618d607fd10cc51b9111e653" target="_top" xlink:title="Execute l&#39;action.">
<polygon fill="white" stroke="black" points="0,-164.5 0,-194.5 142,-194.5 142,-164.5 0,-164.5"/>
<text text-anchor="start" x="8" y="-182.5" font-family="Helvetica,sans-Serif" font-size="10.00">O_State_DecisionMakerIA</text>
<text text-anchor="middle" x="71" y="-171.5" font-family="Helvetica,sans-Serif" font-size="10.00">::execute</text>
</a>
</g>
</g>
<!-- Node19&#45;&gt;Node20 -->
<g id="edge22" class="edge">
<title>Node19&#45;&gt;Node20</title>
<path fill="none" stroke="midnightblue" d="M184.62,-194.09C170.52,-192.26 155.96,-190.38 142.17,-188.59"/>
<polygon fill="midnightblue" stroke="midnightblue" points="184.41,-197.59 194.78,-195.4 185.31,-190.65 184.41,-197.59"/>
</g>
<!-- Node21&#45;&gt;Node20 -->
<g id="edge24" class="edge">
<title>Node21&#45;&gt;Node20</title>
<path fill="none" stroke="midnightblue" d="M167.67,-167.6C159.02,-168.68 150.38,-169.75 142.02,-170.79"/>
<polygon fill="midnightblue" stroke="midnightblue" points="168.33,-171.05 177.82,-166.34 167.46,-164.1 168.33,-171.05"/>
</g>
<!-- Node23 -->
<g id="node23" class="node">
<title>Node23</title>
<g id="a_node23"><a xlink:href="classAsserv.html#a3208aa1d2cc84eff11770477b79aa6f7" target="_top" xlink:title=" ">
<polygon fill="white" stroke="black" points="1184.5,-120 1184.5,-139 1273.5,-139 1273.5,-120 1184.5,-120"/>
<text text-anchor="middle" x="1229" y="-127" font-family="Helvetica,sans-Serif" font-size="10.00">Asserv::gotoXY</text>
</a>
</g>
</g>
<!-- Node22&#45;&gt;Node23 -->
<g id="edge27" class="edge">
<title>Node22&#45;&gt;Node23</title>
<path fill="none" stroke="midnightblue" d="M1312.75,-129.5C1299.34,-129.5 1285.95,-129.5 1273.96,-129.5"/>
<polygon fill="midnightblue" stroke="midnightblue" points="1312.99,-133 1322.99,-129.5 1312.99,-126 1312.99,-133"/>
</g>
<!-- Node23&#45;&gt;Node9 -->
<g id="edge28" class="edge">
<title>Node23&#45;&gt;Node9</title>
<path fill="none" stroke="midnightblue" d="M1173.87,-129.5C1160.15,-129.5 1145.18,-129.5 1130.69,-129.5"/>
<polygon fill="midnightblue" stroke="midnightblue" points="1174.09,-133 1184.09,-129.5 1174.09,-126 1174.09,-133"/>
</g>
<!-- Node25 -->
<g id="node25" class="node">
<title>Node25</title>
<g id="a_node25"><a xlink:href="classAsserv.html#ade31f4182c755e3ee09092fe9bf3d5d0" target="_top" xlink:title=" ">
<polygon fill="white" stroke="black" points="1171,-38 1171,-57 1287,-57 1287,-38 1171,-38"/>
<text text-anchor="middle" x="1229" y="-45" font-family="Helvetica,sans-Serif" font-size="10.00">Asserv::gotoReverse</text>
</a>
</g>
</g>
<!-- Node24&#45;&gt;Node25 -->
<g id="edge30" class="edge">
<title>Node24&#45;&gt;Node25</title>
<path fill="none" stroke="midnightblue" d="M1327.22,-47.5C1313.84,-47.5 1299.96,-47.5 1287.03,-47.5"/>
<polygon fill="midnightblue" stroke="midnightblue" points="1327.33,-51 1337.33,-47.5 1327.33,-44 1327.33,-51"/>
</g>
<!-- Node25&#45;&gt;Node4 -->
<g id="edge31" class="edge">
<title>Node25&#45;&gt;Node4</title>
<path fill="none" stroke="midnightblue" d="M1160.69,-47.5C1152.32,-47.5 1143.71,-47.5 1135.2,-47.5"/>
<polygon fill="midnightblue" stroke="midnightblue" points="1160.75,-51 1170.75,-47.5 1160.75,-44 1160.75,-51"/>
</g>
</g>
</svg>
