<?xml version="1.0" encoding="UTF-8" standalone="no"?>
<!DOCTYPE svg PUBLIC "-//W3C//DTD SVG 1.1//EN"
 "http://www.w3.org/Graphics/SVG/1.1/DTD/svg11.dtd">
<!-- Generated by graphviz version 2.43.0 (0)
 -->
<!-- Title: IAction::info Pages: 1 -->
<!--zoomable 357 -->
<svg id="main" version="1.1" xmlns="http://www.w3.org/2000/svg" xmlns:xlink="http://www.w3.org/1999/xlink" xml:space="preserve" onload="init(evt)">
<style type="text/css"><![CDATA[
.edge:hover path { stroke: red; }
.edge:hover polygon { stroke: red; fill: red; }
]]></style>
<script type="text/javascript"><![CDATA[
var edges = document.getElementsByTagName('g');
if (edges && edges.length) {
  for (var i=0;i<edges.length;i++) {
    if (edges[i].id.substr(0,4)=='edge') {
      edges[i].setAttribute('class','edge');
    }
  }
}
]]></script>
        <defs>
                <circle id="rim" cx="0" cy="0" r="7"/>
                <circle id="rim2" cx="0" cy="0" r="3.5"/>
                <g id="zoomPlus">
                        <use xlink:href="#rim" fill="#404040">
                                <set attributeName="fill" to="#808080" begin="zoomplus.mouseover" end="zoomplus.mouseout"/>
                        </use>
                        <path d="M-4,0h8M0,-4v8" fill="none" stroke="white" stroke-width="1.5" pointer-events="none"/>
                </g>
                <g id="zoomMin">
                        <use xlink:href="#rim" fill="#404040">
                                <set attributeName="fill" to="#808080" begin="zoomminus.mouseover" end="zoomminus.mouseout"/>
                        </use>
                        <path d="M-4,0h8" fill="none" stroke="white" stroke-width="1.5" pointer-events="none"/>
                </g>
                <g id="dirArrow">
                        <path fill="none" stroke="white" stroke-width="1.5" d="M0,-3.0v7 M-2.5,-0.5L0,-3.0L2.5,-0.5"/>
                </g>
               <g id="resetDef">
                       <use xlink:href="#rim2" fill="#404040">
                               <set attributeName="fill" to="#808080" begin="reset.mouseover" end="reset.mouseout"/>
                       </use>
               </g>
        </defs>

<script type="text/javascript">
var viewWidth = 529;
var viewHeight = 357;
var sectionId = 'dynsection-3';
</script>
<script xlink:href="svgpan.js"/>
<svg id="graph" class="graph">
<g id="viewport">
<title>IAction::info</title>
<polygon fill="white" stroke="transparent" points="-4,4 -4,-353 525,-353 525,4 -4,4"/>
<!-- Node1 -->
<g id="node1" class="node">
<title>Node1</title>
<g id="a_node1"><a xlink:title="Getter sur les infos permettant d&#39;identifier l&#39;action.">
<polygon fill="#bfbfbf" stroke="black" points="446,-153 446,-172 521,-172 521,-153 446,-153"/>
<text text-anchor="middle" x="483.5" y="-160" font-family="Helvetica,sans-Serif" font-size="10.00">IAction::info</text>
</a>
</g>
</g>
<!-- Node2 -->
<g id="node2" class="node">
<title>Node2</title>
<g id="a_node2"><a xlink:href="classActionManagerTimer.html#a40e5f9d8c2706434376d416d3e43fd3b" target="_top" xlink:title="Affiche via le logger les actions en cours.">
<polygon fill="white" stroke="black" points="252,-294.5 252,-324.5 371,-324.5 371,-294.5 252,-294.5"/>
<text text-anchor="start" x="260" y="-312.5" font-family="Helvetica,sans-Serif" font-size="10.00">ActionManagerTimer</text>
<text text-anchor="middle" x="311.5" y="-301.5" font-family="Helvetica,sans-Serif" font-size="10.00">::debugActions</text>
</a>
</g>
</g>
<!-- Node1&#45;&gt;Node2 -->
<g id="edge1" class="edge">
<title>Node1&#45;&gt;Node2</title>
<path fill="none" stroke="midnightblue" d="M476.46,-181.9C466.91,-209.31 445.64,-258.98 410,-285.5 398.67,-293.93 384.75,-299.43 371.01,-303.01"/>
<polygon fill="midnightblue" stroke="midnightblue" points="479.83,-182.86 479.65,-172.27 473.19,-180.66 479.83,-182.86"/>
</g>
<!-- Node5 -->
<g id="node5" class="node">
<title>Node5</title>
<g id="a_node5"><a xlink:href="classtest_1_1ActionManagerTimerTest.html#a884499458c4c2ffc9e66887deb786b50" target="_top" xlink:title=" ">
<polygon fill="white" stroke="black" points="240,-245.5 240,-275.5 383,-275.5 383,-245.5 240,-245.5"/>
<text text-anchor="start" x="248" y="-263.5" font-family="Helvetica,sans-Serif" font-size="10.00">test::ActionManagerTimer</text>
<text text-anchor="middle" x="311.5" y="-252.5" font-family="Helvetica,sans-Serif" font-size="10.00">Test::testActionExecution</text>
</a>
</g>
</g>
<!-- Node1&#45;&gt;Node5 -->
<g id="edge4" class="edge">
<title>Node1&#45;&gt;Node5</title>
<path fill="none" stroke="midnightblue" d="M469.92,-180.14C456.86,-197.14 434.88,-222.31 410,-236.5 401.67,-241.25 392.42,-245.07 383.03,-248.13"/>
<polygon fill="midnightblue" stroke="midnightblue" points="472.74,-182.21 475.91,-172.1 467.13,-178.03 472.74,-182.21"/>
</g>
<!-- Node6 -->
<g id="node6" class="node">
<title>Node6</title>
<g id="a_node6"><a xlink:href="classtest_1_1ActionManagerTimerTest.html#aecb0f8f988c8e448b279f917a44d3c15" target="_top" xlink:title=" ">
<polygon fill="white" stroke="black" points="213,-196.5 213,-226.5 410,-226.5 410,-196.5 213,-196.5"/>
<text text-anchor="start" x="221" y="-214.5" font-family="Helvetica,sans-Serif" font-size="10.00">test::ActionManagerTimer</text>
<text text-anchor="middle" x="311.5" y="-203.5" font-family="Helvetica,sans-Serif" font-size="10.00">Test::testActionFinishesAndRemoved</text>
</a>
</g>
</g>
<!-- Node1&#45;&gt;Node6 -->
<g id="edge5" class="edge">
<title>Node1&#45;&gt;Node6</title>
<path fill="none" stroke="midnightblue" d="M447.05,-175.44C435.33,-179.53 422.17,-183.91 410,-187.5 399.47,-190.61 388.21,-193.64 377.23,-196.44"/>
<polygon fill="midnightblue" stroke="midnightblue" points="448.25,-178.73 456.51,-172.1 445.91,-172.13 448.25,-178.73"/>
</g>
<!-- Node7 -->
<g id="node7" class="node">
<title>Node7</title>
<g id="a_node7"><a xlink:href="classtest_1_1ActionManagerTimerTest.html#adee8e1c5f938d735eee343450961d386" target="_top" xlink:title=" ">
<polygon fill="white" stroke="black" points="233.5,-147.5 233.5,-177.5 389.5,-177.5 389.5,-147.5 233.5,-147.5"/>
<text text-anchor="start" x="241.5" y="-165.5" font-family="Helvetica,sans-Serif" font-size="10.00">test::ActionManagerTimer</text>
<text text-anchor="middle" x="311.5" y="-154.5" font-family="Helvetica,sans-Serif" font-size="10.00">Test::testAddRemoveActions</text>
</a>
</g>
</g>
<!-- Node1&#45;&gt;Node7 -->
<g id="edge6" class="edge">
<title>Node1&#45;&gt;Node7</title>
<path fill="none" stroke="midnightblue" d="M435.21,-162.5C421.12,-162.5 405.29,-162.5 389.81,-162.5"/>
<polygon fill="midnightblue" stroke="midnightblue" points="435.61,-166 445.61,-162.5 435.61,-159 435.61,-166"/>
</g>
<!-- Node8 -->
<g id="node8" class="node">
<title>Node8</title>
<g id="a_node8"><a xlink:href="classtest_1_1ActionManagerTimerTest.html#afefc59394a1cab2516593e8a0cbd2057" target="_top" xlink:title=" ">
<polygon fill="white" stroke="black" points="222,-98.5 222,-128.5 401,-128.5 401,-98.5 222,-98.5"/>
<text text-anchor="start" x="230" y="-116.5" font-family="Helvetica,sans-Serif" font-size="10.00">test::ActionManagerTimer</text>
<text text-anchor="middle" x="311.5" y="-105.5" font-family="Helvetica,sans-Serif" font-size="10.00">Test::testMultipleActionsOrdering</text>
</a>
</g>
</g>
<!-- Node1&#45;&gt;Node8 -->
<g id="edge7" class="edge">
<title>Node1&#45;&gt;Node8</title>
<path fill="none" stroke="midnightblue" d="M445.5,-149.71C434.16,-145.93 421.61,-141.91 410,-138.5 398.35,-135.08 385.83,-131.68 373.79,-128.53"/>
<polygon fill="midnightblue" stroke="midnightblue" points="444.5,-153.07 455.1,-152.94 446.74,-146.43 444.5,-153.07"/>
</g>
<!-- Node9 -->
<g id="node9" class="node">
<title>Node9</title>
<g id="a_node9"><a xlink:href="classtest_1_1ActionManagerTimerTest.html#ade9c6271c876cdd3fe4b0ffd67c6448d" target="_top" xlink:title=" ">
<polygon fill="white" stroke="black" points="240,-49.5 240,-79.5 383,-79.5 383,-49.5 240,-49.5"/>
<text text-anchor="start" x="248" y="-67.5" font-family="Helvetica,sans-Serif" font-size="10.00">test::ActionManagerTimer</text>
<text text-anchor="middle" x="311.5" y="-56.5" font-family="Helvetica,sans-Serif" font-size="10.00">Test::testPauseResume</text>
</a>
</g>
</g>
<!-- Node1&#45;&gt;Node9 -->
<g id="edge8" class="edge">
<title>Node1&#45;&gt;Node9</title>
<path fill="none" stroke="midnightblue" d="M469.26,-144.42C456.07,-127.71 434.33,-103.43 410,-89.5 401.66,-84.73 392.4,-80.85 383.01,-77.7"/>
<polygon fill="midnightblue" stroke="midnightblue" points="466.82,-146.99 475.67,-152.81 472.38,-142.74 466.82,-146.99"/>
</g>
<!-- Node10 -->
<g id="node10" class="node">
<title>Node10</title>
<g id="a_node10"><a xlink:href="classtest_1_1ActionManagerTimerTest.html#a1bda8503d8fc7a68576ebb45dfdf9264" target="_top" xlink:title=" ">
<polygon fill="white" stroke="black" points="240,-0.5 240,-30.5 383,-30.5 383,-0.5 240,-0.5"/>
<text text-anchor="start" x="248" y="-18.5" font-family="Helvetica,sans-Serif" font-size="10.00">test::ActionManagerTimer</text>
<text text-anchor="middle" x="311.5" y="-7.5" font-family="Helvetica,sans-Serif" font-size="10.00">Test::testStopRestart</text>
</a>
</g>
</g>
<!-- Node1&#45;&gt;Node10 -->
<g id="edge9" class="edge">
<title>Node1&#45;&gt;Node10</title>
<path fill="none" stroke="midnightblue" d="M476.38,-143.3C466.73,-116.17 445.34,-66.97 410,-40.5 402.03,-34.53 392.77,-29.98 383.2,-26.51"/>
<polygon fill="midnightblue" stroke="midnightblue" points="473.09,-144.48 479.61,-152.83 479.72,-142.24 473.09,-144.48"/>
</g>
<!-- Node3 -->
<g id="node3" class="node">
<title>Node3</title>
<g id="a_node3"><a xlink:href="classtest_1_1ActionManagerTimerManualTest.html#a855c2cedf0a1cc5a87266dc9bf97f39f" target="_top" xlink:title=" ">
<polygon fill="white" stroke="black" points="8,-318.5 8,-348.5 169,-348.5 169,-318.5 8,-318.5"/>
<text text-anchor="start" x="16" y="-336.5" font-family="Helvetica,sans-Serif" font-size="10.00">test::ActionManagerTimer</text>
<text text-anchor="middle" x="88.5" y="-325.5" font-family="Helvetica,sans-Serif" font-size="10.00">ManualTest::testExecutePosix</text>
</a>
</g>
</g>
<!-- Node2&#45;&gt;Node3 -->
<g id="edge2" class="edge">
<title>Node2&#45;&gt;Node3</title>
<path fill="none" stroke="midnightblue" d="M241.85,-316.96C218.84,-319.45 193,-322.26 169.23,-324.84"/>
<polygon fill="midnightblue" stroke="midnightblue" points="242.29,-320.43 251.86,-315.87 241.54,-313.47 242.29,-320.43"/>
</g>
<!-- Node4 -->
<g id="node4" class="node">
<title>Node4</title>
<g id="a_node4"><a xlink:href="classtest_1_1ActionManagerTimerManualTest.html#a5dba12ac2a53c770cbaccaeea38ec81d" target="_top" xlink:title=" ">
<polygon fill="white" stroke="black" points="0,-269.5 0,-299.5 177,-299.5 177,-269.5 0,-269.5"/>
<text text-anchor="start" x="8" y="-287.5" font-family="Helvetica,sans-Serif" font-size="10.00">test::ActionManagerTimer</text>
<text text-anchor="middle" x="88.5" y="-276.5" font-family="Helvetica,sans-Serif" font-size="10.00">ManualTest::testExecutePosixBig</text>
</a>
</g>
</g>
<!-- Node2&#45;&gt;Node4 -->
<g id="edge3" class="edge">
<title>Node2&#45;&gt;Node4</title>
<path fill="none" stroke="midnightblue" d="M241.71,-301.72C221.27,-299.41 198.61,-296.84 177.15,-294.42"/>
<polygon fill="midnightblue" stroke="midnightblue" points="241.53,-305.22 251.86,-302.87 242.31,-298.26 241.53,-305.22"/>
</g>
</g>
</svg>
        <g id="navigator" transform="translate(0 0)" fill="#404254">
                <rect fill="#f2f5e9" fill-opacity="0.5" stroke="#606060" stroke-width=".5" x="0" y="0" width="60" height="60"/>
                <use id="zoomplus" xlink:href="#zoomPlus" x="17" y="9" onmousedown="handleZoom(evt,'in')"/>
                <use id="zoomminus" xlink:href="#zoomMin" x="42" y="9" onmousedown="handleZoom(evt,'out')"/>
                <use id="reset" xlink:href="#resetDef" x="30" y="36" onmousedown="handleReset()"/>
                <g id="arrowUp" xlink:href="#dirArrow" transform="translate(30 24)" onmousedown="handlePan(0,-1)">
                  <use xlink:href="#rim" fill="#404040">
                        <set attributeName="fill" to="#808080" begin="arrowUp.mouseover" end="arrowUp.mouseout"/>
                  </use>
                  <path fill="none" stroke="white" stroke-width="1.5" d="M0,-3.0v7 M-2.5,-0.5L0,-3.0L2.5,-0.5"/>
                </g>
                <g id="arrowRight" xlink:href="#dirArrow" transform="rotate(90) translate(36 -43)" onmousedown="handlePan(1,0)">
                  <use xlink:href="#rim" fill="#404040">
                        <set attributeName="fill" to="#808080" begin="arrowRight.mouseover" end="arrowRight.mouseout"/>
                  </use>
                  <path fill="none" stroke="white" stroke-width="1.5" d="M0,-3.0v7 M-2.5,-0.5L0,-3.0L2.5,-0.5"/>
                </g>
                <g id="arrowDown" xlink:href="#dirArrow" transform="rotate(180) translate(-30 -48)" onmousedown="handlePan(0,1)">
                  <use xlink:href="#rim" fill="#404040">
                        <set attributeName="fill" to="#808080" begin="arrowDown.mouseover" end="arrowDown.mouseout"/>
                  </use>
                  <path fill="none" stroke="white" stroke-width="1.5" d="M0,-3.0v7 M-2.5,-0.5L0,-3.0L2.5,-0.5"/>
                </g>
                <g id="arrowLeft" xlink:href="#dirArrow" transform="rotate(270) translate(-36 17)" onmousedown="handlePan(-1,0)">
                  <use xlink:href="#rim" fill="#404040">
                        <set attributeName="fill" to="#808080" begin="arrowLeft.mouseover" end="arrowLeft.mouseout"/>
                  </use>
                  <path fill="none" stroke="white" stroke-width="1.5" d="M0,-3.0v7 M-2.5,-0.5L0,-3.0L2.5,-0.5"/>
                </g>
        </g>
        <svg viewBox="0 0 15 15" width="100%" height="30px" preserveAspectRatio="xMaxYMin meet">
         <g id="arrow_out" transform="scale(0.3 0.3)">
          <a xlink:href="classIAction_a974d617d71344d64d2af7739a9e88d30_icgraph_org.svg" target="_base">
           <rect id="button" ry="5" rx="5" y="6" x="6" height="38" width="38"
                fill="#f2f5e9" fill-opacity="0.5" stroke="#606060" stroke-width="1.0"/>
           <path id="arrow"
             d="M 11.500037,31.436501 C 11.940474,20.09759 22.043105,11.32322 32.158766,21.979434 L 37.068811,17.246167 C 37.068811,17.246167 37.088388,32 37.088388,32 L 22.160133,31.978069 C 22.160133,31.978069 26.997745,27.140456 26.997745,27.140456 C 18.528582,18.264221 13.291696,25.230495 11.500037,31.436501 z"
             style="fill:#404040;"/>
          </a>
         </g>
        </svg>
</svg>
