<?xml version="1.0" encoding="UTF-8" standalone="no"?>
<!DOCTYPE svg PUBLIC "-//W3C//DTD SVG 1.1//EN"
 "http://www.w3.org/Graphics/SVG/1.1/DTD/svg11.dtd">
<!-- Generated by graphviz version 2.43.0 (0)
 -->
<!-- Title: logs::Logger::writeMessage Pages: 1 -->
<!--zoomable 620 -->
<svg id="main" version="1.1" xmlns="http://www.w3.org/2000/svg" xmlns:xlink="http://www.w3.org/1999/xlink" xml:space="preserve" onload="init(evt)">
<style type="text/css"><![CDATA[
.edge:hover path { stroke: red; }
.edge:hover polygon { stroke: red; fill: red; }
]]></style>
<script type="text/javascript"><![CDATA[
var edges = document.getElementsByTagName('g');
if (edges && edges.length) {
  for (var i=0;i<edges.length;i++) {
    if (edges[i].id.substr(0,4)=='edge') {
      edges[i].setAttribute('class','edge');
    }
  }
}
]]></script>
        <defs>
                <circle id="rim" cx="0" cy="0" r="7"/>
                <circle id="rim2" cx="0" cy="0" r="3.5"/>
                <g id="zoomPlus">
                        <use xlink:href="#rim" fill="#404040">
                                <set attributeName="fill" to="#808080" begin="zoomplus.mouseover" end="zoomplus.mouseout"/>
                        </use>
                        <path d="M-4,0h8M0,-4v8" fill="none" stroke="white" stroke-width="1.5" pointer-events="none"/>
                </g>
                <g id="zoomMin">
                        <use xlink:href="#rim" fill="#404040">
                                <set attributeName="fill" to="#808080" begin="zoomminus.mouseover" end="zoomminus.mouseout"/>
                        </use>
                        <path d="M-4,0h8" fill="none" stroke="white" stroke-width="1.5" pointer-events="none"/>
                </g>
                <g id="dirArrow">
                        <path fill="none" stroke="white" stroke-width="1.5" d="M0,-3.0v7 M-2.5,-0.5L0,-3.0L2.5,-0.5"/>
                </g>
               <g id="resetDef">
                       <use xlink:href="#rim2" fill="#404040">
                               <set attributeName="fill" to="#808080" begin="reset.mouseover" end="reset.mouseout"/>
                       </use>
               </g>
        </defs>

<script type="text/javascript">
var viewWidth = 867;
var viewHeight = 620;
var sectionId = 'dynsection-15';
</script>
<script xlink:href="svgpan.js"/>
<svg id="graph" class="graph">
<g id="viewport">
<title>logs::Logger::writeMessage</title>
<polygon fill="white" stroke="transparent" points="-4,4 -4,-615.5 863,-615.5 863,4 -4,4"/>
<!-- Node1 -->
<g id="node1" class="node">
<title>Node1</title>
<g id="a_node1"><a xlink:title="Méthode générique de trace d&#39;un message.">
<polygon fill="#bfbfbf" stroke="black" points="709,-401 709,-420 859,-420 859,-401 709,-401"/>
<text text-anchor="middle" x="784" y="-408" font-family="Helvetica,sans-Serif" font-size="10.00">logs::Logger::writeMessage</text>
</a>
</g>
</g>
<!-- Node2 -->
<g id="node2" class="node">
<title>Node2</title>
<g id="a_node2"><a xlink:href="classlogs_1_1Logger.html#a7dffc8f610014ec59b63392da16140e4" target="_top" xlink:title="Trace un message de niveau DEBUG.">
<polygon fill="white" stroke="black" points="357,-445 357,-464 469,-464 469,-445 357,-445"/>
<text text-anchor="middle" x="413" y="-452" font-family="Helvetica,sans-Serif" font-size="10.00">logs::Logger::debug</text>
</a>
</g>
</g>
<!-- Node1&#45;&gt;Node2 -->
<g id="edge1" class="edge">
<title>Node1&#45;&gt;Node2</title>
<path fill="none" stroke="midnightblue" d="M698.59,-420.56C628.19,-428.96 529.91,-440.68 469.2,-447.92"/>
<polygon fill="midnightblue" stroke="midnightblue" points="699.26,-424.01 708.77,-419.35 698.43,-417.06 699.26,-424.01"/>
</g>
<!-- Node6 -->
<g id="node6" class="node">
<title>Node6</title>
<g id="a_node6"><a xlink:href="classlogs_1_1Logger_1_1LoggerBuffer.html#a0e4fd77693fd899ec1b0670354f93a02" target="_top" xlink:title="Cette méthode valide le message en cours de construction et le transmet au Logger de référence.">
<polygon fill="white" stroke="black" points="505,-363 505,-382 673,-382 673,-363 505,-363"/>
<text text-anchor="middle" x="589" y="-370" font-family="Helvetica,sans-Serif" font-size="10.00">logs::Logger::LoggerBuffer::end</text>
</a>
</g>
</g>
<!-- Node1&#45;&gt;Node6 -->
<g id="edge6" class="edge">
<title>Node1&#45;&gt;Node6</title>
<path fill="none" stroke="midnightblue" d="M724.4,-398.96C696.87,-393.54 664.45,-387.16 638.35,-382.02"/>
<polygon fill="midnightblue" stroke="midnightblue" points="723.81,-402.41 734.3,-400.91 725.16,-395.55 723.81,-402.41"/>
</g>
<!-- Node21 -->
<g id="node21" class="node">
<title>Node21</title>
<g id="a_node21"><a xlink:href="classlogs_1_1Logger.html#a8b6a2019233bc44b3c3c86c653910831" target="_top" xlink:title="Trace un message de niveau ERROR.">
<polygon fill="white" stroke="black" points="360.5,-529 360.5,-548 465.5,-548 465.5,-529 360.5,-529"/>
<text text-anchor="middle" x="413" y="-536" font-family="Helvetica,sans-Serif" font-size="10.00">logs::Logger::error</text>
</a>
</g>
</g>
<!-- Node1&#45;&gt;Node21 -->
<g id="edge22" class="edge">
<title>Node1&#45;&gt;Node21</title>
<path fill="none" stroke="midnightblue" d="M761.86,-426.19C740.47,-441.36 705.95,-463.99 673,-477.5 603.97,-505.81 518.96,-522.68 465.6,-531.27"/>
<polygon fill="midnightblue" stroke="midnightblue" points="764.11,-428.88 770.18,-420.19 760.02,-423.2 764.11,-428.88"/>
</g>
<!-- Node22 -->
<g id="node22" class="node">
<title>Node22</title>
<g id="a_node22"><a xlink:href="classlogs_1_1Logger_1_1LoggerBuffer.html#aee16dd078779a8154f1b3d7238748a6f" target="_top" xlink:title=" ">
<polygon fill="white" stroke="black" points="517,-313.5 517,-343.5 661,-343.5 661,-313.5 517,-313.5"/>
<text text-anchor="start" x="525" y="-331.5" font-family="Helvetica,sans-Serif" font-size="10.00">logs::Logger::LoggerBuffer</text>
<text text-anchor="middle" x="589" y="-320.5" font-family="Helvetica,sans-Serif" font-size="10.00">::flush</text>
</a>
</g>
</g>
<!-- Node1&#45;&gt;Node22 -->
<g id="edge25" class="edge">
<title>Node1&#45;&gt;Node22</title>
<path fill="none" stroke="midnightblue" d="M757.72,-395.69C735.83,-383.27 703.04,-365.68 673,-353.5 664.21,-349.94 654.73,-346.61 645.41,-343.63"/>
<polygon fill="midnightblue" stroke="midnightblue" points="756.27,-398.88 766.68,-400.82 759.75,-392.81 756.27,-398.88"/>
</g>
<!-- Node27 -->
<g id="node27" class="node">
<title>Node27</title>
<g id="a_node27"><a xlink:href="classlogs_1_1Logger.html#aa381165771d00a6a1e3aa9664bf6467f" target="_top" xlink:title="Trace un message de niveau INFO.">
<polygon fill="white" stroke="black" points="362.5,-398 362.5,-417 463.5,-417 463.5,-398 362.5,-398"/>
<text text-anchor="middle" x="413" y="-405" font-family="Helvetica,sans-Serif" font-size="10.00">logs::Logger::info</text>
</a>
</g>
</g>
<!-- Node1&#45;&gt;Node27 -->
<g id="edge30" class="edge">
<title>Node1&#45;&gt;Node27</title>
<path fill="none" stroke="midnightblue" d="M698.73,-409.81C626.13,-409.22 523.79,-408.39 463.63,-407.9"/>
<polygon fill="midnightblue" stroke="midnightblue" points="698.74,-413.32 708.77,-409.9 698.8,-406.32 698.74,-413.32"/>
</g>
<!-- Node28 -->
<g id="node28" class="node">
<title>Node28</title>
<g id="a_node28"><a xlink:href="classlogs_1_1Logger.html#ae55afdeeb1bc9acb6dc02a3e2d06062f" target="_top" xlink:title="Trace un message de niveau TELEM.">
<polygon fill="white" stroke="black" points="524,-275 524,-294 654,-294 654,-275 524,-275"/>
<text text-anchor="middle" x="589" y="-282" font-family="Helvetica,sans-Serif" font-size="10.00">logs::Logger::telemetry</text>
</a>
</g>
</g>
<!-- Node1&#45;&gt;Node28 -->
<g id="edge39" class="edge">
<title>Node1&#45;&gt;Node28</title>
<path fill="none" stroke="midnightblue" d="M769.62,-392.68C750.76,-368.85 714.03,-327 673,-304.5 665.07,-300.15 656.21,-296.74 647.31,-294.07"/>
<polygon fill="midnightblue" stroke="midnightblue" points="767.06,-395.08 775.95,-400.85 772.6,-390.8 767.06,-395.08"/>
</g>
<!-- Node29 -->
<g id="node29" class="node">
<title>Node29</title>
<g id="a_node29"><a xlink:href="classlogs_1_1Logger.html#a240e8d7b58195c85bd7b4e4a3417d955" target="_top" xlink:title="Trace un message de niveau WARN.">
<polygon fill="white" stroke="black" points="360,-483 360,-502 466,-502 466,-483 360,-483"/>
<text text-anchor="middle" x="413" y="-490" font-family="Helvetica,sans-Serif" font-size="10.00">logs::Logger::warn</text>
</a>
</g>
</g>
<!-- Node1&#45;&gt;Node29 -->
<g id="edge40" class="edge">
<title>Node1&#45;&gt;Node29</title>
<path fill="none" stroke="midnightblue" d="M748.34,-423.67C726.88,-431.45 698.63,-441 673,-447.5 602.22,-465.44 518.74,-478.53 466.09,-485.83"/>
<polygon fill="midnightblue" stroke="midnightblue" points="749.8,-426.86 757.99,-420.13 747.39,-420.29 749.8,-426.86"/>
</g>
<!-- Node3 -->
<g id="node3" class="node">
<title>Node3</title>
<g id="a_node3"><a xlink:href="classtest_1_1LoggerTest.html#a3b9ae6dbc586a91732890bbebc8f49ad" target="_top" xlink:title="Vérifie les messages simples (debug, info, warn, error).">
<polygon fill="white" stroke="black" points="168,-523.5 168,-553.5 320,-553.5 320,-523.5 168,-523.5"/>
<text text-anchor="start" x="176" y="-541.5" font-family="Helvetica,sans-Serif" font-size="10.00">test::LoggerTest::testSimple</text>
<text text-anchor="middle" x="244" y="-530.5" font-family="Helvetica,sans-Serif" font-size="10.00">Messages</text>
</a>
</g>
</g>
<!-- Node2&#45;&gt;Node3 -->
<g id="edge2" class="edge">
<title>Node2&#45;&gt;Node3</title>
<path fill="none" stroke="midnightblue" d="M366.24,-468.19C363.01,-469.79 359.9,-471.55 357,-473.5 336.87,-487.02 341.31,-501.25 321,-514.5 315.79,-517.9 310.06,-520.85 304.15,-523.4"/>
<polygon fill="midnightblue" stroke="midnightblue" points="367.77,-471.34 375.52,-464.11 364.95,-464.93 367.77,-471.34"/>
</g>
<!-- Node5 -->
<g id="node5" class="node">
<title>Node5</title>
<g id="a_node5"><a xlink:href="classtest_1_1LoggerTest.html#a49ceaa16cfc816d22253860fad8ad59e" target="_top" xlink:title="Vérifie les messages via l&#39;API stream (&lt;&lt;).">
<polygon fill="white" stroke="black" points="167,-474.5 167,-504.5 321,-504.5 321,-474.5 167,-474.5"/>
<text text-anchor="start" x="175" y="-492.5" font-family="Helvetica,sans-Serif" font-size="10.00">test::LoggerTest::testStream</text>
<text text-anchor="middle" x="244" y="-481.5" font-family="Helvetica,sans-Serif" font-size="10.00">Messages</text>
</a>
</g>
</g>
<!-- Node2&#45;&gt;Node5 -->
<g id="edge4" class="edge">
<title>Node2&#45;&gt;Node5</title>
<path fill="none" stroke="midnightblue" d="M356.39,-466.16C343.65,-468.83 329.93,-471.7 316.63,-474.49"/>
<polygon fill="midnightblue" stroke="midnightblue" points="357.3,-469.54 366.37,-464.06 355.86,-462.69 357.3,-469.54"/>
</g>
<!-- Node4 -->
<g id="node4" class="node">
<title>Node4</title>
<g id="a_node4"><a xlink:href="classtest_1_1LoggerTest.html#af4c75dbd29735b88c4aaf349bc9d4caf" target="_top" xlink:title="Execute les tests associés à la classe.">
<polygon fill="white" stroke="black" points="3.5,-488 3.5,-507 127.5,-507 127.5,-488 3.5,-488"/>
<text text-anchor="middle" x="65.5" y="-495" font-family="Helvetica,sans-Serif" font-size="10.00">test::LoggerTest::suite</text>
</a>
</g>
</g>
<!-- Node3&#45;&gt;Node4 -->
<g id="edge3" class="edge">
<title>Node3&#45;&gt;Node4</title>
<path fill="none" stroke="midnightblue" d="M168.48,-521.19C147.64,-516.35 125.76,-511.27 107.63,-507.05"/>
<polygon fill="midnightblue" stroke="midnightblue" points="167.75,-524.61 178.28,-523.47 169.33,-517.79 167.75,-524.61"/>
</g>
<!-- Node5&#45;&gt;Node4 -->
<g id="edge5" class="edge">
<title>Node5&#45;&gt;Node4</title>
<path fill="none" stroke="midnightblue" d="M156.64,-493.41C146.8,-493.86 136.92,-494.31 127.5,-494.74"/>
<polygon fill="midnightblue" stroke="midnightblue" points="157.04,-496.9 166.87,-492.95 156.72,-489.91 157.04,-496.9"/>
</g>
<!-- Node7 -->
<g id="node7" class="node">
<title>Node7</title>
<g id="a_node7"><a xlink:href="namespacelogs.html#ac6f325c6cfe6189bc8e243daa184453b" target="_top" xlink:title="Cette méthode permet de finir les flux de construction par la notation.">
<polygon fill="white" stroke="black" points="382.5,-360 382.5,-379 443.5,-379 443.5,-360 382.5,-360"/>
<text text-anchor="middle" x="413" y="-367" font-family="Helvetica,sans-Serif" font-size="10.00">logs::end</text>
</a>
</g>
</g>
<!-- Node6&#45;&gt;Node7 -->
<g id="edge7" class="edge">
<title>Node6&#45;&gt;Node7</title>
<path fill="none" stroke="midnightblue" d="M494.58,-370.89C476.18,-370.57 458.16,-370.26 443.85,-370.01"/>
<polygon fill="midnightblue" stroke="midnightblue" points="494.76,-374.39 504.82,-371.07 494.88,-367.39 494.76,-374.39"/>
</g>
<!-- Node7&#45;&gt;Node5 -->
<g id="edge19" class="edge">
<title>Node7&#45;&gt;Node5</title>
<path fill="none" stroke="midnightblue" d="M372.65,-378.72C366.97,-381.24 361.53,-384.44 357,-388.5 329.16,-413.44 349.02,-439.77 321,-464.5 316.63,-468.36 311.64,-471.63 306.36,-474.39"/>
<polygon fill="midnightblue" stroke="midnightblue" points="374.17,-381.88 382.3,-375.08 371.71,-375.33 374.17,-381.88"/>
</g>
<!-- Node8 -->
<g id="node8" class="node">
<title>Node8</title>
<g id="a_node8"><a xlink:href="classSvgWriter.html#a30059a7d7289c57d3bf1bf623713dc0a" target="_top" xlink:title="Constructeur de la classe.">
<polygon fill="white" stroke="black" points="184.5,-436 184.5,-455 303.5,-455 303.5,-436 184.5,-436"/>
<text text-anchor="middle" x="244" y="-443" font-family="Helvetica,sans-Serif" font-size="10.00">SvgWriter::SvgWriter</text>
</a>
</g>
</g>
<!-- Node7&#45;&gt;Node8 -->
<g id="edge8" class="edge">
<title>Node7&#45;&gt;Node8</title>
<path fill="none" stroke="midnightblue" d="M372.52,-380.53C367.11,-382.78 361.78,-385.42 357,-388.5 337.45,-401.1 341.09,-414.77 321,-426.5 314.31,-430.41 306.83,-433.52 299.24,-435.99"/>
<polygon fill="midnightblue" stroke="midnightblue" points="374.11,-383.67 382.25,-376.89 371.66,-377.11 374.11,-383.67"/>
</g>
<!-- Node9 -->
<g id="node9" class="node">
<title>Node9</title>
<g id="a_node9"><a xlink:href="classSvgWriter.html#ac6b52164bb48debc2aa814b2e96ec233" target="_top" xlink:title="Écrit l&#39;en&#45;tête SVG (grille, defs, symboles).">
<polygon fill="white" stroke="black" points="177.5,-398 177.5,-417 310.5,-417 310.5,-398 177.5,-398"/>
<text text-anchor="middle" x="244" y="-405" font-family="Helvetica,sans-Serif" font-size="10.00">SvgWriter::beginHeader</text>
</a>
</g>
</g>
<!-- Node7&#45;&gt;Node9 -->
<g id="edge9" class="edge">
<title>Node7&#45;&gt;Node9</title>
<path fill="none" stroke="midnightblue" d="M372.33,-378.53C346.56,-384.39 313.02,-392.02 286.83,-397.98"/>
<polygon fill="midnightblue" stroke="midnightblue" points="373.17,-381.93 382.14,-376.29 371.62,-375.1 373.17,-381.93"/>
</g>
<!-- Node10 -->
<g id="node10" class="node">
<title>Node10</title>
<g id="a_node10"><a xlink:href="classSvgWriter.html#a18e6747b544e14bc12f184bce594ec63" target="_top" xlink:title="Ferme le document SVG (balises de fin).">
<polygon fill="white" stroke="black" points="182,-360 182,-379 306,-379 306,-360 182,-360"/>
<text text-anchor="middle" x="244" y="-367" font-family="Helvetica,sans-Serif" font-size="10.00">SvgWriter::endHeader</text>
</a>
</g>
</g>
<!-- Node7&#45;&gt;Node10 -->
<g id="edge10" class="edge">
<title>Node7&#45;&gt;Node10</title>
<path fill="none" stroke="midnightblue" d="M371.98,-369.5C352.26,-369.5 328.04,-369.5 306.07,-369.5"/>
<polygon fill="midnightblue" stroke="midnightblue" points="372.14,-373 382.14,-369.5 372.14,-366 372.14,-373"/>
</g>
<!-- Node12 -->
<g id="node12" class="node">
<title>Node12</title>
<g id="a_node12"><a xlink:href="classUnitTest.html#aae657d6d8bdc56cb2a9d4e4e9f5f8929" target="_top" xlink:title="Cette méthode fait échouer un test.">
<polygon fill="white" stroke="black" points="205,-573 205,-592 283,-592 283,-573 205,-573"/>
<text text-anchor="middle" x="244" y="-580" font-family="Helvetica,sans-Serif" font-size="10.00">UnitTest::fail</text>
</a>
</g>
</g>
<!-- Node7&#45;&gt;Node12 -->
<g id="edge12" class="edge">
<title>Node7&#45;&gt;Node12</title>
<path fill="none" stroke="midnightblue" d="M372.88,-377.29C366.89,-379.99 361.29,-383.62 357,-388.5 304.61,-448.17 375.95,-506.18 321,-563.5 311.21,-573.71 296.83,-578.76 283.21,-581.16"/>
<polygon fill="midnightblue" stroke="midnightblue" points="374.29,-380.5 382.47,-373.78 371.88,-373.93 374.29,-380.5"/>
</g>
<!-- Node15 -->
<g id="node15" class="node">
<title>Node15</title>
<g id="a_node15"><a xlink:href="classbackward_1_1Printer.html#a0c3901fa5647c29b72f92376f32a631c" target="_top" xlink:title=" ">
<polygon fill="white" stroke="black" points="190,-196.5 190,-226.5 298,-226.5 298,-196.5 190,-196.5"/>
<text text-anchor="start" x="198" y="-214.5" font-family="Helvetica,sans-Serif" font-size="10.00">backward::Printer::</text>
<text text-anchor="middle" x="244" y="-203.5" font-family="Helvetica,sans-Serif" font-size="10.00">print</text>
</a>
</g>
</g>
<!-- Node7&#45;&gt;Node15 -->
<g id="edge15" class="edge">
<title>Node7&#45;&gt;Node15</title>
<path fill="none" stroke="midnightblue" d="M403.92,-350.53C390.71,-321.75 361.84,-267.18 321,-236.5 314.23,-231.41 306.36,-227.33 298.32,-224.06"/>
<polygon fill="midnightblue" stroke="midnightblue" points="400.81,-352.15 408.06,-359.87 407.21,-349.31 400.81,-352.15"/>
</g>
<!-- Node16 -->
<g id="node16" class="node">
<title>Node16</title>
<g id="a_node16"><a xlink:href="classbackward_1_1Printer.html#a2250517ae18d9d168b2e83c96b223b76" target="_top" xlink:title=" ">
<polygon fill="white" stroke="black" points="190,-147.5 190,-177.5 298,-177.5 298,-147.5 190,-147.5"/>
<text text-anchor="start" x="198" y="-165.5" font-family="Helvetica,sans-Serif" font-size="10.00">backward::Printer::</text>
<text text-anchor="middle" x="244" y="-154.5" font-family="Helvetica,sans-Serif" font-size="10.00">print_stacktrace</text>
</a>
</g>
</g>
<!-- Node7&#45;&gt;Node16 -->
<g id="edge16" class="edge">
<title>Node7&#45;&gt;Node16</title>
<path fill="none" stroke="midnightblue" d="M407.56,-349.97C398.13,-312.91 372.6,-232.08 321,-187.5 314.38,-181.78 306.41,-177.36 298.17,-173.95"/>
<polygon fill="midnightblue" stroke="midnightblue" points="404.23,-351.09 409.98,-359.98 411.03,-349.44 404.23,-351.09"/>
</g>
<!-- Node17 -->
<g id="node17" class="node">
<title>Node17</title>
<g id="a_node17"><a xlink:href="classUnitTestSuite.html#af7b586b2771e5b876628be90e33aba5e" target="_top" xlink:title="Execution de tous les tests.">
<polygon fill="white" stroke="black" points="192.5,-322 192.5,-341 295.5,-341 295.5,-322 192.5,-322"/>
<text text-anchor="middle" x="244" y="-329" font-family="Helvetica,sans-Serif" font-size="10.00">UnitTestSuite::run</text>
</a>
</g>
</g>
<!-- Node7&#45;&gt;Node17 -->
<g id="edge17" class="edge">
<title>Node7&#45;&gt;Node17</title>
<path fill="none" stroke="midnightblue" d="M372.33,-360.47C346.56,-354.61 313.02,-346.98 286.83,-341.02"/>
<polygon fill="midnightblue" stroke="midnightblue" points="371.62,-363.9 382.14,-362.71 373.17,-357.07 371.62,-363.9"/>
</g>
<!-- Node19 -->
<g id="node19" class="node">
<title>Node19</title>
<g id="a_node19"><a xlink:href="classSvgWriter.html#a1860768b0bf4858dae8577f2b7653cac" target="_top" xlink:title="Écrit un texte à une position donnée dans le SVG.">
<polygon fill="white" stroke="black" points="186,-246 186,-265 302,-265 302,-246 186,-246"/>
<text text-anchor="middle" x="244" y="-253" font-family="Helvetica,sans-Serif" font-size="10.00">SvgWriter::writeText</text>
</a>
</g>
</g>
<!-- Node7&#45;&gt;Node19 -->
<g id="edge20" class="edge">
<title>Node7&#45;&gt;Node19</title>
<path fill="none" stroke="midnightblue" d="M399.87,-351.71C384.2,-330.12 354.88,-294.16 321,-274.5 314.3,-270.61 306.81,-267.51 299.22,-265.04"/>
<polygon fill="midnightblue" stroke="midnightblue" points="397.1,-353.85 405.73,-359.99 402.82,-349.81 397.1,-353.85"/>
</g>
<!-- Node20 -->
<g id="node20" class="node">
<title>Node20</title>
<g id="a_node20"><a xlink:href="classSvgWriter.html#ae4246028907242734cc14db98d492eb5" target="_top" xlink:title="Écrit un texte avec couleur et taille personnalisées.">
<polygon fill="white" stroke="black" points="167.5,-284 167.5,-303 320.5,-303 320.5,-284 167.5,-284"/>
<text text-anchor="middle" x="244" y="-291" font-family="Helvetica,sans-Serif" font-size="10.00">SvgWriter::writeTextCustom</text>
</a>
</g>
</g>
<!-- Node7&#45;&gt;Node20 -->
<g id="edge21" class="edge">
<title>Node7&#45;&gt;Node20</title>
<path fill="none" stroke="midnightblue" d="M391,-353.66C373.2,-340.91 346.56,-323.38 321,-312.5 312.11,-308.72 302.31,-305.57 292.78,-303"/>
<polygon fill="midnightblue" stroke="midnightblue" points="389.31,-356.76 399.45,-359.83 393.44,-351.1 389.31,-356.76"/>
</g>
<!-- Node11 -->
<g id="node11" class="node">
<title>Node11</title>
<g id="a_node11"><a xlink:href="classSvgWriter.html#ae9f503ecbe84f673f7f05dc50a52728d" target="_top" xlink:title="Destructeur de la classe.">
<polygon fill="white" stroke="black" points="2,-360 2,-379 129,-379 129,-360 2,-360"/>
<text text-anchor="middle" x="65.5" y="-367" font-family="Helvetica,sans-Serif" font-size="10.00">SvgWriter::~SvgWriter</text>
</a>
</g>
</g>
<!-- Node10&#45;&gt;Node11 -->
<g id="edge11" class="edge">
<title>Node10&#45;&gt;Node11</title>
<path fill="none" stroke="midnightblue" d="M171.64,-369.5C157.56,-369.5 142.89,-369.5 129.12,-369.5"/>
<polygon fill="midnightblue" stroke="midnightblue" points="171.76,-373 181.76,-369.5 171.76,-366 171.76,-373"/>
</g>
<!-- Node13 -->
<g id="node13" class="node">
<title>Node13</title>
<g id="a_node13"><a xlink:href="classUnitTest.html#a94aab90579073ba6e2068bbc05c47c4a" target="_top" xlink:title="Valide un test dans le cadre des tests unitaires.">
<polygon fill="white" stroke="black" points="19.5,-592 19.5,-611 111.5,-611 111.5,-592 19.5,-592"/>
<text text-anchor="middle" x="65.5" y="-599" font-family="Helvetica,sans-Serif" font-size="10.00">UnitTest::assert</text>
</a>
</g>
</g>
<!-- Node12&#45;&gt;Node13 -->
<g id="edge13" class="edge">
<title>Node12&#45;&gt;Node13</title>
<path fill="none" stroke="midnightblue" d="M194.71,-587.7C168.78,-590.49 137.02,-593.91 111.59,-596.65"/>
<polygon fill="midnightblue" stroke="midnightblue" points="195.13,-591.17 204.7,-586.62 194.38,-584.21 195.13,-591.17"/>
</g>
<!-- Node14 -->
<g id="node14" class="node">
<title>Node14</title>
<g id="a_node14"><a xlink:href="classUnitTest.html#a00a74363b89994348f5025b42f7ea96f" target="_top" xlink:title="Vérifie si un message d&#39;erreur à bien été émis.">
<polygon fill="white" stroke="black" points="0,-554 0,-573 131,-573 131,-554 0,-554"/>
<text text-anchor="middle" x="65.5" y="-561" font-family="Helvetica,sans-Serif" font-size="10.00">UnitTest::expectedError</text>
</a>
</g>
</g>
<!-- Node12&#45;&gt;Node14 -->
<g id="edge14" class="edge">
<title>Node12&#45;&gt;Node14</title>
<path fill="none" stroke="midnightblue" d="M194.5,-577.28C174.93,-575.17 152.05,-572.71 131.1,-570.45"/>
<polygon fill="midnightblue" stroke="midnightblue" points="194.38,-580.79 204.7,-578.38 195.13,-573.83 194.38,-580.79"/>
</g>
<!-- Node18 -->
<g id="node18" class="node">
<title>Node18</title>
<g id="a_node18"><a xlink:href="Main_8cpp.html#a3c04138a5bfe5d72780bb7e82a18e627" target="_top" xlink:title=" ">
<polygon fill="white" stroke="black" points="45,-322 45,-341 86,-341 86,-322 45,-322"/>
<text text-anchor="middle" x="65.5" y="-329" font-family="Helvetica,sans-Serif" font-size="10.00">main</text>
</a>
</g>
</g>
<!-- Node17&#45;&gt;Node18 -->
<g id="edge18" class="edge">
<title>Node17&#45;&gt;Node18</title>
<path fill="none" stroke="midnightblue" d="M182.21,-331.5C148.63,-331.5 109.15,-331.5 86.07,-331.5"/>
<polygon fill="midnightblue" stroke="midnightblue" points="182.42,-335 192.42,-331.5 182.42,-328 182.42,-335"/>
</g>
<!-- Node21&#45;&gt;Node3 -->
<g id="edge24" class="edge">
<title>Node21&#45;&gt;Node3</title>
<path fill="none" stroke="midnightblue" d="M349.79,-538.5C340.14,-538.5 330.09,-538.5 320.19,-538.5"/>
<polygon fill="midnightblue" stroke="midnightblue" points="350.08,-542 360.08,-538.5 350.08,-535 350.08,-542"/>
</g>
<!-- Node21&#45;&gt;Node12 -->
<g id="edge23" class="edge">
<title>Node21&#45;&gt;Node12</title>
<path fill="none" stroke="midnightblue" d="M367.94,-550.83C353.05,-554.93 336.32,-559.48 321,-563.5 308.77,-566.71 295.39,-570.09 283.32,-573.1"/>
<polygon fill="midnightblue" stroke="midnightblue" points="369.21,-554.11 377.91,-548.07 367.34,-547.36 369.21,-554.11"/>
</g>
<!-- Node23 -->
<g id="node23" class="node">
<title>Node23</title>
<g id="a_node23"><a xlink:href="namespacelogs.html#ab465ba9cc0c8042ca19d9c1aeb008578" target="_top" xlink:title=" ">
<polygon fill="white" stroke="black" points="380,-80 380,-99 446,-99 446,-80 380,-80"/>
<text text-anchor="middle" x="413" y="-87" font-family="Helvetica,sans-Serif" font-size="10.00">logs::flush</text>
</a>
</g>
</g>
<!-- Node22&#45;&gt;Node23 -->
<g id="edge26" class="edge">
<title>Node22&#45;&gt;Node23</title>
<path fill="none" stroke="midnightblue" d="M510.45,-307.87C508.55,-306.5 506.73,-305.05 505,-303.5 440.06,-245.3 419.92,-132.96 415.21,-99.28"/>
<polygon fill="midnightblue" stroke="midnightblue" points="508.86,-311 519.21,-313.29 512.55,-305.05 508.86,-311"/>
</g>
<!-- Node24 -->
<g id="node24" class="node">
<title>Node24</title>
<g id="a_node24"><a xlink:href="classlogs_1_1MemoryAppender.html#aad5cff73a112f433a5766cc0c8da3ef6" target="_top" xlink:title="Destructeur de la classe.">
<polygon fill="white" stroke="black" points="179,-98.5 179,-128.5 309,-128.5 309,-98.5 179,-98.5"/>
<text text-anchor="start" x="187" y="-116.5" font-family="Helvetica,sans-Serif" font-size="10.00">logs::MemoryAppender</text>
<text text-anchor="middle" x="244" y="-105.5" font-family="Helvetica,sans-Serif" font-size="10.00">::~MemoryAppender</text>
</a>
</g>
</g>
<!-- Node23&#45;&gt;Node24 -->
<g id="edge27" class="edge">
<title>Node23&#45;&gt;Node24</title>
<path fill="none" stroke="midnightblue" d="M369.73,-95.57C351.4,-98.21 329.53,-101.35 309.25,-104.27"/>
<polygon fill="midnightblue" stroke="midnightblue" points="370.4,-99.01 379.8,-94.13 369.4,-92.09 370.4,-99.01"/>
</g>
<!-- Node25 -->
<g id="node25" class="node">
<title>Node25</title>
<g id="a_node25"><a xlink:href="classlogs_1_1SvgAppender.html#a2a4fe7712072add61d1b773d355e629e" target="_top" xlink:title="Destructeur de la classe.">
<polygon fill="white" stroke="black" points="187.5,-49.5 187.5,-79.5 300.5,-79.5 300.5,-49.5 187.5,-49.5"/>
<text text-anchor="start" x="195.5" y="-67.5" font-family="Helvetica,sans-Serif" font-size="10.00">logs::SvgAppender::</text>
<text text-anchor="middle" x="244" y="-56.5" font-family="Helvetica,sans-Serif" font-size="10.00">~SvgAppender</text>
</a>
</g>
</g>
<!-- Node23&#45;&gt;Node25 -->
<g id="edge28" class="edge">
<title>Node23&#45;&gt;Node25</title>
<path fill="none" stroke="midnightblue" d="M369.64,-83.16C348.73,-80.03 323.25,-76.21 300.78,-72.85"/>
<polygon fill="midnightblue" stroke="midnightblue" points="369.39,-86.66 379.8,-84.68 370.43,-79.74 369.39,-86.66"/>
</g>
<!-- Node26 -->
<g id="node26" class="node">
<title>Node26</title>
<g id="a_node26"><a xlink:href="classlogs_1_1TelemetryAppender.html#a0f37f1968d5db9221fb33631729fbb0a" target="_top" xlink:title="Destructeur de la classe.">
<polygon fill="white" stroke="black" points="175,-0.5 175,-30.5 313,-30.5 313,-0.5 175,-0.5"/>
<text text-anchor="start" x="183" y="-18.5" font-family="Helvetica,sans-Serif" font-size="10.00">logs::TelemetryAppender</text>
<text text-anchor="middle" x="244" y="-7.5" font-family="Helvetica,sans-Serif" font-size="10.00">::~TelemetryAppender</text>
</a>
</g>
</g>
<!-- Node23&#45;&gt;Node26 -->
<g id="edge29" class="edge">
<title>Node23&#45;&gt;Node26</title>
<path fill="none" stroke="midnightblue" d="M388.02,-74.62C370.04,-63.89 344.57,-49.58 321,-39.5 313.49,-36.29 305.41,-33.28 297.42,-30.56"/>
<polygon fill="midnightblue" stroke="midnightblue" points="386.32,-77.69 396.69,-79.86 389.94,-71.7 386.32,-77.69"/>
</g>
<!-- Node27&#45;&gt;Node3 -->
<g id="edge35" class="edge">
<title>Node27&#45;&gt;Node3</title>
<path fill="none" stroke="midnightblue" d="M375.53,-421.66C368.8,-425.43 362.25,-430.02 357,-435.5 330.31,-463.37 349.89,-488.93 321,-514.5 317.17,-517.89 312.85,-520.81 308.28,-523.31"/>
<polygon fill="midnightblue" stroke="midnightblue" points="377.38,-424.64 384.73,-417.01 374.22,-418.4 377.38,-424.64"/>
</g>
<!-- Node27&#45;&gt;Node5 -->
<g id="edge36" class="edge">
<title>Node27&#45;&gt;Node5</title>
<path fill="none" stroke="midnightblue" d="M381.82,-421.45C373.57,-425.64 364.78,-430.47 357,-435.5 339.75,-446.66 339.05,-454.69 321,-464.5 314.17,-468.22 306.69,-471.5 299.17,-474.37"/>
<polygon fill="midnightblue" stroke="midnightblue" points="383.38,-424.58 390.8,-417.02 380.28,-418.3 383.38,-424.58"/>
</g>
<!-- Node27&#45;&gt;Node8 -->
<g id="edge31" class="edge">
<title>Node27&#45;&gt;Node8</title>
<path fill="none" stroke="midnightblue" d="M360.04,-419.32C336.49,-424.68 309.03,-430.93 286.84,-435.98"/>
<polygon fill="midnightblue" stroke="midnightblue" points="360.88,-422.72 369.86,-417.09 359.33,-415.9 360.88,-422.72"/>
</g>
<!-- Node27&#45;&gt;Node9 -->
<g id="edge32" class="edge">
<title>Node27&#45;&gt;Node9</title>
<path fill="none" stroke="midnightblue" d="M352.22,-407.5C338.7,-407.5 324.29,-407.5 310.55,-407.5"/>
<polygon fill="midnightblue" stroke="midnightblue" points="352.35,-411 362.35,-407.5 352.35,-404 352.35,-411"/>
</g>
<!-- Node27&#45;&gt;Node10 -->
<g id="edge33" class="edge">
<title>Node27&#45;&gt;Node10</title>
<path fill="none" stroke="midnightblue" d="M360.04,-395.68C336.49,-390.32 309.03,-384.07 286.84,-379.02"/>
<polygon fill="midnightblue" stroke="midnightblue" points="359.33,-399.1 369.86,-397.91 360.88,-392.28 359.33,-399.1"/>
</g>
<!-- Node27&#45;&gt;Node17 -->
<g id="edge34" class="edge">
<title>Node27&#45;&gt;Node17</title>
<path fill="none" stroke="midnightblue" d="M366.92,-393.98C363.46,-392.33 360.11,-390.51 357,-388.5 337.45,-375.9 341.09,-362.23 321,-350.5 313.25,-345.97 304.44,-342.52 295.64,-339.88"/>
<polygon fill="midnightblue" stroke="midnightblue" points="365.64,-397.24 376.21,-397.94 368.39,-390.8 365.64,-397.24"/>
</g>
<!-- Node27&#45;&gt;Node19 -->
<g id="edge37" class="edge">
<title>Node27&#45;&gt;Node19</title>
<path fill="none" stroke="midnightblue" d="M361.61,-392.57C359.97,-391.32 358.43,-389.97 357,-388.5 319.94,-350.43 359.7,-310.91 321,-274.5 315.65,-269.47 309.18,-265.71 302.29,-262.92"/>
<polygon fill="midnightblue" stroke="midnightblue" points="360.07,-395.73 370.42,-397.98 363.73,-389.76 360.07,-395.73"/>
</g>
<!-- Node27&#45;&gt;Node20 -->
<g id="edge38" class="edge">
<title>Node27&#45;&gt;Node20</title>
<path fill="none" stroke="midnightblue" d="M362.59,-392.81C360.62,-391.49 358.74,-390.06 357,-388.5 329.16,-363.56 349.9,-336.2 321,-312.5 316.27,-308.62 310.85,-305.52 305.13,-303.04"/>
<polygon fill="midnightblue" stroke="midnightblue" points="361.3,-396.09 371.74,-397.87 364.68,-389.97 361.3,-396.09"/>
</g>
<!-- Node29&#45;&gt;Node3 -->
<g id="edge41" class="edge">
<title>Node29&#45;&gt;Node3</title>
<path fill="none" stroke="midnightblue" d="M367.53,-504.75C346.67,-510.5 321.61,-517.4 299.61,-523.46"/>
<polygon fill="midnightblue" stroke="midnightblue" points="368.69,-508.06 377.4,-502.03 366.83,-501.31 368.69,-508.06"/>
</g>
<!-- Node29&#45;&gt;Node5 -->
<g id="edge42" class="edge">
<title>Node29&#45;&gt;Node5</title>
<path fill="none" stroke="midnightblue" d="M349.37,-491.37C340.13,-491.21 330.52,-491.04 321.05,-490.87"/>
<polygon fill="midnightblue" stroke="midnightblue" points="349.56,-494.88 359.62,-491.56 349.68,-487.88 349.56,-494.88"/>
</g>
</g>
</svg>
        <g id="navigator" transform="translate(0 0)" fill="#404254">
                <rect fill="#f2f5e9" fill-opacity="0.5" stroke="#606060" stroke-width=".5" x="0" y="0" width="60" height="60"/>
                <use id="zoomplus" xlink:href="#zoomPlus" x="17" y="9" onmousedown="handleZoom(evt,'in')"/>
                <use id="zoomminus" xlink:href="#zoomMin" x="42" y="9" onmousedown="handleZoom(evt,'out')"/>
                <use id="reset" xlink:href="#resetDef" x="30" y="36" onmousedown="handleReset()"/>
                <g id="arrowUp" xlink:href="#dirArrow" transform="translate(30 24)" onmousedown="handlePan(0,-1)">
                  <use xlink:href="#rim" fill="#404040">
                        <set attributeName="fill" to="#808080" begin="arrowUp.mouseover" end="arrowUp.mouseout"/>
                  </use>
                  <path fill="none" stroke="white" stroke-width="1.5" d="M0,-3.0v7 M-2.5,-0.5L0,-3.0L2.5,-0.5"/>
                </g>
                <g id="arrowRight" xlink:href="#dirArrow" transform="rotate(90) translate(36 -43)" onmousedown="handlePan(1,0)">
                  <use xlink:href="#rim" fill="#404040">
                        <set attributeName="fill" to="#808080" begin="arrowRight.mouseover" end="arrowRight.mouseout"/>
                  </use>
                  <path fill="none" stroke="white" stroke-width="1.5" d="M0,-3.0v7 M-2.5,-0.5L0,-3.0L2.5,-0.5"/>
                </g>
                <g id="arrowDown" xlink:href="#dirArrow" transform="rotate(180) translate(-30 -48)" onmousedown="handlePan(0,1)">
                  <use xlink:href="#rim" fill="#404040">
                        <set attributeName="fill" to="#808080" begin="arrowDown.mouseover" end="arrowDown.mouseout"/>
                  </use>
                  <path fill="none" stroke="white" stroke-width="1.5" d="M0,-3.0v7 M-2.5,-0.5L0,-3.0L2.5,-0.5"/>
                </g>
                <g id="arrowLeft" xlink:href="#dirArrow" transform="rotate(270) translate(-36 17)" onmousedown="handlePan(-1,0)">
                  <use xlink:href="#rim" fill="#404040">
                        <set attributeName="fill" to="#808080" begin="arrowLeft.mouseover" end="arrowLeft.mouseout"/>
                  </use>
                  <path fill="none" stroke="white" stroke-width="1.5" d="M0,-3.0v7 M-2.5,-0.5L0,-3.0L2.5,-0.5"/>
                </g>
        </g>
        <svg viewBox="0 0 15 15" width="100%" height="30px" preserveAspectRatio="xMaxYMin meet">
         <g id="arrow_out" transform="scale(0.3 0.3)">
          <a xlink:href="classlogs_1_1Logger_afa535aaf4891e02c4ff7f84d372b5b1b_icgraph_org.svg" target="_base">
           <rect id="button" ry="5" rx="5" y="6" x="6" height="38" width="38"
                fill="#f2f5e9" fill-opacity="0.5" stroke="#606060" stroke-width="1.0"/>
           <path id="arrow"
             d="M 11.500037,31.436501 C 11.940474,20.09759 22.043105,11.32322 32.158766,21.979434 L 37.068811,17.246167 C 37.068811,17.246167 37.088388,32 37.088388,32 L 22.160133,31.978069 C 22.160133,31.978069 26.997745,27.140456 26.997745,27.140456 C 18.528582,18.264221 13.291696,25.230495 11.500037,31.436501 z"
             style="fill:#404040;"/>
          </a>
         </g>
        </svg>
</svg>
