<?xml version="1.0" encoding="UTF-8" standalone="no"?>
<!DOCTYPE svg PUBLIC "-//W3C//DTD SVG 1.1//EN"
 "http://www.w3.org/Graphics/SVG/1.1/DTD/svg11.dtd">
<!-- Generated by graphviz version 2.43.0 (0)
 -->
<!-- Title: Sensors::Sensors Pages: 1 -->
<svg width="414pt" height="493pt"
 viewBox="0.00 0.00 414.00 493.00" xmlns="http://www.w3.org/2000/svg" xmlns:xlink="http://www.w3.org/1999/xlink">
<g id="graph0" class="graph" transform="scale(1 1) rotate(0) translate(4 489)">
<title>Sensors::Sensors</title>
<polygon fill="white" stroke="transparent" points="-4,4 -4,-489 410,-489 410,4 -4,4"/>
<!-- Node1 -->
<g id="node1" class="node">
<title>Node1</title>
<g id="a_node1"><a xlink:title="Constructor.">
<polygon fill="#bfbfbf" stroke="black" points="0,-235.5 0,-254.5 99,-254.5 99,-235.5 0,-235.5"/>
<text text-anchor="middle" x="49.5" y="-242.5" font-family="Helvetica,sans-Serif" font-size="10.00">Sensors::Sensors</text>
</a>
</g>
</g>
<!-- Node2 -->
<g id="node2" class="node">
<title>Node2</title>
<g id="a_node2"><a xlink:href="classSensors.html#ae13b733f9e964be1dd6fc9ff93b59f7b" target="_top" xlink:title=" ">
<polygon fill="white" stroke="black" points="144,-465.5 144,-484.5 278,-484.5 278,-465.5 144,-465.5"/>
<text text-anchor="middle" x="211" y="-472.5" font-family="Helvetica,sans-Serif" font-size="10.00">Sensors::addConfigBack</text>
</a>
</g>
</g>
<!-- Node1&#45;&gt;Node2 -->
<g id="edge1" class="edge">
<title>Node1&#45;&gt;Node2</title>
<path fill="none" stroke="midnightblue" d="M51.35,-254.73C54.8,-288.24 70.86,-399.86 135,-456 136.95,-457.7 139.02,-459.26 141.2,-460.68"/>
<polygon fill="midnightblue" stroke="midnightblue" points="139.58,-463.78 150.03,-465.5 142.94,-457.64 139.58,-463.78"/>
</g>
<!-- Node5 -->
<g id="node5" class="node">
<title>Node5</title>
<g id="a_node5"><a xlink:href="classSensors.html#a9acfbca790ff87f9c7aeb9eb35dc8a47" target="_top" xlink:title=" ">
<polygon fill="white" stroke="black" points="144,-427.5 144,-446.5 278,-446.5 278,-427.5 144,-427.5"/>
<text text-anchor="middle" x="211" y="-434.5" font-family="Helvetica,sans-Serif" font-size="10.00">Sensors::addConfigFront</text>
</a>
</g>
</g>
<!-- Node1&#45;&gt;Node5 -->
<g id="edge4" class="edge">
<title>Node1&#45;&gt;Node5</title>
<path fill="none" stroke="midnightblue" d="M52.26,-254.62C58.14,-284 80,-373.32 135,-418 137.17,-419.77 139.49,-421.37 141.91,-422.83"/>
<polygon fill="midnightblue" stroke="midnightblue" points="140.58,-426.07 151.08,-427.49 143.75,-419.83 140.58,-426.07"/>
</g>
<!-- Node6 -->
<g id="node6" class="node">
<title>Node6</title>
<g id="a_node6"><a xlink:href="classSensors.html#a9f6b2a9f9f19ef01807a74b87f2e808f" target="_top" xlink:title=" ">
<polygon fill="white" stroke="black" points="135.5,-389.5 135.5,-408.5 286.5,-408.5 286.5,-389.5 135.5,-389.5"/>
<text text-anchor="middle" x="211" y="-396.5" font-family="Helvetica,sans-Serif" font-size="10.00">Sensors::addThresholdBack</text>
</a>
</g>
</g>
<!-- Node1&#45;&gt;Node6 -->
<g id="edge7" class="edge">
<title>Node1&#45;&gt;Node6</title>
<path fill="none" stroke="midnightblue" d="M53.64,-254.6C62.3,-279.48 88.97,-346.45 135,-380 137.66,-381.94 140.5,-383.68 143.45,-385.24"/>
<polygon fill="midnightblue" stroke="midnightblue" points="142.07,-388.46 152.62,-389.43 144.98,-382.09 142.07,-388.46"/>
</g>
<!-- Node7 -->
<g id="node7" class="node">
<title>Node7</title>
<g id="a_node7"><a xlink:href="classSensors.html#ae46b261ea00e7407fd61e5c70f4c431e" target="_top" xlink:title=" ">
<polygon fill="white" stroke="black" points="135.5,-340 135.5,-370 286.5,-370 286.5,-340 135.5,-340"/>
<text text-anchor="start" x="143.5" y="-358" font-family="Helvetica,sans-Serif" font-size="10.00">Sensors::addThresholdBack</text>
<text text-anchor="middle" x="211" y="-347" font-family="Helvetica,sans-Serif" font-size="10.00">VeryClosed</text>
</a>
</g>
</g>
<!-- Node1&#45;&gt;Node7 -->
<g id="edge10" class="edge">
<title>Node1&#45;&gt;Node7</title>
<path fill="none" stroke="midnightblue" d="M57.54,-254.61C70.81,-272.05 101.22,-309.06 135,-330 138.32,-332.06 141.82,-333.97 145.43,-335.73"/>
<polygon fill="midnightblue" stroke="midnightblue" points="144.03,-338.94 154.58,-339.84 146.89,-332.55 144.03,-338.94"/>
</g>
<!-- Node8 -->
<g id="node8" class="node">
<title>Node8</title>
<g id="a_node8"><a xlink:href="classSensors.html#ad47b232a04891091fe9776339cb40013" target="_top" xlink:title=" ">
<polygon fill="white" stroke="black" points="135,-301.5 135,-320.5 287,-320.5 287,-301.5 135,-301.5"/>
<text text-anchor="middle" x="211" y="-308.5" font-family="Helvetica,sans-Serif" font-size="10.00">Sensors::addThresholdFront</text>
</a>
</g>
</g>
<!-- Node1&#45;&gt;Node8 -->
<g id="edge13" class="edge">
<title>Node1&#45;&gt;Node8</title>
<path fill="none" stroke="midnightblue" d="M65.54,-254.62C82.03,-264.83 109.56,-280.85 135,-291 142.05,-293.81 149.63,-296.35 157.16,-298.61"/>
<polygon fill="midnightblue" stroke="midnightblue" points="156.41,-302.04 166.99,-301.41 158.33,-295.3 156.41,-302.04"/>
</g>
<!-- Node9 -->
<g id="node9" class="node">
<title>Node9</title>
<g id="a_node9"><a xlink:href="classSensors.html#ab397d8739ebfe2f57290ddd97dc81efc" target="_top" xlink:title=" ">
<polygon fill="white" stroke="black" points="135,-252 135,-282 287,-282 287,-252 135,-252"/>
<text text-anchor="start" x="143" y="-270" font-family="Helvetica,sans-Serif" font-size="10.00">Sensors::addThresholdFront</text>
<text text-anchor="middle" x="211" y="-259" font-family="Helvetica,sans-Serif" font-size="10.00">VeryClosed</text>
</a>
</g>
</g>
<!-- Node1&#45;&gt;Node9 -->
<g id="edge16" class="edge">
<title>Node1&#45;&gt;Node9</title>
<path fill="none" stroke="midnightblue" d="M99.22,-251.72C107.41,-252.85 116.11,-254.05 124.9,-255.26"/>
<polygon fill="midnightblue" stroke="midnightblue" points="124.46,-258.73 134.84,-256.63 125.42,-251.8 124.46,-258.73"/>
</g>
<!-- Node10 -->
<g id="node10" class="node">
<title>Node10</title>
<g id="a_node10"><a xlink:href="classASensorsDriver.html#ab518d3654db6d8683136df8455a67601" target="_top" xlink:title="Cree l&#39;instance concrete selon la plateforme.">
<polygon fill="white" stroke="black" points="147,-213.5 147,-232.5 275,-232.5 275,-213.5 147,-213.5"/>
<text text-anchor="middle" x="211" y="-220.5" font-family="Helvetica,sans-Serif" font-size="10.00">ASensorsDriver::create</text>
</a>
</g>
</g>
<!-- Node1&#45;&gt;Node10 -->
<g id="edge19" class="edge">
<title>Node1&#45;&gt;Node10</title>
<path fill="none" stroke="midnightblue" d="M99.22,-238.28C111.08,-236.64 124.02,-234.86 136.73,-233.11"/>
<polygon fill="midnightblue" stroke="midnightblue" points="137.43,-236.54 146.86,-231.71 136.48,-229.61 137.43,-236.54"/>
</g>
<!-- Node11 -->
<g id="node11" class="node">
<title>Node11</title>
<g id="a_node11"><a xlink:href="classRobot.html#a36b66143430e84b730555cf497b89774" target="_top" xlink:title=" ">
<polygon fill="white" stroke="black" points="172.5,-175.5 172.5,-194.5 249.5,-194.5 249.5,-175.5 172.5,-175.5"/>
<text text-anchor="middle" x="211" y="-182.5" font-family="Helvetica,sans-Serif" font-size="10.00">Robot::getID</text>
</a>
</g>
</g>
<!-- Node1&#45;&gt;Node11 -->
<g id="edge20" class="edge">
<title>Node1&#45;&gt;Node11</title>
<path fill="none" stroke="midnightblue" d="M67.53,-235.46C84.28,-226.38 110.8,-212.83 135,-204 143.71,-200.82 153.18,-197.98 162.36,-195.51"/>
<polygon fill="midnightblue" stroke="midnightblue" points="163.34,-198.87 172.16,-193 161.6,-192.09 163.34,-198.87"/>
</g>
<!-- Node12 -->
<g id="node12" class="node">
<title>Node12</title>
<g id="a_node12"><a xlink:href="classSensors.html#aaf25dc2afdd983216b66476f69731d54" target="_top" xlink:title=" ">
<polygon fill="white" stroke="black" points="168,-137.5 168,-156.5 254,-156.5 254,-137.5 168,-137.5"/>
<text text-anchor="middle" x="211" y="-144.5" font-family="Helvetica,sans-Serif" font-size="10.00">Sensors::robot</text>
</a>
</g>
</g>
<!-- Node1&#45;&gt;Node12 -->
<g id="edge21" class="edge">
<title>Node1&#45;&gt;Node12</title>
<path fill="none" stroke="midnightblue" d="M57.99,-235.34C71.51,-218.58 101.69,-184.2 135,-166 142.12,-162.11 150.06,-159 158.04,-156.51"/>
<polygon fill="midnightblue" stroke="midnightblue" points="159.05,-159.86 167.73,-153.78 157.15,-153.12 159.05,-159.86"/>
</g>
<!-- Node13 -->
<g id="node13" class="node">
<title>Node13</title>
<g id="a_node13"><a xlink:href="classSensors.html#a2a1a388e492a76281a0b743c33c3f47b" target="_top" xlink:title=" ">
<polygon fill="white" stroke="black" points="139.5,-88 139.5,-118 282.5,-118 282.5,-88 139.5,-88"/>
<text text-anchor="start" x="147.5" y="-106" font-family="Helvetica,sans-Serif" font-size="10.00">Sensors::setIgnoreAllBack</text>
<text text-anchor="middle" x="211" y="-95" font-family="Helvetica,sans-Serif" font-size="10.00">NearObstacle</text>
</a>
</g>
</g>
<!-- Node1&#45;&gt;Node13 -->
<g id="edge22" class="edge">
<title>Node1&#45;&gt;Node13</title>
<path fill="none" stroke="midnightblue" d="M54.9,-235.25C65.47,-212.94 94.41,-157.81 135,-128 137.52,-126.15 140.18,-124.43 142.94,-122.84"/>
<polygon fill="midnightblue" stroke="midnightblue" points="144.76,-125.84 152.05,-118.15 141.56,-119.61 144.76,-125.84"/>
</g>
<!-- Node14 -->
<g id="node14" class="node">
<title>Node14</title>
<g id="a_node14"><a xlink:href="classSensors.html#a12662045561c34eac5055c5819041f3a" target="_top" xlink:title=" ">
<polygon fill="white" stroke="black" points="139,-39 139,-69 283,-69 283,-39 139,-39"/>
<text text-anchor="start" x="147" y="-57" font-family="Helvetica,sans-Serif" font-size="10.00">Sensors::setIgnoreAllFront</text>
<text text-anchor="middle" x="211" y="-46" font-family="Helvetica,sans-Serif" font-size="10.00">NearObstacle</text>
</a>
</g>
</g>
<!-- Node1&#45;&gt;Node14 -->
<g id="edge23" class="edge">
<title>Node1&#45;&gt;Node14</title>
<path fill="none" stroke="midnightblue" d="M52.58,-235.46C59.25,-207.09 82.83,-122.48 135,-78 136.52,-76.7 138.11,-75.48 139.76,-74.31"/>
<polygon fill="midnightblue" stroke="midnightblue" points="141.71,-77.23 148.44,-69.04 138.07,-71.25 141.71,-77.23"/>
</g>
<!-- Node15 -->
<g id="node15" class="node">
<title>Node15</title>
<g id="a_node15"><a xlink:href="classRobot.html#a6a118c509a6d7ab35cdf96203eb0238a" target="_top" xlink:title=" ">
<polygon fill="white" stroke="black" points="149.5,-0.5 149.5,-19.5 272.5,-19.5 272.5,-0.5 149.5,-0.5"/>
<text text-anchor="middle" x="211" y="-7.5" font-family="Helvetica,sans-Serif" font-size="10.00">Robot::sharedPosition</text>
</a>
</g>
</g>
<!-- Node1&#45;&gt;Node15 -->
<g id="edge24" class="edge">
<title>Node1&#45;&gt;Node15</title>
<path fill="none" stroke="midnightblue" d="M51.27,-235.04C54.46,-200.76 69.78,-86.55 135,-29 136.76,-27.45 138.63,-26.02 140.58,-24.7"/>
<polygon fill="midnightblue" stroke="midnightblue" points="142.62,-27.58 149.63,-19.64 139.2,-21.47 142.62,-27.58"/>
</g>
<!-- Node3 -->
<g id="node3" class="node">
<title>Node3</title>
<g id="a_node3"><a xlink:href="classSensors.html#ab60c07a863243a10e263a7277958c647" target="_top" xlink:title=" ">
<polygon fill="white" stroke="black" points="326,-387.5 326,-406.5 403,-406.5 403,-387.5 326,-387.5"/>
<text text-anchor="middle" x="364.5" y="-394.5" font-family="Helvetica,sans-Serif" font-size="10.00">Sensors::left</text>
</a>
</g>
</g>
<!-- Node2&#45;&gt;Node3 -->
<g id="edge2" class="edge">
<title>Node2&#45;&gt;Node3</title>
<path fill="none" stroke="midnightblue" d="M261.84,-465.43C270.45,-462.92 279.15,-459.82 287,-456 309.4,-445.11 331.55,-427 346.21,-413.71"/>
<polygon fill="midnightblue" stroke="midnightblue" points="348.59,-416.27 353.53,-406.9 343.83,-411.15 348.59,-416.27"/>
</g>
<!-- Node4 -->
<g id="node4" class="node">
<title>Node4</title>
<g id="a_node4"><a xlink:href="classSensors.html#ae801861500996fbc44629666522eb86d" target="_top" xlink:title=" ">
<polygon fill="white" stroke="black" points="323,-348.5 323,-367.5 406,-367.5 406,-348.5 323,-348.5"/>
<text text-anchor="middle" x="364.5" y="-355.5" font-family="Helvetica,sans-Serif" font-size="10.00">Sensors::right</text>
</a>
</g>
</g>
<!-- Node2&#45;&gt;Node4 -->
<g id="edge3" class="edge">
<title>Node2&#45;&gt;Node4</title>
<path fill="none" stroke="midnightblue" d="M271.39,-465.43C277.02,-462.95 282.35,-459.86 287,-456 316.37,-431.6 296.36,-405.35 323,-378 324.77,-376.18 326.74,-374.5 328.83,-372.96"/>
<polygon fill="midnightblue" stroke="midnightblue" points="330.71,-375.92 337.34,-367.65 327,-369.98 330.71,-375.92"/>
</g>
<!-- Node5&#45;&gt;Node3 -->
<g id="edge5" class="edge">
<title>Node5&#45;&gt;Node3</title>
<path fill="none" stroke="midnightblue" d="M250.19,-427.48C262,-424.49 275.05,-421.15 287,-418 297.5,-415.23 308.78,-412.18 319.37,-409.27"/>
<polygon fill="midnightblue" stroke="midnightblue" points="320.55,-412.58 329.27,-406.55 318.7,-405.83 320.55,-412.58"/>
</g>
<!-- Node5&#45;&gt;Node4 -->
<g id="edge6" class="edge">
<title>Node5&#45;&gt;Node4</title>
<path fill="none" stroke="midnightblue" d="M266.01,-427.45C273.35,-424.98 280.56,-421.89 287,-418 307.48,-405.64 303.94,-392.44 323,-378 325.63,-376.01 328.48,-374.14 331.42,-372.39"/>
<polygon fill="midnightblue" stroke="midnightblue" points="333.2,-375.41 340.33,-367.57 329.87,-369.25 333.2,-375.41"/>
</g>
<!-- Node6&#45;&gt;Node3 -->
<g id="edge8" class="edge">
<title>Node6&#45;&gt;Node3</title>
<path fill="none" stroke="midnightblue" d="M286.86,-398.01C296.72,-397.88 306.6,-397.75 315.83,-397.63"/>
<polygon fill="midnightblue" stroke="midnightblue" points="315.99,-401.13 325.94,-397.5 315.89,-394.13 315.99,-401.13"/>
</g>
<!-- Node6&#45;&gt;Node4 -->
<g id="edge9" class="edge">
<title>Node6&#45;&gt;Node4</title>
<path fill="none" stroke="midnightblue" d="M250.6,-389.47C262.31,-386.51 275.2,-383.19 287,-380 298.13,-376.99 310.14,-373.6 321.26,-370.41"/>
<polygon fill="midnightblue" stroke="midnightblue" points="322.54,-373.68 331.18,-367.54 320.6,-366.96 322.54,-373.68"/>
</g>
<!-- Node7&#45;&gt;Node3 -->
<g id="edge11" class="edge">
<title>Node7&#45;&gt;Node3</title>
<path fill="none" stroke="midnightblue" d="M266.27,-370.04C283.56,-374.84 302.49,-380.09 319.01,-384.67"/>
<polygon fill="midnightblue" stroke="midnightblue" points="318.38,-388.12 328.95,-387.42 320.25,-381.38 318.38,-388.12"/>
</g>
<!-- Node7&#45;&gt;Node4 -->
<g id="edge12" class="edge">
<title>Node7&#45;&gt;Node4</title>
<path fill="none" stroke="midnightblue" d="M286.86,-356.48C295.56,-356.65 304.28,-356.83 312.55,-356.99"/>
<polygon fill="midnightblue" stroke="midnightblue" points="312.69,-360.49 322.76,-357.19 312.83,-353.5 312.69,-360.49"/>
</g>
<!-- Node8&#45;&gt;Node3 -->
<g id="edge14" class="edge">
<title>Node8&#45;&gt;Node3</title>
<path fill="none" stroke="midnightblue" d="M265.1,-320.52C272.81,-323.19 280.37,-326.62 287,-331 308.66,-345.31 302.86,-360.62 323,-377 325.42,-378.97 328.06,-380.8 330.8,-382.5"/>
<polygon fill="midnightblue" stroke="midnightblue" points="329.28,-385.66 339.72,-387.46 332.68,-379.55 329.28,-385.66"/>
</g>
<!-- Node8&#45;&gt;Node4 -->
<g id="edge15" class="edge">
<title>Node8&#45;&gt;Node4</title>
<path fill="none" stroke="midnightblue" d="M250.32,-320.6C262.14,-323.72 275.16,-327.34 287,-331 300.72,-335.24 315.66,-340.39 328.66,-345.05"/>
<polygon fill="midnightblue" stroke="midnightblue" points="327.57,-348.38 338.17,-348.49 329.96,-341.8 327.57,-348.38"/>
</g>
<!-- Node9&#45;&gt;Node3 -->
<g id="edge17" class="edge">
<title>Node9&#45;&gt;Node3</title>
<path fill="none" stroke="midnightblue" d="M272.73,-282C277.9,-284.79 282.77,-288.09 287,-292 317.13,-319.84 294.84,-347.16 323,-377 324.74,-378.85 326.69,-380.55 328.77,-382.11"/>
<polygon fill="midnightblue" stroke="midnightblue" points="326.91,-385.07 337.23,-387.45 330.64,-379.15 326.91,-385.07"/>
</g>
<!-- Node9&#45;&gt;Node4 -->
<g id="edge18" class="edge">
<title>Node9&#45;&gt;Node4</title>
<path fill="none" stroke="midnightblue" d="M265.96,-282.14C273.23,-284.99 280.44,-288.27 287,-292 310.16,-305.16 332.77,-325.94 347.32,-340.66"/>
<polygon fill="midnightblue" stroke="midnightblue" points="345.07,-343.36 354.53,-348.13 350.11,-338.5 345.07,-343.36"/>
</g>
</g>
</svg>
