<?xml version="1.0" encoding="UTF-8" standalone="no"?>
<!DOCTYPE svg PUBLIC "-//W3C//DTD SVG 1.1//EN"
 "http://www.w3.org/Graphics/SVG/1.1/DTD/svg11.dtd">
<!-- Generated by graphviz version 2.43.0 (0)
 -->
<!-- Title: AsservDriverSimuWrapper::member2right Pages: 1 -->
<svg width="526pt" height="39pt"
 viewBox="0.00 0.00 526.00 39.00" xmlns="http://www.w3.org/2000/svg" xmlns:xlink="http://www.w3.org/1999/xlink">
<g id="graph0" class="graph" transform="scale(1 1) rotate(0) translate(4 35)">
<title>AsservDriverSimuWrapper::member2right</title>
<polygon fill="white" stroke="transparent" points="-4,4 -4,-35 522,-35 522,4 -4,4"/>
<!-- Node1 -->
<g id="node1" class="node">
<title>Node1</title>
<g id="a_node1"><a xlink:title=" ">
<polygon fill="#bfbfbf" stroke="black" points="372,-0.5 372,-30.5 518,-30.5 518,-0.5 372,-0.5"/>
<text text-anchor="start" x="380" y="-18.5" font-family="Helvetica,sans-Serif" font-size="10.00">AsservDriverSimuWrapper</text>
<text text-anchor="middle" x="445" y="-7.5" font-family="Helvetica,sans-Serif" font-size="10.00">::member2right</text>
</a>
</g>
</g>
<!-- Node2 -->
<g id="node2" class="node">
<title>Node2</title>
<g id="a_node2"><a xlink:href="classAsservDriverSimuWrapper.html#abc8b298b604bc5fa3b3811917292e94f" target="_top" xlink:title=" ">
<polygon fill="white" stroke="black" points="190,-0.5 190,-30.5 336,-30.5 336,-0.5 190,-0.5"/>
<text text-anchor="start" x="198" y="-18.5" font-family="Helvetica,sans-Serif" font-size="10.00">AsservDriverSimuWrapper</text>
<text text-anchor="middle" x="263" y="-7.5" font-family="Helvetica,sans-Serif" font-size="10.00">::memberRightThread</text>
</a>
</g>
</g>
<!-- Node1&#45;&gt;Node2 -->
<g id="edge1" class="edge">
<title>Node1&#45;&gt;Node2</title>
<path fill="none" stroke="midnightblue" d="M361.56,-15.5C353.09,-15.5 344.54,-15.5 336.19,-15.5"/>
<polygon fill="midnightblue" stroke="midnightblue" points="361.82,-19 371.82,-15.5 361.82,-12 361.82,-19"/>
</g>
<!-- Node3 -->
<g id="node3" class="node">
<title>Node3</title>
<g id="a_node3"><a xlink:href="classAsservDriverSimu.html#ae1b8078d64c5eda3e81c0c6e74b1d7bc" target="_top" xlink:title="Commande le moteur droit en puissance pendant un temps donne.">
<polygon fill="white" stroke="black" points="0,-0.5 0,-30.5 154,-30.5 154,-0.5 0,-0.5"/>
<text text-anchor="start" x="8" y="-18.5" font-family="Helvetica,sans-Serif" font-size="10.00">AsservDriverSimu::setMotor</text>
<text text-anchor="middle" x="77" y="-7.5" font-family="Helvetica,sans-Serif" font-size="10.00">RightPower</text>
</a>
</g>
</g>
<!-- Node2&#45;&gt;Node3 -->
<g id="edge2" class="edge">
<title>Node2&#45;&gt;Node3</title>
<path fill="none" stroke="midnightblue" d="M179.59,-15.5C171.15,-15.5 162.6,-15.5 154.23,-15.5"/>
<polygon fill="midnightblue" stroke="midnightblue" points="179.81,-19 189.81,-15.5 179.81,-12 179.81,-19"/>
</g>
</g>
</svg>
