<?xml version="1.0" encoding="UTF-8" standalone="no"?>
<!DOCTYPE svg PUBLIC "-//W3C//DTD SVG 1.1//EN"
 "http://www.w3.org/Graphics/SVG/1.1/DTD/svg11.dtd">
<!-- Generated by graphviz version 2.43.0 (0)
 -->
<!-- Title: DynamixelDriver::getPulsePos Pages: 1 -->
<svg width="925pt" height="308pt"
 viewBox="0.00 0.00 925.00 307.87" xmlns="http://www.w3.org/2000/svg" xmlns:xlink="http://www.w3.org/1999/xlink">
<g id="graph0" class="graph" transform="scale(1 1) rotate(0) translate(4 303.87)">
<title>DynamixelDriver::getPulsePos</title>
<polygon fill="white" stroke="transparent" points="-4,4 -4,-303.87 921,-303.87 921,4 -4,4"/>
<!-- Node1 -->
<g id="node1" class="node">
<title>Node1</title>
<g id="a_node1"><a xlink:title="Lit la position courante du servo.">
<polygon fill="#bfbfbf" stroke="black" points="0,-228.5 0,-247.5 164,-247.5 164,-228.5 0,-228.5"/>
<text text-anchor="middle" x="82" y="-235.5" font-family="Helvetica,sans-Serif" font-size="10.00">DynamixelDriver::getPulsePos</text>
</a>
</g>
</g>
<!-- Node2 -->
<g id="node2" class="node">
<title>Node2</title>
<g id="a_node2"><a xlink:href="classCCAx12Adc.html#a37d9e4779ae37994fec1f41d55cea0e8" target="_top" xlink:title=" ">
<polygon fill="white" stroke="black" points="587,-255.5 587,-274.5 707,-274.5 707,-255.5 587,-255.5"/>
<text text-anchor="middle" x="647" y="-262.5" font-family="Helvetica,sans-Serif" font-size="10.00">CCAx12Adc::instance</text>
</a>
</g>
</g>
<!-- Node1&#45;&gt;Node2 -->
<g id="edge1" class="edge">
<title>Node1&#45;&gt;Node2</title>
<path fill="none" stroke="midnightblue" d="M114.48,-247.5C187.14,-268.24 372.17,-314.22 527,-295 554.07,-291.64 583.84,-284.14 606.83,-277.47"/>
<polygon fill="midnightblue" stroke="midnightblue" points="607.96,-280.79 616.56,-274.59 605.97,-274.08 607.96,-280.79"/>
</g>
<!-- Node3 -->
<g id="node3" class="node">
<title>Node3</title>
<g id="a_node3"><a xlink:href="classCCAx12Adc.html#af95b4426fbb54ee143cbe5000d0ca5d8" target="_top" xlink:title=" ">
<polygon fill="white" stroke="black" points="200,-152.5 200,-171.5 337,-171.5 337,-152.5 200,-152.5"/>
<text text-anchor="middle" x="268.5" y="-159.5" font-family="Helvetica,sans-Serif" font-size="10.00">CCAx12Adc::readAXData</text>
</a>
</g>
</g>
<!-- Node1&#45;&gt;Node3 -->
<g id="edge2" class="edge">
<title>Node1&#45;&gt;Node3</title>
<path fill="none" stroke="midnightblue" d="M106.37,-228.37C138.95,-214.95 198.15,-190.57 235.01,-175.38"/>
<polygon fill="midnightblue" stroke="midnightblue" points="236.41,-178.59 244.32,-171.55 233.74,-172.12 236.41,-178.59"/>
</g>
<!-- Node4 -->
<g id="node4" class="node">
<title>Node4</title>
<g id="a_node4"><a xlink:href="namespacelogs.html#ac6f325c6cfe6189bc8e243daa184453b" target="_top" xlink:title="Cette méthode permet de finir les flux de construction par la notation.">
<polygon fill="white" stroke="black" points="419.5,-76.5 419.5,-95.5 480.5,-95.5 480.5,-76.5 419.5,-76.5"/>
<text text-anchor="middle" x="450" y="-83.5" font-family="Helvetica,sans-Serif" font-size="10.00">logs::end</text>
</a>
</g>
</g>
<!-- Node3&#45;&gt;Node4 -->
<g id="edge3" class="edge">
<title>Node3&#45;&gt;Node4</title>
<path fill="none" stroke="midnightblue" d="M286.33,-152.5C306.49,-141.35 341.51,-122.79 373,-110 384.72,-105.24 397.76,-100.82 409.68,-97.1"/>
<polygon fill="midnightblue" stroke="midnightblue" points="410.83,-100.41 419.38,-94.16 408.79,-93.72 410.83,-100.41"/>
</g>
<!-- Node6 -->
<g id="node6" class="node">
<title>Node6</title>
<g id="a_node6"><a xlink:href="classutils_1_1Mutex.html#aa584b418a5ef484f76b93e361a1d7e32" target="_top" xlink:title="Verrouille le mutex. Cette méthode doit être appelée avant d&#39;utiliser la ressource associée....">
<polygon fill="white" stroke="black" points="791.5,-76.5 791.5,-95.5 892.5,-95.5 892.5,-76.5 791.5,-76.5"/>
<text text-anchor="middle" x="842" y="-83.5" font-family="Helvetica,sans-Serif" font-size="10.00">utils::Mutex::lock</text>
</a>
</g>
</g>
<!-- Node3&#45;&gt;Node6 -->
<g id="edge11" class="edge">
<title>Node3&#45;&gt;Node6</title>
<path fill="none" stroke="midnightblue" d="M317.04,-152.49C334.58,-149.19 354.65,-145.65 373,-143 531.36,-120.09 572.52,-127.07 731,-105 747.37,-102.72 765.05,-99.85 781.34,-97.04"/>
<polygon fill="midnightblue" stroke="midnightblue" points="782.03,-100.47 791.28,-95.3 780.82,-93.57 782.03,-100.47"/>
</g>
<!-- Node7 -->
<g id="node7" class="node">
<title>Node7</title>
<g id="a_node7"><a xlink:href="classutils_1_1Mutex.html#a59b2079dc7f803d49f78ac9c04406cd3" target="_top" xlink:title="Déverrouille le mutex. Cette méthode doit être appelée après avoir utiliser la ressource associée.">
<polygon fill="white" stroke="black" points="785.5,-38.5 785.5,-57.5 898.5,-57.5 898.5,-38.5 785.5,-38.5"/>
<text text-anchor="middle" x="842" y="-45.5" font-family="Helvetica,sans-Serif" font-size="10.00">utils::Mutex::unlock</text>
</a>
</g>
</g>
<!-- Node3&#45;&gt;Node7 -->
<g id="edge19" class="edge">
<title>Node3&#45;&gt;Node7</title>
<path fill="none" stroke="midnightblue" d="M276.16,-152.42C290.86,-132.18 328.36,-85.43 373,-67 443.79,-37.77 663.79,-41.27 775.09,-45.16"/>
<polygon fill="midnightblue" stroke="midnightblue" points="775.07,-48.66 785.19,-45.52 775.32,-41.66 775.07,-48.66"/>
</g>
<!-- Node9 -->
<g id="node9" class="node">
<title>Node9</title>
<g id="a_node9"><a xlink:href="classlogs_1_1Logger.html#a8b6a2019233bc44b3c3c86c653910831" target="_top" xlink:title="Trace un message de niveau ERROR.">
<polygon fill="white" stroke="black" points="594.5,-0.5 594.5,-19.5 699.5,-19.5 699.5,-0.5 594.5,-0.5"/>
<text text-anchor="middle" x="647" y="-7.5" font-family="Helvetica,sans-Serif" font-size="10.00">logs::Logger::error</text>
</a>
</g>
</g>
<!-- Node3&#45;&gt;Node9 -->
<g id="edge8" class="edge">
<title>Node3&#45;&gt;Node9</title>
<path fill="none" stroke="midnightblue" d="M273.86,-152.43C285.68,-127.69 321.04,-61.67 373,-34 438.77,1.02 526.23,2.17 584.23,-2.21"/>
<polygon fill="midnightblue" stroke="midnightblue" points="584.09,-5.71 594.35,-3.05 584.67,1.27 584.09,-5.71"/>
</g>
<!-- Node10 -->
<g id="node10" class="node">
<title>Node10</title>
<g id="a_node10"><a xlink:href="classCCAx12Adc.html#ae2505b4c563dc13b7b43aa6deba3ecd5" target="_top" xlink:title=" ">
<polygon fill="white" stroke="black" points="373,-266.5 373,-285.5 527,-285.5 527,-266.5 373,-266.5"/>
<text text-anchor="middle" x="450" y="-273.5" font-family="Helvetica,sans-Serif" font-size="10.00">CCAx12Adc::getAddressSize</text>
</a>
</g>
</g>
<!-- Node3&#45;&gt;Node10 -->
<g id="edge10" class="edge">
<title>Node3&#45;&gt;Node10</title>
<path fill="none" stroke="midnightblue" d="M277.2,-171.77C292.99,-191.14 331.12,-234.46 373,-257 377.27,-259.3 381.82,-261.32 386.49,-263.11"/>
<polygon fill="midnightblue" stroke="midnightblue" points="385.61,-266.5 396.2,-266.44 387.88,-259.88 385.61,-266.5"/>
</g>
<!-- Node11 -->
<g id="node11" class="node">
<title>Node11</title>
<g id="a_node11"><a xlink:href="classCCAx12Adc.html#ac422de853567b6e7f5b762a7d40ce2e7" target="_top" xlink:title="Retourne le Logger associé à la classe CCAx12Adc (OPOS6UL).">
<polygon fill="white" stroke="black" points="395,-152.5 395,-171.5 505,-171.5 505,-152.5 395,-152.5"/>
<text text-anchor="middle" x="450" y="-159.5" font-family="Helvetica,sans-Serif" font-size="10.00">CCAx12Adc::logger</text>
</a>
</g>
</g>
<!-- Node3&#45;&gt;Node11 -->
<g id="edge12" class="edge">
<title>Node3&#45;&gt;Node11</title>
<path fill="none" stroke="midnightblue" d="M337.11,-162C352.76,-162 369.37,-162 384.87,-162"/>
<polygon fill="midnightblue" stroke="midnightblue" points="384.87,-165.5 394.87,-162 384.87,-158.5 384.87,-165.5"/>
</g>
<!-- Node16 -->
<g id="node16" class="node">
<title>Node16</title>
<g id="a_node16"><a xlink:href="classCCAx12Adc.html#a9de179f3a7d271055b818f2e406714d7" target="_top" xlink:title=" ">
<polygon fill="white" stroke="black" points="399.5,-228.5 399.5,-247.5 500.5,-247.5 500.5,-228.5 399.5,-228.5"/>
<text text-anchor="middle" x="450" y="-235.5" font-family="Helvetica,sans-Serif" font-size="10.00">CCAx12Adc::read</text>
</a>
</g>
</g>
<!-- Node3&#45;&gt;Node16 -->
<g id="edge18" class="edge">
<title>Node3&#45;&gt;Node16</title>
<path fill="none" stroke="midnightblue" d="M283.99,-171.57C303.49,-184.06 339.59,-205.88 373,-219 379.29,-221.47 386.01,-223.7 392.75,-225.69"/>
<polygon fill="midnightblue" stroke="midnightblue" points="392.01,-229.11 402.58,-228.42 393.89,-222.37 392.01,-229.11"/>
</g>
<!-- Node17 -->
<g id="node17" class="node">
<title>Node17</title>
<g id="a_node17"><a xlink:href="classCCAx12Adc.html#af859112b60bf7e614e902063030460dc" target="_top" xlink:title=" ">
<polygon fill="white" stroke="black" points="398,-190.5 398,-209.5 502,-209.5 502,-190.5 398,-190.5"/>
<text text-anchor="middle" x="450" y="-197.5" font-family="Helvetica,sans-Serif" font-size="10.00">CCAx12Adc::write</text>
</a>
</g>
</g>
<!-- Node3&#45;&gt;Node17 -->
<g id="edge20" class="edge">
<title>Node3&#45;&gt;Node17</title>
<path fill="none" stroke="midnightblue" d="M314.8,-171.59C338.91,-176.69 368.75,-183.01 394.17,-188.39"/>
<polygon fill="midnightblue" stroke="midnightblue" points="393.52,-191.83 404.03,-190.48 394.97,-184.98 393.52,-191.83"/>
</g>
<!-- Node5 -->
<g id="node5" class="node">
<title>Node5</title>
<g id="a_node5"><a xlink:href="classlogs_1_1Logger_1_1LoggerBuffer.html#a0e4fd77693fd899ec1b0670354f93a02" target="_top" xlink:title="Cette méthode valide le message en cours de construction et le transmet au Logger de référence.">
<polygon fill="white" stroke="black" points="563,-76.5 563,-95.5 731,-95.5 731,-76.5 563,-76.5"/>
<text text-anchor="middle" x="647" y="-83.5" font-family="Helvetica,sans-Serif" font-size="10.00">logs::Logger::LoggerBuffer::end</text>
</a>
</g>
</g>
<!-- Node4&#45;&gt;Node5 -->
<g id="edge4" class="edge">
<title>Node4&#45;&gt;Node5</title>
<path fill="none" stroke="midnightblue" d="M480.62,-86C500.08,-86 526.7,-86 552.9,-86"/>
<polygon fill="midnightblue" stroke="midnightblue" points="552.91,-89.5 562.91,-86 552.91,-82.5 552.91,-89.5"/>
</g>
<!-- Node5&#45;&gt;Node6 -->
<g id="edge5" class="edge">
<title>Node5&#45;&gt;Node6</title>
<path fill="none" stroke="midnightblue" d="M731.25,-86C748.07,-86 765.44,-86 781.26,-86"/>
<polygon fill="midnightblue" stroke="midnightblue" points="781.41,-89.5 791.41,-86 781.41,-82.5 781.41,-89.5"/>
</g>
<!-- Node5&#45;&gt;Node7 -->
<g id="edge6" class="edge">
<title>Node5&#45;&gt;Node7</title>
<path fill="none" stroke="midnightblue" d="M696.7,-76.41C722.86,-71.26 755.28,-64.88 782.77,-59.47"/>
<polygon fill="midnightblue" stroke="midnightblue" points="783.51,-62.89 792.65,-57.52 782.16,-56.02 783.51,-62.89"/>
</g>
<!-- Node8 -->
<g id="node8" class="node">
<title>Node8</title>
<g id="a_node8"><a xlink:href="classlogs_1_1Logger.html#afa535aaf4891e02c4ff7f84d372b5b1b" target="_top" xlink:title="Méthode générique de trace d&#39;un message.">
<polygon fill="white" stroke="black" points="767,-0.5 767,-19.5 917,-19.5 917,-0.5 767,-0.5"/>
<text text-anchor="middle" x="842" y="-7.5" font-family="Helvetica,sans-Serif" font-size="10.00">logs::Logger::writeMessage</text>
</a>
</g>
</g>
<!-- Node5&#45;&gt;Node8 -->
<g id="edge7" class="edge">
<title>Node5&#45;&gt;Node8</title>
<path fill="none" stroke="midnightblue" d="M665.28,-76.4C688.03,-64.06 729.54,-42.63 767,-29 773.77,-26.54 781,-24.26 788.18,-22.21"/>
<polygon fill="midnightblue" stroke="midnightblue" points="789.19,-25.56 797.91,-19.55 787.34,-18.81 789.19,-25.56"/>
</g>
<!-- Node9&#45;&gt;Node8 -->
<g id="edge9" class="edge">
<title>Node9&#45;&gt;Node8</title>
<path fill="none" stroke="midnightblue" d="M699.72,-10C717.22,-10 737.23,-10 756.59,-10"/>
<polygon fill="midnightblue" stroke="midnightblue" points="756.64,-13.5 766.64,-10 756.64,-6.5 756.64,-13.5"/>
</g>
<!-- Node11&#45;&gt;Node2 -->
<g id="edge13" class="edge">
<title>Node11&#45;&gt;Node2</title>
<path fill="none" stroke="midnightblue" d="M500.56,-171.57C509.56,-174.09 518.72,-177.2 527,-181 565.93,-198.85 605.44,-229.85 627.71,-248.78"/>
<polygon fill="midnightblue" stroke="midnightblue" points="625.52,-251.51 635.37,-255.4 630.09,-246.21 625.52,-251.51"/>
</g>
<!-- Node12 -->
<g id="node12" class="node">
<title>Node12</title>
<g id="a_node12"><a xlink:href="classlogs_1_1LoggerFactory.html#a82585b5de73e471e06cafdccc3b3721e" target="_top" xlink:title="Cette méthode statique retourne un Logger en fonction de son nom.">
<polygon fill="white" stroke="black" points="591.5,-158 591.5,-188 702.5,-188 702.5,-158 591.5,-158"/>
<text text-anchor="start" x="599.5" y="-176" font-family="Helvetica,sans-Serif" font-size="10.00">logs::LoggerFactory</text>
<text text-anchor="middle" x="647" y="-165" font-family="Helvetica,sans-Serif" font-size="10.00">::logger</text>
</a>
</g>
</g>
<!-- Node11&#45;&gt;Node12 -->
<g id="edge14" class="edge">
<title>Node11&#45;&gt;Node12</title>
<path fill="none" stroke="midnightblue" d="M505.06,-165.05C528.74,-166.39 556.71,-167.96 581.47,-169.36"/>
<polygon fill="midnightblue" stroke="midnightblue" points="581.32,-172.86 591.5,-169.93 581.71,-165.87 581.32,-172.86"/>
</g>
<!-- Node13 -->
<g id="node13" class="node">
<title>Node13</title>
<g id="a_node13"><a xlink:href="classlogs_1_1LoggerFactory.html#ac89f19c0ffd71aa8cdc1c2d44c03809e" target="_top" xlink:title="Cette méthode ajoute un appender au système.">
<polygon fill="white" stroke="black" points="775,-213.5 775,-232.5 909,-232.5 909,-213.5 775,-213.5"/>
<text text-anchor="middle" x="842" y="-220.5" font-family="Helvetica,sans-Serif" font-size="10.00">logs::LoggerFactory::add</text>
</a>
</g>
</g>
<!-- Node12&#45;&gt;Node13 -->
<g id="edge15" class="edge">
<title>Node12&#45;&gt;Node13</title>
<path fill="none" stroke="midnightblue" d="M702.79,-187.32C722.97,-192.58 746.02,-198.57 767,-204 775.68,-206.24 784.93,-208.63 793.85,-210.92"/>
<polygon fill="midnightblue" stroke="midnightblue" points="793.17,-214.36 803.73,-213.46 794.91,-207.58 793.17,-214.36"/>
</g>
<!-- Node14 -->
<g id="node14" class="node">
<title>Node14</title>
<g id="a_node14"><a xlink:href="classlogs_1_1LoggerFactory.html#a90478b91d7af2ef8841ded21e3521f69" target="_top" xlink:title="Cette méthode statique retourne l&#39;instance unique de la classe LoggerFactory.">
<polygon fill="white" stroke="black" points="786.5,-164 786.5,-194 897.5,-194 897.5,-164 786.5,-164"/>
<text text-anchor="start" x="794.5" y="-182" font-family="Helvetica,sans-Serif" font-size="10.00">logs::LoggerFactory</text>
<text text-anchor="middle" x="842" y="-171" font-family="Helvetica,sans-Serif" font-size="10.00">::instance</text>
</a>
</g>
</g>
<!-- Node12&#45;&gt;Node14 -->
<g id="edge16" class="edge">
<title>Node12&#45;&gt;Node14</title>
<path fill="none" stroke="midnightblue" d="M702.53,-174.7C725.45,-175.41 752.3,-176.24 776.22,-176.99"/>
<polygon fill="midnightblue" stroke="midnightblue" points="776.16,-180.49 786.27,-177.3 776.38,-173.49 776.16,-180.49"/>
</g>
<!-- Node15 -->
<g id="node15" class="node">
<title>Node15</title>
<g id="a_node15"><a xlink:href="classlogs_1_1LoggerFactory.html#a212aa623f4b6bee12cb39e8017dde670" target="_top" xlink:title="Cette méthode retourne le Logger principal qui définit le niveau de trace par défaut.">
<polygon fill="white" stroke="black" points="786.5,-115 786.5,-145 897.5,-145 897.5,-115 786.5,-115"/>
<text text-anchor="start" x="794.5" y="-133" font-family="Helvetica,sans-Serif" font-size="10.00">logs::LoggerFactory</text>
<text text-anchor="middle" x="842" y="-122" font-family="Helvetica,sans-Serif" font-size="10.00">::rootLogger</text>
</a>
</g>
</g>
<!-- Node12&#45;&gt;Node15 -->
<g id="edge17" class="edge">
<title>Node12&#45;&gt;Node15</title>
<path fill="none" stroke="midnightblue" d="M702.53,-160.85C725.45,-155.74 752.3,-149.76 776.22,-144.43"/>
<polygon fill="midnightblue" stroke="midnightblue" points="777.27,-147.79 786.27,-142.19 775.75,-140.95 777.27,-147.79"/>
</g>
</g>
</svg>
