<?xml version="1.0" encoding="UTF-8" standalone="no"?>
<!DOCTYPE svg PUBLIC "-//W3C//DTD SVG 1.1//EN"
 "http://www.w3.org/Graphics/SVG/1.1/DTD/svg11.dtd">
<!-- Generated by graphviz version 2.43.0 (0)
 -->
<!-- Title: MockTimer::onTimer Pages: 1 -->
<svg width="707pt" height="116pt"
 viewBox="0.00 0.00 707.00 115.50" xmlns="http://www.w3.org/2000/svg" xmlns:xlink="http://www.w3.org/1999/xlink">
<g id="graph0" class="graph" transform="scale(1 1) rotate(0) translate(4 111.5)">
<title>MockTimer::onTimer</title>
<polygon fill="white" stroke="transparent" points="-4,4 -4,-111.5 703,-111.5 703,4 -4,4"/>
<!-- Node1 -->
<g id="node1" class="node">
<title>Node1</title>
<g id="a_node1"><a xlink:title="Actions à executer pour le timer.">
<polygon fill="#bfbfbf" stroke="black" points="0,-28 0,-47 118,-47 118,-28 0,-28"/>
<text text-anchor="middle" x="59" y="-35" font-family="Helvetica,sans-Serif" font-size="10.00">MockTimer::onTimer</text>
</a>
</g>
</g>
<!-- Node2 -->
<g id="node2" class="node">
<title>Node2</title>
<g id="a_node2"><a xlink:href="namespacelogs.html#ac6f325c6cfe6189bc8e243daa184453b" target="_top" xlink:title="Cette méthode permet de finir les flux de construction par la notation.">
<polygon fill="white" stroke="black" points="201,-50 201,-69 262,-69 262,-50 201,-50"/>
<text text-anchor="middle" x="231.5" y="-57" font-family="Helvetica,sans-Serif" font-size="10.00">logs::end</text>
</a>
</g>
</g>
<!-- Node1&#45;&gt;Node2 -->
<g id="edge1" class="edge">
<title>Node1&#45;&gt;Node2</title>
<path fill="none" stroke="midnightblue" d="M118.2,-45.01C142.08,-48.09 169.11,-51.58 190.67,-54.36"/>
<polygon fill="midnightblue" stroke="midnightblue" points="190.41,-57.86 200.78,-55.66 191.31,-50.91 190.41,-57.86"/>
</g>
<!-- Node7 -->
<g id="node7" class="node">
<title>Node7</title>
<g id="a_node7"><a xlink:href="classutils_1_1Chronometer.html#a8c641a39ccca4bf655bb09d9c1cd8d9b" target="_top" xlink:title="Retourne le temps écoulé en microsecondes.">
<polygon fill="white" stroke="black" points="154,-0.5 154,-30.5 309,-30.5 309,-0.5 154,-0.5"/>
<text text-anchor="start" x="162" y="-18.5" font-family="Helvetica,sans-Serif" font-size="10.00">utils::Chronometer</text>
<text text-anchor="middle" x="231.5" y="-7.5" font-family="Helvetica,sans-Serif" font-size="10.00">::getElapsedTimeInMicroSec</text>
</a>
</g>
</g>
<!-- Node1&#45;&gt;Node7 -->
<g id="edge6" class="edge">
<title>Node1&#45;&gt;Node7</title>
<path fill="none" stroke="midnightblue" d="M118.2,-29.99C126.45,-28.93 135.08,-27.81 143.73,-26.7"/>
<polygon fill="midnightblue" stroke="midnightblue" points="144.4,-30.14 153.87,-25.39 143.5,-23.2 144.4,-30.14"/>
</g>
<!-- Node3 -->
<g id="node3" class="node">
<title>Node3</title>
<g id="a_node3"><a xlink:href="classlogs_1_1Logger_1_1LoggerBuffer.html#a0e4fd77693fd899ec1b0670354f93a02" target="_top" xlink:title="Cette méthode valide le message en cours de construction et le transmet au Logger de référence.">
<polygon fill="white" stroke="black" points="345,-50 345,-69 513,-69 513,-50 345,-50"/>
<text text-anchor="middle" x="429" y="-57" font-family="Helvetica,sans-Serif" font-size="10.00">logs::Logger::LoggerBuffer::end</text>
</a>
</g>
</g>
<!-- Node2&#45;&gt;Node3 -->
<g id="edge2" class="edge">
<title>Node2&#45;&gt;Node3</title>
<path fill="none" stroke="midnightblue" d="M262.19,-59.5C281.7,-59.5 308.4,-59.5 334.67,-59.5"/>
<polygon fill="midnightblue" stroke="midnightblue" points="334.7,-63 344.7,-59.5 334.7,-56 334.7,-63"/>
</g>
<!-- Node4 -->
<g id="node4" class="node">
<title>Node4</title>
<g id="a_node4"><a xlink:href="classutils_1_1Mutex.html#aa584b418a5ef484f76b93e361a1d7e32" target="_top" xlink:title="Verrouille le mutex. Cette méthode doit être appelée avant d&#39;utiliser la ressource associée....">
<polygon fill="white" stroke="black" points="573.5,-88 573.5,-107 674.5,-107 674.5,-88 573.5,-88"/>
<text text-anchor="middle" x="624" y="-95" font-family="Helvetica,sans-Serif" font-size="10.00">utils::Mutex::lock</text>
</a>
</g>
</g>
<!-- Node3&#45;&gt;Node4 -->
<g id="edge3" class="edge">
<title>Node3&#45;&gt;Node4</title>
<path fill="none" stroke="midnightblue" d="M478.7,-69.09C504.86,-74.24 537.28,-80.62 564.77,-86.03"/>
<polygon fill="midnightblue" stroke="midnightblue" points="564.16,-89.48 574.65,-87.98 565.51,-82.61 564.16,-89.48"/>
</g>
<!-- Node5 -->
<g id="node5" class="node">
<title>Node5</title>
<g id="a_node5"><a xlink:href="classutils_1_1Mutex.html#a59b2079dc7f803d49f78ac9c04406cd3" target="_top" xlink:title="Déverrouille le mutex. Cette méthode doit être appelée après avoir utiliser la ressource associée.">
<polygon fill="white" stroke="black" points="567.5,-50 567.5,-69 680.5,-69 680.5,-50 567.5,-50"/>
<text text-anchor="middle" x="624" y="-57" font-family="Helvetica,sans-Serif" font-size="10.00">utils::Mutex::unlock</text>
</a>
</g>
</g>
<!-- Node3&#45;&gt;Node5 -->
<g id="edge4" class="edge">
<title>Node3&#45;&gt;Node5</title>
<path fill="none" stroke="midnightblue" d="M513.25,-59.5C527.94,-59.5 543.06,-59.5 557.19,-59.5"/>
<polygon fill="midnightblue" stroke="midnightblue" points="557.29,-63 567.29,-59.5 557.29,-56 557.29,-63"/>
</g>
<!-- Node6 -->
<g id="node6" class="node">
<title>Node6</title>
<g id="a_node6"><a xlink:href="classlogs_1_1Logger.html#afa535aaf4891e02c4ff7f84d372b5b1b" target="_top" xlink:title="Méthode générique de trace d&#39;un message.">
<polygon fill="white" stroke="black" points="549,-12 549,-31 699,-31 699,-12 549,-12"/>
<text text-anchor="middle" x="624" y="-19" font-family="Helvetica,sans-Serif" font-size="10.00">logs::Logger::writeMessage</text>
</a>
</g>
</g>
<!-- Node3&#45;&gt;Node6 -->
<g id="edge5" class="edge">
<title>Node3&#45;&gt;Node6</title>
<path fill="none" stroke="midnightblue" d="M478.7,-49.91C504.86,-44.76 537.28,-38.38 564.77,-32.97"/>
<polygon fill="midnightblue" stroke="midnightblue" points="565.51,-36.39 574.65,-31.02 564.16,-29.52 565.51,-36.39"/>
</g>
</g>
</svg>
