<?xml version="1.0" encoding="UTF-8" standalone="no"?>
<!DOCTYPE svg PUBLIC "-//W3C//DTD SVG 1.1//EN"
 "http://www.w3.org/Graphics/SVG/1.1/DTD/svg11.dtd">
<!-- Generated by graphviz version 2.43.0 (0)
 -->
<!-- Title: basic_json::basic_json Pages: 1 -->
<svg width="470pt" height="56pt"
 viewBox="0.00 0.00 470.00 55.50" xmlns="http://www.w3.org/2000/svg" xmlns:xlink="http://www.w3.org/1999/xlink">
<g id="graph0" class="graph" transform="scale(1 1) rotate(0) translate(4 51.5)">
<title>basic_json::basic_json</title>
<polygon fill="white" stroke="transparent" points="-4,4 -4,-51.5 466,-51.5 466,4 -4,4"/>
<!-- Node1 -->
<g id="node1" class="node">
<title>Node1</title>
<g id="a_node1"><a xlink:title="create a container (array or object) from an initializer list">
<polygon fill="#bfbfbf" stroke="black" points="0,-28 0,-47 125,-47 125,-28 0,-28"/>
<text text-anchor="middle" x="62.5" y="-35" font-family="Helvetica,sans-Serif" font-size="10.00">basic_json::basic_json</text>
</a>
</g>
</g>
<!-- Node2 -->
<g id="node2" class="node">
<title>Node2</title>
<g id="a_node2"><a xlink:href="namespacebackward_1_1details.html#ad24f2f88d54f9427acdf56cc736374b0" target="_top" xlink:title=" ">
<polygon fill="white" stroke="black" points="325,-28 325,-47 462,-47 462,-28 325,-28"/>
<text text-anchor="middle" x="393.5" y="-35" font-family="Helvetica,sans-Serif" font-size="10.00">backward::details::move</text>
</a>
</g>
</g>
<!-- Node1&#45;&gt;Node2 -->
<g id="edge1" class="edge">
<title>Node1&#45;&gt;Node2</title>
<path fill="none" stroke="midnightblue" d="M125.13,-39.68C137.03,-40.02 149.4,-40.32 161,-40.5 217.88,-41.37 232.12,-41.32 289,-40.5 297.33,-40.38 306.04,-40.2 314.72,-40"/>
<polygon fill="midnightblue" stroke="midnightblue" points="314.95,-43.49 324.86,-39.74 314.78,-36.5 314.95,-43.49"/>
</g>
<!-- Node3 -->
<g id="node3" class="node">
<title>Node3</title>
<g id="a_node3"><a xlink:href="classdetail_1_1json__ref.html#ad37b535229db57173a6cd57aadba9662" target="_top" xlink:title=" ">
<polygon fill="white" stroke="black" points="161,-0.5 161,-30.5 289,-30.5 289,-0.5 161,-0.5"/>
<text text-anchor="start" x="169" y="-18.5" font-family="Helvetica,sans-Serif" font-size="10.00">detail::json_ref::moved</text>
<text text-anchor="middle" x="225" y="-7.5" font-family="Helvetica,sans-Serif" font-size="10.00">_or_copied</text>
</a>
</g>
</g>
<!-- Node1&#45;&gt;Node3 -->
<g id="edge2" class="edge">
<title>Node1&#45;&gt;Node3</title>
<path fill="none" stroke="midnightblue" d="M125.09,-29.06C133.55,-27.9 142.29,-26.7 150.92,-25.52"/>
<polygon fill="midnightblue" stroke="midnightblue" points="151.54,-28.96 160.98,-24.14 150.59,-22.03 151.54,-28.96"/>
</g>
<!-- Node3&#45;&gt;Node2 -->
<g id="edge3" class="edge">
<title>Node3&#45;&gt;Node2</title>
<path fill="none" stroke="midnightblue" d="M289.42,-23.88C297.74,-24.98 306.35,-26.12 314.87,-27.24"/>
<polygon fill="midnightblue" stroke="midnightblue" points="314.45,-30.72 324.82,-28.56 315.37,-23.78 314.45,-30.72"/>
</g>
</g>
</svg>
