<?xml version="1.0" encoding="UTF-8" standalone="no"?>
<!DOCTYPE svg PUBLIC "-//W3C//DTD SVG 1.1//EN"
 "http://www.w3.org/Graphics/SVG/1.1/DTD/svg11.dtd">
<!-- Generated by graphviz version 2.43.0 (0)
 -->
<!-- Title: logs::Level::name Pages: 1 -->
<svg width="490pt" height="105pt"
 viewBox="0.00 0.00 490.00 104.50" xmlns="http://www.w3.org/2000/svg" xmlns:xlink="http://www.w3.org/1999/xlink">
<g id="graph0" class="graph" transform="scale(1 1) rotate(0) translate(4 100.5)">
<title>logs::Level::name</title>
<polygon fill="white" stroke="transparent" points="-4,4 -4,-100.5 486,-100.5 486,4 -4,4"/>
<!-- Node1 -->
<g id="node1" class="node">
<title>Node1</title>
<g id="a_node1"><a xlink:title="Cette méthode retourne le nom de ce niveau.">
<polygon fill="#bfbfbf" stroke="black" points="379,-46.5 379,-65.5 482,-65.5 482,-46.5 379,-46.5"/>
<text text-anchor="middle" x="430.5" y="-53.5" font-family="Helvetica,sans-Serif" font-size="10.00">logs::Level::name</text>
</a>
</g>
</g>
<!-- Node2 -->
<g id="node2" class="node">
<title>Node2</title>
<g id="a_node2"><a xlink:href="classlogs_1_1ConsoleAppender.html#a8bc998ae5666863d846b6909207b2fc7" target="_top" xlink:title="Méthode de trace d&#39;un message.">
<polygon fill="white" stroke="black" points="214,-66 214,-96 342,-96 342,-66 214,-66"/>
<text text-anchor="start" x="222" y="-84" font-family="Helvetica,sans-Serif" font-size="10.00">logs::ConsoleAppender</text>
<text text-anchor="middle" x="278" y="-73" font-family="Helvetica,sans-Serif" font-size="10.00">::writeMessage</text>
</a>
</g>
</g>
<!-- Node1&#45;&gt;Node2 -->
<g id="edge1" class="edge">
<title>Node1&#45;&gt;Node2</title>
<path fill="none" stroke="midnightblue" d="M368.84,-66.08C360.08,-67.53 351.04,-69.03 342.23,-70.5"/>
<polygon fill="midnightblue" stroke="midnightblue" points="369.68,-69.49 378.97,-64.39 368.53,-62.58 369.68,-69.49"/>
</g>
<!-- Node3 -->
<g id="node3" class="node">
<title>Node3</title>
<g id="a_node3"><a xlink:href="classlogs_1_1MemoryAppender.html#a478c866b07f63f1f89c347b4465834bc" target="_top" xlink:title="Méthode générique de trace d&#39;un message. Ajoute le nom du log devant chaque entrée.">
<polygon fill="white" stroke="black" points="213,-17 213,-47 343,-47 343,-17 213,-17"/>
<text text-anchor="start" x="221" y="-35" font-family="Helvetica,sans-Serif" font-size="10.00">logs::MemoryAppender</text>
<text text-anchor="middle" x="278" y="-24" font-family="Helvetica,sans-Serif" font-size="10.00">::writeMessage</text>
</a>
</g>
</g>
<!-- Node1&#45;&gt;Node3 -->
<g id="edge2" class="edge">
<title>Node1&#45;&gt;Node3</title>
<path fill="none" stroke="midnightblue" d="M369.06,-46.36C360.5,-45 351.66,-43.59 343.03,-42.21"/>
<polygon fill="midnightblue" stroke="midnightblue" points="368.54,-49.82 378.97,-47.94 369.64,-42.91 368.54,-49.82"/>
</g>
<!-- Node4 -->
<g id="node4" class="node">
<title>Node4</title>
<g id="a_node4"><a xlink:href="classlogs_1_1TelemetryAppender.html#ac016e9912989d9550e5f5b42603a793c" target="_top" xlink:title="Trace un message. Les messages TELEM et ERROR sont envoyés en UDP, les autres sont affichés sur la co...">
<polygon fill="white" stroke="black" points="19.5,-39 19.5,-69 157.5,-69 157.5,-39 19.5,-39"/>
<text text-anchor="start" x="27.5" y="-57" font-family="Helvetica,sans-Serif" font-size="10.00">logs::TelemetryAppender</text>
<text text-anchor="middle" x="88.5" y="-46" font-family="Helvetica,sans-Serif" font-size="10.00">::writeMessage</text>
</a>
</g>
</g>
<!-- Node3&#45;&gt;Node4 -->
<g id="edge3" class="edge">
<title>Node3&#45;&gt;Node4</title>
<path fill="none" stroke="midnightblue" d="M202.82,-40.7C187.94,-42.45 172.37,-44.28 157.7,-46"/>
<polygon fill="midnightblue" stroke="midnightblue" points="203.47,-44.15 213,-39.51 202.66,-37.2 203.47,-44.15"/>
</g>
<!-- Node5 -->
<g id="node5" class="node">
<title>Node5</title>
<g id="a_node5"><a xlink:href="classUnitTestAppender.html#a2b69943419d6fe74a7f8a9c6cdcd0c98" target="_top" xlink:title="Méthode générique de trace d&#39;un message.">
<polygon fill="white" stroke="black" points="0,-0.5 0,-19.5 177,-19.5 177,-0.5 0,-0.5"/>
<text text-anchor="middle" x="88.5" y="-7.5" font-family="Helvetica,sans-Serif" font-size="10.00">UnitTestAppender::writeMessage</text>
</a>
</g>
</g>
<!-- Node3&#45;&gt;Node5 -->
<g id="edge4" class="edge">
<title>Node3&#45;&gt;Node5</title>
<path fill="none" stroke="midnightblue" d="M202.99,-23.32C192.41,-22.08 181.49,-20.79 170.79,-19.54"/>
<polygon fill="midnightblue" stroke="midnightblue" points="202.66,-26.8 213,-24.49 203.47,-19.85 202.66,-26.8"/>
</g>
</g>
</svg>
