<?xml version="1.0" encoding="UTF-8" standalone="no"?>
<!DOCTYPE svg PUBLIC "-//W3C//DTD SVG 1.1//EN"
 "http://www.w3.org/Graphics/SVG/1.1/DTD/svg11.dtd">
<!-- Generated by graphviz version 2.43.0 (0)
 -->
<!-- Title: src/common/asserv.esial/commandManager/CMDList/CMDList.h Pages: 1 -->
<svg width="512pt" height="195pt"
 viewBox="0.00 0.00 511.50 195.00" xmlns="http://www.w3.org/2000/svg" xmlns:xlink="http://www.w3.org/1999/xlink">
<g id="graph0" class="graph" transform="scale(1 1) rotate(0) translate(4 191)">
<title>src/common/asserv.esial/commandManager/CMDList/CMDList.h</title>
<polygon fill="white" stroke="transparent" points="-4,4 -4,-191 507.5,-191 507.5,4 -4,4"/>
<!-- Node1 -->
<g id="node1" class="node">
<title>Node1</title>
<g id="a_node1"><a xlink:title=" ">
<polygon fill="#bfbfbf" stroke="black" points="103,-145.5 103,-186.5 258,-186.5 258,-145.5 103,-145.5"/>
<text text-anchor="start" x="111" y="-174.5" font-family="Helvetica,sans-Serif" font-size="10.00">src/common/asserv.esial</text>
<text text-anchor="start" x="111" y="-163.5" font-family="Helvetica,sans-Serif" font-size="10.00">/commandManager/CMDList</text>
<text text-anchor="middle" x="180.5" y="-152.5" font-family="Helvetica,sans-Serif" font-size="10.00">/CMDList.h</text>
</a>
</g>
</g>
<!-- Node2 -->
<g id="node2" class="node">
<title>Node2</title>
<g id="a_node2"><a xlink:href="CMDList_8cpp.html" target="_top" xlink:title=" ">
<polygon fill="white" stroke="black" points="0,-67.5 0,-108.5 155,-108.5 155,-67.5 0,-67.5"/>
<text text-anchor="start" x="8" y="-96.5" font-family="Helvetica,sans-Serif" font-size="10.00">src/common/asserv.esial</text>
<text text-anchor="start" x="8" y="-85.5" font-family="Helvetica,sans-Serif" font-size="10.00">/commandManager/CMDList</text>
<text text-anchor="middle" x="77.5" y="-74.5" font-family="Helvetica,sans-Serif" font-size="10.00">/CMDList.cpp</text>
</a>
</g>
</g>
<!-- Node1&#45;&gt;Node2 -->
<g id="edge1" class="edge">
<title>Node1&#45;&gt;Node2</title>
<path fill="none" stroke="midnightblue" d="M145.74,-139.35C132.08,-129.27 116.66,-117.89 103.94,-108.51"/>
<polygon fill="midnightblue" stroke="midnightblue" points="143.85,-142.31 153.97,-145.43 148.01,-136.67 143.85,-142.31"/>
</g>
<!-- Node3 -->
<g id="node3" class="node">
<title>Node3</title>
<g id="a_node3"><a xlink:href="CommandManagerA_8h.html" target="_top" xlink:title=" ">
<polygon fill="white" stroke="black" points="173,-73 173,-103 396,-103 396,-73 173,-73"/>
<text text-anchor="start" x="181" y="-91" font-family="Helvetica,sans-Serif" font-size="10.00">src/common/asserv.esial</text>
<text text-anchor="middle" x="284.5" y="-80" font-family="Helvetica,sans-Serif" font-size="10.00">/commandManager/CommandManagerA.h</text>
</a>
</g>
</g>
<!-- Node1&#45;&gt;Node3 -->
<g id="edge2" class="edge">
<title>Node1&#45;&gt;Node3</title>
<path fill="none" stroke="midnightblue" d="M215.64,-139.32C232.13,-127.27 251.16,-113.36 265.03,-103.23"/>
<polygon fill="midnightblue" stroke="midnightblue" points="213.29,-136.7 207.28,-145.43 217.42,-142.35 213.29,-136.7"/>
</g>
<!-- Node4 -->
<g id="node4" class="node">
<title>Node4</title>
<g id="a_node4"><a xlink:href="AsservEsialR_8cpp.html" target="_top" xlink:title=" ">
<polygon fill="white" stroke="black" points="114,-0.5 114,-30.5 251,-30.5 251,-0.5 114,-0.5"/>
<text text-anchor="start" x="122" y="-18.5" font-family="Helvetica,sans-Serif" font-size="10.00">src/common/asserv.esial</text>
<text text-anchor="middle" x="182.5" y="-7.5" font-family="Helvetica,sans-Serif" font-size="10.00">/AsservEsialR.cpp</text>
</a>
</g>
</g>
<!-- Node3&#45;&gt;Node4 -->
<g id="edge3" class="edge">
<title>Node3&#45;&gt;Node4</title>
<path fill="none" stroke="midnightblue" d="M255.46,-66.93C238.62,-55.29 217.84,-40.92 202.76,-30.5"/>
<polygon fill="midnightblue" stroke="midnightblue" points="253.64,-69.93 263.86,-72.73 257.62,-64.17 253.64,-69.93"/>
</g>
<!-- Node5 -->
<g id="node5" class="node">
<title>Node5</title>
<g id="a_node5"><a xlink:href="CommandManagerA_8cpp.html" target="_top" xlink:title=" ">
<polygon fill="white" stroke="black" points="269.5,-0.5 269.5,-30.5 503.5,-30.5 503.5,-0.5 269.5,-0.5"/>
<text text-anchor="start" x="277.5" y="-18.5" font-family="Helvetica,sans-Serif" font-size="10.00">src/common/asserv.esial</text>
<text text-anchor="middle" x="386.5" y="-7.5" font-family="Helvetica,sans-Serif" font-size="10.00">/commandManager/CommandManagerA.cpp</text>
</a>
</g>
</g>
<!-- Node3&#45;&gt;Node5 -->
<g id="edge4" class="edge">
<title>Node3&#45;&gt;Node5</title>
<path fill="none" stroke="midnightblue" d="M313.54,-66.93C330.38,-55.29 351.16,-40.92 366.24,-30.5"/>
<polygon fill="midnightblue" stroke="midnightblue" points="311.38,-64.17 305.14,-72.73 315.36,-69.93 311.38,-64.17"/>
</g>
</g>
</svg>
