<?xml version="1.0" encoding="UTF-8" standalone="no"?>
<!DOCTYPE svg PUBLIC "-//W3C//DTD SVG 1.1//EN"
 "http://www.w3.org/Graphics/SVG/1.1/DTD/svg11.dtd">
<!-- Generated by graphviz version 2.43.0 (0)
 -->
<!-- Title: src/common/asserv.esial/consignController/ConsignController.h Pages: 1 -->
<!--zoomable 397 -->
<svg id="main" version="1.1" xmlns="http://www.w3.org/2000/svg" xmlns:xlink="http://www.w3.org/1999/xlink" xml:space="preserve" onload="init(evt)">
<style type="text/css"><![CDATA[
.edge:hover path { stroke: red; }
.edge:hover polygon { stroke: red; fill: red; }
]]></style>
<script type="text/javascript"><![CDATA[
var edges = document.getElementsByTagName('g');
if (edges && edges.length) {
  for (var i=0;i<edges.length;i++) {
    if (edges[i].id.substr(0,4)=='edge') {
      edges[i].setAttribute('class','edge');
    }
  }
}
]]></script>
        <defs>
                <circle id="rim" cx="0" cy="0" r="7"/>
                <circle id="rim2" cx="0" cy="0" r="3.5"/>
                <g id="zoomPlus">
                        <use xlink:href="#rim" fill="#404040">
                                <set attributeName="fill" to="#808080" begin="zoomplus.mouseover" end="zoomplus.mouseout"/>
                        </use>
                        <path d="M-4,0h8M0,-4v8" fill="none" stroke="white" stroke-width="1.5" pointer-events="none"/>
                </g>
                <g id="zoomMin">
                        <use xlink:href="#rim" fill="#404040">
                                <set attributeName="fill" to="#808080" begin="zoomminus.mouseover" end="zoomminus.mouseout"/>
                        </use>
                        <path d="M-4,0h8" fill="none" stroke="white" stroke-width="1.5" pointer-events="none"/>
                </g>
                <g id="dirArrow">
                        <path fill="none" stroke="white" stroke-width="1.5" d="M0,-3.0v7 M-2.5,-0.5L0,-3.0L2.5,-0.5"/>
                </g>
               <g id="resetDef">
                       <use xlink:href="#rim2" fill="#404040">
                               <set attributeName="fill" to="#808080" begin="reset.mouseover" end="reset.mouseout"/>
                       </use>
               </g>
        </defs>

<script type="text/javascript">
var viewWidth = 819;
var viewHeight = 397;
var sectionId = 'dynsection-0';
</script>
<script xlink:href="svgpan.js"/>
<svg id="graph" class="graph">
<g id="viewport">
<title>src/common/asserv.esial/consignController/ConsignController.h</title>
<polygon fill="white" stroke="transparent" points="-4,4 -4,-393 815.32,-393 815.32,4 -4,4"/>
<!-- Node1 -->
<g id="node1" class="node">
<title>Node1</title>
<g id="a_node1"><a xlink:title=" ">
<polygon fill="#bfbfbf" stroke="black" points="68.68,-358.5 68.68,-388.5 271.68,-388.5 271.68,-358.5 68.68,-358.5"/>
<text text-anchor="start" x="76.68" y="-376.5" font-family="Helvetica,sans-Serif" font-size="10.00">src/common/asserv.esial</text>
<text text-anchor="middle" x="170.18" y="-365.5" font-family="Helvetica,sans-Serif" font-size="10.00">/consignController/ConsignController.h</text>
</a>
</g>
</g>
<!-- Node2 -->
<g id="node2" class="node">
<title>Node2</title>
<g id="a_node2"><a xlink:href="Odometrie_8h.html" target="_top" xlink:title=" ">
<polygon fill="white" stroke="black" points="74.18,-230 74.18,-249 214.18,-249 214.18,-230 74.18,-230"/>
<text text-anchor="middle" x="144.18" y="-237" font-family="Helvetica,sans-Serif" font-size="10.00">../odometrie/Odometrie.h</text>
</a>
</g>
</g>
<!-- Node1&#45;&gt;Node2 -->
<g id="edge1" class="edge">
<title>Node1&#45;&gt;Node2</title>
<path fill="none" stroke="midnightblue" d="M167.39,-358.37C162.67,-334.4 153.09,-285.75 147.83,-259.06"/>
<polygon fill="midnightblue" stroke="midnightblue" points="151.24,-258.23 145.87,-249.1 144.37,-259.59 151.24,-258.23"/>
</g>
<!-- Node3 -->
<g id="node3" class="node">
<title>Node3</title>
<g id="a_node3"><a xlink:href="config_8h.html" target="_top" xlink:title=" ">
<polygon fill="white" stroke="black" points="186.18,-112.5 186.18,-131.5 282.18,-131.5 282.18,-112.5 186.18,-112.5"/>
<text text-anchor="middle" x="234.18" y="-119.5" font-family="Helvetica,sans-Serif" font-size="10.00">../config/config.h</text>
</a>
</g>
</g>
<!-- Node1&#45;&gt;Node3 -->
<g id="edge38" class="edge">
<title>Node1&#45;&gt;Node3</title>
<path fill="none" stroke="midnightblue" d="M74.67,-358.49C54.54,-350.95 35.64,-339.46 23.18,-322 -2.21,-286.44 -20.79,-238.99 47.18,-168 64.8,-149.59 127.89,-137.14 175.96,-130.08"/>
<polygon fill="midnightblue" stroke="midnightblue" points="176.56,-133.53 185.97,-128.66 175.58,-126.6 176.56,-133.53"/>
</g>
<!-- Node8 -->
<g id="node8" class="node">
<title>Node8</title>
<g id="a_node8"><a xlink:href="Utils_8h.html" target="_top" xlink:title=" ">
<polygon fill="white" stroke="black" points="297.68,-168.5 297.68,-187.5 380.68,-187.5 380.68,-168.5 297.68,-168.5"/>
<text text-anchor="middle" x="339.18" y="-175.5" font-family="Helvetica,sans-Serif" font-size="10.00">../Utils/Utils.h</text>
</a>
</g>
</g>
<!-- Node1&#45;&gt;Node8 -->
<g id="edge37" class="edge">
<title>Node1&#45;&gt;Node8</title>
<path fill="none" stroke="midnightblue" d="M176.02,-358.23C188.25,-329.77 218.93,-265.14 261.18,-224 274.9,-210.63 293.36,-199.75 308.88,-192.04"/>
<polygon fill="midnightblue" stroke="midnightblue" points="310.57,-195.11 318.09,-187.65 307.56,-188.79 310.57,-195.11"/>
</g>
<!-- Node11 -->
<g id="node11" class="node">
<title>Node11</title>
<g id="a_node11"><a xlink:href="MotorsController_8h.html" target="_top" xlink:title=" ">
<polygon fill="white" stroke="black" points="32.18,-291.5 32.18,-321.5 142.18,-321.5 142.18,-291.5 32.18,-291.5"/>
<text text-anchor="start" x="40.18" y="-309.5" font-family="Helvetica,sans-Serif" font-size="10.00">../motorsController</text>
<text text-anchor="middle" x="87.18" y="-298.5" font-family="Helvetica,sans-Serif" font-size="10.00">/MotorsController.h</text>
</a>
</g>
</g>
<!-- Node1&#45;&gt;Node11 -->
<g id="edge10" class="edge">
<title>Node1&#45;&gt;Node11</title>
<path fill="none" stroke="midnightblue" d="M152.17,-358.4C140.75,-349.45 125.79,-337.74 113.1,-327.8"/>
<polygon fill="midnightblue" stroke="midnightblue" points="115.18,-324.99 105.15,-321.58 110.87,-330.5 115.18,-324.99"/>
</g>
<!-- Node12 -->
<g id="node12" class="node">
<title>Node12</title>
<g id="a_node12"><a xlink:href="Regulateur_8h.html" target="_top" xlink:title=" ">
<polygon fill="white" stroke="black" points="415.18,-297 415.18,-316 555.18,-316 555.18,-297 415.18,-297"/>
<text text-anchor="middle" x="485.18" y="-304" font-family="Helvetica,sans-Serif" font-size="10.00">../regulateur/Regulateur.h</text>
</a>
</g>
</g>
<!-- Node1&#45;&gt;Node12 -->
<g id="edge12" class="edge">
<title>Node1&#45;&gt;Node12</title>
<path fill="none" stroke="midnightblue" d="M238.14,-358.48C296.93,-346.34 380.64,-329.07 433.93,-318.07"/>
<polygon fill="midnightblue" stroke="midnightblue" points="434.76,-321.48 443.84,-316.03 433.34,-314.62 434.76,-321.48"/>
</g>
<!-- Node2&#45;&gt;Node3 -->
<g id="edge2" class="edge">
<title>Node2&#45;&gt;Node3</title>
<path fill="none" stroke="midnightblue" d="M178.25,-229.87C199.52,-222.52 225.25,-209.62 238.18,-188 246.51,-174.06 244.23,-155.31 240.63,-141.53"/>
<polygon fill="midnightblue" stroke="midnightblue" points="243.9,-140.27 237.63,-131.73 237.21,-142.31 243.9,-140.27"/>
</g>
<!-- Node2&#45;&gt;Node8 -->
<g id="edge7" class="edge">
<title>Node2&#45;&gt;Node8</title>
<path fill="none" stroke="midnightblue" d="M172.11,-229.98C206.14,-219.59 263.76,-202.01 301.64,-190.45"/>
<polygon fill="midnightblue" stroke="midnightblue" points="302.75,-193.78 311.29,-187.51 300.7,-187.08 302.75,-193.78"/>
</g>
<!-- Node10 -->
<g id="node10" class="node">
<title>Node10</title>
<g id="a_node10"><a xlink:href="CodeursInterface_8h.html" target="_top" xlink:title=" ">
<polygon fill="white" stroke="black" points="69.68,-168.5 69.68,-187.5 228.68,-187.5 228.68,-168.5 69.68,-168.5"/>
<text text-anchor="middle" x="149.18" y="-175.5" font-family="Helvetica,sans-Serif" font-size="10.00">../codeurs/CodeursInterface.h</text>
</a>
</g>
</g>
<!-- Node2&#45;&gt;Node10 -->
<g id="edge9" class="edge">
<title>Node2&#45;&gt;Node10</title>
<path fill="none" stroke="midnightblue" d="M144.89,-229.98C145.6,-221.58 146.7,-208.48 147.61,-197.66"/>
<polygon fill="midnightblue" stroke="midnightblue" points="151.11,-197.77 148.46,-187.51 144.14,-197.18 151.11,-197.77"/>
</g>
<!-- Node4 -->
<g id="node4" class="node">
<title>Node4</title>
<g id="a_node4"><a xlink:href="parameter_8h.html" target="_top" xlink:title=" ">
<polygon fill="white" stroke="black" points="187.18,-56.5 187.18,-75.5 263.18,-75.5 263.18,-56.5 187.18,-56.5"/>
<text text-anchor="middle" x="225.18" y="-63.5" font-family="Helvetica,sans-Serif" font-size="10.00">parameter.h</text>
</a>
</g>
</g>
<!-- Node3&#45;&gt;Node4 -->
<g id="edge3" class="edge">
<title>Node3&#45;&gt;Node4</title>
<path fill="none" stroke="midnightblue" d="M232.69,-112.08C231.5,-104.93 229.78,-94.64 228.29,-85.69"/>
<polygon fill="midnightblue" stroke="midnightblue" points="231.73,-85.04 226.63,-75.75 224.83,-86.19 231.73,-85.04"/>
</g>
<!-- Node7 -->
<g id="node7" class="node">
<title>Node7</title>
<g id="a_node7"><a xlink:href="params_8h.html" target="_top" xlink:title=" ">
<polygon fill="white" stroke="black" points="281.18,-56.5 281.18,-75.5 343.18,-75.5 343.18,-56.5 281.18,-56.5"/>
<text text-anchor="middle" x="312.18" y="-63.5" font-family="Helvetica,sans-Serif" font-size="10.00">params.h</text>
</a>
</g>
</g>
<!-- Node3&#45;&gt;Node7 -->
<g id="edge6" class="edge">
<title>Node3&#45;&gt;Node7</title>
<path fill="none" stroke="midnightblue" d="M246.71,-112.32C258.76,-103.98 277.2,-91.21 291.44,-81.35"/>
<polygon fill="midnightblue" stroke="midnightblue" points="293.45,-84.22 299.67,-75.65 289.46,-78.47 293.45,-84.22"/>
</g>
<!-- Node5 -->
<g id="node5" class="node">
<title>Node5</title>
<g id="a_node5"><a xlink:title=" ">
<polygon fill="white" stroke="#bfbfbf" points="469.18,-0.5 469.18,-19.5 513.18,-19.5 513.18,-0.5 469.18,-0.5"/>
<text text-anchor="middle" x="491.18" y="-7.5" font-family="Helvetica,sans-Serif" font-size="10.00">string</text>
</a>
</g>
</g>
<!-- Node4&#45;&gt;Node5 -->
<g id="edge4" class="edge">
<title>Node4&#45;&gt;Node5</title>
<path fill="none" stroke="midnightblue" d="M263.29,-57.26C315.88,-46.59 409.79,-27.52 459.03,-17.53"/>
<polygon fill="midnightblue" stroke="midnightblue" points="460.01,-20.9 469.12,-15.48 458.62,-14.04 460.01,-20.9"/>
</g>
<!-- Node6 -->
<g id="node6" class="node">
<title>Node6</title>
<g id="a_node6"><a xlink:title=" ">
<polygon fill="white" stroke="#bfbfbf" points="270.18,-0.5 270.18,-19.5 326.18,-19.5 326.18,-0.5 270.18,-0.5"/>
<text text-anchor="middle" x="298.18" y="-7.5" font-family="Helvetica,sans-Serif" font-size="10.00">sstream</text>
</a>
</g>
</g>
<!-- Node4&#45;&gt;Node6 -->
<g id="edge5" class="edge">
<title>Node4&#45;&gt;Node6</title>
<path fill="none" stroke="midnightblue" d="M236.9,-56.32C248.01,-48.11 264.92,-35.6 278.16,-25.81"/>
<polygon fill="midnightblue" stroke="midnightblue" points="280.28,-28.59 286.23,-19.83 276.11,-22.97 280.28,-28.59"/>
</g>
<!-- Node9 -->
<g id="node9" class="node">
<title>Node9</title>
<g id="a_node9"><a xlink:title=" ">
<polygon fill="white" stroke="#bfbfbf" points="322.18,-112.5 322.18,-131.5 394.18,-131.5 394.18,-112.5 322.18,-112.5"/>
<text text-anchor="middle" x="358.18" y="-119.5" font-family="Helvetica,sans-Serif" font-size="10.00">sys/types.h</text>
</a>
</g>
</g>
<!-- Node8&#45;&gt;Node9 -->
<g id="edge8" class="edge">
<title>Node8&#45;&gt;Node9</title>
<path fill="none" stroke="midnightblue" d="M342.31,-168.08C344.86,-160.85 348.53,-150.41 351.7,-141.4"/>
<polygon fill="midnightblue" stroke="midnightblue" points="355.08,-142.35 355.1,-131.75 348.48,-140.02 355.08,-142.35"/>
</g>
<!-- Node11&#45;&gt;Node3 -->
<g id="edge11" class="edge">
<title>Node11&#45;&gt;Node3</title>
<path fill="none" stroke="midnightblue" d="M78.02,-291.36C61.84,-264.41 32.5,-205.09 61.18,-168 75.26,-149.78 131.18,-137.56 175.68,-130.51"/>
<polygon fill="midnightblue" stroke="midnightblue" points="176.49,-133.92 185.84,-128.95 175.43,-127 176.49,-133.92"/>
</g>
<!-- Node12&#45;&gt;Node9 -->
<g id="edge13" class="edge">
<title>Node12&#45;&gt;Node9</title>
<path fill="none" stroke="midnightblue" d="M501.13,-296.92C515.15,-288.37 534.6,-273.83 543.18,-255 548.88,-242.46 549.39,-236.3 543.18,-224 516.56,-171.32 450.04,-144.93 404.46,-132.61"/>
<polygon fill="midnightblue" stroke="midnightblue" points="405.07,-129.15 394.51,-130.05 403.32,-135.93 405.07,-129.15"/>
</g>
<!-- Node13 -->
<g id="node13" class="node">
<title>Node13</title>
<g id="a_node13"><a xlink:href="LoggerFactory_8hpp.html" target="_top" xlink:title="Définition de la classe LoggerFactory.">
<polygon fill="white" stroke="black" points="590.18,-168.5 590.18,-187.5 712.18,-187.5 712.18,-168.5 590.18,-168.5"/>
<text text-anchor="middle" x="651.18" y="-175.5" font-family="Helvetica,sans-Serif" font-size="10.00">log/LoggerFactory.hpp</text>
</a>
</g>
</g>
<!-- Node12&#45;&gt;Node13 -->
<g id="edge14" class="edge">
<title>Node12&#45;&gt;Node13</title>
<path fill="none" stroke="midnightblue" d="M504.25,-296.9C523.36,-287.84 553.15,-272.48 576.18,-255 599.81,-237.06 623.22,-211.83 637.44,-195.45"/>
<polygon fill="midnightblue" stroke="midnightblue" points="640.16,-197.66 643.99,-187.78 634.83,-193.11 640.16,-197.66"/>
</g>
<!-- Node22 -->
<g id="node22" class="node">
<title>Node22</title>
<g id="a_node22"><a xlink:href="Pid_8h.html" target="_top" xlink:title=" ">
<polygon fill="white" stroke="black" points="436.18,-230 436.18,-249 534.18,-249 534.18,-230 436.18,-230"/>
<text text-anchor="middle" x="485.18" y="-237" font-family="Helvetica,sans-Serif" font-size="10.00">../filtres/Pid/Pid.h</text>
</a>
</g>
</g>
<!-- Node12&#45;&gt;Node22 -->
<g id="edge30" class="edge">
<title>Node12&#45;&gt;Node22</title>
<path fill="none" stroke="midnightblue" d="M485.18,-296.73C485.18,-287.18 485.18,-271.62 485.18,-259.28"/>
<polygon fill="midnightblue" stroke="midnightblue" points="488.68,-259.13 485.18,-249.13 481.68,-259.13 488.68,-259.13"/>
</g>
<!-- Node24 -->
<g id="node24" class="node">
<title>Node24</title>
<g id="a_node24"><a xlink:href="QuadRampDerivee_8h.html" target="_top" xlink:title=" ">
<polygon fill="white" stroke="black" points="269.68,-224.5 269.68,-254.5 418.68,-254.5 418.68,-224.5 269.68,-224.5"/>
<text text-anchor="start" x="277.68" y="-242.5" font-family="Helvetica,sans-Serif" font-size="10.00">../filtres/QuadRampDerivee</text>
<text text-anchor="middle" x="344.18" y="-231.5" font-family="Helvetica,sans-Serif" font-size="10.00">/QuadRampDerivee.h</text>
</a>
</g>
</g>
<!-- Node12&#45;&gt;Node24 -->
<g id="edge34" class="edge">
<title>Node12&#45;&gt;Node24</title>
<path fill="none" stroke="midnightblue" d="M466.45,-296.87C445.48,-287.2 410.88,-271.25 383.82,-258.78"/>
<polygon fill="midnightblue" stroke="midnightblue" points="385.15,-255.54 374.61,-254.53 382.22,-261.89 385.15,-255.54"/>
</g>
<!-- Node13&#45;&gt;Node5 -->
<g id="edge16" class="edge">
<title>Node13&#45;&gt;Node5</title>
<path fill="none" stroke="midnightblue" d="M636.56,-168.42C622.98,-160.07 602.59,-146.54 587.18,-132 552.23,-99.02 519.16,-52.92 502.47,-28.23"/>
<polygon fill="midnightblue" stroke="midnightblue" points="505.19,-25.99 496.73,-19.61 499.36,-29.87 505.19,-25.99"/>
</g>
<!-- Node14 -->
<g id="node14" class="node">
<title>Node14</title>
<g id="a_node14"><a xlink:title=" ">
<polygon fill="white" stroke="#bfbfbf" points="729.18,-112.5 729.18,-131.5 767.18,-131.5 767.18,-112.5 729.18,-112.5"/>
<text text-anchor="middle" x="748.18" y="-119.5" font-family="Helvetica,sans-Serif" font-size="10.00">map</text>
</a>
</g>
</g>
<!-- Node13&#45;&gt;Node14 -->
<g id="edge15" class="edge">
<title>Node13&#45;&gt;Node14</title>
<path fill="none" stroke="midnightblue" d="M666.76,-168.32C682.17,-159.74 705.99,-146.49 723.89,-136.52"/>
<polygon fill="midnightblue" stroke="midnightblue" points="725.59,-139.58 732.63,-131.65 722.19,-133.46 725.59,-139.58"/>
</g>
<!-- Node15 -->
<g id="node15" class="node">
<title>Node15</title>
<g id="a_node15"><a xlink:href="Thread_8hpp.html" target="_top" xlink:title="Définition de la classe Thread.">
<polygon fill="white" stroke="black" points="595.68,-112.5 595.68,-131.5 710.68,-131.5 710.68,-112.5 595.68,-112.5"/>
<text text-anchor="middle" x="653.18" y="-119.5" font-family="Helvetica,sans-Serif" font-size="10.00">../thread/Thread.hpp</text>
</a>
</g>
</g>
<!-- Node13&#45;&gt;Node15 -->
<g id="edge17" class="edge">
<title>Node13&#45;&gt;Node15</title>
<path fill="none" stroke="midnightblue" d="M651.51,-168.08C651.77,-161.01 652.14,-150.86 652.47,-141.99"/>
<polygon fill="midnightblue" stroke="midnightblue" points="655.98,-141.87 652.85,-131.75 648.98,-141.61 655.98,-141.87"/>
</g>
<!-- Node20 -->
<g id="node20" class="node">
<title>Node20</title>
<g id="a_node20"><a xlink:href="Logger_8hpp.html" target="_top" xlink:title="Définition de la classe Logger.">
<polygon fill="white" stroke="black" points="431.18,-112.5 431.18,-131.5 501.18,-131.5 501.18,-112.5 431.18,-112.5"/>
<text text-anchor="middle" x="466.18" y="-119.5" font-family="Helvetica,sans-Serif" font-size="10.00">Logger.hpp</text>
</a>
</g>
</g>
<!-- Node13&#45;&gt;Node20 -->
<g id="edge24" class="edge">
<title>Node13&#45;&gt;Node20</title>
<path fill="none" stroke="midnightblue" d="M621.86,-168.44C590.33,-159.24 540.04,-144.56 505.19,-134.39"/>
<polygon fill="midnightblue" stroke="midnightblue" points="505.93,-130.96 495.35,-131.52 503.97,-137.68 505.93,-130.96"/>
</g>
<!-- Node15&#45;&gt;Node5 -->
<g id="edge19" class="edge">
<title>Node15&#45;&gt;Node5</title>
<path fill="none" stroke="midnightblue" d="M653.1,-112.13C652.51,-98.27 649.31,-71.45 634.18,-56 604.88,-26.1 555.96,-16.01 523.63,-12.64"/>
<polygon fill="midnightblue" stroke="midnightblue" points="523.62,-9.12 513.36,-11.73 523.01,-16.1 523.62,-9.12"/>
</g>
<!-- Node16 -->
<g id="node16" class="node">
<title>Node16</title>
<g id="a_node16"><a xlink:title=" ">
<polygon fill="white" stroke="#bfbfbf" points="676.68,-0.5 676.68,-19.5 739.68,-19.5 739.68,-0.5 676.68,-0.5"/>
<text text-anchor="middle" x="708.18" y="-7.5" font-family="Helvetica,sans-Serif" font-size="10.00">pthread.h</text>
</a>
</g>
</g>
<!-- Node15&#45;&gt;Node16 -->
<g id="edge18" class="edge">
<title>Node15&#45;&gt;Node16</title>
<path fill="none" stroke="midnightblue" d="M705.34,-112.49C744.68,-104.88 793.9,-92.4 806.18,-76 825.32,-50.41 784.41,-31.81 749.72,-21.22"/>
<polygon fill="midnightblue" stroke="midnightblue" points="750.28,-17.74 739.7,-18.32 748.33,-24.46 750.28,-17.74"/>
</g>
<!-- Node17 -->
<g id="node17" class="node">
<title>Node17</title>
<g id="a_node17"><a xlink:title=" ">
<polygon fill="white" stroke="#bfbfbf" points="681.18,-56.5 681.18,-75.5 729.18,-75.5 729.18,-56.5 681.18,-56.5"/>
<text text-anchor="middle" x="705.18" y="-63.5" font-family="Helvetica,sans-Serif" font-size="10.00">thread</text>
</a>
</g>
</g>
<!-- Node15&#45;&gt;Node17 -->
<g id="edge20" class="edge">
<title>Node15&#45;&gt;Node17</title>
<path fill="none" stroke="midnightblue" d="M661.76,-112.08C669.33,-104.22 680.55,-92.57 689.69,-83.08"/>
<polygon fill="midnightblue" stroke="midnightblue" points="692.33,-85.38 696.75,-75.75 687.29,-80.53 692.33,-85.38"/>
</g>
<!-- Node18 -->
<g id="node18" class="node">
<title>Node18</title>
<g id="a_node18"><a xlink:href="Mutex_8hpp.html" target="_top" xlink:title="Définition de la classe Mutex.">
<polygon fill="white" stroke="black" points="557.18,-56.5 557.18,-75.5 625.18,-75.5 625.18,-56.5 557.18,-56.5"/>
<text text-anchor="middle" x="591.18" y="-63.5" font-family="Helvetica,sans-Serif" font-size="10.00">Mutex.hpp</text>
</a>
</g>
</g>
<!-- Node15&#45;&gt;Node18 -->
<g id="edge21" class="edge">
<title>Node15&#45;&gt;Node18</title>
<path fill="none" stroke="midnightblue" d="M643.21,-112.32C634.05,-104.34 620.24,-92.31 609.15,-82.65"/>
<polygon fill="midnightblue" stroke="midnightblue" points="611.16,-79.76 601.32,-75.83 606.56,-85.04 611.16,-79.76"/>
</g>
<!-- Node19 -->
<g id="node19" class="node">
<title>Node19</title>
<g id="a_node19"><a xlink:title=" ">
<polygon fill="white" stroke="#bfbfbf" points="747.18,-56.5 747.18,-75.5 797.18,-75.5 797.18,-56.5 747.18,-56.5"/>
<text text-anchor="middle" x="772.18" y="-63.5" font-family="Helvetica,sans-Serif" font-size="10.00">chrono</text>
</a>
</g>
</g>
<!-- Node15&#45;&gt;Node19 -->
<g id="edge23" class="edge">
<title>Node15&#45;&gt;Node19</title>
<path fill="none" stroke="midnightblue" d="M672.03,-112.44C691.44,-103.64 721.91,-89.81 744.14,-79.72"/>
<polygon fill="midnightblue" stroke="midnightblue" points="745.75,-82.84 753.41,-75.52 742.86,-76.46 745.75,-82.84"/>
</g>
<!-- Node18&#45;&gt;Node16 -->
<g id="edge22" class="edge">
<title>Node18&#45;&gt;Node16</title>
<path fill="none" stroke="midnightblue" d="M609.71,-56.44C628.8,-47.64 658.75,-33.81 680.61,-23.72"/>
<polygon fill="midnightblue" stroke="midnightblue" points="682.11,-26.88 689.72,-19.52 679.18,-20.53 682.11,-26.88"/>
</g>
<!-- Node20&#45;&gt;Node5 -->
<g id="edge26" class="edge">
<title>Node20&#45;&gt;Node5</title>
<path fill="none" stroke="midnightblue" d="M468.14,-112.37C472.17,-94.62 481.48,-53.67 486.95,-29.6"/>
<polygon fill="midnightblue" stroke="midnightblue" points="490.42,-30.12 489.22,-19.59 483.59,-28.57 490.42,-30.12"/>
</g>
<!-- Node20&#45;&gt;Node6 -->
<g id="edge25" class="edge">
<title>Node20&#45;&gt;Node6</title>
<path fill="none" stroke="midnightblue" d="M450.82,-112.39C435.31,-103.58 410.77,-89.34 390.18,-76 364.65,-59.46 336.17,-39.02 317.76,-25.53"/>
<polygon fill="midnightblue" stroke="midnightblue" points="319.72,-22.62 309.59,-19.51 315.57,-28.26 319.72,-22.62"/>
</g>
<!-- Node20&#45;&gt;Node18 -->
<g id="edge27" class="edge">
<title>Node20&#45;&gt;Node18</title>
<path fill="none" stroke="midnightblue" d="M485.98,-112.44C506.46,-103.6 538.66,-89.69 562.04,-79.59"/>
<polygon fill="midnightblue" stroke="midnightblue" points="563.67,-82.7 571.46,-75.52 560.89,-76.27 563.67,-82.7"/>
</g>
<!-- Node21 -->
<g id="node21" class="node">
<title>Node21</title>
<g id="a_node21"><a xlink:href="Level_8hpp.html" target="_top" xlink:title="Définition de la classe Level.">
<polygon fill="white" stroke="black" points="399.18,-56.5 399.18,-75.5 463.18,-75.5 463.18,-56.5 399.18,-56.5"/>
<text text-anchor="middle" x="431.18" y="-63.5" font-family="Helvetica,sans-Serif" font-size="10.00">Level.hpp</text>
</a>
</g>
</g>
<!-- Node20&#45;&gt;Node21 -->
<g id="edge28" class="edge">
<title>Node20&#45;&gt;Node21</title>
<path fill="none" stroke="midnightblue" d="M460.4,-112.08C455.5,-104.53 448.35,-93.49 442.34,-84.23"/>
<polygon fill="midnightblue" stroke="midnightblue" points="445.22,-82.24 436.85,-75.75 439.35,-86.05 445.22,-82.24"/>
</g>
<!-- Node21&#45;&gt;Node5 -->
<g id="edge29" class="edge">
<title>Node21&#45;&gt;Node5</title>
<path fill="none" stroke="midnightblue" d="M440.82,-56.32C449.69,-48.34 463.05,-36.31 473.78,-26.65"/>
<polygon fill="midnightblue" stroke="midnightblue" points="476.27,-29.13 481.36,-19.83 471.59,-23.92 476.27,-29.13"/>
</g>
<!-- Node22&#45;&gt;Node8 -->
<g id="edge33" class="edge">
<title>Node22&#45;&gt;Node8</title>
<path fill="none" stroke="midnightblue" d="M464.26,-229.98C439.43,-219.86 397.83,-202.9 369.48,-191.35"/>
<polygon fill="midnightblue" stroke="midnightblue" points="370.64,-188.04 360.06,-187.51 367.99,-194.52 370.64,-188.04"/>
</g>
<!-- Node23 -->
<g id="node23" class="node">
<title>Node23</title>
<g id="a_node23"><a xlink:href="Filtre_8h.html" target="_top" xlink:title=" ">
<polygon fill="white" stroke="black" points="398.68,-168.5 398.68,-187.5 457.68,-187.5 457.68,-168.5 398.68,-168.5"/>
<text text-anchor="middle" x="428.18" y="-175.5" font-family="Helvetica,sans-Serif" font-size="10.00">../Filtre.h</text>
</a>
</g>
</g>
<!-- Node22&#45;&gt;Node23 -->
<g id="edge31" class="edge">
<title>Node22&#45;&gt;Node23</title>
<path fill="none" stroke="midnightblue" d="M477.01,-229.98C468.29,-220.87 454.27,-206.24 443.49,-194.98"/>
<polygon fill="midnightblue" stroke="midnightblue" points="445.77,-192.31 436.33,-187.51 440.72,-197.15 445.77,-192.31"/>
</g>
<!-- Node23&#45;&gt;Node3 -->
<g id="edge32" class="edge">
<title>Node23&#45;&gt;Node3</title>
<path fill="none" stroke="midnightblue" d="M398.29,-168.68C365.16,-159.46 311.54,-144.54 274.66,-134.27"/>
<polygon fill="midnightblue" stroke="midnightblue" points="275.31,-130.82 264.74,-131.51 273.43,-137.56 275.31,-130.82"/>
</g>
<!-- Node24&#45;&gt;Node8 -->
<g id="edge36" class="edge">
<title>Node24&#45;&gt;Node8</title>
<path fill="none" stroke="midnightblue" d="M342.99,-224.4C342.32,-216.47 341.48,-206.46 340.76,-197.86"/>
<polygon fill="midnightblue" stroke="midnightblue" points="344.23,-197.33 339.9,-187.66 337.25,-197.92 344.23,-197.33"/>
</g>
<!-- Node24&#45;&gt;Node23 -->
<g id="edge35" class="edge">
<title>Node24&#45;&gt;Node23</title>
<path fill="none" stroke="midnightblue" d="M364.08,-224.4C377.17,-215.13 394.26,-203.03 407.5,-193.65"/>
<polygon fill="midnightblue" stroke="midnightblue" points="409.82,-196.29 415.95,-187.66 405.77,-190.58 409.82,-196.29"/>
</g>
</g>
</svg>
        <g id="navigator" transform="translate(0 0)" fill="#404254">
                <rect fill="#f2f5e9" fill-opacity="0.5" stroke="#606060" stroke-width=".5" x="0" y="0" width="60" height="60"/>
                <use id="zoomplus" xlink:href="#zoomPlus" x="17" y="9" onmousedown="handleZoom(evt,'in')"/>
                <use id="zoomminus" xlink:href="#zoomMin" x="42" y="9" onmousedown="handleZoom(evt,'out')"/>
                <use id="reset" xlink:href="#resetDef" x="30" y="36" onmousedown="handleReset()"/>
                <g id="arrowUp" xlink:href="#dirArrow" transform="translate(30 24)" onmousedown="handlePan(0,-1)">
                  <use xlink:href="#rim" fill="#404040">
                        <set attributeName="fill" to="#808080" begin="arrowUp.mouseover" end="arrowUp.mouseout"/>
                  </use>
                  <path fill="none" stroke="white" stroke-width="1.5" d="M0,-3.0v7 M-2.5,-0.5L0,-3.0L2.5,-0.5"/>
                </g>
                <g id="arrowRight" xlink:href="#dirArrow" transform="rotate(90) translate(36 -43)" onmousedown="handlePan(1,0)">
                  <use xlink:href="#rim" fill="#404040">
                        <set attributeName="fill" to="#808080" begin="arrowRight.mouseover" end="arrowRight.mouseout"/>
                  </use>
                  <path fill="none" stroke="white" stroke-width="1.5" d="M0,-3.0v7 M-2.5,-0.5L0,-3.0L2.5,-0.5"/>
                </g>
                <g id="arrowDown" xlink:href="#dirArrow" transform="rotate(180) translate(-30 -48)" onmousedown="handlePan(0,1)">
                  <use xlink:href="#rim" fill="#404040">
                        <set attributeName="fill" to="#808080" begin="arrowDown.mouseover" end="arrowDown.mouseout"/>
                  </use>
                  <path fill="none" stroke="white" stroke-width="1.5" d="M0,-3.0v7 M-2.5,-0.5L0,-3.0L2.5,-0.5"/>
                </g>
                <g id="arrowLeft" xlink:href="#dirArrow" transform="rotate(270) translate(-36 17)" onmousedown="handlePan(-1,0)">
                  <use xlink:href="#rim" fill="#404040">
                        <set attributeName="fill" to="#808080" begin="arrowLeft.mouseover" end="arrowLeft.mouseout"/>
                  </use>
                  <path fill="none" stroke="white" stroke-width="1.5" d="M0,-3.0v7 M-2.5,-0.5L0,-3.0L2.5,-0.5"/>
                </g>
        </g>
        <svg viewBox="0 0 15 15" width="100%" height="30px" preserveAspectRatio="xMaxYMin meet">
         <g id="arrow_out" transform="scale(0.3 0.3)">
          <a xlink:href="ConsignController_8h__incl_org.svg" target="_base">
           <rect id="button" ry="5" rx="5" y="6" x="6" height="38" width="38"
                fill="#f2f5e9" fill-opacity="0.5" stroke="#606060" stroke-width="1.0"/>
           <path id="arrow"
             d="M 11.500037,31.436501 C 11.940474,20.09759 22.043105,11.32322 32.158766,21.979434 L 37.068811,17.246167 C 37.068811,17.246167 37.088388,32 37.088388,32 L 22.160133,31.978069 C 22.160133,31.978069 26.997745,27.140456 26.997745,27.140456 C 18.528582,18.264221 13.291696,25.230495 11.500037,31.436501 z"
             style="fill:#404040;"/>
          </a>
         </g>
        </svg>
</svg>
