<?xml version="1.0" encoding="UTF-8" standalone="no"?>
<!DOCTYPE svg PUBLIC "-//W3C//DTD SVG 1.1//EN"
 "http://www.w3.org/Graphics/SVG/1.1/DTD/svg11.dtd">
<!-- Generated by graphviz version 2.43.0 (0)
 -->
<!-- Title: src/common/asserv.esial/odometrie Pages: 1 -->
<svg width="240pt" height="167pt"
 viewBox="0.00 0.00 240.00 167.00" xmlns="http://www.w3.org/2000/svg" xmlns:xlink="http://www.w3.org/1999/xlink">
<g id="graph0" class="graph" transform="scale(1 1) rotate(0) translate(4 163)">
<title>src/common/asserv.esial/odometrie</title>
<polygon fill="white" stroke="transparent" points="-4,4 -4,-163 236,-163 236,4 -4,4"/>
<g id="clust1" class="cluster">
<title>clusterdir_251413a062b2562b08c5015e69ca7513</title>
<g id="a_clust1"><a xlink:href="dir_251413a062b2562b08c5015e69ca7513.html" target="_top" xlink:title="asserv.esial">
<polygon fill="#ddddee" stroke="black" points="8,-8 8,-151 224,-151 224,-8 8,-8"/>
<text text-anchor="middle" x="116" y="-139" font-family="Helvetica,sans-Serif" font-size="10.00">asserv.esial</text>
</a>
</g>
</g>
<!-- dir_3f9e0bdefd6da561b30fce1eec131977 -->
<g id="node1" class="node">
<title>dir_3f9e0bdefd6da561b30fce1eec131977</title>
<g id="a_node1"><a xlink:href="dir_3f9e0bdefd6da561b30fce1eec131977.html" target="_top" xlink:title="config">
<polygon fill="none" stroke="black" points="142,-52 88,-52 88,-16 142,-16 142,-52"/>
<text text-anchor="middle" x="115" y="-31.5" font-family="Helvetica,sans-Serif" font-size="10.00">config</text>
</a>
</g>
</g>
<!-- dir_4dab226d839f664f618290786bbdddd1 -->
<g id="node2" class="node">
<title>dir_4dab226d839f664f618290786bbdddd1</title>
<g id="a_node2"><a xlink:href="dir_4dab226d839f664f618290786bbdddd1.html" target="_top" xlink:title="Utils">
<polygon fill="none" stroke="black" points="70,-52 16,-52 16,-16 70,-16 70,-52"/>
<text text-anchor="middle" x="43" y="-31.5" font-family="Helvetica,sans-Serif" font-size="10.00">Utils</text>
</a>
</g>
</g>
<!-- dir_96e38f339f147df9df15700c2daa6eb1 -->
<g id="node4" class="node">
<title>dir_96e38f339f147df9df15700c2daa6eb1</title>
<g id="a_node4"><a xlink:href="dir_96e38f339f147df9df15700c2daa6eb1.html" target="_top" xlink:title="odometrie">
<polygon fill="#eeeeff" stroke="black" points="115.5,-124 48.5,-124 48.5,-88 115.5,-88 115.5,-124"/>
<text text-anchor="middle" x="82" y="-103.5" font-family="Helvetica,sans-Serif" font-size="10.00">odometrie</text>
</a>
</g>
</g>
<!-- dir_4dab226d839f664f618290786bbdddd1&#45;&gt;dir_96e38f339f147df9df15700c2daa6eb1 -->
<g id="edge4" class="edge">
<title>dir_4dab226d839f664f618290786bbdddd1&#45;&gt;dir_96e38f339f147df9df15700c2daa6eb1</title>
<path fill="none" stroke="black" d="M58.42,-52.1C63.68,-60.04 69.27,-69.67 73.81,-78.51"/>
<polygon fill="black" stroke="black" points="70.76,-80.23 78.28,-87.7 77.05,-77.17 70.76,-80.23"/>
<g id="a_edge4&#45;headlabel"><a xlink:href="dir_000021_000019.html" target="_top" xlink:title="1">
<text text-anchor="middle" x="66.63" y="-75.74" font-family="Helvetica,sans-Serif" font-size="10.00">1</text>
</a>
</g>
</g>
<!-- dir_9852ee4a2a968d59bba85a1326952477 -->
<g id="node3" class="node">
<title>dir_9852ee4a2a968d59bba85a1326952477</title>
<g id="a_node3"><a xlink:href="dir_9852ee4a2a968d59bba85a1326952477.html" target="_top" xlink:title="codeurs">
<polygon fill="none" stroke="black" points="215.5,-52 160.5,-52 160.5,-16 215.5,-16 215.5,-52"/>
<text text-anchor="middle" x="188" y="-31.5" font-family="Helvetica,sans-Serif" font-size="10.00">codeurs</text>
</a>
</g>
</g>
<!-- dir_96e38f339f147df9df15700c2daa6eb1&#45;&gt;dir_3f9e0bdefd6da561b30fce1eec131977 -->
<g id="edge1" class="edge">
<title>dir_96e38f339f147df9df15700c2daa6eb1&#45;&gt;dir_3f9e0bdefd6da561b30fce1eec131977</title>
<path fill="none" stroke="black" d="M90.16,-87.7C93.91,-79.73 98.45,-70.1 102.62,-61.26"/>
<polygon fill="black" stroke="black" points="105.84,-62.64 106.94,-52.1 99.51,-59.66 105.84,-62.64"/>
<g id="a_edge1&#45;headlabel"><a xlink:href="dir_000019_000013.html" target="_top" xlink:title="1">
<text text-anchor="middle" x="106.87" y="-64.6" font-family="Helvetica,sans-Serif" font-size="10.00">1</text>
</a>
</g>
</g>
<!-- dir_96e38f339f147df9df15700c2daa6eb1&#45;&gt;dir_4dab226d839f664f618290786bbdddd1 -->
<g id="edge2" class="edge">
<title>dir_96e38f339f147df9df15700c2daa6eb1&#45;&gt;dir_4dab226d839f664f618290786bbdddd1</title>
<path fill="none" stroke="black" d="M66.44,-87.7C61.18,-79.73 55.6,-70.1 51.07,-61.26"/>
<polygon fill="black" stroke="black" points="54.15,-59.58 46.63,-52.1 47.85,-62.63 54.15,-59.58"/>
<g id="a_edge2&#45;headlabel"><a xlink:href="dir_000019_000021.html" target="_top" xlink:title="1">
<text text-anchor="middle" x="58.27" y="-59.07" font-family="Helvetica,sans-Serif" font-size="10.00">1</text>
</a>
</g>
</g>
<!-- dir_96e38f339f147df9df15700c2daa6eb1&#45;&gt;dir_9852ee4a2a968d59bba85a1326952477 -->
<g id="edge3" class="edge">
<title>dir_96e38f339f147df9df15700c2daa6eb1&#45;&gt;dir_9852ee4a2a968d59bba85a1326952477</title>
<path fill="none" stroke="black" d="M107.93,-87.88C121.66,-78.81 138.71,-67.55 153.54,-57.76"/>
<polygon fill="black" stroke="black" points="155.55,-60.62 161.97,-52.19 151.7,-54.78 155.55,-60.62"/>
<g id="a_edge3&#45;headlabel"><a xlink:href="dir_000019_000010.html" target="_top" xlink:title="1">
<text text-anchor="middle" x="154.12" y="-62.47" font-family="Helvetica,sans-Serif" font-size="10.00">1</text>
</a>
</g>
</g>
</g>
</svg>
