<?xml version="1.0" encoding="UTF-8" standalone="no"?>
<!DOCTYPE svg PUBLIC "-//W3C//DTD SVG 1.1//EN"
 "http://www.w3.org/Graphics/SVG/1.1/DTD/svg11.dtd">
<!-- Generated by graphviz version 2.43.0 (0)
 -->
<!-- Title: src/bot&#45;opos6ul Pages: 1 -->
<svg width="114pt" height="167pt"
 viewBox="0.00 0.00 114.00 167.00" xmlns="http://www.w3.org/2000/svg" xmlns:xlink="http://www.w3.org/1999/xlink">
<g id="graph0" class="graph" transform="scale(1 1) rotate(0) translate(4 163)">
<title>src/bot&#45;opos6ul</title>
<polygon fill="white" stroke="transparent" points="-4,4 -4,-163 110,-163 110,4 -4,4"/>
<g id="clust1" class="cluster">
<title>clusterdir_68267d1309a1af8e8297ef4c3efbcdba</title>
<g id="a_clust1"><a xlink:href="dir_68267d1309a1af8e8297ef4c3efbcdba.html" target="_top" xlink:title="src">
<polygon fill="#ddddee" stroke="black" points="8,-8 8,-151 98,-151 98,-8 8,-8"/>
<text text-anchor="middle" x="53" y="-139" font-family="Helvetica,sans-Serif" font-size="10.00">src</text>
</a>
</g>
</g>
<!-- dir_fdedb0aba14d44ce9d99bc100e026e6a -->
<g id="node1" class="node">
<title>dir_fdedb0aba14d44ce9d99bc100e026e6a</title>
<g id="a_node1"><a xlink:href="dir_fdedb0aba14d44ce9d99bc100e026e6a.html" target="_top" xlink:title="common">
<polygon fill="white" stroke="red" points="82.5,-52 23.5,-52 23.5,-16 82.5,-16 82.5,-52"/>
<text text-anchor="middle" x="53" y="-31.5" font-family="Helvetica,sans-Serif" font-size="10.00">common</text>
</a>
</g>
</g>
<!-- dir_d465e8d31fb80e2931b929fe23883031 -->
<g id="node2" class="node">
<title>dir_d465e8d31fb80e2931b929fe23883031</title>
<g id="a_node2"><a xlink:href="dir_d465e8d31fb80e2931b929fe23883031.html" target="_top" xlink:title="bot&#45;opos6ul">
<polygon fill="#eeeeff" stroke="black" points="90,-124 16,-124 16,-88 90,-88 90,-124"/>
<text text-anchor="middle" x="53" y="-103.5" font-family="Helvetica,sans-Serif" font-size="10.00">bot&#45;opos6ul</text>
</a>
</g>
</g>
<!-- dir_d465e8d31fb80e2931b929fe23883031&#45;&gt;dir_fdedb0aba14d44ce9d99bc100e026e6a -->
<g id="edge1" class="edge">
<title>dir_d465e8d31fb80e2931b929fe23883031&#45;&gt;dir_fdedb0aba14d44ce9d99bc100e026e6a</title>
<path fill="none" stroke="black" d="M53,-87.7C53,-79.98 53,-70.71 53,-62.11"/>
<polygon fill="black" stroke="black" points="56.5,-62.1 53,-52.1 49.5,-62.1 56.5,-62.1"/>
<g id="a_edge1&#45;headlabel"><a xlink:href="dir_000001_000007.html" target="_top" xlink:title="110">
<text text-anchor="middle" x="59.34" y="-63.2" font-family="Helvetica,sans-Serif" font-size="10.00">110</text>
</a>
</g>
</g>
</g>
</svg>
