<?xml version="1.0" encoding="UTF-8" standalone="no"?>
<!DOCTYPE svg PUBLIC "-//W3C//DTD SVG 1.1//EN"
 "http://www.w3.org/Graphics/SVG/1.1/DTD/svg11.dtd">
<!-- Generated by graphviz version 2.43.0 (0)
 -->
<!-- Title: src/common/interface Pages: 1 -->
<svg width="100pt" height="167pt"
 viewBox="0.00 0.00 100.00 167.00" xmlns="http://www.w3.org/2000/svg" xmlns:xlink="http://www.w3.org/1999/xlink">
<g id="graph0" class="graph" transform="scale(1 1) rotate(0) translate(4 163)">
<title>src/common/interface</title>
<polygon fill="white" stroke="transparent" points="-4,4 -4,-163 96,-163 96,4 -4,4"/>
<g id="clust1" class="cluster">
<title>clusterdir_fdedb0aba14d44ce9d99bc100e026e6a</title>
<g id="a_clust1"><a xlink:href="dir_fdedb0aba14d44ce9d99bc100e026e6a.html" target="_top" xlink:title="common">
<polygon fill="#ddddee" stroke="black" points="8,-8 8,-151 84,-151 84,-8 8,-8"/>
<text text-anchor="middle" x="46" y="-139" font-family="Helvetica,sans-Serif" font-size="10.00">common</text>
</a>
</g>
</g>
<!-- dir_c3d33904e581c7b40f74ea903e639ce2 -->
<g id="node1" class="node">
<title>dir_c3d33904e581c7b40f74ea903e639ce2</title>
<g id="a_node1"><a xlink:href="dir_c3d33904e581c7b40f74ea903e639ce2.html" target="_top" xlink:title="utils">
<polygon fill="none" stroke="black" points="73,-52 19,-52 19,-16 73,-16 73,-52"/>
<text text-anchor="middle" x="46" y="-31.5" font-family="Helvetica,sans-Serif" font-size="10.00">utils</text>
</a>
</g>
</g>
<!-- dir_c403bcb0997343f24f003e4263caa61d -->
<g id="node2" class="node">
<title>dir_c403bcb0997343f24f003e4263caa61d</title>
<g id="a_node2"><a xlink:href="dir_c403bcb0997343f24f003e4263caa61d.html" target="_top" xlink:title="interface">
<polygon fill="#eeeeff" stroke="black" points="76,-124 16,-124 16,-88 76,-88 76,-124"/>
<text text-anchor="middle" x="46" y="-103.5" font-family="Helvetica,sans-Serif" font-size="10.00">interface</text>
</a>
</g>
</g>
<!-- dir_c403bcb0997343f24f003e4263caa61d&#45;&gt;dir_c3d33904e581c7b40f74ea903e639ce2 -->
<g id="edge1" class="edge">
<title>dir_c403bcb0997343f24f003e4263caa61d&#45;&gt;dir_c3d33904e581c7b40f74ea903e639ce2</title>
<path fill="none" stroke="black" d="M46,-87.7C46,-79.98 46,-70.71 46,-62.11"/>
<polygon fill="black" stroke="black" points="49.5,-62.1 46,-52.1 42.5,-62.1 49.5,-62.1"/>
<g id="a_edge1&#45;headlabel"><a xlink:href="dir_000024_000030.html" target="_top" xlink:title="1">
<text text-anchor="middle" x="52.34" y="-63.2" font-family="Helvetica,sans-Serif" font-size="10.00">1</text>
</a>
</g>
</g>
</g>
</svg>
