<?xml version="1.0" encoding="UTF-8" standalone="no"?>
<!DOCTYPE svg PUBLIC "-//W3C//DTD SVG 1.1//EN"
 "http://www.w3.org/Graphics/SVG/1.1/DTD/svg11.dtd">
<!-- Generated by graphviz version 2.43.0 (0)
 -->
<!-- Title: src/driver&#45;simu/ActionDriver.cpp Pages: 1 -->
<!--zoomable 308 -->
<svg id="main" version="1.1" xmlns="http://www.w3.org/2000/svg" xmlns:xlink="http://www.w3.org/1999/xlink" xml:space="preserve" onload="init(evt)">
<style type="text/css"><![CDATA[
.edge:hover path { stroke: red; }
.edge:hover polygon { stroke: red; fill: red; }
]]></style>
<script type="text/javascript"><![CDATA[
var edges = document.getElementsByTagName('g');
if (edges && edges.length) {
  for (var i=0;i<edges.length;i++) {
    if (edges[i].id.substr(0,4)=='edge') {
      edges[i].setAttribute('class','edge');
    }
  }
}
]]></script>
        <defs>
                <circle id="rim" cx="0" cy="0" r="7"/>
                <circle id="rim2" cx="0" cy="0" r="3.5"/>
                <g id="zoomPlus">
                        <use xlink:href="#rim" fill="#404040">
                                <set attributeName="fill" to="#808080" begin="zoomplus.mouseover" end="zoomplus.mouseout"/>
                        </use>
                        <path d="M-4,0h8M0,-4v8" fill="none" stroke="white" stroke-width="1.5" pointer-events="none"/>
                </g>
                <g id="zoomMin">
                        <use xlink:href="#rim" fill="#404040">
                                <set attributeName="fill" to="#808080" begin="zoomminus.mouseover" end="zoomminus.mouseout"/>
                        </use>
                        <path d="M-4,0h8" fill="none" stroke="white" stroke-width="1.5" pointer-events="none"/>
                </g>
                <g id="dirArrow">
                        <path fill="none" stroke="white" stroke-width="1.5" d="M0,-3.0v7 M-2.5,-0.5L0,-3.0L2.5,-0.5"/>
                </g>
               <g id="resetDef">
                       <use xlink:href="#rim2" fill="#404040">
                               <set attributeName="fill" to="#808080" begin="reset.mouseover" end="reset.mouseout"/>
                       </use>
               </g>
        </defs>

<script type="text/javascript">
var viewWidth = 683;
var viewHeight = 308;
var sectionId = 'dynsection-0';
</script>
<script xlink:href="svgpan.js"/>
<svg id="graph" class="graph">
<g id="viewport">
<title>src/driver&#45;simu/ActionDriver.cpp</title>
<polygon fill="white" stroke="transparent" points="-4,4 -4,-304 678.5,-304 678.5,4 -4,4"/>
<!-- Node1 -->
<g id="node1" class="node">
<title>Node1</title>
<g id="a_node1"><a xlink:title="Implementation SIMU du driver d&#39;actions.">
<polygon fill="#bfbfbf" stroke="black" points="66,-280.5 66,-299.5 239,-299.5 239,-280.5 66,-280.5"/>
<text text-anchor="middle" x="152.5" y="-287.5" font-family="Helvetica,sans-Serif" font-size="10.00">src/driver&#45;simu/ActionDriver.cpp</text>
</a>
</g>
</g>
<!-- Node2 -->
<g id="node2" class="node">
<title>Node2</title>
<g id="a_node2"><a xlink:href="driver-simu_2ActionDriver_8hpp.html" target="_top" xlink:title="Implementation SIMU du driver d&#39;actions.">
<polygon fill="white" stroke="black" points="103.5,-224.5 103.5,-243.5 201.5,-243.5 201.5,-224.5 103.5,-224.5"/>
<text text-anchor="middle" x="152.5" y="-231.5" font-family="Helvetica,sans-Serif" font-size="10.00">ActionDriver.hpp</text>
</a>
</g>
</g>
<!-- Node1&#45;&gt;Node2 -->
<g id="edge1" class="edge">
<title>Node1&#45;&gt;Node2</title>
<path fill="none" stroke="midnightblue" d="M152.5,-280.08C152.5,-273.01 152.5,-262.86 152.5,-253.99"/>
<polygon fill="midnightblue" stroke="midnightblue" points="156,-253.75 152.5,-243.75 149,-253.75 156,-253.75"/>
</g>
<!-- Node3 -->
<g id="node3" class="node">
<title>Node3</title>
<g id="a_node3"><a xlink:href="AActionDriver_8hpp.html" target="_top" xlink:title="Interface abstraite du driver d&#39;actions specifiques au robot.">
<polygon fill="white" stroke="black" points="0,-168.5 0,-187.5 151,-187.5 151,-168.5 0,-168.5"/>
<text text-anchor="middle" x="75.5" y="-175.5" font-family="Helvetica,sans-Serif" font-size="10.00">interface/AActionDriver.hpp</text>
</a>
</g>
</g>
<!-- Node2&#45;&gt;Node3 -->
<g id="edge2" class="edge">
<title>Node2&#45;&gt;Node3</title>
<path fill="none" stroke="midnightblue" d="M140.13,-224.32C128.34,-216.06 110.37,-203.45 96.36,-193.63"/>
<polygon fill="midnightblue" stroke="midnightblue" points="98.04,-190.53 87.84,-187.65 94.02,-196.26 98.04,-190.53"/>
</g>
<!-- Node4 -->
<g id="node4" class="node">
<title>Node4</title>
<g id="a_node4"><a xlink:href="LoggerFactory_8hpp.html" target="_top" xlink:title="Définition de la classe LoggerFactory.">
<polygon fill="white" stroke="black" points="169.5,-168.5 169.5,-187.5 291.5,-187.5 291.5,-168.5 169.5,-168.5"/>
<text text-anchor="middle" x="230.5" y="-175.5" font-family="Helvetica,sans-Serif" font-size="10.00">log/LoggerFactory.hpp</text>
</a>
</g>
</g>
<!-- Node2&#45;&gt;Node4 -->
<g id="edge3" class="edge">
<title>Node2&#45;&gt;Node4</title>
<path fill="none" stroke="midnightblue" d="M165.03,-224.32C177.09,-215.98 195.53,-203.21 209.77,-193.35"/>
<polygon fill="midnightblue" stroke="midnightblue" points="211.77,-196.22 218,-187.65 207.78,-190.47 211.77,-196.22"/>
</g>
<!-- Node5 -->
<g id="node5" class="node">
<title>Node5</title>
<g id="a_node5"><a xlink:title=" ">
<polygon fill="white" stroke="#bfbfbf" points="108.5,-112.5 108.5,-131.5 146.5,-131.5 146.5,-112.5 108.5,-112.5"/>
<text text-anchor="middle" x="127.5" y="-119.5" font-family="Helvetica,sans-Serif" font-size="10.00">map</text>
</a>
</g>
</g>
<!-- Node4&#45;&gt;Node5 -->
<g id="edge4" class="edge">
<title>Node4&#45;&gt;Node5</title>
<path fill="none" stroke="midnightblue" d="M213.95,-168.32C197.51,-159.7 172.07,-146.36 153.03,-136.39"/>
<polygon fill="midnightblue" stroke="midnightblue" points="154.49,-133.2 144.01,-131.65 151.24,-139.4 154.49,-133.2"/>
</g>
<!-- Node6 -->
<g id="node6" class="node">
<title>Node6</title>
<g id="a_node6"><a xlink:title=" ">
<polygon fill="white" stroke="#bfbfbf" points="294.5,-0.5 294.5,-19.5 338.5,-19.5 338.5,-0.5 294.5,-0.5"/>
<text text-anchor="middle" x="316.5" y="-7.5" font-family="Helvetica,sans-Serif" font-size="10.00">string</text>
</a>
</g>
</g>
<!-- Node4&#45;&gt;Node6 -->
<g id="edge5" class="edge">
<title>Node4&#45;&gt;Node6</title>
<path fill="none" stroke="midnightblue" d="M223.11,-168.29C206.19,-147.22 167.95,-92.55 193.5,-56 213.8,-26.95 254.98,-16.59 284.08,-12.94"/>
<polygon fill="midnightblue" stroke="midnightblue" points="284.62,-16.4 294.2,-11.87 283.89,-9.44 284.62,-16.4"/>
</g>
<!-- Node7 -->
<g id="node7" class="node">
<title>Node7</title>
<g id="a_node7"><a xlink:href="Thread_8hpp.html" target="_top" xlink:title="Définition de la classe Thread.">
<polygon fill="white" stroke="black" points="454,-112.5 454,-131.5 569,-131.5 569,-112.5 454,-112.5"/>
<text text-anchor="middle" x="511.5" y="-119.5" font-family="Helvetica,sans-Serif" font-size="10.00">../thread/Thread.hpp</text>
</a>
</g>
</g>
<!-- Node4&#45;&gt;Node7 -->
<g id="edge6" class="edge">
<title>Node4&#45;&gt;Node7</title>
<path fill="none" stroke="midnightblue" d="M275.03,-168.44C324.46,-158.94 404.25,-143.61 457.28,-133.42"/>
<polygon fill="midnightblue" stroke="midnightblue" points="458.02,-136.84 467.18,-131.52 456.7,-129.97 458.02,-136.84"/>
</g>
<!-- Node12 -->
<g id="node12" class="node">
<title>Node12</title>
<g id="a_node12"><a xlink:href="Logger_8hpp.html" target="_top" xlink:title="Définition de la classe Logger.">
<polygon fill="white" stroke="black" points="251.5,-112.5 251.5,-131.5 321.5,-131.5 321.5,-112.5 251.5,-112.5"/>
<text text-anchor="middle" x="286.5" y="-119.5" font-family="Helvetica,sans-Serif" font-size="10.00">Logger.hpp</text>
</a>
</g>
</g>
<!-- Node4&#45;&gt;Node12 -->
<g id="edge13" class="edge">
<title>Node4&#45;&gt;Node12</title>
<path fill="none" stroke="midnightblue" d="M239.5,-168.32C247.69,-160.42 260.01,-148.55 269.97,-138.94"/>
<polygon fill="midnightblue" stroke="midnightblue" points="272.57,-141.29 277.34,-131.83 267.71,-136.26 272.57,-141.29"/>
</g>
<!-- Node7&#45;&gt;Node6 -->
<g id="edge8" class="edge">
<title>Node7&#45;&gt;Node6</title>
<path fill="none" stroke="midnightblue" d="M508.84,-112.42C504.06,-98.47 492.7,-70.92 473.5,-56 436.93,-27.59 383.12,-17.11 348.95,-13.25"/>
<polygon fill="midnightblue" stroke="midnightblue" points="348.89,-9.73 338.59,-12.22 348.2,-16.69 348.89,-9.73"/>
</g>
<!-- Node8 -->
<g id="node8" class="node">
<title>Node8</title>
<g id="a_node8"><a xlink:title=" ">
<polygon fill="white" stroke="#bfbfbf" points="449,-0.5 449,-19.5 512,-19.5 512,-0.5 449,-0.5"/>
<text text-anchor="middle" x="480.5" y="-7.5" font-family="Helvetica,sans-Serif" font-size="10.00">pthread.h</text>
</a>
</g>
</g>
<!-- Node7&#45;&gt;Node8 -->
<g id="edge7" class="edge">
<title>Node7&#45;&gt;Node8</title>
<path fill="none" stroke="midnightblue" d="M512.03,-112.36C512.55,-99.69 512.53,-75.46 506.5,-56 503.47,-46.21 498.01,-36.25 492.87,-28.2"/>
<polygon fill="midnightblue" stroke="midnightblue" points="495.66,-26.07 487.16,-19.75 489.86,-29.99 495.66,-26.07"/>
</g>
<!-- Node9 -->
<g id="node9" class="node">
<title>Node9</title>
<g id="a_node9"><a xlink:title=" ">
<polygon fill="white" stroke="#bfbfbf" points="558.5,-56.5 558.5,-75.5 606.5,-75.5 606.5,-56.5 558.5,-56.5"/>
<text text-anchor="middle" x="582.5" y="-63.5" font-family="Helvetica,sans-Serif" font-size="10.00">thread</text>
</a>
</g>
</g>
<!-- Node7&#45;&gt;Node9 -->
<g id="edge9" class="edge">
<title>Node7&#45;&gt;Node9</title>
<path fill="none" stroke="midnightblue" d="M522.91,-112.32C533.61,-104.18 549.84,-91.84 562.66,-82.09"/>
<polygon fill="midnightblue" stroke="midnightblue" points="565.04,-84.67 570.89,-75.83 560.81,-79.1 565.04,-84.67"/>
</g>
<!-- Node10 -->
<g id="node10" class="node">
<title>Node10</title>
<g id="a_node10"><a xlink:href="Mutex_8hpp.html" target="_top" xlink:title="Définition de la classe Mutex.">
<polygon fill="white" stroke="black" points="396.5,-56.5 396.5,-75.5 464.5,-75.5 464.5,-56.5 396.5,-56.5"/>
<text text-anchor="middle" x="430.5" y="-63.5" font-family="Helvetica,sans-Serif" font-size="10.00">Mutex.hpp</text>
</a>
</g>
</g>
<!-- Node7&#45;&gt;Node10 -->
<g id="edge10" class="edge">
<title>Node7&#45;&gt;Node10</title>
<path fill="none" stroke="midnightblue" d="M498.49,-112.32C485.97,-103.98 466.82,-91.21 452.03,-81.35"/>
<polygon fill="midnightblue" stroke="midnightblue" points="453.74,-78.29 443.48,-75.65 449.86,-84.11 453.74,-78.29"/>
</g>
<!-- Node11 -->
<g id="node11" class="node">
<title>Node11</title>
<g id="a_node11"><a xlink:title=" ">
<polygon fill="white" stroke="#bfbfbf" points="624.5,-56.5 624.5,-75.5 674.5,-75.5 674.5,-56.5 624.5,-56.5"/>
<text text-anchor="middle" x="649.5" y="-63.5" font-family="Helvetica,sans-Serif" font-size="10.00">chrono</text>
</a>
</g>
</g>
<!-- Node7&#45;&gt;Node11 -->
<g id="edge12" class="edge">
<title>Node7&#45;&gt;Node11</title>
<path fill="none" stroke="midnightblue" d="M533.37,-112.44C556.28,-103.48 592.48,-89.31 618.37,-79.18"/>
<polygon fill="midnightblue" stroke="midnightblue" points="619.7,-82.42 627.74,-75.52 617.15,-75.9 619.7,-82.42"/>
</g>
<!-- Node10&#45;&gt;Node8 -->
<g id="edge11" class="edge">
<title>Node10&#45;&gt;Node8</title>
<path fill="none" stroke="midnightblue" d="M438.76,-56.08C445.96,-48.3 456.61,-36.8 465.35,-27.37"/>
<polygon fill="midnightblue" stroke="midnightblue" points="468.17,-29.47 472.4,-19.75 463.03,-24.71 468.17,-29.47"/>
</g>
<!-- Node12&#45;&gt;Node6 -->
<g id="edge15" class="edge">
<title>Node12&#45;&gt;Node6</title>
<path fill="none" stroke="midnightblue" d="M288.85,-112.37C293.72,-94.54 304.96,-53.3 311.52,-29.27"/>
<polygon fill="midnightblue" stroke="midnightblue" points="314.9,-30.16 314.16,-19.59 308.15,-28.32 314.9,-30.16"/>
</g>
<!-- Node12&#45;&gt;Node10 -->
<g id="edge16" class="edge">
<title>Node12&#45;&gt;Node10</title>
<path fill="none" stroke="midnightblue" d="M309.32,-112.44C333.33,-103.44 371.33,-89.19 398.37,-79.05"/>
<polygon fill="midnightblue" stroke="midnightblue" points="399.66,-82.3 407.79,-75.52 397.2,-75.75 399.66,-82.3"/>
</g>
<!-- Node13 -->
<g id="node13" class="node">
<title>Node13</title>
<g id="a_node13"><a xlink:title=" ">
<polygon fill="white" stroke="#bfbfbf" points="202.5,-56.5 202.5,-75.5 258.5,-75.5 258.5,-56.5 202.5,-56.5"/>
<text text-anchor="middle" x="230.5" y="-63.5" font-family="Helvetica,sans-Serif" font-size="10.00">sstream</text>
</a>
</g>
</g>
<!-- Node12&#45;&gt;Node13 -->
<g id="edge14" class="edge">
<title>Node12&#45;&gt;Node13</title>
<path fill="none" stroke="midnightblue" d="M277.5,-112.32C269.31,-104.42 256.99,-92.55 247.03,-82.94"/>
<polygon fill="midnightblue" stroke="midnightblue" points="249.29,-80.26 239.66,-75.83 244.43,-85.29 249.29,-80.26"/>
</g>
<!-- Node14 -->
<g id="node14" class="node">
<title>Node14</title>
<g id="a_node14"><a xlink:href="Level_8hpp.html" target="_top" xlink:title="Définition de la classe Level.">
<polygon fill="white" stroke="black" points="314.5,-56.5 314.5,-75.5 378.5,-75.5 378.5,-56.5 314.5,-56.5"/>
<text text-anchor="middle" x="346.5" y="-63.5" font-family="Helvetica,sans-Serif" font-size="10.00">Level.hpp</text>
</a>
</g>
</g>
<!-- Node12&#45;&gt;Node14 -->
<g id="edge17" class="edge">
<title>Node12&#45;&gt;Node14</title>
<path fill="none" stroke="midnightblue" d="M296.14,-112.32C305.01,-104.34 318.37,-92.31 329.11,-82.65"/>
<polygon fill="midnightblue" stroke="midnightblue" points="331.59,-85.13 336.68,-75.83 326.91,-79.92 331.59,-85.13"/>
</g>
<!-- Node14&#45;&gt;Node6 -->
<g id="edge18" class="edge">
<title>Node14&#45;&gt;Node6</title>
<path fill="none" stroke="midnightblue" d="M341.55,-56.08C337.4,-48.61 331.35,-37.72 326.23,-28.52"/>
<polygon fill="midnightblue" stroke="midnightblue" points="329.28,-26.79 321.36,-19.75 323.16,-30.19 329.28,-26.79"/>
</g>
</g>
</svg>
        <g id="navigator" transform="translate(0 0)" fill="#404254">
                <rect fill="#f2f5e9" fill-opacity="0.5" stroke="#606060" stroke-width=".5" x="0" y="0" width="60" height="60"/>
                <use id="zoomplus" xlink:href="#zoomPlus" x="17" y="9" onmousedown="handleZoom(evt,'in')"/>
                <use id="zoomminus" xlink:href="#zoomMin" x="42" y="9" onmousedown="handleZoom(evt,'out')"/>
                <use id="reset" xlink:href="#resetDef" x="30" y="36" onmousedown="handleReset()"/>
                <g id="arrowUp" xlink:href="#dirArrow" transform="translate(30 24)" onmousedown="handlePan(0,-1)">
                  <use xlink:href="#rim" fill="#404040">
                        <set attributeName="fill" to="#808080" begin="arrowUp.mouseover" end="arrowUp.mouseout"/>
                  </use>
                  <path fill="none" stroke="white" stroke-width="1.5" d="M0,-3.0v7 M-2.5,-0.5L0,-3.0L2.5,-0.5"/>
                </g>
                <g id="arrowRight" xlink:href="#dirArrow" transform="rotate(90) translate(36 -43)" onmousedown="handlePan(1,0)">
                  <use xlink:href="#rim" fill="#404040">
                        <set attributeName="fill" to="#808080" begin="arrowRight.mouseover" end="arrowRight.mouseout"/>
                  </use>
                  <path fill="none" stroke="white" stroke-width="1.5" d="M0,-3.0v7 M-2.5,-0.5L0,-3.0L2.5,-0.5"/>
                </g>
                <g id="arrowDown" xlink:href="#dirArrow" transform="rotate(180) translate(-30 -48)" onmousedown="handlePan(0,1)">
                  <use xlink:href="#rim" fill="#404040">
                        <set attributeName="fill" to="#808080" begin="arrowDown.mouseover" end="arrowDown.mouseout"/>
                  </use>
                  <path fill="none" stroke="white" stroke-width="1.5" d="M0,-3.0v7 M-2.5,-0.5L0,-3.0L2.5,-0.5"/>
                </g>
                <g id="arrowLeft" xlink:href="#dirArrow" transform="rotate(270) translate(-36 17)" onmousedown="handlePan(-1,0)">
                  <use xlink:href="#rim" fill="#404040">
                        <set attributeName="fill" to="#808080" begin="arrowLeft.mouseover" end="arrowLeft.mouseout"/>
                  </use>
                  <path fill="none" stroke="white" stroke-width="1.5" d="M0,-3.0v7 M-2.5,-0.5L0,-3.0L2.5,-0.5"/>
                </g>
        </g>
        <svg viewBox="0 0 15 15" width="100%" height="30px" preserveAspectRatio="xMaxYMin meet">
         <g id="arrow_out" transform="scale(0.3 0.3)">
          <a xlink:href="driver-simu_2ActionDriver_8cpp__incl_org.svg" target="_base">
           <rect id="button" ry="5" rx="5" y="6" x="6" height="38" width="38"
                fill="#f2f5e9" fill-opacity="0.5" stroke="#606060" stroke-width="1.0"/>
           <path id="arrow"
             d="M 11.500037,31.436501 C 11.940474,20.09759 22.043105,11.32322 32.158766,21.979434 L 37.068811,17.246167 C 37.068811,17.246167 37.088388,32 37.088388,32 L 22.160133,31.978069 C 22.160133,31.978069 26.997745,27.140456 26.997745,27.140456 C 18.528582,18.264221 13.291696,25.230495 11.500037,31.436501 z"
             style="fill:#404040;"/>
          </a>
         </g>
        </svg>
</svg>
