<?xml version="1.0" encoding="UTF-8" standalone="no"?>
<!DOCTYPE svg PUBLIC "-//W3C//DTD SVG 1.1//EN"
 "http://www.w3.org/Graphics/SVG/1.1/DTD/svg11.dtd">
<!-- Generated by graphviz version 2.43.0 (0)
 -->
<!-- Title: src/driver&#45;simu/SwitchDriver.hpp Pages: 1 -->
<svg width="717pt" height="252pt"
 viewBox="0.00 0.00 717.22 252.00" xmlns="http://www.w3.org/2000/svg" xmlns:xlink="http://www.w3.org/1999/xlink">
<g id="graph0" class="graph" transform="scale(1 1) rotate(0) translate(4 248)">
<title>src/driver&#45;simu/SwitchDriver.hpp</title>
<polygon fill="white" stroke="transparent" points="-4,4 -4,-248 713.22,-248 713.22,4 -4,4"/>
<!-- Node1 -->
<g id="node1" class="node">
<title>Node1</title>
<g id="a_node1"><a xlink:title="Implementation SIMU du driver de switchs et tirette.">
<polygon fill="#bfbfbf" stroke="black" points="65,-224.5 65,-243.5 241,-243.5 241,-224.5 65,-224.5"/>
<text text-anchor="middle" x="153" y="-231.5" font-family="Helvetica,sans-Serif" font-size="10.00">src/driver&#45;simu/SwitchDriver.hpp</text>
</a>
</g>
</g>
<!-- Node2 -->
<g id="node2" class="node">
<title>Node2</title>
<g id="a_node2"><a xlink:href="ASwitchDriver_8hpp.html" target="_top" xlink:title="Interface abstraite du driver de switchs et tirette.">
<polygon fill="white" stroke="black" points="0,-168.5 0,-187.5 152,-187.5 152,-168.5 0,-168.5"/>
<text text-anchor="middle" x="76" y="-175.5" font-family="Helvetica,sans-Serif" font-size="10.00">interface/ASwitchDriver.hpp</text>
</a>
</g>
</g>
<!-- Node1&#45;&gt;Node2 -->
<g id="edge1" class="edge">
<title>Node1&#45;&gt;Node2</title>
<path fill="none" stroke="midnightblue" d="M140.63,-224.32C128.84,-216.06 110.87,-203.45 96.86,-193.63"/>
<polygon fill="midnightblue" stroke="midnightblue" points="98.54,-190.53 88.34,-187.65 94.52,-196.26 98.54,-190.53"/>
</g>
<!-- Node4 -->
<g id="node4" class="node">
<title>Node4</title>
<g id="a_node4"><a xlink:href="LoggerFactory_8hpp.html" target="_top" xlink:title="Définition de la classe LoggerFactory.">
<polygon fill="white" stroke="black" points="170,-168.5 170,-187.5 292,-187.5 292,-168.5 170,-168.5"/>
<text text-anchor="middle" x="231" y="-175.5" font-family="Helvetica,sans-Serif" font-size="10.00">log/LoggerFactory.hpp</text>
</a>
</g>
</g>
<!-- Node1&#45;&gt;Node4 -->
<g id="edge3" class="edge">
<title>Node1&#45;&gt;Node4</title>
<path fill="none" stroke="midnightblue" d="M165.53,-224.32C177.59,-215.98 196.03,-203.21 210.27,-193.35"/>
<polygon fill="midnightblue" stroke="midnightblue" points="212.27,-196.22 218.5,-187.65 208.28,-190.47 212.27,-196.22"/>
</g>
<!-- Node3 -->
<g id="node3" class="node">
<title>Node3</title>
<g id="a_node3"><a xlink:title=" ">
<polygon fill="white" stroke="#bfbfbf" points="260,-0.5 260,-19.5 304,-19.5 304,-0.5 260,-0.5"/>
<text text-anchor="middle" x="282" y="-7.5" font-family="Helvetica,sans-Serif" font-size="10.00">string</text>
</a>
</g>
</g>
<!-- Node2&#45;&gt;Node3 -->
<g id="edge2" class="edge">
<title>Node2&#45;&gt;Node3</title>
<path fill="none" stroke="midnightblue" d="M76.67,-168.17C78.07,-154.82 82.33,-129.24 95,-112 133.45,-59.67 207.41,-31.56 249.88,-19.09"/>
<polygon fill="midnightblue" stroke="midnightblue" points="251.04,-22.41 259.71,-16.33 249.14,-15.67 251.04,-22.41"/>
</g>
<!-- Node4&#45;&gt;Node3 -->
<g id="edge5" class="edge">
<title>Node4&#45;&gt;Node3</title>
<path fill="none" stroke="midnightblue" d="M223,-168.2C205.08,-147.39 165.14,-94.06 189,-56 202.27,-34.84 228.61,-23.39 249.88,-17.34"/>
<polygon fill="midnightblue" stroke="midnightblue" points="251.02,-20.66 259.84,-14.79 249.28,-13.88 251.02,-20.66"/>
</g>
<!-- Node5 -->
<g id="node5" class="node">
<title>Node5</title>
<g id="a_node5"><a xlink:title=" ">
<polygon fill="white" stroke="#bfbfbf" points="104,-112.5 104,-131.5 142,-131.5 142,-112.5 104,-112.5"/>
<text text-anchor="middle" x="123" y="-119.5" font-family="Helvetica,sans-Serif" font-size="10.00">map</text>
</a>
</g>
</g>
<!-- Node4&#45;&gt;Node5 -->
<g id="edge4" class="edge">
<title>Node4&#45;&gt;Node5</title>
<path fill="none" stroke="midnightblue" d="M213.65,-168.32C196.33,-159.66 169.48,-146.24 149.5,-136.25"/>
<polygon fill="midnightblue" stroke="midnightblue" points="150.82,-133 140.31,-131.65 147.69,-139.26 150.82,-133"/>
</g>
<!-- Node6 -->
<g id="node6" class="node">
<title>Node6</title>
<g id="a_node6"><a xlink:href="Thread_8hpp.html" target="_top" xlink:title="Définition de la classe Thread.">
<polygon fill="white" stroke="black" points="482.5,-112.5 482.5,-131.5 597.5,-131.5 597.5,-112.5 482.5,-112.5"/>
<text text-anchor="middle" x="540" y="-119.5" font-family="Helvetica,sans-Serif" font-size="10.00">../thread/Thread.hpp</text>
</a>
</g>
</g>
<!-- Node4&#45;&gt;Node6 -->
<g id="edge6" class="edge">
<title>Node4&#45;&gt;Node6</title>
<path fill="none" stroke="midnightblue" d="M279.96,-168.44C334.54,-158.9 422.79,-143.48 481.1,-133.29"/>
<polygon fill="midnightblue" stroke="midnightblue" points="482.02,-136.69 491.27,-131.52 480.81,-129.79 482.02,-136.69"/>
</g>
<!-- Node12 -->
<g id="node12" class="node">
<title>Node12</title>
<g id="a_node12"><a xlink:href="Logger_8hpp.html" target="_top" xlink:title="Définition de la classe Logger.">
<polygon fill="white" stroke="black" points="247,-112.5 247,-131.5 317,-131.5 317,-112.5 247,-112.5"/>
<text text-anchor="middle" x="282" y="-119.5" font-family="Helvetica,sans-Serif" font-size="10.00">Logger.hpp</text>
</a>
</g>
</g>
<!-- Node4&#45;&gt;Node12 -->
<g id="edge14" class="edge">
<title>Node4&#45;&gt;Node12</title>
<path fill="none" stroke="midnightblue" d="M239.42,-168.08C246.85,-160.22 257.85,-148.57 266.81,-139.08"/>
<polygon fill="midnightblue" stroke="midnightblue" points="269.41,-141.42 273.74,-131.75 264.32,-136.62 269.41,-141.42"/>
</g>
<!-- Node6&#45;&gt;Node3 -->
<g id="edge8" class="edge">
<title>Node6&#45;&gt;Node3</title>
<path fill="none" stroke="midnightblue" d="M533.13,-112.35C521.49,-98.29 496.44,-70.59 469,-56 419.01,-29.42 353.2,-18.31 314.47,-13.83"/>
<polygon fill="midnightblue" stroke="midnightblue" points="314.61,-10.33 304.29,-12.74 313.86,-17.29 314.61,-10.33"/>
</g>
<!-- Node7 -->
<g id="node7" class="node">
<title>Node7</title>
<g id="a_node7"><a xlink:title=" ">
<polygon fill="white" stroke="#bfbfbf" points="542.5,-0.5 542.5,-19.5 605.5,-19.5 605.5,-0.5 542.5,-0.5"/>
<text text-anchor="middle" x="574" y="-7.5" font-family="Helvetica,sans-Serif" font-size="10.00">pthread.h</text>
</a>
</g>
</g>
<!-- Node6&#45;&gt;Node7 -->
<g id="edge7" class="edge">
<title>Node6&#45;&gt;Node7</title>
<path fill="none" stroke="midnightblue" d="M597.66,-112.58C639.18,-105.21 690.06,-92.99 703,-76 729.04,-41.8 662.37,-24.25 615.47,-16.4"/>
<polygon fill="midnightblue" stroke="midnightblue" points="615.93,-12.93 605.51,-14.82 614.84,-19.84 615.93,-12.93"/>
</g>
<!-- Node8 -->
<g id="node8" class="node">
<title>Node8</title>
<g id="a_node8"><a xlink:title=" ">
<polygon fill="white" stroke="#bfbfbf" points="516,-56.5 516,-75.5 564,-75.5 564,-56.5 516,-56.5"/>
<text text-anchor="middle" x="540" y="-63.5" font-family="Helvetica,sans-Serif" font-size="10.00">thread</text>
</a>
</g>
</g>
<!-- Node6&#45;&gt;Node8 -->
<g id="edge9" class="edge">
<title>Node6&#45;&gt;Node8</title>
<path fill="none" stroke="midnightblue" d="M540,-112.08C540,-105.01 540,-94.86 540,-85.99"/>
<polygon fill="midnightblue" stroke="midnightblue" points="543.5,-85.75 540,-75.75 536.5,-85.75 543.5,-85.75"/>
</g>
<!-- Node9 -->
<g id="node9" class="node">
<title>Node9</title>
<g id="a_node9"><a xlink:title=" ">
<polygon fill="white" stroke="#bfbfbf" points="582,-56.5 582,-75.5 626,-75.5 626,-56.5 582,-56.5"/>
<text text-anchor="middle" x="604" y="-63.5" font-family="Helvetica,sans-Serif" font-size="10.00">ctime</text>
</a>
</g>
</g>
<!-- Node6&#45;&gt;Node9 -->
<g id="edge10" class="edge">
<title>Node6&#45;&gt;Node9</title>
<path fill="none" stroke="midnightblue" d="M550.28,-112.32C559.84,-104.26 574.28,-92.08 585.78,-82.37"/>
<polygon fill="midnightblue" stroke="midnightblue" points="588.14,-84.96 593.53,-75.83 583.63,-79.61 588.14,-84.96"/>
</g>
<!-- Node10 -->
<g id="node10" class="node">
<title>Node10</title>
<g id="a_node10"><a xlink:href="Mutex_8hpp.html" target="_top" xlink:title="Définition de la classe Mutex.">
<polygon fill="white" stroke="black" points="392,-56.5 392,-75.5 460,-75.5 460,-56.5 392,-56.5"/>
<text text-anchor="middle" x="426" y="-63.5" font-family="Helvetica,sans-Serif" font-size="10.00">Mutex.hpp</text>
</a>
</g>
</g>
<!-- Node6&#45;&gt;Node10 -->
<g id="edge11" class="edge">
<title>Node6&#45;&gt;Node10</title>
<path fill="none" stroke="midnightblue" d="M521.94,-112.44C503.43,-103.68 474.42,-89.94 453.14,-79.86"/>
<polygon fill="midnightblue" stroke="midnightblue" points="454.51,-76.63 443.98,-75.52 451.52,-82.96 454.51,-76.63"/>
</g>
<!-- Node11 -->
<g id="node11" class="node">
<title>Node11</title>
<g id="a_node11"><a xlink:title=" ">
<polygon fill="white" stroke="#bfbfbf" points="644,-56.5 644,-75.5 694,-75.5 694,-56.5 644,-56.5"/>
<text text-anchor="middle" x="669" y="-63.5" font-family="Helvetica,sans-Serif" font-size="10.00">chrono</text>
</a>
</g>
</g>
<!-- Node6&#45;&gt;Node11 -->
<g id="edge13" class="edge">
<title>Node6&#45;&gt;Node11</title>
<path fill="none" stroke="midnightblue" d="M560.44,-112.44C581.67,-103.56 615.1,-89.56 639.25,-79.45"/>
<polygon fill="midnightblue" stroke="midnightblue" points="640.78,-82.61 648.66,-75.52 638.08,-76.15 640.78,-82.61"/>
</g>
<!-- Node10&#45;&gt;Node7 -->
<g id="edge12" class="edge">
<title>Node10&#45;&gt;Node7</title>
<path fill="none" stroke="midnightblue" d="M449.45,-56.44C474.13,-47.44 513.19,-33.19 540.98,-23.05"/>
<polygon fill="midnightblue" stroke="midnightblue" points="542.46,-26.23 550.66,-19.52 540.06,-19.66 542.46,-26.23"/>
</g>
<!-- Node12&#45;&gt;Node3 -->
<g id="edge16" class="edge">
<title>Node12&#45;&gt;Node3</title>
<path fill="none" stroke="midnightblue" d="M282,-112.37C282,-94.62 282,-53.67 282,-29.6"/>
<polygon fill="midnightblue" stroke="midnightblue" points="285.5,-29.59 282,-19.59 278.5,-29.59 285.5,-29.59"/>
</g>
<!-- Node12&#45;&gt;Node10 -->
<g id="edge17" class="edge">
<title>Node12&#45;&gt;Node10</title>
<path fill="none" stroke="midnightblue" d="M304.82,-112.44C328.83,-103.44 366.83,-89.19 393.87,-79.05"/>
<polygon fill="midnightblue" stroke="midnightblue" points="395.16,-82.3 403.29,-75.52 392.7,-75.75 395.16,-82.3"/>
</g>
<!-- Node13 -->
<g id="node13" class="node">
<title>Node13</title>
<g id="a_node13"><a xlink:title=" ">
<polygon fill="white" stroke="#bfbfbf" points="198,-56.5 198,-75.5 254,-75.5 254,-56.5 198,-56.5"/>
<text text-anchor="middle" x="226" y="-63.5" font-family="Helvetica,sans-Serif" font-size="10.00">sstream</text>
</a>
</g>
</g>
<!-- Node12&#45;&gt;Node13 -->
<g id="edge15" class="edge">
<title>Node12&#45;&gt;Node13</title>
<path fill="none" stroke="midnightblue" d="M273,-112.32C264.81,-104.42 252.49,-92.55 242.53,-82.94"/>
<polygon fill="midnightblue" stroke="midnightblue" points="244.79,-80.26 235.16,-75.83 239.93,-85.29 244.79,-80.26"/>
</g>
<!-- Node14 -->
<g id="node14" class="node">
<title>Node14</title>
<g id="a_node14"><a xlink:href="Level_8hpp.html" target="_top" xlink:title="Définition de la classe Level.">
<polygon fill="white" stroke="black" points="310,-56.5 310,-75.5 374,-75.5 374,-56.5 310,-56.5"/>
<text text-anchor="middle" x="342" y="-63.5" font-family="Helvetica,sans-Serif" font-size="10.00">Level.hpp</text>
</a>
</g>
</g>
<!-- Node12&#45;&gt;Node14 -->
<g id="edge18" class="edge">
<title>Node12&#45;&gt;Node14</title>
<path fill="none" stroke="midnightblue" d="M291.64,-112.32C300.51,-104.34 313.87,-92.31 324.61,-82.65"/>
<polygon fill="midnightblue" stroke="midnightblue" points="327.09,-85.13 332.18,-75.83 322.41,-79.92 327.09,-85.13"/>
</g>
<!-- Node14&#45;&gt;Node3 -->
<g id="edge19" class="edge">
<title>Node14&#45;&gt;Node3</title>
<path fill="none" stroke="midnightblue" d="M332.36,-56.32C323.49,-48.34 310.13,-36.31 299.39,-26.65"/>
<polygon fill="midnightblue" stroke="midnightblue" points="301.59,-23.92 291.82,-19.83 296.91,-29.13 301.59,-23.92"/>
</g>
</g>
</svg>
