<?xml version="1.0" encoding="UTF-8" standalone="no"?>
<!DOCTYPE svg PUBLIC "-//W3C//DTD SVG 1.1//EN"
 "http://www.w3.org/Graphics/SVG/1.1/DTD/svg11.dtd">
<!-- Generated by graphviz version 2.43.0 (0)
 -->
<!-- Title: src/driver&#45;simu/ServoUsingMotorDriver.cpp Pages: 1 -->
<svg width="656pt" height="330pt"
 viewBox="0.00 0.00 656.00 330.00" xmlns="http://www.w3.org/2000/svg" xmlns:xlink="http://www.w3.org/1999/xlink">
<g id="graph0" class="graph" transform="scale(1 1) rotate(0) translate(4 326)">
<title>src/driver&#45;simu/ServoUsingMotorDriver.cpp</title>
<polygon fill="white" stroke="transparent" points="-4,4 -4,-326 652,-326 652,4 -4,4"/>
<!-- Node1 -->
<g id="node1" class="node">
<title>Node1</title>
<g id="a_node1"><a xlink:title=" ">
<polygon fill="#bfbfbf" stroke="black" points="411.5,-291.5 411.5,-321.5 560.5,-321.5 560.5,-291.5 411.5,-291.5"/>
<text text-anchor="start" x="419.5" y="-309.5" font-family="Helvetica,sans-Serif" font-size="10.00">src/driver&#45;simu/ServoUsing</text>
<text text-anchor="middle" x="486" y="-298.5" font-family="Helvetica,sans-Serif" font-size="10.00">MotorDriver.cpp</text>
</a>
</g>
</g>
<!-- Node2 -->
<g id="node2" class="node">
<title>Node2</title>
<g id="a_node2"><a xlink:href="driver-simu_2ServoUsingMotorDriver_8hpp.html" target="_top" xlink:title=" ">
<polygon fill="white" stroke="black" points="221.5,-235.5 221.5,-254.5 372.5,-254.5 372.5,-235.5 221.5,-235.5"/>
<text text-anchor="middle" x="297" y="-242.5" font-family="Helvetica,sans-Serif" font-size="10.00">ServoUsingMotorDriver.hpp</text>
</a>
</g>
</g>
<!-- Node1&#45;&gt;Node2 -->
<g id="edge1" class="edge">
<title>Node1&#45;&gt;Node2</title>
<path fill="none" stroke="midnightblue" d="M441.21,-291.4C408.55,-281.12 364.82,-267.35 334.11,-257.68"/>
<polygon fill="midnightblue" stroke="midnightblue" points="334.81,-254.24 324.23,-254.57 332.71,-260.91 334.81,-254.24"/>
</g>
<!-- Node6 -->
<g id="node6" class="node">
<title>Node6</title>
<g id="a_node6"><a xlink:title=" ">
<polygon fill="white" stroke="#bfbfbf" points="54,-0.5 54,-19.5 98,-19.5 98,-0.5 54,-0.5"/>
<text text-anchor="middle" x="76" y="-7.5" font-family="Helvetica,sans-Serif" font-size="10.00">string</text>
</a>
</g>
</g>
<!-- Node1&#45;&gt;Node6 -->
<g id="edge23" class="edge">
<title>Node1&#45;&gt;Node6</title>
<path fill="none" stroke="midnightblue" d="M411.39,-302.32C275.16,-294.47 0,-268.24 0,-184.5 0,-184.5 0,-184.5 0,-121 0,-81.28 33.96,-45.5 56.48,-26.15"/>
<polygon fill="midnightblue" stroke="midnightblue" points="58.98,-28.63 64.46,-19.57 54.52,-23.24 58.98,-28.63"/>
</g>
<!-- Node10 -->
<g id="node10" class="node">
<title>Node10</title>
<g id="a_node10"><a xlink:title=" ">
<polygon fill="white" stroke="#bfbfbf" points="556,-56.5 556,-75.5 600,-75.5 600,-56.5 556,-56.5"/>
<text text-anchor="middle" x="578" y="-63.5" font-family="Helvetica,sans-Serif" font-size="10.00">ctime</text>
</a>
</g>
</g>
<!-- Node1&#45;&gt;Node10 -->
<g id="edge21" class="edge">
<title>Node1&#45;&gt;Node10</title>
<path fill="none" stroke="midnightblue" d="M489.19,-291.27C492.55,-276.9 498.3,-254.14 505,-235 524.64,-178.88 554.53,-115.13 569.22,-84.82"/>
<polygon fill="midnightblue" stroke="midnightblue" points="572.5,-86.09 573.74,-75.57 566.21,-83.01 572.5,-86.09"/>
</g>
<!-- Node16 -->
<g id="node16" class="node">
<title>Node16</title>
<g id="a_node16"><a xlink:title=" ">
<polygon fill="white" stroke="#bfbfbf" points="514,-235.5 514,-254.5 570,-254.5 570,-235.5 514,-235.5"/>
<text text-anchor="middle" x="542" y="-242.5" font-family="Helvetica,sans-Serif" font-size="10.00">unistd.h</text>
</a>
</g>
</g>
<!-- Node1&#45;&gt;Node16 -->
<g id="edge20" class="edge">
<title>Node1&#45;&gt;Node16</title>
<path fill="none" stroke="midnightblue" d="M499.27,-291.4C507.58,-282.58 518.3,-271.18 526.92,-262.02"/>
<polygon fill="midnightblue" stroke="midnightblue" points="529.55,-264.34 533.85,-254.66 524.45,-259.54 529.55,-264.34"/>
</g>
<!-- Node17 -->
<g id="node17" class="node">
<title>Node17</title>
<g id="a_node17"><a xlink:title=" ">
<polygon fill="white" stroke="#bfbfbf" points="588,-235.5 588,-254.5 648,-254.5 648,-235.5 588,-235.5"/>
<text text-anchor="middle" x="618" y="-242.5" font-family="Helvetica,sans-Serif" font-size="10.00">iostream</text>
</a>
</g>
</g>
<!-- Node1&#45;&gt;Node17 -->
<g id="edge22" class="edge">
<title>Node1&#45;&gt;Node17</title>
<path fill="none" stroke="midnightblue" d="M517.28,-291.4C539.23,-281.51 568.34,-268.38 589.62,-258.79"/>
<polygon fill="midnightblue" stroke="midnightblue" points="591.11,-261.96 598.79,-254.66 588.24,-255.58 591.11,-261.96"/>
</g>
<!-- Node3 -->
<g id="node3" class="node">
<title>Node3</title>
<g id="a_node3"><a xlink:href="AServoUsingMotorDriver_8hpp.html" target="_top" xlink:title="Interface abstraite du driver de moteur utilise en mode servomoteur.">
<polygon fill="white" stroke="black" points="64,-168.5 64,-198.5 218,-198.5 218,-168.5 64,-168.5"/>
<text text-anchor="start" x="72" y="-186.5" font-family="Helvetica,sans-Serif" font-size="10.00">interface/AServoUsingMotor</text>
<text text-anchor="middle" x="141" y="-175.5" font-family="Helvetica,sans-Serif" font-size="10.00">Driver.hpp</text>
</a>
</g>
</g>
<!-- Node2&#45;&gt;Node3 -->
<g id="edge2" class="edge">
<title>Node2&#45;&gt;Node3</title>
<path fill="none" stroke="midnightblue" d="M274.65,-235.48C251.94,-226.81 216.1,-213.15 187.25,-202.14"/>
<polygon fill="midnightblue" stroke="midnightblue" points="188.36,-198.82 177.77,-198.52 185.86,-205.36 188.36,-198.82"/>
</g>
<!-- Node4 -->
<g id="node4" class="node">
<title>Node4</title>
<g id="a_node4"><a xlink:href="LoggerFactory_8hpp.html" target="_top" xlink:title="Définition de la classe LoggerFactory.">
<polygon fill="white" stroke="black" points="236,-174 236,-193 358,-193 358,-174 236,-174"/>
<text text-anchor="middle" x="297" y="-181" font-family="Helvetica,sans-Serif" font-size="10.00">log/LoggerFactory.hpp</text>
</a>
</g>
</g>
<!-- Node2&#45;&gt;Node4 -->
<g id="edge3" class="edge">
<title>Node2&#45;&gt;Node4</title>
<path fill="none" stroke="midnightblue" d="M297,-235.48C297,-227.08 297,-213.98 297,-203.16"/>
<polygon fill="midnightblue" stroke="midnightblue" points="300.5,-203.01 297,-193.01 293.5,-203.01 300.5,-203.01"/>
</g>
<!-- Node5 -->
<g id="node5" class="node">
<title>Node5</title>
<g id="a_node5"><a xlink:title=" ">
<polygon fill="white" stroke="#bfbfbf" points="278,-112.5 278,-131.5 316,-131.5 316,-112.5 278,-112.5"/>
<text text-anchor="middle" x="297" y="-119.5" font-family="Helvetica,sans-Serif" font-size="10.00">map</text>
</a>
</g>
</g>
<!-- Node4&#45;&gt;Node5 -->
<g id="edge4" class="edge">
<title>Node4&#45;&gt;Node5</title>
<path fill="none" stroke="midnightblue" d="M297,-173.98C297,-165.58 297,-152.48 297,-141.66"/>
<polygon fill="midnightblue" stroke="midnightblue" points="300.5,-141.51 297,-131.51 293.5,-141.51 300.5,-141.51"/>
</g>
<!-- Node4&#45;&gt;Node6 -->
<g id="edge5" class="edge">
<title>Node4&#45;&gt;Node6</title>
<path fill="none" stroke="midnightblue" d="M271.45,-173.97C218.69,-155.75 100.86,-111.81 80,-76 71.91,-62.11 71.57,-43.6 72.87,-29.88"/>
<polygon fill="midnightblue" stroke="midnightblue" points="76.38,-30.07 74.21,-19.7 69.44,-29.15 76.38,-30.07"/>
</g>
<!-- Node7 -->
<g id="node7" class="node">
<title>Node7</title>
<g id="a_node7"><a xlink:href="Thread_8hpp.html" target="_top" xlink:title="Définition de la classe Thread.">
<polygon fill="white" stroke="black" points="342.5,-112.5 342.5,-131.5 457.5,-131.5 457.5,-112.5 342.5,-112.5"/>
<text text-anchor="middle" x="400" y="-119.5" font-family="Helvetica,sans-Serif" font-size="10.00">../thread/Thread.hpp</text>
</a>
</g>
</g>
<!-- Node4&#45;&gt;Node7 -->
<g id="edge6" class="edge">
<title>Node4&#45;&gt;Node7</title>
<path fill="none" stroke="midnightblue" d="M311.76,-173.98C328.66,-164.21 356.58,-148.08 376.49,-136.58"/>
<polygon fill="midnightblue" stroke="midnightblue" points="378.36,-139.54 385.27,-131.51 374.86,-133.48 378.36,-139.54"/>
</g>
<!-- Node13 -->
<g id="node13" class="node">
<title>Node13</title>
<g id="a_node13"><a xlink:href="Logger_8hpp.html" target="_top" xlink:title="Définition de la classe Logger.">
<polygon fill="white" stroke="black" points="175,-112.5 175,-131.5 245,-131.5 245,-112.5 175,-112.5"/>
<text text-anchor="middle" x="210" y="-119.5" font-family="Helvetica,sans-Serif" font-size="10.00">Logger.hpp</text>
</a>
</g>
</g>
<!-- Node4&#45;&gt;Node13 -->
<g id="edge14" class="edge">
<title>Node4&#45;&gt;Node13</title>
<path fill="none" stroke="midnightblue" d="M284.54,-173.98C270.58,-164.43 247.74,-148.81 231.01,-137.37"/>
<polygon fill="midnightblue" stroke="midnightblue" points="232.67,-134.27 222.44,-131.51 228.72,-140.04 232.67,-134.27"/>
</g>
<!-- Node7&#45;&gt;Node6 -->
<g id="edge8" class="edge">
<title>Node7&#45;&gt;Node6</title>
<path fill="none" stroke="midnightblue" d="M394.24,-112.14C384.39,-97.78 362.85,-69.65 337,-56 262.03,-16.41 159.66,-10.5 108.25,-10.3"/>
<polygon fill="midnightblue" stroke="midnightblue" points="108.07,-6.8 98.08,-10.33 108.09,-13.8 108.07,-6.8"/>
</g>
<!-- Node8 -->
<g id="node8" class="node">
<title>Node8</title>
<g id="a_node8"><a xlink:title=" ">
<polygon fill="white" stroke="#bfbfbf" points="379.5,-0.5 379.5,-19.5 442.5,-19.5 442.5,-0.5 379.5,-0.5"/>
<text text-anchor="middle" x="411" y="-7.5" font-family="Helvetica,sans-Serif" font-size="10.00">pthread.h</text>
</a>
</g>
</g>
<!-- Node7&#45;&gt;Node8 -->
<g id="edge7" class="edge">
<title>Node7&#45;&gt;Node8</title>
<path fill="none" stroke="midnightblue" d="M452.28,-112.48C473.59,-106.15 496.19,-95.14 509,-76 526.67,-49.59 486.63,-31.27 452.52,-20.96"/>
<polygon fill="midnightblue" stroke="midnightblue" points="453.23,-17.52 442.66,-18.14 451.31,-24.25 453.23,-17.52"/>
</g>
<!-- Node9 -->
<g id="node9" class="node">
<title>Node9</title>
<g id="a_node9"><a xlink:title=" ">
<polygon fill="white" stroke="#bfbfbf" points="384,-56.5 384,-75.5 432,-75.5 432,-56.5 384,-56.5"/>
<text text-anchor="middle" x="408" y="-63.5" font-family="Helvetica,sans-Serif" font-size="10.00">thread</text>
</a>
</g>
</g>
<!-- Node7&#45;&gt;Node9 -->
<g id="edge9" class="edge">
<title>Node7&#45;&gt;Node9</title>
<path fill="none" stroke="midnightblue" d="M401.32,-112.08C402.38,-104.93 403.91,-94.64 405.23,-85.69"/>
<polygon fill="midnightblue" stroke="midnightblue" points="408.7,-86.16 406.7,-75.75 401.78,-85.13 408.7,-86.16"/>
</g>
<!-- Node7&#45;&gt;Node10 -->
<g id="edge10" class="edge">
<title>Node7&#45;&gt;Node10</title>
<path fill="none" stroke="midnightblue" d="M428.2,-112.44C460.28,-102.71 512.52,-86.86 546.07,-76.69"/>
<polygon fill="midnightblue" stroke="midnightblue" points="547.28,-79.98 555.83,-73.73 545.25,-73.28 547.28,-79.98"/>
</g>
<!-- Node11 -->
<g id="node11" class="node">
<title>Node11</title>
<g id="a_node11"><a xlink:href="Mutex_8hpp.html" target="_top" xlink:title="Définition de la classe Mutex.">
<polygon fill="white" stroke="black" points="260,-56.5 260,-75.5 328,-75.5 328,-56.5 260,-56.5"/>
<text text-anchor="middle" x="294" y="-63.5" font-family="Helvetica,sans-Serif" font-size="10.00">Mutex.hpp</text>
</a>
</g>
</g>
<!-- Node7&#45;&gt;Node11 -->
<g id="edge11" class="edge">
<title>Node7&#45;&gt;Node11</title>
<path fill="none" stroke="midnightblue" d="M382.97,-112.32C365.97,-103.66 339.62,-90.24 320.01,-80.25"/>
<polygon fill="midnightblue" stroke="midnightblue" points="321.49,-77.08 310.99,-75.65 318.31,-83.31 321.49,-77.08"/>
</g>
<!-- Node12 -->
<g id="node12" class="node">
<title>Node12</title>
<g id="a_node12"><a xlink:title=" ">
<polygon fill="white" stroke="#bfbfbf" points="450,-56.5 450,-75.5 500,-75.5 500,-56.5 450,-56.5"/>
<text text-anchor="middle" x="475" y="-63.5" font-family="Helvetica,sans-Serif" font-size="10.00">chrono</text>
</a>
</g>
</g>
<!-- Node7&#45;&gt;Node12 -->
<g id="edge13" class="edge">
<title>Node7&#45;&gt;Node12</title>
<path fill="none" stroke="midnightblue" d="M412.05,-112.32C423.46,-104.11 440.83,-91.6 454.43,-81.81"/>
<polygon fill="midnightblue" stroke="midnightblue" points="456.66,-84.52 462.73,-75.83 452.57,-78.84 456.66,-84.52"/>
</g>
<!-- Node11&#45;&gt;Node8 -->
<g id="edge12" class="edge">
<title>Node11&#45;&gt;Node8</title>
<path fill="none" stroke="midnightblue" d="M312.54,-56.44C331.62,-47.64 361.57,-33.81 383.44,-23.72"/>
<polygon fill="midnightblue" stroke="midnightblue" points="384.93,-26.88 392.55,-19.52 382,-20.53 384.93,-26.88"/>
</g>
<!-- Node13&#45;&gt;Node6 -->
<g id="edge16" class="edge">
<title>Node13&#45;&gt;Node6</title>
<path fill="none" stroke="midnightblue" d="M174.93,-115.72C149.39,-110.09 115.77,-98.7 95,-76 83.48,-63.41 78.91,-44.19 77.12,-29.91"/>
<polygon fill="midnightblue" stroke="midnightblue" points="80.59,-29.39 76.2,-19.75 73.62,-30.02 80.59,-29.39"/>
</g>
<!-- Node13&#45;&gt;Node11 -->
<g id="edge17" class="edge">
<title>Node13&#45;&gt;Node11</title>
<path fill="none" stroke="midnightblue" d="M223.5,-112.32C236.6,-103.9 256.71,-90.97 272.11,-81.07"/>
<polygon fill="midnightblue" stroke="midnightblue" points="274.02,-84.01 280.54,-75.65 270.23,-78.12 274.02,-84.01"/>
</g>
<!-- Node14 -->
<g id="node14" class="node">
<title>Node14</title>
<g id="a_node14"><a xlink:title=" ">
<polygon fill="white" stroke="#bfbfbf" points="104,-56.5 104,-75.5 160,-75.5 160,-56.5 104,-56.5"/>
<text text-anchor="middle" x="132" y="-63.5" font-family="Helvetica,sans-Serif" font-size="10.00">sstream</text>
</a>
</g>
</g>
<!-- Node13&#45;&gt;Node14 -->
<g id="edge15" class="edge">
<title>Node13&#45;&gt;Node14</title>
<path fill="none" stroke="midnightblue" d="M197.47,-112.32C185.41,-103.98 166.97,-91.21 152.73,-81.35"/>
<polygon fill="midnightblue" stroke="midnightblue" points="154.72,-78.47 144.5,-75.65 150.73,-84.22 154.72,-78.47"/>
</g>
<!-- Node15 -->
<g id="node15" class="node">
<title>Node15</title>
<g id="a_node15"><a xlink:href="Level_8hpp.html" target="_top" xlink:title="Définition de la classe Level.">
<polygon fill="white" stroke="black" points="178,-56.5 178,-75.5 242,-75.5 242,-56.5 178,-56.5"/>
<text text-anchor="middle" x="210" y="-63.5" font-family="Helvetica,sans-Serif" font-size="10.00">Level.hpp</text>
</a>
</g>
</g>
<!-- Node13&#45;&gt;Node15 -->
<g id="edge18" class="edge">
<title>Node13&#45;&gt;Node15</title>
<path fill="none" stroke="midnightblue" d="M210,-112.08C210,-105.01 210,-94.86 210,-85.99"/>
<polygon fill="midnightblue" stroke="midnightblue" points="213.5,-85.75 210,-75.75 206.5,-85.75 213.5,-85.75"/>
</g>
<!-- Node15&#45;&gt;Node6 -->
<g id="edge19" class="edge">
<title>Node15&#45;&gt;Node6</title>
<path fill="none" stroke="midnightblue" d="M188.77,-56.44C166.62,-47.52 131.68,-33.44 106.56,-23.32"/>
<polygon fill="midnightblue" stroke="midnightblue" points="107.72,-20.01 97.13,-19.52 105.1,-26.5 107.72,-20.01"/>
</g>
</g>
</svg>
