<?xml version="1.0" encoding="UTF-8" standalone="no"?>
<!DOCTYPE svg PUBLIC "-//W3C//DTD SVG 1.1//EN"
 "http://www.w3.org/Graphics/SVG/1.1/DTD/svg11.dtd">
<!-- Generated by graphviz version 2.43.0 (0)
 -->
<!-- Title: src/driver&#45;simu/SensorsDriver.hpp Pages: 1 -->
<!--zoomable 263 -->
<svg id="main" version="1.1" xmlns="http://www.w3.org/2000/svg" xmlns:xlink="http://www.w3.org/1999/xlink" xml:space="preserve" onload="init(evt)">
<style type="text/css"><![CDATA[
.edge:hover path { stroke: red; }
.edge:hover polygon { stroke: red; fill: red; }
]]></style>
<script type="text/javascript"><![CDATA[
var edges = document.getElementsByTagName('g');
if (edges && edges.length) {
  for (var i=0;i<edges.length;i++) {
    if (edges[i].id.substr(0,4)=='edge') {
      edges[i].setAttribute('class','edge');
    }
  }
}
]]></script>
        <defs>
                <circle id="rim" cx="0" cy="0" r="7"/>
                <circle id="rim2" cx="0" cy="0" r="3.5"/>
                <g id="zoomPlus">
                        <use xlink:href="#rim" fill="#404040">
                                <set attributeName="fill" to="#808080" begin="zoomplus.mouseover" end="zoomplus.mouseout"/>
                        </use>
                        <path d="M-4,0h8M0,-4v8" fill="none" stroke="white" stroke-width="1.5" pointer-events="none"/>
                </g>
                <g id="zoomMin">
                        <use xlink:href="#rim" fill="#404040">
                                <set attributeName="fill" to="#808080" begin="zoomminus.mouseover" end="zoomminus.mouseout"/>
                        </use>
                        <path d="M-4,0h8" fill="none" stroke="white" stroke-width="1.5" pointer-events="none"/>
                </g>
                <g id="dirArrow">
                        <path fill="none" stroke="white" stroke-width="1.5" d="M0,-3.0v7 M-2.5,-0.5L0,-3.0L2.5,-0.5"/>
                </g>
               <g id="resetDef">
                       <use xlink:href="#rim2" fill="#404040">
                               <set attributeName="fill" to="#808080" begin="reset.mouseover" end="reset.mouseout"/>
                       </use>
               </g>
        </defs>

<script type="text/javascript">
var viewWidth = 1258;
var viewHeight = 263;
var sectionId = 'dynsection-0';
</script>
<script xlink:href="svgpan.js"/>
<svg id="graph" class="graph">
<g id="viewport">
<title>src/driver&#45;simu/SensorsDriver.hpp</title>
<polygon fill="white" stroke="transparent" points="-4,4 -4,-259 1253.5,-259 1253.5,4 -4,4"/>
<!-- Node1 -->
<g id="node1" class="node">
<title>Node1</title>
<g id="a_node1"><a xlink:title=" ">
<polygon fill="#bfbfbf" stroke="black" points="290.5,-235.5 290.5,-254.5 472.5,-254.5 472.5,-235.5 290.5,-235.5"/>
<text text-anchor="middle" x="381.5" y="-242.5" font-family="Helvetica,sans-Serif" font-size="10.00">src/driver&#45;simu/SensorsDriver.hpp</text>
</a>
</g>
</g>
<!-- Node2 -->
<g id="node2" class="node">
<title>Node2</title>
<g id="a_node2"><a xlink:title=" ">
<polygon fill="white" stroke="#bfbfbf" points="392.5,-0.5 392.5,-19.5 436.5,-19.5 436.5,-0.5 392.5,-0.5"/>
<text text-anchor="middle" x="414.5" y="-7.5" font-family="Helvetica,sans-Serif" font-size="10.00">string</text>
</a>
</g>
</g>
<!-- Node1&#45;&gt;Node2 -->
<g id="edge1" class="edge">
<title>Node1&#45;&gt;Node2</title>
<path fill="none" stroke="midnightblue" d="M298.1,-235.44C275.86,-228.9 254.22,-217.78 240.5,-199 235.27,-191.85 233.64,-130.29 241.5,-112 265.87,-55.33 339.52,-28.7 382.46,-17.69"/>
<polygon fill="midnightblue" stroke="midnightblue" points="383.52,-21.04 392.41,-15.28 381.87,-14.23 383.52,-21.04"/>
</g>
<!-- Node3 -->
<g id="node3" class="node">
<title>Node3</title>
<g id="a_node3"><a xlink:href="ARobotPositionShared_8hpp.html" target="_top" xlink:title="Position partagee du robot et utilitaires geometriques.">
<polygon fill="white" stroke="black" points="56,-168.5 56,-198.5 193,-198.5 193,-168.5 56,-168.5"/>
<text text-anchor="start" x="64" y="-186.5" font-family="Helvetica,sans-Serif" font-size="10.00">interface/ARobotPosition</text>
<text text-anchor="middle" x="124.5" y="-175.5" font-family="Helvetica,sans-Serif" font-size="10.00">Shared.hpp</text>
</a>
</g>
</g>
<!-- Node1&#45;&gt;Node3 -->
<g id="edge2" class="edge">
<title>Node1&#45;&gt;Node3</title>
<path fill="none" stroke="midnightblue" d="M344.68,-235.48C305.72,-226.46 243.31,-212.01 194.87,-200.79"/>
<polygon fill="midnightblue" stroke="midnightblue" points="195.6,-197.37 185.07,-198.52 194.02,-204.19 195.6,-197.37"/>
</g>
<!-- Node7 -->
<g id="node7" class="node">
<title>Node7</title>
<g id="a_node7"><a xlink:href="ASensorsDriver_8hpp.html" target="_top" xlink:title="Interface abstraite du driver de capteurs (balise ToF, IR, ultrasons).">
<polygon fill="white" stroke="black" points="249.5,-174 249.5,-193 407.5,-193 407.5,-174 249.5,-174"/>
<text text-anchor="middle" x="328.5" y="-181" font-family="Helvetica,sans-Serif" font-size="10.00">interface/ASensorsDriver.hpp</text>
</a>
</g>
</g>
<!-- Node1&#45;&gt;Node7 -->
<g id="edge7" class="edge">
<title>Node1&#45;&gt;Node7</title>
<path fill="none" stroke="midnightblue" d="M373.91,-235.48C365.8,-226.37 352.77,-211.74 342.74,-200.48"/>
<polygon fill="midnightblue" stroke="midnightblue" points="345.34,-198.15 336.08,-193.01 340.12,-202.8 345.34,-198.15"/>
</g>
<!-- Node9 -->
<g id="node9" class="node">
<title>Node9</title>
<g id="a_node9"><a xlink:href="Logger_8hpp.html" target="_top" xlink:title="Définition de la classe Logger.">
<polygon fill="white" stroke="black" points="395.5,-112.5 395.5,-131.5 483.5,-131.5 483.5,-112.5 395.5,-112.5"/>
<text text-anchor="middle" x="439.5" y="-119.5" font-family="Helvetica,sans-Serif" font-size="10.00">log/Logger.hpp</text>
</a>
</g>
</g>
<!-- Node1&#45;&gt;Node9 -->
<g id="edge10" class="edge">
<title>Node1&#45;&gt;Node9</title>
<path fill="none" stroke="midnightblue" d="M389.8,-235.37C397.67,-226.78 409.31,-212.89 416.5,-199 425.98,-180.67 432.24,-157.8 435.8,-141.96"/>
<polygon fill="midnightblue" stroke="midnightblue" points="439.3,-142.34 437.92,-131.83 432.45,-140.9 439.3,-142.34"/>
</g>
<!-- Node14 -->
<g id="node14" class="node">
<title>Node14</title>
<g id="a_node14"><a xlink:href="LoggerFactory_8hpp.html" target="_top" xlink:title="Définition de la classe LoggerFactory.">
<polygon fill="white" stroke="black" points="463.5,-174 463.5,-193 585.5,-193 585.5,-174 463.5,-174"/>
<text text-anchor="middle" x="524.5" y="-181" font-family="Helvetica,sans-Serif" font-size="10.00">log/LoggerFactory.hpp</text>
</a>
</g>
</g>
<!-- Node1&#45;&gt;Node14 -->
<g id="edge17" class="edge">
<title>Node1&#45;&gt;Node14</title>
<path fill="none" stroke="midnightblue" d="M401.99,-235.48C426.31,-225.36 467.05,-208.4 494.82,-196.85"/>
<polygon fill="midnightblue" stroke="midnightblue" points="496.16,-200.08 504.05,-193.01 493.47,-193.62 496.16,-200.08"/>
</g>
<!-- Node20 -->
<g id="node20" class="node">
<title>Node20</title>
<g id="a_node20"><a xlink:href="SvgWriter_8hpp.html" target="_top" xlink:title="Définition de la classe SvgWriter.">
<polygon fill="white" stroke="black" points="870,-112.5 870,-131.5 973,-131.5 973,-112.5 870,-112.5"/>
<text text-anchor="middle" x="921.5" y="-119.5" font-family="Helvetica,sans-Serif" font-size="10.00">log/SvgWriter.hpp</text>
</a>
</g>
</g>
<!-- Node1&#45;&gt;Node20 -->
<g id="edge28" class="edge">
<title>Node1&#45;&gt;Node20</title>
<path fill="none" stroke="midnightblue" d="M423.18,-235.45C466.16,-226.58 535.09,-212.18 594.5,-199 695.02,-176.7 812.53,-148.99 875.71,-133.95"/>
<polygon fill="midnightblue" stroke="midnightblue" points="876.83,-137.28 885.75,-131.56 875.21,-130.47 876.83,-137.28"/>
</g>
<!-- Node4 -->
<g id="node4" class="node">
<title>Node4</title>
<g id="a_node4"><a xlink:title=" ">
<polygon fill="white" stroke="#bfbfbf" points="0,-112.5 0,-131.5 47,-131.5 47,-112.5 0,-112.5"/>
<text text-anchor="middle" x="23.5" y="-119.5" font-family="Helvetica,sans-Serif" font-size="10.00">cmath</text>
</a>
</g>
</g>
<!-- Node3&#45;&gt;Node4 -->
<g id="edge3" class="edge">
<title>Node3&#45;&gt;Node4</title>
<path fill="none" stroke="midnightblue" d="M100.56,-168.4C84.37,-158.86 63.09,-146.32 47,-136.84"/>
<polygon fill="midnightblue" stroke="midnightblue" points="48.59,-133.72 38.2,-131.66 45.04,-139.75 48.59,-133.72"/>
</g>
<!-- Node5 -->
<g id="node5" class="node">
<title>Node5</title>
<g id="a_node5"><a xlink:href="Chronometer_8hpp.html" target="_top" xlink:title="Définition de la classe Chronometer.">
<polygon fill="white" stroke="black" points="65,-112.5 65,-131.5 190,-131.5 190,-112.5 65,-112.5"/>
<text text-anchor="middle" x="127.5" y="-119.5" font-family="Helvetica,sans-Serif" font-size="10.00">utils/Chronometer.hpp</text>
</a>
</g>
</g>
<!-- Node3&#45;&gt;Node5 -->
<g id="edge4" class="edge">
<title>Node3&#45;&gt;Node5</title>
<path fill="none" stroke="midnightblue" d="M125.21,-168.4C125.61,-160.47 126.12,-150.46 126.55,-141.86"/>
<polygon fill="midnightblue" stroke="midnightblue" points="130.06,-141.82 127.06,-131.66 123.06,-141.47 130.06,-141.82"/>
</g>
<!-- Node5&#45;&gt;Node2 -->
<g id="edge6" class="edge">
<title>Node5&#45;&gt;Node2</title>
<path fill="none" stroke="midnightblue" d="M135.44,-112.31C148.86,-98.2 177.5,-70.42 207.5,-56 265.13,-28.29 339.96,-17.46 382.04,-13.37"/>
<polygon fill="midnightblue" stroke="midnightblue" points="382.61,-16.83 392.26,-12.44 381.98,-9.86 382.61,-16.83"/>
</g>
<!-- Node6 -->
<g id="node6" class="node">
<title>Node6</title>
<g id="a_node6"><a xlink:title=" ">
<polygon fill="white" stroke="#bfbfbf" points="87.5,-56.5 87.5,-75.5 155.5,-75.5 155.5,-56.5 87.5,-56.5"/>
<text text-anchor="middle" x="121.5" y="-63.5" font-family="Helvetica,sans-Serif" font-size="10.00">sys/time.h</text>
</a>
</g>
</g>
<!-- Node5&#45;&gt;Node6 -->
<g id="edge5" class="edge">
<title>Node5&#45;&gt;Node6</title>
<path fill="none" stroke="midnightblue" d="M126.51,-112.08C125.71,-104.93 124.57,-94.64 123.58,-85.69"/>
<polygon fill="midnightblue" stroke="midnightblue" points="127.06,-85.3 122.47,-75.75 120.1,-86.08 127.06,-85.3"/>
</g>
<!-- Node7&#45;&gt;Node2 -->
<g id="edge8" class="edge">
<title>Node7&#45;&gt;Node2</title>
<path fill="none" stroke="midnightblue" d="M325.49,-173.96C316.86,-148.82 293.45,-75.57 306.5,-56 323.24,-30.9 356.91,-19.77 382.23,-14.86"/>
<polygon fill="midnightblue" stroke="midnightblue" points="382.89,-18.3 392.16,-13.16 381.71,-11.4 382.89,-18.3"/>
</g>
<!-- Node8 -->
<g id="node8" class="node">
<title>Node8</title>
<g id="a_node8"><a xlink:title=" ">
<polygon fill="white" stroke="#bfbfbf" points="250,-112.5 250,-131.5 297,-131.5 297,-112.5 250,-112.5"/>
<text text-anchor="middle" x="273.5" y="-119.5" font-family="Helvetica,sans-Serif" font-size="10.00">vector</text>
</a>
</g>
</g>
<!-- Node7&#45;&gt;Node8 -->
<g id="edge9" class="edge">
<title>Node7&#45;&gt;Node8</title>
<path fill="none" stroke="midnightblue" d="M320.62,-173.98C312.21,-164.87 298.68,-150.24 288.27,-138.98"/>
<polygon fill="midnightblue" stroke="midnightblue" points="290.72,-136.48 281.37,-131.51 285.58,-141.23 290.72,-136.48"/>
</g>
<!-- Node9&#45;&gt;Node2 -->
<g id="edge12" class="edge">
<title>Node9&#45;&gt;Node2</title>
<path fill="none" stroke="midnightblue" d="M446.64,-112.44C456.21,-99.87 471.07,-75.77 462.5,-56 457.23,-43.84 446.88,-33.46 437.14,-25.74"/>
<polygon fill="midnightblue" stroke="midnightblue" points="439,-22.77 428.87,-19.67 434.86,-28.41 439,-22.77"/>
</g>
<!-- Node10 -->
<g id="node10" class="node">
<title>Node10</title>
<g id="a_node10"><a xlink:title=" ">
<polygon fill="white" stroke="#bfbfbf" points="397.5,-56.5 397.5,-75.5 453.5,-75.5 453.5,-56.5 397.5,-56.5"/>
<text text-anchor="middle" x="425.5" y="-63.5" font-family="Helvetica,sans-Serif" font-size="10.00">sstream</text>
</a>
</g>
</g>
<!-- Node9&#45;&gt;Node10 -->
<g id="edge11" class="edge">
<title>Node9&#45;&gt;Node10</title>
<path fill="none" stroke="midnightblue" d="M437.19,-112.08C435.33,-104.93 432.66,-94.64 430.35,-85.69"/>
<polygon fill="midnightblue" stroke="midnightblue" points="433.67,-84.55 427.77,-75.75 426.89,-86.31 433.67,-84.55"/>
</g>
<!-- Node11 -->
<g id="node11" class="node">
<title>Node11</title>
<g id="a_node11"><a xlink:href="Mutex_8hpp.html" target="_top" xlink:title="Définition de la classe Mutex.">
<polygon fill="white" stroke="black" points="715.5,-56.5 715.5,-75.5 827.5,-75.5 827.5,-56.5 715.5,-56.5"/>
<text text-anchor="middle" x="771.5" y="-63.5" font-family="Helvetica,sans-Serif" font-size="10.00">../thread/Mutex.hpp</text>
</a>
</g>
</g>
<!-- Node9&#45;&gt;Node11 -->
<g id="edge13" class="edge">
<title>Node9&#45;&gt;Node11</title>
<path fill="none" stroke="midnightblue" d="M483.59,-113.83C541.35,-104.43 643.01,-87.9 708.78,-77.2"/>
<polygon fill="midnightblue" stroke="midnightblue" points="709.7,-80.6 719.01,-75.54 708.58,-73.69 709.7,-80.6"/>
</g>
<!-- Node13 -->
<g id="node13" class="node">
<title>Node13</title>
<g id="a_node13"><a xlink:href="Level_8hpp.html" target="_top" xlink:title="Définition de la classe Level.">
<polygon fill="white" stroke="black" points="315.5,-56.5 315.5,-75.5 379.5,-75.5 379.5,-56.5 315.5,-56.5"/>
<text text-anchor="middle" x="347.5" y="-63.5" font-family="Helvetica,sans-Serif" font-size="10.00">Level.hpp</text>
</a>
</g>
</g>
<!-- Node9&#45;&gt;Node13 -->
<g id="edge15" class="edge">
<title>Node9&#45;&gt;Node13</title>
<path fill="none" stroke="midnightblue" d="M424.72,-112.32C410.23,-103.82 387.93,-90.73 371.01,-80.8"/>
<polygon fill="midnightblue" stroke="midnightblue" points="372.64,-77.7 362.24,-75.65 369.1,-83.74 372.64,-77.7"/>
</g>
<!-- Node12 -->
<g id="node12" class="node">
<title>Node12</title>
<g id="a_node12"><a xlink:title=" ">
<polygon fill="white" stroke="#bfbfbf" points="810,-0.5 810,-19.5 873,-19.5 873,-0.5 810,-0.5"/>
<text text-anchor="middle" x="841.5" y="-7.5" font-family="Helvetica,sans-Serif" font-size="10.00">pthread.h</text>
</a>
</g>
</g>
<!-- Node11&#45;&gt;Node12 -->
<g id="edge14" class="edge">
<title>Node11&#45;&gt;Node12</title>
<path fill="none" stroke="midnightblue" d="M782.75,-56.32C793.3,-48.18 809.3,-35.84 821.94,-26.09"/>
<polygon fill="midnightblue" stroke="midnightblue" points="824.27,-28.71 830.05,-19.83 819.99,-23.17 824.27,-28.71"/>
</g>
<!-- Node13&#45;&gt;Node2 -->
<g id="edge16" class="edge">
<title>Node13&#45;&gt;Node2</title>
<path fill="none" stroke="midnightblue" d="M358.26,-56.32C368.27,-48.26 383.39,-36.08 395.43,-26.37"/>
<polygon fill="midnightblue" stroke="midnightblue" points="397.95,-28.83 403.54,-19.83 393.56,-23.38 397.95,-28.83"/>
</g>
<!-- Node14&#45;&gt;Node2 -->
<g id="edge19" class="edge">
<title>Node14&#45;&gt;Node2</title>
<path fill="none" stroke="midnightblue" d="M523.12,-173.98C519.27,-152.32 506.69,-94.14 477.5,-56 467.64,-43.12 453.07,-32.38 440.43,-24.63"/>
<polygon fill="midnightblue" stroke="midnightblue" points="442.06,-21.53 431.66,-19.52 438.54,-27.58 442.06,-21.53"/>
</g>
<!-- Node14&#45;&gt;Node9 -->
<g id="edge27" class="edge">
<title>Node14&#45;&gt;Node9</title>
<path fill="none" stroke="midnightblue" d="M512.32,-173.98C498.69,-164.43 476.37,-148.81 460.03,-137.37"/>
<polygon fill="midnightblue" stroke="midnightblue" points="461.86,-134.38 451.66,-131.51 457.84,-140.11 461.86,-134.38"/>
</g>
<!-- Node15 -->
<g id="node15" class="node">
<title>Node15</title>
<g id="a_node15"><a xlink:title=" ">
<polygon fill="white" stroke="#bfbfbf" points="715.5,-112.5 715.5,-131.5 753.5,-131.5 753.5,-112.5 715.5,-112.5"/>
<text text-anchor="middle" x="734.5" y="-119.5" font-family="Helvetica,sans-Serif" font-size="10.00">map</text>
</a>
</g>
</g>
<!-- Node14&#45;&gt;Node15 -->
<g id="edge18" class="edge">
<title>Node14&#45;&gt;Node15</title>
<path fill="none" stroke="midnightblue" d="M556.83,-173.95C591.38,-164.72 647.98,-149.34 705.62,-132.18"/>
<polygon fill="midnightblue" stroke="midnightblue" points="706.67,-135.52 715.25,-129.3 704.67,-128.81 706.67,-135.52"/>
</g>
<!-- Node16 -->
<g id="node16" class="node">
<title>Node16</title>
<g id="a_node16"><a xlink:href="Thread_8hpp.html" target="_top" xlink:title="Définition de la classe Thread.">
<polygon fill="white" stroke="black" points="582,-112.5 582,-131.5 697,-131.5 697,-112.5 582,-112.5"/>
<text text-anchor="middle" x="639.5" y="-119.5" font-family="Helvetica,sans-Serif" font-size="10.00">../thread/Thread.hpp</text>
</a>
</g>
</g>
<!-- Node14&#45;&gt;Node16 -->
<g id="edge20" class="edge">
<title>Node14&#45;&gt;Node16</title>
<path fill="none" stroke="midnightblue" d="M540.98,-173.98C560.11,-164.08 591.87,-147.64 614.15,-136.12"/>
<polygon fill="midnightblue" stroke="midnightblue" points="615.78,-139.21 623.05,-131.51 612.56,-133 615.78,-139.21"/>
</g>
<!-- Node16&#45;&gt;Node2 -->
<g id="edge22" class="edge">
<title>Node16&#45;&gt;Node2</title>
<path fill="none" stroke="midnightblue" d="M627.21,-112.4C607.9,-99.13 568.97,-73.39 533.5,-56 504.87,-41.96 470.68,-29.45 446.31,-21.2"/>
<polygon fill="midnightblue" stroke="midnightblue" points="447.11,-17.78 436.52,-17.93 444.9,-24.42 447.11,-17.78"/>
</g>
<!-- Node16&#45;&gt;Node11 -->
<g id="edge25" class="edge">
<title>Node16&#45;&gt;Node11</title>
<path fill="none" stroke="midnightblue" d="M660.42,-112.44C682.24,-103.52 716.65,-89.44 741.39,-79.32"/>
<polygon fill="midnightblue" stroke="midnightblue" points="742.75,-82.54 750.68,-75.52 740.1,-76.06 742.75,-82.54"/>
</g>
<!-- Node16&#45;&gt;Node12 -->
<g id="edge21" class="edge">
<title>Node16&#45;&gt;Node12</title>
<path fill="none" stroke="midnightblue" d="M697.29,-113.03C772.7,-102.35 895.89,-83.83 902.5,-76 918.11,-57.49 891.86,-37.33 869.08,-24.45"/>
<polygon fill="midnightblue" stroke="midnightblue" points="870.45,-21.21 859.98,-19.56 867.14,-27.38 870.45,-21.21"/>
</g>
<!-- Node17 -->
<g id="node17" class="node">
<title>Node17</title>
<g id="a_node17"><a xlink:title=" ">
<polygon fill="white" stroke="#bfbfbf" points="845.5,-56.5 845.5,-75.5 893.5,-75.5 893.5,-56.5 845.5,-56.5"/>
<text text-anchor="middle" x="869.5" y="-63.5" font-family="Helvetica,sans-Serif" font-size="10.00">thread</text>
</a>
</g>
</g>
<!-- Node16&#45;&gt;Node17 -->
<g id="edge23" class="edge">
<title>Node16&#45;&gt;Node17</title>
<path fill="none" stroke="midnightblue" d="M679.24,-112.43C717,-104.18 775.63,-91.07 835.39,-76.2"/>
<polygon fill="midnightblue" stroke="midnightblue" points="836.53,-79.53 845.38,-73.7 834.83,-72.73 836.53,-79.53"/>
</g>
<!-- Node18 -->
<g id="node18" class="node">
<title>Node18</title>
<g id="a_node18"><a xlink:title=" ">
<polygon fill="white" stroke="#bfbfbf" points="585.5,-56.5 585.5,-75.5 629.5,-75.5 629.5,-56.5 585.5,-56.5"/>
<text text-anchor="middle" x="607.5" y="-63.5" font-family="Helvetica,sans-Serif" font-size="10.00">ctime</text>
</a>
</g>
</g>
<!-- Node16&#45;&gt;Node18 -->
<g id="edge24" class="edge">
<title>Node16&#45;&gt;Node18</title>
<path fill="none" stroke="midnightblue" d="M634.22,-112.08C629.79,-104.61 623.34,-93.72 617.88,-84.52"/>
<polygon fill="midnightblue" stroke="midnightblue" points="620.79,-82.57 612.69,-75.75 614.77,-86.14 620.79,-82.57"/>
</g>
<!-- Node19 -->
<g id="node19" class="node">
<title>Node19</title>
<g id="a_node19"><a xlink:title=" ">
<polygon fill="white" stroke="#bfbfbf" points="647.5,-56.5 647.5,-75.5 697.5,-75.5 697.5,-56.5 647.5,-56.5"/>
<text text-anchor="middle" x="672.5" y="-63.5" font-family="Helvetica,sans-Serif" font-size="10.00">chrono</text>
</a>
</g>
</g>
<!-- Node16&#45;&gt;Node19 -->
<g id="edge26" class="edge">
<title>Node16&#45;&gt;Node19</title>
<path fill="none" stroke="midnightblue" d="M644.95,-112.08C649.51,-104.61 656.17,-93.72 661.79,-84.52"/>
<polygon fill="midnightblue" stroke="midnightblue" points="664.92,-86.11 667.15,-75.75 658.95,-82.46 664.92,-86.11"/>
</g>
<!-- Node20&#45;&gt;Node2 -->
<g id="edge29" class="edge">
<title>Node20&#45;&gt;Node2</title>
<path fill="none" stroke="midnightblue" d="M921.8,-112.2C921.76,-97.92 919.38,-69.91 902.5,-56 867.38,-27.06 550.17,-15.06 446.86,-11.9"/>
<polygon fill="midnightblue" stroke="midnightblue" points="446.82,-8.4 436.72,-11.6 446.61,-15.4 446.82,-8.4"/>
</g>
<!-- Node20&#45;&gt;Node11 -->
<g id="edge34" class="edge">
<title>Node20&#45;&gt;Node11</title>
<path fill="none" stroke="midnightblue" d="M897.73,-112.44C872.61,-103.4 832.79,-89.06 804.6,-78.92"/>
<polygon fill="midnightblue" stroke="midnightblue" points="805.75,-75.61 795.16,-75.52 803.38,-82.2 805.75,-75.61"/>
</g>
<!-- Node21 -->
<g id="node21" class="node">
<title>Node21</title>
<g id="a_node21"><a xlink:href="PointerList_8hpp.html" target="_top" xlink:title="Définition de la classe PointerList.">
<polygon fill="white" stroke="black" points="987.5,-56.5 987.5,-75.5 1109.5,-75.5 1109.5,-56.5 987.5,-56.5"/>
<text text-anchor="middle" x="1048.5" y="-63.5" font-family="Helvetica,sans-Serif" font-size="10.00">../utils/PointerList.hpp</text>
</a>
</g>
</g>
<!-- Node20&#45;&gt;Node21 -->
<g id="edge30" class="edge">
<title>Node20&#45;&gt;Node21</title>
<path fill="none" stroke="midnightblue" d="M941.62,-112.44C962.52,-103.56 995.43,-89.56 1019.22,-79.45"/>
<polygon fill="midnightblue" stroke="midnightblue" points="1020.64,-82.65 1028.47,-75.52 1017.9,-76.21 1020.64,-82.65"/>
</g>
<!-- Node25 -->
<g id="node25" class="node">
<title>Node25</title>
<g id="a_node25"><a xlink:title=" ">
<polygon fill="white" stroke="#bfbfbf" points="1127.5,-56.5 1127.5,-75.5 1249.5,-75.5 1249.5,-56.5 1127.5,-56.5"/>
<text text-anchor="middle" x="1188.5" y="-63.5" font-family="Helvetica,sans-Serif" font-size="10.00">simple_svg_1.0.0.hpp</text>
</a>
</g>
</g>
<!-- Node20&#45;&gt;Node25 -->
<g id="edge35" class="edge">
<title>Node20&#45;&gt;Node25</title>
<path fill="none" stroke="midnightblue" d="M963.81,-112.44C1010.58,-102.98 1085.96,-87.74 1136.35,-77.55"/>
<polygon fill="midnightblue" stroke="midnightblue" points="1137.28,-80.93 1146.39,-75.52 1135.9,-74.07 1137.28,-80.93"/>
</g>
<!-- Node22 -->
<g id="node22" class="node">
<title>Node22</title>
<g id="a_node22"><a xlink:title=" ">
<polygon fill="white" stroke="#bfbfbf" points="1083,-0.5 1083,-19.5 1172,-19.5 1172,-0.5 1083,-0.5"/>
<text text-anchor="middle" x="1127.5" y="-7.5" font-family="Helvetica,sans-Serif" font-size="10.00">bits/allocator.h</text>
</a>
</g>
</g>
<!-- Node21&#45;&gt;Node22 -->
<g id="edge31" class="edge">
<title>Node21&#45;&gt;Node22</title>
<path fill="none" stroke="midnightblue" d="M1061.19,-56.32C1073.4,-47.98 1092.08,-35.21 1106.5,-25.35"/>
<polygon fill="midnightblue" stroke="midnightblue" points="1108.56,-28.19 1114.84,-19.65 1104.61,-22.41 1108.56,-28.19"/>
</g>
<!-- Node23 -->
<g id="node23" class="node">
<title>Node23</title>
<g id="a_node23"><a xlink:title=" ">
<polygon fill="white" stroke="#bfbfbf" points="961,-0.5 961,-19.5 1014,-19.5 1014,-0.5 961,-0.5"/>
<text text-anchor="middle" x="987.5" y="-7.5" font-family="Helvetica,sans-Serif" font-size="10.00">cstddef</text>
</a>
</g>
</g>
<!-- Node21&#45;&gt;Node23 -->
<g id="edge32" class="edge">
<title>Node21&#45;&gt;Node23</title>
<path fill="none" stroke="midnightblue" d="M1038.7,-56.32C1029.68,-48.34 1016.09,-36.31 1005.18,-26.65"/>
<polygon fill="midnightblue" stroke="midnightblue" points="1007.29,-23.84 997.48,-19.83 1002.65,-29.08 1007.29,-23.84"/>
</g>
<!-- Node24 -->
<g id="node24" class="node">
<title>Node24</title>
<g id="a_node24"><a xlink:title=" ">
<polygon fill="white" stroke="#bfbfbf" points="1032.5,-0.5 1032.5,-19.5 1064.5,-19.5 1064.5,-0.5 1032.5,-0.5"/>
<text text-anchor="middle" x="1048.5" y="-7.5" font-family="Helvetica,sans-Serif" font-size="10.00">list</text>
</a>
</g>
</g>
<!-- Node21&#45;&gt;Node24 -->
<g id="edge33" class="edge">
<title>Node21&#45;&gt;Node24</title>
<path fill="none" stroke="midnightblue" d="M1048.5,-56.08C1048.5,-49.01 1048.5,-38.86 1048.5,-29.99"/>
<polygon fill="midnightblue" stroke="midnightblue" points="1052,-29.75 1048.5,-19.75 1045,-29.75 1052,-29.75"/>
</g>
</g>
</svg>
        <g id="navigator" transform="translate(0 0)" fill="#404254">
                <rect fill="#f2f5e9" fill-opacity="0.5" stroke="#606060" stroke-width=".5" x="0" y="0" width="60" height="60"/>
                <use id="zoomplus" xlink:href="#zoomPlus" x="17" y="9" onmousedown="handleZoom(evt,'in')"/>
                <use id="zoomminus" xlink:href="#zoomMin" x="42" y="9" onmousedown="handleZoom(evt,'out')"/>
                <use id="reset" xlink:href="#resetDef" x="30" y="36" onmousedown="handleReset()"/>
                <g id="arrowUp" xlink:href="#dirArrow" transform="translate(30 24)" onmousedown="handlePan(0,-1)">
                  <use xlink:href="#rim" fill="#404040">
                        <set attributeName="fill" to="#808080" begin="arrowUp.mouseover" end="arrowUp.mouseout"/>
                  </use>
                  <path fill="none" stroke="white" stroke-width="1.5" d="M0,-3.0v7 M-2.5,-0.5L0,-3.0L2.5,-0.5"/>
                </g>
                <g id="arrowRight" xlink:href="#dirArrow" transform="rotate(90) translate(36 -43)" onmousedown="handlePan(1,0)">
                  <use xlink:href="#rim" fill="#404040">
                        <set attributeName="fill" to="#808080" begin="arrowRight.mouseover" end="arrowRight.mouseout"/>
                  </use>
                  <path fill="none" stroke="white" stroke-width="1.5" d="M0,-3.0v7 M-2.5,-0.5L0,-3.0L2.5,-0.5"/>
                </g>
                <g id="arrowDown" xlink:href="#dirArrow" transform="rotate(180) translate(-30 -48)" onmousedown="handlePan(0,1)">
                  <use xlink:href="#rim" fill="#404040">
                        <set attributeName="fill" to="#808080" begin="arrowDown.mouseover" end="arrowDown.mouseout"/>
                  </use>
                  <path fill="none" stroke="white" stroke-width="1.5" d="M0,-3.0v7 M-2.5,-0.5L0,-3.0L2.5,-0.5"/>
                </g>
                <g id="arrowLeft" xlink:href="#dirArrow" transform="rotate(270) translate(-36 17)" onmousedown="handlePan(-1,0)">
                  <use xlink:href="#rim" fill="#404040">
                        <set attributeName="fill" to="#808080" begin="arrowLeft.mouseover" end="arrowLeft.mouseout"/>
                  </use>
                  <path fill="none" stroke="white" stroke-width="1.5" d="M0,-3.0v7 M-2.5,-0.5L0,-3.0L2.5,-0.5"/>
                </g>
        </g>
        <svg viewBox="0 0 15 15" width="100%" height="30px" preserveAspectRatio="xMaxYMin meet">
         <g id="arrow_out" transform="scale(0.3 0.3)">
          <a xlink:href="driver-simu_2SensorsDriver_8hpp__incl_org.svg" target="_base">
           <rect id="button" ry="5" rx="5" y="6" x="6" height="38" width="38"
                fill="#f2f5e9" fill-opacity="0.5" stroke="#606060" stroke-width="1.0"/>
           <path id="arrow"
             d="M 11.500037,31.436501 C 11.940474,20.09759 22.043105,11.32322 32.158766,21.979434 L 37.068811,17.246167 C 37.068811,17.246167 37.088388,32 37.088388,32 L 22.160133,31.978069 C 22.160133,31.978069 26.997745,27.140456 26.997745,27.140456 C 18.528582,18.264221 13.291696,25.230495 11.500037,31.436501 z"
             style="fill:#404040;"/>
          </a>
         </g>
        </svg>
</svg>
