<?xml version="1.0" encoding="UTF-8" standalone="no"?>
<!DOCTYPE svg PUBLIC "-//W3C//DTD SVG 1.1//EN"
 "http://www.w3.org/Graphics/SVG/1.1/DTD/svg11.dtd">
<!-- Generated by graphviz version 2.43.0 (0)
 -->
<!-- Title: src/driver&#45;simu/ServoDriver.cpp Pages: 1 -->
<svg width="603pt" height="308pt"
 viewBox="0.00 0.00 603.00 308.00" xmlns="http://www.w3.org/2000/svg" xmlns:xlink="http://www.w3.org/1999/xlink">
<g id="graph0" class="graph" transform="scale(1 1) rotate(0) translate(4 304)">
<title>src/driver&#45;simu/ServoDriver.cpp</title>
<polygon fill="white" stroke="transparent" points="-4,4 -4,-304 599,-304 599,4 -4,4"/>
<!-- Node1 -->
<g id="node1" class="node">
<title>Node1</title>
<g id="a_node1"><a xlink:title=" ">
<polygon fill="#bfbfbf" stroke="black" points="425,-280.5 425,-299.5 595,-299.5 595,-280.5 425,-280.5"/>
<text text-anchor="middle" x="510" y="-287.5" font-family="Helvetica,sans-Serif" font-size="10.00">src/driver&#45;simu/ServoDriver.cpp</text>
</a>
</g>
</g>
<!-- Node2 -->
<g id="node2" class="node">
<title>Node2</title>
<g id="a_node2"><a xlink:href="driver-simu_2ServoDriver_8hpp.html" target="_top" xlink:title=" ">
<polygon fill="white" stroke="black" points="411.5,-224.5 411.5,-243.5 506.5,-243.5 506.5,-224.5 411.5,-224.5"/>
<text text-anchor="middle" x="459" y="-231.5" font-family="Helvetica,sans-Serif" font-size="10.00">ServoDriver.hpp</text>
</a>
</g>
</g>
<!-- Node1&#45;&gt;Node2 -->
<g id="edge1" class="edge">
<title>Node1&#45;&gt;Node2</title>
<path fill="none" stroke="midnightblue" d="M501.58,-280.08C494.15,-272.22 483.15,-260.57 474.19,-251.08"/>
<polygon fill="midnightblue" stroke="midnightblue" points="476.68,-248.62 467.26,-243.75 471.59,-253.42 476.68,-248.62"/>
</g>
<!-- Node12 -->
<g id="node12" class="node">
<title>Node12</title>
<g id="a_node12"><a xlink:href="Logger_8hpp.html" target="_top" xlink:title="Définition de la classe Logger.">
<polygon fill="white" stroke="black" points="390,-112.5 390,-131.5 460,-131.5 460,-112.5 390,-112.5"/>
<text text-anchor="middle" x="425" y="-119.5" font-family="Helvetica,sans-Serif" font-size="10.00">Logger.hpp</text>
</a>
</g>
</g>
<!-- Node1&#45;&gt;Node12 -->
<g id="edge19" class="edge">
<title>Node1&#45;&gt;Node12</title>
<path fill="none" stroke="midnightblue" d="M516.76,-280.26C532.22,-259.14 566.97,-204.36 542,-168 525.9,-144.56 495.76,-133.33 470.1,-127.94"/>
<polygon fill="midnightblue" stroke="midnightblue" points="470.64,-124.48 460.16,-126.09 469.36,-131.36 470.64,-124.48"/>
</g>
<!-- Node3 -->
<g id="node3" class="node">
<title>Node3</title>
<g id="a_node3"><a xlink:href="AServoDriver_8hpp.html" target="_top" xlink:title="Interface abstraite du driver de servomoteurs.">
<polygon fill="white" stroke="black" points="385,-168.5 385,-187.5 533,-187.5 533,-168.5 385,-168.5"/>
<text text-anchor="middle" x="459" y="-175.5" font-family="Helvetica,sans-Serif" font-size="10.00">interface/AServoDriver.hpp</text>
</a>
</g>
</g>
<!-- Node2&#45;&gt;Node3 -->
<g id="edge2" class="edge">
<title>Node2&#45;&gt;Node3</title>
<path fill="none" stroke="midnightblue" d="M459,-224.08C459,-217.01 459,-206.86 459,-197.99"/>
<polygon fill="midnightblue" stroke="midnightblue" points="462.5,-197.75 459,-187.75 455.5,-197.75 462.5,-197.75"/>
</g>
<!-- Node4 -->
<g id="node4" class="node">
<title>Node4</title>
<g id="a_node4"><a xlink:href="LoggerFactory_8hpp.html" target="_top" xlink:title="Définition de la classe LoggerFactory.">
<polygon fill="white" stroke="black" points="245,-168.5 245,-187.5 367,-187.5 367,-168.5 245,-168.5"/>
<text text-anchor="middle" x="306" y="-175.5" font-family="Helvetica,sans-Serif" font-size="10.00">log/LoggerFactory.hpp</text>
</a>
</g>
</g>
<!-- Node2&#45;&gt;Node4 -->
<g id="edge3" class="edge">
<title>Node2&#45;&gt;Node4</title>
<path fill="none" stroke="midnightblue" d="M434.76,-224.44C409.13,-215.4 368.51,-201.06 339.76,-190.92"/>
<polygon fill="midnightblue" stroke="midnightblue" points="340.72,-187.54 330.13,-187.52 338.39,-194.15 340.72,-187.54"/>
</g>
<!-- Node5 -->
<g id="node5" class="node">
<title>Node5</title>
<g id="a_node5"><a xlink:title=" ">
<polygon fill="white" stroke="#bfbfbf" points="334,-112.5 334,-131.5 372,-131.5 372,-112.5 334,-112.5"/>
<text text-anchor="middle" x="353" y="-119.5" font-family="Helvetica,sans-Serif" font-size="10.00">map</text>
</a>
</g>
</g>
<!-- Node4&#45;&gt;Node5 -->
<g id="edge4" class="edge">
<title>Node4&#45;&gt;Node5</title>
<path fill="none" stroke="midnightblue" d="M313.76,-168.08C320.54,-160.3 330.54,-148.8 338.76,-139.37"/>
<polygon fill="midnightblue" stroke="midnightblue" points="341.46,-141.59 345.38,-131.75 336.18,-137 341.46,-141.59"/>
</g>
<!-- Node6 -->
<g id="node6" class="node">
<title>Node6</title>
<g id="a_node6"><a xlink:title=" ">
<polygon fill="white" stroke="#bfbfbf" points="303,-0.5 303,-19.5 347,-19.5 347,-0.5 303,-0.5"/>
<text text-anchor="middle" x="325" y="-7.5" font-family="Helvetica,sans-Serif" font-size="10.00">string</text>
</a>
</g>
</g>
<!-- Node4&#45;&gt;Node6 -->
<g id="edge5" class="edge">
<title>Node4&#45;&gt;Node6</title>
<path fill="none" stroke="midnightblue" d="M307.02,-168.08C310.01,-141.95 318.8,-65.21 322.87,-29.58"/>
<polygon fill="midnightblue" stroke="midnightblue" points="326.36,-29.9 324.02,-19.57 319.4,-29.11 326.36,-29.9"/>
</g>
<!-- Node7 -->
<g id="node7" class="node">
<title>Node7</title>
<g id="a_node7"><a xlink:href="Thread_8hpp.html" target="_top" xlink:title="Définition de la classe Thread.">
<polygon fill="white" stroke="black" points="98.5,-112.5 98.5,-131.5 213.5,-131.5 213.5,-112.5 98.5,-112.5"/>
<text text-anchor="middle" x="156" y="-119.5" font-family="Helvetica,sans-Serif" font-size="10.00">../thread/Thread.hpp</text>
</a>
</g>
</g>
<!-- Node4&#45;&gt;Node7 -->
<g id="edge6" class="edge">
<title>Node4&#45;&gt;Node7</title>
<path fill="none" stroke="midnightblue" d="M282.23,-168.44C257.11,-159.4 217.29,-145.06 189.1,-134.92"/>
<polygon fill="midnightblue" stroke="midnightblue" points="190.25,-131.61 179.66,-131.52 187.88,-138.2 190.25,-131.61"/>
</g>
<!-- Node4&#45;&gt;Node12 -->
<g id="edge13" class="edge">
<title>Node4&#45;&gt;Node12</title>
<path fill="none" stroke="midnightblue" d="M324.86,-168.44C344.27,-159.64 374.73,-145.81 396.96,-135.72"/>
<polygon fill="midnightblue" stroke="midnightblue" points="398.57,-138.84 406.23,-131.52 395.68,-132.46 398.57,-138.84"/>
</g>
<!-- Node7&#45;&gt;Node6 -->
<g id="edge8" class="edge">
<title>Node7&#45;&gt;Node6</title>
<path fill="none" stroke="midnightblue" d="M159.93,-112.13C166.5,-98.25 181,-71.42 201,-56 228.22,-35.02 266.14,-23.17 292.86,-16.96"/>
<polygon fill="midnightblue" stroke="midnightblue" points="293.84,-20.33 302.86,-14.78 292.34,-13.49 293.84,-20.33"/>
</g>
<!-- Node8 -->
<g id="node8" class="node">
<title>Node8</title>
<g id="a_node8"><a xlink:title=" ">
<polygon fill="white" stroke="#bfbfbf" points="143.5,-0.5 143.5,-19.5 206.5,-19.5 206.5,-0.5 143.5,-0.5"/>
<text text-anchor="middle" x="175" y="-7.5" font-family="Helvetica,sans-Serif" font-size="10.00">pthread.h</text>
</a>
</g>
</g>
<!-- Node7&#45;&gt;Node8 -->
<g id="edge7" class="edge">
<title>Node7&#45;&gt;Node8</title>
<path fill="none" stroke="midnightblue" d="M137.64,-112.33C115.76,-100.74 83.74,-78.96 97,-56 105.68,-40.98 121.49,-30.52 136.62,-23.5"/>
<polygon fill="midnightblue" stroke="midnightblue" points="138.05,-26.69 145.88,-19.56 135.31,-20.25 138.05,-26.69"/>
</g>
<!-- Node9 -->
<g id="node9" class="node">
<title>Node9</title>
<g id="a_node9"><a xlink:title=" ">
<polygon fill="white" stroke="#bfbfbf" points="106,-56.5 106,-75.5 154,-75.5 154,-56.5 106,-56.5"/>
<text text-anchor="middle" x="130" y="-63.5" font-family="Helvetica,sans-Serif" font-size="10.00">thread</text>
</a>
</g>
</g>
<!-- Node7&#45;&gt;Node9 -->
<g id="edge9" class="edge">
<title>Node7&#45;&gt;Node9</title>
<path fill="none" stroke="midnightblue" d="M151.71,-112.08C148.15,-104.69 142.98,-93.95 138.58,-84.81"/>
<polygon fill="midnightblue" stroke="midnightblue" points="141.71,-83.24 134.21,-75.75 135.4,-86.28 141.71,-83.24"/>
</g>
<!-- Node10 -->
<g id="node10" class="node">
<title>Node10</title>
<g id="a_node10"><a xlink:href="Mutex_8hpp.html" target="_top" xlink:title="Définition de la classe Mutex.">
<polygon fill="white" stroke="black" points="210,-56.5 210,-75.5 278,-75.5 278,-56.5 210,-56.5"/>
<text text-anchor="middle" x="244" y="-63.5" font-family="Helvetica,sans-Serif" font-size="10.00">Mutex.hpp</text>
</a>
</g>
</g>
<!-- Node7&#45;&gt;Node10 -->
<g id="edge10" class="edge">
<title>Node7&#45;&gt;Node10</title>
<path fill="none" stroke="midnightblue" d="M170.14,-112.32C183.87,-103.9 204.94,-90.97 221.06,-81.07"/>
<polygon fill="midnightblue" stroke="midnightblue" points="223.2,-83.87 229.9,-75.65 219.54,-77.9 223.2,-83.87"/>
</g>
<!-- Node11 -->
<g id="node11" class="node">
<title>Node11</title>
<g id="a_node11"><a xlink:title=" ">
<polygon fill="white" stroke="#bfbfbf" points="0,-56.5 0,-75.5 50,-75.5 50,-56.5 0,-56.5"/>
<text text-anchor="middle" x="25" y="-63.5" font-family="Helvetica,sans-Serif" font-size="10.00">chrono</text>
</a>
</g>
</g>
<!-- Node7&#45;&gt;Node11 -->
<g id="edge12" class="edge">
<title>Node7&#45;&gt;Node11</title>
<path fill="none" stroke="midnightblue" d="M135.24,-112.44C113.68,-103.56 79.74,-89.56 55.21,-79.45"/>
<polygon fill="midnightblue" stroke="midnightblue" points="56.24,-76.09 45.66,-75.52 53.57,-82.56 56.24,-76.09"/>
</g>
<!-- Node10&#45;&gt;Node8 -->
<g id="edge11" class="edge">
<title>Node10&#45;&gt;Node8</title>
<path fill="none" stroke="midnightblue" d="M232.91,-56.32C222.51,-48.18 206.74,-35.84 194.28,-26.09"/>
<polygon fill="midnightblue" stroke="midnightblue" points="196.32,-23.24 186.29,-19.83 192.01,-28.75 196.32,-23.24"/>
</g>
<!-- Node12&#45;&gt;Node6 -->
<g id="edge15" class="edge">
<title>Node12&#45;&gt;Node6</title>
<path fill="none" stroke="midnightblue" d="M409.86,-112.49C396.39,-104.38 376.75,-91.18 363,-76 350.27,-61.95 339.77,-42.96 333.06,-29.13"/>
<polygon fill="midnightblue" stroke="midnightblue" points="336.08,-27.33 328.69,-19.73 329.73,-30.28 336.08,-27.33"/>
</g>
<!-- Node12&#45;&gt;Node10 -->
<g id="edge16" class="edge">
<title>Node12&#45;&gt;Node10</title>
<path fill="none" stroke="midnightblue" d="M396.32,-112.44C365.47,-103.24 316.27,-88.56 282.17,-78.39"/>
<polygon fill="midnightblue" stroke="midnightblue" points="283.13,-75.02 272.55,-75.52 281.13,-81.73 283.13,-75.02"/>
</g>
<!-- Node13 -->
<g id="node13" class="node">
<title>Node13</title>
<g id="a_node13"><a xlink:title=" ">
<polygon fill="white" stroke="#bfbfbf" points="454,-56.5 454,-75.5 510,-75.5 510,-56.5 454,-56.5"/>
<text text-anchor="middle" x="482" y="-63.5" font-family="Helvetica,sans-Serif" font-size="10.00">sstream</text>
</a>
</g>
</g>
<!-- Node12&#45;&gt;Node13 -->
<g id="edge14" class="edge">
<title>Node12&#45;&gt;Node13</title>
<path fill="none" stroke="midnightblue" d="M434.16,-112.32C442.5,-104.42 455.03,-92.55 465.18,-82.94"/>
<polygon fill="midnightblue" stroke="midnightblue" points="467.82,-85.25 472.68,-75.83 463.01,-80.17 467.82,-85.25"/>
</g>
<!-- Node14 -->
<g id="node14" class="node">
<title>Node14</title>
<g id="a_node14"><a xlink:href="Level_8hpp.html" target="_top" xlink:title="Définition de la classe Level.">
<polygon fill="white" stroke="black" points="372,-56.5 372,-75.5 436,-75.5 436,-56.5 372,-56.5"/>
<text text-anchor="middle" x="404" y="-63.5" font-family="Helvetica,sans-Serif" font-size="10.00">Level.hpp</text>
</a>
</g>
</g>
<!-- Node12&#45;&gt;Node14 -->
<g id="edge17" class="edge">
<title>Node12&#45;&gt;Node14</title>
<path fill="none" stroke="midnightblue" d="M421.53,-112.08C418.69,-104.77 414.57,-94.18 411.04,-85.1"/>
<polygon fill="midnightblue" stroke="midnightblue" points="414.29,-83.8 407.4,-75.75 407.77,-86.34 414.29,-83.8"/>
</g>
<!-- Node14&#45;&gt;Node6 -->
<g id="edge18" class="edge">
<title>Node14&#45;&gt;Node6</title>
<path fill="none" stroke="midnightblue" d="M391.31,-56.32C379.1,-47.98 360.42,-35.21 346,-25.35"/>
<polygon fill="midnightblue" stroke="midnightblue" points="347.89,-22.41 337.66,-19.65 343.94,-28.19 347.89,-22.41"/>
</g>
</g>
</svg>
