<?xml version="1.0" encoding="UTF-8" standalone="no"?>
<!DOCTYPE svg PUBLIC "-//W3C//DTD SVG 1.1//EN"
 "http://www.w3.org/Graphics/SVG/1.1/DTD/svg11.dtd">
<!-- Generated by graphviz version 2.43.0 (0)
 -->
<!-- Title: src/driver&#45;arm/old_drivers/DynamixelDriver.hpp Pages: 1 -->
<svg width="628pt" height="319pt"
 viewBox="0.00 0.00 628.00 319.00" xmlns="http://www.w3.org/2000/svg" xmlns:xlink="http://www.w3.org/1999/xlink">
<g id="graph0" class="graph" transform="scale(1 1) rotate(0) translate(4 315)">
<title>src/driver&#45;arm/old_drivers/DynamixelDriver.hpp</title>
<polygon fill="white" stroke="transparent" points="-4,4 -4,-315 624,-315 624,4 -4,4"/>
<!-- Node1 -->
<g id="node1" class="node">
<title>Node1</title>
<g id="a_node1"><a xlink:title=" ">
<polygon fill="#bfbfbf" stroke="black" points="95.5,-280.5 95.5,-310.5 256.5,-310.5 256.5,-280.5 95.5,-280.5"/>
<text text-anchor="start" x="103.5" y="-298.5" font-family="Helvetica,sans-Serif" font-size="10.00">src/driver&#45;arm/old</text>
<text text-anchor="middle" x="176" y="-287.5" font-family="Helvetica,sans-Serif" font-size="10.00">_drivers/DynamixelDriver.hpp</text>
</a>
</g>
</g>
<!-- Node2 -->
<g id="node2" class="node">
<title>Node2</title>
<g id="a_node2"><a xlink:href="AServoDriver_8hpp.html" target="_top" xlink:title="Interface abstraite du driver de servomoteurs.">
<polygon fill="white" stroke="black" points="0,-224.5 0,-243.5 148,-243.5 148,-224.5 0,-224.5"/>
<text text-anchor="middle" x="74" y="-231.5" font-family="Helvetica,sans-Serif" font-size="10.00">interface/AServoDriver.hpp</text>
</a>
</g>
</g>
<!-- Node1&#45;&gt;Node2 -->
<g id="edge1" class="edge">
<title>Node1&#45;&gt;Node2</title>
<path fill="none" stroke="midnightblue" d="M151.83,-280.4C135.48,-270.86 113.99,-258.32 97.73,-248.84"/>
<polygon fill="midnightblue" stroke="midnightblue" points="99.24,-245.67 88.84,-243.66 95.72,-251.72 99.24,-245.67"/>
</g>
<!-- Node3 -->
<g id="node3" class="node">
<title>Node3</title>
<g id="a_node3"><a xlink:href="LoggerFactory_8hpp.html" target="_top" xlink:title="Définition de la classe LoggerFactory.">
<polygon fill="white" stroke="black" points="115,-168.5 115,-187.5 237,-187.5 237,-168.5 115,-168.5"/>
<text text-anchor="middle" x="176" y="-175.5" font-family="Helvetica,sans-Serif" font-size="10.00">log/LoggerFactory.hpp</text>
</a>
</g>
</g>
<!-- Node1&#45;&gt;Node3 -->
<g id="edge2" class="edge">
<title>Node1&#45;&gt;Node3</title>
<path fill="none" stroke="midnightblue" d="M176,-280.34C176,-259.62 176,-221.02 176,-197.9"/>
<polygon fill="midnightblue" stroke="midnightblue" points="179.5,-197.67 176,-187.67 172.5,-197.67 179.5,-197.67"/>
</g>
<!-- Node14 -->
<g id="node14" class="node">
<title>Node14</title>
<g id="a_node14"><a xlink:href="CCAx12Adc_8hpp.html" target="_top" xlink:title="Définition de la classe CCAx12Adc. Program for the Made by PM&#45;ROBOTIX card to manage servomotor AX12,...">
<polygon fill="white" stroke="black" points="204,-224.5 204,-243.5 298,-243.5 298,-224.5 204,-224.5"/>
<text text-anchor="middle" x="251" y="-231.5" font-family="Helvetica,sans-Serif" font-size="10.00">CCAx12Adc.hpp</text>
</a>
</g>
</g>
<!-- Node1&#45;&gt;Node14 -->
<g id="edge18" class="edge">
<title>Node1&#45;&gt;Node14</title>
<path fill="none" stroke="midnightblue" d="M193.77,-280.4C205.35,-271.22 220.42,-259.26 232.2,-249.92"/>
<polygon fill="midnightblue" stroke="midnightblue" points="234.43,-252.61 240.09,-243.66 230.08,-247.13 234.43,-252.61"/>
</g>
<!-- Node4 -->
<g id="node4" class="node">
<title>Node4</title>
<g id="a_node4"><a xlink:title=" ">
<polygon fill="white" stroke="#bfbfbf" points="54,-112.5 54,-131.5 92,-131.5 92,-112.5 54,-112.5"/>
<text text-anchor="middle" x="73" y="-119.5" font-family="Helvetica,sans-Serif" font-size="10.00">map</text>
</a>
</g>
</g>
<!-- Node3&#45;&gt;Node4 -->
<g id="edge3" class="edge">
<title>Node3&#45;&gt;Node4</title>
<path fill="none" stroke="midnightblue" d="M159.45,-168.32C143.01,-159.7 117.57,-146.36 98.53,-136.39"/>
<polygon fill="midnightblue" stroke="midnightblue" points="99.99,-133.2 89.51,-131.65 96.74,-139.4 99.99,-133.2"/>
</g>
<!-- Node5 -->
<g id="node5" class="node">
<title>Node5</title>
<g id="a_node5"><a xlink:title=" ">
<polygon fill="white" stroke="#bfbfbf" points="240,-0.5 240,-19.5 284,-19.5 284,-0.5 240,-0.5"/>
<text text-anchor="middle" x="262" y="-7.5" font-family="Helvetica,sans-Serif" font-size="10.00">string</text>
</a>
</g>
</g>
<!-- Node3&#45;&gt;Node5 -->
<g id="edge4" class="edge">
<title>Node3&#45;&gt;Node5</title>
<path fill="none" stroke="midnightblue" d="M168.61,-168.29C151.69,-147.22 113.45,-92.55 139,-56 159.3,-26.95 200.48,-16.59 229.58,-12.94"/>
<polygon fill="midnightblue" stroke="midnightblue" points="230.12,-16.4 239.7,-11.87 229.39,-9.44 230.12,-16.4"/>
</g>
<!-- Node6 -->
<g id="node6" class="node">
<title>Node6</title>
<g id="a_node6"><a xlink:href="Thread_8hpp.html" target="_top" xlink:title="Définition de la classe Thread.">
<polygon fill="white" stroke="black" points="399.5,-112.5 399.5,-131.5 514.5,-131.5 514.5,-112.5 399.5,-112.5"/>
<text text-anchor="middle" x="457" y="-119.5" font-family="Helvetica,sans-Serif" font-size="10.00">../thread/Thread.hpp</text>
</a>
</g>
</g>
<!-- Node3&#45;&gt;Node6 -->
<g id="edge5" class="edge">
<title>Node3&#45;&gt;Node6</title>
<path fill="none" stroke="midnightblue" d="M220.53,-168.44C269.96,-158.94 349.75,-143.61 402.78,-133.42"/>
<polygon fill="midnightblue" stroke="midnightblue" points="403.52,-136.84 412.68,-131.52 402.2,-129.97 403.52,-136.84"/>
</g>
<!-- Node11 -->
<g id="node11" class="node">
<title>Node11</title>
<g id="a_node11"><a xlink:href="Logger_8hpp.html" target="_top" xlink:title="Définition de la classe Logger.">
<polygon fill="white" stroke="black" points="197,-112.5 197,-131.5 267,-131.5 267,-112.5 197,-112.5"/>
<text text-anchor="middle" x="232" y="-119.5" font-family="Helvetica,sans-Serif" font-size="10.00">Logger.hpp</text>
</a>
</g>
</g>
<!-- Node3&#45;&gt;Node11 -->
<g id="edge12" class="edge">
<title>Node3&#45;&gt;Node11</title>
<path fill="none" stroke="midnightblue" d="M185,-168.32C193.19,-160.42 205.51,-148.55 215.47,-138.94"/>
<polygon fill="midnightblue" stroke="midnightblue" points="218.07,-141.29 222.84,-131.83 213.21,-136.26 218.07,-141.29"/>
</g>
<!-- Node6&#45;&gt;Node5 -->
<g id="edge7" class="edge">
<title>Node6&#45;&gt;Node5</title>
<path fill="none" stroke="midnightblue" d="M454.34,-112.42C449.56,-98.47 438.2,-70.92 419,-56 382.43,-27.59 328.62,-17.11 294.45,-13.25"/>
<polygon fill="midnightblue" stroke="midnightblue" points="294.39,-9.73 284.09,-12.22 293.7,-16.69 294.39,-9.73"/>
</g>
<!-- Node7 -->
<g id="node7" class="node">
<title>Node7</title>
<g id="a_node7"><a xlink:title=" ">
<polygon fill="white" stroke="#bfbfbf" points="394.5,-0.5 394.5,-19.5 457.5,-19.5 457.5,-0.5 394.5,-0.5"/>
<text text-anchor="middle" x="426" y="-7.5" font-family="Helvetica,sans-Serif" font-size="10.00">pthread.h</text>
</a>
</g>
</g>
<!-- Node6&#45;&gt;Node7 -->
<g id="edge6" class="edge">
<title>Node6&#45;&gt;Node7</title>
<path fill="none" stroke="midnightblue" d="M457.53,-112.36C458.05,-99.69 458.03,-75.46 452,-56 448.97,-46.21 443.51,-36.25 438.37,-28.2"/>
<polygon fill="midnightblue" stroke="midnightblue" points="441.16,-26.07 432.66,-19.75 435.36,-29.99 441.16,-26.07"/>
</g>
<!-- Node8 -->
<g id="node8" class="node">
<title>Node8</title>
<g id="a_node8"><a xlink:title=" ">
<polygon fill="white" stroke="#bfbfbf" points="504,-56.5 504,-75.5 552,-75.5 552,-56.5 504,-56.5"/>
<text text-anchor="middle" x="528" y="-63.5" font-family="Helvetica,sans-Serif" font-size="10.00">thread</text>
</a>
</g>
</g>
<!-- Node6&#45;&gt;Node8 -->
<g id="edge8" class="edge">
<title>Node6&#45;&gt;Node8</title>
<path fill="none" stroke="midnightblue" d="M468.41,-112.32C479.11,-104.18 495.34,-91.84 508.16,-82.09"/>
<polygon fill="midnightblue" stroke="midnightblue" points="510.54,-84.67 516.39,-75.83 506.31,-79.1 510.54,-84.67"/>
</g>
<!-- Node9 -->
<g id="node9" class="node">
<title>Node9</title>
<g id="a_node9"><a xlink:href="Mutex_8hpp.html" target="_top" xlink:title="Définition de la classe Mutex.">
<polygon fill="white" stroke="black" points="342,-56.5 342,-75.5 410,-75.5 410,-56.5 342,-56.5"/>
<text text-anchor="middle" x="376" y="-63.5" font-family="Helvetica,sans-Serif" font-size="10.00">Mutex.hpp</text>
</a>
</g>
</g>
<!-- Node6&#45;&gt;Node9 -->
<g id="edge9" class="edge">
<title>Node6&#45;&gt;Node9</title>
<path fill="none" stroke="midnightblue" d="M443.99,-112.32C431.47,-103.98 412.32,-91.21 397.53,-81.35"/>
<polygon fill="midnightblue" stroke="midnightblue" points="399.24,-78.29 388.98,-75.65 395.36,-84.11 399.24,-78.29"/>
</g>
<!-- Node10 -->
<g id="node10" class="node">
<title>Node10</title>
<g id="a_node10"><a xlink:title=" ">
<polygon fill="white" stroke="#bfbfbf" points="570,-56.5 570,-75.5 620,-75.5 620,-56.5 570,-56.5"/>
<text text-anchor="middle" x="595" y="-63.5" font-family="Helvetica,sans-Serif" font-size="10.00">chrono</text>
</a>
</g>
</g>
<!-- Node6&#45;&gt;Node10 -->
<g id="edge11" class="edge">
<title>Node6&#45;&gt;Node10</title>
<path fill="none" stroke="midnightblue" d="M478.87,-112.44C501.78,-103.48 537.98,-89.31 563.87,-79.18"/>
<polygon fill="midnightblue" stroke="midnightblue" points="565.2,-82.42 573.24,-75.52 562.65,-75.9 565.2,-82.42"/>
</g>
<!-- Node9&#45;&gt;Node7 -->
<g id="edge10" class="edge">
<title>Node9&#45;&gt;Node7</title>
<path fill="none" stroke="midnightblue" d="M384.26,-56.08C391.46,-48.3 402.11,-36.8 410.85,-27.37"/>
<polygon fill="midnightblue" stroke="midnightblue" points="413.67,-29.47 417.9,-19.75 408.53,-24.71 413.67,-29.47"/>
</g>
<!-- Node11&#45;&gt;Node5 -->
<g id="edge14" class="edge">
<title>Node11&#45;&gt;Node5</title>
<path fill="none" stroke="midnightblue" d="M234.35,-112.37C239.22,-94.54 250.46,-53.3 257.02,-29.27"/>
<polygon fill="midnightblue" stroke="midnightblue" points="260.4,-30.16 259.66,-19.59 253.65,-28.32 260.4,-30.16"/>
</g>
<!-- Node11&#45;&gt;Node9 -->
<g id="edge15" class="edge">
<title>Node11&#45;&gt;Node9</title>
<path fill="none" stroke="midnightblue" d="M254.82,-112.44C278.83,-103.44 316.83,-89.19 343.87,-79.05"/>
<polygon fill="midnightblue" stroke="midnightblue" points="345.16,-82.3 353.29,-75.52 342.7,-75.75 345.16,-82.3"/>
</g>
<!-- Node12 -->
<g id="node12" class="node">
<title>Node12</title>
<g id="a_node12"><a xlink:title=" ">
<polygon fill="white" stroke="#bfbfbf" points="148,-56.5 148,-75.5 204,-75.5 204,-56.5 148,-56.5"/>
<text text-anchor="middle" x="176" y="-63.5" font-family="Helvetica,sans-Serif" font-size="10.00">sstream</text>
</a>
</g>
</g>
<!-- Node11&#45;&gt;Node12 -->
<g id="edge13" class="edge">
<title>Node11&#45;&gt;Node12</title>
<path fill="none" stroke="midnightblue" d="M223,-112.32C214.81,-104.42 202.49,-92.55 192.53,-82.94"/>
<polygon fill="midnightblue" stroke="midnightblue" points="194.79,-80.26 185.16,-75.83 189.93,-85.29 194.79,-80.26"/>
</g>
<!-- Node13 -->
<g id="node13" class="node">
<title>Node13</title>
<g id="a_node13"><a xlink:href="Level_8hpp.html" target="_top" xlink:title="Définition de la classe Level.">
<polygon fill="white" stroke="black" points="260,-56.5 260,-75.5 324,-75.5 324,-56.5 260,-56.5"/>
<text text-anchor="middle" x="292" y="-63.5" font-family="Helvetica,sans-Serif" font-size="10.00">Level.hpp</text>
</a>
</g>
</g>
<!-- Node11&#45;&gt;Node13 -->
<g id="edge16" class="edge">
<title>Node11&#45;&gt;Node13</title>
<path fill="none" stroke="midnightblue" d="M241.64,-112.32C250.51,-104.34 263.87,-92.31 274.61,-82.65"/>
<polygon fill="midnightblue" stroke="midnightblue" points="277.09,-85.13 282.18,-75.83 272.41,-79.92 277.09,-85.13"/>
</g>
<!-- Node13&#45;&gt;Node5 -->
<g id="edge17" class="edge">
<title>Node13&#45;&gt;Node5</title>
<path fill="none" stroke="midnightblue" d="M287.05,-56.08C282.9,-48.61 276.85,-37.72 271.73,-28.52"/>
<polygon fill="midnightblue" stroke="midnightblue" points="274.78,-26.79 266.86,-19.75 268.66,-30.19 274.78,-26.79"/>
</g>
<!-- Node14&#45;&gt;Node3 -->
<g id="edge20" class="edge">
<title>Node14&#45;&gt;Node3</title>
<path fill="none" stroke="midnightblue" d="M238.95,-224.32C227.54,-216.11 210.17,-203.6 196.57,-193.81"/>
<polygon fill="midnightblue" stroke="midnightblue" points="198.43,-190.84 188.27,-187.83 194.34,-196.52 198.43,-190.84"/>
</g>
<!-- Node15 -->
<g id="node15" class="node">
<title>Node15</title>
<g id="a_node15"><a xlink:title=" ">
<polygon fill="white" stroke="#bfbfbf" points="255,-168.5 255,-187.5 401,-187.5 401,-168.5 255,-168.5"/>
<text text-anchor="middle" x="328" y="-175.5" font-family="Helvetica,sans-Serif" font-size="10.00">as_devices/cpp/as_i2c.hpp</text>
</a>
</g>
</g>
<!-- Node14&#45;&gt;Node15 -->
<g id="edge19" class="edge">
<title>Node14&#45;&gt;Node15</title>
<path fill="none" stroke="midnightblue" d="M263.37,-224.32C275.16,-216.06 293.13,-203.45 307.14,-193.63"/>
<polygon fill="midnightblue" stroke="midnightblue" points="309.48,-196.26 315.66,-187.65 305.46,-190.53 309.48,-196.26"/>
</g>
</g>
</svg>
