<?xml version="1.0" encoding="UTF-8" standalone="no"?>
<!DOCTYPE svg PUBLIC "-//W3C//DTD SVG 1.1//EN"
 "http://www.w3.org/Graphics/SVG/1.1/DTD/svg11.dtd">
<!-- Generated by graphviz version 2.43.0 (0)
 -->
<!-- Title: src/driver&#45;arm/old_drivers/DynamixelDriver.cpp Pages: 1 -->
<svg width="559pt" height="375pt"
 viewBox="0.00 0.00 558.99 375.00" xmlns="http://www.w3.org/2000/svg" xmlns:xlink="http://www.w3.org/1999/xlink">
<g id="graph0" class="graph" transform="scale(1 1) rotate(0) translate(4 371)">
<title>src/driver&#45;arm/old_drivers/DynamixelDriver.cpp</title>
<polygon fill="white" stroke="transparent" points="-4,4 -4,-371 554.99,-371 554.99,4 -4,4"/>
<!-- Node1 -->
<g id="node1" class="node">
<title>Node1</title>
<g id="a_node1"><a xlink:title=" ">
<polygon fill="#bfbfbf" stroke="black" points="295.5,-336.5 295.5,-366.5 456.5,-366.5 456.5,-336.5 295.5,-336.5"/>
<text text-anchor="start" x="303.5" y="-354.5" font-family="Helvetica,sans-Serif" font-size="10.00">src/driver&#45;arm/old</text>
<text text-anchor="middle" x="376" y="-343.5" font-family="Helvetica,sans-Serif" font-size="10.00">_drivers/DynamixelDriver.cpp</text>
</a>
</g>
</g>
<!-- Node2 -->
<g id="node2" class="node">
<title>Node2</title>
<g id="a_node2"><a xlink:href="DynamixelDriver_8hpp.html" target="_top" xlink:title=" ">
<polygon fill="white" stroke="black" points="316.5,-280.5 316.5,-299.5 435.5,-299.5 435.5,-280.5 316.5,-280.5"/>
<text text-anchor="middle" x="376" y="-287.5" font-family="Helvetica,sans-Serif" font-size="10.00">DynamixelDriver.hpp</text>
</a>
</g>
</g>
<!-- Node1&#45;&gt;Node2 -->
<g id="edge1" class="edge">
<title>Node1&#45;&gt;Node2</title>
<path fill="none" stroke="midnightblue" d="M376,-336.4C376,-328.47 376,-318.46 376,-309.86"/>
<polygon fill="midnightblue" stroke="midnightblue" points="379.5,-309.66 376,-299.66 372.5,-309.66 379.5,-309.66"/>
</g>
<!-- Node13 -->
<g id="node13" class="node">
<title>Node13</title>
<g id="a_node13"><a xlink:href="Logger_8hpp.html" target="_top" xlink:title="Définition de la classe Logger.">
<polygon fill="white" stroke="black" points="368,-112.5 368,-131.5 438,-131.5 438,-112.5 368,-112.5"/>
<text text-anchor="middle" x="403" y="-119.5" font-family="Helvetica,sans-Serif" font-size="10.00">Logger.hpp</text>
</a>
</g>
</g>
<!-- Node1&#45;&gt;Node13 -->
<g id="edge24" class="edge">
<title>Node1&#45;&gt;Node13</title>
<path fill="none" stroke="midnightblue" d="M331.12,-336.4C281.22,-317.75 209.4,-280.51 224,-224 231.12,-196.46 232.88,-185.89 255,-168 284.39,-144.22 326.21,-132.99 357.9,-127.69"/>
<polygon fill="midnightblue" stroke="midnightblue" points="358.45,-131.15 367.8,-126.17 357.39,-124.23 358.45,-131.15"/>
</g>
<!-- Node18 -->
<g id="node18" class="node">
<title>Node18</title>
<g id="a_node18"><a xlink:title=" ">
<polygon fill="white" stroke="#bfbfbf" points="454,-280.5 454,-299.5 510,-299.5 510,-280.5 454,-280.5"/>
<text text-anchor="middle" x="482" y="-287.5" font-family="Helvetica,sans-Serif" font-size="10.00">unistd.h</text>
</a>
</g>
</g>
<!-- Node1&#45;&gt;Node18 -->
<g id="edge23" class="edge">
<title>Node1&#45;&gt;Node18</title>
<path fill="none" stroke="midnightblue" d="M401.12,-336.4C418.27,-326.77 440.86,-314.09 457.81,-304.58"/>
<polygon fill="midnightblue" stroke="midnightblue" points="459.57,-307.6 466.58,-299.66 456.14,-301.5 459.57,-307.6"/>
</g>
<!-- Node3 -->
<g id="node3" class="node">
<title>Node3</title>
<g id="a_node3"><a xlink:href="AServoDriver_8hpp.html" target="_top" xlink:title="Interface abstraite du driver de servomoteurs.">
<polygon fill="white" stroke="black" points="233,-224.5 233,-243.5 381,-243.5 381,-224.5 233,-224.5"/>
<text text-anchor="middle" x="307" y="-231.5" font-family="Helvetica,sans-Serif" font-size="10.00">interface/AServoDriver.hpp</text>
</a>
</g>
</g>
<!-- Node2&#45;&gt;Node3 -->
<g id="edge2" class="edge">
<title>Node2&#45;&gt;Node3</title>
<path fill="none" stroke="midnightblue" d="M364.91,-280.32C354.51,-272.18 338.74,-259.84 326.28,-250.09"/>
<polygon fill="midnightblue" stroke="midnightblue" points="328.32,-247.24 318.29,-243.83 324.01,-252.75 328.32,-247.24"/>
</g>
<!-- Node4 -->
<g id="node4" class="node">
<title>Node4</title>
<g id="a_node4"><a xlink:href="LoggerFactory_8hpp.html" target="_top" xlink:title="Définition de la classe LoggerFactory.">
<polygon fill="white" stroke="black" points="428,-168.5 428,-187.5 550,-187.5 550,-168.5 428,-168.5"/>
<text text-anchor="middle" x="489" y="-175.5" font-family="Helvetica,sans-Serif" font-size="10.00">log/LoggerFactory.hpp</text>
</a>
</g>
</g>
<!-- Node2&#45;&gt;Node4 -->
<g id="edge3" class="edge">
<title>Node2&#45;&gt;Node4</title>
<path fill="none" stroke="midnightblue" d="M414.2,-280.46C447.34,-272.19 491.6,-258.76 502,-244 511.71,-230.22 506.05,-210.94 499.44,-196.95"/>
<polygon fill="midnightblue" stroke="midnightblue" points="502.41,-195.08 494.66,-187.86 496.21,-198.34 502.41,-195.08"/>
</g>
<!-- Node16 -->
<g id="node16" class="node">
<title>Node16</title>
<g id="a_node16"><a xlink:href="CCAx12Adc_8hpp.html" target="_top" xlink:title="Définition de la classe CCAx12Adc. Program for the Made by PM&#45;ROBOTIX card to manage servomotor AX12,...">
<polygon fill="white" stroke="black" points="399,-224.5 399,-243.5 493,-243.5 493,-224.5 399,-224.5"/>
<text text-anchor="middle" x="446" y="-231.5" font-family="Helvetica,sans-Serif" font-size="10.00">CCAx12Adc.hpp</text>
</a>
</g>
</g>
<!-- Node2&#45;&gt;Node16 -->
<g id="edge20" class="edge">
<title>Node2&#45;&gt;Node16</title>
<path fill="none" stroke="midnightblue" d="M387.25,-280.32C397.8,-272.18 413.8,-259.84 426.44,-250.09"/>
<polygon fill="midnightblue" stroke="midnightblue" points="428.77,-252.71 434.55,-243.83 424.49,-247.17 428.77,-252.71"/>
</g>
<!-- Node5 -->
<g id="node5" class="node">
<title>Node5</title>
<g id="a_node5"><a xlink:title=" ">
<polygon fill="white" stroke="#bfbfbf" points="470,-112.5 470,-131.5 508,-131.5 508,-112.5 470,-112.5"/>
<text text-anchor="middle" x="489" y="-119.5" font-family="Helvetica,sans-Serif" font-size="10.00">map</text>
</a>
</g>
</g>
<!-- Node4&#45;&gt;Node5 -->
<g id="edge4" class="edge">
<title>Node4&#45;&gt;Node5</title>
<path fill="none" stroke="midnightblue" d="M489,-168.08C489,-161.01 489,-150.86 489,-141.99"/>
<polygon fill="midnightblue" stroke="midnightblue" points="492.5,-141.75 489,-131.75 485.5,-141.75 492.5,-141.75"/>
</g>
<!-- Node6 -->
<g id="node6" class="node">
<title>Node6</title>
<g id="a_node6"><a xlink:title=" ">
<polygon fill="white" stroke="#bfbfbf" points="398,-0.5 398,-19.5 442,-19.5 442,-0.5 398,-0.5"/>
<text text-anchor="middle" x="420" y="-7.5" font-family="Helvetica,sans-Serif" font-size="10.00">string</text>
</a>
</g>
</g>
<!-- Node4&#45;&gt;Node6 -->
<g id="edge5" class="edge">
<title>Node4&#45;&gt;Node6</title>
<path fill="none" stroke="midnightblue" d="M498.75,-168.2C520.61,-147.4 569.62,-94.09 543,-56 522.7,-26.95 481.52,-16.59 452.42,-12.94"/>
<polygon fill="midnightblue" stroke="midnightblue" points="452.61,-9.44 442.3,-11.87 451.88,-16.4 452.61,-9.44"/>
</g>
<!-- Node7 -->
<g id="node7" class="node">
<title>Node7</title>
<g id="a_node7"><a xlink:href="Thread_8hpp.html" target="_top" xlink:title="Définition de la classe Thread.">
<polygon fill="white" stroke="black" points="148.5,-112.5 148.5,-131.5 263.5,-131.5 263.5,-112.5 148.5,-112.5"/>
<text text-anchor="middle" x="206" y="-119.5" font-family="Helvetica,sans-Serif" font-size="10.00">../thread/Thread.hpp</text>
</a>
</g>
</g>
<!-- Node4&#45;&gt;Node7 -->
<g id="edge6" class="edge">
<title>Node4&#45;&gt;Node7</title>
<path fill="none" stroke="midnightblue" d="M444.16,-168.44C394.38,-158.94 314.02,-143.61 260.61,-133.42"/>
<polygon fill="midnightblue" stroke="midnightblue" points="261.11,-129.95 250.63,-131.52 259.8,-136.83 261.11,-129.95"/>
</g>
<!-- Node4&#45;&gt;Node13 -->
<g id="edge14" class="edge">
<title>Node4&#45;&gt;Node13</title>
<path fill="none" stroke="midnightblue" d="M475.18,-168.32C461.77,-159.9 441.18,-146.97 425.41,-137.07"/>
<polygon fill="midnightblue" stroke="midnightblue" points="427.11,-134.01 416.78,-131.65 423.39,-139.94 427.11,-134.01"/>
</g>
<!-- Node7&#45;&gt;Node6 -->
<g id="edge8" class="edge">
<title>Node7&#45;&gt;Node6</title>
<path fill="none" stroke="midnightblue" d="M228.52,-112.36C250.05,-103.86 283.26,-90.14 311,-76 342.26,-60.07 376.81,-38.8 398.46,-25.01"/>
<polygon fill="midnightblue" stroke="midnightblue" points="400.37,-27.94 406.9,-19.59 396.59,-22.05 400.37,-27.94"/>
</g>
<!-- Node8 -->
<g id="node8" class="node">
<title>Node8</title>
<g id="a_node8"><a xlink:title=" ">
<polygon fill="white" stroke="#bfbfbf" points="205.5,-0.5 205.5,-19.5 268.5,-19.5 268.5,-0.5 205.5,-0.5"/>
<text text-anchor="middle" x="237" y="-7.5" font-family="Helvetica,sans-Serif" font-size="10.00">pthread.h</text>
</a>
</g>
</g>
<!-- Node7&#45;&gt;Node8 -->
<g id="edge7" class="edge">
<title>Node7&#45;&gt;Node8</title>
<path fill="none" stroke="midnightblue" d="M208.43,-112.37C213.46,-94.54 225.08,-53.3 231.85,-29.27"/>
<polygon fill="midnightblue" stroke="midnightblue" points="235.23,-30.17 234.58,-19.59 228.5,-28.27 235.23,-30.17"/>
</g>
<!-- Node9 -->
<g id="node9" class="node">
<title>Node9</title>
<g id="a_node9"><a xlink:title=" ">
<polygon fill="white" stroke="#bfbfbf" points="0,-56.5 0,-75.5 48,-75.5 48,-56.5 0,-56.5"/>
<text text-anchor="middle" x="24" y="-63.5" font-family="Helvetica,sans-Serif" font-size="10.00">thread</text>
</a>
</g>
</g>
<!-- Node7&#45;&gt;Node9 -->
<g id="edge9" class="edge">
<title>Node7&#45;&gt;Node9</title>
<path fill="none" stroke="midnightblue" d="M177.16,-112.44C144.68,-102.81 91.97,-87.17 57.65,-76.98"/>
<polygon fill="midnightblue" stroke="midnightblue" points="58.64,-73.63 48.05,-74.14 56.65,-80.34 58.64,-73.63"/>
</g>
<!-- Node10 -->
<g id="node10" class="node">
<title>Node10</title>
<g id="a_node10"><a xlink:title=" ">
<polygon fill="white" stroke="#bfbfbf" points="66,-56.5 66,-75.5 110,-75.5 110,-56.5 66,-56.5"/>
<text text-anchor="middle" x="88" y="-63.5" font-family="Helvetica,sans-Serif" font-size="10.00">ctime</text>
</a>
</g>
</g>
<!-- Node7&#45;&gt;Node10 -->
<g id="edge10" class="edge">
<title>Node7&#45;&gt;Node10</title>
<path fill="none" stroke="midnightblue" d="M187.3,-112.44C168.06,-103.64 137.85,-89.81 115.8,-79.72"/>
<polygon fill="midnightblue" stroke="midnightblue" points="117.16,-76.5 106.61,-75.52 114.25,-82.86 117.16,-76.5"/>
</g>
<!-- Node11 -->
<g id="node11" class="node">
<title>Node11</title>
<g id="a_node11"><a xlink:href="Mutex_8hpp.html" target="_top" xlink:title="Définition de la classe Mutex.">
<polygon fill="white" stroke="black" points="234,-56.5 234,-75.5 302,-75.5 302,-56.5 234,-56.5"/>
<text text-anchor="middle" x="268" y="-63.5" font-family="Helvetica,sans-Serif" font-size="10.00">Mutex.hpp</text>
</a>
</g>
</g>
<!-- Node7&#45;&gt;Node11 -->
<g id="edge11" class="edge">
<title>Node7&#45;&gt;Node11</title>
<path fill="none" stroke="midnightblue" d="M215.96,-112.32C225.13,-104.34 238.94,-92.31 250.03,-82.65"/>
<polygon fill="midnightblue" stroke="midnightblue" points="252.62,-85.04 257.86,-75.83 248.02,-79.76 252.62,-85.04"/>
</g>
<!-- Node12 -->
<g id="node12" class="node">
<title>Node12</title>
<g id="a_node12"><a xlink:title=" ">
<polygon fill="white" stroke="#bfbfbf" points="128,-56.5 128,-75.5 178,-75.5 178,-56.5 128,-56.5"/>
<text text-anchor="middle" x="153" y="-63.5" font-family="Helvetica,sans-Serif" font-size="10.00">chrono</text>
</a>
</g>
</g>
<!-- Node7&#45;&gt;Node12 -->
<g id="edge13" class="edge">
<title>Node7&#45;&gt;Node12</title>
<path fill="none" stroke="midnightblue" d="M197.25,-112.08C189.53,-104.22 178.1,-92.57 168.78,-83.08"/>
<polygon fill="midnightblue" stroke="midnightblue" points="171.09,-80.44 161.59,-75.75 166.1,-85.34 171.09,-80.44"/>
</g>
<!-- Node11&#45;&gt;Node8 -->
<g id="edge12" class="edge">
<title>Node11&#45;&gt;Node8</title>
<path fill="none" stroke="midnightblue" d="M262.88,-56.08C258.59,-48.61 252.34,-37.72 247.06,-28.52"/>
<polygon fill="midnightblue" stroke="midnightblue" points="250.04,-26.68 242.02,-19.75 243.97,-30.17 250.04,-26.68"/>
</g>
<!-- Node13&#45;&gt;Node6 -->
<g id="edge16" class="edge">
<title>Node13&#45;&gt;Node6</title>
<path fill="none" stroke="midnightblue" d="M410.41,-112.41C417.28,-103.84 427.01,-89.98 431,-76 435.42,-60.52 431.67,-42.44 427.38,-29.28"/>
<polygon fill="midnightblue" stroke="midnightblue" points="430.55,-27.74 423.83,-19.55 423.97,-30.14 430.55,-27.74"/>
</g>
<!-- Node13&#45;&gt;Node11 -->
<g id="edge17" class="edge">
<title>Node13&#45;&gt;Node11</title>
<path fill="none" stroke="midnightblue" d="M381.61,-112.44C359.29,-103.52 324.1,-89.44 298.79,-79.32"/>
<polygon fill="midnightblue" stroke="midnightblue" points="299.88,-75.98 289.29,-75.52 297.28,-82.48 299.88,-75.98"/>
</g>
<!-- Node14 -->
<g id="node14" class="node">
<title>Node14</title>
<g id="a_node14"><a xlink:title=" ">
<polygon fill="white" stroke="#bfbfbf" points="478,-56.5 478,-75.5 534,-75.5 534,-56.5 478,-56.5"/>
<text text-anchor="middle" x="506" y="-63.5" font-family="Helvetica,sans-Serif" font-size="10.00">sstream</text>
</a>
</g>
</g>
<!-- Node13&#45;&gt;Node14 -->
<g id="edge15" class="edge">
<title>Node13&#45;&gt;Node14</title>
<path fill="none" stroke="midnightblue" d="M419.55,-112.32C435.99,-103.7 461.43,-90.36 480.47,-80.39"/>
<polygon fill="midnightblue" stroke="midnightblue" points="482.26,-83.4 489.49,-75.65 479.01,-77.2 482.26,-83.4"/>
</g>
<!-- Node15 -->
<g id="node15" class="node">
<title>Node15</title>
<g id="a_node15"><a xlink:href="Level_8hpp.html" target="_top" xlink:title="Définition de la classe Level.">
<polygon fill="white" stroke="black" points="358,-56.5 358,-75.5 422,-75.5 422,-56.5 358,-56.5"/>
<text text-anchor="middle" x="390" y="-63.5" font-family="Helvetica,sans-Serif" font-size="10.00">Level.hpp</text>
</a>
</g>
</g>
<!-- Node13&#45;&gt;Node15 -->
<g id="edge18" class="edge">
<title>Node13&#45;&gt;Node15</title>
<path fill="none" stroke="midnightblue" d="M400.85,-112.08C399.13,-104.93 396.65,-94.64 394.5,-85.69"/>
<polygon fill="midnightblue" stroke="midnightblue" points="397.85,-84.65 392.11,-75.75 391.04,-86.29 397.85,-84.65"/>
</g>
<!-- Node15&#45;&gt;Node6 -->
<g id="edge19" class="edge">
<title>Node15&#45;&gt;Node6</title>
<path fill="none" stroke="midnightblue" d="M394.95,-56.08C399.1,-48.61 405.15,-37.72 410.27,-28.52"/>
<polygon fill="midnightblue" stroke="midnightblue" points="413.34,-30.19 415.14,-19.75 407.22,-26.79 413.34,-30.19"/>
</g>
<!-- Node16&#45;&gt;Node4 -->
<g id="edge22" class="edge">
<title>Node16&#45;&gt;Node4</title>
<path fill="none" stroke="midnightblue" d="M453.1,-224.08C459.24,-216.38 468.27,-205.03 475.74,-195.65"/>
<polygon fill="midnightblue" stroke="midnightblue" points="478.54,-197.75 482.03,-187.75 473.06,-193.39 478.54,-197.75"/>
</g>
<!-- Node17 -->
<g id="node17" class="node">
<title>Node17</title>
<g id="a_node17"><a xlink:title=" ">
<polygon fill="white" stroke="#bfbfbf" points="264,-168.5 264,-187.5 410,-187.5 410,-168.5 264,-168.5"/>
<text text-anchor="middle" x="337" y="-175.5" font-family="Helvetica,sans-Serif" font-size="10.00">as_devices/cpp/as_i2c.hpp</text>
</a>
</g>
</g>
<!-- Node16&#45;&gt;Node17 -->
<g id="edge21" class="edge">
<title>Node16&#45;&gt;Node17</title>
<path fill="none" stroke="midnightblue" d="M428.49,-224.32C410.93,-215.62 383.67,-202.12 363.47,-192.11"/>
<polygon fill="midnightblue" stroke="midnightblue" points="364.98,-188.96 354.47,-187.65 361.88,-195.23 364.98,-188.96"/>
</g>
</g>
</svg>
