<?xml version="1.0" encoding="UTF-8" standalone="no"?>
<!DOCTYPE svg PUBLIC "-//W3C//DTD SVG 1.1//EN"
 "http://www.w3.org/Graphics/SVG/1.1/DTD/svg11.dtd">
<!-- Generated by graphviz version 2.43.0 (0)
 -->
<!-- Title: test/common/ExceptionTest.cpp Pages: 1 -->
<!--zoomable 386 -->
<svg id="main" version="1.1" xmlns="http://www.w3.org/2000/svg" xmlns:xlink="http://www.w3.org/1999/xlink" xml:space="preserve" onload="init(evt)">
<style type="text/css"><![CDATA[
.edge:hover path { stroke: red; }
.edge:hover polygon { stroke: red; fill: red; }
]]></style>
<script type="text/javascript"><![CDATA[
var edges = document.getElementsByTagName('g');
if (edges && edges.length) {
  for (var i=0;i<edges.length;i++) {
    if (edges[i].id.substr(0,4)=='edge') {
      edges[i].setAttribute('class','edge');
    }
  }
}
]]></script>
        <defs>
                <circle id="rim" cx="0" cy="0" r="7"/>
                <circle id="rim2" cx="0" cy="0" r="3.5"/>
                <g id="zoomPlus">
                        <use xlink:href="#rim" fill="#404040">
                                <set attributeName="fill" to="#808080" begin="zoomplus.mouseover" end="zoomplus.mouseout"/>
                        </use>
                        <path d="M-4,0h8M0,-4v8" fill="none" stroke="white" stroke-width="1.5" pointer-events="none"/>
                </g>
                <g id="zoomMin">
                        <use xlink:href="#rim" fill="#404040">
                                <set attributeName="fill" to="#808080" begin="zoomminus.mouseover" end="zoomminus.mouseout"/>
                        </use>
                        <path d="M-4,0h8" fill="none" stroke="white" stroke-width="1.5" pointer-events="none"/>
                </g>
                <g id="dirArrow">
                        <path fill="none" stroke="white" stroke-width="1.5" d="M0,-3.0v7 M-2.5,-0.5L0,-3.0L2.5,-0.5"/>
                </g>
               <g id="resetDef">
                       <use xlink:href="#rim2" fill="#404040">
                               <set attributeName="fill" to="#808080" begin="reset.mouseover" end="reset.mouseout"/>
                       </use>
               </g>
        </defs>

<script type="text/javascript">
var viewWidth = 683;
var viewHeight = 386;
var sectionId = 'dynsection-0';
</script>
<script xlink:href="svgpan.js"/>
<svg id="graph" class="graph">
<g id="viewport">
<title>test/common/ExceptionTest.cpp</title>
<polygon fill="white" stroke="transparent" points="-4,4 -4,-382 678.85,-382 678.85,4 -4,4"/>
<!-- Node1 -->
<g id="node1" class="node">
<title>Node1</title>
<g id="a_node1"><a xlink:title="Implémentation des tests de la classe logs::Exception.">
<polygon fill="#bfbfbf" stroke="black" points="502.85,-358.5 502.85,-377.5 674.85,-377.5 674.85,-358.5 502.85,-358.5"/>
<text text-anchor="middle" x="588.85" y="-365.5" font-family="Helvetica,sans-Serif" font-size="10.00">test/common/ExceptionTest.cpp</text>
</a>
</g>
</g>
<!-- Node2 -->
<g id="node2" class="node">
<title>Node2</title>
<g id="a_node2"><a xlink:href="ExceptionTest_8hpp.html" target="_top" xlink:title="Définition de la classe ExceptionTest.">
<polygon fill="white" stroke="black" points="409.35,-297 409.35,-316 514.35,-316 514.35,-297 409.35,-297"/>
<text text-anchor="middle" x="461.85" y="-304" font-family="Helvetica,sans-Serif" font-size="10.00">ExceptionTest.hpp</text>
</a>
</g>
</g>
<!-- Node1&#45;&gt;Node2 -->
<g id="edge1" class="edge">
<title>Node1&#45;&gt;Node2</title>
<path fill="none" stroke="midnightblue" d="M570.65,-358.48C549.34,-348.49 513.82,-331.85 489.19,-320.31"/>
<polygon fill="midnightblue" stroke="midnightblue" points="490.55,-317.08 480.01,-316.01 487.58,-323.42 490.55,-317.08"/>
</g>
<!-- Node4 -->
<g id="node4" class="node">
<title>Node4</title>
<g id="a_node4"><a xlink:title=" ">
<polygon fill="white" stroke="#bfbfbf" points="431.85,-0.5 431.85,-19.5 475.85,-19.5 475.85,-0.5 431.85,-0.5"/>
<text text-anchor="middle" x="453.85" y="-7.5" font-family="Helvetica,sans-Serif" font-size="10.00">string</text>
</a>
</g>
</g>
<!-- Node1&#45;&gt;Node4 -->
<g id="edge23" class="edge">
<title>Node1&#45;&gt;Node4</title>
<path fill="none" stroke="midnightblue" d="M608.52,-358.42C623.43,-350.91 643.27,-338.61 654.85,-322 674.76,-293.44 673.85,-280.82 673.85,-246 673.85,-246 673.85,-246 673.85,-121 673.85,-38.22 547.69,-17.73 486.44,-12.66"/>
<polygon fill="midnightblue" stroke="midnightblue" points="486.39,-9.15 476.16,-11.91 485.87,-16.13 486.39,-9.15"/>
</g>
<!-- Node15 -->
<g id="node15" class="node">
<title>Node15</title>
<g id="a_node15"><a xlink:href="Exception_8hpp.html" target="_top" xlink:title="Définition de la classe Exception.">
<polygon fill="white" stroke="black" points="532.35,-291.5 532.35,-321.5 645.35,-321.5 645.35,-291.5 532.35,-291.5"/>
<text text-anchor="start" x="540.35" y="-309.5" font-family="Helvetica,sans-Serif" font-size="10.00">../../src/common/log</text>
<text text-anchor="middle" x="588.85" y="-298.5" font-family="Helvetica,sans-Serif" font-size="10.00">/Exception.hpp</text>
</a>
</g>
</g>
<!-- Node1&#45;&gt;Node15 -->
<g id="edge20" class="edge">
<title>Node1&#45;&gt;Node15</title>
<path fill="none" stroke="midnightblue" d="M588.85,-358.48C588.85,-351.47 588.85,-341.19 588.85,-331.7"/>
<polygon fill="midnightblue" stroke="midnightblue" points="592.35,-331.52 588.85,-321.52 585.35,-331.52 592.35,-331.52"/>
</g>
<!-- Node3 -->
<g id="node3" class="node">
<title>Node3</title>
<g id="a_node3"><a xlink:href="UnitTest_8hpp.html" target="_top" xlink:title="Définition de la classe DevUnitTest.">
<polygon fill="white" stroke="black" points="405.35,-235.5 405.35,-254.5 518.35,-254.5 518.35,-235.5 405.35,-235.5"/>
<text text-anchor="middle" x="461.85" y="-242.5" font-family="Helvetica,sans-Serif" font-size="10.00">../suite/UnitTest.hpp</text>
</a>
</g>
</g>
<!-- Node2&#45;&gt;Node3 -->
<g id="edge2" class="edge">
<title>Node2&#45;&gt;Node3</title>
<path fill="none" stroke="midnightblue" d="M461.85,-296.98C461.85,-288.58 461.85,-275.48 461.85,-264.66"/>
<polygon fill="midnightblue" stroke="midnightblue" points="465.35,-264.51 461.85,-254.51 458.35,-264.51 465.35,-264.51"/>
</g>
<!-- Node3&#45;&gt;Node4 -->
<g id="edge3" class="edge">
<title>Node3&#45;&gt;Node4</title>
<path fill="none" stroke="midnightblue" d="M466.49,-235.44C480.57,-208.26 520.34,-121.82 494.85,-56 490.4,-44.5 481.48,-34.13 473.1,-26.25"/>
<polygon fill="midnightblue" stroke="midnightblue" points="475.22,-23.46 465.39,-19.51 470.61,-28.73 475.22,-23.46"/>
</g>
<!-- Node5 -->
<g id="node5" class="node">
<title>Node5</title>
<g id="a_node5"><a xlink:href="LoggerFactory_8hpp.html" target="_top" xlink:title="Définition de la classe LoggerFactory.">
<polygon fill="white" stroke="black" points="272.35,-168.5 272.35,-198.5 385.35,-198.5 385.35,-168.5 272.35,-168.5"/>
<text text-anchor="start" x="280.35" y="-186.5" font-family="Helvetica,sans-Serif" font-size="10.00">../../src/common/log</text>
<text text-anchor="middle" x="328.85" y="-175.5" font-family="Helvetica,sans-Serif" font-size="10.00">/LoggerFactory.hpp</text>
</a>
</g>
</g>
<!-- Node3&#45;&gt;Node5 -->
<g id="edge4" class="edge">
<title>Node3&#45;&gt;Node5</title>
<path fill="none" stroke="midnightblue" d="M442.79,-235.48C423.77,-226.96 393.94,-213.62 369.57,-202.72"/>
<polygon fill="midnightblue" stroke="midnightblue" points="370.75,-199.41 360.2,-198.52 367.89,-205.8 370.75,-199.41"/>
</g>
<!-- Node5&#45;&gt;Node4 -->
<g id="edge6" class="edge">
<title>Node5&#45;&gt;Node4</title>
<path fill="none" stroke="midnightblue" d="M319.12,-168.43C303.07,-143.33 275.25,-90.22 300.85,-56 315.35,-36.63 381.37,-22.73 421.8,-15.86"/>
<polygon fill="midnightblue" stroke="midnightblue" points="422.43,-19.31 431.73,-14.23 421.29,-12.4 422.43,-19.31"/>
</g>
<!-- Node6 -->
<g id="node6" class="node">
<title>Node6</title>
<g id="a_node6"><a xlink:title=" ">
<polygon fill="white" stroke="#bfbfbf" points="309.85,-112.5 309.85,-131.5 347.85,-131.5 347.85,-112.5 309.85,-112.5"/>
<text text-anchor="middle" x="328.85" y="-119.5" font-family="Helvetica,sans-Serif" font-size="10.00">map</text>
</a>
</g>
</g>
<!-- Node5&#45;&gt;Node6 -->
<g id="edge5" class="edge">
<title>Node5&#45;&gt;Node6</title>
<path fill="none" stroke="midnightblue" d="M328.85,-168.4C328.85,-160.47 328.85,-150.46 328.85,-141.86"/>
<polygon fill="midnightblue" stroke="midnightblue" points="332.35,-141.66 328.85,-131.66 325.35,-141.66 332.35,-141.66"/>
</g>
<!-- Node7 -->
<g id="node7" class="node">
<title>Node7</title>
<g id="a_node7"><a xlink:href="Thread_8hpp.html" target="_top" xlink:title="Définition de la classe Thread.">
<polygon fill="white" stroke="black" points="74.35,-112.5 74.35,-131.5 189.35,-131.5 189.35,-112.5 74.35,-112.5"/>
<text text-anchor="middle" x="131.85" y="-119.5" font-family="Helvetica,sans-Serif" font-size="10.00">../thread/Thread.hpp</text>
</a>
</g>
</g>
<!-- Node5&#45;&gt;Node7 -->
<g id="edge7" class="edge">
<title>Node5&#45;&gt;Node7</title>
<path fill="none" stroke="midnightblue" d="M282.16,-168.4C247.98,-158.07 202.14,-144.23 170.11,-134.56"/>
<polygon fill="midnightblue" stroke="midnightblue" points="170.81,-131.11 160.23,-131.57 168.79,-137.81 170.81,-131.11"/>
</g>
<!-- Node12 -->
<g id="node12" class="node">
<title>Node12</title>
<g id="a_node12"><a xlink:href="Logger_8hpp.html" target="_top" xlink:title="Définition de la classe Logger.">
<polygon fill="white" stroke="black" points="365.85,-112.5 365.85,-131.5 435.85,-131.5 435.85,-112.5 365.85,-112.5"/>
<text text-anchor="middle" x="400.85" y="-119.5" font-family="Helvetica,sans-Serif" font-size="10.00">Logger.hpp</text>
</a>
</g>
</g>
<!-- Node5&#45;&gt;Node12 -->
<g id="edge14" class="edge">
<title>Node5&#45;&gt;Node12</title>
<path fill="none" stroke="midnightblue" d="M345.91,-168.4C356.91,-159.31 371.22,-147.49 382.47,-138.19"/>
<polygon fill="midnightblue" stroke="midnightblue" points="384.89,-140.73 390.37,-131.66 380.44,-135.33 384.89,-140.73"/>
</g>
<!-- Node7&#45;&gt;Node4 -->
<g id="edge9" class="edge">
<title>Node7&#45;&gt;Node4</title>
<path fill="none" stroke="midnightblue" d="M135.26,-112.13C141.29,-97.77 155.26,-69.63 176.85,-56 217.06,-30.61 357.01,-17.78 421.21,-13.11"/>
<polygon fill="midnightblue" stroke="midnightblue" points="421.83,-16.58 431.56,-12.38 421.34,-9.6 421.83,-16.58"/>
</g>
<!-- Node8 -->
<g id="node8" class="node">
<title>Node8</title>
<g id="a_node8"><a xlink:title=" ">
<polygon fill="white" stroke="#bfbfbf" points="71.35,-0.5 71.35,-19.5 134.35,-19.5 134.35,-0.5 71.35,-0.5"/>
<text text-anchor="middle" x="102.85" y="-7.5" font-family="Helvetica,sans-Serif" font-size="10.00">pthread.h</text>
</a>
</g>
</g>
<!-- Node7&#45;&gt;Node8 -->
<g id="edge8" class="edge">
<title>Node7&#45;&gt;Node8</title>
<path fill="none" stroke="midnightblue" d="M74.15,-115.38C48.53,-109.67 20.64,-98.35 4.85,-76 -13.54,-49.97 26.93,-31.52 61.32,-21.08"/>
<polygon fill="midnightblue" stroke="midnightblue" points="62.62,-24.35 71.26,-18.22 60.69,-17.62 62.62,-24.35"/>
</g>
<!-- Node9 -->
<g id="node9" class="node">
<title>Node9</title>
<g id="a_node9"><a xlink:title=" ">
<polygon fill="white" stroke="#bfbfbf" points="13.85,-56.5 13.85,-75.5 61.85,-75.5 61.85,-56.5 13.85,-56.5"/>
<text text-anchor="middle" x="37.85" y="-63.5" font-family="Helvetica,sans-Serif" font-size="10.00">thread</text>
</a>
</g>
</g>
<!-- Node7&#45;&gt;Node9 -->
<g id="edge10" class="edge">
<title>Node7&#45;&gt;Node9</title>
<path fill="none" stroke="midnightblue" d="M116.75,-112.32C101.95,-103.82 79.16,-90.73 61.87,-80.8"/>
<polygon fill="midnightblue" stroke="midnightblue" points="63.33,-77.6 52.92,-75.65 59.84,-83.67 63.33,-77.6"/>
</g>
<!-- Node10 -->
<g id="node10" class="node">
<title>Node10</title>
<g id="a_node10"><a xlink:href="Mutex_8hpp.html" target="_top" xlink:title="Définition de la classe Mutex.">
<polygon fill="white" stroke="black" points="185.85,-56.5 185.85,-75.5 253.85,-75.5 253.85,-56.5 185.85,-56.5"/>
<text text-anchor="middle" x="219.85" y="-63.5" font-family="Helvetica,sans-Serif" font-size="10.00">Mutex.hpp</text>
</a>
</g>
</g>
<!-- Node7&#45;&gt;Node10 -->
<g id="edge11" class="edge">
<title>Node7&#45;&gt;Node10</title>
<path fill="none" stroke="midnightblue" d="M145.99,-112.32C159.72,-103.9 180.79,-90.97 196.91,-81.07"/>
<polygon fill="midnightblue" stroke="midnightblue" points="199.05,-83.87 205.75,-75.65 195.39,-77.9 199.05,-83.87"/>
</g>
<!-- Node11 -->
<g id="node11" class="node">
<title>Node11</title>
<g id="a_node11"><a xlink:title=" ">
<polygon fill="white" stroke="#bfbfbf" points="79.85,-56.5 79.85,-75.5 129.85,-75.5 129.85,-56.5 79.85,-56.5"/>
<text text-anchor="middle" x="104.85" y="-63.5" font-family="Helvetica,sans-Serif" font-size="10.00">chrono</text>
</a>
</g>
</g>
<!-- Node7&#45;&gt;Node11 -->
<g id="edge13" class="edge">
<title>Node7&#45;&gt;Node11</title>
<path fill="none" stroke="midnightblue" d="M127.39,-112.08C123.7,-104.69 118.33,-93.95 113.76,-84.81"/>
<polygon fill="midnightblue" stroke="midnightblue" points="116.83,-83.13 109.23,-75.75 110.57,-86.26 116.83,-83.13"/>
</g>
<!-- Node10&#45;&gt;Node8 -->
<g id="edge12" class="edge">
<title>Node10&#45;&gt;Node8</title>
<path fill="none" stroke="midnightblue" d="M201.31,-56.44C182.23,-47.64 152.28,-33.81 130.41,-23.72"/>
<polygon fill="midnightblue" stroke="midnightblue" points="131.85,-20.53 121.3,-19.52 128.92,-26.88 131.85,-20.53"/>
</g>
<!-- Node12&#45;&gt;Node4 -->
<g id="edge16" class="edge">
<title>Node12&#45;&gt;Node4</title>
<path fill="none" stroke="midnightblue" d="M400.97,-112.11C401.46,-99.12 403.67,-74.5 412.85,-56 418.33,-44.95 427.34,-34.63 435.51,-26.66"/>
<polygon fill="midnightblue" stroke="midnightblue" points="437.98,-29.15 442.96,-19.8 433.23,-24 437.98,-29.15"/>
</g>
<!-- Node12&#45;&gt;Node10 -->
<g id="edge17" class="edge">
<title>Node12&#45;&gt;Node10</title>
<path fill="none" stroke="midnightblue" d="M372.17,-112.44C341.32,-103.24 292.12,-88.56 258.02,-78.39"/>
<polygon fill="midnightblue" stroke="midnightblue" points="258.98,-75.02 248.4,-75.52 256.98,-81.73 258.98,-75.02"/>
</g>
<!-- Node13 -->
<g id="node13" class="node">
<title>Node13</title>
<g id="a_node13"><a xlink:title=" ">
<polygon fill="white" stroke="#bfbfbf" points="309.85,-56.5 309.85,-75.5 365.85,-75.5 365.85,-56.5 309.85,-56.5"/>
<text text-anchor="middle" x="337.85" y="-63.5" font-family="Helvetica,sans-Serif" font-size="10.00">sstream</text>
</a>
</g>
</g>
<!-- Node12&#45;&gt;Node13 -->
<g id="edge15" class="edge">
<title>Node12&#45;&gt;Node13</title>
<path fill="none" stroke="midnightblue" d="M390.73,-112.32C381.32,-104.26 367.11,-92.08 355.78,-82.37"/>
<polygon fill="midnightblue" stroke="midnightblue" points="358.03,-79.68 348.16,-75.83 353.47,-85 358.03,-79.68"/>
</g>
<!-- Node14 -->
<g id="node14" class="node">
<title>Node14</title>
<g id="a_node14"><a xlink:href="Level_8hpp.html" target="_top" xlink:title="Définition de la classe Level.">
<polygon fill="white" stroke="black" points="421.85,-56.5 421.85,-75.5 485.85,-75.5 485.85,-56.5 421.85,-56.5"/>
<text text-anchor="middle" x="453.85" y="-63.5" font-family="Helvetica,sans-Serif" font-size="10.00">Level.hpp</text>
</a>
</g>
</g>
<!-- Node12&#45;&gt;Node14 -->
<g id="edge18" class="edge">
<title>Node12&#45;&gt;Node14</title>
<path fill="none" stroke="midnightblue" d="M409.6,-112.08C417.32,-104.22 428.75,-92.57 438.07,-83.08"/>
<polygon fill="midnightblue" stroke="midnightblue" points="440.75,-85.34 445.26,-75.75 435.76,-80.44 440.75,-85.34"/>
</g>
<!-- Node14&#45;&gt;Node4 -->
<g id="edge19" class="edge">
<title>Node14&#45;&gt;Node4</title>
<path fill="none" stroke="midnightblue" d="M453.85,-56.08C453.85,-49.01 453.85,-38.86 453.85,-29.99"/>
<polygon fill="midnightblue" stroke="midnightblue" points="457.35,-29.75 453.85,-19.75 450.35,-29.75 457.35,-29.75"/>
</g>
<!-- Node15&#45;&gt;Node4 -->
<g id="edge22" class="edge">
<title>Node15&#45;&gt;Node4</title>
<path fill="none" stroke="midnightblue" d="M581.54,-291.4C570.76,-269.26 551.85,-224.7 551.85,-184.5 551.85,-184.5 551.85,-184.5 551.85,-121 551.85,-77.38 508.36,-43.06 479.32,-25.01"/>
<polygon fill="midnightblue" stroke="midnightblue" points="480.86,-21.85 470.47,-19.73 477.27,-27.86 480.86,-21.85"/>
</g>
<!-- Node16 -->
<g id="node16" class="node">
<title>Node16</title>
<g id="a_node16"><a xlink:title=" ">
<polygon fill="white" stroke="#bfbfbf" points="580.35,-235.5 580.35,-254.5 645.35,-254.5 645.35,-235.5 580.35,-235.5"/>
<text text-anchor="middle" x="612.85" y="-242.5" font-family="Helvetica,sans-Serif" font-size="10.00">exception</text>
</a>
</g>
</g>
<!-- Node15&#45;&gt;Node16 -->
<g id="edge21" class="edge">
<title>Node15&#45;&gt;Node16</title>
<path fill="none" stroke="midnightblue" d="M594.54,-291.4C597.85,-283.2 602.05,-272.78 605.59,-263.99"/>
<polygon fill="midnightblue" stroke="midnightblue" points="608.86,-265.24 609.36,-254.66 602.37,-262.62 608.86,-265.24"/>
</g>
</g>
</svg>
        <g id="navigator" transform="translate(0 0)" fill="#404254">
                <rect fill="#f2f5e9" fill-opacity="0.5" stroke="#606060" stroke-width=".5" x="0" y="0" width="60" height="60"/>
                <use id="zoomplus" xlink:href="#zoomPlus" x="17" y="9" onmousedown="handleZoom(evt,'in')"/>
                <use id="zoomminus" xlink:href="#zoomMin" x="42" y="9" onmousedown="handleZoom(evt,'out')"/>
                <use id="reset" xlink:href="#resetDef" x="30" y="36" onmousedown="handleReset()"/>
                <g id="arrowUp" xlink:href="#dirArrow" transform="translate(30 24)" onmousedown="handlePan(0,-1)">
                  <use xlink:href="#rim" fill="#404040">
                        <set attributeName="fill" to="#808080" begin="arrowUp.mouseover" end="arrowUp.mouseout"/>
                  </use>
                  <path fill="none" stroke="white" stroke-width="1.5" d="M0,-3.0v7 M-2.5,-0.5L0,-3.0L2.5,-0.5"/>
                </g>
                <g id="arrowRight" xlink:href="#dirArrow" transform="rotate(90) translate(36 -43)" onmousedown="handlePan(1,0)">
                  <use xlink:href="#rim" fill="#404040">
                        <set attributeName="fill" to="#808080" begin="arrowRight.mouseover" end="arrowRight.mouseout"/>
                  </use>
                  <path fill="none" stroke="white" stroke-width="1.5" d="M0,-3.0v7 M-2.5,-0.5L0,-3.0L2.5,-0.5"/>
                </g>
                <g id="arrowDown" xlink:href="#dirArrow" transform="rotate(180) translate(-30 -48)" onmousedown="handlePan(0,1)">
                  <use xlink:href="#rim" fill="#404040">
                        <set attributeName="fill" to="#808080" begin="arrowDown.mouseover" end="arrowDown.mouseout"/>
                  </use>
                  <path fill="none" stroke="white" stroke-width="1.5" d="M0,-3.0v7 M-2.5,-0.5L0,-3.0L2.5,-0.5"/>
                </g>
                <g id="arrowLeft" xlink:href="#dirArrow" transform="rotate(270) translate(-36 17)" onmousedown="handlePan(-1,0)">
                  <use xlink:href="#rim" fill="#404040">
                        <set attributeName="fill" to="#808080" begin="arrowLeft.mouseover" end="arrowLeft.mouseout"/>
                  </use>
                  <path fill="none" stroke="white" stroke-width="1.5" d="M0,-3.0v7 M-2.5,-0.5L0,-3.0L2.5,-0.5"/>
                </g>
        </g>
        <svg viewBox="0 0 15 15" width="100%" height="30px" preserveAspectRatio="xMaxYMin meet">
         <g id="arrow_out" transform="scale(0.3 0.3)">
          <a xlink:href="ExceptionTest_8cpp__incl_org.svg" target="_base">
           <rect id="button" ry="5" rx="5" y="6" x="6" height="38" width="38"
                fill="#f2f5e9" fill-opacity="0.5" stroke="#606060" stroke-width="1.0"/>
           <path id="arrow"
             d="M 11.500037,31.436501 C 11.940474,20.09759 22.043105,11.32322 32.158766,21.979434 L 37.068811,17.246167 C 37.068811,17.246167 37.088388,32 37.088388,32 L 22.160133,31.978069 C 22.160133,31.978069 26.997745,27.140456 26.997745,27.140456 C 18.528582,18.264221 13.291696,25.230495 11.500037,31.436501 z"
             style="fill:#404040;"/>
          </a>
         </g>
        </svg>
</svg>
