<?xml version="1.0" encoding="UTF-8" standalone="no"?>
<!DOCTYPE svg PUBLIC "-//W3C//DTD SVG 1.1//EN"
 "http://www.w3.org/Graphics/SVG/1.1/DTD/svg11.dtd">
<!-- Generated by graphviz version 2.43.0 (0)
 -->
<!-- Title: test/common/ExceptionTest.cpp Pages: 1 -->
<!--zoomable 386 -->
<svg id="main" version="1.1" xmlns="http://www.w3.org/2000/svg" xmlns:xlink="http://www.w3.org/1999/xlink" xml:space="preserve" onload="init(evt)">
<style type="text/css"><![CDATA[
.edge:hover path { stroke: red; }
.edge:hover polygon { stroke: red; fill: red; }
]]></style>
<script type="text/javascript"><![CDATA[
var edges = document.getElementsByTagName('g');
if (edges && edges.length) {
  for (var i=0;i<edges.length;i++) {
    if (edges[i].id.substr(0,4)=='edge') {
      edges[i].setAttribute('class','edge');
    }
  }
}
]]></script>
        <defs>
                <circle id="rim" cx="0" cy="0" r="7"/>
                <circle id="rim2" cx="0" cy="0" r="3.5"/>
                <g id="zoomPlus">
                        <use xlink:href="#rim" fill="#404040">
                                <set attributeName="fill" to="#808080" begin="zoomplus.mouseover" end="zoomplus.mouseout"/>
                        </use>
                        <path d="M-4,0h8M0,-4v8" fill="none" stroke="white" stroke-width="1.5" pointer-events="none"/>
                </g>
                <g id="zoomMin">
                        <use xlink:href="#rim" fill="#404040">
                                <set attributeName="fill" to="#808080" begin="zoomminus.mouseover" end="zoomminus.mouseout"/>
                        </use>
                        <path d="M-4,0h8" fill="none" stroke="white" stroke-width="1.5" pointer-events="none"/>
                </g>
                <g id="dirArrow">
                        <path fill="none" stroke="white" stroke-width="1.5" d="M0,-3.0v7 M-2.5,-0.5L0,-3.0L2.5,-0.5"/>
                </g>
               <g id="resetDef">
                       <use xlink:href="#rim2" fill="#404040">
                               <set attributeName="fill" to="#808080" begin="reset.mouseover" end="reset.mouseout"/>
                       </use>
               </g>
        </defs>

<script type="text/javascript">
var viewWidth = 745;
var viewHeight = 386;
var sectionId = 'dynsection-0';
</script>
<script xlink:href="svgpan.js"/>
<svg id="graph" class="graph">
<g id="viewport">
<title>test/common/ExceptionTest.cpp</title>
<polygon fill="white" stroke="transparent" points="-4,4 -4,-382 741.24,-382 741.24,4 -4,4"/>
<!-- Node1 -->
<g id="node1" class="node">
<title>Node1</title>
<g id="a_node1"><a xlink:title="Implémentation des tests de la classe logs::Exception.">
<polygon fill="#bfbfbf" stroke="black" points="17,-358.5 17,-377.5 189,-377.5 189,-358.5 17,-358.5"/>
<text text-anchor="middle" x="103" y="-365.5" font-family="Helvetica,sans-Serif" font-size="10.00">test/common/ExceptionTest.cpp</text>
</a>
</g>
</g>
<!-- Node2 -->
<g id="node2" class="node">
<title>Node2</title>
<g id="a_node2"><a xlink:href="ExceptionTest_8hpp.html" target="_top" xlink:title="Définition de la classe ExceptionTest.">
<polygon fill="white" stroke="black" points="207.5,-297 207.5,-316 312.5,-316 312.5,-297 207.5,-297"/>
<text text-anchor="middle" x="260" y="-304" font-family="Helvetica,sans-Serif" font-size="10.00">ExceptionTest.hpp</text>
</a>
</g>
</g>
<!-- Node1&#45;&gt;Node2 -->
<g id="edge1" class="edge">
<title>Node1&#45;&gt;Node2</title>
<path fill="none" stroke="midnightblue" d="M125.49,-358.48C152.31,-348.31 197.32,-331.26 227.81,-319.7"/>
<polygon fill="midnightblue" stroke="midnightblue" points="229.44,-322.83 237.55,-316.01 226.96,-316.28 229.44,-322.83"/>
</g>
<!-- Node4 -->
<g id="node4" class="node">
<title>Node4</title>
<g id="a_node4"><a xlink:title=" ">
<polygon fill="white" stroke="#bfbfbf" points="176,-0.5 176,-19.5 220,-19.5 220,-0.5 176,-0.5"/>
<text text-anchor="middle" x="198" y="-7.5" font-family="Helvetica,sans-Serif" font-size="10.00">string</text>
</a>
</g>
</g>
<!-- Node1&#45;&gt;Node4 -->
<g id="edge24" class="edge">
<title>Node1&#45;&gt;Node4</title>
<path fill="none" stroke="midnightblue" d="M85.71,-358.5C71.2,-350.65 50.69,-337.84 37,-322 12.43,-293.58 0,-283.57 0,-246 0,-246 0,-246 0,-121 0,-46.19 109.34,-21.82 165.52,-14.24"/>
<polygon fill="midnightblue" stroke="midnightblue" points="166.18,-17.68 175.67,-12.97 165.32,-10.74 166.18,-17.68"/>
</g>
<!-- Node16 -->
<g id="node16" class="node">
<title>Node16</title>
<g id="a_node16"><a xlink:href="Exception_8hpp.html" target="_top" xlink:title="Définition de la classe Exception.">
<polygon fill="white" stroke="black" points="46.5,-291.5 46.5,-321.5 159.5,-321.5 159.5,-291.5 46.5,-291.5"/>
<text text-anchor="start" x="54.5" y="-309.5" font-family="Helvetica,sans-Serif" font-size="10.00">../../src/common/log</text>
<text text-anchor="middle" x="103" y="-298.5" font-family="Helvetica,sans-Serif" font-size="10.00">/Exception.hpp</text>
</a>
</g>
</g>
<!-- Node1&#45;&gt;Node16 -->
<g id="edge21" class="edge">
<title>Node1&#45;&gt;Node16</title>
<path fill="none" stroke="midnightblue" d="M103,-358.48C103,-351.47 103,-341.19 103,-331.7"/>
<polygon fill="midnightblue" stroke="midnightblue" points="106.5,-331.52 103,-321.52 99.5,-331.52 106.5,-331.52"/>
</g>
<!-- Node3 -->
<g id="node3" class="node">
<title>Node3</title>
<g id="a_node3"><a xlink:href="UnitTest_8hpp.html" target="_top" xlink:title="Définition de la classe DevUnitTest.">
<polygon fill="white" stroke="black" points="233.5,-235.5 233.5,-254.5 346.5,-254.5 346.5,-235.5 233.5,-235.5"/>
<text text-anchor="middle" x="290" y="-242.5" font-family="Helvetica,sans-Serif" font-size="10.00">../suite/UnitTest.hpp</text>
</a>
</g>
</g>
<!-- Node2&#45;&gt;Node3 -->
<g id="edge2" class="edge">
<title>Node2&#45;&gt;Node3</title>
<path fill="none" stroke="midnightblue" d="M264.3,-296.98C268.66,-288.32 275.56,-274.65 281.1,-263.65"/>
<polygon fill="midnightblue" stroke="midnightblue" points="284.33,-265.01 285.71,-254.51 278.08,-261.86 284.33,-265.01"/>
</g>
<!-- Node3&#45;&gt;Node4 -->
<g id="edge3" class="edge">
<title>Node3&#45;&gt;Node4</title>
<path fill="none" stroke="midnightblue" d="M310.75,-235.41C325.83,-228.04 345.39,-215.92 356,-199 390.01,-144.78 412.22,-106.58 373,-56 355.66,-33.63 275.82,-20.44 230.2,-14.6"/>
<polygon fill="midnightblue" stroke="midnightblue" points="230.56,-11.12 220.21,-13.37 229.71,-18.07 230.56,-11.12"/>
</g>
<!-- Node5 -->
<g id="node5" class="node">
<title>Node5</title>
<g id="a_node5"><a xlink:href="LoggerFactory_8hpp.html" target="_top" xlink:title="Définition de la classe LoggerFactory.">
<polygon fill="white" stroke="black" points="233.5,-168.5 233.5,-198.5 346.5,-198.5 346.5,-168.5 233.5,-168.5"/>
<text text-anchor="start" x="241.5" y="-186.5" font-family="Helvetica,sans-Serif" font-size="10.00">../../src/common/log</text>
<text text-anchor="middle" x="290" y="-175.5" font-family="Helvetica,sans-Serif" font-size="10.00">/LoggerFactory.hpp</text>
</a>
</g>
</g>
<!-- Node3&#45;&gt;Node5 -->
<g id="edge4" class="edge">
<title>Node3&#45;&gt;Node5</title>
<path fill="none" stroke="midnightblue" d="M290,-235.48C290,-228.47 290,-218.19 290,-208.7"/>
<polygon fill="midnightblue" stroke="midnightblue" points="293.5,-208.52 290,-198.52 286.5,-208.52 293.5,-208.52"/>
</g>
<!-- Node5&#45;&gt;Node4 -->
<g id="edge6" class="edge">
<title>Node5&#45;&gt;Node4</title>
<path fill="none" stroke="midnightblue" d="M263.55,-168.31C249.43,-159.53 232.79,-147.06 222,-132 199.94,-101.2 196.91,-55.19 197.14,-29.69"/>
<polygon fill="midnightblue" stroke="midnightblue" points="200.64,-29.65 197.42,-19.55 193.65,-29.45 200.64,-29.65"/>
</g>
<!-- Node6 -->
<g id="node6" class="node">
<title>Node6</title>
<g id="a_node6"><a xlink:title=" ">
<polygon fill="white" stroke="#bfbfbf" points="319,-112.5 319,-131.5 357,-131.5 357,-112.5 319,-112.5"/>
<text text-anchor="middle" x="338" y="-119.5" font-family="Helvetica,sans-Serif" font-size="10.00">map</text>
</a>
</g>
</g>
<!-- Node5&#45;&gt;Node6 -->
<g id="edge5" class="edge">
<title>Node5&#45;&gt;Node6</title>
<path fill="none" stroke="midnightblue" d="M301.38,-168.4C308.35,-159.75 317.31,-148.64 324.63,-139.58"/>
<polygon fill="midnightblue" stroke="midnightblue" points="327.46,-141.64 331.02,-131.66 322.01,-137.24 327.46,-141.64"/>
</g>
<!-- Node7 -->
<g id="node7" class="node">
<title>Node7</title>
<g id="a_node7"><a xlink:href="Thread_8hpp.html" target="_top" xlink:title="Définition de la classe Thread.">
<polygon fill="white" stroke="black" points="508.5,-112.5 508.5,-131.5 623.5,-131.5 623.5,-112.5 508.5,-112.5"/>
<text text-anchor="middle" x="566" y="-119.5" font-family="Helvetica,sans-Serif" font-size="10.00">../thread/Thread.hpp</text>
</a>
</g>
</g>
<!-- Node5&#45;&gt;Node7 -->
<g id="edge7" class="edge">
<title>Node5&#45;&gt;Node7</title>
<path fill="none" stroke="midnightblue" d="M346.52,-170.32C396.58,-159.52 468.93,-143.93 516.69,-133.63"/>
<polygon fill="midnightblue" stroke="midnightblue" points="517.45,-137.05 526.49,-131.52 515.97,-130.2 517.45,-137.05"/>
</g>
<!-- Node13 -->
<g id="node13" class="node">
<title>Node13</title>
<g id="a_node13"><a xlink:href="Logger_8hpp.html" target="_top" xlink:title="Définition de la classe Logger.">
<polygon fill="white" stroke="black" points="231,-112.5 231,-131.5 301,-131.5 301,-112.5 231,-112.5"/>
<text text-anchor="middle" x="266" y="-119.5" font-family="Helvetica,sans-Serif" font-size="10.00">Logger.hpp</text>
</a>
</g>
</g>
<!-- Node5&#45;&gt;Node13 -->
<g id="edge15" class="edge">
<title>Node5&#45;&gt;Node13</title>
<path fill="none" stroke="midnightblue" d="M284.31,-168.4C281,-160.2 276.8,-149.78 273.26,-140.99"/>
<polygon fill="midnightblue" stroke="midnightblue" points="276.48,-139.62 269.49,-131.66 269.99,-142.24 276.48,-139.62"/>
</g>
<!-- Node7&#45;&gt;Node4 -->
<g id="edge9" class="edge">
<title>Node7&#45;&gt;Node4</title>
<path fill="none" stroke="midnightblue" d="M559.52,-112.08C548.48,-97.63 524.53,-69.38 497,-56 450.39,-33.34 297.83,-18.87 230.47,-13.43"/>
<polygon fill="midnightblue" stroke="midnightblue" points="230.66,-9.94 220.41,-12.64 230.11,-16.91 230.66,-9.94"/>
</g>
<!-- Node8 -->
<g id="node8" class="node">
<title>Node8</title>
<g id="a_node8"><a xlink:title=" ">
<polygon fill="white" stroke="#bfbfbf" points="570.5,-0.5 570.5,-19.5 633.5,-19.5 633.5,-0.5 570.5,-0.5"/>
<text text-anchor="middle" x="602" y="-7.5" font-family="Helvetica,sans-Serif" font-size="10.00">pthread.h</text>
</a>
</g>
</g>
<!-- Node7&#45;&gt;Node8 -->
<g id="edge8" class="edge">
<title>Node7&#45;&gt;Node8</title>
<path fill="none" stroke="midnightblue" d="M623.92,-112.76C666.03,-105.44 717.84,-93.23 731,-76 757.09,-41.84 690.4,-24.28 643.48,-16.41"/>
<polygon fill="midnightblue" stroke="midnightblue" points="643.94,-12.94 633.52,-14.83 642.85,-19.85 643.94,-12.94"/>
</g>
<!-- Node9 -->
<g id="node9" class="node">
<title>Node9</title>
<g id="a_node9"><a xlink:title=" ">
<polygon fill="white" stroke="#bfbfbf" points="674,-56.5 674,-75.5 722,-75.5 722,-56.5 674,-56.5"/>
<text text-anchor="middle" x="698" y="-63.5" font-family="Helvetica,sans-Serif" font-size="10.00">thread</text>
</a>
</g>
</g>
<!-- Node7&#45;&gt;Node9 -->
<g id="edge10" class="edge">
<title>Node7&#45;&gt;Node9</title>
<path fill="none" stroke="midnightblue" d="M586.92,-112.44C608.74,-103.52 643.15,-89.44 667.89,-79.32"/>
<polygon fill="midnightblue" stroke="midnightblue" points="669.25,-82.54 677.18,-75.52 666.6,-76.06 669.25,-82.54"/>
</g>
<!-- Node10 -->
<g id="node10" class="node">
<title>Node10</title>
<g id="a_node10"><a xlink:title=" ">
<polygon fill="white" stroke="#bfbfbf" points="544,-56.5 544,-75.5 588,-75.5 588,-56.5 544,-56.5"/>
<text text-anchor="middle" x="566" y="-63.5" font-family="Helvetica,sans-Serif" font-size="10.00">ctime</text>
</a>
</g>
</g>
<!-- Node7&#45;&gt;Node10 -->
<g id="edge11" class="edge">
<title>Node7&#45;&gt;Node10</title>
<path fill="none" stroke="midnightblue" d="M566,-112.08C566,-105.01 566,-94.86 566,-85.99"/>
<polygon fill="midnightblue" stroke="midnightblue" points="569.5,-85.75 566,-75.75 562.5,-85.75 569.5,-85.75"/>
</g>
<!-- Node11 -->
<g id="node11" class="node">
<title>Node11</title>
<g id="a_node11"><a xlink:href="Mutex_8hpp.html" target="_top" xlink:title="Définition de la classe Mutex.">
<polygon fill="white" stroke="black" points="420,-56.5 420,-75.5 488,-75.5 488,-56.5 420,-56.5"/>
<text text-anchor="middle" x="454" y="-63.5" font-family="Helvetica,sans-Serif" font-size="10.00">Mutex.hpp</text>
</a>
</g>
</g>
<!-- Node7&#45;&gt;Node11 -->
<g id="edge12" class="edge">
<title>Node7&#45;&gt;Node11</title>
<path fill="none" stroke="midnightblue" d="M548.01,-112.32C529.96,-103.62 501.95,-90.12 481.2,-80.11"/>
<polygon fill="midnightblue" stroke="midnightblue" points="482.48,-76.84 471.95,-75.65 479.44,-83.15 482.48,-76.84"/>
</g>
<!-- Node12 -->
<g id="node12" class="node">
<title>Node12</title>
<g id="a_node12"><a xlink:title=" ">
<polygon fill="white" stroke="#bfbfbf" points="606,-56.5 606,-75.5 656,-75.5 656,-56.5 606,-56.5"/>
<text text-anchor="middle" x="631" y="-63.5" font-family="Helvetica,sans-Serif" font-size="10.00">chrono</text>
</a>
</g>
</g>
<!-- Node7&#45;&gt;Node12 -->
<g id="edge14" class="edge">
<title>Node7&#45;&gt;Node12</title>
<path fill="none" stroke="midnightblue" d="M576.44,-112.32C586.15,-104.26 600.82,-92.08 612.5,-82.37"/>
<polygon fill="midnightblue" stroke="midnightblue" points="614.91,-84.92 620.37,-75.83 610.44,-79.53 614.91,-84.92"/>
</g>
<!-- Node11&#45;&gt;Node8 -->
<g id="edge13" class="edge">
<title>Node11&#45;&gt;Node8</title>
<path fill="none" stroke="midnightblue" d="M477.45,-56.44C502.13,-47.44 541.19,-33.19 568.98,-23.05"/>
<polygon fill="midnightblue" stroke="midnightblue" points="570.46,-26.23 578.66,-19.52 568.06,-19.66 570.46,-26.23"/>
</g>
<!-- Node13&#45;&gt;Node4 -->
<g id="edge17" class="edge">
<title>Node13&#45;&gt;Node4</title>
<path fill="none" stroke="midnightblue" d="M253.33,-112.46C242.21,-104.32 226.39,-91.11 217,-76 208.17,-61.8 203.29,-43.32 200.69,-29.7"/>
<polygon fill="midnightblue" stroke="midnightblue" points="204.11,-28.89 199.01,-19.6 197.2,-30.04 204.11,-28.89"/>
</g>
<!-- Node13&#45;&gt;Node11 -->
<g id="edge18" class="edge">
<title>Node13&#45;&gt;Node11</title>
<path fill="none" stroke="midnightblue" d="M295.79,-112.44C327.83,-103.24 378.93,-88.56 414.35,-78.39"/>
<polygon fill="midnightblue" stroke="midnightblue" points="415.71,-81.64 424.35,-75.52 413.77,-74.91 415.71,-81.64"/>
</g>
<!-- Node14 -->
<g id="node14" class="node">
<title>Node14</title>
<g id="a_node14"><a xlink:title=" ">
<polygon fill="white" stroke="#bfbfbf" points="308,-56.5 308,-75.5 364,-75.5 364,-56.5 308,-56.5"/>
<text text-anchor="middle" x="336" y="-63.5" font-family="Helvetica,sans-Serif" font-size="10.00">sstream</text>
</a>
</g>
</g>
<!-- Node13&#45;&gt;Node14 -->
<g id="edge16" class="edge">
<title>Node13&#45;&gt;Node14</title>
<path fill="none" stroke="midnightblue" d="M277.25,-112.32C287.8,-104.18 303.8,-91.84 316.44,-82.09"/>
<polygon fill="midnightblue" stroke="midnightblue" points="318.77,-84.71 324.55,-75.83 314.49,-79.17 318.77,-84.71"/>
</g>
<!-- Node15 -->
<g id="node15" class="node">
<title>Node15</title>
<g id="a_node15"><a xlink:href="Level_8hpp.html" target="_top" xlink:title="Définition de la classe Level.">
<polygon fill="white" stroke="black" points="226,-56.5 226,-75.5 290,-75.5 290,-56.5 226,-56.5"/>
<text text-anchor="middle" x="258" y="-63.5" font-family="Helvetica,sans-Serif" font-size="10.00">Level.hpp</text>
</a>
</g>
</g>
<!-- Node13&#45;&gt;Node15 -->
<g id="edge19" class="edge">
<title>Node13&#45;&gt;Node15</title>
<path fill="none" stroke="midnightblue" d="M264.68,-112.08C263.62,-104.93 262.09,-94.64 260.77,-85.69"/>
<polygon fill="midnightblue" stroke="midnightblue" points="264.22,-85.13 259.3,-75.75 257.3,-86.16 264.22,-85.13"/>
</g>
<!-- Node15&#45;&gt;Node4 -->
<g id="edge20" class="edge">
<title>Node15&#45;&gt;Node4</title>
<path fill="none" stroke="midnightblue" d="M248.36,-56.32C239.49,-48.34 226.13,-36.31 215.39,-26.65"/>
<polygon fill="midnightblue" stroke="midnightblue" points="217.59,-23.92 207.82,-19.83 212.91,-29.13 217.59,-23.92"/>
</g>
<!-- Node16&#45;&gt;Node4 -->
<g id="edge23" class="edge">
<title>Node16&#45;&gt;Node4</title>
<path fill="none" stroke="midnightblue" d="M106.66,-291.45C112.18,-269.02 122,-223.63 122,-184.5 122,-184.5 122,-184.5 122,-121 122,-81.28 155.96,-45.5 178.48,-26.15"/>
<polygon fill="midnightblue" stroke="midnightblue" points="180.98,-28.63 186.46,-19.57 176.52,-23.24 180.98,-28.63"/>
</g>
<!-- Node17 -->
<g id="node17" class="node">
<title>Node17</title>
<g id="a_node17"><a xlink:title=" ">
<polygon fill="white" stroke="#bfbfbf" points="28.5,-235.5 28.5,-254.5 93.5,-254.5 93.5,-235.5 28.5,-235.5"/>
<text text-anchor="middle" x="61" y="-242.5" font-family="Helvetica,sans-Serif" font-size="10.00">exception</text>
</a>
</g>
</g>
<!-- Node16&#45;&gt;Node17 -->
<g id="edge22" class="edge">
<title>Node16&#45;&gt;Node17</title>
<path fill="none" stroke="midnightblue" d="M93.05,-291.4C87.01,-282.84 79.26,-271.87 72.9,-262.86"/>
<polygon fill="midnightblue" stroke="midnightblue" points="75.74,-260.81 67.11,-254.66 70.02,-264.85 75.74,-260.81"/>
</g>
</g>
</svg>
        <g id="navigator" transform="translate(0 0)" fill="#404254">
                <rect fill="#f2f5e9" fill-opacity="0.5" stroke="#606060" stroke-width=".5" x="0" y="0" width="60" height="60"/>
                <use id="zoomplus" xlink:href="#zoomPlus" x="17" y="9" onmousedown="handleZoom(evt,'in')"/>
                <use id="zoomminus" xlink:href="#zoomMin" x="42" y="9" onmousedown="handleZoom(evt,'out')"/>
                <use id="reset" xlink:href="#resetDef" x="30" y="36" onmousedown="handleReset()"/>
                <g id="arrowUp" xlink:href="#dirArrow" transform="translate(30 24)" onmousedown="handlePan(0,-1)">
                  <use xlink:href="#rim" fill="#404040">
                        <set attributeName="fill" to="#808080" begin="arrowUp.mouseover" end="arrowUp.mouseout"/>
                  </use>
                  <path fill="none" stroke="white" stroke-width="1.5" d="M0,-3.0v7 M-2.5,-0.5L0,-3.0L2.5,-0.5"/>
                </g>
                <g id="arrowRight" xlink:href="#dirArrow" transform="rotate(90) translate(36 -43)" onmousedown="handlePan(1,0)">
                  <use xlink:href="#rim" fill="#404040">
                        <set attributeName="fill" to="#808080" begin="arrowRight.mouseover" end="arrowRight.mouseout"/>
                  </use>
                  <path fill="none" stroke="white" stroke-width="1.5" d="M0,-3.0v7 M-2.5,-0.5L0,-3.0L2.5,-0.5"/>
                </g>
                <g id="arrowDown" xlink:href="#dirArrow" transform="rotate(180) translate(-30 -48)" onmousedown="handlePan(0,1)">
                  <use xlink:href="#rim" fill="#404040">
                        <set attributeName="fill" to="#808080" begin="arrowDown.mouseover" end="arrowDown.mouseout"/>
                  </use>
                  <path fill="none" stroke="white" stroke-width="1.5" d="M0,-3.0v7 M-2.5,-0.5L0,-3.0L2.5,-0.5"/>
                </g>
                <g id="arrowLeft" xlink:href="#dirArrow" transform="rotate(270) translate(-36 17)" onmousedown="handlePan(-1,0)">
                  <use xlink:href="#rim" fill="#404040">
                        <set attributeName="fill" to="#808080" begin="arrowLeft.mouseover" end="arrowLeft.mouseout"/>
                  </use>
                  <path fill="none" stroke="white" stroke-width="1.5" d="M0,-3.0v7 M-2.5,-0.5L0,-3.0L2.5,-0.5"/>
                </g>
        </g>
        <svg viewBox="0 0 15 15" width="100%" height="30px" preserveAspectRatio="xMaxYMin meet">
         <g id="arrow_out" transform="scale(0.3 0.3)">
          <a xlink:href="ExceptionTest_8cpp__incl_org.svg" target="_base">
           <rect id="button" ry="5" rx="5" y="6" x="6" height="38" width="38"
                fill="#f2f5e9" fill-opacity="0.5" stroke="#606060" stroke-width="1.0"/>
           <path id="arrow"
             d="M 11.500037,31.436501 C 11.940474,20.09759 22.043105,11.32322 32.158766,21.979434 L 37.068811,17.246167 C 37.068811,17.246167 37.088388,32 37.088388,32 L 22.160133,31.978069 C 22.160133,31.978069 26.997745,27.140456 26.997745,27.140456 C 18.528582,18.264221 13.291696,25.230495 11.500037,31.436501 z"
             style="fill:#404040;"/>
          </a>
         </g>
        </svg>
</svg>
