<?xml version="1.0" encoding="UTF-8" standalone="no"?>
<!DOCTYPE svg PUBLIC "-//W3C//DTD SVG 1.1//EN"
 "http://www.w3.org/Graphics/SVG/1.1/DTD/svg11.dtd">
<!-- Generated by graphviz version 2.43.0 (0)
 -->
<!-- Title: src/driver&#45;arm/GpioPCA9555.hpp Pages: 1 -->
<svg width="372pt" height="84pt"
 viewBox="0.00 0.00 371.50 84.00" xmlns="http://www.w3.org/2000/svg" xmlns:xlink="http://www.w3.org/1999/xlink">
<g id="graph0" class="graph" transform="scale(1 1) rotate(0) translate(4 80)">
<title>src/driver&#45;arm/GpioPCA9555.hpp</title>
<polygon fill="white" stroke="transparent" points="-4,4 -4,-80 367.5,-80 367.5,4 -4,4"/>
<!-- Node1 -->
<g id="node1" class="node">
<title>Node1</title>
<g id="a_node1"><a xlink:title="Driver I2C pour le GPIO expander PCA9555.">
<polygon fill="#bfbfbf" stroke="black" points="94.5,-56.5 94.5,-75.5 270.5,-75.5 270.5,-56.5 94.5,-56.5"/>
<text text-anchor="middle" x="182.5" y="-63.5" font-family="Helvetica,sans-Serif" font-size="10.00">src/driver&#45;arm/GpioPCA9555.hpp</text>
</a>
</g>
</g>
<!-- Node2 -->
<g id="node2" class="node">
<title>Node2</title>
<g id="a_node2"><a xlink:href="GpioPCA9555_8cpp.html" target="_top" xlink:title="Implementation du driver I2C PCA9555.">
<polygon fill="white" stroke="black" points="0,-0.5 0,-19.5 175,-19.5 175,-0.5 0,-0.5"/>
<text text-anchor="middle" x="87.5" y="-7.5" font-family="Helvetica,sans-Serif" font-size="10.00">src/driver&#45;arm/GpioPCA9555.cpp</text>
</a>
</g>
</g>
<!-- Node1&#45;&gt;Node2 -->
<g id="edge1" class="edge">
<title>Node1&#45;&gt;Node2</title>
<path fill="none" stroke="midnightblue" d="M158.18,-51.18C140.7,-41.24 117.67,-28.15 102.73,-19.65"/>
<polygon fill="midnightblue" stroke="midnightblue" points="156.81,-54.43 167.24,-56.32 160.27,-48.34 156.81,-54.43"/>
</g>
<!-- Node3 -->
<g id="node3" class="node">
<title>Node3</title>
<g id="a_node3"><a xlink:href="driver-arm_2SwitchDriver_8cpp.html" target="_top" xlink:title="Implementation ARM du driver de switchs pour l&#39;OPOS6UL.">
<polygon fill="white" stroke="black" points="193.5,-0.5 193.5,-19.5 363.5,-19.5 363.5,-0.5 193.5,-0.5"/>
<text text-anchor="middle" x="278.5" y="-7.5" font-family="Helvetica,sans-Serif" font-size="10.00">src/driver&#45;arm/SwitchDriver.cpp</text>
</a>
</g>
</g>
<!-- Node1&#45;&gt;Node3 -->
<g id="edge2" class="edge">
<title>Node1&#45;&gt;Node3</title>
<path fill="none" stroke="midnightblue" d="M207.07,-51.18C224.74,-41.24 248.01,-28.15 263.11,-19.65"/>
<polygon fill="midnightblue" stroke="midnightblue" points="204.92,-48.37 197.92,-56.32 208.36,-54.47 204.92,-48.37"/>
</g>
</g>
</svg>
