<?xml version="1.0" encoding="UTF-8" standalone="no"?>
<!DOCTYPE svg PUBLIC "-//W3C//DTD SVG 1.1//EN"
 "http://www.w3.org/Graphics/SVG/1.1/DTD/svg11.dtd">
<!-- Generated by graphviz version 2.43.0 (0)
 -->
<!-- Title: src/common/HardwareConfig.hpp Pages: 1 -->
<!--zoomable 252 -->
<svg id="main" version="1.1" xmlns="http://www.w3.org/2000/svg" xmlns:xlink="http://www.w3.org/1999/xlink" xml:space="preserve" onload="init(evt)">
<style type="text/css"><![CDATA[
.edge:hover path { stroke: red; }
.edge:hover polygon { stroke: red; fill: red; }
]]></style>
<script type="text/javascript"><![CDATA[
var edges = document.getElementsByTagName('g');
if (edges && edges.length) {
  for (var i=0;i<edges.length;i++) {
    if (edges[i].id.substr(0,4)=='edge') {
      edges[i].setAttribute('class','edge');
    }
  }
}
]]></script>
        <defs>
                <circle id="rim" cx="0" cy="0" r="7"/>
                <circle id="rim2" cx="0" cy="0" r="3.5"/>
                <g id="zoomPlus">
                        <use xlink:href="#rim" fill="#404040">
                                <set attributeName="fill" to="#808080" begin="zoomplus.mouseover" end="zoomplus.mouseout"/>
                        </use>
                        <path d="M-4,0h8M0,-4v8" fill="none" stroke="white" stroke-width="1.5" pointer-events="none"/>
                </g>
                <g id="zoomMin">
                        <use xlink:href="#rim" fill="#404040">
                                <set attributeName="fill" to="#808080" begin="zoomminus.mouseover" end="zoomminus.mouseout"/>
                        </use>
                        <path d="M-4,0h8" fill="none" stroke="white" stroke-width="1.5" pointer-events="none"/>
                </g>
                <g id="dirArrow">
                        <path fill="none" stroke="white" stroke-width="1.5" d="M0,-3.0v7 M-2.5,-0.5L0,-3.0L2.5,-0.5"/>
                </g>
               <g id="resetDef">
                       <use xlink:href="#rim2" fill="#404040">
                               <set attributeName="fill" to="#808080" begin="reset.mouseover" end="reset.mouseout"/>
                       </use>
               </g>
        </defs>

<script type="text/javascript">
var viewWidth = 689;
var viewHeight = 252;
var sectionId = 'dynsection-0';
</script>
<script xlink:href="svgpan.js"/>
<svg id="graph" class="graph">
<g id="viewport">
<title>src/common/HardwareConfig.hpp</title>
<polygon fill="white" stroke="transparent" points="-4,4 -4,-248 684.72,-248 684.72,4 -4,4"/>
<!-- Node1 -->
<g id="node1" class="node">
<title>Node1</title>
<g id="a_node1"><a xlink:title="Configuration dynamique des drivers hardware.">
<polygon fill="#bfbfbf" stroke="black" points="0,-224.5 0,-243.5 179,-243.5 179,-224.5 0,-224.5"/>
<text text-anchor="middle" x="89.5" y="-231.5" font-family="Helvetica,sans-Serif" font-size="10.00">src/common/HardwareConfig.hpp</text>
</a>
</g>
</g>
<!-- Node2 -->
<g id="node2" class="node">
<title>Node2</title>
<g id="a_node2"><a xlink:title=" ">
<polygon fill="white" stroke="#bfbfbf" points="75.5,-112.5 75.5,-131.5 113.5,-131.5 113.5,-112.5 75.5,-112.5"/>
<text text-anchor="middle" x="94.5" y="-119.5" font-family="Helvetica,sans-Serif" font-size="10.00">map</text>
</a>
</g>
</g>
<!-- Node1&#45;&gt;Node2 -->
<g id="edge1" class="edge">
<title>Node1&#45;&gt;Node2</title>
<path fill="none" stroke="midnightblue" d="M89.89,-224.37C90.7,-206.62 92.56,-165.67 93.65,-141.6"/>
<polygon fill="midnightblue" stroke="midnightblue" points="97.15,-141.74 94.11,-131.59 90.16,-141.42 97.15,-141.74"/>
</g>
<!-- Node3 -->
<g id="node3" class="node">
<title>Node3</title>
<g id="a_node3"><a xlink:title=" ">
<polygon fill="white" stroke="#bfbfbf" points="179.5,-0.5 179.5,-19.5 223.5,-19.5 223.5,-0.5 179.5,-0.5"/>
<text text-anchor="middle" x="201.5" y="-7.5" font-family="Helvetica,sans-Serif" font-size="10.00">string</text>
</a>
</g>
</g>
<!-- Node1&#45;&gt;Node3 -->
<g id="edge2" class="edge">
<title>Node1&#45;&gt;Node3</title>
<path fill="none" stroke="midnightblue" d="M84.28,-224.28C72.66,-203.63 47.16,-150.62 66.5,-112 88.15,-68.76 138.07,-39.27 170.76,-23.79"/>
<polygon fill="midnightblue" stroke="midnightblue" points="172.26,-26.95 179.9,-19.61 169.35,-20.59 172.26,-26.95"/>
</g>
<!-- Node4 -->
<g id="node4" class="node">
<title>Node4</title>
<g id="a_node4"><a xlink:href="LoggerFactory_8hpp.html" target="_top" xlink:title="Définition de la classe LoggerFactory.">
<polygon fill="white" stroke="black" points="117.5,-168.5 117.5,-187.5 239.5,-187.5 239.5,-168.5 117.5,-168.5"/>
<text text-anchor="middle" x="178.5" y="-175.5" font-family="Helvetica,sans-Serif" font-size="10.00">log/LoggerFactory.hpp</text>
</a>
</g>
</g>
<!-- Node1&#45;&gt;Node4 -->
<g id="edge3" class="edge">
<title>Node1&#45;&gt;Node4</title>
<path fill="none" stroke="midnightblue" d="M103.8,-224.32C117.68,-215.9 138.99,-202.97 155.3,-193.07"/>
<polygon fill="midnightblue" stroke="midnightblue" points="157.5,-195.83 164.24,-187.65 153.87,-189.85 157.5,-195.83"/>
</g>
<!-- Node4&#45;&gt;Node2 -->
<g id="edge4" class="edge">
<title>Node4&#45;&gt;Node2</title>
<path fill="none" stroke="midnightblue" d="M165,-168.32C151.9,-159.9 131.79,-146.97 116.39,-137.07"/>
<polygon fill="midnightblue" stroke="midnightblue" points="118.27,-134.12 107.96,-131.65 114.48,-140.01 118.27,-134.12"/>
</g>
<!-- Node4&#45;&gt;Node3 -->
<g id="edge5" class="edge">
<title>Node4&#45;&gt;Node3</title>
<path fill="none" stroke="midnightblue" d="M174.37,-168.46C165.17,-148.21 145.01,-96.01 160.5,-56 164.95,-44.5 173.87,-34.13 182.25,-26.25"/>
<polygon fill="midnightblue" stroke="midnightblue" points="184.74,-28.73 189.96,-19.51 180.13,-23.46 184.74,-28.73"/>
</g>
<!-- Node5 -->
<g id="node5" class="node">
<title>Node5</title>
<g id="a_node5"><a xlink:href="Thread_8hpp.html" target="_top" xlink:title="Définition de la classe Thread.">
<polygon fill="white" stroke="black" points="454,-112.5 454,-131.5 569,-131.5 569,-112.5 454,-112.5"/>
<text text-anchor="middle" x="511.5" y="-119.5" font-family="Helvetica,sans-Serif" font-size="10.00">../thread/Thread.hpp</text>
</a>
</g>
</g>
<!-- Node4&#45;&gt;Node5 -->
<g id="edge6" class="edge">
<title>Node4&#45;&gt;Node5</title>
<path fill="none" stroke="midnightblue" d="M231.26,-168.44C290.33,-158.87 385.97,-143.36 448.81,-133.17"/>
<polygon fill="midnightblue" stroke="midnightblue" points="449.67,-136.57 458.98,-131.52 448.55,-129.66 449.67,-136.57"/>
</g>
<!-- Node11 -->
<g id="node11" class="node">
<title>Node11</title>
<g id="a_node11"><a xlink:href="Logger_8hpp.html" target="_top" xlink:title="Définition de la classe Logger.">
<polygon fill="white" stroke="black" points="244.5,-112.5 244.5,-131.5 314.5,-131.5 314.5,-112.5 244.5,-112.5"/>
<text text-anchor="middle" x="279.5" y="-119.5" font-family="Helvetica,sans-Serif" font-size="10.00">Logger.hpp</text>
</a>
</g>
</g>
<!-- Node4&#45;&gt;Node11 -->
<g id="edge14" class="edge">
<title>Node4&#45;&gt;Node11</title>
<path fill="none" stroke="midnightblue" d="M194.73,-168.32C210.85,-159.7 235.8,-146.36 254.46,-136.39"/>
<polygon fill="midnightblue" stroke="midnightblue" points="256.14,-139.46 263.31,-131.65 252.84,-133.28 256.14,-139.46"/>
</g>
<!-- Node5&#45;&gt;Node3 -->
<g id="edge8" class="edge">
<title>Node5&#45;&gt;Node3</title>
<path fill="none" stroke="midnightblue" d="M504.71,-112.2C493.18,-97.92 468.3,-69.9 440.5,-56 372.21,-21.85 281.15,-13.49 233.56,-11.53"/>
<polygon fill="midnightblue" stroke="midnightblue" points="233.65,-8.03 223.54,-11.18 233.41,-15.03 233.65,-8.03"/>
</g>
<!-- Node6 -->
<g id="node6" class="node">
<title>Node6</title>
<g id="a_node6"><a xlink:title=" ">
<polygon fill="white" stroke="#bfbfbf" points="514,-0.5 514,-19.5 577,-19.5 577,-0.5 514,-0.5"/>
<text text-anchor="middle" x="545.5" y="-7.5" font-family="Helvetica,sans-Serif" font-size="10.00">pthread.h</text>
</a>
</g>
</g>
<!-- Node5&#45;&gt;Node6 -->
<g id="edge7" class="edge">
<title>Node5&#45;&gt;Node6</title>
<path fill="none" stroke="midnightblue" d="M569.16,-112.58C610.68,-105.21 661.56,-92.99 674.5,-76 700.54,-41.8 633.87,-24.25 586.97,-16.4"/>
<polygon fill="midnightblue" stroke="midnightblue" points="587.43,-12.93 577.01,-14.82 586.34,-19.84 587.43,-12.93"/>
</g>
<!-- Node7 -->
<g id="node7" class="node">
<title>Node7</title>
<g id="a_node7"><a xlink:title=" ">
<polygon fill="white" stroke="#bfbfbf" points="487.5,-56.5 487.5,-75.5 535.5,-75.5 535.5,-56.5 487.5,-56.5"/>
<text text-anchor="middle" x="511.5" y="-63.5" font-family="Helvetica,sans-Serif" font-size="10.00">thread</text>
</a>
</g>
</g>
<!-- Node5&#45;&gt;Node7 -->
<g id="edge9" class="edge">
<title>Node5&#45;&gt;Node7</title>
<path fill="none" stroke="midnightblue" d="M511.5,-112.08C511.5,-105.01 511.5,-94.86 511.5,-85.99"/>
<polygon fill="midnightblue" stroke="midnightblue" points="515,-85.75 511.5,-75.75 508,-85.75 515,-85.75"/>
</g>
<!-- Node8 -->
<g id="node8" class="node">
<title>Node8</title>
<g id="a_node8"><a xlink:title=" ">
<polygon fill="white" stroke="#bfbfbf" points="553.5,-56.5 553.5,-75.5 597.5,-75.5 597.5,-56.5 553.5,-56.5"/>
<text text-anchor="middle" x="575.5" y="-63.5" font-family="Helvetica,sans-Serif" font-size="10.00">ctime</text>
</a>
</g>
</g>
<!-- Node5&#45;&gt;Node8 -->
<g id="edge10" class="edge">
<title>Node5&#45;&gt;Node8</title>
<path fill="none" stroke="midnightblue" d="M521.78,-112.32C531.34,-104.26 545.78,-92.08 557.28,-82.37"/>
<polygon fill="midnightblue" stroke="midnightblue" points="559.64,-84.96 565.03,-75.83 555.13,-79.61 559.64,-84.96"/>
</g>
<!-- Node9 -->
<g id="node9" class="node">
<title>Node9</title>
<g id="a_node9"><a xlink:href="Mutex_8hpp.html" target="_top" xlink:title="Définition de la classe Mutex.">
<polygon fill="white" stroke="black" points="363.5,-56.5 363.5,-75.5 431.5,-75.5 431.5,-56.5 363.5,-56.5"/>
<text text-anchor="middle" x="397.5" y="-63.5" font-family="Helvetica,sans-Serif" font-size="10.00">Mutex.hpp</text>
</a>
</g>
</g>
<!-- Node5&#45;&gt;Node9 -->
<g id="edge11" class="edge">
<title>Node5&#45;&gt;Node9</title>
<path fill="none" stroke="midnightblue" d="M493.44,-112.44C474.93,-103.68 445.92,-89.94 424.64,-79.86"/>
<polygon fill="midnightblue" stroke="midnightblue" points="426.01,-76.63 415.48,-75.52 423.02,-82.96 426.01,-76.63"/>
</g>
<!-- Node10 -->
<g id="node10" class="node">
<title>Node10</title>
<g id="a_node10"><a xlink:title=" ">
<polygon fill="white" stroke="#bfbfbf" points="615.5,-56.5 615.5,-75.5 665.5,-75.5 665.5,-56.5 615.5,-56.5"/>
<text text-anchor="middle" x="640.5" y="-63.5" font-family="Helvetica,sans-Serif" font-size="10.00">chrono</text>
</a>
</g>
</g>
<!-- Node5&#45;&gt;Node10 -->
<g id="edge13" class="edge">
<title>Node5&#45;&gt;Node10</title>
<path fill="none" stroke="midnightblue" d="M531.94,-112.44C553.17,-103.56 586.6,-89.56 610.75,-79.45"/>
<polygon fill="midnightblue" stroke="midnightblue" points="612.28,-82.61 620.16,-75.52 609.58,-76.15 612.28,-82.61"/>
</g>
<!-- Node9&#45;&gt;Node6 -->
<g id="edge12" class="edge">
<title>Node9&#45;&gt;Node6</title>
<path fill="none" stroke="midnightblue" d="M420.95,-56.44C445.63,-47.44 484.69,-33.19 512.48,-23.05"/>
<polygon fill="midnightblue" stroke="midnightblue" points="513.96,-26.23 522.16,-19.52 511.56,-19.66 513.96,-26.23"/>
</g>
<!-- Node11&#45;&gt;Node3 -->
<g id="edge16" class="edge">
<title>Node11&#45;&gt;Node3</title>
<path fill="none" stroke="midnightblue" d="M290.83,-112.32C306.03,-99.6 329.68,-75.3 316.5,-56 298.15,-29.11 261.11,-18.29 234.01,-13.93"/>
<polygon fill="midnightblue" stroke="midnightblue" points="234.19,-10.43 223.8,-12.52 233.23,-17.36 234.19,-10.43"/>
</g>
<!-- Node11&#45;&gt;Node9 -->
<g id="edge17" class="edge">
<title>Node11&#45;&gt;Node9</title>
<path fill="none" stroke="midnightblue" d="M298.2,-112.44C317.44,-103.64 347.65,-89.81 369.7,-79.72"/>
<polygon fill="midnightblue" stroke="midnightblue" points="371.25,-82.86 378.89,-75.52 368.34,-76.5 371.25,-82.86"/>
</g>
<!-- Node12 -->
<g id="node12" class="node">
<title>Node12</title>
<g id="a_node12"><a xlink:title=" ">
<polygon fill="white" stroke="#bfbfbf" points="251.5,-56.5 251.5,-75.5 307.5,-75.5 307.5,-56.5 251.5,-56.5"/>
<text text-anchor="middle" x="279.5" y="-63.5" font-family="Helvetica,sans-Serif" font-size="10.00">sstream</text>
</a>
</g>
</g>
<!-- Node11&#45;&gt;Node12 -->
<g id="edge15" class="edge">
<title>Node11&#45;&gt;Node12</title>
<path fill="none" stroke="midnightblue" d="M279.5,-112.08C279.5,-105.01 279.5,-94.86 279.5,-85.99"/>
<polygon fill="midnightblue" stroke="midnightblue" points="283,-85.75 279.5,-75.75 276,-85.75 283,-85.75"/>
</g>
<!-- Node13 -->
<g id="node13" class="node">
<title>Node13</title>
<g id="a_node13"><a xlink:href="Level_8hpp.html" target="_top" xlink:title="Définition de la classe Level.">
<polygon fill="white" stroke="black" points="169.5,-56.5 169.5,-75.5 233.5,-75.5 233.5,-56.5 169.5,-56.5"/>
<text text-anchor="middle" x="201.5" y="-63.5" font-family="Helvetica,sans-Serif" font-size="10.00">Level.hpp</text>
</a>
</g>
</g>
<!-- Node11&#45;&gt;Node13 -->
<g id="edge18" class="edge">
<title>Node11&#45;&gt;Node13</title>
<path fill="none" stroke="midnightblue" d="M266.97,-112.32C254.91,-103.98 236.47,-91.21 222.23,-81.35"/>
<polygon fill="midnightblue" stroke="midnightblue" points="224.22,-78.47 214,-75.65 220.23,-84.22 224.22,-78.47"/>
</g>
<!-- Node13&#45;&gt;Node3 -->
<g id="edge19" class="edge">
<title>Node13&#45;&gt;Node3</title>
<path fill="none" stroke="midnightblue" d="M201.5,-56.08C201.5,-49.01 201.5,-38.86 201.5,-29.99"/>
<polygon fill="midnightblue" stroke="midnightblue" points="205,-29.75 201.5,-19.75 198,-29.75 205,-29.75"/>
</g>
</g>
</svg>
        <g id="navigator" transform="translate(0 0)" fill="#404254">
                <rect fill="#f2f5e9" fill-opacity="0.5" stroke="#606060" stroke-width=".5" x="0" y="0" width="60" height="60"/>
                <use id="zoomplus" xlink:href="#zoomPlus" x="17" y="9" onmousedown="handleZoom(evt,'in')"/>
                <use id="zoomminus" xlink:href="#zoomMin" x="42" y="9" onmousedown="handleZoom(evt,'out')"/>
                <use id="reset" xlink:href="#resetDef" x="30" y="36" onmousedown="handleReset()"/>
                <g id="arrowUp" xlink:href="#dirArrow" transform="translate(30 24)" onmousedown="handlePan(0,-1)">
                  <use xlink:href="#rim" fill="#404040">
                        <set attributeName="fill" to="#808080" begin="arrowUp.mouseover" end="arrowUp.mouseout"/>
                  </use>
                  <path fill="none" stroke="white" stroke-width="1.5" d="M0,-3.0v7 M-2.5,-0.5L0,-3.0L2.5,-0.5"/>
                </g>
                <g id="arrowRight" xlink:href="#dirArrow" transform="rotate(90) translate(36 -43)" onmousedown="handlePan(1,0)">
                  <use xlink:href="#rim" fill="#404040">
                        <set attributeName="fill" to="#808080" begin="arrowRight.mouseover" end="arrowRight.mouseout"/>
                  </use>
                  <path fill="none" stroke="white" stroke-width="1.5" d="M0,-3.0v7 M-2.5,-0.5L0,-3.0L2.5,-0.5"/>
                </g>
                <g id="arrowDown" xlink:href="#dirArrow" transform="rotate(180) translate(-30 -48)" onmousedown="handlePan(0,1)">
                  <use xlink:href="#rim" fill="#404040">
                        <set attributeName="fill" to="#808080" begin="arrowDown.mouseover" end="arrowDown.mouseout"/>
                  </use>
                  <path fill="none" stroke="white" stroke-width="1.5" d="M0,-3.0v7 M-2.5,-0.5L0,-3.0L2.5,-0.5"/>
                </g>
                <g id="arrowLeft" xlink:href="#dirArrow" transform="rotate(270) translate(-36 17)" onmousedown="handlePan(-1,0)">
                  <use xlink:href="#rim" fill="#404040">
                        <set attributeName="fill" to="#808080" begin="arrowLeft.mouseover" end="arrowLeft.mouseout"/>
                  </use>
                  <path fill="none" stroke="white" stroke-width="1.5" d="M0,-3.0v7 M-2.5,-0.5L0,-3.0L2.5,-0.5"/>
                </g>
        </g>
        <svg viewBox="0 0 15 15" width="100%" height="30px" preserveAspectRatio="xMaxYMin meet">
         <g id="arrow_out" transform="scale(0.3 0.3)">
          <a xlink:href="HardwareConfig_8hpp__incl_org.svg" target="_base">
           <rect id="button" ry="5" rx="5" y="6" x="6" height="38" width="38"
                fill="#f2f5e9" fill-opacity="0.5" stroke="#606060" stroke-width="1.0"/>
           <path id="arrow"
             d="M 11.500037,31.436501 C 11.940474,20.09759 22.043105,11.32322 32.158766,21.979434 L 37.068811,17.246167 C 37.068811,17.246167 37.088388,32 37.088388,32 L 22.160133,31.978069 C 22.160133,31.978069 26.997745,27.140456 26.997745,27.140456 C 18.528582,18.264221 13.291696,25.230495 11.500037,31.436501 z"
             style="fill:#404040;"/>
          </a>
         </g>
        </svg>
</svg>
