<?xml version="1.0" encoding="UTF-8" standalone="no"?>
<!DOCTYPE svg PUBLIC "-//W3C//DTD SVG 1.1//EN"
 "http://www.w3.org/Graphics/SVG/1.1/DTD/svg11.dtd">
<!-- Generated by graphviz version 2.43.0 (0)
 -->
<!-- Title: src/common/HardwareConfig.cpp Pages: 1 -->
<svg width="674pt" height="308pt"
 viewBox="0.00 0.00 674.00 308.00" xmlns="http://www.w3.org/2000/svg" xmlns:xlink="http://www.w3.org/1999/xlink">
<g id="graph0" class="graph" transform="scale(1 1) rotate(0) translate(4 304)">
<title>src/common/HardwareConfig.cpp</title>
<polygon fill="white" stroke="transparent" points="-4,4 -4,-304 670,-304 670,4 -4,4"/>
<!-- Node1 -->
<g id="node1" class="node">
<title>Node1</title>
<g id="a_node1"><a xlink:title="Implementation de HardwareConfig.">
<polygon fill="#bfbfbf" stroke="black" points="183,-280.5 183,-299.5 361,-299.5 361,-280.5 183,-280.5"/>
<text text-anchor="middle" x="272" y="-287.5" font-family="Helvetica,sans-Serif" font-size="10.00">src/common/HardwareConfig.cpp</text>
</a>
</g>
</g>
<!-- Node2 -->
<g id="node2" class="node">
<title>Node2</title>
<g id="a_node2"><a xlink:href="HardwareConfig_8hpp.html" target="_top" xlink:title="Configuration dynamique des drivers hardware.">
<polygon fill="white" stroke="black" points="53,-224.5 53,-243.5 169,-243.5 169,-224.5 53,-224.5"/>
<text text-anchor="middle" x="111" y="-231.5" font-family="Helvetica,sans-Serif" font-size="10.00">HardwareConfig.hpp</text>
</a>
</g>
</g>
<!-- Node1&#45;&gt;Node2 -->
<g id="edge1" class="edge">
<title>Node1&#45;&gt;Node2</title>
<path fill="none" stroke="midnightblue" d="M246.49,-280.44C219.4,-271.36 176.41,-256.94 146.13,-246.78"/>
<polygon fill="midnightblue" stroke="midnightblue" points="146.99,-243.38 136.39,-243.52 144.76,-250.01 146.99,-243.38"/>
</g>
<!-- Node12 -->
<g id="node12" class="node">
<title>Node12</title>
<g id="a_node12"><a xlink:href="Logger_8hpp.html" target="_top" xlink:title="Définition de la classe Logger.">
<polygon fill="white" stroke="black" points="188,-112.5 188,-131.5 258,-131.5 258,-112.5 188,-112.5"/>
<text text-anchor="middle" x="223" y="-119.5" font-family="Helvetica,sans-Serif" font-size="10.00">Logger.hpp</text>
</a>
</g>
</g>
<!-- Node1&#45;&gt;Node12 -->
<g id="edge23" class="edge">
<title>Node1&#45;&gt;Node12</title>
<path fill="none" stroke="midnightblue" d="M269.37,-280.08C261.65,-253.95 239,-177.21 228.48,-141.58"/>
<polygon fill="midnightblue" stroke="midnightblue" points="231.72,-140.17 225.53,-131.57 225,-142.15 231.72,-140.17"/>
</g>
<!-- Node15 -->
<g id="node15" class="node">
<title>Node15</title>
<g id="a_node15"><a xlink:title=" ">
<polygon fill="white" stroke="#bfbfbf" points="272.5,-224.5 272.5,-243.5 327.5,-243.5 327.5,-224.5 272.5,-224.5"/>
<text text-anchor="middle" x="300" y="-231.5" font-family="Helvetica,sans-Serif" font-size="10.00">fstream</text>
</a>
</g>
</g>
<!-- Node1&#45;&gt;Node15 -->
<g id="edge21" class="edge">
<title>Node1&#45;&gt;Node15</title>
<path fill="none" stroke="midnightblue" d="M276.62,-280.08C280.46,-272.69 286.02,-261.95 290.76,-252.81"/>
<polygon fill="midnightblue" stroke="midnightblue" points="293.97,-254.24 295.46,-243.75 287.75,-251.02 293.97,-254.24"/>
</g>
<!-- Node16 -->
<g id="node16" class="node">
<title>Node16</title>
<g id="a_node16"><a xlink:title=" ">
<polygon fill="white" stroke="#bfbfbf" points="346,-224.5 346,-243.5 410,-243.5 410,-224.5 346,-224.5"/>
<text text-anchor="middle" x="378" y="-231.5" font-family="Helvetica,sans-Serif" font-size="10.00">algorithm</text>
</a>
</g>
</g>
<!-- Node1&#45;&gt;Node16 -->
<g id="edge22" class="edge">
<title>Node1&#45;&gt;Node16</title>
<path fill="none" stroke="midnightblue" d="M289.03,-280.32C306.03,-271.66 332.38,-258.24 351.99,-248.25"/>
<polygon fill="midnightblue" stroke="midnightblue" points="353.69,-251.31 361.01,-243.65 350.51,-245.08 353.69,-251.31"/>
</g>
<!-- Node3 -->
<g id="node3" class="node">
<title>Node3</title>
<g id="a_node3"><a xlink:title=" ">
<polygon fill="white" stroke="#bfbfbf" points="0,-112.5 0,-131.5 38,-131.5 38,-112.5 0,-112.5"/>
<text text-anchor="middle" x="19" y="-119.5" font-family="Helvetica,sans-Serif" font-size="10.00">map</text>
</a>
</g>
</g>
<!-- Node2&#45;&gt;Node3 -->
<g id="edge2" class="edge">
<title>Node2&#45;&gt;Node3</title>
<path fill="none" stroke="midnightblue" d="M96.16,-224.36C83.23,-216.26 64.61,-203.14 52,-188 40.25,-173.9 31.22,-154.91 25.6,-141.1"/>
<polygon fill="midnightblue" stroke="midnightblue" points="28.85,-139.79 21.98,-131.72 22.32,-142.31 28.85,-139.79"/>
</g>
<!-- Node4 -->
<g id="node4" class="node">
<title>Node4</title>
<g id="a_node4"><a xlink:title=" ">
<polygon fill="white" stroke="#bfbfbf" points="120,-0.5 120,-19.5 164,-19.5 164,-0.5 120,-0.5"/>
<text text-anchor="middle" x="142" y="-7.5" font-family="Helvetica,sans-Serif" font-size="10.00">string</text>
</a>
</g>
</g>
<!-- Node2&#45;&gt;Node4 -->
<g id="edge3" class="edge">
<title>Node2&#45;&gt;Node4</title>
<path fill="none" stroke="midnightblue" d="M104.11,-224.32C97.73,-215.68 88.69,-201.77 85,-188 82.7,-179.41 83.46,-176.75 85,-168 94.26,-115.35 119.75,-57.11 133.28,-28.63"/>
<polygon fill="midnightblue" stroke="midnightblue" points="136.47,-30.08 137.68,-19.56 130.17,-27.03 136.47,-30.08"/>
</g>
<!-- Node5 -->
<g id="node5" class="node">
<title>Node5</title>
<g id="a_node5"><a xlink:href="LoggerFactory_8hpp.html" target="_top" xlink:title="Définition de la classe LoggerFactory.">
<polygon fill="white" stroke="black" points="94,-168.5 94,-187.5 216,-187.5 216,-168.5 94,-168.5"/>
<text text-anchor="middle" x="155" y="-175.5" font-family="Helvetica,sans-Serif" font-size="10.00">log/LoggerFactory.hpp</text>
</a>
</g>
</g>
<!-- Node2&#45;&gt;Node5 -->
<g id="edge4" class="edge">
<title>Node2&#45;&gt;Node5</title>
<path fill="none" stroke="midnightblue" d="M118.27,-224.08C124.54,-216.38 133.79,-205.03 141.43,-195.65"/>
<polygon fill="midnightblue" stroke="midnightblue" points="144.27,-197.71 147.87,-187.75 138.84,-193.29 144.27,-197.71"/>
</g>
<!-- Node5&#45;&gt;Node3 -->
<g id="edge5" class="edge">
<title>Node5&#45;&gt;Node3</title>
<path fill="none" stroke="midnightblue" d="M133.45,-168.44C110.31,-159.25 73.42,-144.61 47.8,-134.43"/>
<polygon fill="midnightblue" stroke="midnightblue" points="48.84,-131.08 38.25,-130.64 46.25,-137.59 48.84,-131.08"/>
</g>
<!-- Node5&#45;&gt;Node4 -->
<g id="edge6" class="edge">
<title>Node5&#45;&gt;Node4</title>
<path fill="none" stroke="midnightblue" d="M154.3,-168.08C152.25,-141.95 146.25,-65.21 143.45,-29.58"/>
<polygon fill="midnightblue" stroke="midnightblue" points="146.94,-29.26 142.67,-19.57 139.96,-29.81 146.94,-29.26"/>
</g>
<!-- Node6 -->
<g id="node6" class="node">
<title>Node6</title>
<g id="a_node6"><a xlink:href="Thread_8hpp.html" target="_top" xlink:title="Définition de la classe Thread.">
<polygon fill="white" stroke="black" points="402.5,-112.5 402.5,-131.5 517.5,-131.5 517.5,-112.5 402.5,-112.5"/>
<text text-anchor="middle" x="460" y="-119.5" font-family="Helvetica,sans-Serif" font-size="10.00">../thread/Thread.hpp</text>
</a>
</g>
</g>
<!-- Node5&#45;&gt;Node6 -->
<g id="edge7" class="edge">
<title>Node5&#45;&gt;Node6</title>
<path fill="none" stroke="midnightblue" d="M203.33,-168.44C257.2,-158.9 344.31,-143.48 401.86,-133.29"/>
<polygon fill="midnightblue" stroke="midnightblue" points="402.66,-136.71 411.9,-131.52 401.44,-129.81 402.66,-136.71"/>
</g>
<!-- Node5&#45;&gt;Node12 -->
<g id="edge15" class="edge">
<title>Node5&#45;&gt;Node12</title>
<path fill="none" stroke="midnightblue" d="M165.93,-168.32C176.17,-160.18 191.72,-147.84 204,-138.09"/>
<polygon fill="midnightblue" stroke="midnightblue" points="206.22,-140.79 211.88,-131.83 201.87,-135.31 206.22,-140.79"/>
</g>
<!-- Node6&#45;&gt;Node4 -->
<g id="edge9" class="edge">
<title>Node6&#45;&gt;Node4</title>
<path fill="none" stroke="midnightblue" d="M438.46,-112.36C417.08,-103.64 383.47,-89.57 355,-76 337.77,-67.79 334.81,-62.87 317,-56 268.52,-37.3 209.51,-23.96 173.89,-16.87"/>
<polygon fill="midnightblue" stroke="midnightblue" points="174.55,-13.43 164.06,-14.96 173.21,-20.3 174.55,-13.43"/>
</g>
<!-- Node7 -->
<g id="node7" class="node">
<title>Node7</title>
<g id="a_node7"><a xlink:title=" ">
<polygon fill="white" stroke="#bfbfbf" points="397.5,-0.5 397.5,-19.5 460.5,-19.5 460.5,-0.5 397.5,-0.5"/>
<text text-anchor="middle" x="429" y="-7.5" font-family="Helvetica,sans-Serif" font-size="10.00">pthread.h</text>
</a>
</g>
</g>
<!-- Node6&#45;&gt;Node7 -->
<g id="edge8" class="edge">
<title>Node6&#45;&gt;Node7</title>
<path fill="none" stroke="midnightblue" d="M457.57,-112.37C452.54,-94.54 440.92,-53.3 434.15,-29.27"/>
<polygon fill="midnightblue" stroke="midnightblue" points="437.5,-28.27 431.42,-19.59 430.77,-30.17 437.5,-28.27"/>
</g>
<!-- Node8 -->
<g id="node8" class="node">
<title>Node8</title>
<g id="a_node8"><a xlink:title=" ">
<polygon fill="white" stroke="#bfbfbf" points="488,-56.5 488,-75.5 536,-75.5 536,-56.5 488,-56.5"/>
<text text-anchor="middle" x="512" y="-63.5" font-family="Helvetica,sans-Serif" font-size="10.00">thread</text>
</a>
</g>
</g>
<!-- Node6&#45;&gt;Node8 -->
<g id="edge10" class="edge">
<title>Node6&#45;&gt;Node8</title>
<path fill="none" stroke="midnightblue" d="M468.59,-112.08C476.16,-104.22 487.38,-92.57 496.51,-83.08"/>
<polygon fill="midnightblue" stroke="midnightblue" points="499.16,-85.38 503.57,-75.75 494.12,-80.53 499.16,-85.38"/>
</g>
<!-- Node9 -->
<g id="node9" class="node">
<title>Node9</title>
<g id="a_node9"><a xlink:title=" ">
<polygon fill="white" stroke="#bfbfbf" points="554,-56.5 554,-75.5 598,-75.5 598,-56.5 554,-56.5"/>
<text text-anchor="middle" x="576" y="-63.5" font-family="Helvetica,sans-Serif" font-size="10.00">ctime</text>
</a>
</g>
</g>
<!-- Node6&#45;&gt;Node9 -->
<g id="edge11" class="edge">
<title>Node6&#45;&gt;Node9</title>
<path fill="none" stroke="midnightblue" d="M478.38,-112.44C497.22,-103.68 526.73,-89.94 548.38,-79.86"/>
<polygon fill="midnightblue" stroke="midnightblue" points="550.12,-82.91 557.71,-75.52 547.16,-76.56 550.12,-82.91"/>
</g>
<!-- Node10 -->
<g id="node10" class="node">
<title>Node10</title>
<g id="a_node10"><a xlink:href="Mutex_8hpp.html" target="_top" xlink:title="Définition de la classe Mutex.">
<polygon fill="white" stroke="black" points="364,-56.5 364,-75.5 432,-75.5 432,-56.5 364,-56.5"/>
<text text-anchor="middle" x="398" y="-63.5" font-family="Helvetica,sans-Serif" font-size="10.00">Mutex.hpp</text>
</a>
</g>
</g>
<!-- Node6&#45;&gt;Node10 -->
<g id="edge12" class="edge">
<title>Node6&#45;&gt;Node10</title>
<path fill="none" stroke="midnightblue" d="M450.04,-112.32C440.87,-104.34 427.06,-92.31 415.97,-82.65"/>
<polygon fill="midnightblue" stroke="midnightblue" points="417.98,-79.76 408.14,-75.83 413.38,-85.04 417.98,-79.76"/>
</g>
<!-- Node11 -->
<g id="node11" class="node">
<title>Node11</title>
<g id="a_node11"><a xlink:title=" ">
<polygon fill="white" stroke="#bfbfbf" points="616,-56.5 616,-75.5 666,-75.5 666,-56.5 616,-56.5"/>
<text text-anchor="middle" x="641" y="-63.5" font-family="Helvetica,sans-Serif" font-size="10.00">chrono</text>
</a>
</g>
</g>
<!-- Node6&#45;&gt;Node11 -->
<g id="edge14" class="edge">
<title>Node6&#45;&gt;Node11</title>
<path fill="none" stroke="midnightblue" d="M488.68,-112.44C520.48,-102.96 571.78,-87.65 605.94,-77.46"/>
<polygon fill="midnightblue" stroke="midnightblue" points="607.37,-80.69 615.95,-74.47 605.37,-73.98 607.37,-80.69"/>
</g>
<!-- Node10&#45;&gt;Node7 -->
<g id="edge13" class="edge">
<title>Node10&#45;&gt;Node7</title>
<path fill="none" stroke="midnightblue" d="M403.12,-56.08C407.41,-48.61 413.66,-37.72 418.94,-28.52"/>
<polygon fill="midnightblue" stroke="midnightblue" points="422.03,-30.17 423.98,-19.75 415.96,-26.68 422.03,-30.17"/>
</g>
<!-- Node12&#45;&gt;Node4 -->
<g id="edge17" class="edge">
<title>Node12&#45;&gt;Node4</title>
<path fill="none" stroke="midnightblue" d="M205.54,-112.48C191.54,-104.79 172.41,-92.2 161,-76 151.37,-62.33 146.58,-43.8 144.22,-30.01"/>
<polygon fill="midnightblue" stroke="midnightblue" points="147.63,-29.17 142.76,-19.77 140.7,-30.16 147.63,-29.17"/>
</g>
<!-- Node12&#45;&gt;Node10 -->
<g id="edge18" class="edge">
<title>Node12&#45;&gt;Node10</title>
<path fill="none" stroke="midnightblue" d="M250.73,-112.44C280.43,-103.28 327.72,-88.69 360.67,-78.52"/>
<polygon fill="midnightblue" stroke="midnightblue" points="361.88,-81.81 370.4,-75.52 359.81,-75.12 361.88,-81.81"/>
</g>
<!-- Node13 -->
<g id="node13" class="node">
<title>Node13</title>
<g id="a_node13"><a xlink:title=" ">
<polygon fill="white" stroke="#bfbfbf" points="252,-56.5 252,-75.5 308,-75.5 308,-56.5 252,-56.5"/>
<text text-anchor="middle" x="280" y="-63.5" font-family="Helvetica,sans-Serif" font-size="10.00">sstream</text>
</a>
</g>
</g>
<!-- Node12&#45;&gt;Node13 -->
<g id="edge16" class="edge">
<title>Node12&#45;&gt;Node13</title>
<path fill="none" stroke="midnightblue" d="M232.16,-112.32C240.5,-104.42 253.03,-92.55 263.18,-82.94"/>
<polygon fill="midnightblue" stroke="midnightblue" points="265.82,-85.25 270.68,-75.83 261.01,-80.17 265.82,-85.25"/>
</g>
<!-- Node14 -->
<g id="node14" class="node">
<title>Node14</title>
<g id="a_node14"><a xlink:href="Level_8hpp.html" target="_top" xlink:title="Définition de la classe Level.">
<polygon fill="white" stroke="black" points="170,-56.5 170,-75.5 234,-75.5 234,-56.5 170,-56.5"/>
<text text-anchor="middle" x="202" y="-63.5" font-family="Helvetica,sans-Serif" font-size="10.00">Level.hpp</text>
</a>
</g>
</g>
<!-- Node12&#45;&gt;Node14 -->
<g id="edge19" class="edge">
<title>Node12&#45;&gt;Node14</title>
<path fill="none" stroke="midnightblue" d="M219.53,-112.08C216.69,-104.77 212.57,-94.18 209.04,-85.1"/>
<polygon fill="midnightblue" stroke="midnightblue" points="212.29,-83.8 205.4,-75.75 205.77,-86.34 212.29,-83.8"/>
</g>
<!-- Node14&#45;&gt;Node4 -->
<g id="edge20" class="edge">
<title>Node14&#45;&gt;Node4</title>
<path fill="none" stroke="midnightblue" d="M192.36,-56.32C183.49,-48.34 170.13,-36.31 159.39,-26.65"/>
<polygon fill="midnightblue" stroke="midnightblue" points="161.59,-23.92 151.82,-19.83 156.91,-29.13 161.59,-23.92"/>
</g>
</g>
</svg>
