<?xml version="1.0" encoding="UTF-8" standalone="no"?>
<!DOCTYPE svg PUBLIC "-//W3C//DTD SVG 1.1//EN"
 "http://www.w3.org/Graphics/SVG/1.1/DTD/svg11.dtd">
<!-- Generated by graphviz version 2.43.0 (0)
 -->
<!-- Title: src/common/ia/IAbyZone.hpp Pages: 1 -->
<svg width="1258pt" height="162pt"
 viewBox="0.00 0.00 1258.00 162.00" xmlns="http://www.w3.org/2000/svg" xmlns:xlink="http://www.w3.org/1999/xlink">
<g id="graph0" class="graph" transform="scale(1 1) rotate(0) translate(4 158)">
<title>src/common/ia/IAbyZone.hpp</title>
<polygon fill="white" stroke="transparent" points="-4,4 -4,-158 1254,-158 1254,4 -4,4"/>
<!-- Node1 -->
<g id="node1" class="node">
<title>Node1</title>
<g id="a_node1"><a xlink:title=" ">
<polygon fill="#bfbfbf" stroke="black" points="632.5,-134.5 632.5,-153.5 791.5,-153.5 791.5,-134.5 632.5,-134.5"/>
<text text-anchor="middle" x="712" y="-141.5" font-family="Helvetica,sans-Serif" font-size="10.00">src/common/ia/IAbyZone.hpp</text>
</a>
</g>
</g>
<!-- Node2 -->
<g id="node2" class="node">
<title>Node2</title>
<g id="a_node2"><a xlink:href="OPOS6UL__IAExtended_8hpp.html" target="_top" xlink:title="Extension de l&#39;intelligence artificielle pour la carte OPOS6UL.">
<polygon fill="white" stroke="black" points="559,-67.5 559,-97.5 699,-97.5 699,-67.5 559,-67.5"/>
<text text-anchor="start" x="567" y="-85.5" font-family="Helvetica,sans-Serif" font-size="10.00">src/bot&#45;opos6ul/OPOS6UL</text>
<text text-anchor="middle" x="629" y="-74.5" font-family="Helvetica,sans-Serif" font-size="10.00">_IAExtended.hpp</text>
</a>
</g>
</g>
<!-- Node1&#45;&gt;Node2 -->
<g id="edge1" class="edge">
<title>Node1&#45;&gt;Node2</title>
<path fill="none" stroke="midnightblue" d="M691.73,-128.47C678.59,-119.05 661.56,-106.84 648.56,-97.52"/>
<polygon fill="midnightblue" stroke="midnightblue" points="689.94,-131.49 700.11,-134.48 694.02,-125.8 689.94,-131.49"/>
</g>
<!-- Node11 -->
<g id="node11" class="node">
<title>Node11</title>
<g id="a_node11"><a xlink:href="IAbyZone_8cpp.html" target="_top" xlink:title=" ">
<polygon fill="white" stroke="black" points="717,-73 717,-92 875,-92 875,-73 717,-73"/>
<text text-anchor="middle" x="796" y="-80" font-family="Helvetica,sans-Serif" font-size="10.00">src/common/ia/IAbyZone.cpp</text>
</a>
</g>
</g>
<!-- Node1&#45;&gt;Node11 -->
<g id="edge10" class="edge">
<title>Node1&#45;&gt;Node11</title>
<path fill="none" stroke="midnightblue" d="M732.31,-128.61C748.47,-117.17 770.52,-101.55 783.99,-92.01"/>
<polygon fill="midnightblue" stroke="midnightblue" points="730.17,-125.84 724.04,-134.48 734.22,-131.55 730.17,-125.84"/>
</g>
<!-- Node3 -->
<g id="node3" class="node">
<title>Node3</title>
<g id="a_node3"><a xlink:href="O__AsservLineRotateTest_8cpp.html" target="_top" xlink:title="Implémentation de la classe O_AsservLineRotateTest.">
<polygon fill="white" stroke="black" points="0,-0.5 0,-30.5 140,-30.5 140,-0.5 0,-0.5"/>
<text text-anchor="start" x="8" y="-18.5" font-family="Helvetica,sans-Serif" font-size="10.00">src/bot&#45;opos6ul/O_Asserv</text>
<text text-anchor="middle" x="70" y="-7.5" font-family="Helvetica,sans-Serif" font-size="10.00">LineRotateTest.cpp</text>
</a>
</g>
</g>
<!-- Node2&#45;&gt;Node3 -->
<g id="edge2" class="edge">
<title>Node2&#45;&gt;Node3</title>
<path fill="none" stroke="midnightblue" d="M548.67,-74.95C453.16,-66.71 289.04,-51.19 149,-31 146.1,-30.58 143.15,-30.14 140.17,-29.67"/>
<polygon fill="midnightblue" stroke="midnightblue" points="548.57,-78.45 558.84,-75.82 549.17,-71.48 548.57,-78.45"/>
</g>
<!-- Node4 -->
<g id="node4" class="node">
<title>Node4</title>
<g id="a_node4"><a xlink:href="O__AsservTest_8cpp.html" target="_top" xlink:title="Implémentation de la classe O_AsservTest.">
<polygon fill="white" stroke="black" points="158,-0.5 158,-30.5 298,-30.5 298,-0.5 158,-0.5"/>
<text text-anchor="start" x="166" y="-18.5" font-family="Helvetica,sans-Serif" font-size="10.00">src/bot&#45;opos6ul/O_Asserv</text>
<text text-anchor="middle" x="228" y="-7.5" font-family="Helvetica,sans-Serif" font-size="10.00">Test.cpp</text>
</a>
</g>
</g>
<!-- Node2&#45;&gt;Node4 -->
<g id="edge3" class="edge">
<title>Node2&#45;&gt;Node4</title>
<path fill="none" stroke="midnightblue" d="M548.67,-69.49C483.47,-59.61 389.21,-44.99 307,-31 304.11,-30.51 301.17,-30 298.19,-29.48"/>
<polygon fill="midnightblue" stroke="midnightblue" points="548.47,-73 558.88,-71.04 549.51,-66.08 548.47,-73"/>
</g>
<!-- Node5 -->
<g id="node5" class="node">
<title>Node5</title>
<g id="a_node5"><a xlink:href="O__AsservXYRotateTest_8cpp.html" target="_top" xlink:title="Implémentation de la classe O_AsservXYRotateTest.">
<polygon fill="white" stroke="black" points="316,-0.5 316,-30.5 456,-30.5 456,-0.5 316,-0.5"/>
<text text-anchor="start" x="324" y="-18.5" font-family="Helvetica,sans-Serif" font-size="10.00">src/bot&#45;opos6ul/O_Asserv</text>
<text text-anchor="middle" x="386" y="-7.5" font-family="Helvetica,sans-Serif" font-size="10.00">XYRotateTest.cpp</text>
</a>
</g>
</g>
<!-- Node2&#45;&gt;Node5 -->
<g id="edge4" class="edge">
<title>Node2&#45;&gt;Node5</title>
<path fill="none" stroke="midnightblue" d="M566.75,-64.85C527.14,-54.25 476.39,-40.68 438.75,-30.61"/>
<polygon fill="midnightblue" stroke="midnightblue" points="566.01,-68.27 576.57,-67.48 567.82,-61.51 566.01,-68.27"/>
</g>
<!-- Node6 -->
<g id="node6" class="node">
<title>Node6</title>
<g id="a_node6"><a xlink:href="O__IAbyPathTest_8cpp.html" target="_top" xlink:title="Implementation de la classe O_IAByPathTest.">
<polygon fill="white" stroke="black" points="474,-0.5 474,-30.5 624,-30.5 624,-0.5 474,-0.5"/>
<text text-anchor="start" x="482" y="-18.5" font-family="Helvetica,sans-Serif" font-size="10.00">src/bot&#45;opos6ul/O_IAbyPath</text>
<text text-anchor="middle" x="549" y="-7.5" font-family="Helvetica,sans-Serif" font-size="10.00">Test.cpp</text>
</a>
</g>
</g>
<!-- Node2&#45;&gt;Node6 -->
<g id="edge5" class="edge">
<title>Node2&#45;&gt;Node6</title>
<path fill="none" stroke="midnightblue" d="M603.63,-60.88C591.47,-51.01 577.22,-39.43 566.32,-30.58"/>
<polygon fill="midnightblue" stroke="midnightblue" points="601.67,-63.81 611.64,-67.4 606.09,-58.37 601.67,-63.81"/>
</g>
<!-- Node7 -->
<g id="node7" class="node">
<title>Node7</title>
<g id="a_node7"><a xlink:href="O__State__DecisionMakerIA_8cpp.html" target="_top" xlink:title="Implémentation de la classe O_State_DecisionMakerIA.">
<polygon fill="white" stroke="black" points="642.5,-0.5 642.5,-30.5 775.5,-30.5 775.5,-0.5 642.5,-0.5"/>
<text text-anchor="start" x="650.5" y="-18.5" font-family="Helvetica,sans-Serif" font-size="10.00">src/bot&#45;opos6ul/O_State</text>
<text text-anchor="middle" x="709" y="-7.5" font-family="Helvetica,sans-Serif" font-size="10.00">_DecisionMakerIA.cpp</text>
</a>
</g>
</g>
<!-- Node2&#45;&gt;Node7 -->
<g id="edge6" class="edge">
<title>Node2&#45;&gt;Node7</title>
<path fill="none" stroke="midnightblue" d="M654.37,-60.88C666.53,-51.01 680.78,-39.43 691.68,-30.58"/>
<polygon fill="midnightblue" stroke="midnightblue" points="651.91,-58.37 646.36,-67.4 656.33,-63.81 651.91,-58.37"/>
</g>
<!-- Node8 -->
<g id="node8" class="node">
<title>Node8</title>
<g id="a_node8"><a xlink:href="OPOS6UL__AsservExtended_8cpp.html" target="_top" xlink:title="Implémentation de la classe OPOS6UL_AsservExtended.">
<polygon fill="white" stroke="black" points="794,-0.5 794,-30.5 934,-30.5 934,-0.5 794,-0.5"/>
<text text-anchor="start" x="802" y="-18.5" font-family="Helvetica,sans-Serif" font-size="10.00">src/bot&#45;opos6ul/OPOS6UL</text>
<text text-anchor="middle" x="864" y="-7.5" font-family="Helvetica,sans-Serif" font-size="10.00">_AsservExtended.cpp</text>
</a>
</g>
</g>
<!-- Node2&#45;&gt;Node8 -->
<g id="edge7" class="edge">
<title>Node2&#45;&gt;Node8</title>
<path fill="none" stroke="midnightblue" d="M689.68,-64.71C727.93,-54.14 776.74,-40.63 812.98,-30.61"/>
<polygon fill="midnightblue" stroke="midnightblue" points="688.41,-61.44 679.7,-67.48 690.27,-68.18 688.41,-61.44"/>
</g>
<!-- Node9 -->
<g id="node9" class="node">
<title>Node9</title>
<g id="a_node9"><a xlink:href="OPOS6UL__IAExtended_8cpp.html" target="_top" xlink:title="Implémentation de la classe OPOS6UL_IAExtended.">
<polygon fill="white" stroke="black" points="952,-0.5 952,-30.5 1092,-30.5 1092,-0.5 952,-0.5"/>
<text text-anchor="start" x="960" y="-18.5" font-family="Helvetica,sans-Serif" font-size="10.00">src/bot&#45;opos6ul/OPOS6UL</text>
<text text-anchor="middle" x="1022" y="-7.5" font-family="Helvetica,sans-Serif" font-size="10.00">_IAExtended.cpp</text>
</a>
</g>
</g>
<!-- Node2&#45;&gt;Node9 -->
<g id="edge8" class="edge">
<title>Node2&#45;&gt;Node9</title>
<path fill="none" stroke="midnightblue" d="M709.22,-66.82C813.88,-49.39 841.96,-48.01 943,-31 945.89,-30.51 948.83,-30.01 951.81,-29.49"/>
<polygon fill="midnightblue" stroke="midnightblue" points="708.48,-63.4 699.19,-68.51 709.63,-70.3 708.48,-63.4"/>
</g>
<!-- Node10 -->
<g id="node10" class="node">
<title>Node10</title>
<g id="a_node10"><a xlink:href="OPOS6UL__RobotExtended_8cpp.html" target="_top" xlink:title="Implémentation de la classe OPOS6UL_RobotExtended.">
<polygon fill="white" stroke="black" points="1110,-0.5 1110,-30.5 1250,-30.5 1250,-0.5 1110,-0.5"/>
<text text-anchor="start" x="1118" y="-18.5" font-family="Helvetica,sans-Serif" font-size="10.00">src/bot&#45;opos6ul/OPOS6UL</text>
<text text-anchor="middle" x="1180" y="-7.5" font-family="Helvetica,sans-Serif" font-size="10.00">_RobotExtended.cpp</text>
</a>
</g>
</g>
<!-- Node2&#45;&gt;Node10 -->
<g id="edge9" class="edge">
<title>Node2&#45;&gt;Node10</title>
<path fill="none" stroke="midnightblue" d="M709.18,-66.92C883.5,-43.57 930.46,-54.41 1101,-31 1103.9,-30.6 1106.86,-30.17 1109.84,-29.72"/>
<polygon fill="midnightblue" stroke="midnightblue" points="708.6,-63.47 699.16,-68.28 709.54,-70.41 708.6,-63.47"/>
</g>
</g>
</svg>
