<?xml version="1.0" encoding="UTF-8" standalone="no"?>
<!DOCTYPE svg PUBLIC "-//W3C//DTD SVG 1.1//EN"
 "http://www.w3.org/Graphics/SVG/1.1/DTD/svg11.dtd">
<!-- Generated by graphviz version 2.43.0 (0)
 -->
<!-- Title: src/common/ia/IAbyZone.cpp Pages: 1 -->
<svg width="1435pt" height="375pt"
 viewBox="0.00 0.00 1435.13 375.00" xmlns="http://www.w3.org/2000/svg" xmlns:xlink="http://www.w3.org/1999/xlink">
<g id="graph0" class="graph" transform="scale(1 1) rotate(0) translate(4 371)">
<title>src/common/ia/IAbyZone.cpp</title>
<polygon fill="white" stroke="transparent" points="-4,4 -4,-371 1431.13,-371 1431.13,4 -4,4"/>
<!-- Node1 -->
<g id="node1" class="node">
<title>Node1</title>
<g id="a_node1"><a xlink:title=" ">
<polygon fill="#bfbfbf" stroke="black" points="1068.63,-347.5 1068.63,-366.5 1226.63,-366.5 1226.63,-347.5 1068.63,-347.5"/>
<text text-anchor="middle" x="1147.63" y="-354.5" font-family="Helvetica,sans-Serif" font-size="10.00">src/common/ia/IAbyZone.cpp</text>
</a>
</g>
</g>
<!-- Node2 -->
<g id="node2" class="node">
<title>Node2</title>
<g id="a_node2"><a xlink:href="IAbyZone_8hpp.html" target="_top" xlink:title=" ">
<polygon fill="white" stroke="black" points="695.63,-235.5 695.63,-254.5 779.63,-254.5 779.63,-235.5 695.63,-235.5"/>
<text text-anchor="middle" x="737.63" y="-242.5" font-family="Helvetica,sans-Serif" font-size="10.00">IAbyZone.hpp</text>
</a>
</g>
</g>
<!-- Node1&#45;&gt;Node2 -->
<g id="edge1" class="edge">
<title>Node1&#45;&gt;Node2</title>
<path fill="none" stroke="midnightblue" d="M1115.54,-347.49C1081.54,-338.46 1026.29,-323.77 978.63,-311 908.49,-292.2 826.91,-270.16 778.92,-257.18"/>
<polygon fill="midnightblue" stroke="midnightblue" points="779.77,-253.78 769.21,-254.55 777.95,-260.54 779.77,-253.78"/>
</g>
<!-- Node12 -->
<g id="node12" class="node">
<title>Node12</title>
<g id="a_node12"><a xlink:href="Logger_8hpp.html" target="_top" xlink:title="Définition de la classe Logger.">
<polygon fill="white" stroke="black" points="423.63,-112.5 423.63,-131.5 493.63,-131.5 493.63,-112.5 423.63,-112.5"/>
<text text-anchor="middle" x="458.63" y="-119.5" font-family="Helvetica,sans-Serif" font-size="10.00">Logger.hpp</text>
</a>
</g>
</g>
<!-- Node1&#45;&gt;Node12 -->
<g id="edge29" class="edge">
<title>Node1&#45;&gt;Node12</title>
<path fill="none" stroke="midnightblue" d="M1068.37,-355.73C912.47,-354.38 571.47,-347.25 460.63,-311 411.52,-294.94 363.79,-285.92 372.63,-235 378.05,-203.84 377.66,-193.31 396.63,-168 406.27,-155.16 420.6,-144.42 433.06,-136.66"/>
<polygon fill="midnightblue" stroke="midnightblue" points="434.88,-139.65 441.7,-131.55 431.32,-133.62 434.88,-139.65"/>
</g>
<!-- Node20 -->
<g id="node20" class="node">
<title>Node20</title>
<g id="a_node20"><a xlink:title=" ">
<polygon fill="white" stroke="#bfbfbf" points="1175.63,-291.5 1175.63,-310.5 1221.63,-310.5 1221.63,-291.5 1175.63,-291.5"/>
<text text-anchor="middle" x="1198.63" y="-298.5" font-family="Helvetica,sans-Serif" font-size="10.00">cstdio</text>
</a>
</g>
</g>
<!-- Node1&#45;&gt;Node20 -->
<g id="edge25" class="edge">
<title>Node1&#45;&gt;Node20</title>
<path fill="none" stroke="midnightblue" d="M1156.06,-347.08C1163.48,-339.22 1174.49,-327.57 1183.45,-318.08"/>
<polygon fill="midnightblue" stroke="midnightblue" points="1186.05,-320.42 1190.37,-310.75 1180.96,-315.62 1186.05,-320.42"/>
</g>
<!-- Node21 -->
<g id="node21" class="node">
<title>Node21</title>
<g id="a_node21"><a xlink:title=" ">
<polygon fill="white" stroke="#bfbfbf" points="1240.13,-291.5 1240.13,-310.5 1289.13,-310.5 1289.13,-291.5 1240.13,-291.5"/>
<text text-anchor="middle" x="1264.63" y="-298.5" font-family="Helvetica,sans-Serif" font-size="10.00">cstdlib</text>
</a>
</g>
</g>
<!-- Node1&#45;&gt;Node21 -->
<g id="edge26" class="edge">
<title>Node1&#45;&gt;Node21</title>
<path fill="none" stroke="midnightblue" d="M1166.17,-347.44C1185.26,-338.64 1215.21,-324.81 1237.07,-314.72"/>
<polygon fill="midnightblue" stroke="midnightblue" points="1238.57,-317.88 1246.18,-310.52 1235.64,-311.53 1238.57,-317.88"/>
</g>
<!-- Node22 -->
<g id="node22" class="node">
<title>Node22</title>
<g id="a_node22"><a xlink:title=" ">
<polygon fill="white" stroke="#bfbfbf" points="1307.63,-291.5 1307.63,-310.5 1357.63,-310.5 1357.63,-291.5 1307.63,-291.5"/>
<text text-anchor="middle" x="1332.63" y="-298.5" font-family="Helvetica,sans-Serif" font-size="10.00">cstring</text>
</a>
</g>
</g>
<!-- Node1&#45;&gt;Node22 -->
<g id="edge27" class="edge">
<title>Node1&#45;&gt;Node22</title>
<path fill="none" stroke="midnightblue" d="M1176.95,-347.44C1209.78,-337.86 1262.94,-322.34 1297.84,-312.15"/>
<polygon fill="midnightblue" stroke="midnightblue" points="1298.99,-315.47 1307.61,-309.3 1297.03,-308.75 1298.99,-315.47"/>
</g>
<!-- Node23 -->
<g id="node23" class="node">
<title>Node23</title>
<g id="a_node23"><a xlink:title=" ">
<polygon fill="white" stroke="#bfbfbf" points="1376.13,-291.5 1376.13,-310.5 1427.13,-310.5 1427.13,-291.5 1376.13,-291.5"/>
<text text-anchor="middle" x="1401.63" y="-298.5" font-family="Helvetica,sans-Serif" font-size="10.00">math.h</text>
</a>
</g>
</g>
<!-- Node1&#45;&gt;Node23 -->
<g id="edge28" class="edge">
<title>Node1&#45;&gt;Node23</title>
<path fill="none" stroke="midnightblue" d="M1192.65,-347.42C1234.95,-339.21 1300.22,-326.15 1366.3,-310.98"/>
<polygon fill="midnightblue" stroke="midnightblue" points="1367.1,-314.39 1376.06,-308.73 1365.52,-307.57 1367.1,-314.39"/>
</g>
<!-- Node24 -->
<g id="node24" class="node">
<title>Node24</title>
<g id="a_node24"><a xlink:href="SvgWriter_8hpp.html" target="_top" xlink:title="Définition de la classe SvgWriter.">
<polygon fill="white" stroke="black" points="1124.13,-112.5 1124.13,-131.5 1227.13,-131.5 1227.13,-112.5 1124.13,-112.5"/>
<text text-anchor="middle" x="1175.63" y="-119.5" font-family="Helvetica,sans-Serif" font-size="10.00">log/SvgWriter.hpp</text>
</a>
</g>
</g>
<!-- Node1&#45;&gt;Node24 -->
<g id="edge30" class="edge">
<title>Node1&#45;&gt;Node24</title>
<path fill="none" stroke="midnightblue" d="M1148.66,-347.43C1152.71,-313.75 1167.58,-189.99 1173.34,-142.1"/>
<polygon fill="midnightblue" stroke="midnightblue" points="1176.85,-142.24 1174.57,-131.9 1169.9,-141.41 1176.85,-142.24"/>
</g>
<!-- Node30 -->
<g id="node30" class="node">
<title>Node30</title>
<g id="a_node30"><a xlink:href="Asserv_8hpp.html" target="_top" xlink:title=" ">
<polygon fill="white" stroke="black" points="987.13,-291.5 987.13,-310.5 1092.13,-310.5 1092.13,-291.5 987.13,-291.5"/>
<text text-anchor="middle" x="1039.63" y="-298.5" font-family="Helvetica,sans-Serif" font-size="10.00">asserv/Asserv.hpp</text>
</a>
</g>
</g>
<!-- Node1&#45;&gt;Node30 -->
<g id="edge38" class="edge">
<title>Node1&#45;&gt;Node30</title>
<path fill="none" stroke="midnightblue" d="M1130.28,-347.32C1112.96,-338.66 1086.12,-325.24 1066.13,-315.25"/>
<polygon fill="midnightblue" stroke="midnightblue" points="1067.45,-312 1056.94,-310.65 1064.32,-318.26 1067.45,-312"/>
</g>
<!-- Node34 -->
<g id="node34" class="node">
<title>Node34</title>
<g id="a_node34"><a xlink:href="Robot_8hpp.html" target="_top" xlink:title=" ">
<polygon fill="white" stroke="black" points="469.13,-291.5 469.13,-310.5 544.13,-310.5 544.13,-291.5 469.13,-291.5"/>
<text text-anchor="middle" x="506.63" y="-298.5" font-family="Helvetica,sans-Serif" font-size="10.00">../Robot.hpp</text>
</a>
</g>
</g>
<!-- Node1&#45;&gt;Node34 -->
<g id="edge48" class="edge">
<title>Node1&#45;&gt;Node34</title>
<path fill="none" stroke="midnightblue" d="M1068.39,-349.32C933.57,-337.97 663.53,-315.22 554.21,-306.01"/>
<polygon fill="midnightblue" stroke="midnightblue" points="554.41,-302.51 544.15,-305.16 553.82,-309.49 554.41,-302.51"/>
</g>
<!-- Node3 -->
<g id="node3" class="node">
<title>Node3</title>
<g id="a_node3"><a xlink:href="LoggerFactory_8hpp.html" target="_top" xlink:title="Définition de la classe LoggerFactory.">
<polygon fill="white" stroke="black" points="479.63,-174 479.63,-193 601.63,-193 601.63,-174 479.63,-174"/>
<text text-anchor="middle" x="540.63" y="-181" font-family="Helvetica,sans-Serif" font-size="10.00">log/LoggerFactory.hpp</text>
</a>
</g>
</g>
<!-- Node2&#45;&gt;Node3 -->
<g id="edge2" class="edge">
<title>Node2&#45;&gt;Node3</title>
<path fill="none" stroke="midnightblue" d="M709.41,-235.48C675.03,-225.09 616.82,-207.51 578.56,-195.95"/>
<polygon fill="midnightblue" stroke="midnightblue" points="579.39,-192.55 568.81,-193.01 577.37,-199.25 579.39,-192.55"/>
</g>
<!-- Node15 -->
<g id="node15" class="node">
<title>Node15</title>
<g id="a_node15"><a xlink:href="ARobotPositionShared_8hpp.html" target="_top" xlink:title="Position partagee du robot et utilitaires geometriques.">
<polygon fill="white" stroke="black" points="874.13,-168.5 874.13,-198.5 1011.13,-198.5 1011.13,-168.5 874.13,-168.5"/>
<text text-anchor="start" x="882.13" y="-186.5" font-family="Helvetica,sans-Serif" font-size="10.00">interface/ARobotPosition</text>
<text text-anchor="middle" x="942.63" y="-175.5" font-family="Helvetica,sans-Serif" font-size="10.00">Shared.hpp</text>
</a>
</g>
</g>
<!-- Node2&#45;&gt;Node15 -->
<g id="edge19" class="edge">
<title>Node2&#45;&gt;Node15</title>
<path fill="none" stroke="midnightblue" d="M767.01,-235.48C797.49,-226.63 846,-212.55 884.31,-201.43"/>
<polygon fill="midnightblue" stroke="midnightblue" points="885.69,-204.67 894.32,-198.52 883.74,-197.95 885.69,-204.67"/>
</g>
<!-- Node19 -->
<g id="node19" class="node">
<title>Node19</title>
<g id="a_node19"><a xlink:href="IACommon_8hpp.html" target="_top" xlink:title=" ">
<polygon fill="white" stroke="black" points="657.63,-174 657.63,-193 749.63,-193 749.63,-174 657.63,-174"/>
<text text-anchor="middle" x="703.63" y="-181" font-family="Helvetica,sans-Serif" font-size="10.00">IACommon.hpp</text>
</a>
</g>
</g>
<!-- Node2&#45;&gt;Node19 -->
<g id="edge24" class="edge">
<title>Node2&#45;&gt;Node19</title>
<path fill="none" stroke="midnightblue" d="M732.76,-235.48C727.76,-226.73 719.85,-212.87 713.53,-201.81"/>
<polygon fill="midnightblue" stroke="midnightblue" points="716.5,-199.96 708.5,-193.01 710.42,-203.43 716.5,-199.96"/>
</g>
<!-- Node4 -->
<g id="node4" class="node">
<title>Node4</title>
<g id="a_node4"><a xlink:title=" ">
<polygon fill="white" stroke="#bfbfbf" points="367.63,-112.5 367.63,-131.5 405.63,-131.5 405.63,-112.5 367.63,-112.5"/>
<text text-anchor="middle" x="386.63" y="-119.5" font-family="Helvetica,sans-Serif" font-size="10.00">map</text>
</a>
</g>
</g>
<!-- Node3&#45;&gt;Node4 -->
<g id="edge3" class="edge">
<title>Node3&#45;&gt;Node4</title>
<path fill="none" stroke="midnightblue" d="M518.57,-173.98C491.37,-163.47 445.09,-145.59 415.2,-134.04"/>
<polygon fill="midnightblue" stroke="midnightblue" points="416.33,-130.72 405.74,-130.38 413.81,-137.25 416.33,-130.72"/>
</g>
<!-- Node5 -->
<g id="node5" class="node">
<title>Node5</title>
<g id="a_node5"><a xlink:title=" ">
<polygon fill="white" stroke="#bfbfbf" points="467.63,-0.5 467.63,-19.5 511.63,-19.5 511.63,-0.5 467.63,-0.5"/>
<text text-anchor="middle" x="489.63" y="-7.5" font-family="Helvetica,sans-Serif" font-size="10.00">string</text>
</a>
</g>
</g>
<!-- Node3&#45;&gt;Node5 -->
<g id="edge4" class="edge">
<title>Node3&#45;&gt;Node5</title>
<path fill="none" stroke="midnightblue" d="M538.04,-173.76C530.09,-147.04 506,-66.02 495.09,-29.36"/>
<polygon fill="midnightblue" stroke="midnightblue" points="498.37,-28.11 492.17,-19.52 491.66,-30.1 498.37,-28.11"/>
</g>
<!-- Node6 -->
<g id="node6" class="node">
<title>Node6</title>
<g id="a_node6"><a xlink:href="Thread_8hpp.html" target="_top" xlink:title="Définition de la classe Thread.">
<polygon fill="white" stroke="black" points="643.13,-112.5 643.13,-131.5 758.13,-131.5 758.13,-112.5 643.13,-112.5"/>
<text text-anchor="middle" x="700.63" y="-119.5" font-family="Helvetica,sans-Serif" font-size="10.00">../thread/Thread.hpp</text>
</a>
</g>
</g>
<!-- Node3&#45;&gt;Node6 -->
<g id="edge5" class="edge">
<title>Node3&#45;&gt;Node6</title>
<path fill="none" stroke="midnightblue" d="M563.56,-173.98C591,-163.77 637.15,-146.61 668.23,-135.05"/>
<polygon fill="midnightblue" stroke="midnightblue" points="669.6,-138.28 677.75,-131.51 667.16,-131.71 669.6,-138.28"/>
</g>
<!-- Node3&#45;&gt;Node12 -->
<g id="edge13" class="edge">
<title>Node3&#45;&gt;Node12</title>
<path fill="none" stroke="midnightblue" d="M528.89,-173.98C515.86,-164.52 494.6,-149.1 478.88,-137.69"/>
<polygon fill="midnightblue" stroke="midnightblue" points="480.51,-134.55 470.36,-131.51 476.4,-140.21 480.51,-134.55"/>
</g>
<!-- Node6&#45;&gt;Node5 -->
<g id="edge7" class="edge">
<title>Node6&#45;&gt;Node5</title>
<path fill="none" stroke="midnightblue" d="M711.23,-112.31C726.03,-99.15 749.47,-73.81 734.63,-56 707.93,-23.95 582.34,-14.65 522.07,-12.01"/>
<polygon fill="midnightblue" stroke="midnightblue" points="522.09,-8.51 511.95,-11.61 521.81,-15.5 522.09,-8.51"/>
</g>
<!-- Node7 -->
<g id="node7" class="node">
<title>Node7</title>
<g id="a_node7"><a xlink:title=" ">
<polygon fill="white" stroke="#bfbfbf" points="829.13,-0.5 829.13,-19.5 892.13,-19.5 892.13,-0.5 829.13,-0.5"/>
<text text-anchor="middle" x="860.63" y="-7.5" font-family="Helvetica,sans-Serif" font-size="10.00">pthread.h</text>
</a>
</g>
</g>
<!-- Node6&#45;&gt;Node7 -->
<g id="edge6" class="edge">
<title>Node6&#45;&gt;Node7</title>
<path fill="none" stroke="midnightblue" d="M713.53,-112.44C727.05,-103.44 748.91,-88.83 767.63,-76 792.63,-58.87 821.17,-38.86 839.96,-25.61"/>
<polygon fill="midnightblue" stroke="midnightblue" points="842.2,-28.32 848.35,-19.69 838.16,-22.6 842.2,-28.32"/>
</g>
<!-- Node8 -->
<g id="node8" class="node">
<title>Node8</title>
<g id="a_node8"><a xlink:title=" ">
<polygon fill="white" stroke="#bfbfbf" points="547.63,-56.5 547.63,-75.5 595.63,-75.5 595.63,-56.5 547.63,-56.5"/>
<text text-anchor="middle" x="571.63" y="-63.5" font-family="Helvetica,sans-Serif" font-size="10.00">thread</text>
</a>
</g>
</g>
<!-- Node6&#45;&gt;Node8 -->
<g id="edge8" class="edge">
<title>Node6&#45;&gt;Node8</title>
<path fill="none" stroke="midnightblue" d="M680.19,-112.44C658.96,-103.56 625.54,-89.56 601.38,-79.45"/>
<polygon fill="midnightblue" stroke="midnightblue" points="602.56,-76.15 591.98,-75.52 599.85,-82.61 602.56,-76.15"/>
</g>
<!-- Node9 -->
<g id="node9" class="node">
<title>Node9</title>
<g id="a_node9"><a xlink:title=" ">
<polygon fill="white" stroke="#bfbfbf" points="613.63,-56.5 613.63,-75.5 657.63,-75.5 657.63,-56.5 613.63,-56.5"/>
<text text-anchor="middle" x="635.63" y="-63.5" font-family="Helvetica,sans-Serif" font-size="10.00">ctime</text>
</a>
</g>
</g>
<!-- Node6&#45;&gt;Node9 -->
<g id="edge9" class="edge">
<title>Node6&#45;&gt;Node9</title>
<path fill="none" stroke="midnightblue" d="M690.19,-112.32C680.49,-104.26 665.82,-92.08 654.13,-82.37"/>
<polygon fill="midnightblue" stroke="midnightblue" points="656.2,-79.53 646.27,-75.83 651.72,-84.92 656.2,-79.53"/>
</g>
<!-- Node10 -->
<g id="node10" class="node">
<title>Node10</title>
<g id="a_node10"><a xlink:href="Mutex_8hpp.html" target="_top" xlink:title="Définition de la classe Mutex.">
<polygon fill="white" stroke="black" points="857.63,-56.5 857.63,-75.5 925.63,-75.5 925.63,-56.5 857.63,-56.5"/>
<text text-anchor="middle" x="891.63" y="-63.5" font-family="Helvetica,sans-Serif" font-size="10.00">Mutex.hpp</text>
</a>
</g>
</g>
<!-- Node6&#45;&gt;Node10 -->
<g id="edge10" class="edge">
<title>Node6&#45;&gt;Node10</title>
<path fill="none" stroke="midnightblue" d="M730.9,-112.44C763.59,-103.2 815.82,-88.44 851.82,-78.26"/>
<polygon fill="midnightblue" stroke="midnightblue" points="852.84,-81.61 861.51,-75.52 850.94,-74.87 852.84,-81.61"/>
</g>
<!-- Node11 -->
<g id="node11" class="node">
<title>Node11</title>
<g id="a_node11"><a xlink:title=" ">
<polygon fill="white" stroke="#bfbfbf" points="675.63,-56.5 675.63,-75.5 725.63,-75.5 725.63,-56.5 675.63,-56.5"/>
<text text-anchor="middle" x="700.63" y="-63.5" font-family="Helvetica,sans-Serif" font-size="10.00">chrono</text>
</a>
</g>
</g>
<!-- Node6&#45;&gt;Node11 -->
<g id="edge12" class="edge">
<title>Node6&#45;&gt;Node11</title>
<path fill="none" stroke="midnightblue" d="M700.63,-112.08C700.63,-105.01 700.63,-94.86 700.63,-85.99"/>
<polygon fill="midnightblue" stroke="midnightblue" points="704.13,-85.75 700.63,-75.75 697.13,-85.75 704.13,-85.75"/>
</g>
<!-- Node10&#45;&gt;Node7 -->
<g id="edge11" class="edge">
<title>Node10&#45;&gt;Node7</title>
<path fill="none" stroke="midnightblue" d="M886.52,-56.08C882.23,-48.61 875.98,-37.72 870.69,-28.52"/>
<polygon fill="midnightblue" stroke="midnightblue" points="873.67,-26.68 865.66,-19.75 867.6,-30.17 873.67,-26.68"/>
</g>
<!-- Node12&#45;&gt;Node5 -->
<g id="edge15" class="edge">
<title>Node12&#45;&gt;Node5</title>
<path fill="none" stroke="midnightblue" d="M446.59,-112.33C431.05,-100.02 407.27,-76.66 418.63,-56 427.12,-40.58 443.36,-29.7 458.17,-22.51"/>
<polygon fill="midnightblue" stroke="midnightblue" points="459.9,-25.57 467.6,-18.3 457.05,-19.18 459.9,-25.57"/>
</g>
<!-- Node12&#45;&gt;Node10 -->
<g id="edge16" class="edge">
<title>Node12&#45;&gt;Node10</title>
<path fill="none" stroke="midnightblue" d="M493.7,-116.63C572.06,-106.85 761.21,-83.27 847.45,-72.51"/>
<polygon fill="midnightblue" stroke="midnightblue" points="847.95,-75.97 857.44,-71.26 847.09,-69.03 847.95,-75.97"/>
</g>
<!-- Node13 -->
<g id="node13" class="node">
<title>Node13</title>
<g id="a_node13"><a xlink:title=" ">
<polygon fill="white" stroke="#bfbfbf" points="315.63,-56.5 315.63,-75.5 371.63,-75.5 371.63,-56.5 315.63,-56.5"/>
<text text-anchor="middle" x="343.63" y="-63.5" font-family="Helvetica,sans-Serif" font-size="10.00">sstream</text>
</a>
</g>
</g>
<!-- Node12&#45;&gt;Node13 -->
<g id="edge14" class="edge">
<title>Node12&#45;&gt;Node13</title>
<path fill="none" stroke="midnightblue" d="M440.41,-112.44C421.74,-103.68 392.48,-89.94 371.02,-79.86"/>
<polygon fill="midnightblue" stroke="midnightblue" points="372.31,-76.6 361.77,-75.52 369.34,-82.93 372.31,-76.6"/>
</g>
<!-- Node14 -->
<g id="node14" class="node">
<title>Node14</title>
<g id="a_node14"><a xlink:href="Level_8hpp.html" target="_top" xlink:title="Définition de la classe Level.">
<polygon fill="white" stroke="black" points="427.63,-56.5 427.63,-75.5 491.63,-75.5 491.63,-56.5 427.63,-56.5"/>
<text text-anchor="middle" x="459.63" y="-63.5" font-family="Helvetica,sans-Serif" font-size="10.00">Level.hpp</text>
</a>
</g>
</g>
<!-- Node12&#45;&gt;Node14 -->
<g id="edge17" class="edge">
<title>Node12&#45;&gt;Node14</title>
<path fill="none" stroke="midnightblue" d="M458.8,-112.08C458.93,-105.01 459.12,-94.86 459.28,-85.99"/>
<polygon fill="midnightblue" stroke="midnightblue" points="462.79,-85.81 459.47,-75.75 455.79,-85.68 462.79,-85.81"/>
</g>
<!-- Node14&#45;&gt;Node5 -->
<g id="edge18" class="edge">
<title>Node14&#45;&gt;Node5</title>
<path fill="none" stroke="midnightblue" d="M464.59,-56.08C468.74,-48.61 474.79,-37.72 479.9,-28.52"/>
<polygon fill="midnightblue" stroke="midnightblue" points="482.98,-30.19 484.77,-19.75 476.86,-26.79 482.98,-30.19"/>
</g>
<!-- Node16 -->
<g id="node16" class="node">
<title>Node16</title>
<g id="a_node16"><a xlink:title=" ">
<polygon fill="white" stroke="#bfbfbf" points="1002.13,-112.5 1002.13,-131.5 1049.13,-131.5 1049.13,-112.5 1002.13,-112.5"/>
<text text-anchor="middle" x="1025.63" y="-119.5" font-family="Helvetica,sans-Serif" font-size="10.00">cmath</text>
</a>
</g>
</g>
<!-- Node15&#45;&gt;Node16 -->
<g id="edge20" class="edge">
<title>Node15&#45;&gt;Node16</title>
<path fill="none" stroke="midnightblue" d="M962.3,-168.4C975.24,-159.13 992.12,-147.03 1005.2,-137.65"/>
<polygon fill="midnightblue" stroke="midnightblue" points="1007.47,-140.33 1013.56,-131.66 1003.39,-134.64 1007.47,-140.33"/>
</g>
<!-- Node17 -->
<g id="node17" class="node">
<title>Node17</title>
<g id="a_node17"><a xlink:href="Chronometer_8hpp.html" target="_top" xlink:title="Définition de la classe Chronometer.">
<polygon fill="white" stroke="black" points="859.13,-112.5 859.13,-131.5 984.13,-131.5 984.13,-112.5 859.13,-112.5"/>
<text text-anchor="middle" x="921.63" y="-119.5" font-family="Helvetica,sans-Serif" font-size="10.00">utils/Chronometer.hpp</text>
</a>
</g>
</g>
<!-- Node15&#45;&gt;Node17 -->
<g id="edge21" class="edge">
<title>Node15&#45;&gt;Node17</title>
<path fill="none" stroke="midnightblue" d="M937.66,-168.4C934.79,-160.29 931.17,-150.01 928.09,-141.28"/>
<polygon fill="midnightblue" stroke="midnightblue" points="931.32,-139.92 924.69,-131.66 924.72,-142.25 931.32,-139.92"/>
</g>
<!-- Node17&#45;&gt;Node5 -->
<g id="edge23" class="edge">
<title>Node17&#45;&gt;Node5</title>
<path fill="none" stroke="midnightblue" d="M927.51,-112.19C935.91,-98.41 948.83,-71.71 934.63,-56 907.03,-25.46 619.83,-14.64 522.04,-11.82"/>
<polygon fill="midnightblue" stroke="midnightblue" points="521.95,-8.32 511.86,-11.54 521.76,-15.32 521.95,-8.32"/>
</g>
<!-- Node18 -->
<g id="node18" class="node">
<title>Node18</title>
<g id="a_node18"><a xlink:title=" ">
<polygon fill="white" stroke="#bfbfbf" points="981.63,-56.5 981.63,-75.5 1049.63,-75.5 1049.63,-56.5 981.63,-56.5"/>
<text text-anchor="middle" x="1015.63" y="-63.5" font-family="Helvetica,sans-Serif" font-size="10.00">sys/time.h</text>
</a>
</g>
</g>
<!-- Node17&#45;&gt;Node18 -->
<g id="edge22" class="edge">
<title>Node17&#45;&gt;Node18</title>
<path fill="none" stroke="midnightblue" d="M936.74,-112.32C951.54,-103.82 974.33,-90.73 991.62,-80.8"/>
<polygon fill="midnightblue" stroke="midnightblue" points="993.64,-83.67 1000.57,-75.65 990.15,-77.6 993.64,-83.67"/>
</g>
<!-- Node24&#45;&gt;Node5 -->
<g id="edge31" class="edge">
<title>Node24&#45;&gt;Node5</title>
<path fill="none" stroke="midnightblue" d="M1167.85,-112.31C1154.13,-97.66 1124,-68.43 1091.63,-56 1038.32,-35.53 639.46,-17.3 522.05,-12.33"/>
<polygon fill="midnightblue" stroke="midnightblue" points="522.04,-8.83 511.9,-11.9 521.74,-15.82 522.04,-8.83"/>
</g>
<!-- Node24&#45;&gt;Node10 -->
<g id="edge36" class="edge">
<title>Node24&#45;&gt;Node10</title>
<path fill="none" stroke="midnightblue" d="M1130.63,-112.44C1077.26,-102.29 988.86,-85.49 935.84,-75.41"/>
<polygon fill="midnightblue" stroke="midnightblue" points="936.21,-71.91 925.73,-73.48 934.9,-78.79 936.21,-71.91"/>
</g>
<!-- Node25 -->
<g id="node25" class="node">
<title>Node25</title>
<g id="a_node25"><a xlink:href="PointerList_8hpp.html" target="_top" xlink:title="Définition de la classe PointerList.">
<polygon fill="white" stroke="black" points="1143.63,-56.5 1143.63,-75.5 1265.63,-75.5 1265.63,-56.5 1143.63,-56.5"/>
<text text-anchor="middle" x="1204.63" y="-63.5" font-family="Helvetica,sans-Serif" font-size="10.00">../utils/PointerList.hpp</text>
</a>
</g>
</g>
<!-- Node24&#45;&gt;Node25 -->
<g id="edge32" class="edge">
<title>Node24&#45;&gt;Node25</title>
<path fill="none" stroke="midnightblue" d="M1180.42,-112.08C1184.39,-104.69 1190.16,-93.95 1195.07,-84.81"/>
<polygon fill="midnightblue" stroke="midnightblue" points="1198.29,-86.22 1199.93,-75.75 1192.12,-82.91 1198.29,-86.22"/>
</g>
<!-- Node29 -->
<g id="node29" class="node">
<title>Node29</title>
<g id="a_node29"><a xlink:title=" ">
<polygon fill="white" stroke="#bfbfbf" points="1283.63,-56.5 1283.63,-75.5 1405.63,-75.5 1405.63,-56.5 1283.63,-56.5"/>
<text text-anchor="middle" x="1344.63" y="-63.5" font-family="Helvetica,sans-Serif" font-size="10.00">simple_svg_1.0.0.hpp</text>
</a>
</g>
</g>
<!-- Node24&#45;&gt;Node29 -->
<g id="edge37" class="edge">
<title>Node24&#45;&gt;Node29</title>
<path fill="none" stroke="midnightblue" d="M1202.41,-112.44C1230.97,-103.32 1276.37,-88.81 1308.17,-78.65"/>
<polygon fill="midnightblue" stroke="midnightblue" points="1309.52,-81.89 1317.98,-75.52 1307.39,-75.23 1309.52,-81.89"/>
</g>
<!-- Node26 -->
<g id="node26" class="node">
<title>Node26</title>
<g id="a_node26"><a xlink:title=" ">
<polygon fill="white" stroke="#bfbfbf" points="1160.13,-0.5 1160.13,-19.5 1249.13,-19.5 1249.13,-0.5 1160.13,-0.5"/>
<text text-anchor="middle" x="1204.63" y="-7.5" font-family="Helvetica,sans-Serif" font-size="10.00">bits/allocator.h</text>
</a>
</g>
</g>
<!-- Node25&#45;&gt;Node26 -->
<g id="edge33" class="edge">
<title>Node25&#45;&gt;Node26</title>
<path fill="none" stroke="midnightblue" d="M1204.63,-56.08C1204.63,-49.01 1204.63,-38.86 1204.63,-29.99"/>
<polygon fill="midnightblue" stroke="midnightblue" points="1208.13,-29.75 1204.63,-19.75 1201.13,-29.75 1208.13,-29.75"/>
</g>
<!-- Node27 -->
<g id="node27" class="node">
<title>Node27</title>
<g id="a_node27"><a xlink:title=" ">
<polygon fill="white" stroke="#bfbfbf" points="1267.13,-0.5 1267.13,-19.5 1320.13,-19.5 1320.13,-0.5 1267.13,-0.5"/>
<text text-anchor="middle" x="1293.63" y="-7.5" font-family="Helvetica,sans-Serif" font-size="10.00">cstddef</text>
</a>
</g>
</g>
<!-- Node25&#45;&gt;Node27 -->
<g id="edge34" class="edge">
<title>Node25&#45;&gt;Node27</title>
<path fill="none" stroke="midnightblue" d="M1218.93,-56.32C1232.82,-47.9 1254.13,-34.97 1270.44,-25.07"/>
<polygon fill="midnightblue" stroke="midnightblue" points="1272.64,-27.83 1279.37,-19.65 1269.01,-21.85 1272.64,-27.83"/>
</g>
<!-- Node28 -->
<g id="node28" class="node">
<title>Node28</title>
<g id="a_node28"><a xlink:title=" ">
<polygon fill="white" stroke="#bfbfbf" points="1109.63,-0.5 1109.63,-19.5 1141.63,-19.5 1141.63,-0.5 1109.63,-0.5"/>
<text text-anchor="middle" x="1125.63" y="-7.5" font-family="Helvetica,sans-Serif" font-size="10.00">list</text>
</a>
</g>
</g>
<!-- Node25&#45;&gt;Node28 -->
<g id="edge35" class="edge">
<title>Node25&#45;&gt;Node28</title>
<path fill="none" stroke="midnightblue" d="M1191.94,-56.32C1179.73,-47.98 1161.06,-35.21 1146.63,-25.35"/>
<polygon fill="midnightblue" stroke="midnightblue" points="1148.53,-22.41 1138.3,-19.65 1144.58,-28.19 1148.53,-22.41"/>
</g>
<!-- Node30&#45;&gt;Node3 -->
<g id="edge42" class="edge">
<title>Node30&#45;&gt;Node3</title>
<path fill="none" stroke="midnightblue" d="M987.11,-298.57C917.18,-295.48 790.29,-285.74 686.63,-255 640.77,-241.4 591.45,-214.78 563.48,-198.43"/>
<polygon fill="midnightblue" stroke="midnightblue" points="564.91,-195.2 554.52,-193.11 561.33,-201.22 564.91,-195.2"/>
</g>
<!-- Node30&#45;&gt;Node5 -->
<g id="edge40" class="edge">
<title>Node30&#45;&gt;Node5</title>
<path fill="none" stroke="midnightblue" d="M1044.6,-291.34C1054.9,-272.53 1077.63,-226.3 1077.63,-184.5 1077.63,-184.5 1077.63,-184.5 1077.63,-121 1077.63,-90.9 1081.99,-74.99 1058.63,-56 1016.88,-22.05 636.24,-13.31 521.94,-11.45"/>
<polygon fill="midnightblue" stroke="midnightblue" points="521.78,-7.94 511.73,-11.29 521.68,-14.94 521.78,-7.94"/>
</g>
<!-- Node30&#45;&gt;Node15 -->
<g id="edge47" class="edge">
<title>Node30&#45;&gt;Node15</title>
<path fill="none" stroke="midnightblue" d="M1032.34,-291.32C1017.32,-273.42 982.5,-231.97 960.93,-206.28"/>
<polygon fill="midnightblue" stroke="midnightblue" points="963.54,-203.95 954.43,-198.55 958.18,-208.45 963.54,-203.95"/>
</g>
<!-- Node30&#45;&gt;Node16 -->
<g id="edge39" class="edge">
<title>Node30&#45;&gt;Node16</title>
<path fill="none" stroke="midnightblue" d="M1038.96,-291.46C1036.82,-264.43 1030.16,-180.24 1027.15,-142.11"/>
<polygon fill="midnightblue" stroke="midnightblue" points="1030.61,-141.56 1026.34,-131.87 1023.64,-142.11 1030.61,-141.56"/>
</g>
<!-- Node31 -->
<g id="node31" class="node">
<title>Node31</title>
<g id="a_node31"><a xlink:title=" ">
<polygon fill="white" stroke="#bfbfbf" points="1106.13,-235.5 1106.13,-254.5 1147.13,-254.5 1147.13,-235.5 1106.13,-235.5"/>
<text text-anchor="middle" x="1126.63" y="-242.5" font-family="Helvetica,sans-Serif" font-size="10.00">tuple</text>
</a>
</g>
</g>
<!-- Node30&#45;&gt;Node31 -->
<g id="edge41" class="edge">
<title>Node30&#45;&gt;Node31</title>
<path fill="none" stroke="midnightblue" d="M1053.61,-291.32C1067.18,-282.9 1088.01,-269.97 1103.96,-260.07"/>
<polygon fill="midnightblue" stroke="midnightblue" points="1106.04,-262.9 1112.69,-254.65 1102.35,-256.95 1106.04,-262.9"/>
</g>
<!-- Node32 -->
<g id="node32" class="node">
<title>Node32</title>
<g id="a_node32"><a xlink:href="AAsservDriver_8hpp.html" target="_top" xlink:title="Interface abstraite du driver d&#39;asservissement.">
<polygon fill="white" stroke="black" points="798.13,-235.5 798.13,-254.5 951.13,-254.5 951.13,-235.5 798.13,-235.5"/>
<text text-anchor="middle" x="874.63" y="-242.5" font-family="Helvetica,sans-Serif" font-size="10.00">interface/AAsservDriver.hpp</text>
</a>
</g>
</g>
<!-- Node30&#45;&gt;Node32 -->
<g id="edge43" class="edge">
<title>Node30&#45;&gt;Node32</title>
<path fill="none" stroke="midnightblue" d="M1013.49,-291.44C985.61,-282.32 941.29,-267.81 910.23,-257.65"/>
<polygon fill="midnightblue" stroke="midnightblue" points="911.25,-254.3 900.66,-254.52 909.07,-260.95 911.25,-254.3"/>
</g>
<!-- Node32&#45;&gt;Node5 -->
<g id="edge45" class="edge">
<title>Node32&#45;&gt;Node5</title>
<path fill="none" stroke="midnightblue" d="M850.31,-235.45C833.06,-228.23 810.58,-216.27 796.63,-199 754.69,-147.06 801.04,-99.78 750.63,-56 716.92,-26.71 584.08,-15.96 521.97,-12.48"/>
<polygon fill="midnightblue" stroke="midnightblue" points="522.1,-8.98 511.93,-11.95 521.73,-15.97 522.1,-8.98"/>
</g>
<!-- Node32&#45;&gt;Node15 -->
<g id="edge46" class="edge">
<title>Node32&#45;&gt;Node15</title>
<path fill="none" stroke="midnightblue" d="M884.38,-235.48C893.33,-227.64 906.96,-215.71 918.79,-205.37"/>
<polygon fill="midnightblue" stroke="midnightblue" points="921.39,-207.74 926.61,-198.52 916.78,-202.47 921.39,-207.74"/>
</g>
<!-- Node33 -->
<g id="node33" class="node">
<title>Node33</title>
<g id="a_node33"><a xlink:title=" ">
<polygon fill="white" stroke="#bfbfbf" points="805.63,-174 805.63,-193 855.63,-193 855.63,-174 805.63,-174"/>
<text text-anchor="middle" x="830.63" y="-181" font-family="Helvetica,sans-Serif" font-size="10.00">cstdint</text>
</a>
</g>
</g>
<!-- Node32&#45;&gt;Node33 -->
<g id="edge44" class="edge">
<title>Node32&#45;&gt;Node33</title>
<path fill="none" stroke="midnightblue" d="M868.33,-235.48C861.73,-226.55 851.2,-212.31 842.94,-201.14"/>
<polygon fill="midnightblue" stroke="midnightblue" points="845.69,-198.97 836.93,-193.01 840.06,-203.13 845.69,-198.97"/>
</g>
<!-- Node34&#45;&gt;Node3 -->
<g id="edge51" class="edge">
<title>Node34&#45;&gt;Node3</title>
<path fill="none" stroke="midnightblue" d="M529.09,-291.38C544.4,-284.18 563.5,-272.29 572.63,-255 582.19,-236.92 569.09,-215.43 556.88,-200.97"/>
<polygon fill="midnightblue" stroke="midnightblue" points="559.28,-198.41 549.98,-193.35 554.09,-203.11 559.28,-198.41"/>
</g>
<!-- Node34&#45;&gt;Node5 -->
<g id="edge50" class="edge">
<title>Node34&#45;&gt;Node5</title>
<path fill="none" stroke="midnightblue" d="M469.02,-298.14C364.57,-292.11 74.85,-269.24 17.63,-199 -22.21,-150.08 9.77,-103.48 82.63,-56 144.25,-15.85 372.12,-11.2 457.26,-10.9"/>
<polygon fill="midnightblue" stroke="midnightblue" points="457.39,-14.4 467.38,-10.88 457.37,-7.4 457.39,-14.4"/>
</g>
<!-- Node34&#45;&gt;Node17 -->
<g id="edge67" class="edge">
<title>Node34&#45;&gt;Node17</title>
<path fill="none" stroke="midnightblue" d="M527.92,-291.39C545.31,-283.65 569.82,-271.04 587.63,-255 622.72,-223.4 608.66,-193.14 648.63,-168 681.14,-147.56 779.53,-135.1 848.83,-128.62"/>
<polygon fill="midnightblue" stroke="midnightblue" points="849.19,-132.1 858.83,-127.71 848.56,-125.13 849.19,-132.1"/>
</g>
<!-- Node34&#45;&gt;Node32 -->
<g id="edge58" class="edge">
<title>Node34&#45;&gt;Node32</title>
<path fill="none" stroke="midnightblue" d="M544.29,-294.47C605.91,-285.43 729.16,-267.35 806.46,-256"/>
<polygon fill="midnightblue" stroke="midnightblue" points="807.2,-259.43 816.58,-254.52 806.18,-252.51 807.2,-259.43"/>
</g>
<!-- Node35 -->
<g id="node35" class="node">
<title>Node35</title>
<g id="a_node35"><a xlink:title=" ">
<polygon fill="white" stroke="#bfbfbf" points="381.63,-235.5 381.63,-254.5 431.63,-254.5 431.63,-235.5 381.63,-235.5"/>
<text text-anchor="middle" x="406.63" y="-242.5" font-family="Helvetica,sans-Serif" font-size="10.00">stdio.h</text>
</a>
</g>
</g>
<!-- Node34&#45;&gt;Node35 -->
<g id="edge49" class="edge">
<title>Node34&#45;&gt;Node35</title>
<path fill="none" stroke="midnightblue" d="M490.57,-291.32C474.68,-282.74 450.13,-269.49 431.68,-259.52"/>
<polygon fill="midnightblue" stroke="midnightblue" points="433.12,-256.33 422.66,-254.65 429.8,-262.49 433.12,-256.33"/>
</g>
<!-- Node36 -->
<g id="node36" class="node">
<title>Node36</title>
<g id="a_node36"><a xlink:href="Arguments_8hpp.html" target="_top" xlink:title=" ">
<polygon fill="white" stroke="black" points="188.13,-174 188.13,-193 303.13,-193 303.13,-174 188.13,-174"/>
<text text-anchor="middle" x="245.63" y="-181" font-family="Helvetica,sans-Serif" font-size="10.00">utils/Arguments.hpp</text>
</a>
</g>
</g>
<!-- Node34&#45;&gt;Node36 -->
<g id="edge52" class="edge">
<title>Node34&#45;&gt;Node36</title>
<path fill="none" stroke="midnightblue" d="M475.97,-291.45C448.41,-283.35 407.1,-270.2 372.63,-255 334.58,-238.22 292.85,-213.8 267.97,-198.55"/>
<polygon fill="midnightblue" stroke="midnightblue" points="269.65,-195.47 259.3,-193.19 265.96,-201.42 269.65,-195.47"/>
</g>
<!-- Node40 -->
<g id="node40" class="node">
<title>Node40</title>
<g id="a_node40"><a xlink:href="ConsoleManager_8hpp.html" target="_top" xlink:title="Définition de la classe ConsoleManager.">
<polygon fill="white" stroke="black" points="27.13,-174 27.13,-193 170.13,-193 170.13,-174 27.13,-174"/>
<text text-anchor="middle" x="98.63" y="-181" font-family="Helvetica,sans-Serif" font-size="10.00">utils/ConsoleManager.hpp</text>
</a>
</g>
</g>
<!-- Node34&#45;&gt;Node40 -->
<g id="edge59" class="edge">
<title>Node34&#45;&gt;Node40</title>
<path fill="none" stroke="midnightblue" d="M468.89,-293.09C432.51,-285.81 376.25,-272.91 329.63,-255 311.82,-248.16 309.43,-241.91 291.63,-235 246.04,-217.31 192.02,-203.77 152.75,-195.18"/>
<polygon fill="midnightblue" stroke="midnightblue" points="153.35,-191.73 142.84,-193.05 151.88,-198.58 153.35,-191.73"/>
</g>
<!-- Node42 -->
<g id="node42" class="node">
<title>Node42</title>
<g id="a_node42"><a xlink:href="Automate_8hpp.html" target="_top" xlink:title="Définition de la classe Automate.">
<polygon fill="white" stroke="black" points="450.13,-235.5 450.13,-254.5 563.13,-254.5 563.13,-235.5 450.13,-235.5"/>
<text text-anchor="middle" x="506.63" y="-242.5" font-family="Helvetica,sans-Serif" font-size="10.00">state/Automate.hpp</text>
</a>
</g>
</g>
<!-- Node34&#45;&gt;Node42 -->
<g id="edge64" class="edge">
<title>Node34&#45;&gt;Node42</title>
<path fill="none" stroke="midnightblue" d="M506.63,-291.08C506.63,-284.01 506.63,-273.86 506.63,-264.99"/>
<polygon fill="midnightblue" stroke="midnightblue" points="510.13,-264.75 506.63,-254.75 503.13,-264.75 510.13,-264.75"/>
</g>
<!-- Node36&#45;&gt;Node4 -->
<g id="edge55" class="edge">
<title>Node36&#45;&gt;Node4</title>
<path fill="none" stroke="midnightblue" d="M265.84,-173.98C289.98,-163.79 330.55,-146.67 357.94,-135.11"/>
<polygon fill="midnightblue" stroke="midnightblue" points="359.52,-138.24 367.38,-131.13 356.8,-131.79 359.52,-138.24"/>
</g>
<!-- Node36&#45;&gt;Node5 -->
<g id="edge56" class="edge">
<title>Node36&#45;&gt;Node5</title>
<path fill="none" stroke="midnightblue" d="M268.95,-173.91C286.67,-166 309.79,-152.37 320.63,-132 336.77,-101.68 285.45,-83.03 306.63,-56 325.02,-32.54 409.95,-19.68 457.38,-14.21"/>
<polygon fill="midnightblue" stroke="midnightblue" points="457.89,-17.68 467.45,-13.1 457.12,-10.72 457.89,-17.68"/>
</g>
<!-- Node37 -->
<g id="node37" class="node">
<title>Node37</title>
<g id="a_node37"><a xlink:title=" ">
<polygon fill="white" stroke="#bfbfbf" points="168.13,-112.5 168.13,-131.5 233.13,-131.5 233.13,-112.5 168.13,-112.5"/>
<text text-anchor="middle" x="200.63" y="-119.5" font-family="Helvetica,sans-Serif" font-size="10.00">functional</text>
</a>
</g>
</g>
<!-- Node36&#45;&gt;Node37 -->
<g id="edge53" class="edge">
<title>Node36&#45;&gt;Node37</title>
<path fill="none" stroke="midnightblue" d="M239.19,-173.98C232.44,-165.05 221.67,-150.81 213.22,-139.64"/>
<polygon fill="midnightblue" stroke="midnightblue" points="215.89,-137.37 207.07,-131.51 210.31,-141.6 215.89,-137.37"/>
</g>
<!-- Node38 -->
<g id="node38" class="node">
<title>Node38</title>
<g id="a_node38"><a xlink:title=" ">
<polygon fill="white" stroke="#bfbfbf" points="251.63,-112.5 251.63,-131.5 311.63,-131.5 311.63,-112.5 251.63,-112.5"/>
<text text-anchor="middle" x="281.63" y="-119.5" font-family="Helvetica,sans-Serif" font-size="10.00">iostream</text>
</a>
</g>
</g>
<!-- Node36&#45;&gt;Node38 -->
<g id="edge54" class="edge">
<title>Node36&#45;&gt;Node38</title>
<path fill="none" stroke="midnightblue" d="M250.79,-173.98C256.09,-165.23 264.47,-151.37 271.16,-140.31"/>
<polygon fill="midnightblue" stroke="midnightblue" points="274.3,-141.88 276.49,-131.51 268.31,-138.25 274.3,-141.88"/>
</g>
<!-- Node39 -->
<g id="node39" class="node">
<title>Node39</title>
<g id="a_node39"><a xlink:title=" ">
<polygon fill="white" stroke="#bfbfbf" points="103.13,-112.5 103.13,-131.5 150.13,-131.5 150.13,-112.5 103.13,-112.5"/>
<text text-anchor="middle" x="126.63" y="-119.5" font-family="Helvetica,sans-Serif" font-size="10.00">vector</text>
</a>
</g>
</g>
<!-- Node36&#45;&gt;Node39 -->
<g id="edge57" class="edge">
<title>Node36&#45;&gt;Node39</title>
<path fill="none" stroke="midnightblue" d="M228.58,-173.98C208.79,-164.08 175.92,-147.64 152.86,-136.12"/>
<polygon fill="midnightblue" stroke="midnightblue" points="154.16,-132.85 143.65,-131.51 151.03,-139.11 154.16,-132.85"/>
</g>
<!-- Node40&#45;&gt;Node5 -->
<g id="edge60" class="edge">
<title>Node40&#45;&gt;Node5</title>
<path fill="none" stroke="midnightblue" d="M95.08,-173.97C86.01,-150.7 65.05,-85.85 99.63,-56 126.56,-32.76 368.93,-17.5 457.45,-12.66"/>
<polygon fill="midnightblue" stroke="midnightblue" points="457.66,-16.15 467.46,-12.12 457.29,-9.16 457.66,-16.15"/>
</g>
<!-- Node40&#45;&gt;Node39 -->
<g id="edge61" class="edge">
<title>Node40&#45;&gt;Node39</title>
<path fill="none" stroke="midnightblue" d="M102.65,-173.98C106.72,-165.32 113.15,-151.65 118.33,-140.65"/>
<polygon fill="midnightblue" stroke="midnightblue" points="121.54,-142.05 122.63,-131.51 115.21,-139.07 121.54,-142.05"/>
</g>
<!-- Node41 -->
<g id="node41" class="node">
<title>Node41</title>
<g id="a_node41"><a xlink:href="FunctionalTest_8hpp.html" target="_top" xlink:title="Class definition for functional tests.">
<polygon fill="white" stroke="black" points="109.13,-56.5 109.13,-75.5 216.13,-75.5 216.13,-56.5 109.13,-56.5"/>
<text text-anchor="middle" x="162.63" y="-63.5" font-family="Helvetica,sans-Serif" font-size="10.00">FunctionalTest.hpp</text>
</a>
</g>
</g>
<!-- Node40&#45;&gt;Node41 -->
<g id="edge62" class="edge">
<title>Node40&#45;&gt;Node41</title>
<path fill="none" stroke="midnightblue" d="M95.12,-173.62C90.17,-159.59 82.88,-131.85 93.63,-112 101.38,-97.7 115.87,-87.22 129.57,-79.99"/>
<polygon fill="midnightblue" stroke="midnightblue" points="131.37,-83.01 138.85,-75.5 128.32,-76.71 131.37,-83.01"/>
</g>
<!-- Node41&#45;&gt;Node5 -->
<g id="edge63" class="edge">
<title>Node41&#45;&gt;Node5</title>
<path fill="none" stroke="midnightblue" d="M214.45,-56.44C282.63,-45.18 400.45,-25.73 457.21,-16.35"/>
<polygon fill="midnightblue" stroke="midnightblue" points="458.1,-19.75 467.4,-14.67 456.96,-12.85 458.1,-19.75"/>
</g>
<!-- Node42&#45;&gt;Node3 -->
<g id="edge66" class="edge">
<title>Node42&#45;&gt;Node3</title>
<path fill="none" stroke="midnightblue" d="M511.51,-235.48C516.5,-226.73 524.42,-212.87 530.74,-201.81"/>
<polygon fill="midnightblue" stroke="midnightblue" points="533.85,-203.43 535.77,-193.01 527.77,-199.96 533.85,-203.43"/>
</g>
<!-- Node43 -->
<g id="node43" class="node">
<title>Node43</title>
<g id="a_node43"><a xlink:title=" ">
<polygon fill="white" stroke="#bfbfbf" points="405.63,-174 405.63,-193 461.63,-193 461.63,-174 405.63,-174"/>
<text text-anchor="middle" x="433.63" y="-181" font-family="Helvetica,sans-Serif" font-size="10.00">stddef.h</text>
</a>
</g>
</g>
<!-- Node42&#45;&gt;Node43 -->
<g id="edge65" class="edge">
<title>Node42&#45;&gt;Node43</title>
<path fill="none" stroke="midnightblue" d="M496.18,-235.48C484.68,-226.11 466,-210.88 452.05,-199.51"/>
<polygon fill="midnightblue" stroke="midnightblue" points="454.04,-196.61 444.07,-193.01 449.61,-202.04 454.04,-196.61"/>
</g>
</g>
</svg>
