<?xml version="1.0" encoding="UTF-8" standalone="no"?>
<!DOCTYPE svg PUBLIC "-//W3C//DTD SVG 1.1//EN"
 "http://www.w3.org/Graphics/SVG/1.1/DTD/svg11.dtd">
<!-- Generated by graphviz version 2.43.0 (0)
 -->
<!-- Title: src/common/ia/IACommon.hpp Pages: 1 -->
<svg width="784pt" height="218pt"
 viewBox="0.00 0.00 784.00 218.00" xmlns="http://www.w3.org/2000/svg" xmlns:xlink="http://www.w3.org/1999/xlink">
<g id="graph0" class="graph" transform="scale(1 1) rotate(0) translate(4 214)">
<title>src/common/ia/IACommon.hpp</title>
<polygon fill="white" stroke="transparent" points="-4,4 -4,-214 780,-214 780,4 -4,4"/>
<!-- Node1 -->
<g id="node1" class="node">
<title>Node1</title>
<g id="a_node1"><a xlink:title=" ">
<polygon fill="#bfbfbf" stroke="black" points="222.5,-190.5 222.5,-209.5 389.5,-209.5 389.5,-190.5 222.5,-190.5"/>
<text text-anchor="middle" x="306" y="-197.5" font-family="Helvetica,sans-Serif" font-size="10.00">src/common/ia/IACommon.hpp</text>
</a>
</g>
</g>
<!-- Node2 -->
<g id="node2" class="node">
<title>Node2</title>
<g id="a_node2"><a xlink:href="IAbyPath_8hpp.html" target="_top" xlink:title=" ">
<polygon fill="white" stroke="black" points="141.5,-134.5 141.5,-153.5 296.5,-153.5 296.5,-134.5 141.5,-134.5"/>
<text text-anchor="middle" x="219" y="-141.5" font-family="Helvetica,sans-Serif" font-size="10.00">src/common/ia/IAbyPath.hpp</text>
</a>
</g>
</g>
<!-- Node1&#45;&gt;Node2 -->
<g id="edge1" class="edge">
<title>Node1&#45;&gt;Node2</title>
<path fill="none" stroke="midnightblue" d="M283.28,-184.9C267.33,-175 246.5,-162.07 232.94,-153.65"/>
<polygon fill="midnightblue" stroke="midnightblue" points="281.68,-188.02 292.02,-190.32 285.37,-182.08 281.68,-188.02"/>
</g>
<!-- Node10 -->
<g id="node10" class="node">
<title>Node10</title>
<g id="a_node10"><a xlink:href="IAbyZone_8hpp.html" target="_top" xlink:title=" ">
<polygon fill="white" stroke="black" points="314.5,-134.5 314.5,-153.5 473.5,-153.5 473.5,-134.5 314.5,-134.5"/>
<text text-anchor="middle" x="394" y="-141.5" font-family="Helvetica,sans-Serif" font-size="10.00">src/common/ia/IAbyZone.hpp</text>
</a>
</g>
</g>
<!-- Node1&#45;&gt;Node10 -->
<g id="edge11" class="edge">
<title>Node1&#45;&gt;Node10</title>
<path fill="none" stroke="midnightblue" d="M328.98,-184.9C345.11,-175 366.18,-162.07 379.9,-153.65"/>
<polygon fill="midnightblue" stroke="midnightblue" points="326.83,-182.11 320.14,-190.32 330.49,-188.08 326.83,-182.11"/>
</g>
<!-- Node3 -->
<g id="node3" class="node">
<title>Node3</title>
<g id="a_node3"><a xlink:href="O__IAbyPathTest_8cpp.html" target="_top" xlink:title="Implementation de la classe O_IAByPathTest.">
<polygon fill="white" stroke="black" points="0,-0.5 0,-30.5 150,-30.5 150,-0.5 0,-0.5"/>
<text text-anchor="start" x="8" y="-18.5" font-family="Helvetica,sans-Serif" font-size="10.00">src/bot&#45;opos6ul/O_IAbyPath</text>
<text text-anchor="middle" x="75" y="-7.5" font-family="Helvetica,sans-Serif" font-size="10.00">Test.cpp</text>
</a>
</g>
</g>
<!-- Node2&#45;&gt;Node3 -->
<g id="edge2" class="edge">
<title>Node2&#45;&gt;Node3</title>
<path fill="none" stroke="midnightblue" d="M183.29,-130.57C165.31,-123.09 144,-112.23 128,-98 106.18,-78.6 89.65,-48.2 81.22,-30.53"/>
<polygon fill="midnightblue" stroke="midnightblue" points="182.29,-133.94 192.88,-134.38 184.88,-127.43 182.29,-133.94"/>
</g>
<!-- Node4 -->
<g id="node4" class="node">
<title>Node4</title>
<g id="a_node4"><a xlink:href="O__State__DecisionMakerIA_8cpp.html" target="_top" xlink:title="Implémentation de la classe O_State_DecisionMakerIA.">
<polygon fill="white" stroke="black" points="168.5,-0.5 168.5,-30.5 301.5,-30.5 301.5,-0.5 168.5,-0.5"/>
<text text-anchor="start" x="176.5" y="-18.5" font-family="Helvetica,sans-Serif" font-size="10.00">src/bot&#45;opos6ul/O_State</text>
<text text-anchor="middle" x="235" y="-7.5" font-family="Helvetica,sans-Serif" font-size="10.00">_DecisionMakerIA.cpp</text>
</a>
</g>
</g>
<!-- Node2&#45;&gt;Node4 -->
<g id="edge3" class="edge">
<title>Node2&#45;&gt;Node4</title>
<path fill="none" stroke="midnightblue" d="M177.63,-130.5C162.07,-123.55 145.97,-113.16 137,-98 129.98,-86.14 129.83,-78.76 137,-67 147.46,-49.84 165.83,-38.26 183.85,-30.57"/>
<polygon fill="midnightblue" stroke="midnightblue" points="176.61,-133.86 187.19,-134.38 179.25,-127.37 176.61,-133.86"/>
</g>
<!-- Node5 -->
<g id="node5" class="node">
<title>Node5</title>
<g id="a_node5"><a xlink:href="OPOS6UL__IAExtended_8hpp.html" target="_top" xlink:title="Extension de l&#39;intelligence artificielle pour la carte OPOS6UL.">
<polygon fill="white" stroke="black" points="320,-67.5 320,-97.5 460,-97.5 460,-67.5 320,-67.5"/>
<text text-anchor="start" x="328" y="-85.5" font-family="Helvetica,sans-Serif" font-size="10.00">src/bot&#45;opos6ul/OPOS6UL</text>
<text text-anchor="middle" x="390" y="-74.5" font-family="Helvetica,sans-Serif" font-size="10.00">_IAExtended.hpp</text>
</a>
</g>
</g>
<!-- Node2&#45;&gt;Node5 -->
<g id="edge4" class="edge">
<title>Node2&#45;&gt;Node5</title>
<path fill="none" stroke="midnightblue" d="M253.19,-131.1C281.02,-121.42 320.34,-107.74 349.7,-97.52"/>
<polygon fill="midnightblue" stroke="midnightblue" points="251.79,-127.88 243.5,-134.48 254.09,-134.49 251.79,-127.88"/>
</g>
<!-- Node9 -->
<g id="node9" class="node">
<title>Node9</title>
<g id="a_node9"><a xlink:href="IAbyPath_8cpp.html" target="_top" xlink:title=" ">
<polygon fill="white" stroke="black" points="146.5,-73 146.5,-92 301.5,-92 301.5,-73 146.5,-73"/>
<text text-anchor="middle" x="224" y="-80" font-family="Helvetica,sans-Serif" font-size="10.00">src/common/ia/IAbyPath.cpp</text>
</a>
</g>
</g>
<!-- Node2&#45;&gt;Node9 -->
<g id="edge10" class="edge">
<title>Node2&#45;&gt;Node9</title>
<path fill="none" stroke="midnightblue" d="M220.57,-124.32C221.48,-113.5 222.58,-100.4 223.28,-92.01"/>
<polygon fill="midnightblue" stroke="midnightblue" points="217.07,-124.22 219.72,-134.48 224.04,-124.8 217.07,-124.22"/>
</g>
<!-- Node5&#45;&gt;Node3 -->
<g id="edge5" class="edge">
<title>Node5&#45;&gt;Node3</title>
<path fill="none" stroke="midnightblue" d="M312.22,-65.45C260.36,-54.75 192.85,-40.82 143.11,-30.55"/>
<polygon fill="midnightblue" stroke="midnightblue" points="311.54,-68.88 322.04,-67.48 312.95,-62.03 311.54,-68.88"/>
</g>
<!-- Node5&#45;&gt;Node4 -->
<g id="edge6" class="edge">
<title>Node5&#45;&gt;Node4</title>
<path fill="none" stroke="midnightblue" d="M346.85,-63.41C322.11,-53.03 291.5,-40.2 268.57,-30.58"/>
<polygon fill="midnightblue" stroke="midnightblue" points="345.79,-66.76 356.37,-67.4 348.5,-60.3 345.79,-66.76"/>
</g>
<!-- Node6 -->
<g id="node6" class="node">
<title>Node6</title>
<g id="a_node6"><a xlink:href="OPOS6UL__AsservExtended_8cpp.html" target="_top" xlink:title="Implémentation de la classe OPOS6UL_AsservExtended.">
<polygon fill="white" stroke="black" points="320,-0.5 320,-30.5 460,-30.5 460,-0.5 320,-0.5"/>
<text text-anchor="start" x="328" y="-18.5" font-family="Helvetica,sans-Serif" font-size="10.00">src/bot&#45;opos6ul/OPOS6UL</text>
<text text-anchor="middle" x="390" y="-7.5" font-family="Helvetica,sans-Serif" font-size="10.00">_AsservExtended.cpp</text>
</a>
</g>
</g>
<!-- Node5&#45;&gt;Node6 -->
<g id="edge7" class="edge">
<title>Node5&#45;&gt;Node6</title>
<path fill="none" stroke="midnightblue" d="M390,-57.11C390,-48.15 390,-38.32 390,-30.58"/>
<polygon fill="midnightblue" stroke="midnightblue" points="386.5,-57.4 390,-67.4 393.5,-57.4 386.5,-57.4"/>
</g>
<!-- Node7 -->
<g id="node7" class="node">
<title>Node7</title>
<g id="a_node7"><a xlink:href="OPOS6UL__IAExtended_8cpp.html" target="_top" xlink:title="Implémentation de la classe OPOS6UL_IAExtended.">
<polygon fill="white" stroke="black" points="478,-0.5 478,-30.5 618,-30.5 618,-0.5 478,-0.5"/>
<text text-anchor="start" x="486" y="-18.5" font-family="Helvetica,sans-Serif" font-size="10.00">src/bot&#45;opos6ul/OPOS6UL</text>
<text text-anchor="middle" x="548" y="-7.5" font-family="Helvetica,sans-Serif" font-size="10.00">_IAExtended.cpp</text>
</a>
</g>
</g>
<!-- Node5&#45;&gt;Node7 -->
<g id="edge8" class="edge">
<title>Node5&#45;&gt;Node7</title>
<path fill="none" stroke="midnightblue" d="M433.65,-63.54C458.93,-53.14 490.3,-40.24 513.78,-30.58"/>
<polygon fill="midnightblue" stroke="midnightblue" points="432.2,-60.35 424.28,-67.4 434.86,-66.83 432.2,-60.35"/>
</g>
<!-- Node8 -->
<g id="node8" class="node">
<title>Node8</title>
<g id="a_node8"><a xlink:href="OPOS6UL__RobotExtended_8cpp.html" target="_top" xlink:title="Implémentation de la classe OPOS6UL_RobotExtended.">
<polygon fill="white" stroke="black" points="636,-0.5 636,-30.5 776,-30.5 776,-0.5 636,-0.5"/>
<text text-anchor="start" x="644" y="-18.5" font-family="Helvetica,sans-Serif" font-size="10.00">src/bot&#45;opos6ul/OPOS6UL</text>
<text text-anchor="middle" x="706" y="-7.5" font-family="Helvetica,sans-Serif" font-size="10.00">_RobotExtended.cpp</text>
</a>
</g>
</g>
<!-- Node5&#45;&gt;Node8 -->
<g id="edge9" class="edge">
<title>Node5&#45;&gt;Node8</title>
<path fill="none" stroke="midnightblue" d="M468.03,-65.45C520.05,-54.75 587.78,-40.82 637.67,-30.55"/>
<polygon fill="midnightblue" stroke="midnightblue" points="467.27,-62.03 458.18,-67.48 468.68,-68.89 467.27,-62.03"/>
</g>
<!-- Node10&#45;&gt;Node5 -->
<g id="edge12" class="edge">
<title>Node10&#45;&gt;Node5</title>
<path fill="none" stroke="midnightblue" d="M392.74,-124.23C392.16,-115.59 391.48,-105.5 390.94,-97.52"/>
<polygon fill="midnightblue" stroke="midnightblue" points="389.26,-124.73 393.43,-134.48 396.25,-124.26 389.26,-124.73"/>
</g>
<!-- Node11 -->
<g id="node11" class="node">
<title>Node11</title>
<g id="a_node11"><a xlink:href="IAbyZone_8cpp.html" target="_top" xlink:title=" ">
<polygon fill="white" stroke="black" points="478,-73 478,-92 636,-92 636,-73 478,-73"/>
<text text-anchor="middle" x="557" y="-80" font-family="Helvetica,sans-Serif" font-size="10.00">src/common/ia/IAbyZone.cpp</text>
</a>
</g>
</g>
<!-- Node10&#45;&gt;Node11 -->
<g id="edge13" class="edge">
<title>Node10&#45;&gt;Node11</title>
<path fill="none" stroke="midnightblue" d="M427.06,-130.93C458.74,-119.37 505.75,-102.21 533.69,-92.01"/>
<polygon fill="midnightblue" stroke="midnightblue" points="425.55,-127.76 417.35,-134.48 427.95,-134.33 425.55,-127.76"/>
</g>
</g>
</svg>
