<?xml version="1.0" encoding="UTF-8" standalone="no"?>
<!DOCTYPE svg PUBLIC "-//W3C//DTD SVG 1.1//EN"
 "http://www.w3.org/Graphics/SVG/1.1/DTD/svg11.dtd">
<!-- Generated by graphviz version 2.43.0 (0)
 -->
<!-- Title: Graphe hiérarchique des classes Pages: 1 -->
<svg width="204pt" height="66pt"
 viewBox="0.00 0.00 204.00 66.00" xmlns="http://www.w3.org/2000/svg" xmlns:xlink="http://www.w3.org/1999/xlink">
<g id="graph0" class="graph" transform="scale(1 1) rotate(0) translate(4 62)">
<title>Graphe hiérarchique des classes</title>
<polygon fill="white" stroke="transparent" points="-4,4 -4,-62 200,-62 200,4 -4,4"/>
<!-- Node0 -->
<g id="node1" class="node">
<title>Node0</title>
<g id="a_node1"><a xlink:href="classALedDriver.html" target="_top" xlink:title="Interface abstraite du driver de LEDs.">
<polygon fill="white" stroke="black" points="0,-19.5 0,-38.5 71,-38.5 71,-19.5 0,-19.5"/>
<text text-anchor="middle" x="35.5" y="-26.5" font-family="Helvetica,sans-Serif" font-size="10.00">ALedDriver</text>
</a>
</g>
</g>
<!-- Node1 -->
<g id="node2" class="node">
<title>Node1</title>
<g id="a_node2"><a xlink:href="classLedDriver.html" target="_top" xlink:title="Implementation ARM du driver de LEDs.">
<polygon fill="white" stroke="black" points="119.5,-38.5 119.5,-57.5 183.5,-57.5 183.5,-38.5 119.5,-38.5"/>
<text text-anchor="middle" x="151.5" y="-45.5" font-family="Helvetica,sans-Serif" font-size="10.00">LedDriver</text>
</a>
</g>
</g>
<!-- Node0&#45;&gt;Node1 -->
<g id="edge1" class="edge">
<title>Node0&#45;&gt;Node1</title>
<path fill="none" stroke="midnightblue" d="M81.01,-36.42C93.78,-38.55 107.42,-40.82 119.21,-42.78"/>
<polygon fill="midnightblue" stroke="midnightblue" points="81.45,-32.94 71.01,-34.75 80.3,-39.85 81.45,-32.94"/>
</g>
<!-- Node2 -->
<g id="node3" class="node">
<title>Node2</title>
<g id="a_node3"><a xlink:href="classLedDriverSimu.html" target="_top" xlink:title="Implementation simulation du driver de LEDs.">
<polygon fill="white" stroke="black" points="107,-0.5 107,-19.5 196,-19.5 196,-0.5 107,-0.5"/>
<text text-anchor="middle" x="151.5" y="-7.5" font-family="Helvetica,sans-Serif" font-size="10.00">LedDriverSimu</text>
</a>
</g>
</g>
<!-- Node0&#45;&gt;Node2 -->
<g id="edge2" class="edge">
<title>Node0&#45;&gt;Node2</title>
<path fill="none" stroke="midnightblue" d="M81.08,-21.57C89.54,-20.16 98.38,-18.69 106.81,-17.28"/>
<polygon fill="midnightblue" stroke="midnightblue" points="80.3,-18.15 71.01,-23.25 81.45,-25.06 80.3,-18.15"/>
</g>
</g>
</svg>
