<?xml version="1.0" encoding="UTF-8" standalone="no"?>
<!DOCTYPE svg PUBLIC "-//W3C//DTD SVG 1.1//EN"
 "http://www.w3.org/Graphics/SVG/1.1/DTD/svg11.dtd">
<!-- Generated by graphviz version 2.43.0 (0)
 -->
<!-- Title: Graphe hiérarchique des classes Pages: 1 -->
<svg width="224pt" height="104pt"
 viewBox="0.00 0.00 224.00 104.00" xmlns="http://www.w3.org/2000/svg" xmlns:xlink="http://www.w3.org/1999/xlink">
<g id="graph0" class="graph" transform="scale(1 1) rotate(0) translate(4 100)">
<title>Graphe hiérarchique des classes</title>
<polygon fill="white" stroke="transparent" points="-4,4 -4,-100 220,-100 220,4 -4,4"/>
<!-- Node0 -->
<g id="node1" class="node">
<title>Node0</title>
<g id="a_node1"><a xlink:href="classAServoDriver.html" target="_top" xlink:title="Interface abstraite du driver de servomoteurs.">
<polygon fill="white" stroke="black" points="0,-38.5 0,-57.5 81,-57.5 81,-38.5 0,-38.5"/>
<text text-anchor="middle" x="40.5" y="-45.5" font-family="Helvetica,sans-Serif" font-size="10.00">AServoDriver</text>
</a>
</g>
</g>
<!-- Node1 -->
<g id="node2" class="node">
<title>Node1</title>
<g id="a_node2"><a xlink:href="classDynamixelDriver.html" target="_top" xlink:title=" ">
<polygon fill="white" stroke="black" points="117,-76.5 117,-95.5 216,-95.5 216,-76.5 117,-76.5"/>
<text text-anchor="middle" x="166.5" y="-83.5" font-family="Helvetica,sans-Serif" font-size="10.00">DynamixelDriver</text>
</a>
</g>
</g>
<!-- Node0&#45;&gt;Node1 -->
<g id="edge1" class="edge">
<title>Node0&#45;&gt;Node1</title>
<path fill="none" stroke="midnightblue" d="M82.4,-60.54C99.27,-65.7 118.51,-71.6 134.22,-76.41"/>
<polygon fill="midnightblue" stroke="midnightblue" points="83.38,-57.17 72.79,-57.59 81.33,-63.87 83.38,-57.17"/>
</g>
<!-- Node2 -->
<g id="node3" class="node">
<title>Node2</title>
<g id="a_node3"><a xlink:href="classServoDriver.html" target="_top" xlink:title=" ">
<polygon fill="white" stroke="black" points="129.5,-38.5 129.5,-57.5 203.5,-57.5 203.5,-38.5 129.5,-38.5"/>
<text text-anchor="middle" x="166.5" y="-45.5" font-family="Helvetica,sans-Serif" font-size="10.00">ServoDriver</text>
</a>
</g>
</g>
<!-- Node0&#45;&gt;Node2 -->
<g id="edge2" class="edge">
<title>Node0&#45;&gt;Node2</title>
<path fill="none" stroke="midnightblue" d="M91.1,-48C103.84,-48 117.31,-48 129.24,-48"/>
<polygon fill="midnightblue" stroke="midnightblue" points="91.08,-44.5 81.08,-48 91.08,-51.5 91.08,-44.5"/>
</g>
<!-- Node3 -->
<g id="node4" class="node">
<title>Node3</title>
<g id="a_node4"><a xlink:href="classServoDriverSimu.html" target="_top" xlink:title=" ">
<polygon fill="white" stroke="black" points="117,-0.5 117,-19.5 216,-19.5 216,-0.5 117,-0.5"/>
<text text-anchor="middle" x="166.5" y="-7.5" font-family="Helvetica,sans-Serif" font-size="10.00">ServoDriverSimu</text>
</a>
</g>
</g>
<!-- Node0&#45;&gt;Node3 -->
<g id="edge3" class="edge">
<title>Node0&#45;&gt;Node3</title>
<path fill="none" stroke="midnightblue" d="M82.4,-35.46C99.27,-30.3 118.51,-24.4 134.22,-19.59"/>
<polygon fill="midnightblue" stroke="midnightblue" points="81.33,-32.13 72.79,-38.41 83.38,-38.83 81.33,-32.13"/>
</g>
</g>
</svg>
