<?xml version="1.0" encoding="UTF-8" standalone="no"?>
<!DOCTYPE svg PUBLIC "-//W3C//DTD SVG 1.1//EN"
 "http://www.w3.org/Graphics/SVG/1.1/DTD/svg11.dtd">
<!-- Generated by graphviz version 2.43.0 (0)
 -->
<!-- Title: src/driver&#45;arm/old_drivers/IrSensor.hpp Pages: 1 -->
<svg width="603pt" height="263pt"
 viewBox="0.00 0.00 603.00 263.00" xmlns="http://www.w3.org/2000/svg" xmlns:xlink="http://www.w3.org/1999/xlink">
<g id="graph0" class="graph" transform="scale(1 1) rotate(0) translate(4 259)">
<title>src/driver&#45;arm/old_drivers/IrSensor.hpp</title>
<polygon fill="white" stroke="transparent" points="-4,4 -4,-259 599,-259 599,4 -4,4"/>
<!-- Node1 -->
<g id="node1" class="node">
<title>Node1</title>
<g id="a_node1"><a xlink:title="Définition de la classe IrSensor.">
<polygon fill="#bfbfbf" stroke="black" points="33.5,-224.5 33.5,-254.5 152.5,-254.5 152.5,-224.5 33.5,-224.5"/>
<text text-anchor="start" x="41.5" y="-242.5" font-family="Helvetica,sans-Serif" font-size="10.00">src/driver&#45;arm/old</text>
<text text-anchor="middle" x="93" y="-231.5" font-family="Helvetica,sans-Serif" font-size="10.00">_drivers/IrSensor.hpp</text>
</a>
</g>
</g>
<!-- Node2 -->
<g id="node2" class="node">
<title>Node2</title>
<g id="a_node2"><a xlink:title=" ">
<polygon fill="white" stroke="#bfbfbf" points="0,-168.5 0,-187.5 72,-187.5 72,-168.5 0,-168.5"/>
<text text-anchor="middle" x="36" y="-175.5" font-family="Helvetica,sans-Serif" font-size="10.00">sys/types.h</text>
</a>
</g>
</g>
<!-- Node1&#45;&gt;Node2 -->
<g id="edge1" class="edge">
<title>Node1&#45;&gt;Node2</title>
<path fill="none" stroke="midnightblue" d="M79.49,-224.4C71.04,-215.58 60.12,-204.18 51.34,-195.02"/>
<polygon fill="midnightblue" stroke="midnightblue" points="53.74,-192.46 44.29,-187.66 48.68,-197.3 53.74,-192.46"/>
</g>
<!-- Node3 -->
<g id="node3" class="node">
<title>Node3</title>
<g id="a_node3"><a xlink:href="LoggerFactory_8hpp.html" target="_top" xlink:title="Définition de la classe LoggerFactory.">
<polygon fill="white" stroke="black" points="90,-168.5 90,-187.5 212,-187.5 212,-168.5 90,-168.5"/>
<text text-anchor="middle" x="151" y="-175.5" font-family="Helvetica,sans-Serif" font-size="10.00">log/LoggerFactory.hpp</text>
</a>
</g>
</g>
<!-- Node1&#45;&gt;Node3 -->
<g id="edge2" class="edge">
<title>Node1&#45;&gt;Node3</title>
<path fill="none" stroke="midnightblue" d="M106.75,-224.4C115.35,-215.58 126.45,-204.18 135.39,-195.02"/>
<polygon fill="midnightblue" stroke="midnightblue" points="138.09,-197.26 142.56,-187.66 133.07,-192.38 138.09,-197.26"/>
</g>
<!-- Node4 -->
<g id="node4" class="node">
<title>Node4</title>
<g id="a_node4"><a xlink:title=" ">
<polygon fill="white" stroke="#bfbfbf" points="29,-112.5 29,-131.5 67,-131.5 67,-112.5 29,-112.5"/>
<text text-anchor="middle" x="48" y="-119.5" font-family="Helvetica,sans-Serif" font-size="10.00">map</text>
</a>
</g>
</g>
<!-- Node3&#45;&gt;Node4 -->
<g id="edge3" class="edge">
<title>Node3&#45;&gt;Node4</title>
<path fill="none" stroke="midnightblue" d="M134.45,-168.32C118.01,-159.7 92.57,-146.36 73.53,-136.39"/>
<polygon fill="midnightblue" stroke="midnightblue" points="74.99,-133.2 64.51,-131.65 71.74,-139.4 74.99,-133.2"/>
</g>
<!-- Node5 -->
<g id="node5" class="node">
<title>Node5</title>
<g id="a_node5"><a xlink:title=" ">
<polygon fill="white" stroke="#bfbfbf" points="215,-0.5 215,-19.5 259,-19.5 259,-0.5 215,-0.5"/>
<text text-anchor="middle" x="237" y="-7.5" font-family="Helvetica,sans-Serif" font-size="10.00">string</text>
</a>
</g>
</g>
<!-- Node3&#45;&gt;Node5 -->
<g id="edge4" class="edge">
<title>Node3&#45;&gt;Node5</title>
<path fill="none" stroke="midnightblue" d="M143.61,-168.29C126.69,-147.22 88.45,-92.55 114,-56 134.3,-26.95 175.48,-16.59 204.58,-12.94"/>
<polygon fill="midnightblue" stroke="midnightblue" points="205.12,-16.4 214.7,-11.87 204.39,-9.44 205.12,-16.4"/>
</g>
<!-- Node6 -->
<g id="node6" class="node">
<title>Node6</title>
<g id="a_node6"><a xlink:href="Thread_8hpp.html" target="_top" xlink:title="Définition de la classe Thread.">
<polygon fill="white" stroke="black" points="374.5,-112.5 374.5,-131.5 489.5,-131.5 489.5,-112.5 374.5,-112.5"/>
<text text-anchor="middle" x="432" y="-119.5" font-family="Helvetica,sans-Serif" font-size="10.00">../thread/Thread.hpp</text>
</a>
</g>
</g>
<!-- Node3&#45;&gt;Node6 -->
<g id="edge5" class="edge">
<title>Node3&#45;&gt;Node6</title>
<path fill="none" stroke="midnightblue" d="M195.53,-168.44C244.96,-158.94 324.75,-143.61 377.78,-133.42"/>
<polygon fill="midnightblue" stroke="midnightblue" points="378.52,-136.84 387.68,-131.52 377.2,-129.97 378.52,-136.84"/>
</g>
<!-- Node11 -->
<g id="node11" class="node">
<title>Node11</title>
<g id="a_node11"><a xlink:href="Logger_8hpp.html" target="_top" xlink:title="Définition de la classe Logger.">
<polygon fill="white" stroke="black" points="172,-112.5 172,-131.5 242,-131.5 242,-112.5 172,-112.5"/>
<text text-anchor="middle" x="207" y="-119.5" font-family="Helvetica,sans-Serif" font-size="10.00">Logger.hpp</text>
</a>
</g>
</g>
<!-- Node3&#45;&gt;Node11 -->
<g id="edge12" class="edge">
<title>Node3&#45;&gt;Node11</title>
<path fill="none" stroke="midnightblue" d="M160,-168.32C168.19,-160.42 180.51,-148.55 190.47,-138.94"/>
<polygon fill="midnightblue" stroke="midnightblue" points="193.07,-141.29 197.84,-131.83 188.21,-136.26 193.07,-141.29"/>
</g>
<!-- Node6&#45;&gt;Node5 -->
<g id="edge7" class="edge">
<title>Node6&#45;&gt;Node5</title>
<path fill="none" stroke="midnightblue" d="M429.34,-112.42C424.56,-98.47 413.2,-70.92 394,-56 357.43,-27.59 303.62,-17.11 269.45,-13.25"/>
<polygon fill="midnightblue" stroke="midnightblue" points="269.39,-9.73 259.09,-12.22 268.7,-16.69 269.39,-9.73"/>
</g>
<!-- Node7 -->
<g id="node7" class="node">
<title>Node7</title>
<g id="a_node7"><a xlink:title=" ">
<polygon fill="white" stroke="#bfbfbf" points="369.5,-0.5 369.5,-19.5 432.5,-19.5 432.5,-0.5 369.5,-0.5"/>
<text text-anchor="middle" x="401" y="-7.5" font-family="Helvetica,sans-Serif" font-size="10.00">pthread.h</text>
</a>
</g>
</g>
<!-- Node6&#45;&gt;Node7 -->
<g id="edge6" class="edge">
<title>Node6&#45;&gt;Node7</title>
<path fill="none" stroke="midnightblue" d="M432.53,-112.36C433.05,-99.69 433.03,-75.46 427,-56 423.97,-46.21 418.51,-36.25 413.37,-28.2"/>
<polygon fill="midnightblue" stroke="midnightblue" points="416.16,-26.07 407.66,-19.75 410.36,-29.99 416.16,-26.07"/>
</g>
<!-- Node8 -->
<g id="node8" class="node">
<title>Node8</title>
<g id="a_node8"><a xlink:title=" ">
<polygon fill="white" stroke="#bfbfbf" points="479,-56.5 479,-75.5 527,-75.5 527,-56.5 479,-56.5"/>
<text text-anchor="middle" x="503" y="-63.5" font-family="Helvetica,sans-Serif" font-size="10.00">thread</text>
</a>
</g>
</g>
<!-- Node6&#45;&gt;Node8 -->
<g id="edge8" class="edge">
<title>Node6&#45;&gt;Node8</title>
<path fill="none" stroke="midnightblue" d="M443.41,-112.32C454.11,-104.18 470.34,-91.84 483.16,-82.09"/>
<polygon fill="midnightblue" stroke="midnightblue" points="485.54,-84.67 491.39,-75.83 481.31,-79.1 485.54,-84.67"/>
</g>
<!-- Node9 -->
<g id="node9" class="node">
<title>Node9</title>
<g id="a_node9"><a xlink:href="Mutex_8hpp.html" target="_top" xlink:title="Définition de la classe Mutex.">
<polygon fill="white" stroke="black" points="317,-56.5 317,-75.5 385,-75.5 385,-56.5 317,-56.5"/>
<text text-anchor="middle" x="351" y="-63.5" font-family="Helvetica,sans-Serif" font-size="10.00">Mutex.hpp</text>
</a>
</g>
</g>
<!-- Node6&#45;&gt;Node9 -->
<g id="edge9" class="edge">
<title>Node6&#45;&gt;Node9</title>
<path fill="none" stroke="midnightblue" d="M418.99,-112.32C406.47,-103.98 387.32,-91.21 372.53,-81.35"/>
<polygon fill="midnightblue" stroke="midnightblue" points="374.24,-78.29 363.98,-75.65 370.36,-84.11 374.24,-78.29"/>
</g>
<!-- Node10 -->
<g id="node10" class="node">
<title>Node10</title>
<g id="a_node10"><a xlink:title=" ">
<polygon fill="white" stroke="#bfbfbf" points="545,-56.5 545,-75.5 595,-75.5 595,-56.5 545,-56.5"/>
<text text-anchor="middle" x="570" y="-63.5" font-family="Helvetica,sans-Serif" font-size="10.00">chrono</text>
</a>
</g>
</g>
<!-- Node6&#45;&gt;Node10 -->
<g id="edge11" class="edge">
<title>Node6&#45;&gt;Node10</title>
<path fill="none" stroke="midnightblue" d="M453.87,-112.44C476.78,-103.48 512.98,-89.31 538.87,-79.18"/>
<polygon fill="midnightblue" stroke="midnightblue" points="540.2,-82.42 548.24,-75.52 537.65,-75.9 540.2,-82.42"/>
</g>
<!-- Node9&#45;&gt;Node7 -->
<g id="edge10" class="edge">
<title>Node9&#45;&gt;Node7</title>
<path fill="none" stroke="midnightblue" d="M359.26,-56.08C366.46,-48.3 377.11,-36.8 385.85,-27.37"/>
<polygon fill="midnightblue" stroke="midnightblue" points="388.67,-29.47 392.9,-19.75 383.53,-24.71 388.67,-29.47"/>
</g>
<!-- Node11&#45;&gt;Node5 -->
<g id="edge14" class="edge">
<title>Node11&#45;&gt;Node5</title>
<path fill="none" stroke="midnightblue" d="M209.35,-112.37C214.22,-94.54 225.46,-53.3 232.02,-29.27"/>
<polygon fill="midnightblue" stroke="midnightblue" points="235.4,-30.16 234.66,-19.59 228.65,-28.32 235.4,-30.16"/>
</g>
<!-- Node11&#45;&gt;Node9 -->
<g id="edge15" class="edge">
<title>Node11&#45;&gt;Node9</title>
<path fill="none" stroke="midnightblue" d="M229.82,-112.44C253.83,-103.44 291.83,-89.19 318.87,-79.05"/>
<polygon fill="midnightblue" stroke="midnightblue" points="320.16,-82.3 328.29,-75.52 317.7,-75.75 320.16,-82.3"/>
</g>
<!-- Node12 -->
<g id="node12" class="node">
<title>Node12</title>
<g id="a_node12"><a xlink:title=" ">
<polygon fill="white" stroke="#bfbfbf" points="123,-56.5 123,-75.5 179,-75.5 179,-56.5 123,-56.5"/>
<text text-anchor="middle" x="151" y="-63.5" font-family="Helvetica,sans-Serif" font-size="10.00">sstream</text>
</a>
</g>
</g>
<!-- Node11&#45;&gt;Node12 -->
<g id="edge13" class="edge">
<title>Node11&#45;&gt;Node12</title>
<path fill="none" stroke="midnightblue" d="M198,-112.32C189.81,-104.42 177.49,-92.55 167.53,-82.94"/>
<polygon fill="midnightblue" stroke="midnightblue" points="169.79,-80.26 160.16,-75.83 164.93,-85.29 169.79,-80.26"/>
</g>
<!-- Node13 -->
<g id="node13" class="node">
<title>Node13</title>
<g id="a_node13"><a xlink:href="Level_8hpp.html" target="_top" xlink:title="Définition de la classe Level.">
<polygon fill="white" stroke="black" points="235,-56.5 235,-75.5 299,-75.5 299,-56.5 235,-56.5"/>
<text text-anchor="middle" x="267" y="-63.5" font-family="Helvetica,sans-Serif" font-size="10.00">Level.hpp</text>
</a>
</g>
</g>
<!-- Node11&#45;&gt;Node13 -->
<g id="edge16" class="edge">
<title>Node11&#45;&gt;Node13</title>
<path fill="none" stroke="midnightblue" d="M216.64,-112.32C225.51,-104.34 238.87,-92.31 249.61,-82.65"/>
<polygon fill="midnightblue" stroke="midnightblue" points="252.09,-85.13 257.18,-75.83 247.41,-79.92 252.09,-85.13"/>
</g>
<!-- Node13&#45;&gt;Node5 -->
<g id="edge17" class="edge">
<title>Node13&#45;&gt;Node5</title>
<path fill="none" stroke="midnightblue" d="M262.05,-56.08C257.9,-48.61 251.85,-37.72 246.73,-28.52"/>
<polygon fill="midnightblue" stroke="midnightblue" points="249.78,-26.79 241.86,-19.75 243.66,-30.19 249.78,-26.79"/>
</g>
</g>
</svg>
