<?xml version="1.0" encoding="UTF-8" standalone="no"?>
<!DOCTYPE svg PUBLIC "-//W3C//DTD SVG 1.1//EN"
 "http://www.w3.org/Graphics/SVG/1.1/DTD/svg11.dtd">
<!-- Generated by graphviz version 2.43.0 (0)
 -->
<!-- Title: src/common/utils/itoa.hpp Pages: 1 -->
<svg width="332pt" height="84pt"
 viewBox="0.00 0.00 331.50 84.00" xmlns="http://www.w3.org/2000/svg" xmlns:xlink="http://www.w3.org/1999/xlink">
<g id="graph0" class="graph" transform="scale(1 1) rotate(0) translate(4 80)">
<title>src/common/utils/itoa.hpp</title>
<polygon fill="white" stroke="transparent" points="-4,4 -4,-80 327.5,-80 327.5,4 -4,4"/>
<!-- Node1 -->
<g id="node1" class="node">
<title>Node1</title>
<g id="a_node1"><a xlink:title=" ">
<polygon fill="#bfbfbf" stroke="black" points="85,-56.5 85,-75.5 228,-75.5 228,-56.5 85,-56.5"/>
<text text-anchor="middle" x="156.5" y="-63.5" font-family="Helvetica,sans-Serif" font-size="10.00">src/common/utils/itoa.hpp</text>
</a>
</g>
</g>
<!-- Node2 -->
<g id="node2" class="node">
<title>Node2</title>
<g id="a_node2"><a xlink:href="itoa_8cpp.html" target="_top" xlink:title=" ">
<polygon fill="white" stroke="black" points="0,-0.5 0,-19.5 143,-19.5 143,-0.5 0,-0.5"/>
<text text-anchor="middle" x="71.5" y="-7.5" font-family="Helvetica,sans-Serif" font-size="10.00">src/common/utils/itoa.cpp</text>
</a>
</g>
</g>
<!-- Node1&#45;&gt;Node2 -->
<g id="edge1" class="edge">
<title>Node1&#45;&gt;Node2</title>
<path fill="none" stroke="midnightblue" d="M134.31,-50.9C118.72,-41 98.37,-28.07 85.12,-19.65"/>
<polygon fill="midnightblue" stroke="midnightblue" points="132.53,-53.92 142.84,-56.32 136.28,-48.01 132.53,-53.92"/>
</g>
<!-- Node3 -->
<g id="node3" class="node">
<title>Node3</title>
<g id="a_node3"><a xlink:href="WString_8cpp.html" target="_top" xlink:title=" ">
<polygon fill="white" stroke="black" points="161.5,-0.5 161.5,-19.5 323.5,-19.5 323.5,-0.5 161.5,-0.5"/>
<text text-anchor="middle" x="242.5" y="-7.5" font-family="Helvetica,sans-Serif" font-size="10.00">src/common/utils/WString.cpp</text>
</a>
</g>
</g>
<!-- Node1&#45;&gt;Node3 -->
<g id="edge2" class="edge">
<title>Node1&#45;&gt;Node3</title>
<path fill="none" stroke="midnightblue" d="M178.95,-50.9C194.72,-41 215.31,-28.07 228.72,-19.65"/>
<polygon fill="midnightblue" stroke="midnightblue" points="176.93,-48.04 170.32,-56.32 180.65,-53.97 176.93,-48.04"/>
</g>
</g>
</svg>
