<?xml version="1.0" encoding="UTF-8" standalone="no"?>
<!DOCTYPE svg PUBLIC "-//W3C//DTD SVG 1.1//EN"
 "http://www.w3.org/Graphics/SVG/1.1/DTD/svg11.dtd">
<!-- Generated by graphviz version 2.43.0 (0)
 -->
<!-- Title: src/common/action/LedBar.cpp Pages: 1 -->
<!--zoomable 364 -->
<svg id="main" version="1.1" xmlns="http://www.w3.org/2000/svg" xmlns:xlink="http://www.w3.org/1999/xlink" xml:space="preserve" onload="init(evt)">
<style type="text/css"><![CDATA[
.edge:hover path { stroke: red; }
.edge:hover polygon { stroke: red; fill: red; }
]]></style>
<script type="text/javascript"><![CDATA[
var edges = document.getElementsByTagName('g');
if (edges && edges.length) {
  for (var i=0;i<edges.length;i++) {
    if (edges[i].id.substr(0,4)=='edge') {
      edges[i].setAttribute('class','edge');
    }
  }
}
]]></script>
        <defs>
                <circle id="rim" cx="0" cy="0" r="7"/>
                <circle id="rim2" cx="0" cy="0" r="3.5"/>
                <g id="zoomPlus">
                        <use xlink:href="#rim" fill="#404040">
                                <set attributeName="fill" to="#808080" begin="zoomplus.mouseover" end="zoomplus.mouseout"/>
                        </use>
                        <path d="M-4,0h8M0,-4v8" fill="none" stroke="white" stroke-width="1.5" pointer-events="none"/>
                </g>
                <g id="zoomMin">
                        <use xlink:href="#rim" fill="#404040">
                                <set attributeName="fill" to="#808080" begin="zoomminus.mouseover" end="zoomminus.mouseout"/>
                        </use>
                        <path d="M-4,0h8" fill="none" stroke="white" stroke-width="1.5" pointer-events="none"/>
                </g>
                <g id="dirArrow">
                        <path fill="none" stroke="white" stroke-width="1.5" d="M0,-3.0v7 M-2.5,-0.5L0,-3.0L2.5,-0.5"/>
                </g>
               <g id="resetDef">
                       <use xlink:href="#rim2" fill="#404040">
                               <set attributeName="fill" to="#808080" begin="reset.mouseover" end="reset.mouseout"/>
                       </use>
               </g>
        </defs>

<script type="text/javascript">
var viewWidth = 1713;
var viewHeight = 364;
var sectionId = 'dynsection-0';
</script>
<script xlink:href="svgpan.js"/>
<svg id="graph" class="graph">
<g id="viewport">
<title>src/common/action/LedBar.cpp</title>
<polygon fill="white" stroke="transparent" points="-4,4 -4,-360 1708.73,-360 1708.73,4 -4,4"/>
<!-- Node1 -->
<g id="node1" class="node">
<title>Node1</title>
<g id="a_node1"><a xlink:title=" ">
<polygon fill="#bfbfbf" stroke="black" points="561.78,-336.5 561.78,-355.5 727.78,-355.5 727.78,-336.5 561.78,-336.5"/>
<text text-anchor="middle" x="644.78" y="-343.5" font-family="Helvetica,sans-Serif" font-size="10.00">src/common/action/LedBar.cpp</text>
</a>
</g>
</g>
<!-- Node2 -->
<g id="node2" class="node">
<title>Node2</title>
<g id="a_node2"><a xlink:href="LedBar_8hpp.html" target="_top" xlink:title="Gestion de la barre de LEDs et ses actions/timers associés.">
<polygon fill="white" stroke="black" points="1187.28,-224.5 1187.28,-243.5 1258.28,-243.5 1258.28,-224.5 1187.28,-224.5"/>
<text text-anchor="middle" x="1222.78" y="-231.5" font-family="Helvetica,sans-Serif" font-size="10.00">LedBar.hpp</text>
</a>
</g>
</g>
<!-- Node1&#45;&gt;Node2 -->
<g id="edge1" class="edge">
<title>Node1&#45;&gt;Node2</title>
<path fill="none" stroke="midnightblue" d="M689.66,-336.46C797.19,-315.99 1068.7,-264.32 1177.08,-243.7"/>
<polygon fill="midnightblue" stroke="midnightblue" points="1177.87,-247.11 1187.04,-241.8 1176.57,-240.23 1177.87,-247.11"/>
</g>
<!-- Node8 -->
<g id="node8" class="node">
<title>Node8</title>
<g id="a_node8"><a xlink:href="Thread_8hpp.html" target="_top" xlink:title="Définition de la classe Thread.">
<polygon fill="white" stroke="black" points="85.28,-112.5 85.28,-131.5 200.28,-131.5 200.28,-112.5 85.28,-112.5"/>
<text text-anchor="middle" x="142.78" y="-119.5" font-family="Helvetica,sans-Serif" font-size="10.00">../thread/Thread.hpp</text>
</a>
</g>
</g>
<!-- Node1&#45;&gt;Node8 -->
<g id="edge44" class="edge">
<title>Node1&#45;&gt;Node8</title>
<path fill="none" stroke="midnightblue" d="M575.92,-336.46C466.92,-321.77 261.13,-288.92 203.78,-244 170.4,-217.85 153.79,-168.54 146.88,-141.64"/>
<polygon fill="midnightblue" stroke="midnightblue" points="150.21,-140.54 144.49,-131.62 143.4,-142.16 150.21,-140.54"/>
</g>
<!-- Node30 -->
<g id="node30" class="node">
<title>Node30</title>
<g id="a_node30"><a xlink:title=" ">
<polygon fill="white" stroke="#bfbfbf" points="621.28,-280.5 621.28,-299.5 668.28,-299.5 668.28,-280.5 621.28,-280.5"/>
<text text-anchor="middle" x="644.78" y="-287.5" font-family="Helvetica,sans-Serif" font-size="10.00">cmath</text>
</a>
</g>
</g>
<!-- Node1&#45;&gt;Node30 -->
<g id="edge43" class="edge">
<title>Node1&#45;&gt;Node30</title>
<path fill="none" stroke="midnightblue" d="M644.78,-336.08C644.78,-329.01 644.78,-318.86 644.78,-309.99"/>
<polygon fill="midnightblue" stroke="midnightblue" points="648.28,-309.75 644.78,-299.75 641.28,-309.75 648.28,-309.75"/>
</g>
<!-- Node31 -->
<g id="node31" class="node">
<title>Node31</title>
<g id="a_node31"><a xlink:title=" ">
<polygon fill="white" stroke="#bfbfbf" points="686.78,-280.5 686.78,-299.5 768.78,-299.5 768.78,-280.5 686.78,-280.5"/>
<text text-anchor="middle" x="727.78" y="-287.5" font-family="Helvetica,sans-Serif" font-size="10.00">utils/json.hpp</text>
</a>
</g>
</g>
<!-- Node1&#45;&gt;Node31 -->
<g id="edge45" class="edge">
<title>Node1&#45;&gt;Node31</title>
<path fill="none" stroke="midnightblue" d="M658.12,-336.32C670.94,-327.98 690.57,-315.21 705.72,-305.35"/>
<polygon fill="midnightblue" stroke="midnightblue" points="708.01,-308.04 714.48,-299.65 704.19,-302.17 708.01,-308.04"/>
</g>
<!-- Node32 -->
<g id="node32" class="node">
<title>Node32</title>
<g id="a_node32"><a xlink:href="Actions_8hpp.html" target="_top" xlink:title="Définition de la classe Actions.">
<polygon fill="white" stroke="black" points="528.78,-280.5 528.78,-299.5 602.78,-299.5 602.78,-280.5 528.78,-280.5"/>
<text text-anchor="middle" x="565.78" y="-287.5" font-family="Helvetica,sans-Serif" font-size="10.00">Actions.hpp</text>
</a>
</g>
</g>
<!-- Node1&#45;&gt;Node32 -->
<g id="edge46" class="edge">
<title>Node1&#45;&gt;Node32</title>
<path fill="none" stroke="midnightblue" d="M632.09,-336.32C619.88,-327.98 601.2,-315.21 586.78,-305.35"/>
<polygon fill="midnightblue" stroke="midnightblue" points="588.67,-302.41 578.44,-299.65 584.72,-308.19 588.67,-302.41"/>
</g>
<!-- Node3 -->
<g id="node3" class="node">
<title>Node3</title>
<g id="a_node3"><a xlink:title=" ">
<polygon fill="white" stroke="#bfbfbf" points="1517.78,-112.5 1517.78,-131.5 1589.78,-131.5 1589.78,-112.5 1517.78,-112.5"/>
<text text-anchor="middle" x="1553.78" y="-119.5" font-family="Helvetica,sans-Serif" font-size="10.00">sys/types.h</text>
</a>
</g>
</g>
<!-- Node2&#45;&gt;Node3 -->
<g id="edge2" class="edge">
<title>Node2&#45;&gt;Node3</title>
<path fill="none" stroke="midnightblue" d="M1258.46,-230.75C1325.16,-225.99 1465.74,-213.22 1506.78,-188 1524.71,-176.98 1537.85,-156.32 1545.61,-141.24"/>
<polygon fill="midnightblue" stroke="midnightblue" points="1548.93,-142.41 1550.11,-131.88 1542.62,-139.38 1548.93,-142.41"/>
</g>
<!-- Node4 -->
<g id="node4" class="node">
<title>Node4</title>
<g id="a_node4"><a xlink:title=" ">
<polygon fill="white" stroke="#bfbfbf" points="1466.78,-56.5 1466.78,-75.5 1522.78,-75.5 1522.78,-56.5 1466.78,-56.5"/>
<text text-anchor="middle" x="1494.78" y="-63.5" font-family="Helvetica,sans-Serif" font-size="10.00">sstream</text>
</a>
</g>
</g>
<!-- Node2&#45;&gt;Node4 -->
<g id="edge3" class="edge">
<title>Node2&#45;&gt;Node4</title>
<path fill="none" stroke="midnightblue" d="M1244.1,-224.48C1265.65,-215.75 1299.81,-201.56 1328.78,-188 1346.43,-179.74 1350.14,-176.25 1367.78,-168 1404.95,-150.63 1421.37,-158.39 1452.78,-132 1468.01,-119.2 1479.67,-99.46 1486.8,-85.1"/>
<polygon fill="midnightblue" stroke="midnightblue" points="1490.1,-86.3 1491.18,-75.76 1483.76,-83.33 1490.1,-86.3"/>
</g>
<!-- Node5 -->
<g id="node5" class="node">
<title>Node5</title>
<g id="a_node5"><a xlink:title=" ">
<polygon fill="white" stroke="#bfbfbf" points="655.78,-0.5 655.78,-19.5 699.78,-19.5 699.78,-0.5 655.78,-0.5"/>
<text text-anchor="middle" x="677.78" y="-7.5" font-family="Helvetica,sans-Serif" font-size="10.00">string</text>
</a>
</g>
</g>
<!-- Node2&#45;&gt;Node5 -->
<g id="edge4" class="edge">
<title>Node2&#45;&gt;Node5</title>
<path fill="none" stroke="midnightblue" d="M1258.4,-232.35C1364.2,-230.05 1671.11,-220.59 1700.78,-188 1706.77,-181.43 1704.59,-176.03 1700.78,-168 1667.09,-96.94 1637.16,-84.3 1563.78,-56 1483,-24.85 860.5,-13.7 710.31,-11.45"/>
<polygon fill="midnightblue" stroke="midnightblue" points="709.99,-7.95 699.94,-11.3 709.89,-14.95 709.99,-7.95"/>
</g>
<!-- Node6 -->
<g id="node6" class="node">
<title>Node6</title>
<g id="a_node6"><a xlink:href="LoggerFactory_8hpp.html" target="_top" xlink:title="Définition de la classe LoggerFactory.">
<polygon fill="white" stroke="black" points="245.78,-168.5 245.78,-187.5 367.78,-187.5 367.78,-168.5 245.78,-168.5"/>
<text text-anchor="middle" x="306.78" y="-175.5" font-family="Helvetica,sans-Serif" font-size="10.00">log/LoggerFactory.hpp</text>
</a>
</g>
</g>
<!-- Node2&#45;&gt;Node6 -->
<g id="edge5" class="edge">
<title>Node2&#45;&gt;Node6</title>
<path fill="none" stroke="midnightblue" d="M1186.92,-231.36C1073.58,-226.08 712.97,-208.72 414.78,-188 402.91,-187.17 390.3,-186.21 378.05,-185.22"/>
<polygon fill="midnightblue" stroke="midnightblue" points="378.13,-181.71 367.87,-184.39 377.56,-188.69 378.13,-181.71"/>
</g>
<!-- Node16 -->
<g id="node16" class="node">
<title>Node16</title>
<g id="a_node16"><a xlink:href="ALedDriver_8hpp.html" target="_top" xlink:title="Interface abstraite du driver de LEDs.">
<polygon fill="white" stroke="black" points="1554.28,-168.5 1554.28,-187.5 1691.28,-187.5 1691.28,-168.5 1554.28,-168.5"/>
<text text-anchor="middle" x="1622.78" y="-175.5" font-family="Helvetica,sans-Serif" font-size="10.00">interface/ALedDriver.hpp</text>
</a>
</g>
</g>
<!-- Node2&#45;&gt;Node16 -->
<g id="edge22" class="edge">
<title>Node2&#45;&gt;Node16</title>
<path fill="none" stroke="midnightblue" d="M1258.63,-228.16C1323.93,-219.35 1463.44,-200.51 1549.57,-188.88"/>
<polygon fill="midnightblue" stroke="midnightblue" points="1550.1,-192.34 1559.54,-187.54 1549.17,-185.41 1550.1,-192.34"/>
</g>
<!-- Node17 -->
<g id="node17" class="node">
<title>Node17</title>
<g id="a_node17"><a xlink:href="Chronometer_8hpp.html" target="_top" xlink:title="Définition de la classe Chronometer.">
<polygon fill="white" stroke="black" points="706.28,-112.5 706.28,-131.5 831.28,-131.5 831.28,-112.5 706.28,-112.5"/>
<text text-anchor="middle" x="768.78" y="-119.5" font-family="Helvetica,sans-Serif" font-size="10.00">utils/Chronometer.hpp</text>
</a>
</g>
</g>
<!-- Node2&#45;&gt;Node17 -->
<g id="edge25" class="edge">
<title>Node2&#45;&gt;Node17</title>
<path fill="none" stroke="midnightblue" d="M1187.09,-231.54C1127.29,-228.32 1003.6,-218.27 903.78,-188 862.32,-175.43 817.67,-151.7 791.53,-136.66"/>
<polygon fill="midnightblue" stroke="midnightblue" points="793.17,-133.57 782.77,-131.54 789.64,-139.61 793.17,-133.57"/>
</g>
<!-- Node19 -->
<g id="node19" class="node">
<title>Node19</title>
<g id="a_node19"><a xlink:href="ITimerListener_8hpp.html" target="_top" xlink:title="Définition de l&#39;interface ITimerListener.">
<polygon fill="white" stroke="black" points="1093.28,-168.5 1093.28,-187.5 1230.28,-187.5 1230.28,-168.5 1093.28,-168.5"/>
<text text-anchor="middle" x="1161.78" y="-175.5" font-family="Helvetica,sans-Serif" font-size="10.00">timer/ITimerListener.hpp</text>
</a>
</g>
</g>
<!-- Node2&#45;&gt;Node19 -->
<g id="edge28" class="edge">
<title>Node2&#45;&gt;Node19</title>
<path fill="none" stroke="midnightblue" d="M1212.98,-224.32C1203.96,-216.34 1190.38,-204.31 1179.46,-194.65"/>
<polygon fill="midnightblue" stroke="midnightblue" points="1181.57,-191.84 1171.76,-187.83 1176.93,-197.08 1181.57,-191.84"/>
</g>
<!-- Node20 -->
<g id="node20" class="node">
<title>Node20</title>
<g id="a_node20"><a xlink:href="ITimerPosixListener_8hpp.html" target="_top" xlink:title="Définition de l&#39;interface ITimerPosixListener.">
<polygon fill="white" stroke="black" points="912.28,-168.5 912.28,-187.5 1075.28,-187.5 1075.28,-168.5 912.28,-168.5"/>
<text text-anchor="middle" x="993.78" y="-175.5" font-family="Helvetica,sans-Serif" font-size="10.00">timer/ITimerPosixListener.hpp</text>
</a>
</g>
</g>
<!-- Node2&#45;&gt;Node20 -->
<g id="edge30" class="edge">
<title>Node2&#45;&gt;Node20</title>
<path fill="none" stroke="midnightblue" d="M1187,-224.56C1147.32,-215.21 1083.2,-200.08 1039.81,-189.85"/>
<polygon fill="midnightblue" stroke="midnightblue" points="1040.6,-186.45 1030.07,-187.56 1039,-193.26 1040.6,-186.45"/>
</g>
<!-- Node28 -->
<g id="node28" class="node">
<title>Node28</title>
<g id="a_node28"><a xlink:href="AActionsElement_8hpp.html" target="_top" xlink:title="Définition de la classe AActionsElement.">
<polygon fill="white" stroke="black" points="1376.28,-168.5 1376.28,-187.5 1497.28,-187.5 1497.28,-168.5 1376.28,-168.5"/>
<text text-anchor="middle" x="1436.78" y="-175.5" font-family="Helvetica,sans-Serif" font-size="10.00">AActionsElement.hpp</text>
</a>
</g>
</g>
<!-- Node2&#45;&gt;Node28 -->
<g id="edge40" class="edge">
<title>Node2&#45;&gt;Node28</title>
<path fill="none" stroke="midnightblue" d="M1256.69,-224.44C1293.63,-215.12 1352.84,-200.18 1393.2,-190"/>
<polygon fill="midnightblue" stroke="midnightblue" points="1394.19,-193.36 1403.03,-187.52 1392.48,-186.57 1394.19,-193.36"/>
</g>
<!-- Node29 -->
<g id="node29" class="node">
<title>Node29</title>
<g id="a_node29"><a xlink:href="IAction_8hpp.html" target="_top" xlink:title="Definition de l&#39;interface IAction.">
<polygon fill="white" stroke="black" points="1248.28,-168.5 1248.28,-187.5 1319.28,-187.5 1319.28,-168.5 1248.28,-168.5"/>
<text text-anchor="middle" x="1283.78" y="-175.5" font-family="Helvetica,sans-Serif" font-size="10.00">IAction.hpp</text>
</a>
</g>
</g>
<!-- Node2&#45;&gt;Node29 -->
<g id="edge41" class="edge">
<title>Node2&#45;&gt;Node29</title>
<path fill="none" stroke="midnightblue" d="M1232.58,-224.32C1241.6,-216.34 1255.19,-204.31 1266.1,-194.65"/>
<polygon fill="midnightblue" stroke="midnightblue" points="1268.64,-197.08 1273.8,-187.83 1264,-191.84 1268.64,-197.08"/>
</g>
<!-- Node6&#45;&gt;Node5 -->
<g id="edge7" class="edge">
<title>Node6&#45;&gt;Node5</title>
<path fill="none" stroke="midnightblue" d="M310.05,-168.46C319.45,-145.21 349.1,-80.88 397.78,-56 440.58,-34.13 580.91,-19.45 645.15,-13.71"/>
<polygon fill="midnightblue" stroke="midnightblue" points="645.85,-17.16 655.5,-12.8 645.24,-10.19 645.85,-17.16"/>
</g>
<!-- Node7 -->
<g id="node7" class="node">
<title>Node7</title>
<g id="a_node7"><a xlink:title=" ">
<polygon fill="white" stroke="#bfbfbf" points="256.78,-112.5 256.78,-131.5 294.78,-131.5 294.78,-112.5 256.78,-112.5"/>
<text text-anchor="middle" x="275.78" y="-119.5" font-family="Helvetica,sans-Serif" font-size="10.00">map</text>
</a>
</g>
</g>
<!-- Node6&#45;&gt;Node7 -->
<g id="edge6" class="edge">
<title>Node6&#45;&gt;Node7</title>
<path fill="none" stroke="midnightblue" d="M301.66,-168.08C297.38,-160.61 291.12,-149.72 285.84,-140.52"/>
<polygon fill="midnightblue" stroke="midnightblue" points="288.82,-138.68 280.81,-131.75 282.75,-142.17 288.82,-138.68"/>
</g>
<!-- Node6&#45;&gt;Node8 -->
<g id="edge8" class="edge">
<title>Node6&#45;&gt;Node8</title>
<path fill="none" stroke="midnightblue" d="M280.8,-168.44C253.09,-159.32 209.03,-144.81 178.17,-134.65"/>
<polygon fill="midnightblue" stroke="midnightblue" points="179.24,-131.32 168.65,-131.52 177.05,-137.97 179.24,-131.32"/>
</g>
<!-- Node14 -->
<g id="node14" class="node">
<title>Node14</title>
<g id="a_node14"><a xlink:href="Logger_8hpp.html" target="_top" xlink:title="Définition de la classe Logger.">
<polygon fill="white" stroke="black" points="579.78,-112.5 579.78,-131.5 649.78,-131.5 649.78,-112.5 579.78,-112.5"/>
<text text-anchor="middle" x="614.78" y="-119.5" font-family="Helvetica,sans-Serif" font-size="10.00">Logger.hpp</text>
</a>
</g>
</g>
<!-- Node6&#45;&gt;Node14 -->
<g id="edge16" class="edge">
<title>Node6&#45;&gt;Node14</title>
<path fill="none" stroke="midnightblue" d="M359.97,-168.46C411.16,-160.13 491.01,-146.81 569.66,-132.16"/>
<polygon fill="midnightblue" stroke="midnightblue" points="570.55,-135.56 579.74,-130.28 569.27,-128.68 570.55,-135.56"/>
</g>
<!-- Node8&#45;&gt;Node5 -->
<g id="edge10" class="edge">
<title>Node8&#45;&gt;Node5</title>
<path fill="none" stroke="midnightblue" d="M152.77,-112.43C170.28,-97.97 208.22,-69.01 245.78,-56 319.83,-30.36 558.37,-16.69 645.52,-12.46"/>
<polygon fill="midnightblue" stroke="midnightblue" points="645.79,-15.95 655.61,-11.98 645.46,-8.96 645.79,-15.95"/>
</g>
<!-- Node9 -->
<g id="node9" class="node">
<title>Node9</title>
<g id="a_node9"><a xlink:title=" ">
<polygon fill="white" stroke="#bfbfbf" points="183.28,-0.5 183.28,-19.5 246.28,-19.5 246.28,-0.5 183.28,-0.5"/>
<text text-anchor="middle" x="214.78" y="-7.5" font-family="Helvetica,sans-Serif" font-size="10.00">pthread.h</text>
</a>
</g>
</g>
<!-- Node8&#45;&gt;Node9 -->
<g id="edge9" class="edge">
<title>Node8&#45;&gt;Node9</title>
<path fill="none" stroke="midnightblue" d="M85.01,-113.54C37.26,-104.96 -18.85,-87.77 6.78,-56 27.27,-30.61 118.49,-18.83 173.1,-13.97"/>
<polygon fill="midnightblue" stroke="midnightblue" points="173.5,-17.45 183.17,-13.12 172.91,-10.48 173.5,-17.45"/>
</g>
<!-- Node10 -->
<g id="node10" class="node">
<title>Node10</title>
<g id="a_node10"><a xlink:title=" ">
<polygon fill="white" stroke="#bfbfbf" points="15.78,-56.5 15.78,-75.5 63.78,-75.5 63.78,-56.5 15.78,-56.5"/>
<text text-anchor="middle" x="39.78" y="-63.5" font-family="Helvetica,sans-Serif" font-size="10.00">thread</text>
</a>
</g>
</g>
<!-- Node8&#45;&gt;Node10 -->
<g id="edge11" class="edge">
<title>Node8&#45;&gt;Node10</title>
<path fill="none" stroke="midnightblue" d="M126.23,-112.32C109.79,-103.7 84.35,-90.36 65.31,-80.39"/>
<polygon fill="midnightblue" stroke="midnightblue" points="66.77,-77.2 56.29,-75.65 63.52,-83.4 66.77,-77.2"/>
</g>
<!-- Node11 -->
<g id="node11" class="node">
<title>Node11</title>
<g id="a_node11"><a xlink:title=" ">
<polygon fill="white" stroke="#bfbfbf" points="81.78,-56.5 81.78,-75.5 125.78,-75.5 125.78,-56.5 81.78,-56.5"/>
<text text-anchor="middle" x="103.78" y="-63.5" font-family="Helvetica,sans-Serif" font-size="10.00">ctime</text>
</a>
</g>
</g>
<!-- Node8&#45;&gt;Node11 -->
<g id="edge12" class="edge">
<title>Node8&#45;&gt;Node11</title>
<path fill="none" stroke="midnightblue" d="M136.34,-112.08C130.83,-104.46 122.75,-93.26 116.02,-83.94"/>
<polygon fill="midnightblue" stroke="midnightblue" points="118.8,-81.81 110.1,-75.75 113.12,-85.91 118.8,-81.81"/>
</g>
<!-- Node12 -->
<g id="node12" class="node">
<title>Node12</title>
<g id="a_node12"><a xlink:href="Mutex_8hpp.html" target="_top" xlink:title="Définition de la classe Mutex.">
<polygon fill="white" stroke="black" points="406.78,-56.5 406.78,-75.5 474.78,-75.5 474.78,-56.5 406.78,-56.5"/>
<text text-anchor="middle" x="440.78" y="-63.5" font-family="Helvetica,sans-Serif" font-size="10.00">Mutex.hpp</text>
</a>
</g>
</g>
<!-- Node8&#45;&gt;Node12 -->
<g id="edge13" class="edge">
<title>Node8&#45;&gt;Node12</title>
<path fill="none" stroke="midnightblue" d="M190,-112.44C246.86,-102.14 341.59,-84.97 396.91,-74.95"/>
<polygon fill="midnightblue" stroke="midnightblue" points="397.55,-78.39 406.76,-73.16 396.3,-71.5 397.55,-78.39"/>
</g>
<!-- Node13 -->
<g id="node13" class="node">
<title>Node13</title>
<g id="a_node13"><a xlink:title=" ">
<polygon fill="white" stroke="#bfbfbf" points="143.78,-56.5 143.78,-75.5 193.78,-75.5 193.78,-56.5 143.78,-56.5"/>
<text text-anchor="middle" x="168.78" y="-63.5" font-family="Helvetica,sans-Serif" font-size="10.00">chrono</text>
</a>
</g>
</g>
<!-- Node8&#45;&gt;Node13 -->
<g id="edge15" class="edge">
<title>Node8&#45;&gt;Node13</title>
<path fill="none" stroke="midnightblue" d="M147.08,-112.08C150.64,-104.69 155.81,-93.95 160.21,-84.81"/>
<polygon fill="midnightblue" stroke="midnightblue" points="163.38,-86.28 164.57,-75.75 157.08,-83.24 163.38,-86.28"/>
</g>
<!-- Node12&#45;&gt;Node9 -->
<g id="edge14" class="edge">
<title>Node12&#45;&gt;Node9</title>
<path fill="none" stroke="midnightblue" d="M406.46,-56.8C366.22,-47.18 299.55,-31.26 256.4,-20.94"/>
<polygon fill="midnightblue" stroke="midnightblue" points="257.04,-17.5 246.5,-18.58 255.42,-24.31 257.04,-17.5"/>
</g>
<!-- Node14&#45;&gt;Node4 -->
<g id="edge17" class="edge">
<title>Node14&#45;&gt;Node4</title>
<path fill="none" stroke="midnightblue" d="M649.88,-116.79C664.65,-115.12 682.04,-113.3 697.78,-112 989.1,-88 1341.39,-73 1456.44,-68.46"/>
<polygon fill="midnightblue" stroke="midnightblue" points="1456.65,-71.96 1466.51,-68.07 1456.38,-64.96 1456.65,-71.96"/>
</g>
<!-- Node14&#45;&gt;Node5 -->
<g id="edge18" class="edge">
<title>Node14&#45;&gt;Node5</title>
<path fill="none" stroke="midnightblue" d="M603.34,-112.43C587.96,-99.85 563.97,-75.73 576.78,-56 591.9,-32.72 622.16,-21.38 645.64,-15.92"/>
<polygon fill="midnightblue" stroke="midnightblue" points="646.46,-19.32 655.54,-13.86 645.04,-12.47 646.46,-19.32"/>
</g>
<!-- Node14&#45;&gt;Node12 -->
<g id="edge19" class="edge">
<title>Node14&#45;&gt;Node12</title>
<path fill="none" stroke="midnightblue" d="M587.21,-112.44C557.69,-103.28 510.66,-88.69 477.9,-78.52"/>
<polygon fill="midnightblue" stroke="midnightblue" points="478.81,-75.14 468.22,-75.52 476.74,-81.82 478.81,-75.14"/>
</g>
<!-- Node15 -->
<g id="node15" class="node">
<title>Node15</title>
<g id="a_node15"><a xlink:href="Level_8hpp.html" target="_top" xlink:title="Définition de la classe Level.">
<polygon fill="white" stroke="black" points="585.78,-56.5 585.78,-75.5 649.78,-75.5 649.78,-56.5 585.78,-56.5"/>
<text text-anchor="middle" x="617.78" y="-63.5" font-family="Helvetica,sans-Serif" font-size="10.00">Level.hpp</text>
</a>
</g>
</g>
<!-- Node14&#45;&gt;Node15 -->
<g id="edge20" class="edge">
<title>Node14&#45;&gt;Node15</title>
<path fill="none" stroke="midnightblue" d="M615.28,-112.08C615.67,-105.01 616.23,-94.86 616.73,-85.99"/>
<polygon fill="midnightblue" stroke="midnightblue" points="620.24,-85.93 617.3,-75.75 613.25,-85.54 620.24,-85.93"/>
</g>
<!-- Node15&#45;&gt;Node5 -->
<g id="edge21" class="edge">
<title>Node15&#45;&gt;Node5</title>
<path fill="none" stroke="midnightblue" d="M627.42,-56.32C636.29,-48.34 649.66,-36.31 660.39,-26.65"/>
<polygon fill="midnightblue" stroke="midnightblue" points="662.88,-29.13 667.97,-19.83 658.19,-23.92 662.88,-29.13"/>
</g>
<!-- Node16&#45;&gt;Node3 -->
<g id="edge23" class="edge">
<title>Node16&#45;&gt;Node3</title>
<path fill="none" stroke="midnightblue" d="M1611.7,-168.32C1601.3,-160.18 1585.52,-147.84 1573.06,-138.09"/>
<polygon fill="midnightblue" stroke="midnightblue" points="1575.1,-135.24 1565.07,-131.83 1570.79,-140.75 1575.1,-135.24"/>
</g>
<!-- Node16&#45;&gt;Node5 -->
<g id="edge24" class="edge">
<title>Node16&#45;&gt;Node5</title>
<path fill="none" stroke="midnightblue" d="M1621.09,-168.33C1618.21,-155.2 1611.4,-129.89 1598.78,-112 1576.42,-80.28 1567.9,-70.19 1531.78,-56 1454.27,-25.54 856.54,-13.9 710.09,-11.5"/>
<polygon fill="midnightblue" stroke="midnightblue" points="710.02,-7.99 699.96,-11.33 709.9,-14.99 710.02,-7.99"/>
</g>
<!-- Node17&#45;&gt;Node5 -->
<g id="edge27" class="edge">
<title>Node17&#45;&gt;Node5</title>
<path fill="none" stroke="midnightblue" d="M774.51,-112.24C782.39,-98.99 794.35,-73.54 782.78,-56 766.73,-31.66 734.49,-20.44 709.95,-15.29"/>
<polygon fill="midnightblue" stroke="midnightblue" points="710.44,-11.82 699.97,-13.44 709.16,-18.7 710.44,-11.82"/>
</g>
<!-- Node18 -->
<g id="node18" class="node">
<title>Node18</title>
<g id="a_node18"><a xlink:title=" ">
<polygon fill="white" stroke="#bfbfbf" points="705.78,-56.5 705.78,-75.5 773.78,-75.5 773.78,-56.5 705.78,-56.5"/>
<text text-anchor="middle" x="739.78" y="-63.5" font-family="Helvetica,sans-Serif" font-size="10.00">sys/time.h</text>
</a>
</g>
</g>
<!-- Node17&#45;&gt;Node18 -->
<g id="edge26" class="edge">
<title>Node17&#45;&gt;Node18</title>
<path fill="none" stroke="midnightblue" d="M763.99,-112.08C760.02,-104.69 754.26,-93.95 749.35,-84.81"/>
<polygon fill="midnightblue" stroke="midnightblue" points="752.3,-82.91 744.48,-75.75 746.13,-86.22 752.3,-82.91"/>
</g>
<!-- Node19&#45;&gt;Node5 -->
<g id="edge29" class="edge">
<title>Node19&#45;&gt;Node5</title>
<path fill="none" stroke="midnightblue" d="M1222.97,-168.5C1284.5,-159.32 1371.69,-144.36 1381.78,-132 1387.4,-125.11 1387.6,-118.72 1381.78,-112 1337,-60.33 842.58,-22.45 710.21,-13.19"/>
<polygon fill="midnightblue" stroke="midnightblue" points="710.15,-9.68 699.93,-12.48 709.66,-16.66 710.15,-9.68"/>
</g>
<!-- Node20&#45;&gt;Node12 -->
<g id="edge39" class="edge">
<title>Node20&#45;&gt;Node12</title>
<path fill="none" stroke="midnightblue" d="M969.67,-168.46C946.18,-159.92 909.59,-146.08 878.78,-132 861.42,-124.07 859.03,-117.61 840.78,-112 775.16,-91.83 574.66,-76.11 484.97,-69.9"/>
<polygon fill="midnightblue" stroke="midnightblue" points="485.06,-66.39 474.85,-69.2 484.59,-73.38 485.06,-66.39"/>
</g>
<!-- Node20&#45;&gt;Node17 -->
<g id="edge38" class="edge">
<title>Node20&#45;&gt;Node17</title>
<path fill="none" stroke="midnightblue" d="M958.13,-168.44C919.13,-159.08 856.52,-144.06 814.07,-133.87"/>
<polygon fill="midnightblue" stroke="midnightblue" points="814.81,-130.45 804.27,-131.52 813.17,-137.25 814.81,-130.45"/>
</g>
<!-- Node21 -->
<g id="node21" class="node">
<title>Node21</title>
<g id="a_node21"><a xlink:title=" ">
<polygon fill="white" stroke="#bfbfbf" points="1312.78,-112.5 1312.78,-131.5 1372.78,-131.5 1372.78,-112.5 1312.78,-112.5"/>
<text text-anchor="middle" x="1342.78" y="-119.5" font-family="Helvetica,sans-Serif" font-size="10.00">iostream</text>
</a>
</g>
</g>
<!-- Node20&#45;&gt;Node21 -->
<g id="edge31" class="edge">
<title>Node20&#45;&gt;Node21</title>
<path fill="none" stroke="midnightblue" d="M1063.93,-168.5C1124.66,-160.75 1215.05,-148.31 1302.75,-132.07"/>
<polygon fill="midnightblue" stroke="midnightblue" points="1303.41,-135.5 1312.6,-130.22 1302.13,-128.62 1303.41,-135.5"/>
</g>
<!-- Node22 -->
<g id="node22" class="node">
<title>Node22</title>
<g id="a_node22"><a xlink:title=" ">
<polygon fill="white" stroke="#bfbfbf" points="887.78,-112.5 887.78,-131.5 937.78,-131.5 937.78,-112.5 887.78,-112.5"/>
<text text-anchor="middle" x="912.78" y="-119.5" font-family="Helvetica,sans-Serif" font-size="10.00">stdio.h</text>
</a>
</g>
</g>
<!-- Node20&#45;&gt;Node22 -->
<g id="edge32" class="edge">
<title>Node20&#45;&gt;Node22</title>
<path fill="none" stroke="midnightblue" d="M980.77,-168.32C968.25,-159.98 949.1,-147.21 934.31,-137.35"/>
<polygon fill="midnightblue" stroke="midnightblue" points="936.03,-134.29 925.76,-131.65 932.14,-140.11 936.03,-134.29"/>
</g>
<!-- Node23 -->
<g id="node23" class="node">
<title>Node23</title>
<g id="a_node23"><a xlink:title=" ">
<polygon fill="white" stroke="#bfbfbf" points="956.28,-112.5 956.28,-131.5 1009.28,-131.5 1009.28,-112.5 956.28,-112.5"/>
<text text-anchor="middle" x="982.78" y="-119.5" font-family="Helvetica,sans-Serif" font-size="10.00">string.h</text>
</a>
</g>
</g>
<!-- Node20&#45;&gt;Node23 -->
<g id="edge33" class="edge">
<title>Node20&#45;&gt;Node23</title>
<path fill="none" stroke="midnightblue" d="M991.97,-168.08C990.51,-160.93 988.41,-150.64 986.59,-141.69"/>
<polygon fill="midnightblue" stroke="midnightblue" points="989.99,-140.85 984.57,-131.75 983.13,-142.25 989.99,-140.85"/>
</g>
<!-- Node24 -->
<g id="node24" class="node">
<title>Node24</title>
<g id="a_node24"><a xlink:title=" ">
<polygon fill="white" stroke="#bfbfbf" points="1027.28,-112.5 1027.28,-131.5 1080.28,-131.5 1080.28,-112.5 1027.28,-112.5"/>
<text text-anchor="middle" x="1053.78" y="-119.5" font-family="Helvetica,sans-Serif" font-size="10.00">stdlib.h</text>
</a>
</g>
</g>
<!-- Node20&#45;&gt;Node24 -->
<g id="edge34" class="edge">
<title>Node20&#45;&gt;Node24</title>
<path fill="none" stroke="midnightblue" d="M1003.42,-168.32C1012.29,-160.34 1025.66,-148.31 1036.39,-138.65"/>
<polygon fill="midnightblue" stroke="midnightblue" points="1038.88,-141.13 1043.97,-131.83 1034.19,-135.92 1038.88,-141.13"/>
</g>
<!-- Node25 -->
<g id="node25" class="node">
<title>Node25</title>
<g id="a_node25"><a xlink:title=" ">
<polygon fill="white" stroke="#bfbfbf" points="1098.78,-112.5 1098.78,-131.5 1154.78,-131.5 1154.78,-112.5 1098.78,-112.5"/>
<text text-anchor="middle" x="1126.78" y="-119.5" font-family="Helvetica,sans-Serif" font-size="10.00">unistd.h</text>
</a>
</g>
</g>
<!-- Node20&#45;&gt;Node25 -->
<g id="edge35" class="edge">
<title>Node20&#45;&gt;Node25</title>
<path fill="none" stroke="midnightblue" d="M1014.86,-168.44C1036.84,-159.52 1071.52,-145.44 1096.45,-135.32"/>
<polygon fill="midnightblue" stroke="midnightblue" points="1097.86,-138.52 1105.81,-131.52 1095.22,-132.04 1097.86,-138.52"/>
</g>
<!-- Node26 -->
<g id="node26" class="node">
<title>Node26</title>
<g id="a_node26"><a xlink:title=" ">
<polygon fill="white" stroke="#bfbfbf" points="1173.28,-112.5 1173.28,-131.5 1228.28,-131.5 1228.28,-112.5 1173.28,-112.5"/>
<text text-anchor="middle" x="1200.78" y="-119.5" font-family="Helvetica,sans-Serif" font-size="10.00">signal.h</text>
</a>
</g>
</g>
<!-- Node20&#45;&gt;Node26 -->
<g id="edge36" class="edge">
<title>Node20&#45;&gt;Node26</title>
<path fill="none" stroke="midnightblue" d="M1026.58,-168.44C1063.73,-158.75 1124.16,-142.99 1163.19,-132.81"/>
<polygon fill="midnightblue" stroke="midnightblue" points="1164.31,-136.13 1173.1,-130.22 1162.55,-129.36 1164.31,-136.13"/>
</g>
<!-- Node27 -->
<g id="node27" class="node">
<title>Node27</title>
<g id="a_node27"><a xlink:title=" ">
<polygon fill="white" stroke="#bfbfbf" points="1246.78,-112.5 1246.78,-131.5 1294.78,-131.5 1294.78,-112.5 1246.78,-112.5"/>
<text text-anchor="middle" x="1270.78" y="-119.5" font-family="Helvetica,sans-Serif" font-size="10.00">time.h</text>
</a>
</g>
</g>
<!-- Node20&#45;&gt;Node27 -->
<g id="edge37" class="edge">
<title>Node20&#45;&gt;Node27</title>
<path fill="none" stroke="midnightblue" d="M1047.36,-168.45C1094.74,-160.59 1165.94,-148.04 1236.71,-132.09"/>
<polygon fill="midnightblue" stroke="midnightblue" points="1237.72,-135.45 1246.69,-129.82 1236.16,-128.63 1237.72,-135.45"/>
</g>
<!-- Node29&#45;&gt;Node5 -->
<g id="edge42" class="edge">
<title>Node29&#45;&gt;Node5</title>
<path fill="none" stroke="midnightblue" d="M1316.67,-168.46C1346.86,-159.87 1388.3,-145.94 1397.78,-132 1402.78,-124.65 1403.02,-119.18 1397.78,-112 1349.94,-46.34 1303.45,-71.89 1223.78,-56 1031.46,-17.65 794.76,-11.89 709.92,-11.09"/>
<polygon fill="midnightblue" stroke="midnightblue" points="709.91,-7.59 699.88,-11.02 709.85,-14.59 709.91,-7.59"/>
</g>
<!-- Node32&#45;&gt;Node2 -->
<g id="edge65" class="edge">
<title>Node32&#45;&gt;Node2</title>
<path fill="none" stroke="midnightblue" d="M602.92,-281.48C606.25,-280.93 609.57,-280.42 612.78,-280 822.49,-252.28 1075.18,-240.45 1176.99,-236.57"/>
<polygon fill="midnightblue" stroke="midnightblue" points="1177.36,-240.06 1187.22,-236.19 1177.1,-233.06 1177.36,-240.06"/>
</g>
<!-- Node32&#45;&gt;Node5 -->
<g id="edge47" class="edge">
<title>Node32&#45;&gt;Node5</title>
<path fill="none" stroke="midnightblue" d="M528.72,-283.26C450.26,-270.27 271.67,-235.96 236.78,-188 225.42,-172.38 231.74,-132.5 247.78,-112 297.34,-48.68 554.23,-21.33 645.53,-13.5"/>
<polygon fill="midnightblue" stroke="midnightblue" points="645.9,-16.98 655.58,-12.66 645.32,-10.01 645.9,-16.98"/>
</g>
<!-- Node32&#45;&gt;Node6 -->
<g id="edge49" class="edge">
<title>Node32&#45;&gt;Node6</title>
<path fill="none" stroke="midnightblue" d="M545.46,-280.37C499.88,-261.01 389.34,-214.06 336.23,-191.51"/>
<polygon fill="midnightblue" stroke="midnightblue" points="337.58,-188.28 327.01,-187.59 334.85,-194.72 337.58,-188.28"/>
</g>
<!-- Node32&#45;&gt;Node14 -->
<g id="edge48" class="edge">
<title>Node32&#45;&gt;Node14</title>
<path fill="none" stroke="midnightblue" d="M565.88,-280.46C566.37,-260.22 569.17,-208.02 584.78,-168 588.7,-157.96 595.14,-147.87 601.04,-139.8"/>
<polygon fill="midnightblue" stroke="midnightblue" points="603.99,-141.71 607.33,-131.66 598.45,-137.44 603.99,-141.71"/>
</g>
<!-- Node33 -->
<g id="node33" class="node">
<title>Node33</title>
<g id="a_node33"><a xlink:href="ActionManagerTimer_8hpp.html" target="_top" xlink:title="Definition de la classe ActionManagerTimer.">
<polygon fill="white" stroke="black" points="658.78,-224.5 658.78,-243.5 826.78,-243.5 826.78,-224.5 658.78,-224.5"/>
<text text-anchor="middle" x="742.78" y="-231.5" font-family="Helvetica,sans-Serif" font-size="10.00">timer/ActionManagerTimer.hpp</text>
</a>
</g>
</g>
<!-- Node32&#45;&gt;Node33 -->
<g id="edge50" class="edge">
<title>Node32&#45;&gt;Node33</title>
<path fill="none" stroke="midnightblue" d="M593.83,-280.44C623.86,-271.28 671.7,-256.69 705.03,-246.52"/>
<polygon fill="midnightblue" stroke="midnightblue" points="706.32,-249.78 714.87,-243.52 704.28,-243.09 706.32,-249.78"/>
</g>
<!-- Node33&#45;&gt;Node5 -->
<g id="edge54" class="edge">
<title>Node33&#45;&gt;Node5</title>
<path fill="none" stroke="midnightblue" d="M750.84,-224.11C761.58,-211.13 778.01,-186.52 766.78,-168 748.85,-138.42 718.07,-160.01 697.78,-132 675.69,-101.49 674.58,-55.37 676,-29.78"/>
<polygon fill="midnightblue" stroke="midnightblue" points="679.51,-29.83 676.77,-19.59 672.53,-29.3 679.51,-29.83"/>
</g>
<!-- Node33&#45;&gt;Node6 -->
<g id="edge56" class="edge">
<title>Node33&#45;&gt;Node6</title>
<path fill="none" stroke="midnightblue" d="M673.7,-224.44C592.79,-214.42 459.46,-197.91 377.75,-187.79"/>
<polygon fill="midnightblue" stroke="midnightblue" points="378.16,-184.31 367.81,-186.56 377.3,-191.26 378.16,-184.31"/>
</g>
<!-- Node33&#45;&gt;Node14 -->
<g id="edge55" class="edge">
<title>Node33&#45;&gt;Node14</title>
<path fill="none" stroke="midnightblue" d="M747.23,-224.49C753.54,-211.12 763.03,-184.96 750.78,-168 739.88,-152.91 695.21,-140.08 660,-132.02"/>
<polygon fill="midnightblue" stroke="midnightblue" points="660.41,-128.53 649.89,-129.78 658.9,-135.36 660.41,-128.53"/>
</g>
<!-- Node33&#45;&gt;Node17 -->
<g id="edge57" class="edge">
<title>Node33&#45;&gt;Node17</title>
<path fill="none" stroke="midnightblue" d="M772.66,-224.39C790.32,-217.59 811.23,-206.15 821.78,-188 832.9,-168.87 812.15,-149.55 793.45,-137.01"/>
<polygon fill="midnightblue" stroke="midnightblue" points="795.17,-133.96 784.85,-131.58 791.44,-139.88 795.17,-133.96"/>
</g>
<!-- Node33&#45;&gt;Node19 -->
<g id="edge63" class="edge">
<title>Node33&#45;&gt;Node19</title>
<path fill="none" stroke="midnightblue" d="M809.17,-224.44C884.26,-214.77 1006.32,-199.04 1085.33,-188.85"/>
<polygon fill="midnightblue" stroke="midnightblue" points="1086.23,-192.27 1095.7,-187.52 1085.34,-185.32 1086.23,-192.27"/>
</g>
<!-- Node33&#45;&gt;Node20 -->
<g id="edge64" class="edge">
<title>Node33&#45;&gt;Node20</title>
<path fill="none" stroke="midnightblue" d="M782.55,-224.44C826.34,-215.02 896.8,-199.87 944.16,-189.68"/>
<polygon fill="midnightblue" stroke="midnightblue" points="945.16,-193.04 954.2,-187.52 943.68,-186.2 945.16,-193.04"/>
</g>
<!-- Node33&#45;&gt;Node29 -->
<g id="edge62" class="edge">
<title>Node33&#45;&gt;Node29</title>
<path fill="none" stroke="midnightblue" d="M827.1,-228.24C924.01,-222.12 1088,-209.78 1237.54,-188.2"/>
<polygon fill="midnightblue" stroke="midnightblue" points="1238.43,-191.6 1247.82,-186.7 1237.42,-184.68 1238.43,-191.6"/>
</g>
<!-- Node34 -->
<g id="node34" class="node">
<title>Node34</title>
<g id="a_node34"><a xlink:title=" ">
<polygon fill="white" stroke="#bfbfbf" points="593.78,-168.5 593.78,-187.5 673.78,-187.5 673.78,-168.5 593.78,-168.5"/>
<text text-anchor="middle" x="633.78" y="-175.5" font-family="Helvetica,sans-Serif" font-size="10.00">semaphore.h</text>
</a>
</g>
</g>
<!-- Node33&#45;&gt;Node34 -->
<g id="edge51" class="edge">
<title>Node33&#45;&gt;Node34</title>
<path fill="none" stroke="midnightblue" d="M725.27,-224.32C707.71,-215.62 680.45,-202.12 660.25,-192.11"/>
<polygon fill="midnightblue" stroke="midnightblue" points="661.77,-188.96 651.25,-187.65 658.66,-195.23 661.77,-188.96"/>
</g>
<!-- Node35 -->
<g id="node35" class="node">
<title>Node35</title>
<g id="a_node35"><a xlink:title=" ">
<polygon fill="white" stroke="#bfbfbf" points="691.78,-168.5 691.78,-187.5 741.78,-187.5 741.78,-168.5 691.78,-168.5"/>
<text text-anchor="middle" x="716.78" y="-175.5" font-family="Helvetica,sans-Serif" font-size="10.00">atomic</text>
</a>
</g>
</g>
<!-- Node33&#45;&gt;Node35 -->
<g id="edge52" class="edge">
<title>Node33&#45;&gt;Node35</title>
<path fill="none" stroke="midnightblue" d="M738.49,-224.08C734.93,-216.69 729.76,-205.95 725.36,-196.81"/>
<polygon fill="midnightblue" stroke="midnightblue" points="728.49,-195.24 721,-187.75 722.18,-198.28 728.49,-195.24"/>
</g>
<!-- Node36 -->
<g id="node36" class="node">
<title>Node36</title>
<g id="a_node36"><a xlink:title=" ">
<polygon fill="white" stroke="#bfbfbf" points="350.78,-112.5 350.78,-131.5 382.78,-131.5 382.78,-112.5 350.78,-112.5"/>
<text text-anchor="middle" x="366.78" y="-119.5" font-family="Helvetica,sans-Serif" font-size="10.00">list</text>
</a>
</g>
</g>
<!-- Node33&#45;&gt;Node36 -->
<g id="edge53" class="edge">
<title>Node33&#45;&gt;Node36</title>
<path fill="none" stroke="midnightblue" d="M658.4,-228.84C575.16,-223.43 454.76,-211.72 414.78,-188 396.55,-177.18 383.12,-156.48 375.17,-141.34"/>
<polygon fill="midnightblue" stroke="midnightblue" points="378.1,-139.37 370.55,-131.94 371.82,-142.45 378.1,-139.37"/>
</g>
<!-- Node37 -->
<g id="node37" class="node">
<title>Node37</title>
<g id="a_node37"><a xlink:href="PointerList_8hpp.html" target="_top" xlink:title="Définition de la classe PointerList.">
<polygon fill="white" stroke="black" points="424.28,-168.5 424.28,-187.5 537.28,-187.5 537.28,-168.5 424.28,-168.5"/>
<text text-anchor="middle" x="480.78" y="-175.5" font-family="Helvetica,sans-Serif" font-size="10.00">utils/PointerList.hpp</text>
</a>
</g>
</g>
<!-- Node33&#45;&gt;Node37 -->
<g id="edge58" class="edge">
<title>Node33&#45;&gt;Node37</title>
<path fill="none" stroke="midnightblue" d="M701.27,-224.44C655.37,-214.98 581.4,-199.74 531.96,-189.55"/>
<polygon fill="midnightblue" stroke="midnightblue" points="532.6,-186.11 522.1,-187.52 531.19,-192.96 532.6,-186.11"/>
</g>
<!-- Node37&#45;&gt;Node36 -->
<g id="edge61" class="edge">
<title>Node37&#45;&gt;Node36</title>
<path fill="none" stroke="midnightblue" d="M462.72,-168.44C443.66,-159.42 413.49,-145.12 392.07,-134.98"/>
<polygon fill="midnightblue" stroke="midnightblue" points="393.45,-131.76 382.92,-130.64 390.46,-138.09 393.45,-131.76"/>
</g>
<!-- Node38 -->
<g id="node38" class="node">
<title>Node38</title>
<g id="a_node38"><a xlink:title=" ">
<polygon fill="white" stroke="#bfbfbf" points="401.28,-112.5 401.28,-131.5 490.28,-131.5 490.28,-112.5 401.28,-112.5"/>
<text text-anchor="middle" x="445.78" y="-119.5" font-family="Helvetica,sans-Serif" font-size="10.00">bits/allocator.h</text>
</a>
</g>
</g>
<!-- Node37&#45;&gt;Node38 -->
<g id="edge59" class="edge">
<title>Node37&#45;&gt;Node38</title>
<path fill="none" stroke="midnightblue" d="M475,-168.08C470.11,-160.53 462.96,-149.49 456.95,-140.23"/>
<polygon fill="midnightblue" stroke="midnightblue" points="459.83,-138.24 451.45,-131.75 453.96,-142.05 459.83,-138.24"/>
</g>
<!-- Node39 -->
<g id="node39" class="node">
<title>Node39</title>
<g id="a_node39"><a xlink:title=" ">
<polygon fill="white" stroke="#bfbfbf" points="508.28,-112.5 508.28,-131.5 561.28,-131.5 561.28,-112.5 508.28,-112.5"/>
<text text-anchor="middle" x="534.78" y="-119.5" font-family="Helvetica,sans-Serif" font-size="10.00">cstddef</text>
</a>
</g>
</g>
<!-- Node37&#45;&gt;Node39 -->
<g id="edge60" class="edge">
<title>Node37&#45;&gt;Node39</title>
<path fill="none" stroke="midnightblue" d="M489.7,-168.08C497.56,-160.22 509.21,-148.57 518.7,-139.08"/>
<polygon fill="midnightblue" stroke="midnightblue" points="521.44,-141.3 526.03,-131.75 516.49,-136.35 521.44,-141.3"/>
</g>
</g>
</svg>
        <g id="navigator" transform="translate(0 0)" fill="#404254">
                <rect fill="#f2f5e9" fill-opacity="0.5" stroke="#606060" stroke-width=".5" x="0" y="0" width="60" height="60"/>
                <use id="zoomplus" xlink:href="#zoomPlus" x="17" y="9" onmousedown="handleZoom(evt,'in')"/>
                <use id="zoomminus" xlink:href="#zoomMin" x="42" y="9" onmousedown="handleZoom(evt,'out')"/>
                <use id="reset" xlink:href="#resetDef" x="30" y="36" onmousedown="handleReset()"/>
                <g id="arrowUp" xlink:href="#dirArrow" transform="translate(30 24)" onmousedown="handlePan(0,-1)">
                  <use xlink:href="#rim" fill="#404040">
                        <set attributeName="fill" to="#808080" begin="arrowUp.mouseover" end="arrowUp.mouseout"/>
                  </use>
                  <path fill="none" stroke="white" stroke-width="1.5" d="M0,-3.0v7 M-2.5,-0.5L0,-3.0L2.5,-0.5"/>
                </g>
                <g id="arrowRight" xlink:href="#dirArrow" transform="rotate(90) translate(36 -43)" onmousedown="handlePan(1,0)">
                  <use xlink:href="#rim" fill="#404040">
                        <set attributeName="fill" to="#808080" begin="arrowRight.mouseover" end="arrowRight.mouseout"/>
                  </use>
                  <path fill="none" stroke="white" stroke-width="1.5" d="M0,-3.0v7 M-2.5,-0.5L0,-3.0L2.5,-0.5"/>
                </g>
                <g id="arrowDown" xlink:href="#dirArrow" transform="rotate(180) translate(-30 -48)" onmousedown="handlePan(0,1)">
                  <use xlink:href="#rim" fill="#404040">
                        <set attributeName="fill" to="#808080" begin="arrowDown.mouseover" end="arrowDown.mouseout"/>
                  </use>
                  <path fill="none" stroke="white" stroke-width="1.5" d="M0,-3.0v7 M-2.5,-0.5L0,-3.0L2.5,-0.5"/>
                </g>
                <g id="arrowLeft" xlink:href="#dirArrow" transform="rotate(270) translate(-36 17)" onmousedown="handlePan(-1,0)">
                  <use xlink:href="#rim" fill="#404040">
                        <set attributeName="fill" to="#808080" begin="arrowLeft.mouseover" end="arrowLeft.mouseout"/>
                  </use>
                  <path fill="none" stroke="white" stroke-width="1.5" d="M0,-3.0v7 M-2.5,-0.5L0,-3.0L2.5,-0.5"/>
                </g>
        </g>
        <svg viewBox="0 0 15 15" width="100%" height="30px" preserveAspectRatio="xMaxYMin meet">
         <g id="arrow_out" transform="scale(0.3 0.3)">
          <a xlink:href="LedBar_8cpp__incl_org.svg" target="_base">
           <rect id="button" ry="5" rx="5" y="6" x="6" height="38" width="38"
                fill="#f2f5e9" fill-opacity="0.5" stroke="#606060" stroke-width="1.0"/>
           <path id="arrow"
             d="M 11.500037,31.436501 C 11.940474,20.09759 22.043105,11.32322 32.158766,21.979434 L 37.068811,17.246167 C 37.068811,17.246167 37.088388,32 37.088388,32 L 22.160133,31.978069 C 22.160133,31.978069 26.997745,27.140456 26.997745,27.140456 C 18.528582,18.264221 13.291696,25.230495 11.500037,31.436501 z"
             style="fill:#404040;"/>
          </a>
         </g>
        </svg>
</svg>
