<?xml version="1.0" encoding="UTF-8" standalone="no"?>
<!DOCTYPE svg PUBLIC "-//W3C//DTD SVG 1.1//EN"
 "http://www.w3.org/Graphics/SVG/1.1/DTD/svg11.dtd">
<!-- Generated by graphviz version 2.43.0 (0)
 -->
<!-- Title: src/common/action/LedBar.hpp Pages: 1 -->
<svg width="3049pt" height="218pt"
 viewBox="0.00 0.00 3048.50 218.00" xmlns="http://www.w3.org/2000/svg" xmlns:xlink="http://www.w3.org/1999/xlink">
<g id="graph0" class="graph" transform="scale(1 1) rotate(0) translate(4 214)">
<title>src/common/action/LedBar.hpp</title>
<polygon fill="white" stroke="transparent" points="-4,4 -4,-214 3044.5,-214 3044.5,4 -4,4"/>
<!-- Node1 -->
<g id="node1" class="node">
<title>Node1</title>
<g id="a_node1"><a xlink:title="Gestion de la barre de LEDs et ses actions/timers associés.">
<polygon fill="#bfbfbf" stroke="black" points="2010,-190.5 2010,-209.5 2177,-209.5 2177,-190.5 2010,-190.5"/>
<text text-anchor="middle" x="2093.5" y="-197.5" font-family="Helvetica,sans-Serif" font-size="10.00">src/common/action/LedBar.hpp</text>
</a>
</g>
</g>
<!-- Node2 -->
<g id="node2" class="node">
<title>Node2</title>
<g id="a_node2"><a xlink:href="O__LedBarTest_8cpp.html" target="_top" xlink:title="Implementation de la classe O_LedBarTest.">
<polygon fill="white" stroke="black" points="0,-0.5 0,-30.5 141,-30.5 141,-0.5 0,-0.5"/>
<text text-anchor="start" x="8" y="-18.5" font-family="Helvetica,sans-Serif" font-size="10.00">src/bot&#45;opos6ul/O_LedBar</text>
<text text-anchor="middle" x="70.5" y="-7.5" font-family="Helvetica,sans-Serif" font-size="10.00">Test.cpp</text>
</a>
</g>
</g>
<!-- Node1&#45;&gt;Node2 -->
<g id="edge1" class="edge">
<title>Node1&#45;&gt;Node2</title>
<path fill="none" stroke="midnightblue" d="M1999.71,-194C1718.54,-178.33 858.27,-125.53 150.5,-31 147.42,-30.59 144.28,-30.14 141.11,-29.67"/>
<polygon fill="midnightblue" stroke="midnightblue" points="1999.69,-197.5 2009.87,-194.56 2000.08,-190.51 1999.69,-197.5"/>
</g>
<!-- Node3 -->
<g id="node3" class="node">
<title>Node3</title>
<g id="a_node3"><a xlink:href="OPOS6UL__ActionsExtended_8hpp.html" target="_top" xlink:title="Extension des actions du robot pour la carte OPOS6UL.">
<polygon fill="white" stroke="black" points="1469.5,-67.5 1469.5,-97.5 1609.5,-97.5 1609.5,-67.5 1469.5,-67.5"/>
<text text-anchor="start" x="1477.5" y="-85.5" font-family="Helvetica,sans-Serif" font-size="10.00">src/bot&#45;opos6ul/OPOS6UL</text>
<text text-anchor="middle" x="1539.5" y="-74.5" font-family="Helvetica,sans-Serif" font-size="10.00">_ActionsExtended.hpp</text>
</a>
</g>
</g>
<!-- Node1&#45;&gt;Node3 -->
<g id="edge2" class="edge">
<title>Node1&#45;&gt;Node3</title>
<path fill="none" stroke="midnightblue" d="M2042.42,-188.35C1942.09,-167.43 1719.33,-120.99 1607.01,-97.58"/>
<polygon fill="midnightblue" stroke="midnightblue" points="2041.81,-191.8 2052.31,-190.41 2043.24,-184.95 2041.81,-191.8"/>
</g>
<!-- Node21 -->
<g id="node21" class="node">
<title>Node21</title>
<g id="a_node21"><a xlink:href="OPOS6UL__RobotExtended_8cpp.html" target="_top" xlink:title="Implémentation de la classe OPOS6UL_RobotExtended.">
<polygon fill="white" stroke="black" points="2900.5,-0.5 2900.5,-30.5 3040.5,-30.5 3040.5,-0.5 2900.5,-0.5"/>
<text text-anchor="start" x="2908.5" y="-18.5" font-family="Helvetica,sans-Serif" font-size="10.00">src/bot&#45;opos6ul/OPOS6UL</text>
<text text-anchor="middle" x="2970.5" y="-7.5" font-family="Helvetica,sans-Serif" font-size="10.00">_RobotExtended.cpp</text>
</a>
</g>
</g>
<!-- Node1&#45;&gt;Node21 -->
<g id="edge22" class="edge">
<title>Node1&#45;&gt;Node21</title>
<path fill="none" stroke="midnightblue" d="M2187.38,-197.41C2377.17,-192.63 2798.64,-173.57 2918.5,-98 2943.49,-82.25 2958.7,-49.63 2965.76,-30.79"/>
<polygon fill="midnightblue" stroke="midnightblue" points="2187.05,-193.92 2177.14,-197.66 2187.22,-200.92 2187.05,-193.92"/>
</g>
<!-- Node22 -->
<g id="node22" class="node">
<title>Node22</title>
<g id="a_node22"><a xlink:href="Actions_8hpp.html" target="_top" xlink:title="Définition de la classe Actions.">
<polygon fill="white" stroke="black" points="2008.5,-134.5 2008.5,-153.5 2178.5,-153.5 2178.5,-134.5 2008.5,-134.5"/>
<text text-anchor="middle" x="2093.5" y="-141.5" font-family="Helvetica,sans-Serif" font-size="10.00">src/common/action/Actions.hpp</text>
</a>
</g>
</g>
<!-- Node1&#45;&gt;Node22 -->
<g id="edge23" class="edge">
<title>Node1&#45;&gt;Node22</title>
<path fill="none" stroke="midnightblue" d="M2093.5,-179.8C2093.5,-170.91 2093.5,-160.78 2093.5,-153.75"/>
<polygon fill="midnightblue" stroke="midnightblue" points="2090,-180.08 2093.5,-190.08 2097,-180.08 2090,-180.08"/>
</g>
<!-- Node25 -->
<g id="node25" class="node">
<title>Node25</title>
<g id="a_node25"><a xlink:href="LedBar_8cpp.html" target="_top" xlink:title=" ">
<polygon fill="white" stroke="black" points="2743.5,-73 2743.5,-92 2909.5,-92 2909.5,-73 2743.5,-73"/>
<text text-anchor="middle" x="2826.5" y="-80" font-family="Helvetica,sans-Serif" font-size="10.00">src/common/action/LedBar.cpp</text>
</a>
</g>
</g>
<!-- Node1&#45;&gt;Node25 -->
<g id="edge33" class="edge">
<title>Node1&#45;&gt;Node25</title>
<path fill="none" stroke="midnightblue" d="M2157.59,-188.9C2299.75,-166.5 2639.41,-112.98 2772.08,-92.07"/>
<polygon fill="midnightblue" stroke="midnightblue" points="2157.03,-185.45 2147.7,-190.46 2158.12,-192.36 2157.03,-185.45"/>
</g>
<!-- Node3&#45;&gt;Node2 -->
<g id="edge12" class="edge">
<title>Node3&#45;&gt;Node2</title>
<path fill="none" stroke="midnightblue" d="M1459.13,-80.09C1202.84,-75.35 406.79,-58.74 150.5,-31 147.41,-30.67 144.27,-30.28 141.09,-29.86"/>
<polygon fill="midnightblue" stroke="midnightblue" points="1459.41,-83.6 1469.47,-80.28 1459.54,-76.6 1459.41,-83.6"/>
</g>
<!-- Node4 -->
<g id="node4" class="node">
<title>Node4</title>
<g id="a_node4"><a xlink:href="O__ActionManagerTimerTest_8cpp.html" target="_top" xlink:title="Implémentation de la classe O_ActionManagerTimerTest.">
<polygon fill="white" stroke="black" points="2744.5,-0.5 2744.5,-30.5 2882.5,-30.5 2882.5,-0.5 2744.5,-0.5"/>
<text text-anchor="start" x="2752.5" y="-18.5" font-family="Helvetica,sans-Serif" font-size="10.00">src/bot&#45;opos6ul/O_Action</text>
<text text-anchor="middle" x="2813.5" y="-7.5" font-family="Helvetica,sans-Serif" font-size="10.00">ManagerTimerTest.cpp</text>
</a>
</g>
</g>
<!-- Node3&#45;&gt;Node4 -->
<g id="edge3" class="edge">
<title>Node3&#45;&gt;Node4</title>
<path fill="none" stroke="midnightblue" d="M1619.89,-66.98C2114.15,-14.98 2245.07,-84.18 2735.5,-31 2738.38,-30.69 2741.3,-30.33 2744.26,-29.94"/>
<polygon fill="midnightblue" stroke="midnightblue" points="1619.21,-63.53 1609.63,-68.07 1619.95,-70.49 1619.21,-63.53"/>
</g>
<!-- Node5 -->
<g id="node5" class="node">
<title>Node5</title>
<g id="a_node5"><a xlink:href="O__Asserv__CalageTest_8cpp.html" target="_top" xlink:title="Implémentation de la classe O_Asserv_CalageTest.">
<polygon fill="white" stroke="black" points="1458.5,-0.5 1458.5,-30.5 1598.5,-30.5 1598.5,-0.5 1458.5,-0.5"/>
<text text-anchor="start" x="1466.5" y="-18.5" font-family="Helvetica,sans-Serif" font-size="10.00">src/bot&#45;opos6ul/O_Asserv</text>
<text text-anchor="middle" x="1528.5" y="-7.5" font-family="Helvetica,sans-Serif" font-size="10.00">_CalageTest.cpp</text>
</a>
</g>
</g>
<!-- Node3&#45;&gt;Node5 -->
<g id="edge4" class="edge">
<title>Node3&#45;&gt;Node5</title>
<path fill="none" stroke="midnightblue" d="M1535.42,-57.4C1533.89,-48.37 1532.21,-38.41 1530.88,-30.58"/>
<polygon fill="midnightblue" stroke="midnightblue" points="1531.99,-58.12 1537.11,-67.4 1538.9,-56.95 1531.99,-58.12"/>
</g>
<!-- Node6 -->
<g id="node6" class="node">
<title>Node6</title>
<g id="a_node6"><a xlink:href="O__Asserv__SquareTest_8cpp.html" target="_top" xlink:title="Implémentation de la classe O_Asserv_SquareTest.">
<polygon fill="white" stroke="black" points="1616.5,-0.5 1616.5,-30.5 1756.5,-30.5 1756.5,-0.5 1616.5,-0.5"/>
<text text-anchor="start" x="1624.5" y="-18.5" font-family="Helvetica,sans-Serif" font-size="10.00">src/bot&#45;opos6ul/O_Asserv</text>
<text text-anchor="middle" x="1686.5" y="-7.5" font-family="Helvetica,sans-Serif" font-size="10.00">_SquareTest.cpp</text>
</a>
</g>
</g>
<!-- Node3&#45;&gt;Node6 -->
<g id="edge5" class="edge">
<title>Node3&#45;&gt;Node6</title>
<path fill="none" stroke="midnightblue" d="M1580.73,-63.27C1604.14,-52.92 1633.01,-40.15 1654.67,-30.58"/>
<polygon fill="midnightblue" stroke="midnightblue" points="1579.13,-60.15 1571.4,-67.4 1581.96,-66.55 1579.13,-60.15"/>
</g>
<!-- Node7 -->
<g id="node7" class="node">
<title>Node7</title>
<g id="a_node7"><a xlink:href="O__AsservLineRotateTest_8cpp.html" target="_top" xlink:title="Implémentation de la classe O_AsservLineRotateTest.">
<polygon fill="white" stroke="black" points="1774.5,-0.5 1774.5,-30.5 1914.5,-30.5 1914.5,-0.5 1774.5,-0.5"/>
<text text-anchor="start" x="1782.5" y="-18.5" font-family="Helvetica,sans-Serif" font-size="10.00">src/bot&#45;opos6ul/O_Asserv</text>
<text text-anchor="middle" x="1844.5" y="-7.5" font-family="Helvetica,sans-Serif" font-size="10.00">LineRotateTest.cpp</text>
</a>
</g>
</g>
<!-- Node3&#45;&gt;Node7 -->
<g id="edge6" class="edge">
<title>Node3&#45;&gt;Node7</title>
<path fill="none" stroke="midnightblue" d="M1615.13,-65.38C1665.3,-54.69 1730.49,-40.8 1778.55,-30.55"/>
<polygon fill="midnightblue" stroke="midnightblue" points="1614.36,-61.97 1605.3,-67.48 1615.81,-68.81 1614.36,-61.97"/>
</g>
<!-- Node8 -->
<g id="node8" class="node">
<title>Node8</title>
<g id="a_node8"><a xlink:href="O__AsservTest_8cpp.html" target="_top" xlink:title="Implémentation de la classe O_AsservTest.">
<polygon fill="white" stroke="black" points="1932.5,-0.5 1932.5,-30.5 2072.5,-30.5 2072.5,-0.5 1932.5,-0.5"/>
<text text-anchor="start" x="1940.5" y="-18.5" font-family="Helvetica,sans-Serif" font-size="10.00">src/bot&#45;opos6ul/O_Asserv</text>
<text text-anchor="middle" x="2002.5" y="-7.5" font-family="Helvetica,sans-Serif" font-size="10.00">Test.cpp</text>
</a>
</g>
</g>
<!-- Node3&#45;&gt;Node8 -->
<g id="edge7" class="edge">
<title>Node3&#45;&gt;Node8</title>
<path fill="none" stroke="midnightblue" d="M1619.61,-66.9C1755.17,-46.87 1791.69,-50.85 1923.5,-31 1926.4,-30.56 1929.35,-30.1 1932.33,-29.62"/>
<polygon fill="midnightblue" stroke="midnightblue" points="1619.05,-63.44 1609.67,-68.38 1620.08,-70.36 1619.05,-63.44"/>
</g>
<!-- Node9 -->
<g id="node9" class="node">
<title>Node9</title>
<g id="a_node9"><a xlink:href="O__AsservXYRotateTest_8cpp.html" target="_top" xlink:title="Implémentation de la classe O_AsservXYRotateTest.">
<polygon fill="white" stroke="black" points="2090.5,-0.5 2090.5,-30.5 2230.5,-30.5 2230.5,-0.5 2090.5,-0.5"/>
<text text-anchor="start" x="2098.5" y="-18.5" font-family="Helvetica,sans-Serif" font-size="10.00">src/bot&#45;opos6ul/O_Asserv</text>
<text text-anchor="middle" x="2160.5" y="-7.5" font-family="Helvetica,sans-Serif" font-size="10.00">XYRotateTest.cpp</text>
</a>
</g>
</g>
<!-- Node3&#45;&gt;Node9 -->
<g id="edge8" class="edge">
<title>Node3&#45;&gt;Node9</title>
<path fill="none" stroke="midnightblue" d="M1619.85,-66.92C1824.94,-40.88 1880.13,-57.24 2081.5,-31 2084.4,-30.62 2087.36,-30.21 2090.35,-29.77"/>
<polygon fill="midnightblue" stroke="midnightblue" points="1619.12,-63.48 1609.65,-68.23 1620.02,-70.43 1619.12,-63.48"/>
</g>
<!-- Node10 -->
<g id="node10" class="node">
<title>Node10</title>
<g id="a_node10"><a xlink:href="O__ButtonBarTest_8cpp.html" target="_top" xlink:title="Implémentation de la classe O_ButtonBarTest.">
<polygon fill="white" stroke="black" points="2248.5,-0.5 2248.5,-30.5 2388.5,-30.5 2388.5,-0.5 2248.5,-0.5"/>
<text text-anchor="start" x="2256.5" y="-18.5" font-family="Helvetica,sans-Serif" font-size="10.00">src/bot&#45;opos6ul/O_Button</text>
<text text-anchor="middle" x="2318.5" y="-7.5" font-family="Helvetica,sans-Serif" font-size="10.00">BarTest.cpp</text>
</a>
</g>
</g>
<!-- Node3&#45;&gt;Node10 -->
<g id="edge9" class="edge">
<title>Node3&#45;&gt;Node10</title>
<path fill="none" stroke="midnightblue" d="M1619.93,-66.94C1894.77,-34.71 1968.37,-63.61 2239.5,-31 2242.41,-30.65 2245.37,-30.26 2248.36,-29.84"/>
<polygon fill="midnightblue" stroke="midnightblue" points="1619.16,-63.5 1609.64,-68.16 1619.99,-70.45 1619.16,-63.5"/>
</g>
<!-- Node11 -->
<g id="node11" class="node">
<title>Node11</title>
<g id="a_node11"><a xlink:href="O__IAbyPathTest_8cpp.html" target="_top" xlink:title="Implementation de la classe O_IAByPathTest.">
<polygon fill="white" stroke="black" points="2406.5,-0.5 2406.5,-30.5 2556.5,-30.5 2556.5,-0.5 2406.5,-0.5"/>
<text text-anchor="start" x="2414.5" y="-18.5" font-family="Helvetica,sans-Serif" font-size="10.00">src/bot&#45;opos6ul/O_IAbyPath</text>
<text text-anchor="middle" x="2481.5" y="-7.5" font-family="Helvetica,sans-Serif" font-size="10.00">Test.cpp</text>
</a>
</g>
</g>
<!-- Node3&#45;&gt;Node11 -->
<g id="edge10" class="edge">
<title>Node3&#45;&gt;Node11</title>
<path fill="none" stroke="midnightblue" d="M1619.66,-66.98C1964.59,-28.4 2056.23,-68.19 2397.5,-31 2400.44,-30.68 2403.44,-30.32 2406.46,-29.93"/>
<polygon fill="midnightblue" stroke="midnightblue" points="1619.18,-63.51 1609.64,-68.12 1619.97,-70.47 1619.18,-63.51"/>
</g>
<!-- Node12 -->
<g id="node12" class="node">
<title>Node12</title>
<g id="a_node12"><a xlink:href="O__LcdBoardTest_8cpp.html" target="_top" xlink:title="Implémentation de la classe O_LcdBoardTest.">
<polygon fill="white" stroke="black" points="2574.5,-0.5 2574.5,-30.5 2726.5,-30.5 2726.5,-0.5 2574.5,-0.5"/>
<text text-anchor="start" x="2582.5" y="-18.5" font-family="Helvetica,sans-Serif" font-size="10.00">src/bot&#45;opos6ul/O_LcdBoard</text>
<text text-anchor="middle" x="2650.5" y="-7.5" font-family="Helvetica,sans-Serif" font-size="10.00">Test.cpp</text>
</a>
</g>
</g>
<!-- Node3&#45;&gt;Node12 -->
<g id="edge11" class="edge">
<title>Node3&#45;&gt;Node12</title>
<path fill="none" stroke="midnightblue" d="M1619.6,-67C2038.89,-21.69 2149.83,-74.17 2565.5,-31 2568.33,-30.71 2571.21,-30.38 2574.11,-30.02"/>
<polygon fill="midnightblue" stroke="midnightblue" points="1619.19,-63.52 1609.63,-68.09 1619.96,-70.48 1619.19,-63.52"/>
</g>
<!-- Node13 -->
<g id="node13" class="node">
<title>Node13</title>
<g id="a_node13"><a xlink:href="O__SensorsTest_8cpp.html" target="_top" xlink:title="Implémentation de la classe O_SensorsTest.">
<polygon fill="white" stroke="black" points="159.5,-0.5 159.5,-30.5 305.5,-30.5 305.5,-0.5 159.5,-0.5"/>
<text text-anchor="start" x="167.5" y="-18.5" font-family="Helvetica,sans-Serif" font-size="10.00">src/bot&#45;opos6ul/O_Sensors</text>
<text text-anchor="middle" x="232.5" y="-7.5" font-family="Helvetica,sans-Serif" font-size="10.00">Test.cpp</text>
</a>
</g>
</g>
<!-- Node3&#45;&gt;Node13 -->
<g id="edge13" class="edge">
<title>Node3&#45;&gt;Node13</title>
<path fill="none" stroke="midnightblue" d="M1458.94,-81.9C1262.61,-82.06 744.06,-77.62 314.5,-31 311.63,-30.69 308.7,-30.34 305.75,-29.95"/>
<polygon fill="midnightblue" stroke="midnightblue" points="1459.17,-85.4 1469.17,-81.88 1459.16,-78.4 1459.17,-85.4"/>
</g>
<!-- Node14 -->
<g id="node14" class="node">
<title>Node14</title>
<g id="a_node14"><a xlink:href="O__ServoObjectsTest_8cpp.html" target="_top" xlink:title="Implémentation de la classe O_ServoObjectsTest.">
<polygon fill="white" stroke="black" points="323.5,-0.5 323.5,-30.5 495.5,-30.5 495.5,-0.5 323.5,-0.5"/>
<text text-anchor="start" x="331.5" y="-18.5" font-family="Helvetica,sans-Serif" font-size="10.00">src/bot&#45;opos6ul/O_ServoObjects</text>
<text text-anchor="middle" x="409.5" y="-7.5" font-family="Helvetica,sans-Serif" font-size="10.00">Test.cpp</text>
</a>
</g>
</g>
<!-- Node3&#45;&gt;Node14 -->
<g id="edge14" class="edge">
<title>Node3&#45;&gt;Node14</title>
<path fill="none" stroke="midnightblue" d="M1459.24,-80.39C1285,-77.36 859.24,-66.63 504.5,-31 501.59,-30.71 498.64,-30.39 495.66,-30.05"/>
<polygon fill="midnightblue" stroke="midnightblue" points="1459.29,-83.89 1469.35,-80.56 1459.41,-76.89 1459.29,-83.89"/>
</g>
<!-- Node15 -->
<g id="node15" class="node">
<title>Node15</title>
<g id="a_node15"><a xlink:href="O__ServoStepTest_8cpp.html" target="_top" xlink:title="Implémentation de la classe O_ServoStepTest.">
<polygon fill="white" stroke="black" points="514,-0.5 514,-30.5 671,-30.5 671,-0.5 514,-0.5"/>
<text text-anchor="start" x="522" y="-18.5" font-family="Helvetica,sans-Serif" font-size="10.00">src/bot&#45;opos6ul/O_ServoStep</text>
<text text-anchor="middle" x="592.5" y="-7.5" font-family="Helvetica,sans-Serif" font-size="10.00">Test.cpp</text>
</a>
</g>
</g>
<!-- Node3&#45;&gt;Node15 -->
<g id="edge15" class="edge">
<title>Node3&#45;&gt;Node15</title>
<path fill="none" stroke="midnightblue" d="M1459.13,-79.64C1306.67,-75.47 965.17,-63.1 679.5,-31 676.76,-30.69 673.98,-30.36 671.17,-30"/>
<polygon fill="midnightblue" stroke="midnightblue" points="1459.24,-83.14 1469.33,-79.91 1459.43,-76.14 1459.24,-83.14"/>
</g>
<!-- Node16 -->
<g id="node16" class="node">
<title>Node16</title>
<g id="a_node16"><a xlink:href="O__State__DecisionMakerIA_8cpp.html" target="_top" xlink:title="Implémentation de la classe O_State_DecisionMakerIA.">
<polygon fill="white" stroke="black" points="689,-0.5 689,-30.5 822,-30.5 822,-0.5 689,-0.5"/>
<text text-anchor="start" x="697" y="-18.5" font-family="Helvetica,sans-Serif" font-size="10.00">src/bot&#45;opos6ul/O_State</text>
<text text-anchor="middle" x="755.5" y="-7.5" font-family="Helvetica,sans-Serif" font-size="10.00">_DecisionMakerIA.cpp</text>
</a>
</g>
</g>
<!-- Node3&#45;&gt;Node16 -->
<g id="edge16" class="edge">
<title>Node3&#45;&gt;Node16</title>
<path fill="none" stroke="midnightblue" d="M1459.27,-78.92C1327.53,-73.98 1057.35,-60.9 830.5,-31 827.74,-30.64 824.93,-30.23 822.09,-29.8"/>
<polygon fill="midnightblue" stroke="midnightblue" points="1459.16,-82.42 1469.28,-79.29 1459.41,-75.42 1459.16,-82.42"/>
</g>
<!-- Node17 -->
<g id="node17" class="node">
<title>Node17</title>
<g id="a_node17"><a xlink:href="O__State__Init_8cpp.html" target="_top" xlink:title="Implémentation de la classe O_State_Init.">
<polygon fill="white" stroke="black" points="840,-0.5 840,-30.5 973,-30.5 973,-0.5 840,-0.5"/>
<text text-anchor="start" x="848" y="-18.5" font-family="Helvetica,sans-Serif" font-size="10.00">src/bot&#45;opos6ul/O_State</text>
<text text-anchor="middle" x="906.5" y="-7.5" font-family="Helvetica,sans-Serif" font-size="10.00">_Init.cpp</text>
</a>
</g>
</g>
<!-- Node3&#45;&gt;Node17 -->
<g id="edge17" class="edge">
<title>Node3&#45;&gt;Node17</title>
<path fill="none" stroke="midnightblue" d="M1458.97,-76.77C1350.24,-69.8 1150.61,-54.94 981.5,-31 978.74,-30.61 975.93,-30.19 973.1,-29.74"/>
<polygon fill="midnightblue" stroke="midnightblue" points="1459.01,-80.28 1469.21,-77.42 1459.45,-73.29 1459.01,-80.28"/>
</g>
<!-- Node18 -->
<g id="node18" class="node">
<title>Node18</title>
<g id="a_node18"><a xlink:href="O__State__WaitEndOfMatch_8cpp.html" target="_top" xlink:title="Implémentation de la classe O_State_WaitEndOfMatch.">
<polygon fill="white" stroke="black" points="991,-0.5 991,-30.5 1124,-30.5 1124,-0.5 991,-0.5"/>
<text text-anchor="start" x="999" y="-18.5" font-family="Helvetica,sans-Serif" font-size="10.00">src/bot&#45;opos6ul/O_State</text>
<text text-anchor="middle" x="1057.5" y="-7.5" font-family="Helvetica,sans-Serif" font-size="10.00">_WaitEndOfMatch.cpp</text>
</a>
</g>
</g>
<!-- Node3&#45;&gt;Node18 -->
<g id="edge18" class="edge">
<title>Node3&#45;&gt;Node18</title>
<path fill="none" stroke="midnightblue" d="M1459.25,-73.07C1377.2,-64.09 1246.15,-48.73 1133.5,-31 1130.45,-30.52 1127.33,-30.01 1124.19,-29.48"/>
<polygon fill="midnightblue" stroke="midnightblue" points="1458.94,-76.56 1469.26,-74.16 1459.7,-69.6 1458.94,-76.56"/>
</g>
<!-- Node19 -->
<g id="node19" class="node">
<title>Node19</title>
<g id="a_node19"><a xlink:href="O__TiretteTest_8cpp.html" target="_top" xlink:title="Implémentation de la classe O_TiretteTest.">
<polygon fill="white" stroke="black" points="1142.5,-0.5 1142.5,-30.5 1282.5,-30.5 1282.5,-0.5 1142.5,-0.5"/>
<text text-anchor="start" x="1150.5" y="-18.5" font-family="Helvetica,sans-Serif" font-size="10.00">src/bot&#45;opos6ul/O_Tirette</text>
<text text-anchor="middle" x="1212.5" y="-7.5" font-family="Helvetica,sans-Serif" font-size="10.00">Test.cpp</text>
</a>
</g>
</g>
<!-- Node3&#45;&gt;Node19 -->
<g id="edge19" class="edge">
<title>Node3&#45;&gt;Node19</title>
<path fill="none" stroke="midnightblue" d="M1459.44,-65.59C1405.29,-54.82 1334.45,-40.74 1282.53,-30.42"/>
<polygon fill="midnightblue" stroke="midnightblue" points="1458.86,-69.04 1469.35,-67.56 1460.22,-62.17 1458.86,-69.04"/>
</g>
<!-- Node20 -->
<g id="node20" class="node">
<title>Node20</title>
<g id="a_node20"><a xlink:href="OPOS6UL__ActionsExtended_8cpp.html" target="_top" xlink:title="Implémentation de la classe OPOS6UL_ActionsExtended.">
<polygon fill="white" stroke="black" points="1300.5,-0.5 1300.5,-30.5 1440.5,-30.5 1440.5,-0.5 1300.5,-0.5"/>
<text text-anchor="start" x="1308.5" y="-18.5" font-family="Helvetica,sans-Serif" font-size="10.00">src/bot&#45;opos6ul/OPOS6UL</text>
<text text-anchor="middle" x="1370.5" y="-7.5" font-family="Helvetica,sans-Serif" font-size="10.00">_ActionsExtended.cpp</text>
</a>
</g>
</g>
<!-- Node3&#45;&gt;Node20 -->
<g id="edge20" class="edge">
<title>Node3&#45;&gt;Node20</title>
<path fill="none" stroke="midnightblue" d="M1493.17,-63.68C1466.07,-53.26 1432.33,-40.28 1407.1,-30.58"/>
<polygon fill="midnightblue" stroke="midnightblue" points="1492.24,-67.07 1502.83,-67.4 1494.75,-60.54 1492.24,-67.07"/>
</g>
<!-- Node3&#45;&gt;Node21 -->
<g id="edge21" class="edge">
<title>Node3&#45;&gt;Node21</title>
<path fill="none" stroke="midnightblue" d="M1619.64,-67.01C2183.13,-8.7 2331.91,-89.92 2891.5,-31 2894.41,-30.69 2897.38,-30.34 2900.37,-29.95"/>
<polygon fill="midnightblue" stroke="midnightblue" points="1619.21,-63.53 1609.63,-68.05 1619.94,-70.49 1619.21,-63.53"/>
</g>
<!-- Node22&#45;&gt;Node3 -->
<g id="edge25" class="edge">
<title>Node22&#45;&gt;Node3</title>
<path fill="none" stroke="midnightblue" d="M1998.31,-136.43C1902.2,-129.23 1749.65,-116.21 1618.5,-98 1615.6,-97.6 1612.64,-97.16 1609.66,-96.71"/>
<polygon fill="midnightblue" stroke="midnightblue" points="1998.06,-139.92 2008.29,-137.17 1998.58,-132.94 1998.06,-139.92"/>
</g>
<!-- Node22&#45;&gt;Node4 -->
<g id="edge24" class="edge">
<title>Node22&#45;&gt;Node4</title>
<path fill="none" stroke="midnightblue" d="M2044.39,-130.89C2027.5,-124.13 2010.38,-113.75 2000.5,-98 1993.18,-86.33 1991,-76.98 2000.5,-67 2028.69,-37.39 2694.89,-35.75 2735.5,-31 2738.37,-30.66 2741.3,-30.29 2744.25,-29.87"/>
<polygon fill="midnightblue" stroke="midnightblue" points="2043.65,-134.35 2054.25,-134.48 2046.04,-127.77 2043.65,-134.35"/>
</g>
<!-- Node23 -->
<g id="node23" class="node">
<title>Node23</title>
<g id="a_node23"><a xlink:href="Actions_8cpp.html" target="_top" xlink:title=" ">
<polygon fill="white" stroke="black" points="2009,-73 2009,-92 2178,-92 2178,-73 2009,-73"/>
<text text-anchor="middle" x="2093.5" y="-80" font-family="Helvetica,sans-Serif" font-size="10.00">src/common/action/Actions.cpp</text>
</a>
</g>
</g>
<!-- Node22&#45;&gt;Node23 -->
<g id="edge26" class="edge">
<title>Node22&#45;&gt;Node23</title>
<path fill="none" stroke="midnightblue" d="M2093.5,-124.32C2093.5,-113.5 2093.5,-100.4 2093.5,-92.01"/>
<polygon fill="midnightblue" stroke="midnightblue" points="2090,-124.48 2093.5,-134.48 2097,-124.48 2090,-124.48"/>
</g>
<!-- Node24 -->
<g id="node24" class="node">
<title>Node24</title>
<g id="a_node24"><a xlink:href="ButtonBar_8cpp.html" target="_top" xlink:title=" ">
<polygon fill="white" stroke="black" points="2196,-67.5 2196,-97.5 2341,-97.5 2341,-67.5 2196,-67.5"/>
<text text-anchor="start" x="2204" y="-85.5" font-family="Helvetica,sans-Serif" font-size="10.00">src/common/action/Button</text>
<text text-anchor="middle" x="2268.5" y="-74.5" font-family="Helvetica,sans-Serif" font-size="10.00">Bar.cpp</text>
</a>
</g>
</g>
<!-- Node22&#45;&gt;Node24 -->
<g id="edge27" class="edge">
<title>Node22&#45;&gt;Node24</title>
<path fill="none" stroke="midnightblue" d="M2128.12,-131.23C2156.61,-121.54 2197.08,-107.78 2227.26,-97.52"/>
<polygon fill="midnightblue" stroke="midnightblue" points="2126.91,-127.94 2118.57,-134.48 2129.17,-134.57 2126.91,-127.94"/>
</g>
<!-- Node22&#45;&gt;Node25 -->
<g id="edge28" class="edge">
<title>Node22&#45;&gt;Node25</title>
<path fill="none" stroke="midnightblue" d="M2189.07,-138.87C2314.54,-132.85 2541.51,-119.94 2734.5,-98 2748.48,-96.41 2763.58,-94.23 2777.43,-92.04"/>
<polygon fill="midnightblue" stroke="midnightblue" points="2188.56,-135.39 2178.74,-139.36 2188.89,-142.38 2188.56,-135.39"/>
</g>
<!-- Node26 -->
<g id="node26" class="node">
<title>Node26</title>
<g id="a_node26"><a xlink:href="Sensors_8cpp.html" target="_top" xlink:title=" ">
<polygon fill="white" stroke="black" points="2359,-73 2359,-92 2530,-92 2530,-73 2359,-73"/>
<text text-anchor="middle" x="2444.5" y="-80" font-family="Helvetica,sans-Serif" font-size="10.00">src/common/action/Sensors.cpp</text>
</a>
</g>
</g>
<!-- Node22&#45;&gt;Node26 -->
<g id="edge29" class="edge">
<title>Node22&#45;&gt;Node26</title>
<path fill="none" stroke="midnightblue" d="M2153.91,-132.76C2221.83,-121.25 2330.88,-102.76 2394.3,-92.01"/>
<polygon fill="midnightblue" stroke="midnightblue" points="2153.06,-129.35 2143.79,-134.48 2154.23,-136.25 2153.06,-129.35"/>
</g>
<!-- Node27 -->
<g id="node27" class="node">
<title>Node27</title>
<g id="a_node27"><a xlink:href="ServoObjectsSystem_8cpp.html" target="_top" xlink:title=" ">
<polygon fill="white" stroke="black" points="2548,-67.5 2548,-97.5 2725,-97.5 2725,-67.5 2548,-67.5"/>
<text text-anchor="start" x="2556" y="-85.5" font-family="Helvetica,sans-Serif" font-size="10.00">src/common/action/ServoObjects</text>
<text text-anchor="middle" x="2636.5" y="-74.5" font-family="Helvetica,sans-Serif" font-size="10.00">System.cpp</text>
</a>
</g>
</g>
<!-- Node22&#45;&gt;Node27 -->
<g id="edge30" class="edge">
<title>Node22&#45;&gt;Node27</title>
<path fill="none" stroke="midnightblue" d="M2188.95,-134.7C2279.36,-126.52 2418.86,-113.09 2539.5,-98 2542.29,-97.65 2545.12,-97.29 2547.98,-96.91"/>
<polygon fill="midnightblue" stroke="midnightblue" points="2188.37,-131.24 2178.72,-135.62 2189,-138.21 2188.37,-131.24"/>
</g>
<!-- Node28 -->
<g id="node28" class="node">
<title>Node28</title>
<g id="a_node28"><a xlink:href="SoundBar_8cpp.html" target="_top" xlink:title=" ">
<polygon fill="white" stroke="black" points="1628,-73 1628,-92 1807,-92 1807,-73 1628,-73"/>
<text text-anchor="middle" x="1717.5" y="-80" font-family="Helvetica,sans-Serif" font-size="10.00">src/common/action/SoundBar.cpp</text>
</a>
</g>
</g>
<!-- Node22&#45;&gt;Node28 -->
<g id="edge31" class="edge">
<title>Node22&#45;&gt;Node28</title>
<path fill="none" stroke="midnightblue" d="M2029.68,-132.9C1956.99,-121.4 1839.49,-102.8 1771.27,-92.01"/>
<polygon fill="midnightblue" stroke="midnightblue" points="2029.2,-136.37 2039.63,-134.48 2030.3,-129.46 2029.2,-136.37"/>
</g>
<!-- Node29 -->
<g id="node29" class="node">
<title>Node29</title>
<g id="a_node29"><a xlink:href="Robot_8cpp.html" target="_top" xlink:title="Implémentation de la classe Robot.">
<polygon fill="white" stroke="black" points="1825.5,-73 1825.5,-92 1953.5,-92 1953.5,-73 1825.5,-73"/>
<text text-anchor="middle" x="1889.5" y="-80" font-family="Helvetica,sans-Serif" font-size="10.00">src/common/Robot.cpp</text>
</a>
</g>
</g>
<!-- Node22&#45;&gt;Node29 -->
<g id="edge32" class="edge">
<title>Node22&#45;&gt;Node29</title>
<path fill="none" stroke="midnightblue" d="M2054.42,-131.6C2014.78,-120.04 1954.32,-102.41 1918.67,-92.01"/>
<polygon fill="midnightblue" stroke="midnightblue" points="2053.69,-135.04 2064.27,-134.48 2055.65,-128.32 2053.69,-135.04"/>
</g>
</g>
</svg>
