<?xml version="1.0" encoding="UTF-8" standalone="no"?>
<!DOCTYPE svg PUBLIC "-//W3C//DTD SVG 1.1//EN"
 "http://www.w3.org/Graphics/SVG/1.1/DTD/svg11.dtd">
<!-- Generated by graphviz version 2.43.0 (0)
 -->
<!-- Title: src/common/log/Level.hpp Pages: 1 -->
<svg width="5237pt" height="229pt"
 viewBox="0.00 0.00 5236.50 229.00" xmlns="http://www.w3.org/2000/svg" xmlns:xlink="http://www.w3.org/1999/xlink">
<g id="graph0" class="graph" transform="scale(1 1) rotate(0) translate(4 225)">
<title>src/common/log/Level.hpp</title>
<polygon fill="white" stroke="transparent" points="-4,4 -4,-225 5232.5,-225 5232.5,4 -4,4"/>
<!-- Node1 -->
<g id="node1" class="node">
<title>Node1</title>
<g id="a_node1"><a xlink:title="Définition de la classe Level.">
<polygon fill="#bfbfbf" stroke="black" points="2902.5,-201.5 2902.5,-220.5 3047.5,-220.5 3047.5,-201.5 2902.5,-201.5"/>
<text text-anchor="middle" x="2975" y="-208.5" font-family="Helvetica,sans-Serif" font-size="10.00">src/common/log/Level.hpp</text>
</a>
</g>
</g>
<!-- Node2 -->
<g id="node2" class="node">
<title>Node2</title>
<g id="a_node2"><a xlink:href="src_2bot-opos6ul_2LoggerInitialize_8cpp.html" target="_top" xlink:title="Ce fichier contient l&#39;initialisation du système de Log.">
<polygon fill="white" stroke="black" points="2005,-140 2005,-159 2195,-159 2195,-140 2005,-140"/>
<text text-anchor="middle" x="2100" y="-147" font-family="Helvetica,sans-Serif" font-size="10.00">src/bot&#45;opos6ul/LoggerInitialize.cpp</text>
</a>
</g>
</g>
<!-- Node1&#45;&gt;Node2 -->
<g id="edge1" class="edge">
<title>Node1&#45;&gt;Node2</title>
<path fill="none" stroke="midnightblue" d="M2891.97,-207.34C2750.5,-202.32 2453.77,-189.66 2204,-165 2188.04,-163.42 2170.76,-161.22 2154.95,-159"/>
<polygon fill="midnightblue" stroke="midnightblue" points="2892.18,-210.85 2902.3,-207.7 2892.43,-203.85 2892.18,-210.85"/>
</g>
<!-- Node3 -->
<g id="node3" class="node">
<title>Node3</title>
<g id="a_node3"><a xlink:href="ConsoleAppender_8cpp.html" target="_top" xlink:title="Implémentation de la classe ConsoleAppender.">
<polygon fill="white" stroke="black" points="2213.5,-134.5 2213.5,-164.5 2356.5,-164.5 2356.5,-134.5 2213.5,-134.5"/>
<text text-anchor="start" x="2221.5" y="-152.5" font-family="Helvetica,sans-Serif" font-size="10.00">src/common/log/appender</text>
<text text-anchor="middle" x="2285" y="-141.5" font-family="Helvetica,sans-Serif" font-size="10.00">/ConsoleAppender.cpp</text>
</a>
</g>
</g>
<!-- Node1&#45;&gt;Node3 -->
<g id="edge2" class="edge">
<title>Node1&#45;&gt;Node3</title>
<path fill="none" stroke="midnightblue" d="M2892.11,-206.59C2774.67,-201.15 2553.29,-188.62 2366,-165 2363.02,-164.62 2359.99,-164.21 2356.93,-163.77"/>
<polygon fill="midnightblue" stroke="midnightblue" points="2891.96,-210.09 2902.11,-207.05 2892.28,-203.1 2891.96,-210.09"/>
</g>
<!-- Node4 -->
<g id="node4" class="node">
<title>Node4</title>
<g id="a_node4"><a xlink:href="Level_8cpp.html" target="_top" xlink:title="Implémentation de la classe Level.">
<polygon fill="white" stroke="black" points="2375,-140 2375,-159 2519,-159 2519,-140 2375,-140"/>
<text text-anchor="middle" x="2447" y="-147" font-family="Helvetica,sans-Serif" font-size="10.00">src/common/log/Level.cpp</text>
</a>
</g>
</g>
<!-- Node1&#45;&gt;Node4 -->
<g id="edge3" class="edge">
<title>Node1&#45;&gt;Node4</title>
<path fill="none" stroke="midnightblue" d="M2892.28,-203.59C2802.38,-196.17 2654.63,-182.68 2528,-165 2515.97,-163.32 2503,-161.16 2491.04,-159.02"/>
<polygon fill="midnightblue" stroke="midnightblue" points="2892.15,-207.09 2902.41,-204.42 2892.73,-200.11 2892.15,-207.09"/>
</g>
<!-- Node5 -->
<g id="node5" class="node">
<title>Node5</title>
<g id="a_node5"><a xlink:href="Logger_8hpp.html" target="_top" xlink:title="Définition de la classe Logger.">
<polygon fill="white" stroke="red" points="2537.5,-140 2537.5,-159 2688.5,-159 2688.5,-140 2537.5,-140"/>
<text text-anchor="middle" x="2613" y="-147" font-family="Helvetica,sans-Serif" font-size="10.00">src/common/log/Logger.hpp</text>
</a>
</g>
</g>
<!-- Node1&#45;&gt;Node5 -->
<g id="edge4" class="edge">
<title>Node1&#45;&gt;Node5</title>
<path fill="none" stroke="midnightblue" d="M2913.13,-199.83C2843.11,-188.32 2730.31,-169.78 2664.77,-159.01"/>
<polygon fill="midnightblue" stroke="midnightblue" points="2912.7,-203.31 2923.13,-201.48 2913.83,-196.4 2912.7,-203.31"/>
</g>
<!-- Node123 -->
<g id="node41" class="node">
<title>Node123</title>
<g id="a_node41"><a xlink:href="SvgWriter_8cpp.html" target="_top" xlink:title="Implémentation de la classe SvgWriter.">
<polygon fill="white" stroke="black" points="4888.5,-73 4888.5,-92 5053.5,-92 5053.5,-73 4888.5,-73"/>
<text text-anchor="middle" x="4971" y="-80" font-family="Helvetica,sans-Serif" font-size="10.00">src/common/log/SvgWriter.cpp</text>
</a>
</g>
</g>
<!-- Node1&#45;&gt;Node123 -->
<g id="edge50" class="edge">
<title>Node1&#45;&gt;Node123</title>
<path fill="none" stroke="midnightblue" d="M2892.26,-207.31C2806.32,-201.78 2690.88,-184.98 2741,-134 2782.65,-91.65 4819.83,-103.14 4879,-98 4893.98,-96.7 4910.22,-94.43 4924.82,-92.07"/>
<polygon fill="midnightblue" stroke="midnightblue" points="2892.12,-210.81 2902.32,-207.91 2892.54,-203.82 2892.12,-210.81"/>
</g>
<!-- Node64 -->
<g id="node42" class="node">
<title>Node64</title>
<g id="a_node42"><a xlink:href="LoggerTest_8cpp.html" target="_top" xlink:title="Implémentation des tests de la classe logs::Logger.">
<polygon fill="white" stroke="black" points="5071.5,-73 5071.5,-92 5228.5,-92 5228.5,-73 5071.5,-73"/>
<text text-anchor="middle" x="5150" y="-80" font-family="Helvetica,sans-Serif" font-size="10.00">test/common/LoggerTest.cpp</text>
</a>
</g>
</g>
<!-- Node1&#45;&gt;Node64 -->
<g id="edge55" class="edge">
<title>Node1&#45;&gt;Node64</title>
<path fill="none" stroke="midnightblue" d="M2892.4,-203.75C2820.02,-195.36 2732.38,-176.28 2774,-134 2818.61,-88.68 4999.67,-103.74 5063,-98 5077.33,-96.7 5092.87,-94.4 5106.8,-92.01"/>
<polygon fill="midnightblue" stroke="midnightblue" points="2892.17,-207.24 2902.5,-204.86 2892.94,-200.28 2892.17,-207.24"/>
</g>
<!-- Node122 -->
<g id="node43" class="node">
<title>Node122</title>
<g id="a_node43"><a xlink:href="LoggerFactory_8cpp.html" target="_top" xlink:title="Implémentation de la classe LoggerFactory.">
<polygon fill="white" stroke="black" points="2782.5,-140 2782.5,-159 2967.5,-159 2967.5,-140 2782.5,-140"/>
<text text-anchor="middle" x="2875" y="-147" font-family="Helvetica,sans-Serif" font-size="10.00">src/common/log/LoggerFactory.cpp</text>
</a>
</g>
</g>
<!-- Node1&#45;&gt;Node122 -->
<g id="edge49" class="edge">
<title>Node1&#45;&gt;Node122</title>
<path fill="none" stroke="midnightblue" d="M2951.88,-196.24C2932.56,-184.75 2905.63,-168.72 2889.3,-159.01"/>
<polygon fill="midnightblue" stroke="midnightblue" points="2950.29,-199.37 2960.67,-201.48 2953.87,-193.35 2950.29,-199.37"/>
</g>
<!-- Node186 -->
<g id="node44" class="node">
<title>Node186</title>
<g id="a_node44"><a xlink:href="driver-simu_2SensorsDriver_8cpp.html" target="_top" xlink:title=" ">
<polygon fill="white" stroke="black" points="2985.5,-140 2985.5,-159 3166.5,-159 3166.5,-140 2985.5,-140"/>
<text text-anchor="middle" x="3076" y="-147" font-family="Helvetica,sans-Serif" font-size="10.00">src/driver&#45;simu/SensorsDriver.cpp</text>
</a>
</g>
</g>
<!-- Node1&#45;&gt;Node186 -->
<g id="edge51" class="edge">
<title>Node1&#45;&gt;Node186</title>
<path fill="none" stroke="midnightblue" d="M2998.35,-196.24C3017.86,-184.75 3045.07,-168.72 3061.56,-159.01"/>
<polygon fill="midnightblue" stroke="midnightblue" points="2996.31,-193.38 2989.47,-201.48 2999.86,-199.41 2996.31,-193.38"/>
</g>
<!-- Node62 -->
<g id="node45" class="node">
<title>Node62</title>
<g id="a_node45"><a xlink:href="test_2bench_2LoggerInitialize_8cpp.html" target="_top" xlink:title="Initialisation du systeme de Log pour les benchmarks.">
<polygon fill="white" stroke="black" points="3185,-140 3185,-159 3351,-159 3351,-140 3185,-140"/>
<text text-anchor="middle" x="3268" y="-147" font-family="Helvetica,sans-Serif" font-size="10.00">test/bench/LoggerInitialize.cpp</text>
</a>
</g>
</g>
<!-- Node1&#45;&gt;Node62 -->
<g id="edge52" class="edge">
<title>Node1&#45;&gt;Node62</title>
<path fill="none" stroke="midnightblue" d="M3026.83,-199.47C3083.62,-187.94 3173.59,-169.67 3226.1,-159.01"/>
<polygon fill="midnightblue" stroke="midnightblue" points="3026.08,-196.05 3016.98,-201.48 3027.48,-202.91 3026.08,-196.05"/>
</g>
<!-- Node228 -->
<g id="node46" class="node">
<title>Node228</title>
<g id="a_node46"><a xlink:href="LevelTest_8cpp.html" target="_top" xlink:title="Implémentation des tests de la classe logs::Level.">
<polygon fill="white" stroke="black" points="3369,-140 3369,-159 3519,-159 3519,-140 3369,-140"/>
<text text-anchor="middle" x="3444" y="-147" font-family="Helvetica,sans-Serif" font-size="10.00">test/common/LevelTest.cpp</text>
</a>
</g>
</g>
<!-- Node1&#45;&gt;Node228 -->
<g id="edge53" class="edge">
<title>Node1&#45;&gt;Node228</title>
<path fill="none" stroke="midnightblue" d="M3057.79,-201.64C3135.87,-193.45 3256.1,-180.03 3360,-165 3372.16,-163.24 3385.26,-161.1 3397.42,-159.01"/>
<polygon fill="midnightblue" stroke="midnightblue" points="3057.11,-198.2 3047.53,-202.72 3057.84,-205.16 3057.11,-198.2"/>
</g>
<!-- Node63 -->
<g id="node47" class="node">
<title>Node63</title>
<g id="a_node47"><a xlink:href="test_2common_2LoggerInitialize_8cpp.html" target="_top" xlink:title="Initialisation du système de Log pour les tests unitaires.">
<polygon fill="white" stroke="black" points="3537.5,-140 3537.5,-159 3716.5,-159 3716.5,-140 3537.5,-140"/>
<text text-anchor="middle" x="3627" y="-147" font-family="Helvetica,sans-Serif" font-size="10.00">test/common/LoggerInitialize.cpp</text>
</a>
</g>
</g>
<!-- Node1&#45;&gt;Node63 -->
<g id="edge54" class="edge">
<title>Node1&#45;&gt;Node63</title>
<path fill="none" stroke="midnightblue" d="M3057.81,-204.93C3166.09,-197.91 3361.58,-183.94 3528,-165 3542.67,-163.33 3558.51,-161.17 3573.13,-159.03"/>
<polygon fill="midnightblue" stroke="midnightblue" points="3057.36,-201.45 3047.61,-205.58 3057.81,-208.43 3057.36,-201.45"/>
</g>
<!-- Node65 -->
<g id="node48" class="node">
<title>Node65</title>
<g id="a_node48"><a xlink:href="test_2driver_2LoggerInitialize_8cpp.html" target="_top" xlink:title="Initialisation du systeme de Log pour les tests driver.">
<polygon fill="white" stroke="black" points="3734.5,-140 3734.5,-159 3899.5,-159 3899.5,-140 3734.5,-140"/>
<text text-anchor="middle" x="3817" y="-147" font-family="Helvetica,sans-Serif" font-size="10.00">test/driver/LoggerInitialize.cpp</text>
</a>
</g>
</g>
<!-- Node1&#45;&gt;Node65 -->
<g id="edge56" class="edge">
<title>Node1&#45;&gt;Node65</title>
<path fill="none" stroke="midnightblue" d="M3057.82,-207.69C3196.44,-203.24 3484.06,-191.46 3726,-165 3739.99,-163.47 3755.12,-161.28 3768.95,-159.06"/>
<polygon fill="midnightblue" stroke="midnightblue" points="3057.58,-204.2 3047.7,-208.02 3057.8,-211.2 3057.58,-204.2"/>
</g>
<!-- Node66 -->
<g id="node49" class="node">
<title>Node66</title>
<g id="a_node49"><a xlink:href="test_2manual_2LoggerInitialize_8cpp.html" target="_top" xlink:title="Initialisation du systeme de Log pour les tests manuels.">
<polygon fill="white" stroke="black" points="3917.5,-140 3917.5,-159 4090.5,-159 4090.5,-140 3917.5,-140"/>
<text text-anchor="middle" x="4004" y="-147" font-family="Helvetica,sans-Serif" font-size="10.00">test/manual/LoggerInitialize.cpp</text>
</a>
</g>
</g>
<!-- Node1&#45;&gt;Node66 -->
<g id="edge57" class="edge">
<title>Node1&#45;&gt;Node66</title>
<path fill="none" stroke="midnightblue" d="M3058,-208.88C3221.34,-206.03 3595.84,-196.36 3909,-165 3923.77,-163.52 3939.76,-161.32 3954.33,-159.07"/>
<polygon fill="midnightblue" stroke="midnightblue" points="3057.49,-205.38 3047.55,-209.05 3057.61,-212.38 3057.49,-205.38"/>
</g>
<!-- Node68 -->
<g id="node50" class="node">
<title>Node68</title>
<g id="a_node50"><a xlink:href="UnitTestAppender_8cpp.html" target="_top" xlink:title="Implémentation de la classe UnitTestAppender.">
<polygon fill="white" stroke="black" points="4108.5,-140 4108.5,-159 4279.5,-159 4279.5,-140 4108.5,-140"/>
<text text-anchor="middle" x="4194" y="-147" font-family="Helvetica,sans-Serif" font-size="10.00">test/suite/UnitTestAppender.cpp</text>
</a>
</g>
</g>
<!-- Node1&#45;&gt;Node68 -->
<g id="edge58" class="edge">
<title>Node1&#45;&gt;Node68</title>
<path fill="none" stroke="midnightblue" d="M3057.86,-209.89C3244.41,-208.93 3711.42,-202.62 4100,-165 4114.96,-163.55 4131.16,-161.3 4145.83,-159"/>
<polygon fill="midnightblue" stroke="midnightblue" points="3057.56,-206.39 3047.58,-209.93 3057.6,-213.39 3057.56,-206.39"/>
</g>
<!-- Node6 -->
<g id="node6" class="node">
<title>Node6</title>
<g id="a_node6"><a xlink:href="O__ActionManagerTimerTest_8hpp.html" target="_top" xlink:title="Définition de la classe O_ActionManagerTimerTest.">
<polygon fill="white" stroke="red" points="3942,-67.5 3942,-97.5 4080,-97.5 4080,-67.5 3942,-67.5"/>
<text text-anchor="start" x="3950" y="-85.5" font-family="Helvetica,sans-Serif" font-size="10.00">src/bot&#45;opos6ul/O_Action</text>
<text text-anchor="middle" x="4011" y="-74.5" font-family="Helvetica,sans-Serif" font-size="10.00">ManagerTimerTest.hpp</text>
</a>
</g>
</g>
<!-- Node5&#45;&gt;Node6 -->
<g id="edge5" class="edge">
<title>Node5&#45;&gt;Node6</title>
<path fill="none" stroke="midnightblue" d="M2668.82,-138.35C2680.1,-136.62 2691.9,-135.05 2703,-134 3247.46,-82.4 3389.2,-156.15 3933,-98 3935.88,-97.69 3938.81,-97.34 3941.76,-96.95"/>
<polygon fill="midnightblue" stroke="midnightblue" points="2667.96,-134.94 2658.64,-139.96 2669.06,-141.85 2667.96,-134.94"/>
</g>
<!-- Node9 -->
<g id="node7" class="node">
<title>Node9</title>
<g id="a_node7"><a xlink:href="O__Asserv__CalageTest_8cpp.html" target="_top" xlink:title="Implémentation de la classe O_Asserv_CalageTest.">
<polygon fill="white" stroke="black" points="4098,-67.5 4098,-97.5 4238,-97.5 4238,-67.5 4098,-67.5"/>
<text text-anchor="start" x="4106" y="-85.5" font-family="Helvetica,sans-Serif" font-size="10.00">src/bot&#45;opos6ul/O_Asserv</text>
<text text-anchor="middle" x="4168" y="-74.5" font-family="Helvetica,sans-Serif" font-size="10.00">_CalageTest.cpp</text>
</a>
</g>
</g>
<!-- Node5&#45;&gt;Node9 -->
<g id="edge6" class="edge">
<title>Node5&#45;&gt;Node9</title>
<path fill="none" stroke="midnightblue" d="M2668.81,-138.32C2680.1,-136.6 2691.9,-135.03 2703,-134 3316.55,-76.87 3476.11,-161.81 4089,-98 4091.91,-97.7 4094.88,-97.35 4097.87,-96.96"/>
<polygon fill="midnightblue" stroke="midnightblue" points="2667.96,-134.91 2658.63,-139.93 2669.06,-141.82 2667.96,-134.91"/>
</g>
<!-- Node10 -->
<g id="node8" class="node">
<title>Node10</title>
<g id="a_node8"><a xlink:href="O__Asserv__SquareTest_8cpp.html" target="_top" xlink:title="Implémentation de la classe O_Asserv_SquareTest.">
<polygon fill="white" stroke="black" points="4256,-67.5 4256,-97.5 4396,-97.5 4396,-67.5 4256,-67.5"/>
<text text-anchor="start" x="4264" y="-85.5" font-family="Helvetica,sans-Serif" font-size="10.00">src/bot&#45;opos6ul/O_Asserv</text>
<text text-anchor="middle" x="4326" y="-74.5" font-family="Helvetica,sans-Serif" font-size="10.00">_SquareTest.cpp</text>
</a>
</g>
</g>
<!-- Node5&#45;&gt;Node10 -->
<g id="edge7" class="edge">
<title>Node5&#45;&gt;Node10</title>
<path fill="none" stroke="midnightblue" d="M2668.09,-138.4C2679.59,-136.64 2691.66,-135.04 2703,-134 3386.54,-71.26 3564.19,-168.18 4247,-98 4249.91,-97.7 4252.88,-97.35 4255.87,-96.97"/>
<polygon fill="midnightblue" stroke="midnightblue" points="2667.5,-134.96 2658.17,-139.99 2668.6,-141.87 2667.5,-134.96"/>
</g>
<!-- Node11 -->
<g id="node9" class="node">
<title>Node11</title>
<g id="a_node9"><a xlink:href="O__AsservCalibrationTest_8cpp.html" target="_top" xlink:title="Implémentation de la classe O_AsservCalibrationTest.">
<polygon fill="white" stroke="black" points="4414,-67.5 4414,-97.5 4554,-97.5 4554,-67.5 4414,-67.5"/>
<text text-anchor="start" x="4422" y="-85.5" font-family="Helvetica,sans-Serif" font-size="10.00">src/bot&#45;opos6ul/O_Asserv</text>
<text text-anchor="middle" x="4484" y="-74.5" font-family="Helvetica,sans-Serif" font-size="10.00">CalibrationTest.cpp</text>
</a>
</g>
</g>
<!-- Node5&#45;&gt;Node11 -->
<g id="edge8" class="edge">
<title>Node5&#45;&gt;Node11</title>
<path fill="none" stroke="midnightblue" d="M2668.09,-138.39C2679.59,-136.62 2691.66,-135.03 2703,-134 3456.52,-65.66 3652.27,-174.54 4405,-98 4407.91,-97.7 4410.88,-97.36 4413.87,-96.97"/>
<polygon fill="midnightblue" stroke="midnightblue" points="2667.49,-134.94 2658.17,-139.97 2668.6,-141.85 2667.49,-134.94"/>
</g>
<!-- Node12 -->
<g id="node10" class="node">
<title>Node12</title>
<g id="a_node10"><a xlink:href="O__AsservLineRotateTest_8cpp.html" target="_top" xlink:title="Implémentation de la classe O_AsservLineRotateTest.">
<polygon fill="white" stroke="black" points="4572,-67.5 4572,-97.5 4712,-97.5 4712,-67.5 4572,-67.5"/>
<text text-anchor="start" x="4580" y="-85.5" font-family="Helvetica,sans-Serif" font-size="10.00">src/bot&#45;opos6ul/O_Asserv</text>
<text text-anchor="middle" x="4642" y="-74.5" font-family="Helvetica,sans-Serif" font-size="10.00">LineRotateTest.cpp</text>
</a>
</g>
</g>
<!-- Node5&#45;&gt;Node12 -->
<g id="edge9" class="edge">
<title>Node5&#45;&gt;Node12</title>
<path fill="none" stroke="midnightblue" d="M2668.09,-138.37C2679.59,-136.61 2691.66,-135.02 2703,-134 3526.51,-60.06 3740.35,-180.9 4563,-98 4565.91,-97.71 4568.88,-97.36 4571.87,-96.98"/>
<polygon fill="midnightblue" stroke="midnightblue" points="2667.49,-134.92 2658.17,-139.95 2668.59,-141.83 2667.49,-134.92"/>
</g>
<!-- Node13 -->
<g id="node11" class="node">
<title>Node13</title>
<g id="a_node11"><a xlink:href="O__AsservTest_8cpp.html" target="_top" xlink:title="Implémentation de la classe O_AsservTest.">
<polygon fill="white" stroke="black" points="4730,-67.5 4730,-97.5 4870,-97.5 4870,-67.5 4730,-67.5"/>
<text text-anchor="start" x="4738" y="-85.5" font-family="Helvetica,sans-Serif" font-size="10.00">src/bot&#45;opos6ul/O_Asserv</text>
<text text-anchor="middle" x="4800" y="-74.5" font-family="Helvetica,sans-Serif" font-size="10.00">Test.cpp</text>
</a>
</g>
</g>
<!-- Node5&#45;&gt;Node13 -->
<g id="edge10" class="edge">
<title>Node5&#45;&gt;Node13</title>
<path fill="none" stroke="midnightblue" d="M2668.09,-138.36C2679.59,-136.6 2691.66,-135.01 2703,-134 3596.5,-54.46 3828.42,-187.27 4721,-98 4723.91,-97.71 4726.88,-97.37 4729.87,-96.99"/>
<polygon fill="midnightblue" stroke="midnightblue" points="2667.49,-134.91 2658.17,-139.94 2668.59,-141.82 2667.49,-134.91"/>
</g>
<!-- Node14 -->
<g id="node12" class="node">
<title>Node14</title>
<g id="a_node12"><a xlink:href="O__AsservXYRotateTest_8cpp.html" target="_top" xlink:title="Implémentation de la classe O_AsservXYRotateTest.">
<polygon fill="white" stroke="black" points="0,-67.5 0,-97.5 140,-97.5 140,-67.5 0,-67.5"/>
<text text-anchor="start" x="8" y="-85.5" font-family="Helvetica,sans-Serif" font-size="10.00">src/bot&#45;opos6ul/O_Asserv</text>
<text text-anchor="middle" x="70" y="-74.5" font-family="Helvetica,sans-Serif" font-size="10.00">XYRotateTest.cpp</text>
</a>
</g>
</g>
<!-- Node5&#45;&gt;Node14 -->
<g id="edge11" class="edge">
<title>Node5&#45;&gt;Node14</title>
<path fill="none" stroke="midnightblue" d="M2560.68,-138.28C2549.91,-136.54 2538.62,-134.98 2528,-134 1475.02,-36.8 1201.35,-201.81 149,-98 146.09,-97.71 143.12,-97.37 140.13,-97"/>
<polygon fill="midnightblue" stroke="midnightblue" points="2560.36,-141.77 2570.8,-139.98 2561.52,-134.87 2560.36,-141.77"/>
</g>
<!-- Node15 -->
<g id="node13" class="node">
<title>Node15</title>
<g id="a_node13"><a xlink:href="O__ButtonBarTest_8cpp.html" target="_top" xlink:title="Implémentation de la classe O_ButtonBarTest.">
<polygon fill="white" stroke="black" points="158,-67.5 158,-97.5 298,-97.5 298,-67.5 158,-67.5"/>
<text text-anchor="start" x="166" y="-85.5" font-family="Helvetica,sans-Serif" font-size="10.00">src/bot&#45;opos6ul/O_Button</text>
<text text-anchor="middle" x="228" y="-74.5" font-family="Helvetica,sans-Serif" font-size="10.00">BarTest.cpp</text>
</a>
</g>
</g>
<!-- Node5&#45;&gt;Node15 -->
<g id="edge12" class="edge">
<title>Node5&#45;&gt;Node15</title>
<path fill="none" stroke="midnightblue" d="M2560.67,-138.28C2549.91,-136.55 2538.62,-134.99 2528,-134 1544.99,-42.73 1289.42,-195.45 307,-98 304.09,-97.71 301.12,-97.37 298.13,-96.99"/>
<polygon fill="midnightblue" stroke="midnightblue" points="2560.35,-141.78 2570.8,-139.99 2561.52,-134.88 2560.35,-141.78"/>
</g>
<!-- Node16 -->
<g id="node14" class="node">
<title>Node16</title>
<g id="a_node14"><a xlink:href="O__GroveColorTest_8cpp.html" target="_top" xlink:title="Implémentation de la classe O_GroveColorTest.">
<polygon fill="white" stroke="black" points="316,-67.5 316,-97.5 478,-97.5 478,-67.5 316,-67.5"/>
<text text-anchor="start" x="324" y="-85.5" font-family="Helvetica,sans-Serif" font-size="10.00">src/bot&#45;opos6ul/O_GroveColor</text>
<text text-anchor="middle" x="397" y="-74.5" font-family="Helvetica,sans-Serif" font-size="10.00">Test.cpp</text>
</a>
</g>
</g>
<!-- Node5&#45;&gt;Node16 -->
<g id="edge13" class="edge">
<title>Node5&#45;&gt;Node16</title>
<path fill="none" stroke="midnightblue" d="M2560.33,-138.24C2549.67,-136.52 2538.5,-134.98 2528,-134 1624.69,-49.48 1390.69,-178.36 487,-98 484.16,-97.75 481.28,-97.46 478.37,-97.14"/>
<polygon fill="midnightblue" stroke="midnightblue" points="2559.92,-141.72 2570.36,-139.93 2561.08,-134.82 2559.92,-141.72"/>
</g>
<!-- Node17 -->
<g id="node15" class="node">
<title>Node17</title>
<g id="a_node15"><a xlink:href="O__IAbyPathTest_8cpp.html" target="_top" xlink:title="Implementation de la classe O_IAByPathTest.">
<polygon fill="white" stroke="black" points="496,-67.5 496,-97.5 646,-97.5 646,-67.5 496,-67.5"/>
<text text-anchor="start" x="504" y="-85.5" font-family="Helvetica,sans-Serif" font-size="10.00">src/bot&#45;opos6ul/O_IAbyPath</text>
<text text-anchor="middle" x="571" y="-74.5" font-family="Helvetica,sans-Serif" font-size="10.00">Test.cpp</text>
</a>
</g>
</g>
<!-- Node5&#45;&gt;Node17 -->
<g id="edge14" class="edge">
<title>Node5&#45;&gt;Node17</title>
<path fill="none" stroke="midnightblue" d="M2560.33,-138.25C2549.67,-136.54 2538.5,-134.99 2528,-134 1699.08,-55.78 1483.84,-177.04 655,-98 652.05,-97.72 649.05,-97.39 646.03,-97.03"/>
<polygon fill="midnightblue" stroke="midnightblue" points="2559.92,-141.73 2570.36,-139.94 2561.08,-134.83 2559.92,-141.73"/>
</g>
<!-- Node18 -->
<g id="node16" class="node">
<title>Node18</title>
<g id="a_node16"><a xlink:href="O__LcdBoardTest_8cpp.html" target="_top" xlink:title="Implémentation de la classe O_LcdBoardTest.">
<polygon fill="white" stroke="black" points="664,-67.5 664,-97.5 816,-97.5 816,-67.5 664,-67.5"/>
<text text-anchor="start" x="672" y="-85.5" font-family="Helvetica,sans-Serif" font-size="10.00">src/bot&#45;opos6ul/O_LcdBoard</text>
<text text-anchor="middle" x="740" y="-74.5" font-family="Helvetica,sans-Serif" font-size="10.00">Test.cpp</text>
</a>
</g>
</g>
<!-- Node5&#45;&gt;Node18 -->
<g id="edge15" class="edge">
<title>Node5&#45;&gt;Node18</title>
<path fill="none" stroke="midnightblue" d="M2560.33,-138.27C2549.66,-136.55 2538.5,-135 2528,-134 1774.36,-62.15 1578.64,-169.85 825,-98 822.17,-97.73 819.29,-97.42 816.38,-97.08"/>
<polygon fill="midnightblue" stroke="midnightblue" points="2559.92,-141.75 2570.36,-139.96 2561.08,-134.85 2559.92,-141.75"/>
</g>
<!-- Node19 -->
<g id="node17" class="node">
<title>Node19</title>
<g id="a_node17"><a xlink:href="O__LedBarTest_8cpp.html" target="_top" xlink:title="Implementation de la classe O_LedBarTest.">
<polygon fill="white" stroke="black" points="834.5,-67.5 834.5,-97.5 975.5,-97.5 975.5,-67.5 834.5,-67.5"/>
<text text-anchor="start" x="842.5" y="-85.5" font-family="Helvetica,sans-Serif" font-size="10.00">src/bot&#45;opos6ul/O_LedBar</text>
<text text-anchor="middle" x="905" y="-74.5" font-family="Helvetica,sans-Serif" font-size="10.00">Test.cpp</text>
</a>
</g>
</g>
<!-- Node5&#45;&gt;Node19 -->
<g id="edge16" class="edge">
<title>Node5&#45;&gt;Node19</title>
<path fill="none" stroke="midnightblue" d="M2560.33,-138.29C2549.66,-136.57 2538.5,-135.01 2528,-134 1845.2,-68.15 1667.45,-167.38 985,-98 981.91,-97.69 978.76,-97.32 975.59,-96.91"/>
<polygon fill="midnightblue" stroke="midnightblue" points="2559.92,-141.77 2570.36,-139.98 2561.08,-134.86 2559.92,-141.77"/>
</g>
<!-- Node20 -->
<g id="node18" class="node">
<title>Node20</title>
<g id="a_node18"><a xlink:href="O__SensorsTest_8cpp.html" target="_top" xlink:title="Implémentation de la classe O_SensorsTest.">
<polygon fill="white" stroke="black" points="994,-67.5 994,-97.5 1140,-97.5 1140,-67.5 994,-67.5"/>
<text text-anchor="start" x="1002" y="-85.5" font-family="Helvetica,sans-Serif" font-size="10.00">src/bot&#45;opos6ul/O_Sensors</text>
<text text-anchor="middle" x="1067" y="-74.5" font-family="Helvetica,sans-Serif" font-size="10.00">Test.cpp</text>
</a>
</g>
</g>
<!-- Node5&#45;&gt;Node20 -->
<g id="edge17" class="edge">
<title>Node5&#45;&gt;Node20</title>
<path fill="none" stroke="midnightblue" d="M2560.32,-138.31C2549.66,-136.59 2538.5,-135.03 2528,-134 1917.82,-74.3 1759,-159.55 1149,-98 1146.12,-97.71 1143.2,-97.38 1140.24,-97.01"/>
<polygon fill="midnightblue" stroke="midnightblue" points="2559.91,-141.79 2570.35,-140 2561.07,-134.89 2559.91,-141.79"/>
</g>
<!-- Node21 -->
<g id="node19" class="node">
<title>Node21</title>
<g id="a_node19"><a xlink:href="O__ServoObjectsTest_8cpp.html" target="_top" xlink:title="Implémentation de la classe O_ServoObjectsTest.">
<polygon fill="white" stroke="black" points="1158,-67.5 1158,-97.5 1330,-97.5 1330,-67.5 1158,-67.5"/>
<text text-anchor="start" x="1166" y="-85.5" font-family="Helvetica,sans-Serif" font-size="10.00">src/bot&#45;opos6ul/O_ServoObjects</text>
<text text-anchor="middle" x="1244" y="-74.5" font-family="Helvetica,sans-Serif" font-size="10.00">Test.cpp</text>
</a>
</g>
</g>
<!-- Node5&#45;&gt;Node21 -->
<g id="edge18" class="edge">
<title>Node5&#45;&gt;Node21</title>
<path fill="none" stroke="midnightblue" d="M2559.98,-138.29C2549.42,-136.59 2538.39,-135.04 2528,-134 2001.93,-81.42 1865.51,-145.97 1339,-98 1336.09,-97.74 1333.14,-97.44 1330.16,-97.12"/>
<polygon fill="midnightblue" stroke="midnightblue" points="2559.47,-141.75 2569.92,-139.96 2560.63,-134.85 2559.47,-141.75"/>
</g>
<!-- Node22 -->
<g id="node20" class="node">
<title>Node22</title>
<g id="a_node20"><a xlink:href="O__ServoStepTest_8cpp.html" target="_top" xlink:title="Implémentation de la classe O_ServoStepTest.">
<polygon fill="white" stroke="black" points="1348.5,-67.5 1348.5,-97.5 1505.5,-97.5 1505.5,-67.5 1348.5,-67.5"/>
<text text-anchor="start" x="1356.5" y="-85.5" font-family="Helvetica,sans-Serif" font-size="10.00">src/bot&#45;opos6ul/O_ServoStep</text>
<text text-anchor="middle" x="1427" y="-74.5" font-family="Helvetica,sans-Serif" font-size="10.00">Test.cpp</text>
</a>
</g>
</g>
<!-- Node5&#45;&gt;Node22 -->
<g id="edge19" class="edge">
<title>Node5&#45;&gt;Node22</title>
<path fill="none" stroke="midnightblue" d="M2559.3,-138.22C2548.95,-136.56 2538.16,-135.04 2528,-134 2079.4,-87.98 1962.68,-143.16 1514,-98 1511.26,-97.72 1508.47,-97.42 1505.66,-97.08"/>
<polygon fill="midnightblue" stroke="midnightblue" points="2559.03,-141.73 2569.47,-139.93 2560.19,-134.82 2559.03,-141.73"/>
</g>
<!-- Node23 -->
<g id="node21" class="node">
<title>Node23</title>
<g id="a_node21"><a xlink:href="O__State__DecisionMakerIA_8cpp.html" target="_top" xlink:title="Implémentation de la classe O_State_DecisionMakerIA.">
<polygon fill="white" stroke="black" points="1523.5,-67.5 1523.5,-97.5 1656.5,-97.5 1656.5,-67.5 1523.5,-67.5"/>
<text text-anchor="start" x="1531.5" y="-85.5" font-family="Helvetica,sans-Serif" font-size="10.00">src/bot&#45;opos6ul/O_State</text>
<text text-anchor="middle" x="1590" y="-74.5" font-family="Helvetica,sans-Serif" font-size="10.00">_DecisionMakerIA.cpp</text>
</a>
</g>
</g>
<!-- Node5&#45;&gt;Node23 -->
<g id="edge20" class="edge">
<title>Node5&#45;&gt;Node23</title>
<path fill="none" stroke="midnightblue" d="M2559.3,-138.28C2548.94,-136.61 2538.16,-135.07 2528,-134 2146.24,-93.64 2046.29,-142.56 1665,-98 1662.23,-97.68 1659.42,-97.31 1656.58,-96.91"/>
<polygon fill="midnightblue" stroke="midnightblue" points="2559.03,-141.78 2569.47,-139.98 2560.18,-134.88 2559.03,-141.78"/>
</g>
<!-- Node24 -->
<g id="node22" class="node">
<title>Node24</title>
<g id="a_node22"><a xlink:href="O__State__Init_8cpp.html" target="_top" xlink:title="Implémentation de la classe O_State_Init.">
<polygon fill="white" stroke="black" points="1674.5,-67.5 1674.5,-97.5 1807.5,-97.5 1807.5,-67.5 1674.5,-67.5"/>
<text text-anchor="start" x="1682.5" y="-85.5" font-family="Helvetica,sans-Serif" font-size="10.00">src/bot&#45;opos6ul/O_State</text>
<text text-anchor="middle" x="1741" y="-74.5" font-family="Helvetica,sans-Serif" font-size="10.00">_Init.cpp</text>
</a>
</g>
</g>
<!-- Node5&#45;&gt;Node24 -->
<g id="edge21" class="edge">
<title>Node5&#45;&gt;Node24</title>
<path fill="none" stroke="midnightblue" d="M2558.95,-138.29C2548.7,-136.64 2538.04,-135.11 2528,-134 2213.06,-99.3 2130.54,-136.17 1816,-98 1813.24,-97.66 1810.42,-97.29 1807.58,-96.88"/>
<polygon fill="midnightblue" stroke="midnightblue" points="2558.58,-141.78 2569.02,-139.98 2559.74,-134.88 2558.58,-141.78"/>
</g>
<!-- Node25 -->
<g id="node23" class="node">
<title>Node25</title>
<g id="a_node23"><a xlink:href="O__State__WaitEndOfMatch_8cpp.html" target="_top" xlink:title="Implémentation de la classe O_State_WaitEndOfMatch.">
<polygon fill="white" stroke="black" points="1825.5,-67.5 1825.5,-97.5 1958.5,-97.5 1958.5,-67.5 1825.5,-67.5"/>
<text text-anchor="start" x="1833.5" y="-85.5" font-family="Helvetica,sans-Serif" font-size="10.00">src/bot&#45;opos6ul/O_State</text>
<text text-anchor="middle" x="1892" y="-74.5" font-family="Helvetica,sans-Serif" font-size="10.00">_WaitEndOfMatch.cpp</text>
</a>
</g>
</g>
<!-- Node5&#45;&gt;Node25 -->
<g id="edge22" class="edge">
<title>Node5&#45;&gt;Node25</title>
<path fill="none" stroke="midnightblue" d="M2558.25,-138.29C2548.22,-136.67 2537.81,-135.15 2528,-134 2280.29,-104.99 2215.41,-129.43 1968,-98 1964.94,-97.61 1961.81,-97.17 1958.65,-96.7"/>
<polygon fill="midnightblue" stroke="midnightblue" points="2557.69,-141.75 2568.13,-139.94 2558.84,-134.84 2557.69,-141.75"/>
</g>
<!-- Node26 -->
<g id="node24" class="node">
<title>Node26</title>
<g id="a_node24"><a xlink:href="O__TiretteTest_8cpp.html" target="_top" xlink:title="Implémentation de la classe O_TiretteTest.">
<polygon fill="white" stroke="black" points="1977,-67.5 1977,-97.5 2117,-97.5 2117,-67.5 1977,-67.5"/>
<text text-anchor="start" x="1985" y="-85.5" font-family="Helvetica,sans-Serif" font-size="10.00">src/bot&#45;opos6ul/O_Tirette</text>
<text text-anchor="middle" x="2047" y="-74.5" font-family="Helvetica,sans-Serif" font-size="10.00">Test.cpp</text>
</a>
</g>
</g>
<!-- Node5&#45;&gt;Node26 -->
<g id="edge23" class="edge">
<title>Node5&#45;&gt;Node26</title>
<path fill="none" stroke="midnightblue" d="M2556.9,-138.28C2547.28,-136.71 2537.37,-135.22 2528,-134 2350.11,-110.9 2303.74,-122.22 2126,-98 2123.1,-97.6 2120.14,-97.18 2117.16,-96.72"/>
<polygon fill="midnightblue" stroke="midnightblue" points="2556.34,-141.74 2566.78,-139.93 2557.49,-134.83 2556.34,-141.74"/>
</g>
<!-- Node27 -->
<g id="node25" class="node">
<title>Node27</title>
<g id="a_node25"><a xlink:href="OPOS6UL__AsservExtended_8cpp.html" target="_top" xlink:title="Implémentation de la classe OPOS6UL_AsservExtended.">
<polygon fill="white" stroke="black" points="2135,-67.5 2135,-97.5 2275,-97.5 2275,-67.5 2135,-67.5"/>
<text text-anchor="start" x="2143" y="-85.5" font-family="Helvetica,sans-Serif" font-size="10.00">src/bot&#45;opos6ul/OPOS6UL</text>
<text text-anchor="middle" x="2205" y="-74.5" font-family="Helvetica,sans-Serif" font-size="10.00">_AsservExtended.cpp</text>
</a>
</g>
</g>
<!-- Node5&#45;&gt;Node27 -->
<g id="edge24" class="edge">
<title>Node5&#45;&gt;Node27</title>
<path fill="none" stroke="midnightblue" d="M2553.94,-138.27C2545.24,-136.81 2536.39,-135.35 2528,-134 2421.94,-116.97 2395.04,-115.14 2289,-98 2284.47,-97.27 2279.81,-96.5 2275.11,-95.72"/>
<polygon fill="midnightblue" stroke="midnightblue" points="2553.59,-141.76 2564.03,-139.98 2554.76,-134.86 2553.59,-141.76"/>
</g>
<!-- Node28 -->
<g id="node26" class="node">
<title>Node28</title>
<g id="a_node26"><a xlink:href="OPOS6UL__RobotExtended_8cpp.html" target="_top" xlink:title="Implémentation de la classe OPOS6UL_RobotExtended.">
<polygon fill="white" stroke="black" points="2067,-0.5 2067,-30.5 2207,-30.5 2207,-0.5 2067,-0.5"/>
<text text-anchor="start" x="2075" y="-18.5" font-family="Helvetica,sans-Serif" font-size="10.00">src/bot&#45;opos6ul/OPOS6UL</text>
<text text-anchor="middle" x="2137" y="-7.5" font-family="Helvetica,sans-Serif" font-size="10.00">_RobotExtended.cpp</text>
</a>
</g>
</g>
<!-- Node5&#45;&gt;Node28 -->
<g id="edge25" class="edge">
<title>Node5&#45;&gt;Node28</title>
<path fill="none" stroke="midnightblue" d="M2553.24,-138.22C2468.46,-123.64 2323.32,-98.6 2322,-98 2302.17,-88.95 2303.05,-77.59 2284,-67 2255.47,-51.13 2221.06,-38.98 2192.72,-30.58"/>
<polygon fill="midnightblue" stroke="midnightblue" points="2552.81,-141.7 2563.26,-139.95 2554,-134.8 2552.81,-141.7"/>
</g>
<!-- Node29 -->
<g id="node27" class="node">
<title>Node29</title>
<g id="a_node27"><a xlink:href="OPOS6UL__SvgWriterExtended_8cpp.html" target="_top" xlink:title="Implémentation de la classe OPOS6UL_SvgWriterExtended.">
<polygon fill="white" stroke="black" points="2225,-0.5 2225,-30.5 2365,-30.5 2365,-0.5 2225,-0.5"/>
<text text-anchor="start" x="2233" y="-18.5" font-family="Helvetica,sans-Serif" font-size="10.00">src/bot&#45;opos6ul/OPOS6UL</text>
<text text-anchor="middle" x="2295" y="-7.5" font-family="Helvetica,sans-Serif" font-size="10.00">_SvgWriterExtended.cpp</text>
</a>
</g>
</g>
<!-- Node5&#45;&gt;Node29 -->
<g id="edge26" class="edge">
<title>Node5&#45;&gt;Node29</title>
<path fill="none" stroke="midnightblue" d="M2587.38,-134.83C2569.38,-125.02 2544.89,-111.24 2524,-98 2503.8,-85.19 2501.64,-77.19 2480,-67 2443.71,-49.91 2400.59,-37.72 2365.12,-29.6"/>
<polygon fill="midnightblue" stroke="midnightblue" points="2586.18,-138.16 2596.64,-139.84 2589.51,-132 2586.18,-138.16"/>
</g>
<!-- Node30 -->
<g id="node28" class="node">
<title>Node30</title>
<g id="a_node28"><a xlink:href="OPOS6UL__SvgWriterExtended_8hpp.html" target="_top" xlink:title="Extension de l&#39;écriture SVG pour la carte OPOS6UL.">
<polygon fill="white" stroke="black" points="2331,-67.5 2331,-97.5 2471,-97.5 2471,-67.5 2331,-67.5"/>
<text text-anchor="start" x="2339" y="-85.5" font-family="Helvetica,sans-Serif" font-size="10.00">src/bot&#45;opos6ul/OPOS6UL</text>
<text text-anchor="middle" x="2401" y="-74.5" font-family="Helvetica,sans-Serif" font-size="10.00">_SvgWriterExtended.hpp</text>
</a>
</g>
</g>
<!-- Node5&#45;&gt;Node30 -->
<g id="edge27" class="edge">
<title>Node5&#45;&gt;Node30</title>
<path fill="none" stroke="midnightblue" d="M2575.22,-136.92C2539.27,-125.9 2485.13,-109.29 2446.75,-97.53"/>
<polygon fill="midnightblue" stroke="midnightblue" points="2574.26,-140.28 2584.85,-139.87 2576.31,-133.59 2574.26,-140.28"/>
</g>
<!-- Node31 -->
<g id="node29" class="node">
<title>Node31</title>
<g id="a_node29"><a xlink:href="Actions_8cpp.html" target="_top" xlink:title=" ">
<polygon fill="white" stroke="black" points="2383.5,-6 2383.5,-25 2552.5,-25 2552.5,-6 2383.5,-6"/>
<text text-anchor="middle" x="2468" y="-13" font-family="Helvetica,sans-Serif" font-size="10.00">src/common/action/Actions.cpp</text>
</a>
</g>
</g>
<!-- Node5&#45;&gt;Node31 -->
<g id="edge30" class="edge">
<title>Node5&#45;&gt;Node31</title>
<path fill="none" stroke="midnightblue" d="M2595.71,-132.76C2564.84,-104.66 2501.26,-46.78 2477.36,-25.02"/>
<polygon fill="midnightblue" stroke="midnightblue" points="2593.74,-135.7 2603.49,-139.84 2598.45,-130.52 2593.74,-135.7"/>
</g>
<!-- Node32 -->
<g id="node30" class="node">
<title>Node32</title>
<g id="a_node30"><a xlink:href="Actions_8hpp.html" target="_top" xlink:title="Définition de la classe Actions.">
<polygon fill="white" stroke="red" points="2641,-73 2641,-92 2811,-92 2811,-73 2641,-73"/>
<text text-anchor="middle" x="2726" y="-80" font-family="Helvetica,sans-Serif" font-size="10.00">src/common/action/Actions.hpp</text>
</a>
</g>
</g>
<!-- Node5&#45;&gt;Node32 -->
<g id="edge31" class="edge">
<title>Node5&#45;&gt;Node32</title>
<path fill="none" stroke="midnightblue" d="M2637.14,-134.62C2659.53,-121.74 2692.14,-102.98 2711,-92.13"/>
<polygon fill="midnightblue" stroke="midnightblue" points="2635.16,-131.71 2628.24,-139.73 2638.65,-137.78 2635.16,-131.71"/>
</g>
<!-- Node35 -->
<g id="node31" class="node">
<title>Node35</title>
<g id="a_node31"><a xlink:href="ButtonBar_8cpp.html" target="_top" xlink:title=" ">
<polygon fill="white" stroke="black" points="2570.5,-0.5 2570.5,-30.5 2715.5,-30.5 2715.5,-0.5 2570.5,-0.5"/>
<text text-anchor="start" x="2578.5" y="-18.5" font-family="Helvetica,sans-Serif" font-size="10.00">src/common/action/Button</text>
<text text-anchor="middle" x="2643" y="-7.5" font-family="Helvetica,sans-Serif" font-size="10.00">Bar.cpp</text>
</a>
</g>
</g>
<!-- Node5&#45;&gt;Node35 -->
<g id="edge37" class="edge">
<title>Node5&#45;&gt;Node35</title>
<path fill="none" stroke="midnightblue" d="M2604.62,-130.41C2598.03,-113.55 2591.16,-87.93 2599,-67 2604.3,-52.84 2615.57,-40.04 2625.37,-30.87"/>
<polygon fill="midnightblue" stroke="midnightblue" points="2601.42,-131.82 2608.56,-139.65 2607.86,-129.08 2601.42,-131.82"/>
</g>
<!-- Node37 -->
<g id="node32" class="node">
<title>Node37</title>
<g id="a_node32"><a xlink:href="Sensors_8cpp.html" target="_top" xlink:title=" ">
<polygon fill="white" stroke="black" points="2733.5,-6 2733.5,-25 2904.5,-25 2904.5,-6 2733.5,-6"/>
<text text-anchor="middle" x="2819" y="-13" font-family="Helvetica,sans-Serif" font-size="10.00">src/common/action/Sensors.cpp</text>
</a>
</g>
</g>
<!-- Node5&#45;&gt;Node37 -->
<g id="edge38" class="edge">
<title>Node5&#45;&gt;Node37</title>
<path fill="none" stroke="midnightblue" d="M2612.2,-129.71C2612.47,-111.32 2615.87,-83.7 2632,-67 2650.16,-48.19 2715.26,-33.6 2763.57,-25.04"/>
<polygon fill="midnightblue" stroke="midnightblue" points="2608.7,-129.84 2612.35,-139.79 2615.7,-129.74 2608.7,-129.84"/>
</g>
<!-- Node38 -->
<g id="node33" class="node">
<title>Node38</title>
<g id="a_node33"><a xlink:href="ServoObjectsSystem_8cpp.html" target="_top" xlink:title=" ">
<polygon fill="white" stroke="black" points="2922.5,-0.5 2922.5,-30.5 3099.5,-30.5 3099.5,-0.5 2922.5,-0.5"/>
<text text-anchor="start" x="2930.5" y="-18.5" font-family="Helvetica,sans-Serif" font-size="10.00">src/common/action/ServoObjects</text>
<text text-anchor="middle" x="3011" y="-7.5" font-family="Helvetica,sans-Serif" font-size="10.00">System.cpp</text>
</a>
</g>
</g>
<!-- Node5&#45;&gt;Node38 -->
<g id="edge39" class="edge">
<title>Node5&#45;&gt;Node38</title>
<path fill="none" stroke="midnightblue" d="M2666.4,-137.9C2718.26,-127.18 2792.99,-110.45 2820,-98 2841.4,-88.14 2842.07,-77.81 2863,-67 2893.03,-51.49 2928.86,-39.12 2957.74,-30.51"/>
<polygon fill="midnightblue" stroke="midnightblue" points="2665.45,-134.53 2656.35,-139.97 2666.85,-141.38 2665.45,-134.53"/>
</g>
<!-- Node39 -->
<g id="node34" class="node">
<title>Node39</title>
<g id="a_node34"><a xlink:href="SoundBar_8cpp.html" target="_top" xlink:title=" ">
<polygon fill="white" stroke="black" points="3117.5,-6 3117.5,-25 3296.5,-25 3296.5,-6 3117.5,-6"/>
<text text-anchor="middle" x="3207" y="-13" font-family="Helvetica,sans-Serif" font-size="10.00">src/common/action/SoundBar.cpp</text>
</a>
</g>
</g>
<!-- Node5&#45;&gt;Node39 -->
<g id="edge40" class="edge">
<title>Node5&#45;&gt;Node39</title>
<path fill="none" stroke="midnightblue" d="M2677.06,-138.32C2737.64,-128.12 2823.78,-111.97 2855,-98 2876.18,-88.52 2875.62,-76.01 2897,-67 2908.57,-62.12 3064.07,-38.11 3150.32,-25.03"/>
<polygon fill="midnightblue" stroke="midnightblue" points="2676.48,-134.87 2667.19,-139.97 2677.63,-141.77 2676.48,-134.87"/>
</g>
<!-- Node41 -->
<g id="node35" class="node">
<title>Node41</title>
<g id="a_node35"><a xlink:href="Tirette_8cpp.html" target="_top" xlink:title=" ">
<polygon fill="white" stroke="black" points="2905.5,-73 2905.5,-92 3070.5,-92 3070.5,-73 2905.5,-73"/>
<text text-anchor="middle" x="2988" y="-80" font-family="Helvetica,sans-Serif" font-size="10.00">src/common/action/Tirette.cpp</text>
</a>
</g>
</g>
<!-- Node5&#45;&gt;Node41 -->
<g id="edge41" class="edge">
<title>Node5&#45;&gt;Node41</title>
<path fill="none" stroke="midnightblue" d="M2672.46,-138.19C2746.1,-125.43 2870.21,-103.92 2938.78,-92.03"/>
<polygon fill="midnightblue" stroke="midnightblue" points="2671.67,-134.78 2662.41,-139.94 2672.86,-141.68 2671.67,-134.78"/>
</g>
<!-- Node42 -->
<g id="node36" class="node">
<title>Node42</title>
<g id="a_node36"><a xlink:href="Asserv_8cpp.html" target="_top" xlink:title=" ">
<polygon fill="white" stroke="black" points="3088.5,-73 3088.5,-92 3255.5,-92 3255.5,-73 3088.5,-73"/>
<text text-anchor="middle" x="3172" y="-80" font-family="Helvetica,sans-Serif" font-size="10.00">src/common/asserv/Asserv.cpp</text>
</a>
</g>
</g>
<!-- Node5&#45;&gt;Node42 -->
<g id="edge42" class="edge">
<title>Node5&#45;&gt;Node42</title>
<path fill="none" stroke="midnightblue" d="M2672.47,-138.36C2682.64,-136.79 2693.11,-135.27 2703,-134 2869.95,-112.6 2913.01,-119.11 3080,-98 3093.48,-96.3 3108.01,-94.15 3121.46,-92.03"/>
<polygon fill="midnightblue" stroke="midnightblue" points="2671.76,-134.93 2662.43,-139.95 2672.85,-141.85 2671.76,-134.93"/>
</g>
<!-- Node43 -->
<g id="node37" class="node">
<title>Node43</title>
<g id="a_node37"><a xlink:href="AsservEsialR_8cpp.html" target="_top" xlink:title=" ">
<polygon fill="white" stroke="black" points="3273.5,-67.5 3273.5,-97.5 3410.5,-97.5 3410.5,-67.5 3273.5,-67.5"/>
<text text-anchor="start" x="3281.5" y="-85.5" font-family="Helvetica,sans-Serif" font-size="10.00">src/common/asserv.esial</text>
<text text-anchor="middle" x="3342" y="-74.5" font-family="Helvetica,sans-Serif" font-size="10.00">/AsservEsialR.cpp</text>
</a>
</g>
</g>
<!-- Node5&#45;&gt;Node43 -->
<g id="edge43" class="edge">
<title>Node5&#45;&gt;Node43</title>
<path fill="none" stroke="midnightblue" d="M2670.65,-138.37C2681.38,-136.73 2692.51,-135.18 2703,-134 2951.73,-106.06 3016.66,-129.22 3265,-98 3267.7,-97.66 3270.45,-97.29 3273.22,-96.88"/>
<polygon fill="midnightblue" stroke="midnightblue" points="2669.86,-134.95 2660.53,-139.97 2670.95,-141.87 2669.86,-134.95"/>
</g>
<!-- Node44 -->
<g id="node38" class="node">
<title>Node44</title>
<g id="a_node38"><a xlink:href="BotCodeurs_8cpp.html" target="_top" xlink:title=" ">
<polygon fill="white" stroke="black" points="3428.5,-67.5 3428.5,-97.5 3565.5,-97.5 3565.5,-67.5 3428.5,-67.5"/>
<text text-anchor="start" x="3436.5" y="-85.5" font-family="Helvetica,sans-Serif" font-size="10.00">src/common/asserv.esial</text>
<text text-anchor="middle" x="3497" y="-74.5" font-family="Helvetica,sans-Serif" font-size="10.00">/codeurs/BotCodeurs.cpp</text>
</a>
</g>
</g>
<!-- Node5&#45;&gt;Node44 -->
<g id="edge44" class="edge">
<title>Node5&#45;&gt;Node44</title>
<path fill="none" stroke="midnightblue" d="M2669.57,-138.42C2680.63,-136.72 2692.15,-135.14 2703,-134 3020.31,-100.57 3103.16,-135.61 3420,-98 3422.7,-97.68 3425.45,-97.32 3428.22,-96.93"/>
<polygon fill="midnightblue" stroke="midnightblue" points="2668.91,-134.98 2659.58,-140 2670.01,-141.89 2668.91,-134.98"/>
</g>
<!-- Node45 -->
<g id="node39" class="node">
<title>Node45</title>
<g id="a_node39"><a xlink:href="BotMotors_8cpp.html" target="_top" xlink:title=" ">
<polygon fill="white" stroke="black" points="3584,-67.5 3584,-97.5 3760,-97.5 3760,-67.5 3584,-67.5"/>
<text text-anchor="start" x="3592" y="-85.5" font-family="Helvetica,sans-Serif" font-size="10.00">src/common/asserv.esial</text>
<text text-anchor="middle" x="3672" y="-74.5" font-family="Helvetica,sans-Serif" font-size="10.00">/motorsController/BotMotors.cpp</text>
</a>
</g>
</g>
<!-- Node5&#45;&gt;Node45 -->
<g id="edge45" class="edge">
<title>Node5&#45;&gt;Node45</title>
<path fill="none" stroke="midnightblue" d="M2669.19,-138.4C2680.36,-136.68 2692.03,-135.11 2703,-134 3088.93,-95.08 3188.86,-134.73 3575,-98 3577.88,-97.73 3580.81,-97.42 3583.76,-97.1"/>
<polygon fill="midnightblue" stroke="midnightblue" points="2668.44,-134.97 2659.11,-139.99 2669.53,-141.89 2668.44,-134.97"/>
</g>
<!-- Node46 -->
<g id="node40" class="node">
<title>Node46</title>
<g id="a_node40"><a xlink:href="Regulateur_8cpp.html" target="_top" xlink:title=" ">
<polygon fill="white" stroke="black" points="3778,-67.5 3778,-97.5 3924,-97.5 3924,-67.5 3778,-67.5"/>
<text text-anchor="start" x="3786" y="-85.5" font-family="Helvetica,sans-Serif" font-size="10.00">src/common/asserv.esial</text>
<text text-anchor="middle" x="3851" y="-74.5" font-family="Helvetica,sans-Serif" font-size="10.00">/regulateur/Regulateur.cpp</text>
</a>
</g>
</g>
<!-- Node5&#45;&gt;Node46 -->
<g id="edge46" class="edge">
<title>Node5&#45;&gt;Node46</title>
<path fill="none" stroke="midnightblue" d="M2669.19,-138.33C2680.36,-136.62 2692.02,-135.07 2703,-134 3174.83,-88.21 3297.53,-147.4 3769,-98 3771.88,-97.7 3774.8,-97.36 3777.75,-96.98"/>
<polygon fill="midnightblue" stroke="midnightblue" points="2668.43,-134.91 2659.1,-139.93 2669.53,-141.82 2668.43,-134.91"/>
</g>
<!-- Node5&#45;&gt;Node123 -->
<g id="edge47" class="edge">
<title>Node5&#45;&gt;Node123</title>
<path fill="none" stroke="midnightblue" d="M2668.09,-138.35C2679.59,-136.59 2691.66,-135 2703,-134 3666.49,-48.86 3915.37,-181.5 4879,-98 4893.98,-96.7 4910.22,-94.43 4924.82,-92.07"/>
<polygon fill="midnightblue" stroke="midnightblue" points="2667.49,-134.9 2658.17,-139.93 2668.59,-141.81 2667.49,-134.9"/>
</g>
<!-- Node5&#45;&gt;Node64 -->
<g id="edge48" class="edge">
<title>Node5&#45;&gt;Node64</title>
<path fill="none" stroke="midnightblue" d="M2687.52,-138.82C2705.03,-136.89 2723.65,-135.11 2741,-134 3256,-100.92 4549.04,-144.55 5063,-98 5077.34,-96.7 5092.87,-94.4 5106.8,-92.01"/>
<polygon fill="midnightblue" stroke="midnightblue" points="2686.89,-135.37 2677.35,-139.97 2687.68,-142.32 2686.89,-135.37"/>
</g>
<!-- Node30&#45;&gt;Node28 -->
<g id="edge28" class="edge">
<title>Node30&#45;&gt;Node28</title>
<path fill="none" stroke="midnightblue" d="M2334.19,-65.05C2291.03,-54.43 2235.46,-40.74 2194.31,-30.61"/>
<polygon fill="midnightblue" stroke="midnightblue" points="2333.49,-68.48 2344.04,-67.48 2335.17,-61.69 2333.49,-68.48"/>
</g>
<!-- Node30&#45;&gt;Node29 -->
<g id="edge29" class="edge">
<title>Node30&#45;&gt;Node29</title>
<path fill="none" stroke="midnightblue" d="M2369.22,-62.02C2352.73,-51.9 2332.95,-39.77 2317.96,-30.58"/>
<polygon fill="midnightblue" stroke="midnightblue" points="2367.65,-65.15 2378,-67.4 2371.3,-59.18 2367.65,-65.15"/>
</g>
<!-- Node32&#45;&gt;Node31 -->
<g id="edge32" class="edge">
<title>Node32&#45;&gt;Node31</title>
<path fill="none" stroke="midnightblue" d="M2682.28,-70.48C2631.38,-57.66 2548.42,-36.76 2502.07,-25.08"/>
<polygon fill="midnightblue" stroke="midnightblue" points="2681.45,-73.89 2692.01,-72.94 2683.16,-67.1 2681.45,-73.89"/>
</g>
<!-- Node32&#45;&gt;Node35 -->
<g id="edge33" class="edge">
<title>Node32&#45;&gt;Node35</title>
<path fill="none" stroke="midnightblue" d="M2706.9,-66.54C2693.09,-55.73 2674.54,-41.2 2660.99,-30.59"/>
<polygon fill="midnightblue" stroke="midnightblue" points="2704.78,-69.32 2714.81,-72.73 2709.09,-63.81 2704.78,-69.32"/>
</g>
<!-- Node32&#45;&gt;Node37 -->
<g id="edge34" class="edge">
<title>Node32&#45;&gt;Node37</title>
<path fill="none" stroke="midnightblue" d="M2746.86,-66.92C2765.25,-54.07 2791.41,-35.78 2806.66,-25.13"/>
<polygon fill="midnightblue" stroke="midnightblue" points="2744.73,-64.14 2738.54,-72.73 2748.74,-69.87 2744.73,-64.14"/>
</g>
<!-- Node32&#45;&gt;Node38 -->
<g id="edge35" class="edge">
<title>Node32&#45;&gt;Node38</title>
<path fill="none" stroke="midnightblue" d="M2773.42,-70.69C2821.63,-59.69 2896.56,-42.6 2949.36,-30.56"/>
<polygon fill="midnightblue" stroke="midnightblue" points="2772.52,-67.3 2763.55,-72.94 2774.08,-74.12 2772.52,-67.3"/>
</g>
<!-- Node32&#45;&gt;Node39 -->
<g id="edge36" class="edge">
<title>Node32&#45;&gt;Node39</title>
<path fill="none" stroke="midnightblue" d="M2803.3,-71.67C2880.69,-61.75 3003.16,-45.81 3109,-31 3122.46,-29.12 3136.94,-27.02 3150.54,-25.01"/>
<polygon fill="midnightblue" stroke="midnightblue" points="2802.63,-68.23 2793.15,-72.97 2803.52,-75.17 2802.63,-68.23"/>
</g>
</g>
</svg>
