<?xml version="1.0" encoding="UTF-8" standalone="no"?>
<!DOCTYPE svg PUBLIC "-//W3C//DTD SVG 1.1//EN"
 "http://www.w3.org/Graphics/SVG/1.1/DTD/svg11.dtd">
<!-- Generated by graphviz version 2.43.0 (0)
 -->
<!-- Title: test/common/LevelTest.hpp Pages: 1 -->
<svg width="670pt" height="319pt"
 viewBox="0.00 0.00 669.72 319.00" xmlns="http://www.w3.org/2000/svg" xmlns:xlink="http://www.w3.org/1999/xlink">
<g id="graph0" class="graph" transform="scale(1 1) rotate(0) translate(4 315)">
<title>test/common/LevelTest.hpp</title>
<polygon fill="white" stroke="transparent" points="-4,4 -4,-315 665.72,-315 665.72,4 -4,4"/>
<!-- Node1 -->
<g id="node1" class="node">
<title>Node1</title>
<g id="a_node1"><a xlink:title="Définition de la classe LevelTest.">
<polygon fill="#bfbfbf" stroke="black" points="0,-291.5 0,-310.5 151,-310.5 151,-291.5 0,-291.5"/>
<text text-anchor="middle" x="75.5" y="-298.5" font-family="Helvetica,sans-Serif" font-size="10.00">test/common/LevelTest.hpp</text>
</a>
</g>
</g>
<!-- Node2 -->
<g id="node2" class="node">
<title>Node2</title>
<g id="a_node2"><a xlink:href="UnitTest_8hpp.html" target="_top" xlink:title="Définition de la classe DevUnitTest.">
<polygon fill="white" stroke="black" points="19,-235.5 19,-254.5 132,-254.5 132,-235.5 19,-235.5"/>
<text text-anchor="middle" x="75.5" y="-242.5" font-family="Helvetica,sans-Serif" font-size="10.00">../suite/UnitTest.hpp</text>
</a>
</g>
</g>
<!-- Node1&#45;&gt;Node2 -->
<g id="edge1" class="edge">
<title>Node1&#45;&gt;Node2</title>
<path fill="none" stroke="midnightblue" d="M75.5,-291.08C75.5,-284.01 75.5,-273.86 75.5,-264.99"/>
<polygon fill="midnightblue" stroke="midnightblue" points="79,-264.75 75.5,-254.75 72,-264.75 79,-264.75"/>
</g>
<!-- Node3 -->
<g id="node3" class="node">
<title>Node3</title>
<g id="a_node3"><a xlink:title=" ">
<polygon fill="white" stroke="#bfbfbf" points="212.5,-0.5 212.5,-19.5 256.5,-19.5 256.5,-0.5 212.5,-0.5"/>
<text text-anchor="middle" x="234.5" y="-7.5" font-family="Helvetica,sans-Serif" font-size="10.00">string</text>
</a>
</g>
</g>
<!-- Node2&#45;&gt;Node3 -->
<g id="edge2" class="edge">
<title>Node2&#45;&gt;Node3</title>
<path fill="none" stroke="midnightblue" d="M69.97,-235.44C56.62,-213.62 25.32,-154.6 47.5,-112 78.09,-53.25 157.73,-27.23 202.59,-16.93"/>
<polygon fill="midnightblue" stroke="midnightblue" points="203.37,-20.34 212.4,-14.8 201.89,-13.5 203.37,-20.34"/>
</g>
<!-- Node4 -->
<g id="node4" class="node">
<title>Node4</title>
<g id="a_node4"><a xlink:href="LoggerFactory_8hpp.html" target="_top" xlink:title="Définition de la classe LoggerFactory.">
<polygon fill="white" stroke="black" points="66,-168.5 66,-198.5 179,-198.5 179,-168.5 66,-168.5"/>
<text text-anchor="start" x="74" y="-186.5" font-family="Helvetica,sans-Serif" font-size="10.00">../../src/common/log</text>
<text text-anchor="middle" x="122.5" y="-175.5" font-family="Helvetica,sans-Serif" font-size="10.00">/LoggerFactory.hpp</text>
</a>
</g>
</g>
<!-- Node2&#45;&gt;Node4 -->
<g id="edge3" class="edge">
<title>Node2&#45;&gt;Node4</title>
<path fill="none" stroke="midnightblue" d="M82.23,-235.48C88.18,-227.94 97.12,-216.63 105.07,-206.57"/>
<polygon fill="midnightblue" stroke="midnightblue" points="107.97,-208.54 111.42,-198.52 102.48,-204.2 107.97,-208.54"/>
</g>
<!-- Node4&#45;&gt;Node3 -->
<g id="edge5" class="edge">
<title>Node4&#45;&gt;Node3</title>
<path fill="none" stroke="midnightblue" d="M120.65,-168.39C118.14,-143.2 116.48,-89.98 141.5,-56 156.12,-36.14 181.87,-24.63 202.57,-18.23"/>
<polygon fill="midnightblue" stroke="midnightblue" points="203.59,-21.58 212.25,-15.49 201.68,-14.85 203.59,-21.58"/>
</g>
<!-- Node5 -->
<g id="node5" class="node">
<title>Node5</title>
<g id="a_node5"><a xlink:title=" ">
<polygon fill="white" stroke="#bfbfbf" points="56.5,-112.5 56.5,-131.5 94.5,-131.5 94.5,-112.5 56.5,-112.5"/>
<text text-anchor="middle" x="75.5" y="-119.5" font-family="Helvetica,sans-Serif" font-size="10.00">map</text>
</a>
</g>
</g>
<!-- Node4&#45;&gt;Node5 -->
<g id="edge4" class="edge">
<title>Node4&#45;&gt;Node5</title>
<path fill="none" stroke="midnightblue" d="M111.36,-168.4C104.53,-159.75 95.76,-148.64 88.59,-139.58"/>
<polygon fill="midnightblue" stroke="midnightblue" points="91.28,-137.34 82.34,-131.66 85.79,-141.67 91.28,-137.34"/>
</g>
<!-- Node6 -->
<g id="node6" class="node">
<title>Node6</title>
<g id="a_node6"><a xlink:href="Thread_8hpp.html" target="_top" xlink:title="Définition de la classe Thread.">
<polygon fill="white" stroke="black" points="435,-112.5 435,-131.5 550,-131.5 550,-112.5 435,-112.5"/>
<text text-anchor="middle" x="492.5" y="-119.5" font-family="Helvetica,sans-Serif" font-size="10.00">../thread/Thread.hpp</text>
</a>
</g>
</g>
<!-- Node4&#45;&gt;Node6 -->
<g id="edge6" class="edge">
<title>Node4&#45;&gt;Node6</title>
<path fill="none" stroke="midnightblue" d="M179.1,-173.4C246.63,-162.54 359.21,-144.44 429.46,-133.14"/>
<polygon fill="midnightblue" stroke="midnightblue" points="430.19,-136.57 439.51,-131.52 429.08,-129.65 430.19,-136.57"/>
</g>
<!-- Node12 -->
<g id="node12" class="node">
<title>Node12</title>
<g id="a_node12"><a xlink:href="Logger_8hpp.html" target="_top" xlink:title="Définition de la classe Logger.">
<polygon fill="white" stroke="black" points="199.5,-112.5 199.5,-131.5 269.5,-131.5 269.5,-112.5 199.5,-112.5"/>
<text text-anchor="middle" x="234.5" y="-119.5" font-family="Helvetica,sans-Serif" font-size="10.00">Logger.hpp</text>
</a>
</g>
</g>
<!-- Node4&#45;&gt;Node12 -->
<g id="edge14" class="edge">
<title>Node4&#45;&gt;Node12</title>
<path fill="none" stroke="midnightblue" d="M149.04,-168.4C167.16,-158.77 191.04,-146.09 208.94,-136.58"/>
<polygon fill="midnightblue" stroke="midnightblue" points="211.01,-139.44 218.2,-131.66 207.73,-133.26 211.01,-139.44"/>
</g>
<!-- Node6&#45;&gt;Node3 -->
<g id="edge8" class="edge">
<title>Node6&#45;&gt;Node3</title>
<path fill="none" stroke="midnightblue" d="M485.63,-112.35C473.99,-98.29 448.94,-70.59 421.5,-56 371.51,-29.42 305.7,-18.31 266.97,-13.83"/>
<polygon fill="midnightblue" stroke="midnightblue" points="267.11,-10.33 256.79,-12.74 266.36,-17.29 267.11,-10.33"/>
</g>
<!-- Node7 -->
<g id="node7" class="node">
<title>Node7</title>
<g id="a_node7"><a xlink:title=" ">
<polygon fill="white" stroke="#bfbfbf" points="495,-0.5 495,-19.5 558,-19.5 558,-0.5 495,-0.5"/>
<text text-anchor="middle" x="526.5" y="-7.5" font-family="Helvetica,sans-Serif" font-size="10.00">pthread.h</text>
</a>
</g>
</g>
<!-- Node6&#45;&gt;Node7 -->
<g id="edge7" class="edge">
<title>Node6&#45;&gt;Node7</title>
<path fill="none" stroke="midnightblue" d="M550.16,-112.58C591.68,-105.21 642.56,-92.99 655.5,-76 681.54,-41.8 614.87,-24.25 567.97,-16.4"/>
<polygon fill="midnightblue" stroke="midnightblue" points="568.43,-12.93 558.01,-14.82 567.34,-19.84 568.43,-12.93"/>
</g>
<!-- Node8 -->
<g id="node8" class="node">
<title>Node8</title>
<g id="a_node8"><a xlink:title=" ">
<polygon fill="white" stroke="#bfbfbf" points="468.5,-56.5 468.5,-75.5 516.5,-75.5 516.5,-56.5 468.5,-56.5"/>
<text text-anchor="middle" x="492.5" y="-63.5" font-family="Helvetica,sans-Serif" font-size="10.00">thread</text>
</a>
</g>
</g>
<!-- Node6&#45;&gt;Node8 -->
<g id="edge9" class="edge">
<title>Node6&#45;&gt;Node8</title>
<path fill="none" stroke="midnightblue" d="M492.5,-112.08C492.5,-105.01 492.5,-94.86 492.5,-85.99"/>
<polygon fill="midnightblue" stroke="midnightblue" points="496,-85.75 492.5,-75.75 489,-85.75 496,-85.75"/>
</g>
<!-- Node9 -->
<g id="node9" class="node">
<title>Node9</title>
<g id="a_node9"><a xlink:title=" ">
<polygon fill="white" stroke="#bfbfbf" points="534.5,-56.5 534.5,-75.5 578.5,-75.5 578.5,-56.5 534.5,-56.5"/>
<text text-anchor="middle" x="556.5" y="-63.5" font-family="Helvetica,sans-Serif" font-size="10.00">ctime</text>
</a>
</g>
</g>
<!-- Node6&#45;&gt;Node9 -->
<g id="edge10" class="edge">
<title>Node6&#45;&gt;Node9</title>
<path fill="none" stroke="midnightblue" d="M502.78,-112.32C512.34,-104.26 526.78,-92.08 538.28,-82.37"/>
<polygon fill="midnightblue" stroke="midnightblue" points="540.64,-84.96 546.03,-75.83 536.13,-79.61 540.64,-84.96"/>
</g>
<!-- Node10 -->
<g id="node10" class="node">
<title>Node10</title>
<g id="a_node10"><a xlink:href="Mutex_8hpp.html" target="_top" xlink:title="Définition de la classe Mutex.">
<polygon fill="white" stroke="black" points="344.5,-56.5 344.5,-75.5 412.5,-75.5 412.5,-56.5 344.5,-56.5"/>
<text text-anchor="middle" x="378.5" y="-63.5" font-family="Helvetica,sans-Serif" font-size="10.00">Mutex.hpp</text>
</a>
</g>
</g>
<!-- Node6&#45;&gt;Node10 -->
<g id="edge11" class="edge">
<title>Node6&#45;&gt;Node10</title>
<path fill="none" stroke="midnightblue" d="M474.44,-112.44C455.93,-103.68 426.92,-89.94 405.64,-79.86"/>
<polygon fill="midnightblue" stroke="midnightblue" points="407.01,-76.63 396.48,-75.52 404.02,-82.96 407.01,-76.63"/>
</g>
<!-- Node11 -->
<g id="node11" class="node">
<title>Node11</title>
<g id="a_node11"><a xlink:title=" ">
<polygon fill="white" stroke="#bfbfbf" points="596.5,-56.5 596.5,-75.5 646.5,-75.5 646.5,-56.5 596.5,-56.5"/>
<text text-anchor="middle" x="621.5" y="-63.5" font-family="Helvetica,sans-Serif" font-size="10.00">chrono</text>
</a>
</g>
</g>
<!-- Node6&#45;&gt;Node11 -->
<g id="edge13" class="edge">
<title>Node6&#45;&gt;Node11</title>
<path fill="none" stroke="midnightblue" d="M512.94,-112.44C534.17,-103.56 567.6,-89.56 591.75,-79.45"/>
<polygon fill="midnightblue" stroke="midnightblue" points="593.28,-82.61 601.16,-75.52 590.58,-76.15 593.28,-82.61"/>
</g>
<!-- Node10&#45;&gt;Node7 -->
<g id="edge12" class="edge">
<title>Node10&#45;&gt;Node7</title>
<path fill="none" stroke="midnightblue" d="M401.95,-56.44C426.63,-47.44 465.69,-33.19 493.48,-23.05"/>
<polygon fill="midnightblue" stroke="midnightblue" points="494.96,-26.23 503.16,-19.52 492.56,-19.66 494.96,-26.23"/>
</g>
<!-- Node12&#45;&gt;Node3 -->
<g id="edge16" class="edge">
<title>Node12&#45;&gt;Node3</title>
<path fill="none" stroke="midnightblue" d="M234.5,-112.37C234.5,-94.62 234.5,-53.67 234.5,-29.6"/>
<polygon fill="midnightblue" stroke="midnightblue" points="238,-29.59 234.5,-19.59 231,-29.59 238,-29.59"/>
</g>
<!-- Node12&#45;&gt;Node10 -->
<g id="edge17" class="edge">
<title>Node12&#45;&gt;Node10</title>
<path fill="none" stroke="midnightblue" d="M257.32,-112.44C281.33,-103.44 319.33,-89.19 346.37,-79.05"/>
<polygon fill="midnightblue" stroke="midnightblue" points="347.66,-82.3 355.79,-75.52 345.2,-75.75 347.66,-82.3"/>
</g>
<!-- Node13 -->
<g id="node13" class="node">
<title>Node13</title>
<g id="a_node13"><a xlink:title=" ">
<polygon fill="white" stroke="#bfbfbf" points="150.5,-56.5 150.5,-75.5 206.5,-75.5 206.5,-56.5 150.5,-56.5"/>
<text text-anchor="middle" x="178.5" y="-63.5" font-family="Helvetica,sans-Serif" font-size="10.00">sstream</text>
</a>
</g>
</g>
<!-- Node12&#45;&gt;Node13 -->
<g id="edge15" class="edge">
<title>Node12&#45;&gt;Node13</title>
<path fill="none" stroke="midnightblue" d="M225.5,-112.32C217.31,-104.42 204.99,-92.55 195.03,-82.94"/>
<polygon fill="midnightblue" stroke="midnightblue" points="197.29,-80.26 187.66,-75.83 192.43,-85.29 197.29,-80.26"/>
</g>
<!-- Node14 -->
<g id="node14" class="node">
<title>Node14</title>
<g id="a_node14"><a xlink:href="Level_8hpp.html" target="_top" xlink:title="Définition de la classe Level.">
<polygon fill="white" stroke="black" points="262.5,-56.5 262.5,-75.5 326.5,-75.5 326.5,-56.5 262.5,-56.5"/>
<text text-anchor="middle" x="294.5" y="-63.5" font-family="Helvetica,sans-Serif" font-size="10.00">Level.hpp</text>
</a>
</g>
</g>
<!-- Node12&#45;&gt;Node14 -->
<g id="edge18" class="edge">
<title>Node12&#45;&gt;Node14</title>
<path fill="none" stroke="midnightblue" d="M244.14,-112.32C253.01,-104.34 266.37,-92.31 277.11,-82.65"/>
<polygon fill="midnightblue" stroke="midnightblue" points="279.59,-85.13 284.68,-75.83 274.91,-79.92 279.59,-85.13"/>
</g>
<!-- Node14&#45;&gt;Node3 -->
<g id="edge19" class="edge">
<title>Node14&#45;&gt;Node3</title>
<path fill="none" stroke="midnightblue" d="M284.86,-56.32C275.99,-48.34 262.63,-36.31 251.89,-26.65"/>
<polygon fill="midnightblue" stroke="midnightblue" points="254.09,-23.92 244.32,-19.83 249.41,-29.13 254.09,-23.92"/>
</g>
</g>
</svg>
