<?xml version="1.0" encoding="UTF-8" standalone="no"?>
<!DOCTYPE svg PUBLIC "-//W3C//DTD SVG 1.1//EN"
 "http://www.w3.org/Graphics/SVG/1.1/DTD/svg11.dtd">
<!-- Generated by graphviz version 2.43.0 (0)
 -->
<!-- Title: src/common/log/Logger.hpp Pages: 1 -->
<svg width="1637pt" height="285pt"
 viewBox="0.00 0.00 1636.58 285.00" xmlns="http://www.w3.org/2000/svg" xmlns:xlink="http://www.w3.org/1999/xlink">
<g id="graph0" class="graph" transform="scale(1 1) rotate(0) translate(4 281)">
<title>src/common/log/Logger.hpp</title>
<polygon fill="white" stroke="transparent" points="-4,4 -4,-281 1632.58,-281 1632.58,4 -4,4"/>
<!-- Node1 -->
<g id="node1" class="node">
<title>Node1</title>
<g id="a_node1"><a xlink:title="Définition de la classe Logger.">
<polygon fill="#bfbfbf" stroke="black" points="572.58,-257.5 572.58,-276.5 723.58,-276.5 723.58,-257.5 572.58,-257.5"/>
<text text-anchor="middle" x="648.08" y="-264.5" font-family="Helvetica,sans-Serif" font-size="10.00">src/common/log/Logger.hpp</text>
</a>
</g>
</g>
<!-- Node2 -->
<g id="node2" class="node">
<title>Node2</title>
<g id="a_node2"><a xlink:href="MemoryAppender_8hpp.html" target="_top" xlink:title="Définition de la classe MemoryAppender.">
<polygon fill="white" stroke="black" points="291.58,-190.5 291.58,-220.5 434.58,-220.5 434.58,-190.5 291.58,-190.5"/>
<text text-anchor="start" x="299.58" y="-208.5" font-family="Helvetica,sans-Serif" font-size="10.00">src/common/log/appender</text>
<text text-anchor="middle" x="363.08" y="-197.5" font-family="Helvetica,sans-Serif" font-size="10.00">/MemoryAppender.hpp</text>
</a>
</g>
</g>
<!-- Node1&#45;&gt;Node2 -->
<g id="edge1" class="edge">
<title>Node1&#45;&gt;Node2</title>
<path fill="none" stroke="midnightblue" d="M597.38,-255.41C550.79,-245.69 481.43,-231.21 430.25,-220.52"/>
<polygon fill="midnightblue" stroke="midnightblue" points="596.74,-258.86 607.25,-257.48 598.17,-252.01 596.74,-258.86"/>
</g>
<!-- Node8 -->
<g id="node8" class="node">
<title>Node8</title>
<g id="a_node8"><a xlink:href="UnitTest_8cpp.html" target="_top" xlink:title="Implémentation de la classe DevUnitTest.">
<polygon fill="white" stroke="black" points="778.58,-62 778.58,-81 903.58,-81 903.58,-62 778.58,-62"/>
<text text-anchor="middle" x="841.08" y="-69" font-family="Helvetica,sans-Serif" font-size="10.00">test/suite/UnitTest.cpp</text>
</a>
</g>
</g>
<!-- Node1&#45;&gt;Node8 -->
<g id="edge31" class="edge">
<title>Node1&#45;&gt;Node8</title>
<path fill="none" stroke="midnightblue" d="M650.77,-247.12C653.49,-231.33 658.53,-208.47 667.08,-190 682.46,-156.75 686.26,-145.61 715.08,-123 741.78,-102.06 778.31,-88.69 805.16,-81.01"/>
<polygon fill="midnightblue" stroke="midnightblue" points="647.28,-246.79 649.18,-257.21 654.19,-247.87 647.28,-246.79"/>
</g>
<!-- Node10 -->
<g id="node10" class="node">
<title>Node10</title>
<g id="a_node10"><a xlink:href="UnitTestSuite_8cpp.html" target="_top" xlink:title="Implementation de la classe UnitTestSuite.">
<polygon fill="white" stroke="black" points="364.08,-0.5 364.08,-19.5 514.08,-19.5 514.08,-0.5 364.08,-0.5"/>
<text text-anchor="middle" x="439.08" y="-7.5" font-family="Helvetica,sans-Serif" font-size="10.00">test/suite/UnitTestSuite.cpp</text>
</a>
</g>
</g>
<!-- Node1&#45;&gt;Node10 -->
<g id="edge32" class="edge">
<title>Node1&#45;&gt;Node10</title>
<path fill="none" stroke="midnightblue" d="M562.4,-264.22C406.43,-258.93 86.19,-237.86 21.08,-154 -5.63,-119.6 -8.02,-88.4 21.08,-56 43.51,-31.02 249.64,-18.7 363.81,-13.75"/>
<polygon fill="midnightblue" stroke="midnightblue" points="562.32,-267.72 572.43,-264.55 562.55,-260.73 562.32,-267.72"/>
</g>
<!-- Node11 -->
<g id="node11" class="node">
<title>Node11</title>
<g id="a_node11"><a xlink:href="Logger_8cpp.html" target="_top" xlink:title="Implémentation de la classe Logger.">
<polygon fill="white" stroke="black" points="676.08,-196 676.08,-215 826.08,-215 826.08,-196 676.08,-196"/>
<text text-anchor="middle" x="751.08" y="-203" font-family="Helvetica,sans-Serif" font-size="10.00">src/common/log/Logger.cpp</text>
</a>
</g>
</g>
<!-- Node1&#45;&gt;Node11 -->
<g id="edge11" class="edge">
<title>Node1&#45;&gt;Node11</title>
<path fill="none" stroke="midnightblue" d="M671.62,-252.4C691.54,-240.9 719.46,-224.77 736.35,-215.01"/>
<polygon fill="midnightblue" stroke="midnightblue" points="669.75,-249.44 662.84,-257.48 673.25,-255.5 669.75,-249.44"/>
</g>
<!-- Node12 -->
<g id="node12" class="node">
<title>Node12</title>
<g id="a_node12"><a xlink:href="LoggerFactory_8hpp.html" target="_top" xlink:title="Définition de la classe LoggerFactory.">
<polygon fill="white" stroke="black" points="843.58,-196 843.58,-215 1028.58,-215 1028.58,-196 843.58,-196"/>
<text text-anchor="middle" x="936.08" y="-203" font-family="Helvetica,sans-Serif" font-size="10.00">src/common/log/LoggerFactory.hpp</text>
</a>
</g>
</g>
<!-- Node1&#45;&gt;Node12 -->
<g id="edge12" class="edge">
<title>Node1&#45;&gt;Node12</title>
<path fill="none" stroke="midnightblue" d="M699.38,-255.4C755.21,-243.87 843.39,-225.65 894.89,-215.01"/>
<polygon fill="midnightblue" stroke="midnightblue" points="698.43,-252.02 689.34,-257.48 699.85,-258.88 698.43,-252.02"/>
</g>
<!-- Node3 -->
<g id="node3" class="node">
<title>Node3</title>
<g id="a_node3"><a xlink:href="ConsoleAppender_8hpp.html" target="_top" xlink:title="Définition de la classe ConsoleAppender.">
<polygon fill="white" stroke="black" points="30.58,-123.5 30.58,-153.5 173.58,-153.5 173.58,-123.5 30.58,-123.5"/>
<text text-anchor="start" x="38.58" y="-141.5" font-family="Helvetica,sans-Serif" font-size="10.00">src/common/log/appender</text>
<text text-anchor="middle" x="102.08" y="-130.5" font-family="Helvetica,sans-Serif" font-size="10.00">/ConsoleAppender.hpp</text>
</a>
</g>
</g>
<!-- Node2&#45;&gt;Node3 -->
<g id="edge2" class="edge">
<title>Node2&#45;&gt;Node3</title>
<path fill="none" stroke="midnightblue" d="M297.03,-188.05C254.36,-177.43 199.42,-163.74 158.74,-153.61"/>
<polygon fill="midnightblue" stroke="midnightblue" points="296.22,-191.46 306.77,-190.48 297.91,-184.66 296.22,-191.46"/>
</g>
<!-- Node5 -->
<g id="node5" class="node">
<title>Node5</title>
<g id="a_node5"><a xlink:href="MemoryAppender_8cpp.html" target="_top" xlink:title="Implementation de la classe MemoryAppender.">
<polygon fill="white" stroke="black" points="191.58,-123.5 191.58,-153.5 334.58,-153.5 334.58,-123.5 191.58,-123.5"/>
<text text-anchor="start" x="199.58" y="-141.5" font-family="Helvetica,sans-Serif" font-size="10.00">src/common/log/appender</text>
<text text-anchor="middle" x="263.08" y="-130.5" font-family="Helvetica,sans-Serif" font-size="10.00">/MemoryAppender.cpp</text>
</a>
</g>
</g>
<!-- Node2&#45;&gt;Node5 -->
<g id="edge4" class="edge">
<title>Node2&#45;&gt;Node5</title>
<path fill="none" stroke="midnightblue" d="M332.67,-184.73C317.2,-174.68 298.75,-162.68 284.74,-153.58"/>
<polygon fill="midnightblue" stroke="midnightblue" points="331.09,-187.88 341.38,-190.4 334.9,-182.01 331.09,-187.88"/>
</g>
<!-- Node6 -->
<g id="node6" class="node">
<title>Node6</title>
<g id="a_node6"><a xlink:href="UnitTestAppender_8hpp.html" target="_top" xlink:title="Définition de la classe UnitTestAppender utilisant le memory Appender.">
<polygon fill="white" stroke="black" points="448.08,-129 448.08,-148 620.08,-148 620.08,-129 448.08,-129"/>
<text text-anchor="middle" x="534.08" y="-136" font-family="Helvetica,sans-Serif" font-size="10.00">test/suite/UnitTestAppender.hpp</text>
</a>
</g>
</g>
<!-- Node2&#45;&gt;Node6 -->
<g id="edge5" class="edge">
<title>Node2&#45;&gt;Node6</title>
<path fill="none" stroke="midnightblue" d="M409.69,-186.78C442.84,-174.18 485.92,-157.81 511.7,-148.01"/>
<polygon fill="midnightblue" stroke="midnightblue" points="408.29,-183.57 400.18,-190.4 410.78,-190.11 408.29,-183.57"/>
</g>
<!-- Node2&#45;&gt;Node10 -->
<g id="edge10" class="edge">
<title>Node2&#45;&gt;Node10</title>
<path fill="none" stroke="midnightblue" d="M356.56,-180.58C347.19,-143.98 332.36,-76.2 345.08,-56 356.94,-37.17 379.11,-26.05 398.93,-19.57"/>
<polygon fill="midnightblue" stroke="midnightblue" points="353.23,-181.64 359.15,-190.43 360,-179.87 353.23,-181.64"/>
</g>
<!-- Node4 -->
<g id="node4" class="node">
<title>Node4</title>
<g id="a_node4"><a xlink:href="ConsoleAppender_8cpp.html" target="_top" xlink:title="Implémentation de la classe ConsoleAppender.">
<polygon fill="white" stroke="black" points="30.58,-56.5 30.58,-86.5 173.58,-86.5 173.58,-56.5 30.58,-56.5"/>
<text text-anchor="start" x="38.58" y="-74.5" font-family="Helvetica,sans-Serif" font-size="10.00">src/common/log/appender</text>
<text text-anchor="middle" x="102.08" y="-63.5" font-family="Helvetica,sans-Serif" font-size="10.00">/ConsoleAppender.cpp</text>
</a>
</g>
</g>
<!-- Node3&#45;&gt;Node4 -->
<g id="edge3" class="edge">
<title>Node3&#45;&gt;Node4</title>
<path fill="none" stroke="midnightblue" d="M102.08,-113.11C102.08,-104.15 102.08,-94.32 102.08,-86.58"/>
<polygon fill="midnightblue" stroke="midnightblue" points="98.58,-113.4 102.08,-123.4 105.58,-113.4 98.58,-113.4"/>
</g>
<!-- Node7 -->
<g id="node7" class="node">
<title>Node7</title>
<g id="a_node7"><a xlink:href="LoggerInitialize_8cpp.html" target="_top" xlink:title="Initialisation du système de Log pour les tests unitaires.">
<polygon fill="white" stroke="black" points="581.58,-62 581.58,-81 760.58,-81 760.58,-62 581.58,-62"/>
<text text-anchor="middle" x="671.08" y="-69" font-family="Helvetica,sans-Serif" font-size="10.00">test/common/LoggerInitialize.cpp</text>
</a>
</g>
</g>
<!-- Node6&#45;&gt;Node7 -->
<g id="edge6" class="edge">
<title>Node6&#45;&gt;Node7</title>
<path fill="none" stroke="midnightblue" d="M561.6,-124.44C588.73,-111.57 629.44,-92.26 652.81,-81.17"/>
<polygon fill="midnightblue" stroke="midnightblue" points="559.81,-121.42 552.27,-128.87 562.81,-127.74 559.81,-121.42"/>
</g>
<!-- Node6&#45;&gt;Node8 -->
<g id="edge7" class="edge">
<title>Node6&#45;&gt;Node8</title>
<path fill="none" stroke="midnightblue" d="M584.6,-126.8C645.02,-114.01 744.93,-92.86 800.54,-81.08"/>
<polygon fill="midnightblue" stroke="midnightblue" points="583.59,-123.44 574.53,-128.94 585.04,-130.29 583.59,-123.44"/>
</g>
<!-- Node9 -->
<g id="node9" class="node">
<title>Node9</title>
<g id="a_node9"><a xlink:href="UnitTestAppender_8cpp.html" target="_top" xlink:title="Implémentation de la classe UnitTestAppender.">
<polygon fill="white" stroke="black" points="353.58,-62 353.58,-81 524.58,-81 524.58,-62 353.58,-62"/>
<text text-anchor="middle" x="439.08" y="-69" font-family="Helvetica,sans-Serif" font-size="10.00">test/suite/UnitTestAppender.cpp</text>
</a>
</g>
</g>
<!-- Node6&#45;&gt;Node9 -->
<g id="edge8" class="edge">
<title>Node6&#45;&gt;Node9</title>
<path fill="none" stroke="midnightblue" d="M512.77,-122.92C493.99,-110.07 467.26,-91.78 451.69,-81.13"/>
<polygon fill="midnightblue" stroke="midnightblue" points="511.04,-125.98 521.27,-128.73 514.99,-120.2 511.04,-125.98"/>
</g>
<!-- Node6&#45;&gt;Node10 -->
<g id="edge9" class="edge">
<title>Node6&#45;&gt;Node10</title>
<path fill="none" stroke="midnightblue" d="M539.38,-118.93C543.25,-101.32 545.99,-74.82 534.08,-56 522.17,-37.19 500.04,-26.08 480.13,-19.62"/>
<polygon fill="midnightblue" stroke="midnightblue" points="535.93,-118.27 536.88,-128.82 542.72,-119.99 535.93,-118.27"/>
</g>
<!-- Node12&#45;&gt;Node7 -->
<g id="edge14" class="edge">
<title>Node12&#45;&gt;Node7</title>
<path fill="none" stroke="midnightblue" d="M862.9,-194.41C807.87,-185.63 738.16,-171.55 715.08,-154 690.25,-135.12 677.79,-98.05 673.2,-81.2"/>
<polygon fill="midnightblue" stroke="midnightblue" points="862.56,-197.9 872.99,-195.99 863.65,-190.99 862.56,-197.9"/>
</g>
<!-- Node12&#45;&gt;Node8 -->
<g id="edge15" class="edge">
<title>Node12&#45;&gt;Node8</title>
<path fill="none" stroke="midnightblue" d="M935.88,-185.66C934.83,-168.03 930.97,-141.69 918.08,-123 904.46,-103.26 880.37,-89.32 862.75,-81.15"/>
<polygon fill="midnightblue" stroke="midnightblue" points="932.38,-185.94 936.23,-195.81 939.38,-185.7 932.38,-185.94"/>
</g>
<!-- Node13 -->
<g id="node13" class="node">
<title>Node13</title>
<g id="a_node13"><a xlink:href="LoggerFactory_8cpp.html" target="_top" xlink:title="Implémentation de la classe LoggerFactory.">
<polygon fill="white" stroke="black" points="723.58,-129 723.58,-148 908.58,-148 908.58,-129 723.58,-129"/>
<text text-anchor="middle" x="816.08" y="-136" font-family="Helvetica,sans-Serif" font-size="10.00">src/common/log/LoggerFactory.cpp</text>
</a>
</g>
</g>
<!-- Node12&#45;&gt;Node13 -->
<g id="edge13" class="edge">
<title>Node12&#45;&gt;Node13</title>
<path fill="none" stroke="midnightblue" d="M911.08,-190.96C887.29,-178.07 852.21,-159.07 832.01,-148.13"/>
<polygon fill="midnightblue" stroke="midnightblue" points="909.44,-194.05 919.9,-195.73 912.77,-187.89 909.44,-194.05"/>
</g>
<!-- Node14 -->
<g id="node14" class="node">
<title>Node14</title>
<g id="a_node14"><a xlink:href="UnitTest_8hpp.html" target="_top" xlink:title="Définition de la classe DevUnitTest.">
<polygon fill="white" stroke="black" points="1071.08,-129 1071.08,-148 1197.08,-148 1197.08,-129 1071.08,-129"/>
<text text-anchor="middle" x="1134.08" y="-136" font-family="Helvetica,sans-Serif" font-size="10.00">test/suite/UnitTest.hpp</text>
</a>
</g>
</g>
<!-- Node12&#45;&gt;Node14 -->
<g id="edge16" class="edge">
<title>Node12&#45;&gt;Node14</title>
<path fill="none" stroke="midnightblue" d="M972.08,-192.68C1011.32,-179.8 1073.17,-159.5 1107.99,-148.06"/>
<polygon fill="midnightblue" stroke="midnightblue" points="970.78,-189.42 962.37,-195.87 972.97,-196.07 970.78,-189.42"/>
</g>
<!-- Node22 -->
<g id="node22" class="node">
<title>Node22</title>
<g id="a_node22"><a xlink:href="UnitTestSuite_8hpp.html" target="_top" xlink:title="Définition de la classe UnitTestSuite.">
<polygon fill="white" stroke="black" points="921.58,-62 921.58,-81 1072.58,-81 1072.58,-62 921.58,-62"/>
<text text-anchor="middle" x="997.08" y="-69" font-family="Helvetica,sans-Serif" font-size="10.00">test/suite/UnitTestSuite.hpp</text>
</a>
</g>
</g>
<!-- Node12&#45;&gt;Node22 -->
<g id="edge30" class="edge">
<title>Node12&#45;&gt;Node22</title>
<path fill="none" stroke="midnightblue" d="M944.38,-186.54C957.7,-157.72 983.34,-102.22 993.14,-81.02"/>
<polygon fill="midnightblue" stroke="midnightblue" points="941.1,-185.29 940.08,-195.84 947.45,-188.23 941.1,-185.29"/>
</g>
<!-- Node14&#45;&gt;Node8 -->
<g id="edge26" class="edge">
<title>Node14&#45;&gt;Node8</title>
<path fill="none" stroke="midnightblue" d="M1085.5,-126.72C1027.81,-113.92 932.74,-92.83 879.77,-81.08"/>
<polygon fill="midnightblue" stroke="midnightblue" points="1084.95,-130.19 1095.47,-128.94 1086.47,-123.35 1084.95,-130.19"/>
</g>
<!-- Node15 -->
<g id="node15" class="node">
<title>Node15</title>
<g id="a_node15"><a xlink:href="ChronometerTest_8hpp.html" target="_top" xlink:title="Définition de la classe ChronometerTest.">
<polygon fill="white" stroke="black" points="1091.08,-62 1091.08,-81 1279.08,-81 1279.08,-62 1091.08,-62"/>
<text text-anchor="middle" x="1185.08" y="-69" font-family="Helvetica,sans-Serif" font-size="10.00">test/common/ChronometerTest.hpp</text>
</a>
</g>
</g>
<!-- Node14&#45;&gt;Node15 -->
<g id="edge17" class="edge">
<title>Node14&#45;&gt;Node15</title>
<path fill="none" stroke="midnightblue" d="M1147.21,-120.77C1157.15,-108.1 1170.41,-91.2 1178.31,-81.13"/>
<polygon fill="midnightblue" stroke="midnightblue" points="1144.38,-118.71 1140.96,-128.73 1149.88,-123.03 1144.38,-118.71"/>
</g>
<!-- Node18 -->
<g id="node18" class="node">
<title>Node18</title>
<g id="a_node18"><a xlink:href="MutexTest_8hpp.html" target="_top" xlink:title="Définition de la classe MutexTest.">
<polygon fill="white" stroke="black" points="1473.58,-62 1473.58,-81 1628.58,-81 1628.58,-62 1473.58,-62"/>
<text text-anchor="middle" x="1551.08" y="-69" font-family="Helvetica,sans-Serif" font-size="10.00">test/common/MutexTest.hpp</text>
</a>
</g>
</g>
<!-- Node14&#45;&gt;Node18 -->
<g id="edge20" class="edge">
<title>Node14&#45;&gt;Node18</title>
<path fill="none" stroke="midnightblue" d="M1201.31,-127.48C1268.02,-117.47 1373.17,-101.53 1464.08,-87 1475.87,-85.11 1488.56,-83.03 1500.49,-81.05"/>
<polygon fill="midnightblue" stroke="midnightblue" points="1200.72,-124.03 1191.35,-128.97 1201.76,-130.95 1200.72,-124.03"/>
</g>
<!-- Node20 -->
<g id="node20" class="node">
<title>Node20</title>
<g id="a_node20"><a xlink:href="ThreadTest_8hpp.html" target="_top" xlink:title="Définition de la classe ThreadTest.">
<polygon fill="white" stroke="black" points="1297.08,-62 1297.08,-81 1455.08,-81 1455.08,-62 1297.08,-62"/>
<text text-anchor="middle" x="1376.08" y="-69" font-family="Helvetica,sans-Serif" font-size="10.00">test/common/ThreadTest.hpp</text>
</a>
</g>
</g>
<!-- Node14&#45;&gt;Node20 -->
<g id="edge23" class="edge">
<title>Node14&#45;&gt;Node20</title>
<path fill="none" stroke="midnightblue" d="M1175.69,-126.32C1223.48,-113.49 1300.83,-92.71 1344.12,-81.08"/>
<polygon fill="midnightblue" stroke="midnightblue" points="1174.72,-122.96 1165.97,-128.94 1176.53,-129.72 1174.72,-122.96"/>
</g>
<!-- Node14&#45;&gt;Node22 -->
<g id="edge27" class="edge">
<title>Node14&#45;&gt;Node22</title>
<path fill="none" stroke="midnightblue" d="M1106.56,-124.44C1079.43,-111.57 1038.72,-92.26 1015.35,-81.17"/>
<polygon fill="midnightblue" stroke="midnightblue" points="1105.35,-127.74 1115.89,-128.87 1108.35,-121.42 1105.35,-127.74"/>
</g>
<!-- Node16 -->
<g id="node16" class="node">
<title>Node16</title>
<g id="a_node16"><a xlink:href="ChronometerTest_8cpp.html" target="_top" xlink:title="Implémentation des tests de la classe utils::Chronometer.">
<polygon fill="white" stroke="black" points="945.08,-0.5 945.08,-19.5 1133.08,-19.5 1133.08,-0.5 945.08,-0.5"/>
<text text-anchor="middle" x="1039.08" y="-7.5" font-family="Helvetica,sans-Serif" font-size="10.00">test/common/ChronometerTest.cpp</text>
</a>
</g>
</g>
<!-- Node15&#45;&gt;Node16 -->
<g id="edge18" class="edge">
<title>Node15&#45;&gt;Node16</title>
<path fill="none" stroke="midnightblue" d="M1154.73,-58.13C1126.37,-46.57 1084.77,-29.62 1059.96,-19.51"/>
<polygon fill="midnightblue" stroke="midnightblue" points="1153.58,-61.44 1164.16,-61.98 1156.22,-54.96 1153.58,-61.44"/>
</g>
<!-- Node17 -->
<g id="node17" class="node">
<title>Node17</title>
<g id="a_node17"><a xlink:href="Main_8cpp.html" target="_top" xlink:title="Point d&#39;entrée des tests unitaires common.">
<polygon fill="white" stroke="black" points="1151.08,-0.5 1151.08,-19.5 1279.08,-19.5 1279.08,-0.5 1151.08,-0.5"/>
<text text-anchor="middle" x="1215.08" y="-7.5" font-family="Helvetica,sans-Serif" font-size="10.00">test/common/Main.cpp</text>
</a>
</g>
</g>
<!-- Node15&#45;&gt;Node17 -->
<g id="edge19" class="edge">
<title>Node15&#45;&gt;Node17</title>
<path fill="none" stroke="midnightblue" d="M1193.99,-52.83C1199.54,-41.83 1206.43,-28.16 1210.79,-19.51"/>
<polygon fill="midnightblue" stroke="midnightblue" points="1190.76,-51.47 1189.38,-61.98 1197.01,-54.62 1190.76,-51.47"/>
</g>
<!-- Node18&#45;&gt;Node17 -->
<g id="edge21" class="edge">
<title>Node18&#45;&gt;Node17</title>
<path fill="none" stroke="midnightblue" d="M1492.85,-60.19C1427.8,-48.67 1323.72,-30.24 1263.13,-19.51"/>
<polygon fill="midnightblue" stroke="midnightblue" points="1492.48,-63.68 1502.94,-61.98 1493.7,-56.78 1492.48,-63.68"/>
</g>
<!-- Node19 -->
<g id="node19" class="node">
<title>Node19</title>
<g id="a_node19"><a xlink:href="MutexTest_8cpp.html" target="_top" xlink:title="Implémentation des tests de la classe utils::Mutex.">
<polygon fill="white" stroke="black" points="1473.58,-0.5 1473.58,-19.5 1628.58,-19.5 1628.58,-0.5 1473.58,-0.5"/>
<text text-anchor="middle" x="1551.08" y="-7.5" font-family="Helvetica,sans-Serif" font-size="10.00">test/common/MutexTest.cpp</text>
</a>
</g>
</g>
<!-- Node18&#45;&gt;Node19 -->
<g id="edge22" class="edge">
<title>Node18&#45;&gt;Node19</title>
<path fill="none" stroke="midnightblue" d="M1551.08,-51.82C1551.08,-41 1551.08,-27.9 1551.08,-19.51"/>
<polygon fill="midnightblue" stroke="midnightblue" points="1547.58,-51.98 1551.08,-61.98 1554.58,-51.98 1547.58,-51.98"/>
</g>
<!-- Node20&#45;&gt;Node17 -->
<g id="edge24" class="edge">
<title>Node20&#45;&gt;Node17</title>
<path fill="none" stroke="midnightblue" d="M1343.43,-58.43C1312.14,-46.87 1265.7,-29.71 1238.1,-19.51"/>
<polygon fill="midnightblue" stroke="midnightblue" points="1342.42,-61.79 1353.01,-61.98 1344.85,-55.23 1342.42,-61.79"/>
</g>
<!-- Node21 -->
<g id="node21" class="node">
<title>Node21</title>
<g id="a_node21"><a xlink:href="ThreadTest_8cpp.html" target="_top" xlink:title="Implémentation des tests de la classe utils::Thread.">
<polygon fill="white" stroke="black" points="1297.08,-0.5 1297.08,-19.5 1455.08,-19.5 1455.08,-0.5 1297.08,-0.5"/>
<text text-anchor="middle" x="1376.08" y="-7.5" font-family="Helvetica,sans-Serif" font-size="10.00">test/common/ThreadTest.cpp</text>
</a>
</g>
</g>
<!-- Node20&#45;&gt;Node21 -->
<g id="edge25" class="edge">
<title>Node20&#45;&gt;Node21</title>
<path fill="none" stroke="midnightblue" d="M1376.08,-51.82C1376.08,-41 1376.08,-27.9 1376.08,-19.51"/>
<polygon fill="midnightblue" stroke="midnightblue" points="1372.58,-51.98 1376.08,-61.98 1379.58,-51.98 1372.58,-51.98"/>
</g>
<!-- Node22&#45;&gt;Node10 -->
<g id="edge29" class="edge">
<title>Node22&#45;&gt;Node10</title>
<path fill="none" stroke="midnightblue" d="M941.33,-60.26C931.92,-58.71 922.24,-57.22 913.08,-56 772.77,-37.26 608.07,-23.45 514.4,-16.37"/>
<polygon fill="midnightblue" stroke="midnightblue" points="940.96,-63.75 951.4,-61.96 942.12,-56.85 940.96,-63.75"/>
</g>
<!-- Node22&#45;&gt;Node17 -->
<g id="edge28" class="edge">
<title>Node22&#45;&gt;Node17</title>
<path fill="none" stroke="midnightblue" d="M1038.03,-59.32C1080.38,-47.76 1145.57,-29.97 1183.9,-19.51"/>
<polygon fill="midnightblue" stroke="midnightblue" points="1037.04,-55.97 1028.31,-61.98 1038.88,-62.72 1037.04,-55.97"/>
</g>
</g>
</svg>
