<?xml version="1.0" encoding="UTF-8" standalone="no"?>
<!DOCTYPE svg PUBLIC "-//W3C//DTD SVG 1.1//EN"
 "http://www.w3.org/Graphics/SVG/1.1/DTD/svg11.dtd">
<!-- Generated by graphviz version 2.43.0 (0)
 -->
<!-- Title: src/common/log/LoggerFactory.cpp Pages: 1 -->
<svg width="518pt" height="252pt"
 viewBox="0.00 0.00 518.00 252.00" xmlns="http://www.w3.org/2000/svg" xmlns:xlink="http://www.w3.org/1999/xlink">
<g id="graph0" class="graph" transform="scale(1 1) rotate(0) translate(4 248)">
<title>src/common/log/LoggerFactory.cpp</title>
<polygon fill="white" stroke="transparent" points="-4,4 -4,-248 514,-248 514,4 -4,4"/>
<!-- Node1 -->
<g id="node1" class="node">
<title>Node1</title>
<g id="a_node1"><a xlink:title="Implémentation de la classe LoggerFactory.">
<polygon fill="#bfbfbf" stroke="black" points="146.5,-224.5 146.5,-243.5 331.5,-243.5 331.5,-224.5 146.5,-224.5"/>
<text text-anchor="middle" x="239" y="-231.5" font-family="Helvetica,sans-Serif" font-size="10.00">src/common/log/LoggerFactory.cpp</text>
</a>
</g>
</g>
<!-- Node2 -->
<g id="node2" class="node">
<title>Node2</title>
<g id="a_node2"><a xlink:href="LoggerFactory_8hpp.html" target="_top" xlink:title="Définition de la classe LoggerFactory.">
<polygon fill="white" stroke="black" points="89,-168.5 89,-187.5 193,-187.5 193,-168.5 89,-168.5"/>
<text text-anchor="middle" x="141" y="-175.5" font-family="Helvetica,sans-Serif" font-size="10.00">LoggerFactory.hpp</text>
</a>
</g>
</g>
<!-- Node1&#45;&gt;Node2 -->
<g id="edge1" class="edge">
<title>Node1&#45;&gt;Node2</title>
<path fill="none" stroke="midnightblue" d="M223.25,-224.32C207.68,-215.74 183.62,-202.49 165.54,-192.52"/>
<polygon fill="midnightblue" stroke="midnightblue" points="167.15,-189.42 156.71,-187.65 163.78,-195.55 167.15,-189.42"/>
</g>
<!-- Node12 -->
<g id="node12" class="node">
<title>Node12</title>
<g id="a_node12"><a xlink:href="Level_8hpp.html" target="_top" xlink:title="Définition de la classe Level.">
<polygon fill="white" stroke="black" points="0,-56.5 0,-75.5 64,-75.5 64,-56.5 0,-56.5"/>
<text text-anchor="middle" x="32" y="-63.5" font-family="Helvetica,sans-Serif" font-size="10.00">Level.hpp</text>
</a>
</g>
</g>
<!-- Node1&#45;&gt;Node12 -->
<g id="edge20" class="edge">
<title>Node1&#45;&gt;Node12</title>
<path fill="none" stroke="midnightblue" d="M171.49,-224.43C141.38,-218.08 106.75,-207.06 80,-188 55.3,-170.4 52.05,-160.24 41,-132 35.22,-117.23 33.07,-99.3 32.3,-86.02"/>
<polygon fill="midnightblue" stroke="midnightblue" points="35.79,-85.6 31.93,-75.74 28.79,-85.85 35.79,-85.6"/>
</g>
<!-- Node13 -->
<g id="node13" class="node">
<title>Node13</title>
<g id="a_node13"><a xlink:title=" ">
<polygon fill="white" stroke="#bfbfbf" points="211,-168.5 211,-187.5 267,-187.5 267,-168.5 211,-168.5"/>
<text text-anchor="middle" x="239" y="-175.5" font-family="Helvetica,sans-Serif" font-size="10.00">unistd.h</text>
</a>
</g>
</g>
<!-- Node1&#45;&gt;Node13 -->
<g id="edge17" class="edge">
<title>Node1&#45;&gt;Node13</title>
<path fill="none" stroke="midnightblue" d="M239,-224.08C239,-217.01 239,-206.86 239,-197.99"/>
<polygon fill="midnightblue" stroke="midnightblue" points="242.5,-197.75 239,-187.75 235.5,-197.75 242.5,-197.75"/>
</g>
<!-- Node14 -->
<g id="node14" class="node">
<title>Node14</title>
<g id="a_node14"><a xlink:title=" ">
<polygon fill="white" stroke="#bfbfbf" points="285,-168.5 285,-187.5 345,-187.5 345,-168.5 285,-168.5"/>
<text text-anchor="middle" x="315" y="-175.5" font-family="Helvetica,sans-Serif" font-size="10.00">iostream</text>
</a>
</g>
</g>
<!-- Node1&#45;&gt;Node14 -->
<g id="edge18" class="edge">
<title>Node1&#45;&gt;Node14</title>
<path fill="none" stroke="midnightblue" d="M251.21,-224.32C262.78,-216.11 280.38,-203.6 294.16,-193.81"/>
<polygon fill="midnightblue" stroke="midnightblue" points="296.44,-196.48 302.57,-187.83 292.39,-190.77 296.44,-196.48"/>
</g>
<!-- Node15 -->
<g id="node15" class="node">
<title>Node15</title>
<g id="a_node15"><a xlink:title=" ">
<polygon fill="white" stroke="#bfbfbf" points="363.5,-168.5 363.5,-187.5 408.5,-187.5 408.5,-168.5 363.5,-168.5"/>
<text text-anchor="middle" x="386" y="-175.5" font-family="Helvetica,sans-Serif" font-size="10.00">utility</text>
</a>
</g>
</g>
<!-- Node1&#45;&gt;Node15 -->
<g id="edge19" class="edge">
<title>Node1&#45;&gt;Node15</title>
<path fill="none" stroke="midnightblue" d="M262.29,-224.44C286.95,-215.39 326.05,-201.02 353.69,-190.87"/>
<polygon fill="midnightblue" stroke="midnightblue" points="355.12,-194.07 363.3,-187.34 352.71,-187.5 355.12,-194.07"/>
</g>
<!-- Node3 -->
<g id="node3" class="node">
<title>Node3</title>
<g id="a_node3"><a xlink:title=" ">
<polygon fill="white" stroke="#bfbfbf" points="50,-112.5 50,-131.5 88,-131.5 88,-112.5 50,-112.5"/>
<text text-anchor="middle" x="69" y="-119.5" font-family="Helvetica,sans-Serif" font-size="10.00">map</text>
</a>
</g>
</g>
<!-- Node2&#45;&gt;Node3 -->
<g id="edge2" class="edge">
<title>Node2&#45;&gt;Node3</title>
<path fill="none" stroke="midnightblue" d="M129.43,-168.32C118.58,-160.18 102.12,-147.84 89.12,-138.09"/>
<polygon fill="midnightblue" stroke="midnightblue" points="90.88,-135.03 80.78,-131.83 86.68,-140.63 90.88,-135.03"/>
</g>
<!-- Node4 -->
<g id="node4" class="node">
<title>Node4</title>
<g id="a_node4"><a xlink:title=" ">
<polygon fill="white" stroke="#bfbfbf" points="170,-0.5 170,-19.5 214,-19.5 214,-0.5 170,-0.5"/>
<text text-anchor="middle" x="192" y="-7.5" font-family="Helvetica,sans-Serif" font-size="10.00">string</text>
</a>
</g>
</g>
<!-- Node2&#45;&gt;Node4 -->
<g id="edge3" class="edge">
<title>Node2&#45;&gt;Node4</title>
<path fill="none" stroke="midnightblue" d="M153.56,-168.28C164.04,-160.21 178.29,-147.19 185,-132 199.83,-98.44 197.7,-54.45 194.84,-29.82"/>
<polygon fill="midnightblue" stroke="midnightblue" points="198.28,-29.14 193.49,-19.69 191.34,-30.07 198.28,-29.14"/>
</g>
<!-- Node5 -->
<g id="node5" class="node">
<title>Node5</title>
<g id="a_node5"><a xlink:href="Thread_8hpp.html" target="_top" xlink:title="Définition de la classe Thread.">
<polygon fill="white" stroke="black" points="289.5,-112.5 289.5,-131.5 404.5,-131.5 404.5,-112.5 289.5,-112.5"/>
<text text-anchor="middle" x="347" y="-119.5" font-family="Helvetica,sans-Serif" font-size="10.00">../thread/Thread.hpp</text>
</a>
</g>
</g>
<!-- Node2&#45;&gt;Node5 -->
<g id="edge4" class="edge">
<title>Node2&#45;&gt;Node5</title>
<path fill="none" stroke="midnightblue" d="M173.64,-168.44C209.05,-159.16 265.71,-144.31 304.55,-134.13"/>
<polygon fill="midnightblue" stroke="midnightblue" points="305.73,-137.44 314.51,-131.52 303.95,-130.67 305.73,-137.44"/>
</g>
<!-- Node10 -->
<g id="node10" class="node">
<title>Node10</title>
<g id="a_node10"><a xlink:href="Logger_8hpp.html" target="_top" xlink:title="Définition de la classe Logger.">
<polygon fill="white" stroke="black" points="106,-112.5 106,-131.5 176,-131.5 176,-112.5 106,-112.5"/>
<text text-anchor="middle" x="141" y="-119.5" font-family="Helvetica,sans-Serif" font-size="10.00">Logger.hpp</text>
</a>
</g>
</g>
<!-- Node2&#45;&gt;Node10 -->
<g id="edge11" class="edge">
<title>Node2&#45;&gt;Node10</title>
<path fill="none" stroke="midnightblue" d="M141,-168.08C141,-161.01 141,-150.86 141,-141.99"/>
<polygon fill="midnightblue" stroke="midnightblue" points="144.5,-141.75 141,-131.75 137.5,-141.75 144.5,-141.75"/>
</g>
<!-- Node5&#45;&gt;Node4 -->
<g id="edge6" class="edge">
<title>Node5&#45;&gt;Node4</title>
<path fill="none" stroke="midnightblue" d="M344.02,-112.16C338.94,-98.34 327.33,-71.58 309,-56 284.51,-35.19 249.35,-23.41 223.97,-17.18"/>
<polygon fill="midnightblue" stroke="midnightblue" points="224.63,-13.73 214.1,-14.9 223.06,-20.56 224.63,-13.73"/>
</g>
<!-- Node6 -->
<g id="node6" class="node">
<title>Node6</title>
<g id="a_node6"><a xlink:title=" ">
<polygon fill="white" stroke="#bfbfbf" points="246.5,-0.5 246.5,-19.5 309.5,-19.5 309.5,-0.5 246.5,-0.5"/>
<text text-anchor="middle" x="278" y="-7.5" font-family="Helvetica,sans-Serif" font-size="10.00">pthread.h</text>
</a>
</g>
</g>
<!-- Node5&#45;&gt;Node6 -->
<g id="edge5" class="edge">
<title>Node5&#45;&gt;Node6</title>
<path fill="none" stroke="midnightblue" d="M348.54,-112.33C350.42,-99.2 352.19,-73.9 342,-56 334.22,-42.32 320.37,-31.81 307.54,-24.39"/>
<polygon fill="midnightblue" stroke="midnightblue" points="308.94,-21.18 298.48,-19.54 305.64,-27.35 308.94,-21.18"/>
</g>
<!-- Node7 -->
<g id="node7" class="node">
<title>Node7</title>
<g id="a_node7"><a xlink:title=" ">
<polygon fill="white" stroke="#bfbfbf" points="394,-56.5 394,-75.5 442,-75.5 442,-56.5 394,-56.5"/>
<text text-anchor="middle" x="418" y="-63.5" font-family="Helvetica,sans-Serif" font-size="10.00">thread</text>
</a>
</g>
</g>
<!-- Node5&#45;&gt;Node7 -->
<g id="edge7" class="edge">
<title>Node5&#45;&gt;Node7</title>
<path fill="none" stroke="midnightblue" d="M358.41,-112.32C369.11,-104.18 385.34,-91.84 398.16,-82.09"/>
<polygon fill="midnightblue" stroke="midnightblue" points="400.54,-84.67 406.39,-75.83 396.31,-79.1 400.54,-84.67"/>
</g>
<!-- Node8 -->
<g id="node8" class="node">
<title>Node8</title>
<g id="a_node8"><a xlink:href="Mutex_8hpp.html" target="_top" xlink:title="Définition de la classe Mutex.">
<polygon fill="white" stroke="black" points="232,-56.5 232,-75.5 300,-75.5 300,-56.5 232,-56.5"/>
<text text-anchor="middle" x="266" y="-63.5" font-family="Helvetica,sans-Serif" font-size="10.00">Mutex.hpp</text>
</a>
</g>
</g>
<!-- Node5&#45;&gt;Node8 -->
<g id="edge8" class="edge">
<title>Node5&#45;&gt;Node8</title>
<path fill="none" stroke="midnightblue" d="M333.99,-112.32C321.47,-103.98 302.32,-91.21 287.53,-81.35"/>
<polygon fill="midnightblue" stroke="midnightblue" points="289.24,-78.29 278.98,-75.65 285.36,-84.11 289.24,-78.29"/>
</g>
<!-- Node9 -->
<g id="node9" class="node">
<title>Node9</title>
<g id="a_node9"><a xlink:title=" ">
<polygon fill="white" stroke="#bfbfbf" points="460,-56.5 460,-75.5 510,-75.5 510,-56.5 460,-56.5"/>
<text text-anchor="middle" x="485" y="-63.5" font-family="Helvetica,sans-Serif" font-size="10.00">chrono</text>
</a>
</g>
</g>
<!-- Node5&#45;&gt;Node9 -->
<g id="edge10" class="edge">
<title>Node5&#45;&gt;Node9</title>
<path fill="none" stroke="midnightblue" d="M368.87,-112.44C391.78,-103.48 427.98,-89.31 453.87,-79.18"/>
<polygon fill="midnightblue" stroke="midnightblue" points="455.2,-82.42 463.24,-75.52 452.65,-75.9 455.2,-82.42"/>
</g>
<!-- Node8&#45;&gt;Node6 -->
<g id="edge9" class="edge">
<title>Node8&#45;&gt;Node6</title>
<path fill="none" stroke="midnightblue" d="M267.98,-56.08C269.57,-48.93 271.86,-38.64 273.85,-29.69"/>
<polygon fill="midnightblue" stroke="midnightblue" points="277.3,-30.27 276.06,-19.75 270.47,-28.75 277.3,-30.27"/>
</g>
<!-- Node10&#45;&gt;Node4 -->
<g id="edge13" class="edge">
<title>Node10&#45;&gt;Node4</title>
<path fill="none" stroke="midnightblue" d="M145,-112.37C153.31,-94.46 172.56,-52.92 183.68,-28.95"/>
<polygon fill="midnightblue" stroke="midnightblue" points="186.99,-30.14 188.02,-19.59 180.64,-27.19 186.99,-30.14"/>
</g>
<!-- Node10&#45;&gt;Node8 -->
<g id="edge14" class="edge">
<title>Node10&#45;&gt;Node8</title>
<path fill="none" stroke="midnightblue" d="M160.81,-112.44C181.29,-103.6 213.48,-89.69 236.86,-79.59"/>
<polygon fill="midnightblue" stroke="midnightblue" points="238.49,-82.7 246.29,-75.52 235.72,-76.27 238.49,-82.7"/>
</g>
<!-- Node11 -->
<g id="node11" class="node">
<title>Node11</title>
<g id="a_node11"><a xlink:title=" ">
<polygon fill="white" stroke="#bfbfbf" points="82,-56.5 82,-75.5 138,-75.5 138,-56.5 82,-56.5"/>
<text text-anchor="middle" x="110" y="-63.5" font-family="Helvetica,sans-Serif" font-size="10.00">sstream</text>
</a>
</g>
</g>
<!-- Node10&#45;&gt;Node11 -->
<g id="edge12" class="edge">
<title>Node10&#45;&gt;Node11</title>
<path fill="none" stroke="midnightblue" d="M135.88,-112.08C131.59,-104.61 125.34,-93.72 120.06,-84.52"/>
<polygon fill="midnightblue" stroke="midnightblue" points="123.04,-82.68 115.02,-75.75 116.97,-86.17 123.04,-82.68"/>
</g>
<!-- Node10&#45;&gt;Node12 -->
<g id="edge15" class="edge">
<title>Node10&#45;&gt;Node12</title>
<path fill="none" stroke="midnightblue" d="M123.49,-112.32C105.93,-103.62 78.67,-90.12 58.47,-80.11"/>
<polygon fill="midnightblue" stroke="midnightblue" points="59.98,-76.96 49.47,-75.65 56.88,-83.23 59.98,-76.96"/>
</g>
<!-- Node12&#45;&gt;Node4 -->
<g id="edge16" class="edge">
<title>Node12&#45;&gt;Node4</title>
<path fill="none" stroke="midnightblue" d="M57.35,-56.44C85.22,-47.04 130.03,-31.91 160.22,-21.72"/>
<polygon fill="midnightblue" stroke="midnightblue" points="161.5,-24.99 169.86,-18.47 159.26,-18.35 161.5,-24.99"/>
</g>
</g>
</svg>
