<?xml version="1.0" encoding="UTF-8" standalone="no"?>
<!DOCTYPE svg PUBLIC "-//W3C//DTD SVG 1.1//EN"
 "http://www.w3.org/Graphics/SVG/1.1/DTD/svg11.dtd">
<!-- Generated by graphviz version 2.43.0 (0)
 -->
<!-- Title: src/common/log/LoggerFactory.hpp Pages: 1 -->
<svg width="574pt" height="196pt"
 viewBox="0.00 0.00 574.00 196.00" xmlns="http://www.w3.org/2000/svg" xmlns:xlink="http://www.w3.org/1999/xlink">
<g id="graph0" class="graph" transform="scale(1 1) rotate(0) translate(4 192)">
<title>src/common/log/LoggerFactory.hpp</title>
<polygon fill="white" stroke="transparent" points="-4,4 -4,-192 570,-192 570,4 -4,4"/>
<!-- Node1 -->
<g id="node1" class="node">
<title>Node1</title>
<g id="a_node1"><a xlink:title="Définition de la classe LoggerFactory.">
<polygon fill="#bfbfbf" stroke="black" points="29.5,-168.5 29.5,-187.5 214.5,-187.5 214.5,-168.5 29.5,-168.5"/>
<text text-anchor="middle" x="122" y="-175.5" font-family="Helvetica,sans-Serif" font-size="10.00">src/common/log/LoggerFactory.hpp</text>
</a>
</g>
</g>
<!-- Node2 -->
<g id="node2" class="node">
<title>Node2</title>
<g id="a_node2"><a xlink:title=" ">
<polygon fill="white" stroke="#bfbfbf" points="0,-112.5 0,-131.5 38,-131.5 38,-112.5 0,-112.5"/>
<text text-anchor="middle" x="19" y="-119.5" font-family="Helvetica,sans-Serif" font-size="10.00">map</text>
</a>
</g>
</g>
<!-- Node1&#45;&gt;Node2 -->
<g id="edge1" class="edge">
<title>Node1&#45;&gt;Node2</title>
<path fill="none" stroke="midnightblue" d="M105.45,-168.32C89.01,-159.7 63.57,-146.36 44.53,-136.39"/>
<polygon fill="midnightblue" stroke="midnightblue" points="45.99,-133.2 35.51,-131.65 42.74,-139.4 45.99,-133.2"/>
</g>
<!-- Node3 -->
<g id="node3" class="node">
<title>Node3</title>
<g id="a_node3"><a xlink:title=" ">
<polygon fill="white" stroke="#bfbfbf" points="186,-0.5 186,-19.5 230,-19.5 230,-0.5 186,-0.5"/>
<text text-anchor="middle" x="208" y="-7.5" font-family="Helvetica,sans-Serif" font-size="10.00">string</text>
</a>
</g>
</g>
<!-- Node1&#45;&gt;Node3 -->
<g id="edge2" class="edge">
<title>Node1&#45;&gt;Node3</title>
<path fill="none" stroke="midnightblue" d="M114.61,-168.29C97.69,-147.22 59.45,-92.55 85,-56 105.3,-26.95 146.48,-16.59 175.58,-12.94"/>
<polygon fill="midnightblue" stroke="midnightblue" points="176.12,-16.4 185.7,-11.87 175.39,-9.44 176.12,-16.4"/>
</g>
<!-- Node4 -->
<g id="node4" class="node">
<title>Node4</title>
<g id="a_node4"><a xlink:href="Thread_8hpp.html" target="_top" xlink:title="Définition de la classe Thread.">
<polygon fill="white" stroke="black" points="345.5,-112.5 345.5,-131.5 460.5,-131.5 460.5,-112.5 345.5,-112.5"/>
<text text-anchor="middle" x="403" y="-119.5" font-family="Helvetica,sans-Serif" font-size="10.00">../thread/Thread.hpp</text>
</a>
</g>
</g>
<!-- Node1&#45;&gt;Node4 -->
<g id="edge3" class="edge">
<title>Node1&#45;&gt;Node4</title>
<path fill="none" stroke="midnightblue" d="M166.53,-168.44C215.96,-158.94 295.75,-143.61 348.78,-133.42"/>
<polygon fill="midnightblue" stroke="midnightblue" points="349.52,-136.84 358.68,-131.52 348.2,-129.97 349.52,-136.84"/>
</g>
<!-- Node9 -->
<g id="node9" class="node">
<title>Node9</title>
<g id="a_node9"><a xlink:href="Logger_8hpp.html" target="_top" xlink:title="Définition de la classe Logger.">
<polygon fill="white" stroke="black" points="143,-112.5 143,-131.5 213,-131.5 213,-112.5 143,-112.5"/>
<text text-anchor="middle" x="178" y="-119.5" font-family="Helvetica,sans-Serif" font-size="10.00">Logger.hpp</text>
</a>
</g>
</g>
<!-- Node1&#45;&gt;Node9 -->
<g id="edge10" class="edge">
<title>Node1&#45;&gt;Node9</title>
<path fill="none" stroke="midnightblue" d="M131,-168.32C139.19,-160.42 151.51,-148.55 161.47,-138.94"/>
<polygon fill="midnightblue" stroke="midnightblue" points="164.07,-141.29 168.84,-131.83 159.21,-136.26 164.07,-141.29"/>
</g>
<!-- Node4&#45;&gt;Node3 -->
<g id="edge5" class="edge">
<title>Node4&#45;&gt;Node3</title>
<path fill="none" stroke="midnightblue" d="M400.34,-112.42C395.56,-98.47 384.2,-70.92 365,-56 328.43,-27.59 274.62,-17.11 240.45,-13.25"/>
<polygon fill="midnightblue" stroke="midnightblue" points="240.39,-9.73 230.09,-12.22 239.7,-16.69 240.39,-9.73"/>
</g>
<!-- Node5 -->
<g id="node5" class="node">
<title>Node5</title>
<g id="a_node5"><a xlink:title=" ">
<polygon fill="white" stroke="#bfbfbf" points="340.5,-0.5 340.5,-19.5 403.5,-19.5 403.5,-0.5 340.5,-0.5"/>
<text text-anchor="middle" x="372" y="-7.5" font-family="Helvetica,sans-Serif" font-size="10.00">pthread.h</text>
</a>
</g>
</g>
<!-- Node4&#45;&gt;Node5 -->
<g id="edge4" class="edge">
<title>Node4&#45;&gt;Node5</title>
<path fill="none" stroke="midnightblue" d="M403.53,-112.36C404.05,-99.69 404.03,-75.46 398,-56 394.97,-46.21 389.51,-36.25 384.37,-28.2"/>
<polygon fill="midnightblue" stroke="midnightblue" points="387.16,-26.07 378.66,-19.75 381.36,-29.99 387.16,-26.07"/>
</g>
<!-- Node6 -->
<g id="node6" class="node">
<title>Node6</title>
<g id="a_node6"><a xlink:title=" ">
<polygon fill="white" stroke="#bfbfbf" points="450,-56.5 450,-75.5 498,-75.5 498,-56.5 450,-56.5"/>
<text text-anchor="middle" x="474" y="-63.5" font-family="Helvetica,sans-Serif" font-size="10.00">thread</text>
</a>
</g>
</g>
<!-- Node4&#45;&gt;Node6 -->
<g id="edge6" class="edge">
<title>Node4&#45;&gt;Node6</title>
<path fill="none" stroke="midnightblue" d="M414.41,-112.32C425.11,-104.18 441.34,-91.84 454.16,-82.09"/>
<polygon fill="midnightblue" stroke="midnightblue" points="456.54,-84.67 462.39,-75.83 452.31,-79.1 456.54,-84.67"/>
</g>
<!-- Node7 -->
<g id="node7" class="node">
<title>Node7</title>
<g id="a_node7"><a xlink:href="Mutex_8hpp.html" target="_top" xlink:title="Définition de la classe Mutex.">
<polygon fill="white" stroke="black" points="288,-56.5 288,-75.5 356,-75.5 356,-56.5 288,-56.5"/>
<text text-anchor="middle" x="322" y="-63.5" font-family="Helvetica,sans-Serif" font-size="10.00">Mutex.hpp</text>
</a>
</g>
</g>
<!-- Node4&#45;&gt;Node7 -->
<g id="edge7" class="edge">
<title>Node4&#45;&gt;Node7</title>
<path fill="none" stroke="midnightblue" d="M389.99,-112.32C377.47,-103.98 358.32,-91.21 343.53,-81.35"/>
<polygon fill="midnightblue" stroke="midnightblue" points="345.24,-78.29 334.98,-75.65 341.36,-84.11 345.24,-78.29"/>
</g>
<!-- Node8 -->
<g id="node8" class="node">
<title>Node8</title>
<g id="a_node8"><a xlink:title=" ">
<polygon fill="white" stroke="#bfbfbf" points="516,-56.5 516,-75.5 566,-75.5 566,-56.5 516,-56.5"/>
<text text-anchor="middle" x="541" y="-63.5" font-family="Helvetica,sans-Serif" font-size="10.00">chrono</text>
</a>
</g>
</g>
<!-- Node4&#45;&gt;Node8 -->
<g id="edge9" class="edge">
<title>Node4&#45;&gt;Node8</title>
<path fill="none" stroke="midnightblue" d="M424.87,-112.44C447.78,-103.48 483.98,-89.31 509.87,-79.18"/>
<polygon fill="midnightblue" stroke="midnightblue" points="511.2,-82.42 519.24,-75.52 508.65,-75.9 511.2,-82.42"/>
</g>
<!-- Node7&#45;&gt;Node5 -->
<g id="edge8" class="edge">
<title>Node7&#45;&gt;Node5</title>
<path fill="none" stroke="midnightblue" d="M330.26,-56.08C337.46,-48.3 348.11,-36.8 356.85,-27.37"/>
<polygon fill="midnightblue" stroke="midnightblue" points="359.67,-29.47 363.9,-19.75 354.53,-24.71 359.67,-29.47"/>
</g>
<!-- Node9&#45;&gt;Node3 -->
<g id="edge12" class="edge">
<title>Node9&#45;&gt;Node3</title>
<path fill="none" stroke="midnightblue" d="M180.35,-112.37C185.22,-94.54 196.46,-53.3 203.02,-29.27"/>
<polygon fill="midnightblue" stroke="midnightblue" points="206.4,-30.16 205.66,-19.59 199.65,-28.32 206.4,-30.16"/>
</g>
<!-- Node9&#45;&gt;Node7 -->
<g id="edge13" class="edge">
<title>Node9&#45;&gt;Node7</title>
<path fill="none" stroke="midnightblue" d="M200.82,-112.44C224.83,-103.44 262.83,-89.19 289.87,-79.05"/>
<polygon fill="midnightblue" stroke="midnightblue" points="291.16,-82.3 299.29,-75.52 288.7,-75.75 291.16,-82.3"/>
</g>
<!-- Node10 -->
<g id="node10" class="node">
<title>Node10</title>
<g id="a_node10"><a xlink:title=" ">
<polygon fill="white" stroke="#bfbfbf" points="94,-56.5 94,-75.5 150,-75.5 150,-56.5 94,-56.5"/>
<text text-anchor="middle" x="122" y="-63.5" font-family="Helvetica,sans-Serif" font-size="10.00">sstream</text>
</a>
</g>
</g>
<!-- Node9&#45;&gt;Node10 -->
<g id="edge11" class="edge">
<title>Node9&#45;&gt;Node10</title>
<path fill="none" stroke="midnightblue" d="M169,-112.32C160.81,-104.42 148.49,-92.55 138.53,-82.94"/>
<polygon fill="midnightblue" stroke="midnightblue" points="140.79,-80.26 131.16,-75.83 135.93,-85.29 140.79,-80.26"/>
</g>
<!-- Node11 -->
<g id="node11" class="node">
<title>Node11</title>
<g id="a_node11"><a xlink:href="Level_8hpp.html" target="_top" xlink:title="Définition de la classe Level.">
<polygon fill="white" stroke="black" points="206,-56.5 206,-75.5 270,-75.5 270,-56.5 206,-56.5"/>
<text text-anchor="middle" x="238" y="-63.5" font-family="Helvetica,sans-Serif" font-size="10.00">Level.hpp</text>
</a>
</g>
</g>
<!-- Node9&#45;&gt;Node11 -->
<g id="edge14" class="edge">
<title>Node9&#45;&gt;Node11</title>
<path fill="none" stroke="midnightblue" d="M187.64,-112.32C196.51,-104.34 209.87,-92.31 220.61,-82.65"/>
<polygon fill="midnightblue" stroke="midnightblue" points="223.09,-85.13 228.18,-75.83 218.41,-79.92 223.09,-85.13"/>
</g>
<!-- Node11&#45;&gt;Node3 -->
<g id="edge15" class="edge">
<title>Node11&#45;&gt;Node3</title>
<path fill="none" stroke="midnightblue" d="M233.05,-56.08C228.9,-48.61 222.85,-37.72 217.73,-28.52"/>
<polygon fill="midnightblue" stroke="midnightblue" points="220.78,-26.79 212.86,-19.75 214.66,-30.19 220.78,-26.79"/>
</g>
</g>
</svg>
