<?xml version="1.0" encoding="UTF-8" standalone="no"?>
<!DOCTYPE svg PUBLIC "-//W3C//DTD SVG 1.1//EN"
 "http://www.w3.org/Graphics/SVG/1.1/DTD/svg11.dtd">
<!-- Generated by graphviz version 2.43.0 (0)
 -->
<!-- Title: src/common/log/LoggerFactory.hpp Pages: 1 -->
<svg width="636pt" height="196pt"
 viewBox="0.00 0.00 636.00 196.00" xmlns="http://www.w3.org/2000/svg" xmlns:xlink="http://www.w3.org/1999/xlink">
<g id="graph0" class="graph" transform="scale(1 1) rotate(0) translate(4 192)">
<title>src/common/log/LoggerFactory.hpp</title>
<polygon fill="white" stroke="transparent" points="-4,4 -4,-192 632,-192 632,4 -4,4"/>
<!-- Node1 -->
<g id="node1" class="node">
<title>Node1</title>
<g id="a_node1"><a xlink:title="Définition de la classe LoggerFactory.">
<polygon fill="#bfbfbf" stroke="black" points="20.5,-168.5 20.5,-187.5 205.5,-187.5 205.5,-168.5 20.5,-168.5"/>
<text text-anchor="middle" x="113" y="-175.5" font-family="Helvetica,sans-Serif" font-size="10.00">src/common/log/LoggerFactory.hpp</text>
</a>
</g>
</g>
<!-- Node2 -->
<g id="node2" class="node">
<title>Node2</title>
<g id="a_node2"><a xlink:title=" ">
<polygon fill="white" stroke="#bfbfbf" points="0,-112.5 0,-131.5 38,-131.5 38,-112.5 0,-112.5"/>
<text text-anchor="middle" x="19" y="-119.5" font-family="Helvetica,sans-Serif" font-size="10.00">map</text>
</a>
</g>
</g>
<!-- Node1&#45;&gt;Node2 -->
<g id="edge1" class="edge">
<title>Node1&#45;&gt;Node2</title>
<path fill="none" stroke="midnightblue" d="M97.9,-168.32C83.1,-159.82 60.31,-146.73 43.02,-136.8"/>
<polygon fill="midnightblue" stroke="midnightblue" points="44.48,-133.6 34.07,-131.65 40.99,-139.67 44.48,-133.6"/>
</g>
<!-- Node3 -->
<g id="node3" class="node">
<title>Node3</title>
<g id="a_node3"><a xlink:title=" ">
<polygon fill="white" stroke="#bfbfbf" points="149,-0.5 149,-19.5 193,-19.5 193,-0.5 149,-0.5"/>
<text text-anchor="middle" x="171" y="-7.5" font-family="Helvetica,sans-Serif" font-size="10.00">string</text>
</a>
</g>
</g>
<!-- Node1&#45;&gt;Node3 -->
<g id="edge2" class="edge">
<title>Node1&#45;&gt;Node3</title>
<path fill="none" stroke="midnightblue" d="M110.97,-168.21C106.65,-147.43 98.36,-94.15 117,-56 123.26,-43.2 135.04,-32.71 146.01,-25.09"/>
<polygon fill="midnightblue" stroke="midnightblue" points="148.01,-27.97 154.51,-19.61 144.21,-22.09 148.01,-27.97"/>
</g>
<!-- Node4 -->
<g id="node4" class="node">
<title>Node4</title>
<g id="a_node4"><a xlink:href="Thread_8hpp.html" target="_top" xlink:title="Définition de la classe Thread.">
<polygon fill="white" stroke="black" points="364.5,-112.5 364.5,-131.5 479.5,-131.5 479.5,-112.5 364.5,-112.5"/>
<text text-anchor="middle" x="422" y="-119.5" font-family="Helvetica,sans-Serif" font-size="10.00">../thread/Thread.hpp</text>
</a>
</g>
</g>
<!-- Node1&#45;&gt;Node4 -->
<g id="edge3" class="edge">
<title>Node1&#45;&gt;Node4</title>
<path fill="none" stroke="midnightblue" d="M161.96,-168.44C216.54,-158.9 304.79,-143.48 363.1,-133.29"/>
<polygon fill="midnightblue" stroke="midnightblue" points="364.02,-136.69 373.27,-131.52 362.81,-129.79 364.02,-136.69"/>
</g>
<!-- Node10 -->
<g id="node10" class="node">
<title>Node10</title>
<g id="a_node10"><a xlink:href="Logger_8hpp.html" target="_top" xlink:title="Définition de la classe Logger.">
<polygon fill="white" stroke="black" points="125,-112.5 125,-131.5 195,-131.5 195,-112.5 125,-112.5"/>
<text text-anchor="middle" x="160" y="-119.5" font-family="Helvetica,sans-Serif" font-size="10.00">Logger.hpp</text>
</a>
</g>
</g>
<!-- Node1&#45;&gt;Node10 -->
<g id="edge11" class="edge">
<title>Node1&#45;&gt;Node10</title>
<path fill="none" stroke="midnightblue" d="M120.76,-168.08C127.54,-160.3 137.54,-148.8 145.76,-139.37"/>
<polygon fill="midnightblue" stroke="midnightblue" points="148.46,-141.59 152.38,-131.75 143.18,-137 148.46,-141.59"/>
</g>
<!-- Node4&#45;&gt;Node3 -->
<g id="edge5" class="edge">
<title>Node4&#45;&gt;Node3</title>
<path fill="none" stroke="midnightblue" d="M416.92,-112.29C408.19,-98.15 388.95,-70.34 365,-56 313.94,-25.43 243.84,-15.63 203.39,-12.48"/>
<polygon fill="midnightblue" stroke="midnightblue" points="203.51,-8.98 193.29,-11.79 203.03,-15.97 203.51,-8.98"/>
</g>
<!-- Node5 -->
<g id="node5" class="node">
<title>Node5</title>
<g id="a_node5"><a xlink:title=" ">
<polygon fill="white" stroke="#bfbfbf" points="340.5,-0.5 340.5,-19.5 403.5,-19.5 403.5,-0.5 340.5,-0.5"/>
<text text-anchor="middle" x="372" y="-7.5" font-family="Helvetica,sans-Serif" font-size="10.00">pthread.h</text>
</a>
</g>
</g>
<!-- Node4&#45;&gt;Node5 -->
<g id="edge4" class="edge">
<title>Node4&#45;&gt;Node5</title>
<path fill="none" stroke="midnightblue" d="M419.34,-112.4C415.33,-99.77 407.2,-75.6 398,-56 393.59,-46.61 387.9,-36.57 382.96,-28.37"/>
<polygon fill="midnightblue" stroke="midnightblue" points="385.86,-26.4 377.64,-19.72 379.9,-30.08 385.86,-26.4"/>
</g>
<!-- Node6 -->
<g id="node6" class="node">
<title>Node6</title>
<g id="a_node6"><a xlink:title=" ">
<polygon fill="white" stroke="#bfbfbf" points="450,-56.5 450,-75.5 498,-75.5 498,-56.5 450,-56.5"/>
<text text-anchor="middle" x="474" y="-63.5" font-family="Helvetica,sans-Serif" font-size="10.00">thread</text>
</a>
</g>
</g>
<!-- Node4&#45;&gt;Node6 -->
<g id="edge6" class="edge">
<title>Node4&#45;&gt;Node6</title>
<path fill="none" stroke="midnightblue" d="M430.59,-112.08C438.16,-104.22 449.38,-92.57 458.51,-83.08"/>
<polygon fill="midnightblue" stroke="midnightblue" points="461.16,-85.38 465.57,-75.75 456.12,-80.53 461.16,-85.38"/>
</g>
<!-- Node7 -->
<g id="node7" class="node">
<title>Node7</title>
<g id="a_node7"><a xlink:title=" ">
<polygon fill="white" stroke="#bfbfbf" points="516,-56.5 516,-75.5 560,-75.5 560,-56.5 516,-56.5"/>
<text text-anchor="middle" x="538" y="-63.5" font-family="Helvetica,sans-Serif" font-size="10.00">ctime</text>
</a>
</g>
</g>
<!-- Node4&#45;&gt;Node7 -->
<g id="edge7" class="edge">
<title>Node4&#45;&gt;Node7</title>
<path fill="none" stroke="midnightblue" d="M440.38,-112.44C459.22,-103.68 488.73,-89.94 510.38,-79.86"/>
<polygon fill="midnightblue" stroke="midnightblue" points="512.12,-82.91 519.71,-75.52 509.16,-76.56 512.12,-82.91"/>
</g>
<!-- Node8 -->
<g id="node8" class="node">
<title>Node8</title>
<g id="a_node8"><a xlink:href="Mutex_8hpp.html" target="_top" xlink:title="Définition de la classe Mutex.">
<polygon fill="white" stroke="black" points="288,-56.5 288,-75.5 356,-75.5 356,-56.5 288,-56.5"/>
<text text-anchor="middle" x="322" y="-63.5" font-family="Helvetica,sans-Serif" font-size="10.00">Mutex.hpp</text>
</a>
</g>
</g>
<!-- Node4&#45;&gt;Node8 -->
<g id="edge8" class="edge">
<title>Node4&#45;&gt;Node8</title>
<path fill="none" stroke="midnightblue" d="M405.93,-112.32C390.04,-103.74 365.49,-90.49 347.04,-80.52"/>
<polygon fill="midnightblue" stroke="midnightblue" points="348.49,-77.33 338.03,-75.65 345.16,-83.49 348.49,-77.33"/>
</g>
<!-- Node9 -->
<g id="node9" class="node">
<title>Node9</title>
<g id="a_node9"><a xlink:title=" ">
<polygon fill="white" stroke="#bfbfbf" points="578,-56.5 578,-75.5 628,-75.5 628,-56.5 578,-56.5"/>
<text text-anchor="middle" x="603" y="-63.5" font-family="Helvetica,sans-Serif" font-size="10.00">chrono</text>
</a>
</g>
</g>
<!-- Node4&#45;&gt;Node9 -->
<g id="edge10" class="edge">
<title>Node4&#45;&gt;Node9</title>
<path fill="none" stroke="midnightblue" d="M450.68,-112.44C482.48,-102.96 533.78,-87.65 567.94,-77.46"/>
<polygon fill="midnightblue" stroke="midnightblue" points="569.37,-80.69 577.95,-74.47 567.37,-73.98 569.37,-80.69"/>
</g>
<!-- Node8&#45;&gt;Node5 -->
<g id="edge9" class="edge">
<title>Node8&#45;&gt;Node5</title>
<path fill="none" stroke="midnightblue" d="M330.26,-56.08C337.46,-48.3 348.11,-36.8 356.85,-27.37"/>
<polygon fill="midnightblue" stroke="midnightblue" points="359.67,-29.47 363.9,-19.75 354.53,-24.71 359.67,-29.47"/>
</g>
<!-- Node10&#45;&gt;Node3 -->
<g id="edge13" class="edge">
<title>Node10&#45;&gt;Node3</title>
<path fill="none" stroke="midnightblue" d="M149.23,-112.48C135.29,-100.35 113.81,-77.21 123,-56 128.27,-43.84 138.62,-33.46 148.36,-25.74"/>
<polygon fill="midnightblue" stroke="midnightblue" points="150.64,-28.41 156.63,-19.67 146.5,-22.77 150.64,-28.41"/>
</g>
<!-- Node10&#45;&gt;Node8 -->
<g id="edge14" class="edge">
<title>Node10&#45;&gt;Node8</title>
<path fill="none" stroke="midnightblue" d="M185.67,-112.44C212.92,-103.36 256.18,-88.94 286.65,-78.78"/>
<polygon fill="midnightblue" stroke="midnightblue" points="288.07,-82 296.45,-75.52 285.86,-75.36 288.07,-82"/>
</g>
<!-- Node11 -->
<g id="node11" class="node">
<title>Node11</title>
<g id="a_node11"><a xlink:title=" ">
<polygon fill="white" stroke="#bfbfbf" points="132,-56.5 132,-75.5 188,-75.5 188,-56.5 132,-56.5"/>
<text text-anchor="middle" x="160" y="-63.5" font-family="Helvetica,sans-Serif" font-size="10.00">sstream</text>
</a>
</g>
</g>
<!-- Node10&#45;&gt;Node11 -->
<g id="edge12" class="edge">
<title>Node10&#45;&gt;Node11</title>
<path fill="none" stroke="midnightblue" d="M160,-112.08C160,-105.01 160,-94.86 160,-85.99"/>
<polygon fill="midnightblue" stroke="midnightblue" points="163.5,-85.75 160,-75.75 156.5,-85.75 163.5,-85.75"/>
</g>
<!-- Node12 -->
<g id="node12" class="node">
<title>Node12</title>
<g id="a_node12"><a xlink:href="Level_8hpp.html" target="_top" xlink:title="Définition de la classe Level.">
<polygon fill="white" stroke="black" points="206,-56.5 206,-75.5 270,-75.5 270,-56.5 206,-56.5"/>
<text text-anchor="middle" x="238" y="-63.5" font-family="Helvetica,sans-Serif" font-size="10.00">Level.hpp</text>
</a>
</g>
</g>
<!-- Node10&#45;&gt;Node12 -->
<g id="edge15" class="edge">
<title>Node10&#45;&gt;Node12</title>
<path fill="none" stroke="midnightblue" d="M172.53,-112.32C184.59,-103.98 203.03,-91.21 217.27,-81.35"/>
<polygon fill="midnightblue" stroke="midnightblue" points="219.27,-84.22 225.5,-75.65 215.28,-78.47 219.27,-84.22"/>
</g>
<!-- Node12&#45;&gt;Node3 -->
<g id="edge16" class="edge">
<title>Node12&#45;&gt;Node3</title>
<path fill="none" stroke="midnightblue" d="M227.24,-56.32C217.23,-48.26 202.11,-36.08 190.07,-26.37"/>
<polygon fill="midnightblue" stroke="midnightblue" points="191.94,-23.38 181.96,-19.83 187.55,-28.83 191.94,-23.38"/>
</g>
</g>
</svg>
