<?xml version="1.0" encoding="UTF-8" standalone="no"?>
<!DOCTYPE svg PUBLIC "-//W3C//DTD SVG 1.1//EN"
 "http://www.w3.org/Graphics/SVG/1.1/DTD/svg11.dtd">
<!-- Generated by graphviz version 2.43.0 (0)
 -->
<!-- Title: src/common/log/appender/MemoryAppender.hpp Pages: 1 -->
<!--zoomable 173 -->
<svg id="main" version="1.1" xmlns="http://www.w3.org/2000/svg" xmlns:xlink="http://www.w3.org/1999/xlink" xml:space="preserve" onload="init(evt)">
<style type="text/css"><![CDATA[
.edge:hover path { stroke: red; }
.edge:hover polygon { stroke: red; fill: red; }
]]></style>
<script type="text/javascript"><![CDATA[
var edges = document.getElementsByTagName('g');
if (edges && edges.length) {
  for (var i=0;i<edges.length;i++) {
    if (edges[i].id.substr(0,4)=='edge') {
      edges[i].setAttribute('class','edge');
    }
  }
}
]]></script>
        <defs>
                <circle id="rim" cx="0" cy="0" r="7"/>
                <circle id="rim2" cx="0" cy="0" r="3.5"/>
                <g id="zoomPlus">
                        <use xlink:href="#rim" fill="#404040">
                                <set attributeName="fill" to="#808080" begin="zoomplus.mouseover" end="zoomplus.mouseout"/>
                        </use>
                        <path d="M-4,0h8M0,-4v8" fill="none" stroke="white" stroke-width="1.5" pointer-events="none"/>
                </g>
                <g id="zoomMin">
                        <use xlink:href="#rim" fill="#404040">
                                <set attributeName="fill" to="#808080" begin="zoomminus.mouseover" end="zoomminus.mouseout"/>
                        </use>
                        <path d="M-4,0h8" fill="none" stroke="white" stroke-width="1.5" pointer-events="none"/>
                </g>
                <g id="dirArrow">
                        <path fill="none" stroke="white" stroke-width="1.5" d="M0,-3.0v7 M-2.5,-0.5L0,-3.0L2.5,-0.5"/>
                </g>
               <g id="resetDef">
                       <use xlink:href="#rim2" fill="#404040">
                               <set attributeName="fill" to="#808080" begin="reset.mouseover" end="reset.mouseout"/>
                       </use>
               </g>
        </defs>

<script type="text/javascript">
var viewWidth = 849;
var viewHeight = 173;
var sectionId = 'dynsection-1';
</script>
<script xlink:href="svgpan.js"/>
<svg id="graph" class="graph">
<g id="viewport">
<title>src/common/log/appender/MemoryAppender.hpp</title>
<polygon fill="white" stroke="transparent" points="-4,4 -4,-169 844.5,-169 844.5,4 -4,4"/>
<!-- Node1 -->
<g id="node1" class="node">
<title>Node1</title>
<g id="a_node1"><a xlink:title="Définition de la classe MemoryAppender.">
<polygon fill="#bfbfbf" stroke="black" points="319,-134.5 319,-164.5 462,-164.5 462,-134.5 319,-134.5"/>
<text text-anchor="start" x="327" y="-152.5" font-family="Helvetica,sans-Serif" font-size="10.00">src/common/log/appender</text>
<text text-anchor="middle" x="390.5" y="-141.5" font-family="Helvetica,sans-Serif" font-size="10.00">/MemoryAppender.hpp</text>
</a>
</g>
</g>
<!-- Node2 -->
<g id="node2" class="node">
<title>Node2</title>
<g id="a_node2"><a xlink:href="ConsoleAppender_8hpp.html" target="_top" xlink:title="Définition de la classe ConsoleAppender.">
<polygon fill="white" stroke="black" points="64,-67.5 64,-97.5 207,-97.5 207,-67.5 64,-67.5"/>
<text text-anchor="start" x="72" y="-85.5" font-family="Helvetica,sans-Serif" font-size="10.00">src/common/log/appender</text>
<text text-anchor="middle" x="135.5" y="-74.5" font-family="Helvetica,sans-Serif" font-size="10.00">/ConsoleAppender.hpp</text>
</a>
</g>
</g>
<!-- Node1&#45;&gt;Node2 -->
<g id="edge1" class="edge">
<title>Node1&#45;&gt;Node2</title>
<path fill="none" stroke="midnightblue" d="M325.71,-131.98C284.06,-121.37 230.52,-107.72 190.86,-97.61"/>
<polygon fill="midnightblue" stroke="midnightblue" points="324.93,-135.4 335.48,-134.48 326.66,-128.61 324.93,-135.4"/>
</g>
<!-- Node4 -->
<g id="node4" class="node">
<title>Node4</title>
<g id="a_node4"><a xlink:href="MemoryAppender_8cpp.html" target="_top" xlink:title="Implementation de la classe MemoryAppender.">
<polygon fill="white" stroke="black" points="231,-67.5 231,-97.5 374,-97.5 374,-67.5 231,-67.5"/>
<text text-anchor="start" x="239" y="-85.5" font-family="Helvetica,sans-Serif" font-size="10.00">src/common/log/appender</text>
<text text-anchor="middle" x="302.5" y="-74.5" font-family="Helvetica,sans-Serif" font-size="10.00">/MemoryAppender.cpp</text>
</a>
</g>
</g>
<!-- Node1&#45;&gt;Node4 -->
<g id="edge3" class="edge">
<title>Node1&#45;&gt;Node4</title>
<path fill="none" stroke="midnightblue" d="M363.36,-128.45C349.82,-118.45 333.77,-106.6 321.56,-97.58"/>
<polygon fill="midnightblue" stroke="midnightblue" points="361.28,-131.27 371.41,-134.4 365.44,-125.64 361.28,-131.27"/>
</g>
<!-- Node5 -->
<g id="node5" class="node">
<title>Node5</title>
<g id="a_node5"><a xlink:href="UnitTestAppender_8hpp.html" target="_top" xlink:title="Définition de la classe UnitTestAppender utilisant le memory Appender.">
<polygon fill="white" stroke="black" points="392.5,-73 392.5,-92 564.5,-92 564.5,-73 392.5,-73"/>
<text text-anchor="middle" x="478.5" y="-80" font-family="Helvetica,sans-Serif" font-size="10.00">test/suite/UnitTestAppender.hpp</text>
</a>
</g>
</g>
<!-- Node1&#45;&gt;Node5 -->
<g id="edge4" class="edge">
<title>Node1&#45;&gt;Node5</title>
<path fill="none" stroke="midnightblue" d="M417.84,-128.31C434.36,-116.1 454.57,-101.18 466.98,-92.01"/>
<polygon fill="midnightblue" stroke="midnightblue" points="415.56,-125.64 409.59,-134.4 419.72,-131.27 415.56,-125.64"/>
</g>
<!-- Node9 -->
<g id="node9" class="node">
<title>Node9</title>
<g id="a_node9"><a xlink:href="UnitTestSuite_8cpp.html" target="_top" xlink:title="Implementation de la classe UnitTestSuite.">
<polygon fill="white" stroke="black" points="690.5,-6 690.5,-25 840.5,-25 840.5,-6 690.5,-6"/>
<text text-anchor="middle" x="765.5" y="-13" font-family="Helvetica,sans-Serif" font-size="10.00">test/suite/UnitTestSuite.cpp</text>
</a>
</g>
</g>
<!-- Node1&#45;&gt;Node9 -->
<g id="edge9" class="edge">
<title>Node1&#45;&gt;Node9</title>
<path fill="none" stroke="midnightblue" d="M459.22,-131.84C493.83,-122.86 536.25,-110.98 573.5,-98 638.98,-75.18 713.94,-40.89 747.55,-25.07"/>
<polygon fill="midnightblue" stroke="midnightblue" points="458.02,-128.53 449.21,-134.41 459.77,-135.31 458.02,-128.53"/>
</g>
<!-- Node3 -->
<g id="node3" class="node">
<title>Node3</title>
<g id="a_node3"><a xlink:href="ConsoleAppender_8cpp.html" target="_top" xlink:title="Implémentation de la classe ConsoleAppender.">
<polygon fill="white" stroke="black" points="0,-0.5 0,-30.5 143,-30.5 143,-0.5 0,-0.5"/>
<text text-anchor="start" x="8" y="-18.5" font-family="Helvetica,sans-Serif" font-size="10.00">src/common/log/appender</text>
<text text-anchor="middle" x="71.5" y="-7.5" font-family="Helvetica,sans-Serif" font-size="10.00">/ConsoleAppender.cpp</text>
</a>
</g>
</g>
<!-- Node2&#45;&gt;Node3 -->
<g id="edge2" class="edge">
<title>Node2&#45;&gt;Node3</title>
<path fill="none" stroke="midnightblue" d="M114.35,-60.02C104.82,-50.34 93.83,-39.17 85.36,-30.58"/>
<polygon fill="midnightblue" stroke="midnightblue" points="112.1,-62.73 121.61,-67.4 117.09,-57.81 112.1,-62.73"/>
</g>
<!-- Node6 -->
<g id="node6" class="node">
<title>Node6</title>
<g id="a_node6"><a xlink:href="LoggerInitialize_8cpp.html" target="_top" xlink:title="Initialisation du système de Log pour les tests unitaires.">
<polygon fill="white" stroke="black" points="161,-6 161,-25 340,-25 340,-6 161,-6"/>
<text text-anchor="middle" x="250.5" y="-13" font-family="Helvetica,sans-Serif" font-size="10.00">test/common/LoggerInitialize.cpp</text>
</a>
</g>
</g>
<!-- Node5&#45;&gt;Node6 -->
<g id="edge5" class="edge">
<title>Node5&#45;&gt;Node6</title>
<path fill="none" stroke="midnightblue" d="M438.48,-70.09C393.38,-57.23 321.07,-36.62 280.54,-25.06"/>
<polygon fill="midnightblue" stroke="midnightblue" points="437.65,-73.49 448.22,-72.87 439.57,-66.76 437.65,-73.49"/>
</g>
<!-- Node7 -->
<g id="node7" class="node">
<title>Node7</title>
<g id="a_node7"><a xlink:href="UnitTest_8cpp.html" target="_top" xlink:title="Implémentation de la classe DevUnitTest.">
<polygon fill="white" stroke="black" points="358,-6 358,-25 483,-25 483,-6 358,-6"/>
<text text-anchor="middle" x="420.5" y="-13" font-family="Helvetica,sans-Serif" font-size="10.00">test/suite/UnitTest.cpp</text>
</a>
</g>
</g>
<!-- Node5&#45;&gt;Node7 -->
<g id="edge6" class="edge">
<title>Node5&#45;&gt;Node7</title>
<path fill="none" stroke="midnightblue" d="M463.9,-65.13C452.55,-52.42 437.27,-35.3 428.2,-25.13"/>
<polygon fill="midnightblue" stroke="midnightblue" points="461.41,-67.6 470.68,-72.73 466.63,-62.94 461.41,-67.6"/>
</g>
<!-- Node8 -->
<g id="node8" class="node">
<title>Node8</title>
<g id="a_node8"><a xlink:href="UnitTestAppender_8cpp.html" target="_top" xlink:title="Implémentation de la classe UnitTestAppender.">
<polygon fill="white" stroke="black" points="501,-6 501,-25 672,-25 672,-6 501,-6"/>
<text text-anchor="middle" x="586.5" y="-13" font-family="Helvetica,sans-Serif" font-size="10.00">test/suite/UnitTestAppender.cpp</text>
</a>
</g>
</g>
<!-- Node5&#45;&gt;Node8 -->
<g id="edge7" class="edge">
<title>Node5&#45;&gt;Node8</title>
<path fill="none" stroke="midnightblue" d="M501.86,-67.44C523.25,-54.57 554.22,-35.93 572.17,-25.13"/>
<polygon fill="midnightblue" stroke="midnightblue" points="499.83,-64.58 493.07,-72.73 503.44,-70.58 499.83,-64.58"/>
</g>
<!-- Node5&#45;&gt;Node9 -->
<g id="edge8" class="edge">
<title>Node5&#45;&gt;Node9</title>
<path fill="none" stroke="midnightblue" d="M526.08,-70.72C582.6,-57.92 675.72,-36.83 727.6,-25.08"/>
<polygon fill="midnightblue" stroke="midnightblue" points="525.3,-67.31 516.32,-72.94 526.84,-74.14 525.3,-67.31"/>
</g>
</g>
</svg>
        <g id="navigator" transform="translate(0 0)" fill="#404254">
                <rect fill="#f2f5e9" fill-opacity="0.5" stroke="#606060" stroke-width=".5" x="0" y="0" width="60" height="60"/>
                <use id="zoomplus" xlink:href="#zoomPlus" x="17" y="9" onmousedown="handleZoom(evt,'in')"/>
                <use id="zoomminus" xlink:href="#zoomMin" x="42" y="9" onmousedown="handleZoom(evt,'out')"/>
                <use id="reset" xlink:href="#resetDef" x="30" y="36" onmousedown="handleReset()"/>
                <g id="arrowUp" xlink:href="#dirArrow" transform="translate(30 24)" onmousedown="handlePan(0,-1)">
                  <use xlink:href="#rim" fill="#404040">
                        <set attributeName="fill" to="#808080" begin="arrowUp.mouseover" end="arrowUp.mouseout"/>
                  </use>
                  <path fill="none" stroke="white" stroke-width="1.5" d="M0,-3.0v7 M-2.5,-0.5L0,-3.0L2.5,-0.5"/>
                </g>
                <g id="arrowRight" xlink:href="#dirArrow" transform="rotate(90) translate(36 -43)" onmousedown="handlePan(1,0)">
                  <use xlink:href="#rim" fill="#404040">
                        <set attributeName="fill" to="#808080" begin="arrowRight.mouseover" end="arrowRight.mouseout"/>
                  </use>
                  <path fill="none" stroke="white" stroke-width="1.5" d="M0,-3.0v7 M-2.5,-0.5L0,-3.0L2.5,-0.5"/>
                </g>
                <g id="arrowDown" xlink:href="#dirArrow" transform="rotate(180) translate(-30 -48)" onmousedown="handlePan(0,1)">
                  <use xlink:href="#rim" fill="#404040">
                        <set attributeName="fill" to="#808080" begin="arrowDown.mouseover" end="arrowDown.mouseout"/>
                  </use>
                  <path fill="none" stroke="white" stroke-width="1.5" d="M0,-3.0v7 M-2.5,-0.5L0,-3.0L2.5,-0.5"/>
                </g>
                <g id="arrowLeft" xlink:href="#dirArrow" transform="rotate(270) translate(-36 17)" onmousedown="handlePan(-1,0)">
                  <use xlink:href="#rim" fill="#404040">
                        <set attributeName="fill" to="#808080" begin="arrowLeft.mouseover" end="arrowLeft.mouseout"/>
                  </use>
                  <path fill="none" stroke="white" stroke-width="1.5" d="M0,-3.0v7 M-2.5,-0.5L0,-3.0L2.5,-0.5"/>
                </g>
        </g>
        <svg viewBox="0 0 15 15" width="100%" height="30px" preserveAspectRatio="xMaxYMin meet">
         <g id="arrow_out" transform="scale(0.3 0.3)">
          <a xlink:href="MemoryAppender_8hpp__dep__incl_org.svg" target="_base">
           <rect id="button" ry="5" rx="5" y="6" x="6" height="38" width="38"
                fill="#f2f5e9" fill-opacity="0.5" stroke="#606060" stroke-width="1.0"/>
           <path id="arrow"
             d="M 11.500037,31.436501 C 11.940474,20.09759 22.043105,11.32322 32.158766,21.979434 L 37.068811,17.246167 C 37.068811,17.246167 37.088388,32 37.088388,32 L 22.160133,31.978069 C 22.160133,31.978069 26.997745,27.140456 26.997745,27.140456 C 18.528582,18.264221 13.291696,25.230495 11.500037,31.436501 z"
             style="fill:#404040;"/>
          </a>
         </g>
        </svg>
</svg>
