<?xml version="1.0" encoding="UTF-8" standalone="no"?>
<!DOCTYPE svg PUBLIC "-//W3C//DTD SVG 1.1//EN"
 "http://www.w3.org/Graphics/SVG/1.1/DTD/svg11.dtd">
<!-- Generated by graphviz version 2.43.0 (0)
 -->
<!-- Title: detail::escape Pages: 1 -->
<svg width="243pt" height="66pt"
 viewBox="0.00 0.00 243.00 66.00" xmlns="http://www.w3.org/2000/svg" xmlns:xlink="http://www.w3.org/1999/xlink">
<g id="graph0" class="graph" transform="scale(1 1) rotate(0) translate(4 62)">
<title>detail::escape</title>
<polygon fill="white" stroke="transparent" points="-4,4 -4,-62 239,-62 239,4 -4,4"/>
<!-- Node1 -->
<g id="node1" class="node">
<title>Node1</title>
<g id="a_node1"><a xlink:title="string escaping as described in RFC 6901 (Sect. 4)">
<polygon fill="#bfbfbf" stroke="black" points="150,-19.5 150,-38.5 235,-38.5 235,-19.5 150,-19.5"/>
<text text-anchor="middle" x="192.5" y="-26.5" font-family="Helvetica,sans-Serif" font-size="10.00">detail::escape</text>
</a>
</g>
</g>
<!-- Node2 -->
<g id="node2" class="node">
<title>Node2</title>
<g id="a_node2"><a xlink:href="classbasic__json.html#aff2204c04cd35b2cef35f44b2b93ffc7" target="_top" xlink:title="creates a diff as a JSON patch">
<polygon fill="white" stroke="black" points="12.5,-38.5 12.5,-57.5 101.5,-57.5 101.5,-38.5 12.5,-38.5"/>
<text text-anchor="middle" x="57" y="-45.5" font-family="Helvetica,sans-Serif" font-size="10.00">basic_json::diff</text>
</a>
</g>
</g>
<!-- Node1&#45;&gt;Node2 -->
<g id="edge1" class="edge">
<title>Node1&#45;&gt;Node2</title>
<path fill="none" stroke="midnightblue" d="M140.06,-36.32C127.43,-38.12 114.03,-40.03 101.79,-41.77"/>
<polygon fill="midnightblue" stroke="midnightblue" points="140.58,-39.78 149.99,-34.91 139.6,-32.85 140.58,-39.78"/>
</g>
<!-- Node3 -->
<g id="node3" class="node">
<title>Node3</title>
<g id="a_node3"><a xlink:href="classjson__pointer.html#a89528f614c6b3c387d71abfee814be50" target="_top" xlink:title=" ">
<polygon fill="white" stroke="black" points="0,-0.5 0,-19.5 114,-19.5 114,-0.5 0,-0.5"/>
<text text-anchor="middle" x="57" y="-7.5" font-family="Helvetica,sans-Serif" font-size="10.00">json_pointer::flatten</text>
</a>
</g>
</g>
<!-- Node1&#45;&gt;Node3 -->
<g id="edge2" class="edge">
<title>Node1&#45;&gt;Node3</title>
<path fill="none" stroke="midnightblue" d="M139.92,-21.66C131.5,-20.46 122.73,-19.21 114.2,-18"/>
<polygon fill="midnightblue" stroke="midnightblue" points="139.6,-25.15 149.99,-23.09 140.58,-18.22 139.6,-25.15"/>
</g>
</g>
</svg>
