<?xml version="1.0" encoding="UTF-8" standalone="no"?>
<!DOCTYPE svg PUBLIC "-//W3C//DTD SVG 1.1//EN"
 "http://www.w3.org/Graphics/SVG/1.1/DTD/svg11.dtd">
<!-- Generated by graphviz version 2.43.0 (0)
 -->
<!-- Title: utils::sleep_for_secs Pages: 1 -->
<!--zoomable 127 -->
<svg id="main" version="1.1" xmlns="http://www.w3.org/2000/svg" xmlns:xlink="http://www.w3.org/1999/xlink" xml:space="preserve" onload="init(evt)">
<style type="text/css"><![CDATA[
.edge:hover path { stroke: red; }
.edge:hover polygon { stroke: red; fill: red; }
]]></style>
<script type="text/javascript"><![CDATA[
var edges = document.getElementsByTagName('g');
if (edges && edges.length) {
  for (var i=0;i<edges.length;i++) {
    if (edges[i].id.substr(0,4)=='edge') {
      edges[i].setAttribute('class','edge');
    }
  }
}
]]></script>
        <defs>
                <circle id="rim" cx="0" cy="0" r="7"/>
                <circle id="rim2" cx="0" cy="0" r="3.5"/>
                <g id="zoomPlus">
                        <use xlink:href="#rim" fill="#404040">
                                <set attributeName="fill" to="#808080" begin="zoomplus.mouseover" end="zoomplus.mouseout"/>
                        </use>
                        <path d="M-4,0h8M0,-4v8" fill="none" stroke="white" stroke-width="1.5" pointer-events="none"/>
                </g>
                <g id="zoomMin">
                        <use xlink:href="#rim" fill="#404040">
                                <set attributeName="fill" to="#808080" begin="zoomminus.mouseover" end="zoomminus.mouseout"/>
                        </use>
                        <path d="M-4,0h8" fill="none" stroke="white" stroke-width="1.5" pointer-events="none"/>
                </g>
                <g id="dirArrow">
                        <path fill="none" stroke="white" stroke-width="1.5" d="M0,-3.0v7 M-2.5,-0.5L0,-3.0L2.5,-0.5"/>
                </g>
               <g id="resetDef">
                       <use xlink:href="#rim2" fill="#404040">
                               <set attributeName="fill" to="#808080" begin="reset.mouseover" end="reset.mouseout"/>
                       </use>
               </g>
        </defs>

<script type="text/javascript">
var viewWidth = 701;
var viewHeight = 127;
var sectionId = 'dynsection-2';
</script>
<script xlink:href="svgpan.js"/>
<svg id="graph" class="graph">
<g id="viewport">
<title>utils::sleep_for_secs</title>
<polygon fill="white" stroke="transparent" points="-4,4 -4,-123 697,-123 697,4 -4,4"/>
<!-- Node1 -->
<g id="node1" class="node">
<title>Node1</title>
<g id="a_node1"><a xlink:title="Met en pause le thread courant pendant sec secondes.">
<polygon fill="#bfbfbf" stroke="black" points="577,-50 577,-69 693,-69 693,-50 577,-50"/>
<text text-anchor="middle" x="635" y="-57" font-family="Helvetica,sans-Serif" font-size="10.00">utils::sleep_for_secs</text>
</a>
</g>
</g>
<!-- Node2 -->
<g id="node2" class="node">
<title>Node2</title>
<g id="a_node2"><a xlink:href="classtest_1_1SleepyThread.html#a9e9c78f1091dc91b903252cdd56aa0c4" target="_top" xlink:title="Méthode virtuelle pure à implémenter dans les sous&#45;classes.">
<polygon fill="white" stroke="black" points="411.5,-88.5 411.5,-118.5 519.5,-118.5 519.5,-88.5 411.5,-88.5"/>
<text text-anchor="start" x="419.5" y="-106.5" font-family="Helvetica,sans-Serif" font-size="10.00">test::SleepyThread</text>
<text text-anchor="middle" x="465.5" y="-95.5" font-family="Helvetica,sans-Serif" font-size="10.00">::execute</text>
</a>
</g>
</g>
<!-- Node1&#45;&gt;Node2 -->
<g id="edge1" class="edge">
<title>Node1&#45;&gt;Node2</title>
<path fill="none" stroke="midnightblue" d="M587.94,-71.6C566.79,-77.16 541.58,-83.78 519.63,-89.54"/>
<polygon fill="midnightblue" stroke="midnightblue" points="588.87,-74.97 597.65,-69.05 587.09,-68.2 588.87,-74.97"/>
</g>
<!-- Node3 -->
<g id="node3" class="node">
<title>Node3</title>
<g id="a_node3"><a xlink:href="O__State__DecisionMakerIA_8cpp.html#a6af4b40e5e676265dd688e0004be0ff6" target="_top" xlink:title="Action de fin de match : rejoint la zone de fin en haut de table.">
<polygon fill="white" stroke="black" points="406,-50 406,-69 525,-69 525,-50 406,-50"/>
<text text-anchor="middle" x="465.5" y="-57" font-family="Helvetica,sans-Serif" font-size="10.00">O_end_of_match_top</text>
</a>
</g>
</g>
<!-- Node1&#45;&gt;Node3 -->
<g id="edge2" class="edge">
<title>Node1&#45;&gt;Node3</title>
<path fill="none" stroke="midnightblue" d="M566.49,-59.5C552.79,-59.5 538.49,-59.5 525.13,-59.5"/>
<polygon fill="midnightblue" stroke="midnightblue" points="566.82,-63 576.82,-59.5 566.82,-56 566.82,-63"/>
</g>
<!-- Node7 -->
<g id="node7" class="node">
<title>Node7</title>
<g id="a_node7"><a xlink:href="classtest_1_1TimerPosixStandaloneBench.html#a71eaba7b9c9cf2dc0384bced04b641f4" target="_top" xlink:title=" ">
<polygon fill="white" stroke="black" points="390,-0.5 390,-30.5 541,-30.5 541,-0.5 390,-0.5"/>
<text text-anchor="start" x="398" y="-18.5" font-family="Helvetica,sans-Serif" font-size="10.00">test::TimerPosixStandalone</text>
<text text-anchor="middle" x="465.5" y="-7.5" font-family="Helvetica,sans-Serif" font-size="10.00">Bench::test</text>
</a>
</g>
</g>
<!-- Node1&#45;&gt;Node7 -->
<g id="edge7" class="edge">
<title>Node1&#45;&gt;Node7</title>
<path fill="none" stroke="midnightblue" d="M587.95,-47.4C568.14,-42.2 544.77,-36.06 523.85,-30.57"/>
<polygon fill="midnightblue" stroke="midnightblue" points="587.09,-50.8 597.65,-49.95 588.87,-44.03 587.09,-50.8"/>
</g>
<!-- Node4 -->
<g id="node4" class="node">
<title>Node4</title>
<g id="a_node4"><a xlink:href="classO__State__DecisionMakerIA.html#a9b35f6bac1a5602ec2a711fa280be4a6" target="_top" xlink:title="Configure les activités pour les zones de jeu du match.">
<polygon fill="white" stroke="black" points="195,-69.5 195,-99.5 337,-99.5 337,-69.5 195,-69.5"/>
<text text-anchor="start" x="203" y="-87.5" font-family="Helvetica,sans-Serif" font-size="10.00">O_State_DecisionMakerIA</text>
<text text-anchor="middle" x="266" y="-76.5" font-family="Helvetica,sans-Serif" font-size="10.00">::IASetupActivitiesZone</text>
</a>
</g>
</g>
<!-- Node3&#45;&gt;Node4 -->
<g id="edge3" class="edge">
<title>Node3&#45;&gt;Node4</title>
<path fill="none" stroke="midnightblue" d="M395.76,-68.2C376.86,-70.59 356.34,-73.19 337.35,-75.6"/>
<polygon fill="midnightblue" stroke="midnightblue" points="396.3,-71.66 405.78,-66.93 395.42,-64.72 396.3,-71.66"/>
</g>
<!-- Node6 -->
<g id="node6" class="node">
<title>Node6</title>
<g id="a_node6"><a xlink:href="classO__State__DecisionMakerIA.html#a8bd1c4d72bec8768c7c7c15bd2e665d8" target="_top" xlink:title="Configure les activités pour le mode test de la table.">
<polygon fill="white" stroke="black" points="178,-20.5 178,-50.5 354,-50.5 354,-20.5 178,-20.5"/>
<text text-anchor="start" x="186" y="-38.5" font-family="Helvetica,sans-Serif" font-size="10.00">O_State_DecisionMakerIA</text>
<text text-anchor="middle" x="266" y="-27.5" font-family="Helvetica,sans-Serif" font-size="10.00">::IASetupActivitiesZoneTableTest</text>
</a>
</g>
</g>
<!-- Node3&#45;&gt;Node6 -->
<g id="edge5" class="edge">
<title>Node3&#45;&gt;Node6</title>
<path fill="none" stroke="midnightblue" d="M395.67,-51.14C382.23,-49.5 367.96,-47.77 354.01,-46.07"/>
<polygon fill="midnightblue" stroke="midnightblue" points="395.43,-54.63 405.78,-52.36 396.27,-47.68 395.43,-54.63"/>
</g>
<!-- Node5 -->
<g id="node5" class="node">
<title>Node5</title>
<g id="a_node5"><a xlink:href="classO__State__DecisionMakerIA.html#a96d1f2a7618d607fd10cc51b9111e653" target="_top" xlink:title="Execute l&#39;action.">
<polygon fill="white" stroke="black" points="0,-44.5 0,-74.5 142,-74.5 142,-44.5 0,-44.5"/>
<text text-anchor="start" x="8" y="-62.5" font-family="Helvetica,sans-Serif" font-size="10.00">O_State_DecisionMakerIA</text>
<text text-anchor="middle" x="71" y="-51.5" font-family="Helvetica,sans-Serif" font-size="10.00">::execute</text>
</a>
</g>
</g>
<!-- Node4&#45;&gt;Node5 -->
<g id="edge4" class="edge">
<title>Node4&#45;&gt;Node5</title>
<path fill="none" stroke="midnightblue" d="M184.62,-74.09C170.52,-72.26 155.96,-70.38 142.17,-68.59"/>
<polygon fill="midnightblue" stroke="midnightblue" points="184.41,-77.59 194.78,-75.4 185.31,-70.65 184.41,-77.59"/>
</g>
<!-- Node6&#45;&gt;Node5 -->
<g id="edge6" class="edge">
<title>Node6&#45;&gt;Node5</title>
<path fill="none" stroke="midnightblue" d="M167.67,-47.6C159.02,-48.68 150.38,-49.75 142.02,-50.79"/>
<polygon fill="midnightblue" stroke="midnightblue" points="168.33,-51.05 177.82,-46.34 167.46,-44.1 168.33,-51.05"/>
</g>
</g>
</svg>
        <g id="navigator" transform="translate(0 0)" fill="#404254">
                <rect fill="#f2f5e9" fill-opacity="0.5" stroke="#606060" stroke-width=".5" x="0" y="0" width="60" height="60"/>
                <use id="zoomplus" xlink:href="#zoomPlus" x="17" y="9" onmousedown="handleZoom(evt,'in')"/>
                <use id="zoomminus" xlink:href="#zoomMin" x="42" y="9" onmousedown="handleZoom(evt,'out')"/>
                <use id="reset" xlink:href="#resetDef" x="30" y="36" onmousedown="handleReset()"/>
                <g id="arrowUp" xlink:href="#dirArrow" transform="translate(30 24)" onmousedown="handlePan(0,-1)">
                  <use xlink:href="#rim" fill="#404040">
                        <set attributeName="fill" to="#808080" begin="arrowUp.mouseover" end="arrowUp.mouseout"/>
                  </use>
                  <path fill="none" stroke="white" stroke-width="1.5" d="M0,-3.0v7 M-2.5,-0.5L0,-3.0L2.5,-0.5"/>
                </g>
                <g id="arrowRight" xlink:href="#dirArrow" transform="rotate(90) translate(36 -43)" onmousedown="handlePan(1,0)">
                  <use xlink:href="#rim" fill="#404040">
                        <set attributeName="fill" to="#808080" begin="arrowRight.mouseover" end="arrowRight.mouseout"/>
                  </use>
                  <path fill="none" stroke="white" stroke-width="1.5" d="M0,-3.0v7 M-2.5,-0.5L0,-3.0L2.5,-0.5"/>
                </g>
                <g id="arrowDown" xlink:href="#dirArrow" transform="rotate(180) translate(-30 -48)" onmousedown="handlePan(0,1)">
                  <use xlink:href="#rim" fill="#404040">
                        <set attributeName="fill" to="#808080" begin="arrowDown.mouseover" end="arrowDown.mouseout"/>
                  </use>
                  <path fill="none" stroke="white" stroke-width="1.5" d="M0,-3.0v7 M-2.5,-0.5L0,-3.0L2.5,-0.5"/>
                </g>
                <g id="arrowLeft" xlink:href="#dirArrow" transform="rotate(270) translate(-36 17)" onmousedown="handlePan(-1,0)">
                  <use xlink:href="#rim" fill="#404040">
                        <set attributeName="fill" to="#808080" begin="arrowLeft.mouseover" end="arrowLeft.mouseout"/>
                  </use>
                  <path fill="none" stroke="white" stroke-width="1.5" d="M0,-3.0v7 M-2.5,-0.5L0,-3.0L2.5,-0.5"/>
                </g>
        </g>
        <svg viewBox="0 0 15 15" width="100%" height="30px" preserveAspectRatio="xMaxYMin meet">
         <g id="arrow_out" transform="scale(0.3 0.3)">
          <a xlink:href="namespaceutils_a94517b51f04480fb5c8c082d04283fa0_icgraph_org.svg" target="_base">
           <rect id="button" ry="5" rx="5" y="6" x="6" height="38" width="38"
                fill="#f2f5e9" fill-opacity="0.5" stroke="#606060" stroke-width="1.0"/>
           <path id="arrow"
             d="M 11.500037,31.436501 C 11.940474,20.09759 22.043105,11.32322 32.158766,21.979434 L 37.068811,17.246167 C 37.068811,17.246167 37.088388,32 37.088388,32 L 22.160133,31.978069 C 22.160133,31.978069 26.997745,27.140456 26.997745,27.140456 C 18.528582,18.264221 13.291696,25.230495 11.500037,31.436501 z"
             style="fill:#404040;"/>
          </a>
         </g>
        </svg>
</svg>
