<?xml version="1.0" encoding="UTF-8" standalone="no"?>
<!DOCTYPE svg PUBLIC "-//W3C//DTD SVG 1.1//EN"
 "http://www.w3.org/Graphics/SVG/1.1/DTD/svg11.dtd">
<!-- Generated by graphviz version 2.43.0 (0)
 -->
<!-- Title: utils::set_realtime_priority Pages: 1 -->
<svg width="436pt" height="88pt"
 viewBox="0.00 0.00 436.00 88.00" xmlns="http://www.w3.org/2000/svg" xmlns:xlink="http://www.w3.org/1999/xlink">
<g id="graph0" class="graph" transform="scale(1 1) rotate(0) translate(4 84)">
<title>utils::set_realtime_priority</title>
<polygon fill="white" stroke="transparent" points="-4,4 -4,-84 432,-84 432,4 -4,4"/>
<!-- Node1 -->
<g id="node1" class="node">
<title>Node1</title>
<g id="a_node1"><a xlink:title="Définit la priorité temps&#45;réel (SCHED_FIFO) du thread spécifié.">
<polygon fill="#bfbfbf" stroke="black" points="323,-36 323,-66 428,-66 428,-36 323,-36"/>
<text text-anchor="start" x="331" y="-54" font-family="Helvetica,sans-Serif" font-size="10.00">utils::set_realtime</text>
<text text-anchor="middle" x="375.5" y="-43" font-family="Helvetica,sans-Serif" font-size="10.00">_priority</text>
</a>
</g>
</g>
<!-- Node2 -->
<g id="node2" class="node">
<title>Node2</title>
<g id="a_node2"><a xlink:href="Main_8cpp.html#a3c04138a5bfe5d72780bb7e82a18e627" target="_top" xlink:title=" ">
<polygon fill="white" stroke="black" points="213.5,-60.5 213.5,-79.5 254.5,-79.5 254.5,-60.5 213.5,-60.5"/>
<text text-anchor="middle" x="234" y="-67.5" font-family="Helvetica,sans-Serif" font-size="10.00">main</text>
</a>
</g>
</g>
<!-- Node1&#45;&gt;Node2 -->
<g id="edge1" class="edge">
<title>Node1&#45;&gt;Node2</title>
<path fill="none" stroke="midnightblue" d="M312.79,-59.41C291.85,-62.26 269.94,-65.24 254.72,-67.31"/>
<polygon fill="midnightblue" stroke="midnightblue" points="313.52,-62.84 322.95,-58.02 312.57,-55.9 313.52,-62.84"/>
</g>
<!-- Node3 -->
<g id="node3" class="node">
<title>Node3</title>
<g id="a_node3"><a xlink:href="classutils_1_1Thread.html#a430ee2b8962147b587157fac97932219" target="_top" xlink:title="Lance le thread.">
<polygon fill="white" stroke="black" points="181,-22.5 181,-41.5 287,-41.5 287,-22.5 181,-22.5"/>
<text text-anchor="middle" x="234" y="-29.5" font-family="Helvetica,sans-Serif" font-size="10.00">utils::Thread::start</text>
</a>
</g>
</g>
<!-- Node1&#45;&gt;Node3 -->
<g id="edge2" class="edge">
<title>Node1&#45;&gt;Node3</title>
<path fill="none" stroke="midnightblue" d="M312.99,-42.62C304.41,-41.45 295.66,-40.26 287.27,-39.12"/>
<polygon fill="midnightblue" stroke="midnightblue" points="312.57,-46.1 322.95,-43.98 313.52,-39.16 312.57,-46.1"/>
</g>
<!-- Node4 -->
<g id="node4" class="node">
<title>Node4</title>
<g id="a_node4"><a xlink:href="classtest_1_1ThreadTest.html#ab50f7c14a8011c9e19f2631835bbbe46" target="_top" xlink:title="Vérifie le démarrage, l&#39;exécution et l&#39;attente de fin d&#39;un thread.">
<polygon fill="white" stroke="black" points="1,-39 1,-69 144,-69 144,-39 1,-39"/>
<text text-anchor="start" x="9" y="-57" font-family="Helvetica,sans-Serif" font-size="10.00">test::ThreadTest::testStart</text>
<text text-anchor="middle" x="72.5" y="-46" font-family="Helvetica,sans-Serif" font-size="10.00">AndWait</text>
</a>
</g>
</g>
<!-- Node3&#45;&gt;Node4 -->
<g id="edge3" class="edge">
<title>Node3&#45;&gt;Node4</title>
<path fill="none" stroke="midnightblue" d="M170.7,-40.59C161.98,-41.8 152.96,-43.04 144.1,-44.26"/>
<polygon fill="midnightblue" stroke="midnightblue" points="171.35,-44.04 180.77,-39.2 170.39,-37.1 171.35,-44.04"/>
</g>
<!-- Node5 -->
<g id="node5" class="node">
<title>Node5</title>
<g id="a_node5"><a xlink:href="classtest_1_1ThreadTest.html#a6c8d29fa04a545a3c602c220804e8fb5" target="_top" xlink:title="Vérifie les transitions d&#39;état CREATED → STARTED → STOPPED.">
<polygon fill="white" stroke="black" points="0,-0.5 0,-19.5 145,-19.5 145,-0.5 0,-0.5"/>
<text text-anchor="middle" x="72.5" y="-7.5" font-family="Helvetica,sans-Serif" font-size="10.00">test::ThreadTest::testState</text>
</a>
</g>
</g>
<!-- Node3&#45;&gt;Node5 -->
<g id="edge4" class="edge">
<title>Node3&#45;&gt;Node5</title>
<path fill="none" stroke="midnightblue" d="M170.82,-23.42C161.49,-22.14 151.83,-20.8 142.38,-19.5"/>
<polygon fill="midnightblue" stroke="midnightblue" points="170.39,-26.9 180.77,-24.8 171.35,-19.96 170.39,-26.9"/>
</g>
</g>
</svg>
