<?xml version="1.0" encoding="UTF-8" standalone="no"?>
<!DOCTYPE svg PUBLIC "-//W3C//DTD SVG 1.1//EN"
 "http://www.w3.org/Graphics/SVG/1.1/DTD/svg11.dtd">
<!-- Generated by graphviz version 2.43.0 (0)
 -->
<!-- Title: detail::combine Pages: 1 -->
<svg width="391pt" height="50pt"
 viewBox="0.00 0.00 391.00 50.00" xmlns="http://www.w3.org/2000/svg" xmlns:xlink="http://www.w3.org/1999/xlink">
<g id="graph0" class="graph" transform="scale(1 1) rotate(0) translate(4 46)">
<title>detail::combine</title>
<polygon fill="white" stroke="transparent" points="-4,4 -4,-46 387,-46 387,4 -4,4"/>
<!-- Node1 -->
<g id="node1" class="node">
<title>Node1</title>
<g id="a_node1"><a xlink:title=" ">
<polygon fill="#bfbfbf" stroke="black" points="291,-11.5 291,-30.5 383,-30.5 383,-11.5 291,-11.5"/>
<text text-anchor="middle" x="337" y="-18.5" font-family="Helvetica,sans-Serif" font-size="10.00">detail::combine</text>
</a>
</g>
</g>
<!-- Node2 -->
<g id="node2" class="node">
<title>Node2</title>
<g id="a_node2"><a xlink:href="namespacedetail.html#a9dd43d16a6a490b032ceaca358755a29" target="_top" xlink:title="hash a JSON value">
<polygon fill="white" stroke="black" points="181,-11.5 181,-30.5 255,-30.5 255,-11.5 181,-11.5"/>
<text text-anchor="middle" x="218" y="-18.5" font-family="Helvetica,sans-Serif" font-size="10.00">detail::hash</text>
</a>
</g>
</g>
<!-- Node1&#45;&gt;Node2 -->
<g id="edge1" class="edge">
<title>Node1&#45;&gt;Node2</title>
<path fill="none" stroke="midnightblue" d="M280.65,-21C271.95,-21 263.16,-21 255.05,-21"/>
<polygon fill="midnightblue" stroke="midnightblue" points="280.76,-24.5 290.76,-21 280.76,-17.5 280.76,-24.5"/>
</g>
<!-- Node3 -->
<g id="node3" class="node">
<title>Node3</title>
<g id="a_node3"><a xlink:href="structstd_1_1hash_3_01nlohmann_1_1NLOHMANN__BASIC__JSON__TPL_01_4.html#aeadbcf51ae3e58f8daa2025aa7737dd8" target="_top" xlink:title=" ">
<polygon fill="white" stroke="black" points="0,-0.5 0,-41.5 145,-41.5 145,-0.5 0,-0.5"/>
<text text-anchor="start" x="8" y="-29.5" font-family="Helvetica,sans-Serif" font-size="10.00">std::hash&lt; nlohmann</text>
<text text-anchor="start" x="8" y="-18.5" font-family="Helvetica,sans-Serif" font-size="10.00">::NLOHMANN_BASIC_JSON</text>
<text text-anchor="middle" x="72.5" y="-7.5" font-family="Helvetica,sans-Serif" font-size="10.00">_TPL &gt;::operator()</text>
</a>
</g>
</g>
<!-- Node2&#45;&gt;Node3 -->
<g id="edge2" class="edge">
<title>Node2&#45;&gt;Node3</title>
<path fill="none" stroke="midnightblue" d="M170.75,-21C162.59,-21 153.92,-21 145.24,-21"/>
<polygon fill="midnightblue" stroke="midnightblue" points="170.79,-24.5 180.79,-21 170.79,-17.5 170.79,-24.5"/>
</g>
</g>
</svg>
