<?xml version="1.0" encoding="UTF-8" standalone="no"?>
<!DOCTYPE svg PUBLIC "-//W3C//DTD SVG 1.1//EN"
 "http://www.w3.org/Graphics/SVG/1.1/DTD/svg11.dtd">
<!-- Generated by graphviz version 2.43.0 (0)
 -->
<!-- Title: detail::to_json Pages: 1 -->
<svg width="248pt" height="28pt"
 viewBox="0.00 0.00 248.00 28.00" xmlns="http://www.w3.org/2000/svg" xmlns:xlink="http://www.w3.org/1999/xlink">
<g id="graph0" class="graph" transform="scale(1 1) rotate(0) translate(4 24)">
<title>detail::to_json</title>
<polygon fill="white" stroke="transparent" points="-4,4 -4,-24 244,-24 244,4 -4,4"/>
<!-- Node1 -->
<g id="node1" class="node">
<title>Node1</title>
<g id="a_node1"><a xlink:title=" ">
<polygon fill="#bfbfbf" stroke="black" points="0,-0.5 0,-19.5 86,-19.5 86,-0.5 0,-0.5"/>
<text text-anchor="middle" x="43" y="-7.5" font-family="Helvetica,sans-Serif" font-size="10.00">detail::to_json</text>
</a>
</g>
</g>
<!-- Node2 -->
<g id="node2" class="node">
<title>Node2</title>
<g id="a_node2"><a xlink:href="Hex_8hpp.html#ab24bc404c913fdd0230a954beff1c99b" target="_top" xlink:title="Affiche la représentation binaire d&#39;une valeur sur un flux de sortie.">
<polygon fill="white" stroke="black" points="122,-0.5 122,-19.5 154,-19.5 154,-0.5 122,-0.5"/>
<text text-anchor="middle" x="138" y="-7.5" font-family="Helvetica,sans-Serif" font-size="10.00">bin</text>
</a>
</g>
</g>
<!-- Node1&#45;&gt;Node2 -->
<g id="edge1" class="edge">
<title>Node1&#45;&gt;Node2</title>
<path fill="none" stroke="midnightblue" d="M86.15,-10C94.87,-10 103.8,-10 111.69,-10"/>
<polygon fill="midnightblue" stroke="midnightblue" points="111.7,-13.5 121.7,-10 111.7,-6.5 111.7,-13.5"/>
</g>
<!-- Node3 -->
<g id="node3" class="node">
<title>Node3</title>
<g id="a_node3"><a xlink:href="Hex_8hpp.html#ae3c64c43dd5c2919a31d1492deccb53e" target="_top" xlink:title="Retourne le bit de poids fort d&#39;un type entier.">
<polygon fill="white" stroke="black" points="190,-0.5 190,-19.5 240,-19.5 240,-0.5 190,-0.5"/>
<text text-anchor="middle" x="215" y="-7.5" font-family="Helvetica,sans-Serif" font-size="10.00">highbit</text>
</a>
</g>
</g>
<!-- Node2&#45;&gt;Node3 -->
<g id="edge2" class="edge">
<title>Node2&#45;&gt;Node3</title>
<path fill="none" stroke="midnightblue" d="M154.18,-10C161.56,-10 170.76,-10 179.71,-10"/>
<polygon fill="midnightblue" stroke="midnightblue" points="179.99,-13.5 189.99,-10 179.99,-6.5 179.99,-13.5"/>
</g>
</g>
</svg>
