<?xml version="1.0" encoding="UTF-8" standalone="no"?>
<!DOCTYPE svg PUBLIC "-//W3C//DTD SVG 1.1//EN"
 "http://www.w3.org/Graphics/SVG/1.1/DTD/svg11.dtd">
<!-- Generated by graphviz version 2.43.0 (0)
 -->
<!-- Title: src/bot&#45;opos6ul/O_AsservCalibrationTest.cpp Pages: 1 -->
<svg width="1590pt" height="431pt"
 viewBox="0.00 0.00 1590.00 431.00" xmlns="http://www.w3.org/2000/svg" xmlns:xlink="http://www.w3.org/1999/xlink">
<g id="graph0" class="graph" transform="scale(1 1) rotate(0) translate(4 427)">
<title>src/bot&#45;opos6ul/O_AsservCalibrationTest.cpp</title>
<polygon fill="white" stroke="transparent" points="-4,4 -4,-427 1586,-427 1586,4 -4,4"/>
<!-- Node1 -->
<g id="node1" class="node">
<title>Node1</title>
<g id="a_node1"><a xlink:title="Implémentation de la classe O_AsservCalibrationTest.">
<polygon fill="#bfbfbf" stroke="black" points="695,-392.5 695,-422.5 835,-422.5 835,-392.5 695,-392.5"/>
<text text-anchor="start" x="703" y="-410.5" font-family="Helvetica,sans-Serif" font-size="10.00">src/bot&#45;opos6ul/O_Asserv</text>
<text text-anchor="middle" x="765" y="-399.5" font-family="Helvetica,sans-Serif" font-size="10.00">CalibrationTest.cpp</text>
</a>
</g>
</g>
<!-- Node2 -->
<g id="node2" class="node">
<title>Node2</title>
<g id="a_node2"><a xlink:href="O__AsservCalibrationTest_8hpp.html" target="_top" xlink:title="Déclaration de la classe O_AsservCalibrationTest.">
<polygon fill="white" stroke="black" points="231,-224.5 231,-243.5 387,-243.5 387,-224.5 231,-224.5"/>
<text text-anchor="middle" x="309" y="-231.5" font-family="Helvetica,sans-Serif" font-size="10.00">O_AsservCalibrationTest.hpp</text>
</a>
</g>
</g>
<!-- Node1&#45;&gt;Node2 -->
<g id="edge1" class="edge">
<title>Node1&#45;&gt;Node2</title>
<path fill="none" stroke="midnightblue" d="M719.28,-392.49C688.27,-382.78 646.44,-369.24 610,-356 509.09,-319.33 391.56,-270.17 338.11,-247.46"/>
<polygon fill="midnightblue" stroke="midnightblue" points="339.47,-244.24 328.9,-243.54 336.73,-250.68 339.47,-244.24"/>
</g>
<!-- Node4 -->
<g id="node4" class="node">
<title>Node4</title>
<g id="a_node4"><a xlink:title=" ">
<polygon fill="white" stroke="#bfbfbf" points="644,-0.5 644,-19.5 688,-19.5 688,-0.5 644,-0.5"/>
<text text-anchor="middle" x="666" y="-7.5" font-family="Helvetica,sans-Serif" font-size="10.00">string</text>
</a>
</g>
</g>
<!-- Node1&#45;&gt;Node4 -->
<g id="edge23" class="edge">
<title>Node1&#45;&gt;Node4</title>
<path fill="none" stroke="midnightblue" d="M694.84,-404.53C551.47,-399.91 229.52,-386.42 124,-356 64.21,-338.76 0,-353.22 0,-291 0,-291 0,-291 0,-121 0,-86.84 11.7,-73.56 41,-56 92.06,-25.39 512.75,-14.23 633.63,-11.63"/>
<polygon fill="midnightblue" stroke="midnightblue" points="633.81,-15.13 643.74,-11.42 633.67,-8.13 633.81,-15.13"/>
</g>
<!-- Node13 -->
<g id="node13" class="node">
<title>Node13</title>
<g id="a_node13"><a xlink:href="Logger_8hpp.html" target="_top" xlink:title="Définition de la classe Logger.">
<polygon fill="white" stroke="black" points="189,-112.5 189,-131.5 259,-131.5 259,-112.5 189,-112.5"/>
<text text-anchor="middle" x="224" y="-119.5" font-family="Helvetica,sans-Serif" font-size="10.00">Logger.hpp</text>
</a>
</g>
</g>
<!-- Node1&#45;&gt;Node13 -->
<g id="edge52" class="edge">
<title>Node1&#45;&gt;Node13</title>
<path fill="none" stroke="midnightblue" d="M694.96,-402.67C512.76,-391.79 38,-357.1 38,-291 38,-291 38,-291 38,-233 38,-167.84 123.62,-140.46 178.68,-129.59"/>
<polygon fill="midnightblue" stroke="midnightblue" points="179.39,-133.02 188.58,-127.75 178.11,-126.14 179.39,-133.02"/>
</g>
<!-- Node16 -->
<g id="node16" class="node">
<title>Node16</title>
<g id="a_node16"><a xlink:title=" ">
<polygon fill="white" stroke="#bfbfbf" points="1458.5,-336.5 1458.5,-355.5 1507.5,-355.5 1507.5,-336.5 1458.5,-336.5"/>
<text text-anchor="middle" x="1483" y="-343.5" font-family="Helvetica,sans-Serif" font-size="10.00">cstdlib</text>
</a>
</g>
</g>
<!-- Node1&#45;&gt;Node16 -->
<g id="edge21" class="edge">
<title>Node1&#45;&gt;Node16</title>
<path fill="none" stroke="midnightblue" d="M835.28,-404.8C958.99,-401.03 1223.41,-389.46 1444,-356 1445.46,-355.78 1446.95,-355.53 1448.44,-355.27"/>
<polygon fill="midnightblue" stroke="midnightblue" points="1449.23,-358.68 1458.35,-353.29 1447.86,-351.81 1449.23,-358.68"/>
</g>
<!-- Node17 -->
<g id="node17" class="node">
<title>Node17</title>
<g id="a_node17"><a xlink:title=" ">
<polygon fill="white" stroke="#bfbfbf" points="1526,-336.5 1526,-355.5 1582,-355.5 1582,-336.5 1526,-336.5"/>
<text text-anchor="middle" x="1554" y="-343.5" font-family="Helvetica,sans-Serif" font-size="10.00">unistd.h</text>
</a>
</g>
</g>
<!-- Node1&#45;&gt;Node17 -->
<g id="edge22" class="edge">
<title>Node1&#45;&gt;Node17</title>
<path fill="none" stroke="midnightblue" d="M835.16,-405.79C966.92,-403.6 1260.34,-394.56 1515.61,-355.95"/>
<polygon fill="midnightblue" stroke="midnightblue" points="1516.46,-359.36 1525.82,-354.38 1515.4,-352.44 1516.46,-359.36"/>
</g>
<!-- Node18 -->
<g id="node18" class="node">
<title>Node18</title>
<g id="a_node18"><a xlink:href="Arguments_8hpp.html" target="_top" xlink:title=" ">
<polygon fill="white" stroke="black" points="762.5,-224.5 762.5,-243.5 877.5,-243.5 877.5,-224.5 762.5,-224.5"/>
<text text-anchor="middle" x="820" y="-231.5" font-family="Helvetica,sans-Serif" font-size="10.00">utils/Arguments.hpp</text>
</a>
</g>
</g>
<!-- Node1&#45;&gt;Node18 -->
<g id="edge24" class="edge">
<title>Node1&#45;&gt;Node18</title>
<path fill="none" stroke="midnightblue" d="M778.02,-392.13C785.94,-382.57 795.55,-369.36 801,-356 815.01,-321.67 818.75,-277.96 819.71,-253.59"/>
<polygon fill="midnightblue" stroke="midnightblue" points="823.21,-253.66 819.99,-243.57 816.21,-253.47 823.21,-253.66"/>
</g>
<!-- Node22 -->
<g id="node22" class="node">
<title>Node22</title>
<g id="a_node22"><a xlink:href="Robot_8hpp.html" target="_top" xlink:title=" ">
<polygon fill="white" stroke="black" points="596,-280.5 596,-299.5 662,-299.5 662,-280.5 596,-280.5"/>
<text text-anchor="middle" x="629" y="-287.5" font-family="Helvetica,sans-Serif" font-size="10.00">Robot.hpp</text>
</a>
</g>
</g>
<!-- Node1&#45;&gt;Node22 -->
<g id="edge30" class="edge">
<title>Node1&#45;&gt;Node22</title>
<path fill="none" stroke="midnightblue" d="M694.64,-399.46C666.68,-392.82 637.14,-380.12 620,-356 610.43,-342.53 614.59,-323.46 620,-309.46"/>
<polygon fill="midnightblue" stroke="midnightblue" points="623.37,-310.48 624.17,-299.92 616.96,-307.68 623.37,-310.48"/>
</g>
<!-- Node28 -->
<g id="node28" class="node">
<title>Node28</title>
<g id="a_node28"><a xlink:href="Chronometer_8hpp.html" target="_top" xlink:title="Définition de la classe Chronometer.">
<polygon fill="white" stroke="black" points="1308.5,-56.5 1308.5,-75.5 1433.5,-75.5 1433.5,-56.5 1308.5,-56.5"/>
<text text-anchor="middle" x="1371" y="-63.5" font-family="Helvetica,sans-Serif" font-size="10.00">utils/Chronometer.hpp</text>
</a>
</g>
</g>
<!-- Node1&#45;&gt;Node28 -->
<g id="edge51" class="edge">
<title>Node1&#45;&gt;Node28</title>
<path fill="none" stroke="midnightblue" d="M835.22,-401.61C1006.16,-388.76 1430,-350.87 1430,-291 1430,-291 1430,-291 1430,-177 1430,-140.02 1403.79,-103.47 1386.31,-83.21"/>
<polygon fill="midnightblue" stroke="midnightblue" points="1388.74,-80.67 1379.45,-75.56 1383.53,-85.34 1388.74,-80.67"/>
</g>
<!-- Node33 -->
<g id="node33" class="node">
<title>Node33</title>
<g id="a_node33"><a xlink:href="OPOS6UL__AsservExtended_8hpp.html" target="_top" xlink:title="Extension de l&#39;asservissement pour la carte OPOS6UL.">
<polygon fill="white" stroke="black" points="938.5,-280.5 938.5,-299.5 1105.5,-299.5 1105.5,-280.5 938.5,-280.5"/>
<text text-anchor="middle" x="1022" y="-287.5" font-family="Helvetica,sans-Serif" font-size="10.00">OPOS6UL_AsservExtended.hpp</text>
</a>
</g>
</g>
<!-- Node1&#45;&gt;Node33 -->
<g id="edge53" class="edge">
<title>Node1&#45;&gt;Node33</title>
<path fill="none" stroke="midnightblue" d="M796.26,-392.45C846.69,-369.79 945.26,-325.49 993.72,-303.71"/>
<polygon fill="midnightblue" stroke="midnightblue" points="995.31,-306.83 1002.99,-299.54 992.44,-300.45 995.31,-306.83"/>
</g>
<!-- Node36 -->
<g id="node36" class="node">
<title>Node36</title>
<g id="a_node36"><a xlink:href="OPOS6UL__RobotExtended_8hpp.html" target="_top" xlink:title="Extension de la classe Robot pour la carte OPOS6UL.">
<polygon fill="white" stroke="black" points="628.5,-336.5 628.5,-355.5 791.5,-355.5 791.5,-336.5 628.5,-336.5"/>
<text text-anchor="middle" x="710" y="-343.5" font-family="Helvetica,sans-Serif" font-size="10.00">OPOS6UL_RobotExtended.hpp</text>
</a>
</g>
</g>
<!-- Node1&#45;&gt;Node36 -->
<g id="edge63" class="edge">
<title>Node1&#45;&gt;Node36</title>
<path fill="none" stroke="midnightblue" d="M751.97,-392.4C743.81,-383.58 733.28,-372.18 724.81,-363.02"/>
<polygon fill="midnightblue" stroke="midnightblue" points="727.36,-360.63 718,-355.66 722.22,-365.38 727.36,-360.63"/>
</g>
<!-- Node3 -->
<g id="node3" class="node">
<title>Node3</title>
<g id="a_node3"><a xlink:href="FunctionalTest_8hpp.html" target="_top" xlink:title="Class definition for functional tests.">
<polygon fill="white" stroke="black" points="226.5,-168.5 226.5,-187.5 357.5,-187.5 357.5,-168.5 226.5,-168.5"/>
<text text-anchor="middle" x="292" y="-175.5" font-family="Helvetica,sans-Serif" font-size="10.00">utils/FunctionalTest.hpp</text>
</a>
</g>
</g>
<!-- Node2&#45;&gt;Node3 -->
<g id="edge2" class="edge">
<title>Node2&#45;&gt;Node3</title>
<path fill="none" stroke="midnightblue" d="M306.19,-224.08C303.92,-216.85 300.63,-206.41 297.79,-197.4"/>
<polygon fill="midnightblue" stroke="midnightblue" points="301.1,-196.24 294.75,-187.75 294.42,-198.34 301.1,-196.24"/>
</g>
<!-- Node5 -->
<g id="node5" class="node">
<title>Node5</title>
<g id="a_node5"><a xlink:href="LoggerFactory_8hpp.html" target="_top" xlink:title="Définition de la classe LoggerFactory.">
<polygon fill="white" stroke="black" points="554,-168.5 554,-187.5 676,-187.5 676,-168.5 554,-168.5"/>
<text text-anchor="middle" x="615" y="-175.5" font-family="Helvetica,sans-Serif" font-size="10.00">log/LoggerFactory.hpp</text>
</a>
</g>
</g>
<!-- Node2&#45;&gt;Node5 -->
<g id="edge4" class="edge">
<title>Node2&#45;&gt;Node5</title>
<path fill="none" stroke="midnightblue" d="M357.49,-224.44C411.54,-214.9 498.93,-199.48 556.67,-189.29"/>
<polygon fill="midnightblue" stroke="midnightblue" points="557.5,-192.7 566.74,-187.52 556.28,-185.81 557.5,-192.7"/>
</g>
<!-- Node3&#45;&gt;Node4 -->
<g id="edge3" class="edge">
<title>Node3&#45;&gt;Node4</title>
<path fill="none" stroke="midnightblue" d="M298.17,-168.21C314.68,-145.45 362.36,-84.42 418,-56 488.97,-19.74 584.49,-12.3 633.7,-11.02"/>
<polygon fill="midnightblue" stroke="midnightblue" points="633.83,-14.52 643.76,-10.83 633.69,-7.52 633.83,-14.52"/>
</g>
<!-- Node5&#45;&gt;Node4 -->
<g id="edge6" class="edge">
<title>Node5&#45;&gt;Node4</title>
<path fill="none" stroke="midnightblue" d="M621.15,-168.36C632.69,-151.56 657.22,-112.88 666,-76 669.64,-60.72 669.32,-42.83 668.27,-29.7"/>
<polygon fill="midnightblue" stroke="midnightblue" points="671.74,-29.16 667.24,-19.56 664.77,-29.86 671.74,-29.16"/>
</g>
<!-- Node6 -->
<g id="node6" class="node">
<title>Node6</title>
<g id="a_node6"><a xlink:title=" ">
<polygon fill="white" stroke="#bfbfbf" points="676,-112.5 676,-131.5 714,-131.5 714,-112.5 676,-112.5"/>
<text text-anchor="middle" x="695" y="-119.5" font-family="Helvetica,sans-Serif" font-size="10.00">map</text>
</a>
</g>
</g>
<!-- Node5&#45;&gt;Node6 -->
<g id="edge5" class="edge">
<title>Node5&#45;&gt;Node6</title>
<path fill="none" stroke="midnightblue" d="M627.85,-168.32C640.22,-159.98 659.13,-147.21 673.74,-137.35"/>
<polygon fill="midnightblue" stroke="midnightblue" points="675.85,-140.15 682.18,-131.65 671.93,-134.35 675.85,-140.15"/>
</g>
<!-- Node7 -->
<g id="node7" class="node">
<title>Node7</title>
<g id="a_node7"><a xlink:href="Thread_8hpp.html" target="_top" xlink:title="Définition de la classe Thread.">
<polygon fill="white" stroke="black" points="494.5,-112.5 494.5,-131.5 609.5,-131.5 609.5,-112.5 494.5,-112.5"/>
<text text-anchor="middle" x="552" y="-119.5" font-family="Helvetica,sans-Serif" font-size="10.00">../thread/Thread.hpp</text>
</a>
</g>
</g>
<!-- Node5&#45;&gt;Node7 -->
<g id="edge7" class="edge">
<title>Node5&#45;&gt;Node7</title>
<path fill="none" stroke="midnightblue" d="M604.88,-168.32C595.47,-160.26 581.26,-148.08 569.93,-138.37"/>
<polygon fill="midnightblue" stroke="midnightblue" points="572.18,-135.68 562.31,-131.83 567.62,-141 572.18,-135.68"/>
</g>
<!-- Node5&#45;&gt;Node13 -->
<g id="edge15" class="edge">
<title>Node5&#45;&gt;Node13</title>
<path fill="none" stroke="midnightblue" d="M553.91,-168.56C475.05,-157.67 339.64,-138.97 269.34,-129.26"/>
<polygon fill="midnightblue" stroke="midnightblue" points="269.43,-125.74 259.04,-127.84 268.47,-132.67 269.43,-125.74"/>
</g>
<!-- Node7&#45;&gt;Node4 -->
<g id="edge9" class="edge">
<title>Node7&#45;&gt;Node4</title>
<path fill="none" stroke="midnightblue" d="M586.27,-112.45C606.59,-105.72 631.36,-94.33 647,-76 658.08,-63.02 662.7,-43.85 664.63,-29.69"/>
<polygon fill="midnightblue" stroke="midnightblue" points="668.12,-29.93 665.67,-19.63 661.16,-29.22 668.12,-29.93"/>
</g>
<!-- Node8 -->
<g id="node8" class="node">
<title>Node8</title>
<g id="a_node8"><a xlink:title=" ">
<polygon fill="white" stroke="#bfbfbf" points="173.5,-0.5 173.5,-19.5 236.5,-19.5 236.5,-0.5 173.5,-0.5"/>
<text text-anchor="middle" x="205" y="-7.5" font-family="Helvetica,sans-Serif" font-size="10.00">pthread.h</text>
</a>
</g>
</g>
<!-- Node7&#45;&gt;Node8 -->
<g id="edge8" class="edge">
<title>Node7&#45;&gt;Node8</title>
<path fill="none" stroke="midnightblue" d="M494.28,-118.58C440.32,-114.58 358.46,-103.99 293,-76 265.34,-64.17 238.22,-42.1 221.56,-26.98"/>
<polygon fill="midnightblue" stroke="midnightblue" points="223.56,-24.06 213.85,-19.81 218.79,-29.18 223.56,-24.06"/>
</g>
<!-- Node9 -->
<g id="node9" class="node">
<title>Node9</title>
<g id="a_node9"><a xlink:title=" ">
<polygon fill="white" stroke="#bfbfbf" points="528,-56.5 528,-75.5 576,-75.5 576,-56.5 528,-56.5"/>
<text text-anchor="middle" x="552" y="-63.5" font-family="Helvetica,sans-Serif" font-size="10.00">thread</text>
</a>
</g>
</g>
<!-- Node7&#45;&gt;Node9 -->
<g id="edge10" class="edge">
<title>Node7&#45;&gt;Node9</title>
<path fill="none" stroke="midnightblue" d="M552,-112.08C552,-105.01 552,-94.86 552,-85.99"/>
<polygon fill="midnightblue" stroke="midnightblue" points="555.5,-85.75 552,-75.75 548.5,-85.75 555.5,-85.75"/>
</g>
<!-- Node10 -->
<g id="node10" class="node">
<title>Node10</title>
<g id="a_node10"><a xlink:title=" ">
<polygon fill="white" stroke="#bfbfbf" points="594,-56.5 594,-75.5 638,-75.5 638,-56.5 594,-56.5"/>
<text text-anchor="middle" x="616" y="-63.5" font-family="Helvetica,sans-Serif" font-size="10.00">ctime</text>
</a>
</g>
</g>
<!-- Node7&#45;&gt;Node10 -->
<g id="edge11" class="edge">
<title>Node7&#45;&gt;Node10</title>
<path fill="none" stroke="midnightblue" d="M562.28,-112.32C571.84,-104.26 586.28,-92.08 597.78,-82.37"/>
<polygon fill="midnightblue" stroke="midnightblue" points="600.14,-84.96 605.53,-75.83 595.63,-79.61 600.14,-84.96"/>
</g>
<!-- Node11 -->
<g id="node11" class="node">
<title>Node11</title>
<g id="a_node11"><a xlink:href="Mutex_8hpp.html" target="_top" xlink:title="Définition de la classe Mutex.">
<polygon fill="white" stroke="black" points="140,-56.5 140,-75.5 208,-75.5 208,-56.5 140,-56.5"/>
<text text-anchor="middle" x="174" y="-63.5" font-family="Helvetica,sans-Serif" font-size="10.00">Mutex.hpp</text>
</a>
</g>
</g>
<!-- Node7&#45;&gt;Node11 -->
<g id="edge12" class="edge">
<title>Node7&#45;&gt;Node11</title>
<path fill="none" stroke="midnightblue" d="M494.34,-114.02C428.38,-105.83 317.18,-91.4 222,-76 220.73,-75.79 219.44,-75.58 218.14,-75.36"/>
<polygon fill="midnightblue" stroke="midnightblue" points="218.5,-71.87 208.05,-73.6 217.3,-78.77 218.5,-71.87"/>
</g>
<!-- Node12 -->
<g id="node12" class="node">
<title>Node12</title>
<g id="a_node12"><a xlink:title=" ">
<polygon fill="white" stroke="#bfbfbf" points="460,-56.5 460,-75.5 510,-75.5 510,-56.5 460,-56.5"/>
<text text-anchor="middle" x="485" y="-63.5" font-family="Helvetica,sans-Serif" font-size="10.00">chrono</text>
</a>
</g>
</g>
<!-- Node7&#45;&gt;Node12 -->
<g id="edge14" class="edge">
<title>Node7&#45;&gt;Node12</title>
<path fill="none" stroke="midnightblue" d="M541.24,-112.32C531.23,-104.26 516.11,-92.08 504.07,-82.37"/>
<polygon fill="midnightblue" stroke="midnightblue" points="505.94,-79.38 495.96,-75.83 501.55,-84.83 505.94,-79.38"/>
</g>
<!-- Node11&#45;&gt;Node8 -->
<g id="edge13" class="edge">
<title>Node11&#45;&gt;Node8</title>
<path fill="none" stroke="midnightblue" d="M179.12,-56.08C183.41,-48.61 189.66,-37.72 194.94,-28.52"/>
<polygon fill="midnightblue" stroke="midnightblue" points="198.03,-30.17 199.98,-19.75 191.96,-26.68 198.03,-30.17"/>
</g>
<!-- Node13&#45;&gt;Node4 -->
<g id="edge17" class="edge">
<title>Node13&#45;&gt;Node4</title>
<path fill="none" stroke="midnightblue" d="M230.09,-112.45C240.9,-98.02 264.98,-69.12 293,-56 353.23,-27.81 554.16,-15.98 633.44,-12.33"/>
<polygon fill="midnightblue" stroke="midnightblue" points="633.95,-15.81 643.79,-11.87 633.64,-8.82 633.95,-15.81"/>
</g>
<!-- Node13&#45;&gt;Node11 -->
<g id="edge18" class="edge">
<title>Node13&#45;&gt;Node11</title>
<path fill="none" stroke="midnightblue" d="M215.74,-112.08C208.54,-104.3 197.89,-92.8 189.15,-83.37"/>
<polygon fill="midnightblue" stroke="midnightblue" points="191.47,-80.71 182.1,-75.75 186.33,-85.47 191.47,-80.71"/>
</g>
<!-- Node14 -->
<g id="node14" class="node">
<title>Node14</title>
<g id="a_node14"><a xlink:title=" ">
<polygon fill="white" stroke="#bfbfbf" points="66,-56.5 66,-75.5 122,-75.5 122,-56.5 66,-56.5"/>
<text text-anchor="middle" x="94" y="-63.5" font-family="Helvetica,sans-Serif" font-size="10.00">sstream</text>
</a>
</g>
</g>
<!-- Node13&#45;&gt;Node14 -->
<g id="edge16" class="edge">
<title>Node13&#45;&gt;Node14</title>
<path fill="none" stroke="midnightblue" d="M203.4,-112.44C182.01,-103.56 148.32,-89.56 123.98,-79.45"/>
<polygon fill="midnightblue" stroke="midnightblue" points="125.08,-76.12 114.5,-75.52 122.39,-82.58 125.08,-76.12"/>
</g>
<!-- Node15 -->
<g id="node15" class="node">
<title>Node15</title>
<g id="a_node15"><a xlink:href="Level_8hpp.html" target="_top" xlink:title="Définition de la classe Level.">
<polygon fill="white" stroke="black" points="302,-56.5 302,-75.5 366,-75.5 366,-56.5 302,-56.5"/>
<text text-anchor="middle" x="334" y="-63.5" font-family="Helvetica,sans-Serif" font-size="10.00">Level.hpp</text>
</a>
</g>
</g>
<!-- Node13&#45;&gt;Node15 -->
<g id="edge19" class="edge">
<title>Node13&#45;&gt;Node15</title>
<path fill="none" stroke="midnightblue" d="M241.67,-112.32C259.39,-103.62 286.9,-90.12 307.29,-80.11"/>
<polygon fill="midnightblue" stroke="midnightblue" points="308.94,-83.2 316.37,-75.65 305.85,-76.92 308.94,-83.2"/>
</g>
<!-- Node15&#45;&gt;Node4 -->
<g id="edge20" class="edge">
<title>Node15&#45;&gt;Node4</title>
<path fill="none" stroke="midnightblue" d="M366.14,-58.55C370.79,-57.67 375.51,-56.79 380,-56 471.69,-39.82 580.43,-23.5 633.54,-15.71"/>
<polygon fill="midnightblue" stroke="midnightblue" points="634.31,-19.13 643.7,-14.22 633.3,-12.2 634.31,-19.13"/>
</g>
<!-- Node18&#45;&gt;Node4 -->
<g id="edge28" class="edge">
<title>Node18&#45;&gt;Node4</title>
<path fill="none" stroke="midnightblue" d="M805.68,-224.46C792.97,-216.32 774.53,-203.11 762,-188 737.76,-158.78 741,-145.43 723,-112 707.08,-82.43 687.7,-48.51 676.14,-28.47"/>
<polygon fill="midnightblue" stroke="midnightblue" points="679.03,-26.49 671,-19.58 672.97,-29.99 679.03,-26.49"/>
</g>
<!-- Node18&#45;&gt;Node6 -->
<g id="edge27" class="edge">
<title>Node18&#45;&gt;Node6</title>
<path fill="none" stroke="midnightblue" d="M791.37,-224.42C771.58,-217.29 745.73,-205.47 728,-188 714.78,-174.98 705.88,-155.55 700.69,-141.32"/>
<polygon fill="midnightblue" stroke="midnightblue" points="703.94,-140.01 697.43,-131.65 697.3,-142.25 703.94,-140.01"/>
</g>
<!-- Node19 -->
<g id="node19" class="node">
<title>Node19</title>
<g id="a_node19"><a xlink:title=" ">
<polygon fill="white" stroke="#bfbfbf" points="770.5,-168.5 770.5,-187.5 835.5,-187.5 835.5,-168.5 770.5,-168.5"/>
<text text-anchor="middle" x="803" y="-175.5" font-family="Helvetica,sans-Serif" font-size="10.00">functional</text>
</a>
</g>
</g>
<!-- Node18&#45;&gt;Node19 -->
<g id="edge25" class="edge">
<title>Node18&#45;&gt;Node19</title>
<path fill="none" stroke="midnightblue" d="M817.19,-224.08C814.92,-216.85 811.63,-206.41 808.79,-197.4"/>
<polygon fill="midnightblue" stroke="midnightblue" points="812.1,-196.24 805.75,-187.75 805.42,-198.34 812.1,-196.24"/>
</g>
<!-- Node20 -->
<g id="node20" class="node">
<title>Node20</title>
<g id="a_node20"><a xlink:title=" ">
<polygon fill="white" stroke="#bfbfbf" points="854,-168.5 854,-187.5 914,-187.5 914,-168.5 854,-168.5"/>
<text text-anchor="middle" x="884" y="-175.5" font-family="Helvetica,sans-Serif" font-size="10.00">iostream</text>
</a>
</g>
</g>
<!-- Node18&#45;&gt;Node20 -->
<g id="edge26" class="edge">
<title>Node18&#45;&gt;Node20</title>
<path fill="none" stroke="midnightblue" d="M830.28,-224.32C839.84,-216.26 854.28,-204.08 865.78,-194.37"/>
<polygon fill="midnightblue" stroke="midnightblue" points="868.14,-196.96 873.53,-187.83 863.63,-191.61 868.14,-196.96"/>
</g>
<!-- Node21 -->
<g id="node21" class="node">
<title>Node21</title>
<g id="a_node21"><a xlink:title=" ">
<polygon fill="white" stroke="#bfbfbf" points="414.5,-168.5 414.5,-187.5 461.5,-187.5 461.5,-168.5 414.5,-168.5"/>
<text text-anchor="middle" x="438" y="-175.5" font-family="Helvetica,sans-Serif" font-size="10.00">vector</text>
</a>
</g>
</g>
<!-- Node18&#45;&gt;Node21 -->
<g id="edge29" class="edge">
<title>Node18&#45;&gt;Node21</title>
<path fill="none" stroke="midnightblue" d="M762.48,-228.04C695.08,-221.68 579.93,-209.11 471.8,-187.9"/>
<polygon fill="midnightblue" stroke="midnightblue" points="472.19,-184.4 461.7,-185.88 470.82,-191.27 472.19,-184.4"/>
</g>
<!-- Node22&#45;&gt;Node4 -->
<g id="edge32" class="edge">
<title>Node22&#45;&gt;Node4</title>
<path fill="none" stroke="midnightblue" d="M595.75,-288.64C555.29,-286.63 486.62,-277.95 440,-244 410.09,-222.22 398.97,-204.33 406,-168 416.19,-115.33 409.88,-90.46 451,-56 478.34,-33.08 580.57,-19.63 633.61,-14.04"/>
<polygon fill="midnightblue" stroke="midnightblue" points="634.24,-17.5 643.83,-13 633.53,-10.53 634.24,-17.5"/>
</g>
<!-- Node22&#45;&gt;Node5 -->
<g id="edge33" class="edge">
<title>Node22&#45;&gt;Node5</title>
<path fill="none" stroke="midnightblue" d="M623.87,-280.41C618.94,-271.61 611.84,-257.38 609,-244 605.72,-228.57 607.79,-210.7 610.35,-197.6"/>
<polygon fill="midnightblue" stroke="midnightblue" points="613.84,-198.03 612.61,-187.51 607.01,-196.5 613.84,-198.03"/>
</g>
<!-- Node22&#45;&gt;Node18 -->
<g id="edge34" class="edge">
<title>Node22&#45;&gt;Node18</title>
<path fill="none" stroke="midnightblue" d="M659.26,-280.44C691.96,-271.2 744.18,-256.44 780.18,-246.26"/>
<polygon fill="midnightblue" stroke="midnightblue" points="781.21,-249.61 789.88,-243.52 779.3,-242.87 781.21,-249.61"/>
</g>
<!-- Node23 -->
<g id="node23" class="node">
<title>Node23</title>
<g id="a_node23"><a xlink:title=" ">
<polygon fill="white" stroke="#bfbfbf" points="618,-224.5 618,-243.5 668,-243.5 668,-224.5 618,-224.5"/>
<text text-anchor="middle" x="643" y="-231.5" font-family="Helvetica,sans-Serif" font-size="10.00">stdio.h</text>
</a>
</g>
</g>
<!-- Node22&#45;&gt;Node23 -->
<g id="edge31" class="edge">
<title>Node22&#45;&gt;Node23</title>
<path fill="none" stroke="midnightblue" d="M631.31,-280.08C633.17,-272.93 635.84,-262.64 638.15,-253.69"/>
<polygon fill="midnightblue" stroke="midnightblue" points="641.61,-254.31 640.73,-243.75 634.83,-252.55 641.61,-254.31"/>
</g>
<!-- Node24 -->
<g id="node24" class="node">
<title>Node24</title>
<g id="a_node24"><a xlink:href="AAsservDriver_8hpp.html" target="_top" xlink:title="Interface abstraite du driver d&#39;asservissement.">
<polygon fill="white" stroke="black" points="932.5,-168.5 932.5,-187.5 1085.5,-187.5 1085.5,-168.5 932.5,-168.5"/>
<text text-anchor="middle" x="1009" y="-175.5" font-family="Helvetica,sans-Serif" font-size="10.00">interface/AAsservDriver.hpp</text>
</a>
</g>
</g>
<!-- Node22&#45;&gt;Node24 -->
<g id="edge35" class="edge">
<title>Node22&#45;&gt;Node24</title>
<path fill="none" stroke="midnightblue" d="M662,-286.6C711.89,-282.23 808.96,-270.83 887,-244 924.27,-231.19 963.92,-208.07 987.56,-193.14"/>
<polygon fill="midnightblue" stroke="midnightblue" points="989.57,-196.01 996.09,-187.67 985.79,-190.12 989.57,-196.01"/>
</g>
<!-- Node22&#45;&gt;Node28 -->
<g id="edge50" class="edge">
<title>Node22&#45;&gt;Node28</title>
<path fill="none" stroke="midnightblue" d="M662.27,-287.92C783.97,-283.79 1200.61,-268 1255,-244 1321.15,-214.81 1344.46,-198.44 1373,-132 1379.27,-117.41 1378.04,-99.24 1375.67,-85.82"/>
<polygon fill="midnightblue" stroke="midnightblue" points="1379.05,-84.9 1373.54,-75.85 1372.21,-86.36 1379.05,-84.9"/>
</g>
<!-- Node30 -->
<g id="node30" class="node">
<title>Node30</title>
<g id="a_node30"><a xlink:href="ConsoleManager_8hpp.html" target="_top" xlink:title="Définition de la classe ConsoleManager.">
<polygon fill="white" stroke="black" points="69.5,-224.5 69.5,-243.5 212.5,-243.5 212.5,-224.5 69.5,-224.5"/>
<text text-anchor="middle" x="141" y="-231.5" font-family="Helvetica,sans-Serif" font-size="10.00">utils/ConsoleManager.hpp</text>
</a>
</g>
</g>
<!-- Node22&#45;&gt;Node30 -->
<g id="edge43" class="edge">
<title>Node22&#45;&gt;Node30</title>
<path fill="none" stroke="midnightblue" d="M595.76,-285.33C527.89,-277.84 368.23,-260.2 222.57,-244.06"/>
<polygon fill="midnightblue" stroke="midnightblue" points="222.88,-240.58 212.55,-242.95 222.11,-247.53 222.88,-240.58"/>
</g>
<!-- Node31 -->
<g id="node31" class="node">
<title>Node31</title>
<g id="a_node31"><a xlink:href="Automate_8hpp.html" target="_top" xlink:title="Définition de la classe Automate.">
<polygon fill="white" stroke="black" points="448.5,-224.5 448.5,-243.5 561.5,-243.5 561.5,-224.5 448.5,-224.5"/>
<text text-anchor="middle" x="505" y="-231.5" font-family="Helvetica,sans-Serif" font-size="10.00">state/Automate.hpp</text>
</a>
</g>
</g>
<!-- Node22&#45;&gt;Node31 -->
<g id="edge47" class="edge">
<title>Node22&#45;&gt;Node31</title>
<path fill="none" stroke="midnightblue" d="M609.35,-280.44C589.04,-271.6 557.1,-257.69 533.9,-247.59"/>
<polygon fill="midnightblue" stroke="midnightblue" points="535.12,-244.3 524.56,-243.52 532.33,-250.72 535.12,-244.3"/>
</g>
<!-- Node24&#45;&gt;Node4 -->
<g id="edge37" class="edge">
<title>Node24&#45;&gt;Node4</title>
<path fill="none" stroke="midnightblue" d="M991.04,-168.31C934.55,-140.97 760.22,-56.6 692.91,-24.02"/>
<polygon fill="midnightblue" stroke="midnightblue" points="694.31,-20.81 683.78,-19.61 691.26,-27.11 694.31,-20.81"/>
</g>
<!-- Node25 -->
<g id="node25" class="node">
<title>Node25</title>
<g id="a_node25"><a xlink:title=" ">
<polygon fill="white" stroke="#bfbfbf" points="984,-112.5 984,-131.5 1034,-131.5 1034,-112.5 984,-112.5"/>
<text text-anchor="middle" x="1009" y="-119.5" font-family="Helvetica,sans-Serif" font-size="10.00">cstdint</text>
</a>
</g>
</g>
<!-- Node24&#45;&gt;Node25 -->
<g id="edge36" class="edge">
<title>Node24&#45;&gt;Node25</title>
<path fill="none" stroke="midnightblue" d="M1009,-168.08C1009,-161.01 1009,-150.86 1009,-141.99"/>
<polygon fill="midnightblue" stroke="midnightblue" points="1012.5,-141.75 1009,-131.75 1005.5,-141.75 1012.5,-141.75"/>
</g>
<!-- Node26 -->
<g id="node26" class="node">
<title>Node26</title>
<g id="a_node26"><a xlink:href="ARobotPositionShared_8hpp.html" target="_top" xlink:title="Position partagee du robot et utilitaires geometriques.">
<polygon fill="white" stroke="black" points="1218,-112.5 1218,-131.5 1364,-131.5 1364,-112.5 1218,-112.5"/>
<text text-anchor="middle" x="1291" y="-119.5" font-family="Helvetica,sans-Serif" font-size="10.00">ARobotPositionShared.hpp</text>
</a>
</g>
</g>
<!-- Node24&#45;&gt;Node26 -->
<g id="edge38" class="edge">
<title>Node24&#45;&gt;Node26</title>
<path fill="none" stroke="midnightblue" d="M1053.68,-168.44C1103.29,-158.94 1183.36,-143.61 1236.59,-133.42"/>
<polygon fill="midnightblue" stroke="midnightblue" points="1237.36,-136.83 1246.53,-131.52 1236.05,-129.96 1237.36,-136.83"/>
</g>
<!-- Node27 -->
<g id="node27" class="node">
<title>Node27</title>
<g id="a_node27"><a xlink:title=" ">
<polygon fill="white" stroke="#bfbfbf" points="1222.5,-56.5 1222.5,-75.5 1269.5,-75.5 1269.5,-56.5 1222.5,-56.5"/>
<text text-anchor="middle" x="1246" y="-63.5" font-family="Helvetica,sans-Serif" font-size="10.00">cmath</text>
</a>
</g>
</g>
<!-- Node26&#45;&gt;Node27 -->
<g id="edge39" class="edge">
<title>Node26&#45;&gt;Node27</title>
<path fill="none" stroke="midnightblue" d="M1283.57,-112.08C1277.15,-104.38 1267.69,-93.03 1259.88,-83.65"/>
<polygon fill="midnightblue" stroke="midnightblue" points="1262.38,-81.19 1253.29,-75.75 1257.01,-85.67 1262.38,-81.19"/>
</g>
<!-- Node26&#45;&gt;Node28 -->
<g id="edge40" class="edge">
<title>Node26&#45;&gt;Node28</title>
<path fill="none" stroke="midnightblue" d="M1303.85,-112.32C1316.22,-103.98 1335.13,-91.21 1349.74,-81.35"/>
<polygon fill="midnightblue" stroke="midnightblue" points="1351.85,-84.15 1358.18,-75.65 1347.93,-78.35 1351.85,-84.15"/>
</g>
<!-- Node28&#45;&gt;Node4 -->
<g id="edge42" class="edge">
<title>Node28&#45;&gt;Node4</title>
<path fill="none" stroke="midnightblue" d="M1308.17,-58.65C1298.41,-57.72 1288.43,-56.81 1279,-56 1057.04,-37 789.44,-19.06 698.24,-13.09"/>
<polygon fill="midnightblue" stroke="midnightblue" points="698.21,-9.58 688.01,-12.42 697.76,-16.57 698.21,-9.58"/>
</g>
<!-- Node29 -->
<g id="node29" class="node">
<title>Node29</title>
<g id="a_node29"><a xlink:title=" ">
<polygon fill="white" stroke="#bfbfbf" points="1337,-0.5 1337,-19.5 1405,-19.5 1405,-0.5 1337,-0.5"/>
<text text-anchor="middle" x="1371" y="-7.5" font-family="Helvetica,sans-Serif" font-size="10.00">sys/time.h</text>
</a>
</g>
</g>
<!-- Node28&#45;&gt;Node29 -->
<g id="edge41" class="edge">
<title>Node28&#45;&gt;Node29</title>
<path fill="none" stroke="midnightblue" d="M1371,-56.08C1371,-49.01 1371,-38.86 1371,-29.99"/>
<polygon fill="midnightblue" stroke="midnightblue" points="1374.5,-29.75 1371,-19.75 1367.5,-29.75 1374.5,-29.75"/>
</g>
<!-- Node30&#45;&gt;Node3 -->
<g id="edge46" class="edge">
<title>Node30&#45;&gt;Node3</title>
<path fill="none" stroke="midnightblue" d="M164.93,-224.44C190.22,-215.4 230.3,-201.06 258.68,-190.92"/>
<polygon fill="midnightblue" stroke="midnightblue" points="259.95,-194.18 268.19,-187.52 257.59,-187.59 259.95,-194.18"/>
</g>
<!-- Node30&#45;&gt;Node4 -->
<g id="edge44" class="edge">
<title>Node30&#45;&gt;Node4</title>
<path fill="none" stroke="midnightblue" d="M130.51,-224.19C98.59,-196.37 7.69,-109.08 57,-56 96.48,-13.49 513.7,-10.78 633.81,-10.88"/>
<polygon fill="midnightblue" stroke="midnightblue" points="633.85,-14.38 643.86,-10.9 633.86,-7.38 633.85,-14.38"/>
</g>
<!-- Node30&#45;&gt;Node21 -->
<g id="edge45" class="edge">
<title>Node30&#45;&gt;Node21</title>
<path fill="none" stroke="midnightblue" d="M188.06,-224.44C248.32,-213.49 351.28,-194.77 404.28,-185.13"/>
<polygon fill="midnightblue" stroke="midnightblue" points="404.98,-188.56 414.19,-183.33 403.72,-181.67 404.98,-188.56"/>
</g>
<!-- Node31&#45;&gt;Node5 -->
<g id="edge49" class="edge">
<title>Node31&#45;&gt;Node5</title>
<path fill="none" stroke="midnightblue" d="M522.67,-224.32C540.39,-215.62 567.9,-202.12 588.29,-192.11"/>
<polygon fill="midnightblue" stroke="midnightblue" points="589.94,-195.2 597.37,-187.65 586.85,-188.92 589.94,-195.2"/>
</g>
<!-- Node32 -->
<g id="node32" class="node">
<title>Node32</title>
<g id="a_node32"><a xlink:title=" ">
<polygon fill="white" stroke="#bfbfbf" points="480,-168.5 480,-187.5 536,-187.5 536,-168.5 480,-168.5"/>
<text text-anchor="middle" x="508" y="-175.5" font-family="Helvetica,sans-Serif" font-size="10.00">stddef.h</text>
</a>
</g>
</g>
<!-- Node31&#45;&gt;Node32 -->
<g id="edge48" class="edge">
<title>Node31&#45;&gt;Node32</title>
<path fill="none" stroke="midnightblue" d="M505.5,-224.08C505.89,-217.01 506.45,-206.86 506.95,-197.99"/>
<polygon fill="midnightblue" stroke="midnightblue" points="510.45,-197.93 507.51,-187.75 503.46,-197.54 510.45,-197.93"/>
</g>
<!-- Node33&#45;&gt;Node4 -->
<g id="edge54" class="edge">
<title>Node33&#45;&gt;Node4</title>
<path fill="none" stroke="midnightblue" d="M1031.27,-280.38C1047.9,-264.19 1082.28,-227.32 1095,-188 1107.6,-149.06 1078.06,-133.12 1043,-112 928.4,-42.98 766.32,-20.35 698.17,-13.6"/>
<polygon fill="midnightblue" stroke="midnightblue" points="698.34,-10.1 688.06,-12.65 697.69,-17.07 698.34,-10.1"/>
</g>
<!-- Node33&#45;&gt;Node5 -->
<g id="edge62" class="edge">
<title>Node33&#45;&gt;Node5</title>
<path fill="none" stroke="midnightblue" d="M938.24,-280.85C884.7,-274.2 814.25,-262.76 754,-244 748.24,-242.21 681.03,-210.4 642.22,-191.96"/>
<polygon fill="midnightblue" stroke="midnightblue" points="643.56,-188.72 633.02,-187.59 640.55,-195.04 643.56,-188.72"/>
</g>
<!-- Node34 -->
<g id="node34" class="node">
<title>Node34</title>
<g id="a_node34"><a xlink:href="Asserv_8hpp.html" target="_top" xlink:title=" ">
<polygon fill="white" stroke="black" points="1140.5,-224.5 1140.5,-243.5 1245.5,-243.5 1245.5,-224.5 1140.5,-224.5"/>
<text text-anchor="middle" x="1193" y="-231.5" font-family="Helvetica,sans-Serif" font-size="10.00">asserv/Asserv.hpp</text>
</a>
</g>
</g>
<!-- Node33&#45;&gt;Node34 -->
<g id="edge55" class="edge">
<title>Node33&#45;&gt;Node34</title>
<path fill="none" stroke="midnightblue" d="M1049.1,-280.44C1077.99,-271.32 1123.92,-256.81 1156.11,-246.65"/>
<polygon fill="midnightblue" stroke="midnightblue" points="1157.55,-249.87 1166.03,-243.52 1155.44,-243.19 1157.55,-249.87"/>
</g>
<!-- Node34&#45;&gt;Node4 -->
<g id="edge57" class="edge">
<title>Node34&#45;&gt;Node4</title>
<path fill="none" stroke="midnightblue" d="M1191.1,-224.35C1183.77,-191.87 1156.36,-77.92 1128,-56 1094.09,-29.79 797.46,-16.06 698.2,-12.17"/>
<polygon fill="midnightblue" stroke="midnightblue" points="698.29,-8.68 688.16,-11.79 698.02,-15.67 698.29,-8.68"/>
</g>
<!-- Node34&#45;&gt;Node5 -->
<g id="edge59" class="edge">
<title>Node34&#45;&gt;Node5</title>
<path fill="none" stroke="midnightblue" d="M1140.43,-228.09C1036.32,-218.36 803.84,-196.64 686.16,-185.65"/>
<polygon fill="midnightblue" stroke="midnightblue" points="686.45,-182.16 676.17,-184.71 685.8,-189.13 686.45,-182.16"/>
</g>
<!-- Node34&#45;&gt;Node24 -->
<g id="edge60" class="edge">
<title>Node34&#45;&gt;Node24</title>
<path fill="none" stroke="midnightblue" d="M1163.84,-224.44C1132.49,-215.24 1082.47,-200.56 1047.8,-190.39"/>
<polygon fill="midnightblue" stroke="midnightblue" points="1048.6,-186.97 1038.02,-187.52 1046.63,-193.69 1048.6,-186.97"/>
</g>
<!-- Node34&#45;&gt;Node26 -->
<g id="edge61" class="edge">
<title>Node34&#45;&gt;Node26</title>
<path fill="none" stroke="midnightblue" d="M1199.96,-224.45C1210.24,-211.88 1230.21,-187.78 1248,-168 1256.76,-158.26 1266.87,-147.65 1275.08,-139.18"/>
<polygon fill="midnightblue" stroke="midnightblue" points="1277.79,-141.42 1282.27,-131.82 1272.78,-136.53 1277.79,-141.42"/>
</g>
<!-- Node34&#45;&gt;Node27 -->
<g id="edge56" class="edge">
<title>Node34&#45;&gt;Node27</title>
<path fill="none" stroke="midnightblue" d="M1192.56,-224.36C1191.84,-203.9 1191.95,-151.26 1209,-112 1213.71,-101.15 1221.85,-90.81 1229.29,-82.79"/>
<polygon fill="midnightblue" stroke="midnightblue" points="1231.84,-85.2 1236.35,-75.61 1226.85,-80.29 1231.84,-85.2"/>
</g>
<!-- Node35 -->
<g id="node35" class="node">
<title>Node35</title>
<g id="a_node35"><a xlink:title=" ">
<polygon fill="white" stroke="#bfbfbf" points="1256.5,-168.5 1256.5,-187.5 1297.5,-187.5 1297.5,-168.5 1256.5,-168.5"/>
<text text-anchor="middle" x="1277" y="-175.5" font-family="Helvetica,sans-Serif" font-size="10.00">tuple</text>
</a>
</g>
</g>
<!-- Node34&#45;&gt;Node35 -->
<g id="edge58" class="edge">
<title>Node34&#45;&gt;Node35</title>
<path fill="none" stroke="midnightblue" d="M1206.5,-224.32C1219.6,-215.9 1239.71,-202.97 1255.11,-193.07"/>
<polygon fill="midnightblue" stroke="midnightblue" points="1257.02,-196.01 1263.54,-187.65 1253.23,-190.12 1257.02,-196.01"/>
</g>
<!-- Node36&#45;&gt;Node5 -->
<g id="edge65" class="edge">
<title>Node36&#45;&gt;Node5</title>
<path fill="none" stroke="midnightblue" d="M709.57,-336.26C708.15,-315.14 702.13,-260.37 677,-224 668,-210.97 653.95,-200.32 641.5,-192.66"/>
<polygon fill="midnightblue" stroke="midnightblue" points="643.22,-189.61 632.82,-187.62 639.71,-195.67 643.22,-189.61"/>
</g>
<!-- Node36&#45;&gt;Node22 -->
<g id="edge64" class="edge">
<title>Node36&#45;&gt;Node22</title>
<path fill="none" stroke="midnightblue" d="M696.99,-336.32C684.47,-327.98 665.32,-315.21 650.53,-305.35"/>
<polygon fill="midnightblue" stroke="midnightblue" points="652.24,-302.29 641.98,-299.65 648.36,-308.11 652.24,-302.29"/>
</g>
</g>
</svg>
