<?xml version="1.0" encoding="UTF-8" standalone="no"?>
<!DOCTYPE svg PUBLIC "-//W3C//DTD SVG 1.1//EN"
 "http://www.w3.org/Graphics/SVG/1.1/DTD/svg11.dtd">
<!-- Generated by graphviz version 2.43.0 (0)
 -->
<!-- Title: src/bot&#45;opos6ul/O_ServoObjectsTest.hpp Pages: 1 -->
<svg width="338pt" height="106pt"
 viewBox="0.00 0.00 337.50 106.00" xmlns="http://www.w3.org/2000/svg" xmlns:xlink="http://www.w3.org/1999/xlink">
<g id="graph0" class="graph" transform="scale(1 1) rotate(0) translate(4 102)">
<title>src/bot&#45;opos6ul/O_ServoObjectsTest.hpp</title>
<polygon fill="white" stroke="transparent" points="-4,4 -4,-102 333.5,-102 333.5,4 -4,4"/>
<!-- Node1 -->
<g id="node1" class="node">
<title>Node1</title>
<g id="a_node1"><a xlink:title="Définition de la classe O_ServoObjectsTest.">
<polygon fill="#bfbfbf" stroke="black" points="70.5,-67.5 70.5,-97.5 242.5,-97.5 242.5,-67.5 70.5,-67.5"/>
<text text-anchor="start" x="78.5" y="-85.5" font-family="Helvetica,sans-Serif" font-size="10.00">src/bot&#45;opos6ul/O_ServoObjects</text>
<text text-anchor="middle" x="156.5" y="-74.5" font-family="Helvetica,sans-Serif" font-size="10.00">Test.hpp</text>
</a>
</g>
</g>
<!-- Node2 -->
<g id="node2" class="node">
<title>Node2</title>
<g id="a_node2"><a xlink:href="src_2bot-opos6ul_2Main_8cpp.html" target="_top" xlink:title=" ">
<polygon fill="white" stroke="black" points="0,-6 0,-25 139,-25 139,-6 0,-6"/>
<text text-anchor="middle" x="69.5" y="-13" font-family="Helvetica,sans-Serif" font-size="10.00">src/bot&#45;opos6ul/Main.cpp</text>
</a>
</g>
</g>
<!-- Node1&#45;&gt;Node2 -->
<g id="edge1" class="edge">
<title>Node1&#45;&gt;Node2</title>
<path fill="none" stroke="midnightblue" d="M129.52,-61.34C113.28,-49.21 93.44,-34.39 81.14,-25.19"/>
<polygon fill="midnightblue" stroke="midnightblue" points="127.52,-64.21 137.62,-67.4 131.71,-58.61 127.52,-64.21"/>
</g>
<!-- Node3 -->
<g id="node3" class="node">
<title>Node3</title>
<g id="a_node3"><a xlink:href="O__ServoObjectsTest_8cpp.html" target="_top" xlink:title="Implémentation de la classe O_ServoObjectsTest.">
<polygon fill="white" stroke="black" points="157.5,-0.5 157.5,-30.5 329.5,-30.5 329.5,-0.5 157.5,-0.5"/>
<text text-anchor="start" x="165.5" y="-18.5" font-family="Helvetica,sans-Serif" font-size="10.00">src/bot&#45;opos6ul/O_ServoObjects</text>
<text text-anchor="middle" x="243.5" y="-7.5" font-family="Helvetica,sans-Serif" font-size="10.00">Test.cpp</text>
</a>
</g>
</g>
<!-- Node1&#45;&gt;Node3 -->
<g id="edge2" class="edge">
<title>Node1&#45;&gt;Node3</title>
<path fill="none" stroke="midnightblue" d="M183.71,-61.17C197.02,-51.23 212.7,-39.51 224.66,-30.58"/>
<polygon fill="midnightblue" stroke="midnightblue" points="181.29,-58.61 175.38,-67.4 185.48,-64.21 181.29,-58.61"/>
</g>
</g>
</svg>
