<?xml version="1.0" encoding="UTF-8" standalone="no"?>
<!DOCTYPE svg PUBLIC "-//W3C//DTD SVG 1.1//EN"
 "http://www.w3.org/Graphics/SVG/1.1/DTD/svg11.dtd">
<!-- Generated by graphviz version 2.43.0 (0)
 -->
<!-- Title: src/bot&#45;opos6ul/OPOS6UL_IAExtended.cpp Pages: 1 -->
<!--zoomable 487 -->
<svg id="main" version="1.1" xmlns="http://www.w3.org/2000/svg" xmlns:xlink="http://www.w3.org/1999/xlink" xml:space="preserve" onload="init(evt)">
<style type="text/css"><![CDATA[
.edge:hover path { stroke: red; }
.edge:hover polygon { stroke: red; fill: red; }
]]></style>
<script type="text/javascript"><![CDATA[
var edges = document.getElementsByTagName('g');
if (edges && edges.length) {
  for (var i=0;i<edges.length;i++) {
    if (edges[i].id.substr(0,4)=='edge') {
      edges[i].setAttribute('class','edge');
    }
  }
}
]]></script>
        <defs>
                <circle id="rim" cx="0" cy="0" r="7"/>
                <circle id="rim2" cx="0" cy="0" r="3.5"/>
                <g id="zoomPlus">
                        <use xlink:href="#rim" fill="#404040">
                                <set attributeName="fill" to="#808080" begin="zoomplus.mouseover" end="zoomplus.mouseout"/>
                        </use>
                        <path d="M-4,0h8M0,-4v8" fill="none" stroke="white" stroke-width="1.5" pointer-events="none"/>
                </g>
                <g id="zoomMin">
                        <use xlink:href="#rim" fill="#404040">
                                <set attributeName="fill" to="#808080" begin="zoomminus.mouseover" end="zoomminus.mouseout"/>
                        </use>
                        <path d="M-4,0h8" fill="none" stroke="white" stroke-width="1.5" pointer-events="none"/>
                </g>
                <g id="dirArrow">
                        <path fill="none" stroke="white" stroke-width="1.5" d="M0,-3.0v7 M-2.5,-0.5L0,-3.0L2.5,-0.5"/>
                </g>
               <g id="resetDef">
                       <use xlink:href="#rim2" fill="#404040">
                               <set attributeName="fill" to="#808080" begin="reset.mouseover" end="reset.mouseout"/>
                       </use>
               </g>
        </defs>

<script type="text/javascript">
var viewWidth = 1372;
var viewHeight = 487;
var sectionId = 'dynsection-0';
</script>
<script xlink:href="svgpan.js"/>
<svg id="graph" class="graph">
<g id="viewport">
<title>src/bot&#45;opos6ul/OPOS6UL_IAExtended.cpp</title>
<polygon fill="white" stroke="transparent" points="-4,4 -4,-483 1367.99,-483 1367.99,4 -4,4"/>
<!-- Node1 -->
<g id="node1" class="node">
<title>Node1</title>
<g id="a_node1"><a xlink:title=" ">
<polygon fill="#bfbfbf" stroke="black" points="44.5,-448.5 44.5,-478.5 184.5,-478.5 184.5,-448.5 44.5,-448.5"/>
<text text-anchor="start" x="52.5" y="-466.5" font-family="Helvetica,sans-Serif" font-size="10.00">src/bot&#45;opos6ul/OPOS6UL</text>
<text text-anchor="middle" x="114.5" y="-455.5" font-family="Helvetica,sans-Serif" font-size="10.00">_IAExtended.cpp</text>
</a>
</g>
</g>
<!-- Node2 -->
<g id="node2" class="node">
<title>Node2</title>
<g id="a_node2"><a xlink:href="OPOS6UL__IAExtended_8hpp.html" target="_top" xlink:title="Extension de l&#39;intelligence artificielle pour la carte OPOS6UL.">
<polygon fill="white" stroke="black" points="92.5,-392.5 92.5,-411.5 236.5,-411.5 236.5,-392.5 92.5,-392.5"/>
<text text-anchor="middle" x="164.5" y="-399.5" font-family="Helvetica,sans-Serif" font-size="10.00">OPOS6UL_IAExtended.hpp</text>
</a>
</g>
</g>
<!-- Node1&#45;&gt;Node2 -->
<g id="edge1" class="edge">
<title>Node1&#45;&gt;Node2</title>
<path fill="none" stroke="midnightblue" d="M126.35,-448.4C133.61,-439.75 142.95,-428.64 150.57,-419.58"/>
<polygon fill="midnightblue" stroke="midnightblue" points="153.47,-421.57 157.22,-411.66 148.11,-417.06 153.47,-421.57"/>
</g>
<!-- Node3 -->
<g id="node3" class="node">
<title>Node3</title>
<g id="a_node3"><a xlink:title=" ">
<polygon fill="white" stroke="#bfbfbf" points="0,-336.5 0,-355.5 129,-355.5 129,-336.5 0,-336.5"/>
<text text-anchor="middle" x="64.5" y="-343.5" font-family="Helvetica,sans-Serif" font-size="10.00">pmr_symmetrical_pg.h</text>
</a>
</g>
</g>
<!-- Node1&#45;&gt;Node3 -->
<g id="edge57" class="edge">
<title>Node1&#45;&gt;Node3</title>
<path fill="none" stroke="midnightblue" d="M104.48,-448.47C97.81,-438.64 89.26,-424.98 83.5,-412 76.8,-396.89 71.72,-378.76 68.51,-365.5"/>
<polygon fill="midnightblue" stroke="midnightblue" points="71.91,-364.63 66.26,-355.67 65.08,-366.2 71.91,-364.63"/>
</g>
<!-- Node2&#45;&gt;Node3 -->
<g id="edge2" class="edge">
<title>Node2&#45;&gt;Node3</title>
<path fill="none" stroke="midnightblue" d="M148.43,-392.32C132.54,-383.74 107.99,-370.49 89.54,-360.52"/>
<polygon fill="midnightblue" stroke="midnightblue" points="90.99,-357.33 80.53,-355.65 87.66,-363.49 90.99,-357.33"/>
</g>
<!-- Node4 -->
<g id="node4" class="node">
<title>Node4</title>
<g id="a_node4"><a xlink:title=" ">
<polygon fill="white" stroke="#bfbfbf" points="708.5,-0.5 708.5,-19.5 752.5,-19.5 752.5,-0.5 708.5,-0.5"/>
<text text-anchor="middle" x="730.5" y="-7.5" font-family="Helvetica,sans-Serif" font-size="10.00">string</text>
</a>
</g>
</g>
<!-- Node2&#45;&gt;Node4 -->
<g id="edge3" class="edge">
<title>Node2&#45;&gt;Node4</title>
<path fill="none" stroke="midnightblue" d="M163.58,-392.45C161.69,-373.97 157.5,-328.89 157.5,-291 157.5,-291 157.5,-291 157.5,-121 157.5,-70.21 203.77,-73.38 251.5,-56 334.07,-25.92 604.52,-14.89 698.2,-11.91"/>
<polygon fill="midnightblue" stroke="midnightblue" points="698.59,-15.4 708.48,-11.59 698.38,-8.4 698.59,-15.4"/>
</g>
<!-- Node5 -->
<g id="node5" class="node">
<title>Node5</title>
<g id="a_node5"><a xlink:href="IAbyPath_8hpp.html" target="_top" xlink:title=" ">
<polygon fill="white" stroke="black" points="497.5,-336.5 497.5,-355.5 589.5,-355.5 589.5,-336.5 497.5,-336.5"/>
<text text-anchor="middle" x="543.5" y="-343.5" font-family="Helvetica,sans-Serif" font-size="10.00">ia/IAbyPath.hpp</text>
</a>
</g>
</g>
<!-- Node2&#45;&gt;Node5 -->
<g id="edge4" class="edge">
<title>Node2&#45;&gt;Node5</title>
<path fill="none" stroke="midnightblue" d="M224.55,-392.44C296.77,-382.15 417.03,-365.02 487.42,-354.99"/>
<polygon fill="midnightblue" stroke="midnightblue" points="488.03,-358.44 497.44,-353.56 487.04,-351.51 488.03,-358.44"/>
</g>
<!-- Node34 -->
<g id="node34" class="node">
<title>Node34</title>
<g id="a_node34"><a xlink:href="IAbyZone_8hpp.html" target="_top" xlink:title=" ">
<polygon fill="white" stroke="black" points="203.5,-336.5 203.5,-355.5 299.5,-355.5 299.5,-336.5 203.5,-336.5"/>
<text text-anchor="middle" x="251.5" y="-343.5" font-family="Helvetica,sans-Serif" font-size="10.00">ia/IAbyZone.hpp</text>
</a>
</g>
</g>
<!-- Node2&#45;&gt;Node34 -->
<g id="edge53" class="edge">
<title>Node2&#45;&gt;Node34</title>
<path fill="none" stroke="midnightblue" d="M178.48,-392.32C192.05,-383.9 212.88,-370.97 228.82,-361.07"/>
<polygon fill="midnightblue" stroke="midnightblue" points="230.91,-363.9 237.56,-355.65 227.21,-357.95 230.91,-363.9"/>
</g>
<!-- Node5&#45;&gt;Node4 -->
<g id="edge7" class="edge">
<title>Node5&#45;&gt;Node4</title>
<path fill="none" stroke="midnightblue" d="M515.17,-336.46C438.64,-312.56 233.5,-242.57 233.5,-179 233.5,-179 233.5,-179 233.5,-121 233.5,-82.87 255.69,-73.63 289.5,-56 360.73,-18.86 609.06,-12.37 698.27,-11.24"/>
<polygon fill="midnightblue" stroke="midnightblue" points="698.38,-14.74 708.34,-11.12 698.3,-7.74 698.38,-14.74"/>
</g>
<!-- Node6 -->
<g id="node6" class="node">
<title>Node6</title>
<g id="a_node6"><a xlink:title=" ">
<polygon fill="white" stroke="#bfbfbf" points="1142,-280.5 1142,-299.5 1247,-299.5 1247,-280.5 1142,-280.5"/>
<text text-anchor="middle" x="1194.5" y="-287.5" font-family="Helvetica,sans-Serif" font-size="10.00">pmr_playground.h</text>
</a>
</g>
</g>
<!-- Node5&#45;&gt;Node6 -->
<g id="edge5" class="edge">
<title>Node5&#45;&gt;Node6</title>
<path fill="none" stroke="midnightblue" d="M589.76,-342.33C688.63,-336.42 927.77,-321.09 1127.5,-300 1128.96,-299.85 1130.44,-299.69 1131.92,-299.52"/>
<polygon fill="midnightblue" stroke="midnightblue" points="1132.34,-302.99 1141.87,-298.36 1131.53,-296.04 1132.34,-302.99"/>
</g>
<!-- Node7 -->
<g id="node7" class="node">
<title>Node7</title>
<g id="a_node7"><a xlink:title=" ">
<polygon fill="white" stroke="#bfbfbf" points="828.5,-56.5 828.5,-75.5 884.5,-75.5 884.5,-56.5 828.5,-56.5"/>
<text text-anchor="middle" x="856.5" y="-63.5" font-family="Helvetica,sans-Serif" font-size="10.00">sstream</text>
</a>
</g>
</g>
<!-- Node5&#45;&gt;Node7 -->
<g id="edge6" class="edge">
<title>Node5&#45;&gt;Node7</title>
<path fill="none" stroke="midnightblue" d="M545.33,-336.33C553.73,-297.56 589.73,-140.68 628.5,-112 658.12,-90.09 761.52,-76.54 818.35,-70.57"/>
<polygon fill="midnightblue" stroke="midnightblue" points="818.8,-74.04 828.39,-69.54 818.09,-67.08 818.8,-74.04"/>
</g>
<!-- Node8 -->
<g id="node8" class="node">
<title>Node8</title>
<g id="a_node8"><a xlink:href="LoggerFactory_8hpp.html" target="_top" xlink:title="Définition de la classe LoggerFactory.">
<polygon fill="white" stroke="black" points="1014.5,-168.5 1014.5,-187.5 1136.5,-187.5 1136.5,-168.5 1014.5,-168.5"/>
<text text-anchor="middle" x="1075.5" y="-175.5" font-family="Helvetica,sans-Serif" font-size="10.00">log/LoggerFactory.hpp</text>
</a>
</g>
</g>
<!-- Node5&#45;&gt;Node8 -->
<g id="edge8" class="edge">
<title>Node5&#45;&gt;Node8</title>
<path fill="none" stroke="midnightblue" d="M589.9,-344.69C715.67,-343.37 1055.95,-336.42 1089.5,-300 1115.43,-271.85 1097.7,-223.03 1085.08,-196.83"/>
<polygon fill="midnightblue" stroke="midnightblue" points="1088.09,-195.03 1080.44,-187.7 1081.85,-198.2 1088.09,-195.03"/>
</g>
<!-- Node17 -->
<g id="node17" class="node">
<title>Node17</title>
<g id="a_node17"><a xlink:href="AAsservDriver_8hpp.html" target="_top" xlink:title="Interface abstraite du driver d&#39;asservissement.">
<polygon fill="white" stroke="black" points="398,-224.5 398,-243.5 551,-243.5 551,-224.5 398,-224.5"/>
<text text-anchor="middle" x="474.5" y="-231.5" font-family="Helvetica,sans-Serif" font-size="10.00">interface/AAsservDriver.hpp</text>
</a>
</g>
</g>
<!-- Node5&#45;&gt;Node17 -->
<g id="edge24" class="edge">
<title>Node5&#45;&gt;Node17</title>
<path fill="none" stroke="midnightblue" d="M538.09,-336.37C526.75,-318.3 500.33,-276.18 485.36,-252.31"/>
<polygon fill="midnightblue" stroke="midnightblue" points="488.17,-250.2 479.89,-243.59 482.24,-253.92 488.17,-250.2"/>
</g>
<!-- Node23 -->
<g id="node23" class="node">
<title>Node23</title>
<g id="a_node23"><a xlink:href="Robot_8hpp.html" target="_top" xlink:title=" ">
<polygon fill="white" stroke="black" points="724,-280.5 724,-299.5 799,-299.5 799,-280.5 724,-280.5"/>
<text text-anchor="middle" x="761.5" y="-287.5" font-family="Helvetica,sans-Serif" font-size="10.00">../Robot.hpp</text>
</a>
</g>
</g>
<!-- Node5&#45;&gt;Node23 -->
<g id="edge32" class="edge">
<title>Node5&#45;&gt;Node23</title>
<path fill="none" stroke="midnightblue" d="M578.04,-336.44C615.75,-327.1 676.24,-312.12 717.36,-301.93"/>
<polygon fill="midnightblue" stroke="midnightblue" points="718.25,-305.32 727.12,-299.52 716.57,-298.52 718.25,-305.32"/>
</g>
<!-- Node33 -->
<g id="node33" class="node">
<title>Node33</title>
<g id="a_node33"><a xlink:href="IACommon_8hpp.html" target="_top" xlink:title=" ">
<polygon fill="white" stroke="black" points="223.5,-280.5 223.5,-299.5 315.5,-299.5 315.5,-280.5 223.5,-280.5"/>
<text text-anchor="middle" x="269.5" y="-287.5" font-family="Helvetica,sans-Serif" font-size="10.00">IACommon.hpp</text>
</a>
</g>
</g>
<!-- Node5&#45;&gt;Node33 -->
<g id="edge52" class="edge">
<title>Node5&#45;&gt;Node33</title>
<path fill="none" stroke="midnightblue" d="M500.08,-336.44C451.98,-326.96 374.41,-311.67 322.69,-301.48"/>
<polygon fill="midnightblue" stroke="midnightblue" points="323.2,-298.02 312.71,-299.52 321.85,-304.88 323.2,-298.02"/>
</g>
<!-- Node8&#45;&gt;Node4 -->
<g id="edge10" class="edge">
<title>Node8&#45;&gt;Node4</title>
<path fill="none" stroke="midnightblue" d="M1077.17,-168.32C1079.25,-155.6 1081.81,-131.31 1075.5,-112 1065.91,-82.68 1060.91,-71.94 1034.5,-56 989.19,-28.66 831.54,-16.67 762.88,-12.66"/>
<polygon fill="midnightblue" stroke="midnightblue" points="762.83,-9.15 752.65,-12.08 762.44,-16.14 762.83,-9.15"/>
</g>
<!-- Node9 -->
<g id="node9" class="node">
<title>Node9</title>
<g id="a_node9"><a xlink:title=" ">
<polygon fill="white" stroke="#bfbfbf" points="940.5,-112.5 940.5,-131.5 978.5,-131.5 978.5,-112.5 940.5,-112.5"/>
<text text-anchor="middle" x="959.5" y="-119.5" font-family="Helvetica,sans-Serif" font-size="10.00">map</text>
</a>
</g>
</g>
<!-- Node8&#45;&gt;Node9 -->
<g id="edge9" class="edge">
<title>Node8&#45;&gt;Node9</title>
<path fill="none" stroke="midnightblue" d="M1057.12,-168.44C1038.28,-159.68 1008.77,-145.94 987.12,-135.86"/>
<polygon fill="midnightblue" stroke="midnightblue" points="988.34,-132.56 977.79,-131.52 985.38,-138.91 988.34,-132.56"/>
</g>
<!-- Node10 -->
<g id="node10" class="node">
<title>Node10</title>
<g id="a_node10"><a xlink:href="Thread_8hpp.html" target="_top" xlink:title="Définition de la classe Thread.">
<polygon fill="white" stroke="black" points="1164,-112.5 1164,-131.5 1279,-131.5 1279,-112.5 1164,-112.5"/>
<text text-anchor="middle" x="1221.5" y="-119.5" font-family="Helvetica,sans-Serif" font-size="10.00">../thread/Thread.hpp</text>
</a>
</g>
</g>
<!-- Node8&#45;&gt;Node10 -->
<g id="edge11" class="edge">
<title>Node8&#45;&gt;Node10</title>
<path fill="none" stroke="midnightblue" d="M1098.63,-168.44C1122.98,-159.44 1161.51,-145.19 1188.92,-135.05"/>
<polygon fill="midnightblue" stroke="midnightblue" points="1190.31,-138.27 1198.47,-131.52 1187.88,-131.7 1190.31,-138.27"/>
</g>
<!-- Node15 -->
<g id="node15" class="node">
<title>Node15</title>
<g id="a_node15"><a xlink:href="Logger_8hpp.html" target="_top" xlink:title="Définition de la classe Logger.">
<polygon fill="white" stroke="black" points="996.5,-112.5 996.5,-131.5 1066.5,-131.5 1066.5,-112.5 996.5,-112.5"/>
<text text-anchor="middle" x="1031.5" y="-119.5" font-family="Helvetica,sans-Serif" font-size="10.00">Logger.hpp</text>
</a>
</g>
</g>
<!-- Node8&#45;&gt;Node15 -->
<g id="edge18" class="edge">
<title>Node8&#45;&gt;Node15</title>
<path fill="none" stroke="midnightblue" d="M1068.23,-168.08C1061.96,-160.38 1052.71,-149.03 1045.07,-139.65"/>
<polygon fill="midnightblue" stroke="midnightblue" points="1047.66,-137.29 1038.63,-131.75 1042.23,-141.71 1047.66,-137.29"/>
</g>
<!-- Node10&#45;&gt;Node4 -->
<g id="edge13" class="edge">
<title>Node10&#45;&gt;Node4</title>
<path fill="none" stroke="midnightblue" d="M1205.53,-112.29C1174.45,-95.4 1107.89,-59.53 1096.5,-56 977.43,-19.05 827.73,-12.27 762.89,-11.15"/>
<polygon fill="midnightblue" stroke="midnightblue" points="762.56,-7.64 752.52,-11.01 762.47,-14.64 762.56,-7.64"/>
</g>
<!-- Node11 -->
<g id="node11" class="node">
<title>Node11</title>
<g id="a_node11"><a xlink:title=" ">
<polygon fill="white" stroke="#bfbfbf" points="1249,-0.5 1249,-19.5 1312,-19.5 1312,-0.5 1249,-0.5"/>
<text text-anchor="middle" x="1280.5" y="-7.5" font-family="Helvetica,sans-Serif" font-size="10.00">pthread.h</text>
</a>
</g>
</g>
<!-- Node10&#45;&gt;Node11 -->
<g id="edge12" class="edge">
<title>Node10&#45;&gt;Node11</title>
<path fill="none" stroke="midnightblue" d="M1279.09,-117.62C1308.2,-112.64 1341.15,-101.29 1359.5,-76 1375.5,-53.95 1343.96,-34.98 1316.1,-23.32"/>
<polygon fill="midnightblue" stroke="midnightblue" points="1317.07,-19.94 1306.49,-19.51 1314.49,-26.45 1317.07,-19.94"/>
</g>
<!-- Node12 -->
<g id="node12" class="node">
<title>Node12</title>
<g id="a_node12"><a xlink:title=" ">
<polygon fill="white" stroke="#bfbfbf" points="1302.5,-56.5 1302.5,-75.5 1350.5,-75.5 1350.5,-56.5 1302.5,-56.5"/>
<text text-anchor="middle" x="1326.5" y="-63.5" font-family="Helvetica,sans-Serif" font-size="10.00">thread</text>
</a>
</g>
</g>
<!-- Node10&#45;&gt;Node12 -->
<g id="edge14" class="edge">
<title>Node10&#45;&gt;Node12</title>
<path fill="none" stroke="midnightblue" d="M1238.37,-112.32C1255.21,-103.66 1281.31,-90.24 1300.74,-80.25"/>
<polygon fill="midnightblue" stroke="midnightblue" points="1302.38,-83.34 1309.67,-75.65 1299.18,-77.12 1302.38,-83.34"/>
</g>
<!-- Node13 -->
<g id="node13" class="node">
<title>Node13</title>
<g id="a_node13"><a xlink:href="Mutex_8hpp.html" target="_top" xlink:title="Définition de la classe Mutex.">
<polygon fill="white" stroke="black" points="1148.5,-56.5 1148.5,-75.5 1216.5,-75.5 1216.5,-56.5 1148.5,-56.5"/>
<text text-anchor="middle" x="1182.5" y="-63.5" font-family="Helvetica,sans-Serif" font-size="10.00">Mutex.hpp</text>
</a>
</g>
</g>
<!-- Node10&#45;&gt;Node13 -->
<g id="edge15" class="edge">
<title>Node10&#45;&gt;Node13</title>
<path fill="none" stroke="midnightblue" d="M1215.06,-112.08C1209.55,-104.46 1201.47,-93.26 1194.74,-83.94"/>
<polygon fill="midnightblue" stroke="midnightblue" points="1197.51,-81.81 1188.82,-75.75 1191.84,-85.91 1197.51,-81.81"/>
</g>
<!-- Node14 -->
<g id="node14" class="node">
<title>Node14</title>
<g id="a_node14"><a xlink:title=" ">
<polygon fill="white" stroke="#bfbfbf" points="1234.5,-56.5 1234.5,-75.5 1284.5,-75.5 1284.5,-56.5 1234.5,-56.5"/>
<text text-anchor="middle" x="1259.5" y="-63.5" font-family="Helvetica,sans-Serif" font-size="10.00">chrono</text>
</a>
</g>
</g>
<!-- Node10&#45;&gt;Node14 -->
<g id="edge17" class="edge">
<title>Node10&#45;&gt;Node14</title>
<path fill="none" stroke="midnightblue" d="M1227.77,-112.08C1233.14,-104.46 1241.02,-93.26 1247.58,-83.94"/>
<polygon fill="midnightblue" stroke="midnightblue" points="1250.45,-85.94 1253.34,-75.75 1244.72,-81.91 1250.45,-85.94"/>
</g>
<!-- Node13&#45;&gt;Node11 -->
<g id="edge16" class="edge">
<title>Node13&#45;&gt;Node11</title>
<path fill="none" stroke="midnightblue" d="M1198.25,-56.32C1213.82,-47.74 1237.88,-34.49 1255.96,-24.52"/>
<polygon fill="midnightblue" stroke="midnightblue" points="1257.72,-27.55 1264.79,-19.65 1254.35,-21.42 1257.72,-27.55"/>
</g>
<!-- Node15&#45;&gt;Node4 -->
<g id="edge20" class="edge">
<title>Node15&#45;&gt;Node4</title>
<path fill="none" stroke="midnightblue" d="M1031.84,-112.33C1031.88,-98.25 1029.74,-70.51 1013.5,-56 976.95,-23.35 829.02,-14.3 762.81,-11.87"/>
<polygon fill="midnightblue" stroke="midnightblue" points="762.66,-8.36 752.55,-11.52 762.42,-15.35 762.66,-8.36"/>
</g>
<!-- Node15&#45;&gt;Node7 -->
<g id="edge19" class="edge">
<title>Node15&#45;&gt;Node7</title>
<path fill="none" stroke="midnightblue" d="M1003.77,-112.44C974.07,-103.28 926.78,-88.69 893.83,-78.52"/>
<polygon fill="midnightblue" stroke="midnightblue" points="894.69,-75.12 884.1,-75.52 892.62,-81.81 894.69,-75.12"/>
</g>
<!-- Node15&#45;&gt;Node13 -->
<g id="edge21" class="edge">
<title>Node15&#45;&gt;Node13</title>
<path fill="none" stroke="midnightblue" d="M1055.43,-112.44C1080.72,-103.4 1120.8,-89.06 1149.18,-78.92"/>
<polygon fill="midnightblue" stroke="midnightblue" points="1150.45,-82.18 1158.69,-75.52 1148.09,-75.59 1150.45,-82.18"/>
</g>
<!-- Node16 -->
<g id="node16" class="node">
<title>Node16</title>
<g id="a_node16"><a xlink:href="Level_8hpp.html" target="_top" xlink:title="Définition de la classe Level.">
<polygon fill="white" stroke="black" points="940.5,-56.5 940.5,-75.5 1004.5,-75.5 1004.5,-56.5 940.5,-56.5"/>
<text text-anchor="middle" x="972.5" y="-63.5" font-family="Helvetica,sans-Serif" font-size="10.00">Level.hpp</text>
</a>
</g>
</g>
<!-- Node15&#45;&gt;Node16 -->
<g id="edge22" class="edge">
<title>Node15&#45;&gt;Node16</title>
<path fill="none" stroke="midnightblue" d="M1022.02,-112.32C1013.3,-104.34 1000.16,-92.31 989.6,-82.65"/>
<polygon fill="midnightblue" stroke="midnightblue" points="991.89,-80 982.15,-75.83 987.17,-85.17 991.89,-80"/>
</g>
<!-- Node16&#45;&gt;Node4 -->
<g id="edge23" class="edge">
<title>Node16&#45;&gt;Node4</title>
<path fill="none" stroke="midnightblue" d="M940.36,-57.83C893.99,-47.48 808.79,-28.47 762.49,-18.14"/>
<polygon fill="midnightblue" stroke="midnightblue" points="763.21,-14.71 752.69,-15.95 761.69,-21.54 763.21,-14.71"/>
</g>
<!-- Node17&#45;&gt;Node4 -->
<g id="edge26" class="edge">
<title>Node17&#45;&gt;Node4</title>
<path fill="none" stroke="midnightblue" d="M488.87,-224.33C500.38,-216.47 515.69,-203.72 522.5,-188 545.86,-134.07 477.42,-101.6 514.5,-56 537.27,-28 643.55,-16.84 698.06,-12.9"/>
<polygon fill="midnightblue" stroke="midnightblue" points="698.5,-16.38 708.24,-12.2 698.02,-9.39 698.5,-16.38"/>
</g>
<!-- Node18 -->
<g id="node18" class="node">
<title>Node18</title>
<g id="a_node18"><a xlink:title=" ">
<polygon fill="white" stroke="#bfbfbf" points="463.5,-168.5 463.5,-187.5 513.5,-187.5 513.5,-168.5 463.5,-168.5"/>
<text text-anchor="middle" x="488.5" y="-175.5" font-family="Helvetica,sans-Serif" font-size="10.00">cstdint</text>
</a>
</g>
</g>
<!-- Node17&#45;&gt;Node18 -->
<g id="edge25" class="edge">
<title>Node17&#45;&gt;Node18</title>
<path fill="none" stroke="midnightblue" d="M476.81,-224.08C478.67,-216.93 481.34,-206.64 483.65,-197.69"/>
<polygon fill="midnightblue" stroke="midnightblue" points="487.11,-198.31 486.23,-187.75 480.33,-196.55 487.11,-198.31"/>
</g>
<!-- Node19 -->
<g id="node19" class="node">
<title>Node19</title>
<g id="a_node19"><a xlink:href="ARobotPositionShared_8hpp.html" target="_top" xlink:title="Position partagee du robot et utilitaires geometriques.">
<polygon fill="white" stroke="black" points="299.5,-168.5 299.5,-187.5 445.5,-187.5 445.5,-168.5 299.5,-168.5"/>
<text text-anchor="middle" x="372.5" y="-175.5" font-family="Helvetica,sans-Serif" font-size="10.00">ARobotPositionShared.hpp</text>
</a>
</g>
</g>
<!-- Node17&#45;&gt;Node19 -->
<g id="edge27" class="edge">
<title>Node17&#45;&gt;Node19</title>
<path fill="none" stroke="midnightblue" d="M458.11,-224.32C441.83,-215.7 416.63,-202.36 397.78,-192.39"/>
<polygon fill="midnightblue" stroke="midnightblue" points="399.32,-189.24 388.85,-187.65 396.05,-195.43 399.32,-189.24"/>
</g>
<!-- Node20 -->
<g id="node20" class="node">
<title>Node20</title>
<g id="a_node20"><a xlink:title=" ">
<polygon fill="white" stroke="#bfbfbf" points="413,-112.5 413,-131.5 460,-131.5 460,-112.5 413,-112.5"/>
<text text-anchor="middle" x="436.5" y="-119.5" font-family="Helvetica,sans-Serif" font-size="10.00">cmath</text>
</a>
</g>
</g>
<!-- Node19&#45;&gt;Node20 -->
<g id="edge28" class="edge">
<title>Node19&#45;&gt;Node20</title>
<path fill="none" stroke="midnightblue" d="M382.78,-168.32C392.34,-160.26 406.78,-148.08 418.28,-138.37"/>
<polygon fill="midnightblue" stroke="midnightblue" points="420.64,-140.96 426.03,-131.83 416.13,-135.61 420.64,-140.96"/>
</g>
<!-- Node21 -->
<g id="node21" class="node">
<title>Node21</title>
<g id="a_node21"><a xlink:href="Chronometer_8hpp.html" target="_top" xlink:title="Définition de la classe Chronometer.">
<polygon fill="white" stroke="black" points="270,-112.5 270,-131.5 395,-131.5 395,-112.5 270,-112.5"/>
<text text-anchor="middle" x="332.5" y="-119.5" font-family="Helvetica,sans-Serif" font-size="10.00">utils/Chronometer.hpp</text>
</a>
</g>
</g>
<!-- Node19&#45;&gt;Node21 -->
<g id="edge29" class="edge">
<title>Node19&#45;&gt;Node21</title>
<path fill="none" stroke="midnightblue" d="M365.89,-168.08C360.24,-160.46 351.96,-149.26 345.05,-139.94"/>
<polygon fill="midnightblue" stroke="midnightblue" points="347.75,-137.7 338.98,-131.75 342.12,-141.87 347.75,-137.7"/>
</g>
<!-- Node21&#45;&gt;Node4 -->
<g id="edge31" class="edge">
<title>Node21&#45;&gt;Node4</title>
<path fill="none" stroke="midnightblue" d="M349,-112.28C375.98,-98.37 431.55,-71.18 481.5,-56 557.5,-32.9 650.37,-19.98 698.36,-14.39"/>
<polygon fill="midnightblue" stroke="midnightblue" points="698.91,-17.85 708.45,-13.24 698.12,-10.89 698.91,-17.85"/>
</g>
<!-- Node22 -->
<g id="node22" class="node">
<title>Node22</title>
<g id="a_node22"><a xlink:title=" ">
<polygon fill="white" stroke="#bfbfbf" points="298.5,-56.5 298.5,-75.5 366.5,-75.5 366.5,-56.5 298.5,-56.5"/>
<text text-anchor="middle" x="332.5" y="-63.5" font-family="Helvetica,sans-Serif" font-size="10.00">sys/time.h</text>
</a>
</g>
</g>
<!-- Node21&#45;&gt;Node22 -->
<g id="edge30" class="edge">
<title>Node21&#45;&gt;Node22</title>
<path fill="none" stroke="midnightblue" d="M332.5,-112.08C332.5,-105.01 332.5,-94.86 332.5,-85.99"/>
<polygon fill="midnightblue" stroke="midnightblue" points="336,-85.75 332.5,-75.75 329,-85.75 336,-85.75"/>
</g>
<!-- Node23&#45;&gt;Node4 -->
<g id="edge34" class="edge">
<title>Node23&#45;&gt;Node4</title>
<path fill="none" stroke="midnightblue" d="M767.28,-280.44C776.7,-267 796.55,-240.75 818.5,-224 847.58,-201.81 872.96,-218.92 892.5,-188 923.84,-138.4 929.04,-102.68 893.5,-56 877.73,-35.28 805.56,-21.67 762.72,-15.26"/>
<polygon fill="midnightblue" stroke="midnightblue" points="763.17,-11.79 752.77,-13.83 762.16,-18.72 763.17,-11.79"/>
</g>
<!-- Node23&#45;&gt;Node8 -->
<g id="edge35" class="edge">
<title>Node23&#45;&gt;Node8</title>
<path fill="none" stroke="midnightblue" d="M799.4,-285.48C861.47,-279.2 981.58,-264.75 1018.5,-244 1038.65,-232.67 1055.19,-211.44 1065.17,-196.33"/>
<polygon fill="midnightblue" stroke="midnightblue" points="1068.14,-198.18 1070.5,-187.85 1062.21,-194.45 1068.14,-198.18"/>
</g>
<!-- Node23&#45;&gt;Node17 -->
<g id="edge42" class="edge">
<title>Node23&#45;&gt;Node17</title>
<path fill="none" stroke="midnightblue" d="M723.98,-281.94C674.53,-272.64 587.14,-256.19 530.03,-245.45"/>
<polygon fill="midnightblue" stroke="midnightblue" points="530.55,-241.99 520.08,-243.58 529.26,-248.86 530.55,-241.99"/>
</g>
<!-- Node23&#45;&gt;Node21 -->
<g id="edge51" class="edge">
<title>Node23&#45;&gt;Node21</title>
<path fill="none" stroke="midnightblue" d="M723.91,-289.34C655.41,-288.9 506.46,-283.04 388.5,-244 340.88,-228.24 315.68,-231.39 290.5,-188 280.37,-170.55 296.58,-151.2 311.71,-138.19"/>
<polygon fill="midnightblue" stroke="midnightblue" points="314.23,-140.66 319.84,-131.66 309.85,-135.2 314.23,-140.66"/>
</g>
<!-- Node24 -->
<g id="node24" class="node">
<title>Node24</title>
<g id="a_node24"><a xlink:title=" ">
<polygon fill="white" stroke="#bfbfbf" points="959.5,-224.5 959.5,-243.5 1009.5,-243.5 1009.5,-224.5 959.5,-224.5"/>
<text text-anchor="middle" x="984.5" y="-231.5" font-family="Helvetica,sans-Serif" font-size="10.00">stdio.h</text>
</a>
</g>
</g>
<!-- Node23&#45;&gt;Node24 -->
<g id="edge33" class="edge">
<title>Node23&#45;&gt;Node24</title>
<path fill="none" stroke="midnightblue" d="M797.94,-280.47C835.84,-271.55 896.9,-257.06 949.5,-244 949.6,-243.98 949.7,-243.95 949.8,-243.93"/>
<polygon fill="midnightblue" stroke="midnightblue" points="950.43,-247.37 959.28,-241.54 948.73,-240.59 950.43,-247.37"/>
</g>
<!-- Node25 -->
<g id="node25" class="node">
<title>Node25</title>
<g id="a_node25"><a xlink:href="Arguments_8hpp.html" target="_top" xlink:title=" ">
<polygon fill="white" stroke="black" points="769,-168.5 769,-187.5 884,-187.5 884,-168.5 769,-168.5"/>
<text text-anchor="middle" x="826.5" y="-175.5" font-family="Helvetica,sans-Serif" font-size="10.00">utils/Arguments.hpp</text>
</a>
</g>
</g>
<!-- Node23&#45;&gt;Node25 -->
<g id="edge36" class="edge">
<title>Node23&#45;&gt;Node25</title>
<path fill="none" stroke="midnightblue" d="M763.62,-280.11C766.96,-267.12 774.25,-242.5 785.5,-224 791.92,-213.43 801.04,-203.13 809.05,-195.05"/>
<polygon fill="midnightblue" stroke="midnightblue" points="811.79,-197.26 816.54,-187.79 806.92,-192.23 811.79,-197.26"/>
</g>
<!-- Node29 -->
<g id="node29" class="node">
<title>Node29</title>
<g id="a_node29"><a xlink:href="ConsoleManager_8hpp.html" target="_top" xlink:title="Définition de la classe ConsoleManager.">
<polygon fill="white" stroke="black" points="608,-168.5 608,-187.5 751,-187.5 751,-168.5 608,-168.5"/>
<text text-anchor="middle" x="679.5" y="-175.5" font-family="Helvetica,sans-Serif" font-size="10.00">utils/ConsoleManager.hpp</text>
</a>
</g>
</g>
<!-- Node23&#45;&gt;Node29 -->
<g id="edge43" class="edge">
<title>Node23&#45;&gt;Node29</title>
<path fill="none" stroke="midnightblue" d="M755.07,-280.37C741.47,-262.14 709.64,-219.43 691.93,-195.68"/>
<polygon fill="midnightblue" stroke="midnightblue" points="694.69,-193.52 685.9,-187.59 689.08,-197.7 694.69,-193.52"/>
</g>
<!-- Node31 -->
<g id="node31" class="node">
<title>Node31</title>
<g id="a_node31"><a xlink:href="Automate_8hpp.html" target="_top" xlink:title="Définition de la classe Automate.">
<polygon fill="white" stroke="black" points="828,-224.5 828,-243.5 941,-243.5 941,-224.5 828,-224.5"/>
<text text-anchor="middle" x="884.5" y="-231.5" font-family="Helvetica,sans-Serif" font-size="10.00">state/Automate.hpp</text>
</a>
</g>
</g>
<!-- Node23&#45;&gt;Node31 -->
<g id="edge48" class="edge">
<title>Node23&#45;&gt;Node31</title>
<path fill="none" stroke="midnightblue" d="M780.99,-280.44C801.14,-271.6 832.82,-257.69 855.83,-247.59"/>
<polygon fill="midnightblue" stroke="midnightblue" points="857.35,-250.74 865.1,-243.52 854.54,-244.33 857.35,-250.74"/>
</g>
<!-- Node25&#45;&gt;Node4 -->
<g id="edge40" class="edge">
<title>Node25&#45;&gt;Node4</title>
<path fill="none" stroke="midnightblue" d="M835.58,-168.1C847.26,-155.52 864.98,-131.85 855.5,-112 849.82,-100.1 784.32,-50.67 750.48,-25.65"/>
<polygon fill="midnightblue" stroke="midnightblue" points="752.36,-22.68 742.23,-19.57 748.21,-28.32 752.36,-22.68"/>
</g>
<!-- Node25&#45;&gt;Node9 -->
<g id="edge39" class="edge">
<title>Node25&#45;&gt;Node9</title>
<path fill="none" stroke="midnightblue" d="M847.57,-168.44C870.08,-159.31 905.87,-144.77 930.91,-134.61"/>
<polygon fill="midnightblue" stroke="midnightblue" points="932.3,-137.82 940.25,-130.82 929.67,-131.33 932.3,-137.82"/>
</g>
<!-- Node26 -->
<g id="node26" class="node">
<title>Node26</title>
<g id="a_node26"><a xlink:title=" ">
<polygon fill="white" stroke="#bfbfbf" points="703,-112.5 703,-131.5 768,-131.5 768,-112.5 703,-112.5"/>
<text text-anchor="middle" x="735.5" y="-119.5" font-family="Helvetica,sans-Serif" font-size="10.00">functional</text>
</a>
</g>
</g>
<!-- Node25&#45;&gt;Node26 -->
<g id="edge37" class="edge">
<title>Node25&#45;&gt;Node26</title>
<path fill="none" stroke="midnightblue" d="M811.88,-168.32C797.55,-159.82 775.49,-146.73 758.75,-136.8"/>
<polygon fill="midnightblue" stroke="midnightblue" points="760.47,-133.75 750.08,-131.65 756.9,-139.77 760.47,-133.75"/>
</g>
<!-- Node27 -->
<g id="node27" class="node">
<title>Node27</title>
<g id="a_node27"><a xlink:title=" ">
<polygon fill="white" stroke="#bfbfbf" points="786.5,-112.5 786.5,-131.5 846.5,-131.5 846.5,-112.5 786.5,-112.5"/>
<text text-anchor="middle" x="816.5" y="-119.5" font-family="Helvetica,sans-Serif" font-size="10.00">iostream</text>
</a>
</g>
</g>
<!-- Node25&#45;&gt;Node27 -->
<g id="edge38" class="edge">
<title>Node25&#45;&gt;Node27</title>
<path fill="none" stroke="midnightblue" d="M824.85,-168.08C823.52,-160.93 821.62,-150.64 819.96,-141.69"/>
<polygon fill="midnightblue" stroke="midnightblue" points="823.38,-140.95 818.12,-131.75 816.5,-142.22 823.38,-140.95"/>
</g>
<!-- Node28 -->
<g id="node28" class="node">
<title>Node28</title>
<g id="a_node28"><a xlink:title=" ">
<polygon fill="white" stroke="#bfbfbf" points="638,-112.5 638,-131.5 685,-131.5 685,-112.5 638,-112.5"/>
<text text-anchor="middle" x="661.5" y="-119.5" font-family="Helvetica,sans-Serif" font-size="10.00">vector</text>
</a>
</g>
</g>
<!-- Node25&#45;&gt;Node28 -->
<g id="edge41" class="edge">
<title>Node25&#45;&gt;Node28</title>
<path fill="none" stroke="midnightblue" d="M800.36,-168.44C771.74,-159.08 725.79,-144.04 694.66,-133.85"/>
<polygon fill="midnightblue" stroke="midnightblue" points="695.71,-130.51 685.12,-130.73 693.53,-137.17 695.71,-130.51"/>
</g>
<!-- Node29&#45;&gt;Node4 -->
<g id="edge44" class="edge">
<title>Node29&#45;&gt;Node4</title>
<path fill="none" stroke="midnightblue" d="M664.2,-168.36C645.91,-156.78 618.89,-135.03 628.5,-112 644.48,-73.69 682.84,-42.48 707.69,-25.35"/>
<polygon fill="midnightblue" stroke="midnightblue" points="709.8,-28.15 716.17,-19.68 705.91,-22.33 709.8,-28.15"/>
</g>
<!-- Node29&#45;&gt;Node28 -->
<g id="edge45" class="edge">
<title>Node29&#45;&gt;Node28</title>
<path fill="none" stroke="midnightblue" d="M676.53,-168.08C674.12,-160.85 670.64,-150.41 667.63,-141.4"/>
<polygon fill="midnightblue" stroke="midnightblue" points="670.9,-140.13 664.42,-131.75 664.26,-142.34 670.9,-140.13"/>
</g>
<!-- Node30 -->
<g id="node30" class="node">
<title>Node30</title>
<g id="a_node30"><a xlink:href="FunctionalTest_8hpp.html" target="_top" xlink:title="Class definition for functional tests.">
<polygon fill="white" stroke="black" points="524,-56.5 524,-75.5 631,-75.5 631,-56.5 524,-56.5"/>
<text text-anchor="middle" x="577.5" y="-63.5" font-family="Helvetica,sans-Serif" font-size="10.00">FunctionalTest.hpp</text>
</a>
</g>
</g>
<!-- Node29&#45;&gt;Node30 -->
<g id="edge46" class="edge">
<title>Node29&#45;&gt;Node30</title>
<path fill="none" stroke="midnightblue" d="M615.1,-168.43C593.14,-162.09 570.8,-151.08 557.5,-132 547.52,-117.68 555.74,-98.21 564.47,-84.33"/>
<polygon fill="midnightblue" stroke="midnightblue" points="567.59,-85.96 570.37,-75.73 561.82,-81.99 567.59,-85.96"/>
</g>
<!-- Node30&#45;&gt;Node4 -->
<g id="edge47" class="edge">
<title>Node30&#45;&gt;Node4</title>
<path fill="none" stroke="midnightblue" d="M601.74,-56.44C627.97,-47.19 669.9,-32.39 698.75,-22.21"/>
<polygon fill="midnightblue" stroke="midnightblue" points="700.09,-25.44 708.36,-18.82 697.76,-18.84 700.09,-25.44"/>
</g>
<!-- Node31&#45;&gt;Node8 -->
<g id="edge50" class="edge">
<title>Node31&#45;&gt;Node8</title>
<path fill="none" stroke="midnightblue" d="M914.76,-224.44C947.46,-215.2 999.68,-200.44 1035.68,-190.26"/>
<polygon fill="midnightblue" stroke="midnightblue" points="1036.71,-193.61 1045.38,-187.52 1034.8,-186.87 1036.71,-193.61"/>
</g>
<!-- Node32 -->
<g id="node32" class="node">
<title>Node32</title>
<g id="a_node32"><a xlink:title=" ">
<polygon fill="white" stroke="#bfbfbf" points="940.5,-168.5 940.5,-187.5 996.5,-187.5 996.5,-168.5 940.5,-168.5"/>
<text text-anchor="middle" x="968.5" y="-175.5" font-family="Helvetica,sans-Serif" font-size="10.00">stddef.h</text>
</a>
</g>
</g>
<!-- Node31&#45;&gt;Node32 -->
<g id="edge49" class="edge">
<title>Node31&#45;&gt;Node32</title>
<path fill="none" stroke="midnightblue" d="M898,-224.32C911.1,-215.9 931.21,-202.97 946.61,-193.07"/>
<polygon fill="midnightblue" stroke="midnightblue" points="948.52,-196.01 955.04,-187.65 944.73,-190.12 948.52,-196.01"/>
</g>
<!-- Node34&#45;&gt;Node8 -->
<g id="edge54" class="edge">
<title>Node34&#45;&gt;Node8</title>
<path fill="none" stroke="midnightblue" d="M299.76,-343.55C396.58,-340.1 621.2,-329.38 807.5,-300 914.41,-283.14 960.27,-311.96 1044.5,-244 1058.92,-232.36 1067.04,-212.41 1071.31,-197.68"/>
<polygon fill="midnightblue" stroke="midnightblue" points="1074.79,-198.2 1073.87,-187.65 1068.01,-196.47 1074.79,-198.2"/>
</g>
<!-- Node34&#45;&gt;Node19 -->
<g id="edge55" class="edge">
<title>Node34&#45;&gt;Node19</title>
<path fill="none" stroke="midnightblue" d="M240.2,-336.22C225.62,-323.78 203.4,-300.27 214.5,-280 239.84,-233.73 296.39,-205.58 334.5,-191.14"/>
<polygon fill="midnightblue" stroke="midnightblue" points="336.04,-194.3 344.24,-187.59 333.64,-187.72 336.04,-194.3"/>
</g>
<!-- Node34&#45;&gt;Node33 -->
<g id="edge56" class="edge">
<title>Node34&#45;&gt;Node33</title>
<path fill="none" stroke="midnightblue" d="M254.47,-336.08C256.88,-328.85 260.36,-318.41 263.37,-309.4"/>
<polygon fill="midnightblue" stroke="midnightblue" points="266.74,-310.34 266.58,-299.75 260.1,-308.13 266.74,-310.34"/>
</g>
</g>
</svg>
        <g id="navigator" transform="translate(0 0)" fill="#404254">
                <rect fill="#f2f5e9" fill-opacity="0.5" stroke="#606060" stroke-width=".5" x="0" y="0" width="60" height="60"/>
                <use id="zoomplus" xlink:href="#zoomPlus" x="17" y="9" onmousedown="handleZoom(evt,'in')"/>
                <use id="zoomminus" xlink:href="#zoomMin" x="42" y="9" onmousedown="handleZoom(evt,'out')"/>
                <use id="reset" xlink:href="#resetDef" x="30" y="36" onmousedown="handleReset()"/>
                <g id="arrowUp" xlink:href="#dirArrow" transform="translate(30 24)" onmousedown="handlePan(0,-1)">
                  <use xlink:href="#rim" fill="#404040">
                        <set attributeName="fill" to="#808080" begin="arrowUp.mouseover" end="arrowUp.mouseout"/>
                  </use>
                  <path fill="none" stroke="white" stroke-width="1.5" d="M0,-3.0v7 M-2.5,-0.5L0,-3.0L2.5,-0.5"/>
                </g>
                <g id="arrowRight" xlink:href="#dirArrow" transform="rotate(90) translate(36 -43)" onmousedown="handlePan(1,0)">
                  <use xlink:href="#rim" fill="#404040">
                        <set attributeName="fill" to="#808080" begin="arrowRight.mouseover" end="arrowRight.mouseout"/>
                  </use>
                  <path fill="none" stroke="white" stroke-width="1.5" d="M0,-3.0v7 M-2.5,-0.5L0,-3.0L2.5,-0.5"/>
                </g>
                <g id="arrowDown" xlink:href="#dirArrow" transform="rotate(180) translate(-30 -48)" onmousedown="handlePan(0,1)">
                  <use xlink:href="#rim" fill="#404040">
                        <set attributeName="fill" to="#808080" begin="arrowDown.mouseover" end="arrowDown.mouseout"/>
                  </use>
                  <path fill="none" stroke="white" stroke-width="1.5" d="M0,-3.0v7 M-2.5,-0.5L0,-3.0L2.5,-0.5"/>
                </g>
                <g id="arrowLeft" xlink:href="#dirArrow" transform="rotate(270) translate(-36 17)" onmousedown="handlePan(-1,0)">
                  <use xlink:href="#rim" fill="#404040">
                        <set attributeName="fill" to="#808080" begin="arrowLeft.mouseover" end="arrowLeft.mouseout"/>
                  </use>
                  <path fill="none" stroke="white" stroke-width="1.5" d="M0,-3.0v7 M-2.5,-0.5L0,-3.0L2.5,-0.5"/>
                </g>
        </g>
        <svg viewBox="0 0 15 15" width="100%" height="30px" preserveAspectRatio="xMaxYMin meet">
         <g id="arrow_out" transform="scale(0.3 0.3)">
          <a xlink:href="OPOS6UL__IAExtended_8cpp__incl_org.svg" target="_base">
           <rect id="button" ry="5" rx="5" y="6" x="6" height="38" width="38"
                fill="#f2f5e9" fill-opacity="0.5" stroke="#606060" stroke-width="1.0"/>
           <path id="arrow"
             d="M 11.500037,31.436501 C 11.940474,20.09759 22.043105,11.32322 32.158766,21.979434 L 37.068811,17.246167 C 37.068811,17.246167 37.088388,32 37.088388,32 L 22.160133,31.978069 C 22.160133,31.978069 26.997745,27.140456 26.997745,27.140456 C 18.528582,18.264221 13.291696,25.230495 11.500037,31.436501 z"
             style="fill:#404040;"/>
          </a>
         </g>
        </svg>
</svg>
