<?xml version="1.0" encoding="UTF-8" standalone="no"?>
<!DOCTYPE svg PUBLIC "-//W3C//DTD SVG 1.1//EN"
 "http://www.w3.org/Graphics/SVG/1.1/DTD/svg11.dtd">
<!-- Generated by graphviz version 2.43.0 (0)
 -->
<!-- Title: src/bot&#45;opos6ul/OPOS6UL_AsservExtended.hpp Pages: 1 -->
<!--zoomable 106 -->
<svg id="main" version="1.1" xmlns="http://www.w3.org/2000/svg" xmlns:xlink="http://www.w3.org/1999/xlink" xml:space="preserve" onload="init(evt)">
<style type="text/css"><![CDATA[
.edge:hover path { stroke: red; }
.edge:hover polygon { stroke: red; fill: red; }
]]></style>
<script type="text/javascript"><![CDATA[
var edges = document.getElementsByTagName('g');
if (edges && edges.length) {
  for (var i=0;i<edges.length;i++) {
    if (edges[i].id.substr(0,4)=='edge') {
      edges[i].setAttribute('class','edge');
    }
  }
}
]]></script>
        <defs>
                <circle id="rim" cx="0" cy="0" r="7"/>
                <circle id="rim2" cx="0" cy="0" r="3.5"/>
                <g id="zoomPlus">
                        <use xlink:href="#rim" fill="#404040">
                                <set attributeName="fill" to="#808080" begin="zoomplus.mouseover" end="zoomplus.mouseout"/>
                        </use>
                        <path d="M-4,0h8M0,-4v8" fill="none" stroke="white" stroke-width="1.5" pointer-events="none"/>
                </g>
                <g id="zoomMin">
                        <use xlink:href="#rim" fill="#404040">
                                <set attributeName="fill" to="#808080" begin="zoomminus.mouseover" end="zoomminus.mouseout"/>
                        </use>
                        <path d="M-4,0h8" fill="none" stroke="white" stroke-width="1.5" pointer-events="none"/>
                </g>
                <g id="dirArrow">
                        <path fill="none" stroke="white" stroke-width="1.5" d="M0,-3.0v7 M-2.5,-0.5L0,-3.0L2.5,-0.5"/>
                </g>
               <g id="resetDef">
                       <use xlink:href="#rim2" fill="#404040">
                               <set attributeName="fill" to="#808080" begin="reset.mouseover" end="reset.mouseout"/>
                       </use>
               </g>
        </defs>

<script type="text/javascript">
var viewWidth = 1903;
var viewHeight = 106;
var sectionId = 'dynsection-1';
</script>
<script xlink:href="svgpan.js"/>
<svg id="graph" class="graph">
<g id="viewport">
<title>src/bot&#45;opos6ul/OPOS6UL_AsservExtended.hpp</title>
<polygon fill="white" stroke="transparent" points="-4,4 -4,-102 1899,-102 1899,4 -4,4"/>
<!-- Node1 -->
<g id="node1" class="node">
<title>Node1</title>
<g id="a_node1"><a xlink:title="Extension de l&#39;asservissement pour la carte OPOS6UL.">
<polygon fill="#bfbfbf" stroke="black" points="871,-67.5 871,-97.5 1011,-97.5 1011,-67.5 871,-67.5"/>
<text text-anchor="start" x="879" y="-85.5" font-family="Helvetica,sans-Serif" font-size="10.00">src/bot&#45;opos6ul/OPOS6UL</text>
<text text-anchor="middle" x="941" y="-74.5" font-family="Helvetica,sans-Serif" font-size="10.00">_AsservExtended.hpp</text>
</a>
</g>
</g>
<!-- Node2 -->
<g id="node2" class="node">
<title>Node2</title>
<g id="a_node2"><a xlink:href="O__Asserv__CalageTest_8cpp.html" target="_top" xlink:title="Implémentation de la classe O_Asserv_CalageTest.">
<polygon fill="white" stroke="black" points="0,-0.5 0,-30.5 140,-30.5 140,-0.5 0,-0.5"/>
<text text-anchor="start" x="8" y="-18.5" font-family="Helvetica,sans-Serif" font-size="10.00">src/bot&#45;opos6ul/O_Asserv</text>
<text text-anchor="middle" x="70" y="-7.5" font-family="Helvetica,sans-Serif" font-size="10.00">_CalageTest.cpp</text>
</a>
</g>
</g>
<!-- Node1&#45;&gt;Node2 -->
<g id="edge1" class="edge">
<title>Node1&#45;&gt;Node2</title>
<path fill="none" stroke="midnightblue" d="M860.79,-79.51C717.45,-75.25 408.07,-62.92 149,-31 146.09,-30.64 143.13,-30.24 140.15,-29.82"/>
<polygon fill="midnightblue" stroke="midnightblue" points="860.72,-83.01 870.82,-79.8 860.92,-76.01 860.72,-83.01"/>
</g>
<!-- Node3 -->
<g id="node3" class="node">
<title>Node3</title>
<g id="a_node3"><a xlink:href="O__Asserv__SquareTest_8cpp.html" target="_top" xlink:title="Implémentation de la classe O_Asserv_SquareTest.">
<polygon fill="white" stroke="black" points="158,-0.5 158,-30.5 298,-30.5 298,-0.5 158,-0.5"/>
<text text-anchor="start" x="166" y="-18.5" font-family="Helvetica,sans-Serif" font-size="10.00">src/bot&#45;opos6ul/O_Asserv</text>
<text text-anchor="middle" x="228" y="-7.5" font-family="Helvetica,sans-Serif" font-size="10.00">_SquareTest.cpp</text>
</a>
</g>
</g>
<!-- Node1&#45;&gt;Node3 -->
<g id="edge2" class="edge">
<title>Node1&#45;&gt;Node3</title>
<path fill="none" stroke="midnightblue" d="M860.61,-77.73C739.98,-71.48 505.13,-57 307,-31 304.1,-30.62 301.14,-30.2 298.15,-29.76"/>
<polygon fill="midnightblue" stroke="midnightblue" points="860.7,-81.24 870.86,-78.26 861.05,-74.25 860.7,-81.24"/>
</g>
<!-- Node4 -->
<g id="node4" class="node">
<title>Node4</title>
<g id="a_node4"><a xlink:href="O__AsservCalibrationTest_8cpp.html" target="_top" xlink:title="Implémentation de la classe O_AsservCalibrationTest.">
<polygon fill="white" stroke="black" points="316,-0.5 316,-30.5 456,-30.5 456,-0.5 316,-0.5"/>
<text text-anchor="start" x="324" y="-18.5" font-family="Helvetica,sans-Serif" font-size="10.00">src/bot&#45;opos6ul/O_Asserv</text>
<text text-anchor="middle" x="386" y="-7.5" font-family="Helvetica,sans-Serif" font-size="10.00">CalibrationTest.cpp</text>
</a>
</g>
</g>
<!-- Node1&#45;&gt;Node4 -->
<g id="edge3" class="edge">
<title>Node1&#45;&gt;Node4</title>
<path fill="none" stroke="midnightblue" d="M860.53,-74.84C765.7,-66.55 603.48,-51.02 465,-31 462.1,-30.58 459.15,-30.13 456.17,-29.66"/>
<polygon fill="midnightblue" stroke="midnightblue" points="860.36,-78.34 870.62,-75.71 860.97,-71.36 860.36,-78.34"/>
</g>
<!-- Node5 -->
<g id="node5" class="node">
<title>Node5</title>
<g id="a_node5"><a xlink:href="O__AsservLineRotateTest_8cpp.html" target="_top" xlink:title="Implémentation de la classe O_AsservLineRotateTest.">
<polygon fill="white" stroke="black" points="474,-0.5 474,-30.5 614,-30.5 614,-0.5 474,-0.5"/>
<text text-anchor="start" x="482" y="-18.5" font-family="Helvetica,sans-Serif" font-size="10.00">src/bot&#45;opos6ul/O_Asserv</text>
<text text-anchor="middle" x="544" y="-7.5" font-family="Helvetica,sans-Serif" font-size="10.00">LineRotateTest.cpp</text>
</a>
</g>
</g>
<!-- Node1&#45;&gt;Node5 -->
<g id="edge4" class="edge">
<title>Node1&#45;&gt;Node5</title>
<path fill="none" stroke="midnightblue" d="M860.74,-69.3C796.39,-59.39 703.81,-44.83 623,-31 620.11,-30.51 617.17,-30 614.2,-29.47"/>
<polygon fill="midnightblue" stroke="midnightblue" points="860.4,-72.79 870.82,-70.85 861.47,-65.87 860.4,-72.79"/>
</g>
<!-- Node6 -->
<g id="node6" class="node">
<title>Node6</title>
<g id="a_node6"><a xlink:href="O__AsservTest_8cpp.html" target="_top" xlink:title="Implémentation de la classe O_AsservTest.">
<polygon fill="white" stroke="black" points="632,-0.5 632,-30.5 772,-30.5 772,-0.5 632,-0.5"/>
<text text-anchor="start" x="640" y="-18.5" font-family="Helvetica,sans-Serif" font-size="10.00">src/bot&#45;opos6ul/O_Asserv</text>
<text text-anchor="middle" x="702" y="-7.5" font-family="Helvetica,sans-Serif" font-size="10.00">Test.cpp</text>
</a>
</g>
</g>
<!-- Node1&#45;&gt;Node6 -->
<g id="edge5" class="edge">
<title>Node1&#45;&gt;Node6</title>
<path fill="none" stroke="midnightblue" d="M879.78,-64.85C840.81,-54.25 790.9,-40.68 753.88,-30.61"/>
<polygon fill="midnightblue" stroke="midnightblue" points="878.87,-68.23 889.43,-67.48 880.7,-61.47 878.87,-68.23"/>
</g>
<!-- Node7 -->
<g id="node7" class="node">
<title>Node7</title>
<g id="a_node7"><a xlink:href="O__AsservXYRotateTest_8cpp.html" target="_top" xlink:title="Implémentation de la classe O_AsservXYRotateTest.">
<polygon fill="white" stroke="black" points="790,-0.5 790,-30.5 930,-30.5 930,-0.5 790,-0.5"/>
<text text-anchor="start" x="798" y="-18.5" font-family="Helvetica,sans-Serif" font-size="10.00">src/bot&#45;opos6ul/O_Asserv</text>
<text text-anchor="middle" x="860" y="-7.5" font-family="Helvetica,sans-Serif" font-size="10.00">XYRotateTest.cpp</text>
</a>
</g>
</g>
<!-- Node1&#45;&gt;Node7 -->
<g id="edge6" class="edge">
<title>Node1&#45;&gt;Node7</title>
<path fill="none" stroke="midnightblue" d="M915.31,-60.88C903,-51.01 888.57,-39.43 877.54,-30.58"/>
<polygon fill="midnightblue" stroke="midnightblue" points="913.43,-63.87 923.42,-67.4 917.82,-58.41 913.43,-63.87"/>
</g>
<!-- Node8 -->
<g id="node8" class="node">
<title>Node8</title>
<g id="a_node8"><a xlink:href="O__IAbyPathTest_8cpp.html" target="_top" xlink:title="Implementation de la classe O_IAByPathTest.">
<polygon fill="white" stroke="black" points="948,-0.5 948,-30.5 1098,-30.5 1098,-0.5 948,-0.5"/>
<text text-anchor="start" x="956" y="-18.5" font-family="Helvetica,sans-Serif" font-size="10.00">src/bot&#45;opos6ul/O_IAbyPath</text>
<text text-anchor="middle" x="1023" y="-7.5" font-family="Helvetica,sans-Serif" font-size="10.00">Test.cpp</text>
</a>
</g>
</g>
<!-- Node1&#45;&gt;Node8 -->
<g id="edge7" class="edge">
<title>Node1&#45;&gt;Node8</title>
<path fill="none" stroke="midnightblue" d="M966.65,-61.17C979.19,-51.23 993.97,-39.51 1005.24,-30.58"/>
<polygon fill="midnightblue" stroke="midnightblue" points="964.46,-58.44 958.79,-67.4 968.8,-63.93 964.46,-58.44"/>
</g>
<!-- Node9 -->
<g id="node9" class="node">
<title>Node9</title>
<g id="a_node9"><a xlink:href="O__LcdBoardTest_8cpp.html" target="_top" xlink:title="Implémentation de la classe O_LcdBoardTest.">
<polygon fill="white" stroke="black" points="1116,-0.5 1116,-30.5 1268,-30.5 1268,-0.5 1116,-0.5"/>
<text text-anchor="start" x="1124" y="-18.5" font-family="Helvetica,sans-Serif" font-size="10.00">src/bot&#45;opos6ul/O_LcdBoard</text>
<text text-anchor="middle" x="1192" y="-7.5" font-family="Helvetica,sans-Serif" font-size="10.00">Test.cpp</text>
</a>
</g>
</g>
<!-- Node1&#45;&gt;Node9 -->
<g id="edge8" class="edge">
<title>Node1&#45;&gt;Node9</title>
<path fill="none" stroke="midnightblue" d="M1005.04,-64.92C1046,-54.31 1098.56,-40.7 1137.51,-30.61"/>
<polygon fill="midnightblue" stroke="midnightblue" points="1003.96,-61.58 995.15,-67.48 1005.71,-68.36 1003.96,-61.58"/>
</g>
<!-- Node10 -->
<g id="node10" class="node">
<title>Node10</title>
<g id="a_node10"><a xlink:href="O__LedBarTest_8cpp.html" target="_top" xlink:title="Implementation de la classe O_LedBarTest.">
<polygon fill="white" stroke="black" points="1286.5,-0.5 1286.5,-30.5 1427.5,-30.5 1427.5,-0.5 1286.5,-0.5"/>
<text text-anchor="start" x="1294.5" y="-18.5" font-family="Helvetica,sans-Serif" font-size="10.00">src/bot&#45;opos6ul/O_LedBar</text>
<text text-anchor="middle" x="1357" y="-7.5" font-family="Helvetica,sans-Serif" font-size="10.00">Test.cpp</text>
</a>
</g>
</g>
<!-- Node1&#45;&gt;Node10 -->
<g id="edge9" class="edge">
<title>Node1&#45;&gt;Node10</title>
<path fill="none" stroke="midnightblue" d="M1021.48,-70.1C1089.61,-60.28 1189.82,-45.45 1277,-31 1280.06,-30.49 1283.19,-29.96 1286.35,-29.42"/>
<polygon fill="midnightblue" stroke="midnightblue" points="1020.64,-66.68 1011.24,-71.57 1021.64,-73.61 1020.64,-66.68"/>
</g>
<!-- Node11 -->
<g id="node11" class="node">
<title>Node11</title>
<g id="a_node11"><a xlink:href="O__State__Init_8cpp.html" target="_top" xlink:title="Implémentation de la classe O_State_Init.">
<polygon fill="white" stroke="black" points="1445.5,-0.5 1445.5,-30.5 1578.5,-30.5 1578.5,-0.5 1445.5,-0.5"/>
<text text-anchor="start" x="1453.5" y="-18.5" font-family="Helvetica,sans-Serif" font-size="10.00">src/bot&#45;opos6ul/O_State</text>
<text text-anchor="middle" x="1512" y="-7.5" font-family="Helvetica,sans-Serif" font-size="10.00">_Init.cpp</text>
</a>
</g>
</g>
<!-- Node1&#45;&gt;Node11 -->
<g id="edge10" class="edge">
<title>Node1&#45;&gt;Node11</title>
<path fill="none" stroke="midnightblue" d="M1021.22,-75.55C1119.53,-67.76 1291.02,-52.5 1437,-31 1439.76,-30.59 1442.56,-30.16 1445.4,-29.7"/>
<polygon fill="midnightblue" stroke="midnightblue" points="1020.76,-72.08 1011.06,-76.35 1021.31,-79.06 1020.76,-72.08"/>
</g>
<!-- Node12 -->
<g id="node12" class="node">
<title>Node12</title>
<g id="a_node12"><a xlink:href="OPOS6UL__AsservExtended_8cpp.html" target="_top" xlink:title="Implémentation de la classe OPOS6UL_AsservExtended.">
<polygon fill="white" stroke="black" points="1597,-0.5 1597,-30.5 1737,-30.5 1737,-0.5 1597,-0.5"/>
<text text-anchor="start" x="1605" y="-18.5" font-family="Helvetica,sans-Serif" font-size="10.00">src/bot&#45;opos6ul/OPOS6UL</text>
<text text-anchor="middle" x="1667" y="-7.5" font-family="Helvetica,sans-Serif" font-size="10.00">_AsservExtended.cpp</text>
</a>
</g>
</g>
<!-- Node1&#45;&gt;Node12 -->
<g id="edge11" class="edge">
<title>Node1&#45;&gt;Node12</title>
<path fill="none" stroke="midnightblue" d="M1021.19,-77.92C1143.73,-71.84 1384.79,-57.51 1588,-31 1590.9,-30.62 1593.86,-30.21 1596.85,-29.77"/>
<polygon fill="midnightblue" stroke="midnightblue" points="1020.95,-74.42 1011.14,-78.41 1021.3,-81.42 1020.95,-74.42"/>
</g>
<!-- Node13 -->
<g id="node13" class="node">
<title>Node13</title>
<g id="a_node13"><a xlink:href="OPOS6UL__RobotExtended_8cpp.html" target="_top" xlink:title="Implémentation de la classe OPOS6UL_RobotExtended.">
<polygon fill="white" stroke="black" points="1755,-0.5 1755,-30.5 1895,-30.5 1895,-0.5 1755,-0.5"/>
<text text-anchor="start" x="1763" y="-18.5" font-family="Helvetica,sans-Serif" font-size="10.00">src/bot&#45;opos6ul/OPOS6UL</text>
<text text-anchor="middle" x="1825" y="-7.5" font-family="Helvetica,sans-Serif" font-size="10.00">_RobotExtended.cpp</text>
</a>
</g>
</g>
<!-- Node1&#45;&gt;Node13 -->
<g id="edge12" class="edge">
<title>Node1&#45;&gt;Node13</title>
<path fill="none" stroke="midnightblue" d="M1021.41,-79.62C1166.6,-75.52 1482,-63.39 1746,-31 1748.91,-30.64 1751.87,-30.25 1754.86,-29.82"/>
<polygon fill="midnightblue" stroke="midnightblue" points="1021.15,-76.12 1011.25,-79.9 1021.34,-83.12 1021.15,-76.12"/>
</g>
</g>
</svg>
        <g id="navigator" transform="translate(0 0)" fill="#404254">
                <rect fill="#f2f5e9" fill-opacity="0.5" stroke="#606060" stroke-width=".5" x="0" y="0" width="60" height="60"/>
                <use id="zoomplus" xlink:href="#zoomPlus" x="17" y="9" onmousedown="handleZoom(evt,'in')"/>
                <use id="zoomminus" xlink:href="#zoomMin" x="42" y="9" onmousedown="handleZoom(evt,'out')"/>
                <use id="reset" xlink:href="#resetDef" x="30" y="36" onmousedown="handleReset()"/>
                <g id="arrowUp" xlink:href="#dirArrow" transform="translate(30 24)" onmousedown="handlePan(0,-1)">
                  <use xlink:href="#rim" fill="#404040">
                        <set attributeName="fill" to="#808080" begin="arrowUp.mouseover" end="arrowUp.mouseout"/>
                  </use>
                  <path fill="none" stroke="white" stroke-width="1.5" d="M0,-3.0v7 M-2.5,-0.5L0,-3.0L2.5,-0.5"/>
                </g>
                <g id="arrowRight" xlink:href="#dirArrow" transform="rotate(90) translate(36 -43)" onmousedown="handlePan(1,0)">
                  <use xlink:href="#rim" fill="#404040">
                        <set attributeName="fill" to="#808080" begin="arrowRight.mouseover" end="arrowRight.mouseout"/>
                  </use>
                  <path fill="none" stroke="white" stroke-width="1.5" d="M0,-3.0v7 M-2.5,-0.5L0,-3.0L2.5,-0.5"/>
                </g>
                <g id="arrowDown" xlink:href="#dirArrow" transform="rotate(180) translate(-30 -48)" onmousedown="handlePan(0,1)">
                  <use xlink:href="#rim" fill="#404040">
                        <set attributeName="fill" to="#808080" begin="arrowDown.mouseover" end="arrowDown.mouseout"/>
                  </use>
                  <path fill="none" stroke="white" stroke-width="1.5" d="M0,-3.0v7 M-2.5,-0.5L0,-3.0L2.5,-0.5"/>
                </g>
                <g id="arrowLeft" xlink:href="#dirArrow" transform="rotate(270) translate(-36 17)" onmousedown="handlePan(-1,0)">
                  <use xlink:href="#rim" fill="#404040">
                        <set attributeName="fill" to="#808080" begin="arrowLeft.mouseover" end="arrowLeft.mouseout"/>
                  </use>
                  <path fill="none" stroke="white" stroke-width="1.5" d="M0,-3.0v7 M-2.5,-0.5L0,-3.0L2.5,-0.5"/>
                </g>
        </g>
        <svg viewBox="0 0 15 15" width="100%" height="30px" preserveAspectRatio="xMaxYMin meet">
         <g id="arrow_out" transform="scale(0.3 0.3)">
          <a xlink:href="OPOS6UL__AsservExtended_8hpp__dep__incl_org.svg" target="_base">
           <rect id="button" ry="5" rx="5" y="6" x="6" height="38" width="38"
                fill="#f2f5e9" fill-opacity="0.5" stroke="#606060" stroke-width="1.0"/>
           <path id="arrow"
             d="M 11.500037,31.436501 C 11.940474,20.09759 22.043105,11.32322 32.158766,21.979434 L 37.068811,17.246167 C 37.068811,17.246167 37.088388,32 37.088388,32 L 22.160133,31.978069 C 22.160133,31.978069 26.997745,27.140456 26.997745,27.140456 C 18.528582,18.264221 13.291696,25.230495 11.500037,31.436501 z"
             style="fill:#404040;"/>
          </a>
         </g>
        </svg>
</svg>
