<?xml version="1.0" encoding="UTF-8" standalone="no"?>
<!DOCTYPE svg PUBLIC "-//W3C//DTD SVG 1.1//EN"
 "http://www.w3.org/Graphics/SVG/1.1/DTD/svg11.dtd">
<!-- Generated by graphviz version 2.43.0 (0)
 -->
<!-- Title: src/bot&#45;opos6ul/OPOS6UL_AsservExtended.hpp Pages: 1 -->
<svg width="948pt" height="319pt"
 viewBox="0.00 0.00 948.21 319.00" xmlns="http://www.w3.org/2000/svg" xmlns:xlink="http://www.w3.org/1999/xlink">
<g id="graph0" class="graph" transform="scale(1 1) rotate(0) translate(4 315)">
<title>src/bot&#45;opos6ul/OPOS6UL_AsservExtended.hpp</title>
<polygon fill="white" stroke="transparent" points="-4,4 -4,-315 944.21,-315 944.21,4 -4,4"/>
<!-- Node1 -->
<g id="node1" class="node">
<title>Node1</title>
<g id="a_node1"><a xlink:title="Extension de l&#39;asservissement pour la carte OPOS6UL.">
<polygon fill="#bfbfbf" stroke="black" points="507.21,-280.5 507.21,-310.5 647.21,-310.5 647.21,-280.5 507.21,-280.5"/>
<text text-anchor="start" x="515.21" y="-298.5" font-family="Helvetica,sans-Serif" font-size="10.00">src/bot&#45;opos6ul/OPOS6UL</text>
<text text-anchor="middle" x="577.21" y="-287.5" font-family="Helvetica,sans-Serif" font-size="10.00">_AsservExtended.hpp</text>
</a>
</g>
</g>
<!-- Node2 -->
<g id="node2" class="node">
<title>Node2</title>
<g id="a_node2"><a xlink:title=" ">
<polygon fill="white" stroke="#bfbfbf" points="536.21,-0.5 536.21,-19.5 580.21,-19.5 580.21,-0.5 536.21,-0.5"/>
<text text-anchor="middle" x="558.21" y="-7.5" font-family="Helvetica,sans-Serif" font-size="10.00">string</text>
</a>
</g>
</g>
<!-- Node1&#45;&gt;Node2 -->
<g id="edge1" class="edge">
<title>Node1&#45;&gt;Node2</title>
<path fill="none" stroke="midnightblue" d="M577.21,-280.28C577.21,-258.48 577.21,-215.49 577.21,-179 577.21,-179 577.21,-179 577.21,-121 577.21,-88.49 569.05,-51.35 563.42,-29.61"/>
<polygon fill="midnightblue" stroke="midnightblue" points="566.75,-28.5 560.77,-19.75 559.99,-30.32 566.75,-28.5"/>
</g>
<!-- Node3 -->
<g id="node3" class="node">
<title>Node3</title>
<g id="a_node3"><a xlink:href="Asserv_8hpp.html" target="_top" xlink:title=" ">
<polygon fill="white" stroke="black" points="605.71,-224.5 605.71,-243.5 710.71,-243.5 710.71,-224.5 605.71,-224.5"/>
<text text-anchor="middle" x="658.21" y="-231.5" font-family="Helvetica,sans-Serif" font-size="10.00">asserv/Asserv.hpp</text>
</a>
</g>
</g>
<!-- Node1&#45;&gt;Node3 -->
<g id="edge2" class="edge">
<title>Node1&#45;&gt;Node3</title>
<path fill="none" stroke="midnightblue" d="M596.4,-280.4C609.02,-271.13 625.5,-259.03 638.27,-249.65"/>
<polygon fill="midnightblue" stroke="midnightblue" points="640.43,-252.4 646.42,-243.66 636.29,-246.76 640.43,-252.4"/>
</g>
<!-- Node6 -->
<g id="node6" class="node">
<title>Node6</title>
<g id="a_node6"><a xlink:href="LoggerFactory_8hpp.html" target="_top" xlink:title="Définition de la classe LoggerFactory.">
<polygon fill="white" stroke="black" points="427.21,-168.5 427.21,-187.5 549.21,-187.5 549.21,-168.5 427.21,-168.5"/>
<text text-anchor="middle" x="488.21" y="-175.5" font-family="Helvetica,sans-Serif" font-size="10.00">log/LoggerFactory.hpp</text>
</a>
</g>
</g>
<!-- Node1&#45;&gt;Node6 -->
<g id="edge32" class="edge">
<title>Node1&#45;&gt;Node6</title>
<path fill="none" stroke="midnightblue" d="M566.29,-280.34C549.82,-258.96 518.67,-218.53 501.1,-195.73"/>
<polygon fill="midnightblue" stroke="midnightblue" points="503.76,-193.45 494.89,-187.67 498.22,-197.73 503.76,-193.45"/>
</g>
<!-- Node3&#45;&gt;Node2 -->
<g id="edge4" class="edge">
<title>Node3&#45;&gt;Node2</title>
<path fill="none" stroke="midnightblue" d="M655.79,-224.16C648.35,-197.66 624.28,-116.93 591.21,-56 585.84,-46.12 578.56,-35.95 572.2,-27.79"/>
<polygon fill="midnightblue" stroke="midnightblue" points="574.79,-25.42 565.8,-19.82 569.34,-29.81 574.79,-25.42"/>
</g>
<!-- Node4 -->
<g id="node4" class="node">
<title>Node4</title>
<g id="a_node4"><a xlink:title=" ">
<polygon fill="white" stroke="#bfbfbf" points="643.71,-56.5 643.71,-75.5 690.71,-75.5 690.71,-56.5 643.71,-56.5"/>
<text text-anchor="middle" x="667.21" y="-63.5" font-family="Helvetica,sans-Serif" font-size="10.00">cmath</text>
</a>
</g>
</g>
<!-- Node3&#45;&gt;Node4 -->
<g id="edge3" class="edge">
<title>Node3&#45;&gt;Node4</title>
<path fill="none" stroke="midnightblue" d="M658.69,-224.08C660.11,-197.95 664.27,-121.21 666.2,-85.58"/>
<polygon fill="midnightblue" stroke="midnightblue" points="669.69,-85.74 666.74,-75.57 662.71,-85.36 669.69,-85.74"/>
</g>
<!-- Node5 -->
<g id="node5" class="node">
<title>Node5</title>
<g id="a_node5"><a xlink:title=" ">
<polygon fill="white" stroke="#bfbfbf" points="686.71,-168.5 686.71,-187.5 727.71,-187.5 727.71,-168.5 686.71,-168.5"/>
<text text-anchor="middle" x="707.21" y="-175.5" font-family="Helvetica,sans-Serif" font-size="10.00">tuple</text>
</a>
</g>
</g>
<!-- Node3&#45;&gt;Node5 -->
<g id="edge5" class="edge">
<title>Node3&#45;&gt;Node5</title>
<path fill="none" stroke="midnightblue" d="M666.3,-224.08C673.36,-216.3 683.79,-204.8 692.35,-195.37"/>
<polygon fill="midnightblue" stroke="midnightblue" points="695.14,-197.51 699.27,-187.75 689.95,-192.8 695.14,-197.51"/>
</g>
<!-- Node3&#45;&gt;Node6 -->
<g id="edge6" class="edge">
<title>Node3&#45;&gt;Node6</title>
<path fill="none" stroke="midnightblue" d="M631.27,-224.44C602.55,-215.32 556.88,-200.81 524.88,-190.65"/>
<polygon fill="midnightblue" stroke="midnightblue" points="525.61,-187.21 515.02,-187.52 523.49,-193.88 525.61,-187.21"/>
</g>
<!-- Node17 -->
<g id="node17" class="node">
<title>Node17</title>
<g id="a_node17"><a xlink:href="AAsservDriver_8hpp.html" target="_top" xlink:title="Interface abstraite du driver d&#39;asservissement.">
<polygon fill="white" stroke="black" points="784.71,-168.5 784.71,-187.5 937.71,-187.5 937.71,-168.5 784.71,-168.5"/>
<text text-anchor="middle" x="861.21" y="-175.5" font-family="Helvetica,sans-Serif" font-size="10.00">interface/AAsservDriver.hpp</text>
</a>
</g>
</g>
<!-- Node3&#45;&gt;Node17 -->
<g id="edge23" class="edge">
<title>Node3&#45;&gt;Node17</title>
<path fill="none" stroke="midnightblue" d="M690.37,-224.44C725.27,-215.16 781.1,-200.31 819.38,-190.13"/>
<polygon fill="midnightblue" stroke="midnightblue" points="820.43,-193.47 829.19,-187.52 818.63,-186.7 820.43,-193.47"/>
</g>
<!-- Node19 -->
<g id="node19" class="node">
<title>Node19</title>
<g id="a_node19"><a xlink:href="ARobotPositionShared_8hpp.html" target="_top" xlink:title="Position partagee du robot et utilitaires geometriques.">
<polygon fill="white" stroke="black" points="687.21,-112.5 687.21,-131.5 833.21,-131.5 833.21,-112.5 687.21,-112.5"/>
<text text-anchor="middle" x="760.21" y="-119.5" font-family="Helvetica,sans-Serif" font-size="10.00">ARobotPositionShared.hpp</text>
</a>
</g>
</g>
<!-- Node3&#45;&gt;Node19 -->
<g id="edge31" class="edge">
<title>Node3&#45;&gt;Node19</title>
<path fill="none" stroke="midnightblue" d="M682.7,-224.4C700.09,-217.16 722.83,-205.19 737.21,-188 748.36,-174.67 754.26,-155.55 757.28,-141.5"/>
<polygon fill="midnightblue" stroke="midnightblue" points="760.74,-141.99 759.12,-131.52 753.86,-140.72 760.74,-141.99"/>
</g>
<!-- Node6&#45;&gt;Node2 -->
<g id="edge8" class="edge">
<title>Node6&#45;&gt;Node2</title>
<path fill="none" stroke="midnightblue" d="M494.92,-168.46C501.55,-159.71 511.62,-145.5 518.21,-132 535.11,-97.32 547.55,-53.74 553.76,-29.48"/>
<polygon fill="midnightblue" stroke="midnightblue" points="557.22,-30.07 556.23,-19.52 550.42,-28.38 557.22,-30.07"/>
</g>
<!-- Node7 -->
<g id="node7" class="node">
<title>Node7</title>
<g id="a_node7"><a xlink:title=" ">
<polygon fill="white" stroke="#bfbfbf" points="471.21,-112.5 471.21,-131.5 509.21,-131.5 509.21,-112.5 471.21,-112.5"/>
<text text-anchor="middle" x="490.21" y="-119.5" font-family="Helvetica,sans-Serif" font-size="10.00">map</text>
</a>
</g>
</g>
<!-- Node6&#45;&gt;Node7 -->
<g id="edge7" class="edge">
<title>Node6&#45;&gt;Node7</title>
<path fill="none" stroke="midnightblue" d="M488.54,-168.08C488.8,-161.01 489.17,-150.86 489.5,-141.99"/>
<polygon fill="midnightblue" stroke="midnightblue" points="493.01,-141.87 489.88,-131.75 486.01,-141.61 493.01,-141.87"/>
</g>
<!-- Node8 -->
<g id="node8" class="node">
<title>Node8</title>
<g id="a_node8"><a xlink:href="Thread_8hpp.html" target="_top" xlink:title="Définition de la classe Thread.">
<polygon fill="white" stroke="black" points="110.71,-112.5 110.71,-131.5 225.71,-131.5 225.71,-112.5 110.71,-112.5"/>
<text text-anchor="middle" x="168.21" y="-119.5" font-family="Helvetica,sans-Serif" font-size="10.00">../thread/Thread.hpp</text>
</a>
</g>
</g>
<!-- Node6&#45;&gt;Node8 -->
<g id="edge9" class="edge">
<title>Node6&#45;&gt;Node8</title>
<path fill="none" stroke="midnightblue" d="M437.5,-168.44C380.86,-158.89 289.21,-143.42 228.83,-133.23"/>
<polygon fill="midnightblue" stroke="midnightblue" points="229.12,-129.73 218.67,-131.52 227.95,-136.63 229.12,-129.73"/>
</g>
<!-- Node14 -->
<g id="node14" class="node">
<title>Node14</title>
<g id="a_node14"><a xlink:href="Logger_8hpp.html" target="_top" xlink:title="Définition de la classe Logger.">
<polygon fill="white" stroke="black" points="383.21,-112.5 383.21,-131.5 453.21,-131.5 453.21,-112.5 383.21,-112.5"/>
<text text-anchor="middle" x="418.21" y="-119.5" font-family="Helvetica,sans-Serif" font-size="10.00">Logger.hpp</text>
</a>
</g>
</g>
<!-- Node6&#45;&gt;Node14 -->
<g id="edge17" class="edge">
<title>Node6&#45;&gt;Node14</title>
<path fill="none" stroke="midnightblue" d="M476.96,-168.32C466.41,-160.18 450.41,-147.84 437.76,-138.09"/>
<polygon fill="midnightblue" stroke="midnightblue" points="439.71,-135.17 429.66,-131.83 435.44,-140.71 439.71,-135.17"/>
</g>
<!-- Node8&#45;&gt;Node2 -->
<g id="edge11" class="edge">
<title>Node8&#45;&gt;Node2</title>
<path fill="none" stroke="midnightblue" d="M175.05,-112.05C186.68,-97.57 211.83,-69.27 240.21,-56 290.53,-32.46 455.19,-18.3 525.69,-13.18"/>
<polygon fill="midnightblue" stroke="midnightblue" points="526.05,-16.67 535.78,-12.47 525.56,-9.68 526.05,-16.67"/>
</g>
<!-- Node9 -->
<g id="node9" class="node">
<title>Node9</title>
<g id="a_node9"><a xlink:title=" ">
<polygon fill="white" stroke="#bfbfbf" points="103.71,-0.5 103.71,-19.5 166.71,-19.5 166.71,-0.5 103.71,-0.5"/>
<text text-anchor="middle" x="135.21" y="-7.5" font-family="Helvetica,sans-Serif" font-size="10.00">pthread.h</text>
</a>
</g>
</g>
<!-- Node8&#45;&gt;Node9 -->
<g id="edge10" class="edge">
<title>Node8&#45;&gt;Node9</title>
<path fill="none" stroke="midnightblue" d="M110.47,-112.46C69.28,-105.05 19.01,-92.85 6.21,-76 -19.74,-41.87 46.5,-24.34 93.37,-16.45"/>
<polygon fill="midnightblue" stroke="midnightblue" points="94,-19.9 103.33,-14.87 92.9,-12.98 94,-19.9"/>
</g>
<!-- Node10 -->
<g id="node10" class="node">
<title>Node10</title>
<g id="a_node10"><a xlink:title=" ">
<polygon fill="white" stroke="#bfbfbf" points="15.21,-56.5 15.21,-75.5 63.21,-75.5 63.21,-56.5 15.21,-56.5"/>
<text text-anchor="middle" x="39.21" y="-63.5" font-family="Helvetica,sans-Serif" font-size="10.00">thread</text>
</a>
</g>
</g>
<!-- Node8&#45;&gt;Node10 -->
<g id="edge12" class="edge">
<title>Node8&#45;&gt;Node10</title>
<path fill="none" stroke="midnightblue" d="M147.77,-112.44C126.54,-103.56 93.11,-89.56 68.95,-79.45"/>
<polygon fill="midnightblue" stroke="midnightblue" points="70.13,-76.15 59.55,-75.52 67.42,-82.61 70.13,-76.15"/>
</g>
<!-- Node11 -->
<g id="node11" class="node">
<title>Node11</title>
<g id="a_node11"><a xlink:title=" ">
<polygon fill="white" stroke="#bfbfbf" points="81.21,-56.5 81.21,-75.5 125.21,-75.5 125.21,-56.5 81.21,-56.5"/>
<text text-anchor="middle" x="103.21" y="-63.5" font-family="Helvetica,sans-Serif" font-size="10.00">ctime</text>
</a>
</g>
</g>
<!-- Node8&#45;&gt;Node11 -->
<g id="edge13" class="edge">
<title>Node8&#45;&gt;Node11</title>
<path fill="none" stroke="midnightblue" d="M157.76,-112.32C148.06,-104.26 133.39,-92.08 121.71,-82.37"/>
<polygon fill="midnightblue" stroke="midnightblue" points="123.77,-79.53 113.84,-75.83 119.29,-84.92 123.77,-79.53"/>
</g>
<!-- Node12 -->
<g id="node12" class="node">
<title>Node12</title>
<g id="a_node12"><a xlink:href="Mutex_8hpp.html" target="_top" xlink:title="Définition de la classe Mutex.">
<polygon fill="white" stroke="black" points="249.21,-56.5 249.21,-75.5 317.21,-75.5 317.21,-56.5 249.21,-56.5"/>
<text text-anchor="middle" x="283.21" y="-63.5" font-family="Helvetica,sans-Serif" font-size="10.00">Mutex.hpp</text>
</a>
</g>
</g>
<!-- Node8&#45;&gt;Node12 -->
<g id="edge14" class="edge">
<title>Node8&#45;&gt;Node12</title>
<path fill="none" stroke="midnightblue" d="M186.43,-112.44C205.1,-103.68 234.36,-89.94 255.82,-79.86"/>
<polygon fill="midnightblue" stroke="midnightblue" points="257.51,-82.93 265.07,-75.52 254.53,-76.6 257.51,-82.93"/>
</g>
<!-- Node13 -->
<g id="node13" class="node">
<title>Node13</title>
<g id="a_node13"><a xlink:title=" ">
<polygon fill="white" stroke="#bfbfbf" points="143.21,-56.5 143.21,-75.5 193.21,-75.5 193.21,-56.5 143.21,-56.5"/>
<text text-anchor="middle" x="168.21" y="-63.5" font-family="Helvetica,sans-Serif" font-size="10.00">chrono</text>
</a>
</g>
</g>
<!-- Node8&#45;&gt;Node13 -->
<g id="edge16" class="edge">
<title>Node8&#45;&gt;Node13</title>
<path fill="none" stroke="midnightblue" d="M168.21,-112.08C168.21,-105.01 168.21,-94.86 168.21,-85.99"/>
<polygon fill="midnightblue" stroke="midnightblue" points="171.71,-85.75 168.21,-75.75 164.71,-85.75 171.71,-85.75"/>
</g>
<!-- Node12&#45;&gt;Node9 -->
<g id="edge15" class="edge">
<title>Node12&#45;&gt;Node9</title>
<path fill="none" stroke="midnightblue" d="M259.76,-56.44C235.07,-47.44 196.02,-33.19 168.23,-23.05"/>
<polygon fill="midnightblue" stroke="midnightblue" points="169.14,-19.66 158.55,-19.52 166.74,-26.23 169.14,-19.66"/>
</g>
<!-- Node14&#45;&gt;Node2 -->
<g id="edge19" class="edge">
<title>Node14&#45;&gt;Node2</title>
<path fill="none" stroke="midnightblue" d="M419.76,-112.21C422.64,-98.46 430.02,-71.79 446.21,-56 468.12,-34.62 501.51,-22.98 526.13,-16.94"/>
<polygon fill="midnightblue" stroke="midnightblue" points="527.11,-20.3 536.09,-14.67 525.56,-13.48 527.11,-20.3"/>
</g>
<!-- Node14&#45;&gt;Node12 -->
<g id="edge20" class="edge">
<title>Node14&#45;&gt;Node12</title>
<path fill="none" stroke="midnightblue" d="M396.81,-112.44C374.5,-103.52 339.3,-89.44 314,-79.32"/>
<polygon fill="midnightblue" stroke="midnightblue" points="315.08,-75.98 304.5,-75.52 312.48,-82.48 315.08,-75.98"/>
</g>
<!-- Node15 -->
<g id="node15" class="node">
<title>Node15</title>
<g id="a_node15"><a xlink:title=" ">
<polygon fill="white" stroke="#bfbfbf" points="455.21,-56.5 455.21,-75.5 511.21,-75.5 511.21,-56.5 455.21,-56.5"/>
<text text-anchor="middle" x="483.21" y="-63.5" font-family="Helvetica,sans-Serif" font-size="10.00">sstream</text>
</a>
</g>
</g>
<!-- Node14&#45;&gt;Node15 -->
<g id="edge18" class="edge">
<title>Node14&#45;&gt;Node15</title>
<path fill="none" stroke="midnightblue" d="M428.65,-112.32C438.35,-104.26 453.02,-92.08 464.71,-82.37"/>
<polygon fill="midnightblue" stroke="midnightblue" points="467.12,-84.92 472.57,-75.83 462.64,-79.53 467.12,-84.92"/>
</g>
<!-- Node16 -->
<g id="node16" class="node">
<title>Node16</title>
<g id="a_node16"><a xlink:href="Level_8hpp.html" target="_top" xlink:title="Définition de la classe Level.">
<polygon fill="white" stroke="black" points="335.21,-56.5 335.21,-75.5 399.21,-75.5 399.21,-56.5 335.21,-56.5"/>
<text text-anchor="middle" x="367.21" y="-63.5" font-family="Helvetica,sans-Serif" font-size="10.00">Level.hpp</text>
</a>
</g>
</g>
<!-- Node14&#45;&gt;Node16 -->
<g id="edge21" class="edge">
<title>Node14&#45;&gt;Node16</title>
<path fill="none" stroke="midnightblue" d="M409.78,-112.08C402.36,-104.22 391.35,-92.57 382.39,-83.08"/>
<polygon fill="midnightblue" stroke="midnightblue" points="384.88,-80.62 375.47,-75.75 379.79,-85.42 384.88,-80.62"/>
</g>
<!-- Node16&#45;&gt;Node2 -->
<g id="edge22" class="edge">
<title>Node16&#45;&gt;Node2</title>
<path fill="none" stroke="midnightblue" d="M397.47,-56.44C432.61,-46.51 490.31,-30.2 526.18,-20.05"/>
<polygon fill="midnightblue" stroke="midnightblue" points="527.45,-23.33 536.12,-17.24 525.55,-16.6 527.45,-23.33"/>
</g>
<!-- Node17&#45;&gt;Node2 -->
<g id="edge25" class="edge">
<title>Node17&#45;&gt;Node2</title>
<path fill="none" stroke="midnightblue" d="M863,-168.19C866.96,-145.91 873.85,-86.92 843.21,-56 808.4,-20.88 657.76,-13.16 590.66,-11.47"/>
<polygon fill="midnightblue" stroke="midnightblue" points="590.71,-7.97 580.64,-11.25 590.56,-14.97 590.71,-7.97"/>
</g>
<!-- Node18 -->
<g id="node18" class="node">
<title>Node18</title>
<g id="a_node18"><a xlink:title=" ">
<polygon fill="white" stroke="#bfbfbf" points="890.21,-112.5 890.21,-131.5 940.21,-131.5 940.21,-112.5 890.21,-112.5"/>
<text text-anchor="middle" x="915.21" y="-119.5" font-family="Helvetica,sans-Serif" font-size="10.00">cstdint</text>
</a>
</g>
</g>
<!-- Node17&#45;&gt;Node18 -->
<g id="edge24" class="edge">
<title>Node17&#45;&gt;Node18</title>
<path fill="none" stroke="midnightblue" d="M870.12,-168.08C877.99,-160.22 889.64,-148.57 899.12,-139.08"/>
<polygon fill="midnightblue" stroke="midnightblue" points="901.86,-141.3 906.45,-131.75 896.91,-136.35 901.86,-141.3"/>
</g>
<!-- Node17&#45;&gt;Node19 -->
<g id="edge26" class="edge">
<title>Node17&#45;&gt;Node19</title>
<path fill="none" stroke="midnightblue" d="M844.98,-168.32C828.86,-159.7 803.91,-146.36 785.24,-136.39"/>
<polygon fill="midnightblue" stroke="midnightblue" points="786.86,-133.28 776.39,-131.65 783.56,-139.46 786.86,-133.28"/>
</g>
<!-- Node19&#45;&gt;Node4 -->
<g id="edge27" class="edge">
<title>Node19&#45;&gt;Node4</title>
<path fill="none" stroke="midnightblue" d="M745.26,-112.32C730.62,-103.82 708.07,-90.73 690.97,-80.8"/>
<polygon fill="midnightblue" stroke="midnightblue" points="692.52,-77.65 682.11,-75.65 689,-83.7 692.52,-77.65"/>
</g>
<!-- Node20 -->
<g id="node20" class="node">
<title>Node20</title>
<g id="a_node20"><a xlink:href="Chronometer_8hpp.html" target="_top" xlink:title="Définition de la classe Chronometer.">
<polygon fill="white" stroke="black" points="708.71,-56.5 708.71,-75.5 833.71,-75.5 833.71,-56.5 708.71,-56.5"/>
<text text-anchor="middle" x="771.21" y="-63.5" font-family="Helvetica,sans-Serif" font-size="10.00">utils/Chronometer.hpp</text>
</a>
</g>
</g>
<!-- Node19&#45;&gt;Node20 -->
<g id="edge28" class="edge">
<title>Node19&#45;&gt;Node20</title>
<path fill="none" stroke="midnightblue" d="M762.02,-112.08C763.48,-104.93 765.58,-94.64 767.4,-85.69"/>
<polygon fill="midnightblue" stroke="midnightblue" points="770.86,-86.25 769.42,-75.75 764,-84.85 770.86,-86.25"/>
</g>
<!-- Node20&#45;&gt;Node2 -->
<g id="edge30" class="edge">
<title>Node20&#45;&gt;Node2</title>
<path fill="none" stroke="midnightblue" d="M737.46,-56.44C697.07,-46.21 629.96,-29.19 590.32,-19.14"/>
<polygon fill="midnightblue" stroke="midnightblue" points="590.94,-15.69 580.39,-16.62 589.22,-22.47 590.94,-15.69"/>
</g>
<!-- Node21 -->
<g id="node21" class="node">
<title>Node21</title>
<g id="a_node21"><a xlink:title=" ">
<polygon fill="white" stroke="#bfbfbf" points="737.21,-0.5 737.21,-19.5 805.21,-19.5 805.21,-0.5 737.21,-0.5"/>
<text text-anchor="middle" x="771.21" y="-7.5" font-family="Helvetica,sans-Serif" font-size="10.00">sys/time.h</text>
</a>
</g>
</g>
<!-- Node20&#45;&gt;Node21 -->
<g id="edge29" class="edge">
<title>Node20&#45;&gt;Node21</title>
<path fill="none" stroke="midnightblue" d="M771.21,-56.08C771.21,-49.01 771.21,-38.86 771.21,-29.99"/>
<polygon fill="midnightblue" stroke="midnightblue" points="774.71,-29.75 771.21,-19.75 767.71,-29.75 774.71,-29.75"/>
</g>
</g>
</svg>
