<?xml version="1.0" encoding="UTF-8" standalone="no"?>
<!DOCTYPE svg PUBLIC "-//W3C//DTD SVG 1.1//EN"
 "http://www.w3.org/Graphics/SVG/1.1/DTD/svg11.dtd">
<!-- Generated by graphviz version 2.43.0 (0)
 -->
<!-- Title: src/bot&#45;opos6ul/OPOS6UL_IAExtended.cpp Pages: 1 -->
<svg width="152pt" height="151pt"
 viewBox="0.00 0.00 152.00 151.00" xmlns="http://www.w3.org/2000/svg" xmlns:xlink="http://www.w3.org/1999/xlink">
<g id="graph0" class="graph" transform="scale(1 1) rotate(0) translate(4 147)">
<title>src/bot&#45;opos6ul/OPOS6UL_IAExtended.cpp</title>
<polygon fill="white" stroke="transparent" points="-4,4 -4,-147 148,-147 148,4 -4,4"/>
<!-- Node1 -->
<g id="node1" class="node">
<title>Node1</title>
<g id="a_node1"><a xlink:title=" ">
<polygon fill="#bfbfbf" stroke="black" points="2,-112.5 2,-142.5 142,-142.5 142,-112.5 2,-112.5"/>
<text text-anchor="start" x="10" y="-130.5" font-family="Helvetica,sans-Serif" font-size="10.00">src/bot&#45;opos6ul/OPOS6UL</text>
<text text-anchor="middle" x="72" y="-119.5" font-family="Helvetica,sans-Serif" font-size="10.00">_IAExtended.cpp</text>
</a>
</g>
</g>
<!-- Node2 -->
<g id="node2" class="node">
<title>Node2</title>
<g id="a_node2"><a xlink:href="OPOS6UL__IAExtended_8hpp.html" target="_top" xlink:title="Extension de l&#39;intelligence artificielle pour la carte OPOS6UL.">
<polygon fill="white" stroke="black" points="0,-56.5 0,-75.5 144,-75.5 144,-56.5 0,-56.5"/>
<text text-anchor="middle" x="72" y="-63.5" font-family="Helvetica,sans-Serif" font-size="10.00">OPOS6UL_IAExtended.hpp</text>
</a>
</g>
</g>
<!-- Node1&#45;&gt;Node2 -->
<g id="edge1" class="edge">
<title>Node1&#45;&gt;Node2</title>
<path fill="none" stroke="midnightblue" d="M72,-112.4C72,-104.47 72,-94.46 72,-85.86"/>
<polygon fill="midnightblue" stroke="midnightblue" points="75.5,-85.66 72,-75.66 68.5,-85.66 75.5,-85.66"/>
</g>
<!-- Node3 -->
<g id="node3" class="node">
<title>Node3</title>
<g id="a_node3"><a xlink:title=" ">
<polygon fill="white" stroke="#bfbfbf" points="50,-0.5 50,-19.5 94,-19.5 94,-0.5 50,-0.5"/>
<text text-anchor="middle" x="72" y="-7.5" font-family="Helvetica,sans-Serif" font-size="10.00">string</text>
</a>
</g>
</g>
<!-- Node2&#45;&gt;Node3 -->
<g id="edge2" class="edge">
<title>Node2&#45;&gt;Node3</title>
<path fill="none" stroke="midnightblue" d="M72,-56.08C72,-49.01 72,-38.86 72,-29.99"/>
<polygon fill="midnightblue" stroke="midnightblue" points="75.5,-29.75 72,-19.75 68.5,-29.75 75.5,-29.75"/>
</g>
</g>
</svg>
