<?xml version="1.0" encoding="UTF-8" standalone="no"?>
<!DOCTYPE svg PUBLIC "-//W3C//DTD SVG 1.1//EN"
 "http://www.w3.org/Graphics/SVG/1.1/DTD/svg11.dtd">
<!-- Generated by graphviz version 2.43.0 (0)
 -->
<!-- Title: src/bot&#45;opos6ul/OPOS6UL_ActionsExtended.hpp Pages: 1 -->
<svg width="3049pt" height="106pt"
 viewBox="0.00 0.00 3049.00 106.00" xmlns="http://www.w3.org/2000/svg" xmlns:xlink="http://www.w3.org/1999/xlink">
<g id="graph0" class="graph" transform="scale(1 1) rotate(0) translate(4 102)">
<title>src/bot&#45;opos6ul/OPOS6UL_ActionsExtended.hpp</title>
<polygon fill="white" stroke="transparent" points="-4,4 -4,-102 3045,-102 3045,4 -4,4"/>
<!-- Node1 -->
<g id="node1" class="node">
<title>Node1</title>
<g id="a_node1"><a xlink:title="Extension des actions du robot pour la carte OPOS6UL.">
<polygon fill="#bfbfbf" stroke="black" points="1443,-67.5 1443,-97.5 1583,-97.5 1583,-67.5 1443,-67.5"/>
<text text-anchor="start" x="1451" y="-85.5" font-family="Helvetica,sans-Serif" font-size="10.00">src/bot&#45;opos6ul/OPOS6UL</text>
<text text-anchor="middle" x="1513" y="-74.5" font-family="Helvetica,sans-Serif" font-size="10.00">_ActionsExtended.hpp</text>
</a>
</g>
</g>
<!-- Node2 -->
<g id="node2" class="node">
<title>Node2</title>
<g id="a_node2"><a xlink:href="O__ActionManagerTimerTest_8cpp.html" target="_top" xlink:title="Implémentation de la classe O_ActionManagerTimerTest.">
<polygon fill="white" stroke="black" points="0,-0.5 0,-30.5 138,-30.5 138,-0.5 0,-0.5"/>
<text text-anchor="start" x="8" y="-18.5" font-family="Helvetica,sans-Serif" font-size="10.00">src/bot&#45;opos6ul/O_Action</text>
<text text-anchor="middle" x="69" y="-7.5" font-family="Helvetica,sans-Serif" font-size="10.00">ManagerTimerTest.cpp</text>
</a>
</g>
</g>
<!-- Node1&#45;&gt;Node2 -->
<g id="edge1" class="edge">
<title>Node1&#45;&gt;Node2</title>
<path fill="none" stroke="midnightblue" d="M1432.64,-80.08C1179.18,-75.36 398.55,-58.88 147,-31 144.13,-30.68 141.2,-30.32 138.24,-29.92"/>
<polygon fill="midnightblue" stroke="midnightblue" points="1432.81,-83.58 1442.87,-80.27 1432.94,-76.59 1432.81,-83.58"/>
</g>
<!-- Node3 -->
<g id="node3" class="node">
<title>Node3</title>
<g id="a_node3"><a xlink:href="O__Asserv__CalageTest_8cpp.html" target="_top" xlink:title="Implémentation de la classe O_Asserv_CalageTest.">
<polygon fill="white" stroke="black" points="156,-0.5 156,-30.5 296,-30.5 296,-0.5 156,-0.5"/>
<text text-anchor="start" x="164" y="-18.5" font-family="Helvetica,sans-Serif" font-size="10.00">src/bot&#45;opos6ul/O_Asserv</text>
<text text-anchor="middle" x="226" y="-7.5" font-family="Helvetica,sans-Serif" font-size="10.00">_CalageTest.cpp</text>
</a>
</g>
</g>
<!-- Node1&#45;&gt;Node3 -->
<g id="edge2" class="edge">
<title>Node1&#45;&gt;Node3</title>
<path fill="none" stroke="midnightblue" d="M1432.83,-82.01C1238.65,-82.4 727.93,-78.42 305,-31 302.09,-30.67 299.13,-30.3 296.14,-29.9"/>
<polygon fill="midnightblue" stroke="midnightblue" points="1432.96,-85.51 1442.95,-81.98 1432.94,-78.51 1432.96,-85.51"/>
</g>
<!-- Node4 -->
<g id="node4" class="node">
<title>Node4</title>
<g id="a_node4"><a xlink:href="O__Asserv__SquareTest_8cpp.html" target="_top" xlink:title="Implémentation de la classe O_Asserv_SquareTest.">
<polygon fill="white" stroke="black" points="314,-0.5 314,-30.5 454,-30.5 454,-0.5 314,-0.5"/>
<text text-anchor="start" x="322" y="-18.5" font-family="Helvetica,sans-Serif" font-size="10.00">src/bot&#45;opos6ul/O_Asserv</text>
<text text-anchor="middle" x="384" y="-7.5" font-family="Helvetica,sans-Serif" font-size="10.00">_SquareTest.cpp</text>
</a>
</g>
</g>
<!-- Node1&#45;&gt;Node4 -->
<g id="edge3" class="edge">
<title>Node1&#45;&gt;Node4</title>
<path fill="none" stroke="midnightblue" d="M1432.47,-81.28C1256.15,-80.01 822.96,-72.5 463,-31 460.09,-30.66 457.13,-30.29 454.14,-29.88"/>
<polygon fill="midnightblue" stroke="midnightblue" points="1432.67,-84.78 1442.7,-81.35 1432.72,-77.78 1432.67,-84.78"/>
</g>
<!-- Node5 -->
<g id="node5" class="node">
<title>Node5</title>
<g id="a_node5"><a xlink:href="O__AsservLineRotateTest_8cpp.html" target="_top" xlink:title="Implémentation de la classe O_AsservLineRotateTest.">
<polygon fill="white" stroke="black" points="472,-0.5 472,-30.5 612,-30.5 612,-0.5 472,-0.5"/>
<text text-anchor="start" x="480" y="-18.5" font-family="Helvetica,sans-Serif" font-size="10.00">src/bot&#45;opos6ul/O_Asserv</text>
<text text-anchor="middle" x="542" y="-7.5" font-family="Helvetica,sans-Serif" font-size="10.00">LineRotateTest.cpp</text>
</a>
</g>
</g>
<!-- Node1&#45;&gt;Node5 -->
<g id="edge4" class="edge">
<title>Node1&#45;&gt;Node5</title>
<path fill="none" stroke="midnightblue" d="M1432.75,-80.31C1276.14,-77.26 919.01,-66.64 621,-31 618.09,-30.65 615.13,-30.26 612.14,-29.84"/>
<polygon fill="midnightblue" stroke="midnightblue" points="1432.71,-83.81 1442.77,-80.5 1432.84,-76.81 1432.71,-83.81"/>
</g>
<!-- Node6 -->
<g id="node6" class="node">
<title>Node6</title>
<g id="a_node6"><a xlink:href="O__AsservTest_8cpp.html" target="_top" xlink:title="Implémentation de la classe O_AsservTest.">
<polygon fill="white" stroke="black" points="630,-0.5 630,-30.5 770,-30.5 770,-0.5 630,-0.5"/>
<text text-anchor="start" x="638" y="-18.5" font-family="Helvetica,sans-Serif" font-size="10.00">src/bot&#45;opos6ul/O_Asserv</text>
<text text-anchor="middle" x="700" y="-7.5" font-family="Helvetica,sans-Serif" font-size="10.00">Test.cpp</text>
</a>
</g>
</g>
<!-- Node1&#45;&gt;Node6 -->
<g id="edge5" class="edge">
<title>Node1&#45;&gt;Node6</title>
<path fill="none" stroke="midnightblue" d="M1432.64,-78.94C1297.31,-73.96 1015.53,-60.75 779,-31 776.09,-30.63 773.13,-30.23 770.15,-29.8"/>
<polygon fill="midnightblue" stroke="midnightblue" points="1432.79,-82.45 1442.91,-79.31 1433.05,-75.45 1432.79,-82.45"/>
</g>
<!-- Node7 -->
<g id="node7" class="node">
<title>Node7</title>
<g id="a_node7"><a xlink:href="O__AsservXYRotateTest_8cpp.html" target="_top" xlink:title="Implémentation de la classe O_AsservXYRotateTest.">
<polygon fill="white" stroke="black" points="788,-0.5 788,-30.5 928,-30.5 928,-0.5 788,-0.5"/>
<text text-anchor="start" x="796" y="-18.5" font-family="Helvetica,sans-Serif" font-size="10.00">src/bot&#45;opos6ul/O_Asserv</text>
<text text-anchor="middle" x="858" y="-7.5" font-family="Helvetica,sans-Serif" font-size="10.00">XYRotateTest.cpp</text>
</a>
</g>
</g>
<!-- Node1&#45;&gt;Node7 -->
<g id="edge6" class="edge">
<title>Node1&#45;&gt;Node7</title>
<path fill="none" stroke="midnightblue" d="M1432.55,-76.84C1320.97,-69.84 1113.05,-54.82 937,-31 934.1,-30.61 931.14,-30.18 928.16,-29.73"/>
<polygon fill="midnightblue" stroke="midnightblue" points="1432.52,-80.35 1442.72,-77.48 1432.95,-73.36 1432.52,-80.35"/>
</g>
<!-- Node8 -->
<g id="node8" class="node">
<title>Node8</title>
<g id="a_node8"><a xlink:href="O__ButtonBarTest_8cpp.html" target="_top" xlink:title="Implémentation de la classe O_ButtonBarTest.">
<polygon fill="white" stroke="black" points="946,-0.5 946,-30.5 1086,-30.5 1086,-0.5 946,-0.5"/>
<text text-anchor="start" x="954" y="-18.5" font-family="Helvetica,sans-Serif" font-size="10.00">src/bot&#45;opos6ul/O_Button</text>
<text text-anchor="middle" x="1016" y="-7.5" font-family="Helvetica,sans-Serif" font-size="10.00">BarTest.cpp</text>
</a>
</g>
</g>
<!-- Node1&#45;&gt;Node8 -->
<g id="edge7" class="edge">
<title>Node1&#45;&gt;Node8</title>
<path fill="none" stroke="midnightblue" d="M1432.92,-73.3C1348.63,-64.32 1212.19,-48.82 1095,-31 1092.1,-30.56 1089.15,-30.09 1086.17,-29.61"/>
<polygon fill="midnightblue" stroke="midnightblue" points="1432.62,-76.79 1442.93,-74.36 1433.36,-69.83 1432.62,-76.79"/>
</g>
<!-- Node9 -->
<g id="node9" class="node">
<title>Node9</title>
<g id="a_node9"><a xlink:href="O__IAbyPathTest_8cpp.html" target="_top" xlink:title="Implementation de la classe O_IAByPathTest.">
<polygon fill="white" stroke="black" points="1104,-0.5 1104,-30.5 1254,-30.5 1254,-0.5 1104,-0.5"/>
<text text-anchor="start" x="1112" y="-18.5" font-family="Helvetica,sans-Serif" font-size="10.00">src/bot&#45;opos6ul/O_IAbyPath</text>
<text text-anchor="middle" x="1179" y="-7.5" font-family="Helvetica,sans-Serif" font-size="10.00">Test.cpp</text>
</a>
</g>
</g>
<!-- Node1&#45;&gt;Node9 -->
<g id="edge8" class="edge">
<title>Node1&#45;&gt;Node9</title>
<path fill="none" stroke="midnightblue" d="M1432.86,-65.9C1377.48,-55.13 1304.45,-40.91 1250.94,-30.5"/>
<polygon fill="midnightblue" stroke="midnightblue" points="1432.5,-69.4 1442.98,-67.87 1433.84,-62.53 1432.5,-69.4"/>
</g>
<!-- Node10 -->
<g id="node10" class="node">
<title>Node10</title>
<g id="a_node10"><a xlink:href="O__LcdBoardTest_8cpp.html" target="_top" xlink:title="Implémentation de la classe O_LcdBoardTest.">
<polygon fill="white" stroke="black" points="1272,-0.5 1272,-30.5 1424,-30.5 1424,-0.5 1272,-0.5"/>
<text text-anchor="start" x="1280" y="-18.5" font-family="Helvetica,sans-Serif" font-size="10.00">src/bot&#45;opos6ul/O_LcdBoard</text>
<text text-anchor="middle" x="1348" y="-7.5" font-family="Helvetica,sans-Serif" font-size="10.00">Test.cpp</text>
</a>
</g>
</g>
<!-- Node1&#45;&gt;Node10 -->
<g id="edge9" class="edge">
<title>Node1&#45;&gt;Node10</title>
<path fill="none" stroke="midnightblue" d="M1467.77,-63.68C1441.31,-53.26 1408.37,-40.28 1383.73,-30.58"/>
<polygon fill="midnightblue" stroke="midnightblue" points="1466.61,-66.99 1477.2,-67.4 1469.18,-60.47 1466.61,-66.99"/>
</g>
<!-- Node11 -->
<g id="node11" class="node">
<title>Node11</title>
<g id="a_node11"><a xlink:href="O__LedBarTest_8cpp.html" target="_top" xlink:title="Implementation de la classe O_LedBarTest.">
<polygon fill="white" stroke="black" points="1442.5,-0.5 1442.5,-30.5 1583.5,-30.5 1583.5,-0.5 1442.5,-0.5"/>
<text text-anchor="start" x="1450.5" y="-18.5" font-family="Helvetica,sans-Serif" font-size="10.00">src/bot&#45;opos6ul/O_LedBar</text>
<text text-anchor="middle" x="1513" y="-7.5" font-family="Helvetica,sans-Serif" font-size="10.00">Test.cpp</text>
</a>
</g>
</g>
<!-- Node1&#45;&gt;Node11 -->
<g id="edge10" class="edge">
<title>Node1&#45;&gt;Node11</title>
<path fill="none" stroke="midnightblue" d="M1513,-57.11C1513,-48.15 1513,-38.32 1513,-30.58"/>
<polygon fill="midnightblue" stroke="midnightblue" points="1509.5,-57.4 1513,-67.4 1516.5,-57.4 1509.5,-57.4"/>
</g>
<!-- Node12 -->
<g id="node12" class="node">
<title>Node12</title>
<g id="a_node12"><a xlink:href="O__SensorsTest_8cpp.html" target="_top" xlink:title="Implémentation de la classe O_SensorsTest.">
<polygon fill="white" stroke="black" points="1602,-0.5 1602,-30.5 1748,-30.5 1748,-0.5 1602,-0.5"/>
<text text-anchor="start" x="1610" y="-18.5" font-family="Helvetica,sans-Serif" font-size="10.00">src/bot&#45;opos6ul/O_Sensors</text>
<text text-anchor="middle" x="1675" y="-7.5" font-family="Helvetica,sans-Serif" font-size="10.00">Test.cpp</text>
</a>
</g>
</g>
<!-- Node1&#45;&gt;Node12 -->
<g id="edge11" class="edge">
<title>Node1&#45;&gt;Node12</title>
<path fill="none" stroke="midnightblue" d="M1557.75,-63.54C1583.67,-53.14 1615.84,-40.24 1639.92,-30.58"/>
<polygon fill="midnightblue" stroke="midnightblue" points="1556.13,-60.42 1548.15,-67.4 1558.74,-66.92 1556.13,-60.42"/>
</g>
<!-- Node13 -->
<g id="node13" class="node">
<title>Node13</title>
<g id="a_node13"><a xlink:href="O__ServoObjectsTest_8cpp.html" target="_top" xlink:title="Implémentation de la classe O_ServoObjectsTest.">
<polygon fill="white" stroke="black" points="1766,-0.5 1766,-30.5 1938,-30.5 1938,-0.5 1766,-0.5"/>
<text text-anchor="start" x="1774" y="-18.5" font-family="Helvetica,sans-Serif" font-size="10.00">src/bot&#45;opos6ul/O_ServoObjects</text>
<text text-anchor="middle" x="1852" y="-7.5" font-family="Helvetica,sans-Serif" font-size="10.00">Test.cpp</text>
</a>
</g>
</g>
<!-- Node1&#45;&gt;Node13 -->
<g id="edge12" class="edge">
<title>Node1&#45;&gt;Node13</title>
<path fill="none" stroke="midnightblue" d="M1593.18,-66.13C1649.5,-55.33 1724.24,-41 1778.92,-30.51"/>
<polygon fill="midnightblue" stroke="midnightblue" points="1592.4,-62.71 1583.24,-68.03 1593.72,-69.59 1592.4,-62.71"/>
</g>
<!-- Node14 -->
<g id="node14" class="node">
<title>Node14</title>
<g id="a_node14"><a xlink:href="O__ServoStepTest_8cpp.html" target="_top" xlink:title="Implémentation de la classe O_ServoStepTest.">
<polygon fill="white" stroke="black" points="1956.5,-0.5 1956.5,-30.5 2113.5,-30.5 2113.5,-0.5 1956.5,-0.5"/>
<text text-anchor="start" x="1964.5" y="-18.5" font-family="Helvetica,sans-Serif" font-size="10.00">src/bot&#45;opos6ul/O_ServoStep</text>
<text text-anchor="middle" x="2035" y="-7.5" font-family="Helvetica,sans-Serif" font-size="10.00">Test.cpp</text>
</a>
</g>
</g>
<!-- Node1&#45;&gt;Node14 -->
<g id="edge13" class="edge">
<title>Node1&#45;&gt;Node14</title>
<path fill="none" stroke="midnightblue" d="M1593.13,-73.33C1680.33,-64.17 1823.8,-48.31 1947,-31 1950.07,-30.57 1953.19,-30.12 1956.35,-29.65"/>
<polygon fill="midnightblue" stroke="midnightblue" points="1592.62,-69.86 1583.04,-74.38 1593.35,-76.82 1592.62,-69.86"/>
</g>
<!-- Node15 -->
<g id="node15" class="node">
<title>Node15</title>
<g id="a_node15"><a xlink:href="O__State__DecisionMakerIA_8cpp.html" target="_top" xlink:title="Implémentation de la classe O_State_DecisionMakerIA.">
<polygon fill="white" stroke="black" points="2131.5,-0.5 2131.5,-30.5 2264.5,-30.5 2264.5,-0.5 2131.5,-0.5"/>
<text text-anchor="start" x="2139.5" y="-18.5" font-family="Helvetica,sans-Serif" font-size="10.00">src/bot&#45;opos6ul/O_State</text>
<text text-anchor="middle" x="2198" y="-7.5" font-family="Helvetica,sans-Serif" font-size="10.00">_DecisionMakerIA.cpp</text>
</a>
</g>
</g>
<!-- Node1&#45;&gt;Node15 -->
<g id="edge14" class="edge">
<title>Node1&#45;&gt;Node15</title>
<path fill="none" stroke="midnightblue" d="M1593.56,-77.62C1710.57,-71.35 1934.21,-56.99 2123,-31 2125.76,-30.62 2128.57,-30.21 2131.41,-29.76"/>
<polygon fill="midnightblue" stroke="midnightblue" points="1593.06,-74.14 1583.26,-78.16 1593.43,-81.13 1593.06,-74.14"/>
</g>
<!-- Node16 -->
<g id="node16" class="node">
<title>Node16</title>
<g id="a_node16"><a xlink:href="O__State__Init_8cpp.html" target="_top" xlink:title="Implémentation de la classe O_State_Init.">
<polygon fill="white" stroke="black" points="2282.5,-0.5 2282.5,-30.5 2415.5,-30.5 2415.5,-0.5 2282.5,-0.5"/>
<text text-anchor="start" x="2290.5" y="-18.5" font-family="Helvetica,sans-Serif" font-size="10.00">src/bot&#45;opos6ul/O_State</text>
<text text-anchor="middle" x="2349" y="-7.5" font-family="Helvetica,sans-Serif" font-size="10.00">_Init.cpp</text>
</a>
</g>
</g>
<!-- Node1&#45;&gt;Node16 -->
<g id="edge15" class="edge">
<title>Node1&#45;&gt;Node16</title>
<path fill="none" stroke="midnightblue" d="M1593.2,-79.46C1732.3,-75.2 2027.07,-62.94 2274,-31 2276.76,-30.64 2279.58,-30.25 2282.41,-29.82"/>
<polygon fill="midnightblue" stroke="midnightblue" points="1592.95,-75.97 1583.06,-79.77 1593.16,-82.97 1592.95,-75.97"/>
</g>
<!-- Node17 -->
<g id="node17" class="node">
<title>Node17</title>
<g id="a_node17"><a xlink:href="O__State__WaitEndOfMatch_8cpp.html" target="_top" xlink:title="Implémentation de la classe O_State_WaitEndOfMatch.">
<polygon fill="white" stroke="black" points="2433.5,-0.5 2433.5,-30.5 2566.5,-30.5 2566.5,-0.5 2433.5,-0.5"/>
<text text-anchor="start" x="2441.5" y="-18.5" font-family="Helvetica,sans-Serif" font-size="10.00">src/bot&#45;opos6ul/O_State</text>
<text text-anchor="middle" x="2500" y="-7.5" font-family="Helvetica,sans-Serif" font-size="10.00">_WaitEndOfMatch.cpp</text>
</a>
</g>
</g>
<!-- Node1&#45;&gt;Node17 -->
<g id="edge16" class="edge">
<title>Node1&#45;&gt;Node17</title>
<path fill="none" stroke="midnightblue" d="M1593.27,-80.71C1752.48,-78.33 2119.32,-68.83 2425,-31 2427.76,-30.66 2430.58,-30.27 2433.42,-29.86"/>
<polygon fill="midnightblue" stroke="midnightblue" points="1593.03,-77.21 1583.08,-80.85 1593.13,-84.21 1593.03,-77.21"/>
</g>
<!-- Node18 -->
<g id="node18" class="node">
<title>Node18</title>
<g id="a_node18"><a xlink:href="O__TiretteTest_8cpp.html" target="_top" xlink:title="Implémentation de la classe O_TiretteTest.">
<polygon fill="white" stroke="black" points="2585,-0.5 2585,-30.5 2725,-30.5 2725,-0.5 2585,-0.5"/>
<text text-anchor="start" x="2593" y="-18.5" font-family="Helvetica,sans-Serif" font-size="10.00">src/bot&#45;opos6ul/O_Tirette</text>
<text text-anchor="middle" x="2655" y="-7.5" font-family="Helvetica,sans-Serif" font-size="10.00">Test.cpp</text>
</a>
</g>
</g>
<!-- Node1&#45;&gt;Node18 -->
<g id="edge17" class="edge">
<title>Node1&#45;&gt;Node18</title>
<path fill="none" stroke="midnightblue" d="M1593.27,-81.35C1770.96,-80.22 2210.72,-73.01 2576,-31 2578.91,-30.67 2581.87,-30.29 2584.86,-29.88"/>
<polygon fill="midnightblue" stroke="midnightblue" points="1593.2,-77.85 1583.23,-81.41 1593.25,-84.85 1593.2,-77.85"/>
</g>
<!-- Node19 -->
<g id="node19" class="node">
<title>Node19</title>
<g id="a_node19"><a xlink:href="OPOS6UL__ActionsExtended_8cpp.html" target="_top" xlink:title="Implémentation de la classe OPOS6UL_ActionsExtended.">
<polygon fill="white" stroke="black" points="2743,-0.5 2743,-30.5 2883,-30.5 2883,-0.5 2743,-0.5"/>
<text text-anchor="start" x="2751" y="-18.5" font-family="Helvetica,sans-Serif" font-size="10.00">src/bot&#45;opos6ul/OPOS6UL</text>
<text text-anchor="middle" x="2813" y="-7.5" font-family="Helvetica,sans-Serif" font-size="10.00">_ActionsExtended.cpp</text>
</a>
</g>
</g>
<!-- Node1&#45;&gt;Node19 -->
<g id="edge18" class="edge">
<title>Node1&#45;&gt;Node19</title>
<path fill="none" stroke="midnightblue" d="M1593.32,-82.06C1789.05,-82.58 2306,-78.89 2734,-31 2736.91,-30.67 2739.87,-30.3 2742.86,-29.9"/>
<polygon fill="midnightblue" stroke="midnightblue" points="1593.13,-78.56 1583.12,-82.03 1593.11,-85.56 1593.13,-78.56"/>
</g>
<!-- Node20 -->
<g id="node20" class="node">
<title>Node20</title>
<g id="a_node20"><a xlink:href="OPOS6UL__RobotExtended_8cpp.html" target="_top" xlink:title="Implémentation de la classe OPOS6UL_RobotExtended.">
<polygon fill="white" stroke="black" points="2901,-0.5 2901,-30.5 3041,-30.5 3041,-0.5 2901,-0.5"/>
<text text-anchor="start" x="2909" y="-18.5" font-family="Helvetica,sans-Serif" font-size="10.00">src/bot&#45;opos6ul/OPOS6UL</text>
<text text-anchor="middle" x="2971" y="-7.5" font-family="Helvetica,sans-Serif" font-size="10.00">_RobotExtended.cpp</text>
</a>
</g>
</g>
<!-- Node1&#45;&gt;Node20 -->
<g id="edge19" class="edge">
<title>Node1&#45;&gt;Node20</title>
<path fill="none" stroke="midnightblue" d="M1593.68,-80.08C1849.07,-75.35 2637.88,-58.83 2892,-31 2894.91,-30.68 2897.88,-30.32 2900.87,-29.92"/>
<polygon fill="midnightblue" stroke="midnightblue" points="1593.3,-76.59 1583.37,-80.27 1593.43,-83.59 1593.3,-76.59"/>
</g>
</g>
</svg>
