<?xml version="1.0" encoding="UTF-8" standalone="no"?>
<!DOCTYPE svg PUBLIC "-//W3C//DTD SVG 1.1//EN"
 "http://www.w3.org/Graphics/SVG/1.1/DTD/svg11.dtd">
<!-- Generated by graphviz version 2.43.0 (0)
 -->
<!-- Title: src/bot&#45;opos6ul/OPOS6UL_IAExtended.hpp Pages: 1 -->
<svg width="632pt" height="106pt"
 viewBox="0.00 0.00 632.00 106.00" xmlns="http://www.w3.org/2000/svg" xmlns:xlink="http://www.w3.org/1999/xlink">
<g id="graph0" class="graph" transform="scale(1 1) rotate(0) translate(4 102)">
<title>src/bot&#45;opos6ul/OPOS6UL_IAExtended.hpp</title>
<polygon fill="white" stroke="transparent" points="-4,4 -4,-102 628,-102 628,4 -4,4"/>
<!-- Node1 -->
<g id="node1" class="node">
<title>Node1</title>
<g id="a_node1"><a xlink:title="Extension de l&#39;intelligence artificielle pour la carte OPOS6UL.">
<polygon fill="#bfbfbf" stroke="black" points="247,-67.5 247,-97.5 387,-97.5 387,-67.5 247,-67.5"/>
<text text-anchor="start" x="255" y="-85.5" font-family="Helvetica,sans-Serif" font-size="10.00">src/bot&#45;opos6ul/OPOS6UL</text>
<text text-anchor="middle" x="317" y="-74.5" font-family="Helvetica,sans-Serif" font-size="10.00">_IAExtended.hpp</text>
</a>
</g>
</g>
<!-- Node2 -->
<g id="node2" class="node">
<title>Node2</title>
<g id="a_node2"><a xlink:href="O__IAbyPathTest_8cpp.html" target="_top" xlink:title="Implementation de la classe O_IAByPathTest.">
<polygon fill="white" stroke="black" points="0,-0.5 0,-30.5 150,-30.5 150,-0.5 0,-0.5"/>
<text text-anchor="start" x="8" y="-18.5" font-family="Helvetica,sans-Serif" font-size="10.00">src/bot&#45;opos6ul/O_IAbyPath</text>
<text text-anchor="middle" x="75" y="-7.5" font-family="Helvetica,sans-Serif" font-size="10.00">Test.cpp</text>
</a>
</g>
</g>
<!-- Node1&#45;&gt;Node2 -->
<g id="edge1" class="edge">
<title>Node1&#45;&gt;Node2</title>
<path fill="none" stroke="midnightblue" d="M255.01,-64.85C215.55,-54.25 165.01,-40.68 127.54,-30.61"/>
<polygon fill="midnightblue" stroke="midnightblue" points="254.22,-68.26 264.79,-67.48 256.04,-61.5 254.22,-68.26"/>
</g>
<!-- Node3 -->
<g id="node3" class="node">
<title>Node3</title>
<g id="a_node3"><a xlink:href="OPOS6UL__AsservExtended_8cpp.html" target="_top" xlink:title=" ">
<polygon fill="white" stroke="black" points="168,-0.5 168,-30.5 308,-30.5 308,-0.5 168,-0.5"/>
<text text-anchor="start" x="176" y="-18.5" font-family="Helvetica,sans-Serif" font-size="10.00">src/bot&#45;opos6ul/OPOS6UL</text>
<text text-anchor="middle" x="238" y="-7.5" font-family="Helvetica,sans-Serif" font-size="10.00">_AsservExtended.cpp</text>
</a>
</g>
</g>
<!-- Node1&#45;&gt;Node3 -->
<g id="edge2" class="edge">
<title>Node1&#45;&gt;Node3</title>
<path fill="none" stroke="midnightblue" d="M291.94,-60.88C279.94,-51.01 265.87,-39.43 255.11,-30.58"/>
<polygon fill="midnightblue" stroke="midnightblue" points="289.91,-63.75 299.86,-67.4 294.36,-58.34 289.91,-63.75"/>
</g>
<!-- Node4 -->
<g id="node4" class="node">
<title>Node4</title>
<g id="a_node4"><a xlink:href="OPOS6UL__IAExtended_8cpp.html" target="_top" xlink:title=" ">
<polygon fill="white" stroke="black" points="326,-0.5 326,-30.5 466,-30.5 466,-0.5 326,-0.5"/>
<text text-anchor="start" x="334" y="-18.5" font-family="Helvetica,sans-Serif" font-size="10.00">src/bot&#45;opos6ul/OPOS6UL</text>
<text text-anchor="middle" x="396" y="-7.5" font-family="Helvetica,sans-Serif" font-size="10.00">_IAExtended.cpp</text>
</a>
</g>
</g>
<!-- Node1&#45;&gt;Node4 -->
<g id="edge3" class="edge">
<title>Node1&#45;&gt;Node4</title>
<path fill="none" stroke="midnightblue" d="M342.06,-60.88C354.06,-51.01 368.13,-39.43 378.89,-30.58"/>
<polygon fill="midnightblue" stroke="midnightblue" points="339.64,-58.34 334.14,-67.4 344.09,-63.75 339.64,-58.34"/>
</g>
<!-- Node5 -->
<g id="node5" class="node">
<title>Node5</title>
<g id="a_node5"><a xlink:href="OPOS6UL__RobotExtended_8cpp.html" target="_top" xlink:title=" ">
<polygon fill="white" stroke="black" points="484,-0.5 484,-30.5 624,-30.5 624,-0.5 484,-0.5"/>
<text text-anchor="start" x="492" y="-18.5" font-family="Helvetica,sans-Serif" font-size="10.00">src/bot&#45;opos6ul/OPOS6UL</text>
<text text-anchor="middle" x="554" y="-7.5" font-family="Helvetica,sans-Serif" font-size="10.00">_RobotExtended.cpp</text>
</a>
</g>
</g>
<!-- Node1&#45;&gt;Node5 -->
<g id="edge4" class="edge">
<title>Node1&#45;&gt;Node5</title>
<path fill="none" stroke="midnightblue" d="M378.2,-64.71C416.77,-54.14 466,-40.63 502.55,-30.61"/>
<polygon fill="midnightblue" stroke="midnightblue" points="376.85,-61.46 368.13,-67.48 378.7,-68.21 376.85,-61.46"/>
</g>
</g>
</svg>
