<?xml version="1.0" encoding="UTF-8" standalone="no"?>
<!DOCTYPE svg PUBLIC "-//W3C//DTD SVG 1.1//EN"
 "http://www.w3.org/Graphics/SVG/1.1/DTD/svg11.dtd">
<!-- Generated by graphviz version 2.43.0 (0)
 -->
<!-- Title: src/bot&#45;opos6ul/OPOS6UL_IAExtended.hpp Pages: 1 -->
<svg width="1314pt" height="431pt"
 viewBox="0.00 0.00 1314.30 431.00" xmlns="http://www.w3.org/2000/svg" xmlns:xlink="http://www.w3.org/1999/xlink">
<g id="graph0" class="graph" transform="scale(1 1) rotate(0) translate(4 427)">
<title>src/bot&#45;opos6ul/OPOS6UL_IAExtended.hpp</title>
<polygon fill="white" stroke="transparent" points="-4,4 -4,-427 1310.3,-427 1310.3,4 -4,4"/>
<!-- Node1 -->
<g id="node1" class="node">
<title>Node1</title>
<g id="a_node1"><a xlink:title="Extension de l&#39;intelligence artificielle pour la carte OPOS6UL.">
<polygon fill="#bfbfbf" stroke="black" points="345.5,-392.5 345.5,-422.5 485.5,-422.5 485.5,-392.5 345.5,-392.5"/>
<text text-anchor="start" x="353.5" y="-410.5" font-family="Helvetica,sans-Serif" font-size="10.00">src/bot&#45;opos6ul/OPOS6UL</text>
<text text-anchor="middle" x="415.5" y="-399.5" font-family="Helvetica,sans-Serif" font-size="10.00">_IAExtended.hpp</text>
</a>
</g>
</g>
<!-- Node2 -->
<g id="node2" class="node">
<title>Node2</title>
<g id="a_node2"><a xlink:title=" ">
<polygon fill="white" stroke="#bfbfbf" points="0,-336.5 0,-355.5 129,-355.5 129,-336.5 0,-336.5"/>
<text text-anchor="middle" x="64.5" y="-343.5" font-family="Helvetica,sans-Serif" font-size="10.00">pmr_symmetrical_pg.h</text>
</a>
</g>
</g>
<!-- Node1&#45;&gt;Node2 -->
<g id="edge1" class="edge">
<title>Node1&#45;&gt;Node2</title>
<path fill="none" stroke="midnightblue" d="M345.31,-394.6C280.69,-383.65 185.84,-367.57 124.62,-357.19"/>
<polygon fill="midnightblue" stroke="midnightblue" points="125.16,-353.73 114.72,-355.51 123.99,-360.63 125.16,-353.73"/>
</g>
<!-- Node3 -->
<g id="node3" class="node">
<title>Node3</title>
<g id="a_node3"><a xlink:title=" ">
<polygon fill="white" stroke="#bfbfbf" points="605.5,-0.5 605.5,-19.5 649.5,-19.5 649.5,-0.5 605.5,-0.5"/>
<text text-anchor="middle" x="627.5" y="-7.5" font-family="Helvetica,sans-Serif" font-size="10.00">string</text>
</a>
</g>
</g>
<!-- Node1&#45;&gt;Node3 -->
<g id="edge2" class="edge">
<title>Node1&#45;&gt;Node3</title>
<path fill="none" stroke="midnightblue" d="M345.34,-404.2C268.94,-397.49 157.5,-373.57 157.5,-291 157.5,-291 157.5,-291 157.5,-121 157.5,-81.08 183.72,-73.7 219.5,-56 285.5,-23.35 510.83,-14.09 595.23,-11.73"/>
<polygon fill="midnightblue" stroke="midnightblue" points="595.36,-15.23 605.26,-11.47 595.17,-8.23 595.36,-15.23"/>
</g>
<!-- Node4 -->
<g id="node4" class="node">
<title>Node4</title>
<g id="a_node4"><a xlink:href="IAbyPath_8hpp.html" target="_top" xlink:title=" ">
<polygon fill="white" stroke="black" points="667.5,-336.5 667.5,-355.5 759.5,-355.5 759.5,-336.5 667.5,-336.5"/>
<text text-anchor="middle" x="713.5" y="-343.5" font-family="Helvetica,sans-Serif" font-size="10.00">ia/IAbyPath.hpp</text>
</a>
</g>
</g>
<!-- Node1&#45;&gt;Node4 -->
<g id="edge3" class="edge">
<title>Node1&#45;&gt;Node4</title>
<path fill="none" stroke="midnightblue" d="M485.74,-392.47C539.4,-381.76 612.18,-367.23 660.88,-357.51"/>
<polygon fill="midnightblue" stroke="midnightblue" points="661.78,-360.9 670.9,-355.51 660.4,-354.03 661.78,-360.9"/>
</g>
<!-- Node33 -->
<g id="node33" class="node">
<title>Node33</title>
<g id="a_node33"><a xlink:href="IAbyZone_8hpp.html" target="_top" xlink:title=" ">
<polygon fill="white" stroke="black" points="993.5,-336.5 993.5,-355.5 1089.5,-355.5 1089.5,-336.5 993.5,-336.5"/>
<text text-anchor="middle" x="1041.5" y="-343.5" font-family="Helvetica,sans-Serif" font-size="10.00">ia/IAbyZone.hpp</text>
</a>
</g>
</g>
<!-- Node1&#45;&gt;Node33 -->
<g id="edge52" class="edge">
<title>Node1&#45;&gt;Node33</title>
<path fill="none" stroke="midnightblue" d="M485.79,-399.82C610.43,-387.97 867.88,-363.5 983.3,-352.53"/>
<polygon fill="midnightblue" stroke="midnightblue" points="983.73,-356.01 993.35,-351.58 983.06,-349.04 983.73,-356.01"/>
</g>
<!-- Node4&#45;&gt;Node3 -->
<g id="edge6" class="edge">
<title>Node4&#45;&gt;Node3</title>
<path fill="none" stroke="midnightblue" d="M667.08,-344.95C539.93,-343.56 195.5,-330.96 195.5,-235 195.5,-235 195.5,-235 195.5,-121 195.5,-76.89 230.22,-73.98 270.5,-56 328.39,-30.17 518.87,-17.01 595.32,-12.67"/>
<polygon fill="midnightblue" stroke="midnightblue" points="595.54,-16.16 605.33,-12.11 595.15,-9.17 595.54,-16.16"/>
</g>
<!-- Node5 -->
<g id="node5" class="node">
<title>Node5</title>
<g id="a_node5"><a xlink:title=" ">
<polygon fill="white" stroke="#bfbfbf" points="621,-280.5 621,-299.5 726,-299.5 726,-280.5 621,-280.5"/>
<text text-anchor="middle" x="673.5" y="-287.5" font-family="Helvetica,sans-Serif" font-size="10.00">pmr_playground.h</text>
</a>
</g>
</g>
<!-- Node4&#45;&gt;Node5 -->
<g id="edge4" class="edge">
<title>Node4&#45;&gt;Node5</title>
<path fill="none" stroke="midnightblue" d="M706.89,-336.08C701.24,-328.46 692.96,-317.26 686.05,-307.94"/>
<polygon fill="midnightblue" stroke="midnightblue" points="688.75,-305.7 679.98,-299.75 683.12,-309.87 688.75,-305.7"/>
</g>
<!-- Node6 -->
<g id="node6" class="node">
<title>Node6</title>
<g id="a_node6"><a xlink:title=" ">
<polygon fill="white" stroke="#bfbfbf" points="820.5,-56.5 820.5,-75.5 876.5,-75.5 876.5,-56.5 820.5,-56.5"/>
<text text-anchor="middle" x="848.5" y="-63.5" font-family="Helvetica,sans-Serif" font-size="10.00">sstream</text>
</a>
</g>
</g>
<!-- Node4&#45;&gt;Node6 -->
<g id="edge5" class="edge">
<title>Node4&#45;&gt;Node6</title>
<path fill="none" stroke="midnightblue" d="M717.45,-336.35C726.67,-316.29 750.59,-265.19 773.5,-224 796.88,-181.96 811.22,-176.07 830.5,-132 837.1,-116.91 841.88,-98.79 844.85,-85.51"/>
<polygon fill="midnightblue" stroke="midnightblue" points="848.28,-86.19 846.92,-75.68 841.43,-84.75 848.28,-86.19"/>
</g>
<!-- Node7 -->
<g id="node7" class="node">
<title>Node7</title>
<g id="a_node7"><a xlink:href="LoggerFactory_8hpp.html" target="_top" xlink:title="Définition de la classe LoggerFactory.">
<polygon fill="white" stroke="black" points="903.5,-168.5 903.5,-187.5 1025.5,-187.5 1025.5,-168.5 903.5,-168.5"/>
<text text-anchor="middle" x="964.5" y="-175.5" font-family="Helvetica,sans-Serif" font-size="10.00">log/LoggerFactory.hpp</text>
</a>
</g>
</g>
<!-- Node4&#45;&gt;Node7 -->
<g id="edge7" class="edge">
<title>Node4&#45;&gt;Node7</title>
<path fill="none" stroke="midnightblue" d="M759.59,-341.55C818.78,-334.37 919.35,-312.22 965.5,-244 974.58,-230.58 973.16,-211.76 970.16,-197.82"/>
<polygon fill="midnightblue" stroke="midnightblue" points="973.48,-196.69 967.59,-187.89 966.71,-198.45 973.48,-196.69"/>
</g>
<!-- Node16 -->
<g id="node16" class="node">
<title>Node16</title>
<g id="a_node16"><a xlink:href="AAsservDriver_8hpp.html" target="_top" xlink:title="Interface abstraite du driver d&#39;asservissement.">
<polygon fill="white" stroke="black" points="783,-224.5 783,-243.5 936,-243.5 936,-224.5 783,-224.5"/>
<text text-anchor="middle" x="859.5" y="-231.5" font-family="Helvetica,sans-Serif" font-size="10.00">interface/AAsservDriver.hpp</text>
</a>
</g>
</g>
<!-- Node4&#45;&gt;Node16 -->
<g id="edge23" class="edge">
<title>Node4&#45;&gt;Node16</title>
<path fill="none" stroke="midnightblue" d="M724.96,-336.37C749.8,-317.65 808.86,-273.15 839.81,-249.83"/>
<polygon fill="midnightblue" stroke="midnightblue" points="842.22,-252.4 848.1,-243.59 838,-246.81 842.22,-252.4"/>
</g>
<!-- Node22 -->
<g id="node22" class="node">
<title>Node22</title>
<g id="a_node22"><a xlink:href="Robot_8hpp.html" target="_top" xlink:title=" ">
<polygon fill="white" stroke="black" points="528,-280.5 528,-299.5 603,-299.5 603,-280.5 528,-280.5"/>
<text text-anchor="middle" x="565.5" y="-287.5" font-family="Helvetica,sans-Serif" font-size="10.00">../Robot.hpp</text>
</a>
</g>
</g>
<!-- Node4&#45;&gt;Node22 -->
<g id="edge31" class="edge">
<title>Node4&#45;&gt;Node22</title>
<path fill="none" stroke="midnightblue" d="M690.05,-336.44C665.37,-327.44 626.31,-313.19 598.52,-303.05"/>
<polygon fill="midnightblue" stroke="midnightblue" points="599.44,-299.66 588.84,-299.52 597.04,-306.23 599.44,-299.66"/>
</g>
<!-- Node32 -->
<g id="node32" class="node">
<title>Node32</title>
<g id="a_node32"><a xlink:href="IACommon_8hpp.html" target="_top" xlink:title=" ">
<polygon fill="white" stroke="black" points="958.5,-280.5 958.5,-299.5 1050.5,-299.5 1050.5,-280.5 958.5,-280.5"/>
<text text-anchor="middle" x="1004.5" y="-287.5" font-family="Helvetica,sans-Serif" font-size="10.00">IACommon.hpp</text>
</a>
</g>
</g>
<!-- Node4&#45;&gt;Node32 -->
<g id="edge51" class="edge">
<title>Node4&#45;&gt;Node32</title>
<path fill="none" stroke="midnightblue" d="M759.61,-336.44C810.91,-326.92 893.77,-311.55 948.69,-301.36"/>
<polygon fill="midnightblue" stroke="midnightblue" points="949.41,-304.78 958.61,-299.52 948.14,-297.9 949.41,-304.78"/>
</g>
<!-- Node7&#45;&gt;Node3 -->
<g id="edge9" class="edge">
<title>Node7&#45;&gt;Node3</title>
<path fill="none" stroke="midnightblue" d="M955.23,-168.32C946.35,-159.68 932.95,-145.77 923.5,-132 902.14,-100.86 915.79,-78.55 885.5,-56 850.23,-29.75 721.02,-17.48 659.92,-13.05"/>
<polygon fill="midnightblue" stroke="midnightblue" points="659.91,-9.54 649.69,-12.33 659.42,-16.52 659.91,-9.54"/>
</g>
<!-- Node8 -->
<g id="node8" class="node">
<title>Node8</title>
<g id="a_node8"><a xlink:title=" ">
<polygon fill="white" stroke="#bfbfbf" points="564.5,-112.5 564.5,-131.5 602.5,-131.5 602.5,-112.5 564.5,-112.5"/>
<text text-anchor="middle" x="583.5" y="-119.5" font-family="Helvetica,sans-Serif" font-size="10.00">map</text>
</a>
</g>
</g>
<!-- Node7&#45;&gt;Node8 -->
<g id="edge8" class="edge">
<title>Node7&#45;&gt;Node8</title>
<path fill="none" stroke="midnightblue" d="M904.13,-168.44C821.19,-156.69 675.22,-136 612.97,-127.18"/>
<polygon fill="midnightblue" stroke="midnightblue" points="613.08,-123.66 602.69,-125.72 612.1,-130.59 613.08,-123.66"/>
</g>
<!-- Node9 -->
<g id="node9" class="node">
<title>Node9</title>
<g id="a_node9"><a xlink:href="Thread_8hpp.html" target="_top" xlink:title="Définition de la classe Thread.">
<polygon fill="white" stroke="black" points="1067,-112.5 1067,-131.5 1182,-131.5 1182,-112.5 1067,-112.5"/>
<text text-anchor="middle" x="1124.5" y="-119.5" font-family="Helvetica,sans-Serif" font-size="10.00">../thread/Thread.hpp</text>
</a>
</g>
</g>
<!-- Node7&#45;&gt;Node9 -->
<g id="edge10" class="edge">
<title>Node7&#45;&gt;Node9</title>
<path fill="none" stroke="midnightblue" d="M989.85,-168.44C1016.77,-159.36 1059.5,-144.94 1089.59,-134.78"/>
<polygon fill="midnightblue" stroke="midnightblue" points="1090.91,-138.03 1099.27,-131.52 1088.67,-131.4 1090.91,-138.03"/>
</g>
<!-- Node14 -->
<g id="node14" class="node">
<title>Node14</title>
<g id="a_node14"><a xlink:href="Logger_8hpp.html" target="_top" xlink:title="Définition de la classe Logger.">
<polygon fill="white" stroke="black" points="932.5,-112.5 932.5,-131.5 1002.5,-131.5 1002.5,-112.5 932.5,-112.5"/>
<text text-anchor="middle" x="967.5" y="-119.5" font-family="Helvetica,sans-Serif" font-size="10.00">Logger.hpp</text>
</a>
</g>
</g>
<!-- Node7&#45;&gt;Node14 -->
<g id="edge17" class="edge">
<title>Node7&#45;&gt;Node14</title>
<path fill="none" stroke="midnightblue" d="M965,-168.08C965.39,-161.01 965.95,-150.86 966.45,-141.99"/>
<polygon fill="midnightblue" stroke="midnightblue" points="969.95,-141.93 967.01,-131.75 962.96,-141.54 969.95,-141.93"/>
</g>
<!-- Node9&#45;&gt;Node3 -->
<g id="edge12" class="edge">
<title>Node9&#45;&gt;Node3</title>
<path fill="none" stroke="midnightblue" d="M1114.5,-112.47C1096.97,-98.06 1059,-69.19 1021.5,-56 954.84,-32.54 741.74,-17.77 659.92,-12.84"/>
<polygon fill="midnightblue" stroke="midnightblue" points="659.9,-9.33 649.71,-12.23 659.49,-16.32 659.9,-9.33"/>
</g>
<!-- Node10 -->
<g id="node10" class="node">
<title>Node10</title>
<g id="a_node10"><a xlink:title=" ">
<polygon fill="white" stroke="#bfbfbf" points="1191,-0.5 1191,-19.5 1254,-19.5 1254,-0.5 1191,-0.5"/>
<text text-anchor="middle" x="1222.5" y="-7.5" font-family="Helvetica,sans-Serif" font-size="10.00">pthread.h</text>
</a>
</g>
</g>
<!-- Node9&#45;&gt;Node10 -->
<g id="edge11" class="edge">
<title>Node9&#45;&gt;Node10</title>
<path fill="none" stroke="midnightblue" d="M1169.97,-112.43C1219.65,-102.61 1293.33,-86.51 1301.5,-76 1318.4,-54.27 1285.88,-35.03 1257.59,-23.23"/>
<polygon fill="midnightblue" stroke="midnightblue" points="1258.82,-19.95 1248.23,-19.52 1256.24,-26.46 1258.82,-19.95"/>
</g>
<!-- Node11 -->
<g id="node11" class="node">
<title>Node11</title>
<g id="a_node11"><a xlink:title=" ">
<polygon fill="white" stroke="#bfbfbf" points="1244.5,-56.5 1244.5,-75.5 1292.5,-75.5 1292.5,-56.5 1244.5,-56.5"/>
<text text-anchor="middle" x="1268.5" y="-63.5" font-family="Helvetica,sans-Serif" font-size="10.00">thread</text>
</a>
</g>
</g>
<!-- Node9&#45;&gt;Node11 -->
<g id="edge13" class="edge">
<title>Node9&#45;&gt;Node11</title>
<path fill="none" stroke="midnightblue" d="M1147.32,-112.44C1171.33,-103.44 1209.33,-89.19 1236.37,-79.05"/>
<polygon fill="midnightblue" stroke="midnightblue" points="1237.66,-82.3 1245.79,-75.52 1235.2,-75.75 1237.66,-82.3"/>
</g>
<!-- Node12 -->
<g id="node12" class="node">
<title>Node12</title>
<g id="a_node12"><a xlink:href="Mutex_8hpp.html" target="_top" xlink:title="Définition de la classe Mutex.">
<polygon fill="white" stroke="black" points="1090.5,-56.5 1090.5,-75.5 1158.5,-75.5 1158.5,-56.5 1090.5,-56.5"/>
<text text-anchor="middle" x="1124.5" y="-63.5" font-family="Helvetica,sans-Serif" font-size="10.00">Mutex.hpp</text>
</a>
</g>
</g>
<!-- Node9&#45;&gt;Node12 -->
<g id="edge14" class="edge">
<title>Node9&#45;&gt;Node12</title>
<path fill="none" stroke="midnightblue" d="M1124.5,-112.08C1124.5,-105.01 1124.5,-94.86 1124.5,-85.99"/>
<polygon fill="midnightblue" stroke="midnightblue" points="1128,-85.75 1124.5,-75.75 1121,-85.75 1128,-85.75"/>
</g>
<!-- Node13 -->
<g id="node13" class="node">
<title>Node13</title>
<g id="a_node13"><a xlink:title=" ">
<polygon fill="white" stroke="#bfbfbf" points="1176.5,-56.5 1176.5,-75.5 1226.5,-75.5 1226.5,-56.5 1176.5,-56.5"/>
<text text-anchor="middle" x="1201.5" y="-63.5" font-family="Helvetica,sans-Serif" font-size="10.00">chrono</text>
</a>
</g>
</g>
<!-- Node9&#45;&gt;Node13 -->
<g id="edge16" class="edge">
<title>Node9&#45;&gt;Node13</title>
<path fill="none" stroke="midnightblue" d="M1136.87,-112.32C1148.66,-104.06 1166.63,-91.45 1180.64,-81.63"/>
<polygon fill="midnightblue" stroke="midnightblue" points="1182.98,-84.26 1189.16,-75.65 1178.96,-78.53 1182.98,-84.26"/>
</g>
<!-- Node12&#45;&gt;Node10 -->
<g id="edge15" class="edge">
<title>Node12&#45;&gt;Node10</title>
<path fill="none" stroke="midnightblue" d="M1140.25,-56.32C1155.82,-47.74 1179.88,-34.49 1197.96,-24.52"/>
<polygon fill="midnightblue" stroke="midnightblue" points="1199.72,-27.55 1206.79,-19.65 1196.35,-21.42 1199.72,-27.55"/>
</g>
<!-- Node14&#45;&gt;Node3 -->
<g id="edge19" class="edge">
<title>Node14&#45;&gt;Node3</title>
<path fill="none" stroke="midnightblue" d="M979.15,-112.31C995.43,-99.14 1021.3,-73.79 1005.5,-56 982.67,-30.29 747.24,-16.65 659.89,-12.44"/>
<polygon fill="midnightblue" stroke="midnightblue" points="659.91,-8.94 649.76,-11.96 659.58,-15.93 659.91,-8.94"/>
</g>
<!-- Node14&#45;&gt;Node6 -->
<g id="edge18" class="edge">
<title>Node14&#45;&gt;Node6</title>
<path fill="none" stroke="midnightblue" d="M948.64,-112.44C929.23,-103.64 898.77,-89.81 876.54,-79.72"/>
<polygon fill="midnightblue" stroke="midnightblue" points="877.82,-76.46 867.27,-75.52 874.93,-82.84 877.82,-76.46"/>
</g>
<!-- Node14&#45;&gt;Node12 -->
<g id="edge20" class="edge">
<title>Node14&#45;&gt;Node12</title>
<path fill="none" stroke="midnightblue" d="M992.38,-112.44C1018.79,-103.36 1060.72,-88.94 1090.24,-78.78"/>
<polygon fill="midnightblue" stroke="midnightblue" points="1091.42,-82.08 1099.74,-75.52 1089.14,-75.46 1091.42,-82.08"/>
</g>
<!-- Node15 -->
<g id="node15" class="node">
<title>Node15</title>
<g id="a_node15"><a xlink:href="Level_8hpp.html" target="_top" xlink:title="Définition de la classe Level.">
<polygon fill="white" stroke="black" points="932.5,-56.5 932.5,-75.5 996.5,-75.5 996.5,-56.5 932.5,-56.5"/>
<text text-anchor="middle" x="964.5" y="-63.5" font-family="Helvetica,sans-Serif" font-size="10.00">Level.hpp</text>
</a>
</g>
</g>
<!-- Node14&#45;&gt;Node15 -->
<g id="edge21" class="edge">
<title>Node14&#45;&gt;Node15</title>
<path fill="none" stroke="midnightblue" d="M967,-112.08C966.61,-105.01 966.05,-94.86 965.55,-85.99"/>
<polygon fill="midnightblue" stroke="midnightblue" points="969.04,-85.54 964.99,-75.75 962.05,-85.93 969.04,-85.54"/>
</g>
<!-- Node15&#45;&gt;Node3 -->
<g id="edge22" class="edge">
<title>Node15&#45;&gt;Node3</title>
<path fill="none" stroke="midnightblue" d="M932.36,-58.54C927.71,-57.66 922.99,-56.79 918.5,-56 824.79,-39.59 713.55,-23.26 659.78,-15.56"/>
<polygon fill="midnightblue" stroke="midnightblue" points="660.21,-12.09 649.82,-14.14 659.22,-19.02 660.21,-12.09"/>
</g>
<!-- Node16&#45;&gt;Node3 -->
<g id="edge25" class="edge">
<title>Node16&#45;&gt;Node3</title>
<path fill="none" stroke="midnightblue" d="M836.35,-224.47C800.41,-210.23 730.82,-178.49 687.5,-132 683.66,-127.88 651.77,-61.74 636.11,-29.03"/>
<polygon fill="midnightblue" stroke="midnightblue" points="639.12,-27.22 631.65,-19.71 632.8,-30.24 639.12,-27.22"/>
</g>
<!-- Node17 -->
<g id="node17" class="node">
<title>Node17</title>
<g id="a_node17"><a xlink:title=" ">
<polygon fill="white" stroke="#bfbfbf" points="834.5,-168.5 834.5,-187.5 884.5,-187.5 884.5,-168.5 834.5,-168.5"/>
<text text-anchor="middle" x="859.5" y="-175.5" font-family="Helvetica,sans-Serif" font-size="10.00">cstdint</text>
</a>
</g>
</g>
<!-- Node16&#45;&gt;Node17 -->
<g id="edge24" class="edge">
<title>Node16&#45;&gt;Node17</title>
<path fill="none" stroke="midnightblue" d="M859.5,-224.08C859.5,-217.01 859.5,-206.86 859.5,-197.99"/>
<polygon fill="midnightblue" stroke="midnightblue" points="863,-197.75 859.5,-187.75 856,-197.75 863,-197.75"/>
</g>
<!-- Node18 -->
<g id="node18" class="node">
<title>Node18</title>
<g id="a_node18"><a xlink:href="ARobotPositionShared_8hpp.html" target="_top" xlink:title="Position partagee du robot et utilitaires geometriques.">
<polygon fill="white" stroke="black" points="1043.5,-168.5 1043.5,-187.5 1189.5,-187.5 1189.5,-168.5 1043.5,-168.5"/>
<text text-anchor="middle" x="1116.5" y="-175.5" font-family="Helvetica,sans-Serif" font-size="10.00">ARobotPositionShared.hpp</text>
</a>
</g>
</g>
<!-- Node16&#45;&gt;Node18 -->
<g id="edge26" class="edge">
<title>Node16&#45;&gt;Node18</title>
<path fill="none" stroke="midnightblue" d="M900.22,-224.44C945.15,-215 1017.5,-199.8 1066,-189.61"/>
<polygon fill="midnightblue" stroke="midnightblue" points="1066.9,-193 1075.97,-187.52 1065.46,-186.15 1066.9,-193"/>
</g>
<!-- Node19 -->
<g id="node19" class="node">
<title>Node19</title>
<g id="a_node19"><a xlink:title=" ">
<polygon fill="white" stroke="#bfbfbf" points="1200,-112.5 1200,-131.5 1247,-131.5 1247,-112.5 1200,-112.5"/>
<text text-anchor="middle" x="1223.5" y="-119.5" font-family="Helvetica,sans-Serif" font-size="10.00">cmath</text>
</a>
</g>
</g>
<!-- Node18&#45;&gt;Node19 -->
<g id="edge27" class="edge">
<title>Node18&#45;&gt;Node19</title>
<path fill="none" stroke="midnightblue" d="M1133.69,-168.32C1150.85,-159.66 1177.45,-146.24 1197.25,-136.25"/>
<polygon fill="midnightblue" stroke="midnightblue" points="1199,-139.28 1206.35,-131.65 1195.85,-133.04 1199,-139.28"/>
</g>
<!-- Node20 -->
<g id="node20" class="node">
<title>Node20</title>
<g id="a_node20"><a xlink:href="Chronometer_8hpp.html" target="_top" xlink:title="Définition de la classe Chronometer.">
<polygon fill="white" stroke="black" points="697,-112.5 697,-131.5 822,-131.5 822,-112.5 697,-112.5"/>
<text text-anchor="middle" x="759.5" y="-119.5" font-family="Helvetica,sans-Serif" font-size="10.00">utils/Chronometer.hpp</text>
</a>
</g>
</g>
<!-- Node18&#45;&gt;Node20 -->
<g id="edge28" class="edge">
<title>Node18&#45;&gt;Node20</title>
<path fill="none" stroke="midnightblue" d="M1059.93,-168.44C996.35,-158.83 893.23,-143.23 825.88,-133.04"/>
<polygon fill="midnightblue" stroke="midnightblue" points="826.21,-129.55 815.8,-131.52 825.17,-136.47 826.21,-129.55"/>
</g>
<!-- Node20&#45;&gt;Node3 -->
<g id="edge30" class="edge">
<title>Node20&#45;&gt;Node3</title>
<path fill="none" stroke="midnightblue" d="M749.08,-112.12C734.32,-99.55 706.45,-75.9 682.5,-56 670.37,-45.92 656.64,-34.69 645.93,-25.96"/>
<polygon fill="midnightblue" stroke="midnightblue" points="648.05,-23.17 638.08,-19.58 643.63,-28.6 648.05,-23.17"/>
</g>
<!-- Node21 -->
<g id="node21" class="node">
<title>Node21</title>
<g id="a_node21"><a xlink:title=" ">
<polygon fill="white" stroke="#bfbfbf" points="734.5,-56.5 734.5,-75.5 802.5,-75.5 802.5,-56.5 734.5,-56.5"/>
<text text-anchor="middle" x="768.5" y="-63.5" font-family="Helvetica,sans-Serif" font-size="10.00">sys/time.h</text>
</a>
</g>
</g>
<!-- Node20&#45;&gt;Node21 -->
<g id="edge29" class="edge">
<title>Node20&#45;&gt;Node21</title>
<path fill="none" stroke="midnightblue" d="M760.99,-112.08C762.18,-104.93 763.89,-94.64 765.38,-85.69"/>
<polygon fill="midnightblue" stroke="midnightblue" points="768.85,-86.19 767.04,-75.75 761.95,-85.04 768.85,-86.19"/>
</g>
<!-- Node22&#45;&gt;Node3 -->
<g id="edge33" class="edge">
<title>Node22&#45;&gt;Node3</title>
<path fill="none" stroke="midnightblue" d="M527.74,-284.61C440.72,-273.44 233.5,-240.4 233.5,-179 233.5,-179 233.5,-179 233.5,-121 233.5,-46.03 501.45,-19.9 595.41,-13.05"/>
<polygon fill="midnightblue" stroke="midnightblue" points="595.74,-16.53 605.47,-12.34 595.25,-9.55 595.74,-16.53"/>
</g>
<!-- Node22&#45;&gt;Node7 -->
<g id="edge34" class="edge">
<title>Node22&#45;&gt;Node7</title>
<path fill="none" stroke="midnightblue" d="M603.11,-281.37C605.94,-280.88 608.76,-280.41 611.5,-280 685.09,-268.84 887.09,-291.38 944.5,-244 958,-232.86 962.57,-212.83 964.03,-197.94"/>
<polygon fill="midnightblue" stroke="midnightblue" points="967.53,-197.98 964.63,-187.79 960.54,-197.56 967.53,-197.98"/>
</g>
<!-- Node22&#45;&gt;Node16 -->
<g id="edge41" class="edge">
<title>Node22&#45;&gt;Node16</title>
<path fill="none" stroke="midnightblue" d="M603.15,-281.59C605.97,-281.05 608.78,-280.51 611.5,-280 676.47,-267.75 751.14,-254.29 801.42,-245.31"/>
<polygon fill="midnightblue" stroke="midnightblue" points="802.23,-248.72 811.46,-243.52 801,-241.83 802.23,-248.72"/>
</g>
<!-- Node22&#45;&gt;Node20 -->
<g id="edge50" class="edge">
<title>Node22&#45;&gt;Node20</title>
<path fill="none" stroke="midnightblue" d="M565.58,-280.26C566.27,-258.16 571.21,-199.54 603.5,-168 625.6,-146.42 657.36,-135.07 686.46,-129.14"/>
<polygon fill="midnightblue" stroke="midnightblue" points="687.43,-132.52 696.63,-127.26 686.16,-125.64 687.43,-132.52"/>
</g>
<!-- Node23 -->
<g id="node23" class="node">
<title>Node23</title>
<g id="a_node23"><a xlink:title=" ">
<polygon fill="white" stroke="#bfbfbf" points="506.5,-224.5 506.5,-243.5 556.5,-243.5 556.5,-224.5 506.5,-224.5"/>
<text text-anchor="middle" x="531.5" y="-231.5" font-family="Helvetica,sans-Serif" font-size="10.00">stdio.h</text>
</a>
</g>
</g>
<!-- Node22&#45;&gt;Node23 -->
<g id="edge32" class="edge">
<title>Node22&#45;&gt;Node23</title>
<path fill="none" stroke="midnightblue" d="M559.89,-280.08C555.13,-272.53 548.18,-261.49 542.35,-252.23"/>
<polygon fill="midnightblue" stroke="midnightblue" points="545.3,-250.35 537.01,-243.75 539.38,-254.08 545.3,-250.35"/>
</g>
<!-- Node24 -->
<g id="node24" class="node">
<title>Node24</title>
<g id="a_node24"><a xlink:href="Arguments_8hpp.html" target="_top" xlink:title=" ">
<polygon fill="white" stroke="black" points="280,-168.5 280,-187.5 395,-187.5 395,-168.5 280,-168.5"/>
<text text-anchor="middle" x="337.5" y="-175.5" font-family="Helvetica,sans-Serif" font-size="10.00">utils/Arguments.hpp</text>
</a>
</g>
</g>
<!-- Node22&#45;&gt;Node24 -->
<g id="edge35" class="edge">
<title>Node22&#45;&gt;Node24</title>
<path fill="none" stroke="midnightblue" d="M547.61,-280.37C507.82,-261.17 411.79,-214.84 364.6,-192.07"/>
<polygon fill="midnightblue" stroke="midnightblue" points="365.84,-188.78 355.31,-187.59 362.79,-195.09 365.84,-188.78"/>
</g>
<!-- Node28 -->
<g id="node28" class="node">
<title>Node28</title>
<g id="a_node28"><a xlink:href="ConsoleManager_8hpp.html" target="_top" xlink:title="Définition de la classe ConsoleManager.">
<polygon fill="white" stroke="black" points="413,-168.5 413,-187.5 556,-187.5 556,-168.5 413,-168.5"/>
<text text-anchor="middle" x="484.5" y="-175.5" font-family="Helvetica,sans-Serif" font-size="10.00">utils/ConsoleManager.hpp</text>
</a>
</g>
</g>
<!-- Node22&#45;&gt;Node28 -->
<g id="edge42" class="edge">
<title>Node22&#45;&gt;Node28</title>
<path fill="none" stroke="midnightblue" d="M544.37,-280.41C528.97,-273.04 508.87,-260.92 497.5,-244 488.37,-230.42 485.37,-211.87 484.51,-198.07"/>
<polygon fill="midnightblue" stroke="midnightblue" points="488,-197.69 484.2,-187.8 481,-197.9 488,-197.69"/>
</g>
<!-- Node30 -->
<g id="node30" class="node">
<title>Node30</title>
<g id="a_node30"><a xlink:href="Automate_8hpp.html" target="_top" xlink:title="Définition de la classe Automate.">
<polygon fill="white" stroke="black" points="613,-224.5 613,-243.5 726,-243.5 726,-224.5 613,-224.5"/>
<text text-anchor="middle" x="669.5" y="-231.5" font-family="Helvetica,sans-Serif" font-size="10.00">state/Automate.hpp</text>
</a>
</g>
</g>
<!-- Node22&#45;&gt;Node30 -->
<g id="edge47" class="edge">
<title>Node22&#45;&gt;Node30</title>
<path fill="none" stroke="midnightblue" d="M582.21,-280.32C598.81,-271.7 624.5,-258.36 643.72,-248.39"/>
<polygon fill="midnightblue" stroke="midnightblue" points="645.57,-251.37 652.83,-243.65 642.34,-245.16 645.57,-251.37"/>
</g>
<!-- Node24&#45;&gt;Node3 -->
<g id="edge39" class="edge">
<title>Node24&#45;&gt;Node3</title>
<path fill="none" stroke="midnightblue" d="M323.26,-168.32C304.53,-155.81 275.62,-132 290.5,-112 327.59,-62.16 518.54,-27.75 595.4,-15.72"/>
<polygon fill="midnightblue" stroke="midnightblue" points="596.11,-19.16 605.46,-14.17 595.04,-12.24 596.11,-19.16"/>
</g>
<!-- Node24&#45;&gt;Node8 -->
<g id="edge38" class="edge">
<title>Node24&#45;&gt;Node8</title>
<path fill="none" stroke="midnightblue" d="M376.48,-168.44C426.02,-157.57 510.4,-139.05 554.58,-129.35"/>
<polygon fill="midnightblue" stroke="midnightblue" points="555.38,-132.76 564.39,-127.19 553.87,-125.92 555.38,-132.76"/>
</g>
<!-- Node25 -->
<g id="node25" class="node">
<title>Node25</title>
<g id="a_node25"><a xlink:title=" ">
<polygon fill="white" stroke="#bfbfbf" points="378,-112.5 378,-131.5 443,-131.5 443,-112.5 378,-112.5"/>
<text text-anchor="middle" x="410.5" y="-119.5" font-family="Helvetica,sans-Serif" font-size="10.00">functional</text>
</a>
</g>
</g>
<!-- Node24&#45;&gt;Node25 -->
<g id="edge36" class="edge">
<title>Node24&#45;&gt;Node25</title>
<path fill="none" stroke="midnightblue" d="M349.23,-168.32C360.34,-160.11 377.24,-147.6 390.48,-137.81"/>
<polygon fill="midnightblue" stroke="midnightblue" points="392.6,-140.59 398.56,-131.83 388.44,-134.97 392.6,-140.59"/>
</g>
<!-- Node26 -->
<g id="node26" class="node">
<title>Node26</title>
<g id="a_node26"><a xlink:title=" ">
<polygon fill="white" stroke="#bfbfbf" points="299.5,-112.5 299.5,-131.5 359.5,-131.5 359.5,-112.5 299.5,-112.5"/>
<text text-anchor="middle" x="329.5" y="-119.5" font-family="Helvetica,sans-Serif" font-size="10.00">iostream</text>
</a>
</g>
</g>
<!-- Node24&#45;&gt;Node26 -->
<g id="edge37" class="edge">
<title>Node24&#45;&gt;Node26</title>
<path fill="none" stroke="midnightblue" d="M336.18,-168.08C335.12,-160.93 333.59,-150.64 332.27,-141.69"/>
<polygon fill="midnightblue" stroke="midnightblue" points="335.72,-141.13 330.8,-131.75 328.8,-142.16 335.72,-141.13"/>
</g>
<!-- Node27 -->
<g id="node27" class="node">
<title>Node27</title>
<g id="a_node27"><a xlink:title=" ">
<polygon fill="white" stroke="#bfbfbf" points="461,-112.5 461,-131.5 508,-131.5 508,-112.5 461,-112.5"/>
<text text-anchor="middle" x="484.5" y="-119.5" font-family="Helvetica,sans-Serif" font-size="10.00">vector</text>
</a>
</g>
</g>
<!-- Node24&#45;&gt;Node27 -->
<g id="edge40" class="edge">
<title>Node24&#45;&gt;Node27</title>
<path fill="none" stroke="midnightblue" d="M360.79,-168.44C385.31,-159.44 424.1,-145.19 451.7,-135.05"/>
<polygon fill="midnightblue" stroke="midnightblue" points="453.14,-138.25 461.32,-131.52 450.72,-131.68 453.14,-138.25"/>
</g>
<!-- Node28&#45;&gt;Node3 -->
<g id="edge43" class="edge">
<title>Node28&#45;&gt;Node3</title>
<path fill="none" stroke="midnightblue" d="M492.95,-168.18C500.56,-159.67 511.3,-146.02 516.5,-132 528.29,-100.19 503.59,-83.47 523.5,-56 540.19,-32.97 571.21,-21.6 595.04,-16.06"/>
<polygon fill="midnightblue" stroke="midnightblue" points="596.01,-19.44 605.08,-13.97 594.58,-12.58 596.01,-19.44"/>
</g>
<!-- Node28&#45;&gt;Node27 -->
<g id="edge44" class="edge">
<title>Node28&#45;&gt;Node27</title>
<path fill="none" stroke="midnightblue" d="M484.5,-168.08C484.5,-161.01 484.5,-150.86 484.5,-141.99"/>
<polygon fill="midnightblue" stroke="midnightblue" points="488,-141.75 484.5,-131.75 481,-141.75 488,-141.75"/>
</g>
<!-- Node29 -->
<g id="node29" class="node">
<title>Node29</title>
<g id="a_node29"><a xlink:href="FunctionalTest_8hpp.html" target="_top" xlink:title="Class definition for functional tests.">
<polygon fill="white" stroke="black" points="533,-56.5 533,-75.5 640,-75.5 640,-56.5 533,-56.5"/>
<text text-anchor="middle" x="586.5" y="-63.5" font-family="Helvetica,sans-Serif" font-size="10.00">FunctionalTest.hpp</text>
</a>
</g>
</g>
<!-- Node28&#45;&gt;Node29 -->
<g id="edge45" class="edge">
<title>Node28&#45;&gt;Node29</title>
<path fill="none" stroke="midnightblue" d="M553.8,-168.42C575.89,-162.04 598.07,-151.01 611.5,-132 621.92,-117.26 611.68,-97.6 601.34,-83.78"/>
<polygon fill="midnightblue" stroke="midnightblue" points="603.76,-81.21 594.74,-75.65 598.32,-85.62 603.76,-81.21"/>
</g>
<!-- Node29&#45;&gt;Node3 -->
<g id="edge46" class="edge">
<title>Node29&#45;&gt;Node3</title>
<path fill="none" stroke="midnightblue" d="M593.27,-56.08C599.06,-48.46 607.56,-37.26 614.64,-27.94"/>
<polygon fill="midnightblue" stroke="midnightblue" points="617.6,-29.83 620.86,-19.75 612.02,-25.6 617.6,-29.83"/>
</g>
<!-- Node30&#45;&gt;Node7 -->
<g id="edge49" class="edge">
<title>Node30&#45;&gt;Node7</title>
<path fill="none" stroke="midnightblue" d="M716.24,-224.44C768.25,-214.92 852.25,-199.55 907.92,-189.36"/>
<polygon fill="midnightblue" stroke="midnightblue" points="908.77,-192.76 917.98,-187.52 907.51,-185.87 908.77,-192.76"/>
</g>
<!-- Node31 -->
<g id="node31" class="node">
<title>Node31</title>
<g id="a_node31"><a xlink:title=" ">
<polygon fill="white" stroke="#bfbfbf" points="612.5,-168.5 612.5,-187.5 668.5,-187.5 668.5,-168.5 612.5,-168.5"/>
<text text-anchor="middle" x="640.5" y="-175.5" font-family="Helvetica,sans-Serif" font-size="10.00">stddef.h</text>
</a>
</g>
</g>
<!-- Node30&#45;&gt;Node31 -->
<g id="edge48" class="edge">
<title>Node30&#45;&gt;Node31</title>
<path fill="none" stroke="midnightblue" d="M664.71,-224.08C660.74,-216.69 654.97,-205.95 650.07,-196.81"/>
<polygon fill="midnightblue" stroke="midnightblue" points="653.01,-194.91 645.2,-187.75 646.85,-198.22 653.01,-194.91"/>
</g>
<!-- Node33&#45;&gt;Node7 -->
<g id="edge53" class="edge">
<title>Node33&#45;&gt;Node7</title>
<path fill="none" stroke="midnightblue" d="M1047.11,-336.49C1054.63,-323.98 1066.28,-299.96 1059.5,-280 1046.59,-242 1010.21,-210.66 986.4,-193.42"/>
<polygon fill="midnightblue" stroke="midnightblue" points="988.17,-190.39 977.97,-187.52 984.15,-196.12 988.17,-190.39"/>
</g>
<!-- Node33&#45;&gt;Node18 -->
<g id="edge54" class="edge">
<title>Node33&#45;&gt;Node18</title>
<path fill="none" stroke="midnightblue" d="M1055.48,-336.46C1067.25,-328.51 1083.55,-315.56 1092.5,-300 1111.21,-267.46 1115.55,-222.77 1116.43,-197.81"/>
<polygon fill="midnightblue" stroke="midnightblue" points="1119.93,-197.63 1116.63,-187.57 1112.93,-197.5 1119.93,-197.63"/>
</g>
<!-- Node33&#45;&gt;Node32 -->
<g id="edge55" class="edge">
<title>Node33&#45;&gt;Node32</title>
<path fill="none" stroke="midnightblue" d="M1035.39,-336.08C1030.22,-328.53 1022.65,-317.49 1016.31,-308.23"/>
<polygon fill="midnightblue" stroke="midnightblue" points="1019.04,-306.02 1010.5,-299.75 1013.26,-309.98 1019.04,-306.02"/>
</g>
</g>
</svg>
