<?xml version="1.0" encoding="UTF-8" standalone="no"?>
<!DOCTYPE svg PUBLIC "-//W3C//DTD SVG 1.1//EN"
 "http://www.w3.org/Graphics/SVG/1.1/DTD/svg11.dtd">
<!-- Generated by graphviz version 2.43.0 (0)
 -->
<!-- Title: src/bot&#45;opos6ul/OPOS6UL_AsservExtended.hpp Pages: 1 -->
<!--zoomable 319 -->
<svg id="main" version="1.1" xmlns="http://www.w3.org/2000/svg" xmlns:xlink="http://www.w3.org/1999/xlink" xml:space="preserve" onload="init(evt)">
<style type="text/css"><![CDATA[
.edge:hover path { stroke: red; }
.edge:hover polygon { stroke: red; fill: red; }
]]></style>
<script type="text/javascript"><![CDATA[
var edges = document.getElementsByTagName('g');
if (edges && edges.length) {
  for (var i=0;i<edges.length;i++) {
    if (edges[i].id.substr(0,4)=='edge') {
      edges[i].setAttribute('class','edge');
    }
  }
}
]]></script>
        <defs>
                <circle id="rim" cx="0" cy="0" r="7"/>
                <circle id="rim2" cx="0" cy="0" r="3.5"/>
                <g id="zoomPlus">
                        <use xlink:href="#rim" fill="#404040">
                                <set attributeName="fill" to="#808080" begin="zoomplus.mouseover" end="zoomplus.mouseout"/>
                        </use>
                        <path d="M-4,0h8M0,-4v8" fill="none" stroke="white" stroke-width="1.5" pointer-events="none"/>
                </g>
                <g id="zoomMin">
                        <use xlink:href="#rim" fill="#404040">
                                <set attributeName="fill" to="#808080" begin="zoomminus.mouseover" end="zoomminus.mouseout"/>
                        </use>
                        <path d="M-4,0h8" fill="none" stroke="white" stroke-width="1.5" pointer-events="none"/>
                </g>
                <g id="dirArrow">
                        <path fill="none" stroke="white" stroke-width="1.5" d="M0,-3.0v7 M-2.5,-0.5L0,-3.0L2.5,-0.5"/>
                </g>
               <g id="resetDef">
                       <use xlink:href="#rim2" fill="#404040">
                               <set attributeName="fill" to="#808080" begin="reset.mouseover" end="reset.mouseout"/>
                       </use>
               </g>
        </defs>

<script type="text/javascript">
var viewWidth = 887;
var viewHeight = 319;
var sectionId = 'dynsection-0';
</script>
<script xlink:href="svgpan.js"/>
<svg id="graph" class="graph">
<g id="viewport">
<title>src/bot&#45;opos6ul/OPOS6UL_AsservExtended.hpp</title>
<polygon fill="white" stroke="transparent" points="-4,4 -4,-315 883,-315 883,4 -4,4"/>
<!-- Node1 -->
<g id="node1" class="node">
<title>Node1</title>
<g id="a_node1"><a xlink:title="Extension de l&#39;asservissement pour la carte OPOS6UL.">
<polygon fill="#bfbfbf" stroke="black" points="643,-280.5 643,-310.5 783,-310.5 783,-280.5 643,-280.5"/>
<text text-anchor="start" x="651" y="-298.5" font-family="Helvetica,sans-Serif" font-size="10.00">src/bot&#45;opos6ul/OPOS6UL</text>
<text text-anchor="middle" x="713" y="-287.5" font-family="Helvetica,sans-Serif" font-size="10.00">_AsservExtended.hpp</text>
</a>
</g>
</g>
<!-- Node2 -->
<g id="node2" class="node">
<title>Node2</title>
<g id="a_node2"><a xlink:title=" ">
<polygon fill="white" stroke="#bfbfbf" points="486,-0.5 486,-19.5 530,-19.5 530,-0.5 486,-0.5"/>
<text text-anchor="middle" x="508" y="-7.5" font-family="Helvetica,sans-Serif" font-size="10.00">string</text>
</a>
</g>
</g>
<!-- Node1&#45;&gt;Node2 -->
<g id="edge1" class="edge">
<title>Node1&#45;&gt;Node2</title>
<path fill="none" stroke="midnightblue" d="M769.2,-280.47C817.36,-264.68 879,-233.77 879,-179 879,-179 879,-179 879,-121 879,-70.21 832.11,-74.98 785,-56 762.59,-46.97 608.56,-24.91 540.37,-15.44"/>
<polygon fill="midnightblue" stroke="midnightblue" points="540.58,-11.94 530.19,-14.03 539.62,-18.87 540.58,-11.94"/>
</g>
<!-- Node3 -->
<g id="node3" class="node">
<title>Node3</title>
<g id="a_node3"><a xlink:href="Asserv_8hpp.html" target="_top" xlink:title=" ">
<polygon fill="white" stroke="black" points="660.5,-224.5 660.5,-243.5 765.5,-243.5 765.5,-224.5 660.5,-224.5"/>
<text text-anchor="middle" x="713" y="-231.5" font-family="Helvetica,sans-Serif" font-size="10.00">asserv/Asserv.hpp</text>
</a>
</g>
</g>
<!-- Node1&#45;&gt;Node3 -->
<g id="edge2" class="edge">
<title>Node1&#45;&gt;Node3</title>
<path fill="none" stroke="midnightblue" d="M713,-280.4C713,-272.47 713,-262.46 713,-253.86"/>
<polygon fill="midnightblue" stroke="midnightblue" points="716.5,-253.66 713,-243.66 709.5,-253.66 716.5,-253.66"/>
</g>
<!-- Node6 -->
<g id="node6" class="node">
<title>Node6</title>
<g id="a_node6"><a xlink:href="LoggerFactory_8hpp.html" target="_top" xlink:title="Définition de la classe LoggerFactory.">
<polygon fill="white" stroke="black" points="277,-168.5 277,-187.5 399,-187.5 399,-168.5 277,-168.5"/>
<text text-anchor="middle" x="338" y="-175.5" font-family="Helvetica,sans-Serif" font-size="10.00">log/LoggerFactory.hpp</text>
</a>
</g>
</g>
<!-- Node1&#45;&gt;Node6 -->
<g id="edge31" class="edge">
<title>Node1&#45;&gt;Node6</title>
<path fill="none" stroke="midnightblue" d="M667.39,-280.45C592.42,-257.36 444.55,-211.82 375.35,-190.51"/>
<polygon fill="midnightblue" stroke="midnightblue" points="376.32,-187.14 365.73,-187.54 374.26,-193.83 376.32,-187.14"/>
</g>
<!-- Node3&#45;&gt;Node2 -->
<g id="edge4" class="edge">
<title>Node3&#45;&gt;Node2</title>
<path fill="none" stroke="midnightblue" d="M720.7,-224.12C744.08,-196.1 809.97,-108.3 766,-56 758.74,-47.37 607.79,-25.09 540.22,-15.5"/>
<polygon fill="midnightblue" stroke="midnightblue" points="540.51,-12.01 530.12,-14.07 539.53,-18.94 540.51,-12.01"/>
</g>
<!-- Node4 -->
<g id="node4" class="node">
<title>Node4</title>
<g id="a_node4"><a xlink:title=" ">
<polygon fill="white" stroke="#bfbfbf" points="709.5,-56.5 709.5,-75.5 756.5,-75.5 756.5,-56.5 709.5,-56.5"/>
<text text-anchor="middle" x="733" y="-63.5" font-family="Helvetica,sans-Serif" font-size="10.00">cmath</text>
</a>
</g>
</g>
<!-- Node3&#45;&gt;Node4 -->
<g id="edge3" class="edge">
<title>Node3&#45;&gt;Node4</title>
<path fill="none" stroke="midnightblue" d="M714.08,-224.08C717.22,-197.95 726.47,-121.21 730.76,-85.58"/>
<polygon fill="midnightblue" stroke="midnightblue" points="734.25,-85.92 731.97,-75.57 727.3,-85.08 734.25,-85.92"/>
</g>
<!-- Node5 -->
<g id="node5" class="node">
<title>Node5</title>
<g id="a_node5"><a xlink:title=" ">
<polygon fill="white" stroke="#bfbfbf" points="809.5,-168.5 809.5,-187.5 850.5,-187.5 850.5,-168.5 809.5,-168.5"/>
<text text-anchor="middle" x="830" y="-175.5" font-family="Helvetica,sans-Serif" font-size="10.00">tuple</text>
</a>
</g>
</g>
<!-- Node3&#45;&gt;Node5 -->
<g id="edge5" class="edge">
<title>Node3&#45;&gt;Node5</title>
<path fill="none" stroke="midnightblue" d="M731.54,-224.44C750.62,-215.64 780.57,-201.81 802.44,-191.72"/>
<polygon fill="midnightblue" stroke="midnightblue" points="803.93,-194.88 811.55,-187.52 801,-188.53 803.93,-194.88"/>
</g>
<!-- Node3&#45;&gt;Node6 -->
<g id="edge6" class="edge">
<title>Node3&#45;&gt;Node6</title>
<path fill="none" stroke="midnightblue" d="M660.46,-225.43C594.33,-215.91 480.56,-199.53 407.34,-188.99"/>
<polygon fill="midnightblue" stroke="midnightblue" points="407.69,-185.5 397.29,-187.54 406.69,-192.43 407.69,-185.5"/>
</g>
<!-- Node16 -->
<g id="node16" class="node">
<title>Node16</title>
<g id="a_node16"><a xlink:href="AAsservDriver_8hpp.html" target="_top" xlink:title="Interface abstraite du driver d&#39;asservissement.">
<polygon fill="white" stroke="black" points="476.5,-168.5 476.5,-187.5 629.5,-187.5 629.5,-168.5 476.5,-168.5"/>
<text text-anchor="middle" x="553" y="-175.5" font-family="Helvetica,sans-Serif" font-size="10.00">interface/AAsservDriver.hpp</text>
</a>
</g>
</g>
<!-- Node3&#45;&gt;Node16 -->
<g id="edge22" class="edge">
<title>Node3&#45;&gt;Node16</title>
<path fill="none" stroke="midnightblue" d="M687.65,-224.44C660.73,-215.36 618,-200.94 587.91,-190.78"/>
<polygon fill="midnightblue" stroke="midnightblue" points="588.83,-187.4 578.23,-187.52 586.59,-194.03 588.83,-187.4"/>
</g>
<!-- Node18 -->
<g id="node18" class="node">
<title>Node18</title>
<g id="a_node18"><a xlink:href="ARobotPositionShared_8hpp.html" target="_top" xlink:title="Position partagee du robot et utilitaires geometriques.">
<polygon fill="white" stroke="black" points="566,-112.5 566,-131.5 712,-131.5 712,-112.5 566,-112.5"/>
<text text-anchor="middle" x="639" y="-119.5" font-family="Helvetica,sans-Serif" font-size="10.00">ARobotPositionShared.hpp</text>
</a>
</g>
</g>
<!-- Node3&#45;&gt;Node18 -->
<g id="edge30" class="edge">
<title>Node3&#45;&gt;Node18</title>
<path fill="none" stroke="midnightblue" d="M707.19,-224.37C694.98,-206.22 666.45,-163.8 650.43,-139.99"/>
<polygon fill="midnightblue" stroke="midnightblue" points="653.27,-137.94 644.78,-131.59 647.46,-141.84 653.27,-137.94"/>
</g>
<!-- Node6&#45;&gt;Node2 -->
<g id="edge8" class="edge">
<title>Node6&#45;&gt;Node2</title>
<path fill="none" stroke="midnightblue" d="M334.66,-168.2C331.45,-159.24 326.82,-144.88 325,-132 319.95,-96.36 325.35,-79.05 353,-56 388.15,-26.7 441.54,-16.47 475.59,-12.9"/>
<polygon fill="midnightblue" stroke="midnightblue" points="476.27,-16.35 485.92,-11.96 475.64,-9.38 476.27,-16.35"/>
</g>
<!-- Node7 -->
<g id="node7" class="node">
<title>Node7</title>
<g id="a_node7"><a xlink:title=" ">
<polygon fill="white" stroke="#bfbfbf" points="68,-112.5 68,-131.5 106,-131.5 106,-112.5 68,-112.5"/>
<text text-anchor="middle" x="87" y="-119.5" font-family="Helvetica,sans-Serif" font-size="10.00">map</text>
</a>
</g>
</g>
<!-- Node6&#45;&gt;Node7 -->
<g id="edge7" class="edge">
<title>Node6&#45;&gt;Node7</title>
<path fill="none" stroke="midnightblue" d="M287.59,-168.49C244.37,-160.82 180.3,-148.57 116.08,-132.06"/>
<polygon fill="midnightblue" stroke="midnightblue" points="116.76,-128.62 106.2,-129.48 114.99,-135.39 116.76,-128.62"/>
</g>
<!-- Node8 -->
<g id="node8" class="node">
<title>Node8</title>
<g id="a_node8"><a xlink:href="Thread_8hpp.html" target="_top" xlink:title="Définition de la classe Thread.">
<polygon fill="white" stroke="black" points="124.5,-112.5 124.5,-131.5 239.5,-131.5 239.5,-112.5 124.5,-112.5"/>
<text text-anchor="middle" x="182" y="-119.5" font-family="Helvetica,sans-Serif" font-size="10.00">../thread/Thread.hpp</text>
</a>
</g>
</g>
<!-- Node6&#45;&gt;Node8 -->
<g id="edge9" class="edge">
<title>Node6&#45;&gt;Node8</title>
<path fill="none" stroke="midnightblue" d="M313.28,-168.44C287.15,-159.4 245.74,-145.06 216.42,-134.92"/>
<polygon fill="midnightblue" stroke="midnightblue" points="217.2,-131.48 206.6,-131.52 214.91,-138.1 217.2,-131.48"/>
</g>
<!-- Node13 -->
<g id="node13" class="node">
<title>Node13</title>
<g id="a_node13"><a xlink:href="Logger_8hpp.html" target="_top" xlink:title="Définition de la classe Logger.">
<polygon fill="white" stroke="black" points="334,-112.5 334,-131.5 404,-131.5 404,-112.5 334,-112.5"/>
<text text-anchor="middle" x="369" y="-119.5" font-family="Helvetica,sans-Serif" font-size="10.00">Logger.hpp</text>
</a>
</g>
</g>
<!-- Node6&#45;&gt;Node13 -->
<g id="edge16" class="edge">
<title>Node6&#45;&gt;Node13</title>
<path fill="none" stroke="midnightblue" d="M343.12,-168.08C347.41,-160.61 353.66,-149.72 358.94,-140.52"/>
<polygon fill="midnightblue" stroke="midnightblue" points="362.03,-142.17 363.98,-131.75 355.96,-138.68 362.03,-142.17"/>
</g>
<!-- Node8&#45;&gt;Node2 -->
<g id="edge11" class="edge">
<title>Node8&#45;&gt;Node2</title>
<path fill="none" stroke="midnightblue" d="M181.78,-112.3C181.95,-98.16 184.5,-70.35 201,-56 241.59,-20.69 405.74,-13.08 475.92,-11.45"/>
<polygon fill="midnightblue" stroke="midnightblue" points="476.03,-14.95 485.96,-11.24 475.89,-7.95 476.03,-14.95"/>
</g>
<!-- Node9 -->
<g id="node9" class="node">
<title>Node9</title>
<g id="a_node9"><a xlink:title=" ">
<polygon fill="white" stroke="#bfbfbf" points="162.5,-0.5 162.5,-19.5 225.5,-19.5 225.5,-0.5 162.5,-0.5"/>
<text text-anchor="middle" x="194" y="-7.5" font-family="Helvetica,sans-Serif" font-size="10.00">pthread.h</text>
</a>
</g>
</g>
<!-- Node8&#45;&gt;Node9 -->
<g id="edge10" class="edge">
<title>Node8&#45;&gt;Node9</title>
<path fill="none" stroke="midnightblue" d="M177.41,-112.1C171.53,-99.52 162.68,-75.85 168,-56 170.65,-46.1 176.07,-36.13 181.27,-28.1"/>
<polygon fill="midnightblue" stroke="midnightblue" points="184.29,-29.89 187.11,-19.68 178.54,-25.91 184.29,-29.89"/>
</g>
<!-- Node10 -->
<g id="node10" class="node">
<title>Node10</title>
<g id="a_node10"><a xlink:title=" ">
<polygon fill="white" stroke="#bfbfbf" points="68,-56.5 68,-75.5 116,-75.5 116,-56.5 68,-56.5"/>
<text text-anchor="middle" x="92" y="-63.5" font-family="Helvetica,sans-Serif" font-size="10.00">thread</text>
</a>
</g>
</g>
<!-- Node8&#45;&gt;Node10 -->
<g id="edge12" class="edge">
<title>Node8&#45;&gt;Node10</title>
<path fill="none" stroke="midnightblue" d="M167.54,-112.32C153.5,-103.9 131.95,-90.97 115.46,-81.07"/>
<polygon fill="midnightblue" stroke="midnightblue" points="116.8,-77.8 106.42,-75.65 113.2,-83.8 116.8,-77.8"/>
</g>
<!-- Node11 -->
<g id="node11" class="node">
<title>Node11</title>
<g id="a_node11"><a xlink:href="Mutex_8hpp.html" target="_top" xlink:title="Définition de la classe Mutex.">
<polygon fill="white" stroke="black" points="210,-56.5 210,-75.5 278,-75.5 278,-56.5 210,-56.5"/>
<text text-anchor="middle" x="244" y="-63.5" font-family="Helvetica,sans-Serif" font-size="10.00">Mutex.hpp</text>
</a>
</g>
</g>
<!-- Node8&#45;&gt;Node11 -->
<g id="edge13" class="edge">
<title>Node8&#45;&gt;Node11</title>
<path fill="none" stroke="midnightblue" d="M191.96,-112.32C201.13,-104.34 214.94,-92.31 226.03,-82.65"/>
<polygon fill="midnightblue" stroke="midnightblue" points="228.62,-85.04 233.86,-75.83 224.02,-79.76 228.62,-85.04"/>
</g>
<!-- Node12 -->
<g id="node12" class="node">
<title>Node12</title>
<g id="a_node12"><a xlink:title=" ">
<polygon fill="white" stroke="#bfbfbf" points="0,-56.5 0,-75.5 50,-75.5 50,-56.5 0,-56.5"/>
<text text-anchor="middle" x="25" y="-63.5" font-family="Helvetica,sans-Serif" font-size="10.00">chrono</text>
</a>
</g>
</g>
<!-- Node8&#45;&gt;Node12 -->
<g id="edge15" class="edge">
<title>Node8&#45;&gt;Node12</title>
<path fill="none" stroke="midnightblue" d="M157.12,-112.44C130.71,-103.36 88.78,-88.94 59.26,-78.78"/>
<polygon fill="midnightblue" stroke="midnightblue" points="60.36,-75.46 49.76,-75.52 58.08,-82.08 60.36,-75.46"/>
</g>
<!-- Node11&#45;&gt;Node9 -->
<g id="edge14" class="edge">
<title>Node11&#45;&gt;Node9</title>
<path fill="none" stroke="midnightblue" d="M235.74,-56.08C228.54,-48.3 217.89,-36.8 209.15,-27.37"/>
<polygon fill="midnightblue" stroke="midnightblue" points="211.47,-24.71 202.1,-19.75 206.33,-29.47 211.47,-24.71"/>
</g>
<!-- Node13&#45;&gt;Node2 -->
<g id="edge18" class="edge">
<title>Node13&#45;&gt;Node2</title>
<path fill="none" stroke="midnightblue" d="M364.91,-112.45C359.14,-99.02 350.63,-72.79 363,-56 388.67,-21.15 441.08,-12.49 475.36,-10.77"/>
<polygon fill="midnightblue" stroke="midnightblue" points="475.91,-14.25 485.79,-10.42 475.68,-7.25 475.91,-14.25"/>
</g>
<!-- Node13&#45;&gt;Node11 -->
<g id="edge19" class="edge">
<title>Node13&#45;&gt;Node11</title>
<path fill="none" stroke="midnightblue" d="M349.19,-112.44C328.71,-103.6 296.52,-89.69 273.14,-79.59"/>
<polygon fill="midnightblue" stroke="midnightblue" points="274.28,-76.27 263.71,-75.52 271.51,-82.7 274.28,-76.27"/>
</g>
<!-- Node14 -->
<g id="node14" class="node">
<title>Node14</title>
<g id="a_node14"><a xlink:title=" ">
<polygon fill="white" stroke="#bfbfbf" points="372,-56.5 372,-75.5 428,-75.5 428,-56.5 372,-56.5"/>
<text text-anchor="middle" x="400" y="-63.5" font-family="Helvetica,sans-Serif" font-size="10.00">sstream</text>
</a>
</g>
</g>
<!-- Node13&#45;&gt;Node14 -->
<g id="edge17" class="edge">
<title>Node13&#45;&gt;Node14</title>
<path fill="none" stroke="midnightblue" d="M374.12,-112.08C378.41,-104.61 384.66,-93.72 389.94,-84.52"/>
<polygon fill="midnightblue" stroke="midnightblue" points="393.03,-86.17 394.98,-75.75 386.96,-82.68 393.03,-86.17"/>
</g>
<!-- Node15 -->
<g id="node15" class="node">
<title>Node15</title>
<g id="a_node15"><a xlink:href="Level_8hpp.html" target="_top" xlink:title="Définition de la classe Level.">
<polygon fill="white" stroke="black" points="446,-56.5 446,-75.5 510,-75.5 510,-56.5 446,-56.5"/>
<text text-anchor="middle" x="478" y="-63.5" font-family="Helvetica,sans-Serif" font-size="10.00">Level.hpp</text>
</a>
</g>
</g>
<!-- Node13&#45;&gt;Node15 -->
<g id="edge20" class="edge">
<title>Node13&#45;&gt;Node15</title>
<path fill="none" stroke="midnightblue" d="M386.51,-112.32C404.07,-103.62 431.33,-90.12 451.53,-80.11"/>
<polygon fill="midnightblue" stroke="midnightblue" points="453.12,-83.23 460.53,-75.65 450.02,-76.96 453.12,-83.23"/>
</g>
<!-- Node15&#45;&gt;Node2 -->
<g id="edge21" class="edge">
<title>Node15&#45;&gt;Node2</title>
<path fill="none" stroke="midnightblue" d="M482.95,-56.08C487.1,-48.61 493.15,-37.72 498.27,-28.52"/>
<polygon fill="midnightblue" stroke="midnightblue" points="501.34,-30.19 503.14,-19.75 495.22,-26.79 501.34,-30.19"/>
</g>
<!-- Node16&#45;&gt;Node2 -->
<g id="edge24" class="edge">
<title>Node16&#45;&gt;Node2</title>
<path fill="none" stroke="midnightblue" d="M550.58,-168.08C543.5,-141.95 522.7,-65.21 513.04,-29.58"/>
<polygon fill="midnightblue" stroke="midnightblue" points="516.32,-28.3 510.32,-19.57 509.56,-30.14 516.32,-28.3"/>
</g>
<!-- Node17 -->
<g id="node17" class="node">
<title>Node17</title>
<g id="a_node17"><a xlink:title=" ">
<polygon fill="white" stroke="#bfbfbf" points="460,-112.5 460,-131.5 510,-131.5 510,-112.5 460,-112.5"/>
<text text-anchor="middle" x="485" y="-119.5" font-family="Helvetica,sans-Serif" font-size="10.00">cstdint</text>
</a>
</g>
</g>
<!-- Node16&#45;&gt;Node17 -->
<g id="edge23" class="edge">
<title>Node16&#45;&gt;Node17</title>
<path fill="none" stroke="midnightblue" d="M542.07,-168.32C531.83,-160.18 516.28,-147.84 504,-138.09"/>
<polygon fill="midnightblue" stroke="midnightblue" points="506.13,-135.31 496.12,-131.83 501.78,-140.79 506.13,-135.31"/>
</g>
<!-- Node16&#45;&gt;Node18 -->
<g id="edge25" class="edge">
<title>Node16&#45;&gt;Node18</title>
<path fill="none" stroke="midnightblue" d="M566.82,-168.32C580.23,-159.9 600.82,-146.97 616.59,-137.07"/>
<polygon fill="midnightblue" stroke="midnightblue" points="618.61,-139.94 625.22,-131.65 614.89,-134.01 618.61,-139.94"/>
</g>
<!-- Node18&#45;&gt;Node4 -->
<g id="edge26" class="edge">
<title>Node18&#45;&gt;Node4</title>
<path fill="none" stroke="midnightblue" d="M654.1,-112.32C668.9,-103.82 691.69,-90.73 708.98,-80.8"/>
<polygon fill="midnightblue" stroke="midnightblue" points="711.01,-83.67 717.93,-75.65 707.52,-77.6 711.01,-83.67"/>
</g>
<!-- Node19 -->
<g id="node19" class="node">
<title>Node19</title>
<g id="a_node19"><a xlink:href="Chronometer_8hpp.html" target="_top" xlink:title="Définition de la classe Chronometer.">
<polygon fill="white" stroke="black" points="566.5,-56.5 566.5,-75.5 691.5,-75.5 691.5,-56.5 566.5,-56.5"/>
<text text-anchor="middle" x="629" y="-63.5" font-family="Helvetica,sans-Serif" font-size="10.00">utils/Chronometer.hpp</text>
</a>
</g>
</g>
<!-- Node18&#45;&gt;Node19 -->
<g id="edge27" class="edge">
<title>Node18&#45;&gt;Node19</title>
<path fill="none" stroke="midnightblue" d="M637.35,-112.08C636.02,-104.93 634.12,-94.64 632.46,-85.69"/>
<polygon fill="midnightblue" stroke="midnightblue" points="635.88,-84.95 630.62,-75.75 629,-86.22 635.88,-84.95"/>
</g>
<!-- Node19&#45;&gt;Node2 -->
<g id="edge29" class="edge">
<title>Node19&#45;&gt;Node2</title>
<path fill="none" stroke="midnightblue" d="M609.83,-56.44C590.09,-47.64 559.11,-33.81 536.51,-23.72"/>
<polygon fill="midnightblue" stroke="midnightblue" points="537.64,-20.4 527.08,-19.52 534.79,-26.79 537.64,-20.4"/>
</g>
<!-- Node20 -->
<g id="node20" class="node">
<title>Node20</title>
<g id="a_node20"><a xlink:title=" ">
<polygon fill="white" stroke="#bfbfbf" points="595,-0.5 595,-19.5 663,-19.5 663,-0.5 595,-0.5"/>
<text text-anchor="middle" x="629" y="-7.5" font-family="Helvetica,sans-Serif" font-size="10.00">sys/time.h</text>
</a>
</g>
</g>
<!-- Node19&#45;&gt;Node20 -->
<g id="edge28" class="edge">
<title>Node19&#45;&gt;Node20</title>
<path fill="none" stroke="midnightblue" d="M629,-56.08C629,-49.01 629,-38.86 629,-29.99"/>
<polygon fill="midnightblue" stroke="midnightblue" points="632.5,-29.75 629,-19.75 625.5,-29.75 632.5,-29.75"/>
</g>
</g>
</svg>
        <g id="navigator" transform="translate(0 0)" fill="#404254">
                <rect fill="#f2f5e9" fill-opacity="0.5" stroke="#606060" stroke-width=".5" x="0" y="0" width="60" height="60"/>
                <use id="zoomplus" xlink:href="#zoomPlus" x="17" y="9" onmousedown="handleZoom(evt,'in')"/>
                <use id="zoomminus" xlink:href="#zoomMin" x="42" y="9" onmousedown="handleZoom(evt,'out')"/>
                <use id="reset" xlink:href="#resetDef" x="30" y="36" onmousedown="handleReset()"/>
                <g id="arrowUp" xlink:href="#dirArrow" transform="translate(30 24)" onmousedown="handlePan(0,-1)">
                  <use xlink:href="#rim" fill="#404040">
                        <set attributeName="fill" to="#808080" begin="arrowUp.mouseover" end="arrowUp.mouseout"/>
                  </use>
                  <path fill="none" stroke="white" stroke-width="1.5" d="M0,-3.0v7 M-2.5,-0.5L0,-3.0L2.5,-0.5"/>
                </g>
                <g id="arrowRight" xlink:href="#dirArrow" transform="rotate(90) translate(36 -43)" onmousedown="handlePan(1,0)">
                  <use xlink:href="#rim" fill="#404040">
                        <set attributeName="fill" to="#808080" begin="arrowRight.mouseover" end="arrowRight.mouseout"/>
                  </use>
                  <path fill="none" stroke="white" stroke-width="1.5" d="M0,-3.0v7 M-2.5,-0.5L0,-3.0L2.5,-0.5"/>
                </g>
                <g id="arrowDown" xlink:href="#dirArrow" transform="rotate(180) translate(-30 -48)" onmousedown="handlePan(0,1)">
                  <use xlink:href="#rim" fill="#404040">
                        <set attributeName="fill" to="#808080" begin="arrowDown.mouseover" end="arrowDown.mouseout"/>
                  </use>
                  <path fill="none" stroke="white" stroke-width="1.5" d="M0,-3.0v7 M-2.5,-0.5L0,-3.0L2.5,-0.5"/>
                </g>
                <g id="arrowLeft" xlink:href="#dirArrow" transform="rotate(270) translate(-36 17)" onmousedown="handlePan(-1,0)">
                  <use xlink:href="#rim" fill="#404040">
                        <set attributeName="fill" to="#808080" begin="arrowLeft.mouseover" end="arrowLeft.mouseout"/>
                  </use>
                  <path fill="none" stroke="white" stroke-width="1.5" d="M0,-3.0v7 M-2.5,-0.5L0,-3.0L2.5,-0.5"/>
                </g>
        </g>
        <svg viewBox="0 0 15 15" width="100%" height="30px" preserveAspectRatio="xMaxYMin meet">
         <g id="arrow_out" transform="scale(0.3 0.3)">
          <a xlink:href="OPOS6UL__AsservExtended_8hpp__incl_org.svg" target="_base">
           <rect id="button" ry="5" rx="5" y="6" x="6" height="38" width="38"
                fill="#f2f5e9" fill-opacity="0.5" stroke="#606060" stroke-width="1.0"/>
           <path id="arrow"
             d="M 11.500037,31.436501 C 11.940474,20.09759 22.043105,11.32322 32.158766,21.979434 L 37.068811,17.246167 C 37.068811,17.246167 37.088388,32 37.088388,32 L 22.160133,31.978069 C 22.160133,31.978069 26.997745,27.140456 26.997745,27.140456 C 18.528582,18.264221 13.291696,25.230495 11.500037,31.436501 z"
             style="fill:#404040;"/>
          </a>
         </g>
        </svg>
</svg>
