<?xml version="1.0" encoding="UTF-8" standalone="no"?>
<!DOCTYPE svg PUBLIC "-//W3C//DTD SVG 1.1//EN"
 "http://www.w3.org/Graphics/SVG/1.1/DTD/svg11.dtd">
<!-- Generated by graphviz version 2.43.0 (0)
 -->
<!-- Title: test/common/PointerListTest.hpp Pages: 1 -->
<!--zoomable 319 -->
<svg id="main" version="1.1" xmlns="http://www.w3.org/2000/svg" xmlns:xlink="http://www.w3.org/1999/xlink" xml:space="preserve" onload="init(evt)">
<style type="text/css"><![CDATA[
.edge:hover path { stroke: red; }
.edge:hover polygon { stroke: red; fill: red; }
]]></style>
<script type="text/javascript"><![CDATA[
var edges = document.getElementsByTagName('g');
if (edges && edges.length) {
  for (var i=0;i<edges.length;i++) {
    if (edges[i].id.substr(0,4)=='edge') {
      edges[i].setAttribute('class','edge');
    }
  }
}
]]></script>
        <defs>
                <circle id="rim" cx="0" cy="0" r="7"/>
                <circle id="rim2" cx="0" cy="0" r="3.5"/>
                <g id="zoomPlus">
                        <use xlink:href="#rim" fill="#404040">
                                <set attributeName="fill" to="#808080" begin="zoomplus.mouseover" end="zoomplus.mouseout"/>
                        </use>
                        <path d="M-4,0h8M0,-4v8" fill="none" stroke="white" stroke-width="1.5" pointer-events="none"/>
                </g>
                <g id="zoomMin">
                        <use xlink:href="#rim" fill="#404040">
                                <set attributeName="fill" to="#808080" begin="zoomminus.mouseover" end="zoomminus.mouseout"/>
                        </use>
                        <path d="M-4,0h8" fill="none" stroke="white" stroke-width="1.5" pointer-events="none"/>
                </g>
                <g id="dirArrow">
                        <path fill="none" stroke="white" stroke-width="1.5" d="M0,-3.0v7 M-2.5,-0.5L0,-3.0L2.5,-0.5"/>
                </g>
               <g id="resetDef">
                       <use xlink:href="#rim2" fill="#404040">
                               <set attributeName="fill" to="#808080" begin="reset.mouseover" end="reset.mouseout"/>
                       </use>
               </g>
        </defs>

<script type="text/javascript">
var viewWidth = 682;
var viewHeight = 319;
var sectionId = 'dynsection-0';
</script>
<script xlink:href="svgpan.js"/>
<svg id="graph" class="graph">
<g id="viewport">
<title>test/common/PointerListTest.hpp</title>
<polygon fill="white" stroke="transparent" points="-4,4 -4,-315 678.22,-315 678.22,4 -4,4"/>
<!-- Node1 -->
<g id="node1" class="node">
<title>Node1</title>
<g id="a_node1"><a xlink:title="Définition de la classe PointerListTest.">
<polygon fill="#bfbfbf" stroke="black" points="0,-291.5 0,-310.5 176,-310.5 176,-291.5 0,-291.5"/>
<text text-anchor="middle" x="88" y="-298.5" font-family="Helvetica,sans-Serif" font-size="10.00">test/common/PointerListTest.hpp</text>
</a>
</g>
</g>
<!-- Node2 -->
<g id="node2" class="node">
<title>Node2</title>
<g id="a_node2"><a xlink:href="UnitTest_8hpp.html" target="_top" xlink:title="Définition de la classe DevUnitTest.">
<polygon fill="white" stroke="black" points="31.5,-235.5 31.5,-254.5 144.5,-254.5 144.5,-235.5 31.5,-235.5"/>
<text text-anchor="middle" x="88" y="-242.5" font-family="Helvetica,sans-Serif" font-size="10.00">../suite/UnitTest.hpp</text>
</a>
</g>
</g>
<!-- Node1&#45;&gt;Node2 -->
<g id="edge1" class="edge">
<title>Node1&#45;&gt;Node2</title>
<path fill="none" stroke="midnightblue" d="M88,-291.08C88,-284.01 88,-273.86 88,-264.99"/>
<polygon fill="midnightblue" stroke="midnightblue" points="91.5,-264.75 88,-254.75 84.5,-264.75 91.5,-264.75"/>
</g>
<!-- Node3 -->
<g id="node3" class="node">
<title>Node3</title>
<g id="a_node3"><a xlink:title=" ">
<polygon fill="white" stroke="#bfbfbf" points="225,-0.5 225,-19.5 269,-19.5 269,-0.5 225,-0.5"/>
<text text-anchor="middle" x="247" y="-7.5" font-family="Helvetica,sans-Serif" font-size="10.00">string</text>
</a>
</g>
</g>
<!-- Node2&#45;&gt;Node3 -->
<g id="edge2" class="edge">
<title>Node2&#45;&gt;Node3</title>
<path fill="none" stroke="midnightblue" d="M82.47,-235.44C69.12,-213.62 37.82,-154.6 60,-112 90.59,-53.25 170.23,-27.23 215.09,-16.93"/>
<polygon fill="midnightblue" stroke="midnightblue" points="215.87,-20.34 224.9,-14.8 214.39,-13.5 215.87,-20.34"/>
</g>
<!-- Node4 -->
<g id="node4" class="node">
<title>Node4</title>
<g id="a_node4"><a xlink:href="LoggerFactory_8hpp.html" target="_top" xlink:title="Définition de la classe LoggerFactory.">
<polygon fill="white" stroke="black" points="78.5,-168.5 78.5,-198.5 191.5,-198.5 191.5,-168.5 78.5,-168.5"/>
<text text-anchor="start" x="86.5" y="-186.5" font-family="Helvetica,sans-Serif" font-size="10.00">../../src/common/log</text>
<text text-anchor="middle" x="135" y="-175.5" font-family="Helvetica,sans-Serif" font-size="10.00">/LoggerFactory.hpp</text>
</a>
</g>
</g>
<!-- Node2&#45;&gt;Node4 -->
<g id="edge3" class="edge">
<title>Node2&#45;&gt;Node4</title>
<path fill="none" stroke="midnightblue" d="M94.73,-235.48C100.68,-227.94 109.62,-216.63 117.57,-206.57"/>
<polygon fill="midnightblue" stroke="midnightblue" points="120.47,-208.54 123.92,-198.52 114.98,-204.2 120.47,-208.54"/>
</g>
<!-- Node4&#45;&gt;Node3 -->
<g id="edge5" class="edge">
<title>Node4&#45;&gt;Node3</title>
<path fill="none" stroke="midnightblue" d="M133.15,-168.39C130.64,-143.2 128.98,-89.98 154,-56 168.62,-36.14 194.37,-24.63 215.07,-18.23"/>
<polygon fill="midnightblue" stroke="midnightblue" points="216.09,-21.58 224.75,-15.49 214.18,-14.85 216.09,-21.58"/>
</g>
<!-- Node5 -->
<g id="node5" class="node">
<title>Node5</title>
<g id="a_node5"><a xlink:title=" ">
<polygon fill="white" stroke="#bfbfbf" points="69,-112.5 69,-131.5 107,-131.5 107,-112.5 69,-112.5"/>
<text text-anchor="middle" x="88" y="-119.5" font-family="Helvetica,sans-Serif" font-size="10.00">map</text>
</a>
</g>
</g>
<!-- Node4&#45;&gt;Node5 -->
<g id="edge4" class="edge">
<title>Node4&#45;&gt;Node5</title>
<path fill="none" stroke="midnightblue" d="M123.86,-168.4C117.03,-159.75 108.26,-148.64 101.09,-139.58"/>
<polygon fill="midnightblue" stroke="midnightblue" points="103.78,-137.34 94.84,-131.66 98.29,-141.67 103.78,-137.34"/>
</g>
<!-- Node6 -->
<g id="node6" class="node">
<title>Node6</title>
<g id="a_node6"><a xlink:href="Thread_8hpp.html" target="_top" xlink:title="Définition de la classe Thread.">
<polygon fill="white" stroke="black" points="447.5,-112.5 447.5,-131.5 562.5,-131.5 562.5,-112.5 447.5,-112.5"/>
<text text-anchor="middle" x="505" y="-119.5" font-family="Helvetica,sans-Serif" font-size="10.00">../thread/Thread.hpp</text>
</a>
</g>
</g>
<!-- Node4&#45;&gt;Node6 -->
<g id="edge6" class="edge">
<title>Node4&#45;&gt;Node6</title>
<path fill="none" stroke="midnightblue" d="M191.6,-173.4C259.13,-162.54 371.71,-144.44 441.96,-133.14"/>
<polygon fill="midnightblue" stroke="midnightblue" points="442.69,-136.57 452.01,-131.52 441.58,-129.65 442.69,-136.57"/>
</g>
<!-- Node12 -->
<g id="node12" class="node">
<title>Node12</title>
<g id="a_node12"><a xlink:href="Logger_8hpp.html" target="_top" xlink:title="Définition de la classe Logger.">
<polygon fill="white" stroke="black" points="212,-112.5 212,-131.5 282,-131.5 282,-112.5 212,-112.5"/>
<text text-anchor="middle" x="247" y="-119.5" font-family="Helvetica,sans-Serif" font-size="10.00">Logger.hpp</text>
</a>
</g>
</g>
<!-- Node4&#45;&gt;Node12 -->
<g id="edge14" class="edge">
<title>Node4&#45;&gt;Node12</title>
<path fill="none" stroke="midnightblue" d="M161.54,-168.4C179.66,-158.77 203.54,-146.09 221.44,-136.58"/>
<polygon fill="midnightblue" stroke="midnightblue" points="223.51,-139.44 230.7,-131.66 220.23,-133.26 223.51,-139.44"/>
</g>
<!-- Node6&#45;&gt;Node3 -->
<g id="edge8" class="edge">
<title>Node6&#45;&gt;Node3</title>
<path fill="none" stroke="midnightblue" d="M498.13,-112.35C486.49,-98.29 461.44,-70.59 434,-56 384.01,-29.42 318.2,-18.31 279.47,-13.83"/>
<polygon fill="midnightblue" stroke="midnightblue" points="279.61,-10.33 269.29,-12.74 278.86,-17.29 279.61,-10.33"/>
</g>
<!-- Node7 -->
<g id="node7" class="node">
<title>Node7</title>
<g id="a_node7"><a xlink:title=" ">
<polygon fill="white" stroke="#bfbfbf" points="507.5,-0.5 507.5,-19.5 570.5,-19.5 570.5,-0.5 507.5,-0.5"/>
<text text-anchor="middle" x="539" y="-7.5" font-family="Helvetica,sans-Serif" font-size="10.00">pthread.h</text>
</a>
</g>
</g>
<!-- Node6&#45;&gt;Node7 -->
<g id="edge7" class="edge">
<title>Node6&#45;&gt;Node7</title>
<path fill="none" stroke="midnightblue" d="M562.66,-112.58C604.18,-105.21 655.06,-92.99 668,-76 694.04,-41.8 627.37,-24.25 580.47,-16.4"/>
<polygon fill="midnightblue" stroke="midnightblue" points="580.93,-12.93 570.51,-14.82 579.84,-19.84 580.93,-12.93"/>
</g>
<!-- Node8 -->
<g id="node8" class="node">
<title>Node8</title>
<g id="a_node8"><a xlink:title=" ">
<polygon fill="white" stroke="#bfbfbf" points="481,-56.5 481,-75.5 529,-75.5 529,-56.5 481,-56.5"/>
<text text-anchor="middle" x="505" y="-63.5" font-family="Helvetica,sans-Serif" font-size="10.00">thread</text>
</a>
</g>
</g>
<!-- Node6&#45;&gt;Node8 -->
<g id="edge9" class="edge">
<title>Node6&#45;&gt;Node8</title>
<path fill="none" stroke="midnightblue" d="M505,-112.08C505,-105.01 505,-94.86 505,-85.99"/>
<polygon fill="midnightblue" stroke="midnightblue" points="508.5,-85.75 505,-75.75 501.5,-85.75 508.5,-85.75"/>
</g>
<!-- Node9 -->
<g id="node9" class="node">
<title>Node9</title>
<g id="a_node9"><a xlink:title=" ">
<polygon fill="white" stroke="#bfbfbf" points="547,-56.5 547,-75.5 591,-75.5 591,-56.5 547,-56.5"/>
<text text-anchor="middle" x="569" y="-63.5" font-family="Helvetica,sans-Serif" font-size="10.00">ctime</text>
</a>
</g>
</g>
<!-- Node6&#45;&gt;Node9 -->
<g id="edge10" class="edge">
<title>Node6&#45;&gt;Node9</title>
<path fill="none" stroke="midnightblue" d="M515.28,-112.32C524.84,-104.26 539.28,-92.08 550.78,-82.37"/>
<polygon fill="midnightblue" stroke="midnightblue" points="553.14,-84.96 558.53,-75.83 548.63,-79.61 553.14,-84.96"/>
</g>
<!-- Node10 -->
<g id="node10" class="node">
<title>Node10</title>
<g id="a_node10"><a xlink:href="Mutex_8hpp.html" target="_top" xlink:title="Définition de la classe Mutex.">
<polygon fill="white" stroke="black" points="357,-56.5 357,-75.5 425,-75.5 425,-56.5 357,-56.5"/>
<text text-anchor="middle" x="391" y="-63.5" font-family="Helvetica,sans-Serif" font-size="10.00">Mutex.hpp</text>
</a>
</g>
</g>
<!-- Node6&#45;&gt;Node10 -->
<g id="edge11" class="edge">
<title>Node6&#45;&gt;Node10</title>
<path fill="none" stroke="midnightblue" d="M486.94,-112.44C468.43,-103.68 439.42,-89.94 418.14,-79.86"/>
<polygon fill="midnightblue" stroke="midnightblue" points="419.51,-76.63 408.98,-75.52 416.52,-82.96 419.51,-76.63"/>
</g>
<!-- Node11 -->
<g id="node11" class="node">
<title>Node11</title>
<g id="a_node11"><a xlink:title=" ">
<polygon fill="white" stroke="#bfbfbf" points="609,-56.5 609,-75.5 659,-75.5 659,-56.5 609,-56.5"/>
<text text-anchor="middle" x="634" y="-63.5" font-family="Helvetica,sans-Serif" font-size="10.00">chrono</text>
</a>
</g>
</g>
<!-- Node6&#45;&gt;Node11 -->
<g id="edge13" class="edge">
<title>Node6&#45;&gt;Node11</title>
<path fill="none" stroke="midnightblue" d="M525.44,-112.44C546.67,-103.56 580.1,-89.56 604.25,-79.45"/>
<polygon fill="midnightblue" stroke="midnightblue" points="605.78,-82.61 613.66,-75.52 603.08,-76.15 605.78,-82.61"/>
</g>
<!-- Node10&#45;&gt;Node7 -->
<g id="edge12" class="edge">
<title>Node10&#45;&gt;Node7</title>
<path fill="none" stroke="midnightblue" d="M414.45,-56.44C439.13,-47.44 478.19,-33.19 505.98,-23.05"/>
<polygon fill="midnightblue" stroke="midnightblue" points="507.46,-26.23 515.66,-19.52 505.06,-19.66 507.46,-26.23"/>
</g>
<!-- Node12&#45;&gt;Node3 -->
<g id="edge16" class="edge">
<title>Node12&#45;&gt;Node3</title>
<path fill="none" stroke="midnightblue" d="M247,-112.37C247,-94.62 247,-53.67 247,-29.6"/>
<polygon fill="midnightblue" stroke="midnightblue" points="250.5,-29.59 247,-19.59 243.5,-29.59 250.5,-29.59"/>
</g>
<!-- Node12&#45;&gt;Node10 -->
<g id="edge17" class="edge">
<title>Node12&#45;&gt;Node10</title>
<path fill="none" stroke="midnightblue" d="M269.82,-112.44C293.83,-103.44 331.83,-89.19 358.87,-79.05"/>
<polygon fill="midnightblue" stroke="midnightblue" points="360.16,-82.3 368.29,-75.52 357.7,-75.75 360.16,-82.3"/>
</g>
<!-- Node13 -->
<g id="node13" class="node">
<title>Node13</title>
<g id="a_node13"><a xlink:title=" ">
<polygon fill="white" stroke="#bfbfbf" points="163,-56.5 163,-75.5 219,-75.5 219,-56.5 163,-56.5"/>
<text text-anchor="middle" x="191" y="-63.5" font-family="Helvetica,sans-Serif" font-size="10.00">sstream</text>
</a>
</g>
</g>
<!-- Node12&#45;&gt;Node13 -->
<g id="edge15" class="edge">
<title>Node12&#45;&gt;Node13</title>
<path fill="none" stroke="midnightblue" d="M238,-112.32C229.81,-104.42 217.49,-92.55 207.53,-82.94"/>
<polygon fill="midnightblue" stroke="midnightblue" points="209.79,-80.26 200.16,-75.83 204.93,-85.29 209.79,-80.26"/>
</g>
<!-- Node14 -->
<g id="node14" class="node">
<title>Node14</title>
<g id="a_node14"><a xlink:href="Level_8hpp.html" target="_top" xlink:title="Définition de la classe Level.">
<polygon fill="white" stroke="black" points="275,-56.5 275,-75.5 339,-75.5 339,-56.5 275,-56.5"/>
<text text-anchor="middle" x="307" y="-63.5" font-family="Helvetica,sans-Serif" font-size="10.00">Level.hpp</text>
</a>
</g>
</g>
<!-- Node12&#45;&gt;Node14 -->
<g id="edge18" class="edge">
<title>Node12&#45;&gt;Node14</title>
<path fill="none" stroke="midnightblue" d="M256.64,-112.32C265.51,-104.34 278.87,-92.31 289.61,-82.65"/>
<polygon fill="midnightblue" stroke="midnightblue" points="292.09,-85.13 297.18,-75.83 287.41,-79.92 292.09,-85.13"/>
</g>
<!-- Node14&#45;&gt;Node3 -->
<g id="edge19" class="edge">
<title>Node14&#45;&gt;Node3</title>
<path fill="none" stroke="midnightblue" d="M297.36,-56.32C288.49,-48.34 275.13,-36.31 264.39,-26.65"/>
<polygon fill="midnightblue" stroke="midnightblue" points="266.59,-23.92 256.82,-19.83 261.91,-29.13 266.59,-23.92"/>
</g>
</g>
</svg>
        <g id="navigator" transform="translate(0 0)" fill="#404254">
                <rect fill="#f2f5e9" fill-opacity="0.5" stroke="#606060" stroke-width=".5" x="0" y="0" width="60" height="60"/>
                <use id="zoomplus" xlink:href="#zoomPlus" x="17" y="9" onmousedown="handleZoom(evt,'in')"/>
                <use id="zoomminus" xlink:href="#zoomMin" x="42" y="9" onmousedown="handleZoom(evt,'out')"/>
                <use id="reset" xlink:href="#resetDef" x="30" y="36" onmousedown="handleReset()"/>
                <g id="arrowUp" xlink:href="#dirArrow" transform="translate(30 24)" onmousedown="handlePan(0,-1)">
                  <use xlink:href="#rim" fill="#404040">
                        <set attributeName="fill" to="#808080" begin="arrowUp.mouseover" end="arrowUp.mouseout"/>
                  </use>
                  <path fill="none" stroke="white" stroke-width="1.5" d="M0,-3.0v7 M-2.5,-0.5L0,-3.0L2.5,-0.5"/>
                </g>
                <g id="arrowRight" xlink:href="#dirArrow" transform="rotate(90) translate(36 -43)" onmousedown="handlePan(1,0)">
                  <use xlink:href="#rim" fill="#404040">
                        <set attributeName="fill" to="#808080" begin="arrowRight.mouseover" end="arrowRight.mouseout"/>
                  </use>
                  <path fill="none" stroke="white" stroke-width="1.5" d="M0,-3.0v7 M-2.5,-0.5L0,-3.0L2.5,-0.5"/>
                </g>
                <g id="arrowDown" xlink:href="#dirArrow" transform="rotate(180) translate(-30 -48)" onmousedown="handlePan(0,1)">
                  <use xlink:href="#rim" fill="#404040">
                        <set attributeName="fill" to="#808080" begin="arrowDown.mouseover" end="arrowDown.mouseout"/>
                  </use>
                  <path fill="none" stroke="white" stroke-width="1.5" d="M0,-3.0v7 M-2.5,-0.5L0,-3.0L2.5,-0.5"/>
                </g>
                <g id="arrowLeft" xlink:href="#dirArrow" transform="rotate(270) translate(-36 17)" onmousedown="handlePan(-1,0)">
                  <use xlink:href="#rim" fill="#404040">
                        <set attributeName="fill" to="#808080" begin="arrowLeft.mouseover" end="arrowLeft.mouseout"/>
                  </use>
                  <path fill="none" stroke="white" stroke-width="1.5" d="M0,-3.0v7 M-2.5,-0.5L0,-3.0L2.5,-0.5"/>
                </g>
        </g>
        <svg viewBox="0 0 15 15" width="100%" height="30px" preserveAspectRatio="xMaxYMin meet">
         <g id="arrow_out" transform="scale(0.3 0.3)">
          <a xlink:href="PointerListTest_8hpp__incl_org.svg" target="_base">
           <rect id="button" ry="5" rx="5" y="6" x="6" height="38" width="38"
                fill="#f2f5e9" fill-opacity="0.5" stroke="#606060" stroke-width="1.0"/>
           <path id="arrow"
             d="M 11.500037,31.436501 C 11.940474,20.09759 22.043105,11.32322 32.158766,21.979434 L 37.068811,17.246167 C 37.068811,17.246167 37.088388,32 37.088388,32 L 22.160133,31.978069 C 22.160133,31.978069 26.997745,27.140456 26.997745,27.140456 C 18.528582,18.264221 13.291696,25.230495 11.500037,31.436501 z"
             style="fill:#404040;"/>
          </a>
         </g>
        </svg>
</svg>
