<?xml version="1.0" encoding="UTF-8" standalone="no"?>
<!DOCTYPE svg PUBLIC "-//W3C//DTD SVG 1.1//EN"
 "http://www.w3.org/Graphics/SVG/1.1/DTD/svg11.dtd">
<!-- Generated by graphviz version 2.43.0 (0)
 -->
<!-- Title: src/common/utils/Print.hpp Pages: 1 -->
<svg width="384pt" height="84pt"
 viewBox="0.00 0.00 384.00 84.00" xmlns="http://www.w3.org/2000/svg" xmlns:xlink="http://www.w3.org/1999/xlink">
<g id="graph0" class="graph" transform="scale(1 1) rotate(0) translate(4 80)">
<title>src/common/utils/Print.hpp</title>
<polygon fill="white" stroke="transparent" points="-4,4 -4,-80 380,-80 380,4 -4,4"/>
<!-- Node1 -->
<g id="node1" class="node">
<title>Node1</title>
<g id="a_node1"><a xlink:title=" ">
<polygon fill="#bfbfbf" stroke="black" points="97.5,-56.5 97.5,-75.5 244.5,-75.5 244.5,-56.5 97.5,-56.5"/>
<text text-anchor="middle" x="171" y="-63.5" font-family="Helvetica,sans-Serif" font-size="10.00">src/common/utils/Print.hpp</text>
</a>
</g>
</g>
<!-- Node2 -->
<g id="node2" class="node">
<title>Node2</title>
<g id="a_node2"><a xlink:title=" ">
<polygon fill="white" stroke="#bfbfbf" points="0,-0.5 0,-19.5 56,-19.5 56,-0.5 0,-0.5"/>
<text text-anchor="middle" x="28" y="-7.5" font-family="Helvetica,sans-Serif" font-size="10.00">stddef.h</text>
</a>
</g>
</g>
<!-- Node1&#45;&gt;Node2 -->
<g id="edge1" class="edge">
<title>Node1&#45;&gt;Node2</title>
<path fill="none" stroke="midnightblue" d="M148.34,-56.44C124.6,-47.48 87.09,-33.31 60.26,-23.18"/>
<polygon fill="midnightblue" stroke="midnightblue" points="61.14,-19.77 50.55,-19.52 58.67,-26.32 61.14,-19.77"/>
</g>
<!-- Node3 -->
<g id="node3" class="node">
<title>Node3</title>
<g id="a_node3"><a xlink:title=" ">
<polygon fill="white" stroke="#bfbfbf" points="74.5,-0.5 74.5,-19.5 127.5,-19.5 127.5,-0.5 74.5,-0.5"/>
<text text-anchor="middle" x="101" y="-7.5" font-family="Helvetica,sans-Serif" font-size="10.00">stdint.h</text>
</a>
</g>
</g>
<!-- Node1&#45;&gt;Node3 -->
<g id="edge2" class="edge">
<title>Node1&#45;&gt;Node3</title>
<path fill="none" stroke="midnightblue" d="M159.75,-56.32C149.2,-48.18 133.2,-35.84 120.56,-26.09"/>
<polygon fill="midnightblue" stroke="midnightblue" points="122.51,-23.17 112.45,-19.83 118.23,-28.71 122.51,-23.17"/>
</g>
<!-- Node4 -->
<g id="node4" class="node">
<title>Node4</title>
<g id="a_node4"><a xlink:title=" ">
<polygon fill="white" stroke="#bfbfbf" points="146,-0.5 146,-19.5 196,-19.5 196,-0.5 146,-0.5"/>
<text text-anchor="middle" x="171" y="-7.5" font-family="Helvetica,sans-Serif" font-size="10.00">cstring</text>
</a>
</g>
</g>
<!-- Node1&#45;&gt;Node4 -->
<g id="edge3" class="edge">
<title>Node1&#45;&gt;Node4</title>
<path fill="none" stroke="midnightblue" d="M171,-56.08C171,-49.01 171,-38.86 171,-29.99"/>
<polygon fill="midnightblue" stroke="midnightblue" points="174.5,-29.75 171,-19.75 167.5,-29.75 174.5,-29.75"/>
</g>
<!-- Node5 -->
<g id="node5" class="node">
<title>Node5</title>
<g id="a_node5"><a xlink:title=" ">
<polygon fill="white" stroke="#bfbfbf" points="214,-0.5 214,-19.5 258,-19.5 258,-0.5 214,-0.5"/>
<text text-anchor="middle" x="236" y="-7.5" font-family="Helvetica,sans-Serif" font-size="10.00">string</text>
</a>
</g>
</g>
<!-- Node1&#45;&gt;Node5 -->
<g id="edge4" class="edge">
<title>Node1&#45;&gt;Node5</title>
<path fill="none" stroke="midnightblue" d="M181.44,-56.32C191.15,-48.26 205.82,-36.08 217.5,-26.37"/>
<polygon fill="midnightblue" stroke="midnightblue" points="219.91,-28.92 225.37,-19.83 215.44,-23.53 219.91,-28.92"/>
</g>
<!-- Node6 -->
<g id="node6" class="node">
<title>Node6</title>
<g id="a_node6"><a xlink:href="WString_8hpp.html" target="_top" xlink:title=" ">
<polygon fill="white" stroke="black" points="276,-0.5 276,-19.5 376,-19.5 376,-0.5 276,-0.5"/>
<text text-anchor="middle" x="326" y="-7.5" font-family="Helvetica,sans-Serif" font-size="10.00">utils/WString.hpp</text>
</a>
</g>
</g>
<!-- Node1&#45;&gt;Node6 -->
<g id="edge5" class="edge">
<title>Node1&#45;&gt;Node6</title>
<path fill="none" stroke="midnightblue" d="M195.56,-56.44C221.52,-47.4 262.67,-33.06 291.8,-22.92"/>
<polygon fill="midnightblue" stroke="midnightblue" points="293.26,-26.11 301.55,-19.52 290.96,-19.5 293.26,-26.11"/>
</g>
</g>
</svg>
