<?xml version="1.0" encoding="UTF-8" standalone="no"?>
<!DOCTYPE svg PUBLIC "-//W3C//DTD SVG 1.1//EN"
 "http://www.w3.org/Graphics/SVG/1.1/DTD/svg11.dtd">
<!-- Generated by graphviz version 2.43.0 (0)
 -->
<!-- Title: src/common/asserv.esial/regulateur/Regulateur.h Pages: 1 -->
<!--zoomable 330 -->
<svg id="main" version="1.1" xmlns="http://www.w3.org/2000/svg" xmlns:xlink="http://www.w3.org/1999/xlink" xml:space="preserve" onload="init(evt)">
<style type="text/css"><![CDATA[
.edge:hover path { stroke: red; }
.edge:hover polygon { stroke: red; fill: red; }
]]></style>
<script type="text/javascript"><![CDATA[
var edges = document.getElementsByTagName('g');
if (edges && edges.length) {
  for (var i=0;i<edges.length;i++) {
    if (edges[i].id.substr(0,4)=='edge') {
      edges[i].setAttribute('class','edge');
    }
  }
}
]]></script>
        <defs>
                <circle id="rim" cx="0" cy="0" r="7"/>
                <circle id="rim2" cx="0" cy="0" r="3.5"/>
                <g id="zoomPlus">
                        <use xlink:href="#rim" fill="#404040">
                                <set attributeName="fill" to="#808080" begin="zoomplus.mouseover" end="zoomplus.mouseout"/>
                        </use>
                        <path d="M-4,0h8M0,-4v8" fill="none" stroke="white" stroke-width="1.5" pointer-events="none"/>
                </g>
                <g id="zoomMin">
                        <use xlink:href="#rim" fill="#404040">
                                <set attributeName="fill" to="#808080" begin="zoomminus.mouseover" end="zoomminus.mouseout"/>
                        </use>
                        <path d="M-4,0h8" fill="none" stroke="white" stroke-width="1.5" pointer-events="none"/>
                </g>
                <g id="dirArrow">
                        <path fill="none" stroke="white" stroke-width="1.5" d="M0,-3.0v7 M-2.5,-0.5L0,-3.0L2.5,-0.5"/>
                </g>
               <g id="resetDef">
                       <use xlink:href="#rim2" fill="#404040">
                               <set attributeName="fill" to="#808080" begin="reset.mouseover" end="reset.mouseout"/>
                       </use>
               </g>
        </defs>

<script type="text/javascript">
var viewWidth = 755;
var viewHeight = 330;
var sectionId = 'dynsection-0';
</script>
<script xlink:href="svgpan.js"/>
<svg id="graph" class="graph">
<g id="viewport">
<title>src/common/asserv.esial/regulateur/Regulateur.h</title>
<polygon fill="white" stroke="transparent" points="-4,4 -4,-326 750.5,-326 750.5,4 -4,4"/>
<!-- Node1 -->
<g id="node1" class="node">
<title>Node1</title>
<g id="a_node1"><a xlink:title=" ">
<polygon fill="#bfbfbf" stroke="black" points="422.5,-291.5 422.5,-321.5 559.5,-321.5 559.5,-291.5 422.5,-291.5"/>
<text text-anchor="start" x="430.5" y="-309.5" font-family="Helvetica,sans-Serif" font-size="10.00">src/common/asserv.esial</text>
<text text-anchor="middle" x="491" y="-298.5" font-family="Helvetica,sans-Serif" font-size="10.00">/regulateur/Regulateur.h</text>
</a>
</g>
</g>
<!-- Node2 -->
<g id="node2" class="node">
<title>Node2</title>
<g id="a_node2"><a xlink:title=" ">
<polygon fill="white" stroke="#bfbfbf" points="491,-112.5 491,-131.5 563,-131.5 563,-112.5 491,-112.5"/>
<text text-anchor="middle" x="527" y="-119.5" font-family="Helvetica,sans-Serif" font-size="10.00">sys/types.h</text>
</a>
</g>
</g>
<!-- Node1&#45;&gt;Node2 -->
<g id="edge1" class="edge">
<title>Node1&#45;&gt;Node2</title>
<path fill="none" stroke="midnightblue" d="M484.09,-291.31C479.65,-281.4 474.31,-267.72 472,-255 468.99,-238.43 474.28,-169.46 475,-168 481.07,-155.6 492.27,-145.22 502.72,-137.57"/>
<polygon fill="midnightblue" stroke="midnightblue" points="504.9,-140.32 511.19,-131.8 500.96,-134.53 504.9,-140.32"/>
</g>
<!-- Node3 -->
<g id="node3" class="node">
<title>Node3</title>
<g id="a_node3"><a xlink:href="LoggerFactory_8hpp.html" target="_top" xlink:title="Définition de la classe LoggerFactory.">
<polygon fill="white" stroke="black" points="303,-168.5 303,-187.5 425,-187.5 425,-168.5 303,-168.5"/>
<text text-anchor="middle" x="364" y="-175.5" font-family="Helvetica,sans-Serif" font-size="10.00">log/LoggerFactory.hpp</text>
</a>
</g>
</g>
<!-- Node1&#45;&gt;Node3 -->
<g id="edge2" class="edge">
<title>Node1&#45;&gt;Node3</title>
<path fill="none" stroke="midnightblue" d="M476.35,-291.43C465.89,-281.35 451.51,-267.41 439,-255 418.38,-234.54 394.9,-210.66 379.79,-195.2"/>
<polygon fill="midnightblue" stroke="midnightblue" points="382.21,-192.66 372.71,-187.95 377.2,-197.55 382.21,-192.66"/>
</g>
<!-- Node15 -->
<g id="node15" class="node">
<title>Node15</title>
<g id="a_node15"><a xlink:href="Pid_8h.html" target="_top" xlink:title=" ">
<polygon fill="white" stroke="black" points="481,-230 481,-249 579,-249 579,-230 481,-230"/>
<text text-anchor="middle" x="530" y="-237" font-family="Helvetica,sans-Serif" font-size="10.00">../filtres/Pid/Pid.h</text>
</a>
</g>
</g>
<!-- Node1&#45;&gt;Node15 -->
<g id="edge19" class="edge">
<title>Node1&#45;&gt;Node15</title>
<path fill="none" stroke="midnightblue" d="M499.46,-291.4C505.36,-281.56 513.27,-268.38 519.56,-257.89"/>
<polygon fill="midnightblue" stroke="midnightblue" points="522.64,-259.57 524.78,-249.19 516.64,-255.97 522.64,-259.57"/>
</g>
<!-- Node21 -->
<g id="node21" class="node">
<title>Node21</title>
<g id="a_node21"><a xlink:href="QuadRampDerivee_8h.html" target="_top" xlink:title=" ">
<polygon fill="white" stroke="black" points="597.5,-224.5 597.5,-254.5 746.5,-254.5 746.5,-224.5 597.5,-224.5"/>
<text text-anchor="start" x="605.5" y="-242.5" font-family="Helvetica,sans-Serif" font-size="10.00">../filtres/QuadRampDerivee</text>
<text text-anchor="middle" x="672" y="-231.5" font-family="Helvetica,sans-Serif" font-size="10.00">/QuadRampDerivee.h</text>
</a>
</g>
</g>
<!-- Node1&#45;&gt;Node21 -->
<g id="edge28" class="edge">
<title>Node1&#45;&gt;Node21</title>
<path fill="none" stroke="midnightblue" d="M530.27,-291.4C557.55,-281.6 594.08,-268.48 623.23,-258.02"/>
<polygon fill="midnightblue" stroke="midnightblue" points="624.57,-261.25 632.8,-254.58 622.21,-254.66 624.57,-261.25"/>
</g>
<!-- Node4 -->
<g id="node4" class="node">
<title>Node4</title>
<g id="a_node4"><a xlink:title=" ">
<polygon fill="white" stroke="#bfbfbf" points="111,-112.5 111,-131.5 149,-131.5 149,-112.5 111,-112.5"/>
<text text-anchor="middle" x="130" y="-119.5" font-family="Helvetica,sans-Serif" font-size="10.00">map</text>
</a>
</g>
</g>
<!-- Node3&#45;&gt;Node4 -->
<g id="edge3" class="edge">
<title>Node3&#45;&gt;Node4</title>
<path fill="none" stroke="midnightblue" d="M319.1,-168.48C279.29,-160.64 219.43,-148.15 158.92,-132.06"/>
<polygon fill="midnightblue" stroke="midnightblue" points="159.77,-128.66 149.21,-129.44 157.95,-135.42 159.77,-128.66"/>
</g>
<!-- Node5 -->
<g id="node5" class="node">
<title>Node5</title>
<g id="a_node5"><a xlink:title=" ">
<polygon fill="white" stroke="#bfbfbf" points="384,-0.5 384,-19.5 428,-19.5 428,-0.5 384,-0.5"/>
<text text-anchor="middle" x="406" y="-7.5" font-family="Helvetica,sans-Serif" font-size="10.00">string</text>
</a>
</g>
</g>
<!-- Node3&#45;&gt;Node5 -->
<g id="edge4" class="edge">
<title>Node3&#45;&gt;Node5</title>
<path fill="none" stroke="midnightblue" d="M366.26,-168.08C372.87,-141.95 392.28,-65.21 401.3,-29.58"/>
<polygon fill="midnightblue" stroke="midnightblue" points="404.77,-30.12 403.83,-19.57 397.99,-28.4 404.77,-30.12"/>
</g>
<!-- Node6 -->
<g id="node6" class="node">
<title>Node6</title>
<g id="a_node6"><a xlink:href="Thread_8hpp.html" target="_top" xlink:title="Définition de la classe Thread.">
<polygon fill="white" stroke="black" points="167.5,-112.5 167.5,-131.5 282.5,-131.5 282.5,-112.5 167.5,-112.5"/>
<text text-anchor="middle" x="225" y="-119.5" font-family="Helvetica,sans-Serif" font-size="10.00">../thread/Thread.hpp</text>
</a>
</g>
</g>
<!-- Node3&#45;&gt;Node6 -->
<g id="edge5" class="edge">
<title>Node3&#45;&gt;Node6</title>
<path fill="none" stroke="midnightblue" d="M341.98,-168.44C318.9,-159.48 282.44,-145.31 256.36,-135.18"/>
<polygon fill="midnightblue" stroke="midnightblue" points="257.51,-131.88 246.92,-131.52 254.98,-138.4 257.51,-131.88"/>
</g>
<!-- Node12 -->
<g id="node12" class="node">
<title>Node12</title>
<g id="a_node12"><a xlink:href="Logger_8hpp.html" target="_top" xlink:title="Définition de la classe Logger.">
<polygon fill="white" stroke="black" points="396,-112.5 396,-131.5 466,-131.5 466,-112.5 396,-112.5"/>
<text text-anchor="middle" x="431" y="-119.5" font-family="Helvetica,sans-Serif" font-size="10.00">Logger.hpp</text>
</a>
</g>
</g>
<!-- Node3&#45;&gt;Node12 -->
<g id="edge13" class="edge">
<title>Node3&#45;&gt;Node12</title>
<path fill="none" stroke="midnightblue" d="M374.76,-168.32C384.77,-160.26 399.89,-148.08 411.93,-138.37"/>
<polygon fill="midnightblue" stroke="midnightblue" points="414.45,-140.83 420.04,-131.83 410.06,-135.38 414.45,-140.83"/>
</g>
<!-- Node6&#45;&gt;Node5 -->
<g id="edge7" class="edge">
<title>Node6&#45;&gt;Node5</title>
<path fill="none" stroke="midnightblue" d="M227.71,-112.48C232.55,-98.6 243.99,-71.16 263,-56 295.36,-30.19 342.69,-19.08 373.91,-14.37"/>
<polygon fill="midnightblue" stroke="midnightblue" points="374.41,-17.83 383.84,-13 373.46,-10.9 374.41,-17.83"/>
</g>
<!-- Node7 -->
<g id="node7" class="node">
<title>Node7</title>
<g id="a_node7"><a xlink:title=" ">
<polygon fill="white" stroke="#bfbfbf" points="224.5,-0.5 224.5,-19.5 287.5,-19.5 287.5,-0.5 224.5,-0.5"/>
<text text-anchor="middle" x="256" y="-7.5" font-family="Helvetica,sans-Serif" font-size="10.00">pthread.h</text>
</a>
</g>
</g>
<!-- Node6&#45;&gt;Node7 -->
<g id="edge6" class="edge">
<title>Node6&#45;&gt;Node7</title>
<path fill="none" stroke="midnightblue" d="M224.47,-112.36C223.95,-99.69 223.97,-75.46 230,-56 233.03,-46.21 238.49,-36.25 243.63,-28.2"/>
<polygon fill="midnightblue" stroke="midnightblue" points="246.64,-29.99 249.34,-19.75 240.84,-26.07 246.64,-29.99"/>
</g>
<!-- Node8 -->
<g id="node8" class="node">
<title>Node8</title>
<g id="a_node8"><a xlink:title=" ">
<polygon fill="white" stroke="#bfbfbf" points="130,-56.5 130,-75.5 178,-75.5 178,-56.5 130,-56.5"/>
<text text-anchor="middle" x="154" y="-63.5" font-family="Helvetica,sans-Serif" font-size="10.00">thread</text>
</a>
</g>
</g>
<!-- Node6&#45;&gt;Node8 -->
<g id="edge8" class="edge">
<title>Node6&#45;&gt;Node8</title>
<path fill="none" stroke="midnightblue" d="M213.59,-112.32C202.89,-104.18 186.66,-91.84 173.84,-82.09"/>
<polygon fill="midnightblue" stroke="midnightblue" points="175.69,-79.1 165.61,-75.83 171.46,-84.67 175.69,-79.1"/>
</g>
<!-- Node9 -->
<g id="node9" class="node">
<title>Node9</title>
<g id="a_node9"><a xlink:title=" ">
<polygon fill="white" stroke="#bfbfbf" points="0,-56.5 0,-75.5 44,-75.5 44,-56.5 0,-56.5"/>
<text text-anchor="middle" x="22" y="-63.5" font-family="Helvetica,sans-Serif" font-size="10.00">ctime</text>
</a>
</g>
</g>
<!-- Node6&#45;&gt;Node9 -->
<g id="edge9" class="edge">
<title>Node6&#45;&gt;Node9</title>
<path fill="none" stroke="midnightblue" d="M191.31,-112.47C158.62,-104.13 107.36,-90.89 54.26,-76.3"/>
<polygon fill="midnightblue" stroke="midnightblue" points="54.9,-72.84 44.33,-73.56 53.04,-79.59 54.9,-72.84"/>
</g>
<!-- Node10 -->
<g id="node10" class="node">
<title>Node10</title>
<g id="a_node10"><a xlink:href="Mutex_8hpp.html" target="_top" xlink:title="Définition de la classe Mutex.">
<polygon fill="white" stroke="black" points="272,-56.5 272,-75.5 340,-75.5 340,-56.5 272,-56.5"/>
<text text-anchor="middle" x="306" y="-63.5" font-family="Helvetica,sans-Serif" font-size="10.00">Mutex.hpp</text>
</a>
</g>
</g>
<!-- Node6&#45;&gt;Node10 -->
<g id="edge10" class="edge">
<title>Node6&#45;&gt;Node10</title>
<path fill="none" stroke="midnightblue" d="M238.01,-112.32C250.53,-103.98 269.68,-91.21 284.47,-81.35"/>
<polygon fill="midnightblue" stroke="midnightblue" points="286.64,-84.11 293.02,-75.65 282.76,-78.29 286.64,-84.11"/>
</g>
<!-- Node11 -->
<g id="node11" class="node">
<title>Node11</title>
<g id="a_node11"><a xlink:title=" ">
<polygon fill="white" stroke="#bfbfbf" points="62,-56.5 62,-75.5 112,-75.5 112,-56.5 62,-56.5"/>
<text text-anchor="middle" x="87" y="-63.5" font-family="Helvetica,sans-Serif" font-size="10.00">chrono</text>
</a>
</g>
</g>
<!-- Node6&#45;&gt;Node11 -->
<g id="edge12" class="edge">
<title>Node6&#45;&gt;Node11</title>
<path fill="none" stroke="midnightblue" d="M203.13,-112.44C180.22,-103.48 144.02,-89.31 118.13,-79.18"/>
<polygon fill="midnightblue" stroke="midnightblue" points="119.35,-75.9 108.76,-75.52 116.8,-82.42 119.35,-75.9"/>
</g>
<!-- Node10&#45;&gt;Node7 -->
<g id="edge11" class="edge">
<title>Node10&#45;&gt;Node7</title>
<path fill="none" stroke="midnightblue" d="M297.74,-56.08C290.54,-48.3 279.89,-36.8 271.15,-27.37"/>
<polygon fill="midnightblue" stroke="midnightblue" points="273.47,-24.71 264.1,-19.75 268.33,-29.47 273.47,-24.71"/>
</g>
<!-- Node12&#45;&gt;Node5 -->
<g id="edge15" class="edge">
<title>Node12&#45;&gt;Node5</title>
<path fill="none" stroke="midnightblue" d="M429.04,-112.37C425,-94.62 415.7,-53.67 410.23,-29.6"/>
<polygon fill="midnightblue" stroke="midnightblue" points="413.58,-28.57 407.95,-19.59 406.76,-30.12 413.58,-28.57"/>
</g>
<!-- Node12&#45;&gt;Node10 -->
<g id="edge16" class="edge">
<title>Node12&#45;&gt;Node10</title>
<path fill="none" stroke="midnightblue" d="M411.19,-112.44C390.71,-103.6 358.52,-89.69 335.14,-79.59"/>
<polygon fill="midnightblue" stroke="midnightblue" points="336.28,-76.27 325.71,-75.52 333.51,-82.7 336.28,-76.27"/>
</g>
<!-- Node13 -->
<g id="node13" class="node">
<title>Node13</title>
<g id="a_node13"><a xlink:title=" ">
<polygon fill="white" stroke="#bfbfbf" points="531,-0.5 531,-19.5 587,-19.5 587,-0.5 531,-0.5"/>
<text text-anchor="middle" x="559" y="-7.5" font-family="Helvetica,sans-Serif" font-size="10.00">sstream</text>
</a>
</g>
</g>
<!-- Node12&#45;&gt;Node13 -->
<g id="edge14" class="edge">
<title>Node12&#45;&gt;Node13</title>
<path fill="none" stroke="midnightblue" d="M449.41,-112.48C465.6,-104.46 489.29,-91.39 507,-76 523.13,-61.98 537.98,-42.47 547.64,-28.49"/>
<polygon fill="midnightblue" stroke="midnightblue" points="550.79,-30.08 553.45,-19.83 544.97,-26.18 550.79,-30.08"/>
</g>
<!-- Node14 -->
<g id="node14" class="node">
<title>Node14</title>
<g id="a_node14"><a xlink:href="Level_8hpp.html" target="_top" xlink:title="Définition de la classe Level.">
<polygon fill="white" stroke="black" points="434,-56.5 434,-75.5 498,-75.5 498,-56.5 434,-56.5"/>
<text text-anchor="middle" x="466" y="-63.5" font-family="Helvetica,sans-Serif" font-size="10.00">Level.hpp</text>
</a>
</g>
</g>
<!-- Node12&#45;&gt;Node14 -->
<g id="edge17" class="edge">
<title>Node12&#45;&gt;Node14</title>
<path fill="none" stroke="midnightblue" d="M436.78,-112.08C441.67,-104.53 448.83,-93.49 454.83,-84.23"/>
<polygon fill="midnightblue" stroke="midnightblue" points="457.83,-86.05 460.33,-75.75 451.95,-82.24 457.83,-86.05"/>
</g>
<!-- Node14&#45;&gt;Node5 -->
<g id="edge18" class="edge">
<title>Node14&#45;&gt;Node5</title>
<path fill="none" stroke="midnightblue" d="M456.36,-56.32C447.49,-48.34 434.13,-36.31 423.39,-26.65"/>
<polygon fill="midnightblue" stroke="midnightblue" points="425.59,-23.92 415.82,-19.83 420.91,-29.13 425.59,-23.92"/>
</g>
<!-- Node16 -->
<g id="node16" class="node">
<title>Node16</title>
<g id="a_node16"><a xlink:href="Filtre_8h.html" target="_top" xlink:title=" ">
<polygon fill="white" stroke="black" points="619.5,-168.5 619.5,-187.5 678.5,-187.5 678.5,-168.5 619.5,-168.5"/>
<text text-anchor="middle" x="649" y="-175.5" font-family="Helvetica,sans-Serif" font-size="10.00">../Filtre.h</text>
</a>
</g>
</g>
<!-- Node15&#45;&gt;Node16 -->
<g id="edge20" class="edge">
<title>Node15&#45;&gt;Node16</title>
<path fill="none" stroke="midnightblue" d="M547.05,-229.98C566.84,-220.08 599.72,-203.64 622.77,-192.12"/>
<polygon fill="midnightblue" stroke="midnightblue" points="624.6,-195.11 631.98,-187.51 621.47,-188.85 624.6,-195.11"/>
</g>
<!-- Node20 -->
<g id="node20" class="node">
<title>Node20</title>
<g id="a_node20"><a xlink:href="Utils_8h.html" target="_top" xlink:title=" ">
<polygon fill="white" stroke="black" points="484,-168.5 484,-187.5 576,-187.5 576,-168.5 484,-168.5"/>
<text text-anchor="middle" x="530" y="-175.5" font-family="Helvetica,sans-Serif" font-size="10.00">../../Utils/Utils.h</text>
</a>
</g>
</g>
<!-- Node15&#45;&gt;Node20 -->
<g id="edge26" class="edge">
<title>Node15&#45;&gt;Node20</title>
<path fill="none" stroke="midnightblue" d="M530,-229.98C530,-221.58 530,-208.48 530,-197.66"/>
<polygon fill="midnightblue" stroke="midnightblue" points="533.5,-197.51 530,-187.51 526.5,-197.51 533.5,-197.51"/>
</g>
<!-- Node17 -->
<g id="node17" class="node">
<title>Node17</title>
<g id="a_node17"><a xlink:href="config_8h.html" target="_top" xlink:title=" ">
<polygon fill="white" stroke="black" points="601,-112.5 601,-131.5 697,-131.5 697,-112.5 601,-112.5"/>
<text text-anchor="middle" x="649" y="-119.5" font-family="Helvetica,sans-Serif" font-size="10.00">../config/config.h</text>
</a>
</g>
</g>
<!-- Node16&#45;&gt;Node17 -->
<g id="edge21" class="edge">
<title>Node16&#45;&gt;Node17</title>
<path fill="none" stroke="midnightblue" d="M649,-168.08C649,-161.01 649,-150.86 649,-141.99"/>
<polygon fill="midnightblue" stroke="midnightblue" points="652.5,-141.75 649,-131.75 645.5,-141.75 652.5,-141.75"/>
</g>
<!-- Node18 -->
<g id="node18" class="node">
<title>Node18</title>
<g id="a_node18"><a xlink:href="parameter_8h.html" target="_top" xlink:title=" ">
<polygon fill="white" stroke="black" points="554,-56.5 554,-75.5 630,-75.5 630,-56.5 554,-56.5"/>
<text text-anchor="middle" x="592" y="-63.5" font-family="Helvetica,sans-Serif" font-size="10.00">parameter.h</text>
</a>
</g>
</g>
<!-- Node17&#45;&gt;Node18 -->
<g id="edge22" class="edge">
<title>Node17&#45;&gt;Node18</title>
<path fill="none" stroke="midnightblue" d="M639.84,-112.32C631.5,-104.42 618.97,-92.55 608.82,-82.94"/>
<polygon fill="midnightblue" stroke="midnightblue" points="610.99,-80.17 601.32,-75.83 606.18,-85.25 610.99,-80.17"/>
</g>
<!-- Node19 -->
<g id="node19" class="node">
<title>Node19</title>
<g id="a_node19"><a xlink:href="params_8h.html" target="_top" xlink:title=" ">
<polygon fill="white" stroke="black" points="648,-56.5 648,-75.5 710,-75.5 710,-56.5 648,-56.5"/>
<text text-anchor="middle" x="679" y="-63.5" font-family="Helvetica,sans-Serif" font-size="10.00">params.h</text>
</a>
</g>
</g>
<!-- Node17&#45;&gt;Node19 -->
<g id="edge25" class="edge">
<title>Node17&#45;&gt;Node19</title>
<path fill="none" stroke="midnightblue" d="M653.95,-112.08C658.1,-104.61 664.15,-93.72 669.27,-84.52"/>
<polygon fill="midnightblue" stroke="midnightblue" points="672.34,-86.19 674.14,-75.75 666.22,-82.79 672.34,-86.19"/>
</g>
<!-- Node18&#45;&gt;Node5 -->
<g id="edge23" class="edge">
<title>Node18&#45;&gt;Node5</title>
<path fill="none" stroke="midnightblue" d="M562.53,-56.44C528.5,-46.56 472.73,-30.37 437.76,-20.22"/>
<polygon fill="midnightblue" stroke="midnightblue" points="438.63,-16.83 428.05,-17.4 436.68,-23.55 438.63,-16.83"/>
</g>
<!-- Node18&#45;&gt;Node13 -->
<g id="edge24" class="edge">
<title>Node18&#45;&gt;Node13</title>
<path fill="none" stroke="midnightblue" d="M586.55,-56.08C581.99,-48.61 575.33,-37.72 569.71,-28.52"/>
<polygon fill="midnightblue" stroke="midnightblue" points="572.55,-26.46 564.35,-19.75 566.58,-30.11 572.55,-26.46"/>
</g>
<!-- Node20&#45;&gt;Node2 -->
<g id="edge27" class="edge">
<title>Node20&#45;&gt;Node2</title>
<path fill="none" stroke="midnightblue" d="M529.5,-168.08C529.11,-161.01 528.55,-150.86 528.05,-141.99"/>
<polygon fill="midnightblue" stroke="midnightblue" points="531.54,-141.54 527.49,-131.75 524.55,-141.93 531.54,-141.54"/>
</g>
<!-- Node21&#45;&gt;Node16 -->
<g id="edge29" class="edge">
<title>Node21&#45;&gt;Node16</title>
<path fill="none" stroke="midnightblue" d="M666.55,-224.4C663.38,-216.2 659.35,-205.78 655.96,-196.99"/>
<polygon fill="midnightblue" stroke="midnightblue" points="659.22,-195.72 652.35,-187.66 652.69,-198.25 659.22,-195.72"/>
</g>
<!-- Node21&#45;&gt;Node20 -->
<g id="edge30" class="edge">
<title>Node21&#45;&gt;Node20</title>
<path fill="none" stroke="midnightblue" d="M638.35,-224.4C614.52,-214.42 582.85,-201.15 559.91,-191.53"/>
<polygon fill="midnightblue" stroke="midnightblue" points="561.24,-188.29 550.66,-187.66 558.53,-194.75 561.24,-188.29"/>
</g>
</g>
</svg>
        <g id="navigator" transform="translate(0 0)" fill="#404254">
                <rect fill="#f2f5e9" fill-opacity="0.5" stroke="#606060" stroke-width=".5" x="0" y="0" width="60" height="60"/>
                <use id="zoomplus" xlink:href="#zoomPlus" x="17" y="9" onmousedown="handleZoom(evt,'in')"/>
                <use id="zoomminus" xlink:href="#zoomMin" x="42" y="9" onmousedown="handleZoom(evt,'out')"/>
                <use id="reset" xlink:href="#resetDef" x="30" y="36" onmousedown="handleReset()"/>
                <g id="arrowUp" xlink:href="#dirArrow" transform="translate(30 24)" onmousedown="handlePan(0,-1)">
                  <use xlink:href="#rim" fill="#404040">
                        <set attributeName="fill" to="#808080" begin="arrowUp.mouseover" end="arrowUp.mouseout"/>
                  </use>
                  <path fill="none" stroke="white" stroke-width="1.5" d="M0,-3.0v7 M-2.5,-0.5L0,-3.0L2.5,-0.5"/>
                </g>
                <g id="arrowRight" xlink:href="#dirArrow" transform="rotate(90) translate(36 -43)" onmousedown="handlePan(1,0)">
                  <use xlink:href="#rim" fill="#404040">
                        <set attributeName="fill" to="#808080" begin="arrowRight.mouseover" end="arrowRight.mouseout"/>
                  </use>
                  <path fill="none" stroke="white" stroke-width="1.5" d="M0,-3.0v7 M-2.5,-0.5L0,-3.0L2.5,-0.5"/>
                </g>
                <g id="arrowDown" xlink:href="#dirArrow" transform="rotate(180) translate(-30 -48)" onmousedown="handlePan(0,1)">
                  <use xlink:href="#rim" fill="#404040">
                        <set attributeName="fill" to="#808080" begin="arrowDown.mouseover" end="arrowDown.mouseout"/>
                  </use>
                  <path fill="none" stroke="white" stroke-width="1.5" d="M0,-3.0v7 M-2.5,-0.5L0,-3.0L2.5,-0.5"/>
                </g>
                <g id="arrowLeft" xlink:href="#dirArrow" transform="rotate(270) translate(-36 17)" onmousedown="handlePan(-1,0)">
                  <use xlink:href="#rim" fill="#404040">
                        <set attributeName="fill" to="#808080" begin="arrowLeft.mouseover" end="arrowLeft.mouseout"/>
                  </use>
                  <path fill="none" stroke="white" stroke-width="1.5" d="M0,-3.0v7 M-2.5,-0.5L0,-3.0L2.5,-0.5"/>
                </g>
        </g>
        <svg viewBox="0 0 15 15" width="100%" height="30px" preserveAspectRatio="xMaxYMin meet">
         <g id="arrow_out" transform="scale(0.3 0.3)">
          <a xlink:href="Regulateur_8h__incl_org.svg" target="_base">
           <rect id="button" ry="5" rx="5" y="6" x="6" height="38" width="38"
                fill="#f2f5e9" fill-opacity="0.5" stroke="#606060" stroke-width="1.0"/>
           <path id="arrow"
             d="M 11.500037,31.436501 C 11.940474,20.09759 22.043105,11.32322 32.158766,21.979434 L 37.068811,17.246167 C 37.068811,17.246167 37.088388,32 37.088388,32 L 22.160133,31.978069 C 22.160133,31.978069 26.997745,27.140456 26.997745,27.140456 C 18.528582,18.264221 13.291696,25.230495 11.500037,31.436501 z"
             style="fill:#404040;"/>
          </a>
         </g>
        </svg>
</svg>
