<?xml version="1.0" encoding="UTF-8" standalone="no"?>
<!DOCTYPE svg PUBLIC "-//W3C//DTD SVG 1.1//EN"
 "http://www.w3.org/Graphics/SVG/1.1/DTD/svg11.dtd">
<!-- Generated by graphviz version 2.43.0 (0)
 -->
<!-- Title: test/manual/SensorDriverManualTest.hpp Pages: 1 -->
<!--zoomable 330 -->
<svg id="main" version="1.1" xmlns="http://www.w3.org/2000/svg" xmlns:xlink="http://www.w3.org/1999/xlink" xml:space="preserve" onload="init(evt)">
<style type="text/css"><![CDATA[
.edge:hover path { stroke: red; }
.edge:hover polygon { stroke: red; fill: red; }
]]></style>
<script type="text/javascript"><![CDATA[
var edges = document.getElementsByTagName('g');
if (edges && edges.length) {
  for (var i=0;i<edges.length;i++) {
    if (edges[i].id.substr(0,4)=='edge') {
      edges[i].setAttribute('class','edge');
    }
  }
}
]]></script>
        <defs>
                <circle id="rim" cx="0" cy="0" r="7"/>
                <circle id="rim2" cx="0" cy="0" r="3.5"/>
                <g id="zoomPlus">
                        <use xlink:href="#rim" fill="#404040">
                                <set attributeName="fill" to="#808080" begin="zoomplus.mouseover" end="zoomplus.mouseout"/>
                        </use>
                        <path d="M-4,0h8M0,-4v8" fill="none" stroke="white" stroke-width="1.5" pointer-events="none"/>
                </g>
                <g id="zoomMin">
                        <use xlink:href="#rim" fill="#404040">
                                <set attributeName="fill" to="#808080" begin="zoomminus.mouseover" end="zoomminus.mouseout"/>
                        </use>
                        <path d="M-4,0h8" fill="none" stroke="white" stroke-width="1.5" pointer-events="none"/>
                </g>
                <g id="dirArrow">
                        <path fill="none" stroke="white" stroke-width="1.5" d="M0,-3.0v7 M-2.5,-0.5L0,-3.0L2.5,-0.5"/>
                </g>
               <g id="resetDef">
                       <use xlink:href="#rim2" fill="#404040">
                               <set attributeName="fill" to="#808080" begin="reset.mouseover" end="reset.mouseout"/>
                       </use>
               </g>
        </defs>

<script type="text/javascript">
var viewWidth = 936;
var viewHeight = 330;
var sectionId = 'dynsection-0';
</script>
<script xlink:href="svgpan.js"/>
<svg id="graph" class="graph">
<g id="viewport">
<title>test/manual/SensorDriverManualTest.hpp</title>
<polygon fill="white" stroke="transparent" points="-4,4 -4,-326 931.5,-326 931.5,4 -4,4"/>
<!-- Node1 -->
<g id="node1" class="node">
<title>Node1</title>
<g id="a_node1"><a xlink:title="Définition de la classe SensorDriverManualTest.">
<polygon fill="#bfbfbf" stroke="black" points="264,-291.5 264,-321.5 405,-321.5 405,-291.5 264,-291.5"/>
<text text-anchor="start" x="272" y="-309.5" font-family="Helvetica,sans-Serif" font-size="10.00">test/manual/SensorDriver</text>
<text text-anchor="middle" x="334.5" y="-298.5" font-family="Helvetica,sans-Serif" font-size="10.00">ManualTest.hpp</text>
</a>
</g>
</g>
<!-- Node2 -->
<g id="node2" class="node">
<title>Node2</title>
<g id="a_node2"><a xlink:href="ARobotPositionShared_8hpp.html" target="_top" xlink:title="Position partagee du robot et utilitaires geometriques.">
<polygon fill="white" stroke="black" points="23,-224.5 23,-254.5 160,-254.5 160,-224.5 23,-224.5"/>
<text text-anchor="start" x="31" y="-242.5" font-family="Helvetica,sans-Serif" font-size="10.00">interface/ARobotPosition</text>
<text text-anchor="middle" x="91.5" y="-231.5" font-family="Helvetica,sans-Serif" font-size="10.00">Shared.hpp</text>
</a>
</g>
</g>
<!-- Node1&#45;&gt;Node2 -->
<g id="edge1" class="edge">
<title>Node1&#45;&gt;Node2</title>
<path fill="none" stroke="midnightblue" d="M282.07,-291.48C244.51,-281.43 193.77,-267.86 154.09,-257.24"/>
<polygon fill="midnightblue" stroke="midnightblue" points="154.82,-253.81 144.25,-254.61 153.01,-260.58 154.82,-253.81"/>
</g>
<!-- Node7 -->
<g id="node7" class="node">
<title>Node7</title>
<g id="a_node7"><a xlink:href="ASensorsDriver_8hpp.html" target="_top" xlink:title="Interface abstraite du driver de capteurs (balise ToF, IR, ultrasons).">
<polygon fill="white" stroke="black" points="178.5,-230 178.5,-249 336.5,-249 336.5,-230 178.5,-230"/>
<text text-anchor="middle" x="257.5" y="-237" font-family="Helvetica,sans-Serif" font-size="10.00">interface/ASensorsDriver.hpp</text>
</a>
</g>
</g>
<!-- Node1&#45;&gt;Node7 -->
<g id="edge6" class="edge">
<title>Node1&#45;&gt;Node7</title>
<path fill="none" stroke="midnightblue" d="M317.79,-291.4C305.31,-280.86 288.27,-266.48 275.49,-255.69"/>
<polygon fill="midnightblue" stroke="midnightblue" points="277.7,-252.97 267.8,-249.19 273.18,-258.32 277.7,-252.97"/>
</g>
<!-- Node9 -->
<g id="node9" class="node">
<title>Node9</title>
<g id="a_node9"><a xlink:href="LoggerFactory_8hpp.html" target="_top" xlink:title="Définition de la classe LoggerFactory.">
<polygon fill="white" stroke="black" points="435.5,-168.5 435.5,-187.5 557.5,-187.5 557.5,-168.5 435.5,-168.5"/>
<text text-anchor="middle" x="496.5" y="-175.5" font-family="Helvetica,sans-Serif" font-size="10.00">log/LoggerFactory.hpp</text>
</a>
</g>
</g>
<!-- Node1&#45;&gt;Node9 -->
<g id="edge9" class="edge">
<title>Node1&#45;&gt;Node9</title>
<path fill="none" stroke="midnightblue" d="M405.28,-294.97C431.24,-287.74 458.81,-275.55 477.5,-255 491.63,-239.47 495.63,-215.03 496.57,-198.08"/>
<polygon fill="midnightblue" stroke="midnightblue" points="500.08,-197.82 496.83,-187.74 493.08,-197.65 500.08,-197.82"/>
</g>
<!-- Node20 -->
<g id="node20" class="node">
<title>Node20</title>
<g id="a_node20"><a xlink:href="UnitTest_8hpp.html" target="_top" xlink:title="Définition de la classe DevUnitTest.">
<polygon fill="white" stroke="black" points="355,-230 355,-249 468,-249 468,-230 355,-230"/>
<text text-anchor="middle" x="411.5" y="-237" font-family="Helvetica,sans-Serif" font-size="10.00">../suite/UnitTest.hpp</text>
</a>
</g>
</g>
<!-- Node1&#45;&gt;Node20 -->
<g id="edge26" class="edge">
<title>Node1&#45;&gt;Node20</title>
<path fill="none" stroke="midnightblue" d="M351.21,-291.4C363.69,-280.86 380.73,-266.48 393.51,-255.69"/>
<polygon fill="midnightblue" stroke="midnightblue" points="395.82,-258.32 401.2,-249.19 391.3,-252.97 395.82,-258.32"/>
</g>
<!-- Node3 -->
<g id="node3" class="node">
<title>Node3</title>
<g id="a_node3"><a xlink:title=" ">
<polygon fill="white" stroke="#bfbfbf" points="0,-168.5 0,-187.5 47,-187.5 47,-168.5 0,-168.5"/>
<text text-anchor="middle" x="23.5" y="-175.5" font-family="Helvetica,sans-Serif" font-size="10.00">cmath</text>
</a>
</g>
</g>
<!-- Node2&#45;&gt;Node3 -->
<g id="edge2" class="edge">
<title>Node2&#45;&gt;Node3</title>
<path fill="none" stroke="midnightblue" d="M75.38,-224.4C65.1,-215.4 51.75,-203.72 41.17,-194.47"/>
<polygon fill="midnightblue" stroke="midnightblue" points="43.23,-191.61 33.39,-187.66 38.62,-196.88 43.23,-191.61"/>
</g>
<!-- Node4 -->
<g id="node4" class="node">
<title>Node4</title>
<g id="a_node4"><a xlink:href="Chronometer_8hpp.html" target="_top" xlink:title="Définition de la classe Chronometer.">
<polygon fill="white" stroke="black" points="65,-168.5 65,-187.5 190,-187.5 190,-168.5 65,-168.5"/>
<text text-anchor="middle" x="127.5" y="-175.5" font-family="Helvetica,sans-Serif" font-size="10.00">utils/Chronometer.hpp</text>
</a>
</g>
</g>
<!-- Node2&#45;&gt;Node4 -->
<g id="edge3" class="edge">
<title>Node2&#45;&gt;Node4</title>
<path fill="none" stroke="midnightblue" d="M100.03,-224.4C105.1,-216.02 111.57,-205.33 116.96,-196.42"/>
<polygon fill="midnightblue" stroke="midnightblue" points="120.08,-198.03 122.26,-187.66 114.09,-194.4 120.08,-198.03"/>
</g>
<!-- Node5 -->
<g id="node5" class="node">
<title>Node5</title>
<g id="a_node5"><a xlink:title=" ">
<polygon fill="white" stroke="#bfbfbf" points="89.5,-112.5 89.5,-131.5 157.5,-131.5 157.5,-112.5 89.5,-112.5"/>
<text text-anchor="middle" x="123.5" y="-119.5" font-family="Helvetica,sans-Serif" font-size="10.00">sys/time.h</text>
</a>
</g>
</g>
<!-- Node4&#45;&gt;Node5 -->
<g id="edge4" class="edge">
<title>Node4&#45;&gt;Node5</title>
<path fill="none" stroke="midnightblue" d="M126.84,-168.08C126.32,-161.01 125.56,-150.86 124.91,-141.99"/>
<polygon fill="midnightblue" stroke="midnightblue" points="128.38,-141.47 124.15,-131.75 121.4,-141.98 128.38,-141.47"/>
</g>
<!-- Node6 -->
<g id="node6" class="node">
<title>Node6</title>
<g id="a_node6"><a xlink:title=" ">
<polygon fill="white" stroke="#bfbfbf" points="365.5,-0.5 365.5,-19.5 409.5,-19.5 409.5,-0.5 365.5,-0.5"/>
<text text-anchor="middle" x="387.5" y="-7.5" font-family="Helvetica,sans-Serif" font-size="10.00">string</text>
</a>
</g>
</g>
<!-- Node4&#45;&gt;Node6 -->
<g id="edge5" class="edge">
<title>Node4&#45;&gt;Node6</title>
<path fill="none" stroke="midnightblue" d="M135.82,-168.46C144.11,-159.71 156.96,-145.52 166.5,-132 188.88,-100.29 178.65,-79.54 209.5,-56 252.58,-23.13 316.95,-14.07 355.33,-11.69"/>
<polygon fill="midnightblue" stroke="midnightblue" points="355.61,-15.18 365.42,-11.19 355.26,-8.19 355.61,-15.18"/>
</g>
<!-- Node7&#45;&gt;Node6 -->
<g id="edge7" class="edge">
<title>Node7&#45;&gt;Node6</title>
<path fill="none" stroke="midnightblue" d="M252.44,-229.57C245.42,-215.95 234.44,-189.3 242.5,-168 266.86,-103.66 332.01,-50.15 366.07,-25.55"/>
<polygon fill="midnightblue" stroke="midnightblue" points="368.26,-28.28 374.41,-19.65 364.22,-22.57 368.26,-28.28"/>
</g>
<!-- Node8 -->
<g id="node8" class="node">
<title>Node8</title>
<g id="a_node8"><a xlink:title=" ">
<polygon fill="white" stroke="#bfbfbf" points="252,-168.5 252,-187.5 299,-187.5 299,-168.5 252,-168.5"/>
<text text-anchor="middle" x="275.5" y="-175.5" font-family="Helvetica,sans-Serif" font-size="10.00">vector</text>
</a>
</g>
</g>
<!-- Node7&#45;&gt;Node8 -->
<g id="edge8" class="edge">
<title>Node7&#45;&gt;Node8</title>
<path fill="none" stroke="midnightblue" d="M260.08,-229.98C262.65,-221.49 266.67,-208.2 269.96,-197.32"/>
<polygon fill="midnightblue" stroke="midnightblue" points="273.38,-198.09 272.93,-187.51 266.68,-196.07 273.38,-198.09"/>
</g>
<!-- Node9&#45;&gt;Node6 -->
<g id="edge11" class="edge">
<title>Node9&#45;&gt;Node6</title>
<path fill="none" stroke="midnightblue" d="M509.28,-168.37C519.89,-160.36 534.23,-147.38 540.5,-132 553.77,-99.44 543.9,-80.32 518.5,-56 491.58,-30.23 449.25,-19.17 420.03,-14.45"/>
<polygon fill="midnightblue" stroke="midnightblue" points="420.31,-10.96 409.91,-12.99 419.3,-17.88 420.31,-10.96"/>
</g>
<!-- Node10 -->
<g id="node10" class="node">
<title>Node10</title>
<g id="a_node10"><a xlink:title=" ">
<polygon fill="white" stroke="#bfbfbf" points="405.5,-112.5 405.5,-131.5 443.5,-131.5 443.5,-112.5 405.5,-112.5"/>
<text text-anchor="middle" x="424.5" y="-119.5" font-family="Helvetica,sans-Serif" font-size="10.00">map</text>
</a>
</g>
</g>
<!-- Node9&#45;&gt;Node10 -->
<g id="edge10" class="edge">
<title>Node9&#45;&gt;Node10</title>
<path fill="none" stroke="midnightblue" d="M484.93,-168.32C474.08,-160.18 457.62,-147.84 444.62,-138.09"/>
<polygon fill="midnightblue" stroke="midnightblue" points="446.38,-135.03 436.28,-131.83 442.18,-140.63 446.38,-135.03"/>
</g>
<!-- Node11 -->
<g id="node11" class="node">
<title>Node11</title>
<g id="a_node11"><a xlink:href="Thread_8hpp.html" target="_top" xlink:title="Définition de la classe Thread.">
<polygon fill="white" stroke="black" points="678,-112.5 678,-131.5 793,-131.5 793,-112.5 678,-112.5"/>
<text text-anchor="middle" x="735.5" y="-119.5" font-family="Helvetica,sans-Serif" font-size="10.00">../thread/Thread.hpp</text>
</a>
</g>
</g>
<!-- Node9&#45;&gt;Node11 -->
<g id="edge12" class="edge">
<title>Node9&#45;&gt;Node11</title>
<path fill="none" stroke="midnightblue" d="M534.37,-168.44C575.98,-159.04 642.87,-143.93 687.97,-133.74"/>
<polygon fill="midnightblue" stroke="midnightblue" points="688.82,-137.13 697.81,-131.52 687.28,-130.31 688.82,-137.13"/>
</g>
<!-- Node17 -->
<g id="node17" class="node">
<title>Node17</title>
<g id="a_node17"><a xlink:href="Logger_8hpp.html" target="_top" xlink:title="Définition de la classe Logger.">
<polygon fill="white" stroke="black" points="461.5,-112.5 461.5,-131.5 531.5,-131.5 531.5,-112.5 461.5,-112.5"/>
<text text-anchor="middle" x="496.5" y="-119.5" font-family="Helvetica,sans-Serif" font-size="10.00">Logger.hpp</text>
</a>
</g>
</g>
<!-- Node9&#45;&gt;Node17 -->
<g id="edge20" class="edge">
<title>Node9&#45;&gt;Node17</title>
<path fill="none" stroke="midnightblue" d="M496.5,-168.08C496.5,-161.01 496.5,-150.86 496.5,-141.99"/>
<polygon fill="midnightblue" stroke="midnightblue" points="500,-141.75 496.5,-131.75 493,-141.75 500,-141.75"/>
</g>
<!-- Node11&#45;&gt;Node6 -->
<g id="edge14" class="edge">
<title>Node11&#45;&gt;Node6</title>
<path fill="none" stroke="midnightblue" d="M728.75,-112.12C717.28,-97.73 692.47,-69.55 664.5,-56 582.87,-16.45 473.47,-10.63 419.86,-10.39"/>
<polygon fill="midnightblue" stroke="midnightblue" points="419.6,-6.89 409.61,-10.41 419.61,-13.89 419.6,-6.89"/>
</g>
<!-- Node12 -->
<g id="node12" class="node">
<title>Node12</title>
<g id="a_node12"><a xlink:title=" ">
<polygon fill="white" stroke="#bfbfbf" points="704,-0.5 704,-19.5 767,-19.5 767,-0.5 704,-0.5"/>
<text text-anchor="middle" x="735.5" y="-7.5" font-family="Helvetica,sans-Serif" font-size="10.00">pthread.h</text>
</a>
</g>
</g>
<!-- Node11&#45;&gt;Node12 -->
<g id="edge13" class="edge">
<title>Node11&#45;&gt;Node12</title>
<path fill="none" stroke="midnightblue" d="M776.55,-112.38C796.46,-105.92 818.59,-94.81 830.5,-76 846.87,-50.14 809.65,-31.95 777.1,-21.52"/>
<polygon fill="midnightblue" stroke="midnightblue" points="777.8,-18.08 767.22,-18.53 775.77,-24.78 777.8,-18.08"/>
</g>
<!-- Node13 -->
<g id="node13" class="node">
<title>Node13</title>
<g id="a_node13"><a xlink:title=" ">
<polygon fill="white" stroke="#bfbfbf" points="711.5,-56.5 711.5,-75.5 759.5,-75.5 759.5,-56.5 711.5,-56.5"/>
<text text-anchor="middle" x="735.5" y="-63.5" font-family="Helvetica,sans-Serif" font-size="10.00">thread</text>
</a>
</g>
</g>
<!-- Node11&#45;&gt;Node13 -->
<g id="edge15" class="edge">
<title>Node11&#45;&gt;Node13</title>
<path fill="none" stroke="midnightblue" d="M735.5,-112.08C735.5,-105.01 735.5,-94.86 735.5,-85.99"/>
<polygon fill="midnightblue" stroke="midnightblue" points="739,-85.75 735.5,-75.75 732,-85.75 739,-85.75"/>
</g>
<!-- Node14 -->
<g id="node14" class="node">
<title>Node14</title>
<g id="a_node14"><a xlink:title=" ">
<polygon fill="white" stroke="#bfbfbf" points="777.5,-56.5 777.5,-75.5 821.5,-75.5 821.5,-56.5 777.5,-56.5"/>
<text text-anchor="middle" x="799.5" y="-63.5" font-family="Helvetica,sans-Serif" font-size="10.00">ctime</text>
</a>
</g>
</g>
<!-- Node11&#45;&gt;Node14 -->
<g id="edge16" class="edge">
<title>Node11&#45;&gt;Node14</title>
<path fill="none" stroke="midnightblue" d="M745.78,-112.32C755.34,-104.26 769.78,-92.08 781.28,-82.37"/>
<polygon fill="midnightblue" stroke="midnightblue" points="783.64,-84.96 789.03,-75.83 779.13,-79.61 783.64,-84.96"/>
</g>
<!-- Node15 -->
<g id="node15" class="node">
<title>Node15</title>
<g id="a_node15"><a xlink:href="Mutex_8hpp.html" target="_top" xlink:title="Définition de la classe Mutex.">
<polygon fill="white" stroke="black" points="587.5,-56.5 587.5,-75.5 655.5,-75.5 655.5,-56.5 587.5,-56.5"/>
<text text-anchor="middle" x="621.5" y="-63.5" font-family="Helvetica,sans-Serif" font-size="10.00">Mutex.hpp</text>
</a>
</g>
</g>
<!-- Node11&#45;&gt;Node15 -->
<g id="edge17" class="edge">
<title>Node11&#45;&gt;Node15</title>
<path fill="none" stroke="midnightblue" d="M717.44,-112.44C698.93,-103.68 669.92,-89.94 648.64,-79.86"/>
<polygon fill="midnightblue" stroke="midnightblue" points="650.01,-76.63 639.48,-75.52 647.02,-82.96 650.01,-76.63"/>
</g>
<!-- Node16 -->
<g id="node16" class="node">
<title>Node16</title>
<g id="a_node16"><a xlink:title=" ">
<polygon fill="white" stroke="#bfbfbf" points="877.5,-56.5 877.5,-75.5 927.5,-75.5 927.5,-56.5 877.5,-56.5"/>
<text text-anchor="middle" x="902.5" y="-63.5" font-family="Helvetica,sans-Serif" font-size="10.00">chrono</text>
</a>
</g>
</g>
<!-- Node11&#45;&gt;Node16 -->
<g id="edge19" class="edge">
<title>Node11&#45;&gt;Node16</title>
<path fill="none" stroke="midnightblue" d="M761.96,-112.44C790.51,-103.21 836.1,-88.47 867.57,-78.29"/>
<polygon fill="midnightblue" stroke="midnightblue" points="868.82,-81.57 877.26,-75.16 866.66,-74.91 868.82,-81.57"/>
</g>
<!-- Node15&#45;&gt;Node12 -->
<g id="edge18" class="edge">
<title>Node15&#45;&gt;Node12</title>
<path fill="none" stroke="midnightblue" d="M639.56,-56.44C658.07,-47.68 687.08,-33.94 708.36,-23.86"/>
<polygon fill="midnightblue" stroke="midnightblue" points="709.98,-26.96 717.52,-19.52 706.99,-20.63 709.98,-26.96"/>
</g>
<!-- Node17&#45;&gt;Node6 -->
<g id="edge22" class="edge">
<title>Node17&#45;&gt;Node6</title>
<path fill="none" stroke="midnightblue" d="M500.63,-112.12C506.19,-98.7 514.13,-73.04 502.5,-56 484.15,-29.11 447.11,-18.29 420.01,-13.93"/>
<polygon fill="midnightblue" stroke="midnightblue" points="420.19,-10.43 409.8,-12.52 419.23,-17.36 420.19,-10.43"/>
</g>
<!-- Node17&#45;&gt;Node15 -->
<g id="edge23" class="edge">
<title>Node17&#45;&gt;Node15</title>
<path fill="none" stroke="midnightblue" d="M516.31,-112.44C536.79,-103.6 568.98,-89.69 592.36,-79.59"/>
<polygon fill="midnightblue" stroke="midnightblue" points="593.99,-82.7 601.79,-75.52 591.22,-76.27 593.99,-82.7"/>
</g>
<!-- Node18 -->
<g id="node18" class="node">
<title>Node18</title>
<g id="a_node18"><a xlink:title=" ">
<polygon fill="white" stroke="#bfbfbf" points="437.5,-56.5 437.5,-75.5 493.5,-75.5 493.5,-56.5 437.5,-56.5"/>
<text text-anchor="middle" x="465.5" y="-63.5" font-family="Helvetica,sans-Serif" font-size="10.00">sstream</text>
</a>
</g>
</g>
<!-- Node17&#45;&gt;Node18 -->
<g id="edge21" class="edge">
<title>Node17&#45;&gt;Node18</title>
<path fill="none" stroke="midnightblue" d="M491.38,-112.08C487.09,-104.61 480.84,-93.72 475.56,-84.52"/>
<polygon fill="midnightblue" stroke="midnightblue" points="478.54,-82.68 470.52,-75.75 472.47,-86.17 478.54,-82.68"/>
</g>
<!-- Node19 -->
<g id="node19" class="node">
<title>Node19</title>
<g id="a_node19"><a xlink:href="Level_8hpp.html" target="_top" xlink:title="Définition de la classe Level.">
<polygon fill="white" stroke="black" points="355.5,-56.5 355.5,-75.5 419.5,-75.5 419.5,-56.5 355.5,-56.5"/>
<text text-anchor="middle" x="387.5" y="-63.5" font-family="Helvetica,sans-Serif" font-size="10.00">Level.hpp</text>
</a>
</g>
</g>
<!-- Node17&#45;&gt;Node19 -->
<g id="edge24" class="edge">
<title>Node17&#45;&gt;Node19</title>
<path fill="none" stroke="midnightblue" d="M478.99,-112.32C461.43,-103.62 434.17,-90.12 413.97,-80.11"/>
<polygon fill="midnightblue" stroke="midnightblue" points="415.48,-76.96 404.97,-75.65 412.38,-83.23 415.48,-76.96"/>
</g>
<!-- Node19&#45;&gt;Node6 -->
<g id="edge25" class="edge">
<title>Node19&#45;&gt;Node6</title>
<path fill="none" stroke="midnightblue" d="M387.5,-56.08C387.5,-49.01 387.5,-38.86 387.5,-29.99"/>
<polygon fill="midnightblue" stroke="midnightblue" points="391,-29.75 387.5,-19.75 384,-29.75 391,-29.75"/>
</g>
<!-- Node20&#45;&gt;Node6 -->
<g id="edge27" class="edge">
<title>Node20&#45;&gt;Node6</title>
<path fill="none" stroke="midnightblue" d="M406.57,-229.71C393.55,-205.89 358.39,-137.76 346.5,-76 344.82,-67.27 343.29,-64.29 346.5,-56 350.95,-44.5 359.87,-34.13 368.25,-26.25"/>
<polygon fill="midnightblue" stroke="midnightblue" points="370.74,-28.73 375.96,-19.51 366.13,-23.46 370.74,-28.73"/>
</g>
<!-- Node20&#45;&gt;Node9 -->
<g id="edge28" class="edge">
<title>Node20&#45;&gt;Node9</title>
<path fill="none" stroke="midnightblue" d="M423.68,-229.98C437.31,-220.43 459.63,-204.81 475.97,-193.37"/>
<polygon fill="midnightblue" stroke="midnightblue" points="478.16,-196.11 484.34,-187.51 474.14,-190.38 478.16,-196.11"/>
</g>
</g>
</svg>
        <g id="navigator" transform="translate(0 0)" fill="#404254">
                <rect fill="#f2f5e9" fill-opacity="0.5" stroke="#606060" stroke-width=".5" x="0" y="0" width="60" height="60"/>
                <use id="zoomplus" xlink:href="#zoomPlus" x="17" y="9" onmousedown="handleZoom(evt,'in')"/>
                <use id="zoomminus" xlink:href="#zoomMin" x="42" y="9" onmousedown="handleZoom(evt,'out')"/>
                <use id="reset" xlink:href="#resetDef" x="30" y="36" onmousedown="handleReset()"/>
                <g id="arrowUp" xlink:href="#dirArrow" transform="translate(30 24)" onmousedown="handlePan(0,-1)">
                  <use xlink:href="#rim" fill="#404040">
                        <set attributeName="fill" to="#808080" begin="arrowUp.mouseover" end="arrowUp.mouseout"/>
                  </use>
                  <path fill="none" stroke="white" stroke-width="1.5" d="M0,-3.0v7 M-2.5,-0.5L0,-3.0L2.5,-0.5"/>
                </g>
                <g id="arrowRight" xlink:href="#dirArrow" transform="rotate(90) translate(36 -43)" onmousedown="handlePan(1,0)">
                  <use xlink:href="#rim" fill="#404040">
                        <set attributeName="fill" to="#808080" begin="arrowRight.mouseover" end="arrowRight.mouseout"/>
                  </use>
                  <path fill="none" stroke="white" stroke-width="1.5" d="M0,-3.0v7 M-2.5,-0.5L0,-3.0L2.5,-0.5"/>
                </g>
                <g id="arrowDown" xlink:href="#dirArrow" transform="rotate(180) translate(-30 -48)" onmousedown="handlePan(0,1)">
                  <use xlink:href="#rim" fill="#404040">
                        <set attributeName="fill" to="#808080" begin="arrowDown.mouseover" end="arrowDown.mouseout"/>
                  </use>
                  <path fill="none" stroke="white" stroke-width="1.5" d="M0,-3.0v7 M-2.5,-0.5L0,-3.0L2.5,-0.5"/>
                </g>
                <g id="arrowLeft" xlink:href="#dirArrow" transform="rotate(270) translate(-36 17)" onmousedown="handlePan(-1,0)">
                  <use xlink:href="#rim" fill="#404040">
                        <set attributeName="fill" to="#808080" begin="arrowLeft.mouseover" end="arrowLeft.mouseout"/>
                  </use>
                  <path fill="none" stroke="white" stroke-width="1.5" d="M0,-3.0v7 M-2.5,-0.5L0,-3.0L2.5,-0.5"/>
                </g>
        </g>
        <svg viewBox="0 0 15 15" width="100%" height="30px" preserveAspectRatio="xMaxYMin meet">
         <g id="arrow_out" transform="scale(0.3 0.3)">
          <a xlink:href="SensorDriverManualTest_8hpp__incl_org.svg" target="_base">
           <rect id="button" ry="5" rx="5" y="6" x="6" height="38" width="38"
                fill="#f2f5e9" fill-opacity="0.5" stroke="#606060" stroke-width="1.0"/>
           <path id="arrow"
             d="M 11.500037,31.436501 C 11.940474,20.09759 22.043105,11.32322 32.158766,21.979434 L 37.068811,17.246167 C 37.068811,17.246167 37.088388,32 37.088388,32 L 22.160133,31.978069 C 22.160133,31.978069 26.997745,27.140456 26.997745,27.140456 C 18.528582,18.264221 13.291696,25.230495 11.500037,31.436501 z"
             style="fill:#404040;"/>
          </a>
         </g>
        </svg>
</svg>
