<?xml version="1.0" encoding="UTF-8" standalone="no"?>
<!DOCTYPE svg PUBLIC "-//W3C//DTD SVG 1.1//EN"
 "http://www.w3.org/Graphics/SVG/1.1/DTD/svg11.dtd">
<!-- Generated by graphviz version 2.43.0 (0)
 -->
<!-- Title: test/manual/ServoDriverManualTest.hpp Pages: 1 -->
<svg width="320pt" height="106pt"
 viewBox="0.00 0.00 320.00 106.00" xmlns="http://www.w3.org/2000/svg" xmlns:xlink="http://www.w3.org/1999/xlink">
<g id="graph0" class="graph" transform="scale(1 1) rotate(0) translate(4 102)">
<title>test/manual/ServoDriverManualTest.hpp</title>
<polygon fill="white" stroke="transparent" points="-4,4 -4,-102 316,-102 316,4 -4,4"/>
<!-- Node1 -->
<g id="node1" class="node">
<title>Node1</title>
<g id="a_node1"><a xlink:title="Définition de la classe ServoDriverManualTest.">
<polygon fill="#bfbfbf" stroke="black" points="57,-67.5 57,-97.5 229,-97.5 229,-67.5 57,-67.5"/>
<text text-anchor="start" x="65" y="-85.5" font-family="Helvetica,sans-Serif" font-size="10.00">test/manual/ServoDriverManual</text>
<text text-anchor="middle" x="143" y="-74.5" font-family="Helvetica,sans-Serif" font-size="10.00">Test.hpp</text>
</a>
</g>
</g>
<!-- Node2 -->
<g id="node2" class="node">
<title>Node2</title>
<g id="a_node2"><a xlink:href="test_2manual_2Main_8cpp.html" target="_top" xlink:title="Point d&#39;entree des tests manuels (verification visuelle/physique).">
<polygon fill="white" stroke="black" points="0,-6 0,-25 122,-25 122,-6 0,-6"/>
<text text-anchor="middle" x="61" y="-13" font-family="Helvetica,sans-Serif" font-size="10.00">test/manual/Main.cpp</text>
</a>
</g>
</g>
<!-- Node1&#45;&gt;Node2 -->
<g id="edge1" class="edge">
<title>Node1&#45;&gt;Node2</title>
<path fill="none" stroke="midnightblue" d="M117.15,-61.01C101.93,-48.94 83.46,-34.3 71.97,-25.19"/>
<polygon fill="midnightblue" stroke="midnightblue" points="115.2,-63.93 125.21,-67.4 119.54,-58.44 115.2,-63.93"/>
</g>
<!-- Node3 -->
<g id="node3" class="node">
<title>Node3</title>
<g id="a_node3"><a xlink:href="ServoDriverManualTest_8cpp.html" target="_top" xlink:title="Implémentation de la classe ServoDriverManualTest.">
<polygon fill="white" stroke="black" points="140,-0.5 140,-30.5 312,-30.5 312,-0.5 140,-0.5"/>
<text text-anchor="start" x="148" y="-18.5" font-family="Helvetica,sans-Serif" font-size="10.00">test/manual/ServoDriverManual</text>
<text text-anchor="middle" x="226" y="-7.5" font-family="Helvetica,sans-Serif" font-size="10.00">Test.cpp</text>
</a>
</g>
</g>
<!-- Node1&#45;&gt;Node3 -->
<g id="edge2" class="edge">
<title>Node1&#45;&gt;Node3</title>
<path fill="none" stroke="midnightblue" d="M168.96,-61.17C181.65,-51.23 196.61,-39.51 208.03,-30.58"/>
<polygon fill="midnightblue" stroke="midnightblue" points="166.72,-58.47 161.01,-67.4 171.04,-63.99 166.72,-58.47"/>
</g>
</g>
</svg>
