<?xml version="1.0" encoding="UTF-8" standalone="no"?>
<!DOCTYPE svg PUBLIC "-//W3C//DTD SVG 1.1//EN"
 "http://www.w3.org/Graphics/SVG/1.1/DTD/svg11.dtd">
<!-- Generated by graphviz version 2.43.0 (0)
 -->
<!-- Title: src/common/action/ServoObjectsSystem.hpp Pages: 1 -->
<!--zoomable 173 -->
<svg id="main" version="1.1" xmlns="http://www.w3.org/2000/svg" xmlns:xlink="http://www.w3.org/1999/xlink" xml:space="preserve" onload="init(evt)">
<style type="text/css"><![CDATA[
.edge:hover path { stroke: red; }
.edge:hover polygon { stroke: red; fill: red; }
]]></style>
<script type="text/javascript"><![CDATA[
var edges = document.getElementsByTagName('g');
if (edges && edges.length) {
  for (var i=0;i<edges.length;i++) {
    if (edges[i].id.substr(0,4)=='edge') {
      edges[i].setAttribute('class','edge');
    }
  }
}
]]></script>
        <defs>
                <circle id="rim" cx="0" cy="0" r="7"/>
                <circle id="rim2" cx="0" cy="0" r="3.5"/>
                <g id="zoomPlus">
                        <use xlink:href="#rim" fill="#404040">
                                <set attributeName="fill" to="#808080" begin="zoomplus.mouseover" end="zoomplus.mouseout"/>
                        </use>
                        <path d="M-4,0h8M0,-4v8" fill="none" stroke="white" stroke-width="1.5" pointer-events="none"/>
                </g>
                <g id="zoomMin">
                        <use xlink:href="#rim" fill="#404040">
                                <set attributeName="fill" to="#808080" begin="zoomminus.mouseover" end="zoomminus.mouseout"/>
                        </use>
                        <path d="M-4,0h8" fill="none" stroke="white" stroke-width="1.5" pointer-events="none"/>
                </g>
                <g id="dirArrow">
                        <path fill="none" stroke="white" stroke-width="1.5" d="M0,-3.0v7 M-2.5,-0.5L0,-3.0L2.5,-0.5"/>
                </g>
               <g id="resetDef">
                       <use xlink:href="#rim2" fill="#404040">
                               <set attributeName="fill" to="#808080" begin="reset.mouseover" end="reset.mouseout"/>
                       </use>
               </g>
        </defs>

<script type="text/javascript">
var viewWidth = 3050;
var viewHeight = 173;
var sectionId = 'dynsection-1';
</script>
<script xlink:href="svgpan.js"/>
<svg id="graph" class="graph">
<g id="viewport">
<title>src/common/action/ServoObjectsSystem.hpp</title>
<polygon fill="white" stroke="transparent" points="-4,4 -4,-169 3045.5,-169 3045.5,4 -4,4"/>
<!-- Node1 -->
<g id="node1" class="node">
<title>Node1</title>
<g id="a_node1"><a xlink:title="Gestion du système de servomoteurs et timers de déplacement associés.">
<polygon fill="#bfbfbf" stroke="black" points="1350,-134.5 1350,-164.5 1527,-164.5 1527,-134.5 1350,-134.5"/>
<text text-anchor="start" x="1358" y="-152.5" font-family="Helvetica,sans-Serif" font-size="10.00">src/common/action/ServoObjects</text>
<text text-anchor="middle" x="1438.5" y="-141.5" font-family="Helvetica,sans-Serif" font-size="10.00">System.hpp</text>
</a>
</g>
</g>
<!-- Node2 -->
<g id="node2" class="node">
<title>Node2</title>
<g id="a_node2"><a xlink:href="O__ServoStepTest_8cpp.html" target="_top" xlink:title="Implémentation de la classe O_ServoStepTest.">
<polygon fill="white" stroke="black" points="0,-0.5 0,-30.5 157,-30.5 157,-0.5 0,-0.5"/>
<text text-anchor="start" x="8" y="-18.5" font-family="Helvetica,sans-Serif" font-size="10.00">src/bot&#45;opos6ul/O_ServoStep</text>
<text text-anchor="middle" x="78.5" y="-7.5" font-family="Helvetica,sans-Serif" font-size="10.00">Test.cpp</text>
</a>
</g>
</g>
<!-- Node1&#45;&gt;Node2 -->
<g id="edge1" class="edge">
<title>Node1&#45;&gt;Node2</title>
<path fill="none" stroke="midnightblue" d="M1339.7,-141.78C1125.46,-126.68 602.32,-86.96 166.5,-31 163.43,-30.61 160.3,-30.18 157.14,-29.74"/>
<polygon fill="midnightblue" stroke="midnightblue" points="1339.75,-145.29 1349.98,-142.5 1340.25,-138.31 1339.75,-145.29"/>
</g>
<!-- Node3 -->
<g id="node3" class="node">
<title>Node3</title>
<g id="a_node3"><a xlink:href="OPOS6UL__ActionsExtended_8hpp.html" target="_top" xlink:title="Extension des actions du robot pour la carte OPOS6UL.">
<polygon fill="white" stroke="black" points="1368.5,-67.5 1368.5,-97.5 1508.5,-97.5 1508.5,-67.5 1368.5,-67.5"/>
<text text-anchor="start" x="1376.5" y="-85.5" font-family="Helvetica,sans-Serif" font-size="10.00">src/bot&#45;opos6ul/OPOS6UL</text>
<text text-anchor="middle" x="1438.5" y="-74.5" font-family="Helvetica,sans-Serif" font-size="10.00">_ActionsExtended.hpp</text>
</a>
</g>
</g>
<!-- Node1&#45;&gt;Node3 -->
<g id="edge2" class="edge">
<title>Node1&#45;&gt;Node3</title>
<path fill="none" stroke="midnightblue" d="M1438.5,-124.11C1438.5,-115.15 1438.5,-105.32 1438.5,-97.58"/>
<polygon fill="midnightblue" stroke="midnightblue" points="1435,-124.4 1438.5,-134.4 1442,-124.4 1435,-124.4"/>
</g>
<!-- Node22 -->
<g id="node22" class="node">
<title>Node22</title>
<g id="a_node22"><a xlink:href="ServoObjectsSystem_8cpp.html" target="_top" xlink:title=" ">
<polygon fill="white" stroke="black" points="1527,-67.5 1527,-97.5 1704,-97.5 1704,-67.5 1527,-67.5"/>
<text text-anchor="start" x="1535" y="-85.5" font-family="Helvetica,sans-Serif" font-size="10.00">src/common/action/ServoObjects</text>
<text text-anchor="middle" x="1615.5" y="-74.5" font-family="Helvetica,sans-Serif" font-size="10.00">System.cpp</text>
</a>
</g>
</g>
<!-- Node1&#45;&gt;Node22 -->
<g id="edge22" class="edge">
<title>Node1&#45;&gt;Node22</title>
<path fill="none" stroke="midnightblue" d="M1486.65,-130.82C1515.1,-120.37 1550.63,-107.32 1577.17,-97.58"/>
<polygon fill="midnightblue" stroke="midnightblue" points="1485.09,-127.66 1476.91,-134.4 1487.5,-134.23 1485.09,-127.66"/>
</g>
<!-- Node3&#45;&gt;Node2 -->
<g id="edge15" class="edge">
<title>Node3&#45;&gt;Node2</title>
<path fill="none" stroke="midnightblue" d="M1358.35,-79.62C1116.97,-73.74 399.24,-54.7 166.5,-31 163.42,-30.69 160.28,-30.33 157.12,-29.95"/>
<polygon fill="midnightblue" stroke="midnightblue" points="1358.37,-83.12 1368.45,-79.86 1358.54,-76.12 1358.37,-83.12"/>
</g>
<!-- Node4 -->
<g id="node4" class="node">
<title>Node4</title>
<g id="a_node4"><a xlink:href="O__ActionManagerTimerTest_8cpp.html" target="_top" xlink:title="Implémentation de la classe O_ActionManagerTimerTest.">
<polygon fill="white" stroke="black" points="175.5,-0.5 175.5,-30.5 313.5,-30.5 313.5,-0.5 175.5,-0.5"/>
<text text-anchor="start" x="183.5" y="-18.5" font-family="Helvetica,sans-Serif" font-size="10.00">src/bot&#45;opos6ul/O_Action</text>
<text text-anchor="middle" x="244.5" y="-7.5" font-family="Helvetica,sans-Serif" font-size="10.00">ManagerTimerTest.cpp</text>
</a>
</g>
</g>
<!-- Node3&#45;&gt;Node4 -->
<g id="edge3" class="edge">
<title>Node3&#45;&gt;Node4</title>
<path fill="none" stroke="midnightblue" d="M1358.25,-81.67C1174.38,-81.24 708.74,-75.42 322.5,-31 319.63,-30.67 316.7,-30.3 313.75,-29.89"/>
<polygon fill="midnightblue" stroke="midnightblue" points="1358.36,-85.17 1368.37,-81.69 1358.38,-78.17 1358.36,-85.17"/>
</g>
<!-- Node5 -->
<g id="node5" class="node">
<title>Node5</title>
<g id="a_node5"><a xlink:href="O__Asserv__CalageTest_8cpp.html" target="_top" xlink:title="Implémentation de la classe O_Asserv_CalageTest.">
<polygon fill="white" stroke="black" points="331.5,-0.5 331.5,-30.5 471.5,-30.5 471.5,-0.5 331.5,-0.5"/>
<text text-anchor="start" x="339.5" y="-18.5" font-family="Helvetica,sans-Serif" font-size="10.00">src/bot&#45;opos6ul/O_Asserv</text>
<text text-anchor="middle" x="401.5" y="-7.5" font-family="Helvetica,sans-Serif" font-size="10.00">_CalageTest.cpp</text>
</a>
</g>
</g>
<!-- Node3&#45;&gt;Node5 -->
<g id="edge4" class="edge">
<title>Node3&#45;&gt;Node5</title>
<path fill="none" stroke="midnightblue" d="M1358.16,-80.76C1193.14,-78.46 804.33,-69.09 480.5,-31 477.59,-30.66 474.63,-30.27 471.64,-29.86"/>
<polygon fill="midnightblue" stroke="midnightblue" points="1358.18,-84.26 1368.22,-80.89 1358.27,-77.26 1358.18,-84.26"/>
</g>
<!-- Node6 -->
<g id="node6" class="node">
<title>Node6</title>
<g id="a_node6"><a xlink:href="O__Asserv__SquareTest_8cpp.html" target="_top" xlink:title="Implémentation de la classe O_Asserv_SquareTest.">
<polygon fill="white" stroke="black" points="489.5,-0.5 489.5,-30.5 629.5,-30.5 629.5,-0.5 489.5,-0.5"/>
<text text-anchor="start" x="497.5" y="-18.5" font-family="Helvetica,sans-Serif" font-size="10.00">src/bot&#45;opos6ul/O_Asserv</text>
<text text-anchor="middle" x="559.5" y="-7.5" font-family="Helvetica,sans-Serif" font-size="10.00">_SquareTest.cpp</text>
</a>
</g>
</g>
<!-- Node3&#45;&gt;Node6 -->
<g id="edge5" class="edge">
<title>Node3&#45;&gt;Node6</title>
<path fill="none" stroke="midnightblue" d="M1358.32,-79.58C1213.9,-75.42 900.69,-63.22 638.5,-31 635.59,-30.64 632.63,-30.25 629.64,-29.82"/>
<polygon fill="midnightblue" stroke="midnightblue" points="1358.32,-83.08 1368.42,-79.87 1358.52,-76.08 1358.32,-83.08"/>
</g>
<!-- Node7 -->
<g id="node7" class="node">
<title>Node7</title>
<g id="a_node7"><a xlink:href="O__AsservLineRotateTest_8cpp.html" target="_top" xlink:title="Implémentation de la classe O_AsservLineRotateTest.">
<polygon fill="white" stroke="black" points="647.5,-0.5 647.5,-30.5 787.5,-30.5 787.5,-0.5 647.5,-0.5"/>
<text text-anchor="start" x="655.5" y="-18.5" font-family="Helvetica,sans-Serif" font-size="10.00">src/bot&#45;opos6ul/O_Asserv</text>
<text text-anchor="middle" x="717.5" y="-7.5" font-family="Helvetica,sans-Serif" font-size="10.00">LineRotateTest.cpp</text>
</a>
</g>
</g>
<!-- Node3&#45;&gt;Node7 -->
<g id="edge6" class="edge">
<title>Node3&#45;&gt;Node7</title>
<path fill="none" stroke="midnightblue" d="M1358.08,-77.84C1236.21,-71.69 997.67,-57.3 796.5,-31 793.6,-30.62 790.64,-30.21 787.65,-29.76"/>
<polygon fill="midnightblue" stroke="midnightblue" points="1358.27,-81.35 1368.43,-78.36 1358.62,-74.36 1358.27,-81.35"/>
</g>
<!-- Node8 -->
<g id="node8" class="node">
<title>Node8</title>
<g id="a_node8"><a xlink:href="O__AsservTest_8cpp.html" target="_top" xlink:title="Implémentation de la classe O_AsservTest.">
<polygon fill="white" stroke="black" points="805.5,-0.5 805.5,-30.5 945.5,-30.5 945.5,-0.5 805.5,-0.5"/>
<text text-anchor="start" x="813.5" y="-18.5" font-family="Helvetica,sans-Serif" font-size="10.00">src/bot&#45;opos6ul/O_Asserv</text>
<text text-anchor="middle" x="875.5" y="-7.5" font-family="Helvetica,sans-Serif" font-size="10.00">Test.cpp</text>
</a>
</g>
</g>
<!-- Node3&#45;&gt;Node8 -->
<g id="edge7" class="edge">
<title>Node3&#45;&gt;Node8</title>
<path fill="none" stroke="midnightblue" d="M1357.92,-75.02C1261.66,-66.83 1095.9,-51.32 954.5,-31 951.6,-30.58 948.65,-30.14 945.66,-29.67"/>
<polygon fill="midnightblue" stroke="midnightblue" points="1357.9,-78.53 1368.16,-75.88 1358.49,-71.55 1357.9,-78.53"/>
</g>
<!-- Node9 -->
<g id="node9" class="node">
<title>Node9</title>
<g id="a_node9"><a xlink:href="O__AsservXYRotateTest_8cpp.html" target="_top" xlink:title="Implémentation de la classe O_AsservXYRotateTest.">
<polygon fill="white" stroke="black" points="963.5,-0.5 963.5,-30.5 1103.5,-30.5 1103.5,-0.5 963.5,-0.5"/>
<text text-anchor="start" x="971.5" y="-18.5" font-family="Helvetica,sans-Serif" font-size="10.00">src/bot&#45;opos6ul/O_Asserv</text>
<text text-anchor="middle" x="1033.5" y="-7.5" font-family="Helvetica,sans-Serif" font-size="10.00">XYRotateTest.cpp</text>
</a>
</g>
</g>
<!-- Node3&#45;&gt;Node9 -->
<g id="edge8" class="edge">
<title>Node3&#45;&gt;Node9</title>
<path fill="none" stroke="midnightblue" d="M1358.53,-69.75C1292.47,-59.89 1196.29,-45.18 1112.5,-31 1109.61,-30.51 1106.67,-30.01 1103.69,-29.49"/>
<polygon fill="midnightblue" stroke="midnightblue" points="1358.05,-73.21 1368.46,-71.23 1359.08,-66.29 1358.05,-73.21"/>
</g>
<!-- Node10 -->
<g id="node10" class="node">
<title>Node10</title>
<g id="a_node10"><a xlink:href="O__ButtonBarTest_8cpp.html" target="_top" xlink:title="Implémentation de la classe O_ButtonBarTest.">
<polygon fill="white" stroke="black" points="1121.5,-0.5 1121.5,-30.5 1261.5,-30.5 1261.5,-0.5 1121.5,-0.5"/>
<text text-anchor="start" x="1129.5" y="-18.5" font-family="Helvetica,sans-Serif" font-size="10.00">src/bot&#45;opos6ul/O_Button</text>
<text text-anchor="middle" x="1191.5" y="-7.5" font-family="Helvetica,sans-Serif" font-size="10.00">BarTest.cpp</text>
</a>
</g>
</g>
<!-- Node3&#45;&gt;Node10 -->
<g id="edge9" class="edge">
<title>Node3&#45;&gt;Node10</title>
<path fill="none" stroke="midnightblue" d="M1375.49,-64.92C1335.18,-54.31 1283.46,-40.7 1245.12,-30.61"/>
<polygon fill="midnightblue" stroke="midnightblue" points="1374.65,-68.32 1385.21,-67.48 1376.43,-61.55 1374.65,-68.32"/>
</g>
<!-- Node11 -->
<g id="node11" class="node">
<title>Node11</title>
<g id="a_node11"><a xlink:href="O__IAbyPathTest_8cpp.html" target="_top" xlink:title="Implementation de la classe O_IAByPathTest.">
<polygon fill="white" stroke="black" points="1279.5,-0.5 1279.5,-30.5 1429.5,-30.5 1429.5,-0.5 1279.5,-0.5"/>
<text text-anchor="start" x="1287.5" y="-18.5" font-family="Helvetica,sans-Serif" font-size="10.00">src/bot&#45;opos6ul/O_IAbyPath</text>
<text text-anchor="middle" x="1354.5" y="-7.5" font-family="Helvetica,sans-Serif" font-size="10.00">Test.cpp</text>
</a>
</g>
</g>
<!-- Node3&#45;&gt;Node11 -->
<g id="edge10" class="edge">
<title>Node3&#45;&gt;Node11</title>
<path fill="none" stroke="midnightblue" d="M1412.22,-61.17C1399.38,-51.23 1384.24,-39.51 1372.69,-30.58"/>
<polygon fill="midnightblue" stroke="midnightblue" points="1410.22,-64.04 1420.27,-67.4 1414.51,-58.51 1410.22,-64.04"/>
</g>
<!-- Node12 -->
<g id="node12" class="node">
<title>Node12</title>
<g id="a_node12"><a xlink:href="O__LcdBoardTest_8cpp.html" target="_top" xlink:title="Implémentation de la classe O_LcdBoardTest.">
<polygon fill="white" stroke="black" points="1447.5,-0.5 1447.5,-30.5 1599.5,-30.5 1599.5,-0.5 1447.5,-0.5"/>
<text text-anchor="start" x="1455.5" y="-18.5" font-family="Helvetica,sans-Serif" font-size="10.00">src/bot&#45;opos6ul/O_LcdBoard</text>
<text text-anchor="middle" x="1523.5" y="-7.5" font-family="Helvetica,sans-Serif" font-size="10.00">Test.cpp</text>
</a>
</g>
</g>
<!-- Node3&#45;&gt;Node12 -->
<g id="edge11" class="edge">
<title>Node3&#45;&gt;Node12</title>
<path fill="none" stroke="midnightblue" d="M1465.09,-61.17C1478.09,-51.23 1493.4,-39.51 1505.09,-30.58"/>
<polygon fill="midnightblue" stroke="midnightblue" points="1462.76,-58.54 1456.94,-67.4 1467.01,-64.1 1462.76,-58.54"/>
</g>
<!-- Node13 -->
<g id="node13" class="node">
<title>Node13</title>
<g id="a_node13"><a xlink:href="O__LedBarTest_8cpp.html" target="_top" xlink:title="Implementation de la classe O_LedBarTest.">
<polygon fill="white" stroke="black" points="1618,-0.5 1618,-30.5 1759,-30.5 1759,-0.5 1618,-0.5"/>
<text text-anchor="start" x="1626" y="-18.5" font-family="Helvetica,sans-Serif" font-size="10.00">src/bot&#45;opos6ul/O_LedBar</text>
<text text-anchor="middle" x="1688.5" y="-7.5" font-family="Helvetica,sans-Serif" font-size="10.00">Test.cpp</text>
</a>
</g>
</g>
<!-- Node3&#45;&gt;Node13 -->
<g id="edge12" class="edge">
<title>Node3&#45;&gt;Node13</title>
<path fill="none" stroke="midnightblue" d="M1502.28,-64.92C1543.08,-54.31 1595.43,-40.7 1634.23,-30.61"/>
<polygon fill="midnightblue" stroke="midnightblue" points="1501.24,-61.57 1492.44,-67.48 1503,-68.35 1501.24,-61.57"/>
</g>
<!-- Node14 -->
<g id="node14" class="node">
<title>Node14</title>
<g id="a_node14"><a xlink:href="O__SensorsTest_8cpp.html" target="_top" xlink:title="Implémentation de la classe O_SensorsTest.">
<polygon fill="white" stroke="black" points="1777.5,-0.5 1777.5,-30.5 1923.5,-30.5 1923.5,-0.5 1777.5,-0.5"/>
<text text-anchor="start" x="1785.5" y="-18.5" font-family="Helvetica,sans-Serif" font-size="10.00">src/bot&#45;opos6ul/O_Sensors</text>
<text text-anchor="middle" x="1850.5" y="-7.5" font-family="Helvetica,sans-Serif" font-size="10.00">Test.cpp</text>
</a>
</g>
</g>
<!-- Node3&#45;&gt;Node14 -->
<g id="edge13" class="edge">
<title>Node3&#45;&gt;Node14</title>
<path fill="none" stroke="midnightblue" d="M1518.74,-67C1630.97,-48.96 1660.8,-48.27 1768.5,-31 1771.35,-30.54 1774.26,-30.07 1777.2,-29.58"/>
<polygon fill="midnightblue" stroke="midnightblue" points="1518.03,-63.57 1508.72,-68.62 1519.15,-70.48 1518.03,-63.57"/>
</g>
<!-- Node15 -->
<g id="node15" class="node">
<title>Node15</title>
<g id="a_node15"><a xlink:href="O__ServoObjectsTest_8cpp.html" target="_top" xlink:title="Implémentation de la classe O_ServoObjectsTest.">
<polygon fill="white" stroke="black" points="1941.5,-0.5 1941.5,-30.5 2113.5,-30.5 2113.5,-0.5 1941.5,-0.5"/>
<text text-anchor="start" x="1949.5" y="-18.5" font-family="Helvetica,sans-Serif" font-size="10.00">src/bot&#45;opos6ul/O_ServoObjects</text>
<text text-anchor="middle" x="2027.5" y="-7.5" font-family="Helvetica,sans-Serif" font-size="10.00">Test.cpp</text>
</a>
</g>
</g>
<!-- Node3&#45;&gt;Node15 -->
<g id="edge14" class="edge">
<title>Node3&#45;&gt;Node15</title>
<path fill="none" stroke="midnightblue" d="M1518.72,-67.07C1703.28,-42.86 1752.34,-52.56 1932.5,-31 1935.4,-30.65 1938.35,-30.29 1941.32,-29.9"/>
<polygon fill="midnightblue" stroke="midnightblue" points="1518.13,-63.61 1508.68,-68.4 1519.06,-70.55 1518.13,-63.61"/>
</g>
<!-- Node16 -->
<g id="node16" class="node">
<title>Node16</title>
<g id="a_node16"><a xlink:href="O__State__DecisionMakerIA_8cpp.html" target="_top" xlink:title="Implémentation de la classe O_State_DecisionMakerIA.">
<polygon fill="white" stroke="black" points="2132,-0.5 2132,-30.5 2265,-30.5 2265,-0.5 2132,-0.5"/>
<text text-anchor="start" x="2140" y="-18.5" font-family="Helvetica,sans-Serif" font-size="10.00">src/bot&#45;opos6ul/O_State</text>
<text text-anchor="middle" x="2198.5" y="-7.5" font-family="Helvetica,sans-Serif" font-size="10.00">_DecisionMakerIA.cpp</text>
</a>
</g>
</g>
<!-- Node3&#45;&gt;Node16 -->
<g id="edge16" class="edge">
<title>Node3&#45;&gt;Node16</title>
<path fill="none" stroke="midnightblue" d="M1518.71,-67.1C1787.25,-35.67 1858.9,-63.86 2122.5,-31 2125.57,-30.62 2128.69,-30.19 2131.85,-29.72"/>
<polygon fill="midnightblue" stroke="midnightblue" points="1518.19,-63.64 1508.67,-68.29 1519.01,-70.59 1518.19,-63.64"/>
</g>
<!-- Node17 -->
<g id="node17" class="node">
<title>Node17</title>
<g id="a_node17"><a xlink:href="O__State__Init_8cpp.html" target="_top" xlink:title="Implémentation de la classe O_State_Init.">
<polygon fill="white" stroke="black" points="2283,-0.5 2283,-30.5 2416,-30.5 2416,-0.5 2283,-0.5"/>
<text text-anchor="start" x="2291" y="-18.5" font-family="Helvetica,sans-Serif" font-size="10.00">src/bot&#45;opos6ul/O_State</text>
<text text-anchor="middle" x="2349.5" y="-7.5" font-family="Helvetica,sans-Serif" font-size="10.00">_Init.cpp</text>
</a>
</g>
</g>
<!-- Node3&#45;&gt;Node17 -->
<g id="edge17" class="edge">
<title>Node3&#45;&gt;Node17</title>
<path fill="none" stroke="midnightblue" d="M1518.67,-67.11C1854.46,-29.74 1943.77,-70.64 2274.5,-31 2277.27,-30.67 2280.08,-30.29 2282.92,-29.89"/>
<polygon fill="midnightblue" stroke="midnightblue" points="1518.21,-63.64 1508.66,-68.24 1518.99,-70.6 1518.21,-63.64"/>
</g>
<!-- Node18 -->
<g id="node18" class="node">
<title>Node18</title>
<g id="a_node18"><a xlink:href="O__State__WaitEndOfMatch_8cpp.html" target="_top" xlink:title="Implémentation de la classe O_State_WaitEndOfMatch.">
<polygon fill="white" stroke="black" points="2434,-0.5 2434,-30.5 2567,-30.5 2567,-0.5 2434,-0.5"/>
<text text-anchor="start" x="2442" y="-18.5" font-family="Helvetica,sans-Serif" font-size="10.00">src/bot&#45;opos6ul/O_State</text>
<text text-anchor="middle" x="2500.5" y="-7.5" font-family="Helvetica,sans-Serif" font-size="10.00">_WaitEndOfMatch.cpp</text>
</a>
</g>
</g>
<!-- Node3&#45;&gt;Node18 -->
<g id="edge18" class="edge">
<title>Node3&#45;&gt;Node18</title>
<path fill="none" stroke="midnightblue" d="M1518.83,-67.1C1921.28,-23.82 2028.08,-77.04 2425.5,-31 2428.27,-30.68 2431.08,-30.31 2433.92,-29.91"/>
<polygon fill="midnightblue" stroke="midnightblue" points="1518.22,-63.65 1508.66,-68.21 1518.98,-70.61 1518.22,-63.65"/>
</g>
<!-- Node19 -->
<g id="node19" class="node">
<title>Node19</title>
<g id="a_node19"><a xlink:href="O__TiretteTest_8cpp.html" target="_top" xlink:title="Implémentation de la classe O_TiretteTest.">
<polygon fill="white" stroke="black" points="2585.5,-0.5 2585.5,-30.5 2725.5,-30.5 2725.5,-0.5 2585.5,-0.5"/>
<text text-anchor="start" x="2593.5" y="-18.5" font-family="Helvetica,sans-Serif" font-size="10.00">src/bot&#45;opos6ul/O_Tirette</text>
<text text-anchor="middle" x="2655.5" y="-7.5" font-family="Helvetica,sans-Serif" font-size="10.00">Test.cpp</text>
</a>
</g>
</g>
<!-- Node3&#45;&gt;Node19 -->
<g id="edge19" class="edge">
<title>Node3&#45;&gt;Node19</title>
<path fill="none" stroke="midnightblue" d="M1518.75,-67.12C1988.07,-17.82 2112.05,-81.25 2576.5,-31 2579.41,-30.69 2582.38,-30.32 2585.37,-29.93"/>
<polygon fill="midnightblue" stroke="midnightblue" points="1518.23,-63.65 1508.66,-68.19 1518.97,-70.61 1518.23,-63.65"/>
</g>
<!-- Node20 -->
<g id="node20" class="node">
<title>Node20</title>
<g id="a_node20"><a xlink:href="OPOS6UL__ActionsExtended_8cpp.html" target="_top" xlink:title="Implémentation de la classe OPOS6UL_ActionsExtended.">
<polygon fill="white" stroke="black" points="2743.5,-0.5 2743.5,-30.5 2883.5,-30.5 2883.5,-0.5 2743.5,-0.5"/>
<text text-anchor="start" x="2751.5" y="-18.5" font-family="Helvetica,sans-Serif" font-size="10.00">src/bot&#45;opos6ul/OPOS6UL</text>
<text text-anchor="middle" x="2813.5" y="-7.5" font-family="Helvetica,sans-Serif" font-size="10.00">_ActionsExtended.cpp</text>
</a>
</g>
</g>
<!-- Node3&#45;&gt;Node20 -->
<g id="edge20" class="edge">
<title>Node3&#45;&gt;Node20</title>
<path fill="none" stroke="midnightblue" d="M1518.64,-67.13C2057.97,-11.57 2200.11,-87.62 2734.5,-31 2737.41,-30.69 2740.38,-30.34 2743.37,-29.94"/>
<polygon fill="midnightblue" stroke="midnightblue" points="1518.24,-63.65 1508.65,-68.17 1518.96,-70.62 1518.24,-63.65"/>
</g>
<!-- Node21 -->
<g id="node21" class="node">
<title>Node21</title>
<g id="a_node21"><a xlink:href="OPOS6UL__RobotExtended_8cpp.html" target="_top" xlink:title="Implémentation de la classe OPOS6UL_RobotExtended.">
<polygon fill="white" stroke="black" points="2901.5,-0.5 2901.5,-30.5 3041.5,-30.5 3041.5,-0.5 2901.5,-0.5"/>
<text text-anchor="start" x="2909.5" y="-18.5" font-family="Helvetica,sans-Serif" font-size="10.00">src/bot&#45;opos6ul/OPOS6UL</text>
<text text-anchor="middle" x="2971.5" y="-7.5" font-family="Helvetica,sans-Serif" font-size="10.00">_RobotExtended.cpp</text>
</a>
</g>
</g>
<!-- Node3&#45;&gt;Node21 -->
<g id="edge21" class="edge">
<title>Node3&#45;&gt;Node21</title>
<path fill="none" stroke="midnightblue" d="M1519.01,-67.1C2127.95,-5.35 2288.33,-93.98 2892.5,-31 2895.41,-30.7 2898.38,-30.35 2901.37,-29.96"/>
<polygon fill="midnightblue" stroke="midnightblue" points="1518.24,-63.66 1508.65,-68.16 1518.96,-70.62 1518.24,-63.66"/>
</g>
</g>
</svg>
        <g id="navigator" transform="translate(0 0)" fill="#404254">
                <rect fill="#f2f5e9" fill-opacity="0.5" stroke="#606060" stroke-width=".5" x="0" y="0" width="60" height="60"/>
                <use id="zoomplus" xlink:href="#zoomPlus" x="17" y="9" onmousedown="handleZoom(evt,'in')"/>
                <use id="zoomminus" xlink:href="#zoomMin" x="42" y="9" onmousedown="handleZoom(evt,'out')"/>
                <use id="reset" xlink:href="#resetDef" x="30" y="36" onmousedown="handleReset()"/>
                <g id="arrowUp" xlink:href="#dirArrow" transform="translate(30 24)" onmousedown="handlePan(0,-1)">
                  <use xlink:href="#rim" fill="#404040">
                        <set attributeName="fill" to="#808080" begin="arrowUp.mouseover" end="arrowUp.mouseout"/>
                  </use>
                  <path fill="none" stroke="white" stroke-width="1.5" d="M0,-3.0v7 M-2.5,-0.5L0,-3.0L2.5,-0.5"/>
                </g>
                <g id="arrowRight" xlink:href="#dirArrow" transform="rotate(90) translate(36 -43)" onmousedown="handlePan(1,0)">
                  <use xlink:href="#rim" fill="#404040">
                        <set attributeName="fill" to="#808080" begin="arrowRight.mouseover" end="arrowRight.mouseout"/>
                  </use>
                  <path fill="none" stroke="white" stroke-width="1.5" d="M0,-3.0v7 M-2.5,-0.5L0,-3.0L2.5,-0.5"/>
                </g>
                <g id="arrowDown" xlink:href="#dirArrow" transform="rotate(180) translate(-30 -48)" onmousedown="handlePan(0,1)">
                  <use xlink:href="#rim" fill="#404040">
                        <set attributeName="fill" to="#808080" begin="arrowDown.mouseover" end="arrowDown.mouseout"/>
                  </use>
                  <path fill="none" stroke="white" stroke-width="1.5" d="M0,-3.0v7 M-2.5,-0.5L0,-3.0L2.5,-0.5"/>
                </g>
                <g id="arrowLeft" xlink:href="#dirArrow" transform="rotate(270) translate(-36 17)" onmousedown="handlePan(-1,0)">
                  <use xlink:href="#rim" fill="#404040">
                        <set attributeName="fill" to="#808080" begin="arrowLeft.mouseover" end="arrowLeft.mouseout"/>
                  </use>
                  <path fill="none" stroke="white" stroke-width="1.5" d="M0,-3.0v7 M-2.5,-0.5L0,-3.0L2.5,-0.5"/>
                </g>
        </g>
        <svg viewBox="0 0 15 15" width="100%" height="30px" preserveAspectRatio="xMaxYMin meet">
         <g id="arrow_out" transform="scale(0.3 0.3)">
          <a xlink:href="ServoObjectsSystem_8hpp__dep__incl_org.svg" target="_base">
           <rect id="button" ry="5" rx="5" y="6" x="6" height="38" width="38"
                fill="#f2f5e9" fill-opacity="0.5" stroke="#606060" stroke-width="1.0"/>
           <path id="arrow"
             d="M 11.500037,31.436501 C 11.940474,20.09759 22.043105,11.32322 32.158766,21.979434 L 37.068811,17.246167 C 37.068811,17.246167 37.088388,32 37.088388,32 L 22.160133,31.978069 C 22.160133,31.978069 26.997745,27.140456 26.997745,27.140456 C 18.528582,18.264221 13.291696,25.230495 11.500037,31.436501 z"
             style="fill:#404040;"/>
          </a>
         </g>
        </svg>
</svg>
