<?xml version="1.0" encoding="UTF-8" standalone="no"?>
<!DOCTYPE svg PUBLIC "-//W3C//DTD SVG 1.1//EN"
 "http://www.w3.org/Graphics/SVG/1.1/DTD/svg11.dtd">
<!-- Generated by graphviz version 2.43.0 (0)
 -->
<!-- Title: src/common/action/ServoObjectsSystem.hpp Pages: 1 -->
<!--zoomable 263 -->
<svg id="main" version="1.1" xmlns="http://www.w3.org/2000/svg" xmlns:xlink="http://www.w3.org/1999/xlink" xml:space="preserve" onload="init(evt)">
<style type="text/css"><![CDATA[
.edge:hover path { stroke: red; }
.edge:hover polygon { stroke: red; fill: red; }
]]></style>
<script type="text/javascript"><![CDATA[
var edges = document.getElementsByTagName('g');
if (edges && edges.length) {
  for (var i=0;i<edges.length;i++) {
    if (edges[i].id.substr(0,4)=='edge') {
      edges[i].setAttribute('class','edge');
    }
  }
}
]]></script>
        <defs>
                <circle id="rim" cx="0" cy="0" r="7"/>
                <circle id="rim2" cx="0" cy="0" r="3.5"/>
                <g id="zoomPlus">
                        <use xlink:href="#rim" fill="#404040">
                                <set attributeName="fill" to="#808080" begin="zoomplus.mouseover" end="zoomplus.mouseout"/>
                        </use>
                        <path d="M-4,0h8M0,-4v8" fill="none" stroke="white" stroke-width="1.5" pointer-events="none"/>
                </g>
                <g id="zoomMin">
                        <use xlink:href="#rim" fill="#404040">
                                <set attributeName="fill" to="#808080" begin="zoomminus.mouseover" end="zoomminus.mouseout"/>
                        </use>
                        <path d="M-4,0h8" fill="none" stroke="white" stroke-width="1.5" pointer-events="none"/>
                </g>
                <g id="dirArrow">
                        <path fill="none" stroke="white" stroke-width="1.5" d="M0,-3.0v7 M-2.5,-0.5L0,-3.0L2.5,-0.5"/>
                </g>
               <g id="resetDef">
                       <use xlink:href="#rim2" fill="#404040">
                               <set attributeName="fill" to="#808080" begin="reset.mouseover" end="reset.mouseout"/>
                       </use>
               </g>
        </defs>

<script type="text/javascript">
var viewWidth = 1265;
var viewHeight = 263;
var sectionId = 'dynsection-0';
</script>
<script xlink:href="svgpan.js"/>
<svg id="graph" class="graph">
<g id="viewport">
<title>src/common/action/ServoObjectsSystem.hpp</title>
<polygon fill="white" stroke="transparent" points="-4,4 -4,-259 1260.5,-259 1260.5,4 -4,4"/>
<!-- Node1 -->
<g id="node1" class="node">
<title>Node1</title>
<g id="a_node1"><a xlink:title="Gestion du système de servomoteurs et timers de déplacement associés.">
<polygon fill="#bfbfbf" stroke="black" points="602.5,-224.5 602.5,-254.5 779.5,-254.5 779.5,-224.5 602.5,-224.5"/>
<text text-anchor="start" x="610.5" y="-242.5" font-family="Helvetica,sans-Serif" font-size="10.00">src/common/action/ServoObjects</text>
<text text-anchor="middle" x="691" y="-231.5" font-family="Helvetica,sans-Serif" font-size="10.00">System.hpp</text>
</a>
</g>
</g>
<!-- Node2 -->
<g id="node2" class="node">
<title>Node2</title>
<g id="a_node2"><a xlink:title=" ">
<polygon fill="white" stroke="#bfbfbf" points="317,-168.5 317,-187.5 389,-187.5 389,-168.5 317,-168.5"/>
<text text-anchor="middle" x="353" y="-175.5" font-family="Helvetica,sans-Serif" font-size="10.00">sys/types.h</text>
</a>
</g>
</g>
<!-- Node1&#45;&gt;Node2 -->
<g id="edge1" class="edge">
<title>Node1&#45;&gt;Node2</title>
<path fill="none" stroke="midnightblue" d="M605.95,-224.46C549.93,-215.06 474.7,-202.18 399.46,-188.24"/>
<polygon fill="midnightblue" stroke="midnightblue" points="399.8,-184.74 389.33,-186.35 398.52,-191.62 399.8,-184.74"/>
</g>
<!-- Node3 -->
<g id="node3" class="node">
<title>Node3</title>
<g id="a_node3"><a xlink:title=" ">
<polygon fill="white" stroke="#bfbfbf" points="510,-0.5 510,-19.5 554,-19.5 554,-0.5 510,-0.5"/>
<text text-anchor="middle" x="532" y="-7.5" font-family="Helvetica,sans-Serif" font-size="10.00">string</text>
</a>
</g>
</g>
<!-- Node1&#45;&gt;Node3 -->
<g id="edge2" class="edge">
<title>Node1&#45;&gt;Node3</title>
<path fill="none" stroke="midnightblue" d="M681.05,-224.27C653.18,-184.39 574.4,-71.66 544.09,-28.3"/>
<polygon fill="midnightblue" stroke="midnightblue" points="546.84,-26.12 538.24,-19.93 541.1,-30.13 546.84,-26.12"/>
</g>
<!-- Node4 -->
<g id="node4" class="node">
<title>Node4</title>
<g id="a_node4"><a xlink:href="LoggerFactory_8hpp.html" target="_top" xlink:title="Définition de la classe LoggerFactory.">
<polygon fill="white" stroke="black" points="407,-168.5 407,-187.5 529,-187.5 529,-168.5 407,-168.5"/>
<text text-anchor="middle" x="468" y="-175.5" font-family="Helvetica,sans-Serif" font-size="10.00">log/LoggerFactory.hpp</text>
</a>
</g>
</g>
<!-- Node1&#45;&gt;Node4 -->
<g id="edge3" class="edge">
<title>Node1&#45;&gt;Node4</title>
<path fill="none" stroke="midnightblue" d="M638.43,-224.47C599.12,-213.99 546.09,-199.84 509.68,-190.12"/>
<polygon fill="midnightblue" stroke="midnightblue" points="510.45,-186.7 499.88,-187.51 508.64,-193.47 510.45,-186.7"/>
</g>
<!-- Node15 -->
<g id="node15" class="node">
<title>Node15</title>
<g id="a_node15"><a xlink:href="AServoDriver_8hpp.html" target="_top" xlink:title="Interface abstraite du driver de servomoteurs.">
<polygon fill="white" stroke="black" points="934,-168.5 934,-187.5 1082,-187.5 1082,-168.5 934,-168.5"/>
<text text-anchor="middle" x="1008" y="-175.5" font-family="Helvetica,sans-Serif" font-size="10.00">interface/AServoDriver.hpp</text>
</a>
</g>
</g>
<!-- Node1&#45;&gt;Node15 -->
<g id="edge20" class="edge">
<title>Node1&#45;&gt;Node15</title>
<path fill="none" stroke="midnightblue" d="M765.72,-224.47C823.04,-213.72 900.87,-199.11 952.68,-189.38"/>
<polygon fill="midnightblue" stroke="midnightblue" points="953.5,-192.79 962.68,-187.51 952.21,-185.91 953.5,-192.79"/>
</g>
<!-- Node16 -->
<g id="node16" class="node">
<title>Node16</title>
<g id="a_node16"><a xlink:href="Chronometer_8hpp.html" target="_top" xlink:title="Définition de la classe Chronometer.">
<polygon fill="white" stroke="black" points="628.5,-112.5 628.5,-131.5 753.5,-131.5 753.5,-112.5 628.5,-112.5"/>
<text text-anchor="middle" x="691" y="-119.5" font-family="Helvetica,sans-Serif" font-size="10.00">utils/Chronometer.hpp</text>
</a>
</g>
</g>
<!-- Node1&#45;&gt;Node16 -->
<g id="edge21" class="edge">
<title>Node1&#45;&gt;Node16</title>
<path fill="none" stroke="midnightblue" d="M691,-224.34C691,-203.62 691,-165.02 691,-141.9"/>
<polygon fill="midnightblue" stroke="midnightblue" points="694.5,-141.67 691,-131.67 687.5,-141.67 694.5,-141.67"/>
</g>
<!-- Node18 -->
<g id="node18" class="node">
<title>Node18</title>
<g id="a_node18"><a xlink:href="AActionsElement_8hpp.html" target="_top" xlink:title="Définition de la classe AActionsElement.">
<polygon fill="white" stroke="black" points="1100.5,-168.5 1100.5,-187.5 1221.5,-187.5 1221.5,-168.5 1100.5,-168.5"/>
<text text-anchor="middle" x="1161" y="-175.5" font-family="Helvetica,sans-Serif" font-size="10.00">AActionsElement.hpp</text>
</a>
</g>
</g>
<!-- Node1&#45;&gt;Node18 -->
<g id="edge24" class="edge">
<title>Node1&#45;&gt;Node18</title>
<path fill="none" stroke="midnightblue" d="M779.58,-227.38C858.27,-217.48 976.71,-202.55 1090.05,-188.12"/>
<polygon fill="midnightblue" stroke="midnightblue" points="1090.82,-191.55 1100.29,-186.81 1089.93,-184.61 1090.82,-191.55"/>
</g>
<!-- Node19 -->
<g id="node19" class="node">
<title>Node19</title>
<g id="a_node19"><a xlink:href="ITimerPosixListener_8hpp.html" target="_top" xlink:title="Définition de l&#39;interface ITimerPosixListener.">
<polygon fill="white" stroke="black" points="752.5,-168.5 752.5,-187.5 915.5,-187.5 915.5,-168.5 752.5,-168.5"/>
<text text-anchor="middle" x="834" y="-175.5" font-family="Helvetica,sans-Serif" font-size="10.00">timer/ITimerPosixListener.hpp</text>
</a>
</g>
</g>
<!-- Node1&#45;&gt;Node19 -->
<g id="edge25" class="edge">
<title>Node1&#45;&gt;Node19</title>
<path fill="none" stroke="midnightblue" d="M724.89,-224.4C748.88,-214.42 780.77,-201.15 803.88,-191.53"/>
<polygon fill="midnightblue" stroke="midnightblue" points="805.3,-194.73 813.19,-187.66 802.61,-188.27 805.3,-194.73"/>
</g>
<!-- Node4&#45;&gt;Node3 -->
<g id="edge5" class="edge">
<title>Node4&#45;&gt;Node3</title>
<path fill="none" stroke="midnightblue" d="M477.52,-168.43C494.6,-152.33 529.9,-115.61 543,-76 548.1,-60.57 544.16,-42.25 539.63,-29"/>
<polygon fill="midnightblue" stroke="midnightblue" points="542.88,-27.7 536.04,-19.61 536.35,-30.2 542.88,-27.7"/>
</g>
<!-- Node5 -->
<g id="node5" class="node">
<title>Node5</title>
<g id="a_node5"><a xlink:title=" ">
<polygon fill="white" stroke="#bfbfbf" points="317,-112.5 317,-131.5 355,-131.5 355,-112.5 317,-112.5"/>
<text text-anchor="middle" x="336" y="-119.5" font-family="Helvetica,sans-Serif" font-size="10.00">map</text>
</a>
</g>
</g>
<!-- Node4&#45;&gt;Node5 -->
<g id="edge4" class="edge">
<title>Node4&#45;&gt;Node5</title>
<path fill="none" stroke="midnightblue" d="M447.08,-168.44C424.75,-159.31 389.22,-144.77 364.38,-134.61"/>
<polygon fill="midnightblue" stroke="midnightblue" points="365.68,-131.36 355.1,-130.82 363.03,-137.84 365.68,-131.36"/>
</g>
<!-- Node6 -->
<g id="node6" class="node">
<title>Node6</title>
<g id="a_node6"><a xlink:href="Thread_8hpp.html" target="_top" xlink:title="Définition de la classe Thread.">
<polygon fill="white" stroke="black" points="133.5,-112.5 133.5,-131.5 248.5,-131.5 248.5,-112.5 133.5,-112.5"/>
<text text-anchor="middle" x="191" y="-119.5" font-family="Helvetica,sans-Serif" font-size="10.00">../thread/Thread.hpp</text>
</a>
</g>
</g>
<!-- Node4&#45;&gt;Node6 -->
<g id="edge6" class="edge">
<title>Node4&#45;&gt;Node6</title>
<path fill="none" stroke="midnightblue" d="M424.11,-168.44C375.48,-158.96 297.05,-143.67 244.78,-133.48"/>
<polygon fill="midnightblue" stroke="midnightblue" points="245.17,-129.99 234.69,-131.52 243.83,-136.87 245.17,-129.99"/>
</g>
<!-- Node12 -->
<g id="node12" class="node">
<title>Node12</title>
<g id="a_node12"><a xlink:href="Logger_8hpp.html" target="_top" xlink:title="Définition de la classe Logger.">
<polygon fill="white" stroke="black" points="411,-112.5 411,-131.5 481,-131.5 481,-112.5 411,-112.5"/>
<text text-anchor="middle" x="446" y="-119.5" font-family="Helvetica,sans-Serif" font-size="10.00">Logger.hpp</text>
</a>
</g>
</g>
<!-- Node4&#45;&gt;Node12 -->
<g id="edge14" class="edge">
<title>Node4&#45;&gt;Node12</title>
<path fill="none" stroke="midnightblue" d="M464.37,-168.08C461.39,-160.77 457.07,-150.18 453.38,-141.1"/>
<polygon fill="midnightblue" stroke="midnightblue" points="456.58,-139.69 449.57,-131.75 450.1,-142.33 456.58,-139.69"/>
</g>
<!-- Node6&#45;&gt;Node3 -->
<g id="edge8" class="edge">
<title>Node6&#45;&gt;Node3</title>
<path fill="none" stroke="midnightblue" d="M197.88,-112.13C209.57,-97.76 234.8,-69.63 263,-56 341.98,-17.84 447.5,-11.35 499.81,-10.67"/>
<polygon fill="midnightblue" stroke="midnightblue" points="499.86,-14.17 509.83,-10.6 499.81,-7.17 499.86,-14.17"/>
</g>
<!-- Node7 -->
<g id="node7" class="node">
<title>Node7</title>
<g id="a_node7"><a xlink:title=" ">
<polygon fill="white" stroke="#bfbfbf" points="190.5,-0.5 190.5,-19.5 253.5,-19.5 253.5,-0.5 190.5,-0.5"/>
<text text-anchor="middle" x="222" y="-7.5" font-family="Helvetica,sans-Serif" font-size="10.00">pthread.h</text>
</a>
</g>
</g>
<!-- Node6&#45;&gt;Node7 -->
<g id="edge7" class="edge">
<title>Node6&#45;&gt;Node7</title>
<path fill="none" stroke="midnightblue" d="M180.52,-112.17C167.03,-99.66 146.48,-76.08 157,-56 164.28,-42.11 178.01,-31.65 190.98,-24.33"/>
<polygon fill="midnightblue" stroke="midnightblue" points="192.93,-27.27 200.19,-19.55 189.7,-21.05 192.93,-27.27"/>
</g>
<!-- Node8 -->
<g id="node8" class="node">
<title>Node8</title>
<g id="a_node8"><a xlink:title=" ">
<polygon fill="white" stroke="#bfbfbf" points="0,-56.5 0,-75.5 48,-75.5 48,-56.5 0,-56.5"/>
<text text-anchor="middle" x="24" y="-63.5" font-family="Helvetica,sans-Serif" font-size="10.00">thread</text>
</a>
</g>
</g>
<!-- Node6&#45;&gt;Node8 -->
<g id="edge9" class="edge">
<title>Node6&#45;&gt;Node8</title>
<path fill="none" stroke="midnightblue" d="M164.54,-112.44C135.66,-103.1 89.34,-88.13 57.84,-77.94"/>
<polygon fill="midnightblue" stroke="midnightblue" points="58.76,-74.56 48.17,-74.82 56.61,-81.22 58.76,-74.56"/>
</g>
<!-- Node9 -->
<g id="node9" class="node">
<title>Node9</title>
<g id="a_node9"><a xlink:title=" ">
<polygon fill="white" stroke="#bfbfbf" points="66,-56.5 66,-75.5 110,-75.5 110,-56.5 66,-56.5"/>
<text text-anchor="middle" x="88" y="-63.5" font-family="Helvetica,sans-Serif" font-size="10.00">ctime</text>
</a>
</g>
</g>
<!-- Node6&#45;&gt;Node9 -->
<g id="edge10" class="edge">
<title>Node6&#45;&gt;Node9</title>
<path fill="none" stroke="midnightblue" d="M174.45,-112.32C158.01,-103.7 132.57,-90.36 113.53,-80.39"/>
<polygon fill="midnightblue" stroke="midnightblue" points="114.99,-77.2 104.51,-75.65 111.74,-83.4 114.99,-77.2"/>
</g>
<!-- Node10 -->
<g id="node10" class="node">
<title>Node10</title>
<g id="a_node10"><a xlink:href="Mutex_8hpp.html" target="_top" xlink:title="Définition de la classe Mutex.">
<polygon fill="white" stroke="black" points="272,-56.5 272,-75.5 340,-75.5 340,-56.5 272,-56.5"/>
<text text-anchor="middle" x="306" y="-63.5" font-family="Helvetica,sans-Serif" font-size="10.00">Mutex.hpp</text>
</a>
</g>
</g>
<!-- Node6&#45;&gt;Node10 -->
<g id="edge11" class="edge">
<title>Node6&#45;&gt;Node10</title>
<path fill="none" stroke="midnightblue" d="M209.22,-112.44C227.9,-103.68 257.16,-89.94 278.62,-79.86"/>
<polygon fill="midnightblue" stroke="midnightblue" points="280.3,-82.93 287.86,-75.52 277.32,-76.6 280.3,-82.93"/>
</g>
<!-- Node11 -->
<g id="node11" class="node">
<title>Node11</title>
<g id="a_node11"><a xlink:title=" ">
<polygon fill="white" stroke="#bfbfbf" points="166,-56.5 166,-75.5 216,-75.5 216,-56.5 166,-56.5"/>
<text text-anchor="middle" x="191" y="-63.5" font-family="Helvetica,sans-Serif" font-size="10.00">chrono</text>
</a>
</g>
</g>
<!-- Node6&#45;&gt;Node11 -->
<g id="edge13" class="edge">
<title>Node6&#45;&gt;Node11</title>
<path fill="none" stroke="midnightblue" d="M191,-112.08C191,-105.01 191,-94.86 191,-85.99"/>
<polygon fill="midnightblue" stroke="midnightblue" points="194.5,-85.75 191,-75.75 187.5,-85.75 194.5,-85.75"/>
</g>
<!-- Node10&#45;&gt;Node7 -->
<g id="edge12" class="edge">
<title>Node10&#45;&gt;Node7</title>
<path fill="none" stroke="midnightblue" d="M292.5,-56.32C279.4,-47.9 259.29,-34.97 243.89,-25.07"/>
<polygon fill="midnightblue" stroke="midnightblue" points="245.77,-22.12 235.46,-19.65 241.98,-28.01 245.77,-22.12"/>
</g>
<!-- Node12&#45;&gt;Node3 -->
<g id="edge16" class="edge">
<title>Node12&#45;&gt;Node3</title>
<path fill="none" stroke="midnightblue" d="M428.04,-112.46C405.33,-100.48 371,-77.72 387,-56 412.67,-21.15 465.08,-12.49 499.36,-10.77"/>
<polygon fill="midnightblue" stroke="midnightblue" points="499.91,-14.25 509.79,-10.42 499.68,-7.25 499.91,-14.25"/>
</g>
<!-- Node12&#45;&gt;Node10 -->
<g id="edge17" class="edge">
<title>Node12&#45;&gt;Node10</title>
<path fill="none" stroke="midnightblue" d="M423.82,-112.44C400.57,-103.48 363.85,-89.31 337.58,-79.18"/>
<polygon fill="midnightblue" stroke="midnightblue" points="338.67,-75.85 328.08,-75.52 336.15,-82.38 338.67,-75.85"/>
</g>
<!-- Node13 -->
<g id="node13" class="node">
<title>Node13</title>
<g id="a_node13"><a xlink:title=" ">
<polygon fill="white" stroke="#bfbfbf" points="396,-56.5 396,-75.5 452,-75.5 452,-56.5 396,-56.5"/>
<text text-anchor="middle" x="424" y="-63.5" font-family="Helvetica,sans-Serif" font-size="10.00">sstream</text>
</a>
</g>
</g>
<!-- Node12&#45;&gt;Node13 -->
<g id="edge15" class="edge">
<title>Node12&#45;&gt;Node13</title>
<path fill="none" stroke="midnightblue" d="M442.37,-112.08C439.39,-104.77 435.07,-94.18 431.38,-85.1"/>
<polygon fill="midnightblue" stroke="midnightblue" points="434.58,-83.69 427.57,-75.75 428.1,-86.33 434.58,-83.69"/>
</g>
<!-- Node14 -->
<g id="node14" class="node">
<title>Node14</title>
<g id="a_node14"><a xlink:href="Level_8hpp.html" target="_top" xlink:title="Définition de la classe Level.">
<polygon fill="white" stroke="black" points="470,-56.5 470,-75.5 534,-75.5 534,-56.5 470,-56.5"/>
<text text-anchor="middle" x="502" y="-63.5" font-family="Helvetica,sans-Serif" font-size="10.00">Level.hpp</text>
</a>
</g>
</g>
<!-- Node12&#45;&gt;Node14 -->
<g id="edge18" class="edge">
<title>Node12&#45;&gt;Node14</title>
<path fill="none" stroke="midnightblue" d="M455,-112.32C463.19,-104.42 475.51,-92.55 485.47,-82.94"/>
<polygon fill="midnightblue" stroke="midnightblue" points="488.07,-85.29 492.84,-75.83 483.21,-80.26 488.07,-85.29"/>
</g>
<!-- Node14&#45;&gt;Node3 -->
<g id="edge19" class="edge">
<title>Node14&#45;&gt;Node3</title>
<path fill="none" stroke="midnightblue" d="M506.95,-56.08C511.1,-48.61 517.15,-37.72 522.27,-28.52"/>
<polygon fill="midnightblue" stroke="midnightblue" points="525.34,-30.19 527.14,-19.75 519.22,-26.79 525.34,-30.19"/>
</g>
<!-- Node16&#45;&gt;Node3 -->
<g id="edge23" class="edge">
<title>Node16&#45;&gt;Node3</title>
<path fill="none" stroke="midnightblue" d="M682,-112.36C668.09,-99.27 640.25,-74.02 614,-56 596.43,-43.94 575.32,-32.42 558.92,-24.05"/>
<polygon fill="midnightblue" stroke="midnightblue" points="560.38,-20.87 549.87,-19.51 557.24,-27.13 560.38,-20.87"/>
</g>
<!-- Node17 -->
<g id="node17" class="node">
<title>Node17</title>
<g id="a_node17"><a xlink:title=" ">
<polygon fill="white" stroke="#bfbfbf" points="666,-56.5 666,-75.5 734,-75.5 734,-56.5 666,-56.5"/>
<text text-anchor="middle" x="700" y="-63.5" font-family="Helvetica,sans-Serif" font-size="10.00">sys/time.h</text>
</a>
</g>
</g>
<!-- Node16&#45;&gt;Node17 -->
<g id="edge22" class="edge">
<title>Node16&#45;&gt;Node17</title>
<path fill="none" stroke="midnightblue" d="M692.49,-112.08C693.68,-104.93 695.39,-94.64 696.88,-85.69"/>
<polygon fill="midnightblue" stroke="midnightblue" points="700.35,-86.19 698.54,-75.75 693.45,-85.04 700.35,-86.19"/>
</g>
<!-- Node19&#45;&gt;Node10 -->
<g id="edge34" class="edge">
<title>Node19&#45;&gt;Node10</title>
<path fill="none" stroke="midnightblue" d="M752.07,-173.22C645.15,-167.47 464.35,-154.72 402,-132 385.82,-126.1 348.37,-99.04 325.32,-81.75"/>
<polygon fill="midnightblue" stroke="midnightblue" points="327.35,-78.9 317.26,-75.66 323.13,-84.48 327.35,-78.9"/>
</g>
<!-- Node19&#45;&gt;Node16 -->
<g id="edge33" class="edge">
<title>Node19&#45;&gt;Node16</title>
<path fill="none" stroke="midnightblue" d="M811.34,-168.44C787.6,-159.48 750.09,-145.31 723.26,-135.18"/>
<polygon fill="midnightblue" stroke="midnightblue" points="724.14,-131.77 713.55,-131.52 721.67,-138.32 724.14,-131.77"/>
</g>
<!-- Node20 -->
<g id="node20" class="node">
<title>Node20</title>
<g id="a_node20"><a xlink:title=" ">
<polygon fill="white" stroke="#bfbfbf" points="838,-112.5 838,-131.5 898,-131.5 898,-112.5 838,-112.5"/>
<text text-anchor="middle" x="868" y="-119.5" font-family="Helvetica,sans-Serif" font-size="10.00">iostream</text>
</a>
</g>
</g>
<!-- Node19&#45;&gt;Node20 -->
<g id="edge26" class="edge">
<title>Node19&#45;&gt;Node20</title>
<path fill="none" stroke="midnightblue" d="M839.61,-168.08C844.37,-160.53 851.32,-149.49 857.15,-140.23"/>
<polygon fill="midnightblue" stroke="midnightblue" points="860.12,-142.08 862.49,-131.75 854.2,-138.35 860.12,-142.08"/>
</g>
<!-- Node21 -->
<g id="node21" class="node">
<title>Node21</title>
<g id="a_node21"><a xlink:title=" ">
<polygon fill="white" stroke="#bfbfbf" points="916,-112.5 916,-131.5 966,-131.5 966,-112.5 916,-112.5"/>
<text text-anchor="middle" x="941" y="-119.5" font-family="Helvetica,sans-Serif" font-size="10.00">stdio.h</text>
</a>
</g>
</g>
<!-- Node19&#45;&gt;Node21 -->
<g id="edge27" class="edge">
<title>Node19&#45;&gt;Node21</title>
<path fill="none" stroke="midnightblue" d="M851.19,-168.32C868.35,-159.66 894.95,-146.24 914.75,-136.25"/>
<polygon fill="midnightblue" stroke="midnightblue" points="916.5,-139.28 923.85,-131.65 913.35,-133.04 916.5,-139.28"/>
</g>
<!-- Node22 -->
<g id="node22" class="node">
<title>Node22</title>
<g id="a_node22"><a xlink:title=" ">
<polygon fill="white" stroke="#bfbfbf" points="984.5,-112.5 984.5,-131.5 1037.5,-131.5 1037.5,-112.5 984.5,-112.5"/>
<text text-anchor="middle" x="1011" y="-119.5" font-family="Helvetica,sans-Serif" font-size="10.00">string.h</text>
</a>
</g>
</g>
<!-- Node19&#45;&gt;Node22 -->
<g id="edge28" class="edge">
<title>Node19&#45;&gt;Node22</title>
<path fill="none" stroke="midnightblue" d="M862.05,-168.44C892.44,-159.17 941.04,-144.34 974.41,-134.16"/>
<polygon fill="midnightblue" stroke="midnightblue" points="975.7,-137.43 984.24,-131.16 973.66,-130.73 975.7,-137.43"/>
</g>
<!-- Node23 -->
<g id="node23" class="node">
<title>Node23</title>
<g id="a_node23"><a xlink:title=" ">
<polygon fill="white" stroke="#bfbfbf" points="1055.5,-112.5 1055.5,-131.5 1108.5,-131.5 1108.5,-112.5 1055.5,-112.5"/>
<text text-anchor="middle" x="1082" y="-119.5" font-family="Helvetica,sans-Serif" font-size="10.00">stdlib.h</text>
</a>
</g>
</g>
<!-- Node19&#45;&gt;Node23 -->
<g id="edge29" class="edge">
<title>Node19&#45;&gt;Node23</title>
<path fill="none" stroke="midnightblue" d="M876.96,-168.5C917.96,-160.25 981.7,-147.1 1045.46,-132.29"/>
<polygon fill="midnightblue" stroke="midnightblue" points="1046.34,-135.68 1055.28,-130 1044.74,-128.87 1046.34,-135.68"/>
</g>
<!-- Node24 -->
<g id="node24" class="node">
<title>Node24</title>
<g id="a_node24"><a xlink:title=" ">
<polygon fill="white" stroke="#bfbfbf" points="1127,-112.5 1127,-131.5 1183,-131.5 1183,-112.5 1127,-112.5"/>
<text text-anchor="middle" x="1155" y="-119.5" font-family="Helvetica,sans-Serif" font-size="10.00">unistd.h</text>
</a>
</g>
</g>
<!-- Node19&#45;&gt;Node24 -->
<g id="edge30" class="edge">
<title>Node19&#45;&gt;Node24</title>
<path fill="none" stroke="midnightblue" d="M897.15,-168.5C952.62,-160.69 1035.7,-148.16 1116.88,-132.09"/>
<polygon fill="midnightblue" stroke="midnightblue" points="1117.65,-135.51 1126.77,-130.12 1116.28,-128.65 1117.65,-135.51"/>
</g>
<!-- Node25 -->
<g id="node25" class="node">
<title>Node25</title>
<g id="a_node25"><a xlink:title=" ">
<polygon fill="white" stroke="#bfbfbf" points="1201.5,-112.5 1201.5,-131.5 1256.5,-131.5 1256.5,-112.5 1201.5,-112.5"/>
<text text-anchor="middle" x="1229" y="-119.5" font-family="Helvetica,sans-Serif" font-size="10.00">signal.h</text>
</a>
</g>
</g>
<!-- Node19&#45;&gt;Node25 -->
<g id="edge31" class="edge">
<title>Node19&#45;&gt;Node25</title>
<path fill="none" stroke="midnightblue" d="M909.94,-168.48C994.03,-158.88 1125.37,-143.32 1191.21,-131.92"/>
<polygon fill="midnightblue" stroke="midnightblue" points="1191.97,-135.34 1201.19,-130.12 1190.73,-128.45 1191.97,-135.34"/>
</g>
<!-- Node26 -->
<g id="node26" class="node">
<title>Node26</title>
<g id="a_node26"><a xlink:title=" ">
<polygon fill="white" stroke="#bfbfbf" points="772,-112.5 772,-131.5 820,-131.5 820,-112.5 772,-112.5"/>
<text text-anchor="middle" x="796" y="-119.5" font-family="Helvetica,sans-Serif" font-size="10.00">time.h</text>
</a>
</g>
</g>
<!-- Node19&#45;&gt;Node26 -->
<g id="edge32" class="edge">
<title>Node19&#45;&gt;Node26</title>
<path fill="none" stroke="midnightblue" d="M827.73,-168.08C822.36,-160.46 814.48,-149.26 807.92,-139.94"/>
<polygon fill="midnightblue" stroke="midnightblue" points="810.78,-137.91 802.16,-131.75 805.05,-141.94 810.78,-137.91"/>
</g>
</g>
</svg>
        <g id="navigator" transform="translate(0 0)" fill="#404254">
                <rect fill="#f2f5e9" fill-opacity="0.5" stroke="#606060" stroke-width=".5" x="0" y="0" width="60" height="60"/>
                <use id="zoomplus" xlink:href="#zoomPlus" x="17" y="9" onmousedown="handleZoom(evt,'in')"/>
                <use id="zoomminus" xlink:href="#zoomMin" x="42" y="9" onmousedown="handleZoom(evt,'out')"/>
                <use id="reset" xlink:href="#resetDef" x="30" y="36" onmousedown="handleReset()"/>
                <g id="arrowUp" xlink:href="#dirArrow" transform="translate(30 24)" onmousedown="handlePan(0,-1)">
                  <use xlink:href="#rim" fill="#404040">
                        <set attributeName="fill" to="#808080" begin="arrowUp.mouseover" end="arrowUp.mouseout"/>
                  </use>
                  <path fill="none" stroke="white" stroke-width="1.5" d="M0,-3.0v7 M-2.5,-0.5L0,-3.0L2.5,-0.5"/>
                </g>
                <g id="arrowRight" xlink:href="#dirArrow" transform="rotate(90) translate(36 -43)" onmousedown="handlePan(1,0)">
                  <use xlink:href="#rim" fill="#404040">
                        <set attributeName="fill" to="#808080" begin="arrowRight.mouseover" end="arrowRight.mouseout"/>
                  </use>
                  <path fill="none" stroke="white" stroke-width="1.5" d="M0,-3.0v7 M-2.5,-0.5L0,-3.0L2.5,-0.5"/>
                </g>
                <g id="arrowDown" xlink:href="#dirArrow" transform="rotate(180) translate(-30 -48)" onmousedown="handlePan(0,1)">
                  <use xlink:href="#rim" fill="#404040">
                        <set attributeName="fill" to="#808080" begin="arrowDown.mouseover" end="arrowDown.mouseout"/>
                  </use>
                  <path fill="none" stroke="white" stroke-width="1.5" d="M0,-3.0v7 M-2.5,-0.5L0,-3.0L2.5,-0.5"/>
                </g>
                <g id="arrowLeft" xlink:href="#dirArrow" transform="rotate(270) translate(-36 17)" onmousedown="handlePan(-1,0)">
                  <use xlink:href="#rim" fill="#404040">
                        <set attributeName="fill" to="#808080" begin="arrowLeft.mouseover" end="arrowLeft.mouseout"/>
                  </use>
                  <path fill="none" stroke="white" stroke-width="1.5" d="M0,-3.0v7 M-2.5,-0.5L0,-3.0L2.5,-0.5"/>
                </g>
        </g>
        <svg viewBox="0 0 15 15" width="100%" height="30px" preserveAspectRatio="xMaxYMin meet">
         <g id="arrow_out" transform="scale(0.3 0.3)">
          <a xlink:href="ServoObjectsSystem_8hpp__incl_org.svg" target="_base">
           <rect id="button" ry="5" rx="5" y="6" x="6" height="38" width="38"
                fill="#f2f5e9" fill-opacity="0.5" stroke="#606060" stroke-width="1.0"/>
           <path id="arrow"
             d="M 11.500037,31.436501 C 11.940474,20.09759 22.043105,11.32322 32.158766,21.979434 L 37.068811,17.246167 C 37.068811,17.246167 37.088388,32 37.088388,32 L 22.160133,31.978069 C 22.160133,31.978069 26.997745,27.140456 26.997745,27.140456 C 18.528582,18.264221 13.291696,25.230495 11.500037,31.436501 z"
             style="fill:#404040;"/>
          </a>
         </g>
        </svg>
</svg>
