<?xml version="1.0" encoding="UTF-8" standalone="no"?>
<!DOCTYPE svg PUBLIC "-//W3C//DTD SVG 1.1//EN"
 "http://www.w3.org/Graphics/SVG/1.1/DTD/svg11.dtd">
<!-- Generated by graphviz version 2.43.0 (0)
 -->
<!-- Title: backward::details::demangler Pages: 1 -->
<svg width="171pt" height="196pt"
 viewBox="0.00 0.00 170.50 196.00" xmlns="http://www.w3.org/2000/svg" xmlns:xlink="http://www.w3.org/1999/xlink">
<g id="graph0" class="graph" transform="scale(1 1) rotate(0) translate(4 192)">
<title>backward::details::demangler</title>
<polygon fill="white" stroke="transparent" points="-4,4 -4,-192 166.5,-192 166.5,4 -4,4"/>
<!-- Node1 -->
<g id="node1" class="node">
<title>Node1</title>
<g id="a_node1"><a xlink:title=" ">
<polygon fill="#bfbfbf" stroke="black" points="17,-0.5 17,-30.5 126,-30.5 126,-0.5 17,-0.5"/>
<text text-anchor="start" x="25" y="-18.5" font-family="Helvetica,sans-Serif" font-size="10.00">backward::details::</text>
<text text-anchor="middle" x="71.5" y="-7.5" font-family="Helvetica,sans-Serif" font-size="10.00">demangler</text>
</a>
</g>
</g>
<!-- Node2 -->
<g id="node2" class="node">
<title>Node2</title>
<g id="a_node2"><a xlink:href="structbackward_1_1details_1_1demangler__impl_3_01system__tag_1_1current__tag_01_4.html" target="_top" xlink:title=" ">
<polygon fill="white" stroke="black" points="0,-68.5 0,-109.5 143,-109.5 143,-68.5 0,-68.5"/>
<text text-anchor="start" x="8" y="-97.5" font-family="Helvetica,sans-Serif" font-size="10.00">backward::details::</text>
<text text-anchor="start" x="8" y="-86.5" font-family="Helvetica,sans-Serif" font-size="10.00">demangler_impl&lt; system</text>
<text text-anchor="middle" x="71.5" y="-75.5" font-family="Helvetica,sans-Serif" font-size="10.00">_tag::current_tag &gt;</text>
</a>
</g>
</g>
<!-- Node2&#45;&gt;Node1 -->
<g id="edge1" class="edge">
<title>Node2&#45;&gt;Node1</title>
<path fill="none" stroke="midnightblue" d="M71.5,-58.16C71.5,-48.69 71.5,-38.65 71.5,-30.8"/>
<polygon fill="midnightblue" stroke="midnightblue" points="68,-58.46 71.5,-68.46 75,-58.46 68,-58.46"/>
</g>
<!-- Node3 -->
<g id="node3" class="node">
<title>Node3</title>
<g id="a_node3"><a xlink:href="classbackward_1_1details_1_1handle.html" target="_top" xlink:title=" ">
<polygon fill="white" stroke="black" points="17,-157.5 17,-187.5 126,-187.5 126,-157.5 17,-157.5"/>
<text text-anchor="start" x="25" y="-175.5" font-family="Helvetica,sans-Serif" font-size="10.00">backward::details::</text>
<text text-anchor="middle" x="71.5" y="-164.5" font-family="Helvetica,sans-Serif" font-size="10.00">handle&lt; char * &gt;</text>
</a>
</g>
</g>
<!-- Node3&#45;&gt;Node2 -->
<g id="edge2" class="edge">
<title>Node3&#45;&gt;Node2</title>
<path fill="none" stroke="#9a32cd" stroke-dasharray="5,2" d="M71.5,-147.07C71.5,-135.06 71.5,-120.79 71.5,-109.53"/>
<polygon fill="#9a32cd" stroke="#9a32cd" points="68,-147.3 71.5,-157.3 75,-147.3 68,-147.3"/>
<text text-anchor="middle" x="117" y="-131" font-family="Helvetica,sans-Serif" font-size="10.00"> _demangle_buffer</text>
</g>
</g>
</svg>
