<?xml version="1.0" encoding="UTF-8" standalone="no"?>
<!DOCTYPE svg PUBLIC "-//W3C//DTD SVG 1.1//EN"
 "http://www.w3.org/Graphics/SVG/1.1/DTD/svg11.dtd">
<!-- Generated by graphviz version 2.43.0 (0)
 -->
<!-- Title: ordered_map::at Pages: 1 -->
<!--zoomable 104 -->
<svg id="main" version="1.1" xmlns="http://www.w3.org/2000/svg" xmlns:xlink="http://www.w3.org/1999/xlink" xml:space="preserve" onload="init(evt)">
<style type="text/css"><![CDATA[
.edge:hover path { stroke: red; }
.edge:hover polygon { stroke: red; fill: red; }
]]></style>
<script type="text/javascript"><![CDATA[
var edges = document.getElementsByTagName('g');
if (edges && edges.length) {
  for (var i=0;i<edges.length;i++) {
    if (edges[i].id.substr(0,4)=='edge') {
      edges[i].setAttribute('class','edge');
    }
  }
}
]]></script>
        <defs>
                <circle id="rim" cx="0" cy="0" r="7"/>
                <circle id="rim2" cx="0" cy="0" r="3.5"/>
                <g id="zoomPlus">
                        <use xlink:href="#rim" fill="#404040">
                                <set attributeName="fill" to="#808080" begin="zoomplus.mouseover" end="zoomplus.mouseout"/>
                        </use>
                        <path d="M-4,0h8M0,-4v8" fill="none" stroke="white" stroke-width="1.5" pointer-events="none"/>
                </g>
                <g id="zoomMin">
                        <use xlink:href="#rim" fill="#404040">
                                <set attributeName="fill" to="#808080" begin="zoomminus.mouseover" end="zoomminus.mouseout"/>
                        </use>
                        <path d="M-4,0h8" fill="none" stroke="white" stroke-width="1.5" pointer-events="none"/>
                </g>
                <g id="dirArrow">
                        <path fill="none" stroke="white" stroke-width="1.5" d="M0,-3.0v7 M-2.5,-0.5L0,-3.0L2.5,-0.5"/>
                </g>
               <g id="resetDef">
                       <use xlink:href="#rim2" fill="#404040">
                               <set attributeName="fill" to="#808080" begin="reset.mouseover" end="reset.mouseout"/>
                       </use>
               </g>
        </defs>

<script type="text/javascript">
var viewWidth = 614;
var viewHeight = 104;
var sectionId = 'dynsection-5';
</script>
<script xlink:href="svgpan.js"/>
<svg id="graph" class="graph">
<g id="viewport">
<title>ordered_map::at</title>
<polygon fill="white" stroke="transparent" points="-4,4 -4,-100 610,-100 610,4 -4,4"/>
<!-- Node1 -->
<g id="node1" class="node">
<title>Node1</title>
<g id="a_node1"><a xlink:title=" ">
<polygon fill="#bfbfbf" stroke="black" points="0,-19.5 0,-38.5 97,-38.5 97,-19.5 0,-19.5"/>
<text text-anchor="middle" x="48.5" y="-26.5" font-family="Helvetica,sans-Serif" font-size="10.00">ordered_map::at</text>
</a>
</g>
</g>
<!-- Node2 -->
<g id="node2" class="node">
<title>Node2</title>
<g id="a_node2"><a xlink:href="namespacelogs.html#ac6f325c6cfe6189bc8e243daa184453b" target="_top" xlink:title="Cette méthode permet de finir les flux de construction par la notation.">
<polygon fill="white" stroke="black" points="144,-38.5 144,-57.5 205,-57.5 205,-38.5 144,-38.5"/>
<text text-anchor="middle" x="174.5" y="-45.5" font-family="Helvetica,sans-Serif" font-size="10.00">logs::end</text>
</a>
</g>
</g>
<!-- Node1&#45;&gt;Node2 -->
<g id="edge1" class="edge">
<title>Node1&#45;&gt;Node2</title>
<path fill="none" stroke="midnightblue" d="M97.09,-36.29C109.24,-38.15 122.17,-40.13 133.87,-41.93"/>
<polygon fill="midnightblue" stroke="midnightblue" points="133.37,-45.39 143.79,-43.45 134.43,-38.47 133.37,-45.39"/>
</g>
<!-- Node7 -->
<g id="node7" class="node">
<title>Node7</title>
<g id="a_node7"><a xlink:href="structjson__sax.html#a3355ecd7e3e9806dcb80b2f8842b82ce" target="_top" xlink:title="an object key was read">
<polygon fill="white" stroke="black" points="133,-0.5 133,-19.5 216,-19.5 216,-0.5 133,-0.5"/>
<text text-anchor="middle" x="174.5" y="-7.5" font-family="Helvetica,sans-Serif" font-size="10.00">json_sax::key</text>
</a>
</g>
</g>
<!-- Node1&#45;&gt;Node7 -->
<g id="edge6" class="edge">
<title>Node1&#45;&gt;Node7</title>
<path fill="none" stroke="midnightblue" d="M97.09,-21.71C105.44,-20.43 114.16,-19.09 122.6,-17.8"/>
<polygon fill="midnightblue" stroke="midnightblue" points="123.35,-21.23 132.7,-16.25 122.29,-14.31 123.35,-21.23"/>
</g>
<!-- Node3 -->
<g id="node3" class="node">
<title>Node3</title>
<g id="a_node3"><a xlink:href="classlogs_1_1Logger_1_1LoggerBuffer.html#a0e4fd77693fd899ec1b0670354f93a02" target="_top" xlink:title="Cette méthode valide le message en cours de construction et le transmet au Logger de référence.">
<polygon fill="white" stroke="black" points="252,-38.5 252,-57.5 420,-57.5 420,-38.5 252,-38.5"/>
<text text-anchor="middle" x="336" y="-45.5" font-family="Helvetica,sans-Serif" font-size="10.00">logs::Logger::LoggerBuffer::end</text>
</a>
</g>
</g>
<!-- Node2&#45;&gt;Node3 -->
<g id="edge2" class="edge">
<title>Node2&#45;&gt;Node3</title>
<path fill="none" stroke="midnightblue" d="M205.13,-48C215.82,-48 228.54,-48 241.77,-48"/>
<polygon fill="midnightblue" stroke="midnightblue" points="241.96,-51.5 251.96,-48 241.96,-44.5 241.96,-51.5"/>
</g>
<!-- Node4 -->
<g id="node4" class="node">
<title>Node4</title>
<g id="a_node4"><a xlink:href="classutils_1_1Mutex.html#aa584b418a5ef484f76b93e361a1d7e32" target="_top" xlink:title="Verrouille le mutex. Cette méthode doit être appelée avant d&#39;utiliser la ressource associée....">
<polygon fill="white" stroke="black" points="480.5,-76.5 480.5,-95.5 581.5,-95.5 581.5,-76.5 480.5,-76.5"/>
<text text-anchor="middle" x="531" y="-83.5" font-family="Helvetica,sans-Serif" font-size="10.00">utils::Mutex::lock</text>
</a>
</g>
</g>
<!-- Node3&#45;&gt;Node4 -->
<g id="edge3" class="edge">
<title>Node3&#45;&gt;Node4</title>
<path fill="none" stroke="midnightblue" d="M385.7,-57.59C411.86,-62.74 444.28,-69.12 471.77,-74.53"/>
<polygon fill="midnightblue" stroke="midnightblue" points="471.16,-77.98 481.65,-76.48 472.51,-71.11 471.16,-77.98"/>
</g>
<!-- Node5 -->
<g id="node5" class="node">
<title>Node5</title>
<g id="a_node5"><a xlink:href="classutils_1_1Mutex.html#a59b2079dc7f803d49f78ac9c04406cd3" target="_top" xlink:title="Déverrouille le mutex. Cette méthode doit être appelée après avoir utiliser la ressource associée.">
<polygon fill="white" stroke="black" points="474.5,-38.5 474.5,-57.5 587.5,-57.5 587.5,-38.5 474.5,-38.5"/>
<text text-anchor="middle" x="531" y="-45.5" font-family="Helvetica,sans-Serif" font-size="10.00">utils::Mutex::unlock</text>
</a>
</g>
</g>
<!-- Node3&#45;&gt;Node5 -->
<g id="edge4" class="edge">
<title>Node3&#45;&gt;Node5</title>
<path fill="none" stroke="midnightblue" d="M420.25,-48C434.94,-48 450.06,-48 464.19,-48"/>
<polygon fill="midnightblue" stroke="midnightblue" points="464.29,-51.5 474.29,-48 464.29,-44.5 464.29,-51.5"/>
</g>
<!-- Node6 -->
<g id="node6" class="node">
<title>Node6</title>
<g id="a_node6"><a xlink:href="classlogs_1_1Logger.html#afa535aaf4891e02c4ff7f84d372b5b1b" target="_top" xlink:title="Méthode générique de trace d&#39;un message.">
<polygon fill="white" stroke="black" points="456,-0.5 456,-19.5 606,-19.5 606,-0.5 456,-0.5"/>
<text text-anchor="middle" x="531" y="-7.5" font-family="Helvetica,sans-Serif" font-size="10.00">logs::Logger::writeMessage</text>
</a>
</g>
</g>
<!-- Node3&#45;&gt;Node6 -->
<g id="edge5" class="edge">
<title>Node3&#45;&gt;Node6</title>
<path fill="none" stroke="midnightblue" d="M385.7,-38.41C411.86,-33.26 444.28,-26.88 471.77,-21.47"/>
<polygon fill="midnightblue" stroke="midnightblue" points="472.51,-24.89 481.65,-19.52 471.16,-18.02 472.51,-24.89"/>
</g>
</g>
</svg>
        <g id="navigator" transform="translate(0 0)" fill="#404254">
                <rect fill="#f2f5e9" fill-opacity="0.5" stroke="#606060" stroke-width=".5" x="0" y="0" width="60" height="60"/>
                <use id="zoomplus" xlink:href="#zoomPlus" x="17" y="9" onmousedown="handleZoom(evt,'in')"/>
                <use id="zoomminus" xlink:href="#zoomMin" x="42" y="9" onmousedown="handleZoom(evt,'out')"/>
                <use id="reset" xlink:href="#resetDef" x="30" y="36" onmousedown="handleReset()"/>
                <g id="arrowUp" xlink:href="#dirArrow" transform="translate(30 24)" onmousedown="handlePan(0,-1)">
                  <use xlink:href="#rim" fill="#404040">
                        <set attributeName="fill" to="#808080" begin="arrowUp.mouseover" end="arrowUp.mouseout"/>
                  </use>
                  <path fill="none" stroke="white" stroke-width="1.5" d="M0,-3.0v7 M-2.5,-0.5L0,-3.0L2.5,-0.5"/>
                </g>
                <g id="arrowRight" xlink:href="#dirArrow" transform="rotate(90) translate(36 -43)" onmousedown="handlePan(1,0)">
                  <use xlink:href="#rim" fill="#404040">
                        <set attributeName="fill" to="#808080" begin="arrowRight.mouseover" end="arrowRight.mouseout"/>
                  </use>
                  <path fill="none" stroke="white" stroke-width="1.5" d="M0,-3.0v7 M-2.5,-0.5L0,-3.0L2.5,-0.5"/>
                </g>
                <g id="arrowDown" xlink:href="#dirArrow" transform="rotate(180) translate(-30 -48)" onmousedown="handlePan(0,1)">
                  <use xlink:href="#rim" fill="#404040">
                        <set attributeName="fill" to="#808080" begin="arrowDown.mouseover" end="arrowDown.mouseout"/>
                  </use>
                  <path fill="none" stroke="white" stroke-width="1.5" d="M0,-3.0v7 M-2.5,-0.5L0,-3.0L2.5,-0.5"/>
                </g>
                <g id="arrowLeft" xlink:href="#dirArrow" transform="rotate(270) translate(-36 17)" onmousedown="handlePan(-1,0)">
                  <use xlink:href="#rim" fill="#404040">
                        <set attributeName="fill" to="#808080" begin="arrowLeft.mouseover" end="arrowLeft.mouseout"/>
                  </use>
                  <path fill="none" stroke="white" stroke-width="1.5" d="M0,-3.0v7 M-2.5,-0.5L0,-3.0L2.5,-0.5"/>
                </g>
        </g>
        <svg viewBox="0 0 15 15" width="100%" height="30px" preserveAspectRatio="xMaxYMin meet">
         <g id="arrow_out" transform="scale(0.3 0.3)">
          <a xlink:href="structordered__map_a862c08ae6034e0e3a80bd3b9916ad697_cgraph_org.svg" target="_base">
           <rect id="button" ry="5" rx="5" y="6" x="6" height="38" width="38"
                fill="#f2f5e9" fill-opacity="0.5" stroke="#606060" stroke-width="1.0"/>
           <path id="arrow"
             d="M 11.500037,31.436501 C 11.940474,20.09759 22.043105,11.32322 32.158766,21.979434 L 37.068811,17.246167 C 37.068811,17.246167 37.088388,32 37.088388,32 L 22.160133,31.978069 C 22.160133,31.978069 26.997745,27.140456 26.997745,27.140456 C 18.528582,18.264221 13.291696,25.230495 11.500037,31.436501 z"
             style="fill:#404040;"/>
          </a>
         </g>
        </svg>
</svg>
