<?xml version="1.0" encoding="UTF-8" standalone="no"?>
<!DOCTYPE svg PUBLIC "-//W3C//DTD SVG 1.1//EN"
 "http://www.w3.org/Graphics/SVG/1.1/DTD/svg11.dtd">
<!-- Generated by graphviz version 2.43.0 (0)
 -->
<!-- Title: detail::dtoa_impl::boundaries Pages: 1 -->
<svg width="113pt" height="139pt"
 viewBox="0.00 0.00 113.00 139.00" xmlns="http://www.w3.org/2000/svg" xmlns:xlink="http://www.w3.org/1999/xlink">
<g id="graph0" class="graph" transform="scale(1 1) rotate(0) translate(4 135)">
<title>detail::dtoa_impl::boundaries</title>
<polygon fill="white" stroke="transparent" points="-4,4 -4,-135 109,-135 109,4 -4,4"/>
<!-- Node1 -->
<g id="node1" class="node">
<title>Node1</title>
<g id="a_node1"><a xlink:title=" ">
<polygon fill="#bfbfbf" stroke="black" points="0,-0.5 0,-30.5 105,-30.5 105,-0.5 0,-0.5"/>
<text text-anchor="start" x="8" y="-18.5" font-family="Helvetica,sans-Serif" font-size="10.00">detail::dtoa_impl::</text>
<text text-anchor="middle" x="52.5" y="-7.5" font-family="Helvetica,sans-Serif" font-size="10.00">boundaries</text>
</a>
</g>
</g>
<!-- Node2 -->
<g id="node2" class="node">
<title>Node2</title>
<g id="a_node2"><a xlink:href="structdetail_1_1dtoa__impl_1_1diyfp.html" target="_top" xlink:title=" ">
<polygon fill="white" stroke="black" points="0,-100.5 0,-130.5 105,-130.5 105,-100.5 0,-100.5"/>
<text text-anchor="start" x="8" y="-118.5" font-family="Helvetica,sans-Serif" font-size="10.00">detail::dtoa_impl::</text>
<text text-anchor="middle" x="52.5" y="-107.5" font-family="Helvetica,sans-Serif" font-size="10.00">diyfp</text>
</a>
</g>
</g>
<!-- Node2&#45;&gt;Node1 -->
<g id="edge1" class="edge">
<title>Node2&#45;&gt;Node1</title>
<path fill="none" stroke="#9a32cd" stroke-dasharray="5,2" d="M52.5,-90.28C52.5,-71.48 52.5,-46.08 52.5,-30.51"/>
<polygon fill="#9a32cd" stroke="#9a32cd" points="49,-90.46 52.5,-100.46 56,-90.46 49,-90.46"/>
<text text-anchor="middle" x="69.5" y="-74" font-family="Helvetica,sans-Serif" font-size="10.00"> minus</text>
<text text-anchor="middle" x="69.5" y="-63" font-family="Helvetica,sans-Serif" font-size="10.00">plus</text>
<text text-anchor="middle" x="69.5" y="-52" font-family="Helvetica,sans-Serif" font-size="10.00">w</text>
</g>
</g>
</svg>
