<?xml version="1.0" encoding="UTF-8" standalone="no"?>
<!DOCTYPE svg PUBLIC "-//W3C//DTD SVG 1.1//EN"
 "http://www.w3.org/Graphics/SVG/1.1/DTD/svg11.dtd">
<!-- Generated by graphviz version 2.43.0 (0)
 -->
<!-- Title: ZONE_PATH Pages: 1 -->
<svg width="82pt" height="106pt"
 viewBox="0.00 0.00 82.00 106.00" xmlns="http://www.w3.org/2000/svg" xmlns:xlink="http://www.w3.org/1999/xlink">
<g id="graph0" class="graph" transform="scale(1 1) rotate(0) translate(4 102)">
<title>ZONE_PATH</title>
<polygon fill="white" stroke="transparent" points="-4,4 -4,-102 78,-102 78,4 -4,4"/>
<!-- Node1 -->
<g id="node1" class="node">
<title>Node1</title>
<g id="a_node1"><a xlink:title=" ">
<polygon fill="#bfbfbf" stroke="black" points="0,-0.5 0,-19.5 74,-19.5 74,-0.5 0,-0.5"/>
<text text-anchor="middle" x="37" y="-7.5" font-family="Helvetica,sans-Serif" font-size="10.00">ZONE_PATH</text>
</a>
</g>
</g>
<!-- Node2 -->
<g id="node2" class="node">
<title>Node2</title>
<g id="a_node2"><a xlink:href="structZONE.html" target="_top" xlink:title=" ">
<polygon fill="white" stroke="black" points="15,-78.5 15,-97.5 59,-97.5 59,-78.5 15,-78.5"/>
<text text-anchor="middle" x="37" y="-85.5" font-family="Helvetica,sans-Serif" font-size="10.00">ZONE</text>
</a>
</g>
</g>
<!-- Node2&#45;&gt;Node1 -->
<g id="edge1" class="edge">
<title>Node2&#45;&gt;Node1</title>
<path fill="none" stroke="#9a32cd" stroke-dasharray="5,2" d="M37,-68.22C37,-52.7 37,-31.36 37,-19.62"/>
<polygon fill="#9a32cd" stroke="#9a32cd" points="33.5,-68.28 37,-78.28 40.5,-68.28 33.5,-68.28"/>
<text text-anchor="middle" x="44.5" y="-52" font-family="Helvetica,sans-Serif" font-size="10.00"> z1</text>
<text text-anchor="middle" x="44.5" y="-41" font-family="Helvetica,sans-Serif" font-size="10.00">z2</text>
</g>
</g>
</svg>
