<?xml version="1.0" encoding="UTF-8" standalone="no"?>
<!DOCTYPE svg PUBLIC "-//W3C//DTD SVG 1.1//EN"
 "http://www.w3.org/Graphics/SVG/1.1/DTD/svg11.dtd">
<!-- Generated by graphviz version 2.43.0 (0)
 -->
<!-- Title: detail::container_input_adapter_factory_impl::container_input_adapter_factory&lt; ContainerType, void_t&lt; decltype(begin(std::declval&lt; ContainerType &gt;()), end(std::declval&lt; ContainerType &gt;()))&gt; &gt;::create Pages: 1 -->
<svg width="737pt" height="124pt"
 viewBox="0.00 0.00 737.00 123.50" xmlns="http://www.w3.org/2000/svg" xmlns:xlink="http://www.w3.org/1999/xlink">
<g id="graph0" class="graph" transform="scale(1 1) rotate(0) translate(4 119.5)">
<title>detail::container_input_adapter_factory_impl::container_input_adapter_factory&lt; ContainerType, void_t&lt; decltype(begin(std::declval&lt; ContainerType &gt;()), end(std::declval&lt; ContainerType &gt;()))&gt; &gt;::create</title>
<polygon fill="white" stroke="transparent" points="-4,4 -4,-119.5 733,-119.5 733,4 -4,4"/>
<!-- Node1 -->
<g id="node1" class="node">
<title>Node1</title>
<g id="a_node1"><a xlink:title=" ">
<polygon fill="#bfbfbf" stroke="black" points="0,-0.5 0,-96.5 185,-96.5 185,-0.5 0,-0.5"/>
<text text-anchor="start" x="8" y="-84.5" font-family="Helvetica,sans-Serif" font-size="10.00">detail::container_input</text>
<text text-anchor="start" x="8" y="-73.5" font-family="Helvetica,sans-Serif" font-size="10.00">_adapter_factory_impl</text>
<text text-anchor="start" x="8" y="-62.5" font-family="Helvetica,sans-Serif" font-size="10.00">::container_input_adapter</text>
<text text-anchor="start" x="8" y="-51.5" font-family="Helvetica,sans-Serif" font-size="10.00">_factory&lt; ContainerType,</text>
<text text-anchor="start" x="8" y="-40.5" font-family="Helvetica,sans-Serif" font-size="10.00"> void_t&lt; decltype(begin(std</text>
<text text-anchor="start" x="8" y="-29.5" font-family="Helvetica,sans-Serif" font-size="10.00">::declval&lt; ContainerType &gt;()</text>
<text text-anchor="start" x="8" y="-18.5" font-family="Helvetica,sans-Serif" font-size="10.00">), end(std::declval&lt; ContainerType</text>
<text text-anchor="middle" x="92.5" y="-7.5" font-family="Helvetica,sans-Serif" font-size="10.00"> &gt;()))&gt; &gt;::create</text>
</a>
</g>
</g>
<!-- Node2 -->
<g id="node2" class="node">
<title>Node2</title>
<g id="a_node2"><a xlink:href="namespacelogs.html#ac6f325c6cfe6189bc8e243daa184453b" target="_top" xlink:title="Cette méthode permet de finir les flux de construction par la notation.">
<polygon fill="white" stroke="black" points="249.5,-58 249.5,-77 310.5,-77 310.5,-58 249.5,-58"/>
<text text-anchor="middle" x="280" y="-65" font-family="Helvetica,sans-Serif" font-size="10.00">logs::end</text>
</a>
</g>
</g>
<!-- Node1&#45;&gt;Node2 -->
<g id="edge1" class="edge">
<title>Node1&#45;&gt;Node2</title>
<path fill="none" stroke="midnightblue" d="M185.16,-57.89C204.18,-59.84 223.26,-61.79 239.2,-63.42"/>
<polygon fill="midnightblue" stroke="midnightblue" points="238.89,-66.91 249.19,-64.45 239.6,-59.95 238.89,-66.91"/>
</g>
<!-- Node7 -->
<g id="node7" class="node">
<title>Node7</title>
<g id="a_node7"><a xlink:href="namespacedetail.html#a94ba526ee2dcd8db43be52cb621c1de3" target="_top" xlink:title=" ">
<polygon fill="white" stroke="black" points="221,-20 221,-39 339,-39 339,-20 221,-20"/>
<text text-anchor="middle" x="280" y="-27" font-family="Helvetica,sans-Serif" font-size="10.00">detail::input_adapter</text>
</a>
</g>
</g>
<!-- Node1&#45;&gt;Node7 -->
<g id="edge6" class="edge">
<title>Node1&#45;&gt;Node7</title>
<path fill="none" stroke="midnightblue" d="M185.16,-39.11C193.79,-38.23 202.44,-37.34 210.79,-36.49"/>
<polygon fill="midnightblue" stroke="midnightblue" points="211.23,-39.96 220.83,-35.46 210.52,-33 211.23,-39.96"/>
</g>
<!-- Node3 -->
<g id="node3" class="node">
<title>Node3</title>
<g id="a_node3"><a xlink:href="classlogs_1_1Logger_1_1LoggerBuffer.html#a0e4fd77693fd899ec1b0670354f93a02" target="_top" xlink:title="Cette méthode valide le message en cours de construction et le transmet au Logger de référence.">
<polygon fill="white" stroke="black" points="375,-58 375,-77 543,-77 543,-58 375,-58"/>
<text text-anchor="middle" x="459" y="-65" font-family="Helvetica,sans-Serif" font-size="10.00">logs::Logger::LoggerBuffer::end</text>
</a>
</g>
</g>
<!-- Node2&#45;&gt;Node3 -->
<g id="edge2" class="edge">
<title>Node2&#45;&gt;Node3</title>
<path fill="none" stroke="midnightblue" d="M310.63,-67.5C325.71,-67.5 344.97,-67.5 364.56,-67.5"/>
<polygon fill="midnightblue" stroke="midnightblue" points="364.81,-71 374.81,-67.5 364.81,-64 364.81,-71"/>
</g>
<!-- Node4 -->
<g id="node4" class="node">
<title>Node4</title>
<g id="a_node4"><a xlink:href="classutils_1_1Mutex.html#aa584b418a5ef484f76b93e361a1d7e32" target="_top" xlink:title="Verrouille le mutex. Cette méthode doit être appelée avant d&#39;utiliser la ressource associée....">
<polygon fill="white" stroke="black" points="603.5,-96 603.5,-115 704.5,-115 704.5,-96 603.5,-96"/>
<text text-anchor="middle" x="654" y="-103" font-family="Helvetica,sans-Serif" font-size="10.00">utils::Mutex::lock</text>
</a>
</g>
</g>
<!-- Node3&#45;&gt;Node4 -->
<g id="edge3" class="edge">
<title>Node3&#45;&gt;Node4</title>
<path fill="none" stroke="midnightblue" d="M508.7,-77.09C534.86,-82.24 567.28,-88.62 594.77,-94.03"/>
<polygon fill="midnightblue" stroke="midnightblue" points="594.16,-97.48 604.65,-95.98 595.51,-90.61 594.16,-97.48"/>
</g>
<!-- Node5 -->
<g id="node5" class="node">
<title>Node5</title>
<g id="a_node5"><a xlink:href="classutils_1_1Mutex.html#a59b2079dc7f803d49f78ac9c04406cd3" target="_top" xlink:title="Déverrouille le mutex. Cette méthode doit être appelée après avoir utiliser la ressource associée.">
<polygon fill="white" stroke="black" points="597.5,-58 597.5,-77 710.5,-77 710.5,-58 597.5,-58"/>
<text text-anchor="middle" x="654" y="-65" font-family="Helvetica,sans-Serif" font-size="10.00">utils::Mutex::unlock</text>
</a>
</g>
</g>
<!-- Node3&#45;&gt;Node5 -->
<g id="edge4" class="edge">
<title>Node3&#45;&gt;Node5</title>
<path fill="none" stroke="midnightblue" d="M543.25,-67.5C557.94,-67.5 573.06,-67.5 587.19,-67.5"/>
<polygon fill="midnightblue" stroke="midnightblue" points="587.29,-71 597.29,-67.5 587.29,-64 587.29,-71"/>
</g>
<!-- Node6 -->
<g id="node6" class="node">
<title>Node6</title>
<g id="a_node6"><a xlink:href="classlogs_1_1Logger.html#afa535aaf4891e02c4ff7f84d372b5b1b" target="_top" xlink:title="Méthode générique de trace d&#39;un message.">
<polygon fill="white" stroke="black" points="579,-20 579,-39 729,-39 729,-20 579,-20"/>
<text text-anchor="middle" x="654" y="-27" font-family="Helvetica,sans-Serif" font-size="10.00">logs::Logger::writeMessage</text>
</a>
</g>
</g>
<!-- Node3&#45;&gt;Node6 -->
<g id="edge5" class="edge">
<title>Node3&#45;&gt;Node6</title>
<path fill="none" stroke="midnightblue" d="M508.7,-57.91C534.86,-52.76 567.28,-46.38 594.77,-40.97"/>
<polygon fill="midnightblue" stroke="midnightblue" points="595.51,-44.39 604.65,-39.02 594.16,-37.52 595.51,-44.39"/>
</g>
</g>
</svg>
