<?xml version="1.0" encoding="UTF-8" standalone="no"?>
<!DOCTYPE svg PUBLIC "-//W3C//DTD SVG 1.1//EN"
 "http://www.w3.org/Graphics/SVG/1.1/DTD/svg11.dtd">
<!-- Generated by graphviz version 2.43.0 (0)
 -->
<!-- Title: Framebuffer::close Pages: 1 -->
<svg width="669pt" height="186pt"
 viewBox="0.00 0.00 669.00 186.00" xmlns="http://www.w3.org/2000/svg" xmlns:xlink="http://www.w3.org/1999/xlink">
<g id="graph0" class="graph" transform="scale(1 1) rotate(0) translate(4 182)">
<title>Framebuffer::close</title>
<polygon fill="white" stroke="transparent" points="-4,4 -4,-182 665,-182 665,4 -4,4"/>
<!-- Node1 -->
<g id="node1" class="node">
<title>Node1</title>
<g id="a_node1"><a xlink:title=" ">
<polygon fill="#bfbfbf" stroke="black" points="554,-80 554,-99 661,-99 661,-80 554,-80"/>
<text text-anchor="middle" x="607.5" y="-87" font-family="Helvetica,sans-Serif" font-size="10.00">Framebuffer::close</text>
</a>
</g>
</g>
<!-- Node2 -->
<g id="node2" class="node">
<title>Node2</title>
<g id="a_node2"><a xlink:href="structFramebuffer.html#ac8bc7614c3b792a57d4a8a0b828d29ef" target="_top" xlink:title=" ">
<polygon fill="white" stroke="black" points="412,-80 412,-99 518,-99 518,-80 412,-80"/>
<text text-anchor="middle" x="465" y="-87" font-family="Helvetica,sans-Serif" font-size="10.00">Framebuffer::open</text>
</a>
</g>
</g>
<!-- Node1&#45;&gt;Node2 -->
<g id="edge1" class="edge">
<title>Node1&#45;&gt;Node2</title>
<path fill="none" stroke="midnightblue" d="M543.52,-89.5C535.01,-89.5 526.36,-89.5 518.08,-89.5"/>
<polygon fill="midnightblue" stroke="midnightblue" points="543.78,-93 553.78,-89.5 543.78,-86 543.78,-93"/>
</g>
<!-- Node3 -->
<g id="node3" class="node">
<title>Node3</title>
<g id="a_node3"><a xlink:href="classtest_1_1ScreenFramebufferManualTest.html#a179e1fc7fb0059b21448df985295686e" target="_top" xlink:title="Calibration tactile 3 points : affiche des croix cibles et mesure les coordonnees brutes pour calcule...">
<polygon fill="white" stroke="black" points="206,-147.5 206,-177.5 376,-177.5 376,-147.5 206,-147.5"/>
<text text-anchor="start" x="214" y="-165.5" font-family="Helvetica,sans-Serif" font-size="10.00">test::ScreenFramebufferManual</text>
<text text-anchor="middle" x="291" y="-154.5" font-family="Helvetica,sans-Serif" font-size="10.00">Test::testCalibration</text>
</a>
</g>
</g>
<!-- Node1&#45;&gt;Node3 -->
<g id="edge10" class="edge">
<title>Node1&#45;&gt;Node3</title>
<path fill="none" stroke="midnightblue" d="M577.2,-103.35C560.24,-110.88 538.29,-119.79 518,-125.5 471.88,-138.48 419.11,-147.44 376.16,-153.28"/>
<polygon fill="midnightblue" stroke="midnightblue" points="578.9,-106.43 586.57,-99.12 576.01,-100.05 578.9,-106.43"/>
</g>
<!-- Node5 -->
<g id="node5" class="node">
<title>Node5</title>
<g id="a_node5"><a xlink:href="classtest_1_1ScreenFramebufferManualTest.html#a5762a62b73f735fab3cbf16bbee0284d" target="_top" xlink:title="Test framebuffer : affiche des bandes de couleur.">
<polygon fill="white" stroke="black" points="206,-98.5 206,-128.5 376,-128.5 376,-98.5 206,-98.5"/>
<text text-anchor="start" x="214" y="-116.5" font-family="Helvetica,sans-Serif" font-size="10.00">test::ScreenFramebufferManual</text>
<text text-anchor="middle" x="291" y="-105.5" font-family="Helvetica,sans-Serif" font-size="10.00">Test::testFramebuffer</text>
</a>
</g>
</g>
<!-- Node1&#45;&gt;Node5 -->
<g id="edge11" class="edge">
<title>Node1&#45;&gt;Node5</title>
<path fill="none" stroke="midnightblue" d="M559.77,-101.26C546.37,-104.16 531.68,-106.89 518,-108.5 471.32,-113.98 418.86,-115.42 376.24,-115.41"/>
<polygon fill="midnightblue" stroke="midnightblue" points="560.74,-104.63 569.73,-99.03 559.21,-97.8 560.74,-104.63"/>
</g>
<!-- Node6 -->
<g id="node6" class="node">
<title>Node6</title>
<g id="a_node6"><a xlink:href="classtest_1_1ScreenFramebufferManualTest.html#a7e6ef2ec4f48e6ac92f23efb39b15359" target="_top" xlink:title="Test tactile : lit les events et dessine des croix.">
<polygon fill="white" stroke="black" points="206,-49.5 206,-79.5 376,-79.5 376,-49.5 206,-49.5"/>
<text text-anchor="start" x="214" y="-67.5" font-family="Helvetica,sans-Serif" font-size="10.00">test::ScreenFramebufferManual</text>
<text text-anchor="middle" x="291" y="-56.5" font-family="Helvetica,sans-Serif" font-size="10.00">Test::testTouchscreen</text>
</a>
</g>
</g>
<!-- Node1&#45;&gt;Node6 -->
<g id="edge12" class="edge">
<title>Node1&#45;&gt;Node6</title>
<path fill="none" stroke="midnightblue" d="M559.4,-77.7C546.1,-74.83 531.55,-72.12 518,-70.5 471.33,-64.92 418.87,-63.25 376.25,-63.05"/>
<polygon fill="midnightblue" stroke="midnightblue" points="558.77,-81.15 569.29,-79.91 560.3,-74.31 558.77,-81.15"/>
</g>
<!-- Node7 -->
<g id="node7" class="node">
<title>Node7</title>
<g id="a_node7"><a xlink:href="classtest_1_1ScreenFramebufferManualTest.html#a1ac3bc71e35edffa4be1774dbc9faead" target="_top" xlink:title="Verification de la calibration : affiche 5 croix et mesure l&#39;erreur.">
<polygon fill="white" stroke="black" points="206,-0.5 206,-30.5 376,-30.5 376,-0.5 206,-0.5"/>
<text text-anchor="start" x="214" y="-18.5" font-family="Helvetica,sans-Serif" font-size="10.00">test::ScreenFramebufferManual</text>
<text text-anchor="middle" x="291" y="-7.5" font-family="Helvetica,sans-Serif" font-size="10.00">Test::testVerifyCalibration</text>
</a>
</g>
</g>
<!-- Node1&#45;&gt;Node7 -->
<g id="edge13" class="edge">
<title>Node1&#45;&gt;Node7</title>
<path fill="none" stroke="midnightblue" d="M571.64,-76.47C555.48,-70.75 535.92,-64.26 518,-59.5 471.54,-47.16 418.86,-36.71 376.06,-29.09"/>
<polygon fill="midnightblue" stroke="midnightblue" points="570.62,-79.83 581.22,-79.92 572.99,-73.24 570.62,-79.83"/>
</g>
<!-- Node2&#45;&gt;Node3 -->
<g id="edge2" class="edge">
<title>Node2&#45;&gt;Node3</title>
<path fill="none" stroke="midnightblue" d="M440.43,-104.58C423.12,-115.17 398.76,-129.06 376,-138.5 368.15,-141.75 359.72,-144.73 351.33,-147.4"/>
<polygon fill="midnightblue" stroke="midnightblue" points="442.62,-107.34 449.27,-99.09 438.93,-101.4 442.62,-107.34"/>
</g>
<!-- Node2&#45;&gt;Node5 -->
<g id="edge4" class="edge">
<title>Node2&#45;&gt;Node5</title>
<path fill="none" stroke="midnightblue" d="M401.94,-98.16C393.61,-99.32 384.95,-100.53 376.31,-101.74"/>
<polygon fill="midnightblue" stroke="midnightblue" points="402.51,-101.61 411.93,-96.77 401.54,-94.68 402.51,-101.61"/>
</g>
<!-- Node2&#45;&gt;Node6 -->
<g id="edge6" class="edge">
<title>Node2&#45;&gt;Node6</title>
<path fill="none" stroke="midnightblue" d="M401.94,-80.48C393.61,-79.27 384.95,-78.01 376.31,-76.75"/>
<polygon fill="midnightblue" stroke="midnightblue" points="401.53,-83.96 411.93,-81.93 402.54,-77.03 401.53,-83.96"/>
</g>
<!-- Node2&#45;&gt;Node7 -->
<g id="edge8" class="edge">
<title>Node2&#45;&gt;Node7</title>
<path fill="none" stroke="midnightblue" d="M440.4,-74.49C423.08,-63.95 398.71,-50.06 376,-40.5 367.31,-36.84 357.9,-33.48 348.63,-30.5"/>
<polygon fill="midnightblue" stroke="midnightblue" points="438.9,-77.68 449.25,-79.96 442.58,-71.73 438.9,-77.68"/>
</g>
<!-- Node4 -->
<g id="node4" class="node">
<title>Node4</title>
<g id="a_node4"><a xlink:href="classtest_1_1ScreenFramebufferManualTest.html#ac673616f4b2bd77e32b8b66d15e76bca" target="_top" xlink:title="Execute les tests associés à la classe.">
<polygon fill="white" stroke="black" points="0,-73.5 0,-103.5 170,-103.5 170,-73.5 0,-73.5"/>
<text text-anchor="start" x="8" y="-91.5" font-family="Helvetica,sans-Serif" font-size="10.00">test::ScreenFramebufferManual</text>
<text text-anchor="middle" x="85" y="-80.5" font-family="Helvetica,sans-Serif" font-size="10.00">Test::suite</text>
</a>
</g>
</g>
<!-- Node3&#45;&gt;Node4 -->
<g id="edge3" class="edge">
<title>Node3&#45;&gt;Node4</title>
<path fill="none" stroke="midnightblue" d="M224.05,-144.45C217.92,-142.53 211.82,-140.54 206,-138.5 176.18,-128.07 143.08,-114.09 119.22,-103.57"/>
<polygon fill="midnightblue" stroke="midnightblue" points="223.1,-147.82 233.69,-147.39 225.14,-141.12 223.1,-147.82"/>
</g>
<!-- Node5&#45;&gt;Node4 -->
<g id="edge5" class="edge">
<title>Node5&#45;&gt;Node4</title>
<path fill="none" stroke="midnightblue" d="M195.88,-101.97C187.34,-100.92 178.73,-99.86 170.29,-98.83"/>
<polygon fill="midnightblue" stroke="midnightblue" points="195.5,-105.44 205.85,-103.19 196.35,-98.5 195.5,-105.44"/>
</g>
<!-- Node6&#45;&gt;Node4 -->
<g id="edge7" class="edge">
<title>Node6&#45;&gt;Node4</title>
<path fill="none" stroke="midnightblue" d="M195.88,-75.57C187.34,-76.58 178.73,-77.59 170.29,-78.58"/>
<polygon fill="midnightblue" stroke="midnightblue" points="196.33,-79.04 205.85,-74.4 195.51,-72.09 196.33,-79.04"/>
</g>
<!-- Node7&#45;&gt;Node4 -->
<g id="edge9" class="edge">
<title>Node7&#45;&gt;Node4</title>
<path fill="none" stroke="midnightblue" d="M227.16,-33.52C219.99,-35.78 212.82,-38.13 206,-40.5 177.07,-50.57 144.88,-63.54 121.12,-73.47"/>
<polygon fill="midnightblue" stroke="midnightblue" points="228.37,-36.81 236.89,-30.51 226.3,-30.12 228.37,-36.81"/>
</g>
</g>
</svg>
