<?xml version="1.0" encoding="UTF-8" standalone="no"?>
<!DOCTYPE svg PUBLIC "-//W3C//DTD SVG 1.1//EN"
 "http://www.w3.org/Graphics/SVG/1.1/DTD/svg11.dtd">
<!-- Generated by graphviz version 2.43.0 (0)
 -->
<!-- Title: Framebuffer::drawCross Pages: 1 -->
<svg width="553pt" height="137pt"
 viewBox="0.00 0.00 553.00 137.00" xmlns="http://www.w3.org/2000/svg" xmlns:xlink="http://www.w3.org/1999/xlink">
<g id="graph0" class="graph" transform="scale(1 1) rotate(0) translate(4 133)">
<title>Framebuffer::drawCross</title>
<polygon fill="white" stroke="transparent" points="-4,4 -4,-133 549,-133 549,4 -4,4"/>
<!-- Node1 -->
<g id="node1" class="node">
<title>Node1</title>
<g id="a_node1"><a xlink:title=" ">
<polygon fill="#bfbfbf" stroke="black" points="412,-55 412,-74 545,-74 545,-55 412,-55"/>
<text text-anchor="middle" x="478.5" y="-62" font-family="Helvetica,sans-Serif" font-size="10.00">Framebuffer::drawCross</text>
</a>
</g>
</g>
<!-- Node2 -->
<g id="node2" class="node">
<title>Node2</title>
<g id="a_node2"><a xlink:href="classtest_1_1ScreenFramebufferManualTest.html#a179e1fc7fb0059b21448df985295686e" target="_top" xlink:title="Calibration tactile 3 points : affiche des croix cibles et mesure les coordonnees brutes pour calcule...">
<polygon fill="white" stroke="black" points="206,-98.5 206,-128.5 376,-128.5 376,-98.5 206,-98.5"/>
<text text-anchor="start" x="214" y="-116.5" font-family="Helvetica,sans-Serif" font-size="10.00">test::ScreenFramebufferManual</text>
<text text-anchor="middle" x="291" y="-105.5" font-family="Helvetica,sans-Serif" font-size="10.00">Test::testCalibration</text>
</a>
</g>
</g>
<!-- Node1&#45;&gt;Node2 -->
<g id="edge1" class="edge">
<title>Node1&#45;&gt;Node2</title>
<path fill="none" stroke="midnightblue" d="M431.35,-76.69C406.4,-83.28 375.37,-91.48 348.93,-98.46"/>
<polygon fill="midnightblue" stroke="midnightblue" points="432.52,-80 441.29,-74.06 430.73,-73.23 432.52,-80"/>
</g>
<!-- Node4 -->
<g id="node4" class="node">
<title>Node4</title>
<g id="a_node4"><a xlink:href="classtest_1_1ScreenFramebufferManualTest.html#a7e6ef2ec4f48e6ac92f23efb39b15359" target="_top" xlink:title="Test tactile : lit les events et dessine des croix.">
<polygon fill="white" stroke="black" points="206,-49.5 206,-79.5 376,-79.5 376,-49.5 206,-49.5"/>
<text text-anchor="start" x="214" y="-67.5" font-family="Helvetica,sans-Serif" font-size="10.00">test::ScreenFramebufferManual</text>
<text text-anchor="middle" x="291" y="-56.5" font-family="Helvetica,sans-Serif" font-size="10.00">Test::testTouchscreen</text>
</a>
</g>
</g>
<!-- Node1&#45;&gt;Node4 -->
<g id="edge3" class="edge">
<title>Node1&#45;&gt;Node4</title>
<path fill="none" stroke="midnightblue" d="M401.67,-64.5C393.24,-64.5 384.62,-64.5 376.09,-64.5"/>
<polygon fill="midnightblue" stroke="midnightblue" points="401.84,-68 411.84,-64.5 401.84,-61 401.84,-68"/>
</g>
<!-- Node5 -->
<g id="node5" class="node">
<title>Node5</title>
<g id="a_node5"><a xlink:href="classtest_1_1ScreenFramebufferManualTest.html#a1ac3bc71e35edffa4be1774dbc9faead" target="_top" xlink:title="Verification de la calibration : affiche 5 croix et mesure l&#39;erreur.">
<polygon fill="white" stroke="black" points="206,-0.5 206,-30.5 376,-30.5 376,-0.5 206,-0.5"/>
<text text-anchor="start" x="214" y="-18.5" font-family="Helvetica,sans-Serif" font-size="10.00">test::ScreenFramebufferManual</text>
<text text-anchor="middle" x="291" y="-7.5" font-family="Helvetica,sans-Serif" font-size="10.00">Test::testVerifyCalibration</text>
</a>
</g>
</g>
<!-- Node1&#45;&gt;Node5 -->
<g id="edge5" class="edge">
<title>Node1&#45;&gt;Node5</title>
<path fill="none" stroke="midnightblue" d="M431.35,-52.31C406.4,-45.72 375.37,-37.52 348.93,-30.54"/>
<polygon fill="midnightblue" stroke="midnightblue" points="430.73,-55.77 441.29,-54.94 432.52,-49 430.73,-55.77"/>
</g>
<!-- Node3 -->
<g id="node3" class="node">
<title>Node3</title>
<g id="a_node3"><a xlink:href="classtest_1_1ScreenFramebufferManualTest.html#ac673616f4b2bd77e32b8b66d15e76bca" target="_top" xlink:title="Execute les tests associés à la classe.">
<polygon fill="white" stroke="black" points="0,-49.5 0,-79.5 170,-79.5 170,-49.5 0,-49.5"/>
<text text-anchor="start" x="8" y="-67.5" font-family="Helvetica,sans-Serif" font-size="10.00">test::ScreenFramebufferManual</text>
<text text-anchor="middle" x="85" y="-56.5" font-family="Helvetica,sans-Serif" font-size="10.00">Test::suite</text>
</a>
</g>
</g>
<!-- Node2&#45;&gt;Node3 -->
<g id="edge2" class="edge">
<title>Node2&#45;&gt;Node3</title>
<path fill="none" stroke="midnightblue" d="M217.54,-96.1C194.98,-90.68 170.3,-84.75 148.47,-79.51"/>
<polygon fill="midnightblue" stroke="midnightblue" points="216.87,-99.53 227.41,-98.47 218.5,-92.73 216.87,-99.53"/>
</g>
<!-- Node4&#45;&gt;Node3 -->
<g id="edge4" class="edge">
<title>Node4&#45;&gt;Node3</title>
<path fill="none" stroke="midnightblue" d="M195.6,-64.5C187.15,-64.5 178.64,-64.5 170.29,-64.5"/>
<polygon fill="midnightblue" stroke="midnightblue" points="195.85,-68 205.85,-64.5 195.85,-61 195.85,-68"/>
</g>
<!-- Node5&#45;&gt;Node3 -->
<g id="edge6" class="edge">
<title>Node5&#45;&gt;Node3</title>
<path fill="none" stroke="midnightblue" d="M217.54,-32.9C194.98,-38.32 170.3,-44.25 148.47,-49.49"/>
<polygon fill="midnightblue" stroke="midnightblue" points="218.5,-36.27 227.41,-30.53 216.87,-29.47 218.5,-36.27"/>
</g>
</g>
</svg>
