<?xml version="1.0" encoding="UTF-8" standalone="no"?>
<!DOCTYPE svg PUBLIC "-//W3C//DTD SVG 1.1//EN"
 "http://www.w3.org/Graphics/SVG/1.1/DTD/svg11.dtd">
<!-- Generated by graphviz version 2.43.0 (0)
 -->
<!-- Title: test/common/SvgAppenderTest.hpp Pages: 1 -->
<svg width="528pt" height="319pt"
 viewBox="0.00 0.00 528.35 319.00" xmlns="http://www.w3.org/2000/svg" xmlns:xlink="http://www.w3.org/1999/xlink">
<g id="graph0" class="graph" transform="scale(1 1) rotate(0) translate(4 315)">
<title>test/common/SvgAppenderTest.hpp</title>
<polygon fill="white" stroke="transparent" points="-4,4 -4,-315 524.35,-315 524.35,4 -4,4"/>
<!-- Node1 -->
<g id="node1" class="node">
<title>Node1</title>
<g id="a_node1"><a xlink:title="Définition de la classe SvgAppenderTest.">
<polygon fill="#bfbfbf" stroke="black" points="0,-291.5 0,-310.5 189,-310.5 189,-291.5 0,-291.5"/>
<text text-anchor="middle" x="94.5" y="-298.5" font-family="Helvetica,sans-Serif" font-size="10.00">test/common/SvgAppenderTest.hpp</text>
</a>
</g>
</g>
<!-- Node2 -->
<g id="node2" class="node">
<title>Node2</title>
<g id="a_node2"><a xlink:href="UnitTest_8hpp.html" target="_top" xlink:title="Définition de la classe DevUnitTest.">
<polygon fill="white" stroke="black" points="38,-235.5 38,-254.5 151,-254.5 151,-235.5 38,-235.5"/>
<text text-anchor="middle" x="94.5" y="-242.5" font-family="Helvetica,sans-Serif" font-size="10.00">../suite/UnitTest.hpp</text>
</a>
</g>
</g>
<!-- Node1&#45;&gt;Node2 -->
<g id="edge1" class="edge">
<title>Node1&#45;&gt;Node2</title>
<path fill="none" stroke="midnightblue" d="M94.5,-291.08C94.5,-284.01 94.5,-273.86 94.5,-264.99"/>
<polygon fill="midnightblue" stroke="midnightblue" points="98,-264.75 94.5,-254.75 91,-264.75 98,-264.75"/>
</g>
<!-- Node3 -->
<g id="node3" class="node">
<title>Node3</title>
<g id="a_node3"><a xlink:title=" ">
<polygon fill="white" stroke="#bfbfbf" points="82.5,-0.5 82.5,-19.5 126.5,-19.5 126.5,-0.5 82.5,-0.5"/>
<text text-anchor="middle" x="104.5" y="-7.5" font-family="Helvetica,sans-Serif" font-size="10.00">string</text>
</a>
</g>
</g>
<!-- Node2&#45;&gt;Node3 -->
<g id="edge2" class="edge">
<title>Node2&#45;&gt;Node3</title>
<path fill="none" stroke="midnightblue" d="M89.36,-235.38C73.77,-208.04 29.68,-121.16 57.5,-56 62.65,-43.95 72.78,-33.58 82.33,-25.84"/>
<polygon fill="midnightblue" stroke="midnightblue" points="84.54,-28.55 90.42,-19.74 80.33,-22.96 84.54,-28.55"/>
</g>
<!-- Node4 -->
<g id="node4" class="node">
<title>Node4</title>
<g id="a_node4"><a xlink:href="LoggerFactory_8hpp.html" target="_top" xlink:title="Définition de la classe LoggerFactory.">
<polygon fill="white" stroke="black" points="126,-168.5 126,-198.5 239,-198.5 239,-168.5 126,-168.5"/>
<text text-anchor="start" x="134" y="-186.5" font-family="Helvetica,sans-Serif" font-size="10.00">../../src/common/log</text>
<text text-anchor="middle" x="182.5" y="-175.5" font-family="Helvetica,sans-Serif" font-size="10.00">/LoggerFactory.hpp</text>
</a>
</g>
</g>
<!-- Node2&#45;&gt;Node4 -->
<g id="edge3" class="edge">
<title>Node2&#45;&gt;Node4</title>
<path fill="none" stroke="midnightblue" d="M107.11,-235.48C119.14,-227.34 137.7,-214.79 153.4,-204.18"/>
<polygon fill="midnightblue" stroke="midnightblue" points="155.44,-207.02 161.76,-198.52 151.52,-201.22 155.44,-207.02"/>
</g>
<!-- Node4&#45;&gt;Node3 -->
<g id="edge5" class="edge">
<title>Node4&#45;&gt;Node3</title>
<path fill="none" stroke="midnightblue" d="M156.72,-168.47C127.82,-151.1 82.51,-118.52 63.5,-76 55.44,-57.98 70.4,-39.07 84.45,-26.33"/>
<polygon fill="midnightblue" stroke="midnightblue" points="87.05,-28.71 92.44,-19.59 82.54,-23.36 87.05,-28.71"/>
</g>
<!-- Node5 -->
<g id="node5" class="node">
<title>Node5</title>
<g id="a_node5"><a xlink:title=" ">
<polygon fill="white" stroke="#bfbfbf" points="235.5,-112.5 235.5,-131.5 273.5,-131.5 273.5,-112.5 235.5,-112.5"/>
<text text-anchor="middle" x="254.5" y="-119.5" font-family="Helvetica,sans-Serif" font-size="10.00">map</text>
</a>
</g>
</g>
<!-- Node4&#45;&gt;Node5 -->
<g id="edge4" class="edge">
<title>Node4&#45;&gt;Node5</title>
<path fill="none" stroke="midnightblue" d="M199.56,-168.4C210.56,-159.31 224.87,-147.49 236.12,-138.19"/>
<polygon fill="midnightblue" stroke="midnightblue" points="238.54,-140.73 244.02,-131.66 234.09,-135.33 238.54,-140.73"/>
</g>
<!-- Node6 -->
<g id="node6" class="node">
<title>Node6</title>
<g id="a_node6"><a xlink:href="Thread_8hpp.html" target="_top" xlink:title="Définition de la classe Thread.">
<polygon fill="white" stroke="black" points="331,-112.5 331,-131.5 446,-131.5 446,-112.5 331,-112.5"/>
<text text-anchor="middle" x="388.5" y="-119.5" font-family="Helvetica,sans-Serif" font-size="10.00">../thread/Thread.hpp</text>
</a>
</g>
</g>
<!-- Node4&#45;&gt;Node6 -->
<g id="edge6" class="edge">
<title>Node4&#45;&gt;Node6</title>
<path fill="none" stroke="midnightblue" d="M231.06,-168.47C267.06,-158.08 315.52,-144.08 349.13,-134.37"/>
<polygon fill="midnightblue" stroke="midnightblue" points="350.41,-137.64 359.05,-131.51 348.47,-130.92 350.41,-137.64"/>
</g>
<!-- Node11 -->
<g id="node11" class="node">
<title>Node11</title>
<g id="a_node11"><a xlink:href="Logger_8hpp.html" target="_top" xlink:title="Définition de la classe Logger.">
<polygon fill="white" stroke="black" points="147.5,-112.5 147.5,-131.5 217.5,-131.5 217.5,-112.5 147.5,-112.5"/>
<text text-anchor="middle" x="182.5" y="-119.5" font-family="Helvetica,sans-Serif" font-size="10.00">Logger.hpp</text>
</a>
</g>
</g>
<!-- Node4&#45;&gt;Node11 -->
<g id="edge13" class="edge">
<title>Node4&#45;&gt;Node11</title>
<path fill="none" stroke="midnightblue" d="M182.5,-168.4C182.5,-160.47 182.5,-150.46 182.5,-141.86"/>
<polygon fill="midnightblue" stroke="midnightblue" points="186,-141.66 182.5,-131.66 179,-141.66 186,-141.66"/>
</g>
<!-- Node6&#45;&gt;Node3 -->
<g id="edge8" class="edge">
<title>Node6&#45;&gt;Node3</title>
<path fill="none" stroke="midnightblue" d="M385.05,-112.2C378.97,-97.91 364.91,-69.9 343.5,-56 309.81,-34.14 194.21,-19.92 137.04,-14.05"/>
<polygon fill="midnightblue" stroke="midnightblue" points="137.05,-10.54 126.75,-13.03 136.36,-17.5 137.05,-10.54"/>
</g>
<!-- Node7 -->
<g id="node7" class="node">
<title>Node7</title>
<g id="a_node7"><a xlink:title=" ">
<polygon fill="white" stroke="#bfbfbf" points="386,-0.5 386,-19.5 449,-19.5 449,-0.5 386,-0.5"/>
<text text-anchor="middle" x="417.5" y="-7.5" font-family="Helvetica,sans-Serif" font-size="10.00">pthread.h</text>
</a>
</g>
</g>
<!-- Node6&#45;&gt;Node7 -->
<g id="edge7" class="edge">
<title>Node6&#45;&gt;Node7</title>
<path fill="none" stroke="midnightblue" d="M446.2,-115.38C471.82,-109.67 499.71,-98.35 515.5,-76 533.89,-49.97 493.42,-31.52 459.03,-21.08"/>
<polygon fill="midnightblue" stroke="midnightblue" points="459.66,-17.62 449.09,-18.22 457.73,-24.35 459.66,-17.62"/>
</g>
<!-- Node8 -->
<g id="node8" class="node">
<title>Node8</title>
<g id="a_node8"><a xlink:title=" ">
<polygon fill="white" stroke="#bfbfbf" points="390.5,-56.5 390.5,-75.5 438.5,-75.5 438.5,-56.5 390.5,-56.5"/>
<text text-anchor="middle" x="414.5" y="-63.5" font-family="Helvetica,sans-Serif" font-size="10.00">thread</text>
</a>
</g>
</g>
<!-- Node6&#45;&gt;Node8 -->
<g id="edge9" class="edge">
<title>Node6&#45;&gt;Node8</title>
<path fill="none" stroke="midnightblue" d="M392.79,-112.08C396.35,-104.69 401.52,-93.95 405.92,-84.81"/>
<polygon fill="midnightblue" stroke="midnightblue" points="409.1,-86.28 410.29,-75.75 402.79,-83.24 409.1,-86.28"/>
</g>
<!-- Node9 -->
<g id="node9" class="node">
<title>Node9</title>
<g id="a_node9"><a xlink:href="Mutex_8hpp.html" target="_top" xlink:title="Définition de la classe Mutex.">
<polygon fill="white" stroke="black" points="266.5,-56.5 266.5,-75.5 334.5,-75.5 334.5,-56.5 266.5,-56.5"/>
<text text-anchor="middle" x="300.5" y="-63.5" font-family="Helvetica,sans-Serif" font-size="10.00">Mutex.hpp</text>
</a>
</g>
</g>
<!-- Node6&#45;&gt;Node9 -->
<g id="edge10" class="edge">
<title>Node6&#45;&gt;Node9</title>
<path fill="none" stroke="midnightblue" d="M374.36,-112.32C360.63,-103.9 339.56,-90.97 323.44,-81.07"/>
<polygon fill="midnightblue" stroke="midnightblue" points="324.96,-77.9 314.6,-75.65 321.3,-83.87 324.96,-77.9"/>
</g>
<!-- Node10 -->
<g id="node10" class="node">
<title>Node10</title>
<g id="a_node10"><a xlink:title=" ">
<polygon fill="white" stroke="#bfbfbf" points="456.5,-56.5 456.5,-75.5 506.5,-75.5 506.5,-56.5 456.5,-56.5"/>
<text text-anchor="middle" x="481.5" y="-63.5" font-family="Helvetica,sans-Serif" font-size="10.00">chrono</text>
</a>
</g>
</g>
<!-- Node6&#45;&gt;Node10 -->
<g id="edge12" class="edge">
<title>Node6&#45;&gt;Node10</title>
<path fill="none" stroke="midnightblue" d="M403.44,-112.32C418.09,-103.82 440.63,-90.73 457.74,-80.8"/>
<polygon fill="midnightblue" stroke="midnightblue" points="459.7,-83.7 466.6,-75.65 456.19,-77.65 459.7,-83.7"/>
</g>
<!-- Node9&#45;&gt;Node7 -->
<g id="edge11" class="edge">
<title>Node9&#45;&gt;Node7</title>
<path fill="none" stroke="midnightblue" d="M319.04,-56.44C338.12,-47.64 368.07,-33.81 389.94,-23.72"/>
<polygon fill="midnightblue" stroke="midnightblue" points="391.43,-26.88 399.05,-19.52 388.5,-20.53 391.43,-26.88"/>
</g>
<!-- Node11&#45;&gt;Node3 -->
<g id="edge15" class="edge">
<title>Node11&#45;&gt;Node3</title>
<path fill="none" stroke="midnightblue" d="M193.83,-112.32C209.03,-99.6 232.68,-75.3 219.5,-56 201.15,-29.11 164.11,-18.29 137.01,-13.93"/>
<polygon fill="midnightblue" stroke="midnightblue" points="137.19,-10.43 126.8,-12.52 136.23,-17.36 137.19,-10.43"/>
</g>
<!-- Node11&#45;&gt;Node9 -->
<g id="edge16" class="edge">
<title>Node11&#45;&gt;Node9</title>
<path fill="none" stroke="midnightblue" d="M201.2,-112.44C220.44,-103.64 250.65,-89.81 272.7,-79.72"/>
<polygon fill="midnightblue" stroke="midnightblue" points="274.25,-82.86 281.89,-75.52 271.34,-76.5 274.25,-82.86"/>
</g>
<!-- Node12 -->
<g id="node12" class="node">
<title>Node12</title>
<g id="a_node12"><a xlink:title=" ">
<polygon fill="white" stroke="#bfbfbf" points="154.5,-56.5 154.5,-75.5 210.5,-75.5 210.5,-56.5 154.5,-56.5"/>
<text text-anchor="middle" x="182.5" y="-63.5" font-family="Helvetica,sans-Serif" font-size="10.00">sstream</text>
</a>
</g>
</g>
<!-- Node11&#45;&gt;Node12 -->
<g id="edge14" class="edge">
<title>Node11&#45;&gt;Node12</title>
<path fill="none" stroke="midnightblue" d="M182.5,-112.08C182.5,-105.01 182.5,-94.86 182.5,-85.99"/>
<polygon fill="midnightblue" stroke="midnightblue" points="186,-85.75 182.5,-75.75 179,-85.75 186,-85.75"/>
</g>
<!-- Node13 -->
<g id="node13" class="node">
<title>Node13</title>
<g id="a_node13"><a xlink:href="Level_8hpp.html" target="_top" xlink:title="Définition de la classe Level.">
<polygon fill="white" stroke="black" points="72.5,-56.5 72.5,-75.5 136.5,-75.5 136.5,-56.5 72.5,-56.5"/>
<text text-anchor="middle" x="104.5" y="-63.5" font-family="Helvetica,sans-Serif" font-size="10.00">Level.hpp</text>
</a>
</g>
</g>
<!-- Node11&#45;&gt;Node13 -->
<g id="edge17" class="edge">
<title>Node11&#45;&gt;Node13</title>
<path fill="none" stroke="midnightblue" d="M169.97,-112.32C157.91,-103.98 139.47,-91.21 125.23,-81.35"/>
<polygon fill="midnightblue" stroke="midnightblue" points="127.22,-78.47 117,-75.65 123.23,-84.22 127.22,-78.47"/>
</g>
<!-- Node13&#45;&gt;Node3 -->
<g id="edge18" class="edge">
<title>Node13&#45;&gt;Node3</title>
<path fill="none" stroke="midnightblue" d="M104.5,-56.08C104.5,-49.01 104.5,-38.86 104.5,-29.99"/>
<polygon fill="midnightblue" stroke="midnightblue" points="108,-29.75 104.5,-19.75 101,-29.75 108,-29.75"/>
</g>
</g>
</svg>
