<?xml version="1.0" encoding="UTF-8" standalone="no"?>
<!DOCTYPE svg PUBLIC "-//W3C//DTD SVG 1.1//EN"
 "http://www.w3.org/Graphics/SVG/1.1/DTD/svg11.dtd">
<!-- Generated by graphviz version 2.43.0 (0)
 -->
<!-- Title: test/common/SvgAppenderTest.hpp Pages: 1 -->
<svg width="342pt" height="84pt"
 viewBox="0.00 0.00 342.00 84.00" xmlns="http://www.w3.org/2000/svg" xmlns:xlink="http://www.w3.org/1999/xlink">
<g id="graph0" class="graph" transform="scale(1 1) rotate(0) translate(4 80)">
<title>test/common/SvgAppenderTest.hpp</title>
<polygon fill="white" stroke="transparent" points="-4,4 -4,-80 338,-80 338,4 -4,4"/>
<!-- Node1 -->
<g id="node1" class="node">
<title>Node1</title>
<g id="a_node1"><a xlink:title="Définition de la classe SvgAppenderTest.">
<polygon fill="#bfbfbf" stroke="black" points="57.5,-56.5 57.5,-75.5 246.5,-75.5 246.5,-56.5 57.5,-56.5"/>
<text text-anchor="middle" x="152" y="-63.5" font-family="Helvetica,sans-Serif" font-size="10.00">test/common/SvgAppenderTest.hpp</text>
</a>
</g>
</g>
<!-- Node2 -->
<g id="node2" class="node">
<title>Node2</title>
<g id="a_node2"><a xlink:href="common_2Main_8cpp.html" target="_top" xlink:title="Point d&#39;entrée des tests unitaires common.">
<polygon fill="white" stroke="black" points="0,-0.5 0,-19.5 128,-19.5 128,-0.5 0,-0.5"/>
<text text-anchor="middle" x="64" y="-7.5" font-family="Helvetica,sans-Serif" font-size="10.00">test/common/Main.cpp</text>
</a>
</g>
</g>
<!-- Node1&#45;&gt;Node2 -->
<g id="edge1" class="edge">
<title>Node1&#45;&gt;Node2</title>
<path fill="none" stroke="midnightblue" d="M129.02,-50.9C112.89,-41 91.82,-28.07 78.1,-19.65"/>
<polygon fill="midnightblue" stroke="midnightblue" points="127.51,-54.08 137.86,-56.32 131.17,-48.11 127.51,-54.08"/>
</g>
<!-- Node3 -->
<g id="node3" class="node">
<title>Node3</title>
<g id="a_node3"><a xlink:href="SvgAppenderTest_8cpp.html" target="_top" xlink:title="Implémentation des tests de la classe logs::SvgAppender.">
<polygon fill="white" stroke="black" points="146,-0.5 146,-19.5 334,-19.5 334,-0.5 146,-0.5"/>
<text text-anchor="middle" x="240" y="-7.5" font-family="Helvetica,sans-Serif" font-size="10.00">test/common/SvgAppenderTest.cpp</text>
</a>
</g>
</g>
<!-- Node1&#45;&gt;Node3 -->
<g id="edge2" class="edge">
<title>Node1&#45;&gt;Node3</title>
<path fill="none" stroke="midnightblue" d="M174.98,-50.9C191.11,-41 212.18,-28.07 225.9,-19.65"/>
<polygon fill="midnightblue" stroke="midnightblue" points="172.83,-48.11 166.14,-56.32 176.49,-54.08 172.83,-48.11"/>
</g>
</g>
</svg>
