<?xml version="1.0" encoding="UTF-8" standalone="no"?>
<!DOCTYPE svg PUBLIC "-//W3C//DTD SVG 1.1//EN"
 "http://www.w3.org/Graphics/SVG/1.1/DTD/svg11.dtd">
<!-- Generated by graphviz version 2.43.0 (0)
 -->
<!-- Title: src/common/log/appender/SvgAppender.hpp Pages: 1 -->
<svg width="358pt" height="106pt"
 viewBox="0.00 0.00 357.50 106.00" xmlns="http://www.w3.org/2000/svg" xmlns:xlink="http://www.w3.org/1999/xlink">
<g id="graph0" class="graph" transform="scale(1 1) rotate(0) translate(4 102)">
<title>src/common/log/appender/SvgAppender.hpp</title>
<polygon fill="white" stroke="transparent" points="-4,4 -4,-102 353.5,-102 353.5,4 -4,4"/>
<!-- Node1 -->
<g id="node1" class="node">
<title>Node1</title>
<g id="a_node1"><a xlink:title="Définition de la classe SvgAppender.">
<polygon fill="#bfbfbf" stroke="black" points="92,-67.5 92,-97.5 235,-97.5 235,-67.5 92,-67.5"/>
<text text-anchor="start" x="100" y="-85.5" font-family="Helvetica,sans-Serif" font-size="10.00">src/common/log/appender</text>
<text text-anchor="middle" x="163.5" y="-74.5" font-family="Helvetica,sans-Serif" font-size="10.00">/SvgAppender.hpp</text>
</a>
</g>
</g>
<!-- Node2 -->
<g id="node2" class="node">
<title>Node2</title>
<g id="a_node2"><a xlink:href="SvgAppender_8cpp.html" target="_top" xlink:title="Implémentation de la classe SvgAppender.">
<polygon fill="white" stroke="black" points="0,-0.5 0,-30.5 143,-30.5 143,-0.5 0,-0.5"/>
<text text-anchor="start" x="8" y="-18.5" font-family="Helvetica,sans-Serif" font-size="10.00">src/common/log/appender</text>
<text text-anchor="middle" x="71.5" y="-7.5" font-family="Helvetica,sans-Serif" font-size="10.00">/SvgAppender.cpp</text>
</a>
</g>
</g>
<!-- Node1&#45;&gt;Node2 -->
<g id="edge1" class="edge">
<title>Node1&#45;&gt;Node2</title>
<path fill="none" stroke="midnightblue" d="M135.12,-61.45C120.97,-51.45 104.19,-39.6 91.42,-30.58"/>
<polygon fill="midnightblue" stroke="midnightblue" points="133.35,-64.48 143.54,-67.4 137.39,-58.77 133.35,-64.48"/>
</g>
<!-- Node3 -->
<g id="node3" class="node">
<title>Node3</title>
<g id="a_node3"><a xlink:href="SvgAppenderTest_8cpp.html" target="_top" xlink:title="Implémentation des tests de la classe logs::SvgAppender.">
<polygon fill="white" stroke="black" points="161.5,-6 161.5,-25 349.5,-25 349.5,-6 161.5,-6"/>
<text text-anchor="middle" x="255.5" y="-13" font-family="Helvetica,sans-Serif" font-size="10.00">test/common/SvgAppenderTest.cpp</text>
</a>
</g>
</g>
<!-- Node1&#45;&gt;Node3 -->
<g id="edge2" class="edge">
<title>Node1&#45;&gt;Node3</title>
<path fill="none" stroke="midnightblue" d="M192.08,-61.31C209.36,-49.1 230.48,-34.18 243.46,-25.01"/>
<polygon fill="midnightblue" stroke="midnightblue" points="189.61,-58.77 183.46,-67.4 193.65,-64.48 189.61,-58.77"/>
</g>
</g>
</svg>
