<?xml version="1.0" encoding="UTF-8" standalone="no"?>
<!DOCTYPE svg PUBLIC "-//W3C//DTD SVG 1.1//EN"
 "http://www.w3.org/Graphics/SVG/1.1/DTD/svg11.dtd">
<!-- Generated by graphviz version 2.43.0 (0)
 -->
<!-- Title: src/common/log/appender/TelemetryAppender.hpp Pages: 1 -->
<!--zoomable 263 -->
<svg id="main" version="1.1" xmlns="http://www.w3.org/2000/svg" xmlns:xlink="http://www.w3.org/1999/xlink" xml:space="preserve" onload="init(evt)">
<style type="text/css"><![CDATA[
.edge:hover path { stroke: red; }
.edge:hover polygon { stroke: red; fill: red; }
]]></style>
<script type="text/javascript"><![CDATA[
var edges = document.getElementsByTagName('g');
if (edges && edges.length) {
  for (var i=0;i<edges.length;i++) {
    if (edges[i].id.substr(0,4)=='edge') {
      edges[i].setAttribute('class','edge');
    }
  }
}
]]></script>
        <defs>
                <circle id="rim" cx="0" cy="0" r="7"/>
                <circle id="rim2" cx="0" cy="0" r="3.5"/>
                <g id="zoomPlus">
                        <use xlink:href="#rim" fill="#404040">
                                <set attributeName="fill" to="#808080" begin="zoomplus.mouseover" end="zoomplus.mouseout"/>
                        </use>
                        <path d="M-4,0h8M0,-4v8" fill="none" stroke="white" stroke-width="1.5" pointer-events="none"/>
                </g>
                <g id="zoomMin">
                        <use xlink:href="#rim" fill="#404040">
                                <set attributeName="fill" to="#808080" begin="zoomminus.mouseover" end="zoomminus.mouseout"/>
                        </use>
                        <path d="M-4,0h8" fill="none" stroke="white" stroke-width="1.5" pointer-events="none"/>
                </g>
                <g id="dirArrow">
                        <path fill="none" stroke="white" stroke-width="1.5" d="M0,-3.0v7 M-2.5,-0.5L0,-3.0L2.5,-0.5"/>
                </g>
               <g id="resetDef">
                       <use xlink:href="#rim2" fill="#404040">
                               <set attributeName="fill" to="#808080" begin="reset.mouseover" end="reset.mouseout"/>
                       </use>
               </g>
        </defs>

<script type="text/javascript">
var viewWidth = 877;
var viewHeight = 263;
var sectionId = 'dynsection-0';
</script>
<script xlink:href="svgpan.js"/>
<svg id="graph" class="graph">
<g id="viewport">
<title>src/common/log/appender/TelemetryAppender.hpp</title>
<polygon fill="white" stroke="transparent" points="-4,4 -4,-259 872.66,-259 872.66,4 -4,4"/>
<!-- Node1 -->
<g id="node1" class="node">
<title>Node1</title>
<g id="a_node1"><a xlink:title="Définition de la classe TelemetryAppender.">
<polygon fill="#bfbfbf" stroke="black" points="482.16,-224.5 482.16,-254.5 625.16,-254.5 625.16,-224.5 482.16,-224.5"/>
<text text-anchor="start" x="490.16" y="-242.5" font-family="Helvetica,sans-Serif" font-size="10.00">src/common/log/appender</text>
<text text-anchor="middle" x="553.66" y="-231.5" font-family="Helvetica,sans-Serif" font-size="10.00">/TelemetryAppender.hpp</text>
</a>
</g>
</g>
<!-- Node2 -->
<g id="node2" class="node">
<title>Node2</title>
<g id="a_node2"><a xlink:href="LoggerFactory_8hpp.html" target="_top" xlink:title="Définition de la classe LoggerFactory.">
<polygon fill="white" stroke="black" points="167.16,-168.5 167.16,-187.5 280.16,-187.5 280.16,-168.5 167.16,-168.5"/>
<text text-anchor="middle" x="223.66" y="-175.5" font-family="Helvetica,sans-Serif" font-size="10.00">../LoggerFactory.hpp</text>
</a>
</g>
</g>
<!-- Node1&#45;&gt;Node2 -->
<g id="edge1" class="edge">
<title>Node1&#45;&gt;Node2</title>
<path fill="none" stroke="midnightblue" d="M482.06,-225.59C421.92,-214.75 337.1,-199.45 281.27,-189.39"/>
<polygon fill="midnightblue" stroke="midnightblue" points="281.66,-185.9 271.2,-187.57 280.42,-192.79 281.66,-185.9"/>
</g>
<!-- Node4 -->
<g id="node4" class="node">
<title>Node4</title>
<g id="a_node4"><a xlink:title=" ">
<polygon fill="white" stroke="#bfbfbf" points="100.66,-0.5 100.66,-19.5 144.66,-19.5 144.66,-0.5 100.66,-0.5"/>
<text text-anchor="middle" x="122.66" y="-7.5" font-family="Helvetica,sans-Serif" font-size="10.00">string</text>
</a>
</g>
</g>
<!-- Node1&#45;&gt;Node4 -->
<g id="edge26" class="edge">
<title>Node1&#45;&gt;Node4</title>
<path fill="none" stroke="midnightblue" d="M481.98,-236.3C346.36,-230.38 61.01,-208.86 7.66,-132 -22.75,-88.17 50.03,-44.81 93.33,-23.91"/>
<polygon fill="midnightblue" stroke="midnightblue" points="95.03,-26.98 102.59,-19.56 92.05,-20.64 95.03,-26.98"/>
</g>
<!-- Node10 -->
<g id="node10" class="node">
<title>Node10</title>
<g id="a_node10"><a xlink:title=" ">
<polygon fill="white" stroke="#bfbfbf" points="604.66,-56.5 604.66,-75.5 654.66,-75.5 654.66,-56.5 604.66,-56.5"/>
<text text-anchor="middle" x="629.66" y="-63.5" font-family="Helvetica,sans-Serif" font-size="10.00">chrono</text>
</a>
</g>
</g>
<!-- Node1&#45;&gt;Node10 -->
<g id="edge27" class="edge">
<title>Node1&#45;&gt;Node10</title>
<path fill="none" stroke="midnightblue" d="M549.44,-224.45C542.91,-199.83 533.11,-148.06 553.66,-112 562.66,-96.22 579.59,-85.41 595.2,-78.35"/>
<polygon fill="midnightblue" stroke="midnightblue" points="596.76,-81.49 604.66,-74.43 594.08,-75.03 596.76,-81.49"/>
</g>
<!-- Node14 -->
<g id="node14" class="node">
<title>Node14</title>
<g id="a_node14"><a xlink:href="MemoryAppender_8hpp.html" target="_top" xlink:title="Définition de la classe MemoryAppender.">
<polygon fill="white" stroke="black" points="382.66,-168.5 382.66,-187.5 506.66,-187.5 506.66,-168.5 382.66,-168.5"/>
<text text-anchor="middle" x="444.66" y="-175.5" font-family="Helvetica,sans-Serif" font-size="10.00">MemoryAppender.hpp</text>
</a>
</g>
</g>
<!-- Node1&#45;&gt;Node14 -->
<g id="edge18" class="edge">
<title>Node1&#45;&gt;Node14</title>
<path fill="none" stroke="midnightblue" d="M527.83,-224.4C510.2,-214.77 486.96,-202.09 469.54,-192.58"/>
<polygon fill="midnightblue" stroke="midnightblue" points="470.98,-189.38 460.53,-187.66 467.63,-195.52 470.98,-189.38"/>
</g>
<!-- Node15 -->
<g id="node15" class="node">
<title>Node15</title>
<g id="a_node15"><a xlink:title=" ">
<polygon fill="white" stroke="#bfbfbf" points="562.66,-112.5 562.66,-131.5 594.66,-131.5 594.66,-112.5 562.66,-112.5"/>
<text text-anchor="middle" x="578.66" y="-119.5" font-family="Helvetica,sans-Serif" font-size="10.00">list</text>
</a>
</g>
</g>
<!-- Node1&#45;&gt;Node15 -->
<g id="edge25" class="edge">
<title>Node1&#45;&gt;Node15</title>
<path fill="none" stroke="midnightblue" d="M556.73,-224.34C561.23,-203.53 569.65,-164.66 574.64,-141.58"/>
<polygon fill="midnightblue" stroke="midnightblue" points="578.09,-142.18 576.79,-131.67 571.25,-140.7 578.09,-142.18"/>
</g>
<!-- Node16 -->
<g id="node16" class="node">
<title>Node16</title>
<g id="a_node16"><a xlink:title=" ">
<polygon fill="white" stroke="#bfbfbf" points="600.66,-168.5 600.66,-187.5 660.66,-187.5 660.66,-168.5 600.66,-168.5"/>
<text text-anchor="middle" x="630.66" y="-175.5" font-family="Helvetica,sans-Serif" font-size="10.00">iostream</text>
</a>
</g>
</g>
<!-- Node1&#45;&gt;Node16 -->
<g id="edge24" class="edge">
<title>Node1&#45;&gt;Node16</title>
<path fill="none" stroke="midnightblue" d="M571.91,-224.4C583.79,-215.22 599.27,-203.26 611.36,-193.92"/>
<polygon fill="midnightblue" stroke="midnightblue" points="613.69,-196.54 619.46,-187.66 609.41,-191 613.69,-196.54"/>
</g>
<!-- Node17 -->
<g id="node17" class="node">
<title>Node17</title>
<g id="a_node17"><a xlink:title=" ">
<polygon fill="white" stroke="#bfbfbf" points="678.66,-168.5 678.66,-187.5 750.66,-187.5 750.66,-168.5 678.66,-168.5"/>
<text text-anchor="middle" x="714.66" y="-175.5" font-family="Helvetica,sans-Serif" font-size="10.00">netinet/in.h</text>
</a>
</g>
</g>
<!-- Node1&#45;&gt;Node17 -->
<g id="edge28" class="edge">
<title>Node1&#45;&gt;Node17</title>
<path fill="none" stroke="midnightblue" d="M591.82,-224.4C619.19,-214.28 655.7,-200.79 681.79,-191.15"/>
<polygon fill="midnightblue" stroke="midnightblue" points="683.07,-194.41 691.24,-187.66 680.64,-187.84 683.07,-194.41"/>
</g>
<!-- Node18 -->
<g id="node18" class="node">
<title>Node18</title>
<g id="a_node18"><a xlink:title=" ">
<polygon fill="white" stroke="#bfbfbf" points="768.66,-168.5 768.66,-187.5 868.66,-187.5 868.66,-168.5 768.66,-168.5"/>
<text text-anchor="middle" x="818.66" y="-175.5" font-family="Helvetica,sans-Serif" font-size="10.00">../../utils/json.hpp</text>
</a>
</g>
</g>
<!-- Node1&#45;&gt;Node18 -->
<g id="edge29" class="edge">
<title>Node1&#45;&gt;Node18</title>
<path fill="none" stroke="midnightblue" d="M616.13,-224.47C663.45,-213.85 727.48,-199.47 770.78,-189.75"/>
<polygon fill="midnightblue" stroke="midnightblue" points="771.79,-193.11 780.78,-187.51 770.26,-186.28 771.79,-193.11"/>
</g>
<!-- Node3 -->
<g id="node3" class="node">
<title>Node3</title>
<g id="a_node3"><a xlink:title=" ">
<polygon fill="white" stroke="#bfbfbf" points="16.66,-112.5 16.66,-131.5 54.66,-131.5 54.66,-112.5 16.66,-112.5"/>
<text text-anchor="middle" x="35.66" y="-119.5" font-family="Helvetica,sans-Serif" font-size="10.00">map</text>
</a>
</g>
</g>
<!-- Node2&#45;&gt;Node3 -->
<g id="edge2" class="edge">
<title>Node2&#45;&gt;Node3</title>
<path fill="none" stroke="midnightblue" d="M193.88,-168.44C158.35,-158.24 99.38,-141.3 64.35,-131.24"/>
<polygon fill="midnightblue" stroke="midnightblue" points="65.3,-127.87 54.72,-128.47 63.37,-134.6 65.3,-127.87"/>
</g>
<!-- Node2&#45;&gt;Node4 -->
<g id="edge3" class="edge">
<title>Node2&#45;&gt;Node4</title>
<path fill="none" stroke="midnightblue" d="M205.4,-168.35C177.18,-153.83 124,-121.6 102.66,-76 95.42,-60.51 102.77,-41.74 110.53,-28.36"/>
<polygon fill="midnightblue" stroke="midnightblue" points="113.63,-30.01 116.04,-19.7 107.72,-26.25 113.63,-30.01"/>
</g>
<!-- Node5 -->
<g id="node5" class="node">
<title>Node5</title>
<g id="a_node5"><a xlink:href="Thread_8hpp.html" target="_top" xlink:title="Définition de la classe Thread.">
<polygon fill="white" stroke="black" points="315.16,-112.5 315.16,-131.5 430.16,-131.5 430.16,-112.5 315.16,-112.5"/>
<text text-anchor="middle" x="372.66" y="-119.5" font-family="Helvetica,sans-Serif" font-size="10.00">../thread/Thread.hpp</text>
</a>
</g>
</g>
<!-- Node2&#45;&gt;Node5 -->
<g id="edge4" class="edge">
<title>Node2&#45;&gt;Node5</title>
<path fill="none" stroke="midnightblue" d="M247.27,-168.44C272.12,-159.44 311.44,-145.19 339.42,-135.05"/>
<polygon fill="midnightblue" stroke="midnightblue" points="340.96,-138.21 349.17,-131.52 338.57,-131.63 340.96,-138.21"/>
</g>
<!-- Node11 -->
<g id="node11" class="node">
<title>Node11</title>
<g id="a_node11"><a xlink:href="Logger_8hpp.html" target="_top" xlink:title="Définition de la classe Logger.">
<polygon fill="white" stroke="black" points="188.66,-112.5 188.66,-131.5 258.66,-131.5 258.66,-112.5 188.66,-112.5"/>
<text text-anchor="middle" x="223.66" y="-119.5" font-family="Helvetica,sans-Serif" font-size="10.00">Logger.hpp</text>
</a>
</g>
</g>
<!-- Node2&#45;&gt;Node11 -->
<g id="edge12" class="edge">
<title>Node2&#45;&gt;Node11</title>
<path fill="none" stroke="midnightblue" d="M223.66,-168.08C223.66,-161.01 223.66,-150.86 223.66,-141.99"/>
<polygon fill="midnightblue" stroke="midnightblue" points="227.16,-141.75 223.66,-131.75 220.16,-141.75 227.16,-141.75"/>
</g>
<!-- Node5&#45;&gt;Node4 -->
<g id="edge6" class="edge">
<title>Node5&#45;&gt;Node4</title>
<path fill="none" stroke="midnightblue" d="M365.65,-112.39C353.78,-98.39 328.29,-70.77 300.66,-56 253.59,-30.83 191.93,-19.33 154.92,-14.39"/>
<polygon fill="midnightblue" stroke="midnightblue" points="155.07,-10.88 144.71,-13.11 154.2,-17.83 155.07,-10.88"/>
</g>
<!-- Node6 -->
<g id="node6" class="node">
<title>Node6</title>
<g id="a_node6"><a xlink:title=" ">
<polygon fill="white" stroke="#bfbfbf" points="362.16,-0.5 362.16,-19.5 425.16,-19.5 425.16,-0.5 362.16,-0.5"/>
<text text-anchor="middle" x="393.66" y="-7.5" font-family="Helvetica,sans-Serif" font-size="10.00">pthread.h</text>
</a>
</g>
</g>
<!-- Node5&#45;&gt;Node6 -->
<g id="edge5" class="edge">
<title>Node5&#45;&gt;Node6</title>
<path fill="none" stroke="midnightblue" d="M373.55,-112.11C374.87,-99.54 377.65,-75.88 381.66,-56 383.45,-47.17 385.95,-37.51 388.21,-29.41"/>
<polygon fill="midnightblue" stroke="midnightblue" points="391.64,-30.13 391.05,-19.55 384.92,-28.19 391.64,-30.13"/>
</g>
<!-- Node7 -->
<g id="node7" class="node">
<title>Node7</title>
<g id="a_node7"><a xlink:title=" ">
<polygon fill="white" stroke="#bfbfbf" points="476.66,-56.5 476.66,-75.5 524.66,-75.5 524.66,-56.5 476.66,-56.5"/>
<text text-anchor="middle" x="500.66" y="-63.5" font-family="Helvetica,sans-Serif" font-size="10.00">thread</text>
</a>
</g>
</g>
<!-- Node5&#45;&gt;Node7 -->
<g id="edge7" class="edge">
<title>Node5&#45;&gt;Node7</title>
<path fill="none" stroke="midnightblue" d="M392.95,-112.44C414.01,-103.56 447.18,-89.56 471.15,-79.45"/>
<polygon fill="midnightblue" stroke="midnightblue" points="472.62,-82.63 480.48,-75.52 469.9,-76.18 472.62,-82.63"/>
</g>
<!-- Node8 -->
<g id="node8" class="node">
<title>Node8</title>
<g id="a_node8"><a xlink:title=" ">
<polygon fill="white" stroke="#bfbfbf" points="542.66,-56.5 542.66,-75.5 586.66,-75.5 586.66,-56.5 542.66,-56.5"/>
<text text-anchor="middle" x="564.66" y="-63.5" font-family="Helvetica,sans-Serif" font-size="10.00">ctime</text>
</a>
</g>
</g>
<!-- Node5&#45;&gt;Node8 -->
<g id="edge8" class="edge">
<title>Node5&#45;&gt;Node8</title>
<path fill="none" stroke="midnightblue" d="M403.56,-112.46C434.02,-104.02 482.17,-90.63 532.83,-76.22"/>
<polygon fill="midnightblue" stroke="midnightblue" points="534,-79.52 542.66,-73.42 532.08,-72.79 534,-79.52"/>
</g>
<!-- Node9 -->
<g id="node9" class="node">
<title>Node9</title>
<g id="a_node9"><a xlink:href="Mutex_8hpp.html" target="_top" xlink:title="Définition de la classe Mutex.">
<polygon fill="white" stroke="black" points="390.66,-56.5 390.66,-75.5 458.66,-75.5 458.66,-56.5 390.66,-56.5"/>
<text text-anchor="middle" x="424.66" y="-63.5" font-family="Helvetica,sans-Serif" font-size="10.00">Mutex.hpp</text>
</a>
</g>
</g>
<!-- Node5&#45;&gt;Node9 -->
<g id="edge9" class="edge">
<title>Node5&#45;&gt;Node9</title>
<path fill="none" stroke="midnightblue" d="M381.25,-112.08C388.82,-104.22 400.04,-92.57 409.18,-83.08"/>
<polygon fill="midnightblue" stroke="midnightblue" points="411.82,-85.38 416.24,-75.75 406.78,-80.53 411.82,-85.38"/>
</g>
<!-- Node5&#45;&gt;Node10 -->
<g id="edge11" class="edge">
<title>Node5&#45;&gt;Node10</title>
<path fill="none" stroke="midnightblue" d="M418.96,-112.49C462.07,-104.38 528.32,-91.45 594.67,-76.13"/>
<polygon fill="midnightblue" stroke="midnightblue" points="595.51,-79.53 604.46,-73.85 593.92,-72.71 595.51,-79.53"/>
</g>
<!-- Node9&#45;&gt;Node6 -->
<g id="edge10" class="edge">
<title>Node9&#45;&gt;Node6</title>
<path fill="none" stroke="midnightblue" d="M419.55,-56.08C415.26,-48.61 409.01,-37.72 403.72,-28.52"/>
<polygon fill="midnightblue" stroke="midnightblue" points="406.7,-26.68 398.69,-19.75 400.63,-30.17 406.7,-26.68"/>
</g>
<!-- Node11&#45;&gt;Node4 -->
<g id="edge14" class="edge">
<title>Node11&#45;&gt;Node4</title>
<path fill="none" stroke="midnightblue" d="M188.62,-117.2C162.58,-112.34 128.74,-101.26 111.66,-76 102.28,-62.11 107.23,-42.84 113.19,-28.89"/>
<polygon fill="midnightblue" stroke="midnightblue" points="116.37,-30.36 117.51,-19.83 110.05,-27.35 116.37,-30.36"/>
</g>
<!-- Node11&#45;&gt;Node9 -->
<g id="edge15" class="edge">
<title>Node11&#45;&gt;Node9</title>
<path fill="none" stroke="midnightblue" d="M255.51,-112.44C290.06,-103.16 345.35,-88.31 383.25,-78.13"/>
<polygon fill="midnightblue" stroke="midnightblue" points="384.22,-81.49 392.96,-75.52 382.4,-74.73 384.22,-81.49"/>
</g>
<!-- Node12 -->
<g id="node12" class="node">
<title>Node12</title>
<g id="a_node12"><a xlink:title=" ">
<polygon fill="white" stroke="#bfbfbf" points="202.66,-56.5 202.66,-75.5 258.66,-75.5 258.66,-56.5 202.66,-56.5"/>
<text text-anchor="middle" x="230.66" y="-63.5" font-family="Helvetica,sans-Serif" font-size="10.00">sstream</text>
</a>
</g>
</g>
<!-- Node11&#45;&gt;Node12 -->
<g id="edge13" class="edge">
<title>Node11&#45;&gt;Node12</title>
<path fill="none" stroke="midnightblue" d="M224.82,-112.08C225.75,-104.93 227.08,-94.64 228.24,-85.69"/>
<polygon fill="midnightblue" stroke="midnightblue" points="231.72,-86.12 229.53,-75.75 224.77,-85.22 231.72,-86.12"/>
</g>
<!-- Node13 -->
<g id="node13" class="node">
<title>Node13</title>
<g id="a_node13"><a xlink:href="Level_8hpp.html" target="_top" xlink:title="Définition de la classe Level.">
<polygon fill="white" stroke="black" points="120.66,-56.5 120.66,-75.5 184.66,-75.5 184.66,-56.5 120.66,-56.5"/>
<text text-anchor="middle" x="152.66" y="-63.5" font-family="Helvetica,sans-Serif" font-size="10.00">Level.hpp</text>
</a>
</g>
</g>
<!-- Node11&#45;&gt;Node13 -->
<g id="edge16" class="edge">
<title>Node11&#45;&gt;Node13</title>
<path fill="none" stroke="midnightblue" d="M212.26,-112.32C201.56,-104.18 185.32,-91.84 172.5,-82.09"/>
<polygon fill="midnightblue" stroke="midnightblue" points="174.36,-79.1 164.28,-75.83 170.12,-84.67 174.36,-79.1"/>
</g>
<!-- Node13&#45;&gt;Node4 -->
<g id="edge17" class="edge">
<title>Node13&#45;&gt;Node4</title>
<path fill="none" stroke="midnightblue" d="M147.71,-56.08C143.56,-48.61 137.51,-37.72 132.4,-28.52"/>
<polygon fill="midnightblue" stroke="midnightblue" points="135.44,-26.79 127.53,-19.75 129.32,-30.19 135.44,-26.79"/>
</g>
<!-- Node14&#45;&gt;Node4 -->
<g id="edge21" class="edge">
<title>Node14&#45;&gt;Node4</title>
<path fill="none" stroke="midnightblue" d="M385.09,-168.47C358.34,-162.12 327.88,-151.1 305.66,-132 277.03,-107.38 296.45,-80.45 267.66,-56 235.53,-28.71 186.96,-17.96 155.03,-13.73"/>
<polygon fill="midnightblue" stroke="midnightblue" points="155.23,-10.23 144.89,-12.53 154.41,-17.18 155.23,-10.23"/>
</g>
<!-- Node14&#45;&gt;Node9 -->
<g id="edge22" class="edge">
<title>Node14&#45;&gt;Node9</title>
<path fill="none" stroke="midnightblue" d="M444.43,-168.08C443.97,-155.48 442.61,-131.78 438.66,-112 436.88,-103.07 434.01,-93.41 431.32,-85.33"/>
<polygon fill="midnightblue" stroke="midnightblue" points="434.61,-84.12 428.01,-75.82 428,-86.42 434.61,-84.12"/>
</g>
<!-- Node14&#45;&gt;Node10 -->
<g id="edge19" class="edge">
<title>Node14&#45;&gt;Node10</title>
<path fill="none" stroke="midnightblue" d="M452.85,-168.43C466.08,-154.96 493.42,-128.69 520.66,-112 543.98,-97.72 572.63,-86.09 594.71,-78.24"/>
<polygon fill="midnightblue" stroke="midnightblue" points="596.04,-81.48 604.35,-74.9 593.75,-74.86 596.04,-81.48"/>
</g>
<!-- Node14&#45;&gt;Node11 -->
<g id="edge23" class="edge">
<title>Node14&#45;&gt;Node11</title>
<path fill="none" stroke="midnightblue" d="M409.65,-168.44C371.42,-159.1 310.1,-144.12 268.41,-133.93"/>
<polygon fill="midnightblue" stroke="midnightblue" points="269.06,-130.49 258.52,-131.52 267.4,-137.29 269.06,-130.49"/>
</g>
<!-- Node14&#45;&gt;Node15 -->
<g id="edge20" class="edge">
<title>Node14&#45;&gt;Node15</title>
<path fill="none" stroke="midnightblue" d="M465.9,-168.44C489.61,-158.89 527.98,-143.43 553.27,-133.24"/>
<polygon fill="midnightblue" stroke="midnightblue" points="554.61,-136.47 562.58,-129.48 551.99,-129.97 554.61,-136.47"/>
</g>
</g>
</svg>
        <g id="navigator" transform="translate(0 0)" fill="#404254">
                <rect fill="#f2f5e9" fill-opacity="0.5" stroke="#606060" stroke-width=".5" x="0" y="0" width="60" height="60"/>
                <use id="zoomplus" xlink:href="#zoomPlus" x="17" y="9" onmousedown="handleZoom(evt,'in')"/>
                <use id="zoomminus" xlink:href="#zoomMin" x="42" y="9" onmousedown="handleZoom(evt,'out')"/>
                <use id="reset" xlink:href="#resetDef" x="30" y="36" onmousedown="handleReset()"/>
                <g id="arrowUp" xlink:href="#dirArrow" transform="translate(30 24)" onmousedown="handlePan(0,-1)">
                  <use xlink:href="#rim" fill="#404040">
                        <set attributeName="fill" to="#808080" begin="arrowUp.mouseover" end="arrowUp.mouseout"/>
                  </use>
                  <path fill="none" stroke="white" stroke-width="1.5" d="M0,-3.0v7 M-2.5,-0.5L0,-3.0L2.5,-0.5"/>
                </g>
                <g id="arrowRight" xlink:href="#dirArrow" transform="rotate(90) translate(36 -43)" onmousedown="handlePan(1,0)">
                  <use xlink:href="#rim" fill="#404040">
                        <set attributeName="fill" to="#808080" begin="arrowRight.mouseover" end="arrowRight.mouseout"/>
                  </use>
                  <path fill="none" stroke="white" stroke-width="1.5" d="M0,-3.0v7 M-2.5,-0.5L0,-3.0L2.5,-0.5"/>
                </g>
                <g id="arrowDown" xlink:href="#dirArrow" transform="rotate(180) translate(-30 -48)" onmousedown="handlePan(0,1)">
                  <use xlink:href="#rim" fill="#404040">
                        <set attributeName="fill" to="#808080" begin="arrowDown.mouseover" end="arrowDown.mouseout"/>
                  </use>
                  <path fill="none" stroke="white" stroke-width="1.5" d="M0,-3.0v7 M-2.5,-0.5L0,-3.0L2.5,-0.5"/>
                </g>
                <g id="arrowLeft" xlink:href="#dirArrow" transform="rotate(270) translate(-36 17)" onmousedown="handlePan(-1,0)">
                  <use xlink:href="#rim" fill="#404040">
                        <set attributeName="fill" to="#808080" begin="arrowLeft.mouseover" end="arrowLeft.mouseout"/>
                  </use>
                  <path fill="none" stroke="white" stroke-width="1.5" d="M0,-3.0v7 M-2.5,-0.5L0,-3.0L2.5,-0.5"/>
                </g>
        </g>
        <svg viewBox="0 0 15 15" width="100%" height="30px" preserveAspectRatio="xMaxYMin meet">
         <g id="arrow_out" transform="scale(0.3 0.3)">
          <a xlink:href="TelemetryAppender_8hpp__incl_org.svg" target="_base">
           <rect id="button" ry="5" rx="5" y="6" x="6" height="38" width="38"
                fill="#f2f5e9" fill-opacity="0.5" stroke="#606060" stroke-width="1.0"/>
           <path id="arrow"
             d="M 11.500037,31.436501 C 11.940474,20.09759 22.043105,11.32322 32.158766,21.979434 L 37.068811,17.246167 C 37.068811,17.246167 37.088388,32 37.088388,32 L 22.160133,31.978069 C 22.160133,31.978069 26.997745,27.140456 26.997745,27.140456 C 18.528582,18.264221 13.291696,25.230495 11.500037,31.436501 z"
             style="fill:#404040;"/>
          </a>
         </g>
        </svg>
</svg>
