<?xml version="1.0" encoding="UTF-8" standalone="no"?>
<!DOCTYPE svg PUBLIC "-//W3C//DTD SVG 1.1//EN"
 "http://www.w3.org/Graphics/SVG/1.1/DTD/svg11.dtd">
<!-- Generated by graphviz version 2.43.0 (0)
 -->
<!-- Title: src/common/log/appender/TelemetryAppender.cpp Pages: 1 -->
<!--zoomable 319 -->
<svg id="main" version="1.1" xmlns="http://www.w3.org/2000/svg" xmlns:xlink="http://www.w3.org/1999/xlink" xml:space="preserve" onload="init(evt)">
<style type="text/css"><![CDATA[
.edge:hover path { stroke: red; }
.edge:hover polygon { stroke: red; fill: red; }
]]></style>
<script type="text/javascript"><![CDATA[
var edges = document.getElementsByTagName('g');
if (edges && edges.length) {
  for (var i=0;i<edges.length;i++) {
    if (edges[i].id.substr(0,4)=='edge') {
      edges[i].setAttribute('class','edge');
    }
  }
}
]]></script>
        <defs>
                <circle id="rim" cx="0" cy="0" r="7"/>
                <circle id="rim2" cx="0" cy="0" r="3.5"/>
                <g id="zoomPlus">
                        <use xlink:href="#rim" fill="#404040">
                                <set attributeName="fill" to="#808080" begin="zoomplus.mouseover" end="zoomplus.mouseout"/>
                        </use>
                        <path d="M-4,0h8M0,-4v8" fill="none" stroke="white" stroke-width="1.5" pointer-events="none"/>
                </g>
                <g id="zoomMin">
                        <use xlink:href="#rim" fill="#404040">
                                <set attributeName="fill" to="#808080" begin="zoomminus.mouseover" end="zoomminus.mouseout"/>
                        </use>
                        <path d="M-4,0h8" fill="none" stroke="white" stroke-width="1.5" pointer-events="none"/>
                </g>
                <g id="dirArrow">
                        <path fill="none" stroke="white" stroke-width="1.5" d="M0,-3.0v7 M-2.5,-0.5L0,-3.0L2.5,-0.5"/>
                </g>
               <g id="resetDef">
                       <use xlink:href="#rim2" fill="#404040">
                               <set attributeName="fill" to="#808080" begin="reset.mouseover" end="reset.mouseout"/>
                       </use>
               </g>
        </defs>

<script type="text/javascript">
var viewWidth = 1386;
var viewHeight = 319;
var sectionId = 'dynsection-0';
</script>
<script xlink:href="svgpan.js"/>
<svg id="graph" class="graph">
<g id="viewport">
<title>src/common/log/appender/TelemetryAppender.cpp</title>
<polygon fill="white" stroke="transparent" points="-4,4 -4,-315 1381.5,-315 1381.5,4 -4,4"/>
<!-- Node1 -->
<g id="node1" class="node">
<title>Node1</title>
<g id="a_node1"><a xlink:title="Implémentation de la classe TelemetryAppender.">
<polygon fill="#bfbfbf" stroke="black" points="877.5,-280.5 877.5,-310.5 1020.5,-310.5 1020.5,-280.5 877.5,-280.5"/>
<text text-anchor="start" x="885.5" y="-298.5" font-family="Helvetica,sans-Serif" font-size="10.00">src/common/log/appender</text>
<text text-anchor="middle" x="949" y="-287.5" font-family="Helvetica,sans-Serif" font-size="10.00">/TelemetryAppender.cpp</text>
</a>
</g>
</g>
<!-- Node2 -->
<g id="node2" class="node">
<title>Node2</title>
<g id="a_node2"><a xlink:href="TelemetryAppender_8hpp.html" target="_top" xlink:title="Définition de la classe TelemetryAppender.">
<polygon fill="white" stroke="black" points="599,-224.5 599,-243.5 731,-243.5 731,-224.5 599,-224.5"/>
<text text-anchor="middle" x="665" y="-231.5" font-family="Helvetica,sans-Serif" font-size="10.00">TelemetryAppender.hpp</text>
</a>
</g>
</g>
<!-- Node1&#45;&gt;Node2 -->
<g id="edge1" class="edge">
<title>Node1&#45;&gt;Node2</title>
<path fill="none" stroke="midnightblue" d="M882.06,-280.47C831.03,-269.78 761.85,-255.29 715.44,-245.57"/>
<polygon fill="midnightblue" stroke="midnightblue" points="716.11,-242.13 705.6,-243.51 714.67,-248.98 716.11,-242.13"/>
</g>
<!-- Node11 -->
<g id="node11" class="node">
<title>Node11</title>
<g id="a_node11"><a xlink:title=" ">
<polygon fill="white" stroke="#bfbfbf" points="0,-56.5 0,-75.5 50,-75.5 50,-56.5 0,-56.5"/>
<text text-anchor="middle" x="25" y="-63.5" font-family="Helvetica,sans-Serif" font-size="10.00">chrono</text>
</a>
</g>
</g>
<!-- Node1&#45;&gt;Node11 -->
<g id="edge38" class="edge">
<title>Node1&#45;&gt;Node11</title>
<path fill="none" stroke="midnightblue" d="M877.42,-291.16C740.26,-283.31 431.95,-258.7 183,-188 123.66,-171.15 100.26,-174.97 56,-132 42.85,-119.23 34.59,-99.77 29.94,-85.46"/>
<polygon fill="midnightblue" stroke="midnightblue" points="33.25,-84.33 27.06,-75.73 26.54,-86.31 33.25,-84.33"/>
</g>
<!-- Node16 -->
<g id="node16" class="node">
<title>Node16</title>
<g id="a_node16"><a xlink:title=" ">
<polygon fill="white" stroke="#bfbfbf" points="666,-112.5 666,-131.5 698,-131.5 698,-112.5 666,-112.5"/>
<text text-anchor="middle" x="682" y="-119.5" font-family="Helvetica,sans-Serif" font-size="10.00">list</text>
</a>
</g>
</g>
<!-- Node1&#45;&gt;Node16 -->
<g id="edge31" class="edge">
<title>Node1&#45;&gt;Node16</title>
<path fill="none" stroke="midnightblue" d="M952.61,-280.2C960.35,-248.91 977.24,-176.46 970,-168 936.4,-128.75 773.18,-123.48 708.49,-122.96"/>
<polygon fill="midnightblue" stroke="midnightblue" points="708.31,-119.46 698.29,-122.91 708.28,-126.46 708.31,-119.46"/>
</g>
<!-- Node17 -->
<g id="node17" class="node">
<title>Node17</title>
<g id="a_node17"><a xlink:title=" ">
<polygon fill="white" stroke="#bfbfbf" points="693,-168.5 693,-187.5 753,-187.5 753,-168.5 693,-168.5"/>
<text text-anchor="middle" x="723" y="-175.5" font-family="Helvetica,sans-Serif" font-size="10.00">iostream</text>
</a>
</g>
</g>
<!-- Node1&#45;&gt;Node17 -->
<g id="edge39" class="edge">
<title>Node1&#45;&gt;Node17</title>
<path fill="none" stroke="midnightblue" d="M921.29,-280.34C877.13,-257.77 791.42,-213.97 748.61,-192.09"/>
<polygon fill="midnightblue" stroke="midnightblue" points="750.17,-188.96 739.68,-187.52 746.99,-195.19 750.17,-188.96"/>
</g>
<!-- Node18 -->
<g id="node18" class="node">
<title>Node18</title>
<g id="a_node18"><a xlink:title=" ">
<polygon fill="white" stroke="#bfbfbf" points="771,-168.5 771,-187.5 843,-187.5 843,-168.5 771,-168.5"/>
<text text-anchor="middle" x="807" y="-175.5" font-family="Helvetica,sans-Serif" font-size="10.00">netinet/in.h</text>
</a>
</g>
</g>
<!-- Node1&#45;&gt;Node18 -->
<g id="edge36" class="edge">
<title>Node1&#45;&gt;Node18</title>
<path fill="none" stroke="midnightblue" d="M931.59,-280.34C904.72,-258.49 853.39,-216.73 825.74,-194.24"/>
<polygon fill="midnightblue" stroke="midnightblue" points="827.62,-191.26 817.66,-187.67 823.21,-196.69 827.62,-191.26"/>
</g>
<!-- Node19 -->
<g id="node19" class="node">
<title>Node19</title>
<g id="a_node19"><a xlink:title=" ">
<polygon fill="white" stroke="#bfbfbf" points="861,-168.5 861,-187.5 961,-187.5 961,-168.5 861,-168.5"/>
<text text-anchor="middle" x="911" y="-175.5" font-family="Helvetica,sans-Serif" font-size="10.00">../../utils/json.hpp</text>
</a>
</g>
</g>
<!-- Node1&#45;&gt;Node19 -->
<g id="edge40" class="edge">
<title>Node1&#45;&gt;Node19</title>
<path fill="none" stroke="midnightblue" d="M944.34,-280.34C937.46,-259.43 924.59,-220.31 917.01,-197.27"/>
<polygon fill="midnightblue" stroke="midnightblue" points="920.3,-196.07 913.85,-187.67 913.65,-198.26 920.3,-196.07"/>
</g>
<!-- Node20 -->
<g id="node20" class="node">
<title>Node20</title>
<g id="a_node20"><a xlink:title=" ">
<polygon fill="white" stroke="#bfbfbf" points="977.5,-224.5 977.5,-243.5 1030.5,-243.5 1030.5,-224.5 977.5,-224.5"/>
<text text-anchor="middle" x="1004" y="-231.5" font-family="Helvetica,sans-Serif" font-size="10.00">string.h</text>
</a>
</g>
</g>
<!-- Node1&#45;&gt;Node20 -->
<g id="edge32" class="edge">
<title>Node1&#45;&gt;Node20</title>
<path fill="none" stroke="midnightblue" d="M962.03,-280.4C970.19,-271.58 980.72,-260.18 989.19,-251.02"/>
<polygon fill="midnightblue" stroke="midnightblue" points="991.78,-253.38 996,-243.66 986.64,-248.63 991.78,-253.38"/>
</g>
<!-- Node21 -->
<g id="node21" class="node">
<title>Node21</title>
<g id="a_node21"><a xlink:title=" ">
<polygon fill="white" stroke="#bfbfbf" points="1049,-224.5 1049,-243.5 1105,-243.5 1105,-224.5 1049,-224.5"/>
<text text-anchor="middle" x="1077" y="-231.5" font-family="Helvetica,sans-Serif" font-size="10.00">unistd.h</text>
</a>
</g>
</g>
<!-- Node1&#45;&gt;Node21 -->
<g id="edge33" class="edge">
<title>Node1&#45;&gt;Node21</title>
<path fill="none" stroke="midnightblue" d="M979.33,-280.4C1000.52,-270.55 1028.59,-257.5 1049.2,-247.92"/>
<polygon fill="midnightblue" stroke="midnightblue" points="1050.78,-251.05 1058.37,-243.66 1047.83,-244.7 1050.78,-251.05"/>
</g>
<!-- Node22 -->
<g id="node22" class="node">
<title>Node22</title>
<g id="a_node22"><a xlink:title=" ">
<polygon fill="white" stroke="#bfbfbf" points="1123,-224.5 1123,-243.5 1195,-243.5 1195,-224.5 1123,-224.5"/>
<text text-anchor="middle" x="1159" y="-231.5" font-family="Helvetica,sans-Serif" font-size="10.00">sys/types.h</text>
</a>
</g>
</g>
<!-- Node1&#45;&gt;Node22 -->
<g id="edge34" class="edge">
<title>Node1&#45;&gt;Node22</title>
<path fill="none" stroke="midnightblue" d="M998.5,-280.47C1035.36,-270.03 1085.03,-255.96 1119.31,-246.25"/>
<polygon fill="midnightblue" stroke="midnightblue" points="1120.31,-249.6 1128.98,-243.51 1118.4,-242.87 1120.31,-249.6"/>
</g>
<!-- Node23 -->
<g id="node23" class="node">
<title>Node23</title>
<g id="a_node23"><a xlink:title=" ">
<polygon fill="white" stroke="#bfbfbf" points="1213.5,-224.5 1213.5,-243.5 1290.5,-243.5 1290.5,-224.5 1213.5,-224.5"/>
<text text-anchor="middle" x="1252" y="-231.5" font-family="Helvetica,sans-Serif" font-size="10.00">sys/socket.h</text>
</a>
</g>
</g>
<!-- Node1&#45;&gt;Node23 -->
<g id="edge35" class="edge">
<title>Node1&#45;&gt;Node23</title>
<path fill="none" stroke="midnightblue" d="M1020.42,-280.47C1076.78,-269.41 1153.87,-254.27 1203.31,-244.56"/>
<polygon fill="midnightblue" stroke="midnightblue" points="1204.29,-247.94 1213.43,-242.57 1202.94,-241.07 1204.29,-247.94"/>
</g>
<!-- Node24 -->
<g id="node24" class="node">
<title>Node24</title>
<g id="a_node24"><a xlink:title=" ">
<polygon fill="white" stroke="#bfbfbf" points="1308.5,-224.5 1308.5,-243.5 1377.5,-243.5 1377.5,-224.5 1308.5,-224.5"/>
<text text-anchor="middle" x="1343" y="-231.5" font-family="Helvetica,sans-Serif" font-size="10.00">arpa/inet.h</text>
</a>
</g>
</g>
<!-- Node1&#45;&gt;Node24 -->
<g id="edge37" class="edge">
<title>Node1&#45;&gt;Node24</title>
<path fill="none" stroke="midnightblue" d="M1020.81,-285.52C1089.61,-276.62 1196.58,-261.96 1298.17,-244.24"/>
<polygon fill="midnightblue" stroke="midnightblue" points="1299.06,-247.64 1308.3,-242.46 1297.85,-240.74 1299.06,-247.64"/>
</g>
<!-- Node3 -->
<g id="node3" class="node">
<title>Node3</title>
<g id="a_node3"><a xlink:href="LoggerFactory_8hpp.html" target="_top" xlink:title="Définition de la classe LoggerFactory.">
<polygon fill="white" stroke="black" points="311.5,-168.5 311.5,-187.5 424.5,-187.5 424.5,-168.5 311.5,-168.5"/>
<text text-anchor="middle" x="368" y="-175.5" font-family="Helvetica,sans-Serif" font-size="10.00">../LoggerFactory.hpp</text>
</a>
</g>
</g>
<!-- Node2&#45;&gt;Node3 -->
<g id="edge2" class="edge">
<title>Node2&#45;&gt;Node3</title>
<path fill="none" stroke="midnightblue" d="M617.94,-224.44C565.59,-214.92 481.01,-199.55 424.96,-189.36"/>
<polygon fill="midnightblue" stroke="midnightblue" points="425.31,-185.86 414.84,-187.52 424.05,-192.75 425.31,-185.86"/>
</g>
<!-- Node5 -->
<g id="node5" class="node">
<title>Node5</title>
<g id="a_node5"><a xlink:title=" ">
<polygon fill="white" stroke="#bfbfbf" points="414,-0.5 414,-19.5 458,-19.5 458,-0.5 414,-0.5"/>
<text text-anchor="middle" x="436" y="-7.5" font-family="Helvetica,sans-Serif" font-size="10.00">string</text>
</a>
</g>
</g>
<!-- Node2&#45;&gt;Node5 -->
<g id="edge27" class="edge">
<title>Node2&#45;&gt;Node5</title>
<path fill="none" stroke="midnightblue" d="M664.46,-224.5C662.21,-196.1 650.99,-103.63 599,-56 562.85,-22.88 504.49,-13.82 468.29,-11.53"/>
<polygon fill="midnightblue" stroke="midnightblue" points="468.42,-8.03 458.26,-11.03 468.07,-15.02 468.42,-8.03"/>
</g>
<!-- Node2&#45;&gt;Node11 -->
<g id="edge28" class="edge">
<title>Node2&#45;&gt;Node11</title>
<path fill="none" stroke="midnightblue" d="M598.99,-227.63C465.54,-215.8 169.04,-184.31 83,-132 63.09,-119.9 46.15,-98.83 35.8,-83.96"/>
<polygon fill="midnightblue" stroke="midnightblue" points="38.71,-82.02 30.25,-75.64 32.89,-85.9 38.71,-82.02"/>
</g>
<!-- Node15 -->
<g id="node15" class="node">
<title>Node15</title>
<g id="a_node15"><a xlink:href="MemoryAppender_8hpp.html" target="_top" xlink:title="Définition de la classe MemoryAppender.">
<polygon fill="white" stroke="black" points="464,-168.5 464,-187.5 588,-187.5 588,-168.5 464,-168.5"/>
<text text-anchor="middle" x="526" y="-175.5" font-family="Helvetica,sans-Serif" font-size="10.00">MemoryAppender.hpp</text>
</a>
</g>
</g>
<!-- Node2&#45;&gt;Node15 -->
<g id="edge19" class="edge">
<title>Node2&#45;&gt;Node15</title>
<path fill="none" stroke="midnightblue" d="M642.98,-224.44C619.9,-215.48 583.44,-201.31 557.36,-191.18"/>
<polygon fill="midnightblue" stroke="midnightblue" points="558.51,-187.88 547.92,-187.52 555.98,-194.4 558.51,-187.88"/>
</g>
<!-- Node2&#45;&gt;Node16 -->
<g id="edge26" class="edge">
<title>Node2&#45;&gt;Node16</title>
<path fill="none" stroke="midnightblue" d="M666.33,-224.37C669.08,-206.62 675.41,-165.67 679.13,-141.6"/>
<polygon fill="midnightblue" stroke="midnightblue" points="682.6,-142.01 680.67,-131.59 675.69,-140.94 682.6,-142.01"/>
</g>
<!-- Node2&#45;&gt;Node17 -->
<g id="edge25" class="edge">
<title>Node2&#45;&gt;Node17</title>
<path fill="none" stroke="midnightblue" d="M674.32,-224.32C682.89,-216.34 695.81,-204.31 706.19,-194.65"/>
<polygon fill="midnightblue" stroke="midnightblue" points="708.58,-197.21 713.51,-187.83 703.81,-192.09 708.58,-197.21"/>
</g>
<!-- Node2&#45;&gt;Node18 -->
<g id="edge29" class="edge">
<title>Node2&#45;&gt;Node18</title>
<path fill="none" stroke="midnightblue" d="M687.5,-224.44C711.08,-215.48 748.32,-201.31 774.96,-191.18"/>
<polygon fill="midnightblue" stroke="midnightblue" points="776.5,-194.34 784.6,-187.52 774.01,-187.8 776.5,-194.34"/>
</g>
<!-- Node2&#45;&gt;Node19 -->
<g id="edge30" class="edge">
<title>Node2&#45;&gt;Node19</title>
<path fill="none" stroke="midnightblue" d="M703.98,-224.44C746.89,-215.02 815.95,-199.87 862.37,-189.68"/>
<polygon fill="midnightblue" stroke="midnightblue" points="863.19,-193.08 872.2,-187.52 861.69,-186.24 863.19,-193.08"/>
</g>
<!-- Node4 -->
<g id="node4" class="node">
<title>Node4</title>
<g id="a_node4"><a xlink:title=" ">
<polygon fill="white" stroke="#bfbfbf" points="92,-112.5 92,-131.5 130,-131.5 130,-112.5 92,-112.5"/>
<text text-anchor="middle" x="111" y="-119.5" font-family="Helvetica,sans-Serif" font-size="10.00">map</text>
</a>
</g>
</g>
<!-- Node3&#45;&gt;Node4 -->
<g id="edge3" class="edge">
<title>Node3&#45;&gt;Node4</title>
<path fill="none" stroke="midnightblue" d="M320.6,-168.45C275.12,-160.01 204.6,-146.33 144,-132 142.73,-131.7 141.44,-131.39 140.14,-131.06"/>
<polygon fill="midnightblue" stroke="midnightblue" points="140.7,-127.59 130.14,-128.46 138.93,-134.36 140.7,-127.59"/>
</g>
<!-- Node3&#45;&gt;Node5 -->
<g id="edge4" class="edge">
<title>Node3&#45;&gt;Node5</title>
<path fill="none" stroke="midnightblue" d="M371.66,-168.08C382.41,-141.83 414.07,-64.55 428.58,-29.12"/>
<polygon fill="midnightblue" stroke="midnightblue" points="431.94,-30.15 432.49,-19.57 425.46,-27.5 431.94,-30.15"/>
</g>
<!-- Node6 -->
<g id="node6" class="node">
<title>Node6</title>
<g id="a_node6"><a xlink:href="Thread_8hpp.html" target="_top" xlink:title="Définition de la classe Thread.">
<polygon fill="white" stroke="black" points="186.5,-112.5 186.5,-131.5 301.5,-131.5 301.5,-112.5 186.5,-112.5"/>
<text text-anchor="middle" x="244" y="-119.5" font-family="Helvetica,sans-Serif" font-size="10.00">../thread/Thread.hpp</text>
</a>
</g>
</g>
<!-- Node3&#45;&gt;Node6 -->
<g id="edge5" class="edge">
<title>Node3&#45;&gt;Node6</title>
<path fill="none" stroke="midnightblue" d="M348.35,-168.44C328.04,-159.6 296.1,-145.69 272.9,-135.59"/>
<polygon fill="midnightblue" stroke="midnightblue" points="274.12,-132.3 263.56,-131.52 271.33,-138.72 274.12,-132.3"/>
</g>
<!-- Node12 -->
<g id="node12" class="node">
<title>Node12</title>
<g id="a_node12"><a xlink:href="Logger_8hpp.html" target="_top" xlink:title="Définition de la classe Logger.">
<polygon fill="white" stroke="black" points="434,-112.5 434,-131.5 504,-131.5 504,-112.5 434,-112.5"/>
<text text-anchor="middle" x="469" y="-119.5" font-family="Helvetica,sans-Serif" font-size="10.00">Logger.hpp</text>
</a>
</g>
</g>
<!-- Node3&#45;&gt;Node12 -->
<g id="edge13" class="edge">
<title>Node3&#45;&gt;Node12</title>
<path fill="none" stroke="midnightblue" d="M384.23,-168.32C400.35,-159.7 425.3,-146.36 443.96,-136.39"/>
<polygon fill="midnightblue" stroke="midnightblue" points="445.64,-139.46 452.81,-131.65 442.34,-133.28 445.64,-139.46"/>
</g>
<!-- Node6&#45;&gt;Node5 -->
<g id="edge7" class="edge">
<title>Node6&#45;&gt;Node5</title>
<path fill="none" stroke="midnightblue" d="M243.97,-112.49C244.39,-98.64 247.31,-71.23 263,-56 300.96,-19.15 365.08,-11.43 403.69,-10.37"/>
<polygon fill="midnightblue" stroke="midnightblue" points="403.9,-13.87 413.85,-10.24 403.81,-6.87 403.9,-13.87"/>
</g>
<!-- Node7 -->
<g id="node7" class="node">
<title>Node7</title>
<g id="a_node7"><a xlink:title=" ">
<polygon fill="white" stroke="#bfbfbf" points="160.5,-0.5 160.5,-19.5 223.5,-19.5 223.5,-0.5 160.5,-0.5"/>
<text text-anchor="middle" x="192" y="-7.5" font-family="Helvetica,sans-Serif" font-size="10.00">pthread.h</text>
</a>
</g>
</g>
<!-- Node6&#45;&gt;Node7 -->
<g id="edge6" class="edge">
<title>Node6&#45;&gt;Node7</title>
<path fill="none" stroke="midnightblue" d="M195,-112.44C157,-104.69 108.86,-92.04 97,-76 78.61,-51.14 117.16,-32.59 150.53,-21.8"/>
<polygon fill="midnightblue" stroke="midnightblue" points="151.67,-25.11 160.2,-18.83 149.61,-18.42 151.67,-25.11"/>
</g>
<!-- Node8 -->
<g id="node8" class="node">
<title>Node8</title>
<g id="a_node8"><a xlink:title=" ">
<polygon fill="white" stroke="#bfbfbf" points="168,-56.5 168,-75.5 216,-75.5 216,-56.5 168,-56.5"/>
<text text-anchor="middle" x="192" y="-63.5" font-family="Helvetica,sans-Serif" font-size="10.00">thread</text>
</a>
</g>
</g>
<!-- Node6&#45;&gt;Node8 -->
<g id="edge8" class="edge">
<title>Node6&#45;&gt;Node8</title>
<path fill="none" stroke="midnightblue" d="M235.41,-112.08C227.84,-104.22 216.62,-92.57 207.49,-83.08"/>
<polygon fill="midnightblue" stroke="midnightblue" points="209.88,-80.53 200.43,-75.75 204.84,-85.38 209.88,-80.53"/>
</g>
<!-- Node9 -->
<g id="node9" class="node">
<title>Node9</title>
<g id="a_node9"><a xlink:title=" ">
<polygon fill="white" stroke="#bfbfbf" points="106,-56.5 106,-75.5 150,-75.5 150,-56.5 106,-56.5"/>
<text text-anchor="middle" x="128" y="-63.5" font-family="Helvetica,sans-Serif" font-size="10.00">ctime</text>
</a>
</g>
</g>
<!-- Node6&#45;&gt;Node9 -->
<g id="edge9" class="edge">
<title>Node6&#45;&gt;Node9</title>
<path fill="none" stroke="midnightblue" d="M225.62,-112.44C206.78,-103.68 177.27,-89.94 155.62,-79.86"/>
<polygon fill="midnightblue" stroke="midnightblue" points="156.84,-76.56 146.29,-75.52 153.88,-82.91 156.84,-76.56"/>
</g>
<!-- Node10 -->
<g id="node10" class="node">
<title>Node10</title>
<g id="a_node10"><a xlink:href="Mutex_8hpp.html" target="_top" xlink:title="Définition de la classe Mutex.">
<polygon fill="white" stroke="black" points="272,-56.5 272,-75.5 340,-75.5 340,-56.5 272,-56.5"/>
<text text-anchor="middle" x="306" y="-63.5" font-family="Helvetica,sans-Serif" font-size="10.00">Mutex.hpp</text>
</a>
</g>
</g>
<!-- Node6&#45;&gt;Node10 -->
<g id="edge10" class="edge">
<title>Node6&#45;&gt;Node10</title>
<path fill="none" stroke="midnightblue" d="M253.96,-112.32C263.13,-104.34 276.94,-92.31 288.03,-82.65"/>
<polygon fill="midnightblue" stroke="midnightblue" points="290.62,-85.04 295.86,-75.83 286.02,-79.76 290.62,-85.04"/>
</g>
<!-- Node6&#45;&gt;Node11 -->
<g id="edge12" class="edge">
<title>Node6&#45;&gt;Node11</title>
<path fill="none" stroke="midnightblue" d="M209.3,-112.44C168.38,-102.35 100.77,-85.68 59.81,-75.58"/>
<polygon fill="midnightblue" stroke="midnightblue" points="60.55,-72.16 50,-73.16 58.87,-78.96 60.55,-72.16"/>
</g>
<!-- Node10&#45;&gt;Node7 -->
<g id="edge11" class="edge">
<title>Node10&#45;&gt;Node7</title>
<path fill="none" stroke="midnightblue" d="M287.94,-56.44C269.43,-47.68 240.42,-33.94 219.14,-23.86"/>
<polygon fill="midnightblue" stroke="midnightblue" points="220.51,-20.63 209.98,-19.52 217.52,-26.96 220.51,-20.63"/>
</g>
<!-- Node12&#45;&gt;Node5 -->
<g id="edge15" class="edge">
<title>Node12&#45;&gt;Node5</title>
<path fill="none" stroke="midnightblue" d="M456.22,-112.37C445.61,-104.36 431.27,-91.38 425,-76 418.86,-60.95 422.92,-42.59 427.75,-29.23"/>
<polygon fill="midnightblue" stroke="midnightblue" points="431.09,-30.32 431.61,-19.74 424.6,-27.68 431.09,-30.32"/>
</g>
<!-- Node12&#45;&gt;Node10 -->
<g id="edge16" class="edge">
<title>Node12&#45;&gt;Node10</title>
<path fill="none" stroke="midnightblue" d="M443.17,-112.44C415.75,-103.36 372.22,-88.94 341.57,-78.78"/>
<polygon fill="midnightblue" stroke="midnightblue" points="342.3,-75.34 331.71,-75.52 340.1,-81.98 342.3,-75.34"/>
</g>
<!-- Node13 -->
<g id="node13" class="node">
<title>Node13</title>
<g id="a_node13"><a xlink:title=" ">
<polygon fill="white" stroke="#bfbfbf" points="516,-56.5 516,-75.5 572,-75.5 572,-56.5 516,-56.5"/>
<text text-anchor="middle" x="544" y="-63.5" font-family="Helvetica,sans-Serif" font-size="10.00">sstream</text>
</a>
</g>
</g>
<!-- Node12&#45;&gt;Node13 -->
<g id="edge14" class="edge">
<title>Node12&#45;&gt;Node13</title>
<path fill="none" stroke="midnightblue" d="M481.05,-112.32C492.46,-104.11 509.83,-91.6 523.43,-81.81"/>
<polygon fill="midnightblue" stroke="midnightblue" points="525.66,-84.52 531.73,-75.83 521.57,-78.84 525.66,-84.52"/>
</g>
<!-- Node14 -->
<g id="node14" class="node">
<title>Node14</title>
<g id="a_node14"><a xlink:href="Level_8hpp.html" target="_top" xlink:title="Définition de la classe Level.">
<polygon fill="white" stroke="black" points="434,-56.5 434,-75.5 498,-75.5 498,-56.5 434,-56.5"/>
<text text-anchor="middle" x="466" y="-63.5" font-family="Helvetica,sans-Serif" font-size="10.00">Level.hpp</text>
</a>
</g>
</g>
<!-- Node12&#45;&gt;Node14 -->
<g id="edge17" class="edge">
<title>Node12&#45;&gt;Node14</title>
<path fill="none" stroke="midnightblue" d="M468.5,-112.08C468.11,-105.01 467.55,-94.86 467.05,-85.99"/>
<polygon fill="midnightblue" stroke="midnightblue" points="470.54,-85.54 466.49,-75.75 463.55,-85.93 470.54,-85.54"/>
</g>
<!-- Node14&#45;&gt;Node5 -->
<g id="edge18" class="edge">
<title>Node14&#45;&gt;Node5</title>
<path fill="none" stroke="midnightblue" d="M461.05,-56.08C456.9,-48.61 450.85,-37.72 445.73,-28.52"/>
<polygon fill="midnightblue" stroke="midnightblue" points="448.78,-26.79 440.86,-19.75 442.66,-30.19 448.78,-26.79"/>
</g>
<!-- Node15&#45;&gt;Node5 -->
<g id="edge22" class="edge">
<title>Node15&#45;&gt;Node5</title>
<path fill="none" stroke="midnightblue" d="M535.67,-168.44C557.92,-147.7 608.78,-93.71 581,-56 555.33,-21.15 502.92,-12.49 468.64,-10.77"/>
<polygon fill="midnightblue" stroke="midnightblue" points="468.32,-7.25 458.21,-10.42 468.09,-14.25 468.32,-7.25"/>
</g>
<!-- Node15&#45;&gt;Node10 -->
<g id="edge23" class="edge">
<title>Node15&#45;&gt;Node10</title>
<path fill="none" stroke="midnightblue" d="M505.27,-168.34C484.69,-159.62 452.36,-145.54 425,-132 391.29,-115.32 353.3,-94.14 329.5,-80.57"/>
<polygon fill="midnightblue" stroke="midnightblue" points="331.24,-77.53 320.82,-75.6 327.76,-83.61 331.24,-77.53"/>
</g>
<!-- Node15&#45;&gt;Node11 -->
<g id="edge20" class="edge">
<title>Node15&#45;&gt;Node11</title>
<path fill="none" stroke="midnightblue" d="M463.93,-170.21C370.99,-159.86 203.68,-140.44 177,-132 158.8,-126.24 156.35,-119.96 139,-112 112.38,-99.79 81.44,-87.7 58.51,-79.13"/>
<polygon fill="midnightblue" stroke="midnightblue" points="59.49,-75.76 48.89,-75.57 57.06,-82.33 59.49,-75.76"/>
</g>
<!-- Node15&#45;&gt;Node12 -->
<g id="edge24" class="edge">
<title>Node15&#45;&gt;Node12</title>
<path fill="none" stroke="midnightblue" d="M516.84,-168.32C508.5,-160.42 495.97,-148.55 485.82,-138.94"/>
<polygon fill="midnightblue" stroke="midnightblue" points="487.99,-136.17 478.32,-131.83 483.18,-141.25 487.99,-136.17"/>
</g>
<!-- Node15&#45;&gt;Node16 -->
<g id="edge21" class="edge">
<title>Node15&#45;&gt;Node16</title>
<path fill="none" stroke="midnightblue" d="M550.72,-168.44C579.62,-158.44 627.2,-141.97 656.45,-131.84"/>
<polygon fill="midnightblue" stroke="midnightblue" points="657.67,-135.13 665.97,-128.55 655.38,-128.51 657.67,-135.13"/>
</g>
</g>
</svg>
        <g id="navigator" transform="translate(0 0)" fill="#404254">
                <rect fill="#f2f5e9" fill-opacity="0.5" stroke="#606060" stroke-width=".5" x="0" y="0" width="60" height="60"/>
                <use id="zoomplus" xlink:href="#zoomPlus" x="17" y="9" onmousedown="handleZoom(evt,'in')"/>
                <use id="zoomminus" xlink:href="#zoomMin" x="42" y="9" onmousedown="handleZoom(evt,'out')"/>
                <use id="reset" xlink:href="#resetDef" x="30" y="36" onmousedown="handleReset()"/>
                <g id="arrowUp" xlink:href="#dirArrow" transform="translate(30 24)" onmousedown="handlePan(0,-1)">
                  <use xlink:href="#rim" fill="#404040">
                        <set attributeName="fill" to="#808080" begin="arrowUp.mouseover" end="arrowUp.mouseout"/>
                  </use>
                  <path fill="none" stroke="white" stroke-width="1.5" d="M0,-3.0v7 M-2.5,-0.5L0,-3.0L2.5,-0.5"/>
                </g>
                <g id="arrowRight" xlink:href="#dirArrow" transform="rotate(90) translate(36 -43)" onmousedown="handlePan(1,0)">
                  <use xlink:href="#rim" fill="#404040">
                        <set attributeName="fill" to="#808080" begin="arrowRight.mouseover" end="arrowRight.mouseout"/>
                  </use>
                  <path fill="none" stroke="white" stroke-width="1.5" d="M0,-3.0v7 M-2.5,-0.5L0,-3.0L2.5,-0.5"/>
                </g>
                <g id="arrowDown" xlink:href="#dirArrow" transform="rotate(180) translate(-30 -48)" onmousedown="handlePan(0,1)">
                  <use xlink:href="#rim" fill="#404040">
                        <set attributeName="fill" to="#808080" begin="arrowDown.mouseover" end="arrowDown.mouseout"/>
                  </use>
                  <path fill="none" stroke="white" stroke-width="1.5" d="M0,-3.0v7 M-2.5,-0.5L0,-3.0L2.5,-0.5"/>
                </g>
                <g id="arrowLeft" xlink:href="#dirArrow" transform="rotate(270) translate(-36 17)" onmousedown="handlePan(-1,0)">
                  <use xlink:href="#rim" fill="#404040">
                        <set attributeName="fill" to="#808080" begin="arrowLeft.mouseover" end="arrowLeft.mouseout"/>
                  </use>
                  <path fill="none" stroke="white" stroke-width="1.5" d="M0,-3.0v7 M-2.5,-0.5L0,-3.0L2.5,-0.5"/>
                </g>
        </g>
        <svg viewBox="0 0 15 15" width="100%" height="30px" preserveAspectRatio="xMaxYMin meet">
         <g id="arrow_out" transform="scale(0.3 0.3)">
          <a xlink:href="TelemetryAppender_8cpp__incl_org.svg" target="_base">
           <rect id="button" ry="5" rx="5" y="6" x="6" height="38" width="38"
                fill="#f2f5e9" fill-opacity="0.5" stroke="#606060" stroke-width="1.0"/>
           <path id="arrow"
             d="M 11.500037,31.436501 C 11.940474,20.09759 22.043105,11.32322 32.158766,21.979434 L 37.068811,17.246167 C 37.068811,17.246167 37.088388,32 37.088388,32 L 22.160133,31.978069 C 22.160133,31.978069 26.997745,27.140456 26.997745,27.140456 C 18.528582,18.264221 13.291696,25.230495 11.500037,31.436501 z"
             style="fill:#404040;"/>
          </a>
         </g>
        </svg>
</svg>
