<?xml version="1.0" encoding="UTF-8" standalone="no"?>
<!DOCTYPE svg PUBLIC "-//W3C//DTD SVG 1.1//EN"
 "http://www.w3.org/Graphics/SVG/1.1/DTD/svg11.dtd">
<!-- Generated by graphviz version 2.43.0 (0)
 -->
<!-- Title: src/common/thread/Thread.hpp Pages: 1 -->
<svg width="348pt" height="140pt"
 viewBox="0.00 0.00 348.11 140.00" xmlns="http://www.w3.org/2000/svg" xmlns:xlink="http://www.w3.org/1999/xlink">
<g id="graph0" class="graph" transform="scale(1 1) rotate(0) translate(4 136)">
<title>src/common/thread/Thread.hpp</title>
<polygon fill="white" stroke="transparent" points="-4,4 -4,-136 344.11,-136 344.11,4 -4,4"/>
<!-- Node1 -->
<g id="node1" class="node">
<title>Node1</title>
<g id="a_node1"><a xlink:title="Définition de la classe Thread.">
<polygon fill="#bfbfbf" stroke="black" points="47.61,-112.5 47.61,-131.5 216.61,-131.5 216.61,-112.5 47.61,-112.5"/>
<text text-anchor="middle" x="132.11" y="-119.5" font-family="Helvetica,sans-Serif" font-size="10.00">src/common/thread/Thread.hpp</text>
</a>
</g>
</g>
<!-- Node2 -->
<g id="node2" class="node">
<title>Node2</title>
<g id="a_node2"><a xlink:title=" ">
<polygon fill="white" stroke="#bfbfbf" points="80.61,-0.5 80.61,-19.5 143.61,-19.5 143.61,-0.5 80.61,-0.5"/>
<text text-anchor="middle" x="112.11" y="-7.5" font-family="Helvetica,sans-Serif" font-size="10.00">pthread.h</text>
</a>
</g>
</g>
<!-- Node1&#45;&gt;Node2 -->
<g id="edge1" class="edge">
<title>Node1&#45;&gt;Node2</title>
<path fill="none" stroke="midnightblue" d="M62.81,-112.42C40.72,-106.04 18.54,-95.01 5.11,-76 -15.1,-47.4 32.5,-29.06 70.57,-19.38"/>
<polygon fill="midnightblue" stroke="midnightblue" points="71.59,-22.74 80.49,-17 69.95,-15.93 71.59,-22.74"/>
</g>
<!-- Node3 -->
<g id="node3" class="node">
<title>Node3</title>
<g id="a_node3"><a xlink:title=" ">
<polygon fill="white" stroke="#bfbfbf" points="14.11,-56.5 14.11,-75.5 58.11,-75.5 58.11,-56.5 14.11,-56.5"/>
<text text-anchor="middle" x="36.11" y="-63.5" font-family="Helvetica,sans-Serif" font-size="10.00">string</text>
</a>
</g>
</g>
<!-- Node1&#45;&gt;Node3 -->
<g id="edge2" class="edge">
<title>Node1&#45;&gt;Node3</title>
<path fill="none" stroke="midnightblue" d="M116.68,-112.32C101.57,-103.82 78.29,-90.73 60.64,-80.8"/>
<polygon fill="midnightblue" stroke="midnightblue" points="61.93,-77.51 51.49,-75.65 58.49,-83.61 61.93,-77.51"/>
</g>
<!-- Node4 -->
<g id="node4" class="node">
<title>Node4</title>
<g id="a_node4"><a xlink:title=" ">
<polygon fill="white" stroke="#bfbfbf" points="76.11,-56.5 76.11,-75.5 124.11,-75.5 124.11,-56.5 76.11,-56.5"/>
<text text-anchor="middle" x="100.11" y="-63.5" font-family="Helvetica,sans-Serif" font-size="10.00">thread</text>
</a>
</g>
</g>
<!-- Node1&#45;&gt;Node4 -->
<g id="edge3" class="edge">
<title>Node1&#45;&gt;Node4</title>
<path fill="none" stroke="midnightblue" d="M126.82,-112.08C122.4,-104.61 115.94,-93.72 110.49,-84.52"/>
<polygon fill="midnightblue" stroke="midnightblue" points="113.4,-82.57 105.29,-75.75 107.38,-86.14 113.4,-82.57"/>
</g>
<!-- Node5 -->
<g id="node5" class="node">
<title>Node5</title>
<g id="a_node5"><a xlink:title=" ">
<polygon fill="white" stroke="#bfbfbf" points="142.11,-56.5 142.11,-75.5 186.11,-75.5 186.11,-56.5 142.11,-56.5"/>
<text text-anchor="middle" x="164.11" y="-63.5" font-family="Helvetica,sans-Serif" font-size="10.00">ctime</text>
</a>
</g>
</g>
<!-- Node1&#45;&gt;Node5 -->
<g id="edge4" class="edge">
<title>Node1&#45;&gt;Node5</title>
<path fill="none" stroke="midnightblue" d="M137.39,-112.08C141.82,-104.61 148.27,-93.72 153.73,-84.52"/>
<polygon fill="midnightblue" stroke="midnightblue" points="156.84,-86.14 158.92,-75.75 150.81,-82.57 156.84,-86.14"/>
</g>
<!-- Node6 -->
<g id="node6" class="node">
<title>Node6</title>
<g id="a_node6"><a xlink:href="Mutex_8hpp.html" target="_top" xlink:title="Définition de la classe Mutex.">
<polygon fill="white" stroke="black" points="204.11,-56.5 204.11,-75.5 272.11,-75.5 272.11,-56.5 204.11,-56.5"/>
<text text-anchor="middle" x="238.11" y="-63.5" font-family="Helvetica,sans-Serif" font-size="10.00">Mutex.hpp</text>
</a>
</g>
</g>
<!-- Node1&#45;&gt;Node6 -->
<g id="edge5" class="edge">
<title>Node1&#45;&gt;Node6</title>
<path fill="none" stroke="midnightblue" d="M149.14,-112.32C166.14,-103.66 192.48,-90.24 212.1,-80.25"/>
<polygon fill="midnightblue" stroke="midnightblue" points="213.8,-83.31 221.12,-75.65 210.62,-77.08 213.8,-83.31"/>
</g>
<!-- Node7 -->
<g id="node7" class="node">
<title>Node7</title>
<g id="a_node7"><a xlink:title=" ">
<polygon fill="white" stroke="#bfbfbf" points="290.11,-56.5 290.11,-75.5 340.11,-75.5 340.11,-56.5 290.11,-56.5"/>
<text text-anchor="middle" x="315.11" y="-63.5" font-family="Helvetica,sans-Serif" font-size="10.00">chrono</text>
</a>
</g>
</g>
<!-- Node1&#45;&gt;Node7 -->
<g id="edge7" class="edge">
<title>Node1&#45;&gt;Node7</title>
<path fill="none" stroke="midnightblue" d="M161.1,-112.44C193.49,-102.89 245.87,-87.43 280.4,-77.24"/>
<polygon fill="midnightblue" stroke="midnightblue" points="281.47,-80.58 290.07,-74.39 279.49,-73.86 281.47,-80.58"/>
</g>
<!-- Node6&#45;&gt;Node2 -->
<g id="edge6" class="edge">
<title>Node6&#45;&gt;Node2</title>
<path fill="none" stroke="midnightblue" d="M218.14,-56.44C197.5,-47.6 165.05,-33.69 141.48,-23.59"/>
<polygon fill="midnightblue" stroke="midnightblue" points="142.55,-20.24 131.98,-19.52 139.79,-26.67 142.55,-20.24"/>
</g>
</g>
</svg>
