<?xml version="1.0" encoding="UTF-8" standalone="no"?>
<!DOCTYPE svg PUBLIC "-//W3C//DTD SVG 1.1//EN"
 "http://www.w3.org/Graphics/SVG/1.1/DTD/svg11.dtd">
<!-- Generated by graphviz version 2.43.0 (0)
 -->
<!-- Title: test/common/ThreadTest.hpp Pages: 1 -->
<!--zoomable 319 -->
<svg id="main" version="1.1" xmlns="http://www.w3.org/2000/svg" xmlns:xlink="http://www.w3.org/1999/xlink" xml:space="preserve" onload="init(evt)">
<style type="text/css"><![CDATA[
.edge:hover path { stroke: red; }
.edge:hover polygon { stroke: red; fill: red; }
]]></style>
<script type="text/javascript"><![CDATA[
var edges = document.getElementsByTagName('g');
if (edges && edges.length) {
  for (var i=0;i<edges.length;i++) {
    if (edges[i].id.substr(0,4)=='edge') {
      edges[i].setAttribute('class','edge');
    }
  }
}
]]></script>
        <defs>
                <circle id="rim" cx="0" cy="0" r="7"/>
                <circle id="rim2" cx="0" cy="0" r="3.5"/>
                <g id="zoomPlus">
                        <use xlink:href="#rim" fill="#404040">
                                <set attributeName="fill" to="#808080" begin="zoomplus.mouseover" end="zoomplus.mouseout"/>
                        </use>
                        <path d="M-4,0h8M0,-4v8" fill="none" stroke="white" stroke-width="1.5" pointer-events="none"/>
                </g>
                <g id="zoomMin">
                        <use xlink:href="#rim" fill="#404040">
                                <set attributeName="fill" to="#808080" begin="zoomminus.mouseover" end="zoomminus.mouseout"/>
                        </use>
                        <path d="M-4,0h8" fill="none" stroke="white" stroke-width="1.5" pointer-events="none"/>
                </g>
                <g id="dirArrow">
                        <path fill="none" stroke="white" stroke-width="1.5" d="M0,-3.0v7 M-2.5,-0.5L0,-3.0L2.5,-0.5"/>
                </g>
               <g id="resetDef">
                       <use xlink:href="#rim2" fill="#404040">
                               <set attributeName="fill" to="#808080" begin="reset.mouseover" end="reset.mouseout"/>
                       </use>
               </g>
        </defs>

<script type="text/javascript">
var viewWidth = 621;
var viewHeight = 319;
var sectionId = 'dynsection-0';
</script>
<script xlink:href="svgpan.js"/>
<svg id="graph" class="graph">
<g id="viewport">
<title>test/common/ThreadTest.hpp</title>
<polygon fill="white" stroke="transparent" points="-4,4 -4,-315 617.19,-315 617.19,4 -4,4"/>
<!-- Node1 -->
<g id="node1" class="node">
<title>Node1</title>
<g id="a_node1"><a xlink:title="Définition de la classe ThreadTest.">
<polygon fill="#bfbfbf" stroke="black" points="95.19,-291.5 95.19,-310.5 253.19,-310.5 253.19,-291.5 95.19,-291.5"/>
<text text-anchor="middle" x="174.19" y="-298.5" font-family="Helvetica,sans-Serif" font-size="10.00">test/common/ThreadTest.hpp</text>
</a>
</g>
</g>
<!-- Node2 -->
<g id="node2" class="node">
<title>Node2</title>
<g id="a_node2"><a xlink:href="UnitTest_8hpp.html" target="_top" xlink:title="Définition de la classe DevUnitTest.">
<polygon fill="white" stroke="black" points="75.69,-235.5 75.69,-254.5 188.69,-254.5 188.69,-235.5 75.69,-235.5"/>
<text text-anchor="middle" x="132.19" y="-242.5" font-family="Helvetica,sans-Serif" font-size="10.00">../suite/UnitTest.hpp</text>
</a>
</g>
</g>
<!-- Node1&#45;&gt;Node2 -->
<g id="edge1" class="edge">
<title>Node1&#45;&gt;Node2</title>
<path fill="none" stroke="midnightblue" d="M167.26,-291.08C161.26,-283.38 152.44,-272.03 145.15,-262.65"/>
<polygon fill="midnightblue" stroke="midnightblue" points="147.9,-260.5 139,-254.75 142.38,-264.79 147.9,-260.5"/>
</g>
<!-- Node6 -->
<g id="node6" class="node">
<title>Node6</title>
<g id="a_node6"><a xlink:href="Thread_8hpp.html" target="_top" xlink:title="Définition de la classe Thread.">
<polygon fill="white" stroke="black" points="330.69,-112.5 330.69,-131.5 445.69,-131.5 445.69,-112.5 330.69,-112.5"/>
<text text-anchor="middle" x="388.19" y="-119.5" font-family="Helvetica,sans-Serif" font-size="10.00">../thread/Thread.hpp</text>
</a>
</g>
</g>
<!-- Node1&#45;&gt;Node6 -->
<g id="edge20" class="edge">
<title>Node1&#45;&gt;Node6</title>
<path fill="none" stroke="midnightblue" d="M184.52,-291.46C218.33,-263.5 326.09,-174.37 369.66,-138.33"/>
<polygon fill="midnightblue" stroke="midnightblue" points="372,-140.94 377.47,-131.87 367.54,-135.54 372,-140.94"/>
</g>
<!-- Node3 -->
<g id="node3" class="node">
<title>Node3</title>
<g id="a_node3"><a xlink:title=" ">
<polygon fill="white" stroke="#bfbfbf" points="163.19,-0.5 163.19,-19.5 207.19,-19.5 207.19,-0.5 163.19,-0.5"/>
<text text-anchor="middle" x="185.19" y="-7.5" font-family="Helvetica,sans-Serif" font-size="10.00">string</text>
</a>
</g>
</g>
<!-- Node2&#45;&gt;Node3 -->
<g id="edge2" class="edge">
<title>Node2&#45;&gt;Node3</title>
<path fill="none" stroke="midnightblue" d="M111.14,-235.47C69.02,-217 -19.61,-170.21 4.19,-112 28.71,-52.05 108.22,-26.48 153.28,-16.57"/>
<polygon fill="midnightblue" stroke="midnightblue" points="154.05,-19.98 163.14,-14.53 152.64,-13.13 154.05,-19.98"/>
</g>
<!-- Node4 -->
<g id="node4" class="node">
<title>Node4</title>
<g id="a_node4"><a xlink:href="LoggerFactory_8hpp.html" target="_top" xlink:title="Définition de la classe LoggerFactory.">
<polygon fill="white" stroke="black" points="75.69,-168.5 75.69,-198.5 188.69,-198.5 188.69,-168.5 75.69,-168.5"/>
<text text-anchor="start" x="83.69" y="-186.5" font-family="Helvetica,sans-Serif" font-size="10.00">../../src/common/log</text>
<text text-anchor="middle" x="132.19" y="-175.5" font-family="Helvetica,sans-Serif" font-size="10.00">/LoggerFactory.hpp</text>
</a>
</g>
</g>
<!-- Node2&#45;&gt;Node4 -->
<g id="edge3" class="edge">
<title>Node2&#45;&gt;Node4</title>
<path fill="none" stroke="midnightblue" d="M132.19,-235.48C132.19,-228.47 132.19,-218.19 132.19,-208.7"/>
<polygon fill="midnightblue" stroke="midnightblue" points="135.69,-208.52 132.19,-198.52 128.69,-208.52 135.69,-208.52"/>
</g>
<!-- Node4&#45;&gt;Node3 -->
<g id="edge5" class="edge">
<title>Node4&#45;&gt;Node3</title>
<path fill="none" stroke="midnightblue" d="M115.49,-168.12C89.38,-143.86 44.41,-93.78 70.19,-56 88.55,-29.11 125.59,-18.29 152.69,-13.93"/>
<polygon fill="midnightblue" stroke="midnightblue" points="153.47,-17.36 162.89,-12.52 152.5,-10.43 153.47,-17.36"/>
</g>
<!-- Node5 -->
<g id="node5" class="node">
<title>Node5</title>
<g id="a_node5"><a xlink:title=" ">
<polygon fill="white" stroke="#bfbfbf" points="13.19,-112.5 13.19,-131.5 51.19,-131.5 51.19,-112.5 13.19,-112.5"/>
<text text-anchor="middle" x="32.19" y="-119.5" font-family="Helvetica,sans-Serif" font-size="10.00">map</text>
</a>
</g>
</g>
<!-- Node4&#45;&gt;Node5 -->
<g id="edge4" class="edge">
<title>Node4&#45;&gt;Node5</title>
<path fill="none" stroke="midnightblue" d="M108.5,-168.4C92.47,-158.86 71.4,-146.32 55.46,-136.84"/>
<polygon fill="midnightblue" stroke="midnightblue" points="57.13,-133.76 46.74,-131.66 53.55,-139.78 57.13,-133.76"/>
</g>
<!-- Node4&#45;&gt;Node6 -->
<g id="edge6" class="edge">
<title>Node4&#45;&gt;Node6</title>
<path fill="none" stroke="midnightblue" d="M189.01,-169.3C234.83,-158.65 298.5,-143.85 341.41,-133.87"/>
<polygon fill="midnightblue" stroke="midnightblue" points="342.36,-137.25 351.31,-131.57 340.78,-130.43 342.36,-137.25"/>
</g>
<!-- Node12 -->
<g id="node12" class="node">
<title>Node12</title>
<g id="a_node12"><a xlink:href="Logger_8hpp.html" target="_top" xlink:title="Définition de la classe Logger.">
<polygon fill="white" stroke="black" points="150.19,-112.5 150.19,-131.5 220.19,-131.5 220.19,-112.5 150.19,-112.5"/>
<text text-anchor="middle" x="185.19" y="-119.5" font-family="Helvetica,sans-Serif" font-size="10.00">Logger.hpp</text>
</a>
</g>
</g>
<!-- Node4&#45;&gt;Node12 -->
<g id="edge14" class="edge">
<title>Node4&#45;&gt;Node12</title>
<path fill="none" stroke="midnightblue" d="M144.75,-168.4C152.54,-159.66 162.56,-148.41 170.68,-139.3"/>
<polygon fill="midnightblue" stroke="midnightblue" points="173.44,-141.45 177.48,-131.66 168.22,-136.8 173.44,-141.45"/>
</g>
<!-- Node6&#45;&gt;Node3 -->
<g id="edge8" class="edge">
<title>Node6&#45;&gt;Node3</title>
<path fill="none" stroke="midnightblue" d="M385.55,-112.4C380.81,-98.4 369.49,-70.79 350.19,-56 311.11,-26.04 253.42,-16.01 217.63,-12.67"/>
<polygon fill="midnightblue" stroke="midnightblue" points="217.52,-9.15 207.27,-11.83 216.96,-16.12 217.52,-9.15"/>
</g>
<!-- Node7 -->
<g id="node7" class="node">
<title>Node7</title>
<g id="a_node7"><a xlink:title=" ">
<polygon fill="white" stroke="#bfbfbf" points="325.69,-0.5 325.69,-19.5 388.69,-19.5 388.69,-0.5 325.69,-0.5"/>
<text text-anchor="middle" x="357.19" y="-7.5" font-family="Helvetica,sans-Serif" font-size="10.00">pthread.h</text>
</a>
</g>
</g>
<!-- Node6&#45;&gt;Node7 -->
<g id="edge7" class="edge">
<title>Node6&#45;&gt;Node7</title>
<path fill="none" stroke="midnightblue" d="M388.73,-112.36C389.24,-99.69 389.22,-75.46 383.19,-56 380.16,-46.21 374.7,-36.25 369.57,-28.2"/>
<polygon fill="midnightblue" stroke="midnightblue" points="372.35,-26.07 363.85,-19.75 366.56,-29.99 372.35,-26.07"/>
</g>
<!-- Node8 -->
<g id="node8" class="node">
<title>Node8</title>
<g id="a_node8"><a xlink:title=" ">
<polygon fill="white" stroke="#bfbfbf" points="435.19,-56.5 435.19,-75.5 483.19,-75.5 483.19,-56.5 435.19,-56.5"/>
<text text-anchor="middle" x="459.19" y="-63.5" font-family="Helvetica,sans-Serif" font-size="10.00">thread</text>
</a>
</g>
</g>
<!-- Node6&#45;&gt;Node8 -->
<g id="edge9" class="edge">
<title>Node6&#45;&gt;Node8</title>
<path fill="none" stroke="midnightblue" d="M399.6,-112.32C410.3,-104.18 426.53,-91.84 439.36,-82.09"/>
<polygon fill="midnightblue" stroke="midnightblue" points="441.74,-84.67 447.58,-75.83 437.5,-79.1 441.74,-84.67"/>
</g>
<!-- Node9 -->
<g id="node9" class="node">
<title>Node9</title>
<g id="a_node9"><a xlink:title=" ">
<polygon fill="white" stroke="#bfbfbf" points="501.19,-56.5 501.19,-75.5 545.19,-75.5 545.19,-56.5 501.19,-56.5"/>
<text text-anchor="middle" x="523.19" y="-63.5" font-family="Helvetica,sans-Serif" font-size="10.00">ctime</text>
</a>
</g>
</g>
<!-- Node6&#45;&gt;Node9 -->
<g id="edge10" class="edge">
<title>Node6&#45;&gt;Node9</title>
<path fill="none" stroke="midnightblue" d="M409.59,-112.44C431.9,-103.52 467.1,-89.44 492.4,-79.32"/>
<polygon fill="midnightblue" stroke="midnightblue" points="493.92,-82.48 501.9,-75.52 491.32,-75.98 493.92,-82.48"/>
</g>
<!-- Node10 -->
<g id="node10" class="node">
<title>Node10</title>
<g id="a_node10"><a xlink:href="Mutex_8hpp.html" target="_top" xlink:title="Définition de la classe Mutex.">
<polygon fill="white" stroke="black" points="273.19,-56.5 273.19,-75.5 341.19,-75.5 341.19,-56.5 273.19,-56.5"/>
<text text-anchor="middle" x="307.19" y="-63.5" font-family="Helvetica,sans-Serif" font-size="10.00">Mutex.hpp</text>
</a>
</g>
</g>
<!-- Node6&#45;&gt;Node10 -->
<g id="edge11" class="edge">
<title>Node6&#45;&gt;Node10</title>
<path fill="none" stroke="midnightblue" d="M375.18,-112.32C362.66,-103.98 343.51,-91.21 328.72,-81.35"/>
<polygon fill="midnightblue" stroke="midnightblue" points="330.44,-78.29 320.18,-75.65 326.55,-84.11 330.44,-78.29"/>
</g>
<!-- Node11 -->
<g id="node11" class="node">
<title>Node11</title>
<g id="a_node11"><a xlink:title=" ">
<polygon fill="white" stroke="#bfbfbf" points="563.19,-56.5 563.19,-75.5 613.19,-75.5 613.19,-56.5 563.19,-56.5"/>
<text text-anchor="middle" x="588.19" y="-63.5" font-family="Helvetica,sans-Serif" font-size="10.00">chrono</text>
</a>
</g>
</g>
<!-- Node6&#45;&gt;Node11 -->
<g id="edge13" class="edge">
<title>Node6&#45;&gt;Node11</title>
<path fill="none" stroke="midnightblue" d="M419.88,-112.44C456.13,-102.66 515.31,-86.68 552.97,-76.51"/>
<polygon fill="midnightblue" stroke="midnightblue" points="554.24,-79.79 562.98,-73.81 552.42,-73.03 554.24,-79.79"/>
</g>
<!-- Node10&#45;&gt;Node7 -->
<g id="edge12" class="edge">
<title>Node10&#45;&gt;Node7</title>
<path fill="none" stroke="midnightblue" d="M315.45,-56.08C322.66,-48.3 333.3,-36.8 342.04,-27.37"/>
<polygon fill="midnightblue" stroke="midnightblue" points="344.87,-29.47 349.09,-19.75 339.73,-24.71 344.87,-29.47"/>
</g>
<!-- Node12&#45;&gt;Node3 -->
<g id="edge16" class="edge">
<title>Node12&#45;&gt;Node3</title>
<path fill="none" stroke="midnightblue" d="M197.19,-112.34C212.11,-100.41 234.67,-77.9 226.19,-56 221.74,-44.5 212.83,-34.13 204.44,-26.25"/>
<polygon fill="midnightblue" stroke="midnightblue" points="206.57,-23.46 196.73,-19.51 201.96,-28.73 206.57,-23.46"/>
</g>
<!-- Node12&#45;&gt;Node10 -->
<g id="edge17" class="edge">
<title>Node12&#45;&gt;Node10</title>
<path fill="none" stroke="midnightblue" d="M204.53,-112.44C224.51,-103.6 255.94,-89.69 278.76,-79.59"/>
<polygon fill="midnightblue" stroke="midnightblue" points="280.23,-82.76 287.95,-75.52 277.39,-76.36 280.23,-82.76"/>
</g>
<!-- Node13 -->
<g id="node13" class="node">
<title>Node13</title>
<g id="a_node13"><a xlink:title=" ">
<polygon fill="white" stroke="#bfbfbf" points="79.19,-56.5 79.19,-75.5 135.19,-75.5 135.19,-56.5 79.19,-56.5"/>
<text text-anchor="middle" x="107.19" y="-63.5" font-family="Helvetica,sans-Serif" font-size="10.00">sstream</text>
</a>
</g>
</g>
<!-- Node12&#45;&gt;Node13 -->
<g id="edge15" class="edge">
<title>Node12&#45;&gt;Node13</title>
<path fill="none" stroke="midnightblue" d="M172.66,-112.32C160.61,-103.98 142.17,-91.21 127.93,-81.35"/>
<polygon fill="midnightblue" stroke="midnightblue" points="129.91,-78.47 119.7,-75.65 125.92,-84.22 129.91,-78.47"/>
</g>
<!-- Node14 -->
<g id="node14" class="node">
<title>Node14</title>
<g id="a_node14"><a xlink:href="Level_8hpp.html" target="_top" xlink:title="Définition de la classe Level.">
<polygon fill="white" stroke="black" points="153.19,-56.5 153.19,-75.5 217.19,-75.5 217.19,-56.5 153.19,-56.5"/>
<text text-anchor="middle" x="185.19" y="-63.5" font-family="Helvetica,sans-Serif" font-size="10.00">Level.hpp</text>
</a>
</g>
</g>
<!-- Node12&#45;&gt;Node14 -->
<g id="edge18" class="edge">
<title>Node12&#45;&gt;Node14</title>
<path fill="none" stroke="midnightblue" d="M185.19,-112.08C185.19,-105.01 185.19,-94.86 185.19,-85.99"/>
<polygon fill="midnightblue" stroke="midnightblue" points="188.69,-85.75 185.19,-75.75 181.69,-85.75 188.69,-85.75"/>
</g>
<!-- Node14&#45;&gt;Node3 -->
<g id="edge19" class="edge">
<title>Node14&#45;&gt;Node3</title>
<path fill="none" stroke="midnightblue" d="M185.19,-56.08C185.19,-49.01 185.19,-38.86 185.19,-29.99"/>
<polygon fill="midnightblue" stroke="midnightblue" points="188.69,-29.75 185.19,-19.75 181.69,-29.75 188.69,-29.75"/>
</g>
</g>
</svg>
        <g id="navigator" transform="translate(0 0)" fill="#404254">
                <rect fill="#f2f5e9" fill-opacity="0.5" stroke="#606060" stroke-width=".5" x="0" y="0" width="60" height="60"/>
                <use id="zoomplus" xlink:href="#zoomPlus" x="17" y="9" onmousedown="handleZoom(evt,'in')"/>
                <use id="zoomminus" xlink:href="#zoomMin" x="42" y="9" onmousedown="handleZoom(evt,'out')"/>
                <use id="reset" xlink:href="#resetDef" x="30" y="36" onmousedown="handleReset()"/>
                <g id="arrowUp" xlink:href="#dirArrow" transform="translate(30 24)" onmousedown="handlePan(0,-1)">
                  <use xlink:href="#rim" fill="#404040">
                        <set attributeName="fill" to="#808080" begin="arrowUp.mouseover" end="arrowUp.mouseout"/>
                  </use>
                  <path fill="none" stroke="white" stroke-width="1.5" d="M0,-3.0v7 M-2.5,-0.5L0,-3.0L2.5,-0.5"/>
                </g>
                <g id="arrowRight" xlink:href="#dirArrow" transform="rotate(90) translate(36 -43)" onmousedown="handlePan(1,0)">
                  <use xlink:href="#rim" fill="#404040">
                        <set attributeName="fill" to="#808080" begin="arrowRight.mouseover" end="arrowRight.mouseout"/>
                  </use>
                  <path fill="none" stroke="white" stroke-width="1.5" d="M0,-3.0v7 M-2.5,-0.5L0,-3.0L2.5,-0.5"/>
                </g>
                <g id="arrowDown" xlink:href="#dirArrow" transform="rotate(180) translate(-30 -48)" onmousedown="handlePan(0,1)">
                  <use xlink:href="#rim" fill="#404040">
                        <set attributeName="fill" to="#808080" begin="arrowDown.mouseover" end="arrowDown.mouseout"/>
                  </use>
                  <path fill="none" stroke="white" stroke-width="1.5" d="M0,-3.0v7 M-2.5,-0.5L0,-3.0L2.5,-0.5"/>
                </g>
                <g id="arrowLeft" xlink:href="#dirArrow" transform="rotate(270) translate(-36 17)" onmousedown="handlePan(-1,0)">
                  <use xlink:href="#rim" fill="#404040">
                        <set attributeName="fill" to="#808080" begin="arrowLeft.mouseover" end="arrowLeft.mouseout"/>
                  </use>
                  <path fill="none" stroke="white" stroke-width="1.5" d="M0,-3.0v7 M-2.5,-0.5L0,-3.0L2.5,-0.5"/>
                </g>
        </g>
        <svg viewBox="0 0 15 15" width="100%" height="30px" preserveAspectRatio="xMaxYMin meet">
         <g id="arrow_out" transform="scale(0.3 0.3)">
          <a xlink:href="ThreadTest_8hpp__incl_org.svg" target="_base">
           <rect id="button" ry="5" rx="5" y="6" x="6" height="38" width="38"
                fill="#f2f5e9" fill-opacity="0.5" stroke="#606060" stroke-width="1.0"/>
           <path id="arrow"
             d="M 11.500037,31.436501 C 11.940474,20.09759 22.043105,11.32322 32.158766,21.979434 L 37.068811,17.246167 C 37.068811,17.246167 37.088388,32 37.088388,32 L 22.160133,31.978069 C 22.160133,31.978069 26.997745,27.140456 26.997745,27.140456 C 18.528582,18.264221 13.291696,25.230495 11.500037,31.436501 z"
             style="fill:#404040;"/>
          </a>
         </g>
        </svg>
</svg>
