<?xml version="1.0" encoding="UTF-8" standalone="no"?>
<!DOCTYPE svg PUBLIC "-//W3C//DTD SVG 1.1//EN"
 "http://www.w3.org/Graphics/SVG/1.1/DTD/svg11.dtd">
<!-- Generated by graphviz version 2.43.0 (0)
 -->
<!-- Title: test/common/ThreadTest.hpp Pages: 1 -->
<svg width="538pt" height="319pt"
 viewBox="0.00 0.00 538.47 319.00" xmlns="http://www.w3.org/2000/svg" xmlns:xlink="http://www.w3.org/1999/xlink">
<g id="graph0" class="graph" transform="scale(1 1) rotate(0) translate(4 315)">
<title>test/common/ThreadTest.hpp</title>
<polygon fill="white" stroke="transparent" points="-4,4 -4,-315 534.47,-315 534.47,4 -4,4"/>
<!-- Node1 -->
<g id="node1" class="node">
<title>Node1</title>
<g id="a_node1"><a xlink:title="Définition de la classe ThreadTest.">
<polygon fill="#bfbfbf" stroke="black" points="85.33,-291.5 85.33,-310.5 243.33,-310.5 243.33,-291.5 85.33,-291.5"/>
<text text-anchor="middle" x="164.33" y="-298.5" font-family="Helvetica,sans-Serif" font-size="10.00">test/common/ThreadTest.hpp</text>
</a>
</g>
</g>
<!-- Node2 -->
<g id="node2" class="node">
<title>Node2</title>
<g id="a_node2"><a xlink:href="UnitTest_8hpp.html" target="_top" xlink:title="Définition de la classe DevUnitTest.">
<polygon fill="white" stroke="black" points="65.83,-235.5 65.83,-254.5 178.83,-254.5 178.83,-235.5 65.83,-235.5"/>
<text text-anchor="middle" x="122.33" y="-242.5" font-family="Helvetica,sans-Serif" font-size="10.00">../suite/UnitTest.hpp</text>
</a>
</g>
</g>
<!-- Node1&#45;&gt;Node2 -->
<g id="edge1" class="edge">
<title>Node1&#45;&gt;Node2</title>
<path fill="none" stroke="midnightblue" d="M157.39,-291.08C151.4,-283.38 142.58,-272.03 135.28,-262.65"/>
<polygon fill="midnightblue" stroke="midnightblue" points="138.04,-260.5 129.14,-254.75 132.51,-264.79 138.04,-260.5"/>
</g>
<!-- Node6 -->
<g id="node6" class="node">
<title>Node6</title>
<g id="a_node6"><a xlink:href="Thread_8hpp.html" target="_top" xlink:title="Définition de la classe Thread.">
<polygon fill="white" stroke="black" points="314.83,-112.5 314.83,-131.5 429.83,-131.5 429.83,-112.5 314.83,-112.5"/>
<text text-anchor="middle" x="372.33" y="-119.5" font-family="Helvetica,sans-Serif" font-size="10.00">../thread/Thread.hpp</text>
</a>
</g>
</g>
<!-- Node1&#45;&gt;Node6 -->
<g id="edge19" class="edge">
<title>Node1&#45;&gt;Node6</title>
<path fill="none" stroke="midnightblue" d="M174.36,-291.46C207.16,-263.55 311.53,-174.74 354.04,-138.56"/>
<polygon fill="midnightblue" stroke="midnightblue" points="356.56,-141.01 361.91,-131.87 352.02,-135.68 356.56,-141.01"/>
</g>
<!-- Node3 -->
<g id="node3" class="node">
<title>Node3</title>
<g id="a_node3"><a xlink:title=" ">
<polygon fill="white" stroke="#bfbfbf" points="144.33,-0.5 144.33,-19.5 188.33,-19.5 188.33,-0.5 144.33,-0.5"/>
<text text-anchor="middle" x="166.33" y="-7.5" font-family="Helvetica,sans-Serif" font-size="10.00">string</text>
</a>
</g>
</g>
<!-- Node2&#45;&gt;Node3 -->
<g id="edge2" class="edge">
<title>Node2&#45;&gt;Node3</title>
<path fill="none" stroke="midnightblue" d="M103.5,-235.5C64.46,-216.55 -19.75,-168.06 4.33,-112 27.18,-58.8 94.28,-31.18 134.6,-18.99"/>
<polygon fill="midnightblue" stroke="midnightblue" points="135.59,-22.35 144.23,-16.22 133.65,-15.62 135.59,-22.35"/>
</g>
<!-- Node4 -->
<g id="node4" class="node">
<title>Node4</title>
<g id="a_node4"><a xlink:href="LoggerFactory_8hpp.html" target="_top" xlink:title="Définition de la classe LoggerFactory.">
<polygon fill="white" stroke="black" points="65.83,-168.5 65.83,-198.5 178.83,-198.5 178.83,-168.5 65.83,-168.5"/>
<text text-anchor="start" x="73.83" y="-186.5" font-family="Helvetica,sans-Serif" font-size="10.00">../../src/common/log</text>
<text text-anchor="middle" x="122.33" y="-175.5" font-family="Helvetica,sans-Serif" font-size="10.00">/LoggerFactory.hpp</text>
</a>
</g>
</g>
<!-- Node2&#45;&gt;Node4 -->
<g id="edge3" class="edge">
<title>Node2&#45;&gt;Node4</title>
<path fill="none" stroke="midnightblue" d="M122.33,-235.48C122.33,-228.47 122.33,-218.19 122.33,-208.7"/>
<polygon fill="midnightblue" stroke="midnightblue" points="125.83,-208.52 122.33,-198.52 118.83,-208.52 125.83,-208.52"/>
</g>
<!-- Node4&#45;&gt;Node3 -->
<g id="edge5" class="edge">
<title>Node4&#45;&gt;Node3</title>
<path fill="none" stroke="midnightblue" d="M108.81,-168.41C87.26,-144.15 49.81,-93.51 73.33,-56 86.59,-34.84 112.94,-23.39 134.21,-17.34"/>
<polygon fill="midnightblue" stroke="midnightblue" points="135.35,-20.66 144.16,-14.79 133.61,-13.88 135.35,-20.66"/>
</g>
<!-- Node5 -->
<g id="node5" class="node">
<title>Node5</title>
<g id="a_node5"><a xlink:title=" ">
<polygon fill="white" stroke="#bfbfbf" points="13.33,-112.5 13.33,-131.5 51.33,-131.5 51.33,-112.5 13.33,-112.5"/>
<text text-anchor="middle" x="32.33" y="-119.5" font-family="Helvetica,sans-Serif" font-size="10.00">map</text>
</a>
</g>
</g>
<!-- Node4&#45;&gt;Node5 -->
<g id="edge4" class="edge">
<title>Node4&#45;&gt;Node5</title>
<path fill="none" stroke="midnightblue" d="M101,-168.4C86.84,-159.04 68.32,-146.79 54.08,-137.38"/>
<polygon fill="midnightblue" stroke="midnightblue" points="55.7,-134.25 45.42,-131.66 51.84,-140.09 55.7,-134.25"/>
</g>
<!-- Node4&#45;&gt;Node6 -->
<g id="edge6" class="edge">
<title>Node4&#45;&gt;Node6</title>
<path fill="none" stroke="midnightblue" d="M179.06,-169C223.64,-158.39 284.94,-143.8 326.46,-133.92"/>
<polygon fill="midnightblue" stroke="midnightblue" points="327.39,-137.29 336.31,-131.57 325.77,-130.48 327.39,-137.29"/>
</g>
<!-- Node11 -->
<g id="node11" class="node">
<title>Node11</title>
<g id="a_node11"><a xlink:href="Logger_8hpp.html" target="_top" xlink:title="Définition de la classe Logger.">
<polygon fill="white" stroke="black" points="131.33,-112.5 131.33,-131.5 201.33,-131.5 201.33,-112.5 131.33,-112.5"/>
<text text-anchor="middle" x="166.33" y="-119.5" font-family="Helvetica,sans-Serif" font-size="10.00">Logger.hpp</text>
</a>
</g>
</g>
<!-- Node4&#45;&gt;Node11 -->
<g id="edge13" class="edge">
<title>Node4&#45;&gt;Node11</title>
<path fill="none" stroke="midnightblue" d="M132.76,-168.4C139.08,-159.84 147.2,-148.87 153.86,-139.86"/>
<polygon fill="midnightblue" stroke="midnightblue" points="156.79,-141.78 159.93,-131.66 151.17,-137.62 156.79,-141.78"/>
</g>
<!-- Node6&#45;&gt;Node3 -->
<g id="edge8" class="edge">
<title>Node6&#45;&gt;Node3</title>
<path fill="none" stroke="midnightblue" d="M372.39,-112.46C372.02,-98.56 369.16,-71.09 353.33,-56 331.3,-35.01 245.89,-21.1 198.49,-14.83"/>
<polygon fill="midnightblue" stroke="midnightblue" points="198.79,-11.34 188.43,-13.54 197.9,-18.28 198.79,-11.34"/>
</g>
<!-- Node7 -->
<g id="node7" class="node">
<title>Node7</title>
<g id="a_node7"><a xlink:title=" ">
<polygon fill="white" stroke="#bfbfbf" points="395.83,-0.5 395.83,-19.5 458.83,-19.5 458.83,-0.5 395.83,-0.5"/>
<text text-anchor="middle" x="427.33" y="-7.5" font-family="Helvetica,sans-Serif" font-size="10.00">pthread.h</text>
</a>
</g>
</g>
<!-- Node6&#45;&gt;Node7 -->
<g id="edge7" class="edge">
<title>Node6&#45;&gt;Node7</title>
<path fill="none" stroke="midnightblue" d="M424.49,-112.49C463.83,-104.88 513.05,-92.4 525.33,-76 544.48,-50.41 503.56,-31.81 468.88,-21.22"/>
<polygon fill="midnightblue" stroke="midnightblue" points="469.43,-17.74 458.85,-18.32 467.49,-24.46 469.43,-17.74"/>
</g>
<!-- Node8 -->
<g id="node8" class="node">
<title>Node8</title>
<g id="a_node8"><a xlink:title=" ">
<polygon fill="white" stroke="#bfbfbf" points="400.33,-56.5 400.33,-75.5 448.33,-75.5 448.33,-56.5 400.33,-56.5"/>
<text text-anchor="middle" x="424.33" y="-63.5" font-family="Helvetica,sans-Serif" font-size="10.00">thread</text>
</a>
</g>
</g>
<!-- Node6&#45;&gt;Node8 -->
<g id="edge9" class="edge">
<title>Node6&#45;&gt;Node8</title>
<path fill="none" stroke="midnightblue" d="M380.92,-112.08C388.49,-104.22 399.71,-92.57 408.84,-83.08"/>
<polygon fill="midnightblue" stroke="midnightblue" points="411.49,-85.38 415.9,-75.75 406.44,-80.53 411.49,-85.38"/>
</g>
<!-- Node9 -->
<g id="node9" class="node">
<title>Node9</title>
<g id="a_node9"><a xlink:href="Mutex_8hpp.html" target="_top" xlink:title="Définition de la classe Mutex.">
<polygon fill="white" stroke="black" points="276.33,-56.5 276.33,-75.5 344.33,-75.5 344.33,-56.5 276.33,-56.5"/>
<text text-anchor="middle" x="310.33" y="-63.5" font-family="Helvetica,sans-Serif" font-size="10.00">Mutex.hpp</text>
</a>
</g>
</g>
<!-- Node6&#45;&gt;Node9 -->
<g id="edge10" class="edge">
<title>Node6&#45;&gt;Node9</title>
<path fill="none" stroke="midnightblue" d="M362.37,-112.32C353.2,-104.34 339.39,-92.31 328.3,-82.65"/>
<polygon fill="midnightblue" stroke="midnightblue" points="330.31,-79.76 320.47,-75.83 325.71,-85.04 330.31,-79.76"/>
</g>
<!-- Node10 -->
<g id="node10" class="node">
<title>Node10</title>
<g id="a_node10"><a xlink:title=" ">
<polygon fill="white" stroke="#bfbfbf" points="466.33,-56.5 466.33,-75.5 516.33,-75.5 516.33,-56.5 466.33,-56.5"/>
<text text-anchor="middle" x="491.33" y="-63.5" font-family="Helvetica,sans-Serif" font-size="10.00">chrono</text>
</a>
</g>
</g>
<!-- Node6&#45;&gt;Node10 -->
<g id="edge12" class="edge">
<title>Node6&#45;&gt;Node10</title>
<path fill="none" stroke="midnightblue" d="M391.18,-112.44C410.59,-103.64 441.06,-89.81 463.29,-79.72"/>
<polygon fill="midnightblue" stroke="midnightblue" points="464.9,-82.84 472.56,-75.52 462.01,-76.46 464.9,-82.84"/>
</g>
<!-- Node9&#45;&gt;Node7 -->
<g id="edge11" class="edge">
<title>Node9&#45;&gt;Node7</title>
<path fill="none" stroke="midnightblue" d="M328.87,-56.44C347.95,-47.64 377.9,-33.81 399.76,-23.72"/>
<polygon fill="midnightblue" stroke="midnightblue" points="401.26,-26.88 408.88,-19.52 398.33,-20.53 401.26,-26.88"/>
</g>
<!-- Node11&#45;&gt;Node3 -->
<g id="edge15" class="edge">
<title>Node11&#45;&gt;Node3</title>
<path fill="none" stroke="midnightblue" d="M166.33,-112.37C166.33,-94.62 166.33,-53.67 166.33,-29.6"/>
<polygon fill="midnightblue" stroke="midnightblue" points="169.83,-29.59 166.33,-19.59 162.83,-29.59 169.83,-29.59"/>
</g>
<!-- Node11&#45;&gt;Node9 -->
<g id="edge16" class="edge">
<title>Node11&#45;&gt;Node9</title>
<path fill="none" stroke="midnightblue" d="M189.15,-112.44C213.16,-103.44 251.16,-89.19 278.2,-79.05"/>
<polygon fill="midnightblue" stroke="midnightblue" points="279.48,-82.3 287.62,-75.52 277.03,-75.75 279.48,-82.3"/>
</g>
<!-- Node12 -->
<g id="node12" class="node">
<title>Node12</title>
<g id="a_node12"><a xlink:title=" ">
<polygon fill="white" stroke="#bfbfbf" points="82.33,-56.5 82.33,-75.5 138.33,-75.5 138.33,-56.5 82.33,-56.5"/>
<text text-anchor="middle" x="110.33" y="-63.5" font-family="Helvetica,sans-Serif" font-size="10.00">sstream</text>
</a>
</g>
</g>
<!-- Node11&#45;&gt;Node12 -->
<g id="edge14" class="edge">
<title>Node11&#45;&gt;Node12</title>
<path fill="none" stroke="midnightblue" d="M157.33,-112.32C149.13,-104.42 136.82,-92.55 126.86,-82.94"/>
<polygon fill="midnightblue" stroke="midnightblue" points="129.12,-80.26 119.49,-75.83 124.26,-85.29 129.12,-80.26"/>
</g>
<!-- Node13 -->
<g id="node13" class="node">
<title>Node13</title>
<g id="a_node13"><a xlink:href="Level_8hpp.html" target="_top" xlink:title="Définition de la classe Level.">
<polygon fill="white" stroke="black" points="194.33,-56.5 194.33,-75.5 258.33,-75.5 258.33,-56.5 194.33,-56.5"/>
<text text-anchor="middle" x="226.33" y="-63.5" font-family="Helvetica,sans-Serif" font-size="10.00">Level.hpp</text>
</a>
</g>
</g>
<!-- Node11&#45;&gt;Node13 -->
<g id="edge17" class="edge">
<title>Node11&#45;&gt;Node13</title>
<path fill="none" stroke="midnightblue" d="M175.97,-112.32C184.84,-104.34 198.2,-92.31 208.94,-82.65"/>
<polygon fill="midnightblue" stroke="midnightblue" points="211.42,-85.13 216.51,-75.83 206.74,-79.92 211.42,-85.13"/>
</g>
<!-- Node13&#45;&gt;Node3 -->
<g id="edge18" class="edge">
<title>Node13&#45;&gt;Node3</title>
<path fill="none" stroke="midnightblue" d="M216.69,-56.32C207.82,-48.34 194.45,-36.31 183.72,-26.65"/>
<polygon fill="midnightblue" stroke="midnightblue" points="185.92,-23.92 176.14,-19.83 181.24,-29.13 185.92,-23.92"/>
</g>
</g>
</svg>
