<?xml version="1.0" encoding="UTF-8" standalone="no"?>
<!DOCTYPE svg PUBLIC "-//W3C//DTD SVG 1.1//EN"
 "http://www.w3.org/Graphics/SVG/1.1/DTD/svg11.dtd">
<!-- Generated by graphviz version 2.43.0 (0)
 -->
<!-- Title: test/suite/UnitTest.hpp Pages: 1 -->
<!--zoomable 140 -->
<svg id="main" version="1.1" xmlns="http://www.w3.org/2000/svg" xmlns:xlink="http://www.w3.org/1999/xlink" xml:space="preserve" onload="init(evt)">
<style type="text/css"><![CDATA[
.edge:hover path { stroke: red; }
.edge:hover polygon { stroke: red; fill: red; }
]]></style>
<script type="text/javascript"><![CDATA[
var edges = document.getElementsByTagName('g');
if (edges && edges.length) {
  for (var i=0;i<edges.length;i++) {
    if (edges[i].id.substr(0,4)=='edge') {
      edges[i].setAttribute('class','edge');
    }
  }
}
]]></script>
        <defs>
                <circle id="rim" cx="0" cy="0" r="7"/>
                <circle id="rim2" cx="0" cy="0" r="3.5"/>
                <g id="zoomPlus">
                        <use xlink:href="#rim" fill="#404040">
                                <set attributeName="fill" to="#808080" begin="zoomplus.mouseover" end="zoomplus.mouseout"/>
                        </use>
                        <path d="M-4,0h8M0,-4v8" fill="none" stroke="white" stroke-width="1.5" pointer-events="none"/>
                </g>
                <g id="zoomMin">
                        <use xlink:href="#rim" fill="#404040">
                                <set attributeName="fill" to="#808080" begin="zoomminus.mouseover" end="zoomminus.mouseout"/>
                        </use>
                        <path d="M-4,0h8" fill="none" stroke="white" stroke-width="1.5" pointer-events="none"/>
                </g>
                <g id="dirArrow">
                        <path fill="none" stroke="white" stroke-width="1.5" d="M0,-3.0v7 M-2.5,-0.5L0,-3.0L2.5,-0.5"/>
                </g>
               <g id="resetDef">
                       <use xlink:href="#rim2" fill="#404040">
                               <set attributeName="fill" to="#808080" begin="reset.mouseover" end="reset.mouseout"/>
                       </use>
               </g>
        </defs>

<script type="text/javascript">
var viewWidth = 931;
var viewHeight = 140;
var sectionId = 'dynsection-1';
</script>
<script xlink:href="svgpan.js"/>
<svg id="graph" class="graph">
<g id="viewport">
<title>test/suite/UnitTest.hpp</title>
<polygon fill="white" stroke="transparent" points="-4,4 -4,-136 926.5,-136 926.5,4 -4,4"/>
<!-- Node1 -->
<g id="node1" class="node">
<title>Node1</title>
<g id="a_node1"><a xlink:title="Définition de la classe DevUnitTest.">
<polygon fill="#bfbfbf" stroke="black" points="468,-112.5 468,-131.5 594,-131.5 594,-112.5 468,-112.5"/>
<text text-anchor="middle" x="531" y="-119.5" font-family="Helvetica,sans-Serif" font-size="10.00">test/suite/UnitTest.hpp</text>
</a>
</g>
</g>
<!-- Node2 -->
<g id="node2" class="node">
<title>Node2</title>
<g id="a_node2"><a xlink:href="ChronometerTest_8hpp.html" target="_top" xlink:title="Définition de la classe ChronometerTest.">
<polygon fill="white" stroke="black" points="72,-56.5 72,-75.5 260,-75.5 260,-56.5 72,-56.5"/>
<text text-anchor="middle" x="166" y="-63.5" font-family="Helvetica,sans-Serif" font-size="10.00">test/common/ChronometerTest.hpp</text>
</a>
</g>
</g>
<!-- Node1&#45;&gt;Node2 -->
<g id="edge1" class="edge">
<title>Node1&#45;&gt;Node2</title>
<path fill="none" stroke="midnightblue" d="M463.27,-110.98C394.32,-100.78 288.59,-85.14 223.56,-75.52"/>
<polygon fill="midnightblue" stroke="midnightblue" points="462.76,-114.44 473.16,-112.44 463.78,-107.52 462.76,-114.44"/>
</g>
<!-- Node5 -->
<g id="node5" class="node">
<title>Node5</title>
<g id="a_node5"><a xlink:href="MutexTest_8hpp.html" target="_top" xlink:title="Définition de la classe MutexTest.">
<polygon fill="white" stroke="black" points="278.5,-56.5 278.5,-75.5 433.5,-75.5 433.5,-56.5 278.5,-56.5"/>
<text text-anchor="middle" x="356" y="-63.5" font-family="Helvetica,sans-Serif" font-size="10.00">test/common/MutexTest.hpp</text>
</a>
</g>
</g>
<!-- Node1&#45;&gt;Node5 -->
<g id="edge4" class="edge">
<title>Node1&#45;&gt;Node5</title>
<path fill="none" stroke="midnightblue" d="M493.53,-109.44C460.53,-99.26 413.24,-84.66 383.6,-75.52"/>
<polygon fill="midnightblue" stroke="midnightblue" points="492.68,-112.84 503.27,-112.44 494.75,-106.15 492.68,-112.84"/>
</g>
<!-- Node7 -->
<g id="node7" class="node">
<title>Node7</title>
<g id="a_node7"><a xlink:href="ThreadTest_8hpp.html" target="_top" xlink:title="Définition de la classe ThreadTest.">
<polygon fill="white" stroke="black" points="452,-56.5 452,-75.5 610,-75.5 610,-56.5 452,-56.5"/>
<text text-anchor="middle" x="531" y="-63.5" font-family="Helvetica,sans-Serif" font-size="10.00">test/common/ThreadTest.hpp</text>
</a>
</g>
</g>
<!-- Node1&#45;&gt;Node7 -->
<g id="edge7" class="edge">
<title>Node1&#45;&gt;Node7</title>
<path fill="none" stroke="midnightblue" d="M531,-101.8C531,-92.91 531,-82.78 531,-75.75"/>
<polygon fill="midnightblue" stroke="midnightblue" points="527.5,-102.08 531,-112.08 534.5,-102.08 527.5,-102.08"/>
</g>
<!-- Node9 -->
<g id="node9" class="node">
<title>Node9</title>
<g id="a_node9"><a xlink:href="UnitTest_8cpp.html" target="_top" xlink:title="Implémentation de la classe DevUnitTest.">
<polygon fill="white" stroke="black" points="797.5,-56.5 797.5,-75.5 922.5,-75.5 922.5,-56.5 797.5,-56.5"/>
<text text-anchor="middle" x="860" y="-63.5" font-family="Helvetica,sans-Serif" font-size="10.00">test/suite/UnitTest.cpp</text>
</a>
</g>
</g>
<!-- Node1&#45;&gt;Node9 -->
<g id="edge10" class="edge">
<title>Node1&#45;&gt;Node9</title>
<path fill="none" stroke="midnightblue" d="M593.2,-110.79C655.37,-100.59 749.86,-85.08 808.11,-75.52"/>
<polygon fill="midnightblue" stroke="midnightblue" points="592.43,-107.37 583.13,-112.44 593.57,-114.28 592.43,-107.37"/>
</g>
<!-- Node10 -->
<g id="node10" class="node">
<title>Node10</title>
<g id="a_node10"><a xlink:href="UnitTestSuite_8hpp.html" target="_top" xlink:title="Définition de la classe UnitTestSuite.">
<polygon fill="white" stroke="black" points="628.5,-56.5 628.5,-75.5 779.5,-75.5 779.5,-56.5 628.5,-56.5"/>
<text text-anchor="middle" x="704" y="-63.5" font-family="Helvetica,sans-Serif" font-size="10.00">test/suite/UnitTestSuite.hpp</text>
</a>
</g>
</g>
<!-- Node1&#45;&gt;Node10 -->
<g id="edge11" class="edge">
<title>Node1&#45;&gt;Node10</title>
<path fill="none" stroke="midnightblue" d="M568.05,-109.44C600.66,-99.26 647.41,-84.66 676.72,-75.52"/>
<polygon fill="midnightblue" stroke="midnightblue" points="566.92,-106.12 558.41,-112.44 569,-112.8 566.92,-106.12"/>
</g>
<!-- Node3 -->
<g id="node3" class="node">
<title>Node3</title>
<g id="a_node3"><a xlink:href="ChronometerTest_8cpp.html" target="_top" xlink:title="Implémentation des tests de la classe utils::Chronometer.">
<polygon fill="white" stroke="black" points="0,-0.5 0,-19.5 188,-19.5 188,-0.5 0,-0.5"/>
<text text-anchor="middle" x="94" y="-7.5" font-family="Helvetica,sans-Serif" font-size="10.00">test/common/ChronometerTest.cpp</text>
</a>
</g>
</g>
<!-- Node2&#45;&gt;Node3 -->
<g id="edge2" class="edge">
<title>Node2&#45;&gt;Node3</title>
<path fill="none" stroke="midnightblue" d="M146.13,-50.1C133.18,-40.38 116.7,-28.03 105.78,-19.83"/>
<polygon fill="midnightblue" stroke="midnightblue" points="144.33,-53.12 154.43,-56.32 148.53,-47.52 144.33,-53.12"/>
</g>
<!-- Node4 -->
<g id="node4" class="node">
<title>Node4</title>
<g id="a_node4"><a xlink:href="Main_8cpp.html" target="_top" xlink:title="Point d&#39;entrée des tests unitaires common.">
<polygon fill="white" stroke="black" points="380,-0.5 380,-19.5 508,-19.5 508,-0.5 380,-0.5"/>
<text text-anchor="middle" x="444" y="-7.5" font-family="Helvetica,sans-Serif" font-size="10.00">test/common/Main.cpp</text>
</a>
</g>
</g>
<!-- Node2&#45;&gt;Node4 -->
<g id="edge3" class="edge">
<title>Node2&#45;&gt;Node4</title>
<path fill="none" stroke="midnightblue" d="M220.19,-54.47C272.73,-44.27 351.44,-28.98 400.16,-19.52"/>
<polygon fill="midnightblue" stroke="midnightblue" points="219.2,-51.1 210.05,-56.44 220.53,-57.97 219.2,-51.1"/>
</g>
<!-- Node5&#45;&gt;Node4 -->
<g id="edge5" class="edge">
<title>Node5&#45;&gt;Node4</title>
<path fill="none" stroke="midnightblue" d="M378.98,-50.9C395.11,-41 416.18,-28.07 429.9,-19.65"/>
<polygon fill="midnightblue" stroke="midnightblue" points="376.83,-48.11 370.14,-56.32 380.49,-54.08 376.83,-48.11"/>
</g>
<!-- Node6 -->
<g id="node6" class="node">
<title>Node6</title>
<g id="a_node6"><a xlink:href="MutexTest_8cpp.html" target="_top" xlink:title="Implémentation des tests de la classe utils::Mutex.">
<polygon fill="white" stroke="black" points="206.5,-0.5 206.5,-19.5 361.5,-19.5 361.5,-0.5 206.5,-0.5"/>
<text text-anchor="middle" x="284" y="-7.5" font-family="Helvetica,sans-Serif" font-size="10.00">test/common/MutexTest.cpp</text>
</a>
</g>
</g>
<!-- Node5&#45;&gt;Node6 -->
<g id="edge6" class="edge">
<title>Node5&#45;&gt;Node6</title>
<path fill="none" stroke="midnightblue" d="M336.13,-50.1C323.18,-40.38 306.7,-28.03 295.78,-19.83"/>
<polygon fill="midnightblue" stroke="midnightblue" points="334.33,-53.12 344.43,-56.32 338.53,-47.52 334.33,-53.12"/>
</g>
<!-- Node7&#45;&gt;Node4 -->
<g id="edge8" class="edge">
<title>Node7&#45;&gt;Node4</title>
<path fill="none" stroke="midnightblue" d="M508.28,-50.9C492.33,-41 471.5,-28.07 457.94,-19.65"/>
<polygon fill="midnightblue" stroke="midnightblue" points="506.68,-54.02 517.02,-56.32 510.37,-48.08 506.68,-54.02"/>
</g>
<!-- Node8 -->
<g id="node8" class="node">
<title>Node8</title>
<g id="a_node8"><a xlink:href="ThreadTest_8cpp.html" target="_top" xlink:title="Implémentation des tests de la classe utils::Thread.">
<polygon fill="white" stroke="black" points="526,-0.5 526,-19.5 684,-19.5 684,-0.5 526,-0.5"/>
<text text-anchor="middle" x="605" y="-7.5" font-family="Helvetica,sans-Serif" font-size="10.00">test/common/ThreadTest.cpp</text>
</a>
</g>
</g>
<!-- Node7&#45;&gt;Node8 -->
<g id="edge9" class="edge">
<title>Node7&#45;&gt;Node8</title>
<path fill="none" stroke="midnightblue" d="M551.03,-50.38C564.41,-40.62 581.56,-28.11 592.89,-19.83"/>
<polygon fill="midnightblue" stroke="midnightblue" points="548.9,-47.6 542.89,-56.32 553.03,-53.26 548.9,-47.6"/>
</g>
<!-- Node10&#45;&gt;Node4 -->
<g id="edge12" class="edge">
<title>Node10&#45;&gt;Node4</title>
<path fill="none" stroke="midnightblue" d="M653.01,-54.41C603.87,-44.2 530.47,-28.96 485.01,-19.52"/>
<polygon fill="midnightblue" stroke="midnightblue" points="652.3,-57.84 662.8,-56.44 653.72,-50.98 652.3,-57.84"/>
</g>
<!-- Node11 -->
<g id="node11" class="node">
<title>Node11</title>
<g id="a_node11"><a xlink:href="UnitTestSuite_8cpp.html" target="_top" xlink:title="Implementation de la classe UnitTestSuite.">
<polygon fill="white" stroke="black" points="702,-0.5 702,-19.5 852,-19.5 852,-0.5 702,-0.5"/>
<text text-anchor="middle" x="777" y="-7.5" font-family="Helvetica,sans-Serif" font-size="10.00">test/suite/UnitTestSuite.cpp</text>
</a>
</g>
</g>
<!-- Node10&#45;&gt;Node11 -->
<g id="edge13" class="edge">
<title>Node10&#45;&gt;Node11</title>
<path fill="none" stroke="midnightblue" d="M724.14,-50.1C737.28,-40.38 753.98,-28.03 765.06,-19.83"/>
<polygon fill="midnightblue" stroke="midnightblue" points="721.69,-47.56 715.73,-56.32 725.85,-53.19 721.69,-47.56"/>
</g>
</g>
</svg>
        <g id="navigator" transform="translate(0 0)" fill="#404254">
                <rect fill="#f2f5e9" fill-opacity="0.5" stroke="#606060" stroke-width=".5" x="0" y="0" width="60" height="60"/>
                <use id="zoomplus" xlink:href="#zoomPlus" x="17" y="9" onmousedown="handleZoom(evt,'in')"/>
                <use id="zoomminus" xlink:href="#zoomMin" x="42" y="9" onmousedown="handleZoom(evt,'out')"/>
                <use id="reset" xlink:href="#resetDef" x="30" y="36" onmousedown="handleReset()"/>
                <g id="arrowUp" xlink:href="#dirArrow" transform="translate(30 24)" onmousedown="handlePan(0,-1)">
                  <use xlink:href="#rim" fill="#404040">
                        <set attributeName="fill" to="#808080" begin="arrowUp.mouseover" end="arrowUp.mouseout"/>
                  </use>
                  <path fill="none" stroke="white" stroke-width="1.5" d="M0,-3.0v7 M-2.5,-0.5L0,-3.0L2.5,-0.5"/>
                </g>
                <g id="arrowRight" xlink:href="#dirArrow" transform="rotate(90) translate(36 -43)" onmousedown="handlePan(1,0)">
                  <use xlink:href="#rim" fill="#404040">
                        <set attributeName="fill" to="#808080" begin="arrowRight.mouseover" end="arrowRight.mouseout"/>
                  </use>
                  <path fill="none" stroke="white" stroke-width="1.5" d="M0,-3.0v7 M-2.5,-0.5L0,-3.0L2.5,-0.5"/>
                </g>
                <g id="arrowDown" xlink:href="#dirArrow" transform="rotate(180) translate(-30 -48)" onmousedown="handlePan(0,1)">
                  <use xlink:href="#rim" fill="#404040">
                        <set attributeName="fill" to="#808080" begin="arrowDown.mouseover" end="arrowDown.mouseout"/>
                  </use>
                  <path fill="none" stroke="white" stroke-width="1.5" d="M0,-3.0v7 M-2.5,-0.5L0,-3.0L2.5,-0.5"/>
                </g>
                <g id="arrowLeft" xlink:href="#dirArrow" transform="rotate(270) translate(-36 17)" onmousedown="handlePan(-1,0)">
                  <use xlink:href="#rim" fill="#404040">
                        <set attributeName="fill" to="#808080" begin="arrowLeft.mouseover" end="arrowLeft.mouseout"/>
                  </use>
                  <path fill="none" stroke="white" stroke-width="1.5" d="M0,-3.0v7 M-2.5,-0.5L0,-3.0L2.5,-0.5"/>
                </g>
        </g>
        <svg viewBox="0 0 15 15" width="100%" height="30px" preserveAspectRatio="xMaxYMin meet">
         <g id="arrow_out" transform="scale(0.3 0.3)">
          <a xlink:href="UnitTest_8hpp__dep__incl_org.svg" target="_base">
           <rect id="button" ry="5" rx="5" y="6" x="6" height="38" width="38"
                fill="#f2f5e9" fill-opacity="0.5" stroke="#606060" stroke-width="1.0"/>
           <path id="arrow"
             d="M 11.500037,31.436501 C 11.940474,20.09759 22.043105,11.32322 32.158766,21.979434 L 37.068811,17.246167 C 37.068811,17.246167 37.088388,32 37.088388,32 L 22.160133,31.978069 C 22.160133,31.978069 26.997745,27.140456 26.997745,27.140456 C 18.528582,18.264221 13.291696,25.230495 11.500037,31.436501 z"
             style="fill:#404040;"/>
          </a>
         </g>
        </svg>
</svg>
